<?xml version="1.0" encoding="UTF-8" standalone="no"?>
<!DOCTYPE svg PUBLIC "-//W3C//DTD SVG 1.1//EN"
 "http://www.w3.org/Graphics/SVG/1.1/DTD/svg11.dtd">
<!-- Generated by graphviz version 2.43.0 (0)
 -->
<!-- Title: pastafarianism Pages: 1 -->
<svg width="744pt" height="404pt"
 viewBox="0.00 0.00 743.91 404.00" xmlns="http://www.w3.org/2000/svg" xmlns:xlink="http://www.w3.org/1999/xlink">
<g id="graph0" class="graph" transform="scale(1 1) rotate(0) translate(4 400)">
<title>pastafarianism</title>
<polygon fill="white" stroke="transparent" points="-4,4 -4,-400 739.91,-400 739.91,4 -4,4"/>
<!-- Sequence -->
<g id="node1" class="node">
<title>Sequence</title>
<polygon fill="cyan" stroke="black" points="401.44,-370.54 401.44,-385.46 383,-396 356.91,-396 338.46,-385.46 338.46,-370.54 356.91,-360 383,-360 401.44,-370.54"/>
<text text-anchor="middle" x="369.95" y="-375.8" font-family="Times,serif" font-size="9.00">Sequence</text>
</g>
<!-- Fallback -->
<g id="node2" class="node">
<title>Fallback</title>
<polygon fill="cyan" stroke="black" points="399.19,-298.54 399.19,-313.46 382.06,-324 357.84,-324 340.71,-313.46 340.71,-298.54 357.84,-288 382.06,-288 399.19,-298.54"/>
<text text-anchor="middle" x="369.95" y="-303.8" font-family="Times,serif" font-size="9.00">Fallback</text>
</g>
<!-- Sequence&#45;&gt;Fallback -->
<g id="edge1" class="edge">
<title>Sequence&#45;&gt;Fallback</title>
<path fill="none" stroke="black" d="M369.95,-359.7C369.95,-351.98 369.95,-342.71 369.95,-334.11"/>
<polygon fill="black" stroke="black" points="373.45,-334.1 369.95,-324.1 366.45,-334.1 373.45,-334.1"/>
</g>
<!-- Sequence* -->
<g id="node3" class="node">
<title>Sequence*</title>
<polygon fill="cyan" stroke="black" points="360.19,-226.54 360.19,-241.46 340.13,-252 311.77,-252 291.71,-241.46 291.71,-226.54 311.77,-216 340.13,-216 360.19,-226.54"/>
<text text-anchor="middle" x="325.95" y="-231.8" font-family="Times,serif" font-size="9.00">Sequence*</text>
</g>
<!-- Fallback&#45;&gt;Sequence* -->
<g id="edge2" class="edge">
<title>Fallback&#45;&gt;Sequence*</title>
<path fill="none" stroke="black" d="M359.07,-287.7C353.96,-279.56 347.75,-269.69 342.11,-260.7"/>
<polygon fill="black" stroke="black" points="344.99,-258.71 336.7,-252.1 339.06,-262.43 344.99,-258.71"/>
</g>
<!-- Sequence** -->
<g id="node6" class="node">
<title>Sequence**</title>
<polygon fill="cyan" stroke="black" points="491.69,-226.54 491.69,-241.46 470.17,-252 439.73,-252 418.21,-241.46 418.21,-226.54 439.73,-216 470.17,-216 491.69,-226.54"/>
<text text-anchor="middle" x="454.95" y="-231.8" font-family="Times,serif" font-size="9.00">Sequence**</text>
</g>
<!-- Fallback&#45;&gt;Sequence** -->
<g id="edge5" class="edge">
<title>Fallback&#45;&gt;Sequence**</title>
<path fill="none" stroke="black" d="M387.15,-290.83C398.96,-281.11 414.87,-268.01 428.31,-256.94"/>
<polygon fill="black" stroke="black" points="430.81,-259.42 436.3,-250.36 426.36,-254.01 430.81,-259.42"/>
</g>
<!-- ReachGoal? -->
<g id="node4" class="node">
<title>ReachGoal?</title>
<ellipse fill="gray" stroke="black" cx="236.95" cy="-162" rx="34.13" ry="18"/>
<text text-anchor="middle" x="236.95" y="-159.8" font-family="Times,serif" font-size="9.00">ReachGoal?</text>
</g>
<!-- Sequence*&#45;&gt;ReachGoal? -->
<g id="edge3" class="edge">
<title>Sequence*&#45;&gt;ReachGoal?</title>
<path fill="none" stroke="black" d="M307.08,-218.15C294.28,-208.09 277.19,-194.65 263.09,-183.56"/>
<polygon fill="black" stroke="black" points="265.21,-180.78 255.19,-177.35 260.89,-186.28 265.21,-180.78"/>
</g>
<!-- GetSubGoal! -->
<g id="node5" class="node">
<title>GetSubGoal!</title>
<ellipse fill="gray" stroke="black" cx="325.95" cy="-162" rx="36.9" ry="18"/>
<text text-anchor="middle" x="325.95" y="-159.8" font-family="Times,serif" font-size="9.00">GetSubGoal!</text>
</g>
<!-- Sequence*&#45;&gt;GetSubGoal! -->
<g id="edge4" class="edge">
<title>Sequence*&#45;&gt;GetSubGoal!</title>
<path fill="none" stroke="black" d="M325.95,-215.7C325.95,-207.98 325.95,-198.71 325.95,-190.11"/>
<polygon fill="black" stroke="black" points="329.45,-190.1 325.95,-180.1 322.45,-190.1 329.45,-190.1"/>
</g>
<!-- Fallback* -->
<g id="node7" class="node">
<title>Fallback*</title>
<polygon fill="cyan" stroke="black" points="444.69,-154.54 444.69,-169.46 426.1,-180 399.8,-180 381.21,-169.46 381.21,-154.54 399.8,-144 426.1,-144 444.69,-154.54"/>
<text text-anchor="middle" x="412.95" y="-159.8" font-family="Times,serif" font-size="9.00">Fallback*</text>
</g>
<!-- Sequence**&#45;&gt;Fallback* -->
<g id="edge6" class="edge">
<title>Sequence**&#45;&gt;Fallback*</title>
<path fill="none" stroke="black" d="M444.57,-215.7C439.69,-207.56 433.76,-197.69 428.37,-188.7"/>
<polygon fill="black" stroke="black" points="431.36,-186.88 423.21,-180.1 425.36,-190.48 431.36,-186.88"/>
</g>
<!-- MoveTo!* -->
<g id="node18" class="node">
<title>MoveTo!*</title>
<ellipse fill="gray" stroke="black" cx="494.95" cy="-162" rx="31.51" ry="18"/>
<text text-anchor="middle" x="494.95" y="-159.8" font-family="Times,serif" font-size="9.00">MoveTo!*</text>
</g>
<!-- Sequence**&#45;&gt;MoveTo!* -->
<g id="edge17" class="edge">
<title>Sequence**&#45;&gt;MoveTo!*</title>
<path fill="none" stroke="black" d="M464.84,-215.7C469.51,-207.52 475.18,-197.6 480.33,-188.58"/>
<polygon fill="black" stroke="black" points="483.53,-190.04 485.45,-179.62 477.45,-186.57 483.53,-190.04"/>
</g>
<!-- ReachGoal?** -->
<g id="node19" class="node">
<title>ReachGoal?**</title>
<ellipse fill="gray" stroke="black" cx="583.95" cy="-162" rx="39.02" ry="18"/>
<text text-anchor="middle" x="583.95" y="-159.8" font-family="Times,serif" font-size="9.00">ReachGoal?**</text>
</g>
<!-- Sequence**&#45;&gt;ReachGoal?** -->
<g id="edge18" class="edge">
<title>Sequence**&#45;&gt;ReachGoal?**</title>
<path fill="none" stroke="black" d="M478.91,-220C499.15,-209.02 528.34,-193.18 550.81,-180.98"/>
<polygon fill="black" stroke="black" points="552.56,-184.02 559.68,-176.17 549.22,-177.86 552.56,-184.02"/>
</g>
<!-- Sequence*** -->
<g id="node8" class="node">
<title>Sequence***</title>
<polygon fill="cyan" stroke="black" points="205.94,-82.54 205.94,-97.46 182.51,-108 149.39,-108 125.96,-97.46 125.96,-82.54 149.39,-72 182.51,-72 205.94,-82.54"/>
<text text-anchor="middle" x="165.95" y="-87.8" font-family="Times,serif" font-size="9.00">Sequence***</text>
</g>
<!-- Fallback*&#45;&gt;Sequence*** -->
<g id="edge7" class="edge">
<title>Fallback*&#45;&gt;Sequence***</title>
<path fill="none" stroke="black" d="M388.48,-150.07C383.1,-147.89 377.38,-145.74 371.95,-144 303.76,-122.21 283.76,-127.76 214.95,-108 211.97,-107.15 208.91,-106.21 205.84,-105.24"/>
<polygon fill="black" stroke="black" points="206.7,-101.84 196.11,-102.04 204.51,-108.49 206.7,-101.84"/>
</g>
<!-- NotReadyForSG? -->
<g id="node13" class="node">
<title>NotReadyForSG?</title>
<ellipse fill="gray" stroke="black" cx="270.95" cy="-90" rx="46.53" ry="18"/>
<text text-anchor="middle" x="270.95" y="-87.8" font-family="Times,serif" font-size="9.00">NotReadyForSG?</text>
</g>
<!-- Fallback*&#45;&gt;NotReadyForSG? -->
<g id="edge12" class="edge">
<title>Fallback*&#45;&gt;NotReadyForSG?</title>
<path fill="none" stroke="black" d="M389.82,-149.6C367.63,-138.66 333.77,-121.97 307.85,-109.19"/>
<polygon fill="black" stroke="black" points="309.22,-105.96 298.7,-104.68 306.12,-112.24 309.22,-105.96"/>
</g>
<!-- LkClose? -->
<g id="node14" class="node">
<title>LkClose?</title>
<ellipse fill="gray" stroke="black" cx="364.95" cy="-90" rx="28.74" ry="18"/>
<text text-anchor="middle" x="364.95" y="-87.8" font-family="Times,serif" font-size="9.00">LkClose?</text>
</g>
<!-- Fallback*&#45;&gt;LkClose? -->
<g id="edge13" class="edge">
<title>Fallback*&#45;&gt;LkClose?</title>
<path fill="none" stroke="black" d="M401.09,-143.7C395.28,-135.23 388.19,-124.89 381.83,-115.61"/>
<polygon fill="black" stroke="black" points="384.56,-113.41 376.02,-107.14 378.79,-117.37 384.56,-113.41"/>
</g>
<!-- NotReadyForSG?* -->
<g id="node15" class="node">
<title>NotReadyForSG?*</title>
<ellipse fill="gray" stroke="black" cx="461.95" cy="-90" rx="49.8" ry="18"/>
<text text-anchor="middle" x="461.95" y="-87.8" font-family="Times,serif" font-size="9.00">NotReadyForSG?*</text>
</g>
<!-- Fallback*&#45;&gt;NotReadyForSG?* -->
<g id="edge14" class="edge">
<title>Fallback*&#45;&gt;NotReadyForSG?*</title>
<path fill="none" stroke="black" d="M425.06,-143.7C430.9,-135.35 438.02,-125.18 444.44,-116.02"/>
<polygon fill="black" stroke="black" points="447.45,-117.82 450.31,-107.62 441.71,-113.81 447.45,-117.82"/>
</g>
<!-- GetSubGoal!** -->
<g id="node16" class="node">
<title>GetSubGoal!**</title>
<ellipse fill="gray" stroke="black" cx="571.95" cy="-90" rx="42.29" ry="18"/>
<text text-anchor="middle" x="571.95" y="-87.8" font-family="Times,serif" font-size="9.00">GetSubGoal!**</text>
</g>
<!-- Fallback*&#45;&gt;GetSubGoal!** -->
<g id="edge15" class="edge">
<title>Fallback*&#45;&gt;GetSubGoal!**</title>
<path fill="none" stroke="black" d="M437.45,-150.22C463.31,-138.83 504.4,-120.74 534.36,-107.55"/>
<polygon fill="black" stroke="black" points="535.93,-110.68 543.67,-103.45 533.11,-104.28 535.93,-110.68"/>
</g>
<!-- NotReadyForSG?** -->
<g id="node17" class="node">
<title>NotReadyForSG?**</title>
<ellipse fill="gray" stroke="black" cx="683.95" cy="-90" rx="51.92" ry="18"/>
<text text-anchor="middle" x="683.95" y="-87.8" font-family="Times,serif" font-size="9.00">NotReadyForSG?**</text>
</g>
<!-- Fallback*&#45;&gt;NotReadyForSG?** -->
<g id="edge16" class="edge">
<title>Fallback*&#45;&gt;NotReadyForSG?**</title>
<path fill="none" stroke="black" d="M437.4,-150.01C442.78,-147.83 448.51,-145.69 453.95,-144 527.28,-121.2 548.37,-126.32 622.95,-108 627.03,-107 631.26,-105.91 635.49,-104.8"/>
<polygon fill="black" stroke="black" points="636.57,-108.13 645.32,-102.15 634.76,-101.37 636.57,-108.13"/>
</g>
<!-- ReachGoal?* -->
<g id="node9" class="node">
<title>ReachGoal?*</title>
<ellipse fill="gray" stroke="black" cx="36.95" cy="-18" rx="36.9" ry="18"/>
<text text-anchor="middle" x="36.95" y="-15.8" font-family="Times,serif" font-size="9.00">ReachGoal?*</text>
</g>
<!-- Sequence***&#45;&gt;ReachGoal?* -->
<g id="edge8" class="edge">
<title>Sequence***&#45;&gt;ReachGoal?*</title>
<path fill="none" stroke="black" d="M141.08,-75.5C120.83,-64.52 92.09,-48.92 69.93,-36.89"/>
<polygon fill="black" stroke="black" points="71.33,-33.68 60.87,-31.98 67.99,-39.83 71.33,-33.68"/>
</g>
<!-- MoveTo! -->
<g id="node10" class="node">
<title>MoveTo!</title>
<ellipse fill="gray" stroke="black" cx="120.95" cy="-18" rx="28.74" ry="18"/>
<text text-anchor="middle" x="120.95" y="-15.8" font-family="Times,serif" font-size="9.00">MoveTo!</text>
</g>
<!-- Sequence***&#45;&gt;MoveTo! -->
<g id="edge9" class="edge">
<title>Sequence***&#45;&gt;MoveTo!</title>
<path fill="none" stroke="black" d="M154.83,-71.7C149.38,-63.23 142.73,-52.89 136.77,-43.61"/>
<polygon fill="black" stroke="black" points="139.68,-41.66 131.33,-35.14 133.79,-45.45 139.68,-41.66"/>
</g>
<!-- CompLkGraph! -->
<g id="node11" class="node">
<title>CompLkGraph!</title>
<ellipse fill="gray" stroke="black" cx="210.95" cy="-18" rx="42.95" ry="18"/>
<text text-anchor="middle" x="210.95" y="-15.8" font-family="Times,serif" font-size="9.00">CompLkGraph!</text>
</g>
<!-- Sequence***&#45;&gt;CompLkGraph! -->
<g id="edge10" class="edge">
<title>Sequence***&#45;&gt;CompLkGraph!</title>
<path fill="none" stroke="black" d="M177.07,-71.7C182.38,-63.44 188.84,-53.39 194.69,-44.3"/>
<polygon fill="black" stroke="black" points="197.8,-45.93 200.26,-35.62 191.91,-42.14 197.8,-45.93"/>
</g>
<!-- GetSubGoal!* -->
<g id="node12" class="node">
<title>GetSubGoal!*</title>
<ellipse fill="gray" stroke="black" cx="310.95" cy="-18" rx="39.02" ry="18"/>
<text text-anchor="middle" x="310.95" y="-15.8" font-family="Times,serif" font-size="9.00">GetSubGoal!*</text>
</g>
<!-- Sequence***&#45;&gt;GetSubGoal!* -->
<g id="edge11" class="edge">
<title>Sequence***&#45;&gt;GetSubGoal!*</title>
<path fill="none" stroke="black" d="M192.21,-76.32C215.61,-65.02 250.05,-48.4 275.82,-35.96"/>
<polygon fill="black" stroke="black" points="277.4,-39.08 284.89,-31.58 274.36,-32.78 277.4,-39.08"/>
</g>
</g>
</svg>
