<?xml version="1.0" encoding="UTF-8" standalone="no"?>
<!DOCTYPE svg PUBLIC "-//W3C//DTD SVG 1.1//EN"
 "http://www.w3.org/Graphics/SVG/1.1/DTD/svg11.dtd">
<!-- Generated by graphviz version 2.43.0 (0)
 -->
<!-- Title: pastafarianism Pages: 1 -->
<svg width="847pt" height="404pt"
 viewBox="0.00 0.00 846.91 404.00" xmlns="http://www.w3.org/2000/svg" xmlns:xlink="http://www.w3.org/1999/xlink">
<g id="graph0" class="graph" transform="scale(1 1) rotate(0) translate(4 400)">
<title>pastafarianism</title>
<polygon fill="white" stroke="transparent" points="-4,4 -4,-400 842.91,-400 842.91,4 -4,4"/>
<!-- Sequence -->
<g id="node1" class="node">
<title>Sequence</title>
<polygon fill="cyan" stroke="black" points="529.44,-370.54 529.44,-385.46 511,-396 484.91,-396 466.46,-385.46 466.46,-370.54 484.91,-360 511,-360 529.44,-370.54"/>
<text text-anchor="middle" x="497.95" y="-375.8" font-family="Times,serif" font-size="9.00">Sequence</text>
</g>
<!-- Fallback -->
<g id="node2" class="node">
<title>Fallback</title>
<polygon fill="cyan" stroke="black" points="488.19,-298.54 488.19,-313.46 471.06,-324 446.84,-324 429.71,-313.46 429.71,-298.54 446.84,-288 471.06,-288 488.19,-298.54"/>
<text text-anchor="middle" x="458.95" y="-303.8" font-family="Times,serif" font-size="9.00">Fallback</text>
</g>
<!-- Sequence&#45;&gt;Fallback -->
<g id="edge1" class="edge">
<title>Sequence&#45;&gt;Fallback</title>
<path fill="none" stroke="black" d="M488.31,-359.7C483.82,-351.64 478.39,-341.89 473.43,-332.98"/>
<polygon fill="black" stroke="black" points="476.4,-331.14 468.48,-324.1 470.29,-334.54 476.4,-331.14"/>
</g>
<!-- LkGraph? -->
<g id="node20" class="node">
<title>LkGraph?</title>
<ellipse fill="gray" stroke="black" cx="536.95" cy="-306" rx="30.7" ry="18"/>
<text text-anchor="middle" x="536.95" y="-303.8" font-family="Times,serif" font-size="9.00">LkGraph?</text>
</g>
<!-- Sequence&#45;&gt;LkGraph? -->
<g id="edge19" class="edge">
<title>Sequence&#45;&gt;LkGraph?</title>
<path fill="none" stroke="black" d="M507.59,-359.7C512.14,-351.52 517.67,-341.6 522.7,-332.58"/>
<polygon fill="black" stroke="black" points="525.88,-334.06 527.69,-323.62 519.76,-330.65 525.88,-334.06"/>
</g>
<!-- ReachGoal? -->
<g id="node3" class="node">
<title>ReachGoal?</title>
<ellipse fill="gray" stroke="black" cx="415.95" cy="-234" rx="34.13" ry="18"/>
<text text-anchor="middle" x="415.95" y="-231.8" font-family="Times,serif" font-size="9.00">ReachGoal?</text>
</g>
<!-- Fallback&#45;&gt;ReachGoal? -->
<g id="edge2" class="edge">
<title>Fallback&#45;&gt;ReachGoal?</title>
<path fill="none" stroke="black" d="M448.32,-287.7C443.25,-279.44 437.08,-269.39 431.49,-260.3"/>
<polygon fill="black" stroke="black" points="434.38,-258.31 426.16,-251.62 428.41,-261.98 434.38,-258.31"/>
</g>
<!-- Sequence* -->
<g id="node4" class="node">
<title>Sequence*</title>
<polygon fill="cyan" stroke="black" points="536.19,-226.54 536.19,-241.46 516.13,-252 487.77,-252 467.71,-241.46 467.71,-226.54 487.77,-216 516.13,-216 536.19,-226.54"/>
<text text-anchor="middle" x="501.95" y="-231.8" font-family="Times,serif" font-size="9.00">Sequence*</text>
</g>
<!-- Fallback&#45;&gt;Sequence* -->
<g id="edge3" class="edge">
<title>Fallback&#45;&gt;Sequence*</title>
<path fill="none" stroke="black" d="M469.58,-287.7C474.58,-279.56 480.64,-269.69 486.16,-260.7"/>
<polygon fill="black" stroke="black" points="489.19,-262.46 491.44,-252.1 483.23,-258.79 489.19,-262.46"/>
</g>
<!-- Fallback* -->
<g id="node5" class="node">
<title>Fallback*</title>
<polygon fill="cyan" stroke="black" points="451.69,-154.54 451.69,-169.46 433.1,-180 406.8,-180 388.21,-169.46 388.21,-154.54 406.8,-144 433.1,-144 451.69,-154.54"/>
<text text-anchor="middle" x="419.95" y="-159.8" font-family="Times,serif" font-size="9.00">Fallback*</text>
</g>
<!-- Sequence*&#45;&gt;Fallback* -->
<g id="edge4" class="edge">
<title>Sequence*&#45;&gt;Fallback*</title>
<path fill="none" stroke="black" d="M484.16,-217.81C472.8,-208.11 457.89,-195.39 445.3,-184.64"/>
<polygon fill="black" stroke="black" points="447.3,-181.75 437.43,-177.92 442.76,-187.07 447.3,-181.75"/>
</g>
<!-- MoveTo!* -->
<g id="node18" class="node">
<title>MoveTo!*</title>
<ellipse fill="gray" stroke="black" cx="501.95" cy="-162" rx="31.51" ry="18"/>
<text text-anchor="middle" x="501.95" y="-159.8" font-family="Times,serif" font-size="9.00">MoveTo!*</text>
</g>
<!-- Sequence*&#45;&gt;MoveTo!* -->
<g id="edge17" class="edge">
<title>Sequence*&#45;&gt;MoveTo!*</title>
<path fill="none" stroke="black" d="M501.95,-215.7C501.95,-207.98 501.95,-198.71 501.95,-190.11"/>
<polygon fill="black" stroke="black" points="505.45,-190.1 501.95,-180.1 498.45,-190.1 505.45,-190.1"/>
</g>
<!-- ReachGoal?*** -->
<g id="node19" class="node">
<title>ReachGoal?***</title>
<ellipse fill="gray" stroke="black" cx="593.95" cy="-162" rx="42.29" ry="18"/>
<text text-anchor="middle" x="593.95" y="-159.8" font-family="Times,serif" font-size="9.00">ReachGoal?***</text>
</g>
<!-- Sequence*&#45;&gt;ReachGoal?*** -->
<g id="edge18" class="edge">
<title>Sequence*&#45;&gt;ReachGoal?***</title>
<path fill="none" stroke="black" d="M521.01,-218.5C534.04,-208.59 551.51,-195.29 566.08,-184.2"/>
<polygon fill="black" stroke="black" points="568.44,-186.81 574.28,-177.97 564.2,-181.24 568.44,-186.81"/>
</g>
<!-- Sequence** -->
<g id="node6" class="node">
<title>Sequence**</title>
<polygon fill="cyan" stroke="black" points="119.69,-82.54 119.69,-97.46 98.17,-108 67.73,-108 46.21,-97.46 46.21,-82.54 67.73,-72 98.17,-72 119.69,-82.54"/>
<text text-anchor="middle" x="82.95" y="-87.8" font-family="Times,serif" font-size="9.00">Sequence**</text>
</g>
<!-- Fallback*&#45;&gt;Sequence** -->
<g id="edge5" class="edge">
<title>Fallback*&#45;&gt;Sequence**</title>
<path fill="none" stroke="black" d="M388.11,-157.05C334.15,-149.94 221.57,-133.34 128.95,-108 126.01,-107.19 122.99,-106.28 119.97,-105.31"/>
<polygon fill="black" stroke="black" points="121.02,-101.97 110.43,-102.04 118.75,-108.59 121.02,-101.97"/>
</g>
<!-- NotReadyForSG? -->
<g id="node9" class="node">
<title>NotReadyForSG?</title>
<ellipse fill="gray" stroke="black" cx="184.95" cy="-90" rx="46.53" ry="18"/>
<text text-anchor="middle" x="184.95" y="-87.8" font-family="Times,serif" font-size="9.00">NotReadyForSG?</text>
</g>
<!-- Fallback*&#45;&gt;NotReadyForSG? -->
<g id="edge8" class="edge">
<title>Fallback*&#45;&gt;NotReadyForSG?</title>
<path fill="none" stroke="black" d="M391.41,-152.62C356.07,-142.22 294.04,-123.92 240.95,-108 237.43,-106.95 233.8,-105.85 230.14,-104.75"/>
<polygon fill="black" stroke="black" points="231.07,-101.37 220.49,-101.83 229.05,-108.07 231.07,-101.37"/>
</g>
<!-- LkClose? -->
<g id="node10" class="node">
<title>LkClose?</title>
<ellipse fill="gray" stroke="black" cx="278.95" cy="-90" rx="28.74" ry="18"/>
<text text-anchor="middle" x="278.95" y="-87.8" font-family="Times,serif" font-size="9.00">LkClose?</text>
</g>
<!-- Fallback*&#45;&gt;LkClose? -->
<g id="edge9" class="edge">
<title>Fallback*&#45;&gt;LkClose?</title>
<path fill="none" stroke="black" d="M396.67,-149.44C372.98,-137.68 336.14,-119.39 309.98,-106.41"/>
<polygon fill="black" stroke="black" points="311.39,-103.2 300.88,-101.88 308.28,-109.47 311.39,-103.2"/>
</g>
<!-- Sequence*** -->
<g id="node11" class="node">
<title>Sequence***</title>
<polygon fill="cyan" stroke="black" points="405.94,-82.54 405.94,-97.46 382.51,-108 349.39,-108 325.96,-97.46 325.96,-82.54 349.39,-72 382.51,-72 405.94,-82.54"/>
<text text-anchor="middle" x="365.95" y="-87.8" font-family="Times,serif" font-size="9.00">Sequence***</text>
</g>
<!-- Fallback*&#45;&gt;Sequence*** -->
<g id="edge10" class="edge">
<title>Fallback*&#45;&gt;Sequence***</title>
<path fill="none" stroke="black" d="M406.6,-143.7C400.19,-135.39 392.39,-125.28 385.34,-116.14"/>
<polygon fill="black" stroke="black" points="388.02,-113.88 379.15,-108.1 382.48,-118.16 388.02,-113.88"/>
</g>
<!-- NotReadyForSG?* -->
<g id="node14" class="node">
<title>NotReadyForSG?*</title>
<ellipse fill="gray" stroke="black" cx="473.95" cy="-90" rx="49.8" ry="18"/>
<text text-anchor="middle" x="473.95" y="-87.8" font-family="Times,serif" font-size="9.00">NotReadyForSG?*</text>
</g>
<!-- Fallback*&#45;&gt;NotReadyForSG?* -->
<g id="edge13" class="edge">
<title>Fallback*&#45;&gt;NotReadyForSG?*</title>
<path fill="none" stroke="black" d="M433.3,-143.7C439.8,-135.27 447.74,-124.97 454.87,-115.73"/>
<polygon fill="black" stroke="black" points="457.79,-117.68 461.13,-107.62 452.25,-113.4 457.79,-117.68"/>
</g>
<!-- ReachGoal?** -->
<g id="node15" class="node">
<title>ReachGoal?**</title>
<ellipse fill="gray" stroke="black" cx="580.95" cy="-90" rx="39.02" ry="18"/>
<text text-anchor="middle" x="580.95" y="-87.8" font-family="Times,serif" font-size="9.00">ReachGoal?**</text>
</g>
<!-- Fallback*&#45;&gt;ReachGoal?** -->
<g id="edge14" class="edge">
<title>Fallback*&#45;&gt;ReachGoal?**</title>
<path fill="none" stroke="black" d="M444.4,-150.37C470.91,-138.84 513.53,-120.31 544.1,-107.02"/>
<polygon fill="black" stroke="black" points="545.79,-110.1 553.57,-102.91 543,-103.68 545.79,-110.1"/>
</g>
<!-- GetSubGoal!* -->
<g id="node16" class="node">
<title>GetSubGoal!*</title>
<ellipse fill="gray" stroke="black" cx="677.95" cy="-90" rx="39.02" ry="18"/>
<text text-anchor="middle" x="677.95" y="-87.8" font-family="Times,serif" font-size="9.00">GetSubGoal!*</text>
</g>
<!-- Fallback*&#45;&gt;GetSubGoal!* -->
<g id="edge15" class="edge">
<title>Fallback*&#45;&gt;GetSubGoal!*</title>
<path fill="none" stroke="black" d="M444.4,-150.01C449.78,-147.83 455.51,-145.7 460.95,-144 533.85,-121.28 555.41,-128.55 628.95,-108 632.12,-107.12 635.37,-106.14 638.64,-105.11"/>
<polygon fill="black" stroke="black" points="639.92,-108.37 648.34,-101.93 637.74,-101.72 639.92,-108.37"/>
</g>
<!-- NotReadyForSG?** -->
<g id="node17" class="node">
<title>NotReadyForSG?**</title>
<ellipse fill="gray" stroke="black" cx="786.95" cy="-90" rx="51.92" ry="18"/>
<text text-anchor="middle" x="786.95" y="-87.8" font-family="Times,serif" font-size="9.00">NotReadyForSG?**</text>
</g>
<!-- Fallback*&#45;&gt;NotReadyForSG?** -->
<g id="edge16" class="edge">
<title>Fallback*&#45;&gt;NotReadyForSG?**</title>
<path fill="none" stroke="black" d="M443.87,-149.87C449.39,-147.65 455.3,-145.53 460.95,-144 575.69,-112.98 609.54,-132.01 725.95,-108 730.31,-107.1 734.81,-106.06 739.31,-104.95"/>
<polygon fill="black" stroke="black" points="740.27,-108.31 749.08,-102.42 738.52,-101.54 740.27,-108.31"/>
</g>
<!-- ReachGoal?* -->
<g id="node7" class="node">
<title>ReachGoal?*</title>
<ellipse fill="gray" stroke="black" cx="36.95" cy="-18" rx="36.9" ry="18"/>
<text text-anchor="middle" x="36.95" y="-15.8" font-family="Times,serif" font-size="9.00">ReachGoal?*</text>
</g>
<!-- Sequence**&#45;&gt;ReachGoal?* -->
<g id="edge6" class="edge">
<title>Sequence**&#45;&gt;ReachGoal?*</title>
<path fill="none" stroke="black" d="M71.58,-71.7C66.1,-63.35 59.41,-53.18 53.39,-44.02"/>
<polygon fill="black" stroke="black" points="56.29,-42.06 47.87,-35.62 50.44,-45.9 56.29,-42.06"/>
</g>
<!-- GetSubGoal! -->
<g id="node8" class="node">
<title>GetSubGoal!</title>
<ellipse fill="gray" stroke="black" cx="128.95" cy="-18" rx="36.9" ry="18"/>
<text text-anchor="middle" x="128.95" y="-15.8" font-family="Times,serif" font-size="9.00">GetSubGoal!</text>
</g>
<!-- Sequence**&#45;&gt;GetSubGoal! -->
<g id="edge7" class="edge">
<title>Sequence**&#45;&gt;GetSubGoal!</title>
<path fill="none" stroke="black" d="M94.32,-71.7C99.81,-63.35 106.49,-53.18 112.51,-44.02"/>
<polygon fill="black" stroke="black" points="115.46,-45.9 118.03,-35.62 109.61,-42.06 115.46,-45.9"/>
</g>
<!-- LkClose?* -->
<g id="node12" class="node">
<title>LkClose?*</title>
<ellipse fill="gray" stroke="black" cx="325.95" cy="-18" rx="31.51" ry="18"/>
<text text-anchor="middle" x="325.95" y="-15.8" font-family="Times,serif" font-size="9.00">LkClose?*</text>
</g>
<!-- Sequence***&#45;&gt;LkClose?* -->
<g id="edge11" class="edge">
<title>Sequence***&#45;&gt;LkClose?*</title>
<path fill="none" stroke="black" d="M356.06,-71.7C351.39,-63.52 345.72,-53.6 340.57,-44.58"/>
<polygon fill="black" stroke="black" points="343.45,-42.57 335.45,-35.62 337.37,-46.04 343.45,-42.57"/>
</g>
<!-- MoveTo! -->
<g id="node13" class="node">
<title>MoveTo!</title>
<ellipse fill="gray" stroke="black" cx="404.95" cy="-18" rx="28.74" ry="18"/>
<text text-anchor="middle" x="404.95" y="-15.8" font-family="Times,serif" font-size="9.00">MoveTo!</text>
</g>
<!-- Sequence***&#45;&gt;MoveTo! -->
<g id="edge12" class="edge">
<title>Sequence***&#45;&gt;MoveTo!</title>
<path fill="none" stroke="black" d="M375.59,-71.7C380.26,-63.32 385.95,-53.1 391.08,-43.9"/>
<polygon fill="black" stroke="black" points="394.15,-45.58 395.96,-35.14 388.03,-42.18 394.15,-45.58"/>
</g>
</g>
</svg>
