<?xml version="1.0" encoding="UTF-8" standalone="no"?>
<!DOCTYPE svg PUBLIC "-//W3C//DTD SVG 1.1//EN"
 "http://www.w3.org/Graphics/SVG/1.1/DTD/svg11.dtd">
<!-- Generated by graphviz version 2.43.0 (0)
 -->
<!-- Title: pastafarianism Pages: 1 -->
<svg width="761pt" height="404pt"
 viewBox="0.00 0.00 760.91 404.00" xmlns="http://www.w3.org/2000/svg" xmlns:xlink="http://www.w3.org/1999/xlink">
<g id="graph0" class="graph" transform="scale(1 1) rotate(0) translate(4 400)">
<title>pastafarianism</title>
<polygon fill="white" stroke="transparent" points="-4,4 -4,-400 756.91,-400 756.91,4 -4,4"/>
<!-- Sequence -->
<g id="node1" class="node">
<title>Sequence</title>
<polygon fill="cyan" stroke="black" points="431.44,-370.54 431.44,-385.46 413,-396 386.91,-396 368.46,-385.46 368.46,-370.54 386.91,-360 413,-360 431.44,-370.54"/>
<text text-anchor="middle" x="399.95" y="-375.8" font-family="Times,serif" font-size="9.00">Sequence</text>
</g>
<!-- Fallback -->
<g id="node2" class="node">
<title>Fallback</title>
<polygon fill="cyan" stroke="black" points="429.19,-298.54 429.19,-313.46 412.06,-324 387.84,-324 370.71,-313.46 370.71,-298.54 387.84,-288 412.06,-288 429.19,-298.54"/>
<text text-anchor="middle" x="399.95" y="-303.8" font-family="Times,serif" font-size="9.00">Fallback</text>
</g>
<!-- Sequence&#45;&gt;Fallback -->
<g id="edge1" class="edge">
<title>Sequence&#45;&gt;Fallback</title>
<path fill="none" stroke="black" d="M399.95,-359.7C399.95,-351.98 399.95,-342.71 399.95,-334.11"/>
<polygon fill="black" stroke="black" points="403.45,-334.1 399.95,-324.1 396.45,-334.1 403.45,-334.1"/>
</g>
<!-- Sequence* -->
<g id="node3" class="node">
<title>Sequence*</title>
<polygon fill="cyan" stroke="black" points="390.19,-226.54 390.19,-241.46 370.13,-252 341.77,-252 321.71,-241.46 321.71,-226.54 341.77,-216 370.13,-216 390.19,-226.54"/>
<text text-anchor="middle" x="355.95" y="-231.8" font-family="Times,serif" font-size="9.00">Sequence*</text>
</g>
<!-- Fallback&#45;&gt;Sequence* -->
<g id="edge2" class="edge">
<title>Fallback&#45;&gt;Sequence*</title>
<path fill="none" stroke="black" d="M389.07,-287.7C383.96,-279.56 377.75,-269.69 372.11,-260.7"/>
<polygon fill="black" stroke="black" points="374.99,-258.71 366.7,-252.1 369.06,-262.43 374.99,-258.71"/>
</g>
<!-- Sequence** -->
<g id="node6" class="node">
<title>Sequence**</title>
<polygon fill="cyan" stroke="black" points="517.69,-226.54 517.69,-241.46 496.17,-252 465.73,-252 444.21,-241.46 444.21,-226.54 465.73,-216 496.17,-216 517.69,-226.54"/>
<text text-anchor="middle" x="480.95" y="-231.8" font-family="Times,serif" font-size="9.00">Sequence**</text>
</g>
<!-- Fallback&#45;&gt;Sequence** -->
<g id="edge5" class="edge">
<title>Fallback&#45;&gt;Sequence**</title>
<path fill="none" stroke="black" d="M416.73,-290.5C427.76,-280.97 442.4,-268.32 454.92,-257.5"/>
<polygon fill="black" stroke="black" points="457.5,-259.89 462.78,-250.7 452.93,-254.59 457.5,-259.89"/>
</g>
<!-- ReachGoal? -->
<g id="node4" class="node">
<title>ReachGoal?</title>
<ellipse fill="gray" stroke="black" cx="274.95" cy="-162" rx="34.13" ry="18"/>
<text text-anchor="middle" x="274.95" y="-159.8" font-family="Times,serif" font-size="9.00">ReachGoal?</text>
</g>
<!-- Sequence*&#45;&gt;ReachGoal? -->
<g id="edge3" class="edge">
<title>Sequence*&#45;&gt;ReachGoal?</title>
<path fill="none" stroke="black" d="M337.97,-217.46C326.73,-207.75 312.1,-195.1 299.76,-184.44"/>
<polygon fill="black" stroke="black" points="301.9,-181.66 292.04,-177.77 297.32,-186.96 301.9,-181.66"/>
</g>
<!-- MoveTo! -->
<g id="node5" class="node">
<title>MoveTo!</title>
<ellipse fill="gray" stroke="black" cx="355.95" cy="-162" rx="28.74" ry="18"/>
<text text-anchor="middle" x="355.95" y="-159.8" font-family="Times,serif" font-size="9.00">MoveTo!</text>
</g>
<!-- Sequence*&#45;&gt;MoveTo! -->
<g id="edge4" class="edge">
<title>Sequence*&#45;&gt;MoveTo!</title>
<path fill="none" stroke="black" d="M355.95,-215.7C355.95,-207.98 355.95,-198.71 355.95,-190.11"/>
<polygon fill="black" stroke="black" points="359.45,-190.1 355.95,-180.1 352.45,-190.1 359.45,-190.1"/>
</g>
<!-- Fallback* -->
<g id="node7" class="node">
<title>Fallback*</title>
<polygon fill="cyan" stroke="black" points="466.69,-154.54 466.69,-169.46 448.1,-180 421.8,-180 403.21,-169.46 403.21,-154.54 421.8,-144 448.1,-144 466.69,-154.54"/>
<text text-anchor="middle" x="434.95" y="-159.8" font-family="Times,serif" font-size="9.00">Fallback*</text>
</g>
<!-- Sequence**&#45;&gt;Fallback* -->
<g id="edge6" class="edge">
<title>Sequence**&#45;&gt;Fallback*</title>
<path fill="none" stroke="black" d="M469.58,-215.7C464.23,-207.56 457.75,-197.69 451.84,-188.7"/>
<polygon fill="black" stroke="black" points="454.61,-186.54 446.19,-180.1 448.76,-190.38 454.61,-186.54"/>
</g>
<!-- MoveTo!* -->
<g id="node18" class="node">
<title>MoveTo!*</title>
<ellipse fill="gray" stroke="black" cx="516.95" cy="-162" rx="31.51" ry="18"/>
<text text-anchor="middle" x="516.95" y="-159.8" font-family="Times,serif" font-size="9.00">MoveTo!*</text>
</g>
<!-- Sequence**&#45;&gt;MoveTo!* -->
<g id="edge17" class="edge">
<title>Sequence**&#45;&gt;MoveTo!*</title>
<path fill="none" stroke="black" d="M489.85,-215.7C494.05,-207.52 499.15,-197.6 503.79,-188.58"/>
<polygon fill="black" stroke="black" points="506.94,-190.12 508.4,-179.62 500.72,-186.91 506.94,-190.12"/>
</g>
<!-- ReachGoal?** -->
<g id="node19" class="node">
<title>ReachGoal?**</title>
<ellipse fill="gray" stroke="black" cx="605.95" cy="-162" rx="39.02" ry="18"/>
<text text-anchor="middle" x="605.95" y="-159.8" font-family="Times,serif" font-size="9.00">ReachGoal?**</text>
</g>
<!-- Sequence**&#45;&gt;ReachGoal?** -->
<g id="edge18" class="edge">
<title>Sequence**&#45;&gt;ReachGoal?**</title>
<path fill="none" stroke="black" d="M504.46,-219.83C523.89,-208.95 551.69,-193.38 573.29,-181.29"/>
<polygon fill="black" stroke="black" points="575.1,-184.29 582.12,-176.35 571.68,-178.18 575.1,-184.29"/>
</g>
<!-- Sequence*** -->
<g id="node8" class="node">
<title>Sequence***</title>
<polygon fill="cyan" stroke="black" points="223.94,-82.54 223.94,-97.46 200.51,-108 167.39,-108 143.96,-97.46 143.96,-82.54 167.39,-72 200.51,-72 223.94,-82.54"/>
<text text-anchor="middle" x="183.95" y="-87.8" font-family="Times,serif" font-size="9.00">Sequence***</text>
</g>
<!-- Fallback*&#45;&gt;Sequence*** -->
<g id="edge7" class="edge">
<title>Fallback*&#45;&gt;Sequence***</title>
<path fill="none" stroke="black" d="M410.49,-150.05C405.11,-147.87 399.39,-145.72 393.95,-144 324.05,-121.88 303.48,-128.05 232.95,-108 229.97,-107.15 226.91,-106.23 223.84,-105.26"/>
<polygon fill="black" stroke="black" points="224.69,-101.86 214.1,-102.06 222.51,-108.51 224.69,-101.86"/>
</g>
<!-- NotReadyForSG? -->
<g id="node13" class="node">
<title>NotReadyForSG?</title>
<ellipse fill="gray" stroke="black" cx="288.95" cy="-90" rx="46.53" ry="18"/>
<text text-anchor="middle" x="288.95" y="-87.8" font-family="Times,serif" font-size="9.00">NotReadyForSG?</text>
</g>
<!-- Fallback*&#45;&gt;NotReadyForSG? -->
<g id="edge12" class="edge">
<title>Fallback*&#45;&gt;NotReadyForSG?</title>
<path fill="none" stroke="black" d="M411.49,-149.75C388.49,-138.73 353.06,-121.74 326.21,-108.86"/>
<polygon fill="black" stroke="black" points="327.63,-105.66 317.1,-104.5 324.6,-111.98 327.63,-105.66"/>
</g>
<!-- LkClose?* -->
<g id="node14" class="node">
<title>LkClose?*</title>
<ellipse fill="gray" stroke="black" cx="385.95" cy="-90" rx="31.51" ry="18"/>
<text text-anchor="middle" x="385.95" y="-87.8" font-family="Times,serif" font-size="9.00">LkClose?*</text>
</g>
<!-- Fallback*&#45;&gt;LkClose?* -->
<g id="edge13" class="edge">
<title>Fallback*&#45;&gt;LkClose?*</title>
<path fill="none" stroke="black" d="M422.84,-143.7C416.91,-135.23 409.67,-124.89 403.18,-115.61"/>
<polygon fill="black" stroke="black" points="405.85,-113.33 397.25,-107.14 400.12,-117.34 405.85,-113.33"/>
</g>
<!-- NotReadyForSG?* -->
<g id="node15" class="node">
<title>NotReadyForSG?*</title>
<ellipse fill="gray" stroke="black" cx="484.95" cy="-90" rx="49.8" ry="18"/>
<text text-anchor="middle" x="484.95" y="-87.8" font-family="Times,serif" font-size="9.00">NotReadyForSG?*</text>
</g>
<!-- Fallback*&#45;&gt;NotReadyForSG?* -->
<g id="edge14" class="edge">
<title>Fallback*&#45;&gt;NotReadyForSG?*</title>
<path fill="none" stroke="black" d="M447.31,-143.7C453.27,-135.35 460.53,-125.18 467.08,-116.02"/>
<polygon fill="black" stroke="black" points="470.11,-117.79 473.08,-107.62 464.42,-113.73 470.11,-117.79"/>
</g>
<!-- GetSubGoal!* -->
<g id="node16" class="node">
<title>GetSubGoal!*</title>
<ellipse fill="gray" stroke="black" cx="591.95" cy="-90" rx="39.02" ry="18"/>
<text text-anchor="middle" x="591.95" y="-87.8" font-family="Times,serif" font-size="9.00">GetSubGoal!*</text>
</g>
<!-- Fallback*&#45;&gt;GetSubGoal!* -->
<g id="edge15" class="edge">
<title>Fallback*&#45;&gt;GetSubGoal!*</title>
<path fill="none" stroke="black" d="M459.14,-150.22C484.91,-138.73 525.99,-120.41 555.64,-107.19"/>
<polygon fill="black" stroke="black" points="557.13,-110.36 564.84,-103.09 554.28,-103.97 557.13,-110.36"/>
</g>
<!-- NotReadyForSG?** -->
<g id="node17" class="node">
<title>NotReadyForSG?**</title>
<ellipse fill="gray" stroke="black" cx="700.95" cy="-90" rx="51.92" ry="18"/>
<text text-anchor="middle" x="700.95" y="-87.8" font-family="Times,serif" font-size="9.00">NotReadyForSG?**</text>
</g>
<!-- Fallback*&#45;&gt;NotReadyForSG?** -->
<g id="edge16" class="edge">
<title>Fallback*&#45;&gt;NotReadyForSG?**</title>
<path fill="none" stroke="black" d="M459.41,-150.03C464.79,-147.85 470.51,-145.71 475.95,-144 547.14,-121.62 567.54,-126.02 639.95,-108 644.03,-106.98 648.25,-105.89 652.49,-104.77"/>
<polygon fill="black" stroke="black" points="653.57,-108.1 662.31,-102.12 651.75,-101.34 653.57,-108.1"/>
</g>
<!-- ReachGoal?* -->
<g id="node9" class="node">
<title>ReachGoal?*</title>
<ellipse fill="gray" stroke="black" cx="36.95" cy="-18" rx="36.9" ry="18"/>
<text text-anchor="middle" x="36.95" y="-15.8" font-family="Times,serif" font-size="9.00">ReachGoal?*</text>
</g>
<!-- Sequence***&#45;&gt;ReachGoal?* -->
<g id="edge8" class="edge">
<title>Sequence***&#45;&gt;ReachGoal?*</title>
<path fill="none" stroke="black" d="M157.33,-76.32C133.31,-64.88 97.82,-47.99 71.59,-35.5"/>
<polygon fill="black" stroke="black" points="72.92,-32.25 62.39,-31.11 69.91,-38.57 72.92,-32.25"/>
</g>
<!-- CompLkGraph! -->
<g id="node10" class="node">
<title>CompLkGraph!</title>
<ellipse fill="gray" stroke="black" cx="134.95" cy="-18" rx="42.95" ry="18"/>
<text text-anchor="middle" x="134.95" y="-15.8" font-family="Times,serif" font-size="9.00">CompLkGraph!</text>
</g>
<!-- Sequence***&#45;&gt;CompLkGraph! -->
<g id="edge9" class="edge">
<title>Sequence***&#45;&gt;CompLkGraph!</title>
<path fill="none" stroke="black" d="M171.84,-71.7C166,-63.35 158.88,-53.18 152.46,-44.02"/>
<polygon fill="black" stroke="black" points="155.19,-41.81 146.59,-35.62 149.45,-45.82 155.19,-41.81"/>
</g>
<!-- GetSubGoal! -->
<g id="node11" class="node">
<title>GetSubGoal!</title>
<ellipse fill="gray" stroke="black" cx="232.95" cy="-18" rx="36.9" ry="18"/>
<text text-anchor="middle" x="232.95" y="-15.8" font-family="Times,serif" font-size="9.00">GetSubGoal!</text>
</g>
<!-- Sequence***&#45;&gt;GetSubGoal! -->
<g id="edge10" class="edge">
<title>Sequence***&#45;&gt;GetSubGoal!</title>
<path fill="none" stroke="black" d="M196.06,-71.7C201.99,-63.23 209.23,-52.89 215.72,-43.61"/>
<polygon fill="black" stroke="black" points="218.78,-45.34 221.65,-35.14 213.05,-41.33 218.78,-45.34"/>
</g>
<!-- LkClose? -->
<g id="node12" class="node">
<title>LkClose?</title>
<ellipse fill="gray" stroke="black" cx="316.95" cy="-18" rx="28.74" ry="18"/>
<text text-anchor="middle" x="316.95" y="-15.8" font-family="Times,serif" font-size="9.00">LkClose?</text>
</g>
<!-- Sequence***&#45;&gt;LkClose? -->
<g id="edge11" class="edge">
<title>Sequence***&#45;&gt;LkClose?</title>
<path fill="none" stroke="black" d="M209.28,-75.67C231.27,-64.09 263.17,-47.31 286.54,-35.01"/>
<polygon fill="black" stroke="black" points="288.44,-37.96 295.66,-30.2 285.18,-31.76 288.44,-37.96"/>
</g>
</g>
</svg>
