<?xml version="1.0" encoding="UTF-8" standalone="no"?>
<!DOCTYPE svg PUBLIC "-//W3C//DTD SVG 1.1//EN"
 "http://www.w3.org/Graphics/SVG/1.1/DTD/svg11.dtd">
<!-- Generated by graphviz version 2.43.0 (0)
 -->
<!-- Title: pastafarianism Pages: 1 -->
<svg width="582pt" height="404pt"
 viewBox="0.00 0.00 581.60 404.00" xmlns="http://www.w3.org/2000/svg" xmlns:xlink="http://www.w3.org/1999/xlink">
<g id="graph0" class="graph" transform="scale(1 1) rotate(0) translate(4 400)">
<title>pastafarianism</title>
<polygon fill="white" stroke="transparent" points="-4,4 -4,-400 577.6,-400 577.6,4 -4,4"/>
<!-- Sequence -->
<g id="node1" class="node">
<title>Sequence</title>
<polygon fill="cyan" stroke="black" points="398.44,-370.54 398.44,-385.46 380,-396 353.91,-396 335.46,-385.46 335.46,-370.54 353.91,-360 380,-360 398.44,-370.54"/>
<text text-anchor="middle" x="366.95" y="-375.8" font-family="Times,serif" font-size="9.00">Sequence</text>
</g>
<!-- Fallback -->
<g id="node2" class="node">
<title>Fallback</title>
<polygon fill="cyan" stroke="black" points="396.19,-298.54 396.19,-313.46 379.06,-324 354.84,-324 337.71,-313.46 337.71,-298.54 354.84,-288 379.06,-288 396.19,-298.54"/>
<text text-anchor="middle" x="366.95" y="-303.8" font-family="Times,serif" font-size="9.00">Fallback</text>
</g>
<!-- Sequence&#45;&gt;Fallback -->
<g id="edge1" class="edge">
<title>Sequence&#45;&gt;Fallback</title>
<path fill="none" stroke="black" d="M366.95,-359.7C366.95,-351.98 366.95,-342.71 366.95,-334.11"/>
<polygon fill="black" stroke="black" points="370.45,-334.1 366.95,-324.1 363.45,-334.1 370.45,-334.1"/>
</g>
<!-- ReachGoal? -->
<g id="node3" class="node">
<title>ReachGoal?</title>
<ellipse fill="gray" stroke="black" cx="323.95" cy="-234" rx="34.13" ry="18"/>
<text text-anchor="middle" x="323.95" y="-231.8" font-family="Times,serif" font-size="9.00">ReachGoal?</text>
</g>
<!-- Fallback&#45;&gt;ReachGoal? -->
<g id="edge2" class="edge">
<title>Fallback&#45;&gt;ReachGoal?</title>
<path fill="none" stroke="black" d="M356.32,-287.7C351.25,-279.44 345.08,-269.39 339.49,-260.3"/>
<polygon fill="black" stroke="black" points="342.38,-258.31 334.16,-251.62 336.41,-261.98 342.38,-258.31"/>
</g>
<!-- Sequence* -->
<g id="node4" class="node">
<title>Sequence*</title>
<polygon fill="cyan" stroke="black" points="444.19,-226.54 444.19,-241.46 424.13,-252 395.77,-252 375.71,-241.46 375.71,-226.54 395.77,-216 424.13,-216 444.19,-226.54"/>
<text text-anchor="middle" x="409.95" y="-231.8" font-family="Times,serif" font-size="9.00">Sequence*</text>
</g>
<!-- Fallback&#45;&gt;Sequence* -->
<g id="edge3" class="edge">
<title>Fallback&#45;&gt;Sequence*</title>
<path fill="none" stroke="black" d="M377.58,-287.7C382.58,-279.56 388.64,-269.69 394.16,-260.7"/>
<polygon fill="black" stroke="black" points="397.19,-262.46 399.44,-252.1 391.23,-258.79 397.19,-262.46"/>
</g>
<!-- Fallback* -->
<g id="node5" class="node">
<title>Fallback*</title>
<polygon fill="cyan" stroke="black" points="362.69,-154.54 362.69,-169.46 344.1,-180 317.8,-180 299.21,-169.46 299.21,-154.54 317.8,-144 344.1,-144 362.69,-154.54"/>
<text text-anchor="middle" x="330.95" y="-159.8" font-family="Times,serif" font-size="9.00">Fallback*</text>
</g>
<!-- Sequence*&#45;&gt;Fallback* -->
<g id="edge4" class="edge">
<title>Sequence*&#45;&gt;Fallback*</title>
<path fill="none" stroke="black" d="M392.42,-217.46C381.53,-207.82 367.38,-195.28 355.39,-184.66"/>
<polygon fill="black" stroke="black" points="357.7,-182.02 347.89,-178.01 353.06,-187.26 357.7,-182.02"/>
</g>
<!-- MoveTo! -->
<g id="node14" class="node">
<title>MoveTo!</title>
<ellipse fill="gray" stroke="black" cx="409.95" cy="-162" rx="28.74" ry="18"/>
<text text-anchor="middle" x="409.95" y="-159.8" font-family="Times,serif" font-size="9.00">MoveTo!</text>
</g>
<!-- Sequence*&#45;&gt;MoveTo! -->
<g id="edge13" class="edge">
<title>Sequence*&#45;&gt;MoveTo!</title>
<path fill="none" stroke="black" d="M409.95,-215.7C409.95,-207.98 409.95,-198.71 409.95,-190.11"/>
<polygon fill="black" stroke="black" points="413.45,-190.1 409.95,-180.1 406.45,-190.1 413.45,-190.1"/>
</g>
<!-- MoveTo!* -->
<g id="node15" class="node">
<title>MoveTo!*</title>
<ellipse fill="gray" stroke="black" cx="488.95" cy="-162" rx="31.51" ry="18"/>
<text text-anchor="middle" x="488.95" y="-159.8" font-family="Times,serif" font-size="9.00">MoveTo!*</text>
</g>
<!-- Sequence*&#45;&gt;MoveTo!* -->
<g id="edge14" class="edge">
<title>Sequence*&#45;&gt;MoveTo!*</title>
<path fill="none" stroke="black" d="M427.48,-217.46C438.52,-207.68 452.91,-194.93 465,-184.22"/>
<polygon fill="black" stroke="black" points="467.38,-186.79 472.55,-177.54 462.74,-181.55 467.38,-186.79"/>
</g>
<!-- Sequence** -->
<g id="node6" class="node">
<title>Sequence**</title>
<polygon fill="cyan" stroke="black" points="171.69,-82.54 171.69,-97.46 150.17,-108 119.73,-108 98.21,-97.46 98.21,-82.54 119.73,-72 150.17,-72 171.69,-82.54"/>
<text text-anchor="middle" x="134.95" y="-87.8" font-family="Times,serif" font-size="9.00">Sequence**</text>
</g>
<!-- Fallback*&#45;&gt;Sequence** -->
<g id="edge5" class="edge">
<title>Fallback*&#45;&gt;Sequence**</title>
<path fill="none" stroke="black" d="M304.08,-151.64C274.04,-141.14 223.94,-123.54 180.95,-108 178.41,-107.08 175.79,-106.13 173.16,-105.17"/>
<polygon fill="black" stroke="black" points="174.23,-101.83 163.64,-101.67 171.82,-108.4 174.23,-101.83"/>
</g>
<!-- NotReadyForSG? -->
<g id="node10" class="node">
<title>NotReadyForSG?</title>
<ellipse fill="gray" stroke="black" cx="236.95" cy="-90" rx="46.53" ry="18"/>
<text text-anchor="middle" x="236.95" y="-87.8" font-family="Times,serif" font-size="9.00">NotReadyForSG?</text>
</g>
<!-- Fallback*&#45;&gt;NotReadyForSG? -->
<g id="edge9" class="edge">
<title>Fallback*&#45;&gt;NotReadyForSG?</title>
<path fill="none" stroke="black" d="M311.93,-146.83C298.74,-137.02 280.94,-123.76 265.99,-112.63"/>
<polygon fill="black" stroke="black" points="267.69,-109.52 257.58,-106.36 263.51,-115.14 267.69,-109.52"/>
</g>
<!-- LkClose? -->
<g id="node11" class="node">
<title>LkClose?</title>
<ellipse fill="gray" stroke="black" cx="330.95" cy="-90" rx="28.74" ry="18"/>
<text text-anchor="middle" x="330.95" y="-87.8" font-family="Times,serif" font-size="9.00">LkClose?</text>
</g>
<!-- Fallback*&#45;&gt;LkClose? -->
<g id="edge10" class="edge">
<title>Fallback*&#45;&gt;LkClose?</title>
<path fill="none" stroke="black" d="M330.95,-143.7C330.95,-135.98 330.95,-126.71 330.95,-118.11"/>
<polygon fill="black" stroke="black" points="334.45,-118.1 330.95,-108.1 327.45,-118.1 334.45,-118.1"/>
</g>
<!-- GetSubGoal!* -->
<g id="node12" class="node">
<title>GetSubGoal!*</title>
<ellipse fill="gray" stroke="black" cx="416.95" cy="-90" rx="39.02" ry="18"/>
<text text-anchor="middle" x="416.95" y="-87.8" font-family="Times,serif" font-size="9.00">GetSubGoal!*</text>
</g>
<!-- Fallback*&#45;&gt;GetSubGoal!* -->
<g id="edge11" class="edge">
<title>Fallback*&#45;&gt;GetSubGoal!*</title>
<path fill="none" stroke="black" d="M348.77,-146.5C360.83,-136.68 376.97,-123.54 390.52,-112.51"/>
<polygon fill="black" stroke="black" points="393.01,-115 398.56,-105.97 388.6,-109.57 393.01,-115"/>
</g>
<!-- NotReadyForSG?* -->
<g id="node13" class="node">
<title>NotReadyForSG?*</title>
<ellipse fill="gray" stroke="black" cx="523.95" cy="-90" rx="49.8" ry="18"/>
<text text-anchor="middle" x="523.95" y="-87.8" font-family="Times,serif" font-size="9.00">NotReadyForSG?*</text>
</g>
<!-- Fallback*&#45;&gt;NotReadyForSG?* -->
<g id="edge12" class="edge">
<title>Fallback*&#45;&gt;NotReadyForSG?*</title>
<path fill="none" stroke="black" d="M356.01,-150.34C361.26,-148.19 366.77,-145.98 371.95,-144 407.49,-130.45 448.21,-116.32 478.55,-106.07"/>
<polygon fill="black" stroke="black" points="480.06,-109.25 488.42,-102.74 477.83,-102.62 480.06,-109.25"/>
</g>
<!-- ReachGoal?* -->
<g id="node7" class="node">
<title>ReachGoal?*</title>
<ellipse fill="gray" stroke="black" cx="36.95" cy="-18" rx="36.9" ry="18"/>
<text text-anchor="middle" x="36.95" y="-15.8" font-family="Times,serif" font-size="9.00">ReachGoal?*</text>
</g>
<!-- Sequence**&#45;&gt;ReachGoal?* -->
<g id="edge6" class="edge">
<title>Sequence**&#45;&gt;ReachGoal?*</title>
<path fill="none" stroke="black" d="M114.17,-74.15C99.95,-64 80.91,-50.4 65.3,-39.25"/>
<polygon fill="black" stroke="black" points="67.21,-36.31 57.03,-33.35 63.14,-42.01 67.21,-36.31"/>
</g>
<!-- CompLkGraph! -->
<g id="node8" class="node">
<title>CompLkGraph!</title>
<ellipse fill="gray" stroke="black" cx="134.95" cy="-18" rx="42.95" ry="18"/>
<text text-anchor="middle" x="134.95" y="-15.8" font-family="Times,serif" font-size="9.00">CompLkGraph!</text>
</g>
<!-- Sequence**&#45;&gt;CompLkGraph! -->
<g id="edge7" class="edge">
<title>Sequence**&#45;&gt;CompLkGraph!</title>
<path fill="none" stroke="black" d="M134.95,-71.7C134.95,-63.98 134.95,-54.71 134.95,-46.11"/>
<polygon fill="black" stroke="black" points="138.45,-46.1 134.95,-36.1 131.45,-46.1 138.45,-46.1"/>
</g>
<!-- GetSubGoal! -->
<g id="node9" class="node">
<title>GetSubGoal!</title>
<ellipse fill="gray" stroke="black" cx="232.95" cy="-18" rx="36.9" ry="18"/>
<text text-anchor="middle" x="232.95" y="-15.8" font-family="Times,serif" font-size="9.00">GetSubGoal!</text>
</g>
<!-- Sequence**&#45;&gt;GetSubGoal! -->
<g id="edge8" class="edge">
<title>Sequence**&#45;&gt;GetSubGoal!</title>
<path fill="none" stroke="black" d="M155.73,-74.15C169.96,-64 188.99,-50.4 204.6,-39.25"/>
<polygon fill="black" stroke="black" points="206.76,-42.01 212.87,-33.35 202.7,-36.31 206.76,-42.01"/>
</g>
</g>
</svg>
