<?xml version="1.0" encoding="UTF-8" standalone="no"?>
<!DOCTYPE svg PUBLIC "-//W3C//DTD SVG 1.1//EN"
 "http://www.w3.org/Graphics/SVG/1.1/DTD/svg11.dtd">
<!-- Generated by graphviz version 2.43.0 (0)
 -->
<!-- Title: pastafarianism Pages: 1 -->
<svg width="1187pt" height="476pt"
 viewBox="0.00 0.00 1186.80 476.00" xmlns="http://www.w3.org/2000/svg" xmlns:xlink="http://www.w3.org/1999/xlink">
<g id="graph0" class="graph" transform="scale(1 1) rotate(0) translate(4 472)">
<title>pastafarianism</title>
<polygon fill="white" stroke="transparent" points="-4,4 -4,-472 1182.8,-472 1182.8,4 -4,4"/>
<!-- Sequence -->
<g id="node1" class="node">
<title>Sequence</title>
<polygon fill="cyan" stroke="black" points="821.44,-442.54 821.44,-457.46 803,-468 776.91,-468 758.46,-457.46 758.46,-442.54 776.91,-432 803,-432 821.44,-442.54"/>
<text text-anchor="middle" x="789.95" y="-447.8" font-family="Times,serif" font-size="9.00">Sequence</text>
</g>
<!-- Fallback -->
<g id="node2" class="node">
<title>Fallback</title>
<polygon fill="cyan" stroke="black" points="819.19,-370.54 819.19,-385.46 802.06,-396 777.84,-396 760.71,-385.46 760.71,-370.54 777.84,-360 802.06,-360 819.19,-370.54"/>
<text text-anchor="middle" x="789.95" y="-375.8" font-family="Times,serif" font-size="9.00">Fallback</text>
</g>
<!-- Sequence&#45;&gt;Fallback -->
<g id="edge1" class="edge">
<title>Sequence&#45;&gt;Fallback</title>
<path fill="none" stroke="black" d="M789.95,-431.7C789.95,-423.98 789.95,-414.71 789.95,-406.11"/>
<polygon fill="black" stroke="black" points="793.45,-406.1 789.95,-396.1 786.45,-406.1 793.45,-406.1"/>
</g>
<!-- ReachGoal? -->
<g id="node3" class="node">
<title>ReachGoal?</title>
<ellipse fill="gray" stroke="black" cx="746.95" cy="-306" rx="34.13" ry="18"/>
<text text-anchor="middle" x="746.95" y="-303.8" font-family="Times,serif" font-size="9.00">ReachGoal?</text>
</g>
<!-- Fallback&#45;&gt;ReachGoal? -->
<g id="edge2" class="edge">
<title>Fallback&#45;&gt;ReachGoal?</title>
<path fill="none" stroke="black" d="M779.32,-359.7C774.25,-351.44 768.08,-341.39 762.49,-332.3"/>
<polygon fill="black" stroke="black" points="765.38,-330.31 757.16,-323.62 759.41,-333.98 765.38,-330.31"/>
</g>
<!-- Sequence* -->
<g id="node4" class="node">
<title>Sequence*</title>
<polygon fill="cyan" stroke="black" points="867.19,-298.54 867.19,-313.46 847.13,-324 818.77,-324 798.71,-313.46 798.71,-298.54 818.77,-288 847.13,-288 867.19,-298.54"/>
<text text-anchor="middle" x="832.95" y="-303.8" font-family="Times,serif" font-size="9.00">Sequence*</text>
</g>
<!-- Fallback&#45;&gt;Sequence* -->
<g id="edge3" class="edge">
<title>Fallback&#45;&gt;Sequence*</title>
<path fill="none" stroke="black" d="M800.58,-359.7C805.58,-351.56 811.64,-341.69 817.16,-332.7"/>
<polygon fill="black" stroke="black" points="820.19,-334.46 822.44,-324.1 814.23,-330.79 820.19,-334.46"/>
</g>
<!-- Fallback* -->
<g id="node5" class="node">
<title>Fallback*</title>
<polygon fill="cyan" stroke="black" points="780.69,-226.54 780.69,-241.46 762.1,-252 735.8,-252 717.21,-241.46 717.21,-226.54 735.8,-216 762.1,-216 780.69,-226.54"/>
<text text-anchor="middle" x="748.95" y="-231.8" font-family="Times,serif" font-size="9.00">Fallback*</text>
</g>
<!-- Sequence*&#45;&gt;Fallback* -->
<g id="edge4" class="edge">
<title>Sequence*&#45;&gt;Fallback*</title>
<path fill="none" stroke="black" d="M814.72,-289.81C802.9,-279.95 787.32,-266.97 774.29,-256.12"/>
<polygon fill="black" stroke="black" points="776.49,-253.39 766.57,-249.68 772.01,-258.77 776.49,-253.39"/>
</g>
<!-- MoveTo!** -->
<g id="node26" class="node">
<title>MoveTo!**</title>
<ellipse fill="gray" stroke="black" cx="832.95" cy="-234" rx="34.13" ry="18"/>
<text text-anchor="middle" x="832.95" y="-231.8" font-family="Times,serif" font-size="9.00">MoveTo!**</text>
</g>
<!-- Sequence*&#45;&gt;MoveTo!** -->
<g id="edge25" class="edge">
<title>Sequence*&#45;&gt;MoveTo!**</title>
<path fill="none" stroke="black" d="M832.95,-287.7C832.95,-279.98 832.95,-270.71 832.95,-262.11"/>
<polygon fill="black" stroke="black" points="836.45,-262.1 832.95,-252.1 829.45,-262.1 836.45,-262.1"/>
</g>
<!-- ReachGoal?*** -->
<g id="node27" class="node">
<title>ReachGoal?***</title>
<ellipse fill="gray" stroke="black" cx="926.95" cy="-234" rx="42.29" ry="18"/>
<text text-anchor="middle" x="926.95" y="-231.8" font-family="Times,serif" font-size="9.00">ReachGoal?***</text>
</g>
<!-- Sequence*&#45;&gt;ReachGoal?*** -->
<g id="edge26" class="edge">
<title>Sequence*&#45;&gt;ReachGoal?***</title>
<path fill="none" stroke="black" d="M852.43,-290.5C865.73,-280.59 883.58,-267.29 898.48,-256.2"/>
<polygon fill="black" stroke="black" points="900.92,-258.75 906.85,-249.97 896.74,-253.13 900.92,-258.75"/>
</g>
<!-- Sequence** -->
<g id="node6" class="node">
<title>Sequence**</title>
<polygon fill="cyan" stroke="black" points="220.69,-154.54 220.69,-169.46 199.17,-180 168.73,-180 147.21,-169.46 147.21,-154.54 168.73,-144 199.17,-144 220.69,-154.54"/>
<text text-anchor="middle" x="183.95" y="-159.8" font-family="Times,serif" font-size="9.00">Sequence**</text>
</g>
<!-- Fallback*&#45;&gt;Sequence** -->
<g id="edge5" class="edge">
<title>Fallback*&#45;&gt;Sequence**</title>
<path fill="none" stroke="black" d="M716.95,-229.04C622.22,-217.3 342.79,-182.68 230.98,-168.83"/>
<polygon fill="black" stroke="black" points="231.36,-165.35 221.01,-167.59 230.5,-172.29 231.36,-165.35"/>
</g>
<!-- Sequence*** -->
<g id="node10" class="node">
<title>Sequence***</title>
<polygon fill="cyan" stroke="black" points="434.94,-154.54 434.94,-169.46 411.51,-180 378.39,-180 354.96,-169.46 354.96,-154.54 378.39,-144 411.51,-144 434.94,-154.54"/>
<text text-anchor="middle" x="394.95" y="-159.8" font-family="Times,serif" font-size="9.00">Sequence***</text>
</g>
<!-- Fallback*&#45;&gt;Sequence*** -->
<g id="edge9" class="edge">
<title>Fallback*&#45;&gt;Sequence***</title>
<path fill="none" stroke="black" d="M716.91,-226.66C654.41,-214.31 515.94,-186.92 442.63,-172.43"/>
<polygon fill="black" stroke="black" points="443.22,-168.98 432.73,-170.47 441.86,-175.84 443.22,-168.98"/>
</g>
<!-- Sequence**** -->
<g id="node13" class="node">
<title>Sequence****</title>
<polygon fill="cyan" stroke="black" points="633.44,-154.54 633.44,-169.46 608.55,-180 573.35,-180 548.46,-169.46 548.46,-154.54 573.35,-144 608.55,-144 633.44,-154.54"/>
<text text-anchor="middle" x="590.95" y="-159.8" font-family="Times,serif" font-size="9.00">Sequence****</text>
</g>
<!-- Fallback*&#45;&gt;Sequence**** -->
<g id="edge12" class="edge">
<title>Fallback*&#45;&gt;Sequence****</title>
<path fill="none" stroke="black" d="M724.61,-222.22C698.99,-210.87 658.33,-192.85 628.57,-179.67"/>
<polygon fill="black" stroke="black" points="629.89,-176.42 619.33,-175.57 627.05,-182.82 629.89,-176.42"/>
</g>
<!-- NotReadyForSG?* -->
<g id="node21" class="node">
<title>NotReadyForSG?*</title>
<ellipse fill="gray" stroke="black" cx="700.95" cy="-162" rx="49.8" ry="18"/>
<text text-anchor="middle" x="700.95" y="-159.8" font-family="Times,serif" font-size="9.00">NotReadyForSG?*</text>
</g>
<!-- Fallback*&#45;&gt;NotReadyForSG?* -->
<g id="edge20" class="edge">
<title>Fallback*&#45;&gt;NotReadyForSG?*</title>
<path fill="none" stroke="black" d="M737.09,-215.7C731.36,-207.35 724.39,-197.18 718.1,-188.02"/>
<polygon fill="black" stroke="black" points="720.89,-185.89 712.35,-179.62 715.12,-189.85 720.89,-185.89"/>
</g>
<!-- LkClose? -->
<g id="node22" class="node">
<title>LkClose?</title>
<ellipse fill="gray" stroke="black" cx="797.95" cy="-162" rx="28.74" ry="18"/>
<text text-anchor="middle" x="797.95" y="-159.8" font-family="Times,serif" font-size="9.00">LkClose?</text>
</g>
<!-- Fallback*&#45;&gt;LkClose? -->
<g id="edge21" class="edge">
<title>Fallback*&#45;&gt;LkClose?</title>
<path fill="none" stroke="black" d="M761.06,-215.7C767.14,-207.02 774.59,-196.37 781.21,-186.92"/>
<polygon fill="black" stroke="black" points="784.11,-188.87 786.98,-178.67 778.38,-184.86 784.11,-188.87"/>
</g>
<!-- NotReadyForSG?** -->
<g id="node23" class="node">
<title>NotReadyForSG?**</title>
<ellipse fill="gray" stroke="black" cx="896.95" cy="-162" rx="51.92" ry="18"/>
<text text-anchor="middle" x="896.95" y="-159.8" font-family="Times,serif" font-size="9.00">NotReadyForSG?**</text>
</g>
<!-- Fallback*&#45;&gt;NotReadyForSG?** -->
<g id="edge22" class="edge">
<title>Fallback*&#45;&gt;NotReadyForSG?**</title>
<path fill="none" stroke="black" d="M772.73,-221.75C795.83,-210.83 831.28,-194.06 858.41,-181.23"/>
<polygon fill="black" stroke="black" points="860.08,-184.31 867.63,-176.87 857.09,-177.98 860.08,-184.31"/>
</g>
<!-- GetSubGoal!** -->
<g id="node24" class="node">
<title>GetSubGoal!**</title>
<ellipse fill="gray" stroke="black" cx="1008.95" cy="-162" rx="42.29" ry="18"/>
<text text-anchor="middle" x="1008.95" y="-159.8" font-family="Times,serif" font-size="9.00">GetSubGoal!**</text>
</g>
<!-- Fallback*&#45;&gt;GetSubGoal!** -->
<g id="edge23" class="edge">
<title>Fallback*&#45;&gt;GetSubGoal!**</title>
<path fill="none" stroke="black" d="M773.4,-222.01C778.78,-219.83 784.51,-217.7 789.95,-216 862.85,-193.28 884.28,-200.1 957.95,-180 961.15,-179.13 964.44,-178.17 967.73,-177.17"/>
<polygon fill="black" stroke="black" points="969.07,-180.42 977.56,-174.07 966.97,-173.74 969.07,-180.42"/>
</g>
<!-- NotReadyForSG?*** -->
<g id="node25" class="node">
<title>NotReadyForSG?***</title>
<ellipse fill="gray" stroke="black" cx="1123.95" cy="-162" rx="54.7" ry="18"/>
<text text-anchor="middle" x="1123.95" y="-159.8" font-family="Times,serif" font-size="9.00">NotReadyForSG?***</text>
</g>
<!-- Fallback*&#45;&gt;NotReadyForSG?*** -->
<g id="edge24" class="edge">
<title>Fallback*&#45;&gt;NotReadyForSG?***</title>
<path fill="none" stroke="black" d="M772.87,-221.86C778.38,-219.64 784.3,-217.52 789.95,-216 906.86,-184.55 941.21,-203.59 1059.95,-180 1064.57,-179.08 1069.35,-178.02 1074.12,-176.89"/>
<polygon fill="black" stroke="black" points="1074.98,-180.28 1083.85,-174.49 1073.3,-173.49 1074.98,-180.28"/>
</g>
<!-- ReachGoal?* -->
<g id="node7" class="node">
<title>ReachGoal?*</title>
<ellipse fill="gray" stroke="black" cx="36.95" cy="-90" rx="36.9" ry="18"/>
<text text-anchor="middle" x="36.95" y="-87.8" font-family="Times,serif" font-size="9.00">ReachGoal?*</text>
</g>
<!-- Sequence**&#45;&gt;ReachGoal?* -->
<g id="edge6" class="edge">
<title>Sequence**&#45;&gt;ReachGoal?*</title>
<path fill="none" stroke="black" d="M158.34,-148.81C134.46,-137.43 98.63,-120.37 72.08,-107.73"/>
<polygon fill="black" stroke="black" points="73.29,-104.43 62.76,-103.29 70.28,-110.75 73.29,-104.43"/>
</g>
<!-- CompLkGraph! -->
<g id="node8" class="node">
<title>CompLkGraph!</title>
<ellipse fill="gray" stroke="black" cx="134.95" cy="-90" rx="42.95" ry="18"/>
<text text-anchor="middle" x="134.95" y="-87.8" font-family="Times,serif" font-size="9.00">CompLkGraph!</text>
</g>
<!-- Sequence**&#45;&gt;CompLkGraph! -->
<g id="edge7" class="edge">
<title>Sequence**&#45;&gt;CompLkGraph!</title>
<path fill="none" stroke="black" d="M171.84,-143.7C166,-135.35 158.88,-125.18 152.46,-116.02"/>
<polygon fill="black" stroke="black" points="155.19,-113.81 146.59,-107.62 149.45,-117.82 155.19,-113.81"/>
</g>
<!-- GetSubGoal! -->
<g id="node9" class="node">
<title>GetSubGoal!</title>
<ellipse fill="gray" stroke="black" cx="232.95" cy="-90" rx="36.9" ry="18"/>
<text text-anchor="middle" x="232.95" y="-87.8" font-family="Times,serif" font-size="9.00">GetSubGoal!</text>
</g>
<!-- Sequence**&#45;&gt;GetSubGoal! -->
<g id="edge8" class="edge">
<title>Sequence**&#45;&gt;GetSubGoal!</title>
<path fill="none" stroke="black" d="M196.06,-143.7C201.99,-135.23 209.23,-124.89 215.72,-115.61"/>
<polygon fill="black" stroke="black" points="218.78,-117.34 221.65,-107.14 213.05,-113.33 218.78,-117.34"/>
</g>
<!-- LkGraph? -->
<g id="node11" class="node">
<title>LkGraph?</title>
<ellipse fill="gray" stroke="black" cx="318.95" cy="-90" rx="30.7" ry="18"/>
<text text-anchor="middle" x="318.95" y="-87.8" font-family="Times,serif" font-size="9.00">LkGraph?</text>
</g>
<!-- Sequence***&#45;&gt;LkGraph? -->
<g id="edge10" class="edge">
<title>Sequence***&#45;&gt;LkGraph?</title>
<path fill="none" stroke="black" d="M376.94,-144.41C366.53,-134.82 353.31,-122.65 342.13,-112.35"/>
<polygon fill="black" stroke="black" points="344.5,-109.77 334.77,-105.57 339.75,-114.92 344.5,-109.77"/>
</g>
<!-- GetLk! -->
<g id="node12" class="node">
<title>GetLk!</title>
<ellipse fill="gray" stroke="black" cx="394.95" cy="-90" rx="27" ry="18"/>
<text text-anchor="middle" x="394.95" y="-87.8" font-family="Times,serif" font-size="9.00">GetLk!</text>
</g>
<!-- Sequence***&#45;&gt;GetLk! -->
<g id="edge11" class="edge">
<title>Sequence***&#45;&gt;GetLk!</title>
<path fill="none" stroke="black" d="M394.95,-143.7C394.95,-135.98 394.95,-126.71 394.95,-118.11"/>
<polygon fill="black" stroke="black" points="398.45,-118.1 394.95,-108.1 391.45,-118.1 398.45,-118.1"/>
</g>
<!-- NotReadyForSG? -->
<g id="node14" class="node">
<title>NotReadyForSG?</title>
<ellipse fill="gray" stroke="black" cx="486.95" cy="-90" rx="46.53" ry="18"/>
<text text-anchor="middle" x="486.95" y="-87.8" font-family="Times,serif" font-size="9.00">NotReadyForSG?</text>
</g>
<!-- Sequence****&#45;&gt;NotReadyForSG? -->
<g id="edge13" class="edge">
<title>Sequence****&#45;&gt;NotReadyForSG?</title>
<path fill="none" stroke="black" d="M568.64,-145.98C553.83,-136.02 534.2,-122.8 517.89,-111.83"/>
<polygon fill="black" stroke="black" points="519.47,-108.67 509.22,-105.99 515.57,-114.48 519.47,-108.67"/>
</g>
<!-- ReachGoal?** -->
<g id="node15" class="node">
<title>ReachGoal?**</title>
<ellipse fill="gray" stroke="black" cx="590.95" cy="-90" rx="39.02" ry="18"/>
<text text-anchor="middle" x="590.95" y="-87.8" font-family="Times,serif" font-size="9.00">ReachGoal?**</text>
</g>
<!-- Sequence****&#45;&gt;ReachGoal?** -->
<g id="edge14" class="edge">
<title>Sequence****&#45;&gt;ReachGoal?**</title>
<path fill="none" stroke="black" d="M590.95,-143.7C590.95,-135.98 590.95,-126.71 590.95,-118.11"/>
<polygon fill="black" stroke="black" points="594.45,-118.1 590.95,-108.1 587.45,-118.1 594.45,-118.1"/>
</g>
<!-- CompLkGraph!* -->
<g id="node16" class="node">
<title>CompLkGraph!*</title>
<ellipse fill="gray" stroke="black" cx="692.95" cy="-90" rx="45.07" ry="18"/>
<text text-anchor="middle" x="692.95" y="-87.8" font-family="Times,serif" font-size="9.00">CompLkGraph!*</text>
</g>
<!-- Sequence****&#45;&gt;CompLkGraph!* -->
<g id="edge15" class="edge">
<title>Sequence****&#45;&gt;CompLkGraph!*</title>
<path fill="none" stroke="black" d="M613.08,-145.81C627.62,-135.84 646.82,-122.66 662.75,-111.73"/>
<polygon fill="black" stroke="black" points="664.95,-114.46 671.21,-105.92 660.99,-108.69 664.95,-114.46"/>
</g>
<!-- GetSubGoal!* -->
<g id="node17" class="node">
<title>GetSubGoal!*</title>
<ellipse fill="gray" stroke="black" cx="794.95" cy="-90" rx="39.02" ry="18"/>
<text text-anchor="middle" x="794.95" y="-87.8" font-family="Times,serif" font-size="9.00">GetSubGoal!*</text>
</g>
<!-- Sequence****&#45;&gt;GetSubGoal!* -->
<g id="edge16" class="edge">
<title>Sequence****&#45;&gt;GetSubGoal!*</title>
<path fill="none" stroke="black" d="M623.26,-150.16C654.84,-139.53 704.25,-122.81 746.95,-108 749.69,-107.05 752.52,-106.06 755.36,-105.07"/>
<polygon fill="black" stroke="black" points="756.74,-108.29 765.01,-101.67 754.42,-101.69 756.74,-108.29"/>
</g>
<!-- Fallback** -->
<g id="node18" class="node">
<title>Fallback**</title>
<polygon fill="cyan" stroke="black" points="921.94,-82.54 921.94,-97.46 901.44,-108 872.46,-108 851.96,-97.46 851.96,-82.54 872.46,-72 901.44,-72 921.94,-82.54"/>
<text text-anchor="middle" x="886.95" y="-87.8" font-family="Times,serif" font-size="9.00">Fallback**</text>
</g>
<!-- Sequence****&#45;&gt;Fallback** -->
<g id="edge17" class="edge">
<title>Sequence****&#45;&gt;Fallback**</title>
<path fill="none" stroke="black" d="M622.3,-149.76C628.75,-147.67 635.53,-145.64 641.95,-144 729.9,-121.59 755.56,-132.47 842.95,-108 845.59,-107.26 848.3,-106.42 851.01,-105.52"/>
<polygon fill="black" stroke="black" points="852.45,-108.73 860.7,-102.08 850.11,-102.13 852.45,-108.73"/>
</g>
<!-- MoveTo! -->
<g id="node19" class="node">
<title>MoveTo!</title>
<ellipse fill="gray" stroke="black" cx="846.95" cy="-18" rx="28.74" ry="18"/>
<text text-anchor="middle" x="846.95" y="-15.8" font-family="Times,serif" font-size="9.00">MoveTo!</text>
</g>
<!-- Fallback**&#45;&gt;MoveTo! -->
<g id="edge18" class="edge">
<title>Fallback**&#45;&gt;MoveTo!</title>
<path fill="none" stroke="black" d="M877.06,-71.7C872.27,-63.32 866.44,-53.1 861.18,-43.9"/>
<polygon fill="black" stroke="black" points="864.18,-42.09 856.18,-35.14 858.1,-45.56 864.18,-42.09"/>
</g>
<!-- MoveTo!* -->
<g id="node20" class="node">
<title>MoveTo!*</title>
<ellipse fill="gray" stroke="black" cx="925.95" cy="-18" rx="31.51" ry="18"/>
<text text-anchor="middle" x="925.95" y="-15.8" font-family="Times,serif" font-size="9.00">MoveTo!*</text>
</g>
<!-- Fallback**&#45;&gt;MoveTo!* -->
<g id="edge19" class="edge">
<title>Fallback**&#45;&gt;MoveTo!*</title>
<path fill="none" stroke="black" d="M896.59,-71.7C901.14,-63.52 906.67,-53.6 911.7,-44.58"/>
<polygon fill="black" stroke="black" points="914.88,-46.06 916.69,-35.62 908.76,-42.65 914.88,-46.06"/>
</g>
</g>
</svg>
