<?xml version="1.0" encoding="UTF-8" standalone="no"?>
<!DOCTYPE svg PUBLIC "-//W3C//DTD SVG 1.1//EN"
 "http://www.w3.org/Graphics/SVG/1.1/DTD/svg11.dtd">
<!-- Generated by graphviz version 2.43.0 (0)
 -->
<!-- Title: pastafarianism Pages: 1 -->
<svg width="1073pt" height="476pt"
 viewBox="0.00 0.00 1072.64 476.00" xmlns="http://www.w3.org/2000/svg" xmlns:xlink="http://www.w3.org/1999/xlink">
<g id="graph0" class="graph" transform="scale(1 1) rotate(0) translate(4 472)">
<title>pastafarianism</title>
<polygon fill="white" stroke="transparent" points="-4,4 -4,-472 1068.64,-472 1068.64,4 -4,4"/>
<!-- Sequence -->
<g id="node1" class="node">
<title>Sequence</title>
<polygon fill="cyan" stroke="black" points="741.49,-442.54 741.49,-457.46 723.05,-468 696.95,-468 678.51,-457.46 678.51,-442.54 696.95,-432 723.05,-432 741.49,-442.54"/>
<text text-anchor="middle" x="710" y="-447.8" font-family="Times,serif" font-size="9.00">Sequence</text>
</g>
<!-- Fallback -->
<g id="node2" class="node">
<title>Fallback</title>
<polygon fill="cyan" stroke="black" points="289.24,-370.54 289.24,-385.46 272.11,-396 247.89,-396 230.76,-385.46 230.76,-370.54 247.89,-360 272.11,-360 289.24,-370.54"/>
<text text-anchor="middle" x="260" y="-375.8" font-family="Times,serif" font-size="9.00">Fallback</text>
</g>
<!-- Sequence&#45;&gt;Fallback -->
<g id="edge1" class="edge">
<title>Sequence&#45;&gt;Fallback</title>
<path fill="none" stroke="black" d="M678.71,-444.13C598.85,-431.71 387.52,-398.84 299.43,-385.13"/>
<polygon fill="black" stroke="black" points="299.73,-381.64 289.31,-383.56 298.66,-388.56 299.73,-381.64"/>
</g>
<!-- Fallback*** -->
<g id="node19" class="node">
<title>Fallback***</title>
<polygon fill="cyan" stroke="black" points="590.49,-370.54 590.49,-385.46 568.53,-396 537.47,-396 515.51,-385.46 515.51,-370.54 537.47,-360 568.53,-360 590.49,-370.54"/>
<text text-anchor="middle" x="553" y="-375.8" font-family="Times,serif" font-size="9.00">Fallback***</text>
</g>
<!-- Sequence&#45;&gt;Fallback*** -->
<g id="edge18" class="edge">
<title>Sequence&#45;&gt;Fallback***</title>
<path fill="none" stroke="black" d="M685.81,-438.22C659.89,-426.66 618.47,-408.19 588.77,-394.95"/>
<polygon fill="black" stroke="black" points="590.14,-391.73 579.58,-390.85 587.29,-398.12 590.14,-391.73"/>
</g>
<!-- Fallback**** -->
<g id="node24" class="node">
<title>Fallback****</title>
<polygon fill="cyan" stroke="black" points="750.74,-370.54 750.74,-385.46 726.88,-396 693.12,-396 669.26,-385.46 669.26,-370.54 693.12,-360 726.88,-360 750.74,-370.54"/>
<text text-anchor="middle" x="710" y="-375.8" font-family="Times,serif" font-size="9.00">Fallback****</text>
</g>
<!-- Sequence&#45;&gt;Fallback**** -->
<g id="edge23" class="edge">
<title>Sequence&#45;&gt;Fallback****</title>
<path fill="none" stroke="black" d="M710,-431.7C710,-423.98 710,-414.71 710,-406.11"/>
<polygon fill="black" stroke="black" points="713.5,-406.1 710,-396.1 706.5,-406.1 713.5,-406.1"/>
</g>
<!-- Fallback***** -->
<g id="node27" class="node">
<title>Fallback*****</title>
<polygon fill="cyan" stroke="black" points="913.24,-370.54 913.24,-385.46 887.91,-396 852.09,-396 826.76,-385.46 826.76,-370.54 852.09,-360 887.91,-360 913.24,-370.54"/>
<text text-anchor="middle" x="870" y="-375.8" font-family="Times,serif" font-size="9.00">Fallback*****</text>
</g>
<!-- Sequence&#45;&gt;Fallback***** -->
<g id="edge26" class="edge">
<title>Sequence&#45;&gt;Fallback*****</title>
<path fill="none" stroke="black" d="M734.3,-438.37C760.17,-427.05 801.48,-408.98 831.73,-395.74"/>
<polygon fill="black" stroke="black" points="833.37,-398.85 841.13,-391.63 830.56,-392.43 833.37,-398.85"/>
</g>
<!-- apply force 2! -->
<g id="node32" class="node">
<title>apply force 2!</title>
<ellipse fill="gray" stroke="black" cx="969" cy="-378" rx="38.21" ry="18"/>
<text text-anchor="middle" x="969" y="-375.8" font-family="Times,serif" font-size="9.00">apply force 2!</text>
</g>
<!-- Sequence&#45;&gt;apply force 2! -->
<g id="edge31" class="edge">
<title>Sequence&#45;&gt;apply force 2!</title>
<path fill="none" stroke="black" d="M741.17,-442.26C782.75,-433.02 858.5,-415.37 922,-396 924.89,-395.12 927.87,-394.16 930.86,-393.16"/>
<polygon fill="black" stroke="black" points="932.01,-396.47 940.32,-389.9 929.73,-389.85 932.01,-396.47"/>
</g>
<!-- 2 on 0? -->
<g id="node3" class="node">
<title>2 on 0?</title>
<ellipse fill="gray" stroke="black" cx="27" cy="-306" rx="27" ry="18"/>
<text text-anchor="middle" x="27" y="-303.8" font-family="Times,serif" font-size="9.00">2 on 0?</text>
</g>
<!-- Fallback&#45;&gt;2 on 0? -->
<g id="edge2" class="edge">
<title>Fallback&#45;&gt;2 on 0?</title>
<path fill="none" stroke="black" d="M230.45,-370.78C191.47,-362.19 121.01,-345.31 63,-324 61.15,-323.32 59.27,-322.58 57.38,-321.81"/>
<polygon fill="black" stroke="black" points="58.62,-318.53 48.05,-317.71 55.8,-324.93 58.62,-318.53"/>
</g>
<!-- 0 on 1? -->
<g id="node4" class="node">
<title>0 on 1?</title>
<ellipse fill="gray" stroke="black" cx="99" cy="-306" rx="27" ry="18"/>
<text text-anchor="middle" x="99" y="-303.8" font-family="Times,serif" font-size="9.00">0 on 1?</text>
</g>
<!-- Fallback&#45;&gt;0 on 1? -->
<g id="edge3" class="edge">
<title>Fallback&#45;&gt;0 on 1?</title>
<path fill="none" stroke="black" d="M235.91,-367.12C210.65,-356.69 169.85,-339.61 135,-324 133.2,-323.19 131.36,-322.36 129.5,-321.51"/>
<polygon fill="black" stroke="black" points="130.8,-318.25 120.25,-317.21 127.85,-324.6 130.8,-318.25"/>
</g>
<!-- 0 at pos (0.0, 0.05, 0.0)? -->
<g id="node5" class="node">
<title>0 at pos (0.0, 0.05, 0.0)?</title>
<ellipse fill="gray" stroke="black" cx="204" cy="-306" rx="60.09" ry="18"/>
<text text-anchor="middle" x="204" y="-303.8" font-family="Times,serif" font-size="9.00">0 at pos (0.0, 0.05, 0.0)?</text>
</g>
<!-- Fallback&#45;&gt;0 at pos (0.0, 0.05, 0.0)? -->
<g id="edge4" class="edge">
<title>Fallback&#45;&gt;0 at pos (0.0, 0.05, 0.0)?</title>
<path fill="none" stroke="black" d="M246.73,-360.41C239.92,-351.91 231.5,-341.37 223.93,-331.91"/>
<polygon fill="black" stroke="black" points="226.55,-329.58 217.56,-323.96 221.08,-333.95 226.55,-329.58"/>
</g>
<!-- Sequence* -->
<g id="node6" class="node">
<title>Sequence*</title>
<polygon fill="cyan" stroke="black" points="350.24,-298.54 350.24,-313.46 330.18,-324 301.82,-324 281.76,-313.46 281.76,-298.54 301.82,-288 330.18,-288 350.24,-298.54"/>
<text text-anchor="middle" x="316" y="-303.8" font-family="Times,serif" font-size="9.00">Sequence*</text>
</g>
<!-- Fallback&#45;&gt;Sequence* -->
<g id="edge5" class="edge">
<title>Fallback&#45;&gt;Sequence*</title>
<path fill="none" stroke="black" d="M273.27,-360.41C279.98,-352.03 288.25,-341.68 295.73,-332.33"/>
<polygon fill="black" stroke="black" points="298.53,-334.44 302.04,-324.45 293.06,-330.07 298.53,-334.44"/>
</g>
<!-- 2 on 1?* -->
<g id="node18" class="node">
<title>2 on 1?*</title>
<ellipse fill="gray" stroke="black" cx="396" cy="-306" rx="27.27" ry="18"/>
<text text-anchor="middle" x="396" y="-303.8" font-family="Times,serif" font-size="9.00">2 on 1?*</text>
</g>
<!-- Fallback&#45;&gt;2 on 1?* -->
<g id="edge17" class="edge">
<title>Fallback&#45;&gt;2 on 1?*</title>
<path fill="none" stroke="black" d="M281.85,-365.75C304.62,-354.03 340.46,-335.58 365.9,-322.49"/>
<polygon fill="black" stroke="black" points="367.81,-325.45 375.1,-317.76 364.6,-319.22 367.81,-325.45"/>
</g>
<!-- pick 0! -->
<g id="node7" class="node">
<title>pick 0!</title>
<ellipse fill="gray" stroke="black" cx="107" cy="-234" rx="27" ry="18"/>
<text text-anchor="middle" x="107" y="-231.8" font-family="Times,serif" font-size="9.00">pick 0!</text>
</g>
<!-- Sequence*&#45;&gt;pick 0! -->
<g id="edge6" class="edge">
<title>Sequence*&#45;&gt;pick 0!</title>
<path fill="none" stroke="black" d="M289.78,-294.12C284.28,-291.98 278.48,-289.84 273,-288 216.15,-268.95 199.2,-272.88 143,-252 141.15,-251.31 139.27,-250.57 137.39,-249.79"/>
<polygon fill="black" stroke="black" points="138.62,-246.51 128.06,-245.68 135.8,-252.92 138.62,-246.51"/>
</g>
<!-- place at (0.0, 0.05, 0.0)! -->
<g id="node8" class="node">
<title>place at (0.0, 0.05, 0.0)!</title>
<ellipse fill="gray" stroke="black" cx="210" cy="-234" rx="58.13" ry="18"/>
<text text-anchor="middle" x="210" y="-231.8" font-family="Times,serif" font-size="9.00">place at (0.0, 0.05, 0.0)!</text>
</g>
<!-- Sequence*&#45;&gt;place at (0.0, 0.05, 0.0)! -->
<g id="edge7" class="edge">
<title>Sequence*&#45;&gt;place at (0.0, 0.05, 0.0)!</title>
<path fill="none" stroke="black" d="M295.31,-291.34C280.23,-281.38 259.5,-267.69 242.25,-256.3"/>
<polygon fill="black" stroke="black" points="243.87,-253.17 233.59,-250.58 240.01,-259.01 243.87,-253.17"/>
</g>
<!-- Fallback* -->
<g id="node9" class="node">
<title>Fallback*</title>
<polygon fill="cyan" stroke="black" points="349.74,-226.54 349.74,-241.46 331.15,-252 304.85,-252 286.26,-241.46 286.26,-226.54 304.85,-216 331.15,-216 349.74,-226.54"/>
<text text-anchor="middle" x="318" y="-231.8" font-family="Times,serif" font-size="9.00">Fallback*</text>
</g>
<!-- Sequence*&#45;&gt;Fallback* -->
<g id="edge8" class="edge">
<title>Sequence*&#45;&gt;Fallback*</title>
<path fill="none" stroke="black" d="M316.49,-287.7C316.71,-279.98 316.98,-270.71 317.23,-262.11"/>
<polygon fill="black" stroke="black" points="320.72,-262.2 317.51,-252.1 313.73,-262 320.72,-262.2"/>
</g>
<!-- 1 at pos (0.0, 0.05, 0.0192)? -->
<g id="node17" class="node">
<title>1 at pos (0.0, 0.05, 0.0192)?</title>
<ellipse fill="gray" stroke="black" cx="435" cy="-234" rx="67.6" ry="18"/>
<text text-anchor="middle" x="435" y="-231.8" font-family="Times,serif" font-size="9.00">1 at pos (0.0, 0.05, 0.0192)?</text>
</g>
<!-- Sequence*&#45;&gt;1 at pos (0.0, 0.05, 0.0192)? -->
<g id="edge16" class="edge">
<title>Sequence*&#45;&gt;1 at pos (0.0, 0.05, 0.0192)?</title>
<path fill="none" stroke="black" d="M338.1,-292C355.36,-281.85 379.67,-267.55 399.62,-255.81"/>
<polygon fill="black" stroke="black" points="401.59,-258.71 408.44,-250.62 398.04,-252.68 401.59,-258.71"/>
</g>
<!-- 2 on 1? -->
<g id="node10" class="node">
<title>2 on 1?</title>
<ellipse fill="gray" stroke="black" cx="277" cy="-162" rx="27" ry="18"/>
<text text-anchor="middle" x="277" y="-159.8" font-family="Times,serif" font-size="9.00">2 on 1?</text>
</g>
<!-- Fallback*&#45;&gt;2 on 1? -->
<g id="edge9" class="edge">
<title>Fallback*&#45;&gt;2 on 1?</title>
<path fill="none" stroke="black" d="M307.87,-215.7C302.96,-207.32 296.97,-197.1 291.58,-187.9"/>
<polygon fill="black" stroke="black" points="294.53,-186 286.46,-179.14 288.49,-189.54 294.53,-186"/>
</g>
<!-- Sequence** -->
<g id="node11" class="node">
<title>Sequence**</title>
<polygon fill="cyan" stroke="black" points="395.74,-154.54 395.74,-169.46 374.22,-180 343.78,-180 322.26,-169.46 322.26,-154.54 343.78,-144 374.22,-144 395.74,-154.54"/>
<text text-anchor="middle" x="359" y="-159.8" font-family="Times,serif" font-size="9.00">Sequence**</text>
</g>
<!-- Fallback*&#45;&gt;Sequence** -->
<g id="edge10" class="edge">
<title>Fallback*&#45;&gt;Sequence**</title>
<path fill="none" stroke="black" d="M328.13,-215.7C332.85,-207.64 338.56,-197.89 343.78,-188.98"/>
<polygon fill="black" stroke="black" points="346.95,-190.5 348.98,-180.1 340.91,-186.96 346.95,-190.5"/>
</g>
<!-- 0 at pos (0.0, 0.05, 0.0)?* -->
<g id="node12" class="node">
<title>0 at pos (0.0, 0.05, 0.0)?*</title>
<ellipse fill="gray" stroke="black" cx="244" cy="-90" rx="62.21" ry="18"/>
<text text-anchor="middle" x="244" y="-87.8" font-family="Times,serif" font-size="9.00">0 at pos (0.0, 0.05, 0.0)?*</text>
</g>
<!-- Sequence**&#45;&gt;0 at pos (0.0, 0.05, 0.0)?* -->
<g id="edge11" class="edge">
<title>Sequence**&#45;&gt;0 at pos (0.0, 0.05, 0.0)?*</title>
<path fill="none" stroke="black" d="M336.55,-147.34C319.96,-137.24 297.08,-123.31 278.22,-111.83"/>
<polygon fill="black" stroke="black" points="279.96,-108.79 269.6,-106.58 276.32,-114.77 279.96,-108.79"/>
</g>
<!-- Fallback** -->
<g id="node13" class="node">
<title>Fallback**</title>
<polygon fill="cyan" stroke="black" points="393.99,-82.54 393.99,-97.46 373.49,-108 344.51,-108 324.01,-97.46 324.01,-82.54 344.51,-72 373.49,-72 393.99,-82.54"/>
<text text-anchor="middle" x="359" y="-87.8" font-family="Times,serif" font-size="9.00">Fallback**</text>
</g>
<!-- Sequence**&#45;&gt;Fallback** -->
<g id="edge12" class="edge">
<title>Sequence**&#45;&gt;Fallback**</title>
<path fill="none" stroke="black" d="M359,-143.7C359,-135.98 359,-126.71 359,-118.11"/>
<polygon fill="black" stroke="black" points="362.5,-118.1 359,-108.1 355.5,-118.1 362.5,-118.1"/>
</g>
<!-- place on 1! -->
<g id="node16" class="node">
<title>place on 1!</title>
<ellipse fill="gray" stroke="black" cx="444" cy="-90" rx="32.16" ry="18"/>
<text text-anchor="middle" x="444" y="-87.8" font-family="Times,serif" font-size="9.00">place on 1!</text>
</g>
<!-- Sequence**&#45;&gt;place on 1! -->
<g id="edge15" class="edge">
<title>Sequence**&#45;&gt;place on 1!</title>
<path fill="none" stroke="black" d="M377.86,-145.46C389.93,-135.52 405.73,-122.51 418.86,-111.7"/>
<polygon fill="black" stroke="black" points="421.14,-114.36 426.64,-105.3 416.69,-108.96 421.14,-114.36"/>
</g>
<!-- apply force 1! -->
<g id="node14" class="node">
<title>apply force 1!</title>
<ellipse fill="gray" stroke="black" cx="301" cy="-18" rx="38.21" ry="18"/>
<text text-anchor="middle" x="301" y="-15.8" font-family="Times,serif" font-size="9.00">apply force 1!</text>
</g>
<!-- Fallback**&#45;&gt;apply force 1! -->
<g id="edge13" class="edge">
<title>Fallback**&#45;&gt;apply force 1!</title>
<path fill="none" stroke="black" d="M344.66,-71.7C337.5,-63.05 328.72,-52.46 320.92,-43.04"/>
<polygon fill="black" stroke="black" points="323.45,-40.61 314.38,-35.14 318.06,-45.08 323.45,-40.61"/>
</g>
<!-- place at (0.0, 0.05, 0.0)!* -->
<g id="node15" class="node">
<title>place at (0.0, 0.05, 0.0)!*</title>
<ellipse fill="gray" stroke="black" cx="418" cy="-18" rx="61.4" ry="18"/>
<text text-anchor="middle" x="418" y="-15.8" font-family="Times,serif" font-size="9.00">place at (0.0, 0.05, 0.0)!*</text>
</g>
<!-- Fallback**&#45;&gt;place at (0.0, 0.05, 0.0)!* -->
<g id="edge14" class="edge">
<title>Fallback**&#45;&gt;place at (0.0, 0.05, 0.0)!*</title>
<path fill="none" stroke="black" d="M373.58,-71.7C380.76,-63.18 389.54,-52.76 397.39,-43.45"/>
<polygon fill="black" stroke="black" points="400.22,-45.52 403.99,-35.62 394.87,-41.01 400.22,-45.52"/>
</g>
<!-- 1 on 0? -->
<g id="node20" class="node">
<title>1 on 0?</title>
<ellipse fill="gray" stroke="black" cx="468" cy="-306" rx="27" ry="18"/>
<text text-anchor="middle" x="468" y="-303.8" font-family="Times,serif" font-size="9.00">1 on 0?</text>
</g>
<!-- Fallback***&#45;&gt;1 on 0? -->
<g id="edge19" class="edge">
<title>Fallback***&#45;&gt;1 on 0?</title>
<path fill="none" stroke="black" d="M534.14,-361.46C521.82,-351.32 505.63,-337.99 492.35,-327.05"/>
<polygon fill="black" stroke="black" points="494.46,-324.26 484.51,-320.6 490.01,-329.66 494.46,-324.26"/>
</g>
<!-- Sequence*** -->
<g id="node21" class="node">
<title>Sequence***</title>
<polygon fill="cyan" stroke="black" points="592.99,-298.54 592.99,-313.46 569.56,-324 536.44,-324 513.01,-313.46 513.01,-298.54 536.44,-288 569.56,-288 592.99,-298.54"/>
<text text-anchor="middle" x="553" y="-303.8" font-family="Times,serif" font-size="9.00">Sequence***</text>
</g>
<!-- Fallback***&#45;&gt;Sequence*** -->
<g id="edge20" class="edge">
<title>Fallback***&#45;&gt;Sequence***</title>
<path fill="none" stroke="black" d="M553,-359.7C553,-351.98 553,-342.71 553,-334.11"/>
<polygon fill="black" stroke="black" points="556.5,-334.1 553,-324.1 549.5,-334.1 556.5,-334.1"/>
</g>
<!-- pick 1! -->
<g id="node22" class="node">
<title>pick 1!</title>
<ellipse fill="gray" stroke="black" cx="550" cy="-234" rx="27" ry="18"/>
<text text-anchor="middle" x="550" y="-231.8" font-family="Times,serif" font-size="9.00">pick 1!</text>
</g>
<!-- Sequence***&#45;&gt;pick 1! -->
<g id="edge21" class="edge">
<title>Sequence***&#45;&gt;pick 1!</title>
<path fill="none" stroke="black" d="M552.26,-287.7C551.93,-279.98 551.53,-270.71 551.16,-262.11"/>
<polygon fill="black" stroke="black" points="554.66,-261.95 550.73,-252.1 547.66,-262.25 554.66,-261.95"/>
</g>
<!-- place on 0! -->
<g id="node23" class="node">
<title>place on 0!</title>
<ellipse fill="gray" stroke="black" cx="627" cy="-234" rx="32.16" ry="18"/>
<text text-anchor="middle" x="627" y="-231.8" font-family="Times,serif" font-size="9.00">place on 0!</text>
</g>
<!-- Sequence***&#45;&gt;place on 0! -->
<g id="edge22" class="edge">
<title>Sequence***&#45;&gt;place on 0!</title>
<path fill="none" stroke="black" d="M570.54,-288.41C580.44,-279.04 592.95,-267.21 603.67,-257.07"/>
<polygon fill="black" stroke="black" points="606.24,-259.45 611.1,-250.04 601.43,-254.37 606.24,-259.45"/>
</g>
<!-- 1 at pos (0.0, 0.05, 0.0192)?* -->
<g id="node25" class="node">
<title>1 at pos (0.0, 0.05, 0.0192)?*</title>
<ellipse fill="gray" stroke="black" cx="681" cy="-306" rx="70.37" ry="18"/>
<text text-anchor="middle" x="681" y="-303.8" font-family="Times,serif" font-size="9.00">1 at pos (0.0, 0.05, 0.0192)?*</text>
</g>
<!-- Fallback****&#45;&gt;1 at pos (0.0, 0.05, 0.0192)?* -->
<g id="edge24" class="edge">
<title>Fallback****&#45;&gt;1 at pos (0.0, 0.05, 0.0192)?*</title>
<path fill="none" stroke="black" d="M702.83,-359.7C699.57,-351.81 695.63,-342.3 692,-333.55"/>
<polygon fill="black" stroke="black" points="695.15,-332 688.09,-324.1 688.68,-334.68 695.15,-332"/>
</g>
<!-- apply force 1!* -->
<g id="node26" class="node">
<title>apply force 1!*</title>
<ellipse fill="gray" stroke="black" cx="810" cy="-306" rx="40.98" ry="18"/>
<text text-anchor="middle" x="810" y="-303.8" font-family="Times,serif" font-size="9.00">apply force 1!*</text>
</g>
<!-- Fallback****&#45;&gt;apply force 1!* -->
<g id="edge25" class="edge">
<title>Fallback****&#45;&gt;apply force 1!*</title>
<path fill="none" stroke="black" d="M731.7,-361.81C746.04,-351.77 765.03,-338.48 780.71,-327.5"/>
<polygon fill="black" stroke="black" points="782.84,-330.28 789.03,-321.68 778.83,-324.55 782.84,-330.28"/>
</g>
<!-- 2 on 1?** -->
<g id="node28" class="node">
<title>2 on 1?**</title>
<ellipse fill="gray" stroke="black" cx="899" cy="-306" rx="30.04" ry="18"/>
<text text-anchor="middle" x="899" y="-303.8" font-family="Times,serif" font-size="9.00">2 on 1?**</text>
</g>
<!-- Fallback*****&#45;&gt;2 on 1?** -->
<g id="edge27" class="edge">
<title>Fallback*****&#45;&gt;2 on 1?**</title>
<path fill="none" stroke="black" d="M877.17,-359.7C880.52,-351.61 884.58,-341.81 888.28,-332.87"/>
<polygon fill="black" stroke="black" points="891.52,-334.2 892.11,-323.62 885.05,-331.52 891.52,-334.2"/>
</g>
<!-- Sequence**** -->
<g id="node29" class="node">
<title>Sequence****</title>
<polygon fill="cyan" stroke="black" points="1032.49,-298.54 1032.49,-313.46 1007.6,-324 972.4,-324 947.51,-313.46 947.51,-298.54 972.4,-288 1007.6,-288 1032.49,-298.54"/>
<text text-anchor="middle" x="990" y="-303.8" font-family="Times,serif" font-size="9.00">Sequence****</text>
</g>
<!-- Fallback*****&#45;&gt;Sequence**** -->
<g id="edge28" class="edge">
<title>Fallback*****&#45;&gt;Sequence****</title>
<path fill="none" stroke="black" d="M894.57,-362.67C912.53,-352.19 937.09,-337.87 956.79,-326.37"/>
<polygon fill="black" stroke="black" points="958.59,-329.38 965.46,-321.32 955.06,-323.33 958.59,-329.38"/>
</g>
<!-- pick 2! -->
<g id="node30" class="node">
<title>pick 2!</title>
<ellipse fill="gray" stroke="black" cx="950" cy="-234" rx="27" ry="18"/>
<text text-anchor="middle" x="950" y="-231.8" font-family="Times,serif" font-size="9.00">pick 2!</text>
</g>
<!-- Sequence****&#45;&gt;pick 2! -->
<g id="edge29" class="edge">
<title>Sequence****&#45;&gt;pick 2!</title>
<path fill="none" stroke="black" d="M980.11,-287.7C975.32,-279.32 969.48,-269.1 964.23,-259.9"/>
<polygon fill="black" stroke="black" points="967.23,-258.09 959.23,-251.14 961.15,-261.56 967.23,-258.09"/>
</g>
<!-- place on 1!* -->
<g id="node31" class="node">
<title>place on 1!*</title>
<ellipse fill="gray" stroke="black" cx="1030" cy="-234" rx="34.78" ry="18"/>
<text text-anchor="middle" x="1030" y="-231.8" font-family="Times,serif" font-size="9.00">place on 1!*</text>
</g>
<!-- Sequence****&#45;&gt;place on 1!* -->
<g id="edge30" class="edge">
<title>Sequence****&#45;&gt;place on 1!*</title>
<path fill="none" stroke="black" d="M999.89,-287.7C1004.56,-279.52 1010.23,-269.6 1015.38,-260.58"/>
<polygon fill="black" stroke="black" points="1018.58,-262.04 1020.5,-251.62 1012.5,-258.57 1018.58,-262.04"/>
</g>
</g>
</svg>
