<?xml version="1.0" encoding="UTF-8" standalone="no"?>
<!DOCTYPE svg PUBLIC "-//W3C//DTD SVG 1.1//EN"
 "http://www.w3.org/Graphics/SVG/1.1/DTD/svg11.dtd">
<!-- Generated by graphviz version 2.43.0 (0)
 -->
<!-- Title: pastafarianism Pages: 1 -->
<svg width="923pt" height="332pt"
 viewBox="0.00 0.00 923.38 332.00" xmlns="http://www.w3.org/2000/svg" xmlns:xlink="http://www.w3.org/1999/xlink">
<g id="graph0" class="graph" transform="scale(1 1) rotate(0) translate(4 328)">
<title>pastafarianism</title>
<polygon fill="white" stroke="transparent" points="-4,4 -4,-328 919.38,-328 919.38,4 -4,4"/>
<!-- Sequence -->
<g id="node1" class="node">
<title>Sequence</title>
<polygon fill="cyan" stroke="black" points="515.54,-298.54 515.54,-313.46 497.09,-324 471,-324 452.55,-313.46 452.55,-298.54 471,-288 497.09,-288 515.54,-298.54"/>
<text text-anchor="middle" x="484.04" y="-303.8" font-family="Times,serif" font-size="9.00">Sequence</text>
</g>
<!-- Fallback -->
<g id="node2" class="node">
<title>Fallback</title>
<polygon fill="cyan" stroke="black" points="201.29,-226.54 201.29,-241.46 184.16,-252 159.93,-252 142.8,-241.46 142.8,-226.54 159.93,-216 184.16,-216 201.29,-226.54"/>
<text text-anchor="middle" x="172.04" y="-231.8" font-family="Times,serif" font-size="9.00">Fallback</text>
</g>
<!-- Sequence&#45;&gt;Fallback -->
<g id="edge1" class="edge">
<title>Sequence&#45;&gt;Fallback</title>
<path fill="none" stroke="black" d="M453.27,-298.1C396.19,-285.29 273.98,-257.87 211.14,-243.77"/>
<polygon fill="black" stroke="black" points="211.74,-240.32 201.22,-241.55 210.21,-247.15 211.74,-240.32"/>
</g>
<!-- Fallback* -->
<g id="node7" class="node">
<title>Fallback*</title>
<polygon fill="cyan" stroke="black" points="364.79,-226.54 364.79,-241.46 346.19,-252 319.9,-252 301.3,-241.46 301.3,-226.54 319.9,-216 346.19,-216 364.79,-226.54"/>
<text text-anchor="middle" x="333.04" y="-231.8" font-family="Times,serif" font-size="9.00">Fallback*</text>
</g>
<!-- Sequence&#45;&gt;Fallback* -->
<g id="edge6" class="edge">
<title>Sequence&#45;&gt;Fallback*</title>
<path fill="none" stroke="black" d="M460.12,-293.91C434.72,-282.13 394.39,-263.44 365.99,-250.27"/>
<polygon fill="black" stroke="black" points="367.4,-247.07 356.86,-246.04 364.46,-253.42 367.4,-247.07"/>
</g>
<!-- Fallback** -->
<g id="node12" class="node">
<title>Fallback**</title>
<polygon fill="cyan" stroke="black" points="519.04,-226.54 519.04,-241.46 498.54,-252 469.55,-252 449.05,-241.46 449.05,-226.54 469.55,-216 498.54,-216 519.04,-226.54"/>
<text text-anchor="middle" x="484.04" y="-231.8" font-family="Times,serif" font-size="9.00">Fallback**</text>
</g>
<!-- Sequence&#45;&gt;Fallback** -->
<g id="edge11" class="edge">
<title>Sequence&#45;&gt;Fallback**</title>
<path fill="none" stroke="black" d="M484.04,-287.7C484.04,-279.98 484.04,-270.71 484.04,-262.11"/>
<polygon fill="black" stroke="black" points="487.54,-262.1 484.04,-252.1 480.54,-262.1 487.54,-262.1"/>
</g>
<!-- Fallback*** -->
<g id="node15" class="node">
<title>Fallback***</title>
<polygon fill="cyan" stroke="black" points="669.53,-226.54 669.53,-241.46 647.57,-252 616.52,-252 594.55,-241.46 594.55,-226.54 616.52,-216 647.57,-216 669.53,-226.54"/>
<text text-anchor="middle" x="632.04" y="-231.8" font-family="Times,serif" font-size="9.00">Fallback***</text>
</g>
<!-- Sequence&#45;&gt;Fallback*** -->
<g id="edge14" class="edge">
<title>Sequence&#45;&gt;Fallback***</title>
<path fill="none" stroke="black" d="M507.5,-293.91C531.56,-282.53 569.27,-264.69 596.9,-251.62"/>
<polygon fill="black" stroke="black" points="598.67,-254.66 606.22,-247.22 595.68,-248.33 598.67,-254.66"/>
</g>
<!-- apply force 2! -->
<g id="node24" class="node">
<title>apply force 2!</title>
<ellipse fill="gray" stroke="black" cx="726.04" cy="-234" rx="38.21" ry="18"/>
<text text-anchor="middle" x="726.04" y="-231.8" font-family="Times,serif" font-size="9.00">apply force 2!</text>
</g>
<!-- Sequence&#45;&gt;apply force 2! -->
<g id="edge23" class="edge">
<title>Sequence&#45;&gt;apply force 2!</title>
<path fill="none" stroke="black" d="M514.15,-297.51C552.47,-287.81 620.57,-270 678.04,-252 681.12,-251.04 684.3,-250 687.48,-248.93"/>
<polygon fill="black" stroke="black" points="688.64,-252.24 696.97,-245.68 686.37,-245.62 688.64,-252.24"/>
</g>
<!-- 0 at pos (0.0, 0.05, 0.0)? -->
<g id="node3" class="node">
<title>0 at pos (0.0, 0.05, 0.0)?</title>
<ellipse fill="gray" stroke="black" cx="60.04" cy="-162" rx="60.09" ry="18"/>
<text text-anchor="middle" x="60.04" y="-159.8" font-family="Times,serif" font-size="9.00">0 at pos (0.0, 0.05, 0.0)?</text>
</g>
<!-- Fallback&#45;&gt;0 at pos (0.0, 0.05, 0.0)? -->
<g id="edge2" class="edge">
<title>Fallback&#45;&gt;0 at pos (0.0, 0.05, 0.0)?</title>
<path fill="none" stroke="black" d="M152.28,-220.65C136.12,-210.55 112.92,-196.05 93.82,-184.11"/>
<polygon fill="black" stroke="black" points="95.44,-181 85.11,-178.66 91.73,-186.93 95.44,-181"/>
</g>
<!-- Sequence* -->
<g id="node4" class="node">
<title>Sequence*</title>
<polygon fill="cyan" stroke="black" points="206.29,-154.54 206.29,-169.46 186.23,-180 157.86,-180 137.8,-169.46 137.8,-154.54 157.86,-144 186.23,-144 206.29,-154.54"/>
<text text-anchor="middle" x="172.04" y="-159.8" font-family="Times,serif" font-size="9.00">Sequence*</text>
</g>
<!-- Fallback&#45;&gt;Sequence* -->
<g id="edge3" class="edge">
<title>Fallback&#45;&gt;Sequence*</title>
<path fill="none" stroke="black" d="M172.04,-215.7C172.04,-207.98 172.04,-198.71 172.04,-190.11"/>
<polygon fill="black" stroke="black" points="175.54,-190.1 172.04,-180.1 168.54,-190.1 175.54,-190.1"/>
</g>
<!-- pick 0! -->
<g id="node5" class="node">
<title>pick 0!</title>
<ellipse fill="gray" stroke="black" cx="84.04" cy="-90" rx="27" ry="18"/>
<text text-anchor="middle" x="84.04" y="-87.8" font-family="Times,serif" font-size="9.00">pick 0!</text>
</g>
<!-- Sequence*&#45;&gt;pick 0! -->
<g id="edge4" class="edge">
<title>Sequence*&#45;&gt;pick 0!</title>
<path fill="none" stroke="black" d="M153.38,-146.15C140.39,-135.82 122.93,-121.93 108.78,-110.68"/>
<polygon fill="black" stroke="black" points="110.9,-107.89 100.89,-104.4 106.54,-113.37 110.9,-107.89"/>
</g>
<!-- place at (0.0, 0.05, 0.0)! -->
<g id="node6" class="node">
<title>place at (0.0, 0.05, 0.0)!</title>
<ellipse fill="gray" stroke="black" cx="187.04" cy="-90" rx="58.13" ry="18"/>
<text text-anchor="middle" x="187.04" y="-87.8" font-family="Times,serif" font-size="9.00">place at (0.0, 0.05, 0.0)!</text>
</g>
<!-- Sequence*&#45;&gt;place at (0.0, 0.05, 0.0)! -->
<g id="edge5" class="edge">
<title>Sequence*&#45;&gt;place at (0.0, 0.05, 0.0)!</title>
<path fill="none" stroke="black" d="M175.75,-143.7C177.41,-135.98 179.39,-126.71 181.23,-118.11"/>
<polygon fill="black" stroke="black" points="184.71,-118.62 183.38,-108.1 177.86,-117.15 184.71,-118.62"/>
</g>
<!-- 1 on 0? -->
<g id="node8" class="node">
<title>1 on 0?</title>
<ellipse fill="gray" stroke="black" cx="251.04" cy="-162" rx="27" ry="18"/>
<text text-anchor="middle" x="251.04" y="-159.8" font-family="Times,serif" font-size="9.00">1 on 0?</text>
</g>
<!-- Fallback*&#45;&gt;1 on 0? -->
<g id="edge7" class="edge">
<title>Fallback*&#45;&gt;1 on 0?</title>
<path fill="none" stroke="black" d="M315.65,-218.15C303.74,-207.98 287.79,-194.37 274.72,-183.21"/>
<polygon fill="black" stroke="black" points="276.9,-180.47 267.02,-176.64 272.35,-185.79 276.9,-180.47"/>
</g>
<!-- Sequence** -->
<g id="node9" class="node">
<title>Sequence**</title>
<polygon fill="cyan" stroke="black" points="369.79,-154.54 369.79,-169.46 348.26,-180 317.83,-180 296.3,-169.46 296.3,-154.54 317.83,-144 348.26,-144 369.79,-154.54"/>
<text text-anchor="middle" x="333.04" y="-159.8" font-family="Times,serif" font-size="9.00">Sequence**</text>
</g>
<!-- Fallback*&#45;&gt;Sequence** -->
<g id="edge8" class="edge">
<title>Fallback*&#45;&gt;Sequence**</title>
<path fill="none" stroke="black" d="M333.04,-215.7C333.04,-207.98 333.04,-198.71 333.04,-190.11"/>
<polygon fill="black" stroke="black" points="336.54,-190.1 333.04,-180.1 329.54,-190.1 336.54,-190.1"/>
</g>
<!-- pick 1! -->
<g id="node10" class="node">
<title>pick 1!</title>
<ellipse fill="gray" stroke="black" cx="319.04" cy="-90" rx="27" ry="18"/>
<text text-anchor="middle" x="319.04" y="-87.8" font-family="Times,serif" font-size="9.00">pick 1!</text>
</g>
<!-- Sequence**&#45;&gt;pick 1! -->
<g id="edge9" class="edge">
<title>Sequence**&#45;&gt;pick 1!</title>
<path fill="none" stroke="black" d="M329.58,-143.7C328.04,-135.98 326.19,-126.71 324.47,-118.11"/>
<polygon fill="black" stroke="black" points="327.86,-117.22 322.47,-108.1 320.99,-118.6 327.86,-117.22"/>
</g>
<!-- place on 0! -->
<g id="node11" class="node">
<title>place on 0!</title>
<ellipse fill="gray" stroke="black" cx="396.04" cy="-90" rx="32.16" ry="18"/>
<text text-anchor="middle" x="396.04" y="-87.8" font-family="Times,serif" font-size="9.00">place on 0!</text>
</g>
<!-- Sequence**&#45;&gt;place on 0! -->
<g id="edge10" class="edge">
<title>Sequence**&#45;&gt;place on 0!</title>
<path fill="none" stroke="black" d="M348.62,-143.7C356.59,-134.84 366.41,-123.93 375.04,-114.34"/>
<polygon fill="black" stroke="black" points="377.85,-116.45 381.94,-106.67 372.65,-111.76 377.85,-116.45"/>
</g>
<!-- 1 at pos (0.0, 0.05, 0.0192)? -->
<g id="node13" class="node">
<title>1 at pos (0.0, 0.05, 0.0192)?</title>
<ellipse fill="gray" stroke="black" cx="455.04" cy="-162" rx="67.6" ry="18"/>
<text text-anchor="middle" x="455.04" y="-159.8" font-family="Times,serif" font-size="9.00">1 at pos (0.0, 0.05, 0.0192)?</text>
</g>
<!-- Fallback**&#45;&gt;1 at pos (0.0, 0.05, 0.0192)? -->
<g id="edge12" class="edge">
<title>Fallback**&#45;&gt;1 at pos (0.0, 0.05, 0.0192)?</title>
<path fill="none" stroke="black" d="M476.88,-215.7C473.61,-207.81 469.67,-198.3 466.04,-189.55"/>
<polygon fill="black" stroke="black" points="469.19,-188 462.13,-180.1 462.72,-190.68 469.19,-188"/>
</g>
<!-- apply force 1! -->
<g id="node14" class="node">
<title>apply force 1!</title>
<ellipse fill="gray" stroke="black" cx="579.04" cy="-162" rx="38.21" ry="18"/>
<text text-anchor="middle" x="579.04" y="-159.8" font-family="Times,serif" font-size="9.00">apply force 1!</text>
</g>
<!-- Fallback**&#45;&gt;apply force 1! -->
<g id="edge13" class="edge">
<title>Fallback**&#45;&gt;apply force 1!</title>
<path fill="none" stroke="black" d="M503.73,-218.5C517.49,-208.36 536.05,-194.68 551.3,-183.44"/>
<polygon fill="black" stroke="black" points="553.41,-186.24 559.39,-177.49 549.26,-180.6 553.41,-186.24"/>
</g>
<!-- 2 on 1? -->
<g id="node16" class="node">
<title>2 on 1?</title>
<ellipse fill="gray" stroke="black" cx="662.04" cy="-162" rx="27" ry="18"/>
<text text-anchor="middle" x="662.04" y="-159.8" font-family="Times,serif" font-size="9.00">2 on 1?</text>
</g>
<!-- Fallback***&#45;&gt;2 on 1? -->
<g id="edge15" class="edge">
<title>Fallback***&#45;&gt;2 on 1?</title>
<path fill="none" stroke="black" d="M639.46,-215.7C642.93,-207.61 647.13,-197.81 650.96,-188.87"/>
<polygon fill="black" stroke="black" points="654.2,-190.19 654.92,-179.62 647.76,-187.44 654.2,-190.19"/>
</g>
<!-- Sequence*** -->
<g id="node17" class="node">
<title>Sequence***</title>
<polygon fill="cyan" stroke="black" points="787.03,-154.54 787.03,-169.46 763.61,-180 730.48,-180 707.05,-169.46 707.05,-154.54 730.48,-144 763.61,-144 787.03,-154.54"/>
<text text-anchor="middle" x="747.04" y="-159.8" font-family="Times,serif" font-size="9.00">Sequence***</text>
</g>
<!-- Fallback***&#45;&gt;Sequence*** -->
<g id="edge16" class="edge">
<title>Fallback***&#45;&gt;Sequence***</title>
<path fill="none" stroke="black" d="M654.76,-219.17C671.94,-208.71 695.76,-194.22 714.89,-182.57"/>
<polygon fill="black" stroke="black" points="716.86,-185.47 723.58,-177.28 713.22,-179.49 716.86,-185.47"/>
</g>
<!-- pick 2! -->
<g id="node18" class="node">
<title>pick 2!</title>
<ellipse fill="gray" stroke="black" cx="624.04" cy="-90" rx="27" ry="18"/>
<text text-anchor="middle" x="624.04" y="-87.8" font-family="Times,serif" font-size="9.00">pick 2!</text>
</g>
<!-- Sequence***&#45;&gt;pick 2! -->
<g id="edge17" class="edge">
<title>Sequence***&#45;&gt;pick 2!</title>
<path fill="none" stroke="black" d="M723.04,-147.34C702.94,-135.9 674.2,-119.55 652.87,-107.4"/>
<polygon fill="black" stroke="black" points="654.35,-104.22 643.93,-102.32 650.89,-110.31 654.35,-104.22"/>
</g>
<!-- place on 1! -->
<g id="node19" class="node">
<title>place on 1!</title>
<ellipse fill="gray" stroke="black" cx="701.04" cy="-90" rx="32.16" ry="18"/>
<text text-anchor="middle" x="701.04" y="-87.8" font-family="Times,serif" font-size="9.00">place on 1!</text>
</g>
<!-- Sequence***&#45;&gt;place on 1! -->
<g id="edge18" class="edge">
<title>Sequence***&#45;&gt;place on 1!</title>
<path fill="none" stroke="black" d="M735.67,-143.7C730.11,-135.23 723.31,-124.89 717.22,-115.61"/>
<polygon fill="black" stroke="black" points="720.07,-113.58 711.65,-107.14 714.22,-117.42 720.07,-113.58"/>
</g>
<!-- Fallback**** -->
<g id="node20" class="node">
<title>Fallback****</title>
<polygon fill="cyan" stroke="black" points="832.78,-82.54 832.78,-97.46 808.92,-108 775.17,-108 751.3,-97.46 751.3,-82.54 775.17,-72 808.92,-72 832.78,-82.54"/>
<text text-anchor="middle" x="792.04" y="-87.8" font-family="Times,serif" font-size="9.00">Fallback****</text>
</g>
<!-- Sequence***&#45;&gt;Fallback**** -->
<g id="edge19" class="edge">
<title>Sequence***&#45;&gt;Fallback****</title>
<path fill="none" stroke="black" d="M758.17,-143.7C763.4,-135.56 769.74,-125.69 775.52,-116.7"/>
<polygon fill="black" stroke="black" points="778.59,-118.41 781.05,-108.1 772.7,-114.62 778.59,-118.41"/>
</g>
<!-- place on 2! -->
<g id="node23" class="node">
<title>place on 2!</title>
<ellipse fill="gray" stroke="black" cx="883.04" cy="-90" rx="32.16" ry="18"/>
<text text-anchor="middle" x="883.04" y="-87.8" font-family="Times,serif" font-size="9.00">place on 2!</text>
</g>
<!-- Sequence***&#45;&gt;place on 2! -->
<g id="edge22" class="edge">
<title>Sequence***&#45;&gt;place on 2!</title>
<path fill="none" stroke="black" d="M772.62,-147.83C794.77,-136.44 826.91,-119.89 850.81,-107.59"/>
<polygon fill="black" stroke="black" points="852.56,-110.63 859.85,-102.94 849.35,-104.4 852.56,-110.63"/>
</g>
<!-- 2 on 1?* -->
<g id="node21" class="node">
<title>2 on 1?*</title>
<ellipse fill="gray" stroke="black" cx="750.04" cy="-18" rx="27.27" ry="18"/>
<text text-anchor="middle" x="750.04" y="-15.8" font-family="Times,serif" font-size="9.00">2 on 1?*</text>
</g>
<!-- Fallback****&#45;&gt;2 on 1?* -->
<g id="edge20" class="edge">
<title>Fallback****&#45;&gt;2 on 1?*</title>
<path fill="none" stroke="black" d="M781.66,-71.7C776.63,-63.32 770.5,-53.1 764.98,-43.9"/>
<polygon fill="black" stroke="black" points="767.88,-41.92 759.73,-35.14 761.87,-45.52 767.88,-41.92"/>
</g>
<!-- apply force 0! -->
<g id="node22" class="node">
<title>apply force 0!</title>
<ellipse fill="gray" stroke="black" cx="833.04" cy="-18" rx="38.21" ry="18"/>
<text text-anchor="middle" x="833.04" y="-15.8" font-family="Times,serif" font-size="9.00">apply force 0!</text>
</g>
<!-- Fallback****&#45;&gt;apply force 0! -->
<g id="edge21" class="edge">
<title>Fallback****&#45;&gt;apply force 0!</title>
<path fill="none" stroke="black" d="M802.18,-71.7C807.02,-63.44 812.9,-53.39 818.23,-44.3"/>
<polygon fill="black" stroke="black" points="821.27,-46.02 823.31,-35.62 815.23,-42.48 821.27,-46.02"/>
</g>
</g>
</svg>
