<?xml version="1.0" encoding="UTF-8" standalone="no"?>
<!DOCTYPE svg PUBLIC "-//W3C//DTD SVG 1.1//EN"
 "http://www.w3.org/Graphics/SVG/1.1/DTD/svg11.dtd">
<!-- Generated by graphviz version 2.43.0 (0)
 -->
<!-- Title: pastafarianism Pages: 1 -->
<svg width="825pt" height="260pt"
 viewBox="0.00 0.00 825.38 260.00" xmlns="http://www.w3.org/2000/svg" xmlns:xlink="http://www.w3.org/1999/xlink">
<g id="graph0" class="graph" transform="scale(1 1) rotate(0) translate(4 256)">
<title>pastafarianism</title>
<polygon fill="white" stroke="transparent" points="-4,4 -4,-256 821.38,-256 821.38,4 -4,4"/>
<!-- Sequence -->
<g id="node1" class="node">
<title>Sequence</title>
<polygon fill="cyan" stroke="black" points="425.54,-226.54 425.54,-241.46 407.09,-252 381,-252 362.55,-241.46 362.55,-226.54 381,-216 407.09,-216 425.54,-226.54"/>
<text text-anchor="middle" x="394.04" y="-231.8" font-family="Times,serif" font-size="9.00">Sequence</text>
</g>
<!-- Fallback -->
<g id="node2" class="node">
<title>Fallback</title>
<polygon fill="cyan" stroke="black" points="201.29,-154.54 201.29,-169.46 184.16,-180 159.93,-180 142.8,-169.46 142.8,-154.54 159.93,-144 184.16,-144 201.29,-154.54"/>
<text text-anchor="middle" x="172.04" y="-159.8" font-family="Times,serif" font-size="9.00">Fallback</text>
</g>
<!-- Sequence&#45;&gt;Fallback -->
<g id="edge1" class="edge">
<title>Sequence&#45;&gt;Fallback</title>
<path fill="none" stroke="black" d="M366.38,-224.28C326.37,-211.66 252.33,-188.32 208.09,-174.37"/>
<polygon fill="black" stroke="black" points="208.92,-170.96 198.33,-171.29 206.81,-177.63 208.92,-170.96"/>
</g>
<!-- Fallback* -->
<g id="node7" class="node">
<title>Fallback*</title>
<polygon fill="cyan" stroke="black" points="364.79,-154.54 364.79,-169.46 346.19,-180 319.9,-180 301.3,-169.46 301.3,-154.54 319.9,-144 346.19,-144 364.79,-154.54"/>
<text text-anchor="middle" x="333.04" y="-159.8" font-family="Times,serif" font-size="9.00">Fallback*</text>
</g>
<!-- Sequence&#45;&gt;Fallback* -->
<g id="edge6" class="edge">
<title>Sequence&#45;&gt;Fallback*</title>
<path fill="none" stroke="black" d="M379.59,-216.41C371.99,-207.69 362.54,-196.85 354.14,-187.21"/>
<polygon fill="black" stroke="black" points="356.61,-184.71 347.4,-179.47 351.33,-189.31 356.61,-184.71"/>
</g>
<!-- Fallback** -->
<g id="node12" class="node">
<title>Fallback**</title>
<polygon fill="cyan" stroke="black" points="490.04,-154.54 490.04,-169.46 469.54,-180 440.55,-180 420.05,-169.46 420.05,-154.54 440.55,-144 469.54,-144 490.04,-154.54"/>
<text text-anchor="middle" x="455.04" y="-159.8" font-family="Times,serif" font-size="9.00">Fallback**</text>
</g>
<!-- Sequence&#45;&gt;Fallback** -->
<g id="edge11" class="edge">
<title>Sequence&#45;&gt;Fallback**</title>
<path fill="none" stroke="black" d="M408.5,-216.41C415.99,-207.82 425.28,-197.16 433.58,-187.63"/>
<polygon fill="black" stroke="black" points="436.34,-189.79 440.27,-179.96 431.06,-185.2 436.34,-189.79"/>
</g>
<!-- Fallback*** -->
<g id="node15" class="node">
<title>Fallback***</title>
<polygon fill="cyan" stroke="black" points="699.53,-154.54 699.53,-169.46 677.57,-180 646.52,-180 624.55,-169.46 624.55,-154.54 646.52,-144 677.57,-144 699.53,-154.54"/>
<text text-anchor="middle" x="662.04" y="-159.8" font-family="Times,serif" font-size="9.00">Fallback***</text>
</g>
<!-- Sequence&#45;&gt;Fallback*** -->
<g id="edge14" class="edge">
<title>Sequence&#45;&gt;Fallback***</title>
<path fill="none" stroke="black" d="M423.49,-225.31C470.85,-212.94 564.18,-188.56 619.01,-174.24"/>
<polygon fill="black" stroke="black" points="619.99,-177.6 628.78,-171.69 618.22,-170.83 619.99,-177.6"/>
</g>
<!-- 0 at pos (0.0, 0.05, 0.0)? -->
<g id="node3" class="node">
<title>0 at pos (0.0, 0.05, 0.0)?</title>
<ellipse fill="gray" stroke="black" cx="60.04" cy="-90" rx="60.09" ry="18"/>
<text text-anchor="middle" x="60.04" y="-87.8" font-family="Times,serif" font-size="9.00">0 at pos (0.0, 0.05, 0.0)?</text>
</g>
<!-- Fallback&#45;&gt;0 at pos (0.0, 0.05, 0.0)? -->
<g id="edge2" class="edge">
<title>Fallback&#45;&gt;0 at pos (0.0, 0.05, 0.0)?</title>
<path fill="none" stroke="black" d="M152.28,-148.65C136.12,-138.55 112.92,-124.05 93.82,-112.11"/>
<polygon fill="black" stroke="black" points="95.44,-109 85.11,-106.66 91.73,-114.93 95.44,-109"/>
</g>
<!-- Sequence* -->
<g id="node4" class="node">
<title>Sequence*</title>
<polygon fill="cyan" stroke="black" points="206.29,-82.54 206.29,-97.46 186.23,-108 157.86,-108 137.8,-97.46 137.8,-82.54 157.86,-72 186.23,-72 206.29,-82.54"/>
<text text-anchor="middle" x="172.04" y="-87.8" font-family="Times,serif" font-size="9.00">Sequence*</text>
</g>
<!-- Fallback&#45;&gt;Sequence* -->
<g id="edge3" class="edge">
<title>Fallback&#45;&gt;Sequence*</title>
<path fill="none" stroke="black" d="M172.04,-143.7C172.04,-135.98 172.04,-126.71 172.04,-118.11"/>
<polygon fill="black" stroke="black" points="175.54,-118.1 172.04,-108.1 168.54,-118.1 175.54,-118.1"/>
</g>
<!-- pick 0! -->
<g id="node5" class="node">
<title>pick 0!</title>
<ellipse fill="gray" stroke="black" cx="84.04" cy="-18" rx="27" ry="18"/>
<text text-anchor="middle" x="84.04" y="-15.8" font-family="Times,serif" font-size="9.00">pick 0!</text>
</g>
<!-- Sequence*&#45;&gt;pick 0! -->
<g id="edge4" class="edge">
<title>Sequence*&#45;&gt;pick 0!</title>
<path fill="none" stroke="black" d="M153.38,-74.15C140.39,-63.82 122.93,-49.93 108.78,-38.68"/>
<polygon fill="black" stroke="black" points="110.9,-35.89 100.89,-32.4 106.54,-41.37 110.9,-35.89"/>
</g>
<!-- place at (0.0, 0.05, 0.0)! -->
<g id="node6" class="node">
<title>place at (0.0, 0.05, 0.0)!</title>
<ellipse fill="gray" stroke="black" cx="187.04" cy="-18" rx="58.13" ry="18"/>
<text text-anchor="middle" x="187.04" y="-15.8" font-family="Times,serif" font-size="9.00">place at (0.0, 0.05, 0.0)!</text>
</g>
<!-- Sequence*&#45;&gt;place at (0.0, 0.05, 0.0)! -->
<g id="edge5" class="edge">
<title>Sequence*&#45;&gt;place at (0.0, 0.05, 0.0)!</title>
<path fill="none" stroke="black" d="M175.75,-71.7C177.41,-63.98 179.39,-54.71 181.23,-46.11"/>
<polygon fill="black" stroke="black" points="184.71,-46.62 183.38,-36.1 177.86,-45.15 184.71,-46.62"/>
</g>
<!-- 1 on 0? -->
<g id="node8" class="node">
<title>1 on 0?</title>
<ellipse fill="gray" stroke="black" cx="251.04" cy="-90" rx="27" ry="18"/>
<text text-anchor="middle" x="251.04" y="-87.8" font-family="Times,serif" font-size="9.00">1 on 0?</text>
</g>
<!-- Fallback*&#45;&gt;1 on 0? -->
<g id="edge7" class="edge">
<title>Fallback*&#45;&gt;1 on 0?</title>
<path fill="none" stroke="black" d="M315.65,-146.15C303.74,-135.98 287.79,-122.37 274.72,-111.21"/>
<polygon fill="black" stroke="black" points="276.9,-108.47 267.02,-104.64 272.35,-113.79 276.9,-108.47"/>
</g>
<!-- Sequence** -->
<g id="node9" class="node">
<title>Sequence**</title>
<polygon fill="cyan" stroke="black" points="369.79,-82.54 369.79,-97.46 348.26,-108 317.83,-108 296.3,-97.46 296.3,-82.54 317.83,-72 348.26,-72 369.79,-82.54"/>
<text text-anchor="middle" x="333.04" y="-87.8" font-family="Times,serif" font-size="9.00">Sequence**</text>
</g>
<!-- Fallback*&#45;&gt;Sequence** -->
<g id="edge8" class="edge">
<title>Fallback*&#45;&gt;Sequence**</title>
<path fill="none" stroke="black" d="M333.04,-143.7C333.04,-135.98 333.04,-126.71 333.04,-118.11"/>
<polygon fill="black" stroke="black" points="336.54,-118.1 333.04,-108.1 329.54,-118.1 336.54,-118.1"/>
</g>
<!-- pick 1! -->
<g id="node10" class="node">
<title>pick 1!</title>
<ellipse fill="gray" stroke="black" cx="319.04" cy="-18" rx="27" ry="18"/>
<text text-anchor="middle" x="319.04" y="-15.8" font-family="Times,serif" font-size="9.00">pick 1!</text>
</g>
<!-- Sequence**&#45;&gt;pick 1! -->
<g id="edge9" class="edge">
<title>Sequence**&#45;&gt;pick 1!</title>
<path fill="none" stroke="black" d="M329.58,-71.7C328.04,-63.98 326.19,-54.71 324.47,-46.11"/>
<polygon fill="black" stroke="black" points="327.86,-45.22 322.47,-36.1 320.99,-46.6 327.86,-45.22"/>
</g>
<!-- place on 0! -->
<g id="node11" class="node">
<title>place on 0!</title>
<ellipse fill="gray" stroke="black" cx="396.04" cy="-18" rx="32.16" ry="18"/>
<text text-anchor="middle" x="396.04" y="-15.8" font-family="Times,serif" font-size="9.00">place on 0!</text>
</g>
<!-- Sequence**&#45;&gt;place on 0! -->
<g id="edge10" class="edge">
<title>Sequence**&#45;&gt;place on 0!</title>
<path fill="none" stroke="black" d="M348.62,-71.7C356.59,-62.84 366.41,-51.93 375.04,-42.34"/>
<polygon fill="black" stroke="black" points="377.85,-44.45 381.94,-34.67 372.65,-39.76 377.85,-44.45"/>
</g>
<!-- 1 at pos (0.0, 0.05, 0.0192)? -->
<g id="node13" class="node">
<title>1 at pos (0.0, 0.05, 0.0192)?</title>
<ellipse fill="gray" stroke="black" cx="455.04" cy="-90" rx="67.6" ry="18"/>
<text text-anchor="middle" x="455.04" y="-87.8" font-family="Times,serif" font-size="9.00">1 at pos (0.0, 0.05, 0.0192)?</text>
</g>
<!-- Fallback**&#45;&gt;1 at pos (0.0, 0.05, 0.0192)? -->
<g id="edge12" class="edge">
<title>Fallback**&#45;&gt;1 at pos (0.0, 0.05, 0.0192)?</title>
<path fill="none" stroke="black" d="M455.04,-143.7C455.04,-135.98 455.04,-126.71 455.04,-118.11"/>
<polygon fill="black" stroke="black" points="458.54,-118.1 455.04,-108.1 451.54,-118.1 458.54,-118.1"/>
</g>
<!-- apply force 1! -->
<g id="node14" class="node">
<title>apply force 1!</title>
<ellipse fill="gray" stroke="black" cx="579.04" cy="-90" rx="38.21" ry="18"/>
<text text-anchor="middle" x="579.04" y="-87.8" font-family="Times,serif" font-size="9.00">apply force 1!</text>
</g>
<!-- Fallback**&#45;&gt;apply force 1! -->
<g id="edge13" class="edge">
<title>Fallback**&#45;&gt;apply force 1!</title>
<path fill="none" stroke="black" d="M477.79,-148.16C497.12,-137.25 525.1,-121.45 546.75,-109.23"/>
<polygon fill="black" stroke="black" points="548.61,-112.2 555.6,-104.23 545.17,-106.1 548.61,-112.2"/>
</g>
<!-- 2 on 1? -->
<g id="node16" class="node">
<title>2 on 1?</title>
<ellipse fill="gray" stroke="black" cx="662.04" cy="-90" rx="27" ry="18"/>
<text text-anchor="middle" x="662.04" y="-87.8" font-family="Times,serif" font-size="9.00">2 on 1?</text>
</g>
<!-- Fallback***&#45;&gt;2 on 1? -->
<g id="edge15" class="edge">
<title>Fallback***&#45;&gt;2 on 1?</title>
<path fill="none" stroke="black" d="M662.04,-143.7C662.04,-135.98 662.04,-126.71 662.04,-118.11"/>
<polygon fill="black" stroke="black" points="665.54,-118.1 662.04,-108.1 658.54,-118.1 665.54,-118.1"/>
</g>
<!-- Sequence*** -->
<g id="node17" class="node">
<title>Sequence***</title>
<polygon fill="cyan" stroke="black" points="787.03,-82.54 787.03,-97.46 763.61,-108 730.48,-108 707.05,-97.46 707.05,-82.54 730.48,-72 763.61,-72 787.03,-82.54"/>
<text text-anchor="middle" x="747.04" y="-87.8" font-family="Times,serif" font-size="9.00">Sequence***</text>
</g>
<!-- Fallback***&#45;&gt;Sequence*** -->
<g id="edge16" class="edge">
<title>Fallback***&#45;&gt;Sequence***</title>
<path fill="none" stroke="black" d="M680.91,-145.46C692.3,-136.08 707.02,-123.96 719.68,-113.54"/>
<polygon fill="black" stroke="black" points="722.15,-116.04 727.64,-106.98 717.7,-110.63 722.15,-116.04"/>
</g>
<!-- pick 2! -->
<g id="node18" class="node">
<title>pick 2!</title>
<ellipse fill="gray" stroke="black" cx="708.04" cy="-18" rx="27" ry="18"/>
<text text-anchor="middle" x="708.04" y="-15.8" font-family="Times,serif" font-size="9.00">pick 2!</text>
</g>
<!-- Sequence***&#45;&gt;pick 2! -->
<g id="edge17" class="edge">
<title>Sequence***&#45;&gt;pick 2!</title>
<path fill="none" stroke="black" d="M737.4,-71.7C732.73,-63.32 727.04,-53.1 721.92,-43.9"/>
<polygon fill="black" stroke="black" points="724.96,-42.18 717.04,-35.14 718.85,-45.58 724.96,-42.18"/>
</g>
<!-- place on 1! -->
<g id="node19" class="node">
<title>place on 1!</title>
<ellipse fill="gray" stroke="black" cx="785.04" cy="-18" rx="32.16" ry="18"/>
<text text-anchor="middle" x="785.04" y="-15.8" font-family="Times,serif" font-size="9.00">place on 1!</text>
</g>
<!-- Sequence***&#45;&gt;place on 1! -->
<g id="edge18" class="edge">
<title>Sequence***&#45;&gt;place on 1!</title>
<path fill="none" stroke="black" d="M756.44,-71.7C760.87,-63.52 766.26,-53.6 771.16,-44.58"/>
<polygon fill="black" stroke="black" points="774.33,-46.08 776.02,-35.62 768.17,-42.74 774.33,-46.08"/>
</g>
</g>
</svg>
