<?xml version="1.0" encoding="UTF-8" standalone="no"?>
<!DOCTYPE svg PUBLIC "-//W3C//DTD SVG 1.1//EN"
 "http://www.w3.org/Graphics/SVG/1.1/DTD/svg11.dtd">
<!-- Generated by graphviz version 2.43.0 (0)
 -->
<!-- Title: pastafarianism Pages: 1 -->
<svg width="842pt" height="404pt"
 viewBox="0.00 0.00 841.69 404.00" xmlns="http://www.w3.org/2000/svg" xmlns:xlink="http://www.w3.org/1999/xlink">
<g id="graph0" class="graph" transform="scale(1 1) rotate(0) translate(4 400)">
<title>pastafarianism</title>
<polygon fill="white" stroke="transparent" points="-4,4 -4,-400 837.69,-400 837.69,4 -4,4"/>
<!-- Sequence -->
<g id="node1" class="node">
<title>Sequence</title>
<polygon fill="cyan" stroke="black" points="532.54,-370.54 532.54,-385.46 514.09,-396 488,-396 469.55,-385.46 469.55,-370.54 488,-360 514.09,-360 532.54,-370.54"/>
<text text-anchor="middle" x="501.04" y="-375.8" font-family="Times,serif" font-size="9.00">Sequence</text>
</g>
<!-- Fallback -->
<g id="node2" class="node">
<title>Fallback</title>
<polygon fill="cyan" stroke="black" points="201.29,-298.54 201.29,-313.46 184.16,-324 159.93,-324 142.8,-313.46 142.8,-298.54 159.93,-288 184.16,-288 201.29,-298.54"/>
<text text-anchor="middle" x="172.04" y="-303.8" font-family="Times,serif" font-size="9.00">Fallback</text>
</g>
<!-- Sequence&#45;&gt;Fallback -->
<g id="edge1" class="edge">
<title>Sequence&#45;&gt;Fallback</title>
<path fill="none" stroke="black" d="M469.8,-370.35C409.66,-357.56 277.92,-329.53 211.7,-315.44"/>
<polygon fill="black" stroke="black" points="212.17,-311.96 201.66,-313.3 210.71,-318.81 212.17,-311.96"/>
</g>
<!-- Fallback* -->
<g id="node7" class="node">
<title>Fallback*</title>
<polygon fill="cyan" stroke="black" points="373.79,-298.54 373.79,-313.46 355.19,-324 328.9,-324 310.3,-313.46 310.3,-298.54 328.9,-288 355.19,-288 373.79,-298.54"/>
<text text-anchor="middle" x="342.04" y="-303.8" font-family="Times,serif" font-size="9.00">Fallback*</text>
</g>
<!-- Sequence&#45;&gt;Fallback* -->
<g id="edge6" class="edge">
<title>Sequence&#45;&gt;Fallback*</title>
<path fill="none" stroke="black" d="M476.55,-366.22C449.59,-354.35 406.07,-335.19 375.87,-321.89"/>
<polygon fill="black" stroke="black" points="377.13,-318.62 366.57,-317.8 374.31,-325.03 377.13,-318.62"/>
</g>
<!-- place on 0!* -->
<g id="node18" class="node">
<title>place on 0!*</title>
<ellipse fill="gray" stroke="black" cx="456.04" cy="-306" rx="34.78" ry="18"/>
<text text-anchor="middle" x="456.04" y="-303.8" font-family="Times,serif" font-size="9.00">place on 0!*</text>
</g>
<!-- Sequence&#45;&gt;place on 0!* -->
<g id="edge17" class="edge">
<title>Sequence&#45;&gt;place on 0!*</title>
<path fill="none" stroke="black" d="M489.92,-359.7C484.61,-351.44 478.15,-341.39 472.31,-332.3"/>
<polygon fill="black" stroke="black" points="475.08,-330.14 466.73,-323.62 469.19,-333.93 475.08,-330.14"/>
</g>
<!-- Fallback*** -->
<g id="node19" class="node">
<title>Fallback***</title>
<polygon fill="cyan" stroke="black" points="583.53,-298.54 583.53,-313.46 561.57,-324 530.52,-324 508.55,-313.46 508.55,-298.54 530.52,-288 561.57,-288 583.53,-298.54"/>
<text text-anchor="middle" x="546.04" y="-303.8" font-family="Times,serif" font-size="9.00">Fallback***</text>
</g>
<!-- Sequence&#45;&gt;Fallback*** -->
<g id="edge18" class="edge">
<title>Sequence&#45;&gt;Fallback***</title>
<path fill="none" stroke="black" d="M512.17,-359.7C517.4,-351.56 523.74,-341.69 529.52,-332.7"/>
<polygon fill="black" stroke="black" points="532.59,-334.41 535.05,-324.1 526.7,-330.62 532.59,-334.41"/>
</g>
<!-- Fallback**** -->
<g id="node22" class="node">
<title>Fallback****</title>
<polygon fill="cyan" stroke="black" points="696.78,-298.54 696.78,-313.46 672.92,-324 639.17,-324 615.3,-313.46 615.3,-298.54 639.17,-288 672.92,-288 696.78,-298.54"/>
<text text-anchor="middle" x="656.04" y="-303.8" font-family="Times,serif" font-size="9.00">Fallback****</text>
</g>
<!-- Sequence&#45;&gt;Fallback**** -->
<g id="edge21" class="edge">
<title>Sequence&#45;&gt;Fallback****</title>
<path fill="none" stroke="black" d="M525.26,-366.06C550.43,-354.7 590.13,-336.77 619.19,-323.64"/>
<polygon fill="black" stroke="black" points="620.93,-326.7 628.6,-319.39 618.05,-320.32 620.93,-326.7"/>
</g>
<!-- apply force 2! -->
<g id="node27" class="node">
<title>apply force 2!</title>
<ellipse fill="gray" stroke="black" cx="753.04" cy="-306" rx="38.21" ry="18"/>
<text text-anchor="middle" x="753.04" y="-303.8" font-family="Times,serif" font-size="9.00">apply force 2!</text>
</g>
<!-- Sequence&#45;&gt;apply force 2! -->
<g id="edge26" class="edge">
<title>Sequence&#45;&gt;apply force 2!</title>
<path fill="none" stroke="black" d="M531.86,-369.99C572.19,-360.6 644.94,-342.9 706.04,-324 708.94,-323.11 711.91,-322.14 714.89,-321.14"/>
<polygon fill="black" stroke="black" points="716.05,-324.44 724.36,-317.86 713.76,-317.83 716.05,-324.44"/>
</g>
<!-- 0 at pos (0.0, 0.05, 0.0)? -->
<g id="node3" class="node">
<title>0 at pos (0.0, 0.05, 0.0)?</title>
<ellipse fill="gray" stroke="black" cx="60.04" cy="-234" rx="60.09" ry="18"/>
<text text-anchor="middle" x="60.04" y="-231.8" font-family="Times,serif" font-size="9.00">0 at pos (0.0, 0.05, 0.0)?</text>
</g>
<!-- Fallback&#45;&gt;0 at pos (0.0, 0.05, 0.0)? -->
<g id="edge2" class="edge">
<title>Fallback&#45;&gt;0 at pos (0.0, 0.05, 0.0)?</title>
<path fill="none" stroke="black" d="M152.28,-292.65C136.12,-282.55 112.92,-268.05 93.82,-256.11"/>
<polygon fill="black" stroke="black" points="95.44,-253 85.11,-250.66 91.73,-258.93 95.44,-253"/>
</g>
<!-- Sequence* -->
<g id="node4" class="node">
<title>Sequence*</title>
<polygon fill="cyan" stroke="black" points="206.29,-226.54 206.29,-241.46 186.23,-252 157.86,-252 137.8,-241.46 137.8,-226.54 157.86,-216 186.23,-216 206.29,-226.54"/>
<text text-anchor="middle" x="172.04" y="-231.8" font-family="Times,serif" font-size="9.00">Sequence*</text>
</g>
<!-- Fallback&#45;&gt;Sequence* -->
<g id="edge3" class="edge">
<title>Fallback&#45;&gt;Sequence*</title>
<path fill="none" stroke="black" d="M172.04,-287.7C172.04,-279.98 172.04,-270.71 172.04,-262.11"/>
<polygon fill="black" stroke="black" points="175.54,-262.1 172.04,-252.1 168.54,-262.1 175.54,-262.1"/>
</g>
<!-- pick 0! -->
<g id="node5" class="node">
<title>pick 0!</title>
<ellipse fill="gray" stroke="black" cx="69.04" cy="-162" rx="27" ry="18"/>
<text text-anchor="middle" x="69.04" y="-159.8" font-family="Times,serif" font-size="9.00">pick 0!</text>
</g>
<!-- Sequence*&#45;&gt;pick 0! -->
<g id="edge4" class="edge">
<title>Sequence*&#45;&gt;pick 0!</title>
<path fill="none" stroke="black" d="M151.69,-219.17C135.72,-208.31 113.34,-193.1 95.89,-181.25"/>
<polygon fill="black" stroke="black" points="97.52,-178.12 87.28,-175.39 93.58,-183.91 97.52,-178.12"/>
</g>
<!-- place at (0.0, 0.05, 0.0)! -->
<g id="node6" class="node">
<title>place at (0.0, 0.05, 0.0)!</title>
<ellipse fill="gray" stroke="black" cx="172.04" cy="-162" rx="58.13" ry="18"/>
<text text-anchor="middle" x="172.04" y="-159.8" font-family="Times,serif" font-size="9.00">place at (0.0, 0.05, 0.0)!</text>
</g>
<!-- Sequence*&#45;&gt;place at (0.0, 0.05, 0.0)! -->
<g id="edge5" class="edge">
<title>Sequence*&#45;&gt;place at (0.0, 0.05, 0.0)!</title>
<path fill="none" stroke="black" d="M172.04,-215.7C172.04,-207.98 172.04,-198.71 172.04,-190.11"/>
<polygon fill="black" stroke="black" points="175.54,-190.1 172.04,-180.1 168.54,-190.1 175.54,-190.1"/>
</g>
<!-- 1 on 0? -->
<g id="node8" class="node">
<title>1 on 0?</title>
<ellipse fill="gray" stroke="black" cx="260.04" cy="-234" rx="27" ry="18"/>
<text text-anchor="middle" x="260.04" y="-231.8" font-family="Times,serif" font-size="9.00">1 on 0?</text>
</g>
<!-- Fallback*&#45;&gt;1 on 0? -->
<g id="edge7" class="edge">
<title>Fallback*&#45;&gt;1 on 0?</title>
<path fill="none" stroke="black" d="M324.65,-290.15C312.74,-279.98 296.79,-266.37 283.72,-255.21"/>
<polygon fill="black" stroke="black" points="285.9,-252.47 276.02,-248.64 281.35,-257.79 285.9,-252.47"/>
</g>
<!-- Sequence** -->
<g id="node9" class="node">
<title>Sequence**</title>
<polygon fill="cyan" stroke="black" points="378.79,-226.54 378.79,-241.46 357.26,-252 326.83,-252 305.3,-241.46 305.3,-226.54 326.83,-216 357.26,-216 378.79,-226.54"/>
<text text-anchor="middle" x="342.04" y="-231.8" font-family="Times,serif" font-size="9.00">Sequence**</text>
</g>
<!-- Fallback*&#45;&gt;Sequence** -->
<g id="edge8" class="edge">
<title>Fallback*&#45;&gt;Sequence**</title>
<path fill="none" stroke="black" d="M342.04,-287.7C342.04,-279.98 342.04,-270.71 342.04,-262.11"/>
<polygon fill="black" stroke="black" points="345.54,-262.1 342.04,-252.1 338.54,-262.1 345.54,-262.1"/>
</g>
<!-- pick 1! -->
<g id="node10" class="node">
<title>pick 1!</title>
<ellipse fill="gray" stroke="black" cx="275.04" cy="-162" rx="27" ry="18"/>
<text text-anchor="middle" x="275.04" y="-159.8" font-family="Times,serif" font-size="9.00">pick 1!</text>
</g>
<!-- Sequence**&#45;&gt;pick 1! -->
<g id="edge9" class="edge">
<title>Sequence**&#45;&gt;pick 1!</title>
<path fill="none" stroke="black" d="M325.83,-216.05C316.94,-206.77 305.81,-195.15 296.25,-185.15"/>
<polygon fill="black" stroke="black" points="298.74,-182.69 289.29,-177.89 293.68,-187.53 298.74,-182.69"/>
</g>
<!-- place on 0! -->
<g id="node11" class="node">
<title>place on 0!</title>
<ellipse fill="gray" stroke="black" cx="352.04" cy="-162" rx="32.16" ry="18"/>
<text text-anchor="middle" x="352.04" y="-159.8" font-family="Times,serif" font-size="9.00">place on 0!</text>
</g>
<!-- Sequence**&#45;&gt;place on 0! -->
<g id="edge10" class="edge">
<title>Sequence**&#45;&gt;place on 0!</title>
<path fill="none" stroke="black" d="M344.52,-215.7C345.62,-207.98 346.94,-198.71 348.17,-190.11"/>
<polygon fill="black" stroke="black" points="351.65,-190.5 349.6,-180.1 344.72,-189.51 351.65,-190.5"/>
</g>
<!-- Fallback** -->
<g id="node12" class="node">
<title>Fallback**</title>
<polygon fill="cyan" stroke="black" points="472.04,-154.54 472.04,-169.46 451.54,-180 422.55,-180 402.05,-169.46 402.05,-154.54 422.55,-144 451.54,-144 472.04,-154.54"/>
<text text-anchor="middle" x="437.04" y="-159.8" font-family="Times,serif" font-size="9.00">Fallback**</text>
</g>
<!-- Sequence**&#45;&gt;Fallback** -->
<g id="edge11" class="edge">
<title>Sequence**&#45;&gt;Fallback**</title>
<path fill="none" stroke="black" d="M362.19,-218.15C375.76,-208.16 393.84,-194.83 408.84,-183.78"/>
<polygon fill="black" stroke="black" points="411.28,-186.33 417.25,-177.58 407.13,-180.7 411.28,-186.33"/>
</g>
<!-- 2 on 1? -->
<g id="node13" class="node">
<title>2 on 1?</title>
<ellipse fill="gray" stroke="black" cx="394.04" cy="-90" rx="27" ry="18"/>
<text text-anchor="middle" x="394.04" y="-87.8" font-family="Times,serif" font-size="9.00">2 on 1?</text>
</g>
<!-- Fallback**&#45;&gt;2 on 1? -->
<g id="edge12" class="edge">
<title>Fallback**&#45;&gt;2 on 1?</title>
<path fill="none" stroke="black" d="M426.42,-143.7C421.27,-135.32 414.99,-125.1 409.34,-115.9"/>
<polygon fill="black" stroke="black" points="412.18,-113.83 403.96,-107.14 406.21,-117.5 412.18,-113.83"/>
</g>
<!-- Sequence*** -->
<g id="node14" class="node">
<title>Sequence***</title>
<polygon fill="cyan" stroke="black" points="519.03,-82.54 519.03,-97.46 495.61,-108 462.48,-108 439.05,-97.46 439.05,-82.54 462.48,-72 495.61,-72 519.03,-82.54"/>
<text text-anchor="middle" x="479.04" y="-87.8" font-family="Times,serif" font-size="9.00">Sequence***</text>
</g>
<!-- Fallback**&#45;&gt;Sequence*** -->
<g id="edge13" class="edge">
<title>Fallback**&#45;&gt;Sequence***</title>
<path fill="none" stroke="black" d="M447.43,-143.7C452.31,-135.56 458.23,-125.69 463.62,-116.7"/>
<polygon fill="black" stroke="black" points="466.64,-118.48 468.78,-108.1 460.64,-114.88 466.64,-118.48"/>
</g>
<!-- pick 2! -->
<g id="node15" class="node">
<title>pick 2!</title>
<ellipse fill="gray" stroke="black" cx="407.04" cy="-18" rx="27" ry="18"/>
<text text-anchor="middle" x="407.04" y="-15.8" font-family="Times,serif" font-size="9.00">pick 2!</text>
</g>
<!-- Sequence***&#45;&gt;pick 2! -->
<g id="edge14" class="edge">
<title>Sequence***&#45;&gt;pick 2!</title>
<path fill="none" stroke="black" d="M461.62,-72.05C451.84,-62.55 439.54,-50.59 429.1,-40.44"/>
<polygon fill="black" stroke="black" points="431.49,-37.89 421.88,-33.42 426.61,-42.9 431.49,-37.89"/>
</g>
<!-- 1 on 0?* -->
<g id="node16" class="node">
<title>1 on 0?*</title>
<ellipse fill="gray" stroke="black" cx="479.04" cy="-18" rx="27.27" ry="18"/>
<text text-anchor="middle" x="479.04" y="-15.8" font-family="Times,serif" font-size="9.00">1 on 0?*</text>
</g>
<!-- Sequence***&#45;&gt;1 on 0?* -->
<g id="edge15" class="edge">
<title>Sequence***&#45;&gt;1 on 0?*</title>
<path fill="none" stroke="black" d="M479.04,-71.7C479.04,-63.98 479.04,-54.71 479.04,-46.11"/>
<polygon fill="black" stroke="black" points="482.54,-46.1 479.04,-36.1 475.54,-46.1 482.54,-46.1"/>
</g>
<!-- place on 1! -->
<g id="node17" class="node">
<title>place on 1!</title>
<ellipse fill="gray" stroke="black" cx="556.04" cy="-18" rx="32.16" ry="18"/>
<text text-anchor="middle" x="556.04" y="-15.8" font-family="Times,serif" font-size="9.00">place on 1!</text>
</g>
<!-- Sequence***&#45;&gt;place on 1! -->
<g id="edge16" class="edge">
<title>Sequence***&#45;&gt;place on 1!</title>
<path fill="none" stroke="black" d="M497.29,-72.41C507.77,-62.88 521.05,-50.81 532.33,-40.56"/>
<polygon fill="black" stroke="black" points="534.72,-43.12 539.76,-33.8 530.01,-37.94 534.72,-43.12"/>
</g>
<!-- 1 at pos (0.0, 0.05, 0.0192)? -->
<g id="node20" class="node">
<title>1 at pos (0.0, 0.05, 0.0192)?</title>
<ellipse fill="gray" stroke="black" cx="464.04" cy="-234" rx="67.6" ry="18"/>
<text text-anchor="middle" x="464.04" y="-231.8" font-family="Times,serif" font-size="9.00">1 at pos (0.0, 0.05, 0.0192)?</text>
</g>
<!-- Fallback***&#45;&gt;1 at pos (0.0, 0.05, 0.0192)? -->
<g id="edge19" class="edge">
<title>Fallback***&#45;&gt;1 at pos (0.0, 0.05, 0.0192)?</title>
<path fill="none" stroke="black" d="M527.44,-289.12C516.69,-279.94 502.97,-268.23 491.05,-258.06"/>
<polygon fill="black" stroke="black" points="493.03,-255.14 483.15,-251.31 488.48,-260.46 493.03,-255.14"/>
</g>
<!-- apply force 1! -->
<g id="node21" class="node">
<title>apply force 1!</title>
<ellipse fill="gray" stroke="black" cx="588.04" cy="-234" rx="38.21" ry="18"/>
<text text-anchor="middle" x="588.04" y="-231.8" font-family="Times,serif" font-size="9.00">apply force 1!</text>
</g>
<!-- Fallback***&#45;&gt;apply force 1! -->
<g id="edge20" class="edge">
<title>Fallback***&#45;&gt;apply force 1!</title>
<path fill="none" stroke="black" d="M556.43,-287.7C561.38,-279.44 567.41,-269.39 572.86,-260.3"/>
<polygon fill="black" stroke="black" points="575.93,-262 578.07,-251.62 569.92,-258.4 575.93,-262"/>
</g>
<!-- 2 on 1?* -->
<g id="node23" class="node">
<title>2 on 1?*</title>
<ellipse fill="gray" stroke="black" cx="671.04" cy="-234" rx="27.27" ry="18"/>
<text text-anchor="middle" x="671.04" y="-231.8" font-family="Times,serif" font-size="9.00">2 on 1?*</text>
</g>
<!-- Fallback****&#45;&gt;2 on 1?* -->
<g id="edge22" class="edge">
<title>Fallback****&#45;&gt;2 on 1?*</title>
<path fill="none" stroke="black" d="M659.75,-287.7C661.41,-279.98 663.39,-270.71 665.23,-262.11"/>
<polygon fill="black" stroke="black" points="668.71,-262.62 667.38,-252.1 661.86,-261.15 668.71,-262.62"/>
</g>
<!-- Sequence**** -->
<g id="node24" class="node">
<title>Sequence****</title>
<polygon fill="cyan" stroke="black" points="801.53,-226.54 801.53,-241.46 776.64,-252 741.44,-252 716.56,-241.46 716.56,-226.54 741.44,-216 776.64,-216 801.53,-226.54"/>
<text text-anchor="middle" x="759.04" y="-231.8" font-family="Times,serif" font-size="9.00">Sequence****</text>
</g>
<!-- Fallback****&#45;&gt;Sequence**** -->
<g id="edge23" class="edge">
<title>Fallback****&#45;&gt;Sequence****</title>
<path fill="none" stroke="black" d="M677.89,-290.15C692.54,-280.2 712.04,-266.94 728.26,-255.92"/>
<polygon fill="black" stroke="black" points="730.57,-258.58 736.88,-250.07 726.64,-252.79 730.57,-258.58"/>
</g>
<!-- pick 2!* -->
<g id="node25" class="node">
<title>pick 2!*</title>
<ellipse fill="gray" stroke="black" cx="719.04" cy="-162" rx="27" ry="18"/>
<text text-anchor="middle" x="719.04" y="-159.8" font-family="Times,serif" font-size="9.00">pick 2!*</text>
</g>
<!-- Sequence****&#45;&gt;pick 2!* -->
<g id="edge24" class="edge">
<title>Sequence****&#45;&gt;pick 2!*</title>
<path fill="none" stroke="black" d="M749.16,-215.7C744.37,-207.32 738.53,-197.1 733.27,-187.9"/>
<polygon fill="black" stroke="black" points="736.27,-186.09 728.27,-179.14 730.19,-189.56 736.27,-186.09"/>
</g>
<!-- place on 1!* -->
<g id="node26" class="node">
<title>place on 1!*</title>
<ellipse fill="gray" stroke="black" cx="799.04" cy="-162" rx="34.78" ry="18"/>
<text text-anchor="middle" x="799.04" y="-159.8" font-family="Times,serif" font-size="9.00">place on 1!*</text>
</g>
<!-- Sequence****&#45;&gt;place on 1!* -->
<g id="edge25" class="edge">
<title>Sequence****&#45;&gt;place on 1!*</title>
<path fill="none" stroke="black" d="M768.93,-215.7C773.6,-207.52 779.27,-197.6 784.43,-188.58"/>
<polygon fill="black" stroke="black" points="787.62,-190.04 789.55,-179.62 781.55,-186.57 787.62,-190.04"/>
</g>
</g>
</svg>
