<?xml version="1.0" encoding="UTF-8" standalone="no"?>
<!DOCTYPE svg PUBLIC "-//W3C//DTD SVG 1.1//EN"
 "http://www.w3.org/Graphics/SVG/1.1/DTD/svg11.dtd">
<!-- Generated by graphviz version 2.43.0 (0)
 -->
<!-- Title: pastafarianism Pages: 1 -->
<svg width="1042pt" height="260pt"
 viewBox="0.00 0.00 1042.38 260.00" xmlns="http://www.w3.org/2000/svg" xmlns:xlink="http://www.w3.org/1999/xlink">
<g id="graph0" class="graph" transform="scale(1 1) rotate(0) translate(4 256)">
<title>pastafarianism</title>
<polygon fill="white" stroke="transparent" points="-4,4 -4,-256 1038.38,-256 1038.38,4 -4,4"/>
<!-- Sequence -->
<g id="node1" class="node">
<title>Sequence</title>
<polygon fill="cyan" stroke="black" points="631.54,-226.54 631.54,-241.46 613.09,-252 587,-252 568.55,-241.46 568.55,-226.54 587,-216 613.09,-216 631.54,-226.54"/>
<text text-anchor="middle" x="600.04" y="-231.8" font-family="Times,serif" font-size="9.00">Sequence</text>
</g>
<!-- Fallback -->
<g id="node2" class="node">
<title>Fallback</title>
<polygon fill="cyan" stroke="black" points="201.29,-154.54 201.29,-169.46 184.16,-180 159.93,-180 142.8,-169.46 142.8,-154.54 159.93,-144 184.16,-144 201.29,-154.54"/>
<text text-anchor="middle" x="172.04" y="-159.8" font-family="Times,serif" font-size="9.00">Fallback</text>
</g>
<!-- Sequence&#45;&gt;Fallback -->
<g id="edge1" class="edge">
<title>Sequence&#45;&gt;Fallback</title>
<path fill="none" stroke="black" d="M568.57,-227.85C491.94,-215.32 295.79,-183.24 211.51,-169.45"/>
<polygon fill="black" stroke="black" points="212,-165.99 201.56,-167.83 210.87,-172.9 212,-165.99"/>
</g>
<!-- Fallback* -->
<g id="node8" class="node">
<title>Fallback*</title>
<polygon fill="cyan" stroke="black" points="382.79,-154.54 382.79,-169.46 364.19,-180 337.9,-180 319.3,-169.46 319.3,-154.54 337.9,-144 364.19,-144 382.79,-154.54"/>
<text text-anchor="middle" x="351.04" y="-159.8" font-family="Times,serif" font-size="9.00">Fallback*</text>
</g>
<!-- Sequence&#45;&gt;Fallback* -->
<g id="edge7" class="edge">
<title>Sequence&#45;&gt;Fallback*</title>
<path fill="none" stroke="black" d="M570.99,-224.83C526.11,-212.21 439.85,-187.97 389.73,-173.88"/>
<polygon fill="black" stroke="black" points="390.48,-170.45 379.91,-171.11 388.59,-177.19 390.48,-170.45"/>
</g>
<!-- Fallback** -->
<g id="node13" class="node">
<title>Fallback**</title>
<polygon fill="cyan" stroke="black" points="635.04,-154.54 635.04,-169.46 614.54,-180 585.55,-180 565.05,-169.46 565.05,-154.54 585.55,-144 614.54,-144 635.04,-154.54"/>
<text text-anchor="middle" x="600.04" y="-159.8" font-family="Times,serif" font-size="9.00">Fallback**</text>
</g>
<!-- Sequence&#45;&gt;Fallback** -->
<g id="edge12" class="edge">
<title>Sequence&#45;&gt;Fallback**</title>
<path fill="none" stroke="black" d="M600.04,-215.7C600.04,-207.98 600.04,-198.71 600.04,-190.11"/>
<polygon fill="black" stroke="black" points="603.54,-190.1 600.04,-180.1 596.54,-190.1 603.54,-190.1"/>
</g>
<!-- Fallback*** -->
<g id="node17" class="node">
<title>Fallback***</title>
<polygon fill="cyan" stroke="black" points="802.53,-154.54 802.53,-169.46 780.57,-180 749.52,-180 727.55,-169.46 727.55,-154.54 749.52,-144 780.57,-144 802.53,-154.54"/>
<text text-anchor="middle" x="765.04" y="-159.8" font-family="Times,serif" font-size="9.00">Fallback***</text>
</g>
<!-- Sequence&#45;&gt;Fallback*** -->
<g id="edge16" class="edge">
<title>Sequence&#45;&gt;Fallback***</title>
<path fill="none" stroke="black" d="M624.75,-222.52C652.28,-210.84 697.09,-191.83 728.64,-178.44"/>
<polygon fill="black" stroke="black" points="730.14,-181.61 737.98,-174.48 727.4,-175.17 730.14,-181.61"/>
</g>
<!-- apply force 2! -->
<g id="node23" class="node">
<title>apply force 2!</title>
<ellipse fill="gray" stroke="black" cx="859.04" cy="-162" rx="38.21" ry="18"/>
<text text-anchor="middle" x="859.04" y="-159.8" font-family="Times,serif" font-size="9.00">apply force 2!</text>
</g>
<!-- Sequence&#45;&gt;apply force 2! -->
<g id="edge22" class="edge">
<title>Sequence&#45;&gt;apply force 2!</title>
<path fill="none" stroke="black" d="M631.04,-226.18C672.4,-216.86 747.77,-199.11 811.04,-180 814.13,-179.07 817.32,-178.05 820.51,-177"/>
<polygon fill="black" stroke="black" points="821.66,-180.31 830,-173.78 819.4,-173.68 821.66,-180.31"/>
</g>
<!-- 0 at pos (0.0, 0.05, 0.0)? -->
<g id="node3" class="node">
<title>0 at pos (0.0, 0.05, 0.0)?</title>
<ellipse fill="gray" stroke="black" cx="60.04" cy="-90" rx="60.09" ry="18"/>
<text text-anchor="middle" x="60.04" y="-87.8" font-family="Times,serif" font-size="9.00">0 at pos (0.0, 0.05, 0.0)?</text>
</g>
<!-- Fallback&#45;&gt;0 at pos (0.0, 0.05, 0.0)? -->
<g id="edge2" class="edge">
<title>Fallback&#45;&gt;0 at pos (0.0, 0.05, 0.0)?</title>
<path fill="none" stroke="black" d="M152.28,-148.65C136.12,-138.55 112.92,-124.05 93.82,-112.11"/>
<polygon fill="black" stroke="black" points="95.44,-109 85.11,-106.66 91.73,-114.93 95.44,-109"/>
</g>
<!-- Sequence* -->
<g id="node4" class="node">
<title>Sequence*</title>
<polygon fill="cyan" stroke="black" points="206.29,-82.54 206.29,-97.46 186.23,-108 157.86,-108 137.8,-97.46 137.8,-82.54 157.86,-72 186.23,-72 206.29,-82.54"/>
<text text-anchor="middle" x="172.04" y="-87.8" font-family="Times,serif" font-size="9.00">Sequence*</text>
</g>
<!-- Fallback&#45;&gt;Sequence* -->
<g id="edge3" class="edge">
<title>Fallback&#45;&gt;Sequence*</title>
<path fill="none" stroke="black" d="M172.04,-143.7C172.04,-135.98 172.04,-126.71 172.04,-118.11"/>
<polygon fill="black" stroke="black" points="175.54,-118.1 172.04,-108.1 168.54,-118.1 175.54,-118.1"/>
</g>
<!-- pick 0! -->
<g id="node5" class="node">
<title>pick 0!</title>
<ellipse fill="gray" stroke="black" cx="51.04" cy="-18" rx="27" ry="18"/>
<text text-anchor="middle" x="51.04" y="-15.8" font-family="Times,serif" font-size="9.00">pick 0!</text>
</g>
<!-- Sequence*&#45;&gt;pick 0! -->
<g id="edge4" class="edge">
<title>Sequence*&#45;&gt;pick 0!</title>
<path fill="none" stroke="black" d="M149.85,-76.16C130.03,-64.7 100.89,-47.84 79.39,-35.4"/>
<polygon fill="black" stroke="black" points="81.1,-32.35 70.7,-30.37 77.6,-38.41 81.1,-32.35"/>
</g>
<!-- place at (0.0, 0.05, 0.0)! -->
<g id="node6" class="node">
<title>place at (0.0, 0.05, 0.0)!</title>
<ellipse fill="gray" stroke="black" cx="154.04" cy="-18" rx="58.13" ry="18"/>
<text text-anchor="middle" x="154.04" y="-15.8" font-family="Times,serif" font-size="9.00">place at (0.0, 0.05, 0.0)!</text>
</g>
<!-- Sequence*&#45;&gt;place at (0.0, 0.05, 0.0)! -->
<g id="edge5" class="edge">
<title>Sequence*&#45;&gt;place at (0.0, 0.05, 0.0)!</title>
<path fill="none" stroke="black" d="M167.59,-71.7C165.59,-63.9 163.18,-54.51 160.94,-45.83"/>
<polygon fill="black" stroke="black" points="164.32,-44.92 158.44,-36.1 157.54,-46.66 164.32,-44.92"/>
</g>
<!-- apply force 1! -->
<g id="node7" class="node">
<title>apply force 1!</title>
<ellipse fill="gray" stroke="black" cx="268.04" cy="-18" rx="38.21" ry="18"/>
<text text-anchor="middle" x="268.04" y="-15.8" font-family="Times,serif" font-size="9.00">apply force 1!</text>
</g>
<!-- Sequence*&#45;&gt;apply force 1! -->
<g id="edge6" class="edge">
<title>Sequence*&#45;&gt;apply force 1!</title>
<path fill="none" stroke="black" d="M191.94,-74.5C205.84,-64.36 224.6,-50.68 240.01,-39.44"/>
<polygon fill="black" stroke="black" points="242.16,-42.21 248.18,-33.49 238.04,-36.55 242.16,-42.21"/>
</g>
<!-- 1 on 0? -->
<g id="node9" class="node">
<title>1 on 0?</title>
<ellipse fill="gray" stroke="black" cx="269.04" cy="-90" rx="27" ry="18"/>
<text text-anchor="middle" x="269.04" y="-87.8" font-family="Times,serif" font-size="9.00">1 on 0?</text>
</g>
<!-- Fallback*&#45;&gt;1 on 0? -->
<g id="edge8" class="edge">
<title>Fallback*&#45;&gt;1 on 0?</title>
<path fill="none" stroke="black" d="M333.65,-146.15C321.74,-135.98 305.79,-122.37 292.72,-111.21"/>
<polygon fill="black" stroke="black" points="294.9,-108.47 285.02,-104.64 290.35,-113.79 294.9,-108.47"/>
</g>
<!-- Sequence** -->
<g id="node10" class="node">
<title>Sequence**</title>
<polygon fill="cyan" stroke="black" points="387.79,-82.54 387.79,-97.46 366.26,-108 335.83,-108 314.3,-97.46 314.3,-82.54 335.83,-72 366.26,-72 387.79,-82.54"/>
<text text-anchor="middle" x="351.04" y="-87.8" font-family="Times,serif" font-size="9.00">Sequence**</text>
</g>
<!-- Fallback*&#45;&gt;Sequence** -->
<g id="edge9" class="edge">
<title>Fallback*&#45;&gt;Sequence**</title>
<path fill="none" stroke="black" d="M351.04,-143.7C351.04,-135.98 351.04,-126.71 351.04,-118.11"/>
<polygon fill="black" stroke="black" points="354.54,-118.1 351.04,-108.1 347.54,-118.1 354.54,-118.1"/>
</g>
<!-- pick 1! -->
<g id="node11" class="node">
<title>pick 1!</title>
<ellipse fill="gray" stroke="black" cx="351.04" cy="-18" rx="27" ry="18"/>
<text text-anchor="middle" x="351.04" y="-15.8" font-family="Times,serif" font-size="9.00">pick 1!</text>
</g>
<!-- Sequence**&#45;&gt;pick 1! -->
<g id="edge10" class="edge">
<title>Sequence**&#45;&gt;pick 1!</title>
<path fill="none" stroke="black" d="M351.04,-71.7C351.04,-63.98 351.04,-54.71 351.04,-46.11"/>
<polygon fill="black" stroke="black" points="354.54,-46.1 351.04,-36.1 347.54,-46.1 354.54,-46.1"/>
</g>
<!-- place on 0! -->
<g id="node12" class="node">
<title>place on 0!</title>
<ellipse fill="gray" stroke="black" cx="428.04" cy="-18" rx="32.16" ry="18"/>
<text text-anchor="middle" x="428.04" y="-15.8" font-family="Times,serif" font-size="9.00">place on 0!</text>
</g>
<!-- Sequence**&#45;&gt;place on 0! -->
<g id="edge11" class="edge">
<title>Sequence**&#45;&gt;place on 0!</title>
<path fill="none" stroke="black" d="M368.9,-72.76C379.44,-63.18 392.91,-50.94 404.34,-40.55"/>
<polygon fill="black" stroke="black" points="406.81,-43.03 411.86,-33.72 402.1,-37.85 406.81,-43.03"/>
</g>
<!-- 1 at pos (0.0, 0.05, 0.0192)? -->
<g id="node14" class="node">
<title>1 at pos (0.0, 0.05, 0.0192)?</title>
<ellipse fill="gray" stroke="black" cx="473.04" cy="-90" rx="67.6" ry="18"/>
<text text-anchor="middle" x="473.04" y="-87.8" font-family="Times,serif" font-size="9.00">1 at pos (0.0, 0.05, 0.0192)?</text>
</g>
<!-- Fallback**&#45;&gt;1 at pos (0.0, 0.05, 0.0192)? -->
<g id="edge13" class="edge">
<title>Fallback**&#45;&gt;1 at pos (0.0, 0.05, 0.0192)?</title>
<path fill="none" stroke="black" d="M577.05,-148.32C558.41,-138.05 531.78,-123.37 510.13,-111.44"/>
<polygon fill="black" stroke="black" points="511.65,-108.28 501.2,-106.52 508.27,-114.41 511.65,-108.28"/>
</g>
<!-- apply force 1!* -->
<g id="node15" class="node">
<title>apply force 1!*</title>
<ellipse fill="gray" stroke="black" cx="600.04" cy="-90" rx="40.98" ry="18"/>
<text text-anchor="middle" x="600.04" y="-87.8" font-family="Times,serif" font-size="9.00">apply force 1!*</text>
</g>
<!-- Fallback**&#45;&gt;apply force 1!* -->
<g id="edge14" class="edge">
<title>Fallback**&#45;&gt;apply force 1!*</title>
<path fill="none" stroke="black" d="M600.04,-143.7C600.04,-135.98 600.04,-126.71 600.04,-118.11"/>
<polygon fill="black" stroke="black" points="603.54,-118.1 600.04,-108.1 596.54,-118.1 603.54,-118.1"/>
</g>
<!-- 2 at pos (0.0, 0.05, 0.0384)? -->
<g id="node16" class="node">
<title>2 at pos (0.0, 0.05, 0.0384)?</title>
<ellipse fill="gray" stroke="black" cx="727.04" cy="-90" rx="67.6" ry="18"/>
<text text-anchor="middle" x="727.04" y="-87.8" font-family="Times,serif" font-size="9.00">2 at pos (0.0, 0.05, 0.0384)?</text>
</g>
<!-- Fallback**&#45;&gt;2 at pos (0.0, 0.05, 0.0384)? -->
<g id="edge15" class="edge">
<title>Fallback**&#45;&gt;2 at pos (0.0, 0.05, 0.0384)?</title>
<path fill="none" stroke="black" d="M623.04,-148.32C641.68,-138.05 668.31,-123.37 689.96,-111.44"/>
<polygon fill="black" stroke="black" points="691.82,-114.41 698.89,-106.52 688.44,-108.28 691.82,-114.41"/>
</g>
<!-- 2 on 1? -->
<g id="node18" class="node">
<title>2 on 1?</title>
<ellipse fill="gray" stroke="black" cx="840.04" cy="-90" rx="27" ry="18"/>
<text text-anchor="middle" x="840.04" y="-87.8" font-family="Times,serif" font-size="9.00">2 on 1?</text>
</g>
<!-- Fallback***&#45;&gt;2 on 1? -->
<g id="edge17" class="edge">
<title>Fallback***&#45;&gt;2 on 1?</title>
<path fill="none" stroke="black" d="M782.44,-144.76C792.85,-135.05 806.19,-122.6 817.41,-112.13"/>
<polygon fill="black" stroke="black" points="819.85,-114.63 824.78,-105.25 815.08,-109.51 819.85,-114.63"/>
</g>
<!-- Sequence*** -->
<g id="node19" class="node">
<title>Sequence***</title>
<polygon fill="cyan" stroke="black" points="965.03,-82.54 965.03,-97.46 941.61,-108 908.48,-108 885.05,-97.46 885.05,-82.54 908.48,-72 941.61,-72 965.03,-82.54"/>
<text text-anchor="middle" x="925.04" y="-87.8" font-family="Times,serif" font-size="9.00">Sequence***</text>
</g>
<!-- Fallback***&#45;&gt;Sequence*** -->
<g id="edge18" class="edge">
<title>Fallback***&#45;&gt;Sequence***</title>
<path fill="none" stroke="black" d="M791.82,-149.28C818.12,-137.78 858.46,-120.13 887.86,-107.27"/>
<polygon fill="black" stroke="black" points="889.61,-110.32 897.37,-103.11 886.81,-103.91 889.61,-110.32"/>
</g>
<!-- pick 2! -->
<g id="node20" class="node">
<title>pick 2!</title>
<ellipse fill="gray" stroke="black" cx="853.04" cy="-18" rx="27" ry="18"/>
<text text-anchor="middle" x="853.04" y="-15.8" font-family="Times,serif" font-size="9.00">pick 2!</text>
</g>
<!-- Sequence***&#45;&gt;pick 2! -->
<g id="edge19" class="edge">
<title>Sequence***&#45;&gt;pick 2!</title>
<path fill="none" stroke="black" d="M907.62,-72.05C897.84,-62.55 885.54,-50.59 875.1,-40.44"/>
<polygon fill="black" stroke="black" points="877.49,-37.89 867.88,-33.42 872.61,-42.9 877.49,-37.89"/>
</g>
<!-- 1 on 0?* -->
<g id="node21" class="node">
<title>1 on 0?*</title>
<ellipse fill="gray" stroke="black" cx="925.04" cy="-18" rx="27.27" ry="18"/>
<text text-anchor="middle" x="925.04" y="-15.8" font-family="Times,serif" font-size="9.00">1 on 0?*</text>
</g>
<!-- Sequence***&#45;&gt;1 on 0?* -->
<g id="edge20" class="edge">
<title>Sequence***&#45;&gt;1 on 0?*</title>
<path fill="none" stroke="black" d="M925.04,-71.7C925.04,-63.98 925.04,-54.71 925.04,-46.11"/>
<polygon fill="black" stroke="black" points="928.54,-46.1 925.04,-36.1 921.54,-46.1 928.54,-46.1"/>
</g>
<!-- place on 1! -->
<g id="node22" class="node">
<title>place on 1!</title>
<ellipse fill="gray" stroke="black" cx="1002.04" cy="-18" rx="32.16" ry="18"/>
<text text-anchor="middle" x="1002.04" y="-15.8" font-family="Times,serif" font-size="9.00">place on 1!</text>
</g>
<!-- Sequence***&#45;&gt;place on 1! -->
<g id="edge21" class="edge">
<title>Sequence***&#45;&gt;place on 1!</title>
<path fill="none" stroke="black" d="M943.29,-72.41C953.77,-62.88 967.05,-50.81 978.33,-40.56"/>
<polygon fill="black" stroke="black" points="980.72,-43.12 985.76,-33.8 976.01,-37.94 980.72,-43.12"/>
</g>
</g>
</svg>
