<?xml version="1.0" encoding="UTF-8" standalone="no"?>
<!DOCTYPE svg PUBLIC "-//W3C//DTD SVG 1.1//EN"
 "http://www.w3.org/Graphics/SVG/1.1/DTD/svg11.dtd">
<!-- Generated by graphviz version 2.43.0 (0)
 -->
<!-- Title: pastafarianism Pages: 1 -->
<svg width="412pt" height="188pt"
 viewBox="0.00 0.00 412.00 188.00" xmlns="http://www.w3.org/2000/svg" xmlns:xlink="http://www.w3.org/1999/xlink">
<g id="graph0" class="graph" transform="scale(1 1) rotate(0) translate(4 184)">
<title>pastafarianism</title>
<polygon fill="white" stroke="transparent" points="-4,4 -4,-184 408,-184 408,4 -4,4"/>
<!-- Fallback -->
<g id="node1" class="node">
<title>Fallback</title>
<polygon fill="cyan" stroke="black" points="210.24,-154.54 210.24,-169.46 193.11,-180 168.89,-180 151.76,-169.46 151.76,-154.54 168.89,-144 193.11,-144 210.24,-154.54"/>
<text text-anchor="middle" x="181" y="-159.8" font-family="Times,serif" font-size="9.00">Fallback</text>
</g>
<!-- Sequence -->
<g id="node2" class="node">
<title>Sequence</title>
<polygon fill="cyan" stroke="black" points="161.49,-82.54 161.49,-97.46 143.05,-108 116.95,-108 98.51,-97.46 98.51,-82.54 116.95,-72 143.05,-72 161.49,-82.54"/>
<text text-anchor="middle" x="130" y="-87.8" font-family="Times,serif" font-size="9.00">Sequence</text>
</g>
<!-- Fallback&#45;&gt;Sequence -->
<g id="edge1" class="edge">
<title>Fallback&#45;&gt;Sequence</title>
<path fill="none" stroke="black" d="M168.65,-144.05C162.61,-135.75 155.2,-125.58 148.49,-116.38"/>
<polygon fill="black" stroke="black" points="151.3,-114.3 142.59,-108.28 145.65,-118.42 151.3,-114.3"/>
</g>
<!-- Sequence* -->
<g id="node5" class="node">
<title>Sequence*</title>
<polygon fill="cyan" stroke="black" points="303.24,-82.54 303.24,-97.46 283.18,-108 254.82,-108 234.76,-97.46 234.76,-82.54 254.82,-72 283.18,-72 303.24,-82.54"/>
<text text-anchor="middle" x="269" y="-87.8" font-family="Times,serif" font-size="9.00">Sequence*</text>
</g>
<!-- Fallback&#45;&gt;Sequence* -->
<g id="edge4" class="edge">
<title>Fallback&#45;&gt;Sequence*</title>
<path fill="none" stroke="black" d="M198.39,-147.17C210.95,-137.18 228.14,-123.5 242.42,-112.14"/>
<polygon fill="black" stroke="black" points="244.79,-114.73 250.43,-105.77 240.43,-109.25 244.79,-114.73"/>
</g>
<!-- pick 0! -->
<g id="node3" class="node">
<title>pick 0!</title>
<ellipse fill="gray" stroke="black" cx="27" cy="-18" rx="27" ry="18"/>
<text text-anchor="middle" x="27" y="-15.8" font-family="Times,serif" font-size="9.00">pick 0!</text>
</g>
<!-- Sequence&#45;&gt;pick 0! -->
<g id="edge2" class="edge">
<title>Sequence&#45;&gt;pick 0!</title>
<path fill="none" stroke="black" d="M110.14,-75.5C94.21,-64.68 71.69,-49.37 54.1,-37.42"/>
<polygon fill="black" stroke="black" points="55.65,-34.24 45.41,-31.51 51.72,-40.03 55.65,-34.24"/>
</g>
<!-- place at (0.0, 0.05, 0.0)! -->
<g id="node4" class="node">
<title>place at (0.0, 0.05, 0.0)!</title>
<ellipse fill="gray" stroke="black" cx="130" cy="-18" rx="58.13" ry="18"/>
<text text-anchor="middle" x="130" y="-15.8" font-family="Times,serif" font-size="9.00">place at (0.0, 0.05, 0.0)!</text>
</g>
<!-- Sequence&#45;&gt;place at (0.0, 0.05, 0.0)! -->
<g id="edge3" class="edge">
<title>Sequence&#45;&gt;place at (0.0, 0.05, 0.0)!</title>
<path fill="none" stroke="black" d="M130,-71.7C130,-63.98 130,-54.71 130,-46.11"/>
<polygon fill="black" stroke="black" points="133.5,-46.1 130,-36.1 126.5,-46.1 133.5,-46.1"/>
</g>
<!-- pick 2! -->
<g id="node6" class="node">
<title>pick 2!</title>
<ellipse fill="gray" stroke="black" cx="233" cy="-18" rx="27" ry="18"/>
<text text-anchor="middle" x="233" y="-15.8" font-family="Times,serif" font-size="9.00">pick 2!</text>
</g>
<!-- Sequence*&#45;&gt;pick 2! -->
<g id="edge5" class="edge">
<title>Sequence*&#45;&gt;pick 2!</title>
<path fill="none" stroke="black" d="M260.1,-71.7C255.84,-63.4 250.65,-53.31 245.95,-44.19"/>
<polygon fill="black" stroke="black" points="248.99,-42.44 241.3,-35.14 242.76,-45.64 248.99,-42.44"/>
</g>
<!-- 2 on 1? -->
<g id="node7" class="node">
<title>2 on 1?</title>
<ellipse fill="gray" stroke="black" cx="305" cy="-18" rx="27" ry="18"/>
<text text-anchor="middle" x="305" y="-15.8" font-family="Times,serif" font-size="9.00">2 on 1?</text>
</g>
<!-- Sequence*&#45;&gt;2 on 1? -->
<g id="edge6" class="edge">
<title>Sequence*&#45;&gt;2 on 1?</title>
<path fill="none" stroke="black" d="M277.9,-71.7C282.16,-63.4 287.35,-53.31 292.05,-44.19"/>
<polygon fill="black" stroke="black" points="295.24,-45.64 296.7,-35.14 289.01,-42.44 295.24,-45.64"/>
</g>
<!-- pick 0!* -->
<g id="node8" class="node">
<title>pick 0!*</title>
<ellipse fill="gray" stroke="black" cx="377" cy="-18" rx="27" ry="18"/>
<text text-anchor="middle" x="377" y="-15.8" font-family="Times,serif" font-size="9.00">pick 0!*</text>
</g>
<!-- Sequence*&#45;&gt;pick 0!* -->
<g id="edge7" class="edge">
<title>Sequence*&#45;&gt;pick 0!*</title>
<path fill="none" stroke="black" d="M290.08,-75.34C307.07,-64.33 331.08,-48.76 349.57,-36.78"/>
<polygon fill="black" stroke="black" points="351.65,-39.6 358.14,-31.22 347.85,-33.73 351.65,-39.6"/>
</g>
</g>
</svg>
