<?xml version="1.0" encoding="UTF-8" standalone="no"?>
<!DOCTYPE svg PUBLIC "-//W3C//DTD SVG 1.1//EN"
 "http://www.w3.org/Graphics/SVG/1.1/DTD/svg11.dtd">
<!-- Generated by graphviz version 2.43.0 (0)
 -->
<!-- Title: pastafarianism Pages: 1 -->
<svg width="455pt" height="260pt"
 viewBox="0.00 0.00 454.82 260.00" xmlns="http://www.w3.org/2000/svg" xmlns:xlink="http://www.w3.org/1999/xlink">
<g id="graph0" class="graph" transform="scale(1 1) rotate(0) translate(4 256)">
<title>pastafarianism</title>
<polygon fill="white" stroke="transparent" points="-4,4 -4,-256 450.82,-256 450.82,4 -4,4"/>
<!-- Sequence -->
<g id="node1" class="node">
<title>Sequence</title>
<polygon fill="cyan" stroke="black" points="192.81,-226.54 192.81,-241.46 174.36,-252 148.27,-252 129.82,-241.46 129.82,-226.54 148.27,-216 174.36,-216 192.81,-226.54"/>
<text text-anchor="middle" x="161.31" y="-231.8" font-family="Times,serif" font-size="9.00">Sequence</text>
</g>
<!-- pick 0! -->
<g id="node2" class="node">
<title>pick 0!</title>
<ellipse fill="gray" stroke="black" cx="87.31" cy="-162" rx="27" ry="18"/>
<text text-anchor="middle" x="87.31" y="-159.8" font-family="Times,serif" font-size="9.00">pick 0!</text>
</g>
<!-- Sequence&#45;&gt;pick 0! -->
<g id="edge1" class="edge">
<title>Sequence&#45;&gt;pick 0!</title>
<path fill="none" stroke="black" d="M144.89,-217.46C134.51,-207.65 120.96,-194.83 109.62,-184.1"/>
<polygon fill="black" stroke="black" points="111.85,-181.39 102.18,-177.07 107.04,-186.48 111.85,-181.39"/>
</g>
<!-- Fallback -->
<g id="node3" class="node">
<title>Fallback</title>
<polygon fill="cyan" stroke="black" points="190.56,-154.54 190.56,-169.46 173.43,-180 149.2,-180 132.07,-169.46 132.07,-154.54 149.2,-144 173.43,-144 190.56,-154.54"/>
<text text-anchor="middle" x="161.31" y="-159.8" font-family="Times,serif" font-size="9.00">Fallback</text>
</g>
<!-- Sequence&#45;&gt;Fallback -->
<g id="edge2" class="edge">
<title>Sequence&#45;&gt;Fallback</title>
<path fill="none" stroke="black" d="M161.31,-215.7C161.31,-207.98 161.31,-198.71 161.31,-190.11"/>
<polygon fill="black" stroke="black" points="164.81,-190.1 161.31,-180.1 157.81,-190.1 164.81,-190.1"/>
</g>
<!-- place at (0.0, 0.05, 0.0)!*** -->
<g id="node10" class="node">
<title>place at (0.0, 0.05, 0.0)!***</title>
<ellipse fill="gray" stroke="black" cx="275.31" cy="-162" rx="66.29" ry="18"/>
<text text-anchor="middle" x="275.31" y="-159.8" font-family="Times,serif" font-size="9.00">place at (0.0, 0.05, 0.0)!***</text>
</g>
<!-- Sequence&#45;&gt;place at (0.0, 0.05, 0.0)!*** -->
<g id="edge9" class="edge">
<title>Sequence&#45;&gt;place at (0.0, 0.05, 0.0)!***</title>
<path fill="none" stroke="black" d="M181.96,-220.32C198.35,-210.26 221.64,-195.96 240.85,-184.16"/>
<polygon fill="black" stroke="black" points="242.94,-186.99 249.63,-178.77 239.27,-181.02 242.94,-186.99"/>
</g>
<!-- place at (0.0, 0.05, 0.0)! -->
<g id="node4" class="node">
<title>place at (0.0, 0.05, 0.0)!</title>
<ellipse fill="gray" stroke="black" cx="58.31" cy="-90" rx="58.13" ry="18"/>
<text text-anchor="middle" x="58.31" y="-87.8" font-family="Times,serif" font-size="9.00">place at (0.0, 0.05, 0.0)!</text>
</g>
<!-- Fallback&#45;&gt;place at (0.0, 0.05, 0.0)! -->
<g id="edge3" class="edge">
<title>Fallback&#45;&gt;place at (0.0, 0.05, 0.0)!</title>
<path fill="none" stroke="black" d="M142.42,-148.16C127.78,-138.21 107.17,-124.21 90.02,-112.55"/>
<polygon fill="black" stroke="black" points="91.65,-109.42 81.41,-106.7 87.71,-115.21 91.65,-109.42"/>
</g>
<!-- 1 on 2? -->
<g id="node5" class="node">
<title>1 on 2?</title>
<ellipse fill="gray" stroke="black" cx="161.31" cy="-90" rx="27" ry="18"/>
<text text-anchor="middle" x="161.31" y="-87.8" font-family="Times,serif" font-size="9.00">1 on 2?</text>
</g>
<!-- Fallback&#45;&gt;1 on 2? -->
<g id="edge4" class="edge">
<title>Fallback&#45;&gt;1 on 2?</title>
<path fill="none" stroke="black" d="M161.31,-143.7C161.31,-135.98 161.31,-126.71 161.31,-118.11"/>
<polygon fill="black" stroke="black" points="164.81,-118.1 161.31,-108.1 157.81,-118.1 164.81,-118.1"/>
</g>
<!-- Sequence* -->
<g id="node6" class="node">
<title>Sequence*</title>
<polygon fill="cyan" stroke="black" points="274.55,-82.54 274.55,-97.46 254.5,-108 226.13,-108 206.07,-97.46 206.07,-82.54 226.13,-72 254.5,-72 274.55,-82.54"/>
<text text-anchor="middle" x="240.31" y="-87.8" font-family="Times,serif" font-size="9.00">Sequence*</text>
</g>
<!-- Fallback&#45;&gt;Sequence* -->
<g id="edge5" class="edge">
<title>Fallback&#45;&gt;Sequence*</title>
<path fill="none" stroke="black" d="M177.68,-146.5C188.51,-136.9 202.91,-124.14 215.18,-113.27"/>
<polygon fill="black" stroke="black" points="217.71,-115.71 222.87,-106.46 213.06,-110.47 217.71,-115.71"/>
</g>
<!-- pick 0!* -->
<g id="node7" class="node">
<title>pick 0!*</title>
<ellipse fill="gray" stroke="black" cx="134.31" cy="-18" rx="27" ry="18"/>
<text text-anchor="middle" x="134.31" y="-15.8" font-family="Times,serif" font-size="9.00">pick 0!*</text>
</g>
<!-- Sequence*&#45;&gt;pick 0!* -->
<g id="edge6" class="edge">
<title>Sequence*&#45;&gt;pick 0!*</title>
<path fill="none" stroke="black" d="M219.62,-75.34C202.95,-64.33 179.38,-48.76 161.24,-36.78"/>
<polygon fill="black" stroke="black" points="163.1,-33.81 152.82,-31.22 159.24,-39.66 163.1,-33.81"/>
</g>
<!-- place at (0.0, 0.05, 0.0)!* -->
<g id="node8" class="node">
<title>place at (0.0, 0.05, 0.0)!*</title>
<ellipse fill="gray" stroke="black" cx="240.31" cy="-18" rx="61.4" ry="18"/>
<text text-anchor="middle" x="240.31" y="-15.8" font-family="Times,serif" font-size="9.00">place at (0.0, 0.05, 0.0)!*</text>
</g>
<!-- Sequence*&#45;&gt;place at (0.0, 0.05, 0.0)!* -->
<g id="edge7" class="edge">
<title>Sequence*&#45;&gt;place at (0.0, 0.05, 0.0)!*</title>
<path fill="none" stroke="black" d="M240.31,-71.7C240.31,-63.98 240.31,-54.71 240.31,-46.11"/>
<polygon fill="black" stroke="black" points="243.81,-46.1 240.31,-36.1 236.81,-46.1 243.81,-46.1"/>
</g>
<!-- place at (0.0, 0.05, 0.0)!** -->
<g id="node9" class="node">
<title>place at (0.0, 0.05, 0.0)!**</title>
<ellipse fill="gray" stroke="black" cx="383.31" cy="-18" rx="63.52" ry="18"/>
<text text-anchor="middle" x="383.31" y="-15.8" font-family="Times,serif" font-size="9.00">place at (0.0, 0.05, 0.0)!**</text>
</g>
<!-- Sequence*&#45;&gt;place at (0.0, 0.05, 0.0)!** -->
<g id="edge8" class="edge">
<title>Sequence*&#45;&gt;place at (0.0, 0.05, 0.0)!**</title>
<path fill="none" stroke="black" d="M264.57,-77.13C286.29,-66.49 318.53,-50.71 343.94,-38.28"/>
<polygon fill="black" stroke="black" points="345.51,-41.4 352.96,-33.86 342.44,-35.11 345.51,-41.4"/>
</g>
</g>
</svg>
