<?xml version="1.0" encoding="UTF-8" standalone="no"?>
<!DOCTYPE svg PUBLIC "-//W3C//DTD SVG 1.1//EN"
 "http://www.w3.org/Graphics/SVG/1.1/DTD/svg11.dtd">
<!-- Generated by graphviz version 2.43.0 (0)
 -->
<!-- Title: pastafarianism Pages: 1 -->
<svg width="196pt" height="188pt"
 viewBox="0.00 0.00 196.31 188.00" xmlns="http://www.w3.org/2000/svg" xmlns:xlink="http://www.w3.org/1999/xlink">
<g id="graph0" class="graph" transform="scale(1 1) rotate(0) translate(4 184)">
<title>pastafarianism</title>
<polygon fill="white" stroke="transparent" points="-4,4 -4,-184 192.31,-184 192.31,4 -4,4"/>
<!-- Fallback -->
<g id="node1" class="node">
<title>Fallback</title>
<polygon fill="cyan" stroke="black" points="146.24,-154.54 146.24,-169.46 129.11,-180 104.89,-180 87.76,-169.46 87.76,-154.54 104.89,-144 129.11,-144 146.24,-154.54"/>
<text text-anchor="middle" x="117" y="-159.8" font-family="Times,serif" font-size="9.00">Fallback</text>
</g>
<!-- Sequence -->
<g id="node2" class="node">
<title>Sequence</title>
<polygon fill="cyan" stroke="black" points="109.49,-82.54 109.49,-97.46 91.05,-108 64.95,-108 46.51,-97.46 46.51,-82.54 64.95,-72 91.05,-72 109.49,-82.54"/>
<text text-anchor="middle" x="78" y="-87.8" font-family="Times,serif" font-size="9.00">Sequence</text>
</g>
<!-- Fallback&#45;&gt;Sequence -->
<g id="edge1" class="edge">
<title>Fallback&#45;&gt;Sequence</title>
<path fill="none" stroke="black" d="M107.36,-143.7C102.87,-135.64 97.44,-125.89 92.48,-116.98"/>
<polygon fill="black" stroke="black" points="95.45,-115.14 87.53,-108.1 89.34,-118.54 95.45,-115.14"/>
</g>
<!-- picked 1? -->
<g id="node5" class="node">
<title>picked 1?</title>
<ellipse fill="gray" stroke="black" cx="156" cy="-90" rx="28.74" ry="18"/>
<text text-anchor="middle" x="156" y="-87.8" font-family="Times,serif" font-size="9.00">picked 1?</text>
</g>
<!-- Fallback&#45;&gt;picked 1? -->
<g id="edge4" class="edge">
<title>Fallback&#45;&gt;picked 1?</title>
<path fill="none" stroke="black" d="M126.64,-143.7C131.31,-135.32 137,-125.1 142.13,-115.9"/>
<polygon fill="black" stroke="black" points="145.2,-117.58 147.01,-107.14 139.08,-114.18 145.2,-117.58"/>
</g>
<!-- pick 0! -->
<g id="node3" class="node">
<title>pick 0!</title>
<ellipse fill="gray" stroke="black" cx="27" cy="-18" rx="27" ry="18"/>
<text text-anchor="middle" x="27" y="-15.8" font-family="Times,serif" font-size="9.00">pick 0!</text>
</g>
<!-- Sequence&#45;&gt;pick 0! -->
<g id="edge2" class="edge">
<title>Sequence&#45;&gt;pick 0!</title>
<path fill="none" stroke="black" d="M65.39,-71.7C59.07,-63.02 51.31,-52.37 44.43,-42.92"/>
<polygon fill="black" stroke="black" points="47.14,-40.69 38.42,-34.67 41.48,-44.81 47.14,-40.69"/>
</g>
<!-- place at (0.0, 0.05, 0.0)! -->
<g id="node4" class="node">
<title>place at (0.0, 0.05, 0.0)!</title>
<ellipse fill="gray" stroke="black" cx="130" cy="-18" rx="58.13" ry="18"/>
<text text-anchor="middle" x="130" y="-15.8" font-family="Times,serif" font-size="9.00">place at (0.0, 0.05, 0.0)!</text>
</g>
<!-- Sequence&#45;&gt;place at (0.0, 0.05, 0.0)! -->
<g id="edge3" class="edge">
<title>Sequence&#45;&gt;place at (0.0, 0.05, 0.0)!</title>
<path fill="none" stroke="black" d="M90.85,-71.7C97.12,-63.27 104.76,-52.97 111.63,-43.73"/>
<polygon fill="black" stroke="black" points="114.5,-45.74 117.65,-35.62 108.88,-41.56 114.5,-45.74"/>
</g>
</g>
</svg>
