<?xml version="1.0" encoding="UTF-8" standalone="no"?>
<!DOCTYPE svg PUBLIC "-//W3C//DTD SVG 1.1//EN"
 "http://www.w3.org/Graphics/SVG/1.1/DTD/svg11.dtd">
<!-- Generated by graphviz version 2.43.0 (0)
 -->
<!-- Title: pastafarianism Pages: 1 -->
<svg width="273pt" height="260pt"
 viewBox="0.00 0.00 273.31 260.00" xmlns="http://www.w3.org/2000/svg" xmlns:xlink="http://www.w3.org/1999/xlink">
<g id="graph0" class="graph" transform="scale(1 1) rotate(0) translate(4 256)">
<title>pastafarianism</title>
<polygon fill="white" stroke="transparent" points="-4,4 -4,-256 269.31,-256 269.31,4 -4,4"/>
<!-- Fallback -->
<g id="node1" class="node">
<title>Fallback</title>
<polygon fill="cyan" stroke="black" points="182.24,-226.54 182.24,-241.46 165.11,-252 140.89,-252 123.76,-241.46 123.76,-226.54 140.89,-216 165.11,-216 182.24,-226.54"/>
<text text-anchor="middle" x="153" y="-231.8" font-family="Times,serif" font-size="9.00">Fallback</text>
</g>
<!-- Sequence -->
<g id="node2" class="node">
<title>Sequence</title>
<polygon fill="cyan" stroke="black" points="184.49,-154.54 184.49,-169.46 166.05,-180 139.95,-180 121.51,-169.46 121.51,-154.54 139.95,-144 166.05,-144 184.49,-154.54"/>
<text text-anchor="middle" x="153" y="-159.8" font-family="Times,serif" font-size="9.00">Sequence</text>
</g>
<!-- Fallback&#45;&gt;Sequence -->
<g id="edge1" class="edge">
<title>Fallback&#45;&gt;Sequence</title>
<path fill="none" stroke="black" d="M153,-215.7C153,-207.98 153,-198.71 153,-190.11"/>
<polygon fill="black" stroke="black" points="156.5,-190.1 153,-180.1 149.5,-190.1 156.5,-190.1"/>
</g>
<!-- Fallback* -->
<g id="node3" class="node">
<title>Fallback*</title>
<polygon fill="cyan" stroke="black" points="130.74,-82.54 130.74,-97.46 112.15,-108 85.85,-108 67.26,-97.46 67.26,-82.54 85.85,-72 112.15,-72 130.74,-82.54"/>
<text text-anchor="middle" x="99" y="-87.8" font-family="Times,serif" font-size="9.00">Fallback*</text>
</g>
<!-- Sequence&#45;&gt;Fallback* -->
<g id="edge2" class="edge">
<title>Sequence&#45;&gt;Fallback*</title>
<path fill="none" stroke="black" d="M139.65,-143.7C133.24,-135.39 125.44,-125.28 118.39,-116.14"/>
<polygon fill="black" stroke="black" points="121.07,-113.88 112.19,-108.1 115.53,-118.16 121.07,-113.88"/>
</g>
<!-- place at (0.0, 0.05, 0.0)! -->
<g id="node7" class="node">
<title>place at (0.0, 0.05, 0.0)!</title>
<ellipse fill="gray" stroke="black" cx="207" cy="-90" rx="58.13" ry="18"/>
<text text-anchor="middle" x="207" y="-87.8" font-family="Times,serif" font-size="9.00">place at (0.0, 0.05, 0.0)!</text>
</g>
<!-- Sequence&#45;&gt;place at (0.0, 0.05, 0.0)! -->
<g id="edge6" class="edge">
<title>Sequence&#45;&gt;place at (0.0, 0.05, 0.0)!</title>
<path fill="none" stroke="black" d="M166.35,-143.7C172.85,-135.27 180.79,-124.97 187.92,-115.73"/>
<polygon fill="black" stroke="black" points="190.84,-117.68 194.18,-107.62 185.3,-113.4 190.84,-117.68"/>
</g>
<!-- 0 on 2? -->
<g id="node4" class="node">
<title>0 on 2?</title>
<ellipse fill="gray" stroke="black" cx="27" cy="-18" rx="27" ry="18"/>
<text text-anchor="middle" x="27" y="-15.8" font-family="Times,serif" font-size="9.00">0 on 2?</text>
</g>
<!-- Fallback*&#45;&gt;0 on 2? -->
<g id="edge3" class="edge">
<title>Fallback*&#45;&gt;0 on 2?</title>
<path fill="none" stroke="black" d="M83.02,-73.46C73.06,-63.78 60.09,-51.17 49.15,-40.53"/>
<polygon fill="black" stroke="black" points="51.56,-38 41.95,-33.54 46.68,-43.02 51.56,-38"/>
</g>
<!-- pick 0! -->
<g id="node5" class="node">
<title>pick 0!</title>
<ellipse fill="gray" stroke="black" cx="99" cy="-18" rx="27" ry="18"/>
<text text-anchor="middle" x="99" y="-15.8" font-family="Times,serif" font-size="9.00">pick 0!</text>
</g>
<!-- Fallback*&#45;&gt;pick 0! -->
<g id="edge4" class="edge">
<title>Fallback*&#45;&gt;pick 0!</title>
<path fill="none" stroke="black" d="M99,-71.7C99,-63.98 99,-54.71 99,-46.11"/>
<polygon fill="black" stroke="black" points="102.5,-46.1 99,-36.1 95.5,-46.1 102.5,-46.1"/>
</g>
<!-- 2 on 0? -->
<g id="node6" class="node">
<title>2 on 0?</title>
<ellipse fill="gray" stroke="black" cx="171" cy="-18" rx="27" ry="18"/>
<text text-anchor="middle" x="171" y="-15.8" font-family="Times,serif" font-size="9.00">2 on 0?</text>
</g>
<!-- Fallback*&#45;&gt;2 on 0? -->
<g id="edge5" class="edge">
<title>Fallback*&#45;&gt;2 on 0?</title>
<path fill="none" stroke="black" d="M114.98,-73.46C124.94,-63.78 137.91,-51.17 148.85,-40.53"/>
<polygon fill="black" stroke="black" points="151.32,-43.02 156.05,-33.54 146.44,-38 151.32,-43.02"/>
</g>
</g>
</svg>
