<?xml version="1.0" encoding="UTF-8" standalone="no"?>
<!DOCTYPE svg PUBLIC "-//W3C//DTD SVG 1.1//EN"
 "http://www.w3.org/Graphics/SVG/1.1/DTD/svg11.dtd">
<!-- Generated by graphviz version 2.43.0 (0)
 -->
<!-- Title: pastafarianism Pages: 1 -->
<svg width="268pt" height="116pt"
 viewBox="0.00 0.00 268.31 116.00" xmlns="http://www.w3.org/2000/svg" xmlns:xlink="http://www.w3.org/1999/xlink">
<g id="graph0" class="graph" transform="scale(1 1) rotate(0) translate(4 112)">
<title>pastafarianism</title>
<polygon fill="white" stroke="transparent" points="-4,4 -4,-112 264.31,-112 264.31,4 -4,4"/>
<!-- Sequence -->
<g id="node1" class="node">
<title>Sequence</title>
<polygon fill="cyan" stroke="black" points="130.49,-82.54 130.49,-97.46 112.05,-108 85.95,-108 67.51,-97.46 67.51,-82.54 85.95,-72 112.05,-72 130.49,-82.54"/>
<text text-anchor="middle" x="99" y="-87.8" font-family="Times,serif" font-size="9.00">Sequence</text>
</g>
<!-- pick 0! -->
<g id="node2" class="node">
<title>pick 0!</title>
<ellipse fill="gray" stroke="black" cx="27" cy="-18" rx="27" ry="18"/>
<text text-anchor="middle" x="27" y="-15.8" font-family="Times,serif" font-size="9.00">pick 0!</text>
</g>
<!-- Sequence&#45;&gt;pick 0! -->
<g id="edge1" class="edge">
<title>Sequence&#45;&gt;pick 0!</title>
<path fill="none" stroke="black" d="M83.02,-73.46C73.06,-63.78 60.09,-51.17 49.15,-40.53"/>
<polygon fill="black" stroke="black" points="51.56,-38 41.95,-33.54 46.68,-43.02 51.56,-38"/>
</g>
<!-- pick 0!* -->
<g id="node3" class="node">
<title>pick 0!*</title>
<ellipse fill="gray" stroke="black" cx="99" cy="-18" rx="27" ry="18"/>
<text text-anchor="middle" x="99" y="-15.8" font-family="Times,serif" font-size="9.00">pick 0!*</text>
</g>
<!-- Sequence&#45;&gt;pick 0!* -->
<g id="edge2" class="edge">
<title>Sequence&#45;&gt;pick 0!*</title>
<path fill="none" stroke="black" d="M99,-71.7C99,-63.98 99,-54.71 99,-46.11"/>
<polygon fill="black" stroke="black" points="102.5,-46.1 99,-36.1 95.5,-46.1 102.5,-46.1"/>
</g>
<!-- place at (0.0, 0.05, 0.0)! -->
<g id="node4" class="node">
<title>place at (0.0, 0.05, 0.0)!</title>
<ellipse fill="gray" stroke="black" cx="202" cy="-18" rx="58.13" ry="18"/>
<text text-anchor="middle" x="202" y="-15.8" font-family="Times,serif" font-size="9.00">place at (0.0, 0.05, 0.0)!</text>
</g>
<!-- Sequence&#45;&gt;place at (0.0, 0.05, 0.0)! -->
<g id="edge3" class="edge">
<title>Sequence&#45;&gt;place at (0.0, 0.05, 0.0)!</title>
<path fill="none" stroke="black" d="M118.86,-75.5C133.49,-65.56 153.7,-51.83 170.52,-40.39"/>
<polygon fill="black" stroke="black" points="172.66,-43.17 178.96,-34.65 168.73,-37.38 172.66,-43.17"/>
</g>
</g>
</svg>
