<?xml version="1.0" encoding="UTF-8" standalone="no"?>
<!DOCTYPE svg PUBLIC "-//W3C//DTD SVG 1.1//EN"
 "http://www.w3.org/Graphics/SVG/1.1/DTD/svg11.dtd">
<!-- Generated by graphviz version 2.43.0 (0)
 -->
<!-- Title: pastafarianism Pages: 1 -->
<svg width="511pt" height="188pt"
 viewBox="0.00 0.00 511.00 188.00" xmlns="http://www.w3.org/2000/svg" xmlns:xlink="http://www.w3.org/1999/xlink">
<g id="graph0" class="graph" transform="scale(1 1) rotate(0) translate(4 184)">
<title>pastafarianism</title>
<polygon fill="white" stroke="transparent" points="-4,4 -4,-184 507,-184 507,4 -4,4"/>
<!-- Fallback -->
<g id="node1" class="node">
<title>Fallback</title>
<polygon fill="cyan" stroke="black" points="288.24,-154.54 288.24,-169.46 271.11,-180 246.89,-180 229.76,-169.46 229.76,-154.54 246.89,-144 271.11,-144 288.24,-154.54"/>
<text text-anchor="middle" x="259" y="-159.8" font-family="Times,serif" font-size="9.00">Fallback</text>
</g>
<!-- Sequence -->
<g id="node2" class="node">
<title>Sequence</title>
<polygon fill="cyan" stroke="black" points="130.49,-82.54 130.49,-97.46 112.05,-108 85.95,-108 67.51,-97.46 67.51,-82.54 85.95,-72 112.05,-72 130.49,-82.54"/>
<text text-anchor="middle" x="99" y="-87.8" font-family="Times,serif" font-size="9.00">Sequence</text>
</g>
<!-- Fallback&#45;&gt;Sequence -->
<g id="edge1" class="edge">
<title>Fallback&#45;&gt;Sequence</title>
<path fill="none" stroke="black" d="M235.73,-150.82C208.67,-138.98 163.77,-119.34 132.85,-105.81"/>
<polygon fill="black" stroke="black" points="133.91,-102.45 123.34,-101.65 131.1,-108.86 133.91,-102.45"/>
</g>
<!-- place at (0.0, 0.05, 0.0)! -->
<g id="node6" class="node">
<title>place at (0.0, 0.05, 0.0)!</title>
<ellipse fill="gray" stroke="black" cx="207" cy="-90" rx="58.13" ry="18"/>
<text text-anchor="middle" x="207" y="-87.8" font-family="Times,serif" font-size="9.00">place at (0.0, 0.05, 0.0)!</text>
</g>
<!-- Fallback&#45;&gt;place at (0.0, 0.05, 0.0)! -->
<g id="edge5" class="edge">
<title>Fallback&#45;&gt;place at (0.0, 0.05, 0.0)!</title>
<path fill="none" stroke="black" d="M246.41,-144.05C240.15,-135.63 232.46,-125.28 225.55,-115.97"/>
<polygon fill="black" stroke="black" points="228.24,-113.73 219.47,-107.79 222.63,-117.9 228.24,-113.73"/>
</g>
<!-- pick 0!** -->
<g id="node7" class="node">
<title>pick 0!**</title>
<ellipse fill="gray" stroke="black" cx="312" cy="-90" rx="28.74" ry="18"/>
<text text-anchor="middle" x="312" y="-87.8" font-family="Times,serif" font-size="9.00">pick 0!**</text>
</g>
<!-- Fallback&#45;&gt;pick 0!** -->
<g id="edge6" class="edge">
<title>Fallback&#45;&gt;pick 0!**</title>
<path fill="none" stroke="black" d="M271.83,-144.05C278.46,-135.29 286.67,-124.45 293.94,-114.86"/>
<polygon fill="black" stroke="black" points="296.77,-116.91 300.01,-106.83 291.19,-112.69 296.77,-116.91"/>
</g>
<!-- Sequence* -->
<g id="node8" class="node">
<title>Sequence*</title>
<polygon fill="cyan" stroke="black" points="427.24,-82.54 427.24,-97.46 407.18,-108 378.82,-108 358.76,-97.46 358.76,-82.54 378.82,-72 407.18,-72 427.24,-82.54"/>
<text text-anchor="middle" x="393" y="-87.8" font-family="Times,serif" font-size="9.00">Sequence*</text>
</g>
<!-- Fallback&#45;&gt;Sequence* -->
<g id="edge7" class="edge">
<title>Fallback&#45;&gt;Sequence*</title>
<path fill="none" stroke="black" d="M280.53,-149.75C302.05,-138.51 335.41,-121.08 360.22,-108.12"/>
<polygon fill="black" stroke="black" points="362.02,-111.13 369.27,-103.4 358.78,-104.93 362.02,-111.13"/>
</g>
<!-- pick 0! -->
<g id="node3" class="node">
<title>pick 0!</title>
<ellipse fill="gray" stroke="black" cx="27" cy="-18" rx="27" ry="18"/>
<text text-anchor="middle" x="27" y="-15.8" font-family="Times,serif" font-size="9.00">pick 0!</text>
</g>
<!-- Sequence&#45;&gt;pick 0! -->
<g id="edge2" class="edge">
<title>Sequence&#45;&gt;pick 0!</title>
<path fill="none" stroke="black" d="M83.02,-73.46C73.06,-63.78 60.09,-51.17 49.15,-40.53"/>
<polygon fill="black" stroke="black" points="51.56,-38 41.95,-33.54 46.68,-43.02 51.56,-38"/>
</g>
<!-- 0 on 1? -->
<g id="node4" class="node">
<title>0 on 1?</title>
<ellipse fill="gray" stroke="black" cx="99" cy="-18" rx="27" ry="18"/>
<text text-anchor="middle" x="99" y="-15.8" font-family="Times,serif" font-size="9.00">0 on 1?</text>
</g>
<!-- Sequence&#45;&gt;0 on 1? -->
<g id="edge3" class="edge">
<title>Sequence&#45;&gt;0 on 1?</title>
<path fill="none" stroke="black" d="M99,-71.7C99,-63.98 99,-54.71 99,-46.11"/>
<polygon fill="black" stroke="black" points="102.5,-46.1 99,-36.1 95.5,-46.1 102.5,-46.1"/>
</g>
<!-- pick 0!* -->
<g id="node5" class="node">
<title>pick 0!*</title>
<ellipse fill="gray" stroke="black" cx="171" cy="-18" rx="27" ry="18"/>
<text text-anchor="middle" x="171" y="-15.8" font-family="Times,serif" font-size="9.00">pick 0!*</text>
</g>
<!-- Sequence&#45;&gt;pick 0!* -->
<g id="edge4" class="edge">
<title>Sequence&#45;&gt;pick 0!*</title>
<path fill="none" stroke="black" d="M114.98,-73.46C124.94,-63.78 137.91,-51.17 148.85,-40.53"/>
<polygon fill="black" stroke="black" points="151.32,-43.02 156.05,-33.54 146.44,-38 151.32,-43.02"/>
</g>
<!-- pick 1! -->
<g id="node9" class="node">
<title>pick 1!</title>
<ellipse fill="gray" stroke="black" cx="310" cy="-18" rx="27" ry="18"/>
<text text-anchor="middle" x="310" y="-15.8" font-family="Times,serif" font-size="9.00">pick 1!</text>
</g>
<!-- Sequence*&#45;&gt;pick 1! -->
<g id="edge8" class="edge">
<title>Sequence*&#45;&gt;pick 1!</title>
<path fill="none" stroke="black" d="M374.99,-73.81C362.91,-63.62 346.87,-50.09 333.74,-39.02"/>
<polygon fill="black" stroke="black" points="335.91,-36.27 326.01,-32.5 331.4,-41.63 335.91,-36.27"/>
</g>
<!-- apply force 2! -->
<g id="node10" class="node">
<title>apply force 2!</title>
<ellipse fill="gray" stroke="black" cx="393" cy="-18" rx="38.21" ry="18"/>
<text text-anchor="middle" x="393" y="-15.8" font-family="Times,serif" font-size="9.00">apply force 2!</text>
</g>
<!-- Sequence*&#45;&gt;apply force 2! -->
<g id="edge9" class="edge">
<title>Sequence*&#45;&gt;apply force 2!</title>
<path fill="none" stroke="black" d="M393,-71.7C393,-63.98 393,-54.71 393,-46.11"/>
<polygon fill="black" stroke="black" points="396.5,-46.1 393,-36.1 389.5,-46.1 396.5,-46.1"/>
</g>
<!-- pick 1!* -->
<g id="node11" class="node">
<title>pick 1!*</title>
<ellipse fill="gray" stroke="black" cx="476" cy="-18" rx="27" ry="18"/>
<text text-anchor="middle" x="476" y="-15.8" font-family="Times,serif" font-size="9.00">pick 1!*</text>
</g>
<!-- Sequence*&#45;&gt;pick 1!* -->
<g id="edge10" class="edge">
<title>Sequence*&#45;&gt;pick 1!*</title>
<path fill="none" stroke="black" d="M411.01,-73.81C423.09,-63.62 439.13,-50.09 452.26,-39.02"/>
<polygon fill="black" stroke="black" points="454.6,-41.63 459.99,-32.5 450.09,-36.27 454.6,-41.63"/>
</g>
</g>
</svg>
