<?xml version="1.0" encoding="UTF-8" standalone="no"?>
<!DOCTYPE svg PUBLIC "-//W3C//DTD SVG 1.1//EN"
 "http://www.w3.org/Graphics/SVG/1.1/DTD/svg11.dtd">
<!-- Generated by graphviz version 2.43.0 (0)
 -->
<!-- Title: pastafarianism Pages: 1 -->
<svg width="490pt" height="260pt"
 viewBox="0.00 0.00 490.00 260.00" xmlns="http://www.w3.org/2000/svg" xmlns:xlink="http://www.w3.org/1999/xlink">
<g id="graph0" class="graph" transform="scale(1 1) rotate(0) translate(4 256)">
<title>pastafarianism</title>
<polygon fill="white" stroke="transparent" points="-4,4 -4,-256 486,-256 486,4 -4,4"/>
<!-- Fallback -->
<g id="node1" class="node">
<title>Fallback</title>
<polygon fill="cyan" stroke="black" points="224.24,-226.54 224.24,-241.46 207.11,-252 182.89,-252 165.76,-241.46 165.76,-226.54 182.89,-216 207.11,-216 224.24,-226.54"/>
<text text-anchor="middle" x="195" y="-231.8" font-family="Times,serif" font-size="9.00">Fallback</text>
</g>
<!-- Sequence -->
<g id="node2" class="node">
<title>Sequence</title>
<polygon fill="cyan" stroke="black" points="67.49,-154.54 67.49,-169.46 49.05,-180 22.95,-180 4.51,-169.46 4.51,-154.54 22.95,-144 49.05,-144 67.49,-154.54"/>
<text text-anchor="middle" x="36" y="-159.8" font-family="Times,serif" font-size="9.00">Sequence</text>
</g>
<!-- Fallback&#45;&gt;Sequence -->
<g id="edge1" class="edge">
<title>Fallback&#45;&gt;Sequence</title>
<path fill="none" stroke="black" d="M171.54,-222.67C144.65,-210.83 100.35,-191.33 69.75,-177.86"/>
<polygon fill="black" stroke="black" points="70.9,-174.54 60.34,-173.72 68.08,-180.95 70.9,-174.54"/>
</g>
<!-- place at (0.0, 0.05, 0.0)! -->
<g id="node5" class="node">
<title>place at (0.0, 0.05, 0.0)!</title>
<ellipse fill="gray" stroke="black" cx="144" cy="-162" rx="58.13" ry="18"/>
<text text-anchor="middle" x="144" y="-159.8" font-family="Times,serif" font-size="9.00">place at (0.0, 0.05, 0.0)!</text>
</g>
<!-- Fallback&#45;&gt;place at (0.0, 0.05, 0.0)! -->
<g id="edge4" class="edge">
<title>Fallback&#45;&gt;place at (0.0, 0.05, 0.0)!</title>
<path fill="none" stroke="black" d="M182.65,-216.05C176.52,-207.63 168.98,-197.28 162.19,-187.97"/>
<polygon fill="black" stroke="black" points="164.95,-185.81 156.23,-179.79 159.29,-189.93 164.95,-185.81"/>
</g>
<!-- pick 0!* -->
<g id="node6" class="node">
<title>pick 0!*</title>
<ellipse fill="gray" stroke="black" cx="247" cy="-162" rx="27" ry="18"/>
<text text-anchor="middle" x="247" y="-159.8" font-family="Times,serif" font-size="9.00">pick 0!*</text>
</g>
<!-- Fallback&#45;&gt;pick 0!* -->
<g id="edge5" class="edge">
<title>Fallback&#45;&gt;pick 0!*</title>
<path fill="none" stroke="black" d="M207.59,-216.05C214.19,-207.17 222.38,-196.14 229.58,-186.45"/>
<polygon fill="black" stroke="black" points="232.44,-188.47 235.59,-178.36 226.82,-184.3 232.44,-188.47"/>
</g>
<!-- Sequence* -->
<g id="node7" class="node">
<title>Sequence*</title>
<polygon fill="cyan" stroke="black" points="360.24,-154.54 360.24,-169.46 340.18,-180 311.82,-180 291.76,-169.46 291.76,-154.54 311.82,-144 340.18,-144 360.24,-154.54"/>
<text text-anchor="middle" x="326" y="-159.8" font-family="Times,serif" font-size="9.00">Sequence*</text>
</g>
<!-- Fallback&#45;&gt;Sequence* -->
<g id="edge6" class="edge">
<title>Fallback&#45;&gt;Sequence*</title>
<path fill="none" stroke="black" d="M216.34,-221.6C237.33,-210.38 269.66,-193.11 293.78,-180.22"/>
<polygon fill="black" stroke="black" points="295.73,-183.14 302.9,-175.34 292.44,-176.97 295.73,-183.14"/>
</g>
<!-- pick 0! -->
<g id="node3" class="node">
<title>pick 0!</title>
<ellipse fill="gray" stroke="black" cx="27" cy="-90" rx="27" ry="18"/>
<text text-anchor="middle" x="27" y="-87.8" font-family="Times,serif" font-size="9.00">pick 0!</text>
</g>
<!-- Sequence&#45;&gt;pick 0! -->
<g id="edge2" class="edge">
<title>Sequence&#45;&gt;pick 0!</title>
<path fill="none" stroke="black" d="M33.78,-143.7C32.78,-135.98 31.59,-126.71 30.49,-118.11"/>
<polygon fill="black" stroke="black" points="33.95,-117.58 29.2,-108.1 27,-118.47 33.95,-117.58"/>
</g>
<!-- 0 on 1? -->
<g id="node4" class="node">
<title>0 on 1?</title>
<ellipse fill="gray" stroke="black" cx="99" cy="-90" rx="27" ry="18"/>
<text text-anchor="middle" x="99" y="-87.8" font-family="Times,serif" font-size="9.00">0 on 1?</text>
</g>
<!-- Sequence&#45;&gt;0 on 1? -->
<g id="edge3" class="edge">
<title>Sequence&#45;&gt;0 on 1?</title>
<path fill="none" stroke="black" d="M50.61,-144.76C59.07,-135.37 69.83,-123.41 79.06,-113.15"/>
<polygon fill="black" stroke="black" points="81.67,-115.49 85.75,-105.72 76.46,-110.81 81.67,-115.49"/>
</g>
<!-- Fallback* -->
<g id="node8" class="node">
<title>Fallback*</title>
<polygon fill="cyan" stroke="black" points="243.74,-82.54 243.74,-97.46 225.15,-108 198.85,-108 180.26,-97.46 180.26,-82.54 198.85,-72 225.15,-72 243.74,-82.54"/>
<text text-anchor="middle" x="212" y="-87.8" font-family="Times,serif" font-size="9.00">Fallback*</text>
</g>
<!-- Sequence*&#45;&gt;Fallback* -->
<g id="edge7" class="edge">
<title>Sequence*&#45;&gt;Fallback*</title>
<path fill="none" stroke="black" d="M304.29,-147.67C286.47,-136.73 261.08,-121.14 241.43,-109.07"/>
<polygon fill="black" stroke="black" points="243.21,-106.06 232.86,-103.81 239.55,-112.02 243.21,-106.06"/>
</g>
<!-- pick 1! -->
<g id="node11" class="node">
<title>pick 1!</title>
<ellipse fill="gray" stroke="black" cx="289" cy="-90" rx="27" ry="18"/>
<text text-anchor="middle" x="289" y="-87.8" font-family="Times,serif" font-size="9.00">pick 1!</text>
</g>
<!-- Sequence*&#45;&gt;pick 1! -->
<g id="edge10" class="edge">
<title>Sequence*&#45;&gt;pick 1!</title>
<path fill="none" stroke="black" d="M316.85,-143.7C312.47,-135.4 307.14,-125.31 302.31,-116.19"/>
<polygon fill="black" stroke="black" points="305.3,-114.35 297.53,-107.14 299.11,-117.62 305.3,-114.35"/>
</g>
<!-- apply force 2! -->
<g id="node12" class="node">
<title>apply force 2!</title>
<ellipse fill="gray" stroke="black" cx="372" cy="-90" rx="38.21" ry="18"/>
<text text-anchor="middle" x="372" y="-87.8" font-family="Times,serif" font-size="9.00">apply force 2!</text>
</g>
<!-- Sequence*&#45;&gt;apply force 2! -->
<g id="edge11" class="edge">
<title>Sequence*&#45;&gt;apply force 2!</title>
<path fill="none" stroke="black" d="M337.37,-143.7C342.85,-135.35 349.54,-125.18 355.56,-116.02"/>
<polygon fill="black" stroke="black" points="358.51,-117.9 361.08,-107.62 352.66,-114.06 358.51,-117.9"/>
</g>
<!-- pick 1!* -->
<g id="node13" class="node">
<title>pick 1!*</title>
<ellipse fill="gray" stroke="black" cx="455" cy="-90" rx="27" ry="18"/>
<text text-anchor="middle" x="455" y="-87.8" font-family="Times,serif" font-size="9.00">pick 1!*</text>
</g>
<!-- Sequence*&#45;&gt;pick 1!* -->
<g id="edge12" class="edge">
<title>Sequence*&#45;&gt;pick 1!*</title>
<path fill="none" stroke="black" d="M349.06,-148.49C370.46,-136.87 402.42,-119.53 425.64,-106.93"/>
<polygon fill="black" stroke="black" points="427.56,-109.87 434.68,-102.02 424.23,-103.72 427.56,-109.87"/>
</g>
<!-- 1 at pos (0.0, 0.05, 0.0192)? -->
<g id="node9" class="node">
<title>1 at pos (0.0, 0.05, 0.0192)?</title>
<ellipse fill="gray" stroke="black" cx="138" cy="-18" rx="67.6" ry="18"/>
<text text-anchor="middle" x="138" y="-15.8" font-family="Times,serif" font-size="9.00">1 at pos (0.0, 0.05, 0.0192)?</text>
</g>
<!-- Fallback*&#45;&gt;1 at pos (0.0, 0.05, 0.0192)? -->
<g id="edge8" class="edge">
<title>Fallback*&#45;&gt;1 at pos (0.0, 0.05, 0.0192)?</title>
<path fill="none" stroke="black" d="M195.58,-73.46C185.98,-64.39 173.68,-52.75 162.92,-42.57"/>
<polygon fill="black" stroke="black" points="165.08,-39.8 155.41,-35.47 160.27,-44.88 165.08,-39.8"/>
</g>
<!-- place at (0.0, 0.05, 0.0)!* -->
<g id="node10" class="node">
<title>place at (0.0, 0.05, 0.0)!*</title>
<ellipse fill="gray" stroke="black" cx="285" cy="-18" rx="61.4" ry="18"/>
<text text-anchor="middle" x="285" y="-15.8" font-family="Times,serif" font-size="9.00">place at (0.0, 0.05, 0.0)!*</text>
</g>
<!-- Fallback*&#45;&gt;place at (0.0, 0.05, 0.0)!* -->
<g id="edge9" class="edge">
<title>Fallback*&#45;&gt;place at (0.0, 0.05, 0.0)!*</title>
<path fill="none" stroke="black" d="M228.2,-73.46C237.67,-64.39 249.8,-52.75 260.42,-42.57"/>
<polygon fill="black" stroke="black" points="263.03,-44.91 267.83,-35.47 258.19,-39.86 263.03,-44.91"/>
</g>
</g>
</svg>
