<?xml version="1.0" encoding="UTF-8" standalone="no"?>
<!DOCTYPE svg PUBLIC "-//W3C//DTD SVG 1.1//EN"
 "http://www.w3.org/Graphics/SVG/1.1/DTD/svg11.dtd">
<!-- Generated by graphviz version 2.43.0 (0)
 -->
<!-- Title: pastafarianism Pages: 1 -->
<svg width="536pt" height="188pt"
 viewBox="0.00 0.00 536.20 188.00" xmlns="http://www.w3.org/2000/svg" xmlns:xlink="http://www.w3.org/1999/xlink">
<g id="graph0" class="graph" transform="scale(1 1) rotate(0) translate(4 184)">
<title>pastafarianism</title>
<polygon fill="white" stroke="transparent" points="-4,4 -4,-184 532.2,-184 532.2,4 -4,4"/>
<!-- Fallback -->
<g id="node1" class="node">
<title>Fallback</title>
<polygon fill="cyan" stroke="black" points="303.24,-154.54 303.24,-169.46 286.11,-180 261.89,-180 244.76,-169.46 244.76,-154.54 261.89,-144 286.11,-144 303.24,-154.54"/>
<text text-anchor="middle" x="274" y="-159.8" font-family="Times,serif" font-size="9.00">Fallback</text>
</g>
<!-- Sequence -->
<g id="node2" class="node">
<title>Sequence</title>
<polygon fill="cyan" stroke="black" points="94.49,-82.54 94.49,-97.46 76.05,-108 49.95,-108 31.51,-97.46 31.51,-82.54 49.95,-72 76.05,-72 94.49,-82.54"/>
<text text-anchor="middle" x="63" y="-87.8" font-family="Times,serif" font-size="9.00">Sequence</text>
</g>
<!-- Fallback&#45;&gt;Sequence -->
<g id="edge1" class="edge">
<title>Fallback&#45;&gt;Sequence</title>
<path fill="none" stroke="black" d="M246.66,-153.31C212.86,-143.61 153.7,-126.01 104,-108 101.74,-107.18 99.42,-106.31 97.09,-105.41"/>
<polygon fill="black" stroke="black" points="98.16,-102.07 87.57,-101.61 95.57,-108.57 98.16,-102.07"/>
</g>
<!-- place at (0.0, 0.05, 0.0)! -->
<g id="node5" class="node">
<title>place at (0.0, 0.05, 0.0)!</title>
<ellipse fill="gray" stroke="black" cx="171" cy="-90" rx="58.13" ry="18"/>
<text text-anchor="middle" x="171" y="-87.8" font-family="Times,serif" font-size="9.00">place at (0.0, 0.05, 0.0)!</text>
</g>
<!-- Fallback&#45;&gt;place at (0.0, 0.05, 0.0)! -->
<g id="edge4" class="edge">
<title>Fallback&#45;&gt;place at (0.0, 0.05, 0.0)!</title>
<path fill="none" stroke="black" d="M255.11,-148.16C240.47,-138.21 219.86,-124.21 202.7,-112.55"/>
<polygon fill="black" stroke="black" points="204.34,-109.42 194.1,-106.7 200.4,-115.21 204.34,-109.42"/>
</g>
<!-- pick 0!* -->
<g id="node6" class="node">
<title>pick 0!*</title>
<ellipse fill="gray" stroke="black" cx="274" cy="-90" rx="27" ry="18"/>
<text text-anchor="middle" x="274" y="-87.8" font-family="Times,serif" font-size="9.00">pick 0!*</text>
</g>
<!-- Fallback&#45;&gt;pick 0!* -->
<g id="edge5" class="edge">
<title>Fallback&#45;&gt;pick 0!*</title>
<path fill="none" stroke="black" d="M274,-143.7C274,-135.98 274,-126.71 274,-118.11"/>
<polygon fill="black" stroke="black" points="277.5,-118.1 274,-108.1 270.5,-118.1 277.5,-118.1"/>
</g>
<!-- Sequence* -->
<g id="node7" class="node">
<title>Sequence*</title>
<polygon fill="cyan" stroke="black" points="387.24,-82.54 387.24,-97.46 367.18,-108 338.82,-108 318.76,-97.46 318.76,-82.54 338.82,-72 367.18,-72 387.24,-82.54"/>
<text text-anchor="middle" x="353" y="-87.8" font-family="Times,serif" font-size="9.00">Sequence*</text>
</g>
<!-- Fallback&#45;&gt;Sequence* -->
<g id="edge6" class="edge">
<title>Fallback&#45;&gt;Sequence*</title>
<path fill="none" stroke="black" d="M290.37,-146.5C301.19,-136.9 315.6,-124.14 327.86,-113.27"/>
<polygon fill="black" stroke="black" points="330.39,-115.71 335.56,-106.46 325.75,-110.47 330.39,-115.71"/>
</g>
<!-- place at (0.0, 0.05, 0.0)!* -->
<g id="node11" class="node">
<title>place at (0.0, 0.05, 0.0)!*</title>
<ellipse fill="gray" stroke="black" cx="467" cy="-90" rx="61.4" ry="18"/>
<text text-anchor="middle" x="467" y="-87.8" font-family="Times,serif" font-size="9.00">place at (0.0, 0.05, 0.0)!*</text>
</g>
<!-- Fallback&#45;&gt;place at (0.0, 0.05, 0.0)!* -->
<g id="edge10" class="edge">
<title>Fallback&#45;&gt;place at (0.0, 0.05, 0.0)!*</title>
<path fill="none" stroke="black" d="M299.23,-151.85C329.81,-140.76 381.96,-121.84 420.01,-108.04"/>
<polygon fill="black" stroke="black" points="421.64,-111.17 429.85,-104.47 419.26,-104.59 421.64,-111.17"/>
</g>
<!-- pick 0! -->
<g id="node3" class="node">
<title>pick 0!</title>
<ellipse fill="gray" stroke="black" cx="27" cy="-18" rx="27" ry="18"/>
<text text-anchor="middle" x="27" y="-15.8" font-family="Times,serif" font-size="9.00">pick 0!</text>
</g>
<!-- Sequence&#45;&gt;pick 0! -->
<g id="edge2" class="edge">
<title>Sequence&#45;&gt;pick 0!</title>
<path fill="none" stroke="black" d="M54.1,-71.7C49.84,-63.4 44.65,-53.31 39.95,-44.19"/>
<polygon fill="black" stroke="black" points="42.99,-42.44 35.3,-35.14 36.76,-45.64 42.99,-42.44"/>
</g>
<!-- 0 on 1? -->
<g id="node4" class="node">
<title>0 on 1?</title>
<ellipse fill="gray" stroke="black" cx="99" cy="-18" rx="27" ry="18"/>
<text text-anchor="middle" x="99" y="-15.8" font-family="Times,serif" font-size="9.00">0 on 1?</text>
</g>
<!-- Sequence&#45;&gt;0 on 1? -->
<g id="edge3" class="edge">
<title>Sequence&#45;&gt;0 on 1?</title>
<path fill="none" stroke="black" d="M71.9,-71.7C76.16,-63.4 81.35,-53.31 86.05,-44.19"/>
<polygon fill="black" stroke="black" points="89.24,-45.64 90.7,-35.14 83.01,-42.44 89.24,-45.64"/>
</g>
<!-- pick 1! -->
<g id="node8" class="node">
<title>pick 1!</title>
<ellipse fill="gray" stroke="black" cx="270" cy="-18" rx="27" ry="18"/>
<text text-anchor="middle" x="270" y="-15.8" font-family="Times,serif" font-size="9.00">pick 1!</text>
</g>
<!-- Sequence*&#45;&gt;pick 1! -->
<g id="edge7" class="edge">
<title>Sequence*&#45;&gt;pick 1!</title>
<path fill="none" stroke="black" d="M334.99,-73.81C322.91,-63.62 306.87,-50.09 293.74,-39.02"/>
<polygon fill="black" stroke="black" points="295.91,-36.27 286.01,-32.5 291.4,-41.63 295.91,-36.27"/>
</g>
<!-- apply force 2! -->
<g id="node9" class="node">
<title>apply force 2!</title>
<ellipse fill="gray" stroke="black" cx="353" cy="-18" rx="38.21" ry="18"/>
<text text-anchor="middle" x="353" y="-15.8" font-family="Times,serif" font-size="9.00">apply force 2!</text>
</g>
<!-- Sequence*&#45;&gt;apply force 2! -->
<g id="edge8" class="edge">
<title>Sequence*&#45;&gt;apply force 2!</title>
<path fill="none" stroke="black" d="M353,-71.7C353,-63.98 353,-54.71 353,-46.11"/>
<polygon fill="black" stroke="black" points="356.5,-46.1 353,-36.1 349.5,-46.1 356.5,-46.1"/>
</g>
<!-- pick 1!* -->
<g id="node10" class="node">
<title>pick 1!*</title>
<ellipse fill="gray" stroke="black" cx="436" cy="-18" rx="27" ry="18"/>
<text text-anchor="middle" x="436" y="-15.8" font-family="Times,serif" font-size="9.00">pick 1!*</text>
</g>
<!-- Sequence*&#45;&gt;pick 1!* -->
<g id="edge9" class="edge">
<title>Sequence*&#45;&gt;pick 1!*</title>
<path fill="none" stroke="black" d="M371.01,-73.81C383.09,-63.62 399.13,-50.09 412.26,-39.02"/>
<polygon fill="black" stroke="black" points="414.6,-41.63 419.99,-32.5 410.09,-36.27 414.6,-41.63"/>
</g>
</g>
</svg>
