<?xml version="1.0" encoding="UTF-8" standalone="no"?>
<!DOCTYPE svg PUBLIC "-//W3C//DTD SVG 1.1//EN"
 "http://www.w3.org/Graphics/SVG/1.1/DTD/svg11.dtd">
<!-- Generated by graphviz version 2.43.0 (0)
 -->
<!-- Title: pastafarianism Pages: 1 -->
<svg width="1250pt" height="476pt"
 viewBox="0.00 0.00 1250.04 476.00" xmlns="http://www.w3.org/2000/svg" xmlns:xlink="http://www.w3.org/1999/xlink">
<g id="graph0" class="graph" transform="scale(1 1) rotate(0) translate(4 472)">
<title>pastafarianism</title>
<polygon fill="white" stroke="transparent" points="-4,4 -4,-472 1246.04,-472 1246.04,4 -4,4"/>
<!-- Sequence -->
<g id="node1" class="node">
<title>Sequence</title>
<polygon fill="cyan" stroke="black" points="528.54,-442.54 528.54,-457.46 510.09,-468 484,-468 465.55,-457.46 465.55,-442.54 484,-432 510.09,-432 528.54,-442.54"/>
<text text-anchor="middle" x="497.04" y="-447.8" font-family="Times,serif" font-size="9.00">Sequence</text>
</g>
<!-- Fallback -->
<g id="node2" class="node">
<title>Fallback</title>
<polygon fill="cyan" stroke="black" points="244.29,-370.54 244.29,-385.46 227.16,-396 202.93,-396 185.8,-385.46 185.8,-370.54 202.93,-360 227.16,-360 244.29,-370.54"/>
<text text-anchor="middle" x="215.04" y="-375.8" font-family="Times,serif" font-size="9.00">Fallback</text>
</g>
<!-- Sequence&#45;&gt;Fallback -->
<g id="edge1" class="edge">
<title>Sequence&#45;&gt;Fallback</title>
<path fill="none" stroke="black" d="M467.13,-441.58C415.62,-428.79 310.25,-402.63 253.41,-388.52"/>
<polygon fill="black" stroke="black" points="253.94,-385.05 243.39,-386.04 252.25,-391.84 253.94,-385.05"/>
</g>
<!-- Fallback** -->
<g id="node10" class="node">
<title>Fallback**</title>
<polygon fill="cyan" stroke="black" points="532.04,-370.54 532.04,-385.46 511.54,-396 482.55,-396 462.05,-385.46 462.05,-370.54 482.55,-360 511.54,-360 532.04,-370.54"/>
<text text-anchor="middle" x="497.04" y="-375.8" font-family="Times,serif" font-size="9.00">Fallback**</text>
</g>
<!-- Sequence&#45;&gt;Fallback** -->
<g id="edge9" class="edge">
<title>Sequence&#45;&gt;Fallback**</title>
<path fill="none" stroke="black" d="M497.04,-431.7C497.04,-423.98 497.04,-414.71 497.04,-406.11"/>
<polygon fill="black" stroke="black" points="500.54,-406.1 497.04,-396.1 493.54,-406.1 500.54,-406.1"/>
</g>
<!-- Fallback***** -->
<g id="node26" class="node">
<title>Fallback*****</title>
<polygon fill="cyan" stroke="black" points="779.28,-370.54 779.28,-385.46 753.95,-396 718.13,-396 692.81,-385.46 692.81,-370.54 718.13,-360 753.95,-360 779.28,-370.54"/>
<text text-anchor="middle" x="736.04" y="-375.8" font-family="Times,serif" font-size="9.00">Fallback*****</text>
</g>
<!-- Sequence&#45;&gt;Fallback***** -->
<g id="edge25" class="edge">
<title>Sequence&#45;&gt;Fallback*****</title>
<path fill="none" stroke="black" d="M525.4,-440.7C566.58,-428.63 643.32,-406.16 691.93,-391.92"/>
<polygon fill="black" stroke="black" points="692.94,-395.27 701.55,-389.1 690.97,-388.55 692.94,-395.27"/>
</g>
<!-- 0 at pos (0.0, 0.05, 0.0)? -->
<g id="node3" class="node">
<title>0 at pos (0.0, 0.05, 0.0)?</title>
<ellipse fill="gray" stroke="black" cx="60.04" cy="-306" rx="60.09" ry="18"/>
<text text-anchor="middle" x="60.04" y="-303.8" font-family="Times,serif" font-size="9.00">0 at pos (0.0, 0.05, 0.0)?</text>
</g>
<!-- Fallback&#45;&gt;0 at pos (0.0, 0.05, 0.0)? -->
<g id="edge2" class="edge">
<title>Fallback&#45;&gt;0 at pos (0.0, 0.05, 0.0)?</title>
<path fill="none" stroke="black" d="M191.84,-366.52C167.94,-355.73 130.19,-338.68 101.21,-325.59"/>
<polygon fill="black" stroke="black" points="102.3,-322.24 91.75,-321.32 99.42,-328.62 102.3,-322.24"/>
</g>
<!-- Sequence* -->
<g id="node4" class="node">
<title>Sequence*</title>
<polygon fill="cyan" stroke="black" points="206.29,-298.54 206.29,-313.46 186.23,-324 157.86,-324 137.8,-313.46 137.8,-298.54 157.86,-288 186.23,-288 206.29,-298.54"/>
<text text-anchor="middle" x="172.04" y="-303.8" font-family="Times,serif" font-size="9.00">Sequence*</text>
</g>
<!-- Fallback&#45;&gt;Sequence* -->
<g id="edge3" class="edge">
<title>Fallback&#45;&gt;Sequence*</title>
<path fill="none" stroke="black" d="M204.42,-359.7C199.42,-351.56 193.35,-341.69 187.83,-332.7"/>
<polygon fill="black" stroke="black" points="190.77,-330.79 182.55,-324.1 184.8,-334.46 190.77,-330.79"/>
</g>
<!-- place on 0! -->
<g id="node9" class="node">
<title>place on 0!</title>
<ellipse fill="gray" stroke="black" cx="257.04" cy="-306" rx="32.16" ry="18"/>
<text text-anchor="middle" x="257.04" y="-303.8" font-family="Times,serif" font-size="9.00">place on 0!</text>
</g>
<!-- Fallback&#45;&gt;place on 0! -->
<g id="edge8" class="edge">
<title>Fallback&#45;&gt;place on 0!</title>
<path fill="none" stroke="black" d="M225.43,-359.7C230.38,-351.44 236.41,-341.39 241.86,-332.3"/>
<polygon fill="black" stroke="black" points="244.93,-334 247.07,-323.62 238.92,-330.4 244.93,-334"/>
</g>
<!-- Fallback* -->
<g id="node5" class="node">
<title>Fallback*</title>
<polygon fill="cyan" stroke="black" points="128.79,-226.54 128.79,-241.46 110.19,-252 83.9,-252 65.3,-241.46 65.3,-226.54 83.9,-216 110.19,-216 128.79,-226.54"/>
<text text-anchor="middle" x="97.04" y="-231.8" font-family="Times,serif" font-size="9.00">Fallback*</text>
</g>
<!-- Sequence*&#45;&gt;Fallback* -->
<g id="edge4" class="edge">
<title>Sequence*&#45;&gt;Fallback*</title>
<path fill="none" stroke="black" d="M155.03,-289.12C144.91,-279.68 131.93,-267.56 120.82,-257.19"/>
<polygon fill="black" stroke="black" points="123.18,-254.6 113.48,-250.34 118.4,-259.72 123.18,-254.6"/>
</g>
<!-- place at (0.0, 0.05, 0.0)! -->
<g id="node8" class="node">
<title>place at (0.0, 0.05, 0.0)!</title>
<ellipse fill="gray" stroke="black" cx="205.04" cy="-234" rx="58.13" ry="18"/>
<text text-anchor="middle" x="205.04" y="-231.8" font-family="Times,serif" font-size="9.00">place at (0.0, 0.05, 0.0)!</text>
</g>
<!-- Sequence*&#45;&gt;place at (0.0, 0.05, 0.0)! -->
<g id="edge7" class="edge">
<title>Sequence*&#45;&gt;place at (0.0, 0.05, 0.0)!</title>
<path fill="none" stroke="black" d="M180.2,-287.7C183.96,-279.73 188.5,-270.1 192.66,-261.26"/>
<polygon fill="black" stroke="black" points="195.88,-262.64 196.98,-252.1 189.55,-259.66 195.88,-262.64"/>
</g>
<!-- picked 0? -->
<g id="node6" class="node">
<title>picked 0?</title>
<ellipse fill="gray" stroke="black" cx="60.04" cy="-162" rx="28.74" ry="18"/>
<text text-anchor="middle" x="60.04" y="-159.8" font-family="Times,serif" font-size="9.00">picked 0?</text>
</g>
<!-- Fallback*&#45;&gt;picked 0? -->
<g id="edge5" class="edge">
<title>Fallback*&#45;&gt;picked 0?</title>
<path fill="none" stroke="black" d="M87.9,-215.7C83.58,-207.52 78.33,-197.6 73.57,-188.58"/>
<polygon fill="black" stroke="black" points="76.6,-186.83 68.83,-179.62 70.41,-190.1 76.6,-186.83"/>
</g>
<!-- pick 0! -->
<g id="node7" class="node">
<title>pick 0!</title>
<ellipse fill="gray" stroke="black" cx="134.04" cy="-162" rx="27" ry="18"/>
<text text-anchor="middle" x="134.04" y="-159.8" font-family="Times,serif" font-size="9.00">pick 0!</text>
</g>
<!-- Fallback*&#45;&gt;pick 0! -->
<g id="edge6" class="edge">
<title>Fallback*&#45;&gt;pick 0!</title>
<path fill="none" stroke="black" d="M106.19,-215.7C110.57,-207.4 115.91,-197.31 120.73,-188.19"/>
<polygon fill="black" stroke="black" points="123.93,-189.62 125.51,-179.14 117.74,-186.35 123.93,-189.62"/>
</g>
<!-- 1 at pos (0.0, 0.05, 0.0192)? -->
<g id="node11" class="node">
<title>1 at pos (0.0, 0.05, 0.0192)?</title>
<ellipse fill="gray" stroke="black" cx="375.04" cy="-306" rx="67.6" ry="18"/>
<text text-anchor="middle" x="375.04" y="-303.8" font-family="Times,serif" font-size="9.00">1 at pos (0.0, 0.05, 0.0192)?</text>
</g>
<!-- Fallback**&#45;&gt;1 at pos (0.0, 0.05, 0.0192)? -->
<g id="edge10" class="edge">
<title>Fallback**&#45;&gt;1 at pos (0.0, 0.05, 0.0192)?</title>
<path fill="none" stroke="black" d="M474.38,-364C456.62,-353.8 431.55,-339.42 411.04,-327.65"/>
<polygon fill="black" stroke="black" points="412.69,-324.57 402.28,-322.62 409.21,-330.64 412.69,-324.57"/>
</g>
<!-- Sequence** -->
<g id="node12" class="node">
<title>Sequence**</title>
<polygon fill="cyan" stroke="black" points="533.79,-298.54 533.79,-313.46 512.26,-324 481.83,-324 460.3,-313.46 460.3,-298.54 481.83,-288 512.26,-288 533.79,-298.54"/>
<text text-anchor="middle" x="497.04" y="-303.8" font-family="Times,serif" font-size="9.00">Sequence**</text>
</g>
<!-- Fallback**&#45;&gt;Sequence** -->
<g id="edge11" class="edge">
<title>Fallback**&#45;&gt;Sequence**</title>
<path fill="none" stroke="black" d="M497.04,-359.7C497.04,-351.98 497.04,-342.71 497.04,-334.11"/>
<polygon fill="black" stroke="black" points="500.54,-334.1 497.04,-324.1 493.54,-334.1 500.54,-334.1"/>
</g>
<!-- Sequence*** -->
<g id="node16" class="node">
<title>Sequence***</title>
<polygon fill="cyan" stroke="black" points="632.03,-298.54 632.03,-313.46 608.61,-324 575.48,-324 552.05,-313.46 552.05,-298.54 575.48,-288 608.61,-288 632.03,-298.54"/>
<text text-anchor="middle" x="592.04" y="-303.8" font-family="Times,serif" font-size="9.00">Sequence***</text>
</g>
<!-- Fallback**&#45;&gt;Sequence*** -->
<g id="edge15" class="edge">
<title>Fallback**&#45;&gt;Sequence***</title>
<path fill="none" stroke="black" d="M516.73,-362.5C530.09,-352.65 547.97,-339.47 562.96,-328.43"/>
<polygon fill="black" stroke="black" points="565.43,-330.96 571.4,-322.21 561.27,-325.33 565.43,-330.96"/>
</g>
<!-- 1 on 2? -->
<g id="node13" class="node">
<title>1 on 2?</title>
<ellipse fill="gray" stroke="black" cx="345.04" cy="-234" rx="27" ry="18"/>
<text text-anchor="middle" x="345.04" y="-231.8" font-family="Times,serif" font-size="9.00">1 on 2?</text>
</g>
<!-- Sequence**&#45;&gt;1 on 2? -->
<g id="edge12" class="edge">
<title>Sequence**&#45;&gt;1 on 2?</title>
<path fill="none" stroke="black" d="M470.74,-293.1C447.2,-282.42 411.77,-266.27 381.04,-252 379.26,-251.17 377.42,-250.31 375.57,-249.45"/>
<polygon fill="black" stroke="black" points="376.88,-246.2 366.34,-245.11 373.91,-252.53 376.88,-246.2"/>
</g>
<!-- place on 0!* -->
<g id="node14" class="node">
<title>place on 0!*</title>
<ellipse fill="gray" stroke="black" cx="425.04" cy="-234" rx="34.78" ry="18"/>
<text text-anchor="middle" x="425.04" y="-231.8" font-family="Times,serif" font-size="9.00">place on 0!*</text>
</g>
<!-- Sequence**&#45;&gt;place on 0!* -->
<g id="edge13" class="edge">
<title>Sequence**&#45;&gt;place on 0!*</title>
<path fill="none" stroke="black" d="M479.98,-288.41C470.48,-279.17 458.51,-267.54 448.18,-257.49"/>
<polygon fill="black" stroke="black" points="450.61,-254.97 441,-250.51 445.73,-259.99 450.61,-254.97"/>
</g>
<!-- pick 2! -->
<g id="node15" class="node">
<title>pick 2!</title>
<ellipse fill="gray" stroke="black" cx="505.04" cy="-234" rx="27" ry="18"/>
<text text-anchor="middle" x="505.04" y="-231.8" font-family="Times,serif" font-size="9.00">pick 2!</text>
</g>
<!-- Sequence**&#45;&gt;pick 2! -->
<g id="edge14" class="edge">
<title>Sequence**&#45;&gt;pick 2!</title>
<path fill="none" stroke="black" d="M499.02,-287.7C499.9,-279.98 500.96,-270.71 501.95,-262.11"/>
<polygon fill="black" stroke="black" points="505.43,-262.44 503.09,-252.1 498.48,-261.64 505.43,-262.44"/>
</g>
<!-- Fallback*** -->
<g id="node17" class="node">
<title>Fallback***</title>
<polygon fill="cyan" stroke="black" points="624.53,-226.54 624.53,-241.46 602.57,-252 571.52,-252 549.55,-241.46 549.55,-226.54 571.52,-216 602.57,-216 624.53,-226.54"/>
<text text-anchor="middle" x="587.04" y="-231.8" font-family="Times,serif" font-size="9.00">Fallback***</text>
</g>
<!-- Sequence***&#45;&gt;Fallback*** -->
<g id="edge16" class="edge">
<title>Sequence***&#45;&gt;Fallback***</title>
<path fill="none" stroke="black" d="M590.81,-287.7C590.26,-279.98 589.6,-270.71 588.98,-262.11"/>
<polygon fill="black" stroke="black" points="592.47,-261.83 588.27,-252.1 585.49,-262.33 592.47,-261.83"/>
</g>
<!-- apply force 1! -->
<g id="node25" class="node">
<title>apply force 1!</title>
<ellipse fill="gray" stroke="black" cx="681.04" cy="-234" rx="38.21" ry="18"/>
<text text-anchor="middle" x="681.04" y="-231.8" font-family="Times,serif" font-size="9.00">apply force 1!</text>
</g>
<!-- Sequence***&#45;&gt;apply force 1! -->
<g id="edge24" class="edge">
<title>Sequence***&#45;&gt;apply force 1!</title>
<path fill="none" stroke="black" d="M612.24,-289.12C624.64,-279.36 640.68,-266.75 654.15,-256.16"/>
<polygon fill="black" stroke="black" points="656.45,-258.8 662.15,-249.86 652.12,-253.3 656.45,-258.8"/>
</g>
<!-- 1 on 0? -->
<g id="node18" class="node">
<title>1 on 0?</title>
<ellipse fill="gray" stroke="black" cx="500.04" cy="-162" rx="27" ry="18"/>
<text text-anchor="middle" x="500.04" y="-159.8" font-family="Times,serif" font-size="9.00">1 on 0?</text>
</g>
<!-- Fallback***&#45;&gt;1 on 0? -->
<g id="edge17" class="edge">
<title>Fallback***&#45;&gt;1 on 0?</title>
<path fill="none" stroke="black" d="M567.74,-217.46C555.05,-207.26 538.34,-193.81 524.7,-182.84"/>
<polygon fill="black" stroke="black" points="526.65,-179.91 516.66,-176.37 522.26,-185.37 526.65,-179.91"/>
</g>
<!-- Sequence**** -->
<g id="node19" class="node">
<title>Sequence****</title>
<polygon fill="cyan" stroke="black" points="629.53,-154.54 629.53,-169.46 604.64,-180 569.44,-180 544.56,-169.46 544.56,-154.54 569.44,-144 604.64,-144 629.53,-154.54"/>
<text text-anchor="middle" x="587.04" y="-159.8" font-family="Times,serif" font-size="9.00">Sequence****</text>
</g>
<!-- Fallback***&#45;&gt;Sequence**** -->
<g id="edge18" class="edge">
<title>Fallback***&#45;&gt;Sequence****</title>
<path fill="none" stroke="black" d="M587.04,-215.7C587.04,-207.98 587.04,-198.71 587.04,-190.11"/>
<polygon fill="black" stroke="black" points="590.54,-190.1 587.04,-180.1 583.54,-190.1 590.54,-190.1"/>
</g>
<!-- Fallback**** -->
<g id="node20" class="node">
<title>Fallback****</title>
<polygon fill="cyan" stroke="black" points="550.78,-82.54 550.78,-97.46 526.92,-108 493.17,-108 469.3,-97.46 469.3,-82.54 493.17,-72 526.92,-72 550.78,-82.54"/>
<text text-anchor="middle" x="510.04" y="-87.8" font-family="Times,serif" font-size="9.00">Fallback****</text>
</g>
<!-- Sequence****&#45;&gt;Fallback**** -->
<g id="edge19" class="edge">
<title>Sequence****&#45;&gt;Fallback****</title>
<path fill="none" stroke="black" d="M568.4,-144.05C558.59,-135.13 546.41,-124.06 535.71,-114.34"/>
<polygon fill="black" stroke="black" points="538,-111.68 528.25,-107.55 533.29,-116.86 538,-111.68"/>
</g>
<!-- place on 0!** -->
<g id="node24" class="node">
<title>place on 0!**</title>
<ellipse fill="gray" stroke="black" cx="606.04" cy="-90" rx="37.56" ry="18"/>
<text text-anchor="middle" x="606.04" y="-87.8" font-family="Times,serif" font-size="9.00">place on 0!**</text>
</g>
<!-- Sequence****&#45;&gt;place on 0!** -->
<g id="edge23" class="edge">
<title>Sequence****&#45;&gt;place on 0!**</title>
<path fill="none" stroke="black" d="M591.74,-143.7C593.86,-135.9 596.41,-126.51 598.76,-117.83"/>
<polygon fill="black" stroke="black" points="602.16,-118.67 601.4,-108.1 595.4,-116.84 602.16,-118.67"/>
</g>
<!-- picked 1? -->
<g id="node21" class="node">
<title>picked 1?</title>
<ellipse fill="gray" stroke="black" cx="431.04" cy="-18" rx="28.74" ry="18"/>
<text text-anchor="middle" x="431.04" y="-15.8" font-family="Times,serif" font-size="9.00">picked 1?</text>
</g>
<!-- Fallback****&#45;&gt;picked 1? -->
<g id="edge20" class="edge">
<title>Fallback****&#45;&gt;picked 1?</title>
<path fill="none" stroke="black" d="M491.32,-72.41C480.35,-62.69 466.38,-50.31 454.66,-39.93"/>
<polygon fill="black" stroke="black" points="456.77,-37.12 446.97,-33.11 452.13,-42.36 456.77,-37.12"/>
</g>
<!-- picked 0?* -->
<g id="node22" class="node">
<title>picked 0?*</title>
<ellipse fill="gray" stroke="black" cx="510.04" cy="-18" rx="31.51" ry="18"/>
<text text-anchor="middle" x="510.04" y="-15.8" font-family="Times,serif" font-size="9.00">picked 0?*</text>
</g>
<!-- Fallback****&#45;&gt;picked 0?* -->
<g id="edge21" class="edge">
<title>Fallback****&#45;&gt;picked 0?*</title>
<path fill="none" stroke="black" d="M510.04,-71.7C510.04,-63.98 510.04,-54.71 510.04,-46.11"/>
<polygon fill="black" stroke="black" points="513.54,-46.1 510.04,-36.1 506.54,-46.1 513.54,-46.1"/>
</g>
<!-- pick 1! -->
<g id="node23" class="node">
<title>pick 1!</title>
<ellipse fill="gray" stroke="black" cx="587.04" cy="-18" rx="27" ry="18"/>
<text text-anchor="middle" x="587.04" y="-15.8" font-family="Times,serif" font-size="9.00">pick 1!</text>
</g>
<!-- Fallback****&#45;&gt;pick 1! -->
<g id="edge22" class="edge">
<title>Fallback****&#45;&gt;pick 1!</title>
<path fill="none" stroke="black" d="M528.29,-72.41C539.06,-62.62 552.78,-50.15 564.26,-39.72"/>
<polygon fill="black" stroke="black" points="566.73,-42.19 571.78,-32.88 562.02,-37.02 566.73,-42.19"/>
</g>
<!-- 2 at pos (0.0, 0.05, 0.0384)? -->
<g id="node27" class="node">
<title>2 at pos (0.0, 0.05, 0.0384)?</title>
<ellipse fill="gray" stroke="black" cx="736.04" cy="-306" rx="67.6" ry="18"/>
<text text-anchor="middle" x="736.04" y="-303.8" font-family="Times,serif" font-size="9.00">2 at pos (0.0, 0.05, 0.0384)?</text>
</g>
<!-- Fallback*****&#45;&gt;2 at pos (0.0, 0.05, 0.0384)? -->
<g id="edge26" class="edge">
<title>Fallback*****&#45;&gt;2 at pos (0.0, 0.05, 0.0384)?</title>
<path fill="none" stroke="black" d="M736.04,-359.7C736.04,-351.98 736.04,-342.71 736.04,-334.11"/>
<polygon fill="black" stroke="black" points="739.54,-334.1 736.04,-324.1 732.54,-334.1 739.54,-334.1"/>
</g>
<!-- Sequence***** -->
<g id="node28" class="node">
<title>Sequence*****</title>
<polygon fill="cyan" stroke="black" points="921.78,-298.54 921.78,-313.46 894.99,-324 857.1,-324 830.31,-313.46 830.31,-298.54 857.1,-288 894.99,-288 921.78,-298.54"/>
<text text-anchor="middle" x="876.04" y="-303.8" font-family="Times,serif" font-size="9.00">Sequence*****</text>
</g>
<!-- Fallback*****&#45;&gt;Sequence***** -->
<g id="edge27" class="edge">
<title>Fallback*****&#45;&gt;Sequence*****</title>
<path fill="none" stroke="black" d="M763.04,-363.5C784.78,-352.63 815.57,-337.24 839.52,-325.26"/>
<polygon fill="black" stroke="black" points="841.28,-328.3 848.66,-320.69 838.15,-322.04 841.28,-328.3"/>
</g>
<!-- Fallback****** -->
<g id="node29" class="node">
<title>Fallback******</title>
<polygon fill="cyan" stroke="black" points="892.53,-226.54 892.53,-241.46 865.3,-252 826.79,-252 799.56,-241.46 799.56,-226.54 826.79,-216 865.3,-216 892.53,-226.54"/>
<text text-anchor="middle" x="846.04" y="-231.8" font-family="Times,serif" font-size="9.00">Fallback******</text>
</g>
<!-- Sequence*****&#45;&gt;Fallback****** -->
<g id="edge28" class="edge">
<title>Sequence*****&#45;&gt;Fallback******</title>
<path fill="none" stroke="black" d="M868.63,-287.7C865.25,-279.81 861.17,-270.3 857.42,-261.55"/>
<polygon fill="black" stroke="black" points="860.53,-259.92 853.37,-252.1 854.1,-262.67 860.53,-259.92"/>
</g>
<!-- Fallback******** -->
<g id="node37" class="node">
<title>Fallback********</title>
<polygon fill="cyan" stroke="black" points="1018.78,-226.54 1018.78,-241.46 988.47,-252 945.61,-252 915.31,-241.46 915.31,-226.54 945.61,-216 988.47,-216 1018.78,-226.54"/>
<text text-anchor="middle" x="967.04" y="-231.8" font-family="Times,serif" font-size="9.00">Fallback********</text>
</g>
<!-- Sequence*****&#45;&gt;Fallback******** -->
<g id="edge36" class="edge">
<title>Sequence*****&#45;&gt;Fallback********</title>
<path fill="none" stroke="black" d="M897.15,-288.76C908.95,-279.69 923.86,-268.22 936.88,-258.21"/>
<polygon fill="black" stroke="black" points="939.31,-260.75 945.1,-251.88 935.04,-255.2 939.31,-260.75"/>
</g>
<!-- apply force 2! -->
<g id="node41" class="node">
<title>apply force 2!</title>
<ellipse fill="gray" stroke="black" cx="1075.04" cy="-234" rx="38.21" ry="18"/>
<text text-anchor="middle" x="1075.04" y="-231.8" font-family="Times,serif" font-size="9.00">apply force 2!</text>
</g>
<!-- Sequence*****&#45;&gt;apply force 2! -->
<g id="edge40" class="edge">
<title>Sequence*****&#45;&gt;apply force 2!</title>
<path fill="none" stroke="black" d="M909.29,-293.53C940.11,-282.87 987.22,-266.5 1028.04,-252 1030.73,-251.05 1033.49,-250.06 1036.28,-249.06"/>
<polygon fill="black" stroke="black" points="1037.5,-252.34 1045.73,-245.66 1035.13,-245.75 1037.5,-252.34"/>
</g>
<!-- 2 on 1? -->
<g id="node30" class="node">
<title>2 on 1?</title>
<ellipse fill="gray" stroke="black" cx="674.04" cy="-162" rx="27" ry="18"/>
<text text-anchor="middle" x="674.04" y="-159.8" font-family="Times,serif" font-size="9.00">2 on 1?</text>
</g>
<!-- Fallback******&#45;&gt;2 on 1? -->
<g id="edge29" class="edge">
<title>Fallback******&#45;&gt;2 on 1?</title>
<path fill="none" stroke="black" d="M813.36,-220.99C785.65,-210.64 744.96,-195.03 710.04,-180 708.23,-179.22 706.38,-178.41 704.52,-177.57"/>
<polygon fill="black" stroke="black" points="705.8,-174.31 695.25,-173.31 702.88,-180.67 705.8,-174.31"/>
</g>
<!-- Sequence****** -->
<g id="node31" class="node">
<title>Sequence******</title>
<polygon fill="cyan" stroke="black" points="815.28,-154.54 815.28,-169.46 787.03,-180 747.06,-180 718.81,-169.46 718.81,-154.54 747.06,-144 787.03,-144 815.28,-154.54"/>
<text text-anchor="middle" x="767.04" y="-159.8" font-family="Times,serif" font-size="9.00">Sequence******</text>
</g>
<!-- Fallback******&#45;&gt;Sequence****** -->
<g id="edge30" class="edge">
<title>Fallback******&#45;&gt;Sequence******</title>
<path fill="none" stroke="black" d="M826.52,-215.7C816.66,-206.97 804.56,-196.24 793.85,-186.75"/>
<polygon fill="black" stroke="black" points="796.15,-184.12 786.35,-180.1 791.51,-189.36 796.15,-184.12"/>
</g>
<!-- pick 1!* -->
<g id="node36" class="node">
<title>pick 1!*</title>
<ellipse fill="gray" stroke="black" cx="860.04" cy="-162" rx="27" ry="18"/>
<text text-anchor="middle" x="860.04" y="-159.8" font-family="Times,serif" font-size="9.00">pick 1!*</text>
</g>
<!-- Fallback******&#45;&gt;pick 1!* -->
<g id="edge35" class="edge">
<title>Fallback******&#45;&gt;pick 1!*</title>
<path fill="none" stroke="black" d="M849.51,-215.7C851.05,-207.98 852.9,-198.71 854.62,-190.11"/>
<polygon fill="black" stroke="black" points="858.09,-190.6 856.62,-180.1 851.23,-189.22 858.09,-190.6"/>
</g>
<!-- Fallback******* -->
<g id="node32" class="node">
<title>Fallback*******</title>
<polygon fill="cyan" stroke="black" points="797.03,-82.54 797.03,-97.46 768.34,-108 727.75,-108 699.06,-97.46 699.06,-82.54 727.75,-72 768.34,-72 797.03,-82.54"/>
<text text-anchor="middle" x="748.04" y="-87.8" font-family="Times,serif" font-size="9.00">Fallback*******</text>
</g>
<!-- Sequence******&#45;&gt;Fallback******* -->
<g id="edge31" class="edge">
<title>Sequence******&#45;&gt;Fallback*******</title>
<path fill="none" stroke="black" d="M762.35,-143.7C760.23,-135.9 757.68,-126.51 755.33,-117.83"/>
<polygon fill="black" stroke="black" points="758.68,-116.84 752.69,-108.1 751.93,-118.67 758.68,-116.84"/>
</g>
<!-- place on 1! -->
<g id="node35" class="node">
<title>place on 1!</title>
<ellipse fill="gray" stroke="black" cx="847.04" cy="-90" rx="32.16" ry="18"/>
<text text-anchor="middle" x="847.04" y="-87.8" font-family="Times,serif" font-size="9.00">place on 1!</text>
</g>
<!-- Sequence******&#45;&gt;place on 1! -->
<g id="edge34" class="edge">
<title>Sequence******&#45;&gt;place on 1!</title>
<path fill="none" stroke="black" d="M786.82,-143.7C797.72,-134.16 811.34,-122.24 822.87,-112.15"/>
<polygon fill="black" stroke="black" points="825.24,-114.73 830.46,-105.51 820.63,-109.46 825.24,-114.73"/>
</g>
<!-- picked 2? -->
<g id="node33" class="node">
<title>picked 2?</title>
<ellipse fill="gray" stroke="black" cx="711.04" cy="-18" rx="28.74" ry="18"/>
<text text-anchor="middle" x="711.04" y="-15.8" font-family="Times,serif" font-size="9.00">picked 2?</text>
</g>
<!-- Fallback*******&#45;&gt;picked 2? -->
<g id="edge32" class="edge">
<title>Fallback*******&#45;&gt;picked 2?</title>
<path fill="none" stroke="black" d="M738.9,-71.7C734.58,-63.52 729.33,-53.6 724.57,-44.58"/>
<polygon fill="black" stroke="black" points="727.6,-42.83 719.83,-35.62 721.41,-46.1 727.6,-42.83"/>
</g>
<!-- pick 2!* -->
<g id="node34" class="node">
<title>pick 2!*</title>
<ellipse fill="gray" stroke="black" cx="785.04" cy="-18" rx="27" ry="18"/>
<text text-anchor="middle" x="785.04" y="-15.8" font-family="Times,serif" font-size="9.00">pick 2!*</text>
</g>
<!-- Fallback*******&#45;&gt;pick 2!* -->
<g id="edge33" class="edge">
<title>Fallback*******&#45;&gt;pick 2!*</title>
<path fill="none" stroke="black" d="M757.19,-71.7C761.57,-63.4 766.91,-53.31 771.73,-44.19"/>
<polygon fill="black" stroke="black" points="774.93,-45.62 776.51,-35.14 768.74,-42.35 774.93,-45.62"/>
</g>
<!-- 0 at pos (0.0, 0.05, 0.0)?* -->
<g id="node38" class="node">
<title>0 at pos (0.0, 0.05, 0.0)?*</title>
<ellipse fill="gray" stroke="black" cx="967.04" cy="-162" rx="62.21" ry="18"/>
<text text-anchor="middle" x="967.04" y="-159.8" font-family="Times,serif" font-size="9.00">0 at pos (0.0, 0.05, 0.0)?*</text>
</g>
<!-- Fallback********&#45;&gt;0 at pos (0.0, 0.05, 0.0)?* -->
<g id="edge37" class="edge">
<title>Fallback********&#45;&gt;0 at pos (0.0, 0.05, 0.0)?*</title>
<path fill="none" stroke="black" d="M967.04,-215.7C967.04,-207.98 967.04,-198.71 967.04,-190.11"/>
<polygon fill="black" stroke="black" points="970.54,-190.1 967.04,-180.1 963.54,-190.1 970.54,-190.1"/>
</g>
<!-- place at (0.0, 0.05, 0.0)!* -->
<g id="node39" class="node">
<title>place at (0.0, 0.05, 0.0)!*</title>
<ellipse fill="gray" stroke="black" cx="1109.04" cy="-162" rx="61.4" ry="18"/>
<text text-anchor="middle" x="1109.04" y="-159.8" font-family="Times,serif" font-size="9.00">place at (0.0, 0.05, 0.0)!*</text>
</g>
<!-- Fallback********&#45;&gt;place at (0.0, 0.05, 0.0)!* -->
<g id="edge38" class="edge">
<title>Fallback********&#45;&gt;place at (0.0, 0.05, 0.0)!*</title>
<path fill="none" stroke="black" d="M996.47,-218.5C1017.74,-208.01 1046.71,-193.73 1069.93,-182.28"/>
<polygon fill="black" stroke="black" points="1071.75,-185.29 1079.17,-177.73 1068.65,-179.01 1071.75,-185.29"/>
</g>
<!-- pick 0!* -->
<g id="node40" class="node">
<title>pick 0!*</title>
<ellipse fill="gray" stroke="black" cx="1215.04" cy="-162" rx="27" ry="18"/>
<text text-anchor="middle" x="1215.04" y="-159.8" font-family="Times,serif" font-size="9.00">pick 0!*</text>
</g>
<!-- Fallback********&#45;&gt;pick 0!* -->
<g id="edge39" class="edge">
<title>Fallback********&#45;&gt;pick 0!*</title>
<path fill="none" stroke="black" d="M1005.71,-221.99C1013.11,-219.95 1020.81,-217.87 1028.04,-216 1094.84,-198.74 1113.95,-202.85 1179.04,-180 1180.95,-179.33 1182.89,-178.59 1184.84,-177.81"/>
<polygon fill="black" stroke="black" points="1186.64,-180.84 1194.41,-173.64 1183.85,-174.42 1186.64,-180.84"/>
</g>
</g>
</svg>
