<?xml version="1.0" encoding="UTF-8" standalone="no"?>
<!DOCTYPE svg PUBLIC "-//W3C//DTD SVG 1.1//EN"
 "http://www.w3.org/Graphics/SVG/1.1/DTD/svg11.dtd">
<!-- Generated by graphviz version 2.43.0 (0)
 -->
<!-- Title: pastafarianism Pages: 1 -->
<svg width="1624pt" height="332pt"
 viewBox="0.00 0.00 1623.69 332.00" xmlns="http://www.w3.org/2000/svg" xmlns:xlink="http://www.w3.org/1999/xlink">
<g id="graph0" class="graph" transform="scale(1 1) rotate(0) translate(4 328)">
<title>pastafarianism</title>
<polygon fill="white" stroke="transparent" points="-4,4 -4,-328 1619.69,-328 1619.69,4 -4,4"/>
<!-- Sequence -->
<g id="node1" class="node">
<title>Sequence</title>
<polygon fill="cyan" stroke="black" points="1066.54,-298.54 1066.54,-313.46 1048.09,-324 1022,-324 1003.55,-313.46 1003.55,-298.54 1022,-288 1048.09,-288 1066.54,-298.54"/>
<text text-anchor="middle" x="1035.04" y="-303.8" font-family="Times,serif" font-size="9.00">Sequence</text>
</g>
<!-- Fallback -->
<g id="node2" class="node">
<title>Fallback</title>
<polygon fill="cyan" stroke="black" points="277.29,-226.54 277.29,-241.46 260.16,-252 235.93,-252 218.8,-241.46 218.8,-226.54 235.93,-216 260.16,-216 277.29,-226.54"/>
<text text-anchor="middle" x="248.04" y="-231.8" font-family="Times,serif" font-size="9.00">Fallback</text>
</g>
<!-- Sequence&#45;&gt;Fallback -->
<g id="edge1" class="edge">
<title>Sequence&#45;&gt;Fallback</title>
<path fill="none" stroke="black" d="M1003.71,-302.21C879.86,-291.2 424.6,-250.7 287.42,-238.5"/>
<polygon fill="black" stroke="black" points="287.63,-235.01 277.36,-237.61 287.01,-241.98 287.63,-235.01"/>
</g>
<!-- Fallback* -->
<g id="node6" class="node">
<title>Fallback*</title>
<polygon fill="cyan" stroke="black" points="819.79,-226.54 819.79,-241.46 801.19,-252 774.9,-252 756.3,-241.46 756.3,-226.54 774.9,-216 801.19,-216 819.79,-226.54"/>
<text text-anchor="middle" x="788.04" y="-231.8" font-family="Times,serif" font-size="9.00">Fallback*</text>
</g>
<!-- Sequence&#45;&gt;Fallback* -->
<g id="edge5" class="edge">
<title>Sequence&#45;&gt;Fallback*</title>
<path fill="none" stroke="black" d="M1006.23,-296.83C961.82,-284.25 876.59,-260.09 826.82,-245.99"/>
<polygon fill="black" stroke="black" points="827.64,-242.58 817.06,-243.22 825.73,-249.32 827.64,-242.58"/>
</g>
<!-- Fallback**** -->
<g id="node23" class="node">
<title>Fallback****</title>
<polygon fill="cyan" stroke="black" points="1265.78,-226.54 1265.78,-241.46 1241.92,-252 1208.17,-252 1184.3,-241.46 1184.3,-226.54 1208.17,-216 1241.92,-216 1265.78,-226.54"/>
<text text-anchor="middle" x="1225.04" y="-231.8" font-family="Times,serif" font-size="9.00">Fallback****</text>
</g>
<!-- Sequence&#45;&gt;Fallback**** -->
<g id="edge22" class="edge">
<title>Sequence&#45;&gt;Fallback****</title>
<path fill="none" stroke="black" d="M1061.06,-295.41C1093.07,-283.62 1147.72,-263.49 1185.07,-249.73"/>
<polygon fill="black" stroke="black" points="1186.46,-252.94 1194.64,-246.2 1184.04,-246.38 1186.46,-252.94"/>
</g>
<!-- apply force 2! -->
<g id="node39" class="node">
<title>apply force 2!</title>
<ellipse fill="gray" stroke="black" cx="1322.04" cy="-234" rx="38.21" ry="18"/>
<text text-anchor="middle" x="1322.04" y="-231.8" font-family="Times,serif" font-size="9.00">apply force 2!</text>
</g>
<!-- Sequence&#45;&gt;apply force 2! -->
<g id="edge38" class="edge">
<title>Sequence&#45;&gt;apply force 2!</title>
<path fill="none" stroke="black" d="M1066.44,-299.42C1112.59,-290.9 1201.28,-273.39 1275.04,-252 1277.95,-251.16 1280.94,-250.23 1283.93,-249.25"/>
<polygon fill="black" stroke="black" points="1285.07,-252.56 1293.41,-246.03 1282.81,-245.94 1285.07,-252.56"/>
</g>
<!-- 0 at pos (0.0, 0.05, 0.0)? -->
<g id="node3" class="node">
<title>0 at pos (0.0, 0.05, 0.0)?</title>
<ellipse fill="gray" stroke="black" cx="60.04" cy="-162" rx="60.09" ry="18"/>
<text text-anchor="middle" x="60.04" y="-159.8" font-family="Times,serif" font-size="9.00">0 at pos (0.0, 0.05, 0.0)?</text>
</g>
<!-- Fallback&#45;&gt;0 at pos (0.0, 0.05, 0.0)? -->
<g id="edge2" class="edge">
<title>Fallback&#45;&gt;0 at pos (0.0, 0.05, 0.0)?</title>
<path fill="none" stroke="black" d="M223.08,-223.7C193.19,-212.58 142.54,-193.72 105.62,-179.97"/>
<polygon fill="black" stroke="black" points="106.66,-176.62 96.07,-176.41 104.22,-183.18 106.66,-176.62"/>
</g>
<!-- place at (0.0, 0.05, 0.0)! -->
<g id="node4" class="node">
<title>place at (0.0, 0.05, 0.0)!</title>
<ellipse fill="gray" stroke="black" cx="196.04" cy="-162" rx="58.13" ry="18"/>
<text text-anchor="middle" x="196.04" y="-159.8" font-family="Times,serif" font-size="9.00">place at (0.0, 0.05, 0.0)!</text>
</g>
<!-- Fallback&#45;&gt;place at (0.0, 0.05, 0.0)! -->
<g id="edge3" class="edge">
<title>Fallback&#45;&gt;place at (0.0, 0.05, 0.0)!</title>
<path fill="none" stroke="black" d="M235.46,-216.05C229.2,-207.63 221.51,-197.28 214.59,-187.97"/>
<polygon fill="black" stroke="black" points="217.29,-185.73 208.52,-179.79 211.67,-189.9 217.29,-185.73"/>
</g>
<!-- pick 0! -->
<g id="node5" class="node">
<title>pick 0!</title>
<ellipse fill="gray" stroke="black" cx="299.04" cy="-162" rx="27" ry="18"/>
<text text-anchor="middle" x="299.04" y="-159.8" font-family="Times,serif" font-size="9.00">pick 0!</text>
</g>
<!-- Fallback&#45;&gt;pick 0! -->
<g id="edge4" class="edge">
<title>Fallback&#45;&gt;pick 0!</title>
<path fill="none" stroke="black" d="M260.39,-216.05C266.71,-207.38 274.51,-196.67 281.45,-187.15"/>
<polygon fill="black" stroke="black" points="284.45,-188.97 287.51,-178.83 278.79,-184.85 284.45,-188.97"/>
</g>
<!-- 1 at pos (0.0, 0.05, 0.0192)? -->
<g id="node7" class="node">
<title>1 at pos (0.0, 0.05, 0.0192)?</title>
<ellipse fill="gray" stroke="black" cx="412.04" cy="-162" rx="67.6" ry="18"/>
<text text-anchor="middle" x="412.04" y="-159.8" font-family="Times,serif" font-size="9.00">1 at pos (0.0, 0.05, 0.0192)?</text>
</g>
<!-- Fallback*&#45;&gt;1 at pos (0.0, 0.05, 0.0192)? -->
<g id="edge6" class="edge">
<title>Fallback*&#45;&gt;1 at pos (0.0, 0.05, 0.0192)?</title>
<path fill="none" stroke="black" d="M756.1,-227.79C701.32,-218.75 585.99,-199.29 489.04,-180 483.37,-178.87 477.47,-177.65 471.57,-176.4"/>
<polygon fill="black" stroke="black" points="472.2,-172.96 461.69,-174.28 470.73,-179.8 472.2,-172.96"/>
</g>
<!-- Sequence* -->
<g id="node8" class="node">
<title>Sequence*</title>
<polygon fill="cyan" stroke="black" points="566.29,-154.54 566.29,-169.46 546.23,-180 517.86,-180 497.8,-169.46 497.8,-154.54 517.86,-144 546.23,-144 566.29,-154.54"/>
<text text-anchor="middle" x="532.04" y="-159.8" font-family="Times,serif" font-size="9.00">Sequence*</text>
</g>
<!-- Fallback*&#45;&gt;Sequence* -->
<g id="edge7" class="edge">
<title>Fallback*&#45;&gt;Sequence*</title>
<path fill="none" stroke="black" d="M756.45,-226.39C714.73,-217.36 639.15,-200 576.04,-180 573.43,-179.17 570.74,-178.27 568.05,-177.32"/>
<polygon fill="black" stroke="black" points="568.97,-173.93 558.38,-173.78 566.57,-180.51 568.97,-173.93"/>
</g>
<!-- place on 0! -->
<g id="node18" class="node">
<title>place on 0!</title>
<ellipse fill="gray" stroke="black" cx="617.04" cy="-162" rx="32.16" ry="18"/>
<text text-anchor="middle" x="617.04" y="-159.8" font-family="Times,serif" font-size="9.00">place on 0!</text>
</g>
<!-- Fallback*&#45;&gt;place on 0! -->
<g id="edge17" class="edge">
<title>Fallback*&#45;&gt;place on 0!</title>
<path fill="none" stroke="black" d="M762.62,-222.69C736.4,-212.04 694.34,-194.92 658.04,-180 655.96,-179.14 653.82,-178.26 651.65,-177.37"/>
<polygon fill="black" stroke="black" points="652.77,-174.04 642.19,-173.45 650.09,-180.51 652.77,-174.04"/>
</g>
<!-- place at (0.0, 0.05, 0.0)!** -->
<g id="node19" class="node">
<title>place at (0.0, 0.05, 0.0)!**</title>
<ellipse fill="gray" stroke="black" cx="731.04" cy="-162" rx="63.52" ry="18"/>
<text text-anchor="middle" x="731.04" y="-159.8" font-family="Times,serif" font-size="9.00">place at (0.0, 0.05, 0.0)!**</text>
</g>
<!-- Fallback*&#45;&gt;place at (0.0, 0.05, 0.0)!** -->
<g id="edge18" class="edge">
<title>Fallback*&#45;&gt;place at (0.0, 0.05, 0.0)!**</title>
<path fill="none" stroke="black" d="M774.25,-216.05C767.31,-207.54 758.79,-197.07 751.14,-187.68"/>
<polygon fill="black" stroke="black" points="753.74,-185.33 744.72,-179.79 748.32,-189.75 753.74,-185.33"/>
</g>
<!-- place on 1! -->
<g id="node20" class="node">
<title>place on 1!</title>
<ellipse fill="gray" stroke="black" cx="845.04" cy="-162" rx="32.16" ry="18"/>
<text text-anchor="middle" x="845.04" y="-159.8" font-family="Times,serif" font-size="9.00">place on 1!</text>
</g>
<!-- Fallback*&#45;&gt;place on 1! -->
<g id="edge19" class="edge">
<title>Fallback*&#45;&gt;place on 1!</title>
<path fill="none" stroke="black" d="M801.84,-216.05C808.98,-207.29 817.81,-196.45 825.62,-186.86"/>
<polygon fill="black" stroke="black" points="828.55,-188.79 832.15,-178.83 823.13,-184.37 828.55,-188.79"/>
</g>
<!-- 0 at pos (0.0, 0.05, 0.0)?** -->
<g id="node21" class="node">
<title>0 at pos (0.0, 0.05, 0.0)?**</title>
<ellipse fill="gray" stroke="black" cx="961.04" cy="-162" rx="65.48" ry="18"/>
<text text-anchor="middle" x="961.04" y="-159.8" font-family="Times,serif" font-size="9.00">0 at pos (0.0, 0.05, 0.0)?**</text>
</g>
<!-- Fallback*&#45;&gt;0 at pos (0.0, 0.05, 0.0)?** -->
<g id="edge20" class="edge">
<title>Fallback*&#45;&gt;0 at pos (0.0, 0.05, 0.0)?**</title>
<path fill="none" stroke="black" d="M813.57,-222.67C840.6,-211.73 883.8,-194.25 916.47,-181.04"/>
<polygon fill="black" stroke="black" points="917.86,-184.25 925.81,-177.26 915.23,-177.76 917.86,-184.25"/>
</g>
<!-- 2 at pos (0.0, 0.05, 0.0384)? -->
<g id="node22" class="node">
<title>2 at pos (0.0, 0.05, 0.0384)?</title>
<ellipse fill="gray" stroke="black" cx="1112.04" cy="-162" rx="67.6" ry="18"/>
<text text-anchor="middle" x="1112.04" y="-159.8" font-family="Times,serif" font-size="9.00">2 at pos (0.0, 0.05, 0.0384)?</text>
</g>
<!-- Fallback*&#45;&gt;2 at pos (0.0, 0.05, 0.0384)? -->
<g id="edge21" class="edge">
<title>Fallback*&#45;&gt;2 at pos (0.0, 0.05, 0.0384)?</title>
<path fill="none" stroke="black" d="M819.64,-226.28C866.63,-216.28 957.69,-196.84 1035.04,-180 1040.48,-178.82 1046.13,-177.58 1051.79,-176.34"/>
<polygon fill="black" stroke="black" points="1052.92,-179.67 1061.94,-174.11 1051.42,-172.84 1052.92,-179.67"/>
</g>
<!-- Fallback** -->
<g id="node9" class="node">
<title>Fallback**</title>
<polygon fill="cyan" stroke="black" points="318.04,-82.54 318.04,-97.46 297.54,-108 268.55,-108 248.05,-97.46 248.05,-82.54 268.55,-72 297.54,-72 318.04,-82.54"/>
<text text-anchor="middle" x="283.04" y="-87.8" font-family="Times,serif" font-size="9.00">Fallback**</text>
</g>
<!-- Sequence*&#45;&gt;Fallback** -->
<g id="edge8" class="edge">
<title>Sequence*&#45;&gt;Fallback**</title>
<path fill="none" stroke="black" d="M505.85,-150.05C500.35,-147.91 494.54,-145.79 489.04,-144 433.72,-126.03 368.49,-110.11 326.49,-100.52"/>
<polygon fill="black" stroke="black" points="327.12,-97.07 316.59,-98.28 325.57,-103.9 327.12,-97.07"/>
</g>
<!-- Fallback*** -->
<g id="node12" class="node">
<title>Fallback***</title>
<polygon fill="cyan" stroke="black" points="569.53,-82.54 569.53,-97.46 547.57,-108 516.52,-108 494.55,-97.46 494.55,-82.54 516.52,-72 547.57,-72 569.53,-82.54"/>
<text text-anchor="middle" x="532.04" y="-87.8" font-family="Times,serif" font-size="9.00">Fallback***</text>
</g>
<!-- Sequence*&#45;&gt;Fallback*** -->
<g id="edge11" class="edge">
<title>Sequence*&#45;&gt;Fallback***</title>
<path fill="none" stroke="black" d="M532.04,-143.7C532.04,-135.98 532.04,-126.71 532.04,-118.11"/>
<polygon fill="black" stroke="black" points="535.54,-118.1 532.04,-108.1 528.54,-118.1 535.54,-118.1"/>
</g>
<!-- apply force 1! -->
<g id="node17" class="node">
<title>apply force 1!</title>
<ellipse fill="gray" stroke="black" cx="626.04" cy="-90" rx="38.21" ry="18"/>
<text text-anchor="middle" x="626.04" y="-87.8" font-family="Times,serif" font-size="9.00">apply force 1!</text>
</g>
<!-- Sequence*&#45;&gt;apply force 1! -->
<g id="edge16" class="edge">
<title>Sequence*&#45;&gt;apply force 1!</title>
<path fill="none" stroke="black" d="M551.52,-146.5C565.01,-136.45 583.16,-122.93 598.17,-111.75"/>
<polygon fill="black" stroke="black" points="600.66,-114.27 606.59,-105.49 596.48,-108.65 600.66,-114.27"/>
</g>
<!-- 1 on 0? -->
<g id="node10" class="node">
<title>1 on 0?</title>
<ellipse fill="gray" stroke="black" cx="211.04" cy="-18" rx="27" ry="18"/>
<text text-anchor="middle" x="211.04" y="-15.8" font-family="Times,serif" font-size="9.00">1 on 0?</text>
</g>
<!-- Fallback**&#45;&gt;1 on 0? -->
<g id="edge9" class="edge">
<title>Fallback**&#45;&gt;1 on 0?</title>
<path fill="none" stroke="black" d="M266.35,-72.76C256.45,-63.14 243.79,-50.84 233.09,-40.43"/>
<polygon fill="black" stroke="black" points="235.31,-37.71 225.7,-33.25 230.43,-42.73 235.31,-37.71"/>
</g>
<!-- pick 1! -->
<g id="node11" class="node">
<title>pick 1!</title>
<ellipse fill="gray" stroke="black" cx="283.04" cy="-18" rx="27" ry="18"/>
<text text-anchor="middle" x="283.04" y="-15.8" font-family="Times,serif" font-size="9.00">pick 1!</text>
</g>
<!-- Fallback**&#45;&gt;pick 1! -->
<g id="edge10" class="edge">
<title>Fallback**&#45;&gt;pick 1!</title>
<path fill="none" stroke="black" d="M283.04,-71.7C283.04,-63.98 283.04,-54.71 283.04,-46.11"/>
<polygon fill="black" stroke="black" points="286.54,-46.1 283.04,-36.1 279.54,-46.1 286.54,-46.1"/>
</g>
<!-- 0 at pos (0.0, 0.05, 0.0)?* -->
<g id="node13" class="node">
<title>0 at pos (0.0, 0.05, 0.0)?*</title>
<ellipse fill="gray" stroke="black" cx="390.04" cy="-18" rx="62.21" ry="18"/>
<text text-anchor="middle" x="390.04" y="-15.8" font-family="Times,serif" font-size="9.00">0 at pos (0.0, 0.05, 0.0)?*</text>
</g>
<!-- Fallback***&#45;&gt;0 at pos (0.0, 0.05, 0.0)?* -->
<g id="edge12" class="edge">
<title>Fallback***&#45;&gt;0 at pos (0.0, 0.05, 0.0)?*</title>
<path fill="none" stroke="black" d="M506.66,-76.49C485.15,-65.88 453.97,-50.51 429.26,-38.33"/>
<polygon fill="black" stroke="black" points="430.65,-35.12 420.14,-33.83 427.56,-41.4 430.65,-35.12"/>
</g>
<!-- place at (0.0, 0.05, 0.0)!* -->
<g id="node14" class="node">
<title>place at (0.0, 0.05, 0.0)!*</title>
<ellipse fill="gray" stroke="black" cx="532.04" cy="-18" rx="61.4" ry="18"/>
<text text-anchor="middle" x="532.04" y="-15.8" font-family="Times,serif" font-size="9.00">place at (0.0, 0.05, 0.0)!*</text>
</g>
<!-- Fallback***&#45;&gt;place at (0.0, 0.05, 0.0)!* -->
<g id="edge13" class="edge">
<title>Fallback***&#45;&gt;place at (0.0, 0.05, 0.0)!*</title>
<path fill="none" stroke="black" d="M532.04,-71.7C532.04,-63.98 532.04,-54.71 532.04,-46.11"/>
<polygon fill="black" stroke="black" points="535.54,-46.1 532.04,-36.1 528.54,-46.1 535.54,-46.1"/>
</g>
<!-- pick 0!* -->
<g id="node15" class="node">
<title>pick 0!*</title>
<ellipse fill="gray" stroke="black" cx="638.04" cy="-18" rx="27" ry="18"/>
<text text-anchor="middle" x="638.04" y="-15.8" font-family="Times,serif" font-size="9.00">pick 0!*</text>
</g>
<!-- Fallback***&#45;&gt;pick 0!* -->
<g id="edge14" class="edge">
<title>Fallback***&#45;&gt;pick 0!*</title>
<path fill="none" stroke="black" d="M553.5,-74.83C569.98,-63.95 592.87,-48.83 610.67,-37.08"/>
<polygon fill="black" stroke="black" points="613.04,-39.7 619.46,-31.27 609.19,-33.86 613.04,-39.7"/>
</g>
<!-- pick 0!** -->
<g id="node16" class="node">
<title>pick 0!**</title>
<ellipse fill="gray" stroke="black" cx="712.04" cy="-18" rx="28.74" ry="18"/>
<text text-anchor="middle" x="712.04" y="-15.8" font-family="Times,serif" font-size="9.00">pick 0!**</text>
</g>
<!-- Fallback***&#45;&gt;pick 0!** -->
<g id="edge15" class="edge">
<title>Fallback***&#45;&gt;pick 0!**</title>
<path fill="none" stroke="black" d="M561.11,-78.4C596.2,-65.56 653.1,-44.58 674.04,-36 675.9,-35.24 677.8,-34.44 679.71,-33.63"/>
<polygon fill="black" stroke="black" points="681.47,-36.68 689.24,-29.48 678.67,-30.27 681.47,-36.68"/>
</g>
<!-- 2 on 1? -->
<g id="node24" class="node">
<title>2 on 1?</title>
<ellipse fill="gray" stroke="black" cx="1225.04" cy="-162" rx="27" ry="18"/>
<text text-anchor="middle" x="1225.04" y="-159.8" font-family="Times,serif" font-size="9.00">2 on 1?</text>
</g>
<!-- Fallback****&#45;&gt;2 on 1? -->
<g id="edge23" class="edge">
<title>Fallback****&#45;&gt;2 on 1?</title>
<path fill="none" stroke="black" d="M1225.04,-215.7C1225.04,-207.98 1225.04,-198.71 1225.04,-190.11"/>
<polygon fill="black" stroke="black" points="1228.54,-190.1 1225.04,-180.1 1221.54,-190.1 1228.54,-190.1"/>
</g>
<!-- Sequence** -->
<g id="node25" class="node">
<title>Sequence**</title>
<polygon fill="cyan" stroke="black" points="1343.79,-154.54 1343.79,-169.46 1322.26,-180 1291.83,-180 1270.3,-169.46 1270.3,-154.54 1291.83,-144 1322.26,-144 1343.79,-154.54"/>
<text text-anchor="middle" x="1307.04" y="-159.8" font-family="Times,serif" font-size="9.00">Sequence**</text>
</g>
<!-- Fallback****&#45;&gt;Sequence** -->
<g id="edge24" class="edge">
<title>Fallback****&#45;&gt;Sequence**</title>
<path fill="none" stroke="black" d="M1244.06,-216.76C1254.98,-207.45 1268.85,-195.61 1280.79,-185.41"/>
<polygon fill="black" stroke="black" points="1283.36,-187.82 1288.69,-178.67 1278.81,-182.5 1283.36,-187.82"/>
</g>
<!-- Sequence*** -->
<g id="node33" class="node">
<title>Sequence***</title>
<polygon fill="cyan" stroke="black" points="1522.03,-154.54 1522.03,-169.46 1498.61,-180 1465.48,-180 1442.05,-169.46 1442.05,-154.54 1465.48,-144 1498.61,-144 1522.03,-154.54"/>
<text text-anchor="middle" x="1482.04" y="-159.8" font-family="Times,serif" font-size="9.00">Sequence***</text>
</g>
<!-- Fallback****&#45;&gt;Sequence*** -->
<g id="edge32" class="edge">
<title>Fallback****&#45;&gt;Sequence***</title>
<path fill="none" stroke="black" d="M1255.86,-222.11C1262.18,-219.99 1268.81,-217.86 1275.04,-216 1329.9,-199.68 1393.82,-183.78 1435.95,-173.72"/>
<polygon fill="black" stroke="black" points="1436.99,-177.07 1445.91,-171.36 1435.38,-170.26 1436.99,-177.07"/>
</g>
<!-- pick 2! -->
<g id="node26" class="node">
<title>pick 2!</title>
<ellipse fill="gray" stroke="black" cx="1123.04" cy="-90" rx="27" ry="18"/>
<text text-anchor="middle" x="1123.04" y="-87.8" font-family="Times,serif" font-size="9.00">pick 2!</text>
</g>
<!-- Sequence**&#45;&gt;pick 2! -->
<g id="edge25" class="edge">
<title>Sequence**&#45;&gt;pick 2!</title>
<path fill="none" stroke="black" d="M1278.36,-150.32C1272.63,-148.21 1266.65,-146.02 1261.04,-144 1215.83,-127.67 1203.5,-126.29 1159.04,-108 1157.22,-107.25 1155.36,-106.46 1153.49,-105.64"/>
<polygon fill="black" stroke="black" points="1154.76,-102.37 1144.2,-101.43 1151.87,-108.75 1154.76,-102.37"/>
</g>
<!-- Fallback***** -->
<g id="node27" class="node">
<title>Fallback*****</title>
<polygon fill="cyan" stroke="black" points="1254.28,-82.54 1254.28,-97.46 1228.95,-108 1193.13,-108 1167.81,-97.46 1167.81,-82.54 1193.13,-72 1228.95,-72 1254.28,-82.54"/>
<text text-anchor="middle" x="1211.04" y="-87.8" font-family="Times,serif" font-size="9.00">Fallback*****</text>
</g>
<!-- Sequence**&#45;&gt;Fallback***** -->
<g id="edge26" class="edge">
<title>Sequence**&#45;&gt;Fallback*****</title>
<path fill="none" stroke="black" d="M1286.69,-146.15C1273.43,-136.49 1255.92,-123.72 1241.08,-112.9"/>
<polygon fill="black" stroke="black" points="1242.85,-109.86 1232.71,-106.8 1238.73,-115.52 1242.85,-109.86"/>
</g>
<!-- place on 1!* -->
<g id="node31" class="node">
<title>place on 1!*</title>
<ellipse fill="gray" stroke="black" cx="1307.04" cy="-90" rx="34.78" ry="18"/>
<text text-anchor="middle" x="1307.04" y="-87.8" font-family="Times,serif" font-size="9.00">place on 1!*</text>
</g>
<!-- Sequence**&#45;&gt;place on 1!* -->
<g id="edge30" class="edge">
<title>Sequence**&#45;&gt;place on 1!*</title>
<path fill="none" stroke="black" d="M1307.04,-143.7C1307.04,-135.98 1307.04,-126.71 1307.04,-118.11"/>
<polygon fill="black" stroke="black" points="1310.54,-118.1 1307.04,-108.1 1303.54,-118.1 1310.54,-118.1"/>
</g>
<!-- picked 1? -->
<g id="node32" class="node">
<title>picked 1?</title>
<ellipse fill="gray" stroke="black" cx="1389.04" cy="-90" rx="28.74" ry="18"/>
<text text-anchor="middle" x="1389.04" y="-87.8" font-family="Times,serif" font-size="9.00">picked 1?</text>
</g>
<!-- Sequence**&#45;&gt;picked 1? -->
<g id="edge31" class="edge">
<title>Sequence**&#45;&gt;picked 1?</title>
<path fill="none" stroke="black" d="M1325.65,-145.12C1337.28,-135.19 1352.38,-122.3 1364.92,-111.6"/>
<polygon fill="black" stroke="black" points="1367.4,-114.08 1372.73,-104.93 1362.85,-108.76 1367.4,-114.08"/>
</g>
<!-- picked 2? -->
<g id="node28" class="node">
<title>picked 2?</title>
<ellipse fill="gray" stroke="black" cx="1094.04" cy="-18" rx="28.74" ry="18"/>
<text text-anchor="middle" x="1094.04" y="-15.8" font-family="Times,serif" font-size="9.00">picked 2?</text>
</g>
<!-- Fallback*****&#45;&gt;picked 2? -->
<g id="edge27" class="edge">
<title>Fallback*****&#45;&gt;picked 2?</title>
<path fill="none" stroke="black" d="M1186.8,-74.5C1168.31,-63.43 1142.77,-48.15 1123.17,-36.43"/>
<polygon fill="black" stroke="black" points="1124.74,-33.28 1114.36,-31.15 1121.14,-39.29 1124.74,-33.28"/>
</g>
<!-- 1 at pos (0.0, 0.05, 0.0192)?* -->
<g id="node29" class="node">
<title>1 at pos (0.0, 0.05, 0.0192)?*</title>
<ellipse fill="gray" stroke="black" cx="1211.04" cy="-18" rx="70.37" ry="18"/>
<text text-anchor="middle" x="1211.04" y="-15.8" font-family="Times,serif" font-size="9.00">1 at pos (0.0, 0.05, 0.0192)?*</text>
</g>
<!-- Fallback*****&#45;&gt;1 at pos (0.0, 0.05, 0.0192)?* -->
<g id="edge28" class="edge">
<title>Fallback*****&#45;&gt;1 at pos (0.0, 0.05, 0.0192)?*</title>
<path fill="none" stroke="black" d="M1211.04,-71.7C1211.04,-63.98 1211.04,-54.71 1211.04,-46.11"/>
<polygon fill="black" stroke="black" points="1214.54,-46.1 1211.04,-36.1 1207.54,-46.1 1214.54,-46.1"/>
</g>
<!-- pick 2!* -->
<g id="node30" class="node">
<title>pick 2!*</title>
<ellipse fill="gray" stroke="black" cx="1326.04" cy="-18" rx="27" ry="18"/>
<text text-anchor="middle" x="1326.04" y="-15.8" font-family="Times,serif" font-size="9.00">pick 2!*</text>
</g>
<!-- Fallback*****&#45;&gt;pick 2!* -->
<g id="edge29" class="edge">
<title>Fallback*****&#45;&gt;pick 2!*</title>
<path fill="none" stroke="black" d="M1235.15,-74.33C1253.46,-63.18 1278.68,-47.83 1297.91,-36.12"/>
<polygon fill="black" stroke="black" points="1299.82,-39.06 1306.55,-30.87 1296.18,-33.08 1299.82,-39.06"/>
</g>
<!-- Fallback****** -->
<g id="node34" class="node">
<title>Fallback******</title>
<polygon fill="cyan" stroke="black" points="1528.53,-82.54 1528.53,-97.46 1501.3,-108 1462.79,-108 1435.56,-97.46 1435.56,-82.54 1462.79,-72 1501.3,-72 1528.53,-82.54"/>
<text text-anchor="middle" x="1482.04" y="-87.8" font-family="Times,serif" font-size="9.00">Fallback******</text>
</g>
<!-- Sequence***&#45;&gt;Fallback****** -->
<g id="edge33" class="edge">
<title>Sequence***&#45;&gt;Fallback******</title>
<path fill="none" stroke="black" d="M1482.04,-143.7C1482.04,-135.98 1482.04,-126.71 1482.04,-118.11"/>
<polygon fill="black" stroke="black" points="1485.54,-118.1 1482.04,-108.1 1478.54,-118.1 1485.54,-118.1"/>
</g>
<!-- place on 0!* -->
<g id="node38" class="node">
<title>place on 0!*</title>
<ellipse fill="gray" stroke="black" cx="1581.04" cy="-90" rx="34.78" ry="18"/>
<text text-anchor="middle" x="1581.04" y="-87.8" font-family="Times,serif" font-size="9.00">place on 0!*</text>
</g>
<!-- Sequence***&#45;&gt;place on 0!* -->
<g id="edge37" class="edge">
<title>Sequence***&#45;&gt;place on 0!*</title>
<path fill="none" stroke="black" d="M1503.53,-145.81C1518.02,-135.57 1537.28,-121.94 1552.98,-110.84"/>
<polygon fill="black" stroke="black" points="1555.14,-113.6 1561.29,-104.97 1551.1,-107.89 1555.14,-113.6"/>
</g>
<!-- picked 1?* -->
<g id="node35" class="node">
<title>picked 1?*</title>
<ellipse fill="gray" stroke="black" cx="1403.04" cy="-18" rx="31.51" ry="18"/>
<text text-anchor="middle" x="1403.04" y="-15.8" font-family="Times,serif" font-size="9.00">picked 1?*</text>
</g>
<!-- Fallback******&#45;&gt;picked 1?* -->
<g id="edge34" class="edge">
<title>Fallback******&#45;&gt;picked 1?*</title>
<path fill="none" stroke="black" d="M1462.52,-71.7C1451.75,-62.16 1438.3,-50.24 1426.91,-40.15"/>
<polygon fill="black" stroke="black" points="1429.22,-37.52 1419.42,-33.51 1424.58,-42.76 1429.22,-37.52"/>
</g>
<!-- picked 0? -->
<g id="node36" class="node">
<title>picked 0?</title>
<ellipse fill="gray" stroke="black" cx="1482.04" cy="-18" rx="28.74" ry="18"/>
<text text-anchor="middle" x="1482.04" y="-15.8" font-family="Times,serif" font-size="9.00">picked 0?</text>
</g>
<!-- Fallback******&#45;&gt;picked 0? -->
<g id="edge35" class="edge">
<title>Fallback******&#45;&gt;picked 0?</title>
<path fill="none" stroke="black" d="M1482.04,-71.7C1482.04,-63.98 1482.04,-54.71 1482.04,-46.11"/>
<polygon fill="black" stroke="black" points="1485.54,-46.1 1482.04,-36.1 1478.54,-46.1 1485.54,-46.1"/>
</g>
<!-- pick 1!* -->
<g id="node37" class="node">
<title>pick 1!*</title>
<ellipse fill="gray" stroke="black" cx="1556.04" cy="-18" rx="27" ry="18"/>
<text text-anchor="middle" x="1556.04" y="-15.8" font-family="Times,serif" font-size="9.00">pick 1!*</text>
</g>
<!-- Fallback******&#45;&gt;pick 1!* -->
<g id="edge36" class="edge">
<title>Fallback******&#45;&gt;pick 1!*</title>
<path fill="none" stroke="black" d="M1500.34,-71.7C1510.39,-62.18 1522.95,-50.3 1533.6,-40.23"/>
<polygon fill="black" stroke="black" points="1536.09,-42.69 1540.95,-33.28 1531.28,-37.61 1536.09,-42.69"/>
</g>
</g>
</svg>
