<?xml version="1.0" encoding="UTF-8" standalone="no"?>
<!DOCTYPE svg PUBLIC "-//W3C//DTD SVG 1.1//EN"
 "http://www.w3.org/Graphics/SVG/1.1/DTD/svg11.dtd">
<!-- Generated by graphviz version 2.43.0 (0)
 -->
<!-- Title: pastafarianism Pages: 1 -->
<svg width="706pt" height="332pt"
 viewBox="0.00 0.00 706.04 332.00" xmlns="http://www.w3.org/2000/svg" xmlns:xlink="http://www.w3.org/1999/xlink">
<g id="graph0" class="graph" transform="scale(1 1) rotate(0) translate(4 328)">
<title>pastafarianism</title>
<polygon fill="white" stroke="transparent" points="-4,4 -4,-328 702.04,-328 702.04,4 -4,4"/>
<!-- Sequence -->
<g id="node1" class="node">
<title>Sequence</title>
<polygon fill="cyan" stroke="black" points="547.54,-298.54 547.54,-313.46 529.09,-324 503,-324 484.55,-313.46 484.55,-298.54 503,-288 529.09,-288 547.54,-298.54"/>
<text text-anchor="middle" x="516.04" y="-303.8" font-family="Times,serif" font-size="9.00">Sequence</text>
</g>
<!-- Fallback -->
<g id="node2" class="node">
<title>Fallback</title>
<polygon fill="cyan" stroke="black" points="277.29,-226.54 277.29,-241.46 260.16,-252 235.93,-252 218.8,-241.46 218.8,-226.54 235.93,-216 260.16,-216 277.29,-226.54"/>
<text text-anchor="middle" x="248.04" y="-231.8" font-family="Times,serif" font-size="9.00">Fallback</text>
</g>
<!-- Sequence&#45;&gt;Fallback -->
<g id="edge1" class="edge">
<title>Sequence&#45;&gt;Fallback</title>
<path fill="none" stroke="black" d="M486.6,-297.31C437.8,-284.56 340.21,-259.07 286.2,-244.97"/>
<polygon fill="black" stroke="black" points="286.89,-241.53 276.33,-242.39 285.12,-248.3 286.89,-241.53"/>
</g>
<!-- Fallback* -->
<g id="node6" class="node">
<title>Fallback*</title>
<polygon fill="cyan" stroke="black" points="503.79,-226.54 503.79,-241.46 485.19,-252 458.9,-252 440.3,-241.46 440.3,-226.54 458.9,-216 485.19,-216 503.79,-226.54"/>
<text text-anchor="middle" x="472.04" y="-231.8" font-family="Times,serif" font-size="9.00">Fallback*</text>
</g>
<!-- Sequence&#45;&gt;Fallback* -->
<g id="edge5" class="edge">
<title>Sequence&#45;&gt;Fallback*</title>
<path fill="none" stroke="black" d="M505.17,-287.7C500.05,-279.56 493.85,-269.69 488.2,-260.7"/>
<polygon fill="black" stroke="black" points="491.08,-258.71 482.8,-252.1 485.15,-262.43 491.08,-258.71"/>
</g>
<!-- apply force 2! -->
<g id="node15" class="node">
<title>apply force 2!</title>
<ellipse fill="gray" stroke="black" cx="560.04" cy="-234" rx="38.21" ry="18"/>
<text text-anchor="middle" x="560.04" y="-231.8" font-family="Times,serif" font-size="9.00">apply force 2!</text>
</g>
<!-- Sequence&#45;&gt;apply force 2! -->
<g id="edge14" class="edge">
<title>Sequence&#45;&gt;apply force 2!</title>
<path fill="none" stroke="black" d="M526.92,-287.7C532.11,-279.44 538.43,-269.39 544.14,-260.3"/>
<polygon fill="black" stroke="black" points="547.24,-261.95 549.6,-251.62 541.31,-258.23 547.24,-261.95"/>
</g>
<!-- apply force 2!* -->
<g id="node16" class="node">
<title>apply force 2!*</title>
<ellipse fill="gray" stroke="black" cx="657.04" cy="-234" rx="40.98" ry="18"/>
<text text-anchor="middle" x="657.04" y="-231.8" font-family="Times,serif" font-size="9.00">apply force 2!*</text>
</g>
<!-- Sequence&#45;&gt;apply force 2!* -->
<g id="edge15" class="edge">
<title>Sequence&#45;&gt;apply force 2!*</title>
<path fill="none" stroke="black" d="M539.01,-293.6C561.39,-282.49 595.73,-265.44 621.61,-252.59"/>
<polygon fill="black" stroke="black" points="623.33,-255.65 630.73,-248.07 620.21,-249.38 623.33,-255.65"/>
</g>
<!-- 0 at pos (0.0, 0.05, 0.0)? -->
<g id="node3" class="node">
<title>0 at pos (0.0, 0.05, 0.0)?</title>
<ellipse fill="gray" stroke="black" cx="60.04" cy="-162" rx="60.09" ry="18"/>
<text text-anchor="middle" x="60.04" y="-159.8" font-family="Times,serif" font-size="9.00">0 at pos (0.0, 0.05, 0.0)?</text>
</g>
<!-- Fallback&#45;&gt;0 at pos (0.0, 0.05, 0.0)? -->
<g id="edge2" class="edge">
<title>Fallback&#45;&gt;0 at pos (0.0, 0.05, 0.0)?</title>
<path fill="none" stroke="black" d="M223.08,-223.7C193.19,-212.58 142.54,-193.72 105.62,-179.97"/>
<polygon fill="black" stroke="black" points="106.66,-176.62 96.07,-176.41 104.22,-183.18 106.66,-176.62"/>
</g>
<!-- place at (0.0, 0.05, 0.0)! -->
<g id="node4" class="node">
<title>place at (0.0, 0.05, 0.0)!</title>
<ellipse fill="gray" stroke="black" cx="196.04" cy="-162" rx="58.13" ry="18"/>
<text text-anchor="middle" x="196.04" y="-159.8" font-family="Times,serif" font-size="9.00">place at (0.0, 0.05, 0.0)!</text>
</g>
<!-- Fallback&#45;&gt;place at (0.0, 0.05, 0.0)! -->
<g id="edge3" class="edge">
<title>Fallback&#45;&gt;place at (0.0, 0.05, 0.0)!</title>
<path fill="none" stroke="black" d="M235.46,-216.05C229.2,-207.63 221.51,-197.28 214.59,-187.97"/>
<polygon fill="black" stroke="black" points="217.29,-185.73 208.52,-179.79 211.67,-189.9 217.29,-185.73"/>
</g>
<!-- pick 0! -->
<g id="node5" class="node">
<title>pick 0!</title>
<ellipse fill="gray" stroke="black" cx="299.04" cy="-162" rx="27" ry="18"/>
<text text-anchor="middle" x="299.04" y="-159.8" font-family="Times,serif" font-size="9.00">pick 0!</text>
</g>
<!-- Fallback&#45;&gt;pick 0! -->
<g id="edge4" class="edge">
<title>Fallback&#45;&gt;pick 0!</title>
<path fill="none" stroke="black" d="M260.39,-216.05C266.71,-207.38 274.51,-196.67 281.45,-187.15"/>
<polygon fill="black" stroke="black" points="284.45,-188.97 287.51,-178.83 278.79,-184.85 284.45,-188.97"/>
</g>
<!-- 1 at pos (0.0, 0.05, 0.0192)? -->
<g id="node7" class="node">
<title>1 at pos (0.0, 0.05, 0.0192)?</title>
<ellipse fill="gray" stroke="black" cx="412.04" cy="-162" rx="67.6" ry="18"/>
<text text-anchor="middle" x="412.04" y="-159.8" font-family="Times,serif" font-size="9.00">1 at pos (0.0, 0.05, 0.0192)?</text>
</g>
<!-- Fallback*&#45;&gt;1 at pos (0.0, 0.05, 0.0192)? -->
<g id="edge6" class="edge">
<title>Fallback*&#45;&gt;1 at pos (0.0, 0.05, 0.0192)?</title>
<path fill="none" stroke="black" d="M457.83,-216.41C450.46,-207.82 441.32,-197.16 433.15,-187.63"/>
<polygon fill="black" stroke="black" points="435.74,-185.27 426.58,-179.96 430.43,-189.83 435.74,-185.27"/>
</g>
<!-- Sequence* -->
<g id="node8" class="node">
<title>Sequence*</title>
<polygon fill="cyan" stroke="black" points="566.29,-154.54 566.29,-169.46 546.23,-180 517.86,-180 497.8,-169.46 497.8,-154.54 517.86,-144 546.23,-144 566.29,-154.54"/>
<text text-anchor="middle" x="532.04" y="-159.8" font-family="Times,serif" font-size="9.00">Sequence*</text>
</g>
<!-- Fallback*&#45;&gt;Sequence* -->
<g id="edge7" class="edge">
<title>Fallback*&#45;&gt;Sequence*</title>
<path fill="none" stroke="black" d="M486.26,-216.41C493.63,-207.82 502.76,-197.16 510.94,-187.63"/>
<polygon fill="black" stroke="black" points="513.66,-189.83 517.51,-179.96 508.35,-185.27 513.66,-189.83"/>
</g>
<!-- place on 0! -->
<g id="node14" class="node">
<title>place on 0!</title>
<ellipse fill="gray" stroke="black" cx="617.04" cy="-162" rx="32.16" ry="18"/>
<text text-anchor="middle" x="617.04" y="-159.8" font-family="Times,serif" font-size="9.00">place on 0!</text>
</g>
<!-- Fallback*&#45;&gt;place on 0! -->
<g id="edge13" class="edge">
<title>Fallback*&#45;&gt;place on 0!</title>
<path fill="none" stroke="black" d="M495.34,-221.75C519.4,-210.14 557.15,-191.91 584.23,-178.84"/>
<polygon fill="black" stroke="black" points="585.84,-181.95 593.32,-174.45 582.8,-175.65 585.84,-181.95"/>
</g>
<!-- Fallback** -->
<g id="node9" class="node">
<title>Fallback**</title>
<polygon fill="cyan" stroke="black" points="521.04,-82.54 521.04,-97.46 500.54,-108 471.55,-108 451.05,-97.46 451.05,-82.54 471.55,-72 500.54,-72 521.04,-82.54"/>
<text text-anchor="middle" x="486.04" y="-87.8" font-family="Times,serif" font-size="9.00">Fallback**</text>
</g>
<!-- Sequence*&#45;&gt;Fallback** -->
<g id="edge8" class="edge">
<title>Sequence*&#45;&gt;Fallback**</title>
<path fill="none" stroke="black" d="M520.67,-143.7C515.33,-135.56 508.84,-125.69 502.93,-116.7"/>
<polygon fill="black" stroke="black" points="505.7,-114.54 497.28,-108.1 499.85,-118.38 505.7,-114.54"/>
</g>
<!-- apply force 1! -->
<g id="node13" class="node">
<title>apply force 1!</title>
<ellipse fill="gray" stroke="black" cx="577.04" cy="-90" rx="38.21" ry="18"/>
<text text-anchor="middle" x="577.04" y="-87.8" font-family="Times,serif" font-size="9.00">apply force 1!</text>
</g>
<!-- Sequence*&#45;&gt;apply force 1! -->
<g id="edge12" class="edge">
<title>Sequence*&#45;&gt;apply force 1!</title>
<path fill="none" stroke="black" d="M543.17,-143.7C548.48,-135.44 554.93,-125.39 560.78,-116.3"/>
<polygon fill="black" stroke="black" points="563.9,-117.93 566.36,-107.62 558.01,-114.14 563.9,-117.93"/>
</g>
<!-- 1 on 0? -->
<g id="node10" class="node">
<title>1 on 0?</title>
<ellipse fill="gray" stroke="black" cx="414.04" cy="-18" rx="27" ry="18"/>
<text text-anchor="middle" x="414.04" y="-15.8" font-family="Times,serif" font-size="9.00">1 on 0?</text>
</g>
<!-- Fallback**&#45;&gt;1 on 0? -->
<g id="edge9" class="edge">
<title>Fallback**&#45;&gt;1 on 0?</title>
<path fill="none" stroke="black" d="M469.35,-72.76C459.45,-63.14 446.79,-50.84 436.09,-40.43"/>
<polygon fill="black" stroke="black" points="438.31,-37.71 428.7,-33.25 433.43,-42.73 438.31,-37.71"/>
</g>
<!-- pick 1! -->
<g id="node11" class="node">
<title>pick 1!</title>
<ellipse fill="gray" stroke="black" cx="486.04" cy="-18" rx="27" ry="18"/>
<text text-anchor="middle" x="486.04" y="-15.8" font-family="Times,serif" font-size="9.00">pick 1!</text>
</g>
<!-- Fallback**&#45;&gt;pick 1! -->
<g id="edge10" class="edge">
<title>Fallback**&#45;&gt;pick 1!</title>
<path fill="none" stroke="black" d="M486.04,-71.7C486.04,-63.98 486.04,-54.71 486.04,-46.11"/>
<polygon fill="black" stroke="black" points="489.54,-46.1 486.04,-36.1 482.54,-46.1 489.54,-46.1"/>
</g>
<!-- 2 on 1? -->
<g id="node12" class="node">
<title>2 on 1?</title>
<ellipse fill="gray" stroke="black" cx="558.04" cy="-18" rx="27" ry="18"/>
<text text-anchor="middle" x="558.04" y="-15.8" font-family="Times,serif" font-size="9.00">2 on 1?</text>
</g>
<!-- Fallback**&#45;&gt;2 on 1? -->
<g id="edge11" class="edge">
<title>Fallback**&#45;&gt;2 on 1?</title>
<path fill="none" stroke="black" d="M502.74,-72.76C512.64,-63.14 525.3,-50.84 536,-40.43"/>
<polygon fill="black" stroke="black" points="538.66,-42.73 543.39,-33.25 533.78,-37.71 538.66,-42.73"/>
</g>
</g>
</svg>
