<?xml version="1.0" encoding="UTF-8" standalone="no"?>
<!DOCTYPE svg PUBLIC "-//W3C//DTD SVG 1.1//EN"
 "http://www.w3.org/Graphics/SVG/1.1/DTD/svg11.dtd">
<!-- Generated by graphviz version 2.43.0 (0)
 -->
<!-- Title: pastafarianism Pages: 1 -->
<svg width="792pt" height="476pt"
 viewBox="0.00 0.00 791.56 476.00" xmlns="http://www.w3.org/2000/svg" xmlns:xlink="http://www.w3.org/1999/xlink">
<g id="graph0" class="graph" transform="scale(1 1) rotate(0) translate(4 472)">
<title>pastafarianism</title>
<polygon fill="white" stroke="transparent" points="-4,4 -4,-472 787.56,-472 787.56,4 -4,4"/>
<!-- Fallback -->
<g id="node1" class="node">
<title>Fallback</title>
<polygon fill="cyan" stroke="black" points="550.84,-442.54 550.84,-457.46 533.71,-468 509.49,-468 492.36,-457.46 492.36,-442.54 509.49,-432 533.71,-432 550.84,-442.54"/>
<text text-anchor="middle" x="521.6" y="-447.8" font-family="Times,serif" font-size="9.00">Fallback</text>
</g>
<!-- ReachGoal? -->
<g id="node2" class="node">
<title>ReachGoal?</title>
<ellipse fill="gray" stroke="black" cx="351.6" cy="-378" rx="34.13" ry="18"/>
<text text-anchor="middle" x="351.6" y="-375.8" font-family="Times,serif" font-size="9.00">ReachGoal?</text>
</g>
<!-- Fallback&#45;&gt;ReachGoal? -->
<g id="edge1" class="edge">
<title>Fallback&#45;&gt;ReachGoal?</title>
<path fill="none" stroke="black" d="M497.6,-439.12C468.78,-427.25 420.18,-407.24 387.03,-393.59"/>
<polygon fill="black" stroke="black" points="388.28,-390.32 377.7,-389.75 385.62,-396.79 388.28,-390.32"/>
</g>
<!-- Sequence -->
<g id="node3" class="node">
<title>Sequence</title>
<polygon fill="cyan" stroke="black" points="466.09,-370.54 466.09,-385.46 447.64,-396 421.55,-396 403.11,-385.46 403.11,-370.54 421.55,-360 447.64,-360 466.09,-370.54"/>
<text text-anchor="middle" x="434.6" y="-375.8" font-family="Times,serif" font-size="9.00">Sequence</text>
</g>
<!-- Fallback&#45;&gt;Sequence -->
<g id="edge2" class="edge">
<title>Fallback&#45;&gt;Sequence</title>
<path fill="none" stroke="black" d="M503.99,-434.83C491.46,-424.75 474.41,-411.03 460.35,-399.72"/>
<polygon fill="black" stroke="black" points="462.46,-396.93 452.48,-393.38 458.07,-402.38 462.46,-396.93"/>
</g>
<!-- LkGraph?*** -->
<g id="node22" class="node">
<title>LkGraph?***</title>
<ellipse fill="gray" stroke="black" cx="521.6" cy="-378" rx="38.21" ry="18"/>
<text text-anchor="middle" x="521.6" y="-375.8" font-family="Times,serif" font-size="9.00">LkGraph?***</text>
</g>
<!-- Fallback&#45;&gt;LkGraph?*** -->
<g id="edge21" class="edge">
<title>Fallback&#45;&gt;LkGraph?***</title>
<path fill="none" stroke="black" d="M521.6,-431.7C521.6,-423.98 521.6,-414.71 521.6,-406.11"/>
<polygon fill="black" stroke="black" points="525.1,-406.1 521.6,-396.1 518.1,-406.1 525.1,-406.1"/>
</g>
<!-- ReachGoal?*** -->
<g id="node23" class="node">
<title>ReachGoal?***</title>
<ellipse fill="gray" stroke="black" cx="619.6" cy="-378" rx="42.29" ry="18"/>
<text text-anchor="middle" x="619.6" y="-375.8" font-family="Times,serif" font-size="9.00">ReachGoal?***</text>
</g>
<!-- Fallback&#45;&gt;ReachGoal?*** -->
<g id="edge22" class="edge">
<title>Fallback&#45;&gt;ReachGoal?***</title>
<path fill="none" stroke="black" d="M540.03,-435.83C554.29,-425.65 574.3,-411.36 590.69,-399.65"/>
<polygon fill="black" stroke="black" points="592.77,-402.46 598.87,-393.8 588.7,-396.77 592.77,-402.46"/>
</g>
<!-- NotReadyForSG?** -->
<g id="node24" class="node">
<title>NotReadyForSG?**</title>
<ellipse fill="gray" stroke="black" cx="731.6" cy="-378" rx="51.92" ry="18"/>
<text text-anchor="middle" x="731.6" y="-375.8" font-family="Times,serif" font-size="9.00">NotReadyForSG?**</text>
</g>
<!-- Fallback&#45;&gt;NotReadyForSG?** -->
<g id="edge23" class="edge">
<title>Fallback&#45;&gt;NotReadyForSG?**</title>
<path fill="none" stroke="black" d="M547.77,-440.28C582.35,-428.75 643.81,-408.26 686.08,-394.17"/>
<polygon fill="black" stroke="black" points="687.21,-397.49 695.59,-391 684.99,-390.85 687.21,-397.49"/>
</g>
<!-- Fallback* -->
<g id="node4" class="node">
<title>Fallback*</title>
<polygon fill="cyan" stroke="black" points="424.34,-298.54 424.34,-313.46 405.75,-324 379.45,-324 360.86,-313.46 360.86,-298.54 379.45,-288 405.75,-288 424.34,-298.54"/>
<text text-anchor="middle" x="392.6" y="-303.8" font-family="Times,serif" font-size="9.00">Fallback*</text>
</g>
<!-- Sequence&#45;&gt;Fallback* -->
<g id="edge3" class="edge">
<title>Sequence&#45;&gt;Fallback*</title>
<path fill="none" stroke="black" d="M424.22,-359.7C419.33,-351.56 413.41,-341.69 408.02,-332.7"/>
<polygon fill="black" stroke="black" points="411.01,-330.88 402.86,-324.1 405.01,-334.48 411.01,-330.88"/>
</g>
<!-- MoveTo!** -->
<g id="node21" class="node">
<title>MoveTo!**</title>
<ellipse fill="gray" stroke="black" cx="476.6" cy="-306" rx="34.13" ry="18"/>
<text text-anchor="middle" x="476.6" y="-303.8" font-family="Times,serif" font-size="9.00">MoveTo!**</text>
</g>
<!-- Sequence&#45;&gt;MoveTo!** -->
<g id="edge20" class="edge">
<title>Sequence&#45;&gt;MoveTo!**</title>
<path fill="none" stroke="black" d="M444.98,-359.7C449.94,-351.44 455.96,-341.39 461.42,-332.3"/>
<polygon fill="black" stroke="black" points="464.48,-334 466.63,-323.62 458.48,-330.4 464.48,-334"/>
</g>
<!-- Sequence* -->
<g id="node5" class="node">
<title>Sequence*</title>
<polygon fill="cyan" stroke="black" points="221.84,-226.54 221.84,-241.46 201.78,-252 173.42,-252 153.36,-241.46 153.36,-226.54 173.42,-216 201.78,-216 221.84,-226.54"/>
<text text-anchor="middle" x="187.6" y="-231.8" font-family="Times,serif" font-size="9.00">Sequence*</text>
</g>
<!-- Fallback*&#45;&gt;Sequence* -->
<g id="edge4" class="edge">
<title>Fallback*&#45;&gt;Sequence*</title>
<path fill="none" stroke="black" d="M364.62,-296.41C332.19,-286.32 277.22,-268.83 230.6,-252 228.22,-251.14 225.78,-250.24 223.32,-249.31"/>
<polygon fill="black" stroke="black" points="224.47,-246 213.88,-245.68 221.96,-252.54 224.47,-246"/>
</g>
<!-- NotReadyForSG?* -->
<g id="node17" class="node">
<title>NotReadyForSG?*</title>
<ellipse fill="gray" stroke="black" cx="289.6" cy="-234" rx="49.8" ry="18"/>
<text text-anchor="middle" x="289.6" y="-231.8" font-family="Times,serif" font-size="9.00">NotReadyForSG?*</text>
</g>
<!-- Fallback*&#45;&gt;NotReadyForSG?* -->
<g id="edge16" class="edge">
<title>Fallback*&#45;&gt;NotReadyForSG?*</title>
<path fill="none" stroke="black" d="M372.74,-291.5C357.91,-281.42 337.35,-267.45 320.39,-255.93"/>
<polygon fill="black" stroke="black" points="322.14,-252.88 311.9,-250.16 318.2,-258.67 322.14,-252.88"/>
</g>
<!-- LkGraph?** -->
<g id="node18" class="node">
<title>LkGraph?**</title>
<ellipse fill="gray" stroke="black" cx="392.6" cy="-234" rx="35.59" ry="18"/>
<text text-anchor="middle" x="392.6" y="-231.8" font-family="Times,serif" font-size="9.00">LkGraph?**</text>
</g>
<!-- Fallback*&#45;&gt;LkGraph?** -->
<g id="edge17" class="edge">
<title>Fallback*&#45;&gt;LkGraph?**</title>
<path fill="none" stroke="black" d="M392.6,-287.7C392.6,-279.98 392.6,-270.71 392.6,-262.11"/>
<polygon fill="black" stroke="black" points="396.1,-262.1 392.6,-252.1 389.1,-262.1 396.1,-262.1"/>
</g>
<!-- LkClose? -->
<g id="node19" class="node">
<title>LkClose?</title>
<ellipse fill="gray" stroke="black" cx="475.6" cy="-234" rx="28.74" ry="18"/>
<text text-anchor="middle" x="475.6" y="-231.8" font-family="Times,serif" font-size="9.00">LkClose?</text>
</g>
<!-- Fallback*&#45;&gt;LkClose? -->
<g id="edge18" class="edge">
<title>Fallback*&#45;&gt;LkClose?</title>
<path fill="none" stroke="black" d="M410.2,-290.15C422.18,-280.05 438.19,-266.55 451.37,-255.43"/>
<polygon fill="black" stroke="black" points="453.76,-257.99 459.15,-248.87 449.25,-252.64 453.76,-257.99"/>
</g>
<!-- GetSubGoal! -->
<g id="node20" class="node">
<title>GetSubGoal!</title>
<ellipse fill="gray" stroke="black" cx="559.6" cy="-234" rx="36.9" ry="18"/>
<text text-anchor="middle" x="559.6" y="-231.8" font-family="Times,serif" font-size="9.00">GetSubGoal!</text>
</g>
<!-- Fallback*&#45;&gt;GetSubGoal! -->
<g id="edge19" class="edge">
<title>Fallback*&#45;&gt;GetSubGoal!</title>
<path fill="none" stroke="black" d="M417.6,-294.52C445.56,-282.8 491.09,-263.72 523.04,-250.32"/>
<polygon fill="black" stroke="black" points="524.61,-253.46 532.48,-246.37 521.91,-247 524.61,-253.46"/>
</g>
<!-- ReachGoal?* -->
<g id="node6" class="node">
<title>ReachGoal?*</title>
<ellipse fill="gray" stroke="black" cx="41.6" cy="-162" rx="36.9" ry="18"/>
<text text-anchor="middle" x="41.6" y="-159.8" font-family="Times,serif" font-size="9.00">ReachGoal?*</text>
</g>
<!-- Sequence*&#45;&gt;ReachGoal?* -->
<g id="edge5" class="edge">
<title>Sequence*&#45;&gt;ReachGoal?*</title>
<path fill="none" stroke="black" d="M163.16,-221.28C139.34,-209.86 102.9,-192.39 76.13,-179.56"/>
<polygon fill="black" stroke="black" points="77.63,-176.39 67.1,-175.23 74.6,-182.7 77.63,-176.39"/>
</g>
<!-- CompLkGraph! -->
<g id="node7" class="node">
<title>CompLkGraph!</title>
<ellipse fill="gray" stroke="black" cx="139.6" cy="-162" rx="42.95" ry="18"/>
<text text-anchor="middle" x="139.6" y="-159.8" font-family="Times,serif" font-size="9.00">CompLkGraph!</text>
</g>
<!-- Sequence*&#45;&gt;CompLkGraph! -->
<g id="edge6" class="edge">
<title>Sequence*&#45;&gt;CompLkGraph!</title>
<path fill="none" stroke="black" d="M175.73,-215.7C170.01,-207.35 163.04,-197.18 156.75,-188.02"/>
<polygon fill="black" stroke="black" points="159.54,-185.89 151,-179.62 153.77,-189.85 159.54,-185.89"/>
</g>
<!-- Fallback** -->
<g id="node8" class="node">
<title>Fallback**</title>
<polygon fill="cyan" stroke="black" points="270.59,-154.54 270.59,-169.46 250.09,-180 221.11,-180 200.61,-169.46 200.61,-154.54 221.11,-144 250.09,-144 270.59,-154.54"/>
<text text-anchor="middle" x="235.6" y="-159.8" font-family="Times,serif" font-size="9.00">Fallback**</text>
</g>
<!-- Sequence*&#45;&gt;Fallback** -->
<g id="edge7" class="edge">
<title>Sequence*&#45;&gt;Fallback**</title>
<path fill="none" stroke="black" d="M199.46,-215.7C205.1,-207.47 211.95,-197.48 218.17,-188.42"/>
<polygon fill="black" stroke="black" points="221.1,-190.33 223.87,-180.1 215.33,-186.37 221.1,-190.33"/>
</g>
<!-- NotReadyForSG? -->
<g id="node16" class="node">
<title>NotReadyForSG?</title>
<ellipse fill="gray" stroke="black" cx="335.6" cy="-162" rx="46.53" ry="18"/>
<text text-anchor="middle" x="335.6" y="-159.8" font-family="Times,serif" font-size="9.00">NotReadyForSG?</text>
</g>
<!-- Sequence*&#45;&gt;NotReadyForSG? -->
<g id="edge15" class="edge">
<title>Sequence*&#45;&gt;NotReadyForSG?</title>
<path fill="none" stroke="black" d="M212.37,-221.28C235.78,-210.21 271.21,-193.45 298.09,-180.74"/>
<polygon fill="black" stroke="black" points="299.66,-183.87 307.2,-176.43 296.67,-177.54 299.66,-183.87"/>
</g>
<!-- Sequence** -->
<g id="node9" class="node">
<title>Sequence**</title>
<polygon fill="cyan" stroke="black" points="144.34,-82.54 144.34,-97.46 122.82,-108 92.38,-108 70.86,-97.46 70.86,-82.54 92.38,-72 122.82,-72 144.34,-82.54"/>
<text text-anchor="middle" x="107.6" y="-87.8" font-family="Times,serif" font-size="9.00">Sequence**</text>
</g>
<!-- Fallback**&#45;&gt;Sequence** -->
<g id="edge8" class="edge">
<title>Fallback**&#45;&gt;Sequence**</title>
<path fill="none" stroke="black" d="M212.42,-148.32C192.28,-137.31 162.9,-121.24 140.36,-108.92"/>
<polygon fill="black" stroke="black" points="141.93,-105.78 131.47,-104.06 138.57,-111.93 141.93,-105.78"/>
</g>
<!-- MoveTo!* -->
<g id="node13" class="node">
<title>MoveTo!*</title>
<ellipse fill="gray" stroke="black" cx="194.6" cy="-90" rx="31.51" ry="18"/>
<text text-anchor="middle" x="194.6" y="-87.8" font-family="Times,serif" font-size="9.00">MoveTo!*</text>
</g>
<!-- Fallback**&#45;&gt;MoveTo!* -->
<g id="edge12" class="edge">
<title>Fallback**&#45;&gt;MoveTo!*</title>
<path fill="none" stroke="black" d="M225.46,-143.7C220.63,-135.44 214.74,-125.39 209.42,-116.3"/>
<polygon fill="black" stroke="black" points="212.41,-114.48 204.34,-107.62 206.37,-118.02 212.41,-114.48"/>
</g>
<!-- LkGraph?* -->
<g id="node14" class="node">
<title>LkGraph?*</title>
<ellipse fill="gray" stroke="black" cx="277.6" cy="-90" rx="32.82" ry="18"/>
<text text-anchor="middle" x="277.6" y="-87.8" font-family="Times,serif" font-size="9.00">LkGraph?*</text>
</g>
<!-- Fallback**&#45;&gt;LkGraph?* -->
<g id="edge13" class="edge">
<title>Fallback**&#45;&gt;LkGraph?*</title>
<path fill="none" stroke="black" d="M245.98,-143.7C250.94,-135.44 256.96,-125.39 262.42,-116.3"/>
<polygon fill="black" stroke="black" points="265.48,-118 267.63,-107.62 259.48,-114.4 265.48,-118"/>
</g>
<!-- CompLkGraph!* -->
<g id="node15" class="node">
<title>CompLkGraph!*</title>
<ellipse fill="gray" stroke="black" cx="373.6" cy="-90" rx="45.07" ry="18"/>
<text text-anchor="middle" x="373.6" y="-87.8" font-family="Times,serif" font-size="9.00">CompLkGraph!*</text>
</g>
<!-- Fallback**&#45;&gt;CompLkGraph!* -->
<g id="edge14" class="edge">
<title>Fallback**&#45;&gt;CompLkGraph!*</title>
<path fill="none" stroke="black" d="M259.64,-148.81C281.14,-137.9 312.96,-121.76 337.51,-109.31"/>
<polygon fill="black" stroke="black" points="339.2,-112.38 346.53,-104.73 336.03,-106.13 339.2,-112.38"/>
</g>
<!-- LkGraph? -->
<g id="node10" class="node">
<title>LkGraph?</title>
<ellipse fill="gray" stroke="black" cx="30.6" cy="-18" rx="30.7" ry="18"/>
<text text-anchor="middle" x="30.6" y="-15.8" font-family="Times,serif" font-size="9.00">LkGraph?</text>
</g>
<!-- Sequence**&#45;&gt;LkGraph? -->
<g id="edge9" class="edge">
<title>Sequence**&#45;&gt;LkGraph?</title>
<path fill="none" stroke="black" d="M89.74,-72.76C79.13,-63.12 65.54,-50.77 54.07,-40.34"/>
<polygon fill="black" stroke="black" points="56.28,-37.62 46.53,-33.48 51.58,-42.8 56.28,-37.62"/>
</g>
<!-- MoveTo! -->
<g id="node11" class="node">
<title>MoveTo!</title>
<ellipse fill="gray" stroke="black" cx="107.6" cy="-18" rx="28.74" ry="18"/>
<text text-anchor="middle" x="107.6" y="-15.8" font-family="Times,serif" font-size="9.00">MoveTo!</text>
</g>
<!-- Sequence**&#45;&gt;MoveTo! -->
<g id="edge10" class="edge">
<title>Sequence**&#45;&gt;MoveTo!</title>
<path fill="none" stroke="black" d="M107.6,-71.7C107.6,-63.98 107.6,-54.71 107.6,-46.11"/>
<polygon fill="black" stroke="black" points="111.1,-46.1 107.6,-36.1 104.1,-46.1 111.1,-46.1"/>
</g>
<!-- ReachGoal?** -->
<g id="node12" class="node">
<title>ReachGoal?**</title>
<ellipse fill="gray" stroke="black" cx="193.6" cy="-18" rx="39.02" ry="18"/>
<text text-anchor="middle" x="193.6" y="-15.8" font-family="Times,serif" font-size="9.00">ReachGoal?**</text>
</g>
<!-- Sequence**&#45;&gt;ReachGoal?** -->
<g id="edge11" class="edge">
<title>Sequence**&#45;&gt;ReachGoal?**</title>
<path fill="none" stroke="black" d="M126.69,-73.46C138.65,-63.72 154.24,-51.04 167.36,-40.36"/>
<polygon fill="black" stroke="black" points="169.61,-43.04 175.16,-34.01 165.19,-37.61 169.61,-43.04"/>
</g>
</g>
</svg>
