<?xml version="1.0" encoding="UTF-8" standalone="no"?>
<!DOCTYPE svg PUBLIC "-//W3C//DTD SVG 1.1//EN"
 "http://www.w3.org/Graphics/SVG/1.1/DTD/svg11.dtd">
<!-- Generated by graphviz version 2.43.0 (0)
 -->
<!-- Title: pastafarianism Pages: 1 -->
<svg width="979pt" height="476pt"
 viewBox="0.00 0.00 978.60 476.00" xmlns="http://www.w3.org/2000/svg" xmlns:xlink="http://www.w3.org/1999/xlink">
<g id="graph0" class="graph" transform="scale(1 1) rotate(0) translate(4 472)">
<title>pastafarianism</title>
<polygon fill="white" stroke="transparent" points="-4,4 -4,-472 974.6,-472 974.6,4 -4,4"/>
<!-- Fallback -->
<g id="node1" class="node">
<title>Fallback</title>
<polygon fill="cyan" stroke="black" points="572.84,-442.54 572.84,-457.46 555.71,-468 531.49,-468 514.36,-457.46 514.36,-442.54 531.49,-432 555.71,-432 572.84,-442.54"/>
<text text-anchor="middle" x="543.6" y="-447.8" font-family="Times,serif" font-size="9.00">Fallback</text>
</g>
<!-- ReachGoal? -->
<g id="node2" class="node">
<title>ReachGoal?</title>
<ellipse fill="gray" stroke="black" cx="373.6" cy="-378" rx="34.13" ry="18"/>
<text text-anchor="middle" x="373.6" y="-375.8" font-family="Times,serif" font-size="9.00">ReachGoal?</text>
</g>
<!-- Fallback&#45;&gt;ReachGoal? -->
<g id="edge1" class="edge">
<title>Fallback&#45;&gt;ReachGoal?</title>
<path fill="none" stroke="black" d="M519.6,-439.12C490.78,-427.25 442.18,-407.24 409.03,-393.59"/>
<polygon fill="black" stroke="black" points="410.28,-390.32 399.7,-389.75 407.62,-396.79 410.28,-390.32"/>
</g>
<!-- Sequence -->
<g id="node3" class="node">
<title>Sequence</title>
<polygon fill="cyan" stroke="black" points="488.09,-370.54 488.09,-385.46 469.64,-396 443.55,-396 425.11,-385.46 425.11,-370.54 443.55,-360 469.64,-360 488.09,-370.54"/>
<text text-anchor="middle" x="456.6" y="-375.8" font-family="Times,serif" font-size="9.00">Sequence</text>
</g>
<!-- Fallback&#45;&gt;Sequence -->
<g id="edge2" class="edge">
<title>Fallback&#45;&gt;Sequence</title>
<path fill="none" stroke="black" d="M525.99,-434.83C513.46,-424.75 496.41,-411.03 482.35,-399.72"/>
<polygon fill="black" stroke="black" points="484.46,-396.93 474.48,-393.38 480.07,-402.38 484.46,-396.93"/>
</g>
<!-- LkGraph?*** -->
<g id="node22" class="node">
<title>LkGraph?***</title>
<ellipse fill="gray" stroke="black" cx="543.6" cy="-378" rx="38.21" ry="18"/>
<text text-anchor="middle" x="543.6" y="-375.8" font-family="Times,serif" font-size="9.00">LkGraph?***</text>
</g>
<!-- Fallback&#45;&gt;LkGraph?*** -->
<g id="edge21" class="edge">
<title>Fallback&#45;&gt;LkGraph?***</title>
<path fill="none" stroke="black" d="M543.6,-431.7C543.6,-423.98 543.6,-414.71 543.6,-406.11"/>
<polygon fill="black" stroke="black" points="547.1,-406.1 543.6,-396.1 540.1,-406.1 547.1,-406.1"/>
</g>
<!-- ReachGoal?*** -->
<g id="node23" class="node">
<title>ReachGoal?***</title>
<ellipse fill="gray" stroke="black" cx="641.6" cy="-378" rx="42.29" ry="18"/>
<text text-anchor="middle" x="641.6" y="-375.8" font-family="Times,serif" font-size="9.00">ReachGoal?***</text>
</g>
<!-- Fallback&#45;&gt;ReachGoal?*** -->
<g id="edge22" class="edge">
<title>Fallback&#45;&gt;ReachGoal?***</title>
<path fill="none" stroke="black" d="M562.03,-435.83C576.29,-425.65 596.3,-411.36 612.69,-399.65"/>
<polygon fill="black" stroke="black" points="614.77,-402.46 620.87,-393.8 610.7,-396.77 614.77,-402.46"/>
</g>
<!-- Sequence*** -->
<g id="node24" class="node">
<title>Sequence***</title>
<polygon fill="cyan" stroke="black" points="781.59,-370.54 781.59,-385.46 758.16,-396 725.04,-396 701.61,-385.46 701.61,-370.54 725.04,-360 758.16,-360 781.59,-370.54"/>
<text text-anchor="middle" x="741.6" y="-375.8" font-family="Times,serif" font-size="9.00">Sequence***</text>
</g>
<!-- Fallback&#45;&gt;Sequence*** -->
<g id="edge23" class="edge">
<title>Fallback&#45;&gt;Sequence***</title>
<path fill="none" stroke="black" d="M569.08,-439.99C602.59,-428.15 661.84,-407.2 701.41,-393.21"/>
<polygon fill="black" stroke="black" points="702.76,-396.44 711.02,-389.81 700.43,-389.84 702.76,-396.44"/>
</g>
<!-- Fallback* -->
<g id="node4" class="node">
<title>Fallback*</title>
<polygon fill="cyan" stroke="black" points="423.34,-298.54 423.34,-313.46 404.75,-324 378.45,-324 359.86,-313.46 359.86,-298.54 378.45,-288 404.75,-288 423.34,-298.54"/>
<text text-anchor="middle" x="391.6" y="-303.8" font-family="Times,serif" font-size="9.00">Fallback*</text>
</g>
<!-- Sequence&#45;&gt;Fallback* -->
<g id="edge3" class="edge">
<title>Sequence&#45;&gt;Fallback*</title>
<path fill="none" stroke="black" d="M441.52,-360.76C433.24,-351.84 422.81,-340.61 413.62,-330.72"/>
<polygon fill="black" stroke="black" points="415.96,-328.09 406.59,-323.15 410.83,-332.86 415.96,-328.09"/>
</g>
<!-- MoveTo!* -->
<g id="node21" class="node">
<title>MoveTo!*</title>
<ellipse fill="gray" stroke="black" cx="473.6" cy="-306" rx="31.51" ry="18"/>
<text text-anchor="middle" x="473.6" y="-303.8" font-family="Times,serif" font-size="9.00">MoveTo!*</text>
</g>
<!-- Sequence&#45;&gt;MoveTo!* -->
<g id="edge20" class="edge">
<title>Sequence&#45;&gt;MoveTo!*</title>
<path fill="none" stroke="black" d="M460.8,-359.7C462.7,-351.9 464.98,-342.51 467.08,-333.83"/>
<polygon fill="black" stroke="black" points="470.49,-334.65 469.45,-324.1 463.68,-333 470.49,-334.65"/>
</g>
<!-- Sequence* -->
<g id="node5" class="node">
<title>Sequence*</title>
<polygon fill="cyan" stroke="black" points="268.84,-226.54 268.84,-241.46 248.78,-252 220.42,-252 200.36,-241.46 200.36,-226.54 220.42,-216 248.78,-216 268.84,-226.54"/>
<text text-anchor="middle" x="234.6" y="-231.8" font-family="Times,serif" font-size="9.00">Sequence*</text>
</g>
<!-- Fallback*&#45;&gt;Sequence* -->
<g id="edge4" class="edge">
<title>Fallback*&#45;&gt;Sequence*</title>
<path fill="none" stroke="black" d="M367.41,-294.22C341.1,-282.48 298.82,-263.63 269.05,-250.36"/>
<polygon fill="black" stroke="black" points="270.41,-247.14 259.85,-246.26 267.56,-253.53 270.41,-247.14"/>
</g>
<!-- NotReadyForSG?** -->
<g id="node18" class="node">
<title>NotReadyForSG?**</title>
<ellipse fill="gray" stroke="black" cx="338.6" cy="-234" rx="51.92" ry="18"/>
<text text-anchor="middle" x="338.6" y="-231.8" font-family="Times,serif" font-size="9.00">NotReadyForSG?**</text>
</g>
<!-- Fallback*&#45;&gt;NotReadyForSG?** -->
<g id="edge17" class="edge">
<title>Fallback*&#45;&gt;NotReadyForSG?**</title>
<path fill="none" stroke="black" d="M378.5,-287.7C372.11,-279.27 364.32,-268.97 357.33,-259.73"/>
<polygon fill="black" stroke="black" points="360.01,-257.48 351.19,-251.62 354.43,-261.71 360.01,-257.48"/>
</g>
<!-- LkGraph?** -->
<g id="node19" class="node">
<title>LkGraph?**</title>
<ellipse fill="gray" stroke="black" cx="444.6" cy="-234" rx="35.59" ry="18"/>
<text text-anchor="middle" x="444.6" y="-231.8" font-family="Times,serif" font-size="9.00">LkGraph?**</text>
</g>
<!-- Fallback*&#45;&gt;LkGraph?** -->
<g id="edge18" class="edge">
<title>Fallback*&#45;&gt;LkGraph?**</title>
<path fill="none" stroke="black" d="M404.7,-287.7C411.18,-279.14 419.11,-268.67 426.18,-259.33"/>
<polygon fill="black" stroke="black" points="429.13,-261.23 432.38,-251.14 423.55,-257 429.13,-261.23"/>
</g>
<!-- GetSubGoal! -->
<g id="node20" class="node">
<title>GetSubGoal!</title>
<ellipse fill="gray" stroke="black" cx="535.6" cy="-234" rx="36.9" ry="18"/>
<text text-anchor="middle" x="535.6" y="-231.8" font-family="Times,serif" font-size="9.00">GetSubGoal!</text>
</g>
<!-- Fallback*&#45;&gt;GetSubGoal! -->
<g id="edge19" class="edge">
<title>Fallback*&#45;&gt;GetSubGoal!</title>
<path fill="none" stroke="black" d="M415.06,-293.6C438.34,-282.28 474.29,-264.8 500.88,-251.88"/>
<polygon fill="black" stroke="black" points="502.75,-254.86 510.21,-247.34 499.69,-248.57 502.75,-254.86"/>
</g>
<!-- ReachGoal?* -->
<g id="node6" class="node">
<title>ReachGoal?*</title>
<ellipse fill="gray" stroke="black" cx="88.6" cy="-162" rx="36.9" ry="18"/>
<text text-anchor="middle" x="88.6" y="-159.8" font-family="Times,serif" font-size="9.00">ReachGoal?*</text>
</g>
<!-- Sequence*&#45;&gt;ReachGoal?* -->
<g id="edge5" class="edge">
<title>Sequence*&#45;&gt;ReachGoal?*</title>
<path fill="none" stroke="black" d="M210.16,-221.28C186.34,-209.86 149.9,-192.39 123.13,-179.56"/>
<polygon fill="black" stroke="black" points="124.63,-176.39 114.1,-175.23 121.6,-182.7 124.63,-176.39"/>
</g>
<!-- CompLkGraph! -->
<g id="node7" class="node">
<title>CompLkGraph!</title>
<ellipse fill="gray" stroke="black" cx="186.6" cy="-162" rx="42.95" ry="18"/>
<text text-anchor="middle" x="186.6" y="-159.8" font-family="Times,serif" font-size="9.00">CompLkGraph!</text>
</g>
<!-- Sequence*&#45;&gt;CompLkGraph! -->
<g id="edge6" class="edge">
<title>Sequence*&#45;&gt;CompLkGraph!</title>
<path fill="none" stroke="black" d="M222.73,-215.7C217.01,-207.35 210.04,-197.18 203.75,-188.02"/>
<polygon fill="black" stroke="black" points="206.54,-185.89 198,-179.62 200.77,-189.85 206.54,-185.89"/>
</g>
<!-- Fallback** -->
<g id="node8" class="node">
<title>Fallback**</title>
<polygon fill="cyan" stroke="black" points="317.59,-154.54 317.59,-169.46 297.09,-180 268.11,-180 247.61,-169.46 247.61,-154.54 268.11,-144 297.09,-144 317.59,-154.54"/>
<text text-anchor="middle" x="282.6" y="-159.8" font-family="Times,serif" font-size="9.00">Fallback**</text>
</g>
<!-- Sequence*&#45;&gt;Fallback** -->
<g id="edge7" class="edge">
<title>Sequence*&#45;&gt;Fallback**</title>
<path fill="none" stroke="black" d="M246.46,-215.7C252.1,-207.47 258.95,-197.48 265.17,-188.42"/>
<polygon fill="black" stroke="black" points="268.1,-190.33 270.87,-180.1 262.33,-186.37 268.1,-190.33"/>
</g>
<!-- NotReadyForSG?* -->
<g id="node17" class="node">
<title>NotReadyForSG?*</title>
<ellipse fill="gray" stroke="black" cx="385.6" cy="-162" rx="49.8" ry="18"/>
<text text-anchor="middle" x="385.6" y="-159.8" font-family="Times,serif" font-size="9.00">NotReadyForSG?*</text>
</g>
<!-- Sequence*&#45;&gt;NotReadyForSG?* -->
<g id="edge16" class="edge">
<title>Sequence*&#45;&gt;NotReadyForSG?*</title>
<path fill="none" stroke="black" d="M259.53,-221.44C283.29,-210.43 319.4,-193.69 346.89,-180.94"/>
<polygon fill="black" stroke="black" points="348.62,-184 356.22,-176.62 345.68,-177.65 348.62,-184"/>
</g>
<!-- Sequence** -->
<g id="node9" class="node">
<title>Sequence**</title>
<polygon fill="cyan" stroke="black" points="182.34,-82.54 182.34,-97.46 160.82,-108 130.38,-108 108.86,-97.46 108.86,-82.54 130.38,-72 160.82,-72 182.34,-82.54"/>
<text text-anchor="middle" x="145.6" y="-87.8" font-family="Times,serif" font-size="9.00">Sequence**</text>
</g>
<!-- Fallback**&#45;&gt;Sequence** -->
<g id="edge8" class="edge">
<title>Fallback**&#45;&gt;Sequence**</title>
<path fill="none" stroke="black" d="M258.74,-148.81C236.71,-137.55 203.78,-120.73 179.12,-108.13"/>
<polygon fill="black" stroke="black" points="180.61,-104.96 170.11,-103.52 177.42,-111.19 180.61,-104.96"/>
</g>
<!-- LkGraph?* -->
<g id="node14" class="node">
<title>LkGraph?*</title>
<ellipse fill="gray" stroke="black" cx="233.6" cy="-90" rx="32.82" ry="18"/>
<text text-anchor="middle" x="233.6" y="-87.8" font-family="Times,serif" font-size="9.00">LkGraph?*</text>
</g>
<!-- Fallback**&#45;&gt;LkGraph?* -->
<g id="edge13" class="edge">
<title>Fallback**&#45;&gt;LkGraph?*</title>
<path fill="none" stroke="black" d="M270.49,-143.7C264.56,-135.23 257.32,-124.89 250.83,-115.61"/>
<polygon fill="black" stroke="black" points="253.5,-113.33 244.9,-107.14 247.77,-117.34 253.5,-113.33"/>
</g>
<!-- NotReadyForSG? -->
<g id="node15" class="node">
<title>NotReadyForSG?</title>
<ellipse fill="gray" stroke="black" cx="331.6" cy="-90" rx="46.53" ry="18"/>
<text text-anchor="middle" x="331.6" y="-87.8" font-family="Times,serif" font-size="9.00">NotReadyForSG?</text>
</g>
<!-- Fallback**&#45;&gt;NotReadyForSG? -->
<g id="edge14" class="edge">
<title>Fallback**&#45;&gt;NotReadyForSG?</title>
<path fill="none" stroke="black" d="M294.71,-143.7C300.55,-135.35 307.67,-125.18 314.09,-116.02"/>
<polygon fill="black" stroke="black" points="317.1,-117.82 319.96,-107.62 311.36,-113.81 317.1,-117.82"/>
</g>
<!-- CompLkGraph!* -->
<g id="node16" class="node">
<title>CompLkGraph!*</title>
<ellipse fill="gray" stroke="black" cx="441.6" cy="-90" rx="45.07" ry="18"/>
<text text-anchor="middle" x="441.6" y="-87.8" font-family="Times,serif" font-size="9.00">CompLkGraph!*</text>
</g>
<!-- Fallback**&#45;&gt;CompLkGraph!* -->
<g id="edge15" class="edge">
<title>Fallback**&#45;&gt;CompLkGraph!*</title>
<path fill="none" stroke="black" d="M308.5,-149.6C334.11,-138.32 373.63,-120.93 402.95,-108.01"/>
<polygon fill="black" stroke="black" points="404.73,-111.06 412.47,-103.82 401.91,-104.65 404.73,-111.06"/>
</g>
<!-- LkGraph? -->
<g id="node10" class="node">
<title>LkGraph?</title>
<ellipse fill="gray" stroke="black" cx="30.6" cy="-18" rx="30.7" ry="18"/>
<text text-anchor="middle" x="30.6" y="-15.8" font-family="Times,serif" font-size="9.00">LkGraph?</text>
</g>
<!-- Sequence**&#45;&gt;LkGraph? -->
<g id="edge9" class="edge">
<title>Sequence**&#45;&gt;LkGraph?</title>
<path fill="none" stroke="black" d="M123.15,-75.34C105.01,-64.3 79.35,-48.67 59.65,-36.68"/>
<polygon fill="black" stroke="black" points="61.42,-33.66 51.06,-31.45 57.78,-39.64 61.42,-33.66"/>
</g>
<!-- LkClose? -->
<g id="node11" class="node">
<title>LkClose?</title>
<ellipse fill="gray" stroke="black" cx="107.6" cy="-18" rx="28.74" ry="18"/>
<text text-anchor="middle" x="107.6" y="-15.8" font-family="Times,serif" font-size="9.00">LkClose?</text>
</g>
<!-- Sequence**&#45;&gt;LkClose? -->
<g id="edge10" class="edge">
<title>Sequence**&#45;&gt;LkClose?</title>
<path fill="none" stroke="black" d="M136.21,-71.7C131.77,-63.52 126.38,-53.6 121.49,-44.58"/>
<polygon fill="black" stroke="black" points="124.47,-42.74 116.62,-35.62 118.32,-46.08 124.47,-42.74"/>
</g>
<!-- MoveTo! -->
<g id="node12" class="node">
<title>MoveTo!</title>
<ellipse fill="gray" stroke="black" cx="183.6" cy="-18" rx="28.74" ry="18"/>
<text text-anchor="middle" x="183.6" y="-15.8" font-family="Times,serif" font-size="9.00">MoveTo!</text>
</g>
<!-- Sequence**&#45;&gt;MoveTo! -->
<g id="edge11" class="edge">
<title>Sequence**&#45;&gt;MoveTo!</title>
<path fill="none" stroke="black" d="M154.99,-71.7C159.43,-63.52 164.82,-53.6 169.71,-44.58"/>
<polygon fill="black" stroke="black" points="172.88,-46.08 174.58,-35.62 166.73,-42.74 172.88,-46.08"/>
</g>
<!-- ReachGoal?** -->
<g id="node13" class="node">
<title>ReachGoal?**</title>
<ellipse fill="gray" stroke="black" cx="269.6" cy="-18" rx="39.02" ry="18"/>
<text text-anchor="middle" x="269.6" y="-15.8" font-family="Times,serif" font-size="9.00">ReachGoal?**</text>
</g>
<!-- Sequence**&#45;&gt;ReachGoal?** -->
<g id="edge12" class="edge">
<title>Sequence**&#45;&gt;ReachGoal?**</title>
<path fill="none" stroke="black" d="M168.92,-75.83C188.08,-65.02 215.43,-49.58 236.79,-37.52"/>
<polygon fill="black" stroke="black" points="238.55,-40.55 245.53,-32.58 235.11,-34.45 238.55,-40.55"/>
</g>
<!-- NotReadyForSG?*** -->
<g id="node25" class="node">
<title>NotReadyForSG?***</title>
<ellipse fill="gray" stroke="black" cx="611.6" cy="-306" rx="54.7" ry="18"/>
<text text-anchor="middle" x="611.6" y="-303.8" font-family="Times,serif" font-size="9.00">NotReadyForSG?***</text>
</g>
<!-- Sequence***&#45;&gt;NotReadyForSG?*** -->
<g id="edge24" class="edge">
<title>Sequence***&#45;&gt;NotReadyForSG?***</title>
<path fill="none" stroke="black" d="M716.84,-363.67C697.37,-353.19 669.97,-338.43 648,-326.6"/>
<polygon fill="black" stroke="black" points="649.43,-323.39 638.96,-321.73 646.11,-329.56 649.43,-323.39"/>
</g>
<!-- LkGraph?**** -->
<g id="node26" class="node">
<title>LkGraph?****</title>
<ellipse fill="gray" stroke="black" cx="725.6" cy="-306" rx="40.98" ry="18"/>
<text text-anchor="middle" x="725.6" y="-303.8" font-family="Times,serif" font-size="9.00">LkGraph?****</text>
</g>
<!-- Sequence***&#45;&gt;LkGraph?**** -->
<g id="edge25" class="edge">
<title>Sequence***&#45;&gt;LkGraph?****</title>
<path fill="none" stroke="black" d="M737.64,-359.7C735.88,-351.98 733.76,-342.71 731.8,-334.11"/>
<polygon fill="black" stroke="black" points="735.15,-333.07 729.51,-324.1 728.33,-334.63 735.15,-333.07"/>
</g>
<!-- NotReadyForSG?**** -->
<g id="node27" class="node">
<title>NotReadyForSG?****</title>
<ellipse fill="gray" stroke="black" cx="841.6" cy="-306" rx="57.32" ry="18"/>
<text text-anchor="middle" x="841.6" y="-303.8" font-family="Times,serif" font-size="9.00">NotReadyForSG?****</text>
</g>
<!-- Sequence***&#45;&gt;NotReadyForSG?**** -->
<g id="edge26" class="edge">
<title>Sequence***&#45;&gt;NotReadyForSG?****</title>
<path fill="none" stroke="black" d="M763.3,-361.81C777.26,-352.04 795.6,-339.2 811.03,-328.4"/>
<polygon fill="black" stroke="black" points="813.07,-331.25 819.25,-322.64 809.05,-325.51 813.07,-331.25"/>
</g>
<!-- GetLk! -->
<g id="node28" class="node">
<title>GetLk!</title>
<ellipse fill="gray" stroke="black" cx="943.6" cy="-306" rx="27" ry="18"/>
<text text-anchor="middle" x="943.6" y="-303.8" font-family="Times,serif" font-size="9.00">GetLk!</text>
</g>
<!-- Sequence***&#45;&gt;GetLk! -->
<g id="edge27" class="edge">
<title>Sequence***&#45;&gt;GetLk!</title>
<path fill="none" stroke="black" d="M775.44,-367.62C809.31,-357.9 862.7,-341.68 907.6,-324 909.43,-323.28 911.3,-322.51 913.18,-321.7"/>
<polygon fill="black" stroke="black" points="914.79,-324.82 922.48,-317.54 911.93,-318.43 914.79,-324.82"/>
</g>
</g>
</svg>
