<?xml version="1.0" encoding="UTF-8" standalone="no"?>
<!DOCTYPE svg PUBLIC "-//W3C//DTD SVG 1.1//EN"
 "http://www.w3.org/Graphics/SVG/1.1/DTD/svg11.dtd">
<!-- Generated by graphviz version 2.43.0 (0)
 -->
<!-- Title: pastafarianism Pages: 1 -->
<svg width="780pt" height="332pt"
 viewBox="0.00 0.00 779.52 332.00" xmlns="http://www.w3.org/2000/svg" xmlns:xlink="http://www.w3.org/1999/xlink">
<g id="graph0" class="graph" transform="scale(1 1) rotate(0) translate(4 328)">
<title>pastafarianism</title>
<polygon fill="white" stroke="transparent" points="-4,4 -4,-328 775.52,-328 775.52,4 -4,4"/>
<!-- Fallback -->
<g id="node1" class="node">
<title>Fallback</title>
<polygon fill="cyan" stroke="black" points="453.01,-298.54 453.01,-313.46 435.88,-324 411.65,-324 394.52,-313.46 394.52,-298.54 411.65,-288 435.88,-288 453.01,-298.54"/>
<text text-anchor="middle" x="423.77" y="-303.8" font-family="Times,serif" font-size="9.00">Fallback</text>
</g>
<!-- Sequence -->
<g id="node2" class="node">
<title>Sequence</title>
<polygon fill="cyan" stroke="black" points="320.26,-226.54 320.26,-241.46 301.81,-252 275.72,-252 257.27,-241.46 257.27,-226.54 275.72,-216 301.81,-216 320.26,-226.54"/>
<text text-anchor="middle" x="288.77" y="-231.8" font-family="Times,serif" font-size="9.00">Sequence</text>
</g>
<!-- Fallback&#45;&gt;Sequence -->
<g id="edge1" class="edge">
<title>Fallback&#45;&gt;Sequence</title>
<path fill="none" stroke="black" d="M402.08,-293.75C380,-282.31 345.55,-264.44 320.43,-251.42"/>
<polygon fill="black" stroke="black" points="321.79,-248.18 311.3,-246.69 318.57,-254.4 321.79,-248.18"/>
</g>
<!-- Sequence* -->
<g id="node5" class="node">
<title>Sequence*</title>
<polygon fill="cyan" stroke="black" points="416.01,-226.54 416.01,-241.46 395.95,-252 367.58,-252 347.52,-241.46 347.52,-226.54 367.58,-216 395.95,-216 416.01,-226.54"/>
<text text-anchor="middle" x="381.77" y="-231.8" font-family="Times,serif" font-size="9.00">Sequence*</text>
</g>
<!-- Fallback&#45;&gt;Sequence* -->
<g id="edge4" class="edge">
<title>Fallback&#45;&gt;Sequence*</title>
<path fill="none" stroke="black" d="M413.38,-287.7C408.5,-279.56 402.58,-269.69 397.19,-260.7"/>
<polygon fill="black" stroke="black" points="400.17,-258.88 392.03,-252.1 394.17,-262.48 400.17,-258.88"/>
</g>
<!-- LkGraph?* -->
<g id="node19" class="node">
<title>LkGraph?*</title>
<ellipse fill="gray" stroke="black" cx="466.77" cy="-234" rx="32.82" ry="18"/>
<text text-anchor="middle" x="466.77" y="-231.8" font-family="Times,serif" font-size="9.00">LkGraph?*</text>
</g>
<!-- Fallback&#45;&gt;LkGraph?* -->
<g id="edge18" class="edge">
<title>Fallback&#45;&gt;LkGraph?*</title>
<path fill="none" stroke="black" d="M434.39,-287.7C439.47,-279.44 445.64,-269.39 451.22,-260.3"/>
<polygon fill="black" stroke="black" points="454.3,-261.98 456.55,-251.62 448.34,-258.31 454.3,-261.98"/>
</g>
<!-- NotReadyForSG?*** -->
<g id="node20" class="node">
<title>NotReadyForSG?***</title>
<ellipse fill="gray" stroke="black" cx="572.77" cy="-234" rx="54.7" ry="18"/>
<text text-anchor="middle" x="572.77" y="-231.8" font-family="Times,serif" font-size="9.00">NotReadyForSG?***</text>
</g>
<!-- Fallback&#45;&gt;NotReadyForSG?*** -->
<g id="edge19" class="edge">
<title>Fallback&#45;&gt;NotReadyForSG?***</title>
<path fill="none" stroke="black" d="M446.4,-294.37C469.51,-283.51 505.84,-266.44 533.63,-253.38"/>
<polygon fill="black" stroke="black" points="535.13,-256.55 542.7,-249.13 532.16,-250.21 535.13,-256.55"/>
</g>
<!-- ReachGoal? -->
<g id="node3" class="node">
<title>ReachGoal?</title>
<ellipse fill="gray" stroke="black" cx="193.77" cy="-162" rx="34.13" ry="18"/>
<text text-anchor="middle" x="193.77" y="-159.8" font-family="Times,serif" font-size="9.00">ReachGoal?</text>
</g>
<!-- Sequence&#45;&gt;ReachGoal? -->
<g id="edge2" class="edge">
<title>Sequence&#45;&gt;ReachGoal?</title>
<path fill="none" stroke="black" d="M270,-219.17C256.04,-208.88 236.77,-194.69 221.1,-183.14"/>
<polygon fill="black" stroke="black" points="222.95,-180.15 212.82,-177.04 218.79,-185.79 222.95,-180.15"/>
</g>
<!-- CompLkGraph! -->
<g id="node4" class="node">
<title>CompLkGraph!</title>
<ellipse fill="gray" stroke="black" cx="288.77" cy="-162" rx="42.95" ry="18"/>
<text text-anchor="middle" x="288.77" y="-159.8" font-family="Times,serif" font-size="9.00">CompLkGraph!</text>
</g>
<!-- Sequence&#45;&gt;CompLkGraph! -->
<g id="edge3" class="edge">
<title>Sequence&#45;&gt;CompLkGraph!</title>
<path fill="none" stroke="black" d="M288.77,-215.7C288.77,-207.98 288.77,-198.71 288.77,-190.11"/>
<polygon fill="black" stroke="black" points="292.27,-190.1 288.77,-180.1 285.27,-190.1 292.27,-190.1"/>
</g>
<!-- Fallback* -->
<g id="node6" class="node">
<title>Fallback*</title>
<polygon fill="cyan" stroke="black" points="413.51,-154.54 413.51,-169.46 394.91,-180 368.62,-180 350.02,-169.46 350.02,-154.54 368.62,-144 394.91,-144 413.51,-154.54"/>
<text text-anchor="middle" x="381.77" y="-159.8" font-family="Times,serif" font-size="9.00">Fallback*</text>
</g>
<!-- Sequence*&#45;&gt;Fallback* -->
<g id="edge5" class="edge">
<title>Sequence*&#45;&gt;Fallback*</title>
<path fill="none" stroke="black" d="M381.77,-215.7C381.77,-207.98 381.77,-198.71 381.77,-190.11"/>
<polygon fill="black" stroke="black" points="385.27,-190.1 381.77,-180.1 378.27,-190.1 385.27,-190.1"/>
</g>
<!-- MoveTo!** -->
<g id="node18" class="node">
<title>MoveTo!**</title>
<ellipse fill="gray" stroke="black" cx="465.77" cy="-162" rx="34.13" ry="18"/>
<text text-anchor="middle" x="465.77" y="-159.8" font-family="Times,serif" font-size="9.00">MoveTo!**</text>
</g>
<!-- Sequence*&#45;&gt;MoveTo!** -->
<g id="edge17" class="edge">
<title>Sequence*&#45;&gt;MoveTo!**</title>
<path fill="none" stroke="black" d="M399.99,-217.81C411.82,-207.95 427.4,-194.97 440.42,-184.12"/>
<polygon fill="black" stroke="black" points="442.71,-186.77 448.15,-177.68 438.23,-181.39 442.71,-186.77"/>
</g>
<!-- NotReadyForSG? -->
<g id="node7" class="node">
<title>NotReadyForSG?</title>
<ellipse fill="gray" stroke="black" cx="46.77" cy="-90" rx="46.53" ry="18"/>
<text text-anchor="middle" x="46.77" y="-87.8" font-family="Times,serif" font-size="9.00">NotReadyForSG?</text>
</g>
<!-- Fallback*&#45;&gt;NotReadyForSG? -->
<g id="edge6" class="edge">
<title>Fallback*&#45;&gt;NotReadyForSG?</title>
<path fill="none" stroke="black" d="M357.83,-149.94C352.31,-147.71 346.41,-145.57 340.77,-144 237.71,-115.3 207.11,-131.6 102.77,-108 98.92,-107.13 94.95,-106.13 90.98,-105.07"/>
<polygon fill="black" stroke="black" points="91.78,-101.66 81.21,-102.31 89.88,-108.39 91.78,-101.66"/>
</g>
<!-- LkClose? -->
<g id="node8" class="node">
<title>LkClose?</title>
<ellipse fill="gray" stroke="black" cx="140.77" cy="-90" rx="28.74" ry="18"/>
<text text-anchor="middle" x="140.77" y="-87.8" font-family="Times,serif" font-size="9.00">LkClose?</text>
</g>
<!-- Fallback*&#45;&gt;LkClose? -->
<g id="edge7" class="edge">
<title>Fallback*&#45;&gt;LkClose?</title>
<path fill="none" stroke="black" d="M357.31,-150.04C351.92,-147.86 346.2,-145.72 340.77,-144 270.43,-121.79 248.79,-131.18 178.77,-108 176.65,-107.3 174.49,-106.52 172.33,-105.69"/>
<polygon fill="black" stroke="black" points="173.55,-102.41 162.97,-101.83 170.88,-108.88 173.55,-102.41"/>
</g>
<!-- Sequence** -->
<g id="node9" class="node">
<title>Sequence**</title>
<polygon fill="cyan" stroke="black" points="261.51,-82.54 261.51,-97.46 239.98,-108 209.55,-108 188.02,-97.46 188.02,-82.54 209.55,-72 239.98,-72 261.51,-82.54"/>
<text text-anchor="middle" x="224.77" y="-87.8" font-family="Times,serif" font-size="9.00">Sequence**</text>
</g>
<!-- Fallback*&#45;&gt;Sequence** -->
<g id="edge8" class="edge">
<title>Fallback*&#45;&gt;Sequence**</title>
<path fill="none" stroke="black" d="M357.58,-150.22C331.58,-138.62 289.98,-120.08 260.27,-106.83"/>
<polygon fill="black" stroke="black" points="261.64,-103.61 251.08,-102.73 258.79,-110 261.64,-103.61"/>
</g>
<!-- NotReadyForSG?* -->
<g id="node13" class="node">
<title>NotReadyForSG?*</title>
<ellipse fill="gray" stroke="black" cx="329.77" cy="-90" rx="49.8" ry="18"/>
<text text-anchor="middle" x="329.77" y="-87.8" font-family="Times,serif" font-size="9.00">NotReadyForSG?*</text>
</g>
<!-- Fallback*&#45;&gt;NotReadyForSG?* -->
<g id="edge12" class="edge">
<title>Fallback*&#45;&gt;NotReadyForSG?*</title>
<path fill="none" stroke="black" d="M368.91,-143.7C362.65,-135.27 355,-124.97 348.14,-115.73"/>
<polygon fill="black" stroke="black" points="350.89,-113.56 342.11,-107.62 345.27,-117.74 350.89,-113.56"/>
</g>
<!-- GetSubGoal! -->
<g id="node14" class="node">
<title>GetSubGoal!</title>
<ellipse fill="gray" stroke="black" cx="434.77" cy="-90" rx="36.9" ry="18"/>
<text text-anchor="middle" x="434.77" y="-87.8" font-family="Times,serif" font-size="9.00">GetSubGoal!</text>
</g>
<!-- Fallback*&#45;&gt;GetSubGoal! -->
<g id="edge13" class="edge">
<title>Fallback*&#45;&gt;GetSubGoal!</title>
<path fill="none" stroke="black" d="M394.87,-143.7C401.34,-135.14 409.27,-124.67 416.35,-115.33"/>
<polygon fill="black" stroke="black" points="419.3,-117.23 422.54,-107.14 413.71,-113 419.3,-117.23"/>
</g>
<!-- NotReadyForSG?** -->
<g id="node15" class="node">
<title>NotReadyForSG?**</title>
<ellipse fill="gray" stroke="black" cx="541.77" cy="-90" rx="51.92" ry="18"/>
<text text-anchor="middle" x="541.77" y="-87.8" font-family="Times,serif" font-size="9.00">NotReadyForSG?**</text>
</g>
<!-- Fallback*&#45;&gt;NotReadyForSG?** -->
<g id="edge14" class="edge">
<title>Fallback*&#45;&gt;NotReadyForSG?**</title>
<path fill="none" stroke="black" d="M406.41,-150.22C431.73,-139.14 471.54,-121.72 501.44,-108.64"/>
<polygon fill="black" stroke="black" points="503.01,-111.77 510.77,-104.56 500.21,-105.36 503.01,-111.77"/>
</g>
<!-- GetSubGoal!* -->
<g id="node16" class="node">
<title>GetSubGoal!*</title>
<ellipse fill="gray" stroke="black" cx="650.77" cy="-90" rx="39.02" ry="18"/>
<text text-anchor="middle" x="650.77" y="-87.8" font-family="Times,serif" font-size="9.00">GetSubGoal!*</text>
</g>
<!-- Fallback*&#45;&gt;GetSubGoal!* -->
<g id="edge15" class="edge">
<title>Fallback*&#45;&gt;GetSubGoal!*</title>
<path fill="none" stroke="black" d="M405.76,-150.13C411.27,-147.89 417.16,-145.7 422.77,-144 500.82,-120.26 524.11,-129.67 602.77,-108 605.74,-107.18 608.79,-106.27 611.85,-105.31"/>
<polygon fill="black" stroke="black" points="613.14,-108.57 621.53,-102.1 610.94,-101.92 613.14,-108.57"/>
</g>
<!-- LkClose?* -->
<g id="node17" class="node">
<title>LkClose?*</title>
<ellipse fill="gray" stroke="black" cx="739.77" cy="-90" rx="31.51" ry="18"/>
<text text-anchor="middle" x="739.77" y="-87.8" font-family="Times,serif" font-size="9.00">LkClose?*</text>
</g>
<!-- Fallback*&#45;&gt;LkClose?* -->
<g id="edge16" class="edge">
<title>Fallback*&#45;&gt;LkClose?*</title>
<path fill="none" stroke="black" d="M405.68,-149.85C411.2,-147.63 417.11,-145.51 422.77,-144 542.27,-112.03 579.26,-139.97 698.77,-108 701.24,-107.34 703.76,-106.56 706.28,-105.71"/>
<polygon fill="black" stroke="black" points="707.7,-108.92 715.85,-102.15 705.26,-102.36 707.7,-108.92"/>
</g>
<!-- LkGraph? -->
<g id="node10" class="node">
<title>LkGraph?</title>
<ellipse fill="gray" stroke="black" cx="147.77" cy="-18" rx="30.7" ry="18"/>
<text text-anchor="middle" x="147.77" y="-15.8" font-family="Times,serif" font-size="9.00">LkGraph?</text>
</g>
<!-- Sequence**&#45;&gt;LkGraph? -->
<g id="edge9" class="edge">
<title>Sequence**&#45;&gt;LkGraph?</title>
<path fill="none" stroke="black" d="M206.91,-72.76C196.29,-63.12 182.71,-50.77 171.24,-40.34"/>
<polygon fill="black" stroke="black" points="173.45,-37.62 163.7,-33.48 168.74,-42.8 173.45,-37.62"/>
</g>
<!-- MoveTo! -->
<g id="node11" class="node">
<title>MoveTo!</title>
<ellipse fill="gray" stroke="black" cx="224.77" cy="-18" rx="28.74" ry="18"/>
<text text-anchor="middle" x="224.77" y="-15.8" font-family="Times,serif" font-size="9.00">MoveTo!</text>
</g>
<!-- Sequence**&#45;&gt;MoveTo! -->
<g id="edge10" class="edge">
<title>Sequence**&#45;&gt;MoveTo!</title>
<path fill="none" stroke="black" d="M224.77,-71.7C224.77,-63.98 224.77,-54.71 224.77,-46.11"/>
<polygon fill="black" stroke="black" points="228.27,-46.1 224.77,-36.1 221.27,-46.1 228.27,-46.1"/>
</g>
<!-- MoveTo!* -->
<g id="node12" class="node">
<title>MoveTo!*</title>
<ellipse fill="gray" stroke="black" cx="303.77" cy="-18" rx="31.51" ry="18"/>
<text text-anchor="middle" x="303.77" y="-15.8" font-family="Times,serif" font-size="9.00">MoveTo!*</text>
</g>
<!-- Sequence**&#45;&gt;MoveTo!* -->
<g id="edge11" class="edge">
<title>Sequence**&#45;&gt;MoveTo!*</title>
<path fill="none" stroke="black" d="M242.69,-73.12C253.57,-63.48 267.59,-51.06 279.45,-40.54"/>
<polygon fill="black" stroke="black" points="282.09,-42.88 287.26,-33.63 277.45,-37.64 282.09,-42.88"/>
</g>
</g>
</svg>
