<?xml version="1.0" encoding="UTF-8" standalone="no"?>
<!DOCTYPE svg PUBLIC "-//W3C//DTD SVG 1.1//EN"
 "http://www.w3.org/Graphics/SVG/1.1/DTD/svg11.dtd">
<!-- Generated by graphviz version 2.43.0 (0)
 -->
<!-- Title: pastafarianism Pages: 1 -->
<svg width="902pt" height="476pt"
 viewBox="0.00 0.00 901.60 476.00" xmlns="http://www.w3.org/2000/svg" xmlns:xlink="http://www.w3.org/1999/xlink">
<g id="graph0" class="graph" transform="scale(1 1) rotate(0) translate(4 472)">
<title>pastafarianism</title>
<polygon fill="white" stroke="transparent" points="-4,4 -4,-472 897.6,-472 897.6,4 -4,4"/>
<!-- Fallback -->
<g id="node1" class="node">
<title>Fallback</title>
<polygon fill="cyan" stroke="black" points="606.84,-442.54 606.84,-457.46 589.71,-468 565.49,-468 548.36,-457.46 548.36,-442.54 565.49,-432 589.71,-432 606.84,-442.54"/>
<text text-anchor="middle" x="577.6" y="-447.8" font-family="Times,serif" font-size="9.00">Fallback</text>
</g>
<!-- ReachGoal? -->
<g id="node2" class="node">
<title>ReachGoal?</title>
<ellipse fill="gray" stroke="black" cx="404.6" cy="-378" rx="34.13" ry="18"/>
<text text-anchor="middle" x="404.6" y="-375.8" font-family="Times,serif" font-size="9.00">ReachGoal?</text>
</g>
<!-- Fallback&#45;&gt;ReachGoal? -->
<g id="edge1" class="edge">
<title>Fallback&#45;&gt;ReachGoal?</title>
<path fill="none" stroke="black" d="M553.54,-439.27C524.14,-427.37 474.11,-407.13 440.24,-393.42"/>
<polygon fill="black" stroke="black" points="441.29,-390.07 430.71,-389.56 438.67,-396.56 441.29,-390.07"/>
</g>
<!-- Sequence -->
<g id="node3" class="node">
<title>Sequence</title>
<polygon fill="cyan" stroke="black" points="519.09,-370.54 519.09,-385.46 500.64,-396 474.55,-396 456.11,-385.46 456.11,-370.54 474.55,-360 500.64,-360 519.09,-370.54"/>
<text text-anchor="middle" x="487.6" y="-375.8" font-family="Times,serif" font-size="9.00">Sequence</text>
</g>
<!-- Fallback&#45;&gt;Sequence -->
<g id="edge2" class="edge">
<title>Fallback&#45;&gt;Sequence</title>
<path fill="none" stroke="black" d="M559.82,-435.17C546.8,-425.04 528.91,-411.13 514.2,-399.69"/>
<polygon fill="black" stroke="black" points="516,-396.66 505.96,-393.28 511.71,-402.18 516,-396.66"/>
</g>
<!-- LkGraph?**** -->
<g id="node23" class="node">
<title>LkGraph?****</title>
<ellipse fill="gray" stroke="black" cx="577.6" cy="-378" rx="40.98" ry="18"/>
<text text-anchor="middle" x="577.6" y="-375.8" font-family="Times,serif" font-size="9.00">LkGraph?****</text>
</g>
<!-- Fallback&#45;&gt;LkGraph?**** -->
<g id="edge22" class="edge">
<title>Fallback&#45;&gt;LkGraph?****</title>
<path fill="none" stroke="black" d="M577.6,-431.7C577.6,-423.98 577.6,-414.71 577.6,-406.11"/>
<polygon fill="black" stroke="black" points="581.1,-406.1 577.6,-396.1 574.1,-406.1 581.1,-406.1"/>
</g>
<!-- ReachGoal?*** -->
<g id="node24" class="node">
<title>ReachGoal?***</title>
<ellipse fill="gray" stroke="black" cx="678.6" cy="-378" rx="42.29" ry="18"/>
<text text-anchor="middle" x="678.6" y="-375.8" font-family="Times,serif" font-size="9.00">ReachGoal?***</text>
</g>
<!-- Fallback&#45;&gt;ReachGoal?*** -->
<g id="edge23" class="edge">
<title>Fallback&#45;&gt;ReachGoal?***</title>
<path fill="none" stroke="black" d="M596.6,-435.83C611.29,-425.65 631.91,-411.36 648.8,-399.65"/>
<polygon fill="black" stroke="black" points="651.01,-402.38 657.24,-393.8 647.03,-396.62 651.01,-402.38"/>
</g>
<!-- Sequence*** -->
<g id="node25" class="node">
<title>Sequence***</title>
<polygon fill="cyan" stroke="black" points="818.59,-370.54 818.59,-385.46 795.16,-396 762.04,-396 738.61,-385.46 738.61,-370.54 762.04,-360 795.16,-360 818.59,-370.54"/>
<text text-anchor="middle" x="778.6" y="-375.8" font-family="Times,serif" font-size="9.00">Sequence***</text>
</g>
<!-- Fallback&#45;&gt;Sequence*** -->
<g id="edge24" class="edge">
<title>Fallback&#45;&gt;Sequence***</title>
<path fill="none" stroke="black" d="M603.06,-440.13C637.12,-428.27 697.89,-407.11 738.23,-393.06"/>
<polygon fill="black" stroke="black" points="739.47,-396.33 747.76,-389.74 737.17,-389.72 739.47,-396.33"/>
</g>
<!-- Fallback* -->
<g id="node4" class="node">
<title>Fallback*</title>
<polygon fill="cyan" stroke="black" points="472.34,-298.54 472.34,-313.46 453.75,-324 427.45,-324 408.86,-313.46 408.86,-298.54 427.45,-288 453.75,-288 472.34,-298.54"/>
<text text-anchor="middle" x="440.6" y="-303.8" font-family="Times,serif" font-size="9.00">Fallback*</text>
</g>
<!-- Sequence&#45;&gt;Fallback* -->
<g id="edge3" class="edge">
<title>Sequence&#45;&gt;Fallback*</title>
<path fill="none" stroke="black" d="M475.98,-359.7C470.46,-351.47 463.75,-341.48 457.67,-332.42"/>
<polygon fill="black" stroke="black" points="460.56,-330.46 452.08,-324.1 454.75,-334.36 460.56,-330.46"/>
</g>
<!-- MoveTo!* -->
<g id="node22" class="node">
<title>MoveTo!*</title>
<ellipse fill="gray" stroke="black" cx="522.6" cy="-306" rx="31.51" ry="18"/>
<text text-anchor="middle" x="522.6" y="-303.8" font-family="Times,serif" font-size="9.00">MoveTo!*</text>
</g>
<!-- Sequence&#45;&gt;MoveTo!* -->
<g id="edge21" class="edge">
<title>Sequence&#45;&gt;MoveTo!*</title>
<path fill="none" stroke="black" d="M496.25,-359.7C500.34,-351.52 505.3,-341.6 509.81,-332.58"/>
<polygon fill="black" stroke="black" points="512.95,-334.13 514.29,-323.62 506.69,-331 512.95,-334.13"/>
</g>
<!-- Sequence* -->
<g id="node5" class="node">
<title>Sequence*</title>
<polygon fill="cyan" stroke="black" points="316.84,-226.54 316.84,-241.46 296.78,-252 268.42,-252 248.36,-241.46 248.36,-226.54 268.42,-216 296.78,-216 316.84,-226.54"/>
<text text-anchor="middle" x="282.6" y="-231.8" font-family="Times,serif" font-size="9.00">Sequence*</text>
</g>
<!-- Fallback*&#45;&gt;Sequence* -->
<g id="edge4" class="edge">
<title>Fallback*&#45;&gt;Sequence*</title>
<path fill="none" stroke="black" d="M416.26,-294.22C389.78,-282.48 347.23,-263.63 317.27,-250.36"/>
<polygon fill="black" stroke="black" points="318.58,-247.11 308.02,-246.26 315.74,-253.51 318.58,-247.11"/>
</g>
<!-- NotReadyForSG?** -->
<g id="node19" class="node">
<title>NotReadyForSG?**</title>
<ellipse fill="gray" stroke="black" cx="386.6" cy="-234" rx="51.92" ry="18"/>
<text text-anchor="middle" x="386.6" y="-231.8" font-family="Times,serif" font-size="9.00">NotReadyForSG?**</text>
</g>
<!-- Fallback*&#45;&gt;NotReadyForSG?** -->
<g id="edge18" class="edge">
<title>Fallback*&#45;&gt;NotReadyForSG?**</title>
<path fill="none" stroke="black" d="M427.25,-287.7C420.75,-279.27 412.81,-268.97 405.68,-259.73"/>
<polygon fill="black" stroke="black" points="408.3,-257.4 399.42,-251.62 402.76,-261.68 408.3,-257.4"/>
</g>
<!-- LkGraph?*** -->
<g id="node20" class="node">
<title>LkGraph?***</title>
<ellipse fill="gray" stroke="black" cx="494.6" cy="-234" rx="38.21" ry="18"/>
<text text-anchor="middle" x="494.6" y="-231.8" font-family="Times,serif" font-size="9.00">LkGraph?***</text>
</g>
<!-- Fallback*&#45;&gt;LkGraph?*** -->
<g id="edge19" class="edge">
<title>Fallback*&#45;&gt;LkGraph?***</title>
<path fill="none" stroke="black" d="M453.95,-287.7C460.55,-279.14 468.62,-268.67 475.83,-259.33"/>
<polygon fill="black" stroke="black" points="478.81,-261.2 482.15,-251.14 473.27,-256.92 478.81,-261.2"/>
</g>
<!-- GetSubGoal! -->
<g id="node21" class="node">
<title>GetSubGoal!</title>
<ellipse fill="gray" stroke="black" cx="587.6" cy="-234" rx="36.9" ry="18"/>
<text text-anchor="middle" x="587.6" y="-231.8" font-family="Times,serif" font-size="9.00">GetSubGoal!</text>
</g>
<!-- Fallback*&#45;&gt;GetSubGoal! -->
<g id="edge20" class="edge">
<title>Fallback*&#45;&gt;GetSubGoal!</title>
<path fill="none" stroke="black" d="M464.22,-293.75C488.18,-282.34 525.52,-264.56 552.85,-251.55"/>
<polygon fill="black" stroke="black" points="554.54,-254.62 562.06,-247.16 551.53,-248.3 554.54,-254.62"/>
</g>
<!-- ReachGoal?* -->
<g id="node6" class="node">
<title>ReachGoal?*</title>
<ellipse fill="gray" stroke="black" cx="88.6" cy="-162" rx="36.9" ry="18"/>
<text text-anchor="middle" x="88.6" y="-159.8" font-family="Times,serif" font-size="9.00">ReachGoal?*</text>
</g>
<!-- Sequence*&#45;&gt;ReachGoal?* -->
<g id="edge5" class="edge">
<title>Sequence*&#45;&gt;ReachGoal?*</title>
<path fill="none" stroke="black" d="M254.75,-223.12C224.97,-212.54 176.41,-195.21 134.6,-180 132.06,-179.08 129.45,-178.12 126.81,-177.16"/>
<polygon fill="black" stroke="black" points="127.89,-173.82 117.29,-173.65 125.47,-180.39 127.89,-173.82"/>
</g>
<!-- CompLkGraph! -->
<g id="node7" class="node">
<title>CompLkGraph!</title>
<ellipse fill="gray" stroke="black" cx="186.6" cy="-162" rx="42.95" ry="18"/>
<text text-anchor="middle" x="186.6" y="-159.8" font-family="Times,serif" font-size="9.00">CompLkGraph!</text>
</g>
<!-- Sequence*&#45;&gt;CompLkGraph! -->
<g id="edge6" class="edge">
<title>Sequence*&#45;&gt;CompLkGraph!</title>
<path fill="none" stroke="black" d="M262.71,-218.5C248.99,-208.49 230.55,-195.05 215.25,-183.89"/>
<polygon fill="black" stroke="black" points="217.27,-181.03 207.13,-177.97 213.15,-186.69 217.27,-181.03"/>
</g>
<!-- Fallback** -->
<g id="node8" class="node">
<title>Fallback**</title>
<polygon fill="cyan" stroke="black" points="317.59,-154.54 317.59,-169.46 297.09,-180 268.11,-180 247.61,-169.46 247.61,-154.54 268.11,-144 297.09,-144 317.59,-154.54"/>
<text text-anchor="middle" x="282.6" y="-159.8" font-family="Times,serif" font-size="9.00">Fallback**</text>
</g>
<!-- Sequence*&#45;&gt;Fallback** -->
<g id="edge7" class="edge">
<title>Sequence*&#45;&gt;Fallback**</title>
<path fill="none" stroke="black" d="M282.6,-215.7C282.6,-207.98 282.6,-198.71 282.6,-190.11"/>
<polygon fill="black" stroke="black" points="286.1,-190.1 282.6,-180.1 279.1,-190.1 286.1,-190.1"/>
</g>
<!-- NotReadyForSG?* -->
<g id="node17" class="node">
<title>NotReadyForSG?*</title>
<ellipse fill="gray" stroke="black" cx="385.6" cy="-162" rx="49.8" ry="18"/>
<text text-anchor="middle" x="385.6" y="-159.8" font-family="Times,serif" font-size="9.00">NotReadyForSG?*</text>
</g>
<!-- Sequence*&#45;&gt;NotReadyForSG?* -->
<g id="edge16" class="edge">
<title>Sequence*&#45;&gt;NotReadyForSG?*</title>
<path fill="none" stroke="black" d="M302.95,-219.17C317.73,-209.13 337.99,-195.36 354.75,-183.97"/>
<polygon fill="black" stroke="black" points="356.84,-186.77 363.15,-178.26 352.91,-180.99 356.84,-186.77"/>
</g>
<!-- LkGraph?** -->
<g id="node18" class="node">
<title>LkGraph?**</title>
<ellipse fill="gray" stroke="black" cx="488.6" cy="-162" rx="35.59" ry="18"/>
<text text-anchor="middle" x="488.6" y="-159.8" font-family="Times,serif" font-size="9.00">LkGraph?**</text>
</g>
<!-- Sequence*&#45;&gt;LkGraph?** -->
<g id="edge17" class="edge">
<title>Sequence*&#45;&gt;LkGraph?**</title>
<path fill="none" stroke="black" d="M308.85,-222.22C314.35,-220.08 320.14,-217.9 325.6,-216 377.78,-197.83 392.35,-197.97 444.6,-180 446.97,-179.18 449.41,-178.32 451.85,-177.43"/>
<polygon fill="black" stroke="black" points="453.11,-180.7 461.25,-173.93 450.66,-174.14 453.11,-180.7"/>
</g>
<!-- Sequence** -->
<g id="node9" class="node">
<title>Sequence**</title>
<polygon fill="cyan" stroke="black" points="182.34,-82.54 182.34,-97.46 160.82,-108 130.38,-108 108.86,-97.46 108.86,-82.54 130.38,-72 160.82,-72 182.34,-82.54"/>
<text text-anchor="middle" x="145.6" y="-87.8" font-family="Times,serif" font-size="9.00">Sequence**</text>
</g>
<!-- Fallback**&#45;&gt;Sequence** -->
<g id="edge8" class="edge">
<title>Fallback**&#45;&gt;Sequence**</title>
<path fill="none" stroke="black" d="M258.74,-148.81C236.71,-137.55 203.78,-120.73 179.12,-108.13"/>
<polygon fill="black" stroke="black" points="180.61,-104.96 170.11,-103.52 177.42,-111.19 180.61,-104.96"/>
</g>
<!-- LkGraph?* -->
<g id="node14" class="node">
<title>LkGraph?*</title>
<ellipse fill="gray" stroke="black" cx="233.6" cy="-90" rx="32.82" ry="18"/>
<text text-anchor="middle" x="233.6" y="-87.8" font-family="Times,serif" font-size="9.00">LkGraph?*</text>
</g>
<!-- Fallback**&#45;&gt;LkGraph?* -->
<g id="edge13" class="edge">
<title>Fallback**&#45;&gt;LkGraph?*</title>
<path fill="none" stroke="black" d="M270.49,-143.7C264.56,-135.23 257.32,-124.89 250.83,-115.61"/>
<polygon fill="black" stroke="black" points="253.5,-113.33 244.9,-107.14 247.77,-117.34 253.5,-113.33"/>
</g>
<!-- NotReadyForSG? -->
<g id="node15" class="node">
<title>NotReadyForSG?</title>
<ellipse fill="gray" stroke="black" cx="331.6" cy="-90" rx="46.53" ry="18"/>
<text text-anchor="middle" x="331.6" y="-87.8" font-family="Times,serif" font-size="9.00">NotReadyForSG?</text>
</g>
<!-- Fallback**&#45;&gt;NotReadyForSG? -->
<g id="edge14" class="edge">
<title>Fallback**&#45;&gt;NotReadyForSG?</title>
<path fill="none" stroke="black" d="M294.71,-143.7C300.55,-135.35 307.67,-125.18 314.09,-116.02"/>
<polygon fill="black" stroke="black" points="317.1,-117.82 319.96,-107.62 311.36,-113.81 317.1,-117.82"/>
</g>
<!-- CompLkGraph!* -->
<g id="node16" class="node">
<title>CompLkGraph!*</title>
<ellipse fill="gray" stroke="black" cx="441.6" cy="-90" rx="45.07" ry="18"/>
<text text-anchor="middle" x="441.6" y="-87.8" font-family="Times,serif" font-size="9.00">CompLkGraph!*</text>
</g>
<!-- Fallback**&#45;&gt;CompLkGraph!* -->
<g id="edge15" class="edge">
<title>Fallback**&#45;&gt;CompLkGraph!*</title>
<path fill="none" stroke="black" d="M308.5,-149.6C334.11,-138.32 373.63,-120.93 402.95,-108.01"/>
<polygon fill="black" stroke="black" points="404.73,-111.06 412.47,-103.82 401.91,-104.65 404.73,-111.06"/>
</g>
<!-- LkGraph? -->
<g id="node10" class="node">
<title>LkGraph?</title>
<ellipse fill="gray" stroke="black" cx="30.6" cy="-18" rx="30.7" ry="18"/>
<text text-anchor="middle" x="30.6" y="-15.8" font-family="Times,serif" font-size="9.00">LkGraph?</text>
</g>
<!-- Sequence**&#45;&gt;LkGraph? -->
<g id="edge9" class="edge">
<title>Sequence**&#45;&gt;LkGraph?</title>
<path fill="none" stroke="black" d="M123.15,-75.34C105.01,-64.3 79.35,-48.67 59.65,-36.68"/>
<polygon fill="black" stroke="black" points="61.42,-33.66 51.06,-31.45 57.78,-39.64 61.42,-33.66"/>
</g>
<!-- LkClose? -->
<g id="node11" class="node">
<title>LkClose?</title>
<ellipse fill="gray" stroke="black" cx="107.6" cy="-18" rx="28.74" ry="18"/>
<text text-anchor="middle" x="107.6" y="-15.8" font-family="Times,serif" font-size="9.00">LkClose?</text>
</g>
<!-- Sequence**&#45;&gt;LkClose? -->
<g id="edge10" class="edge">
<title>Sequence**&#45;&gt;LkClose?</title>
<path fill="none" stroke="black" d="M136.21,-71.7C131.77,-63.52 126.38,-53.6 121.49,-44.58"/>
<polygon fill="black" stroke="black" points="124.47,-42.74 116.62,-35.62 118.32,-46.08 124.47,-42.74"/>
</g>
<!-- MoveTo! -->
<g id="node12" class="node">
<title>MoveTo!</title>
<ellipse fill="gray" stroke="black" cx="183.6" cy="-18" rx="28.74" ry="18"/>
<text text-anchor="middle" x="183.6" y="-15.8" font-family="Times,serif" font-size="9.00">MoveTo!</text>
</g>
<!-- Sequence**&#45;&gt;MoveTo! -->
<g id="edge11" class="edge">
<title>Sequence**&#45;&gt;MoveTo!</title>
<path fill="none" stroke="black" d="M154.99,-71.7C159.43,-63.52 164.82,-53.6 169.71,-44.58"/>
<polygon fill="black" stroke="black" points="172.88,-46.08 174.58,-35.62 166.73,-42.74 172.88,-46.08"/>
</g>
<!-- ReachGoal?** -->
<g id="node13" class="node">
<title>ReachGoal?**</title>
<ellipse fill="gray" stroke="black" cx="269.6" cy="-18" rx="39.02" ry="18"/>
<text text-anchor="middle" x="269.6" y="-15.8" font-family="Times,serif" font-size="9.00">ReachGoal?**</text>
</g>
<!-- Sequence**&#45;&gt;ReachGoal?** -->
<g id="edge12" class="edge">
<title>Sequence**&#45;&gt;ReachGoal?**</title>
<path fill="none" stroke="black" d="M168.92,-75.83C188.08,-65.02 215.43,-49.58 236.79,-37.52"/>
<polygon fill="black" stroke="black" points="238.55,-40.55 245.53,-32.58 235.11,-34.45 238.55,-40.55"/>
</g>
<!-- NotReadyForSG?*** -->
<g id="node26" class="node">
<title>NotReadyForSG?***</title>
<ellipse fill="gray" stroke="black" cx="662.6" cy="-306" rx="54.7" ry="18"/>
<text text-anchor="middle" x="662.6" y="-303.8" font-family="Times,serif" font-size="9.00">NotReadyForSG?***</text>
</g>
<!-- Sequence***&#45;&gt;NotReadyForSG?*** -->
<g id="edge25" class="edge">
<title>Sequence***&#45;&gt;NotReadyForSG?***</title>
<path fill="none" stroke="black" d="M755.13,-362.83C738.21,-352.63 715.13,-338.7 696.26,-327.31"/>
<polygon fill="black" stroke="black" points="698.02,-324.28 687.64,-322.11 694.4,-330.28 698.02,-324.28"/>
</g>
<!-- LkGraph?***** -->
<g id="node27" class="node">
<title>LkGraph?*****</title>
<ellipse fill="gray" stroke="black" cx="778.6" cy="-306" rx="43.1" ry="18"/>
<text text-anchor="middle" x="778.6" y="-303.8" font-family="Times,serif" font-size="9.00">LkGraph?*****</text>
</g>
<!-- Sequence***&#45;&gt;LkGraph?***** -->
<g id="edge26" class="edge">
<title>Sequence***&#45;&gt;LkGraph?*****</title>
<path fill="none" stroke="black" d="M778.6,-359.7C778.6,-351.98 778.6,-342.71 778.6,-334.11"/>
<polygon fill="black" stroke="black" points="782.1,-334.1 778.6,-324.1 775.1,-334.1 782.1,-334.1"/>
</g>
<!-- GetLk! -->
<g id="node28" class="node">
<title>GetLk!</title>
<ellipse fill="gray" stroke="black" cx="866.6" cy="-306" rx="27" ry="18"/>
<text text-anchor="middle" x="866.6" y="-303.8" font-family="Times,serif" font-size="9.00">GetLk!</text>
</g>
<!-- Sequence***&#45;&gt;GetLk! -->
<g id="edge27" class="edge">
<title>Sequence***&#45;&gt;GetLk!</title>
<path fill="none" stroke="black" d="M798.57,-361.12C811.42,-350.89 828.21,-337.53 841.9,-326.65"/>
<polygon fill="black" stroke="black" points="844.31,-329.2 849.96,-320.24 839.95,-323.72 844.31,-329.2"/>
</g>
</g>
</svg>
