<?xml version="1.0" encoding="UTF-8" standalone="no"?>
<!DOCTYPE svg PUBLIC "-//W3C//DTD SVG 1.1//EN"
 "http://www.w3.org/Graphics/SVG/1.1/DTD/svg11.dtd">
<!-- Generated by graphviz version 2.43.0 (0)
 -->
<!-- Title: pastafarianism Pages: 1 -->
<svg width="589pt" height="332pt"
 viewBox="0.00 0.00 588.90 332.00" xmlns="http://www.w3.org/2000/svg" xmlns:xlink="http://www.w3.org/1999/xlink">
<g id="graph0" class="graph" transform="scale(1 1) rotate(0) translate(4 328)">
<title>pastafarianism</title>
<polygon fill="white" stroke="transparent" points="-4,4 -4,-328 584.9,-328 584.9,4 -4,4"/>
<!-- Fallback -->
<g id="node1" class="node">
<title>Fallback</title>
<polygon fill="cyan" stroke="black" points="237.19,-298.54 237.19,-313.46 220.06,-324 195.84,-324 178.71,-313.46 178.71,-298.54 195.84,-288 220.06,-288 237.19,-298.54"/>
<text text-anchor="middle" x="207.95" y="-303.8" font-family="Times,serif" font-size="9.00">Fallback</text>
</g>
<!-- GetLk! -->
<g id="node2" class="node">
<title>GetLk!</title>
<ellipse fill="gray" stroke="black" cx="45.95" cy="-234" rx="27" ry="18"/>
<text text-anchor="middle" x="45.95" y="-231.8" font-family="Times,serif" font-size="9.00">GetLk!</text>
</g>
<!-- Fallback&#45;&gt;GetLk! -->
<g id="edge1" class="edge">
<title>Fallback&#45;&gt;GetLk!</title>
<path fill="none" stroke="black" d="M183.66,-295.15C158.19,-284.73 117.06,-267.66 81.95,-252 80.15,-251.2 78.31,-250.36 76.45,-249.51"/>
<polygon fill="black" stroke="black" points="77.74,-246.26 67.2,-245.22 74.8,-252.61 77.74,-246.26"/>
</g>
<!-- ReachGoal? -->
<g id="node3" class="node">
<title>ReachGoal?</title>
<ellipse fill="gray" stroke="black" cx="124.95" cy="-234" rx="34.13" ry="18"/>
<text text-anchor="middle" x="124.95" y="-231.8" font-family="Times,serif" font-size="9.00">ReachGoal?</text>
</g>
<!-- Fallback&#45;&gt;ReachGoal? -->
<g id="edge2" class="edge">
<title>Fallback&#45;&gt;ReachGoal?</title>
<path fill="none" stroke="black" d="M191.15,-290.83C179.39,-280.91 163.45,-267.47 150.16,-256.26"/>
<polygon fill="black" stroke="black" points="152.19,-253.4 142.29,-249.63 147.68,-258.75 152.19,-253.4"/>
</g>
<!-- Sequence -->
<g id="node4" class="node">
<title>Sequence</title>
<polygon fill="cyan" stroke="black" points="239.44,-226.54 239.44,-241.46 221,-252 194.91,-252 176.46,-241.46 176.46,-226.54 194.91,-216 221,-216 239.44,-226.54"/>
<text text-anchor="middle" x="207.95" y="-231.8" font-family="Times,serif" font-size="9.00">Sequence</text>
</g>
<!-- Fallback&#45;&gt;Sequence -->
<g id="edge3" class="edge">
<title>Fallback&#45;&gt;Sequence</title>
<path fill="none" stroke="black" d="M207.95,-287.7C207.95,-279.98 207.95,-270.71 207.95,-262.11"/>
<polygon fill="black" stroke="black" points="211.45,-262.1 207.95,-252.1 204.45,-262.1 211.45,-262.1"/>
</g>
<!-- LkClose? -->
<g id="node12" class="node">
<title>LkClose?</title>
<ellipse fill="gray" stroke="black" cx="285.95" cy="-234" rx="28.74" ry="18"/>
<text text-anchor="middle" x="285.95" y="-231.8" font-family="Times,serif" font-size="9.00">LkClose?</text>
</g>
<!-- Fallback&#45;&gt;LkClose? -->
<g id="edge11" class="edge">
<title>Fallback&#45;&gt;LkClose?</title>
<path fill="none" stroke="black" d="M224.49,-290.15C235.57,-280.21 250.32,-266.98 262.59,-255.97"/>
<polygon fill="black" stroke="black" points="265.13,-258.39 270.23,-249.11 260.45,-253.18 265.13,-258.39"/>
</g>
<!-- Sequence** -->
<g id="node13" class="node">
<title>Sequence**</title>
<polygon fill="cyan" stroke="black" points="406.69,-226.54 406.69,-241.46 385.17,-252 354.73,-252 333.21,-241.46 333.21,-226.54 354.73,-216 385.17,-216 406.69,-226.54"/>
<text text-anchor="middle" x="369.95" y="-231.8" font-family="Times,serif" font-size="9.00">Sequence**</text>
</g>
<!-- Fallback&#45;&gt;Sequence** -->
<g id="edge12" class="edge">
<title>Fallback&#45;&gt;Sequence**</title>
<path fill="none" stroke="black" d="M231.51,-294.82C258.47,-283.17 302.92,-263.96 334.16,-250.46"/>
<polygon fill="black" stroke="black" points="335.61,-253.65 343.4,-246.47 332.83,-247.22 335.61,-253.65"/>
</g>
<!-- Fallback* -->
<g id="node5" class="node">
<title>Fallback*</title>
<polygon fill="cyan" stroke="black" points="157.69,-154.54 157.69,-169.46 139.1,-180 112.8,-180 94.21,-169.46 94.21,-154.54 112.8,-144 139.1,-144 157.69,-154.54"/>
<text text-anchor="middle" x="125.95" y="-159.8" font-family="Times,serif" font-size="9.00">Fallback*</text>
</g>
<!-- Sequence&#45;&gt;Fallback* -->
<g id="edge4" class="edge">
<title>Sequence&#45;&gt;Fallback*</title>
<path fill="none" stroke="black" d="M190.56,-218.15C179.15,-208.41 164.03,-195.5 151.28,-184.63"/>
<polygon fill="black" stroke="black" points="153.19,-181.65 143.32,-177.82 148.65,-186.98 153.19,-181.65"/>
</g>
<!-- MoveTo!* -->
<g id="node11" class="node">
<title>MoveTo!*</title>
<ellipse fill="gray" stroke="black" cx="207.95" cy="-162" rx="31.51" ry="18"/>
<text text-anchor="middle" x="207.95" y="-159.8" font-family="Times,serif" font-size="9.00">MoveTo!*</text>
</g>
<!-- Sequence&#45;&gt;MoveTo!* -->
<g id="edge10" class="edge">
<title>Sequence&#45;&gt;MoveTo!*</title>
<path fill="none" stroke="black" d="M207.95,-215.7C207.95,-207.98 207.95,-198.71 207.95,-190.11"/>
<polygon fill="black" stroke="black" points="211.45,-190.1 207.95,-180.1 204.45,-190.1 211.45,-190.1"/>
</g>
<!-- ReachGoal?* -->
<g id="node6" class="node">
<title>ReachGoal?*</title>
<ellipse fill="gray" stroke="black" cx="36.95" cy="-90" rx="36.9" ry="18"/>
<text text-anchor="middle" x="36.95" y="-87.8" font-family="Times,serif" font-size="9.00">ReachGoal?*</text>
</g>
<!-- Fallback*&#45;&gt;ReachGoal?* -->
<g id="edge5" class="edge">
<title>Fallback*&#45;&gt;ReachGoal?*</title>
<path fill="none" stroke="black" d="M107.51,-146.5C94.83,-136.52 77.78,-123.11 63.62,-111.98"/>
<polygon fill="black" stroke="black" points="65.7,-109.16 55.67,-105.73 61.37,-114.66 65.7,-109.16"/>
</g>
<!-- Sequence* -->
<g id="node7" class="node">
<title>Sequence*</title>
<polygon fill="cyan" stroke="black" points="160.19,-82.54 160.19,-97.46 140.13,-108 111.77,-108 91.71,-97.46 91.71,-82.54 111.77,-72 140.13,-72 160.19,-82.54"/>
<text text-anchor="middle" x="125.95" y="-87.8" font-family="Times,serif" font-size="9.00">Sequence*</text>
</g>
<!-- Fallback*&#45;&gt;Sequence* -->
<g id="edge6" class="edge">
<title>Fallback*&#45;&gt;Sequence*</title>
<path fill="none" stroke="black" d="M125.95,-143.7C125.95,-135.98 125.95,-126.71 125.95,-118.11"/>
<polygon fill="black" stroke="black" points="129.45,-118.1 125.95,-108.1 122.45,-118.1 129.45,-118.1"/>
</g>
<!-- NotReadyForSG? -->
<g id="node10" class="node">
<title>NotReadyForSG?</title>
<ellipse fill="gray" stroke="black" cx="224.95" cy="-90" rx="46.53" ry="18"/>
<text text-anchor="middle" x="224.95" y="-87.8" font-family="Times,serif" font-size="9.00">NotReadyForSG?</text>
</g>
<!-- Fallback*&#45;&gt;NotReadyForSG? -->
<g id="edge9" class="edge">
<title>Fallback*&#45;&gt;NotReadyForSG?</title>
<path fill="none" stroke="black" d="M145.51,-147.17C159.58,-137.22 178.83,-123.61 194.85,-112.28"/>
<polygon fill="black" stroke="black" points="197.23,-114.89 203.37,-106.26 193.18,-109.17 197.23,-114.89"/>
</g>
<!-- ReachGoal?** -->
<g id="node8" class="node">
<title>ReachGoal?**</title>
<ellipse fill="gray" stroke="black" cx="82.95" cy="-18" rx="39.02" ry="18"/>
<text text-anchor="middle" x="82.95" y="-15.8" font-family="Times,serif" font-size="9.00">ReachGoal?**</text>
</g>
<!-- Sequence*&#45;&gt;ReachGoal?** -->
<g id="edge7" class="edge">
<title>Sequence*&#45;&gt;ReachGoal?**</title>
<path fill="none" stroke="black" d="M115.32,-71.7C110.25,-63.44 104.08,-53.39 98.49,-44.3"/>
<polygon fill="black" stroke="black" points="101.38,-42.31 93.16,-35.62 95.41,-45.98 101.38,-42.31"/>
</g>
<!-- MoveTo! -->
<g id="node9" class="node">
<title>MoveTo!</title>
<ellipse fill="gray" stroke="black" cx="168.95" cy="-18" rx="28.74" ry="18"/>
<text text-anchor="middle" x="168.95" y="-15.8" font-family="Times,serif" font-size="9.00">MoveTo!</text>
</g>
<!-- Sequence*&#45;&gt;MoveTo! -->
<g id="edge8" class="edge">
<title>Sequence*&#45;&gt;MoveTo!</title>
<path fill="none" stroke="black" d="M136.58,-71.7C141.73,-63.32 148,-53.1 153.66,-43.9"/>
<polygon fill="black" stroke="black" points="156.78,-45.5 159.03,-35.14 150.82,-41.83 156.78,-45.5"/>
</g>
<!-- LkClose?* -->
<g id="node14" class="node">
<title>LkClose?*</title>
<ellipse fill="gray" stroke="black" cx="289.95" cy="-162" rx="31.51" ry="18"/>
<text text-anchor="middle" x="289.95" y="-159.8" font-family="Times,serif" font-size="9.00">LkClose?*</text>
</g>
<!-- Sequence**&#45;&gt;LkClose?* -->
<g id="edge13" class="edge">
<title>Sequence**&#45;&gt;LkClose?*</title>
<path fill="none" stroke="black" d="M351.8,-217.12C340.68,-207.39 326.31,-194.82 314.22,-184.24"/>
<polygon fill="black" stroke="black" points="316.5,-181.58 306.67,-177.63 311.89,-186.85 316.5,-181.58"/>
</g>
<!-- LkGraph? -->
<g id="node15" class="node">
<title>LkGraph?</title>
<ellipse fill="gray" stroke="black" cx="369.95" cy="-162" rx="30.7" ry="18"/>
<text text-anchor="middle" x="369.95" y="-159.8" font-family="Times,serif" font-size="9.00">LkGraph?</text>
</g>
<!-- Sequence**&#45;&gt;LkGraph? -->
<g id="edge14" class="edge">
<title>Sequence**&#45;&gt;LkGraph?</title>
<path fill="none" stroke="black" d="M369.95,-215.7C369.95,-207.98 369.95,-198.71 369.95,-190.11"/>
<polygon fill="black" stroke="black" points="373.45,-190.1 369.95,-180.1 366.45,-190.1 373.45,-190.1"/>
</g>
<!-- Fallback** -->
<g id="node16" class="node">
<title>Fallback**</title>
<polygon fill="cyan" stroke="black" points="488.94,-154.54 488.94,-169.46 468.44,-180 439.46,-180 418.96,-169.46 418.96,-154.54 439.46,-144 468.44,-144 488.94,-154.54"/>
<text text-anchor="middle" x="453.95" y="-159.8" font-family="Times,serif" font-size="9.00">Fallback**</text>
</g>
<!-- Sequence**&#45;&gt;Fallback** -->
<g id="edge15" class="edge">
<title>Sequence**&#45;&gt;Fallback**</title>
<path fill="none" stroke="black" d="M388.59,-217.46C400.09,-207.88 415.01,-195.45 427.7,-184.88"/>
<polygon fill="black" stroke="black" points="430.21,-187.34 435.65,-178.25 425.73,-181.96 430.21,-187.34"/>
</g>
<!-- GetSubGoal! -->
<g id="node19" class="node">
<title>GetSubGoal!</title>
<ellipse fill="gray" stroke="black" cx="543.95" cy="-162" rx="36.9" ry="18"/>
<text text-anchor="middle" x="543.95" y="-159.8" font-family="Times,serif" font-size="9.00">GetSubGoal!</text>
</g>
<!-- Sequence**&#45;&gt;GetSubGoal! -->
<g id="edge18" class="edge">
<title>Sequence**&#45;&gt;GetSubGoal!</title>
<path fill="none" stroke="black" d="M397.52,-221.91C426.96,-210.06 473.79,-191.22 506.54,-178.05"/>
<polygon fill="black" stroke="black" points="508.25,-181.13 516.22,-174.16 505.64,-174.64 508.25,-181.13"/>
</g>
<!-- ReachGoal?*** -->
<g id="node17" class="node">
<title>ReachGoal?***</title>
<ellipse fill="gray" stroke="black" cx="409.95" cy="-90" rx="42.29" ry="18"/>
<text text-anchor="middle" x="409.95" y="-87.8" font-family="Times,serif" font-size="9.00">ReachGoal?***</text>
</g>
<!-- Fallback**&#45;&gt;ReachGoal?*** -->
<g id="edge16" class="edge">
<title>Fallback**&#45;&gt;ReachGoal?***</title>
<path fill="none" stroke="black" d="M443.07,-143.7C437.88,-135.44 431.57,-125.39 425.85,-116.3"/>
<polygon fill="black" stroke="black" points="428.68,-114.23 420.4,-107.62 422.76,-117.95 428.68,-114.23"/>
</g>
<!-- GetLk!* -->
<g id="node18" class="node">
<title>GetLk!*</title>
<ellipse fill="gray" stroke="black" cx="496.95" cy="-90" rx="27.27" ry="18"/>
<text text-anchor="middle" x="496.95" y="-87.8" font-family="Times,serif" font-size="9.00">GetLk!*</text>
</g>
<!-- Fallback**&#45;&gt;GetLk!* -->
<g id="edge17" class="edge">
<title>Fallback**&#45;&gt;GetLk!*</title>
<path fill="none" stroke="black" d="M464.58,-143.7C469.73,-135.32 476,-125.1 481.66,-115.9"/>
<polygon fill="black" stroke="black" points="484.78,-117.5 487.03,-107.14 478.82,-113.83 484.78,-117.5"/>
</g>
</g>
</svg>
