<?xml version="1.0" encoding="UTF-8" standalone="no"?>
<!DOCTYPE svg PUBLIC "-//W3C//DTD SVG 1.1//EN"
 "http://www.w3.org/Graphics/SVG/1.1/DTD/svg11.dtd">
<!-- Generated by graphviz version 2.43.0 (0)
 -->
<!-- Title: pastafarianism Pages: 1 -->
<svg width="538pt" height="332pt"
 viewBox="0.00 0.00 537.82 332.00" xmlns="http://www.w3.org/2000/svg" xmlns:xlink="http://www.w3.org/1999/xlink">
<g id="graph0" class="graph" transform="scale(1 1) rotate(0) translate(4 328)">
<title>pastafarianism</title>
<polygon fill="white" stroke="transparent" points="-4,4 -4,-328 533.82,-328 533.82,4 -4,4"/>
<!-- Fallback -->
<g id="node1" class="node">
<title>Fallback</title>
<polygon fill="cyan" stroke="black" points="268.11,-298.54 268.11,-313.46 250.98,-324 226.75,-324 209.62,-313.46 209.62,-298.54 226.75,-288 250.98,-288 268.11,-298.54"/>
<text text-anchor="middle" x="238.87" y="-303.8" font-family="Times,serif" font-size="9.00">Fallback</text>
</g>
<!-- GetLk! -->
<g id="node2" class="node">
<title>GetLk!</title>
<ellipse fill="gray" stroke="black" cx="76.87" cy="-234" rx="27" ry="18"/>
<text text-anchor="middle" x="76.87" y="-231.8" font-family="Times,serif" font-size="9.00">GetLk!</text>
</g>
<!-- Fallback&#45;&gt;GetLk! -->
<g id="edge1" class="edge">
<title>Fallback&#45;&gt;GetLk!</title>
<path fill="none" stroke="black" d="M214.58,-295.15C189.11,-284.73 147.98,-267.66 112.87,-252 111.07,-251.2 109.22,-250.36 107.37,-249.51"/>
<polygon fill="black" stroke="black" points="108.66,-246.26 98.12,-245.22 105.71,-252.61 108.66,-246.26"/>
</g>
<!-- ReachGoal? -->
<g id="node3" class="node">
<title>ReachGoal?</title>
<ellipse fill="gray" stroke="black" cx="155.87" cy="-234" rx="34.13" ry="18"/>
<text text-anchor="middle" x="155.87" y="-231.8" font-family="Times,serif" font-size="9.00">ReachGoal?</text>
</g>
<!-- Fallback&#45;&gt;ReachGoal? -->
<g id="edge2" class="edge">
<title>Fallback&#45;&gt;ReachGoal?</title>
<path fill="none" stroke="black" d="M222.07,-290.83C210.3,-280.91 194.37,-267.47 181.08,-256.26"/>
<polygon fill="black" stroke="black" points="183.11,-253.4 173.21,-249.63 178.6,-258.75 183.11,-253.4"/>
</g>
<!-- Sequence -->
<g id="node4" class="node">
<title>Sequence</title>
<polygon fill="cyan" stroke="black" points="270.36,-226.54 270.36,-241.46 251.91,-252 225.82,-252 207.37,-241.46 207.37,-226.54 225.82,-216 251.91,-216 270.36,-226.54"/>
<text text-anchor="middle" x="238.87" y="-231.8" font-family="Times,serif" font-size="9.00">Sequence</text>
</g>
<!-- Fallback&#45;&gt;Sequence -->
<g id="edge3" class="edge">
<title>Fallback&#45;&gt;Sequence</title>
<path fill="none" stroke="black" d="M238.87,-287.7C238.87,-279.98 238.87,-270.71 238.87,-262.11"/>
<polygon fill="black" stroke="black" points="242.37,-262.1 238.87,-252.1 235.37,-262.1 242.37,-262.1"/>
</g>
<!-- LkClose?* -->
<g id="node13" class="node">
<title>LkClose?*</title>
<ellipse fill="gray" stroke="black" cx="319.87" cy="-234" rx="31.51" ry="18"/>
<text text-anchor="middle" x="319.87" y="-231.8" font-family="Times,serif" font-size="9.00">LkClose?*</text>
</g>
<!-- Fallback&#45;&gt;LkClose?* -->
<g id="edge12" class="edge">
<title>Fallback&#45;&gt;LkClose?*</title>
<path fill="none" stroke="black" d="M255.65,-290.5C267.16,-280.55 282.62,-267.19 295.49,-256.07"/>
<polygon fill="black" stroke="black" points="297.83,-258.67 303.11,-249.49 293.25,-253.38 297.83,-258.67"/>
</g>
<!-- Sequence** -->
<g id="node14" class="node">
<title>Sequence**</title>
<polygon fill="cyan" stroke="black" points="443.61,-226.54 443.61,-241.46 422.09,-252 391.65,-252 370.13,-241.46 370.13,-226.54 391.65,-216 422.09,-216 443.61,-226.54"/>
<text text-anchor="middle" x="406.87" y="-231.8" font-family="Times,serif" font-size="9.00">Sequence**</text>
</g>
<!-- Fallback&#45;&gt;Sequence** -->
<g id="edge13" class="edge">
<title>Fallback&#45;&gt;Sequence**</title>
<path fill="none" stroke="black" d="M262.58,-295.12C290.65,-283.42 337.71,-263.82 370.42,-250.19"/>
<polygon fill="black" stroke="black" points="371.77,-253.42 379.66,-246.34 369.08,-246.95 371.77,-253.42"/>
</g>
<!-- Fallback* -->
<g id="node5" class="node">
<title>Fallback*</title>
<polygon fill="cyan" stroke="black" points="188.61,-154.54 188.61,-169.46 170.02,-180 143.72,-180 125.13,-169.46 125.13,-154.54 143.72,-144 170.02,-144 188.61,-154.54"/>
<text text-anchor="middle" x="156.87" y="-159.8" font-family="Times,serif" font-size="9.00">Fallback*</text>
</g>
<!-- Sequence&#45;&gt;Fallback* -->
<g id="edge4" class="edge">
<title>Sequence&#45;&gt;Fallback*</title>
<path fill="none" stroke="black" d="M221.48,-218.15C210.06,-208.41 194.94,-195.5 182.2,-184.63"/>
<polygon fill="black" stroke="black" points="184.11,-181.65 174.23,-177.82 179.57,-186.98 184.11,-181.65"/>
</g>
<!-- MoveTo!* -->
<g id="node12" class="node">
<title>MoveTo!*</title>
<ellipse fill="gray" stroke="black" cx="238.87" cy="-162" rx="31.51" ry="18"/>
<text text-anchor="middle" x="238.87" y="-159.8" font-family="Times,serif" font-size="9.00">MoveTo!*</text>
</g>
<!-- Sequence&#45;&gt;MoveTo!* -->
<g id="edge11" class="edge">
<title>Sequence&#45;&gt;MoveTo!*</title>
<path fill="none" stroke="black" d="M238.87,-215.7C238.87,-207.98 238.87,-198.71 238.87,-190.11"/>
<polygon fill="black" stroke="black" points="242.37,-190.1 238.87,-180.1 235.37,-190.1 242.37,-190.1"/>
</g>
<!-- LkClose? -->
<g id="node6" class="node">
<title>LkClose?</title>
<ellipse fill="gray" stroke="black" cx="28.87" cy="-90" rx="28.74" ry="18"/>
<text text-anchor="middle" x="28.87" y="-87.8" font-family="Times,serif" font-size="9.00">LkClose?</text>
</g>
<!-- Fallback*&#45;&gt;LkClose? -->
<g id="edge5" class="edge">
<title>Fallback*&#45;&gt;LkClose?</title>
<path fill="none" stroke="black" d="M134.86,-148.97C113.91,-137.51 82.21,-120.17 58.94,-107.44"/>
<polygon fill="black" stroke="black" points="60.61,-104.37 50.16,-102.64 57.25,-110.51 60.61,-104.37"/>
</g>
<!-- ReachGoal?* -->
<g id="node7" class="node">
<title>ReachGoal?*</title>
<ellipse fill="gray" stroke="black" cx="112.87" cy="-90" rx="36.9" ry="18"/>
<text text-anchor="middle" x="112.87" y="-87.8" font-family="Times,serif" font-size="9.00">ReachGoal?*</text>
</g>
<!-- Fallback*&#45;&gt;ReachGoal?* -->
<g id="edge6" class="edge">
<title>Fallback*&#45;&gt;ReachGoal?*</title>
<path fill="none" stroke="black" d="M145.99,-143.7C140.8,-135.44 134.49,-125.39 128.77,-116.3"/>
<polygon fill="black" stroke="black" points="131.6,-114.23 123.32,-107.62 125.67,-117.95 131.6,-114.23"/>
</g>
<!-- Sequence* -->
<g id="node8" class="node">
<title>Sequence*</title>
<polygon fill="cyan" stroke="black" points="236.11,-82.54 236.11,-97.46 216.05,-108 187.68,-108 167.63,-97.46 167.63,-82.54 187.68,-72 216.05,-72 236.11,-82.54"/>
<text text-anchor="middle" x="201.87" y="-87.8" font-family="Times,serif" font-size="9.00">Sequence*</text>
</g>
<!-- Fallback*&#45;&gt;Sequence* -->
<g id="edge7" class="edge">
<title>Fallback*&#45;&gt;Sequence*</title>
<path fill="none" stroke="black" d="M167.99,-143.7C173.22,-135.56 179.57,-125.69 185.35,-116.7"/>
<polygon fill="black" stroke="black" points="188.41,-118.41 190.87,-108.1 182.52,-114.62 188.41,-118.41"/>
</g>
<!-- NotReadyForSG? -->
<g id="node11" class="node">
<title>NotReadyForSG?</title>
<ellipse fill="gray" stroke="black" cx="300.87" cy="-90" rx="46.53" ry="18"/>
<text text-anchor="middle" x="300.87" y="-87.8" font-family="Times,serif" font-size="9.00">NotReadyForSG?</text>
</g>
<!-- Fallback*&#45;&gt;NotReadyForSG? -->
<g id="edge10" class="edge">
<title>Fallback*&#45;&gt;NotReadyForSG?</title>
<path fill="none" stroke="black" d="M180.32,-149.6C202.9,-138.63 237.38,-121.86 263.69,-109.07"/>
<polygon fill="black" stroke="black" points="265.52,-112.08 272.98,-104.56 262.45,-105.78 265.52,-112.08"/>
</g>
<!-- ReachGoal?** -->
<g id="node9" class="node">
<title>ReachGoal?**</title>
<ellipse fill="gray" stroke="black" cx="158.87" cy="-18" rx="39.02" ry="18"/>
<text text-anchor="middle" x="158.87" y="-15.8" font-family="Times,serif" font-size="9.00">ReachGoal?**</text>
</g>
<!-- Sequence*&#45;&gt;ReachGoal?** -->
<g id="edge8" class="edge">
<title>Sequence*&#45;&gt;ReachGoal?**</title>
<path fill="none" stroke="black" d="M191.24,-71.7C186.16,-63.44 180,-53.39 174.41,-44.3"/>
<polygon fill="black" stroke="black" points="177.29,-42.31 169.08,-35.62 171.33,-45.98 177.29,-42.31"/>
</g>
<!-- MoveTo! -->
<g id="node10" class="node">
<title>MoveTo!</title>
<ellipse fill="gray" stroke="black" cx="244.87" cy="-18" rx="28.74" ry="18"/>
<text text-anchor="middle" x="244.87" y="-15.8" font-family="Times,serif" font-size="9.00">MoveTo!</text>
</g>
<!-- Sequence*&#45;&gt;MoveTo! -->
<g id="edge9" class="edge">
<title>Sequence*&#45;&gt;MoveTo!</title>
<path fill="none" stroke="black" d="M212.5,-71.7C217.64,-63.32 223.92,-53.1 229.57,-43.9"/>
<polygon fill="black" stroke="black" points="232.7,-45.5 234.95,-35.14 226.73,-41.83 232.7,-45.5"/>
</g>
<!-- LkClose?** -->
<g id="node15" class="node">
<title>LkClose?**</title>
<ellipse fill="gray" stroke="black" cx="323.87" cy="-162" rx="34.13" ry="18"/>
<text text-anchor="middle" x="323.87" y="-159.8" font-family="Times,serif" font-size="9.00">LkClose?**</text>
</g>
<!-- Sequence**&#45;&gt;LkClose?** -->
<g id="edge14" class="edge">
<title>Sequence**&#45;&gt;LkClose?**</title>
<path fill="none" stroke="black" d="M388.45,-217.46C376.85,-207.68 361.73,-194.93 349.03,-184.22"/>
<polygon fill="black" stroke="black" points="351,-181.31 341.1,-177.54 346.49,-186.66 351,-181.31"/>
</g>
<!-- LkGraph? -->
<g id="node16" class="node">
<title>LkGraph?</title>
<ellipse fill="gray" stroke="black" cx="406.87" cy="-162" rx="30.7" ry="18"/>
<text text-anchor="middle" x="406.87" y="-159.8" font-family="Times,serif" font-size="9.00">LkGraph?</text>
</g>
<!-- Sequence**&#45;&gt;LkGraph? -->
<g id="edge15" class="edge">
<title>Sequence**&#45;&gt;LkGraph?</title>
<path fill="none" stroke="black" d="M406.87,-215.7C406.87,-207.98 406.87,-198.71 406.87,-190.11"/>
<polygon fill="black" stroke="black" points="410.37,-190.1 406.87,-180.1 403.37,-190.1 410.37,-190.1"/>
</g>
<!-- GetSubGoal! -->
<g id="node17" class="node">
<title>GetSubGoal!</title>
<ellipse fill="gray" stroke="black" cx="492.87" cy="-162" rx="36.9" ry="18"/>
<text text-anchor="middle" x="492.87" y="-159.8" font-family="Times,serif" font-size="9.00">GetSubGoal!</text>
</g>
<!-- Sequence**&#45;&gt;GetSubGoal! -->
<g id="edge16" class="edge">
<title>Sequence**&#45;&gt;GetSubGoal!</title>
<path fill="none" stroke="black" d="M425.95,-217.46C438,-207.66 453.72,-194.86 466.9,-184.14"/>
<polygon fill="black" stroke="black" points="469.17,-186.8 474.72,-177.77 464.75,-181.37 469.17,-186.8"/>
</g>
</g>
</svg>
