<?xml version="1.0" encoding="UTF-8" standalone="no"?>
<!DOCTYPE svg PUBLIC "-//W3C//DTD SVG 1.1//EN"
 "http://www.w3.org/Graphics/SVG/1.1/DTD/svg11.dtd">
<!-- Generated by graphviz version 2.43.0 (0)
 -->
<!-- Title: pastafarianism Pages: 1 -->
<svg width="705pt" height="476pt"
 viewBox="0.00 0.00 704.52 476.00" xmlns="http://www.w3.org/2000/svg" xmlns:xlink="http://www.w3.org/1999/xlink">
<g id="graph0" class="graph" transform="scale(1 1) rotate(0) translate(4 472)">
<title>pastafarianism</title>
<polygon fill="white" stroke="transparent" points="-4,4 -4,-472 700.52,-472 700.52,4 -4,4"/>
<!-- Fallback -->
<g id="node1" class="node">
<title>Fallback</title>
<polygon fill="cyan" stroke="black" points="431.5,-442.54 431.5,-457.46 414.37,-468 390.15,-468 373.02,-457.46 373.02,-442.54 390.15,-432 414.37,-432 431.5,-442.54"/>
<text text-anchor="middle" x="402.26" y="-447.8" font-family="Times,serif" font-size="9.00">Fallback</text>
</g>
<!-- GetLk! -->
<g id="node2" class="node">
<title>GetLk!</title>
<ellipse fill="gray" stroke="black" cx="240.26" cy="-378" rx="27" ry="18"/>
<text text-anchor="middle" x="240.26" y="-375.8" font-family="Times,serif" font-size="9.00">GetLk!</text>
</g>
<!-- Fallback&#45;&gt;GetLk! -->
<g id="edge1" class="edge">
<title>Fallback&#45;&gt;GetLk!</title>
<path fill="none" stroke="black" d="M377.97,-439.15C352.5,-428.73 311.37,-411.66 276.26,-396 274.46,-395.2 272.62,-394.36 270.76,-393.51"/>
<polygon fill="black" stroke="black" points="272.05,-390.26 261.51,-389.22 269.11,-396.61 272.05,-390.26"/>
</g>
<!-- ReachGoal? -->
<g id="node3" class="node">
<title>ReachGoal?</title>
<ellipse fill="gray" stroke="black" cx="319.26" cy="-378" rx="34.13" ry="18"/>
<text text-anchor="middle" x="319.26" y="-375.8" font-family="Times,serif" font-size="9.00">ReachGoal?</text>
</g>
<!-- Fallback&#45;&gt;ReachGoal? -->
<g id="edge2" class="edge">
<title>Fallback&#45;&gt;ReachGoal?</title>
<path fill="none" stroke="black" d="M385.46,-434.83C373.7,-424.91 357.76,-411.47 344.47,-400.26"/>
<polygon fill="black" stroke="black" points="346.5,-397.4 336.6,-393.63 341.99,-402.75 346.5,-397.4"/>
</g>
<!-- Sequence -->
<g id="node4" class="node">
<title>Sequence</title>
<polygon fill="cyan" stroke="black" points="433.75,-370.54 433.75,-385.46 415.31,-396 389.21,-396 370.77,-385.46 370.77,-370.54 389.21,-360 415.31,-360 433.75,-370.54"/>
<text text-anchor="middle" x="402.26" y="-375.8" font-family="Times,serif" font-size="9.00">Sequence</text>
</g>
<!-- Fallback&#45;&gt;Sequence -->
<g id="edge3" class="edge">
<title>Fallback&#45;&gt;Sequence</title>
<path fill="none" stroke="black" d="M402.26,-431.7C402.26,-423.98 402.26,-414.71 402.26,-406.11"/>
<polygon fill="black" stroke="black" points="405.76,-406.1 402.26,-396.1 398.76,-406.1 405.76,-406.1"/>
</g>
<!-- LkClose? -->
<g id="node21" class="node">
<title>LkClose?</title>
<ellipse fill="gray" stroke="black" cx="480.26" cy="-378" rx="28.74" ry="18"/>
<text text-anchor="middle" x="480.26" y="-375.8" font-family="Times,serif" font-size="9.00">LkClose?</text>
</g>
<!-- Fallback&#45;&gt;LkClose? -->
<g id="edge20" class="edge">
<title>Fallback&#45;&gt;LkClose?</title>
<path fill="none" stroke="black" d="M418.8,-434.15C429.88,-424.21 444.63,-410.98 456.9,-399.97"/>
<polygon fill="black" stroke="black" points="459.44,-402.39 464.54,-393.11 454.76,-397.18 459.44,-402.39"/>
</g>
<!-- Sequence**** -->
<g id="node22" class="node">
<title>Sequence****</title>
<polygon fill="cyan" stroke="black" points="611.75,-370.54 611.75,-385.46 586.86,-396 551.66,-396 526.77,-385.46 526.77,-370.54 551.66,-360 586.86,-360 611.75,-370.54"/>
<text text-anchor="middle" x="569.26" y="-375.8" font-family="Times,serif" font-size="9.00">Sequence****</text>
</g>
<!-- Fallback&#45;&gt;Sequence**** -->
<g id="edge21" class="edge">
<title>Fallback&#45;&gt;Sequence****</title>
<path fill="none" stroke="black" d="M426.19,-438.97C453.4,-427.56 498.24,-408.77 530.47,-395.26"/>
<polygon fill="black" stroke="black" points="532.17,-398.34 540.04,-391.25 529.46,-391.89 532.17,-398.34"/>
</g>
<!-- Fallback* -->
<g id="node5" class="node">
<title>Fallback*</title>
<polygon fill="cyan" stroke="black" points="347,-298.54 347,-313.46 328.41,-324 302.11,-324 283.52,-313.46 283.52,-298.54 302.11,-288 328.41,-288 347,-298.54"/>
<text text-anchor="middle" x="315.26" y="-303.8" font-family="Times,serif" font-size="9.00">Fallback*</text>
</g>
<!-- Sequence&#45;&gt;Fallback* -->
<g id="edge4" class="edge">
<title>Sequence&#45;&gt;Fallback*</title>
<path fill="none" stroke="black" d="M384.23,-362.5C371.87,-352.55 355.26,-339.19 341.44,-328.07"/>
<polygon fill="black" stroke="black" points="343.25,-325.03 333.26,-321.49 338.86,-330.48 343.25,-325.03"/>
</g>
<!-- MoveTo!*** -->
<g id="node20" class="node">
<title>MoveTo!***</title>
<ellipse fill="gray" stroke="black" cx="402.26" cy="-306" rx="36.9" ry="18"/>
<text text-anchor="middle" x="402.26" y="-303.8" font-family="Times,serif" font-size="9.00">MoveTo!***</text>
</g>
<!-- Sequence&#45;&gt;MoveTo!*** -->
<g id="edge19" class="edge">
<title>Sequence&#45;&gt;MoveTo!***</title>
<path fill="none" stroke="black" d="M402.26,-359.7C402.26,-351.98 402.26,-342.71 402.26,-334.11"/>
<polygon fill="black" stroke="black" points="405.76,-334.1 402.26,-324.1 398.76,-334.1 405.76,-334.1"/>
</g>
<!-- ReachGoal?* -->
<g id="node6" class="node">
<title>ReachGoal?*</title>
<ellipse fill="gray" stroke="black" cx="180.26" cy="-234" rx="36.9" ry="18"/>
<text text-anchor="middle" x="180.26" y="-231.8" font-family="Times,serif" font-size="9.00">ReachGoal?*</text>
</g>
<!-- Fallback*&#45;&gt;ReachGoal?* -->
<g id="edge5" class="edge">
<title>Fallback*&#45;&gt;ReachGoal?*</title>
<path fill="none" stroke="black" d="M292.66,-293.28C271.1,-282.1 238.34,-265.12 213.75,-252.36"/>
<polygon fill="black" stroke="black" points="215.25,-249.2 204.76,-247.7 212.03,-255.41 215.25,-249.2"/>
</g>
<!-- Sequence* -->
<g id="node7" class="node">
<title>Sequence*</title>
<polygon fill="cyan" stroke="black" points="303.5,-226.54 303.5,-241.46 283.44,-252 255.08,-252 235.02,-241.46 235.02,-226.54 255.08,-216 283.44,-216 303.5,-226.54"/>
<text text-anchor="middle" x="269.26" y="-231.8" font-family="Times,serif" font-size="9.00">Sequence*</text>
</g>
<!-- Fallback*&#45;&gt;Sequence* -->
<g id="edge6" class="edge">
<title>Fallback*&#45;&gt;Sequence*</title>
<path fill="none" stroke="black" d="M303.89,-287.7C298.54,-279.56 292.06,-269.69 286.15,-260.7"/>
<polygon fill="black" stroke="black" points="288.92,-258.54 280.5,-252.1 283.07,-262.38 288.92,-258.54"/>
</g>
<!-- Sequence*** -->
<g id="node16" class="node">
<title>Sequence***</title>
<polygon fill="cyan" stroke="black" points="402.25,-226.54 402.25,-241.46 378.82,-252 345.7,-252 322.27,-241.46 322.27,-226.54 345.7,-216 378.82,-216 402.25,-226.54"/>
<text text-anchor="middle" x="362.26" y="-231.8" font-family="Times,serif" font-size="9.00">Sequence***</text>
</g>
<!-- Fallback*&#45;&gt;Sequence*** -->
<g id="edge15" class="edge">
<title>Fallback*&#45;&gt;Sequence***</title>
<path fill="none" stroke="black" d="M326.88,-287.7C332.4,-279.47 339.11,-269.48 345.19,-260.42"/>
<polygon fill="black" stroke="black" points="348.11,-262.36 350.78,-252.1 342.3,-258.46 348.11,-262.36"/>
</g>
<!-- NotReadyForSG?* -->
<g id="node19" class="node">
<title>NotReadyForSG?*</title>
<ellipse fill="gray" stroke="black" cx="470.26" cy="-234" rx="49.8" ry="18"/>
<text text-anchor="middle" x="470.26" y="-231.8" font-family="Times,serif" font-size="9.00">NotReadyForSG?*</text>
</g>
<!-- Fallback*&#45;&gt;NotReadyForSG?* -->
<g id="edge18" class="edge">
<title>Fallback*&#45;&gt;NotReadyForSG?*</title>
<path fill="none" stroke="black" d="M339.48,-294.06C363.96,-283.01 402.18,-265.74 431,-252.73"/>
<polygon fill="black" stroke="black" points="432.7,-255.8 440.37,-248.5 429.82,-249.42 432.7,-255.8"/>
</g>
<!-- Fallback** -->
<g id="node8" class="node">
<title>Fallback**</title>
<polygon fill="cyan" stroke="black" points="219.25,-154.54 219.25,-169.46 198.75,-180 169.77,-180 149.27,-169.46 149.27,-154.54 169.77,-144 198.75,-144 219.25,-154.54"/>
<text text-anchor="middle" x="184.26" y="-159.8" font-family="Times,serif" font-size="9.00">Fallback**</text>
</g>
<!-- Sequence*&#45;&gt;Fallback** -->
<g id="edge7" class="edge">
<title>Sequence*&#45;&gt;Fallback**</title>
<path fill="none" stroke="black" d="M250.82,-217.81C239.01,-208.09 223.51,-195.32 210.44,-184.56"/>
<polygon fill="black" stroke="black" points="212.61,-181.81 202.67,-178.16 208.16,-187.22 212.61,-181.81"/>
</g>
<!-- MoveTo!* -->
<g id="node15" class="node">
<title>MoveTo!*</title>
<ellipse fill="gray" stroke="black" cx="269.26" cy="-162" rx="31.51" ry="18"/>
<text text-anchor="middle" x="269.26" y="-159.8" font-family="Times,serif" font-size="9.00">MoveTo!*</text>
</g>
<!-- Sequence*&#45;&gt;MoveTo!* -->
<g id="edge14" class="edge">
<title>Sequence*&#45;&gt;MoveTo!*</title>
<path fill="none" stroke="black" d="M269.26,-215.7C269.26,-207.98 269.26,-198.71 269.26,-190.11"/>
<polygon fill="black" stroke="black" points="272.76,-190.1 269.26,-180.1 265.76,-190.1 272.76,-190.1"/>
</g>
<!-- ReachGoal?** -->
<g id="node9" class="node">
<title>ReachGoal?**</title>
<ellipse fill="gray" stroke="black" cx="39.26" cy="-90" rx="39.02" ry="18"/>
<text text-anchor="middle" x="39.26" y="-87.8" font-family="Times,serif" font-size="9.00">ReachGoal?**</text>
</g>
<!-- Fallback**&#45;&gt;ReachGoal?** -->
<g id="edge8" class="edge">
<title>Fallback**&#45;&gt;ReachGoal?**</title>
<path fill="none" stroke="black" d="M159.66,-149.13C136.35,-137.87 101.07,-120.84 74.72,-108.12"/>
<polygon fill="black" stroke="black" points="75.98,-104.84 65.45,-103.64 72.93,-111.14 75.98,-104.84"/>
</g>
<!-- Sequence** -->
<g id="node10" class="node">
<title>Sequence**</title>
<polygon fill="cyan" stroke="black" points="170,-82.54 170,-97.46 148.48,-108 118.04,-108 96.52,-97.46 96.52,-82.54 118.04,-72 148.48,-72 170,-82.54"/>
<text text-anchor="middle" x="133.26" y="-87.8" font-family="Times,serif" font-size="9.00">Sequence**</text>
</g>
<!-- Fallback**&#45;&gt;Sequence** -->
<g id="edge9" class="edge">
<title>Fallback**&#45;&gt;Sequence**</title>
<path fill="none" stroke="black" d="M171.65,-143.7C165.66,-135.47 158.38,-125.48 151.78,-116.42"/>
<polygon fill="black" stroke="black" points="154.44,-114.13 145.72,-108.1 148.78,-118.25 154.44,-114.13"/>
</g>
<!-- NotReadyForSG? -->
<g id="node13" class="node">
<title>NotReadyForSG?</title>
<ellipse fill="gray" stroke="black" cx="235.26" cy="-90" rx="46.53" ry="18"/>
<text text-anchor="middle" x="235.26" y="-87.8" font-family="Times,serif" font-size="9.00">NotReadyForSG?</text>
</g>
<!-- Fallback**&#45;&gt;NotReadyForSG? -->
<g id="edge12" class="edge">
<title>Fallback**&#45;&gt;NotReadyForSG?</title>
<path fill="none" stroke="black" d="M196.87,-143.7C203.01,-135.27 210.51,-124.97 217.24,-115.73"/>
<polygon fill="black" stroke="black" points="220.09,-117.77 223.15,-107.62 214.43,-113.64 220.09,-117.77"/>
</g>
<!-- GetSubGoal! -->
<g id="node14" class="node">
<title>GetSubGoal!</title>
<ellipse fill="gray" stroke="black" cx="337.26" cy="-90" rx="36.9" ry="18"/>
<text text-anchor="middle" x="337.26" y="-87.8" font-family="Times,serif" font-size="9.00">GetSubGoal!</text>
</g>
<!-- Fallback**&#45;&gt;GetSubGoal! -->
<g id="edge13" class="edge">
<title>Fallback**&#45;&gt;GetSubGoal!</title>
<path fill="none" stroke="black" d="M209.52,-149.44C234.77,-137.89 273.78,-120.04 302.05,-107.11"/>
<polygon fill="black" stroke="black" points="303.55,-110.27 311.19,-102.93 300.64,-103.91 303.55,-110.27"/>
</g>
<!-- ReachGoal?*** -->
<g id="node11" class="node">
<title>ReachGoal?***</title>
<ellipse fill="gray" stroke="black" cx="89.26" cy="-18" rx="42.29" ry="18"/>
<text text-anchor="middle" x="89.26" y="-15.8" font-family="Times,serif" font-size="9.00">ReachGoal?***</text>
</g>
<!-- Sequence**&#45;&gt;ReachGoal?*** -->
<g id="edge10" class="edge">
<title>Sequence**&#45;&gt;ReachGoal?***</title>
<path fill="none" stroke="black" d="M122.38,-71.7C117.19,-63.44 110.88,-53.39 105.16,-44.3"/>
<polygon fill="black" stroke="black" points="107.99,-42.23 99.71,-35.62 102.07,-45.95 107.99,-42.23"/>
</g>
<!-- MoveTo! -->
<g id="node12" class="node">
<title>MoveTo!</title>
<ellipse fill="gray" stroke="black" cx="178.26" cy="-18" rx="28.74" ry="18"/>
<text text-anchor="middle" x="178.26" y="-15.8" font-family="Times,serif" font-size="9.00">MoveTo!</text>
</g>
<!-- Sequence**&#45;&gt;MoveTo! -->
<g id="edge11" class="edge">
<title>Sequence**&#45;&gt;MoveTo!</title>
<path fill="none" stroke="black" d="M144.38,-71.7C149.83,-63.23 156.48,-52.89 162.44,-43.61"/>
<polygon fill="black" stroke="black" points="165.42,-45.45 167.88,-35.14 159.53,-41.66 165.42,-45.45"/>
</g>
<!-- ReachGoal?**** -->
<g id="node17" class="node">
<title>ReachGoal?****</title>
<ellipse fill="gray" stroke="black" cx="363.26" cy="-162" rx="44.41" ry="18"/>
<text text-anchor="middle" x="363.26" y="-159.8" font-family="Times,serif" font-size="9.00">ReachGoal?****</text>
</g>
<!-- Sequence***&#45;&gt;ReachGoal?**** -->
<g id="edge16" class="edge">
<title>Sequence***&#45;&gt;ReachGoal?****</title>
<path fill="none" stroke="black" d="M362.51,-215.7C362.62,-207.98 362.75,-198.71 362.87,-190.11"/>
<polygon fill="black" stroke="black" points="366.37,-190.15 363.02,-180.1 359.37,-190.05 366.37,-190.15"/>
</g>
<!-- MoveTo!** -->
<g id="node18" class="node">
<title>MoveTo!**</title>
<ellipse fill="gray" stroke="black" cx="460.26" cy="-162" rx="34.13" ry="18"/>
<text text-anchor="middle" x="460.26" y="-159.8" font-family="Times,serif" font-size="9.00">MoveTo!**</text>
</g>
<!-- Sequence***&#45;&gt;MoveTo!** -->
<g id="edge17" class="edge">
<title>Sequence***&#45;&gt;MoveTo!**</title>
<path fill="none" stroke="black" d="M383.52,-217.81C397.87,-207.57 416.94,-193.94 432.48,-182.84"/>
<polygon fill="black" stroke="black" points="434.6,-185.63 440.7,-176.97 430.53,-179.93 434.6,-185.63"/>
</g>
<!-- LkClose?* -->
<g id="node23" class="node">
<title>LkClose?*</title>
<ellipse fill="gray" stroke="black" cx="489.26" cy="-306" rx="31.51" ry="18"/>
<text text-anchor="middle" x="489.26" y="-303.8" font-family="Times,serif" font-size="9.00">LkClose?*</text>
</g>
<!-- Sequence****&#45;&gt;LkClose?* -->
<g id="edge22" class="edge">
<title>Sequence****&#45;&gt;LkClose?*</title>
<path fill="none" stroke="black" d="M550.3,-360.41C539.34,-350.82 525.43,-338.65 513.66,-328.35"/>
<polygon fill="black" stroke="black" points="515.74,-325.52 505.91,-321.57 511.13,-330.79 515.74,-325.52"/>
</g>
<!-- LkGraph? -->
<g id="node24" class="node">
<title>LkGraph?</title>
<ellipse fill="gray" stroke="black" cx="569.26" cy="-306" rx="30.7" ry="18"/>
<text text-anchor="middle" x="569.26" y="-303.8" font-family="Times,serif" font-size="9.00">LkGraph?</text>
</g>
<!-- Sequence****&#45;&gt;LkGraph? -->
<g id="edge23" class="edge">
<title>Sequence****&#45;&gt;LkGraph?</title>
<path fill="none" stroke="black" d="M569.26,-359.7C569.26,-351.98 569.26,-342.71 569.26,-334.11"/>
<polygon fill="black" stroke="black" points="572.76,-334.1 569.26,-324.1 565.76,-334.1 572.76,-334.1"/>
</g>
<!-- GetSubGoal!* -->
<g id="node25" class="node">
<title>GetSubGoal!*</title>
<ellipse fill="gray" stroke="black" cx="657.26" cy="-306" rx="39.02" ry="18"/>
<text text-anchor="middle" x="657.26" y="-303.8" font-family="Times,serif" font-size="9.00">GetSubGoal!*</text>
</g>
<!-- Sequence****&#45;&gt;GetSubGoal!* -->
<g id="edge24" class="edge">
<title>Sequence****&#45;&gt;GetSubGoal!*</title>
<path fill="none" stroke="black" d="M589.67,-360.76C601.75,-351.16 617.19,-338.87 630.27,-328.47"/>
<polygon fill="black" stroke="black" points="632.82,-330.92 638.46,-321.95 628.46,-325.44 632.82,-330.92"/>
</g>
</g>
</svg>
