<?xml version="1.0" encoding="UTF-8" standalone="no"?>
<!DOCTYPE svg PUBLIC "-//W3C//DTD SVG 1.1//EN"
 "http://www.w3.org/Graphics/SVG/1.1/DTD/svg11.dtd">
<!-- Generated by graphviz version 2.43.0 (0)
 -->
<!-- Title: pastafarianism Pages: 1 -->
<svg width="728pt" height="332pt"
 viewBox="0.00 0.00 728.15 332.00" xmlns="http://www.w3.org/2000/svg" xmlns:xlink="http://www.w3.org/1999/xlink">
<g id="graph0" class="graph" transform="scale(1 1) rotate(0) translate(4 328)">
<title>pastafarianism</title>
<polygon fill="white" stroke="transparent" points="-4,4 -4,-328 724.15,-328 724.15,4 -4,4"/>
<!-- Fallback -->
<g id="node1" class="node">
<title>Fallback</title>
<polygon fill="cyan" stroke="black" points="487.24,-298.54 487.24,-313.46 470.11,-324 445.89,-324 428.76,-313.46 428.76,-298.54 445.89,-288 470.11,-288 487.24,-298.54"/>
<text text-anchor="middle" x="458" y="-303.8" font-family="Times,serif" font-size="9.00">Fallback</text>
</g>
<!-- ReachGoal? -->
<g id="node2" class="node">
<title>ReachGoal?</title>
<ellipse fill="gray" stroke="black" cx="375" cy="-234" rx="34.13" ry="18"/>
<text text-anchor="middle" x="375" y="-231.8" font-family="Times,serif" font-size="9.00">ReachGoal?</text>
</g>
<!-- Fallback&#45;&gt;ReachGoal? -->
<g id="edge1" class="edge">
<title>Fallback&#45;&gt;ReachGoal?</title>
<path fill="none" stroke="black" d="M441.2,-290.83C429.44,-280.91 413.5,-267.47 400.21,-256.26"/>
<polygon fill="black" stroke="black" points="402.24,-253.4 392.34,-249.63 397.73,-258.75 402.24,-253.4"/>
</g>
<!-- Sequence -->
<g id="node3" class="node">
<title>Sequence</title>
<polygon fill="cyan" stroke="black" points="489.49,-226.54 489.49,-241.46 471.05,-252 444.95,-252 426.51,-241.46 426.51,-226.54 444.95,-216 471.05,-216 489.49,-226.54"/>
<text text-anchor="middle" x="458" y="-231.8" font-family="Times,serif" font-size="9.00">Sequence</text>
</g>
<!-- Fallback&#45;&gt;Sequence -->
<g id="edge2" class="edge">
<title>Fallback&#45;&gt;Sequence</title>
<path fill="none" stroke="black" d="M458,-287.7C458,-279.98 458,-270.71 458,-262.11"/>
<polygon fill="black" stroke="black" points="461.5,-262.1 458,-252.1 454.5,-262.1 461.5,-262.1"/>
</g>
<!-- LkClose? -->
<g id="node20" class="node">
<title>LkClose?</title>
<ellipse fill="gray" stroke="black" cx="536" cy="-234" rx="28.74" ry="18"/>
<text text-anchor="middle" x="536" y="-231.8" font-family="Times,serif" font-size="9.00">LkClose?</text>
</g>
<!-- Fallback&#45;&gt;LkClose? -->
<g id="edge19" class="edge">
<title>Fallback&#45;&gt;LkClose?</title>
<path fill="none" stroke="black" d="M474.54,-290.15C485.62,-280.21 500.37,-266.98 512.64,-255.97"/>
<polygon fill="black" stroke="black" points="515.18,-258.39 520.28,-249.11 510.5,-253.18 515.18,-258.39"/>
</g>
<!-- Fallback* -->
<g id="node4" class="node">
<title>Fallback*</title>
<polygon fill="cyan" stroke="black" points="450.74,-154.54 450.74,-169.46 432.15,-180 405.85,-180 387.26,-169.46 387.26,-154.54 405.85,-144 432.15,-144 450.74,-154.54"/>
<text text-anchor="middle" x="419" y="-159.8" font-family="Times,serif" font-size="9.00">Fallback*</text>
</g>
<!-- Sequence&#45;&gt;Fallback* -->
<g id="edge3" class="edge">
<title>Sequence&#45;&gt;Fallback*</title>
<path fill="none" stroke="black" d="M448.36,-215.7C443.87,-207.64 438.44,-197.89 433.48,-188.98"/>
<polygon fill="black" stroke="black" points="436.45,-187.14 428.53,-180.1 430.34,-190.54 436.45,-187.14"/>
</g>
<!-- MoveTo! -->
<g id="node19" class="node">
<title>MoveTo!</title>
<ellipse fill="gray" stroke="black" cx="498" cy="-162" rx="28.74" ry="18"/>
<text text-anchor="middle" x="498" y="-159.8" font-family="Times,serif" font-size="9.00">MoveTo!</text>
</g>
<!-- Sequence&#45;&gt;MoveTo! -->
<g id="edge18" class="edge">
<title>Sequence&#45;&gt;MoveTo!</title>
<path fill="none" stroke="black" d="M467.89,-215.7C472.68,-207.32 478.52,-197.1 483.77,-187.9"/>
<polygon fill="black" stroke="black" points="486.85,-189.56 488.77,-179.14 480.77,-186.09 486.85,-189.56"/>
</g>
<!-- Sequence* -->
<g id="node5" class="node">
<title>Sequence*</title>
<polygon fill="cyan" stroke="black" points="180.24,-82.54 180.24,-97.46 160.18,-108 131.82,-108 111.76,-97.46 111.76,-82.54 131.82,-72 160.18,-72 180.24,-82.54"/>
<text text-anchor="middle" x="146" y="-87.8" font-family="Times,serif" font-size="9.00">Sequence*</text>
</g>
<!-- Fallback*&#45;&gt;Sequence* -->
<g id="edge4" class="edge">
<title>Fallback*&#45;&gt;Sequence*</title>
<path fill="none" stroke="black" d="M389.26,-153.38C340.35,-140.83 242.8,-115.82 187.24,-101.57"/>
<polygon fill="black" stroke="black" points="187.93,-98.14 177.37,-99.04 186.19,-104.92 187.93,-98.14"/>
</g>
<!-- ReachGoal?* -->
<g id="node9" class="node">
<title>ReachGoal?*</title>
<ellipse fill="gray" stroke="black" cx="280" cy="-90" rx="36.9" ry="18"/>
<text text-anchor="middle" x="280" y="-87.8" font-family="Times,serif" font-size="9.00">ReachGoal?*</text>
</g>
<!-- Fallback*&#45;&gt;ReachGoal?* -->
<g id="edge8" class="edge">
<title>Fallback*&#45;&gt;ReachGoal?*</title>
<path fill="none" stroke="black" d="M396.05,-149.44C373.66,-138.17 339.34,-120.89 313.83,-108.04"/>
<polygon fill="black" stroke="black" points="315.37,-104.89 304.87,-103.52 312.22,-111.15 315.37,-104.89"/>
</g>
<!-- Sequence** -->
<g id="node10" class="node">
<title>Sequence**</title>
<polygon fill="cyan" stroke="black" points="408.74,-82.54 408.74,-97.46 387.22,-108 356.78,-108 335.26,-97.46 335.26,-82.54 356.78,-72 387.22,-72 408.74,-82.54"/>
<text text-anchor="middle" x="372" y="-87.8" font-family="Times,serif" font-size="9.00">Sequence**</text>
</g>
<!-- Fallback*&#45;&gt;Sequence** -->
<g id="edge9" class="edge">
<title>Fallback*&#45;&gt;Sequence**</title>
<path fill="none" stroke="black" d="M407.38,-143.7C401.86,-135.47 395.15,-125.48 389.07,-116.42"/>
<polygon fill="black" stroke="black" points="391.96,-114.46 383.48,-108.1 386.15,-118.36 391.96,-114.46"/>
</g>
<!-- Sequence*** -->
<g id="node13" class="node">
<title>Sequence***</title>
<polygon fill="cyan" stroke="black" points="508.99,-82.54 508.99,-97.46 485.56,-108 452.44,-108 429.01,-97.46 429.01,-82.54 452.44,-72 485.56,-72 508.99,-82.54"/>
<text text-anchor="middle" x="469" y="-87.8" font-family="Times,serif" font-size="9.00">Sequence***</text>
</g>
<!-- Fallback*&#45;&gt;Sequence*** -->
<g id="edge12" class="edge">
<title>Fallback*&#45;&gt;Sequence***</title>
<path fill="none" stroke="black" d="M431.36,-143.7C437.23,-135.47 444.37,-125.48 450.84,-116.42"/>
<polygon fill="black" stroke="black" points="453.82,-118.28 456.78,-108.1 448.12,-114.21 453.82,-118.28"/>
</g>
<!-- NotReadyForSG? -->
<g id="node17" class="node">
<title>NotReadyForSG?</title>
<ellipse fill="gray" stroke="black" cx="574" cy="-90" rx="46.53" ry="18"/>
<text text-anchor="middle" x="574" y="-87.8" font-family="Times,serif" font-size="9.00">NotReadyForSG?</text>
</g>
<!-- Fallback*&#45;&gt;NotReadyForSG? -->
<g id="edge16" class="edge">
<title>Fallback*&#45;&gt;NotReadyForSG?</title>
<path fill="none" stroke="black" d="M443.22,-150.06C467.93,-138.9 506.64,-121.42 535.54,-108.37"/>
<polygon fill="black" stroke="black" points="537.26,-111.43 544.94,-104.13 534.38,-105.05 537.26,-111.43"/>
</g>
<!-- GetSubGoal!* -->
<g id="node18" class="node">
<title>GetSubGoal!*</title>
<ellipse fill="gray" stroke="black" cx="678" cy="-90" rx="39.02" ry="18"/>
<text text-anchor="middle" x="678" y="-87.8" font-family="Times,serif" font-size="9.00">GetSubGoal!*</text>
</g>
<!-- Fallback*&#45;&gt;GetSubGoal!* -->
<g id="edge17" class="edge">
<title>Fallback*&#45;&gt;GetSubGoal!*</title>
<path fill="none" stroke="black" d="M443.45,-150C448.83,-147.82 454.55,-145.69 460,-144 533.76,-121.11 555.66,-128.94 630,-108 632.97,-107.16 636.02,-106.24 639.07,-105.27"/>
<polygon fill="black" stroke="black" points="640.37,-108.53 648.75,-102.05 638.16,-101.88 640.37,-108.53"/>
</g>
<!-- GetLk! -->
<g id="node6" class="node">
<title>GetLk!</title>
<ellipse fill="gray" stroke="black" cx="27" cy="-18" rx="27" ry="18"/>
<text text-anchor="middle" x="27" y="-15.8" font-family="Times,serif" font-size="9.00">GetLk!</text>
</g>
<!-- Sequence*&#45;&gt;GetLk! -->
<g id="edge5" class="edge">
<title>Sequence*&#45;&gt;GetLk!</title>
<path fill="none" stroke="black" d="M123.9,-76C104.57,-64.63 76.41,-48.06 55.41,-35.71"/>
<polygon fill="black" stroke="black" points="57.01,-32.59 46.62,-30.54 53.46,-38.63 57.01,-32.59"/>
</g>
<!-- LkGraph? -->
<g id="node7" class="node">
<title>LkGraph?</title>
<ellipse fill="gray" stroke="black" cx="103" cy="-18" rx="30.7" ry="18"/>
<text text-anchor="middle" x="103" y="-15.8" font-family="Times,serif" font-size="9.00">LkGraph?</text>
</g>
<!-- Sequence*&#45;&gt;LkGraph? -->
<g id="edge6" class="edge">
<title>Sequence*&#45;&gt;LkGraph?</title>
<path fill="none" stroke="black" d="M135.37,-71.7C130.22,-63.32 123.95,-53.1 118.29,-43.9"/>
<polygon fill="black" stroke="black" points="121.13,-41.83 112.92,-35.14 115.17,-45.5 121.13,-41.83"/>
</g>
<!-- GetSubGoal! -->
<g id="node8" class="node">
<title>GetSubGoal!</title>
<ellipse fill="gray" stroke="black" cx="189" cy="-18" rx="36.9" ry="18"/>
<text text-anchor="middle" x="189" y="-15.8" font-family="Times,serif" font-size="9.00">GetSubGoal!</text>
</g>
<!-- Sequence*&#45;&gt;GetSubGoal! -->
<g id="edge7" class="edge">
<title>Sequence*&#45;&gt;GetSubGoal!</title>
<path fill="none" stroke="black" d="M156.63,-71.7C161.7,-63.44 167.87,-53.39 173.46,-44.3"/>
<polygon fill="black" stroke="black" points="176.54,-45.98 178.79,-35.62 170.57,-42.31 176.54,-45.98"/>
</g>
<!-- LkGraph?* -->
<g id="node11" class="node">
<title>LkGraph?*</title>
<ellipse fill="gray" stroke="black" cx="277" cy="-18" rx="32.82" ry="18"/>
<text text-anchor="middle" x="277" y="-15.8" font-family="Times,serif" font-size="9.00">LkGraph?*</text>
</g>
<!-- Sequence**&#45;&gt;LkGraph?* -->
<g id="edge10" class="edge">
<title>Sequence**&#45;&gt;LkGraph?*</title>
<path fill="none" stroke="black" d="M351.85,-74.15C337.88,-63.86 319.12,-50.04 303.88,-38.81"/>
<polygon fill="black" stroke="black" points="305.95,-35.99 295.83,-32.87 301.8,-41.62 305.95,-35.99"/>
</g>
<!-- CompLkGraph! -->
<g id="node12" class="node">
<title>CompLkGraph!</title>
<ellipse fill="gray" stroke="black" cx="371" cy="-18" rx="42.95" ry="18"/>
<text text-anchor="middle" x="371" y="-15.8" font-family="Times,serif" font-size="9.00">CompLkGraph!</text>
</g>
<!-- Sequence**&#45;&gt;CompLkGraph! -->
<g id="edge11" class="edge">
<title>Sequence**&#45;&gt;CompLkGraph!</title>
<path fill="none" stroke="black" d="M371.75,-71.7C371.64,-63.98 371.51,-54.71 371.39,-46.11"/>
<polygon fill="black" stroke="black" points="374.89,-46.05 371.24,-36.1 367.89,-46.15 374.89,-46.05"/>
</g>
<!-- ReachGoal?** -->
<g id="node14" class="node">
<title>ReachGoal?**</title>
<ellipse fill="gray" stroke="black" cx="471" cy="-18" rx="39.02" ry="18"/>
<text text-anchor="middle" x="471" y="-15.8" font-family="Times,serif" font-size="9.00">ReachGoal?**</text>
</g>
<!-- Sequence***&#45;&gt;ReachGoal?** -->
<g id="edge13" class="edge">
<title>Sequence***&#45;&gt;ReachGoal?**</title>
<path fill="none" stroke="black" d="M469.49,-71.7C469.71,-63.98 469.98,-54.71 470.23,-46.11"/>
<polygon fill="black" stroke="black" points="473.72,-46.2 470.51,-36.1 466.73,-46 473.72,-46.2"/>
</g>
<!-- CompLkGraph!* -->
<g id="node15" class="node">
<title>CompLkGraph!*</title>
<ellipse fill="gray" stroke="black" cx="573" cy="-18" rx="45.07" ry="18"/>
<text text-anchor="middle" x="573" y="-15.8" font-family="Times,serif" font-size="9.00">CompLkGraph!*</text>
</g>
<!-- Sequence***&#45;&gt;CompLkGraph!* -->
<g id="edge14" class="edge">
<title>Sequence***&#45;&gt;CompLkGraph!*</title>
<path fill="none" stroke="black" d="M490.8,-74.33C505.82,-64.22 525.97,-50.66 542.56,-39.49"/>
<polygon fill="black" stroke="black" points="544.53,-42.38 550.87,-33.9 540.62,-36.58 544.53,-42.38"/>
</g>
<!-- ReachGoal?*** -->
<g id="node16" class="node">
<title>ReachGoal?***</title>
<ellipse fill="gray" stroke="black" cx="678" cy="-18" rx="42.29" ry="18"/>
<text text-anchor="middle" x="678" y="-15.8" font-family="Times,serif" font-size="9.00">ReachGoal?***</text>
</g>
<!-- Sequence***&#45;&gt;ReachGoal?*** -->
<g id="edge15" class="edge">
<title>Sequence***&#45;&gt;ReachGoal?***</title>
<path fill="none" stroke="black" d="M499.82,-78.23C505.84,-76.15 512.12,-73.99 518,-72 566.32,-55.64 578.58,-52.07 627,-36 630.06,-34.99 633.21,-33.94 636.39,-32.88"/>
<polygon fill="black" stroke="black" points="637.52,-36.19 645.9,-29.71 635.31,-29.55 637.52,-36.19"/>
</g>
</g>
</svg>
