<?xml version="1.0" encoding="UTF-8" standalone="no"?>
<!DOCTYPE svg PUBLIC "-//W3C//DTD SVG 1.1//EN"
 "http://www.w3.org/Graphics/SVG/1.1/DTD/svg11.dtd">
<!-- Generated by graphviz version 2.43.0 (0)
 -->
<!-- Title: pastafarianism Pages: 1 -->
<svg width="1229pt" height="404pt"
 viewBox="0.00 0.00 1228.75 404.00" xmlns="http://www.w3.org/2000/svg" xmlns:xlink="http://www.w3.org/1999/xlink">
<g id="graph0" class="graph" transform="scale(1 1) rotate(0) translate(4 400)">
<title>pastafarianism</title>
<polygon fill="white" stroke="transparent" points="-4,4 -4,-400 1224.75,-400 1224.75,4 -4,4"/>
<!-- Fallback -->
<g id="node1" class="node">
<title>Fallback</title>
<polygon fill="cyan" stroke="black" points="855.24,-370.54 855.24,-385.46 838.11,-396 813.89,-396 796.76,-385.46 796.76,-370.54 813.89,-360 838.11,-360 855.24,-370.54"/>
<text text-anchor="middle" x="826" y="-375.8" font-family="Times,serif" font-size="9.00">Fallback</text>
</g>
<!-- ReachGoal? -->
<g id="node2" class="node">
<title>ReachGoal?</title>
<ellipse fill="gray" stroke="black" cx="785" cy="-306" rx="34.13" ry="18"/>
<text text-anchor="middle" x="785" y="-303.8" font-family="Times,serif" font-size="9.00">ReachGoal?</text>
</g>
<!-- Fallback&#45;&gt;ReachGoal? -->
<g id="edge1" class="edge">
<title>Fallback&#45;&gt;ReachGoal?</title>
<path fill="none" stroke="black" d="M815.87,-359.7C811.03,-351.44 805.15,-341.39 799.82,-332.3"/>
<polygon fill="black" stroke="black" points="802.81,-330.48 794.74,-323.62 796.77,-334.02 802.81,-330.48"/>
</g>
<!-- Sequence -->
<g id="node3" class="node">
<title>Sequence</title>
<polygon fill="cyan" stroke="black" points="899.49,-298.54 899.49,-313.46 881.05,-324 854.95,-324 836.51,-313.46 836.51,-298.54 854.95,-288 881.05,-288 899.49,-298.54"/>
<text text-anchor="middle" x="868" y="-303.8" font-family="Times,serif" font-size="9.00">Sequence</text>
</g>
<!-- Fallback&#45;&gt;Sequence -->
<g id="edge2" class="edge">
<title>Fallback&#45;&gt;Sequence</title>
<path fill="none" stroke="black" d="M836.38,-359.7C841.26,-351.56 847.19,-341.69 852.58,-332.7"/>
<polygon fill="black" stroke="black" points="855.59,-334.48 857.74,-324.1 849.59,-330.88 855.59,-334.48"/>
</g>
<!-- Fallback* -->
<g id="node4" class="node">
<title>Fallback*</title>
<polygon fill="cyan" stroke="black" points="768.74,-226.54 768.74,-241.46 750.15,-252 723.85,-252 705.26,-241.46 705.26,-226.54 723.85,-216 750.15,-216 768.74,-226.54"/>
<text text-anchor="middle" x="737" y="-231.8" font-family="Times,serif" font-size="9.00">Fallback*</text>
</g>
<!-- Sequence&#45;&gt;Fallback* -->
<g id="edge3" class="edge">
<title>Sequence&#45;&gt;Fallback*</title>
<path fill="none" stroke="black" d="M845.78,-293.13C824.51,-281.76 792.23,-264.51 768.35,-251.75"/>
<polygon fill="black" stroke="black" points="769.8,-248.56 759.33,-246.93 766.5,-254.73 769.8,-248.56"/>
</g>
<!-- MoveTo! -->
<g id="node25" class="node">
<title>MoveTo!</title>
<ellipse fill="gray" stroke="black" cx="816" cy="-234" rx="28.74" ry="18"/>
<text text-anchor="middle" x="816" y="-231.8" font-family="Times,serif" font-size="9.00">MoveTo!</text>
</g>
<!-- Sequence&#45;&gt;MoveTo! -->
<g id="edge24" class="edge">
<title>Sequence&#45;&gt;MoveTo!</title>
<path fill="none" stroke="black" d="M855.15,-287.7C848.7,-279.02 840.79,-268.37 833.77,-258.92"/>
<polygon fill="black" stroke="black" points="836.41,-256.61 827.64,-250.67 830.8,-260.79 836.41,-256.61"/>
</g>
<!-- NotReadyForSG?**** -->
<g id="node26" class="node">
<title>NotReadyForSG?****</title>
<ellipse fill="gray" stroke="black" cx="920" cy="-234" rx="57.32" ry="18"/>
<text text-anchor="middle" x="920" y="-231.8" font-family="Times,serif" font-size="9.00">NotReadyForSG?****</text>
</g>
<!-- Sequence&#45;&gt;NotReadyForSG?**** -->
<g id="edge25" class="edge">
<title>Sequence&#45;&gt;NotReadyForSG?****</title>
<path fill="none" stroke="black" d="M880.85,-287.7C887.12,-279.27 894.76,-268.97 901.63,-259.73"/>
<polygon fill="black" stroke="black" points="904.5,-261.74 907.65,-251.62 898.88,-257.56 904.5,-261.74"/>
</g>
<!-- ReachGoal?***** -->
<g id="node27" class="node">
<title>ReachGoal?*****</title>
<ellipse fill="gray" stroke="black" cx="1043" cy="-234" rx="47.19" ry="18"/>
<text text-anchor="middle" x="1043" y="-231.8" font-family="Times,serif" font-size="9.00">ReachGoal?*****</text>
</g>
<!-- Sequence&#45;&gt;ReachGoal?***** -->
<g id="edge26" class="edge">
<title>Sequence&#45;&gt;ReachGoal?*****</title>
<path fill="none" stroke="black" d="M893.45,-294.82C921.92,-283.43 968.45,-264.82 1002.06,-251.38"/>
<polygon fill="black" stroke="black" points="1003.62,-254.52 1011.6,-247.56 1001.02,-248.02 1003.62,-254.52"/>
</g>
<!-- Sequence* -->
<g id="node5" class="node">
<title>Sequence*</title>
<polygon fill="cyan" stroke="black" points="608.24,-154.54 608.24,-169.46 588.18,-180 559.82,-180 539.76,-169.46 539.76,-154.54 559.82,-144 588.18,-144 608.24,-154.54"/>
<text text-anchor="middle" x="574" y="-159.8" font-family="Times,serif" font-size="9.00">Sequence*</text>
</g>
<!-- Fallback*&#45;&gt;Sequence* -->
<g id="edge4" class="edge">
<title>Fallback*&#45;&gt;Sequence*</title>
<path fill="none" stroke="black" d="M712.24,-222.37C684.84,-210.6 640.44,-191.53 609.38,-178.19"/>
<polygon fill="black" stroke="black" points="610.37,-174.81 599.8,-174.08 607.61,-181.24 610.37,-174.81"/>
</g>
<!-- NotReadyForSG?*** -->
<g id="node22" class="node">
<title>NotReadyForSG?***</title>
<ellipse fill="gray" stroke="black" cx="681" cy="-162" rx="54.7" ry="18"/>
<text text-anchor="middle" x="681" y="-159.8" font-family="Times,serif" font-size="9.00">NotReadyForSG?***</text>
</g>
<!-- Fallback*&#45;&gt;NotReadyForSG?*** -->
<g id="edge21" class="edge">
<title>Fallback*&#45;&gt;NotReadyForSG?***</title>
<path fill="none" stroke="black" d="M723.44,-216.05C716.63,-207.54 708.25,-197.07 700.75,-187.68"/>
<polygon fill="black" stroke="black" points="703.41,-185.41 694.43,-179.79 697.95,-189.78 703.41,-185.41"/>
</g>
<!-- GetSubGoal!* -->
<g id="node23" class="node">
<title>GetSubGoal!*</title>
<ellipse fill="gray" stroke="black" cx="793" cy="-162" rx="39.02" ry="18"/>
<text text-anchor="middle" x="793" y="-159.8" font-family="Times,serif" font-size="9.00">GetSubGoal!*</text>
</g>
<!-- Fallback*&#45;&gt;GetSubGoal!* -->
<g id="edge22" class="edge">
<title>Fallback*&#45;&gt;GetSubGoal!*</title>
<path fill="none" stroke="black" d="M750.56,-216.05C757.47,-207.42 765.99,-196.76 773.59,-187.27"/>
<polygon fill="black" stroke="black" points="776.44,-189.3 779.95,-179.31 770.97,-184.93 776.44,-189.3"/>
</g>
<!-- ReachGoal?**** -->
<g id="node24" class="node">
<title>ReachGoal?****</title>
<ellipse fill="gray" stroke="black" cx="895" cy="-162" rx="44.41" ry="18"/>
<text text-anchor="middle" x="895" y="-159.8" font-family="Times,serif" font-size="9.00">ReachGoal?****</text>
</g>
<!-- Fallback*&#45;&gt;ReachGoal?**** -->
<g id="edge23" class="edge">
<title>Fallback*&#45;&gt;ReachGoal?****</title>
<path fill="none" stroke="black" d="M761.34,-222.22C786.8,-210.93 827.13,-193.07 856.83,-179.91"/>
<polygon fill="black" stroke="black" points="858.35,-183.07 866.07,-175.82 855.51,-176.67 858.35,-183.07"/>
</g>
<!-- GetLk! -->
<g id="node6" class="node">
<title>GetLk!</title>
<ellipse fill="gray" stroke="black" cx="27" cy="-90" rx="27" ry="18"/>
<text text-anchor="middle" x="27" y="-87.8" font-family="Times,serif" font-size="9.00">GetLk!</text>
</g>
<!-- Sequence*&#45;&gt;GetLk! -->
<g id="edge5" class="edge">
<title>Sequence*&#45;&gt;GetLk!</title>
<path fill="none" stroke="black" d="M539.48,-161.39C455.98,-161.47 237.17,-156.63 63,-108 61.05,-107.46 59.08,-106.81 57.11,-106.11"/>
<polygon fill="black" stroke="black" points="58.06,-102.71 47.48,-102.12 55.38,-109.18 58.06,-102.71"/>
</g>
<!-- ReachGoal?* -->
<g id="node7" class="node">
<title>ReachGoal?*</title>
<ellipse fill="gray" stroke="black" cx="109" cy="-90" rx="36.9" ry="18"/>
<text text-anchor="middle" x="109" y="-87.8" font-family="Times,serif" font-size="9.00">ReachGoal?*</text>
</g>
<!-- Sequence*&#45;&gt;ReachGoal?* -->
<g id="edge6" class="edge">
<title>Sequence*&#45;&gt;ReachGoal?*</title>
<path fill="none" stroke="black" d="M539.57,-159.31C467.36,-155.17 295.13,-142.28 155,-108 152.04,-107.27 149,-106.42 145.97,-105.48"/>
<polygon fill="black" stroke="black" points="147.01,-102.14 136.41,-102.29 144.79,-108.78 147.01,-102.14"/>
</g>
<!-- GetLk!* -->
<g id="node8" class="node">
<title>GetLk!*</title>
<ellipse fill="gray" stroke="black" cx="191" cy="-90" rx="27.27" ry="18"/>
<text text-anchor="middle" x="191" y="-87.8" font-family="Times,serif" font-size="9.00">GetLk!*</text>
</g>
<!-- Sequence*&#45;&gt;GetLk!* -->
<g id="edge7" class="edge">
<title>Sequence*&#45;&gt;GetLk!*</title>
<path fill="none" stroke="black" d="M539.28,-159.03C475.97,-154.7 338.03,-141.91 227,-108 225.07,-107.41 223.1,-106.73 221.15,-106"/>
<polygon fill="black" stroke="black" points="222.11,-102.6 211.53,-101.94 219.39,-109.05 222.11,-102.6"/>
</g>
<!-- ReachGoal?** -->
<g id="node9" class="node">
<title>ReachGoal?**</title>
<ellipse fill="gray" stroke="black" cx="275" cy="-90" rx="39.02" ry="18"/>
<text text-anchor="middle" x="275" y="-87.8" font-family="Times,serif" font-size="9.00">ReachGoal?**</text>
</g>
<!-- Sequence*&#45;&gt;ReachGoal?** -->
<g id="edge8" class="edge">
<title>Sequence*&#45;&gt;ReachGoal?**</title>
<path fill="none" stroke="black" d="M539.55,-155.22C490.85,-146.71 399.31,-129.47 323,-108 320.03,-107.17 316.98,-106.24 313.93,-105.27"/>
<polygon fill="black" stroke="black" points="314.84,-101.89 304.25,-102.05 312.63,-108.53 314.84,-101.89"/>
</g>
<!-- LkClose? -->
<g id="node10" class="node">
<title>LkClose?</title>
<ellipse fill="gray" stroke="black" cx="361" cy="-90" rx="28.74" ry="18"/>
<text text-anchor="middle" x="361" y="-87.8" font-family="Times,serif" font-size="9.00">LkClose?</text>
</g>
<!-- Sequence*&#45;&gt;LkClose? -->
<g id="edge9" class="edge">
<title>Sequence*&#45;&gt;LkClose?</title>
<path fill="none" stroke="black" d="M542.41,-152.9C506.84,-143.46 447.55,-126.74 398,-108 396.17,-107.31 394.29,-106.56 392.41,-105.79"/>
<polygon fill="black" stroke="black" points="393.66,-102.51 383.09,-101.75 390.88,-108.94 393.66,-102.51"/>
</g>
<!-- LkGraph? -->
<g id="node11" class="node">
<title>LkGraph?</title>
<ellipse fill="gray" stroke="black" cx="438" cy="-90" rx="30.7" ry="18"/>
<text text-anchor="middle" x="438" y="-87.8" font-family="Times,serif" font-size="9.00">LkGraph?</text>
</g>
<!-- Sequence*&#45;&gt;LkGraph? -->
<g id="edge10" class="edge">
<title>Sequence*&#45;&gt;LkGraph?</title>
<path fill="none" stroke="black" d="M550.31,-148.81C527.91,-137.28 494.14,-119.89 469.48,-107.2"/>
<polygon fill="black" stroke="black" points="471.01,-104.05 460.51,-102.59 467.8,-110.28 471.01,-104.05"/>
</g>
<!-- ReachGoal?*** -->
<g id="node12" class="node">
<title>ReachGoal?***</title>
<ellipse fill="gray" stroke="black" cx="529" cy="-90" rx="42.29" ry="18"/>
<text text-anchor="middle" x="529" y="-87.8" font-family="Times,serif" font-size="9.00">ReachGoal?***</text>
</g>
<!-- Sequence*&#45;&gt;ReachGoal?*** -->
<g id="edge11" class="edge">
<title>Sequence*&#45;&gt;ReachGoal?***</title>
<path fill="none" stroke="black" d="M562.88,-143.7C557.57,-135.44 551.11,-125.39 545.26,-116.3"/>
<polygon fill="black" stroke="black" points="548.04,-114.14 539.69,-107.62 542.15,-117.93 548.04,-114.14"/>
</g>
<!-- GetLk!** -->
<g id="node13" class="node">
<title>GetLk!**</title>
<ellipse fill="gray" stroke="black" cx="619" cy="-90" rx="29.39" ry="18"/>
<text text-anchor="middle" x="619" y="-87.8" font-family="Times,serif" font-size="9.00">GetLk!**</text>
</g>
<!-- Sequence*&#45;&gt;GetLk!** -->
<g id="edge12" class="edge">
<title>Sequence*&#45;&gt;GetLk!**</title>
<path fill="none" stroke="black" d="M585.12,-143.7C590.57,-135.23 597.22,-124.89 603.18,-115.61"/>
<polygon fill="black" stroke="black" points="606.16,-117.45 608.62,-107.14 600.27,-113.66 606.16,-117.45"/>
</g>
<!-- NotReadyForSG? -->
<g id="node14" class="node">
<title>NotReadyForSG?</title>
<ellipse fill="gray" stroke="black" cx="713" cy="-90" rx="46.53" ry="18"/>
<text text-anchor="middle" x="713" y="-87.8" font-family="Times,serif" font-size="9.00">NotReadyForSG?</text>
</g>
<!-- Sequence*&#45;&gt;NotReadyForSG? -->
<g id="edge13" class="edge">
<title>Sequence*&#45;&gt;NotReadyForSG?</title>
<path fill="none" stroke="black" d="M597.89,-148.97C619.51,-138.08 651.65,-121.89 676.49,-109.39"/>
<polygon fill="black" stroke="black" points="678.25,-112.42 685.61,-104.8 675.1,-106.17 678.25,-112.42"/>
</g>
<!-- GetLk!*** -->
<g id="node15" class="node">
<title>GetLk!***</title>
<ellipse fill="gray" stroke="black" cx="810" cy="-90" rx="32.16" ry="18"/>
<text text-anchor="middle" x="810" y="-87.8" font-family="Times,serif" font-size="9.00">GetLk!***</text>
</g>
<!-- Sequence*&#45;&gt;GetLk!*** -->
<g id="edge14" class="edge">
<title>Sequence*&#45;&gt;GetLk!***</title>
<path fill="none" stroke="black" d="M600.16,-149.96C605.67,-147.84 611.49,-145.73 617,-144 683.23,-123.18 702.94,-129.36 769,-108 771.29,-107.26 773.63,-106.45 775.97,-105.59"/>
<polygon fill="black" stroke="black" points="777.46,-108.77 785.52,-101.9 774.93,-102.24 777.46,-108.77"/>
</g>
<!-- Fallback** -->
<g id="node16" class="node">
<title>Fallback**</title>
<polygon fill="cyan" stroke="black" points="929.99,-82.54 929.99,-97.46 909.49,-108 880.51,-108 860.01,-97.46 860.01,-82.54 880.51,-72 909.49,-72 929.99,-82.54"/>
<text text-anchor="middle" x="895" y="-87.8" font-family="Times,serif" font-size="9.00">Fallback**</text>
</g>
<!-- Sequence*&#45;&gt;Fallback** -->
<g id="edge15" class="edge">
<title>Sequence*&#45;&gt;Fallback**</title>
<path fill="none" stroke="black" d="M599.6,-149.8C605.25,-147.63 611.27,-145.55 617,-144 718.56,-116.48 749.33,-135.12 851,-108 853.65,-107.29 856.37,-106.48 859.08,-105.6"/>
<polygon fill="black" stroke="black" points="860.51,-108.81 868.78,-102.19 858.19,-102.2 860.51,-108.81"/>
</g>
<!-- NotReadyForSG?** -->
<g id="node19" class="node">
<title>NotReadyForSG?**</title>
<ellipse fill="gray" stroke="black" cx="1000" cy="-90" rx="51.92" ry="18"/>
<text text-anchor="middle" x="1000" y="-87.8" font-family="Times,serif" font-size="9.00">NotReadyForSG?**</text>
</g>
<!-- Sequence*&#45;&gt;NotReadyForSG?** -->
<g id="edge18" class="edge">
<title>Sequence*&#45;&gt;NotReadyForSG?**</title>
<path fill="none" stroke="black" d="M599.56,-149.62C605.21,-147.46 611.24,-145.43 617,-144 756.74,-109.22 797.63,-135.42 939,-108 943.43,-107.14 948.01,-106.12 952.57,-105.01"/>
<polygon fill="black" stroke="black" points="953.66,-108.35 962.48,-102.47 951.92,-101.56 953.66,-108.35"/>
</g>
<!-- GetLk!**** -->
<g id="node20" class="node">
<title>GetLk!****</title>
<ellipse fill="gray" stroke="black" cx="1105" cy="-90" rx="34.78" ry="18"/>
<text text-anchor="middle" x="1105" y="-87.8" font-family="Times,serif" font-size="9.00">GetLk!****</text>
</g>
<!-- Sequence*&#45;&gt;GetLk!**** -->
<g id="edge19" class="edge">
<title>Sequence*&#45;&gt;GetLk!****</title>
<path fill="none" stroke="black" d="M599.07,-149.66C604.85,-147.44 611.06,-145.38 617,-144 809.83,-99.12 868,-152.13 1061,-108 1063.84,-107.35 1066.75,-106.55 1069.64,-105.66"/>
<polygon fill="black" stroke="black" points="1071.01,-108.89 1079.33,-102.34 1068.74,-102.27 1071.01,-108.89"/>
</g>
<!-- LkClose?* -->
<g id="node21" class="node">
<title>LkClose?*</title>
<ellipse fill="gray" stroke="black" cx="1189" cy="-90" rx="31.51" ry="18"/>
<text text-anchor="middle" x="1189" y="-87.8" font-family="Times,serif" font-size="9.00">LkClose?*</text>
</g>
<!-- Sequence*&#45;&gt;LkClose?* -->
<g id="edge20" class="edge">
<title>Sequence*&#45;&gt;LkClose?*</title>
<path fill="none" stroke="black" d="M599.05,-149.6C604.84,-147.39 611.05,-145.34 617,-144 848.17,-91.81 918.51,-163.12 1149,-108 1151.35,-107.44 1153.74,-106.75 1156.13,-105.98"/>
<polygon fill="black" stroke="black" points="1157.59,-109.17 1165.76,-102.42 1155.16,-102.6 1157.59,-109.17"/>
</g>
<!-- NotReadyForSG?* -->
<g id="node17" class="node">
<title>NotReadyForSG?*</title>
<ellipse fill="gray" stroke="black" cx="842" cy="-18" rx="49.8" ry="18"/>
<text text-anchor="middle" x="842" y="-15.8" font-family="Times,serif" font-size="9.00">NotReadyForSG?*</text>
</g>
<!-- Fallback**&#45;&gt;NotReadyForSG?* -->
<g id="edge16" class="edge">
<title>Fallback**&#45;&gt;NotReadyForSG?*</title>
<path fill="none" stroke="black" d="M881.9,-71.7C875.52,-63.27 867.72,-52.97 860.73,-43.73"/>
<polygon fill="black" stroke="black" points="863.41,-41.48 854.59,-35.62 857.83,-45.71 863.41,-41.48"/>
</g>
<!-- GetSubGoal! -->
<g id="node18" class="node">
<title>GetSubGoal!</title>
<ellipse fill="gray" stroke="black" cx="947" cy="-18" rx="36.9" ry="18"/>
<text text-anchor="middle" x="947" y="-15.8" font-family="Times,serif" font-size="9.00">GetSubGoal!</text>
</g>
<!-- Fallback**&#45;&gt;GetSubGoal! -->
<g id="edge17" class="edge">
<title>Fallback**&#45;&gt;GetSubGoal!</title>
<path fill="none" stroke="black" d="M907.85,-71.7C914.21,-63.14 921.99,-52.67 928.93,-43.33"/>
<polygon fill="black" stroke="black" points="931.85,-45.26 935.01,-35.14 926.23,-41.08 931.85,-45.26"/>
</g>
</g>
</svg>
