<?xml version="1.0" encoding="UTF-8" standalone="no"?>
<!DOCTYPE svg PUBLIC "-//W3C//DTD SVG 1.1//EN"
 "http://www.w3.org/Graphics/SVG/1.1/DTD/svg11.dtd">
<!-- Generated by graphviz version 2.43.0 (0)
 -->
<!-- Title: pastafarianism Pages: 1 -->
<svg width="1138pt" height="332pt"
 viewBox="0.00 0.00 1137.53 332.00" xmlns="http://www.w3.org/2000/svg" xmlns:xlink="http://www.w3.org/1999/xlink">
<g id="graph0" class="graph" transform="scale(1 1) rotate(0) translate(4 328)">
<title>pastafarianism</title>
<polygon fill="white" stroke="transparent" points="-4,4 -4,-328 1133.53,-328 1133.53,4 -4,4"/>
<!-- Fallback -->
<g id="node1" class="node">
<title>Fallback</title>
<polygon fill="cyan" stroke="black" points="837.24,-298.54 837.24,-313.46 820.11,-324 795.89,-324 778.76,-313.46 778.76,-298.54 795.89,-288 820.11,-288 837.24,-298.54"/>
<text text-anchor="middle" x="808" y="-303.8" font-family="Times,serif" font-size="9.00">Fallback</text>
</g>
<!-- ReachGoal? -->
<g id="node2" class="node">
<title>ReachGoal?</title>
<ellipse fill="gray" stroke="black" cx="767" cy="-234" rx="34.13" ry="18"/>
<text text-anchor="middle" x="767" y="-231.8" font-family="Times,serif" font-size="9.00">ReachGoal?</text>
</g>
<!-- Fallback&#45;&gt;ReachGoal? -->
<g id="edge1" class="edge">
<title>Fallback&#45;&gt;ReachGoal?</title>
<path fill="none" stroke="black" d="M797.87,-287.7C793.03,-279.44 787.15,-269.39 781.82,-260.3"/>
<polygon fill="black" stroke="black" points="784.81,-258.48 776.74,-251.62 778.77,-262.02 784.81,-258.48"/>
</g>
<!-- Sequence -->
<g id="node3" class="node">
<title>Sequence</title>
<polygon fill="cyan" stroke="black" points="881.49,-226.54 881.49,-241.46 863.05,-252 836.95,-252 818.51,-241.46 818.51,-226.54 836.95,-216 863.05,-216 881.49,-226.54"/>
<text text-anchor="middle" x="850" y="-231.8" font-family="Times,serif" font-size="9.00">Sequence</text>
</g>
<!-- Fallback&#45;&gt;Sequence -->
<g id="edge2" class="edge">
<title>Fallback&#45;&gt;Sequence</title>
<path fill="none" stroke="black" d="M818.38,-287.7C823.26,-279.56 829.19,-269.69 834.58,-260.7"/>
<polygon fill="black" stroke="black" points="837.59,-262.48 839.74,-252.1 831.59,-258.88 837.59,-262.48"/>
</g>
<!-- Fallback* -->
<g id="node4" class="node">
<title>Fallback*</title>
<polygon fill="cyan" stroke="black" points="751.74,-154.54 751.74,-169.46 733.15,-180 706.85,-180 688.26,-169.46 688.26,-154.54 706.85,-144 733.15,-144 751.74,-154.54"/>
<text text-anchor="middle" x="720" y="-159.8" font-family="Times,serif" font-size="9.00">Fallback*</text>
</g>
<!-- Sequence&#45;&gt;Fallback* -->
<g id="edge3" class="edge">
<title>Sequence&#45;&gt;Fallback*</title>
<path fill="none" stroke="black" d="M827.95,-221.13C806.84,-209.76 774.81,-192.51 751.11,-179.75"/>
<polygon fill="black" stroke="black" points="752.62,-176.59 742.16,-174.93 749.31,-182.76 752.62,-176.59"/>
</g>
<!-- MoveTo! -->
<g id="node22" class="node">
<title>MoveTo!</title>
<ellipse fill="gray" stroke="black" cx="799" cy="-162" rx="28.74" ry="18"/>
<text text-anchor="middle" x="799" y="-159.8" font-family="Times,serif" font-size="9.00">MoveTo!</text>
</g>
<!-- Sequence&#45;&gt;MoveTo! -->
<g id="edge21" class="edge">
<title>Sequence&#45;&gt;MoveTo!</title>
<path fill="none" stroke="black" d="M837.39,-215.7C831.07,-207.02 823.31,-196.37 816.43,-186.92"/>
<polygon fill="black" stroke="black" points="819.14,-184.69 810.42,-178.67 813.48,-188.81 819.14,-184.69"/>
</g>
<!-- NotReadyForSG?*** -->
<g id="node23" class="node">
<title>NotReadyForSG?***</title>
<ellipse fill="gray" stroke="black" cx="901" cy="-162" rx="54.7" ry="18"/>
<text text-anchor="middle" x="901" y="-159.8" font-family="Times,serif" font-size="9.00">NotReadyForSG?***</text>
</g>
<!-- Sequence&#45;&gt;NotReadyForSG?*** -->
<g id="edge22" class="edge">
<title>Sequence&#45;&gt;NotReadyForSG?***</title>
<path fill="none" stroke="black" d="M862.61,-215.7C868.75,-207.27 876.25,-196.97 882.98,-187.73"/>
<polygon fill="black" stroke="black" points="885.83,-189.77 888.89,-179.62 880.17,-185.64 885.83,-189.77"/>
</g>
<!-- Fallback** -->
<g id="node24" class="node">
<title>Fallback**</title>
<polygon fill="cyan" stroke="black" points="1043.99,-154.54 1043.99,-169.46 1023.49,-180 994.51,-180 974.01,-169.46 974.01,-154.54 994.51,-144 1023.49,-144 1043.99,-154.54"/>
<text text-anchor="middle" x="1009" y="-159.8" font-family="Times,serif" font-size="9.00">Fallback**</text>
</g>
<!-- Sequence&#45;&gt;Fallback** -->
<g id="edge23" class="edge">
<title>Sequence&#45;&gt;Fallback**</title>
<path fill="none" stroke="black" d="M874.5,-222.22C901.06,-210.52 943.71,-191.75 973.85,-178.48"/>
<polygon fill="black" stroke="black" points="975.41,-181.61 983.16,-174.38 972.59,-175.2 975.41,-181.61"/>
</g>
<!-- Sequence* -->
<g id="node5" class="node">
<title>Sequence*</title>
<polygon fill="cyan" stroke="black" points="563.24,-82.54 563.24,-97.46 543.18,-108 514.82,-108 494.76,-97.46 494.76,-82.54 514.82,-72 543.18,-72 563.24,-82.54"/>
<text text-anchor="middle" x="529" y="-87.8" font-family="Times,serif" font-size="9.00">Sequence*</text>
</g>
<!-- Fallback*&#45;&gt;Sequence* -->
<g id="edge4" class="edge">
<title>Fallback*&#45;&gt;Sequence*</title>
<path fill="none" stroke="black" d="M693.17,-151.69C663.44,-141.3 614.14,-123.87 572,-108 569.78,-107.16 567.5,-106.3 565.21,-105.41"/>
<polygon fill="black" stroke="black" points="566.37,-102.11 555.79,-101.75 563.84,-108.63 566.37,-102.11"/>
</g>
<!-- NotReadyForSG?** -->
<g id="node19" class="node">
<title>NotReadyForSG?**</title>
<ellipse fill="gray" stroke="black" cx="633" cy="-90" rx="51.92" ry="18"/>
<text text-anchor="middle" x="633" y="-87.8" font-family="Times,serif" font-size="9.00">NotReadyForSG?**</text>
</g>
<!-- Fallback*&#45;&gt;NotReadyForSG?** -->
<g id="edge18" class="edge">
<title>Fallback*&#45;&gt;NotReadyForSG?**</title>
<path fill="none" stroke="black" d="M701.97,-146.5C690.02,-136.88 674.11,-124.07 660.58,-113.19"/>
<polygon fill="black" stroke="black" points="662.5,-110.24 652.52,-106.7 658.11,-115.7 662.5,-110.24"/>
</g>
<!-- GetSubGoal! -->
<g id="node20" class="node">
<title>GetSubGoal!</title>
<ellipse fill="gray" stroke="black" cx="740" cy="-90" rx="36.9" ry="18"/>
<text text-anchor="middle" x="740" y="-87.8" font-family="Times,serif" font-size="9.00">GetSubGoal!</text>
</g>
<!-- Fallback*&#45;&gt;GetSubGoal! -->
<g id="edge19" class="edge">
<title>Fallback*&#45;&gt;GetSubGoal!</title>
<path fill="none" stroke="black" d="M724.94,-143.7C727.17,-135.9 729.85,-126.51 732.33,-117.83"/>
<polygon fill="black" stroke="black" points="735.73,-118.68 735.11,-108.1 729,-116.76 735.73,-118.68"/>
</g>
<!-- ReachGoal?**** -->
<g id="node21" class="node">
<title>ReachGoal?****</title>
<ellipse fill="gray" stroke="black" cx="839" cy="-90" rx="44.41" ry="18"/>
<text text-anchor="middle" x="839" y="-87.8" font-family="Times,serif" font-size="9.00">ReachGoal?****</text>
</g>
<!-- Fallback*&#45;&gt;ReachGoal?**** -->
<g id="edge20" class="edge">
<title>Fallback*&#45;&gt;ReachGoal?****</title>
<path fill="none" stroke="black" d="M741.27,-148.49C759.21,-137.93 785.18,-122.66 805.85,-110.5"/>
<polygon fill="black" stroke="black" points="807.78,-113.42 814.63,-105.34 804.23,-107.39 807.78,-113.42"/>
</g>
<!-- GetLk! -->
<g id="node6" class="node">
<title>GetLk!</title>
<ellipse fill="gray" stroke="black" cx="27" cy="-18" rx="27" ry="18"/>
<text text-anchor="middle" x="27" y="-15.8" font-family="Times,serif" font-size="9.00">GetLk!</text>
</g>
<!-- Sequence*&#45;&gt;GetLk! -->
<g id="edge5" class="edge">
<title>Sequence*&#45;&gt;GetLk!</title>
<path fill="none" stroke="black" d="M494.64,-88.9C416.44,-87.87 219.83,-80.62 63,-36 61.06,-35.45 59.09,-34.8 57.12,-34.08"/>
<polygon fill="black" stroke="black" points="58.07,-30.69 47.49,-30.09 55.39,-37.15 58.07,-30.69"/>
</g>
<!-- ReachGoal?* -->
<g id="node7" class="node">
<title>ReachGoal?*</title>
<ellipse fill="gray" stroke="black" cx="109" cy="-18" rx="36.9" ry="18"/>
<text text-anchor="middle" x="109" y="-15.8" font-family="Times,serif" font-size="9.00">ReachGoal?*</text>
</g>
<!-- Sequence*&#45;&gt;ReachGoal?* -->
<g id="edge6" class="edge">
<title>Sequence*&#45;&gt;ReachGoal?*</title>
<path fill="none" stroke="black" d="M494.75,-86.6C428.36,-81.42 277.87,-67.03 155,-36 152.04,-35.25 149.01,-34.38 145.98,-33.44"/>
<polygon fill="black" stroke="black" points="147.02,-30.09 136.43,-30.22 144.79,-36.73 147.02,-30.09"/>
</g>
<!-- GetLk!* -->
<g id="node8" class="node">
<title>GetLk!*</title>
<ellipse fill="gray" stroke="black" cx="191" cy="-18" rx="27.27" ry="18"/>
<text text-anchor="middle" x="191" y="-15.8" font-family="Times,serif" font-size="9.00">GetLk!*</text>
</g>
<!-- Sequence*&#45;&gt;GetLk!* -->
<g id="edge7" class="edge">
<title>Sequence*&#45;&gt;GetLk!*</title>
<path fill="none" stroke="black" d="M494.32,-85.95C437.4,-80.29 321.11,-65.88 227,-36 225.07,-35.39 223.12,-34.69 221.16,-33.94"/>
<polygon fill="black" stroke="black" points="222.13,-30.55 211.56,-29.86 219.39,-36.99 222.13,-30.55"/>
</g>
<!-- ReachGoal?** -->
<g id="node9" class="node">
<title>ReachGoal?**</title>
<ellipse fill="gray" stroke="black" cx="275" cy="-18" rx="39.02" ry="18"/>
<text text-anchor="middle" x="275" y="-15.8" font-family="Times,serif" font-size="9.00">ReachGoal?**</text>
</g>
<!-- Sequence*&#45;&gt;ReachGoal?** -->
<g id="edge8" class="edge">
<title>Sequence*&#45;&gt;ReachGoal?**</title>
<path fill="none" stroke="black" d="M496.28,-81.53C455.44,-71.99 383.58,-54.48 323,-36 320.09,-35.11 317.1,-34.16 314.1,-33.17"/>
<polygon fill="black" stroke="black" points="315.16,-29.83 304.57,-29.93 312.91,-36.46 315.16,-29.83"/>
</g>
<!-- LkClose? -->
<g id="node10" class="node">
<title>LkClose?</title>
<ellipse fill="gray" stroke="black" cx="361" cy="-18" rx="28.74" ry="18"/>
<text text-anchor="middle" x="361" y="-15.8" font-family="Times,serif" font-size="9.00">LkClose?</text>
</g>
<!-- Sequence*&#45;&gt;LkClose? -->
<g id="edge9" class="edge">
<title>Sequence*&#45;&gt;LkClose?</title>
<path fill="none" stroke="black" d="M502.25,-78.6C475.67,-68.16 433.81,-51.46 398,-36 396.39,-35.31 394.75,-34.59 393.1,-33.86"/>
<polygon fill="black" stroke="black" points="394.18,-30.51 383.62,-29.6 391.31,-36.89 394.18,-30.51"/>
</g>
<!-- LkGraph? -->
<g id="node11" class="node">
<title>LkGraph?</title>
<ellipse fill="gray" stroke="black" cx="438" cy="-18" rx="30.7" ry="18"/>
<text text-anchor="middle" x="438" y="-15.8" font-family="Times,serif" font-size="9.00">LkGraph?</text>
</g>
<!-- Sequence*&#45;&gt;LkGraph? -->
<g id="edge10" class="edge">
<title>Sequence*&#45;&gt;LkGraph?</title>
<path fill="none" stroke="black" d="M509.7,-74.15C496.44,-63.96 478.68,-50.29 464.15,-39.12"/>
<polygon fill="black" stroke="black" points="466.09,-36.19 456.03,-32.87 461.83,-41.74 466.09,-36.19"/>
</g>
<!-- ReachGoal?*** -->
<g id="node12" class="node">
<title>ReachGoal?***</title>
<ellipse fill="gray" stroke="black" cx="529" cy="-18" rx="42.29" ry="18"/>
<text text-anchor="middle" x="529" y="-15.8" font-family="Times,serif" font-size="9.00">ReachGoal?***</text>
</g>
<!-- Sequence*&#45;&gt;ReachGoal?*** -->
<g id="edge11" class="edge">
<title>Sequence*&#45;&gt;ReachGoal?***</title>
<path fill="none" stroke="black" d="M529,-71.7C529,-63.98 529,-54.71 529,-46.11"/>
<polygon fill="black" stroke="black" points="532.5,-46.1 529,-36.1 525.5,-46.1 532.5,-46.1"/>
</g>
<!-- GetLk!** -->
<g id="node13" class="node">
<title>GetLk!**</title>
<ellipse fill="gray" stroke="black" cx="619" cy="-18" rx="29.39" ry="18"/>
<text text-anchor="middle" x="619" y="-15.8" font-family="Times,serif" font-size="9.00">GetLk!**</text>
</g>
<!-- Sequence*&#45;&gt;GetLk!** -->
<g id="edge12" class="edge">
<title>Sequence*&#45;&gt;GetLk!**</title>
<path fill="none" stroke="black" d="M548.09,-74.15C561.29,-63.89 579,-50.11 593.42,-38.9"/>
<polygon fill="black" stroke="black" points="595.72,-41.54 601.47,-32.64 591.42,-36.01 595.72,-41.54"/>
</g>
<!-- NotReadyForSG? -->
<g id="node14" class="node">
<title>NotReadyForSG?</title>
<ellipse fill="gray" stroke="black" cx="713" cy="-18" rx="46.53" ry="18"/>
<text text-anchor="middle" x="713" y="-15.8" font-family="Times,serif" font-size="9.00">NotReadyForSG?</text>
</g>
<!-- Sequence*&#45;&gt;NotReadyForSG? -->
<g id="edge13" class="edge">
<title>Sequence*&#45;&gt;NotReadyForSG?</title>
<path fill="none" stroke="black" d="M555.81,-78.32C561.17,-76.21 566.76,-74.02 572,-72 605.18,-59.21 642.89,-45.05 670.96,-34.59"/>
<polygon fill="black" stroke="black" points="672.31,-37.82 680.46,-31.05 669.87,-31.26 672.31,-37.82"/>
</g>
<!-- GetLk!*** -->
<g id="node15" class="node">
<title>GetLk!***</title>
<ellipse fill="gray" stroke="black" cx="810" cy="-18" rx="32.16" ry="18"/>
<text text-anchor="middle" x="810" y="-15.8" font-family="Times,serif" font-size="9.00">GetLk!***</text>
</g>
<!-- Sequence*&#45;&gt;GetLk!*** -->
<g id="edge14" class="edge">
<title>Sequence*&#45;&gt;GetLk!***</title>
<path fill="none" stroke="black" d="M554.64,-77.92C560.29,-75.74 566.29,-73.63 572,-72 657.57,-47.52 683.63,-61.19 769,-36 771.31,-35.32 773.66,-34.55 776.02,-33.73"/>
<polygon fill="black" stroke="black" points="777.47,-36.92 785.59,-30.11 775,-30.37 777.47,-36.92"/>
</g>
<!-- NotReadyForSG?* -->
<g id="node16" class="node">
<title>NotReadyForSG?*</title>
<ellipse fill="gray" stroke="black" cx="910" cy="-18" rx="49.8" ry="18"/>
<text text-anchor="middle" x="910" y="-15.8" font-family="Times,serif" font-size="9.00">NotReadyForSG?*</text>
</g>
<!-- Sequence*&#45;&gt;NotReadyForSG?* -->
<g id="edge15" class="edge">
<title>Sequence*&#45;&gt;NotReadyForSG?*</title>
<path fill="none" stroke="black" d="M554.58,-77.69C560.23,-75.53 566.25,-73.48 572,-72 693.07,-40.78 728.58,-61.38 851,-36 855.17,-35.14 859.47,-34.13 863.77,-33.04"/>
<polygon fill="black" stroke="black" points="864.94,-36.35 873.71,-30.4 863.14,-29.59 864.94,-36.35"/>
</g>
<!-- GetLk!**** -->
<g id="node17" class="node">
<title>GetLk!****</title>
<ellipse fill="gray" stroke="black" cx="1012" cy="-18" rx="34.78" ry="18"/>
<text text-anchor="middle" x="1012" y="-15.8" font-family="Times,serif" font-size="9.00">GetLk!****</text>
</g>
<!-- Sequence*&#45;&gt;GetLk!**** -->
<g id="edge16" class="edge">
<title>Sequence*&#45;&gt;GetLk!****</title>
<path fill="none" stroke="black" d="M554.08,-77.7C559.86,-75.48 566.06,-73.41 572,-72 744.36,-31.01 796.64,-76.99 969,-36 971.62,-35.38 974.29,-34.63 976.95,-33.79"/>
<polygon fill="black" stroke="black" points="978.17,-37.07 986.46,-30.48 975.87,-30.46 978.17,-37.07"/>
</g>
<!-- LkClose?* -->
<g id="node18" class="node">
<title>LkClose?*</title>
<ellipse fill="gray" stroke="black" cx="1096" cy="-18" rx="31.51" ry="18"/>
<text text-anchor="middle" x="1096" y="-15.8" font-family="Times,serif" font-size="9.00">LkClose?*</text>
</g>
<!-- Sequence*&#45;&gt;LkClose?* -->
<g id="edge17" class="edge">
<title>Sequence*&#45;&gt;LkClose?*</title>
<path fill="none" stroke="black" d="M554.06,-77.63C559.85,-75.42 566.05,-73.36 572,-72 782.25,-23.8 846.38,-86.87 1056,-36 1058.35,-35.43 1060.74,-34.74 1063.12,-33.96"/>
<polygon fill="black" stroke="black" points="1064.59,-37.15 1072.75,-30.39 1062.16,-30.58 1064.59,-37.15"/>
</g>
<!-- ReachGoal?***** -->
<g id="node25" class="node">
<title>ReachGoal?*****</title>
<ellipse fill="gray" stroke="black" cx="989" cy="-90" rx="47.19" ry="18"/>
<text text-anchor="middle" x="989" y="-87.8" font-family="Times,serif" font-size="9.00">ReachGoal?*****</text>
</g>
<!-- Fallback**&#45;&gt;ReachGoal?***** -->
<g id="edge24" class="edge">
<title>Fallback**&#45;&gt;ReachGoal?*****</title>
<path fill="none" stroke="black" d="M1004.06,-143.7C1001.83,-135.9 999.15,-126.51 996.67,-117.83"/>
<polygon fill="black" stroke="black" points="1000,-116.76 993.89,-108.1 993.27,-118.68 1000,-116.76"/>
</g>
<!-- GetLk!***** -->
<g id="node26" class="node">
<title>GetLk!*****</title>
<ellipse fill="gray" stroke="black" cx="1092" cy="-90" rx="37.56" ry="18"/>
<text text-anchor="middle" x="1092" y="-87.8" font-family="Times,serif" font-size="9.00">GetLk!*****</text>
</g>
<!-- Fallback**&#45;&gt;GetLk!***** -->
<g id="edge25" class="edge">
<title>Fallback**&#45;&gt;GetLk!*****</title>
<path fill="none" stroke="black" d="M1027.42,-145.46C1038.86,-135.82 1053.73,-123.28 1066.32,-112.66"/>
<polygon fill="black" stroke="black" points="1068.81,-115.13 1074.2,-106.01 1064.3,-109.78 1068.81,-115.13"/>
</g>
</g>
</svg>
