<?xml version="1.0" encoding="UTF-8" standalone="no"?>
<!DOCTYPE svg PUBLIC "-//W3C//DTD SVG 1.1//EN"
 "http://www.w3.org/Graphics/SVG/1.1/DTD/svg11.dtd">
<!-- Generated by graphviz version 2.43.0 (0)
 -->
<!-- Title: pastafarianism Pages: 1 -->
<svg width="1541pt" height="260pt"
 viewBox="0.00 0.00 1541.49 260.00" xmlns="http://www.w3.org/2000/svg" xmlns:xlink="http://www.w3.org/1999/xlink">
<g id="graph0" class="graph" transform="scale(1 1) rotate(0) translate(4 256)">
<title>pastafarianism</title>
<polygon fill="white" stroke="transparent" points="-4,4 -4,-256 1537.49,-256 1537.49,4 -4,4"/>
<!-- Sequence -->
<g id="node1" class="node">
<title>Sequence</title>
<polygon fill="cyan" stroke="black" points="1030.65,-226.54 1030.65,-241.46 1012.2,-252 986.11,-252 967.66,-241.46 967.66,-226.54 986.11,-216 1012.2,-216 1030.65,-226.54"/>
<text text-anchor="middle" x="999.16" y="-231.8" font-family="Times,serif" font-size="9.00">Sequence</text>
</g>
<!-- Fallback -->
<g id="node2" class="node">
<title>Fallback</title>
<polygon fill="cyan" stroke="black" points="296.4,-154.54 296.4,-169.46 279.27,-180 255.04,-180 237.91,-169.46 237.91,-154.54 255.04,-144 279.27,-144 296.4,-154.54"/>
<text text-anchor="middle" x="267.16" y="-159.8" font-family="Times,serif" font-size="9.00">Fallback</text>
</g>
<!-- Sequence&#45;&gt;Fallback -->
<g id="edge1" class="edge">
<title>Sequence&#45;&gt;Fallback</title>
<path fill="none" stroke="black" d="M967.7,-229.99C850.19,-218.75 436.99,-179.24 306.77,-166.79"/>
<polygon fill="black" stroke="black" points="306.76,-163.27 296.47,-165.8 306.1,-170.24 306.76,-163.27"/>
</g>
<!-- Fallback* -->
<g id="node8" class="node">
<title>Fallback*</title>
<polygon fill="cyan" stroke="black" points="696.9,-154.54 696.9,-169.46 678.31,-180 652.01,-180 633.42,-169.46 633.42,-154.54 652.01,-144 678.31,-144 696.9,-154.54"/>
<text text-anchor="middle" x="665.16" y="-159.8" font-family="Times,serif" font-size="9.00">Fallback*</text>
</g>
<!-- Sequence&#45;&gt;Fallback* -->
<g id="edge7" class="edge">
<title>Sequence&#45;&gt;Fallback*</title>
<path fill="none" stroke="black" d="M967.74,-226.41C907.19,-213.72 774.36,-185.89 706.64,-171.69"/>
<polygon fill="black" stroke="black" points="707.24,-168.24 696.74,-169.62 705.81,-175.1 707.24,-168.24"/>
</g>
<!-- pick 1!* -->
<g id="node14" class="node">
<title>pick 1!*</title>
<ellipse fill="gray" stroke="black" cx="829.16" cy="-162" rx="27" ry="18"/>
<text text-anchor="middle" x="829.16" y="-159.8" font-family="Times,serif" font-size="9.00">pick 1!*</text>
</g>
<!-- Sequence&#45;&gt;pick 1!* -->
<g id="edge13" class="edge">
<title>Sequence&#45;&gt;pick 1!*</title>
<path fill="none" stroke="black" d="M973.27,-223.33C946.13,-213.06 902.34,-196.11 865.16,-180 863.35,-179.22 861.5,-178.4 859.64,-177.56"/>
<polygon fill="black" stroke="black" points="860.92,-174.3 850.37,-173.3 858,-180.66 860.92,-174.3"/>
</g>
<!-- place at (0.016, 0.032, 0.0)! -->
<g id="node15" class="node">
<title>place at (0.016, 0.032, 0.0)!</title>
<ellipse fill="gray" stroke="black" cx="940.16" cy="-162" rx="66.29" ry="18"/>
<text text-anchor="middle" x="940.16" y="-159.8" font-family="Times,serif" font-size="9.00">place at (0.016, 0.032, 0.0)!</text>
</g>
<!-- Sequence&#45;&gt;place at (0.016, 0.032, 0.0)! -->
<g id="edge14" class="edge">
<title>Sequence&#45;&gt;place at (0.016, 0.032, 0.0)!</title>
<path fill="none" stroke="black" d="M985.18,-216.41C977.93,-207.82 968.95,-197.16 960.92,-187.63"/>
<polygon fill="black" stroke="black" points="963.57,-185.35 954.45,-179.96 958.22,-189.86 963.57,-185.35"/>
</g>
<!-- Fallback** -->
<g id="node16" class="node">
<title>Fallback**</title>
<polygon fill="cyan" stroke="black" points="1094.15,-154.54 1094.15,-169.46 1073.65,-180 1044.66,-180 1024.17,-169.46 1024.17,-154.54 1044.66,-144 1073.65,-144 1094.15,-154.54"/>
<text text-anchor="middle" x="1059.16" y="-159.8" font-family="Times,serif" font-size="9.00">Fallback**</text>
</g>
<!-- Sequence&#45;&gt;Fallback** -->
<g id="edge15" class="edge">
<title>Sequence&#45;&gt;Fallback**</title>
<path fill="none" stroke="black" d="M1013.38,-216.41C1020.63,-207.95 1029.61,-197.47 1037.69,-188.05"/>
<polygon fill="black" stroke="black" points="1040.35,-190.32 1044.2,-180.45 1035.04,-185.76 1040.35,-190.32"/>
</g>
<!-- Fallback*** -->
<g id="node24" class="node">
<title>Fallback***</title>
<polygon fill="cyan" stroke="black" points="1186.65,-154.54 1186.65,-169.46 1164.69,-180 1133.63,-180 1111.67,-169.46 1111.67,-154.54 1133.63,-144 1164.69,-144 1186.65,-154.54"/>
<text text-anchor="middle" x="1149.16" y="-159.8" font-family="Times,serif" font-size="9.00">Fallback***</text>
</g>
<!-- Sequence&#45;&gt;Fallback*** -->
<g id="edge23" class="edge">
<title>Sequence&#45;&gt;Fallback***</title>
<path fill="none" stroke="black" d="M1022.93,-221.91C1047.49,-210.44 1086.11,-192.42 1114.16,-179.33"/>
<polygon fill="black" stroke="black" points="1115.65,-182.5 1123.24,-175.1 1112.69,-176.15 1115.65,-182.5"/>
</g>
<!-- apply force 1! -->
<g id="node29" class="node">
<title>apply force 1!</title>
<ellipse fill="gray" stroke="black" cx="1243.16" cy="-162" rx="38.21" ry="18"/>
<text text-anchor="middle" x="1243.16" y="-159.8" font-family="Times,serif" font-size="9.00">apply force 1!</text>
</g>
<!-- Sequence&#45;&gt;apply force 1! -->
<g id="edge28" class="edge">
<title>Sequence&#45;&gt;apply force 1!</title>
<path fill="none" stroke="black" d="M1029.25,-225.62C1067.9,-215.97 1136.94,-198.15 1195.16,-180 1198.24,-179.04 1201.42,-178.01 1204.6,-176.94"/>
<polygon fill="black" stroke="black" points="1205.76,-180.25 1214.09,-173.7 1203.49,-173.62 1205.76,-180.25"/>
</g>
<!-- pick 1!**** -->
<g id="node30" class="node">
<title>pick 1!****</title>
<ellipse fill="gray" stroke="black" cx="1333.16" cy="-162" rx="34.13" ry="18"/>
<text text-anchor="middle" x="1333.16" y="-159.8" font-family="Times,serif" font-size="9.00">pick 1!****</text>
</g>
<!-- Sequence&#45;&gt;pick 1!**** -->
<g id="edge29" class="edge">
<title>Sequence&#45;&gt;pick 1!****</title>
<path fill="none" stroke="black" d="M1030.63,-229.33C1084.51,-222.59 1197.58,-206.45 1290.16,-180 1292.75,-179.26 1295.39,-178.42 1298.04,-177.53"/>
<polygon fill="black" stroke="black" points="1299.31,-180.79 1307.52,-174.09 1296.93,-174.21 1299.31,-180.79"/>
</g>
<!-- 0 at pos (0.0, 0.0, 0.0)? -->
<g id="node3" class="node">
<title>0 at pos (0.0, 0.0, 0.0)?</title>
<ellipse fill="gray" stroke="black" cx="57.16" cy="-90" rx="57.32" ry="18"/>
<text text-anchor="middle" x="57.16" y="-87.8" font-family="Times,serif" font-size="9.00">0 at pos (0.0, 0.0, 0.0)?</text>
</g>
<!-- Fallback&#45;&gt;0 at pos (0.0, 0.0, 0.0)? -->
<g id="edge2" class="edge">
<title>Fallback&#45;&gt;0 at pos (0.0, 0.0, 0.0)?</title>
<path fill="none" stroke="black" d="M240.99,-152.28C206.92,-140.92 146.75,-120.87 104.56,-106.8"/>
<polygon fill="black" stroke="black" points="105.64,-103.47 95.05,-103.63 103.43,-110.11 105.64,-103.47"/>
</g>
<!-- pick 0! -->
<g id="node4" class="node">
<title>pick 0!</title>
<ellipse fill="gray" stroke="black" cx="159.16" cy="-90" rx="27" ry="18"/>
<text text-anchor="middle" x="159.16" y="-87.8" font-family="Times,serif" font-size="9.00">pick 0!</text>
</g>
<!-- Fallback&#45;&gt;pick 0! -->
<g id="edge3" class="edge">
<title>Fallback&#45;&gt;pick 0!</title>
<path fill="none" stroke="black" d="M247.6,-148.32C230.49,-137.24 205.47,-121.02 186.4,-108.66"/>
<polygon fill="black" stroke="black" points="188.14,-105.62 177.85,-103.11 184.34,-111.49 188.14,-105.62"/>
</g>
<!-- 0 on 3? -->
<g id="node5" class="node">
<title>0 on 3?</title>
<ellipse fill="gray" stroke="black" cx="231.16" cy="-90" rx="27" ry="18"/>
<text text-anchor="middle" x="231.16" y="-87.8" font-family="Times,serif" font-size="9.00">0 on 3?</text>
</g>
<!-- Fallback&#45;&gt;0 on 3? -->
<g id="edge4" class="edge">
<title>Fallback&#45;&gt;0 on 3?</title>
<path fill="none" stroke="black" d="M258.26,-143.7C253.99,-135.4 248.8,-125.31 244.11,-116.19"/>
<polygon fill="black" stroke="black" points="247.15,-114.44 239.46,-107.14 240.92,-117.64 247.15,-114.44"/>
</g>
<!-- pick 1! -->
<g id="node6" class="node">
<title>pick 1!</title>
<ellipse fill="gray" stroke="black" cx="303.16" cy="-90" rx="27" ry="18"/>
<text text-anchor="middle" x="303.16" y="-87.8" font-family="Times,serif" font-size="9.00">pick 1!</text>
</g>
<!-- Fallback&#45;&gt;pick 1! -->
<g id="edge5" class="edge">
<title>Fallback&#45;&gt;pick 1!</title>
<path fill="none" stroke="black" d="M276.06,-143.7C280.32,-135.4 285.51,-125.31 290.2,-116.19"/>
<polygon fill="black" stroke="black" points="293.39,-117.64 294.85,-107.14 287.17,-114.44 293.39,-117.64"/>
</g>
<!-- pick 0!* -->
<g id="node7" class="node">
<title>pick 0!*</title>
<ellipse fill="gray" stroke="black" cx="375.16" cy="-90" rx="27" ry="18"/>
<text text-anchor="middle" x="375.16" y="-87.8" font-family="Times,serif" font-size="9.00">pick 0!*</text>
</g>
<!-- Fallback&#45;&gt;pick 0!* -->
<g id="edge6" class="edge">
<title>Fallback&#45;&gt;pick 0!*</title>
<path fill="none" stroke="black" d="M286.72,-148.32C303.82,-137.24 328.84,-121.02 347.91,-108.66"/>
<polygon fill="black" stroke="black" points="349.98,-111.49 356.47,-103.11 346.17,-105.62 349.98,-111.49"/>
</g>
<!-- 2 at pos (0.016, &#45;0.032, 0.0)? -->
<g id="node9" class="node">
<title>2 at pos (0.016, &#45;0.032, 0.0)?</title>
<ellipse fill="gray" stroke="black" cx="489.16" cy="-90" rx="69.06" ry="18"/>
<text text-anchor="middle" x="489.16" y="-87.8" font-family="Times,serif" font-size="9.00">2 at pos (0.016, &#45;0.032, 0.0)?</text>
</g>
<!-- Fallback*&#45;&gt;2 at pos (0.016, &#45;0.032, 0.0)? -->
<g id="edge8" class="edge">
<title>Fallback*&#45;&gt;2 at pos (0.016, &#45;0.032, 0.0)?</title>
<path fill="none" stroke="black" d="M639.57,-150.82C612.23,-139.95 568.35,-122.5 535.02,-109.24"/>
<polygon fill="black" stroke="black" points="536.07,-105.89 525.49,-105.45 533.48,-112.4 536.07,-105.89"/>
</g>
<!-- Sequence* -->
<g id="node10" class="node">
<title>Sequence*</title>
<polygon fill="cyan" stroke="black" points="645.4,-82.54 645.4,-97.46 625.34,-108 596.97,-108 576.92,-97.46 576.92,-82.54 596.97,-72 625.34,-72 645.4,-82.54"/>
<text text-anchor="middle" x="611.16" y="-87.8" font-family="Times,serif" font-size="9.00">Sequence*</text>
</g>
<!-- Fallback*&#45;&gt;Sequence* -->
<g id="edge9" class="edge">
<title>Fallback*&#45;&gt;Sequence*</title>
<path fill="none" stroke="black" d="M651.81,-143.7C645.4,-135.39 637.6,-125.28 630.55,-116.14"/>
<polygon fill="black" stroke="black" points="633.23,-113.88 624.35,-108.1 627.69,-118.16 633.23,-113.88"/>
</g>
<!-- place at (0.0, 0.0, 0.0)! -->
<g id="node13" class="node">
<title>place at (0.0, 0.0, 0.0)!</title>
<ellipse fill="gray" stroke="black" cx="719.16" cy="-90" rx="56.01" ry="18"/>
<text text-anchor="middle" x="719.16" y="-87.8" font-family="Times,serif" font-size="9.00">place at (0.0, 0.0, 0.0)!</text>
</g>
<!-- Fallback*&#45;&gt;place at (0.0, 0.0, 0.0)! -->
<g id="edge12" class="edge">
<title>Fallback*&#45;&gt;place at (0.0, 0.0, 0.0)!</title>
<path fill="none" stroke="black" d="M678.51,-143.7C685.01,-135.27 692.95,-124.97 700.08,-115.73"/>
<polygon fill="black" stroke="black" points="703,-117.68 706.33,-107.62 697.46,-113.4 703,-117.68"/>
</g>
<!-- pick 2! -->
<g id="node11" class="node">
<title>pick 2!</title>
<ellipse fill="gray" stroke="black" cx="554.16" cy="-18" rx="27" ry="18"/>
<text text-anchor="middle" x="554.16" y="-15.8" font-family="Times,serif" font-size="9.00">pick 2!</text>
</g>
<!-- Sequence*&#45;&gt;pick 2! -->
<g id="edge10" class="edge">
<title>Sequence*&#45;&gt;pick 2!</title>
<path fill="none" stroke="black" d="M597.07,-71.7C589.83,-62.8 580.9,-51.84 573.07,-42.22"/>
<polygon fill="black" stroke="black" points="575.57,-39.75 566.54,-34.2 570.14,-44.17 575.57,-39.75"/>
</g>
<!-- place at (0.016, &#45;0.032, 0.0)! -->
<g id="node12" class="node">
<title>place at (0.016, &#45;0.032, 0.0)!</title>
<ellipse fill="gray" stroke="black" cx="667.16" cy="-18" rx="68.25" ry="18"/>
<text text-anchor="middle" x="667.16" y="-15.8" font-family="Times,serif" font-size="9.00">place at (0.016, &#45;0.032, 0.0)!</text>
</g>
<!-- Sequence*&#45;&gt;place at (0.016, &#45;0.032, 0.0)! -->
<g id="edge11" class="edge">
<title>Sequence*&#45;&gt;place at (0.016, &#45;0.032, 0.0)!</title>
<path fill="none" stroke="black" d="M625,-71.7C631.65,-63.39 639.74,-53.28 647.05,-44.14"/>
<polygon fill="black" stroke="black" points="649.96,-46.1 653.47,-36.1 644.49,-41.73 649.96,-46.1"/>
</g>
<!-- 3 at pos (0.016, 0.032, 0.0)? -->
<g id="node17" class="node">
<title>3 at pos (0.016, 0.032, 0.0)?</title>
<ellipse fill="gray" stroke="black" cx="861.16" cy="-90" rx="67.6" ry="18"/>
<text text-anchor="middle" x="861.16" y="-87.8" font-family="Times,serif" font-size="9.00">3 at pos (0.016, 0.032, 0.0)?</text>
</g>
<!-- Fallback**&#45;&gt;3 at pos (0.016, 0.032, 0.0)? -->
<g id="edge16" class="edge">
<title>Fallback**&#45;&gt;3 at pos (0.016, 0.032, 0.0)?</title>
<path fill="none" stroke="black" d="M1031.76,-150.23C1026.27,-148.13 1020.54,-145.97 1015.16,-144 980.8,-131.45 941.83,-118.05 911.7,-107.86"/>
<polygon fill="black" stroke="black" points="912.43,-104.42 901.83,-104.54 910.19,-111.05 912.43,-104.42"/>
</g>
<!-- pick 1!** -->
<g id="node18" class="node">
<title>pick 1!**</title>
<ellipse fill="gray" stroke="black" cx="975.16" cy="-90" rx="28.74" ry="18"/>
<text text-anchor="middle" x="975.16" y="-87.8" font-family="Times,serif" font-size="9.00">pick 1!**</text>
</g>
<!-- Fallback**&#45;&gt;pick 1!** -->
<g id="edge17" class="edge">
<title>Fallback**&#45;&gt;pick 1!**</title>
<path fill="none" stroke="black" d="M1040.93,-145.81C1028.86,-135.75 1012.89,-122.44 999.71,-111.46"/>
<polygon fill="black" stroke="black" points="1001.84,-108.68 991.92,-104.97 997.36,-114.06 1001.84,-108.68"/>
</g>
<!-- Sequence** -->
<g id="node19" class="node">
<title>Sequence**</title>
<polygon fill="cyan" stroke="black" points="1095.9,-82.54 1095.9,-97.46 1074.38,-108 1043.94,-108 1022.42,-97.46 1022.42,-82.54 1043.94,-72 1074.38,-72 1095.9,-82.54"/>
<text text-anchor="middle" x="1059.16" y="-87.8" font-family="Times,serif" font-size="9.00">Sequence**</text>
</g>
<!-- Fallback**&#45;&gt;Sequence** -->
<g id="edge18" class="edge">
<title>Fallback**&#45;&gt;Sequence**</title>
<path fill="none" stroke="black" d="M1059.16,-143.7C1059.16,-135.98 1059.16,-126.71 1059.16,-118.11"/>
<polygon fill="black" stroke="black" points="1062.66,-118.1 1059.16,-108.1 1055.66,-118.1 1062.66,-118.1"/>
</g>
<!-- pick 0!** -->
<g id="node22" class="node">
<title>pick 0!**</title>
<ellipse fill="gray" stroke="black" cx="1143.16" cy="-90" rx="28.74" ry="18"/>
<text text-anchor="middle" x="1143.16" y="-87.8" font-family="Times,serif" font-size="9.00">pick 0!**</text>
</g>
<!-- Fallback**&#45;&gt;pick 0!** -->
<g id="edge21" class="edge">
<title>Fallback**&#45;&gt;pick 0!**</title>
<path fill="none" stroke="black" d="M1077.38,-145.81C1089.45,-135.75 1105.42,-122.44 1118.61,-111.46"/>
<polygon fill="black" stroke="black" points="1120.95,-114.06 1126.39,-104.97 1116.47,-108.68 1120.95,-114.06"/>
</g>
<!-- place at (0.016, &#45;0.032, 0.0)!* -->
<g id="node23" class="node">
<title>place at (0.016, &#45;0.032, 0.0)!*</title>
<ellipse fill="gray" stroke="black" cx="1260.16" cy="-90" rx="70.37" ry="18"/>
<text text-anchor="middle" x="1260.16" y="-87.8" font-family="Times,serif" font-size="9.00">place at (0.016, &#45;0.032, 0.0)!*</text>
</g>
<!-- Fallback**&#45;&gt;place at (0.016, &#45;0.032, 0.0)!* -->
<g id="edge22" class="edge">
<title>Fallback**&#45;&gt;place at (0.016, &#45;0.032, 0.0)!*</title>
<path fill="none" stroke="black" d="M1086.08,-150.39C1091.71,-148.23 1097.61,-146.01 1103.16,-144 1138.19,-131.33 1177.95,-117.91 1208.69,-107.75"/>
<polygon fill="black" stroke="black" points="1209.94,-111.03 1218.34,-104.57 1207.74,-104.38 1209.94,-111.03"/>
</g>
<!-- pick 3! -->
<g id="node20" class="node">
<title>pick 3!</title>
<ellipse fill="gray" stroke="black" cx="1002.16" cy="-18" rx="27" ry="18"/>
<text text-anchor="middle" x="1002.16" y="-15.8" font-family="Times,serif" font-size="9.00">pick 3!</text>
</g>
<!-- Sequence**&#45;&gt;pick 3! -->
<g id="edge19" class="edge">
<title>Sequence**&#45;&gt;pick 3!</title>
<path fill="none" stroke="black" d="M1045.07,-71.7C1037.83,-62.8 1028.9,-51.84 1021.07,-42.22"/>
<polygon fill="black" stroke="black" points="1023.57,-39.75 1014.54,-34.2 1018.14,-44.17 1023.57,-39.75"/>
</g>
<!-- place at (0.016, 0.032, 0.0)!* -->
<g id="node21" class="node">
<title>place at (0.016, 0.032, 0.0)!*</title>
<ellipse fill="gray" stroke="black" cx="1116.16" cy="-18" rx="68.91" ry="18"/>
<text text-anchor="middle" x="1116.16" y="-15.8" font-family="Times,serif" font-size="9.00">place at (0.016, 0.032, 0.0)!*</text>
</g>
<!-- Sequence**&#45;&gt;place at (0.016, 0.032, 0.0)!* -->
<g id="edge20" class="edge">
<title>Sequence**&#45;&gt;place at (0.016, 0.032, 0.0)!*</title>
<path fill="none" stroke="black" d="M1073.25,-71.7C1080.08,-63.3 1088.41,-53.07 1095.91,-43.86"/>
<polygon fill="black" stroke="black" points="1098.63,-46.07 1102.23,-36.1 1093.2,-41.65 1098.63,-46.07"/>
</g>
<!-- 1 on 0? -->
<g id="node25" class="node">
<title>1 on 0?</title>
<ellipse fill="gray" stroke="black" cx="1375.16" cy="-90" rx="27" ry="18"/>
<text text-anchor="middle" x="1375.16" y="-87.8" font-family="Times,serif" font-size="9.00">1 on 0?</text>
</g>
<!-- Fallback***&#45;&gt;1 on 0? -->
<g id="edge24" class="edge">
<title>Fallback***&#45;&gt;1 on 0?</title>
<path fill="none" stroke="black" d="M1177.84,-150.11C1183.85,-147.97 1190.18,-145.83 1196.16,-144 1258.83,-124.83 1277.46,-130.1 1339.16,-108 1341.01,-107.34 1342.9,-106.61 1344.79,-105.84"/>
<polygon fill="black" stroke="black" points="1346.36,-108.97 1354.13,-101.77 1343.56,-102.56 1346.36,-108.97"/>
</g>
<!-- Sequence*** -->
<g id="node26" class="node">
<title>Sequence***</title>
<polygon fill="cyan" stroke="black" points="1500.15,-82.54 1500.15,-97.46 1476.72,-108 1443.59,-108 1420.17,-97.46 1420.17,-82.54 1443.59,-72 1476.72,-72 1500.15,-82.54"/>
<text text-anchor="middle" x="1460.16" y="-87.8" font-family="Times,serif" font-size="9.00">Sequence***</text>
</g>
<!-- Fallback***&#45;&gt;Sequence*** -->
<g id="edge25" class="edge">
<title>Fallback***&#45;&gt;Sequence***</title>
<path fill="none" stroke="black" d="M1177.23,-149.91C1183.4,-147.74 1189.95,-145.63 1196.16,-144 1289.87,-119.42 1317.28,-131.96 1411.16,-108 1414.3,-107.2 1417.53,-106.29 1420.75,-105.31"/>
<polygon fill="black" stroke="black" points="1421.89,-108.62 1430.34,-102.24 1419.75,-101.96 1421.89,-108.62"/>
</g>
<!-- pick 1!*** -->
<g id="node27" class="node">
<title>pick 1!***</title>
<ellipse fill="gray" stroke="black" cx="1419.16" cy="-18" rx="31.51" ry="18"/>
<text text-anchor="middle" x="1419.16" y="-15.8" font-family="Times,serif" font-size="9.00">pick 1!***</text>
</g>
<!-- Sequence***&#45;&gt;pick 1!*** -->
<g id="edge26" class="edge">
<title>Sequence***&#45;&gt;pick 1!***</title>
<path fill="none" stroke="black" d="M1450.02,-71.7C1445.19,-63.44 1439.3,-53.39 1433.98,-44.3"/>
<polygon fill="black" stroke="black" points="1436.97,-42.48 1428.89,-35.62 1430.93,-46.02 1436.97,-42.48"/>
</g>
<!-- place on 0! -->
<g id="node28" class="node">
<title>place on 0!</title>
<ellipse fill="gray" stroke="black" cx="1501.16" cy="-18" rx="32.16" ry="18"/>
<text text-anchor="middle" x="1501.16" y="-15.8" font-family="Times,serif" font-size="9.00">place on 0!</text>
</g>
<!-- Sequence***&#45;&gt;place on 0! -->
<g id="edge27" class="edge">
<title>Sequence***&#45;&gt;place on 0!</title>
<path fill="none" stroke="black" d="M1470.29,-71.7C1475.13,-63.44 1481.01,-53.39 1486.34,-44.3"/>
<polygon fill="black" stroke="black" points="1489.39,-46.02 1491.42,-35.62 1483.35,-42.48 1489.39,-46.02"/>
</g>
</g>
</svg>
