<?xml version="1.0" encoding="UTF-8" standalone="no"?>
<!DOCTYPE svg PUBLIC "-//W3C//DTD SVG 1.1//EN"
 "http://www.w3.org/Graphics/SVG/1.1/DTD/svg11.dtd">
<!-- Generated by graphviz version 2.43.0 (0)
 -->
<!-- Title: pastafarianism Pages: 1 -->
<svg width="968pt" height="404pt"
 viewBox="0.00 0.00 968.16 404.00" xmlns="http://www.w3.org/2000/svg" xmlns:xlink="http://www.w3.org/1999/xlink">
<g id="graph0" class="graph" transform="scale(1 1) rotate(0) translate(4 400)">
<title>pastafarianism</title>
<polygon fill="white" stroke="transparent" points="-4,4 -4,-400 964.16,-400 964.16,4 -4,4"/>
<!-- Sequence -->
<g id="node1" class="node">
<title>Sequence</title>
<polygon fill="cyan" stroke="black" points="582.65,-370.54 582.65,-385.46 564.2,-396 538.11,-396 519.66,-385.46 519.66,-370.54 538.11,-360 564.2,-360 582.65,-370.54"/>
<text text-anchor="middle" x="551.16" y="-375.8" font-family="Times,serif" font-size="9.00">Sequence</text>
</g>
<!-- Fallback -->
<g id="node2" class="node">
<title>Fallback</title>
<polygon fill="cyan" stroke="black" points="188.4,-298.54 188.4,-313.46 171.27,-324 147.04,-324 129.91,-313.46 129.91,-298.54 147.04,-288 171.27,-288 188.4,-298.54"/>
<text text-anchor="middle" x="159.16" y="-303.8" font-family="Times,serif" font-size="9.00">Fallback</text>
</g>
<!-- Sequence&#45;&gt;Fallback -->
<g id="edge1" class="edge">
<title>Sequence&#45;&gt;Fallback</title>
<path fill="none" stroke="black" d="M519.74,-371.39C448.8,-358.72 276.34,-327.93 198.47,-314.02"/>
<polygon fill="black" stroke="black" points="199.03,-310.56 188.57,-312.25 197.8,-317.46 199.03,-310.56"/>
</g>
<!-- Fallback* -->
<g id="node5" class="node">
<title>Fallback*</title>
<polygon fill="cyan" stroke="black" points="478.9,-298.54 478.9,-313.46 460.31,-324 434.01,-324 415.42,-313.46 415.42,-298.54 434.01,-288 460.31,-288 478.9,-298.54"/>
<text text-anchor="middle" x="447.16" y="-303.8" font-family="Times,serif" font-size="9.00">Fallback*</text>
</g>
<!-- Sequence&#45;&gt;Fallback* -->
<g id="edge4" class="edge">
<title>Sequence&#45;&gt;Fallback*</title>
<path fill="none" stroke="black" d="M531.11,-363.5C515.42,-352.95 493.41,-338.13 475.86,-326.32"/>
<polygon fill="black" stroke="black" points="477.4,-323.14 467.15,-320.46 473.49,-328.94 477.4,-323.14"/>
</g>
<!-- Fallback*** -->
<g id="node16" class="node">
<title>Fallback***</title>
<polygon fill="cyan" stroke="black" points="641.65,-298.54 641.65,-313.46 619.69,-324 588.63,-324 566.67,-313.46 566.67,-298.54 588.63,-288 619.69,-288 641.65,-298.54"/>
<text text-anchor="middle" x="604.16" y="-303.8" font-family="Times,serif" font-size="9.00">Fallback***</text>
</g>
<!-- Sequence&#45;&gt;Fallback*** -->
<g id="edge15" class="edge">
<title>Sequence&#45;&gt;Fallback***</title>
<path fill="none" stroke="black" d="M564.26,-359.7C570.55,-351.39 578.21,-341.28 585.12,-332.14"/>
<polygon fill="black" stroke="black" points="587.96,-334.19 591.21,-324.1 582.38,-329.96 587.96,-334.19"/>
</g>
<!-- apply force 1! -->
<g id="node25" class="node">
<title>apply force 1!</title>
<ellipse fill="gray" stroke="black" cx="698.16" cy="-306" rx="38.21" ry="18"/>
<text text-anchor="middle" x="698.16" y="-303.8" font-family="Times,serif" font-size="9.00">apply force 1!</text>
</g>
<!-- Sequence&#45;&gt;apply force 1! -->
<g id="edge24" class="edge">
<title>Sequence&#45;&gt;apply force 1!</title>
<path fill="none" stroke="black" d="M574.78,-365.75C598.59,-354.41 635.63,-336.78 662.91,-323.78"/>
<polygon fill="black" stroke="black" points="664.6,-326.86 672.12,-319.4 661.59,-320.54 664.6,-326.86"/>
</g>
<!-- 0 at pos (0.0, 0.0, 0.0)? -->
<g id="node3" class="node">
<title>0 at pos (0.0, 0.0, 0.0)?</title>
<ellipse fill="gray" stroke="black" cx="57.16" cy="-234" rx="57.32" ry="18"/>
<text text-anchor="middle" x="57.16" y="-231.8" font-family="Times,serif" font-size="9.00">0 at pos (0.0, 0.0, 0.0)?</text>
</g>
<!-- Fallback&#45;&gt;0 at pos (0.0, 0.0, 0.0)? -->
<g id="edge2" class="edge">
<title>Fallback&#45;&gt;0 at pos (0.0, 0.0, 0.0)?</title>
<path fill="none" stroke="black" d="M139.97,-291.83C125.43,-281.85 105.13,-267.92 88.27,-256.35"/>
<polygon fill="black" stroke="black" points="90.04,-253.32 79.82,-250.55 86.08,-259.1 90.04,-253.32"/>
</g>
<!-- pick 0! -->
<g id="node4" class="node">
<title>pick 0!</title>
<ellipse fill="gray" stroke="black" cx="159.16" cy="-234" rx="27" ry="18"/>
<text text-anchor="middle" x="159.16" y="-231.8" font-family="Times,serif" font-size="9.00">pick 0!</text>
</g>
<!-- Fallback&#45;&gt;pick 0! -->
<g id="edge3" class="edge">
<title>Fallback&#45;&gt;pick 0!</title>
<path fill="none" stroke="black" d="M159.16,-287.7C159.16,-279.98 159.16,-270.71 159.16,-262.11"/>
<polygon fill="black" stroke="black" points="162.66,-262.1 159.16,-252.1 155.66,-262.1 162.66,-262.1"/>
</g>
<!-- 2 at pos (0.016, &#45;0.032, 0.0)? -->
<g id="node6" class="node">
<title>2 at pos (0.016, &#45;0.032, 0.0)?</title>
<ellipse fill="gray" stroke="black" cx="273.16" cy="-234" rx="69.06" ry="18"/>
<text text-anchor="middle" x="273.16" y="-231.8" font-family="Times,serif" font-size="9.00">2 at pos (0.016, &#45;0.032, 0.0)?</text>
</g>
<!-- Fallback*&#45;&gt;2 at pos (0.016, &#45;0.032, 0.0)? -->
<g id="edge5" class="edge">
<title>Fallback*&#45;&gt;2 at pos (0.016, &#45;0.032, 0.0)?</title>
<path fill="none" stroke="black" d="M421.86,-294.82C394.83,-283.95 351.45,-266.5 318.5,-253.24"/>
<polygon fill="black" stroke="black" points="319.66,-249.93 309.07,-249.45 317.04,-256.43 319.66,-249.93"/>
</g>
<!-- Sequence* -->
<g id="node7" class="node">
<title>Sequence*</title>
<polygon fill="cyan" stroke="black" points="429.4,-226.54 429.4,-241.46 409.34,-252 380.97,-252 360.92,-241.46 360.92,-226.54 380.97,-216 409.34,-216 429.4,-226.54"/>
<text text-anchor="middle" x="395.16" y="-231.8" font-family="Times,serif" font-size="9.00">Sequence*</text>
</g>
<!-- Fallback*&#45;&gt;Sequence* -->
<g id="edge6" class="edge">
<title>Fallback*&#45;&gt;Sequence*</title>
<path fill="none" stroke="black" d="M434.3,-287.7C428.13,-279.39 420.62,-269.28 413.83,-260.14"/>
<polygon fill="black" stroke="black" points="416.64,-258.04 407.86,-252.1 411.02,-262.22 416.64,-258.04"/>
</g>
<!-- place at (0.0, 0.0, 0.0)! -->
<g id="node15" class="node">
<title>place at (0.0, 0.0, 0.0)!</title>
<ellipse fill="gray" stroke="black" cx="503.16" cy="-234" rx="56.01" ry="18"/>
<text text-anchor="middle" x="503.16" y="-231.8" font-family="Times,serif" font-size="9.00">place at (0.0, 0.0, 0.0)!</text>
</g>
<!-- Fallback*&#45;&gt;place at (0.0, 0.0, 0.0)! -->
<g id="edge14" class="edge">
<title>Fallback*&#45;&gt;place at (0.0, 0.0, 0.0)!</title>
<path fill="none" stroke="black" d="M460.71,-288.05C467.52,-279.54 475.9,-269.07 483.41,-259.68"/>
<polygon fill="black" stroke="black" points="486.21,-261.78 489.73,-251.79 480.75,-257.41 486.21,-261.78"/>
</g>
<!-- Fallback** -->
<g id="node8" class="node">
<title>Fallback**</title>
<polygon fill="cyan" stroke="black" points="342.15,-154.54 342.15,-169.46 321.65,-180 292.66,-180 272.17,-169.46 272.17,-154.54 292.66,-144 321.65,-144 342.15,-154.54"/>
<text text-anchor="middle" x="307.16" y="-159.8" font-family="Times,serif" font-size="9.00">Fallback**</text>
</g>
<!-- Sequence*&#45;&gt;Fallback** -->
<g id="edge7" class="edge">
<title>Sequence*&#45;&gt;Fallback**</title>
<path fill="none" stroke="black" d="M376.5,-218.15C364.21,-208.38 347.93,-195.43 334.23,-184.54"/>
<polygon fill="black" stroke="black" points="336.1,-181.55 326.1,-178.07 331.74,-187.03 336.1,-181.55"/>
</g>
<!-- pick 2! -->
<g id="node13" class="node">
<title>pick 2!</title>
<ellipse fill="gray" stroke="black" cx="387.16" cy="-162" rx="27" ry="18"/>
<text text-anchor="middle" x="387.16" y="-159.8" font-family="Times,serif" font-size="9.00">pick 2!</text>
</g>
<!-- Sequence*&#45;&gt;pick 2! -->
<g id="edge12" class="edge">
<title>Sequence*&#45;&gt;pick 2!</title>
<path fill="none" stroke="black" d="M393.18,-215.7C392.3,-207.98 391.24,-198.71 390.26,-190.11"/>
<polygon fill="black" stroke="black" points="393.73,-189.64 389.11,-180.1 386.77,-190.44 393.73,-189.64"/>
</g>
<!-- place at (0.016, &#45;0.032, 0.0)! -->
<g id="node14" class="node">
<title>place at (0.016, &#45;0.032, 0.0)!</title>
<ellipse fill="gray" stroke="black" cx="500.16" cy="-162" rx="68.25" ry="18"/>
<text text-anchor="middle" x="500.16" y="-159.8" font-family="Times,serif" font-size="9.00">place at (0.016, &#45;0.032, 0.0)!</text>
</g>
<!-- Sequence*&#45;&gt;place at (0.016, &#45;0.032, 0.0)! -->
<g id="edge13" class="edge">
<title>Sequence*&#45;&gt;place at (0.016, &#45;0.032, 0.0)!</title>
<path fill="none" stroke="black" d="M415.9,-219.17C430.66,-209.33 450.78,-195.92 467.66,-184.66"/>
<polygon fill="black" stroke="black" points="469.77,-187.47 476.15,-179.01 465.89,-181.64 469.77,-187.47"/>
</g>
<!-- 3 at pos (0.016, 0.032, 0.0)? -->
<g id="node9" class="node">
<title>3 at pos (0.016, 0.032, 0.0)?</title>
<ellipse fill="gray" stroke="black" cx="246.16" cy="-90" rx="67.6" ry="18"/>
<text text-anchor="middle" x="246.16" y="-87.8" font-family="Times,serif" font-size="9.00">3 at pos (0.016, 0.032, 0.0)?</text>
</g>
<!-- Fallback**&#45;&gt;3 at pos (0.016, 0.032, 0.0)? -->
<g id="edge8" class="edge">
<title>Fallback**&#45;&gt;3 at pos (0.016, 0.032, 0.0)?</title>
<path fill="none" stroke="black" d="M292.39,-144.05C284.9,-135.46 275.66,-124.86 267.42,-115.4"/>
<polygon fill="black" stroke="black" points="270,-113.03 260.79,-107.79 264.72,-117.63 270,-113.03"/>
</g>
<!-- Sequence** -->
<g id="node10" class="node">
<title>Sequence**</title>
<polygon fill="cyan" stroke="black" points="404.9,-82.54 404.9,-97.46 383.38,-108 352.94,-108 331.42,-97.46 331.42,-82.54 352.94,-72 383.38,-72 404.9,-82.54"/>
<text text-anchor="middle" x="368.16" y="-87.8" font-family="Times,serif" font-size="9.00">Sequence**</text>
</g>
<!-- Fallback**&#45;&gt;Sequence** -->
<g id="edge9" class="edge">
<title>Fallback**&#45;&gt;Sequence**</title>
<path fill="none" stroke="black" d="M321.92,-144.05C329.31,-135.58 338.38,-125.17 346.53,-115.82"/>
<polygon fill="black" stroke="black" points="349.17,-118.11 353.1,-108.28 343.89,-113.51 349.17,-118.11"/>
</g>
<!-- pick 3! -->
<g id="node11" class="node">
<title>pick 3!</title>
<ellipse fill="gray" stroke="black" cx="313.16" cy="-18" rx="27" ry="18"/>
<text text-anchor="middle" x="313.16" y="-15.8" font-family="Times,serif" font-size="9.00">pick 3!</text>
</g>
<!-- Sequence**&#45;&gt;pick 3! -->
<g id="edge10" class="edge">
<title>Sequence**&#45;&gt;pick 3!</title>
<path fill="none" stroke="black" d="M354.56,-71.7C347.57,-62.8 338.96,-51.84 331.4,-42.22"/>
<polygon fill="black" stroke="black" points="334.03,-39.9 325.1,-34.2 328.53,-44.23 334.03,-39.9"/>
</g>
<!-- place at (0.016, 0.032, 0.0)! -->
<g id="node12" class="node">
<title>place at (0.016, 0.032, 0.0)!</title>
<ellipse fill="gray" stroke="black" cx="424.16" cy="-18" rx="66.29" ry="18"/>
<text text-anchor="middle" x="424.16" y="-15.8" font-family="Times,serif" font-size="9.00">place at (0.016, 0.032, 0.0)!</text>
</g>
<!-- Sequence**&#45;&gt;place at (0.016, 0.032, 0.0)! -->
<g id="edge11" class="edge">
<title>Sequence**&#45;&gt;place at (0.016, 0.032, 0.0)!</title>
<path fill="none" stroke="black" d="M382,-71.7C388.65,-63.39 396.74,-53.28 404.05,-44.14"/>
<polygon fill="black" stroke="black" points="406.96,-46.1 410.47,-36.1 401.49,-41.73 406.96,-46.1"/>
</g>
<!-- 1 on 0? -->
<g id="node17" class="node">
<title>1 on 0?</title>
<ellipse fill="gray" stroke="black" cx="604.16" cy="-234" rx="27" ry="18"/>
<text text-anchor="middle" x="604.16" y="-231.8" font-family="Times,serif" font-size="9.00">1 on 0?</text>
</g>
<!-- Fallback***&#45;&gt;1 on 0? -->
<g id="edge16" class="edge">
<title>Fallback***&#45;&gt;1 on 0?</title>
<path fill="none" stroke="black" d="M604.16,-287.7C604.16,-279.98 604.16,-270.71 604.16,-262.11"/>
<polygon fill="black" stroke="black" points="607.66,-262.1 604.16,-252.1 600.66,-262.1 607.66,-262.1"/>
</g>
<!-- Sequence*** -->
<g id="node18" class="node">
<title>Sequence***</title>
<polygon fill="cyan" stroke="black" points="729.15,-226.54 729.15,-241.46 705.72,-252 672.59,-252 649.17,-241.46 649.17,-226.54 672.59,-216 705.72,-216 729.15,-226.54"/>
<text text-anchor="middle" x="689.16" y="-231.8" font-family="Times,serif" font-size="9.00">Sequence***</text>
</g>
<!-- Fallback***&#45;&gt;Sequence*** -->
<g id="edge17" class="edge">
<title>Fallback***&#45;&gt;Sequence***</title>
<path fill="none" stroke="black" d="M623.02,-289.46C634.42,-280.08 649.13,-267.96 661.79,-257.54"/>
<polygon fill="black" stroke="black" points="664.26,-260.04 669.76,-250.98 659.81,-254.63 664.26,-260.04"/>
</g>
<!-- Sequence**** -->
<g id="node21" class="node">
<title>Sequence****</title>
<polygon fill="cyan" stroke="black" points="865.65,-226.54 865.65,-241.46 840.76,-252 805.56,-252 780.67,-241.46 780.67,-226.54 805.56,-216 840.76,-216 865.65,-226.54"/>
<text text-anchor="middle" x="823.16" y="-231.8" font-family="Times,serif" font-size="9.00">Sequence****</text>
</g>
<!-- Fallback***&#45;&gt;Sequence**** -->
<g id="edge20" class="edge">
<title>Fallback***&#45;&gt;Sequence****</title>
<path fill="none" stroke="black" d="M633.16,-294.26C639.1,-292.13 645.32,-289.96 651.16,-288 694.31,-273.56 744.02,-258.4 778.87,-248.01"/>
<polygon fill="black" stroke="black" points="780.15,-251.28 788.74,-245.08 778.15,-244.57 780.15,-251.28"/>
</g>
<!-- 2 on 3? -->
<g id="node19" class="node">
<title>2 on 3?</title>
<ellipse fill="gray" stroke="black" cx="613.16" cy="-162" rx="27" ry="18"/>
<text text-anchor="middle" x="613.16" y="-159.8" font-family="Times,serif" font-size="9.00">2 on 3?</text>
</g>
<!-- Sequence***&#45;&gt;2 on 3? -->
<g id="edge18" class="edge">
<title>Sequence***&#45;&gt;2 on 3?</title>
<path fill="none" stroke="black" d="M671.15,-216.41C660.59,-206.69 647.16,-194.31 635.88,-183.93"/>
<polygon fill="black" stroke="black" points="638.2,-181.31 628.47,-177.11 633.46,-186.46 638.2,-181.31"/>
</g>
<!-- apply force 0! -->
<g id="node20" class="node">
<title>apply force 0!</title>
<ellipse fill="gray" stroke="black" cx="696.16" cy="-162" rx="38.21" ry="18"/>
<text text-anchor="middle" x="696.16" y="-159.8" font-family="Times,serif" font-size="9.00">apply force 0!</text>
</g>
<!-- Sequence***&#45;&gt;apply force 0! -->
<g id="edge19" class="edge">
<title>Sequence***&#45;&gt;apply force 0!</title>
<path fill="none" stroke="black" d="M690.89,-215.7C691.66,-207.98 692.59,-198.71 693.45,-190.11"/>
<polygon fill="black" stroke="black" points="696.93,-190.4 694.45,-180.1 689.97,-189.71 696.93,-190.4"/>
</g>
<!-- pick 1! -->
<g id="node22" class="node">
<title>pick 1!</title>
<ellipse fill="gray" stroke="black" cx="779.16" cy="-162" rx="27" ry="18"/>
<text text-anchor="middle" x="779.16" y="-159.8" font-family="Times,serif" font-size="9.00">pick 1!</text>
</g>
<!-- Sequence****&#45;&gt;pick 1! -->
<g id="edge21" class="edge">
<title>Sequence****&#45;&gt;pick 1!</title>
<path fill="none" stroke="black" d="M812.28,-215.7C806.96,-207.23 800.46,-196.89 794.63,-187.61"/>
<polygon fill="black" stroke="black" points="797.59,-185.75 789.31,-179.14 791.66,-189.47 797.59,-185.75"/>
</g>
<!-- place on 0! -->
<g id="node23" class="node">
<title>place on 0!</title>
<ellipse fill="gray" stroke="black" cx="856.16" cy="-162" rx="32.16" ry="18"/>
<text text-anchor="middle" x="856.16" y="-159.8" font-family="Times,serif" font-size="9.00">place on 0!</text>
</g>
<!-- Sequence****&#45;&gt;place on 0! -->
<g id="edge22" class="edge">
<title>Sequence****&#45;&gt;place on 0!</title>
<path fill="none" stroke="black" d="M831.31,-215.7C835.13,-207.61 839.75,-197.81 843.96,-188.87"/>
<polygon fill="black" stroke="black" points="847.22,-190.16 848.32,-179.62 840.89,-187.18 847.22,-190.16"/>
</g>
<!-- pick 3!* -->
<g id="node24" class="node">
<title>pick 3!*</title>
<ellipse fill="gray" stroke="black" cx="933.16" cy="-162" rx="27" ry="18"/>
<text text-anchor="middle" x="933.16" y="-159.8" font-family="Times,serif" font-size="9.00">pick 3!*</text>
</g>
<!-- Sequence****&#45;&gt;pick 3!* -->
<g id="edge23" class="edge">
<title>Sequence****&#45;&gt;pick 3!*</title>
<path fill="none" stroke="black" d="M846.49,-218.15C863.83,-207.12 887.55,-192.03 905.79,-180.42"/>
<polygon fill="black" stroke="black" points="907.69,-183.36 914.25,-175.03 903.93,-177.45 907.69,-183.36"/>
</g>
</g>
</svg>
