<?xml version="1.0" encoding="UTF-8" standalone="no"?>
<!DOCTYPE svg PUBLIC "-//W3C//DTD SVG 1.1//EN"
 "http://www.w3.org/Graphics/SVG/1.1/DTD/svg11.dtd">
<!-- Generated by graphviz version 2.43.0 (0)
 -->
<!-- Title: pastafarianism Pages: 1 -->
<svg width="1166pt" height="260pt"
 viewBox="0.00 0.00 1166.45 260.00" xmlns="http://www.w3.org/2000/svg" xmlns:xlink="http://www.w3.org/1999/xlink">
<g id="graph0" class="graph" transform="scale(1 1) rotate(0) translate(4 256)">
<title>pastafarianism</title>
<polygon fill="white" stroke="transparent" points="-4,4 -4,-256 1162.45,-256 1162.45,4 -4,4"/>
<!-- Sequence -->
<g id="node1" class="node">
<title>Sequence</title>
<polygon fill="cyan" stroke="black" points="898.78,-226.54 898.78,-241.46 880.33,-252 854.24,-252 835.79,-241.46 835.79,-226.54 854.24,-216 880.33,-216 898.78,-226.54"/>
<text text-anchor="middle" x="867.28" y="-231.8" font-family="Times,serif" font-size="9.00">Sequence</text>
</g>
<!-- Fallback -->
<g id="node2" class="node">
<title>Fallback</title>
<polygon fill="cyan" stroke="black" points="473.53,-154.54 473.53,-169.46 456.39,-180 432.17,-180 415.04,-169.46 415.04,-154.54 432.17,-144 456.39,-144 473.53,-154.54"/>
<text text-anchor="middle" x="444.28" y="-159.8" font-family="Times,serif" font-size="9.00">Fallback</text>
</g>
<!-- Sequence&#45;&gt;Fallback -->
<g id="edge1" class="edge">
<title>Sequence&#45;&gt;Fallback</title>
<path fill="none" stroke="black" d="M835.83,-227.8C760,-215.25 567.19,-183.34 483.76,-169.53"/>
<polygon fill="black" stroke="black" points="484.11,-166.04 473.67,-167.86 482.96,-172.95 484.11,-166.04"/>
</g>
<!-- Fallback* -->
<g id="node11" class="node">
<title>Fallback*</title>
<polygon fill="cyan" stroke="black" points="799.02,-154.54 799.02,-169.46 780.43,-180 754.13,-180 735.54,-169.46 735.54,-154.54 754.13,-144 780.43,-144 799.02,-154.54"/>
<text text-anchor="middle" x="767.28" y="-159.8" font-family="Times,serif" font-size="9.00">Fallback*</text>
</g>
<!-- Sequence&#45;&gt;Fallback* -->
<g id="edge10" class="edge">
<title>Sequence&#45;&gt;Fallback*</title>
<path fill="none" stroke="black" d="M848,-219.5C833.02,-209.02 812.03,-194.32 795.21,-182.55"/>
<polygon fill="black" stroke="black" points="797.04,-179.56 786.85,-176.69 793.03,-185.3 797.04,-179.56"/>
</g>
<!-- Fallback** -->
<g id="node16" class="node">
<title>Fallback**</title>
<polygon fill="cyan" stroke="black" points="902.27,-154.54 902.27,-169.46 881.78,-180 852.79,-180 832.29,-169.46 832.29,-154.54 852.79,-144 881.78,-144 902.27,-154.54"/>
<text text-anchor="middle" x="867.28" y="-159.8" font-family="Times,serif" font-size="9.00">Fallback**</text>
</g>
<!-- Sequence&#45;&gt;Fallback** -->
<g id="edge15" class="edge">
<title>Sequence&#45;&gt;Fallback**</title>
<path fill="none" stroke="black" d="M867.28,-215.7C867.28,-207.98 867.28,-198.71 867.28,-190.11"/>
<polygon fill="black" stroke="black" points="870.78,-190.1 867.28,-180.1 863.78,-190.1 870.78,-190.1"/>
</g>
<!-- apply force 1! -->
<g id="node19" class="node">
<title>apply force 1!</title>
<ellipse fill="gray" stroke="black" cx="958.28" cy="-162" rx="38.21" ry="18"/>
<text text-anchor="middle" x="958.28" y="-159.8" font-family="Times,serif" font-size="9.00">apply force 1!</text>
</g>
<!-- Sequence&#45;&gt;apply force 1! -->
<g id="edge18" class="edge">
<title>Sequence&#45;&gt;apply force 1!</title>
<path fill="none" stroke="black" d="M885.7,-218.83C898.72,-208.82 916.4,-195.22 931.05,-183.95"/>
<polygon fill="black" stroke="black" points="933.48,-186.5 939.27,-177.63 929.21,-180.95 933.48,-186.5"/>
</g>
<!-- 2 at pos (0.016, &#45;0.032, 0.0)?* -->
<g id="node20" class="node">
<title>2 at pos (0.016, &#45;0.032, 0.0)?*</title>
<ellipse fill="gray" stroke="black" cx="1086.28" cy="-162" rx="72.34" ry="18"/>
<text text-anchor="middle" x="1086.28" y="-159.8" font-family="Times,serif" font-size="9.00">2 at pos (0.016, &#45;0.032, 0.0)?*</text>
</g>
<!-- Sequence&#45;&gt;2 at pos (0.016, &#45;0.032, 0.0)?* -->
<g id="edge19" class="edge">
<title>Sequence&#45;&gt;2 at pos (0.016, &#45;0.032, 0.0)?*</title>
<path fill="none" stroke="black" d="M895.02,-224.13C929.9,-212.98 990.51,-193.61 1034.16,-179.66"/>
<polygon fill="black" stroke="black" points="1035.29,-182.97 1043.75,-176.59 1033.16,-176.3 1035.29,-182.97"/>
</g>
<!-- Sequence* -->
<g id="node3" class="node">
<title>Sequence*</title>
<polygon fill="cyan" stroke="black" points="258.52,-82.54 258.52,-97.46 238.47,-108 210.1,-108 190.04,-97.46 190.04,-82.54 210.1,-72 238.47,-72 258.52,-82.54"/>
<text text-anchor="middle" x="224.28" y="-87.8" font-family="Times,serif" font-size="9.00">Sequence*</text>
</g>
<!-- Fallback&#45;&gt;Sequence* -->
<g id="edge2" class="edge">
<title>Fallback&#45;&gt;Sequence*</title>
<path fill="none" stroke="black" d="M417.74,-152.56C379.18,-140.28 307.4,-117.45 262.95,-103.3"/>
<polygon fill="black" stroke="black" points="263.95,-99.95 253.36,-100.25 261.83,-106.62 263.95,-99.95"/>
</g>
<!-- Sequence** -->
<g id="node6" class="node">
<title>Sequence**</title>
<polygon fill="cyan" stroke="black" points="425.02,-82.54 425.02,-97.46 403.5,-108 373.06,-108 351.54,-97.46 351.54,-82.54 373.06,-72 403.5,-72 425.02,-82.54"/>
<text text-anchor="middle" x="388.28" y="-87.8" font-family="Times,serif" font-size="9.00">Sequence**</text>
</g>
<!-- Fallback&#45;&gt;Sequence** -->
<g id="edge5" class="edge">
<title>Fallback&#45;&gt;Sequence**</title>
<path fill="none" stroke="black" d="M431.01,-144.41C424.31,-136.03 416.03,-125.68 408.55,-116.33"/>
<polygon fill="black" stroke="black" points="411.22,-114.07 402.24,-108.45 405.75,-118.44 411.22,-114.07"/>
</g>
<!-- place at (0.0, 0.0, 0.0)! -->
<g id="node10" class="node">
<title>place at (0.0, 0.0, 0.0)!</title>
<ellipse fill="gray" stroke="black" cx="499.28" cy="-90" rx="56.01" ry="18"/>
<text text-anchor="middle" x="499.28" y="-87.8" font-family="Times,serif" font-size="9.00">place at (0.0, 0.0, 0.0)!</text>
</g>
<!-- Fallback&#45;&gt;place at (0.0, 0.0, 0.0)! -->
<g id="edge9" class="edge">
<title>Fallback&#45;&gt;place at (0.0, 0.0, 0.0)!</title>
<path fill="none" stroke="black" d="M457.32,-144.41C464,-135.91 472.28,-125.37 479.71,-115.91"/>
<polygon fill="black" stroke="black" points="482.53,-117.98 485.96,-107.96 477.03,-113.66 482.53,-117.98"/>
</g>
<!-- 2 at pos (0.016, &#45;0.032, 0.0)? -->
<g id="node4" class="node">
<title>2 at pos (0.016, &#45;0.032, 0.0)?</title>
<ellipse fill="gray" stroke="black" cx="69.28" cy="-18" rx="69.06" ry="18"/>
<text text-anchor="middle" x="69.28" y="-15.8" font-family="Times,serif" font-size="9.00">2 at pos (0.016, &#45;0.032, 0.0)?</text>
</g>
<!-- Sequence*&#45;&gt;2 at pos (0.016, &#45;0.032, 0.0)? -->
<g id="edge3" class="edge">
<title>Sequence*&#45;&gt;2 at pos (0.016, &#45;0.032, 0.0)?</title>
<path fill="none" stroke="black" d="M199.03,-77.6C175.37,-66.91 139.55,-50.73 111.53,-38.08"/>
<polygon fill="black" stroke="black" points="112.92,-34.87 102.36,-33.94 110.03,-41.25 112.92,-34.87"/>
</g>
<!-- place at (0.016, &#45;0.032, 0.0)! -->
<g id="node5" class="node">
<title>place at (0.016, &#45;0.032, 0.0)!</title>
<ellipse fill="gray" stroke="black" cx="224.28" cy="-18" rx="68.25" ry="18"/>
<text text-anchor="middle" x="224.28" y="-15.8" font-family="Times,serif" font-size="9.00">place at (0.016, &#45;0.032, 0.0)!</text>
</g>
<!-- Sequence*&#45;&gt;place at (0.016, &#45;0.032, 0.0)! -->
<g id="edge4" class="edge">
<title>Sequence*&#45;&gt;place at (0.016, &#45;0.032, 0.0)!</title>
<path fill="none" stroke="black" d="M224.28,-71.7C224.28,-63.98 224.28,-54.71 224.28,-46.11"/>
<polygon fill="black" stroke="black" points="227.78,-46.1 224.28,-36.1 220.78,-46.1 227.78,-46.1"/>
</g>
<!-- pick 2! -->
<g id="node7" class="node">
<title>pick 2!</title>
<ellipse fill="gray" stroke="black" cx="337.28" cy="-18" rx="27" ry="18"/>
<text text-anchor="middle" x="337.28" y="-15.8" font-family="Times,serif" font-size="9.00">pick 2!</text>
</g>
<!-- Sequence**&#45;&gt;pick 2! -->
<g id="edge6" class="edge">
<title>Sequence**&#45;&gt;pick 2!</title>
<path fill="none" stroke="black" d="M375.68,-71.7C369.35,-63.02 361.59,-52.37 354.71,-42.92"/>
<polygon fill="black" stroke="black" points="357.42,-40.69 348.7,-34.67 351.76,-44.81 357.42,-40.69"/>
</g>
<!-- 0 at pos (0.0, 0.0, 0.0)? -->
<g id="node8" class="node">
<title>0 at pos (0.0, 0.0, 0.0)?</title>
<ellipse fill="gray" stroke="black" cx="439.28" cy="-18" rx="57.32" ry="18"/>
<text text-anchor="middle" x="439.28" y="-15.8" font-family="Times,serif" font-size="9.00">0 at pos (0.0, 0.0, 0.0)?</text>
</g>
<!-- Sequence**&#45;&gt;0 at pos (0.0, 0.0, 0.0)? -->
<g id="edge7" class="edge">
<title>Sequence**&#45;&gt;0 at pos (0.0, 0.0, 0.0)?</title>
<path fill="none" stroke="black" d="M400.89,-71.7C407.03,-63.27 414.53,-52.97 421.26,-43.73"/>
<polygon fill="black" stroke="black" points="424.11,-45.77 427.17,-35.62 418.45,-41.64 424.11,-45.77"/>
</g>
<!-- place at (0.016, &#45;0.032, 0.0)!* -->
<g id="node9" class="node">
<title>place at (0.016, &#45;0.032, 0.0)!*</title>
<ellipse fill="gray" stroke="black" cx="585.28" cy="-18" rx="70.37" ry="18"/>
<text text-anchor="middle" x="585.28" y="-15.8" font-family="Times,serif" font-size="9.00">place at (0.016, &#45;0.032, 0.0)!*</text>
</g>
<!-- Sequence**&#45;&gt;place at (0.016, &#45;0.032, 0.0)!* -->
<g id="edge8" class="edge">
<title>Sequence**&#45;&gt;place at (0.016, &#45;0.032, 0.0)!*</title>
<path fill="none" stroke="black" d="M416.97,-78.32C422.69,-76.21 428.67,-74.02 434.28,-72 467.98,-59.86 506.04,-46.51 535.51,-36.24"/>
<polygon fill="black" stroke="black" points="536.87,-39.47 545.16,-32.88 534.57,-32.86 536.87,-39.47"/>
</g>
<!-- 3 at pos (0.016, 0.032, 0.0)? -->
<g id="node12" class="node">
<title>3 at pos (0.016, 0.032, 0.0)?</title>
<ellipse fill="gray" stroke="black" cx="641.28" cy="-90" rx="67.6" ry="18"/>
<text text-anchor="middle" x="641.28" y="-87.8" font-family="Times,serif" font-size="9.00">3 at pos (0.016, 0.032, 0.0)?</text>
</g>
<!-- Fallback*&#45;&gt;3 at pos (0.016, 0.032, 0.0)? -->
<g id="edge11" class="edge">
<title>Fallback*&#45;&gt;3 at pos (0.016, 0.032, 0.0)?</title>
<path fill="none" stroke="black" d="M745.33,-148.81C726.83,-138.52 699.95,-123.59 678.14,-111.48"/>
<polygon fill="black" stroke="black" points="679.59,-108.28 669.15,-106.48 676.19,-114.4 679.59,-108.28"/>
</g>
<!-- Sequence*** -->
<g id="node13" class="node">
<title>Sequence***</title>
<polygon fill="cyan" stroke="black" points="807.27,-82.54 807.27,-97.46 783.85,-108 750.72,-108 727.29,-97.46 727.29,-82.54 750.72,-72 783.85,-72 807.27,-82.54"/>
<text text-anchor="middle" x="767.28" y="-87.8" font-family="Times,serif" font-size="9.00">Sequence***</text>
</g>
<!-- Fallback*&#45;&gt;Sequence*** -->
<g id="edge12" class="edge">
<title>Fallback*&#45;&gt;Sequence***</title>
<path fill="none" stroke="black" d="M767.28,-143.7C767.28,-135.98 767.28,-126.71 767.28,-118.11"/>
<polygon fill="black" stroke="black" points="770.78,-118.1 767.28,-108.1 763.78,-118.1 770.78,-118.1"/>
</g>
<!-- pick 3! -->
<g id="node14" class="node">
<title>pick 3!</title>
<ellipse fill="gray" stroke="black" cx="734.28" cy="-18" rx="27" ry="18"/>
<text text-anchor="middle" x="734.28" y="-15.8" font-family="Times,serif" font-size="9.00">pick 3!</text>
</g>
<!-- Sequence***&#45;&gt;pick 3! -->
<g id="edge13" class="edge">
<title>Sequence***&#45;&gt;pick 3!</title>
<path fill="none" stroke="black" d="M759.12,-71.7C755.31,-63.61 750.69,-53.81 746.48,-44.87"/>
<polygon fill="black" stroke="black" points="749.55,-43.18 742.12,-35.62 743.22,-46.16 749.55,-43.18"/>
</g>
<!-- place at (0.016, 0.032, 0.0)! -->
<g id="node15" class="node">
<title>place at (0.016, 0.032, 0.0)!</title>
<ellipse fill="gray" stroke="black" cx="845.28" cy="-18" rx="66.29" ry="18"/>
<text text-anchor="middle" x="845.28" y="-15.8" font-family="Times,serif" font-size="9.00">place at (0.016, 0.032, 0.0)!</text>
</g>
<!-- Sequence***&#45;&gt;place at (0.016, 0.032, 0.0)! -->
<g id="edge14" class="edge">
<title>Sequence***&#45;&gt;place at (0.016, 0.032, 0.0)!</title>
<path fill="none" stroke="black" d="M785.77,-72.41C795.77,-63.43 808.3,-52.19 819.27,-42.34"/>
<polygon fill="black" stroke="black" points="821.83,-44.75 826.93,-35.47 817.15,-39.54 821.83,-44.75"/>
</g>
<!-- place at (0.0, 0.0, 0.0)!* -->
<g id="node17" class="node">
<title>place at (0.0, 0.0, 0.0)!*</title>
<ellipse fill="gray" stroke="black" cx="883.28" cy="-90" rx="58.13" ry="18"/>
<text text-anchor="middle" x="883.28" y="-87.8" font-family="Times,serif" font-size="9.00">place at (0.0, 0.0, 0.0)!*</text>
</g>
<!-- Fallback**&#45;&gt;place at (0.0, 0.0, 0.0)!* -->
<g id="edge16" class="edge">
<title>Fallback**&#45;&gt;place at (0.0, 0.0, 0.0)!*</title>
<path fill="none" stroke="black" d="M871.24,-143.7C873,-135.98 875.12,-126.71 877.08,-118.11"/>
<polygon fill="black" stroke="black" points="880.56,-118.63 879.37,-108.1 873.73,-117.07 880.56,-118.63"/>
</g>
<!-- pick 1! -->
<g id="node18" class="node">
<title>pick 1!</title>
<ellipse fill="gray" stroke="black" cx="986.28" cy="-90" rx="27" ry="18"/>
<text text-anchor="middle" x="986.28" y="-87.8" font-family="Times,serif" font-size="9.00">pick 1!</text>
</g>
<!-- Fallback**&#45;&gt;pick 1! -->
<g id="edge17" class="edge">
<title>Fallback**&#45;&gt;pick 1!</title>
<path fill="none" stroke="black" d="M889.67,-147.83C909.02,-136.45 937.1,-119.93 958,-107.64"/>
<polygon fill="black" stroke="black" points="959.91,-110.57 966.76,-102.48 956.36,-104.54 959.91,-110.57"/>
</g>
</g>
</svg>
