<?xml version="1.0" encoding="UTF-8" standalone="no"?>
<!DOCTYPE svg PUBLIC "-//W3C//DTD SVG 1.1//EN"
 "http://www.w3.org/Graphics/SVG/1.1/DTD/svg11.dtd">
<!-- Generated by graphviz version 2.43.0 (0)
 -->
<!-- Title: pastafarianism Pages: 1 -->
<svg width="1670pt" height="260pt"
 viewBox="0.00 0.00 1670.33 260.00" xmlns="http://www.w3.org/2000/svg" xmlns:xlink="http://www.w3.org/1999/xlink">
<g id="graph0" class="graph" transform="scale(1 1) rotate(0) translate(4 256)">
<title>pastafarianism</title>
<polygon fill="white" stroke="transparent" points="-4,4 -4,-256 1666.33,-256 1666.33,4 -4,4"/>
<!-- Sequence -->
<g id="node1" class="node">
<title>Sequence</title>
<polygon fill="cyan" stroke="black" points="1072.65,-226.54 1072.65,-241.46 1054.2,-252 1028.11,-252 1009.66,-241.46 1009.66,-226.54 1028.11,-216 1054.2,-216 1072.65,-226.54"/>
<text text-anchor="middle" x="1041.16" y="-231.8" font-family="Times,serif" font-size="9.00">Sequence</text>
</g>
<!-- Fallback -->
<g id="node2" class="node">
<title>Fallback</title>
<polygon fill="cyan" stroke="black" points="296.4,-154.54 296.4,-169.46 279.27,-180 255.04,-180 237.91,-169.46 237.91,-154.54 255.04,-144 279.27,-144 296.4,-154.54"/>
<text text-anchor="middle" x="267.16" y="-159.8" font-family="Times,serif" font-size="9.00">Fallback</text>
</g>
<!-- Sequence&#45;&gt;Fallback -->
<g id="edge1" class="edge">
<title>Sequence&#45;&gt;Fallback</title>
<path fill="none" stroke="black" d="M1009.86,-230.17C887.61,-219.11 442.45,-178.85 306.71,-166.58"/>
<polygon fill="black" stroke="black" points="307.02,-163.09 296.75,-165.68 306.39,-170.06 307.02,-163.09"/>
</g>
<!-- Fallback* -->
<g id="node8" class="node">
<title>Fallback*</title>
<polygon fill="cyan" stroke="black" points="696.9,-154.54 696.9,-169.46 678.31,-180 652.01,-180 633.42,-169.46 633.42,-154.54 652.01,-144 678.31,-144 696.9,-154.54"/>
<text text-anchor="middle" x="665.16" y="-159.8" font-family="Times,serif" font-size="9.00">Fallback*</text>
</g>
<!-- Sequence&#45;&gt;Fallback* -->
<g id="edge7" class="edge">
<title>Sequence&#45;&gt;Fallback*</title>
<path fill="none" stroke="black" d="M1009.75,-227.15C942.23,-214.58 783.27,-184.99 707.18,-170.82"/>
<polygon fill="black" stroke="black" points="707.48,-167.32 697.01,-168.93 706.2,-174.2 707.48,-167.32"/>
</g>
<!-- pick 1!* -->
<g id="node15" class="node">
<title>pick 1!*</title>
<ellipse fill="gray" stroke="black" cx="871.16" cy="-162" rx="27" ry="18"/>
<text text-anchor="middle" x="871.16" y="-159.8" font-family="Times,serif" font-size="9.00">pick 1!*</text>
</g>
<!-- Sequence&#45;&gt;pick 1!* -->
<g id="edge14" class="edge">
<title>Sequence&#45;&gt;pick 1!*</title>
<path fill="none" stroke="black" d="M1015.27,-223.33C988.13,-213.06 944.34,-196.11 907.16,-180 905.35,-179.22 903.5,-178.4 901.64,-177.56"/>
<polygon fill="black" stroke="black" points="902.92,-174.3 892.37,-173.3 900,-180.66 902.92,-174.3"/>
</g>
<!-- place at (0.016, 0.032, 0.0)! -->
<g id="node16" class="node">
<title>place at (0.016, 0.032, 0.0)!</title>
<ellipse fill="gray" stroke="black" cx="982.16" cy="-162" rx="66.29" ry="18"/>
<text text-anchor="middle" x="982.16" y="-159.8" font-family="Times,serif" font-size="9.00">place at (0.016, 0.032, 0.0)!</text>
</g>
<!-- Sequence&#45;&gt;place at (0.016, 0.032, 0.0)! -->
<g id="edge15" class="edge">
<title>Sequence&#45;&gt;place at (0.016, 0.032, 0.0)!</title>
<path fill="none" stroke="black" d="M1027.18,-216.41C1019.93,-207.82 1010.95,-197.16 1002.92,-187.63"/>
<polygon fill="black" stroke="black" points="1005.57,-185.35 996.45,-179.96 1000.22,-189.86 1005.57,-185.35"/>
</g>
<!-- Fallback** -->
<g id="node17" class="node">
<title>Fallback**</title>
<polygon fill="cyan" stroke="black" points="1136.15,-154.54 1136.15,-169.46 1115.65,-180 1086.66,-180 1066.17,-169.46 1066.17,-154.54 1086.66,-144 1115.65,-144 1136.15,-154.54"/>
<text text-anchor="middle" x="1101.16" y="-159.8" font-family="Times,serif" font-size="9.00">Fallback**</text>
</g>
<!-- Sequence&#45;&gt;Fallback** -->
<g id="edge16" class="edge">
<title>Sequence&#45;&gt;Fallback**</title>
<path fill="none" stroke="black" d="M1055.38,-216.41C1062.63,-207.95 1071.61,-197.47 1079.69,-188.05"/>
<polygon fill="black" stroke="black" points="1082.35,-190.32 1086.2,-180.45 1077.04,-185.76 1082.35,-190.32"/>
</g>
<!-- Fallback*** -->
<g id="node25" class="node">
<title>Fallback***</title>
<polygon fill="cyan" stroke="black" points="1341.65,-154.54 1341.65,-169.46 1319.69,-180 1288.63,-180 1266.67,-169.46 1266.67,-154.54 1288.63,-144 1319.69,-144 1341.65,-154.54"/>
<text text-anchor="middle" x="1304.16" y="-159.8" font-family="Times,serif" font-size="9.00">Fallback***</text>
</g>
<!-- Sequence&#45;&gt;Fallback*** -->
<g id="edge24" class="edge">
<title>Sequence&#45;&gt;Fallback***</title>
<path fill="none" stroke="black" d="M1070.56,-225.17C1117.03,-212.81 1207.66,-188.68 1261.35,-174.39"/>
<polygon fill="black" stroke="black" points="1262.48,-177.71 1271.25,-171.76 1260.68,-170.95 1262.48,-177.71"/>
</g>
<!-- apply force 1! -->
<g id="node31" class="node">
<title>apply force 1!</title>
<ellipse fill="gray" stroke="black" cx="1398.16" cy="-162" rx="38.21" ry="18"/>
<text text-anchor="middle" x="1398.16" y="-159.8" font-family="Times,serif" font-size="9.00">apply force 1!</text>
</g>
<!-- Sequence&#45;&gt;apply force 1! -->
<g id="edge30" class="edge">
<title>Sequence&#45;&gt;apply force 1!</title>
<path fill="none" stroke="black" d="M1072.67,-229.4C1128.99,-222.56 1250.35,-206.03 1350.16,-180 1353.32,-179.17 1356.58,-178.23 1359.82,-177.22"/>
<polygon fill="black" stroke="black" points="1361.06,-180.5 1369.47,-174.06 1358.88,-173.85 1361.06,-180.5"/>
</g>
<!-- pick 1!**** -->
<g id="node32" class="node">
<title>pick 1!****</title>
<ellipse fill="gray" stroke="black" cx="1488.16" cy="-162" rx="34.13" ry="18"/>
<text text-anchor="middle" x="1488.16" y="-159.8" font-family="Times,serif" font-size="9.00">pick 1!****</text>
</g>
<!-- Sequence&#45;&gt;pick 1!**** -->
<g id="edge31" class="edge">
<title>Sequence&#45;&gt;pick 1!****</title>
<path fill="none" stroke="black" d="M1072.57,-231.51C1141.2,-227.68 1309.23,-215.21 1445.16,-180 1447.76,-179.33 1450.42,-178.54 1453.08,-177.67"/>
<polygon fill="black" stroke="black" points="1454.33,-180.94 1462.58,-174.3 1451.98,-174.35 1454.33,-180.94"/>
</g>
<!-- 0 at pos (0.0, 0.0, 0.0)? -->
<g id="node3" class="node">
<title>0 at pos (0.0, 0.0, 0.0)?</title>
<ellipse fill="gray" stroke="black" cx="57.16" cy="-90" rx="57.32" ry="18"/>
<text text-anchor="middle" x="57.16" y="-87.8" font-family="Times,serif" font-size="9.00">0 at pos (0.0, 0.0, 0.0)?</text>
</g>
<!-- Fallback&#45;&gt;0 at pos (0.0, 0.0, 0.0)? -->
<g id="edge2" class="edge">
<title>Fallback&#45;&gt;0 at pos (0.0, 0.0, 0.0)?</title>
<path fill="none" stroke="black" d="M240.99,-152.28C206.92,-140.92 146.75,-120.87 104.56,-106.8"/>
<polygon fill="black" stroke="black" points="105.64,-103.47 95.05,-103.63 103.43,-110.11 105.64,-103.47"/>
</g>
<!-- pick 0! -->
<g id="node4" class="node">
<title>pick 0!</title>
<ellipse fill="gray" stroke="black" cx="159.16" cy="-90" rx="27" ry="18"/>
<text text-anchor="middle" x="159.16" y="-87.8" font-family="Times,serif" font-size="9.00">pick 0!</text>
</g>
<!-- Fallback&#45;&gt;pick 0! -->
<g id="edge3" class="edge">
<title>Fallback&#45;&gt;pick 0!</title>
<path fill="none" stroke="black" d="M247.6,-148.32C230.49,-137.24 205.47,-121.02 186.4,-108.66"/>
<polygon fill="black" stroke="black" points="188.14,-105.62 177.85,-103.11 184.34,-111.49 188.14,-105.62"/>
</g>
<!-- 0 on 3? -->
<g id="node5" class="node">
<title>0 on 3?</title>
<ellipse fill="gray" stroke="black" cx="231.16" cy="-90" rx="27" ry="18"/>
<text text-anchor="middle" x="231.16" y="-87.8" font-family="Times,serif" font-size="9.00">0 on 3?</text>
</g>
<!-- Fallback&#45;&gt;0 on 3? -->
<g id="edge4" class="edge">
<title>Fallback&#45;&gt;0 on 3?</title>
<path fill="none" stroke="black" d="M258.26,-143.7C253.99,-135.4 248.8,-125.31 244.11,-116.19"/>
<polygon fill="black" stroke="black" points="247.15,-114.44 239.46,-107.14 240.92,-117.64 247.15,-114.44"/>
</g>
<!-- pick 1! -->
<g id="node6" class="node">
<title>pick 1!</title>
<ellipse fill="gray" stroke="black" cx="303.16" cy="-90" rx="27" ry="18"/>
<text text-anchor="middle" x="303.16" y="-87.8" font-family="Times,serif" font-size="9.00">pick 1!</text>
</g>
<!-- Fallback&#45;&gt;pick 1! -->
<g id="edge5" class="edge">
<title>Fallback&#45;&gt;pick 1!</title>
<path fill="none" stroke="black" d="M276.06,-143.7C280.32,-135.4 285.51,-125.31 290.2,-116.19"/>
<polygon fill="black" stroke="black" points="293.39,-117.64 294.85,-107.14 287.17,-114.44 293.39,-117.64"/>
</g>
<!-- pick 0!* -->
<g id="node7" class="node">
<title>pick 0!*</title>
<ellipse fill="gray" stroke="black" cx="375.16" cy="-90" rx="27" ry="18"/>
<text text-anchor="middle" x="375.16" y="-87.8" font-family="Times,serif" font-size="9.00">pick 0!*</text>
</g>
<!-- Fallback&#45;&gt;pick 0!* -->
<g id="edge6" class="edge">
<title>Fallback&#45;&gt;pick 0!*</title>
<path fill="none" stroke="black" d="M286.72,-148.32C303.82,-137.24 328.84,-121.02 347.91,-108.66"/>
<polygon fill="black" stroke="black" points="349.98,-111.49 356.47,-103.11 346.17,-105.62 349.98,-111.49"/>
</g>
<!-- 2 at pos (0.016, &#45;0.032, 0.0)? -->
<g id="node9" class="node">
<title>2 at pos (0.016, &#45;0.032, 0.0)?</title>
<ellipse fill="gray" stroke="black" cx="489.16" cy="-90" rx="69.06" ry="18"/>
<text text-anchor="middle" x="489.16" y="-87.8" font-family="Times,serif" font-size="9.00">2 at pos (0.016, &#45;0.032, 0.0)?</text>
</g>
<!-- Fallback*&#45;&gt;2 at pos (0.016, &#45;0.032, 0.0)? -->
<g id="edge8" class="edge">
<title>Fallback*&#45;&gt;2 at pos (0.016, &#45;0.032, 0.0)?</title>
<path fill="none" stroke="black" d="M639.57,-150.82C612.23,-139.95 568.35,-122.5 535.02,-109.24"/>
<polygon fill="black" stroke="black" points="536.07,-105.89 525.49,-105.45 533.48,-112.4 536.07,-105.89"/>
</g>
<!-- Sequence* -->
<g id="node10" class="node">
<title>Sequence*</title>
<polygon fill="cyan" stroke="black" points="645.4,-82.54 645.4,-97.46 625.34,-108 596.97,-108 576.92,-97.46 576.92,-82.54 596.97,-72 625.34,-72 645.4,-82.54"/>
<text text-anchor="middle" x="611.16" y="-87.8" font-family="Times,serif" font-size="9.00">Sequence*</text>
</g>
<!-- Fallback*&#45;&gt;Sequence* -->
<g id="edge9" class="edge">
<title>Fallback*&#45;&gt;Sequence*</title>
<path fill="none" stroke="black" d="M651.81,-143.7C645.4,-135.39 637.6,-125.28 630.55,-116.14"/>
<polygon fill="black" stroke="black" points="633.23,-113.88 624.35,-108.1 627.69,-118.16 633.23,-113.88"/>
</g>
<!-- place at (0.0, 0.0, 0.0)! -->
<g id="node14" class="node">
<title>place at (0.0, 0.0, 0.0)!</title>
<ellipse fill="gray" stroke="black" cx="719.16" cy="-90" rx="56.01" ry="18"/>
<text text-anchor="middle" x="719.16" y="-87.8" font-family="Times,serif" font-size="9.00">place at (0.0, 0.0, 0.0)!</text>
</g>
<!-- Fallback*&#45;&gt;place at (0.0, 0.0, 0.0)! -->
<g id="edge13" class="edge">
<title>Fallback*&#45;&gt;place at (0.0, 0.0, 0.0)!</title>
<path fill="none" stroke="black" d="M678.51,-143.7C685.01,-135.27 692.95,-124.97 700.08,-115.73"/>
<polygon fill="black" stroke="black" points="703,-117.68 706.33,-107.62 697.46,-113.4 703,-117.68"/>
</g>
<!-- pick 2! -->
<g id="node11" class="node">
<title>pick 2!</title>
<ellipse fill="gray" stroke="black" cx="537.16" cy="-18" rx="27" ry="18"/>
<text text-anchor="middle" x="537.16" y="-15.8" font-family="Times,serif" font-size="9.00">pick 2!</text>
</g>
<!-- Sequence*&#45;&gt;pick 2! -->
<g id="edge10" class="edge">
<title>Sequence*&#45;&gt;pick 2!</title>
<path fill="none" stroke="black" d="M594.37,-73.12C584.11,-63.41 570.87,-50.89 559.71,-40.33"/>
<polygon fill="black" stroke="black" points="562.04,-37.72 552.37,-33.39 557.23,-42.81 562.04,-37.72"/>
</g>
<!-- picked 2? -->
<g id="node12" class="node">
<title>picked 2?</title>
<ellipse fill="gray" stroke="black" cx="611.16" cy="-18" rx="28.74" ry="18"/>
<text text-anchor="middle" x="611.16" y="-15.8" font-family="Times,serif" font-size="9.00">picked 2?</text>
</g>
<!-- Sequence*&#45;&gt;picked 2? -->
<g id="edge11" class="edge">
<title>Sequence*&#45;&gt;picked 2?</title>
<path fill="none" stroke="black" d="M611.16,-71.7C611.16,-63.98 611.16,-54.71 611.16,-46.11"/>
<polygon fill="black" stroke="black" points="614.66,-46.1 611.16,-36.1 607.66,-46.1 614.66,-46.1"/>
</g>
<!-- place at (0.016, &#45;0.032, 0.0)! -->
<g id="node13" class="node">
<title>place at (0.016, &#45;0.032, 0.0)!</title>
<ellipse fill="gray" stroke="black" cx="726.16" cy="-18" rx="68.25" ry="18"/>
<text text-anchor="middle" x="726.16" y="-15.8" font-family="Times,serif" font-size="9.00">place at (0.016, &#45;0.032, 0.0)!</text>
</g>
<!-- Sequence*&#45;&gt;place at (0.016, &#45;0.032, 0.0)! -->
<g id="edge12" class="edge">
<title>Sequence*&#45;&gt;place at (0.016, &#45;0.032, 0.0)!</title>
<path fill="none" stroke="black" d="M632.79,-75.83C649.3,-65.78 672.39,-51.73 691.47,-40.11"/>
<polygon fill="black" stroke="black" points="693.47,-42.99 700.19,-34.8 689.83,-37.01 693.47,-42.99"/>
</g>
<!-- 3 at pos (0.016, 0.032, 0.0)? -->
<g id="node18" class="node">
<title>3 at pos (0.016, 0.032, 0.0)?</title>
<ellipse fill="gray" stroke="black" cx="861.16" cy="-90" rx="67.6" ry="18"/>
<text text-anchor="middle" x="861.16" y="-87.8" font-family="Times,serif" font-size="9.00">3 at pos (0.016, 0.032, 0.0)?</text>
</g>
<!-- Fallback**&#45;&gt;3 at pos (0.016, 0.032, 0.0)? -->
<g id="edge17" class="edge">
<title>Fallback**&#45;&gt;3 at pos (0.016, 0.032, 0.0)?</title>
<path fill="none" stroke="black" d="M1074.33,-150.12C1068.69,-147.98 1062.76,-145.83 1057.16,-144 1011.55,-129.07 959.01,-115.03 919.82,-105.15"/>
<polygon fill="black" stroke="black" points="920.45,-101.7 909.9,-102.67 918.75,-108.5 920.45,-101.7"/>
</g>
<!-- pick 1!** -->
<g id="node19" class="node">
<title>pick 1!**</title>
<ellipse fill="gray" stroke="black" cx="975.16" cy="-90" rx="28.74" ry="18"/>
<text text-anchor="middle" x="975.16" y="-87.8" font-family="Times,serif" font-size="9.00">pick 1!**</text>
</g>
<!-- Fallback**&#45;&gt;pick 1!** -->
<g id="edge18" class="edge">
<title>Fallback**&#45;&gt;pick 1!**</title>
<path fill="none" stroke="black" d="M1078.05,-148.16C1057.44,-136.71 1027.16,-119.89 1004.78,-107.46"/>
<polygon fill="black" stroke="black" points="1006.47,-104.39 996.03,-102.6 1003.07,-110.51 1006.47,-104.39"/>
</g>
<!-- Sequence** -->
<g id="node20" class="node">
<title>Sequence**</title>
<polygon fill="cyan" stroke="black" points="1095.9,-82.54 1095.9,-97.46 1074.38,-108 1043.94,-108 1022.42,-97.46 1022.42,-82.54 1043.94,-72 1074.38,-72 1095.9,-82.54"/>
<text text-anchor="middle" x="1059.16" y="-87.8" font-family="Times,serif" font-size="9.00">Sequence**</text>
</g>
<!-- Fallback**&#45;&gt;Sequence** -->
<g id="edge19" class="edge">
<title>Fallback**&#45;&gt;Sequence**</title>
<path fill="none" stroke="black" d="M1090.78,-143.7C1085.89,-135.56 1079.97,-125.69 1074.58,-116.7"/>
<polygon fill="black" stroke="black" points="1077.57,-114.88 1069.42,-108.1 1071.56,-118.48 1077.57,-114.88"/>
</g>
<!-- pick 0!** -->
<g id="node23" class="node">
<title>pick 0!**</title>
<ellipse fill="gray" stroke="black" cx="1143.16" cy="-90" rx="28.74" ry="18"/>
<text text-anchor="middle" x="1143.16" y="-87.8" font-family="Times,serif" font-size="9.00">pick 0!**</text>
</g>
<!-- Fallback**&#45;&gt;pick 0!** -->
<g id="edge22" class="edge">
<title>Fallback**&#45;&gt;pick 0!**</title>
<path fill="none" stroke="black" d="M1111.54,-143.7C1116.57,-135.32 1122.7,-125.1 1128.22,-115.9"/>
<polygon fill="black" stroke="black" points="1131.33,-117.52 1133.47,-107.14 1125.32,-113.92 1131.33,-117.52"/>
</g>
<!-- place at (0.016, &#45;0.032, 0.0)!* -->
<g id="node24" class="node">
<title>place at (0.016, &#45;0.032, 0.0)!*</title>
<ellipse fill="gray" stroke="black" cx="1260.16" cy="-90" rx="70.37" ry="18"/>
<text text-anchor="middle" x="1260.16" y="-87.8" font-family="Times,serif" font-size="9.00">place at (0.016, &#45;0.032, 0.0)!*</text>
</g>
<!-- Fallback**&#45;&gt;place at (0.016, &#45;0.032, 0.0)!* -->
<g id="edge23" class="edge">
<title>Fallback**&#45;&gt;place at (0.016, &#45;0.032, 0.0)!*</title>
<path fill="none" stroke="black" d="M1127.06,-149.6C1151.33,-138.91 1188.08,-122.73 1216.81,-110.08"/>
<polygon fill="black" stroke="black" points="1218.48,-113.17 1226.22,-105.94 1215.66,-106.77 1218.48,-113.17"/>
</g>
<!-- pick 3! -->
<g id="node21" class="node">
<title>pick 3!</title>
<ellipse fill="gray" stroke="black" cx="1002.16" cy="-18" rx="27" ry="18"/>
<text text-anchor="middle" x="1002.16" y="-15.8" font-family="Times,serif" font-size="9.00">pick 3!</text>
</g>
<!-- Sequence**&#45;&gt;pick 3! -->
<g id="edge20" class="edge">
<title>Sequence**&#45;&gt;pick 3!</title>
<path fill="none" stroke="black" d="M1045.07,-71.7C1037.83,-62.8 1028.9,-51.84 1021.07,-42.22"/>
<polygon fill="black" stroke="black" points="1023.57,-39.75 1014.54,-34.2 1018.14,-44.17 1023.57,-39.75"/>
</g>
<!-- place at (0.016, 0.032, 0.0)!* -->
<g id="node22" class="node">
<title>place at (0.016, 0.032, 0.0)!*</title>
<ellipse fill="gray" stroke="black" cx="1116.16" cy="-18" rx="68.91" ry="18"/>
<text text-anchor="middle" x="1116.16" y="-15.8" font-family="Times,serif" font-size="9.00">place at (0.016, 0.032, 0.0)!*</text>
</g>
<!-- Sequence**&#45;&gt;place at (0.016, 0.032, 0.0)!* -->
<g id="edge21" class="edge">
<title>Sequence**&#45;&gt;place at (0.016, 0.032, 0.0)!*</title>
<path fill="none" stroke="black" d="M1073.25,-71.7C1080.08,-63.3 1088.41,-53.07 1095.91,-43.86"/>
<polygon fill="black" stroke="black" points="1098.63,-46.07 1102.23,-36.1 1093.2,-41.65 1098.63,-46.07"/>
</g>
<!-- 1 on 0? -->
<g id="node26" class="node">
<title>1 on 0?</title>
<ellipse fill="gray" stroke="black" cx="1375.16" cy="-90" rx="27" ry="18"/>
<text text-anchor="middle" x="1375.16" y="-87.8" font-family="Times,serif" font-size="9.00">1 on 0?</text>
</g>
<!-- Fallback***&#45;&gt;1 on 0? -->
<g id="edge25" class="edge">
<title>Fallback***&#45;&gt;1 on 0?</title>
<path fill="none" stroke="black" d="M1320.98,-144.41C1330.62,-134.91 1342.82,-122.88 1353.2,-112.65"/>
<polygon fill="black" stroke="black" points="1355.72,-115.08 1360.38,-105.57 1350.8,-110.1 1355.72,-115.08"/>
</g>
<!-- Sequence*** -->
<g id="node27" class="node">
<title>Sequence***</title>
<polygon fill="cyan" stroke="black" points="1500.15,-82.54 1500.15,-97.46 1476.72,-108 1443.59,-108 1420.17,-97.46 1420.17,-82.54 1443.59,-72 1476.72,-72 1500.15,-82.54"/>
<text text-anchor="middle" x="1460.16" y="-87.8" font-family="Times,serif" font-size="9.00">Sequence***</text>
</g>
<!-- Fallback***&#45;&gt;Sequence*** -->
<g id="edge26" class="edge">
<title>Fallback***&#45;&gt;Sequence***</title>
<path fill="none" stroke="black" d="M1330.62,-149.13C1356.16,-137.67 1395.04,-120.22 1423.54,-107.43"/>
<polygon fill="black" stroke="black" points="1425.09,-110.57 1432.78,-103.29 1422.22,-104.19 1425.09,-110.57"/>
</g>
<!-- 2 at pos (0.016, &#45;0.032, 0.0)?* -->
<g id="node30" class="node">
<title>2 at pos (0.016, &#45;0.032, 0.0)?*</title>
<ellipse fill="gray" stroke="black" cx="1590.16" cy="-90" rx="72.34" ry="18"/>
<text text-anchor="middle" x="1590.16" y="-87.8" font-family="Times,serif" font-size="9.00">2 at pos (0.016, &#45;0.032, 0.0)?*</text>
</g>
<!-- Fallback***&#45;&gt;2 at pos (0.016, &#45;0.032, 0.0)?* -->
<g id="edge29" class="edge">
<title>Fallback***&#45;&gt;2 at pos (0.016, &#45;0.032, 0.0)?*</title>
<path fill="none" stroke="black" d="M1332.8,-149.98C1338.82,-147.85 1345.16,-145.74 1351.16,-144 1367.96,-139.12 1462.06,-118.58 1527.04,-104.56"/>
<polygon fill="black" stroke="black" points="1528.17,-107.89 1537.21,-102.36 1526.69,-101.05 1528.17,-107.89"/>
</g>
<!-- pick 1!*** -->
<g id="node28" class="node">
<title>pick 1!***</title>
<ellipse fill="gray" stroke="black" cx="1419.16" cy="-18" rx="31.51" ry="18"/>
<text text-anchor="middle" x="1419.16" y="-15.8" font-family="Times,serif" font-size="9.00">pick 1!***</text>
</g>
<!-- Sequence***&#45;&gt;pick 1!*** -->
<g id="edge27" class="edge">
<title>Sequence***&#45;&gt;pick 1!***</title>
<path fill="none" stroke="black" d="M1450.02,-71.7C1445.19,-63.44 1439.3,-53.39 1433.98,-44.3"/>
<polygon fill="black" stroke="black" points="1436.97,-42.48 1428.89,-35.62 1430.93,-46.02 1436.97,-42.48"/>
</g>
<!-- place on 0! -->
<g id="node29" class="node">
<title>place on 0!</title>
<ellipse fill="gray" stroke="black" cx="1501.16" cy="-18" rx="32.16" ry="18"/>
<text text-anchor="middle" x="1501.16" y="-15.8" font-family="Times,serif" font-size="9.00">place on 0!</text>
</g>
<!-- Sequence***&#45;&gt;place on 0! -->
<g id="edge28" class="edge">
<title>Sequence***&#45;&gt;place on 0!</title>
<path fill="none" stroke="black" d="M1470.29,-71.7C1475.13,-63.44 1481.01,-53.39 1486.34,-44.3"/>
<polygon fill="black" stroke="black" points="1489.39,-46.02 1491.42,-35.62 1483.35,-42.48 1489.39,-46.02"/>
</g>
</g>
</svg>
