<?xml version="1.0" encoding="UTF-8" standalone="no"?>
<!DOCTYPE svg PUBLIC "-//W3C//DTD SVG 1.1//EN"
 "http://www.w3.org/Graphics/SVG/1.1/DTD/svg11.dtd">
<!-- Generated by graphviz version 2.43.0 (0)
 -->
<!-- Title: pastafarianism Pages: 1 -->
<svg width="950pt" height="260pt"
 viewBox="0.00 0.00 950.35 260.00" xmlns="http://www.w3.org/2000/svg" xmlns:xlink="http://www.w3.org/1999/xlink">
<g id="graph0" class="graph" transform="scale(1 1) rotate(0) translate(4 256)">
<title>pastafarianism</title>
<polygon fill="white" stroke="transparent" points="-4,4 -4,-256 946.35,-256 946.35,4 -4,4"/>
<!-- Sequence -->
<g id="node1" class="node">
<title>Sequence</title>
<polygon fill="cyan" stroke="black" points="618.54,-226.54 618.54,-241.46 600.09,-252 574,-252 555.55,-241.46 555.55,-226.54 574,-216 600.09,-216 618.54,-226.54"/>
<text text-anchor="middle" x="587.04" y="-231.8" font-family="Times,serif" font-size="9.00">Sequence</text>
</g>
<!-- Fallback -->
<g id="node2" class="node">
<title>Fallback</title>
<polygon fill="cyan" stroke="black" points="201.29,-154.54 201.29,-169.46 184.16,-180 159.93,-180 142.8,-169.46 142.8,-154.54 159.93,-144 184.16,-144 201.29,-154.54"/>
<text text-anchor="middle" x="172.04" y="-159.8" font-family="Times,serif" font-size="9.00">Fallback</text>
</g>
<!-- Sequence&#45;&gt;Fallback -->
<g id="edge1" class="edge">
<title>Sequence&#45;&gt;Fallback</title>
<path fill="none" stroke="black" d="M555.51,-227.68C480.78,-215.08 293.03,-183.41 211.2,-169.6"/>
<polygon fill="black" stroke="black" points="211.74,-166.15 201.3,-167.93 210.57,-173.05 211.74,-166.15"/>
</g>
<!-- Fallback* -->
<g id="node7" class="node">
<title>Fallback*</title>
<polygon fill="cyan" stroke="black" points="528.79,-154.54 528.79,-169.46 510.19,-180 483.9,-180 465.3,-169.46 465.3,-154.54 483.9,-144 510.19,-144 528.79,-154.54"/>
<text text-anchor="middle" x="497.04" y="-159.8" font-family="Times,serif" font-size="9.00">Fallback*</text>
</g>
<!-- Sequence&#45;&gt;Fallback* -->
<g id="edge6" class="edge">
<title>Sequence&#45;&gt;Fallback*</title>
<path fill="none" stroke="black" d="M568.83,-218.83C555.78,-208.68 538,-194.85 523.4,-183.5"/>
<polygon fill="black" stroke="black" points="525.27,-180.52 515.23,-177.14 520.97,-186.05 525.27,-180.52"/>
</g>
<!-- Fallback** -->
<g id="node18" class="node">
<title>Fallback**</title>
<polygon fill="cyan" stroke="black" points="734.04,-154.54 734.04,-169.46 713.54,-180 684.55,-180 664.05,-169.46 664.05,-154.54 684.55,-144 713.54,-144 734.04,-154.54"/>
<text text-anchor="middle" x="699.04" y="-159.8" font-family="Times,serif" font-size="9.00">Fallback**</text>
</g>
<!-- Sequence&#45;&gt;Fallback** -->
<g id="edge17" class="edge">
<title>Sequence&#45;&gt;Fallback**</title>
<path fill="none" stroke="black" d="M607.59,-220.16C624.78,-209.41 649.56,-193.93 668.98,-181.79"/>
<polygon fill="black" stroke="black" points="670.86,-184.74 677.49,-176.47 667.15,-178.81 670.86,-184.74"/>
</g>
<!-- apply force 2! -->
<g id="node24" class="node">
<title>apply force 2!</title>
<ellipse fill="gray" stroke="black" cx="790.04" cy="-162" rx="38.21" ry="18"/>
<text text-anchor="middle" x="790.04" y="-159.8" font-family="Times,serif" font-size="9.00">apply force 2!</text>
</g>
<!-- Sequence&#45;&gt;apply force 2! -->
<g id="edge23" class="edge">
<title>Sequence&#45;&gt;apply force 2!</title>
<path fill="none" stroke="black" d="M614.15,-223.97C645.32,-213.55 697.97,-195.81 743.04,-180 745.73,-179.06 748.5,-178.08 751.29,-177.09"/>
<polygon fill="black" stroke="black" points="752.51,-180.37 760.74,-173.7 750.15,-173.78 752.51,-180.37"/>
</g>
<!-- 0 at pos (0.0, 0.05, 0.0)? -->
<g id="node3" class="node">
<title>0 at pos (0.0, 0.05, 0.0)?</title>
<ellipse fill="gray" stroke="black" cx="60.04" cy="-90" rx="60.09" ry="18"/>
<text text-anchor="middle" x="60.04" y="-87.8" font-family="Times,serif" font-size="9.00">0 at pos (0.0, 0.05, 0.0)?</text>
</g>
<!-- Fallback&#45;&gt;0 at pos (0.0, 0.05, 0.0)? -->
<g id="edge2" class="edge">
<title>Fallback&#45;&gt;0 at pos (0.0, 0.05, 0.0)?</title>
<path fill="none" stroke="black" d="M152.28,-148.65C136.12,-138.55 112.92,-124.05 93.82,-112.11"/>
<polygon fill="black" stroke="black" points="95.44,-109 85.11,-106.66 91.73,-114.93 95.44,-109"/>
</g>
<!-- Sequence* -->
<g id="node4" class="node">
<title>Sequence*</title>
<polygon fill="cyan" stroke="black" points="206.29,-82.54 206.29,-97.46 186.23,-108 157.86,-108 137.8,-97.46 137.8,-82.54 157.86,-72 186.23,-72 206.29,-82.54"/>
<text text-anchor="middle" x="172.04" y="-87.8" font-family="Times,serif" font-size="9.00">Sequence*</text>
</g>
<!-- Fallback&#45;&gt;Sequence* -->
<g id="edge3" class="edge">
<title>Fallback&#45;&gt;Sequence*</title>
<path fill="none" stroke="black" d="M172.04,-143.7C172.04,-135.98 172.04,-126.71 172.04,-118.11"/>
<polygon fill="black" stroke="black" points="175.54,-118.1 172.04,-108.1 168.54,-118.1 175.54,-118.1"/>
</g>
<!-- pick 0! -->
<g id="node5" class="node">
<title>pick 0!</title>
<ellipse fill="gray" stroke="black" cx="79.04" cy="-18" rx="27" ry="18"/>
<text text-anchor="middle" x="79.04" y="-15.8" font-family="Times,serif" font-size="9.00">pick 0!</text>
</g>
<!-- Sequence*&#45;&gt;pick 0! -->
<g id="edge4" class="edge">
<title>Sequence*&#45;&gt;pick 0!</title>
<path fill="none" stroke="black" d="M152.77,-74.5C138.77,-63.95 119.67,-49.58 104.43,-38.1"/>
<polygon fill="black" stroke="black" points="106.5,-35.29 96.41,-32.07 102.29,-40.88 106.5,-35.29"/>
</g>
<!-- place at (0.0, 0.05, 0.0)! -->
<g id="node6" class="node">
<title>place at (0.0, 0.05, 0.0)!</title>
<ellipse fill="gray" stroke="black" cx="182.04" cy="-18" rx="58.13" ry="18"/>
<text text-anchor="middle" x="182.04" y="-15.8" font-family="Times,serif" font-size="9.00">place at (0.0, 0.05, 0.0)!</text>
</g>
<!-- Sequence*&#45;&gt;place at (0.0, 0.05, 0.0)! -->
<g id="edge5" class="edge">
<title>Sequence*&#45;&gt;place at (0.0, 0.05, 0.0)!</title>
<path fill="none" stroke="black" d="M174.52,-71.7C175.62,-63.98 176.94,-54.71 178.17,-46.11"/>
<polygon fill="black" stroke="black" points="181.65,-46.5 179.6,-36.1 174.72,-45.51 181.65,-46.5"/>
</g>
<!-- 1 at pos (0.0, 0.05, 0.0192)? -->
<g id="node8" class="node">
<title>1 at pos (0.0, 0.05, 0.0192)?</title>
<ellipse fill="gray" stroke="black" cx="292.04" cy="-90" rx="67.6" ry="18"/>
<text text-anchor="middle" x="292.04" y="-87.8" font-family="Times,serif" font-size="9.00">1 at pos (0.0, 0.05, 0.0192)?</text>
</g>
<!-- Fallback*&#45;&gt;1 at pos (0.0, 0.05, 0.0192)? -->
<g id="edge7" class="edge">
<title>Fallback*&#45;&gt;1 at pos (0.0, 0.05, 0.0192)?</title>
<path fill="none" stroke="black" d="M469.82,-151.7C437.22,-140.57 381.98,-121.71 341.71,-107.96"/>
<polygon fill="black" stroke="black" points="342.67,-104.59 332.08,-104.67 340.41,-111.21 342.67,-104.59"/>
</g>
<!-- place on 0! -->
<g id="node9" class="node">
<title>place on 0!</title>
<ellipse fill="gray" stroke="black" cx="410.04" cy="-90" rx="32.16" ry="18"/>
<text text-anchor="middle" x="410.04" y="-87.8" font-family="Times,serif" font-size="9.00">place on 0!</text>
</g>
<!-- Fallback*&#45;&gt;place on 0! -->
<g id="edge8" class="edge">
<title>Fallback*&#45;&gt;place on 0!</title>
<path fill="none" stroke="black" d="M479.02,-146.5C466.45,-136.39 449.51,-122.75 435.56,-111.53"/>
<polygon fill="black" stroke="black" points="437.74,-108.79 427.75,-105.25 433.35,-114.24 437.74,-108.79"/>
</g>
<!-- Sequence** -->
<g id="node10" class="node">
<title>Sequence**</title>
<polygon fill="cyan" stroke="black" points="533.79,-82.54 533.79,-97.46 512.26,-108 481.83,-108 460.3,-97.46 460.3,-82.54 481.83,-72 512.26,-72 533.79,-82.54"/>
<text text-anchor="middle" x="497.04" y="-87.8" font-family="Times,serif" font-size="9.00">Sequence**</text>
</g>
<!-- Fallback*&#45;&gt;Sequence** -->
<g id="edge9" class="edge">
<title>Fallback*&#45;&gt;Sequence**</title>
<path fill="none" stroke="black" d="M497.04,-143.7C497.04,-135.98 497.04,-126.71 497.04,-118.11"/>
<polygon fill="black" stroke="black" points="500.54,-118.1 497.04,-108.1 493.54,-118.1 500.54,-118.1"/>
</g>
<!-- Sequence*** -->
<g id="node14" class="node">
<title>Sequence***</title>
<polygon fill="cyan" stroke="black" points="647.03,-82.54 647.03,-97.46 623.61,-108 590.48,-108 567.05,-97.46 567.05,-82.54 590.48,-72 623.61,-72 647.03,-82.54"/>
<text text-anchor="middle" x="607.04" y="-87.8" font-family="Times,serif" font-size="9.00">Sequence***</text>
</g>
<!-- Fallback*&#45;&gt;Sequence*** -->
<g id="edge13" class="edge">
<title>Fallback*&#45;&gt;Sequence***</title>
<path fill="none" stroke="black" d="M517.48,-148C533.89,-137.55 557.21,-122.71 575.94,-110.79"/>
<polygon fill="black" stroke="black" points="577.89,-113.7 584.45,-105.38 574.13,-107.8 577.89,-113.7"/>
</g>
<!-- 1 on 0? -->
<g id="node11" class="node">
<title>1 on 0?</title>
<ellipse fill="gray" stroke="black" cx="306.04" cy="-18" rx="27" ry="18"/>
<text text-anchor="middle" x="306.04" y="-15.8" font-family="Times,serif" font-size="9.00">1 on 0?</text>
</g>
<!-- Sequence**&#45;&gt;1 on 0? -->
<g id="edge10" class="edge">
<title>Sequence**&#45;&gt;1 on 0?</title>
<path fill="none" stroke="black" d="M468.39,-78.23C462.66,-76.13 456.67,-73.97 451.04,-72 402.89,-55.15 389.42,-54.93 342.04,-36 340.22,-35.27 338.35,-34.49 336.47,-33.68"/>
<polygon fill="black" stroke="black" points="337.73,-30.41 327.17,-29.5 334.86,-36.8 337.73,-30.41"/>
</g>
<!-- apply force 1! -->
<g id="node12" class="node">
<title>apply force 1!</title>
<ellipse fill="gray" stroke="black" cx="389.04" cy="-18" rx="38.21" ry="18"/>
<text text-anchor="middle" x="389.04" y="-15.8" font-family="Times,serif" font-size="9.00">apply force 1!</text>
</g>
<!-- Sequence**&#45;&gt;apply force 1! -->
<g id="edge11" class="edge">
<title>Sequence**&#45;&gt;apply force 1!</title>
<path fill="none" stroke="black" d="M475.45,-75C459.41,-64.61 437.31,-50.29 419.48,-38.73"/>
<polygon fill="black" stroke="black" points="420.9,-35.48 410.6,-32.97 417.09,-41.35 420.9,-35.48"/>
</g>
<!-- apply force 1!* -->
<g id="node13" class="node">
<title>apply force 1!*</title>
<ellipse fill="gray" stroke="black" cx="486.04" cy="-18" rx="40.98" ry="18"/>
<text text-anchor="middle" x="486.04" y="-15.8" font-family="Times,serif" font-size="9.00">apply force 1!*</text>
</g>
<!-- Sequence**&#45;&gt;apply force 1!* -->
<g id="edge12" class="edge">
<title>Sequence**&#45;&gt;apply force 1!*</title>
<path fill="none" stroke="black" d="M494.33,-71.7C493.11,-63.98 491.66,-54.71 490.3,-46.11"/>
<polygon fill="black" stroke="black" points="493.74,-45.44 488.73,-36.1 486.83,-46.53 493.74,-45.44"/>
</g>
<!-- pick 1! -->
<g id="node15" class="node">
<title>pick 1!</title>
<ellipse fill="gray" stroke="black" cx="572.04" cy="-18" rx="27" ry="18"/>
<text text-anchor="middle" x="572.04" y="-15.8" font-family="Times,serif" font-size="9.00">pick 1!</text>
</g>
<!-- Sequence***&#45;&gt;pick 1! -->
<g id="edge14" class="edge">
<title>Sequence***&#45;&gt;pick 1!</title>
<path fill="none" stroke="black" d="M598.39,-71.7C594.31,-63.52 589.35,-53.6 584.84,-44.58"/>
<polygon fill="black" stroke="black" points="587.96,-43 580.36,-35.62 581.7,-46.13 587.96,-43"/>
</g>
<!-- pick 1!* -->
<g id="node16" class="node">
<title>pick 1!*</title>
<ellipse fill="gray" stroke="black" cx="644.04" cy="-18" rx="27" ry="18"/>
<text text-anchor="middle" x="644.04" y="-15.8" font-family="Times,serif" font-size="9.00">pick 1!*</text>
</g>
<!-- Sequence***&#45;&gt;pick 1!* -->
<g id="edge15" class="edge">
<title>Sequence***&#45;&gt;pick 1!*</title>
<path fill="none" stroke="black" d="M616.19,-71.7C620.57,-63.4 625.91,-53.31 630.73,-44.19"/>
<polygon fill="black" stroke="black" points="633.93,-45.62 635.51,-35.14 627.74,-42.35 633.93,-45.62"/>
</g>
<!-- place on 0!* -->
<g id="node17" class="node">
<title>place on 0!*</title>
<ellipse fill="gray" stroke="black" cx="724.04" cy="-18" rx="34.78" ry="18"/>
<text text-anchor="middle" x="724.04" y="-15.8" font-family="Times,serif" font-size="9.00">place on 0!*</text>
</g>
<!-- Sequence***&#45;&gt;place on 0!* -->
<g id="edge16" class="edge">
<title>Sequence***&#45;&gt;place on 0!*</title>
<path fill="none" stroke="black" d="M630.44,-75C648.6,-64.14 673.92,-48.99 693.65,-37.19"/>
<polygon fill="black" stroke="black" points="695.49,-40.17 702.27,-32.03 691.89,-34.16 695.49,-40.17"/>
</g>
<!-- 2 on 1? -->
<g id="node19" class="node">
<title>2 on 1?</title>
<ellipse fill="gray" stroke="black" cx="699.04" cy="-90" rx="27" ry="18"/>
<text text-anchor="middle" x="699.04" y="-87.8" font-family="Times,serif" font-size="9.00">2 on 1?</text>
</g>
<!-- Fallback**&#45;&gt;2 on 1? -->
<g id="edge18" class="edge">
<title>Fallback**&#45;&gt;2 on 1?</title>
<path fill="none" stroke="black" d="M699.04,-143.7C699.04,-135.98 699.04,-126.71 699.04,-118.11"/>
<polygon fill="black" stroke="black" points="702.54,-118.1 699.04,-108.1 695.54,-118.1 702.54,-118.1"/>
</g>
<!-- Sequence**** -->
<g id="node20" class="node">
<title>Sequence****</title>
<polygon fill="cyan" stroke="black" points="837.53,-82.54 837.53,-97.46 812.64,-108 777.44,-108 752.56,-97.46 752.56,-82.54 777.44,-72 812.64,-72 837.53,-82.54"/>
<text text-anchor="middle" x="795.04" y="-87.8" font-family="Times,serif" font-size="9.00">Sequence****</text>
</g>
<!-- Fallback**&#45;&gt;Sequence**** -->
<g id="edge19" class="edge">
<title>Fallback**&#45;&gt;Sequence****</title>
<path fill="none" stroke="black" d="M718.94,-146.5C732.25,-136.79 750.02,-123.83 765.04,-112.88"/>
<polygon fill="black" stroke="black" points="767.49,-115.42 773.51,-106.7 763.37,-109.77 767.49,-115.42"/>
</g>
<!-- apply force 1!** -->
<g id="node23" class="node">
<title>apply force 1!**</title>
<ellipse fill="gray" stroke="black" cx="899.04" cy="-90" rx="43.1" ry="18"/>
<text text-anchor="middle" x="899.04" y="-87.8" font-family="Times,serif" font-size="9.00">apply force 1!**</text>
</g>
<!-- Fallback**&#45;&gt;apply force 1!** -->
<g id="edge22" class="edge">
<title>Fallback**&#45;&gt;apply force 1!**</title>
<path fill="none" stroke="black" d="M725.97,-150.39C731.6,-148.24 737.5,-146.01 743.04,-144 781.14,-130.18 824.84,-115.42 856.28,-105"/>
<polygon fill="black" stroke="black" points="857.64,-108.24 866.04,-101.78 855.45,-101.59 857.64,-108.24"/>
</g>
<!-- pick 2! -->
<g id="node21" class="node">
<title>pick 2!</title>
<ellipse fill="gray" stroke="black" cx="804.04" cy="-18" rx="27" ry="18"/>
<text text-anchor="middle" x="804.04" y="-15.8" font-family="Times,serif" font-size="9.00">pick 2!</text>
</g>
<!-- Sequence****&#45;&gt;pick 2! -->
<g id="edge20" class="edge">
<title>Sequence****&#45;&gt;pick 2!</title>
<path fill="none" stroke="black" d="M797.27,-71.7C798.26,-63.98 799.45,-54.71 800.56,-46.11"/>
<polygon fill="black" stroke="black" points="804.04,-46.47 801.85,-36.1 797.1,-45.58 804.04,-46.47"/>
</g>
<!-- place on 1! -->
<g id="node22" class="node">
<title>place on 1!</title>
<ellipse fill="gray" stroke="black" cx="881.04" cy="-18" rx="32.16" ry="18"/>
<text text-anchor="middle" x="881.04" y="-15.8" font-family="Times,serif" font-size="9.00">place on 1!</text>
</g>
<!-- Sequence****&#45;&gt;place on 1! -->
<g id="edge21" class="edge">
<title>Sequence****&#45;&gt;place on 1!</title>
<path fill="none" stroke="black" d="M814.99,-72.76C827.04,-62.96 842.52,-50.36 855.46,-39.83"/>
<polygon fill="black" stroke="black" points="857.99,-42.28 863.54,-33.25 853.57,-36.85 857.99,-42.28"/>
</g>
</g>
</svg>
