<?xml version="1.0" encoding="UTF-8" standalone="no"?>
<!DOCTYPE svg PUBLIC "-//W3C//DTD SVG 1.1//EN"
 "http://www.w3.org/Graphics/SVG/1.1/DTD/svg11.dtd">
<!-- Generated by graphviz version 2.43.0 (0)
 -->
<!-- Title: pastafarianism Pages: 1 -->
<svg width="1008pt" height="260pt"
 viewBox="0.00 0.00 1008.38 260.00" xmlns="http://www.w3.org/2000/svg" xmlns:xlink="http://www.w3.org/1999/xlink">
<g id="graph0" class="graph" transform="scale(1 1) rotate(0) translate(4 256)">
<title>pastafarianism</title>
<polygon fill="white" stroke="transparent" points="-4,4 -4,-256 1004.38,-256 1004.38,4 -4,4"/>
<!-- Sequence -->
<g id="node1" class="node">
<title>Sequence</title>
<polygon fill="cyan" stroke="black" points="636.54,-226.54 636.54,-241.46 618.09,-252 592,-252 573.55,-241.46 573.55,-226.54 592,-216 618.09,-216 636.54,-226.54"/>
<text text-anchor="middle" x="605.04" y="-231.8" font-family="Times,serif" font-size="9.00">Sequence</text>
</g>
<!-- Fallback -->
<g id="node2" class="node">
<title>Fallback</title>
<polygon fill="cyan" stroke="black" points="201.29,-154.54 201.29,-169.46 184.16,-180 159.93,-180 142.8,-169.46 142.8,-154.54 159.93,-144 184.16,-144 201.29,-154.54"/>
<text text-anchor="middle" x="172.04" y="-159.8" font-family="Times,serif" font-size="9.00">Fallback</text>
</g>
<!-- Sequence&#45;&gt;Fallback -->
<g id="edge1" class="edge">
<title>Sequence&#45;&gt;Fallback</title>
<path fill="none" stroke="black" d="M573.56,-227.91C496.12,-215.39 296.54,-183.13 211.44,-169.37"/>
<polygon fill="black" stroke="black" points="211.83,-165.89 201.4,-167.75 210.72,-172.8 211.83,-165.89"/>
</g>
<!-- Fallback* -->
<g id="node8" class="node">
<title>Fallback*</title>
<polygon fill="cyan" stroke="black" points="558.79,-154.54 558.79,-169.46 540.19,-180 513.9,-180 495.3,-169.46 495.3,-154.54 513.9,-144 540.19,-144 558.79,-154.54"/>
<text text-anchor="middle" x="527.04" y="-159.8" font-family="Times,serif" font-size="9.00">Fallback*</text>
</g>
<!-- Sequence&#45;&gt;Fallback* -->
<g id="edge7" class="edge">
<title>Sequence&#45;&gt;Fallback*</title>
<path fill="none" stroke="black" d="M588.12,-217.81C577.39,-208.18 563.33,-195.56 551.41,-184.86"/>
<polygon fill="black" stroke="black" points="553.72,-182.23 543.94,-178.16 549.04,-187.44 553.72,-182.23"/>
</g>
<!-- Fallback** -->
<g id="node17" class="node">
<title>Fallback**</title>
<polygon fill="cyan" stroke="black" points="719.04,-154.54 719.04,-169.46 698.54,-180 669.55,-180 649.05,-169.46 649.05,-154.54 669.55,-144 698.54,-144 719.04,-154.54"/>
<text text-anchor="middle" x="684.04" y="-159.8" font-family="Times,serif" font-size="9.00">Fallback**</text>
</g>
<!-- Sequence&#45;&gt;Fallback** -->
<g id="edge16" class="edge">
<title>Sequence&#45;&gt;Fallback**</title>
<path fill="none" stroke="black" d="M622.19,-217.81C632.91,-208.31 646.9,-195.91 658.87,-185.3"/>
<polygon fill="black" stroke="black" points="661.23,-187.9 666.39,-178.64 656.58,-182.66 661.23,-187.9"/>
</g>
<!-- apply force 2! -->
<g id="node23" class="node">
<title>apply force 2!</title>
<ellipse fill="gray" stroke="black" cx="775.04" cy="-162" rx="38.21" ry="18"/>
<text text-anchor="middle" x="775.04" y="-159.8" font-family="Times,serif" font-size="9.00">apply force 2!</text>
</g>
<!-- Sequence&#45;&gt;apply force 2! -->
<g id="edge22" class="edge">
<title>Sequence&#45;&gt;apply force 2!</title>
<path fill="none" stroke="black" d="M630.13,-222.67C658.5,-210.99 705,-191.84 737.66,-178.39"/>
<polygon fill="black" stroke="black" points="739.4,-181.46 747.31,-174.42 736.73,-174.99 739.4,-181.46"/>
</g>
<!-- 0 at pos (0.0, 0.05, 0.0)? -->
<g id="node3" class="node">
<title>0 at pos (0.0, 0.05, 0.0)?</title>
<ellipse fill="gray" stroke="black" cx="60.04" cy="-90" rx="60.09" ry="18"/>
<text text-anchor="middle" x="60.04" y="-87.8" font-family="Times,serif" font-size="9.00">0 at pos (0.0, 0.05, 0.0)?</text>
</g>
<!-- Fallback&#45;&gt;0 at pos (0.0, 0.05, 0.0)? -->
<g id="edge2" class="edge">
<title>Fallback&#45;&gt;0 at pos (0.0, 0.05, 0.0)?</title>
<path fill="none" stroke="black" d="M152.28,-148.65C136.12,-138.55 112.92,-124.05 93.82,-112.11"/>
<polygon fill="black" stroke="black" points="95.44,-109 85.11,-106.66 91.73,-114.93 95.44,-109"/>
</g>
<!-- Sequence* -->
<g id="node4" class="node">
<title>Sequence*</title>
<polygon fill="cyan" stroke="black" points="206.29,-82.54 206.29,-97.46 186.23,-108 157.86,-108 137.8,-97.46 137.8,-82.54 157.86,-72 186.23,-72 206.29,-82.54"/>
<text text-anchor="middle" x="172.04" y="-87.8" font-family="Times,serif" font-size="9.00">Sequence*</text>
</g>
<!-- Fallback&#45;&gt;Sequence* -->
<g id="edge3" class="edge">
<title>Fallback&#45;&gt;Sequence*</title>
<path fill="none" stroke="black" d="M172.04,-143.7C172.04,-135.98 172.04,-126.71 172.04,-118.11"/>
<polygon fill="black" stroke="black" points="175.54,-118.1 172.04,-108.1 168.54,-118.1 175.54,-118.1"/>
</g>
<!-- pick 0! -->
<g id="node5" class="node">
<title>pick 0!</title>
<ellipse fill="gray" stroke="black" cx="83.04" cy="-18" rx="27" ry="18"/>
<text text-anchor="middle" x="83.04" y="-15.8" font-family="Times,serif" font-size="9.00">pick 0!</text>
</g>
<!-- Sequence*&#45;&gt;pick 0! -->
<g id="edge4" class="edge">
<title>Sequence*&#45;&gt;pick 0!</title>
<path fill="none" stroke="black" d="M153.17,-74.15C139.95,-63.75 122.15,-49.75 107.79,-38.46"/>
<polygon fill="black" stroke="black" points="109.82,-35.6 99.79,-32.17 105.49,-41.1 109.82,-35.6"/>
</g>
<!-- pick 0!* -->
<g id="node6" class="node">
<title>pick 0!*</title>
<ellipse fill="gray" stroke="black" cx="155.04" cy="-18" rx="27" ry="18"/>
<text text-anchor="middle" x="155.04" y="-15.8" font-family="Times,serif" font-size="9.00">pick 0!*</text>
</g>
<!-- Sequence*&#45;&gt;pick 0!* -->
<g id="edge5" class="edge">
<title>Sequence*&#45;&gt;pick 0!*</title>
<path fill="none" stroke="black" d="M167.84,-71.7C165.95,-63.9 163.67,-54.51 161.56,-45.83"/>
<polygon fill="black" stroke="black" points="164.96,-45 159.2,-36.1 158.16,-46.65 164.96,-45"/>
</g>
<!-- place at (0.0, 0.05, 0.0)! -->
<g id="node7" class="node">
<title>place at (0.0, 0.05, 0.0)!</title>
<ellipse fill="gray" stroke="black" cx="258.04" cy="-18" rx="58.13" ry="18"/>
<text text-anchor="middle" x="258.04" y="-15.8" font-family="Times,serif" font-size="9.00">place at (0.0, 0.05, 0.0)!</text>
</g>
<!-- Sequence*&#45;&gt;place at (0.0, 0.05, 0.0)! -->
<g id="edge6" class="edge">
<title>Sequence*&#45;&gt;place at (0.0, 0.05, 0.0)!</title>
<path fill="none" stroke="black" d="M190.71,-73.81C202.32,-64.35 217.48,-52.02 230.47,-41.45"/>
<polygon fill="black" stroke="black" points="232.68,-44.16 238.22,-35.13 228.26,-38.73 232.68,-44.16"/>
</g>
<!-- 1 at pos (0.0, 0.05, 0.0192)? -->
<g id="node9" class="node">
<title>1 at pos (0.0, 0.05, 0.0192)?</title>
<ellipse fill="gray" stroke="black" cx="310.04" cy="-90" rx="67.6" ry="18"/>
<text text-anchor="middle" x="310.04" y="-87.8" font-family="Times,serif" font-size="9.00">1 at pos (0.0, 0.05, 0.0192)?</text>
</g>
<!-- Fallback*&#45;&gt;1 at pos (0.0, 0.05, 0.0192)? -->
<g id="edge8" class="edge">
<title>Fallback*&#45;&gt;1 at pos (0.0, 0.05, 0.0192)?</title>
<path fill="none" stroke="black" d="M499.12,-151.99C464.29,-140.76 404.07,-121.33 360.95,-107.42"/>
<polygon fill="black" stroke="black" points="361.8,-104.02 351.2,-104.28 359.65,-110.68 361.8,-104.02"/>
</g>
<!-- Sequence** -->
<g id="node10" class="node">
<title>Sequence**</title>
<polygon fill="cyan" stroke="black" points="468.79,-82.54 468.79,-97.46 447.26,-108 416.83,-108 395.3,-97.46 395.3,-82.54 416.83,-72 447.26,-72 468.79,-82.54"/>
<text text-anchor="middle" x="432.04" y="-87.8" font-family="Times,serif" font-size="9.00">Sequence**</text>
</g>
<!-- Fallback*&#45;&gt;Sequence** -->
<g id="edge9" class="edge">
<title>Fallback*&#45;&gt;Sequence**</title>
<path fill="none" stroke="black" d="M508.28,-147.17C494.59,-137.08 475.8,-123.24 460.3,-111.82"/>
<polygon fill="black" stroke="black" points="462.21,-108.88 452.09,-105.77 458.06,-114.52 462.21,-108.88"/>
</g>
<!-- Sequence*** -->
<g id="node13" class="node">
<title>Sequence***</title>
<polygon fill="cyan" stroke="black" points="567.03,-82.54 567.03,-97.46 543.61,-108 510.48,-108 487.05,-97.46 487.05,-82.54 510.48,-72 543.61,-72 567.03,-82.54"/>
<text text-anchor="middle" x="527.04" y="-87.8" font-family="Times,serif" font-size="9.00">Sequence***</text>
</g>
<!-- Fallback*&#45;&gt;Sequence*** -->
<g id="edge12" class="edge">
<title>Fallback*&#45;&gt;Sequence***</title>
<path fill="none" stroke="black" d="M527.04,-143.7C527.04,-135.98 527.04,-126.71 527.04,-118.11"/>
<polygon fill="black" stroke="black" points="530.54,-118.1 527.04,-108.1 523.54,-118.1 530.54,-118.1"/>
</g>
<!-- pick 1!* -->
<g id="node16" class="node">
<title>pick 1!*</title>
<ellipse fill="gray" stroke="black" cx="612.04" cy="-90" rx="27" ry="18"/>
<text text-anchor="middle" x="612.04" y="-87.8" font-family="Times,serif" font-size="9.00">pick 1!*</text>
</g>
<!-- Fallback*&#45;&gt;pick 1!* -->
<g id="edge15" class="edge">
<title>Fallback*&#45;&gt;pick 1!*</title>
<path fill="none" stroke="black" d="M544.66,-146.5C557.06,-136.28 573.83,-122.47 587.54,-111.18"/>
<polygon fill="black" stroke="black" points="590.11,-113.59 595.61,-104.54 585.66,-108.19 590.11,-113.59"/>
</g>
<!-- 1 on 0? -->
<g id="node11" class="node">
<title>1 on 0?</title>
<ellipse fill="gray" stroke="black" cx="361.04" cy="-18" rx="27" ry="18"/>
<text text-anchor="middle" x="361.04" y="-15.8" font-family="Times,serif" font-size="9.00">1 on 0?</text>
</g>
<!-- Sequence**&#45;&gt;1 on 0? -->
<g id="edge10" class="edge">
<title>Sequence**&#45;&gt;1 on 0?</title>
<path fill="none" stroke="black" d="M415.22,-72.41C405.58,-62.91 393.38,-50.88 383,-40.65"/>
<polygon fill="black" stroke="black" points="385.4,-38.1 375.82,-33.57 380.49,-43.08 385.4,-38.1"/>
</g>
<!-- apply force 1! -->
<g id="node12" class="node">
<title>apply force 1!</title>
<ellipse fill="gray" stroke="black" cx="444.04" cy="-18" rx="38.21" ry="18"/>
<text text-anchor="middle" x="444.04" y="-15.8" font-family="Times,serif" font-size="9.00">apply force 1!</text>
</g>
<!-- Sequence**&#45;&gt;apply force 1! -->
<g id="edge11" class="edge">
<title>Sequence**&#45;&gt;apply force 1!</title>
<path fill="none" stroke="black" d="M435.01,-71.7C436.33,-63.98 437.92,-54.71 439.4,-46.11"/>
<polygon fill="black" stroke="black" points="442.87,-46.55 441.11,-36.1 435.97,-45.37 442.87,-46.55"/>
</g>
<!-- pick 1! -->
<g id="node14" class="node">
<title>pick 1!</title>
<ellipse fill="gray" stroke="black" cx="527.04" cy="-18" rx="27" ry="18"/>
<text text-anchor="middle" x="527.04" y="-15.8" font-family="Times,serif" font-size="9.00">pick 1!</text>
</g>
<!-- Sequence***&#45;&gt;pick 1! -->
<g id="edge13" class="edge">
<title>Sequence***&#45;&gt;pick 1!</title>
<path fill="none" stroke="black" d="M527.04,-71.7C527.04,-63.98 527.04,-54.71 527.04,-46.11"/>
<polygon fill="black" stroke="black" points="530.54,-46.1 527.04,-36.1 523.54,-46.1 530.54,-46.1"/>
</g>
<!-- place on 0! -->
<g id="node15" class="node">
<title>place on 0!</title>
<ellipse fill="gray" stroke="black" cx="604.04" cy="-18" rx="32.16" ry="18"/>
<text text-anchor="middle" x="604.04" y="-15.8" font-family="Times,serif" font-size="9.00">place on 0!</text>
</g>
<!-- Sequence***&#45;&gt;place on 0! -->
<g id="edge14" class="edge">
<title>Sequence***&#45;&gt;place on 0!</title>
<path fill="none" stroke="black" d="M545.29,-72.41C555.77,-62.88 569.05,-50.81 580.33,-40.56"/>
<polygon fill="black" stroke="black" points="582.72,-43.12 587.76,-33.8 578.01,-37.94 582.72,-43.12"/>
</g>
<!-- 2 on 1? -->
<g id="node18" class="node">
<title>2 on 1?</title>
<ellipse fill="gray" stroke="black" cx="684.04" cy="-90" rx="27" ry="18"/>
<text text-anchor="middle" x="684.04" y="-87.8" font-family="Times,serif" font-size="9.00">2 on 1?</text>
</g>
<!-- Fallback**&#45;&gt;2 on 1? -->
<g id="edge17" class="edge">
<title>Fallback**&#45;&gt;2 on 1?</title>
<path fill="none" stroke="black" d="M684.04,-143.7C684.04,-135.98 684.04,-126.71 684.04,-118.11"/>
<polygon fill="black" stroke="black" points="687.54,-118.1 684.04,-108.1 680.54,-118.1 687.54,-118.1"/>
</g>
<!-- 1 at pos (0.0, 0.05, 0.0192)?* -->
<g id="node19" class="node">
<title>1 at pos (0.0, 0.05, 0.0192)?*</title>
<ellipse fill="gray" stroke="black" cx="799.04" cy="-90" rx="70.37" ry="18"/>
<text text-anchor="middle" x="799.04" y="-87.8" font-family="Times,serif" font-size="9.00">1 at pos (0.0, 0.05, 0.0192)?*</text>
</g>
<!-- Fallback**&#45;&gt;1 at pos (0.0, 0.05, 0.0192)?* -->
<g id="edge18" class="edge">
<title>Fallback**&#45;&gt;1 at pos (0.0, 0.05, 0.0192)?*</title>
<path fill="none" stroke="black" d="M705.95,-147.67C722.37,-137.67 745.19,-123.78 764.13,-112.25"/>
<polygon fill="black" stroke="black" points="766.07,-115.17 772.79,-106.98 762.43,-109.19 766.07,-115.17"/>
</g>
<!-- Sequence**** -->
<g id="node20" class="node">
<title>Sequence****</title>
<polygon fill="cyan" stroke="black" points="972.53,-82.54 972.53,-97.46 947.64,-108 912.44,-108 887.56,-97.46 887.56,-82.54 912.44,-72 947.64,-72 972.53,-82.54"/>
<text text-anchor="middle" x="930.04" y="-87.8" font-family="Times,serif" font-size="9.00">Sequence****</text>
</g>
<!-- Fallback**&#45;&gt;Sequence**** -->
<g id="edge19" class="edge">
<title>Fallback**&#45;&gt;Sequence****</title>
<path fill="none" stroke="black" d="M710.84,-150C716.47,-147.87 722.42,-145.75 728.04,-144 793.5,-123.6 812.07,-126.67 878.04,-108 881.39,-107.05 884.84,-106.03 888.3,-104.97"/>
<polygon fill="black" stroke="black" points="889.5,-108.26 897.99,-101.93 887.4,-101.58 889.5,-108.26"/>
</g>
<!-- pick 2! -->
<g id="node21" class="node">
<title>pick 2!</title>
<ellipse fill="gray" stroke="black" cx="891.04" cy="-18" rx="27" ry="18"/>
<text text-anchor="middle" x="891.04" y="-15.8" font-family="Times,serif" font-size="9.00">pick 2!</text>
</g>
<!-- Sequence****&#45;&gt;pick 2! -->
<g id="edge20" class="edge">
<title>Sequence****&#45;&gt;pick 2!</title>
<path fill="none" stroke="black" d="M920.4,-71.7C915.73,-63.32 910.04,-53.1 904.92,-43.9"/>
<polygon fill="black" stroke="black" points="907.96,-42.18 900.04,-35.14 901.85,-45.58 907.96,-42.18"/>
</g>
<!-- place on 1! -->
<g id="node22" class="node">
<title>place on 1!</title>
<ellipse fill="gray" stroke="black" cx="968.04" cy="-18" rx="32.16" ry="18"/>
<text text-anchor="middle" x="968.04" y="-15.8" font-family="Times,serif" font-size="9.00">place on 1!</text>
</g>
<!-- Sequence****&#45;&gt;place on 1! -->
<g id="edge21" class="edge">
<title>Sequence****&#45;&gt;place on 1!</title>
<path fill="none" stroke="black" d="M939.44,-71.7C943.87,-63.52 949.26,-53.6 954.16,-44.58"/>
<polygon fill="black" stroke="black" points="957.33,-46.08 959.02,-35.62 951.17,-42.74 957.33,-46.08"/>
</g>
</g>
</svg>
