<?xml version="1.0" encoding="UTF-8" standalone="no"?>
<!DOCTYPE svg PUBLIC "-//W3C//DTD SVG 1.1//EN"
 "http://www.w3.org/Graphics/SVG/1.1/DTD/svg11.dtd">
<!-- Generated by graphviz version 2.43.0 (0)
 -->
<!-- Title: pastafarianism Pages: 1 -->
<svg width="914pt" height="476pt"
 viewBox="0.00 0.00 914.38 476.00" xmlns="http://www.w3.org/2000/svg" xmlns:xlink="http://www.w3.org/1999/xlink">
<g id="graph0" class="graph" transform="scale(1 1) rotate(0) translate(4 472)">
<title>pastafarianism</title>
<polygon fill="white" stroke="transparent" points="-4,4 -4,-472 910.38,-472 910.38,4 -4,4"/>
<!-- Fallback -->
<g id="node1" class="node">
<title>Fallback</title>
<polygon fill="cyan" stroke="black" points="583.29,-442.54 583.29,-457.46 566.16,-468 541.93,-468 524.8,-457.46 524.8,-442.54 541.93,-432 566.16,-432 583.29,-442.54"/>
<text text-anchor="middle" x="554.04" y="-447.8" font-family="Times,serif" font-size="9.00">Fallback</text>
</g>
<!-- Sequence -->
<g id="node2" class="node">
<title>Sequence</title>
<polygon fill="cyan" stroke="black" points="585.54,-370.54 585.54,-385.46 567.09,-396 541,-396 522.55,-385.46 522.55,-370.54 541,-360 567.09,-360 585.54,-370.54"/>
<text text-anchor="middle" x="554.04" y="-375.8" font-family="Times,serif" font-size="9.00">Sequence</text>
</g>
<!-- Fallback&#45;&gt;Sequence -->
<g id="edge1" class="edge">
<title>Fallback&#45;&gt;Sequence</title>
<path fill="none" stroke="black" d="M554.04,-431.7C554.04,-423.98 554.04,-414.71 554.04,-406.11"/>
<polygon fill="black" stroke="black" points="557.54,-406.1 554.04,-396.1 550.54,-406.1 557.54,-406.1"/>
</g>
<!-- Fallback* -->
<g id="node3" class="node">
<title>Fallback*</title>
<polygon fill="cyan" stroke="black" points="203.79,-298.54 203.79,-313.46 185.19,-324 158.9,-324 140.3,-313.46 140.3,-298.54 158.9,-288 185.19,-288 203.79,-298.54"/>
<text text-anchor="middle" x="172.04" y="-303.8" font-family="Times,serif" font-size="9.00">Fallback*</text>
</g>
<!-- Sequence&#45;&gt;Fallback* -->
<g id="edge2" class="edge">
<title>Sequence&#45;&gt;Fallback*</title>
<path fill="none" stroke="black" d="M522.78,-371.27C454.31,-358.72 291.07,-328.81 213.87,-314.66"/>
<polygon fill="black" stroke="black" points="214.47,-311.22 204.01,-312.86 213.21,-318.1 214.47,-311.22"/>
</g>
<!-- Fallback** -->
<g id="node8" class="node">
<title>Fallback**</title>
<polygon fill="cyan" stroke="black" points="542.04,-298.54 542.04,-313.46 521.54,-324 492.55,-324 472.05,-313.46 472.05,-298.54 492.55,-288 521.54,-288 542.04,-298.54"/>
<text text-anchor="middle" x="507.04" y="-303.8" font-family="Times,serif" font-size="9.00">Fallback**</text>
</g>
<!-- Sequence&#45;&gt;Fallback** -->
<g id="edge7" class="edge">
<title>Sequence&#45;&gt;Fallback**</title>
<path fill="none" stroke="black" d="M542.43,-359.7C536.91,-351.47 530.2,-341.48 524.11,-332.42"/>
<polygon fill="black" stroke="black" points="527.01,-330.46 518.53,-324.1 521.2,-334.36 527.01,-330.46"/>
</g>
<!-- Fallback**** -->
<g id="node21" class="node">
<title>Fallback****</title>
<polygon fill="cyan" stroke="black" points="715.78,-298.54 715.78,-313.46 691.92,-324 658.17,-324 634.3,-313.46 634.3,-298.54 658.17,-288 691.92,-288 715.78,-298.54"/>
<text text-anchor="middle" x="675.04" y="-303.8" font-family="Times,serif" font-size="9.00">Fallback****</text>
</g>
<!-- Sequence&#45;&gt;Fallback**** -->
<g id="edge20" class="edge">
<title>Sequence&#45;&gt;Fallback****</title>
<path fill="none" stroke="black" d="M575.4,-364.65C593.92,-353.93 621.02,-338.25 642.28,-325.95"/>
<polygon fill="black" stroke="black" points="644.1,-328.95 651,-320.91 640.59,-322.89 644.1,-328.95"/>
</g>
<!-- picked 1? -->
<g id="node26" class="node">
<title>picked 1?</title>
<ellipse fill="gray" stroke="black" cx="762.04" cy="-306" rx="28.74" ry="18"/>
<text text-anchor="middle" x="762.04" y="-303.8" font-family="Times,serif" font-size="9.00">picked 1?</text>
</g>
<!-- Sequence&#45;&gt;picked 1? -->
<g id="edge25" class="edge">
<title>Sequence&#45;&gt;picked 1?</title>
<path fill="none" stroke="black" d="M583.48,-369.14C617.88,-359.66 676.28,-342.67 725.04,-324 726.88,-323.3 728.75,-322.55 730.62,-321.77"/>
<polygon fill="black" stroke="black" points="732.16,-324.92 739.94,-317.72 729.37,-318.5 732.16,-324.92"/>
</g>
<!-- 0 at pos (0.0, 0.05, 0.0)? -->
<g id="node4" class="node">
<title>0 at pos (0.0, 0.05, 0.0)?</title>
<ellipse fill="gray" stroke="black" cx="60.04" cy="-234" rx="60.09" ry="18"/>
<text text-anchor="middle" x="60.04" y="-231.8" font-family="Times,serif" font-size="9.00">0 at pos (0.0, 0.05, 0.0)?</text>
</g>
<!-- Fallback*&#45;&gt;0 at pos (0.0, 0.05, 0.0)? -->
<g id="edge3" class="edge">
<title>Fallback*&#45;&gt;0 at pos (0.0, 0.05, 0.0)?</title>
<path fill="none" stroke="black" d="M151.5,-292.16C135.26,-282.01 112.25,-267.63 93.37,-255.83"/>
<polygon fill="black" stroke="black" points="95.09,-252.78 84.76,-250.45 91.38,-258.71 95.09,-252.78"/>
</g>
<!-- Sequence* -->
<g id="node5" class="node">
<title>Sequence*</title>
<polygon fill="cyan" stroke="black" points="206.29,-226.54 206.29,-241.46 186.23,-252 157.86,-252 137.8,-241.46 137.8,-226.54 157.86,-216 186.23,-216 206.29,-226.54"/>
<text text-anchor="middle" x="172.04" y="-231.8" font-family="Times,serif" font-size="9.00">Sequence*</text>
</g>
<!-- Fallback*&#45;&gt;Sequence* -->
<g id="edge4" class="edge">
<title>Fallback*&#45;&gt;Sequence*</title>
<path fill="none" stroke="black" d="M172.04,-287.7C172.04,-279.98 172.04,-270.71 172.04,-262.11"/>
<polygon fill="black" stroke="black" points="175.54,-262.1 172.04,-252.1 168.54,-262.1 175.54,-262.1"/>
</g>
<!-- pick 0! -->
<g id="node6" class="node">
<title>pick 0!</title>
<ellipse fill="gray" stroke="black" cx="121.04" cy="-162" rx="27" ry="18"/>
<text text-anchor="middle" x="121.04" y="-159.8" font-family="Times,serif" font-size="9.00">pick 0!</text>
</g>
<!-- Sequence*&#45;&gt;pick 0! -->
<g id="edge5" class="edge">
<title>Sequence*&#45;&gt;pick 0!</title>
<path fill="none" stroke="black" d="M159.44,-215.7C153.11,-207.02 145.36,-196.37 138.47,-186.92"/>
<polygon fill="black" stroke="black" points="141.18,-184.69 132.46,-178.67 135.52,-188.81 141.18,-184.69"/>
</g>
<!-- place at (0.0, 0.05, 0.0)! -->
<g id="node7" class="node">
<title>place at (0.0, 0.05, 0.0)!</title>
<ellipse fill="gray" stroke="black" cx="224.04" cy="-162" rx="58.13" ry="18"/>
<text text-anchor="middle" x="224.04" y="-159.8" font-family="Times,serif" font-size="9.00">place at (0.0, 0.05, 0.0)!</text>
</g>
<!-- Sequence*&#45;&gt;place at (0.0, 0.05, 0.0)! -->
<g id="edge6" class="edge">
<title>Sequence*&#45;&gt;place at (0.0, 0.05, 0.0)!</title>
<path fill="none" stroke="black" d="M184.9,-215.7C191.16,-207.27 198.81,-196.97 205.67,-187.73"/>
<polygon fill="black" stroke="black" points="208.54,-189.74 211.7,-179.62 202.92,-185.56 208.54,-189.74"/>
</g>
<!-- 1 at pos (0.0, 0.05, 0.0192)? -->
<g id="node9" class="node">
<title>1 at pos (0.0, 0.05, 0.0192)?</title>
<ellipse fill="gray" stroke="black" cx="292.04" cy="-234" rx="67.6" ry="18"/>
<text text-anchor="middle" x="292.04" y="-231.8" font-family="Times,serif" font-size="9.00">1 at pos (0.0, 0.05, 0.0192)?</text>
</g>
<!-- Fallback**&#45;&gt;1 at pos (0.0, 0.05, 0.0192)? -->
<g id="edge8" class="edge">
<title>Fallback**&#45;&gt;1 at pos (0.0, 0.05, 0.0192)?</title>
<path fill="none" stroke="black" d="M477.6,-295.41C443,-284.15 384.98,-265.26 343.02,-251.6"/>
<polygon fill="black" stroke="black" points="343.86,-248.19 333.26,-248.42 341.69,-254.84 343.86,-248.19"/>
</g>
<!-- Sequence** -->
<g id="node10" class="node">
<title>Sequence**</title>
<polygon fill="cyan" stroke="black" points="450.79,-226.54 450.79,-241.46 429.26,-252 398.83,-252 377.3,-241.46 377.3,-226.54 398.83,-216 429.26,-216 450.79,-226.54"/>
<text text-anchor="middle" x="414.04" y="-231.8" font-family="Times,serif" font-size="9.00">Sequence**</text>
</g>
<!-- Fallback**&#45;&gt;Sequence** -->
<g id="edge9" class="edge">
<title>Fallback**&#45;&gt;Sequence**</title>
<path fill="none" stroke="black" d="M487.32,-290.15C474.13,-280.22 456.57,-267.01 441.95,-256.01"/>
<polygon fill="black" stroke="black" points="443.83,-253.04 433.74,-249.82 439.62,-258.63 443.83,-253.04"/>
</g>
<!-- apply force 0! -->
<g id="node19" class="node">
<title>apply force 0!</title>
<ellipse fill="gray" stroke="black" cx="507.04" cy="-234" rx="38.21" ry="18"/>
<text text-anchor="middle" x="507.04" y="-231.8" font-family="Times,serif" font-size="9.00">apply force 0!</text>
</g>
<!-- Fallback**&#45;&gt;apply force 0! -->
<g id="edge18" class="edge">
<title>Fallback**&#45;&gt;apply force 0!</title>
<path fill="none" stroke="black" d="M507.04,-287.7C507.04,-279.98 507.04,-270.71 507.04,-262.11"/>
<polygon fill="black" stroke="black" points="510.54,-262.1 507.04,-252.1 503.54,-262.1 510.54,-262.1"/>
</g>
<!-- 1 at pos (0.0, 0.05, 0.0192)?* -->
<g id="node20" class="node">
<title>1 at pos (0.0, 0.05, 0.0192)?*</title>
<ellipse fill="gray" stroke="black" cx="634.04" cy="-234" rx="70.37" ry="18"/>
<text text-anchor="middle" x="634.04" y="-231.8" font-family="Times,serif" font-size="9.00">1 at pos (0.0, 0.05, 0.0192)?*</text>
</g>
<!-- Fallback**&#45;&gt;1 at pos (0.0, 0.05, 0.0192)?* -->
<g id="edge19" class="edge">
<title>Fallback**&#45;&gt;1 at pos (0.0, 0.05, 0.0192)?*</title>
<path fill="none" stroke="black" d="M530.04,-292.32C548.68,-282.05 575.31,-267.37 596.96,-255.44"/>
<polygon fill="black" stroke="black" points="598.82,-258.41 605.89,-250.52 595.44,-252.28 598.82,-258.41"/>
</g>
<!-- Fallback*** -->
<g id="node11" class="node">
<title>Fallback***</title>
<polygon fill="cyan" stroke="black" points="439.53,-154.54 439.53,-169.46 417.57,-180 386.52,-180 364.55,-169.46 364.55,-154.54 386.52,-144 417.57,-144 439.53,-154.54"/>
<text text-anchor="middle" x="402.04" y="-159.8" font-family="Times,serif" font-size="9.00">Fallback***</text>
</g>
<!-- Sequence**&#45;&gt;Fallback*** -->
<g id="edge10" class="edge">
<title>Sequence**&#45;&gt;Fallback***</title>
<path fill="none" stroke="black" d="M411.08,-215.7C409.76,-207.98 408.17,-198.71 406.69,-190.11"/>
<polygon fill="black" stroke="black" points="410.12,-189.37 404.98,-180.1 403.22,-190.55 410.12,-189.37"/>
</g>
<!-- apply force 1! -->
<g id="node18" class="node">
<title>apply force 1!</title>
<ellipse fill="gray" stroke="black" cx="496.04" cy="-162" rx="38.21" ry="18"/>
<text text-anchor="middle" x="496.04" y="-159.8" font-family="Times,serif" font-size="9.00">apply force 1!</text>
</g>
<!-- Sequence**&#45;&gt;apply force 1! -->
<g id="edge17" class="edge">
<title>Sequence**&#45;&gt;apply force 1!</title>
<path fill="none" stroke="black" d="M432.65,-217.12C443.89,-207.52 458.37,-195.16 470.66,-184.67"/>
<polygon fill="black" stroke="black" points="473.02,-187.26 478.35,-178.1 468.48,-181.93 473.02,-187.26"/>
</g>
<!-- 1 on 0? -->
<g id="node12" class="node">
<title>1 on 0?</title>
<ellipse fill="gray" stroke="black" cx="359.04" cy="-90" rx="27" ry="18"/>
<text text-anchor="middle" x="359.04" y="-87.8" font-family="Times,serif" font-size="9.00">1 on 0?</text>
</g>
<!-- Fallback***&#45;&gt;1 on 0? -->
<g id="edge11" class="edge">
<title>Fallback***&#45;&gt;1 on 0?</title>
<path fill="none" stroke="black" d="M391.42,-143.7C386.27,-135.32 379.99,-125.1 374.34,-115.9"/>
<polygon fill="black" stroke="black" points="377.18,-113.83 368.96,-107.14 371.21,-117.5 377.18,-113.83"/>
</g>
<!-- Sequence*** -->
<g id="node13" class="node">
<title>Sequence***</title>
<polygon fill="cyan" stroke="black" points="484.03,-82.54 484.03,-97.46 460.61,-108 427.48,-108 404.05,-97.46 404.05,-82.54 427.48,-72 460.61,-72 484.03,-82.54"/>
<text text-anchor="middle" x="444.04" y="-87.8" font-family="Times,serif" font-size="9.00">Sequence***</text>
</g>
<!-- Fallback***&#45;&gt;Sequence*** -->
<g id="edge12" class="edge">
<title>Fallback***&#45;&gt;Sequence***</title>
<path fill="none" stroke="black" d="M412.43,-143.7C417.31,-135.56 423.23,-125.69 428.62,-116.7"/>
<polygon fill="black" stroke="black" points="431.64,-118.48 433.78,-108.1 425.64,-114.88 431.64,-118.48"/>
</g>
<!-- 0 at pos (0.0, 0.05, 0.0)?* -->
<g id="node14" class="node">
<title>0 at pos (0.0, 0.05, 0.0)?*</title>
<ellipse fill="gray" stroke="black" cx="301.04" cy="-18" rx="62.21" ry="18"/>
<text text-anchor="middle" x="301.04" y="-15.8" font-family="Times,serif" font-size="9.00">0 at pos (0.0, 0.05, 0.0)?*</text>
</g>
<!-- Sequence***&#45;&gt;0 at pos (0.0, 0.05, 0.0)?* -->
<g id="edge13" class="edge">
<title>Sequence***&#45;&gt;0 at pos (0.0, 0.05, 0.0)?*</title>
<path fill="none" stroke="black" d="M417.82,-76.16C396.15,-65.56 365.07,-50.34 340.42,-38.27"/>
<polygon fill="black" stroke="black" points="341.84,-35.07 331.32,-33.82 338.76,-41.36 341.84,-35.07"/>
</g>
<!-- pick 1! -->
<g id="node15" class="node">
<title>pick 1!</title>
<ellipse fill="gray" stroke="black" cx="408.04" cy="-18" rx="27" ry="18"/>
<text text-anchor="middle" x="408.04" y="-15.8" font-family="Times,serif" font-size="9.00">pick 1!</text>
</g>
<!-- Sequence***&#45;&gt;pick 1! -->
<g id="edge14" class="edge">
<title>Sequence***&#45;&gt;pick 1!</title>
<path fill="none" stroke="black" d="M435.15,-71.7C430.88,-63.4 425.69,-53.31 421,-44.19"/>
<polygon fill="black" stroke="black" points="424.03,-42.44 416.35,-35.14 417.81,-45.64 424.03,-42.44"/>
</g>
<!-- pick 1!* -->
<g id="node16" class="node">
<title>pick 1!*</title>
<ellipse fill="gray" stroke="black" cx="480.04" cy="-18" rx="27" ry="18"/>
<text text-anchor="middle" x="480.04" y="-15.8" font-family="Times,serif" font-size="9.00">pick 1!*</text>
</g>
<!-- Sequence***&#45;&gt;pick 1!* -->
<g id="edge15" class="edge">
<title>Sequence***&#45;&gt;pick 1!*</title>
<path fill="none" stroke="black" d="M452.94,-71.7C457.21,-63.4 462.4,-53.31 467.09,-44.19"/>
<polygon fill="black" stroke="black" points="470.28,-45.64 471.74,-35.14 464.06,-42.44 470.28,-45.64"/>
</g>
<!-- place on 0! -->
<g id="node17" class="node">
<title>place on 0!</title>
<ellipse fill="gray" stroke="black" cx="557.04" cy="-18" rx="32.16" ry="18"/>
<text text-anchor="middle" x="557.04" y="-15.8" font-family="Times,serif" font-size="9.00">place on 0!</text>
</g>
<!-- Sequence***&#45;&gt;place on 0! -->
<g id="edge16" class="edge">
<title>Sequence***&#45;&gt;place on 0!</title>
<path fill="none" stroke="black" d="M466.91,-74.83C484.39,-64.01 508.63,-48.99 527.57,-37.26"/>
<polygon fill="black" stroke="black" points="529.46,-40.21 536.12,-31.96 525.77,-34.25 529.46,-40.21"/>
</g>
<!-- 2 on 1? -->
<g id="node22" class="node">
<title>2 on 1?</title>
<ellipse fill="gray" stroke="black" cx="749.04" cy="-234" rx="27" ry="18"/>
<text text-anchor="middle" x="749.04" y="-231.8" font-family="Times,serif" font-size="9.00">2 on 1?</text>
</g>
<!-- Fallback****&#45;&gt;2 on 1? -->
<g id="edge21" class="edge">
<title>Fallback****&#45;&gt;2 on 1?</title>
<path fill="none" stroke="black" d="M692.96,-288.05C703.01,-278.55 715.65,-266.59 726.38,-256.44"/>
<polygon fill="black" stroke="black" points="728.94,-258.84 733.8,-249.42 724.13,-253.75 728.94,-258.84"/>
</g>
<!-- Sequence**** -->
<g id="node23" class="node">
<title>Sequence****</title>
<polygon fill="cyan" stroke="black" points="878.53,-226.54 878.53,-241.46 853.64,-252 818.44,-252 793.56,-241.46 793.56,-226.54 818.44,-216 853.64,-216 878.53,-226.54"/>
<text text-anchor="middle" x="836.04" y="-231.8" font-family="Times,serif" font-size="9.00">Sequence****</text>
</g>
<!-- Fallback****&#45;&gt;Sequence**** -->
<g id="edge22" class="edge">
<title>Fallback****&#45;&gt;Sequence****</title>
<path fill="none" stroke="black" d="M703.09,-292.81C729.39,-281.37 768.94,-264.18 798.07,-251.51"/>
<polygon fill="black" stroke="black" points="799.73,-254.6 807.51,-247.41 796.94,-248.18 799.73,-254.6"/>
</g>
<!-- pick 2! -->
<g id="node24" class="node">
<title>pick 2!</title>
<ellipse fill="gray" stroke="black" cx="797.04" cy="-162" rx="27" ry="18"/>
<text text-anchor="middle" x="797.04" y="-159.8" font-family="Times,serif" font-size="9.00">pick 2!</text>
</g>
<!-- Sequence****&#45;&gt;pick 2! -->
<g id="edge23" class="edge">
<title>Sequence****&#45;&gt;pick 2!</title>
<path fill="none" stroke="black" d="M826.4,-215.7C821.73,-207.32 816.04,-197.1 810.92,-187.9"/>
<polygon fill="black" stroke="black" points="813.96,-186.18 806.04,-179.14 807.85,-189.58 813.96,-186.18"/>
</g>
<!-- place on 1! -->
<g id="node25" class="node">
<title>place on 1!</title>
<ellipse fill="gray" stroke="black" cx="874.04" cy="-162" rx="32.16" ry="18"/>
<text text-anchor="middle" x="874.04" y="-159.8" font-family="Times,serif" font-size="9.00">place on 1!</text>
</g>
<!-- Sequence****&#45;&gt;place on 1! -->
<g id="edge24" class="edge">
<title>Sequence****&#45;&gt;place on 1!</title>
<path fill="none" stroke="black" d="M845.44,-215.7C849.87,-207.52 855.26,-197.6 860.16,-188.58"/>
<polygon fill="black" stroke="black" points="863.33,-190.08 865.02,-179.62 857.17,-186.74 863.33,-190.08"/>
</g>
</g>
</svg>
