<?xml version="1.0" encoding="UTF-8" standalone="no"?>
<!DOCTYPE svg PUBLIC "-//W3C//DTD SVG 1.1//EN"
 "http://www.w3.org/Graphics/SVG/1.1/DTD/svg11.dtd">
<!-- Generated by graphviz version 2.43.0 (0)
 -->
<!-- Title: pastafarianism Pages: 1 -->
<svg width="1043pt" height="260pt"
 viewBox="0.00 0.00 1043.38 260.00" xmlns="http://www.w3.org/2000/svg" xmlns:xlink="http://www.w3.org/1999/xlink">
<g id="graph0" class="graph" transform="scale(1 1) rotate(0) translate(4 256)">
<title>pastafarianism</title>
<polygon fill="white" stroke="transparent" points="-4,4 -4,-256 1039.38,-256 1039.38,4 -4,4"/>
<!-- Sequence -->
<g id="node1" class="node">
<title>Sequence</title>
<polygon fill="cyan" stroke="black" points="694.54,-226.54 694.54,-241.46 676.09,-252 650,-252 631.55,-241.46 631.55,-226.54 650,-216 676.09,-216 694.54,-226.54"/>
<text text-anchor="middle" x="663.04" y="-231.8" font-family="Times,serif" font-size="9.00">Sequence</text>
</g>
<!-- Fallback -->
<g id="node2" class="node">
<title>Fallback</title>
<polygon fill="cyan" stroke="black" points="201.29,-154.54 201.29,-169.46 184.16,-180 159.93,-180 142.8,-169.46 142.8,-154.54 159.93,-144 184.16,-144 201.29,-154.54"/>
<text text-anchor="middle" x="172.04" y="-159.8" font-family="Times,serif" font-size="9.00">Fallback</text>
</g>
<!-- Sequence&#45;&gt;Fallback -->
<g id="edge1" class="edge">
<title>Sequence&#45;&gt;Fallback</title>
<path fill="none" stroke="black" d="M631.58,-228.51C545.49,-216.24 306.16,-182.12 211.4,-168.61"/>
<polygon fill="black" stroke="black" points="211.76,-165.13 201.37,-167.18 210.78,-172.06 211.76,-165.13"/>
</g>
<!-- Fallback* -->
<g id="node7" class="node">
<title>Fallback*</title>
<polygon fill="cyan" stroke="black" points="652.79,-154.54 652.79,-169.46 634.19,-180 607.9,-180 589.3,-169.46 589.3,-154.54 607.9,-144 634.19,-144 652.79,-154.54"/>
<text text-anchor="middle" x="621.04" y="-159.8" font-family="Times,serif" font-size="9.00">Fallback*</text>
</g>
<!-- Sequence&#45;&gt;Fallback* -->
<g id="edge6" class="edge">
<title>Sequence&#45;&gt;Fallback*</title>
<path fill="none" stroke="black" d="M652.66,-215.7C647.78,-207.56 641.86,-197.69 636.47,-188.7"/>
<polygon fill="black" stroke="black" points="639.45,-186.88 631.31,-180.1 633.45,-190.48 639.45,-186.88"/>
</g>
<!-- Fallback** -->
<g id="node18" class="node">
<title>Fallback**</title>
<polygon fill="cyan" stroke="black" points="806.04,-154.54 806.04,-169.46 785.54,-180 756.55,-180 736.05,-169.46 736.05,-154.54 756.55,-144 785.54,-144 806.04,-154.54"/>
<text text-anchor="middle" x="771.04" y="-159.8" font-family="Times,serif" font-size="9.00">Fallback**</text>
</g>
<!-- Sequence&#45;&gt;Fallback** -->
<g id="edge17" class="edge">
<title>Sequence&#45;&gt;Fallback**</title>
<path fill="none" stroke="black" d="M683.11,-220C699.54,-209.35 723.02,-194.13 741.58,-182.1"/>
<polygon fill="black" stroke="black" points="743.5,-185.03 749.98,-176.65 739.69,-179.15 743.5,-185.03"/>
</g>
<!-- apply force 2! -->
<g id="node23" class="node">
<title>apply force 2!</title>
<ellipse fill="gray" stroke="black" cx="862.04" cy="-162" rx="38.21" ry="18"/>
<text text-anchor="middle" x="862.04" y="-159.8" font-family="Times,serif" font-size="9.00">apply force 2!</text>
</g>
<!-- Sequence&#45;&gt;apply force 2! -->
<g id="edge22" class="edge">
<title>Sequence&#45;&gt;apply force 2!</title>
<path fill="none" stroke="black" d="M689.99,-223.71C720.39,-213.2 771.33,-195.53 815.04,-180 817.73,-179.05 820.49,-178.06 823.28,-177.06"/>
<polygon fill="black" stroke="black" points="824.5,-180.34 832.73,-173.66 822.13,-173.75 824.5,-180.34"/>
</g>
<!-- 0 at pos (0.0, 0.05, 0.0)? -->
<g id="node3" class="node">
<title>0 at pos (0.0, 0.05, 0.0)?</title>
<ellipse fill="gray" stroke="black" cx="60.04" cy="-90" rx="60.09" ry="18"/>
<text text-anchor="middle" x="60.04" y="-87.8" font-family="Times,serif" font-size="9.00">0 at pos (0.0, 0.05, 0.0)?</text>
</g>
<!-- Fallback&#45;&gt;0 at pos (0.0, 0.05, 0.0)? -->
<g id="edge2" class="edge">
<title>Fallback&#45;&gt;0 at pos (0.0, 0.05, 0.0)?</title>
<path fill="none" stroke="black" d="M152.28,-148.65C136.12,-138.55 112.92,-124.05 93.82,-112.11"/>
<polygon fill="black" stroke="black" points="95.44,-109 85.11,-106.66 91.73,-114.93 95.44,-109"/>
</g>
<!-- Sequence* -->
<g id="node4" class="node">
<title>Sequence*</title>
<polygon fill="cyan" stroke="black" points="206.29,-82.54 206.29,-97.46 186.23,-108 157.86,-108 137.8,-97.46 137.8,-82.54 157.86,-72 186.23,-72 206.29,-82.54"/>
<text text-anchor="middle" x="172.04" y="-87.8" font-family="Times,serif" font-size="9.00">Sequence*</text>
</g>
<!-- Fallback&#45;&gt;Sequence* -->
<g id="edge3" class="edge">
<title>Fallback&#45;&gt;Sequence*</title>
<path fill="none" stroke="black" d="M172.04,-143.7C172.04,-135.98 172.04,-126.71 172.04,-118.11"/>
<polygon fill="black" stroke="black" points="175.54,-118.1 172.04,-108.1 168.54,-118.1 175.54,-118.1"/>
</g>
<!-- pick 0! -->
<g id="node5" class="node">
<title>pick 0!</title>
<ellipse fill="gray" stroke="black" cx="69.04" cy="-18" rx="27" ry="18"/>
<text text-anchor="middle" x="69.04" y="-15.8" font-family="Times,serif" font-size="9.00">pick 0!</text>
</g>
<!-- Sequence*&#45;&gt;pick 0! -->
<g id="edge4" class="edge">
<title>Sequence*&#45;&gt;pick 0!</title>
<path fill="none" stroke="black" d="M151.69,-75.17C135.72,-64.31 113.34,-49.1 95.89,-37.25"/>
<polygon fill="black" stroke="black" points="97.52,-34.12 87.28,-31.39 93.58,-39.91 97.52,-34.12"/>
</g>
<!-- place at (0.0, 0.05, 0.0)! -->
<g id="node6" class="node">
<title>place at (0.0, 0.05, 0.0)!</title>
<ellipse fill="gray" stroke="black" cx="172.04" cy="-18" rx="58.13" ry="18"/>
<text text-anchor="middle" x="172.04" y="-15.8" font-family="Times,serif" font-size="9.00">place at (0.0, 0.05, 0.0)!</text>
</g>
<!-- Sequence*&#45;&gt;place at (0.0, 0.05, 0.0)! -->
<g id="edge5" class="edge">
<title>Sequence*&#45;&gt;place at (0.0, 0.05, 0.0)!</title>
<path fill="none" stroke="black" d="M172.04,-71.7C172.04,-63.98 172.04,-54.71 172.04,-46.11"/>
<polygon fill="black" stroke="black" points="175.54,-46.1 172.04,-36.1 168.54,-46.1 175.54,-46.1"/>
</g>
<!-- 1 at pos (0.0, 0.05, 0.0192)? -->
<g id="node8" class="node">
<title>1 at pos (0.0, 0.05, 0.0192)?</title>
<ellipse fill="gray" stroke="black" cx="467.04" cy="-90" rx="67.6" ry="18"/>
<text text-anchor="middle" x="467.04" y="-87.8" font-family="Times,serif" font-size="9.00">1 at pos (0.0, 0.05, 0.0192)?</text>
</g>
<!-- Fallback*&#45;&gt;1 at pos (0.0, 0.05, 0.0192)? -->
<g id="edge7" class="edge">
<title>Fallback*&#45;&gt;1 at pos (0.0, 0.05, 0.0192)?</title>
<path fill="none" stroke="black" d="M596.98,-150.06C573.5,-139.39 537.28,-122.92 509.04,-110.09"/>
<polygon fill="black" stroke="black" points="510.35,-106.84 499.8,-105.89 507.45,-113.21 510.35,-106.84"/>
</g>
<!-- Sequence** -->
<g id="node9" class="node">
<title>Sequence**</title>
<polygon fill="cyan" stroke="black" points="625.79,-82.54 625.79,-97.46 604.26,-108 573.83,-108 552.3,-97.46 552.3,-82.54 573.83,-72 604.26,-72 625.79,-82.54"/>
<text text-anchor="middle" x="589.04" y="-87.8" font-family="Times,serif" font-size="9.00">Sequence**</text>
</g>
<!-- Fallback*&#45;&gt;Sequence** -->
<g id="edge8" class="edge">
<title>Fallback*&#45;&gt;Sequence**</title>
<path fill="none" stroke="black" d="M613.13,-143.7C609.49,-135.73 605.09,-126.1 601.05,-117.26"/>
<polygon fill="black" stroke="black" points="604.2,-115.74 596.86,-108.1 597.84,-118.65 604.2,-115.74"/>
</g>
<!-- Sequence*** -->
<g id="node15" class="node">
<title>Sequence***</title>
<polygon fill="cyan" stroke="black" points="759.03,-82.54 759.03,-97.46 735.61,-108 702.48,-108 679.05,-97.46 679.05,-82.54 702.48,-72 735.61,-72 759.03,-82.54"/>
<text text-anchor="middle" x="719.04" y="-87.8" font-family="Times,serif" font-size="9.00">Sequence***</text>
</g>
<!-- Fallback*&#45;&gt;Sequence*** -->
<g id="edge14" class="edge">
<title>Fallback*&#45;&gt;Sequence***</title>
<path fill="none" stroke="black" d="M640.41,-147.17C654.43,-137.15 673.65,-123.43 689.57,-112.05"/>
<polygon fill="black" stroke="black" points="691.92,-114.67 698.03,-106.01 687.85,-108.98 691.92,-114.67"/>
</g>
<!-- 1 at pos (0.0, 0.05, 0.0192)?* -->
<g id="node10" class="node">
<title>1 at pos (0.0, 0.05, 0.0192)?*</title>
<ellipse fill="gray" stroke="black" cx="319.04" cy="-18" rx="70.37" ry="18"/>
<text text-anchor="middle" x="319.04" y="-15.8" font-family="Times,serif" font-size="9.00">1 at pos (0.0, 0.05, 0.0192)?*</text>
</g>
<!-- Sequence**&#45;&gt;1 at pos (0.0, 0.05, 0.0192)?* -->
<g id="edge9" class="edge">
<title>Sequence**&#45;&gt;1 at pos (0.0, 0.05, 0.0192)?*</title>
<path fill="none" stroke="black" d="M561.15,-77.82C555.53,-75.75 549.64,-73.71 544.04,-72 513.9,-62.8 436.05,-44.94 380.37,-32.51"/>
<polygon fill="black" stroke="black" points="381.12,-29.09 370.6,-30.33 379.6,-35.92 381.12,-29.09"/>
</g>
<!-- 2 on 0? -->
<g id="node11" class="node">
<title>2 on 0?</title>
<ellipse fill="gray" stroke="black" cx="434.04" cy="-18" rx="27" ry="18"/>
<text text-anchor="middle" x="434.04" y="-15.8" font-family="Times,serif" font-size="9.00">2 on 0?</text>
</g>
<!-- Sequence**&#45;&gt;2 on 0? -->
<g id="edge10" class="edge">
<title>Sequence**&#45;&gt;2 on 0?</title>
<path fill="none" stroke="black" d="M562.5,-77.38C538.33,-66.75 501.7,-50.52 470.04,-36 468.25,-35.18 466.42,-34.33 464.56,-33.47"/>
<polygon fill="black" stroke="black" points="465.87,-30.22 455.33,-29.15 462.9,-36.56 465.87,-30.22"/>
</g>
<!-- 1 on 0? -->
<g id="node12" class="node">
<title>1 on 0?</title>
<ellipse fill="gray" stroke="black" cx="506.04" cy="-18" rx="27" ry="18"/>
<text text-anchor="middle" x="506.04" y="-15.8" font-family="Times,serif" font-size="9.00">1 on 0?</text>
</g>
<!-- Sequence**&#45;&gt;1 on 0? -->
<g id="edge11" class="edge">
<title>Sequence**&#45;&gt;1 on 0?</title>
<path fill="none" stroke="black" d="M570.62,-73.46C558.6,-63.32 542.79,-49.99 529.82,-39.05"/>
<polygon fill="black" stroke="black" points="532.07,-36.37 522.17,-32.6 527.56,-41.72 532.07,-36.37"/>
</g>
<!-- apply force 1! -->
<g id="node13" class="node">
<title>apply force 1!</title>
<ellipse fill="gray" stroke="black" cx="589.04" cy="-18" rx="38.21" ry="18"/>
<text text-anchor="middle" x="589.04" y="-15.8" font-family="Times,serif" font-size="9.00">apply force 1!</text>
</g>
<!-- Sequence**&#45;&gt;apply force 1! -->
<g id="edge12" class="edge">
<title>Sequence**&#45;&gt;apply force 1!</title>
<path fill="none" stroke="black" d="M589.04,-71.7C589.04,-63.98 589.04,-54.71 589.04,-46.11"/>
<polygon fill="black" stroke="black" points="592.54,-46.1 589.04,-36.1 585.54,-46.1 592.54,-46.1"/>
</g>
<!-- apply force 1!* -->
<g id="node14" class="node">
<title>apply force 1!*</title>
<ellipse fill="gray" stroke="black" cx="686.04" cy="-18" rx="40.98" ry="18"/>
<text text-anchor="middle" x="686.04" y="-15.8" font-family="Times,serif" font-size="9.00">apply force 1!*</text>
</g>
<!-- Sequence**&#45;&gt;apply force 1!* -->
<g id="edge13" class="edge">
<title>Sequence**&#45;&gt;apply force 1!*</title>
<path fill="none" stroke="black" d="M609.62,-74.15C623.5,-64.13 642.03,-50.76 657.36,-39.7"/>
<polygon fill="black" stroke="black" points="659.44,-42.51 665.5,-33.82 655.35,-36.84 659.44,-42.51"/>
</g>
<!-- pick 1! -->
<g id="node16" class="node">
<title>pick 1!</title>
<ellipse fill="gray" stroke="black" cx="772.04" cy="-18" rx="27" ry="18"/>
<text text-anchor="middle" x="772.04" y="-15.8" font-family="Times,serif" font-size="9.00">pick 1!</text>
</g>
<!-- Sequence***&#45;&gt;pick 1! -->
<g id="edge15" class="edge">
<title>Sequence***&#45;&gt;pick 1!</title>
<path fill="none" stroke="black" d="M732.15,-71.7C738.72,-63.02 746.78,-52.37 753.93,-42.92"/>
<polygon fill="black" stroke="black" points="756.93,-44.76 760.18,-34.67 751.35,-40.53 756.93,-44.76"/>
</g>
<!-- place on 0! -->
<g id="node17" class="node">
<title>place on 0!</title>
<ellipse fill="gray" stroke="black" cx="849.04" cy="-18" rx="32.16" ry="18"/>
<text text-anchor="middle" x="849.04" y="-15.8" font-family="Times,serif" font-size="9.00">place on 0!</text>
</g>
<!-- Sequence***&#45;&gt;place on 0! -->
<g id="edge16" class="edge">
<title>Sequence***&#45;&gt;place on 0!</title>
<path fill="none" stroke="black" d="M743.8,-75.67C764.78,-64.37 794.98,-48.11 817.65,-35.9"/>
<polygon fill="black" stroke="black" points="819.41,-38.93 826.55,-31.11 816.09,-32.77 819.41,-38.93"/>
</g>
<!-- 2 on 1? -->
<g id="node19" class="node">
<title>2 on 1?</title>
<ellipse fill="gray" stroke="black" cx="804.04" cy="-90" rx="27" ry="18"/>
<text text-anchor="middle" x="804.04" y="-87.8" font-family="Times,serif" font-size="9.00">2 on 1?</text>
</g>
<!-- Fallback**&#45;&gt;2 on 1? -->
<g id="edge18" class="edge">
<title>Fallback**&#45;&gt;2 on 1?</title>
<path fill="none" stroke="black" d="M779.2,-143.7C783.01,-135.61 787.63,-125.81 791.85,-116.87"/>
<polygon fill="black" stroke="black" points="795.11,-118.16 796.21,-107.62 788.78,-115.18 795.11,-118.16"/>
</g>
<!-- Sequence**** -->
<g id="node20" class="node">
<title>Sequence****</title>
<polygon fill="cyan" stroke="black" points="968.53,-82.54 968.53,-97.46 943.64,-108 908.44,-108 883.56,-97.46 883.56,-82.54 908.44,-72 943.64,-72 968.53,-82.54"/>
<text text-anchor="middle" x="926.04" y="-87.8" font-family="Times,serif" font-size="9.00">Sequence****</text>
</g>
<!-- Fallback**&#45;&gt;Sequence**** -->
<g id="edge19" class="edge">
<title>Fallback**&#45;&gt;Sequence****</title>
<path fill="none" stroke="black" d="M796.64,-149.44C821.75,-138.1 860.3,-120.69 888.8,-107.82"/>
<polygon fill="black" stroke="black" points="890.38,-110.95 898.05,-103.64 887.5,-104.57 890.38,-110.95"/>
</g>
<!-- pick 2! -->
<g id="node21" class="node">
<title>pick 2!</title>
<ellipse fill="gray" stroke="black" cx="926.04" cy="-18" rx="27" ry="18"/>
<text text-anchor="middle" x="926.04" y="-15.8" font-family="Times,serif" font-size="9.00">pick 2!</text>
</g>
<!-- Sequence****&#45;&gt;pick 2! -->
<g id="edge20" class="edge">
<title>Sequence****&#45;&gt;pick 2!</title>
<path fill="none" stroke="black" d="M926.04,-71.7C926.04,-63.98 926.04,-54.71 926.04,-46.11"/>
<polygon fill="black" stroke="black" points="929.54,-46.1 926.04,-36.1 922.54,-46.1 929.54,-46.1"/>
</g>
<!-- place on 1! -->
<g id="node22" class="node">
<title>place on 1!</title>
<ellipse fill="gray" stroke="black" cx="1003.04" cy="-18" rx="32.16" ry="18"/>
<text text-anchor="middle" x="1003.04" y="-15.8" font-family="Times,serif" font-size="9.00">place on 1!</text>
</g>
<!-- Sequence****&#45;&gt;place on 1! -->
<g id="edge21" class="edge">
<title>Sequence****&#45;&gt;place on 1!</title>
<path fill="none" stroke="black" d="M944.68,-72.05C955.07,-62.61 968.11,-50.76 979.23,-40.65"/>
<polygon fill="black" stroke="black" points="981.88,-42.97 986.92,-33.66 977.17,-37.79 981.88,-42.97"/>
</g>
</g>
</svg>
