<?xml version="1.0" encoding="UTF-8" standalone="no"?>
<!DOCTYPE svg PUBLIC "-//W3C//DTD SVG 1.1//EN"
 "http://www.w3.org/Graphics/SVG/1.1/DTD/svg11.dtd">
<!-- Generated by graphviz version 2.43.0 (0)
 -->
<!-- Title: pastafarianism Pages: 1 -->
<svg width="706pt" height="404pt"
 viewBox="0.00 0.00 706.38 404.00" xmlns="http://www.w3.org/2000/svg" xmlns:xlink="http://www.w3.org/1999/xlink">
<g id="graph0" class="graph" transform="scale(1 1) rotate(0) translate(4 400)">
<title>pastafarianism</title>
<polygon fill="white" stroke="transparent" points="-4,4 -4,-400 702.38,-400 702.38,4 -4,4"/>
<!-- Sequence -->
<g id="node1" class="node">
<title>Sequence</title>
<polygon fill="cyan" stroke="black" points="485.54,-370.54 485.54,-385.46 467.09,-396 441,-396 422.55,-385.46 422.55,-370.54 441,-360 467.09,-360 485.54,-370.54"/>
<text text-anchor="middle" x="454.04" y="-375.8" font-family="Times,serif" font-size="9.00">Sequence</text>
</g>
<!-- Fallback -->
<g id="node2" class="node">
<title>Fallback</title>
<polygon fill="cyan" stroke="black" points="201.29,-298.54 201.29,-313.46 184.16,-324 159.93,-324 142.8,-313.46 142.8,-298.54 159.93,-288 184.16,-288 201.29,-298.54"/>
<text text-anchor="middle" x="172.04" y="-303.8" font-family="Times,serif" font-size="9.00">Fallback</text>
</g>
<!-- Sequence&#45;&gt;Fallback -->
<g id="edge1" class="edge">
<title>Sequence&#45;&gt;Fallback</title>
<path fill="none" stroke="black" d="M424.13,-369.58C372.62,-356.79 267.25,-330.63 210.41,-316.52"/>
<polygon fill="black" stroke="black" points="210.94,-313.05 200.39,-314.04 209.25,-319.84 210.94,-313.05"/>
</g>
<!-- Fallback* -->
<g id="node7" class="node">
<title>Fallback*</title>
<polygon fill="cyan" stroke="black" points="440.79,-298.54 440.79,-313.46 422.19,-324 395.9,-324 377.3,-313.46 377.3,-298.54 395.9,-288 422.19,-288 440.79,-298.54"/>
<text text-anchor="middle" x="409.04" y="-303.8" font-family="Times,serif" font-size="9.00">Fallback*</text>
</g>
<!-- Sequence&#45;&gt;Fallback* -->
<g id="edge6" class="edge">
<title>Sequence&#45;&gt;Fallback*</title>
<path fill="none" stroke="black" d="M442.92,-359.7C437.69,-351.56 431.34,-341.69 425.57,-332.7"/>
<polygon fill="black" stroke="black" points="428.39,-330.62 420.04,-324.1 422.5,-334.41 428.39,-330.62"/>
</g>
<!-- Fallback**** -->
<g id="node19" class="node">
<title>Fallback****</title>
<polygon fill="cyan" stroke="black" points="539.78,-298.54 539.78,-313.46 515.92,-324 482.17,-324 458.3,-313.46 458.3,-298.54 482.17,-288 515.92,-288 539.78,-298.54"/>
<text text-anchor="middle" x="499.04" y="-303.8" font-family="Times,serif" font-size="9.00">Fallback****</text>
</g>
<!-- Sequence&#45;&gt;Fallback**** -->
<g id="edge18" class="edge">
<title>Sequence&#45;&gt;Fallback****</title>
<path fill="none" stroke="black" d="M465.17,-359.7C470.4,-351.56 476.74,-341.69 482.52,-332.7"/>
<polygon fill="black" stroke="black" points="485.59,-334.41 488.05,-324.1 479.7,-330.62 485.59,-334.41"/>
</g>
<!-- apply force 2!* -->
<g id="node24" class="node">
<title>apply force 2!*</title>
<ellipse fill="gray" stroke="black" cx="599.04" cy="-306" rx="40.98" ry="18"/>
<text text-anchor="middle" x="599.04" y="-303.8" font-family="Times,serif" font-size="9.00">apply force 2!*</text>
</g>
<!-- Sequence&#45;&gt;apply force 2!* -->
<g id="edge23" class="edge">
<title>Sequence&#45;&gt;apply force 2!*</title>
<path fill="none" stroke="black" d="M477.34,-365.75C500.61,-354.52 536.7,-337.1 563.54,-324.14"/>
<polygon fill="black" stroke="black" points="565.13,-327.26 572.61,-319.76 562.08,-320.96 565.13,-327.26"/>
</g>
<!-- 0 at pos (0.0, 0.05, 0.0)? -->
<g id="node3" class="node">
<title>0 at pos (0.0, 0.05, 0.0)?</title>
<ellipse fill="gray" stroke="black" cx="60.04" cy="-234" rx="60.09" ry="18"/>
<text text-anchor="middle" x="60.04" y="-231.8" font-family="Times,serif" font-size="9.00">0 at pos (0.0, 0.05, 0.0)?</text>
</g>
<!-- Fallback&#45;&gt;0 at pos (0.0, 0.05, 0.0)? -->
<g id="edge2" class="edge">
<title>Fallback&#45;&gt;0 at pos (0.0, 0.05, 0.0)?</title>
<path fill="none" stroke="black" d="M152.28,-292.65C136.12,-282.55 112.92,-268.05 93.82,-256.11"/>
<polygon fill="black" stroke="black" points="95.44,-253 85.11,-250.66 91.73,-258.93 95.44,-253"/>
</g>
<!-- Sequence* -->
<g id="node4" class="node">
<title>Sequence*</title>
<polygon fill="cyan" stroke="black" points="206.29,-226.54 206.29,-241.46 186.23,-252 157.86,-252 137.8,-241.46 137.8,-226.54 157.86,-216 186.23,-216 206.29,-226.54"/>
<text text-anchor="middle" x="172.04" y="-231.8" font-family="Times,serif" font-size="9.00">Sequence*</text>
</g>
<!-- Fallback&#45;&gt;Sequence* -->
<g id="edge3" class="edge">
<title>Fallback&#45;&gt;Sequence*</title>
<path fill="none" stroke="black" d="M172.04,-287.7C172.04,-279.98 172.04,-270.71 172.04,-262.11"/>
<polygon fill="black" stroke="black" points="175.54,-262.1 172.04,-252.1 168.54,-262.1 175.54,-262.1"/>
</g>
<!-- pick 0! -->
<g id="node5" class="node">
<title>pick 0!</title>
<ellipse fill="gray" stroke="black" cx="88.04" cy="-162" rx="27" ry="18"/>
<text text-anchor="middle" x="88.04" y="-159.8" font-family="Times,serif" font-size="9.00">pick 0!</text>
</g>
<!-- Sequence*&#45;&gt;pick 0! -->
<g id="edge4" class="edge">
<title>Sequence*&#45;&gt;pick 0!</title>
<path fill="none" stroke="black" d="M153.82,-217.81C141.59,-207.62 125.35,-194.09 112.07,-183.02"/>
<polygon fill="black" stroke="black" points="114.17,-180.22 104.25,-176.5 109.69,-185.59 114.17,-180.22"/>
</g>
<!-- place at (0.0, 0.05, 0.0)! -->
<g id="node6" class="node">
<title>place at (0.0, 0.05, 0.0)!</title>
<ellipse fill="gray" stroke="black" cx="191.04" cy="-162" rx="58.13" ry="18"/>
<text text-anchor="middle" x="191.04" y="-159.8" font-family="Times,serif" font-size="9.00">place at (0.0, 0.05, 0.0)!</text>
</g>
<!-- Sequence*&#45;&gt;place at (0.0, 0.05, 0.0)! -->
<g id="edge5" class="edge">
<title>Sequence*&#45;&gt;place at (0.0, 0.05, 0.0)!</title>
<path fill="none" stroke="black" d="M176.74,-215.7C178.86,-207.9 181.41,-198.51 183.76,-189.83"/>
<polygon fill="black" stroke="black" points="187.16,-190.67 186.4,-180.1 180.4,-188.84 187.16,-190.67"/>
</g>
<!-- 1 at pos (0.0, 0.05, 0.0192)? -->
<g id="node8" class="node">
<title>1 at pos (0.0, 0.05, 0.0192)?</title>
<ellipse fill="gray" stroke="black" cx="292.04" cy="-234" rx="67.6" ry="18"/>
<text text-anchor="middle" x="292.04" y="-231.8" font-family="Times,serif" font-size="9.00">1 at pos (0.0, 0.05, 0.0192)?</text>
</g>
<!-- Fallback*&#45;&gt;1 at pos (0.0, 0.05, 0.0192)? -->
<g id="edge7" class="edge">
<title>Fallback*&#45;&gt;1 at pos (0.0, 0.05, 0.0192)?</title>
<path fill="none" stroke="black" d="M387.86,-292.32C370.95,-282.21 346.92,-267.83 327.15,-256"/>
<polygon fill="black" stroke="black" points="328.78,-252.9 318.41,-250.77 325.19,-258.91 328.78,-252.9"/>
</g>
<!-- Sequence** -->
<g id="node9" class="node">
<title>Sequence**</title>
<polygon fill="cyan" stroke="black" points="450.79,-226.54 450.79,-241.46 429.26,-252 398.83,-252 377.3,-241.46 377.3,-226.54 398.83,-216 429.26,-216 450.79,-226.54"/>
<text text-anchor="middle" x="414.04" y="-231.8" font-family="Times,serif" font-size="9.00">Sequence**</text>
</g>
<!-- Fallback*&#45;&gt;Sequence** -->
<g id="edge8" class="edge">
<title>Fallback*&#45;&gt;Sequence**</title>
<path fill="none" stroke="black" d="M410.28,-287.7C410.83,-279.98 411.49,-270.71 412.11,-262.11"/>
<polygon fill="black" stroke="black" points="415.6,-262.33 412.82,-252.1 408.62,-261.83 415.6,-262.33"/>
</g>
<!-- Fallback** -->
<g id="node10" class="node">
<title>Fallback**</title>
<polygon fill="cyan" stroke="black" points="357.04,-154.54 357.04,-169.46 336.54,-180 307.55,-180 287.05,-169.46 287.05,-154.54 307.55,-144 336.54,-144 357.04,-154.54"/>
<text text-anchor="middle" x="322.04" y="-159.8" font-family="Times,serif" font-size="9.00">Fallback**</text>
</g>
<!-- Sequence**&#45;&gt;Fallback** -->
<g id="edge9" class="edge">
<title>Sequence**&#45;&gt;Fallback**</title>
<path fill="none" stroke="black" d="M394.08,-217.81C381.01,-207.86 363.74,-194.73 349.4,-183.81"/>
<polygon fill="black" stroke="black" points="351.42,-180.95 341.34,-177.68 347.18,-186.52 351.42,-180.95"/>
</g>
<!-- Fallback*** -->
<g id="node13" class="node">
<title>Fallback***</title>
<polygon fill="cyan" stroke="black" points="449.53,-154.54 449.53,-169.46 427.57,-180 396.52,-180 374.55,-169.46 374.55,-154.54 396.52,-144 427.57,-144 449.53,-154.54"/>
<text text-anchor="middle" x="412.04" y="-159.8" font-family="Times,serif" font-size="9.00">Fallback***</text>
</g>
<!-- Sequence**&#45;&gt;Fallback*** -->
<g id="edge12" class="edge">
<title>Sequence**&#45;&gt;Fallback***</title>
<path fill="none" stroke="black" d="M413.55,-215.7C413.33,-207.98 413.06,-198.71 412.82,-190.11"/>
<polygon fill="black" stroke="black" points="416.32,-190 412.53,-180.1 409.32,-190.2 416.32,-190"/>
</g>
<!-- apply force 1! -->
<g id="node18" class="node">
<title>apply force 1!</title>
<ellipse fill="gray" stroke="black" cx="506.04" cy="-162" rx="38.21" ry="18"/>
<text text-anchor="middle" x="506.04" y="-159.8" font-family="Times,serif" font-size="9.00">apply force 1!</text>
</g>
<!-- Sequence**&#45;&gt;apply force 1! -->
<g id="edge17" class="edge">
<title>Sequence**&#45;&gt;apply force 1!</title>
<path fill="none" stroke="black" d="M434.01,-217.81C447.08,-207.86 464.35,-194.73 478.69,-183.81"/>
<polygon fill="black" stroke="black" points="480.91,-186.52 486.75,-177.68 476.67,-180.95 480.91,-186.52"/>
</g>
<!-- 2 on 1? -->
<g id="node11" class="node">
<title>2 on 1?</title>
<ellipse fill="gray" stroke="black" cx="241.04" cy="-90" rx="27" ry="18"/>
<text text-anchor="middle" x="241.04" y="-87.8" font-family="Times,serif" font-size="9.00">2 on 1?</text>
</g>
<!-- Fallback**&#45;&gt;2 on 1? -->
<g id="edge10" class="edge">
<title>Fallback**&#45;&gt;2 on 1?</title>
<path fill="none" stroke="black" d="M304.07,-145.46C292.52,-135.49 277.39,-122.41 264.85,-111.58"/>
<polygon fill="black" stroke="black" points="266.91,-108.72 257.05,-104.83 262.33,-114.02 266.91,-108.72"/>
</g>
<!-- apply force 2! -->
<g id="node12" class="node">
<title>apply force 2!</title>
<ellipse fill="gray" stroke="black" cx="324.04" cy="-90" rx="38.21" ry="18"/>
<text text-anchor="middle" x="324.04" y="-87.8" font-family="Times,serif" font-size="9.00">apply force 2!</text>
</g>
<!-- Fallback**&#45;&gt;apply force 2! -->
<g id="edge11" class="edge">
<title>Fallback**&#45;&gt;apply force 2!</title>
<path fill="none" stroke="black" d="M322.54,-143.7C322.76,-135.98 323.02,-126.71 323.27,-118.11"/>
<polygon fill="black" stroke="black" points="326.77,-118.2 323.56,-108.1 319.77,-118 326.77,-118.2"/>
</g>
<!-- 1 on 0? -->
<g id="node14" class="node">
<title>1 on 0?</title>
<ellipse fill="gray" stroke="black" cx="410.04" cy="-90" rx="27" ry="18"/>
<text text-anchor="middle" x="410.04" y="-87.8" font-family="Times,serif" font-size="9.00">1 on 0?</text>
</g>
<!-- Fallback***&#45;&gt;1 on 0? -->
<g id="edge13" class="edge">
<title>Fallback***&#45;&gt;1 on 0?</title>
<path fill="none" stroke="black" d="M411.55,-143.7C411.33,-135.98 411.06,-126.71 410.82,-118.11"/>
<polygon fill="black" stroke="black" points="414.32,-118 410.53,-108.1 407.32,-118.2 414.32,-118"/>
</g>
<!-- Sequence*** -->
<g id="node15" class="node">
<title>Sequence***</title>
<polygon fill="cyan" stroke="black" points="535.03,-82.54 535.03,-97.46 511.61,-108 478.48,-108 455.05,-97.46 455.05,-82.54 478.48,-72 511.61,-72 535.03,-82.54"/>
<text text-anchor="middle" x="495.04" y="-87.8" font-family="Times,serif" font-size="9.00">Sequence***</text>
</g>
<!-- Fallback***&#45;&gt;Sequence*** -->
<g id="edge14" class="edge">
<title>Fallback***&#45;&gt;Sequence***</title>
<path fill="none" stroke="black" d="M430.88,-145.12C441.94,-135.78 456.11,-123.84 468.31,-113.55"/>
<polygon fill="black" stroke="black" points="470.61,-116.19 476,-107.06 466.1,-110.84 470.61,-116.19"/>
</g>
<!-- pick 1! -->
<g id="node16" class="node">
<title>pick 1!</title>
<ellipse fill="gray" stroke="black" cx="456.04" cy="-18" rx="27" ry="18"/>
<text text-anchor="middle" x="456.04" y="-15.8" font-family="Times,serif" font-size="9.00">pick 1!</text>
</g>
<!-- Sequence***&#45;&gt;pick 1! -->
<g id="edge15" class="edge">
<title>Sequence***&#45;&gt;pick 1!</title>
<path fill="none" stroke="black" d="M485.4,-71.7C480.73,-63.32 475.04,-53.1 469.92,-43.9"/>
<polygon fill="black" stroke="black" points="472.96,-42.18 465.04,-35.14 466.85,-45.58 472.96,-42.18"/>
</g>
<!-- place on 0! -->
<g id="node17" class="node">
<title>place on 0!</title>
<ellipse fill="gray" stroke="black" cx="533.04" cy="-18" rx="32.16" ry="18"/>
<text text-anchor="middle" x="533.04" y="-15.8" font-family="Times,serif" font-size="9.00">place on 0!</text>
</g>
<!-- Sequence***&#45;&gt;place on 0! -->
<g id="edge16" class="edge">
<title>Sequence***&#45;&gt;place on 0!</title>
<path fill="none" stroke="black" d="M504.44,-71.7C508.87,-63.52 514.26,-53.6 519.16,-44.58"/>
<polygon fill="black" stroke="black" points="522.33,-46.08 524.02,-35.62 516.17,-42.74 522.33,-46.08"/>
</g>
<!-- 2 on 1?* -->
<g id="node20" class="node">
<title>2 on 1?*</title>
<ellipse fill="gray" stroke="black" cx="499.04" cy="-234" rx="27.27" ry="18"/>
<text text-anchor="middle" x="499.04" y="-231.8" font-family="Times,serif" font-size="9.00">2 on 1?*</text>
</g>
<!-- Fallback****&#45;&gt;2 on 1?* -->
<g id="edge19" class="edge">
<title>Fallback****&#45;&gt;2 on 1?*</title>
<path fill="none" stroke="black" d="M499.04,-287.7C499.04,-279.98 499.04,-270.71 499.04,-262.11"/>
<polygon fill="black" stroke="black" points="502.54,-262.1 499.04,-252.1 495.54,-262.1 502.54,-262.1"/>
</g>
<!-- Sequence**** -->
<g id="node21" class="node">
<title>Sequence****</title>
<polygon fill="cyan" stroke="black" points="631.53,-226.54 631.53,-241.46 606.64,-252 571.44,-252 546.56,-241.46 546.56,-226.54 571.44,-216 606.64,-216 631.53,-226.54"/>
<text text-anchor="middle" x="589.04" y="-231.8" font-family="Times,serif" font-size="9.00">Sequence****</text>
</g>
<!-- Fallback****&#45;&gt;Sequence**** -->
<g id="edge20" class="edge">
<title>Fallback****&#45;&gt;Sequence****</title>
<path fill="none" stroke="black" d="M519.47,-289.12C531.58,-279.7 547.12,-267.61 560.44,-257.25"/>
<polygon fill="black" stroke="black" points="562.65,-259.97 568.39,-251.06 558.35,-254.44 562.65,-259.97"/>
</g>
<!-- pick 2! -->
<g id="node22" class="node">
<title>pick 2!</title>
<ellipse fill="gray" stroke="black" cx="589.04" cy="-162" rx="27" ry="18"/>
<text text-anchor="middle" x="589.04" y="-159.8" font-family="Times,serif" font-size="9.00">pick 2!</text>
</g>
<!-- Sequence****&#45;&gt;pick 2! -->
<g id="edge21" class="edge">
<title>Sequence****&#45;&gt;pick 2!</title>
<path fill="none" stroke="black" d="M589.04,-215.7C589.04,-207.98 589.04,-198.71 589.04,-190.11"/>
<polygon fill="black" stroke="black" points="592.54,-190.1 589.04,-180.1 585.54,-190.1 592.54,-190.1"/>
</g>
<!-- place on 1! -->
<g id="node23" class="node">
<title>place on 1!</title>
<ellipse fill="gray" stroke="black" cx="666.04" cy="-162" rx="32.16" ry="18"/>
<text text-anchor="middle" x="666.04" y="-159.8" font-family="Times,serif" font-size="9.00">place on 1!</text>
</g>
<!-- Sequence****&#45;&gt;place on 1! -->
<g id="edge22" class="edge">
<title>Sequence****&#45;&gt;place on 1!</title>
<path fill="none" stroke="black" d="M607.68,-216.05C618.07,-206.61 631.11,-194.76 642.23,-184.65"/>
<polygon fill="black" stroke="black" points="644.88,-186.97 649.92,-177.66 640.17,-181.79 644.88,-186.97"/>
</g>
</g>
</svg>
