<?xml version="1.0" encoding="UTF-8" standalone="no"?>
<!DOCTYPE svg PUBLIC "-//W3C//DTD SVG 1.1//EN"
 "http://www.w3.org/Graphics/SVG/1.1/DTD/svg11.dtd">
<!-- Generated by graphviz version 2.43.0 (0)
 -->
<!-- Title: pastafarianism Pages: 1 -->
<svg width="911pt" height="476pt"
 viewBox="0.00 0.00 911.15 476.00" xmlns="http://www.w3.org/2000/svg" xmlns:xlink="http://www.w3.org/1999/xlink">
<g id="graph0" class="graph" transform="scale(1 1) rotate(0) translate(4 472)">
<title>pastafarianism</title>
<polygon fill="white" stroke="transparent" points="-4,4 -4,-472 907.15,-472 907.15,4 -4,4"/>
<!-- Sequence -->
<g id="node1" class="node">
<title>Sequence</title>
<polygon fill="cyan" stroke="black" points="385.54,-442.54 385.54,-457.46 367.09,-468 341,-468 322.55,-457.46 322.55,-442.54 341,-432 367.09,-432 385.54,-442.54"/>
<text text-anchor="middle" x="354.04" y="-447.8" font-family="Times,serif" font-size="9.00">Sequence</text>
</g>
<!-- Fallback -->
<g id="node2" class="node">
<title>Fallback</title>
<polygon fill="cyan" stroke="black" points="201.29,-370.54 201.29,-385.46 184.16,-396 159.93,-396 142.8,-385.46 142.8,-370.54 159.93,-360 184.16,-360 201.29,-370.54"/>
<text text-anchor="middle" x="172.04" y="-375.8" font-family="Times,serif" font-size="9.00">Fallback</text>
</g>
<!-- Sequence&#45;&gt;Fallback -->
<g id="edge1" class="edge">
<title>Sequence&#45;&gt;Fallback</title>
<path fill="none" stroke="black" d="M328.35,-439.12C296.38,-426.82 241.67,-405.78 206.19,-392.13"/>
<polygon fill="black" stroke="black" points="207.32,-388.82 196.73,-388.49 204.81,-395.35 207.32,-388.82"/>
</g>
<!-- Fallback** -->
<g id="node9" class="node">
<title>Fallback**</title>
<polygon fill="cyan" stroke="black" points="389.04,-370.54 389.04,-385.46 368.54,-396 339.55,-396 319.05,-385.46 319.05,-370.54 339.55,-360 368.54,-360 389.04,-370.54"/>
<text text-anchor="middle" x="354.04" y="-375.8" font-family="Times,serif" font-size="9.00">Fallback**</text>
</g>
<!-- Sequence&#45;&gt;Fallback** -->
<g id="edge8" class="edge">
<title>Sequence&#45;&gt;Fallback**</title>
<path fill="none" stroke="black" d="M354.04,-431.7C354.04,-423.98 354.04,-414.71 354.04,-406.11"/>
<polygon fill="black" stroke="black" points="357.54,-406.1 354.04,-396.1 350.54,-406.1 357.54,-406.1"/>
</g>
<!-- Fallback*** -->
<g id="node12" class="node">
<title>Fallback***</title>
<polygon fill="cyan" stroke="black" points="633.53,-370.54 633.53,-385.46 611.57,-396 580.52,-396 558.55,-385.46 558.55,-370.54 580.52,-360 611.57,-360 633.53,-370.54"/>
<text text-anchor="middle" x="596.04" y="-375.8" font-family="Times,serif" font-size="9.00">Fallback***</text>
</g>
<!-- Sequence&#45;&gt;Fallback*** -->
<g id="edge11" class="edge">
<title>Sequence&#45;&gt;Fallback***</title>
<path fill="none" stroke="black" d="M382.76,-440.7C425.27,-428.4 505.23,-405.27 554.25,-391.09"/>
<polygon fill="black" stroke="black" points="555.28,-394.43 563.91,-388.29 553.34,-387.71 555.28,-394.43"/>
</g>
<!-- 0 at pos (0.0, 0.05, 0.0)? -->
<g id="node3" class="node">
<title>0 at pos (0.0, 0.05, 0.0)?</title>
<ellipse fill="gray" stroke="black" cx="60.04" cy="-306" rx="60.09" ry="18"/>
<text text-anchor="middle" x="60.04" y="-303.8" font-family="Times,serif" font-size="9.00">0 at pos (0.0, 0.05, 0.0)?</text>
</g>
<!-- Fallback&#45;&gt;0 at pos (0.0, 0.05, 0.0)? -->
<g id="edge2" class="edge">
<title>Fallback&#45;&gt;0 at pos (0.0, 0.05, 0.0)?</title>
<path fill="none" stroke="black" d="M152.28,-364.65C136.12,-354.55 112.92,-340.05 93.82,-328.11"/>
<polygon fill="black" stroke="black" points="95.44,-325 85.11,-322.66 91.73,-330.93 95.44,-325"/>
</g>
<!-- Sequence* -->
<g id="node4" class="node">
<title>Sequence*</title>
<polygon fill="cyan" stroke="black" points="206.29,-298.54 206.29,-313.46 186.23,-324 157.86,-324 137.8,-313.46 137.8,-298.54 157.86,-288 186.23,-288 206.29,-298.54"/>
<text text-anchor="middle" x="172.04" y="-303.8" font-family="Times,serif" font-size="9.00">Sequence*</text>
</g>
<!-- Fallback&#45;&gt;Sequence* -->
<g id="edge3" class="edge">
<title>Fallback&#45;&gt;Sequence*</title>
<path fill="none" stroke="black" d="M172.04,-359.7C172.04,-351.98 172.04,-342.71 172.04,-334.11"/>
<polygon fill="black" stroke="black" points="175.54,-334.1 172.04,-324.1 168.54,-334.1 175.54,-334.1"/>
</g>
<!-- Fallback* -->
<g id="node5" class="node">
<title>Fallback*</title>
<polygon fill="cyan" stroke="black" points="149.79,-226.54 149.79,-241.46 131.19,-252 104.9,-252 86.3,-241.46 86.3,-226.54 104.9,-216 131.19,-216 149.79,-226.54"/>
<text text-anchor="middle" x="118.04" y="-231.8" font-family="Times,serif" font-size="9.00">Fallback*</text>
</g>
<!-- Sequence*&#45;&gt;Fallback* -->
<g id="edge4" class="edge">
<title>Sequence*&#45;&gt;Fallback*</title>
<path fill="none" stroke="black" d="M158.7,-287.7C152.29,-279.39 144.49,-269.28 137.44,-260.14"/>
<polygon fill="black" stroke="black" points="140.12,-257.88 131.24,-252.1 134.58,-262.16 140.12,-257.88"/>
</g>
<!-- place at (0.0, 0.05, 0.0)! -->
<g id="node8" class="node">
<title>place at (0.0, 0.05, 0.0)!</title>
<ellipse fill="gray" stroke="black" cx="226.04" cy="-234" rx="58.13" ry="18"/>
<text text-anchor="middle" x="226.04" y="-231.8" font-family="Times,serif" font-size="9.00">place at (0.0, 0.05, 0.0)!</text>
</g>
<!-- Sequence*&#45;&gt;place at (0.0, 0.05, 0.0)! -->
<g id="edge7" class="edge">
<title>Sequence*&#45;&gt;place at (0.0, 0.05, 0.0)!</title>
<path fill="none" stroke="black" d="M185.39,-287.7C191.9,-279.27 199.84,-268.97 206.97,-259.73"/>
<polygon fill="black" stroke="black" points="209.88,-261.68 213.22,-251.62 204.34,-257.4 209.88,-261.68"/>
</g>
<!-- picked 0? -->
<g id="node6" class="node">
<title>picked 0?</title>
<ellipse fill="gray" stroke="black" cx="81.04" cy="-162" rx="28.74" ry="18"/>
<text text-anchor="middle" x="81.04" y="-159.8" font-family="Times,serif" font-size="9.00">picked 0?</text>
</g>
<!-- Fallback*&#45;&gt;picked 0? -->
<g id="edge5" class="edge">
<title>Fallback*&#45;&gt;picked 0?</title>
<path fill="none" stroke="black" d="M108.9,-215.7C104.58,-207.52 99.33,-197.6 94.57,-188.58"/>
<polygon fill="black" stroke="black" points="97.6,-186.83 89.83,-179.62 91.41,-190.1 97.6,-186.83"/>
</g>
<!-- pick 0! -->
<g id="node7" class="node">
<title>pick 0!</title>
<ellipse fill="gray" stroke="black" cx="155.04" cy="-162" rx="27" ry="18"/>
<text text-anchor="middle" x="155.04" y="-159.8" font-family="Times,serif" font-size="9.00">pick 0!</text>
</g>
<!-- Fallback*&#45;&gt;pick 0! -->
<g id="edge6" class="edge">
<title>Fallback*&#45;&gt;pick 0!</title>
<path fill="none" stroke="black" d="M127.19,-215.7C131.57,-207.4 136.91,-197.31 141.73,-188.19"/>
<polygon fill="black" stroke="black" points="144.93,-189.62 146.51,-179.14 138.74,-186.35 144.93,-189.62"/>
</g>
<!-- 1 at pos (0.0, 0.05, 0.0192)? -->
<g id="node10" class="node">
<title>1 at pos (0.0, 0.05, 0.0192)?</title>
<ellipse fill="gray" stroke="black" cx="292.04" cy="-306" rx="67.6" ry="18"/>
<text text-anchor="middle" x="292.04" y="-303.8" font-family="Times,serif" font-size="9.00">1 at pos (0.0, 0.05, 0.0192)?</text>
</g>
<!-- Fallback**&#45;&gt;1 at pos (0.0, 0.05, 0.0192)? -->
<g id="edge9" class="edge">
<title>Fallback**&#45;&gt;1 at pos (0.0, 0.05, 0.0192)?</title>
<path fill="none" stroke="black" d="M339.04,-360.05C331.42,-351.46 322.03,-340.86 313.65,-331.4"/>
<polygon fill="black" stroke="black" points="316.17,-328.95 306.91,-323.79 310.93,-333.6 316.17,-328.95"/>
</g>
<!-- apply force 1! -->
<g id="node11" class="node">
<title>apply force 1!</title>
<ellipse fill="gray" stroke="black" cx="416.04" cy="-306" rx="38.21" ry="18"/>
<text text-anchor="middle" x="416.04" y="-303.8" font-family="Times,serif" font-size="9.00">apply force 1!</text>
</g>
<!-- Fallback**&#45;&gt;apply force 1! -->
<g id="edge10" class="edge">
<title>Fallback**&#45;&gt;apply force 1!</title>
<path fill="none" stroke="black" d="M369.05,-360.05C376.89,-351.2 386.61,-340.23 395.17,-330.57"/>
<polygon fill="black" stroke="black" points="398.01,-332.64 402.02,-322.83 392.77,-327.99 398.01,-332.64"/>
</g>
<!-- 2 at pos (0.0, 0.05, 0.0384)? -->
<g id="node13" class="node">
<title>2 at pos (0.0, 0.05, 0.0384)?</title>
<ellipse fill="gray" stroke="black" cx="540.04" cy="-306" rx="67.6" ry="18"/>
<text text-anchor="middle" x="540.04" y="-303.8" font-family="Times,serif" font-size="9.00">2 at pos (0.0, 0.05, 0.0384)?</text>
</g>
<!-- Fallback***&#45;&gt;2 at pos (0.0, 0.05, 0.0384)? -->
<g id="edge12" class="edge">
<title>Fallback***&#45;&gt;2 at pos (0.0, 0.05, 0.0384)?</title>
<path fill="none" stroke="black" d="M582.2,-359.7C575.56,-351.39 567.47,-341.28 560.16,-332.14"/>
<polygon fill="black" stroke="black" points="562.71,-329.73 553.73,-324.1 557.24,-334.1 562.71,-329.73"/>
</g>
<!-- 1 on 2? -->
<g id="node14" class="node">
<title>1 on 2?</title>
<ellipse fill="gray" stroke="black" cx="653.04" cy="-306" rx="27" ry="18"/>
<text text-anchor="middle" x="653.04" y="-303.8" font-family="Times,serif" font-size="9.00">1 on 2?</text>
</g>
<!-- Fallback***&#45;&gt;1 on 2? -->
<g id="edge13" class="edge">
<title>Fallback***&#45;&gt;1 on 2?</title>
<path fill="none" stroke="black" d="M610.13,-359.7C617.38,-350.8 626.3,-339.84 634.13,-330.22"/>
<polygon fill="black" stroke="black" points="637.07,-332.17 640.67,-322.2 631.64,-327.75 637.07,-332.17"/>
</g>
<!-- Sequence** -->
<g id="node15" class="node">
<title>Sequence**</title>
<polygon fill="cyan" stroke="black" points="771.79,-298.54 771.79,-313.46 750.26,-324 719.83,-324 698.3,-313.46 698.3,-298.54 719.83,-288 750.26,-288 771.79,-298.54"/>
<text text-anchor="middle" x="735.04" y="-303.8" font-family="Times,serif" font-size="9.00">Sequence**</text>
</g>
<!-- Fallback***&#45;&gt;Sequence** -->
<g id="edge14" class="edge">
<title>Fallback***&#45;&gt;Sequence**</title>
<path fill="none" stroke="black" d="M621.22,-364.32C643.55,-353.07 676.38,-336.54 701.04,-324.12"/>
<polygon fill="black" stroke="black" points="702.7,-327.21 710.06,-319.58 699.55,-320.95 702.7,-327.21"/>
</g>
<!-- Fallback**** -->
<g id="node16" class="node">
<title>Fallback****</title>
<polygon fill="cyan" stroke="black" points="722.78,-226.54 722.78,-241.46 698.92,-252 665.17,-252 641.3,-241.46 641.3,-226.54 665.17,-216 698.92,-216 722.78,-226.54"/>
<text text-anchor="middle" x="682.04" y="-231.8" font-family="Times,serif" font-size="9.00">Fallback****</text>
</g>
<!-- Sequence**&#45;&gt;Fallback**** -->
<g id="edge15" class="edge">
<title>Sequence**&#45;&gt;Fallback****</title>
<path fill="none" stroke="black" d="M721.94,-287.7C715.65,-279.39 708,-269.28 701.08,-260.14"/>
<polygon fill="black" stroke="black" points="703.82,-257.96 694.99,-252.1 698.24,-262.19 703.82,-257.96"/>
</g>
<!-- Fallback****** -->
<g id="node24" class="node">
<title>Fallback******</title>
<polygon fill="cyan" stroke="black" points="833.53,-226.54 833.53,-241.46 806.3,-252 767.79,-252 740.56,-241.46 740.56,-226.54 767.79,-216 806.3,-216 833.53,-226.54"/>
<text text-anchor="middle" x="787.04" y="-231.8" font-family="Times,serif" font-size="9.00">Fallback******</text>
</g>
<!-- Sequence**&#45;&gt;Fallback****** -->
<g id="edge23" class="edge">
<title>Sequence**&#45;&gt;Fallback******</title>
<path fill="none" stroke="black" d="M747.9,-287.7C754.07,-279.39 761.58,-269.28 768.37,-260.14"/>
<polygon fill="black" stroke="black" points="771.18,-262.22 774.34,-252.1 765.57,-258.04 771.18,-262.22"/>
</g>
<!-- 2 on 1? -->
<g id="node17" class="node">
<title>2 on 1?</title>
<ellipse fill="gray" stroke="black" cx="602.04" cy="-162" rx="27" ry="18"/>
<text text-anchor="middle" x="602.04" y="-159.8" font-family="Times,serif" font-size="9.00">2 on 1?</text>
</g>
<!-- Fallback****&#45;&gt;2 on 1? -->
<g id="edge16" class="edge">
<title>Fallback****&#45;&gt;2 on 1?</title>
<path fill="none" stroke="black" d="M663.09,-216.41C651.9,-206.62 637.64,-194.15 625.72,-183.72"/>
<polygon fill="black" stroke="black" points="627.74,-180.83 617.91,-176.88 623.13,-186.1 627.74,-180.83"/>
</g>
<!-- Sequence*** -->
<g id="node18" class="node">
<title>Sequence***</title>
<polygon fill="cyan" stroke="black" points="727.03,-154.54 727.03,-169.46 703.61,-180 670.48,-180 647.05,-169.46 647.05,-154.54 670.48,-144 703.61,-144 727.03,-154.54"/>
<text text-anchor="middle" x="687.04" y="-159.8" font-family="Times,serif" font-size="9.00">Sequence***</text>
</g>
<!-- Fallback****&#45;&gt;Sequence*** -->
<g id="edge17" class="edge">
<title>Fallback****&#45;&gt;Sequence***</title>
<path fill="none" stroke="black" d="M683.28,-215.7C683.83,-207.98 684.49,-198.71 685.11,-190.11"/>
<polygon fill="black" stroke="black" points="688.6,-190.33 685.82,-180.1 681.62,-189.83 688.6,-190.33"/>
</g>
<!-- 0 at pos (0.0, 0.05, 0.0)?* -->
<g id="node19" class="node">
<title>0 at pos (0.0, 0.05, 0.0)?*</title>
<ellipse fill="gray" stroke="black" cx="564.04" cy="-90" rx="62.21" ry="18"/>
<text text-anchor="middle" x="564.04" y="-87.8" font-family="Times,serif" font-size="9.00">0 at pos (0.0, 0.05, 0.0)?*</text>
</g>
<!-- Sequence***&#45;&gt;0 at pos (0.0, 0.05, 0.0)?* -->
<g id="edge18" class="edge">
<title>Sequence***&#45;&gt;0 at pos (0.0, 0.05, 0.0)?*</title>
<path fill="none" stroke="black" d="M663.04,-147.34C645.01,-137.08 620.03,-122.86 599.68,-111.28"/>
<polygon fill="black" stroke="black" points="601.41,-108.24 590.99,-106.33 597.94,-114.32 601.41,-108.24"/>
</g>
<!-- Fallback***** -->
<g id="node20" class="node">
<title>Fallback*****</title>
<polygon fill="cyan" stroke="black" points="730.28,-82.54 730.28,-97.46 704.95,-108 669.13,-108 643.81,-97.46 643.81,-82.54 669.13,-72 704.95,-72 730.28,-82.54"/>
<text text-anchor="middle" x="687.04" y="-87.8" font-family="Times,serif" font-size="9.00">Fallback*****</text>
</g>
<!-- Sequence***&#45;&gt;Fallback***** -->
<g id="edge19" class="edge">
<title>Sequence***&#45;&gt;Fallback*****</title>
<path fill="none" stroke="black" d="M687.04,-143.7C687.04,-135.98 687.04,-126.71 687.04,-118.11"/>
<polygon fill="black" stroke="black" points="690.54,-118.1 687.04,-108.1 683.54,-118.1 690.54,-118.1"/>
</g>
<!-- place on 1! -->
<g id="node23" class="node">
<title>place on 1!</title>
<ellipse fill="gray" stroke="black" cx="780.04" cy="-90" rx="32.16" ry="18"/>
<text text-anchor="middle" x="780.04" y="-87.8" font-family="Times,serif" font-size="9.00">place on 1!</text>
</g>
<!-- Sequence***&#45;&gt;place on 1! -->
<g id="edge22" class="edge">
<title>Sequence***&#45;&gt;place on 1!</title>
<path fill="none" stroke="black" d="M707.68,-145.46C721.19,-135.3 738.97,-121.91 753.53,-110.96"/>
<polygon fill="black" stroke="black" points="755.78,-113.64 761.67,-104.83 751.57,-108.05 755.78,-113.64"/>
</g>
<!-- picked 2? -->
<g id="node21" class="node">
<title>picked 2?</title>
<ellipse fill="gray" stroke="black" cx="650.04" cy="-18" rx="28.74" ry="18"/>
<text text-anchor="middle" x="650.04" y="-15.8" font-family="Times,serif" font-size="9.00">picked 2?</text>
</g>
<!-- Fallback*****&#45;&gt;picked 2? -->
<g id="edge20" class="edge">
<title>Fallback*****&#45;&gt;picked 2?</title>
<path fill="none" stroke="black" d="M677.9,-71.7C673.58,-63.52 668.33,-53.6 663.57,-44.58"/>
<polygon fill="black" stroke="black" points="666.6,-42.83 658.83,-35.62 660.41,-46.1 666.6,-42.83"/>
</g>
<!-- pick 2! -->
<g id="node22" class="node">
<title>pick 2!</title>
<ellipse fill="gray" stroke="black" cx="724.04" cy="-18" rx="27" ry="18"/>
<text text-anchor="middle" x="724.04" y="-15.8" font-family="Times,serif" font-size="9.00">pick 2!</text>
</g>
<!-- Fallback*****&#45;&gt;pick 2! -->
<g id="edge21" class="edge">
<title>Fallback*****&#45;&gt;pick 2!</title>
<path fill="none" stroke="black" d="M696.19,-71.7C700.57,-63.4 705.91,-53.31 710.73,-44.19"/>
<polygon fill="black" stroke="black" points="713.93,-45.62 715.51,-35.14 707.74,-42.35 713.93,-45.62"/>
</g>
<!-- 2 on 1?* -->
<g id="node25" class="node">
<title>2 on 1?*</title>
<ellipse fill="gray" stroke="black" cx="782.04" cy="-162" rx="27.27" ry="18"/>
<text text-anchor="middle" x="782.04" y="-159.8" font-family="Times,serif" font-size="9.00">2 on 1?*</text>
</g>
<!-- Fallback******&#45;&gt;2 on 1?* -->
<g id="edge24" class="edge">
<title>Fallback******&#45;&gt;2 on 1?*</title>
<path fill="none" stroke="black" d="M785.81,-215.7C785.26,-207.98 784.6,-198.71 783.98,-190.11"/>
<polygon fill="black" stroke="black" points="787.47,-189.83 783.27,-180.1 780.49,-190.33 787.47,-189.83"/>
</g>
<!-- apply force 2! -->
<g id="node26" class="node">
<title>apply force 2!</title>
<ellipse fill="gray" stroke="black" cx="865.04" cy="-162" rx="38.21" ry="18"/>
<text text-anchor="middle" x="865.04" y="-159.8" font-family="Times,serif" font-size="9.00">apply force 2!</text>
</g>
<!-- Fallback******&#45;&gt;apply force 2! -->
<g id="edge25" class="edge">
<title>Fallback******&#45;&gt;apply force 2!</title>
<path fill="none" stroke="black" d="M806.33,-215.7C816.64,-206.44 829.44,-194.95 840.46,-185.06"/>
<polygon fill="black" stroke="black" points="843,-187.49 848.1,-178.2 838.32,-182.28 843,-187.49"/>
</g>
</g>
</svg>
