<?xml version="1.0" encoding="UTF-8" standalone="no"?>
<!DOCTYPE svg PUBLIC "-//W3C//DTD SVG 1.1//EN"
 "http://www.w3.org/Graphics/SVG/1.1/DTD/svg11.dtd">
<!-- Generated by graphviz version 2.43.0 (0)
 -->
<!-- Title: pastafarianism Pages: 1 -->
<svg width="848pt" height="404pt"
 viewBox="0.00 0.00 848.38 404.00" xmlns="http://www.w3.org/2000/svg" xmlns:xlink="http://www.w3.org/1999/xlink">
<g id="graph0" class="graph" transform="scale(1 1) rotate(0) translate(4 400)">
<title>pastafarianism</title>
<polygon fill="white" stroke="transparent" points="-4,4 -4,-400 844.38,-400 844.38,4 -4,4"/>
<!-- Sequence -->
<g id="node1" class="node">
<title>Sequence</title>
<polygon fill="cyan" stroke="black" points="513.54,-370.54 513.54,-385.46 495.09,-396 469,-396 450.55,-385.46 450.55,-370.54 469,-360 495.09,-360 513.54,-370.54"/>
<text text-anchor="middle" x="482.04" y="-375.8" font-family="Times,serif" font-size="9.00">Sequence</text>
</g>
<!-- Fallback -->
<g id="node2" class="node">
<title>Fallback</title>
<polygon fill="cyan" stroke="black" points="201.29,-298.54 201.29,-313.46 184.16,-324 159.93,-324 142.8,-313.46 142.8,-298.54 159.93,-288 184.16,-288 201.29,-298.54"/>
<text text-anchor="middle" x="172.04" y="-303.8" font-family="Times,serif" font-size="9.00">Fallback</text>
</g>
<!-- Sequence&#45;&gt;Fallback -->
<g id="edge1" class="edge">
<title>Sequence&#45;&gt;Fallback</title>
<path fill="none" stroke="black" d="M451.19,-370.03C394.46,-357.22 273.73,-329.96 211.28,-315.86"/>
<polygon fill="black" stroke="black" points="211.94,-312.42 201.41,-313.63 210.4,-319.25 211.94,-312.42"/>
</g>
<!-- Fallback* -->
<g id="node7" class="node">
<title>Fallback*</title>
<polygon fill="cyan" stroke="black" points="468.79,-298.54 468.79,-313.46 450.19,-324 423.9,-324 405.3,-313.46 405.3,-298.54 423.9,-288 450.19,-288 468.79,-298.54"/>
<text text-anchor="middle" x="437.04" y="-303.8" font-family="Times,serif" font-size="9.00">Fallback*</text>
</g>
<!-- Sequence&#45;&gt;Fallback* -->
<g id="edge6" class="edge">
<title>Sequence&#45;&gt;Fallback*</title>
<path fill="none" stroke="black" d="M470.92,-359.7C465.69,-351.56 459.34,-341.69 453.57,-332.7"/>
<polygon fill="black" stroke="black" points="456.39,-330.62 448.04,-324.1 450.5,-334.41 456.39,-330.62"/>
</g>
<!-- Fallback**** -->
<g id="node21" class="node">
<title>Fallback****</title>
<polygon fill="cyan" stroke="black" points="614.78,-298.54 614.78,-313.46 590.92,-324 557.17,-324 533.3,-313.46 533.3,-298.54 557.17,-288 590.92,-288 614.78,-298.54"/>
<text text-anchor="middle" x="574.04" y="-303.8" font-family="Times,serif" font-size="9.00">Fallback****</text>
</g>
<!-- Sequence&#45;&gt;Fallback**** -->
<g id="edge20" class="edge">
<title>Sequence&#45;&gt;Fallback****</title>
<path fill="none" stroke="black" d="M500.66,-362.83C513.48,-353.08 530.75,-339.94 545.32,-328.85"/>
<polygon fill="black" stroke="black" points="547.69,-331.45 553.53,-322.61 543.46,-325.88 547.69,-331.45"/>
</g>
<!-- apply force 2! -->
<g id="node26" class="node">
<title>apply force 2!</title>
<ellipse fill="gray" stroke="black" cx="671.04" cy="-306" rx="38.21" ry="18"/>
<text text-anchor="middle" x="671.04" y="-303.8" font-family="Times,serif" font-size="9.00">apply force 2!</text>
</g>
<!-- Sequence&#45;&gt;apply force 2! -->
<g id="edge25" class="edge">
<title>Sequence&#45;&gt;apply force 2!</title>
<path fill="none" stroke="black" d="M508.32,-367.27C540.54,-355.34 595.41,-335.01 632.42,-321.3"/>
<polygon fill="black" stroke="black" points="633.73,-324.55 641.89,-317.8 631.3,-317.99 633.73,-324.55"/>
</g>
<!-- 0 at pos (0.0, 0.05, 0.0)? -->
<g id="node3" class="node">
<title>0 at pos (0.0, 0.05, 0.0)?</title>
<ellipse fill="gray" stroke="black" cx="60.04" cy="-234" rx="60.09" ry="18"/>
<text text-anchor="middle" x="60.04" y="-231.8" font-family="Times,serif" font-size="9.00">0 at pos (0.0, 0.05, 0.0)?</text>
</g>
<!-- Fallback&#45;&gt;0 at pos (0.0, 0.05, 0.0)? -->
<g id="edge2" class="edge">
<title>Fallback&#45;&gt;0 at pos (0.0, 0.05, 0.0)?</title>
<path fill="none" stroke="black" d="M152.28,-292.65C136.12,-282.55 112.92,-268.05 93.82,-256.11"/>
<polygon fill="black" stroke="black" points="95.44,-253 85.11,-250.66 91.73,-258.93 95.44,-253"/>
</g>
<!-- Sequence* -->
<g id="node4" class="node">
<title>Sequence*</title>
<polygon fill="cyan" stroke="black" points="206.29,-226.54 206.29,-241.46 186.23,-252 157.86,-252 137.8,-241.46 137.8,-226.54 157.86,-216 186.23,-216 206.29,-226.54"/>
<text text-anchor="middle" x="172.04" y="-231.8" font-family="Times,serif" font-size="9.00">Sequence*</text>
</g>
<!-- Fallback&#45;&gt;Sequence* -->
<g id="edge3" class="edge">
<title>Fallback&#45;&gt;Sequence*</title>
<path fill="none" stroke="black" d="M172.04,-287.7C172.04,-279.98 172.04,-270.71 172.04,-262.11"/>
<polygon fill="black" stroke="black" points="175.54,-262.1 172.04,-252.1 168.54,-262.1 175.54,-262.1"/>
</g>
<!-- pick 0! -->
<g id="node5" class="node">
<title>pick 0!</title>
<ellipse fill="gray" stroke="black" cx="89.04" cy="-162" rx="27" ry="18"/>
<text text-anchor="middle" x="89.04" y="-159.8" font-family="Times,serif" font-size="9.00">pick 0!</text>
</g>
<!-- Sequence*&#45;&gt;pick 0! -->
<g id="edge4" class="edge">
<title>Sequence*&#45;&gt;pick 0!</title>
<path fill="none" stroke="black" d="M154.03,-217.81C141.95,-207.62 125.91,-194.09 112.79,-183.02"/>
<polygon fill="black" stroke="black" points="114.96,-180.27 105.06,-176.5 110.44,-185.63 114.96,-180.27"/>
</g>
<!-- place at (0.0, 0.05, 0.0)! -->
<g id="node6" class="node">
<title>place at (0.0, 0.05, 0.0)!</title>
<ellipse fill="gray" stroke="black" cx="192.04" cy="-162" rx="58.13" ry="18"/>
<text text-anchor="middle" x="192.04" y="-159.8" font-family="Times,serif" font-size="9.00">place at (0.0, 0.05, 0.0)!</text>
</g>
<!-- Sequence*&#45;&gt;place at (0.0, 0.05, 0.0)! -->
<g id="edge5" class="edge">
<title>Sequence*&#45;&gt;place at (0.0, 0.05, 0.0)!</title>
<path fill="none" stroke="black" d="M176.99,-215.7C179.22,-207.9 181.9,-198.51 184.38,-189.83"/>
<polygon fill="black" stroke="black" points="187.78,-190.68 187.16,-180.1 181.04,-188.76 187.78,-190.68"/>
</g>
<!-- 1 at pos (0.0, 0.05, 0.0192)? -->
<g id="node8" class="node">
<title>1 at pos (0.0, 0.05, 0.0192)?</title>
<ellipse fill="gray" stroke="black" cx="292.04" cy="-234" rx="67.6" ry="18"/>
<text text-anchor="middle" x="292.04" y="-231.8" font-family="Times,serif" font-size="9.00">1 at pos (0.0, 0.05, 0.0192)?</text>
</g>
<!-- Fallback*&#45;&gt;1 at pos (0.0, 0.05, 0.0192)? -->
<g id="edge7" class="edge">
<title>Fallback*&#45;&gt;1 at pos (0.0, 0.05, 0.0192)?</title>
<path fill="none" stroke="black" d="M413.75,-293.75C391.86,-283.19 358.64,-267.15 332.44,-254.5"/>
<polygon fill="black" stroke="black" points="333.66,-251.2 323.13,-250.01 330.62,-257.51 333.66,-251.2"/>
</g>
<!-- Sequence** -->
<g id="node9" class="node">
<title>Sequence**</title>
<polygon fill="cyan" stroke="black" points="450.79,-226.54 450.79,-241.46 429.26,-252 398.83,-252 377.3,-241.46 377.3,-226.54 398.83,-216 429.26,-216 450.79,-226.54"/>
<text text-anchor="middle" x="414.04" y="-231.8" font-family="Times,serif" font-size="9.00">Sequence**</text>
</g>
<!-- Fallback*&#45;&gt;Sequence** -->
<g id="edge8" class="edge">
<title>Fallback*&#45;&gt;Sequence**</title>
<path fill="none" stroke="black" d="M431.36,-287.7C428.8,-279.9 425.71,-270.51 422.86,-261.83"/>
<polygon fill="black" stroke="black" points="426.11,-260.51 419.66,-252.1 419.46,-262.7 426.11,-260.51"/>
</g>
<!-- Sequence**** -->
<g id="node16" class="node">
<title>Sequence****</title>
<polygon fill="cyan" stroke="black" points="553.53,-226.54 553.53,-241.46 528.64,-252 493.44,-252 468.56,-241.46 468.56,-226.54 493.44,-216 528.64,-216 553.53,-226.54"/>
<text text-anchor="middle" x="511.04" y="-231.8" font-family="Times,serif" font-size="9.00">Sequence****</text>
</g>
<!-- Fallback*&#45;&gt;Sequence**** -->
<g id="edge15" class="edge">
<title>Fallback*&#45;&gt;Sequence****</title>
<path fill="none" stroke="black" d="M453.47,-289.46C462.92,-280.52 475.01,-269.09 485.67,-259.01"/>
<polygon fill="black" stroke="black" points="488.25,-261.38 493.11,-251.96 483.44,-256.29 488.25,-261.38"/>
</g>
<!-- Fallback** -->
<g id="node10" class="node">
<title>Fallback**</title>
<polygon fill="cyan" stroke="black" points="358.04,-154.54 358.04,-169.46 337.54,-180 308.55,-180 288.05,-169.46 288.05,-154.54 308.55,-144 337.54,-144 358.04,-154.54"/>
<text text-anchor="middle" x="323.04" y="-159.8" font-family="Times,serif" font-size="9.00">Fallback**</text>
</g>
<!-- Sequence**&#45;&gt;Fallback** -->
<g id="edge9" class="edge">
<title>Sequence**&#45;&gt;Fallback**</title>
<path fill="none" stroke="black" d="M394.3,-217.81C381.36,-207.86 364.29,-194.73 350.1,-183.81"/>
<polygon fill="black" stroke="black" points="352.19,-181 342.13,-177.68 347.92,-186.55 352.19,-181"/>
</g>
<!-- apply force 1! -->
<g id="node15" class="node">
<title>apply force 1!</title>
<ellipse fill="gray" stroke="black" cx="414.04" cy="-162" rx="38.21" ry="18"/>
<text text-anchor="middle" x="414.04" y="-159.8" font-family="Times,serif" font-size="9.00">apply force 1!</text>
</g>
<!-- Sequence**&#45;&gt;apply force 1! -->
<g id="edge14" class="edge">
<title>Sequence**&#45;&gt;apply force 1!</title>
<path fill="none" stroke="black" d="M414.04,-215.7C414.04,-207.98 414.04,-198.71 414.04,-190.11"/>
<polygon fill="black" stroke="black" points="417.54,-190.1 414.04,-180.1 410.54,-190.1 417.54,-190.1"/>
</g>
<!-- 1 on 0? -->
<g id="node11" class="node">
<title>1 on 0?</title>
<ellipse fill="gray" stroke="black" cx="290.04" cy="-90" rx="27" ry="18"/>
<text text-anchor="middle" x="290.04" y="-87.8" font-family="Times,serif" font-size="9.00">1 on 0?</text>
</g>
<!-- Fallback**&#45;&gt;1 on 0? -->
<g id="edge10" class="edge">
<title>Fallback**&#45;&gt;1 on 0?</title>
<path fill="none" stroke="black" d="M314.89,-143.7C311.07,-135.61 306.46,-125.81 302.24,-116.87"/>
<polygon fill="black" stroke="black" points="305.31,-115.18 297.88,-107.62 298.98,-118.16 305.31,-115.18"/>
</g>
<!-- Sequence*** -->
<g id="node12" class="node">
<title>Sequence***</title>
<polygon fill="cyan" stroke="black" points="415.03,-82.54 415.03,-97.46 391.61,-108 358.48,-108 335.05,-97.46 335.05,-82.54 358.48,-72 391.61,-72 415.03,-82.54"/>
<text text-anchor="middle" x="375.04" y="-87.8" font-family="Times,serif" font-size="9.00">Sequence***</text>
</g>
<!-- Fallback**&#45;&gt;Sequence*** -->
<g id="edge11" class="edge">
<title>Fallback**&#45;&gt;Sequence***</title>
<path fill="none" stroke="black" d="M335.9,-143.7C342.07,-135.39 349.58,-125.28 356.37,-116.14"/>
<polygon fill="black" stroke="black" points="359.18,-118.22 362.34,-108.1 353.57,-114.04 359.18,-118.22"/>
</g>
<!-- pick 1! -->
<g id="node13" class="node">
<title>pick 1!</title>
<ellipse fill="gray" stroke="black" cx="337.04" cy="-18" rx="27" ry="18"/>
<text text-anchor="middle" x="337.04" y="-15.8" font-family="Times,serif" font-size="9.00">pick 1!</text>
</g>
<!-- Sequence***&#45;&gt;pick 1! -->
<g id="edge12" class="edge">
<title>Sequence***&#45;&gt;pick 1!</title>
<path fill="none" stroke="black" d="M365.65,-71.7C361.15,-63.4 355.67,-53.31 350.72,-44.19"/>
<polygon fill="black" stroke="black" points="353.66,-42.26 345.81,-35.14 347.5,-45.6 353.66,-42.26"/>
</g>
<!-- place on 0! -->
<g id="node14" class="node">
<title>place on 0!</title>
<ellipse fill="gray" stroke="black" cx="414.04" cy="-18" rx="32.16" ry="18"/>
<text text-anchor="middle" x="414.04" y="-15.8" font-family="Times,serif" font-size="9.00">place on 0!</text>
</g>
<!-- Sequence***&#45;&gt;place on 0! -->
<g id="edge13" class="edge">
<title>Sequence***&#45;&gt;place on 0!</title>
<path fill="none" stroke="black" d="M384.68,-71.7C389.24,-63.52 394.77,-53.6 399.79,-44.58"/>
<polygon fill="black" stroke="black" points="402.97,-46.06 404.78,-35.62 396.86,-42.65 402.97,-46.06"/>
</g>
<!-- Fallback*** -->
<g id="node17" class="node">
<title>Fallback***</title>
<polygon fill="cyan" stroke="black" points="545.53,-154.54 545.53,-169.46 523.57,-180 492.52,-180 470.55,-169.46 470.55,-154.54 492.52,-144 523.57,-144 545.53,-154.54"/>
<text text-anchor="middle" x="508.04" y="-159.8" font-family="Times,serif" font-size="9.00">Fallback***</text>
</g>
<!-- Sequence****&#45;&gt;Fallback*** -->
<g id="edge16" class="edge">
<title>Sequence****&#45;&gt;Fallback***</title>
<path fill="none" stroke="black" d="M510.3,-215.7C509.97,-207.98 509.57,-198.71 509.21,-190.11"/>
<polygon fill="black" stroke="black" points="512.7,-189.95 508.78,-180.1 505.71,-190.25 512.7,-189.95"/>
</g>
<!-- place at (0.0, 0.05, 0.0)!* -->
<g id="node20" class="node">
<title>place at (0.0, 0.05, 0.0)!*</title>
<ellipse fill="gray" stroke="black" cx="625.04" cy="-162" rx="61.4" ry="18"/>
<text text-anchor="middle" x="625.04" y="-159.8" font-family="Times,serif" font-size="9.00">place at (0.0, 0.05, 0.0)!*</text>
</g>
<!-- Sequence****&#45;&gt;place at (0.0, 0.05, 0.0)!* -->
<g id="edge19" class="edge">
<title>Sequence****&#45;&gt;place at (0.0, 0.05, 0.0)!*</title>
<path fill="none" stroke="black" d="M534.67,-218.5C551.03,-208.45 573.06,-194.92 591.28,-183.73"/>
<polygon fill="black" stroke="black" points="593.18,-186.67 599.87,-178.46 589.52,-180.71 593.18,-186.67"/>
</g>
<!-- picked 0? -->
<g id="node18" class="node">
<title>picked 0?</title>
<ellipse fill="gray" stroke="black" cx="468.04" cy="-90" rx="28.74" ry="18"/>
<text text-anchor="middle" x="468.04" y="-87.8" font-family="Times,serif" font-size="9.00">picked 0?</text>
</g>
<!-- Fallback***&#45;&gt;picked 0? -->
<g id="edge17" class="edge">
<title>Fallback***&#45;&gt;picked 0?</title>
<path fill="none" stroke="black" d="M498.16,-143.7C493.37,-135.32 487.53,-125.1 482.27,-115.9"/>
<polygon fill="black" stroke="black" points="485.27,-114.09 477.27,-107.14 479.19,-117.56 485.27,-114.09"/>
</g>
<!-- pick 0!* -->
<g id="node19" class="node">
<title>pick 0!*</title>
<ellipse fill="gray" stroke="black" cx="542.04" cy="-90" rx="27" ry="18"/>
<text text-anchor="middle" x="542.04" y="-87.8" font-family="Times,serif" font-size="9.00">pick 0!*</text>
</g>
<!-- Fallback***&#45;&gt;pick 0!* -->
<g id="edge18" class="edge">
<title>Fallback***&#45;&gt;pick 0!*</title>
<path fill="none" stroke="black" d="M516.45,-143.7C520.38,-135.61 525.14,-125.81 529.48,-116.87"/>
<polygon fill="black" stroke="black" points="532.75,-118.15 533.97,-107.62 526.45,-115.09 532.75,-118.15"/>
</g>
<!-- 2 on 1? -->
<g id="node22" class="node">
<title>2 on 1?</title>
<ellipse fill="gray" stroke="black" cx="598.04" cy="-234" rx="27" ry="18"/>
<text text-anchor="middle" x="598.04" y="-231.8" font-family="Times,serif" font-size="9.00">2 on 1?</text>
</g>
<!-- Fallback****&#45;&gt;2 on 1? -->
<g id="edge21" class="edge">
<title>Fallback****&#45;&gt;2 on 1?</title>
<path fill="none" stroke="black" d="M579.98,-287.7C582.72,-279.7 586.04,-270.02 589.08,-261.15"/>
<polygon fill="black" stroke="black" points="592.41,-262.22 592.35,-251.62 585.79,-259.95 592.41,-262.22"/>
</g>
<!-- Sequence***** -->
<g id="node23" class="node">
<title>Sequence*****</title>
<polygon fill="cyan" stroke="black" points="776.78,-226.54 776.78,-241.46 749.99,-252 712.1,-252 685.31,-241.46 685.31,-226.54 712.1,-216 749.99,-216 776.78,-226.54"/>
<text text-anchor="middle" x="731.04" y="-231.8" font-family="Times,serif" font-size="9.00">Sequence*****</text>
</g>
<!-- Fallback****&#45;&gt;Sequence***** -->
<g id="edge22" class="edge">
<title>Fallback****&#45;&gt;Sequence*****</title>
<path fill="none" stroke="black" d="M601.75,-292.65C626.98,-281.4 664.48,-264.68 692.6,-252.14"/>
<polygon fill="black" stroke="black" points="694.04,-255.33 701.75,-248.06 691.19,-248.94 694.04,-255.33"/>
</g>
<!-- pick 2! -->
<g id="node24" class="node">
<title>pick 2!</title>
<ellipse fill="gray" stroke="black" cx="731.04" cy="-162" rx="27" ry="18"/>
<text text-anchor="middle" x="731.04" y="-159.8" font-family="Times,serif" font-size="9.00">pick 2!</text>
</g>
<!-- Sequence*****&#45;&gt;pick 2! -->
<g id="edge23" class="edge">
<title>Sequence*****&#45;&gt;pick 2!</title>
<path fill="none" stroke="black" d="M731.04,-215.7C731.04,-207.98 731.04,-198.71 731.04,-190.11"/>
<polygon fill="black" stroke="black" points="734.54,-190.1 731.04,-180.1 727.54,-190.1 734.54,-190.1"/>
</g>
<!-- place on 1! -->
<g id="node25" class="node">
<title>place on 1!</title>
<ellipse fill="gray" stroke="black" cx="808.04" cy="-162" rx="32.16" ry="18"/>
<text text-anchor="middle" x="808.04" y="-159.8" font-family="Times,serif" font-size="9.00">place on 1!</text>
</g>
<!-- Sequence*****&#45;&gt;place on 1! -->
<g id="edge24" class="edge">
<title>Sequence*****&#45;&gt;place on 1!</title>
<path fill="none" stroke="black" d="M750.08,-215.7C760.4,-206.31 773.25,-194.63 784.23,-184.65"/>
<polygon fill="black" stroke="black" points="786.79,-187.05 791.83,-177.74 782.08,-181.88 786.79,-187.05"/>
</g>
</g>
</svg>
