<?xml version="1.0" encoding="UTF-8" standalone="no"?>
<!DOCTYPE svg PUBLIC "-//W3C//DTD SVG 1.1//EN"
 "http://www.w3.org/Graphics/SVG/1.1/DTD/svg11.dtd">
<!-- Generated by graphviz version 2.43.0 (0)
 -->
<!-- Title: pastafarianism Pages: 1 -->
<svg width="936pt" height="548pt"
 viewBox="0.00 0.00 936.38 548.00" xmlns="http://www.w3.org/2000/svg" xmlns:xlink="http://www.w3.org/1999/xlink">
<g id="graph0" class="graph" transform="scale(1 1) rotate(0) translate(4 544)">
<title>pastafarianism</title>
<polygon fill="white" stroke="transparent" points="-4,4 -4,-544 932.38,-544 932.38,4 -4,4"/>
<!-- Sequence -->
<g id="node1" class="node">
<title>Sequence</title>
<polygon fill="cyan" stroke="black" points="629.54,-514.54 629.54,-529.46 611.09,-540 585,-540 566.55,-529.46 566.55,-514.54 585,-504 611.09,-504 629.54,-514.54"/>
<text text-anchor="middle" x="598.04" y="-519.8" font-family="Times,serif" font-size="9.00">Sequence</text>
</g>
<!-- Fallback -->
<g id="node2" class="node">
<title>Fallback</title>
<polygon fill="cyan" stroke="black" points="271.29,-442.54 271.29,-457.46 254.16,-468 229.93,-468 212.8,-457.46 212.8,-442.54 229.93,-432 254.16,-432 271.29,-442.54"/>
<text text-anchor="middle" x="242.04" y="-447.8" font-family="Times,serif" font-size="9.00">Fallback</text>
</g>
<!-- Sequence&#45;&gt;Fallback -->
<g id="edge1" class="edge">
<title>Sequence&#45;&gt;Fallback</title>
<path fill="none" stroke="black" d="M566.76,-514.85C501.92,-502.1 352.94,-472.8 281.57,-458.77"/>
<polygon fill="black" stroke="black" points="282.11,-455.31 271.62,-456.82 280.76,-462.18 282.11,-455.31"/>
</g>
<!-- Fallback* -->
<g id="node7" class="node">
<title>Fallback*</title>
<polygon fill="cyan" stroke="black" points="583.79,-442.54 583.79,-457.46 565.19,-468 538.9,-468 520.3,-457.46 520.3,-442.54 538.9,-432 565.19,-432 583.79,-442.54"/>
<text text-anchor="middle" x="552.04" y="-447.8" font-family="Times,serif" font-size="9.00">Fallback*</text>
</g>
<!-- Sequence&#45;&gt;Fallback* -->
<g id="edge6" class="edge">
<title>Sequence&#45;&gt;Fallback*</title>
<path fill="none" stroke="black" d="M586.67,-503.7C581.33,-495.56 574.84,-485.69 568.93,-476.7"/>
<polygon fill="black" stroke="black" points="571.7,-474.54 563.28,-468.1 565.85,-478.38 571.7,-474.54"/>
</g>
<!-- Fallback***** -->
<g id="node27" class="node">
<title>Fallback*****</title>
<polygon fill="cyan" stroke="black" points="718.28,-442.54 718.28,-457.46 692.95,-468 657.13,-468 631.81,-457.46 631.81,-442.54 657.13,-432 692.95,-432 718.28,-442.54"/>
<text text-anchor="middle" x="675.04" y="-447.8" font-family="Times,serif" font-size="9.00">Fallback*****</text>
</g>
<!-- Sequence&#45;&gt;Fallback***** -->
<g id="edge26" class="edge">
<title>Sequence&#45;&gt;Fallback*****</title>
<path fill="none" stroke="black" d="M614.75,-505.81C624.74,-496.73 637.65,-484.99 648.96,-474.71"/>
<polygon fill="black" stroke="black" points="651.43,-477.19 656.48,-467.88 646.73,-472.01 651.43,-477.19"/>
</g>
<!-- apply force 2! -->
<g id="node35" class="node">
<title>apply force 2!</title>
<ellipse fill="gray" stroke="black" cx="774.04" cy="-450" rx="38.21" ry="18"/>
<text text-anchor="middle" x="774.04" y="-447.8" font-family="Times,serif" font-size="9.00">apply force 2!</text>
</g>
<!-- Sequence&#45;&gt;apply force 2! -->
<g id="edge34" class="edge">
<title>Sequence&#45;&gt;apply force 2!</title>
<path fill="none" stroke="black" d="M623.64,-510.82C653.23,-499.05 702.21,-479.57 736.2,-466.05"/>
<polygon fill="black" stroke="black" points="737.8,-469.18 745.8,-462.23 735.21,-462.68 737.8,-469.18"/>
</g>
<!-- 0 at pos (0.0, 0.05, 0.0)? -->
<g id="node3" class="node">
<title>0 at pos (0.0, 0.05, 0.0)?</title>
<ellipse fill="gray" stroke="black" cx="60.04" cy="-378" rx="60.09" ry="18"/>
<text text-anchor="middle" x="60.04" y="-375.8" font-family="Times,serif" font-size="9.00">0 at pos (0.0, 0.05, 0.0)?</text>
</g>
<!-- Fallback&#45;&gt;0 at pos (0.0, 0.05, 0.0)? -->
<g id="edge2" class="edge">
<title>Fallback&#45;&gt;0 at pos (0.0, 0.05, 0.0)?</title>
<path fill="none" stroke="black" d="M217.5,-439.56C188.76,-428.51 140.59,-409.98 105.08,-396.32"/>
<polygon fill="black" stroke="black" points="106.02,-392.93 95.43,-392.61 103.5,-399.46 106.02,-392.93"/>
</g>
<!-- pick 0! -->
<g id="node4" class="node">
<title>pick 0!</title>
<ellipse fill="gray" stroke="black" cx="165.04" cy="-378" rx="27" ry="18"/>
<text text-anchor="middle" x="165.04" y="-375.8" font-family="Times,serif" font-size="9.00">pick 0!</text>
</g>
<!-- Fallback&#45;&gt;pick 0! -->
<g id="edge3" class="edge">
<title>Fallback&#45;&gt;pick 0!</title>
<path fill="none" stroke="black" d="M225.71,-434.15C214.71,-424.15 200.03,-410.8 187.87,-399.75"/>
<polygon fill="black" stroke="black" points="190.06,-397.01 180.3,-392.87 185.35,-402.19 190.06,-397.01"/>
</g>
<!-- place on 0! -->
<g id="node5" class="node">
<title>place on 0!</title>
<ellipse fill="gray" stroke="black" cx="242.04" cy="-378" rx="32.16" ry="18"/>
<text text-anchor="middle" x="242.04" y="-375.8" font-family="Times,serif" font-size="9.00">place on 0!</text>
</g>
<!-- Fallback&#45;&gt;place on 0! -->
<g id="edge4" class="edge">
<title>Fallback&#45;&gt;place on 0!</title>
<path fill="none" stroke="black" d="M242.04,-431.7C242.04,-423.98 242.04,-414.71 242.04,-406.11"/>
<polygon fill="black" stroke="black" points="245.54,-406.1 242.04,-396.1 238.54,-406.1 245.54,-406.1"/>
</g>
<!-- pick 1! -->
<g id="node6" class="node">
<title>pick 1!</title>
<ellipse fill="gray" stroke="black" cx="319.04" cy="-378" rx="27" ry="18"/>
<text text-anchor="middle" x="319.04" y="-375.8" font-family="Times,serif" font-size="9.00">pick 1!</text>
</g>
<!-- Fallback&#45;&gt;pick 1! -->
<g id="edge5" class="edge">
<title>Fallback&#45;&gt;pick 1!</title>
<path fill="none" stroke="black" d="M258.37,-434.15C269.38,-424.15 284.06,-410.8 296.22,-399.75"/>
<polygon fill="black" stroke="black" points="298.74,-402.19 303.79,-392.87 294.03,-397.01 298.74,-402.19"/>
</g>
<!-- 1 at pos (0.0, 0.05, 0.0192)? -->
<g id="node8" class="node">
<title>1 at pos (0.0, 0.05, 0.0192)?</title>
<ellipse fill="gray" stroke="black" cx="432.04" cy="-378" rx="67.6" ry="18"/>
<text text-anchor="middle" x="432.04" y="-375.8" font-family="Times,serif" font-size="9.00">1 at pos (0.0, 0.05, 0.0192)?</text>
</g>
<!-- Fallback*&#45;&gt;1 at pos (0.0, 0.05, 0.0192)? -->
<g id="edge7" class="edge">
<title>Fallback*&#45;&gt;1 at pos (0.0, 0.05, 0.0192)?</title>
<path fill="none" stroke="black" d="M530.59,-436.49C513.09,-426.28 488,-411.64 467.52,-399.7"/>
<polygon fill="black" stroke="black" points="469.17,-396.61 458.77,-394.59 465.65,-402.65 469.17,-396.61"/>
</g>
<!-- Sequence* -->
<g id="node9" class="node">
<title>Sequence*</title>
<polygon fill="cyan" stroke="black" points="586.29,-370.54 586.29,-385.46 566.23,-396 537.86,-396 517.8,-385.46 517.8,-370.54 537.86,-360 566.23,-360 586.29,-370.54"/>
<text text-anchor="middle" x="552.04" y="-375.8" font-family="Times,serif" font-size="9.00">Sequence*</text>
</g>
<!-- Fallback*&#45;&gt;Sequence* -->
<g id="edge8" class="edge">
<title>Fallback*&#45;&gt;Sequence*</title>
<path fill="none" stroke="black" d="M552.04,-431.7C552.04,-423.98 552.04,-414.71 552.04,-406.11"/>
<polygon fill="black" stroke="black" points="555.54,-406.1 552.04,-396.1 548.54,-406.1 555.54,-406.1"/>
</g>
<!-- Fallback** -->
<g id="node10" class="node">
<title>Fallback**</title>
<polygon fill="cyan" stroke="black" points="405.04,-298.54 405.04,-313.46 384.54,-324 355.55,-324 335.05,-313.46 335.05,-298.54 355.55,-288 384.54,-288 405.04,-298.54"/>
<text text-anchor="middle" x="370.04" y="-303.8" font-family="Times,serif" font-size="9.00">Fallback**</text>
</g>
<!-- Sequence*&#45;&gt;Fallback** -->
<g id="edge9" class="edge">
<title>Sequence*&#45;&gt;Fallback**</title>
<path fill="none" stroke="black" d="M525.23,-366.34C519.87,-364.23 514.28,-362.03 509.04,-360 474.48,-346.58 434.96,-331.54 406.92,-320.92"/>
<polygon fill="black" stroke="black" points="408.1,-317.63 397.51,-317.36 405.63,-324.17 408.1,-317.63"/>
</g>
<!-- Fallback**** -->
<g id="node20" class="node">
<title>Fallback****</title>
<polygon fill="cyan" stroke="black" points="594.78,-298.54 594.78,-313.46 570.92,-324 537.17,-324 513.3,-313.46 513.3,-298.54 537.17,-288 570.92,-288 594.78,-298.54"/>
<text text-anchor="middle" x="554.04" y="-303.8" font-family="Times,serif" font-size="9.00">Fallback****</text>
</g>
<!-- Sequence*&#45;&gt;Fallback**** -->
<g id="edge19" class="edge">
<title>Sequence*&#45;&gt;Fallback****</title>
<path fill="none" stroke="black" d="M552.54,-359.7C552.76,-351.98 553.02,-342.71 553.27,-334.11"/>
<polygon fill="black" stroke="black" points="556.77,-334.2 553.56,-324.1 549.77,-334 556.77,-334.2"/>
</g>
<!-- 0 at pos (0.0, 0.05, 0.0)?* -->
<g id="node11" class="node">
<title>0 at pos (0.0, 0.05, 0.0)?*</title>
<ellipse fill="gray" stroke="black" cx="253.04" cy="-234" rx="62.21" ry="18"/>
<text text-anchor="middle" x="253.04" y="-231.8" font-family="Times,serif" font-size="9.00">0 at pos (0.0, 0.05, 0.0)?*</text>
</g>
<!-- Fallback**&#45;&gt;0 at pos (0.0, 0.05, 0.0)?* -->
<g id="edge10" class="edge">
<title>Fallback**&#45;&gt;0 at pos (0.0, 0.05, 0.0)?*</title>
<path fill="none" stroke="black" d="M348.04,-291.83C331.05,-281.67 307.22,-267.41 287.67,-255.72"/>
<polygon fill="black" stroke="black" points="289.42,-252.68 279.04,-250.55 285.82,-258.69 289.42,-252.68"/>
</g>
<!-- Sequence** -->
<g id="node12" class="node">
<title>Sequence**</title>
<polygon fill="cyan" stroke="black" points="406.79,-226.54 406.79,-241.46 385.26,-252 354.83,-252 333.3,-241.46 333.3,-226.54 354.83,-216 385.26,-216 406.79,-226.54"/>
<text text-anchor="middle" x="370.04" y="-231.8" font-family="Times,serif" font-size="9.00">Sequence**</text>
</g>
<!-- Fallback**&#45;&gt;Sequence** -->
<g id="edge11" class="edge">
<title>Fallback**&#45;&gt;Sequence**</title>
<path fill="none" stroke="black" d="M370.04,-287.7C370.04,-279.98 370.04,-270.71 370.04,-262.11"/>
<polygon fill="black" stroke="black" points="373.54,-262.1 370.04,-252.1 366.54,-262.1 373.54,-262.1"/>
</g>
<!-- pick 0!* -->
<g id="node13" class="node">
<title>pick 0!*</title>
<ellipse fill="gray" stroke="black" cx="253.04" cy="-162" rx="27" ry="18"/>
<text text-anchor="middle" x="253.04" y="-159.8" font-family="Times,serif" font-size="9.00">pick 0!*</text>
</g>
<!-- Sequence**&#45;&gt;pick 0!* -->
<g id="edge12" class="edge">
<title>Sequence**&#45;&gt;pick 0!*</title>
<path fill="none" stroke="black" d="M347.49,-219.5C328.6,-208.2 301.55,-192.02 281.24,-179.87"/>
<polygon fill="black" stroke="black" points="282.81,-176.73 272.43,-174.6 279.21,-182.74 282.81,-176.73"/>
</g>
<!-- place at (0.0, 0.05, 0.0)! -->
<g id="node14" class="node">
<title>place at (0.0, 0.05, 0.0)!</title>
<ellipse fill="gray" stroke="black" cx="356.04" cy="-162" rx="58.13" ry="18"/>
<text text-anchor="middle" x="356.04" y="-159.8" font-family="Times,serif" font-size="9.00">place at (0.0, 0.05, 0.0)!</text>
</g>
<!-- Sequence**&#45;&gt;place at (0.0, 0.05, 0.0)! -->
<g id="edge13" class="edge">
<title>Sequence**&#45;&gt;place at (0.0, 0.05, 0.0)!</title>
<path fill="none" stroke="black" d="M366.58,-215.7C365.04,-207.98 363.19,-198.71 361.47,-190.11"/>
<polygon fill="black" stroke="black" points="364.86,-189.22 359.47,-180.1 357.99,-190.6 364.86,-189.22"/>
</g>
<!-- Fallback*** -->
<g id="node15" class="node">
<title>Fallback***</title>
<polygon fill="cyan" stroke="black" points="507.53,-154.54 507.53,-169.46 485.57,-180 454.52,-180 432.55,-169.46 432.55,-154.54 454.52,-144 485.57,-144 507.53,-154.54"/>
<text text-anchor="middle" x="470.04" y="-159.8" font-family="Times,serif" font-size="9.00">Fallback***</text>
</g>
<!-- Sequence**&#45;&gt;Fallback*** -->
<g id="edge14" class="edge">
<title>Sequence**&#45;&gt;Fallback***</title>
<path fill="none" stroke="black" d="M390.76,-218.5C405.15,-208.43 424.52,-194.86 440.52,-183.67"/>
<polygon fill="black" stroke="black" points="442.82,-186.33 449.01,-177.73 438.81,-180.59 442.82,-186.33"/>
</g>
<!-- 1 on 0? -->
<g id="node16" class="node">
<title>1 on 0?</title>
<ellipse fill="gray" stroke="black" cx="427.04" cy="-90" rx="27" ry="18"/>
<text text-anchor="middle" x="427.04" y="-87.8" font-family="Times,serif" font-size="9.00">1 on 0?</text>
</g>
<!-- Fallback***&#45;&gt;1 on 0? -->
<g id="edge15" class="edge">
<title>Fallback***&#45;&gt;1 on 0?</title>
<path fill="none" stroke="black" d="M459.42,-143.7C454.27,-135.32 447.99,-125.1 442.34,-115.9"/>
<polygon fill="black" stroke="black" points="445.18,-113.83 436.96,-107.14 439.21,-117.5 445.18,-113.83"/>
</g>
<!-- Sequence*** -->
<g id="node17" class="node">
<title>Sequence***</title>
<polygon fill="cyan" stroke="black" points="552.03,-82.54 552.03,-97.46 528.61,-108 495.48,-108 472.05,-97.46 472.05,-82.54 495.48,-72 528.61,-72 552.03,-82.54"/>
<text text-anchor="middle" x="512.04" y="-87.8" font-family="Times,serif" font-size="9.00">Sequence***</text>
</g>
<!-- Fallback***&#45;&gt;Sequence*** -->
<g id="edge16" class="edge">
<title>Fallback***&#45;&gt;Sequence***</title>
<path fill="none" stroke="black" d="M480.43,-143.7C485.31,-135.56 491.23,-125.69 496.62,-116.7"/>
<polygon fill="black" stroke="black" points="499.64,-118.48 501.78,-108.1 493.64,-114.88 499.64,-118.48"/>
</g>
<!-- pick 1!* -->
<g id="node18" class="node">
<title>pick 1!*</title>
<ellipse fill="gray" stroke="black" cx="472.04" cy="-18" rx="27" ry="18"/>
<text text-anchor="middle" x="472.04" y="-15.8" font-family="Times,serif" font-size="9.00">pick 1!*</text>
</g>
<!-- Sequence***&#45;&gt;pick 1!* -->
<g id="edge17" class="edge">
<title>Sequence***&#45;&gt;pick 1!*</title>
<path fill="none" stroke="black" d="M502.16,-71.7C497.37,-63.32 491.53,-53.1 486.27,-43.9"/>
<polygon fill="black" stroke="black" points="489.27,-42.09 481.27,-35.14 483.19,-45.56 489.27,-42.09"/>
</g>
<!-- place on 0!* -->
<g id="node19" class="node">
<title>place on 0!*</title>
<ellipse fill="gray" stroke="black" cx="552.04" cy="-18" rx="34.78" ry="18"/>
<text text-anchor="middle" x="552.04" y="-15.8" font-family="Times,serif" font-size="9.00">place on 0!*</text>
</g>
<!-- Sequence***&#45;&gt;place on 0!* -->
<g id="edge18" class="edge">
<title>Sequence***&#45;&gt;place on 0!*</title>
<path fill="none" stroke="black" d="M521.93,-71.7C526.6,-63.52 532.27,-53.6 537.43,-44.58"/>
<polygon fill="black" stroke="black" points="540.62,-46.04 542.55,-35.62 534.55,-42.57 540.62,-46.04"/>
</g>
<!-- 1 on 0?* -->
<g id="node21" class="node">
<title>1 on 0?*</title>
<ellipse fill="gray" stroke="black" cx="466.04" cy="-234" rx="27.27" ry="18"/>
<text text-anchor="middle" x="466.04" y="-231.8" font-family="Times,serif" font-size="9.00">1 on 0?*</text>
</g>
<!-- Fallback****&#45;&gt;1 on 0?* -->
<g id="edge20" class="edge">
<title>Fallback****&#45;&gt;1 on 0?*</title>
<path fill="none" stroke="black" d="M534.08,-289.12C521.23,-278.89 504.43,-265.53 490.74,-254.65"/>
<polygon fill="black" stroke="black" points="492.69,-251.72 482.69,-248.24 488.33,-257.2 492.69,-251.72"/>
</g>
<!-- Sequence**** -->
<g id="node22" class="node">
<title>Sequence****</title>
<polygon fill="cyan" stroke="black" points="596.53,-226.54 596.53,-241.46 571.64,-252 536.44,-252 511.56,-241.46 511.56,-226.54 536.44,-216 571.64,-216 596.53,-226.54"/>
<text text-anchor="middle" x="554.04" y="-231.8" font-family="Times,serif" font-size="9.00">Sequence****</text>
</g>
<!-- Fallback****&#45;&gt;Sequence**** -->
<g id="edge21" class="edge">
<title>Fallback****&#45;&gt;Sequence****</title>
<path fill="none" stroke="black" d="M554.04,-287.7C554.04,-279.98 554.04,-270.71 554.04,-262.11"/>
<polygon fill="black" stroke="black" points="557.54,-262.1 554.04,-252.1 550.54,-262.1 557.54,-262.1"/>
</g>
<!-- apply force 1! -->
<g id="node25" class="node">
<title>apply force 1!</title>
<ellipse fill="gray" stroke="black" cx="653.04" cy="-234" rx="38.21" ry="18"/>
<text text-anchor="middle" x="653.04" y="-231.8" font-family="Times,serif" font-size="9.00">apply force 1!</text>
</g>
<!-- Fallback****&#45;&gt;apply force 1! -->
<g id="edge24" class="edge">
<title>Fallback****&#45;&gt;apply force 1!</title>
<path fill="none" stroke="black" d="M575.53,-289.81C589.82,-279.7 608.77,-266.3 624.36,-255.28"/>
<polygon fill="black" stroke="black" points="626.48,-258.07 632.62,-249.44 622.43,-252.36 626.48,-258.07"/>
</g>
<!-- pick 2! -->
<g id="node26" class="node">
<title>pick 2!</title>
<ellipse fill="gray" stroke="black" cx="736.04" cy="-234" rx="27" ry="18"/>
<text text-anchor="middle" x="736.04" y="-231.8" font-family="Times,serif" font-size="9.00">pick 2!</text>
</g>
<!-- Fallback****&#45;&gt;pick 2! -->
<g id="edge25" class="edge">
<title>Fallback****&#45;&gt;pick 2!</title>
<path fill="none" stroke="black" d="M585.7,-294.46C615.49,-284.32 661.21,-268.18 700.04,-252 701.86,-251.24 703.72,-250.44 705.59,-249.62"/>
<polygon fill="black" stroke="black" points="707.22,-252.73 714.87,-245.4 704.32,-246.35 707.22,-252.73"/>
</g>
<!-- pick 1!** -->
<g id="node23" class="node">
<title>pick 1!**</title>
<ellipse fill="gray" stroke="black" cx="554.04" cy="-162" rx="28.74" ry="18"/>
<text text-anchor="middle" x="554.04" y="-159.8" font-family="Times,serif" font-size="9.00">pick 1!**</text>
</g>
<!-- Sequence****&#45;&gt;pick 1!** -->
<g id="edge22" class="edge">
<title>Sequence****&#45;&gt;pick 1!**</title>
<path fill="none" stroke="black" d="M554.04,-215.7C554.04,-207.98 554.04,-198.71 554.04,-190.11"/>
<polygon fill="black" stroke="black" points="557.54,-190.1 554.04,-180.1 550.54,-190.1 557.54,-190.1"/>
</g>
<!-- place on 0!** -->
<g id="node24" class="node">
<title>place on 0!**</title>
<ellipse fill="gray" stroke="black" cx="638.04" cy="-162" rx="37.56" ry="18"/>
<text text-anchor="middle" x="638.04" y="-159.8" font-family="Times,serif" font-size="9.00">place on 0!**</text>
</g>
<!-- Sequence****&#45;&gt;place on 0!** -->
<g id="edge23" class="edge">
<title>Sequence****&#45;&gt;place on 0!**</title>
<path fill="none" stroke="black" d="M573.53,-216.76C585.06,-207.16 599.8,-194.87 612.28,-184.47"/>
<polygon fill="black" stroke="black" points="614.66,-187.04 620.1,-177.95 610.18,-181.67 614.66,-187.04"/>
</g>
<!-- 2 on 1? -->
<g id="node28" class="node">
<title>2 on 1?</title>
<ellipse fill="gray" stroke="black" cx="631.04" cy="-378" rx="27" ry="18"/>
<text text-anchor="middle" x="631.04" y="-375.8" font-family="Times,serif" font-size="9.00">2 on 1?</text>
</g>
<!-- Fallback*****&#45;&gt;2 on 1? -->
<g id="edge27" class="edge">
<title>Fallback*****&#45;&gt;2 on 1?</title>
<path fill="none" stroke="black" d="M664.17,-431.7C658.85,-423.23 652.34,-412.89 646.51,-403.61"/>
<polygon fill="black" stroke="black" points="649.48,-401.75 641.19,-395.14 643.55,-405.47 649.48,-401.75"/>
</g>
<!-- 1 on 0?** -->
<g id="node29" class="node">
<title>1 on 0?**</title>
<ellipse fill="gray" stroke="black" cx="706.04" cy="-378" rx="30.04" ry="18"/>
<text text-anchor="middle" x="706.04" y="-375.8" font-family="Times,serif" font-size="9.00">1 on 0?**</text>
</g>
<!-- Fallback*****&#45;&gt;1 on 0?** -->
<g id="edge28" class="edge">
<title>Fallback*****&#45;&gt;1 on 0?**</title>
<path fill="none" stroke="black" d="M682.71,-431.7C686.29,-423.61 690.63,-413.81 694.59,-404.87"/>
<polygon fill="black" stroke="black" points="697.83,-406.18 698.68,-395.62 691.43,-403.35 697.83,-406.18"/>
</g>
<!-- Sequence***** -->
<g id="node30" class="node">
<title>Sequence*****</title>
<polygon fill="cyan" stroke="black" points="845.78,-370.54 845.78,-385.46 818.99,-396 781.1,-396 754.31,-385.46 754.31,-370.54 781.1,-360 818.99,-360 845.78,-370.54"/>
<text text-anchor="middle" x="800.04" y="-375.8" font-family="Times,serif" font-size="9.00">Sequence*****</text>
</g>
<!-- Fallback*****&#45;&gt;Sequence***** -->
<g id="edge29" class="edge">
<title>Fallback*****&#45;&gt;Sequence*****</title>
<path fill="none" stroke="black" d="M700.34,-434.83C719.11,-424.32 744.91,-409.87 765.57,-398.31"/>
<polygon fill="black" stroke="black" points="767.34,-401.32 774.36,-393.38 763.92,-395.22 767.34,-401.32"/>
</g>
<!-- 1 on 0?*** -->
<g id="node34" class="node">
<title>1 on 0?***</title>
<ellipse fill="gray" stroke="black" cx="896.04" cy="-378" rx="32.16" ry="18"/>
<text text-anchor="middle" x="896.04" y="-375.8" font-family="Times,serif" font-size="9.00">1 on 0?***</text>
</g>
<!-- Fallback*****&#45;&gt;1 on 0?*** -->
<g id="edge33" class="edge">
<title>Fallback*****&#45;&gt;1 on 0?***</title>
<path fill="none" stroke="black" d="M707.71,-438.09C714.11,-436.02 720.77,-433.91 727.04,-432 783.59,-414.81 799.21,-415.35 855.04,-396 857.32,-395.21 859.65,-394.36 861.98,-393.48"/>
<polygon fill="black" stroke="black" points="863.49,-396.65 871.51,-389.73 860.92,-390.14 863.49,-396.65"/>
</g>
<!-- 1 at pos (0.0, 0.05, 0.0192)?* -->
<g id="node31" class="node">
<title>1 at pos (0.0, 0.05, 0.0192)?*</title>
<ellipse fill="gray" stroke="black" cx="685.04" cy="-306" rx="70.37" ry="18"/>
<text text-anchor="middle" x="685.04" y="-303.8" font-family="Times,serif" font-size="9.00">1 at pos (0.0, 0.05, 0.0192)?*</text>
</g>
<!-- Sequence*****&#45;&gt;1 at pos (0.0, 0.05, 0.0192)?* -->
<g id="edge30" class="edge">
<title>Sequence*****&#45;&gt;1 at pos (0.0, 0.05, 0.0192)?*</title>
<path fill="none" stroke="black" d="M775.37,-361.98C759.3,-352.2 738.08,-339.28 720.25,-328.43"/>
<polygon fill="black" stroke="black" points="721.64,-325.18 711.27,-322.97 718,-331.15 721.64,-325.18"/>
</g>
<!-- pick 2!* -->
<g id="node32" class="node">
<title>pick 2!*</title>
<ellipse fill="gray" stroke="black" cx="800.04" cy="-306" rx="27" ry="18"/>
<text text-anchor="middle" x="800.04" y="-303.8" font-family="Times,serif" font-size="9.00">pick 2!*</text>
</g>
<!-- Sequence*****&#45;&gt;pick 2!* -->
<g id="edge31" class="edge">
<title>Sequence*****&#45;&gt;pick 2!*</title>
<path fill="none" stroke="black" d="M800.04,-359.7C800.04,-351.98 800.04,-342.71 800.04,-334.11"/>
<polygon fill="black" stroke="black" points="803.54,-334.1 800.04,-324.1 796.54,-334.1 803.54,-334.1"/>
</g>
<!-- place on 1! -->
<g id="node33" class="node">
<title>place on 1!</title>
<ellipse fill="gray" stroke="black" cx="877.04" cy="-306" rx="32.16" ry="18"/>
<text text-anchor="middle" x="877.04" y="-303.8" font-family="Times,serif" font-size="9.00">place on 1!</text>
</g>
<!-- Sequence*****&#45;&gt;place on 1! -->
<g id="edge32" class="edge">
<title>Sequence*****&#45;&gt;place on 1!</title>
<path fill="none" stroke="black" d="M819.08,-359.7C829.4,-350.31 842.25,-338.63 853.23,-328.65"/>
<polygon fill="black" stroke="black" points="855.79,-331.05 860.83,-321.74 851.08,-325.88 855.79,-331.05"/>
</g>
</g>
</svg>
