<?xml version="1.0" encoding="UTF-8" standalone="no"?>
<!DOCTYPE svg PUBLIC "-//W3C//DTD SVG 1.1//EN"
 "http://www.w3.org/Graphics/SVG/1.1/DTD/svg11.dtd">
<!-- Generated by graphviz version 2.43.0 (0)
 -->
<!-- Title: pastafarianism Pages: 1 -->
<svg width="883pt" height="548pt"
 viewBox="0.00 0.00 883.38 548.00" xmlns="http://www.w3.org/2000/svg" xmlns:xlink="http://www.w3.org/1999/xlink">
<g id="graph0" class="graph" transform="scale(1 1) rotate(0) translate(4 544)">
<title>pastafarianism</title>
<polygon fill="white" stroke="transparent" points="-4,4 -4,-544 879.38,-544 879.38,4 -4,4"/>
<!-- Sequence -->
<g id="node1" class="node">
<title>Sequence</title>
<polygon fill="cyan" stroke="black" points="505.54,-514.54 505.54,-529.46 487.09,-540 461,-540 442.55,-529.46 442.55,-514.54 461,-504 487.09,-504 505.54,-514.54"/>
<text text-anchor="middle" x="474.04" y="-519.8" font-family="Times,serif" font-size="9.00">Sequence</text>
</g>
<!-- Fallback -->
<g id="node2" class="node">
<title>Fallback</title>
<polygon fill="cyan" stroke="black" points="201.29,-442.54 201.29,-457.46 184.16,-468 159.93,-468 142.8,-457.46 142.8,-442.54 159.93,-432 184.16,-432 201.29,-442.54"/>
<text text-anchor="middle" x="172.04" y="-447.8" font-family="Times,serif" font-size="9.00">Fallback</text>
</g>
<!-- Sequence&#45;&gt;Fallback -->
<g id="edge1" class="edge">
<title>Sequence&#45;&gt;Fallback</title>
<path fill="none" stroke="black" d="M443.43,-513.9C388.14,-501.09 271.76,-474.11 210.94,-460.02"/>
<polygon fill="black" stroke="black" points="211.5,-456.55 200.97,-457.7 209.92,-463.37 211.5,-456.55"/>
</g>
<!-- Fallback** -->
<g id="node9" class="node">
<title>Fallback**</title>
<polygon fill="cyan" stroke="black" points="449.04,-442.54 449.04,-457.46 428.54,-468 399.55,-468 379.05,-457.46 379.05,-442.54 399.55,-432 428.54,-432 449.04,-442.54"/>
<text text-anchor="middle" x="414.04" y="-447.8" font-family="Times,serif" font-size="9.00">Fallback**</text>
</g>
<!-- Sequence&#45;&gt;Fallback** -->
<g id="edge8" class="edge">
<title>Sequence&#45;&gt;Fallback**</title>
<path fill="none" stroke="black" d="M459.83,-504.41C452.57,-495.95 443.59,-485.47 435.51,-476.05"/>
<polygon fill="black" stroke="black" points="438.16,-473.76 429,-468.45 432.85,-478.32 438.16,-473.76"/>
</g>
<!-- Fallback****** -->
<g id="node29" class="node">
<title>Fallback******</title>
<polygon fill="cyan" stroke="black" points="580.53,-442.54 580.53,-457.46 553.3,-468 514.79,-468 487.56,-457.46 487.56,-442.54 514.79,-432 553.3,-432 580.53,-442.54"/>
<text text-anchor="middle" x="534.04" y="-447.8" font-family="Times,serif" font-size="9.00">Fallback******</text>
</g>
<!-- Sequence&#45;&gt;Fallback****** -->
<g id="edge28" class="edge">
<title>Sequence&#45;&gt;Fallback******</title>
<path fill="none" stroke="black" d="M488.26,-504.41C495.52,-495.95 504.5,-485.47 512.57,-476.05"/>
<polygon fill="black" stroke="black" points="515.24,-478.32 519.09,-468.45 509.92,-473.76 515.24,-478.32"/>
</g>
<!-- 1 on 0?* -->
<g id="node39" class="node">
<title>1 on 0?*</title>
<ellipse fill="gray" stroke="black" cx="625.04" cy="-450" rx="27.27" ry="18"/>
<text text-anchor="middle" x="625.04" y="-447.8" font-family="Times,serif" font-size="9.00">1 on 0?*</text>
</g>
<!-- Sequence&#45;&gt;1 on 0?* -->
<g id="edge38" class="edge">
<title>Sequence&#45;&gt;1 on 0?*</title>
<path fill="none" stroke="black" d="M497.86,-510.1C521.14,-499.43 557.57,-482.69 589.04,-468 590.64,-467.26 592.27,-466.49 593.92,-465.72"/>
<polygon fill="black" stroke="black" points="595.8,-468.7 603.36,-461.28 592.82,-462.37 595.8,-468.7"/>
</g>
<!-- 0 at pos (0.0, 0.05, 0.0)? -->
<g id="node3" class="node">
<title>0 at pos (0.0, 0.05, 0.0)?</title>
<ellipse fill="gray" stroke="black" cx="60.04" cy="-378" rx="60.09" ry="18"/>
<text text-anchor="middle" x="60.04" y="-375.8" font-family="Times,serif" font-size="9.00">0 at pos (0.0, 0.05, 0.0)?</text>
</g>
<!-- Fallback&#45;&gt;0 at pos (0.0, 0.05, 0.0)? -->
<g id="edge2" class="edge">
<title>Fallback&#45;&gt;0 at pos (0.0, 0.05, 0.0)?</title>
<path fill="none" stroke="black" d="M152.28,-436.65C136.12,-426.55 112.92,-412.05 93.82,-400.11"/>
<polygon fill="black" stroke="black" points="95.44,-397 85.11,-394.66 91.73,-402.93 95.44,-397"/>
</g>
<!-- Sequence* -->
<g id="node4" class="node">
<title>Sequence*</title>
<polygon fill="cyan" stroke="black" points="206.29,-370.54 206.29,-385.46 186.23,-396 157.86,-396 137.8,-385.46 137.8,-370.54 157.86,-360 186.23,-360 206.29,-370.54"/>
<text text-anchor="middle" x="172.04" y="-375.8" font-family="Times,serif" font-size="9.00">Sequence*</text>
</g>
<!-- Fallback&#45;&gt;Sequence* -->
<g id="edge3" class="edge">
<title>Fallback&#45;&gt;Sequence*</title>
<path fill="none" stroke="black" d="M172.04,-431.7C172.04,-423.98 172.04,-414.71 172.04,-406.11"/>
<polygon fill="black" stroke="black" points="175.54,-406.1 172.04,-396.1 168.54,-406.1 175.54,-406.1"/>
</g>
<!-- Fallback* -->
<g id="node5" class="node">
<title>Fallback*</title>
<polygon fill="cyan" stroke="black" points="119.79,-298.54 119.79,-313.46 101.19,-324 74.9,-324 56.3,-313.46 56.3,-298.54 74.9,-288 101.19,-288 119.79,-298.54"/>
<text text-anchor="middle" x="88.04" y="-303.8" font-family="Times,serif" font-size="9.00">Fallback*</text>
</g>
<!-- Sequence*&#45;&gt;Fallback* -->
<g id="edge4" class="edge">
<title>Sequence*&#45;&gt;Fallback*</title>
<path fill="none" stroke="black" d="M153.82,-361.81C141.99,-351.95 126.41,-338.97 113.38,-328.12"/>
<polygon fill="black" stroke="black" points="115.58,-325.39 105.66,-321.68 111.1,-330.77 115.58,-325.39"/>
</g>
<!-- place at (0.0, 0.05, 0.0)! -->
<g id="node8" class="node">
<title>place at (0.0, 0.05, 0.0)!</title>
<ellipse fill="gray" stroke="black" cx="196.04" cy="-306" rx="58.13" ry="18"/>
<text text-anchor="middle" x="196.04" y="-303.8" font-family="Times,serif" font-size="9.00">place at (0.0, 0.05, 0.0)!</text>
</g>
<!-- Sequence*&#45;&gt;place at (0.0, 0.05, 0.0)! -->
<g id="edge7" class="edge">
<title>Sequence*&#45;&gt;place at (0.0, 0.05, 0.0)!</title>
<path fill="none" stroke="black" d="M177.98,-359.7C180.65,-351.9 183.87,-342.51 186.85,-333.83"/>
<polygon fill="black" stroke="black" points="190.25,-334.7 190.18,-324.1 183.63,-332.43 190.25,-334.7"/>
</g>
<!-- picked 0? -->
<g id="node6" class="node">
<title>picked 0?</title>
<ellipse fill="gray" stroke="black" cx="84.04" cy="-234" rx="28.74" ry="18"/>
<text text-anchor="middle" x="84.04" y="-231.8" font-family="Times,serif" font-size="9.00">picked 0?</text>
</g>
<!-- Fallback*&#45;&gt;picked 0? -->
<g id="edge5" class="edge">
<title>Fallback*&#45;&gt;picked 0?</title>
<path fill="none" stroke="black" d="M87.06,-287.7C86.61,-279.98 86.09,-270.71 85.59,-262.11"/>
<polygon fill="black" stroke="black" points="89.09,-261.89 85.02,-252.1 82.1,-262.29 89.09,-261.89"/>
</g>
<!-- pick 0! -->
<g id="node7" class="node">
<title>pick 0!</title>
<ellipse fill="gray" stroke="black" cx="158.04" cy="-234" rx="27" ry="18"/>
<text text-anchor="middle" x="158.04" y="-231.8" font-family="Times,serif" font-size="9.00">pick 0!</text>
</g>
<!-- Fallback*&#45;&gt;pick 0! -->
<g id="edge6" class="edge">
<title>Fallback*&#45;&gt;pick 0!</title>
<path fill="none" stroke="black" d="M103.93,-289.12C113.54,-279.51 125.92,-267.13 136.41,-256.63"/>
<polygon fill="black" stroke="black" points="139.06,-258.94 143.65,-249.39 134.11,-253.99 139.06,-258.94"/>
</g>
<!-- 1 at pos (0.0, 0.05, 0.0192)? -->
<g id="node10" class="node">
<title>1 at pos (0.0, 0.05, 0.0192)?</title>
<ellipse fill="gray" stroke="black" cx="292.04" cy="-378" rx="67.6" ry="18"/>
<text text-anchor="middle" x="292.04" y="-375.8" font-family="Times,serif" font-size="9.00">1 at pos (0.0, 0.05, 0.0192)?</text>
</g>
<!-- Fallback**&#45;&gt;1 at pos (0.0, 0.05, 0.0192)? -->
<g id="edge9" class="edge">
<title>Fallback**&#45;&gt;1 at pos (0.0, 0.05, 0.0192)?</title>
<path fill="none" stroke="black" d="M391.38,-436C373.62,-425.8 348.55,-411.42 328.04,-399.65"/>
<polygon fill="black" stroke="black" points="329.69,-396.57 319.28,-394.62 326.21,-402.64 329.69,-396.57"/>
</g>
<!-- Sequence** -->
<g id="node11" class="node">
<title>Sequence**</title>
<polygon fill="cyan" stroke="black" points="450.79,-370.54 450.79,-385.46 429.26,-396 398.83,-396 377.3,-385.46 377.3,-370.54 398.83,-360 429.26,-360 450.79,-370.54"/>
<text text-anchor="middle" x="414.04" y="-375.8" font-family="Times,serif" font-size="9.00">Sequence**</text>
</g>
<!-- Fallback**&#45;&gt;Sequence** -->
<g id="edge10" class="edge">
<title>Fallback**&#45;&gt;Sequence**</title>
<path fill="none" stroke="black" d="M414.04,-431.7C414.04,-423.98 414.04,-414.71 414.04,-406.11"/>
<polygon fill="black" stroke="black" points="417.54,-406.1 414.04,-396.1 410.54,-406.1 417.54,-406.1"/>
</g>
<!-- Fallback*** -->
<g id="node12" class="node">
<title>Fallback***</title>
<polygon fill="cyan" stroke="black" points="357.53,-298.54 357.53,-313.46 335.57,-324 304.52,-324 282.55,-313.46 282.55,-298.54 304.52,-288 335.57,-288 357.53,-298.54"/>
<text text-anchor="middle" x="320.04" y="-303.8" font-family="Times,serif" font-size="9.00">Fallback***</text>
</g>
<!-- Sequence**&#45;&gt;Fallback*** -->
<g id="edge11" class="edge">
<title>Sequence**&#45;&gt;Fallback***</title>
<path fill="none" stroke="black" d="M394.11,-362.15C380.86,-352.29 363.27,-339.19 348.55,-328.23"/>
<polygon fill="black" stroke="black" points="350.39,-325.23 340.27,-322.07 346.2,-330.84 350.39,-325.23"/>
</g>
<!-- apply force 1! -->
<g id="node23" class="node">
<title>apply force 1!</title>
<ellipse fill="gray" stroke="black" cx="414.04" cy="-306" rx="38.21" ry="18"/>
<text text-anchor="middle" x="414.04" y="-303.8" font-family="Times,serif" font-size="9.00">apply force 1!</text>
</g>
<!-- Sequence**&#45;&gt;apply force 1! -->
<g id="edge22" class="edge">
<title>Sequence**&#45;&gt;apply force 1!</title>
<path fill="none" stroke="black" d="M414.04,-359.7C414.04,-351.98 414.04,-342.71 414.04,-334.11"/>
<polygon fill="black" stroke="black" points="417.54,-334.1 414.04,-324.1 410.54,-334.1 417.54,-334.1"/>
</g>
<!-- Fallback***** -->
<g id="node24" class="node">
<title>Fallback*****</title>
<polygon fill="cyan" stroke="black" points="556.28,-298.54 556.28,-313.46 530.95,-324 495.13,-324 469.81,-313.46 469.81,-298.54 495.13,-288 530.95,-288 556.28,-298.54"/>
<text text-anchor="middle" x="513.04" y="-303.8" font-family="Times,serif" font-size="9.00">Fallback*****</text>
</g>
<!-- Sequence**&#45;&gt;Fallback***** -->
<g id="edge23" class="edge">
<title>Sequence**&#45;&gt;Fallback*****</title>
<path fill="none" stroke="black" d="M434.56,-362.5C448.51,-352.63 467.21,-339.41 482.86,-328.35"/>
<polygon fill="black" stroke="black" points="485.04,-331.09 491.18,-322.46 481,-325.37 485.04,-331.09"/>
</g>
<!-- 1 on 0? -->
<g id="node13" class="node">
<title>1 on 0?</title>
<ellipse fill="gray" stroke="black" cx="245.04" cy="-234" rx="27" ry="18"/>
<text text-anchor="middle" x="245.04" y="-231.8" font-family="Times,serif" font-size="9.00">1 on 0?</text>
</g>
<!-- Fallback***&#45;&gt;1 on 0? -->
<g id="edge12" class="edge">
<title>Fallback***&#45;&gt;1 on 0?</title>
<path fill="none" stroke="black" d="M302.65,-288.76C292.24,-279.05 278.9,-266.6 267.68,-256.13"/>
<polygon fill="black" stroke="black" points="270.01,-253.51 260.31,-249.25 265.23,-258.63 270.01,-253.51"/>
</g>
<!-- Sequence*** -->
<g id="node14" class="node">
<title>Sequence***</title>
<polygon fill="cyan" stroke="black" points="370.03,-226.54 370.03,-241.46 346.61,-252 313.48,-252 290.05,-241.46 290.05,-226.54 313.48,-216 346.61,-216 370.03,-226.54"/>
<text text-anchor="middle" x="330.04" y="-231.8" font-family="Times,serif" font-size="9.00">Sequence***</text>
</g>
<!-- Fallback***&#45;&gt;Sequence*** -->
<g id="edge13" class="edge">
<title>Fallback***&#45;&gt;Sequence***</title>
<path fill="none" stroke="black" d="M322.52,-287.7C323.62,-279.98 324.94,-270.71 326.17,-262.11"/>
<polygon fill="black" stroke="black" points="329.65,-262.5 327.6,-252.1 322.72,-261.51 329.65,-262.5"/>
</g>
<!-- Fallback**** -->
<g id="node15" class="node">
<title>Fallback****</title>
<polygon fill="cyan" stroke="black" points="283.78,-154.54 283.78,-169.46 259.92,-180 226.17,-180 202.3,-169.46 202.3,-154.54 226.17,-144 259.92,-144 283.78,-154.54"/>
<text text-anchor="middle" x="243.04" y="-159.8" font-family="Times,serif" font-size="9.00">Fallback****</text>
</g>
<!-- Sequence***&#45;&gt;Fallback**** -->
<g id="edge14" class="edge">
<title>Sequence***&#45;&gt;Fallback****</title>
<path fill="none" stroke="black" d="M310.3,-217.12C298.62,-207.72 283.65,-195.67 270.79,-185.33"/>
<polygon fill="black" stroke="black" points="272.69,-182.36 262.71,-178.82 268.31,-187.82 272.69,-182.36"/>
</g>
<!-- pick 1!** -->
<g id="node21" class="node">
<title>pick 1!**</title>
<ellipse fill="gray" stroke="black" cx="330.04" cy="-162" rx="28.74" ry="18"/>
<text text-anchor="middle" x="330.04" y="-159.8" font-family="Times,serif" font-size="9.00">pick 1!**</text>
</g>
<!-- Sequence***&#45;&gt;pick 1!** -->
<g id="edge20" class="edge">
<title>Sequence***&#45;&gt;pick 1!**</title>
<path fill="none" stroke="black" d="M330.04,-215.7C330.04,-207.98 330.04,-198.71 330.04,-190.11"/>
<polygon fill="black" stroke="black" points="333.54,-190.1 330.04,-180.1 326.54,-190.1 333.54,-190.1"/>
</g>
<!-- place on 0!* -->
<g id="node22" class="node">
<title>place on 0!*</title>
<ellipse fill="gray" stroke="black" cx="412.04" cy="-162" rx="34.78" ry="18"/>
<text text-anchor="middle" x="412.04" y="-159.8" font-family="Times,serif" font-size="9.00">place on 0!*</text>
</g>
<!-- Sequence***&#45;&gt;place on 0!* -->
<g id="edge21" class="edge">
<title>Sequence***&#45;&gt;place on 0!*</title>
<path fill="none" stroke="black" d="M349.06,-216.76C360.4,-207.09 374.91,-194.7 387.15,-184.25"/>
<polygon fill="black" stroke="black" points="389.47,-186.87 394.8,-177.72 384.93,-181.55 389.47,-186.87"/>
</g>
<!-- picked 1? -->
<g id="node16" class="node">
<title>picked 1?</title>
<ellipse fill="gray" stroke="black" cx="169.04" cy="-90" rx="28.74" ry="18"/>
<text text-anchor="middle" x="169.04" y="-87.8" font-family="Times,serif" font-size="9.00">picked 1?</text>
</g>
<!-- Fallback****&#45;&gt;picked 1? -->
<g id="edge15" class="edge">
<title>Fallback****&#45;&gt;picked 1?</title>
<path fill="none" stroke="black" d="M225.13,-144.05C215.08,-134.55 202.44,-122.59 191.71,-112.44"/>
<polygon fill="black" stroke="black" points="193.96,-109.75 184.29,-105.42 189.15,-114.84 193.96,-109.75"/>
</g>
<!-- pick 1! -->
<g id="node17" class="node">
<title>pick 1!</title>
<ellipse fill="gray" stroke="black" cx="243.04" cy="-90" rx="27" ry="18"/>
<text text-anchor="middle" x="243.04" y="-87.8" font-family="Times,serif" font-size="9.00">pick 1!</text>
</g>
<!-- Fallback****&#45;&gt;pick 1! -->
<g id="edge16" class="edge">
<title>Fallback****&#45;&gt;pick 1!</title>
<path fill="none" stroke="black" d="M243.04,-143.7C243.04,-135.98 243.04,-126.71 243.04,-118.11"/>
<polygon fill="black" stroke="black" points="246.54,-118.1 243.04,-108.1 239.54,-118.1 246.54,-118.1"/>
</g>
<!-- Sequence**** -->
<g id="node18" class="node">
<title>Sequence****</title>
<polygon fill="cyan" stroke="black" points="372.53,-82.54 372.53,-97.46 347.64,-108 312.44,-108 287.56,-97.46 287.56,-82.54 312.44,-72 347.64,-72 372.53,-82.54"/>
<text text-anchor="middle" x="330.04" y="-87.8" font-family="Times,serif" font-size="9.00">Sequence****</text>
</g>
<!-- Fallback****&#45;&gt;Sequence**** -->
<g id="edge17" class="edge">
<title>Fallback****&#45;&gt;Sequence****</title>
<path fill="none" stroke="black" d="M262.79,-145.12C274.38,-135.78 289.23,-123.84 302.02,-113.55"/>
<polygon fill="black" stroke="black" points="304.48,-116.06 310.08,-107.06 300.09,-110.61 304.48,-116.06"/>
</g>
<!-- pick 1!* -->
<g id="node19" class="node">
<title>pick 1!*</title>
<ellipse fill="gray" stroke="black" cx="291.04" cy="-18" rx="27" ry="18"/>
<text text-anchor="middle" x="291.04" y="-15.8" font-family="Times,serif" font-size="9.00">pick 1!*</text>
</g>
<!-- Sequence****&#45;&gt;pick 1!* -->
<g id="edge18" class="edge">
<title>Sequence****&#45;&gt;pick 1!*</title>
<path fill="none" stroke="black" d="M320.4,-71.7C315.73,-63.32 310.04,-53.1 304.92,-43.9"/>
<polygon fill="black" stroke="black" points="307.96,-42.18 300.04,-35.14 301.85,-45.58 307.96,-42.18"/>
</g>
<!-- place on 0! -->
<g id="node20" class="node">
<title>place on 0!</title>
<ellipse fill="gray" stroke="black" cx="368.04" cy="-18" rx="32.16" ry="18"/>
<text text-anchor="middle" x="368.04" y="-15.8" font-family="Times,serif" font-size="9.00">place on 0!</text>
</g>
<!-- Sequence****&#45;&gt;place on 0! -->
<g id="edge19" class="edge">
<title>Sequence****&#45;&gt;place on 0!</title>
<path fill="none" stroke="black" d="M339.44,-71.7C343.87,-63.52 349.26,-53.6 354.16,-44.58"/>
<polygon fill="black" stroke="black" points="357.33,-46.08 359.02,-35.62 351.17,-42.74 357.33,-46.08"/>
</g>
<!-- 0 at pos (0.0, 0.05, 0.0)?* -->
<g id="node25" class="node">
<title>0 at pos (0.0, 0.05, 0.0)?*</title>
<ellipse fill="gray" stroke="black" cx="473.04" cy="-234" rx="62.21" ry="18"/>
<text text-anchor="middle" x="473.04" y="-231.8" font-family="Times,serif" font-size="9.00">0 at pos (0.0, 0.05, 0.0)?*</text>
</g>
<!-- Fallback*****&#45;&gt;0 at pos (0.0, 0.05, 0.0)?* -->
<g id="edge24" class="edge">
<title>Fallback*****&#45;&gt;0 at pos (0.0, 0.05, 0.0)?*</title>
<path fill="none" stroke="black" d="M503.16,-287.7C498.56,-279.64 492.98,-269.89 487.89,-260.98"/>
<polygon fill="black" stroke="black" points="490.82,-259.05 482.82,-252.1 484.74,-262.52 490.82,-259.05"/>
</g>
<!-- Sequence***** -->
<g id="node26" class="node">
<title>Sequence*****</title>
<polygon fill="cyan" stroke="black" points="644.78,-226.54 644.78,-241.46 617.99,-252 580.1,-252 553.31,-241.46 553.31,-226.54 580.1,-216 617.99,-216 644.78,-226.54"/>
<text text-anchor="middle" x="599.04" y="-231.8" font-family="Times,serif" font-size="9.00">Sequence*****</text>
</g>
<!-- Fallback*****&#45;&gt;Sequence***** -->
<g id="edge25" class="edge">
<title>Fallback*****&#45;&gt;Sequence*****</title>
<path fill="none" stroke="black" d="M532.99,-288.76C544.22,-279.62 558.44,-268.05 570.8,-257.99"/>
<polygon fill="black" stroke="black" points="573.06,-260.66 578.61,-251.63 568.64,-255.23 573.06,-260.66"/>
</g>
<!-- pick 0!* -->
<g id="node27" class="node">
<title>pick 0!*</title>
<ellipse fill="gray" stroke="black" cx="550.04" cy="-162" rx="27" ry="18"/>
<text text-anchor="middle" x="550.04" y="-159.8" font-family="Times,serif" font-size="9.00">pick 0!*</text>
</g>
<!-- Sequence*****&#45;&gt;pick 0!* -->
<g id="edge26" class="edge">
<title>Sequence*****&#45;&gt;pick 0!*</title>
<path fill="none" stroke="black" d="M586.93,-215.7C580.86,-207.02 573.4,-196.37 566.79,-186.92"/>
<polygon fill="black" stroke="black" points="569.62,-184.86 561.01,-178.67 563.88,-188.87 569.62,-184.86"/>
</g>
<!-- place at (0.0, 0.05, 0.0)!* -->
<g id="node28" class="node">
<title>place at (0.0, 0.05, 0.0)!*</title>
<ellipse fill="gray" stroke="black" cx="656.04" cy="-162" rx="61.4" ry="18"/>
<text text-anchor="middle" x="656.04" y="-159.8" font-family="Times,serif" font-size="9.00">place at (0.0, 0.05, 0.0)!*</text>
</g>
<!-- Sequence*****&#45;&gt;place at (0.0, 0.05, 0.0)!* -->
<g id="edge27" class="edge">
<title>Sequence*****&#45;&gt;place at (0.0, 0.05, 0.0)!*</title>
<path fill="none" stroke="black" d="M613.13,-215.7C620.07,-207.18 628.55,-196.76 636.14,-187.45"/>
<polygon fill="black" stroke="black" points="638.91,-189.59 642.51,-179.62 633.48,-185.17 638.91,-189.59"/>
</g>
<!-- 0 at pos (0.0, 0.05, 0.0)?** -->
<g id="node30" class="node">
<title>0 at pos (0.0, 0.05, 0.0)?**</title>
<ellipse fill="gray" stroke="black" cx="534.04" cy="-378" rx="65.48" ry="18"/>
<text text-anchor="middle" x="534.04" y="-375.8" font-family="Times,serif" font-size="9.00">0 at pos (0.0, 0.05, 0.0)?**</text>
</g>
<!-- Fallback******&#45;&gt;0 at pos (0.0, 0.05, 0.0)?** -->
<g id="edge29" class="edge">
<title>Fallback******&#45;&gt;0 at pos (0.0, 0.05, 0.0)?**</title>
<path fill="none" stroke="black" d="M534.04,-431.7C534.04,-423.98 534.04,-414.71 534.04,-406.11"/>
<polygon fill="black" stroke="black" points="537.54,-406.1 534.04,-396.1 530.54,-406.1 537.54,-406.1"/>
</g>
<!-- 2 at pos (0.0, 0.05, 0.0384)? -->
<g id="node31" class="node">
<title>2 at pos (0.0, 0.05, 0.0384)?</title>
<ellipse fill="gray" stroke="black" cx="685.04" cy="-378" rx="67.6" ry="18"/>
<text text-anchor="middle" x="685.04" y="-375.8" font-family="Times,serif" font-size="9.00">2 at pos (0.0, 0.05, 0.0384)?</text>
</g>
<!-- Fallback******&#45;&gt;2 at pos (0.0, 0.05, 0.0384)? -->
<g id="edge30" class="edge">
<title>Fallback******&#45;&gt;2 at pos (0.0, 0.05, 0.0384)?</title>
<path fill="none" stroke="black" d="M562.8,-435.67C585.74,-425.03 618.17,-410 643.86,-398.09"/>
<polygon fill="black" stroke="black" points="645.4,-401.24 653,-393.86 642.45,-394.89 645.4,-401.24"/>
</g>
<!-- Sequence****** -->
<g id="node32" class="node">
<title>Sequence******</title>
<polygon fill="cyan" stroke="black" points="867.28,-370.54 867.28,-385.46 839.03,-396 799.06,-396 770.81,-385.46 770.81,-370.54 799.06,-360 839.03,-360 867.28,-370.54"/>
<text text-anchor="middle" x="819.04" y="-375.8" font-family="Times,serif" font-size="9.00">Sequence******</text>
</g>
<!-- Fallback******&#45;&gt;Sequence****** -->
<g id="edge31" class="edge">
<title>Fallback******&#45;&gt;Sequence******</title>
<path fill="none" stroke="black" d="M568.52,-437.8C575.29,-435.75 582.37,-433.72 589.04,-432 665.09,-412.38 685.9,-415.24 762.04,-396 765.82,-395.05 769.72,-394 773.63,-392.92"/>
<polygon fill="black" stroke="black" points="774.64,-396.27 783.29,-390.17 772.72,-389.54 774.64,-396.27"/>
</g>
<!-- Fallback******* -->
<g id="node33" class="node">
<title>Fallback*******</title>
<polygon fill="cyan" stroke="black" points="780.03,-298.54 780.03,-313.46 751.34,-324 710.75,-324 682.06,-313.46 682.06,-298.54 710.75,-288 751.34,-288 780.03,-298.54"/>
<text text-anchor="middle" x="731.04" y="-303.8" font-family="Times,serif" font-size="9.00">Fallback*******</text>
</g>
<!-- Sequence******&#45;&gt;Fallback******* -->
<g id="edge32" class="edge">
<title>Sequence******&#45;&gt;Fallback*******</title>
<path fill="none" stroke="black" d="M797.74,-360.05C786.5,-351.11 772.54,-340.01 760.3,-330.27"/>
<polygon fill="black" stroke="black" points="762.16,-327.28 752.15,-323.79 757.8,-332.75 762.16,-327.28"/>
</g>
<!-- apply force 2! -->
<g id="node38" class="node">
<title>apply force 2!</title>
<ellipse fill="gray" stroke="black" cx="836.04" cy="-306" rx="38.21" ry="18"/>
<text text-anchor="middle" x="836.04" y="-303.8" font-family="Times,serif" font-size="9.00">apply force 2!</text>
</g>
<!-- Sequence******&#45;&gt;apply force 2! -->
<g id="edge37" class="edge">
<title>Sequence******&#45;&gt;apply force 2!</title>
<path fill="none" stroke="black" d="M823.25,-359.7C825.14,-351.9 827.42,-342.51 829.53,-333.83"/>
<polygon fill="black" stroke="black" points="832.93,-334.65 831.89,-324.1 826.13,-333 832.93,-334.65"/>
</g>
<!-- 2 on 1? -->
<g id="node34" class="node">
<title>2 on 1?</title>
<ellipse fill="gray" stroke="black" cx="708.04" cy="-234" rx="27" ry="18"/>
<text text-anchor="middle" x="708.04" y="-231.8" font-family="Times,serif" font-size="9.00">2 on 1?</text>
</g>
<!-- Fallback*******&#45;&gt;2 on 1? -->
<g id="edge33" class="edge">
<title>Fallback*******&#45;&gt;2 on 1?</title>
<path fill="none" stroke="black" d="M725.36,-287.7C722.8,-279.9 719.71,-270.51 716.86,-261.83"/>
<polygon fill="black" stroke="black" points="720.11,-260.51 713.66,-252.1 713.46,-262.7 720.11,-260.51"/>
</g>
<!-- Sequence******* -->
<g id="node35" class="node">
<title>Sequence*******</title>
<polygon fill="cyan" stroke="black" points="855.53,-226.54 855.53,-241.46 825.37,-252 782.72,-252 752.56,-241.46 752.56,-226.54 782.72,-216 825.37,-216 855.53,-226.54"/>
<text text-anchor="middle" x="804.04" y="-231.8" font-family="Times,serif" font-size="9.00">Sequence*******</text>
</g>
<!-- Fallback*******&#45;&gt;Sequence******* -->
<g id="edge34" class="edge">
<title>Fallback*******&#45;&gt;Sequence*******</title>
<path fill="none" stroke="black" d="M749.09,-287.7C758.11,-279.05 769.16,-268.45 778.99,-259.03"/>
<polygon fill="black" stroke="black" points="781.41,-261.55 786.21,-252.1 776.57,-256.5 781.41,-261.55"/>
</g>
<!-- picked 2? -->
<g id="node36" class="node">
<title>picked 2?</title>
<ellipse fill="gray" stroke="black" cx="764.04" cy="-162" rx="28.74" ry="18"/>
<text text-anchor="middle" x="764.04" y="-159.8" font-family="Times,serif" font-size="9.00">picked 2?</text>
</g>
<!-- Sequence*******&#45;&gt;picked 2? -->
<g id="edge35" class="edge">
<title>Sequence*******&#45;&gt;picked 2?</title>
<path fill="none" stroke="black" d="M794.16,-215.7C789.37,-207.32 783.53,-197.1 778.27,-187.9"/>
<polygon fill="black" stroke="black" points="781.27,-186.09 773.27,-179.14 775.19,-189.56 781.27,-186.09"/>
</g>
<!-- place on 1! -->
<g id="node37" class="node">
<title>place on 1!</title>
<ellipse fill="gray" stroke="black" cx="843.04" cy="-162" rx="32.16" ry="18"/>
<text text-anchor="middle" x="843.04" y="-159.8" font-family="Times,serif" font-size="9.00">place on 1!</text>
</g>
<!-- Sequence*******&#45;&gt;place on 1! -->
<g id="edge36" class="edge">
<title>Sequence*******&#45;&gt;place on 1!</title>
<path fill="none" stroke="black" d="M813.68,-215.7C818.24,-207.52 823.77,-197.6 828.79,-188.58"/>
<polygon fill="black" stroke="black" points="831.97,-190.06 833.78,-179.62 825.86,-186.65 831.97,-190.06"/>
</g>
</g>
</svg>
