<?xml version="1.0" encoding="UTF-8" standalone="no"?>
<!DOCTYPE svg PUBLIC "-//W3C//DTD SVG 1.1//EN"
 "http://www.w3.org/Graphics/SVG/1.1/DTD/svg11.dtd">
<!-- Generated by graphviz version 2.43.0 (0)
 -->
<!-- Title: pastafarianism Pages: 1 -->
<svg width="497pt" height="260pt"
 viewBox="0.00 0.00 497.15 260.00" xmlns="http://www.w3.org/2000/svg" xmlns:xlink="http://www.w3.org/1999/xlink">
<g id="graph0" class="graph" transform="scale(1 1) rotate(0) translate(4 256)">
<title>pastafarianism</title>
<polygon fill="white" stroke="transparent" points="-4,4 -4,-256 493.15,-256 493.15,4 -4,4"/>
<!-- Sequence -->
<g id="node1" class="node">
<title>Sequence</title>
<polygon fill="cyan" stroke="black" points="323.54,-226.54 323.54,-241.46 305.09,-252 279,-252 260.55,-241.46 260.55,-226.54 279,-216 305.09,-216 323.54,-226.54"/>
<text text-anchor="middle" x="292.04" y="-231.8" font-family="Times,serif" font-size="9.00">Sequence</text>
</g>
<!-- Fallback -->
<g id="node2" class="node">
<title>Fallback</title>
<polygon fill="cyan" stroke="black" points="201.29,-154.54 201.29,-169.46 184.16,-180 159.93,-180 142.8,-169.46 142.8,-154.54 159.93,-144 184.16,-144 201.29,-154.54"/>
<text text-anchor="middle" x="172.04" y="-159.8" font-family="Times,serif" font-size="9.00">Fallback</text>
</g>
<!-- Sequence&#45;&gt;Fallback -->
<g id="edge1" class="edge">
<title>Sequence&#45;&gt;Fallback</title>
<path fill="none" stroke="black" d="M270.87,-220.65C251.56,-209.38 222.84,-192.63 201.34,-180.09"/>
<polygon fill="black" stroke="black" points="203.01,-177.01 192.61,-175 199.48,-183.06 203.01,-177.01"/>
</g>
<!-- Fallback* -->
<g id="node7" class="node">
<title>Fallback*</title>
<polygon fill="cyan" stroke="black" points="323.79,-154.54 323.79,-169.46 305.19,-180 278.9,-180 260.3,-169.46 260.3,-154.54 278.9,-144 305.19,-144 323.79,-154.54"/>
<text text-anchor="middle" x="292.04" y="-159.8" font-family="Times,serif" font-size="9.00">Fallback*</text>
</g>
<!-- Sequence&#45;&gt;Fallback* -->
<g id="edge6" class="edge">
<title>Sequence&#45;&gt;Fallback*</title>
<path fill="none" stroke="black" d="M292.04,-215.7C292.04,-207.98 292.04,-198.71 292.04,-190.11"/>
<polygon fill="black" stroke="black" points="295.54,-190.1 292.04,-180.1 288.54,-190.1 295.54,-190.1"/>
</g>
<!-- apply force 2! -->
<g id="node12" class="node">
<title>apply force 2!</title>
<ellipse fill="gray" stroke="black" cx="380.04" cy="-162" rx="38.21" ry="18"/>
<text text-anchor="middle" x="380.04" y="-159.8" font-family="Times,serif" font-size="9.00">apply force 2!</text>
</g>
<!-- Sequence&#45;&gt;apply force 2! -->
<g id="edge11" class="edge">
<title>Sequence&#45;&gt;apply force 2!</title>
<path fill="none" stroke="black" d="M310.28,-218.5C322.73,-208.59 339.45,-195.29 353.39,-184.2"/>
<polygon fill="black" stroke="black" points="355.58,-186.93 361.23,-177.97 351.22,-181.45 355.58,-186.93"/>
</g>
<!-- 0 at pos (0.0, 0.05, 0.0)? -->
<g id="node3" class="node">
<title>0 at pos (0.0, 0.05, 0.0)?</title>
<ellipse fill="gray" stroke="black" cx="60.04" cy="-90" rx="60.09" ry="18"/>
<text text-anchor="middle" x="60.04" y="-87.8" font-family="Times,serif" font-size="9.00">0 at pos (0.0, 0.05, 0.0)?</text>
</g>
<!-- Fallback&#45;&gt;0 at pos (0.0, 0.05, 0.0)? -->
<g id="edge2" class="edge">
<title>Fallback&#45;&gt;0 at pos (0.0, 0.05, 0.0)?</title>
<path fill="none" stroke="black" d="M152.28,-148.65C136.12,-138.55 112.92,-124.05 93.82,-112.11"/>
<polygon fill="black" stroke="black" points="95.44,-109 85.11,-106.66 91.73,-114.93 95.44,-109"/>
</g>
<!-- Sequence* -->
<g id="node4" class="node">
<title>Sequence*</title>
<polygon fill="cyan" stroke="black" points="206.29,-82.54 206.29,-97.46 186.23,-108 157.86,-108 137.8,-97.46 137.8,-82.54 157.86,-72 186.23,-72 206.29,-82.54"/>
<text text-anchor="middle" x="172.04" y="-87.8" font-family="Times,serif" font-size="9.00">Sequence*</text>
</g>
<!-- Fallback&#45;&gt;Sequence* -->
<g id="edge3" class="edge">
<title>Fallback&#45;&gt;Sequence*</title>
<path fill="none" stroke="black" d="M172.04,-143.7C172.04,-135.98 172.04,-126.71 172.04,-118.11"/>
<polygon fill="black" stroke="black" points="175.54,-118.1 172.04,-108.1 168.54,-118.1 175.54,-118.1"/>
</g>
<!-- pick 0! -->
<g id="node5" class="node">
<title>pick 0!</title>
<ellipse fill="gray" stroke="black" cx="134.04" cy="-18" rx="27" ry="18"/>
<text text-anchor="middle" x="134.04" y="-15.8" font-family="Times,serif" font-size="9.00">pick 0!</text>
</g>
<!-- Sequence*&#45;&gt;pick 0! -->
<g id="edge4" class="edge">
<title>Sequence*&#45;&gt;pick 0!</title>
<path fill="none" stroke="black" d="M162.65,-71.7C158.15,-63.4 152.67,-53.31 147.72,-44.19"/>
<polygon fill="black" stroke="black" points="150.66,-42.26 142.81,-35.14 144.5,-45.6 150.66,-42.26"/>
</g>
<!-- place at (0.0, 0.05, 0.0)! -->
<g id="node6" class="node">
<title>place at (0.0, 0.05, 0.0)!</title>
<ellipse fill="gray" stroke="black" cx="237.04" cy="-18" rx="58.13" ry="18"/>
<text text-anchor="middle" x="237.04" y="-15.8" font-family="Times,serif" font-size="9.00">place at (0.0, 0.05, 0.0)!</text>
</g>
<!-- Sequence*&#45;&gt;place at (0.0, 0.05, 0.0)! -->
<g id="edge5" class="edge">
<title>Sequence*&#45;&gt;place at (0.0, 0.05, 0.0)!</title>
<path fill="none" stroke="black" d="M187.45,-72.41C195.62,-63.61 205.82,-52.63 214.83,-42.92"/>
<polygon fill="black" stroke="black" points="217.51,-45.18 221.75,-35.47 212.38,-40.42 217.51,-45.18"/>
</g>
<!-- 1 at pos (0.0, 0.05, 0.0192)? -->
<g id="node8" class="node">
<title>1 at pos (0.0, 0.05, 0.0192)?</title>
<ellipse fill="gray" stroke="black" cx="292.04" cy="-90" rx="67.6" ry="18"/>
<text text-anchor="middle" x="292.04" y="-87.8" font-family="Times,serif" font-size="9.00">1 at pos (0.0, 0.05, 0.0192)?</text>
</g>
<!-- Fallback*&#45;&gt;1 at pos (0.0, 0.05, 0.0192)? -->
<g id="edge7" class="edge">
<title>Fallback*&#45;&gt;1 at pos (0.0, 0.05, 0.0192)?</title>
<path fill="none" stroke="black" d="M292.04,-143.7C292.04,-135.98 292.04,-126.71 292.04,-118.11"/>
<polygon fill="black" stroke="black" points="295.54,-118.1 292.04,-108.1 288.54,-118.1 295.54,-118.1"/>
</g>
<!-- Sequence** -->
<g id="node9" class="node">
<title>Sequence**</title>
<polygon fill="cyan" stroke="black" points="450.79,-82.54 450.79,-97.46 429.26,-108 398.83,-108 377.3,-97.46 377.3,-82.54 398.83,-72 429.26,-72 450.79,-82.54"/>
<text text-anchor="middle" x="414.04" y="-87.8" font-family="Times,serif" font-size="9.00">Sequence**</text>
</g>
<!-- Fallback*&#45;&gt;Sequence** -->
<g id="edge8" class="edge">
<title>Fallback*&#45;&gt;Sequence**</title>
<path fill="none" stroke="black" d="M313.57,-148.65C332.49,-137.79 360.28,-121.85 381.84,-109.48"/>
<polygon fill="black" stroke="black" points="383.72,-112.44 390.65,-104.42 380.23,-106.36 383.72,-112.44"/>
</g>
<!-- 1 on 0? -->
<g id="node10" class="node">
<title>1 on 0?</title>
<ellipse fill="gray" stroke="black" cx="368.04" cy="-18" rx="27" ry="18"/>
<text text-anchor="middle" x="368.04" y="-15.8" font-family="Times,serif" font-size="9.00">1 on 0?</text>
</g>
<!-- Sequence**&#45;&gt;1 on 0? -->
<g id="edge9" class="edge">
<title>Sequence**&#45;&gt;1 on 0?</title>
<path fill="none" stroke="black" d="M402.67,-71.7C397.03,-63.11 390.11,-52.58 383.95,-43.21"/>
<polygon fill="black" stroke="black" points="386.76,-41.11 378.34,-34.67 380.91,-44.95 386.76,-41.11"/>
</g>
<!-- apply force 1! -->
<g id="node11" class="node">
<title>apply force 1!</title>
<ellipse fill="gray" stroke="black" cx="451.04" cy="-18" rx="38.21" ry="18"/>
<text text-anchor="middle" x="451.04" y="-15.8" font-family="Times,serif" font-size="9.00">apply force 1!</text>
</g>
<!-- Sequence**&#45;&gt;apply force 1! -->
<g id="edge10" class="edge">
<title>Sequence**&#45;&gt;apply force 1!</title>
<path fill="none" stroke="black" d="M423.19,-71.7C427.51,-63.52 432.75,-53.6 437.52,-44.58"/>
<polygon fill="black" stroke="black" points="440.68,-46.1 442.26,-35.62 434.49,-42.83 440.68,-46.1"/>
</g>
</g>
</svg>
