<?xml version="1.0" encoding="UTF-8" standalone="no"?>
<!DOCTYPE svg PUBLIC "-//W3C//DTD SVG 1.1//EN"
 "http://www.w3.org/Graphics/SVG/1.1/DTD/svg11.dtd">
<!-- Generated by graphviz version 2.43.0 (0)
 -->
<!-- Title: pastafarianism Pages: 1 -->
<svg width="747pt" height="476pt"
 viewBox="0.00 0.00 747.04 476.00" xmlns="http://www.w3.org/2000/svg" xmlns:xlink="http://www.w3.org/1999/xlink">
<g id="graph0" class="graph" transform="scale(1 1) rotate(0) translate(4 472)">
<title>pastafarianism</title>
<polygon fill="white" stroke="transparent" points="-4,4 -4,-472 743.04,-472 743.04,4 -4,4"/>
<!-- Sequence -->
<g id="node1" class="node">
<title>Sequence</title>
<polygon fill="cyan" stroke="black" points="384.54,-442.54 384.54,-457.46 366.09,-468 340,-468 321.55,-457.46 321.55,-442.54 340,-432 366.09,-432 384.54,-442.54"/>
<text text-anchor="middle" x="353.04" y="-447.8" font-family="Times,serif" font-size="9.00">Sequence</text>
</g>
<!-- Fallback -->
<g id="node2" class="node">
<title>Fallback</title>
<polygon fill="cyan" stroke="black" points="201.29,-370.54 201.29,-385.46 184.16,-396 159.93,-396 142.8,-385.46 142.8,-370.54 159.93,-360 184.16,-360 201.29,-370.54"/>
<text text-anchor="middle" x="172.04" y="-375.8" font-family="Times,serif" font-size="9.00">Fallback</text>
</g>
<!-- Sequence&#45;&gt;Fallback -->
<g id="edge1" class="edge">
<title>Sequence&#45;&gt;Fallback</title>
<path fill="none" stroke="black" d="M327.5,-439.12C295.7,-426.82 241.29,-405.78 206,-392.13"/>
<polygon fill="black" stroke="black" points="207.18,-388.84 196.59,-388.49 204.66,-395.37 207.18,-388.84"/>
</g>
<!-- Fallback** -->
<g id="node10" class="node">
<title>Fallback**</title>
<polygon fill="cyan" stroke="black" points="388.04,-370.54 388.04,-385.46 367.54,-396 338.55,-396 318.05,-385.46 318.05,-370.54 338.55,-360 367.54,-360 388.04,-370.54"/>
<text text-anchor="middle" x="353.04" y="-375.8" font-family="Times,serif" font-size="9.00">Fallback**</text>
</g>
<!-- Sequence&#45;&gt;Fallback** -->
<g id="edge9" class="edge">
<title>Sequence&#45;&gt;Fallback**</title>
<path fill="none" stroke="black" d="M353.04,-431.7C353.04,-423.98 353.04,-414.71 353.04,-406.11"/>
<polygon fill="black" stroke="black" points="356.54,-406.1 353.04,-396.1 349.54,-406.1 356.54,-406.1"/>
</g>
<!-- Fallback***** -->
<g id="node22" class="node">
<title>Fallback*****</title>
<polygon fill="cyan" stroke="black" points="579.28,-370.54 579.28,-385.46 553.95,-396 518.13,-396 492.81,-385.46 492.81,-370.54 518.13,-360 553.95,-360 579.28,-370.54"/>
<text text-anchor="middle" x="536.04" y="-375.8" font-family="Times,serif" font-size="9.00">Fallback*****</text>
</g>
<!-- Sequence&#45;&gt;Fallback***** -->
<g id="edge21" class="edge">
<title>Sequence&#45;&gt;Fallback*****</title>
<path fill="none" stroke="black" d="M378.88,-439.12C409.22,-427.51 459.95,-408.11 495.54,-394.49"/>
<polygon fill="black" stroke="black" points="497.06,-397.66 505.15,-390.82 494.56,-391.12 497.06,-397.66"/>
</g>
<!-- 0 at pos (0.0, 0.05, 0.0)? -->
<g id="node3" class="node">
<title>0 at pos (0.0, 0.05, 0.0)?</title>
<ellipse fill="gray" stroke="black" cx="60.04" cy="-306" rx="60.09" ry="18"/>
<text text-anchor="middle" x="60.04" y="-303.8" font-family="Times,serif" font-size="9.00">0 at pos (0.0, 0.05, 0.0)?</text>
</g>
<!-- Fallback&#45;&gt;0 at pos (0.0, 0.05, 0.0)? -->
<g id="edge2" class="edge">
<title>Fallback&#45;&gt;0 at pos (0.0, 0.05, 0.0)?</title>
<path fill="none" stroke="black" d="M152.28,-364.65C136.12,-354.55 112.92,-340.05 93.82,-328.11"/>
<polygon fill="black" stroke="black" points="95.44,-325 85.11,-322.66 91.73,-330.93 95.44,-325"/>
</g>
<!-- Sequence* -->
<g id="node4" class="node">
<title>Sequence*</title>
<polygon fill="cyan" stroke="black" points="206.29,-298.54 206.29,-313.46 186.23,-324 157.86,-324 137.8,-313.46 137.8,-298.54 157.86,-288 186.23,-288 206.29,-298.54"/>
<text text-anchor="middle" x="172.04" y="-303.8" font-family="Times,serif" font-size="9.00">Sequence*</text>
</g>
<!-- Fallback&#45;&gt;Sequence* -->
<g id="edge3" class="edge">
<title>Fallback&#45;&gt;Sequence*</title>
<path fill="none" stroke="black" d="M172.04,-359.7C172.04,-351.98 172.04,-342.71 172.04,-334.11"/>
<polygon fill="black" stroke="black" points="175.54,-334.1 172.04,-324.1 168.54,-334.1 175.54,-334.1"/>
</g>
<!-- Fallback* -->
<g id="node5" class="node">
<title>Fallback*</title>
<polygon fill="cyan" stroke="black" points="169.79,-226.54 169.79,-241.46 151.19,-252 124.9,-252 106.3,-241.46 106.3,-226.54 124.9,-216 151.19,-216 169.79,-226.54"/>
<text text-anchor="middle" x="138.04" y="-231.8" font-family="Times,serif" font-size="9.00">Fallback*</text>
</g>
<!-- Sequence*&#45;&gt;Fallback* -->
<g id="edge4" class="edge">
<title>Sequence*&#45;&gt;Fallback*</title>
<path fill="none" stroke="black" d="M163.64,-287.7C159.77,-279.73 155.09,-270.1 150.8,-261.26"/>
<polygon fill="black" stroke="black" points="153.87,-259.57 146.35,-252.1 147.57,-262.63 153.87,-259.57"/>
</g>
<!-- place at (0.0, 0.05, 0.0)! -->
<g id="node9" class="node">
<title>place at (0.0, 0.05, 0.0)!</title>
<ellipse fill="gray" stroke="black" cx="246.04" cy="-234" rx="58.13" ry="18"/>
<text text-anchor="middle" x="246.04" y="-231.8" font-family="Times,serif" font-size="9.00">place at (0.0, 0.05, 0.0)!</text>
</g>
<!-- Sequence*&#45;&gt;place at (0.0, 0.05, 0.0)! -->
<g id="edge8" class="edge">
<title>Sequence*&#45;&gt;place at (0.0, 0.05, 0.0)!</title>
<path fill="none" stroke="black" d="M188.84,-289.12C198.44,-280.03 210.67,-268.46 221.36,-258.35"/>
<polygon fill="black" stroke="black" points="223.95,-260.72 228.81,-251.31 219.14,-255.64 223.95,-260.72"/>
</g>
<!-- 1 on 0? -->
<g id="node6" class="node">
<title>1 on 0?</title>
<ellipse fill="gray" stroke="black" cx="64.04" cy="-162" rx="27" ry="18"/>
<text text-anchor="middle" x="64.04" y="-159.8" font-family="Times,serif" font-size="9.00">1 on 0?</text>
</g>
<!-- Fallback*&#45;&gt;1 on 0? -->
<g id="edge5" class="edge">
<title>Fallback*&#45;&gt;1 on 0?</title>
<path fill="none" stroke="black" d="M121.62,-217.46C111.24,-207.65 97.7,-194.83 86.35,-184.1"/>
<polygon fill="black" stroke="black" points="88.58,-181.39 78.91,-177.07 83.77,-186.48 88.58,-181.39"/>
</g>
<!-- picked 0? -->
<g id="node7" class="node">
<title>picked 0?</title>
<ellipse fill="gray" stroke="black" cx="138.04" cy="-162" rx="28.74" ry="18"/>
<text text-anchor="middle" x="138.04" y="-159.8" font-family="Times,serif" font-size="9.00">picked 0?</text>
</g>
<!-- Fallback*&#45;&gt;picked 0? -->
<g id="edge6" class="edge">
<title>Fallback*&#45;&gt;picked 0?</title>
<path fill="none" stroke="black" d="M138.04,-215.7C138.04,-207.98 138.04,-198.71 138.04,-190.11"/>
<polygon fill="black" stroke="black" points="141.54,-190.1 138.04,-180.1 134.54,-190.1 141.54,-190.1"/>
</g>
<!-- pick 0! -->
<g id="node8" class="node">
<title>pick 0!</title>
<ellipse fill="gray" stroke="black" cx="212.04" cy="-162" rx="27" ry="18"/>
<text text-anchor="middle" x="212.04" y="-159.8" font-family="Times,serif" font-size="9.00">pick 0!</text>
</g>
<!-- Fallback*&#45;&gt;pick 0! -->
<g id="edge7" class="edge">
<title>Fallback*&#45;&gt;pick 0!</title>
<path fill="none" stroke="black" d="M154.47,-217.46C164.85,-207.65 178.39,-194.83 189.74,-184.1"/>
<polygon fill="black" stroke="black" points="192.32,-186.48 197.18,-177.07 187.51,-181.39 192.32,-186.48"/>
</g>
<!-- 1 at pos (0.0, 0.05, 0.0192)? -->
<g id="node11" class="node">
<title>1 at pos (0.0, 0.05, 0.0192)?</title>
<ellipse fill="gray" stroke="black" cx="292.04" cy="-306" rx="67.6" ry="18"/>
<text text-anchor="middle" x="292.04" y="-303.8" font-family="Times,serif" font-size="9.00">1 at pos (0.0, 0.05, 0.0192)?</text>
</g>
<!-- Fallback**&#45;&gt;1 at pos (0.0, 0.05, 0.0192)? -->
<g id="edge10" class="edge">
<title>Fallback**&#45;&gt;1 at pos (0.0, 0.05, 0.0192)?</title>
<path fill="none" stroke="black" d="M338.28,-360.05C330.79,-351.46 321.55,-340.86 313.31,-331.4"/>
<polygon fill="black" stroke="black" points="315.88,-329.03 306.67,-323.79 310.61,-333.63 315.88,-329.03"/>
</g>
<!-- Sequence** -->
<g id="node12" class="node">
<title>Sequence**</title>
<polygon fill="cyan" stroke="black" points="450.79,-298.54 450.79,-313.46 429.26,-324 398.83,-324 377.3,-313.46 377.3,-298.54 398.83,-288 429.26,-288 450.79,-298.54"/>
<text text-anchor="middle" x="414.04" y="-303.8" font-family="Times,serif" font-size="9.00">Sequence**</text>
</g>
<!-- Fallback**&#45;&gt;Sequence** -->
<g id="edge11" class="edge">
<title>Fallback**&#45;&gt;Sequence**</title>
<path fill="none" stroke="black" d="M367.81,-360.05C375.19,-351.58 384.27,-341.17 392.42,-331.82"/>
<polygon fill="black" stroke="black" points="395.06,-334.11 398.99,-324.28 389.78,-329.51 395.06,-334.11"/>
</g>
<!-- Fallback*** -->
<g id="node13" class="node">
<title>Fallback***</title>
<polygon fill="cyan" stroke="black" points="407.53,-226.54 407.53,-241.46 385.57,-252 354.52,-252 332.55,-241.46 332.55,-226.54 354.52,-216 385.57,-216 407.53,-226.54"/>
<text text-anchor="middle" x="370.04" y="-231.8" font-family="Times,serif" font-size="9.00">Fallback***</text>
</g>
<!-- Sequence**&#45;&gt;Fallback*** -->
<g id="edge12" class="edge">
<title>Sequence**&#45;&gt;Fallback***</title>
<path fill="none" stroke="black" d="M403.17,-287.7C398.05,-279.56 391.85,-269.69 386.2,-260.7"/>
<polygon fill="black" stroke="black" points="389.08,-258.71 380.8,-252.1 383.15,-262.43 389.08,-258.71"/>
</g>
<!-- apply force 1! -->
<g id="node21" class="node">
<title>apply force 1!</title>
<ellipse fill="gray" stroke="black" cx="464.04" cy="-234" rx="38.21" ry="18"/>
<text text-anchor="middle" x="464.04" y="-231.8" font-family="Times,serif" font-size="9.00">apply force 1!</text>
</g>
<!-- Sequence**&#45;&gt;apply force 1! -->
<g id="edge20" class="edge">
<title>Sequence**&#45;&gt;apply force 1!</title>
<path fill="none" stroke="black" d="M426.4,-287.7C432.36,-279.35 439.63,-269.18 446.18,-260.02"/>
<polygon fill="black" stroke="black" points="449.21,-261.79 452.17,-251.62 443.51,-257.73 449.21,-261.79"/>
</g>
<!-- 1 on 0?* -->
<g id="node14" class="node">
<title>1 on 0?*</title>
<ellipse fill="gray" stroke="black" cx="343.04" cy="-162" rx="27.27" ry="18"/>
<text text-anchor="middle" x="343.04" y="-159.8" font-family="Times,serif" font-size="9.00">1 on 0?*</text>
</g>
<!-- Fallback***&#45;&gt;1 on 0?* -->
<g id="edge13" class="edge">
<title>Fallback***&#45;&gt;1 on 0?*</title>
<path fill="none" stroke="black" d="M363.37,-215.7C360.28,-207.7 356.55,-198.02 353.13,-189.15"/>
<polygon fill="black" stroke="black" points="356.32,-187.69 349.46,-179.62 349.79,-190.21 356.32,-187.69"/>
</g>
<!-- Sequence*** -->
<g id="node15" class="node">
<title>Sequence***</title>
<polygon fill="cyan" stroke="black" points="468.03,-154.54 468.03,-169.46 444.61,-180 411.48,-180 388.05,-169.46 388.05,-154.54 411.48,-144 444.61,-144 468.03,-154.54"/>
<text text-anchor="middle" x="428.04" y="-159.8" font-family="Times,serif" font-size="9.00">Sequence***</text>
</g>
<!-- Fallback***&#45;&gt;Sequence*** -->
<g id="edge14" class="edge">
<title>Fallback***&#45;&gt;Sequence***</title>
<path fill="none" stroke="black" d="M384.38,-215.7C391.33,-207.3 399.81,-197.07 407.45,-187.86"/>
<polygon fill="black" stroke="black" points="410.19,-190.04 413.87,-180.1 404.8,-185.57 410.19,-190.04"/>
</g>
<!-- Fallback**** -->
<g id="node16" class="node">
<title>Fallback****</title>
<polygon fill="cyan" stroke="black" points="407.78,-82.54 407.78,-97.46 383.92,-108 350.17,-108 326.3,-97.46 326.3,-82.54 350.17,-72 383.92,-72 407.78,-82.54"/>
<text text-anchor="middle" x="367.04" y="-87.8" font-family="Times,serif" font-size="9.00">Fallback****</text>
</g>
<!-- Sequence***&#45;&gt;Fallback**** -->
<g id="edge15" class="edge">
<title>Sequence***&#45;&gt;Fallback****</title>
<path fill="none" stroke="black" d="M412.97,-143.7C405.65,-135.3 396.73,-125.07 388.71,-115.86"/>
<polygon fill="black" stroke="black" points="391.16,-113.34 381.95,-108.1 385.88,-117.94 391.16,-113.34"/>
</g>
<!-- place on 0! -->
<g id="node20" class="node">
<title>place on 0!</title>
<ellipse fill="gray" stroke="black" cx="458.04" cy="-90" rx="32.16" ry="18"/>
<text text-anchor="middle" x="458.04" y="-87.8" font-family="Times,serif" font-size="9.00">place on 0!</text>
</g>
<!-- Sequence***&#45;&gt;place on 0! -->
<g id="edge19" class="edge">
<title>Sequence***&#45;&gt;place on 0!</title>
<path fill="none" stroke="black" d="M435.46,-143.7C438.93,-135.61 443.13,-125.81 446.96,-116.87"/>
<polygon fill="black" stroke="black" points="450.2,-118.19 450.92,-107.62 443.76,-115.44 450.2,-118.19"/>
</g>
<!-- picked 1? -->
<g id="node17" class="node">
<title>picked 1?</title>
<ellipse fill="gray" stroke="black" cx="293.04" cy="-18" rx="28.74" ry="18"/>
<text text-anchor="middle" x="293.04" y="-15.8" font-family="Times,serif" font-size="9.00">picked 1?</text>
</g>
<!-- Fallback****&#45;&gt;picked 1? -->
<g id="edge16" class="edge">
<title>Fallback****&#45;&gt;picked 1?</title>
<path fill="none" stroke="black" d="M349.13,-72.05C339.08,-62.55 326.44,-50.59 315.71,-40.44"/>
<polygon fill="black" stroke="black" points="317.96,-37.75 308.29,-33.42 313.15,-42.84 317.96,-37.75"/>
</g>
<!-- pick 1! -->
<g id="node18" class="node">
<title>pick 1!</title>
<ellipse fill="gray" stroke="black" cx="367.04" cy="-18" rx="27" ry="18"/>
<text text-anchor="middle" x="367.04" y="-15.8" font-family="Times,serif" font-size="9.00">pick 1!</text>
</g>
<!-- Fallback****&#45;&gt;pick 1! -->
<g id="edge17" class="edge">
<title>Fallback****&#45;&gt;pick 1!</title>
<path fill="none" stroke="black" d="M367.04,-71.7C367.04,-63.98 367.04,-54.71 367.04,-46.11"/>
<polygon fill="black" stroke="black" points="370.54,-46.1 367.04,-36.1 363.54,-46.1 370.54,-46.1"/>
</g>
<!-- picked 2? -->
<g id="node19" class="node">
<title>picked 2?</title>
<ellipse fill="gray" stroke="black" cx="441.04" cy="-18" rx="28.74" ry="18"/>
<text text-anchor="middle" x="441.04" y="-15.8" font-family="Times,serif" font-size="9.00">picked 2?</text>
</g>
<!-- Fallback****&#45;&gt;picked 2? -->
<g id="edge18" class="edge">
<title>Fallback****&#45;&gt;picked 2?</title>
<path fill="none" stroke="black" d="M384.96,-72.05C395.01,-62.55 407.65,-50.59 418.38,-40.44"/>
<polygon fill="black" stroke="black" points="420.94,-42.84 425.8,-33.42 416.13,-37.75 420.94,-42.84"/>
</g>
<!-- 2 at pos (0.0, 0.05, 0.0384)? -->
<g id="node23" class="node">
<title>2 at pos (0.0, 0.05, 0.0384)?</title>
<ellipse fill="gray" stroke="black" cx="536.04" cy="-306" rx="67.6" ry="18"/>
<text text-anchor="middle" x="536.04" y="-303.8" font-family="Times,serif" font-size="9.00">2 at pos (0.0, 0.05, 0.0384)?</text>
</g>
<!-- Fallback*****&#45;&gt;2 at pos (0.0, 0.05, 0.0384)? -->
<g id="edge22" class="edge">
<title>Fallback*****&#45;&gt;2 at pos (0.0, 0.05, 0.0384)?</title>
<path fill="none" stroke="black" d="M536.04,-359.7C536.04,-351.98 536.04,-342.71 536.04,-334.11"/>
<polygon fill="black" stroke="black" points="539.54,-334.1 536.04,-324.1 532.54,-334.1 539.54,-334.1"/>
</g>
<!-- Sequence**** -->
<g id="node24" class="node">
<title>Sequence****</title>
<polygon fill="cyan" stroke="black" points="706.53,-298.54 706.53,-313.46 681.64,-324 646.44,-324 621.56,-313.46 621.56,-298.54 646.44,-288 681.64,-288 706.53,-298.54"/>
<text text-anchor="middle" x="664.04" y="-303.8" font-family="Times,serif" font-size="9.00">Sequence****</text>
</g>
<!-- Fallback*****&#45;&gt;Sequence**** -->
<g id="edge23" class="edge">
<title>Fallback*****&#45;&gt;Sequence****</title>
<path fill="none" stroke="black" d="M561.64,-363C581.17,-352.32 608.28,-337.49 629.7,-325.78"/>
<polygon fill="black" stroke="black" points="631.4,-328.84 638.49,-320.97 628.04,-322.7 631.4,-328.84"/>
</g>
<!-- Fallback****** -->
<g id="node25" class="node">
<title>Fallback******</title>
<polygon fill="cyan" stroke="black" points="639.53,-226.54 639.53,-241.46 612.3,-252 573.79,-252 546.56,-241.46 546.56,-226.54 573.79,-216 612.3,-216 639.53,-226.54"/>
<text text-anchor="middle" x="593.04" y="-231.8" font-family="Times,serif" font-size="9.00">Fallback******</text>
</g>
<!-- Sequence****&#45;&gt;Fallback****** -->
<g id="edge24" class="edge">
<title>Sequence****&#45;&gt;Fallback******</title>
<path fill="none" stroke="black" d="M646.49,-287.7C637.81,-279.14 627.18,-268.66 617.7,-259.3"/>
<polygon fill="black" stroke="black" points="619.97,-256.63 610.39,-252.1 615.06,-261.62 619.97,-256.63"/>
</g>
<!-- apply force 2!* -->
<g id="node32" class="node">
<title>apply force 2!*</title>
<ellipse fill="gray" stroke="black" cx="698.04" cy="-234" rx="40.98" ry="18"/>
<text text-anchor="middle" x="698.04" y="-231.8" font-family="Times,serif" font-size="9.00">apply force 2!*</text>
</g>
<!-- Sequence****&#45;&gt;apply force 2!* -->
<g id="edge31" class="edge">
<title>Sequence****&#45;&gt;apply force 2!*</title>
<path fill="none" stroke="black" d="M672.45,-287.7C676.32,-279.73 681,-270.1 685.29,-261.26"/>
<polygon fill="black" stroke="black" points="688.52,-262.63 689.74,-252.1 682.22,-259.57 688.52,-262.63"/>
</g>
<!-- 2 on 1? -->
<g id="node26" class="node">
<title>2 on 1?</title>
<ellipse fill="gray" stroke="black" cx="534.04" cy="-162" rx="27" ry="18"/>
<text text-anchor="middle" x="534.04" y="-159.8" font-family="Times,serif" font-size="9.00">2 on 1?</text>
</g>
<!-- Fallback******&#45;&gt;2 on 1? -->
<g id="edge25" class="edge">
<title>Fallback******&#45;&gt;2 on 1?</title>
<path fill="none" stroke="black" d="M578.46,-215.7C570.89,-206.71 561.54,-195.62 553.37,-185.93"/>
<polygon fill="black" stroke="black" points="555.98,-183.59 546.86,-178.2 550.63,-188.1 555.98,-183.59"/>
</g>
<!-- Sequence***** -->
<g id="node27" class="node">
<title>Sequence*****</title>
<polygon fill="cyan" stroke="black" points="670.78,-154.54 670.78,-169.46 643.99,-180 606.1,-180 579.31,-169.46 579.31,-154.54 606.1,-144 643.99,-144 670.78,-154.54"/>
<text text-anchor="middle" x="625.04" y="-159.8" font-family="Times,serif" font-size="9.00">Sequence*****</text>
</g>
<!-- Fallback******&#45;&gt;Sequence***** -->
<g id="edge26" class="edge">
<title>Fallback******&#45;&gt;Sequence*****</title>
<path fill="none" stroke="black" d="M600.95,-215.7C604.6,-207.73 609,-198.1 613.04,-189.26"/>
<polygon fill="black" stroke="black" points="616.25,-190.65 617.23,-180.1 609.88,-187.74 616.25,-190.65"/>
</g>
<!-- Fallback******* -->
<g id="node28" class="node">
<title>Fallback*******</title>
<polygon fill="cyan" stroke="black" points="644.03,-82.54 644.03,-97.46 615.34,-108 574.75,-108 546.06,-97.46 546.06,-82.54 574.75,-72 615.34,-72 644.03,-82.54"/>
<text text-anchor="middle" x="595.04" y="-87.8" font-family="Times,serif" font-size="9.00">Fallback*******</text>
</g>
<!-- Sequence*****&#45;&gt;Fallback******* -->
<g id="edge27" class="edge">
<title>Sequence*****&#45;&gt;Fallback*******</title>
<path fill="none" stroke="black" d="M617.63,-143.7C614.25,-135.81 610.17,-126.3 606.42,-117.55"/>
<polygon fill="black" stroke="black" points="609.53,-115.92 602.37,-108.1 603.1,-118.67 609.53,-115.92"/>
</g>
<!-- place on 1! -->
<g id="node31" class="node">
<title>place on 1!</title>
<ellipse fill="gray" stroke="black" cx="694.04" cy="-90" rx="32.16" ry="18"/>
<text text-anchor="middle" x="694.04" y="-87.8" font-family="Times,serif" font-size="9.00">place on 1!</text>
</g>
<!-- Sequence*****&#45;&gt;place on 1! -->
<g id="edge30" class="edge">
<title>Sequence*****&#45;&gt;place on 1!</title>
<path fill="none" stroke="black" d="M642.1,-143.7C651.13,-134.53 662.33,-123.18 672.01,-113.35"/>
<polygon fill="black" stroke="black" points="674.53,-115.78 679.06,-106.2 669.55,-110.87 674.53,-115.78"/>
</g>
<!-- apply force 2! -->
<g id="node29" class="node">
<title>apply force 2!</title>
<ellipse fill="gray" stroke="black" cx="561.04" cy="-18" rx="38.21" ry="18"/>
<text text-anchor="middle" x="561.04" y="-15.8" font-family="Times,serif" font-size="9.00">apply force 2!</text>
</g>
<!-- Fallback*******&#45;&gt;apply force 2! -->
<g id="edge28" class="edge">
<title>Fallback*******&#45;&gt;apply force 2!</title>
<path fill="none" stroke="black" d="M586.64,-71.7C582.71,-63.61 577.95,-53.81 573.61,-44.87"/>
<polygon fill="black" stroke="black" points="576.64,-43.09 569.12,-35.62 570.34,-46.15 576.64,-43.09"/>
</g>
<!-- pick 2! -->
<g id="node30" class="node">
<title>pick 2!</title>
<ellipse fill="gray" stroke="black" cx="644.04" cy="-18" rx="27" ry="18"/>
<text text-anchor="middle" x="644.04" y="-15.8" font-family="Times,serif" font-size="9.00">pick 2!</text>
</g>
<!-- Fallback*******&#45;&gt;pick 2! -->
<g id="edge29" class="edge">
<title>Fallback*******&#45;&gt;pick 2!</title>
<path fill="none" stroke="black" d="M607.16,-71.7C613.23,-63.02 620.69,-52.37 627.3,-42.92"/>
<polygon fill="black" stroke="black" points="630.21,-44.87 633.07,-34.67 624.47,-40.86 630.21,-44.87"/>
</g>
</g>
</svg>
