<?xml version="1.0" encoding="UTF-8" standalone="no"?>
<!DOCTYPE svg PUBLIC "-//W3C//DTD SVG 1.1//EN"
 "http://www.w3.org/Graphics/SVG/1.1/DTD/svg11.dtd">
<!-- Generated by graphviz version 2.43.0 (0)
 -->
<!-- Title: pastafarianism Pages: 1 -->
<svg width="734pt" height="404pt"
 viewBox="0.00 0.00 734.38 404.00" xmlns="http://www.w3.org/2000/svg" xmlns:xlink="http://www.w3.org/1999/xlink">
<g id="graph0" class="graph" transform="scale(1 1) rotate(0) translate(4 400)">
<title>pastafarianism</title>
<polygon fill="white" stroke="transparent" points="-4,4 -4,-400 730.38,-400 730.38,4 -4,4"/>
<!-- Sequence -->
<g id="node1" class="node">
<title>Sequence</title>
<polygon fill="cyan" stroke="black" points="498.54,-370.54 498.54,-385.46 480.09,-396 454,-396 435.55,-385.46 435.55,-370.54 454,-360 480.09,-360 498.54,-370.54"/>
<text text-anchor="middle" x="467.04" y="-375.8" font-family="Times,serif" font-size="9.00">Sequence</text>
</g>
<!-- Fallback -->
<g id="node2" class="node">
<title>Fallback</title>
<polygon fill="cyan" stroke="black" points="201.29,-298.54 201.29,-313.46 184.16,-324 159.93,-324 142.8,-313.46 142.8,-298.54 159.93,-288 184.16,-288 201.29,-298.54"/>
<text text-anchor="middle" x="172.04" y="-303.8" font-family="Times,serif" font-size="9.00">Fallback</text>
</g>
<!-- Sequence&#45;&gt;Fallback -->
<g id="edge1" class="edge">
<title>Sequence&#45;&gt;Fallback</title>
<path fill="none" stroke="black" d="M436.59,-369.77C382.59,-356.96 270.2,-330.29 210.79,-316.19"/>
<polygon fill="black" stroke="black" points="211.57,-312.78 201.03,-313.88 209.95,-319.59 211.57,-312.78"/>
</g>
<!-- Fallback* -->
<g id="node7" class="node">
<title>Fallback*</title>
<polygon fill="cyan" stroke="black" points="455.79,-298.54 455.79,-313.46 437.19,-324 410.9,-324 392.3,-313.46 392.3,-298.54 410.9,-288 437.19,-288 455.79,-298.54"/>
<text text-anchor="middle" x="424.04" y="-303.8" font-family="Times,serif" font-size="9.00">Fallback*</text>
</g>
<!-- Sequence&#45;&gt;Fallback* -->
<g id="edge6" class="edge">
<title>Sequence&#45;&gt;Fallback*</title>
<path fill="none" stroke="black" d="M456.42,-359.7C451.42,-351.56 445.35,-341.69 439.83,-332.7"/>
<polygon fill="black" stroke="black" points="442.77,-330.79 434.55,-324.1 436.8,-334.46 442.77,-330.79"/>
</g>
<!-- Fallback*** -->
<g id="node17" class="node">
<title>Fallback***</title>
<polygon fill="cyan" stroke="black" points="586.53,-298.54 586.53,-313.46 564.57,-324 533.52,-324 511.55,-313.46 511.55,-298.54 533.52,-288 564.57,-288 586.53,-298.54"/>
<text text-anchor="middle" x="549.04" y="-303.8" font-family="Times,serif" font-size="9.00">Fallback***</text>
</g>
<!-- Sequence&#45;&gt;Fallback*** -->
<g id="edge16" class="edge">
<title>Sequence&#45;&gt;Fallback***</title>
<path fill="none" stroke="black" d="M484.43,-362.15C495.54,-352.67 510.15,-340.2 522.67,-329.51"/>
<polygon fill="black" stroke="black" points="525.21,-331.95 530.54,-322.8 520.66,-326.63 525.21,-331.95"/>
</g>
<!-- apply force 2! -->
<g id="node22" class="node">
<title>apply force 2!</title>
<ellipse fill="gray" stroke="black" cx="643.04" cy="-306" rx="38.21" ry="18"/>
<text text-anchor="middle" x="643.04" y="-303.8" font-family="Times,serif" font-size="9.00">apply force 2!</text>
</g>
<!-- Sequence&#45;&gt;apply force 2! -->
<g id="edge21" class="edge">
<title>Sequence&#45;&gt;apply force 2!</title>
<path fill="none" stroke="black" d="M492.64,-366.82C522.23,-355.05 571.21,-335.57 605.2,-322.05"/>
<polygon fill="black" stroke="black" points="606.8,-325.18 614.8,-318.23 604.21,-318.68 606.8,-325.18"/>
</g>
<!-- 0 at pos (0.0, 0.05, 0.0)? -->
<g id="node3" class="node">
<title>0 at pos (0.0, 0.05, 0.0)?</title>
<ellipse fill="gray" stroke="black" cx="60.04" cy="-234" rx="60.09" ry="18"/>
<text text-anchor="middle" x="60.04" y="-231.8" font-family="Times,serif" font-size="9.00">0 at pos (0.0, 0.05, 0.0)?</text>
</g>
<!-- Fallback&#45;&gt;0 at pos (0.0, 0.05, 0.0)? -->
<g id="edge2" class="edge">
<title>Fallback&#45;&gt;0 at pos (0.0, 0.05, 0.0)?</title>
<path fill="none" stroke="black" d="M152.28,-292.65C136.12,-282.55 112.92,-268.05 93.82,-256.11"/>
<polygon fill="black" stroke="black" points="95.44,-253 85.11,-250.66 91.73,-258.93 95.44,-253"/>
</g>
<!-- Sequence* -->
<g id="node4" class="node">
<title>Sequence*</title>
<polygon fill="cyan" stroke="black" points="206.29,-226.54 206.29,-241.46 186.23,-252 157.86,-252 137.8,-241.46 137.8,-226.54 157.86,-216 186.23,-216 206.29,-226.54"/>
<text text-anchor="middle" x="172.04" y="-231.8" font-family="Times,serif" font-size="9.00">Sequence*</text>
</g>
<!-- Fallback&#45;&gt;Sequence* -->
<g id="edge3" class="edge">
<title>Fallback&#45;&gt;Sequence*</title>
<path fill="none" stroke="black" d="M172.04,-287.7C172.04,-279.98 172.04,-270.71 172.04,-262.11"/>
<polygon fill="black" stroke="black" points="175.54,-262.1 172.04,-252.1 168.54,-262.1 175.54,-262.1"/>
</g>
<!-- pick 0! -->
<g id="node5" class="node">
<title>pick 0!</title>
<ellipse fill="gray" stroke="black" cx="121.04" cy="-162" rx="27" ry="18"/>
<text text-anchor="middle" x="121.04" y="-159.8" font-family="Times,serif" font-size="9.00">pick 0!</text>
</g>
<!-- Sequence*&#45;&gt;pick 0! -->
<g id="edge4" class="edge">
<title>Sequence*&#45;&gt;pick 0!</title>
<path fill="none" stroke="black" d="M159.44,-215.7C153.11,-207.02 145.36,-196.37 138.47,-186.92"/>
<polygon fill="black" stroke="black" points="141.18,-184.69 132.46,-178.67 135.52,-188.81 141.18,-184.69"/>
</g>
<!-- place at (0.0, 0.05, 0.0)! -->
<g id="node6" class="node">
<title>place at (0.0, 0.05, 0.0)!</title>
<ellipse fill="gray" stroke="black" cx="224.04" cy="-162" rx="58.13" ry="18"/>
<text text-anchor="middle" x="224.04" y="-159.8" font-family="Times,serif" font-size="9.00">place at (0.0, 0.05, 0.0)!</text>
</g>
<!-- Sequence*&#45;&gt;place at (0.0, 0.05, 0.0)! -->
<g id="edge5" class="edge">
<title>Sequence*&#45;&gt;place at (0.0, 0.05, 0.0)!</title>
<path fill="none" stroke="black" d="M184.9,-215.7C191.16,-207.27 198.81,-196.97 205.67,-187.73"/>
<polygon fill="black" stroke="black" points="208.54,-189.74 211.7,-179.62 202.92,-185.56 208.54,-189.74"/>
</g>
<!-- 1 at pos (0.0, 0.05, 0.0192)? -->
<g id="node8" class="node">
<title>1 at pos (0.0, 0.05, 0.0192)?</title>
<ellipse fill="gray" stroke="black" cx="292.04" cy="-234" rx="67.6" ry="18"/>
<text text-anchor="middle" x="292.04" y="-231.8" font-family="Times,serif" font-size="9.00">1 at pos (0.0, 0.05, 0.0192)?</text>
</g>
<!-- Fallback*&#45;&gt;1 at pos (0.0, 0.05, 0.0192)? -->
<g id="edge7" class="edge">
<title>Fallback*&#45;&gt;1 at pos (0.0, 0.05, 0.0192)?</title>
<path fill="none" stroke="black" d="M401.65,-293.13C382.04,-282.73 353.13,-267.4 329.93,-255.09"/>
<polygon fill="black" stroke="black" points="331.5,-251.96 321.03,-250.37 328.22,-258.15 331.5,-251.96"/>
</g>
<!-- 0 on 2? -->
<g id="node9" class="node">
<title>0 on 2?</title>
<ellipse fill="gray" stroke="black" cx="405.04" cy="-234" rx="27" ry="18"/>
<text text-anchor="middle" x="405.04" y="-231.8" font-family="Times,serif" font-size="9.00">0 on 2?</text>
</g>
<!-- Fallback*&#45;&gt;0 on 2? -->
<g id="edge8" class="edge">
<title>Fallback*&#45;&gt;0 on 2?</title>
<path fill="none" stroke="black" d="M419.35,-287.7C417.23,-279.9 414.68,-270.51 412.33,-261.83"/>
<polygon fill="black" stroke="black" points="415.68,-260.84 409.69,-252.1 408.93,-262.67 415.68,-260.84"/>
</g>
<!-- Sequence** -->
<g id="node10" class="node">
<title>Sequence**</title>
<polygon fill="cyan" stroke="black" points="523.79,-226.54 523.79,-241.46 502.26,-252 471.83,-252 450.3,-241.46 450.3,-226.54 471.83,-216 502.26,-216 523.79,-226.54"/>
<text text-anchor="middle" x="487.04" y="-231.8" font-family="Times,serif" font-size="9.00">Sequence**</text>
</g>
<!-- Fallback*&#45;&gt;Sequence** -->
<g id="edge9" class="edge">
<title>Fallback*&#45;&gt;Sequence**</title>
<path fill="none" stroke="black" d="M438.66,-288.76C446.46,-280.1 456.22,-269.25 464.93,-259.57"/>
<polygon fill="black" stroke="black" points="467.54,-261.9 471.63,-252.12 462.34,-257.22 467.54,-261.9"/>
</g>
<!-- Fallback** -->
<g id="node11" class="node">
<title>Fallback**</title>
<polygon fill="cyan" stroke="black" points="454.04,-154.54 454.04,-169.46 433.54,-180 404.55,-180 384.05,-169.46 384.05,-154.54 404.55,-144 433.54,-144 454.04,-154.54"/>
<text text-anchor="middle" x="419.04" y="-159.8" font-family="Times,serif" font-size="9.00">Fallback**</text>
</g>
<!-- Sequence**&#45;&gt;Fallback** -->
<g id="edge10" class="edge">
<title>Sequence**&#45;&gt;Fallback**</title>
<path fill="none" stroke="black" d="M470.93,-216.41C462.38,-207.61 451.71,-196.63 442.28,-186.92"/>
<polygon fill="black" stroke="black" points="444.52,-184.2 435.04,-179.47 439.5,-189.08 444.52,-184.2"/>
</g>
<!-- apply force 1! -->
<g id="node16" class="node">
<title>apply force 1!</title>
<ellipse fill="gray" stroke="black" cx="510.04" cy="-162" rx="38.21" ry="18"/>
<text text-anchor="middle" x="510.04" y="-159.8" font-family="Times,serif" font-size="9.00">apply force 1!</text>
</g>
<!-- Sequence**&#45;&gt;apply force 1! -->
<g id="edge15" class="edge">
<title>Sequence**&#45;&gt;apply force 1!</title>
<path fill="none" stroke="black" d="M492.73,-215.7C495.29,-207.9 498.38,-198.51 501.23,-189.83"/>
<polygon fill="black" stroke="black" points="504.63,-190.7 504.42,-180.1 497.98,-188.51 504.63,-190.7"/>
</g>
<!-- 1 on 0? -->
<g id="node12" class="node">
<title>1 on 0?</title>
<ellipse fill="gray" stroke="black" cx="376.04" cy="-90" rx="27" ry="18"/>
<text text-anchor="middle" x="376.04" y="-87.8" font-family="Times,serif" font-size="9.00">1 on 0?</text>
</g>
<!-- Fallback**&#45;&gt;1 on 0? -->
<g id="edge11" class="edge">
<title>Fallback**&#45;&gt;1 on 0?</title>
<path fill="none" stroke="black" d="M408.42,-143.7C403.27,-135.32 396.99,-125.1 391.34,-115.9"/>
<polygon fill="black" stroke="black" points="394.18,-113.83 385.96,-107.14 388.21,-117.5 394.18,-113.83"/>
</g>
<!-- Sequence*** -->
<g id="node13" class="node">
<title>Sequence***</title>
<polygon fill="cyan" stroke="black" points="501.03,-82.54 501.03,-97.46 477.61,-108 444.48,-108 421.05,-97.46 421.05,-82.54 444.48,-72 477.61,-72 501.03,-82.54"/>
<text text-anchor="middle" x="461.04" y="-87.8" font-family="Times,serif" font-size="9.00">Sequence***</text>
</g>
<!-- Fallback**&#45;&gt;Sequence*** -->
<g id="edge12" class="edge">
<title>Fallback**&#45;&gt;Sequence***</title>
<path fill="none" stroke="black" d="M429.43,-143.7C434.31,-135.56 440.23,-125.69 445.62,-116.7"/>
<polygon fill="black" stroke="black" points="448.64,-118.48 450.78,-108.1 442.64,-114.88 448.64,-118.48"/>
</g>
<!-- pick 1! -->
<g id="node14" class="node">
<title>pick 1!</title>
<ellipse fill="gray" stroke="black" cx="423.04" cy="-18" rx="27" ry="18"/>
<text text-anchor="middle" x="423.04" y="-15.8" font-family="Times,serif" font-size="9.00">pick 1!</text>
</g>
<!-- Sequence***&#45;&gt;pick 1! -->
<g id="edge13" class="edge">
<title>Sequence***&#45;&gt;pick 1!</title>
<path fill="none" stroke="black" d="M451.65,-71.7C447.15,-63.4 441.67,-53.31 436.72,-44.19"/>
<polygon fill="black" stroke="black" points="439.66,-42.26 431.81,-35.14 433.5,-45.6 439.66,-42.26"/>
</g>
<!-- place on 0! -->
<g id="node15" class="node">
<title>place on 0!</title>
<ellipse fill="gray" stroke="black" cx="500.04" cy="-18" rx="32.16" ry="18"/>
<text text-anchor="middle" x="500.04" y="-15.8" font-family="Times,serif" font-size="9.00">place on 0!</text>
</g>
<!-- Sequence***&#45;&gt;place on 0! -->
<g id="edge14" class="edge">
<title>Sequence***&#45;&gt;place on 0!</title>
<path fill="none" stroke="black" d="M470.68,-71.7C475.24,-63.52 480.77,-53.6 485.79,-44.58"/>
<polygon fill="black" stroke="black" points="488.97,-46.06 490.78,-35.62 482.86,-42.65 488.97,-46.06"/>
</g>
<!-- 2 on 1? -->
<g id="node18" class="node">
<title>2 on 1?</title>
<ellipse fill="gray" stroke="black" cx="569.04" cy="-234" rx="27" ry="18"/>
<text text-anchor="middle" x="569.04" y="-231.8" font-family="Times,serif" font-size="9.00">2 on 1?</text>
</g>
<!-- Fallback***&#45;&gt;2 on 1? -->
<g id="edge17" class="edge">
<title>Fallback***&#45;&gt;2 on 1?</title>
<path fill="none" stroke="black" d="M553.99,-287.7C556.22,-279.9 558.9,-270.51 561.38,-261.83"/>
<polygon fill="black" stroke="black" points="564.78,-262.68 564.16,-252.1 558.04,-260.76 564.78,-262.68"/>
</g>
<!-- Sequence**** -->
<g id="node19" class="node">
<title>Sequence****</title>
<polygon fill="cyan" stroke="black" points="698.53,-226.54 698.53,-241.46 673.64,-252 638.44,-252 613.56,-241.46 613.56,-226.54 638.44,-216 673.64,-216 698.53,-226.54"/>
<text text-anchor="middle" x="656.04" y="-231.8" font-family="Times,serif" font-size="9.00">Sequence****</text>
</g>
<!-- Fallback***&#45;&gt;Sequence**** -->
<g id="edge18" class="edge">
<title>Fallback***&#45;&gt;Sequence****</title>
<path fill="none" stroke="black" d="M570.7,-290.83C586.19,-280.7 607.3,-266.89 624.64,-255.55"/>
<polygon fill="black" stroke="black" points="626.86,-258.27 633.32,-249.87 623.03,-252.42 626.86,-258.27"/>
</g>
<!-- pick 2! -->
<g id="node20" class="node">
<title>pick 2!</title>
<ellipse fill="gray" stroke="black" cx="617.04" cy="-162" rx="27" ry="18"/>
<text text-anchor="middle" x="617.04" y="-159.8" font-family="Times,serif" font-size="9.00">pick 2!</text>
</g>
<!-- Sequence****&#45;&gt;pick 2! -->
<g id="edge19" class="edge">
<title>Sequence****&#45;&gt;pick 2!</title>
<path fill="none" stroke="black" d="M646.4,-215.7C641.73,-207.32 636.04,-197.1 630.92,-187.9"/>
<polygon fill="black" stroke="black" points="633.96,-186.18 626.04,-179.14 627.85,-189.58 633.96,-186.18"/>
</g>
<!-- place on 1! -->
<g id="node21" class="node">
<title>place on 1!</title>
<ellipse fill="gray" stroke="black" cx="694.04" cy="-162" rx="32.16" ry="18"/>
<text text-anchor="middle" x="694.04" y="-159.8" font-family="Times,serif" font-size="9.00">place on 1!</text>
</g>
<!-- Sequence****&#45;&gt;place on 1! -->
<g id="edge20" class="edge">
<title>Sequence****&#45;&gt;place on 1!</title>
<path fill="none" stroke="black" d="M665.44,-215.7C669.87,-207.52 675.26,-197.6 680.16,-188.58"/>
<polygon fill="black" stroke="black" points="683.33,-190.08 685.02,-179.62 677.17,-186.74 683.33,-190.08"/>
</g>
</g>
</svg>
