<?xml version="1.0" encoding="UTF-8" standalone="no"?>
<!DOCTYPE svg PUBLIC "-//W3C//DTD SVG 1.1//EN"
 "http://www.w3.org/Graphics/SVG/1.1/DTD/svg11.dtd">
<!-- Generated by graphviz version 2.43.0 (0)
 -->
<!-- Title: pastafarianism Pages: 1 -->
<svg width="735pt" height="404pt"
 viewBox="0.00 0.00 735.15 404.00" xmlns="http://www.w3.org/2000/svg" xmlns:xlink="http://www.w3.org/1999/xlink">
<g id="graph0" class="graph" transform="scale(1 1) rotate(0) translate(4 400)">
<title>pastafarianism</title>
<polygon fill="white" stroke="transparent" points="-4,4 -4,-400 731.15,-400 731.15,4 -4,4"/>
<!-- Sequence -->
<g id="node1" class="node">
<title>Sequence</title>
<polygon fill="cyan" stroke="black" points="527.54,-370.54 527.54,-385.46 509.09,-396 483,-396 464.55,-385.46 464.55,-370.54 483,-360 509.09,-360 527.54,-370.54"/>
<text text-anchor="middle" x="496.04" y="-375.8" font-family="Times,serif" font-size="9.00">Sequence</text>
</g>
<!-- Fallback -->
<g id="node2" class="node">
<title>Fallback</title>
<polygon fill="cyan" stroke="black" points="201.29,-298.54 201.29,-313.46 184.16,-324 159.93,-324 142.8,-313.46 142.8,-298.54 159.93,-288 184.16,-288 201.29,-298.54"/>
<text text-anchor="middle" x="172.04" y="-303.8" font-family="Times,serif" font-size="9.00">Fallback</text>
</g>
<!-- Sequence&#45;&gt;Fallback -->
<g id="edge1" class="edge">
<title>Sequence&#45;&gt;Fallback</title>
<path fill="none" stroke="black" d="M464.98,-370.29C405.74,-357.49 276.75,-329.62 211.51,-315.53"/>
<polygon fill="black" stroke="black" points="212.12,-312.08 201.61,-313.39 210.64,-318.92 212.12,-312.08"/>
</g>
<!-- Fallback* -->
<g id="node8" class="node">
<title>Fallback*</title>
<polygon fill="cyan" stroke="black" points="440.79,-298.54 440.79,-313.46 422.19,-324 395.9,-324 377.3,-313.46 377.3,-298.54 395.9,-288 422.19,-288 440.79,-298.54"/>
<text text-anchor="middle" x="409.04" y="-303.8" font-family="Times,serif" font-size="9.00">Fallback*</text>
</g>
<!-- Sequence&#45;&gt;Fallback* -->
<g id="edge7" class="edge">
<title>Sequence&#45;&gt;Fallback*</title>
<path fill="none" stroke="black" d="M478.02,-362.5C465.65,-352.55 449.05,-339.19 435.23,-328.07"/>
<polygon fill="black" stroke="black" points="437.03,-325.03 427.05,-321.49 432.64,-330.48 437.03,-325.03"/>
</g>
<!-- Fallback*** -->
<g id="node17" class="node">
<title>Fallback***</title>
<polygon fill="cyan" stroke="black" points="533.53,-298.54 533.53,-313.46 511.57,-324 480.52,-324 458.55,-313.46 458.55,-298.54 480.52,-288 511.57,-288 533.53,-298.54"/>
<text text-anchor="middle" x="496.04" y="-303.8" font-family="Times,serif" font-size="9.00">Fallback***</text>
</g>
<!-- Sequence&#45;&gt;Fallback*** -->
<g id="edge16" class="edge">
<title>Sequence&#45;&gt;Fallback***</title>
<path fill="none" stroke="black" d="M496.04,-359.7C496.04,-351.98 496.04,-342.71 496.04,-334.11"/>
<polygon fill="black" stroke="black" points="499.54,-334.1 496.04,-324.1 492.54,-334.1 499.54,-334.1"/>
</g>
<!-- apply force 2!* -->
<g id="node22" class="node">
<title>apply force 2!*</title>
<ellipse fill="gray" stroke="black" cx="592.04" cy="-306" rx="40.98" ry="18"/>
<text text-anchor="middle" x="592.04" y="-303.8" font-family="Times,serif" font-size="9.00">apply force 2!*</text>
</g>
<!-- Sequence&#45;&gt;apply force 2!* -->
<g id="edge21" class="edge">
<title>Sequence&#45;&gt;apply force 2!*</title>
<path fill="none" stroke="black" d="M515.01,-363.17C528.84,-353.08 547.83,-339.24 563.49,-327.82"/>
<polygon fill="black" stroke="black" points="565.77,-330.49 571.79,-321.77 561.65,-324.83 565.77,-330.49"/>
</g>
<!-- apply force 0! -->
<g id="node23" class="node">
<title>apply force 0!</title>
<ellipse fill="gray" stroke="black" cx="689.04" cy="-306" rx="38.21" ry="18"/>
<text text-anchor="middle" x="689.04" y="-303.8" font-family="Times,serif" font-size="9.00">apply force 0!</text>
</g>
<!-- Sequence&#45;&gt;apply force 0! -->
<g id="edge22" class="edge">
<title>Sequence&#45;&gt;apply force 0!</title>
<path fill="none" stroke="black" d="M522.48,-367.41C555.46,-355.45 612.12,-334.9 650.08,-321.13"/>
<polygon fill="black" stroke="black" points="651.57,-324.31 659.78,-317.61 649.19,-317.73 651.57,-324.31"/>
</g>
<!-- 0 at pos (0.0, 0.05, 0.0)? -->
<g id="node3" class="node">
<title>0 at pos (0.0, 0.05, 0.0)?</title>
<ellipse fill="gray" stroke="black" cx="60.04" cy="-234" rx="60.09" ry="18"/>
<text text-anchor="middle" x="60.04" y="-231.8" font-family="Times,serif" font-size="9.00">0 at pos (0.0, 0.05, 0.0)?</text>
</g>
<!-- Fallback&#45;&gt;0 at pos (0.0, 0.05, 0.0)? -->
<g id="edge2" class="edge">
<title>Fallback&#45;&gt;0 at pos (0.0, 0.05, 0.0)?</title>
<path fill="none" stroke="black" d="M152.28,-292.65C136.12,-282.55 112.92,-268.05 93.82,-256.11"/>
<polygon fill="black" stroke="black" points="95.44,-253 85.11,-250.66 91.73,-258.93 95.44,-253"/>
</g>
<!-- Sequence* -->
<g id="node4" class="node">
<title>Sequence*</title>
<polygon fill="cyan" stroke="black" points="206.29,-226.54 206.29,-241.46 186.23,-252 157.86,-252 137.8,-241.46 137.8,-226.54 157.86,-216 186.23,-216 206.29,-226.54"/>
<text text-anchor="middle" x="172.04" y="-231.8" font-family="Times,serif" font-size="9.00">Sequence*</text>
</g>
<!-- Fallback&#45;&gt;Sequence* -->
<g id="edge3" class="edge">
<title>Fallback&#45;&gt;Sequence*</title>
<path fill="none" stroke="black" d="M172.04,-287.7C172.04,-279.98 172.04,-270.71 172.04,-262.11"/>
<polygon fill="black" stroke="black" points="175.54,-262.1 172.04,-252.1 168.54,-262.1 175.54,-262.1"/>
</g>
<!-- pick 0! -->
<g id="node5" class="node">
<title>pick 0!</title>
<ellipse fill="gray" stroke="black" cx="69.04" cy="-162" rx="27" ry="18"/>
<text text-anchor="middle" x="69.04" y="-159.8" font-family="Times,serif" font-size="9.00">pick 0!</text>
</g>
<!-- Sequence*&#45;&gt;pick 0! -->
<g id="edge4" class="edge">
<title>Sequence*&#45;&gt;pick 0!</title>
<path fill="none" stroke="black" d="M151.69,-219.17C135.72,-208.31 113.34,-193.1 95.89,-181.25"/>
<polygon fill="black" stroke="black" points="97.52,-178.12 87.28,-175.39 93.58,-183.91 97.52,-178.12"/>
</g>
<!-- place at (0.0, 0.05, 0.0)! -->
<g id="node6" class="node">
<title>place at (0.0, 0.05, 0.0)!</title>
<ellipse fill="gray" stroke="black" cx="172.04" cy="-162" rx="58.13" ry="18"/>
<text text-anchor="middle" x="172.04" y="-159.8" font-family="Times,serif" font-size="9.00">place at (0.0, 0.05, 0.0)!</text>
</g>
<!-- Sequence*&#45;&gt;place at (0.0, 0.05, 0.0)! -->
<g id="edge5" class="edge">
<title>Sequence*&#45;&gt;place at (0.0, 0.05, 0.0)!</title>
<path fill="none" stroke="black" d="M172.04,-215.7C172.04,-207.98 172.04,-198.71 172.04,-190.11"/>
<polygon fill="black" stroke="black" points="175.54,-190.1 172.04,-180.1 168.54,-190.1 175.54,-190.1"/>
</g>
<!-- apply force 2! -->
<g id="node7" class="node">
<title>apply force 2!</title>
<ellipse fill="gray" stroke="black" cx="286.04" cy="-162" rx="38.21" ry="18"/>
<text text-anchor="middle" x="286.04" y="-159.8" font-family="Times,serif" font-size="9.00">apply force 2!</text>
</g>
<!-- Sequence*&#45;&gt;apply force 2! -->
<g id="edge6" class="edge">
<title>Sequence*&#45;&gt;apply force 2!</title>
<path fill="none" stroke="black" d="M193.76,-219.67C211.04,-209.05 235.47,-194.05 254.86,-182.15"/>
<polygon fill="black" stroke="black" points="256.95,-184.98 263.64,-176.76 253.28,-179.01 256.95,-184.98"/>
</g>
<!-- 1 at pos (0.0, 0.05, 0.0192)? -->
<g id="node9" class="node">
<title>1 at pos (0.0, 0.05, 0.0192)?</title>
<ellipse fill="gray" stroke="black" cx="292.04" cy="-234" rx="67.6" ry="18"/>
<text text-anchor="middle" x="292.04" y="-231.8" font-family="Times,serif" font-size="9.00">1 at pos (0.0, 0.05, 0.0192)?</text>
</g>
<!-- Fallback*&#45;&gt;1 at pos (0.0, 0.05, 0.0192)? -->
<g id="edge8" class="edge">
<title>Fallback*&#45;&gt;1 at pos (0.0, 0.05, 0.0192)?</title>
<path fill="none" stroke="black" d="M387.86,-292.32C370.95,-282.21 346.92,-267.83 327.15,-256"/>
<polygon fill="black" stroke="black" points="328.78,-252.9 318.41,-250.77 325.19,-258.91 328.78,-252.9"/>
</g>
<!-- Sequence** -->
<g id="node10" class="node">
<title>Sequence**</title>
<polygon fill="cyan" stroke="black" points="450.79,-226.54 450.79,-241.46 429.26,-252 398.83,-252 377.3,-241.46 377.3,-226.54 398.83,-216 429.26,-216 450.79,-226.54"/>
<text text-anchor="middle" x="414.04" y="-231.8" font-family="Times,serif" font-size="9.00">Sequence**</text>
</g>
<!-- Fallback*&#45;&gt;Sequence** -->
<g id="edge9" class="edge">
<title>Fallback*&#45;&gt;Sequence**</title>
<path fill="none" stroke="black" d="M410.28,-287.7C410.83,-279.98 411.49,-270.71 412.11,-262.11"/>
<polygon fill="black" stroke="black" points="415.6,-262.33 412.82,-252.1 408.62,-261.83 415.6,-262.33"/>
</g>
<!-- Fallback** -->
<g id="node11" class="node">
<title>Fallback**</title>
<polygon fill="cyan" stroke="black" points="428.04,-154.54 428.04,-169.46 407.54,-180 378.55,-180 358.05,-169.46 358.05,-154.54 378.55,-144 407.54,-144 428.04,-154.54"/>
<text text-anchor="middle" x="393.04" y="-159.8" font-family="Times,serif" font-size="9.00">Fallback**</text>
</g>
<!-- Sequence**&#45;&gt;Fallback** -->
<g id="edge10" class="edge">
<title>Sequence**&#45;&gt;Fallback**</title>
<path fill="none" stroke="black" d="M408.85,-215.7C406.51,-207.9 403.7,-198.51 401.09,-189.83"/>
<polygon fill="black" stroke="black" points="404.4,-188.68 398.18,-180.1 397.7,-190.69 404.4,-188.68"/>
</g>
<!-- apply force 1! -->
<g id="node16" class="node">
<title>apply force 1!</title>
<ellipse fill="gray" stroke="black" cx="484.04" cy="-162" rx="38.21" ry="18"/>
<text text-anchor="middle" x="484.04" y="-159.8" font-family="Times,serif" font-size="9.00">apply force 1!</text>
</g>
<!-- Sequence**&#45;&gt;apply force 1! -->
<g id="edge15" class="edge">
<title>Sequence**&#45;&gt;apply force 1!</title>
<path fill="none" stroke="black" d="M430.63,-216.41C439.78,-207.26 451.28,-195.76 461.26,-185.78"/>
<polygon fill="black" stroke="black" points="463.94,-188.06 468.53,-178.51 458.99,-183.11 463.94,-188.06"/>
</g>
<!-- 1 on 0? -->
<g id="node12" class="node">
<title>1 on 0?</title>
<ellipse fill="gray" stroke="black" cx="350.04" cy="-90" rx="27" ry="18"/>
<text text-anchor="middle" x="350.04" y="-87.8" font-family="Times,serif" font-size="9.00">1 on 0?</text>
</g>
<!-- Fallback**&#45;&gt;1 on 0? -->
<g id="edge11" class="edge">
<title>Fallback**&#45;&gt;1 on 0?</title>
<path fill="none" stroke="black" d="M382.42,-143.7C377.27,-135.32 370.99,-125.1 365.34,-115.9"/>
<polygon fill="black" stroke="black" points="368.18,-113.83 359.96,-107.14 362.21,-117.5 368.18,-113.83"/>
</g>
<!-- Sequence*** -->
<g id="node13" class="node">
<title>Sequence***</title>
<polygon fill="cyan" stroke="black" points="475.03,-82.54 475.03,-97.46 451.61,-108 418.48,-108 395.05,-97.46 395.05,-82.54 418.48,-72 451.61,-72 475.03,-82.54"/>
<text text-anchor="middle" x="435.04" y="-87.8" font-family="Times,serif" font-size="9.00">Sequence***</text>
</g>
<!-- Fallback**&#45;&gt;Sequence*** -->
<g id="edge12" class="edge">
<title>Fallback**&#45;&gt;Sequence***</title>
<path fill="none" stroke="black" d="M403.43,-143.7C408.31,-135.56 414.23,-125.69 419.62,-116.7"/>
<polygon fill="black" stroke="black" points="422.64,-118.48 424.78,-108.1 416.64,-114.88 422.64,-118.48"/>
</g>
<!-- pick 1! -->
<g id="node14" class="node">
<title>pick 1!</title>
<ellipse fill="gray" stroke="black" cx="397.04" cy="-18" rx="27" ry="18"/>
<text text-anchor="middle" x="397.04" y="-15.8" font-family="Times,serif" font-size="9.00">pick 1!</text>
</g>
<!-- Sequence***&#45;&gt;pick 1! -->
<g id="edge13" class="edge">
<title>Sequence***&#45;&gt;pick 1!</title>
<path fill="none" stroke="black" d="M425.65,-71.7C421.15,-63.4 415.67,-53.31 410.72,-44.19"/>
<polygon fill="black" stroke="black" points="413.66,-42.26 405.81,-35.14 407.5,-45.6 413.66,-42.26"/>
</g>
<!-- place on 0! -->
<g id="node15" class="node">
<title>place on 0!</title>
<ellipse fill="gray" stroke="black" cx="474.04" cy="-18" rx="32.16" ry="18"/>
<text text-anchor="middle" x="474.04" y="-15.8" font-family="Times,serif" font-size="9.00">place on 0!</text>
</g>
<!-- Sequence***&#45;&gt;place on 0! -->
<g id="edge14" class="edge">
<title>Sequence***&#45;&gt;place on 0!</title>
<path fill="none" stroke="black" d="M444.68,-71.7C449.24,-63.52 454.77,-53.6 459.79,-44.58"/>
<polygon fill="black" stroke="black" points="462.97,-46.06 464.78,-35.62 456.86,-42.65 462.97,-46.06"/>
</g>
<!-- 2 on 1? -->
<g id="node18" class="node">
<title>2 on 1?</title>
<ellipse fill="gray" stroke="black" cx="496.04" cy="-234" rx="27" ry="18"/>
<text text-anchor="middle" x="496.04" y="-231.8" font-family="Times,serif" font-size="9.00">2 on 1?</text>
</g>
<!-- Fallback***&#45;&gt;2 on 1? -->
<g id="edge17" class="edge">
<title>Fallback***&#45;&gt;2 on 1?</title>
<path fill="none" stroke="black" d="M496.04,-287.7C496.04,-279.98 496.04,-270.71 496.04,-262.11"/>
<polygon fill="black" stroke="black" points="499.54,-262.1 496.04,-252.1 492.54,-262.1 499.54,-262.1"/>
</g>
<!-- Sequence**** -->
<g id="node19" class="node">
<title>Sequence****</title>
<polygon fill="cyan" stroke="black" points="625.53,-226.54 625.53,-241.46 600.64,-252 565.44,-252 540.56,-241.46 540.56,-226.54 565.44,-216 600.64,-216 625.53,-226.54"/>
<text text-anchor="middle" x="583.04" y="-231.8" font-family="Times,serif" font-size="9.00">Sequence****</text>
</g>
<!-- Fallback***&#45;&gt;Sequence**** -->
<g id="edge18" class="edge">
<title>Fallback***&#45;&gt;Sequence****</title>
<path fill="none" stroke="black" d="M515.35,-289.46C526.93,-280.15 541.87,-268.13 554.76,-257.76"/>
<polygon fill="black" stroke="black" points="557.29,-260.22 562.88,-251.22 552.9,-254.76 557.29,-260.22"/>
</g>
<!-- pick 2! -->
<g id="node20" class="node">
<title>pick 2!</title>
<ellipse fill="gray" stroke="black" cx="575.04" cy="-162" rx="27" ry="18"/>
<text text-anchor="middle" x="575.04" y="-159.8" font-family="Times,serif" font-size="9.00">pick 2!</text>
</g>
<!-- Sequence****&#45;&gt;pick 2! -->
<g id="edge19" class="edge">
<title>Sequence****&#45;&gt;pick 2!</title>
<path fill="none" stroke="black" d="M581.07,-215.7C580.19,-207.98 579.13,-198.71 578.14,-190.11"/>
<polygon fill="black" stroke="black" points="581.61,-189.64 577,-180.1 574.66,-190.44 581.61,-189.64"/>
</g>
<!-- place on 1! -->
<g id="node21" class="node">
<title>place on 1!</title>
<ellipse fill="gray" stroke="black" cx="652.04" cy="-162" rx="32.16" ry="18"/>
<text text-anchor="middle" x="652.04" y="-159.8" font-family="Times,serif" font-size="9.00">place on 1!</text>
</g>
<!-- Sequence****&#45;&gt;place on 1! -->
<g id="edge20" class="edge">
<title>Sequence****&#45;&gt;place on 1!</title>
<path fill="none" stroke="black" d="M600.1,-215.7C609.13,-206.53 620.33,-195.18 630.01,-185.35"/>
<polygon fill="black" stroke="black" points="632.53,-187.78 637.06,-178.2 627.55,-182.87 632.53,-187.78"/>
</g>
</g>
</svg>
