<?xml version="1.0" encoding="UTF-8" standalone="no"?>
<!DOCTYPE svg PUBLIC "-//W3C//DTD SVG 1.1//EN"
 "http://www.w3.org/Graphics/SVG/1.1/DTD/svg11.dtd">
<!-- Generated by graphviz version 2.43.0 (0)
 -->
<!-- Title: pastafarianism Pages: 1 -->
<svg width="966pt" height="260pt"
 viewBox="0.00 0.00 965.59 260.00" xmlns="http://www.w3.org/2000/svg" xmlns:xlink="http://www.w3.org/1999/xlink">
<g id="graph0" class="graph" transform="scale(1 1) rotate(0) translate(4 256)">
<title>pastafarianism</title>
<polygon fill="white" stroke="transparent" points="-4,4 -4,-256 961.59,-256 961.59,4 -4,4"/>
<!-- Fallback -->
<g id="node1" class="node">
<title>Fallback</title>
<polygon fill="cyan" stroke="black" points="748.24,-226.54 748.24,-241.46 731.11,-252 706.89,-252 689.76,-241.46 689.76,-226.54 706.89,-216 731.11,-216 748.24,-226.54"/>
<text text-anchor="middle" x="719" y="-231.8" font-family="Times,serif" font-size="9.00">Fallback</text>
</g>
<!-- Sequence -->
<g id="node2" class="node">
<title>Sequence</title>
<polygon fill="cyan" stroke="black" points="283.49,-154.54 283.49,-169.46 265.05,-180 238.95,-180 220.51,-169.46 220.51,-154.54 238.95,-144 265.05,-144 283.49,-154.54"/>
<text text-anchor="middle" x="252" y="-159.8" font-family="Times,serif" font-size="9.00">Sequence</text>
</g>
<!-- Fallback&#45;&gt;Sequence -->
<g id="edge1" class="edge">
<title>Fallback&#45;&gt;Sequence</title>
<path fill="none" stroke="black" d="M689.43,-228.57C609.02,-216.52 386.2,-183.12 293.4,-169.21"/>
<polygon fill="black" stroke="black" points="293.67,-165.71 283.26,-167.69 292.63,-172.63 293.67,-165.71"/>
</g>
<!-- Sequence* -->
<g id="node9" class="node">
<title>Sequence*</title>
<polygon fill="cyan" stroke="black" points="710.24,-154.54 710.24,-169.46 690.18,-180 661.82,-180 641.76,-169.46 641.76,-154.54 661.82,-144 690.18,-144 710.24,-154.54"/>
<text text-anchor="middle" x="676" y="-159.8" font-family="Times,serif" font-size="9.00">Sequence*</text>
</g>
<!-- Fallback&#45;&gt;Sequence* -->
<g id="edge8" class="edge">
<title>Fallback&#45;&gt;Sequence*</title>
<path fill="none" stroke="black" d="M708.37,-215.7C703.37,-207.56 697.31,-197.69 691.79,-188.7"/>
<polygon fill="black" stroke="black" points="694.72,-186.79 686.51,-180.1 688.76,-190.46 694.72,-186.79"/>
</g>
<!-- pick 3!**** -->
<g id="node15" class="node">
<title>pick 3!****</title>
<ellipse fill="gray" stroke="black" cx="762" cy="-162" rx="34.13" ry="18"/>
<text text-anchor="middle" x="762" y="-159.8" font-family="Times,serif" font-size="9.00">pick 3!****</text>
</g>
<!-- Fallback&#45;&gt;pick 3!**** -->
<g id="edge14" class="edge">
<title>Fallback&#45;&gt;pick 3!****</title>
<path fill="none" stroke="black" d="M729.63,-215.7C734.7,-207.44 740.87,-197.39 746.46,-188.3"/>
<polygon fill="black" stroke="black" points="749.54,-189.98 751.79,-179.62 743.57,-186.31 749.54,-189.98"/>
</g>
<!-- place at (0.016, 0.032, 0.0)!** -->
<g id="node16" class="node">
<title>place at (0.016, 0.032, 0.0)!**</title>
<ellipse fill="gray" stroke="black" cx="886" cy="-162" rx="71.68" ry="18"/>
<text text-anchor="middle" x="886" y="-159.8" font-family="Times,serif" font-size="9.00">place at (0.016, 0.032, 0.0)!**</text>
</g>
<!-- Fallback&#45;&gt;place at (0.016, 0.032, 0.0)!** -->
<g id="edge15" class="edge">
<title>Fallback&#45;&gt;place at (0.016, 0.032, 0.0)!**</title>
<path fill="none" stroke="black" d="M742.93,-222.97C768.51,-212.25 809.66,-195 841.28,-181.75"/>
<polygon fill="black" stroke="black" points="842.88,-184.87 850.75,-177.77 840.18,-178.41 842.88,-184.87"/>
</g>
<!-- pick 3! -->
<g id="node3" class="node">
<title>pick 3!</title>
<ellipse fill="gray" stroke="black" cx="27" cy="-90" rx="27" ry="18"/>
<text text-anchor="middle" x="27" y="-87.8" font-family="Times,serif" font-size="9.00">pick 3!</text>
</g>
<!-- Sequence&#45;&gt;pick 3! -->
<g id="edge2" class="edge">
<title>Sequence&#45;&gt;pick 3!</title>
<path fill="none" stroke="black" d="M221.05,-154.01C183.2,-145.08 117.43,-128.32 63,-108 61.15,-107.31 59.27,-106.56 57.39,-105.78"/>
<polygon fill="black" stroke="black" points="58.63,-102.5 48.07,-101.67 55.8,-108.91 58.63,-102.5"/>
</g>
<!-- pick 3!* -->
<g id="node4" class="node">
<title>pick 3!*</title>
<ellipse fill="gray" stroke="black" cx="99" cy="-90" rx="27" ry="18"/>
<text text-anchor="middle" x="99" y="-87.8" font-family="Times,serif" font-size="9.00">pick 3!*</text>
</g>
<!-- Sequence&#45;&gt;pick 3!* -->
<g id="edge3" class="edge">
<title>Sequence&#45;&gt;pick 3!*</title>
<path fill="none" stroke="black" d="M227.75,-150.15C204.05,-139.51 166.98,-122.79 135,-108 133.21,-107.17 131.38,-106.32 129.52,-105.46"/>
<polygon fill="black" stroke="black" points="130.83,-102.2 120.29,-101.12 127.86,-108.54 130.83,-102.2"/>
</g>
<!-- pick 3!** -->
<g id="node5" class="node">
<title>pick 3!**</title>
<ellipse fill="gray" stroke="black" cx="173" cy="-90" rx="28.74" ry="18"/>
<text text-anchor="middle" x="173" y="-87.8" font-family="Times,serif" font-size="9.00">pick 3!**</text>
</g>
<!-- Sequence&#45;&gt;pick 3!** -->
<g id="edge4" class="edge">
<title>Sequence&#45;&gt;pick 3!**</title>
<path fill="none" stroke="black" d="M234.86,-145.81C223.69,-135.92 208.97,-122.87 196.69,-111.99"/>
<polygon fill="black" stroke="black" points="198.84,-109.22 189.03,-105.21 194.19,-114.46 198.84,-109.22"/>
</g>
<!-- pick 3!*** -->
<g id="node6" class="node">
<title>pick 3!***</title>
<ellipse fill="gray" stroke="black" cx="252" cy="-90" rx="31.51" ry="18"/>
<text text-anchor="middle" x="252" y="-87.8" font-family="Times,serif" font-size="9.00">pick 3!***</text>
</g>
<!-- Sequence&#45;&gt;pick 3!*** -->
<g id="edge5" class="edge">
<title>Sequence&#45;&gt;pick 3!***</title>
<path fill="none" stroke="black" d="M252,-143.7C252,-135.98 252,-126.71 252,-118.11"/>
<polygon fill="black" stroke="black" points="255.5,-118.1 252,-108.1 248.5,-118.1 255.5,-118.1"/>
</g>
<!-- place at (0.016, 0.032, 0.0)! -->
<g id="node7" class="node">
<title>place at (0.016, 0.032, 0.0)!</title>
<ellipse fill="gray" stroke="black" cx="368" cy="-90" rx="66.29" ry="18"/>
<text text-anchor="middle" x="368" y="-87.8" font-family="Times,serif" font-size="9.00">place at (0.016, 0.032, 0.0)!</text>
</g>
<!-- Sequence&#45;&gt;place at (0.016, 0.032, 0.0)! -->
<g id="edge6" class="edge">
<title>Sequence&#45;&gt;place at (0.016, 0.032, 0.0)!</title>
<path fill="none" stroke="black" d="M273.01,-148.32C289.77,-138.21 313.6,-123.83 333.2,-112"/>
<polygon fill="black" stroke="black" points="335.11,-114.94 341.86,-106.77 331.49,-108.94 335.11,-114.94"/>
</g>
<!-- place at (0.016, 0.032, 0.0)!* -->
<g id="node8" class="node">
<title>place at (0.016, 0.032, 0.0)!*</title>
<ellipse fill="gray" stroke="black" cx="521" cy="-90" rx="68.91" ry="18"/>
<text text-anchor="middle" x="521" y="-87.8" font-family="Times,serif" font-size="9.00">place at (0.016, 0.032, 0.0)!*</text>
</g>
<!-- Sequence&#45;&gt;place at (0.016, 0.032, 0.0)!* -->
<g id="edge7" class="edge">
<title>Sequence&#45;&gt;place at (0.016, 0.032, 0.0)!*</title>
<path fill="none" stroke="black" d="M281.56,-153.31C325.33,-141.92 408.23,-120.35 464.05,-105.82"/>
<polygon fill="black" stroke="black" points="465,-109.19 473.8,-103.28 463.24,-102.41 465,-109.19"/>
</g>
<!-- 0 on 1? -->
<g id="node10" class="node">
<title>0 on 1?</title>
<ellipse fill="gray" stroke="black" cx="635" cy="-90" rx="27" ry="18"/>
<text text-anchor="middle" x="635" y="-87.8" font-family="Times,serif" font-size="9.00">0 on 1?</text>
</g>
<!-- Sequence*&#45;&gt;0 on 1? -->
<g id="edge9" class="edge">
<title>Sequence*&#45;&gt;0 on 1?</title>
<path fill="none" stroke="black" d="M665.87,-143.7C660.96,-135.32 654.97,-125.1 649.58,-115.9"/>
<polygon fill="black" stroke="black" points="652.53,-114 644.46,-107.14 646.49,-117.54 652.53,-114"/>
</g>
<!-- apply force 1! -->
<g id="node11" class="node">
<title>apply force 1!</title>
<ellipse fill="gray" stroke="black" cx="718" cy="-90" rx="38.21" ry="18"/>
<text text-anchor="middle" x="718" y="-87.8" font-family="Times,serif" font-size="9.00">apply force 1!</text>
</g>
<!-- Sequence*&#45;&gt;apply force 1! -->
<g id="edge10" class="edge">
<title>Sequence*&#45;&gt;apply force 1!</title>
<path fill="none" stroke="black" d="M686.38,-143.7C691.34,-135.44 697.36,-125.39 702.82,-116.3"/>
<polygon fill="black" stroke="black" points="705.88,-118 708.03,-107.62 699.88,-114.4 705.88,-118"/>
</g>
<!-- Fallback* -->
<g id="node12" class="node">
<title>Fallback*</title>
<polygon fill="cyan" stroke="black" points="837.74,-82.54 837.74,-97.46 819.15,-108 792.85,-108 774.26,-97.46 774.26,-82.54 792.85,-72 819.15,-72 837.74,-82.54"/>
<text text-anchor="middle" x="806" y="-87.8" font-family="Times,serif" font-size="9.00">Fallback*</text>
</g>
<!-- Sequence*&#45;&gt;Fallback* -->
<g id="edge11" class="edge">
<title>Sequence*&#45;&gt;Fallback*</title>
<path fill="none" stroke="black" d="M699.24,-148.49C720.3,-137.15 751.49,-120.35 774.72,-107.84"/>
<polygon fill="black" stroke="black" points="776.68,-110.76 783.83,-102.94 773.36,-104.6 776.68,-110.76"/>
</g>
<!-- picked 0? -->
<g id="node13" class="node">
<title>picked 0?</title>
<ellipse fill="gray" stroke="black" cx="766" cy="-18" rx="28.74" ry="18"/>
<text text-anchor="middle" x="766" y="-15.8" font-family="Times,serif" font-size="9.00">picked 0?</text>
</g>
<!-- Fallback*&#45;&gt;picked 0? -->
<g id="edge12" class="edge">
<title>Fallback*&#45;&gt;picked 0?</title>
<path fill="none" stroke="black" d="M796.11,-71.7C791.32,-63.32 785.48,-53.1 780.23,-43.9"/>
<polygon fill="black" stroke="black" points="783.23,-42.09 775.23,-35.14 777.15,-45.56 783.23,-42.09"/>
</g>
<!-- place on 1! -->
<g id="node14" class="node">
<title>place on 1!</title>
<ellipse fill="gray" stroke="black" cx="845" cy="-18" rx="32.16" ry="18"/>
<text text-anchor="middle" x="845" y="-15.8" font-family="Times,serif" font-size="9.00">place on 1!</text>
</g>
<!-- Fallback*&#45;&gt;place on 1! -->
<g id="edge13" class="edge">
<title>Fallback*&#45;&gt;place on 1!</title>
<path fill="none" stroke="black" d="M815.64,-71.7C820.19,-63.52 825.72,-53.6 830.75,-44.58"/>
<polygon fill="black" stroke="black" points="833.93,-46.06 835.74,-35.62 827.81,-42.65 833.93,-46.06"/>
</g>
</g>
</svg>
