<?xml version="1.0" encoding="UTF-8" standalone="no"?>
<!DOCTYPE svg PUBLIC "-//W3C//DTD SVG 1.1//EN"
 "http://www.w3.org/Graphics/SVG/1.1/DTD/svg11.dtd">
<!-- Generated by graphviz version 2.43.0 (0)
 -->
<!-- Title: pastafarianism Pages: 1 -->
<svg width="593pt" height="188pt"
 viewBox="0.00 0.00 593.00 188.00" xmlns="http://www.w3.org/2000/svg" xmlns:xlink="http://www.w3.org/1999/xlink">
<g id="graph0" class="graph" transform="scale(1 1) rotate(0) translate(4 184)">
<title>pastafarianism</title>
<polygon fill="white" stroke="transparent" points="-4,4 -4,-184 589,-184 589,4 -4,4"/>
<!-- Fallback -->
<g id="node1" class="node">
<title>Fallback</title>
<polygon fill="cyan" stroke="black" points="508.24,-154.54 508.24,-169.46 491.11,-180 466.89,-180 449.76,-169.46 449.76,-154.54 466.89,-144 491.11,-144 508.24,-154.54"/>
<text text-anchor="middle" x="479" y="-159.8" font-family="Times,serif" font-size="9.00">Fallback</text>
</g>
<!-- Sequence -->
<g id="node2" class="node">
<title>Sequence</title>
<polygon fill="cyan" stroke="black" points="244.49,-82.54 244.49,-97.46 226.05,-108 199.95,-108 181.51,-97.46 181.51,-82.54 199.95,-72 226.05,-72 244.49,-82.54"/>
<text text-anchor="middle" x="213" y="-87.8" font-family="Times,serif" font-size="9.00">Sequence</text>
</g>
<!-- Fallback&#45;&gt;Sequence -->
<g id="edge1" class="edge">
<title>Fallback&#45;&gt;Sequence</title>
<path fill="none" stroke="black" d="M451.04,-153.64C403.54,-141.14 306.99,-115.73 252.58,-101.42"/>
<polygon fill="black" stroke="black" points="253.17,-97.95 242.61,-98.79 251.39,-104.72 253.17,-97.95"/>
</g>
<!-- Sequence* -->
<g id="node8" class="node">
<title>Sequence*</title>
<polygon fill="cyan" stroke="black" points="513.24,-82.54 513.24,-97.46 493.18,-108 464.82,-108 444.76,-97.46 444.76,-82.54 464.82,-72 493.18,-72 513.24,-82.54"/>
<text text-anchor="middle" x="479" y="-87.8" font-family="Times,serif" font-size="9.00">Sequence*</text>
</g>
<!-- Fallback&#45;&gt;Sequence* -->
<g id="edge7" class="edge">
<title>Fallback&#45;&gt;Sequence*</title>
<path fill="none" stroke="black" d="M479,-143.7C479,-135.98 479,-126.71 479,-118.11"/>
<polygon fill="black" stroke="black" points="482.5,-118.1 479,-108.1 475.5,-118.1 482.5,-118.1"/>
</g>
<!-- 3 on 2? -->
<g id="node11" class="node">
<title>3 on 2?</title>
<ellipse fill="gray" stroke="black" cx="558" cy="-90" rx="27" ry="18"/>
<text text-anchor="middle" x="558" y="-87.8" font-family="Times,serif" font-size="9.00">3 on 2?</text>
</g>
<!-- Fallback&#45;&gt;3 on 2? -->
<g id="edge10" class="edge">
<title>Fallback&#45;&gt;3 on 2?</title>
<path fill="none" stroke="black" d="M495.37,-146.5C506.82,-136.35 522.28,-122.65 534.97,-111.4"/>
<polygon fill="black" stroke="black" points="537.3,-114.02 542.46,-104.77 532.65,-108.78 537.3,-114.02"/>
</g>
<!-- pick 3! -->
<g id="node3" class="node">
<title>pick 3!</title>
<ellipse fill="gray" stroke="black" cx="27" cy="-18" rx="27" ry="18"/>
<text text-anchor="middle" x="27" y="-15.8" font-family="Times,serif" font-size="9.00">pick 3!</text>
</g>
<!-- Sequence&#45;&gt;pick 3! -->
<g id="edge2" class="edge">
<title>Sequence&#45;&gt;pick 3!</title>
<path fill="none" stroke="black" d="M185.31,-80.15C154.97,-70.24 105.02,-53.29 63,-36 61.18,-35.25 59.32,-34.46 57.44,-33.64"/>
<polygon fill="black" stroke="black" points="58.71,-30.37 48.16,-29.43 55.82,-36.75 58.71,-30.37"/>
</g>
<!-- pick 3!* -->
<g id="node4" class="node">
<title>pick 3!*</title>
<ellipse fill="gray" stroke="black" cx="99" cy="-18" rx="27" ry="18"/>
<text text-anchor="middle" x="99" y="-15.8" font-family="Times,serif" font-size="9.00">pick 3!*</text>
</g>
<!-- Sequence&#45;&gt;pick 3!* -->
<g id="edge3" class="edge">
<title>Sequence&#45;&gt;pick 3!*</title>
<path fill="none" stroke="black" d="M192.36,-76.32C174.1,-65.12 147.32,-48.67 127.12,-36.26"/>
<polygon fill="black" stroke="black" points="128.7,-33.13 118.35,-30.88 125.04,-39.1 128.7,-33.13"/>
</g>
<!-- pick 3!** -->
<g id="node5" class="node">
<title>pick 3!**</title>
<ellipse fill="gray" stroke="black" cx="173" cy="-18" rx="28.74" ry="18"/>
<text text-anchor="middle" x="173" y="-15.8" font-family="Times,serif" font-size="9.00">pick 3!**</text>
</g>
<!-- Sequence&#45;&gt;pick 3!** -->
<g id="edge4" class="edge">
<title>Sequence&#45;&gt;pick 3!**</title>
<path fill="none" stroke="black" d="M203.11,-71.7C198.32,-63.32 192.48,-53.1 187.23,-43.9"/>
<polygon fill="black" stroke="black" points="190.23,-42.09 182.23,-35.14 184.15,-45.56 190.23,-42.09"/>
</g>
<!-- pick 3!*** -->
<g id="node6" class="node">
<title>pick 3!***</title>
<ellipse fill="gray" stroke="black" cx="252" cy="-18" rx="31.51" ry="18"/>
<text text-anchor="middle" x="252" y="-15.8" font-family="Times,serif" font-size="9.00">pick 3!***</text>
</g>
<!-- Sequence&#45;&gt;pick 3!*** -->
<g id="edge5" class="edge">
<title>Sequence&#45;&gt;pick 3!***</title>
<path fill="none" stroke="black" d="M222.64,-71.7C227.19,-63.52 232.72,-53.6 237.75,-44.58"/>
<polygon fill="black" stroke="black" points="240.93,-46.06 242.74,-35.62 234.81,-42.65 240.93,-46.06"/>
</g>
<!-- place at (0.016, 0.032, 0.0)! -->
<g id="node7" class="node">
<title>place at (0.016, 0.032, 0.0)!</title>
<ellipse fill="gray" stroke="black" cx="368" cy="-18" rx="66.29" ry="18"/>
<text text-anchor="middle" x="368" y="-15.8" font-family="Times,serif" font-size="9.00">place at (0.016, 0.032, 0.0)!</text>
</g>
<!-- Sequence&#45;&gt;place at (0.016, 0.032, 0.0)! -->
<g id="edge6" class="edge">
<title>Sequence&#45;&gt;place at (0.016, 0.032, 0.0)!</title>
<path fill="none" stroke="black" d="M237.22,-78.06C260.93,-67.35 297.55,-50.82 326.01,-37.96"/>
<polygon fill="black" stroke="black" points="327.64,-41.07 335.32,-33.76 324.76,-34.69 327.64,-41.07"/>
</g>
<!-- 2 on 3? -->
<g id="node9" class="node">
<title>2 on 3?</title>
<ellipse fill="gray" stroke="black" cx="479" cy="-18" rx="27" ry="18"/>
<text text-anchor="middle" x="479" y="-15.8" font-family="Times,serif" font-size="9.00">2 on 3?</text>
</g>
<!-- Sequence*&#45;&gt;2 on 3? -->
<g id="edge8" class="edge">
<title>Sequence*&#45;&gt;2 on 3?</title>
<path fill="none" stroke="black" d="M479,-71.7C479,-63.98 479,-54.71 479,-46.11"/>
<polygon fill="black" stroke="black" points="482.5,-46.1 479,-36.1 475.5,-46.1 482.5,-46.1"/>
</g>
<!-- pick 1! -->
<g id="node10" class="node">
<title>pick 1!</title>
<ellipse fill="gray" stroke="black" cx="551" cy="-18" rx="27" ry="18"/>
<text text-anchor="middle" x="551" y="-15.8" font-family="Times,serif" font-size="9.00">pick 1!</text>
</g>
<!-- Sequence*&#45;&gt;pick 1! -->
<g id="edge9" class="edge">
<title>Sequence*&#45;&gt;pick 1!</title>
<path fill="none" stroke="black" d="M495.34,-73.12C505.22,-63.51 517.95,-51.13 528.75,-40.63"/>
<polygon fill="black" stroke="black" points="531.47,-42.87 536.2,-33.39 526.59,-37.85 531.47,-42.87"/>
</g>
</g>
</svg>
