<?xml version="1.0" encoding="UTF-8" standalone="no"?>
<!DOCTYPE svg PUBLIC "-//W3C//DTD SVG 1.1//EN"
 "http://www.w3.org/Graphics/SVG/1.1/DTD/svg11.dtd">
<!-- Generated by graphviz version 2.43.0 (0)
 -->
<!-- Title: pastafarianism Pages: 1 -->
<svg width="876pt" height="260pt"
 viewBox="0.00 0.00 875.70 260.00" xmlns="http://www.w3.org/2000/svg" xmlns:xlink="http://www.w3.org/1999/xlink">
<g id="graph0" class="graph" transform="scale(1 1) rotate(0) translate(4 256)">
<title>pastafarianism</title>
<polygon fill="white" stroke="transparent" points="-4,4 -4,-256 871.7,-256 871.7,4 -4,4"/>
<!-- Fallback -->
<g id="node1" class="node">
<title>Fallback</title>
<polygon fill="cyan" stroke="black" points="664.24,-226.54 664.24,-241.46 647.11,-252 622.89,-252 605.76,-241.46 605.76,-226.54 622.89,-216 647.11,-216 664.24,-226.54"/>
<text text-anchor="middle" x="635" y="-231.8" font-family="Times,serif" font-size="9.00">Fallback</text>
</g>
<!-- Sequence -->
<g id="node2" class="node">
<title>Sequence</title>
<polygon fill="cyan" stroke="black" points="283.49,-154.54 283.49,-169.46 265.05,-180 238.95,-180 220.51,-169.46 220.51,-154.54 238.95,-144 265.05,-144 283.49,-154.54"/>
<text text-anchor="middle" x="252" y="-159.8" font-family="Times,serif" font-size="9.00">Sequence</text>
</g>
<!-- Fallback&#45;&gt;Sequence -->
<g id="edge1" class="edge">
<title>Fallback&#45;&gt;Sequence</title>
<path fill="none" stroke="black" d="M605.58,-227.62C537.94,-215.26 371.2,-184.79 293.32,-170.55"/>
<polygon fill="black" stroke="black" points="293.85,-167.09 283.38,-168.74 292.59,-173.98 293.85,-167.09"/>
</g>
<!-- Sequence* -->
<g id="node9" class="node">
<title>Sequence*</title>
<polygon fill="cyan" stroke="black" points="626.24,-154.54 626.24,-169.46 606.18,-180 577.82,-180 557.76,-169.46 557.76,-154.54 577.82,-144 606.18,-144 626.24,-154.54"/>
<text text-anchor="middle" x="592" y="-159.8" font-family="Times,serif" font-size="9.00">Sequence*</text>
</g>
<!-- Fallback&#45;&gt;Sequence* -->
<g id="edge8" class="edge">
<title>Fallback&#45;&gt;Sequence*</title>
<path fill="none" stroke="black" d="M624.37,-215.7C619.37,-207.56 613.31,-197.69 607.79,-188.7"/>
<polygon fill="black" stroke="black" points="610.72,-186.79 602.51,-180.1 604.76,-190.46 610.72,-186.79"/>
</g>
<!-- pick 3!**** -->
<g id="node15" class="node">
<title>pick 3!****</title>
<ellipse fill="gray" stroke="black" cx="678" cy="-162" rx="34.13" ry="18"/>
<text text-anchor="middle" x="678" y="-159.8" font-family="Times,serif" font-size="9.00">pick 3!****</text>
</g>
<!-- Fallback&#45;&gt;pick 3!**** -->
<g id="edge14" class="edge">
<title>Fallback&#45;&gt;pick 3!****</title>
<path fill="none" stroke="black" d="M645.63,-215.7C650.7,-207.44 656.87,-197.39 662.46,-188.3"/>
<polygon fill="black" stroke="black" points="665.54,-189.98 667.79,-179.62 659.57,-186.31 665.54,-189.98"/>
</g>
<!-- place at (0.016, 0.032, 0.0)!* -->
<g id="node16" class="node">
<title>place at (0.016, 0.032, 0.0)!*</title>
<ellipse fill="gray" stroke="black" cx="799" cy="-162" rx="68.91" ry="18"/>
<text text-anchor="middle" x="799" y="-159.8" font-family="Times,serif" font-size="9.00">place at (0.016, 0.032, 0.0)!*</text>
</g>
<!-- Fallback&#45;&gt;place at (0.016, 0.032, 0.0)!* -->
<g id="edge15" class="edge">
<title>Fallback&#45;&gt;place at (0.016, 0.032, 0.0)!*</title>
<path fill="none" stroke="black" d="M658.5,-222.97C683.7,-212.21 724.29,-194.89 755.38,-181.62"/>
<polygon fill="black" stroke="black" points="756.87,-184.79 764.69,-177.64 754.12,-178.35 756.87,-184.79"/>
</g>
<!-- pick 3! -->
<g id="node3" class="node">
<title>pick 3!</title>
<ellipse fill="gray" stroke="black" cx="27" cy="-90" rx="27" ry="18"/>
<text text-anchor="middle" x="27" y="-87.8" font-family="Times,serif" font-size="9.00">pick 3!</text>
</g>
<!-- Sequence&#45;&gt;pick 3! -->
<g id="edge2" class="edge">
<title>Sequence&#45;&gt;pick 3!</title>
<path fill="none" stroke="black" d="M221.05,-154.01C183.2,-145.08 117.43,-128.32 63,-108 61.15,-107.31 59.27,-106.56 57.39,-105.78"/>
<polygon fill="black" stroke="black" points="58.63,-102.5 48.07,-101.67 55.8,-108.91 58.63,-102.5"/>
</g>
<!-- pick 3!* -->
<g id="node4" class="node">
<title>pick 3!*</title>
<ellipse fill="gray" stroke="black" cx="99" cy="-90" rx="27" ry="18"/>
<text text-anchor="middle" x="99" y="-87.8" font-family="Times,serif" font-size="9.00">pick 3!*</text>
</g>
<!-- Sequence&#45;&gt;pick 3!* -->
<g id="edge3" class="edge">
<title>Sequence&#45;&gt;pick 3!*</title>
<path fill="none" stroke="black" d="M227.75,-150.15C204.05,-139.51 166.98,-122.79 135,-108 133.21,-107.17 131.38,-106.32 129.52,-105.46"/>
<polygon fill="black" stroke="black" points="130.83,-102.2 120.29,-101.12 127.86,-108.54 130.83,-102.2"/>
</g>
<!-- pick 3!** -->
<g id="node5" class="node">
<title>pick 3!**</title>
<ellipse fill="gray" stroke="black" cx="173" cy="-90" rx="28.74" ry="18"/>
<text text-anchor="middle" x="173" y="-87.8" font-family="Times,serif" font-size="9.00">pick 3!**</text>
</g>
<!-- Sequence&#45;&gt;pick 3!** -->
<g id="edge4" class="edge">
<title>Sequence&#45;&gt;pick 3!**</title>
<path fill="none" stroke="black" d="M234.86,-145.81C223.69,-135.92 208.97,-122.87 196.69,-111.99"/>
<polygon fill="black" stroke="black" points="198.84,-109.22 189.03,-105.21 194.19,-114.46 198.84,-109.22"/>
</g>
<!-- pick 3!*** -->
<g id="node6" class="node">
<title>pick 3!***</title>
<ellipse fill="gray" stroke="black" cx="252" cy="-90" rx="31.51" ry="18"/>
<text text-anchor="middle" x="252" y="-87.8" font-family="Times,serif" font-size="9.00">pick 3!***</text>
</g>
<!-- Sequence&#45;&gt;pick 3!*** -->
<g id="edge5" class="edge">
<title>Sequence&#45;&gt;pick 3!***</title>
<path fill="none" stroke="black" d="M252,-143.7C252,-135.98 252,-126.71 252,-118.11"/>
<polygon fill="black" stroke="black" points="255.5,-118.1 252,-108.1 248.5,-118.1 255.5,-118.1"/>
</g>
<!-- place at (0.016, 0.032, 0.0)! -->
<g id="node7" class="node">
<title>place at (0.016, 0.032, 0.0)!</title>
<ellipse fill="gray" stroke="black" cx="368" cy="-90" rx="66.29" ry="18"/>
<text text-anchor="middle" x="368" y="-87.8" font-family="Times,serif" font-size="9.00">place at (0.016, 0.032, 0.0)!</text>
</g>
<!-- Sequence&#45;&gt;place at (0.016, 0.032, 0.0)! -->
<g id="edge6" class="edge">
<title>Sequence&#45;&gt;place at (0.016, 0.032, 0.0)!</title>
<path fill="none" stroke="black" d="M273.01,-148.32C289.77,-138.21 313.6,-123.83 333.2,-112"/>
<polygon fill="black" stroke="black" points="335.11,-114.94 341.86,-106.77 331.49,-108.94 335.11,-114.94"/>
</g>
<!-- pick 2! -->
<g id="node8" class="node">
<title>pick 2!</title>
<ellipse fill="gray" stroke="black" cx="479" cy="-90" rx="27" ry="18"/>
<text text-anchor="middle" x="479" y="-87.8" font-family="Times,serif" font-size="9.00">pick 2!</text>
</g>
<!-- Sequence&#45;&gt;pick 2! -->
<g id="edge7" class="edge">
<title>Sequence&#45;&gt;pick 2!</title>
<path fill="none" stroke="black" d="M282.94,-154.13C321.15,-145.26 387.84,-128.51 443,-108 444.85,-107.31 446.73,-106.57 448.61,-105.79"/>
<polygon fill="black" stroke="black" points="450.2,-108.92 457.94,-101.68 447.38,-102.51 450.2,-108.92"/>
</g>
<!-- 0 on 1? -->
<g id="node10" class="node">
<title>0 on 1?</title>
<ellipse fill="gray" stroke="black" cx="551" cy="-90" rx="27" ry="18"/>
<text text-anchor="middle" x="551" y="-87.8" font-family="Times,serif" font-size="9.00">0 on 1?</text>
</g>
<!-- Sequence*&#45;&gt;0 on 1? -->
<g id="edge9" class="edge">
<title>Sequence*&#45;&gt;0 on 1?</title>
<path fill="none" stroke="black" d="M581.87,-143.7C576.96,-135.32 570.97,-125.1 565.58,-115.9"/>
<polygon fill="black" stroke="black" points="568.53,-114 560.46,-107.14 562.49,-117.54 568.53,-114"/>
</g>
<!-- apply force 1! -->
<g id="node11" class="node">
<title>apply force 1!</title>
<ellipse fill="gray" stroke="black" cx="634" cy="-90" rx="38.21" ry="18"/>
<text text-anchor="middle" x="634" y="-87.8" font-family="Times,serif" font-size="9.00">apply force 1!</text>
</g>
<!-- Sequence*&#45;&gt;apply force 1! -->
<g id="edge10" class="edge">
<title>Sequence*&#45;&gt;apply force 1!</title>
<path fill="none" stroke="black" d="M602.38,-143.7C607.34,-135.44 613.36,-125.39 618.82,-116.3"/>
<polygon fill="black" stroke="black" points="621.88,-118 624.03,-107.62 615.88,-114.4 621.88,-118"/>
</g>
<!-- Fallback* -->
<g id="node12" class="node">
<title>Fallback*</title>
<polygon fill="cyan" stroke="black" points="753.74,-82.54 753.74,-97.46 735.15,-108 708.85,-108 690.26,-97.46 690.26,-82.54 708.85,-72 735.15,-72 753.74,-82.54"/>
<text text-anchor="middle" x="722" y="-87.8" font-family="Times,serif" font-size="9.00">Fallback*</text>
</g>
<!-- Sequence*&#45;&gt;Fallback* -->
<g id="edge11" class="edge">
<title>Sequence*&#45;&gt;Fallback*</title>
<path fill="none" stroke="black" d="M615.24,-148.49C636.3,-137.15 667.49,-120.35 690.72,-107.84"/>
<polygon fill="black" stroke="black" points="692.68,-110.76 699.83,-102.94 689.36,-104.6 692.68,-110.76"/>
</g>
<!-- picked 0? -->
<g id="node13" class="node">
<title>picked 0?</title>
<ellipse fill="gray" stroke="black" cx="682" cy="-18" rx="28.74" ry="18"/>
<text text-anchor="middle" x="682" y="-15.8" font-family="Times,serif" font-size="9.00">picked 0?</text>
</g>
<!-- Fallback*&#45;&gt;picked 0? -->
<g id="edge12" class="edge">
<title>Fallback*&#45;&gt;picked 0?</title>
<path fill="none" stroke="black" d="M712.11,-71.7C707.32,-63.32 701.48,-53.1 696.23,-43.9"/>
<polygon fill="black" stroke="black" points="699.23,-42.09 691.23,-35.14 693.15,-45.56 699.23,-42.09"/>
</g>
<!-- place on 1! -->
<g id="node14" class="node">
<title>place on 1!</title>
<ellipse fill="gray" stroke="black" cx="761" cy="-18" rx="32.16" ry="18"/>
<text text-anchor="middle" x="761" y="-15.8" font-family="Times,serif" font-size="9.00">place on 1!</text>
</g>
<!-- Fallback*&#45;&gt;place on 1! -->
<g id="edge13" class="edge">
<title>Fallback*&#45;&gt;place on 1!</title>
<path fill="none" stroke="black" d="M731.64,-71.7C736.19,-63.52 741.72,-53.6 746.75,-44.58"/>
<polygon fill="black" stroke="black" points="749.93,-46.06 751.74,-35.62 743.81,-42.65 749.93,-46.06"/>
</g>
</g>
</svg>
