<?xml version="1.0" encoding="UTF-8" standalone="no"?>
<!DOCTYPE svg PUBLIC "-//W3C//DTD SVG 1.1//EN"
 "http://www.w3.org/Graphics/SVG/1.1/DTD/svg11.dtd">
<!-- Generated by graphviz version 2.43.0 (0)
 -->
<!-- Title: pastafarianism Pages: 1 -->
<svg width="627pt" height="332pt"
 viewBox="0.00 0.00 626.95 332.00" xmlns="http://www.w3.org/2000/svg" xmlns:xlink="http://www.w3.org/1999/xlink">
<g id="graph0" class="graph" transform="scale(1 1) rotate(0) translate(4 328)">
<title>pastafarianism</title>
<polygon fill="white" stroke="transparent" points="-4,4 -4,-328 622.95,-328 622.95,4 -4,4"/>
<!-- Fallback -->
<g id="node1" class="node">
<title>Fallback</title>
<polygon fill="cyan" stroke="black" points="426.24,-298.54 426.24,-313.46 409.11,-324 384.89,-324 367.76,-313.46 367.76,-298.54 384.89,-288 409.11,-288 426.24,-298.54"/>
<text text-anchor="middle" x="397" y="-303.8" font-family="Times,serif" font-size="9.00">Fallback</text>
</g>
<!-- Sequence -->
<g id="node2" class="node">
<title>Sequence</title>
<polygon fill="cyan" stroke="black" points="428.49,-226.54 428.49,-241.46 410.05,-252 383.95,-252 365.51,-241.46 365.51,-226.54 383.95,-216 410.05,-216 428.49,-226.54"/>
<text text-anchor="middle" x="397" y="-231.8" font-family="Times,serif" font-size="9.00">Sequence</text>
</g>
<!-- Fallback&#45;&gt;Sequence -->
<g id="edge1" class="edge">
<title>Fallback&#45;&gt;Sequence</title>
<path fill="none" stroke="black" d="M397,-287.7C397,-279.98 397,-270.71 397,-262.11"/>
<polygon fill="black" stroke="black" points="400.5,-262.1 397,-252.1 393.5,-262.1 400.5,-262.1"/>
</g>
<!-- Fallback* -->
<g id="node3" class="node">
<title>Fallback*</title>
<polygon fill="cyan" stroke="black" points="146.74,-154.54 146.74,-169.46 128.15,-180 101.85,-180 83.26,-169.46 83.26,-154.54 101.85,-144 128.15,-144 146.74,-154.54"/>
<text text-anchor="middle" x="115" y="-159.8" font-family="Times,serif" font-size="9.00">Fallback*</text>
</g>
<!-- Sequence&#45;&gt;Fallback* -->
<g id="edge2" class="edge">
<title>Sequence&#45;&gt;Fallback*</title>
<path fill="none" stroke="black" d="M367.09,-225.58C316.01,-212.9 211.95,-187.07 154.8,-172.88"/>
<polygon fill="black" stroke="black" points="155.58,-169.47 145.03,-170.45 153.89,-176.26 155.58,-169.47"/>
</g>
<!-- Fallback** -->
<g id="node6" class="node">
<title>Fallback**</title>
<polygon fill="cyan" stroke="black" points="390.99,-154.54 390.99,-169.46 370.49,-180 341.51,-180 321.01,-169.46 321.01,-154.54 341.51,-144 370.49,-144 390.99,-154.54"/>
<text text-anchor="middle" x="356" y="-159.8" font-family="Times,serif" font-size="9.00">Fallback**</text>
</g>
<!-- Sequence&#45;&gt;Fallback** -->
<g id="edge5" class="edge">
<title>Sequence&#45;&gt;Fallback**</title>
<path fill="none" stroke="black" d="M386.87,-215.7C382.15,-207.64 376.44,-197.89 371.22,-188.98"/>
<polygon fill="black" stroke="black" points="374.09,-186.96 366.02,-180.1 368.05,-190.5 374.09,-186.96"/>
</g>
<!-- MoveTo! -->
<g id="node15" class="node">
<title>MoveTo!</title>
<ellipse fill="gray" stroke="black" cx="438" cy="-162" rx="28.74" ry="18"/>
<text text-anchor="middle" x="438" y="-159.8" font-family="Times,serif" font-size="9.00">MoveTo!</text>
</g>
<!-- Sequence&#45;&gt;MoveTo! -->
<g id="edge14" class="edge">
<title>Sequence&#45;&gt;MoveTo!</title>
<path fill="none" stroke="black" d="M407.13,-215.7C412.04,-207.32 418.03,-197.1 423.42,-187.9"/>
<polygon fill="black" stroke="black" points="426.51,-189.54 428.54,-179.14 420.47,-186 426.51,-189.54"/>
</g>
<!-- MoveTo!* -->
<g id="node16" class="node">
<title>MoveTo!*</title>
<ellipse fill="gray" stroke="black" cx="517" cy="-162" rx="31.51" ry="18"/>
<text text-anchor="middle" x="517" y="-159.8" font-family="Times,serif" font-size="9.00">MoveTo!*</text>
</g>
<!-- Sequence&#45;&gt;MoveTo!* -->
<g id="edge15" class="edge">
<title>Sequence&#45;&gt;MoveTo!*</title>
<path fill="none" stroke="black" d="M418.18,-220.65C437.25,-209.52 465.5,-193.04 486.92,-180.55"/>
<polygon fill="black" stroke="black" points="488.76,-183.53 495.63,-175.47 485.23,-177.48 488.76,-183.53"/>
</g>
<!-- GetLk! -->
<g id="node4" class="node">
<title>GetLk!</title>
<ellipse fill="gray" stroke="black" cx="27" cy="-90" rx="27" ry="18"/>
<text text-anchor="middle" x="27" y="-87.8" font-family="Times,serif" font-size="9.00">GetLk!</text>
</g>
<!-- Fallback*&#45;&gt;GetLk! -->
<g id="edge3" class="edge">
<title>Fallback*&#45;&gt;GetLk!</title>
<path fill="none" stroke="black" d="M96.77,-146.5C83.72,-136.12 66.01,-122.03 51.7,-110.64"/>
<polygon fill="black" stroke="black" points="53.73,-107.79 43.72,-104.3 49.37,-113.27 53.73,-107.79"/>
</g>
<!-- CompLkGraph! -->
<g id="node5" class="node">
<title>CompLkGraph!</title>
<ellipse fill="gray" stroke="black" cx="115" cy="-90" rx="42.95" ry="18"/>
<text text-anchor="middle" x="115" y="-87.8" font-family="Times,serif" font-size="9.00">CompLkGraph!</text>
</g>
<!-- Fallback*&#45;&gt;CompLkGraph! -->
<g id="edge4" class="edge">
<title>Fallback*&#45;&gt;CompLkGraph!</title>
<path fill="none" stroke="black" d="M115,-143.7C115,-135.98 115,-126.71 115,-118.11"/>
<polygon fill="black" stroke="black" points="118.5,-118.1 115,-108.1 111.5,-118.1 118.5,-118.1"/>
</g>
<!-- Sequence* -->
<g id="node7" class="node">
<title>Sequence*</title>
<polygon fill="cyan" stroke="black" points="244.24,-82.54 244.24,-97.46 224.18,-108 195.82,-108 175.76,-97.46 175.76,-82.54 195.82,-72 224.18,-72 244.24,-82.54"/>
<text text-anchor="middle" x="210" y="-87.8" font-family="Times,serif" font-size="9.00">Sequence*</text>
</g>
<!-- Fallback**&#45;&gt;Sequence* -->
<g id="edge6" class="edge">
<title>Fallback**&#45;&gt;Sequence*</title>
<path fill="none" stroke="black" d="M331.23,-149.13C307.18,-137.59 270.47,-119.99 243.75,-107.18"/>
<polygon fill="black" stroke="black" points="244.93,-103.87 234.4,-102.7 241.91,-110.18 244.93,-103.87"/>
</g>
<!-- NotReadyForSG? -->
<g id="node11" class="node">
<title>NotReadyForSG?</title>
<ellipse fill="gray" stroke="black" cx="309" cy="-90" rx="46.53" ry="18"/>
<text text-anchor="middle" x="309" y="-87.8" font-family="Times,serif" font-size="9.00">NotReadyForSG?</text>
</g>
<!-- Fallback**&#45;&gt;NotReadyForSG? -->
<g id="edge10" class="edge">
<title>Fallback**&#45;&gt;NotReadyForSG?</title>
<path fill="none" stroke="black" d="M344.38,-143.7C338.78,-135.35 331.95,-125.18 325.8,-116.02"/>
<polygon fill="black" stroke="black" points="328.64,-113.97 320.16,-107.62 322.83,-117.88 328.64,-113.97"/>
</g>
<!-- LkGraph? -->
<g id="node12" class="node">
<title>LkGraph?</title>
<ellipse fill="gray" stroke="black" cx="404" cy="-90" rx="30.7" ry="18"/>
<text text-anchor="middle" x="404" y="-87.8" font-family="Times,serif" font-size="9.00">LkGraph?</text>
</g>
<!-- Fallback**&#45;&gt;LkGraph? -->
<g id="edge11" class="edge">
<title>Fallback**&#45;&gt;LkGraph?</title>
<path fill="none" stroke="black" d="M367.87,-143.7C373.67,-135.23 380.76,-124.89 387.12,-115.61"/>
<polygon fill="black" stroke="black" points="390.16,-117.37 392.93,-107.14 384.39,-113.41 390.16,-117.37"/>
</g>
<!-- ReachGoal?* -->
<g id="node13" class="node">
<title>ReachGoal?*</title>
<ellipse fill="gray" stroke="black" cx="490" cy="-90" rx="36.9" ry="18"/>
<text text-anchor="middle" x="490" y="-87.8" font-family="Times,serif" font-size="9.00">ReachGoal?*</text>
</g>
<!-- Fallback**&#45;&gt;ReachGoal?* -->
<g id="edge12" class="edge">
<title>Fallback**&#45;&gt;ReachGoal?*</title>
<path fill="none" stroke="black" d="M379.65,-148.65C401.01,-137.49 432.66,-120.95 456.6,-108.45"/>
<polygon fill="black" stroke="black" points="458.44,-111.43 465.68,-103.7 455.2,-105.23 458.44,-111.43"/>
</g>
<!-- GetSubGoal! -->
<g id="node14" class="node">
<title>GetSubGoal!</title>
<ellipse fill="gray" stroke="black" cx="582" cy="-90" rx="36.9" ry="18"/>
<text text-anchor="middle" x="582" y="-87.8" font-family="Times,serif" font-size="9.00">GetSubGoal!</text>
</g>
<!-- Fallback**&#45;&gt;GetSubGoal! -->
<g id="edge13" class="edge">
<title>Fallback**&#45;&gt;GetSubGoal!</title>
<path fill="none" stroke="black" d="M382.82,-150.1C388.46,-147.96 394.39,-145.82 400,-144 459.47,-124.7 476.39,-126.86 536,-108 538.74,-107.13 541.56,-106.2 544.38,-105.23"/>
<polygon fill="black" stroke="black" points="545.67,-108.49 553.93,-101.86 543.33,-101.89 545.67,-108.49"/>
</g>
<!-- ReachGoal? -->
<g id="node8" class="node">
<title>ReachGoal?</title>
<ellipse fill="gray" stroke="black" cx="131" cy="-18" rx="34.13" ry="18"/>
<text text-anchor="middle" x="131" y="-15.8" font-family="Times,serif" font-size="9.00">ReachGoal?</text>
</g>
<!-- Sequence*&#45;&gt;ReachGoal? -->
<g id="edge7" class="edge">
<title>Sequence*&#45;&gt;ReachGoal?</title>
<path fill="none" stroke="black" d="M192.47,-73.46C181.5,-63.75 167.23,-51.1 155.2,-40.44"/>
<polygon fill="black" stroke="black" points="157.48,-37.79 147.67,-33.77 152.84,-43.02 157.48,-37.79"/>
</g>
<!-- GetLk!* -->
<g id="node9" class="node">
<title>GetLk!*</title>
<ellipse fill="gray" stroke="black" cx="210" cy="-18" rx="27.27" ry="18"/>
<text text-anchor="middle" x="210" y="-15.8" font-family="Times,serif" font-size="9.00">GetLk!*</text>
</g>
<!-- Sequence*&#45;&gt;GetLk!* -->
<g id="edge8" class="edge">
<title>Sequence*&#45;&gt;GetLk!*</title>
<path fill="none" stroke="black" d="M210,-71.7C210,-63.98 210,-54.71 210,-46.11"/>
<polygon fill="black" stroke="black" points="213.5,-46.1 210,-36.1 206.5,-46.1 213.5,-46.1"/>
</g>
<!-- LkClose? -->
<g id="node10" class="node">
<title>LkClose?</title>
<ellipse fill="gray" stroke="black" cx="284" cy="-18" rx="28.74" ry="18"/>
<text text-anchor="middle" x="284" y="-15.8" font-family="Times,serif" font-size="9.00">LkClose?</text>
</g>
<!-- Sequence*&#45;&gt;LkClose? -->
<g id="edge9" class="edge">
<title>Sequence*&#45;&gt;LkClose?</title>
<path fill="none" stroke="black" d="M226.79,-73.12C237.05,-63.41 250.29,-50.89 261.45,-40.33"/>
<polygon fill="black" stroke="black" points="263.93,-42.81 268.78,-33.39 259.11,-37.72 263.93,-42.81"/>
</g>
</g>
</svg>
