<?xml version="1.0" encoding="UTF-8" standalone="no"?>
<!DOCTYPE svg PUBLIC "-//W3C//DTD SVG 1.1//EN"
 "http://www.w3.org/Graphics/SVG/1.1/DTD/svg11.dtd">
<!-- Generated by graphviz version 2.43.0 (0)
 -->
<!-- Title: pastafarianism Pages: 1 -->
<svg width="731pt" height="332pt"
 viewBox="0.00 0.00 730.82 332.00" xmlns="http://www.w3.org/2000/svg" xmlns:xlink="http://www.w3.org/1999/xlink">
<g id="graph0" class="graph" transform="scale(1 1) rotate(0) translate(4 328)">
<title>pastafarianism</title>
<polygon fill="white" stroke="transparent" points="-4,4 -4,-328 726.82,-328 726.82,4 -4,4"/>
<!-- Fallback -->
<g id="node1" class="node">
<title>Fallback</title>
<polygon fill="cyan" stroke="black" points="445.19,-298.54 445.19,-313.46 428.06,-324 403.84,-324 386.71,-313.46 386.71,-298.54 403.84,-288 428.06,-288 445.19,-298.54"/>
<text text-anchor="middle" x="415.95" y="-303.8" font-family="Times,serif" font-size="9.00">Fallback</text>
</g>
<!-- ReachGoal? -->
<g id="node2" class="node">
<title>ReachGoal?</title>
<ellipse fill="gray" stroke="black" cx="334.95" cy="-234" rx="34.13" ry="18"/>
<text text-anchor="middle" x="334.95" y="-231.8" font-family="Times,serif" font-size="9.00">ReachGoal?</text>
</g>
<!-- Fallback&#45;&gt;ReachGoal? -->
<g id="edge1" class="edge">
<title>Fallback&#45;&gt;ReachGoal?</title>
<path fill="none" stroke="black" d="M399.17,-290.5C387.73,-280.61 372.4,-267.36 359.59,-256.29"/>
<polygon fill="black" stroke="black" points="361.85,-253.62 351.99,-249.73 357.27,-258.91 361.85,-253.62"/>
</g>
<!-- LkClose? -->
<g id="node3" class="node">
<title>LkClose?</title>
<ellipse fill="gray" stroke="black" cx="415.95" cy="-234" rx="28.74" ry="18"/>
<text text-anchor="middle" x="415.95" y="-231.8" font-family="Times,serif" font-size="9.00">LkClose?</text>
</g>
<!-- Fallback&#45;&gt;LkClose? -->
<g id="edge2" class="edge">
<title>Fallback&#45;&gt;LkClose?</title>
<path fill="none" stroke="black" d="M415.95,-287.7C415.95,-279.98 415.95,-270.71 415.95,-262.11"/>
<polygon fill="black" stroke="black" points="419.45,-262.1 415.95,-252.1 412.45,-262.1 419.45,-262.1"/>
</g>
<!-- Sequence -->
<g id="node4" class="node">
<title>Sequence</title>
<polygon fill="cyan" stroke="black" points="525.44,-226.54 525.44,-241.46 507,-252 480.91,-252 462.46,-241.46 462.46,-226.54 480.91,-216 507,-216 525.44,-226.54"/>
<text text-anchor="middle" x="493.95" y="-231.8" font-family="Times,serif" font-size="9.00">Sequence</text>
</g>
<!-- Fallback&#45;&gt;Sequence -->
<g id="edge3" class="edge">
<title>Fallback&#45;&gt;Sequence</title>
<path fill="none" stroke="black" d="M432.49,-290.15C443.28,-280.48 457.54,-267.68 469.61,-256.85"/>
<polygon fill="black" stroke="black" points="472.06,-259.35 477.16,-250.07 467.38,-254.14 472.06,-259.35"/>
</g>
<!-- Fallback* -->
<g id="node5" class="node">
<title>Fallback*</title>
<polygon fill="cyan" stroke="black" points="425.69,-154.54 425.69,-169.46 407.1,-180 380.8,-180 362.21,-169.46 362.21,-154.54 380.8,-144 407.1,-144 425.69,-154.54"/>
<text text-anchor="middle" x="393.95" y="-159.8" font-family="Times,serif" font-size="9.00">Fallback*</text>
</g>
<!-- Sequence&#45;&gt;Fallback* -->
<g id="edge4" class="edge">
<title>Sequence&#45;&gt;Fallback*</title>
<path fill="none" stroke="black" d="M474.67,-219.5C459.69,-209.02 438.7,-194.32 421.88,-182.55"/>
<polygon fill="black" stroke="black" points="423.71,-179.56 413.51,-176.69 419.7,-185.3 423.71,-179.56"/>
</g>
<!-- Fallback** -->
<g id="node14" class="node">
<title>Fallback**</title>
<polygon fill="cyan" stroke="black" points="629.94,-154.54 629.94,-169.46 609.44,-180 580.46,-180 559.96,-169.46 559.96,-154.54 580.46,-144 609.44,-144 629.94,-154.54"/>
<text text-anchor="middle" x="594.95" y="-159.8" font-family="Times,serif" font-size="9.00">Fallback**</text>
</g>
<!-- Sequence&#45;&gt;Fallback** -->
<g id="edge13" class="edge">
<title>Sequence&#45;&gt;Fallback**</title>
<path fill="none" stroke="black" d="M513.42,-219.5C528.36,-209.15 549.21,-194.7 566.09,-183"/>
<polygon fill="black" stroke="black" points="568.27,-185.75 574.5,-177.18 564.28,-180 568.27,-185.75"/>
</g>
<!-- Sequence* -->
<g id="node6" class="node">
<title>Sequence*</title>
<polygon fill="cyan" stroke="black" points="219.19,-82.54 219.19,-97.46 199.13,-108 170.77,-108 150.71,-97.46 150.71,-82.54 170.77,-72 199.13,-72 219.19,-82.54"/>
<text text-anchor="middle" x="184.95" y="-87.8" font-family="Times,serif" font-size="9.00">Sequence*</text>
</g>
<!-- Fallback*&#45;&gt;Sequence* -->
<g id="edge5" class="edge">
<title>Fallback*&#45;&gt;Sequence*</title>
<path fill="none" stroke="black" d="M365.56,-152.57C332.35,-142.57 275.82,-125.08 227.95,-108 225.57,-107.15 223.12,-106.25 220.66,-105.33"/>
<polygon fill="black" stroke="black" points="221.81,-102.02 211.22,-101.71 219.31,-108.56 221.81,-102.02"/>
</g>
<!-- NotReadyForSG?* -->
<g id="node11" class="node">
<title>NotReadyForSG?*</title>
<ellipse fill="gray" stroke="black" cx="286.95" cy="-90" rx="49.8" ry="18"/>
<text text-anchor="middle" x="286.95" y="-87.8" font-family="Times,serif" font-size="9.00">NotReadyForSG?*</text>
</g>
<!-- Fallback*&#45;&gt;NotReadyForSG?* -->
<g id="edge10" class="edge">
<title>Fallback*&#45;&gt;NotReadyForSG?*</title>
<path fill="none" stroke="black" d="M373.82,-147.83C358.22,-137.62 336.3,-123.29 318.39,-111.57"/>
<polygon fill="black" stroke="black" points="320.24,-108.6 309.96,-106.05 316.41,-114.46 320.24,-108.6"/>
</g>
<!-- ReachGoal?** -->
<g id="node12" class="node">
<title>ReachGoal?**</title>
<ellipse fill="gray" stroke="black" cx="393.95" cy="-90" rx="39.02" ry="18"/>
<text text-anchor="middle" x="393.95" y="-87.8" font-family="Times,serif" font-size="9.00">ReachGoal?**</text>
</g>
<!-- Fallback*&#45;&gt;ReachGoal?** -->
<g id="edge11" class="edge">
<title>Fallback*&#45;&gt;ReachGoal?**</title>
<path fill="none" stroke="black" d="M393.95,-143.7C393.95,-135.98 393.95,-126.71 393.95,-118.11"/>
<polygon fill="black" stroke="black" points="397.45,-118.1 393.95,-108.1 390.45,-118.1 397.45,-118.1"/>
</g>
<!-- GetSubGoal! -->
<g id="node13" class="node">
<title>GetSubGoal!</title>
<ellipse fill="gray" stroke="black" cx="487.95" cy="-90" rx="36.9" ry="18"/>
<text text-anchor="middle" x="487.95" y="-87.8" font-family="Times,serif" font-size="9.00">GetSubGoal!</text>
</g>
<!-- Fallback*&#45;&gt;GetSubGoal! -->
<g id="edge12" class="edge">
<title>Fallback*&#45;&gt;GetSubGoal!</title>
<path fill="none" stroke="black" d="M412.97,-146.83C426.64,-136.65 445.28,-122.78 460.55,-111.41"/>
<polygon fill="black" stroke="black" points="462.7,-114.16 468.63,-105.38 458.52,-108.55 462.7,-114.16"/>
</g>
<!-- ReachGoal?* -->
<g id="node7" class="node">
<title>ReachGoal?*</title>
<ellipse fill="gray" stroke="black" cx="36.95" cy="-18" rx="36.9" ry="18"/>
<text text-anchor="middle" x="36.95" y="-15.8" font-family="Times,serif" font-size="9.00">ReachGoal?*</text>
</g>
<!-- Sequence*&#45;&gt;ReachGoal?* -->
<g id="edge6" class="edge">
<title>Sequence*&#45;&gt;ReachGoal?*</title>
<path fill="none" stroke="black" d="M160.18,-77.28C136.03,-65.86 99.09,-48.39 71.95,-35.56"/>
<polygon fill="black" stroke="black" points="73.34,-32.34 62.8,-31.23 70.34,-38.67 73.34,-32.34"/>
</g>
<!-- NotReadyForSG? -->
<g id="node8" class="node">
<title>NotReadyForSG?</title>
<ellipse fill="gray" stroke="black" cx="138.95" cy="-18" rx="46.53" ry="18"/>
<text text-anchor="middle" x="138.95" y="-15.8" font-family="Times,serif" font-size="9.00">NotReadyForSG?</text>
</g>
<!-- Sequence*&#45;&gt;NotReadyForSG? -->
<g id="edge7" class="edge">
<title>Sequence*&#45;&gt;NotReadyForSG?</title>
<path fill="none" stroke="black" d="M173.58,-71.7C168.1,-63.35 161.41,-53.18 155.39,-44.02"/>
<polygon fill="black" stroke="black" points="158.29,-42.06 149.87,-35.62 152.44,-45.9 158.29,-42.06"/>
</g>
<!-- GetLk! -->
<g id="node9" class="node">
<title>GetLk!</title>
<ellipse fill="gray" stroke="black" cx="230.95" cy="-18" rx="27" ry="18"/>
<text text-anchor="middle" x="230.95" y="-15.8" font-family="Times,serif" font-size="9.00">GetLk!</text>
</g>
<!-- Sequence*&#45;&gt;GetLk! -->
<g id="edge8" class="edge">
<title>Sequence*&#45;&gt;GetLk!</title>
<path fill="none" stroke="black" d="M196.32,-71.7C201.97,-63.11 208.88,-52.58 215.04,-43.21"/>
<polygon fill="black" stroke="black" points="218.09,-44.95 220.65,-34.67 212.24,-41.11 218.09,-44.95"/>
</g>
<!-- GetLk!* -->
<g id="node10" class="node">
<title>GetLk!*</title>
<ellipse fill="gray" stroke="black" cx="302.95" cy="-18" rx="27.27" ry="18"/>
<text text-anchor="middle" x="302.95" y="-15.8" font-family="Times,serif" font-size="9.00">GetLk!*</text>
</g>
<!-- Sequence*&#45;&gt;GetLk!* -->
<g id="edge9" class="edge">
<title>Sequence*&#45;&gt;GetLk!*</title>
<path fill="none" stroke="black" d="M206.87,-76C225.91,-64.7 253.62,-48.26 274.4,-35.94"/>
<polygon fill="black" stroke="black" points="276.3,-38.88 283.11,-30.77 272.73,-32.86 276.3,-38.88"/>
</g>
<!-- NotReadyForSG?** -->
<g id="node15" class="node">
<title>NotReadyForSG?**</title>
<ellipse fill="gray" stroke="black" cx="594.95" cy="-90" rx="51.92" ry="18"/>
<text text-anchor="middle" x="594.95" y="-87.8" font-family="Times,serif" font-size="9.00">NotReadyForSG?**</text>
</g>
<!-- Fallback**&#45;&gt;NotReadyForSG?** -->
<g id="edge14" class="edge">
<title>Fallback**&#45;&gt;NotReadyForSG?**</title>
<path fill="none" stroke="black" d="M594.95,-143.7C594.95,-135.98 594.95,-126.71 594.95,-118.11"/>
<polygon fill="black" stroke="black" points="598.45,-118.1 594.95,-108.1 591.45,-118.1 598.45,-118.1"/>
</g>
<!-- MoveTo! -->
<g id="node16" class="node">
<title>MoveTo!</title>
<ellipse fill="gray" stroke="black" cx="693.95" cy="-90" rx="28.74" ry="18"/>
<text text-anchor="middle" x="693.95" y="-87.8" font-family="Times,serif" font-size="9.00">MoveTo!</text>
</g>
<!-- Fallback**&#45;&gt;MoveTo! -->
<g id="edge15" class="edge">
<title>Fallback**&#45;&gt;MoveTo!</title>
<path fill="none" stroke="black" d="M614.98,-146.83C630.09,-136.15 650.96,-121.4 667.45,-109.74"/>
<polygon fill="black" stroke="black" points="669.47,-112.6 675.62,-103.96 665.43,-106.88 669.47,-112.6"/>
</g>
</g>
</svg>
