<?xml version="1.0" encoding="UTF-8" standalone="no"?>
<!DOCTYPE svg PUBLIC "-//W3C//DTD SVG 1.1//EN"
 "http://www.w3.org/Graphics/SVG/1.1/DTD/svg11.dtd">
<!-- Generated by graphviz version 2.43.0 (0)
 -->
<!-- Title: pastafarianism Pages: 1 -->
<svg width="622pt" height="260pt"
 viewBox="0.00 0.00 622.03 260.00" xmlns="http://www.w3.org/2000/svg" xmlns:xlink="http://www.w3.org/1999/xlink">
<g id="graph0" class="graph" transform="scale(1 1) rotate(0) translate(4 256)">
<title>pastafarianism</title>
<polygon fill="white" stroke="transparent" points="-4,4 -4,-256 618.03,-256 618.03,4 -4,4"/>
<!-- Fallback -->
<g id="node1" class="node">
<title>Fallback</title>
<polygon fill="cyan" stroke="black" points="387.01,-226.54 387.01,-241.46 369.88,-252 345.65,-252 328.52,-241.46 328.52,-226.54 345.65,-216 369.88,-216 387.01,-226.54"/>
<text text-anchor="middle" x="357.77" y="-231.8" font-family="Times,serif" font-size="9.00">Fallback</text>
</g>
<!-- ReachGoal? -->
<g id="node2" class="node">
<title>ReachGoal?</title>
<ellipse fill="gray" stroke="black" cx="274.77" cy="-162" rx="34.13" ry="18"/>
<text text-anchor="middle" x="274.77" y="-159.8" font-family="Times,serif" font-size="9.00">ReachGoal?</text>
</g>
<!-- Fallback&#45;&gt;ReachGoal? -->
<g id="edge1" class="edge">
<title>Fallback&#45;&gt;ReachGoal?</title>
<path fill="none" stroke="black" d="M340.97,-218.83C329.2,-208.91 313.27,-195.47 299.98,-184.26"/>
<polygon fill="black" stroke="black" points="302.01,-181.4 292.11,-177.63 297.5,-186.75 302.01,-181.4"/>
</g>
<!-- Sequence -->
<g id="node3" class="node">
<title>Sequence</title>
<polygon fill="cyan" stroke="black" points="389.26,-154.54 389.26,-169.46 370.81,-180 344.72,-180 326.27,-169.46 326.27,-154.54 344.72,-144 370.81,-144 389.26,-154.54"/>
<text text-anchor="middle" x="357.77" y="-159.8" font-family="Times,serif" font-size="9.00">Sequence</text>
</g>
<!-- Fallback&#45;&gt;Sequence -->
<g id="edge2" class="edge">
<title>Fallback&#45;&gt;Sequence</title>
<path fill="none" stroke="black" d="M357.77,-215.7C357.77,-207.98 357.77,-198.71 357.77,-190.11"/>
<polygon fill="black" stroke="black" points="361.27,-190.1 357.77,-180.1 354.27,-190.1 361.27,-190.1"/>
</g>
<!-- LkClose? -->
<g id="node13" class="node">
<title>LkClose?</title>
<ellipse fill="gray" stroke="black" cx="435.77" cy="-162" rx="28.74" ry="18"/>
<text text-anchor="middle" x="435.77" y="-159.8" font-family="Times,serif" font-size="9.00">LkClose?</text>
</g>
<!-- Fallback&#45;&gt;LkClose? -->
<g id="edge12" class="edge">
<title>Fallback&#45;&gt;LkClose?</title>
<path fill="none" stroke="black" d="M374.31,-218.15C385.39,-208.21 400.13,-194.98 412.4,-183.97"/>
<polygon fill="black" stroke="black" points="414.94,-186.39 420.05,-177.11 410.27,-181.18 414.94,-186.39"/>
</g>
<!-- Fallback* -->
<g id="node4" class="node">
<title>Fallback*</title>
<polygon fill="cyan" stroke="black" points="285.51,-82.54 285.51,-97.46 266.91,-108 240.62,-108 222.02,-97.46 222.02,-82.54 240.62,-72 266.91,-72 285.51,-82.54"/>
<text text-anchor="middle" x="253.77" y="-87.8" font-family="Times,serif" font-size="9.00">Fallback*</text>
</g>
<!-- Sequence&#45;&gt;Fallback* -->
<g id="edge3" class="edge">
<title>Sequence&#45;&gt;Fallback*</title>
<path fill="none" stroke="black" d="M337.71,-147.5C322.03,-136.95 300.02,-122.13 282.47,-110.32"/>
<polygon fill="black" stroke="black" points="284.01,-107.14 273.76,-104.46 280.1,-112.94 284.01,-107.14"/>
</g>
<!-- MoveTo! -->
<g id="node9" class="node">
<title>MoveTo!</title>
<ellipse fill="gray" stroke="black" cx="357.77" cy="-90" rx="28.74" ry="18"/>
<text text-anchor="middle" x="357.77" y="-87.8" font-family="Times,serif" font-size="9.00">MoveTo!</text>
</g>
<!-- Sequence&#45;&gt;MoveTo! -->
<g id="edge8" class="edge">
<title>Sequence&#45;&gt;MoveTo!</title>
<path fill="none" stroke="black" d="M357.77,-143.7C357.77,-135.98 357.77,-126.71 357.77,-118.11"/>
<polygon fill="black" stroke="black" points="361.27,-118.1 357.77,-108.1 354.27,-118.1 361.27,-118.1"/>
</g>
<!-- Fallback** -->
<g id="node10" class="node">
<title>Fallback**</title>
<polygon fill="cyan" stroke="black" points="500.76,-82.54 500.76,-97.46 480.26,-108 451.27,-108 430.77,-97.46 430.77,-82.54 451.27,-72 480.26,-72 500.76,-82.54"/>
<text text-anchor="middle" x="465.77" y="-87.8" font-family="Times,serif" font-size="9.00">Fallback**</text>
</g>
<!-- Sequence&#45;&gt;Fallback** -->
<g id="edge9" class="edge">
<title>Sequence&#45;&gt;Fallback**</title>
<path fill="none" stroke="black" d="M377.83,-148C394.26,-137.35 417.74,-122.13 436.3,-110.1"/>
<polygon fill="black" stroke="black" points="438.22,-113.03 444.71,-104.65 434.41,-107.15 438.22,-113.03"/>
</g>
<!-- NotReadyForSG? -->
<g id="node5" class="node">
<title>NotReadyForSG?</title>
<ellipse fill="gray" stroke="black" cx="46.77" cy="-18" rx="46.53" ry="18"/>
<text text-anchor="middle" x="46.77" y="-15.8" font-family="Times,serif" font-size="9.00">NotReadyForSG?</text>
</g>
<!-- Fallback*&#45;&gt;NotReadyForSG? -->
<g id="edge4" class="edge">
<title>Fallback*&#45;&gt;NotReadyForSG?</title>
<path fill="none" stroke="black" d="M226.7,-79.85C192.01,-68.12 131.41,-47.62 90.22,-33.69"/>
<polygon fill="black" stroke="black" points="91.3,-30.37 80.71,-30.48 89.06,-37 91.3,-30.37"/>
</g>
<!-- ReachGoal?* -->
<g id="node6" class="node">
<title>ReachGoal?*</title>
<ellipse fill="gray" stroke="black" cx="148.77" cy="-18" rx="36.9" ry="18"/>
<text text-anchor="middle" x="148.77" y="-15.8" font-family="Times,serif" font-size="9.00">ReachGoal?*</text>
</g>
<!-- Fallback*&#45;&gt;ReachGoal?* -->
<g id="edge5" class="edge">
<title>Fallback*&#45;&gt;ReachGoal?*</title>
<path fill="none" stroke="black" d="M233.52,-75.5C217.89,-65.08 196.03,-50.51 178.43,-38.78"/>
<polygon fill="black" stroke="black" points="179.93,-35.57 169.67,-32.93 176.05,-41.39 179.93,-35.57"/>
</g>
<!-- NotReadyForSG?* -->
<g id="node7" class="node">
<title>NotReadyForSG?*</title>
<ellipse fill="gray" stroke="black" cx="253.77" cy="-18" rx="49.8" ry="18"/>
<text text-anchor="middle" x="253.77" y="-15.8" font-family="Times,serif" font-size="9.00">NotReadyForSG?*</text>
</g>
<!-- Fallback*&#45;&gt;NotReadyForSG?* -->
<g id="edge6" class="edge">
<title>Fallback*&#45;&gt;NotReadyForSG?*</title>
<path fill="none" stroke="black" d="M253.77,-71.7C253.77,-63.98 253.77,-54.71 253.77,-46.11"/>
<polygon fill="black" stroke="black" points="257.27,-46.1 253.77,-36.1 250.27,-46.1 257.27,-46.1"/>
</g>
<!-- GetSubGoal! -->
<g id="node8" class="node">
<title>GetSubGoal!</title>
<ellipse fill="gray" stroke="black" cx="358.77" cy="-18" rx="36.9" ry="18"/>
<text text-anchor="middle" x="358.77" y="-15.8" font-family="Times,serif" font-size="9.00">GetSubGoal!</text>
</g>
<!-- Fallback*&#45;&gt;GetSubGoal! -->
<g id="edge7" class="edge">
<title>Fallback*&#45;&gt;GetSubGoal!</title>
<path fill="none" stroke="black" d="M274.01,-75.5C289.64,-65.08 311.5,-50.51 329.1,-38.78"/>
<polygon fill="black" stroke="black" points="331.48,-41.39 337.86,-32.93 327.6,-35.57 331.48,-41.39"/>
</g>
<!-- NotReadyForSG?** -->
<g id="node11" class="node">
<title>NotReadyForSG?**</title>
<ellipse fill="gray" stroke="black" cx="465.77" cy="-18" rx="51.92" ry="18"/>
<text text-anchor="middle" x="465.77" y="-15.8" font-family="Times,serif" font-size="9.00">NotReadyForSG?**</text>
</g>
<!-- Fallback**&#45;&gt;NotReadyForSG?** -->
<g id="edge10" class="edge">
<title>Fallback**&#45;&gt;NotReadyForSG?**</title>
<path fill="none" stroke="black" d="M465.77,-71.7C465.77,-63.98 465.77,-54.71 465.77,-46.11"/>
<polygon fill="black" stroke="black" points="469.27,-46.1 465.77,-36.1 462.27,-46.1 469.27,-46.1"/>
</g>
<!-- GetSubGoal!* -->
<g id="node12" class="node">
<title>GetSubGoal!*</title>
<ellipse fill="gray" stroke="black" cx="574.77" cy="-18" rx="39.02" ry="18"/>
<text text-anchor="middle" x="574.77" y="-15.8" font-family="Times,serif" font-size="9.00">GetSubGoal!*</text>
</g>
<!-- Fallback**&#45;&gt;GetSubGoal!* -->
<g id="edge11" class="edge">
<title>Fallback**&#45;&gt;GetSubGoal!*</title>
<path fill="none" stroke="black" d="M487.04,-75.34C503.33,-64.87 526.03,-50.3 544.26,-38.59"/>
<polygon fill="black" stroke="black" points="546.27,-41.46 552.8,-33.11 542.49,-35.57 546.27,-41.46"/>
</g>
</g>
</svg>
