<?xml version="1.0" encoding="UTF-8" standalone="no"?>
<!DOCTYPE svg PUBLIC "-//W3C//DTD SVG 1.1//EN"
 "http://www.w3.org/Graphics/SVG/1.1/DTD/svg11.dtd">
<!-- Generated by graphviz version 2.43.0 (0)
 -->
<!-- Title: pastafarianism Pages: 1 -->
<svg width="304pt" height="260pt"
 viewBox="0.00 0.00 303.63 260.00" xmlns="http://www.w3.org/2000/svg" xmlns:xlink="http://www.w3.org/1999/xlink">
<g id="graph0" class="graph" transform="scale(1 1) rotate(0) translate(4 256)">
<title>pastafarianism</title>
<polygon fill="white" stroke="transparent" points="-4,4 -4,-256 299.63,-256 299.63,4 -4,4"/>
<!-- Fallback -->
<g id="node1" class="node">
<title>Fallback</title>
<polygon fill="cyan" stroke="black" points="218.01,-226.54 218.01,-241.46 200.88,-252 176.65,-252 159.52,-241.46 159.52,-226.54 176.65,-216 200.88,-216 218.01,-226.54"/>
<text text-anchor="middle" x="188.77" y="-231.8" font-family="Times,serif" font-size="9.00">Fallback</text>
</g>
<!-- ReachGoal? -->
<g id="node2" class="node">
<title>ReachGoal?</title>
<ellipse fill="gray" stroke="black" cx="105.77" cy="-162" rx="34.13" ry="18"/>
<text text-anchor="middle" x="105.77" y="-159.8" font-family="Times,serif" font-size="9.00">ReachGoal?</text>
</g>
<!-- Fallback&#45;&gt;ReachGoal? -->
<g id="edge1" class="edge">
<title>Fallback&#45;&gt;ReachGoal?</title>
<path fill="none" stroke="black" d="M171.97,-218.83C160.2,-208.91 144.27,-195.47 130.98,-184.26"/>
<polygon fill="black" stroke="black" points="133.01,-181.4 123.11,-177.63 128.5,-186.75 133.01,-181.4"/>
</g>
<!-- Sequence -->
<g id="node3" class="node">
<title>Sequence</title>
<polygon fill="cyan" stroke="black" points="220.26,-154.54 220.26,-169.46 201.81,-180 175.72,-180 157.27,-169.46 157.27,-154.54 175.72,-144 201.81,-144 220.26,-154.54"/>
<text text-anchor="middle" x="188.77" y="-159.8" font-family="Times,serif" font-size="9.00">Sequence</text>
</g>
<!-- Fallback&#45;&gt;Sequence -->
<g id="edge2" class="edge">
<title>Fallback&#45;&gt;Sequence</title>
<path fill="none" stroke="black" d="M188.77,-215.7C188.77,-207.98 188.77,-198.71 188.77,-190.11"/>
<polygon fill="black" stroke="black" points="192.27,-190.1 188.77,-180.1 185.27,-190.1 192.27,-190.1"/>
</g>
<!-- LkClose? -->
<g id="node9" class="node">
<title>LkClose?</title>
<ellipse fill="gray" stroke="black" cx="266.77" cy="-162" rx="28.74" ry="18"/>
<text text-anchor="middle" x="266.77" y="-159.8" font-family="Times,serif" font-size="9.00">LkClose?</text>
</g>
<!-- Fallback&#45;&gt;LkClose? -->
<g id="edge8" class="edge">
<title>Fallback&#45;&gt;LkClose?</title>
<path fill="none" stroke="black" d="M205.31,-218.15C216.39,-208.21 231.13,-194.98 243.4,-183.97"/>
<polygon fill="black" stroke="black" points="245.94,-186.39 251.05,-177.11 241.27,-181.18 245.94,-186.39"/>
</g>
<!-- Fallback* -->
<g id="node4" class="node">
<title>Fallback*</title>
<polygon fill="cyan" stroke="black" points="180.51,-82.54 180.51,-97.46 161.91,-108 135.62,-108 117.02,-97.46 117.02,-82.54 135.62,-72 161.91,-72 180.51,-82.54"/>
<text text-anchor="middle" x="148.77" y="-87.8" font-family="Times,serif" font-size="9.00">Fallback*</text>
</g>
<!-- Sequence&#45;&gt;Fallback* -->
<g id="edge3" class="edge">
<title>Sequence&#45;&gt;Fallback*</title>
<path fill="none" stroke="black" d="M178.88,-143.7C174.28,-135.64 168.71,-125.89 163.61,-116.98"/>
<polygon fill="black" stroke="black" points="166.54,-115.05 158.54,-108.1 160.46,-118.52 166.54,-115.05"/>
</g>
<!-- MoveTo! -->
<g id="node8" class="node">
<title>MoveTo!</title>
<ellipse fill="gray" stroke="black" cx="227.77" cy="-90" rx="28.74" ry="18"/>
<text text-anchor="middle" x="227.77" y="-87.8" font-family="Times,serif" font-size="9.00">MoveTo!</text>
</g>
<!-- Sequence&#45;&gt;MoveTo! -->
<g id="edge7" class="edge">
<title>Sequence&#45;&gt;MoveTo!</title>
<path fill="none" stroke="black" d="M198.41,-143.7C203.08,-135.32 208.77,-125.1 213.89,-115.9"/>
<polygon fill="black" stroke="black" points="216.96,-117.58 218.77,-107.14 210.85,-114.18 216.96,-117.58"/>
</g>
<!-- NotReadyForSG? -->
<g id="node5" class="node">
<title>NotReadyForSG?</title>
<ellipse fill="gray" stroke="black" cx="46.77" cy="-18" rx="46.53" ry="18"/>
<text text-anchor="middle" x="46.77" y="-15.8" font-family="Times,serif" font-size="9.00">NotReadyForSG?</text>
</g>
<!-- Fallback*&#45;&gt;NotReadyForSG? -->
<g id="edge4" class="edge">
<title>Fallback*&#45;&gt;NotReadyForSG?</title>
<path fill="none" stroke="black" d="M129.1,-75.5C114.41,-65.42 94.05,-51.45 77.26,-39.93"/>
<polygon fill="black" stroke="black" points="79.08,-36.93 68.85,-34.16 75.12,-42.7 79.08,-36.93"/>
</g>
<!-- ReachGoal?* -->
<g id="node6" class="node">
<title>ReachGoal?*</title>
<ellipse fill="gray" stroke="black" cx="148.77" cy="-18" rx="36.9" ry="18"/>
<text text-anchor="middle" x="148.77" y="-15.8" font-family="Times,serif" font-size="9.00">ReachGoal?*</text>
</g>
<!-- Fallback*&#45;&gt;ReachGoal?* -->
<g id="edge5" class="edge">
<title>Fallback*&#45;&gt;ReachGoal?*</title>
<path fill="none" stroke="black" d="M148.77,-71.7C148.77,-63.98 148.77,-54.71 148.77,-46.11"/>
<polygon fill="black" stroke="black" points="152.27,-46.1 148.77,-36.1 145.27,-46.1 152.27,-46.1"/>
</g>
<!-- GetSubGoal! -->
<g id="node7" class="node">
<title>GetSubGoal!</title>
<ellipse fill="gray" stroke="black" cx="240.77" cy="-18" rx="36.9" ry="18"/>
<text text-anchor="middle" x="240.77" y="-15.8" font-family="Times,serif" font-size="9.00">GetSubGoal!</text>
</g>
<!-- Fallback*&#45;&gt;GetSubGoal! -->
<g id="edge6" class="edge">
<title>Fallback*&#45;&gt;GetSubGoal!</title>
<path fill="none" stroke="black" d="M167.38,-74.83C180.55,-64.82 198.42,-51.22 213.23,-39.95"/>
<polygon fill="black" stroke="black" points="215.7,-42.47 221.54,-33.63 211.46,-36.9 215.7,-42.47"/>
</g>
</g>
</svg>
