<?xml version="1.0" encoding="UTF-8" standalone="no"?>
<!DOCTYPE svg PUBLIC "-//W3C//DTD SVG 1.1//EN"
 "http://www.w3.org/Graphics/SVG/1.1/DTD/svg11.dtd">
<!-- Generated by graphviz version 2.43.0 (0)
 -->
<!-- Title: pastafarianism Pages: 1 -->
<svg width="892pt" height="188pt"
 viewBox="0.00 0.00 892.20 188.00" xmlns="http://www.w3.org/2000/svg" xmlns:xlink="http://www.w3.org/1999/xlink">
<g id="graph0" class="graph" transform="scale(1 1) rotate(0) translate(4 184)">
<title>pastafarianism</title>
<polygon fill="white" stroke="transparent" points="-4,4 -4,-184 888.2,-184 888.2,4 -4,4"/>
<!-- Sequence -->
<g id="node1" class="node">
<title>Sequence</title>
<polygon fill="cyan" stroke="black" points="433.49,-154.54 433.49,-169.46 415.05,-180 388.95,-180 370.51,-169.46 370.51,-154.54 388.95,-144 415.05,-144 433.49,-154.54"/>
<text text-anchor="middle" x="402" y="-159.8" font-family="Times,serif" font-size="9.00">Sequence</text>
</g>
<!-- pick 0! -->
<g id="node2" class="node">
<title>pick 0!</title>
<ellipse fill="gray" stroke="black" cx="328" cy="-90" rx="27" ry="18"/>
<text text-anchor="middle" x="328" y="-87.8" font-family="Times,serif" font-size="9.00">pick 0!</text>
</g>
<!-- Sequence&#45;&gt;pick 0! -->
<g id="edge1" class="edge">
<title>Sequence&#45;&gt;pick 0!</title>
<path fill="none" stroke="black" d="M385.58,-145.46C375.2,-135.65 361.65,-122.83 350.31,-112.1"/>
<polygon fill="black" stroke="black" points="352.54,-109.39 342.87,-105.07 347.73,-114.48 352.54,-109.39"/>
</g>
<!-- Fallback -->
<g id="node3" class="node">
<title>Fallback</title>
<polygon fill="cyan" stroke="black" points="431.24,-82.54 431.24,-97.46 414.11,-108 389.89,-108 372.76,-97.46 372.76,-82.54 389.89,-72 414.11,-72 431.24,-82.54"/>
<text text-anchor="middle" x="402" y="-87.8" font-family="Times,serif" font-size="9.00">Fallback</text>
</g>
<!-- Sequence&#45;&gt;Fallback -->
<g id="edge2" class="edge">
<title>Sequence&#45;&gt;Fallback</title>
<path fill="none" stroke="black" d="M402,-143.7C402,-135.98 402,-126.71 402,-118.11"/>
<polygon fill="black" stroke="black" points="405.5,-118.1 402,-108.1 398.5,-118.1 405.5,-118.1"/>
</g>
<!-- place at (0.0, 0.05, 0.0)!** -->
<g id="node14" class="node">
<title>place at (0.0, 0.05, 0.0)!**</title>
<ellipse fill="gray" stroke="black" cx="513" cy="-90" rx="63.52" ry="18"/>
<text text-anchor="middle" x="513" y="-87.8" font-family="Times,serif" font-size="9.00">place at (0.0, 0.05, 0.0)!**</text>
</g>
<!-- Sequence&#45;&gt;place at (0.0, 0.05, 0.0)!** -->
<g id="edge13" class="edge">
<title>Sequence&#45;&gt;place at (0.0, 0.05, 0.0)!**</title>
<path fill="none" stroke="black" d="M422.36,-148.16C438.35,-138.08 460.96,-123.82 479.59,-112.07"/>
<polygon fill="black" stroke="black" points="481.52,-114.99 488.11,-106.7 477.78,-109.07 481.52,-114.99"/>
</g>
<!-- pick 0!* -->
<g id="node4" class="node">
<title>pick 0!*</title>
<ellipse fill="gray" stroke="black" cx="27" cy="-18" rx="27" ry="18"/>
<text text-anchor="middle" x="27" y="-15.8" font-family="Times,serif" font-size="9.00">pick 0!*</text>
</g>
<!-- Fallback&#45;&gt;pick 0!* -->
<g id="edge3" class="edge">
<title>Fallback&#45;&gt;pick 0!*</title>
<path fill="none" stroke="black" d="M379.91,-77.78C374.79,-75.56 369.29,-73.46 364,-72 234.14,-36.08 192.48,-73.25 63,-36 61.06,-35.44 59.09,-34.79 57.12,-34.07"/>
<polygon fill="black" stroke="black" points="58.07,-30.67 47.5,-30.07 55.39,-37.14 58.07,-30.67"/>
</g>
<!-- pick 2! -->
<g id="node5" class="node">
<title>pick 2!</title>
<ellipse fill="gray" stroke="black" cx="99" cy="-18" rx="27" ry="18"/>
<text text-anchor="middle" x="99" y="-15.8" font-family="Times,serif" font-size="9.00">pick 2!</text>
</g>
<!-- Fallback&#45;&gt;pick 2! -->
<g id="edge4" class="edge">
<title>Fallback&#45;&gt;pick 2!</title>
<path fill="none" stroke="black" d="M379.87,-77.92C374.75,-75.69 369.27,-73.56 364,-72 265.22,-42.71 233.47,-66.3 135,-36 133.07,-35.41 131.11,-34.72 129.15,-33.99"/>
<polygon fill="black" stroke="black" points="130.11,-30.59 119.54,-29.93 127.39,-37.04 130.11,-30.59"/>
</g>
<!-- pick 1! -->
<g id="node6" class="node">
<title>pick 1!</title>
<ellipse fill="gray" stroke="black" cx="171" cy="-18" rx="27" ry="18"/>
<text text-anchor="middle" x="171" y="-15.8" font-family="Times,serif" font-size="9.00">pick 1!</text>
</g>
<!-- Fallback&#45;&gt;pick 1! -->
<g id="edge5" class="edge">
<title>Fallback&#45;&gt;pick 1!</title>
<path fill="none" stroke="black" d="M379.78,-78.19C374.67,-75.95 369.21,-73.74 364,-72 296.11,-49.27 274.65,-59.42 207,-36 205.09,-35.34 203.15,-34.61 201.2,-33.83"/>
<polygon fill="black" stroke="black" points="202.19,-30.44 191.62,-29.67 199.4,-36.86 202.19,-30.44"/>
</g>
<!-- picked 2? -->
<g id="node7" class="node">
<title>picked 2?</title>
<ellipse fill="gray" stroke="black" cx="245" cy="-18" rx="28.74" ry="18"/>
<text text-anchor="middle" x="245" y="-15.8" font-family="Times,serif" font-size="9.00">picked 2?</text>
</g>
<!-- Fallback&#45;&gt;picked 2? -->
<g id="edge6" class="edge">
<title>Fallback&#45;&gt;picked 2?</title>
<path fill="none" stroke="black" d="M378.69,-78.56C373.84,-76.39 368.75,-74.12 364,-72 328.02,-55.96 318.98,-52.04 283,-36 281.17,-35.18 279.29,-34.34 277.39,-33.5"/>
<polygon fill="black" stroke="black" points="278.46,-30.14 267.9,-29.26 275.61,-36.53 278.46,-30.14"/>
</g>
<!-- place at (0.0, 0.05, 0.0)! -->
<g id="node8" class="node">
<title>place at (0.0, 0.05, 0.0)!</title>
<ellipse fill="gray" stroke="black" cx="350" cy="-18" rx="58.13" ry="18"/>
<text text-anchor="middle" x="350" y="-15.8" font-family="Times,serif" font-size="9.00">place at (0.0, 0.05, 0.0)!</text>
</g>
<!-- Fallback&#45;&gt;place at (0.0, 0.05, 0.0)! -->
<g id="edge7" class="edge">
<title>Fallback&#45;&gt;place at (0.0, 0.05, 0.0)!</title>
<path fill="none" stroke="black" d="M389.41,-72.05C383.15,-63.63 375.46,-53.28 368.55,-43.97"/>
<polygon fill="black" stroke="black" points="371.24,-41.73 362.47,-35.79 365.63,-45.9 371.24,-41.73"/>
</g>
<!-- pick 0!** -->
<g id="node9" class="node">
<title>pick 0!**</title>
<ellipse fill="gray" stroke="black" cx="455" cy="-18" rx="28.74" ry="18"/>
<text text-anchor="middle" x="455" y="-15.8" font-family="Times,serif" font-size="9.00">pick 0!**</text>
</g>
<!-- Fallback&#45;&gt;pick 0!** -->
<g id="edge8" class="edge">
<title>Fallback&#45;&gt;pick 0!**</title>
<path fill="none" stroke="black" d="M414.83,-72.05C421.46,-63.29 429.67,-52.45 436.94,-42.86"/>
<polygon fill="black" stroke="black" points="439.77,-44.91 443.01,-34.83 434.19,-40.69 439.77,-44.91"/>
</g>
<!-- pick 0!*** -->
<g id="node10" class="node">
<title>pick 0!***</title>
<ellipse fill="gray" stroke="black" cx="534" cy="-18" rx="31.51" ry="18"/>
<text text-anchor="middle" x="534" y="-15.8" font-family="Times,serif" font-size="9.00">pick 0!***</text>
</g>
<!-- Fallback&#45;&gt;pick 0!*** -->
<g id="edge9" class="edge">
<title>Fallback&#45;&gt;pick 0!***</title>
<path fill="none" stroke="black" d="M423.5,-77.6C445.01,-66.19 478.31,-48.53 502.74,-35.58"/>
<polygon fill="black" stroke="black" points="504.43,-38.64 511.62,-30.87 501.15,-32.46 504.43,-38.64"/>
</g>
<!-- pick 0!**** -->
<g id="node11" class="node">
<title>pick 0!****</title>
<ellipse fill="gray" stroke="black" cx="618" cy="-18" rx="34.13" ry="18"/>
<text text-anchor="middle" x="618" y="-15.8" font-family="Times,serif" font-size="9.00">pick 0!****</text>
</g>
<!-- Fallback&#45;&gt;pick 0!**** -->
<g id="edge10" class="edge">
<title>Fallback&#45;&gt;pick 0!****</title>
<path fill="none" stroke="black" d="M424.67,-78.15C429.66,-75.96 434.96,-73.79 440,-72 498.53,-51.25 516.03,-55.45 575,-36 577.4,-35.21 579.86,-34.35 582.33,-33.46"/>
<polygon fill="black" stroke="black" points="583.66,-36.7 591.8,-29.92 581.21,-30.15 583.66,-36.7"/>
</g>
<!-- pick 0!***** -->
<g id="node12" class="node">
<title>pick 0!*****</title>
<ellipse fill="gray" stroke="black" cx="707" cy="-18" rx="36.9" ry="18"/>
<text text-anchor="middle" x="707" y="-15.8" font-family="Times,serif" font-size="9.00">pick 0!*****</text>
</g>
<!-- Fallback&#45;&gt;pick 0!***** -->
<g id="edge11" class="edge">
<title>Fallback&#45;&gt;pick 0!*****</title>
<path fill="none" stroke="black" d="M424.14,-77.94C429.25,-75.71 434.74,-73.58 440,-72 535.33,-43.44 564.77,-61.37 661,-36 663.95,-35.22 666.98,-34.33 670,-33.37"/>
<polygon fill="black" stroke="black" points="671.2,-36.66 679.55,-30.12 668.95,-30.03 671.2,-36.66"/>
</g>
<!-- place at (0.0, 0.05, 0.0)!* -->
<g id="node13" class="node">
<title>place at (0.0, 0.05, 0.0)!*</title>
<ellipse fill="gray" stroke="black" cx="823" cy="-18" rx="61.4" ry="18"/>
<text text-anchor="middle" x="823" y="-15.8" font-family="Times,serif" font-size="9.00">place at (0.0, 0.05, 0.0)!*</text>
</g>
<!-- Fallback&#45;&gt;place at (0.0, 0.05, 0.0)!* -->
<g id="edge12" class="edge">
<title>Fallback&#45;&gt;place at (0.0, 0.05, 0.0)!*</title>
<path fill="none" stroke="black" d="M424.08,-77.76C429.2,-75.54 434.7,-73.45 440,-72 575.04,-34.98 615.14,-60.57 753,-36 758.1,-35.09 763.39,-34.03 768.66,-32.89"/>
<polygon fill="black" stroke="black" points="769.75,-36.23 778.74,-30.62 768.21,-29.4 769.75,-36.23"/>
</g>
</g>
</svg>
