<?xml version="1.0" encoding="UTF-8" standalone="no"?>
<!DOCTYPE svg PUBLIC "-//W3C//DTD SVG 1.1//EN"
 "http://www.w3.org/Graphics/SVG/1.1/DTD/svg11.dtd">
<!-- Generated by graphviz version 2.43.0 (0)
 -->
<!-- Title: pastafarianism Pages: 1 -->
<svg width="518pt" height="260pt"
 viewBox="0.00 0.00 517.74 260.00" xmlns="http://www.w3.org/2000/svg" xmlns:xlink="http://www.w3.org/1999/xlink">
<g id="graph0" class="graph" transform="scale(1 1) rotate(0) translate(4 256)">
<title>pastafarianism</title>
<polygon fill="white" stroke="transparent" points="-4,4 -4,-256 513.74,-256 513.74,4 -4,4"/>
<!-- Sequence -->
<g id="node1" class="node">
<title>Sequence</title>
<polygon fill="cyan" stroke="black" points="178.36,-226.54 178.36,-241.46 159.91,-252 133.82,-252 115.37,-241.46 115.37,-226.54 133.82,-216 159.91,-216 178.36,-226.54"/>
<text text-anchor="middle" x="146.87" y="-231.8" font-family="Times,serif" font-size="9.00">Sequence</text>
</g>
<!-- pick 0! -->
<g id="node2" class="node">
<title>pick 0!</title>
<ellipse fill="gray" stroke="black" cx="74.87" cy="-162" rx="27" ry="18"/>
<text text-anchor="middle" x="74.87" y="-159.8" font-family="Times,serif" font-size="9.00">pick 0!</text>
</g>
<!-- Sequence&#45;&gt;pick 0! -->
<g id="edge1" class="edge">
<title>Sequence&#45;&gt;pick 0!</title>
<path fill="none" stroke="black" d="M130.89,-217.46C120.92,-207.78 107.96,-195.17 97.01,-184.53"/>
<polygon fill="black" stroke="black" points="99.43,-182 89.82,-177.54 94.55,-187.02 99.43,-182"/>
</g>
<!-- pick 0!* -->
<g id="node3" class="node">
<title>pick 0!*</title>
<ellipse fill="gray" stroke="black" cx="146.87" cy="-162" rx="27" ry="18"/>
<text text-anchor="middle" x="146.87" y="-159.8" font-family="Times,serif" font-size="9.00">pick 0!*</text>
</g>
<!-- Sequence&#45;&gt;pick 0!* -->
<g id="edge2" class="edge">
<title>Sequence&#45;&gt;pick 0!*</title>
<path fill="none" stroke="black" d="M146.87,-215.7C146.87,-207.98 146.87,-198.71 146.87,-190.11"/>
<polygon fill="black" stroke="black" points="150.37,-190.1 146.87,-180.1 143.37,-190.1 150.37,-190.1"/>
</g>
<!-- Fallback -->
<g id="node4" class="node">
<title>Fallback</title>
<polygon fill="cyan" stroke="black" points="250.11,-154.54 250.11,-169.46 232.98,-180 208.75,-180 191.62,-169.46 191.62,-154.54 208.75,-144 232.98,-144 250.11,-154.54"/>
<text text-anchor="middle" x="220.87" y="-159.8" font-family="Times,serif" font-size="9.00">Fallback</text>
</g>
<!-- Sequence&#45;&gt;Fallback -->
<g id="edge3" class="edge">
<title>Sequence&#45;&gt;Fallback</title>
<path fill="none" stroke="black" d="M163.29,-217.46C173.39,-207.91 186.5,-195.51 197.65,-184.96"/>
<polygon fill="black" stroke="black" points="200.14,-187.43 205,-178.01 195.33,-182.34 200.14,-187.43"/>
</g>
<!-- Sequence* -->
<g id="node5" class="node">
<title>Sequence*</title>
<polygon fill="cyan" stroke="black" points="102.11,-82.54 102.11,-97.46 82.05,-108 53.68,-108 33.63,-97.46 33.63,-82.54 53.68,-72 82.05,-72 102.11,-82.54"/>
<text text-anchor="middle" x="67.87" y="-87.8" font-family="Times,serif" font-size="9.00">Sequence*</text>
</g>
<!-- Fallback&#45;&gt;Sequence* -->
<g id="edge4" class="edge">
<title>Fallback&#45;&gt;Sequence*</title>
<path fill="none" stroke="black" d="M197.96,-150.52C172.65,-138.94 131.6,-120.16 102.38,-106.79"/>
<polygon fill="black" stroke="black" points="103.52,-103.46 92.97,-102.48 100.61,-109.83 103.52,-103.46"/>
</g>
<!-- pick 2! -->
<g id="node8" class="node">
<title>pick 2!</title>
<ellipse fill="gray" stroke="black" cx="146.87" cy="-90" rx="27" ry="18"/>
<text text-anchor="middle" x="146.87" y="-87.8" font-family="Times,serif" font-size="9.00">pick 2!</text>
</g>
<!-- Fallback&#45;&gt;pick 2! -->
<g id="edge7" class="edge">
<title>Fallback&#45;&gt;pick 2!</title>
<path fill="none" stroke="black" d="M205.17,-146.15C194.76,-136.31 180.94,-123.23 169.37,-112.28"/>
<polygon fill="black" stroke="black" points="171.45,-109.44 161.78,-105.11 166.64,-114.52 171.45,-109.44"/>
</g>
<!-- picked 1? -->
<g id="node9" class="node">
<title>picked 1?</title>
<ellipse fill="gray" stroke="black" cx="220.87" cy="-90" rx="28.74" ry="18"/>
<text text-anchor="middle" x="220.87" y="-87.8" font-family="Times,serif" font-size="9.00">picked 1?</text>
</g>
<!-- Fallback&#45;&gt;picked 1? -->
<g id="edge8" class="edge">
<title>Fallback&#45;&gt;picked 1?</title>
<path fill="none" stroke="black" d="M220.87,-143.7C220.87,-135.98 220.87,-126.71 220.87,-118.11"/>
<polygon fill="black" stroke="black" points="224.37,-118.1 220.87,-108.1 217.37,-118.1 224.37,-118.1"/>
</g>
<!-- place at (0.0, 0.05, 0.0)! -->
<g id="node10" class="node">
<title>place at (0.0, 0.05, 0.0)!</title>
<ellipse fill="gray" stroke="black" cx="325.87" cy="-90" rx="58.13" ry="18"/>
<text text-anchor="middle" x="325.87" y="-87.8" font-family="Times,serif" font-size="9.00">place at (0.0, 0.05, 0.0)!</text>
</g>
<!-- Fallback&#45;&gt;place at (0.0, 0.05, 0.0)! -->
<g id="edge9" class="edge">
<title>Fallback&#45;&gt;place at (0.0, 0.05, 0.0)!</title>
<path fill="none" stroke="black" d="M240.13,-148.16C255.05,-138.21 276.06,-124.21 293.55,-112.55"/>
<polygon fill="black" stroke="black" points="295.94,-115.16 302.32,-106.7 292.06,-109.33 295.94,-115.16"/>
</g>
<!-- Sequence** -->
<g id="node11" class="node">
<title>Sequence**</title>
<polygon fill="cyan" stroke="black" points="475.61,-82.54 475.61,-97.46 454.09,-108 423.65,-108 402.13,-97.46 402.13,-82.54 423.65,-72 454.09,-72 475.61,-82.54"/>
<text text-anchor="middle" x="438.87" y="-87.8" font-family="Times,serif" font-size="9.00">Sequence**</text>
</g>
<!-- Fallback&#45;&gt;Sequence** -->
<g id="edge10" class="edge">
<title>Fallback&#45;&gt;Sequence**</title>
<path fill="none" stroke="black" d="M248.12,-153.11C282.17,-143.13 342.11,-125.18 392.87,-108 395.59,-107.08 398.39,-106.1 401.21,-105.11"/>
<polygon fill="black" stroke="black" points="402.51,-108.36 410.74,-101.68 400.14,-101.77 402.51,-108.36"/>
</g>
<!-- picked 2? -->
<g id="node6" class="node">
<title>picked 2?</title>
<ellipse fill="gray" stroke="black" cx="28.87" cy="-18" rx="28.74" ry="18"/>
<text text-anchor="middle" x="28.87" y="-15.8" font-family="Times,serif" font-size="9.00">picked 2?</text>
</g>
<!-- Sequence*&#45;&gt;picked 2? -->
<g id="edge5" class="edge">
<title>Sequence*&#45;&gt;picked 2?</title>
<path fill="none" stroke="black" d="M58.23,-71.7C53.56,-63.32 47.87,-53.1 42.74,-43.9"/>
<polygon fill="black" stroke="black" points="45.79,-42.18 37.86,-35.14 39.67,-45.58 45.79,-42.18"/>
</g>
<!-- place on 0! -->
<g id="node7" class="node">
<title>place on 0!</title>
<ellipse fill="gray" stroke="black" cx="107.87" cy="-18" rx="32.16" ry="18"/>
<text text-anchor="middle" x="107.87" y="-15.8" font-family="Times,serif" font-size="9.00">place on 0!</text>
</g>
<!-- Sequence*&#45;&gt;place on 0! -->
<g id="edge6" class="edge">
<title>Sequence*&#45;&gt;place on 0!</title>
<path fill="none" stroke="black" d="M77.76,-71.7C82.43,-63.52 88.09,-53.6 93.25,-44.58"/>
<polygon fill="black" stroke="black" points="96.45,-46.04 98.37,-35.62 90.37,-42.57 96.45,-46.04"/>
</g>
<!-- apply force 0! -->
<g id="node12" class="node">
<title>apply force 0!</title>
<ellipse fill="gray" stroke="black" cx="395.87" cy="-18" rx="38.21" ry="18"/>
<text text-anchor="middle" x="395.87" y="-15.8" font-family="Times,serif" font-size="9.00">apply force 0!</text>
</g>
<!-- Sequence**&#45;&gt;apply force 0! -->
<g id="edge11" class="edge">
<title>Sequence**&#45;&gt;apply force 0!</title>
<path fill="none" stroke="black" d="M428.24,-71.7C423.16,-63.44 417,-53.39 411.41,-44.3"/>
<polygon fill="black" stroke="black" points="414.29,-42.31 406.08,-35.62 408.33,-45.98 414.29,-42.31"/>
</g>
<!-- pick 0!** -->
<g id="node13" class="node">
<title>pick 0!**</title>
<ellipse fill="gray" stroke="black" cx="480.87" cy="-18" rx="28.74" ry="18"/>
<text text-anchor="middle" x="480.87" y="-15.8" font-family="Times,serif" font-size="9.00">pick 0!**</text>
</g>
<!-- Sequence**&#45;&gt;pick 0!** -->
<g id="edge12" class="edge">
<title>Sequence**&#45;&gt;pick 0!**</title>
<path fill="none" stroke="black" d="M449.25,-71.7C454.28,-63.32 460.41,-53.1 465.93,-43.9"/>
<polygon fill="black" stroke="black" points="469.04,-45.52 471.18,-35.14 463.03,-41.92 469.04,-45.52"/>
</g>
</g>
</svg>
