<?xml version="1.0" encoding="UTF-8" standalone="no"?>
<!DOCTYPE svg PUBLIC "-//W3C//DTD SVG 1.1//EN"
 "http://www.w3.org/Graphics/SVG/1.1/DTD/svg11.dtd">
<!-- Generated by graphviz version 2.43.0 (0)
 -->
<!-- Title: pastafarianism Pages: 1 -->
<svg width="1060pt" height="188pt"
 viewBox="0.00 0.00 1060.07 188.00" xmlns="http://www.w3.org/2000/svg" xmlns:xlink="http://www.w3.org/1999/xlink">
<g id="graph0" class="graph" transform="scale(1 1) rotate(0) translate(4 184)">
<title>pastafarianism</title>
<polygon fill="white" stroke="transparent" points="-4,4 -4,-184 1056.07,-184 1056.07,4 -4,4"/>
<!-- Sequence -->
<g id="node1" class="node">
<title>Sequence</title>
<polygon fill="cyan" stroke="black" points="494.36,-154.54 494.36,-169.46 475.91,-180 449.82,-180 431.37,-169.46 431.37,-154.54 449.82,-144 475.91,-144 494.36,-154.54"/>
<text text-anchor="middle" x="462.87" y="-159.8" font-family="Times,serif" font-size="9.00">Sequence</text>
</g>
<!-- pick 0! -->
<g id="node2" class="node">
<title>pick 0!</title>
<ellipse fill="gray" stroke="black" cx="388.87" cy="-90" rx="27" ry="18"/>
<text text-anchor="middle" x="388.87" y="-87.8" font-family="Times,serif" font-size="9.00">pick 0!</text>
</g>
<!-- Sequence&#45;&gt;pick 0! -->
<g id="edge1" class="edge">
<title>Sequence&#45;&gt;pick 0!</title>
<path fill="none" stroke="black" d="M446.44,-145.46C436.07,-135.65 422.52,-122.83 411.17,-112.1"/>
<polygon fill="black" stroke="black" points="413.41,-109.39 403.74,-105.07 408.6,-114.48 413.41,-109.39"/>
</g>
<!-- Fallback -->
<g id="node3" class="node">
<title>Fallback</title>
<polygon fill="cyan" stroke="black" points="492.11,-82.54 492.11,-97.46 474.98,-108 450.75,-108 433.62,-97.46 433.62,-82.54 450.75,-72 474.98,-72 492.11,-82.54"/>
<text text-anchor="middle" x="462.87" y="-87.8" font-family="Times,serif" font-size="9.00">Fallback</text>
</g>
<!-- Sequence&#45;&gt;Fallback -->
<g id="edge2" class="edge">
<title>Sequence&#45;&gt;Fallback</title>
<path fill="none" stroke="black" d="M462.87,-143.7C462.87,-135.98 462.87,-126.71 462.87,-118.11"/>
<polygon fill="black" stroke="black" points="466.37,-118.1 462.87,-108.1 459.37,-118.1 466.37,-118.1"/>
</g>
<!-- place at (0.0, 0.05, 0.0)!** -->
<g id="node16" class="node">
<title>place at (0.0, 0.05, 0.0)!**</title>
<ellipse fill="gray" stroke="black" cx="573.87" cy="-90" rx="63.52" ry="18"/>
<text text-anchor="middle" x="573.87" y="-87.8" font-family="Times,serif" font-size="9.00">place at (0.0, 0.05, 0.0)!**</text>
</g>
<!-- Sequence&#45;&gt;place at (0.0, 0.05, 0.0)!** -->
<g id="edge15" class="edge">
<title>Sequence&#45;&gt;place at (0.0, 0.05, 0.0)!**</title>
<path fill="none" stroke="black" d="M483.23,-148.16C499.22,-138.08 521.83,-123.82 540.46,-112.07"/>
<polygon fill="black" stroke="black" points="542.38,-114.99 548.97,-106.7 538.65,-109.07 542.38,-114.99"/>
</g>
<!-- picked 2? -->
<g id="node4" class="node">
<title>picked 2?</title>
<ellipse fill="gray" stroke="black" cx="28.87" cy="-18" rx="28.74" ry="18"/>
<text text-anchor="middle" x="28.87" y="-15.8" font-family="Times,serif" font-size="9.00">picked 2?</text>
</g>
<!-- Fallback&#45;&gt;picked 2? -->
<g id="edge3" class="edge">
<title>Fallback&#45;&gt;picked 2?</title>
<path fill="none" stroke="black" d="M441.2,-77.88C435.97,-75.6 430.31,-73.45 424.87,-72 270.35,-30.82 221.39,-77.18 66.87,-36 64.57,-35.39 62.23,-34.65 59.91,-33.83"/>
<polygon fill="black" stroke="black" points="61.12,-30.55 50.53,-30.12 58.54,-37.06 61.12,-30.55"/>
</g>
<!-- pick 0!* -->
<g id="node5" class="node">
<title>pick 0!*</title>
<ellipse fill="gray" stroke="black" cx="102.87" cy="-18" rx="27" ry="18"/>
<text text-anchor="middle" x="102.87" y="-15.8" font-family="Times,serif" font-size="9.00">pick 0!*</text>
</g>
<!-- Fallback&#45;&gt;pick 0!* -->
<g id="edge4" class="edge">
<title>Fallback&#45;&gt;pick 0!*</title>
<path fill="none" stroke="black" d="M440.77,-77.8C435.65,-75.58 430.16,-73.48 424.87,-72 301.5,-37.47 261.88,-71.8 138.87,-36 136.93,-35.44 134.96,-34.78 133,-34.06"/>
<polygon fill="black" stroke="black" points="133.95,-30.66 123.37,-30.04 131.25,-37.12 133.95,-30.66"/>
</g>
<!-- picked 2?* -->
<g id="node6" class="node">
<title>picked 2?*</title>
<ellipse fill="gray" stroke="black" cx="179.87" cy="-18" rx="31.51" ry="18"/>
<text text-anchor="middle" x="179.87" y="-15.8" font-family="Times,serif" font-size="9.00">picked 2?*</text>
</g>
<!-- Fallback&#45;&gt;picked 2?* -->
<g id="edge5" class="edge">
<title>Fallback&#45;&gt;picked 2?*</title>
<path fill="none" stroke="black" d="M440.71,-77.99C435.6,-75.76 430.12,-73.61 424.87,-72 336.85,-45 309.25,-61.79 220.87,-36 218.41,-35.28 215.9,-34.46 213.39,-33.58"/>
<polygon fill="black" stroke="black" points="214.43,-30.24 203.83,-29.96 211.94,-36.78 214.43,-30.24"/>
</g>
<!-- pick 2! -->
<g id="node7" class="node">
<title>pick 2!</title>
<ellipse fill="gray" stroke="black" cx="256.87" cy="-18" rx="27" ry="18"/>
<text text-anchor="middle" x="256.87" y="-15.8" font-family="Times,serif" font-size="9.00">pick 2!</text>
</g>
<!-- Fallback&#45;&gt;pick 2! -->
<g id="edge6" class="edge">
<title>Fallback&#45;&gt;pick 2!</title>
<path fill="none" stroke="black" d="M440.19,-78.17C435.2,-75.98 429.9,-73.8 424.87,-72 367.61,-51.52 349.91,-57.06 292.87,-36 291.02,-35.32 289.14,-34.58 287.25,-33.8"/>
<polygon fill="black" stroke="black" points="288.49,-30.52 277.92,-29.7 285.67,-36.93 288.49,-30.52"/>
</g>
<!-- pick 1! -->
<g id="node8" class="node">
<title>pick 1!</title>
<ellipse fill="gray" stroke="black" cx="328.87" cy="-18" rx="27" ry="18"/>
<text text-anchor="middle" x="328.87" y="-15.8" font-family="Times,serif" font-size="9.00">pick 1!</text>
</g>
<!-- Fallback&#45;&gt;pick 1! -->
<g id="edge7" class="edge">
<title>Fallback&#45;&gt;pick 1!</title>
<path fill="none" stroke="black" d="M441.34,-77.75C418.9,-66.03 383.59,-47.58 358.52,-34.49"/>
<polygon fill="black" stroke="black" points="359.95,-31.29 349.46,-29.76 356.71,-37.49 359.95,-31.29"/>
</g>
<!-- picked 2?** -->
<g id="node9" class="node">
<title>picked 2?**</title>
<ellipse fill="gray" stroke="black" cx="407.87" cy="-18" rx="34.13" ry="18"/>
<text text-anchor="middle" x="407.87" y="-15.8" font-family="Times,serif" font-size="9.00">picked 2?**</text>
</g>
<!-- Fallback&#45;&gt;picked 2?** -->
<g id="edge8" class="edge">
<title>Fallback&#45;&gt;picked 2?**</title>
<path fill="none" stroke="black" d="M449.83,-72.41C442.95,-63.66 434.39,-52.75 426.79,-43.08"/>
<polygon fill="black" stroke="black" points="429.36,-40.69 420.43,-34.99 423.86,-45.01 429.36,-40.69"/>
</g>
<!-- place at (0.0, 0.05, 0.0)! -->
<g id="node10" class="node">
<title>place at (0.0, 0.05, 0.0)!</title>
<ellipse fill="gray" stroke="black" cx="517.87" cy="-18" rx="58.13" ry="18"/>
<text text-anchor="middle" x="517.87" y="-15.8" font-family="Times,serif" font-size="9.00">place at (0.0, 0.05, 0.0)!</text>
</g>
<!-- Fallback&#45;&gt;place at (0.0, 0.05, 0.0)! -->
<g id="edge9" class="edge">
<title>Fallback&#45;&gt;place at (0.0, 0.05, 0.0)!</title>
<path fill="none" stroke="black" d="M475.9,-72.41C482.58,-63.91 490.86,-53.37 498.29,-43.91"/>
<polygon fill="black" stroke="black" points="501.12,-45.98 504.54,-35.96 495.61,-41.66 501.12,-45.98"/>
</g>
<!-- pick 0!** -->
<g id="node11" class="node">
<title>pick 0!**</title>
<ellipse fill="gray" stroke="black" cx="622.87" cy="-18" rx="28.74" ry="18"/>
<text text-anchor="middle" x="622.87" y="-15.8" font-family="Times,serif" font-size="9.00">pick 0!**</text>
</g>
<!-- Fallback&#45;&gt;pick 0!** -->
<g id="edge10" class="edge">
<title>Fallback&#45;&gt;pick 0!**</title>
<path fill="none" stroke="black" d="M486.15,-78.51C491.01,-76.35 496.1,-74.09 500.87,-72 538.07,-55.71 547.66,-52.29 584.87,-36 586.7,-35.2 588.59,-34.37 590.49,-33.53"/>
<polygon fill="black" stroke="black" points="592.27,-36.57 599.99,-29.31 589.43,-30.17 592.27,-36.57"/>
</g>
<!-- pick 0!*** -->
<g id="node12" class="node">
<title>pick 0!***</title>
<ellipse fill="gray" stroke="black" cx="701.87" cy="-18" rx="31.51" ry="18"/>
<text text-anchor="middle" x="701.87" y="-15.8" font-family="Times,serif" font-size="9.00">pick 0!***</text>
</g>
<!-- Fallback&#45;&gt;pick 0!*** -->
<g id="edge11" class="edge">
<title>Fallback&#45;&gt;pick 0!***</title>
<path fill="none" stroke="black" d="M485.08,-78.18C490.19,-75.94 495.66,-73.73 500.87,-72 570.03,-49 591.39,-58.04 660.87,-36 663.16,-35.27 665.5,-34.47 667.85,-33.62"/>
<polygon fill="black" stroke="black" points="669.33,-36.8 677.41,-29.95 666.82,-30.27 669.33,-36.8"/>
</g>
<!-- pick 0!**** -->
<g id="node13" class="node">
<title>pick 0!****</title>
<ellipse fill="gray" stroke="black" cx="785.87" cy="-18" rx="34.13" ry="18"/>
<text text-anchor="middle" x="785.87" y="-15.8" font-family="Times,serif" font-size="9.00">pick 0!****</text>
</g>
<!-- Fallback&#45;&gt;pick 0!**** -->
<g id="edge12" class="edge">
<title>Fallback&#45;&gt;pick 0!****</title>
<path fill="none" stroke="black" d="M484.99,-77.89C490.1,-75.66 495.6,-73.54 500.87,-72 605.25,-41.51 637.84,-64.17 742.87,-36 745.47,-35.3 748.12,-34.5 750.78,-33.62"/>
<polygon fill="black" stroke="black" points="752.03,-36.89 760.27,-30.23 749.67,-30.3 752.03,-36.89"/>
</g>
<!-- pick 0!***** -->
<g id="node14" class="node">
<title>pick 0!*****</title>
<ellipse fill="gray" stroke="black" cx="874.87" cy="-18" rx="36.9" ry="18"/>
<text text-anchor="middle" x="874.87" y="-15.8" font-family="Times,serif" font-size="9.00">pick 0!*****</text>
</g>
<!-- Fallback&#45;&gt;pick 0!***** -->
<g id="edge13" class="edge">
<title>Fallback&#45;&gt;pick 0!*****</title>
<path fill="none" stroke="black" d="M484.95,-77.74C490.06,-75.52 495.57,-73.44 500.87,-72 642.4,-33.59 686.13,-69.67 828.87,-36 831.84,-35.3 834.88,-34.46 837.91,-33.54"/>
<polygon fill="black" stroke="black" points="839.08,-36.84 847.47,-30.37 836.88,-30.19 839.08,-36.84"/>
</g>
<!-- place at (0.0, 0.05, 0.0)!* -->
<g id="node15" class="node">
<title>place at (0.0, 0.05, 0.0)!*</title>
<ellipse fill="gray" stroke="black" cx="990.87" cy="-18" rx="61.4" ry="18"/>
<text text-anchor="middle" x="990.87" y="-15.8" font-family="Times,serif" font-size="9.00">place at (0.0, 0.05, 0.0)!*</text>
</g>
<!-- Fallback&#45;&gt;place at (0.0, 0.05, 0.0)!* -->
<g id="edge14" class="edge">
<title>Fallback&#45;&gt;place at (0.0, 0.05, 0.0)!*</title>
<path fill="none" stroke="black" d="M484.52,-77.82C489.75,-75.54 495.41,-73.41 500.87,-72 682.25,-25.09 735.97,-66.2 920.87,-36 926.19,-35.13 931.71,-34.07 937.2,-32.91"/>
<polygon fill="black" stroke="black" points="938.01,-36.32 947.01,-30.73 936.49,-29.48 938.01,-36.32"/>
</g>
</g>
</svg>
