<?xml version="1.0" encoding="UTF-8" standalone="no"?>
<!DOCTYPE svg PUBLIC "-//W3C//DTD SVG 1.1//EN"
 "http://www.w3.org/Graphics/SVG/1.1/DTD/svg11.dtd">
<!-- Generated by graphviz version 2.43.0 (0)
 -->
<!-- Title: pastafarianism Pages: 1 -->
<svg width="570pt" height="332pt"
 viewBox="0.00 0.00 569.93 332.00" xmlns="http://www.w3.org/2000/svg" xmlns:xlink="http://www.w3.org/1999/xlink">
<g id="graph0" class="graph" transform="scale(1 1) rotate(0) translate(4 328)">
<title>pastafarianism</title>
<polygon fill="white" stroke="transparent" points="-4,4 -4,-328 565.93,-328 565.93,4 -4,4"/>
<!-- Sequence -->
<g id="node1" class="node">
<title>Sequence</title>
<polygon fill="cyan" stroke="black" points="322.36,-298.54 322.36,-313.46 303.91,-324 277.82,-324 259.37,-313.46 259.37,-298.54 277.82,-288 303.91,-288 322.36,-298.54"/>
<text text-anchor="middle" x="290.87" y="-303.8" font-family="Times,serif" font-size="9.00">Sequence</text>
</g>
<!-- pick 0! -->
<g id="node2" class="node">
<title>pick 0!</title>
<ellipse fill="gray" stroke="black" cx="218.87" cy="-234" rx="27" ry="18"/>
<text text-anchor="middle" x="218.87" y="-231.8" font-family="Times,serif" font-size="9.00">pick 0!</text>
</g>
<!-- Sequence&#45;&gt;pick 0! -->
<g id="edge1" class="edge">
<title>Sequence&#45;&gt;pick 0!</title>
<path fill="none" stroke="black" d="M274.89,-289.46C264.92,-279.78 251.96,-267.17 241.01,-256.53"/>
<polygon fill="black" stroke="black" points="243.43,-254 233.82,-249.54 238.55,-259.02 243.43,-254"/>
</g>
<!-- pick 0!* -->
<g id="node3" class="node">
<title>pick 0!*</title>
<ellipse fill="gray" stroke="black" cx="290.87" cy="-234" rx="27" ry="18"/>
<text text-anchor="middle" x="290.87" y="-231.8" font-family="Times,serif" font-size="9.00">pick 0!*</text>
</g>
<!-- Sequence&#45;&gt;pick 0!* -->
<g id="edge2" class="edge">
<title>Sequence&#45;&gt;pick 0!*</title>
<path fill="none" stroke="black" d="M290.87,-287.7C290.87,-279.98 290.87,-270.71 290.87,-262.11"/>
<polygon fill="black" stroke="black" points="294.37,-262.1 290.87,-252.1 287.37,-262.1 294.37,-262.1"/>
</g>
<!-- Fallback -->
<g id="node4" class="node">
<title>Fallback</title>
<polygon fill="cyan" stroke="black" points="394.11,-226.54 394.11,-241.46 376.98,-252 352.75,-252 335.62,-241.46 335.62,-226.54 352.75,-216 376.98,-216 394.11,-226.54"/>
<text text-anchor="middle" x="364.87" y="-231.8" font-family="Times,serif" font-size="9.00">Fallback</text>
</g>
<!-- Sequence&#45;&gt;Fallback -->
<g id="edge3" class="edge">
<title>Sequence&#45;&gt;Fallback</title>
<path fill="none" stroke="black" d="M307.29,-289.46C317.39,-279.91 330.5,-267.51 341.65,-256.96"/>
<polygon fill="black" stroke="black" points="344.14,-259.43 349,-250.01 339.33,-254.34 344.14,-259.43"/>
</g>
<!-- Sequence* -->
<g id="node5" class="node">
<title>Sequence*</title>
<polygon fill="cyan" stroke="black" points="266.11,-154.54 266.11,-169.46 246.05,-180 217.68,-180 197.63,-169.46 197.63,-154.54 217.68,-144 246.05,-144 266.11,-154.54"/>
<text text-anchor="middle" x="231.87" y="-159.8" font-family="Times,serif" font-size="9.00">Sequence*</text>
</g>
<!-- Fallback&#45;&gt;Sequence* -->
<g id="edge4" class="edge">
<title>Fallback&#45;&gt;Sequence*</title>
<path fill="none" stroke="black" d="M343.2,-221.6C321.79,-210.33 288.78,-192.95 264.26,-180.05"/>
<polygon fill="black" stroke="black" points="265.79,-176.9 255.32,-175.34 262.53,-183.1 265.79,-176.9"/>
</g>
<!-- picked 1? -->
<g id="node14" class="node">
<title>picked 1?</title>
<ellipse fill="gray" stroke="black" cx="312.87" cy="-162" rx="28.74" ry="18"/>
<text text-anchor="middle" x="312.87" y="-159.8" font-family="Times,serif" font-size="9.00">picked 1?</text>
</g>
<!-- Fallback&#45;&gt;picked 1? -->
<g id="edge13" class="edge">
<title>Fallback&#45;&gt;picked 1?</title>
<path fill="none" stroke="black" d="M352.28,-216.05C345.84,-207.38 337.88,-196.67 330.81,-187.15"/>
<polygon fill="black" stroke="black" points="333.4,-184.77 324.63,-178.83 327.78,-188.94 333.4,-184.77"/>
</g>
<!-- place at (0.0, 0.05, 0.0)! -->
<g id="node15" class="node">
<title>place at (0.0, 0.05, 0.0)!</title>
<ellipse fill="gray" stroke="black" cx="417.87" cy="-162" rx="58.13" ry="18"/>
<text text-anchor="middle" x="417.87" y="-159.8" font-family="Times,serif" font-size="9.00">place at (0.0, 0.05, 0.0)!</text>
</g>
<!-- Fallback&#45;&gt;place at (0.0, 0.05, 0.0)! -->
<g id="edge14" class="edge">
<title>Fallback&#45;&gt;place at (0.0, 0.05, 0.0)!</title>
<path fill="none" stroke="black" d="M377.7,-216.05C384.08,-207.63 391.91,-197.28 398.96,-187.97"/>
<polygon fill="black" stroke="black" points="401.91,-189.87 405.16,-179.79 396.33,-185.65 401.91,-189.87"/>
</g>
<!-- pick 0!**** -->
<g id="node16" class="node">
<title>pick 0!****</title>
<ellipse fill="gray" stroke="black" cx="527.87" cy="-162" rx="34.13" ry="18"/>
<text text-anchor="middle" x="527.87" y="-159.8" font-family="Times,serif" font-size="9.00">pick 0!****</text>
</g>
<!-- Fallback&#45;&gt;pick 0!**** -->
<g id="edge15" class="edge">
<title>Fallback&#45;&gt;pick 0!****</title>
<path fill="none" stroke="black" d="M388.57,-222.82C416.02,-211.03 461.48,-191.51 492.97,-177.99"/>
<polygon fill="black" stroke="black" points="494.45,-181.16 502.26,-174 491.69,-174.73 494.45,-181.16"/>
</g>
<!-- picked 2? -->
<g id="node6" class="node">
<title>picked 2?</title>
<ellipse fill="gray" stroke="black" cx="28.87" cy="-90" rx="28.74" ry="18"/>
<text text-anchor="middle" x="28.87" y="-87.8" font-family="Times,serif" font-size="9.00">picked 2?</text>
</g>
<!-- Sequence*&#45;&gt;picked 2? -->
<g id="edge5" class="edge">
<title>Sequence*&#45;&gt;picked 2?</title>
<path fill="none" stroke="black" d="M201.41,-152.31C168.04,-142.54 113.09,-125.7 66.87,-108 64.78,-107.2 62.65,-106.35 60.51,-105.47"/>
<polygon fill="black" stroke="black" points="61.77,-102.2 51.2,-101.48 59.02,-108.63 61.77,-102.2"/>
</g>
<!-- Fallback* -->
<g id="node7" class="node">
<title>Fallback*</title>
<polygon fill="cyan" stroke="black" points="139.61,-82.54 139.61,-97.46 121.02,-108 94.72,-108 76.13,-97.46 76.13,-82.54 94.72,-72 121.02,-72 139.61,-82.54"/>
<text text-anchor="middle" x="107.87" y="-87.8" font-family="Times,serif" font-size="9.00">Fallback*</text>
</g>
<!-- Sequence*&#45;&gt;Fallback* -->
<g id="edge6" class="edge">
<title>Sequence*&#45;&gt;Fallback*</title>
<path fill="none" stroke="black" d="M209.41,-148.32C189.63,-137.15 160.62,-120.78 138.67,-108.39"/>
<polygon fill="black" stroke="black" points="140.17,-105.22 129.74,-103.35 136.73,-111.31 140.17,-105.22"/>
</g>
<!-- place on 0! -->
<g id="node10" class="node">
<title>place on 0!</title>
<ellipse fill="gray" stroke="black" cx="189.87" cy="-90" rx="32.16" ry="18"/>
<text text-anchor="middle" x="189.87" y="-87.8" font-family="Times,serif" font-size="9.00">place on 0!</text>
</g>
<!-- Sequence*&#45;&gt;place on 0! -->
<g id="edge9" class="edge">
<title>Sequence*&#45;&gt;place on 0!</title>
<path fill="none" stroke="black" d="M221.49,-143.7C216.53,-135.44 210.5,-125.39 205.05,-116.3"/>
<polygon fill="black" stroke="black" points="207.99,-114.4 199.84,-107.62 201.98,-118 207.99,-114.4"/>
</g>
<!-- place on 0!* -->
<g id="node11" class="node">
<title>place on 0!*</title>
<ellipse fill="gray" stroke="black" cx="274.87" cy="-90" rx="34.78" ry="18"/>
<text text-anchor="middle" x="274.87" y="-87.8" font-family="Times,serif" font-size="9.00">place on 0!*</text>
</g>
<!-- Sequence*&#45;&gt;place on 0!* -->
<g id="edge10" class="edge">
<title>Sequence*&#45;&gt;place on 0!*</title>
<path fill="none" stroke="black" d="M242.5,-143.7C247.57,-135.44 253.74,-125.39 259.33,-116.3"/>
<polygon fill="black" stroke="black" points="262.4,-117.98 264.66,-107.62 256.44,-114.31 262.4,-117.98"/>
</g>
<!-- pick 0!** -->
<g id="node12" class="node">
<title>pick 0!**</title>
<ellipse fill="gray" stroke="black" cx="356.87" cy="-90" rx="28.74" ry="18"/>
<text text-anchor="middle" x="356.87" y="-87.8" font-family="Times,serif" font-size="9.00">pick 0!**</text>
</g>
<!-- Sequence*&#45;&gt;pick 0!** -->
<g id="edge11" class="edge">
<title>Sequence*&#45;&gt;pick 0!**</title>
<path fill="none" stroke="black" d="M254.5,-148.32C274.82,-136.95 304.78,-120.17 327.04,-107.7"/>
<polygon fill="black" stroke="black" points="329.05,-110.59 336.06,-102.65 325.63,-104.48 329.05,-110.59"/>
</g>
<!-- pick 0!*** -->
<g id="node13" class="node">
<title>pick 0!***</title>
<ellipse fill="gray" stroke="black" cx="435.87" cy="-90" rx="31.51" ry="18"/>
<text text-anchor="middle" x="435.87" y="-87.8" font-family="Times,serif" font-size="9.00">pick 0!***</text>
</g>
<!-- Sequence*&#45;&gt;pick 0!*** -->
<g id="edge12" class="edge">
<title>Sequence*&#45;&gt;pick 0!***</title>
<path fill="none" stroke="black" d="M258.11,-150.21C263.62,-148.07 269.41,-145.89 274.87,-144 327.47,-125.75 342.42,-126.69 394.87,-108 397.13,-107.19 399.46,-106.33 401.79,-105.44"/>
<polygon fill="black" stroke="black" points="403.31,-108.6 411.31,-101.66 400.72,-102.09 403.31,-108.6"/>
</g>
<!-- pick 2! -->
<g id="node8" class="node">
<title>pick 2!</title>
<ellipse fill="gray" stroke="black" cx="65.87" cy="-18" rx="27" ry="18"/>
<text text-anchor="middle" x="65.87" y="-15.8" font-family="Times,serif" font-size="9.00">pick 2!</text>
</g>
<!-- Fallback*&#45;&gt;pick 2! -->
<g id="edge7" class="edge">
<title>Fallback*&#45;&gt;pick 2!</title>
<path fill="none" stroke="black" d="M97.49,-71.7C92.46,-63.32 86.33,-53.1 80.81,-43.9"/>
<polygon fill="black" stroke="black" points="83.7,-41.92 75.55,-35.14 77.7,-45.52 83.7,-41.92"/>
</g>
<!-- apply force 2! -->
<g id="node9" class="node">
<title>apply force 2!</title>
<ellipse fill="gray" stroke="black" cx="148.87" cy="-18" rx="38.21" ry="18"/>
<text text-anchor="middle" x="148.87" y="-15.8" font-family="Times,serif" font-size="9.00">apply force 2!</text>
</g>
<!-- Fallback*&#45;&gt;apply force 2! -->
<g id="edge8" class="edge">
<title>Fallback*&#45;&gt;apply force 2!</title>
<path fill="none" stroke="black" d="M118,-71.7C122.84,-63.44 128.72,-53.39 134.05,-44.3"/>
<polygon fill="black" stroke="black" points="137.1,-46.02 139.13,-35.62 131.06,-42.48 137.1,-46.02"/>
</g>
</g>
</svg>
