<?xml version="1.0" encoding="UTF-8" standalone="no"?>
<!DOCTYPE svg PUBLIC "-//W3C//DTD SVG 1.1//EN"
 "http://www.w3.org/Graphics/SVG/1.1/DTD/svg11.dtd">
<!-- Generated by graphviz version 2.43.0 (0)
 -->
<!-- Title: pastafarianism Pages: 1 -->
<svg width="485pt" height="260pt"
 viewBox="0.00 0.00 484.93 260.00" xmlns="http://www.w3.org/2000/svg" xmlns:xlink="http://www.w3.org/1999/xlink">
<g id="graph0" class="graph" transform="scale(1 1) rotate(0) translate(4 256)">
<title>pastafarianism</title>
<polygon fill="white" stroke="transparent" points="-4,4 -4,-256 480.93,-256 480.93,4 -4,4"/>
<!-- Sequence -->
<g id="node1" class="node">
<title>Sequence</title>
<polygon fill="cyan" stroke="black" points="237.36,-226.54 237.36,-241.46 218.91,-252 192.82,-252 174.37,-241.46 174.37,-226.54 192.82,-216 218.91,-216 237.36,-226.54"/>
<text text-anchor="middle" x="205.87" y="-231.8" font-family="Times,serif" font-size="9.00">Sequence</text>
</g>
<!-- pick 0! -->
<g id="node2" class="node">
<title>pick 0!</title>
<ellipse fill="gray" stroke="black" cx="133.87" cy="-162" rx="27" ry="18"/>
<text text-anchor="middle" x="133.87" y="-159.8" font-family="Times,serif" font-size="9.00">pick 0!</text>
</g>
<!-- Sequence&#45;&gt;pick 0! -->
<g id="edge1" class="edge">
<title>Sequence&#45;&gt;pick 0!</title>
<path fill="none" stroke="black" d="M189.89,-217.46C179.92,-207.78 166.96,-195.17 156.01,-184.53"/>
<polygon fill="black" stroke="black" points="158.43,-182 148.82,-177.54 153.55,-187.02 158.43,-182"/>
</g>
<!-- pick 0!* -->
<g id="node3" class="node">
<title>pick 0!*</title>
<ellipse fill="gray" stroke="black" cx="205.87" cy="-162" rx="27" ry="18"/>
<text text-anchor="middle" x="205.87" y="-159.8" font-family="Times,serif" font-size="9.00">pick 0!*</text>
</g>
<!-- Sequence&#45;&gt;pick 0!* -->
<g id="edge2" class="edge">
<title>Sequence&#45;&gt;pick 0!*</title>
<path fill="none" stroke="black" d="M205.87,-215.7C205.87,-207.98 205.87,-198.71 205.87,-190.11"/>
<polygon fill="black" stroke="black" points="209.37,-190.1 205.87,-180.1 202.37,-190.1 209.37,-190.1"/>
</g>
<!-- Fallback -->
<g id="node4" class="node">
<title>Fallback</title>
<polygon fill="cyan" stroke="black" points="309.11,-154.54 309.11,-169.46 291.98,-180 267.75,-180 250.62,-169.46 250.62,-154.54 267.75,-144 291.98,-144 309.11,-154.54"/>
<text text-anchor="middle" x="279.87" y="-159.8" font-family="Times,serif" font-size="9.00">Fallback</text>
</g>
<!-- Sequence&#45;&gt;Fallback -->
<g id="edge3" class="edge">
<title>Sequence&#45;&gt;Fallback</title>
<path fill="none" stroke="black" d="M222.29,-217.46C232.39,-207.91 245.5,-195.51 256.65,-184.96"/>
<polygon fill="black" stroke="black" points="259.14,-187.43 264,-178.01 254.33,-182.34 259.14,-187.43"/>
</g>
<!-- Sequence* -->
<g id="node5" class="node">
<title>Sequence*</title>
<polygon fill="cyan" stroke="black" points="181.11,-82.54 181.11,-97.46 161.05,-108 132.68,-108 112.63,-97.46 112.63,-82.54 132.68,-72 161.05,-72 181.11,-82.54"/>
<text text-anchor="middle" x="146.87" y="-87.8" font-family="Times,serif" font-size="9.00">Sequence*</text>
</g>
<!-- Fallback&#45;&gt;Sequence* -->
<g id="edge4" class="edge">
<title>Fallback&#45;&gt;Sequence*</title>
<path fill="none" stroke="black" d="M258.2,-149.6C236.79,-138.33 203.78,-120.95 179.26,-108.05"/>
<polygon fill="black" stroke="black" points="180.79,-104.9 170.32,-103.34 177.53,-111.1 180.79,-104.9"/>
</g>
<!-- picked 1? -->
<g id="node10" class="node">
<title>picked 1?</title>
<ellipse fill="gray" stroke="black" cx="227.87" cy="-90" rx="28.74" ry="18"/>
<text text-anchor="middle" x="227.87" y="-87.8" font-family="Times,serif" font-size="9.00">picked 1?</text>
</g>
<!-- Fallback&#45;&gt;picked 1? -->
<g id="edge9" class="edge">
<title>Fallback&#45;&gt;picked 1?</title>
<path fill="none" stroke="black" d="M267.28,-144.05C260.84,-135.38 252.88,-124.67 245.81,-115.15"/>
<polygon fill="black" stroke="black" points="248.4,-112.77 239.63,-106.83 242.78,-116.94 248.4,-112.77"/>
</g>
<!-- place at (0.0, 0.05, 0.0)! -->
<g id="node11" class="node">
<title>place at (0.0, 0.05, 0.0)!</title>
<ellipse fill="gray" stroke="black" cx="332.87" cy="-90" rx="58.13" ry="18"/>
<text text-anchor="middle" x="332.87" y="-87.8" font-family="Times,serif" font-size="9.00">place at (0.0, 0.05, 0.0)!</text>
</g>
<!-- Fallback&#45;&gt;place at (0.0, 0.05, 0.0)! -->
<g id="edge10" class="edge">
<title>Fallback&#45;&gt;place at (0.0, 0.05, 0.0)!</title>
<path fill="none" stroke="black" d="M292.7,-144.05C299.08,-135.63 306.91,-125.28 313.96,-115.97"/>
<polygon fill="black" stroke="black" points="316.91,-117.87 320.16,-107.79 311.33,-113.65 316.91,-117.87"/>
</g>
<!-- pick 0!**** -->
<g id="node12" class="node">
<title>pick 0!****</title>
<ellipse fill="gray" stroke="black" cx="442.87" cy="-90" rx="34.13" ry="18"/>
<text text-anchor="middle" x="442.87" y="-87.8" font-family="Times,serif" font-size="9.00">pick 0!****</text>
</g>
<!-- Fallback&#45;&gt;pick 0!**** -->
<g id="edge11" class="edge">
<title>Fallback&#45;&gt;pick 0!****</title>
<path fill="none" stroke="black" d="M303.57,-150.82C331.02,-139.03 376.48,-119.51 407.97,-105.99"/>
<polygon fill="black" stroke="black" points="409.45,-109.16 417.26,-102 406.69,-102.73 409.45,-109.16"/>
</g>
<!-- picked 2? -->
<g id="node6" class="node">
<title>picked 2?</title>
<ellipse fill="gray" stroke="black" cx="28.87" cy="-18" rx="28.74" ry="18"/>
<text text-anchor="middle" x="28.87" y="-15.8" font-family="Times,serif" font-size="9.00">picked 2?</text>
</g>
<!-- Sequence*&#45;&gt;picked 2? -->
<g id="edge5" class="edge">
<title>Sequence*&#45;&gt;picked 2?</title>
<path fill="none" stroke="black" d="M124.95,-76C106.02,-64.77 78.53,-48.46 57.8,-36.16"/>
<polygon fill="black" stroke="black" points="59.48,-33.09 49.09,-31 55.91,-39.11 59.48,-33.09"/>
</g>
<!-- place on 0! -->
<g id="node7" class="node">
<title>place on 0!</title>
<ellipse fill="gray" stroke="black" cx="107.87" cy="-18" rx="32.16" ry="18"/>
<text text-anchor="middle" x="107.87" y="-15.8" font-family="Times,serif" font-size="9.00">place on 0!</text>
</g>
<!-- Sequence*&#45;&gt;place on 0! -->
<g id="edge6" class="edge">
<title>Sequence*&#45;&gt;place on 0!</title>
<path fill="none" stroke="black" d="M137.23,-71.7C132.67,-63.52 127.15,-53.6 122.12,-44.58"/>
<polygon fill="black" stroke="black" points="125.05,-42.65 117.13,-35.62 118.94,-46.06 125.05,-42.65"/>
</g>
<!-- pick 0!** -->
<g id="node8" class="node">
<title>pick 0!**</title>
<ellipse fill="gray" stroke="black" cx="186.87" cy="-18" rx="28.74" ry="18"/>
<text text-anchor="middle" x="186.87" y="-15.8" font-family="Times,serif" font-size="9.00">pick 0!**</text>
</g>
<!-- Sequence*&#45;&gt;pick 0!** -->
<g id="edge7" class="edge">
<title>Sequence*&#45;&gt;pick 0!**</title>
<path fill="none" stroke="black" d="M156.76,-71.7C161.54,-63.32 167.38,-53.1 172.64,-43.9"/>
<polygon fill="black" stroke="black" points="175.72,-45.56 177.64,-35.14 169.64,-42.09 175.72,-45.56"/>
</g>
<!-- pick 0!*** -->
<g id="node9" class="node">
<title>pick 0!***</title>
<ellipse fill="gray" stroke="black" cx="265.87" cy="-18" rx="31.51" ry="18"/>
<text text-anchor="middle" x="265.87" y="-15.8" font-family="Times,serif" font-size="9.00">pick 0!***</text>
</g>
<!-- Sequence*&#45;&gt;pick 0!*** -->
<g id="edge8" class="edge">
<title>Sequence*&#45;&gt;pick 0!***</title>
<path fill="none" stroke="black" d="M168.97,-76C187.82,-64.91 215.1,-48.86 235.91,-36.62"/>
<polygon fill="black" stroke="black" points="237.84,-39.55 244.68,-31.46 234.29,-33.52 237.84,-39.55"/>
</g>
</g>
</svg>
