<?xml version="1.0" encoding="UTF-8" standalone="no"?>
<!DOCTYPE svg PUBLIC "-//W3C//DTD SVG 1.1//EN"
 "http://www.w3.org/Graphics/SVG/1.1/DTD/svg11.dtd">
<!-- Generated by graphviz version 2.43.0 (0)
 -->
<!-- Title: pastafarianism Pages: 1 -->
<svg width="637pt" height="404pt"
 viewBox="0.00 0.00 637.01 404.00" xmlns="http://www.w3.org/2000/svg" xmlns:xlink="http://www.w3.org/1999/xlink">
<g id="graph0" class="graph" transform="scale(1 1) rotate(0) translate(4 400)">
<title>pastafarianism</title>
<polygon fill="white" stroke="transparent" points="-4,4 -4,-400 633.01,-400 633.01,4 -4,4"/>
<!-- Fallback -->
<g id="node1" class="node">
<title>Fallback</title>
<polygon fill="cyan" stroke="black" points="325.31,-370.54 325.31,-385.46 308.18,-396 283.95,-396 266.82,-385.46 266.82,-370.54 283.95,-360 308.18,-360 325.31,-370.54"/>
<text text-anchor="middle" x="296.06" y="-375.8" font-family="Times,serif" font-size="9.00">Fallback</text>
</g>
<!-- ReachGoal? -->
<g id="node2" class="node">
<title>ReachGoal?</title>
<ellipse fill="gray" stroke="black" cx="34.06" cy="-306" rx="34.13" ry="18"/>
<text text-anchor="middle" x="34.06" y="-303.8" font-family="Times,serif" font-size="9.00">ReachGoal?</text>
</g>
<!-- Fallback&#45;&gt;ReachGoal? -->
<g id="edge1" class="edge">
<title>Fallback&#45;&gt;ReachGoal?</title>
<path fill="none" stroke="black" d="M266.66,-371.24C224.29,-362.64 143.81,-345.16 77.06,-324 74.5,-323.19 71.87,-322.29 69.23,-321.36"/>
<polygon fill="black" stroke="black" points="70.37,-318.05 59.78,-317.84 67.93,-324.61 70.37,-318.05"/>
</g>
<!-- Sequence -->
<g id="node3" class="node">
<title>Sequence</title>
<polygon fill="cyan" stroke="black" points="148.56,-298.54 148.56,-313.46 130.11,-324 104.02,-324 85.57,-313.46 85.57,-298.54 104.02,-288 130.11,-288 148.56,-298.54"/>
<text text-anchor="middle" x="117.06" y="-303.8" font-family="Times,serif" font-size="9.00">Sequence</text>
</g>
<!-- Fallback&#45;&gt;Sequence -->
<g id="edge2" class="edge">
<title>Fallback&#45;&gt;Sequence</title>
<path fill="none" stroke="black" d="M271.31,-367.72C243.63,-357.29 197.51,-339.75 158.06,-324 155.97,-323.16 153.82,-322.3 151.65,-321.42"/>
<polygon fill="black" stroke="black" points="152.75,-318.09 142.17,-317.53 150.1,-324.56 152.75,-318.09"/>
</g>
<!-- Sequence* -->
<g id="node6" class="node">
<title>Sequence*</title>
<polygon fill="cyan" stroke="black" points="235.31,-298.54 235.31,-313.46 215.25,-324 186.88,-324 166.82,-313.46 166.82,-298.54 186.88,-288 215.25,-288 235.31,-298.54"/>
<text text-anchor="middle" x="201.06" y="-303.8" font-family="Times,serif" font-size="9.00">Sequence*</text>
</g>
<!-- Fallback&#45;&gt;Sequence* -->
<g id="edge5" class="edge">
<title>Fallback&#45;&gt;Sequence*</title>
<path fill="none" stroke="black" d="M277.75,-363.5C263.92,-353.31 244.7,-339.15 228.96,-327.56"/>
<polygon fill="black" stroke="black" points="230.76,-324.53 220.63,-321.42 226.61,-330.17 230.76,-324.53"/>
</g>
<!-- CompLkGraph! -->
<g id="node18" class="node">
<title>CompLkGraph!</title>
<ellipse fill="gray" stroke="black" cx="296.06" cy="-306" rx="42.95" ry="18"/>
<text text-anchor="middle" x="296.06" y="-303.8" font-family="Times,serif" font-size="9.00">CompLkGraph!</text>
</g>
<!-- Fallback&#45;&gt;CompLkGraph! -->
<g id="edge17" class="edge">
<title>Fallback&#45;&gt;CompLkGraph!</title>
<path fill="none" stroke="black" d="M296.06,-359.7C296.06,-351.98 296.06,-342.71 296.06,-334.11"/>
<polygon fill="black" stroke="black" points="299.56,-334.1 296.06,-324.1 292.56,-334.1 299.56,-334.1"/>
</g>
<!-- NotReadyForSG?* -->
<g id="node19" class="node">
<title>NotReadyForSG?*</title>
<ellipse fill="gray" stroke="black" cx="406.06" cy="-306" rx="49.8" ry="18"/>
<text text-anchor="middle" x="406.06" y="-303.8" font-family="Times,serif" font-size="9.00">NotReadyForSG?*</text>
</g>
<!-- Fallback&#45;&gt;NotReadyForSG?* -->
<g id="edge18" class="edge">
<title>Fallback&#45;&gt;NotReadyForSG?*</title>
<path fill="none" stroke="black" d="M315.73,-364.49C331.84,-354.23 354.97,-339.52 373.79,-327.54"/>
<polygon fill="black" stroke="black" points="375.8,-330.41 382.36,-322.09 372.04,-324.5 375.8,-330.41"/>
</g>
<!-- LkClose?* -->
<g id="node20" class="node">
<title>LkClose?*</title>
<ellipse fill="gray" stroke="black" cx="505.06" cy="-306" rx="31.51" ry="18"/>
<text text-anchor="middle" x="505.06" y="-303.8" font-family="Times,serif" font-size="9.00">LkClose?*</text>
</g>
<!-- Fallback&#45;&gt;LkClose?* -->
<g id="edge19" class="edge">
<title>Fallback&#45;&gt;LkClose?*</title>
<path fill="none" stroke="black" d="M323.56,-369.28C357.24,-359.61 415.87,-342.12 465.06,-324 467.13,-323.24 469.25,-322.43 471.39,-321.59"/>
<polygon fill="black" stroke="black" points="472.73,-324.82 480.68,-317.81 470.1,-318.34 472.73,-324.82"/>
</g>
<!-- MoveTo!*** -->
<g id="node21" class="node">
<title>MoveTo!***</title>
<ellipse fill="gray" stroke="black" cx="592.06" cy="-306" rx="36.9" ry="18"/>
<text text-anchor="middle" x="592.06" y="-303.8" font-family="Times,serif" font-size="9.00">MoveTo!***</text>
</g>
<!-- Fallback&#45;&gt;MoveTo!*** -->
<g id="edge20" class="edge">
<title>Fallback&#45;&gt;MoveTo!***</title>
<path fill="none" stroke="black" d="M325.66,-372.16C372.8,-364.13 467.64,-346.67 546.06,-324 548.82,-323.2 551.66,-322.32 554.49,-321.39"/>
<polygon fill="black" stroke="black" points="555.75,-324.66 564.06,-318.08 553.46,-318.04 555.75,-324.66"/>
</g>
<!-- LkClose? -->
<g id="node4" class="node">
<title>LkClose?</title>
<ellipse fill="gray" stroke="black" cx="43.06" cy="-234" rx="28.74" ry="18"/>
<text text-anchor="middle" x="43.06" y="-231.8" font-family="Times,serif" font-size="9.00">LkClose?</text>
</g>
<!-- Sequence&#45;&gt;LkClose? -->
<g id="edge3" class="edge">
<title>Sequence&#45;&gt;LkClose?</title>
<path fill="none" stroke="black" d="M100.64,-289.46C90.4,-279.78 77.08,-267.17 65.82,-256.53"/>
<polygon fill="black" stroke="black" points="68.1,-253.87 58.43,-249.54 63.29,-258.95 68.1,-253.87"/>
</g>
<!-- GetLk! -->
<g id="node5" class="node">
<title>GetLk!</title>
<ellipse fill="gray" stroke="black" cx="117.06" cy="-234" rx="27" ry="18"/>
<text text-anchor="middle" x="117.06" y="-231.8" font-family="Times,serif" font-size="9.00">GetLk!</text>
</g>
<!-- Sequence&#45;&gt;GetLk! -->
<g id="edge4" class="edge">
<title>Sequence&#45;&gt;GetLk!</title>
<path fill="none" stroke="black" d="M117.06,-287.7C117.06,-279.98 117.06,-270.71 117.06,-262.11"/>
<polygon fill="black" stroke="black" points="120.56,-262.1 117.06,-252.1 113.56,-262.1 120.56,-262.1"/>
</g>
<!-- LkGraph? -->
<g id="node7" class="node">
<title>LkGraph?</title>
<ellipse fill="gray" stroke="black" cx="193.06" cy="-234" rx="30.7" ry="18"/>
<text text-anchor="middle" x="193.06" y="-231.8" font-family="Times,serif" font-size="9.00">LkGraph?</text>
</g>
<!-- Sequence*&#45;&gt;LkGraph? -->
<g id="edge6" class="edge">
<title>Sequence*&#45;&gt;LkGraph?</title>
<path fill="none" stroke="black" d="M199.09,-287.7C198.2,-279.98 197.15,-270.71 196.16,-262.11"/>
<polygon fill="black" stroke="black" points="199.63,-261.64 195.02,-252.1 192.68,-262.44 199.63,-261.64"/>
</g>
<!-- Fallback* -->
<g id="node8" class="node">
<title>Fallback*</title>
<polygon fill="cyan" stroke="black" points="304.81,-226.54 304.81,-241.46 286.21,-252 259.92,-252 241.32,-241.46 241.32,-226.54 259.92,-216 286.21,-216 304.81,-226.54"/>
<text text-anchor="middle" x="273.06" y="-231.8" font-family="Times,serif" font-size="9.00">Fallback*</text>
</g>
<!-- Sequence*&#45;&gt;Fallback* -->
<g id="edge7" class="edge">
<title>Sequence*&#45;&gt;Fallback*</title>
<path fill="none" stroke="black" d="M217.4,-289.12C226.88,-279.9 238.99,-268.13 249.49,-257.92"/>
<polygon fill="black" stroke="black" points="252.06,-260.3 256.79,-250.82 247.18,-255.28 252.06,-260.3"/>
</g>
<!-- MoveTo!** -->
<g id="node17" class="node">
<title>MoveTo!**</title>
<ellipse fill="gray" stroke="black" cx="357.06" cy="-234" rx="34.13" ry="18"/>
<text text-anchor="middle" x="357.06" y="-231.8" font-family="Times,serif" font-size="9.00">MoveTo!**</text>
</g>
<!-- Sequence*&#45;&gt;MoveTo!** -->
<g id="edge16" class="edge">
<title>Sequence*&#45;&gt;MoveTo!**</title>
<path fill="none" stroke="black" d="M226.47,-293.6C252.62,-281.87 293.51,-263.52 322.56,-250.48"/>
<polygon fill="black" stroke="black" points="324.23,-253.57 331.92,-246.28 321.37,-247.18 324.23,-253.57"/>
</g>
<!-- NotReadyForSG? -->
<g id="node9" class="node">
<title>NotReadyForSG?</title>
<ellipse fill="gray" stroke="black" cx="171.06" cy="-162" rx="46.53" ry="18"/>
<text text-anchor="middle" x="171.06" y="-159.8" font-family="Times,serif" font-size="9.00">NotReadyForSG?</text>
</g>
<!-- Fallback*&#45;&gt;NotReadyForSG? -->
<g id="edge8" class="edge">
<title>Fallback*&#45;&gt;NotReadyForSG?</title>
<path fill="none" stroke="black" d="M253.4,-219.5C238.71,-209.42 218.35,-195.45 201.56,-183.93"/>
<polygon fill="black" stroke="black" points="203.37,-180.93 193.15,-178.16 199.41,-186.7 203.37,-180.93"/>
</g>
<!-- GetSubGoal! -->
<g id="node10" class="node">
<title>GetSubGoal!</title>
<ellipse fill="gray" stroke="black" cx="273.06" cy="-162" rx="36.9" ry="18"/>
<text text-anchor="middle" x="273.06" y="-159.8" font-family="Times,serif" font-size="9.00">GetSubGoal!</text>
</g>
<!-- Fallback*&#45;&gt;GetSubGoal! -->
<g id="edge9" class="edge">
<title>Fallback*&#45;&gt;GetSubGoal!</title>
<path fill="none" stroke="black" d="M273.06,-215.7C273.06,-207.98 273.06,-198.71 273.06,-190.11"/>
<polygon fill="black" stroke="black" points="276.56,-190.1 273.06,-180.1 269.56,-190.1 276.56,-190.1"/>
</g>
<!-- Sequence** -->
<g id="node11" class="node">
<title>Sequence**</title>
<polygon fill="cyan" stroke="black" points="401.8,-154.54 401.8,-169.46 380.28,-180 349.85,-180 328.32,-169.46 328.32,-154.54 349.85,-144 380.28,-144 401.8,-154.54"/>
<text text-anchor="middle" x="365.06" y="-159.8" font-family="Times,serif" font-size="9.00">Sequence**</text>
</g>
<!-- Fallback*&#45;&gt;Sequence** -->
<g id="edge10" class="edge">
<title>Fallback*&#45;&gt;Sequence**</title>
<path fill="none" stroke="black" d="M291.68,-218.83C304.67,-208.95 322.25,-195.58 336.94,-184.4"/>
<polygon fill="black" stroke="black" points="339.36,-186.95 345.2,-178.11 335.12,-181.38 339.36,-186.95"/>
</g>
<!-- MoveTo! -->
<g id="node12" class="node">
<title>MoveTo!</title>
<ellipse fill="gray" stroke="black" cx="286.06" cy="-90" rx="28.74" ry="18"/>
<text text-anchor="middle" x="286.06" y="-87.8" font-family="Times,serif" font-size="9.00">MoveTo!</text>
</g>
<!-- Sequence**&#45;&gt;MoveTo! -->
<g id="edge11" class="edge">
<title>Sequence**&#45;&gt;MoveTo!</title>
<path fill="none" stroke="black" d="M347.14,-145.12C336.01,-135.26 321.58,-122.47 309.55,-111.81"/>
<polygon fill="black" stroke="black" points="311.85,-109.17 302.04,-105.16 307.21,-114.41 311.85,-109.17"/>
</g>
<!-- MoveTo!* -->
<g id="node13" class="node">
<title>MoveTo!*</title>
<ellipse fill="gray" stroke="black" cx="365.06" cy="-90" rx="31.51" ry="18"/>
<text text-anchor="middle" x="365.06" y="-87.8" font-family="Times,serif" font-size="9.00">MoveTo!*</text>
</g>
<!-- Sequence**&#45;&gt;MoveTo!* -->
<g id="edge12" class="edge">
<title>Sequence**&#45;&gt;MoveTo!*</title>
<path fill="none" stroke="black" d="M365.06,-143.7C365.06,-135.98 365.06,-126.71 365.06,-118.11"/>
<polygon fill="black" stroke="black" points="368.56,-118.1 365.06,-108.1 361.56,-118.1 368.56,-118.1"/>
</g>
<!-- Fallback** -->
<g id="node14" class="node">
<title>Fallback**</title>
<polygon fill="cyan" stroke="black" points="485.05,-82.54 485.05,-97.46 464.56,-108 435.57,-108 415.07,-97.46 415.07,-82.54 435.57,-72 464.56,-72 485.05,-82.54"/>
<text text-anchor="middle" x="450.06" y="-87.8" font-family="Times,serif" font-size="9.00">Fallback**</text>
</g>
<!-- Sequence**&#45;&gt;Fallback** -->
<g id="edge13" class="edge">
<title>Sequence**&#45;&gt;Fallback**</title>
<path fill="none" stroke="black" d="M383.93,-145.46C395.56,-135.88 410.66,-123.45 423.5,-112.88"/>
<polygon fill="black" stroke="black" points="426.05,-115.31 431.54,-106.25 421.6,-109.91 426.05,-115.31"/>
</g>
<!-- GetSubGoal!* -->
<g id="node15" class="node">
<title>GetSubGoal!*</title>
<ellipse fill="gray" stroke="black" cx="400.06" cy="-18" rx="39.02" ry="18"/>
<text text-anchor="middle" x="400.06" y="-15.8" font-family="Times,serif" font-size="9.00">GetSubGoal!*</text>
</g>
<!-- Fallback**&#45;&gt;GetSubGoal!* -->
<g id="edge14" class="edge">
<title>Fallback**&#45;&gt;GetSubGoal!*</title>
<path fill="none" stroke="black" d="M437.7,-71.7C431.74,-63.35 424.48,-53.18 417.93,-44.02"/>
<polygon fill="black" stroke="black" points="420.6,-41.73 411.94,-35.62 414.9,-45.79 420.6,-41.73"/>
</g>
<!-- GetSubGoal!** -->
<g id="node16" class="node">
<title>GetSubGoal!**</title>
<ellipse fill="gray" stroke="black" cx="499.06" cy="-18" rx="42.29" ry="18"/>
<text text-anchor="middle" x="499.06" y="-15.8" font-family="Times,serif" font-size="9.00">GetSubGoal!**</text>
</g>
<!-- Fallback**&#45;&gt;GetSubGoal!** -->
<g id="edge15" class="edge">
<title>Fallback**&#45;&gt;GetSubGoal!**</title>
<path fill="none" stroke="black" d="M462.18,-71.7C468.02,-63.35 475.13,-53.18 481.55,-44.02"/>
<polygon fill="black" stroke="black" points="484.56,-45.82 487.43,-35.62 478.83,-41.81 484.56,-45.82"/>
</g>
</g>
</svg>
