<?xml version="1.0" encoding="UTF-8" standalone="no"?>
<!DOCTYPE svg PUBLIC "-//W3C//DTD SVG 1.1//EN"
 "http://www.w3.org/Graphics/SVG/1.1/DTD/svg11.dtd">
<!-- Generated by graphviz version 2.43.0 (0)
 -->
<!-- Title: pastafarianism Pages: 1 -->
<svg width="805pt" height="332pt"
 viewBox="0.00 0.00 805.01 332.00" xmlns="http://www.w3.org/2000/svg" xmlns:xlink="http://www.w3.org/1999/xlink">
<g id="graph0" class="graph" transform="scale(1 1) rotate(0) translate(4 328)">
<title>pastafarianism</title>
<polygon fill="white" stroke="transparent" points="-4,4 -4,-328 801.01,-328 801.01,4 -4,4"/>
<!-- Fallback -->
<g id="node1" class="node">
<title>Fallback</title>
<polygon fill="cyan" stroke="black" points="419.31,-298.54 419.31,-313.46 402.18,-324 377.95,-324 360.82,-313.46 360.82,-298.54 377.95,-288 402.18,-288 419.31,-298.54"/>
<text text-anchor="middle" x="390.06" y="-303.8" font-family="Times,serif" font-size="9.00">Fallback</text>
</g>
<!-- ReachGoal? -->
<g id="node2" class="node">
<title>ReachGoal?</title>
<ellipse fill="gray" stroke="black" cx="34.06" cy="-234" rx="34.13" ry="18"/>
<text text-anchor="middle" x="34.06" y="-231.8" font-family="Times,serif" font-size="9.00">ReachGoal?</text>
</g>
<!-- Fallback&#45;&gt;ReachGoal? -->
<g id="edge1" class="edge">
<title>Fallback&#45;&gt;ReachGoal?</title>
<path fill="none" stroke="black" d="M360.71,-302.1C304.74,-296.11 179.25,-280.51 77.06,-252 74.47,-251.28 71.82,-250.45 69.17,-249.56"/>
<polygon fill="black" stroke="black" points="70.28,-246.24 59.69,-246.14 67.9,-252.83 70.28,-246.24"/>
</g>
<!-- Sequence -->
<g id="node3" class="node">
<title>Sequence</title>
<polygon fill="cyan" stroke="black" points="148.56,-226.54 148.56,-241.46 130.11,-252 104.02,-252 85.57,-241.46 85.57,-226.54 104.02,-216 130.11,-216 148.56,-226.54"/>
<text text-anchor="middle" x="117.06" y="-231.8" font-family="Times,serif" font-size="9.00">Sequence</text>
</g>
<!-- Fallback&#45;&gt;Sequence -->
<g id="edge2" class="edge">
<title>Fallback&#45;&gt;Sequence</title>
<path fill="none" stroke="black" d="M360.71,-299.94C316.26,-291.91 229.5,-274.79 158.06,-252 155.62,-251.22 153.12,-250.36 150.62,-249.45"/>
<polygon fill="black" stroke="black" points="151.68,-246.1 141.09,-245.75 149.16,-252.63 151.68,-246.1"/>
</g>
<!-- Sequence* -->
<g id="node6" class="node">
<title>Sequence*</title>
<polygon fill="cyan" stroke="black" points="235.31,-226.54 235.31,-241.46 215.25,-252 186.88,-252 166.82,-241.46 166.82,-226.54 186.88,-216 215.25,-216 235.31,-226.54"/>
<text text-anchor="middle" x="201.06" y="-231.8" font-family="Times,serif" font-size="9.00">Sequence*</text>
</g>
<!-- Fallback&#45;&gt;Sequence* -->
<g id="edge5" class="edge">
<title>Fallback&#45;&gt;Sequence*</title>
<path fill="none" stroke="black" d="M364.66,-296.02C335.47,-285.65 286.17,-267.96 244.06,-252 241.85,-251.16 239.57,-250.29 237.27,-249.4"/>
<polygon fill="black" stroke="black" points="238.44,-246.1 227.86,-245.73 235.9,-252.62 238.44,-246.1"/>
</g>
<!-- CompLkGraph! -->
<g id="node15" class="node">
<title>CompLkGraph!</title>
<ellipse fill="gray" stroke="black" cx="296.06" cy="-234" rx="42.95" ry="18"/>
<text text-anchor="middle" x="296.06" y="-231.8" font-family="Times,serif" font-size="9.00">CompLkGraph!</text>
</g>
<!-- Fallback&#45;&gt;CompLkGraph! -->
<g id="edge14" class="edge">
<title>Fallback&#45;&gt;CompLkGraph!</title>
<path fill="none" stroke="black" d="M371.94,-291.5C358.44,-281.45 339.74,-267.52 324.28,-256.01"/>
<polygon fill="black" stroke="black" points="326.2,-253.08 316.08,-249.91 322.01,-258.69 326.2,-253.08"/>
</g>
<!-- LkGraph?* -->
<g id="node16" class="node">
<title>LkGraph?*</title>
<ellipse fill="gray" stroke="black" cx="390.06" cy="-234" rx="32.82" ry="18"/>
<text text-anchor="middle" x="390.06" y="-231.8" font-family="Times,serif" font-size="9.00">LkGraph?*</text>
</g>
<!-- Fallback&#45;&gt;LkGraph?* -->
<g id="edge15" class="edge">
<title>Fallback&#45;&gt;LkGraph?*</title>
<path fill="none" stroke="black" d="M390.06,-287.7C390.06,-279.98 390.06,-270.71 390.06,-262.11"/>
<polygon fill="black" stroke="black" points="393.56,-262.1 390.06,-252.1 386.56,-262.1 393.56,-262.1"/>
</g>
<!-- CompLkGraph!* -->
<g id="node17" class="node">
<title>CompLkGraph!*</title>
<ellipse fill="gray" stroke="black" cx="486.06" cy="-234" rx="45.07" ry="18"/>
<text text-anchor="middle" x="486.06" y="-231.8" font-family="Times,serif" font-size="9.00">CompLkGraph!*</text>
</g>
<!-- Fallback&#45;&gt;CompLkGraph!* -->
<g id="edge16" class="edge">
<title>Fallback&#45;&gt;CompLkGraph!*</title>
<path fill="none" stroke="black" d="M408.57,-291.5C422.27,-281.51 441.21,-267.71 456.93,-256.25"/>
<polygon fill="black" stroke="black" points="459.26,-258.88 465.28,-250.16 455.14,-253.22 459.26,-258.88"/>
</g>
<!-- ReachGoal?* -->
<g id="node18" class="node">
<title>ReachGoal?*</title>
<ellipse fill="gray" stroke="black" cx="586.06" cy="-234" rx="36.9" ry="18"/>
<text text-anchor="middle" x="586.06" y="-231.8" font-family="Times,serif" font-size="9.00">ReachGoal?*</text>
</g>
<!-- Fallback&#45;&gt;ReachGoal?* -->
<g id="edge17" class="edge">
<title>Fallback&#45;&gt;ReachGoal?*</title>
<path fill="none" stroke="black" d="M415.58,-296.11C445.46,-285.67 496.43,-267.77 540.06,-252 542.6,-251.08 545.22,-250.13 547.86,-249.17"/>
<polygon fill="black" stroke="black" points="549.2,-252.4 557.38,-245.67 546.78,-245.83 549.2,-252.4"/>
</g>
<!-- LkClose?* -->
<g id="node19" class="node">
<title>LkClose?*</title>
<ellipse fill="gray" stroke="black" cx="673.06" cy="-234" rx="31.51" ry="18"/>
<text text-anchor="middle" x="673.06" y="-231.8" font-family="Times,serif" font-size="9.00">LkClose?*</text>
</g>
<!-- Fallback&#45;&gt;LkClose?* -->
<g id="edge18" class="edge">
<title>Fallback&#45;&gt;LkClose?*</title>
<path fill="none" stroke="black" d="M419.56,-300.28C465.58,-292.53 556.97,-275.59 632.06,-252 634.51,-251.23 637.01,-250.38 639.51,-249.47"/>
<polygon fill="black" stroke="black" points="640.98,-252.66 649.05,-245.79 638.46,-246.13 640.98,-252.66"/>
</g>
<!-- MoveTo!*** -->
<g id="node20" class="node">
<title>MoveTo!***</title>
<ellipse fill="gray" stroke="black" cx="760.06" cy="-234" rx="36.9" ry="18"/>
<text text-anchor="middle" x="760.06" y="-231.8" font-family="Times,serif" font-size="9.00">MoveTo!***</text>
</g>
<!-- Fallback&#45;&gt;MoveTo!*** -->
<g id="edge19" class="edge">
<title>Fallback&#45;&gt;MoveTo!***</title>
<path fill="none" stroke="black" d="M419.5,-302.1C476.89,-296.02 607.43,-280.15 714.06,-252 717.01,-251.22 720.04,-250.33 723.06,-249.37"/>
<polygon fill="black" stroke="black" points="724.27,-252.65 732.61,-246.12 722.01,-246.03 724.27,-252.65"/>
</g>
<!-- LkClose? -->
<g id="node4" class="node">
<title>LkClose?</title>
<ellipse fill="gray" stroke="black" cx="43.06" cy="-162" rx="28.74" ry="18"/>
<text text-anchor="middle" x="43.06" y="-159.8" font-family="Times,serif" font-size="9.00">LkClose?</text>
</g>
<!-- Sequence&#45;&gt;LkClose? -->
<g id="edge3" class="edge">
<title>Sequence&#45;&gt;LkClose?</title>
<path fill="none" stroke="black" d="M100.64,-217.46C90.4,-207.78 77.08,-195.17 65.82,-184.53"/>
<polygon fill="black" stroke="black" points="68.1,-181.87 58.43,-177.54 63.29,-186.95 68.1,-181.87"/>
</g>
<!-- GetLk! -->
<g id="node5" class="node">
<title>GetLk!</title>
<ellipse fill="gray" stroke="black" cx="117.06" cy="-162" rx="27" ry="18"/>
<text text-anchor="middle" x="117.06" y="-159.8" font-family="Times,serif" font-size="9.00">GetLk!</text>
</g>
<!-- Sequence&#45;&gt;GetLk! -->
<g id="edge4" class="edge">
<title>Sequence&#45;&gt;GetLk!</title>
<path fill="none" stroke="black" d="M117.06,-215.7C117.06,-207.98 117.06,-198.71 117.06,-190.11"/>
<polygon fill="black" stroke="black" points="120.56,-190.1 117.06,-180.1 113.56,-190.1 120.56,-190.1"/>
</g>
<!-- LkGraph? -->
<g id="node7" class="node">
<title>LkGraph?</title>
<ellipse fill="gray" stroke="black" cx="193.06" cy="-162" rx="30.7" ry="18"/>
<text text-anchor="middle" x="193.06" y="-159.8" font-family="Times,serif" font-size="9.00">LkGraph?</text>
</g>
<!-- Sequence*&#45;&gt;LkGraph? -->
<g id="edge6" class="edge">
<title>Sequence*&#45;&gt;LkGraph?</title>
<path fill="none" stroke="black" d="M199.09,-215.7C198.2,-207.98 197.15,-198.71 196.16,-190.11"/>
<polygon fill="black" stroke="black" points="199.63,-189.64 195.02,-180.1 192.68,-190.44 199.63,-189.64"/>
</g>
<!-- Fallback* -->
<g id="node8" class="node">
<title>Fallback*</title>
<polygon fill="cyan" stroke="black" points="304.81,-154.54 304.81,-169.46 286.21,-180 259.92,-180 241.32,-169.46 241.32,-154.54 259.92,-144 286.21,-144 304.81,-154.54"/>
<text text-anchor="middle" x="273.06" y="-159.8" font-family="Times,serif" font-size="9.00">Fallback*</text>
</g>
<!-- Sequence*&#45;&gt;Fallback* -->
<g id="edge7" class="edge">
<title>Sequence*&#45;&gt;Fallback*</title>
<path fill="none" stroke="black" d="M217.4,-217.12C226.88,-207.9 238.99,-196.13 249.49,-185.92"/>
<polygon fill="black" stroke="black" points="252.06,-188.3 256.79,-178.82 247.18,-183.28 252.06,-188.3"/>
</g>
<!-- MoveTo!** -->
<g id="node14" class="node">
<title>MoveTo!**</title>
<ellipse fill="gray" stroke="black" cx="357.06" cy="-162" rx="34.13" ry="18"/>
<text text-anchor="middle" x="357.06" y="-159.8" font-family="Times,serif" font-size="9.00">MoveTo!**</text>
</g>
<!-- Sequence*&#45;&gt;MoveTo!** -->
<g id="edge13" class="edge">
<title>Sequence*&#45;&gt;MoveTo!**</title>
<path fill="none" stroke="black" d="M226.47,-221.6C252.62,-209.87 293.51,-191.52 322.56,-178.48"/>
<polygon fill="black" stroke="black" points="324.23,-181.57 331.92,-174.28 321.37,-175.18 324.23,-181.57"/>
</g>
<!-- NotReadyForSG? -->
<g id="node9" class="node">
<title>NotReadyForSG?</title>
<ellipse fill="gray" stroke="black" cx="171.06" cy="-90" rx="46.53" ry="18"/>
<text text-anchor="middle" x="171.06" y="-87.8" font-family="Times,serif" font-size="9.00">NotReadyForSG?</text>
</g>
<!-- Fallback*&#45;&gt;NotReadyForSG? -->
<g id="edge8" class="edge">
<title>Fallback*&#45;&gt;NotReadyForSG?</title>
<path fill="none" stroke="black" d="M253.4,-147.5C238.71,-137.42 218.35,-123.45 201.56,-111.93"/>
<polygon fill="black" stroke="black" points="203.37,-108.93 193.15,-106.16 199.41,-114.7 203.37,-108.93"/>
</g>
<!-- GetSubGoal! -->
<g id="node10" class="node">
<title>GetSubGoal!</title>
<ellipse fill="gray" stroke="black" cx="273.06" cy="-90" rx="36.9" ry="18"/>
<text text-anchor="middle" x="273.06" y="-87.8" font-family="Times,serif" font-size="9.00">GetSubGoal!</text>
</g>
<!-- Fallback*&#45;&gt;GetSubGoal! -->
<g id="edge9" class="edge">
<title>Fallback*&#45;&gt;GetSubGoal!</title>
<path fill="none" stroke="black" d="M273.06,-143.7C273.06,-135.98 273.06,-126.71 273.06,-118.11"/>
<polygon fill="black" stroke="black" points="276.56,-118.1 273.06,-108.1 269.56,-118.1 276.56,-118.1"/>
</g>
<!-- Sequence** -->
<g id="node11" class="node">
<title>Sequence**</title>
<polygon fill="cyan" stroke="black" points="401.8,-82.54 401.8,-97.46 380.28,-108 349.85,-108 328.32,-97.46 328.32,-82.54 349.85,-72 380.28,-72 401.8,-82.54"/>
<text text-anchor="middle" x="365.06" y="-87.8" font-family="Times,serif" font-size="9.00">Sequence**</text>
</g>
<!-- Fallback*&#45;&gt;Sequence** -->
<g id="edge10" class="edge">
<title>Fallback*&#45;&gt;Sequence**</title>
<path fill="none" stroke="black" d="M291.68,-146.83C304.67,-136.95 322.25,-123.58 336.94,-112.4"/>
<polygon fill="black" stroke="black" points="339.36,-114.95 345.2,-106.11 335.12,-109.38 339.36,-114.95"/>
</g>
<!-- MoveTo! -->
<g id="node12" class="node">
<title>MoveTo!</title>
<ellipse fill="gray" stroke="black" cx="325.06" cy="-18" rx="28.74" ry="18"/>
<text text-anchor="middle" x="325.06" y="-15.8" font-family="Times,serif" font-size="9.00">MoveTo!</text>
</g>
<!-- Sequence**&#45;&gt;MoveTo! -->
<g id="edge11" class="edge">
<title>Sequence**&#45;&gt;MoveTo!</title>
<path fill="none" stroke="black" d="M355.18,-71.7C350.39,-63.32 344.55,-53.1 339.29,-43.9"/>
<polygon fill="black" stroke="black" points="342.29,-42.09 334.29,-35.14 336.21,-45.56 342.29,-42.09"/>
</g>
<!-- MoveTo!* -->
<g id="node13" class="node">
<title>MoveTo!*</title>
<ellipse fill="gray" stroke="black" cx="404.06" cy="-18" rx="31.51" ry="18"/>
<text text-anchor="middle" x="404.06" y="-15.8" font-family="Times,serif" font-size="9.00">MoveTo!*</text>
</g>
<!-- Sequence**&#45;&gt;MoveTo!* -->
<g id="edge12" class="edge">
<title>Sequence**&#45;&gt;MoveTo!*</title>
<path fill="none" stroke="black" d="M374.7,-71.7C379.26,-63.52 384.78,-53.6 389.81,-44.58"/>
<polygon fill="black" stroke="black" points="392.99,-46.06 394.8,-35.62 386.88,-42.65 392.99,-46.06"/>
</g>
</g>
</svg>
