<?xml version="1.0" encoding="UTF-8" standalone="no"?>
<!DOCTYPE svg PUBLIC "-//W3C//DTD SVG 1.1//EN"
 "http://www.w3.org/Graphics/SVG/1.1/DTD/svg11.dtd">
<!-- Generated by graphviz version 2.43.0 (0)
 -->
<!-- Title: pastafarianism Pages: 1 -->
<svg width="744pt" height="332pt"
 viewBox="0.00 0.00 743.66 332.00" xmlns="http://www.w3.org/2000/svg" xmlns:xlink="http://www.w3.org/1999/xlink">
<g id="graph0" class="graph" transform="scale(1 1) rotate(0) translate(4 328)">
<title>pastafarianism</title>
<polygon fill="white" stroke="transparent" points="-4,4 -4,-328 739.66,-328 739.66,4 -4,4"/>
<!-- Fallback -->
<g id="node1" class="node">
<title>Fallback</title>
<polygon fill="cyan" stroke="black" points="194.31,-298.54 194.31,-313.46 177.18,-324 152.95,-324 135.82,-313.46 135.82,-298.54 152.95,-288 177.18,-288 194.31,-298.54"/>
<text text-anchor="middle" x="165.06" y="-303.8" font-family="Times,serif" font-size="9.00">Fallback</text>
</g>
<!-- LkClose? -->
<g id="node2" class="node">
<title>LkClose?</title>
<ellipse fill="gray" stroke="black" cx="45.06" cy="-234" rx="28.74" ry="18"/>
<text text-anchor="middle" x="45.06" y="-231.8" font-family="Times,serif" font-size="9.00">LkClose?</text>
</g>
<!-- Fallback&#45;&gt;LkClose? -->
<g id="edge1" class="edge">
<title>Fallback&#45;&gt;LkClose?</title>
<path fill="none" stroke="black" d="M144.43,-292.97C125.09,-281.68 95.96,-264.69 74.23,-252.01"/>
<polygon fill="black" stroke="black" points="75.82,-248.89 65.42,-246.88 72.3,-254.94 75.82,-248.89"/>
</g>
<!-- Sequence -->
<g id="node3" class="node">
<title>Sequence</title>
<polygon fill="cyan" stroke="black" points="154.56,-226.54 154.56,-241.46 136.11,-252 110.02,-252 91.57,-241.46 91.57,-226.54 110.02,-216 136.11,-216 154.56,-226.54"/>
<text text-anchor="middle" x="123.06" y="-231.8" font-family="Times,serif" font-size="9.00">Sequence</text>
</g>
<!-- Fallback&#45;&gt;Sequence -->
<g id="edge2" class="edge">
<title>Fallback&#45;&gt;Sequence</title>
<path fill="none" stroke="black" d="M154.68,-287.7C149.8,-279.56 143.88,-269.69 138.48,-260.7"/>
<polygon fill="black" stroke="black" points="141.47,-258.88 133.33,-252.1 135.47,-262.48 141.47,-258.88"/>
</g>
<!-- Sequence* -->
<g id="node8" class="node">
<title>Sequence*</title>
<polygon fill="cyan" stroke="black" points="241.31,-226.54 241.31,-241.46 221.25,-252 192.88,-252 172.82,-241.46 172.82,-226.54 192.88,-216 221.25,-216 241.31,-226.54"/>
<text text-anchor="middle" x="207.06" y="-231.8" font-family="Times,serif" font-size="9.00">Sequence*</text>
</g>
<!-- Fallback&#45;&gt;Sequence* -->
<g id="edge7" class="edge">
<title>Fallback&#45;&gt;Sequence*</title>
<path fill="none" stroke="black" d="M175.45,-287.7C180.33,-279.56 186.25,-269.69 191.64,-260.7"/>
<polygon fill="black" stroke="black" points="194.66,-262.48 196.8,-252.1 188.65,-258.88 194.66,-262.48"/>
</g>
<!-- Sequence** -->
<g id="node11" class="node">
<title>Sequence**</title>
<polygon fill="cyan" stroke="black" points="543.8,-226.54 543.8,-241.46 522.28,-252 491.85,-252 470.32,-241.46 470.32,-226.54 491.85,-216 522.28,-216 543.8,-226.54"/>
<text text-anchor="middle" x="507.06" y="-231.8" font-family="Times,serif" font-size="9.00">Sequence**</text>
</g>
<!-- Fallback&#45;&gt;Sequence** -->
<g id="edge10" class="edge">
<title>Fallback&#45;&gt;Sequence**</title>
<path fill="none" stroke="black" d="M194.52,-298.97C254.36,-286.72 390.5,-258.86 461.73,-244.28"/>
<polygon fill="black" stroke="black" points="462.65,-247.66 471.75,-242.23 461.25,-240.8 462.65,-247.66"/>
</g>
<!-- LkClose?* -->
<g id="node4" class="node">
<title>LkClose?*</title>
<ellipse fill="gray" stroke="black" cx="41.06" cy="-162" rx="31.51" ry="18"/>
<text text-anchor="middle" x="41.06" y="-159.8" font-family="Times,serif" font-size="9.00">LkClose?*</text>
</g>
<!-- Sequence&#45;&gt;LkClose?* -->
<g id="edge3" class="edge">
<title>Sequence&#45;&gt;LkClose?*</title>
<path fill="none" stroke="black" d="M105.67,-218.15C93.99,-208.18 78.44,-194.9 65.51,-183.87"/>
<polygon fill="black" stroke="black" points="67.75,-181.18 57.87,-177.35 63.2,-186.5 67.75,-181.18"/>
</g>
<!-- Fallback* -->
<g id="node5" class="node">
<title>Fallback*</title>
<polygon fill="cyan" stroke="black" points="154.81,-154.54 154.81,-169.46 136.21,-180 109.92,-180 91.32,-169.46 91.32,-154.54 109.92,-144 136.21,-144 154.81,-154.54"/>
<text text-anchor="middle" x="123.06" y="-159.8" font-family="Times,serif" font-size="9.00">Fallback*</text>
</g>
<!-- Sequence&#45;&gt;Fallback* -->
<g id="edge4" class="edge">
<title>Sequence&#45;&gt;Fallback*</title>
<path fill="none" stroke="black" d="M123.06,-215.7C123.06,-207.98 123.06,-198.71 123.06,-190.11"/>
<polygon fill="black" stroke="black" points="126.56,-190.1 123.06,-180.1 119.56,-190.1 126.56,-190.1"/>
</g>
<!-- LkClose?** -->
<g id="node6" class="node">
<title>LkClose?**</title>
<ellipse fill="gray" stroke="black" cx="34.06" cy="-90" rx="34.13" ry="18"/>
<text text-anchor="middle" x="34.06" y="-87.8" font-family="Times,serif" font-size="9.00">LkClose?**</text>
</g>
<!-- Fallback*&#45;&gt;LkClose?** -->
<g id="edge5" class="edge">
<title>Fallback*&#45;&gt;LkClose?**</title>
<path fill="none" stroke="black" d="M104.62,-146.5C91.77,-136.39 74.44,-122.75 60.17,-111.53"/>
<polygon fill="black" stroke="black" points="62.2,-108.68 52.18,-105.25 57.87,-114.18 62.2,-108.68"/>
</g>
<!-- GetSubGoal! -->
<g id="node7" class="node">
<title>GetSubGoal!</title>
<ellipse fill="gray" stroke="black" cx="123.06" cy="-90" rx="36.9" ry="18"/>
<text text-anchor="middle" x="123.06" y="-87.8" font-family="Times,serif" font-size="9.00">GetSubGoal!</text>
</g>
<!-- Fallback*&#45;&gt;GetSubGoal! -->
<g id="edge6" class="edge">
<title>Fallback*&#45;&gt;GetSubGoal!</title>
<path fill="none" stroke="black" d="M123.06,-143.7C123.06,-135.98 123.06,-126.71 123.06,-118.11"/>
<polygon fill="black" stroke="black" points="126.56,-118.1 123.06,-108.1 119.56,-118.1 126.56,-118.1"/>
</g>
<!-- ReachGoal? -->
<g id="node9" class="node">
<title>ReachGoal?</title>
<ellipse fill="gray" stroke="black" cx="207.06" cy="-162" rx="34.13" ry="18"/>
<text text-anchor="middle" x="207.06" y="-159.8" font-family="Times,serif" font-size="9.00">ReachGoal?</text>
</g>
<!-- Sequence*&#45;&gt;ReachGoal? -->
<g id="edge8" class="edge">
<title>Sequence*&#45;&gt;ReachGoal?</title>
<path fill="none" stroke="black" d="M207.06,-215.7C207.06,-207.98 207.06,-198.71 207.06,-190.11"/>
<polygon fill="black" stroke="black" points="210.56,-190.1 207.06,-180.1 203.56,-190.1 210.56,-190.1"/>
</g>
<!-- NotReadyForSG? -->
<g id="node10" class="node">
<title>NotReadyForSG?</title>
<ellipse fill="gray" stroke="black" cx="306.06" cy="-162" rx="46.53" ry="18"/>
<text text-anchor="middle" x="306.06" y="-159.8" font-family="Times,serif" font-size="9.00">NotReadyForSG?</text>
</g>
<!-- Sequence*&#45;&gt;NotReadyForSG? -->
<g id="edge9" class="edge">
<title>Sequence*&#45;&gt;NotReadyForSG?</title>
<path fill="none" stroke="black" d="M227.1,-218.83C241.21,-208.86 260.34,-195.33 276.24,-184.09"/>
<polygon fill="black" stroke="black" points="278.54,-186.74 284.69,-178.11 274.5,-181.03 278.54,-186.74"/>
</g>
<!-- Fallback** -->
<g id="node12" class="node">
<title>Fallback**</title>
<polygon fill="cyan" stroke="black" points="460.05,-154.54 460.05,-169.46 439.56,-180 410.57,-180 390.07,-169.46 390.07,-154.54 410.57,-144 439.56,-144 460.05,-154.54"/>
<text text-anchor="middle" x="425.06" y="-159.8" font-family="Times,serif" font-size="9.00">Fallback**</text>
</g>
<!-- Sequence**&#45;&gt;Fallback** -->
<g id="edge11" class="edge">
<title>Sequence**&#45;&gt;Fallback**</title>
<path fill="none" stroke="black" d="M488.46,-217.12C477.29,-207.59 462.93,-195.33 450.71,-184.89"/>
<polygon fill="black" stroke="black" points="452.91,-182.17 443.03,-178.34 448.37,-187.49 452.91,-182.17"/>
</g>
<!-- MoveTo! -->
<g id="node22" class="node">
<title>MoveTo!</title>
<ellipse fill="gray" stroke="black" cx="507.06" cy="-162" rx="28.74" ry="18"/>
<text text-anchor="middle" x="507.06" y="-159.8" font-family="Times,serif" font-size="9.00">MoveTo!</text>
</g>
<!-- Sequence**&#45;&gt;MoveTo! -->
<g id="edge21" class="edge">
<title>Sequence**&#45;&gt;MoveTo!</title>
<path fill="none" stroke="black" d="M507.06,-215.7C507.06,-207.98 507.06,-198.71 507.06,-190.11"/>
<polygon fill="black" stroke="black" points="510.56,-190.1 507.06,-180.1 503.56,-190.1 510.56,-190.1"/>
</g>
<!-- MoveTo!* -->
<g id="node23" class="node">
<title>MoveTo!*</title>
<ellipse fill="gray" stroke="black" cx="586.06" cy="-162" rx="31.51" ry="18"/>
<text text-anchor="middle" x="586.06" y="-159.8" font-family="Times,serif" font-size="9.00">MoveTo!*</text>
</g>
<!-- Sequence**&#45;&gt;MoveTo!* -->
<g id="edge22" class="edge">
<title>Sequence**&#45;&gt;MoveTo!*</title>
<path fill="none" stroke="black" d="M524.99,-217.12C535.86,-207.48 549.89,-195.06 561.75,-184.54"/>
<polygon fill="black" stroke="black" points="564.39,-186.88 569.56,-177.63 559.75,-181.64 564.39,-186.88"/>
</g>
<!-- ReachGoal?** -->
<g id="node24" class="node">
<title>ReachGoal?**</title>
<ellipse fill="gray" stroke="black" cx="675.06" cy="-162" rx="39.02" ry="18"/>
<text text-anchor="middle" x="675.06" y="-159.8" font-family="Times,serif" font-size="9.00">ReachGoal?**</text>
</g>
<!-- Sequence**&#45;&gt;ReachGoal?** -->
<g id="edge23" class="edge">
<title>Sequence**&#45;&gt;ReachGoal?**</title>
<path fill="none" stroke="black" d="M534.06,-221.75C562.13,-210.06 606.29,-191.65 637.71,-178.56"/>
<polygon fill="black" stroke="black" points="639.13,-181.76 647.02,-174.69 636.44,-175.3 639.13,-181.76"/>
</g>
<!-- NotReadyForSG?* -->
<g id="node13" class="node">
<title>NotReadyForSG?*</title>
<ellipse fill="gray" stroke="black" cx="228.06" cy="-90" rx="49.8" ry="18"/>
<text text-anchor="middle" x="228.06" y="-87.8" font-family="Times,serif" font-size="9.00">NotReadyForSG?*</text>
</g>
<!-- Fallback**&#45;&gt;NotReadyForSG?* -->
<g id="edge12" class="edge">
<title>Fallback**&#45;&gt;NotReadyForSG?*</title>
<path fill="none" stroke="black" d="M396.84,-150.97C364.22,-139.38 310.14,-120.17 272.01,-106.61"/>
<polygon fill="black" stroke="black" points="272.79,-103.18 262.19,-103.13 270.44,-109.77 272.79,-103.18"/>
</g>
<!-- LkClose?*** -->
<g id="node14" class="node">
<title>LkClose?***</title>
<ellipse fill="gray" stroke="black" cx="333.06" cy="-90" rx="36.9" ry="18"/>
<text text-anchor="middle" x="333.06" y="-87.8" font-family="Times,serif" font-size="9.00">LkClose?***</text>
</g>
<!-- Fallback**&#45;&gt;LkClose?*** -->
<g id="edge13" class="edge">
<title>Fallback**&#45;&gt;LkClose?***</title>
<path fill="none" stroke="black" d="M405.55,-146.15C392.41,-136.16 374.9,-122.83 360.38,-111.78"/>
<polygon fill="black" stroke="black" points="362.31,-108.85 352.23,-105.58 358.07,-114.42 362.31,-108.85"/>
</g>
<!-- ReachGoal?* -->
<g id="node15" class="node">
<title>ReachGoal?*</title>
<ellipse fill="gray" stroke="black" cx="425.06" cy="-90" rx="36.9" ry="18"/>
<text text-anchor="middle" x="425.06" y="-87.8" font-family="Times,serif" font-size="9.00">ReachGoal?*</text>
</g>
<!-- Fallback**&#45;&gt;ReachGoal?* -->
<g id="edge14" class="edge">
<title>Fallback**&#45;&gt;ReachGoal?*</title>
<path fill="none" stroke="black" d="M425.06,-143.7C425.06,-135.98 425.06,-126.71 425.06,-118.11"/>
<polygon fill="black" stroke="black" points="428.56,-118.1 425.06,-108.1 421.56,-118.1 428.56,-118.1"/>
</g>
<!-- GetSubGoal!* -->
<g id="node16" class="node">
<title>GetSubGoal!*</title>
<ellipse fill="gray" stroke="black" cx="519.06" cy="-90" rx="39.02" ry="18"/>
<text text-anchor="middle" x="519.06" y="-87.8" font-family="Times,serif" font-size="9.00">GetSubGoal!*</text>
</g>
<!-- Fallback**&#45;&gt;GetSubGoal!* -->
<g id="edge15" class="edge">
<title>Fallback**&#45;&gt;GetSubGoal!*</title>
<path fill="none" stroke="black" d="M444.54,-146.5C457.94,-136.52 475.94,-123.11 490.89,-111.98"/>
<polygon fill="black" stroke="black" points="493.36,-114.51 499.29,-105.73 489.18,-108.89 493.36,-114.51"/>
</g>
<!-- Sequence*** -->
<g id="node17" class="node">
<title>Sequence***</title>
<polygon fill="cyan" stroke="black" points="656.05,-82.54 656.05,-97.46 632.63,-108 599.5,-108 576.07,-97.46 576.07,-82.54 599.5,-72 632.63,-72 656.05,-82.54"/>
<text text-anchor="middle" x="616.06" y="-87.8" font-family="Times,serif" font-size="9.00">Sequence***</text>
</g>
<!-- Fallback**&#45;&gt;Sequence*** -->
<g id="edge16" class="edge">
<title>Fallback**&#45;&gt;Sequence***</title>
<path fill="none" stroke="black" d="M452.49,-150.29C457.97,-148.18 463.69,-146.01 469.06,-144 505.14,-130.53 546.41,-115.7 576.01,-105.16"/>
<polygon fill="black" stroke="black" points="577.33,-108.41 585.58,-101.76 574.99,-101.81 577.33,-108.41"/>
</g>
<!-- LkGraph? -->
<g id="node21" class="node">
<title>LkGraph?</title>
<ellipse fill="gray" stroke="black" cx="705.06" cy="-90" rx="30.7" ry="18"/>
<text text-anchor="middle" x="705.06" y="-87.8" font-family="Times,serif" font-size="9.00">LkGraph?</text>
</g>
<!-- Fallback**&#45;&gt;LkGraph? -->
<g id="edge20" class="edge">
<title>Fallback**&#45;&gt;LkGraph?</title>
<path fill="none" stroke="black" d="M451.32,-149.94C457.09,-147.76 463.23,-145.65 469.06,-144 554.3,-119.93 580.24,-133.48 665.06,-108 667.47,-107.28 669.92,-106.46 672.37,-105.58"/>
<polygon fill="black" stroke="black" points="673.64,-108.84 681.69,-101.95 671.1,-102.31 673.64,-108.84"/>
</g>
<!-- GetSubGoal!** -->
<g id="node18" class="node">
<title>GetSubGoal!**</title>
<ellipse fill="gray" stroke="black" cx="517.06" cy="-18" rx="42.29" ry="18"/>
<text text-anchor="middle" x="517.06" y="-15.8" font-family="Times,serif" font-size="9.00">GetSubGoal!**</text>
</g>
<!-- Sequence***&#45;&gt;GetSubGoal!** -->
<g id="edge17" class="edge">
<title>Sequence***&#45;&gt;GetSubGoal!**</title>
<path fill="none" stroke="black" d="M594.58,-73.81C580.38,-63.77 561.59,-50.48 546.06,-39.5"/>
<polygon fill="black" stroke="black" points="548.01,-36.6 537.82,-33.68 543.97,-42.31 548.01,-36.6"/>
</g>
<!-- LkClose?**** -->
<g id="node19" class="node">
<title>LkClose?****</title>
<ellipse fill="gray" stroke="black" cx="616.06" cy="-18" rx="39.02" ry="18"/>
<text text-anchor="middle" x="616.06" y="-15.8" font-family="Times,serif" font-size="9.00">LkClose?****</text>
</g>
<!-- Sequence***&#45;&gt;LkClose?**** -->
<g id="edge18" class="edge">
<title>Sequence***&#45;&gt;LkClose?****</title>
<path fill="none" stroke="black" d="M616.06,-71.7C616.06,-63.98 616.06,-54.71 616.06,-46.11"/>
<polygon fill="black" stroke="black" points="619.56,-46.1 616.06,-36.1 612.56,-46.1 619.56,-46.1"/>
</g>
<!-- GetLk! -->
<g id="node20" class="node">
<title>GetLk!</title>
<ellipse fill="gray" stroke="black" cx="700.06" cy="-18" rx="27" ry="18"/>
<text text-anchor="middle" x="700.06" y="-15.8" font-family="Times,serif" font-size="9.00">GetLk!</text>
</g>
<!-- Sequence***&#45;&gt;GetLk! -->
<g id="edge19" class="edge">
<title>Sequence***&#45;&gt;GetLk!</title>
<path fill="none" stroke="black" d="M635.12,-73.12C647.2,-63.06 662.91,-49.96 675.86,-39.17"/>
<polygon fill="black" stroke="black" points="678.46,-41.56 683.9,-32.47 673.98,-36.18 678.46,-41.56"/>
</g>
</g>
</svg>
