<?xml version="1.0" encoding="UTF-8" standalone="no"?>
<!DOCTYPE svg PUBLIC "-//W3C//DTD SVG 1.1//EN"
 "http://www.w3.org/Graphics/SVG/1.1/DTD/svg11.dtd">
<!-- Generated by graphviz version 2.43.0 (0)
 -->
<!-- Title: pastafarianism Pages: 1 -->
<svg width="1643pt" height="332pt"
 viewBox="0.00 0.00 1642.79 332.00" xmlns="http://www.w3.org/2000/svg" xmlns:xlink="http://www.w3.org/1999/xlink">
<g id="graph0" class="graph" transform="scale(1 1) rotate(0) translate(4 328)">
<title>pastafarianism</title>
<polygon fill="white" stroke="transparent" points="-4,4 -4,-328 1638.79,-328 1638.79,4 -4,4"/>
<!-- Fallback -->
<g id="node1" class="node">
<title>Fallback</title>
<polygon fill="cyan" stroke="black" points="521,-298.54 521,-313.46 503.87,-324 479.64,-324 462.51,-313.46 462.51,-298.54 479.64,-288 503.87,-288 521,-298.54"/>
<text text-anchor="middle" x="491.75" y="-303.8" font-family="Times,serif" font-size="9.00">Fallback</text>
</g>
<!-- LkGraph? -->
<g id="node2" class="node">
<title>LkGraph?</title>
<ellipse fill="gray" stroke="black" cx="210.75" cy="-234" rx="30.7" ry="18"/>
<text text-anchor="middle" x="210.75" y="-231.8" font-family="Times,serif" font-size="9.00">LkGraph?</text>
</g>
<!-- Fallback&#45;&gt;LkGraph? -->
<g id="edge1" class="edge">
<title>Fallback&#45;&gt;LkGraph?</title>
<path fill="none" stroke="black" d="M462.21,-300.45C416.12,-292.92 324.63,-276.26 249.75,-252 247.64,-251.32 245.49,-250.56 243.33,-249.75"/>
<polygon fill="black" stroke="black" points="244.56,-246.48 233.98,-246.01 241.96,-252.97 244.56,-246.48"/>
</g>
<!-- LkClose? -->
<g id="node3" class="node">
<title>LkClose?</title>
<ellipse fill="gray" stroke="black" cx="287.75" cy="-234" rx="28.74" ry="18"/>
<text text-anchor="middle" x="287.75" y="-231.8" font-family="Times,serif" font-size="9.00">LkClose?</text>
</g>
<!-- Fallback&#45;&gt;LkClose? -->
<g id="edge2" class="edge">
<title>Fallback&#45;&gt;LkClose?</title>
<path fill="none" stroke="black" d="M464.41,-297.29C431.24,-287.7 373.8,-270.35 325.75,-252 323.67,-251.2 321.54,-250.35 319.39,-249.47"/>
<polygon fill="black" stroke="black" points="320.66,-246.2 310.09,-245.49 317.9,-252.64 320.66,-246.2"/>
</g>
<!-- Sequence -->
<g id="node4" class="node">
<title>Sequence</title>
<polygon fill="cyan" stroke="black" points="397.25,-226.54 397.25,-241.46 378.8,-252 352.71,-252 334.26,-241.46 334.26,-226.54 352.71,-216 378.8,-216 397.25,-226.54"/>
<text text-anchor="middle" x="365.75" y="-231.8" font-family="Times,serif" font-size="9.00">Sequence</text>
</g>
<!-- Fallback&#45;&gt;Sequence -->
<g id="edge3" class="edge">
<title>Fallback&#45;&gt;Sequence</title>
<path fill="none" stroke="black" d="M470.66,-293.28C450.47,-282.06 419.76,-265 396.77,-252.23"/>
<polygon fill="black" stroke="black" points="398.2,-249.02 387.76,-247.23 394.8,-255.14 398.2,-249.02"/>
</g>
<!-- LkClose?*** -->
<g id="node11" class="node">
<title>LkClose?***</title>
<ellipse fill="gray" stroke="black" cx="491.75" cy="-234" rx="36.9" ry="18"/>
<text text-anchor="middle" x="491.75" y="-231.8" font-family="Times,serif" font-size="9.00">LkClose?***</text>
</g>
<!-- Fallback&#45;&gt;LkClose?*** -->
<g id="edge10" class="edge">
<title>Fallback&#45;&gt;LkClose?***</title>
<path fill="none" stroke="black" d="M491.75,-287.7C491.75,-279.98 491.75,-270.71 491.75,-262.11"/>
<polygon fill="black" stroke="black" points="495.25,-262.1 491.75,-252.1 488.25,-262.1 495.25,-262.1"/>
</g>
<!-- Sequence* -->
<g id="node12" class="node">
<title>Sequence*</title>
<polygon fill="cyan" stroke="black" points="656,-226.54 656,-241.46 635.94,-252 607.57,-252 587.51,-241.46 587.51,-226.54 607.57,-216 635.94,-216 656,-226.54"/>
<text text-anchor="middle" x="621.75" y="-231.8" font-family="Times,serif" font-size="9.00">Sequence*</text>
</g>
<!-- Fallback&#45;&gt;Sequence* -->
<g id="edge11" class="edge">
<title>Fallback&#45;&gt;Sequence*</title>
<path fill="none" stroke="black" d="M513.22,-293.44C533.98,-282.27 565.69,-265.19 589.49,-252.38"/>
<polygon fill="black" stroke="black" points="591.35,-255.34 598.5,-247.52 588.03,-249.18 591.35,-255.34"/>
</g>
<!-- Sequence** -->
<g id="node23" class="node">
<title>Sequence**</title>
<polygon fill="cyan" stroke="black" points="1069.5,-226.54 1069.5,-241.46 1047.97,-252 1017.54,-252 996.01,-241.46 996.01,-226.54 1017.54,-216 1047.97,-216 1069.5,-226.54"/>
<text text-anchor="middle" x="1032.75" y="-231.8" font-family="Times,serif" font-size="9.00">Sequence**</text>
</g>
<!-- Fallback&#45;&gt;Sequence** -->
<g id="edge22" class="edge">
<title>Fallback&#45;&gt;Sequence**</title>
<path fill="none" stroke="black" d="M521.22,-301.19C610.3,-289.66 877.25,-255.12 985.94,-241.06"/>
<polygon fill="black" stroke="black" points="986.49,-244.52 995.95,-239.76 985.59,-237.57 986.49,-244.52"/>
</g>
<!-- Sequence*** -->
<g id="node30" class="node">
<title>Sequence***</title>
<polygon fill="cyan" stroke="black" points="1371.74,-226.54 1371.74,-241.46 1348.32,-252 1315.19,-252 1291.76,-241.46 1291.76,-226.54 1315.19,-216 1348.32,-216 1371.74,-226.54"/>
<text text-anchor="middle" x="1331.75" y="-231.8" font-family="Times,serif" font-size="9.00">Sequence***</text>
</g>
<!-- Fallback&#45;&gt;Sequence*** -->
<g id="edge29" class="edge">
<title>Fallback&#45;&gt;Sequence***</title>
<path fill="none" stroke="black" d="M521.16,-302.55C644.85,-292.24 1123.79,-252.33 1281.26,-239.21"/>
<polygon fill="black" stroke="black" points="1281.92,-242.67 1291.59,-238.35 1281.34,-235.69 1281.92,-242.67"/>
</g>
<!-- LkClose?* -->
<g id="node5" class="node">
<title>LkClose?*</title>
<ellipse fill="gray" stroke="black" cx="31.75" cy="-162" rx="31.51" ry="18"/>
<text text-anchor="middle" x="31.75" y="-159.8" font-family="Times,serif" font-size="9.00">LkClose?*</text>
</g>
<!-- Sequence&#45;&gt;LkClose?* -->
<g id="edge4" class="edge">
<title>Sequence&#45;&gt;LkClose?*</title>
<path fill="none" stroke="black" d="M342.01,-221.71C336.74,-219.55 331.13,-217.5 325.75,-216 216.34,-185.53 182.3,-209.99 72.75,-180 70.28,-179.32 67.76,-178.54 65.25,-177.68"/>
<polygon fill="black" stroke="black" points="66.27,-174.33 55.68,-174.1 63.82,-180.88 66.27,-174.33"/>
</g>
<!-- MoveTo! -->
<g id="node6" class="node">
<title>MoveTo!</title>
<ellipse fill="gray" stroke="black" cx="110.75" cy="-162" rx="28.74" ry="18"/>
<text text-anchor="middle" x="110.75" y="-159.8" font-family="Times,serif" font-size="9.00">MoveTo!</text>
</g>
<!-- Sequence&#45;&gt;MoveTo! -->
<g id="edge5" class="edge">
<title>Sequence&#45;&gt;MoveTo!</title>
<path fill="none" stroke="black" d="M341.93,-221.95C336.68,-219.78 331.09,-217.66 325.75,-216 249.09,-192.18 225.19,-204.54 148.75,-180 146.63,-179.32 144.46,-178.55 142.3,-177.74"/>
<polygon fill="black" stroke="black" points="143.52,-174.45 132.94,-173.9 140.87,-180.93 143.52,-174.45"/>
</g>
<!-- MoveTo!* -->
<g id="node7" class="node">
<title>MoveTo!*</title>
<ellipse fill="gray" stroke="black" cx="189.75" cy="-162" rx="31.51" ry="18"/>
<text text-anchor="middle" x="189.75" y="-159.8" font-family="Times,serif" font-size="9.00">MoveTo!*</text>
</g>
<!-- Sequence&#45;&gt;MoveTo!* -->
<g id="edge6" class="edge">
<title>Sequence&#45;&gt;MoveTo!*</title>
<path fill="none" stroke="black" d="M341.28,-222.42C336.16,-220.26 330.8,-218.03 325.75,-216 283.86,-199.17 272.72,-196.65 230.75,-180 228.52,-179.11 226.22,-178.19 223.9,-177.25"/>
<polygon fill="black" stroke="black" points="225,-173.92 214.42,-173.37 222.35,-180.4 225,-173.92"/>
</g>
<!-- GetSubGoal! -->
<g id="node8" class="node">
<title>GetSubGoal!</title>
<ellipse fill="gray" stroke="black" cx="276.75" cy="-162" rx="36.9" ry="18"/>
<text text-anchor="middle" x="276.75" y="-159.8" font-family="Times,serif" font-size="9.00">GetSubGoal!</text>
</g>
<!-- Sequence&#45;&gt;GetSubGoal! -->
<g id="edge7" class="edge">
<title>Sequence&#45;&gt;GetSubGoal!</title>
<path fill="none" stroke="black" d="M347.74,-218.83C335.01,-208.82 317.71,-195.22 303.39,-183.95"/>
<polygon fill="black" stroke="black" points="305.37,-181.06 295.35,-177.63 301.05,-186.56 305.37,-181.06"/>
</g>
<!-- LkClose?** -->
<g id="node9" class="node">
<title>LkClose?**</title>
<ellipse fill="gray" stroke="black" cx="365.75" cy="-162" rx="34.13" ry="18"/>
<text text-anchor="middle" x="365.75" y="-159.8" font-family="Times,serif" font-size="9.00">LkClose?**</text>
</g>
<!-- Sequence&#45;&gt;LkClose?** -->
<g id="edge8" class="edge">
<title>Sequence&#45;&gt;LkClose?**</title>
<path fill="none" stroke="black" d="M365.75,-215.7C365.75,-207.98 365.75,-198.71 365.75,-190.11"/>
<polygon fill="black" stroke="black" points="369.25,-190.1 365.75,-180.1 362.25,-190.1 369.25,-190.1"/>
</g>
<!-- LkGraph?* -->
<g id="node10" class="node">
<title>LkGraph?*</title>
<ellipse fill="gray" stroke="black" cx="450.75" cy="-162" rx="32.82" ry="18"/>
<text text-anchor="middle" x="450.75" y="-159.8" font-family="Times,serif" font-size="9.00">LkGraph?*</text>
</g>
<!-- Sequence&#45;&gt;LkGraph?* -->
<g id="edge9" class="edge">
<title>Sequence&#45;&gt;LkGraph?*</title>
<path fill="none" stroke="black" d="M383.37,-218.5C395.45,-208.55 411.67,-195.19 425.17,-184.07"/>
<polygon fill="black" stroke="black" points="427.67,-186.54 433.16,-177.49 423.22,-181.14 427.67,-186.54"/>
</g>
<!-- ReachGoal? -->
<g id="node13" class="node">
<title>ReachGoal?</title>
<ellipse fill="gray" stroke="black" cx="535.75" cy="-162" rx="34.13" ry="18"/>
<text text-anchor="middle" x="535.75" y="-159.8" font-family="Times,serif" font-size="9.00">ReachGoal?</text>
</g>
<!-- Sequence*&#45;&gt;ReachGoal? -->
<g id="edge12" class="edge">
<title>Sequence*&#45;&gt;ReachGoal?</title>
<path fill="none" stroke="black" d="M603.09,-217.81C590.9,-207.89 574.82,-194.8 561.43,-183.9"/>
<polygon fill="black" stroke="black" points="563.46,-181.04 553.5,-177.44 559.04,-186.47 563.46,-181.04"/>
</g>
<!-- MoveTo!** -->
<g id="node14" class="node">
<title>MoveTo!**</title>
<ellipse fill="gray" stroke="black" cx="621.75" cy="-162" rx="34.13" ry="18"/>
<text text-anchor="middle" x="621.75" y="-159.8" font-family="Times,serif" font-size="9.00">MoveTo!**</text>
</g>
<!-- Sequence*&#45;&gt;MoveTo!** -->
<g id="edge13" class="edge">
<title>Sequence*&#45;&gt;MoveTo!**</title>
<path fill="none" stroke="black" d="M621.75,-215.7C621.75,-207.98 621.75,-198.71 621.75,-190.11"/>
<polygon fill="black" stroke="black" points="625.25,-190.1 621.75,-180.1 618.25,-190.1 625.25,-190.1"/>
</g>
<!-- Fallback* -->
<g id="node15" class="node">
<title>Fallback*</title>
<polygon fill="cyan" stroke="black" points="737.5,-154.54 737.5,-169.46 718.9,-180 692.61,-180 674.01,-169.46 674.01,-154.54 692.61,-144 718.9,-144 737.5,-154.54"/>
<text text-anchor="middle" x="705.75" y="-159.8" font-family="Times,serif" font-size="9.00">Fallback*</text>
</g>
<!-- Sequence*&#45;&gt;Fallback* -->
<g id="edge14" class="edge">
<title>Sequence*&#45;&gt;Fallback*</title>
<path fill="none" stroke="black" d="M639.98,-217.81C651.81,-207.95 667.39,-194.97 680.41,-184.12"/>
<polygon fill="black" stroke="black" points="682.7,-186.77 688.14,-177.68 678.22,-181.39 682.7,-186.77"/>
</g>
<!-- CompLkGraph! -->
<g id="node22" class="node">
<title>CompLkGraph!</title>
<ellipse fill="gray" stroke="black" cx="798.75" cy="-162" rx="42.95" ry="18"/>
<text text-anchor="middle" x="798.75" y="-159.8" font-family="Times,serif" font-size="9.00">CompLkGraph!</text>
</g>
<!-- Sequence*&#45;&gt;CompLkGraph! -->
<g id="edge21" class="edge">
<title>Sequence*&#45;&gt;CompLkGraph!</title>
<path fill="none" stroke="black" d="M648.64,-222.37C678.04,-210.74 725.44,-191.99 759.11,-178.68"/>
<polygon fill="black" stroke="black" points="760.64,-181.84 768.65,-174.91 758.06,-175.33 760.64,-181.84"/>
</g>
<!-- LkClose?**** -->
<g id="node16" class="node">
<title>LkClose?****</title>
<ellipse fill="gray" stroke="black" cx="357.75" cy="-90" rx="39.02" ry="18"/>
<text text-anchor="middle" x="357.75" y="-87.8" font-family="Times,serif" font-size="9.00">LkClose?****</text>
</g>
<!-- Fallback*&#45;&gt;LkClose?**** -->
<g id="edge15" class="edge">
<title>Fallback*&#45;&gt;LkClose?****</title>
<path fill="none" stroke="black" d="M681.83,-149.89C676.31,-147.66 670.41,-145.54 664.75,-144 552.61,-113.5 518.66,-135.54 405.75,-108 402.62,-107.24 399.4,-106.34 396.19,-105.38"/>
<polygon fill="black" stroke="black" points="397.25,-102.04 386.66,-102.3 395.1,-108.7 397.25,-102.04"/>
</g>
<!-- NotReadyForSG? -->
<g id="node17" class="node">
<title>NotReadyForSG?</title>
<ellipse fill="gray" stroke="black" cx="461.75" cy="-90" rx="46.53" ry="18"/>
<text text-anchor="middle" x="461.75" y="-87.8" font-family="Times,serif" font-size="9.00">NotReadyForSG?</text>
</g>
<!-- Fallback*&#45;&gt;NotReadyForSG? -->
<g id="edge16" class="edge">
<title>Fallback*&#45;&gt;NotReadyForSG?</title>
<path fill="none" stroke="black" d="M681.27,-150.13C675.88,-147.94 670.17,-145.78 664.75,-144 600.83,-123.06 582.63,-125.78 517.75,-108 514.16,-107.02 510.45,-105.96 506.73,-104.89"/>
<polygon fill="black" stroke="black" points="507.5,-101.47 496.92,-101.99 505.52,-108.18 507.5,-101.47"/>
</g>
<!-- LkGraph?** -->
<g id="node18" class="node">
<title>LkGraph?**</title>
<ellipse fill="gray" stroke="black" cx="562.75" cy="-90" rx="35.59" ry="18"/>
<text text-anchor="middle" x="562.75" y="-87.8" font-family="Times,serif" font-size="9.00">LkGraph?**</text>
</g>
<!-- Fallback*&#45;&gt;LkGraph?** -->
<g id="edge17" class="edge">
<title>Fallback*&#45;&gt;LkGraph?**</title>
<path fill="none" stroke="black" d="M682.46,-149.6C659.2,-138.21 623.2,-120.59 596.75,-107.64"/>
<polygon fill="black" stroke="black" points="598,-104.36 587.48,-103.1 594.92,-110.64 598,-104.36"/>
</g>
<!-- GetSubGoal!* -->
<g id="node19" class="node">
<title>GetSubGoal!*</title>
<ellipse fill="gray" stroke="black" cx="655.75" cy="-90" rx="39.02" ry="18"/>
<text text-anchor="middle" x="655.75" y="-87.8" font-family="Times,serif" font-size="9.00">GetSubGoal!*</text>
</g>
<!-- Fallback*&#45;&gt;GetSubGoal!* -->
<g id="edge18" class="edge">
<title>Fallback*&#45;&gt;GetSubGoal!*</title>
<path fill="none" stroke="black" d="M693.39,-143.7C687.43,-135.35 680.17,-125.18 673.62,-116.02"/>
<polygon fill="black" stroke="black" points="676.29,-113.73 667.63,-107.62 670.59,-117.79 676.29,-113.73"/>
</g>
<!-- GetSubGoal!** -->
<g id="node20" class="node">
<title>GetSubGoal!**</title>
<ellipse fill="gray" stroke="black" cx="754.75" cy="-90" rx="42.29" ry="18"/>
<text text-anchor="middle" x="754.75" y="-87.8" font-family="Times,serif" font-size="9.00">GetSubGoal!**</text>
</g>
<!-- Fallback*&#45;&gt;GetSubGoal!** -->
<g id="edge19" class="edge">
<title>Fallback*&#45;&gt;GetSubGoal!**</title>
<path fill="none" stroke="black" d="M717.87,-143.7C723.71,-135.35 730.83,-125.18 737.24,-116.02"/>
<polygon fill="black" stroke="black" points="740.25,-117.82 743.12,-107.62 734.52,-113.81 740.25,-117.82"/>
</g>
<!-- LkClose?***** -->
<g id="node21" class="node">
<title>LkClose?*****</title>
<ellipse fill="gray" stroke="black" cx="856.75" cy="-90" rx="42.29" ry="18"/>
<text text-anchor="middle" x="856.75" y="-87.8" font-family="Times,serif" font-size="9.00">LkClose?*****</text>
</g>
<!-- Fallback*&#45;&gt;LkClose?***** -->
<g id="edge20" class="edge">
<title>Fallback*&#45;&gt;LkClose?*****</title>
<path fill="none" stroke="black" d="M729.68,-149.91C754.04,-138.62 792.11,-120.97 820.24,-107.93"/>
<polygon fill="black" stroke="black" points="821.76,-111.08 829.36,-103.7 818.82,-104.73 821.76,-111.08"/>
</g>
<!-- Fallback** -->
<g id="node24" class="node">
<title>Fallback**</title>
<polygon fill="cyan" stroke="black" points="1022.75,-154.54 1022.75,-169.46 1002.25,-180 973.26,-180 952.76,-169.46 952.76,-154.54 973.26,-144 1002.25,-144 1022.75,-154.54"/>
<text text-anchor="middle" x="987.75" y="-159.8" font-family="Times,serif" font-size="9.00">Fallback**</text>
</g>
<!-- Sequence**&#45;&gt;Fallback** -->
<g id="edge23" class="edge">
<title>Sequence**&#45;&gt;Fallback**</title>
<path fill="none" stroke="black" d="M1021.63,-215.7C1016.4,-207.56 1010.05,-197.69 1004.28,-188.7"/>
<polygon fill="black" stroke="black" points="1007.1,-186.62 998.75,-180.1 1001.21,-190.41 1007.1,-186.62"/>
</g>
<!-- MoveTo!*** -->
<g id="node28" class="node">
<title>MoveTo!***</title>
<ellipse fill="gray" stroke="black" cx="1077.75" cy="-162" rx="36.9" ry="18"/>
<text text-anchor="middle" x="1077.75" y="-159.8" font-family="Times,serif" font-size="9.00">MoveTo!***</text>
</g>
<!-- Sequence**&#45;&gt;MoveTo!*** -->
<g id="edge27" class="edge">
<title>Sequence**&#45;&gt;MoveTo!***</title>
<path fill="none" stroke="black" d="M1043.88,-215.7C1049.19,-207.44 1055.64,-197.39 1061.49,-188.3"/>
<polygon fill="black" stroke="black" points="1064.61,-189.93 1067.07,-179.62 1058.72,-186.14 1064.61,-189.93"/>
</g>
<!-- MoveTo!**** -->
<g id="node29" class="node">
<title>MoveTo!****</title>
<ellipse fill="gray" stroke="black" cx="1171.75" cy="-162" rx="39.02" ry="18"/>
<text text-anchor="middle" x="1171.75" y="-159.8" font-family="Times,serif" font-size="9.00">MoveTo!****</text>
</g>
<!-- Sequence**&#45;&gt;MoveTo!**** -->
<g id="edge28" class="edge">
<title>Sequence**&#45;&gt;MoveTo!****</title>
<path fill="none" stroke="black" d="M1057.6,-220.49C1079.76,-209.33 1112.42,-192.88 1137.13,-180.43"/>
<polygon fill="black" stroke="black" points="1138.82,-183.5 1146.18,-175.88 1135.67,-177.25 1138.82,-183.5"/>
</g>
<!-- NotReadyForSG?* -->
<g id="node25" class="node">
<title>NotReadyForSG?*</title>
<ellipse fill="gray" stroke="black" cx="966.75" cy="-90" rx="49.8" ry="18"/>
<text text-anchor="middle" x="966.75" y="-87.8" font-family="Times,serif" font-size="9.00">NotReadyForSG?*</text>
</g>
<!-- Fallback**&#45;&gt;NotReadyForSG?* -->
<g id="edge24" class="edge">
<title>Fallback**&#45;&gt;NotReadyForSG?*</title>
<path fill="none" stroke="black" d="M982.56,-143.7C980.22,-135.9 977.41,-126.51 974.8,-117.83"/>
<polygon fill="black" stroke="black" points="978.11,-116.68 971.89,-108.1 971.41,-118.69 978.11,-116.68"/>
</g>
<!-- GetSubGoal!*** -->
<g id="node26" class="node">
<title>GetSubGoal!***</title>
<ellipse fill="gray" stroke="black" cx="1078.75" cy="-90" rx="44.41" ry="18"/>
<text text-anchor="middle" x="1078.75" y="-87.8" font-family="Times,serif" font-size="9.00">GetSubGoal!***</text>
</g>
<!-- Fallback**&#45;&gt;GetSubGoal!*** -->
<g id="edge25" class="edge">
<title>Fallback**&#45;&gt;GetSubGoal!***</title>
<path fill="none" stroke="black" d="M1007.05,-146.15C1019.79,-136.36 1036.68,-123.37 1050.86,-112.45"/>
<polygon fill="black" stroke="black" points="1053.06,-115.18 1058.85,-106.31 1048.79,-109.63 1053.06,-115.18"/>
</g>
<!-- LkGraph?*** -->
<g id="node27" class="node">
<title>LkGraph?***</title>
<ellipse fill="gray" stroke="black" cx="1179.75" cy="-90" rx="38.21" ry="18"/>
<text text-anchor="middle" x="1179.75" y="-87.8" font-family="Times,serif" font-size="9.00">LkGraph?***</text>
</g>
<!-- Fallback**&#45;&gt;LkGraph?*** -->
<g id="edge26" class="edge">
<title>Fallback**&#45;&gt;LkGraph?***</title>
<path fill="none" stroke="black" d="M1015.18,-150.28C1020.66,-148.18 1026.38,-146 1031.75,-144 1051.98,-136.47 1103.69,-118.02 1140.27,-105.02"/>
<polygon fill="black" stroke="black" points="1141.9,-108.15 1150.15,-101.5 1139.55,-101.56 1141.9,-108.15"/>
</g>
<!-- ReachGoal?* -->
<g id="node31" class="node">
<title>ReachGoal?*</title>
<ellipse fill="gray" stroke="black" cx="1285.75" cy="-162" rx="36.9" ry="18"/>
<text text-anchor="middle" x="1285.75" y="-159.8" font-family="Times,serif" font-size="9.00">ReachGoal?*</text>
</g>
<!-- Sequence***&#45;&gt;ReachGoal?* -->
<g id="edge30" class="edge">
<title>Sequence***&#45;&gt;ReachGoal?*</title>
<path fill="none" stroke="black" d="M1320.38,-215.7C1314.9,-207.35 1308.22,-197.18 1302.19,-188.02"/>
<polygon fill="black" stroke="black" points="1305.09,-186.06 1296.68,-179.62 1299.24,-189.9 1305.09,-186.06"/>
</g>
<!-- Fallback*** -->
<g id="node32" class="node">
<title>Fallback***</title>
<polygon fill="cyan" stroke="black" points="1415.24,-154.54 1415.24,-169.46 1393.28,-180 1362.23,-180 1340.26,-169.46 1340.26,-154.54 1362.23,-144 1393.28,-144 1415.24,-154.54"/>
<text text-anchor="middle" x="1377.75" y="-159.8" font-family="Times,serif" font-size="9.00">Fallback***</text>
</g>
<!-- Sequence***&#45;&gt;Fallback*** -->
<g id="edge31" class="edge">
<title>Sequence***&#45;&gt;Fallback***</title>
<path fill="none" stroke="black" d="M1343.13,-215.7C1348.47,-207.56 1354.96,-197.69 1360.86,-188.7"/>
<polygon fill="black" stroke="black" points="1363.95,-190.38 1366.51,-180.1 1358.1,-186.54 1363.95,-190.38"/>
</g>
<!-- CompLkGraph!** -->
<g id="node39" class="node">
<title>CompLkGraph!**</title>
<ellipse fill="gray" stroke="black" cx="1480.75" cy="-162" rx="47.84" ry="18"/>
<text text-anchor="middle" x="1480.75" y="-159.8" font-family="Times,serif" font-size="9.00">CompLkGraph!**</text>
</g>
<!-- Sequence***&#45;&gt;CompLkGraph!** -->
<g id="edge38" class="edge">
<title>Sequence***&#45;&gt;CompLkGraph!**</title>
<path fill="none" stroke="black" d="M1358.39,-220.49C1381.88,-209.45 1416.36,-193.25 1442.74,-180.86"/>
<polygon fill="black" stroke="black" points="1444.5,-183.9 1452.06,-176.48 1441.52,-177.56 1444.5,-183.9"/>
</g>
<!-- LkGraph?**** -->
<g id="node33" class="node">
<title>LkGraph?****</title>
<ellipse fill="gray" stroke="black" cx="1276.75" cy="-90" rx="40.98" ry="18"/>
<text text-anchor="middle" x="1276.75" y="-87.8" font-family="Times,serif" font-size="9.00">LkGraph?****</text>
</g>
<!-- Fallback***&#45;&gt;LkGraph?**** -->
<g id="edge32" class="edge">
<title>Fallback***&#45;&gt;LkGraph?****</title>
<path fill="none" stroke="black" d="M1356.83,-146.5C1342.2,-136.36 1322.47,-122.68 1306.25,-111.44"/>
<polygon fill="black" stroke="black" points="1307.87,-108.31 1297.65,-105.49 1303.88,-114.06 1307.87,-108.31"/>
</g>
<!-- Sequence**** -->
<g id="node34" class="node">
<title>Sequence****</title>
<polygon fill="cyan" stroke="black" points="1420.24,-82.54 1420.24,-97.46 1395.35,-108 1360.15,-108 1335.27,-97.46 1335.27,-82.54 1360.15,-72 1395.35,-72 1420.24,-82.54"/>
<text text-anchor="middle" x="1377.75" y="-87.8" font-family="Times,serif" font-size="9.00">Sequence****</text>
</g>
<!-- Fallback***&#45;&gt;Sequence**** -->
<g id="edge33" class="edge">
<title>Fallback***&#45;&gt;Sequence****</title>
<path fill="none" stroke="black" d="M1377.75,-143.7C1377.75,-135.98 1377.75,-126.71 1377.75,-118.11"/>
<polygon fill="black" stroke="black" points="1381.25,-118.1 1377.75,-108.1 1374.25,-118.1 1381.25,-118.1"/>
</g>
<!-- LkClose?****** -->
<g id="node37" class="node">
<title>LkClose?******</title>
<ellipse fill="gray" stroke="black" cx="1482.75" cy="-90" rx="44.41" ry="18"/>
<text text-anchor="middle" x="1482.75" y="-87.8" font-family="Times,serif" font-size="9.00">LkClose?******</text>
</g>
<!-- Fallback***&#45;&gt;LkClose?****** -->
<g id="edge36" class="edge">
<title>Fallback***&#45;&gt;LkClose?******</title>
<path fill="none" stroke="black" d="M1399.26,-146.67C1414.48,-136.52 1435.13,-122.75 1452.08,-111.45"/>
<polygon fill="black" stroke="black" points="1454.18,-114.26 1460.56,-105.8 1450.3,-108.43 1454.18,-114.26"/>
</g>
<!-- CompLkGraph!* -->
<g id="node38" class="node">
<title>CompLkGraph!*</title>
<ellipse fill="gray" stroke="black" cx="1589.75" cy="-90" rx="45.07" ry="18"/>
<text text-anchor="middle" x="1589.75" y="-87.8" font-family="Times,serif" font-size="9.00">CompLkGraph!*</text>
</g>
<!-- Fallback***&#45;&gt;CompLkGraph!* -->
<g id="edge37" class="edge">
<title>Fallback***&#45;&gt;CompLkGraph!*</title>
<path fill="none" stroke="black" d="M1406.39,-150.19C1412.13,-148.09 1418.12,-145.94 1423.75,-144 1435.55,-139.94 1501.02,-119.12 1546.13,-104.82"/>
<polygon fill="black" stroke="black" points="1547.23,-108.14 1555.7,-101.78 1545.11,-101.47 1547.23,-108.14"/>
</g>
<!-- GetLk! -->
<g id="node35" class="node">
<title>GetLk!</title>
<ellipse fill="gray" stroke="black" cx="1328.75" cy="-18" rx="27" ry="18"/>
<text text-anchor="middle" x="1328.75" y="-15.8" font-family="Times,serif" font-size="9.00">GetLk!</text>
</g>
<!-- Sequence****&#45;&gt;GetLk! -->
<g id="edge34" class="edge">
<title>Sequence****&#45;&gt;GetLk!</title>
<path fill="none" stroke="black" d="M1365.64,-71.7C1359.57,-63.02 1352.11,-52.37 1345.5,-42.92"/>
<polygon fill="black" stroke="black" points="1348.33,-40.86 1339.72,-34.67 1342.59,-44.87 1348.33,-40.86"/>
</g>
<!-- NotReadyForSG?** -->
<g id="node36" class="node">
<title>NotReadyForSG?**</title>
<ellipse fill="gray" stroke="black" cx="1425.75" cy="-18" rx="51.92" ry="18"/>
<text text-anchor="middle" x="1425.75" y="-15.8" font-family="Times,serif" font-size="9.00">NotReadyForSG?**</text>
</g>
<!-- Sequence****&#45;&gt;NotReadyForSG?** -->
<g id="edge35" class="edge">
<title>Sequence****&#45;&gt;NotReadyForSG?**</title>
<path fill="none" stroke="black" d="M1389.62,-71.7C1395.34,-63.35 1402.31,-53.18 1408.6,-44.02"/>
<polygon fill="black" stroke="black" points="1411.59,-45.85 1414.36,-35.62 1405.81,-41.89 1411.59,-45.85"/>
</g>
</g>
</svg>
