<?xml version="1.0" encoding="UTF-8" standalone="no"?>
<!DOCTYPE svg PUBLIC "-//W3C//DTD SVG 1.1//EN"
 "http://www.w3.org/Graphics/SVG/1.1/DTD/svg11.dtd">
<!-- Generated by graphviz version 2.43.0 (0)
 -->
<!-- Title: pastafarianism Pages: 1 -->
<svg width="1653pt" height="188pt"
 viewBox="0.00 0.00 1652.90 188.00" xmlns="http://www.w3.org/2000/svg" xmlns:xlink="http://www.w3.org/1999/xlink">
<g id="graph0" class="graph" transform="scale(1 1) rotate(0) translate(4 184)">
<title>pastafarianism</title>
<polygon fill="white" stroke="transparent" points="-4,4 -4,-184 1648.9,-184 1648.9,4 -4,4"/>
<!-- Fallback -->
<g id="node1" class="node">
<title>Fallback</title>
<polygon fill="cyan" stroke="black" points="1319.11,-154.54 1319.11,-169.46 1301.98,-180 1277.75,-180 1260.62,-169.46 1260.62,-154.54 1277.75,-144 1301.98,-144 1319.11,-154.54"/>
<text text-anchor="middle" x="1289.87" y="-159.8" font-family="Times,serif" font-size="9.00">Fallback</text>
</g>
<!-- Sequence -->
<g id="node2" class="node">
<title>Sequence</title>
<polygon fill="cyan" stroke="black" points="411.36,-82.54 411.36,-97.46 392.91,-108 366.82,-108 348.37,-97.46 348.37,-82.54 366.82,-72 392.91,-72 411.36,-82.54"/>
<text text-anchor="middle" x="379.87" y="-87.8" font-family="Times,serif" font-size="9.00">Sequence</text>
</g>
<!-- Fallback&#45;&gt;Sequence -->
<g id="edge1" class="edge">
<title>Fallback&#45;&gt;Sequence</title>
<path fill="none" stroke="black" d="M1260.62,-158.75C1127.39,-148.5 577.7,-106.22 421.46,-94.2"/>
<polygon fill="black" stroke="black" points="421.56,-90.7 411.32,-93.42 421.03,-97.68 421.56,-90.7"/>
</g>
<!-- Sequence* -->
<g id="node12" class="node">
<title>Sequence*</title>
<polygon fill="cyan" stroke="black" points="1092.11,-82.54 1092.11,-97.46 1072.05,-108 1043.68,-108 1023.63,-97.46 1023.63,-82.54 1043.68,-72 1072.05,-72 1092.11,-82.54"/>
<text text-anchor="middle" x="1057.87" y="-87.8" font-family="Times,serif" font-size="9.00">Sequence*</text>
</g>
<!-- Fallback&#45;&gt;Sequence* -->
<g id="edge11" class="edge">
<title>Fallback&#45;&gt;Sequence*</title>
<path fill="none" stroke="black" d="M1262.8,-152.83C1222.04,-140.54 1144.68,-117.19 1097.54,-102.97"/>
<polygon fill="black" stroke="black" points="1098.27,-99.53 1087.68,-100 1096.25,-106.24 1098.27,-99.53"/>
</g>
<!-- LkClose?** -->
<g id="node19" class="node">
<title>LkClose?**</title>
<ellipse fill="gray" stroke="black" cx="1200.87" cy="-90" rx="34.13" ry="18"/>
<text text-anchor="middle" x="1200.87" y="-87.8" font-family="Times,serif" font-size="9.00">LkClose?**</text>
</g>
<!-- Fallback&#45;&gt;LkClose?** -->
<g id="edge18" class="edge">
<title>Fallback&#45;&gt;LkClose?**</title>
<path fill="none" stroke="black" d="M1272.28,-147.17C1259.41,-137.04 1241.72,-123.13 1227.17,-111.69"/>
<polygon fill="black" stroke="black" points="1229.05,-108.71 1219.03,-105.28 1224.72,-114.21 1229.05,-108.71"/>
</g>
<!-- Sequence** -->
<g id="node20" class="node">
<title>Sequence**</title>
<polygon fill="cyan" stroke="black" points="1326.61,-82.54 1326.61,-97.46 1305.09,-108 1274.65,-108 1253.13,-97.46 1253.13,-82.54 1274.65,-72 1305.09,-72 1326.61,-82.54"/>
<text text-anchor="middle" x="1289.87" y="-87.8" font-family="Times,serif" font-size="9.00">Sequence**</text>
</g>
<!-- Fallback&#45;&gt;Sequence** -->
<g id="edge19" class="edge">
<title>Fallback&#45;&gt;Sequence**</title>
<path fill="none" stroke="black" d="M1289.87,-143.7C1289.87,-135.98 1289.87,-126.71 1289.87,-118.11"/>
<polygon fill="black" stroke="black" points="1293.37,-118.1 1289.87,-108.1 1286.37,-118.1 1293.37,-118.1"/>
</g>
<!-- LkClose?*** -->
<g id="node23" class="node">
<title>LkClose?***</title>
<ellipse fill="gray" stroke="black" cx="1381.87" cy="-90" rx="36.9" ry="18"/>
<text text-anchor="middle" x="1381.87" y="-87.8" font-family="Times,serif" font-size="9.00">LkClose?***</text>
</g>
<!-- Fallback&#45;&gt;LkClose?*** -->
<g id="edge22" class="edge">
<title>Fallback&#45;&gt;LkClose?***</title>
<path fill="none" stroke="black" d="M1308.04,-147.17C1321.39,-137.02 1339.73,-123.06 1354.8,-111.6"/>
<polygon fill="black" stroke="black" points="1356.94,-114.36 1362.78,-105.52 1352.7,-108.79 1356.94,-114.36"/>
</g>
<!-- MoveTo!******** -->
<g id="node24" class="node">
<title>MoveTo!********</title>
<ellipse fill="gray" stroke="black" cx="1486.87" cy="-90" rx="49.8" ry="18"/>
<text text-anchor="middle" x="1486.87" y="-87.8" font-family="Times,serif" font-size="9.00">MoveTo!********</text>
</g>
<!-- Fallback&#45;&gt;MoveTo!******** -->
<g id="edge23" class="edge">
<title>Fallback&#45;&gt;MoveTo!********</title>
<path fill="none" stroke="black" d="M1315.22,-151.99C1347.5,-140.52 1403.81,-120.51 1443.09,-106.55"/>
<polygon fill="black" stroke="black" points="1444.44,-109.79 1452.69,-103.14 1442.1,-103.19 1444.44,-109.79"/>
</g>
<!-- CompLkGraph!* -->
<g id="node25" class="node">
<title>CompLkGraph!*</title>
<ellipse fill="gray" stroke="black" cx="1599.87" cy="-90" rx="45.07" ry="18"/>
<text text-anchor="middle" x="1599.87" y="-87.8" font-family="Times,serif" font-size="9.00">CompLkGraph!*</text>
</g>
<!-- Fallback&#45;&gt;CompLkGraph!* -->
<g id="edge24" class="edge">
<title>Fallback&#45;&gt;CompLkGraph!*</title>
<path fill="none" stroke="black" d="M1319.27,-155.91C1367.1,-147.41 1464.61,-129.15 1545.87,-108 1549.4,-107.08 1553.05,-106.07 1556.71,-105.01"/>
<polygon fill="black" stroke="black" points="1557.74,-108.36 1566.32,-102.14 1555.73,-101.65 1557.74,-108.36"/>
</g>
<!-- MoveTo! -->
<g id="node3" class="node">
<title>MoveTo!</title>
<ellipse fill="gray" stroke="black" cx="28.87" cy="-18" rx="28.74" ry="18"/>
<text text-anchor="middle" x="28.87" y="-15.8" font-family="Times,serif" font-size="9.00">MoveTo!</text>
</g>
<!-- Sequence&#45;&gt;MoveTo! -->
<g id="edge2" class="edge">
<title>Sequence&#45;&gt;MoveTo!</title>
<path fill="none" stroke="black" d="M348.62,-86.35C291.61,-80.93 167.35,-66.44 66.87,-36 64.59,-35.31 62.27,-34.52 59.96,-33.66"/>
<polygon fill="black" stroke="black" points="61.19,-30.38 50.61,-29.86 58.55,-36.87 61.19,-30.38"/>
</g>
<!-- LkClose? -->
<g id="node4" class="node">
<title>LkClose?</title>
<ellipse fill="gray" stroke="black" cx="104.87" cy="-18" rx="28.74" ry="18"/>
<text text-anchor="middle" x="104.87" y="-15.8" font-family="Times,serif" font-size="9.00">LkClose?</text>
</g>
<!-- Sequence&#45;&gt;LkClose? -->
<g id="edge3" class="edge">
<title>Sequence&#45;&gt;LkClose?</title>
<path fill="none" stroke="black" d="M348.27,-84.01C302.32,-76.3 214.7,-59.83 142.87,-36 140.75,-35.3 138.59,-34.52 136.43,-33.69"/>
<polygon fill="black" stroke="black" points="137.66,-30.41 127.08,-29.83 134.99,-36.88 137.66,-30.41"/>
</g>
<!-- MoveTo!* -->
<g id="node5" class="node">
<title>MoveTo!*</title>
<ellipse fill="gray" stroke="black" cx="183.87" cy="-18" rx="31.51" ry="18"/>
<text text-anchor="middle" x="183.87" y="-15.8" font-family="Times,serif" font-size="9.00">MoveTo!*</text>
</g>
<!-- Sequence&#45;&gt;MoveTo!* -->
<g id="edge4" class="edge">
<title>Sequence&#45;&gt;MoveTo!*</title>
<path fill="none" stroke="black" d="M352.24,-80.14C321.09,-70.02 269.03,-52.69 224.87,-36 222.62,-35.15 220.31,-34.25 217.98,-33.34"/>
<polygon fill="black" stroke="black" points="219.07,-30 208.48,-29.5 216.45,-36.49 219.07,-30"/>
</g>
<!-- GetLk! -->
<g id="node6" class="node">
<title>GetLk!</title>
<ellipse fill="gray" stroke="black" cx="260.87" cy="-18" rx="27" ry="18"/>
<text text-anchor="middle" x="260.87" y="-15.8" font-family="Times,serif" font-size="9.00">GetLk!</text>
</g>
<!-- Sequence&#45;&gt;GetLk! -->
<g id="edge5" class="edge">
<title>Sequence&#45;&gt;GetLk!</title>
<path fill="none" stroke="black" d="M358.59,-76.49C339.17,-65.06 310.33,-48.1 289.01,-35.55"/>
<polygon fill="black" stroke="black" points="290.77,-32.53 280.38,-30.48 287.23,-38.57 290.77,-32.53"/>
</g>
<!-- ReachGoal? -->
<g id="node7" class="node">
<title>ReachGoal?</title>
<ellipse fill="gray" stroke="black" cx="339.87" cy="-18" rx="34.13" ry="18"/>
<text text-anchor="middle" x="339.87" y="-15.8" font-family="Times,serif" font-size="9.00">ReachGoal?</text>
</g>
<!-- Sequence&#45;&gt;ReachGoal? -->
<g id="edge6" class="edge">
<title>Sequence&#45;&gt;ReachGoal?</title>
<path fill="none" stroke="black" d="M369.98,-71.7C365.31,-63.52 359.64,-53.6 354.49,-44.58"/>
<polygon fill="black" stroke="black" points="357.37,-42.57 349.37,-35.62 351.29,-46.04 357.37,-42.57"/>
</g>
<!-- GetLk!* -->
<g id="node8" class="node">
<title>GetLk!*</title>
<ellipse fill="gray" stroke="black" cx="418.87" cy="-18" rx="27.27" ry="18"/>
<text text-anchor="middle" x="418.87" y="-15.8" font-family="Times,serif" font-size="9.00">GetLk!*</text>
</g>
<!-- Sequence&#45;&gt;GetLk!* -->
<g id="edge7" class="edge">
<title>Sequence&#45;&gt;GetLk!*</title>
<path fill="none" stroke="black" d="M389.51,-71.7C394.18,-63.32 399.87,-53.1 405,-43.9"/>
<polygon fill="black" stroke="black" points="408.06,-45.58 409.87,-35.14 401.95,-42.18 408.06,-45.58"/>
</g>
<!-- MoveTo!** -->
<g id="node9" class="node">
<title>MoveTo!**</title>
<ellipse fill="gray" stroke="black" cx="497.87" cy="-18" rx="34.13" ry="18"/>
<text text-anchor="middle" x="497.87" y="-15.8" font-family="Times,serif" font-size="9.00">MoveTo!**</text>
</g>
<!-- Sequence&#45;&gt;MoveTo!** -->
<g id="edge8" class="edge">
<title>Sequence&#45;&gt;MoveTo!**</title>
<path fill="none" stroke="black" d="M400.96,-76.49C419.44,-65.52 446.52,-49.46 467.36,-37.1"/>
<polygon fill="black" stroke="black" points="469.34,-39.99 476.16,-31.88 465.77,-33.97 469.34,-39.99"/>
</g>
<!-- MoveTo!*** -->
<g id="node10" class="node">
<title>MoveTo!***</title>
<ellipse fill="gray" stroke="black" cx="586.87" cy="-18" rx="36.9" ry="18"/>
<text text-anchor="middle" x="586.87" y="-15.8" font-family="Times,serif" font-size="9.00">MoveTo!***</text>
</g>
<!-- Sequence&#45;&gt;MoveTo!*** -->
<g id="edge9" class="edge">
<title>Sequence&#45;&gt;MoveTo!***</title>
<path fill="none" stroke="black" d="M407.6,-80.2C439.77,-69.93 494.33,-52.25 540.87,-36 543.42,-35.11 546.04,-34.18 548.68,-33.23"/>
<polygon fill="black" stroke="black" points="550.01,-36.47 558.22,-29.77 547.62,-29.89 550.01,-36.47"/>
</g>
<!-- LkClose?* -->
<g id="node11" class="node">
<title>LkClose?*</title>
<ellipse fill="gray" stroke="black" cx="673.87" cy="-18" rx="31.51" ry="18"/>
<text text-anchor="middle" x="673.87" y="-15.8" font-family="Times,serif" font-size="9.00">LkClose?*</text>
</g>
<!-- Sequence&#45;&gt;LkClose?* -->
<g id="edge10" class="edge">
<title>Sequence&#45;&gt;LkClose?*</title>
<path fill="none" stroke="black" d="M411.51,-84.32C459.88,-76.73 554.83,-60.12 632.87,-36 635.32,-35.24 637.82,-34.4 640.32,-33.5"/>
<polygon fill="black" stroke="black" points="641.78,-36.68 649.86,-29.83 639.27,-30.15 641.78,-36.68"/>
</g>
<!-- GetSubGoal! -->
<g id="node13" class="node">
<title>GetSubGoal!</title>
<ellipse fill="gray" stroke="black" cx="760.87" cy="-18" rx="36.9" ry="18"/>
<text text-anchor="middle" x="760.87" y="-15.8" font-family="Times,serif" font-size="9.00">GetSubGoal!</text>
</g>
<!-- Sequence*&#45;&gt;GetSubGoal! -->
<g id="edge12" class="edge">
<title>Sequence*&#45;&gt;GetSubGoal!</title>
<path fill="none" stroke="black" d="M1023.37,-83.36C974.63,-75.02 883.03,-57.99 806.87,-36 804.11,-35.2 801.27,-34.32 798.44,-33.39"/>
<polygon fill="black" stroke="black" points="799.47,-30.04 788.87,-30.09 797.18,-36.66 799.47,-30.04"/>
</g>
<!-- CompLkGraph! -->
<g id="node14" class="node">
<title>CompLkGraph!</title>
<ellipse fill="gray" stroke="black" cx="858.87" cy="-18" rx="42.95" ry="18"/>
<text text-anchor="middle" x="858.87" y="-15.8" font-family="Times,serif" font-size="9.00">CompLkGraph!</text>
</g>
<!-- Sequence*&#45;&gt;CompLkGraph! -->
<g id="edge13" class="edge">
<title>Sequence*&#45;&gt;CompLkGraph!</title>
<path fill="none" stroke="black" d="M1029.78,-79.12C996,-67.24 939.01,-47.19 900.21,-33.54"/>
<polygon fill="black" stroke="black" points="901.36,-30.24 890.76,-30.22 899.03,-36.84 901.36,-30.24"/>
</g>
<!-- MoveTo!**** -->
<g id="node15" class="node">
<title>MoveTo!****</title>
<ellipse fill="gray" stroke="black" cx="958.87" cy="-18" rx="39.02" ry="18"/>
<text text-anchor="middle" x="958.87" y="-15.8" font-family="Times,serif" font-size="9.00">MoveTo!****</text>
</g>
<!-- Sequence*&#45;&gt;MoveTo!**** -->
<g id="edge14" class="edge">
<title>Sequence*&#45;&gt;MoveTo!****</title>
<path fill="none" stroke="black" d="M1037.83,-74.83C1023.53,-64.72 1004.07,-50.96 988.05,-39.63"/>
<polygon fill="black" stroke="black" points="989.74,-36.54 979.55,-33.63 985.7,-42.26 989.74,-36.54"/>
</g>
<!-- MoveTo!***** -->
<g id="node16" class="node">
<title>MoveTo!*****</title>
<ellipse fill="gray" stroke="black" cx="1057.87" cy="-18" rx="42.29" ry="18"/>
<text text-anchor="middle" x="1057.87" y="-15.8" font-family="Times,serif" font-size="9.00">MoveTo!*****</text>
</g>
<!-- Sequence*&#45;&gt;MoveTo!***** -->
<g id="edge15" class="edge">
<title>Sequence*&#45;&gt;MoveTo!*****</title>
<path fill="none" stroke="black" d="M1057.87,-71.7C1057.87,-63.98 1057.87,-54.71 1057.87,-46.11"/>
<polygon fill="black" stroke="black" points="1061.37,-46.1 1057.87,-36.1 1054.37,-46.1 1061.37,-46.1"/>
</g>
<!-- MoveTo!****** -->
<g id="node17" class="node">
<title>MoveTo!******</title>
<ellipse fill="gray" stroke="black" cx="1162.87" cy="-18" rx="44.41" ry="18"/>
<text text-anchor="middle" x="1162.87" y="-15.8" font-family="Times,serif" font-size="9.00">MoveTo!******</text>
</g>
<!-- Sequence*&#45;&gt;MoveTo!****** -->
<g id="edge16" class="edge">
<title>Sequence*&#45;&gt;MoveTo!******</title>
<path fill="none" stroke="black" d="M1078.61,-75.17C1093.88,-64.99 1114.89,-50.99 1132.11,-39.51"/>
<polygon fill="black" stroke="black" points="1134.34,-42.23 1140.72,-33.77 1130.45,-36.4 1134.34,-42.23"/>
</g>
<!-- ReachGoal?* -->
<g id="node18" class="node">
<title>ReachGoal?*</title>
<ellipse fill="gray" stroke="black" cx="1261.87" cy="-18" rx="36.9" ry="18"/>
<text text-anchor="middle" x="1261.87" y="-15.8" font-family="Times,serif" font-size="9.00">ReachGoal?*</text>
</g>
<!-- Sequence*&#45;&gt;ReachGoal?* -->
<g id="edge17" class="edge">
<title>Sequence*&#45;&gt;ReachGoal?*</title>
<path fill="none" stroke="black" d="M1086.79,-79.59C1118.54,-69.19 1170.98,-51.82 1215.87,-36 1218.41,-35.1 1221.04,-34.17 1223.68,-33.21"/>
<polygon fill="black" stroke="black" points="1225.01,-36.45 1233.21,-29.74 1222.61,-29.88 1225.01,-36.45"/>
</g>
<!-- LkGraph? -->
<g id="node21" class="node">
<title>LkGraph?</title>
<ellipse fill="gray" stroke="black" cx="1347.87" cy="-18" rx="30.7" ry="18"/>
<text text-anchor="middle" x="1347.87" y="-15.8" font-family="Times,serif" font-size="9.00">LkGraph?</text>
</g>
<!-- Sequence**&#45;&gt;LkGraph? -->
<g id="edge20" class="edge">
<title>Sequence**&#45;&gt;LkGraph?</title>
<path fill="none" stroke="black" d="M1304.2,-71.7C1311.47,-62.93 1320.4,-52.15 1328.29,-42.63"/>
<polygon fill="black" stroke="black" points="1331.2,-44.6 1334.88,-34.67 1325.81,-40.14 1331.2,-44.6"/>
</g>
<!-- MoveTo!******* -->
<g id="node22" class="node">
<title>MoveTo!*******</title>
<ellipse fill="gray" stroke="black" cx="1443.87" cy="-18" rx="47.19" ry="18"/>
<text text-anchor="middle" x="1443.87" y="-15.8" font-family="Times,serif" font-size="9.00">MoveTo!*******</text>
</g>
<!-- Sequence**&#45;&gt;MoveTo!******* -->
<g id="edge21" class="edge">
<title>Sequence**&#45;&gt;MoveTo!*******</title>
<path fill="none" stroke="black" d="M1315.99,-77.13C1340.48,-65.99 1377.39,-49.22 1405.27,-36.54"/>
<polygon fill="black" stroke="black" points="1407.07,-39.57 1414.72,-32.25 1404.17,-33.2 1407.07,-39.57"/>
</g>
</g>
</svg>
