<?xml version="1.0" encoding="UTF-8" standalone="no"?>
<!DOCTYPE svg PUBLIC "-//W3C//DTD SVG 1.1//EN"
 "http://www.w3.org/Graphics/SVG/1.1/DTD/svg11.dtd">
<!-- Generated by graphviz version 2.43.0 (0)
 -->
<!-- Title: pastafarianism Pages: 1 -->
<svg width="1817pt" height="188pt"
 viewBox="0.00 0.00 1816.60 188.00" xmlns="http://www.w3.org/2000/svg" xmlns:xlink="http://www.w3.org/1999/xlink">
<g id="graph0" class="graph" transform="scale(1 1) rotate(0) translate(4 184)">
<title>pastafarianism</title>
<polygon fill="white" stroke="transparent" points="-4,4 -4,-184 1812.6,-184 1812.6,4 -4,4"/>
<!-- Fallback -->
<g id="node1" class="node">
<title>Fallback</title>
<polygon fill="cyan" stroke="black" points="1458.11,-154.54 1458.11,-169.46 1440.98,-180 1416.75,-180 1399.62,-169.46 1399.62,-154.54 1416.75,-144 1440.98,-144 1458.11,-154.54"/>
<text text-anchor="middle" x="1428.87" y="-159.8" font-family="Times,serif" font-size="9.00">Fallback</text>
</g>
<!-- Sequence -->
<g id="node2" class="node">
<title>Sequence</title>
<polygon fill="cyan" stroke="black" points="529.36,-82.54 529.36,-97.46 510.91,-108 484.82,-108 466.37,-97.46 466.37,-82.54 484.82,-72 510.91,-72 529.36,-82.54"/>
<text text-anchor="middle" x="497.87" y="-87.8" font-family="Times,serif" font-size="9.00">Sequence</text>
</g>
<!-- Fallback&#45;&gt;Sequence -->
<g id="edge1" class="edge">
<title>Fallback&#45;&gt;Sequence</title>
<path fill="none" stroke="black" d="M1399.47,-158.79C1263.8,-148.59 698.16,-106.06 539.44,-94.13"/>
<polygon fill="black" stroke="black" points="539.39,-90.61 529.16,-93.35 538.87,-97.59 539.39,-90.61"/>
</g>
<!-- Sequence* -->
<g id="node15" class="node">
<title>Sequence*</title>
<polygon fill="cyan" stroke="black" points="1377.11,-82.54 1377.11,-97.46 1357.05,-108 1328.68,-108 1308.63,-97.46 1308.63,-82.54 1328.68,-72 1357.05,-72 1377.11,-82.54"/>
<text text-anchor="middle" x="1342.87" y="-87.8" font-family="Times,serif" font-size="9.00">Sequence*</text>
</g>
<!-- Fallback&#45;&gt;Sequence* -->
<g id="edge14" class="edge">
<title>Fallback&#45;&gt;Sequence*</title>
<path fill="none" stroke="black" d="M1411.46,-146.83C1399.35,-136.98 1382.98,-123.65 1369.27,-112.49"/>
<polygon fill="black" stroke="black" points="1371.1,-109.47 1361.14,-105.87 1366.68,-114.9 1371.1,-109.47"/>
</g>
<!-- LkClose?** -->
<g id="node23" class="node">
<title>LkClose?**</title>
<ellipse fill="gray" stroke="black" cx="1428.87" cy="-90" rx="34.13" ry="18"/>
<text text-anchor="middle" x="1428.87" y="-87.8" font-family="Times,serif" font-size="9.00">LkClose?**</text>
</g>
<!-- Fallback&#45;&gt;LkClose?** -->
<g id="edge22" class="edge">
<title>Fallback&#45;&gt;LkClose?**</title>
<path fill="none" stroke="black" d="M1428.87,-143.7C1428.87,-135.98 1428.87,-126.71 1428.87,-118.11"/>
<polygon fill="black" stroke="black" points="1432.37,-118.1 1428.87,-108.1 1425.37,-118.1 1432.37,-118.1"/>
</g>
<!-- MoveTo!************ -->
<g id="node24" class="node">
<title>MoveTo!************</title>
<ellipse fill="gray" stroke="black" cx="1540.87" cy="-90" rx="60.09" ry="18"/>
<text text-anchor="middle" x="1540.87" y="-87.8" font-family="Times,serif" font-size="9.00">MoveTo!************</text>
</g>
<!-- Fallback&#45;&gt;MoveTo!************ -->
<g id="edge23" class="edge">
<title>Fallback&#45;&gt;MoveTo!************</title>
<path fill="none" stroke="black" d="M1448.63,-148.65C1464.79,-138.55 1487.99,-124.05 1507.09,-112.11"/>
<polygon fill="black" stroke="black" points="1509.18,-114.93 1515.81,-106.66 1505.47,-109 1509.18,-114.93"/>
</g>
<!-- CompLkGraph! -->
<g id="node25" class="node">
<title>CompLkGraph!</title>
<ellipse fill="gray" stroke="black" cx="1661.87" cy="-90" rx="42.95" ry="18"/>
<text text-anchor="middle" x="1661.87" y="-87.8" font-family="Times,serif" font-size="9.00">CompLkGraph!</text>
</g>
<!-- Fallback&#45;&gt;CompLkGraph! -->
<g id="edge24" class="edge">
<title>Fallback&#45;&gt;CompLkGraph!</title>
<path fill="none" stroke="black" d="M1456.24,-153.27C1491.75,-143.18 1555.6,-124.81 1609.87,-108 1613.14,-106.99 1616.53,-105.92 1619.93,-104.84"/>
<polygon fill="black" stroke="black" points="1621.02,-108.16 1629.46,-101.77 1618.87,-101.5 1621.02,-108.16"/>
</g>
<!-- MoveTo! -->
<g id="node3" class="node">
<title>MoveTo!</title>
<ellipse fill="gray" stroke="black" cx="28.87" cy="-18" rx="28.74" ry="18"/>
<text text-anchor="middle" x="28.87" y="-15.8" font-family="Times,serif" font-size="9.00">MoveTo!</text>
</g>
<!-- Sequence&#45;&gt;MoveTo! -->
<g id="edge2" class="edge">
<title>Sequence&#45;&gt;MoveTo!</title>
<path fill="none" stroke="black" d="M466.41,-88.32C394.39,-86.09 212.49,-76.54 66.87,-36 64.58,-35.36 62.25,-34.61 59.93,-33.78"/>
<polygon fill="black" stroke="black" points="61.14,-30.49 50.56,-30.03 58.55,-36.99 61.14,-30.49"/>
</g>
<!-- LkClose? -->
<g id="node4" class="node">
<title>LkClose?</title>
<ellipse fill="gray" stroke="black" cx="104.87" cy="-18" rx="28.74" ry="18"/>
<text text-anchor="middle" x="104.87" y="-15.8" font-family="Times,serif" font-size="9.00">LkClose?</text>
</g>
<!-- Sequence&#45;&gt;LkClose? -->
<g id="edge3" class="edge">
<title>Sequence&#45;&gt;LkClose?</title>
<path fill="none" stroke="black" d="M466.39,-87.18C403.68,-82.94 259.2,-70.01 142.87,-36 140.58,-35.33 138.26,-34.56 135.94,-33.71"/>
<polygon fill="black" stroke="black" points="137.17,-30.43 126.59,-29.93 134.55,-36.92 137.17,-30.43"/>
</g>
<!-- MoveTo!* -->
<g id="node5" class="node">
<title>MoveTo!*</title>
<ellipse fill="gray" stroke="black" cx="183.87" cy="-18" rx="31.51" ry="18"/>
<text text-anchor="middle" x="183.87" y="-15.8" font-family="Times,serif" font-size="9.00">MoveTo!*</text>
</g>
<!-- Sequence&#45;&gt;MoveTo!* -->
<g id="edge4" class="edge">
<title>Sequence&#45;&gt;MoveTo!*</title>
<path fill="none" stroke="black" d="M466.25,-84.97C414.88,-77.96 310.4,-61.75 224.87,-36 222.41,-35.26 219.91,-34.43 217.4,-33.54"/>
<polygon fill="black" stroke="black" points="218.45,-30.19 207.86,-29.89 215.95,-36.73 218.45,-30.19"/>
</g>
<!-- GetLk! -->
<g id="node6" class="node">
<title>GetLk!</title>
<ellipse fill="gray" stroke="black" cx="260.87" cy="-18" rx="27" ry="18"/>
<text text-anchor="middle" x="260.87" y="-15.8" font-family="Times,serif" font-size="9.00">GetLk!</text>
</g>
<!-- Sequence&#45;&gt;GetLk! -->
<g id="edge5" class="edge">
<title>Sequence&#45;&gt;GetLk!</title>
<path fill="none" stroke="black" d="M466.33,-82.57C426.29,-73.97 355.36,-57.32 296.87,-36 295.02,-35.33 293.13,-34.59 291.24,-33.82"/>
<polygon fill="black" stroke="black" points="292.48,-30.54 281.91,-29.73 289.67,-36.95 292.48,-30.54"/>
</g>
<!-- ReachGoal? -->
<g id="node7" class="node">
<title>ReachGoal?</title>
<ellipse fill="gray" stroke="black" cx="339.87" cy="-18" rx="34.13" ry="18"/>
<text text-anchor="middle" x="339.87" y="-15.8" font-family="Times,serif" font-size="9.00">ReachGoal?</text>
</g>
<!-- Sequence&#45;&gt;ReachGoal? -->
<g id="edge6" class="edge">
<title>Sequence&#45;&gt;ReachGoal?</title>
<path fill="none" stroke="black" d="M473.53,-78.22C446.97,-66.45 404.25,-47.52 374.27,-34.24"/>
<polygon fill="black" stroke="black" points="375.58,-30.99 365.02,-30.14 372.75,-37.39 375.58,-30.99"/>
</g>
<!-- GetLk!* -->
<g id="node8" class="node">
<title>GetLk!*</title>
<ellipse fill="gray" stroke="black" cx="418.87" cy="-18" rx="27.27" ry="18"/>
<text text-anchor="middle" x="418.87" y="-15.8" font-family="Times,serif" font-size="9.00">GetLk!*</text>
</g>
<!-- Sequence&#45;&gt;GetLk!* -->
<g id="edge7" class="edge">
<title>Sequence&#45;&gt;GetLk!*</title>
<path fill="none" stroke="black" d="M480.73,-73.81C469.48,-63.85 454.64,-50.7 442.31,-39.77"/>
<polygon fill="black" stroke="black" points="444.44,-36.98 434.63,-32.97 439.8,-42.22 444.44,-36.98"/>
</g>
<!-- MoveTo!** -->
<g id="node9" class="node">
<title>MoveTo!**</title>
<ellipse fill="gray" stroke="black" cx="497.87" cy="-18" rx="34.13" ry="18"/>
<text text-anchor="middle" x="497.87" y="-15.8" font-family="Times,serif" font-size="9.00">MoveTo!**</text>
</g>
<!-- Sequence&#45;&gt;MoveTo!** -->
<g id="edge8" class="edge">
<title>Sequence&#45;&gt;MoveTo!**</title>
<path fill="none" stroke="black" d="M497.87,-71.7C497.87,-63.98 497.87,-54.71 497.87,-46.11"/>
<polygon fill="black" stroke="black" points="501.37,-46.1 497.87,-36.1 494.37,-46.1 501.37,-46.1"/>
</g>
<!-- MoveTo!*** -->
<g id="node10" class="node">
<title>MoveTo!***</title>
<ellipse fill="gray" stroke="black" cx="586.87" cy="-18" rx="36.9" ry="18"/>
<text text-anchor="middle" x="586.87" y="-15.8" font-family="Times,serif" font-size="9.00">MoveTo!***</text>
</g>
<!-- Sequence&#45;&gt;MoveTo!*** -->
<g id="edge9" class="edge">
<title>Sequence&#45;&gt;MoveTo!***</title>
<path fill="none" stroke="black" d="M515.88,-74.83C528.62,-64.82 545.91,-51.22 560.23,-39.95"/>
<polygon fill="black" stroke="black" points="562.57,-42.56 568.27,-33.63 558.25,-37.06 562.57,-42.56"/>
</g>
<!-- LkClose?* -->
<g id="node11" class="node">
<title>LkClose?*</title>
<ellipse fill="gray" stroke="black" cx="673.87" cy="-18" rx="31.51" ry="18"/>
<text text-anchor="middle" x="673.87" y="-15.8" font-family="Times,serif" font-size="9.00">LkClose?*</text>
</g>
<!-- Sequence&#45;&gt;LkClose?* -->
<g id="edge10" class="edge">
<title>Sequence&#45;&gt;LkClose?*</title>
<path fill="none" stroke="black" d="M523.55,-79.08C550.76,-68.54 594.92,-51.31 632.87,-36 635.1,-35.1 637.39,-34.17 639.71,-33.22"/>
<polygon fill="black" stroke="black" points="641.27,-36.36 649.18,-29.32 638.6,-29.89 641.27,-36.36"/>
</g>
<!-- MoveTo!**** -->
<g id="node12" class="node">
<title>MoveTo!****</title>
<ellipse fill="gray" stroke="black" cx="762.87" cy="-18" rx="39.02" ry="18"/>
<text text-anchor="middle" x="762.87" y="-15.8" font-family="Times,serif" font-size="9.00">MoveTo!****</text>
</g>
<!-- Sequence&#45;&gt;MoveTo!**** -->
<g id="edge11" class="edge">
<title>Sequence&#45;&gt;MoveTo!****</title>
<path fill="none" stroke="black" d="M529.4,-82.35C571.87,-73.15 649.65,-55.46 714.87,-36 717.78,-35.13 720.78,-34.19 723.78,-33.21"/>
<polygon fill="black" stroke="black" points="724.96,-36.5 733.32,-29.99 722.73,-29.87 724.96,-36.5"/>
</g>
<!-- MoveTo!***** -->
<g id="node13" class="node">
<title>MoveTo!*****</title>
<ellipse fill="gray" stroke="black" cx="861.87" cy="-18" rx="42.29" ry="18"/>
<text text-anchor="middle" x="861.87" y="-15.8" font-family="Times,serif" font-size="9.00">MoveTo!*****</text>
</g>
<!-- Sequence&#45;&gt;MoveTo!***** -->
<g id="edge12" class="edge">
<title>Sequence&#45;&gt;MoveTo!*****</title>
<path fill="none" stroke="black" d="M529.29,-85.31C586.07,-78.28 709.27,-61.37 810.87,-36 814.23,-35.16 817.69,-34.21 821.15,-33.19"/>
<polygon fill="black" stroke="black" points="822.29,-36.5 830.8,-30.2 820.22,-29.81 822.29,-36.5"/>
</g>
<!-- MoveTo!****** -->
<g id="node14" class="node">
<title>MoveTo!******</title>
<ellipse fill="gray" stroke="black" cx="966.87" cy="-18" rx="44.41" ry="18"/>
<text text-anchor="middle" x="966.87" y="-15.8" font-family="Times,serif" font-size="9.00">MoveTo!******</text>
</g>
<!-- Sequence&#45;&gt;MoveTo!****** -->
<g id="edge13" class="edge">
<title>Sequence&#45;&gt;MoveTo!******</title>
<path fill="none" stroke="black" d="M529.17,-86.91C598.79,-81.86 771.51,-67.02 912.87,-36 916.7,-35.16 920.65,-34.17 924.59,-33.09"/>
<polygon fill="black" stroke="black" points="925.65,-36.43 934.28,-30.28 923.7,-29.7 925.65,-36.43"/>
</g>
<!-- GetSubGoal! -->
<g id="node16" class="node">
<title>GetSubGoal!</title>
<ellipse fill="gray" stroke="black" cx="1065.87" cy="-18" rx="36.9" ry="18"/>
<text text-anchor="middle" x="1065.87" y="-15.8" font-family="Times,serif" font-size="9.00">GetSubGoal!</text>
</g>
<!-- Sequence*&#45;&gt;GetSubGoal! -->
<g id="edge15" class="edge">
<title>Sequence*&#45;&gt;GetSubGoal!</title>
<path fill="none" stroke="black" d="M1308.46,-82.54C1263.01,-73.69 1180.67,-56.52 1111.87,-36 1109.11,-35.18 1106.29,-34.28 1103.45,-33.34"/>
<polygon fill="black" stroke="black" points="1104.49,-29.99 1093.89,-30.01 1102.19,-36.6 1104.49,-29.99"/>
</g>
<!-- MoveTo!******* -->
<g id="node17" class="node">
<title>MoveTo!*******</title>
<ellipse fill="gray" stroke="black" cx="1167.87" cy="-18" rx="47.19" ry="18"/>
<text text-anchor="middle" x="1167.87" y="-15.8" font-family="Times,serif" font-size="9.00">MoveTo!*******</text>
</g>
<!-- Sequence*&#45;&gt;MoveTo!******* -->
<g id="edge16" class="edge">
<title>Sequence*&#45;&gt;MoveTo!*******</title>
<path fill="none" stroke="black" d="M1316.29,-78.37C1287.74,-66.95 1242.03,-48.66 1208.87,-35.4"/>
<polygon fill="black" stroke="black" points="1210.03,-32.1 1199.44,-31.63 1207.43,-38.59 1210.03,-32.1"/>
</g>
<!-- MoveTo!******** -->
<g id="node18" class="node">
<title>MoveTo!********</title>
<ellipse fill="gray" stroke="black" cx="1282.87" cy="-18" rx="49.8" ry="18"/>
<text text-anchor="middle" x="1282.87" y="-15.8" font-family="Times,serif" font-size="9.00">MoveTo!********</text>
</g>
<!-- Sequence*&#45;&gt;MoveTo!******** -->
<g id="edge17" class="edge">
<title>Sequence*&#45;&gt;MoveTo!********</title>
<path fill="none" stroke="black" d="M1328.34,-72.05C1320.86,-63.33 1311.62,-52.54 1303.42,-42.98"/>
<polygon fill="black" stroke="black" points="1306.01,-40.62 1296.84,-35.31 1300.7,-45.18 1306.01,-40.62"/>
</g>
<!-- MoveTo!********* -->
<g id="node19" class="node">
<title>MoveTo!*********</title>
<ellipse fill="gray" stroke="black" cx="1402.87" cy="-18" rx="52.58" ry="18"/>
<text text-anchor="middle" x="1402.87" y="-15.8" font-family="Times,serif" font-size="9.00">MoveTo!*********</text>
</g>
<!-- Sequence*&#45;&gt;MoveTo!********* -->
<g id="edge18" class="edge">
<title>Sequence*&#45;&gt;MoveTo!*********</title>
<path fill="none" stroke="black" d="M1357.39,-72.05C1364.76,-63.46 1373.85,-52.86 1381.96,-43.4"/>
<polygon fill="black" stroke="black" points="1384.63,-45.66 1388.48,-35.79 1379.31,-41.1 1384.63,-45.66"/>
</g>
<!-- MoveTo!********** -->
<g id="node20" class="node">
<title>MoveTo!**********</title>
<ellipse fill="gray" stroke="black" cx="1527.87" cy="-18" rx="54.7" ry="18"/>
<text text-anchor="middle" x="1527.87" y="-15.8" font-family="Times,serif" font-size="9.00">MoveTo!**********</text>
</g>
<!-- Sequence*&#45;&gt;MoveTo!********** -->
<g id="edge19" class="edge">
<title>Sequence*&#45;&gt;MoveTo!**********</title>
<path fill="none" stroke="black" d="M1369.67,-78.31C1375.03,-76.2 1380.62,-74.02 1385.87,-72 1418.39,-59.5 1455.25,-45.76 1483.26,-35.4"/>
<polygon fill="black" stroke="black" points="1484.62,-38.63 1492.78,-31.88 1482.19,-32.06 1484.62,-38.63"/>
</g>
<!-- ReachGoal?* -->
<g id="node21" class="node">
<title>ReachGoal?*</title>
<ellipse fill="gray" stroke="black" cx="1637.87" cy="-18" rx="36.9" ry="18"/>
<text text-anchor="middle" x="1637.87" y="-15.8" font-family="Times,serif" font-size="9.00">ReachGoal?*</text>
</g>
<!-- Sequence*&#45;&gt;ReachGoal?* -->
<g id="edge20" class="edge">
<title>Sequence*&#45;&gt;ReachGoal?*</title>
<path fill="none" stroke="black" d="M1368.5,-77.88C1374.14,-75.71 1380.15,-73.61 1385.87,-72 1475.32,-46.78 1502.13,-60.21 1591.87,-36 1594.81,-35.21 1597.84,-34.3 1600.86,-33.33"/>
<polygon fill="black" stroke="black" points="1602.07,-36.62 1610.4,-30.07 1599.81,-29.99 1602.07,-36.62"/>
</g>
<!-- MoveTo!*********** -->
<g id="node22" class="node">
<title>MoveTo!***********</title>
<ellipse fill="gray" stroke="black" cx="1750.87" cy="-18" rx="57.97" ry="18"/>
<text text-anchor="middle" x="1750.87" y="-15.8" font-family="Times,serif" font-size="9.00">MoveTo!***********</text>
</g>
<!-- Sequence*&#45;&gt;MoveTo!*********** -->
<g id="edge21" class="edge">
<title>Sequence*&#45;&gt;MoveTo!***********</title>
<path fill="none" stroke="black" d="M1368.43,-77.65C1374.09,-75.5 1380.11,-73.46 1385.87,-72 1515.18,-39.21 1552.72,-60.46 1683.87,-36 1688.83,-35.08 1693.97,-34 1699.09,-32.84"/>
<polygon fill="black" stroke="black" points="1699.95,-36.23 1708.88,-30.53 1698.34,-29.42 1699.95,-36.23"/>
</g>
</g>
</svg>
