<?xml version="1.0" encoding="UTF-8" standalone="no"?>
<!DOCTYPE svg PUBLIC "-//W3C//DTD SVG 1.1//EN"
 "http://www.w3.org/Graphics/SVG/1.1/DTD/svg11.dtd">
<!-- Generated by graphviz version 2.43.0 (0)
 -->
<!-- Title: pastafarianism Pages: 1 -->
<svg width="1623pt" height="188pt"
 viewBox="0.00 0.00 1623.32 188.00" xmlns="http://www.w3.org/2000/svg" xmlns:xlink="http://www.w3.org/1999/xlink">
<g id="graph0" class="graph" transform="scale(1 1) rotate(0) translate(4 184)">
<title>pastafarianism</title>
<polygon fill="white" stroke="transparent" points="-4,4 -4,-184 1619.32,-184 1619.32,4 -4,4"/>
<!-- Fallback -->
<g id="node1" class="node">
<title>Fallback</title>
<polygon fill="cyan" stroke="black" points="1383.84,-154.54 1383.84,-169.46 1366.71,-180 1342.49,-180 1325.36,-169.46 1325.36,-154.54 1342.49,-144 1366.71,-144 1383.84,-154.54"/>
<text text-anchor="middle" x="1354.6" y="-159.8" font-family="Times,serif" font-size="9.00">Fallback</text>
</g>
<!-- Sequence -->
<g id="node2" class="node">
<title>Sequence</title>
<polygon fill="cyan" stroke="black" points="562.09,-82.54 562.09,-97.46 543.64,-108 517.55,-108 499.11,-97.46 499.11,-82.54 517.55,-72 543.64,-72 562.09,-82.54"/>
<text text-anchor="middle" x="530.6" y="-87.8" font-family="Times,serif" font-size="9.00">Sequence</text>
</g>
<!-- Fallback&#45;&gt;Sequence -->
<g id="edge1" class="edge">
<title>Fallback&#45;&gt;Sequence</title>
<path fill="none" stroke="black" d="M1325.27,-158.51C1201.09,-147.96 718.25,-106.94 572.49,-94.56"/>
<polygon fill="black" stroke="black" points="572.45,-91.04 562.19,-93.68 571.86,-98.02 572.45,-91.04"/>
</g>
<!-- Sequence* -->
<g id="node16" class="node">
<title>Sequence*</title>
<polygon fill="cyan" stroke="black" points="1302.84,-82.54 1302.84,-97.46 1282.78,-108 1254.42,-108 1234.36,-97.46 1234.36,-82.54 1254.42,-72 1282.78,-72 1302.84,-82.54"/>
<text text-anchor="middle" x="1268.6" y="-87.8" font-family="Times,serif" font-size="9.00">Sequence*</text>
</g>
<!-- Fallback&#45;&gt;Sequence* -->
<g id="edge15" class="edge">
<title>Fallback&#45;&gt;Sequence*</title>
<path fill="none" stroke="black" d="M1337.2,-146.83C1325.08,-136.98 1308.71,-123.65 1295,-112.49"/>
<polygon fill="black" stroke="black" points="1296.83,-109.47 1286.87,-105.87 1292.41,-114.9 1296.83,-109.47"/>
</g>
<!-- LkClose?** -->
<g id="node22" class="node">
<title>LkClose?**</title>
<ellipse fill="gray" stroke="black" cx="1354.6" cy="-90" rx="34.13" ry="18"/>
<text text-anchor="middle" x="1354.6" y="-87.8" font-family="Times,serif" font-size="9.00">LkClose?**</text>
</g>
<!-- Fallback&#45;&gt;LkClose?** -->
<g id="edge21" class="edge">
<title>Fallback&#45;&gt;LkClose?**</title>
<path fill="none" stroke="black" d="M1354.6,-143.7C1354.6,-135.98 1354.6,-126.71 1354.6,-118.11"/>
<polygon fill="black" stroke="black" points="1358.1,-118.1 1354.6,-108.1 1351.1,-118.1 1358.1,-118.1"/>
</g>
<!-- MoveTo!********* -->
<g id="node23" class="node">
<title>MoveTo!*********</title>
<ellipse fill="gray" stroke="black" cx="1459.6" cy="-90" rx="52.58" ry="18"/>
<text text-anchor="middle" x="1459.6" y="-87.8" font-family="Times,serif" font-size="9.00">MoveTo!*********</text>
</g>
<!-- Fallback&#45;&gt;MoveTo!********* -->
<g id="edge22" class="edge">
<title>Fallback&#45;&gt;MoveTo!*********</title>
<path fill="none" stroke="black" d="M1373.86,-148.16C1388.88,-138.14 1410.08,-124.02 1427.63,-112.31"/>
<polygon fill="black" stroke="black" points="1430.05,-114.9 1436.43,-106.45 1426.17,-109.08 1430.05,-114.9"/>
</g>
<!-- CompLkGraph! -->
<g id="node24" class="node">
<title>CompLkGraph!</title>
<ellipse fill="gray" stroke="black" cx="1572.6" cy="-90" rx="42.95" ry="18"/>
<text text-anchor="middle" x="1572.6" y="-87.8" font-family="Times,serif" font-size="9.00">CompLkGraph!</text>
</g>
<!-- Fallback&#45;&gt;CompLkGraph! -->
<g id="edge23" class="edge">
<title>Fallback&#45;&gt;CompLkGraph!</title>
<path fill="none" stroke="black" d="M1380.96,-152.76C1413.9,-142.44 1471.99,-124.14 1521.6,-108 1524.52,-107.05 1527.54,-106.06 1530.57,-105.06"/>
<polygon fill="black" stroke="black" points="1531.85,-108.33 1540.25,-101.86 1529.65,-101.68 1531.85,-108.33"/>
</g>
<!-- LkGraph? -->
<g id="node3" class="node">
<title>LkGraph?</title>
<ellipse fill="gray" stroke="black" cx="30.6" cy="-18" rx="30.7" ry="18"/>
<text text-anchor="middle" x="30.6" y="-15.8" font-family="Times,serif" font-size="9.00">LkGraph?</text>
</g>
<!-- Sequence&#45;&gt;LkGraph? -->
<g id="edge2" class="edge">
<title>Sequence&#45;&gt;LkGraph?</title>
<path fill="none" stroke="black" d="M499.25,-88.58C423.9,-86.87 227.14,-78.38 69.6,-36 67.31,-35.38 64.99,-34.66 62.67,-33.85"/>
<polygon fill="black" stroke="black" points="63.88,-30.57 53.29,-30.23 61.36,-37.1 63.88,-30.57"/>
</g>
<!-- LkClose? -->
<g id="node4" class="node">
<title>LkClose?</title>
<ellipse fill="gray" stroke="black" cx="107.6" cy="-18" rx="28.74" ry="18"/>
<text text-anchor="middle" x="107.6" y="-15.8" font-family="Times,serif" font-size="9.00">LkClose?</text>
</g>
<!-- Sequence&#45;&gt;LkClose? -->
<g id="edge3" class="edge">
<title>Sequence&#45;&gt;LkClose?</title>
<path fill="none" stroke="black" d="M499.29,-87.69C432.89,-84.27 273.55,-72.62 145.6,-36 143.31,-35.35 140.99,-34.58 138.67,-33.74"/>
<polygon fill="black" stroke="black" points="139.89,-30.46 129.31,-29.98 137.28,-36.95 139.89,-30.46"/>
</g>
<!-- MoveTo! -->
<g id="node5" class="node">
<title>MoveTo!</title>
<ellipse fill="gray" stroke="black" cx="183.6" cy="-18" rx="28.74" ry="18"/>
<text text-anchor="middle" x="183.6" y="-15.8" font-family="Times,serif" font-size="9.00">MoveTo!</text>
</g>
<!-- Sequence&#45;&gt;MoveTo! -->
<g id="edge4" class="edge">
<title>Sequence&#45;&gt;MoveTo!</title>
<path fill="none" stroke="black" d="M499.3,-86.25C442.83,-80.71 320.54,-66.09 221.6,-36 219.32,-35.31 217.01,-34.51 214.69,-33.65"/>
<polygon fill="black" stroke="black" points="215.93,-30.38 205.34,-29.85 213.29,-36.86 215.93,-30.38"/>
</g>
<!-- GetLk! -->
<g id="node6" class="node">
<title>GetLk!</title>
<ellipse fill="gray" stroke="black" cx="257.6" cy="-18" rx="27" ry="18"/>
<text text-anchor="middle" x="257.6" y="-15.8" font-family="Times,serif" font-size="9.00">GetLk!</text>
</g>
<!-- Sequence&#45;&gt;GetLk! -->
<g id="edge5" class="edge">
<title>Sequence&#45;&gt;GetLk!</title>
<path fill="none" stroke="black" d="M499.32,-84.27C453.39,-76.83 365.38,-60.63 293.6,-36 291.69,-35.34 289.74,-34.62 287.8,-33.84"/>
<polygon fill="black" stroke="black" points="288.78,-30.45 278.21,-29.69 286,-36.88 288.78,-30.45"/>
</g>
<!-- ReachGoal? -->
<g id="node7" class="node">
<title>ReachGoal?</title>
<ellipse fill="gray" stroke="black" cx="336.6" cy="-18" rx="34.13" ry="18"/>
<text text-anchor="middle" x="336.6" y="-15.8" font-family="Times,serif" font-size="9.00">ReachGoal?</text>
</g>
<!-- Sequence&#45;&gt;ReachGoal? -->
<g id="edge6" class="edge">
<title>Sequence&#45;&gt;ReachGoal?</title>
<path fill="none" stroke="black" d="M503.48,-79.84C473.17,-69.51 422.68,-52.07 379.6,-36 377.23,-35.12 374.79,-34.19 372.34,-33.25"/>
<polygon fill="black" stroke="black" points="373.5,-29.95 362.92,-29.59 370.97,-36.47 373.5,-29.95"/>
</g>
<!-- GetLk!* -->
<g id="node8" class="node">
<title>GetLk!*</title>
<ellipse fill="gray" stroke="black" cx="415.6" cy="-18" rx="27.27" ry="18"/>
<text text-anchor="middle" x="415.6" y="-15.8" font-family="Times,serif" font-size="9.00">GetLk!*</text>
</g>
<!-- Sequence&#45;&gt;GetLk!* -->
<g id="edge7" class="edge">
<title>Sequence&#45;&gt;GetLk!*</title>
<path fill="none" stroke="black" d="M509.77,-76.32C491.28,-65.07 464.1,-48.52 443.69,-36.1"/>
<polygon fill="black" stroke="black" points="445.48,-33.09 435.12,-30.88 441.84,-39.07 445.48,-33.09"/>
</g>
<!-- GetLk!** -->
<g id="node9" class="node">
<title>GetLk!**</title>
<ellipse fill="gray" stroke="black" cx="490.6" cy="-18" rx="29.39" ry="18"/>
<text text-anchor="middle" x="490.6" y="-15.8" font-family="Times,serif" font-size="9.00">GetLk!**</text>
</g>
<!-- Sequence&#45;&gt;GetLk!** -->
<g id="edge8" class="edge">
<title>Sequence&#45;&gt;GetLk!**</title>
<path fill="none" stroke="black" d="M520.71,-71.7C515.92,-63.32 510.08,-53.1 504.83,-43.9"/>
<polygon fill="black" stroke="black" points="507.83,-42.09 499.83,-35.14 501.75,-45.56 507.83,-42.09"/>
</g>
<!-- MoveTo!* -->
<g id="node10" class="node">
<title>MoveTo!*</title>
<ellipse fill="gray" stroke="black" cx="569.6" cy="-18" rx="31.51" ry="18"/>
<text text-anchor="middle" x="569.6" y="-15.8" font-family="Times,serif" font-size="9.00">MoveTo!*</text>
</g>
<!-- Sequence&#45;&gt;MoveTo!* -->
<g id="edge9" class="edge">
<title>Sequence&#45;&gt;MoveTo!*</title>
<path fill="none" stroke="black" d="M540.24,-71.7C544.79,-63.52 550.32,-53.6 555.35,-44.58"/>
<polygon fill="black" stroke="black" points="558.53,-46.06 560.34,-35.62 552.41,-42.65 558.53,-46.06"/>
</g>
<!-- MoveTo!** -->
<g id="node11" class="node">
<title>MoveTo!**</title>
<ellipse fill="gray" stroke="black" cx="653.6" cy="-18" rx="34.13" ry="18"/>
<text text-anchor="middle" x="653.6" y="-15.8" font-family="Times,serif" font-size="9.00">MoveTo!**</text>
</g>
<!-- Sequence&#45;&gt;MoveTo!** -->
<g id="edge10" class="edge">
<title>Sequence&#45;&gt;MoveTo!**</title>
<path fill="none" stroke="black" d="M552.31,-76.65C571.74,-65.59 600.46,-49.24 622.36,-36.78"/>
<polygon fill="black" stroke="black" points="624.32,-39.69 631.28,-31.7 620.86,-33.61 624.32,-39.69"/>
</g>
<!-- MoveTo!*** -->
<g id="node12" class="node">
<title>MoveTo!***</title>
<ellipse fill="gray" stroke="black" cx="742.6" cy="-18" rx="36.9" ry="18"/>
<text text-anchor="middle" x="742.6" y="-15.8" font-family="Times,serif" font-size="9.00">MoveTo!***</text>
</g>
<!-- Sequence&#45;&gt;MoveTo!*** -->
<g id="edge11" class="edge">
<title>Sequence&#45;&gt;MoveTo!***</title>
<path fill="none" stroke="black" d="M558.63,-80.47C591.73,-70.3 648.4,-52.59 696.6,-36 699.15,-35.12 701.78,-34.2 704.42,-33.26"/>
<polygon fill="black" stroke="black" points="705.75,-36.5 713.96,-29.81 703.37,-29.92 705.75,-36.5"/>
</g>
<!-- LkClose?* -->
<g id="node13" class="node">
<title>LkClose?*</title>
<ellipse fill="gray" stroke="black" cx="829.6" cy="-18" rx="31.51" ry="18"/>
<text text-anchor="middle" x="829.6" y="-15.8" font-family="Times,serif" font-size="9.00">LkClose?*</text>
</g>
<!-- Sequence&#45;&gt;LkClose?* -->
<g id="edge12" class="edge">
<title>Sequence&#45;&gt;LkClose?*</title>
<path fill="none" stroke="black" d="M562.06,-84.52C611.14,-77.09 708.6,-60.56 788.6,-36 791.05,-35.25 793.55,-34.4 796.06,-33.51"/>
<polygon fill="black" stroke="black" points="797.52,-36.7 805.6,-29.85 795.01,-30.16 797.52,-36.7"/>
</g>
<!-- MoveTo!**** -->
<g id="node14" class="node">
<title>MoveTo!****</title>
<ellipse fill="gray" stroke="black" cx="918.6" cy="-18" rx="39.02" ry="18"/>
<text text-anchor="middle" x="918.6" y="-15.8" font-family="Times,serif" font-size="9.00">MoveTo!****</text>
</g>
<!-- Sequence&#45;&gt;MoveTo!**** -->
<g id="edge13" class="edge">
<title>Sequence&#45;&gt;MoveTo!****</title>
<path fill="none" stroke="black" d="M561.93,-86.08C622.33,-80.03 758.81,-64.25 870.6,-36 873.73,-35.21 876.94,-34.3 880.15,-33.32"/>
<polygon fill="black" stroke="black" points="881.25,-36.64 889.67,-30.22 879.08,-29.98 881.25,-36.64"/>
</g>
<!-- MoveTo!***** -->
<g id="node15" class="node">
<title>MoveTo!*****</title>
<ellipse fill="gray" stroke="black" cx="1017.6" cy="-18" rx="42.29" ry="18"/>
<text text-anchor="middle" x="1017.6" y="-15.8" font-family="Times,serif" font-size="9.00">MoveTo!*****</text>
</g>
<!-- Sequence&#45;&gt;MoveTo!***** -->
<g id="edge14" class="edge">
<title>Sequence&#45;&gt;MoveTo!*****</title>
<path fill="none" stroke="black" d="M561.89,-87.36C634.03,-83.1 817.26,-69.61 966.6,-36 970.03,-35.23 973.55,-34.32 977.06,-33.32"/>
<polygon fill="black" stroke="black" points="978.31,-36.6 986.87,-30.35 976.28,-29.9 978.31,-36.6"/>
</g>
<!-- GetSubGoal! -->
<g id="node17" class="node">
<title>GetSubGoal!</title>
<ellipse fill="gray" stroke="black" cx="1114.6" cy="-18" rx="36.9" ry="18"/>
<text text-anchor="middle" x="1114.6" y="-15.8" font-family="Times,serif" font-size="9.00">GetSubGoal!</text>
</g>
<!-- Sequence*&#45;&gt;GetSubGoal! -->
<g id="edge16" class="edge">
<title>Sequence*&#45;&gt;GetSubGoal!</title>
<path fill="none" stroke="black" d="M1243.51,-77.6C1218.09,-66.04 1178.54,-48.06 1149.94,-35.07"/>
<polygon fill="black" stroke="black" points="1151.26,-31.82 1140.7,-30.87 1148.36,-38.19 1151.26,-31.82"/>
</g>
<!-- MoveTo!****** -->
<g id="node18" class="node">
<title>MoveTo!******</title>
<ellipse fill="gray" stroke="black" cx="1213.6" cy="-18" rx="44.41" ry="18"/>
<text text-anchor="middle" x="1213.6" y="-15.8" font-family="Times,serif" font-size="9.00">MoveTo!******</text>
</g>
<!-- Sequence*&#45;&gt;MoveTo!****** -->
<g id="edge17" class="edge">
<title>Sequence*&#45;&gt;MoveTo!******</title>
<path fill="none" stroke="black" d="M1255,-71.7C1248.38,-63.27 1240.29,-52.97 1233.03,-43.73"/>
<polygon fill="black" stroke="black" points="1235.59,-41.32 1226.66,-35.62 1230.09,-45.65 1235.59,-41.32"/>
</g>
<!-- MoveTo!******* -->
<g id="node19" class="node">
<title>MoveTo!*******</title>
<ellipse fill="gray" stroke="black" cx="1323.6" cy="-18" rx="47.19" ry="18"/>
<text text-anchor="middle" x="1323.6" y="-15.8" font-family="Times,serif" font-size="9.00">MoveTo!*******</text>
</g>
<!-- Sequence*&#45;&gt;MoveTo!******* -->
<g id="edge18" class="edge">
<title>Sequence*&#45;&gt;MoveTo!*******</title>
<path fill="none" stroke="black" d="M1282.2,-71.7C1288.82,-63.27 1296.91,-52.97 1304.17,-43.73"/>
<polygon fill="black" stroke="black" points="1307.11,-45.65 1310.54,-35.62 1301.61,-41.32 1307.11,-45.65"/>
</g>
<!-- MoveTo!******** -->
<g id="node20" class="node">
<title>MoveTo!********</title>
<ellipse fill="gray" stroke="black" cx="1438.6" cy="-18" rx="49.8" ry="18"/>
<text text-anchor="middle" x="1438.6" y="-15.8" font-family="Times,serif" font-size="9.00">MoveTo!********</text>
</g>
<!-- Sequence*&#45;&gt;MoveTo!******** -->
<g id="edge19" class="edge">
<title>Sequence*&#45;&gt;MoveTo!********</title>
<path fill="none" stroke="black" d="M1294.79,-78.22C1322.22,-66.92 1365.68,-49.02 1397.65,-35.86"/>
<polygon fill="black" stroke="black" points="1399.26,-38.98 1407.18,-31.94 1396.6,-32.51 1399.26,-38.98"/>
</g>
<!-- ReachGoal?* -->
<g id="node21" class="node">
<title>ReachGoal?*</title>
<ellipse fill="gray" stroke="black" cx="1543.6" cy="-18" rx="36.9" ry="18"/>
<text text-anchor="middle" x="1543.6" y="-15.8" font-family="Times,serif" font-size="9.00">ReachGoal?*</text>
</g>
<!-- Sequence*&#45;&gt;ReachGoal?* -->
<g id="edge20" class="edge">
<title>Sequence*&#45;&gt;ReachGoal?*</title>
<path fill="none" stroke="black" d="M1294.25,-77.96C1299.9,-75.79 1305.9,-73.66 1311.6,-72 1392.43,-48.42 1416.51,-58.67 1497.6,-36 1500.37,-35.23 1503.2,-34.36 1506.04,-33.44"/>
<polygon fill="black" stroke="black" points="1507.29,-36.71 1515.62,-30.16 1505.02,-30.09 1507.29,-36.71"/>
</g>
</g>
</svg>
