<?xml version="1.0" encoding="UTF-8" standalone="no"?>
<!DOCTYPE svg PUBLIC "-//W3C//DTD SVG 1.1//EN"
 "http://www.w3.org/Graphics/SVG/1.1/DTD/svg11.dtd">
<!-- Generated by graphviz version 2.43.0 (0)
 -->
<!-- Title: pastafarianism Pages: 1 -->
<svg width="1631pt" height="188pt"
 viewBox="0.00 0.00 1630.90 188.00" xmlns="http://www.w3.org/2000/svg" xmlns:xlink="http://www.w3.org/1999/xlink">
<g id="graph0" class="graph" transform="scale(1 1) rotate(0) translate(4 184)">
<title>pastafarianism</title>
<polygon fill="white" stroke="transparent" points="-4,4 -4,-184 1626.9,-184 1626.9,4 -4,4"/>
<!-- Fallback -->
<g id="node1" class="node">
<title>Fallback</title>
<polygon fill="cyan" stroke="black" points="1386.11,-154.54 1386.11,-169.46 1368.98,-180 1344.75,-180 1327.62,-169.46 1327.62,-154.54 1344.75,-144 1368.98,-144 1386.11,-154.54"/>
<text text-anchor="middle" x="1356.87" y="-159.8" font-family="Times,serif" font-size="9.00">Fallback</text>
</g>
<!-- Sequence -->
<g id="node2" class="node">
<title>Sequence</title>
<polygon fill="cyan" stroke="black" points="574.36,-82.54 574.36,-97.46 555.91,-108 529.82,-108 511.37,-97.46 511.37,-82.54 529.82,-72 555.91,-72 574.36,-82.54"/>
<text text-anchor="middle" x="542.87" y="-87.8" font-family="Times,serif" font-size="9.00">Sequence</text>
</g>
<!-- Fallback&#45;&gt;Sequence -->
<g id="edge1" class="edge">
<title>Fallback&#45;&gt;Sequence</title>
<path fill="none" stroke="black" d="M1327.42,-158.47C1204.09,-147.86 728.93,-107 584.65,-94.59"/>
<polygon fill="black" stroke="black" points="584.71,-91.09 574.45,-93.72 584.11,-98.06 584.71,-91.09"/>
</g>
<!-- Sequence* -->
<g id="node16" class="node">
<title>Sequence*</title>
<polygon fill="cyan" stroke="black" points="1305.11,-82.54 1305.11,-97.46 1285.05,-108 1256.68,-108 1236.63,-97.46 1236.63,-82.54 1256.68,-72 1285.05,-72 1305.11,-82.54"/>
<text text-anchor="middle" x="1270.87" y="-87.8" font-family="Times,serif" font-size="9.00">Sequence*</text>
</g>
<!-- Fallback&#45;&gt;Sequence* -->
<g id="edge15" class="edge">
<title>Fallback&#45;&gt;Sequence*</title>
<path fill="none" stroke="black" d="M1339.46,-146.83C1327.35,-136.98 1310.98,-123.65 1297.27,-112.49"/>
<polygon fill="black" stroke="black" points="1299.1,-109.47 1289.14,-105.87 1294.68,-114.9 1299.1,-109.47"/>
</g>
<!-- LkClose?** -->
<g id="node21" class="node">
<title>LkClose?**</title>
<ellipse fill="gray" stroke="black" cx="1356.87" cy="-90" rx="34.13" ry="18"/>
<text text-anchor="middle" x="1356.87" y="-87.8" font-family="Times,serif" font-size="9.00">LkClose?**</text>
</g>
<!-- Fallback&#45;&gt;LkClose?** -->
<g id="edge20" class="edge">
<title>Fallback&#45;&gt;LkClose?**</title>
<path fill="none" stroke="black" d="M1356.87,-143.7C1356.87,-135.98 1356.87,-126.71 1356.87,-118.11"/>
<polygon fill="black" stroke="black" points="1360.37,-118.1 1356.87,-108.1 1353.37,-118.1 1360.37,-118.1"/>
</g>
<!-- MoveTo!********* -->
<g id="node22" class="node">
<title>MoveTo!*********</title>
<ellipse fill="gray" stroke="black" cx="1461.87" cy="-90" rx="52.58" ry="18"/>
<text text-anchor="middle" x="1461.87" y="-87.8" font-family="Times,serif" font-size="9.00">MoveTo!*********</text>
</g>
<!-- Fallback&#45;&gt;MoveTo!********* -->
<g id="edge21" class="edge">
<title>Fallback&#45;&gt;MoveTo!*********</title>
<path fill="none" stroke="black" d="M1376.13,-148.16C1391.15,-138.14 1412.34,-124.02 1429.9,-112.31"/>
<polygon fill="black" stroke="black" points="1432.32,-114.9 1438.7,-106.45 1428.44,-109.08 1432.32,-114.9"/>
</g>
<!-- CompLkGraph!* -->
<g id="node23" class="node">
<title>CompLkGraph!*</title>
<ellipse fill="gray" stroke="black" cx="1577.87" cy="-90" rx="45.07" ry="18"/>
<text text-anchor="middle" x="1577.87" y="-87.8" font-family="Times,serif" font-size="9.00">CompLkGraph!*</text>
</g>
<!-- Fallback&#45;&gt;CompLkGraph!* -->
<g id="edge22" class="edge">
<title>Fallback&#45;&gt;CompLkGraph!*</title>
<path fill="none" stroke="black" d="M1383.53,-152.56C1420.77,-140.76 1488.86,-119.19 1533.74,-104.98"/>
<polygon fill="black" stroke="black" points="1535.02,-108.24 1543.5,-101.89 1532.91,-101.57 1535.02,-108.24"/>
</g>
<!-- MoveTo! -->
<g id="node3" class="node">
<title>MoveTo!</title>
<ellipse fill="gray" stroke="black" cx="28.87" cy="-18" rx="28.74" ry="18"/>
<text text-anchor="middle" x="28.87" y="-15.8" font-family="Times,serif" font-size="9.00">MoveTo!</text>
</g>
<!-- Sequence&#45;&gt;MoveTo! -->
<g id="edge2" class="edge">
<title>Sequence&#45;&gt;MoveTo!</title>
<path fill="none" stroke="black" d="M511.62,-88.83C434.62,-87.72 230.14,-80.44 66.87,-36 64.57,-35.38 62.24,-34.63 59.92,-33.81"/>
<polygon fill="black" stroke="black" points="61.13,-30.52 50.54,-30.08 58.54,-37.03 61.13,-30.52"/>
</g>
<!-- LkClose? -->
<g id="node4" class="node">
<title>LkClose?</title>
<ellipse fill="gray" stroke="black" cx="104.87" cy="-18" rx="28.74" ry="18"/>
<text text-anchor="middle" x="104.87" y="-15.8" font-family="Times,serif" font-size="9.00">LkClose?</text>
</g>
<!-- Sequence&#45;&gt;LkClose? -->
<g id="edge3" class="edge">
<title>Sequence&#45;&gt;LkClose?</title>
<path fill="none" stroke="black" d="M511.38,-87.91C443.04,-84.87 276.48,-73.87 142.87,-36 140.58,-35.35 138.25,-34.59 135.93,-33.75"/>
<polygon fill="black" stroke="black" points="137.15,-30.47 126.57,-30 134.55,-36.97 137.15,-30.47"/>
</g>
<!-- MoveTo!* -->
<g id="node5" class="node">
<title>MoveTo!*</title>
<ellipse fill="gray" stroke="black" cx="183.87" cy="-18" rx="31.51" ry="18"/>
<text text-anchor="middle" x="183.87" y="-15.8" font-family="Times,serif" font-size="9.00">MoveTo!*</text>
</g>
<!-- Sequence&#45;&gt;MoveTo!* -->
<g id="edge4" class="edge">
<title>Sequence&#45;&gt;MoveTo!*</title>
<path fill="none" stroke="black" d="M511.2,-86.14C453.41,-80.38 327.36,-65.37 224.87,-36 222.4,-35.29 219.89,-34.48 217.38,-33.61"/>
<polygon fill="black" stroke="black" points="218.41,-30.26 207.82,-30 215.94,-36.81 218.41,-30.26"/>
</g>
<!-- GetLk! -->
<g id="node6" class="node">
<title>GetLk!</title>
<ellipse fill="gray" stroke="black" cx="260.87" cy="-18" rx="27" ry="18"/>
<text text-anchor="middle" x="260.87" y="-15.8" font-family="Times,serif" font-size="9.00">GetLk!</text>
</g>
<!-- Sequence&#45;&gt;GetLk! -->
<g id="edge5" class="edge">
<title>Sequence&#45;&gt;GetLk!</title>
<path fill="none" stroke="black" d="M511.57,-84.61C464.23,-77.45 371.97,-61.45 296.87,-36 294.95,-35.35 293.01,-34.63 291.06,-33.86"/>
<polygon fill="black" stroke="black" points="292.04,-30.47 281.47,-29.72 289.26,-36.9 292.04,-30.47"/>
</g>
<!-- ReachGoal? -->
<g id="node7" class="node">
<title>ReachGoal?</title>
<ellipse fill="gray" stroke="black" cx="339.87" cy="-18" rx="34.13" ry="18"/>
<text text-anchor="middle" x="339.87" y="-15.8" font-family="Times,serif" font-size="9.00">ReachGoal?</text>
</g>
<!-- Sequence&#45;&gt;ReachGoal? -->
<g id="edge6" class="edge">
<title>Sequence&#45;&gt;ReachGoal?</title>
<path fill="none" stroke="black" d="M514.95,-80.28C482.9,-70.15 428.8,-52.67 382.87,-36 380.49,-35.14 378.05,-34.23 375.59,-33.3"/>
<polygon fill="black" stroke="black" points="376.75,-30 366.16,-29.67 374.23,-36.53 376.75,-30"/>
</g>
<!-- GetLk!* -->
<g id="node8" class="node">
<title>GetLk!*</title>
<ellipse fill="gray" stroke="black" cx="418.87" cy="-18" rx="27.27" ry="18"/>
<text text-anchor="middle" x="418.87" y="-15.8" font-family="Times,serif" font-size="9.00">GetLk!*</text>
</g>
<!-- Sequence&#45;&gt;GetLk!* -->
<g id="edge7" class="edge">
<title>Sequence&#45;&gt;GetLk!*</title>
<path fill="none" stroke="black" d="M521.27,-76.81C500.9,-65.31 470.23,-47.99 447.76,-35.31"/>
<polygon fill="black" stroke="black" points="449.42,-32.23 438.99,-30.36 445.98,-38.32 449.42,-32.23"/>
</g>
<!-- MoveTo!** -->
<g id="node9" class="node">
<title>MoveTo!**</title>
<ellipse fill="gray" stroke="black" cx="497.87" cy="-18" rx="34.13" ry="18"/>
<text text-anchor="middle" x="497.87" y="-15.8" font-family="Times,serif" font-size="9.00">MoveTo!**</text>
</g>
<!-- Sequence&#45;&gt;MoveTo!** -->
<g id="edge8" class="edge">
<title>Sequence&#45;&gt;MoveTo!**</title>
<path fill="none" stroke="black" d="M531.74,-71.7C526.3,-63.23 519.65,-52.89 513.69,-43.61"/>
<polygon fill="black" stroke="black" points="516.6,-41.66 508.25,-35.14 510.71,-45.45 516.6,-41.66"/>
</g>
<!-- MoveTo!*** -->
<g id="node10" class="node">
<title>MoveTo!***</title>
<ellipse fill="gray" stroke="black" cx="586.87" cy="-18" rx="36.9" ry="18"/>
<text text-anchor="middle" x="586.87" y="-15.8" font-family="Times,serif" font-size="9.00">MoveTo!***</text>
</g>
<!-- Sequence&#45;&gt;MoveTo!*** -->
<g id="edge9" class="edge">
<title>Sequence&#45;&gt;MoveTo!***</title>
<path fill="none" stroke="black" d="M553.74,-71.7C558.94,-63.44 565.25,-53.39 570.97,-44.3"/>
<polygon fill="black" stroke="black" points="574.06,-45.95 576.42,-35.62 568.13,-42.23 574.06,-45.95"/>
</g>
<!-- LkClose?* -->
<g id="node11" class="node">
<title>LkClose?*</title>
<ellipse fill="gray" stroke="black" cx="673.87" cy="-18" rx="31.51" ry="18"/>
<text text-anchor="middle" x="673.87" y="-15.8" font-family="Times,serif" font-size="9.00">LkClose?*</text>
</g>
<!-- Sequence&#45;&gt;LkClose?* -->
<g id="edge10" class="edge">
<title>Sequence&#45;&gt;LkClose?*</title>
<path fill="none" stroke="black" d="M565.09,-77.13C586.36,-65.76 618.64,-48.51 642.52,-35.75"/>
<polygon fill="black" stroke="black" points="644.37,-38.73 651.54,-30.93 641.07,-32.56 644.37,-38.73"/>
</g>
<!-- MoveTo!**** -->
<g id="node12" class="node">
<title>MoveTo!****</title>
<ellipse fill="gray" stroke="black" cx="762.87" cy="-18" rx="39.02" ry="18"/>
<text text-anchor="middle" x="762.87" y="-15.8" font-family="Times,serif" font-size="9.00">MoveTo!****</text>
</g>
<!-- Sequence&#45;&gt;MoveTo!**** -->
<g id="edge11" class="edge">
<title>Sequence&#45;&gt;MoveTo!****</title>
<path fill="none" stroke="black" d="M571.29,-80.64C605.49,-70.48 664.59,-52.64 714.87,-36 717.62,-35.09 720.46,-34.13 723.31,-33.16"/>
<polygon fill="black" stroke="black" points="724.67,-36.39 732.98,-29.8 722.38,-29.77 724.67,-36.39"/>
</g>
<!-- MoveTo!***** -->
<g id="node13" class="node">
<title>MoveTo!*****</title>
<ellipse fill="gray" stroke="black" cx="861.87" cy="-18" rx="42.29" ry="18"/>
<text text-anchor="middle" x="861.87" y="-15.8" font-family="Times,serif" font-size="9.00">MoveTo!*****</text>
</g>
<!-- Sequence&#45;&gt;MoveTo!***** -->
<g id="edge12" class="edge">
<title>Sequence&#45;&gt;MoveTo!*****</title>
<path fill="none" stroke="black" d="M574.52,-84.07C624.96,-75.93 726.5,-58.31 810.87,-36 814.07,-35.15 817.37,-34.21 820.67,-33.22"/>
<polygon fill="black" stroke="black" points="822,-36.48 830.5,-30.15 819.91,-29.8 822,-36.48"/>
</g>
<!-- CompLkGraph! -->
<g id="node14" class="node">
<title>CompLkGraph!</title>
<ellipse fill="gray" stroke="black" cx="964.87" cy="-18" rx="42.95" ry="18"/>
<text text-anchor="middle" x="964.87" y="-15.8" font-family="Times,serif" font-size="9.00">CompLkGraph!</text>
</g>
<!-- Sequence&#45;&gt;CompLkGraph! -->
<g id="edge13" class="edge">
<title>Sequence&#45;&gt;CompLkGraph!</title>
<path fill="none" stroke="black" d="M574.39,-86.35C638.69,-80.53 789.32,-64.81 912.87,-36 916.45,-35.16 920.15,-34.19 923.83,-33.14"/>
<polygon fill="black" stroke="black" points="924.93,-36.47 933.49,-30.23 922.91,-29.76 924.93,-36.47"/>
</g>
<!-- MoveTo!****** -->
<g id="node15" class="node">
<title>MoveTo!******</title>
<ellipse fill="gray" stroke="black" cx="1069.87" cy="-18" rx="44.41" ry="18"/>
<text text-anchor="middle" x="1069.87" y="-15.8" font-family="Times,serif" font-size="9.00">MoveTo!******</text>
</g>
<!-- Sequence&#45;&gt;MoveTo!****** -->
<g id="edge14" class="edge">
<title>Sequence&#45;&gt;MoveTo!******</title>
<path fill="none" stroke="black" d="M574.27,-87.65C650.76,-83.89 852.5,-71.18 1016.87,-36 1020.48,-35.23 1024.2,-34.3 1027.91,-33.3"/>
<polygon fill="black" stroke="black" points="1029.01,-36.62 1037.63,-30.47 1027.05,-29.9 1029.01,-36.62"/>
</g>
<!-- GetSubGoal! -->
<g id="node17" class="node">
<title>GetSubGoal!</title>
<ellipse fill="gray" stroke="black" cx="1168.87" cy="-18" rx="36.9" ry="18"/>
<text text-anchor="middle" x="1168.87" y="-15.8" font-family="Times,serif" font-size="9.00">GetSubGoal!</text>
</g>
<!-- Sequence*&#45;&gt;GetSubGoal! -->
<g id="edge16" class="edge">
<title>Sequence*&#45;&gt;GetSubGoal!</title>
<path fill="none" stroke="black" d="M1250.23,-74.83C1235.16,-64.49 1214.53,-50.33 1197.81,-38.86"/>
<polygon fill="black" stroke="black" points="1199.7,-35.92 1189.48,-33.14 1195.74,-41.69 1199.7,-35.92"/>
</g>
<!-- MoveTo!******* -->
<g id="node18" class="node">
<title>MoveTo!*******</title>
<ellipse fill="gray" stroke="black" cx="1270.87" cy="-18" rx="47.19" ry="18"/>
<text text-anchor="middle" x="1270.87" y="-15.8" font-family="Times,serif" font-size="9.00">MoveTo!*******</text>
</g>
<!-- Sequence*&#45;&gt;MoveTo!******* -->
<g id="edge17" class="edge">
<title>Sequence*&#45;&gt;MoveTo!*******</title>
<path fill="none" stroke="black" d="M1270.87,-71.7C1270.87,-63.98 1270.87,-54.71 1270.87,-46.11"/>
<polygon fill="black" stroke="black" points="1274.37,-46.1 1270.87,-36.1 1267.37,-46.1 1274.37,-46.1"/>
</g>
<!-- MoveTo!******** -->
<g id="node19" class="node">
<title>MoveTo!********</title>
<ellipse fill="gray" stroke="black" cx="1385.87" cy="-18" rx="49.8" ry="18"/>
<text text-anchor="middle" x="1385.87" y="-15.8" font-family="Times,serif" font-size="9.00">MoveTo!********</text>
</g>
<!-- Sequence*&#45;&gt;MoveTo!******** -->
<g id="edge18" class="edge">
<title>Sequence*&#45;&gt;MoveTo!********</title>
<path fill="none" stroke="black" d="M1292.5,-75.83C1309.54,-65.46 1333.57,-50.83 1352.99,-39.01"/>
<polygon fill="black" stroke="black" points="1354.82,-41.99 1361.55,-33.8 1351.19,-36.01 1354.82,-41.99"/>
</g>
<!-- ReachGoal?* -->
<g id="node20" class="node">
<title>ReachGoal?*</title>
<ellipse fill="gray" stroke="black" cx="1490.87" cy="-18" rx="36.9" ry="18"/>
<text text-anchor="middle" x="1490.87" y="-15.8" font-family="Times,serif" font-size="9.00">ReachGoal?*</text>
</g>
<!-- Sequence*&#45;&gt;ReachGoal?* -->
<g id="edge19" class="edge">
<title>Sequence*&#45;&gt;ReachGoal?*</title>
<path fill="none" stroke="black" d="M1297.08,-78.12C1302.59,-75.98 1308.39,-73.83 1313.87,-72 1371.14,-52.87 1387.39,-54.48 1444.87,-36 1447.6,-35.12 1450.42,-34.18 1453.24,-33.2"/>
<polygon fill="black" stroke="black" points="1454.53,-36.46 1462.78,-29.81 1452.19,-29.86 1454.53,-36.46"/>
</g>
</g>
</svg>
