<?xml version="1.0" encoding="UTF-8" standalone="no"?>
<!DOCTYPE svg PUBLIC "-//W3C//DTD SVG 1.1//EN"
 "http://www.w3.org/Graphics/SVG/1.1/DTD/svg11.dtd">
<!-- Generated by graphviz version 2.43.0 (0)
 -->
<!-- Title: pastafarianism Pages: 1 -->
<svg width="1437pt" height="188pt"
 viewBox="0.00 0.00 1436.59 188.00" xmlns="http://www.w3.org/2000/svg" xmlns:xlink="http://www.w3.org/1999/xlink">
<g id="graph0" class="graph" transform="scale(1 1) rotate(0) translate(4 184)">
<title>pastafarianism</title>
<polygon fill="white" stroke="transparent" points="-4,4 -4,-184 1432.59,-184 1432.59,4 -4,4"/>
<!-- Fallback -->
<g id="node1" class="node">
<title>Fallback</title>
<polygon fill="cyan" stroke="black" points="1197.11,-154.54 1197.11,-169.46 1179.98,-180 1155.75,-180 1138.62,-169.46 1138.62,-154.54 1155.75,-144 1179.98,-144 1197.11,-154.54"/>
<text text-anchor="middle" x="1167.87" y="-159.8" font-family="Times,serif" font-size="9.00">Fallback</text>
</g>
<!-- Sequence -->
<g id="node2" class="node">
<title>Sequence</title>
<polygon fill="cyan" stroke="black" points="488.36,-82.54 488.36,-97.46 469.91,-108 443.82,-108 425.37,-97.46 425.37,-82.54 443.82,-72 469.91,-72 488.36,-82.54"/>
<text text-anchor="middle" x="456.87" y="-87.8" font-family="Times,serif" font-size="9.00">Sequence</text>
</g>
<!-- Fallback&#45;&gt;Sequence -->
<g id="edge1" class="edge">
<title>Fallback&#45;&gt;Sequence</title>
<path fill="none" stroke="black" d="M1138.22,-158.08C1026.14,-147.05 628.08,-107.86 498.19,-95.07"/>
<polygon fill="black" stroke="black" points="498.53,-91.59 488.24,-94.09 497.85,-98.55 498.53,-91.59"/>
</g>
<!-- Sequence* -->
<g id="node14" class="node">
<title>Sequence*</title>
<polygon fill="cyan" stroke="black" points="1116.11,-82.54 1116.11,-97.46 1096.05,-108 1067.68,-108 1047.63,-97.46 1047.63,-82.54 1067.68,-72 1096.05,-72 1116.11,-82.54"/>
<text text-anchor="middle" x="1081.87" y="-87.8" font-family="Times,serif" font-size="9.00">Sequence*</text>
</g>
<!-- Fallback&#45;&gt;Sequence* -->
<g id="edge13" class="edge">
<title>Fallback&#45;&gt;Sequence*</title>
<path fill="none" stroke="black" d="M1150.46,-146.83C1138.35,-136.98 1121.98,-123.65 1108.27,-112.49"/>
<polygon fill="black" stroke="black" points="1110.1,-109.47 1100.14,-105.87 1105.68,-114.9 1110.1,-109.47"/>
</g>
<!-- LkClose?** -->
<g id="node19" class="node">
<title>LkClose?**</title>
<ellipse fill="gray" stroke="black" cx="1167.87" cy="-90" rx="34.13" ry="18"/>
<text text-anchor="middle" x="1167.87" y="-87.8" font-family="Times,serif" font-size="9.00">LkClose?**</text>
</g>
<!-- Fallback&#45;&gt;LkClose?** -->
<g id="edge18" class="edge">
<title>Fallback&#45;&gt;LkClose?**</title>
<path fill="none" stroke="black" d="M1167.87,-143.7C1167.87,-135.98 1167.87,-126.71 1167.87,-118.11"/>
<polygon fill="black" stroke="black" points="1171.37,-118.1 1167.87,-108.1 1164.37,-118.1 1171.37,-118.1"/>
</g>
<!-- MoveTo!********* -->
<g id="node20" class="node">
<title>MoveTo!*********</title>
<ellipse fill="gray" stroke="black" cx="1272.87" cy="-90" rx="52.58" ry="18"/>
<text text-anchor="middle" x="1272.87" y="-87.8" font-family="Times,serif" font-size="9.00">MoveTo!*********</text>
</g>
<!-- Fallback&#45;&gt;MoveTo!********* -->
<g id="edge19" class="edge">
<title>Fallback&#45;&gt;MoveTo!*********</title>
<path fill="none" stroke="black" d="M1187.13,-148.16C1202.15,-138.14 1223.34,-124.02 1240.9,-112.31"/>
<polygon fill="black" stroke="black" points="1243.32,-114.9 1249.7,-106.45 1239.44,-109.08 1243.32,-114.9"/>
</g>
<!-- CompLkGraph! -->
<g id="node21" class="node">
<title>CompLkGraph!</title>
<ellipse fill="gray" stroke="black" cx="1385.87" cy="-90" rx="42.95" ry="18"/>
<text text-anchor="middle" x="1385.87" y="-87.8" font-family="Times,serif" font-size="9.00">CompLkGraph!</text>
</g>
<!-- Fallback&#45;&gt;CompLkGraph! -->
<g id="edge20" class="edge">
<title>Fallback&#45;&gt;CompLkGraph!</title>
<path fill="none" stroke="black" d="M1194.23,-152.76C1227.17,-142.44 1285.26,-124.14 1334.87,-108 1337.79,-107.05 1340.81,-106.06 1343.84,-105.06"/>
<polygon fill="black" stroke="black" points="1345.12,-108.33 1353.52,-101.86 1342.92,-101.68 1345.12,-108.33"/>
</g>
<!-- MoveTo! -->
<g id="node3" class="node">
<title>MoveTo!</title>
<ellipse fill="gray" stroke="black" cx="28.87" cy="-18" rx="28.74" ry="18"/>
<text text-anchor="middle" x="28.87" y="-15.8" font-family="Times,serif" font-size="9.00">MoveTo!</text>
</g>
<!-- Sequence&#45;&gt;MoveTo! -->
<g id="edge2" class="edge">
<title>Sequence&#45;&gt;MoveTo!</title>
<path fill="none" stroke="black" d="M425.41,-87.76C358.3,-84.46 196.64,-73.02 66.87,-36 64.58,-35.35 62.25,-34.58 59.93,-33.74"/>
<polygon fill="black" stroke="black" points="61.16,-30.46 50.57,-29.98 58.55,-36.96 61.16,-30.46"/>
</g>
<!-- LkClose? -->
<g id="node4" class="node">
<title>LkClose?</title>
<ellipse fill="gray" stroke="black" cx="104.87" cy="-18" rx="28.74" ry="18"/>
<text text-anchor="middle" x="104.87" y="-15.8" font-family="Times,serif" font-size="9.00">LkClose?</text>
</g>
<!-- Sequence&#45;&gt;LkClose? -->
<g id="edge3" class="edge">
<title>Sequence&#45;&gt;LkClose?</title>
<path fill="none" stroke="black" d="M425.52,-86.36C368.33,-80.96 243.67,-66.51 142.87,-36 140.59,-35.31 138.27,-34.52 135.96,-33.66"/>
<polygon fill="black" stroke="black" points="137.19,-30.38 126.61,-29.86 134.55,-36.87 137.19,-30.38"/>
</g>
<!-- MoveTo!* -->
<g id="node5" class="node">
<title>MoveTo!*</title>
<ellipse fill="gray" stroke="black" cx="183.87" cy="-18" rx="31.51" ry="18"/>
<text text-anchor="middle" x="183.87" y="-15.8" font-family="Times,serif" font-size="9.00">MoveTo!*</text>
</g>
<!-- Sequence&#45;&gt;MoveTo!* -->
<g id="edge4" class="edge">
<title>Sequence&#45;&gt;MoveTo!*</title>
<path fill="none" stroke="black" d="M425.27,-83.53C380.2,-75.34 295.13,-58.42 224.87,-36 222.58,-35.27 220.23,-34.46 217.89,-33.61"/>
<polygon fill="black" stroke="black" points="218.92,-30.26 208.33,-29.93 216.41,-36.79 218.92,-30.26"/>
</g>
<!-- GetLk! -->
<g id="node6" class="node">
<title>GetLk!</title>
<ellipse fill="gray" stroke="black" cx="260.87" cy="-18" rx="27" ry="18"/>
<text text-anchor="middle" x="260.87" y="-15.8" font-family="Times,serif" font-size="9.00">GetLk!</text>
</g>
<!-- Sequence&#45;&gt;GetLk! -->
<g id="edge5" class="edge">
<title>Sequence&#45;&gt;GetLk!</title>
<path fill="none" stroke="black" d="M428.46,-80.73C396.18,-71.07 342.1,-54.1 296.87,-36 295.04,-35.27 293.17,-34.49 291.3,-33.68"/>
<polygon fill="black" stroke="black" points="292.55,-30.41 282,-29.5 289.68,-36.79 292.55,-30.41"/>
</g>
<!-- GetLk!* -->
<g id="node7" class="node">
<title>GetLk!*</title>
<ellipse fill="gray" stroke="black" cx="332.87" cy="-18" rx="27.27" ry="18"/>
<text text-anchor="middle" x="332.87" y="-15.8" font-family="Times,serif" font-size="9.00">GetLk!*</text>
</g>
<!-- Sequence&#45;&gt;GetLk!* -->
<g id="edge6" class="edge">
<title>Sequence&#45;&gt;GetLk!*</title>
<path fill="none" stroke="black" d="M435.27,-76.81C414.9,-65.31 384.23,-47.99 361.76,-35.31"/>
<polygon fill="black" stroke="black" points="363.42,-32.23 352.99,-30.36 359.98,-38.32 363.42,-32.23"/>
</g>
<!-- MoveTo!** -->
<g id="node8" class="node">
<title>MoveTo!**</title>
<ellipse fill="gray" stroke="black" cx="411.87" cy="-18" rx="34.13" ry="18"/>
<text text-anchor="middle" x="411.87" y="-15.8" font-family="Times,serif" font-size="9.00">MoveTo!**</text>
</g>
<!-- Sequence&#45;&gt;MoveTo!** -->
<g id="edge7" class="edge">
<title>Sequence&#45;&gt;MoveTo!**</title>
<path fill="none" stroke="black" d="M445.74,-71.7C440.3,-63.23 433.65,-52.89 427.69,-43.61"/>
<polygon fill="black" stroke="black" points="430.6,-41.66 422.25,-35.14 424.71,-45.45 430.6,-41.66"/>
</g>
<!-- MoveTo!*** -->
<g id="node9" class="node">
<title>MoveTo!***</title>
<ellipse fill="gray" stroke="black" cx="500.87" cy="-18" rx="36.9" ry="18"/>
<text text-anchor="middle" x="500.87" y="-15.8" font-family="Times,serif" font-size="9.00">MoveTo!***</text>
</g>
<!-- Sequence&#45;&gt;MoveTo!*** -->
<g id="edge8" class="edge">
<title>Sequence&#45;&gt;MoveTo!***</title>
<path fill="none" stroke="black" d="M467.74,-71.7C472.94,-63.44 479.25,-53.39 484.97,-44.3"/>
<polygon fill="black" stroke="black" points="488.06,-45.95 490.42,-35.62 482.13,-42.23 488.06,-45.95"/>
</g>
<!-- LkClose?* -->
<g id="node10" class="node">
<title>LkClose?*</title>
<ellipse fill="gray" stroke="black" cx="587.87" cy="-18" rx="31.51" ry="18"/>
<text text-anchor="middle" x="587.87" y="-15.8" font-family="Times,serif" font-size="9.00">LkClose?*</text>
</g>
<!-- Sequence&#45;&gt;LkClose?* -->
<g id="edge9" class="edge">
<title>Sequence&#45;&gt;LkClose?*</title>
<path fill="none" stroke="black" d="M479.09,-77.13C500.36,-65.76 532.64,-48.51 556.52,-35.75"/>
<polygon fill="black" stroke="black" points="558.37,-38.73 565.54,-30.93 555.07,-32.56 558.37,-38.73"/>
</g>
<!-- MoveTo!**** -->
<g id="node11" class="node">
<title>MoveTo!****</title>
<ellipse fill="gray" stroke="black" cx="676.87" cy="-18" rx="39.02" ry="18"/>
<text text-anchor="middle" x="676.87" y="-15.8" font-family="Times,serif" font-size="9.00">MoveTo!****</text>
</g>
<!-- Sequence&#45;&gt;MoveTo!**** -->
<g id="edge10" class="edge">
<title>Sequence&#45;&gt;MoveTo!****</title>
<path fill="none" stroke="black" d="M485.29,-80.64C519.49,-70.48 578.59,-52.64 628.87,-36 631.62,-35.09 634.46,-34.13 637.31,-33.16"/>
<polygon fill="black" stroke="black" points="638.67,-36.39 646.98,-29.8 636.38,-29.77 638.67,-36.39"/>
</g>
<!-- MoveTo!***** -->
<g id="node12" class="node">
<title>MoveTo!*****</title>
<ellipse fill="gray" stroke="black" cx="775.87" cy="-18" rx="42.29" ry="18"/>
<text text-anchor="middle" x="775.87" y="-15.8" font-family="Times,serif" font-size="9.00">MoveTo!*****</text>
</g>
<!-- Sequence&#45;&gt;MoveTo!***** -->
<g id="edge11" class="edge">
<title>Sequence&#45;&gt;MoveTo!*****</title>
<path fill="none" stroke="black" d="M488.52,-84.07C538.96,-75.93 640.5,-58.31 724.87,-36 728.07,-35.15 731.37,-34.21 734.67,-33.22"/>
<polygon fill="black" stroke="black" points="736,-36.48 744.5,-30.15 733.91,-29.8 736,-36.48"/>
</g>
<!-- MoveTo!****** -->
<g id="node13" class="node">
<title>MoveTo!******</title>
<ellipse fill="gray" stroke="black" cx="880.87" cy="-18" rx="44.41" ry="18"/>
<text text-anchor="middle" x="880.87" y="-15.8" font-family="Times,serif" font-size="9.00">MoveTo!******</text>
</g>
<!-- Sequence&#45;&gt;MoveTo!****** -->
<g id="edge12" class="edge">
<title>Sequence&#45;&gt;MoveTo!******</title>
<path fill="none" stroke="black" d="M488.37,-86.23C552.62,-80.21 703.16,-64.14 826.87,-36 830.53,-35.17 834.31,-34.2 838.08,-33.17"/>
<polygon fill="black" stroke="black" points="839.35,-36.44 847.97,-30.29 837.39,-29.72 839.35,-36.44"/>
</g>
<!-- GetSubGoal! -->
<g id="node15" class="node">
<title>GetSubGoal!</title>
<ellipse fill="gray" stroke="black" cx="979.87" cy="-18" rx="36.9" ry="18"/>
<text text-anchor="middle" x="979.87" y="-15.8" font-family="Times,serif" font-size="9.00">GetSubGoal!</text>
</g>
<!-- Sequence*&#45;&gt;GetSubGoal! -->
<g id="edge14" class="edge">
<title>Sequence*&#45;&gt;GetSubGoal!</title>
<path fill="none" stroke="black" d="M1061.23,-74.83C1046.16,-64.49 1025.53,-50.33 1008.81,-38.86"/>
<polygon fill="black" stroke="black" points="1010.7,-35.92 1000.48,-33.14 1006.74,-41.69 1010.7,-35.92"/>
</g>
<!-- MoveTo!******* -->
<g id="node16" class="node">
<title>MoveTo!*******</title>
<ellipse fill="gray" stroke="black" cx="1081.87" cy="-18" rx="47.19" ry="18"/>
<text text-anchor="middle" x="1081.87" y="-15.8" font-family="Times,serif" font-size="9.00">MoveTo!*******</text>
</g>
<!-- Sequence*&#45;&gt;MoveTo!******* -->
<g id="edge15" class="edge">
<title>Sequence*&#45;&gt;MoveTo!*******</title>
<path fill="none" stroke="black" d="M1081.87,-71.7C1081.87,-63.98 1081.87,-54.71 1081.87,-46.11"/>
<polygon fill="black" stroke="black" points="1085.37,-46.1 1081.87,-36.1 1078.37,-46.1 1085.37,-46.1"/>
</g>
<!-- MoveTo!******** -->
<g id="node17" class="node">
<title>MoveTo!********</title>
<ellipse fill="gray" stroke="black" cx="1196.87" cy="-18" rx="49.8" ry="18"/>
<text text-anchor="middle" x="1196.87" y="-15.8" font-family="Times,serif" font-size="9.00">MoveTo!********</text>
</g>
<!-- Sequence*&#45;&gt;MoveTo!******** -->
<g id="edge16" class="edge">
<title>Sequence*&#45;&gt;MoveTo!********</title>
<path fill="none" stroke="black" d="M1103.5,-75.83C1120.54,-65.46 1144.57,-50.83 1163.99,-39.01"/>
<polygon fill="black" stroke="black" points="1165.82,-41.99 1172.55,-33.8 1162.19,-36.01 1165.82,-41.99"/>
</g>
<!-- ReachGoal? -->
<g id="node18" class="node">
<title>ReachGoal?</title>
<ellipse fill="gray" stroke="black" cx="1298.87" cy="-18" rx="34.13" ry="18"/>
<text text-anchor="middle" x="1298.87" y="-15.8" font-family="Times,serif" font-size="9.00">ReachGoal?</text>
</g>
<!-- Sequence*&#45;&gt;ReachGoal? -->
<g id="edge17" class="edge">
<title>Sequence*&#45;&gt;ReachGoal?</title>
<path fill="none" stroke="black" d="M1108.08,-78.12C1113.59,-75.98 1119.39,-73.83 1124.87,-72 1182.14,-52.87 1198.6,-55.13 1255.87,-36 1258.27,-35.2 1260.73,-34.34 1263.19,-33.44"/>
<polygon fill="black" stroke="black" points="1264.53,-36.68 1272.65,-29.88 1262.06,-30.13 1264.53,-36.68"/>
</g>
</g>
</svg>
