<?xml version="1.0" encoding="UTF-8" standalone="no"?>
<!DOCTYPE svg PUBLIC "-//W3C//DTD SVG 1.1//EN"
 "http://www.w3.org/Graphics/SVG/1.1/DTD/svg11.dtd">
<!-- Generated by graphviz version 2.43.0 (0)
 -->
<!-- Title: pastafarianism Pages: 1 -->
<svg width="1194pt" height="188pt"
 viewBox="0.00 0.00 1193.59 188.00" xmlns="http://www.w3.org/2000/svg" xmlns:xlink="http://www.w3.org/1999/xlink">
<g id="graph0" class="graph" transform="scale(1 1) rotate(0) translate(4 184)">
<title>pastafarianism</title>
<polygon fill="white" stroke="transparent" points="-4,4 -4,-184 1189.59,-184 1189.59,4 -4,4"/>
<!-- Fallback -->
<g id="node1" class="node">
<title>Fallback</title>
<polygon fill="cyan" stroke="black" points="970.11,-154.54 970.11,-169.46 952.98,-180 928.75,-180 911.62,-169.46 911.62,-154.54 928.75,-144 952.98,-144 970.11,-154.54"/>
<text text-anchor="middle" x="940.87" y="-159.8" font-family="Times,serif" font-size="9.00">Fallback</text>
</g>
<!-- Sequence -->
<g id="node2" class="node">
<title>Sequence</title>
<polygon fill="cyan" stroke="black" points="411.36,-82.54 411.36,-97.46 392.91,-108 366.82,-108 348.37,-97.46 348.37,-82.54 366.82,-72 392.91,-72 411.36,-82.54"/>
<text text-anchor="middle" x="379.87" y="-87.8" font-family="Times,serif" font-size="9.00">Sequence</text>
</g>
<!-- Fallback&#45;&gt;Sequence -->
<g id="edge1" class="edge">
<title>Fallback&#45;&gt;Sequence</title>
<path fill="none" stroke="black" d="M911.5,-157.34C818.44,-145.72 529.92,-109.72 421.56,-96.2"/>
<polygon fill="black" stroke="black" points="421.7,-92.69 411.35,-94.93 420.84,-99.64 421.7,-92.69"/>
</g>
<!-- Sequence* -->
<g id="node12" class="node">
<title>Sequence*</title>
<polygon fill="cyan" stroke="black" points="889.11,-82.54 889.11,-97.46 869.05,-108 840.68,-108 820.63,-97.46 820.63,-82.54 840.68,-72 869.05,-72 889.11,-82.54"/>
<text text-anchor="middle" x="854.87" y="-87.8" font-family="Times,serif" font-size="9.00">Sequence*</text>
</g>
<!-- Fallback&#45;&gt;Sequence* -->
<g id="edge11" class="edge">
<title>Fallback&#45;&gt;Sequence*</title>
<path fill="none" stroke="black" d="M923.46,-146.83C911.35,-136.98 894.98,-123.65 881.27,-112.49"/>
<polygon fill="black" stroke="black" points="883.1,-109.47 873.14,-105.87 878.68,-114.9 883.1,-109.47"/>
</g>
<!-- LkClose?** -->
<g id="node17" class="node">
<title>LkClose?**</title>
<ellipse fill="gray" stroke="black" cx="940.87" cy="-90" rx="34.13" ry="18"/>
<text text-anchor="middle" x="940.87" y="-87.8" font-family="Times,serif" font-size="9.00">LkClose?**</text>
</g>
<!-- Fallback&#45;&gt;LkClose?** -->
<g id="edge16" class="edge">
<title>Fallback&#45;&gt;LkClose?**</title>
<path fill="none" stroke="black" d="M940.87,-143.7C940.87,-135.98 940.87,-126.71 940.87,-118.11"/>
<polygon fill="black" stroke="black" points="944.37,-118.1 940.87,-108.1 937.37,-118.1 944.37,-118.1"/>
</g>
<!-- MoveTo!****** -->
<g id="node18" class="node">
<title>MoveTo!******</title>
<ellipse fill="gray" stroke="black" cx="1037.87" cy="-90" rx="44.41" ry="18"/>
<text text-anchor="middle" x="1037.87" y="-87.8" font-family="Times,serif" font-size="9.00">MoveTo!******</text>
</g>
<!-- Fallback&#45;&gt;MoveTo!****** -->
<g id="edge17" class="edge">
<title>Fallback&#45;&gt;MoveTo!******</title>
<path fill="none" stroke="black" d="M959.57,-147.5C973.41,-137.51 992.54,-123.71 1008.43,-112.25"/>
<polygon fill="black" stroke="black" points="1010.8,-114.85 1016.86,-106.16 1006.71,-109.17 1010.8,-114.85"/>
</g>
<!-- CompLkGraph! -->
<g id="node19" class="node">
<title>CompLkGraph!</title>
<ellipse fill="gray" stroke="black" cx="1142.87" cy="-90" rx="42.95" ry="18"/>
<text text-anchor="middle" x="1142.87" y="-87.8" font-family="Times,serif" font-size="9.00">CompLkGraph!</text>
</g>
<!-- Fallback&#45;&gt;CompLkGraph! -->
<g id="edge18" class="edge">
<title>Fallback&#45;&gt;CompLkGraph!</title>
<path fill="none" stroke="black" d="M966.45,-152.13C1000.39,-140.38 1060.71,-119.47 1101.25,-105.42"/>
<polygon fill="black" stroke="black" points="1102.54,-108.68 1110.84,-102.1 1100.25,-102.07 1102.54,-108.68"/>
</g>
<!-- MoveTo! -->
<g id="node3" class="node">
<title>MoveTo!</title>
<ellipse fill="gray" stroke="black" cx="28.87" cy="-18" rx="28.74" ry="18"/>
<text text-anchor="middle" x="28.87" y="-15.8" font-family="Times,serif" font-size="9.00">MoveTo!</text>
</g>
<!-- Sequence&#45;&gt;MoveTo! -->
<g id="edge2" class="edge">
<title>Sequence&#45;&gt;MoveTo!</title>
<path fill="none" stroke="black" d="M348.62,-86.35C291.61,-80.93 167.35,-66.44 66.87,-36 64.59,-35.31 62.27,-34.52 59.96,-33.66"/>
<polygon fill="black" stroke="black" points="61.19,-30.38 50.61,-29.86 58.55,-36.87 61.19,-30.38"/>
</g>
<!-- LkClose? -->
<g id="node4" class="node">
<title>LkClose?</title>
<ellipse fill="gray" stroke="black" cx="104.87" cy="-18" rx="28.74" ry="18"/>
<text text-anchor="middle" x="104.87" y="-15.8" font-family="Times,serif" font-size="9.00">LkClose?</text>
</g>
<!-- Sequence&#45;&gt;LkClose? -->
<g id="edge3" class="edge">
<title>Sequence&#45;&gt;LkClose?</title>
<path fill="none" stroke="black" d="M348.27,-84.01C302.32,-76.3 214.7,-59.83 142.87,-36 140.75,-35.3 138.59,-34.52 136.43,-33.69"/>
<polygon fill="black" stroke="black" points="137.66,-30.41 127.08,-29.83 134.99,-36.88 137.66,-30.41"/>
</g>
<!-- MoveTo!* -->
<g id="node5" class="node">
<title>MoveTo!*</title>
<ellipse fill="gray" stroke="black" cx="183.87" cy="-18" rx="31.51" ry="18"/>
<text text-anchor="middle" x="183.87" y="-15.8" font-family="Times,serif" font-size="9.00">MoveTo!*</text>
</g>
<!-- Sequence&#45;&gt;MoveTo!* -->
<g id="edge4" class="edge">
<title>Sequence&#45;&gt;MoveTo!*</title>
<path fill="none" stroke="black" d="M352.24,-80.14C321.09,-70.02 269.03,-52.69 224.87,-36 222.62,-35.15 220.31,-34.25 217.98,-33.34"/>
<polygon fill="black" stroke="black" points="219.07,-30 208.48,-29.5 216.45,-36.49 219.07,-30"/>
</g>
<!-- GetLk! -->
<g id="node6" class="node">
<title>GetLk!</title>
<ellipse fill="gray" stroke="black" cx="260.87" cy="-18" rx="27" ry="18"/>
<text text-anchor="middle" x="260.87" y="-15.8" font-family="Times,serif" font-size="9.00">GetLk!</text>
</g>
<!-- Sequence&#45;&gt;GetLk! -->
<g id="edge5" class="edge">
<title>Sequence&#45;&gt;GetLk!</title>
<path fill="none" stroke="black" d="M358.59,-76.49C339.17,-65.06 310.33,-48.1 289.01,-35.55"/>
<polygon fill="black" stroke="black" points="290.77,-32.53 280.38,-30.48 287.23,-38.57 290.77,-32.53"/>
</g>
<!-- ReachGoal? -->
<g id="node7" class="node">
<title>ReachGoal?</title>
<ellipse fill="gray" stroke="black" cx="339.87" cy="-18" rx="34.13" ry="18"/>
<text text-anchor="middle" x="339.87" y="-15.8" font-family="Times,serif" font-size="9.00">ReachGoal?</text>
</g>
<!-- Sequence&#45;&gt;ReachGoal? -->
<g id="edge6" class="edge">
<title>Sequence&#45;&gt;ReachGoal?</title>
<path fill="none" stroke="black" d="M369.98,-71.7C365.31,-63.52 359.64,-53.6 354.49,-44.58"/>
<polygon fill="black" stroke="black" points="357.37,-42.57 349.37,-35.62 351.29,-46.04 357.37,-42.57"/>
</g>
<!-- GetLk!* -->
<g id="node8" class="node">
<title>GetLk!*</title>
<ellipse fill="gray" stroke="black" cx="418.87" cy="-18" rx="27.27" ry="18"/>
<text text-anchor="middle" x="418.87" y="-15.8" font-family="Times,serif" font-size="9.00">GetLk!*</text>
</g>
<!-- Sequence&#45;&gt;GetLk!* -->
<g id="edge7" class="edge">
<title>Sequence&#45;&gt;GetLk!*</title>
<path fill="none" stroke="black" d="M389.51,-71.7C394.18,-63.32 399.87,-53.1 405,-43.9"/>
<polygon fill="black" stroke="black" points="408.06,-45.58 409.87,-35.14 401.95,-42.18 408.06,-45.58"/>
</g>
<!-- MoveTo!** -->
<g id="node9" class="node">
<title>MoveTo!**</title>
<ellipse fill="gray" stroke="black" cx="497.87" cy="-18" rx="34.13" ry="18"/>
<text text-anchor="middle" x="497.87" y="-15.8" font-family="Times,serif" font-size="9.00">MoveTo!**</text>
</g>
<!-- Sequence&#45;&gt;MoveTo!** -->
<g id="edge8" class="edge">
<title>Sequence&#45;&gt;MoveTo!**</title>
<path fill="none" stroke="black" d="M400.96,-76.49C419.44,-65.52 446.52,-49.46 467.36,-37.1"/>
<polygon fill="black" stroke="black" points="469.34,-39.99 476.16,-31.88 465.77,-33.97 469.34,-39.99"/>
</g>
<!-- MoveTo!*** -->
<g id="node10" class="node">
<title>MoveTo!***</title>
<ellipse fill="gray" stroke="black" cx="586.87" cy="-18" rx="36.9" ry="18"/>
<text text-anchor="middle" x="586.87" y="-15.8" font-family="Times,serif" font-size="9.00">MoveTo!***</text>
</g>
<!-- Sequence&#45;&gt;MoveTo!*** -->
<g id="edge9" class="edge">
<title>Sequence&#45;&gt;MoveTo!***</title>
<path fill="none" stroke="black" d="M407.6,-80.2C439.77,-69.93 494.33,-52.25 540.87,-36 543.42,-35.11 546.04,-34.18 548.68,-33.23"/>
<polygon fill="black" stroke="black" points="550.01,-36.47 558.22,-29.77 547.62,-29.89 550.01,-36.47"/>
</g>
<!-- LkClose?* -->
<g id="node11" class="node">
<title>LkClose?*</title>
<ellipse fill="gray" stroke="black" cx="673.87" cy="-18" rx="31.51" ry="18"/>
<text text-anchor="middle" x="673.87" y="-15.8" font-family="Times,serif" font-size="9.00">LkClose?*</text>
</g>
<!-- Sequence&#45;&gt;LkClose?* -->
<g id="edge10" class="edge">
<title>Sequence&#45;&gt;LkClose?*</title>
<path fill="none" stroke="black" d="M411.51,-84.32C459.88,-76.73 554.83,-60.12 632.87,-36 635.32,-35.24 637.82,-34.4 640.32,-33.5"/>
<polygon fill="black" stroke="black" points="641.78,-36.68 649.86,-29.83 639.27,-30.15 641.78,-36.68"/>
</g>
<!-- GetSubGoal! -->
<g id="node13" class="node">
<title>GetSubGoal!</title>
<ellipse fill="gray" stroke="black" cx="760.87" cy="-18" rx="36.9" ry="18"/>
<text text-anchor="middle" x="760.87" y="-15.8" font-family="Times,serif" font-size="9.00">GetSubGoal!</text>
</g>
<!-- Sequence*&#45;&gt;GetSubGoal! -->
<g id="edge12" class="edge">
<title>Sequence*&#45;&gt;GetSubGoal!</title>
<path fill="none" stroke="black" d="M835.39,-74.5C821.9,-64.45 803.75,-50.93 788.74,-39.75"/>
<polygon fill="black" stroke="black" points="790.43,-36.65 780.32,-33.49 786.25,-42.27 790.43,-36.65"/>
</g>
<!-- MoveTo!**** -->
<g id="node14" class="node">
<title>MoveTo!****</title>
<ellipse fill="gray" stroke="black" cx="854.87" cy="-18" rx="39.02" ry="18"/>
<text text-anchor="middle" x="854.87" y="-15.8" font-family="Times,serif" font-size="9.00">MoveTo!****</text>
</g>
<!-- Sequence*&#45;&gt;MoveTo!**** -->
<g id="edge13" class="edge">
<title>Sequence*&#45;&gt;MoveTo!****</title>
<path fill="none" stroke="black" d="M854.87,-71.7C854.87,-63.98 854.87,-54.71 854.87,-46.11"/>
<polygon fill="black" stroke="black" points="858.37,-46.1 854.87,-36.1 851.37,-46.1 858.37,-46.1"/>
</g>
<!-- MoveTo!***** -->
<g id="node15" class="node">
<title>MoveTo!*****</title>
<ellipse fill="gray" stroke="black" cx="953.87" cy="-18" rx="42.29" ry="18"/>
<text text-anchor="middle" x="953.87" y="-15.8" font-family="Times,serif" font-size="9.00">MoveTo!*****</text>
</g>
<!-- Sequence*&#45;&gt;MoveTo!***** -->
<g id="edge14" class="edge">
<title>Sequence*&#45;&gt;MoveTo!*****</title>
<path fill="none" stroke="black" d="M874.9,-74.83C889.11,-64.79 908.41,-51.15 924.37,-39.86"/>
<polygon fill="black" stroke="black" points="926.69,-42.5 932.84,-33.87 922.65,-36.78 926.69,-42.5"/>
</g>
<!-- ReachGoal?* -->
<g id="node16" class="node">
<title>ReachGoal?*</title>
<ellipse fill="gray" stroke="black" cx="1050.87" cy="-18" rx="36.9" ry="18"/>
<text text-anchor="middle" x="1050.87" y="-15.8" font-family="Times,serif" font-size="9.00">ReachGoal?*</text>
</g>
<!-- Sequence*&#45;&gt;ReachGoal?* -->
<g id="edge15" class="edge">
<title>Sequence*&#45;&gt;ReachGoal?*</title>
<path fill="none" stroke="black" d="M881.16,-78.35C886.66,-76.2 892.44,-73.98 897.87,-72 944.99,-54.77 957.55,-52.7 1004.87,-36 1007.41,-35.1 1010.04,-34.16 1012.67,-33.21"/>
<polygon fill="black" stroke="black" points="1014.01,-36.45 1022.21,-29.74 1011.61,-29.87 1014.01,-36.45"/>
</g>
</g>
</svg>
