<?xml version="1.0" encoding="UTF-8" standalone="no"?>
<!DOCTYPE svg PUBLIC "-//W3C//DTD SVG 1.1//EN"
 "http://www.w3.org/Graphics/SVG/1.1/DTD/svg11.dtd">
<!-- Generated by graphviz version 2.43.0 (0)
 -->
<!-- Title: pastafarianism Pages: 1 -->
<svg width="654pt" height="332pt"
 viewBox="0.00 0.00 653.52 332.00" xmlns="http://www.w3.org/2000/svg" xmlns:xlink="http://www.w3.org/1999/xlink">
<g id="graph0" class="graph" transform="scale(1 1) rotate(0) translate(4 328)">
<title>pastafarianism</title>
<polygon fill="white" stroke="transparent" points="-4,4 -4,-328 649.52,-328 649.52,4 -4,4"/>
<!-- Sequence -->
<g id="node1" class="node">
<title>Sequence</title>
<polygon fill="cyan" stroke="black" points="439.09,-298.54 439.09,-313.46 420.64,-324 394.55,-324 376.11,-313.46 376.11,-298.54 394.55,-288 420.64,-288 439.09,-298.54"/>
<text text-anchor="middle" x="407.6" y="-303.8" font-family="Times,serif" font-size="9.00">Sequence</text>
</g>
<!-- Fallback -->
<g id="node2" class="node">
<title>Fallback</title>
<polygon fill="cyan" stroke="black" points="436.84,-226.54 436.84,-241.46 419.71,-252 395.49,-252 378.36,-241.46 378.36,-226.54 395.49,-216 419.71,-216 436.84,-226.54"/>
<text text-anchor="middle" x="407.6" y="-231.8" font-family="Times,serif" font-size="9.00">Fallback</text>
</g>
<!-- Sequence&#45;&gt;Fallback -->
<g id="edge1" class="edge">
<title>Sequence&#45;&gt;Fallback</title>
<path fill="none" stroke="black" d="M407.6,-287.7C407.6,-279.98 407.6,-270.71 407.6,-262.11"/>
<polygon fill="black" stroke="black" points="411.1,-262.1 407.6,-252.1 404.1,-262.1 411.1,-262.1"/>
</g>
<!-- Sequence* -->
<g id="node3" class="node">
<title>Sequence*</title>
<polygon fill="cyan" stroke="black" points="237.84,-154.54 237.84,-169.46 217.78,-180 189.42,-180 169.36,-169.46 169.36,-154.54 189.42,-144 217.78,-144 237.84,-154.54"/>
<text text-anchor="middle" x="203.6" y="-159.8" font-family="Times,serif" font-size="9.00">Sequence*</text>
</g>
<!-- Fallback&#45;&gt;Sequence* -->
<g id="edge2" class="edge">
<title>Fallback&#45;&gt;Sequence*</title>
<path fill="none" stroke="black" d="M380.94,-224.75C348.88,-214.71 293.5,-196.97 246.6,-180 244.22,-179.14 241.78,-178.23 239.32,-177.31"/>
<polygon fill="black" stroke="black" points="240.48,-174 229.89,-173.67 237.96,-180.53 240.48,-174"/>
</g>
<!-- NotReadyForSG?* -->
<g id="node11" class="node">
<title>NotReadyForSG?*</title>
<ellipse fill="gray" stroke="black" cx="305.6" cy="-162" rx="49.8" ry="18"/>
<text text-anchor="middle" x="305.6" y="-159.8" font-family="Times,serif" font-size="9.00">NotReadyForSG?*</text>
</g>
<!-- Fallback&#45;&gt;NotReadyForSG?* -->
<g id="edge10" class="edge">
<title>Fallback&#45;&gt;NotReadyForSG?*</title>
<path fill="none" stroke="black" d="M388.41,-219.83C373.77,-209.78 353.3,-195.73 336.37,-184.12"/>
<polygon fill="black" stroke="black" points="338.12,-181.07 327.9,-178.3 334.16,-186.85 338.12,-181.07"/>
</g>
<!-- ReachGoal? -->
<g id="node12" class="node">
<title>ReachGoal?</title>
<ellipse fill="gray" stroke="black" cx="407.6" cy="-162" rx="34.13" ry="18"/>
<text text-anchor="middle" x="407.6" y="-159.8" font-family="Times,serif" font-size="9.00">ReachGoal?</text>
</g>
<!-- Fallback&#45;&gt;ReachGoal? -->
<g id="edge11" class="edge">
<title>Fallback&#45;&gt;ReachGoal?</title>
<path fill="none" stroke="black" d="M407.6,-215.7C407.6,-207.98 407.6,-198.71 407.6,-190.11"/>
<polygon fill="black" stroke="black" points="411.1,-190.1 407.6,-180.1 404.1,-190.1 411.1,-190.1"/>
</g>
<!-- Sequence** -->
<g id="node13" class="node">
<title>Sequence**</title>
<polygon fill="cyan" stroke="black" points="533.34,-154.54 533.34,-169.46 511.82,-180 481.38,-180 459.86,-169.46 459.86,-154.54 481.38,-144 511.82,-144 533.34,-154.54"/>
<text text-anchor="middle" x="496.6" y="-159.8" font-family="Times,serif" font-size="9.00">Sequence**</text>
</g>
<!-- Fallback&#45;&gt;Sequence** -->
<g id="edge12" class="edge">
<title>Fallback&#45;&gt;Sequence**</title>
<path fill="none" stroke="black" d="M425.18,-219.17C437.72,-209.31 454.82,-195.86 469.14,-184.6"/>
<polygon fill="black" stroke="black" points="471.5,-187.19 477.2,-178.26 467.17,-181.69 471.5,-187.19"/>
</g>
<!-- MoveTo!** -->
<g id="node16" class="node">
<title>MoveTo!**</title>
<ellipse fill="gray" stroke="black" cx="585.6" cy="-162" rx="34.13" ry="18"/>
<text text-anchor="middle" x="585.6" y="-159.8" font-family="Times,serif" font-size="9.00">MoveTo!**</text>
</g>
<!-- Fallback&#45;&gt;MoveTo!** -->
<g id="edge15" class="edge">
<title>Fallback&#45;&gt;MoveTo!**</title>
<path fill="none" stroke="black" d="M431.99,-223.44C459.04,-212.84 503.95,-195.23 542.6,-180 544.95,-179.07 547.38,-178.12 549.82,-177.15"/>
<polygon fill="black" stroke="black" points="551.21,-180.37 559.22,-173.44 548.64,-173.86 551.21,-180.37"/>
</g>
<!-- LkGraph? -->
<g id="node4" class="node">
<title>LkGraph?</title>
<ellipse fill="gray" stroke="black" cx="30.6" cy="-90" rx="30.7" ry="18"/>
<text text-anchor="middle" x="30.6" y="-87.8" font-family="Times,serif" font-size="9.00">LkGraph?</text>
</g>
<!-- Sequence*&#45;&gt;LkGraph? -->
<g id="edge3" class="edge">
<title>Sequence*&#45;&gt;LkGraph?</title>
<path fill="none" stroke="black" d="M176.54,-150.61C149.4,-140.12 106.45,-123.31 69.6,-108 67.76,-107.23 65.87,-106.44 63.97,-105.64"/>
<polygon fill="black" stroke="black" points="65.04,-102.29 54.47,-101.56 62.28,-108.72 65.04,-102.29"/>
</g>
<!-- Fallback* -->
<g id="node5" class="node">
<title>Fallback*</title>
<polygon fill="cyan" stroke="black" points="142.34,-82.54 142.34,-97.46 123.75,-108 97.45,-108 78.86,-97.46 78.86,-82.54 97.45,-72 123.75,-72 142.34,-82.54"/>
<text text-anchor="middle" x="110.6" y="-87.8" font-family="Times,serif" font-size="9.00">Fallback*</text>
</g>
<!-- Sequence*&#45;&gt;Fallback* -->
<g id="edge4" class="edge">
<title>Sequence*&#45;&gt;Fallback*</title>
<path fill="none" stroke="black" d="M184.33,-146.5C170.81,-136.32 152.55,-122.57 137.58,-111.31"/>
<polygon fill="black" stroke="black" points="139.3,-108.23 129.21,-105.01 135.09,-113.82 139.3,-108.23"/>
</g>
<!-- CompLkGraph! -->
<g id="node8" class="node">
<title>CompLkGraph!</title>
<ellipse fill="gray" stroke="black" cx="203.6" cy="-90" rx="42.95" ry="18"/>
<text text-anchor="middle" x="203.6" y="-87.8" font-family="Times,serif" font-size="9.00">CompLkGraph!</text>
</g>
<!-- Sequence*&#45;&gt;CompLkGraph! -->
<g id="edge7" class="edge">
<title>Sequence*&#45;&gt;CompLkGraph!</title>
<path fill="none" stroke="black" d="M203.6,-143.7C203.6,-135.98 203.6,-126.71 203.6,-118.11"/>
<polygon fill="black" stroke="black" points="207.1,-118.1 203.6,-108.1 200.1,-118.1 207.1,-118.1"/>
</g>
<!-- CompLkGraph!* -->
<g id="node9" class="node">
<title>CompLkGraph!*</title>
<ellipse fill="gray" stroke="black" cx="309.6" cy="-90" rx="45.07" ry="18"/>
<text text-anchor="middle" x="309.6" y="-87.8" font-family="Times,serif" font-size="9.00">CompLkGraph!*</text>
</g>
<!-- Sequence*&#45;&gt;CompLkGraph!* -->
<g id="edge8" class="edge">
<title>Sequence*&#45;&gt;CompLkGraph!*</title>
<path fill="none" stroke="black" d="M224.29,-147.34C239.68,-137.17 260.95,-123.13 278.4,-111.6"/>
<polygon fill="black" stroke="black" points="280.71,-114.27 287.13,-105.84 276.86,-108.43 280.71,-114.27"/>
</g>
<!-- MoveTo!* -->
<g id="node10" class="node">
<title>MoveTo!*</title>
<ellipse fill="gray" stroke="black" cx="404.6" cy="-90" rx="31.51" ry="18"/>
<text text-anchor="middle" x="404.6" y="-87.8" font-family="Times,serif" font-size="9.00">MoveTo!*</text>
</g>
<!-- Sequence*&#45;&gt;MoveTo!* -->
<g id="edge9" class="edge">
<title>Sequence*&#45;&gt;MoveTo!*</title>
<path fill="none" stroke="black" d="M229.86,-150.24C235.36,-148.1 241.15,-145.91 246.6,-144 297.94,-125.98 312.41,-126.44 363.6,-108 365.86,-107.18 368.18,-106.32 370.51,-105.42"/>
<polygon fill="black" stroke="black" points="372.03,-108.58 380.03,-101.63 369.45,-102.08 372.03,-108.58"/>
</g>
<!-- NotReadyForSG? -->
<g id="node6" class="node">
<title>NotReadyForSG?</title>
<ellipse fill="gray" stroke="black" cx="63.6" cy="-18" rx="46.53" ry="18"/>
<text text-anchor="middle" x="63.6" y="-15.8" font-family="Times,serif" font-size="9.00">NotReadyForSG?</text>
</g>
<!-- Fallback*&#45;&gt;NotReadyForSG? -->
<g id="edge5" class="edge">
<title>Fallback*&#45;&gt;NotReadyForSG?</title>
<path fill="none" stroke="black" d="M98.98,-71.7C93.38,-63.35 86.55,-53.18 80.4,-44.02"/>
<polygon fill="black" stroke="black" points="83.24,-41.97 74.76,-35.62 77.43,-45.88 83.24,-41.97"/>
</g>
<!-- MoveTo! -->
<g id="node7" class="node">
<title>MoveTo!</title>
<ellipse fill="gray" stroke="black" cx="157.6" cy="-18" rx="28.74" ry="18"/>
<text text-anchor="middle" x="157.6" y="-15.8" font-family="Times,serif" font-size="9.00">MoveTo!</text>
</g>
<!-- Fallback*&#45;&gt;MoveTo! -->
<g id="edge6" class="edge">
<title>Fallback*&#45;&gt;MoveTo!</title>
<path fill="none" stroke="black" d="M122.22,-71.7C127.9,-63.23 134.85,-52.89 141.07,-43.61"/>
<polygon fill="black" stroke="black" points="144.09,-45.4 146.76,-35.14 138.28,-41.5 144.09,-45.4"/>
</g>
<!-- ReachGoal?* -->
<g id="node14" class="node">
<title>ReachGoal?*</title>
<ellipse fill="gray" stroke="black" cx="494.6" cy="-90" rx="36.9" ry="18"/>
<text text-anchor="middle" x="494.6" y="-87.8" font-family="Times,serif" font-size="9.00">ReachGoal?*</text>
</g>
<!-- Sequence**&#45;&gt;ReachGoal?* -->
<g id="edge13" class="edge">
<title>Sequence**&#45;&gt;ReachGoal?*</title>
<path fill="none" stroke="black" d="M496.11,-143.7C495.88,-135.98 495.62,-126.71 495.37,-118.11"/>
<polygon fill="black" stroke="black" points="498.87,-118 495.09,-108.1 491.88,-118.2 498.87,-118"/>
</g>
<!-- CompLkGraph!** -->
<g id="node15" class="node">
<title>CompLkGraph!**</title>
<ellipse fill="gray" stroke="black" cx="597.6" cy="-90" rx="47.84" ry="18"/>
<text text-anchor="middle" x="597.6" y="-87.8" font-family="Times,serif" font-size="9.00">CompLkGraph!**</text>
</g>
<!-- Sequence**&#45;&gt;CompLkGraph!** -->
<g id="edge14" class="edge">
<title>Sequence**&#45;&gt;CompLkGraph!**</title>
<path fill="none" stroke="black" d="M517.53,-146.5C531.86,-136.56 551.1,-123.23 567.13,-112.12"/>
<polygon fill="black" stroke="black" points="569.43,-114.78 575.65,-106.21 565.44,-109.03 569.43,-114.78"/>
</g>
</g>
</svg>
