<?xml version="1.0" encoding="UTF-8" standalone="no"?>
<!DOCTYPE svg PUBLIC "-//W3C//DTD SVG 1.1//EN"
 "http://www.w3.org/Graphics/SVG/1.1/DTD/svg11.dtd">
<!-- Generated by graphviz version 2.43.0 (0)
 -->
<!-- Title: pastafarianism Pages: 1 -->
<svg width="1163pt" height="332pt"
 viewBox="0.00 0.00 1162.70 332.00" xmlns="http://www.w3.org/2000/svg" xmlns:xlink="http://www.w3.org/1999/xlink">
<g id="graph0" class="graph" transform="scale(1 1) rotate(0) translate(4 328)">
<title>pastafarianism</title>
<polygon fill="white" stroke="transparent" points="-4,4 -4,-328 1158.7,-328 1158.7,4 -4,4"/>
<!-- Sequence -->
<g id="node1" class="node">
<title>Sequence</title>
<polygon fill="cyan" stroke="black" points="457.09,-298.54 457.09,-313.46 438.64,-324 412.55,-324 394.11,-313.46 394.11,-298.54 412.55,-288 438.64,-288 457.09,-298.54"/>
<text text-anchor="middle" x="425.6" y="-303.8" font-family="Times,serif" font-size="9.00">Sequence</text>
</g>
<!-- Fallback -->
<g id="node2" class="node">
<title>Fallback</title>
<polygon fill="cyan" stroke="black" points="454.84,-226.54 454.84,-241.46 437.71,-252 413.49,-252 396.36,-241.46 396.36,-226.54 413.49,-216 437.71,-216 454.84,-226.54"/>
<text text-anchor="middle" x="425.6" y="-231.8" font-family="Times,serif" font-size="9.00">Fallback</text>
</g>
<!-- Sequence&#45;&gt;Fallback -->
<g id="edge1" class="edge">
<title>Sequence&#45;&gt;Fallback</title>
<path fill="none" stroke="black" d="M425.6,-287.7C425.6,-279.98 425.6,-270.71 425.6,-262.11"/>
<polygon fill="black" stroke="black" points="429.1,-262.1 425.6,-252.1 422.1,-262.1 429.1,-262.1"/>
</g>
<!-- Sequence* -->
<g id="node3" class="node">
<title>Sequence*</title>
<polygon fill="cyan" stroke="black" points="261.84,-154.54 261.84,-169.46 241.78,-180 213.42,-180 193.36,-169.46 193.36,-154.54 213.42,-144 241.78,-144 261.84,-154.54"/>
<text text-anchor="middle" x="227.6" y="-159.8" font-family="Times,serif" font-size="9.00">Sequence*</text>
</g>
<!-- Fallback&#45;&gt;Sequence* -->
<g id="edge2" class="edge">
<title>Fallback&#45;&gt;Sequence*</title>
<path fill="none" stroke="black" d="M399.41,-224.46C368.49,-214.29 315.57,-196.57 270.6,-180 268.38,-179.18 266.09,-178.32 263.79,-177.45"/>
<polygon fill="black" stroke="black" points="264.95,-174.15 254.36,-173.81 262.43,-180.67 264.95,-174.15"/>
</g>
<!-- NotReadyForSG? -->
<g id="node8" class="node">
<title>NotReadyForSG?</title>
<ellipse fill="gray" stroke="black" cx="326.6" cy="-162" rx="46.53" ry="18"/>
<text text-anchor="middle" x="326.6" y="-159.8" font-family="Times,serif" font-size="9.00">NotReadyForSG?</text>
</g>
<!-- Fallback&#45;&gt;NotReadyForSG? -->
<g id="edge7" class="edge">
<title>Fallback&#45;&gt;NotReadyForSG?</title>
<path fill="none" stroke="black" d="M406.98,-219.83C392.67,-209.72 372.63,-195.55 356.14,-183.89"/>
<polygon fill="black" stroke="black" points="358.07,-180.97 347.89,-178.05 354.03,-186.68 358.07,-180.97"/>
</g>
<!-- ReachGoal? -->
<g id="node9" class="node">
<title>ReachGoal?</title>
<ellipse fill="gray" stroke="black" cx="425.6" cy="-162" rx="34.13" ry="18"/>
<text text-anchor="middle" x="425.6" y="-159.8" font-family="Times,serif" font-size="9.00">ReachGoal?</text>
</g>
<!-- Fallback&#45;&gt;ReachGoal? -->
<g id="edge8" class="edge">
<title>Fallback&#45;&gt;ReachGoal?</title>
<path fill="none" stroke="black" d="M425.6,-215.7C425.6,-207.98 425.6,-198.71 425.6,-190.11"/>
<polygon fill="black" stroke="black" points="429.1,-190.1 425.6,-180.1 422.1,-190.1 429.1,-190.1"/>
</g>
<!-- Sequence** -->
<g id="node10" class="node">
<title>Sequence**</title>
<polygon fill="cyan" stroke="black" points="551.34,-154.54 551.34,-169.46 529.82,-180 499.38,-180 477.86,-169.46 477.86,-154.54 499.38,-144 529.82,-144 551.34,-154.54"/>
<text text-anchor="middle" x="514.6" y="-159.8" font-family="Times,serif" font-size="9.00">Sequence**</text>
</g>
<!-- Fallback&#45;&gt;Sequence** -->
<g id="edge9" class="edge">
<title>Fallback&#45;&gt;Sequence**</title>
<path fill="none" stroke="black" d="M443.18,-219.17C455.72,-209.31 472.82,-195.86 487.14,-184.6"/>
<polygon fill="black" stroke="black" points="489.5,-187.19 495.2,-178.26 485.17,-181.69 489.5,-187.19"/>
</g>
<!-- Sequence*** -->
<g id="node13" class="node">
<title>Sequence***</title>
<polygon fill="cyan" stroke="black" points="814.59,-154.54 814.59,-169.46 791.16,-180 758.04,-180 734.61,-169.46 734.61,-154.54 758.04,-144 791.16,-144 814.59,-154.54"/>
<text text-anchor="middle" x="774.6" y="-159.8" font-family="Times,serif" font-size="9.00">Sequence***</text>
</g>
<!-- Fallback&#45;&gt;Sequence*** -->
<g id="edge12" class="edge">
<title>Fallback&#45;&gt;Sequence***</title>
<path fill="none" stroke="black" d="M455.05,-227.09C515.4,-214.99 653.57,-187.28 726.88,-172.57"/>
<polygon fill="black" stroke="black" points="727.66,-175.98 736.78,-170.59 726.28,-169.12 727.66,-175.98"/>
</g>
<!-- LkGraph? -->
<g id="node4" class="node">
<title>LkGraph?</title>
<ellipse fill="gray" stroke="black" cx="30.6" cy="-90" rx="30.7" ry="18"/>
<text text-anchor="middle" x="30.6" y="-87.8" font-family="Times,serif" font-size="9.00">LkGraph?</text>
</g>
<!-- Sequence*&#45;&gt;LkGraph? -->
<g id="edge3" class="edge">
<title>Sequence*&#45;&gt;LkGraph?</title>
<path fill="none" stroke="black" d="M198.21,-151.99C166.27,-142 113.88,-125.04 69.6,-108 67.74,-107.28 65.84,-106.53 63.92,-105.75"/>
<polygon fill="black" stroke="black" points="64.96,-102.4 54.39,-101.76 62.26,-108.85 64.96,-102.4"/>
</g>
<!-- CompLkGraph! -->
<g id="node5" class="node">
<title>CompLkGraph!</title>
<ellipse fill="gray" stroke="black" cx="121.6" cy="-90" rx="42.95" ry="18"/>
<text text-anchor="middle" x="121.6" y="-87.8" font-family="Times,serif" font-size="9.00">CompLkGraph!</text>
</g>
<!-- Sequence*&#45;&gt;CompLkGraph! -->
<g id="edge4" class="edge">
<title>Sequence*&#45;&gt;CompLkGraph!</title>
<path fill="none" stroke="black" d="M206.91,-147.34C191.42,-137.1 169.96,-122.94 152.45,-111.37"/>
<polygon fill="black" stroke="black" points="153.97,-108.18 143.7,-105.59 150.11,-114.03 153.97,-108.18"/>
</g>
<!-- CompLkGraph!* -->
<g id="node6" class="node">
<title>CompLkGraph!*</title>
<ellipse fill="gray" stroke="black" cx="227.6" cy="-90" rx="45.07" ry="18"/>
<text text-anchor="middle" x="227.6" y="-87.8" font-family="Times,serif" font-size="9.00">CompLkGraph!*</text>
</g>
<!-- Sequence*&#45;&gt;CompLkGraph!* -->
<g id="edge5" class="edge">
<title>Sequence*&#45;&gt;CompLkGraph!*</title>
<path fill="none" stroke="black" d="M227.6,-143.7C227.6,-135.98 227.6,-126.71 227.6,-118.11"/>
<polygon fill="black" stroke="black" points="231.1,-118.1 227.6,-108.1 224.1,-118.1 231.1,-118.1"/>
</g>
<!-- LkGraph?* -->
<g id="node7" class="node">
<title>LkGraph?*</title>
<ellipse fill="gray" stroke="black" cx="323.6" cy="-90" rx="32.82" ry="18"/>
<text text-anchor="middle" x="323.6" y="-87.8" font-family="Times,serif" font-size="9.00">LkGraph?*</text>
</g>
<!-- Sequence*&#45;&gt;LkGraph?* -->
<g id="edge6" class="edge">
<title>Sequence*&#45;&gt;LkGraph?*</title>
<path fill="none" stroke="black" d="M247.49,-146.5C261.67,-136.16 280.9,-122.13 296.49,-110.77"/>
<polygon fill="black" stroke="black" points="298.7,-113.49 304.71,-104.77 294.57,-107.83 298.7,-113.49"/>
</g>
<!-- ReachGoal?* -->
<g id="node11" class="node">
<title>ReachGoal?*</title>
<ellipse fill="gray" stroke="black" cx="411.6" cy="-90" rx="36.9" ry="18"/>
<text text-anchor="middle" x="411.6" y="-87.8" font-family="Times,serif" font-size="9.00">ReachGoal?*</text>
</g>
<!-- Sequence**&#45;&gt;ReachGoal?* -->
<g id="edge10" class="edge">
<title>Sequence**&#45;&gt;ReachGoal?*</title>
<path fill="none" stroke="black" d="M493.26,-146.5C478,-136.13 457.3,-122.06 440.56,-110.68"/>
<polygon fill="black" stroke="black" points="442.45,-107.73 432.21,-105.01 438.51,-113.52 442.45,-107.73"/>
</g>
<!-- CompLkGraph!** -->
<g id="node12" class="node">
<title>CompLkGraph!**</title>
<ellipse fill="gray" stroke="black" cx="514.6" cy="-90" rx="47.84" ry="18"/>
<text text-anchor="middle" x="514.6" y="-87.8" font-family="Times,serif" font-size="9.00">CompLkGraph!**</text>
</g>
<!-- Sequence**&#45;&gt;CompLkGraph!** -->
<g id="edge11" class="edge">
<title>Sequence**&#45;&gt;CompLkGraph!**</title>
<path fill="none" stroke="black" d="M514.6,-143.7C514.6,-135.98 514.6,-126.71 514.6,-118.11"/>
<polygon fill="black" stroke="black" points="518.1,-118.1 514.6,-108.1 511.1,-118.1 518.1,-118.1"/>
</g>
<!-- LkGraph?** -->
<g id="node14" class="node">
<title>LkGraph?**</title>
<ellipse fill="gray" stroke="black" cx="616.6" cy="-90" rx="35.59" ry="18"/>
<text text-anchor="middle" x="616.6" y="-87.8" font-family="Times,serif" font-size="9.00">LkGraph?**</text>
</g>
<!-- Sequence***&#45;&gt;LkGraph?** -->
<g id="edge13" class="edge">
<title>Sequence***&#45;&gt;LkGraph?**</title>
<path fill="none" stroke="black" d="M747.08,-148.81C720.63,-137.09 680.54,-119.33 651.78,-106.59"/>
<polygon fill="black" stroke="black" points="653.06,-103.32 642.5,-102.47 650.22,-109.72 653.06,-103.32"/>
</g>
<!-- GetLk! -->
<g id="node15" class="node">
<title>GetLk!</title>
<ellipse fill="gray" stroke="black" cx="697.6" cy="-90" rx="27" ry="18"/>
<text text-anchor="middle" x="697.6" y="-87.8" font-family="Times,serif" font-size="9.00">GetLk!</text>
</g>
<!-- Sequence***&#45;&gt;GetLk! -->
<g id="edge14" class="edge">
<title>Sequence***&#45;&gt;GetLk!</title>
<path fill="none" stroke="black" d="M756.35,-144.41C745.58,-134.62 731.86,-122.15 720.39,-111.72"/>
<polygon fill="black" stroke="black" points="722.62,-109.02 712.87,-104.88 717.91,-114.19 722.62,-109.02"/>
</g>
<!-- Fallback* -->
<g id="node16" class="node">
<title>Fallback*</title>
<polygon fill="cyan" stroke="black" points="806.34,-82.54 806.34,-97.46 787.75,-108 761.45,-108 742.86,-97.46 742.86,-82.54 761.45,-72 787.75,-72 806.34,-82.54"/>
<text text-anchor="middle" x="774.6" y="-87.8" font-family="Times,serif" font-size="9.00">Fallback*</text>
</g>
<!-- Sequence***&#45;&gt;Fallback* -->
<g id="edge15" class="edge">
<title>Sequence***&#45;&gt;Fallback*</title>
<path fill="none" stroke="black" d="M774.6,-143.7C774.6,-135.98 774.6,-126.71 774.6,-118.11"/>
<polygon fill="black" stroke="black" points="778.1,-118.1 774.6,-108.1 771.1,-118.1 778.1,-118.1"/>
</g>
<!-- CompLkGraph!**** -->
<g id="node19" class="node">
<title>CompLkGraph!****</title>
<ellipse fill="gray" stroke="black" cx="877.6" cy="-90" rx="53.23" ry="18"/>
<text text-anchor="middle" x="877.6" y="-87.8" font-family="Times,serif" font-size="9.00">CompLkGraph!****</text>
</g>
<!-- Sequence***&#45;&gt;CompLkGraph!**** -->
<g id="edge18" class="edge">
<title>Sequence***&#45;&gt;CompLkGraph!****</title>
<path fill="none" stroke="black" d="M796.44,-146.15C810.99,-136.27 830.33,-123.12 846.48,-112.15"/>
<polygon fill="black" stroke="black" points="848.77,-114.82 855.08,-106.31 844.84,-109.03 848.77,-114.82"/>
</g>
<!-- CompLkGraph!***** -->
<g id="node20" class="node">
<title>CompLkGraph!*****</title>
<ellipse fill="gray" stroke="black" cx="1004.6" cy="-90" rx="55.35" ry="18"/>
<text text-anchor="middle" x="1004.6" y="-87.8" font-family="Times,serif" font-size="9.00">CompLkGraph!*****</text>
</g>
<!-- Sequence***&#45;&gt;CompLkGraph!***** -->
<g id="edge19" class="edge">
<title>Sequence***&#45;&gt;CompLkGraph!*****</title>
<path fill="none" stroke="black" d="M807.07,-151.12C845.75,-139.35 910.76,-119.56 955.57,-105.92"/>
<polygon fill="black" stroke="black" points="956.82,-109.2 965.37,-102.94 954.79,-102.5 956.82,-109.2"/>
</g>
<!-- LkGraph?*** -->
<g id="node21" class="node">
<title>LkGraph?***</title>
<ellipse fill="gray" stroke="black" cx="1116.6" cy="-90" rx="38.21" ry="18"/>
<text text-anchor="middle" x="1116.6" y="-87.8" font-family="Times,serif" font-size="9.00">LkGraph?***</text>
</g>
<!-- Sequence***&#45;&gt;LkGraph?*** -->
<g id="edge20" class="edge">
<title>Sequence***&#45;&gt;LkGraph?***</title>
<path fill="none" stroke="black" d="M815,-155.83C872.09,-148.05 979.37,-131.68 1068.6,-108 1071.76,-107.16 1075.01,-106.21 1078.26,-105.2"/>
<polygon fill="black" stroke="black" points="1079.5,-108.47 1087.9,-102.02 1077.31,-101.82 1079.5,-108.47"/>
</g>
<!-- GetSubGoal! -->
<g id="node17" class="node">
<title>GetSubGoal!</title>
<ellipse fill="gray" stroke="black" cx="721.6" cy="-18" rx="36.9" ry="18"/>
<text text-anchor="middle" x="721.6" y="-15.8" font-family="Times,serif" font-size="9.00">GetSubGoal!</text>
</g>
<!-- Fallback*&#45;&gt;GetSubGoal! -->
<g id="edge16" class="edge">
<title>Fallback*&#45;&gt;GetSubGoal!</title>
<path fill="none" stroke="black" d="M761.5,-71.7C755.02,-63.14 747.09,-52.67 740.02,-43.33"/>
<polygon fill="black" stroke="black" points="742.65,-41 733.82,-35.14 737.07,-45.23 742.65,-41"/>
</g>
<!-- CompLkGraph!*** -->
<g id="node18" class="node">
<title>CompLkGraph!***</title>
<ellipse fill="gray" stroke="black" cx="826.6" cy="-18" rx="50.46" ry="18"/>
<text text-anchor="middle" x="826.6" y="-15.8" font-family="Times,serif" font-size="9.00">CompLkGraph!***</text>
</g>
<!-- Fallback*&#45;&gt;CompLkGraph!*** -->
<g id="edge17" class="edge">
<title>Fallback*&#45;&gt;CompLkGraph!***</title>
<path fill="none" stroke="black" d="M787.45,-71.7C793.72,-63.27 801.36,-52.97 808.23,-43.73"/>
<polygon fill="black" stroke="black" points="811.1,-45.74 814.25,-35.62 805.48,-41.56 811.1,-45.74"/>
</g>
</g>
</svg>
