<?xml version="1.0" encoding="UTF-8" standalone="no"?>
<!DOCTYPE svg PUBLIC "-//W3C//DTD SVG 1.1//EN"
 "http://www.w3.org/Graphics/SVG/1.1/DTD/svg11.dtd">
<!-- Generated by graphviz version 2.43.0 (0)
 -->
<!-- Title: pastafarianism Pages: 1 -->
<svg width="672pt" height="260pt"
 viewBox="0.00 0.00 672.35 260.00" xmlns="http://www.w3.org/2000/svg" xmlns:xlink="http://www.w3.org/1999/xlink">
<g id="graph0" class="graph" transform="scale(1 1) rotate(0) translate(4 256)">
<title>pastafarianism</title>
<polygon fill="white" stroke="transparent" points="-4,4 -4,-256 668.35,-256 668.35,4 -4,4"/>
<!-- Sequence -->
<g id="node1" class="node">
<title>Sequence</title>
<polygon fill="cyan" stroke="black" points="438.09,-226.54 438.09,-241.46 419.64,-252 393.55,-252 375.11,-241.46 375.11,-226.54 393.55,-216 419.64,-216 438.09,-226.54"/>
<text text-anchor="middle" x="406.6" y="-231.8" font-family="Times,serif" font-size="9.00">Sequence</text>
</g>
<!-- Fallback -->
<g id="node2" class="node">
<title>Fallback</title>
<polygon fill="cyan" stroke="black" points="435.84,-154.54 435.84,-169.46 418.71,-180 394.49,-180 377.36,-169.46 377.36,-154.54 394.49,-144 418.71,-144 435.84,-154.54"/>
<text text-anchor="middle" x="406.6" y="-159.8" font-family="Times,serif" font-size="9.00">Fallback</text>
</g>
<!-- Sequence&#45;&gt;Fallback -->
<g id="edge1" class="edge">
<title>Sequence&#45;&gt;Fallback</title>
<path fill="none" stroke="black" d="M406.6,-215.7C406.6,-207.98 406.6,-198.71 406.6,-190.11"/>
<polygon fill="black" stroke="black" points="410.1,-190.1 406.6,-180.1 403.1,-190.1 410.1,-190.1"/>
</g>
<!-- Sequence* -->
<g id="node3" class="node">
<title>Sequence*</title>
<polygon fill="cyan" stroke="black" points="208.84,-82.54 208.84,-97.46 188.78,-108 160.42,-108 140.36,-97.46 140.36,-82.54 160.42,-72 188.78,-72 208.84,-82.54"/>
<text text-anchor="middle" x="174.6" y="-87.8" font-family="Times,serif" font-size="9.00">Sequence*</text>
</g>
<!-- Fallback&#45;&gt;Sequence* -->
<g id="edge2" class="edge">
<title>Fallback&#45;&gt;Sequence*</title>
<path fill="none" stroke="black" d="M378.14,-154C340.91,-144.61 273.79,-126.93 217.6,-108 215.2,-107.19 212.75,-106.33 210.28,-105.43"/>
<polygon fill="black" stroke="black" points="211.41,-102.12 200.82,-101.86 208.94,-108.67 211.41,-102.12"/>
</g>
<!-- LkGraph?* -->
<g id="node8" class="node">
<title>LkGraph?*</title>
<ellipse fill="gray" stroke="black" cx="259.6" cy="-90" rx="32.82" ry="18"/>
<text text-anchor="middle" x="259.6" y="-87.8" font-family="Times,serif" font-size="9.00">LkGraph?*</text>
</g>
<!-- Fallback&#45;&gt;LkGraph?* -->
<g id="edge7" class="edge">
<title>Fallback&#45;&gt;LkGraph?*</title>
<path fill="none" stroke="black" d="M383.95,-150.22C359.75,-138.69 321.11,-120.29 293.32,-107.06"/>
<polygon fill="black" stroke="black" points="294.52,-103.75 283.99,-102.61 291.51,-110.07 294.52,-103.75"/>
</g>
<!-- NotReadyForSG? -->
<g id="node9" class="node">
<title>NotReadyForSG?</title>
<ellipse fill="gray" stroke="black" cx="357.6" cy="-90" rx="46.53" ry="18"/>
<text text-anchor="middle" x="357.6" y="-87.8" font-family="Times,serif" font-size="9.00">NotReadyForSG?</text>
</g>
<!-- Fallback&#45;&gt;NotReadyForSG? -->
<g id="edge8" class="edge">
<title>Fallback&#45;&gt;NotReadyForSG?</title>
<path fill="none" stroke="black" d="M394.49,-143.7C388.65,-135.35 381.53,-125.18 375.11,-116.02"/>
<polygon fill="black" stroke="black" points="377.84,-113.81 369.24,-107.62 372.1,-117.82 377.84,-113.81"/>
</g>
<!-- ReachGoal? -->
<g id="node10" class="node">
<title>ReachGoal?</title>
<ellipse fill="gray" stroke="black" cx="456.6" cy="-90" rx="34.13" ry="18"/>
<text text-anchor="middle" x="456.6" y="-87.8" font-family="Times,serif" font-size="9.00">ReachGoal?</text>
</g>
<!-- Fallback&#45;&gt;ReachGoal? -->
<g id="edge9" class="edge">
<title>Fallback&#45;&gt;ReachGoal?</title>
<path fill="none" stroke="black" d="M418.96,-143.7C425.07,-135.14 432.55,-124.67 439.22,-115.33"/>
<polygon fill="black" stroke="black" points="442.1,-117.32 445.07,-107.14 436.41,-113.25 442.1,-117.32"/>
</g>
<!-- Sequence** -->
<g id="node11" class="node">
<title>Sequence**</title>
<polygon fill="cyan" stroke="black" points="582.34,-82.54 582.34,-97.46 560.82,-108 530.38,-108 508.86,-97.46 508.86,-82.54 530.38,-72 560.82,-72 582.34,-82.54"/>
<text text-anchor="middle" x="545.6" y="-87.8" font-family="Times,serif" font-size="9.00">Sequence**</text>
</g>
<!-- Fallback&#45;&gt;Sequence** -->
<g id="edge10" class="edge">
<title>Fallback&#45;&gt;Sequence**</title>
<path fill="none" stroke="black" d="M428.62,-149.91C450.99,-138.65 485.91,-121.06 511.78,-108.03"/>
<polygon fill="black" stroke="black" points="513.51,-111.08 520.86,-103.46 510.36,-104.83 513.51,-111.08"/>
</g>
<!-- MoveTo!* -->
<g id="node14" class="node">
<title>MoveTo!*</title>
<ellipse fill="gray" stroke="black" cx="632.6" cy="-90" rx="31.51" ry="18"/>
<text text-anchor="middle" x="632.6" y="-87.8" font-family="Times,serif" font-size="9.00">MoveTo!*</text>
</g>
<!-- Fallback&#45;&gt;MoveTo!* -->
<g id="edge13" class="edge">
<title>Fallback&#45;&gt;MoveTo!*</title>
<path fill="none" stroke="black" d="M435.12,-153.91C471.73,-144.56 537.03,-127.06 591.6,-108 593.87,-107.21 596.2,-106.35 598.53,-105.47"/>
<polygon fill="black" stroke="black" points="600.04,-108.64 608.06,-101.71 597.47,-102.12 600.04,-108.64"/>
</g>
<!-- LkGraph? -->
<g id="node4" class="node">
<title>LkGraph?</title>
<ellipse fill="gray" stroke="black" cx="30.6" cy="-18" rx="30.7" ry="18"/>
<text text-anchor="middle" x="30.6" y="-15.8" font-family="Times,serif" font-size="9.00">LkGraph?</text>
</g>
<!-- Sequence*&#45;&gt;LkGraph? -->
<g id="edge3" class="edge">
<title>Sequence*&#45;&gt;LkGraph?</title>
<path fill="none" stroke="black" d="M150.17,-77.13C126.16,-65.45 89.37,-47.57 62.94,-34.72"/>
<polygon fill="black" stroke="black" points="64.24,-31.46 53.72,-30.24 61.18,-37.76 64.24,-31.46"/>
</g>
<!-- CompLkGraph! -->
<g id="node5" class="node">
<title>CompLkGraph!</title>
<ellipse fill="gray" stroke="black" cx="121.6" cy="-18" rx="42.95" ry="18"/>
<text text-anchor="middle" x="121.6" y="-15.8" font-family="Times,serif" font-size="9.00">CompLkGraph!</text>
</g>
<!-- Sequence*&#45;&gt;CompLkGraph! -->
<g id="edge4" class="edge">
<title>Sequence*&#45;&gt;CompLkGraph!</title>
<path fill="none" stroke="black" d="M161.5,-71.7C155.11,-63.27 147.32,-52.97 140.33,-43.73"/>
<polygon fill="black" stroke="black" points="143.01,-41.48 134.19,-35.62 137.43,-45.71 143.01,-41.48"/>
</g>
<!-- CompLkGraph!* -->
<g id="node6" class="node">
<title>CompLkGraph!*</title>
<ellipse fill="gray" stroke="black" cx="227.6" cy="-18" rx="45.07" ry="18"/>
<text text-anchor="middle" x="227.6" y="-15.8" font-family="Times,serif" font-size="9.00">CompLkGraph!*</text>
</g>
<!-- Sequence*&#45;&gt;CompLkGraph!* -->
<g id="edge5" class="edge">
<title>Sequence*&#45;&gt;CompLkGraph!*</title>
<path fill="none" stroke="black" d="M187.7,-71.7C194.08,-63.27 201.88,-52.97 208.87,-43.73"/>
<polygon fill="black" stroke="black" points="211.77,-45.71 215.01,-35.62 206.19,-41.48 211.77,-45.71"/>
</g>
<!-- MoveTo! -->
<g id="node7" class="node">
<title>MoveTo!</title>
<ellipse fill="gray" stroke="black" cx="319.6" cy="-18" rx="28.74" ry="18"/>
<text text-anchor="middle" x="319.6" y="-15.8" font-family="Times,serif" font-size="9.00">MoveTo!</text>
</g>
<!-- Sequence*&#45;&gt;MoveTo! -->
<g id="edge6" class="edge">
<title>Sequence*&#45;&gt;MoveTo!</title>
<path fill="none" stroke="black" d="M198.87,-77.28C223.28,-65.5 261.05,-47.27 287.83,-34.34"/>
<polygon fill="black" stroke="black" points="289.68,-37.33 297.16,-29.83 286.63,-31.03 289.68,-37.33"/>
</g>
<!-- ReachGoal?* -->
<g id="node12" class="node">
<title>ReachGoal?*</title>
<ellipse fill="gray" stroke="black" cx="494.6" cy="-18" rx="36.9" ry="18"/>
<text text-anchor="middle" x="494.6" y="-15.8" font-family="Times,serif" font-size="9.00">ReachGoal?*</text>
</g>
<!-- Sequence**&#45;&gt;ReachGoal?* -->
<g id="edge11" class="edge">
<title>Sequence**&#45;&gt;ReachGoal?*</title>
<path fill="none" stroke="black" d="M532.99,-71.7C526.76,-63.14 519.13,-52.67 512.32,-43.33"/>
<polygon fill="black" stroke="black" points="515.08,-41.17 506.36,-35.14 509.42,-45.29 515.08,-41.17"/>
</g>
<!-- CompLkGraph!** -->
<g id="node13" class="node">
<title>CompLkGraph!**</title>
<ellipse fill="gray" stroke="black" cx="597.6" cy="-18" rx="47.84" ry="18"/>
<text text-anchor="middle" x="597.6" y="-15.8" font-family="Times,serif" font-size="9.00">CompLkGraph!**</text>
</g>
<!-- Sequence**&#45;&gt;CompLkGraph!** -->
<g id="edge12" class="edge">
<title>Sequence**&#45;&gt;CompLkGraph!**</title>
<path fill="none" stroke="black" d="M558.45,-71.7C564.72,-63.27 572.36,-52.97 579.23,-43.73"/>
<polygon fill="black" stroke="black" points="582.1,-45.74 585.25,-35.62 576.48,-41.56 582.1,-45.74"/>
</g>
</g>
</svg>
