<?xml version="1.0" encoding="UTF-8" standalone="no"?>
<!DOCTYPE svg PUBLIC "-//W3C//DTD SVG 1.1//EN"
 "http://www.w3.org/Graphics/SVG/1.1/DTD/svg11.dtd">
<!-- Generated by graphviz version 2.43.0 (0)
 -->
<!-- Title: pastafarianism Pages: 1 -->
<svg width="622pt" height="260pt"
 viewBox="0.00 0.00 621.52 260.00" xmlns="http://www.w3.org/2000/svg" xmlns:xlink="http://www.w3.org/1999/xlink">
<g id="graph0" class="graph" transform="scale(1 1) rotate(0) translate(4 256)">
<title>pastafarianism</title>
<polygon fill="white" stroke="transparent" points="-4,4 -4,-256 617.52,-256 617.52,4 -4,4"/>
<!-- Sequence -->
<g id="node1" class="node">
<title>Sequence</title>
<polygon fill="cyan" stroke="black" points="431.09,-226.54 431.09,-241.46 412.64,-252 386.55,-252 368.11,-241.46 368.11,-226.54 386.55,-216 412.64,-216 431.09,-226.54"/>
<text text-anchor="middle" x="399.6" y="-231.8" font-family="Times,serif" font-size="9.00">Sequence</text>
</g>
<!-- Fallback -->
<g id="node2" class="node">
<title>Fallback</title>
<polygon fill="cyan" stroke="black" points="428.84,-154.54 428.84,-169.46 411.71,-180 387.49,-180 370.36,-169.46 370.36,-154.54 387.49,-144 411.71,-144 428.84,-154.54"/>
<text text-anchor="middle" x="399.6" y="-159.8" font-family="Times,serif" font-size="9.00">Fallback</text>
</g>
<!-- Sequence&#45;&gt;Fallback -->
<g id="edge1" class="edge">
<title>Sequence&#45;&gt;Fallback</title>
<path fill="none" stroke="black" d="M399.6,-215.7C399.6,-207.98 399.6,-198.71 399.6,-190.11"/>
<polygon fill="black" stroke="black" points="403.1,-190.1 399.6,-180.1 396.1,-190.1 403.1,-190.1"/>
</g>
<!-- Sequence* -->
<g id="node3" class="node">
<title>Sequence*</title>
<polygon fill="cyan" stroke="black" points="235.84,-82.54 235.84,-97.46 215.78,-108 187.42,-108 167.36,-97.46 167.36,-82.54 187.42,-72 215.78,-72 235.84,-82.54"/>
<text text-anchor="middle" x="201.6" y="-87.8" font-family="Times,serif" font-size="9.00">Sequence*</text>
</g>
<!-- Fallback&#45;&gt;Sequence* -->
<g id="edge2" class="edge">
<title>Fallback&#45;&gt;Sequence*</title>
<path fill="none" stroke="black" d="M373.41,-152.46C342.49,-142.29 289.57,-124.57 244.6,-108 242.38,-107.18 240.09,-106.32 237.79,-105.45"/>
<polygon fill="black" stroke="black" points="238.95,-102.15 228.36,-101.81 236.43,-108.67 238.95,-102.15"/>
</g>
<!-- NotReadyForSG? -->
<g id="node8" class="node">
<title>NotReadyForSG?</title>
<ellipse fill="gray" stroke="black" cx="300.6" cy="-90" rx="46.53" ry="18"/>
<text text-anchor="middle" x="300.6" y="-87.8" font-family="Times,serif" font-size="9.00">NotReadyForSG?</text>
</g>
<!-- Fallback&#45;&gt;NotReadyForSG? -->
<g id="edge7" class="edge">
<title>Fallback&#45;&gt;NotReadyForSG?</title>
<path fill="none" stroke="black" d="M380.98,-147.83C366.67,-137.72 346.63,-123.55 330.14,-111.89"/>
<polygon fill="black" stroke="black" points="332.07,-108.97 321.89,-106.05 328.03,-114.68 332.07,-108.97"/>
</g>
<!-- ReachGoal? -->
<g id="node9" class="node">
<title>ReachGoal?</title>
<ellipse fill="gray" stroke="black" cx="399.6" cy="-90" rx="34.13" ry="18"/>
<text text-anchor="middle" x="399.6" y="-87.8" font-family="Times,serif" font-size="9.00">ReachGoal?</text>
</g>
<!-- Fallback&#45;&gt;ReachGoal? -->
<g id="edge8" class="edge">
<title>Fallback&#45;&gt;ReachGoal?</title>
<path fill="none" stroke="black" d="M399.6,-143.7C399.6,-135.98 399.6,-126.71 399.6,-118.11"/>
<polygon fill="black" stroke="black" points="403.1,-118.1 399.6,-108.1 396.1,-118.1 403.1,-118.1"/>
</g>
<!-- Sequence** -->
<g id="node10" class="node">
<title>Sequence**</title>
<polygon fill="cyan" stroke="black" points="525.34,-82.54 525.34,-97.46 503.82,-108 473.38,-108 451.86,-97.46 451.86,-82.54 473.38,-72 503.82,-72 525.34,-82.54"/>
<text text-anchor="middle" x="488.6" y="-87.8" font-family="Times,serif" font-size="9.00">Sequence**</text>
</g>
<!-- Fallback&#45;&gt;Sequence** -->
<g id="edge9" class="edge">
<title>Fallback&#45;&gt;Sequence**</title>
<path fill="none" stroke="black" d="M417.18,-147.17C429.72,-137.31 446.82,-123.86 461.14,-112.6"/>
<polygon fill="black" stroke="black" points="463.5,-115.19 469.2,-106.26 459.17,-109.69 463.5,-115.19"/>
</g>
<!-- MoveTo! -->
<g id="node13" class="node">
<title>MoveTo!</title>
<ellipse fill="gray" stroke="black" cx="572.6" cy="-90" rx="28.74" ry="18"/>
<text text-anchor="middle" x="572.6" y="-87.8" font-family="Times,serif" font-size="9.00">MoveTo!</text>
</g>
<!-- Fallback&#45;&gt;MoveTo! -->
<g id="edge12" class="edge">
<title>Fallback&#45;&gt;MoveTo!</title>
<path fill="none" stroke="black" d="M424.62,-151.58C451.83,-141.24 496.52,-123.98 534.6,-108 536.45,-107.22 538.34,-106.42 540.25,-105.59"/>
<polygon fill="black" stroke="black" points="542.01,-108.64 549.77,-101.42 539.2,-102.23 542.01,-108.64"/>
</g>
<!-- LkGraph? -->
<g id="node4" class="node">
<title>LkGraph?</title>
<ellipse fill="gray" stroke="black" cx="30.6" cy="-18" rx="30.7" ry="18"/>
<text text-anchor="middle" x="30.6" y="-15.8" font-family="Times,serif" font-size="9.00">LkGraph?</text>
</g>
<!-- Sequence*&#45;&gt;LkGraph? -->
<g id="edge3" class="edge">
<title>Sequence*&#45;&gt;LkGraph?</title>
<path fill="none" stroke="black" d="M174.71,-78.47C147.97,-67.93 105.82,-51.16 69.6,-36 67.76,-35.23 65.87,-34.43 63.97,-33.62"/>
<polygon fill="black" stroke="black" points="65.05,-30.28 54.48,-29.54 62.28,-36.71 65.05,-30.28"/>
</g>
<!-- CompLkGraph! -->
<g id="node5" class="node">
<title>CompLkGraph!</title>
<ellipse fill="gray" stroke="black" cx="121.6" cy="-18" rx="42.95" ry="18"/>
<text text-anchor="middle" x="121.6" y="-15.8" font-family="Times,serif" font-size="9.00">CompLkGraph!</text>
</g>
<!-- Sequence*&#45;&gt;CompLkGraph! -->
<g id="edge4" class="edge">
<title>Sequence*&#45;&gt;CompLkGraph!</title>
<path fill="none" stroke="black" d="M183.84,-73.46C172.97,-63.95 158.88,-51.62 146.85,-41.1"/>
<polygon fill="black" stroke="black" points="149.14,-38.44 139.3,-34.49 144.53,-43.71 149.14,-38.44"/>
</g>
<!-- CompLkGraph!* -->
<g id="node6" class="node">
<title>CompLkGraph!*</title>
<ellipse fill="gray" stroke="black" cx="227.6" cy="-18" rx="45.07" ry="18"/>
<text text-anchor="middle" x="227.6" y="-15.8" font-family="Times,serif" font-size="9.00">CompLkGraph!*</text>
</g>
<!-- Sequence*&#45;&gt;CompLkGraph!* -->
<g id="edge5" class="edge">
<title>Sequence*&#45;&gt;CompLkGraph!*</title>
<path fill="none" stroke="black" d="M208.03,-71.7C210.95,-63.81 214.49,-54.3 217.74,-45.55"/>
<polygon fill="black" stroke="black" points="221.05,-46.7 221.25,-36.1 214.48,-44.26 221.05,-46.7"/>
</g>
<!-- LkGraph?* -->
<g id="node7" class="node">
<title>LkGraph?*</title>
<ellipse fill="gray" stroke="black" cx="323.6" cy="-18" rx="32.82" ry="18"/>
<text text-anchor="middle" x="323.6" y="-15.8" font-family="Times,serif" font-size="9.00">LkGraph?*</text>
</g>
<!-- Sequence*&#45;&gt;LkGraph?* -->
<g id="edge6" class="edge">
<title>Sequence*&#45;&gt;LkGraph?*</title>
<path fill="none" stroke="black" d="M223.98,-76.16C243.36,-65.04 271.58,-48.85 293.04,-36.54"/>
<polygon fill="black" stroke="black" points="294.84,-39.53 301.78,-31.52 291.36,-33.46 294.84,-39.53"/>
</g>
<!-- ReachGoal?* -->
<g id="node11" class="node">
<title>ReachGoal?*</title>
<ellipse fill="gray" stroke="black" cx="462.6" cy="-18" rx="36.9" ry="18"/>
<text text-anchor="middle" x="462.6" y="-15.8" font-family="Times,serif" font-size="9.00">ReachGoal?*</text>
</g>
<!-- Sequence**&#45;&gt;ReachGoal?* -->
<g id="edge10" class="edge">
<title>Sequence**&#45;&gt;ReachGoal?*</title>
<path fill="none" stroke="black" d="M482.17,-71.7C479.24,-63.81 475.71,-54.3 472.46,-45.55"/>
<polygon fill="black" stroke="black" points="475.72,-44.26 468.95,-36.1 469.15,-46.7 475.72,-44.26"/>
</g>
<!-- CompLkGraph!** -->
<g id="node12" class="node">
<title>CompLkGraph!**</title>
<ellipse fill="gray" stroke="black" cx="565.6" cy="-18" rx="47.84" ry="18"/>
<text text-anchor="middle" x="565.6" y="-15.8" font-family="Times,serif" font-size="9.00">CompLkGraph!**</text>
</g>
<!-- Sequence**&#45;&gt;CompLkGraph!** -->
<g id="edge11" class="edge">
<title>Sequence**&#45;&gt;CompLkGraph!**</title>
<path fill="none" stroke="black" d="M506.46,-72.76C516.54,-63.6 529.3,-52 540.39,-41.92"/>
<polygon fill="black" stroke="black" points="543.06,-44.22 548.1,-34.91 538.35,-39.04 543.06,-44.22"/>
</g>
</g>
</svg>
