<?xml version="1.0" encoding="UTF-8" standalone="no"?>
<!DOCTYPE svg PUBLIC "-//W3C//DTD SVG 1.1//EN"
 "http://www.w3.org/Graphics/SVG/1.1/DTD/svg11.dtd">
<!-- Generated by graphviz version 2.43.0 (0)
 -->
<!-- Title: pastafarianism Pages: 1 -->
<svg width="2431pt" height="260pt"
 viewBox="0.00 0.00 2430.86 260.00" xmlns="http://www.w3.org/2000/svg" xmlns:xlink="http://www.w3.org/1999/xlink">
<g id="graph0" class="graph" transform="scale(1 1) rotate(0) translate(4 256)">
<title>pastafarianism</title>
<polygon fill="white" stroke="transparent" points="-4,4 -4,-256 2426.86,-256 2426.86,4 -4,4"/>
<!-- Sequence -->
<g id="node1" class="node">
<title>Sequence</title>
<polygon fill="cyan" stroke="black" points="714.09,-226.54 714.09,-241.46 695.64,-252 669.55,-252 651.11,-241.46 651.11,-226.54 669.55,-216 695.64,-216 714.09,-226.54"/>
<text text-anchor="middle" x="682.6" y="-231.8" font-family="Times,serif" font-size="9.00">Sequence</text>
</g>
<!-- Fallback -->
<g id="node2" class="node">
<title>Fallback</title>
<polygon fill="cyan" stroke="black" points="711.84,-154.54 711.84,-169.46 694.71,-180 670.49,-180 653.36,-169.46 653.36,-154.54 670.49,-144 694.71,-144 711.84,-154.54"/>
<text text-anchor="middle" x="682.6" y="-159.8" font-family="Times,serif" font-size="9.00">Fallback</text>
</g>
<!-- Sequence&#45;&gt;Fallback -->
<g id="edge1" class="edge">
<title>Sequence&#45;&gt;Fallback</title>
<path fill="none" stroke="black" d="M682.6,-215.7C682.6,-207.98 682.6,-198.71 682.6,-190.11"/>
<polygon fill="black" stroke="black" points="686.1,-190.1 682.6,-180.1 679.1,-190.1 686.1,-190.1"/>
</g>
<!-- Sequence* -->
<g id="node3" class="node">
<title>Sequence*</title>
<polygon fill="cyan" stroke="black" points="202.84,-82.54 202.84,-97.46 182.78,-108 154.42,-108 134.36,-97.46 134.36,-82.54 154.42,-72 182.78,-72 202.84,-82.54"/>
<text text-anchor="middle" x="168.6" y="-87.8" font-family="Times,serif" font-size="9.00">Sequence*</text>
</g>
<!-- Fallback&#45;&gt;Sequence* -->
<g id="edge2" class="edge">
<title>Fallback&#45;&gt;Sequence*</title>
<path fill="none" stroke="black" d="M653.12,-156.99C567.02,-145.26 315.54,-111.01 212.95,-97.04"/>
<polygon fill="black" stroke="black" points="213.3,-93.56 202.92,-95.67 212.36,-100.49 213.3,-93.56"/>
</g>
<!-- NotReadyForSG? -->
<g id="node7" class="node">
<title>NotReadyForSG?</title>
<ellipse fill="gray" stroke="black" cx="494.6" cy="-90" rx="46.53" ry="18"/>
<text text-anchor="middle" x="494.6" y="-87.8" font-family="Times,serif" font-size="9.00">NotReadyForSG?</text>
</g>
<!-- Fallback&#45;&gt;NotReadyForSG? -->
<g id="edge6" class="edge">
<title>Fallback&#45;&gt;NotReadyForSG?</title>
<path fill="none" stroke="black" d="M657.63,-151.7C626.74,-140.2 573.66,-120.44 536.48,-106.59"/>
<polygon fill="black" stroke="black" points="537.51,-103.24 526.92,-103.03 535.07,-109.8 537.51,-103.24"/>
</g>
<!-- ReachGoal? -->
<g id="node8" class="node">
<title>ReachGoal?</title>
<ellipse fill="gray" stroke="black" cx="593.6" cy="-90" rx="34.13" ry="18"/>
<text text-anchor="middle" x="593.6" y="-87.8" font-family="Times,serif" font-size="9.00">ReachGoal?</text>
</g>
<!-- Fallback&#45;&gt;ReachGoal? -->
<g id="edge7" class="edge">
<title>Fallback&#45;&gt;ReachGoal?</title>
<path fill="none" stroke="black" d="M665.02,-147.17C652.14,-137.04 634.45,-123.13 619.9,-111.69"/>
<polygon fill="black" stroke="black" points="621.78,-108.71 611.76,-105.28 617.45,-114.21 621.78,-108.71"/>
</g>
<!-- Sequence** -->
<g id="node9" class="node">
<title>Sequence**</title>
<polygon fill="cyan" stroke="black" points="719.34,-82.54 719.34,-97.46 697.82,-108 667.38,-108 645.86,-97.46 645.86,-82.54 667.38,-72 697.82,-72 719.34,-82.54"/>
<text text-anchor="middle" x="682.6" y="-87.8" font-family="Times,serif" font-size="9.00">Sequence**</text>
</g>
<!-- Fallback&#45;&gt;Sequence** -->
<g id="edge8" class="edge">
<title>Fallback&#45;&gt;Sequence**</title>
<path fill="none" stroke="black" d="M682.6,-143.7C682.6,-135.98 682.6,-126.71 682.6,-118.11"/>
<polygon fill="black" stroke="black" points="686.1,-118.1 682.6,-108.1 679.1,-118.1 686.1,-118.1"/>
</g>
<!-- Sequence*** -->
<g id="node12" class="node">
<title>Sequence***</title>
<polygon fill="cyan" stroke="black" points="1091.59,-82.54 1091.59,-97.46 1068.16,-108 1035.04,-108 1011.61,-97.46 1011.61,-82.54 1035.04,-72 1068.16,-72 1091.59,-82.54"/>
<text text-anchor="middle" x="1051.6" y="-87.8" font-family="Times,serif" font-size="9.00">Sequence***</text>
</g>
<!-- Fallback&#45;&gt;Sequence*** -->
<g id="edge11" class="edge">
<title>Fallback&#45;&gt;Sequence***</title>
<path fill="none" stroke="black" d="M711.86,-155.45C775.16,-143.44 925.34,-114.95 1003.09,-100.2"/>
<polygon fill="black" stroke="black" points="1003.94,-103.6 1013.11,-98.3 1002.63,-96.73 1003.94,-103.6"/>
</g>
<!-- Sequence**** -->
<g id="node27" class="node">
<title>Sequence****</title>
<polygon fill="cyan" stroke="black" points="1965.09,-82.54 1965.09,-97.46 1940.2,-108 1905,-108 1880.11,-97.46 1880.11,-82.54 1905,-72 1940.2,-72 1965.09,-82.54"/>
<text text-anchor="middle" x="1922.6" y="-87.8" font-family="Times,serif" font-size="9.00">Sequence****</text>
</g>
<!-- Fallback&#45;&gt;Sequence**** -->
<g id="edge26" class="edge">
<title>Fallback&#45;&gt;Sequence****</title>
<path fill="none" stroke="black" d="M712.03,-159.34C874.06,-150.19 1657.8,-105.95 1869.69,-93.99"/>
<polygon fill="black" stroke="black" points="1870.14,-97.47 1879.93,-93.41 1869.75,-90.48 1870.14,-97.47"/>
</g>
<!-- Sequence***** -->
<g id="node31" class="node">
<title>Sequence*****</title>
<polygon fill="cyan" stroke="black" points="2266.34,-82.54 2266.34,-97.46 2239.55,-108 2201.65,-108 2174.86,-97.46 2174.86,-82.54 2201.65,-72 2239.55,-72 2266.34,-82.54"/>
<text text-anchor="middle" x="2220.6" y="-87.8" font-family="Times,serif" font-size="9.00">Sequence*****</text>
</g>
<!-- Fallback&#45;&gt;Sequence***** -->
<g id="edge30" class="edge">
<title>Fallback&#45;&gt;Sequence*****</title>
<path fill="none" stroke="black" d="M712.17,-160.09C852.91,-155.69 1469.08,-135.71 1973.6,-108 2039.11,-104.4 2114.31,-99.05 2164.36,-95.32"/>
<polygon fill="black" stroke="black" points="2164.93,-98.78 2174.64,-94.54 2164.41,-91.8 2164.93,-98.78"/>
</g>
<!-- LkGraph? -->
<g id="node4" class="node">
<title>LkGraph?</title>
<ellipse fill="gray" stroke="black" cx="30.6" cy="-18" rx="30.7" ry="18"/>
<text text-anchor="middle" x="30.6" y="-15.8" font-family="Times,serif" font-size="9.00">LkGraph?</text>
</g>
<!-- Sequence*&#45;&gt;LkGraph? -->
<g id="edge3" class="edge">
<title>Sequence*&#45;&gt;LkGraph?</title>
<path fill="none" stroke="black" d="M144.88,-76.97C122.05,-65.39 87.4,-47.81 62.23,-35.05"/>
<polygon fill="black" stroke="black" points="63.6,-31.82 53.1,-30.41 60.43,-38.06 63.6,-31.82"/>
</g>
<!-- CompLkGraph! -->
<g id="node5" class="node">
<title>CompLkGraph!</title>
<ellipse fill="gray" stroke="black" cx="121.6" cy="-18" rx="42.95" ry="18"/>
<text text-anchor="middle" x="121.6" y="-15.8" font-family="Times,serif" font-size="9.00">CompLkGraph!</text>
</g>
<!-- Sequence*&#45;&gt;CompLkGraph! -->
<g id="edge4" class="edge">
<title>Sequence*&#45;&gt;CompLkGraph!</title>
<path fill="none" stroke="black" d="M156.98,-71.7C151.38,-63.35 144.55,-53.18 138.4,-44.02"/>
<polygon fill="black" stroke="black" points="141.24,-41.97 132.76,-35.62 135.43,-45.88 141.24,-41.97"/>
</g>
<!-- LkGraph?* -->
<g id="node6" class="node">
<title>LkGraph?*</title>
<ellipse fill="gray" stroke="black" cx="215.6" cy="-18" rx="32.82" ry="18"/>
<text text-anchor="middle" x="215.6" y="-15.8" font-family="Times,serif" font-size="9.00">LkGraph?*</text>
</g>
<!-- Sequence*&#45;&gt;LkGraph?* -->
<g id="edge5" class="edge">
<title>Sequence*&#45;&gt;LkGraph?*</title>
<path fill="none" stroke="black" d="M180.22,-71.7C185.9,-63.23 192.85,-52.89 199.07,-43.61"/>
<polygon fill="black" stroke="black" points="202.09,-45.4 204.76,-35.14 196.28,-41.5 202.09,-45.4"/>
</g>
<!-- ReachGoal?* -->
<g id="node10" class="node">
<title>ReachGoal?*</title>
<ellipse fill="gray" stroke="black" cx="303.6" cy="-18" rx="36.9" ry="18"/>
<text text-anchor="middle" x="303.6" y="-15.8" font-family="Times,serif" font-size="9.00">ReachGoal?*</text>
</g>
<!-- Sequence**&#45;&gt;ReachGoal?* -->
<g id="edge9" class="edge">
<title>Sequence**&#45;&gt;ReachGoal?*</title>
<path fill="none" stroke="black" d="M655.19,-77.71C649.15,-75.54 642.72,-73.49 636.6,-72 511.71,-41.52 474.49,-66.48 349.6,-36 346.63,-35.28 343.6,-34.42 340.57,-33.49"/>
<polygon fill="black" stroke="black" points="341.6,-30.14 331.01,-30.29 339.39,-36.78 341.6,-30.14"/>
</g>
<!-- CompLkGraph!* -->
<g id="node11" class="node">
<title>CompLkGraph!*</title>
<ellipse fill="gray" stroke="black" cx="403.6" cy="-18" rx="45.07" ry="18"/>
<text text-anchor="middle" x="403.6" y="-15.8" font-family="Times,serif" font-size="9.00">CompLkGraph!*</text>
</g>
<!-- Sequence**&#45;&gt;CompLkGraph!* -->
<g id="edge10" class="edge">
<title>Sequence**&#45;&gt;CompLkGraph!*</title>
<path fill="none" stroke="black" d="M654.61,-77.87C648.72,-75.75 642.5,-73.67 636.6,-72 558.53,-49.87 536.19,-56.21 457.6,-36 454.06,-35.09 450.41,-34.08 446.75,-33.03"/>
<polygon fill="black" stroke="black" points="447.73,-29.67 437.14,-30.17 445.73,-36.38 447.73,-29.67"/>
</g>
<!-- GetSubGoal! -->
<g id="node13" class="node">
<title>GetSubGoal!</title>
<ellipse fill="gray" stroke="black" cx="503.6" cy="-18" rx="36.9" ry="18"/>
<text text-anchor="middle" x="503.6" y="-15.8" font-family="Times,serif" font-size="9.00">GetSubGoal!</text>
</g>
<!-- Sequence***&#45;&gt;GetSubGoal! -->
<g id="edge12" class="edge">
<title>Sequence***&#45;&gt;GetSubGoal!</title>
<path fill="none" stroke="black" d="M1011.34,-88.13C925.41,-85.55 718.14,-75.39 549.6,-36 546.63,-35.31 543.59,-34.47 540.55,-33.55"/>
<polygon fill="black" stroke="black" points="541.58,-30.21 530.99,-30.39 539.38,-36.85 541.58,-30.21"/>
</g>
<!-- MoveTo! -->
<g id="node14" class="node">
<title>MoveTo!</title>
<ellipse fill="gray" stroke="black" cx="587.6" cy="-18" rx="28.74" ry="18"/>
<text text-anchor="middle" x="587.6" y="-15.8" font-family="Times,serif" font-size="9.00">MoveTo!</text>
</g>
<!-- Sequence***&#45;&gt;MoveTo! -->
<g id="edge13" class="edge">
<title>Sequence***&#45;&gt;MoveTo!</title>
<path fill="none" stroke="black" d="M1011.48,-87.95C935.03,-85.1 763.78,-74.57 625.6,-36 623.31,-35.36 620.98,-34.6 618.66,-33.77"/>
<polygon fill="black" stroke="black" points="619.88,-30.49 609.29,-30.03 617.28,-36.99 619.88,-30.49"/>
</g>
<!-- MoveTo!* -->
<g id="node15" class="node">
<title>MoveTo!*</title>
<ellipse fill="gray" stroke="black" cx="666.6" cy="-18" rx="31.51" ry="18"/>
<text text-anchor="middle" x="666.6" y="-15.8" font-family="Times,serif" font-size="9.00">MoveTo!*</text>
</g>
<!-- Sequence***&#45;&gt;MoveTo!* -->
<g id="edge14" class="edge">
<title>Sequence***&#45;&gt;MoveTo!*</title>
<path fill="none" stroke="black" d="M1011.47,-85.96C946.6,-80.36 815.1,-66.1 707.6,-36 705.13,-35.31 702.61,-34.51 700.1,-33.65"/>
<polygon fill="black" stroke="black" points="701.13,-30.29 690.54,-30.05 698.67,-36.85 701.13,-30.29"/>
</g>
<!-- MoveTo!** -->
<g id="node16" class="node">
<title>MoveTo!**</title>
<ellipse fill="gray" stroke="black" cx="750.6" cy="-18" rx="34.13" ry="18"/>
<text text-anchor="middle" x="750.6" y="-15.8" font-family="Times,serif" font-size="9.00">MoveTo!**</text>
</g>
<!-- Sequence***&#45;&gt;MoveTo!** -->
<g id="edge15" class="edge">
<title>Sequence***&#45;&gt;MoveTo!**</title>
<path fill="none" stroke="black" d="M1011.29,-82.95C960.06,-74.76 869.2,-58.52 793.6,-36 791.02,-35.23 788.38,-34.37 785.74,-33.46"/>
<polygon fill="black" stroke="black" points="786.86,-30.14 776.27,-29.99 784.45,-36.72 786.86,-30.14"/>
</g>
<!-- NotReadyForSG?* -->
<g id="node17" class="node">
<title>NotReadyForSG?*</title>
<ellipse fill="gray" stroke="black" cx="852.6" cy="-18" rx="49.8" ry="18"/>
<text text-anchor="middle" x="852.6" y="-15.8" font-family="Times,serif" font-size="9.00">NotReadyForSG?*</text>
</g>
<!-- Sequence***&#45;&gt;NotReadyForSG?* -->
<g id="edge16" class="edge">
<title>Sequence***&#45;&gt;NotReadyForSG?*</title>
<path fill="none" stroke="black" d="M1020.94,-78.22C987.71,-66.53 934.4,-47.77 896.68,-34.51"/>
<polygon fill="black" stroke="black" points="897.56,-31.11 886.97,-31.09 895.24,-37.71 897.56,-31.11"/>
</g>
<!-- MoveTo!*** -->
<g id="node18" class="node">
<title>MoveTo!***</title>
<ellipse fill="gray" stroke="black" cx="957.6" cy="-18" rx="36.9" ry="18"/>
<text text-anchor="middle" x="957.6" y="-15.8" font-family="Times,serif" font-size="9.00">MoveTo!***</text>
</g>
<!-- Sequence***&#45;&gt;MoveTo!*** -->
<g id="edge17" class="edge">
<title>Sequence***&#45;&gt;MoveTo!***</title>
<path fill="none" stroke="black" d="M1030.74,-73.46C1017.35,-63.5 999.82,-50.44 985.28,-39.61"/>
<polygon fill="black" stroke="black" points="987.23,-36.7 977.12,-33.54 983.05,-42.32 987.23,-36.7"/>
</g>
<!-- MoveTo!**** -->
<g id="node19" class="node">
<title>MoveTo!****</title>
<ellipse fill="gray" stroke="black" cx="1051.6" cy="-18" rx="39.02" ry="18"/>
<text text-anchor="middle" x="1051.6" y="-15.8" font-family="Times,serif" font-size="9.00">MoveTo!****</text>
</g>
<!-- Sequence***&#45;&gt;MoveTo!**** -->
<g id="edge18" class="edge">
<title>Sequence***&#45;&gt;MoveTo!****</title>
<path fill="none" stroke="black" d="M1051.6,-71.7C1051.6,-63.98 1051.6,-54.71 1051.6,-46.11"/>
<polygon fill="black" stroke="black" points="1055.1,-46.1 1051.6,-36.1 1048.1,-46.1 1055.1,-46.1"/>
</g>
<!-- MoveTo!***** -->
<g id="node20" class="node">
<title>MoveTo!*****</title>
<ellipse fill="gray" stroke="black" cx="1150.6" cy="-18" rx="42.29" ry="18"/>
<text text-anchor="middle" x="1150.6" y="-15.8" font-family="Times,serif" font-size="9.00">MoveTo!*****</text>
</g>
<!-- Sequence***&#45;&gt;MoveTo!***** -->
<g id="edge19" class="edge">
<title>Sequence***&#45;&gt;MoveTo!*****</title>
<path fill="none" stroke="black" d="M1073.08,-73.81C1087.28,-63.77 1106.08,-50.48 1121.6,-39.5"/>
<polygon fill="black" stroke="black" points="1123.69,-42.31 1129.84,-33.68 1119.65,-36.6 1123.69,-42.31"/>
</g>
<!-- MoveTo!****** -->
<g id="node21" class="node">
<title>MoveTo!******</title>
<ellipse fill="gray" stroke="black" cx="1255.6" cy="-18" rx="44.41" ry="18"/>
<text text-anchor="middle" x="1255.6" y="-15.8" font-family="Times,serif" font-size="9.00">MoveTo!******</text>
</g>
<!-- Sequence***&#45;&gt;MoveTo!****** -->
<g id="edge20" class="edge">
<title>Sequence***&#45;&gt;MoveTo!******</title>
<path fill="none" stroke="black" d="M1082.58,-78.37C1117.42,-66.42 1174.19,-46.94 1213.14,-33.57"/>
<polygon fill="black" stroke="black" points="1214.31,-36.87 1222.63,-30.31 1212.04,-30.25 1214.31,-36.87"/>
</g>
<!-- MoveTo!******* -->
<g id="node22" class="node">
<title>MoveTo!*******</title>
<ellipse fill="gray" stroke="black" cx="1365.6" cy="-18" rx="47.19" ry="18"/>
<text text-anchor="middle" x="1365.6" y="-15.8" font-family="Times,serif" font-size="9.00">MoveTo!*******</text>
</g>
<!-- Sequence***&#45;&gt;MoveTo!******* -->
<g id="edge21" class="edge">
<title>Sequence***&#45;&gt;MoveTo!*******</title>
<path fill="none" stroke="black" d="M1090.59,-82.05C1141.15,-72.78 1231.95,-55.3 1308.6,-36 1312.43,-35.03 1316.39,-33.98 1320.36,-32.88"/>
<polygon fill="black" stroke="black" points="1321.5,-36.19 1330.16,-30.09 1319.58,-29.46 1321.5,-36.19"/>
</g>
<!-- MoveTo!******** -->
<g id="node23" class="node">
<title>MoveTo!********</title>
<ellipse fill="gray" stroke="black" cx="1480.6" cy="-18" rx="49.8" ry="18"/>
<text text-anchor="middle" x="1480.6" y="-15.8" font-family="Times,serif" font-size="9.00">MoveTo!********</text>
</g>
<!-- Sequence***&#45;&gt;MoveTo!******** -->
<g id="edge22" class="edge">
<title>Sequence***&#45;&gt;MoveTo!********</title>
<path fill="none" stroke="black" d="M1091.62,-85.1C1159.83,-78.05 1302.79,-61.5 1421.6,-36 1425.76,-35.11 1430.06,-34.08 1434.35,-32.98"/>
<polygon fill="black" stroke="black" points="1435.54,-36.29 1444.29,-30.31 1433.73,-29.52 1435.54,-36.29"/>
</g>
<!-- MoveTo!********* -->
<g id="node24" class="node">
<title>MoveTo!*********</title>
<ellipse fill="gray" stroke="black" cx="1600.6" cy="-18" rx="52.58" ry="18"/>
<text text-anchor="middle" x="1600.6" y="-15.8" font-family="Times,serif" font-size="9.00">MoveTo!*********</text>
</g>
<!-- Sequence***&#45;&gt;MoveTo!********* -->
<g id="edge23" class="edge">
<title>Sequence***&#45;&gt;MoveTo!*********</title>
<path fill="none" stroke="black" d="M1091.78,-86.87C1175.64,-81.93 1375.15,-67.62 1539.6,-36 1543.97,-35.16 1548.48,-34.16 1552.98,-33.07"/>
<polygon fill="black" stroke="black" points="1553.93,-36.44 1562.76,-30.58 1552.2,-29.66 1553.93,-36.44"/>
</g>
<!-- LkGraph?** -->
<g id="node25" class="node">
<title>LkGraph?**</title>
<ellipse fill="gray" stroke="black" cx="1706.6" cy="-18" rx="35.59" ry="18"/>
<text text-anchor="middle" x="1706.6" y="-15.8" font-family="Times,serif" font-size="9.00">LkGraph?**</text>
</g>
<!-- Sequence***&#45;&gt;LkGraph?** -->
<g id="edge24" class="edge">
<title>Sequence***&#45;&gt;LkGraph?**</title>
<path fill="none" stroke="black" d="M1091.88,-89.4C1190.57,-89.53 1451.77,-84.83 1662.6,-36 1665.27,-35.38 1668,-34.63 1670.73,-33.8"/>
<polygon fill="black" stroke="black" points="1672.12,-37.02 1680.46,-30.49 1669.86,-30.4 1672.12,-37.02"/>
</g>
<!-- GetLk! -->
<g id="node26" class="node">
<title>GetLk!</title>
<ellipse fill="gray" stroke="black" cx="1787.6" cy="-18" rx="27" ry="18"/>
<text text-anchor="middle" x="1787.6" y="-15.8" font-family="Times,serif" font-size="9.00">GetLk!</text>
</g>
<!-- Sequence***&#45;&gt;GetLk! -->
<g id="edge25" class="edge">
<title>Sequence***&#45;&gt;GetLk!</title>
<path fill="none" stroke="black" d="M1091.76,-87.88C1221.08,-83.97 1625.52,-69.32 1751.6,-36 1753.77,-35.43 1755.97,-34.72 1758.16,-33.94"/>
<polygon fill="black" stroke="black" points="1759.63,-37.11 1767.53,-30.05 1756.95,-30.65 1759.63,-37.11"/>
</g>
<!-- LkGraph?*** -->
<g id="node28" class="node">
<title>LkGraph?***</title>
<ellipse fill="gray" stroke="black" cx="1870.6" cy="-18" rx="38.21" ry="18"/>
<text text-anchor="middle" x="1870.6" y="-15.8" font-family="Times,serif" font-size="9.00">LkGraph?***</text>
</g>
<!-- Sequence****&#45;&gt;LkGraph?*** -->
<g id="edge27" class="edge">
<title>Sequence****&#45;&gt;LkGraph?***</title>
<path fill="none" stroke="black" d="M1909.75,-71.7C1903.39,-63.14 1895.61,-52.67 1888.67,-43.33"/>
<polygon fill="black" stroke="black" points="1891.37,-41.08 1882.59,-35.14 1885.75,-45.26 1891.37,-41.08"/>
</g>
<!-- CompLkGraph!** -->
<g id="node29" class="node">
<title>CompLkGraph!**</title>
<ellipse fill="gray" stroke="black" cx="1974.6" cy="-18" rx="47.84" ry="18"/>
<text text-anchor="middle" x="1974.6" y="-15.8" font-family="Times,serif" font-size="9.00">CompLkGraph!**</text>
</g>
<!-- Sequence****&#45;&gt;CompLkGraph!** -->
<g id="edge28" class="edge">
<title>Sequence****&#45;&gt;CompLkGraph!**</title>
<path fill="none" stroke="black" d="M1935.45,-71.7C1941.72,-63.27 1949.36,-52.97 1956.23,-43.73"/>
<polygon fill="black" stroke="black" points="1959.1,-45.74 1962.25,-35.62 1953.48,-41.56 1959.1,-45.74"/>
</g>
<!-- LkGraph?**** -->
<g id="node30" class="node">
<title>LkGraph?****</title>
<ellipse fill="gray" stroke="black" cx="2081.6" cy="-18" rx="40.98" ry="18"/>
<text text-anchor="middle" x="2081.6" y="-15.8" font-family="Times,serif" font-size="9.00">LkGraph?****</text>
</g>
<!-- Sequence****&#45;&gt;LkGraph?**** -->
<g id="edge29" class="edge">
<title>Sequence****&#45;&gt;LkGraph?****</title>
<path fill="none" stroke="black" d="M1951.03,-76.49C1977.11,-65 2015.91,-47.92 2044.44,-35.36"/>
<polygon fill="black" stroke="black" points="2045.94,-38.52 2053.69,-31.29 2043.12,-32.11 2045.94,-38.52"/>
</g>
<!-- LkClose? -->
<g id="node32" class="node">
<title>LkClose?</title>
<ellipse fill="gray" stroke="black" cx="2169.6" cy="-18" rx="28.74" ry="18"/>
<text text-anchor="middle" x="2169.6" y="-15.8" font-family="Times,serif" font-size="9.00">LkClose?</text>
</g>
<!-- Sequence*****&#45;&gt;LkClose? -->
<g id="edge31" class="edge">
<title>Sequence*****&#45;&gt;LkClose?</title>
<path fill="none" stroke="black" d="M2207.99,-71.7C2201.67,-63.02 2193.91,-52.37 2187.03,-42.92"/>
<polygon fill="black" stroke="black" points="2189.73,-40.69 2181.02,-34.67 2184.08,-44.81 2189.73,-40.69"/>
</g>
<!-- MoveTo!********** -->
<g id="node33" class="node">
<title>MoveTo!**********</title>
<ellipse fill="gray" stroke="black" cx="2271.6" cy="-18" rx="54.7" ry="18"/>
<text text-anchor="middle" x="2271.6" y="-15.8" font-family="Times,serif" font-size="9.00">MoveTo!**********</text>
</g>
<!-- Sequence*****&#45;&gt;MoveTo!********** -->
<g id="edge32" class="edge">
<title>Sequence*****&#45;&gt;MoveTo!**********</title>
<path fill="none" stroke="black" d="M2233.21,-71.7C2239.35,-63.27 2246.85,-52.97 2253.58,-43.73"/>
<polygon fill="black" stroke="black" points="2256.43,-45.77 2259.49,-35.62 2250.77,-41.64 2256.43,-45.77"/>
</g>
<!-- GetSubGoal!* -->
<g id="node34" class="node">
<title>GetSubGoal!*</title>
<ellipse fill="gray" stroke="black" cx="2383.6" cy="-18" rx="39.02" ry="18"/>
<text text-anchor="middle" x="2383.6" y="-15.8" font-family="Times,serif" font-size="9.00">GetSubGoal!*</text>
</g>
<!-- Sequence*****&#45;&gt;GetSubGoal!* -->
<g id="edge33" class="edge">
<title>Sequence*****&#45;&gt;GetSubGoal!*</title>
<path fill="none" stroke="black" d="M2250.5,-76.16C2277.5,-64.57 2317.34,-47.46 2346.39,-34.98"/>
<polygon fill="black" stroke="black" points="2347.99,-38.1 2355.8,-30.94 2345.23,-31.67 2347.99,-38.1"/>
</g>
</g>
</svg>
