<?xml version="1.0" encoding="UTF-8" standalone="no"?>
<!DOCTYPE svg PUBLIC "-//W3C//DTD SVG 1.1//EN"
 "http://www.w3.org/Graphics/SVG/1.1/DTD/svg11.dtd">
<!-- Generated by graphviz version 2.43.0 (0)
 -->
<!-- Title: pastafarianism Pages: 1 -->
<svg width="2156pt" height="332pt"
 viewBox="0.00 0.00 2156.10 332.00" xmlns="http://www.w3.org/2000/svg" xmlns:xlink="http://www.w3.org/1999/xlink">
<g id="graph0" class="graph" transform="scale(1 1) rotate(0) translate(4 328)">
<title>pastafarianism</title>
<polygon fill="white" stroke="transparent" points="-4,4 -4,-328 2152.1,-328 2152.1,4 -4,4"/>
<!-- Sequence -->
<g id="node1" class="node">
<title>Sequence</title>
<polygon fill="cyan" stroke="black" points="767.44,-298.54 767.44,-313.46 749,-324 722.91,-324 704.46,-313.46 704.46,-298.54 722.91,-288 749,-288 767.44,-298.54"/>
<text text-anchor="middle" x="735.95" y="-303.8" font-family="Times,serif" font-size="9.00">Sequence</text>
</g>
<!-- Fallback -->
<g id="node2" class="node">
<title>Fallback</title>
<polygon fill="cyan" stroke="black" points="765.19,-226.54 765.19,-241.46 748.06,-252 723.84,-252 706.71,-241.46 706.71,-226.54 723.84,-216 748.06,-216 765.19,-226.54"/>
<text text-anchor="middle" x="735.95" y="-231.8" font-family="Times,serif" font-size="9.00">Fallback</text>
</g>
<!-- Sequence&#45;&gt;Fallback -->
<g id="edge1" class="edge">
<title>Sequence&#45;&gt;Fallback</title>
<path fill="none" stroke="black" d="M735.95,-287.7C735.95,-279.98 735.95,-270.71 735.95,-262.11"/>
<polygon fill="black" stroke="black" points="739.45,-262.1 735.95,-252.1 732.45,-262.1 739.45,-262.1"/>
</g>
<!-- NotReadyForSG? -->
<g id="node3" class="node">
<title>NotReadyForSG?</title>
<ellipse fill="gray" stroke="black" cx="506.95" cy="-162" rx="46.53" ry="18"/>
<text text-anchor="middle" x="506.95" y="-159.8" font-family="Times,serif" font-size="9.00">NotReadyForSG?</text>
</g>
<!-- Fallback&#45;&gt;NotReadyForSG? -->
<g id="edge2" class="edge">
<title>Fallback&#45;&gt;NotReadyForSG?</title>
<path fill="none" stroke="black" d="M709.23,-224.83C670.68,-213.05 598.95,-191.12 552.09,-176.8"/>
<polygon fill="black" stroke="black" points="553.07,-173.44 542.49,-173.86 551.03,-180.13 553.07,-173.44"/>
</g>
<!-- ReachGoal? -->
<g id="node4" class="node">
<title>ReachGoal?</title>
<ellipse fill="gray" stroke="black" cx="605.95" cy="-162" rx="34.13" ry="18"/>
<text text-anchor="middle" x="605.95" y="-159.8" font-family="Times,serif" font-size="9.00">ReachGoal?</text>
</g>
<!-- Fallback&#45;&gt;ReachGoal? -->
<g id="edge3" class="edge">
<title>Fallback&#45;&gt;ReachGoal?</title>
<path fill="none" stroke="black" d="M714.48,-221.44C693.73,-210.27 662.01,-193.19 638.22,-180.38"/>
<polygon fill="black" stroke="black" points="639.67,-177.18 629.21,-175.52 636.35,-183.34 639.67,-177.18"/>
</g>
<!-- Sequence* -->
<g id="node5" class="node">
<title>Sequence*</title>
<polygon fill="cyan" stroke="black" points="726.19,-154.54 726.19,-169.46 706.13,-180 677.77,-180 657.71,-169.46 657.71,-154.54 677.77,-144 706.13,-144 726.19,-154.54"/>
<text text-anchor="middle" x="691.95" y="-159.8" font-family="Times,serif" font-size="9.00">Sequence*</text>
</g>
<!-- Fallback&#45;&gt;Sequence* -->
<g id="edge4" class="edge">
<title>Fallback&#45;&gt;Sequence*</title>
<path fill="none" stroke="black" d="M725.07,-215.7C719.96,-207.56 713.75,-197.69 708.11,-188.7"/>
<polygon fill="black" stroke="black" points="710.99,-186.71 702.7,-180.1 705.06,-190.43 710.99,-186.71"/>
</g>
<!-- Sequence** -->
<g id="node8" class="node">
<title>Sequence**</title>
<polygon fill="cyan" stroke="black" points="817.69,-154.54 817.69,-169.46 796.17,-180 765.73,-180 744.21,-169.46 744.21,-154.54 765.73,-144 796.17,-144 817.69,-154.54"/>
<text text-anchor="middle" x="780.95" y="-159.8" font-family="Times,serif" font-size="9.00">Sequence**</text>
</g>
<!-- Fallback&#45;&gt;Sequence** -->
<g id="edge7" class="edge">
<title>Fallback&#45;&gt;Sequence**</title>
<path fill="none" stroke="black" d="M747.07,-215.7C752.31,-207.56 758.65,-197.69 764.43,-188.7"/>
<polygon fill="black" stroke="black" points="767.49,-190.41 769.95,-180.1 761.6,-186.62 767.49,-190.41"/>
</g>
<!-- Sequence*** -->
<g id="node24" class="node">
<title>Sequence***</title>
<polygon fill="cyan" stroke="black" points="1633.94,-154.54 1633.94,-169.46 1610.51,-180 1577.39,-180 1553.96,-169.46 1553.96,-154.54 1577.39,-144 1610.51,-144 1633.94,-154.54"/>
<text text-anchor="middle" x="1593.95" y="-159.8" font-family="Times,serif" font-size="9.00">Sequence***</text>
</g>
<!-- Fallback&#45;&gt;Sequence*** -->
<g id="edge23" class="edge">
<title>Fallback&#45;&gt;Sequence***</title>
<path fill="none" stroke="black" d="M765.48,-230.59C891.42,-220.32 1384.33,-180.1 1543.85,-167.09"/>
<polygon fill="black" stroke="black" points="1544.18,-170.57 1553.86,-166.27 1543.61,-163.6 1544.18,-170.57"/>
</g>
<!-- Sequence**** -->
<g id="node31" class="node">
<title>Sequence****</title>
<polygon fill="cyan" stroke="black" points="1971.44,-154.54 1971.44,-169.46 1946.55,-180 1911.35,-180 1886.46,-169.46 1886.46,-154.54 1911.35,-144 1946.55,-144 1971.44,-154.54"/>
<text text-anchor="middle" x="1928.95" y="-159.8" font-family="Times,serif" font-size="9.00">Sequence****</text>
</g>
<!-- Fallback&#45;&gt;Sequence**** -->
<g id="edge30" class="edge">
<title>Fallback&#45;&gt;Sequence****</title>
<path fill="none" stroke="black" d="M765.31,-231.29C878.55,-224.72 1297.72,-200.35 1642.95,-180 1724.29,-175.21 1818.63,-169.59 1876.03,-166.16"/>
<polygon fill="black" stroke="black" points="1876.54,-169.64 1886.31,-165.55 1876.12,-162.65 1876.54,-169.64"/>
</g>
<!-- ReachGoal?* -->
<g id="node6" class="node">
<title>ReachGoal?*</title>
<ellipse fill="gray" stroke="black" cx="36.95" cy="-90" rx="36.9" ry="18"/>
<text text-anchor="middle" x="36.95" y="-87.8" font-family="Times,serif" font-size="9.00">ReachGoal?*</text>
</g>
<!-- Sequence*&#45;&gt;ReachGoal?* -->
<g id="edge5" class="edge">
<title>Sequence*&#45;&gt;ReachGoal?*</title>
<path fill="none" stroke="black" d="M666.9,-149.58C661.11,-147.37 654.9,-145.33 648.95,-144 402.96,-88.99 329.54,-160.24 82.95,-108 79.79,-107.33 76.55,-106.48 73.33,-105.53"/>
<polygon fill="black" stroke="black" points="74.4,-102.2 63.81,-102.41 72.22,-108.85 74.4,-102.2"/>
</g>
<!-- CompLkGraph! -->
<g id="node7" class="node">
<title>CompLkGraph!</title>
<ellipse fill="gray" stroke="black" cx="134.95" cy="-90" rx="42.95" ry="18"/>
<text text-anchor="middle" x="134.95" y="-87.8" font-family="Times,serif" font-size="9.00">CompLkGraph!</text>
</g>
<!-- Sequence*&#45;&gt;CompLkGraph! -->
<g id="edge6" class="edge">
<title>Sequence*&#45;&gt;CompLkGraph!</title>
<path fill="none" stroke="black" d="M666.89,-149.64C661.1,-147.43 654.89,-145.37 648.95,-144 448.28,-97.62 388.93,-148.28 186.95,-108 183.29,-107.27 179.53,-106.36 175.78,-105.35"/>
<polygon fill="black" stroke="black" points="176.56,-101.93 165.98,-102.48 174.59,-108.65 176.56,-101.93"/>
</g>
<!-- GetSubGoal! -->
<g id="node9" class="node">
<title>GetSubGoal!</title>
<ellipse fill="gray" stroke="black" cx="232.95" cy="-90" rx="36.9" ry="18"/>
<text text-anchor="middle" x="232.95" y="-87.8" font-family="Times,serif" font-size="9.00">GetSubGoal!</text>
</g>
<!-- Sequence**&#45;&gt;GetSubGoal! -->
<g id="edge8" class="edge">
<title>Sequence**&#45;&gt;GetSubGoal!</title>
<path fill="none" stroke="black" d="M754.08,-149.67C747.89,-147.45 741.27,-145.39 734.95,-144 536.39,-100.35 477.51,-151.65 278.95,-108 275.97,-107.34 272.92,-106.54 269.88,-105.64"/>
<polygon fill="black" stroke="black" points="270.9,-102.29 260.31,-102.51 268.73,-108.94 270.9,-102.29"/>
</g>
<!-- MoveTo! -->
<g id="node10" class="node">
<title>MoveTo!</title>
<ellipse fill="gray" stroke="black" cx="316.95" cy="-90" rx="28.74" ry="18"/>
<text text-anchor="middle" x="316.95" y="-87.8" font-family="Times,serif" font-size="9.00">MoveTo!</text>
</g>
<!-- Sequence**&#45;&gt;MoveTo! -->
<g id="edge9" class="edge">
<title>Sequence**&#45;&gt;MoveTo!</title>
<path fill="none" stroke="black" d="M753.57,-149.56C747.53,-147.41 741.09,-145.4 734.95,-144 569.55,-106.28 519,-151.21 354.95,-108 352.65,-107.39 350.31,-106.66 347.99,-105.85"/>
<polygon fill="black" stroke="black" points="349.2,-102.56 338.61,-102.14 346.62,-109.07 349.2,-102.56"/>
</g>
<!-- MoveTo!* -->
<g id="node11" class="node">
<title>MoveTo!*</title>
<ellipse fill="gray" stroke="black" cx="395.95" cy="-90" rx="31.51" ry="18"/>
<text text-anchor="middle" x="395.95" y="-87.8" font-family="Times,serif" font-size="9.00">MoveTo!*</text>
</g>
<!-- Sequence**&#45;&gt;MoveTo!* -->
<g id="edge10" class="edge">
<title>Sequence**&#45;&gt;MoveTo!*</title>
<path fill="none" stroke="black" d="M753.55,-149.68C747.5,-147.52 741.07,-145.48 734.95,-144 605.28,-112.66 565.99,-141.86 436.95,-108 434.47,-107.35 431.95,-106.58 429.43,-105.74"/>
<polygon fill="black" stroke="black" points="430.45,-102.38 419.85,-102.19 428.01,-108.95 430.45,-102.38"/>
</g>
<!-- MoveTo!** -->
<g id="node12" class="node">
<title>MoveTo!**</title>
<ellipse fill="gray" stroke="black" cx="479.95" cy="-90" rx="34.13" ry="18"/>
<text text-anchor="middle" x="479.95" y="-87.8" font-family="Times,serif" font-size="9.00">MoveTo!**</text>
</g>
<!-- Sequence**&#45;&gt;MoveTo!** -->
<g id="edge11" class="edge">
<title>Sequence**&#45;&gt;MoveTo!**</title>
<path fill="none" stroke="black" d="M753.49,-149.91C747.45,-147.73 741.04,-145.63 734.95,-144 642.62,-119.33 615,-133.71 522.95,-108 520.36,-107.28 517.71,-106.45 515.06,-105.56"/>
<polygon fill="black" stroke="black" points="516.17,-102.24 505.57,-102.14 513.79,-108.82 516.17,-102.24"/>
</g>
<!-- NotReadyForSG?* -->
<g id="node13" class="node">
<title>NotReadyForSG?*</title>
<ellipse fill="gray" stroke="black" cx="581.95" cy="-90" rx="49.8" ry="18"/>
<text text-anchor="middle" x="581.95" y="-87.8" font-family="Times,serif" font-size="9.00">NotReadyForSG?*</text>
</g>
<!-- Sequence**&#45;&gt;NotReadyForSG?* -->
<g id="edge12" class="edge">
<title>Sequence**&#45;&gt;NotReadyForSG?*</title>
<path fill="none" stroke="black" d="M752.27,-150.3C746.54,-148.19 740.56,-146.01 734.95,-144 698.53,-130.96 657.06,-116.63 626.49,-106.16"/>
<polygon fill="black" stroke="black" points="627.56,-102.83 616.96,-102.9 625.29,-109.45 627.56,-102.83"/>
</g>
<!-- MoveTo!*** -->
<g id="node14" class="node">
<title>MoveTo!***</title>
<ellipse fill="gray" stroke="black" cx="686.95" cy="-90" rx="36.9" ry="18"/>
<text text-anchor="middle" x="686.95" y="-87.8" font-family="Times,serif" font-size="9.00">MoveTo!***</text>
</g>
<!-- Sequence**&#45;&gt;MoveTo!*** -->
<g id="edge13" class="edge">
<title>Sequence**&#45;&gt;MoveTo!***</title>
<path fill="none" stroke="black" d="M761.02,-146.15C747.59,-136.16 729.7,-122.83 714.86,-111.78"/>
<polygon fill="black" stroke="black" points="716.65,-108.75 706.53,-105.58 712.46,-114.36 716.65,-108.75"/>
</g>
<!-- MoveTo!**** -->
<g id="node15" class="node">
<title>MoveTo!****</title>
<ellipse fill="gray" stroke="black" cx="780.95" cy="-90" rx="39.02" ry="18"/>
<text text-anchor="middle" x="780.95" y="-87.8" font-family="Times,serif" font-size="9.00">MoveTo!****</text>
</g>
<!-- Sequence**&#45;&gt;MoveTo!**** -->
<g id="edge14" class="edge">
<title>Sequence**&#45;&gt;MoveTo!****</title>
<path fill="none" stroke="black" d="M780.95,-143.7C780.95,-135.98 780.95,-126.71 780.95,-118.11"/>
<polygon fill="black" stroke="black" points="784.45,-118.1 780.95,-108.1 777.45,-118.1 784.45,-118.1"/>
</g>
<!-- MoveTo!***** -->
<g id="node16" class="node">
<title>MoveTo!*****</title>
<ellipse fill="gray" stroke="black" cx="879.95" cy="-90" rx="42.29" ry="18"/>
<text text-anchor="middle" x="879.95" y="-87.8" font-family="Times,serif" font-size="9.00">MoveTo!*****</text>
</g>
<!-- Sequence**&#45;&gt;MoveTo!***** -->
<g id="edge15" class="edge">
<title>Sequence**&#45;&gt;MoveTo!*****</title>
<path fill="none" stroke="black" d="M801.46,-146.5C815.7,-136.43 834.89,-122.86 850.72,-111.67"/>
<polygon fill="black" stroke="black" points="852.98,-114.36 859.12,-105.73 848.94,-108.64 852.98,-114.36"/>
</g>
<!-- Fallback* -->
<g id="node17" class="node">
<title>Fallback*</title>
<polygon fill="cyan" stroke="black" points="1003.69,-82.54 1003.69,-97.46 985.1,-108 958.8,-108 940.21,-97.46 940.21,-82.54 958.8,-72 985.1,-72 1003.69,-82.54"/>
<text text-anchor="middle" x="971.95" y="-87.8" font-family="Times,serif" font-size="9.00">Fallback*</text>
</g>
<!-- Sequence**&#45;&gt;Fallback* -->
<g id="edge16" class="edge">
<title>Sequence**&#45;&gt;Fallback*</title>
<path fill="none" stroke="black" d="M810.72,-151.01C841.11,-140.68 889.56,-123.88 930.95,-108 933.05,-107.19 935.21,-106.35 937.39,-105.48"/>
<polygon fill="black" stroke="black" points="938.93,-108.64 946.88,-101.64 936.3,-102.15 938.93,-108.64"/>
</g>
<!-- MoveTo!******** -->
<g id="node20" class="node">
<title>MoveTo!********</title>
<ellipse fill="gray" stroke="black" cx="1071.95" cy="-90" rx="49.8" ry="18"/>
<text text-anchor="middle" x="1071.95" y="-87.8" font-family="Times,serif" font-size="9.00">MoveTo!********</text>
</g>
<!-- Sequence**&#45;&gt;MoveTo!******** -->
<g id="edge19" class="edge">
<title>Sequence**&#45;&gt;MoveTo!********</title>
<path fill="none" stroke="black" d="M816.08,-153.62C861.65,-143.89 943.54,-125.91 1012.95,-108 1016.96,-106.97 1021.1,-105.85 1025.26,-104.71"/>
<polygon fill="black" stroke="black" points="1026.21,-108.08 1034.9,-102.02 1024.33,-101.34 1026.21,-108.08"/>
</g>
<!-- MoveTo!********* -->
<g id="node21" class="node">
<title>MoveTo!*********</title>
<ellipse fill="gray" stroke="black" cx="1191.95" cy="-90" rx="52.58" ry="18"/>
<text text-anchor="middle" x="1191.95" y="-87.8" font-family="Times,serif" font-size="9.00">MoveTo!*********</text>
</g>
<!-- Sequence**&#45;&gt;MoveTo!********* -->
<g id="edge20" class="edge">
<title>Sequence**&#45;&gt;MoveTo!*********</title>
<path fill="none" stroke="black" d="M817.75,-156.92C881.81,-149.49 1017.83,-132.23 1130.95,-108 1135.12,-107.11 1139.43,-106.09 1143.74,-105.02"/>
<polygon fill="black" stroke="black" points="1144.93,-108.32 1153.73,-102.42 1143.17,-101.55 1144.93,-108.32"/>
</g>
<!-- MoveTo!********** -->
<g id="node22" class="node">
<title>MoveTo!**********</title>
<ellipse fill="gray" stroke="black" cx="1316.95" cy="-90" rx="54.7" ry="18"/>
<text text-anchor="middle" x="1316.95" y="-87.8" font-family="Times,serif" font-size="9.00">MoveTo!**********</text>
</g>
<!-- Sequence**&#45;&gt;MoveTo!********** -->
<g id="edge21" class="edge">
<title>Sequence**&#45;&gt;MoveTo!**********</title>
<path fill="none" stroke="black" d="M817.73,-158.79C897.67,-153.57 1093.01,-138.55 1253.95,-108 1258.39,-107.16 1262.98,-106.16 1267.55,-105.09"/>
<polygon fill="black" stroke="black" points="1268.64,-108.43 1277.51,-102.63 1266.96,-101.63 1268.64,-108.43"/>
</g>
<!-- GetLk! -->
<g id="node23" class="node">
<title>GetLk!</title>
<ellipse fill="gray" stroke="black" cx="1416.95" cy="-90" rx="27" ry="18"/>
<text text-anchor="middle" x="1416.95" y="-87.8" font-family="Times,serif" font-size="9.00">GetLk!</text>
</g>
<!-- Sequence**&#45;&gt;GetLk! -->
<g id="edge22" class="edge">
<title>Sequence**&#45;&gt;GetLk!</title>
<path fill="none" stroke="black" d="M817.75,-159.45C931.09,-154.4 1273.71,-137.06 1380.95,-108 1382.9,-107.47 1384.88,-106.84 1386.85,-106.14"/>
<polygon fill="black" stroke="black" points="1388.57,-109.22 1396.49,-102.18 1385.91,-102.74 1388.57,-109.22"/>
</g>
<!-- MoveTo!****** -->
<g id="node18" class="node">
<title>MoveTo!******</title>
<ellipse fill="gray" stroke="black" cx="916.95" cy="-18" rx="44.41" ry="18"/>
<text text-anchor="middle" x="916.95" y="-15.8" font-family="Times,serif" font-size="9.00">MoveTo!******</text>
</g>
<!-- Fallback*&#45;&gt;MoveTo!****** -->
<g id="edge17" class="edge">
<title>Fallback*&#45;&gt;MoveTo!******</title>
<path fill="none" stroke="black" d="M958.64,-72.05C951.85,-63.42 943.48,-52.76 936.02,-43.27"/>
<polygon fill="black" stroke="black" points="938.69,-41.01 929.76,-35.31 933.19,-45.33 938.69,-41.01"/>
</g>
<!-- MoveTo!******* -->
<g id="node19" class="node">
<title>MoveTo!*******</title>
<ellipse fill="gray" stroke="black" cx="1026.95" cy="-18" rx="47.19" ry="18"/>
<text text-anchor="middle" x="1026.95" y="-15.8" font-family="Times,serif" font-size="9.00">MoveTo!*******</text>
</g>
<!-- Fallback*&#45;&gt;MoveTo!******* -->
<g id="edge18" class="edge">
<title>Fallback*&#45;&gt;MoveTo!*******</title>
<path fill="none" stroke="black" d="M985.26,-72.05C991.95,-63.54 1000.18,-53.07 1007.56,-43.68"/>
<polygon fill="black" stroke="black" points="1010.33,-45.81 1013.76,-35.79 1004.83,-41.49 1010.33,-45.81"/>
</g>
<!-- LkGraph? -->
<g id="node25" class="node">
<title>LkGraph?</title>
<ellipse fill="gray" stroke="black" cx="1492.95" cy="-90" rx="30.7" ry="18"/>
<text text-anchor="middle" x="1492.95" y="-87.8" font-family="Times,serif" font-size="9.00">LkGraph?</text>
</g>
<!-- Sequence***&#45;&gt;LkGraph? -->
<g id="edge24" class="edge">
<title>Sequence***&#45;&gt;LkGraph?</title>
<path fill="none" stroke="black" d="M1572.53,-146.15C1557.38,-135.66 1536.94,-121.49 1520.57,-110.14"/>
<polygon fill="black" stroke="black" points="1522.17,-106.99 1511.96,-104.17 1518.18,-112.74 1522.17,-106.99"/>
</g>
<!-- NotReadyForSG?** -->
<g id="node26" class="node">
<title>NotReadyForSG?**</title>
<ellipse fill="gray" stroke="black" cx="1593.95" cy="-90" rx="51.92" ry="18"/>
<text text-anchor="middle" x="1593.95" y="-87.8" font-family="Times,serif" font-size="9.00">NotReadyForSG?**</text>
</g>
<!-- Sequence***&#45;&gt;NotReadyForSG?** -->
<g id="edge25" class="edge">
<title>Sequence***&#45;&gt;NotReadyForSG?**</title>
<path fill="none" stroke="black" d="M1593.95,-143.7C1593.95,-135.98 1593.95,-126.71 1593.95,-118.11"/>
<polygon fill="black" stroke="black" points="1597.45,-118.1 1593.95,-108.1 1590.45,-118.1 1597.45,-118.1"/>
</g>
<!-- Fallback** -->
<g id="node27" class="node">
<title>Fallback**</title>
<polygon fill="cyan" stroke="black" points="1733.94,-82.54 1733.94,-97.46 1713.44,-108 1684.46,-108 1663.96,-97.46 1663.96,-82.54 1684.46,-72 1713.44,-72 1733.94,-82.54"/>
<text text-anchor="middle" x="1698.95" y="-87.8" font-family="Times,serif" font-size="9.00">Fallback**</text>
</g>
<!-- Sequence***&#45;&gt;Fallback** -->
<g id="edge26" class="edge">
<title>Sequence***&#45;&gt;Fallback**</title>
<path fill="none" stroke="black" d="M1615.96,-146.33C1631.53,-135.95 1652.57,-121.92 1669.57,-110.59"/>
<polygon fill="black" stroke="black" points="1671.66,-113.4 1678.04,-104.94 1667.78,-107.57 1671.66,-113.4"/>
</g>
<!-- LkGraph?* -->
<g id="node30" class="node">
<title>LkGraph?*</title>
<ellipse fill="gray" stroke="black" cx="1784.95" cy="-90" rx="32.82" ry="18"/>
<text text-anchor="middle" x="1784.95" y="-87.8" font-family="Times,serif" font-size="9.00">LkGraph?*</text>
</g>
<!-- Sequence***&#45;&gt;LkGraph?* -->
<g id="edge29" class="edge">
<title>Sequence***&#45;&gt;LkGraph?*</title>
<path fill="none" stroke="black" d="M1624.91,-150.42C1655.15,-139.99 1702.4,-123.41 1742.95,-108 1745.18,-107.15 1747.48,-106.26 1749.79,-105.36"/>
<polygon fill="black" stroke="black" points="1751.25,-108.55 1759.25,-101.6 1748.67,-102.04 1751.25,-108.55"/>
</g>
<!-- GetSubGoal!* -->
<g id="node28" class="node">
<title>GetSubGoal!*</title>
<ellipse fill="gray" stroke="black" cx="1640.95" cy="-18" rx="39.02" ry="18"/>
<text text-anchor="middle" x="1640.95" y="-15.8" font-family="Times,serif" font-size="9.00">GetSubGoal!*</text>
</g>
<!-- Fallback**&#45;&gt;GetSubGoal!* -->
<g id="edge27" class="edge">
<title>Fallback**&#45;&gt;GetSubGoal!*</title>
<path fill="none" stroke="black" d="M1684.61,-71.7C1677.45,-63.05 1668.67,-52.46 1660.87,-43.04"/>
<polygon fill="black" stroke="black" points="1663.4,-40.61 1654.33,-35.14 1658.01,-45.08 1663.4,-40.61"/>
</g>
<!-- MoveTo!*********** -->
<g id="node29" class="node">
<title>MoveTo!***********</title>
<ellipse fill="gray" stroke="black" cx="1755.95" cy="-18" rx="57.97" ry="18"/>
<text text-anchor="middle" x="1755.95" y="-15.8" font-family="Times,serif" font-size="9.00">MoveTo!***********</text>
</g>
<!-- Fallback**&#45;&gt;MoveTo!*********** -->
<g id="edge28" class="edge">
<title>Fallback**&#45;&gt;MoveTo!***********</title>
<path fill="none" stroke="black" d="M1713.04,-71.7C1719.98,-63.18 1728.46,-52.76 1736.04,-43.45"/>
<polygon fill="black" stroke="black" points="1738.81,-45.59 1742.42,-35.62 1733.39,-41.17 1738.81,-45.59"/>
</g>
<!-- LkGraph?** -->
<g id="node32" class="node">
<title>LkGraph?**</title>
<ellipse fill="gray" stroke="black" cx="1871.95" cy="-90" rx="35.59" ry="18"/>
<text text-anchor="middle" x="1871.95" y="-87.8" font-family="Times,serif" font-size="9.00">LkGraph?**</text>
</g>
<!-- Sequence****&#45;&gt;LkGraph?** -->
<g id="edge31" class="edge">
<title>Sequence****&#45;&gt;LkGraph?**</title>
<path fill="none" stroke="black" d="M1914.86,-143.7C1907.82,-135.05 1899.19,-124.46 1891.53,-115.04"/>
<polygon fill="black" stroke="black" points="1894.13,-112.69 1885.1,-107.14 1888.7,-117.11 1894.13,-112.69"/>
</g>
<!-- MoveTo!************ -->
<g id="node33" class="node">
<title>MoveTo!************</title>
<ellipse fill="gray" stroke="black" cx="1985.95" cy="-90" rx="60.09" ry="18"/>
<text text-anchor="middle" x="1985.95" y="-87.8" font-family="Times,serif" font-size="9.00">MoveTo!************</text>
</g>
<!-- Sequence****&#45;&gt;MoveTo!************ -->
<g id="edge32" class="edge">
<title>Sequence****&#45;&gt;MoveTo!************</title>
<path fill="none" stroke="black" d="M1943.04,-143.7C1949.98,-135.18 1958.46,-124.76 1966.04,-115.45"/>
<polygon fill="black" stroke="black" points="1968.81,-117.59 1972.42,-107.62 1963.39,-113.17 1968.81,-117.59"/>
</g>
<!-- GetSubGoal!** -->
<g id="node34" class="node">
<title>GetSubGoal!**</title>
<ellipse fill="gray" stroke="black" cx="2105.95" cy="-90" rx="42.29" ry="18"/>
<text text-anchor="middle" x="2105.95" y="-87.8" font-family="Times,serif" font-size="9.00">GetSubGoal!**</text>
</g>
<!-- Sequence****&#45;&gt;GetSubGoal!** -->
<g id="edge33" class="edge">
<title>Sequence****&#45;&gt;GetSubGoal!**</title>
<path fill="none" stroke="black" d="M1958.98,-149.13C1988.56,-137.42 2033.93,-119.48 2066.43,-106.63"/>
<polygon fill="black" stroke="black" points="2068.06,-109.75 2076.07,-102.82 2065.49,-103.24 2068.06,-109.75"/>
</g>
</g>
</svg>
