<?xml version="1.0" encoding="UTF-8" standalone="no"?>
<!DOCTYPE svg PUBLIC "-//W3C//DTD SVG 1.1//EN"
 "http://www.w3.org/Graphics/SVG/1.1/DTD/svg11.dtd">
<!-- Generated by graphviz version 2.43.0 (0)
 -->
<!-- Title: pastafarianism Pages: 1 -->
<svg width="810pt" height="188pt"
 viewBox="0.00 0.00 809.56 188.00" xmlns="http://www.w3.org/2000/svg" xmlns:xlink="http://www.w3.org/1999/xlink">
<g id="graph0" class="graph" transform="scale(1 1) rotate(0) translate(4 184)">
<title>pastafarianism</title>
<polygon fill="white" stroke="transparent" points="-4,4 -4,-184 805.56,-184 805.56,4 -4,4"/>
<!-- Sequence -->
<g id="node1" class="node">
<title>Sequence</title>
<polygon fill="cyan" stroke="black" points="509.15,-154.54 509.15,-169.46 490.7,-180 464.61,-180 446.16,-169.46 446.16,-154.54 464.61,-144 490.7,-144 509.15,-154.54"/>
<text text-anchor="middle" x="477.65" y="-159.8" font-family="Times,serif" font-size="9.00">Sequence</text>
</g>
<!-- NotReadyForSG? -->
<g id="node2" class="node">
<title>NotReadyForSG?</title>
<ellipse fill="gray" stroke="black" cx="139.65" cy="-90" rx="46.53" ry="18"/>
<text text-anchor="middle" x="139.65" y="-87.8" font-family="Times,serif" font-size="9.00">NotReadyForSG?</text>
</g>
<!-- Sequence&#45;&gt;NotReadyForSG? -->
<g id="edge1" class="edge">
<title>Sequence&#45;&gt;NotReadyForSG?</title>
<path fill="none" stroke="black" d="M446.12,-156.22C393.73,-148.04 285.65,-130.05 195.65,-108 191.87,-107.07 187.97,-106.05 184.07,-104.97"/>
<polygon fill="black" stroke="black" points="185.02,-101.6 174.44,-102.2 183.09,-108.32 185.02,-101.6"/>
</g>
<!-- Fallback -->
<g id="node3" class="node">
<title>Fallback</title>
<polygon fill="cyan" stroke="black" points="262.9,-82.54 262.9,-97.46 245.76,-108 221.54,-108 204.41,-97.46 204.41,-82.54 221.54,-72 245.76,-72 262.9,-82.54"/>
<text text-anchor="middle" x="233.65" y="-87.8" font-family="Times,serif" font-size="9.00">Fallback</text>
</g>
<!-- Sequence&#45;&gt;Fallback -->
<g id="edge2" class="edge">
<title>Sequence&#45;&gt;Fallback</title>
<path fill="none" stroke="black" d="M448.7,-152.7C404.39,-139.98 319.75,-115.7 270.92,-101.69"/>
<polygon fill="black" stroke="black" points="271.64,-98.26 261.06,-98.86 269.71,-104.99 271.64,-98.26"/>
</g>
<!-- Fallback* -->
<g id="node7" class="node">
<title>Fallback*</title>
<polygon fill="cyan" stroke="black" points="425.39,-82.54 425.39,-97.46 406.8,-108 380.5,-108 361.91,-97.46 361.91,-82.54 380.5,-72 406.8,-72 425.39,-82.54"/>
<text text-anchor="middle" x="393.65" y="-87.8" font-family="Times,serif" font-size="9.00">Fallback*</text>
</g>
<!-- Sequence&#45;&gt;Fallback* -->
<g id="edge6" class="edge">
<title>Sequence&#45;&gt;Fallback*</title>
<path fill="none" stroke="black" d="M459.84,-146.15C447.95,-136.25 432.15,-123.08 418.96,-112.09"/>
<polygon fill="black" stroke="black" points="421.08,-109.3 411.15,-105.58 416.59,-114.67 421.08,-109.3"/>
</g>
<!-- ReachGoal? -->
<g id="node13" class="node">
<title>ReachGoal?</title>
<ellipse fill="gray" stroke="black" cx="477.65" cy="-90" rx="34.13" ry="18"/>
<text text-anchor="middle" x="477.65" y="-87.8" font-family="Times,serif" font-size="9.00">ReachGoal?</text>
</g>
<!-- Sequence&#45;&gt;ReachGoal? -->
<g id="edge12" class="edge">
<title>Sequence&#45;&gt;ReachGoal?</title>
<path fill="none" stroke="black" d="M477.65,-143.7C477.65,-135.98 477.65,-126.71 477.65,-118.11"/>
<polygon fill="black" stroke="black" points="481.15,-118.1 477.65,-108.1 474.15,-118.1 481.15,-118.1"/>
</g>
<!-- GetSubGoal!** -->
<g id="node14" class="node">
<title>GetSubGoal!**</title>
<ellipse fill="gray" stroke="black" cx="571.65" cy="-90" rx="42.29" ry="18"/>
<text text-anchor="middle" x="571.65" y="-87.8" font-family="Times,serif" font-size="9.00">GetSubGoal!**</text>
</g>
<!-- Sequence&#45;&gt;GetSubGoal!** -->
<g id="edge13" class="edge">
<title>Sequence&#45;&gt;GetSubGoal!**</title>
<path fill="none" stroke="black" d="M496.67,-146.83C510.16,-136.79 528.49,-123.15 543.64,-111.86"/>
<polygon fill="black" stroke="black" points="545.75,-114.65 551.68,-105.87 541.57,-109.03 545.75,-114.65"/>
</g>
<!-- CompLkGraph! -->
<g id="node15" class="node">
<title>CompLkGraph!</title>
<ellipse fill="gray" stroke="black" cx="674.65" cy="-90" rx="42.95" ry="18"/>
<text text-anchor="middle" x="674.65" y="-87.8" font-family="Times,serif" font-size="9.00">CompLkGraph!</text>
</g>
<!-- Sequence&#45;&gt;CompLkGraph! -->
<g id="edge14" class="edge">
<title>Sequence&#45;&gt;CompLkGraph!</title>
<path fill="none" stroke="black" d="M504.22,-151.56C537.43,-139.76 594.62,-119.44 633.51,-105.62"/>
<polygon fill="black" stroke="black" points="634.73,-108.9 642.98,-102.25 632.38,-102.3 634.73,-108.9"/>
</g>
<!-- LkGraph?* -->
<g id="node16" class="node">
<title>LkGraph?*</title>
<ellipse fill="gray" stroke="black" cx="768.65" cy="-90" rx="32.82" ry="18"/>
<text text-anchor="middle" x="768.65" y="-87.8" font-family="Times,serif" font-size="9.00">LkGraph?*</text>
</g>
<!-- Sequence&#45;&gt;LkGraph?* -->
<g id="edge15" class="edge">
<title>Sequence&#45;&gt;LkGraph?*</title>
<path fill="none" stroke="black" d="M509.15,-156.11C556.85,-148.31 649.95,-131.49 726.65,-108 729.09,-107.25 731.58,-106.43 734.07,-105.55"/>
<polygon fill="black" stroke="black" points="735.46,-108.76 743.59,-101.98 733,-102.21 735.46,-108.76"/>
</g>
<!-- NotReadyForSG?* -->
<g id="node4" class="node">
<title>NotReadyForSG?*</title>
<ellipse fill="gray" stroke="black" cx="49.65" cy="-18" rx="49.8" ry="18"/>
<text text-anchor="middle" x="49.65" y="-15.8" font-family="Times,serif" font-size="9.00">NotReadyForSG?*</text>
</g>
<!-- Fallback&#45;&gt;NotReadyForSG?* -->
<g id="edge3" class="edge">
<title>Fallback&#45;&gt;NotReadyForSG?*</title>
<path fill="none" stroke="black" d="M210.86,-78.48C205.88,-76.27 200.61,-74.01 195.65,-72 161.96,-58.37 123.28,-44.4 94.2,-34.23"/>
<polygon fill="black" stroke="black" points="95.33,-30.92 84.73,-30.93 93.02,-37.53 95.33,-30.92"/>
</g>
<!-- LkGraph? -->
<g id="node5" class="node">
<title>LkGraph?</title>
<ellipse fill="gray" stroke="black" cx="147.65" cy="-18" rx="30.7" ry="18"/>
<text text-anchor="middle" x="147.65" y="-15.8" font-family="Times,serif" font-size="9.00">LkGraph?</text>
</g>
<!-- Fallback&#45;&gt;LkGraph? -->
<g id="edge4" class="edge">
<title>Fallback&#45;&gt;LkGraph?</title>
<path fill="none" stroke="black" d="M216.25,-74.83C203.78,-64.68 186.79,-50.85 172.84,-39.5"/>
<polygon fill="black" stroke="black" points="174.99,-36.74 165.03,-33.14 170.58,-42.17 174.99,-36.74"/>
</g>
<!-- GetSubGoal! -->
<g id="node6" class="node">
<title>GetSubGoal!</title>
<ellipse fill="gray" stroke="black" cx="233.65" cy="-18" rx="36.9" ry="18"/>
<text text-anchor="middle" x="233.65" y="-15.8" font-family="Times,serif" font-size="9.00">GetSubGoal!</text>
</g>
<!-- Fallback&#45;&gt;GetSubGoal! -->
<g id="edge5" class="edge">
<title>Fallback&#45;&gt;GetSubGoal!</title>
<path fill="none" stroke="black" d="M233.65,-71.7C233.65,-63.98 233.65,-54.71 233.65,-46.11"/>
<polygon fill="black" stroke="black" points="237.15,-46.1 233.65,-36.1 230.15,-46.1 237.15,-46.1"/>
</g>
<!-- LkClose? -->
<g id="node8" class="node">
<title>LkClose?</title>
<ellipse fill="gray" stroke="black" cx="317.65" cy="-18" rx="28.74" ry="18"/>
<text text-anchor="middle" x="317.65" y="-15.8" font-family="Times,serif" font-size="9.00">LkClose?</text>
</g>
<!-- Fallback*&#45;&gt;LkClose? -->
<g id="edge7" class="edge">
<title>Fallback*&#45;&gt;LkClose?</title>
<path fill="none" stroke="black" d="M377.16,-73.81C366.59,-64.08 352.71,-51.29 341.01,-40.52"/>
<polygon fill="black" stroke="black" points="343.06,-37.64 333.33,-33.44 338.32,-42.79 343.06,-37.64"/>
</g>
<!-- MoveTo! -->
<g id="node9" class="node">
<title>MoveTo!</title>
<ellipse fill="gray" stroke="black" cx="393.65" cy="-18" rx="28.74" ry="18"/>
<text text-anchor="middle" x="393.65" y="-15.8" font-family="Times,serif" font-size="9.00">MoveTo!</text>
</g>
<!-- Fallback*&#45;&gt;MoveTo! -->
<g id="edge8" class="edge">
<title>Fallback*&#45;&gt;MoveTo!</title>
<path fill="none" stroke="black" d="M393.65,-71.7C393.65,-63.98 393.65,-54.71 393.65,-46.11"/>
<polygon fill="black" stroke="black" points="397.15,-46.1 393.65,-36.1 390.15,-46.1 397.15,-46.1"/>
</g>
<!-- MoveTo!* -->
<g id="node10" class="node">
<title>MoveTo!*</title>
<ellipse fill="gray" stroke="black" cx="472.65" cy="-18" rx="31.51" ry="18"/>
<text text-anchor="middle" x="472.65" y="-15.8" font-family="Times,serif" font-size="9.00">MoveTo!*</text>
</g>
<!-- Fallback*&#45;&gt;MoveTo!* -->
<g id="edge9" class="edge">
<title>Fallback*&#45;&gt;MoveTo!*</title>
<path fill="none" stroke="black" d="M410.79,-73.81C421.81,-64.05 436.29,-51.22 448.47,-40.42"/>
<polygon fill="black" stroke="black" points="450.92,-42.93 456.09,-33.68 446.28,-37.69 450.92,-42.93"/>
</g>
<!-- NotReadyForSG?** -->
<g id="node11" class="node">
<title>NotReadyForSG?**</title>
<ellipse fill="gray" stroke="black" cx="574.65" cy="-18" rx="51.92" ry="18"/>
<text text-anchor="middle" x="574.65" y="-15.8" font-family="Times,serif" font-size="9.00">NotReadyForSG?**</text>
</g>
<!-- Fallback*&#45;&gt;NotReadyForSG?** -->
<g id="edge10" class="edge">
<title>Fallback*&#45;&gt;NotReadyForSG?**</title>
<path fill="none" stroke="black" d="M418.75,-78.45C424,-76.28 429.49,-74.04 434.65,-72 466.74,-59.28 503.23,-45.49 530.9,-35.16"/>
<polygon fill="black" stroke="black" points="532.15,-38.43 540.3,-31.66 529.71,-31.87 532.15,-38.43"/>
</g>
<!-- GetSubGoal!* -->
<g id="node12" class="node">
<title>GetSubGoal!*</title>
<ellipse fill="gray" stroke="black" cx="683.65" cy="-18" rx="39.02" ry="18"/>
<text text-anchor="middle" x="683.65" y="-15.8" font-family="Times,serif" font-size="9.00">GetSubGoal!*</text>
</g>
<!-- Fallback*&#45;&gt;GetSubGoal!* -->
<g id="edge11" class="edge">
<title>Fallback*&#45;&gt;GetSubGoal!*</title>
<path fill="none" stroke="black" d="M417.62,-78.05C423.14,-75.81 429.03,-73.65 434.65,-72 521.74,-46.47 547.92,-59.23 635.65,-36 638.63,-35.21 641.69,-34.32 644.75,-33.37"/>
<polygon fill="black" stroke="black" points="646.03,-36.64 654.44,-30.2 643.85,-29.99 646.03,-36.64"/>
</g>
</g>
</svg>
