<?xml version="1.0" encoding="UTF-8" standalone="no"?>
<!DOCTYPE svg PUBLIC "-//W3C//DTD SVG 1.1//EN"
 "http://www.w3.org/Graphics/SVG/1.1/DTD/svg11.dtd">
<!-- Generated by graphviz version 2.43.0 (0)
 -->
<!-- Title: pastafarianism Pages: 1 -->
<svg width="1290pt" height="188pt"
 viewBox="0.00 0.00 1289.67 188.00" xmlns="http://www.w3.org/2000/svg" xmlns:xlink="http://www.w3.org/1999/xlink">
<g id="graph0" class="graph" transform="scale(1 1) rotate(0) translate(4 184)">
<title>pastafarianism</title>
<polygon fill="white" stroke="transparent" points="-4,4 -4,-184 1285.67,-184 1285.67,4 -4,4"/>
<!-- Sequence -->
<g id="node1" class="node">
<title>Sequence</title>
<polygon fill="cyan" stroke="black" points="803.26,-154.54 803.26,-169.46 784.81,-180 758.72,-180 740.27,-169.46 740.27,-154.54 758.72,-144 784.81,-144 803.26,-154.54"/>
<text text-anchor="middle" x="771.77" y="-159.8" font-family="Times,serif" font-size="9.00">Sequence</text>
</g>
<!-- Fallback -->
<g id="node2" class="node">
<title>Fallback</title>
<polygon fill="cyan" stroke="black" points="214.01,-82.54 214.01,-97.46 196.88,-108 172.65,-108 155.52,-97.46 155.52,-82.54 172.65,-72 196.88,-72 214.01,-82.54"/>
<text text-anchor="middle" x="184.77" y="-87.8" font-family="Times,serif" font-size="9.00">Fallback</text>
</g>
<!-- Sequence&#45;&gt;Fallback -->
<g id="edge1" class="edge">
<title>Sequence&#45;&gt;Fallback</title>
<path fill="none" stroke="black" d="M740.21,-157.24C640.66,-145.37 333.42,-108.73 223.98,-95.68"/>
<polygon fill="black" stroke="black" points="224.36,-92.2 214.02,-94.49 223.53,-99.15 224.36,-92.2"/>
</g>
<!-- Fallback* -->
<g id="node6" class="node">
<title>Fallback*</title>
<polygon fill="cyan" stroke="black" points="422.51,-82.54 422.51,-97.46 403.91,-108 377.62,-108 359.02,-97.46 359.02,-82.54 377.62,-72 403.91,-72 422.51,-82.54"/>
<text text-anchor="middle" x="390.77" y="-87.8" font-family="Times,serif" font-size="9.00">Fallback*</text>
</g>
<!-- Sequence&#45;&gt;Fallback* -->
<g id="edge5" class="edge">
<title>Sequence&#45;&gt;Fallback*</title>
<path fill="none" stroke="black" d="M740.29,-158.62C679.65,-153.47 542.77,-139.18 431.77,-108 429.3,-107.31 426.78,-106.51 424.27,-105.64"/>
<polygon fill="black" stroke="black" points="425.3,-102.29 414.71,-102.05 422.84,-108.84 425.3,-102.29"/>
</g>
<!-- MoveTo!** -->
<g id="node11" class="node">
<title>MoveTo!**</title>
<ellipse fill="gray" stroke="black" cx="474.77" cy="-90" rx="34.13" ry="18"/>
<text text-anchor="middle" x="474.77" y="-87.8" font-family="Times,serif" font-size="9.00">MoveTo!**</text>
</g>
<!-- Sequence&#45;&gt;MoveTo!** -->
<g id="edge10" class="edge">
<title>Sequence&#45;&gt;MoveTo!**</title>
<path fill="none" stroke="black" d="M740.45,-156.24C692.07,-148.48 596.52,-131.59 517.77,-108 515.19,-107.23 512.55,-106.37 509.9,-105.45"/>
<polygon fill="black" stroke="black" points="511.03,-102.14 500.44,-101.97 508.62,-108.71 511.03,-102.14"/>
</g>
<!-- ReachGoal? -->
<g id="node12" class="node">
<title>ReachGoal?</title>
<ellipse fill="gray" stroke="black" cx="560.77" cy="-90" rx="34.13" ry="18"/>
<text text-anchor="middle" x="560.77" y="-87.8" font-family="Times,serif" font-size="9.00">ReachGoal?</text>
</g>
<!-- Sequence&#45;&gt;ReachGoal? -->
<g id="edge11" class="edge">
<title>Sequence&#45;&gt;ReachGoal?</title>
<path fill="none" stroke="black" d="M743.32,-152.7C709.75,-142.74 652.33,-125.24 603.77,-108 601.38,-107.15 598.93,-106.26 596.47,-105.34"/>
<polygon fill="black" stroke="black" points="597.62,-102.03 587.03,-101.73 595.12,-108.57 597.62,-102.03"/>
</g>
<!-- NotReadyForSG?** -->
<g id="node13" class="node">
<title>NotReadyForSG?**</title>
<ellipse fill="gray" stroke="black" cx="664.77" cy="-90" rx="51.92" ry="18"/>
<text text-anchor="middle" x="664.77" y="-87.8" font-family="Times,serif" font-size="9.00">NotReadyForSG?**</text>
</g>
<!-- Sequence&#45;&gt;NotReadyForSG?** -->
<g id="edge12" class="edge">
<title>Sequence&#45;&gt;NotReadyForSG?**</title>
<path fill="none" stroke="black" d="M751.64,-147.83C736.14,-137.69 714.41,-123.48 696.56,-111.8"/>
<polygon fill="black" stroke="black" points="698.44,-108.85 688.15,-106.3 694.61,-114.7 698.44,-108.85"/>
</g>
<!-- ReachGoal?* -->
<g id="node14" class="node">
<title>ReachGoal?*</title>
<ellipse fill="gray" stroke="black" cx="771.77" cy="-90" rx="36.9" ry="18"/>
<text text-anchor="middle" x="771.77" y="-87.8" font-family="Times,serif" font-size="9.00">ReachGoal?*</text>
</g>
<!-- Sequence&#45;&gt;ReachGoal?* -->
<g id="edge13" class="edge">
<title>Sequence&#45;&gt;ReachGoal?*</title>
<path fill="none" stroke="black" d="M771.77,-143.7C771.77,-135.98 771.77,-126.71 771.77,-118.11"/>
<polygon fill="black" stroke="black" points="775.27,-118.1 771.77,-108.1 768.27,-118.1 775.27,-118.1"/>
</g>
<!-- GetSubGoal!** -->
<g id="node15" class="node">
<title>GetSubGoal!**</title>
<ellipse fill="gray" stroke="black" cx="868.77" cy="-90" rx="42.29" ry="18"/>
<text text-anchor="middle" x="868.77" y="-87.8" font-family="Times,serif" font-size="9.00">GetSubGoal!**</text>
</g>
<!-- Sequence&#45;&gt;GetSubGoal!** -->
<g id="edge14" class="edge">
<title>Sequence&#45;&gt;GetSubGoal!**</title>
<path fill="none" stroke="black" d="M790.93,-147.17C804.91,-137.08 824.09,-123.24 839.91,-111.82"/>
<polygon fill="black" stroke="black" points="842.24,-114.46 848.3,-105.77 838.14,-108.78 842.24,-114.46"/>
</g>
<!-- GetSubGoal!*** -->
<g id="node16" class="node">
<title>GetSubGoal!***</title>
<ellipse fill="gray" stroke="black" cx="973.77" cy="-90" rx="44.41" ry="18"/>
<text text-anchor="middle" x="973.77" y="-87.8" font-family="Times,serif" font-size="9.00">GetSubGoal!***</text>
</g>
<!-- Sequence&#45;&gt;GetSubGoal!*** -->
<g id="edge15" class="edge">
<title>Sequence&#45;&gt;GetSubGoal!***</title>
<path fill="none" stroke="black" d="M798.59,-151.7C832.6,-139.92 891.61,-119.47 931.65,-105.6"/>
<polygon fill="black" stroke="black" points="932.84,-108.89 941.14,-102.31 930.54,-102.27 932.84,-108.89"/>
</g>
<!-- CompLkGraph! -->
<g id="node17" class="node">
<title>CompLkGraph!</title>
<ellipse fill="gray" stroke="black" cx="1078.77" cy="-90" rx="42.95" ry="18"/>
<text text-anchor="middle" x="1078.77" y="-87.8" font-family="Times,serif" font-size="9.00">CompLkGraph!</text>
</g>
<!-- Sequence&#45;&gt;CompLkGraph! -->
<g id="edge16" class="edge">
<title>Sequence&#45;&gt;CompLkGraph!</title>
<path fill="none" stroke="black" d="M803.04,-155.66C851.38,-147.14 947.03,-129.25 1026.77,-108 1030.13,-107.1 1033.59,-106.12 1037.05,-105.08"/>
<polygon fill="black" stroke="black" points="1038.24,-108.38 1046.75,-102.08 1036.17,-101.69 1038.24,-108.38"/>
</g>
<!-- LkClose? -->
<g id="node18" class="node">
<title>LkClose?</title>
<ellipse fill="gray" stroke="black" cx="1168.77" cy="-90" rx="28.74" ry="18"/>
<text text-anchor="middle" x="1168.77" y="-87.8" font-family="Times,serif" font-size="9.00">LkClose?</text>
</g>
<!-- Sequence&#45;&gt;LkClose? -->
<g id="edge17" class="edge">
<title>Sequence&#45;&gt;LkClose?</title>
<path fill="none" stroke="black" d="M803.11,-159.26C866.26,-155.13 1012.82,-142.38 1130.77,-108 1133.05,-107.33 1135.37,-106.56 1137.69,-105.71"/>
<polygon fill="black" stroke="black" points="1139.08,-108.93 1147.05,-101.94 1136.47,-102.43 1139.08,-108.93"/>
</g>
<!-- LkGraph?* -->
<g id="node19" class="node">
<title>LkGraph?*</title>
<ellipse fill="gray" stroke="black" cx="1248.77" cy="-90" rx="32.82" ry="18"/>
<text text-anchor="middle" x="1248.77" y="-87.8" font-family="Times,serif" font-size="9.00">LkGraph?*</text>
</g>
<!-- Sequence&#45;&gt;LkGraph?* -->
<g id="edge18" class="edge">
<title>Sequence&#45;&gt;LkGraph?*</title>
<path fill="none" stroke="black" d="M803.14,-160C875.44,-157.09 1058.9,-146.22 1206.77,-108 1209.39,-107.32 1212.07,-106.52 1214.73,-105.64"/>
<polygon fill="black" stroke="black" points="1216.05,-108.88 1224.26,-102.18 1213.66,-102.3 1216.05,-108.88"/>
</g>
<!-- NotReadyForSG? -->
<g id="node3" class="node">
<title>NotReadyForSG?</title>
<ellipse fill="gray" stroke="black" cx="46.77" cy="-18" rx="46.53" ry="18"/>
<text text-anchor="middle" x="46.77" y="-15.8" font-family="Times,serif" font-size="9.00">NotReadyForSG?</text>
</g>
<!-- Fallback&#45;&gt;NotReadyForSG? -->
<g id="edge2" class="edge">
<title>Fallback&#45;&gt;NotReadyForSG?</title>
<path fill="none" stroke="black" d="M162.9,-77.91C141.51,-67.06 108.54,-50.34 83.19,-37.48"/>
<polygon fill="black" stroke="black" points="84.74,-34.34 74.23,-32.93 81.57,-40.58 84.74,-34.34"/>
</g>
<!-- LkGraph? -->
<g id="node4" class="node">
<title>LkGraph?</title>
<ellipse fill="gray" stroke="black" cx="141.77" cy="-18" rx="30.7" ry="18"/>
<text text-anchor="middle" x="141.77" y="-15.8" font-family="Times,serif" font-size="9.00">LkGraph?</text>
</g>
<!-- Fallback&#45;&gt;LkGraph? -->
<g id="edge3" class="edge">
<title>Fallback&#45;&gt;LkGraph?</title>
<path fill="none" stroke="black" d="M174.14,-71.7C168.99,-63.32 162.71,-53.1 157.06,-43.9"/>
<polygon fill="black" stroke="black" points="159.9,-41.83 151.68,-35.14 153.93,-45.5 159.9,-41.83"/>
</g>
<!-- GetSubGoal! -->
<g id="node5" class="node">
<title>GetSubGoal!</title>
<ellipse fill="gray" stroke="black" cx="227.77" cy="-18" rx="36.9" ry="18"/>
<text text-anchor="middle" x="227.77" y="-15.8" font-family="Times,serif" font-size="9.00">GetSubGoal!</text>
</g>
<!-- Fallback&#45;&gt;GetSubGoal! -->
<g id="edge4" class="edge">
<title>Fallback&#45;&gt;GetSubGoal!</title>
<path fill="none" stroke="black" d="M195.39,-71.7C200.47,-63.44 206.64,-53.39 212.22,-44.3"/>
<polygon fill="black" stroke="black" points="215.3,-45.98 217.55,-35.62 209.34,-42.31 215.3,-45.98"/>
</g>
<!-- MoveTo! -->
<g id="node7" class="node">
<title>MoveTo!</title>
<ellipse fill="gray" stroke="black" cx="311.77" cy="-18" rx="28.74" ry="18"/>
<text text-anchor="middle" x="311.77" y="-15.8" font-family="Times,serif" font-size="9.00">MoveTo!</text>
</g>
<!-- Fallback*&#45;&gt;MoveTo! -->
<g id="edge6" class="edge">
<title>Fallback*&#45;&gt;MoveTo!</title>
<path fill="none" stroke="black" d="M373.62,-73.81C362.46,-63.92 347.73,-50.87 335.45,-39.99"/>
<polygon fill="black" stroke="black" points="337.6,-37.22 327.8,-33.21 332.96,-42.46 337.6,-37.22"/>
</g>
<!-- MoveTo!* -->
<g id="node8" class="node">
<title>MoveTo!*</title>
<ellipse fill="gray" stroke="black" cx="390.77" cy="-18" rx="31.51" ry="18"/>
<text text-anchor="middle" x="390.77" y="-15.8" font-family="Times,serif" font-size="9.00">MoveTo!*</text>
</g>
<!-- Fallback*&#45;&gt;MoveTo!* -->
<g id="edge7" class="edge">
<title>Fallback*&#45;&gt;MoveTo!*</title>
<path fill="none" stroke="black" d="M390.77,-71.7C390.77,-63.98 390.77,-54.71 390.77,-46.11"/>
<polygon fill="black" stroke="black" points="394.27,-46.1 390.77,-36.1 387.27,-46.1 394.27,-46.1"/>
</g>
<!-- NotReadyForSG?* -->
<g id="node9" class="node">
<title>NotReadyForSG?*</title>
<ellipse fill="gray" stroke="black" cx="489.77" cy="-18" rx="49.8" ry="18"/>
<text text-anchor="middle" x="489.77" y="-15.8" font-family="Times,serif" font-size="9.00">NotReadyForSG?*</text>
</g>
<!-- Fallback*&#45;&gt;NotReadyForSG?* -->
<g id="edge8" class="edge">
<title>Fallback*&#45;&gt;NotReadyForSG?*</title>
<path fill="none" stroke="black" d="M410.32,-75.17C424.4,-65.22 443.64,-51.61 459.67,-40.28"/>
<polygon fill="black" stroke="black" points="462.04,-42.89 468.18,-34.26 458,-37.17 462.04,-42.89"/>
</g>
<!-- GetSubGoal!* -->
<g id="node10" class="node">
<title>GetSubGoal!*</title>
<ellipse fill="gray" stroke="black" cx="596.77" cy="-18" rx="39.02" ry="18"/>
<text text-anchor="middle" x="596.77" y="-15.8" font-family="Times,serif" font-size="9.00">GetSubGoal!*</text>
</g>
<!-- Fallback*&#45;&gt;GetSubGoal!* -->
<g id="edge9" class="edge">
<title>Fallback*&#45;&gt;GetSubGoal!*</title>
<path fill="none" stroke="black" d="M415.33,-78.37C420.71,-76.17 426.4,-73.93 431.77,-72 482.95,-53.56 497.11,-53.09 548.77,-36 551.52,-35.09 554.36,-34.13 557.21,-33.16"/>
<polygon fill="black" stroke="black" points="558.57,-36.39 566.87,-29.8 556.28,-29.77 558.57,-36.39"/>
</g>
</g>
</svg>
