<?xml version="1.0" encoding="UTF-8" standalone="no"?>
<!DOCTYPE svg PUBLIC "-//W3C//DTD SVG 1.1//EN"
 "http://www.w3.org/Graphics/SVG/1.1/DTD/svg11.dtd">
<!-- Generated by graphviz version 2.43.0 (0)
 -->
<!-- Title: pastafarianism Pages: 1 -->
<svg width="807pt" height="188pt"
 viewBox="0.00 0.00 806.67 188.00" xmlns="http://www.w3.org/2000/svg" xmlns:xlink="http://www.w3.org/1999/xlink">
<g id="graph0" class="graph" transform="scale(1 1) rotate(0) translate(4 184)">
<title>pastafarianism</title>
<polygon fill="white" stroke="transparent" points="-4,4 -4,-184 802.67,-184 802.67,4 -4,4"/>
<!-- Sequence -->
<g id="node1" class="node">
<title>Sequence</title>
<polygon fill="cyan" stroke="black" points="553.26,-154.54 553.26,-169.46 534.81,-180 508.72,-180 490.27,-169.46 490.27,-154.54 508.72,-144 534.81,-144 553.26,-154.54"/>
<text text-anchor="middle" x="521.77" y="-159.8" font-family="Times,serif" font-size="9.00">Sequence</text>
</g>
<!-- Fallback -->
<g id="node2" class="node">
<title>Fallback</title>
<polygon fill="cyan" stroke="black" points="214.01,-82.54 214.01,-97.46 196.88,-108 172.65,-108 155.52,-97.46 155.52,-82.54 172.65,-72 196.88,-72 214.01,-82.54"/>
<text text-anchor="middle" x="184.77" y="-87.8" font-family="Times,serif" font-size="9.00">Fallback</text>
</g>
<!-- Sequence&#45;&gt;Fallback -->
<g id="edge1" class="edge">
<title>Sequence&#45;&gt;Fallback</title>
<path fill="none" stroke="black" d="M490.36,-154.48C428.66,-141.66 291.74,-113.22 224.12,-99.17"/>
<polygon fill="black" stroke="black" points="224.78,-95.74 214.27,-97.13 223.35,-102.59 224.78,-95.74"/>
</g>
<!-- Fallback* -->
<g id="node6" class="node">
<title>Fallback*</title>
<polygon fill="cyan" stroke="black" points="422.51,-82.54 422.51,-97.46 403.91,-108 377.62,-108 359.02,-97.46 359.02,-82.54 377.62,-72 403.91,-72 422.51,-82.54"/>
<text text-anchor="middle" x="390.77" y="-87.8" font-family="Times,serif" font-size="9.00">Fallback*</text>
</g>
<!-- Sequence&#45;&gt;Fallback* -->
<g id="edge5" class="edge">
<title>Sequence&#45;&gt;Fallback*</title>
<path fill="none" stroke="black" d="M499.54,-149.13C478.28,-137.76 445.99,-120.51 422.12,-107.75"/>
<polygon fill="black" stroke="black" points="423.57,-104.56 413.1,-102.93 420.27,-110.73 423.57,-104.56"/>
</g>
<!-- ReachGoal? -->
<g id="node11" class="node">
<title>ReachGoal?</title>
<ellipse fill="gray" stroke="black" cx="474.77" cy="-90" rx="34.13" ry="18"/>
<text text-anchor="middle" x="474.77" y="-87.8" font-family="Times,serif" font-size="9.00">ReachGoal?</text>
</g>
<!-- Sequence&#45;&gt;ReachGoal? -->
<g id="edge10" class="edge">
<title>Sequence&#45;&gt;ReachGoal?</title>
<path fill="none" stroke="black" d="M510.15,-143.7C504.46,-135.23 497.52,-124.89 491.29,-115.61"/>
<polygon fill="black" stroke="black" points="494.09,-113.5 485.61,-107.14 488.27,-117.4 494.09,-113.5"/>
</g>
<!-- GetSubGoal!** -->
<g id="node12" class="node">
<title>GetSubGoal!**</title>
<ellipse fill="gray" stroke="black" cx="568.77" cy="-90" rx="42.29" ry="18"/>
<text text-anchor="middle" x="568.77" y="-87.8" font-family="Times,serif" font-size="9.00">GetSubGoal!**</text>
</g>
<!-- Sequence&#45;&gt;GetSubGoal!** -->
<g id="edge11" class="edge">
<title>Sequence&#45;&gt;GetSubGoal!**</title>
<path fill="none" stroke="black" d="M533.38,-143.7C538.99,-135.35 545.81,-125.18 551.97,-116.02"/>
<polygon fill="black" stroke="black" points="554.94,-117.88 557.6,-107.62 549.12,-113.97 554.94,-117.88"/>
</g>
<!-- CompLkGraph! -->
<g id="node13" class="node">
<title>CompLkGraph!</title>
<ellipse fill="gray" stroke="black" cx="671.77" cy="-90" rx="42.95" ry="18"/>
<text text-anchor="middle" x="671.77" y="-87.8" font-family="Times,serif" font-size="9.00">CompLkGraph!</text>
</g>
<!-- Sequence&#45;&gt;CompLkGraph! -->
<g id="edge12" class="edge">
<title>Sequence&#45;&gt;CompLkGraph!</title>
<path fill="none" stroke="black" d="M545.53,-149.91C569.55,-138.7 606.99,-121.23 634.87,-108.22"/>
<polygon fill="black" stroke="black" points="636.71,-111.22 644.29,-103.82 633.75,-104.88 636.71,-111.22"/>
</g>
<!-- LkGraph?* -->
<g id="node14" class="node">
<title>LkGraph?*</title>
<ellipse fill="gray" stroke="black" cx="765.77" cy="-90" rx="32.82" ry="18"/>
<text text-anchor="middle" x="765.77" y="-87.8" font-family="Times,serif" font-size="9.00">LkGraph?*</text>
</g>
<!-- Sequence&#45;&gt;LkGraph?* -->
<g id="edge13" class="edge">
<title>Sequence&#45;&gt;LkGraph?*</title>
<path fill="none" stroke="black" d="M552.93,-154.13C592.92,-145.02 664.24,-127.77 723.77,-108 726.18,-107.2 728.66,-106.33 731.14,-105.42"/>
<polygon fill="black" stroke="black" points="732.55,-108.62 740.64,-101.78 730.05,-102.09 732.55,-108.62"/>
</g>
<!-- NotReadyForSG? -->
<g id="node3" class="node">
<title>NotReadyForSG?</title>
<ellipse fill="gray" stroke="black" cx="46.77" cy="-18" rx="46.53" ry="18"/>
<text text-anchor="middle" x="46.77" y="-15.8" font-family="Times,serif" font-size="9.00">NotReadyForSG?</text>
</g>
<!-- Fallback&#45;&gt;NotReadyForSG? -->
<g id="edge2" class="edge">
<title>Fallback&#45;&gt;NotReadyForSG?</title>
<path fill="none" stroke="black" d="M162.9,-77.91C141.51,-67.06 108.54,-50.34 83.19,-37.48"/>
<polygon fill="black" stroke="black" points="84.74,-34.34 74.23,-32.93 81.57,-40.58 84.74,-34.34"/>
</g>
<!-- LkGraph? -->
<g id="node4" class="node">
<title>LkGraph?</title>
<ellipse fill="gray" stroke="black" cx="141.77" cy="-18" rx="30.7" ry="18"/>
<text text-anchor="middle" x="141.77" y="-15.8" font-family="Times,serif" font-size="9.00">LkGraph?</text>
</g>
<!-- Fallback&#45;&gt;LkGraph? -->
<g id="edge3" class="edge">
<title>Fallback&#45;&gt;LkGraph?</title>
<path fill="none" stroke="black" d="M174.14,-71.7C168.99,-63.32 162.71,-53.1 157.06,-43.9"/>
<polygon fill="black" stroke="black" points="159.9,-41.83 151.68,-35.14 153.93,-45.5 159.9,-41.83"/>
</g>
<!-- GetSubGoal! -->
<g id="node5" class="node">
<title>GetSubGoal!</title>
<ellipse fill="gray" stroke="black" cx="227.77" cy="-18" rx="36.9" ry="18"/>
<text text-anchor="middle" x="227.77" y="-15.8" font-family="Times,serif" font-size="9.00">GetSubGoal!</text>
</g>
<!-- Fallback&#45;&gt;GetSubGoal! -->
<g id="edge4" class="edge">
<title>Fallback&#45;&gt;GetSubGoal!</title>
<path fill="none" stroke="black" d="M195.39,-71.7C200.47,-63.44 206.64,-53.39 212.22,-44.3"/>
<polygon fill="black" stroke="black" points="215.3,-45.98 217.55,-35.62 209.34,-42.31 215.3,-45.98"/>
</g>
<!-- MoveTo! -->
<g id="node7" class="node">
<title>MoveTo!</title>
<ellipse fill="gray" stroke="black" cx="311.77" cy="-18" rx="28.74" ry="18"/>
<text text-anchor="middle" x="311.77" y="-15.8" font-family="Times,serif" font-size="9.00">MoveTo!</text>
</g>
<!-- Fallback*&#45;&gt;MoveTo! -->
<g id="edge6" class="edge">
<title>Fallback*&#45;&gt;MoveTo!</title>
<path fill="none" stroke="black" d="M373.62,-73.81C362.46,-63.92 347.73,-50.87 335.45,-39.99"/>
<polygon fill="black" stroke="black" points="337.6,-37.22 327.8,-33.21 332.96,-42.46 337.6,-37.22"/>
</g>
<!-- MoveTo!* -->
<g id="node8" class="node">
<title>MoveTo!*</title>
<ellipse fill="gray" stroke="black" cx="390.77" cy="-18" rx="31.51" ry="18"/>
<text text-anchor="middle" x="390.77" y="-15.8" font-family="Times,serif" font-size="9.00">MoveTo!*</text>
</g>
<!-- Fallback*&#45;&gt;MoveTo!* -->
<g id="edge7" class="edge">
<title>Fallback*&#45;&gt;MoveTo!*</title>
<path fill="none" stroke="black" d="M390.77,-71.7C390.77,-63.98 390.77,-54.71 390.77,-46.11"/>
<polygon fill="black" stroke="black" points="394.27,-46.1 390.77,-36.1 387.27,-46.1 394.27,-46.1"/>
</g>
<!-- NotReadyForSG?* -->
<g id="node9" class="node">
<title>NotReadyForSG?*</title>
<ellipse fill="gray" stroke="black" cx="489.77" cy="-18" rx="49.8" ry="18"/>
<text text-anchor="middle" x="489.77" y="-15.8" font-family="Times,serif" font-size="9.00">NotReadyForSG?*</text>
</g>
<!-- Fallback*&#45;&gt;NotReadyForSG?* -->
<g id="edge8" class="edge">
<title>Fallback*&#45;&gt;NotReadyForSG?*</title>
<path fill="none" stroke="black" d="M410.32,-75.17C424.4,-65.22 443.64,-51.61 459.67,-40.28"/>
<polygon fill="black" stroke="black" points="462.04,-42.89 468.18,-34.26 458,-37.17 462.04,-42.89"/>
</g>
<!-- GetSubGoal!* -->
<g id="node10" class="node">
<title>GetSubGoal!*</title>
<ellipse fill="gray" stroke="black" cx="596.77" cy="-18" rx="39.02" ry="18"/>
<text text-anchor="middle" x="596.77" y="-15.8" font-family="Times,serif" font-size="9.00">GetSubGoal!*</text>
</g>
<!-- Fallback*&#45;&gt;GetSubGoal!* -->
<g id="edge9" class="edge">
<title>Fallback*&#45;&gt;GetSubGoal!*</title>
<path fill="none" stroke="black" d="M415.33,-78.37C420.71,-76.17 426.4,-73.93 431.77,-72 482.95,-53.56 497.11,-53.09 548.77,-36 551.52,-35.09 554.36,-34.13 557.21,-33.16"/>
<polygon fill="black" stroke="black" points="558.57,-36.39 566.87,-29.8 556.28,-29.77 558.57,-36.39"/>
</g>
</g>
</svg>
