<?xml version="1.0" encoding="UTF-8" standalone="no"?>
<!DOCTYPE svg PUBLIC "-//W3C//DTD SVG 1.1//EN"
 "http://www.w3.org/Graphics/SVG/1.1/DTD/svg11.dtd">
<!-- Generated by graphviz version 2.43.0 (0)
 -->
<!-- Title: pastafarianism Pages: 1 -->
<svg width="650pt" height="260pt"
 viewBox="0.00 0.00 650.01 260.00" xmlns="http://www.w3.org/2000/svg" xmlns:xlink="http://www.w3.org/1999/xlink">
<g id="graph0" class="graph" transform="scale(1 1) rotate(0) translate(4 256)">
<title>pastafarianism</title>
<polygon fill="white" stroke="transparent" points="-4,4 -4,-256 646.01,-256 646.01,4 -4,4"/>
<!-- Fallback -->
<g id="node1" class="node">
<title>Fallback</title>
<polygon fill="cyan" stroke="black" points="343.31,-226.54 343.31,-241.46 326.18,-252 301.95,-252 284.82,-241.46 284.82,-226.54 301.95,-216 326.18,-216 343.31,-226.54"/>
<text text-anchor="middle" x="314.06" y="-231.8" font-family="Times,serif" font-size="9.00">Fallback</text>
</g>
<!-- Sequence -->
<g id="node2" class="node">
<title>Sequence</title>
<polygon fill="cyan" stroke="black" points="218.56,-154.54 218.56,-169.46 200.11,-180 174.02,-180 155.57,-169.46 155.57,-154.54 174.02,-144 200.11,-144 218.56,-154.54"/>
<text text-anchor="middle" x="187.06" y="-159.8" font-family="Times,serif" font-size="9.00">Sequence</text>
</g>
<!-- Fallback&#45;&gt;Sequence -->
<g id="edge1" class="edge">
<title>Fallback&#45;&gt;Sequence</title>
<path fill="none" stroke="black" d="M293.09,-221.44C272.57,-210.13 241.07,-192.77 217.74,-179.91"/>
<polygon fill="black" stroke="black" points="219.37,-176.81 208.92,-175.05 215.99,-182.94 219.37,-176.81"/>
</g>
<!-- Sequence* -->
<g id="node7" class="node">
<title>Sequence*</title>
<polygon fill="cyan" stroke="black" points="476.31,-154.54 476.31,-169.46 456.25,-180 427.88,-180 407.82,-169.46 407.82,-154.54 427.88,-144 456.25,-144 476.31,-154.54"/>
<text text-anchor="middle" x="442.06" y="-159.8" font-family="Times,serif" font-size="9.00">Sequence*</text>
</g>
<!-- Fallback&#45;&gt;Sequence* -->
<g id="edge6" class="edge">
<title>Fallback&#45;&gt;Sequence*</title>
<path fill="none" stroke="black" d="M335.2,-221.44C355.64,-210.27 386.86,-193.19 410.29,-180.38"/>
<polygon fill="black" stroke="black" points="412.07,-183.39 419.17,-175.52 408.71,-177.25 412.07,-183.39"/>
</g>
<!-- ReachGoal? -->
<g id="node3" class="node">
<title>ReachGoal?</title>
<ellipse fill="gray" stroke="black" cx="34.06" cy="-90" rx="34.13" ry="18"/>
<text text-anchor="middle" x="34.06" y="-87.8" font-family="Times,serif" font-size="9.00">ReachGoal?</text>
</g>
<!-- Sequence&#45;&gt;ReachGoal? -->
<g id="edge2" class="edge">
<title>Sequence&#45;&gt;ReachGoal?</title>
<path fill="none" stroke="black" d="M163.16,-150.06C137.71,-138.42 97.22,-119.89 68.37,-106.7"/>
<polygon fill="black" stroke="black" points="69.62,-103.42 59.07,-102.44 66.71,-109.78 69.62,-103.42"/>
</g>
<!-- GetLk! -->
<g id="node4" class="node">
<title>GetLk!</title>
<ellipse fill="gray" stroke="black" cx="113.06" cy="-90" rx="27" ry="18"/>
<text text-anchor="middle" x="113.06" y="-87.8" font-family="Times,serif" font-size="9.00">GetLk!</text>
</g>
<!-- Sequence&#45;&gt;GetLk! -->
<g id="edge3" class="edge">
<title>Sequence&#45;&gt;GetLk!</title>
<path fill="none" stroke="black" d="M170.64,-145.46C160.26,-135.65 146.72,-122.83 135.37,-112.1"/>
<polygon fill="black" stroke="black" points="137.6,-109.39 127.93,-105.07 132.79,-114.48 137.6,-109.39"/>
</g>
<!-- LkClose? -->
<g id="node5" class="node">
<title>LkClose?</title>
<ellipse fill="gray" stroke="black" cx="187.06" cy="-90" rx="28.74" ry="18"/>
<text text-anchor="middle" x="187.06" y="-87.8" font-family="Times,serif" font-size="9.00">LkClose?</text>
</g>
<!-- Sequence&#45;&gt;LkClose? -->
<g id="edge4" class="edge">
<title>Sequence&#45;&gt;LkClose?</title>
<path fill="none" stroke="black" d="M187.06,-143.7C187.06,-135.98 187.06,-126.71 187.06,-118.11"/>
<polygon fill="black" stroke="black" points="190.56,-118.1 187.06,-108.1 183.56,-118.1 190.56,-118.1"/>
</g>
<!-- CompLkGraph! -->
<g id="node6" class="node">
<title>CompLkGraph!</title>
<ellipse fill="gray" stroke="black" cx="277.06" cy="-90" rx="42.95" ry="18"/>
<text text-anchor="middle" x="277.06" y="-87.8" font-family="Times,serif" font-size="9.00">CompLkGraph!</text>
</g>
<!-- Sequence&#45;&gt;CompLkGraph! -->
<g id="edge5" class="edge">
<title>Sequence&#45;&gt;CompLkGraph!</title>
<path fill="none" stroke="black" d="M205.28,-146.83C217.99,-136.95 235.18,-123.58 249.55,-112.4"/>
<polygon fill="black" stroke="black" points="251.89,-115.02 257.63,-106.11 247.59,-109.49 251.89,-115.02"/>
</g>
<!-- GetLk!* -->
<g id="node8" class="node">
<title>GetLk!*</title>
<ellipse fill="gray" stroke="black" cx="365.06" cy="-90" rx="27.27" ry="18"/>
<text text-anchor="middle" x="365.06" y="-87.8" font-family="Times,serif" font-size="9.00">GetLk!*</text>
</g>
<!-- Sequence*&#45;&gt;GetLk!* -->
<g id="edge7" class="edge">
<title>Sequence*&#45;&gt;GetLk!*</title>
<path fill="none" stroke="black" d="M424.97,-145.46C414.18,-135.65 400.08,-122.83 388.27,-112.1"/>
<polygon fill="black" stroke="black" points="390.29,-109.2 380.54,-105.07 385.58,-114.38 390.29,-109.2"/>
</g>
<!-- Fallback* -->
<g id="node9" class="node">
<title>Fallback*</title>
<polygon fill="cyan" stroke="black" points="473.81,-82.54 473.81,-97.46 455.21,-108 428.92,-108 410.32,-97.46 410.32,-82.54 428.92,-72 455.21,-72 473.81,-82.54"/>
<text text-anchor="middle" x="442.06" y="-87.8" font-family="Times,serif" font-size="9.00">Fallback*</text>
</g>
<!-- Sequence*&#45;&gt;Fallback* -->
<g id="edge8" class="edge">
<title>Sequence*&#45;&gt;Fallback*</title>
<path fill="none" stroke="black" d="M442.06,-143.7C442.06,-135.98 442.06,-126.71 442.06,-118.11"/>
<polygon fill="black" stroke="black" points="445.56,-118.1 442.06,-108.1 438.56,-118.1 445.56,-118.1"/>
</g>
<!-- MoveTo! -->
<g id="node13" class="node">
<title>MoveTo!</title>
<ellipse fill="gray" stroke="black" cx="521.06" cy="-90" rx="28.74" ry="18"/>
<text text-anchor="middle" x="521.06" y="-87.8" font-family="Times,serif" font-size="9.00">MoveTo!</text>
</g>
<!-- Sequence*&#45;&gt;MoveTo! -->
<g id="edge12" class="edge">
<title>Sequence*&#45;&gt;MoveTo!</title>
<path fill="none" stroke="black" d="M459.6,-145.46C470.78,-135.55 485.42,-122.59 497.6,-111.79"/>
<polygon fill="black" stroke="black" points="500.03,-114.32 505.19,-105.07 495.38,-109.08 500.03,-114.32"/>
</g>
<!-- ReachGoal?* -->
<g id="node14" class="node">
<title>ReachGoal?*</title>
<ellipse fill="gray" stroke="black" cx="605.06" cy="-90" rx="36.9" ry="18"/>
<text text-anchor="middle" x="605.06" y="-87.8" font-family="Times,serif" font-size="9.00">ReachGoal?*</text>
</g>
<!-- Sequence*&#45;&gt;ReachGoal?* -->
<g id="edge13" class="edge">
<title>Sequence*&#45;&gt;ReachGoal?*</title>
<path fill="none" stroke="black" d="M467.89,-149.91C495.11,-138.22 538.19,-119.72 568.81,-106.57"/>
<polygon fill="black" stroke="black" points="570.47,-109.67 578.27,-102.51 567.7,-103.24 570.47,-109.67"/>
</g>
<!-- LkGraph? -->
<g id="node10" class="node">
<title>LkGraph?</title>
<ellipse fill="gray" stroke="black" cx="347.06" cy="-18" rx="30.7" ry="18"/>
<text text-anchor="middle" x="347.06" y="-15.8" font-family="Times,serif" font-size="9.00">LkGraph?</text>
</g>
<!-- Fallback*&#45;&gt;LkGraph? -->
<g id="edge9" class="edge">
<title>Fallback*&#45;&gt;LkGraph?</title>
<path fill="none" stroke="black" d="M423.29,-75.17C409.15,-64.75 389.56,-50.32 373.79,-38.69"/>
<polygon fill="black" stroke="black" points="375.6,-35.68 365.47,-32.56 371.44,-41.31 375.6,-35.68"/>
</g>
<!-- NotReadyForSG? -->
<g id="node11" class="node">
<title>NotReadyForSG?</title>
<ellipse fill="gray" stroke="black" cx="442.06" cy="-18" rx="46.53" ry="18"/>
<text text-anchor="middle" x="442.06" y="-15.8" font-family="Times,serif" font-size="9.00">NotReadyForSG?</text>
</g>
<!-- Fallback*&#45;&gt;NotReadyForSG? -->
<g id="edge10" class="edge">
<title>Fallback*&#45;&gt;NotReadyForSG?</title>
<path fill="none" stroke="black" d="M442.06,-71.7C442.06,-63.98 442.06,-54.71 442.06,-46.11"/>
<polygon fill="black" stroke="black" points="445.56,-46.1 442.06,-36.1 438.56,-46.1 445.56,-46.1"/>
</g>
<!-- GetSubGoal! -->
<g id="node12" class="node">
<title>GetSubGoal!</title>
<ellipse fill="gray" stroke="black" cx="544.06" cy="-18" rx="36.9" ry="18"/>
<text text-anchor="middle" x="544.06" y="-15.8" font-family="Times,serif" font-size="9.00">GetSubGoal!</text>
</g>
<!-- Fallback*&#45;&gt;GetSubGoal! -->
<g id="edge11" class="edge">
<title>Fallback*&#45;&gt;GetSubGoal!</title>
<path fill="none" stroke="black" d="M461.73,-75.5C476.82,-65.15 497.87,-50.7 514.91,-39"/>
<polygon fill="black" stroke="black" points="517.14,-41.72 523.41,-33.18 513.18,-35.95 517.14,-41.72"/>
</g>
</g>
</svg>
