<?xml version="1.0" encoding="UTF-8" standalone="no"?>
<!DOCTYPE svg PUBLIC "-//W3C//DTD SVG 1.1//EN"
 "http://www.w3.org/Graphics/SVG/1.1/DTD/svg11.dtd">
<!-- Generated by graphviz version 2.43.0 (0)
 -->
<!-- Title: pastafarianism Pages: 1 -->
<svg width="705pt" height="260pt"
 viewBox="0.00 0.00 704.95 260.00" xmlns="http://www.w3.org/2000/svg" xmlns:xlink="http://www.w3.org/1999/xlink">
<g id="graph0" class="graph" transform="scale(1 1) rotate(0) translate(4 256)">
<title>pastafarianism</title>
<polygon fill="white" stroke="transparent" points="-4,4 -4,-256 700.95,-256 700.95,4 -4,4"/>
<!-- Fallback -->
<g id="node1" class="node">
<title>Fallback</title>
<polygon fill="cyan" stroke="black" points="370.24,-226.54 370.24,-241.46 353.11,-252 328.89,-252 311.76,-241.46 311.76,-226.54 328.89,-216 353.11,-216 370.24,-226.54"/>
<text text-anchor="middle" x="341" y="-231.8" font-family="Times,serif" font-size="9.00">Fallback</text>
</g>
<!-- Sequence -->
<g id="node2" class="node">
<title>Sequence</title>
<polygon fill="cyan" stroke="black" points="254.49,-154.54 254.49,-169.46 236.05,-180 209.95,-180 191.51,-169.46 191.51,-154.54 209.95,-144 236.05,-144 254.49,-154.54"/>
<text text-anchor="middle" x="223" y="-159.8" font-family="Times,serif" font-size="9.00">Sequence</text>
</g>
<!-- Fallback&#45;&gt;Sequence -->
<g id="edge1" class="edge">
<title>Fallback&#45;&gt;Sequence</title>
<path fill="none" stroke="black" d="M320.72,-220.97C302.03,-209.88 274.08,-193.3 252.85,-180.71"/>
<polygon fill="black" stroke="black" points="254.6,-177.68 244.21,-175.58 251.03,-183.7 254.6,-177.68"/>
</g>
<!-- Sequence* -->
<g id="node8" class="node">
<title>Sequence*</title>
<polygon fill="cyan" stroke="black" points="531.24,-154.54 531.24,-169.46 511.18,-180 482.82,-180 462.76,-169.46 462.76,-154.54 482.82,-144 511.18,-144 531.24,-154.54"/>
<text text-anchor="middle" x="497" y="-159.8" font-family="Times,serif" font-size="9.00">Sequence*</text>
</g>
<!-- Fallback&#45;&gt;Sequence* -->
<g id="edge7" class="edge">
<title>Fallback&#45;&gt;Sequence*</title>
<path fill="none" stroke="black" d="M364.02,-222.67C390.02,-211 432.61,-191.89 462.57,-178.45"/>
<polygon fill="black" stroke="black" points="464.13,-181.59 471.82,-174.3 461.26,-175.2 464.13,-181.59"/>
</g>
<!-- GetLk! -->
<g id="node3" class="node">
<title>GetLk!</title>
<ellipse fill="gray" stroke="black" cx="27" cy="-90" rx="27" ry="18"/>
<text text-anchor="middle" x="27" y="-87.8" font-family="Times,serif" font-size="9.00">GetLk!</text>
</g>
<!-- Sequence&#45;&gt;GetLk! -->
<g id="edge2" class="edge">
<title>Sequence&#45;&gt;GetLk!</title>
<path fill="none" stroke="black" d="M194.59,-152.73C162.31,-143.07 108.24,-126.1 63,-108 61.17,-107.27 59.3,-106.49 57.43,-105.68"/>
<polygon fill="black" stroke="black" points="58.69,-102.41 48.13,-101.5 55.82,-108.79 58.69,-102.41"/>
</g>
<!-- ReachGoal? -->
<g id="node4" class="node">
<title>ReachGoal?</title>
<ellipse fill="gray" stroke="black" cx="106" cy="-90" rx="34.13" ry="18"/>
<text text-anchor="middle" x="106" y="-87.8" font-family="Times,serif" font-size="9.00">ReachGoal?</text>
</g>
<!-- Sequence&#45;&gt;ReachGoal? -->
<g id="edge3" class="edge">
<title>Sequence&#45;&gt;ReachGoal?</title>
<path fill="none" stroke="black" d="M202.08,-148.49C183.88,-137.59 157.24,-121.66 136.63,-109.33"/>
<polygon fill="black" stroke="black" points="138.31,-106.25 127.93,-104.12 134.71,-112.26 138.31,-106.25"/>
</g>
<!-- GetLk!* -->
<g id="node5" class="node">
<title>GetLk!*</title>
<ellipse fill="gray" stroke="black" cx="185" cy="-90" rx="27.27" ry="18"/>
<text text-anchor="middle" x="185" y="-87.8" font-family="Times,serif" font-size="9.00">GetLk!*</text>
</g>
<!-- Sequence&#45;&gt;GetLk!* -->
<g id="edge4" class="edge">
<title>Sequence&#45;&gt;GetLk!*</title>
<path fill="none" stroke="black" d="M213.61,-143.7C209.1,-135.4 203.63,-125.31 198.67,-116.19"/>
<polygon fill="black" stroke="black" points="201.61,-114.26 193.76,-107.14 195.46,-117.6 201.61,-114.26"/>
</g>
<!-- GetLk!** -->
<g id="node6" class="node">
<title>GetLk!**</title>
<ellipse fill="gray" stroke="black" cx="260" cy="-90" rx="29.39" ry="18"/>
<text text-anchor="middle" x="260" y="-87.8" font-family="Times,serif" font-size="9.00">GetLk!**</text>
</g>
<!-- Sequence&#45;&gt;GetLk!** -->
<g id="edge5" class="edge">
<title>Sequence&#45;&gt;GetLk!**</title>
<path fill="none" stroke="black" d="M232.15,-143.7C236.47,-135.52 241.71,-125.6 246.48,-116.58"/>
<polygon fill="black" stroke="black" points="249.64,-118.1 251.21,-107.62 243.45,-114.83 249.64,-118.1"/>
</g>
<!-- LkClose? -->
<g id="node7" class="node">
<title>LkClose?</title>
<ellipse fill="gray" stroke="black" cx="336" cy="-90" rx="28.74" ry="18"/>
<text text-anchor="middle" x="336" y="-87.8" font-family="Times,serif" font-size="9.00">LkClose?</text>
</g>
<!-- Sequence&#45;&gt;LkClose? -->
<g id="edge6" class="edge">
<title>Sequence&#45;&gt;LkClose?</title>
<path fill="none" stroke="black" d="M243.73,-148.16C261.63,-137.07 287.67,-120.94 307.53,-108.64"/>
<polygon fill="black" stroke="black" points="309.51,-111.53 316.16,-103.29 305.82,-105.58 309.51,-111.53"/>
</g>
<!-- GetLk!*** -->
<g id="node9" class="node">
<title>GetLk!***</title>
<ellipse fill="gray" stroke="black" cx="415" cy="-90" rx="32.16" ry="18"/>
<text text-anchor="middle" x="415" y="-87.8" font-family="Times,serif" font-size="9.00">GetLk!***</text>
</g>
<!-- Sequence*&#45;&gt;GetLk!*** -->
<g id="edge8" class="edge">
<title>Sequence*&#45;&gt;GetLk!***</title>
<path fill="none" stroke="black" d="M479.21,-145.81C467.69,-135.98 452.54,-123.04 439.84,-112.21"/>
<polygon fill="black" stroke="black" points="441.8,-109.27 431.92,-105.44 437.25,-114.6 441.8,-109.27"/>
</g>
<!-- Fallback* -->
<g id="node10" class="node">
<title>Fallback*</title>
<polygon fill="cyan" stroke="black" points="528.74,-82.54 528.74,-97.46 510.15,-108 483.85,-108 465.26,-97.46 465.26,-82.54 483.85,-72 510.15,-72 528.74,-82.54"/>
<text text-anchor="middle" x="497" y="-87.8" font-family="Times,serif" font-size="9.00">Fallback*</text>
</g>
<!-- Sequence*&#45;&gt;Fallback* -->
<g id="edge9" class="edge">
<title>Sequence*&#45;&gt;Fallback*</title>
<path fill="none" stroke="black" d="M497,-143.7C497,-135.98 497,-126.71 497,-118.11"/>
<polygon fill="black" stroke="black" points="500.5,-118.1 497,-108.1 493.5,-118.1 500.5,-118.1"/>
</g>
<!-- MoveTo! -->
<g id="node15" class="node">
<title>MoveTo!</title>
<ellipse fill="gray" stroke="black" cx="576" cy="-90" rx="28.74" ry="18"/>
<text text-anchor="middle" x="576" y="-87.8" font-family="Times,serif" font-size="9.00">MoveTo!</text>
</g>
<!-- Sequence*&#45;&gt;MoveTo! -->
<g id="edge14" class="edge">
<title>Sequence*&#45;&gt;MoveTo!</title>
<path fill="none" stroke="black" d="M514.53,-145.46C525.72,-135.55 540.35,-122.59 552.54,-111.79"/>
<polygon fill="black" stroke="black" points="554.96,-114.32 560.13,-105.07 550.32,-109.08 554.96,-114.32"/>
</g>
<!-- ReachGoal?* -->
<g id="node16" class="node">
<title>ReachGoal?*</title>
<ellipse fill="gray" stroke="black" cx="660" cy="-90" rx="36.9" ry="18"/>
<text text-anchor="middle" x="660" y="-87.8" font-family="Times,serif" font-size="9.00">ReachGoal?*</text>
</g>
<!-- Sequence*&#45;&gt;ReachGoal?* -->
<g id="edge15" class="edge">
<title>Sequence*&#45;&gt;ReachGoal?*</title>
<path fill="none" stroke="black" d="M522.83,-149.91C550.04,-138.22 593.13,-119.72 623.74,-106.57"/>
<polygon fill="black" stroke="black" points="625.4,-109.67 633.21,-102.51 622.64,-103.24 625.4,-109.67"/>
</g>
<!-- LkGraph? -->
<g id="node11" class="node">
<title>LkGraph?</title>
<ellipse fill="gray" stroke="black" cx="353" cy="-18" rx="30.7" ry="18"/>
<text text-anchor="middle" x="353" y="-15.8" font-family="Times,serif" font-size="9.00">LkGraph?</text>
</g>
<!-- Fallback*&#45;&gt;LkGraph? -->
<g id="edge10" class="edge">
<title>Fallback*&#45;&gt;LkGraph?</title>
<path fill="none" stroke="black" d="M473.54,-77.6C449.55,-65.94 412.1,-47.73 385.31,-34.71"/>
<polygon fill="black" stroke="black" points="386.49,-31.39 375.97,-30.17 383.43,-37.69 386.49,-31.39"/>
</g>
<!-- NotReadyForSG? -->
<g id="node12" class="node">
<title>NotReadyForSG?</title>
<ellipse fill="gray" stroke="black" cx="448" cy="-18" rx="46.53" ry="18"/>
<text text-anchor="middle" x="448" y="-15.8" font-family="Times,serif" font-size="9.00">NotReadyForSG?</text>
</g>
<!-- Fallback*&#45;&gt;NotReadyForSG? -->
<g id="edge11" class="edge">
<title>Fallback*&#45;&gt;NotReadyForSG?</title>
<path fill="none" stroke="black" d="M484.89,-71.7C479.05,-63.35 471.93,-53.18 465.51,-44.02"/>
<polygon fill="black" stroke="black" points="468.24,-41.81 459.64,-35.62 462.5,-45.82 468.24,-41.81"/>
</g>
<!-- LkGraph?* -->
<g id="node13" class="node">
<title>LkGraph?*</title>
<ellipse fill="gray" stroke="black" cx="546" cy="-18" rx="32.82" ry="18"/>
<text text-anchor="middle" x="546" y="-15.8" font-family="Times,serif" font-size="9.00">LkGraph?*</text>
</g>
<!-- Fallback*&#45;&gt;LkGraph?* -->
<g id="edge12" class="edge">
<title>Fallback*&#45;&gt;LkGraph?*</title>
<path fill="none" stroke="black" d="M509.11,-71.7C515.04,-63.23 522.28,-52.89 528.77,-43.61"/>
<polygon fill="black" stroke="black" points="531.83,-45.34 534.7,-35.14 526.1,-41.33 531.83,-45.34"/>
</g>
<!-- GetSubGoal! -->
<g id="node14" class="node">
<title>GetSubGoal!</title>
<ellipse fill="gray" stroke="black" cx="634" cy="-18" rx="36.9" ry="18"/>
<text text-anchor="middle" x="634" y="-15.8" font-family="Times,serif" font-size="9.00">GetSubGoal!</text>
</g>
<!-- Fallback*&#45;&gt;GetSubGoal! -->
<g id="edge13" class="edge">
<title>Fallback*&#45;&gt;GetSubGoal!</title>
<path fill="none" stroke="black" d="M519.93,-77.28C541.81,-66.1 575.06,-49.12 600.02,-36.36"/>
<polygon fill="black" stroke="black" points="601.83,-39.37 609.14,-31.7 598.64,-33.14 601.83,-39.37"/>
</g>
</g>
</svg>
