<?xml version="1.0" encoding="UTF-8" standalone="no"?>
<!DOCTYPE svg PUBLIC "-//W3C//DTD SVG 1.1//EN"
 "http://www.w3.org/Graphics/SVG/1.1/DTD/svg11.dtd">
<!-- Generated by graphviz version 2.43.0 (0)
 -->
<!-- Title: pastafarianism Pages: 1 -->
<svg width="638pt" height="332pt"
 viewBox="0.00 0.00 637.71 332.00" xmlns="http://www.w3.org/2000/svg" xmlns:xlink="http://www.w3.org/1999/xlink">
<g id="graph0" class="graph" transform="scale(1 1) rotate(0) translate(4 328)">
<title>pastafarianism</title>
<polygon fill="white" stroke="transparent" points="-4,4 -4,-328 633.71,-328 633.71,4 -4,4"/>
<!-- Sequence -->
<g id="node1" class="node">
<title>Sequence</title>
<polygon fill="cyan" stroke="black" points="377.65,-298.54 377.65,-313.46 359.2,-324 333.11,-324 314.66,-313.46 314.66,-298.54 333.11,-288 359.2,-288 377.65,-298.54"/>
<text text-anchor="middle" x="346.16" y="-303.8" font-family="Times,serif" font-size="9.00">Sequence</text>
</g>
<!-- Fallback -->
<g id="node2" class="node">
<title>Fallback</title>
<polygon fill="cyan" stroke="black" points="196.4,-226.54 196.4,-241.46 179.27,-252 155.04,-252 137.91,-241.46 137.91,-226.54 155.04,-216 179.27,-216 196.4,-226.54"/>
<text text-anchor="middle" x="167.16" y="-231.8" font-family="Times,serif" font-size="9.00">Fallback</text>
</g>
<!-- Sequence&#45;&gt;Fallback -->
<g id="edge1" class="edge">
<title>Sequence&#45;&gt;Fallback</title>
<path fill="none" stroke="black" d="M320.51,-294.97C289.19,-282.72 236.09,-261.96 201.33,-248.36"/>
<polygon fill="black" stroke="black" points="202.2,-244.94 191.61,-244.56 199.65,-251.46 202.2,-244.94"/>
</g>
<!-- Fallback** -->
<g id="node9" class="node">
<title>Fallback**</title>
<polygon fill="cyan" stroke="black" points="320.15,-226.54 320.15,-241.46 299.65,-252 270.66,-252 250.17,-241.46 250.17,-226.54 270.66,-216 299.65,-216 320.15,-226.54"/>
<text text-anchor="middle" x="285.16" y="-231.8" font-family="Times,serif" font-size="9.00">Fallback**</text>
</g>
<!-- Sequence&#45;&gt;Fallback** -->
<g id="edge8" class="edge">
<title>Sequence&#45;&gt;Fallback**</title>
<path fill="none" stroke="black" d="M331.7,-288.41C324.21,-279.82 314.93,-269.16 306.62,-259.63"/>
<polygon fill="black" stroke="black" points="309.14,-257.2 299.93,-251.96 303.86,-261.79 309.14,-257.2"/>
</g>
<!-- 2 at pos (0.016, &#45;0.032, 0.0)? -->
<g id="node14" class="node">
<title>2 at pos (0.016, &#45;0.032, 0.0)?</title>
<ellipse fill="gray" stroke="black" cx="407.16" cy="-234" rx="69.06" ry="18"/>
<text text-anchor="middle" x="407.16" y="-231.8" font-family="Times,serif" font-size="9.00">2 at pos (0.016, &#45;0.032, 0.0)?</text>
</g>
<!-- Sequence&#45;&gt;2 at pos (0.016, &#45;0.032, 0.0)? -->
<g id="edge13" class="edge">
<title>Sequence&#45;&gt;2 at pos (0.016, &#45;0.032, 0.0)?</title>
<path fill="none" stroke="black" d="M360.61,-288.41C368.1,-279.82 377.39,-269.16 385.7,-259.63"/>
<polygon fill="black" stroke="black" points="388.45,-261.79 392.38,-251.96 383.17,-257.2 388.45,-261.79"/>
</g>
<!-- 3 at pos (0.016, 0.032, 0.0)? -->
<g id="node15" class="node">
<title>3 at pos (0.016, 0.032, 0.0)?</title>
<ellipse fill="gray" stroke="black" cx="562.16" cy="-234" rx="67.6" ry="18"/>
<text text-anchor="middle" x="562.16" y="-231.8" font-family="Times,serif" font-size="9.00">3 at pos (0.016, 0.032, 0.0)?</text>
</g>
<!-- Sequence&#45;&gt;3 at pos (0.016, 0.032, 0.0)? -->
<g id="edge14" class="edge">
<title>Sequence&#45;&gt;3 at pos (0.016, 0.032, 0.0)?</title>
<path fill="none" stroke="black" d="M373.51,-296.13C408.06,-284.94 468.18,-265.46 511.27,-251.49"/>
<polygon fill="black" stroke="black" points="512.57,-254.75 521.01,-248.34 510.41,-248.09 512.57,-254.75"/>
</g>
<!-- 0 at pos (0.0, 0.0, 0.0)? -->
<g id="node3" class="node">
<title>0 at pos (0.0, 0.0, 0.0)?</title>
<ellipse fill="gray" stroke="black" cx="57.16" cy="-162" rx="57.32" ry="18"/>
<text text-anchor="middle" x="57.16" y="-159.8" font-family="Times,serif" font-size="9.00">0 at pos (0.0, 0.0, 0.0)?</text>
</g>
<!-- Fallback&#45;&gt;0 at pos (0.0, 0.0, 0.0)? -->
<g id="edge2" class="edge">
<title>Fallback&#45;&gt;0 at pos (0.0, 0.0, 0.0)?</title>
<path fill="none" stroke="black" d="M147.49,-220.49C131.49,-210.3 108.56,-195.71 89.81,-183.78"/>
<polygon fill="black" stroke="black" points="91.58,-180.75 81.26,-178.34 87.82,-186.66 91.58,-180.75"/>
</g>
<!-- Sequence* -->
<g id="node4" class="node">
<title>Sequence*</title>
<polygon fill="cyan" stroke="black" points="201.4,-154.54 201.4,-169.46 181.34,-180 152.97,-180 132.92,-169.46 132.92,-154.54 152.97,-144 181.34,-144 201.4,-154.54"/>
<text text-anchor="middle" x="167.16" y="-159.8" font-family="Times,serif" font-size="9.00">Sequence*</text>
</g>
<!-- Fallback&#45;&gt;Sequence* -->
<g id="edge3" class="edge">
<title>Fallback&#45;&gt;Sequence*</title>
<path fill="none" stroke="black" d="M167.16,-215.7C167.16,-207.98 167.16,-198.71 167.16,-190.11"/>
<polygon fill="black" stroke="black" points="170.66,-190.1 167.16,-180.1 163.66,-190.1 170.66,-190.1"/>
</g>
<!-- Fallback* -->
<g id="node5" class="node">
<title>Fallback*</title>
<polygon fill="cyan" stroke="black" points="158.9,-82.54 158.9,-97.46 140.31,-108 114.01,-108 95.42,-97.46 95.42,-82.54 114.01,-72 140.31,-72 158.9,-82.54"/>
<text text-anchor="middle" x="127.16" y="-87.8" font-family="Times,serif" font-size="9.00">Fallback*</text>
</g>
<!-- Sequence*&#45;&gt;Fallback* -->
<g id="edge4" class="edge">
<title>Sequence*&#45;&gt;Fallback*</title>
<path fill="none" stroke="black" d="M157.27,-143.7C152.67,-135.64 147.1,-125.89 142,-116.98"/>
<polygon fill="black" stroke="black" points="144.93,-115.05 136.93,-108.1 138.85,-118.52 144.93,-115.05"/>
</g>
<!-- place at (0.0, 0.0, 0.0)! -->
<g id="node8" class="node">
<title>place at (0.0, 0.0, 0.0)!</title>
<ellipse fill="gray" stroke="black" cx="233.16" cy="-90" rx="56.01" ry="18"/>
<text text-anchor="middle" x="233.16" y="-87.8" font-family="Times,serif" font-size="9.00">place at (0.0, 0.0, 0.0)!</text>
</g>
<!-- Sequence*&#45;&gt;place at (0.0, 0.0, 0.0)! -->
<g id="edge7" class="edge">
<title>Sequence*&#45;&gt;place at (0.0, 0.0, 0.0)!</title>
<path fill="none" stroke="black" d="M182.8,-144.41C191.1,-135.61 201.45,-124.63 210.61,-114.92"/>
<polygon fill="black" stroke="black" points="213.32,-117.15 217.63,-107.47 208.22,-112.34 213.32,-117.15"/>
</g>
<!-- picked 0? -->
<g id="node6" class="node">
<title>picked 0?</title>
<ellipse fill="gray" stroke="black" cx="90.16" cy="-18" rx="28.74" ry="18"/>
<text text-anchor="middle" x="90.16" y="-15.8" font-family="Times,serif" font-size="9.00">picked 0?</text>
</g>
<!-- Fallback*&#45;&gt;picked 0? -->
<g id="edge5" class="edge">
<title>Fallback*&#45;&gt;picked 0?</title>
<path fill="none" stroke="black" d="M118.01,-71.7C113.69,-63.52 108.45,-53.6 103.68,-44.58"/>
<polygon fill="black" stroke="black" points="106.71,-42.83 98.94,-35.62 100.52,-46.1 106.71,-42.83"/>
</g>
<!-- pick 0! -->
<g id="node7" class="node">
<title>pick 0!</title>
<ellipse fill="gray" stroke="black" cx="164.16" cy="-18" rx="27" ry="18"/>
<text text-anchor="middle" x="164.16" y="-15.8" font-family="Times,serif" font-size="9.00">pick 0!</text>
</g>
<!-- Fallback*&#45;&gt;pick 0! -->
<g id="edge6" class="edge">
<title>Fallback*&#45;&gt;pick 0!</title>
<path fill="none" stroke="black" d="M136.3,-71.7C140.69,-63.4 146.02,-53.31 150.84,-44.19"/>
<polygon fill="black" stroke="black" points="154.05,-45.62 155.62,-35.14 147.86,-42.35 154.05,-45.62"/>
</g>
<!-- 1 at pos (0.0, 0.0, 0.0192)? -->
<g id="node10" class="node">
<title>1 at pos (0.0, 0.0, 0.0192)?</title>
<ellipse fill="gray" stroke="black" cx="285.16" cy="-162" rx="65.48" ry="18"/>
<text text-anchor="middle" x="285.16" y="-159.8" font-family="Times,serif" font-size="9.00">1 at pos (0.0, 0.0, 0.0192)?</text>
</g>
<!-- Fallback**&#45;&gt;1 at pos (0.0, 0.0, 0.0192)? -->
<g id="edge9" class="edge">
<title>Fallback**&#45;&gt;1 at pos (0.0, 0.0, 0.0192)?</title>
<path fill="none" stroke="black" d="M285.16,-215.7C285.16,-207.98 285.16,-198.71 285.16,-190.11"/>
<polygon fill="black" stroke="black" points="288.66,-190.1 285.16,-180.1 281.66,-190.1 288.66,-190.1"/>
</g>
<!-- Sequence** -->
<g id="node11" class="node">
<title>Sequence**</title>
<polygon fill="cyan" stroke="black" points="441.9,-154.54 441.9,-169.46 420.38,-180 389.94,-180 368.42,-169.46 368.42,-154.54 389.94,-144 420.38,-144 441.9,-154.54"/>
<text text-anchor="middle" x="405.16" y="-159.8" font-family="Times,serif" font-size="9.00">Sequence**</text>
</g>
<!-- Fallback**&#45;&gt;Sequence** -->
<g id="edge10" class="edge">
<title>Fallback**&#45;&gt;Sequence**</title>
<path fill="none" stroke="black" d="M307.45,-220C325.99,-209.18 352.6,-193.66 373.38,-181.54"/>
<polygon fill="black" stroke="black" points="375.3,-184.47 382.17,-176.41 371.77,-178.42 375.3,-184.47"/>
</g>
<!-- 1 on 0? -->
<g id="node12" class="node">
<title>1 on 0?</title>
<ellipse fill="gray" stroke="black" cx="361.16" cy="-90" rx="27" ry="18"/>
<text text-anchor="middle" x="361.16" y="-87.8" font-family="Times,serif" font-size="9.00">1 on 0?</text>
</g>
<!-- Sequence**&#45;&gt;1 on 0? -->
<g id="edge11" class="edge">
<title>Sequence**&#45;&gt;1 on 0?</title>
<path fill="none" stroke="black" d="M394.28,-143.7C388.96,-135.23 382.46,-124.89 376.63,-115.61"/>
<polygon fill="black" stroke="black" points="379.59,-113.75 371.31,-107.14 373.66,-117.47 379.59,-113.75"/>
</g>
<!-- apply force 1! -->
<g id="node13" class="node">
<title>apply force 1!</title>
<ellipse fill="gray" stroke="black" cx="444.16" cy="-90" rx="38.21" ry="18"/>
<text text-anchor="middle" x="444.16" y="-87.8" font-family="Times,serif" font-size="9.00">apply force 1!</text>
</g>
<!-- Sequence**&#45;&gt;apply force 1! -->
<g id="edge12" class="edge">
<title>Sequence**&#45;&gt;apply force 1!</title>
<path fill="none" stroke="black" d="M414.8,-143.7C419.35,-135.52 424.88,-125.6 429.9,-116.58"/>
<polygon fill="black" stroke="black" points="433.09,-118.06 434.9,-107.62 426.97,-114.65 433.09,-118.06"/>
</g>
</g>
</svg>
