<?xml version="1.0" encoding="UTF-8" standalone="no"?>
<!DOCTYPE svg PUBLIC "-//W3C//DTD SVG 1.1//EN"
 "http://www.w3.org/Graphics/SVG/1.1/DTD/svg11.dtd">
<!-- Generated by graphviz version 2.43.0 (0)
 -->
<!-- Title: pastafarianism Pages: 1 -->
<svg width="605pt" height="332pt"
 viewBox="0.00 0.00 604.52 332.00" xmlns="http://www.w3.org/2000/svg" xmlns:xlink="http://www.w3.org/1999/xlink">
<g id="graph0" class="graph" transform="scale(1 1) rotate(0) translate(4 328)">
<title>pastafarianism</title>
<polygon fill="white" stroke="transparent" points="-4,4 -4,-328 600.52,-328 600.52,4 -4,4"/>
<!-- Fallback -->
<g id="node1" class="node">
<title>Fallback</title>
<polygon fill="cyan" stroke="black" points="331.31,-298.54 331.31,-313.46 314.18,-324 289.95,-324 272.82,-313.46 272.82,-298.54 289.95,-288 314.18,-288 331.31,-298.54"/>
<text text-anchor="middle" x="302.06" y="-303.8" font-family="Times,serif" font-size="9.00">Fallback</text>
</g>
<!-- Sequence -->
<g id="node2" class="node">
<title>Sequence</title>
<polygon fill="cyan" stroke="black" points="240.56,-226.54 240.56,-241.46 222.11,-252 196.02,-252 177.57,-241.46 177.57,-226.54 196.02,-216 222.11,-216 240.56,-226.54"/>
<text text-anchor="middle" x="209.06" y="-231.8" font-family="Times,serif" font-size="9.00">Sequence</text>
</g>
<!-- Fallback&#45;&gt;Sequence -->
<g id="edge1" class="edge">
<title>Fallback&#45;&gt;Sequence</title>
<path fill="none" stroke="black" d="M284.13,-291.5C270.42,-281.18 251.28,-266.78 235.77,-255.1"/>
<polygon fill="black" stroke="black" points="237.67,-252.15 227.58,-248.93 233.46,-257.74 237.67,-252.15"/>
</g>
<!-- ReachGoal?* -->
<g id="node7" class="node">
<title>ReachGoal?*</title>
<ellipse fill="gray" stroke="black" cx="302.06" cy="-234" rx="36.9" ry="18"/>
<text text-anchor="middle" x="302.06" y="-231.8" font-family="Times,serif" font-size="9.00">ReachGoal?*</text>
</g>
<!-- Fallback&#45;&gt;ReachGoal?* -->
<g id="edge6" class="edge">
<title>Fallback&#45;&gt;ReachGoal?*</title>
<path fill="none" stroke="black" d="M302.06,-287.7C302.06,-279.98 302.06,-270.71 302.06,-262.11"/>
<polygon fill="black" stroke="black" points="305.56,-262.1 302.06,-252.1 298.56,-262.1 305.56,-262.1"/>
</g>
<!-- Sequence* -->
<g id="node8" class="node">
<title>Sequence*</title>
<polygon fill="cyan" stroke="black" points="471.31,-226.54 471.31,-241.46 451.25,-252 422.88,-252 402.82,-241.46 402.82,-226.54 422.88,-216 451.25,-216 471.31,-226.54"/>
<text text-anchor="middle" x="437.06" y="-231.8" font-family="Times,serif" font-size="9.00">Sequence*</text>
</g>
<!-- Fallback&#45;&gt;Sequence* -->
<g id="edge7" class="edge">
<title>Fallback&#45;&gt;Sequence*</title>
<path fill="none" stroke="black" d="M323.75,-293.75C345.56,-282.44 379.45,-264.87 404.49,-251.89"/>
<polygon fill="black" stroke="black" points="406.35,-254.87 413.61,-247.16 403.12,-248.66 406.35,-254.87"/>
</g>
<!-- ReachGoal? -->
<g id="node3" class="node">
<title>ReachGoal?</title>
<ellipse fill="gray" stroke="black" cx="34.06" cy="-162" rx="34.13" ry="18"/>
<text text-anchor="middle" x="34.06" y="-159.8" font-family="Times,serif" font-size="9.00">ReachGoal?</text>
</g>
<!-- Sequence&#45;&gt;ReachGoal? -->
<g id="edge2" class="edge">
<title>Sequence&#45;&gt;ReachGoal?</title>
<path fill="none" stroke="black" d="M183.62,-222.82C153.68,-210.85 103.77,-190.88 69.92,-177.34"/>
<polygon fill="black" stroke="black" points="70.98,-174 60.4,-173.53 68.38,-180.5 70.98,-174"/>
</g>
<!-- LkClose? -->
<g id="node4" class="node">
<title>LkClose?</title>
<ellipse fill="gray" stroke="black" cx="115.06" cy="-162" rx="28.74" ry="18"/>
<text text-anchor="middle" x="115.06" y="-159.8" font-family="Times,serif" font-size="9.00">LkClose?</text>
</g>
<!-- Sequence&#45;&gt;LkClose? -->
<g id="edge3" class="edge">
<title>Sequence&#45;&gt;LkClose?</title>
<path fill="none" stroke="black" d="M190.04,-218.83C176.01,-208.39 156.75,-194.04 141.26,-182.51"/>
<polygon fill="black" stroke="black" points="143.21,-179.6 133.1,-176.43 139.03,-185.21 143.21,-179.6"/>
</g>
<!-- NotReadyForSG? -->
<g id="node5" class="node">
<title>NotReadyForSG?</title>
<ellipse fill="gray" stroke="black" cx="209.06" cy="-162" rx="46.53" ry="18"/>
<text text-anchor="middle" x="209.06" y="-159.8" font-family="Times,serif" font-size="9.00">NotReadyForSG?</text>
</g>
<!-- Sequence&#45;&gt;NotReadyForSG? -->
<g id="edge4" class="edge">
<title>Sequence&#45;&gt;NotReadyForSG?</title>
<path fill="none" stroke="black" d="M209.06,-215.7C209.06,-207.98 209.06,-198.71 209.06,-190.11"/>
<polygon fill="black" stroke="black" points="212.56,-190.1 209.06,-180.1 205.56,-190.1 212.56,-190.1"/>
</g>
<!-- GetSubGoal! -->
<g id="node6" class="node">
<title>GetSubGoal!</title>
<ellipse fill="gray" stroke="black" cx="311.06" cy="-162" rx="36.9" ry="18"/>
<text text-anchor="middle" x="311.06" y="-159.8" font-family="Times,serif" font-size="9.00">GetSubGoal!</text>
</g>
<!-- Sequence&#45;&gt;GetSubGoal! -->
<g id="edge5" class="edge">
<title>Sequence&#45;&gt;GetSubGoal!</title>
<path fill="none" stroke="black" d="M228.73,-219.5C243.82,-209.15 264.87,-194.7 281.91,-183"/>
<polygon fill="black" stroke="black" points="284.14,-185.72 290.41,-177.18 280.18,-179.95 284.14,-185.72"/>
</g>
<!-- Fallback* -->
<g id="node9" class="node">
<title>Fallback*</title>
<polygon fill="cyan" stroke="black" points="429.81,-154.54 429.81,-169.46 411.21,-180 384.92,-180 366.32,-169.46 366.32,-154.54 384.92,-144 411.21,-144 429.81,-154.54"/>
<text text-anchor="middle" x="398.06" y="-159.8" font-family="Times,serif" font-size="9.00">Fallback*</text>
</g>
<!-- Sequence*&#45;&gt;Fallback* -->
<g id="edge8" class="edge">
<title>Sequence*&#45;&gt;Fallback*</title>
<path fill="none" stroke="black" d="M427.42,-215.7C422.94,-207.64 417.5,-197.89 412.54,-188.98"/>
<polygon fill="black" stroke="black" points="415.52,-187.14 407.59,-180.1 409.4,-190.54 415.52,-187.14"/>
</g>
<!-- MoveTo! -->
<g id="node17" class="node">
<title>MoveTo!</title>
<ellipse fill="gray" stroke="black" cx="477.06" cy="-162" rx="28.74" ry="18"/>
<text text-anchor="middle" x="477.06" y="-159.8" font-family="Times,serif" font-size="9.00">MoveTo!</text>
</g>
<!-- Sequence*&#45;&gt;MoveTo! -->
<g id="edge16" class="edge">
<title>Sequence*&#45;&gt;MoveTo!</title>
<path fill="none" stroke="black" d="M446.95,-215.7C451.74,-207.32 457.58,-197.1 462.84,-187.9"/>
<polygon fill="black" stroke="black" points="465.92,-189.56 467.84,-179.14 459.84,-186.09 465.92,-189.56"/>
</g>
<!-- MoveTo!* -->
<g id="node18" class="node">
<title>MoveTo!*</title>
<ellipse fill="gray" stroke="black" cx="556.06" cy="-162" rx="31.51" ry="18"/>
<text text-anchor="middle" x="556.06" y="-159.8" font-family="Times,serif" font-size="9.00">MoveTo!*</text>
</g>
<!-- Sequence*&#45;&gt;MoveTo!* -->
<g id="edge17" class="edge">
<title>Sequence*&#45;&gt;MoveTo!*</title>
<path fill="none" stroke="black" d="M459.17,-220C478.02,-208.91 505.3,-192.86 526.11,-180.62"/>
<polygon fill="black" stroke="black" points="528.03,-183.55 534.88,-175.46 524.48,-177.52 528.03,-183.55"/>
</g>
<!-- NotReadyForSG?* -->
<g id="node10" class="node">
<title>NotReadyForSG?*</title>
<ellipse fill="gray" stroke="black" cx="245.06" cy="-90" rx="49.8" ry="18"/>
<text text-anchor="middle" x="245.06" y="-87.8" font-family="Times,serif" font-size="9.00">NotReadyForSG?*</text>
</g>
<!-- Fallback*&#45;&gt;NotReadyForSG?* -->
<g id="edge9" class="edge">
<title>Fallback*&#45;&gt;NotReadyForSG?*</title>
<path fill="none" stroke="black" d="M374.16,-150.06C349.99,-139.01 312.26,-121.74 283.82,-108.73"/>
<polygon fill="black" stroke="black" points="285.11,-105.47 274.56,-104.5 282.2,-111.84 285.11,-105.47"/>
</g>
<!-- Sequence** -->
<g id="node11" class="node">
<title>Sequence**</title>
<polygon fill="cyan" stroke="black" points="386.8,-82.54 386.8,-97.46 365.28,-108 334.85,-108 313.32,-97.46 313.32,-82.54 334.85,-72 365.28,-72 386.8,-82.54"/>
<text text-anchor="middle" x="350.06" y="-87.8" font-family="Times,serif" font-size="9.00">Sequence**</text>
</g>
<!-- Fallback*&#45;&gt;Sequence** -->
<g id="edge10" class="edge">
<title>Fallback*&#45;&gt;Sequence**</title>
<path fill="none" stroke="black" d="M386.2,-143.7C380.56,-135.47 373.71,-125.48 367.5,-116.42"/>
<polygon fill="black" stroke="black" points="370.33,-114.37 361.79,-108.1 364.56,-118.33 370.33,-114.37"/>
</g>
<!-- GetSubGoal!** -->
<g id="node15" class="node">
<title>GetSubGoal!**</title>
<ellipse fill="gray" stroke="black" cx="447.06" cy="-90" rx="42.29" ry="18"/>
<text text-anchor="middle" x="447.06" y="-87.8" font-family="Times,serif" font-size="9.00">GetSubGoal!**</text>
</g>
<!-- Fallback*&#45;&gt;GetSubGoal!** -->
<g id="edge14" class="edge">
<title>Fallback*&#45;&gt;GetSubGoal!**</title>
<path fill="none" stroke="black" d="M410.18,-143.7C416.02,-135.35 423.13,-125.18 429.55,-116.02"/>
<polygon fill="black" stroke="black" points="432.56,-117.82 435.43,-107.62 426.83,-113.81 432.56,-117.82"/>
</g>
<!-- GetSubGoal!*** -->
<g id="node16" class="node">
<title>GetSubGoal!***</title>
<ellipse fill="gray" stroke="black" cx="552.06" cy="-90" rx="44.41" ry="18"/>
<text text-anchor="middle" x="552.06" y="-87.8" font-family="Times,serif" font-size="9.00">GetSubGoal!***</text>
</g>
<!-- Fallback*&#45;&gt;GetSubGoal!*** -->
<g id="edge15" class="edge">
<title>Fallback*&#45;&gt;GetSubGoal!***</title>
<path fill="none" stroke="black" d="M422.13,-150.06C446.83,-138.83 485.62,-121.2 514.39,-108.12"/>
<polygon fill="black" stroke="black" points="516.07,-111.2 523.73,-103.88 513.18,-104.83 516.07,-111.2"/>
</g>
<!-- GetLk! -->
<g id="node12" class="node">
<title>GetLk!</title>
<ellipse fill="gray" stroke="black" cx="266.06" cy="-18" rx="27" ry="18"/>
<text text-anchor="middle" x="266.06" y="-15.8" font-family="Times,serif" font-size="9.00">GetLk!</text>
</g>
<!-- Sequence**&#45;&gt;GetLk! -->
<g id="edge11" class="edge">
<title>Sequence**&#45;&gt;GetLk!</title>
<path fill="none" stroke="black" d="M331.42,-73.46C319.25,-63.32 303.25,-49.99 290.12,-39.05"/>
<polygon fill="black" stroke="black" points="292.31,-36.31 282.38,-32.6 287.83,-41.69 292.31,-36.31"/>
</g>
<!-- ReachGoal?** -->
<g id="node13" class="node">
<title>ReachGoal?**</title>
<ellipse fill="gray" stroke="black" cx="350.06" cy="-18" rx="39.02" ry="18"/>
<text text-anchor="middle" x="350.06" y="-15.8" font-family="Times,serif" font-size="9.00">ReachGoal?**</text>
</g>
<!-- Sequence**&#45;&gt;ReachGoal?** -->
<g id="edge12" class="edge">
<title>Sequence**&#45;&gt;ReachGoal?**</title>
<path fill="none" stroke="black" d="M350.06,-71.7C350.06,-63.98 350.06,-54.71 350.06,-46.11"/>
<polygon fill="black" stroke="black" points="353.56,-46.1 350.06,-36.1 346.56,-46.1 353.56,-46.1"/>
</g>
<!-- GetSubGoal!* -->
<g id="node14" class="node">
<title>GetSubGoal!*</title>
<ellipse fill="gray" stroke="black" cx="447.06" cy="-18" rx="39.02" ry="18"/>
<text text-anchor="middle" x="447.06" y="-15.8" font-family="Times,serif" font-size="9.00">GetSubGoal!*</text>
</g>
<!-- Sequence**&#45;&gt;GetSubGoal!* -->
<g id="edge13" class="edge">
<title>Sequence**&#45;&gt;GetSubGoal!*</title>
<path fill="none" stroke="black" d="M370.63,-74.15C384.62,-64.06 403.3,-50.58 418.69,-39.47"/>
<polygon fill="black" stroke="black" points="420.79,-42.27 426.85,-33.58 416.7,-36.6 420.79,-42.27"/>
</g>
</g>
</svg>
