<?xml version="1.0" encoding="UTF-8" standalone="no"?>
<!DOCTYPE svg PUBLIC "-//W3C//DTD SVG 1.1//EN"
 "http://www.w3.org/Graphics/SVG/1.1/DTD/svg11.dtd">
<!-- Generated by graphviz version 2.43.0 (0)
 -->
<!-- Title: pastafarianism Pages: 1 -->
<svg width="816pt" height="332pt"
 viewBox="0.00 0.00 815.91 332.00" xmlns="http://www.w3.org/2000/svg" xmlns:xlink="http://www.w3.org/1999/xlink">
<g id="graph0" class="graph" transform="scale(1 1) rotate(0) translate(4 328)">
<title>pastafarianism</title>
<polygon fill="white" stroke="transparent" points="-4,4 -4,-328 811.91,-328 811.91,4 -4,4"/>
<!-- Fallback -->
<g id="node1" class="node">
<title>Fallback</title>
<polygon fill="cyan" stroke="black" points="382.01,-298.54 382.01,-313.46 364.88,-324 340.65,-324 323.52,-313.46 323.52,-298.54 340.65,-288 364.88,-288 382.01,-298.54"/>
<text text-anchor="middle" x="352.77" y="-303.8" font-family="Times,serif" font-size="9.00">Fallback</text>
</g>
<!-- ReachGoal? -->
<g id="node2" class="node">
<title>ReachGoal?</title>
<ellipse fill="gray" stroke="black" cx="311.77" cy="-234" rx="34.13" ry="18"/>
<text text-anchor="middle" x="311.77" y="-231.8" font-family="Times,serif" font-size="9.00">ReachGoal?</text>
</g>
<!-- Fallback&#45;&gt;ReachGoal? -->
<g id="edge1" class="edge">
<title>Fallback&#45;&gt;ReachGoal?</title>
<path fill="none" stroke="black" d="M342.63,-287.7C337.79,-279.44 331.91,-269.39 326.58,-260.3"/>
<polygon fill="black" stroke="black" points="329.58,-258.48 321.5,-251.62 323.54,-262.02 329.58,-258.48"/>
</g>
<!-- Sequence -->
<g id="node3" class="node">
<title>Sequence</title>
<polygon fill="cyan" stroke="black" points="426.26,-226.54 426.26,-241.46 407.81,-252 381.72,-252 363.27,-241.46 363.27,-226.54 381.72,-216 407.81,-216 426.26,-226.54"/>
<text text-anchor="middle" x="394.77" y="-231.8" font-family="Times,serif" font-size="9.00">Sequence</text>
</g>
<!-- Fallback&#45;&gt;Sequence -->
<g id="edge2" class="edge">
<title>Fallback&#45;&gt;Sequence</title>
<path fill="none" stroke="black" d="M363.15,-287.7C368.03,-279.56 373.95,-269.69 379.34,-260.7"/>
<polygon fill="black" stroke="black" points="382.36,-262.48 384.5,-252.1 376.36,-258.88 382.36,-262.48"/>
</g>
<!-- Fallback* -->
<g id="node4" class="node">
<title>Fallback*</title>
<polygon fill="cyan" stroke="black" points="387.51,-154.54 387.51,-169.46 368.91,-180 342.62,-180 324.02,-169.46 324.02,-154.54 342.62,-144 368.91,-144 387.51,-154.54"/>
<text text-anchor="middle" x="355.77" y="-159.8" font-family="Times,serif" font-size="9.00">Fallback*</text>
</g>
<!-- Sequence&#45;&gt;Fallback* -->
<g id="edge3" class="edge">
<title>Sequence&#45;&gt;Fallback*</title>
<path fill="none" stroke="black" d="M385.12,-215.7C380.64,-207.64 375.21,-197.89 370.24,-188.98"/>
<polygon fill="black" stroke="black" points="373.22,-187.14 365.29,-180.1 367.1,-190.54 373.22,-187.14"/>
</g>
<!-- MoveTo! -->
<g id="node18" class="node">
<title>MoveTo!</title>
<ellipse fill="gray" stroke="black" cx="434.77" cy="-162" rx="28.74" ry="18"/>
<text text-anchor="middle" x="434.77" y="-159.8" font-family="Times,serif" font-size="9.00">MoveTo!</text>
</g>
<!-- Sequence&#45;&gt;MoveTo! -->
<g id="edge17" class="edge">
<title>Sequence&#45;&gt;MoveTo!</title>
<path fill="none" stroke="black" d="M404.65,-215.7C409.44,-207.32 415.28,-197.1 420.54,-187.9"/>
<polygon fill="black" stroke="black" points="423.62,-189.56 425.54,-179.14 417.54,-186.09 423.62,-189.56"/>
</g>
<!-- NotReadyForSG? -->
<g id="node5" class="node">
<title>NotReadyForSG?</title>
<ellipse fill="gray" stroke="black" cx="46.77" cy="-90" rx="46.53" ry="18"/>
<text text-anchor="middle" x="46.77" y="-87.8" font-family="Times,serif" font-size="9.00">NotReadyForSG?</text>
</g>
<!-- Fallback*&#45;&gt;NotReadyForSG? -->
<g id="edge4" class="edge">
<title>Fallback*&#45;&gt;NotReadyForSG?</title>
<path fill="none" stroke="black" d="M324,-155.28C275.86,-146.4 181.67,-128.2 102.77,-108 99,-107.04 95.1,-105.98 91.21,-104.88"/>
<polygon fill="black" stroke="black" points="92.16,-101.51 81.58,-102.09 90.21,-108.24 92.16,-101.51"/>
</g>
<!-- ReachGoal?* -->
<g id="node6" class="node">
<title>ReachGoal?*</title>
<ellipse fill="gray" stroke="black" cx="148.77" cy="-90" rx="36.9" ry="18"/>
<text text-anchor="middle" x="148.77" y="-87.8" font-family="Times,serif" font-size="9.00">ReachGoal?*</text>
</g>
<!-- Fallback*&#45;&gt;ReachGoal?* -->
<g id="edge5" class="edge">
<title>Fallback*&#45;&gt;ReachGoal?*</title>
<path fill="none" stroke="black" d="M328.03,-152.2C295.86,-141.93 241.3,-124.25 194.77,-108 192.22,-107.11 189.59,-106.18 186.95,-105.23"/>
<polygon fill="black" stroke="black" points="188.01,-101.89 177.42,-101.77 185.62,-108.47 188.01,-101.89"/>
</g>
<!-- NotReadyForSG?* -->
<g id="node7" class="node">
<title>NotReadyForSG?*</title>
<ellipse fill="gray" stroke="black" cx="253.77" cy="-90" rx="49.8" ry="18"/>
<text text-anchor="middle" x="253.77" y="-87.8" font-family="Times,serif" font-size="9.00">NotReadyForSG?*</text>
</g>
<!-- Fallback*&#45;&gt;NotReadyForSG?* -->
<g id="edge6" class="edge">
<title>Fallback*&#45;&gt;NotReadyForSG?*</title>
<path fill="none" stroke="black" d="M336.1,-147.5C321.41,-137.42 301.05,-123.45 284.26,-111.93"/>
<polygon fill="black" stroke="black" points="286.08,-108.93 275.85,-106.16 282.12,-114.7 286.08,-108.93"/>
</g>
<!-- Sequence* -->
<g id="node8" class="node">
<title>Sequence*</title>
<polygon fill="cyan" stroke="black" points="390.01,-82.54 390.01,-97.46 369.95,-108 341.58,-108 321.52,-97.46 321.52,-82.54 341.58,-72 369.95,-72 390.01,-82.54"/>
<text text-anchor="middle" x="355.77" y="-87.8" font-family="Times,serif" font-size="9.00">Sequence*</text>
</g>
<!-- Fallback*&#45;&gt;Sequence* -->
<g id="edge7" class="edge">
<title>Fallback*&#45;&gt;Sequence*</title>
<path fill="none" stroke="black" d="M355.77,-143.7C355.77,-135.98 355.77,-126.71 355.77,-118.11"/>
<polygon fill="black" stroke="black" points="359.27,-118.1 355.77,-108.1 352.27,-118.1 359.27,-118.1"/>
</g>
<!-- NotReadyForSG?*** -->
<g id="node13" class="node">
<title>NotReadyForSG?***</title>
<ellipse fill="gray" stroke="black" cx="462.77" cy="-90" rx="54.7" ry="18"/>
<text text-anchor="middle" x="462.77" y="-87.8" font-family="Times,serif" font-size="9.00">NotReadyForSG?***</text>
</g>
<!-- Fallback*&#45;&gt;NotReadyForSG?*** -->
<g id="edge12" class="edge">
<title>Fallback*&#45;&gt;NotReadyForSG?***</title>
<path fill="none" stroke="black" d="M375.89,-147.83C391.39,-137.69 413.12,-123.48 430.97,-111.8"/>
<polygon fill="black" stroke="black" points="432.92,-114.7 439.38,-106.3 429.09,-108.85 432.92,-114.7"/>
</g>
<!-- GetSubGoal!* -->
<g id="node14" class="node">
<title>GetSubGoal!*</title>
<ellipse fill="gray" stroke="black" cx="574.77" cy="-90" rx="39.02" ry="18"/>
<text text-anchor="middle" x="574.77" y="-87.8" font-family="Times,serif" font-size="9.00">GetSubGoal!*</text>
</g>
<!-- Fallback*&#45;&gt;GetSubGoal!* -->
<g id="edge13" class="edge">
<title>Fallback*&#45;&gt;GetSubGoal!*</title>
<path fill="none" stroke="black" d="M380.29,-150.26C385.67,-148.06 391.37,-145.86 396.77,-144 453.45,-124.48 469.58,-126.02 526.77,-108 529.67,-107.09 532.65,-106.11 535.65,-105.11"/>
<polygon fill="black" stroke="black" points="536.85,-108.4 545.17,-101.85 534.58,-101.78 536.85,-108.4"/>
</g>
<!-- Sequence** -->
<g id="node15" class="node">
<title>Sequence**</title>
<polygon fill="cyan" stroke="black" points="705.51,-82.54 705.51,-97.46 683.98,-108 653.55,-108 632.02,-97.46 632.02,-82.54 653.55,-72 683.98,-72 705.51,-82.54"/>
<text text-anchor="middle" x="668.77" y="-87.8" font-family="Times,serif" font-size="9.00">Sequence**</text>
</g>
<!-- Fallback*&#45;&gt;Sequence** -->
<g id="edge14" class="edge">
<title>Fallback*&#45;&gt;Sequence**</title>
<path fill="none" stroke="black" d="M379.71,-149.97C385.23,-147.74 391.13,-145.59 396.77,-144 494.64,-116.33 524.37,-133.75 622.77,-108 625.72,-107.23 628.75,-106.34 631.77,-105.38"/>
<polygon fill="black" stroke="black" points="632.97,-108.67 641.32,-102.14 630.72,-102.04 632.97,-108.67"/>
</g>
<!-- GetLk! -->
<g id="node9" class="node">
<title>GetLk!</title>
<ellipse fill="gray" stroke="black" cx="197.77" cy="-18" rx="27" ry="18"/>
<text text-anchor="middle" x="197.77" y="-15.8" font-family="Times,serif" font-size="9.00">GetLk!</text>
</g>
<!-- Sequence*&#45;&gt;GetLk! -->
<g id="edge8" class="edge">
<title>Sequence*&#45;&gt;GetLk!</title>
<path fill="none" stroke="black" d="M329.96,-78.07C305.19,-67.51 266.79,-50.97 233.77,-36 231.97,-35.19 230.13,-34.34 228.28,-33.49"/>
<polygon fill="black" stroke="black" points="229.58,-30.23 219.03,-29.18 226.62,-36.58 229.58,-30.23"/>
</g>
<!-- ReachGoal?** -->
<g id="node10" class="node">
<title>ReachGoal?**</title>
<ellipse fill="gray" stroke="black" cx="281.77" cy="-18" rx="39.02" ry="18"/>
<text text-anchor="middle" x="281.77" y="-15.8" font-family="Times,serif" font-size="9.00">ReachGoal?**</text>
</g>
<!-- Sequence*&#45;&gt;ReachGoal?** -->
<g id="edge9" class="edge">
<title>Sequence*&#45;&gt;ReachGoal?**</title>
<path fill="none" stroke="black" d="M338.97,-73.12C329.16,-63.83 316.61,-51.96 305.77,-41.7"/>
<polygon fill="black" stroke="black" points="307.91,-38.91 298.24,-34.58 303.1,-43.99 307.91,-38.91"/>
</g>
<!-- GetSubGoal! -->
<g id="node11" class="node">
<title>GetSubGoal!</title>
<ellipse fill="gray" stroke="black" cx="375.77" cy="-18" rx="36.9" ry="18"/>
<text text-anchor="middle" x="375.77" y="-15.8" font-family="Times,serif" font-size="9.00">GetSubGoal!</text>
</g>
<!-- Sequence*&#45;&gt;GetSubGoal! -->
<g id="edge10" class="edge">
<title>Sequence*&#45;&gt;GetSubGoal!</title>
<path fill="none" stroke="black" d="M360.71,-71.7C362.94,-63.9 365.62,-54.51 368.1,-45.83"/>
<polygon fill="black" stroke="black" points="371.5,-46.68 370.88,-36.1 364.77,-44.76 371.5,-46.68"/>
</g>
<!-- NotReadyForSG?** -->
<g id="node12" class="node">
<title>NotReadyForSG?**</title>
<ellipse fill="gray" stroke="black" cx="482.77" cy="-18" rx="51.92" ry="18"/>
<text text-anchor="middle" x="482.77" y="-15.8" font-family="Times,serif" font-size="9.00">NotReadyForSG?**</text>
</g>
<!-- Sequence*&#45;&gt;NotReadyForSG?** -->
<g id="edge11" class="edge">
<title>Sequence*&#45;&gt;NotReadyForSG?**</title>
<path fill="none" stroke="black" d="M378.76,-76.32C397.9,-65.77 425.47,-50.58 447.41,-38.49"/>
<polygon fill="black" stroke="black" points="449.36,-41.41 456.43,-33.52 445.98,-35.28 449.36,-41.41"/>
</g>
<!-- NotReadyForSG?**** -->
<g id="node16" class="node">
<title>NotReadyForSG?****</title>
<ellipse fill="gray" stroke="black" cx="648.77" cy="-18" rx="57.32" ry="18"/>
<text text-anchor="middle" x="648.77" y="-15.8" font-family="Times,serif" font-size="9.00">NotReadyForSG?****</text>
</g>
<!-- Sequence**&#45;&gt;NotReadyForSG?**** -->
<g id="edge15" class="edge">
<title>Sequence**&#45;&gt;NotReadyForSG?****</title>
<path fill="none" stroke="black" d="M663.82,-71.7C661.59,-63.9 658.91,-54.51 656.43,-45.83"/>
<polygon fill="black" stroke="black" points="659.76,-44.76 653.65,-36.1 653.03,-46.68 659.76,-44.76"/>
</g>
<!-- GetSubGoal!** -->
<g id="node17" class="node">
<title>GetSubGoal!**</title>
<ellipse fill="gray" stroke="black" cx="765.77" cy="-18" rx="42.29" ry="18"/>
<text text-anchor="middle" x="765.77" y="-15.8" font-family="Times,serif" font-size="9.00">GetSubGoal!**</text>
</g>
<!-- Sequence**&#45;&gt;GetSubGoal!** -->
<g id="edge16" class="edge">
<title>Sequence**&#45;&gt;GetSubGoal!**</title>
<path fill="none" stroke="black" d="M689.34,-74.15C703.23,-64.13 721.75,-50.76 737.08,-39.7"/>
<polygon fill="black" stroke="black" points="739.16,-42.51 745.22,-33.82 735.07,-36.84 739.16,-42.51"/>
</g>
</g>
</svg>
