<?xml version="1.0" encoding="UTF-8" standalone="no"?>
<!DOCTYPE svg PUBLIC "-//W3C//DTD SVG 1.1//EN"
 "http://www.w3.org/Graphics/SVG/1.1/DTD/svg11.dtd">
<!-- Generated by graphviz version 2.43.0 (0)
 -->
<!-- Title: pastafarianism Pages: 1 -->
<svg width="646pt" height="404pt"
 viewBox="0.00 0.00 646.22 404.00" xmlns="http://www.w3.org/2000/svg" xmlns:xlink="http://www.w3.org/1999/xlink">
<g id="graph0" class="graph" transform="scale(1 1) rotate(0) translate(4 400)">
<title>pastafarianism</title>
<polygon fill="white" stroke="transparent" points="-4,4 -4,-400 642.22,-400 642.22,4 -4,4"/>
<!-- Sequence -->
<g id="node1" class="node">
<title>Sequence</title>
<polygon fill="cyan" stroke="black" points="321.26,-370.54 321.26,-385.46 302.81,-396 276.72,-396 258.27,-385.46 258.27,-370.54 276.72,-360 302.81,-360 321.26,-370.54"/>
<text text-anchor="middle" x="289.77" y="-375.8" font-family="Times,serif" font-size="9.00">Sequence</text>
</g>
<!-- Fallback -->
<g id="node2" class="node">
<title>Fallback</title>
<polygon fill="cyan" stroke="black" points="319.01,-298.54 319.01,-313.46 301.88,-324 277.65,-324 260.52,-313.46 260.52,-298.54 277.65,-288 301.88,-288 319.01,-298.54"/>
<text text-anchor="middle" x="289.77" y="-303.8" font-family="Times,serif" font-size="9.00">Fallback</text>
</g>
<!-- Sequence&#45;&gt;Fallback -->
<g id="edge1" class="edge">
<title>Sequence&#45;&gt;Fallback</title>
<path fill="none" stroke="black" d="M289.77,-359.7C289.77,-351.98 289.77,-342.71 289.77,-334.11"/>
<polygon fill="black" stroke="black" points="293.27,-334.1 289.77,-324.1 286.27,-334.1 293.27,-334.1"/>
</g>
<!-- Sequence* -->
<g id="node3" class="node">
<title>Sequence*</title>
<polygon fill="cyan" stroke="black" points="217.01,-226.54 217.01,-241.46 196.95,-252 168.58,-252 148.52,-241.46 148.52,-226.54 168.58,-216 196.95,-216 217.01,-226.54"/>
<text text-anchor="middle" x="182.77" y="-231.8" font-family="Times,serif" font-size="9.00">Sequence*</text>
</g>
<!-- Fallback&#45;&gt;Sequence* -->
<g id="edge2" class="edge">
<title>Fallback&#45;&gt;Sequence*</title>
<path fill="none" stroke="black" d="M270.14,-292.16C253.96,-281.58 230.77,-266.4 212.34,-254.35"/>
<polygon fill="black" stroke="black" points="214.01,-251.26 203.73,-248.71 210.18,-257.12 214.01,-251.26"/>
</g>
<!-- ReachGoal?* -->
<g id="node7" class="node">
<title>ReachGoal?*</title>
<ellipse fill="gray" stroke="black" cx="289.77" cy="-234" rx="36.9" ry="18"/>
<text text-anchor="middle" x="289.77" y="-231.8" font-family="Times,serif" font-size="9.00">ReachGoal?*</text>
</g>
<!-- Fallback&#45;&gt;ReachGoal?* -->
<g id="edge6" class="edge">
<title>Fallback&#45;&gt;ReachGoal?*</title>
<path fill="none" stroke="black" d="M289.77,-287.7C289.77,-279.98 289.77,-270.71 289.77,-262.11"/>
<polygon fill="black" stroke="black" points="293.27,-262.1 289.77,-252.1 286.27,-262.1 293.27,-262.1"/>
</g>
<!-- Sequence** -->
<g id="node8" class="node">
<title>Sequence**</title>
<polygon fill="cyan" stroke="black" points="427.51,-226.54 427.51,-241.46 405.98,-252 375.55,-252 354.02,-241.46 354.02,-226.54 375.55,-216 405.98,-216 427.51,-226.54"/>
<text text-anchor="middle" x="390.77" y="-231.8" font-family="Times,serif" font-size="9.00">Sequence**</text>
</g>
<!-- Fallback&#45;&gt;Sequence** -->
<g id="edge7" class="edge">
<title>Fallback&#45;&gt;Sequence**</title>
<path fill="none" stroke="black" d="M308.76,-291.83C323.56,-281.58 344.35,-267.17 361.3,-255.42"/>
<polygon fill="black" stroke="black" points="363.54,-258.13 369.76,-249.56 359.55,-252.38 363.54,-258.13"/>
</g>
<!-- NotReadyForSG? -->
<g id="node4" class="node">
<title>NotReadyForSG?</title>
<ellipse fill="gray" stroke="black" cx="46.77" cy="-162" rx="46.53" ry="18"/>
<text text-anchor="middle" x="46.77" y="-159.8" font-family="Times,serif" font-size="9.00">NotReadyForSG?</text>
</g>
<!-- Sequence*&#45;&gt;NotReadyForSG? -->
<g id="edge3" class="edge">
<title>Sequence*&#45;&gt;NotReadyForSG?</title>
<path fill="none" stroke="black" d="M159.08,-220.81C138.11,-210.02 107.2,-194.11 83.11,-181.71"/>
<polygon fill="black" stroke="black" points="84.41,-178.44 73.92,-176.98 81.21,-184.66 84.41,-178.44"/>
</g>
<!-- ReachGoal? -->
<g id="node5" class="node">
<title>ReachGoal?</title>
<ellipse fill="gray" stroke="black" cx="145.77" cy="-162" rx="34.13" ry="18"/>
<text text-anchor="middle" x="145.77" y="-159.8" font-family="Times,serif" font-size="9.00">ReachGoal?</text>
</g>
<!-- Sequence*&#45;&gt;ReachGoal? -->
<g id="edge4" class="edge">
<title>Sequence*&#45;&gt;ReachGoal?</title>
<path fill="none" stroke="black" d="M173.62,-215.7C169.3,-207.52 164.06,-197.6 159.29,-188.58"/>
<polygon fill="black" stroke="black" points="162.32,-186.83 154.55,-179.62 156.13,-190.1 162.32,-186.83"/>
</g>
<!-- GetSubGoal! -->
<g id="node6" class="node">
<title>GetSubGoal!</title>
<ellipse fill="gray" stroke="black" cx="234.77" cy="-162" rx="36.9" ry="18"/>
<text text-anchor="middle" x="234.77" y="-159.8" font-family="Times,serif" font-size="9.00">GetSubGoal!</text>
</g>
<!-- Sequence*&#45;&gt;GetSubGoal! -->
<g id="edge5" class="edge">
<title>Sequence*&#45;&gt;GetSubGoal!</title>
<path fill="none" stroke="black" d="M195.62,-215.7C201.97,-207.14 209.75,-196.67 216.7,-187.33"/>
<polygon fill="black" stroke="black" points="219.62,-189.26 222.77,-179.14 214,-185.08 219.62,-189.26"/>
</g>
<!-- Fallback* -->
<g id="node9" class="node">
<title>Fallback*</title>
<polygon fill="cyan" stroke="black" points="353.51,-154.54 353.51,-169.46 334.91,-180 308.62,-180 290.02,-169.46 290.02,-154.54 308.62,-144 334.91,-144 353.51,-154.54"/>
<text text-anchor="middle" x="321.77" y="-159.8" font-family="Times,serif" font-size="9.00">Fallback*</text>
</g>
<!-- Sequence**&#45;&gt;Fallback* -->
<g id="edge8" class="edge">
<title>Sequence**&#45;&gt;Fallback*</title>
<path fill="none" stroke="black" d="M374.41,-216.41C365.52,-207.39 354.38,-196.09 344.64,-186.21"/>
<polygon fill="black" stroke="black" points="347.04,-183.65 337.53,-178.99 342.05,-188.57 347.04,-183.65"/>
</g>
<!-- MoveTo! -->
<g id="node20" class="node">
<title>MoveTo!</title>
<ellipse fill="gray" stroke="black" cx="400.77" cy="-162" rx="28.74" ry="18"/>
<text text-anchor="middle" x="400.77" y="-159.8" font-family="Times,serif" font-size="9.00">MoveTo!</text>
</g>
<!-- Sequence**&#45;&gt;MoveTo! -->
<g id="edge19" class="edge">
<title>Sequence**&#45;&gt;MoveTo!</title>
<path fill="none" stroke="black" d="M393.24,-215.7C394.34,-207.98 395.66,-198.71 396.89,-190.11"/>
<polygon fill="black" stroke="black" points="400.37,-190.5 398.32,-180.1 393.44,-189.51 400.37,-190.5"/>
</g>
<!-- MoveTo!* -->
<g id="node21" class="node">
<title>MoveTo!*</title>
<ellipse fill="gray" stroke="black" cx="479.77" cy="-162" rx="31.51" ry="18"/>
<text text-anchor="middle" x="479.77" y="-159.8" font-family="Times,serif" font-size="9.00">MoveTo!*</text>
</g>
<!-- Sequence**&#45;&gt;MoveTo!* -->
<g id="edge20" class="edge">
<title>Sequence**&#45;&gt;MoveTo!*</title>
<path fill="none" stroke="black" d="M410.08,-217.81C422.86,-207.75 439.79,-194.44 453.75,-183.46"/>
<polygon fill="black" stroke="black" points="456.31,-185.9 462,-176.97 451.98,-180.4 456.31,-185.9"/>
</g>
<!-- ReachGoal?** -->
<g id="node10" class="node">
<title>ReachGoal?**</title>
<ellipse fill="gray" stroke="black" cx="51.77" cy="-90" rx="39.02" ry="18"/>
<text text-anchor="middle" x="51.77" y="-87.8" font-family="Times,serif" font-size="9.00">ReachGoal?**</text>
</g>
<!-- Fallback*&#45;&gt;ReachGoal?** -->
<g id="edge9" class="edge">
<title>Fallback*&#45;&gt;ReachGoal?**</title>
<path fill="none" stroke="black" d="M297.77,-150.13C292.26,-147.89 286.37,-145.7 280.77,-144 202.28,-120.18 178.85,-129.75 99.77,-108 96.79,-107.18 93.74,-106.27 90.68,-105.31"/>
<polygon fill="black" stroke="black" points="91.59,-101.92 81,-102.11 89.39,-108.57 91.59,-101.92"/>
</g>
<!-- NotReadyForSG?* -->
<g id="node11" class="node">
<title>NotReadyForSG?*</title>
<ellipse fill="gray" stroke="black" cx="158.77" cy="-90" rx="49.8" ry="18"/>
<text text-anchor="middle" x="158.77" y="-87.8" font-family="Times,serif" font-size="9.00">NotReadyForSG?*</text>
</g>
<!-- Fallback*&#45;&gt;NotReadyForSG?* -->
<g id="edge10" class="edge">
<title>Fallback*&#45;&gt;NotReadyForSG?*</title>
<path fill="none" stroke="black" d="M297.01,-150.37C271.05,-139.22 229.85,-121.53 199.17,-108.35"/>
<polygon fill="black" stroke="black" points="200.18,-104.98 189.61,-104.25 197.42,-111.41 200.18,-104.98"/>
</g>
<!-- Sequence*** -->
<g id="node12" class="node">
<title>Sequence***</title>
<polygon fill="cyan" stroke="black" points="306.76,-82.54 306.76,-97.46 283.33,-108 250.2,-108 226.78,-97.46 226.78,-82.54 250.2,-72 283.33,-72 306.76,-82.54"/>
<text text-anchor="middle" x="266.77" y="-87.8" font-family="Times,serif" font-size="9.00">Sequence***</text>
</g>
<!-- Fallback*&#45;&gt;Sequence*** -->
<g id="edge11" class="edge">
<title>Fallback*&#45;&gt;Sequence***</title>
<path fill="none" stroke="black" d="M308.45,-144.05C301.93,-135.75 293.94,-125.58 286.71,-116.38"/>
<polygon fill="black" stroke="black" points="289.27,-113.98 280.34,-108.28 283.76,-118.3 289.27,-113.98"/>
</g>
<!-- NotReadyForSG?** -->
<g id="node17" class="node">
<title>NotReadyForSG?**</title>
<ellipse fill="gray" stroke="black" cx="376.77" cy="-90" rx="51.92" ry="18"/>
<text text-anchor="middle" x="376.77" y="-87.8" font-family="Times,serif" font-size="9.00">NotReadyForSG?**</text>
</g>
<!-- Fallback*&#45;&gt;NotReadyForSG?** -->
<g id="edge16" class="edge">
<title>Fallback*&#45;&gt;NotReadyForSG?**</title>
<path fill="none" stroke="black" d="M335.08,-144.05C341.77,-135.54 350,-125.07 357.37,-115.68"/>
<polygon fill="black" stroke="black" points="360.15,-117.81 363.57,-107.79 354.64,-113.49 360.15,-117.81"/>
</g>
<!-- GetSubGoal!** -->
<g id="node18" class="node">
<title>GetSubGoal!**</title>
<ellipse fill="gray" stroke="black" cx="488.77" cy="-90" rx="42.29" ry="18"/>
<text text-anchor="middle" x="488.77" y="-87.8" font-family="Times,serif" font-size="9.00">GetSubGoal!**</text>
</g>
<!-- Fallback*&#45;&gt;GetSubGoal!** -->
<g id="edge17" class="edge">
<title>Fallback*&#45;&gt;GetSubGoal!**</title>
<path fill="none" stroke="black" d="M346.77,-150.52C374.14,-139.04 418.38,-120.5 450.21,-107.16"/>
<polygon fill="black" stroke="black" points="451.79,-110.3 459.66,-103.2 449.08,-103.84 451.79,-110.3"/>
</g>
<!-- GetSubGoal!*** -->
<g id="node19" class="node">
<title>GetSubGoal!***</title>
<ellipse fill="gray" stroke="black" cx="593.77" cy="-90" rx="44.41" ry="18"/>
<text text-anchor="middle" x="593.77" y="-87.8" font-family="Times,serif" font-size="9.00">GetSubGoal!***</text>
</g>
<!-- Fallback*&#45;&gt;GetSubGoal!*** -->
<g id="edge18" class="edge">
<title>Fallback*&#45;&gt;GetSubGoal!***</title>
<path fill="none" stroke="black" d="M345.76,-150.15C351.28,-147.91 357.17,-145.71 362.77,-144 439.53,-120.52 462.04,-128.08 539.77,-108 543.35,-107.07 547.06,-106.05 550.77,-104.98"/>
<polygon fill="black" stroke="black" points="551.93,-108.28 560.51,-102.07 549.92,-101.58 551.93,-108.28"/>
</g>
<!-- GetLk! -->
<g id="node13" class="node">
<title>GetLk!</title>
<ellipse fill="gray" stroke="black" cx="129.77" cy="-18" rx="27" ry="18"/>
<text text-anchor="middle" x="129.77" y="-15.8" font-family="Times,serif" font-size="9.00">GetLk!</text>
</g>
<!-- Sequence***&#45;&gt;GetLk! -->
<g id="edge12" class="edge">
<title>Sequence***&#45;&gt;GetLk!</title>
<path fill="none" stroke="black" d="M241.32,-76C218.23,-64.2 184.16,-46.79 159.76,-34.32"/>
<polygon fill="black" stroke="black" points="161.09,-31.08 150.6,-29.64 157.91,-37.31 161.09,-31.08"/>
</g>
<!-- ReachGoal?*** -->
<g id="node14" class="node">
<title>ReachGoal?***</title>
<ellipse fill="gray" stroke="black" cx="216.77" cy="-18" rx="42.29" ry="18"/>
<text text-anchor="middle" x="216.77" y="-15.8" font-family="Times,serif" font-size="9.00">ReachGoal?***</text>
</g>
<!-- Sequence***&#45;&gt;ReachGoal?*** -->
<g id="edge13" class="edge">
<title>Sequence***&#45;&gt;ReachGoal?***</title>
<path fill="none" stroke="black" d="M254.41,-71.7C248.44,-63.35 241.18,-53.18 234.63,-44.02"/>
<polygon fill="black" stroke="black" points="237.3,-41.73 228.64,-35.62 231.6,-45.79 237.3,-41.73"/>
</g>
<!-- GetSubGoal!* -->
<g id="node15" class="node">
<title>GetSubGoal!*</title>
<ellipse fill="gray" stroke="black" cx="315.77" cy="-18" rx="39.02" ry="18"/>
<text text-anchor="middle" x="315.77" y="-15.8" font-family="Times,serif" font-size="9.00">GetSubGoal!*</text>
</g>
<!-- Sequence***&#45;&gt;GetSubGoal!* -->
<g id="edge14" class="edge">
<title>Sequence***&#45;&gt;GetSubGoal!*</title>
<path fill="none" stroke="black" d="M278.88,-71.7C284.72,-63.35 291.84,-53.18 298.25,-44.02"/>
<polygon fill="black" stroke="black" points="301.26,-45.82 304.13,-35.62 295.53,-41.81 301.26,-45.82"/>
</g>
<!-- GetLk!* -->
<g id="node16" class="node">
<title>GetLk!*</title>
<ellipse fill="gray" stroke="black" cx="399.77" cy="-18" rx="27.27" ry="18"/>
<text text-anchor="middle" x="399.77" y="-15.8" font-family="Times,serif" font-size="9.00">GetLk!*</text>
</g>
<!-- Sequence***&#45;&gt;GetLk!* -->
<g id="edge15" class="edge">
<title>Sequence***&#45;&gt;GetLk!*</title>
<path fill="none" stroke="black" d="M292.09,-75.67C314.22,-64.02 346.37,-47.1 369.77,-34.79"/>
<polygon fill="black" stroke="black" points="371.68,-37.74 378.9,-29.98 368.42,-31.54 371.68,-37.74"/>
</g>
</g>
</svg>
