<?xml version="1.0" encoding="UTF-8" standalone="no"?>
<!DOCTYPE svg PUBLIC "-//W3C//DTD SVG 1.1//EN"
 "http://www.w3.org/Graphics/SVG/1.1/DTD/svg11.dtd">
<!-- Generated by graphviz version 2.43.0 (0)
 -->
<!-- Title: pastafarianism Pages: 1 -->
<svg width="626pt" height="332pt"
 viewBox="0.00 0.00 626.03 332.00" xmlns="http://www.w3.org/2000/svg" xmlns:xlink="http://www.w3.org/1999/xlink">
<g id="graph0" class="graph" transform="scale(1 1) rotate(0) translate(4 328)">
<title>pastafarianism</title>
<polygon fill="white" stroke="transparent" points="-4,4 -4,-328 622.03,-328 622.03,4 -4,4"/>
<!-- Fallback -->
<g id="node1" class="node">
<title>Fallback</title>
<polygon fill="cyan" stroke="black" points="303.31,-298.54 303.31,-313.46 286.18,-324 261.95,-324 244.82,-313.46 244.82,-298.54 261.95,-288 286.18,-288 303.31,-298.54"/>
<text text-anchor="middle" x="274.06" y="-303.8" font-family="Times,serif" font-size="9.00">Fallback</text>
</g>
<!-- Sequence -->
<g id="node2" class="node">
<title>Sequence</title>
<polygon fill="cyan" stroke="black" points="176.56,-226.54 176.56,-241.46 158.11,-252 132.02,-252 113.57,-241.46 113.57,-226.54 132.02,-216 158.11,-216 176.56,-226.54"/>
<text text-anchor="middle" x="145.06" y="-231.8" font-family="Times,serif" font-size="9.00">Sequence</text>
</g>
<!-- Fallback&#45;&gt;Sequence -->
<g id="edge1" class="edge">
<title>Fallback&#45;&gt;Sequence</title>
<path fill="none" stroke="black" d="M252.76,-293.44C231.91,-282.13 199.92,-264.77 176.22,-251.91"/>
<polygon fill="black" stroke="black" points="177.72,-248.74 167.26,-247.05 174.38,-254.89 177.72,-248.74"/>
</g>
<!-- ReachGoal?* -->
<g id="node6" class="node">
<title>ReachGoal?*</title>
<ellipse fill="gray" stroke="black" cx="274.06" cy="-234" rx="36.9" ry="18"/>
<text text-anchor="middle" x="274.06" y="-231.8" font-family="Times,serif" font-size="9.00">ReachGoal?*</text>
</g>
<!-- Fallback&#45;&gt;ReachGoal?* -->
<g id="edge5" class="edge">
<title>Fallback&#45;&gt;ReachGoal?*</title>
<path fill="none" stroke="black" d="M274.06,-287.7C274.06,-279.98 274.06,-270.71 274.06,-262.11"/>
<polygon fill="black" stroke="black" points="277.56,-262.1 274.06,-252.1 270.56,-262.1 277.56,-262.1"/>
</g>
<!-- Sequence* -->
<g id="node7" class="node">
<title>Sequence*</title>
<polygon fill="cyan" stroke="black" points="419.31,-226.54 419.31,-241.46 399.25,-252 370.88,-252 350.82,-241.46 350.82,-226.54 370.88,-216 399.25,-216 419.31,-226.54"/>
<text text-anchor="middle" x="385.06" y="-231.8" font-family="Times,serif" font-size="9.00">Sequence*</text>
</g>
<!-- Fallback&#45;&gt;Sequence* -->
<g id="edge6" class="edge">
<title>Fallback&#45;&gt;Sequence*</title>
<path fill="none" stroke="black" d="M293.91,-292.49C311,-281.71 335.9,-266 355.37,-253.73"/>
<polygon fill="black" stroke="black" points="357.29,-256.65 363.88,-248.36 353.55,-250.73 357.29,-256.65"/>
</g>
<!-- ReachGoal? -->
<g id="node3" class="node">
<title>ReachGoal?</title>
<ellipse fill="gray" stroke="black" cx="34.06" cy="-162" rx="34.13" ry="18"/>
<text text-anchor="middle" x="34.06" y="-159.8" font-family="Times,serif" font-size="9.00">ReachGoal?</text>
</g>
<!-- Sequence&#45;&gt;ReachGoal? -->
<g id="edge2" class="edge">
<title>Sequence&#45;&gt;ReachGoal?</title>
<path fill="none" stroke="black" d="M124.7,-220.16C107.63,-209.39 83.02,-193.87 63.75,-181.72"/>
<polygon fill="black" stroke="black" points="65.37,-178.61 55.05,-176.23 61.64,-184.53 65.37,-178.61"/>
</g>
<!-- GetSubGoal! -->
<g id="node4" class="node">
<title>GetSubGoal!</title>
<ellipse fill="gray" stroke="black" cx="123.06" cy="-162" rx="36.9" ry="18"/>
<text text-anchor="middle" x="123.06" y="-159.8" font-family="Times,serif" font-size="9.00">GetSubGoal!</text>
</g>
<!-- Sequence&#45;&gt;GetSubGoal! -->
<g id="edge3" class="edge">
<title>Sequence&#45;&gt;GetSubGoal!</title>
<path fill="none" stroke="black" d="M139.63,-215.7C137.17,-207.9 134.22,-198.51 131.5,-189.83"/>
<polygon fill="black" stroke="black" points="134.78,-188.59 128.44,-180.1 128.1,-190.69 134.78,-188.59"/>
</g>
<!-- GetSubGoal!* -->
<g id="node5" class="node">
<title>GetSubGoal!*</title>
<ellipse fill="gray" stroke="black" cx="217.06" cy="-162" rx="39.02" ry="18"/>
<text text-anchor="middle" x="217.06" y="-159.8" font-family="Times,serif" font-size="9.00">GetSubGoal!*</text>
</g>
<!-- Sequence&#45;&gt;GetSubGoal!* -->
<g id="edge4" class="edge">
<title>Sequence&#45;&gt;GetSubGoal!*</title>
<path fill="none" stroke="black" d="M161.04,-217.46C170.64,-208.13 183.03,-196.09 193.71,-185.7"/>
<polygon fill="black" stroke="black" points="196.4,-187.97 201.13,-178.49 191.52,-182.95 196.4,-187.97"/>
</g>
<!-- Fallback* -->
<g id="node8" class="node">
<title>Fallback*</title>
<polygon fill="cyan" stroke="black" points="337.81,-154.54 337.81,-169.46 319.21,-180 292.92,-180 274.32,-169.46 274.32,-154.54 292.92,-144 319.21,-144 337.81,-154.54"/>
<text text-anchor="middle" x="306.06" y="-159.8" font-family="Times,serif" font-size="9.00">Fallback*</text>
</g>
<!-- Sequence*&#45;&gt;Fallback* -->
<g id="edge7" class="edge">
<title>Sequence*&#45;&gt;Fallback*</title>
<path fill="none" stroke="black" d="M367.53,-217.46C356.64,-207.82 342.49,-195.28 330.51,-184.66"/>
<polygon fill="black" stroke="black" points="332.81,-182.02 323.01,-178.01 328.17,-187.26 332.81,-182.02"/>
</g>
<!-- MoveTo! -->
<g id="node19" class="node">
<title>MoveTo!</title>
<ellipse fill="gray" stroke="black" cx="385.06" cy="-162" rx="28.74" ry="18"/>
<text text-anchor="middle" x="385.06" y="-159.8" font-family="Times,serif" font-size="9.00">MoveTo!</text>
</g>
<!-- Sequence*&#45;&gt;MoveTo! -->
<g id="edge18" class="edge">
<title>Sequence*&#45;&gt;MoveTo!</title>
<path fill="none" stroke="black" d="M385.06,-215.7C385.06,-207.98 385.06,-198.71 385.06,-190.11"/>
<polygon fill="black" stroke="black" points="388.56,-190.1 385.06,-180.1 381.56,-190.1 388.56,-190.1"/>
</g>
<!-- MoveTo!* -->
<g id="node20" class="node">
<title>MoveTo!*</title>
<ellipse fill="gray" stroke="black" cx="464.06" cy="-162" rx="31.51" ry="18"/>
<text text-anchor="middle" x="464.06" y="-159.8" font-family="Times,serif" font-size="9.00">MoveTo!*</text>
</g>
<!-- Sequence*&#45;&gt;MoveTo!* -->
<g id="edge19" class="edge">
<title>Sequence*&#45;&gt;MoveTo!*</title>
<path fill="none" stroke="black" d="M402.6,-217.46C413.63,-207.68 428.03,-194.93 440.11,-184.22"/>
<polygon fill="black" stroke="black" points="442.5,-186.79 447.66,-177.54 437.85,-181.55 442.5,-186.79"/>
</g>
<!-- NotReadyForSG?** -->
<g id="node21" class="node">
<title>NotReadyForSG?**</title>
<ellipse fill="gray" stroke="black" cx="566.06" cy="-162" rx="51.92" ry="18"/>
<text text-anchor="middle" x="566.06" y="-159.8" font-family="Times,serif" font-size="9.00">NotReadyForSG?**</text>
</g>
<!-- Sequence*&#45;&gt;NotReadyForSG?** -->
<g id="edge20" class="edge">
<title>Sequence*&#45;&gt;NotReadyForSG?**</title>
<path fill="none" stroke="black" d="M412.16,-222.52C441.55,-211.16 488.86,-192.86 523.28,-179.55"/>
<polygon fill="black" stroke="black" points="524.55,-182.81 532.62,-175.94 522.03,-176.28 524.55,-182.81"/>
</g>
<!-- ReachGoal?** -->
<g id="node9" class="node">
<title>ReachGoal?**</title>
<ellipse fill="gray" stroke="black" cx="100.06" cy="-90" rx="39.02" ry="18"/>
<text text-anchor="middle" x="100.06" y="-87.8" font-family="Times,serif" font-size="9.00">ReachGoal?**</text>
</g>
<!-- Fallback*&#45;&gt;ReachGoal?** -->
<g id="edge8" class="edge">
<title>Fallback*&#45;&gt;ReachGoal?**</title>
<path fill="none" stroke="black" d="M281.5,-150.37C276.12,-148.17 270.43,-145.93 265.06,-144 213.88,-125.56 199.72,-125.09 148.06,-108 145.31,-107.09 142.47,-106.13 139.62,-105.16"/>
<polygon fill="black" stroke="black" points="140.55,-101.77 129.96,-101.8 138.26,-108.39 140.55,-101.77"/>
</g>
<!-- NotReadyForSG? -->
<g id="node10" class="node">
<title>NotReadyForSG?</title>
<ellipse fill="gray" stroke="black" cx="204.06" cy="-90" rx="46.53" ry="18"/>
<text text-anchor="middle" x="204.06" y="-87.8" font-family="Times,serif" font-size="9.00">NotReadyForSG?</text>
</g>
<!-- Fallback*&#45;&gt;NotReadyForSG? -->
<g id="edge9" class="edge">
<title>Fallback*&#45;&gt;NotReadyForSG?</title>
<path fill="none" stroke="black" d="M286.4,-147.5C271.71,-137.42 251.35,-123.45 234.56,-111.93"/>
<polygon fill="black" stroke="black" points="236.37,-108.93 226.15,-106.16 232.41,-114.7 236.37,-108.93"/>
</g>
<!-- Sequence** -->
<g id="node11" class="node">
<title>Sequence**</title>
<polygon fill="cyan" stroke="black" points="342.8,-82.54 342.8,-97.46 321.28,-108 290.85,-108 269.32,-97.46 269.32,-82.54 290.85,-72 321.28,-72 342.8,-82.54"/>
<text text-anchor="middle" x="306.06" y="-87.8" font-family="Times,serif" font-size="9.00">Sequence**</text>
</g>
<!-- Fallback*&#45;&gt;Sequence** -->
<g id="edge10" class="edge">
<title>Fallback*&#45;&gt;Sequence**</title>
<path fill="none" stroke="black" d="M306.06,-143.7C306.06,-135.98 306.06,-126.71 306.06,-118.11"/>
<polygon fill="black" stroke="black" points="309.56,-118.1 306.06,-108.1 302.56,-118.1 309.56,-118.1"/>
</g>
<!-- GetSubGoal!*** -->
<g id="node17" class="node">
<title>GetSubGoal!***</title>
<ellipse fill="gray" stroke="black" cx="405.06" cy="-90" rx="44.41" ry="18"/>
<text text-anchor="middle" x="405.06" y="-87.8" font-family="Times,serif" font-size="9.00">GetSubGoal!***</text>
</g>
<!-- Fallback*&#45;&gt;GetSubGoal!*** -->
<g id="edge16" class="edge">
<title>Fallback*&#45;&gt;GetSubGoal!***</title>
<path fill="none" stroke="black" d="M325.62,-147.17C339.79,-137.15 359.2,-123.43 375.29,-112.05"/>
<polygon fill="black" stroke="black" points="377.69,-114.64 383.83,-106.01 373.65,-108.93 377.69,-114.64"/>
</g>
<!-- NotReadyForSG?* -->
<g id="node18" class="node">
<title>NotReadyForSG?*</title>
<ellipse fill="gray" stroke="black" cx="517.06" cy="-90" rx="49.8" ry="18"/>
<text text-anchor="middle" x="517.06" y="-87.8" font-family="Times,serif" font-size="9.00">NotReadyForSG?*</text>
</g>
<!-- Fallback*&#45;&gt;NotReadyForSG?* -->
<g id="edge17" class="edge">
<title>Fallback*&#45;&gt;NotReadyForSG?*</title>
<path fill="none" stroke="black" d="M330.64,-150.39C336.02,-148.18 341.7,-145.94 347.06,-144 369.8,-135.76 428.24,-117.8 470.26,-105.07"/>
<polygon fill="black" stroke="black" points="471.46,-108.36 480.02,-102.12 469.43,-101.66 471.46,-108.36"/>
</g>
<!-- ReachGoal?*** -->
<g id="node12" class="node">
<title>ReachGoal?***</title>
<ellipse fill="gray" stroke="black" cx="130.06" cy="-18" rx="42.29" ry="18"/>
<text text-anchor="middle" x="130.06" y="-15.8" font-family="Times,serif" font-size="9.00">ReachGoal?***</text>
</g>
<!-- Sequence**&#45;&gt;ReachGoal?*** -->
<g id="edge11" class="edge">
<title>Sequence**&#45;&gt;ReachGoal?***</title>
<path fill="none" stroke="black" d="M278.18,-77.91C248.8,-66.22 202.3,-47.73 169.25,-34.58"/>
<polygon fill="black" stroke="black" points="170.47,-31.3 159.88,-30.86 167.88,-37.81 170.47,-31.3"/>
</g>
<!-- GetLk! -->
<g id="node13" class="node">
<title>GetLk!</title>
<ellipse fill="gray" stroke="black" cx="217.06" cy="-18" rx="27" ry="18"/>
<text text-anchor="middle" x="217.06" y="-15.8" font-family="Times,serif" font-size="9.00">GetLk!</text>
</g>
<!-- Sequence**&#45;&gt;GetLk! -->
<g id="edge12" class="edge">
<title>Sequence**&#45;&gt;GetLk!</title>
<path fill="none" stroke="black" d="M286.75,-73.81C273.59,-63.46 256.04,-49.66 241.85,-38.49"/>
<polygon fill="black" stroke="black" points="243.96,-35.7 233.94,-32.27 239.63,-41.21 243.96,-35.7"/>
</g>
<!-- ReachGoal?**** -->
<g id="node14" class="node">
<title>ReachGoal?****</title>
<ellipse fill="gray" stroke="black" cx="306.06" cy="-18" rx="44.41" ry="18"/>
<text text-anchor="middle" x="306.06" y="-15.8" font-family="Times,serif" font-size="9.00">ReachGoal?****</text>
</g>
<!-- Sequence**&#45;&gt;ReachGoal?**** -->
<g id="edge13" class="edge">
<title>Sequence**&#45;&gt;ReachGoal?****</title>
<path fill="none" stroke="black" d="M306.06,-71.7C306.06,-63.98 306.06,-54.71 306.06,-46.11"/>
<polygon fill="black" stroke="black" points="309.56,-46.1 306.06,-36.1 302.56,-46.1 309.56,-46.1"/>
</g>
<!-- GetSubGoal!** -->
<g id="node15" class="node">
<title>GetSubGoal!**</title>
<ellipse fill="gray" stroke="black" cx="411.06" cy="-18" rx="42.29" ry="18"/>
<text text-anchor="middle" x="411.06" y="-15.8" font-family="Times,serif" font-size="9.00">GetSubGoal!**</text>
</g>
<!-- Sequence**&#45;&gt;GetSubGoal!** -->
<g id="edge14" class="edge">
<title>Sequence**&#45;&gt;GetSubGoal!**</title>
<path fill="none" stroke="black" d="M327.31,-74.83C342.62,-64.63 363.5,-50.71 380.59,-39.32"/>
<polygon fill="black" stroke="black" points="382.75,-42.09 389.12,-33.63 378.86,-36.26 382.75,-42.09"/>
</g>
<!-- LkClose? -->
<g id="node16" class="node">
<title>LkClose?</title>
<ellipse fill="gray" stroke="black" cx="500.06" cy="-18" rx="28.74" ry="18"/>
<text text-anchor="middle" x="500.06" y="-15.8" font-family="Times,serif" font-size="9.00">LkClose?</text>
</g>
<!-- Sequence**&#45;&gt;LkClose? -->
<g id="edge15" class="edge">
<title>Sequence**&#45;&gt;LkClose?</title>
<path fill="none" stroke="black" d="M334.71,-78.22C340.45,-76.12 346.44,-73.96 352.06,-72 400.64,-55.08 414.08,-54.53 462.06,-36 464.15,-35.2 466.28,-34.34 468.42,-33.45"/>
<polygon fill="black" stroke="black" points="469.91,-36.62 477.72,-29.46 467.15,-30.19 469.91,-36.62"/>
</g>
</g>
</svg>
