<?xml version="1.0" encoding="UTF-8" standalone="no"?>
<!DOCTYPE svg PUBLIC "-//W3C//DTD SVG 1.1//EN"
 "http://www.w3.org/Graphics/SVG/1.1/DTD/svg11.dtd">
<!-- Generated by graphviz version 2.43.0 (0)
 -->
<!-- Title: pastafarianism Pages: 1 -->
<svg width="517pt" height="404pt"
 viewBox="0.00 0.00 516.72 404.00" xmlns="http://www.w3.org/2000/svg" xmlns:xlink="http://www.w3.org/1999/xlink">
<g id="graph0" class="graph" transform="scale(1 1) rotate(0) translate(4 400)">
<title>pastafarianism</title>
<polygon fill="white" stroke="transparent" points="-4,4 -4,-400 512.72,-400 512.72,4 -4,4"/>
<!-- Fallback -->
<g id="node1" class="node">
<title>Fallback</title>
<polygon fill="cyan" stroke="black" points="340.01,-370.54 340.01,-385.46 322.88,-396 298.65,-396 281.52,-385.46 281.52,-370.54 298.65,-360 322.88,-360 340.01,-370.54"/>
<text text-anchor="middle" x="310.77" y="-375.8" font-family="Times,serif" font-size="9.00">Fallback</text>
</g>
<!-- Sequence -->
<g id="node2" class="node">
<title>Sequence</title>
<polygon fill="cyan" stroke="black" points="196.26,-298.54 196.26,-313.46 177.81,-324 151.72,-324 133.27,-313.46 133.27,-298.54 151.72,-288 177.81,-288 196.26,-298.54"/>
<text text-anchor="middle" x="164.77" y="-303.8" font-family="Times,serif" font-size="9.00">Sequence</text>
</g>
<!-- Fallback&#45;&gt;Sequence -->
<g id="edge1" class="edge">
<title>Fallback&#45;&gt;Sequence</title>
<path fill="none" stroke="black" d="M288.27,-366.22C264.09,-354.62 225.4,-336.07 197.77,-322.82"/>
<polygon fill="black" stroke="black" points="199.03,-319.54 188.5,-318.38 196,-325.86 199.03,-319.54"/>
</g>
<!-- GetLk! -->
<g id="node13" class="node">
<title>GetLk!</title>
<ellipse fill="gray" stroke="black" cx="269.77" cy="-306" rx="27" ry="18"/>
<text text-anchor="middle" x="269.77" y="-303.8" font-family="Times,serif" font-size="9.00">GetLk!</text>
</g>
<!-- Fallback&#45;&gt;GetLk! -->
<g id="edge12" class="edge">
<title>Fallback&#45;&gt;GetLk!</title>
<path fill="none" stroke="black" d="M300.63,-359.7C295.72,-351.32 289.74,-341.1 284.35,-331.9"/>
<polygon fill="black" stroke="black" points="287.3,-330 279.22,-323.14 281.26,-333.54 287.3,-330"/>
</g>
<!-- Sequence** -->
<g id="node14" class="node">
<title>Sequence**</title>
<polygon fill="cyan" stroke="black" points="388.51,-298.54 388.51,-313.46 366.98,-324 336.55,-324 315.02,-313.46 315.02,-298.54 336.55,-288 366.98,-288 388.51,-298.54"/>
<text text-anchor="middle" x="351.77" y="-303.8" font-family="Times,serif" font-size="9.00">Sequence**</text>
</g>
<!-- Fallback&#45;&gt;Sequence** -->
<g id="edge13" class="edge">
<title>Fallback&#45;&gt;Sequence**</title>
<path fill="none" stroke="black" d="M320.9,-359.7C325.62,-351.64 331.33,-341.89 336.55,-332.98"/>
<polygon fill="black" stroke="black" points="339.71,-334.5 341.75,-324.1 333.67,-330.96 339.71,-334.5"/>
</g>
<!-- GetLk!** -->
<g id="node20" class="node">
<title>GetLk!**</title>
<ellipse fill="gray" stroke="black" cx="435.77" cy="-306" rx="29.39" ry="18"/>
<text text-anchor="middle" x="435.77" y="-303.8" font-family="Times,serif" font-size="9.00">GetLk!**</text>
</g>
<!-- Fallback&#45;&gt;GetLk!** -->
<g id="edge19" class="edge">
<title>Fallback&#45;&gt;GetLk!**</title>
<path fill="none" stroke="black" d="M331.69,-365.28C351.97,-353.93 382.94,-336.58 405.82,-323.77"/>
<polygon fill="black" stroke="black" points="407.76,-326.69 414.77,-318.75 404.34,-320.59 407.76,-326.69"/>
</g>
<!-- ReachGoal? -->
<g id="node3" class="node">
<title>ReachGoal?</title>
<ellipse fill="gray" stroke="black" cx="80.77" cy="-234" rx="34.13" ry="18"/>
<text text-anchor="middle" x="80.77" y="-231.8" font-family="Times,serif" font-size="9.00">ReachGoal?</text>
</g>
<!-- Sequence&#45;&gt;ReachGoal? -->
<g id="edge2" class="edge">
<title>Sequence&#45;&gt;ReachGoal?</title>
<path fill="none" stroke="black" d="M146.95,-290.15C135.07,-280.25 119.26,-267.08 106.08,-256.09"/>
<polygon fill="black" stroke="black" points="108.19,-253.3 98.27,-249.58 103.71,-258.67 108.19,-253.3"/>
</g>
<!-- Fallback* -->
<g id="node4" class="node">
<title>Fallback*</title>
<polygon fill="cyan" stroke="black" points="196.51,-226.54 196.51,-241.46 177.91,-252 151.62,-252 133.02,-241.46 133.02,-226.54 151.62,-216 177.91,-216 196.51,-226.54"/>
<text text-anchor="middle" x="164.77" y="-231.8" font-family="Times,serif" font-size="9.00">Fallback*</text>
</g>
<!-- Sequence&#45;&gt;Fallback* -->
<g id="edge3" class="edge">
<title>Sequence&#45;&gt;Fallback*</title>
<path fill="none" stroke="black" d="M164.77,-287.7C164.77,-279.98 164.77,-270.71 164.77,-262.11"/>
<polygon fill="black" stroke="black" points="168.27,-262.1 164.77,-252.1 161.27,-262.1 168.27,-262.1"/>
</g>
<!-- ReachGoal?* -->
<g id="node5" class="node">
<title>ReachGoal?*</title>
<ellipse fill="gray" stroke="black" cx="61.77" cy="-162" rx="36.9" ry="18"/>
<text text-anchor="middle" x="61.77" y="-159.8" font-family="Times,serif" font-size="9.00">ReachGoal?*</text>
</g>
<!-- Fallback*&#45;&gt;ReachGoal?* -->
<g id="edge4" class="edge">
<title>Fallback*&#45;&gt;ReachGoal?*</title>
<path fill="none" stroke="black" d="M144.91,-219.5C129.67,-209.15 108.41,-194.7 91.2,-183"/>
<polygon fill="black" stroke="black" points="92.86,-179.9 82.62,-177.18 88.93,-185.69 92.86,-179.9"/>
</g>
<!-- Sequence* -->
<g id="node6" class="node">
<title>Sequence*</title>
<polygon fill="cyan" stroke="black" points="185.01,-154.54 185.01,-169.46 164.95,-180 136.58,-180 116.52,-169.46 116.52,-154.54 136.58,-144 164.95,-144 185.01,-154.54"/>
<text text-anchor="middle" x="150.77" y="-159.8" font-family="Times,serif" font-size="9.00">Sequence*</text>
</g>
<!-- Fallback*&#45;&gt;Sequence* -->
<g id="edge5" class="edge">
<title>Fallback*&#45;&gt;Sequence*</title>
<path fill="none" stroke="black" d="M161.3,-215.7C159.76,-207.98 157.91,-198.71 156.19,-190.11"/>
<polygon fill="black" stroke="black" points="159.58,-189.22 154.19,-180.1 152.72,-190.6 159.58,-189.22"/>
</g>
<!-- CompLkGraph!** -->
<g id="node12" class="node">
<title>CompLkGraph!**</title>
<ellipse fill="gray" stroke="black" cx="250.77" cy="-162" rx="47.84" ry="18"/>
<text text-anchor="middle" x="250.77" y="-159.8" font-family="Times,serif" font-size="9.00">CompLkGraph!**</text>
</g>
<!-- Fallback*&#45;&gt;CompLkGraph!** -->
<g id="edge11" class="edge">
<title>Fallback*&#45;&gt;CompLkGraph!**</title>
<path fill="none" stroke="black" d="M182.58,-218.5C194.4,-208.88 210.13,-196.07 223.51,-185.19"/>
<polygon fill="black" stroke="black" points="225.93,-187.73 231.47,-178.7 221.51,-182.3 225.93,-187.73"/>
</g>
<!-- NotReadyForSG? -->
<g id="node7" class="node">
<title>NotReadyForSG?</title>
<ellipse fill="gray" stroke="black" cx="46.77" cy="-90" rx="46.53" ry="18"/>
<text text-anchor="middle" x="46.77" y="-87.8" font-family="Times,serif" font-size="9.00">NotReadyForSG?</text>
</g>
<!-- Sequence*&#45;&gt;NotReadyForSG? -->
<g id="edge6" class="edge">
<title>Sequence*&#45;&gt;NotReadyForSG?</title>
<path fill="none" stroke="black" d="M130.22,-147.17C115.2,-137.06 94.56,-123.17 77.57,-111.74"/>
<polygon fill="black" stroke="black" points="79.32,-108.69 69.07,-106.01 75.41,-114.5 79.32,-108.69"/>
</g>
<!-- ReachGoal?** -->
<g id="node8" class="node">
<title>ReachGoal?**</title>
<ellipse fill="gray" stroke="black" cx="150.77" cy="-90" rx="39.02" ry="18"/>
<text text-anchor="middle" x="150.77" y="-87.8" font-family="Times,serif" font-size="9.00">ReachGoal?**</text>
</g>
<!-- Sequence*&#45;&gt;ReachGoal?** -->
<g id="edge7" class="edge">
<title>Sequence*&#45;&gt;ReachGoal?**</title>
<path fill="none" stroke="black" d="M150.77,-143.7C150.77,-135.98 150.77,-126.71 150.77,-118.11"/>
<polygon fill="black" stroke="black" points="154.27,-118.1 150.77,-108.1 147.27,-118.1 154.27,-118.1"/>
</g>
<!-- Fallback** -->
<g id="node9" class="node">
<title>Fallback**</title>
<polygon fill="cyan" stroke="black" points="277.76,-82.54 277.76,-97.46 257.26,-108 228.27,-108 207.77,-97.46 207.77,-82.54 228.27,-72 257.26,-72 277.76,-82.54"/>
<text text-anchor="middle" x="242.77" y="-87.8" font-family="Times,serif" font-size="9.00">Fallback**</text>
</g>
<!-- Sequence*&#45;&gt;Fallback** -->
<g id="edge8" class="edge">
<title>Sequence*&#45;&gt;Fallback**</title>
<path fill="none" stroke="black" d="M169.83,-146.5C182.94,-136.52 200.56,-123.11 215.19,-111.98"/>
<polygon fill="black" stroke="black" points="217.57,-114.57 223.41,-105.73 213.33,-109 217.57,-114.57"/>
</g>
<!-- CompLkGraph! -->
<g id="node10" class="node">
<title>CompLkGraph!</title>
<ellipse fill="gray" stroke="black" cx="189.77" cy="-18" rx="42.95" ry="18"/>
<text text-anchor="middle" x="189.77" y="-15.8" font-family="Times,serif" font-size="9.00">CompLkGraph!</text>
</g>
<!-- Fallback**&#45;&gt;CompLkGraph! -->
<g id="edge9" class="edge">
<title>Fallback**&#45;&gt;CompLkGraph!</title>
<path fill="none" stroke="black" d="M229.66,-71.7C223.28,-63.27 215.49,-52.97 208.49,-43.73"/>
<polygon fill="black" stroke="black" points="211.18,-41.48 202.35,-35.62 205.6,-45.71 211.18,-41.48"/>
</g>
<!-- CompLkGraph!* -->
<g id="node11" class="node">
<title>CompLkGraph!*</title>
<ellipse fill="gray" stroke="black" cx="295.77" cy="-18" rx="45.07" ry="18"/>
<text text-anchor="middle" x="295.77" y="-15.8" font-family="Times,serif" font-size="9.00">CompLkGraph!*</text>
</g>
<!-- Fallback**&#45;&gt;CompLkGraph!* -->
<g id="edge10" class="edge">
<title>Fallback**&#45;&gt;CompLkGraph!*</title>
<path fill="none" stroke="black" d="M255.87,-71.7C262.25,-63.27 270.04,-52.97 277.04,-43.73"/>
<polygon fill="black" stroke="black" points="279.93,-45.71 283.18,-35.62 274.35,-41.48 279.93,-45.71"/>
</g>
<!-- GetLk!* -->
<g id="node15" class="node">
<title>GetLk!*</title>
<ellipse fill="gray" stroke="black" cx="283.77" cy="-234" rx="27.27" ry="18"/>
<text text-anchor="middle" x="283.77" y="-231.8" font-family="Times,serif" font-size="9.00">GetLk!*</text>
</g>
<!-- Sequence**&#45;&gt;GetLk!* -->
<g id="edge14" class="edge">
<title>Sequence**&#45;&gt;GetLk!*</title>
<path fill="none" stroke="black" d="M335.65,-288.41C326.51,-279 314.96,-267.12 305.08,-256.94"/>
<polygon fill="black" stroke="black" points="307.4,-254.3 297.92,-249.57 302.38,-259.18 307.4,-254.3"/>
</g>
<!-- Fallback*** -->
<g id="node16" class="node">
<title>Fallback***</title>
<polygon fill="cyan" stroke="black" points="404.26,-226.54 404.26,-241.46 382.29,-252 351.24,-252 329.28,-241.46 329.28,-226.54 351.24,-216 382.29,-216 404.26,-226.54"/>
<text text-anchor="middle" x="366.77" y="-231.8" font-family="Times,serif" font-size="9.00">Fallback***</text>
</g>
<!-- Sequence**&#45;&gt;Fallback*** -->
<g id="edge15" class="edge">
<title>Sequence**&#45;&gt;Fallback***</title>
<path fill="none" stroke="black" d="M355.47,-287.7C357.13,-279.98 359.11,-270.71 360.96,-262.11"/>
<polygon fill="black" stroke="black" points="364.43,-262.62 363.1,-252.1 357.58,-261.15 364.43,-262.62"/>
</g>
<!-- MoveTo! -->
<g id="node19" class="node">
<title>MoveTo!</title>
<ellipse fill="gray" stroke="black" cx="450.77" cy="-234" rx="28.74" ry="18"/>
<text text-anchor="middle" x="450.77" y="-231.8" font-family="Times,serif" font-size="9.00">MoveTo!</text>
</g>
<!-- Sequence**&#45;&gt;MoveTo! -->
<g id="edge18" class="edge">
<title>Sequence**&#45;&gt;MoveTo!</title>
<path fill="none" stroke="black" d="M372.28,-290.5C387.19,-279.95 407.51,-265.58 423.75,-254.1"/>
<polygon fill="black" stroke="black" points="426.14,-256.7 432.28,-248.07 422.1,-250.98 426.14,-256.7"/>
</g>
<!-- NotReadyForSG?* -->
<g id="node17" class="node">
<title>NotReadyForSG?*</title>
<ellipse fill="gray" stroke="black" cx="366.77" cy="-162" rx="49.8" ry="18"/>
<text text-anchor="middle" x="366.77" y="-159.8" font-family="Times,serif" font-size="9.00">NotReadyForSG?*</text>
</g>
<!-- Fallback***&#45;&gt;NotReadyForSG?* -->
<g id="edge16" class="edge">
<title>Fallback***&#45;&gt;NotReadyForSG?*</title>
<path fill="none" stroke="black" d="M366.77,-215.7C366.77,-207.98 366.77,-198.71 366.77,-190.11"/>
<polygon fill="black" stroke="black" points="370.27,-190.1 366.77,-180.1 363.27,-190.1 370.27,-190.1"/>
</g>
<!-- GetSubGoal! -->
<g id="node18" class="node">
<title>GetSubGoal!</title>
<ellipse fill="gray" stroke="black" cx="471.77" cy="-162" rx="36.9" ry="18"/>
<text text-anchor="middle" x="471.77" y="-159.8" font-family="Times,serif" font-size="9.00">GetSubGoal!</text>
</g>
<!-- Fallback***&#45;&gt;GetSubGoal! -->
<g id="edge17" class="edge">
<title>Fallback***&#45;&gt;GetSubGoal!</title>
<path fill="none" stroke="black" d="M388.27,-218.67C403.8,-208.31 424.97,-194.2 442.11,-182.77"/>
<polygon fill="black" stroke="black" points="444.27,-185.54 450.65,-177.08 440.39,-179.71 444.27,-185.54"/>
</g>
</g>
</svg>
