<?xml version="1.0" encoding="UTF-8" standalone="no"?>
<!DOCTYPE svg PUBLIC "-//W3C//DTD SVG 1.1//EN"
 "http://www.w3.org/Graphics/SVG/1.1/DTD/svg11.dtd">
<!-- Generated by graphviz version 2.43.0 (0)
 -->
<!-- Title: pastafarianism Pages: 1 -->
<svg width="1283pt" height="260pt"
 viewBox="0.00 0.00 1282.95 260.00" xmlns="http://www.w3.org/2000/svg" xmlns:xlink="http://www.w3.org/1999/xlink">
<g id="graph0" class="graph" transform="scale(1 1) rotate(0) translate(4 256)">
<title>pastafarianism</title>
<polygon fill="white" stroke="transparent" points="-4,4 -4,-256 1278.95,-256 1278.95,4 -4,4"/>
<!-- Fallback -->
<g id="node1" class="node">
<title>Fallback</title>
<polygon fill="cyan" stroke="black" points="451.24,-226.54 451.24,-241.46 434.11,-252 409.89,-252 392.76,-241.46 392.76,-226.54 409.89,-216 434.11,-216 451.24,-226.54"/>
<text text-anchor="middle" x="422" y="-231.8" font-family="Times,serif" font-size="9.00">Fallback</text>
</g>
<!-- Sequence -->
<g id="node2" class="node">
<title>Sequence</title>
<polygon fill="cyan" stroke="black" points="374.49,-154.54 374.49,-169.46 356.05,-180 329.95,-180 311.51,-169.46 311.51,-154.54 329.95,-144 356.05,-144 374.49,-154.54"/>
<text text-anchor="middle" x="343" y="-159.8" font-family="Times,serif" font-size="9.00">Sequence</text>
</g>
<!-- Fallback&#45;&gt;Sequence -->
<g id="edge1" class="edge">
<title>Fallback&#45;&gt;Sequence</title>
<path fill="none" stroke="black" d="M405.63,-218.5C394.66,-208.77 380.01,-195.79 367.63,-184.83"/>
<polygon fill="black" stroke="black" points="369.7,-181.98 359.89,-177.97 365.06,-187.22 369.7,-181.98"/>
</g>
<!-- GetLk!** -->
<g id="node23" class="node">
<title>GetLk!**</title>
<ellipse fill="gray" stroke="black" cx="422" cy="-162" rx="29.39" ry="18"/>
<text text-anchor="middle" x="422" y="-159.8" font-family="Times,serif" font-size="9.00">GetLk!**</text>
</g>
<!-- Fallback&#45;&gt;GetLk!** -->
<g id="edge22" class="edge">
<title>Fallback&#45;&gt;GetLk!**</title>
<path fill="none" stroke="black" d="M422,-215.7C422,-207.98 422,-198.71 422,-190.11"/>
<polygon fill="black" stroke="black" points="425.5,-190.1 422,-180.1 418.5,-190.1 425.5,-190.1"/>
</g>
<!-- CompLkGraph!** -->
<g id="node24" class="node">
<title>CompLkGraph!**</title>
<ellipse fill="gray" stroke="black" cx="517" cy="-162" rx="47.84" ry="18"/>
<text text-anchor="middle" x="517" y="-159.8" font-family="Times,serif" font-size="9.00">CompLkGraph!**</text>
</g>
<!-- Fallback&#45;&gt;CompLkGraph!** -->
<g id="edge23" class="edge">
<title>Fallback&#45;&gt;CompLkGraph!**</title>
<path fill="none" stroke="black" d="M440.32,-219.5C453.78,-209.58 472.36,-195.89 487.85,-184.48"/>
<polygon fill="black" stroke="black" points="490.12,-187.15 496.09,-178.41 485.97,-181.52 490.12,-187.15"/>
</g>
<!-- GetLk! -->
<g id="node3" class="node">
<title>GetLk!</title>
<ellipse fill="gray" stroke="black" cx="27" cy="-90" rx="27" ry="18"/>
<text text-anchor="middle" x="27" y="-87.8" font-family="Times,serif" font-size="9.00">GetLk!</text>
</g>
<!-- Sequence&#45;&gt;GetLk! -->
<g id="edge2" class="edge">
<title>Sequence&#45;&gt;GetLk!</title>
<path fill="none" stroke="black" d="M311.7,-157.71C259.25,-151.61 150.75,-136.51 63,-108 61.08,-107.38 59.12,-106.67 57.17,-105.91"/>
<polygon fill="black" stroke="black" points="58.14,-102.52 47.57,-101.81 55.39,-108.96 58.14,-102.52"/>
</g>
<!-- Fallback* -->
<g id="node4" class="node">
<title>Fallback*</title>
<polygon fill="cyan" stroke="black" points="135.74,-82.54 135.74,-97.46 117.15,-108 90.85,-108 72.26,-97.46 72.26,-82.54 90.85,-72 117.15,-72 135.74,-82.54"/>
<text text-anchor="middle" x="104" y="-87.8" font-family="Times,serif" font-size="9.00">Fallback*</text>
</g>
<!-- Sequence&#45;&gt;Fallback* -->
<g id="edge3" class="edge">
<title>Sequence&#45;&gt;Fallback*</title>
<path fill="none" stroke="black" d="M312.1,-154.06C272.82,-144.94 203.13,-127.73 145,-108 142.72,-107.23 140.39,-106.39 138.05,-105.51"/>
<polygon fill="black" stroke="black" points="139.1,-102.17 128.52,-101.78 136.55,-108.69 139.1,-102.17"/>
</g>
<!-- MoveTo! -->
<g id="node7" class="node">
<title>MoveTo!</title>
<ellipse fill="gray" stroke="black" cx="183" cy="-90" rx="28.74" ry="18"/>
<text text-anchor="middle" x="183" y="-87.8" font-family="Times,serif" font-size="9.00">MoveTo!</text>
</g>
<!-- Sequence&#45;&gt;MoveTo! -->
<g id="edge6" class="edge">
<title>Sequence&#45;&gt;MoveTo!</title>
<path fill="none" stroke="black" d="M318.2,-150.32C293.52,-139.67 254.6,-122.81 221,-108 219.16,-107.19 217.28,-106.36 215.38,-105.51"/>
<polygon fill="black" stroke="black" points="216.45,-102.16 205.89,-101.29 213.6,-108.55 216.45,-102.16"/>
</g>
<!-- ReachGoal? -->
<g id="node8" class="node">
<title>ReachGoal?</title>
<ellipse fill="gray" stroke="black" cx="264" cy="-90" rx="34.13" ry="18"/>
<text text-anchor="middle" x="264" y="-87.8" font-family="Times,serif" font-size="9.00">ReachGoal?</text>
</g>
<!-- Sequence&#45;&gt;ReachGoal? -->
<g id="edge7" class="edge">
<title>Sequence&#45;&gt;ReachGoal?</title>
<path fill="none" stroke="black" d="M325.86,-145.81C314.91,-136.11 300.55,-123.39 288.43,-112.64"/>
<polygon fill="black" stroke="black" points="290.64,-109.93 280.84,-105.92 286,-115.17 290.64,-109.93"/>
</g>
<!-- GetLk!* -->
<g id="node9" class="node">
<title>GetLk!*</title>
<ellipse fill="gray" stroke="black" cx="343" cy="-90" rx="27.27" ry="18"/>
<text text-anchor="middle" x="343" y="-87.8" font-family="Times,serif" font-size="9.00">GetLk!*</text>
</g>
<!-- Sequence&#45;&gt;GetLk!* -->
<g id="edge8" class="edge">
<title>Sequence&#45;&gt;GetLk!*</title>
<path fill="none" stroke="black" d="M343,-143.7C343,-135.98 343,-126.71 343,-118.11"/>
<polygon fill="black" stroke="black" points="346.5,-118.1 343,-108.1 339.5,-118.1 346.5,-118.1"/>
</g>
<!-- CompLkGraph! -->
<g id="node10" class="node">
<title>CompLkGraph!</title>
<ellipse fill="gray" stroke="black" cx="431" cy="-90" rx="42.95" ry="18"/>
<text text-anchor="middle" x="431" y="-87.8" font-family="Times,serif" font-size="9.00">CompLkGraph!</text>
</g>
<!-- Sequence&#45;&gt;CompLkGraph! -->
<g id="edge9" class="edge">
<title>Sequence&#45;&gt;CompLkGraph!</title>
<path fill="none" stroke="black" d="M361.23,-146.5C373.49,-136.75 389.87,-123.72 403.67,-112.74"/>
<polygon fill="black" stroke="black" points="406.23,-115.18 411.88,-106.21 401.87,-109.7 406.23,-115.18"/>
</g>
<!-- Fallback** -->
<g id="node11" class="node">
<title>Fallback**</title>
<polygon fill="cyan" stroke="black" points="561.99,-82.54 561.99,-97.46 541.49,-108 512.51,-108 492.01,-97.46 492.01,-82.54 512.51,-72 541.49,-72 561.99,-82.54"/>
<text text-anchor="middle" x="527" y="-87.8" font-family="Times,serif" font-size="9.00">Fallback**</text>
</g>
<!-- Sequence&#45;&gt;Fallback** -->
<g id="edge10" class="edge">
<title>Sequence&#45;&gt;Fallback**</title>
<path fill="none" stroke="black" d="M367.64,-150.57C373.02,-148.36 378.69,-146.07 384,-144 427.63,-127.03 439.16,-124.44 483,-108 485.35,-107.12 487.76,-106.21 490.2,-105.28"/>
<polygon fill="black" stroke="black" points="491.48,-108.54 499.57,-101.69 488.98,-102 491.48,-108.54"/>
</g>
<!-- CompLkGraph!* -->
<g id="node15" class="node">
<title>CompLkGraph!*</title>
<ellipse fill="gray" stroke="black" cx="625" cy="-90" rx="45.07" ry="18"/>
<text text-anchor="middle" x="625" y="-87.8" font-family="Times,serif" font-size="9.00">CompLkGraph!*</text>
</g>
<!-- Sequence&#45;&gt;CompLkGraph!* -->
<g id="edge14" class="edge">
<title>Sequence&#45;&gt;CompLkGraph!*</title>
<path fill="none" stroke="black" d="M366.99,-150.1C372.5,-147.87 378.39,-145.68 384,-144 465.06,-119.67 488.94,-128.74 571,-108 574.54,-107.1 578.2,-106.11 581.85,-105.06"/>
<polygon fill="black" stroke="black" points="582.88,-108.41 591.47,-102.21 580.89,-101.7 582.88,-108.41"/>
</g>
<!-- Fallback*** -->
<g id="node16" class="node">
<title>Fallback***</title>
<polygon fill="cyan" stroke="black" points="961.49,-82.54 961.49,-97.46 939.53,-108 908.47,-108 886.51,-97.46 886.51,-82.54 908.47,-72 939.53,-72 961.49,-82.54"/>
<text text-anchor="middle" x="924" y="-87.8" font-family="Times,serif" font-size="9.00">Fallback***</text>
</g>
<!-- Sequence&#45;&gt;Fallback*** -->
<g id="edge15" class="edge">
<title>Sequence&#45;&gt;Fallback***</title>
<path fill="none" stroke="black" d="M366.44,-149.89C372.09,-147.61 378.17,-145.46 384,-144 476.82,-120.75 762.4,-101.02 876.34,-93.87"/>
<polygon fill="black" stroke="black" points="876.73,-97.35 886.5,-93.24 876.3,-90.37 876.73,-97.35"/>
</g>
<!-- NotReadyForSG? -->
<g id="node5" class="node">
<title>NotReadyForSG?</title>
<ellipse fill="gray" stroke="black" cx="53" cy="-18" rx="46.53" ry="18"/>
<text text-anchor="middle" x="53" y="-15.8" font-family="Times,serif" font-size="9.00">NotReadyForSG?</text>
</g>
<!-- Fallback*&#45;&gt;NotReadyForSG? -->
<g id="edge4" class="edge">
<title>Fallback*&#45;&gt;NotReadyForSG?</title>
<path fill="none" stroke="black" d="M91.39,-71.7C85.25,-63.27 77.75,-52.97 71.02,-43.73"/>
<polygon fill="black" stroke="black" points="73.83,-41.64 65.11,-35.62 68.17,-45.77 73.83,-41.64"/>
</g>
<!-- GetSubGoal! -->
<g id="node6" class="node">
<title>GetSubGoal!</title>
<ellipse fill="gray" stroke="black" cx="155" cy="-18" rx="36.9" ry="18"/>
<text text-anchor="middle" x="155" y="-15.8" font-family="Times,serif" font-size="9.00">GetSubGoal!</text>
</g>
<!-- Fallback*&#45;&gt;GetSubGoal! -->
<g id="edge5" class="edge">
<title>Fallback*&#45;&gt;GetSubGoal!</title>
<path fill="none" stroke="black" d="M116.61,-71.7C122.84,-63.14 130.47,-52.67 137.28,-43.33"/>
<polygon fill="black" stroke="black" points="140.18,-45.29 143.24,-35.14 134.52,-41.17 140.18,-45.29"/>
</g>
<!-- GetSubGoal!* -->
<g id="node12" class="node">
<title>GetSubGoal!*</title>
<ellipse fill="gray" stroke="black" cx="375" cy="-18" rx="39.02" ry="18"/>
<text text-anchor="middle" x="375" y="-15.8" font-family="Times,serif" font-size="9.00">GetSubGoal!*</text>
</g>
<!-- Fallback**&#45;&gt;GetSubGoal!* -->
<g id="edge11" class="edge">
<title>Fallback**&#45;&gt;GetSubGoal!*</title>
<path fill="none" stroke="black" d="M501.9,-77.44C477.16,-66.05 439.1,-48.52 411.11,-35.63"/>
<polygon fill="black" stroke="black" points="412.22,-32.29 401.67,-31.28 409.29,-38.65 412.22,-32.29"/>
</g>
<!-- GetSubGoal!** -->
<g id="node13" class="node">
<title>GetSubGoal!**</title>
<ellipse fill="gray" stroke="black" cx="474" cy="-18" rx="42.29" ry="18"/>
<text text-anchor="middle" x="474" y="-15.8" font-family="Times,serif" font-size="9.00">GetSubGoal!**</text>
</g>
<!-- Fallback**&#45;&gt;GetSubGoal!** -->
<g id="edge12" class="edge">
<title>Fallback**&#45;&gt;GetSubGoal!**</title>
<path fill="none" stroke="black" d="M513.9,-71.7C507.52,-63.27 499.72,-52.97 492.73,-43.73"/>
<polygon fill="black" stroke="black" points="495.41,-41.48 486.59,-35.62 489.83,-45.71 495.41,-41.48"/>
</g>
<!-- GetSubGoal!*** -->
<g id="node14" class="node">
<title>GetSubGoal!***</title>
<ellipse fill="gray" stroke="black" cx="579" cy="-18" rx="44.41" ry="18"/>
<text text-anchor="middle" x="579" y="-15.8" font-family="Times,serif" font-size="9.00">GetSubGoal!***</text>
</g>
<!-- Fallback**&#45;&gt;GetSubGoal!*** -->
<g id="edge13" class="edge">
<title>Fallback**&#45;&gt;GetSubGoal!***</title>
<path fill="none" stroke="black" d="M539.85,-71.7C546.12,-63.27 553.76,-52.97 560.63,-43.73"/>
<polygon fill="black" stroke="black" points="563.5,-45.74 566.65,-35.62 557.88,-41.56 563.5,-45.74"/>
</g>
<!-- GetSubGoal!**** -->
<g id="node17" class="node">
<title>GetSubGoal!****</title>
<ellipse fill="gray" stroke="black" cx="689" cy="-18" rx="47.19" ry="18"/>
<text text-anchor="middle" x="689" y="-15.8" font-family="Times,serif" font-size="9.00">GetSubGoal!****</text>
</g>
<!-- Fallback***&#45;&gt;GetSubGoal!**** -->
<g id="edge16" class="edge">
<title>Fallback***&#45;&gt;GetSubGoal!****</title>
<path fill="none" stroke="black" d="M892.29,-79.68C856.5,-69.15 796.53,-51.45 745,-36 741.64,-34.99 738.16,-33.95 734.67,-32.89"/>
<polygon fill="black" stroke="black" points="735.42,-29.46 724.84,-29.92 733.4,-36.16 735.42,-29.46"/>
</g>
<!-- GetSubGoal!***** -->
<g id="node18" class="node">
<title>GetSubGoal!*****</title>
<ellipse fill="gray" stroke="black" cx="804" cy="-18" rx="49.8" ry="18"/>
<text text-anchor="middle" x="804" y="-15.8" font-family="Times,serif" font-size="9.00">GetSubGoal!*****</text>
</g>
<!-- Fallback***&#45;&gt;GetSubGoal!***** -->
<g id="edge17" class="edge">
<title>Fallback***&#45;&gt;GetSubGoal!*****</title>
<path fill="none" stroke="black" d="M900.86,-75.5C883.03,-65.1 858.09,-50.55 837.99,-38.83"/>
<polygon fill="black" stroke="black" points="839.54,-35.68 829.14,-33.66 836.01,-41.73 839.54,-35.68"/>
</g>
<!-- GetSubGoal!****** -->
<g id="node19" class="node">
<title>GetSubGoal!******</title>
<ellipse fill="gray" stroke="black" cx="924" cy="-18" rx="52.58" ry="18"/>
<text text-anchor="middle" x="924" y="-15.8" font-family="Times,serif" font-size="9.00">GetSubGoal!******</text>
</g>
<!-- Fallback***&#45;&gt;GetSubGoal!****** -->
<g id="edge18" class="edge">
<title>Fallback***&#45;&gt;GetSubGoal!******</title>
<path fill="none" stroke="black" d="M924,-71.7C924,-63.98 924,-54.71 924,-46.11"/>
<polygon fill="black" stroke="black" points="927.5,-46.1 924,-36.1 920.5,-46.1 927.5,-46.1"/>
</g>
<!-- GetSubGoal!******* -->
<g id="node20" class="node">
<title>GetSubGoal!*******</title>
<ellipse fill="gray" stroke="black" cx="1049" cy="-18" rx="54.7" ry="18"/>
<text text-anchor="middle" x="1049" y="-15.8" font-family="Times,serif" font-size="9.00">GetSubGoal!*******</text>
</g>
<!-- Fallback***&#45;&gt;GetSubGoal!******* -->
<g id="edge19" class="edge">
<title>Fallback***&#45;&gt;GetSubGoal!*******</title>
<path fill="none" stroke="black" d="M947.81,-75.67C966.32,-65.3 992.29,-50.76 1013.29,-39"/>
<polygon fill="black" stroke="black" points="1015.23,-41.92 1022.25,-33.98 1011.81,-35.81 1015.23,-41.92"/>
</g>
<!-- LkGraph? -->
<g id="node21" class="node">
<title>LkGraph?</title>
<ellipse fill="gray" stroke="black" cx="1152" cy="-18" rx="30.7" ry="18"/>
<text text-anchor="middle" x="1152" y="-15.8" font-family="Times,serif" font-size="9.00">LkGraph?</text>
</g>
<!-- Fallback***&#45;&gt;LkGraph? -->
<g id="edge20" class="edge">
<title>Fallback***&#45;&gt;LkGraph?</title>
<path fill="none" stroke="black" d="M958.24,-80.91C996.45,-71.53 1059.87,-54.93 1113,-36 1115.09,-35.25 1117.23,-34.45 1119.37,-33.61"/>
<polygon fill="black" stroke="black" points="1120.78,-36.82 1128.7,-29.78 1118.12,-30.34 1120.78,-36.82"/>
</g>
<!-- ReachGoal?* -->
<g id="node22" class="node">
<title>ReachGoal?*</title>
<ellipse fill="gray" stroke="black" cx="1238" cy="-18" rx="36.9" ry="18"/>
<text text-anchor="middle" x="1238" y="-15.8" font-family="Times,serif" font-size="9.00">ReachGoal?*</text>
</g>
<!-- Fallback***&#45;&gt;ReachGoal?* -->
<g id="edge21" class="edge">
<title>Fallback***&#45;&gt;ReachGoal?*</title>
<path fill="none" stroke="black" d="M961.73,-83.48C1014.01,-75.39 1111.2,-58.77 1192,-36 1194.77,-35.22 1197.6,-34.35 1200.44,-33.43"/>
<polygon fill="black" stroke="black" points="1201.69,-36.7 1210.01,-30.15 1199.42,-30.08 1201.69,-36.7"/>
</g>
</g>
</svg>
