<?xml version="1.0" encoding="UTF-8" standalone="no"?>
<!DOCTYPE svg PUBLIC "-//W3C//DTD SVG 1.1//EN"
 "http://www.w3.org/Graphics/SVG/1.1/DTD/svg11.dtd">
<!-- Generated by graphviz version 2.43.0 (0)
 -->
<!-- Title: pastafarianism Pages: 1 -->
<svg width="2397pt" height="260pt"
 viewBox="0.00 0.00 2396.90 260.00" xmlns="http://www.w3.org/2000/svg" xmlns:xlink="http://www.w3.org/1999/xlink">
<g id="graph0" class="graph" transform="scale(1 1) rotate(0) translate(4 256)">
<title>pastafarianism</title>
<polygon fill="white" stroke="transparent" points="-4,4 -4,-256 2392.9,-256 2392.9,4 -4,4"/>
<!-- Fallback -->
<g id="node1" class="node">
<title>Fallback</title>
<polygon fill="cyan" stroke="black" points="852.11,-226.54 852.11,-241.46 834.98,-252 810.75,-252 793.62,-241.46 793.62,-226.54 810.75,-216 834.98,-216 852.11,-226.54"/>
<text text-anchor="middle" x="822.87" y="-231.8" font-family="Times,serif" font-size="9.00">Fallback</text>
</g>
<!-- ReachGoal? -->
<g id="node2" class="node">
<title>ReachGoal?</title>
<ellipse fill="gray" stroke="black" cx="118.87" cy="-162" rx="34.13" ry="18"/>
<text text-anchor="middle" x="118.87" y="-159.8" font-family="Times,serif" font-size="9.00">ReachGoal?</text>
</g>
<!-- Fallback&#45;&gt;ReachGoal? -->
<g id="edge1" class="edge">
<title>Fallback&#45;&gt;ReachGoal?</title>
<path fill="none" stroke="black" d="M793.51,-231.8C682.01,-227.07 284.8,-208.56 161.87,-180 159.08,-179.35 156.24,-178.56 153.41,-177.67"/>
<polygon fill="black" stroke="black" points="154.53,-174.35 143.93,-174.35 152.22,-180.96 154.53,-174.35"/>
</g>
<!-- Sequence -->
<g id="node3" class="node">
<title>Sequence</title>
<polygon fill="cyan" stroke="black" points="233.36,-154.54 233.36,-169.46 214.91,-180 188.82,-180 170.37,-169.46 170.37,-154.54 188.82,-144 214.91,-144 233.36,-154.54"/>
<text text-anchor="middle" x="201.87" y="-159.8" font-family="Times,serif" font-size="9.00">Sequence</text>
</g>
<!-- Fallback&#45;&gt;Sequence -->
<g id="edge2" class="edge">
<title>Fallback&#45;&gt;Sequence</title>
<path fill="none" stroke="black" d="M793.51,-229.9C718.25,-221.92 512.29,-199.91 340.87,-180 308.1,-176.2 271.03,-171.65 243.41,-168.22"/>
<polygon fill="black" stroke="black" points="243.68,-164.72 233.32,-166.96 242.81,-171.67 243.68,-164.72"/>
</g>
<!-- Sequence* -->
<g id="node6" class="node">
<title>Sequence*</title>
<polygon fill="cyan" stroke="black" points="418.11,-154.54 418.11,-169.46 398.05,-180 369.68,-180 349.63,-169.46 349.63,-154.54 369.68,-144 398.05,-144 418.11,-154.54"/>
<text text-anchor="middle" x="383.87" y="-159.8" font-family="Times,serif" font-size="9.00">Sequence*</text>
</g>
<!-- Fallback&#45;&gt;Sequence* -->
<g id="edge5" class="edge">
<title>Fallback&#45;&gt;Sequence*</title>
<path fill="none" stroke="black" d="M793.38,-228.3C718.03,-216.28 518.03,-184.39 428.4,-170.1"/>
<polygon fill="black" stroke="black" points="428.72,-166.61 418.29,-168.49 427.62,-173.52 428.72,-166.61"/>
</g>
<!-- ReachGoal?** -->
<g id="node11" class="node">
<title>ReachGoal?**</title>
<ellipse fill="gray" stroke="black" cx="677.87" cy="-162" rx="39.02" ry="18"/>
<text text-anchor="middle" x="677.87" y="-159.8" font-family="Times,serif" font-size="9.00">ReachGoal?**</text>
</g>
<!-- Fallback&#45;&gt;ReachGoal?** -->
<g id="edge10" class="edge">
<title>Fallback&#45;&gt;ReachGoal?**</title>
<path fill="none" stroke="black" d="M800.53,-222.22C777.22,-210.96 740.34,-193.16 713.11,-180.01"/>
<polygon fill="black" stroke="black" points="714.44,-176.77 703.91,-175.57 711.39,-183.07 714.44,-176.77"/>
</g>
<!-- Sequence** -->
<g id="node12" class="node">
<title>Sequence**</title>
<polygon fill="cyan" stroke="black" points="808.61,-154.54 808.61,-169.46 787.09,-180 756.65,-180 735.13,-169.46 735.13,-154.54 756.65,-144 787.09,-144 808.61,-154.54"/>
<text text-anchor="middle" x="771.87" y="-159.8" font-family="Times,serif" font-size="9.00">Sequence**</text>
</g>
<!-- Fallback&#45;&gt;Sequence** -->
<g id="edge11" class="edge">
<title>Fallback&#45;&gt;Sequence**</title>
<path fill="none" stroke="black" d="M810.52,-216.05C804.47,-207.75 797.06,-197.58 790.36,-188.38"/>
<polygon fill="black" stroke="black" points="793.17,-186.3 784.45,-180.28 787.51,-190.42 793.17,-186.3"/>
</g>
<!-- ReachGoal?***** -->
<g id="node25" class="node">
<title>ReachGoal?*****</title>
<ellipse fill="gray" stroke="black" cx="873.87" cy="-162" rx="47.19" ry="18"/>
<text text-anchor="middle" x="873.87" y="-159.8" font-family="Times,serif" font-size="9.00">ReachGoal?*****</text>
</g>
<!-- Fallback&#45;&gt;ReachGoal?***** -->
<g id="edge24" class="edge">
<title>Fallback&#45;&gt;ReachGoal?*****</title>
<path fill="none" stroke="black" d="M835.21,-216.05C841.35,-207.63 848.89,-197.28 855.68,-187.97"/>
<polygon fill="black" stroke="black" points="858.58,-189.93 861.64,-179.79 852.92,-185.81 858.58,-189.93"/>
</g>
<!-- Sequence*** -->
<g id="node26" class="node">
<title>Sequence***</title>
<polygon fill="cyan" stroke="black" points="1326.86,-154.54 1326.86,-169.46 1303.43,-180 1270.3,-180 1246.88,-169.46 1246.88,-154.54 1270.3,-144 1303.43,-144 1326.86,-154.54"/>
<text text-anchor="middle" x="1286.87" y="-159.8" font-family="Times,serif" font-size="9.00">Sequence***</text>
</g>
<!-- Fallback&#45;&gt;Sequence*** -->
<g id="edge25" class="edge">
<title>Fallback&#45;&gt;Sequence***</title>
<path fill="none" stroke="black" d="M852.24,-228.57C929.61,-216.9 1139.66,-185.21 1236.6,-170.58"/>
<polygon fill="black" stroke="black" points="1237.37,-174.01 1246.74,-169.05 1236.32,-167.09 1237.37,-174.01"/>
</g>
<!-- Sequence**** -->
<g id="node39" class="node">
<title>Sequence****</title>
<polygon fill="cyan" stroke="black" points="1924.36,-154.54 1924.36,-169.46 1899.47,-180 1864.27,-180 1839.38,-169.46 1839.38,-154.54 1864.27,-144 1899.47,-144 1924.36,-154.54"/>
<text text-anchor="middle" x="1881.87" y="-159.8" font-family="Times,serif" font-size="9.00">Sequence****</text>
</g>
<!-- Fallback&#45;&gt;Sequence**** -->
<g id="edge38" class="edge">
<title>Fallback&#45;&gt;Sequence****</title>
<path fill="none" stroke="black" d="M852.3,-231.05C997.69,-221.44 1639.9,-178.99 1829.19,-166.48"/>
<polygon fill="black" stroke="black" points="1829.42,-169.97 1839.17,-165.82 1828.96,-162.99 1829.42,-169.97"/>
</g>
<!-- LkGraph?***** -->
<g id="node47" class="node">
<title>LkGraph?*****</title>
<ellipse fill="gray" stroke="black" cx="1985.87" cy="-162" rx="43.1" ry="18"/>
<text text-anchor="middle" x="1985.87" y="-159.8" font-family="Times,serif" font-size="9.00">LkGraph?*****</text>
</g>
<!-- Fallback&#45;&gt;LkGraph?***** -->
<g id="edge46" class="edge">
<title>Fallback&#45;&gt;LkGraph?*****</title>
<path fill="none" stroke="black" d="M852.28,-232.64C1005.84,-230.6 1716.56,-219.15 1932.87,-180 1936.77,-179.29 1940.78,-178.38 1944.76,-177.34"/>
<polygon fill="black" stroke="black" points="1945.89,-180.66 1954.54,-174.54 1943.97,-173.93 1945.89,-180.66"/>
</g>
<!-- NotReadyForSG?****** -->
<g id="node48" class="node">
<title>NotReadyForSG?******</title>
<ellipse fill="gray" stroke="black" cx="2109.87" cy="-162" rx="62.21" ry="18"/>
<text text-anchor="middle" x="2109.87" y="-159.8" font-family="Times,serif" font-size="9.00">NotReadyForSG?******</text>
</g>
<!-- Fallback&#45;&gt;NotReadyForSG?****** -->
<g id="edge47" class="edge">
<title>Fallback&#45;&gt;NotReadyForSG?******</title>
<path fill="none" stroke="black" d="M852.31,-232.47C1014.27,-229.43 1798.27,-213.21 2037.87,-180 2043.65,-179.2 2049.66,-178.14 2055.62,-176.95"/>
<polygon fill="black" stroke="black" points="2056.51,-180.34 2065.56,-174.84 2055.05,-173.5 2056.51,-180.34"/>
</g>
<!-- LkClose? -->
<g id="node4" class="node">
<title>LkClose?</title>
<ellipse fill="gray" stroke="black" cx="28.87" cy="-90" rx="28.74" ry="18"/>
<text text-anchor="middle" x="28.87" y="-87.8" font-family="Times,serif" font-size="9.00">LkClose?</text>
</g>
<!-- Sequence&#45;&gt;LkClose? -->
<g id="edge3" class="edge">
<title>Sequence&#45;&gt;LkClose?</title>
<path fill="none" stroke="black" d="M177.39,-150.42C172.28,-148.26 166.91,-146.03 161.87,-144 119.97,-127.17 108.6,-125.23 66.87,-108 65.01,-107.23 63.12,-106.44 61.2,-105.62"/>
<polygon fill="black" stroke="black" points="62.25,-102.26 51.68,-101.47 59.45,-108.67 62.25,-102.26"/>
</g>
<!-- GetLk! -->
<g id="node5" class="node">
<title>GetLk!</title>
<ellipse fill="gray" stroke="black" cx="102.87" cy="-90" rx="27" ry="18"/>
<text text-anchor="middle" x="102.87" y="-87.8" font-family="Times,serif" font-size="9.00">GetLk!</text>
</g>
<!-- Sequence&#45;&gt;GetLk! -->
<g id="edge4" class="edge">
<title>Sequence&#45;&gt;GetLk!</title>
<path fill="none" stroke="black" d="M182.31,-147.17C167.05,-136.38 145.71,-121.29 128.99,-109.47"/>
<polygon fill="black" stroke="black" points="130.91,-106.54 120.72,-103.62 126.87,-112.26 130.91,-106.54"/>
</g>
<!-- ReachGoal?* -->
<g id="node7" class="node">
<title>ReachGoal?*</title>
<ellipse fill="gray" stroke="black" cx="184.87" cy="-90" rx="36.9" ry="18"/>
<text text-anchor="middle" x="184.87" y="-87.8" font-family="Times,serif" font-size="9.00">ReachGoal?*</text>
</g>
<!-- Sequence*&#45;&gt;ReachGoal?* -->
<g id="edge6" class="edge">
<title>Sequence*&#45;&gt;ReachGoal?*</title>
<path fill="none" stroke="black" d="M355.33,-151.31C324.55,-140.81 274.14,-123.49 230.87,-108 228.32,-107.09 225.71,-106.14 223.07,-105.19"/>
<polygon fill="black" stroke="black" points="224.14,-101.85 213.54,-101.7 221.73,-108.42 224.14,-101.85"/>
</g>
<!-- NotReadyForSG? -->
<g id="node8" class="node">
<title>NotReadyForSG?</title>
<ellipse fill="gray" stroke="black" cx="286.87" cy="-90" rx="46.53" ry="18"/>
<text text-anchor="middle" x="286.87" y="-87.8" font-family="Times,serif" font-size="9.00">NotReadyForSG?</text>
</g>
<!-- Sequence*&#45;&gt;NotReadyForSG? -->
<g id="edge7" class="edge">
<title>Sequence*&#45;&gt;NotReadyForSG?</title>
<path fill="none" stroke="black" d="M364.24,-146.83C350.41,-136.86 331.67,-123.33 316.09,-112.09"/>
<polygon fill="black" stroke="black" points="317.97,-109.13 307.81,-106.11 313.87,-114.8 317.97,-109.13"/>
</g>
<!-- LkClose?* -->
<g id="node9" class="node">
<title>LkClose?*</title>
<ellipse fill="gray" stroke="black" cx="383.87" cy="-90" rx="31.51" ry="18"/>
<text text-anchor="middle" x="383.87" y="-87.8" font-family="Times,serif" font-size="9.00">LkClose?*</text>
</g>
<!-- Sequence*&#45;&gt;LkClose?* -->
<g id="edge8" class="edge">
<title>Sequence*&#45;&gt;LkClose?*</title>
<path fill="none" stroke="black" d="M383.87,-143.7C383.87,-135.98 383.87,-126.71 383.87,-118.11"/>
<polygon fill="black" stroke="black" points="387.37,-118.1 383.87,-108.1 380.37,-118.1 387.37,-118.1"/>
</g>
<!-- CompLkGraph! -->
<g id="node10" class="node">
<title>CompLkGraph!</title>
<ellipse fill="gray" stroke="black" cx="475.87" cy="-90" rx="42.95" ry="18"/>
<text text-anchor="middle" x="475.87" y="-87.8" font-family="Times,serif" font-size="9.00">CompLkGraph!</text>
</g>
<!-- Sequence*&#45;&gt;CompLkGraph! -->
<g id="edge9" class="edge">
<title>Sequence*&#45;&gt;CompLkGraph!</title>
<path fill="none" stroke="black" d="M402.93,-146.5C415.87,-136.65 433.19,-123.47 447.71,-112.43"/>
<polygon fill="black" stroke="black" points="450.04,-115.05 455.87,-106.21 445.8,-109.48 450.04,-115.05"/>
</g>
<!-- Fallback* -->
<g id="node13" class="node">
<title>Fallback*</title>
<polygon fill="cyan" stroke="black" points="600.61,-82.54 600.61,-97.46 582.02,-108 555.72,-108 537.13,-97.46 537.13,-82.54 555.72,-72 582.02,-72 600.61,-82.54"/>
<text text-anchor="middle" x="568.87" y="-87.8" font-family="Times,serif" font-size="9.00">Fallback*</text>
</g>
<!-- Sequence**&#45;&gt;Fallback* -->
<g id="edge12" class="edge">
<title>Sequence**&#45;&gt;Fallback*</title>
<path fill="none" stroke="black" d="M743.24,-150.15C737.51,-148.06 731.51,-145.92 725.87,-144 674.75,-126.64 660.63,-126.36 609.87,-108 607.61,-107.18 605.29,-106.31 602.95,-105.41"/>
<polygon fill="black" stroke="black" points="604.02,-102.07 593.44,-101.62 601.43,-108.57 604.02,-102.07"/>
</g>
<!-- MoveTo! -->
<g id="node17" class="node">
<title>MoveTo!</title>
<ellipse fill="gray" stroke="black" cx="647.87" cy="-90" rx="28.74" ry="18"/>
<text text-anchor="middle" x="647.87" y="-87.8" font-family="Times,serif" font-size="9.00">MoveTo!</text>
</g>
<!-- Sequence**&#45;&gt;MoveTo! -->
<g id="edge16" class="edge">
<title>Sequence**&#45;&gt;MoveTo!</title>
<path fill="none" stroke="black" d="M748.54,-147.83C728.41,-136.47 699.21,-119.99 677.44,-107.7"/>
<polygon fill="black" stroke="black" points="679.04,-104.58 668.61,-102.71 675.6,-110.68 679.04,-104.58"/>
</g>
<!-- Fallback** -->
<g id="node18" class="node">
<title>Fallback**</title>
<polygon fill="cyan" stroke="black" points="764.86,-82.54 764.86,-97.46 744.36,-108 715.37,-108 694.88,-97.46 694.88,-82.54 715.37,-72 744.36,-72 764.86,-82.54"/>
<text text-anchor="middle" x="729.87" y="-87.8" font-family="Times,serif" font-size="9.00">Fallback**</text>
</g>
<!-- Sequence**&#45;&gt;Fallback** -->
<g id="edge17" class="edge">
<title>Sequence**&#45;&gt;Fallback**</title>
<path fill="none" stroke="black" d="M761.49,-143.7C756.6,-135.56 750.68,-125.69 745.29,-116.7"/>
<polygon fill="black" stroke="black" points="748.28,-114.88 740.13,-108.1 742.27,-118.48 748.28,-114.88"/>
</g>
<!-- LkGraph? -->
<g id="node23" class="node">
<title>LkGraph?</title>
<ellipse fill="gray" stroke="black" cx="813.87" cy="-90" rx="30.7" ry="18"/>
<text text-anchor="middle" x="813.87" y="-87.8" font-family="Times,serif" font-size="9.00">LkGraph?</text>
</g>
<!-- Sequence**&#45;&gt;LkGraph? -->
<g id="edge22" class="edge">
<title>Sequence**&#45;&gt;LkGraph?</title>
<path fill="none" stroke="black" d="M782.25,-143.7C787.28,-135.32 793.41,-125.1 798.93,-115.9"/>
<polygon fill="black" stroke="black" points="802.04,-117.52 804.18,-107.14 796.03,-113.92 802.04,-117.52"/>
</g>
<!-- GetLk!* -->
<g id="node24" class="node">
<title>GetLk!*</title>
<ellipse fill="gray" stroke="black" cx="889.87" cy="-90" rx="27.27" ry="18"/>
<text text-anchor="middle" x="889.87" y="-87.8" font-family="Times,serif" font-size="9.00">GetLk!*</text>
</g>
<!-- Sequence**&#45;&gt;GetLk!* -->
<g id="edge23" class="edge">
<title>Sequence**&#45;&gt;GetLk!*</title>
<path fill="none" stroke="black" d="M794.62,-147.5C813.75,-136.15 841.19,-119.87 861.71,-107.7"/>
<polygon fill="black" stroke="black" points="863.5,-110.71 870.32,-102.6 859.93,-104.69 863.5,-110.71"/>
</g>
<!-- NotReadyForSG?* -->
<g id="node14" class="node">
<title>NotReadyForSG?*</title>
<ellipse fill="gray" stroke="black" cx="361.87" cy="-18" rx="49.8" ry="18"/>
<text text-anchor="middle" x="361.87" y="-15.8" font-family="Times,serif" font-size="9.00">NotReadyForSG?*</text>
</g>
<!-- Fallback*&#45;&gt;NotReadyForSG?* -->
<g id="edge13" class="edge">
<title>Fallback*&#45;&gt;NotReadyForSG?*</title>
<path fill="none" stroke="black" d="M544.28,-78.41C538.91,-76.21 533.22,-73.96 527.87,-72 488.35,-57.53 442.76,-43.13 409.37,-33.01"/>
<polygon fill="black" stroke="black" points="410.01,-29.54 399.42,-30.01 407.98,-36.24 410.01,-29.54"/>
</g>
<!-- ReachGoal?*** -->
<g id="node15" class="node">
<title>ReachGoal?***</title>
<ellipse fill="gray" stroke="black" cx="471.87" cy="-18" rx="42.29" ry="18"/>
<text text-anchor="middle" x="471.87" y="-15.8" font-family="Times,serif" font-size="9.00">ReachGoal?***</text>
</g>
<!-- Fallback*&#45;&gt;ReachGoal?*** -->
<g id="edge14" class="edge">
<title>Fallback*&#45;&gt;ReachGoal?***</title>
<path fill="none" stroke="black" d="M549.7,-75.17C535.73,-65.08 516.55,-51.24 500.72,-39.82"/>
<polygon fill="black" stroke="black" points="502.49,-36.78 492.33,-33.77 498.39,-42.46 502.49,-36.78"/>
</g>
<!-- GetSubGoal! -->
<g id="node16" class="node">
<title>GetSubGoal!</title>
<ellipse fill="gray" stroke="black" cx="568.87" cy="-18" rx="36.9" ry="18"/>
<text text-anchor="middle" x="568.87" y="-15.8" font-family="Times,serif" font-size="9.00">GetSubGoal!</text>
</g>
<!-- Fallback*&#45;&gt;GetSubGoal! -->
<g id="edge15" class="edge">
<title>Fallback*&#45;&gt;GetSubGoal!</title>
<path fill="none" stroke="black" d="M568.87,-71.7C568.87,-63.98 568.87,-54.71 568.87,-46.11"/>
<polygon fill="black" stroke="black" points="572.37,-46.1 568.87,-36.1 565.37,-46.1 572.37,-46.1"/>
</g>
<!-- ReachGoal?**** -->
<g id="node19" class="node">
<title>ReachGoal?****</title>
<ellipse fill="gray" stroke="black" cx="667.87" cy="-18" rx="44.41" ry="18"/>
<text text-anchor="middle" x="667.87" y="-15.8" font-family="Times,serif" font-size="9.00">ReachGoal?****</text>
</g>
<!-- Fallback**&#45;&gt;ReachGoal?**** -->
<g id="edge18" class="edge">
<title>Fallback**&#45;&gt;ReachGoal?****</title>
<path fill="none" stroke="black" d="M714.86,-72.05C707.13,-63.33 697.58,-52.54 689.11,-42.98"/>
<polygon fill="black" stroke="black" points="691.56,-40.47 682.31,-35.31 686.32,-45.11 691.56,-40.47"/>
</g>
<!-- NotReadyForSG?** -->
<g id="node20" class="node">
<title>NotReadyForSG?**</title>
<ellipse fill="gray" stroke="black" cx="781.87" cy="-18" rx="51.92" ry="18"/>
<text text-anchor="middle" x="781.87" y="-15.8" font-family="Times,serif" font-size="9.00">NotReadyForSG?**</text>
</g>
<!-- Fallback**&#45;&gt;NotReadyForSG?** -->
<g id="edge19" class="edge">
<title>Fallback**&#45;&gt;NotReadyForSG?**</title>
<path fill="none" stroke="black" d="M742.72,-71.7C748.98,-63.27 756.63,-52.97 763.49,-43.73"/>
<polygon fill="black" stroke="black" points="766.37,-45.74 769.52,-35.62 760.75,-41.56 766.37,-45.74"/>
</g>
<!-- GetSubGoal!* -->
<g id="node21" class="node">
<title>GetSubGoal!*</title>
<ellipse fill="gray" stroke="black" cx="890.87" cy="-18" rx="39.02" ry="18"/>
<text text-anchor="middle" x="890.87" y="-15.8" font-family="Times,serif" font-size="9.00">GetSubGoal!*</text>
</g>
<!-- Fallback**&#45;&gt;GetSubGoal!* -->
<g id="edge20" class="edge">
<title>Fallback**&#45;&gt;GetSubGoal!*</title>
<path fill="none" stroke="black" d="M755.73,-77.75C782.36,-66.18 824.09,-48.03 854.14,-34.97"/>
<polygon fill="black" stroke="black" points="855.67,-38.12 863.45,-30.92 852.88,-31.7 855.67,-38.12"/>
</g>
<!-- GetSubGoal!** -->
<g id="node22" class="node">
<title>GetSubGoal!**</title>
<ellipse fill="gray" stroke="black" cx="989.87" cy="-18" rx="42.29" ry="18"/>
<text text-anchor="middle" x="989.87" y="-15.8" font-family="Times,serif" font-size="9.00">GetSubGoal!**</text>
</g>
<!-- Fallback**&#45;&gt;GetSubGoal!** -->
<g id="edge21" class="edge">
<title>Fallback**&#45;&gt;GetSubGoal!**</title>
<path fill="none" stroke="black" d="M756.63,-77.91C762.27,-75.78 768.22,-73.7 773.87,-72 845.75,-50.41 866.49,-55.9 938.87,-36 942.06,-35.12 945.35,-34.16 948.65,-33.16"/>
<polygon fill="black" stroke="black" points="949.99,-36.4 958.47,-30.05 947.88,-29.73 949.99,-36.4"/>
</g>
<!-- ReachGoal?****** -->
<g id="node27" class="node">
<title>ReachGoal?******</title>
<ellipse fill="gray" stroke="black" cx="984.87" cy="-90" rx="49.8" ry="18"/>
<text text-anchor="middle" x="984.87" y="-87.8" font-family="Times,serif" font-size="9.00">ReachGoal?******</text>
</g>
<!-- Sequence***&#45;&gt;ReachGoal?****** -->
<g id="edge26" class="edge">
<title>Sequence***&#45;&gt;ReachGoal?******</title>
<path fill="none" stroke="black" d="M1248.81,-153.51C1200.81,-143.87 1115.87,-126.2 1043.87,-108 1039.86,-106.99 1035.71,-105.89 1031.55,-104.76"/>
<polygon fill="black" stroke="black" points="1032.48,-101.38 1021.9,-102.07 1030.6,-108.13 1032.48,-101.38"/>
</g>
<!-- NotReadyForSG?*** -->
<g id="node28" class="node">
<title>NotReadyForSG?***</title>
<ellipse fill="gray" stroke="black" cx="1107.87" cy="-90" rx="54.7" ry="18"/>
<text text-anchor="middle" x="1107.87" y="-87.8" font-family="Times,serif" font-size="9.00">NotReadyForSG?***</text>
</g>
<!-- Sequence***&#45;&gt;NotReadyForSG?*** -->
<g id="edge27" class="edge">
<title>Sequence***&#45;&gt;NotReadyForSG?***</title>
<path fill="none" stroke="black" d="M1257.71,-149.6C1228.86,-138.31 1184.34,-120.91 1151.32,-107.99"/>
<polygon fill="black" stroke="black" points="1152.49,-104.69 1141.9,-104.31 1149.94,-111.21 1152.49,-104.69"/>
</g>
<!-- ReachGoal?******* -->
<g id="node29" class="node">
<title>ReachGoal?*******</title>
<ellipse fill="gray" stroke="black" cx="1232.87" cy="-90" rx="52.58" ry="18"/>
<text text-anchor="middle" x="1232.87" y="-87.8" font-family="Times,serif" font-size="9.00">ReachGoal?*******</text>
</g>
<!-- Sequence***&#45;&gt;ReachGoal?******* -->
<g id="edge28" class="edge">
<title>Sequence***&#45;&gt;ReachGoal?*******</title>
<path fill="none" stroke="black" d="M1273.52,-143.7C1267.02,-135.27 1259.08,-124.97 1251.95,-115.73"/>
<polygon fill="black" stroke="black" points="1254.57,-113.4 1245.69,-107.62 1249.03,-117.68 1254.57,-113.4"/>
</g>
<!-- Fallback*** -->
<g id="node30" class="node">
<title>Fallback***</title>
<polygon fill="cyan" stroke="black" points="1378.36,-82.54 1378.36,-97.46 1356.4,-108 1325.34,-108 1303.38,-97.46 1303.38,-82.54 1325.34,-72 1356.4,-72 1378.36,-82.54"/>
<text text-anchor="middle" x="1340.87" y="-87.8" font-family="Times,serif" font-size="9.00">Fallback***</text>
</g>
<!-- Sequence***&#45;&gt;Fallback*** -->
<g id="edge29" class="edge">
<title>Sequence***&#45;&gt;Fallback***</title>
<path fill="none" stroke="black" d="M1300.22,-143.7C1306.62,-135.39 1314.43,-125.28 1321.47,-116.14"/>
<polygon fill="black" stroke="black" points="1324.34,-118.16 1327.67,-108.1 1318.79,-113.88 1324.34,-118.16"/>
</g>
<!-- LkGraph?* -->
<g id="node34" class="node">
<title>LkGraph?*</title>
<ellipse fill="gray" stroke="black" cx="1428.87" cy="-90" rx="32.82" ry="18"/>
<text text-anchor="middle" x="1428.87" y="-87.8" font-family="Times,serif" font-size="9.00">LkGraph?*</text>
</g>
<!-- Sequence***&#45;&gt;LkGraph?* -->
<g id="edge33" class="edge">
<title>Sequence***&#45;&gt;LkGraph?*</title>
<path fill="none" stroke="black" d="M1312.91,-148.16C1336.34,-136.61 1370.86,-119.59 1396.15,-107.13"/>
<polygon fill="black" stroke="black" points="1397.92,-110.16 1405.34,-102.6 1394.83,-103.88 1397.92,-110.16"/>
</g>
<!-- MoveTo!* -->
<g id="node35" class="node">
<title>MoveTo!*</title>
<ellipse fill="gray" stroke="black" cx="1511.87" cy="-90" rx="31.51" ry="18"/>
<text text-anchor="middle" x="1511.87" y="-87.8" font-family="Times,serif" font-size="9.00">MoveTo!*</text>
</g>
<!-- Sequence***&#45;&gt;MoveTo!* -->
<g id="edge34" class="edge">
<title>Sequence***&#45;&gt;MoveTo!*</title>
<path fill="none" stroke="black" d="M1321.83,-152.19C1359.11,-142.5 1419.72,-125.9 1470.87,-108 1473.14,-107.21 1475.46,-106.35 1477.8,-105.46"/>
<polygon fill="black" stroke="black" points="1479.31,-108.63 1487.33,-101.7 1476.74,-102.12 1479.31,-108.63"/>
</g>
<!-- Fallback**** -->
<g id="node36" class="node">
<title>Fallback****</title>
<polygon fill="cyan" stroke="black" points="1642.61,-82.54 1642.61,-97.46 1618.74,-108 1584.99,-108 1561.13,-97.46 1561.13,-82.54 1584.99,-72 1618.74,-72 1642.61,-82.54"/>
<text text-anchor="middle" x="1601.87" y="-87.8" font-family="Times,serif" font-size="9.00">Fallback****</text>
</g>
<!-- Sequence***&#45;&gt;Fallback**** -->
<g id="edge35" class="edge">
<title>Sequence***&#45;&gt;Fallback****</title>
<path fill="none" stroke="black" d="M1326.92,-154.78C1379.33,-146.25 1473.8,-129.48 1552.87,-108 1555.86,-107.19 1558.93,-106.29 1562,-105.34"/>
<polygon fill="black" stroke="black" points="1563.32,-108.59 1571.75,-102.18 1561.16,-101.93 1563.32,-108.59"/>
</g>
<!-- NotReadyForSG?**** -->
<g id="node31" class="node">
<title>NotReadyForSG?****</title>
<ellipse fill="gray" stroke="black" cx="1220.87" cy="-18" rx="57.32" ry="18"/>
<text text-anchor="middle" x="1220.87" y="-15.8" font-family="Times,serif" font-size="9.00">NotReadyForSG?****</text>
</g>
<!-- Fallback***&#45;&gt;NotReadyForSG?**** -->
<g id="edge30" class="edge">
<title>Fallback***&#45;&gt;NotReadyForSG?****</title>
<path fill="none" stroke="black" d="M1317.73,-75.5C1300.13,-65.24 1275.62,-50.94 1255.66,-39.3"/>
<polygon fill="black" stroke="black" points="1257.25,-36.17 1246.85,-34.16 1253.72,-42.22 1257.25,-36.17"/>
</g>
<!-- GetSubGoal!*** -->
<g id="node32" class="node">
<title>GetSubGoal!***</title>
<ellipse fill="gray" stroke="black" cx="1340.87" cy="-18" rx="44.41" ry="18"/>
<text text-anchor="middle" x="1340.87" y="-15.8" font-family="Times,serif" font-size="9.00">GetSubGoal!***</text>
</g>
<!-- Fallback***&#45;&gt;GetSubGoal!*** -->
<g id="edge31" class="edge">
<title>Fallback***&#45;&gt;GetSubGoal!***</title>
<path fill="none" stroke="black" d="M1340.87,-71.7C1340.87,-63.98 1340.87,-54.71 1340.87,-46.11"/>
<polygon fill="black" stroke="black" points="1344.37,-46.1 1340.87,-36.1 1337.37,-46.1 1344.37,-46.1"/>
</g>
<!-- GetSubGoal!**** -->
<g id="node33" class="node">
<title>GetSubGoal!****</title>
<ellipse fill="gray" stroke="black" cx="1450.87" cy="-18" rx="47.19" ry="18"/>
<text text-anchor="middle" x="1450.87" y="-15.8" font-family="Times,serif" font-size="9.00">GetSubGoal!****</text>
</g>
<!-- Fallback***&#45;&gt;GetSubGoal!**** -->
<g id="edge32" class="edge">
<title>Fallback***&#45;&gt;GetSubGoal!****</title>
<path fill="none" stroke="black" d="M1362.86,-75C1378.92,-64.79 1400.93,-50.78 1418.92,-39.33"/>
<polygon fill="black" stroke="black" points="1420.83,-42.26 1427.39,-33.94 1417.07,-36.36 1420.83,-42.26"/>
</g>
<!-- GetSubGoal!***** -->
<g id="node37" class="node">
<title>GetSubGoal!*****</title>
<ellipse fill="gray" stroke="black" cx="1583.87" cy="-18" rx="49.8" ry="18"/>
<text text-anchor="middle" x="1583.87" y="-15.8" font-family="Times,serif" font-size="9.00">GetSubGoal!*****</text>
</g>
<!-- Fallback****&#45;&gt;GetSubGoal!***** -->
<g id="edge36" class="edge">
<title>Fallback****&#45;&gt;GetSubGoal!*****</title>
<path fill="none" stroke="black" d="M1597.42,-71.7C1595.41,-63.9 1593,-54.51 1590.77,-45.83"/>
<polygon fill="black" stroke="black" points="1594.15,-44.92 1588.27,-36.1 1587.37,-46.66 1594.15,-44.92"/>
</g>
<!-- LkGraph?** -->
<g id="node38" class="node">
<title>LkGraph?**</title>
<ellipse fill="gray" stroke="black" cx="1686.87" cy="-18" rx="35.59" ry="18"/>
<text text-anchor="middle" x="1686.87" y="-15.8" font-family="Times,serif" font-size="9.00">LkGraph?**</text>
</g>
<!-- Fallback****&#45;&gt;LkGraph?** -->
<g id="edge37" class="edge">
<title>Fallback****&#45;&gt;LkGraph?**</title>
<path fill="none" stroke="black" d="M1621.58,-72.76C1633.33,-63.09 1648.37,-50.7 1661.06,-40.25"/>
<polygon fill="black" stroke="black" points="1663.5,-42.78 1669,-33.72 1659.05,-37.37 1663.5,-42.78"/>
</g>
<!-- NotReadyForSG?***** -->
<g id="node40" class="node">
<title>NotReadyForSG?*****</title>
<ellipse fill="gray" stroke="black" cx="1720.87" cy="-90" rx="60.09" ry="18"/>
<text text-anchor="middle" x="1720.87" y="-87.8" font-family="Times,serif" font-size="9.00">NotReadyForSG?*****</text>
</g>
<!-- Sequence****&#45;&gt;NotReadyForSG?***** -->
<g id="edge39" class="edge">
<title>Sequence****&#45;&gt;NotReadyForSG?*****</title>
<path fill="none" stroke="black" d="M1853.08,-148.49C1827.97,-137.57 1791.22,-121.59 1762.84,-109.25"/>
<polygon fill="black" stroke="black" points="1764.13,-105.99 1753.56,-105.21 1761.33,-112.41 1764.13,-105.99"/>
</g>
<!-- LkGraph?*** -->
<g id="node41" class="node">
<title>LkGraph?***</title>
<ellipse fill="gray" stroke="black" cx="1836.87" cy="-90" rx="38.21" ry="18"/>
<text text-anchor="middle" x="1836.87" y="-87.8" font-family="Times,serif" font-size="9.00">LkGraph?***</text>
</g>
<!-- Sequence****&#45;&gt;LkGraph?*** -->
<g id="edge40" class="edge">
<title>Sequence****&#45;&gt;LkGraph?***</title>
<path fill="none" stroke="black" d="M1870.74,-143.7C1865.43,-135.44 1858.98,-125.39 1853.13,-116.3"/>
<polygon fill="black" stroke="black" points="1855.91,-114.14 1847.55,-107.62 1850.02,-117.93 1855.91,-114.14"/>
</g>
<!-- MoveTo!** -->
<g id="node42" class="node">
<title>MoveTo!**</title>
<ellipse fill="gray" stroke="black" cx="1926.87" cy="-90" rx="34.13" ry="18"/>
<text text-anchor="middle" x="1926.87" y="-87.8" font-family="Times,serif" font-size="9.00">MoveTo!**</text>
</g>
<!-- Sequence****&#45;&gt;MoveTo!** -->
<g id="edge41" class="edge">
<title>Sequence****&#45;&gt;MoveTo!**</title>
<path fill="none" stroke="black" d="M1892.99,-143.7C1898.43,-135.23 1905.08,-124.89 1911.05,-115.61"/>
<polygon fill="black" stroke="black" points="1914.03,-117.45 1916.49,-107.14 1908.14,-113.66 1914.03,-117.45"/>
</g>
<!-- ReachGoal?******** -->
<g id="node43" class="node">
<title>ReachGoal?********</title>
<ellipse fill="gray" stroke="black" cx="2033.87" cy="-90" rx="54.7" ry="18"/>
<text text-anchor="middle" x="2033.87" y="-87.8" font-family="Times,serif" font-size="9.00">ReachGoal?********</text>
</g>
<!-- Sequence****&#45;&gt;ReachGoal?******** -->
<g id="edge42" class="edge">
<title>Sequence****&#45;&gt;ReachGoal?********</title>
<path fill="none" stroke="black" d="M1909.75,-148.16C1933.33,-137.3 1967.42,-121.6 1993.91,-109.4"/>
<polygon fill="black" stroke="black" points="1995.67,-112.44 2003.29,-105.08 1992.75,-106.08 1995.67,-112.44"/>
</g>
<!-- MoveTo!*** -->
<g id="node44" class="node">
<title>MoveTo!***</title>
<ellipse fill="gray" stroke="black" cx="2143.87" cy="-90" rx="36.9" ry="18"/>
<text text-anchor="middle" x="2143.87" y="-87.8" font-family="Times,serif" font-size="9.00">MoveTo!***</text>
</g>
<!-- Sequence****&#45;&gt;MoveTo!*** -->
<g id="edge43" class="edge">
<title>Sequence****&#45;&gt;MoveTo!***</title>
<path fill="none" stroke="black" d="M1913.89,-149.98C1920.46,-147.87 1927.36,-145.77 1933.87,-144 2005.87,-124.38 2026.25,-128.98 2097.87,-108 2100.63,-107.19 2103.46,-106.3 2106.29,-105.36"/>
<polygon fill="black" stroke="black" points="2107.55,-108.63 2115.85,-102.05 2105.26,-102.02 2107.55,-108.63"/>
</g>
<!-- LkGraph?**** -->
<g id="node45" class="node">
<title>LkGraph?****</title>
<ellipse fill="gray" stroke="black" cx="2239.87" cy="-90" rx="40.98" ry="18"/>
<text text-anchor="middle" x="2239.87" y="-87.8" font-family="Times,serif" font-size="9.00">LkGraph?****</text>
</g>
<!-- Sequence****&#45;&gt;LkGraph?**** -->
<g id="edge44" class="edge">
<title>Sequence****&#45;&gt;LkGraph?****</title>
<path fill="none" stroke="black" d="M1913.24,-149.76C1919.98,-147.62 1927.11,-145.57 1933.87,-144 2045.8,-118.05 2078.09,-134.61 2189.87,-108 2193.22,-107.2 2196.68,-106.27 2200.12,-105.26"/>
<polygon fill="black" stroke="black" points="2201.22,-108.58 2209.73,-102.27 2199.14,-101.9 2201.22,-108.58"/>
</g>
<!-- CompLkGraph!* -->
<g id="node46" class="node">
<title>CompLkGraph!*</title>
<ellipse fill="gray" stroke="black" cx="2343.87" cy="-90" rx="45.07" ry="18"/>
<text text-anchor="middle" x="2343.87" y="-87.8" font-family="Times,serif" font-size="9.00">CompLkGraph!*</text>
</g>
<!-- Sequence****&#45;&gt;CompLkGraph!* -->
<g id="edge45" class="edge">
<title>Sequence****&#45;&gt;CompLkGraph!*</title>
<path fill="none" stroke="black" d="M1912.92,-149.64C1919.75,-147.49 1926.99,-145.45 1933.87,-144 2089.46,-111.1 2134.1,-140.04 2289.87,-108 2293.55,-107.24 2297.34,-106.33 2301.12,-105.33"/>
<polygon fill="black" stroke="black" points="2302.36,-108.62 2311.02,-102.51 2300.45,-101.88 2302.36,-108.62"/>
</g>
</g>
</svg>
