<?xml version="1.0" encoding="UTF-8" standalone="no"?>
<!DOCTYPE svg PUBLIC "-//W3C//DTD SVG 1.1//EN"
 "http://www.w3.org/Graphics/SVG/1.1/DTD/svg11.dtd">
<!-- Generated by graphviz version 2.43.0 (0)
 -->
<!-- Title: pastafarianism Pages: 1 -->
<svg width="488pt" height="260pt"
 viewBox="0.00 0.00 488.01 260.00" xmlns="http://www.w3.org/2000/svg" xmlns:xlink="http://www.w3.org/1999/xlink">
<g id="graph0" class="graph" transform="scale(1 1) rotate(0) translate(4 256)">
<title>pastafarianism</title>
<polygon fill="white" stroke="transparent" points="-4,4 -4,-256 484.01,-256 484.01,4 -4,4"/>
<!-- Fallback -->
<g id="node1" class="node">
<title>Fallback</title>
<polygon fill="cyan" stroke="black" points="341.31,-226.54 341.31,-241.46 324.18,-252 299.95,-252 282.82,-241.46 282.82,-226.54 299.95,-216 324.18,-216 341.31,-226.54"/>
<text text-anchor="middle" x="312.06" y="-231.8" font-family="Times,serif" font-size="9.00">Fallback</text>
</g>
<!-- Sequence -->
<g id="node2" class="node">
<title>Sequence</title>
<polygon fill="cyan" stroke="black" points="183.56,-154.54 183.56,-169.46 165.11,-180 139.02,-180 120.57,-169.46 120.57,-154.54 139.02,-144 165.11,-144 183.56,-154.54"/>
<text text-anchor="middle" x="152.06" y="-159.8" font-family="Times,serif" font-size="9.00">Sequence</text>
</g>
<!-- Fallback&#45;&gt;Sequence -->
<g id="edge1" class="edge">
<title>Fallback&#45;&gt;Sequence</title>
<path fill="none" stroke="black" d="M288.8,-222.82C261.74,-210.98 216.84,-191.34 185.91,-177.81"/>
<polygon fill="black" stroke="black" points="186.97,-174.45 176.41,-173.65 184.17,-180.86 186.97,-174.45"/>
</g>
<!-- Sequence* -->
<g id="node6" class="node">
<title>Sequence*</title>
<polygon fill="cyan" stroke="black" points="304.31,-154.54 304.31,-169.46 284.25,-180 255.88,-180 235.82,-169.46 235.82,-154.54 255.88,-144 284.25,-144 304.31,-154.54"/>
<text text-anchor="middle" x="270.06" y="-159.8" font-family="Times,serif" font-size="9.00">Sequence*</text>
</g>
<!-- Fallback&#45;&gt;Sequence* -->
<g id="edge5" class="edge">
<title>Fallback&#45;&gt;Sequence*</title>
<path fill="none" stroke="black" d="M301.68,-215.7C296.8,-207.56 290.88,-197.69 285.48,-188.7"/>
<polygon fill="black" stroke="black" points="288.47,-186.88 280.33,-180.1 282.47,-190.48 288.47,-186.88"/>
</g>
<!-- LkGraph?* -->
<g id="node12" class="node">
<title>LkGraph?*</title>
<ellipse fill="gray" stroke="black" cx="355.06" cy="-162" rx="32.82" ry="18"/>
<text text-anchor="middle" x="355.06" y="-159.8" font-family="Times,serif" font-size="9.00">LkGraph?*</text>
</g>
<!-- Fallback&#45;&gt;LkGraph?* -->
<g id="edge11" class="edge">
<title>Fallback&#45;&gt;LkGraph?*</title>
<path fill="none" stroke="black" d="M322.69,-215.7C327.77,-207.44 333.94,-197.39 339.52,-188.3"/>
<polygon fill="black" stroke="black" points="342.6,-189.98 344.85,-179.62 336.64,-186.31 342.6,-189.98"/>
</g>
<!-- ReachGoal?* -->
<g id="node13" class="node">
<title>ReachGoal?*</title>
<ellipse fill="gray" stroke="black" cx="443.06" cy="-162" rx="36.9" ry="18"/>
<text text-anchor="middle" x="443.06" y="-159.8" font-family="Times,serif" font-size="9.00">ReachGoal?*</text>
</g>
<!-- Fallback&#45;&gt;ReachGoal?* -->
<g id="edge12" class="edge">
<title>Fallback&#45;&gt;ReachGoal?*</title>
<path fill="none" stroke="black" d="M333.4,-221.6C354.14,-210.52 385.93,-193.53 409.96,-180.69"/>
<polygon fill="black" stroke="black" points="411.9,-183.62 419.07,-175.82 408.6,-177.45 411.9,-183.62"/>
</g>
<!-- ReachGoal? -->
<g id="node3" class="node">
<title>ReachGoal?</title>
<ellipse fill="gray" stroke="black" cx="34.06" cy="-90" rx="34.13" ry="18"/>
<text text-anchor="middle" x="34.06" y="-87.8" font-family="Times,serif" font-size="9.00">ReachGoal?</text>
</g>
<!-- Sequence&#45;&gt;ReachGoal? -->
<g id="edge2" class="edge">
<title>Sequence&#45;&gt;ReachGoal?</title>
<path fill="none" stroke="black" d="M130.97,-148.49C112.49,-137.52 85.41,-121.46 64.57,-109.1"/>
<polygon fill="black" stroke="black" points="66.16,-105.97 55.78,-103.88 62.59,-111.99 66.16,-105.97"/>
</g>
<!-- LkGraph? -->
<g id="node4" class="node">
<title>LkGraph?</title>
<ellipse fill="gray" stroke="black" cx="117.06" cy="-90" rx="30.7" ry="18"/>
<text text-anchor="middle" x="117.06" y="-87.8" font-family="Times,serif" font-size="9.00">LkGraph?</text>
</g>
<!-- Sequence&#45;&gt;LkGraph? -->
<g id="edge3" class="edge">
<title>Sequence&#45;&gt;LkGraph?</title>
<path fill="none" stroke="black" d="M143.41,-143.7C139.33,-135.52 134.37,-125.6 129.86,-116.58"/>
<polygon fill="black" stroke="black" points="132.98,-115 125.37,-107.62 126.72,-118.13 132.98,-115"/>
</g>
<!-- GetLk! -->
<g id="node5" class="node">
<title>GetLk!</title>
<ellipse fill="gray" stroke="black" cx="193.06" cy="-90" rx="27" ry="18"/>
<text text-anchor="middle" x="193.06" y="-87.8" font-family="Times,serif" font-size="9.00">GetLk!</text>
</g>
<!-- Sequence&#45;&gt;GetLk! -->
<g id="edge4" class="edge">
<title>Sequence&#45;&gt;GetLk!</title>
<path fill="none" stroke="black" d="M162.2,-143.7C167.11,-135.32 173.09,-125.1 178.48,-115.9"/>
<polygon fill="black" stroke="black" points="181.57,-117.54 183.61,-107.14 175.53,-114 181.57,-117.54"/>
</g>
<!-- Fallback* -->
<g id="node7" class="node">
<title>Fallback*</title>
<polygon fill="cyan" stroke="black" points="301.81,-82.54 301.81,-97.46 283.21,-108 256.92,-108 238.32,-97.46 238.32,-82.54 256.92,-72 283.21,-72 301.81,-82.54"/>
<text text-anchor="middle" x="270.06" y="-87.8" font-family="Times,serif" font-size="9.00">Fallback*</text>
</g>
<!-- Sequence*&#45;&gt;Fallback* -->
<g id="edge6" class="edge">
<title>Sequence*&#45;&gt;Fallback*</title>
<path fill="none" stroke="black" d="M270.06,-143.7C270.06,-135.98 270.06,-126.71 270.06,-118.11"/>
<polygon fill="black" stroke="black" points="273.56,-118.1 270.06,-108.1 266.56,-118.1 273.56,-118.1"/>
</g>
<!-- MoveTo! -->
<g id="node11" class="node">
<title>MoveTo!</title>
<ellipse fill="gray" stroke="black" cx="349.06" cy="-90" rx="28.74" ry="18"/>
<text text-anchor="middle" x="349.06" y="-87.8" font-family="Times,serif" font-size="9.00">MoveTo!</text>
</g>
<!-- Sequence*&#45;&gt;MoveTo! -->
<g id="edge10" class="edge">
<title>Sequence*&#45;&gt;MoveTo!</title>
<path fill="none" stroke="black" d="M287.6,-145.46C298.78,-135.55 313.42,-122.59 325.6,-111.79"/>
<polygon fill="black" stroke="black" points="328.03,-114.32 333.19,-105.07 323.38,-109.08 328.03,-114.32"/>
</g>
<!-- NotReadyForSG? -->
<g id="node8" class="node">
<title>NotReadyForSG?</title>
<ellipse fill="gray" stroke="black" cx="168.06" cy="-18" rx="46.53" ry="18"/>
<text text-anchor="middle" x="168.06" y="-15.8" font-family="Times,serif" font-size="9.00">NotReadyForSG?</text>
</g>
<!-- Fallback*&#45;&gt;NotReadyForSG? -->
<g id="edge7" class="edge">
<title>Fallback*&#45;&gt;NotReadyForSG?</title>
<path fill="none" stroke="black" d="M250.4,-75.5C235.71,-65.42 215.35,-51.45 198.56,-39.93"/>
<polygon fill="black" stroke="black" points="200.37,-36.93 190.15,-34.16 196.41,-42.7 200.37,-36.93"/>
</g>
<!-- GetSubGoal! -->
<g id="node9" class="node">
<title>GetSubGoal!</title>
<ellipse fill="gray" stroke="black" cx="270.06" cy="-18" rx="36.9" ry="18"/>
<text text-anchor="middle" x="270.06" y="-15.8" font-family="Times,serif" font-size="9.00">GetSubGoal!</text>
</g>
<!-- Fallback*&#45;&gt;GetSubGoal! -->
<g id="edge8" class="edge">
<title>Fallback*&#45;&gt;GetSubGoal!</title>
<path fill="none" stroke="black" d="M270.06,-71.7C270.06,-63.98 270.06,-54.71 270.06,-46.11"/>
<polygon fill="black" stroke="black" points="273.56,-46.1 270.06,-36.1 266.56,-46.1 273.56,-46.1"/>
</g>
<!-- GetSubGoal!* -->
<g id="node10" class="node">
<title>GetSubGoal!*</title>
<ellipse fill="gray" stroke="black" cx="364.06" cy="-18" rx="39.02" ry="18"/>
<text text-anchor="middle" x="364.06" y="-15.8" font-family="Times,serif" font-size="9.00">GetSubGoal!*</text>
</g>
<!-- Fallback*&#45;&gt;GetSubGoal!* -->
<g id="edge9" class="edge">
<title>Fallback*&#45;&gt;GetSubGoal!*</title>
<path fill="none" stroke="black" d="M289.09,-74.83C302.67,-64.72 321.14,-50.96 336.36,-39.63"/>
<polygon fill="black" stroke="black" points="338.49,-42.41 344.42,-33.63 334.31,-36.79 338.49,-42.41"/>
</g>
</g>
</svg>
