<?xml version="1.0" encoding="UTF-8" standalone="no"?>
<!DOCTYPE svg PUBLIC "-//W3C//DTD SVG 1.1//EN"
 "http://www.w3.org/Graphics/SVG/1.1/DTD/svg11.dtd">
<!-- Generated by graphviz version 2.43.0 (0)
 -->
<!-- Title: pastafarianism Pages: 1 -->
<svg width="332pt" height="188pt"
 viewBox="0.00 0.00 332.01 188.00" xmlns="http://www.w3.org/2000/svg" xmlns:xlink="http://www.w3.org/1999/xlink">
<g id="graph0" class="graph" transform="scale(1 1) rotate(0) translate(4 184)">
<title>pastafarianism</title>
<polygon fill="white" stroke="transparent" points="-4,4 -4,-184 328.01,-184 328.01,4 -4,4"/>
<!-- Fallback -->
<g id="node1" class="node">
<title>Fallback</title>
<polygon fill="cyan" stroke="black" points="228.31,-154.54 228.31,-169.46 211.18,-180 186.95,-180 169.82,-169.46 169.82,-154.54 186.95,-144 211.18,-144 228.31,-154.54"/>
<text text-anchor="middle" x="199.06" y="-159.8" font-family="Times,serif" font-size="9.00">Fallback</text>
</g>
<!-- Sequence -->
<g id="node2" class="node">
<title>Sequence</title>
<polygon fill="cyan" stroke="black" points="148.56,-82.54 148.56,-97.46 130.11,-108 104.02,-108 85.57,-97.46 85.57,-82.54 104.02,-72 130.11,-72 148.56,-82.54"/>
<text text-anchor="middle" x="117.06" y="-87.8" font-family="Times,serif" font-size="9.00">Sequence</text>
</g>
<!-- Fallback&#45;&gt;Sequence -->
<g id="edge1" class="edge">
<title>Fallback&#45;&gt;Sequence</title>
<path fill="none" stroke="black" d="M182.07,-146.5C170.5,-136.61 154.98,-123.36 142,-112.29"/>
<polygon fill="black" stroke="black" points="144.19,-109.56 134.31,-105.73 139.65,-114.88 144.19,-109.56"/>
</g>
<!-- LkGraph?* -->
<g id="node6" class="node">
<title>LkGraph?*</title>
<ellipse fill="gray" stroke="black" cx="199.06" cy="-90" rx="32.82" ry="18"/>
<text text-anchor="middle" x="199.06" y="-87.8" font-family="Times,serif" font-size="9.00">LkGraph?*</text>
</g>
<!-- Fallback&#45;&gt;LkGraph?* -->
<g id="edge5" class="edge">
<title>Fallback&#45;&gt;LkGraph?*</title>
<path fill="none" stroke="black" d="M199.06,-143.7C199.06,-135.98 199.06,-126.71 199.06,-118.11"/>
<polygon fill="black" stroke="black" points="202.56,-118.1 199.06,-108.1 195.56,-118.1 202.56,-118.1"/>
</g>
<!-- ReachGoal?* -->
<g id="node7" class="node">
<title>ReachGoal?*</title>
<ellipse fill="gray" stroke="black" cx="287.06" cy="-90" rx="36.9" ry="18"/>
<text text-anchor="middle" x="287.06" y="-87.8" font-family="Times,serif" font-size="9.00">ReachGoal?*</text>
</g>
<!-- Fallback&#45;&gt;ReachGoal?* -->
<g id="edge6" class="edge">
<title>Fallback&#45;&gt;ReachGoal?*</title>
<path fill="none" stroke="black" d="M216.45,-147.17C229.01,-137.18 246.21,-123.5 260.49,-112.14"/>
<polygon fill="black" stroke="black" points="262.85,-114.73 268.5,-105.77 258.49,-109.25 262.85,-114.73"/>
</g>
<!-- ReachGoal? -->
<g id="node3" class="node">
<title>ReachGoal?</title>
<ellipse fill="gray" stroke="black" cx="34.06" cy="-18" rx="34.13" ry="18"/>
<text text-anchor="middle" x="34.06" y="-15.8" font-family="Times,serif" font-size="9.00">ReachGoal?</text>
</g>
<!-- Sequence&#45;&gt;ReachGoal? -->
<g id="edge2" class="edge">
<title>Sequence&#45;&gt;ReachGoal?</title>
<path fill="none" stroke="black" d="M99.46,-74.15C87.72,-64.25 72.1,-51.08 59.07,-40.09"/>
<polygon fill="black" stroke="black" points="61.26,-37.36 51.36,-33.58 56.74,-42.71 61.26,-37.36"/>
</g>
<!-- LkGraph? -->
<g id="node4" class="node">
<title>LkGraph?</title>
<ellipse fill="gray" stroke="black" cx="117.06" cy="-18" rx="30.7" ry="18"/>
<text text-anchor="middle" x="117.06" y="-15.8" font-family="Times,serif" font-size="9.00">LkGraph?</text>
</g>
<!-- Sequence&#45;&gt;LkGraph? -->
<g id="edge3" class="edge">
<title>Sequence&#45;&gt;LkGraph?</title>
<path fill="none" stroke="black" d="M117.06,-71.7C117.06,-63.98 117.06,-54.71 117.06,-46.11"/>
<polygon fill="black" stroke="black" points="120.56,-46.1 117.06,-36.1 113.56,-46.1 120.56,-46.1"/>
</g>
<!-- GetLk! -->
<g id="node5" class="node">
<title>GetLk!</title>
<ellipse fill="gray" stroke="black" cx="193.06" cy="-18" rx="27" ry="18"/>
<text text-anchor="middle" x="193.06" y="-15.8" font-family="Times,serif" font-size="9.00">GetLk!</text>
</g>
<!-- Sequence&#45;&gt;GetLk! -->
<g id="edge4" class="edge">
<title>Sequence&#45;&gt;GetLk!</title>
<path fill="none" stroke="black" d="M133.55,-73.81C144.37,-63.85 158.65,-50.7 170.51,-39.77"/>
<polygon fill="black" stroke="black" points="172.91,-42.32 177.9,-32.97 168.17,-37.17 172.91,-42.32"/>
</g>
</g>
</svg>
