<?xml version="1.0" encoding="UTF-8" standalone="no"?>
<!DOCTYPE svg PUBLIC "-//W3C//DTD SVG 1.1//EN"
 "http://www.w3.org/Graphics/SVG/1.1/DTD/svg11.dtd">
<!-- Generated by graphviz version 2.43.0 (0)
 -->
<!-- Title: pastafarianism Pages: 1 -->
<svg width="990pt" height="188pt"
 viewBox="0.00 0.00 989.71 188.00" xmlns="http://www.w3.org/2000/svg" xmlns:xlink="http://www.w3.org/1999/xlink">
<g id="graph0" class="graph" transform="scale(1 1) rotate(0) translate(4 184)">
<title>pastafarianism</title>
<polygon fill="white" stroke="transparent" points="-4,4 -4,-184 985.71,-184 985.71,4 -4,4"/>
<!-- Fallback -->
<g id="node1" class="node">
<title>Fallback</title>
<polygon fill="cyan" stroke="black" points="549.56,-154.54 549.56,-169.46 532.43,-180 508.2,-180 491.07,-169.46 491.07,-154.54 508.2,-144 532.43,-144 549.56,-154.54"/>
<text text-anchor="middle" x="520.31" y="-159.8" font-family="Times,serif" font-size="9.00">Fallback</text>
</g>
<!-- Sequence -->
<g id="node2" class="node">
<title>Sequence</title>
<polygon fill="cyan" stroke="black" points="192.81,-82.54 192.81,-97.46 174.36,-108 148.27,-108 129.82,-97.46 129.82,-82.54 148.27,-72 174.36,-72 192.81,-82.54"/>
<text text-anchor="middle" x="161.31" y="-87.8" font-family="Times,serif" font-size="9.00">Sequence</text>
</g>
<!-- Fallback&#45;&gt;Sequence -->
<g id="edge1" class="edge">
<title>Fallback&#45;&gt;Sequence</title>
<path fill="none" stroke="black" d="M490.93,-155.27C427.25,-142.85 276.32,-113.42 202.88,-99.11"/>
<polygon fill="black" stroke="black" points="203.11,-95.58 192.63,-97.11 201.77,-102.46 203.11,-95.58"/>
</g>
<!-- Sequence* -->
<g id="node5" class="node">
<title>Sequence*</title>
<polygon fill="cyan" stroke="black" points="412.55,-82.54 412.55,-97.46 392.5,-108 364.13,-108 344.07,-97.46 344.07,-82.54 364.13,-72 392.5,-72 412.55,-82.54"/>
<text text-anchor="middle" x="378.31" y="-87.8" font-family="Times,serif" font-size="9.00">Sequence*</text>
</g>
<!-- Fallback&#45;&gt;Sequence* -->
<g id="edge4" class="edge">
<title>Fallback&#45;&gt;Sequence*</title>
<path fill="none" stroke="black" d="M498.12,-150.06C474.96,-138.64 438.36,-120.6 411.7,-107.46"/>
<polygon fill="black" stroke="black" points="413.24,-104.32 402.72,-103.03 410.14,-110.59 413.24,-104.32"/>
</g>
<!-- 0 at pos (0.0, 0.05, 0.0)?* -->
<g id="node9" class="node">
<title>0 at pos (0.0, 0.05, 0.0)?*</title>
<ellipse fill="gray" stroke="black" cx="520.31" cy="-90" rx="62.21" ry="18"/>
<text text-anchor="middle" x="520.31" y="-87.8" font-family="Times,serif" font-size="9.00">0 at pos (0.0, 0.05, 0.0)?*</text>
</g>
<!-- Fallback&#45;&gt;0 at pos (0.0, 0.05, 0.0)?* -->
<g id="edge8" class="edge">
<title>Fallback&#45;&gt;0 at pos (0.0, 0.05, 0.0)?*</title>
<path fill="none" stroke="black" d="M520.31,-143.7C520.31,-135.98 520.31,-126.71 520.31,-118.11"/>
<polygon fill="black" stroke="black" points="523.81,-118.1 520.31,-108.1 516.81,-118.1 523.81,-118.1"/>
</g>
<!-- Sequence** -->
<g id="node10" class="node">
<title>Sequence**</title>
<polygon fill="cyan" stroke="black" points="687.05,-82.54 687.05,-97.46 665.53,-108 635.09,-108 613.57,-97.46 613.57,-82.54 635.09,-72 665.53,-72 687.05,-82.54"/>
<text text-anchor="middle" x="650.31" y="-87.8" font-family="Times,serif" font-size="9.00">Sequence**</text>
</g>
<!-- Fallback&#45;&gt;Sequence** -->
<g id="edge9" class="edge">
<title>Fallback&#45;&gt;Sequence**</title>
<path fill="none" stroke="black" d="M541.78,-149.44C562.28,-138.4 593.47,-121.61 617.16,-108.85"/>
<polygon fill="black" stroke="black" points="619.01,-111.83 626.16,-104 615.7,-105.66 619.01,-111.83"/>
</g>
<!-- place at (0.0, 0.05, 0.0)!**** -->
<g id="node15" class="node">
<title>place at (0.0, 0.05, 0.0)!****</title>
<ellipse fill="gray" stroke="black" cx="774.31" cy="-90" rx="68.91" ry="18"/>
<text text-anchor="middle" x="774.31" y="-87.8" font-family="Times,serif" font-size="9.00">place at (0.0, 0.05, 0.0)!****</text>
</g>
<!-- Fallback&#45;&gt;place at (0.0, 0.05, 0.0)!**** -->
<g id="edge14" class="edge">
<title>Fallback&#45;&gt;place at (0.0, 0.05, 0.0)!****</title>
<path fill="none" stroke="black" d="M547.98,-153.38C588.81,-142.12 666.05,-120.84 718.83,-106.29"/>
<polygon fill="black" stroke="black" points="720.01,-109.6 728.72,-103.57 718.15,-102.85 720.01,-109.6"/>
</g>
<!-- place at (0.0, 0.05, 0.0)! -->
<g id="node3" class="node">
<title>place at (0.0, 0.05, 0.0)!</title>
<ellipse fill="gray" stroke="black" cx="58.31" cy="-18" rx="58.13" ry="18"/>
<text text-anchor="middle" x="58.31" y="-15.8" font-family="Times,serif" font-size="9.00">place at (0.0, 0.05, 0.0)!</text>
</g>
<!-- Sequence&#45;&gt;place at (0.0, 0.05, 0.0)! -->
<g id="edge2" class="edge">
<title>Sequence&#45;&gt;place at (0.0, 0.05, 0.0)!</title>
<path fill="none" stroke="black" d="M141.45,-75.5C126.82,-65.56 106.62,-51.83 89.79,-40.39"/>
<polygon fill="black" stroke="black" points="91.59,-37.38 81.35,-34.65 87.65,-43.17 91.59,-37.38"/>
</g>
<!-- pick 0! -->
<g id="node4" class="node">
<title>pick 0!</title>
<ellipse fill="gray" stroke="black" cx="161.31" cy="-18" rx="27" ry="18"/>
<text text-anchor="middle" x="161.31" y="-15.8" font-family="Times,serif" font-size="9.00">pick 0!</text>
</g>
<!-- Sequence&#45;&gt;pick 0! -->
<g id="edge3" class="edge">
<title>Sequence&#45;&gt;pick 0!</title>
<path fill="none" stroke="black" d="M161.31,-71.7C161.31,-63.98 161.31,-54.71 161.31,-46.11"/>
<polygon fill="black" stroke="black" points="164.81,-46.1 161.31,-36.1 157.81,-46.1 164.81,-46.1"/>
</g>
<!-- 0 at pos (0.0, 0.05, 0.0)? -->
<g id="node6" class="node">
<title>0 at pos (0.0, 0.05, 0.0)?</title>
<ellipse fill="gray" stroke="black" cx="266.31" cy="-18" rx="60.09" ry="18"/>
<text text-anchor="middle" x="266.31" y="-15.8" font-family="Times,serif" font-size="9.00">0 at pos (0.0, 0.05, 0.0)?</text>
</g>
<!-- Sequence*&#45;&gt;0 at pos (0.0, 0.05, 0.0)? -->
<g id="edge5" class="edge">
<title>Sequence*&#45;&gt;0 at pos (0.0, 0.05, 0.0)?</title>
<path fill="none" stroke="black" d="M356.98,-75.67C340.76,-65.53 318.15,-51.4 299.56,-39.78"/>
<polygon fill="black" stroke="black" points="301.41,-36.81 291.08,-34.48 297.7,-42.75 301.41,-36.81"/>
</g>
<!-- pick 2! -->
<g id="node7" class="node">
<title>pick 2!</title>
<ellipse fill="gray" stroke="black" cx="371.31" cy="-18" rx="27" ry="18"/>
<text text-anchor="middle" x="371.31" y="-15.8" font-family="Times,serif" font-size="9.00">pick 2!</text>
</g>
<!-- Sequence*&#45;&gt;pick 2! -->
<g id="edge6" class="edge">
<title>Sequence*&#45;&gt;pick 2!</title>
<path fill="none" stroke="black" d="M376.58,-71.7C375.81,-63.98 374.88,-54.71 374.02,-46.11"/>
<polygon fill="black" stroke="black" points="377.5,-45.71 373.02,-36.1 370.54,-46.4 377.5,-45.71"/>
</g>
<!-- place at (0.0, 0.05, 0.0)!* -->
<g id="node8" class="node">
<title>place at (0.0, 0.05, 0.0)!*</title>
<ellipse fill="gray" stroke="black" cx="477.31" cy="-18" rx="61.4" ry="18"/>
<text text-anchor="middle" x="477.31" y="-15.8" font-family="Times,serif" font-size="9.00">place at (0.0, 0.05, 0.0)!*</text>
</g>
<!-- Sequence*&#45;&gt;place at (0.0, 0.05, 0.0)!* -->
<g id="edge7" class="edge">
<title>Sequence*&#45;&gt;place at (0.0, 0.05, 0.0)!*</title>
<path fill="none" stroke="black" d="M398.35,-74.83C412.17,-65.06 430.82,-51.88 446.52,-40.77"/>
<polygon fill="black" stroke="black" points="448.75,-43.49 454.89,-34.85 444.7,-37.77 448.75,-43.49"/>
</g>
<!-- pick 0!* -->
<g id="node11" class="node">
<title>pick 0!*</title>
<ellipse fill="gray" stroke="black" cx="583.31" cy="-18" rx="27" ry="18"/>
<text text-anchor="middle" x="583.31" y="-15.8" font-family="Times,serif" font-size="9.00">pick 0!*</text>
</g>
<!-- Sequence**&#45;&gt;pick 0!* -->
<g id="edge10" class="edge">
<title>Sequence**&#45;&gt;pick 0!*</title>
<path fill="none" stroke="black" d="M634.09,-72.05C625.21,-62.77 614.08,-51.15 604.51,-41.15"/>
<polygon fill="black" stroke="black" points="607.01,-38.69 597.56,-33.89 601.95,-43.53 607.01,-38.69"/>
</g>
<!-- pick 0!** -->
<g id="node12" class="node">
<title>pick 0!**</title>
<ellipse fill="gray" stroke="black" cx="657.31" cy="-18" rx="28.74" ry="18"/>
<text text-anchor="middle" x="657.31" y="-15.8" font-family="Times,serif" font-size="9.00">pick 0!**</text>
</g>
<!-- Sequence**&#45;&gt;pick 0!** -->
<g id="edge11" class="edge">
<title>Sequence**&#45;&gt;pick 0!**</title>
<path fill="none" stroke="black" d="M652.04,-71.7C652.81,-63.98 653.74,-54.71 654.6,-46.11"/>
<polygon fill="black" stroke="black" points="658.09,-46.4 655.6,-36.1 651.12,-45.71 658.09,-46.4"/>
</g>
<!-- place at (0.0, 0.05, 0.0)!** -->
<g id="node13" class="node">
<title>place at (0.0, 0.05, 0.0)!**</title>
<ellipse fill="gray" stroke="black" cx="767.31" cy="-18" rx="63.52" ry="18"/>
<text text-anchor="middle" x="767.31" y="-15.8" font-family="Times,serif" font-size="9.00">place at (0.0, 0.05, 0.0)!**</text>
</g>
<!-- Sequence**&#45;&gt;place at (0.0, 0.05, 0.0)!** -->
<g id="edge12" class="edge">
<title>Sequence**&#45;&gt;place at (0.0, 0.05, 0.0)!**</title>
<path fill="none" stroke="black" d="M672.87,-75.5C689.72,-65.42 713.08,-51.45 732.34,-39.92"/>
<polygon fill="black" stroke="black" points="734.36,-42.79 741.15,-34.65 730.77,-36.79 734.36,-42.79"/>
</g>
<!-- place at (0.0, 0.05, 0.0)!*** -->
<g id="node14" class="node">
<title>place at (0.0, 0.05, 0.0)!***</title>
<ellipse fill="gray" stroke="black" cx="915.31" cy="-18" rx="66.29" ry="18"/>
<text text-anchor="middle" x="915.31" y="-15.8" font-family="Times,serif" font-size="9.00">place at (0.0, 0.05, 0.0)!***</text>
</g>
<!-- Sequence**&#45;&gt;place at (0.0, 0.05, 0.0)!*** -->
<g id="edge13" class="edge">
<title>Sequence**&#45;&gt;place at (0.0, 0.05, 0.0)!***</title>
<path fill="none" stroke="black" d="M678.36,-78.05C684.24,-75.91 690.45,-73.79 696.31,-72 725.82,-63.01 802.06,-44.99 856.28,-32.47"/>
<polygon fill="black" stroke="black" points="857.17,-35.86 866.13,-30.2 855.6,-29.03 857.17,-35.86"/>
</g>
</g>
</svg>
