<?xml version="1.0" encoding="UTF-8" standalone="no"?>
<!DOCTYPE svg PUBLIC "-//W3C//DTD SVG 1.1//EN"
 "http://www.w3.org/Graphics/SVG/1.1/DTD/svg11.dtd">
<!-- Generated by graphviz version 2.43.0 (0)
 -->
<!-- Title: pastafarianism Pages: 1 -->
<svg width="993pt" height="188pt"
 viewBox="0.00 0.00 993.18 188.00" xmlns="http://www.w3.org/2000/svg" xmlns:xlink="http://www.w3.org/1999/xlink">
<g id="graph0" class="graph" transform="scale(1 1) rotate(0) translate(4 184)">
<title>pastafarianism</title>
<polygon fill="white" stroke="transparent" points="-4,4 -4,-184 989.18,-184 989.18,4 -4,4"/>
<!-- Fallback -->
<g id="node1" class="node">
<title>Fallback</title>
<polygon fill="cyan" stroke="black" points="649.56,-154.54 649.56,-169.46 632.43,-180 608.2,-180 591.07,-169.46 591.07,-154.54 608.2,-144 632.43,-144 649.56,-154.54"/>
<text text-anchor="middle" x="620.31" y="-159.8" font-family="Times,serif" font-size="9.00">Fallback</text>
</g>
<!-- Sequence -->
<g id="node2" class="node">
<title>Sequence</title>
<polygon fill="cyan" stroke="black" points="298.81,-82.54 298.81,-97.46 280.36,-108 254.27,-108 235.82,-97.46 235.82,-82.54 254.27,-72 280.36,-72 298.81,-82.54"/>
<text text-anchor="middle" x="267.31" y="-87.8" font-family="Times,serif" font-size="9.00">Sequence</text>
</g>
<!-- Fallback&#45;&gt;Sequence -->
<g id="edge1" class="edge">
<title>Fallback&#45;&gt;Sequence</title>
<path fill="none" stroke="black" d="M590.82,-155.15C528.04,-142.7 381.03,-113.55 308.82,-99.23"/>
<polygon fill="black" stroke="black" points="309.22,-95.74 298.73,-97.23 307.86,-102.61 309.22,-95.74"/>
</g>
<!-- Sequence* -->
<g id="node6" class="node">
<title>Sequence*</title>
<polygon fill="cyan" stroke="black" points="539.55,-82.54 539.55,-97.46 519.5,-108 491.13,-108 471.07,-97.46 471.07,-82.54 491.13,-72 519.5,-72 539.55,-82.54"/>
<text text-anchor="middle" x="505.31" y="-87.8" font-family="Times,serif" font-size="9.00">Sequence*</text>
</g>
<!-- Fallback&#45;&gt;Sequence* -->
<g id="edge5" class="edge">
<title>Fallback&#45;&gt;Sequence*</title>
<path fill="none" stroke="black" d="M600.28,-148.81C582.45,-137.96 556.12,-121.93 535.7,-109.5"/>
<polygon fill="black" stroke="black" points="537.43,-106.45 527.07,-104.24 533.79,-112.43 537.43,-106.45"/>
</g>
<!-- 0 at pos (0.0, 0.05, 0.0)?* -->
<g id="node9" class="node">
<title>0 at pos (0.0, 0.05, 0.0)?*</title>
<ellipse fill="gray" stroke="black" cx="620.31" cy="-90" rx="62.21" ry="18"/>
<text text-anchor="middle" x="620.31" y="-87.8" font-family="Times,serif" font-size="9.00">0 at pos (0.0, 0.05, 0.0)?*</text>
</g>
<!-- Fallback&#45;&gt;0 at pos (0.0, 0.05, 0.0)?* -->
<g id="edge8" class="edge">
<title>Fallback&#45;&gt;0 at pos (0.0, 0.05, 0.0)?*</title>
<path fill="none" stroke="black" d="M620.31,-143.7C620.31,-135.98 620.31,-126.71 620.31,-118.11"/>
<polygon fill="black" stroke="black" points="623.81,-118.1 620.31,-108.1 616.81,-118.1 623.81,-118.1"/>
</g>
<!-- Sequence** -->
<g id="node10" class="node">
<title>Sequence**</title>
<polygon fill="cyan" stroke="black" points="774.05,-82.54 774.05,-97.46 752.53,-108 722.09,-108 700.57,-97.46 700.57,-82.54 722.09,-72 752.53,-72 774.05,-82.54"/>
<text text-anchor="middle" x="737.31" y="-87.8" font-family="Times,serif" font-size="9.00">Sequence**</text>
</g>
<!-- Fallback&#45;&gt;Sequence** -->
<g id="edge9" class="edge">
<title>Fallback&#45;&gt;Sequence**</title>
<path fill="none" stroke="black" d="M640.69,-148.81C658.71,-138.02 685.29,-122.13 706,-109.73"/>
<polygon fill="black" stroke="black" points="707.99,-112.62 714.77,-104.49 704.39,-106.62 707.99,-112.62"/>
</g>
<!-- place at (0.0, 0.05, 0.0)!*** -->
<g id="node15" class="node">
<title>place at (0.0, 0.05, 0.0)!***</title>
<ellipse fill="gray" stroke="black" cx="858.31" cy="-90" rx="66.29" ry="18"/>
<text text-anchor="middle" x="858.31" y="-87.8" font-family="Times,serif" font-size="9.00">place at (0.0, 0.05, 0.0)!***</text>
</g>
<!-- Fallback&#45;&gt;place at (0.0, 0.05, 0.0)!*** -->
<g id="edge14" class="edge">
<title>Fallback&#45;&gt;place at (0.0, 0.05, 0.0)!***</title>
<path fill="none" stroke="black" d="M647.61,-152.97C685.88,-141.72 756.25,-121.02 805.08,-106.66"/>
<polygon fill="black" stroke="black" points="806.24,-109.96 814.85,-103.78 804.26,-103.25 806.24,-109.96"/>
</g>
<!-- place at (0.0, 0.05, 0.0)! -->
<g id="node3" class="node">
<title>place at (0.0, 0.05, 0.0)!</title>
<ellipse fill="gray" stroke="black" cx="58.31" cy="-18" rx="58.13" ry="18"/>
<text text-anchor="middle" x="58.31" y="-15.8" font-family="Times,serif" font-size="9.00">place at (0.0, 0.05, 0.0)!</text>
</g>
<!-- Sequence&#45;&gt;place at (0.0, 0.05, 0.0)! -->
<g id="edge2" class="edge">
<title>Sequence&#45;&gt;place at (0.0, 0.05, 0.0)!</title>
<path fill="none" stroke="black" d="M239.99,-79.85C205.98,-68.46 147.33,-48.82 105.88,-34.93"/>
<polygon fill="black" stroke="black" points="106.86,-31.57 96.27,-31.71 104.64,-38.21 106.86,-31.57"/>
</g>
<!-- 0 at pos (0.0, 0.05, 0.0)? -->
<g id="node4" class="node">
<title>0 at pos (0.0, 0.05, 0.0)?</title>
<ellipse fill="gray" stroke="black" cx="194.31" cy="-18" rx="60.09" ry="18"/>
<text text-anchor="middle" x="194.31" y="-15.8" font-family="Times,serif" font-size="9.00">0 at pos (0.0, 0.05, 0.0)?</text>
</g>
<!-- Sequence&#45;&gt;0 at pos (0.0, 0.05, 0.0)? -->
<g id="edge3" class="edge">
<title>Sequence&#45;&gt;0 at pos (0.0, 0.05, 0.0)?</title>
<path fill="none" stroke="black" d="M251.11,-73.46C241.65,-64.39 229.51,-52.75 218.89,-42.57"/>
<polygon fill="black" stroke="black" points="221.13,-39.86 211.49,-35.47 216.28,-44.91 221.13,-39.86"/>
</g>
<!-- 2 at pos (0.0, 0.05, 0.0384)? -->
<g id="node5" class="node">
<title>2 at pos (0.0, 0.05, 0.0384)?</title>
<ellipse fill="gray" stroke="black" cx="340.31" cy="-18" rx="67.6" ry="18"/>
<text text-anchor="middle" x="340.31" y="-15.8" font-family="Times,serif" font-size="9.00">2 at pos (0.0, 0.05, 0.0384)?</text>
</g>
<!-- Sequence&#45;&gt;2 at pos (0.0, 0.05, 0.0384)? -->
<g id="edge4" class="edge">
<title>Sequence&#45;&gt;2 at pos (0.0, 0.05, 0.0384)?</title>
<path fill="none" stroke="black" d="M283.51,-73.46C292.98,-64.39 305.11,-52.75 315.73,-42.57"/>
<polygon fill="black" stroke="black" points="318.34,-44.91 323.14,-35.47 313.5,-39.86 318.34,-44.91"/>
</g>
<!-- pick 2! -->
<g id="node7" class="node">
<title>pick 2!</title>
<ellipse fill="gray" stroke="black" cx="453.31" cy="-18" rx="27" ry="18"/>
<text text-anchor="middle" x="453.31" y="-15.8" font-family="Times,serif" font-size="9.00">pick 2!</text>
</g>
<!-- Sequence*&#45;&gt;pick 2! -->
<g id="edge6" class="edge">
<title>Sequence*&#45;&gt;pick 2!</title>
<path fill="none" stroke="black" d="M492.46,-71.7C486.01,-63.02 478.1,-52.37 471.08,-42.92"/>
<polygon fill="black" stroke="black" points="473.73,-40.61 464.95,-34.67 468.11,-44.79 473.73,-40.61"/>
</g>
<!-- place at (0.0, 0.05, 0.0)!* -->
<g id="node8" class="node">
<title>place at (0.0, 0.05, 0.0)!*</title>
<ellipse fill="gray" stroke="black" cx="559.31" cy="-18" rx="61.4" ry="18"/>
<text text-anchor="middle" x="559.31" y="-15.8" font-family="Times,serif" font-size="9.00">place at (0.0, 0.05, 0.0)!*</text>
</g>
<!-- Sequence*&#45;&gt;place at (0.0, 0.05, 0.0)!* -->
<g id="edge7" class="edge">
<title>Sequence*&#45;&gt;place at (0.0, 0.05, 0.0)!*</title>
<path fill="none" stroke="black" d="M518.66,-71.7C525.16,-63.27 533.1,-52.97 540.23,-43.73"/>
<polygon fill="black" stroke="black" points="543.15,-45.68 546.49,-35.62 537.61,-41.4 543.15,-45.68"/>
</g>
<!-- pick 0! -->
<g id="node11" class="node">
<title>pick 0!</title>
<ellipse fill="gray" stroke="black" cx="665.31" cy="-18" rx="27" ry="18"/>
<text text-anchor="middle" x="665.31" y="-15.8" font-family="Times,serif" font-size="9.00">pick 0!</text>
</g>
<!-- Sequence**&#45;&gt;pick 0! -->
<g id="edge10" class="edge">
<title>Sequence**&#45;&gt;pick 0!</title>
<path fill="none" stroke="black" d="M720.25,-72.41C710.48,-62.91 698.11,-50.88 687.58,-40.65"/>
<polygon fill="black" stroke="black" points="689.91,-38.03 680.3,-33.57 685.03,-43.05 689.91,-38.03"/>
</g>
<!-- pick 0!* -->
<g id="node12" class="node">
<title>pick 0!*</title>
<ellipse fill="gray" stroke="black" cx="737.31" cy="-18" rx="27" ry="18"/>
<text text-anchor="middle" x="737.31" y="-15.8" font-family="Times,serif" font-size="9.00">pick 0!*</text>
</g>
<!-- Sequence**&#45;&gt;pick 0!* -->
<g id="edge11" class="edge">
<title>Sequence**&#45;&gt;pick 0!*</title>
<path fill="none" stroke="black" d="M737.31,-71.7C737.31,-63.98 737.31,-54.71 737.31,-46.11"/>
<polygon fill="black" stroke="black" points="740.81,-46.1 737.31,-36.1 733.81,-46.1 740.81,-46.1"/>
</g>
<!-- place at (0.0, 0.05, 0.0)!** -->
<g id="node13" class="node">
<title>place at (0.0, 0.05, 0.0)!**</title>
<ellipse fill="gray" stroke="black" cx="846.31" cy="-18" rx="63.52" ry="18"/>
<text text-anchor="middle" x="846.31" y="-15.8" font-family="Times,serif" font-size="9.00">place at (0.0, 0.05, 0.0)!**</text>
</g>
<!-- Sequence**&#45;&gt;place at (0.0, 0.05, 0.0)!** -->
<g id="edge12" class="edge">
<title>Sequence**&#45;&gt;place at (0.0, 0.05, 0.0)!**</title>
<path fill="none" stroke="black" d="M759.11,-75C774.56,-65.08 795.57,-51.59 813.1,-40.33"/>
<polygon fill="black" stroke="black" points="815.37,-43.03 821.9,-34.68 811.59,-37.14 815.37,-43.03"/>
</g>
<!-- pick 0!** -->
<g id="node14" class="node">
<title>pick 0!**</title>
<ellipse fill="gray" stroke="black" cx="956.31" cy="-18" rx="28.74" ry="18"/>
<text text-anchor="middle" x="956.31" y="-15.8" font-family="Times,serif" font-size="9.00">pick 0!**</text>
</g>
<!-- Sequence**&#45;&gt;pick 0!** -->
<g id="edge13" class="edge">
<title>Sequence**&#45;&gt;pick 0!**</title>
<path fill="none" stroke="black" d="M765.39,-78.14C771.27,-76 777.47,-73.85 783.31,-72 842.93,-53.14 860.46,-57.13 919.31,-36 921.16,-35.34 923.04,-34.62 924.93,-33.86"/>
<polygon fill="black" stroke="black" points="926.44,-37.02 934.27,-29.88 923.69,-30.58 926.44,-37.02"/>
</g>
</g>
</svg>
