<?xml version="1.0" encoding="UTF-8" standalone="no"?>
<!DOCTYPE svg PUBLIC "-//W3C//DTD SVG 1.1//EN"
 "http://www.w3.org/Graphics/SVG/1.1/DTD/svg11.dtd">
<!-- Generated by graphviz version 2.43.0 (0)
 -->
<!-- Title: pastafarianism Pages: 1 -->
<svg width="1219pt" height="188pt"
 viewBox="0.00 0.00 1218.75 188.00" xmlns="http://www.w3.org/2000/svg" xmlns:xlink="http://www.w3.org/1999/xlink">
<g id="graph0" class="graph" transform="scale(1 1) rotate(0) translate(4 184)">
<title>pastafarianism</title>
<polygon fill="white" stroke="transparent" points="-4,4 -4,-184 1214.75,-184 1214.75,4 -4,4"/>
<!-- Fallback -->
<g id="node1" class="node">
<title>Fallback</title>
<polygon fill="cyan" stroke="black" points="683.56,-154.54 683.56,-169.46 666.43,-180 642.2,-180 625.07,-169.46 625.07,-154.54 642.2,-144 666.43,-144 683.56,-154.54"/>
<text text-anchor="middle" x="654.31" y="-159.8" font-family="Times,serif" font-size="9.00">Fallback</text>
</g>
<!-- Sequence -->
<g id="node2" class="node">
<title>Sequence</title>
<polygon fill="cyan" stroke="black" points="298.81,-82.54 298.81,-97.46 280.36,-108 254.27,-108 235.82,-97.46 235.82,-82.54 254.27,-72 280.36,-72 298.81,-82.54"/>
<text text-anchor="middle" x="267.31" y="-87.8" font-family="Times,serif" font-size="9.00">Sequence</text>
</g>
<!-- Fallback&#45;&gt;Sequence -->
<g id="edge1" class="edge">
<title>Fallback&#45;&gt;Sequence</title>
<path fill="none" stroke="black" d="M624.91,-155.68C556.71,-143.35 387.59,-112.76 308.86,-98.52"/>
<polygon fill="black" stroke="black" points="309.28,-95.04 298.82,-96.7 308.04,-101.92 309.28,-95.04"/>
</g>
<!-- Sequence* -->
<g id="node6" class="node">
<title>Sequence*</title>
<polygon fill="cyan" stroke="black" points="629.55,-82.54 629.55,-97.46 609.5,-108 581.13,-108 561.07,-97.46 561.07,-82.54 581.13,-72 609.5,-72 629.55,-82.54"/>
<text text-anchor="middle" x="595.31" y="-87.8" font-family="Times,serif" font-size="9.00">Sequence*</text>
</g>
<!-- Fallback&#45;&gt;Sequence* -->
<g id="edge5" class="edge">
<title>Fallback&#45;&gt;Sequence*</title>
<path fill="none" stroke="black" d="M640.63,-144.76C633.39,-136.18 624.36,-125.46 616.26,-115.86"/>
<polygon fill="black" stroke="black" points="618.87,-113.51 609.75,-108.12 613.51,-118.03 618.87,-113.51"/>
</g>
<!-- 0 at pos (0.0, 0.05, 0.0)?** -->
<g id="node10" class="node">
<title>0 at pos (0.0, 0.05, 0.0)?**</title>
<ellipse fill="gray" stroke="black" cx="713.31" cy="-90" rx="65.48" ry="18"/>
<text text-anchor="middle" x="713.31" y="-87.8" font-family="Times,serif" font-size="9.00">0 at pos (0.0, 0.05, 0.0)?**</text>
</g>
<!-- Fallback&#45;&gt;0 at pos (0.0, 0.05, 0.0)?** -->
<g id="edge9" class="edge">
<title>Fallback&#45;&gt;0 at pos (0.0, 0.05, 0.0)?**</title>
<path fill="none" stroke="black" d="M668,-144.76C675.34,-136.06 684.53,-125.15 692.72,-115.43"/>
<polygon fill="black" stroke="black" points="695.52,-117.54 699.29,-107.63 690.17,-113.02 695.52,-117.54"/>
</g>
<!-- Sequence** -->
<g id="node11" class="node">
<title>Sequence**</title>
<polygon fill="cyan" stroke="black" points="953.05,-82.54 953.05,-97.46 931.53,-108 901.09,-108 879.57,-97.46 879.57,-82.54 901.09,-72 931.53,-72 953.05,-82.54"/>
<text text-anchor="middle" x="916.31" y="-87.8" font-family="Times,serif" font-size="9.00">Sequence**</text>
</g>
<!-- Fallback&#45;&gt;Sequence** -->
<g id="edge10" class="edge">
<title>Fallback&#45;&gt;Sequence**</title>
<path fill="none" stroke="black" d="M682.35,-153.51C728.36,-141.22 820.15,-116.69 874.07,-102.29"/>
<polygon fill="black" stroke="black" points="875.24,-105.6 884,-99.63 873.43,-98.83 875.24,-105.6"/>
</g>
<!-- place at (0.0, 0.05, 0.0)! -->
<g id="node3" class="node">
<title>place at (0.0, 0.05, 0.0)!</title>
<ellipse fill="gray" stroke="black" cx="58.31" cy="-18" rx="58.13" ry="18"/>
<text text-anchor="middle" x="58.31" y="-15.8" font-family="Times,serif" font-size="9.00">place at (0.0, 0.05, 0.0)!</text>
</g>
<!-- Sequence&#45;&gt;place at (0.0, 0.05, 0.0)! -->
<g id="edge2" class="edge">
<title>Sequence&#45;&gt;place at (0.0, 0.05, 0.0)!</title>
<path fill="none" stroke="black" d="M239.99,-79.85C205.98,-68.46 147.33,-48.82 105.88,-34.93"/>
<polygon fill="black" stroke="black" points="106.86,-31.57 96.27,-31.71 104.64,-38.21 106.86,-31.57"/>
</g>
<!-- 0 at pos (0.0, 0.05, 0.0)? -->
<g id="node4" class="node">
<title>0 at pos (0.0, 0.05, 0.0)?</title>
<ellipse fill="gray" stroke="black" cx="194.31" cy="-18" rx="60.09" ry="18"/>
<text text-anchor="middle" x="194.31" y="-15.8" font-family="Times,serif" font-size="9.00">0 at pos (0.0, 0.05, 0.0)?</text>
</g>
<!-- Sequence&#45;&gt;0 at pos (0.0, 0.05, 0.0)? -->
<g id="edge3" class="edge">
<title>Sequence&#45;&gt;0 at pos (0.0, 0.05, 0.0)?</title>
<path fill="none" stroke="black" d="M251.11,-73.46C241.65,-64.39 229.51,-52.75 218.89,-42.57"/>
<polygon fill="black" stroke="black" points="221.13,-39.86 211.49,-35.47 216.28,-44.91 221.13,-39.86"/>
</g>
<!-- 2 at pos (0.0, 0.05, 0.0384)? -->
<g id="node5" class="node">
<title>2 at pos (0.0, 0.05, 0.0384)?</title>
<ellipse fill="gray" stroke="black" cx="340.31" cy="-18" rx="67.6" ry="18"/>
<text text-anchor="middle" x="340.31" y="-15.8" font-family="Times,serif" font-size="9.00">2 at pos (0.0, 0.05, 0.0384)?</text>
</g>
<!-- Sequence&#45;&gt;2 at pos (0.0, 0.05, 0.0384)? -->
<g id="edge4" class="edge">
<title>Sequence&#45;&gt;2 at pos (0.0, 0.05, 0.0384)?</title>
<path fill="none" stroke="black" d="M283.51,-73.46C292.98,-64.39 305.11,-52.75 315.73,-42.57"/>
<polygon fill="black" stroke="black" points="318.34,-44.91 323.14,-35.47 313.5,-39.86 318.34,-44.91"/>
</g>
<!-- 0 at pos (0.0, 0.05, 0.0)?* -->
<g id="node7" class="node">
<title>0 at pos (0.0, 0.05, 0.0)?*</title>
<ellipse fill="gray" stroke="black" cx="488.31" cy="-18" rx="62.21" ry="18"/>
<text text-anchor="middle" x="488.31" y="-15.8" font-family="Times,serif" font-size="9.00">0 at pos (0.0, 0.05, 0.0)?*</text>
</g>
<!-- Sequence*&#45;&gt;0 at pos (0.0, 0.05, 0.0)?* -->
<g id="edge6" class="edge">
<title>Sequence*&#45;&gt;0 at pos (0.0, 0.05, 0.0)?*</title>
<path fill="none" stroke="black" d="M574.43,-75.34C559.3,-65.44 538.56,-51.87 521.22,-40.53"/>
<polygon fill="black" stroke="black" points="522.8,-37.38 512.51,-34.83 518.96,-43.23 522.8,-37.38"/>
</g>
<!-- pick 2! -->
<g id="node8" class="node">
<title>pick 2!</title>
<ellipse fill="gray" stroke="black" cx="595.31" cy="-18" rx="27" ry="18"/>
<text text-anchor="middle" x="595.31" y="-15.8" font-family="Times,serif" font-size="9.00">pick 2!</text>
</g>
<!-- Sequence*&#45;&gt;pick 2! -->
<g id="edge7" class="edge">
<title>Sequence*&#45;&gt;pick 2!</title>
<path fill="none" stroke="black" d="M595.31,-71.7C595.31,-63.98 595.31,-54.71 595.31,-46.11"/>
<polygon fill="black" stroke="black" points="598.81,-46.1 595.31,-36.1 591.81,-46.1 598.81,-46.1"/>
</g>
<!-- place at (0.0, 0.05, 0.0)!* -->
<g id="node9" class="node">
<title>place at (0.0, 0.05, 0.0)!*</title>
<ellipse fill="gray" stroke="black" cx="701.31" cy="-18" rx="61.4" ry="18"/>
<text text-anchor="middle" x="701.31" y="-15.8" font-family="Times,serif" font-size="9.00">place at (0.0, 0.05, 0.0)!*</text>
</g>
<!-- Sequence*&#45;&gt;place at (0.0, 0.05, 0.0)!* -->
<g id="edge8" class="edge">
<title>Sequence*&#45;&gt;place at (0.0, 0.05, 0.0)!*</title>
<path fill="none" stroke="black" d="M616,-75.34C630.98,-65.44 651.53,-51.87 668.71,-40.53"/>
<polygon fill="black" stroke="black" points="670.92,-43.26 677.34,-34.83 667.07,-37.42 670.92,-43.26"/>
</g>
<!-- pick 0! -->
<g id="node12" class="node">
<title>pick 0!</title>
<ellipse fill="gray" stroke="black" cx="807.31" cy="-18" rx="27" ry="18"/>
<text text-anchor="middle" x="807.31" y="-15.8" font-family="Times,serif" font-size="9.00">pick 0!</text>
</g>
<!-- Sequence**&#45;&gt;pick 0! -->
<g id="edge11" class="edge">
<title>Sequence**&#45;&gt;pick 0!</title>
<path fill="none" stroke="black" d="M894.52,-75C877.32,-63.96 853.24,-48.5 834.74,-36.62"/>
<polygon fill="black" stroke="black" points="836.47,-33.56 826.16,-31.11 832.68,-39.45 836.47,-33.56"/>
</g>
<!-- place at (0.0, 0.05, 0.0)!** -->
<g id="node13" class="node">
<title>place at (0.0, 0.05, 0.0)!**</title>
<ellipse fill="gray" stroke="black" cx="916.31" cy="-18" rx="63.52" ry="18"/>
<text text-anchor="middle" x="916.31" y="-15.8" font-family="Times,serif" font-size="9.00">place at (0.0, 0.05, 0.0)!**</text>
</g>
<!-- Sequence**&#45;&gt;place at (0.0, 0.05, 0.0)!** -->
<g id="edge12" class="edge">
<title>Sequence**&#45;&gt;place at (0.0, 0.05, 0.0)!**</title>
<path fill="none" stroke="black" d="M916.31,-71.7C916.31,-63.98 916.31,-54.71 916.31,-46.11"/>
<polygon fill="black" stroke="black" points="919.81,-46.1 916.31,-36.1 912.81,-46.1 919.81,-46.1"/>
</g>
<!-- pick 0!* -->
<g id="node14" class="node">
<title>pick 0!*</title>
<ellipse fill="gray" stroke="black" cx="1025.31" cy="-18" rx="27" ry="18"/>
<text text-anchor="middle" x="1025.31" y="-15.8" font-family="Times,serif" font-size="9.00">pick 0!*</text>
</g>
<!-- Sequence**&#45;&gt;pick 0!* -->
<g id="edge13" class="edge">
<title>Sequence**&#45;&gt;pick 0!*</title>
<path fill="none" stroke="black" d="M938.11,-75C955.3,-63.96 979.38,-48.5 997.88,-36.62"/>
<polygon fill="black" stroke="black" points="999.94,-39.45 1006.46,-31.11 996.16,-33.56 999.94,-39.45"/>
</g>
<!-- 2 at pos (0.0, 0.05, 0.0384)?* -->
<g id="node15" class="node">
<title>2 at pos (0.0, 0.05, 0.0384)?*</title>
<ellipse fill="gray" stroke="black" cx="1140.31" cy="-18" rx="70.37" ry="18"/>
<text text-anchor="middle" x="1140.31" y="-15.8" font-family="Times,serif" font-size="9.00">2 at pos (0.0, 0.05, 0.0384)?*</text>
</g>
<!-- Sequence**&#45;&gt;2 at pos (0.0, 0.05, 0.0384)?* -->
<g id="edge14" class="edge">
<title>Sequence**&#45;&gt;2 at pos (0.0, 0.05, 0.0384)?*</title>
<path fill="none" stroke="black" d="M946.99,-79.41C983.19,-68.1 1043.99,-49.1 1087.75,-35.43"/>
<polygon fill="black" stroke="black" points="1088.87,-38.74 1097.37,-32.42 1086.78,-32.06 1088.87,-38.74"/>
</g>
</g>
</svg>
