<?xml version="1.0" encoding="UTF-8" standalone="no"?>
<!DOCTYPE svg PUBLIC "-//W3C//DTD SVG 1.1//EN"
 "http://www.w3.org/Graphics/SVG/1.1/DTD/svg11.dtd">
<!-- Generated by graphviz version 2.43.0 (0)
 -->
<!-- Title: pastafarianism Pages: 1 -->
<svg width="1286pt" height="188pt"
 viewBox="0.00 0.00 1286.18 188.00" xmlns="http://www.w3.org/2000/svg" xmlns:xlink="http://www.w3.org/1999/xlink">
<g id="graph0" class="graph" transform="scale(1 1) rotate(0) translate(4 184)">
<title>pastafarianism</title>
<polygon fill="white" stroke="transparent" points="-4,4 -4,-184 1282.18,-184 1282.18,4 -4,4"/>
<!-- Fallback -->
<g id="node1" class="node">
<title>Fallback</title>
<polygon fill="cyan" stroke="black" points="765.56,-154.54 765.56,-169.46 748.43,-180 724.2,-180 707.07,-169.46 707.07,-154.54 724.2,-144 748.43,-144 765.56,-154.54"/>
<text text-anchor="middle" x="736.31" y="-159.8" font-family="Times,serif" font-size="9.00">Fallback</text>
</g>
<!-- Sequence -->
<g id="node2" class="node">
<title>Sequence</title>
<polygon fill="cyan" stroke="black" points="298.81,-82.54 298.81,-97.46 280.36,-108 254.27,-108 235.82,-97.46 235.82,-82.54 254.27,-72 280.36,-72 298.81,-82.54"/>
<text text-anchor="middle" x="267.31" y="-87.8" font-family="Times,serif" font-size="9.00">Sequence</text>
</g>
<!-- Fallback&#45;&gt;Sequence -->
<g id="edge1" class="edge">
<title>Fallback&#45;&gt;Sequence</title>
<path fill="none" stroke="black" d="M706.97,-156.62C626.47,-144.61 401.91,-111.09 308.69,-97.18"/>
<polygon fill="black" stroke="black" points="309.18,-93.71 298.78,-95.7 308.15,-100.63 309.18,-93.71"/>
</g>
<!-- Sequence* -->
<g id="node6" class="node">
<title>Sequence*</title>
<polygon fill="cyan" stroke="black" points="640.55,-82.54 640.55,-97.46 620.5,-108 592.13,-108 572.07,-97.46 572.07,-82.54 592.13,-72 620.5,-72 640.55,-82.54"/>
<text text-anchor="middle" x="606.31" y="-87.8" font-family="Times,serif" font-size="9.00">Sequence*</text>
</g>
<!-- Fallback&#45;&gt;Sequence* -->
<g id="edge5" class="edge">
<title>Fallback&#45;&gt;Sequence*</title>
<path fill="none" stroke="black" d="M714.85,-149.44C694.09,-138.27 662.38,-121.19 638.58,-108.38"/>
<polygon fill="black" stroke="black" points="640.03,-105.18 629.57,-103.52 636.71,-111.34 640.03,-105.18"/>
</g>
<!-- 0 at pos (0.0, 0.05, 0.0)?** -->
<g id="node10" class="node">
<title>0 at pos (0.0, 0.05, 0.0)?**</title>
<ellipse fill="gray" stroke="black" cx="736.31" cy="-90" rx="65.48" ry="18"/>
<text text-anchor="middle" x="736.31" y="-87.8" font-family="Times,serif" font-size="9.00">0 at pos (0.0, 0.05, 0.0)?**</text>
</g>
<!-- Fallback&#45;&gt;0 at pos (0.0, 0.05, 0.0)?** -->
<g id="edge9" class="edge">
<title>Fallback&#45;&gt;0 at pos (0.0, 0.05, 0.0)?**</title>
<path fill="none" stroke="black" d="M736.31,-143.7C736.31,-135.98 736.31,-126.71 736.31,-118.11"/>
<polygon fill="black" stroke="black" points="739.81,-118.1 736.31,-108.1 732.81,-118.1 739.81,-118.1"/>
</g>
<!-- Sequence** -->
<g id="node11" class="node">
<title>Sequence**</title>
<polygon fill="cyan" stroke="black" points="916.05,-82.54 916.05,-97.46 894.53,-108 864.09,-108 842.57,-97.46 842.57,-82.54 864.09,-72 894.53,-72 916.05,-82.54"/>
<text text-anchor="middle" x="879.31" y="-87.8" font-family="Times,serif" font-size="9.00">Sequence**</text>
</g>
<!-- Fallback&#45;&gt;Sequence** -->
<g id="edge10" class="edge">
<title>Fallback&#45;&gt;Sequence**</title>
<path fill="none" stroke="black" d="M758.66,-150.06C781.84,-138.71 818.4,-120.82 845.2,-107.7"/>
<polygon fill="black" stroke="black" points="846.8,-110.81 854.24,-103.27 843.72,-104.53 846.8,-110.81"/>
</g>
<!-- place at (0.0, 0.05, 0.0)!**** -->
<g id="node17" class="node">
<title>place at (0.0, 0.05, 0.0)!****</title>
<ellipse fill="gray" stroke="black" cx="1003.31" cy="-90" rx="68.91" ry="18"/>
<text text-anchor="middle" x="1003.31" y="-87.8" font-family="Times,serif" font-size="9.00">place at (0.0, 0.05, 0.0)!****</text>
</g>
<!-- Fallback&#45;&gt;place at (0.0, 0.05, 0.0)!**** -->
<g id="edge16" class="edge">
<title>Fallback&#45;&gt;place at (0.0, 0.05, 0.0)!****</title>
<path fill="none" stroke="black" d="M764.38,-153.64C807.45,-142.35 890.72,-120.52 946.67,-105.85"/>
<polygon fill="black" stroke="black" points="947.65,-109.21 956.44,-103.29 945.88,-102.44 947.65,-109.21"/>
</g>
<!-- place at (0.0, 0.05, 0.0)! -->
<g id="node3" class="node">
<title>place at (0.0, 0.05, 0.0)!</title>
<ellipse fill="gray" stroke="black" cx="58.31" cy="-18" rx="58.13" ry="18"/>
<text text-anchor="middle" x="58.31" y="-15.8" font-family="Times,serif" font-size="9.00">place at (0.0, 0.05, 0.0)!</text>
</g>
<!-- Sequence&#45;&gt;place at (0.0, 0.05, 0.0)! -->
<g id="edge2" class="edge">
<title>Sequence&#45;&gt;place at (0.0, 0.05, 0.0)!</title>
<path fill="none" stroke="black" d="M239.99,-79.85C205.98,-68.46 147.33,-48.82 105.88,-34.93"/>
<polygon fill="black" stroke="black" points="106.86,-31.57 96.27,-31.71 104.64,-38.21 106.86,-31.57"/>
</g>
<!-- 0 at pos (0.0, 0.05, 0.0)? -->
<g id="node4" class="node">
<title>0 at pos (0.0, 0.05, 0.0)?</title>
<ellipse fill="gray" stroke="black" cx="194.31" cy="-18" rx="60.09" ry="18"/>
<text text-anchor="middle" x="194.31" y="-15.8" font-family="Times,serif" font-size="9.00">0 at pos (0.0, 0.05, 0.0)?</text>
</g>
<!-- Sequence&#45;&gt;0 at pos (0.0, 0.05, 0.0)? -->
<g id="edge3" class="edge">
<title>Sequence&#45;&gt;0 at pos (0.0, 0.05, 0.0)?</title>
<path fill="none" stroke="black" d="M251.11,-73.46C241.65,-64.39 229.51,-52.75 218.89,-42.57"/>
<polygon fill="black" stroke="black" points="221.13,-39.86 211.49,-35.47 216.28,-44.91 221.13,-39.86"/>
</g>
<!-- 2 at pos (0.0, 0.05, 0.0384)? -->
<g id="node5" class="node">
<title>2 at pos (0.0, 0.05, 0.0384)?</title>
<ellipse fill="gray" stroke="black" cx="340.31" cy="-18" rx="67.6" ry="18"/>
<text text-anchor="middle" x="340.31" y="-15.8" font-family="Times,serif" font-size="9.00">2 at pos (0.0, 0.05, 0.0384)?</text>
</g>
<!-- Sequence&#45;&gt;2 at pos (0.0, 0.05, 0.0384)? -->
<g id="edge4" class="edge">
<title>Sequence&#45;&gt;2 at pos (0.0, 0.05, 0.0384)?</title>
<path fill="none" stroke="black" d="M283.51,-73.46C292.98,-64.39 305.11,-52.75 315.73,-42.57"/>
<polygon fill="black" stroke="black" points="318.34,-44.91 323.14,-35.47 313.5,-39.86 318.34,-44.91"/>
</g>
<!-- 0 at pos (0.0, 0.05, 0.0)?* -->
<g id="node7" class="node">
<title>0 at pos (0.0, 0.05, 0.0)?*</title>
<ellipse fill="gray" stroke="black" cx="488.31" cy="-18" rx="62.21" ry="18"/>
<text text-anchor="middle" x="488.31" y="-15.8" font-family="Times,serif" font-size="9.00">0 at pos (0.0, 0.05, 0.0)?*</text>
</g>
<!-- Sequence*&#45;&gt;0 at pos (0.0, 0.05, 0.0)?* -->
<g id="edge6" class="edge">
<title>Sequence*&#45;&gt;0 at pos (0.0, 0.05, 0.0)?*</title>
<path fill="none" stroke="black" d="M584.39,-76C567.17,-65.78 542.86,-51.36 523,-39.58"/>
<polygon fill="black" stroke="black" points="524.61,-36.47 514.23,-34.37 521.04,-42.49 524.61,-36.47"/>
</g>
<!-- pick 2! -->
<g id="node8" class="node">
<title>pick 2!</title>
<ellipse fill="gray" stroke="black" cx="595.31" cy="-18" rx="27" ry="18"/>
<text text-anchor="middle" x="595.31" y="-15.8" font-family="Times,serif" font-size="9.00">pick 2!</text>
</g>
<!-- Sequence*&#45;&gt;pick 2! -->
<g id="edge7" class="edge">
<title>Sequence*&#45;&gt;pick 2!</title>
<path fill="none" stroke="black" d="M603.59,-71.7C602.38,-63.98 600.92,-54.71 599.57,-46.11"/>
<polygon fill="black" stroke="black" points="603.01,-45.44 598,-36.1 596.1,-46.53 603.01,-45.44"/>
</g>
<!-- place at (0.0, 0.05, 0.0)!* -->
<g id="node9" class="node">
<title>place at (0.0, 0.05, 0.0)!*</title>
<ellipse fill="gray" stroke="black" cx="701.31" cy="-18" rx="61.4" ry="18"/>
<text text-anchor="middle" x="701.31" y="-15.8" font-family="Times,serif" font-size="9.00">place at (0.0, 0.05, 0.0)!*</text>
</g>
<!-- Sequence*&#45;&gt;place at (0.0, 0.05, 0.0)!* -->
<g id="edge8" class="edge">
<title>Sequence*&#45;&gt;place at (0.0, 0.05, 0.0)!*</title>
<path fill="none" stroke="black" d="M626,-74.5C639.08,-64.85 656.51,-52.01 671.31,-41.11"/>
<polygon fill="black" stroke="black" points="673.69,-43.7 679.67,-34.95 669.54,-38.06 673.69,-43.7"/>
</g>
<!-- pick 0! -->
<g id="node12" class="node">
<title>pick 0!</title>
<ellipse fill="gray" stroke="black" cx="807.31" cy="-18" rx="27" ry="18"/>
<text text-anchor="middle" x="807.31" y="-15.8" font-family="Times,serif" font-size="9.00">pick 0!</text>
</g>
<!-- Sequence**&#45;&gt;pick 0! -->
<g id="edge11" class="edge">
<title>Sequence**&#45;&gt;pick 0!</title>
<path fill="none" stroke="black" d="M862.25,-72.41C852.48,-62.91 840.11,-50.88 829.58,-40.65"/>
<polygon fill="black" stroke="black" points="831.91,-38.03 822.3,-33.57 827.03,-43.05 831.91,-38.03"/>
</g>
<!-- pick 0!* -->
<g id="node13" class="node">
<title>pick 0!*</title>
<ellipse fill="gray" stroke="black" cx="879.31" cy="-18" rx="27" ry="18"/>
<text text-anchor="middle" x="879.31" y="-15.8" font-family="Times,serif" font-size="9.00">pick 0!*</text>
</g>
<!-- Sequence**&#45;&gt;pick 0!* -->
<g id="edge12" class="edge">
<title>Sequence**&#45;&gt;pick 0!*</title>
<path fill="none" stroke="black" d="M879.31,-71.7C879.31,-63.98 879.31,-54.71 879.31,-46.11"/>
<polygon fill="black" stroke="black" points="882.81,-46.1 879.31,-36.1 875.81,-46.1 882.81,-46.1"/>
</g>
<!-- place at (0.0, 0.05, 0.0)!** -->
<g id="node14" class="node">
<title>place at (0.0, 0.05, 0.0)!**</title>
<ellipse fill="gray" stroke="black" cx="988.31" cy="-18" rx="63.52" ry="18"/>
<text text-anchor="middle" x="988.31" y="-15.8" font-family="Times,serif" font-size="9.00">place at (0.0, 0.05, 0.0)!**</text>
</g>
<!-- Sequence**&#45;&gt;place at (0.0, 0.05, 0.0)!** -->
<g id="edge13" class="edge">
<title>Sequence**&#45;&gt;place at (0.0, 0.05, 0.0)!**</title>
<path fill="none" stroke="black" d="M901.11,-75C916.56,-65.08 937.57,-51.59 955.1,-40.33"/>
<polygon fill="black" stroke="black" points="957.37,-43.03 963.9,-34.68 953.59,-37.14 957.37,-43.03"/>
</g>
<!-- place at (0.0, 0.05, 0.0)!*** -->
<g id="node15" class="node">
<title>place at (0.0, 0.05, 0.0)!***</title>
<ellipse fill="gray" stroke="black" cx="1136.31" cy="-18" rx="66.29" ry="18"/>
<text text-anchor="middle" x="1136.31" y="-15.8" font-family="Times,serif" font-size="9.00">place at (0.0, 0.05, 0.0)!***</text>
</g>
<!-- Sequence**&#45;&gt;place at (0.0, 0.05, 0.0)!*** -->
<g id="edge14" class="edge">
<title>Sequence**&#45;&gt;place at (0.0, 0.05, 0.0)!***</title>
<path fill="none" stroke="black" d="M907.37,-78.09C913.26,-75.95 919.46,-73.81 925.31,-72 953.53,-63.27 1026.04,-45.42 1078.18,-32.86"/>
<polygon fill="black" stroke="black" points="1079.09,-36.24 1087.99,-30.5 1077.45,-29.43 1079.09,-36.24"/>
</g>
<!-- pick 0!** -->
<g id="node16" class="node">
<title>pick 0!**</title>
<ellipse fill="gray" stroke="black" cx="1249.31" cy="-18" rx="28.74" ry="18"/>
<text text-anchor="middle" x="1249.31" y="-15.8" font-family="Times,serif" font-size="9.00">pick 0!**</text>
</g>
<!-- Sequence**&#45;&gt;pick 0!** -->
<g id="edge15" class="edge">
<title>Sequence**&#45;&gt;pick 0!**</title>
<path fill="none" stroke="black" d="M906.72,-77.71C912.77,-75.55 919.19,-73.5 925.31,-72 1049.77,-41.6 1087.94,-70.53 1211.31,-36 1213.6,-35.36 1215.93,-34.6 1218.25,-33.77"/>
<polygon fill="black" stroke="black" points="1219.63,-36.99 1227.62,-30.02 1217.03,-30.49 1219.63,-36.99"/>
</g>
</g>
</svg>
