<?xml version="1.0" encoding="UTF-8" standalone="no"?>
<!DOCTYPE svg PUBLIC "-//W3C//DTD SVG 1.1//EN"
 "http://www.w3.org/Graphics/SVG/1.1/DTD/svg11.dtd">
<!-- Generated by graphviz version 2.43.0 (0)
 -->
<!-- Title: pastafarianism Pages: 1 -->
<svg width="1369pt" height="188pt"
 viewBox="0.00 0.00 1368.75 188.00" xmlns="http://www.w3.org/2000/svg" xmlns:xlink="http://www.w3.org/1999/xlink">
<g id="graph0" class="graph" transform="scale(1 1) rotate(0) translate(4 184)">
<title>pastafarianism</title>
<polygon fill="white" stroke="transparent" points="-4,4 -4,-184 1364.75,-184 1364.75,4 -4,4"/>
<!-- Fallback -->
<g id="node1" class="node">
<title>Fallback</title>
<polygon fill="cyan" stroke="black" points="855.56,-154.54 855.56,-169.46 838.43,-180 814.2,-180 797.07,-169.46 797.07,-154.54 814.2,-144 838.43,-144 855.56,-154.54"/>
<text text-anchor="middle" x="826.31" y="-159.8" font-family="Times,serif" font-size="9.00">Fallback</text>
</g>
<!-- Sequence -->
<g id="node2" class="node">
<title>Sequence</title>
<polygon fill="cyan" stroke="black" points="298.81,-82.54 298.81,-97.46 280.36,-108 254.27,-108 235.82,-97.46 235.82,-82.54 254.27,-72 280.36,-72 298.81,-82.54"/>
<text text-anchor="middle" x="267.31" y="-87.8" font-family="Times,serif" font-size="9.00">Sequence</text>
</g>
<!-- Fallback&#45;&gt;Sequence -->
<g id="edge1" class="edge">
<title>Fallback&#45;&gt;Sequence</title>
<path fill="none" stroke="black" d="M797.05,-157.34C704.32,-145.72 416.83,-109.72 308.86,-96.2"/>
<polygon fill="black" stroke="black" points="309.04,-92.7 298.68,-94.93 308.17,-99.64 309.04,-92.7"/>
</g>
<!-- Sequence* -->
<g id="node6" class="node">
<title>Sequence*</title>
<polygon fill="cyan" stroke="black" points="735.55,-82.54 735.55,-97.46 715.5,-108 687.13,-108 667.07,-97.46 667.07,-82.54 687.13,-72 715.5,-72 735.55,-82.54"/>
<text text-anchor="middle" x="701.31" y="-87.8" font-family="Times,serif" font-size="9.00">Sequence*</text>
</g>
<!-- Fallback&#45;&gt;Sequence* -->
<g id="edge5" class="edge">
<title>Fallback&#45;&gt;Sequence*</title>
<path fill="none" stroke="black" d="M805.39,-149.28C785.6,-138.2 755.63,-121.42 732.92,-108.7"/>
<polygon fill="black" stroke="black" points="734.43,-105.54 724,-103.7 731.01,-111.64 734.43,-105.54"/>
</g>
<!-- 0 at pos (0.0, 0.05, 0.0)?** -->
<g id="node11" class="node">
<title>0 at pos (0.0, 0.05, 0.0)?**</title>
<ellipse fill="gray" stroke="black" cx="826.31" cy="-90" rx="65.48" ry="18"/>
<text text-anchor="middle" x="826.31" y="-87.8" font-family="Times,serif" font-size="9.00">0 at pos (0.0, 0.05, 0.0)?**</text>
</g>
<!-- Fallback&#45;&gt;0 at pos (0.0, 0.05, 0.0)?** -->
<g id="edge10" class="edge">
<title>Fallback&#45;&gt;0 at pos (0.0, 0.05, 0.0)?**</title>
<path fill="none" stroke="black" d="M826.31,-143.7C826.31,-135.98 826.31,-126.71 826.31,-118.11"/>
<polygon fill="black" stroke="black" points="829.81,-118.1 826.31,-108.1 822.81,-118.1 829.81,-118.1"/>
</g>
<!-- Sequence** -->
<g id="node12" class="node">
<title>Sequence**</title>
<polygon fill="cyan" stroke="black" points="1045.05,-82.54 1045.05,-97.46 1023.53,-108 993.09,-108 971.57,-97.46 971.57,-82.54 993.09,-72 1023.53,-72 1045.05,-82.54"/>
<text text-anchor="middle" x="1008.31" y="-87.8" font-family="Times,serif" font-size="9.00">Sequence**</text>
</g>
<!-- Fallback&#45;&gt;Sequence** -->
<g id="edge11" class="edge">
<title>Fallback&#45;&gt;Sequence**</title>
<path fill="none" stroke="black" d="M850.86,-151.56C881.63,-139.72 934.7,-119.31 970.64,-105.49"/>
<polygon fill="black" stroke="black" points="972.21,-108.64 980.28,-101.78 969.69,-102.1 972.21,-108.64"/>
</g>
<!-- place at (0.0, 0.05, 0.0)!**** -->
<g id="node17" class="node">
<title>place at (0.0, 0.05, 0.0)!****</title>
<ellipse fill="gray" stroke="black" cx="1132.31" cy="-90" rx="68.91" ry="18"/>
<text text-anchor="middle" x="1132.31" y="-87.8" font-family="Times,serif" font-size="9.00">place at (0.0, 0.05, 0.0)!****</text>
</g>
<!-- Fallback&#45;&gt;place at (0.0, 0.05, 0.0)!**** -->
<g id="edge16" class="edge">
<title>Fallback&#45;&gt;place at (0.0, 0.05, 0.0)!****</title>
<path fill="none" stroke="black" d="M855.38,-154.35C905.04,-142.99 1007.2,-119.62 1072.6,-104.66"/>
<polygon fill="black" stroke="black" points="1073.4,-108.07 1082.36,-102.43 1071.84,-101.24 1073.4,-108.07"/>
</g>
<!-- place at (0.0, 0.05, 0.0)! -->
<g id="node3" class="node">
<title>place at (0.0, 0.05, 0.0)!</title>
<ellipse fill="gray" stroke="black" cx="58.31" cy="-18" rx="58.13" ry="18"/>
<text text-anchor="middle" x="58.31" y="-15.8" font-family="Times,serif" font-size="9.00">place at (0.0, 0.05, 0.0)!</text>
</g>
<!-- Sequence&#45;&gt;place at (0.0, 0.05, 0.0)! -->
<g id="edge2" class="edge">
<title>Sequence&#45;&gt;place at (0.0, 0.05, 0.0)!</title>
<path fill="none" stroke="black" d="M239.99,-79.85C205.98,-68.46 147.33,-48.82 105.88,-34.93"/>
<polygon fill="black" stroke="black" points="106.86,-31.57 96.27,-31.71 104.64,-38.21 106.86,-31.57"/>
</g>
<!-- 0 at pos (0.0, 0.05, 0.0)? -->
<g id="node4" class="node">
<title>0 at pos (0.0, 0.05, 0.0)?</title>
<ellipse fill="gray" stroke="black" cx="194.31" cy="-18" rx="60.09" ry="18"/>
<text text-anchor="middle" x="194.31" y="-15.8" font-family="Times,serif" font-size="9.00">0 at pos (0.0, 0.05, 0.0)?</text>
</g>
<!-- Sequence&#45;&gt;0 at pos (0.0, 0.05, 0.0)? -->
<g id="edge3" class="edge">
<title>Sequence&#45;&gt;0 at pos (0.0, 0.05, 0.0)?</title>
<path fill="none" stroke="black" d="M251.11,-73.46C241.65,-64.39 229.51,-52.75 218.89,-42.57"/>
<polygon fill="black" stroke="black" points="221.13,-39.86 211.49,-35.47 216.28,-44.91 221.13,-39.86"/>
</g>
<!-- 2 at pos (0.0, 0.05, 0.0384)? -->
<g id="node5" class="node">
<title>2 at pos (0.0, 0.05, 0.0384)?</title>
<ellipse fill="gray" stroke="black" cx="340.31" cy="-18" rx="67.6" ry="18"/>
<text text-anchor="middle" x="340.31" y="-15.8" font-family="Times,serif" font-size="9.00">2 at pos (0.0, 0.05, 0.0384)?</text>
</g>
<!-- Sequence&#45;&gt;2 at pos (0.0, 0.05, 0.0384)? -->
<g id="edge4" class="edge">
<title>Sequence&#45;&gt;2 at pos (0.0, 0.05, 0.0384)?</title>
<path fill="none" stroke="black" d="M283.51,-73.46C292.98,-64.39 305.11,-52.75 315.73,-42.57"/>
<polygon fill="black" stroke="black" points="318.34,-44.91 323.14,-35.47 313.5,-39.86 318.34,-44.91"/>
</g>
<!-- 0 at pos (0.0, 0.05, 0.0)?* -->
<g id="node7" class="node">
<title>0 at pos (0.0, 0.05, 0.0)?*</title>
<ellipse fill="gray" stroke="black" cx="488.31" cy="-18" rx="62.21" ry="18"/>
<text text-anchor="middle" x="488.31" y="-15.8" font-family="Times,serif" font-size="9.00">0 at pos (0.0, 0.05, 0.0)?*</text>
</g>
<!-- Sequence*&#45;&gt;0 at pos (0.0, 0.05, 0.0)?* -->
<g id="edge6" class="edge">
<title>Sequence*&#45;&gt;0 at pos (0.0, 0.05, 0.0)?*</title>
<path fill="none" stroke="black" d="M672.59,-79.56C638,-68.19 579.35,-48.92 537.51,-35.17"/>
<polygon fill="black" stroke="black" points="538.38,-31.77 527.79,-31.97 536.2,-38.42 538.38,-31.77"/>
</g>
<!-- pick 2! -->
<g id="node8" class="node">
<title>pick 2!</title>
<ellipse fill="gray" stroke="black" cx="595.31" cy="-18" rx="27" ry="18"/>
<text text-anchor="middle" x="595.31" y="-15.8" font-family="Times,serif" font-size="9.00">pick 2!</text>
</g>
<!-- Sequence*&#45;&gt;pick 2! -->
<g id="edge7" class="edge">
<title>Sequence*&#45;&gt;pick 2!</title>
<path fill="none" stroke="black" d="M680.62,-75.34C663.95,-64.33 640.38,-48.76 622.24,-36.78"/>
<polygon fill="black" stroke="black" points="624.1,-33.81 613.82,-31.22 620.24,-39.66 624.1,-33.81"/>
</g>
<!-- place at (0.0, 0.05, 0.0)!* -->
<g id="node9" class="node">
<title>place at (0.0, 0.05, 0.0)!*</title>
<ellipse fill="gray" stroke="black" cx="701.31" cy="-18" rx="61.4" ry="18"/>
<text text-anchor="middle" x="701.31" y="-15.8" font-family="Times,serif" font-size="9.00">place at (0.0, 0.05, 0.0)!*</text>
</g>
<!-- Sequence*&#45;&gt;place at (0.0, 0.05, 0.0)!* -->
<g id="edge8" class="edge">
<title>Sequence*&#45;&gt;place at (0.0, 0.05, 0.0)!*</title>
<path fill="none" stroke="black" d="M701.31,-71.7C701.31,-63.98 701.31,-54.71 701.31,-46.11"/>
<polygon fill="black" stroke="black" points="704.81,-46.1 701.31,-36.1 697.81,-46.1 704.81,-46.1"/>
</g>
<!-- place at (0.0, 0.05, 0.0)!** -->
<g id="node10" class="node">
<title>place at (0.0, 0.05, 0.0)!**</title>
<ellipse fill="gray" stroke="black" cx="844.31" cy="-18" rx="63.52" ry="18"/>
<text text-anchor="middle" x="844.31" y="-15.8" font-family="Times,serif" font-size="9.00">place at (0.0, 0.05, 0.0)!**</text>
</g>
<!-- Sequence*&#45;&gt;place at (0.0, 0.05, 0.0)!** -->
<g id="edge9" class="edge">
<title>Sequence*&#45;&gt;place at (0.0, 0.05, 0.0)!**</title>
<path fill="none" stroke="black" d="M725.57,-77.13C747.29,-66.49 779.53,-50.71 804.94,-38.28"/>
<polygon fill="black" stroke="black" points="806.51,-41.4 813.96,-33.86 803.44,-35.11 806.51,-41.4"/>
</g>
<!-- pick 0! -->
<g id="node13" class="node">
<title>pick 0!</title>
<ellipse fill="gray" stroke="black" cx="953.31" cy="-18" rx="27" ry="18"/>
<text text-anchor="middle" x="953.31" y="-15.8" font-family="Times,serif" font-size="9.00">pick 0!</text>
</g>
<!-- Sequence**&#45;&gt;pick 0! -->
<g id="edge12" class="edge">
<title>Sequence**&#45;&gt;pick 0!</title>
<path fill="none" stroke="black" d="M994.72,-71.7C987.73,-62.8 979.12,-51.84 971.56,-42.22"/>
<polygon fill="black" stroke="black" points="974.19,-39.9 965.26,-34.2 968.68,-44.23 974.19,-39.9"/>
</g>
<!-- place at (0.0, 0.05, 0.0)!*** -->
<g id="node14" class="node">
<title>place at (0.0, 0.05, 0.0)!***</title>
<ellipse fill="gray" stroke="black" cx="1064.31" cy="-18" rx="66.29" ry="18"/>
<text text-anchor="middle" x="1064.31" y="-15.8" font-family="Times,serif" font-size="9.00">place at (0.0, 0.05, 0.0)!***</text>
</g>
<!-- Sequence**&#45;&gt;place at (0.0, 0.05, 0.0)!*** -->
<g id="edge13" class="edge">
<title>Sequence**&#45;&gt;place at (0.0, 0.05, 0.0)!***</title>
<path fill="none" stroke="black" d="M1022.16,-71.7C1028.8,-63.39 1036.89,-53.28 1044.2,-44.14"/>
<polygon fill="black" stroke="black" points="1047.11,-46.1 1050.63,-36.1 1041.65,-41.73 1047.11,-46.1"/>
</g>
<!-- pick 0!* -->
<g id="node15" class="node">
<title>pick 0!*</title>
<ellipse fill="gray" stroke="black" cx="1175.31" cy="-18" rx="27" ry="18"/>
<text text-anchor="middle" x="1175.31" y="-15.8" font-family="Times,serif" font-size="9.00">pick 0!*</text>
</g>
<!-- Sequence**&#45;&gt;pick 0!* -->
<g id="edge14" class="edge">
<title>Sequence**&#45;&gt;pick 0!*</title>
<path fill="none" stroke="black" d="M1036.36,-78.19C1063.02,-67.78 1104.14,-51.4 1139.31,-36 1141.12,-35.21 1142.97,-34.38 1144.83,-33.54"/>
<polygon fill="black" stroke="black" points="1146.47,-36.64 1154.08,-29.27 1143.54,-30.28 1146.47,-36.64"/>
</g>
<!-- 2 at pos (0.0, 0.05, 0.0384)?* -->
<g id="node16" class="node">
<title>2 at pos (0.0, 0.05, 0.0384)?*</title>
<ellipse fill="gray" stroke="black" cx="1290.31" cy="-18" rx="70.37" ry="18"/>
<text text-anchor="middle" x="1290.31" y="-15.8" font-family="Times,serif" font-size="9.00">2 at pos (0.0, 0.05, 0.0384)?*</text>
</g>
<!-- Sequence**&#45;&gt;2 at pos (0.0, 0.05, 0.0384)?* -->
<g id="edge15" class="edge">
<title>Sequence**&#45;&gt;2 at pos (0.0, 0.05, 0.0384)?*</title>
<path fill="none" stroke="black" d="M1036.33,-77.97C1042.22,-75.84 1048.43,-73.74 1054.31,-72 1070.94,-67.08 1164.35,-46.45 1228.54,-32.43"/>
<polygon fill="black" stroke="black" points="1229.55,-35.79 1238.58,-30.24 1228.06,-28.95 1229.55,-35.79"/>
</g>
</g>
</svg>
