<?xml version="1.0" encoding="UTF-8" standalone="no"?>
<!DOCTYPE svg PUBLIC "-//W3C//DTD SVG 1.1//EN"
 "http://www.w3.org/Graphics/SVG/1.1/DTD/svg11.dtd">
<!-- Generated by graphviz version 2.43.0 (0)
 -->
<!-- Title: pastafarianism Pages: 1 -->
<svg width="2143pt" height="332pt"
 viewBox="0.00 0.00 2142.91 332.00" xmlns="http://www.w3.org/2000/svg" xmlns:xlink="http://www.w3.org/1999/xlink">
<g id="graph0" class="graph" transform="scale(1 1) rotate(0) translate(4 328)">
<title>pastafarianism</title>
<polygon fill="white" stroke="transparent" points="-4,4 -4,-328 2138.91,-328 2138.91,4 -4,4"/>
<!-- Fallback -->
<g id="node1" class="node">
<title>Fallback</title>
<polygon fill="cyan" stroke="black" points="875.01,-298.54 875.01,-313.46 857.88,-324 833.65,-324 816.52,-313.46 816.52,-298.54 833.65,-288 857.88,-288 875.01,-298.54"/>
<text text-anchor="middle" x="845.77" y="-303.8" font-family="Times,serif" font-size="9.00">Fallback</text>
</g>
<!-- Sequence -->
<g id="node2" class="node">
<title>Sequence</title>
<polygon fill="cyan" stroke="black" points="172.26,-226.54 172.26,-241.46 153.81,-252 127.72,-252 109.27,-241.46 109.27,-226.54 127.72,-216 153.81,-216 172.26,-226.54"/>
<text text-anchor="middle" x="140.77" y="-231.8" font-family="Times,serif" font-size="9.00">Sequence</text>
</g>
<!-- Fallback&#45;&gt;Sequence -->
<g id="edge1" class="edge">
<title>Fallback&#45;&gt;Sequence</title>
<path fill="none" stroke="black" d="M816.37,-302.08C705.48,-291.07 312.23,-252.02 182.57,-239.15"/>
<polygon fill="black" stroke="black" points="182.57,-235.63 172.27,-238.13 181.88,-242.6 182.57,-235.63"/>
</g>
<!-- LkGraph? -->
<g id="node5" class="node">
<title>LkGraph?</title>
<ellipse fill="gray" stroke="black" cx="681.77" cy="-234" rx="30.7" ry="18"/>
<text text-anchor="middle" x="681.77" y="-231.8" font-family="Times,serif" font-size="9.00">LkGraph?</text>
</g>
<!-- Fallback&#45;&gt;LkGraph? -->
<g id="edge4" class="edge">
<title>Fallback&#45;&gt;LkGraph?</title>
<path fill="none" stroke="black" d="M822.27,-294.97C794.18,-282.98 746.97,-262.83 715.11,-249.23"/>
<polygon fill="black" stroke="black" points="716.32,-245.94 705.75,-245.24 713.58,-252.38 716.32,-245.94"/>
</g>
<!-- ReachGoal? -->
<g id="node6" class="node">
<title>ReachGoal?</title>
<ellipse fill="gray" stroke="black" cx="764.77" cy="-234" rx="34.13" ry="18"/>
<text text-anchor="middle" x="764.77" y="-231.8" font-family="Times,serif" font-size="9.00">ReachGoal?</text>
</g>
<!-- Fallback&#45;&gt;ReachGoal? -->
<g id="edge5" class="edge">
<title>Fallback&#45;&gt;ReachGoal?</title>
<path fill="none" stroke="black" d="M828.98,-290.5C817.55,-280.61 802.22,-267.36 789.4,-256.29"/>
<polygon fill="black" stroke="black" points="791.66,-253.62 781.81,-249.73 787.08,-258.91 791.66,-253.62"/>
</g>
<!-- LkClose? -->
<g id="node7" class="node">
<title>LkClose?</title>
<ellipse fill="gray" stroke="black" cx="845.77" cy="-234" rx="28.74" ry="18"/>
<text text-anchor="middle" x="845.77" y="-231.8" font-family="Times,serif" font-size="9.00">LkClose?</text>
</g>
<!-- Fallback&#45;&gt;LkClose? -->
<g id="edge6" class="edge">
<title>Fallback&#45;&gt;LkClose?</title>
<path fill="none" stroke="black" d="M845.77,-287.7C845.77,-279.98 845.77,-270.71 845.77,-262.11"/>
<polygon fill="black" stroke="black" points="849.27,-262.1 845.77,-252.1 842.27,-262.1 849.27,-262.1"/>
</g>
<!-- LkGraph?* -->
<g id="node8" class="node">
<title>LkGraph?*</title>
<ellipse fill="gray" stroke="black" cx="925.77" cy="-234" rx="32.82" ry="18"/>
<text text-anchor="middle" x="925.77" y="-231.8" font-family="Times,serif" font-size="9.00">LkGraph?*</text>
</g>
<!-- Fallback&#45;&gt;LkGraph?* -->
<g id="edge7" class="edge">
<title>Fallback&#45;&gt;LkGraph?*</title>
<path fill="none" stroke="black" d="M862.34,-290.5C873.53,-280.71 888.49,-267.61 901.07,-256.6"/>
<polygon fill="black" stroke="black" points="903.71,-258.95 908.94,-249.73 899.1,-253.68 903.71,-258.95"/>
</g>
<!-- Sequence* -->
<g id="node9" class="node">
<title>Sequence*</title>
<polygon fill="cyan" stroke="black" points="1045.01,-226.54 1045.01,-241.46 1024.95,-252 996.58,-252 976.52,-241.46 976.52,-226.54 996.58,-216 1024.95,-216 1045.01,-226.54"/>
<text text-anchor="middle" x="1010.77" y="-231.8" font-family="Times,serif" font-size="9.00">Sequence*</text>
</g>
<!-- Fallback&#45;&gt;Sequence* -->
<g id="edge8" class="edge">
<title>Fallback&#45;&gt;Sequence*</title>
<path fill="none" stroke="black" d="M869.41,-294.97C897.19,-283.19 943.54,-263.52 975.56,-249.94"/>
<polygon fill="black" stroke="black" points="977.16,-253.06 985,-245.93 974.42,-246.62 977.16,-253.06"/>
</g>
<!-- Sequence*** -->
<g id="node38" class="node">
<title>Sequence***</title>
<polygon fill="cyan" stroke="black" points="1995.76,-226.54 1995.76,-241.46 1972.33,-252 1939.2,-252 1915.78,-241.46 1915.78,-226.54 1939.2,-216 1972.33,-216 1995.76,-226.54"/>
<text text-anchor="middle" x="1955.77" y="-231.8" font-family="Times,serif" font-size="9.00">Sequence***</text>
</g>
<!-- Fallback&#45;&gt;Sequence*** -->
<g id="edge37" class="edge">
<title>Fallback&#45;&gt;Sequence***</title>
<path fill="none" stroke="black" d="M875.17,-303.15C1025.99,-293.63 1713.11,-250.3 1905.55,-238.17"/>
<polygon fill="black" stroke="black" points="1905.9,-241.65 1915.66,-237.53 1905.46,-234.67 1905.9,-241.65"/>
</g>
<!-- NotReadyForSG? -->
<g id="node3" class="node">
<title>NotReadyForSG?</title>
<ellipse fill="gray" stroke="black" cx="46.77" cy="-162" rx="46.53" ry="18"/>
<text text-anchor="middle" x="46.77" y="-159.8" font-family="Times,serif" font-size="9.00">NotReadyForSG?</text>
</g>
<!-- Sequence&#45;&gt;NotReadyForSG? -->
<g id="edge2" class="edge">
<title>Sequence&#45;&gt;NotReadyForSG?</title>
<path fill="none" stroke="black" d="M121.74,-218.83C108.56,-209.02 90.76,-195.76 75.81,-184.63"/>
<polygon fill="black" stroke="black" points="77.5,-181.52 67.39,-178.36 73.32,-187.14 77.5,-181.52"/>
</g>
<!-- MoveTo! -->
<g id="node4" class="node">
<title>MoveTo!</title>
<ellipse fill="gray" stroke="black" cx="140.77" cy="-162" rx="28.74" ry="18"/>
<text text-anchor="middle" x="140.77" y="-159.8" font-family="Times,serif" font-size="9.00">MoveTo!</text>
</g>
<!-- Sequence&#45;&gt;MoveTo! -->
<g id="edge3" class="edge">
<title>Sequence&#45;&gt;MoveTo!</title>
<path fill="none" stroke="black" d="M140.77,-215.7C140.77,-207.98 140.77,-198.71 140.77,-190.11"/>
<polygon fill="black" stroke="black" points="144.27,-190.1 140.77,-180.1 137.27,-190.1 144.27,-190.1"/>
</g>
<!-- GetSubGoal! -->
<g id="node10" class="node">
<title>GetSubGoal!</title>
<ellipse fill="gray" stroke="black" cx="224.77" cy="-162" rx="36.9" ry="18"/>
<text text-anchor="middle" x="224.77" y="-159.8" font-family="Times,serif" font-size="9.00">GetSubGoal!</text>
</g>
<!-- Sequence*&#45;&gt;GetSubGoal! -->
<g id="edge9" class="edge">
<title>Sequence*&#45;&gt;GetSubGoal!</title>
<path fill="none" stroke="black" d="M985.73,-221.53C979.94,-219.32 973.73,-217.3 967.77,-216 664.65,-150.11 574.6,-242.48 270.77,-180 267.6,-179.35 264.35,-178.52 261.13,-177.57"/>
<polygon fill="black" stroke="black" points="262.2,-174.24 251.61,-174.46 260.03,-180.89 262.2,-174.24"/>
</g>
<!-- MoveTo!* -->
<g id="node11" class="node">
<title>MoveTo!*</title>
<ellipse fill="gray" stroke="black" cx="311.77" cy="-162" rx="31.51" ry="18"/>
<text text-anchor="middle" x="311.77" y="-159.8" font-family="Times,serif" font-size="9.00">MoveTo!*</text>
</g>
<!-- Sequence*&#45;&gt;MoveTo!* -->
<g id="edge10" class="edge">
<title>Sequence*&#45;&gt;MoveTo!*</title>
<path fill="none" stroke="black" d="M985.72,-221.56C979.93,-219.35 973.72,-217.32 967.77,-216 700.41,-156.92 619.62,-241.29 352.77,-180 350.11,-179.39 347.41,-178.62 344.72,-177.76"/>
<polygon fill="black" stroke="black" points="345.76,-174.41 335.17,-174.28 343.37,-180.99 345.76,-174.41"/>
</g>
<!-- Fallback* -->
<g id="node12" class="node">
<title>Fallback*</title>
<polygon fill="cyan" stroke="black" points="425.51,-154.54 425.51,-169.46 406.91,-180 380.62,-180 362.02,-169.46 362.02,-154.54 380.62,-144 406.91,-144 425.51,-154.54"/>
<text text-anchor="middle" x="393.77" y="-159.8" font-family="Times,serif" font-size="9.00">Fallback*</text>
</g>
<!-- Sequence*&#45;&gt;Fallback* -->
<g id="edge11" class="edge">
<title>Sequence*&#45;&gt;Fallback*</title>
<path fill="none" stroke="black" d="M985.71,-221.6C979.92,-219.39 973.72,-217.34 967.77,-216 736.16,-163.73 665.93,-234.19 434.77,-180 432.11,-179.38 429.41,-178.6 426.73,-177.73"/>
<polygon fill="black" stroke="black" points="427.77,-174.39 417.18,-174.24 425.37,-180.96 427.77,-174.39"/>
</g>
<!-- MoveTo!**** -->
<g id="node17" class="node">
<title>MoveTo!****</title>
<ellipse fill="gray" stroke="black" cx="482.77" cy="-162" rx="39.02" ry="18"/>
<text text-anchor="middle" x="482.77" y="-159.8" font-family="Times,serif" font-size="9.00">MoveTo!****</text>
</g>
<!-- Sequence*&#45;&gt;MoveTo!**** -->
<g id="edge16" class="edge">
<title>Sequence*&#45;&gt;MoveTo!****</title>
<path fill="none" stroke="black" d="M985.7,-221.66C979.91,-219.45 973.71,-217.39 967.77,-216 777.99,-171.7 721.31,-220.87 530.77,-180 527.57,-179.31 524.29,-178.47 521.03,-177.53"/>
<polygon fill="black" stroke="black" points="521.94,-174.15 511.35,-174.48 519.84,-180.83 521.94,-174.15"/>
</g>
<!-- NotReadyForSG?* -->
<g id="node18" class="node">
<title>NotReadyForSG?*</title>
<ellipse fill="gray" stroke="black" cx="589.77" cy="-162" rx="49.8" ry="18"/>
<text text-anchor="middle" x="589.77" y="-159.8" font-family="Times,serif" font-size="9.00">NotReadyForSG?*</text>
</g>
<!-- Sequence*&#45;&gt;NotReadyForSG?* -->
<g id="edge17" class="edge">
<title>Sequence*&#45;&gt;NotReadyForSG?*</title>
<path fill="none" stroke="black" d="M985.21,-221.62C979.55,-219.46 973.53,-217.44 967.77,-216 829.33,-181.47 788.7,-207.85 648.77,-180 644.59,-179.17 640.28,-178.18 635.98,-177.11"/>
<polygon fill="black" stroke="black" points="636.6,-173.66 626.04,-174.49 634.81,-180.42 636.6,-173.66"/>
</g>
<!-- LkGraph?*** -->
<g id="node19" class="node">
<title>LkGraph?***</title>
<ellipse fill="gray" stroke="black" cx="695.77" cy="-162" rx="38.21" ry="18"/>
<text text-anchor="middle" x="695.77" y="-159.8" font-family="Times,serif" font-size="9.00">LkGraph?***</text>
</g>
<!-- Sequence*&#45;&gt;LkGraph?*** -->
<g id="edge18" class="edge">
<title>Sequence*&#45;&gt;LkGraph?***</title>
<path fill="none" stroke="black" d="M985.15,-221.82C979.5,-219.65 973.49,-217.57 967.77,-216 870.1,-189.22 840.82,-205.34 742.77,-180 739.84,-179.24 736.83,-178.38 733.83,-177.44"/>
<polygon fill="black" stroke="black" points="734.92,-174.12 724.33,-174.3 732.72,-180.77 734.92,-174.12"/>
</g>
<!-- NotReadyForSG?** -->
<g id="node20" class="node">
<title>NotReadyForSG?**</title>
<ellipse fill="gray" stroke="black" cx="803.77" cy="-162" rx="51.92" ry="18"/>
<text text-anchor="middle" x="803.77" y="-159.8" font-family="Times,serif" font-size="9.00">NotReadyForSG?**</text>
</g>
<!-- Sequence*&#45;&gt;NotReadyForSG?** -->
<g id="edge19" class="edge">
<title>Sequence*&#45;&gt;NotReadyForSG?**</title>
<path fill="none" stroke="black" d="M984.49,-222.3C978.99,-220.15 973.21,-217.95 967.77,-216 928.84,-202.03 884.15,-187.7 851.26,-177.47"/>
<polygon fill="black" stroke="black" points="852.04,-174.04 841.45,-174.43 849.96,-180.73 852.04,-174.04"/>
</g>
<!-- MoveTo!***** -->
<g id="node21" class="node">
<title>MoveTo!*****</title>
<ellipse fill="gray" stroke="black" cx="915.77" cy="-162" rx="42.29" ry="18"/>
<text text-anchor="middle" x="915.77" y="-159.8" font-family="Times,serif" font-size="9.00">MoveTo!*****</text>
</g>
<!-- Sequence*&#45;&gt;MoveTo!***** -->
<g id="edge20" class="edge">
<title>Sequence*&#45;&gt;MoveTo!*****</title>
<path fill="none" stroke="black" d="M991.08,-218.5C977.63,-208.59 959.59,-195.29 944.54,-184.2"/>
<polygon fill="black" stroke="black" points="946.21,-181.08 936.08,-177.97 942.05,-186.72 946.21,-181.08"/>
</g>
<!-- Fallback** -->
<g id="node22" class="node">
<title>Fallback**</title>
<polygon fill="cyan" stroke="black" points="1045.76,-154.54 1045.76,-169.46 1025.26,-180 996.27,-180 975.77,-169.46 975.77,-154.54 996.27,-144 1025.26,-144 1045.76,-154.54"/>
<text text-anchor="middle" x="1010.77" y="-159.8" font-family="Times,serif" font-size="9.00">Fallback**</text>
</g>
<!-- Sequence*&#45;&gt;Fallback** -->
<g id="edge21" class="edge">
<title>Sequence*&#45;&gt;Fallback**</title>
<path fill="none" stroke="black" d="M1010.77,-215.7C1010.77,-207.98 1010.77,-198.71 1010.77,-190.11"/>
<polygon fill="black" stroke="black" points="1014.27,-190.1 1010.77,-180.1 1007.27,-190.1 1014.27,-190.1"/>
</g>
<!-- ReachGoal?** -->
<g id="node30" class="node">
<title>ReachGoal?**</title>
<ellipse fill="gray" stroke="black" cx="1102.77" cy="-162" rx="39.02" ry="18"/>
<text text-anchor="middle" x="1102.77" y="-159.8" font-family="Times,serif" font-size="9.00">ReachGoal?**</text>
</g>
<!-- Sequence*&#45;&gt;ReachGoal?** -->
<g id="edge29" class="edge">
<title>Sequence*&#45;&gt;ReachGoal?**</title>
<path fill="none" stroke="black" d="M1029.83,-218.5C1042.94,-208.52 1060.56,-195.11 1075.19,-183.98"/>
<polygon fill="black" stroke="black" points="1077.57,-186.57 1083.41,-177.73 1073.33,-181 1077.57,-186.57"/>
</g>
<!-- MoveTo!******** -->
<g id="node31" class="node">
<title>MoveTo!********</title>
<ellipse fill="gray" stroke="black" cx="1209.77" cy="-162" rx="49.8" ry="18"/>
<text text-anchor="middle" x="1209.77" y="-159.8" font-family="Times,serif" font-size="9.00">MoveTo!********</text>
</g>
<!-- Sequence*&#45;&gt;MoveTo!******** -->
<g id="edge30" class="edge">
<title>Sequence*&#45;&gt;MoveTo!********</title>
<path fill="none" stroke="black" d="M1038.86,-223.12C1071.94,-211.48 1127.3,-192.01 1166.02,-178.39"/>
<polygon fill="black" stroke="black" points="1167.21,-181.68 1175.48,-175.06 1164.88,-175.08 1167.21,-181.68"/>
</g>
<!-- GetLk!* -->
<g id="node32" class="node">
<title>GetLk!*</title>
<ellipse fill="gray" stroke="black" cx="1304.77" cy="-162" rx="27.27" ry="18"/>
<text text-anchor="middle" x="1304.77" y="-159.8" font-family="Times,serif" font-size="9.00">GetLk!*</text>
</g>
<!-- Sequence*&#45;&gt;GetLk!* -->
<g id="edge31" class="edge">
<title>Sequence*&#45;&gt;GetLk!*</title>
<path fill="none" stroke="black" d="M1045.25,-228.59C1095.39,-221.58 1190.9,-205.97 1268.77,-180 1270.68,-179.36 1272.63,-178.65 1274.58,-177.88"/>
<polygon fill="black" stroke="black" points="1276.37,-180.92 1284.17,-173.75 1273.6,-174.49 1276.37,-180.92"/>
</g>
<!-- MoveTo!********* -->
<g id="node33" class="node">
<title>MoveTo!*********</title>
<ellipse fill="gray" stroke="black" cx="1402.77" cy="-162" rx="52.58" ry="18"/>
<text text-anchor="middle" x="1402.77" y="-159.8" font-family="Times,serif" font-size="9.00">MoveTo!*********</text>
</g>
<!-- Sequence*&#45;&gt;MoveTo!********* -->
<g id="edge32" class="edge">
<title>Sequence*&#45;&gt;MoveTo!*********</title>
<path fill="none" stroke="black" d="M1045.2,-228.72C1105.47,-220.95 1233.87,-203.17 1340.77,-180 1345.18,-179.04 1349.75,-177.96 1354.31,-176.83"/>
<polygon fill="black" stroke="black" points="1355.42,-180.15 1364.23,-174.26 1353.67,-173.38 1355.42,-180.15"/>
</g>
<!-- GetLk!** -->
<g id="node34" class="node">
<title>GetLk!**</title>
<ellipse fill="gray" stroke="black" cx="1502.77" cy="-162" rx="29.39" ry="18"/>
<text text-anchor="middle" x="1502.77" y="-159.8" font-family="Times,serif" font-size="9.00">GetLk!**</text>
</g>
<!-- Sequence*&#45;&gt;GetLk!** -->
<g id="edge33" class="edge">
<title>Sequence*&#45;&gt;GetLk!**</title>
<path fill="none" stroke="black" d="M1045.04,-232.53C1121.67,-230.72 1312.12,-221.99 1464.77,-180 1466.92,-179.41 1469.1,-178.71 1471.28,-177.94"/>
<polygon fill="black" stroke="black" points="1472.66,-181.16 1480.68,-174.23 1470.09,-174.65 1472.66,-181.16"/>
</g>
<!-- MoveTo!********** -->
<g id="node35" class="node">
<title>MoveTo!**********</title>
<ellipse fill="gray" stroke="black" cx="1604.77" cy="-162" rx="54.7" ry="18"/>
<text text-anchor="middle" x="1604.77" y="-159.8" font-family="Times,serif" font-size="9.00">MoveTo!**********</text>
</g>
<!-- Sequence*&#45;&gt;MoveTo!********** -->
<g id="edge34" class="edge">
<title>Sequence*&#45;&gt;MoveTo!**********</title>
<path fill="none" stroke="black" d="M1045.13,-231.47C1129.92,-227.28 1355.61,-213.63 1540.77,-180 1545.47,-179.15 1550.33,-178.12 1555.17,-177"/>
<polygon fill="black" stroke="black" points="1556.15,-180.37 1565.04,-174.6 1554.5,-173.57 1556.15,-180.37"/>
</g>
<!-- GetSubGoal!** -->
<g id="node36" class="node">
<title>GetSubGoal!**</title>
<ellipse fill="gray" stroke="black" cx="1719.77" cy="-162" rx="42.29" ry="18"/>
<text text-anchor="middle" x="1719.77" y="-159.8" font-family="Times,serif" font-size="9.00">GetSubGoal!**</text>
</g>
<!-- Sequence*&#45;&gt;GetSubGoal!** -->
<g id="edge35" class="edge">
<title>Sequence*&#45;&gt;GetSubGoal!**</title>
<path fill="none" stroke="black" d="M1045.07,-233.13C1143.32,-232.9 1433.78,-227.89 1668.77,-180 1672.36,-179.27 1676.05,-178.36 1679.73,-177.35"/>
<polygon fill="black" stroke="black" points="1680.77,-180.69 1689.35,-174.47 1678.76,-173.98 1680.77,-180.69"/>
</g>
<!-- LkClose?*** -->
<g id="node37" class="node">
<title>LkClose?***</title>
<ellipse fill="gray" stroke="black" cx="1816.77" cy="-162" rx="36.9" ry="18"/>
<text text-anchor="middle" x="1816.77" y="-159.8" font-family="Times,serif" font-size="9.00">LkClose?***</text>
</g>
<!-- Sequence*&#45;&gt;LkClose?*** -->
<g id="edge36" class="edge">
<title>Sequence*&#45;&gt;LkClose?***</title>
<path fill="none" stroke="black" d="M1045.37,-231.89C1174.69,-227.55 1629.33,-210.41 1770.77,-180 1773.93,-179.32 1777.17,-178.47 1780.39,-177.51"/>
<polygon fill="black" stroke="black" points="1781.5,-180.83 1789.9,-174.38 1779.31,-174.18 1781.5,-180.83"/>
</g>
<!-- ReachGoal?* -->
<g id="node13" class="node">
<title>ReachGoal?*</title>
<ellipse fill="gray" stroke="black" cx="258.77" cy="-90" rx="36.9" ry="18"/>
<text text-anchor="middle" x="258.77" y="-87.8" font-family="Times,serif" font-size="9.00">ReachGoal?*</text>
</g>
<!-- Fallback*&#45;&gt;ReachGoal?* -->
<g id="edge12" class="edge">
<title>Fallback*&#45;&gt;ReachGoal?*</title>
<path fill="none" stroke="black" d="M371.17,-149.28C349.6,-138.1 316.85,-121.12 292.25,-108.36"/>
<polygon fill="black" stroke="black" points="293.75,-105.2 283.26,-103.7 290.53,-111.41 293.75,-105.2"/>
</g>
<!-- LkGraph?** -->
<g id="node14" class="node">
<title>LkGraph?**</title>
<ellipse fill="gray" stroke="black" cx="349.77" cy="-90" rx="35.59" ry="18"/>
<text text-anchor="middle" x="349.77" y="-87.8" font-family="Times,serif" font-size="9.00">LkGraph?**</text>
</g>
<!-- Fallback*&#45;&gt;LkGraph?** -->
<g id="edge13" class="edge">
<title>Fallback*&#45;&gt;LkGraph?**</title>
<path fill="none" stroke="black" d="M382.89,-143.7C377.7,-135.44 371.38,-125.39 365.67,-116.3"/>
<polygon fill="black" stroke="black" points="368.5,-114.23 360.21,-107.62 362.57,-117.95 368.5,-114.23"/>
</g>
<!-- MoveTo!** -->
<g id="node15" class="node">
<title>MoveTo!**</title>
<ellipse fill="gray" stroke="black" cx="437.77" cy="-90" rx="34.13" ry="18"/>
<text text-anchor="middle" x="437.77" y="-87.8" font-family="Times,serif" font-size="9.00">MoveTo!**</text>
</g>
<!-- Fallback*&#45;&gt;MoveTo!** -->
<g id="edge14" class="edge">
<title>Fallback*&#45;&gt;MoveTo!**</title>
<path fill="none" stroke="black" d="M404.64,-143.7C409.83,-135.44 416.15,-125.39 421.86,-116.3"/>
<polygon fill="black" stroke="black" points="424.96,-117.95 427.32,-107.62 419.03,-114.23 424.96,-117.95"/>
</g>
<!-- MoveTo!*** -->
<g id="node16" class="node">
<title>MoveTo!***</title>
<ellipse fill="gray" stroke="black" cx="526.77" cy="-90" rx="36.9" ry="18"/>
<text text-anchor="middle" x="526.77" y="-87.8" font-family="Times,serif" font-size="9.00">MoveTo!***</text>
</g>
<!-- Fallback*&#45;&gt;MoveTo!*** -->
<g id="edge15" class="edge">
<title>Fallback*&#45;&gt;MoveTo!***</title>
<path fill="none" stroke="black" d="M416.33,-149.13C437.39,-138.04 469.11,-121.34 493.16,-108.69"/>
<polygon fill="black" stroke="black" points="495.07,-111.64 502.29,-103.88 491.81,-105.44 495.07,-111.64"/>
</g>
<!-- Sequence** -->
<g id="node23" class="node">
<title>Sequence**</title>
<polygon fill="cyan" stroke="black" points="911.51,-82.54 911.51,-97.46 889.98,-108 859.55,-108 838.02,-97.46 838.02,-82.54 859.55,-72 889.98,-72 911.51,-82.54"/>
<text text-anchor="middle" x="874.77" y="-87.8" font-family="Times,serif" font-size="9.00">Sequence**</text>
</g>
<!-- Fallback**&#45;&gt;Sequence** -->
<g id="edge22" class="edge">
<title>Fallback**&#45;&gt;Sequence**</title>
<path fill="none" stroke="black" d="M986.76,-148.65C964.99,-137.44 932.67,-120.8 908.34,-108.28"/>
<polygon fill="black" stroke="black" points="909.94,-105.17 899.44,-103.7 906.73,-111.39 909.94,-105.17"/>
</g>
<!-- GetSubGoal!* -->
<g id="node27" class="node">
<title>GetSubGoal!*</title>
<ellipse fill="gray" stroke="black" cx="968.77" cy="-90" rx="39.02" ry="18"/>
<text text-anchor="middle" x="968.77" y="-87.8" font-family="Times,serif" font-size="9.00">GetSubGoal!*</text>
</g>
<!-- Fallback**&#45;&gt;GetSubGoal!* -->
<g id="edge26" class="edge">
<title>Fallback**&#45;&gt;GetSubGoal!*</title>
<path fill="none" stroke="black" d="M1000.38,-143.7C995.43,-135.44 989.4,-125.39 983.95,-116.3"/>
<polygon fill="black" stroke="black" points="986.88,-114.4 978.74,-107.62 980.88,-118 986.88,-114.4"/>
</g>
<!-- GetLk! -->
<g id="node28" class="node">
<title>GetLk!</title>
<ellipse fill="gray" stroke="black" cx="1052.77" cy="-90" rx="27" ry="18"/>
<text text-anchor="middle" x="1052.77" y="-87.8" font-family="Times,serif" font-size="9.00">GetLk!</text>
</g>
<!-- Fallback**&#45;&gt;GetLk! -->
<g id="edge27" class="edge">
<title>Fallback**&#45;&gt;GetLk!</title>
<path fill="none" stroke="black" d="M1021.15,-143.7C1026.18,-135.32 1032.31,-125.1 1037.83,-115.9"/>
<polygon fill="black" stroke="black" points="1040.93,-117.52 1043.08,-107.14 1034.93,-113.92 1040.93,-117.52"/>
</g>
<!-- LkClose?** -->
<g id="node29" class="node">
<title>LkClose?**</title>
<ellipse fill="gray" stroke="black" cx="1131.77" cy="-90" rx="34.13" ry="18"/>
<text text-anchor="middle" x="1131.77" y="-87.8" font-family="Times,serif" font-size="9.00">LkClose?**</text>
</g>
<!-- Fallback**&#45;&gt;LkClose?** -->
<g id="edge28" class="edge">
<title>Fallback**&#45;&gt;LkClose?**</title>
<path fill="none" stroke="black" d="M1033.24,-148C1052.17,-137.05 1079.46,-121.26 1100.52,-109.08"/>
<polygon fill="black" stroke="black" points="1102.51,-111.97 1109.41,-103.93 1099,-105.91 1102.51,-111.97"/>
</g>
<!-- LkClose?* -->
<g id="node24" class="node">
<title>LkClose?*</title>
<ellipse fill="gray" stroke="black" cx="780.77" cy="-18" rx="31.51" ry="18"/>
<text text-anchor="middle" x="780.77" y="-15.8" font-family="Times,serif" font-size="9.00">LkClose?*</text>
</g>
<!-- Sequence**&#45;&gt;LkClose?* -->
<g id="edge23" class="edge">
<title>Sequence**&#45;&gt;LkClose?*</title>
<path fill="none" stroke="black" d="M854.83,-74.15C841.14,-63.96 822.79,-50.29 807.78,-39.12"/>
<polygon fill="black" stroke="black" points="809.5,-36.04 799.39,-32.87 805.32,-41.65 809.5,-36.04"/>
</g>
<!-- MoveTo!****** -->
<g id="node25" class="node">
<title>MoveTo!******</title>
<ellipse fill="gray" stroke="black" cx="874.77" cy="-18" rx="44.41" ry="18"/>
<text text-anchor="middle" x="874.77" y="-15.8" font-family="Times,serif" font-size="9.00">MoveTo!******</text>
</g>
<!-- Sequence**&#45;&gt;MoveTo!****** -->
<g id="edge24" class="edge">
<title>Sequence**&#45;&gt;MoveTo!******</title>
<path fill="none" stroke="black" d="M874.77,-71.7C874.77,-63.98 874.77,-54.71 874.77,-46.11"/>
<polygon fill="black" stroke="black" points="878.27,-46.1 874.77,-36.1 871.27,-46.1 878.27,-46.1"/>
</g>
<!-- MoveTo!******* -->
<g id="node26" class="node">
<title>MoveTo!*******</title>
<ellipse fill="gray" stroke="black" cx="984.77" cy="-18" rx="47.19" ry="18"/>
<text text-anchor="middle" x="984.77" y="-15.8" font-family="Times,serif" font-size="9.00">MoveTo!*******</text>
</g>
<!-- Sequence**&#45;&gt;MoveTo!******* -->
<g id="edge25" class="edge">
<title>Sequence**&#45;&gt;MoveTo!*******</title>
<path fill="none" stroke="black" d="M896.5,-75.17C912.64,-64.9 934.91,-50.73 953.04,-39.19"/>
<polygon fill="black" stroke="black" points="955,-42.09 961.56,-33.77 951.24,-36.18 955,-42.09"/>
</g>
<!-- LkClose?**** -->
<g id="node39" class="node">
<title>LkClose?****</title>
<ellipse fill="gray" stroke="black" cx="1910.77" cy="-162" rx="39.02" ry="18"/>
<text text-anchor="middle" x="1910.77" y="-159.8" font-family="Times,serif" font-size="9.00">LkClose?****</text>
</g>
<!-- Sequence***&#45;&gt;LkClose?**** -->
<g id="edge38" class="edge">
<title>Sequence***&#45;&gt;LkClose?****</title>
<path fill="none" stroke="black" d="M1944.64,-215.7C1939.33,-207.44 1932.88,-197.39 1927.03,-188.3"/>
<polygon fill="black" stroke="black" points="1929.8,-186.14 1921.45,-179.62 1923.91,-189.93 1929.8,-186.14"/>
</g>
<!-- GetLk!*** -->
<g id="node40" class="node">
<title>GetLk!***</title>
<ellipse fill="gray" stroke="black" cx="2000.77" cy="-162" rx="32.16" ry="18"/>
<text text-anchor="middle" x="2000.77" y="-159.8" font-family="Times,serif" font-size="9.00">GetLk!***</text>
</g>
<!-- Sequence***&#45;&gt;GetLk!*** -->
<g id="edge39" class="edge">
<title>Sequence***&#45;&gt;GetLk!***</title>
<path fill="none" stroke="black" d="M1966.89,-215.7C1972.33,-207.23 1978.98,-196.89 1984.94,-187.61"/>
<polygon fill="black" stroke="black" points="1987.92,-189.45 1990.39,-179.14 1982.03,-185.66 1987.92,-189.45"/>
</g>
<!-- LkClose?***** -->
<g id="node41" class="node">
<title>LkClose?*****</title>
<ellipse fill="gray" stroke="black" cx="2092.77" cy="-162" rx="42.29" ry="18"/>
<text text-anchor="middle" x="2092.77" y="-159.8" font-family="Times,serif" font-size="9.00">LkClose?*****</text>
</g>
<!-- Sequence***&#45;&gt;LkClose?***** -->
<g id="edge40" class="edge">
<title>Sequence***&#45;&gt;LkClose?*****</title>
<path fill="none" stroke="black" d="M1981.21,-220C2002.66,-209.04 2033.59,-193.24 2057.44,-181.05"/>
<polygon fill="black" stroke="black" points="2059.21,-184.08 2066.52,-176.41 2056.02,-177.84 2059.21,-184.08"/>
</g>
</g>
</svg>
