<?xml version="1.0" encoding="UTF-8" standalone="no"?>
<!DOCTYPE svg PUBLIC "-//W3C//DTD SVG 1.1//EN"
 "http://www.w3.org/Graphics/SVG/1.1/DTD/svg11.dtd">
<!-- Generated by graphviz version 2.43.0 (0)
 -->
<!-- Title: pastafarianism Pages: 1 -->
<svg width="2280pt" height="260pt"
 viewBox="0.00 0.00 2279.72 260.00" xmlns="http://www.w3.org/2000/svg" xmlns:xlink="http://www.w3.org/1999/xlink">
<g id="graph0" class="graph" transform="scale(1 1) rotate(0) translate(4 256)">
<title>pastafarianism</title>
<polygon fill="white" stroke="transparent" points="-4,4 -4,-256 2275.72,-256 2275.72,4 -4,4"/>
<!-- Fallback -->
<g id="node1" class="node">
<title>Fallback</title>
<polygon fill="cyan" stroke="black" points="981.01,-226.54 981.01,-241.46 963.88,-252 939.65,-252 922.52,-241.46 922.52,-226.54 939.65,-216 963.88,-216 981.01,-226.54"/>
<text text-anchor="middle" x="951.77" y="-231.8" font-family="Times,serif" font-size="9.00">Fallback</text>
</g>
<!-- Sequence -->
<g id="node2" class="node">
<title>Sequence</title>
<polygon fill="cyan" stroke="black" points="172.26,-154.54 172.26,-169.46 153.81,-180 127.72,-180 109.27,-169.46 109.27,-154.54 127.72,-144 153.81,-144 172.26,-154.54"/>
<text text-anchor="middle" x="140.77" y="-159.8" font-family="Times,serif" font-size="9.00">Sequence</text>
</g>
<!-- Fallback&#45;&gt;Sequence -->
<g id="edge1" class="edge">
<title>Fallback&#45;&gt;Sequence</title>
<path fill="none" stroke="black" d="M922.42,-230.47C799.55,-219.86 326.14,-179 182.39,-166.59"/>
<polygon fill="black" stroke="black" points="182.5,-163.09 172.23,-165.72 181.89,-170.06 182.5,-163.09"/>
</g>
<!-- LkGraph? -->
<g id="node5" class="node">
<title>LkGraph?</title>
<ellipse fill="gray" stroke="black" cx="787.77" cy="-162" rx="30.7" ry="18"/>
<text text-anchor="middle" x="787.77" y="-159.8" font-family="Times,serif" font-size="9.00">LkGraph?</text>
</g>
<!-- Fallback&#45;&gt;LkGraph? -->
<g id="edge4" class="edge">
<title>Fallback&#45;&gt;LkGraph?</title>
<path fill="none" stroke="black" d="M928.27,-222.97C900.18,-210.98 852.97,-190.83 821.11,-177.23"/>
<polygon fill="black" stroke="black" points="822.32,-173.94 811.75,-173.24 819.58,-180.38 822.32,-173.94"/>
</g>
<!-- ReachGoal? -->
<g id="node6" class="node">
<title>ReachGoal?</title>
<ellipse fill="gray" stroke="black" cx="870.77" cy="-162" rx="34.13" ry="18"/>
<text text-anchor="middle" x="870.77" y="-159.8" font-family="Times,serif" font-size="9.00">ReachGoal?</text>
</g>
<!-- Fallback&#45;&gt;ReachGoal? -->
<g id="edge5" class="edge">
<title>Fallback&#45;&gt;ReachGoal?</title>
<path fill="none" stroke="black" d="M934.98,-218.5C923.55,-208.61 908.22,-195.36 895.4,-184.29"/>
<polygon fill="black" stroke="black" points="897.66,-181.62 887.81,-177.73 893.08,-186.91 897.66,-181.62"/>
</g>
<!-- LkClose? -->
<g id="node7" class="node">
<title>LkClose?</title>
<ellipse fill="gray" stroke="black" cx="951.77" cy="-162" rx="28.74" ry="18"/>
<text text-anchor="middle" x="951.77" y="-159.8" font-family="Times,serif" font-size="9.00">LkClose?</text>
</g>
<!-- Fallback&#45;&gt;LkClose? -->
<g id="edge6" class="edge">
<title>Fallback&#45;&gt;LkClose?</title>
<path fill="none" stroke="black" d="M951.77,-215.7C951.77,-207.98 951.77,-198.71 951.77,-190.11"/>
<polygon fill="black" stroke="black" points="955.27,-190.1 951.77,-180.1 948.27,-190.1 955.27,-190.1"/>
</g>
<!-- LkGraph?* -->
<g id="node8" class="node">
<title>LkGraph?*</title>
<ellipse fill="gray" stroke="black" cx="1031.77" cy="-162" rx="32.82" ry="18"/>
<text text-anchor="middle" x="1031.77" y="-159.8" font-family="Times,serif" font-size="9.00">LkGraph?*</text>
</g>
<!-- Fallback&#45;&gt;LkGraph?* -->
<g id="edge7" class="edge">
<title>Fallback&#45;&gt;LkGraph?*</title>
<path fill="none" stroke="black" d="M968.34,-218.5C979.53,-208.71 994.49,-195.61 1007.07,-184.6"/>
<polygon fill="black" stroke="black" points="1009.71,-186.95 1014.94,-177.73 1005.1,-181.68 1009.71,-186.95"/>
</g>
<!-- Sequence* -->
<g id="node9" class="node">
<title>Sequence*</title>
<polygon fill="cyan" stroke="black" points="1151.01,-154.54 1151.01,-169.46 1130.95,-180 1102.58,-180 1082.52,-169.46 1082.52,-154.54 1102.58,-144 1130.95,-144 1151.01,-154.54"/>
<text text-anchor="middle" x="1116.77" y="-159.8" font-family="Times,serif" font-size="9.00">Sequence*</text>
</g>
<!-- Fallback&#45;&gt;Sequence* -->
<g id="edge8" class="edge">
<title>Fallback&#45;&gt;Sequence*</title>
<path fill="none" stroke="black" d="M975.41,-222.97C1003.19,-211.19 1049.54,-191.52 1081.56,-177.94"/>
<polygon fill="black" stroke="black" points="1083.16,-181.06 1091,-173.93 1080.42,-174.62 1083.16,-181.06"/>
</g>
<!-- Sequence** -->
<g id="node33" class="node">
<title>Sequence**</title>
<polygon fill="cyan" stroke="black" points="2142.51,-154.54 2142.51,-169.46 2120.98,-180 2090.55,-180 2069.02,-169.46 2069.02,-154.54 2090.55,-144 2120.98,-144 2142.51,-154.54"/>
<text text-anchor="middle" x="2105.77" y="-159.8" font-family="Times,serif" font-size="9.00">Sequence**</text>
</g>
<!-- Fallback&#45;&gt;Sequence** -->
<g id="edge32" class="edge">
<title>Fallback&#45;&gt;Sequence**</title>
<path fill="none" stroke="black" d="M981.16,-231.22C1136.94,-221.77 1866.16,-177.53 2058.93,-165.84"/>
<polygon fill="black" stroke="black" points="2059.24,-169.33 2069.01,-165.23 2058.82,-162.34 2059.24,-169.33"/>
</g>
<!-- NotReadyForSG? -->
<g id="node3" class="node">
<title>NotReadyForSG?</title>
<ellipse fill="gray" stroke="black" cx="46.77" cy="-90" rx="46.53" ry="18"/>
<text text-anchor="middle" x="46.77" y="-87.8" font-family="Times,serif" font-size="9.00">NotReadyForSG?</text>
</g>
<!-- Sequence&#45;&gt;NotReadyForSG? -->
<g id="edge2" class="edge">
<title>Sequence&#45;&gt;NotReadyForSG?</title>
<path fill="none" stroke="black" d="M121.74,-146.83C108.56,-137.02 90.76,-123.76 75.81,-112.63"/>
<polygon fill="black" stroke="black" points="77.5,-109.52 67.39,-106.36 73.32,-115.14 77.5,-109.52"/>
</g>
<!-- MoveTo! -->
<g id="node4" class="node">
<title>MoveTo!</title>
<ellipse fill="gray" stroke="black" cx="140.77" cy="-90" rx="28.74" ry="18"/>
<text text-anchor="middle" x="140.77" y="-87.8" font-family="Times,serif" font-size="9.00">MoveTo!</text>
</g>
<!-- Sequence&#45;&gt;MoveTo! -->
<g id="edge3" class="edge">
<title>Sequence&#45;&gt;MoveTo!</title>
<path fill="none" stroke="black" d="M140.77,-143.7C140.77,-135.98 140.77,-126.71 140.77,-118.11"/>
<polygon fill="black" stroke="black" points="144.27,-118.1 140.77,-108.1 137.27,-118.1 144.27,-118.1"/>
</g>
<!-- GetSubGoal! -->
<g id="node10" class="node">
<title>GetSubGoal!</title>
<ellipse fill="gray" stroke="black" cx="224.77" cy="-90" rx="36.9" ry="18"/>
<text text-anchor="middle" x="224.77" y="-87.8" font-family="Times,serif" font-size="9.00">GetSubGoal!</text>
</g>
<!-- Sequence*&#45;&gt;GetSubGoal! -->
<g id="edge9" class="edge">
<title>Sequence*&#45;&gt;GetSubGoal!</title>
<path fill="none" stroke="black" d="M1091.73,-149.5C1085.94,-147.29 1079.73,-145.28 1073.77,-144 724.41,-69.3 620.93,-178.76 270.77,-108 267.59,-107.36 264.35,-106.53 261.13,-105.59"/>
<polygon fill="black" stroke="black" points="262.2,-102.26 251.6,-102.49 260.03,-108.92 262.2,-102.26"/>
</g>
<!-- MoveTo!* -->
<g id="node11" class="node">
<title>MoveTo!*</title>
<ellipse fill="gray" stroke="black" cx="311.77" cy="-90" rx="31.51" ry="18"/>
<text text-anchor="middle" x="311.77" y="-87.8" font-family="Times,serif" font-size="9.00">MoveTo!*</text>
</g>
<!-- Sequence*&#45;&gt;MoveTo!* -->
<g id="edge10" class="edge">
<title>Sequence*&#45;&gt;MoveTo!*</title>
<path fill="none" stroke="black" d="M1091.73,-149.52C1085.94,-147.31 1079.73,-145.29 1073.77,-144 760.19,-76.12 665.77,-178.48 352.77,-108 350.11,-107.4 347.4,-106.64 344.71,-105.78"/>
<polygon fill="black" stroke="black" points="345.76,-102.44 335.16,-102.31 343.36,-109.02 345.76,-102.44"/>
</g>
<!-- Fallback* -->
<g id="node12" class="node">
<title>Fallback*</title>
<polygon fill="cyan" stroke="black" points="425.51,-82.54 425.51,-97.46 406.91,-108 380.62,-108 362.02,-97.46 362.02,-82.54 380.62,-72 406.91,-72 425.51,-82.54"/>
<text text-anchor="middle" x="393.77" y="-87.8" font-family="Times,serif" font-size="9.00">Fallback*</text>
</g>
<!-- Sequence*&#45;&gt;Fallback* -->
<g id="edge11" class="edge">
<title>Sequence*&#45;&gt;Fallback*</title>
<path fill="none" stroke="black" d="M1091.72,-149.55C1085.93,-147.34 1079.72,-145.31 1073.77,-144 795.95,-82.93 712.07,-171.37 434.77,-108 432.11,-107.39 429.41,-106.63 426.72,-105.77"/>
<polygon fill="black" stroke="black" points="427.76,-102.42 417.17,-102.29 425.37,-109 427.76,-102.42"/>
</g>
<!-- MoveTo!*** -->
<g id="node15" class="node">
<title>MoveTo!***</title>
<ellipse fill="gray" stroke="black" cx="480.77" cy="-90" rx="36.9" ry="18"/>
<text text-anchor="middle" x="480.77" y="-87.8" font-family="Times,serif" font-size="9.00">MoveTo!***</text>
</g>
<!-- Sequence*&#45;&gt;MoveTo!*** -->
<g id="edge14" class="edge">
<title>Sequence*&#45;&gt;MoveTo!***</title>
<path fill="none" stroke="black" d="M1091.71,-149.59C1085.93,-147.38 1079.72,-145.34 1073.77,-144 836.06,-90.57 765.06,-158.75 526.77,-108 523.6,-107.33 520.36,-106.48 517.14,-105.52"/>
<polygon fill="black" stroke="black" points="518.22,-102.19 507.62,-102.4 516.03,-108.84 518.22,-102.19"/>
</g>
<!-- NotReadyForSG?* -->
<g id="node16" class="node">
<title>NotReadyForSG?*</title>
<ellipse fill="gray" stroke="black" cx="585.77" cy="-90" rx="49.8" ry="18"/>
<text text-anchor="middle" x="585.77" y="-87.8" font-family="Times,serif" font-size="9.00">NotReadyForSG?*</text>
</g>
<!-- Sequence*&#45;&gt;NotReadyForSG?* -->
<g id="edge15" class="edge">
<title>Sequence*&#45;&gt;NotReadyForSG?*</title>
<path fill="none" stroke="black" d="M1091.69,-149.67C1085.91,-147.46 1079.71,-145.39 1073.77,-144 887.47,-100.36 832.94,-142.66 644.77,-108 640.4,-107.2 635.9,-106.2 631.41,-105.11"/>
<polygon fill="black" stroke="black" points="632.25,-101.71 621.69,-102.57 630.48,-108.48 632.25,-101.71"/>
</g>
<!-- LkGraph?*** -->
<g id="node17" class="node">
<title>LkGraph?***</title>
<ellipse fill="gray" stroke="black" cx="691.77" cy="-90" rx="38.21" ry="18"/>
<text text-anchor="middle" x="691.77" y="-87.8" font-family="Times,serif" font-size="9.00">LkGraph?***</text>
</g>
<!-- Sequence*&#45;&gt;LkGraph?*** -->
<g id="edge16" class="edge">
<title>Sequence*&#45;&gt;LkGraph?***</title>
<path fill="none" stroke="black" d="M1091.21,-149.6C1085.56,-147.44 1079.53,-145.42 1073.77,-144 928.37,-108.15 884.67,-141.71 738.77,-108 735.74,-107.3 732.63,-106.46 729.54,-105.54"/>
<polygon fill="black" stroke="black" points="730.36,-102.13 719.77,-102.37 728.2,-108.79 730.36,-102.13"/>
</g>
<!-- GetSubGoal!* -->
<g id="node18" class="node">
<title>GetSubGoal!*</title>
<ellipse fill="gray" stroke="black" cx="786.77" cy="-90" rx="39.02" ry="18"/>
<text text-anchor="middle" x="786.77" y="-87.8" font-family="Times,serif" font-size="9.00">GetSubGoal!*</text>
</g>
<!-- Sequence*&#45;&gt;GetSubGoal!* -->
<g id="edge17" class="edge">
<title>Sequence*&#45;&gt;GetSubGoal!*</title>
<path fill="none" stroke="black" d="M1091.16,-149.78C1085.51,-147.62 1079.5,-145.54 1073.77,-144 970.04,-116.07 938.98,-134.05 834.77,-108 831.63,-107.22 828.42,-106.31 825.21,-105.34"/>
<polygon fill="black" stroke="black" points="826.28,-102 815.68,-102.24 824.11,-108.66 826.28,-102"/>
</g>
<!-- NotReadyForSG?** -->
<g id="node19" class="node">
<title>NotReadyForSG?**</title>
<ellipse fill="gray" stroke="black" cx="895.77" cy="-90" rx="51.92" ry="18"/>
<text text-anchor="middle" x="895.77" y="-87.8" font-family="Times,serif" font-size="9.00">NotReadyForSG?**</text>
</g>
<!-- Sequence*&#45;&gt;NotReadyForSG?** -->
<g id="edge18" class="edge">
<title>Sequence*&#45;&gt;NotReadyForSG?**</title>
<path fill="none" stroke="black" d="M1090.52,-150.21C1085.02,-148.06 1079.23,-145.89 1073.77,-144 1049.83,-135.72 988.22,-117.64 944.21,-104.91"/>
<polygon fill="black" stroke="black" points="945.12,-101.53 934.54,-102.12 943.18,-108.26 945.12,-101.53"/>
</g>
<!-- MoveTo!**** -->
<g id="node20" class="node">
<title>MoveTo!****</title>
<ellipse fill="gray" stroke="black" cx="1004.77" cy="-90" rx="39.02" ry="18"/>
<text text-anchor="middle" x="1004.77" y="-87.8" font-family="Times,serif" font-size="9.00">MoveTo!****</text>
</g>
<!-- Sequence*&#45;&gt;MoveTo!**** -->
<g id="edge19" class="edge">
<title>Sequence*&#45;&gt;MoveTo!****</title>
<path fill="none" stroke="black" d="M1095.44,-147.67C1078.56,-137.12 1054.76,-122.25 1035.78,-110.38"/>
<polygon fill="black" stroke="black" points="1037.5,-107.33 1027.17,-105 1033.79,-113.27 1037.5,-107.33"/>
</g>
<!-- NotReadyForSG?*** -->
<g id="node21" class="node">
<title>NotReadyForSG?***</title>
<ellipse fill="gray" stroke="black" cx="1116.77" cy="-90" rx="54.7" ry="18"/>
<text text-anchor="middle" x="1116.77" y="-87.8" font-family="Times,serif" font-size="9.00">NotReadyForSG?***</text>
</g>
<!-- Sequence*&#45;&gt;NotReadyForSG?*** -->
<g id="edge20" class="edge">
<title>Sequence*&#45;&gt;NotReadyForSG?***</title>
<path fill="none" stroke="black" d="M1116.77,-143.7C1116.77,-135.98 1116.77,-126.71 1116.77,-118.11"/>
<polygon fill="black" stroke="black" points="1120.27,-118.1 1116.77,-108.1 1113.27,-118.1 1120.27,-118.1"/>
</g>
<!-- Fallback** -->
<g id="node22" class="node">
<title>Fallback**</title>
<polygon fill="cyan" stroke="black" points="1259.76,-82.54 1259.76,-97.46 1239.26,-108 1210.27,-108 1189.77,-97.46 1189.77,-82.54 1210.27,-72 1239.26,-72 1259.76,-82.54"/>
<text text-anchor="middle" x="1224.77" y="-87.8" font-family="Times,serif" font-size="9.00">Fallback**</text>
</g>
<!-- Sequence*&#45;&gt;Fallback** -->
<g id="edge21" class="edge">
<title>Sequence*&#45;&gt;Fallback**</title>
<path fill="none" stroke="black" d="M1137.85,-147.34C1154.09,-136.81 1176.77,-122.11 1194.89,-110.36"/>
<polygon fill="black" stroke="black" points="1196.88,-113.24 1203.37,-104.87 1193.07,-107.37 1196.88,-113.24"/>
</g>
<!-- ReachGoal?* -->
<g id="node25" class="node">
<title>ReachGoal?*</title>
<ellipse fill="gray" stroke="black" cx="1314.77" cy="-90" rx="36.9" ry="18"/>
<text text-anchor="middle" x="1314.77" y="-87.8" font-family="Times,serif" font-size="9.00">ReachGoal?*</text>
</g>
<!-- Sequence*&#45;&gt;ReachGoal?* -->
<g id="edge24" class="edge">
<title>Sequence*&#45;&gt;ReachGoal?*</title>
<path fill="none" stroke="black" d="M1145.11,-151.29C1175.69,-140.78 1225.76,-123.44 1268.77,-108 1271.31,-107.09 1273.93,-106.14 1276.56,-105.18"/>
<polygon fill="black" stroke="black" points="1277.9,-108.42 1286.09,-101.69 1275.49,-101.84 1277.9,-108.42"/>
</g>
<!-- MoveTo!***** -->
<g id="node26" class="node">
<title>MoveTo!*****</title>
<ellipse fill="gray" stroke="black" cx="1411.77" cy="-90" rx="42.29" ry="18"/>
<text text-anchor="middle" x="1411.77" y="-87.8" font-family="Times,serif" font-size="9.00">MoveTo!*****</text>
</g>
<!-- Sequence*&#45;&gt;MoveTo!***** -->
<g id="edge25" class="edge">
<title>Sequence*&#45;&gt;MoveTo!*****</title>
<path fill="none" stroke="black" d="M1151.4,-154.7C1198.95,-145.77 1286.98,-128.25 1360.77,-108 1363.96,-107.12 1367.25,-106.16 1370.55,-105.16"/>
<polygon fill="black" stroke="black" points="1371.89,-108.41 1380.37,-102.06 1369.78,-101.73 1371.89,-108.41"/>
</g>
<!-- GetLk!* -->
<g id="node27" class="node">
<title>GetLk!*</title>
<ellipse fill="gray" stroke="black" cx="1498.77" cy="-90" rx="27.27" ry="18"/>
<text text-anchor="middle" x="1498.77" y="-87.8" font-family="Times,serif" font-size="9.00">GetLk!*</text>
</g>
<!-- Sequence*&#45;&gt;GetLk!* -->
<g id="edge26" class="edge">
<title>Sequence*&#45;&gt;GetLk!*</title>
<path fill="none" stroke="black" d="M1151.38,-159.01C1214.52,-154.66 1352.05,-141.83 1462.77,-108 1464.7,-107.41 1466.66,-106.73 1468.62,-105.99"/>
<polygon fill="black" stroke="black" points="1470.38,-109.05 1478.23,-101.94 1467.66,-102.6 1470.38,-109.05"/>
</g>
<!-- MoveTo!****** -->
<g id="node28" class="node">
<title>MoveTo!******</title>
<ellipse fill="gray" stroke="black" cx="1588.77" cy="-90" rx="44.41" ry="18"/>
<text text-anchor="middle" x="1588.77" y="-87.8" font-family="Times,serif" font-size="9.00">MoveTo!******</text>
</g>
<!-- Sequence*&#45;&gt;MoveTo!****** -->
<g id="edge27" class="edge">
<title>Sequence*&#45;&gt;MoveTo!******</title>
<path fill="none" stroke="black" d="M1151.25,-158.72C1223.22,-153.52 1394.35,-138.74 1534.77,-108 1538.6,-107.16 1542.55,-106.17 1546.49,-105.09"/>
<polygon fill="black" stroke="black" points="1547.55,-108.43 1556.18,-102.29 1545.6,-101.71 1547.55,-108.43"/>
</g>
<!-- MoveTo!******* -->
<g id="node29" class="node">
<title>MoveTo!*******</title>
<ellipse fill="gray" stroke="black" cx="1698.77" cy="-90" rx="47.19" ry="18"/>
<text text-anchor="middle" x="1698.77" y="-87.8" font-family="Times,serif" font-size="9.00">MoveTo!*******</text>
</g>
<!-- Sequence*&#45;&gt;MoveTo!******* -->
<g id="edge28" class="edge">
<title>Sequence*&#45;&gt;MoveTo!*******</title>
<path fill="none" stroke="black" d="M1151.19,-159.78C1235.56,-156.29 1459.11,-144.12 1641.77,-108 1645.93,-107.18 1650.22,-106.18 1654.49,-105.09"/>
<polygon fill="black" stroke="black" points="1655.64,-108.4 1664.36,-102.4 1653.8,-101.65 1655.64,-108.4"/>
</g>
<!-- GetSubGoal!*** -->
<g id="node30" class="node">
<title>GetSubGoal!***</title>
<ellipse fill="gray" stroke="black" cx="1808.77" cy="-90" rx="44.41" ry="18"/>
<text text-anchor="middle" x="1808.77" y="-87.8" font-family="Times,serif" font-size="9.00">GetSubGoal!***</text>
</g>
<!-- Sequence*&#45;&gt;GetSubGoal!*** -->
<g id="edge29" class="edge">
<title>Sequence*&#45;&gt;GetSubGoal!***</title>
<path fill="none" stroke="black" d="M1151.02,-160.82C1247.17,-159.73 1527.37,-152.66 1754.77,-108 1758.67,-107.23 1762.69,-106.28 1766.69,-105.23"/>
<polygon fill="black" stroke="black" points="1767.85,-108.54 1776.51,-102.43 1765.94,-101.8 1767.85,-108.54"/>
</g>
<!-- GetLk!** -->
<g id="node31" class="node">
<title>GetLk!**</title>
<ellipse fill="gray" stroke="black" cx="1900.77" cy="-90" rx="29.39" ry="18"/>
<text text-anchor="middle" x="1900.77" y="-87.8" font-family="Times,serif" font-size="9.00">GetLk!**</text>
</g>
<!-- Sequence*&#45;&gt;GetLk!** -->
<g id="edge30" class="edge">
<title>Sequence*&#45;&gt;GetLk!**</title>
<path fill="none" stroke="black" d="M1151.18,-160.1C1278.74,-156.52 1724.2,-141.82 1861.77,-108 1864.21,-107.4 1866.7,-106.65 1869.18,-105.82"/>
<polygon fill="black" stroke="black" points="1870.45,-109.08 1878.54,-102.23 1867.94,-102.54 1870.45,-109.08"/>
</g>
<!-- LkClose?* -->
<g id="node32" class="node">
<title>LkClose?*</title>
<ellipse fill="gray" stroke="black" cx="1979.77" cy="-90" rx="31.51" ry="18"/>
<text text-anchor="middle" x="1979.77" y="-87.8" font-family="Times,serif" font-size="9.00">LkClose?*</text>
</g>
<!-- Sequence*&#45;&gt;LkClose?* -->
<g id="edge31" class="edge">
<title>Sequence*&#45;&gt;LkClose?*</title>
<path fill="none" stroke="black" d="M1151.41,-160.28C1287.48,-157.2 1785.38,-143.71 1938.77,-108 1941.42,-107.38 1944.12,-106.61 1946.81,-105.74"/>
<polygon fill="black" stroke="black" points="1948.16,-108.97 1956.35,-102.25 1945.76,-102.4 1948.16,-108.97"/>
</g>
<!-- LkGraph?** -->
<g id="node13" class="node">
<title>LkGraph?**</title>
<ellipse fill="gray" stroke="black" cx="349.77" cy="-18" rx="35.59" ry="18"/>
<text text-anchor="middle" x="349.77" y="-15.8" font-family="Times,serif" font-size="9.00">LkGraph?**</text>
</g>
<!-- Fallback*&#45;&gt;LkGraph?** -->
<g id="edge12" class="edge">
<title>Fallback*&#45;&gt;LkGraph?**</title>
<path fill="none" stroke="black" d="M382.89,-71.7C377.7,-63.44 371.38,-53.39 365.67,-44.3"/>
<polygon fill="black" stroke="black" points="368.5,-42.23 360.21,-35.62 362.57,-45.95 368.5,-42.23"/>
</g>
<!-- MoveTo!** -->
<g id="node14" class="node">
<title>MoveTo!**</title>
<ellipse fill="gray" stroke="black" cx="437.77" cy="-18" rx="34.13" ry="18"/>
<text text-anchor="middle" x="437.77" y="-15.8" font-family="Times,serif" font-size="9.00">MoveTo!**</text>
</g>
<!-- Fallback*&#45;&gt;MoveTo!** -->
<g id="edge13" class="edge">
<title>Fallback*&#45;&gt;MoveTo!**</title>
<path fill="none" stroke="black" d="M404.64,-71.7C409.83,-63.44 416.15,-53.39 421.86,-44.3"/>
<polygon fill="black" stroke="black" points="424.96,-45.95 427.32,-35.62 419.03,-42.23 424.96,-45.95"/>
</g>
<!-- GetSubGoal!** -->
<g id="node23" class="node">
<title>GetSubGoal!**</title>
<ellipse fill="gray" stroke="black" cx="1180.77" cy="-18" rx="42.29" ry="18"/>
<text text-anchor="middle" x="1180.77" y="-15.8" font-family="Times,serif" font-size="9.00">GetSubGoal!**</text>
</g>
<!-- Fallback**&#45;&gt;GetSubGoal!** -->
<g id="edge22" class="edge">
<title>Fallback**&#45;&gt;GetSubGoal!**</title>
<path fill="none" stroke="black" d="M1213.89,-71.7C1208.7,-63.44 1202.38,-53.39 1196.67,-44.3"/>
<polygon fill="black" stroke="black" points="1199.5,-42.23 1191.21,-35.62 1193.57,-45.95 1199.5,-42.23"/>
</g>
<!-- GetLk! -->
<g id="node24" class="node">
<title>GetLk!</title>
<ellipse fill="gray" stroke="black" cx="1267.77" cy="-18" rx="27" ry="18"/>
<text text-anchor="middle" x="1267.77" y="-15.8" font-family="Times,serif" font-size="9.00">GetLk!</text>
</g>
<!-- Fallback**&#45;&gt;GetLk! -->
<g id="edge23" class="edge">
<title>Fallback**&#45;&gt;GetLk!</title>
<path fill="none" stroke="black" d="M1235.39,-71.7C1240.54,-63.32 1246.82,-53.1 1252.47,-43.9"/>
<polygon fill="black" stroke="black" points="1255.6,-45.5 1257.85,-35.14 1249.63,-41.83 1255.6,-45.5"/>
</g>
<!-- LkClose?** -->
<g id="node34" class="node">
<title>LkClose?**</title>
<ellipse fill="gray" stroke="black" cx="2063.77" cy="-90" rx="34.13" ry="18"/>
<text text-anchor="middle" x="2063.77" y="-87.8" font-family="Times,serif" font-size="9.00">LkClose?**</text>
</g>
<!-- Sequence**&#45;&gt;LkClose?** -->
<g id="edge33" class="edge">
<title>Sequence**&#45;&gt;LkClose?**</title>
<path fill="none" stroke="black" d="M2095.38,-143.7C2090.43,-135.44 2084.4,-125.39 2078.95,-116.3"/>
<polygon fill="black" stroke="black" points="2081.88,-114.4 2073.74,-107.62 2075.88,-118 2081.88,-114.4"/>
</g>
<!-- GetLk!*** -->
<g id="node35" class="node">
<title>GetLk!***</title>
<ellipse fill="gray" stroke="black" cx="2147.77" cy="-90" rx="32.16" ry="18"/>
<text text-anchor="middle" x="2147.77" y="-87.8" font-family="Times,serif" font-size="9.00">GetLk!***</text>
</g>
<!-- Sequence**&#45;&gt;GetLk!*** -->
<g id="edge34" class="edge">
<title>Sequence**&#45;&gt;GetLk!***</title>
<path fill="none" stroke="black" d="M2116.15,-143.7C2121.1,-135.44 2127.13,-125.39 2132.59,-116.3"/>
<polygon fill="black" stroke="black" points="2135.65,-118 2137.79,-107.62 2129.65,-114.4 2135.65,-118"/>
</g>
<!-- LkClose?*** -->
<g id="node36" class="node">
<title>LkClose?***</title>
<ellipse fill="gray" stroke="black" cx="2234.77" cy="-90" rx="36.9" ry="18"/>
<text text-anchor="middle" x="2234.77" y="-87.8" font-family="Times,serif" font-size="9.00">LkClose?***</text>
</g>
<!-- Sequence**&#45;&gt;LkClose?*** -->
<g id="edge35" class="edge">
<title>Sequence**&#45;&gt;LkClose?***</title>
<path fill="none" stroke="black" d="M2129.73,-148C2150.09,-136.95 2179.52,-120.98 2202.05,-108.75"/>
<polygon fill="black" stroke="black" points="2203.81,-111.78 2210.93,-103.93 2200.47,-105.63 2203.81,-111.78"/>
</g>
</g>
</svg>
