<?xml version="1.0" encoding="UTF-8" standalone="no"?>
<!DOCTYPE svg PUBLIC "-//W3C//DTD SVG 1.1//EN"
 "http://www.w3.org/Graphics/SVG/1.1/DTD/svg11.dtd">
<!-- Generated by graphviz version 2.43.0 (0)
 -->
<!-- Title: pastafarianism Pages: 1 -->
<svg width="2123pt" height="332pt"
 viewBox="0.00 0.00 2123.03 332.00" xmlns="http://www.w3.org/2000/svg" xmlns:xlink="http://www.w3.org/1999/xlink">
<g id="graph0" class="graph" transform="scale(1 1) rotate(0) translate(4 328)">
<title>pastafarianism</title>
<polygon fill="white" stroke="transparent" points="-4,4 -4,-328 2119.03,-328 2119.03,4 -4,4"/>
<!-- Fallback -->
<g id="node1" class="node">
<title>Fallback</title>
<polygon fill="cyan" stroke="black" points="912.01,-298.54 912.01,-313.46 894.88,-324 870.65,-324 853.52,-313.46 853.52,-298.54 870.65,-288 894.88,-288 912.01,-298.54"/>
<text text-anchor="middle" x="882.77" y="-303.8" font-family="Times,serif" font-size="9.00">Fallback</text>
</g>
<!-- Sequence -->
<g id="node2" class="node">
<title>Sequence</title>
<polygon fill="cyan" stroke="black" points="172.26,-226.54 172.26,-241.46 153.81,-252 127.72,-252 109.27,-241.46 109.27,-226.54 127.72,-216 153.81,-216 172.26,-226.54"/>
<text text-anchor="middle" x="140.77" y="-231.8" font-family="Times,serif" font-size="9.00">Sequence</text>
</g>
<!-- Fallback&#45;&gt;Sequence -->
<g id="edge1" class="edge">
<title>Fallback&#45;&gt;Sequence</title>
<path fill="none" stroke="black" d="M853.22,-302.21C737.75,-291.32 316.73,-251.6 182.31,-238.92"/>
<polygon fill="black" stroke="black" points="182.32,-235.4 172.03,-237.95 181.66,-242.37 182.32,-235.4"/>
</g>
<!-- LkGraph? -->
<g id="node5" class="node">
<title>LkGraph?</title>
<ellipse fill="gray" stroke="black" cx="757.77" cy="-234" rx="30.7" ry="18"/>
<text text-anchor="middle" x="757.77" y="-231.8" font-family="Times,serif" font-size="9.00">LkGraph?</text>
</g>
<!-- Fallback&#45;&gt;LkGraph? -->
<g id="edge4" class="edge">
<title>Fallback&#45;&gt;LkGraph?</title>
<path fill="none" stroke="black" d="M861.84,-293.28C841.69,-282 810.97,-264.79 788.12,-252"/>
<polygon fill="black" stroke="black" points="789.61,-248.82 779.17,-246.99 786.19,-254.93 789.61,-248.82"/>
</g>
<!-- ReachGoal? -->
<g id="node6" class="node">
<title>ReachGoal?</title>
<ellipse fill="gray" stroke="black" cx="840.77" cy="-234" rx="34.13" ry="18"/>
<text text-anchor="middle" x="840.77" y="-231.8" font-family="Times,serif" font-size="9.00">ReachGoal?</text>
</g>
<!-- Fallback&#45;&gt;ReachGoal? -->
<g id="edge5" class="edge">
<title>Fallback&#45;&gt;ReachGoal?</title>
<path fill="none" stroke="black" d="M872.38,-287.7C867.43,-279.44 861.4,-269.39 855.95,-260.3"/>
<polygon fill="black" stroke="black" points="858.88,-258.4 850.74,-251.62 852.88,-262 858.88,-258.4"/>
</g>
<!-- LkGraph?* -->
<g id="node7" class="node">
<title>LkGraph?*</title>
<ellipse fill="gray" stroke="black" cx="925.77" cy="-234" rx="32.82" ry="18"/>
<text text-anchor="middle" x="925.77" y="-231.8" font-family="Times,serif" font-size="9.00">LkGraph?*</text>
</g>
<!-- Fallback&#45;&gt;LkGraph?* -->
<g id="edge6" class="edge">
<title>Fallback&#45;&gt;LkGraph?*</title>
<path fill="none" stroke="black" d="M893.39,-287.7C898.47,-279.44 904.64,-269.39 910.22,-260.3"/>
<polygon fill="black" stroke="black" points="913.3,-261.98 915.55,-251.62 907.34,-258.31 913.3,-261.98"/>
</g>
<!-- Sequence* -->
<g id="node8" class="node">
<title>Sequence*</title>
<polygon fill="cyan" stroke="black" points="1045.01,-226.54 1045.01,-241.46 1024.95,-252 996.58,-252 976.52,-241.46 976.52,-226.54 996.58,-216 1024.95,-216 1045.01,-226.54"/>
<text text-anchor="middle" x="1010.77" y="-231.8" font-family="Times,serif" font-size="9.00">Sequence*</text>
</g>
<!-- Fallback&#45;&gt;Sequence* -->
<g id="edge7" class="edge">
<title>Fallback&#45;&gt;Sequence*</title>
<path fill="none" stroke="black" d="M903.9,-293.44C924.34,-282.27 955.56,-265.19 978.99,-252.38"/>
<polygon fill="black" stroke="black" points="980.77,-255.39 987.87,-247.52 977.41,-249.25 980.77,-255.39"/>
</g>
<!-- Sequence*** -->
<g id="node36" class="node">
<title>Sequence***</title>
<polygon fill="cyan" stroke="black" points="1981.76,-226.54 1981.76,-241.46 1958.33,-252 1925.2,-252 1901.78,-241.46 1901.78,-226.54 1925.2,-216 1958.33,-216 1981.76,-226.54"/>
<text text-anchor="middle" x="1941.77" y="-231.8" font-family="Times,serif" font-size="9.00">Sequence***</text>
</g>
<!-- Fallback&#45;&gt;Sequence*** -->
<g id="edge35" class="edge">
<title>Fallback&#45;&gt;Sequence***</title>
<path fill="none" stroke="black" d="M912.19,-303.05C1058.25,-293.4 1705.69,-250.6 1891.66,-238.31"/>
<polygon fill="black" stroke="black" points="1891.96,-241.8 1901.7,-237.65 1891.49,-234.82 1891.96,-241.8"/>
</g>
<!-- NotReadyForSG? -->
<g id="node3" class="node">
<title>NotReadyForSG?</title>
<ellipse fill="gray" stroke="black" cx="46.77" cy="-162" rx="46.53" ry="18"/>
<text text-anchor="middle" x="46.77" y="-159.8" font-family="Times,serif" font-size="9.00">NotReadyForSG?</text>
</g>
<!-- Sequence&#45;&gt;NotReadyForSG? -->
<g id="edge2" class="edge">
<title>Sequence&#45;&gt;NotReadyForSG?</title>
<path fill="none" stroke="black" d="M121.74,-218.83C108.56,-209.02 90.76,-195.76 75.81,-184.63"/>
<polygon fill="black" stroke="black" points="77.5,-181.52 67.39,-178.36 73.32,-187.14 77.5,-181.52"/>
</g>
<!-- MoveTo! -->
<g id="node4" class="node">
<title>MoveTo!</title>
<ellipse fill="gray" stroke="black" cx="140.77" cy="-162" rx="28.74" ry="18"/>
<text text-anchor="middle" x="140.77" y="-159.8" font-family="Times,serif" font-size="9.00">MoveTo!</text>
</g>
<!-- Sequence&#45;&gt;MoveTo! -->
<g id="edge3" class="edge">
<title>Sequence&#45;&gt;MoveTo!</title>
<path fill="none" stroke="black" d="M140.77,-215.7C140.77,-207.98 140.77,-198.71 140.77,-190.11"/>
<polygon fill="black" stroke="black" points="144.27,-190.1 140.77,-180.1 137.27,-190.1 144.27,-190.1"/>
</g>
<!-- GetSubGoal! -->
<g id="node9" class="node">
<title>GetSubGoal!</title>
<ellipse fill="gray" stroke="black" cx="224.77" cy="-162" rx="36.9" ry="18"/>
<text text-anchor="middle" x="224.77" y="-159.8" font-family="Times,serif" font-size="9.00">GetSubGoal!</text>
</g>
<!-- Sequence*&#45;&gt;GetSubGoal! -->
<g id="edge8" class="edge">
<title>Sequence*&#45;&gt;GetSubGoal!</title>
<path fill="none" stroke="black" d="M985.73,-221.53C979.94,-219.32 973.73,-217.3 967.77,-216 664.65,-150.11 574.6,-242.48 270.77,-180 267.6,-179.35 264.35,-178.52 261.13,-177.57"/>
<polygon fill="black" stroke="black" points="262.2,-174.24 251.61,-174.46 260.03,-180.89 262.2,-174.24"/>
</g>
<!-- MoveTo!* -->
<g id="node10" class="node">
<title>MoveTo!*</title>
<ellipse fill="gray" stroke="black" cx="311.77" cy="-162" rx="31.51" ry="18"/>
<text text-anchor="middle" x="311.77" y="-159.8" font-family="Times,serif" font-size="9.00">MoveTo!*</text>
</g>
<!-- Sequence*&#45;&gt;MoveTo!* -->
<g id="edge9" class="edge">
<title>Sequence*&#45;&gt;MoveTo!*</title>
<path fill="none" stroke="black" d="M985.72,-221.56C979.93,-219.35 973.72,-217.32 967.77,-216 700.41,-156.92 619.62,-241.29 352.77,-180 350.11,-179.39 347.41,-178.62 344.72,-177.76"/>
<polygon fill="black" stroke="black" points="345.76,-174.41 335.17,-174.28 343.37,-180.99 345.76,-174.41"/>
</g>
<!-- Fallback* -->
<g id="node11" class="node">
<title>Fallback*</title>
<polygon fill="cyan" stroke="black" points="425.51,-154.54 425.51,-169.46 406.91,-180 380.62,-180 362.02,-169.46 362.02,-154.54 380.62,-144 406.91,-144 425.51,-154.54"/>
<text text-anchor="middle" x="393.77" y="-159.8" font-family="Times,serif" font-size="9.00">Fallback*</text>
</g>
<!-- Sequence*&#45;&gt;Fallback* -->
<g id="edge10" class="edge">
<title>Sequence*&#45;&gt;Fallback*</title>
<path fill="none" stroke="black" d="M985.71,-221.6C979.92,-219.39 973.72,-217.34 967.77,-216 736.16,-163.73 665.93,-234.19 434.77,-180 432.11,-179.38 429.41,-178.6 426.73,-177.73"/>
<polygon fill="black" stroke="black" points="427.77,-174.39 417.18,-174.24 425.37,-180.96 427.77,-174.39"/>
</g>
<!-- MoveTo!**** -->
<g id="node15" class="node">
<title>MoveTo!****</title>
<ellipse fill="gray" stroke="black" cx="482.77" cy="-162" rx="39.02" ry="18"/>
<text text-anchor="middle" x="482.77" y="-159.8" font-family="Times,serif" font-size="9.00">MoveTo!****</text>
</g>
<!-- Sequence*&#45;&gt;MoveTo!**** -->
<g id="edge14" class="edge">
<title>Sequence*&#45;&gt;MoveTo!****</title>
<path fill="none" stroke="black" d="M985.7,-221.66C979.91,-219.45 973.71,-217.39 967.77,-216 777.99,-171.7 721.31,-220.87 530.77,-180 527.57,-179.31 524.29,-178.47 521.03,-177.53"/>
<polygon fill="black" stroke="black" points="521.94,-174.15 511.35,-174.48 519.84,-180.83 521.94,-174.15"/>
</g>
<!-- NotReadyForSG?* -->
<g id="node16" class="node">
<title>NotReadyForSG?*</title>
<ellipse fill="gray" stroke="black" cx="589.77" cy="-162" rx="49.8" ry="18"/>
<text text-anchor="middle" x="589.77" y="-159.8" font-family="Times,serif" font-size="9.00">NotReadyForSG?*</text>
</g>
<!-- Sequence*&#45;&gt;NotReadyForSG?* -->
<g id="edge15" class="edge">
<title>Sequence*&#45;&gt;NotReadyForSG?*</title>
<path fill="none" stroke="black" d="M985.21,-221.62C979.55,-219.46 973.53,-217.44 967.77,-216 829.33,-181.47 788.7,-207.85 648.77,-180 644.59,-179.17 640.28,-178.18 635.98,-177.11"/>
<polygon fill="black" stroke="black" points="636.6,-173.66 626.04,-174.49 634.81,-180.42 636.6,-173.66"/>
</g>
<!-- LkGraph?*** -->
<g id="node17" class="node">
<title>LkGraph?***</title>
<ellipse fill="gray" stroke="black" cx="695.77" cy="-162" rx="38.21" ry="18"/>
<text text-anchor="middle" x="695.77" y="-159.8" font-family="Times,serif" font-size="9.00">LkGraph?***</text>
</g>
<!-- Sequence*&#45;&gt;LkGraph?*** -->
<g id="edge16" class="edge">
<title>Sequence*&#45;&gt;LkGraph?***</title>
<path fill="none" stroke="black" d="M985.15,-221.82C979.5,-219.65 973.49,-217.57 967.77,-216 870.1,-189.22 840.82,-205.34 742.77,-180 739.84,-179.24 736.83,-178.38 733.83,-177.44"/>
<polygon fill="black" stroke="black" points="734.92,-174.12 724.33,-174.3 732.72,-180.77 734.92,-174.12"/>
</g>
<!-- NotReadyForSG?** -->
<g id="node18" class="node">
<title>NotReadyForSG?**</title>
<ellipse fill="gray" stroke="black" cx="803.77" cy="-162" rx="51.92" ry="18"/>
<text text-anchor="middle" x="803.77" y="-159.8" font-family="Times,serif" font-size="9.00">NotReadyForSG?**</text>
</g>
<!-- Sequence*&#45;&gt;NotReadyForSG?** -->
<g id="edge17" class="edge">
<title>Sequence*&#45;&gt;NotReadyForSG?**</title>
<path fill="none" stroke="black" d="M984.49,-222.3C978.99,-220.15 973.21,-217.95 967.77,-216 928.84,-202.03 884.15,-187.7 851.26,-177.47"/>
<polygon fill="black" stroke="black" points="852.04,-174.04 841.45,-174.43 849.96,-180.73 852.04,-174.04"/>
</g>
<!-- MoveTo!***** -->
<g id="node19" class="node">
<title>MoveTo!*****</title>
<ellipse fill="gray" stroke="black" cx="915.77" cy="-162" rx="42.29" ry="18"/>
<text text-anchor="middle" x="915.77" y="-159.8" font-family="Times,serif" font-size="9.00">MoveTo!*****</text>
</g>
<!-- Sequence*&#45;&gt;MoveTo!***** -->
<g id="edge18" class="edge">
<title>Sequence*&#45;&gt;MoveTo!*****</title>
<path fill="none" stroke="black" d="M991.08,-218.5C977.63,-208.59 959.59,-195.29 944.54,-184.2"/>
<polygon fill="black" stroke="black" points="946.21,-181.08 936.08,-177.97 942.05,-186.72 946.21,-181.08"/>
</g>
<!-- Fallback** -->
<g id="node20" class="node">
<title>Fallback**</title>
<polygon fill="cyan" stroke="black" points="1045.76,-154.54 1045.76,-169.46 1025.26,-180 996.27,-180 975.77,-169.46 975.77,-154.54 996.27,-144 1025.26,-144 1045.76,-154.54"/>
<text text-anchor="middle" x="1010.77" y="-159.8" font-family="Times,serif" font-size="9.00">Fallback**</text>
</g>
<!-- Sequence*&#45;&gt;Fallback** -->
<g id="edge19" class="edge">
<title>Sequence*&#45;&gt;Fallback**</title>
<path fill="none" stroke="black" d="M1010.77,-215.7C1010.77,-207.98 1010.77,-198.71 1010.77,-190.11"/>
<polygon fill="black" stroke="black" points="1014.27,-190.1 1010.77,-180.1 1007.27,-190.1 1014.27,-190.1"/>
</g>
<!-- ReachGoal?* -->
<g id="node28" class="node">
<title>ReachGoal?*</title>
<ellipse fill="gray" stroke="black" cx="1100.77" cy="-162" rx="36.9" ry="18"/>
<text text-anchor="middle" x="1100.77" y="-159.8" font-family="Times,serif" font-size="9.00">ReachGoal?*</text>
</g>
<!-- Sequence*&#45;&gt;ReachGoal?* -->
<g id="edge27" class="edge">
<title>Sequence*&#45;&gt;ReachGoal?*</title>
<path fill="none" stroke="black" d="M1029.85,-218.15C1042.71,-208.16 1059.84,-194.83 1074.04,-183.78"/>
<polygon fill="black" stroke="black" points="1076.27,-186.49 1082.01,-177.58 1071.97,-180.96 1076.27,-186.49"/>
</g>
<!-- MoveTo!******** -->
<g id="node29" class="node">
<title>MoveTo!********</title>
<ellipse fill="gray" stroke="black" cx="1205.77" cy="-162" rx="49.8" ry="18"/>
<text text-anchor="middle" x="1205.77" y="-159.8" font-family="Times,serif" font-size="9.00">MoveTo!********</text>
</g>
<!-- Sequence*&#45;&gt;MoveTo!******** -->
<g id="edge28" class="edge">
<title>Sequence*&#45;&gt;MoveTo!********</title>
<path fill="none" stroke="black" d="M1038.7,-222.97C1070.9,-211.41 1124.2,-192.28 1161.93,-178.74"/>
<polygon fill="black" stroke="black" points="1163.41,-181.92 1171.64,-175.25 1161.05,-175.33 1163.41,-181.92"/>
</g>
<!-- GetLk!* -->
<g id="node30" class="node">
<title>GetLk!*</title>
<ellipse fill="gray" stroke="black" cx="1300.77" cy="-162" rx="27.27" ry="18"/>
<text text-anchor="middle" x="1300.77" y="-159.8" font-family="Times,serif" font-size="9.00">GetLk!*</text>
</g>
<!-- Sequence*&#45;&gt;GetLk!* -->
<g id="edge29" class="edge">
<title>Sequence*&#45;&gt;GetLk!*</title>
<path fill="none" stroke="black" d="M1045.13,-228.46C1094.59,-221.33 1188.31,-205.63 1264.77,-180 1266.68,-179.36 1268.63,-178.64 1270.58,-177.87"/>
<polygon fill="black" stroke="black" points="1272.37,-180.91 1280.17,-173.74 1269.6,-174.48 1272.37,-180.91"/>
</g>
<!-- MoveTo!********* -->
<g id="node31" class="node">
<title>MoveTo!*********</title>
<ellipse fill="gray" stroke="black" cx="1398.77" cy="-162" rx="52.58" ry="18"/>
<text text-anchor="middle" x="1398.77" y="-159.8" font-family="Times,serif" font-size="9.00">MoveTo!*********</text>
</g>
<!-- Sequence*&#45;&gt;MoveTo!********* -->
<g id="edge30" class="edge">
<title>Sequence*&#45;&gt;MoveTo!*********</title>
<path fill="none" stroke="black" d="M1045.25,-228.62C1104.99,-220.77 1231.43,-202.93 1336.77,-180 1341.18,-179.04 1345.75,-177.96 1350.31,-176.82"/>
<polygon fill="black" stroke="black" points="1351.42,-180.14 1360.23,-174.25 1349.67,-173.37 1351.42,-180.14"/>
</g>
<!-- GetLk!** -->
<g id="node32" class="node">
<title>GetLk!**</title>
<ellipse fill="gray" stroke="black" cx="1498.77" cy="-162" rx="29.39" ry="18"/>
<text text-anchor="middle" x="1498.77" y="-159.8" font-family="Times,serif" font-size="9.00">GetLk!**</text>
</g>
<!-- Sequence*&#45;&gt;GetLk!** -->
<g id="edge31" class="edge">
<title>Sequence*&#45;&gt;GetLk!**</title>
<path fill="none" stroke="black" d="M1045.03,-232.48C1121.17,-230.57 1309.66,-221.65 1460.77,-180 1462.92,-179.41 1465.1,-178.71 1467.28,-177.94"/>
<polygon fill="black" stroke="black" points="1468.66,-181.16 1476.68,-174.23 1466.09,-174.65 1468.66,-181.16"/>
</g>
<!-- MoveTo!********** -->
<g id="node33" class="node">
<title>MoveTo!**********</title>
<ellipse fill="gray" stroke="black" cx="1600.77" cy="-162" rx="54.7" ry="18"/>
<text text-anchor="middle" x="1600.77" y="-159.8" font-family="Times,serif" font-size="9.00">MoveTo!**********</text>
</g>
<!-- Sequence*&#45;&gt;MoveTo!********** -->
<g id="edge32" class="edge">
<title>Sequence*&#45;&gt;MoveTo!**********</title>
<path fill="none" stroke="black" d="M1045.18,-231.43C1129.57,-227.17 1353.23,-213.4 1536.77,-180 1541.47,-179.14 1546.33,-178.12 1551.17,-177"/>
<polygon fill="black" stroke="black" points="1552.15,-180.36 1561.04,-174.6 1550.5,-173.56 1552.15,-180.36"/>
</g>
<!-- GetSubGoal!** -->
<g id="node34" class="node">
<title>GetSubGoal!**</title>
<ellipse fill="gray" stroke="black" cx="1715.77" cy="-162" rx="42.29" ry="18"/>
<text text-anchor="middle" x="1715.77" y="-159.8" font-family="Times,serif" font-size="9.00">GetSubGoal!**</text>
</g>
<!-- Sequence*&#45;&gt;GetSubGoal!** -->
<g id="edge33" class="edge">
<title>Sequence*&#45;&gt;GetSubGoal!**</title>
<path fill="none" stroke="black" d="M1045.22,-233.11C1143.21,-232.81 1431.49,-227.6 1664.77,-180 1668.36,-179.27 1672.05,-178.36 1675.73,-177.34"/>
<polygon fill="black" stroke="black" points="1676.77,-180.69 1685.35,-174.47 1674.76,-173.98 1676.77,-180.69"/>
</g>
<!-- LkClose?** -->
<g id="node35" class="node">
<title>LkClose?**</title>
<ellipse fill="gray" stroke="black" cx="1809.77" cy="-162" rx="34.13" ry="18"/>
<text text-anchor="middle" x="1809.77" y="-159.8" font-family="Times,serif" font-size="9.00">LkClose?**</text>
</g>
<!-- Sequence*&#45;&gt;LkClose?** -->
<g id="edge34" class="edge">
<title>Sequence*&#45;&gt;LkClose?**</title>
<path fill="none" stroke="black" d="M1045.21,-231.98C1173.93,-227.97 1626.43,-211.86 1766.77,-180 1769.55,-179.37 1772.4,-178.58 1775.23,-177.7"/>
<polygon fill="black" stroke="black" points="1776.42,-180.99 1784.71,-174.39 1774.11,-174.38 1776.42,-180.99"/>
</g>
<!-- LkGraph?** -->
<g id="node12" class="node">
<title>LkGraph?**</title>
<ellipse fill="gray" stroke="black" cx="305.77" cy="-90" rx="35.59" ry="18"/>
<text text-anchor="middle" x="305.77" y="-87.8" font-family="Times,serif" font-size="9.00">LkGraph?**</text>
</g>
<!-- Fallback*&#45;&gt;LkGraph?** -->
<g id="edge11" class="edge">
<title>Fallback*&#45;&gt;LkGraph?**</title>
<path fill="none" stroke="black" d="M375.53,-146.5C362.99,-136.52 346.14,-123.11 332.14,-111.98"/>
<polygon fill="black" stroke="black" points="334.28,-109.21 324.28,-105.73 329.93,-114.69 334.28,-109.21"/>
</g>
<!-- MoveTo!** -->
<g id="node13" class="node">
<title>MoveTo!**</title>
<ellipse fill="gray" stroke="black" cx="393.77" cy="-90" rx="34.13" ry="18"/>
<text text-anchor="middle" x="393.77" y="-87.8" font-family="Times,serif" font-size="9.00">MoveTo!**</text>
</g>
<!-- Fallback*&#45;&gt;MoveTo!** -->
<g id="edge12" class="edge">
<title>Fallback*&#45;&gt;MoveTo!**</title>
<path fill="none" stroke="black" d="M393.77,-143.7C393.77,-135.98 393.77,-126.71 393.77,-118.11"/>
<polygon fill="black" stroke="black" points="397.27,-118.1 393.77,-108.1 390.27,-118.1 397.27,-118.1"/>
</g>
<!-- MoveTo!*** -->
<g id="node14" class="node">
<title>MoveTo!***</title>
<ellipse fill="gray" stroke="black" cx="482.77" cy="-90" rx="36.9" ry="18"/>
<text text-anchor="middle" x="482.77" y="-87.8" font-family="Times,serif" font-size="9.00">MoveTo!***</text>
</g>
<!-- Fallback*&#45;&gt;MoveTo!*** -->
<g id="edge13" class="edge">
<title>Fallback*&#45;&gt;MoveTo!***</title>
<path fill="none" stroke="black" d="M412.21,-146.5C424.89,-136.52 441.93,-123.11 456.09,-111.98"/>
<polygon fill="black" stroke="black" points="458.35,-114.66 464.04,-105.73 454.02,-109.16 458.35,-114.66"/>
</g>
<!-- Sequence** -->
<g id="node21" class="node">
<title>Sequence**</title>
<polygon fill="cyan" stroke="black" points="911.51,-82.54 911.51,-97.46 889.98,-108 859.55,-108 838.02,-97.46 838.02,-82.54 859.55,-72 889.98,-72 911.51,-82.54"/>
<text text-anchor="middle" x="874.77" y="-87.8" font-family="Times,serif" font-size="9.00">Sequence**</text>
</g>
<!-- Fallback**&#45;&gt;Sequence** -->
<g id="edge20" class="edge">
<title>Fallback**&#45;&gt;Sequence**</title>
<path fill="none" stroke="black" d="M986.76,-148.65C964.99,-137.44 932.67,-120.8 908.34,-108.28"/>
<polygon fill="black" stroke="black" points="909.94,-105.17 899.44,-103.7 906.73,-111.39 909.94,-105.17"/>
</g>
<!-- GetSubGoal!* -->
<g id="node25" class="node">
<title>GetSubGoal!*</title>
<ellipse fill="gray" stroke="black" cx="968.77" cy="-90" rx="39.02" ry="18"/>
<text text-anchor="middle" x="968.77" y="-87.8" font-family="Times,serif" font-size="9.00">GetSubGoal!*</text>
</g>
<!-- Fallback**&#45;&gt;GetSubGoal!* -->
<g id="edge24" class="edge">
<title>Fallback**&#45;&gt;GetSubGoal!*</title>
<path fill="none" stroke="black" d="M1000.38,-143.7C995.43,-135.44 989.4,-125.39 983.95,-116.3"/>
<polygon fill="black" stroke="black" points="986.88,-114.4 978.74,-107.62 980.88,-118 986.88,-114.4"/>
</g>
<!-- GetLk! -->
<g id="node26" class="node">
<title>GetLk!</title>
<ellipse fill="gray" stroke="black" cx="1052.77" cy="-90" rx="27" ry="18"/>
<text text-anchor="middle" x="1052.77" y="-87.8" font-family="Times,serif" font-size="9.00">GetLk!</text>
</g>
<!-- Fallback**&#45;&gt;GetLk! -->
<g id="edge25" class="edge">
<title>Fallback**&#45;&gt;GetLk!</title>
<path fill="none" stroke="black" d="M1021.15,-143.7C1026.18,-135.32 1032.31,-125.1 1037.83,-115.9"/>
<polygon fill="black" stroke="black" points="1040.93,-117.52 1043.08,-107.14 1034.93,-113.92 1040.93,-117.52"/>
</g>
<!-- LkClose?* -->
<g id="node27" class="node">
<title>LkClose?*</title>
<ellipse fill="gray" stroke="black" cx="1129.77" cy="-90" rx="31.51" ry="18"/>
<text text-anchor="middle" x="1129.77" y="-87.8" font-family="Times,serif" font-size="9.00">LkClose?*</text>
</g>
<!-- Fallback**&#45;&gt;LkClose?* -->
<g id="edge26" class="edge">
<title>Fallback**&#45;&gt;LkClose?*</title>
<path fill="none" stroke="black" d="M1033.15,-147.83C1051.92,-136.79 1078.89,-120.93 1099.56,-108.77"/>
<polygon fill="black" stroke="black" points="1101.44,-111.72 1108.28,-103.64 1097.89,-105.69 1101.44,-111.72"/>
</g>
<!-- LkClose? -->
<g id="node22" class="node">
<title>LkClose?</title>
<ellipse fill="gray" stroke="black" cx="783.77" cy="-18" rx="28.74" ry="18"/>
<text text-anchor="middle" x="783.77" y="-15.8" font-family="Times,serif" font-size="9.00">LkClose?</text>
</g>
<!-- Sequence**&#45;&gt;LkClose? -->
<g id="edge21" class="edge">
<title>Sequence**&#45;&gt;LkClose?</title>
<path fill="none" stroke="black" d="M855.02,-73.81C841.65,-63.53 823.85,-49.84 809.39,-38.71"/>
<polygon fill="black" stroke="black" points="811.38,-35.83 801.32,-32.5 807.11,-41.37 811.38,-35.83"/>
</g>
<!-- MoveTo!****** -->
<g id="node23" class="node">
<title>MoveTo!******</title>
<ellipse fill="gray" stroke="black" cx="874.77" cy="-18" rx="44.41" ry="18"/>
<text text-anchor="middle" x="874.77" y="-15.8" font-family="Times,serif" font-size="9.00">MoveTo!******</text>
</g>
<!-- Sequence**&#45;&gt;MoveTo!****** -->
<g id="edge22" class="edge">
<title>Sequence**&#45;&gt;MoveTo!******</title>
<path fill="none" stroke="black" d="M874.77,-71.7C874.77,-63.98 874.77,-54.71 874.77,-46.11"/>
<polygon fill="black" stroke="black" points="878.27,-46.1 874.77,-36.1 871.27,-46.1 878.27,-46.1"/>
</g>
<!-- MoveTo!******* -->
<g id="node24" class="node">
<title>MoveTo!*******</title>
<ellipse fill="gray" stroke="black" cx="984.77" cy="-18" rx="47.19" ry="18"/>
<text text-anchor="middle" x="984.77" y="-15.8" font-family="Times,serif" font-size="9.00">MoveTo!*******</text>
</g>
<!-- Sequence**&#45;&gt;MoveTo!******* -->
<g id="edge23" class="edge">
<title>Sequence**&#45;&gt;MoveTo!*******</title>
<path fill="none" stroke="black" d="M896.5,-75.17C912.64,-64.9 934.91,-50.73 953.04,-39.19"/>
<polygon fill="black" stroke="black" points="955,-42.09 961.56,-33.77 951.24,-36.18 955,-42.09"/>
</g>
<!-- LkClose?*** -->
<g id="node37" class="node">
<title>LkClose?***</title>
<ellipse fill="gray" stroke="black" cx="1898.77" cy="-162" rx="36.9" ry="18"/>
<text text-anchor="middle" x="1898.77" y="-159.8" font-family="Times,serif" font-size="9.00">LkClose?***</text>
</g>
<!-- Sequence***&#45;&gt;LkClose?*** -->
<g id="edge36" class="edge">
<title>Sequence***&#45;&gt;LkClose?***</title>
<path fill="none" stroke="black" d="M1931.14,-215.7C1926.06,-207.44 1919.89,-197.39 1914.31,-188.3"/>
<polygon fill="black" stroke="black" points="1917.19,-186.31 1908.98,-179.62 1911.23,-189.98 1917.19,-186.31"/>
</g>
<!-- GetLk!*** -->
<g id="node38" class="node">
<title>GetLk!***</title>
<ellipse fill="gray" stroke="black" cx="1985.77" cy="-162" rx="32.16" ry="18"/>
<text text-anchor="middle" x="1985.77" y="-159.8" font-family="Times,serif" font-size="9.00">GetLk!***</text>
</g>
<!-- Sequence***&#45;&gt;GetLk!*** -->
<g id="edge37" class="edge">
<title>Sequence***&#45;&gt;GetLk!***</title>
<path fill="none" stroke="black" d="M1952.64,-215.7C1957.96,-207.23 1964.47,-196.89 1970.3,-187.61"/>
<polygon fill="black" stroke="black" points="1973.26,-189.47 1975.62,-179.14 1967.33,-185.75 1973.26,-189.47"/>
</g>
<!-- LkClose?**** -->
<g id="node39" class="node">
<title>LkClose?****</title>
<ellipse fill="gray" stroke="black" cx="2075.77" cy="-162" rx="39.02" ry="18"/>
<text text-anchor="middle" x="2075.77" y="-159.8" font-family="Times,serif" font-size="9.00">LkClose?****</text>
</g>
<!-- Sequence***&#45;&gt;LkClose?**** -->
<g id="edge38" class="edge">
<title>Sequence***&#45;&gt;LkClose?****</title>
<path fill="none" stroke="black" d="M1966.97,-219.83C1988.03,-208.83 2018.25,-193.04 2041.5,-180.9"/>
<polygon fill="black" stroke="black" points="2043.43,-183.84 2050.67,-176.11 2040.19,-177.64 2043.43,-183.84"/>
</g>
</g>
</svg>
