<?xml version="1.0" encoding="UTF-8" standalone="no"?>
<!DOCTYPE svg PUBLIC "-//W3C//DTD SVG 1.1//EN"
 "http://www.w3.org/Graphics/SVG/1.1/DTD/svg11.dtd">
<!-- Generated by graphviz version 2.43.0 (0)
 -->
<!-- Title: pastafarianism Pages: 1 -->
<svg width="2498pt" height="332pt"
 viewBox="0.00 0.00 2497.72 332.00" xmlns="http://www.w3.org/2000/svg" xmlns:xlink="http://www.w3.org/1999/xlink">
<g id="graph0" class="graph" transform="scale(1 1) rotate(0) translate(4 328)">
<title>pastafarianism</title>
<polygon fill="white" stroke="transparent" points="-4,4 -4,-328 2493.72,-328 2493.72,4 -4,4"/>
<!-- Fallback -->
<g id="node1" class="node">
<title>Fallback</title>
<polygon fill="cyan" stroke="black" points="1049.01,-298.54 1049.01,-313.46 1031.88,-324 1007.65,-324 990.52,-313.46 990.52,-298.54 1007.65,-288 1031.88,-288 1049.01,-298.54"/>
<text text-anchor="middle" x="1019.77" y="-303.8" font-family="Times,serif" font-size="9.00">Fallback</text>
</g>
<!-- Sequence -->
<g id="node2" class="node">
<title>Sequence</title>
<polygon fill="cyan" stroke="black" points="172.26,-226.54 172.26,-241.46 153.81,-252 127.72,-252 109.27,-241.46 109.27,-226.54 127.72,-216 153.81,-216 172.26,-226.54"/>
<text text-anchor="middle" x="140.77" y="-231.8" font-family="Times,serif" font-size="9.00">Sequence</text>
</g>
<!-- Fallback&#45;&gt;Sequence -->
<g id="edge1" class="edge">
<title>Fallback&#45;&gt;Sequence</title>
<path fill="none" stroke="black" d="M990.52,-302.67C860.63,-292.33 335.67,-250.52 182.75,-238.34"/>
<polygon fill="black" stroke="black" points="182.64,-234.82 172.4,-237.52 182.09,-241.8 182.64,-234.82"/>
</g>
<!-- LkGraph? -->
<g id="node5" class="node">
<title>LkGraph?</title>
<ellipse fill="gray" stroke="black" cx="855.77" cy="-234" rx="30.7" ry="18"/>
<text text-anchor="middle" x="855.77" y="-231.8" font-family="Times,serif" font-size="9.00">LkGraph?</text>
</g>
<!-- Fallback&#45;&gt;LkGraph? -->
<g id="edge4" class="edge">
<title>Fallback&#45;&gt;LkGraph?</title>
<path fill="none" stroke="black" d="M996.27,-294.97C968.18,-282.98 920.97,-262.83 889.11,-249.23"/>
<polygon fill="black" stroke="black" points="890.32,-245.94 879.75,-245.24 887.58,-252.38 890.32,-245.94"/>
</g>
<!-- ReachGoal? -->
<g id="node6" class="node">
<title>ReachGoal?</title>
<ellipse fill="gray" stroke="black" cx="938.77" cy="-234" rx="34.13" ry="18"/>
<text text-anchor="middle" x="938.77" y="-231.8" font-family="Times,serif" font-size="9.00">ReachGoal?</text>
</g>
<!-- Fallback&#45;&gt;ReachGoal? -->
<g id="edge5" class="edge">
<title>Fallback&#45;&gt;ReachGoal?</title>
<path fill="none" stroke="black" d="M1002.98,-290.5C991.55,-280.61 976.22,-267.36 963.4,-256.29"/>
<polygon fill="black" stroke="black" points="965.66,-253.62 955.81,-249.73 961.08,-258.91 965.66,-253.62"/>
</g>
<!-- LkClose? -->
<g id="node7" class="node">
<title>LkClose?</title>
<ellipse fill="gray" stroke="black" cx="1019.77" cy="-234" rx="28.74" ry="18"/>
<text text-anchor="middle" x="1019.77" y="-231.8" font-family="Times,serif" font-size="9.00">LkClose?</text>
</g>
<!-- Fallback&#45;&gt;LkClose? -->
<g id="edge6" class="edge">
<title>Fallback&#45;&gt;LkClose?</title>
<path fill="none" stroke="black" d="M1019.77,-287.7C1019.77,-279.98 1019.77,-270.71 1019.77,-262.11"/>
<polygon fill="black" stroke="black" points="1023.27,-262.1 1019.77,-252.1 1016.27,-262.1 1023.27,-262.1"/>
</g>
<!-- LkGraph?* -->
<g id="node8" class="node">
<title>LkGraph?*</title>
<ellipse fill="gray" stroke="black" cx="1099.77" cy="-234" rx="32.82" ry="18"/>
<text text-anchor="middle" x="1099.77" y="-231.8" font-family="Times,serif" font-size="9.00">LkGraph?*</text>
</g>
<!-- Fallback&#45;&gt;LkGraph?* -->
<g id="edge7" class="edge">
<title>Fallback&#45;&gt;LkGraph?*</title>
<path fill="none" stroke="black" d="M1036.34,-290.5C1047.53,-280.71 1062.49,-267.61 1075.07,-256.6"/>
<polygon fill="black" stroke="black" points="1077.71,-258.95 1082.94,-249.73 1073.1,-253.68 1077.71,-258.95"/>
</g>
<!-- Sequence* -->
<g id="node9" class="node">
<title>Sequence*</title>
<polygon fill="cyan" stroke="black" points="1219.01,-226.54 1219.01,-241.46 1198.95,-252 1170.58,-252 1150.52,-241.46 1150.52,-226.54 1170.58,-216 1198.95,-216 1219.01,-226.54"/>
<text text-anchor="middle" x="1184.77" y="-231.8" font-family="Times,serif" font-size="9.00">Sequence*</text>
</g>
<!-- Fallback&#45;&gt;Sequence* -->
<g id="edge8" class="edge">
<title>Fallback&#45;&gt;Sequence*</title>
<path fill="none" stroke="black" d="M1043.41,-294.97C1071.19,-283.19 1117.54,-263.52 1149.56,-249.94"/>
<polygon fill="black" stroke="black" points="1151.16,-253.06 1159,-245.93 1148.42,-246.62 1151.16,-253.06"/>
</g>
<!-- Sequence*** -->
<g id="node39" class="node">
<title>Sequence***</title>
<polygon fill="cyan" stroke="black" points="2355.76,-226.54 2355.76,-241.46 2332.33,-252 2299.2,-252 2275.78,-241.46 2275.78,-226.54 2299.2,-216 2332.33,-216 2355.76,-226.54"/>
<text text-anchor="middle" x="2315.77" y="-231.8" font-family="Times,serif" font-size="9.00">Sequence***</text>
</g>
<!-- Fallback&#45;&gt;Sequence*** -->
<g id="edge38" class="edge">
<title>Fallback&#45;&gt;Sequence***</title>
<path fill="none" stroke="black" d="M1049.27,-303.41C1217.11,-294.34 2051.57,-249.27 2265.65,-237.71"/>
<polygon fill="black" stroke="black" points="2265.87,-241.2 2275.66,-237.17 2265.49,-234.21 2265.87,-241.2"/>
</g>
<!-- NotReadyForSG? -->
<g id="node3" class="node">
<title>NotReadyForSG?</title>
<ellipse fill="gray" stroke="black" cx="46.77" cy="-162" rx="46.53" ry="18"/>
<text text-anchor="middle" x="46.77" y="-159.8" font-family="Times,serif" font-size="9.00">NotReadyForSG?</text>
</g>
<!-- Sequence&#45;&gt;NotReadyForSG? -->
<g id="edge2" class="edge">
<title>Sequence&#45;&gt;NotReadyForSG?</title>
<path fill="none" stroke="black" d="M121.74,-218.83C108.56,-209.02 90.76,-195.76 75.81,-184.63"/>
<polygon fill="black" stroke="black" points="77.5,-181.52 67.39,-178.36 73.32,-187.14 77.5,-181.52"/>
</g>
<!-- MoveTo! -->
<g id="node4" class="node">
<title>MoveTo!</title>
<ellipse fill="gray" stroke="black" cx="140.77" cy="-162" rx="28.74" ry="18"/>
<text text-anchor="middle" x="140.77" y="-159.8" font-family="Times,serif" font-size="9.00">MoveTo!</text>
</g>
<!-- Sequence&#45;&gt;MoveTo! -->
<g id="edge3" class="edge">
<title>Sequence&#45;&gt;MoveTo!</title>
<path fill="none" stroke="black" d="M140.77,-215.7C140.77,-207.98 140.77,-198.71 140.77,-190.11"/>
<polygon fill="black" stroke="black" points="144.27,-190.1 140.77,-180.1 137.27,-190.1 144.27,-190.1"/>
</g>
<!-- GetSubGoal! -->
<g id="node10" class="node">
<title>GetSubGoal!</title>
<ellipse fill="gray" stroke="black" cx="224.77" cy="-162" rx="36.9" ry="18"/>
<text text-anchor="middle" x="224.77" y="-159.8" font-family="Times,serif" font-size="9.00">GetSubGoal!</text>
</g>
<!-- Sequence*&#45;&gt;GetSubGoal! -->
<g id="edge9" class="edge">
<title>Sequence*&#45;&gt;GetSubGoal!</title>
<path fill="none" stroke="black" d="M1159.74,-221.48C1153.95,-219.28 1147.73,-217.27 1141.77,-216 762.75,-135.65 650.66,-256.08 270.77,-180 267.59,-179.36 264.35,-178.54 261.12,-177.61"/>
<polygon fill="black" stroke="black" points="262.19,-174.27 251.6,-174.51 260.03,-180.93 262.19,-174.27"/>
</g>
<!-- MoveTo!* -->
<g id="node11" class="node">
<title>MoveTo!*</title>
<ellipse fill="gray" stroke="black" cx="311.77" cy="-162" rx="31.51" ry="18"/>
<text text-anchor="middle" x="311.77" y="-159.8" font-family="Times,serif" font-size="9.00">MoveTo!*</text>
</g>
<!-- Sequence*&#45;&gt;MoveTo!* -->
<g id="edge10" class="edge">
<title>Sequence*&#45;&gt;MoveTo!*</title>
<path fill="none" stroke="black" d="M1159.73,-221.5C1153.94,-219.3 1147.73,-217.28 1141.77,-216 798.52,-142.47 695.39,-256.37 352.77,-180 350.11,-179.41 347.4,-178.65 344.71,-177.8"/>
<polygon fill="black" stroke="black" points="345.75,-174.45 335.16,-174.33 343.36,-181.03 345.75,-174.45"/>
</g>
<!-- Fallback* -->
<g id="node12" class="node">
<title>Fallback*</title>
<polygon fill="cyan" stroke="black" points="425.51,-154.54 425.51,-169.46 406.91,-180 380.62,-180 362.02,-169.46 362.02,-154.54 380.62,-144 406.91,-144 425.51,-154.54"/>
<text text-anchor="middle" x="393.77" y="-159.8" font-family="Times,serif" font-size="9.00">Fallback*</text>
</g>
<!-- Sequence*&#45;&gt;Fallback* -->
<g id="edge11" class="edge">
<title>Sequence*&#45;&gt;Fallback*</title>
<path fill="none" stroke="black" d="M1159.73,-221.52C1153.94,-219.32 1147.73,-217.29 1141.77,-216 834.29,-149.28 741.68,-249.27 434.77,-180 432.11,-179.4 429.4,-178.64 426.72,-177.78"/>
<polygon fill="black" stroke="black" points="427.76,-174.44 417.16,-174.31 425.36,-181.01 427.76,-174.44"/>
</g>
<!-- MoveTo!*** -->
<g id="node15" class="node">
<title>MoveTo!***</title>
<ellipse fill="gray" stroke="black" cx="480.77" cy="-162" rx="36.9" ry="18"/>
<text text-anchor="middle" x="480.77" y="-159.8" font-family="Times,serif" font-size="9.00">MoveTo!***</text>
</g>
<!-- Sequence*&#45;&gt;MoveTo!*** -->
<g id="edge14" class="edge">
<title>Sequence*&#45;&gt;MoveTo!***</title>
<path fill="none" stroke="black" d="M1159.72,-221.56C1153.93,-219.35 1147.72,-217.32 1141.77,-216 874.41,-156.92 794.76,-236.07 526.77,-180 523.6,-179.34 520.36,-178.5 517.14,-177.55"/>
<polygon fill="black" stroke="black" points="518.21,-174.21 507.62,-174.43 516.03,-180.87 518.21,-174.21"/>
</g>
<!-- NotReadyForSG?* -->
<g id="node16" class="node">
<title>NotReadyForSG?*</title>
<ellipse fill="gray" stroke="black" cx="585.77" cy="-162" rx="49.8" ry="18"/>
<text text-anchor="middle" x="585.77" y="-159.8" font-family="Times,serif" font-size="9.00">NotReadyForSG?*</text>
</g>
<!-- Sequence*&#45;&gt;NotReadyForSG?* -->
<g id="edge15" class="edge">
<title>Sequence*&#45;&gt;NotReadyForSG?*</title>
<path fill="none" stroke="black" d="M1159.71,-221.62C1153.92,-219.41 1147.71,-217.36 1141.77,-216 925.85,-166.72 862.8,-218.87 644.77,-180 640.4,-179.22 635.89,-178.25 631.4,-177.16"/>
<polygon fill="black" stroke="black" points="632.24,-173.76 621.68,-174.63 630.48,-180.54 632.24,-173.76"/>
</g>
<!-- LkGraph?*** -->
<g id="node17" class="node">
<title>LkGraph?***</title>
<ellipse fill="gray" stroke="black" cx="691.77" cy="-162" rx="38.21" ry="18"/>
<text text-anchor="middle" x="691.77" y="-159.8" font-family="Times,serif" font-size="9.00">LkGraph?***</text>
</g>
<!-- Sequence*&#45;&gt;LkGraph?*** -->
<g id="edge16" class="edge">
<title>Sequence*&#45;&gt;LkGraph?***</title>
<path fill="none" stroke="black" d="M1159.69,-221.69C1153.9,-219.48 1147.7,-217.41 1141.77,-216 966.79,-174.52 914.33,-218.91 738.77,-180 735.73,-179.33 732.62,-178.51 729.52,-177.6"/>
<polygon fill="black" stroke="black" points="730.34,-174.19 719.75,-174.45 728.19,-180.85 730.34,-174.19"/>
</g>
<!-- NotReadyForSG?** -->
<g id="node18" class="node">
<title>NotReadyForSG?**</title>
<ellipse fill="gray" stroke="black" cx="799.77" cy="-162" rx="51.92" ry="18"/>
<text text-anchor="middle" x="799.77" y="-159.8" font-family="Times,serif" font-size="9.00">NotReadyForSG?**</text>
</g>
<!-- Sequence*&#45;&gt;NotReadyForSG?** -->
<g id="edge17" class="edge">
<title>Sequence*&#45;&gt;NotReadyForSG?**</title>
<path fill="none" stroke="black" d="M1159.19,-221.69C1153.54,-219.53 1147.52,-217.48 1141.77,-216 1019.83,-184.61 984.18,-204.97 860.77,-180 856.4,-179.12 851.9,-178.09 847.4,-176.98"/>
<polygon fill="black" stroke="black" points="848.19,-173.57 837.63,-174.47 846.44,-180.35 848.19,-173.57"/>
</g>
<!-- MoveTo!**** -->
<g id="node19" class="node">
<title>MoveTo!****</title>
<ellipse fill="gray" stroke="black" cx="908.77" cy="-162" rx="39.02" ry="18"/>
<text text-anchor="middle" x="908.77" y="-159.8" font-family="Times,serif" font-size="9.00">MoveTo!****</text>
</g>
<!-- Sequence*&#45;&gt;MoveTo!**** -->
<g id="edge18" class="edge">
<title>Sequence*&#45;&gt;MoveTo!****</title>
<path fill="none" stroke="black" d="M1159.11,-221.97C1153.47,-219.79 1147.47,-217.67 1141.77,-216 1061.36,-192.5 1037.58,-202.04 956.77,-180 953.79,-179.19 950.74,-178.28 947.68,-177.32"/>
<polygon fill="black" stroke="black" points="948.59,-173.94 937.99,-174.13 946.39,-180.58 948.59,-173.94"/>
</g>
<!-- GetLk! -->
<g id="node20" class="node">
<title>GetLk!</title>
<ellipse fill="gray" stroke="black" cx="992.77" cy="-162" rx="27" ry="18"/>
<text text-anchor="middle" x="992.77" y="-159.8" font-family="Times,serif" font-size="9.00">GetLk!</text>
</g>
<!-- Sequence*&#45;&gt;GetLk! -->
<g id="edge19" class="edge">
<title>Sequence*&#45;&gt;GetLk!</title>
<path fill="none" stroke="black" d="M1158.49,-222.29C1152.99,-220.13 1147.21,-217.94 1141.77,-216 1092.12,-198.3 1077.82,-199.3 1028.77,-180 1026.93,-179.28 1025.06,-178.51 1023.18,-177.71"/>
<polygon fill="black" stroke="black" points="1024.44,-174.43 1013.88,-173.54 1021.58,-180.82 1024.44,-174.43"/>
</g>
<!-- ReachGoal?* -->
<g id="node21" class="node">
<title>ReachGoal?*</title>
<ellipse fill="gray" stroke="black" cx="1074.77" cy="-162" rx="36.9" ry="18"/>
<text text-anchor="middle" x="1074.77" y="-159.8" font-family="Times,serif" font-size="9.00">ReachGoal?*</text>
</g>
<!-- Sequence*&#45;&gt;ReachGoal?* -->
<g id="edge20" class="edge">
<title>Sequence*&#45;&gt;ReachGoal?*</title>
<path fill="none" stroke="black" d="M1163.56,-219.5C1146.85,-208.87 1123.35,-193.92 1104.72,-182.06"/>
<polygon fill="black" stroke="black" points="1106.6,-179.11 1096.28,-176.69 1102.84,-185.02 1106.6,-179.11"/>
</g>
<!-- NotReadyForSG?*** -->
<g id="node22" class="node">
<title>NotReadyForSG?***</title>
<ellipse fill="gray" stroke="black" cx="1184.77" cy="-162" rx="54.7" ry="18"/>
<text text-anchor="middle" x="1184.77" y="-159.8" font-family="Times,serif" font-size="9.00">NotReadyForSG?***</text>
</g>
<!-- Sequence*&#45;&gt;NotReadyForSG?*** -->
<g id="edge21" class="edge">
<title>Sequence*&#45;&gt;NotReadyForSG?***</title>
<path fill="none" stroke="black" d="M1184.77,-215.7C1184.77,-207.98 1184.77,-198.71 1184.77,-190.11"/>
<polygon fill="black" stroke="black" points="1188.27,-190.1 1184.77,-180.1 1181.27,-190.1 1188.27,-190.1"/>
</g>
<!-- Fallback** -->
<g id="node23" class="node">
<title>Fallback**</title>
<polygon fill="cyan" stroke="black" points="1327.76,-154.54 1327.76,-169.46 1307.26,-180 1278.27,-180 1257.77,-169.46 1257.77,-154.54 1278.27,-144 1307.26,-144 1327.76,-154.54"/>
<text text-anchor="middle" x="1292.77" y="-159.8" font-family="Times,serif" font-size="9.00">Fallback**</text>
</g>
<!-- Sequence*&#45;&gt;Fallback** -->
<g id="edge22" class="edge">
<title>Sequence*&#45;&gt;Fallback**</title>
<path fill="none" stroke="black" d="M1205.85,-219.34C1222.09,-208.81 1244.77,-194.11 1262.89,-182.36"/>
<polygon fill="black" stroke="black" points="1264.88,-185.24 1271.37,-176.87 1261.07,-179.37 1264.88,-185.24"/>
</g>
<!-- ReachGoal?** -->
<g id="node30" class="node">
<title>ReachGoal?**</title>
<ellipse fill="gray" stroke="black" cx="1384.77" cy="-162" rx="39.02" ry="18"/>
<text text-anchor="middle" x="1384.77" y="-159.8" font-family="Times,serif" font-size="9.00">ReachGoal?**</text>
</g>
<!-- Sequence*&#45;&gt;ReachGoal?** -->
<g id="edge29" class="edge">
<title>Sequence*&#45;&gt;ReachGoal?**</title>
<path fill="none" stroke="black" d="M1212.79,-223.27C1243.31,-212.67 1293.52,-195.2 1336.77,-180 1339.46,-179.05 1342.25,-178.07 1345.05,-177.08"/>
<polygon fill="black" stroke="black" points="1346.3,-180.35 1354.56,-173.72 1343.96,-173.75 1346.3,-180.35"/>
</g>
<!-- MoveTo!****** -->
<g id="node31" class="node">
<title>MoveTo!******</title>
<ellipse fill="gray" stroke="black" cx="1486.77" cy="-162" rx="44.41" ry="18"/>
<text text-anchor="middle" x="1486.77" y="-159.8" font-family="Times,serif" font-size="9.00">MoveTo!******</text>
</g>
<!-- Sequence*&#45;&gt;MoveTo!****** -->
<g id="edge30" class="edge">
<title>Sequence*&#45;&gt;MoveTo!******</title>
<path fill="none" stroke="black" d="M1219.1,-226.73C1267.2,-217.7 1357.2,-199.92 1432.77,-180 1436.35,-179.05 1440.05,-178.02 1443.76,-176.94"/>
<polygon fill="black" stroke="black" points="1444.92,-180.24 1453.49,-174.02 1442.91,-173.54 1444.92,-180.24"/>
</g>
<!-- GetLk!*** -->
<g id="node32" class="node">
<title>GetLk!***</title>
<ellipse fill="gray" stroke="black" cx="1581.77" cy="-162" rx="32.16" ry="18"/>
<text text-anchor="middle" x="1581.77" y="-159.8" font-family="Times,serif" font-size="9.00">GetLk!***</text>
</g>
<!-- Sequence*&#45;&gt;GetLk!*** -->
<g id="edge31" class="edge">
<title>Sequence*&#45;&gt;GetLk!***</title>
<path fill="none" stroke="black" d="M1219.09,-230.58C1283.11,-225.49 1424.64,-211.42 1539.77,-180 1542.38,-179.29 1545.05,-178.46 1547.71,-177.56"/>
<polygon fill="black" stroke="black" points="1549.05,-180.8 1557.23,-174.06 1546.63,-174.23 1549.05,-180.8"/>
</g>
<!-- MoveTo!******* -->
<g id="node33" class="node">
<title>MoveTo!*******</title>
<ellipse fill="gray" stroke="black" cx="1679.77" cy="-162" rx="47.19" ry="18"/>
<text text-anchor="middle" x="1679.77" y="-159.8" font-family="Times,serif" font-size="9.00">MoveTo!*******</text>
</g>
<!-- Sequence*&#45;&gt;MoveTo!******* -->
<g id="edge32" class="edge">
<title>Sequence*&#45;&gt;MoveTo!*******</title>
<path fill="none" stroke="black" d="M1219.16,-230.83C1293.47,-225.7 1474.28,-210.89 1622.77,-180 1626.86,-179.15 1631.09,-178.14 1635.3,-177.05"/>
<polygon fill="black" stroke="black" points="1636.32,-180.4 1645.04,-174.38 1634.47,-173.65 1636.32,-180.4"/>
</g>
<!-- MoveTo!******** -->
<g id="node34" class="node">
<title>MoveTo!********</title>
<ellipse fill="gray" stroke="black" cx="1794.77" cy="-162" rx="49.8" ry="18"/>
<text text-anchor="middle" x="1794.77" y="-159.8" font-family="Times,serif" font-size="9.00">MoveTo!********</text>
</g>
<!-- Sequence*&#45;&gt;MoveTo!******** -->
<g id="edge33" class="edge">
<title>Sequence*&#45;&gt;MoveTo!********</title>
<path fill="none" stroke="black" d="M1219.25,-231.89C1306.48,-228.62 1542.71,-216.77 1735.77,-180 1740.12,-179.17 1744.63,-178.16 1749.11,-177.05"/>
<polygon fill="black" stroke="black" points="1750.04,-180.42 1758.83,-174.5 1748.26,-173.65 1750.04,-180.42"/>
</g>
<!-- GetSubGoal!** -->
<g id="node35" class="node">
<title>GetSubGoal!**</title>
<ellipse fill="gray" stroke="black" cx="1904.77" cy="-162" rx="42.29" ry="18"/>
<text text-anchor="middle" x="1904.77" y="-159.8" font-family="Times,serif" font-size="9.00">GetSubGoal!**</text>
</g>
<!-- Sequence*&#45;&gt;GetSubGoal!** -->
<g id="edge34" class="edge">
<title>Sequence*&#45;&gt;GetSubGoal!**</title>
<path fill="none" stroke="black" d="M1219.29,-233.2C1318.83,-233.15 1614.56,-228.59 1853.77,-180 1857.36,-179.27 1861.06,-178.36 1864.73,-177.35"/>
<polygon fill="black" stroke="black" points="1865.77,-180.69 1874.35,-174.48 1863.77,-173.99 1865.77,-180.69"/>
</g>
<!-- GetLk!**** -->
<g id="node36" class="node">
<title>GetLk!****</title>
<ellipse fill="gray" stroke="black" cx="1999.77" cy="-162" rx="34.78" ry="18"/>
<text text-anchor="middle" x="1999.77" y="-159.8" font-family="Times,serif" font-size="9.00">GetLk!****</text>
</g>
<!-- Sequence*&#45;&gt;GetLk!**** -->
<g id="edge35" class="edge">
<title>Sequence*&#45;&gt;GetLk!****</title>
<path fill="none" stroke="black" d="M1219.44,-232C1350.07,-228 1812.35,-211.87 1955.77,-180 1958.61,-179.37 1961.52,-178.58 1964.42,-177.7"/>
<polygon fill="black" stroke="black" points="1965.77,-180.93 1974.11,-174.39 1963.51,-174.31 1965.77,-180.93"/>
</g>
<!-- ReachGoal?*** -->
<g id="node37" class="node">
<title>ReachGoal?***</title>
<ellipse fill="gray" stroke="black" cx="2094.77" cy="-162" rx="42.29" ry="18"/>
<text text-anchor="middle" x="2094.77" y="-159.8" font-family="Times,serif" font-size="9.00">ReachGoal?***</text>
</g>
<!-- Sequence*&#45;&gt;ReachGoal?*** -->
<g id="edge36" class="edge">
<title>Sequence*&#45;&gt;ReachGoal?***</title>
<path fill="none" stroke="black" d="M1219.46,-232.06C1359.27,-228.1 1881.69,-211.45 2043.77,-180 2047.37,-179.3 2051.07,-178.42 2054.75,-177.42"/>
<polygon fill="black" stroke="black" points="2055.77,-180.76 2064.37,-174.56 2053.78,-174.05 2055.77,-180.76"/>
</g>
<!-- LkClose?* -->
<g id="node38" class="node">
<title>LkClose?*</title>
<ellipse fill="gray" stroke="black" cx="2186.77" cy="-162" rx="31.51" ry="18"/>
<text text-anchor="middle" x="2186.77" y="-159.8" font-family="Times,serif" font-size="9.00">LkClose?*</text>
</g>
<!-- Sequence*&#45;&gt;LkClose?* -->
<g id="edge37" class="edge">
<title>Sequence*&#45;&gt;LkClose?*</title>
<path fill="none" stroke="black" d="M1219.25,-232.65C1369.06,-230.9 1964.01,-221.42 2145.77,-180 2148.42,-179.39 2151.12,-178.63 2153.81,-177.77"/>
<polygon fill="black" stroke="black" points="2155.17,-181 2163.36,-174.29 2152.77,-174.42 2155.17,-181"/>
</g>
<!-- LkGraph?** -->
<g id="node13" class="node">
<title>LkGraph?**</title>
<ellipse fill="gray" stroke="black" cx="349.77" cy="-90" rx="35.59" ry="18"/>
<text text-anchor="middle" x="349.77" y="-87.8" font-family="Times,serif" font-size="9.00">LkGraph?**</text>
</g>
<!-- Fallback*&#45;&gt;LkGraph?** -->
<g id="edge12" class="edge">
<title>Fallback*&#45;&gt;LkGraph?**</title>
<path fill="none" stroke="black" d="M382.89,-143.7C377.7,-135.44 371.38,-125.39 365.67,-116.3"/>
<polygon fill="black" stroke="black" points="368.5,-114.23 360.21,-107.62 362.57,-117.95 368.5,-114.23"/>
</g>
<!-- MoveTo!** -->
<g id="node14" class="node">
<title>MoveTo!**</title>
<ellipse fill="gray" stroke="black" cx="437.77" cy="-90" rx="34.13" ry="18"/>
<text text-anchor="middle" x="437.77" y="-87.8" font-family="Times,serif" font-size="9.00">MoveTo!**</text>
</g>
<!-- Fallback*&#45;&gt;MoveTo!** -->
<g id="edge13" class="edge">
<title>Fallback*&#45;&gt;MoveTo!**</title>
<path fill="none" stroke="black" d="M404.64,-143.7C409.83,-135.44 416.15,-125.39 421.86,-116.3"/>
<polygon fill="black" stroke="black" points="424.96,-117.95 427.32,-107.62 419.03,-114.23 424.96,-117.95"/>
</g>
<!-- Sequence** -->
<g id="node24" class="node">
<title>Sequence**</title>
<polygon fill="cyan" stroke="black" points="1186.51,-82.54 1186.51,-97.46 1164.98,-108 1134.55,-108 1113.02,-97.46 1113.02,-82.54 1134.55,-72 1164.98,-72 1186.51,-82.54"/>
<text text-anchor="middle" x="1149.77" y="-87.8" font-family="Times,serif" font-size="9.00">Sequence**</text>
</g>
<!-- Fallback**&#45;&gt;Sequence** -->
<g id="edge23" class="edge">
<title>Fallback**&#45;&gt;Sequence**</title>
<path fill="none" stroke="black" d="M1268.18,-148.97C1245,-137.62 1210.03,-120.5 1184.09,-107.8"/>
<polygon fill="black" stroke="black" points="1185.51,-104.6 1174.99,-103.35 1182.43,-110.89 1185.51,-104.6"/>
</g>
<!-- CompLkGraph! -->
<g id="node27" class="node">
<title>CompLkGraph!</title>
<ellipse fill="gray" stroke="black" cx="1247.77" cy="-90" rx="42.95" ry="18"/>
<text text-anchor="middle" x="1247.77" y="-87.8" font-family="Times,serif" font-size="9.00">CompLkGraph!</text>
</g>
<!-- Fallback**&#45;&gt;CompLkGraph! -->
<g id="edge26" class="edge">
<title>Fallback**&#45;&gt;CompLkGraph!</title>
<path fill="none" stroke="black" d="M1281.64,-143.7C1276.33,-135.44 1269.88,-125.39 1264.03,-116.3"/>
<polygon fill="black" stroke="black" points="1266.8,-114.14 1258.45,-107.62 1260.91,-117.93 1266.8,-114.14"/>
</g>
<!-- GetLk!** -->
<g id="node28" class="node">
<title>GetLk!**</title>
<ellipse fill="gray" stroke="black" cx="1337.77" cy="-90" rx="29.39" ry="18"/>
<text text-anchor="middle" x="1337.77" y="-87.8" font-family="Times,serif" font-size="9.00">GetLk!**</text>
</g>
<!-- Fallback**&#45;&gt;GetLk!** -->
<g id="edge27" class="edge">
<title>Fallback**&#45;&gt;GetLk!**</title>
<path fill="none" stroke="black" d="M1303.89,-143.7C1309.33,-135.23 1315.98,-124.89 1321.94,-115.61"/>
<polygon fill="black" stroke="black" points="1324.92,-117.45 1327.39,-107.14 1319.03,-113.66 1324.92,-117.45"/>
</g>
<!-- MoveTo!***** -->
<g id="node29" class="node">
<title>MoveTo!*****</title>
<ellipse fill="gray" stroke="black" cx="1427.77" cy="-90" rx="42.29" ry="18"/>
<text text-anchor="middle" x="1427.77" y="-87.8" font-family="Times,serif" font-size="9.00">MoveTo!*****</text>
</g>
<!-- Fallback**&#45;&gt;MoveTo!***** -->
<g id="edge28" class="edge">
<title>Fallback**&#45;&gt;MoveTo!*****</title>
<path fill="none" stroke="black" d="M1316.59,-148.65C1337.71,-137.7 1368.82,-121.57 1392.76,-109.15"/>
<polygon fill="black" stroke="black" points="1394.61,-112.13 1401.88,-104.42 1391.39,-105.92 1394.61,-112.13"/>
</g>
<!-- GetLk!* -->
<g id="node25" class="node">
<title>GetLk!*</title>
<ellipse fill="gray" stroke="black" cx="1107.77" cy="-18" rx="27.27" ry="18"/>
<text text-anchor="middle" x="1107.77" y="-15.8" font-family="Times,serif" font-size="9.00">GetLk!*</text>
</g>
<!-- Sequence**&#45;&gt;GetLk!* -->
<g id="edge24" class="edge">
<title>Sequence**&#45;&gt;GetLk!*</title>
<path fill="none" stroke="black" d="M1139.38,-71.7C1134.35,-63.32 1128.22,-53.1 1122.7,-43.9"/>
<polygon fill="black" stroke="black" points="1125.6,-41.92 1117.45,-35.14 1119.6,-45.52 1125.6,-41.92"/>
</g>
<!-- GetSubGoal!* -->
<g id="node26" class="node">
<title>GetSubGoal!*</title>
<ellipse fill="gray" stroke="black" cx="1191.77" cy="-18" rx="39.02" ry="18"/>
<text text-anchor="middle" x="1191.77" y="-15.8" font-family="Times,serif" font-size="9.00">GetSubGoal!*</text>
</g>
<!-- Sequence**&#45;&gt;GetSubGoal!* -->
<g id="edge25" class="edge">
<title>Sequence**&#45;&gt;GetSubGoal!*</title>
<path fill="none" stroke="black" d="M1160.15,-71.7C1165.1,-63.44 1171.13,-53.39 1176.59,-44.3"/>
<polygon fill="black" stroke="black" points="1179.65,-46 1181.79,-35.62 1173.65,-42.4 1179.65,-46"/>
</g>
<!-- LkClose?** -->
<g id="node40" class="node">
<title>LkClose?**</title>
<ellipse fill="gray" stroke="black" cx="2270.77" cy="-162" rx="34.13" ry="18"/>
<text text-anchor="middle" x="2270.77" y="-159.8" font-family="Times,serif" font-size="9.00">LkClose?**</text>
</g>
<!-- Sequence***&#45;&gt;LkClose?** -->
<g id="edge39" class="edge">
<title>Sequence***&#45;&gt;LkClose?**</title>
<path fill="none" stroke="black" d="M2304.64,-215.7C2299.2,-207.23 2292.55,-196.89 2286.59,-187.61"/>
<polygon fill="black" stroke="black" points="2289.5,-185.66 2281.14,-179.14 2283.61,-189.45 2289.5,-185.66"/>
</g>
<!-- GetLk!***** -->
<g id="node41" class="node">
<title>GetLk!*****</title>
<ellipse fill="gray" stroke="black" cx="2360.77" cy="-162" rx="37.56" ry="18"/>
<text text-anchor="middle" x="2360.77" y="-159.8" font-family="Times,serif" font-size="9.00">GetLk!*****</text>
</g>
<!-- Sequence***&#45;&gt;GetLk!***** -->
<g id="edge40" class="edge">
<title>Sequence***&#45;&gt;GetLk!*****</title>
<path fill="none" stroke="black" d="M2326.89,-215.7C2332.2,-207.44 2338.65,-197.39 2344.5,-188.3"/>
<polygon fill="black" stroke="black" points="2347.62,-189.93 2350.08,-179.62 2341.73,-186.14 2347.62,-189.93"/>
</g>
<!-- LkClose?*** -->
<g id="node42" class="node">
<title>LkClose?***</title>
<ellipse fill="gray" stroke="black" cx="2452.77" cy="-162" rx="36.9" ry="18"/>
<text text-anchor="middle" x="2452.77" y="-159.8" font-family="Times,serif" font-size="9.00">LkClose?***</text>
</g>
<!-- Sequence***&#45;&gt;LkClose?*** -->
<g id="edge41" class="edge">
<title>Sequence***&#45;&gt;LkClose?***</title>
<path fill="none" stroke="black" d="M2341.21,-220C2363.07,-208.83 2394.77,-192.63 2418.8,-180.36"/>
<polygon fill="black" stroke="black" points="2420.6,-183.36 2427.92,-175.7 2417.42,-177.13 2420.6,-183.36"/>
</g>
</g>
</svg>
