<?xml version="1.0" encoding="UTF-8" standalone="no"?>
<!DOCTYPE svg PUBLIC "-//W3C//DTD SVG 1.1//EN"
 "http://www.w3.org/Graphics/SVG/1.1/DTD/svg11.dtd">
<!-- Generated by graphviz version 2.43.0 (0)
 -->
<!-- Title: pastafarianism Pages: 1 -->
<svg width="660pt" height="188pt"
 viewBox="0.00 0.00 659.83 188.00" xmlns="http://www.w3.org/2000/svg" xmlns:xlink="http://www.w3.org/1999/xlink">
<g id="graph0" class="graph" transform="scale(1 1) rotate(0) translate(4 184)">
<title>pastafarianism</title>
<polygon fill="white" stroke="transparent" points="-4,4 -4,-184 655.83,-184 655.83,4 -4,4"/>
<!-- Fallback -->
<g id="node1" class="node">
<title>Fallback</title>
<polygon fill="cyan" stroke="black" points="326.01,-154.54 326.01,-169.46 308.88,-180 284.65,-180 267.52,-169.46 267.52,-154.54 284.65,-144 308.88,-144 326.01,-154.54"/>
<text text-anchor="middle" x="296.77" y="-159.8" font-family="Times,serif" font-size="9.00">Fallback</text>
</g>
<!-- Sequence -->
<g id="node2" class="node">
<title>Sequence</title>
<polygon fill="cyan" stroke="black" points="125.26,-82.54 125.26,-97.46 106.81,-108 80.72,-108 62.27,-97.46 62.27,-82.54 80.72,-72 106.81,-72 125.26,-82.54"/>
<text text-anchor="middle" x="93.77" y="-87.8" font-family="Times,serif" font-size="9.00">Sequence</text>
</g>
<!-- Fallback&#45;&gt;Sequence -->
<g id="edge1" class="edge">
<title>Fallback&#45;&gt;Sequence</title>
<path fill="none" stroke="black" d="M269.69,-152.99C237.15,-143.18 181,-125.68 133.77,-108 131.7,-107.23 129.58,-106.41 127.45,-105.56"/>
<polygon fill="black" stroke="black" points="128.75,-102.31 118.17,-101.77 126.1,-108.79 128.75,-102.31"/>
</g>
<!-- LkGraph? -->
<g id="node5" class="node">
<title>LkGraph?</title>
<ellipse fill="gray" stroke="black" cx="173.77" cy="-90" rx="30.7" ry="18"/>
<text text-anchor="middle" x="173.77" y="-87.8" font-family="Times,serif" font-size="9.00">LkGraph?</text>
</g>
<!-- Fallback&#45;&gt;LkGraph? -->
<g id="edge4" class="edge">
<title>Fallback&#45;&gt;LkGraph?</title>
<path fill="none" stroke="black" d="M275.9,-149.13C256.14,-137.88 226.25,-120.87 203.91,-108.15"/>
<polygon fill="black" stroke="black" points="205.57,-105.07 195.15,-103.17 202.11,-111.16 205.57,-105.07"/>
</g>
<!-- ReachGoal? -->
<g id="node6" class="node">
<title>ReachGoal?</title>
<ellipse fill="gray" stroke="black" cx="256.77" cy="-90" rx="34.13" ry="18"/>
<text text-anchor="middle" x="256.77" y="-87.8" font-family="Times,serif" font-size="9.00">ReachGoal?</text>
</g>
<!-- Fallback&#45;&gt;ReachGoal? -->
<g id="edge5" class="edge">
<title>Fallback&#45;&gt;ReachGoal?</title>
<path fill="none" stroke="black" d="M286.88,-143.7C282.21,-135.52 276.54,-125.6 271.38,-116.58"/>
<polygon fill="black" stroke="black" points="274.26,-114.57 266.26,-107.62 268.19,-118.04 274.26,-114.57"/>
</g>
<!-- LkClose? -->
<g id="node7" class="node">
<title>LkClose?</title>
<ellipse fill="gray" stroke="black" cx="337.77" cy="-90" rx="28.74" ry="18"/>
<text text-anchor="middle" x="337.77" y="-87.8" font-family="Times,serif" font-size="9.00">LkClose?</text>
</g>
<!-- Fallback&#45;&gt;LkClose? -->
<g id="edge6" class="edge">
<title>Fallback&#45;&gt;LkClose?</title>
<path fill="none" stroke="black" d="M306.9,-143.7C311.81,-135.32 317.79,-125.1 323.18,-115.9"/>
<polygon fill="black" stroke="black" points="326.28,-117.54 328.31,-107.14 320.24,-114 326.28,-117.54"/>
</g>
<!-- LkGraph?* -->
<g id="node8" class="node">
<title>LkGraph?*</title>
<ellipse fill="gray" stroke="black" cx="417.77" cy="-90" rx="32.82" ry="18"/>
<text text-anchor="middle" x="417.77" y="-87.8" font-family="Times,serif" font-size="9.00">LkGraph?*</text>
</g>
<!-- Fallback&#45;&gt;LkGraph?* -->
<g id="edge7" class="edge">
<title>Fallback&#45;&gt;LkGraph?*</title>
<path fill="none" stroke="black" d="M317.29,-149.13C336.41,-138.07 365.16,-121.43 387.01,-108.79"/>
<polygon fill="black" stroke="black" points="389.01,-111.68 395.91,-103.64 385.5,-105.62 389.01,-111.68"/>
</g>
<!-- Sequence* -->
<g id="node9" class="node">
<title>Sequence*</title>
<polygon fill="cyan" stroke="black" points="537.01,-82.54 537.01,-97.46 516.95,-108 488.58,-108 468.52,-97.46 468.52,-82.54 488.58,-72 516.95,-72 537.01,-82.54"/>
<text text-anchor="middle" x="502.77" y="-87.8" font-family="Times,serif" font-size="9.00">Sequence*</text>
</g>
<!-- Fallback&#45;&gt;Sequence* -->
<g id="edge8" class="edge">
<title>Fallback&#45;&gt;Sequence*</title>
<path fill="none" stroke="black" d="M323.48,-152.87C355.91,-142.88 412.17,-125.13 459.77,-108 462.14,-107.14 464.59,-106.24 467.05,-105.32"/>
<polygon fill="black" stroke="black" points="468.41,-108.54 476.48,-101.69 465.89,-102.01 468.41,-108.54"/>
</g>
<!-- NotReadyForSG? -->
<g id="node3" class="node">
<title>NotReadyForSG?</title>
<ellipse fill="gray" stroke="black" cx="46.77" cy="-18" rx="46.53" ry="18"/>
<text text-anchor="middle" x="46.77" y="-15.8" font-family="Times,serif" font-size="9.00">NotReadyForSG?</text>
</g>
<!-- Sequence&#45;&gt;NotReadyForSG? -->
<g id="edge2" class="edge">
<title>Sequence&#45;&gt;NotReadyForSG?</title>
<path fill="none" stroke="black" d="M82.15,-71.7C76.54,-63.35 69.72,-53.18 63.56,-44.02"/>
<polygon fill="black" stroke="black" points="66.41,-41.97 57.93,-35.62 60.59,-45.88 66.41,-41.97"/>
</g>
<!-- MoveTo! -->
<g id="node4" class="node">
<title>MoveTo!</title>
<ellipse fill="gray" stroke="black" cx="140.77" cy="-18" rx="28.74" ry="18"/>
<text text-anchor="middle" x="140.77" y="-15.8" font-family="Times,serif" font-size="9.00">MoveTo!</text>
</g>
<!-- Sequence&#45;&gt;MoveTo! -->
<g id="edge3" class="edge">
<title>Sequence&#45;&gt;MoveTo!</title>
<path fill="none" stroke="black" d="M105.38,-71.7C111.07,-63.23 118.01,-52.89 124.24,-43.61"/>
<polygon fill="black" stroke="black" points="127.26,-45.4 129.93,-35.14 121.45,-41.5 127.26,-45.4"/>
</g>
<!-- LkClose?* -->
<g id="node10" class="node">
<title>LkClose?*</title>
<ellipse fill="gray" stroke="black" cx="389.77" cy="-18" rx="31.51" ry="18"/>
<text text-anchor="middle" x="389.77" y="-15.8" font-family="Times,serif" font-size="9.00">LkClose?*</text>
</g>
<!-- Sequence*&#45;&gt;LkClose?* -->
<g id="edge9" class="edge">
<title>Sequence*&#45;&gt;LkClose?*</title>
<path fill="none" stroke="black" d="M481.24,-75.67C463.67,-64.78 438.64,-49.28 419.2,-37.24"/>
<polygon fill="black" stroke="black" points="420.79,-34.1 410.44,-31.81 417.1,-40.05 420.79,-34.1"/>
</g>
<!-- GetLk! -->
<g id="node11" class="node">
<title>GetLk!</title>
<ellipse fill="gray" stroke="black" cx="466.77" cy="-18" rx="27" ry="18"/>
<text text-anchor="middle" x="466.77" y="-15.8" font-family="Times,serif" font-size="9.00">GetLk!</text>
</g>
<!-- Sequence*&#45;&gt;GetLk! -->
<g id="edge10" class="edge">
<title>Sequence*&#45;&gt;GetLk!</title>
<path fill="none" stroke="black" d="M493.87,-71.7C489.6,-63.4 484.41,-53.31 479.72,-44.19"/>
<polygon fill="black" stroke="black" points="482.75,-42.44 475.07,-35.14 476.53,-45.64 482.75,-42.44"/>
</g>
<!-- GetLk!* -->
<g id="node12" class="node">
<title>GetLk!*</title>
<ellipse fill="gray" stroke="black" cx="538.77" cy="-18" rx="27.27" ry="18"/>
<text text-anchor="middle" x="538.77" y="-15.8" font-family="Times,serif" font-size="9.00">GetLk!*</text>
</g>
<!-- Sequence*&#45;&gt;GetLk!* -->
<g id="edge11" class="edge">
<title>Sequence*&#45;&gt;GetLk!*</title>
<path fill="none" stroke="black" d="M511.66,-71.7C515.93,-63.4 521.12,-53.31 525.81,-44.19"/>
<polygon fill="black" stroke="black" points="529,-45.64 530.46,-35.14 522.78,-42.44 529,-45.64"/>
</g>
<!-- LkClose?** -->
<g id="node13" class="node">
<title>LkClose?**</title>
<ellipse fill="gray" stroke="black" cx="617.77" cy="-18" rx="34.13" ry="18"/>
<text text-anchor="middle" x="617.77" y="-15.8" font-family="Times,serif" font-size="9.00">LkClose?**</text>
</g>
<!-- Sequence*&#45;&gt;LkClose?** -->
<g id="edge12" class="edge">
<title>Sequence*&#45;&gt;LkClose?**</title>
<path fill="none" stroke="black" d="M524.4,-75.83C542.23,-64.98 567.72,-49.46 587.56,-37.39"/>
<polygon fill="black" stroke="black" points="589.51,-40.3 596.23,-32.11 585.87,-34.32 589.51,-40.3"/>
</g>
</g>
</svg>
