<?xml version="1.0" encoding="UTF-8" standalone="no"?>
<!DOCTYPE svg PUBLIC "-//W3C//DTD SVG 1.1//EN"
 "http://www.w3.org/Graphics/SVG/1.1/DTD/svg11.dtd">
<!-- Generated by graphviz version 2.43.0 (0)
 -->
<!-- Title: pastafarianism Pages: 1 -->
<svg width="2451pt" height="260pt"
 viewBox="0.00 0.00 2451.03 260.00" xmlns="http://www.w3.org/2000/svg" xmlns:xlink="http://www.w3.org/1999/xlink">
<g id="graph0" class="graph" transform="scale(1 1) rotate(0) translate(4 256)">
<title>pastafarianism</title>
<polygon fill="white" stroke="transparent" points="-4,4 -4,-256 2447.03,-256 2447.03,4 -4,4"/>
<!-- Fallback -->
<g id="node1" class="node">
<title>Fallback</title>
<polygon fill="cyan" stroke="black" points="1012.01,-226.54 1012.01,-241.46 994.88,-252 970.65,-252 953.52,-241.46 953.52,-226.54 970.65,-216 994.88,-216 1012.01,-226.54"/>
<text text-anchor="middle" x="982.77" y="-231.8" font-family="Times,serif" font-size="9.00">Fallback</text>
</g>
<!-- Sequence -->
<g id="node2" class="node">
<title>Sequence</title>
<polygon fill="cyan" stroke="black" points="210.26,-154.54 210.26,-169.46 191.81,-180 165.72,-180 147.27,-169.46 147.27,-154.54 165.72,-144 191.81,-144 210.26,-154.54"/>
<text text-anchor="middle" x="178.77" y="-159.8" font-family="Times,serif" font-size="9.00">Sequence</text>
</g>
<!-- Fallback&#45;&gt;Sequence -->
<g id="edge1" class="edge">
<title>Fallback&#45;&gt;Sequence</title>
<path fill="none" stroke="black" d="M953.2,-230.43C830.76,-219.77 363.22,-179.06 220.43,-166.63"/>
<polygon fill="black" stroke="black" points="220.6,-163.13 210.33,-165.75 219.99,-170.1 220.6,-163.13"/>
</g>
<!-- LkGraph? -->
<g id="node6" class="node">
<title>LkGraph?</title>
<ellipse fill="gray" stroke="black" cx="815.77" cy="-162" rx="30.7" ry="18"/>
<text text-anchor="middle" x="815.77" y="-159.8" font-family="Times,serif" font-size="9.00">LkGraph?</text>
</g>
<!-- Fallback&#45;&gt;LkGraph? -->
<g id="edge5" class="edge">
<title>Fallback&#45;&gt;LkGraph?</title>
<path fill="none" stroke="black" d="M958.87,-223.08C933.33,-212.47 891.66,-195.12 855.77,-180 853.59,-179.09 851.36,-178.14 849.1,-177.19"/>
<polygon fill="black" stroke="black" points="850.44,-173.95 839.87,-173.27 847.71,-180.4 850.44,-173.95"/>
</g>
<!-- ReachGoal? -->
<g id="node7" class="node">
<title>ReachGoal?</title>
<ellipse fill="gray" stroke="black" cx="898.77" cy="-162" rx="34.13" ry="18"/>
<text text-anchor="middle" x="898.77" y="-159.8" font-family="Times,serif" font-size="9.00">ReachGoal?</text>
</g>
<!-- Fallback&#45;&gt;ReachGoal? -->
<g id="edge6" class="edge">
<title>Fallback&#45;&gt;ReachGoal?</title>
<path fill="none" stroke="black" d="M965.77,-218.83C953.86,-208.91 937.73,-195.47 924.28,-184.26"/>
<polygon fill="black" stroke="black" points="926.24,-181.34 916.32,-177.63 921.76,-186.72 926.24,-181.34"/>
</g>
<!-- LkClose?* -->
<g id="node8" class="node">
<title>LkClose?*</title>
<ellipse fill="gray" stroke="black" cx="982.77" cy="-162" rx="31.51" ry="18"/>
<text text-anchor="middle" x="982.77" y="-159.8" font-family="Times,serif" font-size="9.00">LkClose?*</text>
</g>
<!-- Fallback&#45;&gt;LkClose?* -->
<g id="edge7" class="edge">
<title>Fallback&#45;&gt;LkClose?*</title>
<path fill="none" stroke="black" d="M982.77,-215.7C982.77,-207.98 982.77,-198.71 982.77,-190.11"/>
<polygon fill="black" stroke="black" points="986.27,-190.1 982.77,-180.1 979.27,-190.1 986.27,-190.1"/>
</g>
<!-- LkGraph?* -->
<g id="node9" class="node">
<title>LkGraph?*</title>
<ellipse fill="gray" stroke="black" cx="1065.77" cy="-162" rx="32.82" ry="18"/>
<text text-anchor="middle" x="1065.77" y="-159.8" font-family="Times,serif" font-size="9.00">LkGraph?*</text>
</g>
<!-- Fallback&#45;&gt;LkGraph?* -->
<g id="edge8" class="edge">
<title>Fallback&#45;&gt;LkGraph?*</title>
<path fill="none" stroke="black" d="M999.56,-218.83C1011.33,-208.91 1027.27,-195.47 1040.55,-184.26"/>
<polygon fill="black" stroke="black" points="1043.03,-186.75 1048.42,-177.63 1038.52,-181.4 1043.03,-186.75"/>
</g>
<!-- Sequence* -->
<g id="node10" class="node">
<title>Sequence*</title>
<polygon fill="cyan" stroke="black" points="1185.01,-154.54 1185.01,-169.46 1164.95,-180 1136.58,-180 1116.52,-169.46 1116.52,-154.54 1136.58,-144 1164.95,-144 1185.01,-154.54"/>
<text text-anchor="middle" x="1150.77" y="-159.8" font-family="Times,serif" font-size="9.00">Sequence*</text>
</g>
<!-- Fallback&#45;&gt;Sequence* -->
<g id="edge9" class="edge">
<title>Fallback&#45;&gt;Sequence*</title>
<path fill="none" stroke="black" d="M1006.48,-223.12C1034.76,-211.34 1082.3,-191.53 1115.04,-177.89"/>
<polygon fill="black" stroke="black" points="1116.8,-180.94 1124.69,-173.87 1114.11,-174.48 1116.8,-180.94"/>
</g>
<!-- Sequence** -->
<g id="node34" class="node">
<title>Sequence**</title>
<polygon fill="cyan" stroke="black" points="2258.51,-154.54 2258.51,-169.46 2236.98,-180 2206.55,-180 2185.02,-169.46 2185.02,-154.54 2206.55,-144 2236.98,-144 2258.51,-154.54"/>
<text text-anchor="middle" x="2221.77" y="-159.8" font-family="Times,serif" font-size="9.00">Sequence**</text>
</g>
<!-- Fallback&#45;&gt;Sequence** -->
<g id="edge33" class="edge">
<title>Fallback&#45;&gt;Sequence**</title>
<path fill="none" stroke="black" d="M1012.17,-231.34C1175.61,-222.1 1972.14,-177.1 2174.79,-165.65"/>
<polygon fill="black" stroke="black" points="2175.03,-169.15 2184.82,-165.09 2174.63,-162.16 2175.03,-169.15"/>
</g>
<!-- NotReadyForSG? -->
<g id="node3" class="node">
<title>NotReadyForSG?</title>
<ellipse fill="gray" stroke="black" cx="46.77" cy="-90" rx="46.53" ry="18"/>
<text text-anchor="middle" x="46.77" y="-87.8" font-family="Times,serif" font-size="9.00">NotReadyForSG?</text>
</g>
<!-- Sequence&#45;&gt;NotReadyForSG? -->
<g id="edge2" class="edge">
<title>Sequence&#45;&gt;NotReadyForSG?</title>
<path fill="none" stroke="black" d="M156.37,-149.13C136.11,-138.38 105.93,-122.38 82.36,-109.88"/>
<polygon fill="black" stroke="black" points="83.84,-106.7 73.37,-105.11 80.56,-112.88 83.84,-106.7"/>
</g>
<!-- MoveTo! -->
<g id="node4" class="node">
<title>MoveTo!</title>
<ellipse fill="gray" stroke="black" cx="140.77" cy="-90" rx="28.74" ry="18"/>
<text text-anchor="middle" x="140.77" y="-87.8" font-family="Times,serif" font-size="9.00">MoveTo!</text>
</g>
<!-- Sequence&#45;&gt;MoveTo! -->
<g id="edge3" class="edge">
<title>Sequence&#45;&gt;MoveTo!</title>
<path fill="none" stroke="black" d="M169.37,-143.7C164.94,-135.52 159.55,-125.6 154.65,-116.58"/>
<polygon fill="black" stroke="black" points="157.64,-114.74 149.79,-107.62 151.48,-118.08 157.64,-114.74"/>
</g>
<!-- LkClose? -->
<g id="node5" class="node">
<title>LkClose?</title>
<ellipse fill="gray" stroke="black" cx="216.77" cy="-90" rx="28.74" ry="18"/>
<text text-anchor="middle" x="216.77" y="-87.8" font-family="Times,serif" font-size="9.00">LkClose?</text>
</g>
<!-- Sequence&#45;&gt;LkClose? -->
<g id="edge4" class="edge">
<title>Sequence&#45;&gt;LkClose?</title>
<path fill="none" stroke="black" d="M188.16,-143.7C192.6,-135.52 197.98,-125.6 202.88,-116.58"/>
<polygon fill="black" stroke="black" points="206.05,-118.08 207.74,-107.62 199.89,-114.74 206.05,-118.08"/>
</g>
<!-- GetSubGoal! -->
<g id="node11" class="node">
<title>GetSubGoal!</title>
<ellipse fill="gray" stroke="black" cx="300.77" cy="-90" rx="36.9" ry="18"/>
<text text-anchor="middle" x="300.77" y="-87.8" font-family="Times,serif" font-size="9.00">GetSubGoal!</text>
</g>
<!-- Sequence*&#45;&gt;GetSubGoal! -->
<g id="edge10" class="edge">
<title>Sequence*&#45;&gt;GetSubGoal!</title>
<path fill="none" stroke="black" d="M1125.73,-149.51C1119.94,-147.3 1113.73,-145.28 1107.77,-144 776.74,-72.79 678.57,-175.48 346.77,-108 343.59,-107.36 340.35,-106.53 337.13,-105.58"/>
<polygon fill="black" stroke="black" points="338.2,-102.25 327.61,-102.48 336.03,-108.91 338.2,-102.25"/>
</g>
<!-- MoveTo!* -->
<g id="node12" class="node">
<title>MoveTo!*</title>
<ellipse fill="gray" stroke="black" cx="387.77" cy="-90" rx="31.51" ry="18"/>
<text text-anchor="middle" x="387.77" y="-87.8" font-family="Times,serif" font-size="9.00">MoveTo!*</text>
</g>
<!-- Sequence*&#45;&gt;MoveTo!* -->
<g id="edge11" class="edge">
<title>Sequence*&#45;&gt;MoveTo!*</title>
<path fill="none" stroke="black" d="M1125.73,-149.53C1119.94,-147.33 1113.73,-145.3 1107.77,-144 812.5,-79.61 723.48,-174.84 428.77,-108 426.11,-107.4 423.41,-106.64 420.72,-105.77"/>
<polygon fill="black" stroke="black" points="421.76,-102.43 411.16,-102.3 419.37,-109.01 421.76,-102.43"/>
</g>
<!-- Fallback* -->
<g id="node13" class="node">
<title>Fallback*</title>
<polygon fill="cyan" stroke="black" points="501.51,-82.54 501.51,-97.46 482.91,-108 456.62,-108 438.02,-97.46 438.02,-82.54 456.62,-72 482.91,-72 501.51,-82.54"/>
<text text-anchor="middle" x="469.77" y="-87.8" font-family="Times,serif" font-size="9.00">Fallback*</text>
</g>
<!-- Sequence*&#45;&gt;Fallback* -->
<g id="edge12" class="edge">
<title>Sequence*&#45;&gt;Fallback*</title>
<path fill="none" stroke="black" d="M1125.72,-149.57C1119.93,-147.36 1113.72,-145.32 1107.77,-144 848.26,-86.42 769.78,-167.73 510.77,-108 508.11,-107.39 505.41,-106.62 502.72,-105.75"/>
<polygon fill="black" stroke="black" points="503.77,-102.41 493.17,-102.27 501.37,-108.98 503.77,-102.41"/>
</g>
<!-- MoveTo!*** -->
<g id="node16" class="node">
<title>MoveTo!***</title>
<ellipse fill="gray" stroke="black" cx="556.77" cy="-90" rx="36.9" ry="18"/>
<text text-anchor="middle" x="556.77" y="-87.8" font-family="Times,serif" font-size="9.00">MoveTo!***</text>
</g>
<!-- Sequence*&#45;&gt;MoveTo!*** -->
<g id="edge15" class="edge">
<title>Sequence*&#45;&gt;MoveTo!***</title>
<path fill="none" stroke="black" d="M1125.71,-149.61C1119.92,-147.4 1113.71,-145.35 1107.77,-144 888.36,-94.05 822.71,-155.47 602.77,-108 599.6,-107.32 596.37,-106.46 593.15,-105.5"/>
<polygon fill="black" stroke="black" points="594.22,-102.17 583.63,-102.37 592.03,-108.82 594.22,-102.17"/>
</g>
<!-- NotReadyForSG?* -->
<g id="node17" class="node">
<title>NotReadyForSG?*</title>
<ellipse fill="gray" stroke="black" cx="661.77" cy="-90" rx="49.8" ry="18"/>
<text text-anchor="middle" x="661.77" y="-87.8" font-family="Times,serif" font-size="9.00">NotReadyForSG?*</text>
</g>
<!-- Sequence*&#45;&gt;NotReadyForSG?* -->
<g id="edge16" class="edge">
<title>Sequence*&#45;&gt;NotReadyForSG?*</title>
<path fill="none" stroke="black" d="M1125.69,-149.71C1119.9,-147.49 1113.7,-145.42 1107.77,-144 939.76,-103.84 890.51,-140.05 720.77,-108 716.41,-107.18 711.9,-106.17 707.42,-105.07"/>
<polygon fill="black" stroke="black" points="708.26,-101.67 697.7,-102.51 706.49,-108.44 708.26,-101.67"/>
</g>
<!-- LkGraph?*** -->
<g id="node18" class="node">
<title>LkGraph?***</title>
<ellipse fill="gray" stroke="black" cx="767.77" cy="-90" rx="38.21" ry="18"/>
<text text-anchor="middle" x="767.77" y="-87.8" font-family="Times,serif" font-size="9.00">LkGraph?***</text>
</g>
<!-- Sequence*&#45;&gt;LkGraph?*** -->
<g id="edge17" class="edge">
<title>Sequence*&#45;&gt;LkGraph?***</title>
<path fill="none" stroke="black" d="M1125.2,-149.66C1119.54,-147.51 1113.52,-145.47 1107.77,-144 980.62,-111.62 942.37,-138.51 814.77,-108 811.74,-107.28 808.64,-106.42 805.55,-105.49"/>
<polygon fill="black" stroke="black" points="806.38,-102.08 795.78,-102.3 804.2,-108.73 806.38,-102.08"/>
</g>
<!-- NotReadyForSG?** -->
<g id="node19" class="node">
<title>NotReadyForSG?**</title>
<ellipse fill="gray" stroke="black" cx="875.77" cy="-90" rx="51.92" ry="18"/>
<text text-anchor="middle" x="875.77" y="-87.8" font-family="Times,serif" font-size="9.00">NotReadyForSG?**</text>
</g>
<!-- Sequence*&#45;&gt;NotReadyForSG?** -->
<g id="edge18" class="edge">
<title>Sequence*&#45;&gt;NotReadyForSG?**</title>
<path fill="none" stroke="black" d="M1125.09,-150.03C1119.45,-147.85 1113.45,-145.71 1107.77,-144 1033.39,-121.64 1012.21,-126.43 936.77,-108 932.68,-107 928.45,-105.92 924.22,-104.81"/>
<polygon fill="black" stroke="black" points="924.96,-101.38 914.39,-102.17 923.14,-108.14 924.96,-101.38"/>
</g>
<!-- MoveTo!**** -->
<g id="node20" class="node">
<title>MoveTo!****</title>
<ellipse fill="gray" stroke="black" cx="984.77" cy="-90" rx="39.02" ry="18"/>
<text text-anchor="middle" x="984.77" y="-87.8" font-family="Times,serif" font-size="9.00">MoveTo!****</text>
</g>
<!-- Sequence*&#45;&gt;MoveTo!**** -->
<g id="edge19" class="edge">
<title>Sequence*&#45;&gt;MoveTo!****</title>
<path fill="none" stroke="black" d="M1124.83,-150.06C1097.23,-138.42 1053.31,-119.9 1022.01,-106.71"/>
<polygon fill="black" stroke="black" points="1023.31,-103.46 1012.74,-102.8 1020.59,-109.91 1023.31,-103.46"/>
</g>
<!-- GetLk! -->
<g id="node21" class="node">
<title>GetLk!</title>
<ellipse fill="gray" stroke="black" cx="1068.77" cy="-90" rx="27" ry="18"/>
<text text-anchor="middle" x="1068.77" y="-87.8" font-family="Times,serif" font-size="9.00">GetLk!</text>
</g>
<!-- Sequence*&#45;&gt;GetLk! -->
<g id="edge20" class="edge">
<title>Sequence*&#45;&gt;GetLk!</title>
<path fill="none" stroke="black" d="M1132.97,-145.81C1121.11,-135.69 1105.39,-122.27 1092.48,-111.24"/>
<polygon fill="black" stroke="black" points="1094.73,-108.57 1084.86,-104.74 1090.19,-113.89 1094.73,-108.57"/>
</g>
<!-- ReachGoal?* -->
<g id="node22" class="node">
<title>ReachGoal?*</title>
<ellipse fill="gray" stroke="black" cx="1150.77" cy="-90" rx="36.9" ry="18"/>
<text text-anchor="middle" x="1150.77" y="-87.8" font-family="Times,serif" font-size="9.00">ReachGoal?*</text>
</g>
<!-- Sequence*&#45;&gt;ReachGoal?* -->
<g id="edge21" class="edge">
<title>Sequence*&#45;&gt;ReachGoal?*</title>
<path fill="none" stroke="black" d="M1150.77,-143.7C1150.77,-135.98 1150.77,-126.71 1150.77,-118.11"/>
<polygon fill="black" stroke="black" points="1154.27,-118.1 1150.77,-108.1 1147.27,-118.1 1154.27,-118.1"/>
</g>
<!-- Fallback** -->
<g id="node23" class="node">
<title>Fallback**</title>
<polygon fill="cyan" stroke="black" points="1275.76,-82.54 1275.76,-97.46 1255.26,-108 1226.27,-108 1205.77,-97.46 1205.77,-82.54 1226.27,-72 1255.26,-72 1275.76,-82.54"/>
<text text-anchor="middle" x="1240.77" y="-87.8" font-family="Times,serif" font-size="9.00">Fallback**</text>
</g>
<!-- Sequence*&#45;&gt;Fallback** -->
<g id="edge22" class="edge">
<title>Sequence*&#45;&gt;Fallback**</title>
<path fill="none" stroke="black" d="M1169.85,-146.15C1182.62,-136.22 1199.61,-123.01 1213.76,-112.01"/>
<polygon fill="black" stroke="black" points="1215.96,-114.73 1221.71,-105.82 1211.66,-109.2 1215.96,-114.73"/>
</g>
<!-- ReachGoal?** -->
<g id="node26" class="node">
<title>ReachGoal?**</title>
<ellipse fill="gray" stroke="black" cx="1332.77" cy="-90" rx="39.02" ry="18"/>
<text text-anchor="middle" x="1332.77" y="-87.8" font-family="Times,serif" font-size="9.00">ReachGoal?**</text>
</g>
<!-- Sequence*&#45;&gt;ReachGoal?** -->
<g id="edge25" class="edge">
<title>Sequence*&#45;&gt;ReachGoal?**</title>
<path fill="none" stroke="black" d="M1178.01,-150.52C1208.83,-138.67 1259.25,-119.27 1294.13,-105.86"/>
<polygon fill="black" stroke="black" points="1295.44,-109.1 1303.52,-102.25 1292.93,-102.57 1295.44,-109.1"/>
</g>
<!-- MoveTo!***** -->
<g id="node27" class="node">
<title>MoveTo!*****</title>
<ellipse fill="gray" stroke="black" cx="1431.77" cy="-90" rx="42.29" ry="18"/>
<text text-anchor="middle" x="1431.77" y="-87.8" font-family="Times,serif" font-size="9.00">MoveTo!*****</text>
</g>
<!-- Sequence*&#45;&gt;MoveTo!***** -->
<g id="edge26" class="edge">
<title>Sequence*&#45;&gt;MoveTo!*****</title>
<path fill="none" stroke="black" d="M1184.54,-154.27C1229.6,-145.05 1311.73,-127.41 1380.77,-108 1383.91,-107.12 1387.15,-106.16 1390.4,-105.16"/>
<polygon fill="black" stroke="black" points="1391.61,-108.44 1400.08,-102.08 1389.49,-101.77 1391.61,-108.44"/>
</g>
<!-- GetLk!** -->
<g id="node28" class="node">
<title>GetLk!**</title>
<ellipse fill="gray" stroke="black" cx="1521.77" cy="-90" rx="29.39" ry="18"/>
<text text-anchor="middle" x="1521.77" y="-87.8" font-family="Times,serif" font-size="9.00">GetLk!**</text>
</g>
<!-- Sequence*&#45;&gt;GetLk!** -->
<g id="edge27" class="edge">
<title>Sequence*&#45;&gt;GetLk!**</title>
<path fill="none" stroke="black" d="M1185.33,-158.38C1246.39,-153.11 1376.89,-138.98 1482.77,-108 1485.18,-107.29 1487.65,-106.47 1490.11,-105.58"/>
<polygon fill="black" stroke="black" points="1491.43,-108.82 1499.44,-101.88 1488.85,-102.31 1491.43,-108.82"/>
</g>
<!-- MoveTo!****** -->
<g id="node29" class="node">
<title>MoveTo!******</title>
<ellipse fill="gray" stroke="black" cx="1613.77" cy="-90" rx="44.41" ry="18"/>
<text text-anchor="middle" x="1613.77" y="-87.8" font-family="Times,serif" font-size="9.00">MoveTo!******</text>
</g>
<!-- Sequence*&#45;&gt;MoveTo!****** -->
<g id="edge28" class="edge">
<title>Sequence*&#45;&gt;MoveTo!******</title>
<path fill="none" stroke="black" d="M1185.05,-158.61C1255.78,-153.23 1422.72,-138.21 1559.77,-108 1563.6,-107.16 1567.55,-106.16 1571.49,-105.08"/>
<polygon fill="black" stroke="black" points="1572.55,-108.42 1581.18,-102.27 1570.6,-101.7 1572.55,-108.42"/>
</g>
<!-- MoveTo!******* -->
<g id="node30" class="node">
<title>MoveTo!*******</title>
<ellipse fill="gray" stroke="black" cx="1723.77" cy="-90" rx="47.19" ry="18"/>
<text text-anchor="middle" x="1723.77" y="-87.8" font-family="Times,serif" font-size="9.00">MoveTo!*******</text>
</g>
<!-- Sequence*&#45;&gt;MoveTo!******* -->
<g id="edge29" class="edge">
<title>Sequence*&#45;&gt;MoveTo!*******</title>
<path fill="none" stroke="black" d="M1185.21,-159.69C1268.6,-156.04 1487.68,-143.58 1666.77,-108 1670.92,-107.17 1675.22,-106.18 1679.49,-105.08"/>
<polygon fill="black" stroke="black" points="1680.63,-108.4 1689.36,-102.39 1678.79,-101.64 1680.63,-108.4"/>
</g>
<!-- NotReadyForSG?*** -->
<g id="node31" class="node">
<title>NotReadyForSG?***</title>
<ellipse fill="gray" stroke="black" cx="1843.77" cy="-90" rx="54.7" ry="18"/>
<text text-anchor="middle" x="1843.77" y="-87.8" font-family="Times,serif" font-size="9.00">NotReadyForSG?***</text>
</g>
<!-- Sequence*&#45;&gt;NotReadyForSG?*** -->
<g id="edge30" class="edge">
<title>Sequence*&#45;&gt;NotReadyForSG?***</title>
<path fill="none" stroke="black" d="M1185.13,-160.22C1280.31,-157.61 1555.18,-146.98 1779.77,-108 1784.54,-107.17 1789.48,-106.15 1794.4,-105.03"/>
<polygon fill="black" stroke="black" points="1795.51,-108.37 1804.4,-102.62 1793.86,-101.56 1795.51,-108.37"/>
</g>
<!-- GetLk!*** -->
<g id="node32" class="node">
<title>GetLk!***</title>
<ellipse fill="gray" stroke="black" cx="1948.77" cy="-90" rx="32.16" ry="18"/>
<text text-anchor="middle" x="1948.77" y="-87.8" font-family="Times,serif" font-size="9.00">GetLk!***</text>
</g>
<!-- Sequence*&#45;&gt;GetLk!*** -->
<g id="edge31" class="edge">
<title>Sequence*&#45;&gt;GetLk!***</title>
<path fill="none" stroke="black" d="M1185.28,-160.06C1314.22,-156.32 1767.51,-141.06 1907.77,-108 1910.26,-107.41 1912.8,-106.69 1915.32,-105.88"/>
<polygon fill="black" stroke="black" points="1916.71,-109.1 1924.91,-102.4 1914.32,-102.52 1916.71,-109.1"/>
</g>
<!-- LkClose?** -->
<g id="node33" class="node">
<title>LkClose?**</title>
<ellipse fill="gray" stroke="black" cx="2032.77" cy="-90" rx="34.13" ry="18"/>
<text text-anchor="middle" x="2032.77" y="-87.8" font-family="Times,serif" font-size="9.00">LkClose?**</text>
</g>
<!-- Sequence*&#45;&gt;LkClose?** -->
<g id="edge32" class="edge">
<title>Sequence*&#45;&gt;LkClose?**</title>
<path fill="none" stroke="black" d="M1185.16,-160.26C1322.61,-157.08 1832.55,-143.12 1989.77,-108 1992.56,-107.38 1995.4,-106.6 1998.24,-105.72"/>
<polygon fill="black" stroke="black" points="1999.42,-109.01 2007.72,-102.42 1997.12,-102.4 1999.42,-109.01"/>
</g>
<!-- LkGraph?** -->
<g id="node14" class="node">
<title>LkGraph?**</title>
<ellipse fill="gray" stroke="black" cx="425.77" cy="-18" rx="35.59" ry="18"/>
<text text-anchor="middle" x="425.77" y="-15.8" font-family="Times,serif" font-size="9.00">LkGraph?**</text>
</g>
<!-- Fallback*&#45;&gt;LkGraph?** -->
<g id="edge13" class="edge">
<title>Fallback*&#45;&gt;LkGraph?**</title>
<path fill="none" stroke="black" d="M458.89,-71.7C453.7,-63.44 447.38,-53.39 441.67,-44.3"/>
<polygon fill="black" stroke="black" points="444.5,-42.23 436.21,-35.62 438.57,-45.95 444.5,-42.23"/>
</g>
<!-- MoveTo!** -->
<g id="node15" class="node">
<title>MoveTo!**</title>
<ellipse fill="gray" stroke="black" cx="513.77" cy="-18" rx="34.13" ry="18"/>
<text text-anchor="middle" x="513.77" y="-15.8" font-family="Times,serif" font-size="9.00">MoveTo!**</text>
</g>
<!-- Fallback*&#45;&gt;MoveTo!** -->
<g id="edge14" class="edge">
<title>Fallback*&#45;&gt;MoveTo!**</title>
<path fill="none" stroke="black" d="M480.64,-71.7C485.83,-63.44 492.15,-53.39 497.86,-44.3"/>
<polygon fill="black" stroke="black" points="500.96,-45.95 503.32,-35.62 495.03,-42.23 500.96,-45.95"/>
</g>
<!-- GetSubGoal!* -->
<g id="node24" class="node">
<title>GetSubGoal!*</title>
<ellipse fill="gray" stroke="black" cx="1198.77" cy="-18" rx="39.02" ry="18"/>
<text text-anchor="middle" x="1198.77" y="-15.8" font-family="Times,serif" font-size="9.00">GetSubGoal!*</text>
</g>
<!-- Fallback**&#45;&gt;GetSubGoal!* -->
<g id="edge23" class="edge">
<title>Fallback**&#45;&gt;GetSubGoal!*</title>
<path fill="none" stroke="black" d="M1230.38,-71.7C1225.43,-63.44 1219.4,-53.39 1213.95,-44.3"/>
<polygon fill="black" stroke="black" points="1216.88,-42.4 1208.74,-35.62 1210.88,-46 1216.88,-42.4"/>
</g>
<!-- GetLk!* -->
<g id="node25" class="node">
<title>GetLk!*</title>
<ellipse fill="gray" stroke="black" cx="1282.77" cy="-18" rx="27.27" ry="18"/>
<text text-anchor="middle" x="1282.77" y="-15.8" font-family="Times,serif" font-size="9.00">GetLk!*</text>
</g>
<!-- Fallback**&#45;&gt;GetLk!* -->
<g id="edge24" class="edge">
<title>Fallback**&#45;&gt;GetLk!*</title>
<path fill="none" stroke="black" d="M1251.15,-71.7C1256.18,-63.32 1262.31,-53.1 1267.83,-43.9"/>
<polygon fill="black" stroke="black" points="1270.93,-45.52 1273.08,-35.14 1264.93,-41.92 1270.93,-45.52"/>
</g>
<!-- LkGraph?**** -->
<g id="node35" class="node">
<title>LkGraph?****</title>
<ellipse fill="gray" stroke="black" cx="2125.77" cy="-90" rx="40.98" ry="18"/>
<text text-anchor="middle" x="2125.77" y="-87.8" font-family="Times,serif" font-size="9.00">LkGraph?****</text>
</g>
<!-- Sequence**&#45;&gt;LkGraph?**** -->
<g id="edge34" class="edge">
<title>Sequence**&#45;&gt;LkGraph?****</title>
<path fill="none" stroke="black" d="M2201.41,-146.15C2187.79,-136.22 2169.67,-123.01 2154.57,-112.01"/>
<polygon fill="black" stroke="black" points="2156.24,-108.89 2146.1,-105.82 2152.11,-114.54 2156.24,-108.89"/>
</g>
<!-- LkClose?*** -->
<g id="node36" class="node">
<title>LkClose?***</title>
<ellipse fill="gray" stroke="black" cx="2221.77" cy="-90" rx="36.9" ry="18"/>
<text text-anchor="middle" x="2221.77" y="-87.8" font-family="Times,serif" font-size="9.00">LkClose?***</text>
</g>
<!-- Sequence**&#45;&gt;LkClose?*** -->
<g id="edge35" class="edge">
<title>Sequence**&#45;&gt;LkClose?***</title>
<path fill="none" stroke="black" d="M2221.77,-143.7C2221.77,-135.98 2221.77,-126.71 2221.77,-118.11"/>
<polygon fill="black" stroke="black" points="2225.27,-118.1 2221.77,-108.1 2218.27,-118.1 2225.27,-118.1"/>
</g>
<!-- GetLk!**** -->
<g id="node37" class="node">
<title>GetLk!****</title>
<ellipse fill="gray" stroke="black" cx="2311.77" cy="-90" rx="34.78" ry="18"/>
<text text-anchor="middle" x="2311.77" y="-87.8" font-family="Times,serif" font-size="9.00">GetLk!****</text>
</g>
<!-- Sequence**&#45;&gt;GetLk!**** -->
<g id="edge36" class="edge">
<title>Sequence**&#45;&gt;GetLk!****</title>
<path fill="none" stroke="black" d="M2241.29,-145.81C2254.17,-135.79 2271.2,-122.55 2285.29,-111.59"/>
<polygon fill="black" stroke="black" points="2287.45,-114.34 2293.2,-105.44 2283.16,-108.82 2287.45,-114.34"/>
</g>
<!-- LkClose?**** -->
<g id="node38" class="node">
<title>LkClose?****</title>
<ellipse fill="gray" stroke="black" cx="2403.77" cy="-90" rx="39.02" ry="18"/>
<text text-anchor="middle" x="2403.77" y="-87.8" font-family="Times,serif" font-size="9.00">LkClose?****</text>
</g>
<!-- Sequence**&#45;&gt;LkClose?**** -->
<g id="edge37" class="edge">
<title>Sequence**&#45;&gt;LkClose?****</title>
<path fill="none" stroke="black" d="M2249.8,-150.22C2280.57,-138.38 2330.17,-119.31 2364.73,-106.02"/>
<polygon fill="black" stroke="black" points="2366.41,-109.12 2374.49,-102.26 2363.9,-102.58 2366.41,-109.12"/>
</g>
</g>
</svg>
