<?xml version="1.0" encoding="UTF-8" standalone="no"?>
<!DOCTYPE svg PUBLIC "-//W3C//DTD SVG 1.1//EN"
 "http://www.w3.org/Graphics/SVG/1.1/DTD/svg11.dtd">
<!-- Generated by graphviz version 2.43.0 (0)
 -->
<!-- Title: pastafarianism Pages: 1 -->
<svg width="2382pt" height="260pt"
 viewBox="0.00 0.00 2382.22 260.00" xmlns="http://www.w3.org/2000/svg" xmlns:xlink="http://www.w3.org/1999/xlink">
<g id="graph0" class="graph" transform="scale(1 1) rotate(0) translate(4 256)">
<title>pastafarianism</title>
<polygon fill="white" stroke="transparent" points="-4,4 -4,-256 2378.22,-256 2378.22,4 -4,4"/>
<!-- Fallback -->
<g id="node1" class="node">
<title>Fallback</title>
<polygon fill="cyan" stroke="black" points="1042.01,-226.54 1042.01,-241.46 1024.88,-252 1000.65,-252 983.52,-241.46 983.52,-226.54 1000.65,-216 1024.88,-216 1042.01,-226.54"/>
<text text-anchor="middle" x="1012.77" y="-231.8" font-family="Times,serif" font-size="9.00">Fallback</text>
</g>
<!-- Sequence -->
<g id="node2" class="node">
<title>Sequence</title>
<polygon fill="cyan" stroke="black" points="172.26,-154.54 172.26,-169.46 153.81,-180 127.72,-180 109.27,-169.46 109.27,-154.54 127.72,-144 153.81,-144 172.26,-154.54"/>
<text text-anchor="middle" x="140.77" y="-159.8" font-family="Times,serif" font-size="9.00">Sequence</text>
</g>
<!-- Fallback&#45;&gt;Sequence -->
<g id="edge1" class="edge">
<title>Fallback&#45;&gt;Sequence</title>
<path fill="none" stroke="black" d="M983.5,-230.65C854.21,-220.27 333.92,-178.51 182.38,-166.34"/>
<polygon fill="black" stroke="black" points="182.36,-162.83 172.11,-165.52 181.8,-169.81 182.36,-162.83"/>
</g>
<!-- LkGraph? -->
<g id="node5" class="node">
<title>LkGraph?</title>
<ellipse fill="gray" stroke="black" cx="808.77" cy="-162" rx="30.7" ry="18"/>
<text text-anchor="middle" x="808.77" y="-159.8" font-family="Times,serif" font-size="9.00">LkGraph?</text>
</g>
<!-- Fallback&#45;&gt;LkGraph? -->
<g id="edge4" class="edge">
<title>Fallback&#45;&gt;LkGraph?</title>
<path fill="none" stroke="black" d="M985.81,-225.1C953.11,-215.32 896.42,-197.79 848.77,-180 846.56,-179.18 844.29,-178.3 842.02,-177.4"/>
<polygon fill="black" stroke="black" points="843.32,-174.15 832.74,-173.6 840.67,-180.63 843.32,-174.15"/>
</g>
<!-- ReachGoal? -->
<g id="node6" class="node">
<title>ReachGoal?</title>
<ellipse fill="gray" stroke="black" cx="891.77" cy="-162" rx="34.13" ry="18"/>
<text text-anchor="middle" x="891.77" y="-159.8" font-family="Times,serif" font-size="9.00">ReachGoal?</text>
</g>
<!-- Fallback&#45;&gt;ReachGoal? -->
<g id="edge5" class="edge">
<title>Fallback&#45;&gt;ReachGoal?</title>
<path fill="none" stroke="black" d="M992.24,-221.13C973.24,-210.14 944.73,-193.64 922.92,-181.02"/>
<polygon fill="black" stroke="black" points="924.44,-177.86 914.04,-175.88 920.94,-183.92 924.44,-177.86"/>
</g>
<!-- LkClose? -->
<g id="node7" class="node">
<title>LkClose?</title>
<ellipse fill="gray" stroke="black" cx="972.77" cy="-162" rx="28.74" ry="18"/>
<text text-anchor="middle" x="972.77" y="-159.8" font-family="Times,serif" font-size="9.00">LkClose?</text>
</g>
<!-- Fallback&#45;&gt;LkClose? -->
<g id="edge6" class="edge">
<title>Fallback&#45;&gt;LkClose?</title>
<path fill="none" stroke="black" d="M1002.88,-215.7C998.09,-207.32 992.25,-197.1 986.99,-187.9"/>
<polygon fill="black" stroke="black" points="989.99,-186.09 981.99,-179.14 983.91,-189.56 989.99,-186.09"/>
</g>
<!-- LkGraph?* -->
<g id="node8" class="node">
<title>LkGraph?*</title>
<ellipse fill="gray" stroke="black" cx="1052.77" cy="-162" rx="32.82" ry="18"/>
<text text-anchor="middle" x="1052.77" y="-159.8" font-family="Times,serif" font-size="9.00">LkGraph?*</text>
</g>
<!-- Fallback&#45;&gt;LkGraph?* -->
<g id="edge7" class="edge">
<title>Fallback&#45;&gt;LkGraph?*</title>
<path fill="none" stroke="black" d="M1022.65,-215.7C1027.32,-207.52 1032.99,-197.6 1038.15,-188.58"/>
<polygon fill="black" stroke="black" points="1041.34,-190.04 1043.27,-179.62 1035.27,-186.57 1041.34,-190.04"/>
</g>
<!-- Sequence* -->
<g id="node9" class="node">
<title>Sequence*</title>
<polygon fill="cyan" stroke="black" points="1172.01,-154.54 1172.01,-169.46 1151.95,-180 1123.58,-180 1103.52,-169.46 1103.52,-154.54 1123.58,-144 1151.95,-144 1172.01,-154.54"/>
<text text-anchor="middle" x="1137.77" y="-159.8" font-family="Times,serif" font-size="9.00">Sequence*</text>
</g>
<!-- Fallback&#45;&gt;Sequence* -->
<g id="edge8" class="edge">
<title>Fallback&#45;&gt;Sequence*</title>
<path fill="none" stroke="black" d="M1033.69,-221.28C1053.48,-210.2 1083.45,-193.42 1106.16,-180.7"/>
<polygon fill="black" stroke="black" points="1108.07,-183.64 1115.08,-175.7 1104.65,-177.54 1108.07,-183.64"/>
</g>
<!-- Sequence** -->
<g id="node35" class="node">
<title>Sequence**</title>
<polygon fill="cyan" stroke="black" points="2138.51,-154.54 2138.51,-169.46 2116.98,-180 2086.55,-180 2065.02,-169.46 2065.02,-154.54 2086.55,-144 2116.98,-144 2138.51,-154.54"/>
<text text-anchor="middle" x="2101.77" y="-159.8" font-family="Times,serif" font-size="9.00">Sequence**</text>
</g>
<!-- Fallback&#45;&gt;Sequence** -->
<g id="edge34" class="edge">
<title>Fallback&#45;&gt;Sequence**</title>
<path fill="none" stroke="black" d="M1042.18,-231.11C1191.82,-221.49 1868.87,-177.97 2054.54,-166.04"/>
<polygon fill="black" stroke="black" points="2055.04,-169.51 2064.79,-165.38 2054.59,-162.53 2055.04,-169.51"/>
</g>
<!-- MoveTo!********* -->
<g id="node40" class="node">
<title>MoveTo!*********</title>
<ellipse fill="gray" stroke="black" cx="2208.77" cy="-162" rx="52.58" ry="18"/>
<text text-anchor="middle" x="2208.77" y="-159.8" font-family="Times,serif" font-size="9.00">MoveTo!*********</text>
</g>
<!-- Fallback&#45;&gt;MoveTo!********* -->
<g id="edge39" class="edge">
<title>Fallback&#45;&gt;MoveTo!*********</title>
<path fill="none" stroke="black" d="M1042.05,-232.53C1197.3,-229.87 1925.49,-215.7 2147.77,-180 2152.28,-179.27 2156.95,-178.34 2161.58,-177.27"/>
<polygon fill="black" stroke="black" points="2162.78,-180.58 2171.64,-174.78 2161.09,-173.79 2162.78,-180.58"/>
</g>
<!-- NotReadyForSG? -->
<g id="node3" class="node">
<title>NotReadyForSG?</title>
<ellipse fill="gray" stroke="black" cx="46.77" cy="-90" rx="46.53" ry="18"/>
<text text-anchor="middle" x="46.77" y="-87.8" font-family="Times,serif" font-size="9.00">NotReadyForSG?</text>
</g>
<!-- Sequence&#45;&gt;NotReadyForSG? -->
<g id="edge2" class="edge">
<title>Sequence&#45;&gt;NotReadyForSG?</title>
<path fill="none" stroke="black" d="M121.74,-146.83C108.56,-137.02 90.76,-123.76 75.81,-112.63"/>
<polygon fill="black" stroke="black" points="77.5,-109.52 67.39,-106.36 73.32,-115.14 77.5,-109.52"/>
</g>
<!-- MoveTo! -->
<g id="node4" class="node">
<title>MoveTo!</title>
<ellipse fill="gray" stroke="black" cx="140.77" cy="-90" rx="28.74" ry="18"/>
<text text-anchor="middle" x="140.77" y="-87.8" font-family="Times,serif" font-size="9.00">MoveTo!</text>
</g>
<!-- Sequence&#45;&gt;MoveTo! -->
<g id="edge3" class="edge">
<title>Sequence&#45;&gt;MoveTo!</title>
<path fill="none" stroke="black" d="M140.77,-143.7C140.77,-135.98 140.77,-126.71 140.77,-118.11"/>
<polygon fill="black" stroke="black" points="144.27,-118.1 140.77,-108.1 137.27,-118.1 144.27,-118.1"/>
</g>
<!-- GetSubGoal! -->
<g id="node10" class="node">
<title>GetSubGoal!</title>
<ellipse fill="gray" stroke="black" cx="224.77" cy="-90" rx="36.9" ry="18"/>
<text text-anchor="middle" x="224.77" y="-87.8" font-family="Times,serif" font-size="9.00">GetSubGoal!</text>
</g>
<!-- Sequence*&#45;&gt;GetSubGoal! -->
<g id="edge9" class="edge">
<title>Sequence*&#45;&gt;GetSubGoal!</title>
<path fill="none" stroke="black" d="M1112.73,-149.49C1106.95,-147.29 1100.73,-145.27 1094.77,-144 736.25,-67.56 630.11,-180.41 270.77,-108 267.59,-107.36 264.35,-106.54 261.13,-105.6"/>
<polygon fill="black" stroke="black" points="262.19,-102.26 251.6,-102.5 260.03,-108.92 262.19,-102.26"/>
</g>
<!-- MoveTo!* -->
<g id="node11" class="node">
<title>MoveTo!*</title>
<ellipse fill="gray" stroke="black" cx="311.77" cy="-90" rx="31.51" ry="18"/>
<text text-anchor="middle" x="311.77" y="-87.8" font-family="Times,serif" font-size="9.00">MoveTo!*</text>
</g>
<!-- Sequence*&#45;&gt;MoveTo!* -->
<g id="edge10" class="edge">
<title>Sequence*&#45;&gt;MoveTo!*</title>
<path fill="none" stroke="black" d="M1112.73,-149.51C1106.94,-147.31 1100.73,-145.29 1094.77,-144 772.03,-74.37 674.92,-180.3 352.77,-108 350.11,-107.4 347.4,-106.65 344.71,-105.79"/>
<polygon fill="black" stroke="black" points="345.75,-102.44 335.16,-102.32 343.36,-109.02 345.75,-102.44"/>
</g>
<!-- Fallback* -->
<g id="node12" class="node">
<title>Fallback*</title>
<polygon fill="cyan" stroke="black" points="425.51,-82.54 425.51,-97.46 406.91,-108 380.62,-108 362.02,-97.46 362.02,-82.54 380.62,-72 406.91,-72 425.51,-82.54"/>
<text text-anchor="middle" x="393.77" y="-87.8" font-family="Times,serif" font-size="9.00">Fallback*</text>
</g>
<!-- Sequence*&#45;&gt;Fallback* -->
<g id="edge11" class="edge">
<title>Sequence*&#45;&gt;Fallback*</title>
<path fill="none" stroke="black" d="M1112.72,-149.54C1106.94,-147.33 1100.73,-145.3 1094.77,-144 807.79,-81.18 721.21,-173.19 434.77,-108 432.11,-107.4 429.41,-106.63 426.72,-105.77"/>
<polygon fill="black" stroke="black" points="427.76,-102.43 417.17,-102.29 425.37,-109 427.76,-102.43"/>
</g>
<!-- MoveTo!**** -->
<g id="node16" class="node">
<title>MoveTo!****</title>
<ellipse fill="gray" stroke="black" cx="482.77" cy="-90" rx="39.02" ry="18"/>
<text text-anchor="middle" x="482.77" y="-87.8" font-family="Times,serif" font-size="9.00">MoveTo!****</text>
</g>
<!-- Sequence*&#45;&gt;MoveTo!**** -->
<g id="edge15" class="edge">
<title>Sequence*&#45;&gt;MoveTo!****</title>
<path fill="none" stroke="black" d="M1112.71,-149.58C1106.93,-147.37 1100.72,-145.33 1094.77,-144 849.65,-89.16 776.83,-158.41 530.77,-108 527.52,-107.33 524.19,-106.5 520.88,-105.56"/>
<polygon fill="black" stroke="black" points="521.67,-102.14 511.08,-102.48 519.57,-108.82 521.67,-102.14"/>
</g>
<!-- NotReadyForSG?* -->
<g id="node17" class="node">
<title>NotReadyForSG?*</title>
<ellipse fill="gray" stroke="black" cx="589.77" cy="-90" rx="49.8" ry="18"/>
<text text-anchor="middle" x="589.77" y="-87.8" font-family="Times,serif" font-size="9.00">NotReadyForSG?*</text>
</g>
<!-- Sequence*&#45;&gt;NotReadyForSG?* -->
<g id="edge16" class="edge">
<title>Sequence*&#45;&gt;NotReadyForSG?*</title>
<path fill="none" stroke="black" d="M1112.7,-149.66C1106.91,-147.44 1100.71,-145.38 1094.77,-144 901.07,-98.95 844.4,-143.71 648.77,-108 644.4,-107.2 639.89,-106.22 635.41,-105.12"/>
<polygon fill="black" stroke="black" points="636.25,-101.72 625.69,-102.59 634.48,-108.5 636.25,-101.72"/>
</g>
<!-- LkGraph?*** -->
<g id="node18" class="node">
<title>LkGraph?***</title>
<ellipse fill="gray" stroke="black" cx="695.77" cy="-90" rx="38.21" ry="18"/>
<text text-anchor="middle" x="695.77" y="-87.8" font-family="Times,serif" font-size="9.00">LkGraph?***</text>
</g>
<!-- Sequence*&#45;&gt;LkGraph?*** -->
<g id="edge17" class="edge">
<title>Sequence*&#45;&gt;LkGraph?***</title>
<path fill="none" stroke="black" d="M1112.22,-149.57C1106.56,-147.42 1100.54,-145.41 1094.77,-144 941.98,-106.74 896.08,-143.01 742.77,-108 739.73,-107.31 736.63,-106.48 733.53,-105.56"/>
<polygon fill="black" stroke="black" points="734.35,-102.14 723.76,-102.39 732.2,-108.8 734.35,-102.14"/>
</g>
<!-- NotReadyForSG?** -->
<g id="node19" class="node">
<title>NotReadyForSG?**</title>
<ellipse fill="gray" stroke="black" cx="803.77" cy="-90" rx="51.92" ry="18"/>
<text text-anchor="middle" x="803.77" y="-87.8" font-family="Times,serif" font-size="9.00">NotReadyForSG?**</text>
</g>
<!-- Sequence*&#45;&gt;NotReadyForSG?** -->
<g id="edge18" class="edge">
<title>Sequence*&#45;&gt;NotReadyForSG?**</title>
<path fill="none" stroke="black" d="M1112.16,-149.81C1106.51,-147.64 1100.5,-145.56 1094.77,-144 994.93,-116.81 965.88,-129.93 864.77,-108 860.6,-107.1 856.29,-106.07 851.98,-104.99"/>
<polygon fill="black" stroke="black" points="852.55,-101.53 841.99,-102.39 850.78,-108.3 852.55,-101.53"/>
</g>
<!-- MoveTo!***** -->
<g id="node20" class="node">
<title>MoveTo!*****</title>
<ellipse fill="gray" stroke="black" cx="915.77" cy="-90" rx="42.29" ry="18"/>
<text text-anchor="middle" x="915.77" y="-87.8" font-family="Times,serif" font-size="9.00">MoveTo!*****</text>
</g>
<!-- Sequence*&#45;&gt;MoveTo!***** -->
<g id="edge19" class="edge">
<title>Sequence*&#45;&gt;MoveTo!*****</title>
<path fill="none" stroke="black" d="M1111.54,-150.14C1106.04,-148 1100.24,-145.85 1094.77,-144 1038.77,-125.11 1023.26,-125.35 966.77,-108 963.64,-107.04 960.42,-106.03 957.18,-104.99"/>
<polygon fill="black" stroke="black" points="958.11,-101.61 947.52,-101.84 955.95,-108.27 958.11,-101.61"/>
</g>
<!-- LkClose?* -->
<g id="node21" class="node">
<title>LkClose?*</title>
<ellipse fill="gray" stroke="black" cx="1007.77" cy="-90" rx="31.51" ry="18"/>
<text text-anchor="middle" x="1007.77" y="-87.8" font-family="Times,serif" font-size="9.00">LkClose?*</text>
</g>
<!-- Sequence*&#45;&gt;LkClose?* -->
<g id="edge20" class="edge">
<title>Sequence*&#45;&gt;LkClose?*</title>
<path fill="none" stroke="black" d="M1114.52,-148.49C1093.47,-137.15 1062.28,-120.35 1039.04,-107.84"/>
<polygon fill="black" stroke="black" points="1040.4,-104.6 1029.94,-102.94 1037.08,-110.76 1040.4,-104.6"/>
</g>
<!-- Fallback** -->
<g id="node22" class="node">
<title>Fallback**</title>
<polygon fill="cyan" stroke="black" points="1127.76,-82.54 1127.76,-97.46 1107.26,-108 1078.27,-108 1057.77,-97.46 1057.77,-82.54 1078.27,-72 1107.26,-72 1127.76,-82.54"/>
<text text-anchor="middle" x="1092.77" y="-87.8" font-family="Times,serif" font-size="9.00">Fallback**</text>
</g>
<!-- Sequence*&#45;&gt;Fallback** -->
<g id="edge21" class="edge">
<title>Sequence*&#45;&gt;Fallback**</title>
<path fill="none" stroke="black" d="M1126.64,-143.7C1121.41,-135.56 1115.07,-125.69 1109.29,-116.7"/>
<polygon fill="black" stroke="black" points="1112.11,-114.62 1103.76,-108.1 1106.22,-118.41 1112.11,-114.62"/>
</g>
<!-- ReachGoal?* -->
<g id="node26" class="node">
<title>ReachGoal?*</title>
<ellipse fill="gray" stroke="black" cx="1182.77" cy="-90" rx="36.9" ry="18"/>
<text text-anchor="middle" x="1182.77" y="-87.8" font-family="Times,serif" font-size="9.00">ReachGoal?*</text>
</g>
<!-- Sequence*&#45;&gt;ReachGoal?* -->
<g id="edge25" class="edge">
<title>Sequence*&#45;&gt;ReachGoal?*</title>
<path fill="none" stroke="black" d="M1148.89,-143.7C1154.2,-135.44 1160.65,-125.39 1166.5,-116.3"/>
<polygon fill="black" stroke="black" points="1169.62,-117.93 1172.08,-107.62 1163.73,-114.14 1169.62,-117.93"/>
</g>
<!-- MoveTo!****** -->
<g id="node27" class="node">
<title>MoveTo!******</title>
<ellipse fill="gray" stroke="black" cx="1281.77" cy="-90" rx="44.41" ry="18"/>
<text text-anchor="middle" x="1281.77" y="-87.8" font-family="Times,serif" font-size="9.00">MoveTo!******</text>
</g>
<!-- Sequence*&#45;&gt;MoveTo!****** -->
<g id="edge26" class="edge">
<title>Sequence*&#45;&gt;MoveTo!******</title>
<path fill="none" stroke="black" d="M1162.19,-149.13C1184.99,-138.04 1219.31,-121.36 1245.34,-108.71"/>
<polygon fill="black" stroke="black" points="1247.05,-111.77 1254.51,-104.25 1243.99,-105.47 1247.05,-111.77"/>
</g>
<!-- GetLk!* -->
<g id="node28" class="node">
<title>GetLk!*</title>
<ellipse fill="gray" stroke="black" cx="1371.77" cy="-90" rx="27.27" ry="18"/>
<text text-anchor="middle" x="1371.77" y="-87.8" font-family="Times,serif" font-size="9.00">GetLk!*</text>
</g>
<!-- Sequence*&#45;&gt;GetLk!* -->
<g id="edge27" class="edge">
<title>Sequence*&#45;&gt;GetLk!*</title>
<path fill="none" stroke="black" d="M1171.05,-153.84C1210.65,-144.92 1278.47,-128.34 1334.77,-108 1336.87,-107.24 1339.02,-106.41 1341.18,-105.53"/>
<polygon fill="black" stroke="black" points="1342.7,-108.68 1350.5,-101.51 1339.93,-102.26 1342.7,-108.68"/>
</g>
<!-- LkClose?*** -->
<g id="node29" class="node">
<title>LkClose?***</title>
<ellipse fill="gray" stroke="black" cx="1453.77" cy="-90" rx="36.9" ry="18"/>
<text text-anchor="middle" x="1453.77" y="-87.8" font-family="Times,serif" font-size="9.00">LkClose?***</text>
</g>
<!-- Sequence*&#45;&gt;LkClose?*** -->
<g id="edge28" class="edge">
<title>Sequence*&#45;&gt;LkClose?***</title>
<path fill="none" stroke="black" d="M1172.28,-156.04C1224.02,-148.2 1324.53,-131.39 1407.77,-108 1410.53,-107.22 1413.37,-106.35 1416.21,-105.43"/>
<polygon fill="black" stroke="black" points="1417.46,-108.71 1425.78,-102.15 1415.19,-102.08 1417.46,-108.71"/>
</g>
<!-- MoveTo!******* -->
<g id="node30" class="node">
<title>MoveTo!*******</title>
<ellipse fill="gray" stroke="black" cx="1555.77" cy="-90" rx="47.19" ry="18"/>
<text text-anchor="middle" x="1555.77" y="-87.8" font-family="Times,serif" font-size="9.00">MoveTo!*******</text>
</g>
<!-- Sequence*&#45;&gt;MoveTo!******* -->
<g id="edge29" class="edge">
<title>Sequence*&#45;&gt;MoveTo!*******</title>
<path fill="none" stroke="black" d="M1172.01,-157.71C1236.63,-151.12 1380.75,-134.62 1499.77,-108 1503.56,-107.15 1507.47,-106.18 1511.38,-105.13"/>
<polygon fill="black" stroke="black" points="1512.35,-108.5 1521.03,-102.42 1510.45,-101.76 1512.35,-108.5"/>
</g>
<!-- GetLk!** -->
<g id="node31" class="node">
<title>GetLk!**</title>
<ellipse fill="gray" stroke="black" cx="1650.77" cy="-90" rx="29.39" ry="18"/>
<text text-anchor="middle" x="1650.77" y="-87.8" font-family="Times,serif" font-size="9.00">GetLk!**</text>
</g>
<!-- Sequence*&#45;&gt;GetLk!** -->
<g id="edge30" class="edge">
<title>Sequence*&#45;&gt;GetLk!**</title>
<path fill="none" stroke="black" d="M1172.03,-160.66C1250.97,-159.12 1451.17,-150.93 1611.77,-108 1614.2,-107.35 1616.68,-106.57 1619.15,-105.71"/>
<polygon fill="black" stroke="black" points="1620.44,-108.96 1628.49,-102.07 1617.9,-102.44 1620.44,-108.96"/>
</g>
<!-- MoveTo!******** -->
<g id="node32" class="node">
<title>MoveTo!********</title>
<ellipse fill="gray" stroke="black" cx="1747.77" cy="-90" rx="49.8" ry="18"/>
<text text-anchor="middle" x="1747.77" y="-87.8" font-family="Times,serif" font-size="9.00">MoveTo!********</text>
</g>
<!-- Sequence*&#45;&gt;MoveTo!******** -->
<g id="edge31" class="edge">
<title>Sequence*&#45;&gt;MoveTo!********</title>
<path fill="none" stroke="black" d="M1172.25,-159.89C1259.48,-156.62 1495.71,-144.77 1688.77,-108 1693.12,-107.17 1697.63,-106.16 1702.11,-105.05"/>
<polygon fill="black" stroke="black" points="1703.04,-108.42 1711.83,-102.5 1701.26,-101.65 1703.04,-108.42"/>
</g>
<!-- GetSubGoal!** -->
<g id="node33" class="node">
<title>GetSubGoal!**</title>
<ellipse fill="gray" stroke="black" cx="1857.77" cy="-90" rx="42.29" ry="18"/>
<text text-anchor="middle" x="1857.77" y="-87.8" font-family="Times,serif" font-size="9.00">GetSubGoal!**</text>
</g>
<!-- Sequence*&#45;&gt;GetSubGoal!** -->
<g id="edge32" class="edge">
<title>Sequence*&#45;&gt;GetSubGoal!**</title>
<path fill="none" stroke="black" d="M1172.29,-161.2C1271.83,-161.15 1567.56,-156.59 1806.77,-108 1810.36,-107.27 1814.06,-106.36 1817.73,-105.35"/>
<polygon fill="black" stroke="black" points="1818.77,-108.69 1827.35,-102.48 1816.77,-101.99 1818.77,-108.69"/>
</g>
<!-- LkClose?**** -->
<g id="node34" class="node">
<title>LkClose?****</title>
<ellipse fill="gray" stroke="black" cx="1956.77" cy="-90" rx="39.02" ry="18"/>
<text text-anchor="middle" x="1956.77" y="-87.8" font-family="Times,serif" font-size="9.00">LkClose?****</text>
</g>
<!-- Sequence*&#45;&gt;LkClose?**** -->
<g id="edge33" class="edge">
<title>Sequence*&#45;&gt;LkClose?****</title>
<path fill="none" stroke="black" d="M1172.41,-159.87C1302.94,-155.41 1764.91,-137.84 1908.77,-108 1911.97,-107.34 1915.25,-106.51 1918.52,-105.58"/>
<polygon fill="black" stroke="black" points="1919.7,-108.88 1928.19,-102.55 1917.6,-102.2 1919.7,-108.88"/>
</g>
<!-- LkGraph?** -->
<g id="node13" class="node">
<title>LkGraph?**</title>
<ellipse fill="gray" stroke="black" cx="305.77" cy="-18" rx="35.59" ry="18"/>
<text text-anchor="middle" x="305.77" y="-15.8" font-family="Times,serif" font-size="9.00">LkGraph?**</text>
</g>
<!-- Fallback*&#45;&gt;LkGraph?** -->
<g id="edge12" class="edge">
<title>Fallback*&#45;&gt;LkGraph?**</title>
<path fill="none" stroke="black" d="M375.53,-74.5C362.99,-64.52 346.14,-51.11 332.14,-39.98"/>
<polygon fill="black" stroke="black" points="334.28,-37.21 324.28,-33.73 329.93,-42.69 334.28,-37.21"/>
</g>
<!-- MoveTo!** -->
<g id="node14" class="node">
<title>MoveTo!**</title>
<ellipse fill="gray" stroke="black" cx="393.77" cy="-18" rx="34.13" ry="18"/>
<text text-anchor="middle" x="393.77" y="-15.8" font-family="Times,serif" font-size="9.00">MoveTo!**</text>
</g>
<!-- Fallback*&#45;&gt;MoveTo!** -->
<g id="edge13" class="edge">
<title>Fallback*&#45;&gt;MoveTo!**</title>
<path fill="none" stroke="black" d="M393.77,-71.7C393.77,-63.98 393.77,-54.71 393.77,-46.11"/>
<polygon fill="black" stroke="black" points="397.27,-46.1 393.77,-36.1 390.27,-46.1 397.27,-46.1"/>
</g>
<!-- MoveTo!*** -->
<g id="node15" class="node">
<title>MoveTo!***</title>
<ellipse fill="gray" stroke="black" cx="482.77" cy="-18" rx="36.9" ry="18"/>
<text text-anchor="middle" x="482.77" y="-15.8" font-family="Times,serif" font-size="9.00">MoveTo!***</text>
</g>
<!-- Fallback*&#45;&gt;MoveTo!*** -->
<g id="edge14" class="edge">
<title>Fallback*&#45;&gt;MoveTo!***</title>
<path fill="none" stroke="black" d="M412.21,-74.5C424.89,-64.52 441.93,-51.11 456.09,-39.98"/>
<polygon fill="black" stroke="black" points="458.35,-42.66 464.04,-33.73 454.02,-37.16 458.35,-42.66"/>
</g>
<!-- GetSubGoal!* -->
<g id="node23" class="node">
<title>GetSubGoal!*</title>
<ellipse fill="gray" stroke="black" cx="1008.77" cy="-18" rx="39.02" ry="18"/>
<text text-anchor="middle" x="1008.77" y="-15.8" font-family="Times,serif" font-size="9.00">GetSubGoal!*</text>
</g>
<!-- Fallback**&#45;&gt;GetSubGoal!* -->
<g id="edge22" class="edge">
<title>Fallback**&#45;&gt;GetSubGoal!*</title>
<path fill="none" stroke="black" d="M1074.54,-73.81C1062.98,-64.18 1047.84,-51.56 1035,-40.86"/>
<polygon fill="black" stroke="black" points="1036.88,-37.87 1026.96,-34.16 1032.4,-43.25 1036.88,-37.87"/>
</g>
<!-- GetLk! -->
<g id="node24" class="node">
<title>GetLk!</title>
<ellipse fill="gray" stroke="black" cx="1092.77" cy="-18" rx="27" ry="18"/>
<text text-anchor="middle" x="1092.77" y="-15.8" font-family="Times,serif" font-size="9.00">GetLk!</text>
</g>
<!-- Fallback**&#45;&gt;GetLk! -->
<g id="edge23" class="edge">
<title>Fallback**&#45;&gt;GetLk!</title>
<path fill="none" stroke="black" d="M1092.77,-71.7C1092.77,-63.98 1092.77,-54.71 1092.77,-46.11"/>
<polygon fill="black" stroke="black" points="1096.27,-46.1 1092.77,-36.1 1089.27,-46.1 1096.27,-46.1"/>
</g>
<!-- LkClose?** -->
<g id="node25" class="node">
<title>LkClose?**</title>
<ellipse fill="gray" stroke="black" cx="1171.77" cy="-18" rx="34.13" ry="18"/>
<text text-anchor="middle" x="1171.77" y="-15.8" font-family="Times,serif" font-size="9.00">LkClose?**</text>
</g>
<!-- Fallback**&#45;&gt;LkClose?** -->
<g id="edge24" class="edge">
<title>Fallback**&#45;&gt;LkClose?**</title>
<path fill="none" stroke="black" d="M1110.3,-73.46C1121.26,-63.75 1135.53,-51.1 1147.57,-40.44"/>
<polygon fill="black" stroke="black" points="1149.93,-43.02 1155.09,-33.77 1145.29,-37.79 1149.93,-43.02"/>
</g>
<!-- LkClose?***** -->
<g id="node36" class="node">
<title>LkClose?*****</title>
<ellipse fill="gray" stroke="black" cx="2055.77" cy="-90" rx="42.29" ry="18"/>
<text text-anchor="middle" x="2055.77" y="-87.8" font-family="Times,serif" font-size="9.00">LkClose?*****</text>
</g>
<!-- Sequence**&#45;&gt;LkClose?***** -->
<g id="edge35" class="edge">
<title>Sequence**&#45;&gt;LkClose?*****</title>
<path fill="none" stroke="black" d="M2090.39,-143.7C2084.91,-135.35 2078.23,-125.18 2072.2,-116.02"/>
<polygon fill="black" stroke="black" points="2075.11,-114.06 2066.69,-107.62 2069.26,-117.9 2075.11,-114.06"/>
</g>
<!-- GetLk!*** -->
<g id="node37" class="node">
<title>GetLk!***</title>
<ellipse fill="gray" stroke="black" cx="2147.77" cy="-90" rx="32.16" ry="18"/>
<text text-anchor="middle" x="2147.77" y="-87.8" font-family="Times,serif" font-size="9.00">GetLk!***</text>
</g>
<!-- Sequence**&#45;&gt;GetLk!*** -->
<g id="edge36" class="edge">
<title>Sequence**&#45;&gt;GetLk!***</title>
<path fill="none" stroke="black" d="M2113.14,-143.7C2118.7,-135.23 2125.5,-124.89 2131.59,-115.61"/>
<polygon fill="black" stroke="black" points="2134.59,-117.42 2137.16,-107.14 2128.74,-113.58 2134.59,-117.42"/>
</g>
<!-- GetLk!**** -->
<g id="node38" class="node">
<title>GetLk!****</title>
<ellipse fill="gray" stroke="black" cx="2232.77" cy="-90" rx="34.78" ry="18"/>
<text text-anchor="middle" x="2232.77" y="-87.8" font-family="Times,serif" font-size="9.00">GetLk!****</text>
</g>
<!-- Sequence**&#45;&gt;GetLk!**** -->
<g id="edge37" class="edge">
<title>Sequence**&#45;&gt;GetLk!****</title>
<path fill="none" stroke="black" d="M2125.79,-148.16C2146.7,-136.99 2177.18,-120.7 2200.26,-108.37"/>
<polygon fill="black" stroke="black" points="2202.16,-111.32 2209.33,-103.52 2198.86,-105.15 2202.16,-111.32"/>
</g>
<!-- LkClose?****** -->
<g id="node39" class="node">
<title>LkClose?******</title>
<ellipse fill="gray" stroke="black" cx="2329.77" cy="-90" rx="44.41" ry="18"/>
<text text-anchor="middle" x="2329.77" y="-87.8" font-family="Times,serif" font-size="9.00">LkClose?******</text>
</g>
<!-- Sequence**&#45;&gt;LkClose?****** -->
<g id="edge38" class="edge">
<title>Sequence**&#45;&gt;LkClose?******</title>
<path fill="none" stroke="black" d="M2129.71,-149.99C2135.33,-147.91 2141.21,-145.81 2146.77,-144 2203.76,-125.39 2219.32,-125.16 2276.77,-108 2279.91,-107.06 2283.16,-106.07 2286.42,-105.06"/>
<polygon fill="black" stroke="black" points="2287.69,-108.33 2296.18,-102 2285.59,-101.65 2287.69,-108.33"/>
</g>
</g>
</svg>
