<?xml version="1.0" encoding="UTF-8" standalone="no"?>
<!DOCTYPE svg PUBLIC "-//W3C//DTD SVG 1.1//EN"
 "http://www.w3.org/Graphics/SVG/1.1/DTD/svg11.dtd">
<!-- Generated by graphviz version 2.43.0 (0)
 -->
<!-- Title: pastafarianism Pages: 1 -->
<svg width="1363pt" height="332pt"
 viewBox="0.00 0.00 1363.33 332.00" xmlns="http://www.w3.org/2000/svg" xmlns:xlink="http://www.w3.org/1999/xlink">
<g id="graph0" class="graph" transform="scale(1 1) rotate(0) translate(4 328)">
<title>pastafarianism</title>
<polygon fill="white" stroke="transparent" points="-4,4 -4,-328 1359.33,-328 1359.33,4 -4,4"/>
<!-- Sequence -->
<g id="node1" class="node">
<title>Sequence</title>
<polygon fill="cyan" stroke="black" points="1107.49,-298.54 1107.49,-313.46 1089.05,-324 1062.95,-324 1044.51,-313.46 1044.51,-298.54 1062.95,-288 1089.05,-288 1107.49,-298.54"/>
<text text-anchor="middle" x="1076" y="-303.8" font-family="Times,serif" font-size="9.00">Sequence</text>
</g>
<!-- Fallback -->
<g id="node2" class="node">
<title>Fallback</title>
<polygon fill="cyan" stroke="black" points="289.24,-226.54 289.24,-241.46 272.11,-252 247.89,-252 230.76,-241.46 230.76,-226.54 247.89,-216 272.11,-216 289.24,-226.54"/>
<text text-anchor="middle" x="260" y="-231.8" font-family="Times,serif" font-size="9.00">Fallback</text>
</g>
<!-- Sequence&#45;&gt;Fallback -->
<g id="edge1" class="edge">
<title>Sequence&#45;&gt;Fallback</title>
<path fill="none" stroke="black" d="M1044.51,-302.3C917.34,-291.39 441.68,-250.59 300.04,-238.43"/>
<polygon fill="black" stroke="black" points="299.92,-234.91 289.66,-237.54 299.33,-241.89 299.92,-234.91"/>
</g>
<!-- Fallback* -->
<g id="node7" class="node">
<title>Fallback*</title>
<polygon fill="cyan" stroke="black" points="833.74,-226.54 833.74,-241.46 815.15,-252 788.85,-252 770.26,-241.46 770.26,-226.54 788.85,-216 815.15,-216 833.74,-226.54"/>
<text text-anchor="middle" x="802" y="-231.8" font-family="Times,serif" font-size="9.00">Fallback*</text>
</g>
<!-- Sequence&#45;&gt;Fallback* -->
<g id="edge6" class="edge">
<title>Sequence&#45;&gt;Fallback*</title>
<path fill="none" stroke="black" d="M1046.42,-297.44C996.91,-284.8 897.27,-259.34 841.71,-245.15"/>
<polygon fill="black" stroke="black" points="842.43,-241.72 831.88,-242.63 840.7,-248.5 842.43,-241.72"/>
</g>
<!-- Fallback*** -->
<g id="node20" class="node">
<title>Fallback***</title>
<polygon fill="cyan" stroke="black" points="1113.49,-226.54 1113.49,-241.46 1091.53,-252 1060.47,-252 1038.51,-241.46 1038.51,-226.54 1060.47,-216 1091.53,-216 1113.49,-226.54"/>
<text text-anchor="middle" x="1076" y="-231.8" font-family="Times,serif" font-size="9.00">Fallback***</text>
</g>
<!-- Sequence&#45;&gt;Fallback*** -->
<g id="edge19" class="edge">
<title>Sequence&#45;&gt;Fallback***</title>
<path fill="none" stroke="black" d="M1076,-287.7C1076,-279.98 1076,-270.71 1076,-262.11"/>
<polygon fill="black" stroke="black" points="1079.5,-262.1 1076,-252.1 1072.5,-262.1 1079.5,-262.1"/>
</g>
<!-- apply force 1! -->
<g id="node25" class="node">
<title>apply force 1!</title>
<ellipse fill="gray" stroke="black" cx="1170" cy="-234" rx="38.21" ry="18"/>
<text text-anchor="middle" x="1170" y="-231.8" font-family="Times,serif" font-size="9.00">apply force 1!</text>
</g>
<!-- Sequence&#45;&gt;apply force 1! -->
<g id="edge24" class="edge">
<title>Sequence&#45;&gt;apply force 1!</title>
<path fill="none" stroke="black" d="M1095.02,-290.83C1108.6,-280.72 1127.08,-266.96 1142.29,-255.63"/>
<polygon fill="black" stroke="black" points="1144.43,-258.41 1150.36,-249.63 1140.25,-252.79 1144.43,-258.41"/>
</g>
<!-- pick 3!* -->
<g id="node26" class="node">
<title>pick 3!*</title>
<ellipse fill="gray" stroke="black" cx="1253" cy="-234" rx="27" ry="18"/>
<text text-anchor="middle" x="1253" y="-231.8" font-family="Times,serif" font-size="9.00">pick 3!*</text>
</g>
<!-- Sequence&#45;&gt;pick 3!* -->
<g id="edge25" class="edge">
<title>Sequence&#45;&gt;pick 3!*</title>
<path fill="none" stroke="black" d="M1102.76,-295.68C1131.32,-285.56 1177.74,-268.61 1217,-252 1218.81,-251.23 1220.67,-250.42 1222.54,-249.6"/>
<polygon fill="black" stroke="black" points="1224.17,-252.7 1231.81,-245.36 1221.26,-246.33 1224.17,-252.7"/>
</g>
<!-- 0 on 2? -->
<g id="node3" class="node">
<title>0 on 2?</title>
<ellipse fill="gray" stroke="black" cx="27" cy="-162" rx="27" ry="18"/>
<text text-anchor="middle" x="27" y="-159.8" font-family="Times,serif" font-size="9.00">0 on 2?</text>
</g>
<!-- Fallback&#45;&gt;0 on 2? -->
<g id="edge2" class="edge">
<title>Fallback&#45;&gt;0 on 2?</title>
<path fill="none" stroke="black" d="M230.45,-226.78C191.47,-218.19 121.01,-201.31 63,-180 61.15,-179.32 59.27,-178.58 57.38,-177.81"/>
<polygon fill="black" stroke="black" points="58.62,-174.53 48.05,-173.71 55.8,-180.93 58.62,-174.53"/>
</g>
<!-- 0 at pos (0.0, 0.0, 0.0)? -->
<g id="node4" class="node">
<title>0 at pos (0.0, 0.0, 0.0)?</title>
<ellipse fill="gray" stroke="black" cx="129" cy="-162" rx="57.32" ry="18"/>
<text text-anchor="middle" x="129" y="-159.8" font-family="Times,serif" font-size="9.00">0 at pos (0.0, 0.0, 0.0)?</text>
</g>
<!-- Fallback&#45;&gt;0 at pos (0.0, 0.0, 0.0)? -->
<g id="edge3" class="edge">
<title>Fallback&#45;&gt;0 at pos (0.0, 0.0, 0.0)?</title>
<path fill="none" stroke="black" d="M238.66,-221.6C218.95,-211.06 189.24,-195.19 165.72,-182.62"/>
<polygon fill="black" stroke="black" points="167.19,-179.44 156.72,-177.81 163.89,-185.61 167.19,-179.44"/>
</g>
<!-- place at (0.0, 0.0, 0.0)! -->
<g id="node5" class="node">
<title>place at (0.0, 0.0, 0.0)!</title>
<ellipse fill="gray" stroke="black" cx="260" cy="-162" rx="56.01" ry="18"/>
<text text-anchor="middle" x="260" y="-159.8" font-family="Times,serif" font-size="9.00">place at (0.0, 0.0, 0.0)!</text>
</g>
<!-- Fallback&#45;&gt;place at (0.0, 0.0, 0.0)! -->
<g id="edge4" class="edge">
<title>Fallback&#45;&gt;place at (0.0, 0.0, 0.0)!</title>
<path fill="none" stroke="black" d="M260,-215.7C260,-207.98 260,-198.71 260,-190.11"/>
<polygon fill="black" stroke="black" points="263.5,-190.1 260,-180.1 256.5,-190.1 263.5,-190.1"/>
</g>
<!-- pick 0! -->
<g id="node6" class="node">
<title>pick 0!</title>
<ellipse fill="gray" stroke="black" cx="361" cy="-162" rx="27" ry="18"/>
<text text-anchor="middle" x="361" y="-159.8" font-family="Times,serif" font-size="9.00">pick 0!</text>
</g>
<!-- Fallback&#45;&gt;pick 0! -->
<g id="edge5" class="edge">
<title>Fallback&#45;&gt;pick 0!</title>
<path fill="none" stroke="black" d="M279,-219.83C294.57,-209.04 316.79,-193.64 334.18,-181.59"/>
<polygon fill="black" stroke="black" points="336.54,-184.21 342.77,-175.64 332.56,-178.46 336.54,-184.21"/>
</g>
<!-- 1 on 2? -->
<g id="node8" class="node">
<title>1 on 2?</title>
<ellipse fill="gray" stroke="black" cx="433" cy="-162" rx="27" ry="18"/>
<text text-anchor="middle" x="433" y="-159.8" font-family="Times,serif" font-size="9.00">1 on 2?</text>
</g>
<!-- Fallback*&#45;&gt;1 on 2? -->
<g id="edge7" class="edge">
<title>Fallback*&#45;&gt;1 on 2?</title>
<path fill="none" stroke="black" d="M770.11,-230.94C710.01,-226.39 576.39,-213.16 469,-180 467.07,-179.4 465.11,-178.72 463.15,-177.98"/>
<polygon fill="black" stroke="black" points="464.11,-174.59 453.54,-173.92 461.39,-181.04 464.11,-174.59"/>
</g>
<!-- pick 1! -->
<g id="node9" class="node">
<title>pick 1!</title>
<ellipse fill="gray" stroke="black" cx="505" cy="-162" rx="27" ry="18"/>
<text text-anchor="middle" x="505" y="-159.8" font-family="Times,serif" font-size="9.00">pick 1!</text>
</g>
<!-- Fallback*&#45;&gt;pick 1! -->
<g id="edge8" class="edge">
<title>Fallback*&#45;&gt;pick 1!</title>
<path fill="none" stroke="black" d="M770.02,-229.04C720.17,-222.3 621.3,-206.68 541,-180 539.08,-179.36 537.13,-178.65 535.18,-177.88"/>
<polygon fill="black" stroke="black" points="536.16,-174.5 525.59,-173.76 533.4,-180.93 536.16,-174.5"/>
</g>
<!-- 2 at pos (0.016, &#45;0.032, 0.0)? -->
<g id="node10" class="node">
<title>2 at pos (0.016, &#45;0.032, 0.0)?</title>
<ellipse fill="gray" stroke="black" cx="619" cy="-162" rx="69.06" ry="18"/>
<text text-anchor="middle" x="619" y="-159.8" font-family="Times,serif" font-size="9.00">2 at pos (0.016, &#45;0.032, 0.0)?</text>
</g>
<!-- Fallback*&#45;&gt;2 at pos (0.016, &#45;0.032, 0.0)? -->
<g id="edge9" class="edge">
<title>Fallback*&#45;&gt;2 at pos (0.016, &#45;0.032, 0.0)?</title>
<path fill="none" stroke="black" d="M776.17,-223.12C747.62,-212.2 701.05,-194.38 665.99,-180.98"/>
<polygon fill="black" stroke="black" points="667.03,-177.62 656.44,-177.32 664.53,-184.16 667.03,-177.62"/>
</g>
<!-- Sequence* -->
<g id="node11" class="node">
<title>Sequence*</title>
<polygon fill="cyan" stroke="black" points="775.24,-154.54 775.24,-169.46 755.18,-180 726.82,-180 706.76,-169.46 706.76,-154.54 726.82,-144 755.18,-144 775.24,-154.54"/>
<text text-anchor="middle" x="741" y="-159.8" font-family="Times,serif" font-size="9.00">Sequence*</text>
</g>
<!-- Fallback*&#45;&gt;Sequence* -->
<g id="edge10" class="edge">
<title>Fallback*&#45;&gt;Sequence*</title>
<path fill="none" stroke="black" d="M787.54,-216.41C780.06,-207.82 770.77,-197.16 762.46,-187.63"/>
<polygon fill="black" stroke="black" points="764.98,-185.2 755.78,-179.96 759.71,-189.79 764.98,-185.2"/>
</g>
<!-- 3 at pos (0.016, 0.032, 0.0)?* -->
<g id="node17" class="node">
<title>3 at pos (0.016, 0.032, 0.0)?*</title>
<ellipse fill="gray" stroke="black" cx="864" cy="-162" rx="70.37" ry="18"/>
<text text-anchor="middle" x="864" y="-159.8" font-family="Times,serif" font-size="9.00">3 at pos (0.016, 0.032, 0.0)?*</text>
</g>
<!-- Fallback*&#45;&gt;3 at pos (0.016, 0.032, 0.0)?* -->
<g id="edge16" class="edge">
<title>Fallback*&#45;&gt;3 at pos (0.016, 0.032, 0.0)?*</title>
<path fill="none" stroke="black" d="M816.69,-216.41C824.3,-207.82 833.74,-197.16 842.19,-187.63"/>
<polygon fill="black" stroke="black" points="844.97,-189.76 848.98,-179.96 839.73,-185.12 844.97,-189.76"/>
</g>
<!-- place at (0.016, 0.032, 0.0)! -->
<g id="node18" class="node">
<title>place at (0.016, 0.032, 0.0)!</title>
<ellipse fill="gray" stroke="black" cx="1019" cy="-162" rx="66.29" ry="18"/>
<text text-anchor="middle" x="1019" y="-159.8" font-family="Times,serif" font-size="9.00">place at (0.016, 0.032, 0.0)!</text>
</g>
<!-- Fallback*&#45;&gt;place at (0.016, 0.032, 0.0)! -->
<g id="edge17" class="edge">
<title>Fallback*&#45;&gt;place at (0.016, 0.032, 0.0)!</title>
<path fill="none" stroke="black" d="M829.92,-223.99C864.76,-212.76 924.97,-193.33 968.1,-179.42"/>
<polygon fill="black" stroke="black" points="969.4,-182.68 977.84,-176.28 967.25,-176.02 969.4,-182.68"/>
</g>
<!-- pick 1!* -->
<g id="node19" class="node">
<title>pick 1!*</title>
<ellipse fill="gray" stroke="black" cx="1130" cy="-162" rx="27" ry="18"/>
<text text-anchor="middle" x="1130" y="-159.8" font-family="Times,serif" font-size="9.00">pick 1!*</text>
</g>
<!-- Fallback*&#45;&gt;pick 1!* -->
<g id="edge18" class="edge">
<title>Fallback*&#45;&gt;pick 1!*</title>
<path fill="none" stroke="black" d="M833.77,-229.98C888.13,-224.22 1002.01,-209.5 1094,-180 1095.93,-179.38 1097.88,-178.68 1099.83,-177.93"/>
<polygon fill="black" stroke="black" points="1101.61,-180.98 1109.44,-173.84 1098.86,-174.54 1101.61,-180.98"/>
</g>
<!-- Fallback** -->
<g id="node12" class="node">
<title>Fallback**</title>
<polygon fill="cyan" stroke="black" points="695.99,-82.54 695.99,-97.46 675.49,-108 646.51,-108 626.01,-97.46 626.01,-82.54 646.51,-72 675.49,-72 695.99,-82.54"/>
<text text-anchor="middle" x="661" y="-87.8" font-family="Times,serif" font-size="9.00">Fallback**</text>
</g>
<!-- Sequence*&#45;&gt;Fallback** -->
<g id="edge11" class="edge">
<title>Sequence*&#45;&gt;Fallback**</title>
<path fill="none" stroke="black" d="M723.25,-145.46C712.37,-135.95 698.28,-123.62 686.25,-113.1"/>
<polygon fill="black" stroke="black" points="688.54,-110.44 678.7,-106.49 683.93,-115.71 688.54,-110.44"/>
</g>
<!-- pick 2! -->
<g id="node15" class="node">
<title>pick 2!</title>
<ellipse fill="gray" stroke="black" cx="741" cy="-90" rx="27" ry="18"/>
<text text-anchor="middle" x="741" y="-87.8" font-family="Times,serif" font-size="9.00">pick 2!</text>
</g>
<!-- Sequence*&#45;&gt;pick 2! -->
<g id="edge14" class="edge">
<title>Sequence*&#45;&gt;pick 2!</title>
<path fill="none" stroke="black" d="M741,-143.7C741,-135.98 741,-126.71 741,-118.11"/>
<polygon fill="black" stroke="black" points="744.5,-118.1 741,-108.1 737.5,-118.1 744.5,-118.1"/>
</g>
<!-- place at (0.016, &#45;0.032, 0.0)! -->
<g id="node16" class="node">
<title>place at (0.016, &#45;0.032, 0.0)!</title>
<ellipse fill="gray" stroke="black" cx="854" cy="-90" rx="68.25" ry="18"/>
<text text-anchor="middle" x="854" y="-87.8" font-family="Times,serif" font-size="9.00">place at (0.016, &#45;0.032, 0.0)!</text>
</g>
<!-- Sequence*&#45;&gt;place at (0.016, &#45;0.032, 0.0)! -->
<g id="edge15" class="edge">
<title>Sequence*&#45;&gt;place at (0.016, &#45;0.032, 0.0)!</title>
<path fill="none" stroke="black" d="M762.52,-147.67C778.77,-137.6 801.39,-123.59 820.07,-112.02"/>
<polygon fill="black" stroke="black" points="821.95,-114.97 828.61,-106.73 818.26,-109.02 821.95,-114.97"/>
</g>
<!-- 3 at pos (0.016, 0.032, 0.0)? -->
<g id="node13" class="node">
<title>3 at pos (0.016, 0.032, 0.0)?</title>
<ellipse fill="gray" stroke="black" cx="605" cy="-18" rx="67.6" ry="18"/>
<text text-anchor="middle" x="605" y="-15.8" font-family="Times,serif" font-size="9.00">3 at pos (0.016, 0.032, 0.0)?</text>
</g>
<!-- Fallback**&#45;&gt;3 at pos (0.016, 0.032, 0.0)? -->
<g id="edge12" class="edge">
<title>Fallback**&#45;&gt;3 at pos (0.016, 0.032, 0.0)?</title>
<path fill="none" stroke="black" d="M647.16,-71.7C640.51,-63.39 632.42,-53.28 625.11,-44.14"/>
<polygon fill="black" stroke="black" points="627.66,-41.73 618.68,-36.1 622.2,-46.1 627.66,-41.73"/>
</g>
<!-- pick 3! -->
<g id="node14" class="node">
<title>pick 3!</title>
<ellipse fill="gray" stroke="black" cx="718" cy="-18" rx="27" ry="18"/>
<text text-anchor="middle" x="718" y="-15.8" font-family="Times,serif" font-size="9.00">pick 3!</text>
</g>
<!-- Fallback**&#45;&gt;pick 3! -->
<g id="edge13" class="edge">
<title>Fallback**&#45;&gt;pick 3!</title>
<path fill="none" stroke="black" d="M675.09,-71.7C682.33,-62.8 691.26,-51.84 699.09,-42.22"/>
<polygon fill="black" stroke="black" points="702.02,-44.17 705.62,-34.2 696.59,-39.75 702.02,-44.17"/>
</g>
<!-- 1 on 0? -->
<g id="node21" class="node">
<title>1 on 0?</title>
<ellipse fill="gray" stroke="black" cx="1202" cy="-162" rx="27" ry="18"/>
<text text-anchor="middle" x="1202" y="-159.8" font-family="Times,serif" font-size="9.00">1 on 0?</text>
</g>
<!-- Fallback***&#45;&gt;1 on 0? -->
<g id="edge20" class="edge">
<title>Fallback***&#45;&gt;1 on 0?</title>
<path fill="none" stroke="black" d="M1099.7,-219.83C1120.41,-208.33 1150.55,-191.58 1172.75,-179.25"/>
<polygon fill="black" stroke="black" points="1174.69,-182.17 1181.73,-174.26 1171.29,-176.06 1174.69,-182.17"/>
</g>
<!-- Sequence** -->
<g id="node22" class="node">
<title>Sequence**</title>
<polygon fill="cyan" stroke="black" points="1320.74,-154.54 1320.74,-169.46 1299.22,-180 1268.78,-180 1247.26,-169.46 1247.26,-154.54 1268.78,-144 1299.22,-144 1320.74,-154.54"/>
<text text-anchor="middle" x="1284" y="-159.8" font-family="Times,serif" font-size="9.00">Sequence**</text>
</g>
<!-- Fallback***&#45;&gt;Sequence** -->
<g id="edge21" class="edge">
<title>Fallback***&#45;&gt;Sequence**</title>
<path fill="none" stroke="black" d="M1105.01,-222.28C1110.95,-220.15 1117.16,-217.97 1123,-216 1173.75,-198.89 1187.31,-197.29 1238,-180 1240.56,-179.13 1243.18,-178.21 1245.83,-177.27"/>
<polygon fill="black" stroke="black" points="1247.15,-180.52 1255.37,-173.84 1244.78,-173.93 1247.15,-180.52"/>
</g>
<!-- pick 1!** -->
<g id="node23" class="node">
<title>pick 1!**</title>
<ellipse fill="gray" stroke="black" cx="1244" cy="-90" rx="28.74" ry="18"/>
<text text-anchor="middle" x="1244" y="-87.8" font-family="Times,serif" font-size="9.00">pick 1!**</text>
</g>
<!-- Sequence**&#45;&gt;pick 1!** -->
<g id="edge22" class="edge">
<title>Sequence**&#45;&gt;pick 1!**</title>
<path fill="none" stroke="black" d="M1274.11,-143.7C1269.32,-135.32 1263.48,-125.1 1258.23,-115.9"/>
<polygon fill="black" stroke="black" points="1261.23,-114.09 1253.23,-107.14 1255.15,-117.56 1261.23,-114.09"/>
</g>
<!-- place on 0! -->
<g id="node24" class="node">
<title>place on 0!</title>
<ellipse fill="gray" stroke="black" cx="1323" cy="-90" rx="32.16" ry="18"/>
<text text-anchor="middle" x="1323" y="-87.8" font-family="Times,serif" font-size="9.00">place on 0!</text>
</g>
<!-- Sequence**&#45;&gt;place on 0! -->
<g id="edge23" class="edge">
<title>Sequence**&#45;&gt;place on 0!</title>
<path fill="none" stroke="black" d="M1293.64,-143.7C1298.19,-135.52 1303.72,-125.6 1308.75,-116.58"/>
<polygon fill="black" stroke="black" points="1311.93,-118.06 1313.74,-107.62 1305.81,-114.65 1311.93,-118.06"/>
</g>
</g>
</svg>
