<?xml version="1.0" encoding="UTF-8" standalone="no"?>
<!DOCTYPE svg PUBLIC "-//W3C//DTD SVG 1.1//EN"
 "http://www.w3.org/Graphics/SVG/1.1/DTD/svg11.dtd">
<!-- Generated by graphviz version 2.43.0 (0)
 -->
<!-- Title: pastafarianism Pages: 1 -->
<svg width="1017pt" height="332pt"
 viewBox="0.00 0.00 1017.16 332.00" xmlns="http://www.w3.org/2000/svg" xmlns:xlink="http://www.w3.org/1999/xlink">
<g id="graph0" class="graph" transform="scale(1 1) rotate(0) translate(4 328)">
<title>pastafarianism</title>
<polygon fill="white" stroke="transparent" points="-4,4 -4,-328 1013.16,-328 1013.16,4 -4,4"/>
<!-- Sequence -->
<g id="node1" class="node">
<title>Sequence</title>
<polygon fill="cyan" stroke="black" points="635.65,-298.54 635.65,-313.46 617.2,-324 591.11,-324 572.66,-313.46 572.66,-298.54 591.11,-288 617.2,-288 635.65,-298.54"/>
<text text-anchor="middle" x="604.16" y="-303.8" font-family="Times,serif" font-size="9.00">Sequence</text>
</g>
<!-- Fallback -->
<g id="node2" class="node">
<title>Fallback</title>
<polygon fill="cyan" stroke="black" points="268.4,-226.54 268.4,-241.46 251.27,-252 227.04,-252 209.91,-241.46 209.91,-226.54 227.04,-216 251.27,-216 268.4,-226.54"/>
<text text-anchor="middle" x="239.16" y="-231.8" font-family="Times,serif" font-size="9.00">Fallback</text>
</g>
<!-- Sequence&#45;&gt;Fallback -->
<g id="edge1" class="edge">
<title>Sequence&#45;&gt;Fallback</title>
<path fill="none" stroke="black" d="M572.72,-298.97C506.3,-286.23 351.8,-256.6 278.76,-242.6"/>
<polygon fill="black" stroke="black" points="279.08,-239.09 268.6,-240.65 277.76,-245.97 279.08,-239.09"/>
</g>
<!-- Fallback* -->
<g id="node6" class="node">
<title>Fallback*</title>
<polygon fill="cyan" stroke="black" points="592.9,-226.54 592.9,-241.46 574.31,-252 548.01,-252 529.42,-241.46 529.42,-226.54 548.01,-216 574.31,-216 592.9,-226.54"/>
<text text-anchor="middle" x="561.16" y="-231.8" font-family="Times,serif" font-size="9.00">Fallback*</text>
</g>
<!-- Sequence&#45;&gt;Fallback* -->
<g id="edge5" class="edge">
<title>Sequence&#45;&gt;Fallback*</title>
<path fill="none" stroke="black" d="M593.53,-287.7C588.53,-279.56 582.47,-269.69 576.95,-260.7"/>
<polygon fill="black" stroke="black" points="579.88,-258.79 571.66,-252.1 573.92,-262.46 579.88,-258.79"/>
</g>
<!-- Fallback*** -->
<g id="node17" class="node">
<title>Fallback***</title>
<polygon fill="cyan" stroke="black" points="756.65,-226.54 756.65,-241.46 734.69,-252 703.63,-252 681.67,-241.46 681.67,-226.54 703.63,-216 734.69,-216 756.65,-226.54"/>
<text text-anchor="middle" x="719.16" y="-231.8" font-family="Times,serif" font-size="9.00">Fallback***</text>
</g>
<!-- Sequence&#45;&gt;Fallback*** -->
<g id="edge16" class="edge">
<title>Sequence&#45;&gt;Fallback***</title>
<path fill="none" stroke="black" d="M624.98,-292.32C642.5,-281.66 667.8,-266.26 687.77,-254.11"/>
<polygon fill="black" stroke="black" points="689.8,-256.97 696.52,-248.78 686.16,-250.99 689.8,-256.97"/>
</g>
<!-- apply force 1! -->
<g id="node27" class="node">
<title>apply force 1!</title>
<ellipse fill="gray" stroke="black" cx="813.16" cy="-234" rx="38.21" ry="18"/>
<text text-anchor="middle" x="813.16" y="-231.8" font-family="Times,serif" font-size="9.00">apply force 1!</text>
</g>
<!-- Sequence&#45;&gt;apply force 1! -->
<g id="edge26" class="edge">
<title>Sequence&#45;&gt;apply force 1!</title>
<path fill="none" stroke="black" d="M631.57,-296.18C663.66,-285.81 718.38,-267.98 765.16,-252 768.08,-251 771.09,-249.96 774.12,-248.91"/>
<polygon fill="black" stroke="black" points="775.47,-252.14 783.75,-245.53 773.15,-245.54 775.47,-252.14"/>
</g>
<!-- 0 at pos (0.0, 0.0, 0.0)? -->
<g id="node3" class="node">
<title>0 at pos (0.0, 0.0, 0.0)?</title>
<ellipse fill="gray" stroke="black" cx="57.16" cy="-162" rx="57.32" ry="18"/>
<text text-anchor="middle" x="57.16" y="-159.8" font-family="Times,serif" font-size="9.00">0 at pos (0.0, 0.0, 0.0)?</text>
</g>
<!-- Fallback&#45;&gt;0 at pos (0.0, 0.0, 0.0)? -->
<g id="edge2" class="edge">
<title>Fallback&#45;&gt;0 at pos (0.0, 0.0, 0.0)?</title>
<path fill="none" stroke="black" d="M214.61,-223.56C185.7,-212.44 137.11,-193.75 101.54,-180.07"/>
<polygon fill="black" stroke="black" points="102.47,-176.68 91.88,-176.35 99.95,-183.21 102.47,-176.68"/>
</g>
<!-- place at (0.0, 0.0, 0.0)! -->
<g id="node4" class="node">
<title>place at (0.0, 0.0, 0.0)!</title>
<ellipse fill="gray" stroke="black" cx="188.16" cy="-162" rx="56.01" ry="18"/>
<text text-anchor="middle" x="188.16" y="-159.8" font-family="Times,serif" font-size="9.00">place at (0.0, 0.0, 0.0)!</text>
</g>
<!-- Fallback&#45;&gt;place at (0.0, 0.0, 0.0)! -->
<g id="edge3" class="edge">
<title>Fallback&#45;&gt;place at (0.0, 0.0, 0.0)!</title>
<path fill="none" stroke="black" d="M226.81,-216.05C220.67,-207.63 213.13,-197.28 206.35,-187.97"/>
<polygon fill="black" stroke="black" points="209.11,-185.81 200.39,-179.79 203.45,-189.93 209.11,-185.81"/>
</g>
<!-- pick 0! -->
<g id="node5" class="node">
<title>pick 0!</title>
<ellipse fill="gray" stroke="black" cx="289.16" cy="-162" rx="27" ry="18"/>
<text text-anchor="middle" x="289.16" y="-159.8" font-family="Times,serif" font-size="9.00">pick 0!</text>
</g>
<!-- Fallback&#45;&gt;pick 0! -->
<g id="edge4" class="edge">
<title>Fallback&#45;&gt;pick 0!</title>
<path fill="none" stroke="black" d="M251.52,-215.7C257.72,-207.02 265.32,-196.37 272.07,-186.92"/>
<polygon fill="black" stroke="black" points="275,-188.84 277.96,-178.67 269.3,-184.77 275,-188.84"/>
</g>
<!-- 2 at pos (0.016, &#45;0.032, 0.0)? -->
<g id="node7" class="node">
<title>2 at pos (0.016, &#45;0.032, 0.0)?</title>
<ellipse fill="gray" stroke="black" cx="403.16" cy="-162" rx="69.06" ry="18"/>
<text text-anchor="middle" x="403.16" y="-159.8" font-family="Times,serif" font-size="9.00">2 at pos (0.016, &#45;0.032, 0.0)?</text>
</g>
<!-- Fallback*&#45;&gt;2 at pos (0.016, &#45;0.032, 0.0)? -->
<g id="edge6" class="edge">
<title>Fallback*&#45;&gt;2 at pos (0.016, &#45;0.032, 0.0)?</title>
<path fill="none" stroke="black" d="M536.82,-222.22C512.6,-211.49 474.95,-194.81 445.77,-181.88"/>
<polygon fill="black" stroke="black" points="447.19,-178.68 436.62,-177.83 444.35,-185.08 447.19,-178.68"/>
</g>
<!-- Sequence* -->
<g id="node8" class="node">
<title>Sequence*</title>
<polygon fill="cyan" stroke="black" points="559.4,-154.54 559.4,-169.46 539.34,-180 510.97,-180 490.92,-169.46 490.92,-154.54 510.97,-144 539.34,-144 559.4,-154.54"/>
<text text-anchor="middle" x="525.16" y="-159.8" font-family="Times,serif" font-size="9.00">Sequence*</text>
</g>
<!-- Fallback*&#45;&gt;Sequence* -->
<g id="edge7" class="edge">
<title>Fallback*&#45;&gt;Sequence*</title>
<path fill="none" stroke="black" d="M552.26,-215.7C548.16,-207.73 543.21,-198.1 538.66,-189.26"/>
<polygon fill="black" stroke="black" points="541.64,-187.4 533.95,-180.1 535.42,-190.6 541.64,-187.4"/>
</g>
<!-- place at (0.016, 0.032, 0.0)! -->
<g id="node16" class="node">
<title>place at (0.016, 0.032, 0.0)!</title>
<ellipse fill="gray" stroke="black" cx="644.16" cy="-162" rx="66.29" ry="18"/>
<text text-anchor="middle" x="644.16" y="-159.8" font-family="Times,serif" font-size="9.00">place at (0.016, 0.032, 0.0)!</text>
</g>
<!-- Fallback*&#45;&gt;place at (0.016, 0.032, 0.0)! -->
<g id="edge15" class="edge">
<title>Fallback*&#45;&gt;place at (0.016, 0.032, 0.0)!</title>
<path fill="none" stroke="black" d="M578.76,-218.15C589.85,-208.81 604.38,-196.54 616.94,-185.96"/>
<polygon fill="black" stroke="black" points="619.45,-188.41 624.84,-179.29 614.94,-183.06 619.45,-188.41"/>
</g>
<!-- Fallback** -->
<g id="node9" class="node">
<title>Fallback**</title>
<polygon fill="cyan" stroke="black" points="476.15,-82.54 476.15,-97.46 455.65,-108 426.66,-108 406.17,-97.46 406.17,-82.54 426.66,-72 455.65,-72 476.15,-82.54"/>
<text text-anchor="middle" x="441.16" y="-87.8" font-family="Times,serif" font-size="9.00">Fallback**</text>
</g>
<!-- Sequence*&#45;&gt;Fallback** -->
<g id="edge8" class="edge">
<title>Sequence*&#45;&gt;Fallback**</title>
<path fill="none" stroke="black" d="M506.93,-145.81C495.37,-136.18 480.23,-123.56 467.39,-112.86"/>
<polygon fill="black" stroke="black" points="469.27,-109.87 459.35,-106.16 464.79,-115.25 469.27,-109.87"/>
</g>
<!-- pick 2! -->
<g id="node14" class="node">
<title>pick 2!</title>
<ellipse fill="gray" stroke="black" cx="521.16" cy="-90" rx="27" ry="18"/>
<text text-anchor="middle" x="521.16" y="-87.8" font-family="Times,serif" font-size="9.00">pick 2!</text>
</g>
<!-- Sequence*&#45;&gt;pick 2! -->
<g id="edge13" class="edge">
<title>Sequence*&#45;&gt;pick 2!</title>
<path fill="none" stroke="black" d="M524.17,-143.7C523.73,-135.98 523.2,-126.71 522.71,-118.11"/>
<polygon fill="black" stroke="black" points="526.2,-117.89 522.14,-108.1 519.21,-118.29 526.2,-117.89"/>
</g>
<!-- place at (0.016, &#45;0.032, 0.0)! -->
<g id="node15" class="node">
<title>place at (0.016, &#45;0.032, 0.0)!</title>
<ellipse fill="gray" stroke="black" cx="634.16" cy="-90" rx="68.25" ry="18"/>
<text text-anchor="middle" x="634.16" y="-87.8" font-family="Times,serif" font-size="9.00">place at (0.016, &#45;0.032, 0.0)!</text>
</g>
<!-- Sequence*&#45;&gt;place at (0.016, &#45;0.032, 0.0)! -->
<g id="edge14" class="edge">
<title>Sequence*&#45;&gt;place at (0.016, &#45;0.032, 0.0)!</title>
<path fill="none" stroke="black" d="M546.17,-147.5C561.7,-137.53 583.14,-123.76 600.97,-112.31"/>
<polygon fill="black" stroke="black" points="602.87,-115.25 609.39,-106.91 599.08,-109.36 602.87,-115.25"/>
</g>
<!-- 2 at pos (0.016, &#45;0.032, 0.0)?* -->
<g id="node10" class="node">
<title>2 at pos (0.016, &#45;0.032, 0.0)?*</title>
<ellipse fill="gray" stroke="black" cx="188.16" cy="-18" rx="72.34" ry="18"/>
<text text-anchor="middle" x="188.16" y="-15.8" font-family="Times,serif" font-size="9.00">2 at pos (0.016, &#45;0.032, 0.0)?*</text>
</g>
<!-- Fallback**&#45;&gt;2 at pos (0.016, &#45;0.032, 0.0)?* -->
<g id="edge9" class="edge">
<title>Fallback**&#45;&gt;2 at pos (0.016, &#45;0.032, 0.0)?*</title>
<path fill="none" stroke="black" d="M410.13,-80.42C368.94,-69.02 295.46,-48.69 244.37,-34.55"/>
<polygon fill="black" stroke="black" points="245.04,-31.11 234.47,-31.81 243.17,-37.85 245.04,-31.11"/>
</g>
<!-- 3 at pos (0.016, 0.032, 0.0)? -->
<g id="node11" class="node">
<title>3 at pos (0.016, 0.032, 0.0)?</title>
<ellipse fill="gray" stroke="black" cx="346.16" cy="-18" rx="67.6" ry="18"/>
<text text-anchor="middle" x="346.16" y="-15.8" font-family="Times,serif" font-size="9.00">3 at pos (0.016, 0.032, 0.0)?</text>
</g>
<!-- Fallback**&#45;&gt;3 at pos (0.016, 0.032, 0.0)? -->
<g id="edge10" class="edge">
<title>Fallback**&#45;&gt;3 at pos (0.016, 0.032, 0.0)?</title>
<path fill="none" stroke="black" d="M421.47,-74.5C408.48,-64.92 391.2,-52.19 376.47,-41.33"/>
<polygon fill="black" stroke="black" points="378.27,-38.31 368.14,-35.2 374.12,-43.95 378.27,-38.31"/>
</g>
<!-- 0 on 1? -->
<g id="node12" class="node">
<title>0 on 1?</title>
<ellipse fill="gray" stroke="black" cx="459.16" cy="-18" rx="27" ry="18"/>
<text text-anchor="middle" x="459.16" y="-15.8" font-family="Times,serif" font-size="9.00">0 on 1?</text>
</g>
<!-- Fallback**&#45;&gt;0 on 1? -->
<g id="edge11" class="edge">
<title>Fallback**&#45;&gt;0 on 1?</title>
<path fill="none" stroke="black" d="M445.61,-71.7C447.61,-63.9 450.03,-54.51 452.26,-45.83"/>
<polygon fill="black" stroke="black" points="455.66,-46.66 454.76,-36.1 448.88,-44.92 455.66,-46.66"/>
</g>
<!-- pick 3! -->
<g id="node13" class="node">
<title>pick 3!</title>
<ellipse fill="gray" stroke="black" cx="531.16" cy="-18" rx="27" ry="18"/>
<text text-anchor="middle" x="531.16" y="-15.8" font-family="Times,serif" font-size="9.00">pick 3!</text>
</g>
<!-- Fallback**&#45;&gt;pick 3! -->
<g id="edge12" class="edge">
<title>Fallback**&#45;&gt;pick 3!</title>
<path fill="none" stroke="black" d="M460.24,-74.15C473.62,-63.75 491.62,-49.75 506.14,-38.46"/>
<polygon fill="black" stroke="black" points="508.48,-41.07 514.22,-32.17 504.18,-35.55 508.48,-41.07"/>
</g>
<!-- 1 on 0? -->
<g id="node18" class="node">
<title>1 on 0?</title>
<ellipse fill="gray" stroke="black" cx="755.16" cy="-162" rx="27" ry="18"/>
<text text-anchor="middle" x="755.16" y="-159.8" font-family="Times,serif" font-size="9.00">1 on 0?</text>
</g>
<!-- Fallback***&#45;&gt;1 on 0? -->
<g id="edge17" class="edge">
<title>Fallback***&#45;&gt;1 on 0?</title>
<path fill="none" stroke="black" d="M728.06,-215.7C732.32,-207.4 737.51,-197.31 742.2,-188.19"/>
<polygon fill="black" stroke="black" points="745.39,-189.64 746.85,-179.14 739.17,-186.44 745.39,-189.64"/>
</g>
<!-- Sequence** -->
<g id="node19" class="node">
<title>Sequence**</title>
<polygon fill="cyan" stroke="black" points="880.9,-154.54 880.9,-169.46 859.38,-180 828.94,-180 807.42,-169.46 807.42,-154.54 828.94,-144 859.38,-144 880.9,-154.54"/>
<text text-anchor="middle" x="844.16" y="-159.8" font-family="Times,serif" font-size="9.00">Sequence**</text>
</g>
<!-- Fallback***&#45;&gt;Sequence** -->
<g id="edge18" class="edge">
<title>Fallback***&#45;&gt;Sequence**</title>
<path fill="none" stroke="black" d="M742.96,-219.67C762.55,-208.7 790.49,-193.05 812.06,-180.98"/>
<polygon fill="black" stroke="black" points="813.85,-183.98 820.86,-176.04 810.43,-177.88 813.85,-183.98"/>
</g>
<!-- Fallback**** -->
<g id="node20" class="node">
<title>Fallback****</title>
<polygon fill="cyan" stroke="black" points="801.9,-82.54 801.9,-97.46 778.03,-108 744.28,-108 720.42,-97.46 720.42,-82.54 744.28,-72 778.03,-72 801.9,-82.54"/>
<text text-anchor="middle" x="761.16" y="-87.8" font-family="Times,serif" font-size="9.00">Fallback****</text>
</g>
<!-- Sequence**&#45;&gt;Fallback**** -->
<g id="edge19" class="edge">
<title>Sequence**&#45;&gt;Fallback****</title>
<path fill="none" stroke="black" d="M825.74,-145.46C814.69,-136.15 800.44,-124.13 788.14,-113.76"/>
<polygon fill="black" stroke="black" points="790.29,-110.99 780.39,-107.22 785.78,-116.34 790.29,-110.99"/>
</g>
<!-- pick 1! -->
<g id="node25" class="node">
<title>pick 1!</title>
<ellipse fill="gray" stroke="black" cx="847.16" cy="-90" rx="27" ry="18"/>
<text text-anchor="middle" x="847.16" y="-87.8" font-family="Times,serif" font-size="9.00">pick 1!</text>
</g>
<!-- Sequence**&#45;&gt;pick 1! -->
<g id="edge24" class="edge">
<title>Sequence**&#45;&gt;pick 1!</title>
<path fill="none" stroke="black" d="M844.9,-143.7C845.23,-135.98 845.63,-126.71 846,-118.11"/>
<polygon fill="black" stroke="black" points="849.49,-118.25 846.42,-108.1 842.5,-117.95 849.49,-118.25"/>
</g>
<!-- place on 0! -->
<g id="node26" class="node">
<title>place on 0!</title>
<ellipse fill="gray" stroke="black" cx="924.16" cy="-90" rx="32.16" ry="18"/>
<text text-anchor="middle" x="924.16" y="-87.8" font-family="Times,serif" font-size="9.00">place on 0!</text>
</g>
<!-- Sequence**&#45;&gt;place on 0! -->
<g id="edge25" class="edge">
<title>Sequence**&#45;&gt;place on 0!</title>
<path fill="none" stroke="black" d="M862.31,-145.12C873.43,-135.39 887.8,-122.82 899.88,-112.24"/>
<polygon fill="black" stroke="black" points="902.22,-114.85 907.44,-105.63 897.61,-109.58 902.22,-114.85"/>
</g>
<!-- 0 on 2? -->
<g id="node21" class="node">
<title>0 on 2?</title>
<ellipse fill="gray" stroke="black" cx="638.16" cy="-18" rx="27" ry="18"/>
<text text-anchor="middle" x="638.16" y="-15.8" font-family="Times,serif" font-size="9.00">0 on 2?</text>
</g>
<!-- Fallback****&#45;&gt;0 on 2? -->
<g id="edge20" class="edge">
<title>Fallback****&#45;&gt;0 on 2?</title>
<path fill="none" stroke="black" d="M736.86,-75.17C716.73,-63.72 688.09,-47.42 666.84,-35.33"/>
<polygon fill="black" stroke="black" points="668.37,-32.17 657.95,-30.26 664.91,-38.25 668.37,-32.17"/>
</g>
<!-- 0 at pos (0.0, 0.0, 0.0)?* -->
<g id="node22" class="node">
<title>0 at pos (0.0, 0.0, 0.0)?*</title>
<ellipse fill="gray" stroke="black" cx="743.16" cy="-18" rx="60.09" ry="18"/>
<text text-anchor="middle" x="743.16" y="-15.8" font-family="Times,serif" font-size="9.00">0 at pos (0.0, 0.0, 0.0)?*</text>
</g>
<!-- Fallback****&#45;&gt;0 at pos (0.0, 0.0, 0.0)?* -->
<g id="edge21" class="edge">
<title>Fallback****&#45;&gt;0 at pos (0.0, 0.0, 0.0)?*</title>
<path fill="none" stroke="black" d="M756.71,-71.7C754.7,-63.9 752.29,-54.51 750.06,-45.83"/>
<polygon fill="black" stroke="black" points="753.44,-44.92 747.56,-36.1 746.66,-46.66 753.44,-44.92"/>
</g>
<!-- place at (0.0, 0.0, 0.0)!* -->
<g id="node23" class="node">
<title>place at (0.0, 0.0, 0.0)!*</title>
<ellipse fill="gray" stroke="black" cx="879.16" cy="-18" rx="58.13" ry="18"/>
<text text-anchor="middle" x="879.16" y="-15.8" font-family="Times,serif" font-size="9.00">place at (0.0, 0.0, 0.0)!*</text>
</g>
<!-- Fallback****&#45;&gt;place at (0.0, 0.0, 0.0)!* -->
<g id="edge22" class="edge">
<title>Fallback****&#45;&gt;place at (0.0, 0.0, 0.0)!*</title>
<path fill="none" stroke="black" d="M785.04,-74.83C802.13,-64.7 825.4,-50.89 844.53,-39.54"/>
<polygon fill="black" stroke="black" points="846.45,-42.47 853.27,-34.36 842.88,-36.45 846.45,-42.47"/>
</g>
<!-- pick 0!* -->
<g id="node24" class="node">
<title>pick 0!*</title>
<ellipse fill="gray" stroke="black" cx="982.16" cy="-18" rx="27" ry="18"/>
<text text-anchor="middle" x="982.16" y="-15.8" font-family="Times,serif" font-size="9.00">pick 0!*</text>
</g>
<!-- Fallback****&#45;&gt;pick 0!* -->
<g id="edge23" class="edge">
<title>Fallback****&#45;&gt;pick 0!*</title>
<path fill="none" stroke="black" d="M791.99,-78.15C798.31,-76.04 804.93,-73.89 811.16,-72 870.59,-54 887.84,-57.34 946.16,-36 948.01,-35.32 949.89,-34.59 951.78,-33.81"/>
<polygon fill="black" stroke="black" points="953.36,-36.94 961.11,-29.72 950.55,-30.53 953.36,-36.94"/>
</g>
</g>
</svg>
