<?xml version="1.0" encoding="UTF-8" standalone="no"?>
<!DOCTYPE svg PUBLIC "-//W3C//DTD SVG 1.1//EN"
 "http://www.w3.org/Graphics/SVG/1.1/DTD/svg11.dtd">
<!-- Generated by graphviz version 2.43.0 (0)
 -->
<!-- Title: pastafarianism Pages: 1 -->
<svg width="1114pt" height="332pt"
 viewBox="0.00 0.00 1114.49 332.00" xmlns="http://www.w3.org/2000/svg" xmlns:xlink="http://www.w3.org/1999/xlink">
<g id="graph0" class="graph" transform="scale(1 1) rotate(0) translate(4 328)">
<title>pastafarianism</title>
<polygon fill="white" stroke="transparent" points="-4,4 -4,-328 1110.49,-328 1110.49,4 -4,4"/>
<!-- Sequence -->
<g id="node1" class="node">
<title>Sequence</title>
<polygon fill="cyan" stroke="black" points="770.65,-298.54 770.65,-313.46 752.2,-324 726.11,-324 707.66,-313.46 707.66,-298.54 726.11,-288 752.2,-288 770.65,-298.54"/>
<text text-anchor="middle" x="739.16" y="-303.8" font-family="Times,serif" font-size="9.00">Sequence</text>
</g>
<!-- Fallback -->
<g id="node2" class="node">
<title>Fallback</title>
<polygon fill="cyan" stroke="black" points="349.4,-226.54 349.4,-241.46 332.27,-252 308.04,-252 290.91,-241.46 290.91,-226.54 308.04,-216 332.27,-216 349.4,-226.54"/>
<text text-anchor="middle" x="320.16" y="-231.8" font-family="Times,serif" font-size="9.00">Fallback</text>
</g>
<!-- Sequence&#45;&gt;Fallback -->
<g id="edge1" class="edge">
<title>Sequence&#45;&gt;Fallback</title>
<path fill="none" stroke="black" d="M707.66,-299.74C632.38,-287.16 442.11,-255.37 359.47,-241.57"/>
<polygon fill="black" stroke="black" points="359.92,-238.09 349.48,-239.9 358.77,-245 359.92,-238.09"/>
</g>
<!-- Fallback* -->
<g id="node7" class="node">
<title>Fallback*</title>
<polygon fill="cyan" stroke="black" points="725.9,-226.54 725.9,-241.46 707.31,-252 681.01,-252 662.42,-241.46 662.42,-226.54 681.01,-216 707.31,-216 725.9,-226.54"/>
<text text-anchor="middle" x="694.16" y="-231.8" font-family="Times,serif" font-size="9.00">Fallback*</text>
</g>
<!-- Sequence&#45;&gt;Fallback* -->
<g id="edge6" class="edge">
<title>Sequence&#45;&gt;Fallback*</title>
<path fill="none" stroke="black" d="M728.03,-287.7C722.8,-279.56 716.46,-269.69 710.68,-260.7"/>
<polygon fill="black" stroke="black" points="713.51,-258.62 705.15,-252.1 707.62,-262.41 713.51,-258.62"/>
</g>
<!-- Fallback**** -->
<g id="node21" class="node">
<title>Fallback****</title>
<polygon fill="cyan" stroke="black" points="894.9,-226.54 894.9,-241.46 871.03,-252 837.28,-252 813.42,-241.46 813.42,-226.54 837.28,-216 871.03,-216 894.9,-226.54"/>
<text text-anchor="middle" x="854.16" y="-231.8" font-family="Times,serif" font-size="9.00">Fallback****</text>
</g>
<!-- Sequence&#45;&gt;Fallback**** -->
<g id="edge20" class="edge">
<title>Sequence&#45;&gt;Fallback****</title>
<path fill="none" stroke="black" d="M759.98,-292.32C777.27,-281.8 802.15,-266.66 822,-254.58"/>
<polygon fill="black" stroke="black" points="823.99,-257.46 830.71,-249.27 820.35,-251.48 823.99,-257.46"/>
</g>
<!-- apply force 1! -->
<g id="node26" class="node">
<title>apply force 1!</title>
<ellipse fill="gray" stroke="black" cx="951.16" cy="-234" rx="38.21" ry="18"/>
<text text-anchor="middle" x="951.16" y="-231.8" font-family="Times,serif" font-size="9.00">apply force 1!</text>
</g>
<!-- Sequence&#45;&gt;apply force 1! -->
<g id="edge25" class="edge">
<title>Sequence&#45;&gt;apply force 1!</title>
<path fill="none" stroke="black" d="M766.99,-296.4C799.88,-286.16 856.18,-268.38 904.16,-252 906.89,-251.07 909.71,-250.09 912.54,-249.09"/>
<polygon fill="black" stroke="black" points="913.88,-252.33 922.13,-245.68 911.54,-245.74 913.88,-252.33"/>
</g>
<!-- 0 at pos (0.0, 0.0, 0.0)? -->
<g id="node3" class="node">
<title>0 at pos (0.0, 0.0, 0.0)?</title>
<ellipse fill="gray" stroke="black" cx="57.16" cy="-162" rx="57.32" ry="18"/>
<text text-anchor="middle" x="57.16" y="-159.8" font-family="Times,serif" font-size="9.00">0 at pos (0.0, 0.0, 0.0)?</text>
</g>
<!-- Fallback&#45;&gt;0 at pos (0.0, 0.0, 0.0)? -->
<g id="edge2" class="edge">
<title>Fallback&#45;&gt;0 at pos (0.0, 0.0, 0.0)?</title>
<path fill="none" stroke="black" d="M292.01,-225.51C248.47,-213.92 164.1,-191.47 109.23,-176.86"/>
<polygon fill="black" stroke="black" points="109.91,-173.42 99.35,-174.23 108.11,-180.18 109.91,-173.42"/>
</g>
<!-- place at (0.0, 0.0, 0.0)! -->
<g id="node4" class="node">
<title>place at (0.0, 0.0, 0.0)!</title>
<ellipse fill="gray" stroke="black" cx="188.16" cy="-162" rx="56.01" ry="18"/>
<text text-anchor="middle" x="188.16" y="-159.8" font-family="Times,serif" font-size="9.00">place at (0.0, 0.0, 0.0)!</text>
</g>
<!-- Fallback&#45;&gt;place at (0.0, 0.0, 0.0)! -->
<g id="edge3" class="edge">
<title>Fallback&#45;&gt;place at (0.0, 0.0, 0.0)!</title>
<path fill="none" stroke="black" d="M298.66,-221.6C278.79,-211.06 248.86,-195.19 225.16,-182.62"/>
<polygon fill="black" stroke="black" points="226.56,-179.4 216.09,-177.81 223.28,-185.59 226.56,-179.4"/>
</g>
<!-- place at (0.0, 0.0, 0.0)!* -->
<g id="node5" class="node">
<title>place at (0.0, 0.0, 0.0)!*</title>
<ellipse fill="gray" stroke="black" cx="320.16" cy="-162" rx="58.13" ry="18"/>
<text text-anchor="middle" x="320.16" y="-159.8" font-family="Times,serif" font-size="9.00">place at (0.0, 0.0, 0.0)!*</text>
</g>
<!-- Fallback&#45;&gt;place at (0.0, 0.0, 0.0)!* -->
<g id="edge4" class="edge">
<title>Fallback&#45;&gt;place at (0.0, 0.0, 0.0)!*</title>
<path fill="none" stroke="black" d="M320.16,-215.7C320.16,-207.98 320.16,-198.71 320.16,-190.11"/>
<polygon fill="black" stroke="black" points="323.66,-190.1 320.16,-180.1 316.66,-190.1 323.66,-190.1"/>
</g>
<!-- pick 0! -->
<g id="node6" class="node">
<title>pick 0!</title>
<ellipse fill="gray" stroke="black" cx="423.16" cy="-162" rx="27" ry="18"/>
<text text-anchor="middle" x="423.16" y="-159.8" font-family="Times,serif" font-size="9.00">pick 0!</text>
</g>
<!-- Fallback&#45;&gt;pick 0! -->
<g id="edge5" class="edge">
<title>Fallback&#45;&gt;pick 0!</title>
<path fill="none" stroke="black" d="M339.05,-220.16C355.12,-209.24 378.39,-193.43 396.38,-181.2"/>
<polygon fill="black" stroke="black" points="398.43,-184.04 404.73,-175.52 394.49,-178.25 398.43,-184.04"/>
</g>
<!-- 2 at pos (0.016, &#45;0.032, 0.0)? -->
<g id="node8" class="node">
<title>2 at pos (0.016, &#45;0.032, 0.0)?</title>
<ellipse fill="gray" stroke="black" cx="537.16" cy="-162" rx="69.06" ry="18"/>
<text text-anchor="middle" x="537.16" y="-159.8" font-family="Times,serif" font-size="9.00">2 at pos (0.016, &#45;0.032, 0.0)?</text>
</g>
<!-- Fallback*&#45;&gt;2 at pos (0.016, &#45;0.032, 0.0)? -->
<g id="edge7" class="edge">
<title>Fallback*&#45;&gt;2 at pos (0.016, &#45;0.032, 0.0)?</title>
<path fill="none" stroke="black" d="M669.97,-222.22C646.01,-211.53 608.82,-194.95 579.88,-182.05"/>
<polygon fill="black" stroke="black" points="580.97,-178.7 570.41,-177.83 578.12,-185.1 580.97,-178.7"/>
</g>
<!-- Sequence* -->
<g id="node9" class="node">
<title>Sequence*</title>
<polygon fill="cyan" stroke="black" points="693.4,-154.54 693.4,-169.46 673.34,-180 644.97,-180 624.92,-169.46 624.92,-154.54 644.97,-144 673.34,-144 693.4,-154.54"/>
<text text-anchor="middle" x="659.16" y="-159.8" font-family="Times,serif" font-size="9.00">Sequence*</text>
</g>
<!-- Fallback*&#45;&gt;Sequence* -->
<g id="edge8" class="edge">
<title>Fallback*&#45;&gt;Sequence*</title>
<path fill="none" stroke="black" d="M685.51,-215.7C681.52,-207.73 676.71,-198.1 672.29,-189.26"/>
<polygon fill="black" stroke="black" points="675.31,-187.48 667.71,-180.1 669.05,-190.61 675.31,-187.48"/>
</g>
<!-- place at (0.016, 0.032, 0.0)! -->
<g id="node20" class="node">
<title>place at (0.016, 0.032, 0.0)!</title>
<ellipse fill="gray" stroke="black" cx="778.16" cy="-162" rx="66.29" ry="18"/>
<text text-anchor="middle" x="778.16" y="-159.8" font-family="Times,serif" font-size="9.00">place at (0.016, 0.032, 0.0)!</text>
</g>
<!-- Fallback*&#45;&gt;place at (0.016, 0.032, 0.0)! -->
<g id="edge19" class="edge">
<title>Fallback*&#45;&gt;place at (0.016, 0.032, 0.0)!</title>
<path fill="none" stroke="black" d="M711.97,-218.15C723.19,-208.81 737.9,-196.54 750.61,-185.96"/>
<polygon fill="black" stroke="black" points="753.17,-188.38 758.61,-179.29 748.69,-183 753.17,-188.38"/>
</g>
<!-- Fallback** -->
<g id="node10" class="node">
<title>Fallback**</title>
<polygon fill="cyan" stroke="black" points="414.15,-82.54 414.15,-97.46 393.65,-108 364.66,-108 344.17,-97.46 344.17,-82.54 364.66,-72 393.65,-72 414.15,-82.54"/>
<text text-anchor="middle" x="379.16" y="-87.8" font-family="Times,serif" font-size="9.00">Fallback**</text>
</g>
<!-- Sequence*&#45;&gt;Fallback** -->
<g id="edge9" class="edge">
<title>Sequence*&#45;&gt;Fallback**</title>
<path fill="none" stroke="black" d="M632.85,-150.11C627.08,-147.92 620.96,-145.76 615.16,-144 549.83,-124.16 472.3,-108.15 424.41,-99.1"/>
<polygon fill="black" stroke="black" points="424.84,-95.62 414.37,-97.22 423.55,-102.5 424.84,-95.62"/>
</g>
<!-- Fallback*** -->
<g id="node13" class="node">
<title>Fallback***</title>
<polygon fill="cyan" stroke="black" points="588.65,-82.54 588.65,-97.46 566.69,-108 535.63,-108 513.67,-97.46 513.67,-82.54 535.63,-72 566.69,-72 588.65,-82.54"/>
<text text-anchor="middle" x="551.16" y="-87.8" font-family="Times,serif" font-size="9.00">Fallback***</text>
</g>
<!-- Sequence*&#45;&gt;Fallback*** -->
<g id="edge12" class="edge">
<title>Sequence*&#45;&gt;Fallback***</title>
<path fill="none" stroke="black" d="M638.08,-147.34C621.94,-136.87 599.45,-122.3 581.39,-110.59"/>
<polygon fill="black" stroke="black" points="583.22,-107.61 572.92,-105.11 579.41,-113.48 583.22,-107.61"/>
</g>
<!-- pick 2! -->
<g id="node17" class="node">
<title>pick 2!</title>
<ellipse fill="gray" stroke="black" cx="633.16" cy="-90" rx="27" ry="18"/>
<text text-anchor="middle" x="633.16" y="-87.8" font-family="Times,serif" font-size="9.00">pick 2!</text>
</g>
<!-- Sequence*&#45;&gt;pick 2! -->
<g id="edge16" class="edge">
<title>Sequence*&#45;&gt;pick 2!</title>
<path fill="none" stroke="black" d="M652.73,-143.7C649.76,-135.7 646.17,-126.02 642.87,-117.15"/>
<polygon fill="black" stroke="black" points="646.09,-115.78 639.33,-107.62 639.53,-118.22 646.09,-115.78"/>
</g>
<!-- place at (0.016, &#45;0.032, 0.0)! -->
<g id="node18" class="node">
<title>place at (0.016, &#45;0.032, 0.0)!</title>
<ellipse fill="gray" stroke="black" cx="746.16" cy="-90" rx="68.25" ry="18"/>
<text text-anchor="middle" x="746.16" y="-87.8" font-family="Times,serif" font-size="9.00">place at (0.016, &#45;0.032, 0.0)!</text>
</g>
<!-- Sequence*&#45;&gt;place at (0.016, &#45;0.032, 0.0)! -->
<g id="edge17" class="edge">
<title>Sequence*&#45;&gt;place at (0.016, &#45;0.032, 0.0)!</title>
<path fill="none" stroke="black" d="M677.61,-146.15C689.34,-136.72 704.76,-124.31 718,-113.66"/>
<polygon fill="black" stroke="black" points="720.31,-116.29 725.91,-107.29 715.93,-110.83 720.31,-116.29"/>
</g>
<!-- 0 at pos (0.0, 0.0, 0.0)?* -->
<g id="node19" class="node">
<title>0 at pos (0.0, 0.0, 0.0)?*</title>
<ellipse fill="gray" stroke="black" cx="892.16" cy="-90" rx="60.09" ry="18"/>
<text text-anchor="middle" x="892.16" y="-87.8" font-family="Times,serif" font-size="9.00">0 at pos (0.0, 0.0, 0.0)?*</text>
</g>
<!-- Sequence*&#45;&gt;0 at pos (0.0, 0.0, 0.0)?* -->
<g id="edge18" class="edge">
<title>Sequence*&#45;&gt;0 at pos (0.0, 0.0, 0.0)?*</title>
<path fill="none" stroke="black" d="M685.53,-150.34C691.3,-148.14 697.41,-145.91 703.16,-144 747.98,-129.09 799.67,-114.79 837.66,-104.81"/>
<polygon fill="black" stroke="black" points="838.71,-108.15 847.5,-102.24 836.94,-101.38 838.71,-108.15"/>
</g>
<!-- 3 at pos (0.016, 0.032, 0.0)? -->
<g id="node11" class="node">
<title>3 at pos (0.016, 0.032, 0.0)?</title>
<ellipse fill="gray" stroke="black" cx="266.16" cy="-18" rx="67.6" ry="18"/>
<text text-anchor="middle" x="266.16" y="-15.8" font-family="Times,serif" font-size="9.00">3 at pos (0.016, 0.032, 0.0)?</text>
</g>
<!-- Fallback**&#45;&gt;3 at pos (0.016, 0.032, 0.0)? -->
<g id="edge10" class="edge">
<title>Fallback**&#45;&gt;3 at pos (0.016, 0.032, 0.0)?</title>
<path fill="none" stroke="black" d="M357.37,-75.5C341.28,-65.53 319.05,-51.76 300.56,-40.31"/>
<polygon fill="black" stroke="black" points="302.18,-37.2 291.83,-34.91 298.49,-43.15 302.18,-37.2"/>
</g>
<!-- pick 3! -->
<g id="node12" class="node">
<title>pick 3!</title>
<ellipse fill="gray" stroke="black" cx="379.16" cy="-18" rx="27" ry="18"/>
<text text-anchor="middle" x="379.16" y="-15.8" font-family="Times,serif" font-size="9.00">pick 3!</text>
</g>
<!-- Fallback**&#45;&gt;pick 3! -->
<g id="edge11" class="edge">
<title>Fallback**&#45;&gt;pick 3!</title>
<path fill="none" stroke="black" d="M379.16,-71.7C379.16,-63.98 379.16,-54.71 379.16,-46.11"/>
<polygon fill="black" stroke="black" points="382.66,-46.1 379.16,-36.1 375.66,-46.1 382.66,-46.1"/>
</g>
<!-- 3 at pos (0.016, 0.032, 0.0)?* -->
<g id="node14" class="node">
<title>3 at pos (0.016, 0.032, 0.0)?*</title>
<ellipse fill="gray" stroke="black" cx="494.16" cy="-18" rx="70.37" ry="18"/>
<text text-anchor="middle" x="494.16" y="-15.8" font-family="Times,serif" font-size="9.00">3 at pos (0.016, 0.032, 0.0)?*</text>
</g>
<!-- Fallback***&#45;&gt;3 at pos (0.016, 0.032, 0.0)?* -->
<g id="edge13" class="edge">
<title>Fallback***&#45;&gt;3 at pos (0.016, 0.032, 0.0)?*</title>
<path fill="none" stroke="black" d="M537.07,-71.7C530.23,-63.3 521.9,-53.07 514.4,-43.86"/>
<polygon fill="black" stroke="black" points="517.11,-41.65 508.09,-36.1 511.69,-46.07 517.11,-41.65"/>
</g>
<!-- pick 3!* -->
<g id="node15" class="node">
<title>pick 3!*</title>
<ellipse fill="gray" stroke="black" cx="609.16" cy="-18" rx="27" ry="18"/>
<text text-anchor="middle" x="609.16" y="-15.8" font-family="Times,serif" font-size="9.00">pick 3!*</text>
</g>
<!-- Fallback***&#45;&gt;pick 3!* -->
<g id="edge14" class="edge">
<title>Fallback***&#45;&gt;pick 3!*</title>
<path fill="none" stroke="black" d="M565.49,-71.7C572.94,-62.71 582.13,-51.62 590.16,-41.93"/>
<polygon fill="black" stroke="black" points="592.88,-44.14 596.56,-34.2 587.49,-39.67 592.88,-44.14"/>
</g>
<!-- 2 on 1? -->
<g id="node16" class="node">
<title>2 on 1?</title>
<ellipse fill="gray" stroke="black" cx="681.16" cy="-18" rx="27" ry="18"/>
<text text-anchor="middle" x="681.16" y="-15.8" font-family="Times,serif" font-size="9.00">2 on 1?</text>
</g>
<!-- Fallback***&#45;&gt;2 on 1? -->
<g id="edge15" class="edge">
<title>Fallback***&#45;&gt;2 on 1?</title>
<path fill="none" stroke="black" d="M575.31,-76C596.86,-64.39 628.49,-47.36 651.57,-34.93"/>
<polygon fill="black" stroke="black" points="653.42,-37.91 660.56,-30.09 650.1,-31.75 653.42,-37.91"/>
</g>
<!-- 1 on 0? -->
<g id="node22" class="node">
<title>1 on 0?</title>
<ellipse fill="gray" stroke="black" cx="889.16" cy="-162" rx="27" ry="18"/>
<text text-anchor="middle" x="889.16" y="-159.8" font-family="Times,serif" font-size="9.00">1 on 0?</text>
</g>
<!-- Fallback****&#45;&gt;1 on 0? -->
<g id="edge21" class="edge">
<title>Fallback****&#45;&gt;1 on 0?</title>
<path fill="none" stroke="black" d="M862.81,-215.7C866.9,-207.52 871.86,-197.6 876.37,-188.58"/>
<polygon fill="black" stroke="black" points="879.5,-190.13 880.85,-179.62 873.24,-187 879.5,-190.13"/>
</g>
<!-- Sequence** -->
<g id="node23" class="node">
<title>Sequence**</title>
<polygon fill="cyan" stroke="black" points="1033.9,-154.54 1033.9,-169.46 1012.38,-180 981.94,-180 960.42,-169.46 960.42,-154.54 981.94,-144 1012.38,-144 1033.9,-154.54"/>
<text text-anchor="middle" x="997.16" y="-159.8" font-family="Times,serif" font-size="9.00">Sequence**</text>
</g>
<!-- Fallback****&#45;&gt;Sequence** -->
<g id="edge22" class="edge">
<title>Fallback****&#45;&gt;Sequence**</title>
<path fill="none" stroke="black" d="M880.72,-220C903.92,-208.64 937.75,-192.08 962.97,-179.74"/>
<polygon fill="black" stroke="black" points="964.73,-182.77 972.17,-175.23 961.65,-176.48 964.73,-182.77"/>
</g>
<!-- pick 1! -->
<g id="node24" class="node">
<title>pick 1!</title>
<ellipse fill="gray" stroke="black" cx="997.16" cy="-90" rx="27" ry="18"/>
<text text-anchor="middle" x="997.16" y="-87.8" font-family="Times,serif" font-size="9.00">pick 1!</text>
</g>
<!-- Sequence**&#45;&gt;pick 1! -->
<g id="edge23" class="edge">
<title>Sequence**&#45;&gt;pick 1!</title>
<path fill="none" stroke="black" d="M997.16,-143.7C997.16,-135.98 997.16,-126.71 997.16,-118.11"/>
<polygon fill="black" stroke="black" points="1000.66,-118.1 997.16,-108.1 993.66,-118.1 1000.66,-118.1"/>
</g>
<!-- place on 0! -->
<g id="node25" class="node">
<title>place on 0!</title>
<ellipse fill="gray" stroke="black" cx="1074.16" cy="-90" rx="32.16" ry="18"/>
<text text-anchor="middle" x="1074.16" y="-87.8" font-family="Times,serif" font-size="9.00">place on 0!</text>
</g>
<!-- Sequence**&#45;&gt;place on 0! -->
<g id="edge24" class="edge">
<title>Sequence**&#45;&gt;place on 0!</title>
<path fill="none" stroke="black" d="M1015.02,-144.76C1025.56,-135.18 1039.03,-122.94 1050.45,-112.55"/>
<polygon fill="black" stroke="black" points="1052.92,-115.03 1057.97,-105.72 1048.22,-109.85 1052.92,-115.03"/>
</g>
</g>
</svg>
