<?xml version="1.0" encoding="UTF-8" standalone="no"?>
<!DOCTYPE svg PUBLIC "-//W3C//DTD SVG 1.1//EN"
 "http://www.w3.org/Graphics/SVG/1.1/DTD/svg11.dtd">
<!-- Generated by graphviz version 2.43.0 (0)
 -->
<!-- Title: pastafarianism Pages: 1 -->
<svg width="881pt" height="404pt"
 viewBox="0.00 0.00 880.55 404.00" xmlns="http://www.w3.org/2000/svg" xmlns:xlink="http://www.w3.org/1999/xlink">
<g id="graph0" class="graph" transform="scale(1 1) rotate(0) translate(4 400)">
<title>pastafarianism</title>
<polygon fill="white" stroke="transparent" points="-4,4 -4,-400 876.55,-400 876.55,4 -4,4"/>
<!-- Sequence -->
<g id="node1" class="node">
<title>Sequence</title>
<polygon fill="cyan" stroke="black" points="532.54,-370.54 532.54,-385.46 514.09,-396 488,-396 469.55,-385.46 469.55,-370.54 488,-360 514.09,-360 532.54,-370.54"/>
<text text-anchor="middle" x="501.04" y="-375.8" font-family="Times,serif" font-size="9.00">Sequence</text>
</g>
<!-- Fallback -->
<g id="node2" class="node">
<title>Fallback</title>
<polygon fill="cyan" stroke="black" points="249.29,-298.54 249.29,-313.46 232.16,-324 207.93,-324 190.8,-313.46 190.8,-298.54 207.93,-288 232.16,-288 249.29,-298.54"/>
<text text-anchor="middle" x="220.04" y="-303.8" font-family="Times,serif" font-size="9.00">Fallback</text>
</g>
<!-- Sequence&#45;&gt;Fallback -->
<g id="edge1" class="edge">
<title>Sequence&#45;&gt;Fallback</title>
<path fill="none" stroke="black" d="M471.24,-369.58C420.04,-356.82 315.45,-330.77 258.72,-316.63"/>
<polygon fill="black" stroke="black" points="259.25,-313.16 248.71,-314.14 257.56,-319.95 259.25,-313.16"/>
</g>
<!-- Fallback* -->
<g id="node10" class="node">
<title>Fallback*</title>
<polygon fill="cyan" stroke="black" points="494.79,-298.54 494.79,-313.46 476.19,-324 449.9,-324 431.3,-313.46 431.3,-298.54 449.9,-288 476.19,-288 494.79,-298.54"/>
<text text-anchor="middle" x="463.04" y="-303.8" font-family="Times,serif" font-size="9.00">Fallback*</text>
</g>
<!-- Sequence&#45;&gt;Fallback* -->
<g id="edge9" class="edge">
<title>Sequence&#45;&gt;Fallback*</title>
<path fill="none" stroke="black" d="M491.65,-359.7C487.28,-351.64 481.99,-341.89 477.15,-332.98"/>
<polygon fill="black" stroke="black" points="480.18,-331.22 472.33,-324.1 474.02,-334.56 480.18,-331.22"/>
</g>
<!-- 2 on 1?* -->
<g id="node25" class="node">
<title>2 on 1?*</title>
<ellipse fill="gray" stroke="black" cx="540.04" cy="-306" rx="27.27" ry="18"/>
<text text-anchor="middle" x="540.04" y="-303.8" font-family="Times,serif" font-size="9.00">2 on 1?*</text>
</g>
<!-- Sequence&#45;&gt;2 on 1?* -->
<g id="edge24" class="edge">
<title>Sequence&#45;&gt;2 on 1?*</title>
<path fill="none" stroke="black" d="M510.68,-359.7C515.35,-351.32 521.05,-341.1 526.17,-331.9"/>
<polygon fill="black" stroke="black" points="529.24,-333.58 531.05,-323.14 523.13,-330.18 529.24,-333.58"/>
</g>
<!-- apply force 2! -->
<g id="node26" class="node">
<title>apply force 2!</title>
<ellipse fill="gray" stroke="black" cx="623.04" cy="-306" rx="38.21" ry="18"/>
<text text-anchor="middle" x="623.04" y="-303.8" font-family="Times,serif" font-size="9.00">apply force 2!</text>
</g>
<!-- Sequence&#45;&gt;apply force 2! -->
<g id="edge25" class="edge">
<title>Sequence&#45;&gt;apply force 2!</title>
<path fill="none" stroke="black" d="M522.57,-364.65C541.49,-353.79 569.28,-337.85 590.84,-325.48"/>
<polygon fill="black" stroke="black" points="592.72,-328.44 599.65,-320.42 589.23,-322.36 592.72,-328.44"/>
</g>
<!-- 0 at pos (0.0, 0.05, 0.0)? -->
<g id="node3" class="node">
<title>0 at pos (0.0, 0.05, 0.0)?</title>
<ellipse fill="gray" stroke="black" cx="60.04" cy="-234" rx="60.09" ry="18"/>
<text text-anchor="middle" x="60.04" y="-231.8" font-family="Times,serif" font-size="9.00">0 at pos (0.0, 0.05, 0.0)?</text>
</g>
<!-- Fallback&#45;&gt;0 at pos (0.0, 0.05, 0.0)? -->
<g id="edge2" class="edge">
<title>Fallback&#45;&gt;0 at pos (0.0, 0.05, 0.0)?</title>
<path fill="none" stroke="black" d="M196.78,-294.82C171.99,-283.98 132.22,-266.58 101.95,-253.33"/>
<polygon fill="black" stroke="black" points="103.05,-249.99 92.48,-249.19 100.24,-256.41 103.05,-249.99"/>
</g>
<!-- Sequence* -->
<g id="node4" class="node">
<title>Sequence*</title>
<polygon fill="cyan" stroke="black" points="206.29,-226.54 206.29,-241.46 186.23,-252 157.86,-252 137.8,-241.46 137.8,-226.54 157.86,-216 186.23,-216 206.29,-226.54"/>
<text text-anchor="middle" x="172.04" y="-231.8" font-family="Times,serif" font-size="9.00">Sequence*</text>
</g>
<!-- Fallback&#45;&gt;Sequence* -->
<g id="edge3" class="edge">
<title>Fallback&#45;&gt;Sequence*</title>
<path fill="none" stroke="black" d="M208.18,-287.7C202.54,-279.47 195.69,-269.48 189.48,-260.42"/>
<polygon fill="black" stroke="black" points="192.31,-258.37 183.77,-252.1 186.54,-262.33 192.31,-258.37"/>
</g>
<!-- Sequence** -->
<g id="node7" class="node">
<title>Sequence**</title>
<polygon fill="cyan" stroke="black" points="304.79,-226.54 304.79,-241.46 283.26,-252 252.83,-252 231.3,-241.46 231.3,-226.54 252.83,-216 283.26,-216 304.79,-226.54"/>
<text text-anchor="middle" x="268.04" y="-231.8" font-family="Times,serif" font-size="9.00">Sequence**</text>
</g>
<!-- Fallback&#45;&gt;Sequence** -->
<g id="edge6" class="edge">
<title>Fallback&#45;&gt;Sequence**</title>
<path fill="none" stroke="black" d="M231.91,-287.7C237.55,-279.47 244.4,-269.48 250.61,-260.42"/>
<polygon fill="black" stroke="black" points="253.55,-262.33 256.32,-252.1 247.77,-258.37 253.55,-262.33"/>
</g>
<!-- pick 0! -->
<g id="node5" class="node">
<title>pick 0!</title>
<ellipse fill="gray" stroke="black" cx="66.04" cy="-162" rx="27" ry="18"/>
<text text-anchor="middle" x="66.04" y="-159.8" font-family="Times,serif" font-size="9.00">pick 0!</text>
</g>
<!-- Sequence*&#45;&gt;pick 0! -->
<g id="edge4" class="edge">
<title>Sequence*&#45;&gt;pick 0!</title>
<path fill="none" stroke="black" d="M151.35,-219.34C134.68,-208.33 111.11,-192.76 92.97,-180.78"/>
<polygon fill="black" stroke="black" points="94.83,-177.81 84.55,-175.22 90.97,-183.66 94.83,-177.81"/>
</g>
<!-- place at (0.0, 0.05, 0.0)! -->
<g id="node6" class="node">
<title>place at (0.0, 0.05, 0.0)!</title>
<ellipse fill="gray" stroke="black" cx="169.04" cy="-162" rx="58.13" ry="18"/>
<text text-anchor="middle" x="169.04" y="-159.8" font-family="Times,serif" font-size="9.00">place at (0.0, 0.05, 0.0)!</text>
</g>
<!-- Sequence*&#45;&gt;place at (0.0, 0.05, 0.0)! -->
<g id="edge5" class="edge">
<title>Sequence*&#45;&gt;place at (0.0, 0.05, 0.0)!</title>
<path fill="none" stroke="black" d="M171.3,-215.7C170.97,-207.98 170.57,-198.71 170.21,-190.11"/>
<polygon fill="black" stroke="black" points="173.7,-189.95 169.78,-180.1 166.71,-190.25 173.7,-189.95"/>
</g>
<!-- pick 0!* -->
<g id="node8" class="node">
<title>pick 0!*</title>
<ellipse fill="gray" stroke="black" cx="272.04" cy="-162" rx="27" ry="18"/>
<text text-anchor="middle" x="272.04" y="-159.8" font-family="Times,serif" font-size="9.00">pick 0!*</text>
</g>
<!-- Sequence**&#45;&gt;pick 0!* -->
<g id="edge7" class="edge">
<title>Sequence**&#45;&gt;pick 0!*</title>
<path fill="none" stroke="black" d="M269.03,-215.7C269.47,-207.98 270,-198.71 270.5,-190.11"/>
<polygon fill="black" stroke="black" points="273.99,-190.29 271.07,-180.1 267,-189.89 273.99,-190.29"/>
</g>
<!-- place at (0.0, 0.05, 0.0)!* -->
<g id="node9" class="node">
<title>place at (0.0, 0.05, 0.0)!*</title>
<ellipse fill="gray" stroke="black" cx="378.04" cy="-162" rx="61.4" ry="18"/>
<text text-anchor="middle" x="378.04" y="-159.8" font-family="Times,serif" font-size="9.00">place at (0.0, 0.05, 0.0)!*</text>
</g>
<!-- Sequence**&#45;&gt;place at (0.0, 0.05, 0.0)!* -->
<g id="edge8" class="edge">
<title>Sequence**&#45;&gt;place at (0.0, 0.05, 0.0)!*</title>
<path fill="none" stroke="black" d="M289.78,-219.17C305.35,-209.26 326.61,-195.73 344.37,-184.43"/>
<polygon fill="black" stroke="black" points="346.73,-187.08 353.29,-178.76 342.97,-181.17 346.73,-187.08"/>
</g>
<!-- 2 on 1? -->
<g id="node11" class="node">
<title>2 on 1?</title>
<ellipse fill="gray" stroke="black" cx="350.04" cy="-234" rx="27" ry="18"/>
<text text-anchor="middle" x="350.04" y="-231.8" font-family="Times,serif" font-size="9.00">2 on 1?</text>
</g>
<!-- Fallback*&#45;&gt;2 on 1? -->
<g id="edge10" class="edge">
<title>Fallback*&#45;&gt;2 on 1?</title>
<path fill="none" stroke="black" d="M442.32,-292.16C424.2,-280.93 397.73,-264.54 377.79,-252.18"/>
<polygon fill="black" stroke="black" points="379.48,-249.12 369.13,-246.83 375.79,-255.07 379.48,-249.12"/>
</g>
<!-- 1 at pos (0.0, 0.05, 0.0192)? -->
<g id="node12" class="node">
<title>1 at pos (0.0, 0.05, 0.0192)?</title>
<ellipse fill="gray" stroke="black" cx="463.04" cy="-234" rx="67.6" ry="18"/>
<text text-anchor="middle" x="463.04" y="-231.8" font-family="Times,serif" font-size="9.00">1 at pos (0.0, 0.05, 0.0192)?</text>
</g>
<!-- Fallback*&#45;&gt;1 at pos (0.0, 0.05, 0.0192)? -->
<g id="edge11" class="edge">
<title>Fallback*&#45;&gt;1 at pos (0.0, 0.05, 0.0192)?</title>
<path fill="none" stroke="black" d="M463.04,-287.7C463.04,-279.98 463.04,-270.71 463.04,-262.11"/>
<polygon fill="black" stroke="black" points="466.54,-262.1 463.04,-252.1 459.54,-262.1 466.54,-262.1"/>
</g>
<!-- Sequence*** -->
<g id="node13" class="node">
<title>Sequence***</title>
<polygon fill="cyan" stroke="black" points="629.03,-226.54 629.03,-241.46 605.61,-252 572.48,-252 549.05,-241.46 549.05,-226.54 572.48,-216 605.61,-216 629.03,-226.54"/>
<text text-anchor="middle" x="589.04" y="-231.8" font-family="Times,serif" font-size="9.00">Sequence***</text>
</g>
<!-- Fallback*&#45;&gt;Sequence*** -->
<g id="edge12" class="edge">
<title>Fallback*&#45;&gt;Sequence***</title>
<path fill="none" stroke="black" d="M484.99,-292.81C504.45,-282 533.16,-266.05 555.5,-253.64"/>
<polygon fill="black" stroke="black" points="557.29,-256.65 564.33,-248.73 553.89,-250.53 557.29,-256.65"/>
</g>
<!-- Sequence***** -->
<g id="node20" class="node">
<title>Sequence*****</title>
<polygon fill="cyan" stroke="black" points="738.78,-226.54 738.78,-241.46 711.99,-252 674.1,-252 647.31,-241.46 647.31,-226.54 674.1,-216 711.99,-216 738.78,-226.54"/>
<text text-anchor="middle" x="693.04" y="-231.8" font-family="Times,serif" font-size="9.00">Sequence*****</text>
</g>
<!-- Fallback*&#45;&gt;Sequence***** -->
<g id="edge19" class="edge">
<title>Fallback*&#45;&gt;Sequence*****</title>
<path fill="none" stroke="black" d="M487.56,-294.22C492.94,-292.03 498.65,-289.84 504.04,-288 562.43,-268.15 578.8,-269.11 638.04,-252 641.56,-250.98 645.2,-249.91 648.86,-248.82"/>
<polygon fill="black" stroke="black" points="649.93,-252.15 658.48,-245.9 647.9,-245.45 649.93,-252.15"/>
</g>
<!-- Fallback** -->
<g id="node14" class="node">
<title>Fallback**</title>
<polygon fill="cyan" stroke="black" points="537.04,-154.54 537.04,-169.46 516.54,-180 487.55,-180 467.05,-169.46 467.05,-154.54 487.55,-144 516.54,-144 537.04,-154.54"/>
<text text-anchor="middle" x="502.04" y="-159.8" font-family="Times,serif" font-size="9.00">Fallback**</text>
</g>
<!-- Sequence***&#45;&gt;Fallback** -->
<g id="edge13" class="edge">
<title>Sequence***&#45;&gt;Fallback**</title>
<path fill="none" stroke="black" d="M569.3,-217.12C557.26,-207.43 541.72,-194.92 528.61,-184.37"/>
<polygon fill="black" stroke="black" points="530.8,-181.64 520.81,-178.1 526.41,-187.1 530.8,-181.64"/>
</g>
<!-- apply force 1! -->
<g id="node19" class="node">
<title>apply force 1!</title>
<ellipse fill="gray" stroke="black" cx="593.04" cy="-162" rx="38.21" ry="18"/>
<text text-anchor="middle" x="593.04" y="-159.8" font-family="Times,serif" font-size="9.00">apply force 1!</text>
</g>
<!-- Sequence***&#45;&gt;apply force 1! -->
<g id="edge18" class="edge">
<title>Sequence***&#45;&gt;apply force 1!</title>
<path fill="none" stroke="black" d="M590.03,-215.7C590.47,-207.98 591,-198.71 591.5,-190.11"/>
<polygon fill="black" stroke="black" points="594.99,-190.29 592.07,-180.1 588,-189.89 594.99,-190.29"/>
</g>
<!-- 1 on 0? -->
<g id="node15" class="node">
<title>1 on 0?</title>
<ellipse fill="gray" stroke="black" cx="465.04" cy="-90" rx="27" ry="18"/>
<text text-anchor="middle" x="465.04" y="-87.8" font-family="Times,serif" font-size="9.00">1 on 0?</text>
</g>
<!-- Fallback**&#45;&gt;1 on 0? -->
<g id="edge14" class="edge">
<title>Fallback**&#45;&gt;1 on 0?</title>
<path fill="none" stroke="black" d="M492.9,-143.7C488.51,-135.4 483.18,-125.31 478.36,-116.19"/>
<polygon fill="black" stroke="black" points="481.35,-114.35 473.58,-107.14 475.16,-117.62 481.35,-114.35"/>
</g>
<!-- Sequence**** -->
<g id="node16" class="node">
<title>Sequence****</title>
<polygon fill="cyan" stroke="black" points="594.53,-82.54 594.53,-97.46 569.64,-108 534.44,-108 509.56,-97.46 509.56,-82.54 534.44,-72 569.64,-72 594.53,-82.54"/>
<text text-anchor="middle" x="552.04" y="-87.8" font-family="Times,serif" font-size="9.00">Sequence****</text>
</g>
<!-- Fallback**&#45;&gt;Sequence**** -->
<g id="edge15" class="edge">
<title>Fallback**&#45;&gt;Sequence****</title>
<path fill="none" stroke="black" d="M514.4,-143.7C520.28,-135.47 527.41,-125.48 533.89,-116.42"/>
<polygon fill="black" stroke="black" points="536.86,-118.28 539.83,-108.1 531.17,-114.21 536.86,-118.28"/>
</g>
<!-- pick 1! -->
<g id="node17" class="node">
<title>pick 1!</title>
<ellipse fill="gray" stroke="black" cx="514.04" cy="-18" rx="27" ry="18"/>
<text text-anchor="middle" x="514.04" y="-15.8" font-family="Times,serif" font-size="9.00">pick 1!</text>
</g>
<!-- Sequence****&#45;&gt;pick 1! -->
<g id="edge16" class="edge">
<title>Sequence****&#45;&gt;pick 1!</title>
<path fill="none" stroke="black" d="M542.65,-71.7C538.15,-63.4 532.67,-53.31 527.72,-44.19"/>
<polygon fill="black" stroke="black" points="530.66,-42.26 522.81,-35.14 524.5,-45.6 530.66,-42.26"/>
</g>
<!-- place on 0! -->
<g id="node18" class="node">
<title>place on 0!</title>
<ellipse fill="gray" stroke="black" cx="591.04" cy="-18" rx="32.16" ry="18"/>
<text text-anchor="middle" x="591.04" y="-15.8" font-family="Times,serif" font-size="9.00">place on 0!</text>
</g>
<!-- Sequence****&#45;&gt;place on 0! -->
<g id="edge17" class="edge">
<title>Sequence****&#45;&gt;place on 0!</title>
<path fill="none" stroke="black" d="M561.68,-71.7C566.24,-63.52 571.77,-53.6 576.79,-44.58"/>
<polygon fill="black" stroke="black" points="579.97,-46.06 581.78,-35.62 573.86,-42.65 579.97,-46.06"/>
</g>
<!-- Fallback*** -->
<g id="node21" class="node">
<title>Fallback***</title>
<polygon fill="cyan" stroke="black" points="727.53,-154.54 727.53,-169.46 705.57,-180 674.52,-180 652.55,-169.46 652.55,-154.54 674.52,-144 705.57,-144 727.53,-154.54"/>
<text text-anchor="middle" x="690.04" y="-159.8" font-family="Times,serif" font-size="9.00">Fallback***</text>
</g>
<!-- Sequence*****&#45;&gt;Fallback*** -->
<g id="edge20" class="edge">
<title>Sequence*****&#45;&gt;Fallback***</title>
<path fill="none" stroke="black" d="M692.3,-215.7C691.97,-207.98 691.57,-198.71 691.21,-190.11"/>
<polygon fill="black" stroke="black" points="694.7,-189.95 690.78,-180.1 687.71,-190.25 694.7,-189.95"/>
</g>
<!-- place at (0.0, 0.05, 0.0)!** -->
<g id="node24" class="node">
<title>place at (0.0, 0.05, 0.0)!**</title>
<ellipse fill="gray" stroke="black" cx="809.04" cy="-162" rx="63.52" ry="18"/>
<text text-anchor="middle" x="809.04" y="-159.8" font-family="Times,serif" font-size="9.00">place at (0.0, 0.05, 0.0)!**</text>
</g>
<!-- Sequence*****&#45;&gt;place at (0.0, 0.05, 0.0)!** -->
<g id="edge23" class="edge">
<title>Sequence*****&#45;&gt;place at (0.0, 0.05, 0.0)!**</title>
<path fill="none" stroke="black" d="M717.65,-218.15C734.22,-208.15 756.31,-194.82 774.63,-183.77"/>
<polygon fill="black" stroke="black" points="776.52,-186.71 783.27,-178.55 772.9,-180.72 776.52,-186.71"/>
</g>
<!-- picked 0? -->
<g id="node22" class="node">
<title>picked 0?</title>
<ellipse fill="gray" stroke="black" cx="651.04" cy="-90" rx="28.74" ry="18"/>
<text text-anchor="middle" x="651.04" y="-87.8" font-family="Times,serif" font-size="9.00">picked 0?</text>
</g>
<!-- Fallback***&#45;&gt;picked 0? -->
<g id="edge21" class="edge">
<title>Fallback***&#45;&gt;picked 0?</title>
<path fill="none" stroke="black" d="M680.4,-143.7C675.73,-135.32 670.04,-125.1 664.92,-115.9"/>
<polygon fill="black" stroke="black" points="667.96,-114.18 660.04,-107.14 661.85,-117.58 667.96,-114.18"/>
</g>
<!-- pick 0!** -->
<g id="node23" class="node">
<title>pick 0!**</title>
<ellipse fill="gray" stroke="black" cx="727.04" cy="-90" rx="28.74" ry="18"/>
<text text-anchor="middle" x="727.04" y="-87.8" font-family="Times,serif" font-size="9.00">pick 0!**</text>
</g>
<!-- Fallback***&#45;&gt;pick 0!** -->
<g id="edge22" class="edge">
<title>Fallback***&#45;&gt;pick 0!**</title>
<path fill="none" stroke="black" d="M699.19,-143.7C703.51,-135.52 708.75,-125.6 713.52,-116.58"/>
<polygon fill="black" stroke="black" points="716.68,-118.1 718.26,-107.62 710.49,-114.83 716.68,-118.1"/>
</g>
</g>
</svg>
