<?xml version="1.0" encoding="UTF-8" standalone="no"?>
<!DOCTYPE svg PUBLIC "-//W3C//DTD SVG 1.1//EN"
 "http://www.w3.org/Graphics/SVG/1.1/DTD/svg11.dtd">
<!-- Generated by graphviz version 2.43.0 (0)
 -->
<!-- Title: pastafarianism Pages: 1 -->
<svg width="1159pt" height="548pt"
 viewBox="0.00 0.00 1159.15 548.00" xmlns="http://www.w3.org/2000/svg" xmlns:xlink="http://www.w3.org/1999/xlink">
<g id="graph0" class="graph" transform="scale(1 1) rotate(0) translate(4 544)">
<title>pastafarianism</title>
<polygon fill="white" stroke="transparent" points="-4,4 -4,-544 1155.15,-544 1155.15,4 -4,4"/>
<!-- Sequence -->
<g id="node1" class="node">
<title>Sequence</title>
<polygon fill="cyan" stroke="black" points="586.54,-514.54 586.54,-529.46 568.09,-540 542,-540 523.55,-529.46 523.55,-514.54 542,-504 568.09,-504 586.54,-514.54"/>
<text text-anchor="middle" x="555.04" y="-519.8" font-family="Times,serif" font-size="9.00">Sequence</text>
</g>
<!-- Fallback -->
<g id="node2" class="node">
<title>Fallback</title>
<polygon fill="cyan" stroke="black" points="258.29,-442.54 258.29,-457.46 241.16,-468 216.93,-468 199.8,-457.46 199.8,-442.54 216.93,-432 241.16,-432 258.29,-442.54"/>
<text text-anchor="middle" x="229.04" y="-447.8" font-family="Times,serif" font-size="9.00">Fallback</text>
</g>
<!-- Sequence&#45;&gt;Fallback -->
<g id="edge1" class="edge">
<title>Sequence&#45;&gt;Fallback</title>
<path fill="none" stroke="black" d="M523.79,-514.29C464.03,-501.46 333.73,-473.48 268.25,-459.42"/>
<polygon fill="black" stroke="black" points="268.83,-455.96 258.32,-457.29 267.36,-462.81 268.83,-455.96"/>
</g>
<!-- Fallback** -->
<g id="node10" class="node">
<title>Fallback**</title>
<polygon fill="cyan" stroke="black" points="590.04,-442.54 590.04,-457.46 569.54,-468 540.55,-468 520.05,-457.46 520.05,-442.54 540.55,-432 569.54,-432 590.04,-442.54"/>
<text text-anchor="middle" x="555.04" y="-447.8" font-family="Times,serif" font-size="9.00">Fallback**</text>
</g>
<!-- Sequence&#45;&gt;Fallback** -->
<g id="edge9" class="edge">
<title>Sequence&#45;&gt;Fallback**</title>
<path fill="none" stroke="black" d="M555.04,-503.7C555.04,-495.98 555.04,-486.71 555.04,-478.11"/>
<polygon fill="black" stroke="black" points="558.54,-478.1 555.04,-468.1 551.54,-478.1 558.54,-478.1"/>
</g>
<!-- Fallback***** -->
<g id="node25" class="node">
<title>Fallback*****</title>
<polygon fill="cyan" stroke="black" points="912.28,-442.54 912.28,-457.46 886.95,-468 851.13,-468 825.81,-457.46 825.81,-442.54 851.13,-432 886.95,-432 912.28,-442.54"/>
<text text-anchor="middle" x="869.04" y="-447.8" font-family="Times,serif" font-size="9.00">Fallback*****</text>
</g>
<!-- Sequence&#45;&gt;Fallback***** -->
<g id="edge24" class="edge">
<title>Sequence&#45;&gt;Fallback*****</title>
<path fill="none" stroke="black" d="M586.01,-514.1C640.79,-501.88 755.16,-476.39 820.5,-461.82"/>
<polygon fill="black" stroke="black" points="821.55,-465.17 830.55,-459.58 820.03,-458.34 821.55,-465.17"/>
</g>
<!-- 0 at pos (0.0, 0.05, 0.0)? -->
<g id="node3" class="node">
<title>0 at pos (0.0, 0.05, 0.0)?</title>
<ellipse fill="gray" stroke="black" cx="60.04" cy="-378" rx="60.09" ry="18"/>
<text text-anchor="middle" x="60.04" y="-375.8" font-family="Times,serif" font-size="9.00">0 at pos (0.0, 0.05, 0.0)?</text>
</g>
<!-- Fallback&#45;&gt;0 at pos (0.0, 0.05, 0.0)? -->
<g id="edge2" class="edge">
<title>Fallback&#45;&gt;0 at pos (0.0, 0.05, 0.0)?</title>
<path fill="none" stroke="black" d="M205.19,-439.12C178.69,-428.14 135.37,-410.2 102.94,-396.77"/>
<polygon fill="black" stroke="black" points="104.26,-393.53 93.69,-392.93 101.59,-399.99 104.26,-393.53"/>
</g>
<!-- Sequence* -->
<g id="node4" class="node">
<title>Sequence*</title>
<polygon fill="cyan" stroke="black" points="206.29,-370.54 206.29,-385.46 186.23,-396 157.86,-396 137.8,-385.46 137.8,-370.54 157.86,-360 186.23,-360 206.29,-370.54"/>
<text text-anchor="middle" x="172.04" y="-375.8" font-family="Times,serif" font-size="9.00">Sequence*</text>
</g>
<!-- Fallback&#45;&gt;Sequence* -->
<g id="edge3" class="edge">
<title>Fallback&#45;&gt;Sequence*</title>
<path fill="none" stroke="black" d="M215.54,-432.41C208.71,-424.03 200.29,-413.68 192.67,-404.33"/>
<polygon fill="black" stroke="black" points="195.28,-401.99 186.25,-396.45 189.85,-406.41 195.28,-401.99"/>
</g>
<!-- place at (0.0, 0.05, 0.0)!* -->
<g id="node9" class="node">
<title>place at (0.0, 0.05, 0.0)!*</title>
<ellipse fill="gray" stroke="black" cx="286.04" cy="-378" rx="61.4" ry="18"/>
<text text-anchor="middle" x="286.04" y="-375.8" font-family="Times,serif" font-size="9.00">place at (0.0, 0.05, 0.0)!*</text>
</g>
<!-- Fallback&#45;&gt;place at (0.0, 0.05, 0.0)!* -->
<g id="edge8" class="edge">
<title>Fallback&#45;&gt;place at (0.0, 0.05, 0.0)!*</title>
<path fill="none" stroke="black" d="M242.55,-432.41C249.48,-423.91 258.06,-413.37 265.76,-403.91"/>
<polygon fill="black" stroke="black" points="268.64,-405.92 272.24,-395.96 263.21,-401.5 268.64,-405.92"/>
</g>
<!-- Fallback* -->
<g id="node5" class="node">
<title>Fallback*</title>
<polygon fill="cyan" stroke="black" points="149.79,-298.54 149.79,-313.46 131.19,-324 104.9,-324 86.3,-313.46 86.3,-298.54 104.9,-288 131.19,-288 149.79,-298.54"/>
<text text-anchor="middle" x="118.04" y="-303.8" font-family="Times,serif" font-size="9.00">Fallback*</text>
</g>
<!-- Sequence*&#45;&gt;Fallback* -->
<g id="edge4" class="edge">
<title>Sequence*&#45;&gt;Fallback*</title>
<path fill="none" stroke="black" d="M158.7,-359.7C152.29,-351.39 144.49,-341.28 137.44,-332.14"/>
<polygon fill="black" stroke="black" points="140.12,-329.88 131.24,-324.1 134.58,-334.16 140.12,-329.88"/>
</g>
<!-- place at (0.0, 0.05, 0.0)! -->
<g id="node8" class="node">
<title>place at (0.0, 0.05, 0.0)!</title>
<ellipse fill="gray" stroke="black" cx="226.04" cy="-306" rx="58.13" ry="18"/>
<text text-anchor="middle" x="226.04" y="-303.8" font-family="Times,serif" font-size="9.00">place at (0.0, 0.05, 0.0)!</text>
</g>
<!-- Sequence*&#45;&gt;place at (0.0, 0.05, 0.0)! -->
<g id="edge7" class="edge">
<title>Sequence*&#45;&gt;place at (0.0, 0.05, 0.0)!</title>
<path fill="none" stroke="black" d="M185.39,-359.7C191.9,-351.27 199.84,-340.97 206.97,-331.73"/>
<polygon fill="black" stroke="black" points="209.88,-333.68 213.22,-323.62 204.34,-329.4 209.88,-333.68"/>
</g>
<!-- picked 0? -->
<g id="node6" class="node">
<title>picked 0?</title>
<ellipse fill="gray" stroke="black" cx="81.04" cy="-234" rx="28.74" ry="18"/>
<text text-anchor="middle" x="81.04" y="-231.8" font-family="Times,serif" font-size="9.00">picked 0?</text>
</g>
<!-- Fallback*&#45;&gt;picked 0? -->
<g id="edge5" class="edge">
<title>Fallback*&#45;&gt;picked 0?</title>
<path fill="none" stroke="black" d="M108.9,-287.7C104.58,-279.52 99.33,-269.6 94.57,-260.58"/>
<polygon fill="black" stroke="black" points="97.6,-258.83 89.83,-251.62 91.41,-262.1 97.6,-258.83"/>
</g>
<!-- pick 0! -->
<g id="node7" class="node">
<title>pick 0!</title>
<ellipse fill="gray" stroke="black" cx="155.04" cy="-234" rx="27" ry="18"/>
<text text-anchor="middle" x="155.04" y="-231.8" font-family="Times,serif" font-size="9.00">pick 0!</text>
</g>
<!-- Fallback*&#45;&gt;pick 0! -->
<g id="edge6" class="edge">
<title>Fallback*&#45;&gt;pick 0!</title>
<path fill="none" stroke="black" d="M127.19,-287.7C131.57,-279.4 136.91,-269.31 141.73,-260.19"/>
<polygon fill="black" stroke="black" points="144.93,-261.62 146.51,-251.14 138.74,-258.35 144.93,-261.62"/>
</g>
<!-- 1 at pos (0.0, 0.05, 0.0192)? -->
<g id="node11" class="node">
<title>1 at pos (0.0, 0.05, 0.0192)?</title>
<ellipse fill="gray" stroke="black" cx="433.04" cy="-378" rx="67.6" ry="18"/>
<text text-anchor="middle" x="433.04" y="-375.8" font-family="Times,serif" font-size="9.00">1 at pos (0.0, 0.05, 0.0192)?</text>
</g>
<!-- Fallback**&#45;&gt;1 at pos (0.0, 0.05, 0.0192)? -->
<g id="edge10" class="edge">
<title>Fallback**&#45;&gt;1 at pos (0.0, 0.05, 0.0192)?</title>
<path fill="none" stroke="black" d="M532.38,-436C514.62,-425.8 489.55,-411.42 469.04,-399.65"/>
<polygon fill="black" stroke="black" points="470.69,-396.57 460.28,-394.62 467.21,-402.64 470.69,-396.57"/>
</g>
<!-- Sequence** -->
<g id="node12" class="node">
<title>Sequence**</title>
<polygon fill="cyan" stroke="black" points="591.79,-370.54 591.79,-385.46 570.26,-396 539.83,-396 518.3,-385.46 518.3,-370.54 539.83,-360 570.26,-360 591.79,-370.54"/>
<text text-anchor="middle" x="555.04" y="-375.8" font-family="Times,serif" font-size="9.00">Sequence**</text>
</g>
<!-- Fallback**&#45;&gt;Sequence** -->
<g id="edge11" class="edge">
<title>Fallback**&#45;&gt;Sequence**</title>
<path fill="none" stroke="black" d="M555.04,-431.7C555.04,-423.98 555.04,-414.71 555.04,-406.11"/>
<polygon fill="black" stroke="black" points="558.54,-406.1 555.04,-396.1 551.54,-406.1 558.54,-406.1"/>
</g>
<!-- 1 at pos (0.0, 0.05, 0.0192)?* -->
<g id="node24" class="node">
<title>1 at pos (0.0, 0.05, 0.0192)?*</title>
<ellipse fill="gray" stroke="black" cx="680.04" cy="-378" rx="70.37" ry="18"/>
<text text-anchor="middle" x="680.04" y="-375.8" font-family="Times,serif" font-size="9.00">1 at pos (0.0, 0.05, 0.0192)?*</text>
</g>
<!-- Fallback**&#45;&gt;1 at pos (0.0, 0.05, 0.0192)?* -->
<g id="edge23" class="edge">
<title>Fallback**&#45;&gt;1 at pos (0.0, 0.05, 0.0192)?*</title>
<path fill="none" stroke="black" d="M577.97,-436.16C596.23,-425.94 622.13,-411.43 643.28,-399.59"/>
<polygon fill="black" stroke="black" points="645,-402.64 652.01,-394.7 641.58,-396.53 645,-402.64"/>
</g>
<!-- Fallback*** -->
<g id="node13" class="node">
<title>Fallback***</title>
<polygon fill="cyan" stroke="black" points="544.53,-298.54 544.53,-313.46 522.57,-324 491.52,-324 469.55,-313.46 469.55,-298.54 491.52,-288 522.57,-288 544.53,-298.54"/>
<text text-anchor="middle" x="507.04" y="-303.8" font-family="Times,serif" font-size="9.00">Fallback***</text>
</g>
<!-- Sequence**&#45;&gt;Fallback*** -->
<g id="edge12" class="edge">
<title>Sequence**&#45;&gt;Fallback***</title>
<path fill="none" stroke="black" d="M543.18,-359.7C537.54,-351.47 530.69,-341.48 524.48,-332.42"/>
<polygon fill="black" stroke="black" points="527.31,-330.37 518.77,-324.1 521.54,-334.33 527.31,-330.37"/>
</g>
<!-- apply force 1!* -->
<g id="node23" class="node">
<title>apply force 1!*</title>
<ellipse fill="gray" stroke="black" cx="603.04" cy="-306" rx="40.98" ry="18"/>
<text text-anchor="middle" x="603.04" y="-303.8" font-family="Times,serif" font-size="9.00">apply force 1!*</text>
</g>
<!-- Sequence**&#45;&gt;apply force 1!* -->
<g id="edge22" class="edge">
<title>Sequence**&#45;&gt;apply force 1!*</title>
<path fill="none" stroke="black" d="M566.91,-359.7C572.63,-351.35 579.6,-341.18 585.89,-332.02"/>
<polygon fill="black" stroke="black" points="588.88,-333.85 591.65,-323.62 583.1,-329.89 588.88,-333.85"/>
</g>
<!-- 1 on 0? -->
<g id="node14" class="node">
<title>1 on 0?</title>
<ellipse fill="gray" stroke="black" cx="465.04" cy="-234" rx="27" ry="18"/>
<text text-anchor="middle" x="465.04" y="-231.8" font-family="Times,serif" font-size="9.00">1 on 0?</text>
</g>
<!-- Fallback***&#45;&gt;1 on 0? -->
<g id="edge13" class="edge">
<title>Fallback***&#45;&gt;1 on 0?</title>
<path fill="none" stroke="black" d="M496.66,-287.7C491.63,-279.32 485.5,-269.1 479.98,-259.9"/>
<polygon fill="black" stroke="black" points="482.88,-257.92 474.73,-251.14 476.87,-261.52 482.88,-257.92"/>
</g>
<!-- Sequence*** -->
<g id="node15" class="node">
<title>Sequence***</title>
<polygon fill="cyan" stroke="black" points="590.03,-226.54 590.03,-241.46 566.61,-252 533.48,-252 510.05,-241.46 510.05,-226.54 533.48,-216 566.61,-216 590.03,-226.54"/>
<text text-anchor="middle" x="550.04" y="-231.8" font-family="Times,serif" font-size="9.00">Sequence***</text>
</g>
<!-- Fallback***&#45;&gt;Sequence*** -->
<g id="edge14" class="edge">
<title>Fallback***&#45;&gt;Sequence***</title>
<path fill="none" stroke="black" d="M517.67,-287.7C522.67,-279.56 528.74,-269.69 534.26,-260.7"/>
<polygon fill="black" stroke="black" points="537.29,-262.46 539.54,-252.1 531.32,-258.79 537.29,-262.46"/>
</g>
<!-- Fallback**** -->
<g id="node16" class="node">
<title>Fallback****</title>
<polygon fill="cyan" stroke="black" points="545.78,-154.54 545.78,-169.46 521.92,-180 488.17,-180 464.3,-169.46 464.3,-154.54 488.17,-144 521.92,-144 545.78,-154.54"/>
<text text-anchor="middle" x="505.04" y="-159.8" font-family="Times,serif" font-size="9.00">Fallback****</text>
</g>
<!-- Sequence***&#45;&gt;Fallback**** -->
<g id="edge15" class="edge">
<title>Sequence***&#45;&gt;Fallback****</title>
<path fill="none" stroke="black" d="M538.92,-215.7C533.69,-207.56 527.34,-197.69 521.57,-188.7"/>
<polygon fill="black" stroke="black" points="524.39,-186.62 516.04,-180.1 518.5,-190.41 524.39,-186.62"/>
</g>
<!-- place on 0! -->
<g id="node22" class="node">
<title>place on 0!</title>
<ellipse fill="gray" stroke="black" cx="596.04" cy="-162" rx="32.16" ry="18"/>
<text text-anchor="middle" x="596.04" y="-159.8" font-family="Times,serif" font-size="9.00">place on 0!</text>
</g>
<!-- Sequence***&#45;&gt;place on 0! -->
<g id="edge21" class="edge">
<title>Sequence***&#45;&gt;place on 0!</title>
<path fill="none" stroke="black" d="M561.42,-215.7C566.98,-207.23 573.78,-196.89 579.87,-187.61"/>
<polygon fill="black" stroke="black" points="582.87,-189.42 585.44,-179.14 577.02,-185.58 582.87,-189.42"/>
</g>
<!-- picked 1? -->
<g id="node17" class="node">
<title>picked 1?</title>
<ellipse fill="gray" stroke="black" cx="431.04" cy="-90" rx="28.74" ry="18"/>
<text text-anchor="middle" x="431.04" y="-87.8" font-family="Times,serif" font-size="9.00">picked 1?</text>
</g>
<!-- Fallback****&#45;&gt;picked 1? -->
<g id="edge16" class="edge">
<title>Fallback****&#45;&gt;picked 1?</title>
<path fill="none" stroke="black" d="M487.13,-144.05C477.08,-134.55 464.44,-122.59 453.71,-112.44"/>
<polygon fill="black" stroke="black" points="455.96,-109.75 446.29,-105.42 451.15,-114.84 455.96,-109.75"/>
</g>
<!-- pick 1! -->
<g id="node18" class="node">
<title>pick 1!</title>
<ellipse fill="gray" stroke="black" cx="505.04" cy="-90" rx="27" ry="18"/>
<text text-anchor="middle" x="505.04" y="-87.8" font-family="Times,serif" font-size="9.00">pick 1!</text>
</g>
<!-- Fallback****&#45;&gt;pick 1! -->
<g id="edge17" class="edge">
<title>Fallback****&#45;&gt;pick 1!</title>
<path fill="none" stroke="black" d="M505.04,-143.7C505.04,-135.98 505.04,-126.71 505.04,-118.11"/>
<polygon fill="black" stroke="black" points="508.54,-118.1 505.04,-108.1 501.54,-118.1 508.54,-118.1"/>
</g>
<!-- Sequence**** -->
<g id="node19" class="node">
<title>Sequence****</title>
<polygon fill="cyan" stroke="black" points="634.53,-82.54 634.53,-97.46 609.64,-108 574.44,-108 549.56,-97.46 549.56,-82.54 574.44,-72 609.64,-72 634.53,-82.54"/>
<text text-anchor="middle" x="592.04" y="-87.8" font-family="Times,serif" font-size="9.00">Sequence****</text>
</g>
<!-- Fallback****&#45;&gt;Sequence**** -->
<g id="edge18" class="edge">
<title>Fallback****&#45;&gt;Sequence****</title>
<path fill="none" stroke="black" d="M524.79,-145.12C536.38,-135.78 551.23,-123.84 564.02,-113.55"/>
<polygon fill="black" stroke="black" points="566.48,-116.06 572.08,-107.06 562.09,-110.61 566.48,-116.06"/>
</g>
<!-- apply force 1! -->
<g id="node20" class="node">
<title>apply force 1!</title>
<ellipse fill="gray" stroke="black" cx="548.04" cy="-18" rx="38.21" ry="18"/>
<text text-anchor="middle" x="548.04" y="-15.8" font-family="Times,serif" font-size="9.00">apply force 1!</text>
</g>
<!-- Sequence****&#45;&gt;apply force 1! -->
<g id="edge19" class="edge">
<title>Sequence****&#45;&gt;apply force 1!</title>
<path fill="none" stroke="black" d="M581.17,-71.7C575.98,-63.44 569.66,-53.39 563.95,-44.3"/>
<polygon fill="black" stroke="black" points="566.78,-42.23 558.49,-35.62 560.85,-45.95 566.78,-42.23"/>
</g>
<!-- place on 1! -->
<g id="node21" class="node">
<title>place on 1!</title>
<ellipse fill="gray" stroke="black" cx="636.04" cy="-18" rx="32.16" ry="18"/>
<text text-anchor="middle" x="636.04" y="-15.8" font-family="Times,serif" font-size="9.00">place on 1!</text>
</g>
<!-- Sequence****&#45;&gt;place on 1! -->
<g id="edge20" class="edge">
<title>Sequence****&#45;&gt;place on 1!</title>
<path fill="none" stroke="black" d="M602.92,-71.7C608.24,-63.23 614.75,-52.89 620.57,-43.61"/>
<polygon fill="black" stroke="black" points="623.54,-45.47 625.9,-35.14 617.61,-41.75 623.54,-45.47"/>
</g>
<!-- apply force 0! -->
<g id="node26" class="node">
<title>apply force 0!</title>
<ellipse fill="gray" stroke="black" cx="807.04" cy="-378" rx="38.21" ry="18"/>
<text text-anchor="middle" x="807.04" y="-375.8" font-family="Times,serif" font-size="9.00">apply force 0!</text>
</g>
<!-- Fallback*****&#45;&gt;apply force 0! -->
<g id="edge25" class="edge">
<title>Fallback*****&#45;&gt;apply force 0!</title>
<path fill="none" stroke="black" d="M853.72,-431.7C845.99,-422.97 836.49,-412.24 828.08,-402.75"/>
<polygon fill="black" stroke="black" points="830.59,-400.31 821.34,-395.14 825.35,-404.95 830.59,-400.31"/>
</g>
<!-- 2 at pos (0.0, 0.05, 0.0384)? -->
<g id="node27" class="node">
<title>2 at pos (0.0, 0.05, 0.0384)?</title>
<ellipse fill="gray" stroke="black" cx="931.04" cy="-378" rx="67.6" ry="18"/>
<text text-anchor="middle" x="931.04" y="-375.8" font-family="Times,serif" font-size="9.00">2 at pos (0.0, 0.05, 0.0384)?</text>
</g>
<!-- Fallback*****&#45;&gt;2 at pos (0.0, 0.05, 0.0384)? -->
<g id="edge26" class="edge">
<title>Fallback*****&#45;&gt;2 at pos (0.0, 0.05, 0.0384)?</title>
<path fill="none" stroke="black" d="M884.37,-431.7C891.99,-423.09 901.33,-412.55 909.64,-403.17"/>
<polygon fill="black" stroke="black" points="912.31,-405.43 916.32,-395.62 907.07,-400.79 912.31,-405.43"/>
</g>
<!-- Sequence***** -->
<g id="node28" class="node">
<title>Sequence*****</title>
<polygon fill="cyan" stroke="black" points="1107.78,-370.54 1107.78,-385.46 1080.99,-396 1043.1,-396 1016.31,-385.46 1016.31,-370.54 1043.1,-360 1080.99,-360 1107.78,-370.54"/>
<text text-anchor="middle" x="1062.04" y="-375.8" font-family="Times,serif" font-size="9.00">Sequence*****</text>
</g>
<!-- Fallback*****&#45;&gt;Sequence***** -->
<g id="edge27" class="edge">
<title>Fallback*****&#45;&gt;Sequence*****</title>
<path fill="none" stroke="black" d="M900.48,-437.6C933,-425.81 983.95,-407.32 1019.93,-394.27"/>
<polygon fill="black" stroke="black" points="1021.45,-397.45 1029.65,-390.75 1019.06,-390.87 1021.45,-397.45"/>
</g>
<!-- Fallback****** -->
<g id="node29" class="node">
<title>Fallback******</title>
<polygon fill="cyan" stroke="black" points="1057.53,-298.54 1057.53,-313.46 1030.3,-324 991.79,-324 964.56,-313.46 964.56,-298.54 991.79,-288 1030.3,-288 1057.53,-298.54"/>
<text text-anchor="middle" x="1011.04" y="-303.8" font-family="Times,serif" font-size="9.00">Fallback******</text>
</g>
<!-- Sequence*****&#45;&gt;Fallback****** -->
<g id="edge28" class="edge">
<title>Sequence*****&#45;&gt;Fallback******</title>
<path fill="none" stroke="black" d="M1049.44,-359.7C1043.45,-351.47 1036.17,-341.48 1029.57,-332.42"/>
<polygon fill="black" stroke="black" points="1032.22,-330.13 1023.51,-324.1 1026.57,-334.25 1032.22,-330.13"/>
</g>
<!-- apply force 2! -->
<g id="node36" class="node">
<title>apply force 2!</title>
<ellipse fill="gray" stroke="black" cx="1113.04" cy="-306" rx="38.21" ry="18"/>
<text text-anchor="middle" x="1113.04" y="-303.8" font-family="Times,serif" font-size="9.00">apply force 2!</text>
</g>
<!-- Sequence*****&#45;&gt;apply force 2! -->
<g id="edge35" class="edge">
<title>Sequence*****&#45;&gt;apply force 2!</title>
<path fill="none" stroke="black" d="M1074.65,-359.7C1080.88,-351.14 1088.51,-340.67 1095.32,-331.33"/>
<polygon fill="black" stroke="black" points="1098.22,-333.29 1101.28,-323.14 1092.56,-329.17 1098.22,-333.29"/>
</g>
<!-- 2 on 1? -->
<g id="node30" class="node">
<title>2 on 1?</title>
<ellipse fill="gray" stroke="black" cx="964.04" cy="-234" rx="27" ry="18"/>
<text text-anchor="middle" x="964.04" y="-231.8" font-family="Times,serif" font-size="9.00">2 on 1?</text>
</g>
<!-- Fallback******&#45;&gt;2 on 1? -->
<g id="edge29" class="edge">
<title>Fallback******&#45;&gt;2 on 1?</title>
<path fill="none" stroke="black" d="M999.43,-287.7C993.66,-279.11 986.59,-268.58 980.3,-259.21"/>
<polygon fill="black" stroke="black" points="983.05,-257.02 974.57,-250.67 977.24,-260.92 983.05,-257.02"/>
</g>
<!-- Sequence****** -->
<g id="node31" class="node">
<title>Sequence******</title>
<polygon fill="cyan" stroke="black" points="1105.28,-226.54 1105.28,-241.46 1077.03,-252 1037.06,-252 1008.81,-241.46 1008.81,-226.54 1037.06,-216 1077.03,-216 1105.28,-226.54"/>
<text text-anchor="middle" x="1057.04" y="-231.8" font-family="Times,serif" font-size="9.00">Sequence******</text>
</g>
<!-- Fallback******&#45;&gt;Sequence****** -->
<g id="edge30" class="edge">
<title>Fallback******&#45;&gt;Sequence******</title>
<path fill="none" stroke="black" d="M1022.42,-287.7C1027.76,-279.56 1034.25,-269.69 1040.16,-260.7"/>
<polygon fill="black" stroke="black" points="1043.24,-262.38 1045.8,-252.1 1037.39,-258.54 1043.24,-262.38"/>
</g>
<!-- Fallback******* -->
<g id="node32" class="node">
<title>Fallback*******</title>
<polygon fill="cyan" stroke="black" points="1055.03,-154.54 1055.03,-169.46 1026.34,-180 985.75,-180 957.06,-169.46 957.06,-154.54 985.75,-144 1026.34,-144 1055.03,-154.54"/>
<text text-anchor="middle" x="1006.04" y="-159.8" font-family="Times,serif" font-size="9.00">Fallback*******</text>
</g>
<!-- Sequence******&#45;&gt;Fallback******* -->
<g id="edge31" class="edge">
<title>Sequence******&#45;&gt;Fallback*******</title>
<path fill="none" stroke="black" d="M1044.44,-215.7C1038.45,-207.47 1031.17,-197.48 1024.57,-188.42"/>
<polygon fill="black" stroke="black" points="1027.22,-186.13 1018.51,-180.1 1021.57,-190.25 1027.22,-186.13"/>
</g>
<!-- place on 1!* -->
<g id="node35" class="node">
<title>place on 1!*</title>
<ellipse fill="gray" stroke="black" cx="1107.04" cy="-162" rx="34.78" ry="18"/>
<text text-anchor="middle" x="1107.04" y="-159.8" font-family="Times,serif" font-size="9.00">place on 1!*</text>
</g>
<!-- Sequence******&#45;&gt;place on 1!* -->
<g id="edge34" class="edge">
<title>Sequence******&#45;&gt;place on 1!*</title>
<path fill="none" stroke="black" d="M1069.4,-215.7C1075.51,-207.14 1082.99,-196.67 1089.67,-187.33"/>
<polygon fill="black" stroke="black" points="1092.55,-189.32 1095.51,-179.14 1086.85,-185.25 1092.55,-189.32"/>
</g>
<!-- picked 2? -->
<g id="node33" class="node">
<title>picked 2?</title>
<ellipse fill="gray" stroke="black" cx="969.04" cy="-90" rx="28.74" ry="18"/>
<text text-anchor="middle" x="969.04" y="-87.8" font-family="Times,serif" font-size="9.00">picked 2?</text>
</g>
<!-- Fallback*******&#45;&gt;picked 2? -->
<g id="edge32" class="edge">
<title>Fallback*******&#45;&gt;picked 2?</title>
<path fill="none" stroke="black" d="M996.9,-143.7C992.58,-135.52 987.33,-125.6 982.57,-116.58"/>
<polygon fill="black" stroke="black" points="985.6,-114.83 977.83,-107.62 979.41,-118.1 985.6,-114.83"/>
</g>
<!-- pick 2! -->
<g id="node34" class="node">
<title>pick 2!</title>
<ellipse fill="gray" stroke="black" cx="1043.04" cy="-90" rx="27" ry="18"/>
<text text-anchor="middle" x="1043.04" y="-87.8" font-family="Times,serif" font-size="9.00">pick 2!</text>
</g>
<!-- Fallback*******&#45;&gt;pick 2! -->
<g id="edge33" class="edge">
<title>Fallback*******&#45;&gt;pick 2!</title>
<path fill="none" stroke="black" d="M1015.19,-143.7C1019.57,-135.4 1024.91,-125.31 1029.73,-116.19"/>
<polygon fill="black" stroke="black" points="1032.93,-117.62 1034.51,-107.14 1026.74,-114.35 1032.93,-117.62"/>
</g>
</g>
</svg>
