<?xml version="1.0" encoding="UTF-8" standalone="no"?>
<!DOCTYPE svg PUBLIC "-//W3C//DTD SVG 1.1//EN"
 "http://www.w3.org/Graphics/SVG/1.1/DTD/svg11.dtd">
<!-- Generated by graphviz version 2.43.0 (0)
 -->
<!-- Title: pastafarianism Pages: 1 -->
<svg width="954pt" height="404pt"
 viewBox="0.00 0.00 953.64 404.00" xmlns="http://www.w3.org/2000/svg" xmlns:xlink="http://www.w3.org/1999/xlink">
<g id="graph0" class="graph" transform="scale(1 1) rotate(0) translate(4 400)">
<title>pastafarianism</title>
<polygon fill="white" stroke="transparent" points="-4,4 -4,-400 949.64,-400 949.64,4 -4,4"/>
<!-- Sequence -->
<g id="node1" class="node">
<title>Sequence</title>
<polygon fill="cyan" stroke="black" points="674.49,-370.54 674.49,-385.46 656.05,-396 629.95,-396 611.51,-385.46 611.51,-370.54 629.95,-360 656.05,-360 674.49,-370.54"/>
<text text-anchor="middle" x="643" y="-375.8" font-family="Times,serif" font-size="9.00">Sequence</text>
</g>
<!-- Fallback -->
<g id="node2" class="node">
<title>Fallback</title>
<polygon fill="cyan" stroke="black" points="321.24,-298.54 321.24,-313.46 304.11,-324 279.89,-324 262.76,-313.46 262.76,-298.54 279.89,-288 304.11,-288 321.24,-298.54"/>
<text text-anchor="middle" x="292" y="-303.8" font-family="Times,serif" font-size="9.00">Fallback</text>
</g>
<!-- Sequence&#45;&gt;Fallback -->
<g id="edge1" class="edge">
<title>Sequence&#45;&gt;Fallback</title>
<path fill="none" stroke="black" d="M611.54,-370.73C547.52,-357.96 402.2,-328.98 331.76,-314.93"/>
<polygon fill="black" stroke="black" points="332.01,-311.41 321.52,-312.89 330.64,-318.28 332.01,-311.41"/>
</g>
<!-- Fallback* -->
<g id="node11" class="node">
<title>Fallback*</title>
<polygon fill="cyan" stroke="black" points="631.74,-298.54 631.74,-313.46 613.15,-324 586.85,-324 568.26,-313.46 568.26,-298.54 586.85,-288 613.15,-288 631.74,-298.54"/>
<text text-anchor="middle" x="600" y="-303.8" font-family="Times,serif" font-size="9.00">Fallback*</text>
</g>
<!-- Sequence&#45;&gt;Fallback* -->
<g id="edge10" class="edge">
<title>Sequence&#45;&gt;Fallback*</title>
<path fill="none" stroke="black" d="M632.37,-359.7C627.37,-351.56 621.31,-341.69 615.79,-332.7"/>
<polygon fill="black" stroke="black" points="618.72,-330.79 610.51,-324.1 612.76,-334.46 618.72,-330.79"/>
</g>
<!-- Fallback*** -->
<g id="node21" class="node">
<title>Fallback***</title>
<polygon fill="cyan" stroke="black" points="786.49,-298.54 786.49,-313.46 764.53,-324 733.47,-324 711.51,-313.46 711.51,-298.54 733.47,-288 764.53,-288 786.49,-298.54"/>
<text text-anchor="middle" x="749" y="-303.8" font-family="Times,serif" font-size="9.00">Fallback***</text>
</g>
<!-- Sequence&#45;&gt;Fallback*** -->
<g id="edge20" class="edge">
<title>Sequence&#45;&gt;Fallback***</title>
<path fill="none" stroke="black" d="M662.94,-363.83C678.71,-353.42 700.98,-338.71 718.92,-326.87"/>
<polygon fill="black" stroke="black" points="720.91,-329.74 727.33,-321.31 717.05,-323.9 720.91,-329.74"/>
</g>
<!-- apply force 2! -->
<g id="node26" class="node">
<title>apply force 2!</title>
<ellipse fill="gray" stroke="black" cx="843" cy="-306" rx="38.21" ry="18"/>
<text text-anchor="middle" x="843" y="-303.8" font-family="Times,serif" font-size="9.00">apply force 2!</text>
</g>
<!-- Sequence&#45;&gt;apply force 2! -->
<g id="edge25" class="edge">
<title>Sequence&#45;&gt;apply force 2!</title>
<path fill="none" stroke="black" d="M669.65,-367.75C700.01,-357.21 751.1,-339.43 795,-324 797.91,-322.98 800.92,-321.92 803.94,-320.85"/>
<polygon fill="black" stroke="black" points="805.3,-324.08 813.56,-317.45 802.97,-317.48 805.3,-324.08"/>
</g>
<!-- Sequence* -->
<g id="node3" class="node">
<title>Sequence*</title>
<polygon fill="cyan" stroke="black" points="99.24,-226.54 99.24,-241.46 79.18,-252 50.82,-252 30.76,-241.46 30.76,-226.54 50.82,-216 79.18,-216 99.24,-226.54"/>
<text text-anchor="middle" x="65" y="-231.8" font-family="Times,serif" font-size="9.00">Sequence*</text>
</g>
<!-- Fallback&#45;&gt;Sequence* -->
<g id="edge2" class="edge">
<title>Fallback&#45;&gt;Sequence*</title>
<path fill="none" stroke="black" d="M263.68,-297.75C227.33,-288.23 162.44,-270.55 108,-252 105.61,-251.18 103.15,-250.31 100.68,-249.41"/>
<polygon fill="black" stroke="black" points="101.82,-246.1 91.23,-245.83 99.35,-252.64 101.82,-246.1"/>
</g>
<!-- 0 at pos (0.0, 0.05, 0.0)? -->
<g id="node6" class="node">
<title>0 at pos (0.0, 0.05, 0.0)?</title>
<ellipse fill="gray" stroke="black" cx="177" cy="-234" rx="60.09" ry="18"/>
<text text-anchor="middle" x="177" y="-231.8" font-family="Times,serif" font-size="9.00">0 at pos (0.0, 0.05, 0.0)?</text>
</g>
<!-- Fallback&#45;&gt;0 at pos (0.0, 0.05, 0.0)? -->
<g id="edge5" class="edge">
<title>Fallback&#45;&gt;0 at pos (0.0, 0.05, 0.0)?</title>
<path fill="none" stroke="black" d="M271.97,-292.81C255.23,-282.62 230.98,-267.86 211.18,-255.8"/>
<polygon fill="black" stroke="black" points="212.79,-252.69 202.43,-250.48 209.16,-258.67 212.79,-252.69"/>
</g>
<!-- Sequence** -->
<g id="node7" class="node">
<title>Sequence**</title>
<polygon fill="cyan" stroke="black" points="328.74,-226.54 328.74,-241.46 307.22,-252 276.78,-252 255.26,-241.46 255.26,-226.54 276.78,-216 307.22,-216 328.74,-226.54"/>
<text text-anchor="middle" x="292" y="-231.8" font-family="Times,serif" font-size="9.00">Sequence**</text>
</g>
<!-- Fallback&#45;&gt;Sequence** -->
<g id="edge6" class="edge">
<title>Fallback&#45;&gt;Sequence**</title>
<path fill="none" stroke="black" d="M292,-287.7C292,-279.98 292,-270.71 292,-262.11"/>
<polygon fill="black" stroke="black" points="295.5,-262.1 292,-252.1 288.5,-262.1 295.5,-262.1"/>
</g>
<!-- place on 1! -->
<g id="node10" class="node">
<title>place on 1!</title>
<ellipse fill="gray" stroke="black" cx="379" cy="-234" rx="32.16" ry="18"/>
<text text-anchor="middle" x="379" y="-231.8" font-family="Times,serif" font-size="9.00">place on 1!</text>
</g>
<!-- Fallback&#45;&gt;place on 1! -->
<g id="edge9" class="edge">
<title>Fallback&#45;&gt;place on 1!</title>
<path fill="none" stroke="black" d="M309.61,-290.83C322.22,-280.68 339.41,-266.85 353.52,-255.5"/>
<polygon fill="black" stroke="black" points="355.82,-258.14 361.42,-249.14 351.44,-252.69 355.82,-258.14"/>
</g>
<!-- 2 on 0? -->
<g id="node4" class="node">
<title>2 on 0?</title>
<ellipse fill="gray" stroke="black" cx="27" cy="-162" rx="27" ry="18"/>
<text text-anchor="middle" x="27" y="-159.8" font-family="Times,serif" font-size="9.00">2 on 0?</text>
</g>
<!-- Sequence*&#45;&gt;2 on 0? -->
<g id="edge3" class="edge">
<title>Sequence*&#45;&gt;2 on 0?</title>
<path fill="none" stroke="black" d="M55.61,-215.7C51.1,-207.4 45.63,-197.31 40.67,-188.19"/>
<polygon fill="black" stroke="black" points="43.61,-186.26 35.76,-179.14 37.46,-189.6 43.61,-186.26"/>
</g>
<!-- place on 2! -->
<g id="node5" class="node">
<title>place on 2!</title>
<ellipse fill="gray" stroke="black" cx="104" cy="-162" rx="32.16" ry="18"/>
<text text-anchor="middle" x="104" y="-159.8" font-family="Times,serif" font-size="9.00">place on 2!</text>
</g>
<!-- Sequence*&#45;&gt;place on 2! -->
<g id="edge4" class="edge">
<title>Sequence*&#45;&gt;place on 2!</title>
<path fill="none" stroke="black" d="M74.64,-215.7C79.19,-207.52 84.72,-197.6 89.75,-188.58"/>
<polygon fill="black" stroke="black" points="92.93,-190.06 94.74,-179.62 86.81,-186.65 92.93,-190.06"/>
</g>
<!-- pick 0! -->
<g id="node8" class="node">
<title>pick 0!</title>
<ellipse fill="gray" stroke="black" cx="256" cy="-162" rx="27" ry="18"/>
<text text-anchor="middle" x="256" y="-159.8" font-family="Times,serif" font-size="9.00">pick 0!</text>
</g>
<!-- Sequence**&#45;&gt;pick 0! -->
<g id="edge7" class="edge">
<title>Sequence**&#45;&gt;pick 0!</title>
<path fill="none" stroke="black" d="M283.1,-215.7C278.84,-207.4 273.65,-197.31 268.95,-188.19"/>
<polygon fill="black" stroke="black" points="271.99,-186.44 264.3,-179.14 265.76,-189.64 271.99,-186.44"/>
</g>
<!-- pick 0!* -->
<g id="node9" class="node">
<title>pick 0!*</title>
<ellipse fill="gray" stroke="black" cx="328" cy="-162" rx="27" ry="18"/>
<text text-anchor="middle" x="328" y="-159.8" font-family="Times,serif" font-size="9.00">pick 0!*</text>
</g>
<!-- Sequence**&#45;&gt;pick 0!* -->
<g id="edge8" class="edge">
<title>Sequence**&#45;&gt;pick 0!*</title>
<path fill="none" stroke="black" d="M300.9,-215.7C305.16,-207.4 310.35,-197.31 315.05,-188.19"/>
<polygon fill="black" stroke="black" points="318.24,-189.64 319.7,-179.14 312.01,-186.44 318.24,-189.64"/>
</g>
<!-- 2 on 1? -->
<g id="node12" class="node">
<title>2 on 1?</title>
<ellipse fill="gray" stroke="black" cx="456" cy="-234" rx="27" ry="18"/>
<text text-anchor="middle" x="456" y="-231.8" font-family="Times,serif" font-size="9.00">2 on 1?</text>
</g>
<!-- Fallback*&#45;&gt;2 on 1? -->
<g id="edge11" class="edge">
<title>Fallback*&#45;&gt;2 on 1?</title>
<path fill="none" stroke="black" d="M576.54,-293.6C551.98,-281.66 513.32,-262.86 486.43,-249.79"/>
<polygon fill="black" stroke="black" points="487.63,-246.48 477.1,-245.26 484.56,-252.78 487.63,-246.48"/>
</g>
<!-- 1 at pos (0.0, 0.05, 0.0192)? -->
<g id="node13" class="node">
<title>1 at pos (0.0, 0.05, 0.0192)?</title>
<ellipse fill="gray" stroke="black" cx="569" cy="-234" rx="67.6" ry="18"/>
<text text-anchor="middle" x="569" y="-231.8" font-family="Times,serif" font-size="9.00">1 at pos (0.0, 0.05, 0.0192)?</text>
</g>
<!-- Fallback*&#45;&gt;1 at pos (0.0, 0.05, 0.0192)? -->
<g id="edge12" class="edge">
<title>Fallback*&#45;&gt;1 at pos (0.0, 0.05, 0.0192)?</title>
<path fill="none" stroke="black" d="M592.34,-287.7C588.81,-279.73 584.54,-270.1 580.63,-261.26"/>
<polygon fill="black" stroke="black" points="583.82,-259.83 576.57,-252.1 577.42,-262.67 583.82,-259.83"/>
</g>
<!-- Sequence*** -->
<g id="node14" class="node">
<title>Sequence***</title>
<polygon fill="cyan" stroke="black" points="734.99,-226.54 734.99,-241.46 711.56,-252 678.44,-252 655.01,-241.46 655.01,-226.54 678.44,-216 711.56,-216 734.99,-226.54"/>
<text text-anchor="middle" x="695" y="-231.8" font-family="Times,serif" font-size="9.00">Sequence***</text>
</g>
<!-- Fallback*&#45;&gt;Sequence*** -->
<g id="edge13" class="edge">
<title>Fallback*&#45;&gt;Sequence***</title>
<path fill="none" stroke="black" d="M618.77,-291.17C632.27,-281.22 650.74,-267.61 666.12,-256.28"/>
<polygon fill="black" stroke="black" points="668.32,-259.01 674.29,-250.26 664.16,-253.37 668.32,-259.01"/>
</g>
<!-- Fallback** -->
<g id="node15" class="node">
<title>Fallback**</title>
<polygon fill="cyan" stroke="black" points="664.99,-154.54 664.99,-169.46 644.49,-180 615.51,-180 595.01,-169.46 595.01,-154.54 615.51,-144 644.49,-144 664.99,-154.54"/>
<text text-anchor="middle" x="630" y="-159.8" font-family="Times,serif" font-size="9.00">Fallback**</text>
</g>
<!-- Sequence***&#45;&gt;Fallback** -->
<g id="edge14" class="edge">
<title>Sequence***&#45;&gt;Fallback**</title>
<path fill="none" stroke="black" d="M678.93,-215.7C670.94,-207.09 661.16,-196.55 652.44,-187.17"/>
<polygon fill="black" stroke="black" points="654.8,-184.57 645.43,-179.62 649.67,-189.33 654.8,-184.57"/>
</g>
<!-- apply force 1! -->
<g id="node20" class="node">
<title>apply force 1!</title>
<ellipse fill="gray" stroke="black" cx="721" cy="-162" rx="38.21" ry="18"/>
<text text-anchor="middle" x="721" y="-159.8" font-family="Times,serif" font-size="9.00">apply force 1!</text>
</g>
<!-- Sequence***&#45;&gt;apply force 1! -->
<g id="edge19" class="edge">
<title>Sequence***&#45;&gt;apply force 1!</title>
<path fill="none" stroke="black" d="M701.43,-215.7C704.36,-207.81 707.89,-198.3 711.14,-189.55"/>
<polygon fill="black" stroke="black" points="714.45,-190.7 714.65,-180.1 707.88,-188.26 714.45,-190.7"/>
</g>
<!-- 1 on 0? -->
<g id="node16" class="node">
<title>1 on 0?</title>
<ellipse fill="gray" stroke="black" cx="586" cy="-90" rx="27" ry="18"/>
<text text-anchor="middle" x="586" y="-87.8" font-family="Times,serif" font-size="9.00">1 on 0?</text>
</g>
<!-- Fallback**&#45;&gt;1 on 0? -->
<g id="edge15" class="edge">
<title>Fallback**&#45;&gt;1 on 0?</title>
<path fill="none" stroke="black" d="M619.12,-143.7C613.8,-135.23 607.3,-124.89 601.47,-115.61"/>
<polygon fill="black" stroke="black" points="604.43,-113.75 596.15,-107.14 598.51,-117.47 604.43,-113.75"/>
</g>
<!-- Sequence**** -->
<g id="node17" class="node">
<title>Sequence****</title>
<polygon fill="cyan" stroke="black" points="715.49,-82.54 715.49,-97.46 690.6,-108 655.4,-108 630.51,-97.46 630.51,-82.54 655.4,-72 690.6,-72 715.49,-82.54"/>
<text text-anchor="middle" x="673" y="-87.8" font-family="Times,serif" font-size="9.00">Sequence****</text>
</g>
<!-- Fallback**&#45;&gt;Sequence**** -->
<g id="edge16" class="edge">
<title>Fallback**&#45;&gt;Sequence****</title>
<path fill="none" stroke="black" d="M640.63,-143.7C645.63,-135.56 651.69,-125.69 657.21,-116.7"/>
<polygon fill="black" stroke="black" points="660.24,-118.46 662.49,-108.1 654.28,-114.79 660.24,-118.46"/>
</g>
<!-- pick 1! -->
<g id="node18" class="node">
<title>pick 1!</title>
<ellipse fill="gray" stroke="black" cx="635" cy="-18" rx="27" ry="18"/>
<text text-anchor="middle" x="635" y="-15.8" font-family="Times,serif" font-size="9.00">pick 1!</text>
</g>
<!-- Sequence****&#45;&gt;pick 1! -->
<g id="edge17" class="edge">
<title>Sequence****&#45;&gt;pick 1!</title>
<path fill="none" stroke="black" d="M663.61,-71.7C659.1,-63.4 653.63,-53.31 648.67,-44.19"/>
<polygon fill="black" stroke="black" points="651.61,-42.26 643.76,-35.14 645.46,-45.6 651.61,-42.26"/>
</g>
<!-- place on 0! -->
<g id="node19" class="node">
<title>place on 0!</title>
<ellipse fill="gray" stroke="black" cx="712" cy="-18" rx="32.16" ry="18"/>
<text text-anchor="middle" x="712" y="-15.8" font-family="Times,serif" font-size="9.00">place on 0!</text>
</g>
<!-- Sequence****&#45;&gt;place on 0! -->
<g id="edge18" class="edge">
<title>Sequence****&#45;&gt;place on 0!</title>
<path fill="none" stroke="black" d="M682.64,-71.7C687.19,-63.52 692.72,-53.6 697.75,-44.58"/>
<polygon fill="black" stroke="black" points="700.93,-46.06 702.74,-35.62 694.81,-42.65 700.93,-46.06"/>
</g>
<!-- 2 on 1?* -->
<g id="node22" class="node">
<title>2 on 1?*</title>
<ellipse fill="gray" stroke="black" cx="780" cy="-234" rx="27.27" ry="18"/>
<text text-anchor="middle" x="780" y="-231.8" font-family="Times,serif" font-size="9.00">2 on 1?*</text>
</g>
<!-- Fallback***&#45;&gt;2 on 1?* -->
<g id="edge21" class="edge">
<title>Fallback***&#45;&gt;2 on 1?*</title>
<path fill="none" stroke="black" d="M756.66,-287.7C760.24,-279.61 764.58,-269.81 768.54,-260.87"/>
<polygon fill="black" stroke="black" points="771.79,-262.18 772.64,-251.62 765.39,-259.35 771.79,-262.18"/>
</g>
<!-- Sequence***** -->
<g id="node23" class="node">
<title>Sequence*****</title>
<polygon fill="cyan" stroke="black" points="916.74,-226.54 916.74,-241.46 889.95,-252 852.05,-252 825.26,-241.46 825.26,-226.54 852.05,-216 889.95,-216 916.74,-226.54"/>
<text text-anchor="middle" x="871" y="-231.8" font-family="Times,serif" font-size="9.00">Sequence*****</text>
</g>
<!-- Fallback***&#45;&gt;Sequence***** -->
<g id="edge22" class="edge">
<title>Fallback***&#45;&gt;Sequence*****</title>
<path fill="none" stroke="black" d="M772.23,-291.67C790.42,-281.23 815.99,-266.56 836.56,-254.76"/>
<polygon fill="black" stroke="black" points="838.39,-257.75 845.32,-249.73 834.91,-251.67 838.39,-257.75"/>
</g>
<!-- pick 2! -->
<g id="node24" class="node">
<title>pick 2!</title>
<ellipse fill="gray" stroke="black" cx="831" cy="-162" rx="27" ry="18"/>
<text text-anchor="middle" x="831" y="-159.8" font-family="Times,serif" font-size="9.00">pick 2!</text>
</g>
<!-- Sequence*****&#45;&gt;pick 2! -->
<g id="edge23" class="edge">
<title>Sequence*****&#45;&gt;pick 2!</title>
<path fill="none" stroke="black" d="M861.11,-215.7C856.32,-207.32 850.48,-197.1 845.23,-187.9"/>
<polygon fill="black" stroke="black" points="848.23,-186.09 840.23,-179.14 842.15,-189.56 848.23,-186.09"/>
</g>
<!-- place on 1!* -->
<g id="node25" class="node">
<title>place on 1!*</title>
<ellipse fill="gray" stroke="black" cx="911" cy="-162" rx="34.78" ry="18"/>
<text text-anchor="middle" x="911" y="-159.8" font-family="Times,serif" font-size="9.00">place on 1!*</text>
</g>
<!-- Sequence*****&#45;&gt;place on 1!* -->
<g id="edge24" class="edge">
<title>Sequence*****&#45;&gt;place on 1!*</title>
<path fill="none" stroke="black" d="M880.89,-215.7C885.56,-207.52 891.23,-197.6 896.38,-188.58"/>
<polygon fill="black" stroke="black" points="899.58,-190.04 901.5,-179.62 893.5,-186.57 899.58,-190.04"/>
</g>
</g>
</svg>
