<?xml version="1.0" encoding="UTF-8" standalone="no"?>
<!DOCTYPE svg PUBLIC "-//W3C//DTD SVG 1.1//EN"
 "http://www.w3.org/Graphics/SVG/1.1/DTD/svg11.dtd">
<!-- Generated by graphviz version 2.43.0 (0)
 -->
<!-- Title: pastafarianism Pages: 1 -->
<svg width="291pt" height="188pt"
 viewBox="0.00 0.00 291.26 188.00" xmlns="http://www.w3.org/2000/svg" xmlns:xlink="http://www.w3.org/1999/xlink">
<g id="graph0" class="graph" transform="scale(1 1) rotate(0) translate(4 184)">
<title>pastafarianism</title>
<polygon fill="white" stroke="transparent" points="-4,4 -4,-184 287.26,-184 287.26,4 -4,4"/>
<!-- Sequence -->
<g id="node1" class="node">
<title>Sequence</title>
<polygon fill="cyan" stroke="black" points="191.36,-154.54 191.36,-169.46 172.91,-180 146.82,-180 128.37,-169.46 128.37,-154.54 146.82,-144 172.91,-144 191.36,-154.54"/>
<text text-anchor="middle" x="159.87" y="-159.8" font-family="Times,serif" font-size="9.00">Sequence</text>
</g>
<!-- Fallback -->
<g id="node2" class="node">
<title>Fallback</title>
<polygon fill="cyan" stroke="black" points="132.11,-82.54 132.11,-97.46 114.98,-108 90.75,-108 73.62,-97.46 73.62,-82.54 90.75,-72 114.98,-72 132.11,-82.54"/>
<text text-anchor="middle" x="102.87" y="-87.8" font-family="Times,serif" font-size="9.00">Fallback</text>
</g>
<!-- Sequence&#45;&gt;Fallback -->
<g id="edge1" class="edge">
<title>Sequence&#45;&gt;Fallback</title>
<path fill="none" stroke="black" d="M146.07,-144.05C139.04,-135.42 130.36,-124.76 122.63,-115.27"/>
<polygon fill="black" stroke="black" points="125.17,-112.85 116.15,-107.31 119.75,-117.27 125.17,-112.85"/>
</g>
<!-- place at (0.016, 0.032, 0.0)! -->
<g id="node6" class="node">
<title>place at (0.016, 0.032, 0.0)!</title>
<ellipse fill="gray" stroke="black" cx="216.87" cy="-90" rx="66.29" ry="18"/>
<text text-anchor="middle" x="216.87" y="-87.8" font-family="Times,serif" font-size="9.00">place at (0.016, 0.032, 0.0)!</text>
</g>
<!-- Sequence&#45;&gt;place at (0.016, 0.032, 0.0)! -->
<g id="edge5" class="edge">
<title>Sequence&#45;&gt;place at (0.016, 0.032, 0.0)!</title>
<path fill="none" stroke="black" d="M173.67,-144.05C180.6,-135.54 189.13,-125.07 196.77,-115.68"/>
<polygon fill="black" stroke="black" points="199.6,-117.75 203.2,-107.79 194.17,-113.33 199.6,-117.75"/>
</g>
<!-- picked 0? -->
<g id="node3" class="node">
<title>picked 0?</title>
<ellipse fill="gray" stroke="black" cx="28.87" cy="-18" rx="28.74" ry="18"/>
<text text-anchor="middle" x="28.87" y="-15.8" font-family="Times,serif" font-size="9.00">picked 0?</text>
</g>
<!-- Fallback&#45;&gt;picked 0? -->
<g id="edge2" class="edge">
<title>Fallback&#45;&gt;picked 0?</title>
<path fill="none" stroke="black" d="M87.17,-74.15C76.83,-64.37 63.12,-51.4 51.6,-40.5"/>
<polygon fill="black" stroke="black" points="53.7,-37.67 44.03,-33.35 48.89,-42.76 53.7,-37.67"/>
</g>
<!-- pick 3! -->
<g id="node4" class="node">
<title>pick 3!</title>
<ellipse fill="gray" stroke="black" cx="102.87" cy="-18" rx="27" ry="18"/>
<text text-anchor="middle" x="102.87" y="-15.8" font-family="Times,serif" font-size="9.00">pick 3!</text>
</g>
<!-- Fallback&#45;&gt;pick 3! -->
<g id="edge3" class="edge">
<title>Fallback&#45;&gt;pick 3!</title>
<path fill="none" stroke="black" d="M102.87,-71.7C102.87,-63.98 102.87,-54.71 102.87,-46.11"/>
<polygon fill="black" stroke="black" points="106.37,-46.1 102.87,-36.1 99.37,-46.1 106.37,-46.1"/>
</g>
<!-- pick 3!* -->
<g id="node5" class="node">
<title>pick 3!*</title>
<ellipse fill="gray" stroke="black" cx="174.87" cy="-18" rx="27" ry="18"/>
<text text-anchor="middle" x="174.87" y="-15.8" font-family="Times,serif" font-size="9.00">pick 3!*</text>
</g>
<!-- Fallback&#45;&gt;pick 3!* -->
<g id="edge4" class="edge">
<title>Fallback&#45;&gt;pick 3!*</title>
<path fill="none" stroke="black" d="M118.49,-73.81C128.57,-64.01 141.83,-51.12 152.96,-40.3"/>
<polygon fill="black" stroke="black" points="155.53,-42.69 160.26,-33.21 150.65,-37.67 155.53,-42.69"/>
</g>
</g>
</svg>
