<?xml version="1.0" encoding="UTF-8" standalone="no"?>
<!DOCTYPE svg PUBLIC "-//W3C//DTD SVG 1.1//EN"
 "http://www.w3.org/Graphics/SVG/1.1/DTD/svg11.dtd">
<!-- Generated by graphviz version 2.43.0 (0)
 -->
<!-- Title: pastafarianism Pages: 1 -->
<svg width="284pt" height="116pt"
 viewBox="0.00 0.00 284.00 116.00" xmlns="http://www.w3.org/2000/svg" xmlns:xlink="http://www.w3.org/1999/xlink">
<g id="graph0" class="graph" transform="scale(1 1) rotate(0) translate(4 112)">
<title>pastafarianism</title>
<polygon fill="white" stroke="transparent" points="-4,4 -4,-112 280,-112 280,4 -4,4"/>
<!-- Sequence -->
<g id="node1" class="node">
<title>Sequence</title>
<polygon fill="cyan" stroke="black" points="169.49,-82.54 169.49,-97.46 151.05,-108 124.95,-108 106.51,-97.46 106.51,-82.54 124.95,-72 151.05,-72 169.49,-82.54"/>
<text text-anchor="middle" x="138" y="-87.8" font-family="Times,serif" font-size="9.00">Sequence</text>
</g>
<!-- pick 3! -->
<g id="node2" class="node">
<title>pick 3!</title>
<ellipse fill="gray" stroke="black" cx="27" cy="-18" rx="27" ry="18"/>
<text text-anchor="middle" x="27" y="-15.8" font-family="Times,serif" font-size="9.00">pick 3!</text>
</g>
<!-- Sequence&#45;&gt;pick 3! -->
<g id="edge1" class="edge">
<title>Sequence&#45;&gt;pick 3!</title>
<path fill="none" stroke="black" d="M117.64,-76.16C99.95,-65 74.16,-48.74 54.61,-36.41"/>
<polygon fill="black" stroke="black" points="56.44,-33.43 46.12,-31.06 52.71,-39.35 56.44,-33.43"/>
</g>
<!-- place at (0.016, 0.032, 0.0)! -->
<g id="node3" class="node">
<title>place at (0.016, 0.032, 0.0)!</title>
<ellipse fill="gray" stroke="black" cx="138" cy="-18" rx="66.29" ry="18"/>
<text text-anchor="middle" x="138" y="-15.8" font-family="Times,serif" font-size="9.00">place at (0.016, 0.032, 0.0)!</text>
</g>
<!-- Sequence&#45;&gt;place at (0.016, 0.032, 0.0)! -->
<g id="edge2" class="edge">
<title>Sequence&#45;&gt;place at (0.016, 0.032, 0.0)!</title>
<path fill="none" stroke="black" d="M138,-71.7C138,-63.98 138,-54.71 138,-46.11"/>
<polygon fill="black" stroke="black" points="141.5,-46.1 138,-36.1 134.5,-46.1 141.5,-46.1"/>
</g>
<!-- pick 3!* -->
<g id="node4" class="node">
<title>pick 3!*</title>
<ellipse fill="gray" stroke="black" cx="249" cy="-18" rx="27" ry="18"/>
<text text-anchor="middle" x="249" y="-15.8" font-family="Times,serif" font-size="9.00">pick 3!*</text>
</g>
<!-- Sequence&#45;&gt;pick 3!* -->
<g id="edge3" class="edge">
<title>Sequence&#45;&gt;pick 3!*</title>
<path fill="none" stroke="black" d="M158.36,-76.16C176.05,-65 201.84,-48.74 221.39,-36.41"/>
<polygon fill="black" stroke="black" points="223.29,-39.35 229.88,-31.06 219.56,-33.43 223.29,-39.35"/>
</g>
</g>
</svg>
