<?xml version="1.0" encoding="UTF-8" standalone="no"?>
<!DOCTYPE svg PUBLIC "-//W3C//DTD SVG 1.1//EN"
 "http://www.w3.org/Graphics/SVG/1.1/DTD/svg11.dtd">
<!-- Generated by graphviz version 2.43.0 (0)
 -->
<!-- Title: pastafarianism Pages: 1 -->
<svg width="315pt" height="260pt"
 viewBox="0.00 0.00 314.64 260.00" xmlns="http://www.w3.org/2000/svg" xmlns:xlink="http://www.w3.org/1999/xlink">
<g id="graph0" class="graph" transform="scale(1 1) rotate(0) translate(4 256)">
<title>pastafarianism</title>
<polygon fill="white" stroke="transparent" points="-4,4 -4,-256 310.64,-256 310.64,4 -4,4"/>
<!-- Sequence -->
<g id="node1" class="node">
<title>Sequence</title>
<polygon fill="cyan" stroke="black" points="214.73,-226.54 214.73,-241.46 196.29,-252 170.2,-252 151.75,-241.46 151.75,-226.54 170.2,-216 196.29,-216 214.73,-226.54"/>
<text text-anchor="middle" x="183.24" y="-231.8" font-family="Times,serif" font-size="9.00">Sequence</text>
</g>
<!-- Fallback -->
<g id="node2" class="node">
<title>Fallback</title>
<polygon fill="cyan" stroke="black" points="155.48,-154.54 155.48,-169.46 138.35,-180 114.13,-180 97,-169.46 97,-154.54 114.13,-144 138.35,-144 155.48,-154.54"/>
<text text-anchor="middle" x="126.24" y="-159.8" font-family="Times,serif" font-size="9.00">Fallback</text>
</g>
<!-- Sequence&#45;&gt;Fallback -->
<g id="edge1" class="edge">
<title>Sequence&#45;&gt;Fallback</title>
<path fill="none" stroke="black" d="M169.44,-216.05C162.41,-207.42 153.73,-196.76 146,-187.27"/>
<polygon fill="black" stroke="black" points="148.55,-184.85 139.52,-179.31 143.12,-189.27 148.55,-184.85"/>
</g>
<!-- place at (0.016, 0.032, 0.0)! -->
<g id="node8" class="node">
<title>place at (0.016, 0.032, 0.0)!</title>
<ellipse fill="gray" stroke="black" cx="240.24" cy="-162" rx="66.29" ry="18"/>
<text text-anchor="middle" x="240.24" y="-159.8" font-family="Times,serif" font-size="9.00">place at (0.016, 0.032, 0.0)!</text>
</g>
<!-- Sequence&#45;&gt;place at (0.016, 0.032, 0.0)! -->
<g id="edge7" class="edge">
<title>Sequence&#45;&gt;place at (0.016, 0.032, 0.0)!</title>
<path fill="none" stroke="black" d="M197.04,-216.05C203.97,-207.54 212.5,-197.07 220.14,-187.68"/>
<polygon fill="black" stroke="black" points="222.97,-189.75 226.57,-179.79 217.54,-185.33 222.97,-189.75"/>
</g>
<!-- picked 0? -->
<g id="node3" class="node">
<title>picked 0?</title>
<ellipse fill="gray" stroke="black" cx="45.24" cy="-90" rx="28.74" ry="18"/>
<text text-anchor="middle" x="45.24" y="-87.8" font-family="Times,serif" font-size="9.00">picked 0?</text>
</g>
<!-- Fallback&#45;&gt;picked 0? -->
<g id="edge2" class="edge">
<title>Fallback&#45;&gt;picked 0?</title>
<path fill="none" stroke="black" d="M109.46,-146.5C97.79,-136.41 82.07,-122.83 69.11,-111.62"/>
<polygon fill="black" stroke="black" points="71.3,-108.9 61.45,-105.01 66.73,-114.19 71.3,-108.9"/>
</g>
<!-- Sequence* -->
<g id="node4" class="node">
<title>Sequence*</title>
<polygon fill="cyan" stroke="black" points="160.48,-82.54 160.48,-97.46 140.42,-108 112.06,-108 92,-97.46 92,-82.54 112.06,-72 140.42,-72 160.48,-82.54"/>
<text text-anchor="middle" x="126.24" y="-87.8" font-family="Times,serif" font-size="9.00">Sequence*</text>
</g>
<!-- Fallback&#45;&gt;Sequence* -->
<g id="edge3" class="edge">
<title>Fallback&#45;&gt;Sequence*</title>
<path fill="none" stroke="black" d="M126.24,-143.7C126.24,-135.98 126.24,-126.71 126.24,-118.11"/>
<polygon fill="black" stroke="black" points="129.74,-118.1 126.24,-108.1 122.74,-118.1 129.74,-118.1"/>
</g>
<!-- pick 3! -->
<g id="node7" class="node">
<title>pick 3!</title>
<ellipse fill="gray" stroke="black" cx="205.24" cy="-90" rx="27" ry="18"/>
<text text-anchor="middle" x="205.24" y="-87.8" font-family="Times,serif" font-size="9.00">pick 3!</text>
</g>
<!-- Fallback&#45;&gt;pick 3! -->
<g id="edge6" class="edge">
<title>Fallback&#45;&gt;pick 3!</title>
<path fill="none" stroke="black" d="M142.61,-146.5C154.06,-136.35 169.52,-122.65 182.21,-111.4"/>
<polygon fill="black" stroke="black" points="184.54,-114.02 189.7,-104.77 179.89,-108.78 184.54,-114.02"/>
</g>
<!-- 1 at pos (0.0, 0.0, 0.0192)? -->
<g id="node5" class="node">
<title>1 at pos (0.0, 0.0, 0.0192)?</title>
<ellipse fill="gray" stroke="black" cx="65.24" cy="-18" rx="65.48" ry="18"/>
<text text-anchor="middle" x="65.24" y="-15.8" font-family="Times,serif" font-size="9.00">1 at pos (0.0, 0.0, 0.0192)?</text>
</g>
<!-- Sequence*&#45;&gt;1 at pos (0.0, 0.0, 0.0192)? -->
<g id="edge4" class="edge">
<title>Sequence*&#45;&gt;1 at pos (0.0, 0.0, 0.0192)?</title>
<path fill="none" stroke="black" d="M111.47,-72.05C103.98,-63.46 94.74,-52.86 86.5,-43.4"/>
<polygon fill="black" stroke="black" points="89.08,-41.03 79.87,-35.79 83.8,-45.63 89.08,-41.03"/>
</g>
<!-- apply force 3! -->
<g id="node6" class="node">
<title>apply force 3!</title>
<ellipse fill="gray" stroke="black" cx="186.24" cy="-18" rx="38.21" ry="18"/>
<text text-anchor="middle" x="186.24" y="-15.8" font-family="Times,serif" font-size="9.00">apply force 3!</text>
</g>
<!-- Sequence*&#45;&gt;apply force 3! -->
<g id="edge5" class="edge">
<title>Sequence*&#45;&gt;apply force 3!</title>
<path fill="none" stroke="black" d="M140.76,-72.05C148.35,-63.2 157.76,-52.23 166.04,-42.57"/>
<polygon fill="black" stroke="black" points="168.82,-44.7 172.67,-34.83 163.51,-40.14 168.82,-44.7"/>
</g>
</g>
</svg>
