<?xml version="1.0" encoding="UTF-8" standalone="no"?>
<!DOCTYPE svg PUBLIC "-//W3C//DTD SVG 1.1//EN"
 "http://www.w3.org/Graphics/SVG/1.1/DTD/svg11.dtd">
<!-- Generated by graphviz version 2.43.0 (0)
 -->
<!-- Title: pastafarianism Pages: 1 -->
<svg width="2910pt" height="332pt"
 viewBox="0.00 0.00 2910.18 332.00" xmlns="http://www.w3.org/2000/svg" xmlns:xlink="http://www.w3.org/1999/xlink">
<g id="graph0" class="graph" transform="scale(1 1) rotate(0) translate(4 328)">
<title>pastafarianism</title>
<polygon fill="white" stroke="transparent" points="-4,4 -4,-328 2906.18,-328 2906.18,4 -4,4"/>
<!-- Sequence -->
<g id="node1" class="node">
<title>Sequence</title>
<polygon fill="cyan" stroke="black" points="1263.44,-298.54 1263.44,-313.46 1245,-324 1218.91,-324 1200.46,-313.46 1200.46,-298.54 1218.91,-288 1245,-288 1263.44,-298.54"/>
<text text-anchor="middle" x="1231.95" y="-303.8" font-family="Times,serif" font-size="9.00">Sequence</text>
</g>
<!-- Fallback -->
<g id="node2" class="node">
<title>Fallback</title>
<polygon fill="cyan" stroke="black" points="1261.19,-226.54 1261.19,-241.46 1244.06,-252 1219.84,-252 1202.71,-241.46 1202.71,-226.54 1219.84,-216 1244.06,-216 1261.19,-226.54"/>
<text text-anchor="middle" x="1231.95" y="-231.8" font-family="Times,serif" font-size="9.00">Fallback</text>
</g>
<!-- Sequence&#45;&gt;Fallback -->
<g id="edge1" class="edge">
<title>Sequence&#45;&gt;Fallback</title>
<path fill="none" stroke="black" d="M1231.95,-287.7C1231.95,-279.98 1231.95,-270.71 1231.95,-262.11"/>
<polygon fill="black" stroke="black" points="1235.45,-262.1 1231.95,-252.1 1228.45,-262.1 1235.45,-262.1"/>
</g>
<!-- NotReadyForSG? -->
<g id="node3" class="node">
<title>NotReadyForSG?</title>
<ellipse fill="gray" stroke="black" cx="1182.95" cy="-162" rx="46.53" ry="18"/>
<text text-anchor="middle" x="1182.95" y="-159.8" font-family="Times,serif" font-size="9.00">NotReadyForSG?</text>
</g>
<!-- Fallback&#45;&gt;NotReadyForSG? -->
<g id="edge2" class="edge">
<title>Fallback&#45;&gt;NotReadyForSG?</title>
<path fill="none" stroke="black" d="M1219.84,-215.7C1214,-207.35 1206.88,-197.18 1200.46,-188.02"/>
<polygon fill="black" stroke="black" points="1203.19,-185.81 1194.59,-179.62 1197.45,-189.82 1203.19,-185.81"/>
</g>
<!-- Sequence* -->
<g id="node4" class="node">
<title>Sequence*</title>
<polygon fill="cyan" stroke="black" points="1316.19,-154.54 1316.19,-169.46 1296.13,-180 1267.77,-180 1247.71,-169.46 1247.71,-154.54 1267.77,-144 1296.13,-144 1316.19,-154.54"/>
<text text-anchor="middle" x="1281.95" y="-159.8" font-family="Times,serif" font-size="9.00">Sequence*</text>
</g>
<!-- Fallback&#45;&gt;Sequence* -->
<g id="edge3" class="edge">
<title>Fallback&#45;&gt;Sequence*</title>
<path fill="none" stroke="black" d="M1244.31,-215.7C1250.18,-207.47 1257.32,-197.48 1263.79,-188.42"/>
<polygon fill="black" stroke="black" points="1266.77,-190.28 1269.73,-180.1 1261.07,-186.21 1266.77,-190.28"/>
</g>
<!-- GetSubGoal! -->
<g id="node5" class="node">
<title>GetSubGoal!</title>
<ellipse fill="gray" stroke="black" cx="36.95" cy="-90" rx="36.9" ry="18"/>
<text text-anchor="middle" x="36.95" y="-87.8" font-family="Times,serif" font-size="9.00">GetSubGoal!</text>
</g>
<!-- Sequence*&#45;&gt;GetSubGoal! -->
<g id="edge4" class="edge">
<title>Sequence*&#45;&gt;GetSubGoal!</title>
<path fill="none" stroke="black" d="M1256.93,-149.44C1251.14,-147.23 1244.93,-145.23 1238.95,-144 735.56,-39.96 587.48,-206.37 82.95,-108 79.77,-107.38 76.53,-106.57 73.3,-105.64"/>
<polygon fill="black" stroke="black" points="74.37,-102.31 63.78,-102.56 72.21,-108.97 74.37,-102.31"/>
</g>
<!-- MoveTo! -->
<g id="node6" class="node">
<title>MoveTo!</title>
<ellipse fill="gray" stroke="black" cx="120.95" cy="-90" rx="28.74" ry="18"/>
<text text-anchor="middle" x="120.95" y="-87.8" font-family="Times,serif" font-size="9.00">MoveTo!</text>
</g>
<!-- Sequence*&#45;&gt;MoveTo! -->
<g id="edge5" class="edge">
<title>Sequence*&#45;&gt;MoveTo!</title>
<path fill="none" stroke="black" d="M1256.93,-149.45C1251.14,-147.24 1244.92,-145.24 1238.95,-144 1003.84,-95.14 392.92,-162.04 158.95,-108 156.63,-107.46 154.28,-106.79 151.95,-106.01"/>
<polygon fill="black" stroke="black" points="153.14,-102.72 142.55,-102.39 150.62,-109.25 153.14,-102.72"/>
</g>
<!-- MoveTo!* -->
<g id="node7" class="node">
<title>MoveTo!*</title>
<ellipse fill="gray" stroke="black" cx="199.95" cy="-90" rx="31.51" ry="18"/>
<text text-anchor="middle" x="199.95" y="-87.8" font-family="Times,serif" font-size="9.00">MoveTo!*</text>
</g>
<!-- Sequence*&#45;&gt;MoveTo!* -->
<g id="edge6" class="edge">
<title>Sequence*&#45;&gt;MoveTo!*</title>
<path fill="none" stroke="black" d="M1256.93,-149.46C1251.14,-147.26 1244.92,-145.25 1238.95,-144 804.52,-53.09 674.62,-202.5 240.95,-108 238.29,-107.42 235.58,-106.68 232.89,-105.82"/>
<polygon fill="black" stroke="black" points="233.93,-102.48 223.33,-102.37 231.55,-109.06 233.93,-102.48"/>
</g>
<!-- MoveTo!** -->
<g id="node8" class="node">
<title>MoveTo!**</title>
<ellipse fill="gray" stroke="black" cx="283.95" cy="-90" rx="34.13" ry="18"/>
<text text-anchor="middle" x="283.95" y="-87.8" font-family="Times,serif" font-size="9.00">MoveTo!**</text>
</g>
<!-- Sequence*&#45;&gt;MoveTo!** -->
<g id="edge7" class="edge">
<title>Sequence*&#45;&gt;MoveTo!**</title>
<path fill="none" stroke="black" d="M1256.92,-149.47C1251.13,-147.27 1244.92,-145.26 1238.95,-144 842.04,-60.24 723.86,-191.76 326.95,-108 324.15,-107.41 321.3,-106.65 318.46,-105.79"/>
<polygon fill="black" stroke="black" points="319.57,-102.47 308.98,-102.53 317.29,-109.09 319.57,-102.47"/>
</g>
<!-- NotReadyForSG?* -->
<g id="node9" class="node">
<title>NotReadyForSG?*</title>
<ellipse fill="gray" stroke="black" cx="385.95" cy="-90" rx="49.8" ry="18"/>
<text text-anchor="middle" x="385.95" y="-87.8" font-family="Times,serif" font-size="9.00">NotReadyForSG?*</text>
</g>
<!-- Sequence*&#45;&gt;NotReadyForSG?* -->
<g id="edge8" class="edge">
<title>Sequence*&#45;&gt;NotReadyForSG?*</title>
<path fill="none" stroke="black" d="M1256.92,-149.5C1251.13,-147.29 1244.92,-145.28 1238.95,-144 893.09,-69.97 792.83,-166.16 443.95,-108 439.76,-107.3 435.44,-106.4 431.14,-105.37"/>
<polygon fill="black" stroke="black" points="431.78,-101.92 421.22,-102.8 430.02,-108.7 431.78,-101.92"/>
</g>
<!-- CompLkGraph! -->
<g id="node10" class="node">
<title>CompLkGraph!</title>
<ellipse fill="gray" stroke="black" cx="495.95" cy="-90" rx="42.95" ry="18"/>
<text text-anchor="middle" x="495.95" y="-87.8" font-family="Times,serif" font-size="9.00">CompLkGraph!</text>
</g>
<!-- Sequence*&#45;&gt;CompLkGraph! -->
<g id="edge9" class="edge">
<title>Sequence*&#45;&gt;CompLkGraph!</title>
<path fill="none" stroke="black" d="M1256.91,-149.53C1251.12,-147.32 1244.91,-145.3 1238.95,-144 938.02,-78.53 849.56,-165.21 546.95,-108 543.5,-107.35 539.96,-106.52 536.43,-105.58"/>
<polygon fill="black" stroke="black" points="537.19,-102.16 526.61,-102.7 535.22,-108.87 537.19,-102.16"/>
</g>
<!-- LkGraph? -->
<g id="node11" class="node">
<title>LkGraph?</title>
<ellipse fill="gray" stroke="black" cx="586.95" cy="-90" rx="30.7" ry="18"/>
<text text-anchor="middle" x="586.95" y="-87.8" font-family="Times,serif" font-size="9.00">LkGraph?</text>
</g>
<!-- Sequence*&#45;&gt;LkGraph? -->
<g id="edge10" class="edge">
<title>Sequence*&#45;&gt;LkGraph?</title>
<path fill="none" stroke="black" d="M1256.9,-149.56C1251.12,-147.35 1244.91,-145.32 1238.95,-144 972.91,-85.17 892.23,-170.2 626.95,-108 624.44,-107.41 621.89,-106.68 619.36,-105.85"/>
<polygon fill="black" stroke="black" points="620.36,-102.49 609.76,-102.28 617.91,-109.05 620.36,-102.49"/>
</g>
<!-- MoveTo!*** -->
<g id="node12" class="node">
<title>MoveTo!***</title>
<ellipse fill="gray" stroke="black" cx="672.95" cy="-90" rx="36.9" ry="18"/>
<text text-anchor="middle" x="672.95" y="-87.8" font-family="Times,serif" font-size="9.00">MoveTo!***</text>
</g>
<!-- Sequence*&#45;&gt;MoveTo!*** -->
<g id="edge11" class="edge">
<title>Sequence*&#45;&gt;MoveTo!***</title>
<path fill="none" stroke="black" d="M1256.89,-149.6C1251.11,-147.39 1244.9,-145.35 1238.95,-144 1013.01,-92.81 945.45,-156.65 718.95,-108 715.79,-107.32 712.55,-106.47 709.33,-105.51"/>
<polygon fill="black" stroke="black" points="710.4,-102.18 699.81,-102.38 708.22,-108.83 710.4,-102.18"/>
</g>
<!-- LkGraph?* -->
<g id="node13" class="node">
<title>LkGraph?*</title>
<ellipse fill="gray" stroke="black" cx="760.95" cy="-90" rx="32.82" ry="18"/>
<text text-anchor="middle" x="760.95" y="-87.8" font-family="Times,serif" font-size="9.00">LkGraph?*</text>
</g>
<!-- Sequence*&#45;&gt;LkGraph?* -->
<g id="edge12" class="edge">
<title>Sequence*&#45;&gt;LkGraph?*</title>
<path fill="none" stroke="black" d="M1256.88,-149.66C1251.09,-147.45 1244.89,-145.39 1238.95,-144 1049.61,-99.78 992.11,-152.99 802.95,-108 800.31,-107.37 797.63,-106.61 794.95,-105.75"/>
<polygon fill="black" stroke="black" points="796.01,-102.41 785.42,-102.34 793.66,-109 796.01,-102.41"/>
</g>
<!-- MoveTo!**** -->
<g id="node14" class="node">
<title>MoveTo!****</title>
<ellipse fill="gray" stroke="black" cx="850.95" cy="-90" rx="39.02" ry="18"/>
<text text-anchor="middle" x="850.95" y="-87.8" font-family="Times,serif" font-size="9.00">MoveTo!****</text>
</g>
<!-- Sequence*&#45;&gt;MoveTo!**** -->
<g id="edge13" class="edge">
<title>Sequence*&#45;&gt;MoveTo!****</title>
<path fill="none" stroke="black" d="M1256.4,-149.59C1250.75,-147.44 1244.72,-145.42 1238.95,-144 1091.39,-107.73 1047.15,-141.6 898.95,-108 895.76,-107.28 892.49,-106.41 889.23,-105.45"/>
<polygon fill="black" stroke="black" points="890.15,-102.07 879.56,-102.37 888.03,-108.74 890.15,-102.07"/>
</g>
<!-- MoveTo!***** -->
<g id="node15" class="node">
<title>MoveTo!*****</title>
<ellipse fill="gray" stroke="black" cx="949.95" cy="-90" rx="42.29" ry="18"/>
<text text-anchor="middle" x="949.95" y="-87.8" font-family="Times,serif" font-size="9.00">MoveTo!*****</text>
</g>
<!-- Sequence*&#45;&gt;MoveTo!***** -->
<g id="edge14" class="edge">
<title>Sequence*&#45;&gt;MoveTo!*****</title>
<path fill="none" stroke="black" d="M1256.35,-149.79C1250.7,-147.62 1244.69,-145.55 1238.95,-144 1136.09,-116.24 1105.6,-132.64 1001.95,-108 998.37,-107.15 994.68,-106.16 990.99,-105.11"/>
<polygon fill="black" stroke="black" points="991.92,-101.73 981.34,-102.18 989.89,-108.43 991.92,-101.73"/>
</g>
<!-- MoveTo!****** -->
<g id="node16" class="node">
<title>MoveTo!******</title>
<ellipse fill="gray" stroke="black" cx="1054.95" cy="-90" rx="44.41" ry="18"/>
<text text-anchor="middle" x="1054.95" y="-87.8" font-family="Times,serif" font-size="9.00">MoveTo!******</text>
</g>
<!-- Sequence*&#45;&gt;MoveTo!****** -->
<g id="edge15" class="edge">
<title>Sequence*&#45;&gt;MoveTo!******</title>
<path fill="none" stroke="black" d="M1255.73,-150.12C1250.23,-147.98 1244.43,-145.84 1238.95,-144 1182.1,-124.95 1166.44,-125 1108.95,-108 1105.45,-106.96 1101.82,-105.87 1098.18,-104.76"/>
<polygon fill="black" stroke="black" points="1099.19,-101.4 1088.6,-101.79 1097.12,-108.09 1099.19,-101.4"/>
</g>
<!-- MoveTo!******* -->
<g id="node17" class="node">
<title>MoveTo!*******</title>
<ellipse fill="gray" stroke="black" cx="1164.95" cy="-90" rx="47.19" ry="18"/>
<text text-anchor="middle" x="1164.95" y="-87.8" font-family="Times,serif" font-size="9.00">MoveTo!*******</text>
</g>
<!-- Sequence*&#45;&gt;MoveTo!******* -->
<g id="edge16" class="edge">
<title>Sequence*&#45;&gt;MoveTo!*******</title>
<path fill="none" stroke="black" d="M1259.94,-147.83C1242.49,-137.39 1217.83,-122.64 1198.01,-110.78"/>
<polygon fill="black" stroke="black" points="1199.66,-107.69 1189.28,-105.56 1196.07,-113.69 1199.66,-107.69"/>
</g>
<!-- NotReadyForSG?** -->
<g id="node18" class="node">
<title>NotReadyForSG?**</title>
<ellipse fill="gray" stroke="black" cx="1281.95" cy="-90" rx="51.92" ry="18"/>
<text text-anchor="middle" x="1281.95" y="-87.8" font-family="Times,serif" font-size="9.00">NotReadyForSG?**</text>
</g>
<!-- Sequence*&#45;&gt;NotReadyForSG?** -->
<g id="edge17" class="edge">
<title>Sequence*&#45;&gt;NotReadyForSG?**</title>
<path fill="none" stroke="black" d="M1281.95,-143.7C1281.95,-135.98 1281.95,-126.71 1281.95,-118.11"/>
<polygon fill="black" stroke="black" points="1285.45,-118.1 1281.95,-108.1 1278.45,-118.1 1285.45,-118.1"/>
</g>
<!-- GetSubGoal!* -->
<g id="node19" class="node">
<title>GetSubGoal!*</title>
<ellipse fill="gray" stroke="black" cx="1390.95" cy="-90" rx="39.02" ry="18"/>
<text text-anchor="middle" x="1390.95" y="-87.8" font-family="Times,serif" font-size="9.00">GetSubGoal!*</text>
</g>
<!-- Sequence*&#45;&gt;GetSubGoal!* -->
<g id="edge18" class="edge">
<title>Sequence*&#45;&gt;GetSubGoal!*</title>
<path fill="none" stroke="black" d="M1302.97,-147.5C1319.23,-137.06 1342,-122.43 1360.3,-110.68"/>
<polygon fill="black" stroke="black" points="1362.35,-113.52 1368.88,-105.18 1358.57,-107.63 1362.35,-113.52"/>
</g>
<!-- MoveTo!******** -->
<g id="node20" class="node">
<title>MoveTo!********</title>
<ellipse fill="gray" stroke="black" cx="1497.95" cy="-90" rx="49.8" ry="18"/>
<text text-anchor="middle" x="1497.95" y="-87.8" font-family="Times,serif" font-size="9.00">MoveTo!********</text>
</g>
<!-- Sequence*&#45;&gt;MoveTo!******** -->
<g id="edge19" class="edge">
<title>Sequence*&#45;&gt;MoveTo!********</title>
<path fill="none" stroke="black" d="M1311.08,-151.56C1347.4,-139.79 1409.9,-119.54 1452.53,-105.72"/>
<polygon fill="black" stroke="black" points="1453.67,-109.03 1462.11,-102.62 1451.52,-102.37 1453.67,-109.03"/>
</g>
<!-- NotReadyForSG?*** -->
<g id="node21" class="node">
<title>NotReadyForSG?***</title>
<ellipse fill="gray" stroke="black" cx="1620.95" cy="-90" rx="54.7" ry="18"/>
<text text-anchor="middle" x="1620.95" y="-87.8" font-family="Times,serif" font-size="9.00">NotReadyForSG?***</text>
</g>
<!-- Sequence*&#45;&gt;NotReadyForSG?*** -->
<g id="edge20" class="edge">
<title>Sequence*&#45;&gt;NotReadyForSG?***</title>
<path fill="none" stroke="black" d="M1316.41,-155.15C1368.65,-146.1 1470.93,-127.69 1556.95,-108 1561.36,-106.99 1565.92,-105.89 1570.48,-104.75"/>
<polygon fill="black" stroke="black" points="1571.6,-108.08 1580.43,-102.22 1569.87,-101.3 1571.6,-108.08"/>
</g>
<!-- LkGraph?** -->
<g id="node22" class="node">
<title>LkGraph?**</title>
<ellipse fill="gray" stroke="black" cx="1729.95" cy="-90" rx="35.59" ry="18"/>
<text text-anchor="middle" x="1729.95" y="-87.8" font-family="Times,serif" font-size="9.00">LkGraph?**</text>
</g>
<!-- Sequence*&#45;&gt;LkGraph?** -->
<g id="edge21" class="edge">
<title>Sequence*&#45;&gt;LkGraph?**</title>
<path fill="none" stroke="black" d="M1316.42,-159.15C1386.68,-154.79 1551.14,-141.59 1684.95,-108 1687.76,-107.29 1690.63,-106.47 1693.5,-105.57"/>
<polygon fill="black" stroke="black" points="1694.81,-108.82 1703.15,-102.28 1692.55,-102.19 1694.81,-108.82"/>
</g>
<!-- GetLk! -->
<g id="node23" class="node">
<title>GetLk!</title>
<ellipse fill="gray" stroke="black" cx="1810.95" cy="-90" rx="27" ry="18"/>
<text text-anchor="middle" x="1810.95" y="-87.8" font-family="Times,serif" font-size="9.00">GetLk!</text>
</g>
<!-- Sequence*&#45;&gt;GetLk! -->
<g id="edge22" class="edge">
<title>Sequence*&#45;&gt;GetLk!</title>
<path fill="none" stroke="black" d="M1316.46,-161.2C1397.9,-160.84 1607.76,-155.02 1774.95,-108 1776.9,-107.45 1778.87,-106.81 1780.83,-106.1"/>
<polygon fill="black" stroke="black" points="1782.57,-109.17 1790.47,-102.11 1779.89,-102.7 1782.57,-109.17"/>
</g>
<!-- MoveTo!********* -->
<g id="node24" class="node">
<title>MoveTo!*********</title>
<ellipse fill="gray" stroke="black" cx="1908.95" cy="-90" rx="52.58" ry="18"/>
<text text-anchor="middle" x="1908.95" y="-87.8" font-family="Times,serif" font-size="9.00">MoveTo!*********</text>
</g>
<!-- Sequence*&#45;&gt;MoveTo!********* -->
<g id="edge23" class="edge">
<title>Sequence*&#45;&gt;MoveTo!*********</title>
<path fill="none" stroke="black" d="M1316.31,-159.86C1404.89,-156.47 1648.02,-144.32 1846.95,-108 1851.46,-107.18 1856.11,-106.18 1860.75,-105.09"/>
<polygon fill="black" stroke="black" points="1861.97,-108.39 1870.83,-102.57 1860.28,-101.6 1861.97,-108.39"/>
</g>
<!-- MoveTo!********** -->
<g id="node25" class="node">
<title>MoveTo!**********</title>
<ellipse fill="gray" stroke="black" cx="2033.95" cy="-90" rx="54.7" ry="18"/>
<text text-anchor="middle" x="2033.95" y="-87.8" font-family="Times,serif" font-size="9.00">MoveTo!**********</text>
</g>
<!-- Sequence*&#45;&gt;MoveTo!********** -->
<g id="edge24" class="edge">
<title>Sequence*&#45;&gt;MoveTo!**********</title>
<path fill="none" stroke="black" d="M1316.28,-160.62C1417.36,-159.02 1722.35,-150.72 1970.95,-108 1975.59,-107.2 1980.39,-106.22 1985.16,-105.12"/>
<polygon fill="black" stroke="black" points="1986,-108.52 1994.88,-102.76 1984.34,-101.72 1986,-108.52"/>
</g>
<!-- Fallback* -->
<g id="node26" class="node">
<title>Fallback*</title>
<polygon fill="cyan" stroke="black" points="2170.69,-82.54 2170.69,-97.46 2152.1,-108 2125.8,-108 2107.21,-97.46 2107.21,-82.54 2125.8,-72 2152.1,-72 2170.69,-82.54"/>
<text text-anchor="middle" x="2138.95" y="-87.8" font-family="Times,serif" font-size="9.00">Fallback*</text>
</g>
<!-- Sequence*&#45;&gt;Fallback* -->
<g id="edge25" class="edge">
<title>Sequence*&#45;&gt;Fallback*</title>
<path fill="none" stroke="black" d="M1316.34,-160.26C1451.42,-157.14 1945.69,-143.48 2097.95,-108 2100.6,-107.38 2103.3,-106.61 2105.99,-105.74"/>
<polygon fill="black" stroke="black" points="2107.35,-108.97 2115.54,-102.25 2104.95,-102.4 2107.35,-108.97"/>
</g>
<!-- MoveTo!************ -->
<g id="node31" class="node">
<title>MoveTo!************</title>
<ellipse fill="gray" stroke="black" cx="2248.95" cy="-90" rx="60.09" ry="18"/>
<text text-anchor="middle" x="2248.95" y="-87.8" font-family="Times,serif" font-size="9.00">MoveTo!************</text>
</g>
<!-- Sequence*&#45;&gt;MoveTo!************ -->
<g id="edge30" class="edge">
<title>Sequence*&#45;&gt;MoveTo!************</title>
<path fill="none" stroke="black" d="M1316.44,-161.22C1436.42,-161.51 1846.42,-158.5 2179.95,-108 2185.36,-107.18 2190.97,-106.13 2196.55,-104.96"/>
<polygon fill="black" stroke="black" points="2197.5,-108.34 2206.5,-102.75 2195.98,-101.51 2197.5,-108.34"/>
</g>
<!-- ReachGoal?* -->
<g id="node32" class="node">
<title>ReachGoal?*</title>
<ellipse fill="gray" stroke="black" cx="2363.95" cy="-90" rx="36.9" ry="18"/>
<text text-anchor="middle" x="2363.95" y="-87.8" font-family="Times,serif" font-size="9.00">ReachGoal?*</text>
</g>
<!-- Sequence*&#45;&gt;ReachGoal?* -->
<g id="edge31" class="edge">
<title>Sequence*&#45;&gt;ReachGoal?*</title>
<path fill="none" stroke="black" d="M1316.41,-160.63C1473.21,-158.76 2120.04,-148.65 2317.95,-108 2321.12,-107.35 2324.36,-106.52 2327.58,-105.57"/>
<polygon fill="black" stroke="black" points="2328.69,-108.89 2337.11,-102.46 2326.51,-102.24 2328.69,-108.89"/>
</g>
<!-- NotReadyForSG?***** -->
<g id="node33" class="node">
<title>NotReadyForSG?*****</title>
<ellipse fill="gray" stroke="black" cx="2478.95" cy="-90" rx="60.09" ry="18"/>
<text text-anchor="middle" x="2478.95" y="-87.8" font-family="Times,serif" font-size="9.00">NotReadyForSG?*****</text>
</g>
<!-- Sequence*&#45;&gt;NotReadyForSG?***** -->
<g id="edge32" class="edge">
<title>Sequence*&#45;&gt;NotReadyForSG?*****</title>
<path fill="none" stroke="black" d="M1316.3,-160.29C1481.02,-156.73 2190.96,-139.81 2409.95,-108 2415.37,-107.21 2420.98,-106.19 2426.56,-105.03"/>
<polygon fill="black" stroke="black" points="2427.5,-108.41 2436.51,-102.83 2425.99,-101.57 2427.5,-108.41"/>
</g>
<!-- MoveTo!************* -->
<g id="node34" class="node">
<title>MoveTo!*************</title>
<ellipse fill="gray" stroke="black" cx="2619.95" cy="-90" rx="62.86" ry="18"/>
<text text-anchor="middle" x="2619.95" y="-87.8" font-family="Times,serif" font-size="9.00">MoveTo!*************</text>
</g>
<!-- Sequence*&#45;&gt;MoveTo!************* -->
<g id="edge33" class="edge">
<title>Sequence*&#45;&gt;MoveTo!*************</title>
<path fill="none" stroke="black" d="M1316.31,-160.44C1492.95,-157.46 2300.06,-142.14 2547.95,-108 2553.74,-107.2 2559.74,-106.15 2565.7,-104.96"/>
<polygon fill="black" stroke="black" points="2566.59,-108.35 2575.65,-102.85 2565.14,-101.51 2566.59,-108.35"/>
</g>
<!-- Fallback** -->
<g id="node35" class="node">
<title>Fallback**</title>
<polygon fill="cyan" stroke="black" points="2770.94,-82.54 2770.94,-97.46 2750.44,-108 2721.46,-108 2700.96,-97.46 2700.96,-82.54 2721.46,-72 2750.44,-72 2770.94,-82.54"/>
<text text-anchor="middle" x="2735.95" y="-87.8" font-family="Times,serif" font-size="9.00">Fallback**</text>
</g>
<!-- Sequence*&#45;&gt;Fallback** -->
<g id="edge34" class="edge">
<title>Sequence*&#45;&gt;Fallback**</title>
<path fill="none" stroke="black" d="M1316.22,-161.24C1504.74,-162.34 2417.08,-164.62 2691.95,-108 2694.81,-107.41 2697.72,-106.66 2700.62,-105.8"/>
<polygon fill="black" stroke="black" points="2701.96,-109.04 2710.32,-102.53 2699.73,-102.4 2701.96,-109.04"/>
</g>
<!-- ReachGoal? -->
<g id="node27" class="node">
<title>ReachGoal?</title>
<ellipse fill="gray" stroke="black" cx="1981.95" cy="-18" rx="34.13" ry="18"/>
<text text-anchor="middle" x="1981.95" y="-15.8" font-family="Times,serif" font-size="9.00">ReachGoal?</text>
</g>
<!-- Fallback*&#45;&gt;ReachGoal? -->
<g id="edge26" class="edge">
<title>Fallback*&#45;&gt;ReachGoal?</title>
<path fill="none" stroke="black" d="M2114.76,-78.22C2088.45,-66.48 2046.17,-47.63 2016.4,-34.36"/>
<polygon fill="black" stroke="black" points="2017.76,-31.14 2007.21,-30.26 2014.91,-37.53 2017.76,-31.14"/>
</g>
<!-- CompLkGraph!* -->
<g id="node28" class="node">
<title>CompLkGraph!*</title>
<ellipse fill="gray" stroke="black" cx="2078.95" cy="-18" rx="45.07" ry="18"/>
<text text-anchor="middle" x="2078.95" y="-15.8" font-family="Times,serif" font-size="9.00">CompLkGraph!*</text>
</g>
<!-- Fallback*&#45;&gt;CompLkGraph!* -->
<g id="edge27" class="edge">
<title>Fallback*&#45;&gt;CompLkGraph!*</title>
<path fill="none" stroke="black" d="M2124.73,-72.41C2117.26,-63.69 2107.96,-52.85 2099.7,-43.21"/>
<polygon fill="black" stroke="black" points="2102.23,-40.78 2093.07,-35.47 2096.92,-45.34 2102.23,-40.78"/>
</g>
<!-- MoveTo!*********** -->
<g id="node29" class="node">
<title>MoveTo!***********</title>
<ellipse fill="gray" stroke="black" cx="2199.95" cy="-18" rx="57.97" ry="18"/>
<text text-anchor="middle" x="2199.95" y="-15.8" font-family="Times,serif" font-size="9.00">MoveTo!***********</text>
</g>
<!-- Fallback*&#45;&gt;MoveTo!*********** -->
<g id="edge28" class="edge">
<title>Fallback*&#45;&gt;MoveTo!***********</title>
<path fill="none" stroke="black" d="M2153.41,-72.41C2161,-63.69 2170.46,-52.85 2178.86,-43.21"/>
<polygon fill="black" stroke="black" points="2181.67,-45.31 2185.6,-35.47 2176.39,-40.71 2181.67,-45.31"/>
</g>
<!-- NotReadyForSG?**** -->
<g id="node30" class="node">
<title>NotReadyForSG?****</title>
<ellipse fill="gray" stroke="black" cx="2332.95" cy="-18" rx="57.32" ry="18"/>
<text text-anchor="middle" x="2332.95" y="-15.8" font-family="Times,serif" font-size="9.00">NotReadyForSG?****</text>
</g>
<!-- Fallback*&#45;&gt;NotReadyForSG?**** -->
<g id="edge29" class="edge">
<title>Fallback*&#45;&gt;NotReadyForSG?****</title>
<path fill="none" stroke="black" d="M2164.01,-78.33C2169.25,-76.18 2174.76,-73.97 2179.95,-72 2214.92,-58.71 2254.89,-44.91 2285.2,-34.73"/>
<polygon fill="black" stroke="black" points="2286.31,-38.04 2294.68,-31.55 2284.09,-31.41 2286.31,-38.04"/>
</g>
<!-- MoveTo!************** -->
<g id="node36" class="node">
<title>MoveTo!**************</title>
<ellipse fill="gray" stroke="black" cx="2604.95" cy="-18" rx="65.48" ry="18"/>
<text text-anchor="middle" x="2604.95" y="-15.8" font-family="Times,serif" font-size="9.00">MoveTo!**************</text>
</g>
<!-- Fallback**&#45;&gt;MoveTo!************** -->
<g id="edge35" class="edge">
<title>Fallback**&#45;&gt;MoveTo!**************</title>
<path fill="none" stroke="black" d="M2712.53,-76.49C2693.13,-66.12 2665.18,-51.18 2642.63,-39.13"/>
<polygon fill="black" stroke="black" points="2644.12,-35.96 2633.65,-34.34 2640.82,-42.14 2644.12,-35.96"/>
</g>
<!-- CompLkGraph!** -->
<g id="node37" class="node">
<title>CompLkGraph!**</title>
<ellipse fill="gray" stroke="black" cx="2735.95" cy="-18" rx="47.84" ry="18"/>
<text text-anchor="middle" x="2735.95" y="-15.8" font-family="Times,serif" font-size="9.00">CompLkGraph!**</text>
</g>
<!-- Fallback**&#45;&gt;CompLkGraph!** -->
<g id="edge36" class="edge">
<title>Fallback**&#45;&gt;CompLkGraph!**</title>
<path fill="none" stroke="black" d="M2735.95,-71.7C2735.95,-63.98 2735.95,-54.71 2735.95,-46.11"/>
<polygon fill="black" stroke="black" points="2739.45,-46.1 2735.95,-36.1 2732.45,-46.1 2739.45,-46.1"/>
</g>
<!-- CompLkGraph!*** -->
<g id="node38" class="node">
<title>CompLkGraph!***</title>
<ellipse fill="gray" stroke="black" cx="2851.95" cy="-18" rx="50.46" ry="18"/>
<text text-anchor="middle" x="2851.95" y="-15.8" font-family="Times,serif" font-size="9.00">CompLkGraph!***</text>
</g>
<!-- Fallback**&#45;&gt;CompLkGraph!*** -->
<g id="edge37" class="edge">
<title>Fallback**&#45;&gt;CompLkGraph!***</title>
<path fill="none" stroke="black" d="M2758.04,-75.67C2775.26,-65.28 2799.43,-50.69 2818.94,-38.92"/>
<polygon fill="black" stroke="black" points="2820.78,-41.9 2827.53,-33.73 2817.16,-35.9 2820.78,-41.9"/>
</g>
</g>
</svg>
