<?xml version="1.0" encoding="UTF-8" standalone="no"?>
<!DOCTYPE svg PUBLIC "-//W3C//DTD SVG 1.1//EN"
 "http://www.w3.org/Graphics/SVG/1.1/DTD/svg11.dtd">
<!-- Generated by graphviz version 2.43.0 (0)
 -->
<!-- Title: pastafarianism Pages: 1 -->
<svg width="2821pt" height="332pt"
 viewBox="0.00 0.00 2820.87 332.00" xmlns="http://www.w3.org/2000/svg" xmlns:xlink="http://www.w3.org/1999/xlink">
<g id="graph0" class="graph" transform="scale(1 1) rotate(0) translate(4 328)">
<title>pastafarianism</title>
<polygon fill="white" stroke="transparent" points="-4,4 -4,-328 2816.87,-328 2816.87,4 -4,4"/>
<!-- Sequence -->
<g id="node1" class="node">
<title>Sequence</title>
<polygon fill="cyan" stroke="black" points="1132.44,-298.54 1132.44,-313.46 1114,-324 1087.91,-324 1069.46,-313.46 1069.46,-298.54 1087.91,-288 1114,-288 1132.44,-298.54"/>
<text text-anchor="middle" x="1100.95" y="-303.8" font-family="Times,serif" font-size="9.00">Sequence</text>
</g>
<!-- Fallback -->
<g id="node2" class="node">
<title>Fallback</title>
<polygon fill="cyan" stroke="black" points="1130.19,-226.54 1130.19,-241.46 1113.06,-252 1088.84,-252 1071.71,-241.46 1071.71,-226.54 1088.84,-216 1113.06,-216 1130.19,-226.54"/>
<text text-anchor="middle" x="1100.95" y="-231.8" font-family="Times,serif" font-size="9.00">Fallback</text>
</g>
<!-- Sequence&#45;&gt;Fallback -->
<g id="edge1" class="edge">
<title>Sequence&#45;&gt;Fallback</title>
<path fill="none" stroke="black" d="M1100.95,-287.7C1100.95,-279.98 1100.95,-270.71 1100.95,-262.11"/>
<polygon fill="black" stroke="black" points="1104.45,-262.1 1100.95,-252.1 1097.45,-262.1 1104.45,-262.1"/>
</g>
<!-- ReachGoal? -->
<g id="node3" class="node">
<title>ReachGoal?</title>
<ellipse fill="gray" stroke="black" cx="1001.95" cy="-162" rx="34.13" ry="18"/>
<text text-anchor="middle" x="1001.95" y="-159.8" font-family="Times,serif" font-size="9.00">ReachGoal?</text>
</g>
<!-- Fallback&#45;&gt;ReachGoal? -->
<g id="edge2" class="edge">
<title>Fallback&#45;&gt;ReachGoal?</title>
<path fill="none" stroke="black" d="M1082.33,-219.83C1067.54,-209.38 1046.64,-194.6 1029.85,-182.73"/>
<polygon fill="black" stroke="black" points="1031.69,-179.74 1021.5,-176.83 1027.65,-185.46 1031.69,-179.74"/>
</g>
<!-- NotReadyForSG? -->
<g id="node4" class="node">
<title>NotReadyForSG?</title>
<ellipse fill="gray" stroke="black" cx="1100.95" cy="-162" rx="46.53" ry="18"/>
<text text-anchor="middle" x="1100.95" y="-159.8" font-family="Times,serif" font-size="9.00">NotReadyForSG?</text>
</g>
<!-- Fallback&#45;&gt;NotReadyForSG? -->
<g id="edge3" class="edge">
<title>Fallback&#45;&gt;NotReadyForSG?</title>
<path fill="none" stroke="black" d="M1100.95,-215.7C1100.95,-207.98 1100.95,-198.71 1100.95,-190.11"/>
<polygon fill="black" stroke="black" points="1104.45,-190.1 1100.95,-180.1 1097.45,-190.1 1104.45,-190.1"/>
</g>
<!-- Sequence* -->
<g id="node5" class="node">
<title>Sequence*</title>
<polygon fill="cyan" stroke="black" points="1234.19,-154.54 1234.19,-169.46 1214.13,-180 1185.77,-180 1165.71,-169.46 1165.71,-154.54 1185.77,-144 1214.13,-144 1234.19,-154.54"/>
<text text-anchor="middle" x="1199.95" y="-159.8" font-family="Times,serif" font-size="9.00">Sequence*</text>
</g>
<!-- Fallback&#45;&gt;Sequence* -->
<g id="edge4" class="edge">
<title>Fallback&#45;&gt;Sequence*</title>
<path fill="none" stroke="black" d="M1119.57,-219.83C1134.26,-209.45 1154.99,-194.79 1171.72,-182.96"/>
<polygon fill="black" stroke="black" points="1173.91,-185.7 1180.05,-177.07 1169.87,-179.98 1173.91,-185.7"/>
</g>
<!-- GetSubGoal! -->
<g id="node6" class="node">
<title>GetSubGoal!</title>
<ellipse fill="gray" stroke="black" cx="36.95" cy="-90" rx="36.9" ry="18"/>
<text text-anchor="middle" x="36.95" y="-87.8" font-family="Times,serif" font-size="9.00">GetSubGoal!</text>
</g>
<!-- Sequence*&#45;&gt;GetSubGoal! -->
<g id="edge5" class="edge">
<title>Sequence*&#45;&gt;GetSubGoal!</title>
<path fill="none" stroke="black" d="M1174.93,-149.45C1169.14,-147.24 1162.92,-145.24 1156.95,-144 689.35,-46.78 551.62,-199.96 82.95,-108 79.78,-107.38 76.53,-106.56 73.3,-105.63"/>
<polygon fill="black" stroke="black" points="74.37,-102.3 63.78,-102.55 72.21,-108.96 74.37,-102.3"/>
</g>
<!-- MoveTo! -->
<g id="node7" class="node">
<title>MoveTo!</title>
<ellipse fill="gray" stroke="black" cx="120.95" cy="-90" rx="28.74" ry="18"/>
<text text-anchor="middle" x="120.95" y="-87.8" font-family="Times,serif" font-size="9.00">MoveTo!</text>
</g>
<!-- Sequence*&#45;&gt;MoveTo! -->
<g id="edge6" class="edge">
<title>Sequence*&#45;&gt;MoveTo!</title>
<path fill="none" stroke="black" d="M1174.93,-149.46C1169.14,-147.26 1162.92,-145.25 1156.95,-144 722.52,-53.09 591.27,-208.48 158.95,-108 156.63,-107.46 154.29,-106.78 151.95,-106"/>
<polygon fill="black" stroke="black" points="153.14,-102.71 142.55,-102.38 150.62,-109.24 153.14,-102.71"/>
</g>
<!-- MoveTo!* -->
<g id="node8" class="node">
<title>MoveTo!*</title>
<ellipse fill="gray" stroke="black" cx="199.95" cy="-90" rx="31.51" ry="18"/>
<text text-anchor="middle" x="199.95" y="-87.8" font-family="Times,serif" font-size="9.00">MoveTo!*</text>
</g>
<!-- Sequence*&#45;&gt;MoveTo!* -->
<g id="edge7" class="edge">
<title>Sequence*&#45;&gt;MoveTo!*</title>
<path fill="none" stroke="black" d="M1174.92,-149.47C1169.13,-147.27 1162.92,-145.26 1156.95,-144 758.3,-59.91 638.89,-195.39 240.95,-108 238.29,-107.42 235.58,-106.67 232.89,-105.82"/>
<polygon fill="black" stroke="black" points="233.93,-102.47 223.34,-102.36 231.55,-109.05 233.93,-102.47"/>
</g>
<!-- MoveTo!** -->
<g id="node9" class="node">
<title>MoveTo!**</title>
<ellipse fill="gray" stroke="black" cx="283.95" cy="-90" rx="34.13" ry="18"/>
<text text-anchor="middle" x="283.95" y="-87.8" font-family="Times,serif" font-size="9.00">MoveTo!**</text>
</g>
<!-- Sequence*&#45;&gt;MoveTo!** -->
<g id="edge8" class="edge">
<title>Sequence*&#45;&gt;MoveTo!**</title>
<path fill="none" stroke="black" d="M1174.92,-149.49C1169.13,-147.29 1162.92,-145.27 1156.95,-144 795.82,-67.06 688.08,-184.94 326.95,-108 324.15,-107.4 321.3,-106.64 318.47,-105.78"/>
<polygon fill="black" stroke="black" points="319.58,-102.46 308.98,-102.51 317.29,-109.08 319.58,-102.46"/>
</g>
<!-- NotReadyForSG?* -->
<g id="node10" class="node">
<title>NotReadyForSG?*</title>
<ellipse fill="gray" stroke="black" cx="385.95" cy="-90" rx="49.8" ry="18"/>
<text text-anchor="middle" x="385.95" y="-87.8" font-family="Times,serif" font-size="9.00">NotReadyForSG?*</text>
</g>
<!-- Sequence*&#45;&gt;NotReadyForSG?* -->
<g id="edge9" class="edge">
<title>Sequence*&#45;&gt;NotReadyForSG?*</title>
<path fill="none" stroke="black" d="M1174.91,-149.52C1169.12,-147.32 1162.91,-145.29 1156.95,-144 846.86,-76.78 756.79,-160.99 443.95,-108 439.76,-107.29 435.44,-106.38 431.15,-105.35"/>
<polygon fill="black" stroke="black" points="431.78,-101.9 421.22,-102.77 430.02,-108.67 431.78,-101.9"/>
</g>
<!-- CompLkGraph! -->
<g id="node11" class="node">
<title>CompLkGraph!</title>
<ellipse fill="gray" stroke="black" cx="495.95" cy="-90" rx="42.95" ry="18"/>
<text text-anchor="middle" x="495.95" y="-87.8" font-family="Times,serif" font-size="9.00">CompLkGraph!</text>
</g>
<!-- Sequence*&#45;&gt;CompLkGraph! -->
<g id="edge10" class="edge">
<title>Sequence*&#45;&gt;CompLkGraph!</title>
<path fill="none" stroke="black" d="M1174.9,-149.56C1169.12,-147.35 1162.91,-145.32 1156.95,-144 891.78,-85.34 813.63,-159.38 546.95,-108 543.5,-107.34 539.96,-106.5 536.44,-105.55"/>
<polygon fill="black" stroke="black" points="537.2,-102.13 526.62,-102.67 535.22,-108.85 537.2,-102.13"/>
</g>
<!-- LkGraph? -->
<g id="node12" class="node">
<title>LkGraph?</title>
<ellipse fill="gray" stroke="black" cx="586.95" cy="-90" rx="30.7" ry="18"/>
<text text-anchor="middle" x="586.95" y="-87.8" font-family="Times,serif" font-size="9.00">LkGraph?</text>
</g>
<!-- Sequence*&#45;&gt;LkGraph? -->
<g id="edge11" class="edge">
<title>Sequence*&#45;&gt;LkGraph?</title>
<path fill="none" stroke="black" d="M1174.9,-149.6C1169.11,-147.39 1162.9,-145.34 1156.95,-144 926.65,-91.98 856.57,-162.94 626.95,-108 624.45,-107.4 621.9,-106.66 619.36,-105.82"/>
<polygon fill="black" stroke="black" points="620.36,-102.46 609.77,-102.24 617.91,-109.02 620.36,-102.46"/>
</g>
<!-- MoveTo!*** -->
<g id="node13" class="node">
<title>MoveTo!***</title>
<ellipse fill="gray" stroke="black" cx="672.95" cy="-90" rx="36.9" ry="18"/>
<text text-anchor="middle" x="672.95" y="-87.8" font-family="Times,serif" font-size="9.00">MoveTo!***</text>
</g>
<!-- Sequence*&#45;&gt;MoveTo!*** -->
<g id="edge12" class="edge">
<title>Sequence*&#45;&gt;MoveTo!***</title>
<path fill="none" stroke="black" d="M1174.88,-149.66C1169.1,-147.45 1162.89,-145.39 1156.95,-144 966.74,-99.61 909.65,-150.24 718.95,-108 715.97,-107.34 712.92,-106.53 709.89,-105.63"/>
<polygon fill="black" stroke="black" points="710.91,-102.28 700.31,-102.49 708.73,-108.93 710.91,-102.28"/>
</g>
<!-- LkGraph?* -->
<g id="node14" class="node">
<title>LkGraph?*</title>
<ellipse fill="gray" stroke="black" cx="760.95" cy="-90" rx="32.82" ry="18"/>
<text text-anchor="middle" x="760.95" y="-87.8" font-family="Times,serif" font-size="9.00">LkGraph?*</text>
</g>
<!-- Sequence*&#45;&gt;LkGraph?* -->
<g id="edge13" class="edge">
<title>Sequence*&#45;&gt;LkGraph?*</title>
<path fill="none" stroke="black" d="M1174.4,-149.57C1168.75,-147.42 1162.72,-145.41 1156.95,-144 1003.3,-106.57 956.45,-146.05 802.95,-108 800.32,-107.35 797.64,-106.56 794.97,-105.7"/>
<polygon fill="black" stroke="black" points="796.03,-102.36 785.44,-102.26 793.66,-108.94 796.03,-102.36"/>
</g>
<!-- MoveTo!**** -->
<g id="node15" class="node">
<title>MoveTo!****</title>
<ellipse fill="gray" stroke="black" cx="850.95" cy="-90" rx="39.02" ry="18"/>
<text text-anchor="middle" x="850.95" y="-87.8" font-family="Times,serif" font-size="9.00">MoveTo!****</text>
</g>
<!-- Sequence*&#45;&gt;MoveTo!**** -->
<g id="edge14" class="edge">
<title>Sequence*&#45;&gt;MoveTo!****</title>
<path fill="none" stroke="black" d="M1174.36,-149.73C1168.71,-147.57 1162.69,-145.51 1156.95,-144 1044.99,-114.51 1011.42,-135.47 898.95,-108 895.82,-107.23 892.6,-106.34 889.39,-105.37"/>
<polygon fill="black" stroke="black" points="890.45,-102.04 879.86,-102.29 888.3,-108.7 890.45,-102.04"/>
</g>
<!-- MoveTo!***** -->
<g id="node16" class="node">
<title>MoveTo!*****</title>
<ellipse fill="gray" stroke="black" cx="949.95" cy="-90" rx="42.29" ry="18"/>
<text text-anchor="middle" x="949.95" y="-87.8" font-family="Times,serif" font-size="9.00">MoveTo!*****</text>
</g>
<!-- Sequence*&#45;&gt;MoveTo!***** -->
<g id="edge15" class="edge">
<title>Sequence*&#45;&gt;MoveTo!*****</title>
<path fill="none" stroke="black" d="M1173.79,-149.95C1168.28,-147.82 1162.47,-145.72 1156.95,-144 1089.44,-122.94 1070.07,-127.01 1001.95,-108 998.55,-107.05 995.05,-106.02 991.54,-104.95"/>
<polygon fill="black" stroke="black" points="992.3,-101.53 981.72,-101.87 990.21,-108.2 992.3,-101.53"/>
</g>
<!-- MoveTo!****** -->
<g id="node17" class="node">
<title>MoveTo!******</title>
<ellipse fill="gray" stroke="black" cx="1054.95" cy="-90" rx="44.41" ry="18"/>
<text text-anchor="middle" x="1054.95" y="-87.8" font-family="Times,serif" font-size="9.00">MoveTo!******</text>
</g>
<!-- Sequence*&#45;&gt;MoveTo!****** -->
<g id="edge16" class="edge">
<title>Sequence*&#45;&gt;MoveTo!******</title>
<path fill="none" stroke="black" d="M1175.68,-149.28C1152.78,-138.23 1118.12,-121.49 1091.8,-108.79"/>
<polygon fill="black" stroke="black" points="1093.05,-105.5 1082.52,-104.31 1090,-111.81 1093.05,-105.5"/>
</g>
<!-- Fallback* -->
<g id="node18" class="node">
<title>Fallback*</title>
<polygon fill="cyan" stroke="black" points="1180.69,-82.54 1180.69,-97.46 1162.1,-108 1135.8,-108 1117.21,-97.46 1117.21,-82.54 1135.8,-72 1162.1,-72 1180.69,-82.54"/>
<text text-anchor="middle" x="1148.95" y="-87.8" font-family="Times,serif" font-size="9.00">Fallback*</text>
</g>
<!-- Sequence*&#45;&gt;Fallback* -->
<g id="edge17" class="edge">
<title>Sequence*&#45;&gt;Fallback*</title>
<path fill="none" stroke="black" d="M1187.34,-143.7C1181.35,-135.47 1174.07,-125.48 1167.47,-116.42"/>
<polygon fill="black" stroke="black" points="1170.13,-114.13 1161.41,-108.1 1164.47,-118.25 1170.13,-114.13"/>
</g>
<!-- NotReadyForSG?** -->
<g id="node21" class="node">
<title>NotReadyForSG?**</title>
<ellipse fill="gray" stroke="black" cx="1250.95" cy="-90" rx="51.92" ry="18"/>
<text text-anchor="middle" x="1250.95" y="-87.8" font-family="Times,serif" font-size="9.00">NotReadyForSG?**</text>
</g>
<!-- Sequence*&#45;&gt;NotReadyForSG?** -->
<g id="edge20" class="edge">
<title>Sequence*&#45;&gt;NotReadyForSG?**</title>
<path fill="none" stroke="black" d="M1212.56,-143.7C1218.7,-135.27 1226.2,-124.97 1232.93,-115.73"/>
<polygon fill="black" stroke="black" points="1235.78,-117.77 1238.84,-107.62 1230.12,-113.64 1235.78,-117.77"/>
</g>
<!-- GetSubGoal!* -->
<g id="node22" class="node">
<title>GetSubGoal!*</title>
<ellipse fill="gray" stroke="black" cx="1359.95" cy="-90" rx="39.02" ry="18"/>
<text text-anchor="middle" x="1359.95" y="-87.8" font-family="Times,serif" font-size="9.00">GetSubGoal!*</text>
</g>
<!-- Sequence*&#45;&gt;GetSubGoal!* -->
<g id="edge21" class="edge">
<title>Sequence*&#45;&gt;GetSubGoal!*</title>
<path fill="none" stroke="black" d="M1225.66,-149.75C1252.04,-138.21 1293.34,-120.14 1323.18,-107.09"/>
<polygon fill="black" stroke="black" points="1324.67,-110.26 1332.43,-103.04 1321.87,-103.84 1324.67,-110.26"/>
</g>
<!-- MoveTo!********* -->
<g id="node23" class="node">
<title>MoveTo!*********</title>
<ellipse fill="gray" stroke="black" cx="1469.95" cy="-90" rx="52.58" ry="18"/>
<text text-anchor="middle" x="1469.95" y="-87.8" font-family="Times,serif" font-size="9.00">MoveTo!*********</text>
</g>
<!-- Sequence*&#45;&gt;MoveTo!********* -->
<g id="edge22" class="edge">
<title>Sequence*&#45;&gt;MoveTo!*********</title>
<path fill="none" stroke="black" d="M1231.71,-153.1C1272.55,-142.89 1345.62,-124.48 1407.95,-108 1412.02,-106.92 1416.23,-105.8 1420.46,-104.66"/>
<polygon fill="black" stroke="black" points="1421.55,-107.99 1430.29,-101.99 1419.72,-101.23 1421.55,-107.99"/>
</g>
<!-- NotReadyForSG?*** -->
<g id="node24" class="node">
<title>NotReadyForSG?***</title>
<ellipse fill="gray" stroke="black" cx="1594.95" cy="-90" rx="54.7" ry="18"/>
<text text-anchor="middle" x="1594.95" y="-87.8" font-family="Times,serif" font-size="9.00">NotReadyForSG?***</text>
</g>
<!-- Sequence*&#45;&gt;NotReadyForSG?*** -->
<g id="edge23" class="edge">
<title>Sequence*&#45;&gt;NotReadyForSG?***</title>
<path fill="none" stroke="black" d="M1234.58,-156.69C1295.21,-148.88 1424.36,-131.04 1531.95,-108 1536.31,-107.07 1540.81,-106.02 1545.31,-104.92"/>
<polygon fill="black" stroke="black" points="1546.28,-108.28 1555.11,-102.43 1544.56,-101.5 1546.28,-108.28"/>
</g>
<!-- GetLk! -->
<g id="node25" class="node">
<title>GetLk!</title>
<ellipse fill="gray" stroke="black" cx="1694.95" cy="-90" rx="27" ry="18"/>
<text text-anchor="middle" x="1694.95" y="-87.8" font-family="Times,serif" font-size="9.00">GetLk!</text>
</g>
<!-- Sequence*&#45;&gt;GetLk! -->
<g id="edge24" class="edge">
<title>Sequence*&#45;&gt;GetLk!</title>
<path fill="none" stroke="black" d="M1234.38,-160.82C1311.79,-159.6 1504.87,-151.98 1658.95,-108 1660.89,-107.45 1662.86,-106.79 1664.83,-106.08"/>
<polygon fill="black" stroke="black" points="1666.57,-109.15 1674.46,-102.08 1663.88,-102.68 1666.57,-109.15"/>
</g>
<!-- MoveTo!********** -->
<g id="node26" class="node">
<title>MoveTo!**********</title>
<ellipse fill="gray" stroke="black" cx="1794.95" cy="-90" rx="54.7" ry="18"/>
<text text-anchor="middle" x="1794.95" y="-87.8" font-family="Times,serif" font-size="9.00">MoveTo!**********</text>
</g>
<!-- Sequence*&#45;&gt;MoveTo!********** -->
<g id="edge25" class="edge">
<title>Sequence*&#45;&gt;MoveTo!**********</title>
<path fill="none" stroke="black" d="M1234.38,-159.48C1319.33,-155.3 1545.45,-141.67 1730.95,-108 1735.65,-107.15 1740.51,-106.12 1745.36,-105"/>
<polygon fill="black" stroke="black" points="1746.34,-108.37 1755.23,-102.61 1744.68,-101.57 1746.34,-108.37"/>
</g>
<!-- MoveTo!*********** -->
<g id="node27" class="node">
<title>MoveTo!***********</title>
<ellipse fill="gray" stroke="black" cx="1925.95" cy="-90" rx="57.97" ry="18"/>
<text text-anchor="middle" x="1925.95" y="-87.8" font-family="Times,serif" font-size="9.00">MoveTo!***********</text>
</g>
<!-- Sequence*&#45;&gt;MoveTo!*********** -->
<g id="edge26" class="edge">
<title>Sequence*&#45;&gt;MoveTo!***********</title>
<path fill="none" stroke="black" d="M1234.5,-160.27C1332.82,-157.74 1622.3,-147.25 1858.95,-108 1864.07,-107.15 1869.38,-106.1 1874.66,-104.95"/>
<polygon fill="black" stroke="black" points="1875.77,-108.28 1884.72,-102.62 1874.19,-101.46 1875.77,-108.28"/>
</g>
<!-- Fallback** -->
<g id="node28" class="node">
<title>Fallback**</title>
<polygon fill="cyan" stroke="black" points="2071.94,-82.54 2071.94,-97.46 2051.44,-108 2022.46,-108 2001.96,-97.46 2001.96,-82.54 2022.46,-72 2051.44,-72 2071.94,-82.54"/>
<text text-anchor="middle" x="2036.95" y="-87.8" font-family="Times,serif" font-size="9.00">Fallback**</text>
</g>
<!-- Sequence*&#45;&gt;Fallback** -->
<g id="edge27" class="edge">
<title>Sequence*&#45;&gt;Fallback**</title>
<path fill="none" stroke="black" d="M1234.24,-160.08C1366.71,-156.33 1844.92,-140.75 1992.95,-108 1995.8,-107.37 1998.71,-106.59 2001.6,-105.7"/>
<polygon fill="black" stroke="black" points="2002.96,-108.94 2011.29,-102.4 2000.7,-102.31 2002.96,-108.94"/>
</g>
<!-- MoveTo!************* -->
<g id="node32" class="node">
<title>MoveTo!*************</title>
<ellipse fill="gray" stroke="black" cx="2152.95" cy="-90" rx="62.86" ry="18"/>
<text text-anchor="middle" x="2152.95" y="-87.8" font-family="Times,serif" font-size="9.00">MoveTo!*************</text>
</g>
<!-- Sequence*&#45;&gt;MoveTo!************* -->
<g id="edge31" class="edge">
<title>Sequence*&#45;&gt;MoveTo!*************</title>
<path fill="none" stroke="black" d="M1234.59,-161.05C1353.29,-160.75 1754.26,-156.03 2080.95,-108 2086.65,-107.16 2092.56,-106.1 2098.43,-104.91"/>
<polygon fill="black" stroke="black" points="2099.2,-108.32 2108.24,-102.81 2097.73,-101.48 2099.2,-108.32"/>
</g>
<!-- ReachGoal?** -->
<g id="node33" class="node">
<title>ReachGoal?**</title>
<ellipse fill="gray" stroke="black" cx="2272.95" cy="-90" rx="39.02" ry="18"/>
<text text-anchor="middle" x="2272.95" y="-87.8" font-family="Times,serif" font-size="9.00">ReachGoal?**</text>
</g>
<!-- Sequence*&#45;&gt;ReachGoal?** -->
<g id="edge32" class="edge">
<title>Sequence*&#45;&gt;ReachGoal?**</title>
<path fill="none" stroke="black" d="M1234.3,-160.55C1389.82,-158.32 2028.98,-146.91 2224.95,-108 2228.2,-107.35 2231.53,-106.53 2234.85,-105.6"/>
<polygon fill="black" stroke="black" points="2236.15,-108.86 2244.65,-102.54 2234.06,-102.18 2236.15,-108.86"/>
</g>
<!-- NotReadyForSG?***** -->
<g id="node34" class="node">
<title>NotReadyForSG?*****</title>
<ellipse fill="gray" stroke="black" cx="2389.95" cy="-90" rx="60.09" ry="18"/>
<text text-anchor="middle" x="2389.95" y="-87.8" font-family="Times,serif" font-size="9.00">NotReadyForSG?*****</text>
</g>
<!-- Sequence*&#45;&gt;NotReadyForSG?***** -->
<g id="edge33" class="edge">
<title>Sequence*&#45;&gt;NotReadyForSG?*****</title>
<path fill="none" stroke="black" d="M1234.36,-160.27C1398.57,-156.67 2103.44,-139.63 2320.95,-108 2326.37,-107.21 2331.98,-106.19 2337.56,-105.03"/>
<polygon fill="black" stroke="black" points="2338.5,-108.41 2347.51,-102.83 2336.99,-101.57 2338.5,-108.41"/>
</g>
<!-- MoveTo!************** -->
<g id="node35" class="node">
<title>MoveTo!**************</title>
<ellipse fill="gray" stroke="black" cx="2532.95" cy="-90" rx="65.48" ry="18"/>
<text text-anchor="middle" x="2532.95" y="-87.8" font-family="Times,serif" font-size="9.00">MoveTo!**************</text>
</g>
<!-- Sequence*&#45;&gt;MoveTo!************** -->
<g id="edge34" class="edge">
<title>Sequence*&#45;&gt;MoveTo!**************</title>
<path fill="none" stroke="black" d="M1234.41,-160.41C1410.64,-157.24 2212.46,-141.21 2458.95,-108 2464.81,-107.21 2470.89,-106.18 2476.92,-105.01"/>
<polygon fill="black" stroke="black" points="2477.92,-108.38 2487.01,-102.93 2476.5,-101.52 2477.92,-108.38"/>
</g>
<!-- Fallback*** -->
<g id="node36" class="node">
<title>Fallback***</title>
<polygon fill="cyan" stroke="black" points="2691.44,-82.54 2691.44,-97.46 2669.48,-108 2638.42,-108 2616.46,-97.46 2616.46,-82.54 2638.42,-72 2669.48,-72 2691.44,-82.54"/>
<text text-anchor="middle" x="2653.95" y="-87.8" font-family="Times,serif" font-size="9.00">Fallback***</text>
</g>
<!-- Sequence*&#45;&gt;Fallback*** -->
<g id="edge35" class="edge">
<title>Sequence*&#45;&gt;Fallback***</title>
<path fill="none" stroke="black" d="M1234.43,-161.14C1423.14,-161.7 2332.22,-161.51 2606.95,-108 2610.19,-107.37 2613.5,-106.55 2616.79,-105.62"/>
<polygon fill="black" stroke="black" points="2618.05,-108.89 2626.52,-102.52 2615.93,-102.22 2618.05,-108.89"/>
</g>
<!-- MoveTo!******* -->
<g id="node19" class="node">
<title>MoveTo!*******</title>
<ellipse fill="gray" stroke="black" cx="1091.95" cy="-18" rx="47.19" ry="18"/>
<text text-anchor="middle" x="1091.95" y="-15.8" font-family="Times,serif" font-size="9.00">MoveTo!*******</text>
</g>
<!-- Fallback*&#45;&gt;MoveTo!******* -->
<g id="edge18" class="edge">
<title>Fallback*&#45;&gt;MoveTo!*******</title>
<path fill="none" stroke="black" d="M1135.15,-72.05C1128.12,-63.42 1119.44,-52.76 1111.71,-43.27"/>
<polygon fill="black" stroke="black" points="1114.26,-40.85 1105.23,-35.31 1108.83,-45.27 1114.26,-40.85"/>
</g>
<!-- MoveTo!******** -->
<g id="node20" class="node">
<title>MoveTo!********</title>
<ellipse fill="gray" stroke="black" cx="1206.95" cy="-18" rx="49.8" ry="18"/>
<text text-anchor="middle" x="1206.95" y="-15.8" font-family="Times,serif" font-size="9.00">MoveTo!********</text>
</g>
<!-- Fallback*&#45;&gt;MoveTo!******** -->
<g id="edge19" class="edge">
<title>Fallback*&#45;&gt;MoveTo!********</title>
<path fill="none" stroke="black" d="M1162.99,-72.05C1170.04,-63.54 1178.72,-53.07 1186.5,-43.68"/>
<polygon fill="black" stroke="black" points="1189.35,-45.72 1193.04,-35.79 1183.96,-41.26 1189.35,-45.72"/>
</g>
<!-- ReachGoal?* -->
<g id="node29" class="node">
<title>ReachGoal?*</title>
<ellipse fill="gray" stroke="black" cx="1921.95" cy="-18" rx="36.9" ry="18"/>
<text text-anchor="middle" x="1921.95" y="-15.8" font-family="Times,serif" font-size="9.00">ReachGoal?*</text>
</g>
<!-- Fallback**&#45;&gt;ReachGoal?* -->
<g id="edge28" class="edge">
<title>Fallback**&#45;&gt;ReachGoal?*</title>
<path fill="none" stroke="black" d="M2015.05,-75.67C1997.42,-64.94 1972.42,-49.72 1952.77,-37.76"/>
<polygon fill="black" stroke="black" points="1954.52,-34.73 1944.16,-32.52 1950.88,-40.71 1954.52,-34.73"/>
</g>
<!-- MoveTo!************ -->
<g id="node30" class="node">
<title>MoveTo!************</title>
<ellipse fill="gray" stroke="black" cx="2036.95" cy="-18" rx="60.09" ry="18"/>
<text text-anchor="middle" x="2036.95" y="-15.8" font-family="Times,serif" font-size="9.00">MoveTo!************</text>
</g>
<!-- Fallback**&#45;&gt;MoveTo!************ -->
<g id="edge29" class="edge">
<title>Fallback**&#45;&gt;MoveTo!************</title>
<path fill="none" stroke="black" d="M2036.95,-71.7C2036.95,-63.98 2036.95,-54.71 2036.95,-46.11"/>
<polygon fill="black" stroke="black" points="2040.45,-46.1 2036.95,-36.1 2033.45,-46.1 2040.45,-46.1"/>
</g>
<!-- NotReadyForSG?**** -->
<g id="node31" class="node">
<title>NotReadyForSG?****</title>
<ellipse fill="gray" stroke="black" cx="2171.95" cy="-18" rx="57.32" ry="18"/>
<text text-anchor="middle" x="2171.95" y="-15.8" font-family="Times,serif" font-size="9.00">NotReadyForSG?****</text>
</g>
<!-- Fallback**&#45;&gt;NotReadyForSG?**** -->
<g id="edge30" class="edge">
<title>Fallback**&#45;&gt;NotReadyForSG?****</title>
<path fill="none" stroke="black" d="M2060.77,-76.65C2081.22,-66.04 2111.04,-50.58 2134.65,-38.34"/>
<polygon fill="black" stroke="black" points="2136.42,-41.36 2143.69,-33.65 2133.2,-35.15 2136.42,-41.36"/>
</g>
<!-- MoveTo!*************** -->
<g id="node37" class="node">
<title>MoveTo!***************</title>
<ellipse fill="gray" stroke="black" cx="2522.95" cy="-18" rx="68.25" ry="18"/>
<text text-anchor="middle" x="2522.95" y="-15.8" font-family="Times,serif" font-size="9.00">MoveTo!***************</text>
</g>
<!-- Fallback***&#45;&gt;MoveTo!*************** -->
<g id="edge36" class="edge">
<title>Fallback***&#45;&gt;MoveTo!***************</title>
<path fill="none" stroke="black" d="M2629.62,-76C2610.24,-65.64 2582.77,-50.97 2560.57,-39.1"/>
<polygon fill="black" stroke="black" points="2562.19,-36 2551.72,-34.37 2558.89,-42.17 2562.19,-36"/>
</g>
<!-- CompLkGraph!* -->
<g id="node38" class="node">
<title>CompLkGraph!*</title>
<ellipse fill="gray" stroke="black" cx="2653.95" cy="-18" rx="45.07" ry="18"/>
<text text-anchor="middle" x="2653.95" y="-15.8" font-family="Times,serif" font-size="9.00">CompLkGraph!*</text>
</g>
<!-- Fallback***&#45;&gt;CompLkGraph!* -->
<g id="edge37" class="edge">
<title>Fallback***&#45;&gt;CompLkGraph!*</title>
<path fill="none" stroke="black" d="M2653.95,-71.7C2653.95,-63.98 2653.95,-54.71 2653.95,-46.11"/>
<polygon fill="black" stroke="black" points="2657.45,-46.1 2653.95,-36.1 2650.45,-46.1 2657.45,-46.1"/>
</g>
<!-- CompLkGraph!** -->
<g id="node39" class="node">
<title>CompLkGraph!**</title>
<ellipse fill="gray" stroke="black" cx="2764.95" cy="-18" rx="47.84" ry="18"/>
<text text-anchor="middle" x="2764.95" y="-15.8" font-family="Times,serif" font-size="9.00">CompLkGraph!**</text>
</g>
<!-- Fallback***&#45;&gt;CompLkGraph!** -->
<g id="edge38" class="edge">
<title>Fallback***&#45;&gt;CompLkGraph!**</title>
<path fill="none" stroke="black" d="M2676.15,-75C2692.35,-64.79 2714.56,-50.78 2732.72,-39.33"/>
<polygon fill="black" stroke="black" points="2734.67,-42.24 2741.26,-33.94 2730.93,-36.31 2734.67,-42.24"/>
</g>
</g>
</svg>
