<?xml version="1.0" encoding="UTF-8" standalone="no"?>
<!DOCTYPE svg PUBLIC "-//W3C//DTD SVG 1.1//EN"
 "http://www.w3.org/Graphics/SVG/1.1/DTD/svg11.dtd">
<!-- Generated by graphviz version 2.43.0 (0)
 -->
<!-- Title: pastafarianism Pages: 1 -->
<svg width="1328pt" height="692pt"
 viewBox="0.00 0.00 1328.04 692.00" xmlns="http://www.w3.org/2000/svg" xmlns:xlink="http://www.w3.org/1999/xlink">
<g id="graph0" class="graph" transform="scale(1 1) rotate(0) translate(4 688)">
<title>pastafarianism</title>
<polygon fill="white" stroke="transparent" points="-4,4 -4,-688 1324.04,-688 1324.04,4 -4,4"/>
<!-- Sequence -->
<g id="node1" class="node">
<title>Sequence</title>
<polygon fill="cyan" stroke="black" points="690.54,-658.54 690.54,-673.46 672.09,-684 646,-684 627.55,-673.46 627.55,-658.54 646,-648 672.09,-648 690.54,-658.54"/>
<text text-anchor="middle" x="659.04" y="-663.8" font-family="Times,serif" font-size="9.00">Sequence</text>
</g>
<!-- Fallback -->
<g id="node2" class="node">
<title>Fallback</title>
<polygon fill="cyan" stroke="black" points="295.29,-586.54 295.29,-601.46 278.16,-612 253.93,-612 236.8,-601.46 236.8,-586.54 253.93,-576 278.16,-576 295.29,-586.54"/>
<text text-anchor="middle" x="266.04" y="-591.8" font-family="Times,serif" font-size="9.00">Fallback</text>
</g>
<!-- Sequence&#45;&gt;Fallback -->
<g id="edge1" class="edge">
<title>Sequence&#45;&gt;Fallback</title>
<path fill="none" stroke="black" d="M627.55,-659.39C556.43,-646.72 383.53,-615.93 305.46,-602.02"/>
<polygon fill="black" stroke="black" points="305.99,-598.56 295.53,-600.25 304.76,-605.45 305.99,-598.56"/>
</g>
<!-- Fallback*** -->
<g id="node15" class="node">
<title>Fallback***</title>
<polygon fill="cyan" stroke="black" points="645.53,-586.54 645.53,-601.46 623.57,-612 592.52,-612 570.55,-601.46 570.55,-586.54 592.52,-576 623.57,-576 645.53,-586.54"/>
<text text-anchor="middle" x="608.04" y="-591.8" font-family="Times,serif" font-size="9.00">Fallback***</text>
</g>
<!-- Sequence&#45;&gt;Fallback*** -->
<g id="edge14" class="edge">
<title>Sequence&#45;&gt;Fallback***</title>
<path fill="none" stroke="black" d="M646.44,-647.7C640.45,-639.47 633.17,-629.48 626.57,-620.42"/>
<polygon fill="black" stroke="black" points="629.22,-618.13 620.51,-612.1 623.57,-622.25 629.22,-618.13"/>
</g>
<!-- Fallback****** -->
<g id="node29" class="node">
<title>Fallback******</title>
<polygon fill="cyan" stroke="black" points="804.53,-586.54 804.53,-601.46 777.3,-612 738.79,-612 711.56,-601.46 711.56,-586.54 738.79,-576 777.3,-576 804.53,-586.54"/>
<text text-anchor="middle" x="758.04" y="-591.8" font-family="Times,serif" font-size="9.00">Fallback******</text>
</g>
<!-- Sequence&#45;&gt;Fallback****** -->
<g id="edge28" class="edge">
<title>Sequence&#45;&gt;Fallback******</title>
<path fill="none" stroke="black" d="M678.6,-651.17C692.39,-641.42 711.15,-628.16 726.97,-616.97"/>
<polygon fill="black" stroke="black" points="729.26,-619.64 735.41,-611.01 725.22,-613.92 729.26,-619.64"/>
</g>
<!-- 2 on 1?** -->
<g id="node51" class="node">
<title>2 on 1?**</title>
<ellipse fill="gray" stroke="black" cx="852.04" cy="-594" rx="30.04" ry="18"/>
<text text-anchor="middle" x="852.04" y="-591.8" font-family="Times,serif" font-size="9.00">2 on 1?**</text>
</g>
<!-- Sequence&#45;&gt;2 on 1?** -->
<g id="edge50" class="edge">
<title>Sequence&#45;&gt;2 on 1?**</title>
<path fill="none" stroke="black" d="M686.83,-656.18C717.85,-646.15 769.44,-628.98 813.04,-612 815.11,-611.19 817.23,-610.34 819.37,-609.47"/>
<polygon fill="black" stroke="black" points="820.8,-612.66 828.66,-605.55 818.09,-606.21 820.8,-612.66"/>
</g>
<!-- 0 at pos (0.0, 0.05, 0.0)? -->
<g id="node3" class="node">
<title>0 at pos (0.0, 0.05, 0.0)?</title>
<ellipse fill="gray" stroke="black" cx="60.04" cy="-522" rx="60.09" ry="18"/>
<text text-anchor="middle" x="60.04" y="-519.8" font-family="Times,serif" font-size="9.00">0 at pos (0.0, 0.05, 0.0)?</text>
</g>
<!-- Fallback&#45;&gt;0 at pos (0.0, 0.05, 0.0)? -->
<g id="edge2" class="edge">
<title>Fallback&#45;&gt;0 at pos (0.0, 0.05, 0.0)?</title>
<path fill="none" stroke="black" d="M240.37,-584.28C207.32,-573.05 149.24,-553.31 107.93,-539.27"/>
<polygon fill="black" stroke="black" points="108.93,-535.91 98.33,-536.01 106.68,-542.54 108.93,-535.91"/>
</g>
<!-- 1 at pos (0.0, 0.05, 0.0192)? -->
<g id="node4" class="node">
<title>1 at pos (0.0, 0.05, 0.0192)?</title>
<ellipse fill="gray" stroke="black" cx="206.04" cy="-522" rx="67.6" ry="18"/>
<text text-anchor="middle" x="206.04" y="-519.8" font-family="Times,serif" font-size="9.00">1 at pos (0.0, 0.05, 0.0192)?</text>
</g>
<!-- Fallback&#45;&gt;1 at pos (0.0, 0.05, 0.0192)? -->
<g id="edge3" class="edge">
<title>Fallback&#45;&gt;1 at pos (0.0, 0.05, 0.0192)?</title>
<path fill="none" stroke="black" d="M252.13,-576.76C244.66,-568.06 235.31,-557.15 226.99,-547.43"/>
<polygon fill="black" stroke="black" points="229.47,-544.95 220.3,-539.63 224.15,-549.5 229.47,-544.95"/>
</g>
<!-- Sequence* -->
<g id="node5" class="node">
<title>Sequence*</title>
<polygon fill="cyan" stroke="black" points="360.29,-514.54 360.29,-529.46 340.23,-540 311.86,-540 291.8,-529.46 291.8,-514.54 311.86,-504 340.23,-504 360.29,-514.54"/>
<text text-anchor="middle" x="326.04" y="-519.8" font-family="Times,serif" font-size="9.00">Sequence*</text>
</g>
<!-- Fallback&#45;&gt;Sequence* -->
<g id="edge4" class="edge">
<title>Fallback&#45;&gt;Sequence*</title>
<path fill="none" stroke="black" d="M279.96,-576.76C287.32,-568.18 296.51,-557.46 304.74,-547.86"/>
<polygon fill="black" stroke="black" points="307.52,-549.99 311.37,-540.12 302.2,-545.44 307.52,-549.99"/>
</g>
<!-- Fallback* -->
<g id="node6" class="node">
<title>Fallback*</title>
<polygon fill="cyan" stroke="black" points="241.79,-442.54 241.79,-457.46 223.19,-468 196.9,-468 178.3,-457.46 178.3,-442.54 196.9,-432 223.19,-432 241.79,-442.54"/>
<text text-anchor="middle" x="210.04" y="-447.8" font-family="Times,serif" font-size="9.00">Fallback*</text>
</g>
<!-- Sequence*&#45;&gt;Fallback* -->
<g id="edge5" class="edge">
<title>Sequence*&#45;&gt;Fallback*</title>
<path fill="none" stroke="black" d="M304.23,-507.83C286.01,-496.84 259.88,-481.07 239.76,-468.93"/>
<polygon fill="black" stroke="black" points="241.35,-465.81 230.98,-463.64 237.74,-471.8 241.35,-465.81"/>
</g>
<!-- place at (0.0, 0.05, 0.0)! -->
<g id="node9" class="node">
<title>place at (0.0, 0.05, 0.0)!</title>
<ellipse fill="gray" stroke="black" cx="318.04" cy="-450" rx="58.13" ry="18"/>
<text text-anchor="middle" x="318.04" y="-447.8" font-family="Times,serif" font-size="9.00">place at (0.0, 0.05, 0.0)!</text>
</g>
<!-- Sequence*&#45;&gt;place at (0.0, 0.05, 0.0)! -->
<g id="edge8" class="edge">
<title>Sequence*&#45;&gt;place at (0.0, 0.05, 0.0)!</title>
<path fill="none" stroke="black" d="M324.07,-503.7C323.19,-495.98 322.13,-486.71 321.14,-478.11"/>
<polygon fill="black" stroke="black" points="324.61,-477.64 320,-468.1 317.66,-478.44 324.61,-477.64"/>
</g>
<!-- Fallback** -->
<g id="node10" class="node">
<title>Fallback**</title>
<polygon fill="cyan" stroke="black" points="464.04,-442.54 464.04,-457.46 443.54,-468 414.55,-468 394.05,-457.46 394.05,-442.54 414.55,-432 443.54,-432 464.04,-442.54"/>
<text text-anchor="middle" x="429.04" y="-447.8" font-family="Times,serif" font-size="9.00">Fallback**</text>
</g>
<!-- Sequence*&#45;&gt;Fallback** -->
<g id="edge9" class="edge">
<title>Sequence*&#45;&gt;Fallback**</title>
<path fill="none" stroke="black" d="M346.39,-507.17C361.67,-496.79 382.81,-482.42 399.88,-470.82"/>
<polygon fill="black" stroke="black" points="402.08,-473.56 408.38,-465.04 398.15,-467.77 402.08,-473.56"/>
</g>
<!-- picked 0? -->
<g id="node7" class="node">
<title>picked 0?</title>
<ellipse fill="gray" stroke="black" cx="169.04" cy="-378" rx="28.74" ry="18"/>
<text text-anchor="middle" x="169.04" y="-375.8" font-family="Times,serif" font-size="9.00">picked 0?</text>
</g>
<!-- Fallback*&#45;&gt;picked 0? -->
<g id="edge6" class="edge">
<title>Fallback*&#45;&gt;picked 0?</title>
<path fill="none" stroke="black" d="M199.91,-431.7C195,-423.32 189.02,-413.1 183.63,-403.9"/>
<polygon fill="black" stroke="black" points="186.57,-402 178.5,-395.14 180.53,-405.54 186.57,-402"/>
</g>
<!-- pick 0! -->
<g id="node8" class="node">
<title>pick 0!</title>
<ellipse fill="gray" stroke="black" cx="243.04" cy="-378" rx="27" ry="18"/>
<text text-anchor="middle" x="243.04" y="-375.8" font-family="Times,serif" font-size="9.00">pick 0!</text>
</g>
<!-- Fallback*&#45;&gt;pick 0! -->
<g id="edge7" class="edge">
<title>Fallback*&#45;&gt;pick 0!</title>
<path fill="none" stroke="black" d="M218.2,-431.7C222.01,-423.61 226.63,-413.81 230.85,-404.87"/>
<polygon fill="black" stroke="black" points="234.11,-406.16 235.21,-395.62 227.78,-403.18 234.11,-406.16"/>
</g>
<!-- 2 on 1? -->
<g id="node11" class="node">
<title>2 on 1?</title>
<ellipse fill="gray" stroke="black" cx="347.04" cy="-378" rx="27" ry="18"/>
<text text-anchor="middle" x="347.04" y="-375.8" font-family="Times,serif" font-size="9.00">2 on 1?</text>
</g>
<!-- Fallback**&#45;&gt;2 on 1? -->
<g id="edge10" class="edge">
<title>Fallback**&#45;&gt;2 on 1?</title>
<path fill="none" stroke="black" d="M410.85,-433.46C399.08,-423.42 383.64,-410.24 370.9,-399.36"/>
<polygon fill="black" stroke="black" points="372.85,-396.43 362.98,-392.6 368.31,-401.76 372.85,-396.43"/>
</g>
<!-- Sequence** -->
<g id="node12" class="node">
<title>Sequence**</title>
<polygon fill="cyan" stroke="black" points="465.79,-370.54 465.79,-385.46 444.26,-396 413.83,-396 392.3,-385.46 392.3,-370.54 413.83,-360 444.26,-360 465.79,-370.54"/>
<text text-anchor="middle" x="429.04" y="-375.8" font-family="Times,serif" font-size="9.00">Sequence**</text>
</g>
<!-- Fallback**&#45;&gt;Sequence** -->
<g id="edge11" class="edge">
<title>Fallback**&#45;&gt;Sequence**</title>
<path fill="none" stroke="black" d="M429.04,-431.7C429.04,-423.98 429.04,-414.71 429.04,-406.11"/>
<polygon fill="black" stroke="black" points="432.54,-406.1 429.04,-396.1 425.54,-406.1 432.54,-406.1"/>
</g>
<!-- pick 2! -->
<g id="node13" class="node">
<title>pick 2!</title>
<ellipse fill="gray" stroke="black" cx="365.04" cy="-306" rx="27" ry="18"/>
<text text-anchor="middle" x="365.04" y="-303.8" font-family="Times,serif" font-size="9.00">pick 2!</text>
</g>
<!-- Sequence**&#45;&gt;pick 2! -->
<g id="edge12" class="edge">
<title>Sequence**&#45;&gt;pick 2!</title>
<path fill="none" stroke="black" d="M413.55,-360.05C405.14,-350.86 394.64,-339.38 385.57,-329.45"/>
<polygon fill="black" stroke="black" points="387.99,-326.91 378.66,-321.89 382.82,-331.63 387.99,-326.91"/>
</g>
<!-- place on 1! -->
<g id="node14" class="node">
<title>place on 1!</title>
<ellipse fill="gray" stroke="black" cx="442.04" cy="-306" rx="32.16" ry="18"/>
<text text-anchor="middle" x="442.04" y="-303.8" font-family="Times,serif" font-size="9.00">place on 1!</text>
</g>
<!-- Sequence**&#45;&gt;place on 1! -->
<g id="edge13" class="edge">
<title>Sequence**&#45;&gt;place on 1!</title>
<path fill="none" stroke="black" d="M432.26,-359.7C433.69,-351.98 435.41,-342.71 437.01,-334.11"/>
<polygon fill="black" stroke="black" points="440.48,-334.58 438.87,-324.1 433.6,-333.3 440.48,-334.58"/>
</g>
<!-- 1 at pos (0.0, 0.05, 0.0192)?* -->
<g id="node16" class="node">
<title>1 at pos (0.0, 0.05, 0.0192)?*</title>
<ellipse fill="gray" stroke="black" cx="456.04" cy="-522" rx="70.37" ry="18"/>
<text text-anchor="middle" x="456.04" y="-519.8" font-family="Times,serif" font-size="9.00">1 at pos (0.0, 0.05, 0.0192)?*</text>
</g>
<!-- Fallback***&#45;&gt;1 at pos (0.0, 0.05, 0.0192)?* -->
<g id="edge15" class="edge">
<title>Fallback***&#45;&gt;1 at pos (0.0, 0.05, 0.0192)?*</title>
<path fill="none" stroke="black" d="M581.91,-580.97C558.83,-570.34 524.76,-554.65 497.89,-542.27"/>
<polygon fill="black" stroke="black" points="499.26,-539.05 488.71,-538.04 496.33,-545.41 499.26,-539.05"/>
</g>
<!-- Sequence*** -->
<g id="node17" class="node">
<title>Sequence***</title>
<polygon fill="cyan" stroke="black" points="624.03,-514.54 624.03,-529.46 600.61,-540 567.48,-540 544.05,-529.46 544.05,-514.54 567.48,-504 600.61,-504 624.03,-514.54"/>
<text text-anchor="middle" x="584.04" y="-519.8" font-family="Times,serif" font-size="9.00">Sequence***</text>
</g>
<!-- Fallback***&#45;&gt;Sequence*** -->
<g id="edge16" class="edge">
<title>Fallback***&#45;&gt;Sequence***</title>
<path fill="none" stroke="black" d="M602.11,-575.7C599.44,-567.9 596.22,-558.51 593.24,-549.83"/>
<polygon fill="black" stroke="black" points="596.46,-548.43 589.91,-540.1 589.84,-550.7 596.46,-548.43"/>
</g>
<!-- pick 0!* -->
<g id="node28" class="node">
<title>pick 0!*</title>
<ellipse fill="gray" stroke="black" cx="669.04" cy="-522" rx="27" ry="18"/>
<text text-anchor="middle" x="669.04" y="-519.8" font-family="Times,serif" font-size="9.00">pick 0!*</text>
</g>
<!-- Fallback***&#45;&gt;pick 0!* -->
<g id="edge27" class="edge">
<title>Fallback***&#45;&gt;pick 0!*</title>
<path fill="none" stroke="black" d="M623.12,-575.7C630.95,-566.71 640.62,-555.62 649.06,-545.93"/>
<polygon fill="black" stroke="black" points="651.87,-548.04 655.8,-538.2 646.59,-543.44 651.87,-548.04"/>
</g>
<!-- Fallback**** -->
<g id="node18" class="node">
<title>Fallback****</title>
<polygon fill="cyan" stroke="black" points="624.78,-442.54 624.78,-457.46 600.92,-468 567.17,-468 543.3,-457.46 543.3,-442.54 567.17,-432 600.92,-432 624.78,-442.54"/>
<text text-anchor="middle" x="584.04" y="-447.8" font-family="Times,serif" font-size="9.00">Fallback****</text>
</g>
<!-- Sequence***&#45;&gt;Fallback**** -->
<g id="edge17" class="edge">
<title>Sequence***&#45;&gt;Fallback****</title>
<path fill="none" stroke="black" d="M584.04,-503.7C584.04,-495.98 584.04,-486.71 584.04,-478.11"/>
<polygon fill="black" stroke="black" points="587.54,-478.1 584.04,-468.1 580.54,-478.1 587.54,-478.1"/>
</g>
<!-- apply force 1! -->
<g id="node27" class="node">
<title>apply force 1!</title>
<ellipse fill="gray" stroke="black" cx="681.04" cy="-450" rx="38.21" ry="18"/>
<text text-anchor="middle" x="681.04" y="-447.8" font-family="Times,serif" font-size="9.00">apply force 1!</text>
</g>
<!-- Sequence***&#45;&gt;apply force 1! -->
<g id="edge26" class="edge">
<title>Sequence***&#45;&gt;apply force 1!</title>
<path fill="none" stroke="black" d="M605.09,-505.81C618.97,-495.79 637.33,-482.55 652.51,-471.59"/>
<polygon fill="black" stroke="black" points="654.97,-474.13 661.03,-465.44 650.88,-468.46 654.97,-474.13"/>
</g>
<!-- 1 on 0? -->
<g id="node19" class="node">
<title>1 on 0?</title>
<ellipse fill="gray" stroke="black" cx="511.04" cy="-378" rx="27" ry="18"/>
<text text-anchor="middle" x="511.04" y="-375.8" font-family="Times,serif" font-size="9.00">1 on 0?</text>
</g>
<!-- Fallback****&#45;&gt;1 on 0? -->
<g id="edge18" class="edge">
<title>Fallback****&#45;&gt;1 on 0?</title>
<path fill="none" stroke="black" d="M566.37,-432.05C556.46,-422.55 543.99,-410.59 533.4,-400.44"/>
<polygon fill="black" stroke="black" points="535.73,-397.82 526.09,-393.42 530.88,-402.87 535.73,-397.82"/>
</g>
<!-- Sequence**** -->
<g id="node20" class="node">
<title>Sequence****</title>
<polygon fill="cyan" stroke="black" points="640.53,-370.54 640.53,-385.46 615.64,-396 580.44,-396 555.56,-385.46 555.56,-370.54 580.44,-360 615.64,-360 640.53,-370.54"/>
<text text-anchor="middle" x="598.04" y="-375.8" font-family="Times,serif" font-size="9.00">Sequence****</text>
</g>
<!-- Fallback****&#45;&gt;Sequence**** -->
<g id="edge19" class="edge">
<title>Fallback****&#45;&gt;Sequence****</title>
<path fill="none" stroke="black" d="M587.51,-431.7C589.05,-423.98 590.9,-414.71 592.62,-406.11"/>
<polygon fill="black" stroke="black" points="596.09,-406.6 594.62,-396.1 589.23,-405.22 596.09,-406.6"/>
</g>
<!-- picked 1?* -->
<g id="node26" class="node">
<title>picked 1?*</title>
<ellipse fill="gray" stroke="black" cx="690.04" cy="-378" rx="31.51" ry="18"/>
<text text-anchor="middle" x="690.04" y="-375.8" font-family="Times,serif" font-size="9.00">picked 1?*</text>
</g>
<!-- Fallback****&#45;&gt;picked 1?* -->
<g id="edge25" class="edge">
<title>Fallback****&#45;&gt;picked 1?*</title>
<path fill="none" stroke="black" d="M606.27,-434.33C622.29,-423.74 644.06,-409.36 661.4,-397.92"/>
<polygon fill="black" stroke="black" points="663.58,-400.67 670,-392.24 659.73,-394.83 663.58,-400.67"/>
</g>
<!-- Fallback***** -->
<g id="node21" class="node">
<title>Fallback*****</title>
<polygon fill="cyan" stroke="black" points="605.28,-298.54 605.28,-313.46 579.95,-324 544.13,-324 518.81,-313.46 518.81,-298.54 544.13,-288 579.95,-288 605.28,-298.54"/>
<text text-anchor="middle" x="562.04" y="-303.8" font-family="Times,serif" font-size="9.00">Fallback*****</text>
</g>
<!-- Sequence****&#45;&gt;Fallback***** -->
<g id="edge20" class="edge">
<title>Sequence****&#45;&gt;Fallback*****</title>
<path fill="none" stroke="black" d="M589.15,-359.7C585.05,-351.73 580.1,-342.1 575.55,-333.26"/>
<polygon fill="black" stroke="black" points="578.53,-331.4 570.84,-324.1 572.3,-334.6 578.53,-331.4"/>
</g>
<!-- place on 0! -->
<g id="node25" class="node">
<title>place on 0!</title>
<ellipse fill="gray" stroke="black" cx="655.04" cy="-306" rx="32.16" ry="18"/>
<text text-anchor="middle" x="655.04" y="-303.8" font-family="Times,serif" font-size="9.00">place on 0!</text>
</g>
<!-- Sequence****&#45;&gt;place on 0! -->
<g id="edge24" class="edge">
<title>Sequence****&#45;&gt;place on 0!</title>
<path fill="none" stroke="black" d="M612.13,-359.7C619.27,-350.93 628.05,-340.15 635.8,-330.63"/>
<polygon fill="black" stroke="black" points="638.68,-332.64 642.28,-322.67 633.26,-328.22 638.68,-332.64"/>
</g>
<!-- picked 1? -->
<g id="node22" class="node">
<title>picked 1?</title>
<ellipse fill="gray" stroke="black" cx="488.04" cy="-234" rx="28.74" ry="18"/>
<text text-anchor="middle" x="488.04" y="-231.8" font-family="Times,serif" font-size="9.00">picked 1?</text>
</g>
<!-- Fallback*****&#45;&gt;picked 1? -->
<g id="edge21" class="edge">
<title>Fallback*****&#45;&gt;picked 1?</title>
<path fill="none" stroke="black" d="M543.75,-287.7C533.83,-278.31 521.48,-266.63 510.93,-256.65"/>
<polygon fill="black" stroke="black" points="513.29,-254.07 503.62,-249.74 508.48,-259.15 513.29,-254.07"/>
</g>
<!-- pick 1! -->
<g id="node23" class="node">
<title>pick 1!</title>
<ellipse fill="gray" stroke="black" cx="562.04" cy="-234" rx="27" ry="18"/>
<text text-anchor="middle" x="562.04" y="-231.8" font-family="Times,serif" font-size="9.00">pick 1!</text>
</g>
<!-- Fallback*****&#45;&gt;pick 1! -->
<g id="edge22" class="edge">
<title>Fallback*****&#45;&gt;pick 1!</title>
<path fill="none" stroke="black" d="M562.04,-287.7C562.04,-279.98 562.04,-270.71 562.04,-262.11"/>
<polygon fill="black" stroke="black" points="565.54,-262.1 562.04,-252.1 558.54,-262.1 565.54,-262.1"/>
</g>
<!-- 1 on 0?* -->
<g id="node24" class="node">
<title>1 on 0?*</title>
<ellipse fill="gray" stroke="black" cx="634.04" cy="-234" rx="27.27" ry="18"/>
<text text-anchor="middle" x="634.04" y="-231.8" font-family="Times,serif" font-size="9.00">1 on 0?*</text>
</g>
<!-- Fallback*****&#45;&gt;1 on 0?* -->
<g id="edge23" class="edge">
<title>Fallback*****&#45;&gt;1 on 0?*</title>
<path fill="none" stroke="black" d="M579.84,-287.7C589.53,-278.28 601.61,-266.53 611.9,-256.53"/>
<polygon fill="black" stroke="black" points="614.63,-258.76 619.36,-249.28 609.75,-253.74 614.63,-258.76"/>
</g>
<!-- 2 at pos (0.0, 0.05, 0.0384)? -->
<g id="node30" class="node">
<title>2 at pos (0.0, 0.05, 0.0384)?</title>
<ellipse fill="gray" stroke="black" cx="782.04" cy="-522" rx="67.6" ry="18"/>
<text text-anchor="middle" x="782.04" y="-519.8" font-family="Times,serif" font-size="9.00">2 at pos (0.0, 0.05, 0.0384)?</text>
</g>
<!-- Fallback******&#45;&gt;2 at pos (0.0, 0.05, 0.0384)? -->
<g id="edge29" class="edge">
<title>Fallback******&#45;&gt;2 at pos (0.0, 0.05, 0.0384)?</title>
<path fill="none" stroke="black" d="M763.98,-575.7C766.65,-567.9 769.87,-558.51 772.85,-549.83"/>
<polygon fill="black" stroke="black" points="776.25,-550.7 776.18,-540.1 769.63,-548.43 776.25,-550.7"/>
</g>
<!-- Sequence***** -->
<g id="node31" class="node">
<title>Sequence*****</title>
<polygon fill="cyan" stroke="black" points="958.78,-514.54 958.78,-529.46 931.99,-540 894.1,-540 867.31,-529.46 867.31,-514.54 894.1,-504 931.99,-504 958.78,-514.54"/>
<text text-anchor="middle" x="913.04" y="-519.8" font-family="Times,serif" font-size="9.00">Sequence*****</text>
</g>
<!-- Fallback******&#45;&gt;Sequence***** -->
<g id="edge30" class="edge">
<title>Fallback******&#45;&gt;Sequence*****</title>
<path fill="none" stroke="black" d="M787.56,-579.67C812.31,-568.49 847.83,-552.45 874.76,-540.29"/>
<polygon fill="black" stroke="black" points="876.22,-543.47 883.9,-536.16 873.34,-537.09 876.22,-543.47"/>
</g>
<!-- Fallback******* -->
<g id="node32" class="node">
<title>Fallback*******</title>
<polygon fill="cyan" stroke="black" points="909.03,-442.54 909.03,-457.46 880.34,-468 839.75,-468 811.06,-457.46 811.06,-442.54 839.75,-432 880.34,-432 909.03,-442.54"/>
<text text-anchor="middle" x="860.04" y="-447.8" font-family="Times,serif" font-size="9.00">Fallback*******</text>
</g>
<!-- Sequence*****&#45;&gt;Fallback******* -->
<g id="edge31" class="edge">
<title>Sequence*****&#45;&gt;Fallback*******</title>
<path fill="none" stroke="black" d="M899.94,-503.7C893.65,-495.39 886,-485.28 879.08,-476.14"/>
<polygon fill="black" stroke="black" points="881.82,-473.96 872.99,-468.1 876.24,-478.19 881.82,-473.96"/>
</g>
<!-- apply force 2! -->
<g id="node50" class="node">
<title>apply force 2!</title>
<ellipse fill="gray" stroke="black" cx="965.04" cy="-450" rx="38.21" ry="18"/>
<text text-anchor="middle" x="965.04" y="-447.8" font-family="Times,serif" font-size="9.00">apply force 2!</text>
</g>
<!-- Sequence*****&#45;&gt;apply force 2! -->
<g id="edge49" class="edge">
<title>Sequence*****&#45;&gt;apply force 2!</title>
<path fill="none" stroke="black" d="M925.9,-503.7C932.25,-495.14 940.03,-484.67 946.97,-475.33"/>
<polygon fill="black" stroke="black" points="949.9,-477.26 953.05,-467.14 944.28,-473.08 949.9,-477.26"/>
</g>
<!-- 2 on 1?* -->
<g id="node33" class="node">
<title>2 on 1?*</title>
<ellipse fill="gray" stroke="black" cx="827.04" cy="-378" rx="27.27" ry="18"/>
<text text-anchor="middle" x="827.04" y="-375.8" font-family="Times,serif" font-size="9.00">2 on 1?*</text>
</g>
<!-- Fallback*******&#45;&gt;2 on 1?* -->
<g id="edge32" class="edge">
<title>Fallback*******&#45;&gt;2 on 1?*</title>
<path fill="none" stroke="black" d="M851.89,-431.7C848.07,-423.61 843.46,-413.81 839.24,-404.87"/>
<polygon fill="black" stroke="black" points="842.31,-403.18 834.88,-395.62 835.98,-406.16 842.31,-403.18"/>
</g>
<!-- Sequence****** -->
<g id="node34" class="node">
<title>Sequence******</title>
<polygon fill="cyan" stroke="black" points="968.28,-370.54 968.28,-385.46 940.03,-396 900.06,-396 871.81,-385.46 871.81,-370.54 900.06,-360 940.03,-360 968.28,-370.54"/>
<text text-anchor="middle" x="920.04" y="-375.8" font-family="Times,serif" font-size="9.00">Sequence******</text>
</g>
<!-- Fallback*******&#45;&gt;Sequence****** -->
<g id="edge33" class="edge">
<title>Fallback*******&#45;&gt;Sequence******</title>
<path fill="none" stroke="black" d="M874.88,-431.7C882.07,-423.3 890.84,-413.07 898.73,-403.86"/>
<polygon fill="black" stroke="black" points="901.53,-405.97 905.38,-396.1 896.22,-401.42 901.53,-405.97"/>
</g>
<!-- Fallback******** -->
<g id="node35" class="node">
<title>Fallback********</title>
<polygon fill="cyan" stroke="black" points="866.78,-298.54 866.78,-313.46 836.47,-324 793.61,-324 763.31,-313.46 763.31,-298.54 793.61,-288 836.47,-288 866.78,-298.54"/>
<text text-anchor="middle" x="815.04" y="-303.8" font-family="Times,serif" font-size="9.00">Fallback********</text>
</g>
<!-- Sequence******&#45;&gt;Fallback******** -->
<g id="edge34" class="edge">
<title>Sequence******&#45;&gt;Fallback********</title>
<path fill="none" stroke="black" d="M896.48,-361.29C882.09,-351.7 863.49,-339.3 847.7,-328.77"/>
<polygon fill="black" stroke="black" points="849.52,-325.78 839.26,-323.14 845.64,-331.6 849.52,-325.78"/>
</g>
<!-- place on 1!* -->
<g id="node39" class="node">
<title>place on 1!*</title>
<ellipse fill="gray" stroke="black" cx="920.04" cy="-306" rx="34.78" ry="18"/>
<text text-anchor="middle" x="920.04" y="-303.8" font-family="Times,serif" font-size="9.00">place on 1!*</text>
</g>
<!-- Sequence******&#45;&gt;place on 1!* -->
<g id="edge38" class="edge">
<title>Sequence******&#45;&gt;place on 1!*</title>
<path fill="none" stroke="black" d="M920.04,-359.7C920.04,-351.98 920.04,-342.71 920.04,-334.11"/>
<polygon fill="black" stroke="black" points="923.54,-334.1 920.04,-324.1 916.54,-334.1 923.54,-334.1"/>
</g>
<!-- Fallback********* -->
<g id="node40" class="node">
<title>Fallback*********</title>
<polygon fill="cyan" stroke="black" points="1081.28,-298.54 1081.28,-313.46 1049.51,-324 1004.58,-324 972.81,-313.46 972.81,-298.54 1004.58,-288 1049.51,-288 1081.28,-298.54"/>
<text text-anchor="middle" x="1027.04" y="-303.8" font-family="Times,serif" font-size="9.00">Fallback*********</text>
</g>
<!-- Sequence******&#45;&gt;Fallback********* -->
<g id="edge39" class="edge">
<title>Sequence******&#45;&gt;Fallback*********</title>
<path fill="none" stroke="black" d="M944.06,-361.29C958.61,-351.77 977.41,-339.47 993.43,-328.99"/>
<polygon fill="black" stroke="black" points="995.54,-331.79 1002,-323.39 991.71,-325.93 995.54,-331.79"/>
</g>
<!-- picked 2? -->
<g id="node36" class="node">
<title>picked 2?</title>
<ellipse fill="gray" stroke="black" cx="741.04" cy="-234" rx="28.74" ry="18"/>
<text text-anchor="middle" x="741.04" y="-231.8" font-family="Times,serif" font-size="9.00">picked 2?</text>
</g>
<!-- Fallback********&#45;&gt;picked 2? -->
<g id="edge35" class="edge">
<title>Fallback********&#45;&gt;picked 2?</title>
<path fill="none" stroke="black" d="M796.75,-287.7C786.83,-278.31 774.48,-266.63 763.93,-256.65"/>
<polygon fill="black" stroke="black" points="766.29,-254.07 756.62,-249.74 761.48,-259.15 766.29,-254.07"/>
</g>
<!-- pick 2!* -->
<g id="node37" class="node">
<title>pick 2!*</title>
<ellipse fill="gray" stroke="black" cx="815.04" cy="-234" rx="27" ry="18"/>
<text text-anchor="middle" x="815.04" y="-231.8" font-family="Times,serif" font-size="9.00">pick 2!*</text>
</g>
<!-- Fallback********&#45;&gt;pick 2!* -->
<g id="edge36" class="edge">
<title>Fallback********&#45;&gt;pick 2!*</title>
<path fill="none" stroke="black" d="M815.04,-287.7C815.04,-279.98 815.04,-270.71 815.04,-262.11"/>
<polygon fill="black" stroke="black" points="818.54,-262.1 815.04,-252.1 811.54,-262.1 818.54,-262.1"/>
</g>
<!-- 2 on 0? -->
<g id="node38" class="node">
<title>2 on 0?</title>
<ellipse fill="gray" stroke="black" cx="887.04" cy="-234" rx="27" ry="18"/>
<text text-anchor="middle" x="887.04" y="-231.8" font-family="Times,serif" font-size="9.00">2 on 0?</text>
</g>
<!-- Fallback********&#45;&gt;2 on 0? -->
<g id="edge37" class="edge">
<title>Fallback********&#45;&gt;2 on 0?</title>
<path fill="none" stroke="black" d="M832.84,-287.7C842.53,-278.28 854.61,-266.53 864.9,-256.53"/>
<polygon fill="black" stroke="black" points="867.63,-258.76 872.36,-249.28 862.75,-253.74 867.63,-258.76"/>
</g>
<!-- 1 at pos (0.0, 0.05, 0.0192)?** -->
<g id="node41" class="node">
<title>1 at pos (0.0, 0.05, 0.0192)?**</title>
<ellipse fill="gray" stroke="black" cx="1016.04" cy="-234" rx="72.99" ry="18"/>
<text text-anchor="middle" x="1016.04" y="-231.8" font-family="Times,serif" font-size="9.00">1 at pos (0.0, 0.05, 0.0192)?**</text>
</g>
<!-- Fallback*********&#45;&gt;1 at pos (0.0, 0.05, 0.0192)?** -->
<g id="edge40" class="edge">
<title>Fallback*********&#45;&gt;1 at pos (0.0, 0.05, 0.0192)?**</title>
<path fill="none" stroke="black" d="M1024.33,-287.7C1023.11,-279.98 1021.66,-270.71 1020.3,-262.11"/>
<polygon fill="black" stroke="black" points="1023.74,-261.44 1018.73,-252.1 1016.83,-262.53 1023.74,-261.44"/>
</g>
<!-- Sequence******* -->
<g id="node42" class="node">
<title>Sequence*******</title>
<polygon fill="cyan" stroke="black" points="1209.53,-226.54 1209.53,-241.46 1179.37,-252 1136.72,-252 1106.56,-241.46 1106.56,-226.54 1136.72,-216 1179.37,-216 1209.53,-226.54"/>
<text text-anchor="middle" x="1158.04" y="-231.8" font-family="Times,serif" font-size="9.00">Sequence*******</text>
</g>
<!-- Fallback*********&#45;&gt;Sequence******* -->
<g id="edge41" class="edge">
<title>Fallback*********&#45;&gt;Sequence*******</title>
<path fill="none" stroke="black" d="M1055.47,-289.81C1074.74,-279.51 1100.4,-265.8 1121.23,-254.67"/>
<polygon fill="black" stroke="black" points="1122.95,-257.72 1130.12,-249.92 1119.66,-251.54 1122.95,-257.72"/>
</g>
<!-- Fallback********** -->
<g id="node43" class="node">
<title>Fallback**********</title>
<polygon fill="cyan" stroke="black" points="1077.53,-154.54 1077.53,-169.46 1043.86,-180 996.23,-180 962.56,-169.46 962.56,-154.54 996.23,-144 1043.86,-144 1077.53,-154.54"/>
<text text-anchor="middle" x="1020.04" y="-159.8" font-family="Times,serif" font-size="9.00">Fallback**********</text>
</g>
<!-- Sequence*******&#45;&gt;Fallback********** -->
<g id="edge42" class="edge">
<title>Sequence*******&#45;&gt;Fallback**********</title>
<path fill="none" stroke="black" d="M1129.45,-218.5C1109.05,-208.15 1081.38,-194.11 1058.96,-182.74"/>
<polygon fill="black" stroke="black" points="1060.54,-179.61 1050.03,-178.21 1057.37,-185.86 1060.54,-179.61"/>
</g>
<!-- 0 at pos (0.0, 0.05, 0.0)?* -->
<g id="node48" class="node">
<title>0 at pos (0.0, 0.05, 0.0)?*</title>
<ellipse fill="gray" stroke="black" cx="1158.04" cy="-162" rx="62.21" ry="18"/>
<text text-anchor="middle" x="1158.04" y="-159.8" font-family="Times,serif" font-size="9.00">0 at pos (0.0, 0.05, 0.0)?*</text>
</g>
<!-- Sequence*******&#45;&gt;0 at pos (0.0, 0.05, 0.0)?* -->
<g id="edge47" class="edge">
<title>Sequence*******&#45;&gt;0 at pos (0.0, 0.05, 0.0)?*</title>
<path fill="none" stroke="black" d="M1158.04,-215.7C1158.04,-207.98 1158.04,-198.71 1158.04,-190.11"/>
<polygon fill="black" stroke="black" points="1161.54,-190.1 1158.04,-180.1 1154.54,-190.1 1161.54,-190.1"/>
</g>
<!-- apply force 1!* -->
<g id="node49" class="node">
<title>apply force 1!*</title>
<ellipse fill="gray" stroke="black" cx="1279.04" cy="-162" rx="40.98" ry="18"/>
<text text-anchor="middle" x="1279.04" y="-159.8" font-family="Times,serif" font-size="9.00">apply force 1!*</text>
</g>
<!-- Sequence*******&#45;&gt;apply force 1!* -->
<g id="edge48" class="edge">
<title>Sequence*******&#45;&gt;apply force 1!*</title>
<path fill="none" stroke="black" d="M1184.6,-217.64C1202.74,-207.15 1226.89,-193.17 1246.23,-181.98"/>
<polygon fill="black" stroke="black" points="1248.11,-184.94 1255.02,-176.9 1244.61,-178.88 1248.11,-184.94"/>
</g>
<!-- 1 on 0?** -->
<g id="node44" class="node">
<title>1 on 0?**</title>
<ellipse fill="gray" stroke="black" cx="969.04" cy="-90" rx="30.04" ry="18"/>
<text text-anchor="middle" x="969.04" y="-87.8" font-family="Times,serif" font-size="9.00">1 on 0?**</text>
</g>
<!-- Fallback**********&#45;&gt;1 on 0?** -->
<g id="edge43" class="edge">
<title>Fallback**********&#45;&gt;1 on 0?**</title>
<path fill="none" stroke="black" d="M1007.44,-143.7C1001.11,-135.02 993.36,-124.37 986.47,-114.92"/>
<polygon fill="black" stroke="black" points="989.18,-112.69 980.46,-106.67 983.52,-116.81 989.18,-112.69"/>
</g>
<!-- Sequence******** -->
<g id="node45" class="node">
<title>Sequence********</title>
<polygon fill="cyan" stroke="black" points="1125.03,-82.54 1125.03,-97.46 1093.41,-108 1048.68,-108 1017.06,-97.46 1017.06,-82.54 1048.68,-72 1093.41,-72 1125.03,-82.54"/>
<text text-anchor="middle" x="1071.04" y="-87.8" font-family="Times,serif" font-size="9.00">Sequence********</text>
</g>
<!-- Fallback**********&#45;&gt;Sequence******** -->
<g id="edge44" class="edge">
<title>Fallback**********&#45;&gt;Sequence********</title>
<path fill="none" stroke="black" d="M1032.65,-143.7C1038.64,-135.47 1045.92,-125.48 1052.52,-116.42"/>
<polygon fill="black" stroke="black" points="1055.52,-118.25 1058.58,-108.1 1049.87,-114.13 1055.52,-118.25"/>
</g>
<!-- pick 1!* -->
<g id="node46" class="node">
<title>pick 1!*</title>
<ellipse fill="gray" stroke="black" cx="1031.04" cy="-18" rx="27" ry="18"/>
<text text-anchor="middle" x="1031.04" y="-15.8" font-family="Times,serif" font-size="9.00">pick 1!*</text>
</g>
<!-- Sequence********&#45;&gt;pick 1!* -->
<g id="edge45" class="edge">
<title>Sequence********&#45;&gt;pick 1!*</title>
<path fill="none" stroke="black" d="M1061.16,-71.7C1056.37,-63.32 1050.53,-53.1 1045.27,-43.9"/>
<polygon fill="black" stroke="black" points="1048.27,-42.09 1040.27,-35.14 1042.19,-45.56 1048.27,-42.09"/>
</g>
<!-- place on 0!* -->
<g id="node47" class="node">
<title>place on 0!*</title>
<ellipse fill="gray" stroke="black" cx="1111.04" cy="-18" rx="34.78" ry="18"/>
<text text-anchor="middle" x="1111.04" y="-15.8" font-family="Times,serif" font-size="9.00">place on 0!*</text>
</g>
<!-- Sequence********&#45;&gt;place on 0!* -->
<g id="edge46" class="edge">
<title>Sequence********&#45;&gt;place on 0!*</title>
<path fill="none" stroke="black" d="M1080.93,-71.7C1085.6,-63.52 1091.27,-53.6 1096.43,-44.58"/>
<polygon fill="black" stroke="black" points="1099.62,-46.04 1101.55,-35.62 1093.55,-42.57 1099.62,-46.04"/>
</g>
</g>
</svg>
