<?xml version="1.0" encoding="UTF-8" standalone="no"?>
<!DOCTYPE svg PUBLIC "-//W3C//DTD SVG 1.1//EN"
 "http://www.w3.org/Graphics/SVG/1.1/DTD/svg11.dtd">
<!-- Generated by graphviz version 2.43.0 (0)
 -->
<!-- Title: pastafarianism Pages: 1 -->
<svg width="658pt" height="260pt"
 viewBox="0.00 0.00 658.38 260.00" xmlns="http://www.w3.org/2000/svg" xmlns:xlink="http://www.w3.org/1999/xlink">
<g id="graph0" class="graph" transform="scale(1 1) rotate(0) translate(4 256)">
<title>pastafarianism</title>
<polygon fill="white" stroke="transparent" points="-4,4 -4,-256 654.38,-256 654.38,4 -4,4"/>
<!-- Sequence -->
<g id="node1" class="node">
<title>Sequence</title>
<polygon fill="cyan" stroke="black" points="484.54,-226.54 484.54,-241.46 466.09,-252 440,-252 421.55,-241.46 421.55,-226.54 440,-216 466.09,-216 484.54,-226.54"/>
<text text-anchor="middle" x="453.04" y="-231.8" font-family="Times,serif" font-size="9.00">Sequence</text>
</g>
<!-- Fallback -->
<g id="node2" class="node">
<title>Fallback</title>
<polygon fill="cyan" stroke="black" points="201.29,-154.54 201.29,-169.46 184.16,-180 159.93,-180 142.8,-169.46 142.8,-154.54 159.93,-144 184.16,-144 201.29,-154.54"/>
<text text-anchor="middle" x="172.04" y="-159.8" font-family="Times,serif" font-size="9.00">Fallback</text>
</g>
<!-- Sequence&#45;&gt;Fallback -->
<g id="edge1" class="edge">
<title>Sequence&#45;&gt;Fallback</title>
<path fill="none" stroke="black" d="M423.24,-225.58C372.04,-212.82 267.45,-186.77 210.72,-172.63"/>
<polygon fill="black" stroke="black" points="211.25,-169.16 200.71,-170.14 209.56,-175.95 211.25,-169.16"/>
</g>
<!-- Fallback* -->
<g id="node7" class="node">
<title>Fallback*</title>
<polygon fill="cyan" stroke="black" points="442.79,-154.54 442.79,-169.46 424.19,-180 397.9,-180 379.3,-169.46 379.3,-154.54 397.9,-144 424.19,-144 442.79,-154.54"/>
<text text-anchor="middle" x="411.04" y="-159.8" font-family="Times,serif" font-size="9.00">Fallback*</text>
</g>
<!-- Sequence&#45;&gt;Fallback* -->
<g id="edge6" class="edge">
<title>Sequence&#45;&gt;Fallback*</title>
<path fill="none" stroke="black" d="M442.66,-215.7C437.78,-207.56 431.86,-197.69 426.47,-188.7"/>
<polygon fill="black" stroke="black" points="429.45,-186.88 421.31,-180.1 423.45,-190.48 429.45,-186.88"/>
</g>
<!-- Fallback** -->
<g id="node12" class="node">
<title>Fallback**</title>
<polygon fill="cyan" stroke="black" points="531.04,-154.54 531.04,-169.46 510.54,-180 481.55,-180 461.05,-169.46 461.05,-154.54 481.55,-144 510.54,-144 531.04,-154.54"/>
<text text-anchor="middle" x="496.04" y="-159.8" font-family="Times,serif" font-size="9.00">Fallback**</text>
</g>
<!-- Sequence&#45;&gt;Fallback** -->
<g id="edge11" class="edge">
<title>Sequence&#45;&gt;Fallback**</title>
<path fill="none" stroke="black" d="M463.67,-215.7C468.67,-207.56 474.74,-197.69 480.26,-188.7"/>
<polygon fill="black" stroke="black" points="483.29,-190.46 485.54,-180.1 477.32,-186.79 483.29,-190.46"/>
</g>
<!-- apply force 2! -->
<g id="node17" class="node">
<title>apply force 2!</title>
<ellipse fill="gray" stroke="black" cx="587.04" cy="-162" rx="38.21" ry="18"/>
<text text-anchor="middle" x="587.04" y="-159.8" font-family="Times,serif" font-size="9.00">apply force 2!</text>
</g>
<!-- Sequence&#45;&gt;apply force 2! -->
<g id="edge16" class="edge">
<title>Sequence&#45;&gt;apply force 2!</title>
<path fill="none" stroke="black" d="M475.47,-221.28C496.75,-210.17 528.99,-193.33 553.35,-180.6"/>
<polygon fill="black" stroke="black" points="555.02,-183.68 562.27,-175.94 551.78,-177.47 555.02,-183.68"/>
</g>
<!-- 0 at pos (0.0, 0.05, 0.0)? -->
<g id="node3" class="node">
<title>0 at pos (0.0, 0.05, 0.0)?</title>
<ellipse fill="gray" stroke="black" cx="60.04" cy="-90" rx="60.09" ry="18"/>
<text text-anchor="middle" x="60.04" y="-87.8" font-family="Times,serif" font-size="9.00">0 at pos (0.0, 0.05, 0.0)?</text>
</g>
<!-- Fallback&#45;&gt;0 at pos (0.0, 0.05, 0.0)? -->
<g id="edge2" class="edge">
<title>Fallback&#45;&gt;0 at pos (0.0, 0.05, 0.0)?</title>
<path fill="none" stroke="black" d="M152.28,-148.65C136.12,-138.55 112.92,-124.05 93.82,-112.11"/>
<polygon fill="black" stroke="black" points="95.44,-109 85.11,-106.66 91.73,-114.93 95.44,-109"/>
</g>
<!-- Sequence* -->
<g id="node4" class="node">
<title>Sequence*</title>
<polygon fill="cyan" stroke="black" points="206.29,-82.54 206.29,-97.46 186.23,-108 157.86,-108 137.8,-97.46 137.8,-82.54 157.86,-72 186.23,-72 206.29,-82.54"/>
<text text-anchor="middle" x="172.04" y="-87.8" font-family="Times,serif" font-size="9.00">Sequence*</text>
</g>
<!-- Fallback&#45;&gt;Sequence* -->
<g id="edge3" class="edge">
<title>Fallback&#45;&gt;Sequence*</title>
<path fill="none" stroke="black" d="M172.04,-143.7C172.04,-135.98 172.04,-126.71 172.04,-118.11"/>
<polygon fill="black" stroke="black" points="175.54,-118.1 172.04,-108.1 168.54,-118.1 175.54,-118.1"/>
</g>
<!-- pick 0! -->
<g id="node5" class="node">
<title>pick 0!</title>
<ellipse fill="gray" stroke="black" cx="135.04" cy="-18" rx="27" ry="18"/>
<text text-anchor="middle" x="135.04" y="-15.8" font-family="Times,serif" font-size="9.00">pick 0!</text>
</g>
<!-- Sequence*&#45;&gt;pick 0! -->
<g id="edge4" class="edge">
<title>Sequence*&#45;&gt;pick 0!</title>
<path fill="none" stroke="black" d="M162.9,-71.7C158.51,-63.4 153.18,-53.31 148.36,-44.19"/>
<polygon fill="black" stroke="black" points="151.35,-42.35 143.58,-35.14 145.16,-45.62 151.35,-42.35"/>
</g>
<!-- place at (0.0, 0.05, 0.0)! -->
<g id="node6" class="node">
<title>place at (0.0, 0.05, 0.0)!</title>
<ellipse fill="gray" stroke="black" cx="238.04" cy="-18" rx="58.13" ry="18"/>
<text text-anchor="middle" x="238.04" y="-15.8" font-family="Times,serif" font-size="9.00">place at (0.0, 0.05, 0.0)!</text>
</g>
<!-- Sequence*&#45;&gt;place at (0.0, 0.05, 0.0)! -->
<g id="edge5" class="edge">
<title>Sequence*&#45;&gt;place at (0.0, 0.05, 0.0)!</title>
<path fill="none" stroke="black" d="M187.69,-72.41C195.99,-63.61 206.34,-52.63 215.49,-42.92"/>
<polygon fill="black" stroke="black" points="218.2,-45.15 222.52,-35.47 213.11,-40.34 218.2,-45.15"/>
</g>
<!-- 1 at pos (0.0, 0.05, 0.0192)? -->
<g id="node8" class="node">
<title>1 at pos (0.0, 0.05, 0.0192)?</title>
<ellipse fill="gray" stroke="black" cx="292.04" cy="-90" rx="67.6" ry="18"/>
<text text-anchor="middle" x="292.04" y="-87.8" font-family="Times,serif" font-size="9.00">1 at pos (0.0, 0.05, 0.0192)?</text>
</g>
<!-- Fallback*&#45;&gt;1 at pos (0.0, 0.05, 0.0192)? -->
<g id="edge7" class="edge">
<title>Fallback*&#45;&gt;1 at pos (0.0, 0.05, 0.0192)?</title>
<path fill="none" stroke="black" d="M389.77,-148.49C372.42,-138.28 347.54,-123.64 327.23,-111.7"/>
<polygon fill="black" stroke="black" points="328.94,-108.64 318.55,-106.59 325.39,-114.68 328.94,-108.64"/>
</g>
<!-- Sequence** -->
<g id="node9" class="node">
<title>Sequence**</title>
<polygon fill="cyan" stroke="black" points="450.79,-82.54 450.79,-97.46 429.26,-108 398.83,-108 377.3,-97.46 377.3,-82.54 398.83,-72 429.26,-72 450.79,-82.54"/>
<text text-anchor="middle" x="414.04" y="-87.8" font-family="Times,serif" font-size="9.00">Sequence**</text>
</g>
<!-- Fallback*&#45;&gt;Sequence** -->
<g id="edge8" class="edge">
<title>Fallback*&#45;&gt;Sequence**</title>
<path fill="none" stroke="black" d="M411.79,-143.7C412.12,-135.98 412.51,-126.71 412.88,-118.11"/>
<polygon fill="black" stroke="black" points="416.38,-118.25 413.31,-108.1 409.39,-117.95 416.38,-118.25"/>
</g>
<!-- 1 on 0? -->
<g id="node10" class="node">
<title>1 on 0?</title>
<ellipse fill="gray" stroke="black" cx="372.04" cy="-18" rx="27" ry="18"/>
<text text-anchor="middle" x="372.04" y="-15.8" font-family="Times,serif" font-size="9.00">1 on 0?</text>
</g>
<!-- Sequence**&#45;&gt;1 on 0? -->
<g id="edge9" class="edge">
<title>Sequence**&#45;&gt;1 on 0?</title>
<path fill="none" stroke="black" d="M403.66,-71.7C398.63,-63.32 392.5,-53.1 386.98,-43.9"/>
<polygon fill="black" stroke="black" points="389.88,-41.92 381.73,-35.14 383.87,-45.52 389.88,-41.92"/>
</g>
<!-- apply force 1! -->
<g id="node11" class="node">
<title>apply force 1!</title>
<ellipse fill="gray" stroke="black" cx="455.04" cy="-18" rx="38.21" ry="18"/>
<text text-anchor="middle" x="455.04" y="-15.8" font-family="Times,serif" font-size="9.00">apply force 1!</text>
</g>
<!-- Sequence**&#45;&gt;apply force 1! -->
<g id="edge10" class="edge">
<title>Sequence**&#45;&gt;apply force 1!</title>
<path fill="none" stroke="black" d="M424.18,-71.7C429.02,-63.44 434.9,-53.39 440.23,-44.3"/>
<polygon fill="black" stroke="black" points="443.27,-46.02 445.31,-35.62 437.23,-42.48 443.27,-46.02"/>
</g>
<!-- 2 on 1? -->
<g id="node13" class="node">
<title>2 on 1?</title>
<ellipse fill="gray" stroke="black" cx="496.04" cy="-90" rx="27" ry="18"/>
<text text-anchor="middle" x="496.04" y="-87.8" font-family="Times,serif" font-size="9.00">2 on 1?</text>
</g>
<!-- Fallback**&#45;&gt;2 on 1? -->
<g id="edge12" class="edge">
<title>Fallback**&#45;&gt;2 on 1?</title>
<path fill="none" stroke="black" d="M496.04,-143.7C496.04,-135.98 496.04,-126.71 496.04,-118.11"/>
<polygon fill="black" stroke="black" points="499.54,-118.1 496.04,-108.1 492.54,-118.1 499.54,-118.1"/>
</g>
<!-- Sequence*** -->
<g id="node14" class="node">
<title>Sequence***</title>
<polygon fill="cyan" stroke="black" points="621.03,-82.54 621.03,-97.46 597.61,-108 564.48,-108 541.05,-97.46 541.05,-82.54 564.48,-72 597.61,-72 621.03,-82.54"/>
<text text-anchor="middle" x="581.04" y="-87.8" font-family="Times,serif" font-size="9.00">Sequence***</text>
</g>
<!-- Fallback**&#45;&gt;Sequence*** -->
<g id="edge13" class="edge">
<title>Fallback**&#45;&gt;Sequence***</title>
<path fill="none" stroke="black" d="M514.49,-145.81C525.94,-136.38 540.88,-124.08 553.69,-113.53"/>
<polygon fill="black" stroke="black" points="556.26,-115.95 561.75,-106.89 551.81,-110.54 556.26,-115.95"/>
</g>
<!-- pick 2! -->
<g id="node15" class="node">
<title>pick 2!</title>
<ellipse fill="gray" stroke="black" cx="541.04" cy="-18" rx="27" ry="18"/>
<text text-anchor="middle" x="541.04" y="-15.8" font-family="Times,serif" font-size="9.00">pick 2!</text>
</g>
<!-- Sequence***&#45;&gt;pick 2! -->
<g id="edge14" class="edge">
<title>Sequence***&#45;&gt;pick 2!</title>
<path fill="none" stroke="black" d="M571.16,-71.7C566.37,-63.32 560.53,-53.1 555.27,-43.9"/>
<polygon fill="black" stroke="black" points="558.27,-42.09 550.27,-35.14 552.19,-45.56 558.27,-42.09"/>
</g>
<!-- place on 1! -->
<g id="node16" class="node">
<title>place on 1!</title>
<ellipse fill="gray" stroke="black" cx="618.04" cy="-18" rx="32.16" ry="18"/>
<text text-anchor="middle" x="618.04" y="-15.8" font-family="Times,serif" font-size="9.00">place on 1!</text>
</g>
<!-- Sequence***&#45;&gt;place on 1! -->
<g id="edge15" class="edge">
<title>Sequence***&#45;&gt;place on 1!</title>
<path fill="none" stroke="black" d="M590.19,-71.7C594.51,-63.52 599.75,-53.6 604.52,-44.58"/>
<polygon fill="black" stroke="black" points="607.68,-46.1 609.26,-35.62 601.49,-42.83 607.68,-46.1"/>
</g>
</g>
</svg>
