<?xml version="1.0" encoding="UTF-8" standalone="no"?>
<!DOCTYPE svg PUBLIC "-//W3C//DTD SVG 1.1//EN"
 "http://www.w3.org/Graphics/SVG/1.1/DTD/svg11.dtd">
<!-- Generated by graphviz version 2.43.0 (0)
 -->
<!-- Title: pastafarianism Pages: 1 -->
<svg width="1260pt" height="692pt"
 viewBox="0.00 0.00 1260.04 692.00" xmlns="http://www.w3.org/2000/svg" xmlns:xlink="http://www.w3.org/1999/xlink">
<g id="graph0" class="graph" transform="scale(1 1) rotate(0) translate(4 688)">
<title>pastafarianism</title>
<polygon fill="white" stroke="transparent" points="-4,4 -4,-688 1256.04,-688 1256.04,4 -4,4"/>
<!-- Sequence -->
<g id="node1" class="node">
<title>Sequence</title>
<polygon fill="cyan" stroke="black" points="690.54,-658.54 690.54,-673.46 672.09,-684 646,-684 627.55,-673.46 627.55,-658.54 646,-648 672.09,-648 690.54,-658.54"/>
<text text-anchor="middle" x="659.04" y="-663.8" font-family="Times,serif" font-size="9.00">Sequence</text>
</g>
<!-- Fallback -->
<g id="node2" class="node">
<title>Fallback</title>
<polygon fill="cyan" stroke="black" points="295.29,-586.54 295.29,-601.46 278.16,-612 253.93,-612 236.8,-601.46 236.8,-586.54 253.93,-576 278.16,-576 295.29,-586.54"/>
<text text-anchor="middle" x="266.04" y="-591.8" font-family="Times,serif" font-size="9.00">Fallback</text>
</g>
<!-- Sequence&#45;&gt;Fallback -->
<g id="edge1" class="edge">
<title>Sequence&#45;&gt;Fallback</title>
<path fill="none" stroke="black" d="M627.55,-659.39C556.43,-646.72 383.53,-615.93 305.46,-602.02"/>
<polygon fill="black" stroke="black" points="305.99,-598.56 295.53,-600.25 304.76,-605.45 305.99,-598.56"/>
</g>
<!-- Fallback*** -->
<g id="node15" class="node">
<title>Fallback***</title>
<polygon fill="cyan" stroke="black" points="645.53,-586.54 645.53,-601.46 623.57,-612 592.52,-612 570.55,-601.46 570.55,-586.54 592.52,-576 623.57,-576 645.53,-586.54"/>
<text text-anchor="middle" x="608.04" y="-591.8" font-family="Times,serif" font-size="9.00">Fallback***</text>
</g>
<!-- Sequence&#45;&gt;Fallback*** -->
<g id="edge14" class="edge">
<title>Sequence&#45;&gt;Fallback***</title>
<path fill="none" stroke="black" d="M646.44,-647.7C640.45,-639.47 633.17,-629.48 626.57,-620.42"/>
<polygon fill="black" stroke="black" points="629.22,-618.13 620.51,-612.1 623.57,-622.25 629.22,-618.13"/>
</g>
<!-- Fallback****** -->
<g id="node29" class="node">
<title>Fallback******</title>
<polygon fill="cyan" stroke="black" points="804.53,-586.54 804.53,-601.46 777.3,-612 738.79,-612 711.56,-601.46 711.56,-586.54 738.79,-576 777.3,-576 804.53,-586.54"/>
<text text-anchor="middle" x="758.04" y="-591.8" font-family="Times,serif" font-size="9.00">Fallback******</text>
</g>
<!-- Sequence&#45;&gt;Fallback****** -->
<g id="edge28" class="edge">
<title>Sequence&#45;&gt;Fallback******</title>
<path fill="none" stroke="black" d="M678.6,-651.17C692.39,-641.42 711.15,-628.16 726.97,-616.97"/>
<polygon fill="black" stroke="black" points="729.26,-619.64 735.41,-611.01 725.22,-613.92 729.26,-619.64"/>
</g>
<!-- 2 on 1?** -->
<g id="node51" class="node">
<title>2 on 1?**</title>
<ellipse fill="gray" stroke="black" cx="852.04" cy="-594" rx="30.04" ry="18"/>
<text text-anchor="middle" x="852.04" y="-591.8" font-family="Times,serif" font-size="9.00">2 on 1?**</text>
</g>
<!-- Sequence&#45;&gt;2 on 1?** -->
<g id="edge50" class="edge">
<title>Sequence&#45;&gt;2 on 1?**</title>
<path fill="none" stroke="black" d="M686.83,-656.18C717.85,-646.15 769.44,-628.98 813.04,-612 815.11,-611.19 817.23,-610.34 819.37,-609.47"/>
<polygon fill="black" stroke="black" points="820.8,-612.66 828.66,-605.55 818.09,-606.21 820.8,-612.66"/>
</g>
<!-- 0 at pos (0.0, 0.05, 0.0)? -->
<g id="node3" class="node">
<title>0 at pos (0.0, 0.05, 0.0)?</title>
<ellipse fill="gray" stroke="black" cx="60.04" cy="-522" rx="60.09" ry="18"/>
<text text-anchor="middle" x="60.04" y="-519.8" font-family="Times,serif" font-size="9.00">0 at pos (0.0, 0.05, 0.0)?</text>
</g>
<!-- Fallback&#45;&gt;0 at pos (0.0, 0.05, 0.0)? -->
<g id="edge2" class="edge">
<title>Fallback&#45;&gt;0 at pos (0.0, 0.05, 0.0)?</title>
<path fill="none" stroke="black" d="M240.37,-584.28C207.32,-573.05 149.24,-553.31 107.93,-539.27"/>
<polygon fill="black" stroke="black" points="108.93,-535.91 98.33,-536.01 106.68,-542.54 108.93,-535.91"/>
</g>
<!-- 1 at pos (0.0, 0.05, 0.0192)? -->
<g id="node4" class="node">
<title>1 at pos (0.0, 0.05, 0.0192)?</title>
<ellipse fill="gray" stroke="black" cx="206.04" cy="-522" rx="67.6" ry="18"/>
<text text-anchor="middle" x="206.04" y="-519.8" font-family="Times,serif" font-size="9.00">1 at pos (0.0, 0.05, 0.0192)?</text>
</g>
<!-- Fallback&#45;&gt;1 at pos (0.0, 0.05, 0.0192)? -->
<g id="edge3" class="edge">
<title>Fallback&#45;&gt;1 at pos (0.0, 0.05, 0.0192)?</title>
<path fill="none" stroke="black" d="M252.13,-576.76C244.66,-568.06 235.31,-557.15 226.99,-547.43"/>
<polygon fill="black" stroke="black" points="229.47,-544.95 220.3,-539.63 224.15,-549.5 229.47,-544.95"/>
</g>
<!-- Sequence* -->
<g id="node5" class="node">
<title>Sequence*</title>
<polygon fill="cyan" stroke="black" points="360.29,-514.54 360.29,-529.46 340.23,-540 311.86,-540 291.8,-529.46 291.8,-514.54 311.86,-504 340.23,-504 360.29,-514.54"/>
<text text-anchor="middle" x="326.04" y="-519.8" font-family="Times,serif" font-size="9.00">Sequence*</text>
</g>
<!-- Fallback&#45;&gt;Sequence* -->
<g id="edge4" class="edge">
<title>Fallback&#45;&gt;Sequence*</title>
<path fill="none" stroke="black" d="M279.96,-576.76C287.32,-568.18 296.51,-557.46 304.74,-547.86"/>
<polygon fill="black" stroke="black" points="307.52,-549.99 311.37,-540.12 302.2,-545.44 307.52,-549.99"/>
</g>
<!-- Fallback* -->
<g id="node6" class="node">
<title>Fallback*</title>
<polygon fill="cyan" stroke="black" points="235.79,-442.54 235.79,-457.46 217.19,-468 190.9,-468 172.3,-457.46 172.3,-442.54 190.9,-432 217.19,-432 235.79,-442.54"/>
<text text-anchor="middle" x="204.04" y="-447.8" font-family="Times,serif" font-size="9.00">Fallback*</text>
</g>
<!-- Sequence*&#45;&gt;Fallback* -->
<g id="edge5" class="edge">
<title>Sequence*&#45;&gt;Fallback*</title>
<path fill="none" stroke="black" d="M303.67,-508.16C284.29,-497.04 256.07,-480.85 234.61,-468.54"/>
<polygon fill="black" stroke="black" points="236.28,-465.46 225.87,-463.52 232.8,-471.53 236.28,-465.46"/>
</g>
<!-- place at (0.0, 0.05, 0.0)! -->
<g id="node9" class="node">
<title>place at (0.0, 0.05, 0.0)!</title>
<ellipse fill="gray" stroke="black" cx="312.04" cy="-450" rx="58.13" ry="18"/>
<text text-anchor="middle" x="312.04" y="-447.8" font-family="Times,serif" font-size="9.00">place at (0.0, 0.05, 0.0)!</text>
</g>
<!-- Sequence*&#45;&gt;place at (0.0, 0.05, 0.0)! -->
<g id="edge8" class="edge">
<title>Sequence*&#45;&gt;place at (0.0, 0.05, 0.0)!</title>
<path fill="none" stroke="black" d="M322.58,-503.7C321.04,-495.98 319.19,-486.71 317.47,-478.11"/>
<polygon fill="black" stroke="black" points="320.86,-477.22 315.47,-468.1 313.99,-478.6 320.86,-477.22"/>
</g>
<!-- Fallback** -->
<g id="node10" class="node">
<title>Fallback**</title>
<polygon fill="cyan" stroke="black" points="458.04,-442.54 458.04,-457.46 437.54,-468 408.55,-468 388.05,-457.46 388.05,-442.54 408.55,-432 437.54,-432 458.04,-442.54"/>
<text text-anchor="middle" x="423.04" y="-447.8" font-family="Times,serif" font-size="9.00">Fallback**</text>
</g>
<!-- Sequence*&#45;&gt;Fallback** -->
<g id="edge9" class="edge">
<title>Sequence*&#45;&gt;Fallback**</title>
<path fill="none" stroke="black" d="M345.67,-506.83C359.78,-496.65 379.01,-482.78 394.77,-471.41"/>
<polygon fill="black" stroke="black" points="397.05,-474.07 403.11,-465.38 392.95,-468.4 397.05,-474.07"/>
</g>
<!-- picked 0? -->
<g id="node7" class="node">
<title>picked 0?</title>
<ellipse fill="gray" stroke="black" cx="163.04" cy="-378" rx="28.74" ry="18"/>
<text text-anchor="middle" x="163.04" y="-375.8" font-family="Times,serif" font-size="9.00">picked 0?</text>
</g>
<!-- Fallback*&#45;&gt;picked 0? -->
<g id="edge6" class="edge">
<title>Fallback*&#45;&gt;picked 0?</title>
<path fill="none" stroke="black" d="M193.91,-431.7C189,-423.32 183.02,-413.1 177.63,-403.9"/>
<polygon fill="black" stroke="black" points="180.57,-402 172.5,-395.14 174.53,-405.54 180.57,-402"/>
</g>
<!-- pick 0! -->
<g id="node8" class="node">
<title>pick 0!</title>
<ellipse fill="gray" stroke="black" cx="237.04" cy="-378" rx="27" ry="18"/>
<text text-anchor="middle" x="237.04" y="-375.8" font-family="Times,serif" font-size="9.00">pick 0!</text>
</g>
<!-- Fallback*&#45;&gt;pick 0! -->
<g id="edge7" class="edge">
<title>Fallback*&#45;&gt;pick 0!</title>
<path fill="none" stroke="black" d="M212.2,-431.7C216.01,-423.61 220.63,-413.81 224.85,-404.87"/>
<polygon fill="black" stroke="black" points="228.11,-406.16 229.21,-395.62 221.78,-403.18 228.11,-406.16"/>
</g>
<!-- 2 on 1? -->
<g id="node11" class="node">
<title>2 on 1?</title>
<ellipse fill="gray" stroke="black" cx="341.04" cy="-378" rx="27" ry="18"/>
<text text-anchor="middle" x="341.04" y="-375.8" font-family="Times,serif" font-size="9.00">2 on 1?</text>
</g>
<!-- Fallback**&#45;&gt;2 on 1? -->
<g id="edge10" class="edge">
<title>Fallback**&#45;&gt;2 on 1?</title>
<path fill="none" stroke="black" d="M404.85,-433.46C393.08,-423.42 377.64,-410.24 364.9,-399.36"/>
<polygon fill="black" stroke="black" points="366.85,-396.43 356.98,-392.6 362.31,-401.76 366.85,-396.43"/>
</g>
<!-- Sequence** -->
<g id="node12" class="node">
<title>Sequence**</title>
<polygon fill="cyan" stroke="black" points="459.79,-370.54 459.79,-385.46 438.26,-396 407.83,-396 386.3,-385.46 386.3,-370.54 407.83,-360 438.26,-360 459.79,-370.54"/>
<text text-anchor="middle" x="423.04" y="-375.8" font-family="Times,serif" font-size="9.00">Sequence**</text>
</g>
<!-- Fallback**&#45;&gt;Sequence** -->
<g id="edge11" class="edge">
<title>Fallback**&#45;&gt;Sequence**</title>
<path fill="none" stroke="black" d="M423.04,-431.7C423.04,-423.98 423.04,-414.71 423.04,-406.11"/>
<polygon fill="black" stroke="black" points="426.54,-406.1 423.04,-396.1 419.54,-406.1 426.54,-406.1"/>
</g>
<!-- pick 2! -->
<g id="node13" class="node">
<title>pick 2!</title>
<ellipse fill="gray" stroke="black" cx="362.04" cy="-306" rx="27" ry="18"/>
<text text-anchor="middle" x="362.04" y="-303.8" font-family="Times,serif" font-size="9.00">pick 2!</text>
</g>
<!-- Sequence**&#45;&gt;pick 2! -->
<g id="edge12" class="edge">
<title>Sequence**&#45;&gt;pick 2!</title>
<path fill="none" stroke="black" d="M407.97,-359.7C400.14,-350.71 390.47,-339.62 382.03,-329.93"/>
<polygon fill="black" stroke="black" points="384.5,-327.44 375.29,-322.2 379.22,-332.04 384.5,-327.44"/>
</g>
<!-- place on 1! -->
<g id="node14" class="node">
<title>place on 1!</title>
<ellipse fill="gray" stroke="black" cx="439.04" cy="-306" rx="32.16" ry="18"/>
<text text-anchor="middle" x="439.04" y="-303.8" font-family="Times,serif" font-size="9.00">place on 1!</text>
</g>
<!-- Sequence**&#45;&gt;place on 1! -->
<g id="edge13" class="edge">
<title>Sequence**&#45;&gt;place on 1!</title>
<path fill="none" stroke="black" d="M427,-359.7C428.76,-351.98 430.88,-342.71 432.85,-334.11"/>
<polygon fill="black" stroke="black" points="436.32,-334.63 435.13,-324.1 429.49,-333.07 436.32,-334.63"/>
</g>
<!-- 1 at pos (0.0, 0.05, 0.0192)?* -->
<g id="node16" class="node">
<title>1 at pos (0.0, 0.05, 0.0192)?*</title>
<ellipse fill="gray" stroke="black" cx="456.04" cy="-522" rx="70.37" ry="18"/>
<text text-anchor="middle" x="456.04" y="-519.8" font-family="Times,serif" font-size="9.00">1 at pos (0.0, 0.05, 0.0192)?*</text>
</g>
<!-- Fallback***&#45;&gt;1 at pos (0.0, 0.05, 0.0192)?* -->
<g id="edge15" class="edge">
<title>Fallback***&#45;&gt;1 at pos (0.0, 0.05, 0.0192)?*</title>
<path fill="none" stroke="black" d="M581.91,-580.97C558.83,-570.34 524.76,-554.65 497.89,-542.27"/>
<polygon fill="black" stroke="black" points="499.26,-539.05 488.71,-538.04 496.33,-545.41 499.26,-539.05"/>
</g>
<!-- Sequence*** -->
<g id="node17" class="node">
<title>Sequence***</title>
<polygon fill="cyan" stroke="black" points="624.03,-514.54 624.03,-529.46 600.61,-540 567.48,-540 544.05,-529.46 544.05,-514.54 567.48,-504 600.61,-504 624.03,-514.54"/>
<text text-anchor="middle" x="584.04" y="-519.8" font-family="Times,serif" font-size="9.00">Sequence***</text>
</g>
<!-- Fallback***&#45;&gt;Sequence*** -->
<g id="edge16" class="edge">
<title>Fallback***&#45;&gt;Sequence***</title>
<path fill="none" stroke="black" d="M602.11,-575.7C599.44,-567.9 596.22,-558.51 593.24,-549.83"/>
<polygon fill="black" stroke="black" points="596.46,-548.43 589.91,-540.1 589.84,-550.7 596.46,-548.43"/>
</g>
<!-- pick 0!* -->
<g id="node28" class="node">
<title>pick 0!*</title>
<ellipse fill="gray" stroke="black" cx="669.04" cy="-522" rx="27" ry="18"/>
<text text-anchor="middle" x="669.04" y="-519.8" font-family="Times,serif" font-size="9.00">pick 0!*</text>
</g>
<!-- Fallback***&#45;&gt;pick 0!* -->
<g id="edge27" class="edge">
<title>Fallback***&#45;&gt;pick 0!*</title>
<path fill="none" stroke="black" d="M623.12,-575.7C630.95,-566.71 640.62,-555.62 649.06,-545.93"/>
<polygon fill="black" stroke="black" points="651.87,-548.04 655.8,-538.2 646.59,-543.44 651.87,-548.04"/>
</g>
<!-- Fallback**** -->
<g id="node18" class="node">
<title>Fallback****</title>
<polygon fill="cyan" stroke="black" points="624.78,-442.54 624.78,-457.46 600.92,-468 567.17,-468 543.3,-457.46 543.3,-442.54 567.17,-432 600.92,-432 624.78,-442.54"/>
<text text-anchor="middle" x="584.04" y="-447.8" font-family="Times,serif" font-size="9.00">Fallback****</text>
</g>
<!-- Sequence***&#45;&gt;Fallback**** -->
<g id="edge17" class="edge">
<title>Sequence***&#45;&gt;Fallback****</title>
<path fill="none" stroke="black" d="M584.04,-503.7C584.04,-495.98 584.04,-486.71 584.04,-478.11"/>
<polygon fill="black" stroke="black" points="587.54,-478.1 584.04,-468.1 580.54,-478.1 587.54,-478.1"/>
</g>
<!-- apply force 1! -->
<g id="node27" class="node">
<title>apply force 1!</title>
<ellipse fill="gray" stroke="black" cx="681.04" cy="-450" rx="38.21" ry="18"/>
<text text-anchor="middle" x="681.04" y="-447.8" font-family="Times,serif" font-size="9.00">apply force 1!</text>
</g>
<!-- Sequence***&#45;&gt;apply force 1! -->
<g id="edge26" class="edge">
<title>Sequence***&#45;&gt;apply force 1!</title>
<path fill="none" stroke="black" d="M605.09,-505.81C618.97,-495.79 637.33,-482.55 652.51,-471.59"/>
<polygon fill="black" stroke="black" points="654.97,-474.13 661.03,-465.44 650.88,-468.46 654.97,-474.13"/>
</g>
<!-- 1 on 0? -->
<g id="node19" class="node">
<title>1 on 0?</title>
<ellipse fill="gray" stroke="black" cx="505.04" cy="-378" rx="27" ry="18"/>
<text text-anchor="middle" x="505.04" y="-375.8" font-family="Times,serif" font-size="9.00">1 on 0?</text>
</g>
<!-- Fallback****&#45;&gt;1 on 0? -->
<g id="edge18" class="edge">
<title>Fallback****&#45;&gt;1 on 0?</title>
<path fill="none" stroke="black" d="M565.32,-432.41C554.27,-422.62 540.2,-410.15 528.42,-399.72"/>
<polygon fill="black" stroke="black" points="530.51,-396.89 520.71,-392.88 525.87,-402.13 530.51,-396.89"/>
</g>
<!-- Sequence**** -->
<g id="node20" class="node">
<title>Sequence****</title>
<polygon fill="cyan" stroke="black" points="634.53,-370.54 634.53,-385.46 609.64,-396 574.44,-396 549.56,-385.46 549.56,-370.54 574.44,-360 609.64,-360 634.53,-370.54"/>
<text text-anchor="middle" x="592.04" y="-375.8" font-family="Times,serif" font-size="9.00">Sequence****</text>
</g>
<!-- Fallback****&#45;&gt;Sequence**** -->
<g id="edge19" class="edge">
<title>Fallback****&#45;&gt;Sequence****</title>
<path fill="none" stroke="black" d="M586.02,-431.7C586.9,-423.98 587.96,-414.71 588.95,-406.11"/>
<polygon fill="black" stroke="black" points="592.43,-406.44 590.09,-396.1 585.48,-405.64 592.43,-406.44"/>
</g>
<!-- picked 1?* -->
<g id="node26" class="node">
<title>picked 1?*</title>
<ellipse fill="gray" stroke="black" cx="684.04" cy="-378" rx="31.51" ry="18"/>
<text text-anchor="middle" x="684.04" y="-375.8" font-family="Times,serif" font-size="9.00">picked 1?*</text>
</g>
<!-- Fallback****&#45;&gt;picked 1?* -->
<g id="edge25" class="edge">
<title>Fallback****&#45;&gt;picked 1?*</title>
<path fill="none" stroke="black" d="M605.74,-433.81C620.57,-423.43 640.36,-409.58 656.33,-398.4"/>
<polygon fill="black" stroke="black" points="658.57,-401.11 664.75,-392.5 654.55,-395.37 658.57,-401.11"/>
</g>
<!-- Fallback***** -->
<g id="node21" class="node">
<title>Fallback*****</title>
<polygon fill="cyan" stroke="black" points="594.28,-298.54 594.28,-313.46 568.95,-324 533.13,-324 507.81,-313.46 507.81,-298.54 533.13,-288 568.95,-288 594.28,-298.54"/>
<text text-anchor="middle" x="551.04" y="-303.8" font-family="Times,serif" font-size="9.00">Fallback*****</text>
</g>
<!-- Sequence****&#45;&gt;Fallback***** -->
<g id="edge20" class="edge">
<title>Sequence****&#45;&gt;Fallback*****</title>
<path fill="none" stroke="black" d="M581.91,-359.7C577.19,-351.64 571.48,-341.89 566.26,-332.98"/>
<polygon fill="black" stroke="black" points="569.14,-330.96 561.06,-324.1 563.1,-334.5 569.14,-330.96"/>
</g>
<!-- place on 0! -->
<g id="node25" class="node">
<title>place on 0!</title>
<ellipse fill="gray" stroke="black" cx="644.04" cy="-306" rx="32.16" ry="18"/>
<text text-anchor="middle" x="644.04" y="-303.8" font-family="Times,serif" font-size="9.00">place on 0!</text>
</g>
<!-- Sequence****&#45;&gt;place on 0! -->
<g id="edge24" class="edge">
<title>Sequence****&#45;&gt;place on 0!</title>
<path fill="none" stroke="black" d="M604.9,-359.7C611.25,-351.14 619.03,-340.67 625.97,-331.33"/>
<polygon fill="black" stroke="black" points="628.9,-333.26 632.05,-323.14 623.28,-329.08 628.9,-333.26"/>
</g>
<!-- picked 1? -->
<g id="node22" class="node">
<title>picked 1?</title>
<ellipse fill="gray" stroke="black" cx="477.04" cy="-234" rx="28.74" ry="18"/>
<text text-anchor="middle" x="477.04" y="-231.8" font-family="Times,serif" font-size="9.00">picked 1?</text>
</g>
<!-- Fallback*****&#45;&gt;picked 1? -->
<g id="edge21" class="edge">
<title>Fallback*****&#45;&gt;picked 1?</title>
<path fill="none" stroke="black" d="M532.75,-287.7C522.83,-278.31 510.48,-266.63 499.93,-256.65"/>
<polygon fill="black" stroke="black" points="502.29,-254.07 492.62,-249.74 497.48,-259.15 502.29,-254.07"/>
</g>
<!-- pick 1! -->
<g id="node23" class="node">
<title>pick 1!</title>
<ellipse fill="gray" stroke="black" cx="551.04" cy="-234" rx="27" ry="18"/>
<text text-anchor="middle" x="551.04" y="-231.8" font-family="Times,serif" font-size="9.00">pick 1!</text>
</g>
<!-- Fallback*****&#45;&gt;pick 1! -->
<g id="edge22" class="edge">
<title>Fallback*****&#45;&gt;pick 1!</title>
<path fill="none" stroke="black" d="M551.04,-287.7C551.04,-279.98 551.04,-270.71 551.04,-262.11"/>
<polygon fill="black" stroke="black" points="554.54,-262.1 551.04,-252.1 547.54,-262.1 554.54,-262.1"/>
</g>
<!-- 1 on 0?* -->
<g id="node24" class="node">
<title>1 on 0?*</title>
<ellipse fill="gray" stroke="black" cx="623.04" cy="-234" rx="27.27" ry="18"/>
<text text-anchor="middle" x="623.04" y="-231.8" font-family="Times,serif" font-size="9.00">1 on 0?*</text>
</g>
<!-- Fallback*****&#45;&gt;1 on 0?* -->
<g id="edge23" class="edge">
<title>Fallback*****&#45;&gt;1 on 0?*</title>
<path fill="none" stroke="black" d="M568.84,-287.7C578.53,-278.28 590.61,-266.53 600.9,-256.53"/>
<polygon fill="black" stroke="black" points="603.63,-258.76 608.36,-249.28 598.75,-253.74 603.63,-258.76"/>
</g>
<!-- 2 at pos (0.0, 0.05, 0.0384)? -->
<g id="node30" class="node">
<title>2 at pos (0.0, 0.05, 0.0384)?</title>
<ellipse fill="gray" stroke="black" cx="782.04" cy="-522" rx="67.6" ry="18"/>
<text text-anchor="middle" x="782.04" y="-519.8" font-family="Times,serif" font-size="9.00">2 at pos (0.0, 0.05, 0.0384)?</text>
</g>
<!-- Fallback******&#45;&gt;2 at pos (0.0, 0.05, 0.0384)? -->
<g id="edge29" class="edge">
<title>Fallback******&#45;&gt;2 at pos (0.0, 0.05, 0.0384)?</title>
<path fill="none" stroke="black" d="M763.98,-575.7C766.65,-567.9 769.87,-558.51 772.85,-549.83"/>
<polygon fill="black" stroke="black" points="776.25,-550.7 776.18,-540.1 769.63,-548.43 776.25,-550.7"/>
</g>
<!-- Sequence***** -->
<g id="node31" class="node">
<title>Sequence*****</title>
<polygon fill="cyan" stroke="black" points="958.78,-514.54 958.78,-529.46 931.99,-540 894.1,-540 867.31,-529.46 867.31,-514.54 894.1,-504 931.99,-504 958.78,-514.54"/>
<text text-anchor="middle" x="913.04" y="-519.8" font-family="Times,serif" font-size="9.00">Sequence*****</text>
</g>
<!-- Fallback******&#45;&gt;Sequence***** -->
<g id="edge30" class="edge">
<title>Fallback******&#45;&gt;Sequence*****</title>
<path fill="none" stroke="black" d="M787.56,-579.67C812.31,-568.49 847.83,-552.45 874.76,-540.29"/>
<polygon fill="black" stroke="black" points="876.22,-543.47 883.9,-536.16 873.34,-537.09 876.22,-543.47"/>
</g>
<!-- Fallback******* -->
<g id="node32" class="node">
<title>Fallback*******</title>
<polygon fill="cyan" stroke="black" points="886.03,-442.54 886.03,-457.46 857.34,-468 816.75,-468 788.06,-457.46 788.06,-442.54 816.75,-432 857.34,-432 886.03,-442.54"/>
<text text-anchor="middle" x="837.04" y="-447.8" font-family="Times,serif" font-size="9.00">Fallback*******</text>
</g>
<!-- Sequence*****&#45;&gt;Fallback******* -->
<g id="edge31" class="edge">
<title>Sequence*****&#45;&gt;Fallback*******</title>
<path fill="none" stroke="black" d="M894.26,-503.7C884.87,-495.05 873.36,-484.45 863.13,-475.03"/>
<polygon fill="black" stroke="black" points="865.34,-472.3 855.61,-468.1 860.6,-477.45 865.34,-472.3"/>
</g>
<!-- apply force 2! -->
<g id="node50" class="node">
<title>apply force 2!</title>
<ellipse fill="gray" stroke="black" cx="942.04" cy="-450" rx="38.21" ry="18"/>
<text text-anchor="middle" x="942.04" y="-447.8" font-family="Times,serif" font-size="9.00">apply force 2!</text>
</g>
<!-- Sequence*****&#45;&gt;apply force 2! -->
<g id="edge49" class="edge">
<title>Sequence*****&#45;&gt;apply force 2!</title>
<path fill="none" stroke="black" d="M920.21,-503.7C923.48,-495.81 927.42,-486.3 931.05,-477.55"/>
<polygon fill="black" stroke="black" points="934.36,-478.68 934.96,-468.1 927.9,-476 934.36,-478.68"/>
</g>
<!-- 2 on 1?* -->
<g id="node33" class="node">
<title>2 on 1?*</title>
<ellipse fill="gray" stroke="black" cx="774.04" cy="-378" rx="27.27" ry="18"/>
<text text-anchor="middle" x="774.04" y="-375.8" font-family="Times,serif" font-size="9.00">2 on 1?*</text>
</g>
<!-- Fallback*******&#45;&gt;2 on 1?* -->
<g id="edge32" class="edge">
<title>Fallback*******&#45;&gt;2 on 1?*</title>
<path fill="none" stroke="black" d="M821.47,-431.7C813.19,-422.5 802.92,-411.08 794.05,-401.23"/>
<polygon fill="black" stroke="black" points="796.6,-398.83 787.31,-393.74 791.4,-403.51 796.6,-398.83"/>
</g>
<!-- Sequence****** -->
<g id="node34" class="node">
<title>Sequence******</title>
<polygon fill="cyan" stroke="black" points="915.28,-370.54 915.28,-385.46 887.03,-396 847.06,-396 818.81,-385.46 818.81,-370.54 847.06,-360 887.03,-360 915.28,-370.54"/>
<text text-anchor="middle" x="867.04" y="-375.8" font-family="Times,serif" font-size="9.00">Sequence******</text>
</g>
<!-- Fallback*******&#45;&gt;Sequence****** -->
<g id="edge33" class="edge">
<title>Fallback*******&#45;&gt;Sequence******</title>
<path fill="none" stroke="black" d="M844.46,-431.7C847.84,-423.81 851.91,-414.3 855.67,-405.55"/>
<polygon fill="black" stroke="black" points="858.99,-406.67 859.71,-396.1 852.56,-403.92 858.99,-406.67"/>
</g>
<!-- Fallback******** -->
<g id="node35" class="node">
<title>Fallback********</title>
<polygon fill="cyan" stroke="black" points="813.78,-298.54 813.78,-313.46 783.47,-324 740.61,-324 710.31,-313.46 710.31,-298.54 740.61,-288 783.47,-288 813.78,-298.54"/>
<text text-anchor="middle" x="762.04" y="-303.8" font-family="Times,serif" font-size="9.00">Fallback********</text>
</g>
<!-- Sequence******&#45;&gt;Fallback******** -->
<g id="edge34" class="edge">
<title>Sequence******&#45;&gt;Fallback********</title>
<path fill="none" stroke="black" d="M843.48,-361.29C829.09,-351.7 810.49,-339.3 794.7,-328.77"/>
<polygon fill="black" stroke="black" points="796.52,-325.78 786.26,-323.14 792.64,-331.6 796.52,-325.78"/>
</g>
<!-- place on 1!* -->
<g id="node38" class="node">
<title>place on 1!*</title>
<ellipse fill="gray" stroke="black" cx="867.04" cy="-306" rx="34.78" ry="18"/>
<text text-anchor="middle" x="867.04" y="-303.8" font-family="Times,serif" font-size="9.00">place on 1!*</text>
</g>
<!-- Sequence******&#45;&gt;place on 1!* -->
<g id="edge37" class="edge">
<title>Sequence******&#45;&gt;place on 1!*</title>
<path fill="none" stroke="black" d="M867.04,-359.7C867.04,-351.98 867.04,-342.71 867.04,-334.11"/>
<polygon fill="black" stroke="black" points="870.54,-334.1 867.04,-324.1 863.54,-334.1 870.54,-334.1"/>
</g>
<!-- Fallback********* -->
<g id="node39" class="node">
<title>Fallback*********</title>
<polygon fill="cyan" stroke="black" points="1028.28,-298.54 1028.28,-313.46 996.51,-324 951.58,-324 919.81,-313.46 919.81,-298.54 951.58,-288 996.51,-288 1028.28,-298.54"/>
<text text-anchor="middle" x="974.04" y="-303.8" font-family="Times,serif" font-size="9.00">Fallback*********</text>
</g>
<!-- Sequence******&#45;&gt;Fallback********* -->
<g id="edge38" class="edge">
<title>Sequence******&#45;&gt;Fallback*********</title>
<path fill="none" stroke="black" d="M891.06,-361.29C905.61,-351.77 924.41,-339.47 940.43,-328.99"/>
<polygon fill="black" stroke="black" points="942.54,-331.79 949,-323.39 938.71,-325.93 942.54,-331.79"/>
</g>
<!-- picked 2? -->
<g id="node36" class="node">
<title>picked 2?</title>
<ellipse fill="gray" stroke="black" cx="730.04" cy="-234" rx="28.74" ry="18"/>
<text text-anchor="middle" x="730.04" y="-231.8" font-family="Times,serif" font-size="9.00">picked 2?</text>
</g>
<!-- Fallback********&#45;&gt;picked 2? -->
<g id="edge35" class="edge">
<title>Fallback********&#45;&gt;picked 2?</title>
<path fill="none" stroke="black" d="M754.13,-287.7C750.44,-279.61 745.96,-269.81 741.87,-260.87"/>
<polygon fill="black" stroke="black" points="744.98,-259.26 737.64,-251.62 738.62,-262.17 744.98,-259.26"/>
</g>
<!-- pick 2!* -->
<g id="node37" class="node">
<title>pick 2!*</title>
<ellipse fill="gray" stroke="black" cx="804.04" cy="-234" rx="27" ry="18"/>
<text text-anchor="middle" x="804.04" y="-231.8" font-family="Times,serif" font-size="9.00">pick 2!*</text>
</g>
<!-- Fallback********&#45;&gt;pick 2!* -->
<g id="edge36" class="edge">
<title>Fallback********&#45;&gt;pick 2!*</title>
<path fill="none" stroke="black" d="M772.43,-287.7C777.45,-279.32 783.59,-269.1 789.11,-259.9"/>
<polygon fill="black" stroke="black" points="792.21,-261.52 794.36,-251.14 786.21,-257.92 792.21,-261.52"/>
</g>
<!-- 1 at pos (0.0, 0.05, 0.0192)?** -->
<g id="node40" class="node">
<title>1 at pos (0.0, 0.05, 0.0192)?**</title>
<ellipse fill="gray" stroke="black" cx="948.04" cy="-234" rx="72.99" ry="18"/>
<text text-anchor="middle" x="948.04" y="-231.8" font-family="Times,serif" font-size="9.00">1 at pos (0.0, 0.05, 0.0192)?**</text>
</g>
<!-- Fallback*********&#45;&gt;1 at pos (0.0, 0.05, 0.0192)?** -->
<g id="edge39" class="edge">
<title>Fallback*********&#45;&gt;1 at pos (0.0, 0.05, 0.0192)?**</title>
<path fill="none" stroke="black" d="M967.62,-287.7C964.69,-279.81 961.16,-270.3 957.9,-261.55"/>
<polygon fill="black" stroke="black" points="961.16,-260.26 954.4,-252.1 954.6,-262.7 961.16,-260.26"/>
</g>
<!-- Sequence******* -->
<g id="node41" class="node">
<title>Sequence*******</title>
<polygon fill="cyan" stroke="black" points="1141.53,-226.54 1141.53,-241.46 1111.37,-252 1068.72,-252 1038.56,-241.46 1038.56,-226.54 1068.72,-216 1111.37,-216 1141.53,-226.54"/>
<text text-anchor="middle" x="1090.04" y="-231.8" font-family="Times,serif" font-size="9.00">Sequence*******</text>
</g>
<!-- Fallback*********&#45;&gt;Sequence******* -->
<g id="edge40" class="edge">
<title>Fallback*********&#45;&gt;Sequence*******</title>
<path fill="none" stroke="black" d="M1000.37,-289.12C1016.65,-279.29 1037.73,-266.57 1055.36,-255.93"/>
<polygon fill="black" stroke="black" points="1057.47,-258.74 1064.23,-250.58 1053.86,-252.75 1057.47,-258.74"/>
</g>
<!-- Fallback********** -->
<g id="node42" class="node">
<title>Fallback**********</title>
<polygon fill="cyan" stroke="black" points="1009.53,-154.54 1009.53,-169.46 975.86,-180 928.23,-180 894.56,-169.46 894.56,-154.54 928.23,-144 975.86,-144 1009.53,-154.54"/>
<text text-anchor="middle" x="952.04" y="-159.8" font-family="Times,serif" font-size="9.00">Fallback**********</text>
</g>
<!-- Sequence*******&#45;&gt;Fallback********** -->
<g id="edge41" class="edge">
<title>Sequence*******&#45;&gt;Fallback**********</title>
<path fill="none" stroke="black" d="M1061.45,-218.5C1041.05,-208.15 1013.38,-194.11 990.96,-182.74"/>
<polygon fill="black" stroke="black" points="992.54,-179.61 982.03,-178.21 989.37,-185.86 992.54,-179.61"/>
</g>
<!-- 0 at pos (0.0, 0.05, 0.0)?* -->
<g id="node48" class="node">
<title>0 at pos (0.0, 0.05, 0.0)?*</title>
<ellipse fill="gray" stroke="black" cx="1090.04" cy="-162" rx="62.21" ry="18"/>
<text text-anchor="middle" x="1090.04" y="-159.8" font-family="Times,serif" font-size="9.00">0 at pos (0.0, 0.05, 0.0)?*</text>
</g>
<!-- Sequence*******&#45;&gt;0 at pos (0.0, 0.05, 0.0)?* -->
<g id="edge47" class="edge">
<title>Sequence*******&#45;&gt;0 at pos (0.0, 0.05, 0.0)?*</title>
<path fill="none" stroke="black" d="M1090.04,-215.7C1090.04,-207.98 1090.04,-198.71 1090.04,-190.11"/>
<polygon fill="black" stroke="black" points="1093.54,-190.1 1090.04,-180.1 1086.54,-190.1 1093.54,-190.1"/>
</g>
<!-- apply force 1!* -->
<g id="node49" class="node">
<title>apply force 1!*</title>
<ellipse fill="gray" stroke="black" cx="1211.04" cy="-162" rx="40.98" ry="18"/>
<text text-anchor="middle" x="1211.04" y="-159.8" font-family="Times,serif" font-size="9.00">apply force 1!*</text>
</g>
<!-- Sequence*******&#45;&gt;apply force 1!* -->
<g id="edge48" class="edge">
<title>Sequence*******&#45;&gt;apply force 1!*</title>
<path fill="none" stroke="black" d="M1116.6,-217.64C1134.74,-207.15 1158.89,-193.17 1178.23,-181.98"/>
<polygon fill="black" stroke="black" points="1180.11,-184.94 1187.02,-176.9 1176.61,-178.88 1180.11,-184.94"/>
</g>
<!-- 1 on 0?** -->
<g id="node43" class="node">
<title>1 on 0?**</title>
<ellipse fill="gray" stroke="black" cx="850.04" cy="-90" rx="30.04" ry="18"/>
<text text-anchor="middle" x="850.04" y="-87.8" font-family="Times,serif" font-size="9.00">1 on 0?**</text>
</g>
<!-- Fallback**********&#45;&gt;1 on 0?** -->
<g id="edge42" class="edge">
<title>Fallback**********&#45;&gt;1 on 0?**</title>
<path fill="none" stroke="black" d="M927.35,-144.05C912.37,-133.77 893.22,-120.63 877.72,-109.99"/>
<polygon fill="black" stroke="black" points="879.31,-106.84 869.08,-104.06 875.35,-112.61 879.31,-106.84"/>
</g>
<!-- Sequence******** -->
<g id="node44" class="node">
<title>Sequence********</title>
<polygon fill="cyan" stroke="black" points="1006.03,-82.54 1006.03,-97.46 974.41,-108 929.68,-108 898.06,-97.46 898.06,-82.54 929.68,-72 974.41,-72 1006.03,-82.54"/>
<text text-anchor="middle" x="952.04" y="-87.8" font-family="Times,serif" font-size="9.00">Sequence********</text>
</g>
<!-- Fallback**********&#45;&gt;Sequence******** -->
<g id="edge43" class="edge">
<title>Fallback**********&#45;&gt;Sequence********</title>
<path fill="none" stroke="black" d="M952.04,-143.7C952.04,-135.98 952.04,-126.71 952.04,-118.11"/>
<polygon fill="black" stroke="black" points="955.54,-118.1 952.04,-108.1 948.54,-118.1 955.54,-118.1"/>
</g>
<!-- pick 2!** -->
<g id="node47" class="node">
<title>pick 2!**</title>
<ellipse fill="gray" stroke="black" cx="1053.04" cy="-90" rx="28.74" ry="18"/>
<text text-anchor="middle" x="1053.04" y="-87.8" font-family="Times,serif" font-size="9.00">pick 2!**</text>
</g>
<!-- Fallback**********&#45;&gt;pick 2!** -->
<g id="edge46" class="edge">
<title>Fallback**********&#45;&gt;pick 2!**</title>
<path fill="none" stroke="black" d="M976.49,-144.05C991.43,-133.7 1010.55,-120.45 1025.94,-109.78"/>
<polygon fill="black" stroke="black" points="1028.29,-112.41 1034.52,-103.84 1024.3,-106.66 1028.29,-112.41"/>
</g>
<!-- pick 1!* -->
<g id="node45" class="node">
<title>pick 1!*</title>
<ellipse fill="gray" stroke="black" cx="912.04" cy="-18" rx="27" ry="18"/>
<text text-anchor="middle" x="912.04" y="-15.8" font-family="Times,serif" font-size="9.00">pick 1!*</text>
</g>
<!-- Sequence********&#45;&gt;pick 1!* -->
<g id="edge44" class="edge">
<title>Sequence********&#45;&gt;pick 1!*</title>
<path fill="none" stroke="black" d="M942.16,-71.7C937.37,-63.32 931.53,-53.1 926.27,-43.9"/>
<polygon fill="black" stroke="black" points="929.27,-42.09 921.27,-35.14 923.19,-45.56 929.27,-42.09"/>
</g>
<!-- place on 0!* -->
<g id="node46" class="node">
<title>place on 0!*</title>
<ellipse fill="gray" stroke="black" cx="992.04" cy="-18" rx="34.78" ry="18"/>
<text text-anchor="middle" x="992.04" y="-15.8" font-family="Times,serif" font-size="9.00">place on 0!*</text>
</g>
<!-- Sequence********&#45;&gt;place on 0!* -->
<g id="edge45" class="edge">
<title>Sequence********&#45;&gt;place on 0!*</title>
<path fill="none" stroke="black" d="M961.93,-71.7C966.6,-63.52 972.27,-53.6 977.43,-44.58"/>
<polygon fill="black" stroke="black" points="980.62,-46.04 982.55,-35.62 974.55,-42.57 980.62,-46.04"/>
</g>
</g>
</svg>
