<?xml version="1.0" encoding="UTF-8" standalone="no"?>
<!DOCTYPE svg PUBLIC "-//W3C//DTD SVG 1.1//EN"
 "http://www.w3.org/Graphics/SVG/1.1/DTD/svg11.dtd">
<!-- Generated by graphviz version 2.43.0 (0)
 -->
<!-- Title: pastafarianism Pages: 1 -->
<svg width="741pt" height="404pt"
 viewBox="0.00 0.00 741.38 404.00" xmlns="http://www.w3.org/2000/svg" xmlns:xlink="http://www.w3.org/1999/xlink">
<g id="graph0" class="graph" transform="scale(1 1) rotate(0) translate(4 400)">
<title>pastafarianism</title>
<polygon fill="white" stroke="transparent" points="-4,4 -4,-400 737.38,-400 737.38,4 -4,4"/>
<!-- Sequence -->
<g id="node1" class="node">
<title>Sequence</title>
<polygon fill="cyan" stroke="black" points="559.54,-370.54 559.54,-385.46 541.09,-396 515,-396 496.55,-385.46 496.55,-370.54 515,-360 541.09,-360 559.54,-370.54"/>
<text text-anchor="middle" x="528.04" y="-375.8" font-family="Times,serif" font-size="9.00">Sequence</text>
</g>
<!-- Fallback -->
<g id="node2" class="node">
<title>Fallback</title>
<polygon fill="cyan" stroke="black" points="237.29,-298.54 237.29,-313.46 220.16,-324 195.93,-324 178.8,-313.46 178.8,-298.54 195.93,-288 220.16,-288 237.29,-298.54"/>
<text text-anchor="middle" x="208.04" y="-303.8" font-family="Times,serif" font-size="9.00">Fallback</text>
</g>
<!-- Sequence&#45;&gt;Fallback -->
<g id="edge1" class="edge">
<title>Sequence&#45;&gt;Fallback</title>
<path fill="none" stroke="black" d="M497.07,-370.22C438.56,-357.42 311.88,-329.71 247.43,-315.61"/>
<polygon fill="black" stroke="black" points="248.15,-312.19 237.64,-313.47 246.66,-319.03 248.15,-312.19"/>
</g>
<!-- Fallback* -->
<g id="node8" class="node">
<title>Fallback*</title>
<polygon fill="cyan" stroke="black" points="516.79,-298.54 516.79,-313.46 498.19,-324 471.9,-324 453.3,-313.46 453.3,-298.54 471.9,-288 498.19,-288 516.79,-298.54"/>
<text text-anchor="middle" x="485.04" y="-303.8" font-family="Times,serif" font-size="9.00">Fallback*</text>
</g>
<!-- Sequence&#45;&gt;Fallback* -->
<g id="edge7" class="edge">
<title>Sequence&#45;&gt;Fallback*</title>
<path fill="none" stroke="black" d="M517.42,-359.7C512.42,-351.56 506.35,-341.69 500.83,-332.7"/>
<polygon fill="black" stroke="black" points="503.77,-330.79 495.55,-324.1 497.8,-334.46 503.77,-330.79"/>
</g>
<!-- Fallback*** -->
<g id="node19" class="node">
<title>Fallback***</title>
<polygon fill="cyan" stroke="black" points="609.53,-298.54 609.53,-313.46 587.57,-324 556.52,-324 534.55,-313.46 534.55,-298.54 556.52,-288 587.57,-288 609.53,-298.54"/>
<text text-anchor="middle" x="572.04" y="-303.8" font-family="Times,serif" font-size="9.00">Fallback***</text>
</g>
<!-- Sequence&#45;&gt;Fallback*** -->
<g id="edge18" class="edge">
<title>Sequence&#45;&gt;Fallback***</title>
<path fill="none" stroke="black" d="M538.92,-359.7C544.04,-351.56 550.24,-341.69 555.89,-332.7"/>
<polygon fill="black" stroke="black" points="558.93,-334.43 561.29,-324.1 553.01,-330.71 558.93,-334.43"/>
</g>
<!-- apply force 2! -->
<g id="node24" class="node">
<title>apply force 2!</title>
<ellipse fill="gray" stroke="black" cx="666.04" cy="-306" rx="38.21" ry="18"/>
<text text-anchor="middle" x="666.04" y="-303.8" font-family="Times,serif" font-size="9.00">apply force 2!</text>
</g>
<!-- Sequence&#45;&gt;apply force 2! -->
<g id="edge23" class="edge">
<title>Sequence&#45;&gt;apply force 2!</title>
<path fill="none" stroke="black" d="M550.83,-365.44C572.83,-354.28 606.41,-337.25 631.66,-324.44"/>
<polygon fill="black" stroke="black" points="633.55,-327.41 640.88,-319.76 630.38,-321.17 633.55,-327.41"/>
</g>
<!-- 0 at pos (0.0, 0.05, 0.0)? -->
<g id="node3" class="node">
<title>0 at pos (0.0, 0.05, 0.0)?</title>
<ellipse fill="gray" stroke="black" cx="60.04" cy="-234" rx="60.09" ry="18"/>
<text text-anchor="middle" x="60.04" y="-231.8" font-family="Times,serif" font-size="9.00">0 at pos (0.0, 0.05, 0.0)?</text>
</g>
<!-- Fallback&#45;&gt;0 at pos (0.0, 0.05, 0.0)? -->
<g id="edge2" class="edge">
<title>Fallback&#45;&gt;0 at pos (0.0, 0.05, 0.0)?</title>
<path fill="none" stroke="black" d="M185.57,-294.37C162.93,-283.66 127.51,-266.91 100.06,-253.93"/>
<polygon fill="black" stroke="black" points="101.26,-250.62 90.72,-249.51 98.26,-256.95 101.26,-250.62"/>
</g>
<!-- picked 1? -->
<g id="node4" class="node">
<title>picked 1?</title>
<ellipse fill="gray" stroke="black" cx="167.04" cy="-234" rx="28.74" ry="18"/>
<text text-anchor="middle" x="167.04" y="-231.8" font-family="Times,serif" font-size="9.00">picked 1?</text>
</g>
<!-- Fallback&#45;&gt;picked 1? -->
<g id="edge3" class="edge">
<title>Fallback&#45;&gt;picked 1?</title>
<path fill="none" stroke="black" d="M197.91,-287.7C193,-279.32 187.02,-269.1 181.63,-259.9"/>
<polygon fill="black" stroke="black" points="184.57,-258 176.5,-251.14 178.53,-261.54 184.57,-258"/>
</g>
<!-- Sequence* -->
<g id="node5" class="node">
<title>Sequence*</title>
<polygon fill="cyan" stroke="black" points="282.29,-226.54 282.29,-241.46 262.23,-252 233.86,-252 213.8,-241.46 213.8,-226.54 233.86,-216 262.23,-216 282.29,-226.54"/>
<text text-anchor="middle" x="248.04" y="-231.8" font-family="Times,serif" font-size="9.00">Sequence*</text>
</g>
<!-- Fallback&#45;&gt;Sequence* -->
<g id="edge4" class="edge">
<title>Fallback&#45;&gt;Sequence*</title>
<path fill="none" stroke="black" d="M217.93,-287.7C222.53,-279.64 228.1,-269.89 233.2,-260.98"/>
<polygon fill="black" stroke="black" points="236.35,-262.52 238.27,-252.1 230.27,-259.05 236.35,-262.52"/>
</g>
<!-- pick 0! -->
<g id="node6" class="node">
<title>pick 0!</title>
<ellipse fill="gray" stroke="black" cx="204.04" cy="-162" rx="27" ry="18"/>
<text text-anchor="middle" x="204.04" y="-159.8" font-family="Times,serif" font-size="9.00">pick 0!</text>
</g>
<!-- Sequence*&#45;&gt;pick 0! -->
<g id="edge5" class="edge">
<title>Sequence*&#45;&gt;pick 0!</title>
<path fill="none" stroke="black" d="M237.17,-215.7C231.85,-207.23 225.34,-196.89 219.51,-187.61"/>
<polygon fill="black" stroke="black" points="222.48,-185.75 214.19,-179.14 216.55,-189.47 222.48,-185.75"/>
</g>
<!-- place at (0.0, 0.05, 0.0)! -->
<g id="node7" class="node">
<title>place at (0.0, 0.05, 0.0)!</title>
<ellipse fill="gray" stroke="black" cx="307.04" cy="-162" rx="58.13" ry="18"/>
<text text-anchor="middle" x="307.04" y="-159.8" font-family="Times,serif" font-size="9.00">place at (0.0, 0.05, 0.0)!</text>
</g>
<!-- Sequence*&#45;&gt;place at (0.0, 0.05, 0.0)! -->
<g id="edge6" class="edge">
<title>Sequence*&#45;&gt;place at (0.0, 0.05, 0.0)!</title>
<path fill="none" stroke="black" d="M262.63,-215.7C269.81,-207.18 278.59,-196.76 286.44,-187.45"/>
<polygon fill="black" stroke="black" points="289.27,-189.52 293.03,-179.62 283.91,-185.01 289.27,-189.52"/>
</g>
<!-- 1 at pos (0.0, 0.05, 0.0192)? -->
<g id="node9" class="node">
<title>1 at pos (0.0, 0.05, 0.0192)?</title>
<ellipse fill="gray" stroke="black" cx="368.04" cy="-234" rx="67.6" ry="18"/>
<text text-anchor="middle" x="368.04" y="-231.8" font-family="Times,serif" font-size="9.00">1 at pos (0.0, 0.05, 0.0192)?</text>
</g>
<!-- Fallback*&#45;&gt;1 at pos (0.0, 0.05, 0.0192)? -->
<g id="edge8" class="edge">
<title>Fallback*&#45;&gt;1 at pos (0.0, 0.05, 0.0192)?</title>
<path fill="none" stroke="black" d="M463.86,-292.32C446.95,-282.21 422.92,-267.83 403.15,-256"/>
<polygon fill="black" stroke="black" points="404.78,-252.9 394.41,-250.77 401.19,-258.91 404.78,-252.9"/>
</g>
<!-- Sequence** -->
<g id="node10" class="node">
<title>Sequence**</title>
<polygon fill="cyan" stroke="black" points="526.79,-226.54 526.79,-241.46 505.26,-252 474.83,-252 453.3,-241.46 453.3,-226.54 474.83,-216 505.26,-216 526.79,-226.54"/>
<text text-anchor="middle" x="490.04" y="-231.8" font-family="Times,serif" font-size="9.00">Sequence**</text>
</g>
<!-- Fallback*&#45;&gt;Sequence** -->
<g id="edge9" class="edge">
<title>Fallback*&#45;&gt;Sequence**</title>
<path fill="none" stroke="black" d="M486.28,-287.7C486.83,-279.98 487.49,-270.71 488.11,-262.11"/>
<polygon fill="black" stroke="black" points="491.6,-262.33 488.82,-252.1 484.62,-261.83 491.6,-262.33"/>
</g>
<!-- Fallback** -->
<g id="node11" class="node">
<title>Fallback**</title>
<polygon fill="cyan" stroke="black" points="479.04,-154.54 479.04,-169.46 458.54,-180 429.55,-180 409.05,-169.46 409.05,-154.54 429.55,-144 458.54,-144 479.04,-154.54"/>
<text text-anchor="middle" x="444.04" y="-159.8" font-family="Times,serif" font-size="9.00">Fallback**</text>
</g>
<!-- Sequence**&#45;&gt;Fallback** -->
<g id="edge10" class="edge">
<title>Sequence**&#45;&gt;Fallback**</title>
<path fill="none" stroke="black" d="M478.67,-215.7C473.33,-207.56 466.84,-197.69 460.93,-188.7"/>
<polygon fill="black" stroke="black" points="463.7,-186.54 455.28,-180.1 457.85,-190.38 463.7,-186.54"/>
</g>
<!-- apply force 1! -->
<g id="node18" class="node">
<title>apply force 1!</title>
<ellipse fill="gray" stroke="black" cx="535.04" cy="-162" rx="38.21" ry="18"/>
<text text-anchor="middle" x="535.04" y="-159.8" font-family="Times,serif" font-size="9.00">apply force 1!</text>
</g>
<!-- Sequence**&#45;&gt;apply force 1! -->
<g id="edge17" class="edge">
<title>Sequence**&#45;&gt;apply force 1!</title>
<path fill="none" stroke="black" d="M501.17,-215.7C506.48,-207.44 512.93,-197.39 518.78,-188.3"/>
<polygon fill="black" stroke="black" points="521.9,-189.93 524.36,-179.62 516.01,-186.14 521.9,-189.93"/>
</g>
<!-- Sequence*** -->
<g id="node12" class="node">
<title>Sequence***</title>
<polygon fill="cyan" stroke="black" points="434.03,-82.54 434.03,-97.46 410.61,-108 377.48,-108 354.05,-97.46 354.05,-82.54 377.48,-72 410.61,-72 434.03,-82.54"/>
<text text-anchor="middle" x="394.04" y="-87.8" font-family="Times,serif" font-size="9.00">Sequence***</text>
</g>
<!-- Fallback**&#45;&gt;Sequence*** -->
<g id="edge11" class="edge">
<title>Fallback**&#45;&gt;Sequence***</title>
<path fill="none" stroke="black" d="M431.68,-143.7C425.81,-135.47 418.68,-125.48 412.2,-116.42"/>
<polygon fill="black" stroke="black" points="414.92,-114.21 406.26,-108.1 409.23,-118.28 414.92,-114.21"/>
</g>
<!-- Sequence**** -->
<g id="node15" class="node">
<title>Sequence****</title>
<polygon fill="cyan" stroke="black" points="536.53,-82.54 536.53,-97.46 511.64,-108 476.44,-108 451.56,-97.46 451.56,-82.54 476.44,-72 511.64,-72 536.53,-82.54"/>
<text text-anchor="middle" x="494.04" y="-87.8" font-family="Times,serif" font-size="9.00">Sequence****</text>
</g>
<!-- Fallback**&#45;&gt;Sequence**** -->
<g id="edge14" class="edge">
<title>Fallback**&#45;&gt;Sequence****</title>
<path fill="none" stroke="black" d="M456.4,-143.7C462.28,-135.47 469.41,-125.48 475.89,-116.42"/>
<polygon fill="black" stroke="black" points="478.86,-118.28 481.83,-108.1 473.17,-114.21 478.86,-118.28"/>
</g>
<!-- 1 on 0? -->
<g id="node13" class="node">
<title>1 on 0?</title>
<ellipse fill="gray" stroke="black" cx="323.04" cy="-18" rx="27" ry="18"/>
<text text-anchor="middle" x="323.04" y="-15.8" font-family="Times,serif" font-size="9.00">1 on 0?</text>
</g>
<!-- Sequence***&#45;&gt;1 on 0? -->
<g id="edge12" class="edge">
<title>Sequence***&#45;&gt;1 on 0?</title>
<path fill="none" stroke="black" d="M376.86,-72.05C367.31,-62.64 355.32,-50.82 345.09,-40.74"/>
<polygon fill="black" stroke="black" points="347.25,-37.95 337.67,-33.42 342.34,-42.94 347.25,-37.95"/>
</g>
<!-- place on 0! -->
<g id="node14" class="node">
<title>place on 0!</title>
<ellipse fill="gray" stroke="black" cx="400.04" cy="-18" rx="32.16" ry="18"/>
<text text-anchor="middle" x="400.04" y="-15.8" font-family="Times,serif" font-size="9.00">place on 0!</text>
</g>
<!-- Sequence***&#45;&gt;place on 0! -->
<g id="edge13" class="edge">
<title>Sequence***&#45;&gt;place on 0!</title>
<path fill="none" stroke="black" d="M395.53,-71.7C396.19,-63.98 396.98,-54.71 397.72,-46.11"/>
<polygon fill="black" stroke="black" points="401.21,-46.37 398.58,-36.1 394.24,-45.77 401.21,-46.37"/>
</g>
<!-- pick 1! -->
<g id="node16" class="node">
<title>pick 1!</title>
<ellipse fill="gray" stroke="black" cx="488.04" cy="-18" rx="27" ry="18"/>
<text text-anchor="middle" x="488.04" y="-15.8" font-family="Times,serif" font-size="9.00">pick 1!</text>
</g>
<!-- Sequence****&#45;&gt;pick 1! -->
<g id="edge15" class="edge">
<title>Sequence****&#45;&gt;pick 1!</title>
<path fill="none" stroke="black" d="M492.56,-71.7C491.9,-63.98 491.11,-54.71 490.37,-46.11"/>
<polygon fill="black" stroke="black" points="493.85,-45.77 489.51,-36.1 486.88,-46.37 493.85,-45.77"/>
</g>
<!-- place on 0!* -->
<g id="node17" class="node">
<title>place on 0!*</title>
<ellipse fill="gray" stroke="black" cx="568.04" cy="-18" rx="34.78" ry="18"/>
<text text-anchor="middle" x="568.04" y="-15.8" font-family="Times,serif" font-size="9.00">place on 0!*</text>
</g>
<!-- Sequence****&#45;&gt;place on 0!* -->
<g id="edge16" class="edge">
<title>Sequence****&#45;&gt;place on 0!*</title>
<path fill="none" stroke="black" d="M511.96,-72.05C521.8,-62.74 534.13,-51.08 544.72,-41.07"/>
<polygon fill="black" stroke="black" points="547.2,-43.54 552.06,-34.12 542.39,-38.45 547.2,-43.54"/>
</g>
<!-- 2 on 1? -->
<g id="node20" class="node">
<title>2 on 1?</title>
<ellipse fill="gray" stroke="black" cx="572.04" cy="-234" rx="27" ry="18"/>
<text text-anchor="middle" x="572.04" y="-231.8" font-family="Times,serif" font-size="9.00">2 on 1?</text>
</g>
<!-- Fallback***&#45;&gt;2 on 1? -->
<g id="edge19" class="edge">
<title>Fallback***&#45;&gt;2 on 1?</title>
<path fill="none" stroke="black" d="M572.04,-287.7C572.04,-279.98 572.04,-270.71 572.04,-262.11"/>
<polygon fill="black" stroke="black" points="575.54,-262.1 572.04,-252.1 568.54,-262.1 575.54,-262.1"/>
</g>
<!-- Sequence***** -->
<g id="node21" class="node">
<title>Sequence*****</title>
<polygon fill="cyan" stroke="black" points="708.78,-226.54 708.78,-241.46 681.99,-252 644.1,-252 617.31,-241.46 617.31,-226.54 644.1,-216 681.99,-216 708.78,-226.54"/>
<text text-anchor="middle" x="663.04" y="-231.8" font-family="Times,serif" font-size="9.00">Sequence*****</text>
</g>
<!-- Fallback***&#45;&gt;Sequence***** -->
<g id="edge20" class="edge">
<title>Fallback***&#45;&gt;Sequence*****</title>
<path fill="none" stroke="black" d="M591.79,-289.81C604,-280.42 619.89,-268.19 633.57,-257.67"/>
<polygon fill="black" stroke="black" points="635.96,-260.25 641.75,-251.38 631.69,-254.7 635.96,-260.25"/>
</g>
<!-- pick 2! -->
<g id="node22" class="node">
<title>pick 2!</title>
<ellipse fill="gray" stroke="black" cx="624.04" cy="-162" rx="27" ry="18"/>
<text text-anchor="middle" x="624.04" y="-159.8" font-family="Times,serif" font-size="9.00">pick 2!</text>
</g>
<!-- Sequence*****&#45;&gt;pick 2! -->
<g id="edge21" class="edge">
<title>Sequence*****&#45;&gt;pick 2!</title>
<path fill="none" stroke="black" d="M653.4,-215.7C648.73,-207.32 643.04,-197.1 637.92,-187.9"/>
<polygon fill="black" stroke="black" points="640.96,-186.18 633.04,-179.14 634.85,-189.58 640.96,-186.18"/>
</g>
<!-- place on 1! -->
<g id="node23" class="node">
<title>place on 1!</title>
<ellipse fill="gray" stroke="black" cx="701.04" cy="-162" rx="32.16" ry="18"/>
<text text-anchor="middle" x="701.04" y="-159.8" font-family="Times,serif" font-size="9.00">place on 1!</text>
</g>
<!-- Sequence*****&#45;&gt;place on 1! -->
<g id="edge22" class="edge">
<title>Sequence*****&#45;&gt;place on 1!</title>
<path fill="none" stroke="black" d="M672.44,-215.7C676.87,-207.52 682.26,-197.6 687.16,-188.58"/>
<polygon fill="black" stroke="black" points="690.33,-190.08 692.02,-179.62 684.17,-186.74 690.33,-190.08"/>
</g>
</g>
</svg>
