<?xml version="1.0" encoding="UTF-8" standalone="no"?>
<!DOCTYPE svg PUBLIC "-//W3C//DTD SVG 1.1//EN"
 "http://www.w3.org/Graphics/SVG/1.1/DTD/svg11.dtd">
<!-- Generated by graphviz version 2.43.0 (0)
 -->
<!-- Title: pastafarianism Pages: 1 -->
<svg width="567pt" height="116pt"
 viewBox="0.00 0.00 567.20 116.00" xmlns="http://www.w3.org/2000/svg" xmlns:xlink="http://www.w3.org/1999/xlink">
<g id="graph0" class="graph" transform="scale(1 1) rotate(0) translate(4 112)">
<title>pastafarianism</title>
<polygon fill="white" stroke="transparent" points="-4,4 -4,-112 563.2,-112 563.2,4 -4,4"/>
<!-- Sequence -->
<g id="node1" class="node">
<title>Sequence</title>
<polygon fill="cyan" stroke="black" points="243.49,-82.54 243.49,-97.46 225.05,-108 198.95,-108 180.51,-97.46 180.51,-82.54 198.95,-72 225.05,-72 243.49,-82.54"/>
<text text-anchor="middle" x="212" y="-87.8" font-family="Times,serif" font-size="9.00">Sequence</text>
</g>
<!-- pick 0! -->
<g id="node2" class="node">
<title>pick 0!</title>
<ellipse fill="gray" stroke="black" cx="27" cy="-18" rx="27" ry="18"/>
<text text-anchor="middle" x="27" y="-15.8" font-family="Times,serif" font-size="9.00">pick 0!</text>
</g>
<!-- Sequence&#45;&gt;pick 0! -->
<g id="edge1" class="edge">
<title>Sequence&#45;&gt;pick 0!</title>
<path fill="none" stroke="black" d="M184.5,-80.13C154.37,-70.2 104.75,-53.23 63,-36 61.18,-35.25 59.32,-34.45 57.45,-33.63"/>
<polygon fill="black" stroke="black" points="58.72,-30.37 48.16,-29.42 55.82,-36.74 58.72,-30.37"/>
</g>
<!-- pick 0!* -->
<g id="node3" class="node">
<title>pick 0!*</title>
<ellipse fill="gray" stroke="black" cx="99" cy="-18" rx="27" ry="18"/>
<text text-anchor="middle" x="99" y="-15.8" font-family="Times,serif" font-size="9.00">pick 0!*</text>
</g>
<!-- Sequence&#45;&gt;pick 0!* -->
<g id="edge2" class="edge">
<title>Sequence&#45;&gt;pick 0!*</title>
<path fill="none" stroke="black" d="M191.27,-76.16C173.15,-64.93 146.69,-48.54 126.74,-36.18"/>
<polygon fill="black" stroke="black" points="128.43,-33.12 118.09,-30.83 124.75,-39.07 128.43,-33.12"/>
</g>
<!-- pick 0!** -->
<g id="node4" class="node">
<title>pick 0!**</title>
<ellipse fill="gray" stroke="black" cx="173" cy="-18" rx="28.74" ry="18"/>
<text text-anchor="middle" x="173" y="-15.8" font-family="Times,serif" font-size="9.00">pick 0!**</text>
</g>
<!-- Sequence&#45;&gt;pick 0!** -->
<g id="edge3" class="edge">
<title>Sequence&#45;&gt;pick 0!**</title>
<path fill="none" stroke="black" d="M202.36,-71.7C197.69,-63.32 192,-53.1 186.87,-43.9"/>
<polygon fill="black" stroke="black" points="189.92,-42.18 181.99,-35.14 183.8,-45.58 189.92,-42.18"/>
</g>
<!-- pick 0!*** -->
<g id="node5" class="node">
<title>pick 0!***</title>
<ellipse fill="gray" stroke="black" cx="252" cy="-18" rx="31.51" ry="18"/>
<text text-anchor="middle" x="252" y="-15.8" font-family="Times,serif" font-size="9.00">pick 0!***</text>
</g>
<!-- Sequence&#45;&gt;pick 0!*** -->
<g id="edge4" class="edge">
<title>Sequence&#45;&gt;pick 0!***</title>
<path fill="none" stroke="black" d="M221.89,-71.7C226.56,-63.52 232.23,-53.6 237.38,-44.58"/>
<polygon fill="black" stroke="black" points="240.58,-46.04 242.5,-35.62 234.5,-42.57 240.58,-46.04"/>
</g>
<!-- place at (0.0, 0.05, 0.0)! -->
<g id="node6" class="node">
<title>place at (0.0, 0.05, 0.0)!</title>
<ellipse fill="gray" stroke="black" cx="360" cy="-18" rx="58.13" ry="18"/>
<text text-anchor="middle" x="360" y="-15.8" font-family="Times,serif" font-size="9.00">place at (0.0, 0.05, 0.0)!</text>
</g>
<!-- Sequence&#45;&gt;place at (0.0, 0.05, 0.0)! -->
<g id="edge5" class="edge">
<title>Sequence&#45;&gt;place at (0.0, 0.05, 0.0)!</title>
<path fill="none" stroke="black" d="M235.45,-77.91C258.2,-67.15 293.16,-50.62 320.25,-37.8"/>
<polygon fill="black" stroke="black" points="321.93,-40.88 329.47,-33.44 318.94,-34.55 321.93,-40.88"/>
</g>
<!-- place at (0.0, 0.05, 0.0)!* -->
<g id="node7" class="node">
<title>place at (0.0, 0.05, 0.0)!*</title>
<ellipse fill="gray" stroke="black" cx="498" cy="-18" rx="61.4" ry="18"/>
<text text-anchor="middle" x="498" y="-15.8" font-family="Times,serif" font-size="9.00">place at (0.0, 0.05, 0.0)!*</text>
</g>
<!-- Sequence&#45;&gt;place at (0.0, 0.05, 0.0)!* -->
<g id="edge6" class="edge">
<title>Sequence&#45;&gt;place at (0.0, 0.05, 0.0)!*</title>
<path fill="none" stroke="black" d="M242.07,-81.64C289.52,-70.03 382.52,-47.27 442.38,-32.61"/>
<polygon fill="black" stroke="black" points="443.54,-35.93 452.42,-30.16 441.88,-29.13 443.54,-35.93"/>
</g>
</g>
</svg>
