<?xml version="1.0" encoding="UTF-8" standalone="no"?>
<!DOCTYPE svg PUBLIC "-//W3C//DTD SVG 1.1//EN"
 "http://www.w3.org/Graphics/SVG/1.1/DTD/svg11.dtd">
<!-- Generated by graphviz version 2.43.0 (0)
 -->
<!-- Title: pastafarianism Pages: 1 -->
<svg width="849pt" height="116pt"
 viewBox="0.00 0.00 848.75 116.00" xmlns="http://www.w3.org/2000/svg" xmlns:xlink="http://www.w3.org/1999/xlink">
<g id="graph0" class="graph" transform="scale(1 1) rotate(0) translate(4 112)">
<title>pastafarianism</title>
<polygon fill="white" stroke="transparent" points="-4,4 -4,-112 844.75,-112 844.75,4 -4,4"/>
<!-- Sequence -->
<g id="node1" class="node">
<title>Sequence</title>
<polygon fill="cyan" stroke="black" points="422.49,-82.54 422.49,-97.46 404.05,-108 377.95,-108 359.51,-97.46 359.51,-82.54 377.95,-72 404.05,-72 422.49,-82.54"/>
<text text-anchor="middle" x="391" y="-87.8" font-family="Times,serif" font-size="9.00">Sequence</text>
</g>
<!-- pick 0! -->
<g id="node2" class="node">
<title>pick 0!</title>
<ellipse fill="gray" stroke="black" cx="27" cy="-18" rx="27" ry="18"/>
<text text-anchor="middle" x="27" y="-15.8" font-family="Times,serif" font-size="9.00">pick 0!</text>
</g>
<!-- Sequence&#45;&gt;pick 0! -->
<g id="edge1" class="edge">
<title>Sequence&#45;&gt;pick 0!</title>
<path fill="none" stroke="black" d="M359.58,-86.87C300.39,-82.21 168.78,-68.8 63,-36 61.07,-35.4 59.11,-34.72 57.15,-33.98"/>
<polygon fill="black" stroke="black" points="58.12,-30.58 47.54,-29.91 55.39,-37.03 58.12,-30.58"/>
</g>
<!-- place at (0.0, 0.05, 0.0)! -->
<g id="node3" class="node">
<title>place at (0.0, 0.05, 0.0)!</title>
<ellipse fill="gray" stroke="black" cx="130" cy="-18" rx="58.13" ry="18"/>
<text text-anchor="middle" x="130" y="-15.8" font-family="Times,serif" font-size="9.00">place at (0.0, 0.05, 0.0)!</text>
</g>
<!-- Sequence&#45;&gt;place at (0.0, 0.05, 0.0)! -->
<g id="edge2" class="edge">
<title>Sequence&#45;&gt;place at (0.0, 0.05, 0.0)!</title>
<path fill="none" stroke="black" d="M361.82,-81.17C318.49,-69.55 236.47,-47.55 182.52,-33.09"/>
<polygon fill="black" stroke="black" points="183.35,-29.69 172.79,-30.48 181.54,-36.45 183.35,-29.69"/>
</g>
<!-- pick 0!* -->
<g id="node4" class="node">
<title>pick 0!*</title>
<ellipse fill="gray" stroke="black" cx="233" cy="-18" rx="27" ry="18"/>
<text text-anchor="middle" x="233" y="-15.8" font-family="Times,serif" font-size="9.00">pick 0!*</text>
</g>
<!-- Sequence&#45;&gt;pick 0!* -->
<g id="edge3" class="edge">
<title>Sequence&#45;&gt;pick 0!*</title>
<path fill="none" stroke="black" d="M366.13,-78.47C341.41,-67.93 302.44,-51.16 269,-36 267.21,-35.19 265.36,-34.34 263.51,-33.49"/>
<polygon fill="black" stroke="black" points="264.81,-30.23 254.27,-29.18 261.85,-36.58 264.81,-30.23"/>
</g>
<!-- 0 at pos (0.0, 0.05, 0.0)? -->
<g id="node5" class="node">
<title>0 at pos (0.0, 0.05, 0.0)?</title>
<ellipse fill="gray" stroke="black" cx="338" cy="-18" rx="60.09" ry="18"/>
<text text-anchor="middle" x="338" y="-15.8" font-family="Times,serif" font-size="9.00">0 at pos (0.0, 0.05, 0.0)?</text>
</g>
<!-- Sequence&#45;&gt;0 at pos (0.0, 0.05, 0.0)? -->
<g id="edge4" class="edge">
<title>Sequence&#45;&gt;0 at pos (0.0, 0.05, 0.0)?</title>
<path fill="none" stroke="black" d="M377.9,-71.7C371.52,-63.27 363.72,-52.97 356.73,-43.73"/>
<polygon fill="black" stroke="black" points="359.41,-41.48 350.59,-35.62 353.83,-45.71 359.41,-41.48"/>
</g>
<!-- pick 0!** -->
<g id="node6" class="node">
<title>pick 0!**</title>
<ellipse fill="gray" stroke="black" cx="445" cy="-18" rx="28.74" ry="18"/>
<text text-anchor="middle" x="445" y="-15.8" font-family="Times,serif" font-size="9.00">pick 0!**</text>
</g>
<!-- Sequence&#45;&gt;pick 0!** -->
<g id="edge5" class="edge">
<title>Sequence&#45;&gt;pick 0!**</title>
<path fill="none" stroke="black" d="M404.35,-71.7C411.11,-62.93 419.43,-52.15 426.77,-42.63"/>
<polygon fill="black" stroke="black" points="429.57,-44.73 432.91,-34.67 424.03,-40.45 429.57,-44.73"/>
</g>
<!-- place at (0.0, 0.05, 0.0)!* -->
<g id="node7" class="node">
<title>place at (0.0, 0.05, 0.0)!*</title>
<ellipse fill="gray" stroke="black" cx="553" cy="-18" rx="61.4" ry="18"/>
<text text-anchor="middle" x="553" y="-15.8" font-family="Times,serif" font-size="9.00">place at (0.0, 0.05, 0.0)!*</text>
</g>
<!-- Sequence&#45;&gt;place at (0.0, 0.05, 0.0)!* -->
<g id="edge6" class="edge">
<title>Sequence&#45;&gt;place at (0.0, 0.05, 0.0)!*</title>
<path fill="none" stroke="black" d="M415.6,-78.37C440.76,-67.5 480.33,-50.4 510.56,-37.34"/>
<polygon fill="black" stroke="black" points="512.22,-40.43 520.01,-33.25 509.45,-34.01 512.22,-40.43"/>
</g>
<!-- place at (0.0, 0.05, 0.0)!** -->
<g id="node8" class="node">
<title>place at (0.0, 0.05, 0.0)!**</title>
<ellipse fill="gray" stroke="black" cx="696" cy="-18" rx="63.52" ry="18"/>
<text text-anchor="middle" x="696" y="-15.8" font-family="Times,serif" font-size="9.00">place at (0.0, 0.05, 0.0)!**</text>
</g>
<!-- Sequence&#45;&gt;place at (0.0, 0.05, 0.0)!** -->
<g id="edge7" class="edge">
<title>Sequence&#45;&gt;place at (0.0, 0.05, 0.0)!**</title>
<path fill="none" stroke="black" d="M421.78,-82.01C466.22,-71.91 550.94,-52.62 623,-36 628.02,-34.84 633.24,-33.63 638.47,-32.42"/>
<polygon fill="black" stroke="black" points="639.54,-35.77 648.49,-30.09 637.96,-28.95 639.54,-35.77"/>
</g>
<!-- pick 0!*** -->
<g id="node9" class="node">
<title>pick 0!***</title>
<ellipse fill="gray" stroke="black" cx="809" cy="-18" rx="31.51" ry="18"/>
<text text-anchor="middle" x="809" y="-15.8" font-family="Times,serif" font-size="9.00">pick 0!***</text>
</g>
<!-- Sequence&#45;&gt;pick 0!*** -->
<g id="edge8" class="edge">
<title>Sequence&#45;&gt;pick 0!***</title>
<path fill="none" stroke="black" d="M422.43,-87.38C487.96,-83.41 643.52,-70.81 769,-36 771.27,-35.37 773.58,-34.64 775.89,-33.85"/>
<polygon fill="black" stroke="black" points="777.14,-37.11 785.25,-30.3 774.66,-30.57 777.14,-37.11"/>
</g>
</g>
</svg>
