<?xml version="1.0" encoding="UTF-8" standalone="no"?>
<!DOCTYPE svg PUBLIC "-//W3C//DTD SVG 1.1//EN"
 "http://www.w3.org/Graphics/SVG/1.1/DTD/svg11.dtd">
<!-- Generated by graphviz version 2.43.0 (0)
 -->
<!-- Title: pastafarianism Pages: 1 -->
<svg width="395pt" height="188pt"
 viewBox="0.00 0.00 395.11 188.00" xmlns="http://www.w3.org/2000/svg" xmlns:xlink="http://www.w3.org/1999/xlink">
<g id="graph0" class="graph" transform="scale(1 1) rotate(0) translate(4 184)">
<title>pastafarianism</title>
<polygon fill="white" stroke="transparent" points="-4,4 -4,-184 391.11,-184 391.11,4 -4,4"/>
<!-- Sequence -->
<g id="node1" class="node">
<title>Sequence</title>
<polygon fill="cyan" stroke="black" points="181.49,-154.54 181.49,-169.46 163.05,-180 136.95,-180 118.51,-169.46 118.51,-154.54 136.95,-144 163.05,-144 181.49,-154.54"/>
<text text-anchor="middle" x="150" y="-159.8" font-family="Times,serif" font-size="9.00">Sequence</text>
</g>
<!-- pick 0! -->
<g id="node2" class="node">
<title>pick 0!</title>
<ellipse fill="gray" stroke="black" cx="27" cy="-90" rx="27" ry="18"/>
<text text-anchor="middle" x="27" y="-87.8" font-family="Times,serif" font-size="9.00">pick 0!</text>
</g>
<!-- Sequence&#45;&gt;pick 0! -->
<g id="edge1" class="edge">
<title>Sequence&#45;&gt;pick 0!</title>
<path fill="none" stroke="black" d="M128.29,-148.65C108.14,-137.18 77.99,-120.02 55.82,-107.4"/>
<polygon fill="black" stroke="black" points="57.29,-104.21 46.86,-102.3 53.82,-110.29 57.29,-104.21"/>
</g>
<!-- pick 0!* -->
<g id="node3" class="node">
<title>pick 0!*</title>
<ellipse fill="gray" stroke="black" cx="99" cy="-90" rx="27" ry="18"/>
<text text-anchor="middle" x="99" y="-87.8" font-family="Times,serif" font-size="9.00">pick 0!*</text>
</g>
<!-- Sequence&#45;&gt;pick 0!* -->
<g id="edge2" class="edge">
<title>Sequence&#45;&gt;pick 0!*</title>
<path fill="none" stroke="black" d="M137.39,-143.7C131.07,-135.02 123.31,-124.37 116.43,-114.92"/>
<polygon fill="black" stroke="black" points="119.14,-112.69 110.42,-106.67 113.48,-116.81 119.14,-112.69"/>
</g>
<!-- place at (0.0, 0.05, 0.0)! -->
<g id="node4" class="node">
<title>place at (0.0, 0.05, 0.0)!</title>
<ellipse fill="gray" stroke="black" cx="202" cy="-90" rx="58.13" ry="18"/>
<text text-anchor="middle" x="202" y="-87.8" font-family="Times,serif" font-size="9.00">place at (0.0, 0.05, 0.0)!</text>
</g>
<!-- Sequence&#45;&gt;place at (0.0, 0.05, 0.0)! -->
<g id="edge3" class="edge">
<title>Sequence&#45;&gt;place at (0.0, 0.05, 0.0)!</title>
<path fill="none" stroke="black" d="M162.85,-143.7C169.12,-135.27 176.76,-124.97 183.63,-115.73"/>
<polygon fill="black" stroke="black" points="186.5,-117.74 189.65,-107.62 180.88,-113.56 186.5,-117.74"/>
</g>
<!-- Fallback -->
<g id="node5" class="node">
<title>Fallback</title>
<polygon fill="cyan" stroke="black" points="337.24,-82.54 337.24,-97.46 320.11,-108 295.89,-108 278.76,-97.46 278.76,-82.54 295.89,-72 320.11,-72 337.24,-82.54"/>
<text text-anchor="middle" x="308" y="-87.8" font-family="Times,serif" font-size="9.00">Fallback</text>
</g>
<!-- Sequence&#45;&gt;Fallback -->
<g id="edge4" class="edge">
<title>Sequence&#45;&gt;Fallback</title>
<path fill="none" stroke="black" d="M174.34,-150.22C201.45,-138.21 245.39,-118.74 275.43,-105.43"/>
<polygon fill="black" stroke="black" points="276.94,-108.59 284.66,-101.34 274.1,-102.19 276.94,-108.59"/>
</g>
<!-- 2 on 1? -->
<g id="node6" class="node">
<title>2 on 1?</title>
<ellipse fill="gray" stroke="black" cx="266" cy="-18" rx="27" ry="18"/>
<text text-anchor="middle" x="266" y="-15.8" font-family="Times,serif" font-size="9.00">2 on 1?</text>
</g>
<!-- Fallback&#45;&gt;2 on 1? -->
<g id="edge5" class="edge">
<title>Fallback&#45;&gt;2 on 1?</title>
<path fill="none" stroke="black" d="M297.62,-71.7C292.59,-63.32 286.46,-53.1 280.94,-43.9"/>
<polygon fill="black" stroke="black" points="283.83,-41.92 275.69,-35.14 277.83,-45.52 283.83,-41.92"/>
</g>
<!-- apply force 0! -->
<g id="node7" class="node">
<title>apply force 0!</title>
<ellipse fill="gray" stroke="black" cx="349" cy="-18" rx="38.21" ry="18"/>
<text text-anchor="middle" x="349" y="-15.8" font-family="Times,serif" font-size="9.00">apply force 0!</text>
</g>
<!-- Fallback&#45;&gt;apply force 0! -->
<g id="edge6" class="edge">
<title>Fallback&#45;&gt;apply force 0!</title>
<path fill="none" stroke="black" d="M318.13,-71.7C322.97,-63.44 328.85,-53.39 334.18,-44.3"/>
<polygon fill="black" stroke="black" points="337.23,-46.02 339.26,-35.62 331.19,-42.48 337.23,-46.02"/>
</g>
</g>
</svg>
