<?xml version="1.0" encoding="UTF-8" standalone="no"?>
<!DOCTYPE svg PUBLIC "-//W3C//DTD SVG 1.1//EN"
 "http://www.w3.org/Graphics/SVG/1.1/DTD/svg11.dtd">
<!-- Generated by graphviz version 2.43.0 (0)
 -->
<!-- Title: pastafarianism Pages: 1 -->
<svg width="934pt" height="404pt"
 viewBox="0.00 0.00 934.22 404.00" xmlns="http://www.w3.org/2000/svg" xmlns:xlink="http://www.w3.org/1999/xlink">
<g id="graph0" class="graph" transform="scale(1 1) rotate(0) translate(4 400)">
<title>pastafarianism</title>
<polygon fill="white" stroke="transparent" points="-4,4 -4,-400 930.22,-400 930.22,4 -4,4"/>
<!-- Fallback -->
<g id="node1" class="node">
<title>Fallback</title>
<polygon fill="cyan" stroke="black" points="380.01,-370.54 380.01,-385.46 362.88,-396 338.65,-396 321.52,-385.46 321.52,-370.54 338.65,-360 362.88,-360 380.01,-370.54"/>
<text text-anchor="middle" x="350.77" y="-375.8" font-family="Times,serif" font-size="9.00">Fallback</text>
</g>
<!-- Sequence -->
<g id="node2" class="node">
<title>Sequence</title>
<polygon fill="cyan" stroke="black" points="382.26,-298.54 382.26,-313.46 363.81,-324 337.72,-324 319.27,-313.46 319.27,-298.54 337.72,-288 363.81,-288 382.26,-298.54"/>
<text text-anchor="middle" x="350.77" y="-303.8" font-family="Times,serif" font-size="9.00">Sequence</text>
</g>
<!-- Fallback&#45;&gt;Sequence -->
<g id="edge1" class="edge">
<title>Fallback&#45;&gt;Sequence</title>
<path fill="none" stroke="black" d="M350.77,-359.7C350.77,-351.98 350.77,-342.71 350.77,-334.11"/>
<polygon fill="black" stroke="black" points="354.27,-334.1 350.77,-324.1 347.27,-334.1 354.27,-334.1"/>
</g>
<!-- Fallback* -->
<g id="node3" class="node">
<title>Fallback*</title>
<polygon fill="cyan" stroke="black" points="178.51,-226.54 178.51,-241.46 159.91,-252 133.62,-252 115.02,-241.46 115.02,-226.54 133.62,-216 159.91,-216 178.51,-226.54"/>
<text text-anchor="middle" x="146.77" y="-231.8" font-family="Times,serif" font-size="9.00">Fallback*</text>
</g>
<!-- Sequence&#45;&gt;Fallback* -->
<g id="edge2" class="edge">
<title>Sequence&#45;&gt;Fallback*</title>
<path fill="none" stroke="black" d="M322.56,-296.57C289.87,-286.63 234.52,-269.26 187.77,-252 185.51,-251.17 183.19,-250.28 180.87,-249.38"/>
<polygon fill="black" stroke="black" points="181.94,-246.04 171.36,-245.56 179.34,-252.53 181.94,-246.04"/>
</g>
<!-- MoveTo! -->
<g id="node6" class="node">
<title>MoveTo!</title>
<ellipse fill="gray" stroke="black" cx="225.77" cy="-234" rx="28.74" ry="18"/>
<text text-anchor="middle" x="225.77" y="-231.8" font-family="Times,serif" font-size="9.00">MoveTo!</text>
</g>
<!-- Sequence&#45;&gt;MoveTo! -->
<g id="edge5" class="edge">
<title>Sequence&#45;&gt;MoveTo!</title>
<path fill="none" stroke="black" d="M328.99,-292.81C308.58,-281.38 277.91,-264.2 255.3,-251.54"/>
<polygon fill="black" stroke="black" points="256.89,-248.42 246.46,-246.59 253.47,-254.53 256.89,-248.42"/>
</g>
<!-- Fallback** -->
<g id="node7" class="node">
<title>Fallback**</title>
<polygon fill="cyan" stroke="black" points="342.76,-226.54 342.76,-241.46 322.26,-252 293.27,-252 272.77,-241.46 272.77,-226.54 293.27,-216 322.26,-216 342.76,-226.54"/>
<text text-anchor="middle" x="307.77" y="-231.8" font-family="Times,serif" font-size="9.00">Fallback**</text>
</g>
<!-- Sequence&#45;&gt;Fallback** -->
<g id="edge6" class="edge">
<title>Sequence&#45;&gt;Fallback**</title>
<path fill="none" stroke="black" d="M340.14,-287.7C335.14,-279.56 329.07,-269.69 323.55,-260.7"/>
<polygon fill="black" stroke="black" points="326.49,-258.79 318.27,-252.1 320.52,-262.46 326.49,-258.79"/>
</g>
<!-- ReachGoal? -->
<g id="node10" class="node">
<title>ReachGoal?</title>
<ellipse fill="gray" stroke="black" cx="394.77" cy="-234" rx="34.13" ry="18"/>
<text text-anchor="middle" x="394.77" y="-231.8" font-family="Times,serif" font-size="9.00">ReachGoal?</text>
</g>
<!-- Sequence&#45;&gt;ReachGoal? -->
<g id="edge9" class="edge">
<title>Sequence&#45;&gt;ReachGoal?</title>
<path fill="none" stroke="black" d="M361.64,-287.7C366.83,-279.44 373.15,-269.39 378.86,-260.3"/>
<polygon fill="black" stroke="black" points="381.96,-261.95 384.32,-251.62 376.03,-258.23 381.96,-261.95"/>
</g>
<!-- MoveTo!** -->
<g id="node11" class="node">
<title>MoveTo!**</title>
<ellipse fill="gray" stroke="black" cx="480.77" cy="-234" rx="34.13" ry="18"/>
<text text-anchor="middle" x="480.77" y="-231.8" font-family="Times,serif" font-size="9.00">MoveTo!**</text>
</g>
<!-- Sequence&#45;&gt;MoveTo!** -->
<g id="edge10" class="edge">
<title>Sequence&#45;&gt;MoveTo!**</title>
<path fill="none" stroke="black" d="M372.82,-293.13C393.67,-281.9 425.18,-264.93 448.79,-252.22"/>
<polygon fill="black" stroke="black" points="450.58,-255.23 457.73,-247.4 447.26,-249.06 450.58,-255.23"/>
</g>
<!-- Fallback*** -->
<g id="node12" class="node">
<title>Fallback***</title>
<polygon fill="cyan" stroke="black" points="608.26,-226.54 608.26,-241.46 586.29,-252 555.24,-252 533.28,-241.46 533.28,-226.54 555.24,-216 586.29,-216 608.26,-226.54"/>
<text text-anchor="middle" x="570.77" y="-231.8" font-family="Times,serif" font-size="9.00">Fallback***</text>
</g>
<!-- Sequence&#45;&gt;Fallback*** -->
<g id="edge11" class="edge">
<title>Sequence&#45;&gt;Fallback***</title>
<path fill="none" stroke="black" d="M379.37,-296.71C413.79,-286.63 473.26,-268.86 523.77,-252 526.64,-251.04 529.6,-250.03 532.57,-248.99"/>
<polygon fill="black" stroke="black" points="533.75,-252.29 542.01,-245.66 531.42,-245.69 533.75,-252.29"/>
</g>
<!-- NotReadyForSG? -->
<g id="node4" class="node">
<title>NotReadyForSG?</title>
<ellipse fill="gray" stroke="black" cx="46.77" cy="-162" rx="46.53" ry="18"/>
<text text-anchor="middle" x="46.77" y="-159.8" font-family="Times,serif" font-size="9.00">NotReadyForSG?</text>
</g>
<!-- Fallback*&#45;&gt;NotReadyForSG? -->
<g id="edge3" class="edge">
<title>Fallback*&#45;&gt;NotReadyForSG?</title>
<path fill="none" stroke="black" d="M127.01,-219.17C112.7,-209.15 93.09,-195.43 76.84,-184.05"/>
<polygon fill="black" stroke="black" points="78.41,-180.88 68.21,-178.01 74.4,-186.61 78.41,-180.88"/>
</g>
<!-- GetSubGoal! -->
<g id="node5" class="node">
<title>GetSubGoal!</title>
<ellipse fill="gray" stroke="black" cx="148.77" cy="-162" rx="36.9" ry="18"/>
<text text-anchor="middle" x="148.77" y="-159.8" font-family="Times,serif" font-size="9.00">GetSubGoal!</text>
</g>
<!-- Fallback*&#45;&gt;GetSubGoal! -->
<g id="edge4" class="edge">
<title>Fallback*&#45;&gt;GetSubGoal!</title>
<path fill="none" stroke="black" d="M147.26,-215.7C147.48,-207.98 147.75,-198.71 147.99,-190.11"/>
<polygon fill="black" stroke="black" points="151.49,-190.2 148.28,-180.1 144.49,-190 151.49,-190.2"/>
</g>
<!-- GetLk! -->
<g id="node8" class="node">
<title>GetLk!</title>
<ellipse fill="gray" stroke="black" cx="231.77" cy="-162" rx="27" ry="18"/>
<text text-anchor="middle" x="231.77" y="-159.8" font-family="Times,serif" font-size="9.00">GetLk!</text>
</g>
<!-- Fallback**&#45;&gt;GetLk! -->
<g id="edge7" class="edge">
<title>Fallback**&#45;&gt;GetLk!</title>
<path fill="none" stroke="black" d="M290.52,-217.12C279.84,-207.28 266.02,-194.55 254.46,-183.9"/>
<polygon fill="black" stroke="black" points="256.61,-181.13 246.89,-176.93 251.87,-186.28 256.61,-181.13"/>
</g>
<!-- MoveTo!* -->
<g id="node9" class="node">
<title>MoveTo!*</title>
<ellipse fill="gray" stroke="black" cx="308.77" cy="-162" rx="31.51" ry="18"/>
<text text-anchor="middle" x="308.77" y="-159.8" font-family="Times,serif" font-size="9.00">MoveTo!*</text>
</g>
<!-- Fallback**&#45;&gt;MoveTo!* -->
<g id="edge8" class="edge">
<title>Fallback**&#45;&gt;MoveTo!*</title>
<path fill="none" stroke="black" d="M308.01,-215.7C308.12,-207.98 308.26,-198.71 308.38,-190.11"/>
<polygon fill="black" stroke="black" points="311.88,-190.15 308.52,-180.1 304.88,-190.05 311.88,-190.15"/>
</g>
<!-- LkClose? -->
<g id="node13" class="node">
<title>LkClose?</title>
<ellipse fill="gray" stroke="black" cx="387.77" cy="-162" rx="28.74" ry="18"/>
<text text-anchor="middle" x="387.77" y="-159.8" font-family="Times,serif" font-size="9.00">LkClose?</text>
</g>
<!-- Fallback***&#45;&gt;LkClose? -->
<g id="edge12" class="edge">
<title>Fallback***&#45;&gt;LkClose?</title>
<path fill="none" stroke="black" d="M541.66,-222.49C502.6,-208.36 436.82,-184.49 425.77,-180 423.91,-179.25 422.01,-178.46 420.09,-177.65"/>
<polygon fill="black" stroke="black" points="421.13,-174.28 410.56,-173.51 418.34,-180.7 421.13,-174.28"/>
</g>
<!-- Sequence* -->
<g id="node14" class="node">
<title>Sequence*</title>
<polygon fill="cyan" stroke="black" points="503.01,-154.54 503.01,-169.46 482.95,-180 454.58,-180 434.52,-169.46 434.52,-154.54 454.58,-144 482.95,-144 503.01,-154.54"/>
<text text-anchor="middle" x="468.77" y="-159.8" font-family="Times,serif" font-size="9.00">Sequence*</text>
</g>
<!-- Fallback***&#45;&gt;Sequence* -->
<g id="edge13" class="edge">
<title>Fallback***&#45;&gt;Sequence*</title>
<path fill="none" stroke="black" d="M549.63,-218.5C534.52,-208.13 514.02,-194.06 497.44,-182.68"/>
<polygon fill="black" stroke="black" points="499.4,-179.78 489.18,-177.01 495.44,-185.55 499.4,-179.78"/>
</g>
<!-- NotReadyForSG?* -->
<g id="node25" class="node">
<title>NotReadyForSG?*</title>
<ellipse fill="gray" stroke="black" cx="570.77" cy="-162" rx="49.8" ry="18"/>
<text text-anchor="middle" x="570.77" y="-159.8" font-family="Times,serif" font-size="9.00">NotReadyForSG?*</text>
</g>
<!-- Fallback***&#45;&gt;NotReadyForSG?* -->
<g id="edge24" class="edge">
<title>Fallback***&#45;&gt;NotReadyForSG?*</title>
<path fill="none" stroke="black" d="M570.77,-215.7C570.77,-207.98 570.77,-198.71 570.77,-190.11"/>
<polygon fill="black" stroke="black" points="574.27,-190.1 570.77,-180.1 567.27,-190.1 574.27,-190.1"/>
</g>
<!-- GetSubGoal!** -->
<g id="node26" class="node">
<title>GetSubGoal!**</title>
<ellipse fill="gray" stroke="black" cx="680.77" cy="-162" rx="42.29" ry="18"/>
<text text-anchor="middle" x="680.77" y="-159.8" font-family="Times,serif" font-size="9.00">GetSubGoal!**</text>
</g>
<!-- Fallback***&#45;&gt;GetSubGoal!** -->
<g id="edge25" class="edge">
<title>Fallback***&#45;&gt;GetSubGoal!**</title>
<path fill="none" stroke="black" d="M592.76,-219C609.03,-208.65 631.42,-194.4 649.54,-182.87"/>
<polygon fill="black" stroke="black" points="651.49,-185.78 658.05,-177.45 647.74,-179.87 651.49,-185.78"/>
</g>
<!-- ReachGoal?** -->
<g id="node27" class="node">
<title>ReachGoal?**</title>
<ellipse fill="gray" stroke="black" cx="779.77" cy="-162" rx="39.02" ry="18"/>
<text text-anchor="middle" x="779.77" y="-159.8" font-family="Times,serif" font-size="9.00">ReachGoal?**</text>
</g>
<!-- Fallback***&#45;&gt;ReachGoal?** -->
<g id="edge26" class="edge">
<title>Fallback***&#45;&gt;ReachGoal?**</title>
<path fill="none" stroke="black" d="M601.4,-223.14C633.84,-212.65 686.51,-195.46 731.77,-180 734.51,-179.06 737.34,-178.09 740.19,-177.1"/>
<polygon fill="black" stroke="black" points="741.56,-180.32 749.84,-173.71 739.25,-173.72 741.56,-180.32"/>
</g>
<!-- GetSubGoal!*** -->
<g id="node28" class="node">
<title>GetSubGoal!***</title>
<ellipse fill="gray" stroke="black" cx="881.77" cy="-162" rx="44.41" ry="18"/>
<text text-anchor="middle" x="881.77" y="-159.8" font-family="Times,serif" font-size="9.00">GetSubGoal!***</text>
</g>
<!-- Fallback***&#45;&gt;GetSubGoal!*** -->
<g id="edge27" class="edge">
<title>Fallback***&#45;&gt;GetSubGoal!***</title>
<path fill="none" stroke="black" d="M608.5,-226.46C658.84,-217.45 750.6,-200.05 827.77,-180 831.35,-179.07 835.06,-178.04 838.76,-176.97"/>
<polygon fill="black" stroke="black" points="839.93,-180.27 848.5,-174.05 837.92,-173.57 839.93,-180.27"/>
</g>
<!-- Fallback**** -->
<g id="node15" class="node">
<title>Fallback****</title>
<polygon fill="cyan" stroke="black" points="281.51,-82.54 281.51,-97.46 257.64,-108 223.89,-108 200.03,-97.46 200.03,-82.54 223.89,-72 257.64,-72 281.51,-82.54"/>
<text text-anchor="middle" x="240.77" y="-87.8" font-family="Times,serif" font-size="9.00">Fallback****</text>
</g>
<!-- Sequence*&#45;&gt;Fallback**** -->
<g id="edge14" class="edge">
<title>Sequence*&#45;&gt;Fallback****</title>
<path fill="none" stroke="black" d="M442.57,-150.08C437.06,-147.94 431.26,-145.81 425.77,-144 366.37,-124.47 349.57,-126.26 289.77,-108 286.98,-107.15 284.12,-106.24 281.24,-105.31"/>
<polygon fill="black" stroke="black" points="282.09,-101.9 271.49,-102.06 279.87,-108.54 282.09,-101.9"/>
</g>
<!-- LkClose?* -->
<g id="node20" class="node">
<title>LkClose?*</title>
<ellipse fill="gray" stroke="black" cx="330.77" cy="-90" rx="31.51" ry="18"/>
<text text-anchor="middle" x="330.77" y="-87.8" font-family="Times,serif" font-size="9.00">LkClose?*</text>
</g>
<!-- Sequence*&#45;&gt;LkClose?* -->
<g id="edge19" class="edge">
<title>Sequence*&#45;&gt;LkClose?*</title>
<path fill="none" stroke="black" d="M445.04,-148.97C422.36,-137.46 387.98,-120.02 362.85,-107.28"/>
<polygon fill="black" stroke="black" points="364.22,-104.05 353.72,-102.64 361.06,-110.29 364.22,-104.05"/>
</g>
<!-- MoveTo!**** -->
<g id="node21" class="node">
<title>MoveTo!****</title>
<ellipse fill="gray" stroke="black" cx="419.77" cy="-90" rx="39.02" ry="18"/>
<text text-anchor="middle" x="419.77" y="-87.8" font-family="Times,serif" font-size="9.00">MoveTo!****</text>
</g>
<!-- Sequence*&#45;&gt;MoveTo!**** -->
<g id="edge20" class="edge">
<title>Sequence*&#45;&gt;MoveTo!****</title>
<path fill="none" stroke="black" d="M456.65,-143.7C450.81,-135.35 443.69,-125.18 437.28,-116.02"/>
<polygon fill="black" stroke="black" points="440,-113.81 431.4,-107.62 434.27,-117.82 440,-113.81"/>
</g>
<!-- MoveTo!***** -->
<g id="node22" class="node">
<title>MoveTo!*****</title>
<ellipse fill="gray" stroke="black" cx="518.77" cy="-90" rx="42.29" ry="18"/>
<text text-anchor="middle" x="518.77" y="-87.8" font-family="Times,serif" font-size="9.00">MoveTo!*****</text>
</g>
<!-- Sequence*&#45;&gt;MoveTo!***** -->
<g id="edge21" class="edge">
<title>Sequence*&#45;&gt;MoveTo!*****</title>
<path fill="none" stroke="black" d="M481.12,-143.7C487.09,-135.35 494.35,-125.18 500.9,-116.02"/>
<polygon fill="black" stroke="black" points="503.93,-117.79 506.89,-107.62 498.23,-113.73 503.93,-117.79"/>
</g>
<!-- MoveTo!****** -->
<g id="node23" class="node">
<title>MoveTo!******</title>
<ellipse fill="gray" stroke="black" cx="623.77" cy="-90" rx="44.41" ry="18"/>
<text text-anchor="middle" x="623.77" y="-87.8" font-family="Times,serif" font-size="9.00">MoveTo!******</text>
</g>
<!-- Sequence*&#45;&gt;MoveTo!****** -->
<g id="edge22" class="edge">
<title>Sequence*&#45;&gt;MoveTo!******</title>
<path fill="none" stroke="black" d="M494.01,-149.6C518.91,-138.36 557.26,-121.03 585.83,-108.13"/>
<polygon fill="black" stroke="black" points="587.43,-111.25 595.1,-103.94 584.55,-104.87 587.43,-111.25"/>
</g>
<!-- MoveTo!******* -->
<g id="node24" class="node">
<title>MoveTo!*******</title>
<ellipse fill="gray" stroke="black" cx="733.77" cy="-90" rx="47.19" ry="18"/>
<text text-anchor="middle" x="733.77" y="-87.8" font-family="Times,serif" font-size="9.00">MoveTo!*******</text>
</g>
<!-- Sequence*&#45;&gt;MoveTo!******* -->
<g id="edge23" class="edge">
<title>Sequence*&#45;&gt;MoveTo!*******</title>
<path fill="none" stroke="black" d="M494.91,-149.89C500.42,-147.77 506.24,-145.68 511.77,-144 583.57,-122.13 604.08,-126.74 676.77,-108 680.59,-107.01 684.55,-105.94 688.51,-104.83"/>
<polygon fill="black" stroke="black" points="689.66,-108.14 698.31,-102.02 687.73,-101.42 689.66,-108.14"/>
</g>
<!-- GetLk!* -->
<g id="node16" class="node">
<title>GetLk!*</title>
<ellipse fill="gray" stroke="black" cx="111.77" cy="-18" rx="27.27" ry="18"/>
<text text-anchor="middle" x="111.77" y="-15.8" font-family="Times,serif" font-size="9.00">GetLk!*</text>
</g>
<!-- Fallback****&#45;&gt;GetLk!* -->
<g id="edge15" class="edge">
<title>Fallback****&#45;&gt;GetLk!*</title>
<path fill="none" stroke="black" d="M215.89,-75.5C194.53,-63.91 163.7,-47.18 141.12,-34.93"/>
<polygon fill="black" stroke="black" points="142.77,-31.84 132.31,-30.15 139.43,-38 142.77,-31.84"/>
</g>
<!-- MoveTo!*** -->
<g id="node17" class="node">
<title>MoveTo!***</title>
<ellipse fill="gray" stroke="black" cx="193.77" cy="-18" rx="36.9" ry="18"/>
<text text-anchor="middle" x="193.77" y="-15.8" font-family="Times,serif" font-size="9.00">MoveTo!***</text>
</g>
<!-- Fallback****&#45;&gt;MoveTo!*** -->
<g id="edge16" class="edge">
<title>Fallback****&#45;&gt;MoveTo!***</title>
<path fill="none" stroke="black" d="M229.15,-71.7C223.54,-63.35 216.72,-53.18 210.56,-44.02"/>
<polygon fill="black" stroke="black" points="213.41,-41.97 204.93,-35.62 207.59,-45.88 213.41,-41.97"/>
</g>
<!-- GetSubGoal!* -->
<g id="node18" class="node">
<title>GetSubGoal!*</title>
<ellipse fill="gray" stroke="black" cx="287.77" cy="-18" rx="39.02" ry="18"/>
<text text-anchor="middle" x="287.77" y="-15.8" font-family="Times,serif" font-size="9.00">GetSubGoal!*</text>
</g>
<!-- Fallback****&#45;&gt;GetSubGoal!* -->
<g id="edge17" class="edge">
<title>Fallback****&#45;&gt;GetSubGoal!*</title>
<path fill="none" stroke="black" d="M252.38,-71.7C257.99,-63.35 264.81,-53.18 270.97,-44.02"/>
<polygon fill="black" stroke="black" points="273.94,-45.88 276.6,-35.62 268.12,-41.97 273.94,-45.88"/>
</g>
<!-- ReachGoal?* -->
<g id="node19" class="node">
<title>ReachGoal?*</title>
<ellipse fill="gray" stroke="black" cx="381.77" cy="-18" rx="36.9" ry="18"/>
<text text-anchor="middle" x="381.77" y="-15.8" font-family="Times,serif" font-size="9.00">ReachGoal?*</text>
</g>
<!-- Fallback****&#45;&gt;ReachGoal?* -->
<g id="edge18" class="edge">
<title>Fallback****&#45;&gt;ReachGoal?*</title>
<path fill="none" stroke="black" d="M266.96,-76C289.7,-64.71 322.78,-48.28 347.59,-35.96"/>
<polygon fill="black" stroke="black" points="349.26,-39.04 356.66,-31.46 346.15,-32.77 349.26,-39.04"/>
</g>
</g>
</svg>
