<?xml version="1.0" encoding="UTF-8" standalone="no"?>
<!DOCTYPE svg PUBLIC "-//W3C//DTD SVG 1.1//EN"
 "http://www.w3.org/Graphics/SVG/1.1/DTD/svg11.dtd">
<!-- Generated by graphviz version 2.43.0 (0)
 -->
<!-- Title: pastafarianism Pages: 1 -->
<svg width="666pt" height="260pt"
 viewBox="0.00 0.00 665.91 260.00" xmlns="http://www.w3.org/2000/svg" xmlns:xlink="http://www.w3.org/1999/xlink">
<g id="graph0" class="graph" transform="scale(1 1) rotate(0) translate(4 256)">
<title>pastafarianism</title>
<polygon fill="white" stroke="transparent" points="-4,4 -4,-256 661.91,-256 661.91,4 -4,4"/>
<!-- Fallback -->
<g id="node1" class="node">
<title>Fallback</title>
<polygon fill="cyan" stroke="black" points="412.01,-226.54 412.01,-241.46 394.88,-252 370.65,-252 353.52,-241.46 353.52,-226.54 370.65,-216 394.88,-216 412.01,-226.54"/>
<text text-anchor="middle" x="382.77" y="-231.8" font-family="Times,serif" font-size="9.00">Fallback</text>
</g>
<!-- Sequence -->
<g id="node2" class="node">
<title>Sequence</title>
<polygon fill="cyan" stroke="black" points="371.26,-154.54 371.26,-169.46 352.81,-180 326.72,-180 308.27,-169.46 308.27,-154.54 326.72,-144 352.81,-144 371.26,-154.54"/>
<text text-anchor="middle" x="339.77" y="-159.8" font-family="Times,serif" font-size="9.00">Sequence</text>
</g>
<!-- Fallback&#45;&gt;Sequence -->
<g id="edge1" class="edge">
<title>Fallback&#45;&gt;Sequence</title>
<path fill="none" stroke="black" d="M372.14,-215.7C367.14,-207.56 361.07,-197.69 355.55,-188.7"/>
<polygon fill="black" stroke="black" points="358.49,-186.79 350.27,-180.1 352.52,-190.46 358.49,-186.79"/>
</g>
<!-- ReachGoal?* -->
<g id="node12" class="node">
<title>ReachGoal?*</title>
<ellipse fill="gray" stroke="black" cx="425.77" cy="-162" rx="36.9" ry="18"/>
<text text-anchor="middle" x="425.77" y="-159.8" font-family="Times,serif" font-size="9.00">ReachGoal?*</text>
</g>
<!-- Fallback&#45;&gt;ReachGoal?* -->
<g id="edge11" class="edge">
<title>Fallback&#45;&gt;ReachGoal?*</title>
<path fill="none" stroke="black" d="M393.39,-215.7C398.47,-207.44 404.64,-197.39 410.22,-188.3"/>
<polygon fill="black" stroke="black" points="413.3,-189.98 415.55,-179.62 407.34,-186.31 413.3,-189.98"/>
</g>
<!-- Fallback* -->
<g id="node3" class="node">
<title>Fallback*</title>
<polygon fill="cyan" stroke="black" points="129.51,-82.54 129.51,-97.46 110.91,-108 84.62,-108 66.02,-97.46 66.02,-82.54 84.62,-72 110.91,-72 129.51,-82.54"/>
<text text-anchor="middle" x="97.77" y="-87.8" font-family="Times,serif" font-size="9.00">Fallback*</text>
</g>
<!-- Sequence&#45;&gt;Fallback* -->
<g id="edge2" class="edge">
<title>Sequence&#45;&gt;Fallback*</title>
<path fill="none" stroke="black" d="M308.74,-154.19C268.92,-145.15 197.92,-127.96 138.77,-108 136.49,-107.23 134.15,-106.4 131.81,-105.52"/>
<polygon fill="black" stroke="black" points="132.86,-102.18 122.28,-101.8 130.31,-108.7 132.86,-102.18"/>
</g>
<!-- MoveTo! -->
<g id="node6" class="node">
<title>MoveTo!</title>
<ellipse fill="gray" stroke="black" cx="176.77" cy="-90" rx="28.74" ry="18"/>
<text text-anchor="middle" x="176.77" y="-87.8" font-family="Times,serif" font-size="9.00">MoveTo!</text>
</g>
<!-- Sequence&#45;&gt;MoveTo! -->
<g id="edge5" class="edge">
<title>Sequence&#45;&gt;MoveTo!</title>
<path fill="none" stroke="black" d="M314.8,-150.58C289.53,-140 249.34,-123.06 214.77,-108 212.93,-107.2 211.04,-106.37 209.14,-105.53"/>
<polygon fill="black" stroke="black" points="210.2,-102.18 199.64,-101.32 207.36,-108.58 210.2,-102.18"/>
</g>
<!-- MoveTo!* -->
<g id="node7" class="node">
<title>MoveTo!*</title>
<ellipse fill="gray" stroke="black" cx="255.77" cy="-90" rx="31.51" ry="18"/>
<text text-anchor="middle" x="255.77" y="-87.8" font-family="Times,serif" font-size="9.00">MoveTo!*</text>
</g>
<!-- Sequence&#45;&gt;MoveTo!* -->
<g id="edge6" class="edge">
<title>Sequence&#45;&gt;MoveTo!*</title>
<path fill="none" stroke="black" d="M321.95,-146.15C309.99,-136.18 294.05,-122.9 280.81,-111.87"/>
<polygon fill="black" stroke="black" points="282.9,-109.06 272.98,-105.35 278.42,-114.44 282.9,-109.06"/>
</g>
<!-- ReachGoal? -->
<g id="node8" class="node">
<title>ReachGoal?</title>
<ellipse fill="gray" stroke="black" cx="339.77" cy="-90" rx="34.13" ry="18"/>
<text text-anchor="middle" x="339.77" y="-87.8" font-family="Times,serif" font-size="9.00">ReachGoal?</text>
</g>
<!-- Sequence&#45;&gt;ReachGoal? -->
<g id="edge7" class="edge">
<title>Sequence&#45;&gt;ReachGoal?</title>
<path fill="none" stroke="black" d="M339.77,-143.7C339.77,-135.98 339.77,-126.71 339.77,-118.11"/>
<polygon fill="black" stroke="black" points="343.27,-118.1 339.77,-108.1 336.27,-118.1 343.27,-118.1"/>
</g>
<!-- GetSubGoal!* -->
<g id="node9" class="node">
<title>GetSubGoal!*</title>
<ellipse fill="gray" stroke="black" cx="430.77" cy="-90" rx="39.02" ry="18"/>
<text text-anchor="middle" x="430.77" y="-87.8" font-family="Times,serif" font-size="9.00">GetSubGoal!*</text>
</g>
<!-- Sequence&#45;&gt;GetSubGoal!* -->
<g id="edge8" class="edge">
<title>Sequence&#45;&gt;GetSubGoal!*</title>
<path fill="none" stroke="black" d="M358.18,-146.83C371.12,-136.88 388.65,-123.4 403.24,-112.17"/>
<polygon fill="black" stroke="black" points="405.64,-114.74 411.44,-105.87 401.38,-109.19 405.64,-114.74"/>
</g>
<!-- MoveTo!** -->
<g id="node10" class="node">
<title>MoveTo!**</title>
<ellipse fill="gray" stroke="black" cx="521.77" cy="-90" rx="34.13" ry="18"/>
<text text-anchor="middle" x="521.77" y="-87.8" font-family="Times,serif" font-size="9.00">MoveTo!**</text>
</g>
<!-- Sequence&#45;&gt;MoveTo!** -->
<g id="edge9" class="edge">
<title>Sequence&#45;&gt;MoveTo!**</title>
<path fill="none" stroke="black" d="M364.22,-150.36C369.34,-148.21 374.71,-145.99 379.77,-144 423.33,-126.84 434.99,-124.61 478.77,-108 481.13,-107.1 483.56,-106.17 486.01,-105.22"/>
<polygon fill="black" stroke="black" points="487.39,-108.44 495.43,-101.54 484.84,-101.92 487.39,-108.44"/>
</g>
<!-- GetSubGoal!** -->
<g id="node11" class="node">
<title>GetSubGoal!**</title>
<ellipse fill="gray" stroke="black" cx="615.77" cy="-90" rx="42.29" ry="18"/>
<text text-anchor="middle" x="615.77" y="-87.8" font-family="Times,serif" font-size="9.00">GetSubGoal!**</text>
</g>
<!-- Sequence&#45;&gt;GetSubGoal!** -->
<g id="edge10" class="edge">
<title>Sequence&#45;&gt;GetSubGoal!**</title>
<path fill="none" stroke="black" d="M363.57,-149.92C368.83,-147.74 374.43,-145.63 379.77,-144 459.86,-119.48 483.75,-129.29 564.77,-108 567.97,-107.16 571.27,-106.22 574.57,-105.24"/>
<polygon fill="black" stroke="black" points="575.9,-108.49 584.4,-102.16 573.81,-101.81 575.9,-108.49"/>
</g>
<!-- NotReadyForSG? -->
<g id="node4" class="node">
<title>NotReadyForSG?</title>
<ellipse fill="gray" stroke="black" cx="46.77" cy="-18" rx="46.53" ry="18"/>
<text text-anchor="middle" x="46.77" y="-15.8" font-family="Times,serif" font-size="9.00">NotReadyForSG?</text>
</g>
<!-- Fallback*&#45;&gt;NotReadyForSG? -->
<g id="edge3" class="edge">
<title>Fallback*&#45;&gt;NotReadyForSG?</title>
<path fill="none" stroke="black" d="M85.16,-71.7C79.02,-63.27 71.52,-52.97 64.78,-43.73"/>
<polygon fill="black" stroke="black" points="67.59,-41.64 58.88,-35.62 61.94,-45.77 67.59,-41.64"/>
</g>
<!-- GetSubGoal! -->
<g id="node5" class="node">
<title>GetSubGoal!</title>
<ellipse fill="gray" stroke="black" cx="148.77" cy="-18" rx="36.9" ry="18"/>
<text text-anchor="middle" x="148.77" y="-15.8" font-family="Times,serif" font-size="9.00">GetSubGoal!</text>
</g>
<!-- Fallback*&#45;&gt;GetSubGoal! -->
<g id="edge4" class="edge">
<title>Fallback*&#45;&gt;GetSubGoal!</title>
<path fill="none" stroke="black" d="M110.37,-71.7C116.61,-63.14 124.23,-52.67 131.04,-43.33"/>
<polygon fill="black" stroke="black" points="133.94,-45.29 137,-35.14 128.29,-41.17 133.94,-45.29"/>
</g>
</g>
</svg>
