<?xml version="1.0" encoding="UTF-8" standalone="no"?>
<!DOCTYPE svg PUBLIC "-//W3C//DTD SVG 1.1//EN"
 "http://www.w3.org/Graphics/SVG/1.1/DTD/svg11.dtd">
<!-- Generated by graphviz version 2.43.0 (0)
 -->
<!-- Title: pastafarianism Pages: 1 -->
<svg width="989pt" height="404pt"
 viewBox="0.00 0.00 989.22 404.00" xmlns="http://www.w3.org/2000/svg" xmlns:xlink="http://www.w3.org/1999/xlink">
<g id="graph0" class="graph" transform="scale(1 1) rotate(0) translate(4 400)">
<title>pastafarianism</title>
<polygon fill="white" stroke="transparent" points="-4,4 -4,-400 985.22,-400 985.22,4 -4,4"/>
<!-- Fallback -->
<g id="node1" class="node">
<title>Fallback</title>
<polygon fill="cyan" stroke="black" points="382.01,-370.54 382.01,-385.46 364.88,-396 340.65,-396 323.52,-385.46 323.52,-370.54 340.65,-360 364.88,-360 382.01,-370.54"/>
<text text-anchor="middle" x="352.77" y="-375.8" font-family="Times,serif" font-size="9.00">Fallback</text>
</g>
<!-- Sequence -->
<g id="node2" class="node">
<title>Sequence</title>
<polygon fill="cyan" stroke="black" points="384.26,-298.54 384.26,-313.46 365.81,-324 339.72,-324 321.27,-313.46 321.27,-298.54 339.72,-288 365.81,-288 384.26,-298.54"/>
<text text-anchor="middle" x="352.77" y="-303.8" font-family="Times,serif" font-size="9.00">Sequence</text>
</g>
<!-- Fallback&#45;&gt;Sequence -->
<g id="edge1" class="edge">
<title>Fallback&#45;&gt;Sequence</title>
<path fill="none" stroke="black" d="M352.77,-359.7C352.77,-351.98 352.77,-342.71 352.77,-334.11"/>
<polygon fill="black" stroke="black" points="356.27,-334.1 352.77,-324.1 349.27,-334.1 356.27,-334.1"/>
</g>
<!-- Fallback* -->
<g id="node3" class="node">
<title>Fallback*</title>
<polygon fill="cyan" stroke="black" points="137.51,-226.54 137.51,-241.46 118.91,-252 92.62,-252 74.02,-241.46 74.02,-226.54 92.62,-216 118.91,-216 137.51,-226.54"/>
<text text-anchor="middle" x="105.77" y="-231.8" font-family="Times,serif" font-size="9.00">Fallback*</text>
</g>
<!-- Sequence&#45;&gt;Fallback* -->
<g id="edge2" class="edge">
<title>Sequence&#45;&gt;Fallback*</title>
<path fill="none" stroke="black" d="M321.31,-298.36C280.55,-289.43 207.53,-272.3 146.77,-252 144.48,-251.24 142.15,-250.41 139.81,-249.54"/>
<polygon fill="black" stroke="black" points="140.86,-246.19 130.27,-245.82 138.31,-252.71 140.86,-246.19"/>
</g>
<!-- MoveTo! -->
<g id="node6" class="node">
<title>MoveTo!</title>
<ellipse fill="gray" stroke="black" cx="184.77" cy="-234" rx="28.74" ry="18"/>
<text text-anchor="middle" x="184.77" y="-231.8" font-family="Times,serif" font-size="9.00">MoveTo!</text>
</g>
<!-- Sequence&#45;&gt;MoveTo! -->
<g id="edge5" class="edge">
<title>Sequence&#45;&gt;MoveTo!</title>
<path fill="none" stroke="black" d="M327.25,-294.89C300.96,-284.41 258.85,-267.42 222.77,-252 220.92,-251.21 219.03,-250.39 217.12,-249.56"/>
<polygon fill="black" stroke="black" points="218.18,-246.2 207.62,-245.37 215.36,-252.61 218.18,-246.2"/>
</g>
<!-- ReachGoal? -->
<g id="node7" class="node">
<title>ReachGoal?</title>
<ellipse fill="gray" stroke="black" cx="265.77" cy="-234" rx="34.13" ry="18"/>
<text text-anchor="middle" x="265.77" y="-231.8" font-family="Times,serif" font-size="9.00">ReachGoal?</text>
</g>
<!-- Sequence&#45;&gt;ReachGoal? -->
<g id="edge6" class="edge">
<title>Sequence&#45;&gt;ReachGoal?</title>
<path fill="none" stroke="black" d="M334.74,-290.5C322.37,-280.55 305.77,-267.19 291.95,-256.07"/>
<polygon fill="black" stroke="black" points="293.75,-253.03 283.77,-249.49 289.37,-258.48 293.75,-253.03"/>
</g>
<!-- Fallback** -->
<g id="node8" class="node">
<title>Fallback**</title>
<polygon fill="cyan" stroke="black" points="387.76,-226.54 387.76,-241.46 367.26,-252 338.27,-252 317.77,-241.46 317.77,-226.54 338.27,-216 367.26,-216 387.76,-226.54"/>
<text text-anchor="middle" x="352.77" y="-231.8" font-family="Times,serif" font-size="9.00">Fallback**</text>
</g>
<!-- Sequence&#45;&gt;Fallback** -->
<g id="edge7" class="edge">
<title>Sequence&#45;&gt;Fallback**</title>
<path fill="none" stroke="black" d="M352.77,-287.7C352.77,-279.98 352.77,-270.71 352.77,-262.11"/>
<polygon fill="black" stroke="black" points="356.27,-262.1 352.77,-252.1 349.27,-262.1 356.27,-262.1"/>
</g>
<!-- ReachGoal?* -->
<g id="node11" class="node">
<title>ReachGoal?*</title>
<ellipse fill="gray" stroke="black" cx="442.77" cy="-234" rx="36.9" ry="18"/>
<text text-anchor="middle" x="442.77" y="-231.8" font-family="Times,serif" font-size="9.00">ReachGoal?*</text>
</g>
<!-- Sequence&#45;&gt;ReachGoal?* -->
<g id="edge10" class="edge">
<title>Sequence&#45;&gt;ReachGoal?*</title>
<path fill="none" stroke="black" d="M370.98,-290.83C383.86,-280.82 401.34,-267.22 415.83,-255.95"/>
<polygon fill="black" stroke="black" points="418.22,-258.53 423.96,-249.63 413.92,-253 418.22,-258.53"/>
</g>
<!-- MoveTo!** -->
<g id="node12" class="node">
<title>MoveTo!**</title>
<ellipse fill="gray" stroke="black" cx="531.77" cy="-234" rx="34.13" ry="18"/>
<text text-anchor="middle" x="531.77" y="-231.8" font-family="Times,serif" font-size="9.00">MoveTo!**</text>
</g>
<!-- Sequence&#45;&gt;MoveTo!** -->
<g id="edge11" class="edge">
<title>Sequence&#45;&gt;MoveTo!**</title>
<path fill="none" stroke="black" d="M378.35,-295.07C405.69,-284.45 450.32,-267.09 488.77,-252 491.12,-251.08 493.54,-250.12 495.99,-249.16"/>
<polygon fill="black" stroke="black" points="497.38,-252.37 505.39,-245.45 494.81,-245.86 497.38,-252.37"/>
</g>
<!-- Fallback*** -->
<g id="node13" class="node">
<title>Fallback***</title>
<polygon fill="cyan" stroke="black" points="659.26,-226.54 659.26,-241.46 637.29,-252 606.24,-252 584.28,-241.46 584.28,-226.54 606.24,-216 637.29,-216 659.26,-226.54"/>
<text text-anchor="middle" x="621.77" y="-231.8" font-family="Times,serif" font-size="9.00">Fallback***</text>
</g>
<!-- Sequence&#45;&gt;Fallback*** -->
<g id="edge12" class="edge">
<title>Sequence&#45;&gt;Fallback***</title>
<path fill="none" stroke="black" d="M384.31,-298.64C427.62,-289.64 507.76,-272.05 574.77,-252 577.66,-251.13 580.65,-250.19 583.63,-249.2"/>
<polygon fill="black" stroke="black" points="584.78,-252.5 593.1,-245.95 582.51,-245.88 584.78,-252.5"/>
</g>
<!-- NotReadyForSG? -->
<g id="node4" class="node">
<title>NotReadyForSG?</title>
<ellipse fill="gray" stroke="black" cx="46.77" cy="-162" rx="46.53" ry="18"/>
<text text-anchor="middle" x="46.77" y="-159.8" font-family="Times,serif" font-size="9.00">NotReadyForSG?</text>
</g>
<!-- Fallback*&#45;&gt;NotReadyForSG? -->
<g id="edge3" class="edge">
<title>Fallback*&#45;&gt;NotReadyForSG?</title>
<path fill="none" stroke="black" d="M91.78,-216.41C84.44,-207.69 75.29,-196.85 67.17,-187.21"/>
<polygon fill="black" stroke="black" points="69.77,-184.86 60.65,-179.47 64.42,-189.37 69.77,-184.86"/>
</g>
<!-- GetSubGoal! -->
<g id="node5" class="node">
<title>GetSubGoal!</title>
<ellipse fill="gray" stroke="black" cx="148.77" cy="-162" rx="36.9" ry="18"/>
<text text-anchor="middle" x="148.77" y="-159.8" font-family="Times,serif" font-size="9.00">GetSubGoal!</text>
</g>
<!-- Fallback*&#45;&gt;GetSubGoal! -->
<g id="edge4" class="edge">
<title>Fallback*&#45;&gt;GetSubGoal!</title>
<path fill="none" stroke="black" d="M116.39,-215.7C121.47,-207.44 127.64,-197.39 133.22,-188.3"/>
<polygon fill="black" stroke="black" points="136.3,-189.98 138.55,-179.62 130.34,-186.31 136.3,-189.98"/>
</g>
<!-- GetLk! -->
<g id="node9" class="node">
<title>GetLk!</title>
<ellipse fill="gray" stroke="black" cx="277.77" cy="-162" rx="27" ry="18"/>
<text text-anchor="middle" x="277.77" y="-159.8" font-family="Times,serif" font-size="9.00">GetLk!</text>
</g>
<!-- Fallback**&#45;&gt;GetLk! -->
<g id="edge8" class="edge">
<title>Fallback**&#45;&gt;GetLk!</title>
<path fill="none" stroke="black" d="M335.75,-217.12C325.35,-207.41 311.93,-194.89 300.62,-184.33"/>
<polygon fill="black" stroke="black" points="302.88,-181.66 293.19,-177.39 298.11,-186.77 302.88,-181.66"/>
</g>
<!-- MoveTo!* -->
<g id="node10" class="node">
<title>MoveTo!*</title>
<ellipse fill="gray" stroke="black" cx="354.77" cy="-162" rx="31.51" ry="18"/>
<text text-anchor="middle" x="354.77" y="-159.8" font-family="Times,serif" font-size="9.00">MoveTo!*</text>
</g>
<!-- Fallback**&#45;&gt;MoveTo!* -->
<g id="edge9" class="edge">
<title>Fallback**&#45;&gt;MoveTo!*</title>
<path fill="none" stroke="black" d="M353.26,-215.7C353.48,-207.98 353.75,-198.71 353.99,-190.11"/>
<polygon fill="black" stroke="black" points="357.49,-190.2 354.28,-180.1 350.49,-190 357.49,-190.2"/>
</g>
<!-- LkClose? -->
<g id="node14" class="node">
<title>LkClose?</title>
<ellipse fill="gray" stroke="black" cx="436.77" cy="-162" rx="28.74" ry="18"/>
<text text-anchor="middle" x="436.77" y="-159.8" font-family="Times,serif" font-size="9.00">LkClose?</text>
</g>
<!-- Fallback***&#45;&gt;LkClose? -->
<g id="edge13" class="edge">
<title>Fallback***&#45;&gt;LkClose?</title>
<path fill="none" stroke="black" d="M592.68,-222.47C586.76,-220.33 580.56,-218.09 574.77,-216 530.33,-199.97 518.58,-197.66 474.77,-180 472.91,-179.25 471,-178.46 469.09,-177.66"/>
<polygon fill="black" stroke="black" points="470.12,-174.29 459.55,-173.53 467.34,-180.71 470.12,-174.29"/>
</g>
<!-- Sequence* -->
<g id="node15" class="node">
<title>Sequence*</title>
<polygon fill="cyan" stroke="black" points="552.01,-154.54 552.01,-169.46 531.95,-180 503.58,-180 483.52,-169.46 483.52,-154.54 503.58,-144 531.95,-144 552.01,-154.54"/>
<text text-anchor="middle" x="517.77" y="-159.8" font-family="Times,serif" font-size="9.00">Sequence*</text>
</g>
<!-- Fallback***&#45;&gt;Sequence* -->
<g id="edge14" class="edge">
<title>Fallback***&#45;&gt;Sequence*</title>
<path fill="none" stroke="black" d="M600.47,-218.67C584.98,-208.24 563.84,-194.01 546.81,-182.55"/>
<polygon fill="black" stroke="black" points="548.58,-179.52 538.33,-176.84 544.67,-185.33 548.58,-179.52"/>
</g>
<!-- NotReadyForSG?* -->
<g id="node26" class="node">
<title>NotReadyForSG?*</title>
<ellipse fill="gray" stroke="black" cx="619.77" cy="-162" rx="49.8" ry="18"/>
<text text-anchor="middle" x="619.77" y="-159.8" font-family="Times,serif" font-size="9.00">NotReadyForSG?*</text>
</g>
<!-- Fallback***&#45;&gt;NotReadyForSG?* -->
<g id="edge25" class="edge">
<title>Fallback***&#45;&gt;NotReadyForSG?*</title>
<path fill="none" stroke="black" d="M621.27,-215.7C621.05,-207.98 620.79,-198.71 620.54,-190.11"/>
<polygon fill="black" stroke="black" points="624.04,-190 620.25,-180.1 617.04,-190.2 624.04,-190"/>
</g>
<!-- GetSubGoal!** -->
<g id="node27" class="node">
<title>GetSubGoal!**</title>
<ellipse fill="gray" stroke="black" cx="729.77" cy="-162" rx="42.29" ry="18"/>
<text text-anchor="middle" x="729.77" y="-159.8" font-family="Times,serif" font-size="9.00">GetSubGoal!**</text>
</g>
<!-- Fallback***&#45;&gt;GetSubGoal!** -->
<g id="edge26" class="edge">
<title>Fallback***&#45;&gt;GetSubGoal!**</title>
<path fill="none" stroke="black" d="M643.62,-218.83C659.47,-208.56 681.13,-194.52 698.77,-183.09"/>
<polygon fill="black" stroke="black" points="701.08,-185.76 707.57,-177.38 697.28,-179.89 701.08,-185.76"/>
</g>
<!-- ReachGoal?*** -->
<g id="node28" class="node">
<title>ReachGoal?***</title>
<ellipse fill="gray" stroke="black" cx="831.77" cy="-162" rx="42.29" ry="18"/>
<text text-anchor="middle" x="831.77" y="-159.8" font-family="Times,serif" font-size="9.00">ReachGoal?***</text>
</g>
<!-- Fallback***&#45;&gt;ReachGoal?*** -->
<g id="edge27" class="edge">
<title>Fallback***&#45;&gt;ReachGoal?***</title>
<path fill="none" stroke="black" d="M651.85,-222.97C688.1,-210.89 749.21,-190.52 790.01,-176.92"/>
<polygon fill="black" stroke="black" points="791.29,-180.18 799.67,-173.7 789.07,-173.54 791.29,-180.18"/>
</g>
<!-- GetSubGoal!*** -->
<g id="node29" class="node">
<title>GetSubGoal!***</title>
<ellipse fill="gray" stroke="black" cx="936.77" cy="-162" rx="44.41" ry="18"/>
<text text-anchor="middle" x="936.77" y="-159.8" font-family="Times,serif" font-size="9.00">GetSubGoal!***</text>
</g>
<!-- Fallback***&#45;&gt;GetSubGoal!*** -->
<g id="edge28" class="edge">
<title>Fallback***&#45;&gt;GetSubGoal!***</title>
<path fill="none" stroke="black" d="M659.65,-226.59C710.69,-217.67 804.2,-200.29 882.77,-180 886.35,-179.07 890.06,-178.05 893.77,-176.98"/>
<polygon fill="black" stroke="black" points="894.93,-180.29 903.51,-174.07 892.92,-173.58 894.93,-180.29"/>
</g>
<!-- Fallback**** -->
<g id="node16" class="node">
<title>Fallback****</title>
<polygon fill="cyan" stroke="black" points="330.51,-82.54 330.51,-97.46 306.64,-108 272.89,-108 249.03,-97.46 249.03,-82.54 272.89,-72 306.64,-72 330.51,-82.54"/>
<text text-anchor="middle" x="289.77" y="-87.8" font-family="Times,serif" font-size="9.00">Fallback****</text>
</g>
<!-- Sequence*&#45;&gt;Fallback**** -->
<g id="edge15" class="edge">
<title>Sequence*&#45;&gt;Fallback****</title>
<path fill="none" stroke="black" d="M491.57,-150.08C486.06,-147.94 480.26,-145.81 474.77,-144 415.37,-124.47 398.57,-126.26 338.77,-108 335.98,-107.15 333.12,-106.24 330.24,-105.31"/>
<polygon fill="black" stroke="black" points="331.09,-101.9 320.49,-102.06 328.87,-108.54 331.09,-101.9"/>
</g>
<!-- LkClose?* -->
<g id="node21" class="node">
<title>LkClose?*</title>
<ellipse fill="gray" stroke="black" cx="379.77" cy="-90" rx="31.51" ry="18"/>
<text text-anchor="middle" x="379.77" y="-87.8" font-family="Times,serif" font-size="9.00">LkClose?*</text>
</g>
<!-- Sequence*&#45;&gt;LkClose?* -->
<g id="edge20" class="edge">
<title>Sequence*&#45;&gt;LkClose?*</title>
<path fill="none" stroke="black" d="M494.04,-148.97C471.36,-137.46 436.98,-120.02 411.85,-107.28"/>
<polygon fill="black" stroke="black" points="413.22,-104.05 402.72,-102.64 410.06,-110.29 413.22,-104.05"/>
</g>
<!-- MoveTo!**** -->
<g id="node22" class="node">
<title>MoveTo!****</title>
<ellipse fill="gray" stroke="black" cx="468.77" cy="-90" rx="39.02" ry="18"/>
<text text-anchor="middle" x="468.77" y="-87.8" font-family="Times,serif" font-size="9.00">MoveTo!****</text>
</g>
<!-- Sequence*&#45;&gt;MoveTo!**** -->
<g id="edge21" class="edge">
<title>Sequence*&#45;&gt;MoveTo!****</title>
<path fill="none" stroke="black" d="M505.65,-143.7C499.81,-135.35 492.69,-125.18 486.28,-116.02"/>
<polygon fill="black" stroke="black" points="489,-113.81 480.4,-107.62 483.27,-117.82 489,-113.81"/>
</g>
<!-- MoveTo!***** -->
<g id="node23" class="node">
<title>MoveTo!*****</title>
<ellipse fill="gray" stroke="black" cx="567.77" cy="-90" rx="42.29" ry="18"/>
<text text-anchor="middle" x="567.77" y="-87.8" font-family="Times,serif" font-size="9.00">MoveTo!*****</text>
</g>
<!-- Sequence*&#45;&gt;MoveTo!***** -->
<g id="edge22" class="edge">
<title>Sequence*&#45;&gt;MoveTo!*****</title>
<path fill="none" stroke="black" d="M530.12,-143.7C536.09,-135.35 543.35,-125.18 549.9,-116.02"/>
<polygon fill="black" stroke="black" points="552.93,-117.79 555.89,-107.62 547.23,-113.73 552.93,-117.79"/>
</g>
<!-- MoveTo!****** -->
<g id="node24" class="node">
<title>MoveTo!******</title>
<ellipse fill="gray" stroke="black" cx="672.77" cy="-90" rx="44.41" ry="18"/>
<text text-anchor="middle" x="672.77" y="-87.8" font-family="Times,serif" font-size="9.00">MoveTo!******</text>
</g>
<!-- Sequence*&#45;&gt;MoveTo!****** -->
<g id="edge23" class="edge">
<title>Sequence*&#45;&gt;MoveTo!******</title>
<path fill="none" stroke="black" d="M543.01,-149.6C567.91,-138.36 606.26,-121.03 634.83,-108.13"/>
<polygon fill="black" stroke="black" points="636.43,-111.25 644.1,-103.94 633.55,-104.87 636.43,-111.25"/>
</g>
<!-- MoveTo!******* -->
<g id="node25" class="node">
<title>MoveTo!*******</title>
<ellipse fill="gray" stroke="black" cx="782.77" cy="-90" rx="47.19" ry="18"/>
<text text-anchor="middle" x="782.77" y="-87.8" font-family="Times,serif" font-size="9.00">MoveTo!*******</text>
</g>
<!-- Sequence*&#45;&gt;MoveTo!******* -->
<g id="edge24" class="edge">
<title>Sequence*&#45;&gt;MoveTo!*******</title>
<path fill="none" stroke="black" d="M543.91,-149.89C549.42,-147.77 555.24,-145.68 560.77,-144 632.57,-122.13 653.08,-126.74 725.77,-108 729.59,-107.01 733.55,-105.94 737.51,-104.83"/>
<polygon fill="black" stroke="black" points="738.66,-108.14 747.31,-102.02 736.73,-101.42 738.66,-108.14"/>
</g>
<!-- GetLk!* -->
<g id="node17" class="node">
<title>GetLk!*</title>
<ellipse fill="gray" stroke="black" cx="160.77" cy="-18" rx="27.27" ry="18"/>
<text text-anchor="middle" x="160.77" y="-15.8" font-family="Times,serif" font-size="9.00">GetLk!*</text>
</g>
<!-- Fallback****&#45;&gt;GetLk!* -->
<g id="edge16" class="edge">
<title>Fallback****&#45;&gt;GetLk!*</title>
<path fill="none" stroke="black" d="M264.89,-75.5C243.53,-63.91 212.7,-47.18 190.12,-34.93"/>
<polygon fill="black" stroke="black" points="191.77,-31.84 181.31,-30.15 188.43,-38 191.77,-31.84"/>
</g>
<!-- MoveTo!*** -->
<g id="node18" class="node">
<title>MoveTo!***</title>
<ellipse fill="gray" stroke="black" cx="242.77" cy="-18" rx="36.9" ry="18"/>
<text text-anchor="middle" x="242.77" y="-15.8" font-family="Times,serif" font-size="9.00">MoveTo!***</text>
</g>
<!-- Fallback****&#45;&gt;MoveTo!*** -->
<g id="edge17" class="edge">
<title>Fallback****&#45;&gt;MoveTo!***</title>
<path fill="none" stroke="black" d="M278.15,-71.7C272.54,-63.35 265.72,-53.18 259.56,-44.02"/>
<polygon fill="black" stroke="black" points="262.41,-41.97 253.93,-35.62 256.59,-45.88 262.41,-41.97"/>
</g>
<!-- GetSubGoal!* -->
<g id="node19" class="node">
<title>GetSubGoal!*</title>
<ellipse fill="gray" stroke="black" cx="336.77" cy="-18" rx="39.02" ry="18"/>
<text text-anchor="middle" x="336.77" y="-15.8" font-family="Times,serif" font-size="9.00">GetSubGoal!*</text>
</g>
<!-- Fallback****&#45;&gt;GetSubGoal!* -->
<g id="edge18" class="edge">
<title>Fallback****&#45;&gt;GetSubGoal!*</title>
<path fill="none" stroke="black" d="M301.38,-71.7C306.99,-63.35 313.81,-53.18 319.97,-44.02"/>
<polygon fill="black" stroke="black" points="322.94,-45.88 325.6,-35.62 317.12,-41.97 322.94,-45.88"/>
</g>
<!-- ReachGoal?** -->
<g id="node20" class="node">
<title>ReachGoal?**</title>
<ellipse fill="gray" stroke="black" cx="433.77" cy="-18" rx="39.02" ry="18"/>
<text text-anchor="middle" x="433.77" y="-15.8" font-family="Times,serif" font-size="9.00">ReachGoal?**</text>
</g>
<!-- Fallback****&#45;&gt;ReachGoal?** -->
<g id="edge19" class="edge">
<title>Fallback****&#45;&gt;ReachGoal?**</title>
<path fill="none" stroke="black" d="M316.18,-76.16C339.22,-64.96 372.83,-48.62 398.23,-36.27"/>
<polygon fill="black" stroke="black" points="400.06,-39.28 407.52,-31.76 397,-32.98 400.06,-39.28"/>
</g>
</g>
</svg>
