<?xml version="1.0" encoding="UTF-8" standalone="no"?>
<!DOCTYPE svg PUBLIC "-//W3C//DTD SVG 1.1//EN"
 "http://www.w3.org/Graphics/SVG/1.1/DTD/svg11.dtd">
<!-- Generated by graphviz version 2.43.0 (0)
 -->
<!-- Title: pastafarianism Pages: 1 -->
<svg width="1147pt" height="332pt"
 viewBox="0.00 0.00 1147.30 332.00" xmlns="http://www.w3.org/2000/svg" xmlns:xlink="http://www.w3.org/1999/xlink">
<g id="graph0" class="graph" transform="scale(1 1) rotate(0) translate(4 328)">
<title>pastafarianism</title>
<polygon fill="white" stroke="transparent" points="-4,4 -4,-328 1143.3,-328 1143.3,4 -4,4"/>
<!-- Sequence -->
<g id="node1" class="node">
<title>Sequence</title>
<polygon fill="cyan" stroke="black" points="567.26,-298.54 567.26,-313.46 548.81,-324 522.72,-324 504.27,-313.46 504.27,-298.54 522.72,-288 548.81,-288 567.26,-298.54"/>
<text text-anchor="middle" x="535.77" y="-303.8" font-family="Times,serif" font-size="9.00">Sequence</text>
</g>
<!-- Fallback -->
<g id="node2" class="node">
<title>Fallback</title>
<polygon fill="cyan" stroke="black" points="565.01,-226.54 565.01,-241.46 547.88,-252 523.65,-252 506.52,-241.46 506.52,-226.54 523.65,-216 547.88,-216 565.01,-226.54"/>
<text text-anchor="middle" x="535.77" y="-231.8" font-family="Times,serif" font-size="9.00">Fallback</text>
</g>
<!-- Sequence&#45;&gt;Fallback -->
<g id="edge1" class="edge">
<title>Sequence&#45;&gt;Fallback</title>
<path fill="none" stroke="black" d="M535.77,-287.7C535.77,-279.98 535.77,-270.71 535.77,-262.11"/>
<polygon fill="black" stroke="black" points="539.27,-262.1 535.77,-252.1 532.27,-262.1 539.27,-262.1"/>
</g>
<!-- ReachGoal? -->
<g id="node3" class="node">
<title>ReachGoal?</title>
<ellipse fill="gray" stroke="black" cx="492.77" cy="-162" rx="34.13" ry="18"/>
<text text-anchor="middle" x="492.77" y="-159.8" font-family="Times,serif" font-size="9.00">ReachGoal?</text>
</g>
<!-- Fallback&#45;&gt;ReachGoal? -->
<g id="edge2" class="edge">
<title>Fallback&#45;&gt;ReachGoal?</title>
<path fill="none" stroke="black" d="M525.14,-215.7C520.06,-207.44 513.89,-197.39 508.31,-188.3"/>
<polygon fill="black" stroke="black" points="511.19,-186.31 502.98,-179.62 505.23,-189.98 511.19,-186.31"/>
</g>
<!-- Sequence* -->
<g id="node4" class="node">
<title>Sequence*</title>
<polygon fill="cyan" stroke="black" points="613.01,-154.54 613.01,-169.46 592.95,-180 564.58,-180 544.52,-169.46 544.52,-154.54 564.58,-144 592.95,-144 613.01,-154.54"/>
<text text-anchor="middle" x="578.77" y="-159.8" font-family="Times,serif" font-size="9.00">Sequence*</text>
</g>
<!-- Fallback&#45;&gt;Sequence* -->
<g id="edge3" class="edge">
<title>Fallback&#45;&gt;Sequence*</title>
<path fill="none" stroke="black" d="M546.39,-215.7C551.39,-207.56 557.46,-197.69 562.98,-188.7"/>
<polygon fill="black" stroke="black" points="566.01,-190.46 568.26,-180.1 560.04,-186.79 566.01,-190.46"/>
</g>
<!-- Fallback* -->
<g id="node5" class="node">
<title>Fallback*</title>
<polygon fill="cyan" stroke="black" points="180.51,-82.54 180.51,-97.46 161.91,-108 135.62,-108 117.02,-97.46 117.02,-82.54 135.62,-72 161.91,-72 180.51,-82.54"/>
<text text-anchor="middle" x="148.77" y="-87.8" font-family="Times,serif" font-size="9.00">Fallback*</text>
</g>
<!-- Sequence*&#45;&gt;Fallback* -->
<g id="edge4" class="edge">
<title>Sequence*&#45;&gt;Fallback*</title>
<path fill="none" stroke="black" d="M553.22,-149.58C547.56,-147.43 541.54,-145.41 535.77,-144 385.59,-107.24 339.63,-146.01 189.77,-108 187.28,-107.37 184.75,-106.62 182.23,-105.78"/>
<polygon fill="black" stroke="black" points="183.24,-102.43 172.65,-102.26 180.83,-109 183.24,-102.43"/>
</g>
<!-- MoveTo! -->
<g id="node9" class="node">
<title>MoveTo!</title>
<ellipse fill="gray" stroke="black" cx="227.77" cy="-90" rx="28.74" ry="18"/>
<text text-anchor="middle" x="227.77" y="-87.8" font-family="Times,serif" font-size="9.00">MoveTo!</text>
</g>
<!-- Sequence*&#45;&gt;MoveTo! -->
<g id="edge8" class="edge">
<title>Sequence*&#45;&gt;MoveTo!</title>
<path fill="none" stroke="black" d="M553.18,-149.71C547.53,-147.55 541.51,-145.5 535.77,-144 418.6,-113.52 382.23,-141.06 265.77,-108 263.48,-107.35 261.15,-106.59 258.83,-105.75"/>
<polygon fill="black" stroke="black" points="260.05,-102.47 249.47,-101.99 257.45,-108.97 260.05,-102.47"/>
</g>
<!-- MoveTo!* -->
<g id="node10" class="node">
<title>MoveTo!*</title>
<ellipse fill="gray" stroke="black" cx="306.77" cy="-90" rx="31.51" ry="18"/>
<text text-anchor="middle" x="306.77" y="-87.8" font-family="Times,serif" font-size="9.00">MoveTo!*</text>
</g>
<!-- Sequence*&#45;&gt;MoveTo!* -->
<g id="edge9" class="edge">
<title>Sequence*&#45;&gt;MoveTo!*</title>
<path fill="none" stroke="black" d="M553.12,-149.95C547.47,-147.78 541.47,-145.66 535.77,-144 454.07,-120.26 429.26,-132.42 347.77,-108 345.31,-107.26 342.8,-106.43 340.3,-105.54"/>
<polygon fill="black" stroke="black" points="341.34,-102.2 330.75,-101.9 338.85,-108.74 341.34,-102.2"/>
</g>
<!-- ReachGoal?* -->
<g id="node11" class="node">
<title>ReachGoal?*</title>
<ellipse fill="gray" stroke="black" cx="393.77" cy="-90" rx="36.9" ry="18"/>
<text text-anchor="middle" x="393.77" y="-87.8" font-family="Times,serif" font-size="9.00">ReachGoal?*</text>
</g>
<!-- Sequence*&#45;&gt;ReachGoal?* -->
<g id="edge10" class="edge">
<title>Sequence*&#45;&gt;ReachGoal?*</title>
<path fill="none" stroke="black" d="M551.96,-150.31C546.6,-148.2 541.01,-146.02 535.77,-144 516.34,-136.54 466.73,-118.07 431.64,-105.04"/>
<polygon fill="black" stroke="black" points="432.76,-101.72 422.17,-101.53 430.32,-108.29 432.76,-101.72"/>
</g>
<!-- Fallback** -->
<g id="node12" class="node">
<title>Fallback**</title>
<polygon fill="cyan" stroke="black" points="518.76,-82.54 518.76,-97.46 498.26,-108 469.27,-108 448.77,-97.46 448.77,-82.54 469.27,-72 498.26,-72 518.76,-82.54"/>
<text text-anchor="middle" x="483.77" y="-87.8" font-family="Times,serif" font-size="9.00">Fallback**</text>
</g>
<!-- Sequence*&#45;&gt;Fallback** -->
<g id="edge11" class="edge">
<title>Sequence*&#45;&gt;Fallback**</title>
<path fill="none" stroke="black" d="M559.08,-146.5C545.32,-136.36 526.76,-122.68 511.51,-111.44"/>
<polygon fill="black" stroke="black" points="513.55,-108.6 503.42,-105.49 509.4,-114.24 513.55,-108.6"/>
</g>
<!-- GetSubGoal!** -->
<g id="node15" class="node">
<title>GetSubGoal!**</title>
<ellipse fill="gray" stroke="black" cx="578.77" cy="-90" rx="42.29" ry="18"/>
<text text-anchor="middle" x="578.77" y="-87.8" font-family="Times,serif" font-size="9.00">GetSubGoal!**</text>
</g>
<!-- Sequence*&#45;&gt;GetSubGoal!** -->
<g id="edge14" class="edge">
<title>Sequence*&#45;&gt;GetSubGoal!**</title>
<path fill="none" stroke="black" d="M578.77,-143.7C578.77,-135.98 578.77,-126.71 578.77,-118.11"/>
<polygon fill="black" stroke="black" points="582.27,-118.1 578.77,-108.1 575.27,-118.1 582.27,-118.1"/>
</g>
<!-- GetSubGoal!*** -->
<g id="node16" class="node">
<title>GetSubGoal!***</title>
<ellipse fill="gray" stroke="black" cx="683.77" cy="-90" rx="44.41" ry="18"/>
<text text-anchor="middle" x="683.77" y="-87.8" font-family="Times,serif" font-size="9.00">GetSubGoal!***</text>
</g>
<!-- Sequence*&#45;&gt;GetSubGoal!*** -->
<g id="edge15" class="edge">
<title>Sequence*&#45;&gt;GetSubGoal!***</title>
<path fill="none" stroke="black" d="M599.51,-147.17C614.78,-136.99 635.79,-122.99 653.01,-111.51"/>
<polygon fill="black" stroke="black" points="655.23,-114.23 661.61,-105.77 651.35,-108.4 655.23,-114.23"/>
</g>
<!-- Fallback*** -->
<g id="node17" class="node">
<title>Fallback***</title>
<polygon fill="cyan" stroke="black" points="821.26,-82.54 821.26,-97.46 799.29,-108 768.24,-108 746.28,-97.46 746.28,-82.54 768.24,-72 799.29,-72 821.26,-82.54"/>
<text text-anchor="middle" x="783.77" y="-87.8" font-family="Times,serif" font-size="9.00">Fallback***</text>
</g>
<!-- Sequence*&#45;&gt;Fallback*** -->
<g id="edge16" class="edge">
<title>Sequence*&#45;&gt;Fallback***</title>
<path fill="none" stroke="black" d="M607.67,-151.53C639.4,-141.08 691.82,-123.66 736.77,-108 739.49,-107.05 742.3,-106.06 745.13,-105.05"/>
<polygon fill="black" stroke="black" points="746.48,-108.29 754.72,-101.63 744.13,-101.7 746.48,-108.29"/>
</g>
<!-- CompLkGraph! -->
<g id="node22" class="node">
<title>CompLkGraph!</title>
<ellipse fill="gray" stroke="black" cx="881.77" cy="-90" rx="42.95" ry="18"/>
<text text-anchor="middle" x="881.77" y="-87.8" font-family="Times,serif" font-size="9.00">CompLkGraph!</text>
</g>
<!-- Sequence*&#45;&gt;CompLkGraph! -->
<g id="edge21" class="edge">
<title>Sequence*&#45;&gt;CompLkGraph!</title>
<path fill="none" stroke="black" d="M613.15,-154.96C661.76,-146.14 753.2,-128.54 829.77,-108 833.12,-107.1 836.59,-106.11 840.05,-105.07"/>
<polygon fill="black" stroke="black" points="841.24,-108.37 849.75,-102.07 839.16,-101.68 841.24,-108.37"/>
</g>
<!-- MoveTo!*** -->
<g id="node23" class="node">
<title>MoveTo!***</title>
<ellipse fill="gray" stroke="black" cx="979.77" cy="-90" rx="36.9" ry="18"/>
<text text-anchor="middle" x="979.77" y="-87.8" font-family="Times,serif" font-size="9.00">MoveTo!***</text>
</g>
<!-- Sequence*&#45;&gt;MoveTo!*** -->
<g id="edge22" class="edge">
<title>Sequence*&#45;&gt;MoveTo!***</title>
<path fill="none" stroke="black" d="M613.25,-158.23C677.24,-152.56 818.33,-137.61 933.77,-108 936.72,-107.24 939.75,-106.36 942.78,-105.41"/>
<polygon fill="black" stroke="black" points="943.97,-108.7 952.33,-102.19 941.73,-102.07 943.97,-108.7"/>
</g>
<!-- GetSubGoal!****** -->
<g id="node24" class="node">
<title>GetSubGoal!******</title>
<ellipse fill="gray" stroke="black" cx="1086.77" cy="-90" rx="52.58" ry="18"/>
<text text-anchor="middle" x="1086.77" y="-87.8" font-family="Times,serif" font-size="9.00">GetSubGoal!******</text>
</g>
<!-- Sequence*&#45;&gt;GetSubGoal!****** -->
<g id="edge23" class="edge">
<title>Sequence*&#45;&gt;GetSubGoal!******</title>
<path fill="none" stroke="black" d="M613.25,-158.73C688.65,-153.36 873.58,-138.04 1025.77,-108 1030.13,-107.14 1034.64,-106.12 1039.14,-105.03"/>
<polygon fill="black" stroke="black" points="1040.09,-108.4 1048.91,-102.52 1038.35,-101.62 1040.09,-108.4"/>
</g>
<!-- NotReadyForSG? -->
<g id="node6" class="node">
<title>NotReadyForSG?</title>
<ellipse fill="gray" stroke="black" cx="46.77" cy="-18" rx="46.53" ry="18"/>
<text text-anchor="middle" x="46.77" y="-15.8" font-family="Times,serif" font-size="9.00">NotReadyForSG?</text>
</g>
<!-- Fallback*&#45;&gt;NotReadyForSG? -->
<g id="edge5" class="edge">
<title>Fallback*&#45;&gt;NotReadyForSG?</title>
<path fill="none" stroke="black" d="M129.1,-75.5C114.41,-65.42 94.05,-51.45 77.26,-39.93"/>
<polygon fill="black" stroke="black" points="79.08,-36.93 68.85,-34.16 75.12,-42.7 79.08,-36.93"/>
</g>
<!-- GetSubGoal! -->
<g id="node7" class="node">
<title>GetSubGoal!</title>
<ellipse fill="gray" stroke="black" cx="148.77" cy="-18" rx="36.9" ry="18"/>
<text text-anchor="middle" x="148.77" y="-15.8" font-family="Times,serif" font-size="9.00">GetSubGoal!</text>
</g>
<!-- Fallback*&#45;&gt;GetSubGoal! -->
<g id="edge6" class="edge">
<title>Fallback*&#45;&gt;GetSubGoal!</title>
<path fill="none" stroke="black" d="M148.77,-71.7C148.77,-63.98 148.77,-54.71 148.77,-46.11"/>
<polygon fill="black" stroke="black" points="152.27,-46.1 148.77,-36.1 145.27,-46.1 152.27,-46.1"/>
</g>
<!-- GetSubGoal!* -->
<g id="node8" class="node">
<title>GetSubGoal!*</title>
<ellipse fill="gray" stroke="black" cx="242.77" cy="-18" rx="39.02" ry="18"/>
<text text-anchor="middle" x="242.77" y="-15.8" font-family="Times,serif" font-size="9.00">GetSubGoal!*</text>
</g>
<!-- Fallback*&#45;&gt;GetSubGoal!* -->
<g id="edge7" class="edge">
<title>Fallback*&#45;&gt;GetSubGoal!*</title>
<path fill="none" stroke="black" d="M167.79,-74.83C181.37,-64.72 199.85,-50.96 215.06,-39.63"/>
<polygon fill="black" stroke="black" points="217.19,-42.41 223.12,-33.63 213.01,-36.79 217.19,-42.41"/>
</g>
<!-- GetLk! -->
<g id="node13" class="node">
<title>GetLk!</title>
<ellipse fill="gray" stroke="black" cx="443.77" cy="-18" rx="27" ry="18"/>
<text text-anchor="middle" x="443.77" y="-15.8" font-family="Times,serif" font-size="9.00">GetLk!</text>
</g>
<!-- Fallback**&#45;&gt;GetLk! -->
<g id="edge12" class="edge">
<title>Fallback**&#45;&gt;GetLk!</title>
<path fill="none" stroke="black" d="M473.88,-71.7C469.09,-63.32 463.25,-53.1 457.99,-43.9"/>
<polygon fill="black" stroke="black" points="460.99,-42.09 452.99,-35.14 454.91,-45.56 460.99,-42.09"/>
</g>
<!-- MoveTo!** -->
<g id="node14" class="node">
<title>MoveTo!**</title>
<ellipse fill="gray" stroke="black" cx="522.77" cy="-18" rx="34.13" ry="18"/>
<text text-anchor="middle" x="522.77" y="-15.8" font-family="Times,serif" font-size="9.00">MoveTo!**</text>
</g>
<!-- Fallback**&#45;&gt;MoveTo!** -->
<g id="edge13" class="edge">
<title>Fallback**&#45;&gt;MoveTo!**</title>
<path fill="none" stroke="black" d="M493.41,-71.7C497.96,-63.52 503.49,-53.6 508.51,-44.58"/>
<polygon fill="black" stroke="black" points="511.69,-46.06 513.5,-35.62 505.58,-42.65 511.69,-46.06"/>
</g>
<!-- NotReadyForSG?* -->
<g id="node18" class="node">
<title>NotReadyForSG?*</title>
<ellipse fill="gray" stroke="black" cx="646.77" cy="-18" rx="49.8" ry="18"/>
<text text-anchor="middle" x="646.77" y="-15.8" font-family="Times,serif" font-size="9.00">NotReadyForSG?*</text>
</g>
<!-- Fallback***&#45;&gt;NotReadyForSG?* -->
<g id="edge17" class="edge">
<title>Fallback***&#45;&gt;NotReadyForSG?*</title>
<path fill="none" stroke="black" d="M758.96,-76.32C737.85,-65.54 707.26,-49.91 683.34,-37.69"/>
<polygon fill="black" stroke="black" points="684.71,-34.46 674.21,-33.02 681.53,-40.69 684.71,-34.46"/>
</g>
<!-- GetSubGoal!**** -->
<g id="node19" class="node">
<title>GetSubGoal!****</title>
<ellipse fill="gray" stroke="black" cx="761.77" cy="-18" rx="47.19" ry="18"/>
<text text-anchor="middle" x="761.77" y="-15.8" font-family="Times,serif" font-size="9.00">GetSubGoal!****</text>
</g>
<!-- Fallback***&#45;&gt;GetSubGoal!**** -->
<g id="edge18" class="edge">
<title>Fallback***&#45;&gt;GetSubGoal!****</title>
<path fill="none" stroke="black" d="M778.33,-71.7C775.88,-63.9 772.93,-54.51 770.2,-45.83"/>
<polygon fill="black" stroke="black" points="773.48,-44.59 767.14,-36.1 766.8,-46.69 773.48,-44.59"/>
</g>
<!-- ReachGoal?** -->
<g id="node20" class="node">
<title>ReachGoal?**</title>
<ellipse fill="gray" stroke="black" cx="866.77" cy="-18" rx="39.02" ry="18"/>
<text text-anchor="middle" x="866.77" y="-15.8" font-family="Times,serif" font-size="9.00">ReachGoal?**</text>
</g>
<!-- Fallback***&#45;&gt;ReachGoal?** -->
<g id="edge19" class="edge">
<title>Fallback***&#45;&gt;ReachGoal?**</title>
<path fill="none" stroke="black" d="M802.6,-73.12C813.98,-63.52 828.63,-51.16 841.07,-40.67"/>
<polygon fill="black" stroke="black" points="843.47,-43.22 848.86,-34.1 838.96,-37.87 843.47,-43.22"/>
</g>
<!-- GetSubGoal!***** -->
<g id="node21" class="node">
<title>GetSubGoal!*****</title>
<ellipse fill="gray" stroke="black" cx="973.77" cy="-18" rx="49.8" ry="18"/>
<text text-anchor="middle" x="973.77" y="-15.8" font-family="Times,serif" font-size="9.00">GetSubGoal!*****</text>
</g>
<!-- Fallback***&#45;&gt;GetSubGoal!***** -->
<g id="edge20" class="edge">
<title>Fallback***&#45;&gt;GetSubGoal!*****</title>
<path fill="none" stroke="black" d="M812.96,-78.2C818.54,-76.14 824.33,-74 829.77,-72 863.64,-59.51 902,-45.39 930.61,-34.87"/>
<polygon fill="black" stroke="black" points="932.12,-38.04 940.3,-31.3 929.71,-31.47 932.12,-38.04"/>
</g>
</g>
</svg>
