<?xml version="1.0" encoding="UTF-8" standalone="no"?>
<!DOCTYPE svg PUBLIC "-//W3C//DTD SVG 1.1//EN"
 "http://www.w3.org/Graphics/SVG/1.1/DTD/svg11.dtd">
<!-- Generated by graphviz version 2.43.0 (0)
 -->
<!-- Title: pastafarianism Pages: 1 -->
<svg width="713pt" height="260pt"
 viewBox="0.00 0.00 712.91 260.00" xmlns="http://www.w3.org/2000/svg" xmlns:xlink="http://www.w3.org/1999/xlink">
<g id="graph0" class="graph" transform="scale(1 1) rotate(0) translate(4 256)">
<title>pastafarianism</title>
<polygon fill="white" stroke="transparent" points="-4,4 -4,-256 708.91,-256 708.91,4 -4,4"/>
<!-- Fallback -->
<g id="node1" class="node">
<title>Fallback</title>
<polygon fill="cyan" stroke="black" points="413.01,-226.54 413.01,-241.46 395.88,-252 371.65,-252 354.52,-241.46 354.52,-226.54 371.65,-216 395.88,-216 413.01,-226.54"/>
<text text-anchor="middle" x="383.77" y="-231.8" font-family="Times,serif" font-size="9.00">Fallback</text>
</g>
<!-- Sequence -->
<g id="node2" class="node">
<title>Sequence</title>
<polygon fill="cyan" stroke="black" points="415.26,-154.54 415.26,-169.46 396.81,-180 370.72,-180 352.27,-169.46 352.27,-154.54 370.72,-144 396.81,-144 415.26,-154.54"/>
<text text-anchor="middle" x="383.77" y="-159.8" font-family="Times,serif" font-size="9.00">Sequence</text>
</g>
<!-- Fallback&#45;&gt;Sequence -->
<g id="edge1" class="edge">
<title>Fallback&#45;&gt;Sequence</title>
<path fill="none" stroke="black" d="M383.77,-215.7C383.77,-207.98 383.77,-198.71 383.77,-190.11"/>
<polygon fill="black" stroke="black" points="387.27,-190.1 383.77,-180.1 380.27,-190.1 387.27,-190.1"/>
</g>
<!-- Fallback* -->
<g id="node3" class="node">
<title>Fallback*</title>
<polygon fill="cyan" stroke="black" points="177.51,-82.54 177.51,-97.46 158.91,-108 132.62,-108 114.02,-97.46 114.02,-82.54 132.62,-72 158.91,-72 177.51,-82.54"/>
<text text-anchor="middle" x="145.77" y="-87.8" font-family="Times,serif" font-size="9.00">Fallback*</text>
</g>
<!-- Sequence&#45;&gt;Fallback* -->
<g id="edge2" class="edge">
<title>Sequence&#45;&gt;Fallback*</title>
<path fill="none" stroke="black" d="M353.02,-154.04C313.94,-144.9 244.6,-127.68 186.77,-108 184.49,-107.23 182.16,-106.39 179.82,-105.51"/>
<polygon fill="black" stroke="black" points="180.87,-102.16 170.28,-101.77 178.32,-108.68 180.87,-102.16"/>
</g>
<!-- MoveTo! -->
<g id="node7" class="node">
<title>MoveTo!</title>
<ellipse fill="gray" stroke="black" cx="224.77" cy="-90" rx="28.74" ry="18"/>
<text text-anchor="middle" x="224.77" y="-87.8" font-family="Times,serif" font-size="9.00">MoveTo!</text>
</g>
<!-- Sequence&#45;&gt;MoveTo! -->
<g id="edge6" class="edge">
<title>Sequence&#45;&gt;MoveTo!</title>
<path fill="none" stroke="black" d="M359.18,-150.3C334.71,-139.63 296.11,-122.76 262.77,-108 260.93,-107.19 259.05,-106.35 257.15,-105.51"/>
<polygon fill="black" stroke="black" points="258.22,-102.15 247.66,-101.28 255.37,-108.55 258.22,-102.15"/>
</g>
<!-- MoveTo!* -->
<g id="node8" class="node">
<title>MoveTo!*</title>
<ellipse fill="gray" stroke="black" cx="303.77" cy="-90" rx="31.51" ry="18"/>
<text text-anchor="middle" x="303.77" y="-87.8" font-family="Times,serif" font-size="9.00">MoveTo!*</text>
</g>
<!-- Sequence&#45;&gt;MoveTo!* -->
<g id="edge7" class="edge">
<title>Sequence&#45;&gt;MoveTo!*</title>
<path fill="none" stroke="black" d="M366.8,-146.15C355.59,-136.34 340.71,-123.33 328.23,-112.41"/>
<polygon fill="black" stroke="black" points="330.26,-109.53 320.43,-105.58 325.65,-114.8 330.26,-109.53"/>
</g>
<!-- LkGraph? -->
<g id="node9" class="node">
<title>LkGraph?</title>
<ellipse fill="gray" stroke="black" cx="383.77" cy="-90" rx="30.7" ry="18"/>
<text text-anchor="middle" x="383.77" y="-87.8" font-family="Times,serif" font-size="9.00">LkGraph?</text>
</g>
<!-- Sequence&#45;&gt;LkGraph? -->
<g id="edge8" class="edge">
<title>Sequence&#45;&gt;LkGraph?</title>
<path fill="none" stroke="black" d="M383.77,-143.7C383.77,-135.98 383.77,-126.71 383.77,-118.11"/>
<polygon fill="black" stroke="black" points="387.27,-118.1 383.77,-108.1 380.27,-118.1 387.27,-118.1"/>
</g>
<!-- ReachGoal?* -->
<g id="node10" class="node">
<title>ReachGoal?*</title>
<ellipse fill="gray" stroke="black" cx="469.77" cy="-90" rx="36.9" ry="18"/>
<text text-anchor="middle" x="469.77" y="-87.8" font-family="Times,serif" font-size="9.00">ReachGoal?*</text>
</g>
<!-- Sequence&#45;&gt;ReachGoal?* -->
<g id="edge9" class="edge">
<title>Sequence&#45;&gt;ReachGoal?*</title>
<path fill="none" stroke="black" d="M401.58,-146.5C413.73,-136.61 430,-123.36 443.61,-112.29"/>
<polygon fill="black" stroke="black" points="446.13,-114.75 451.67,-105.73 441.71,-109.32 446.13,-114.75"/>
</g>
<!-- GetSubGoal!* -->
<g id="node11" class="node">
<title>GetSubGoal!*</title>
<ellipse fill="gray" stroke="black" cx="563.77" cy="-90" rx="39.02" ry="18"/>
<text text-anchor="middle" x="563.77" y="-87.8" font-family="Times,serif" font-size="9.00">GetSubGoal!*</text>
</g>
<!-- Sequence&#45;&gt;GetSubGoal!* -->
<g id="edge10" class="edge">
<title>Sequence&#45;&gt;GetSubGoal!*</title>
<path fill="none" stroke="black" d="M409.55,-150.97C439.85,-139.19 490.42,-119.53 525.34,-105.94"/>
<polygon fill="black" stroke="black" points="526.69,-109.17 534.74,-102.29 524.16,-102.65 526.69,-109.17"/>
</g>
<!-- GetSubGoal!** -->
<g id="node12" class="node">
<title>GetSubGoal!**</title>
<ellipse fill="gray" stroke="black" cx="662.77" cy="-90" rx="42.29" ry="18"/>
<text text-anchor="middle" x="662.77" y="-87.8" font-family="Times,serif" font-size="9.00">GetSubGoal!**</text>
</g>
<!-- Sequence&#45;&gt;GetSubGoal!** -->
<g id="edge11" class="edge">
<title>Sequence&#45;&gt;GetSubGoal!**</title>
<path fill="none" stroke="black" d="M415.35,-154.63C459.58,-145.5 542.34,-127.59 611.77,-108 614.91,-107.11 618.15,-106.15 621.39,-105.15"/>
<polygon fill="black" stroke="black" points="622.61,-108.44 631.08,-102.07 620.49,-101.77 622.61,-108.44"/>
</g>
<!-- NotReadyForSG? -->
<g id="node4" class="node">
<title>NotReadyForSG?</title>
<ellipse fill="gray" stroke="black" cx="46.77" cy="-18" rx="46.53" ry="18"/>
<text text-anchor="middle" x="46.77" y="-15.8" font-family="Times,serif" font-size="9.00">NotReadyForSG?</text>
</g>
<!-- Fallback*&#45;&gt;NotReadyForSG? -->
<g id="edge3" class="edge">
<title>Fallback*&#45;&gt;NotReadyForSG?</title>
<path fill="none" stroke="black" d="M126.21,-75.17C112.13,-65.22 92.89,-51.61 76.86,-40.28"/>
<polygon fill="black" stroke="black" points="78.53,-37.17 68.35,-34.26 74.49,-42.89 78.53,-37.17"/>
</g>
<!-- ReachGoal? -->
<g id="node5" class="node">
<title>ReachGoal?</title>
<ellipse fill="gray" stroke="black" cx="145.77" cy="-18" rx="34.13" ry="18"/>
<text text-anchor="middle" x="145.77" y="-15.8" font-family="Times,serif" font-size="9.00">ReachGoal?</text>
</g>
<!-- Fallback*&#45;&gt;ReachGoal? -->
<g id="edge4" class="edge">
<title>Fallback*&#45;&gt;ReachGoal?</title>
<path fill="none" stroke="black" d="M145.77,-71.7C145.77,-63.98 145.77,-54.71 145.77,-46.11"/>
<polygon fill="black" stroke="black" points="149.27,-46.1 145.77,-36.1 142.27,-46.1 149.27,-46.1"/>
</g>
<!-- GetSubGoal! -->
<g id="node6" class="node">
<title>GetSubGoal!</title>
<ellipse fill="gray" stroke="black" cx="234.77" cy="-18" rx="36.9" ry="18"/>
<text text-anchor="middle" x="234.77" y="-15.8" font-family="Times,serif" font-size="9.00">GetSubGoal!</text>
</g>
<!-- Fallback*&#45;&gt;GetSubGoal! -->
<g id="edge5" class="edge">
<title>Fallback*&#45;&gt;GetSubGoal!</title>
<path fill="none" stroke="black" d="M164.21,-74.5C176.89,-64.52 193.93,-51.11 208.09,-39.98"/>
<polygon fill="black" stroke="black" points="210.35,-42.66 216.04,-33.73 206.02,-37.16 210.35,-42.66"/>
</g>
</g>
</svg>
