<?xml version="1.0" encoding="UTF-8" standalone="no"?>
<!DOCTYPE svg PUBLIC "-//W3C//DTD SVG 1.1//EN"
 "http://www.w3.org/Graphics/SVG/1.1/DTD/svg11.dtd">
<!-- Generated by graphviz version 2.43.0 (0)
 -->
<!-- Title: pastafarianism Pages: 1 -->
<svg width="1047pt" height="404pt"
 viewBox="0.00 0.00 1047.11 404.00" xmlns="http://www.w3.org/2000/svg" xmlns:xlink="http://www.w3.org/1999/xlink">
<g id="graph0" class="graph" transform="scale(1 1) rotate(0) translate(4 400)">
<title>pastafarianism</title>
<polygon fill="white" stroke="transparent" points="-4,4 -4,-400 1043.11,-400 1043.11,4 -4,4"/>
<!-- Fallback -->
<g id="node1" class="node">
<title>Fallback</title>
<polygon fill="cyan" stroke="black" points="381.01,-370.54 381.01,-385.46 363.88,-396 339.65,-396 322.52,-385.46 322.52,-370.54 339.65,-360 363.88,-360 381.01,-370.54"/>
<text text-anchor="middle" x="351.77" y="-375.8" font-family="Times,serif" font-size="9.00">Fallback</text>
</g>
<!-- Sequence -->
<g id="node2" class="node">
<title>Sequence</title>
<polygon fill="cyan" stroke="black" points="383.26,-298.54 383.26,-313.46 364.81,-324 338.72,-324 320.27,-313.46 320.27,-298.54 338.72,-288 364.81,-288 383.26,-298.54"/>
<text text-anchor="middle" x="351.77" y="-303.8" font-family="Times,serif" font-size="9.00">Sequence</text>
</g>
<!-- Fallback&#45;&gt;Sequence -->
<g id="edge1" class="edge">
<title>Fallback&#45;&gt;Sequence</title>
<path fill="none" stroke="black" d="M351.77,-359.7C351.77,-351.98 351.77,-342.71 351.77,-334.11"/>
<polygon fill="black" stroke="black" points="355.27,-334.1 351.77,-324.1 348.27,-334.1 355.27,-334.1"/>
</g>
<!-- Fallback* -->
<g id="node3" class="node">
<title>Fallback*</title>
<polygon fill="cyan" stroke="black" points="179.51,-226.54 179.51,-241.46 160.91,-252 134.62,-252 116.02,-241.46 116.02,-226.54 134.62,-216 160.91,-216 179.51,-226.54"/>
<text text-anchor="middle" x="147.77" y="-231.8" font-family="Times,serif" font-size="9.00">Fallback*</text>
</g>
<!-- Sequence&#45;&gt;Fallback* -->
<g id="edge2" class="edge">
<title>Sequence&#45;&gt;Fallback*</title>
<path fill="none" stroke="black" d="M323.56,-296.57C290.87,-286.63 235.52,-269.26 188.77,-252 186.51,-251.17 184.19,-250.28 181.87,-249.38"/>
<polygon fill="black" stroke="black" points="182.94,-246.04 172.36,-245.56 180.34,-252.53 182.94,-246.04"/>
</g>
<!-- MoveTo! -->
<g id="node6" class="node">
<title>MoveTo!</title>
<ellipse fill="gray" stroke="black" cx="226.77" cy="-234" rx="28.74" ry="18"/>
<text text-anchor="middle" x="226.77" y="-231.8" font-family="Times,serif" font-size="9.00">MoveTo!</text>
</g>
<!-- Sequence&#45;&gt;MoveTo! -->
<g id="edge5" class="edge">
<title>Sequence&#45;&gt;MoveTo!</title>
<path fill="none" stroke="black" d="M329.99,-292.81C309.58,-281.38 278.91,-264.2 256.3,-251.54"/>
<polygon fill="black" stroke="black" points="257.89,-248.42 247.46,-246.59 254.47,-254.53 257.89,-248.42"/>
</g>
<!-- Fallback** -->
<g id="node7" class="node">
<title>Fallback**</title>
<polygon fill="cyan" stroke="black" points="343.76,-226.54 343.76,-241.46 323.26,-252 294.27,-252 273.77,-241.46 273.77,-226.54 294.27,-216 323.26,-216 343.76,-226.54"/>
<text text-anchor="middle" x="308.77" y="-231.8" font-family="Times,serif" font-size="9.00">Fallback**</text>
</g>
<!-- Sequence&#45;&gt;Fallback** -->
<g id="edge6" class="edge">
<title>Sequence&#45;&gt;Fallback**</title>
<path fill="none" stroke="black" d="M341.14,-287.7C336.14,-279.56 330.07,-269.69 324.55,-260.7"/>
<polygon fill="black" stroke="black" points="327.49,-258.79 319.27,-252.1 321.52,-262.46 327.49,-258.79"/>
</g>
<!-- ReachGoal? -->
<g id="node10" class="node">
<title>ReachGoal?</title>
<ellipse fill="gray" stroke="black" cx="395.77" cy="-234" rx="34.13" ry="18"/>
<text text-anchor="middle" x="395.77" y="-231.8" font-family="Times,serif" font-size="9.00">ReachGoal?</text>
</g>
<!-- Sequence&#45;&gt;ReachGoal? -->
<g id="edge9" class="edge">
<title>Sequence&#45;&gt;ReachGoal?</title>
<path fill="none" stroke="black" d="M362.64,-287.7C367.83,-279.44 374.15,-269.39 379.86,-260.3"/>
<polygon fill="black" stroke="black" points="382.96,-261.95 385.32,-251.62 377.03,-258.23 382.96,-261.95"/>
</g>
<!-- MoveTo!** -->
<g id="node11" class="node">
<title>MoveTo!**</title>
<ellipse fill="gray" stroke="black" cx="481.77" cy="-234" rx="34.13" ry="18"/>
<text text-anchor="middle" x="481.77" y="-231.8" font-family="Times,serif" font-size="9.00">MoveTo!**</text>
</g>
<!-- Sequence&#45;&gt;MoveTo!** -->
<g id="edge10" class="edge">
<title>Sequence&#45;&gt;MoveTo!**</title>
<path fill="none" stroke="black" d="M373.82,-293.13C394.67,-281.9 426.18,-264.93 449.79,-252.22"/>
<polygon fill="black" stroke="black" points="451.58,-255.23 458.73,-247.4 448.26,-249.06 451.58,-255.23"/>
</g>
<!-- Fallback*** -->
<g id="node12" class="node">
<title>Fallback***</title>
<polygon fill="cyan" stroke="black" points="663.26,-226.54 663.26,-241.46 641.29,-252 610.24,-252 588.28,-241.46 588.28,-226.54 610.24,-216 641.29,-216 663.26,-226.54"/>
<text text-anchor="middle" x="625.77" y="-231.8" font-family="Times,serif" font-size="9.00">Fallback***</text>
</g>
<!-- Sequence&#45;&gt;Fallback*** -->
<g id="edge11" class="edge">
<title>Sequence&#45;&gt;Fallback***</title>
<path fill="none" stroke="black" d="M381.35,-297.44C429.81,-285.06 526.33,-260.4 582.49,-246.06"/>
<polygon fill="black" stroke="black" points="583.66,-249.37 592.48,-243.5 581.93,-242.59 583.66,-249.37"/>
</g>
<!-- NotReadyForSG? -->
<g id="node4" class="node">
<title>NotReadyForSG?</title>
<ellipse fill="gray" stroke="black" cx="46.77" cy="-162" rx="46.53" ry="18"/>
<text text-anchor="middle" x="46.77" y="-159.8" font-family="Times,serif" font-size="9.00">NotReadyForSG?</text>
</g>
<!-- Fallback*&#45;&gt;NotReadyForSG? -->
<g id="edge3" class="edge">
<title>Fallback*&#45;&gt;NotReadyForSG?</title>
<path fill="none" stroke="black" d="M128.29,-219.5C113.74,-209.42 93.59,-195.45 76.96,-183.93"/>
<polygon fill="black" stroke="black" points="78.85,-180.98 68.63,-178.16 74.86,-186.73 78.85,-180.98"/>
</g>
<!-- GetSubGoal! -->
<g id="node5" class="node">
<title>GetSubGoal!</title>
<ellipse fill="gray" stroke="black" cx="148.77" cy="-162" rx="36.9" ry="18"/>
<text text-anchor="middle" x="148.77" y="-159.8" font-family="Times,serif" font-size="9.00">GetSubGoal!</text>
</g>
<!-- Fallback*&#45;&gt;GetSubGoal! -->
<g id="edge4" class="edge">
<title>Fallback*&#45;&gt;GetSubGoal!</title>
<path fill="none" stroke="black" d="M148.01,-215.7C148.12,-207.98 148.26,-198.71 148.38,-190.11"/>
<polygon fill="black" stroke="black" points="151.88,-190.15 148.52,-180.1 144.88,-190.05 151.88,-190.15"/>
</g>
<!-- GetLk! -->
<g id="node8" class="node">
<title>GetLk!</title>
<ellipse fill="gray" stroke="black" cx="231.77" cy="-162" rx="27" ry="18"/>
<text text-anchor="middle" x="231.77" y="-159.8" font-family="Times,serif" font-size="9.00">GetLk!</text>
</g>
<!-- Fallback**&#45;&gt;GetLk! -->
<g id="edge7" class="edge">
<title>Fallback**&#45;&gt;GetLk!</title>
<path fill="none" stroke="black" d="M291.29,-217.12C280.48,-207.28 266.47,-194.55 254.76,-183.9"/>
<polygon fill="black" stroke="black" points="256.84,-181.06 247.08,-176.93 252.13,-186.24 256.84,-181.06"/>
</g>
<!-- MoveTo!* -->
<g id="node9" class="node">
<title>MoveTo!*</title>
<ellipse fill="gray" stroke="black" cx="308.77" cy="-162" rx="31.51" ry="18"/>
<text text-anchor="middle" x="308.77" y="-159.8" font-family="Times,serif" font-size="9.00">MoveTo!*</text>
</g>
<!-- Fallback**&#45;&gt;MoveTo!* -->
<g id="edge8" class="edge">
<title>Fallback**&#45;&gt;MoveTo!*</title>
<path fill="none" stroke="black" d="M308.77,-215.7C308.77,-207.98 308.77,-198.71 308.77,-190.11"/>
<polygon fill="black" stroke="black" points="312.27,-190.1 308.77,-180.1 305.27,-190.1 312.27,-190.1"/>
</g>
<!-- LkClose? -->
<g id="node13" class="node">
<title>LkClose?</title>
<ellipse fill="gray" stroke="black" cx="387.77" cy="-162" rx="28.74" ry="18"/>
<text text-anchor="middle" x="387.77" y="-159.8" font-family="Times,serif" font-size="9.00">LkClose?</text>
</g>
<!-- Fallback***&#45;&gt;LkClose? -->
<g id="edge12" class="edge">
<title>Fallback***&#45;&gt;LkClose?</title>
<path fill="none" stroke="black" d="M590.2,-225.41C549.79,-216.36 482.15,-199.94 425.77,-180 423.66,-179.26 421.51,-178.44 419.36,-177.59"/>
<polygon fill="black" stroke="black" points="420.6,-174.32 410.03,-173.68 417.9,-180.77 420.6,-174.32"/>
</g>
<!-- Sequence* -->
<g id="node14" class="node">
<title>Sequence*</title>
<polygon fill="cyan" stroke="black" points="503.01,-154.54 503.01,-169.46 482.95,-180 454.58,-180 434.52,-169.46 434.52,-154.54 454.58,-144 482.95,-144 503.01,-154.54"/>
<text text-anchor="middle" x="468.77" y="-159.8" font-family="Times,serif" font-size="9.00">Sequence*</text>
</g>
<!-- Fallback***&#45;&gt;Sequence* -->
<g id="edge13" class="edge">
<title>Fallback***&#45;&gt;Sequence*</title>
<path fill="none" stroke="black" d="M599.13,-221.13C572.72,-209.35 532.14,-191.25 503.27,-178.38"/>
<polygon fill="black" stroke="black" points="504.53,-175.11 493.97,-174.24 501.68,-181.51 504.53,-175.11"/>
</g>
<!-- NotReadyForSG?* -->
<g id="node25" class="node">
<title>NotReadyForSG?*</title>
<ellipse fill="gray" stroke="black" cx="570.77" cy="-162" rx="49.8" ry="18"/>
<text text-anchor="middle" x="570.77" y="-159.8" font-family="Times,serif" font-size="9.00">NotReadyForSG?*</text>
</g>
<!-- Fallback***&#45;&gt;NotReadyForSG?* -->
<g id="edge24" class="edge">
<title>Fallback***&#45;&gt;NotReadyForSG?*</title>
<path fill="none" stroke="black" d="M612.17,-215.7C605.55,-207.27 597.46,-196.97 590.2,-187.73"/>
<polygon fill="black" stroke="black" points="592.76,-185.32 583.83,-179.62 587.25,-189.65 592.76,-185.32"/>
</g>
<!-- GetSubGoal!** -->
<g id="node26" class="node">
<title>GetSubGoal!**</title>
<ellipse fill="gray" stroke="black" cx="680.77" cy="-162" rx="42.29" ry="18"/>
<text text-anchor="middle" x="680.77" y="-159.8" font-family="Times,serif" font-size="9.00">GetSubGoal!**</text>
</g>
<!-- Fallback***&#45;&gt;GetSubGoal!** -->
<g id="edge25" class="edge">
<title>Fallback***&#45;&gt;GetSubGoal!**</title>
<path fill="none" stroke="black" d="M639.36,-215.7C645.99,-207.27 654.07,-196.97 661.33,-187.73"/>
<polygon fill="black" stroke="black" points="664.28,-189.65 667.7,-179.62 658.77,-185.32 664.28,-189.65"/>
</g>
<!-- ReachGoal?** -->
<g id="node27" class="node">
<title>ReachGoal?**</title>
<ellipse fill="gray" stroke="black" cx="779.77" cy="-162" rx="39.02" ry="18"/>
<text text-anchor="middle" x="779.77" y="-159.8" font-family="Times,serif" font-size="9.00">ReachGoal?**</text>
</g>
<!-- Fallback***&#45;&gt;ReachGoal?** -->
<g id="edge26" class="edge">
<title>Fallback***&#45;&gt;ReachGoal?**</title>
<path fill="none" stroke="black" d="M652.24,-220.97C677.39,-209.53 715.43,-192.24 743.42,-179.52"/>
<polygon fill="black" stroke="black" points="745.21,-182.55 752.86,-175.23 742.31,-176.18 745.21,-182.55"/>
</g>
<!-- GetSubGoal!*** -->
<g id="node28" class="node">
<title>GetSubGoal!***</title>
<ellipse fill="gray" stroke="black" cx="881.77" cy="-162" rx="44.41" ry="18"/>
<text text-anchor="middle" x="881.77" y="-159.8" font-family="Times,serif" font-size="9.00">GetSubGoal!***</text>
</g>
<!-- Fallback***&#45;&gt;GetSubGoal!*** -->
<g id="edge27" class="edge">
<title>Fallback***&#45;&gt;GetSubGoal!***</title>
<path fill="none" stroke="black" d="M659.5,-224.68C699.72,-214.64 768.89,-196.98 827.77,-180 831.28,-178.99 834.91,-177.91 838.55,-176.81"/>
<polygon fill="black" stroke="black" points="839.61,-180.14 848.14,-173.86 837.55,-173.45 839.61,-180.14"/>
</g>
<!-- GetSubGoal!**** -->
<g id="node29" class="node">
<title>GetSubGoal!****</title>
<ellipse fill="gray" stroke="black" cx="991.77" cy="-162" rx="47.19" ry="18"/>
<text text-anchor="middle" x="991.77" y="-159.8" font-family="Times,serif" font-size="9.00">GetSubGoal!****</text>
</g>
<!-- Fallback***&#45;&gt;GetSubGoal!**** -->
<g id="edge28" class="edge">
<title>Fallback***&#45;&gt;GetSubGoal!****</title>
<path fill="none" stroke="black" d="M663.63,-228C722.19,-219.93 838.04,-202.63 934.77,-180 938.67,-179.09 942.7,-178.06 946.73,-176.97"/>
<polygon fill="black" stroke="black" points="947.99,-180.26 956.67,-174.19 946.1,-173.52 947.99,-180.26"/>
</g>
<!-- Fallback**** -->
<g id="node15" class="node">
<title>Fallback****</title>
<polygon fill="cyan" stroke="black" points="281.51,-82.54 281.51,-97.46 257.64,-108 223.89,-108 200.03,-97.46 200.03,-82.54 223.89,-72 257.64,-72 281.51,-82.54"/>
<text text-anchor="middle" x="240.77" y="-87.8" font-family="Times,serif" font-size="9.00">Fallback****</text>
</g>
<!-- Sequence*&#45;&gt;Fallback**** -->
<g id="edge14" class="edge">
<title>Sequence*&#45;&gt;Fallback****</title>
<path fill="none" stroke="black" d="M442.57,-150.08C437.06,-147.94 431.26,-145.81 425.77,-144 366.37,-124.47 349.57,-126.26 289.77,-108 286.98,-107.15 284.12,-106.24 281.24,-105.31"/>
<polygon fill="black" stroke="black" points="282.09,-101.9 271.49,-102.06 279.87,-108.54 282.09,-101.9"/>
</g>
<!-- LkClose?* -->
<g id="node20" class="node">
<title>LkClose?*</title>
<ellipse fill="gray" stroke="black" cx="330.77" cy="-90" rx="31.51" ry="18"/>
<text text-anchor="middle" x="330.77" y="-87.8" font-family="Times,serif" font-size="9.00">LkClose?*</text>
</g>
<!-- Sequence*&#45;&gt;LkClose?* -->
<g id="edge19" class="edge">
<title>Sequence*&#45;&gt;LkClose?*</title>
<path fill="none" stroke="black" d="M445.04,-148.97C422.36,-137.46 387.98,-120.02 362.85,-107.28"/>
<polygon fill="black" stroke="black" points="364.22,-104.05 353.72,-102.64 361.06,-110.29 364.22,-104.05"/>
</g>
<!-- MoveTo!**** -->
<g id="node21" class="node">
<title>MoveTo!****</title>
<ellipse fill="gray" stroke="black" cx="419.77" cy="-90" rx="39.02" ry="18"/>
<text text-anchor="middle" x="419.77" y="-87.8" font-family="Times,serif" font-size="9.00">MoveTo!****</text>
</g>
<!-- Sequence*&#45;&gt;MoveTo!**** -->
<g id="edge20" class="edge">
<title>Sequence*&#45;&gt;MoveTo!****</title>
<path fill="none" stroke="black" d="M456.65,-143.7C450.81,-135.35 443.69,-125.18 437.28,-116.02"/>
<polygon fill="black" stroke="black" points="440,-113.81 431.4,-107.62 434.27,-117.82 440,-113.81"/>
</g>
<!-- MoveTo!***** -->
<g id="node22" class="node">
<title>MoveTo!*****</title>
<ellipse fill="gray" stroke="black" cx="518.77" cy="-90" rx="42.29" ry="18"/>
<text text-anchor="middle" x="518.77" y="-87.8" font-family="Times,serif" font-size="9.00">MoveTo!*****</text>
</g>
<!-- Sequence*&#45;&gt;MoveTo!***** -->
<g id="edge21" class="edge">
<title>Sequence*&#45;&gt;MoveTo!*****</title>
<path fill="none" stroke="black" d="M481.12,-143.7C487.09,-135.35 494.35,-125.18 500.9,-116.02"/>
<polygon fill="black" stroke="black" points="503.93,-117.79 506.89,-107.62 498.23,-113.73 503.93,-117.79"/>
</g>
<!-- MoveTo!****** -->
<g id="node23" class="node">
<title>MoveTo!******</title>
<ellipse fill="gray" stroke="black" cx="623.77" cy="-90" rx="44.41" ry="18"/>
<text text-anchor="middle" x="623.77" y="-87.8" font-family="Times,serif" font-size="9.00">MoveTo!******</text>
</g>
<!-- Sequence*&#45;&gt;MoveTo!****** -->
<g id="edge22" class="edge">
<title>Sequence*&#45;&gt;MoveTo!******</title>
<path fill="none" stroke="black" d="M494.01,-149.6C518.91,-138.36 557.26,-121.03 585.83,-108.13"/>
<polygon fill="black" stroke="black" points="587.43,-111.25 595.1,-103.94 584.55,-104.87 587.43,-111.25"/>
</g>
<!-- MoveTo!******* -->
<g id="node24" class="node">
<title>MoveTo!*******</title>
<ellipse fill="gray" stroke="black" cx="733.77" cy="-90" rx="47.19" ry="18"/>
<text text-anchor="middle" x="733.77" y="-87.8" font-family="Times,serif" font-size="9.00">MoveTo!*******</text>
</g>
<!-- Sequence*&#45;&gt;MoveTo!******* -->
<g id="edge23" class="edge">
<title>Sequence*&#45;&gt;MoveTo!*******</title>
<path fill="none" stroke="black" d="M494.91,-149.89C500.42,-147.77 506.24,-145.68 511.77,-144 583.57,-122.13 604.08,-126.74 676.77,-108 680.59,-107.01 684.55,-105.94 688.51,-104.83"/>
<polygon fill="black" stroke="black" points="689.66,-108.14 698.31,-102.02 687.73,-101.42 689.66,-108.14"/>
</g>
<!-- GetLk!* -->
<g id="node16" class="node">
<title>GetLk!*</title>
<ellipse fill="gray" stroke="black" cx="111.77" cy="-18" rx="27.27" ry="18"/>
<text text-anchor="middle" x="111.77" y="-15.8" font-family="Times,serif" font-size="9.00">GetLk!*</text>
</g>
<!-- Fallback****&#45;&gt;GetLk!* -->
<g id="edge15" class="edge">
<title>Fallback****&#45;&gt;GetLk!*</title>
<path fill="none" stroke="black" d="M215.89,-75.5C194.53,-63.91 163.7,-47.18 141.12,-34.93"/>
<polygon fill="black" stroke="black" points="142.77,-31.84 132.31,-30.15 139.43,-38 142.77,-31.84"/>
</g>
<!-- MoveTo!*** -->
<g id="node17" class="node">
<title>MoveTo!***</title>
<ellipse fill="gray" stroke="black" cx="193.77" cy="-18" rx="36.9" ry="18"/>
<text text-anchor="middle" x="193.77" y="-15.8" font-family="Times,serif" font-size="9.00">MoveTo!***</text>
</g>
<!-- Fallback****&#45;&gt;MoveTo!*** -->
<g id="edge16" class="edge">
<title>Fallback****&#45;&gt;MoveTo!***</title>
<path fill="none" stroke="black" d="M229.15,-71.7C223.54,-63.35 216.72,-53.18 210.56,-44.02"/>
<polygon fill="black" stroke="black" points="213.41,-41.97 204.93,-35.62 207.59,-45.88 213.41,-41.97"/>
</g>
<!-- GetSubGoal!* -->
<g id="node18" class="node">
<title>GetSubGoal!*</title>
<ellipse fill="gray" stroke="black" cx="287.77" cy="-18" rx="39.02" ry="18"/>
<text text-anchor="middle" x="287.77" y="-15.8" font-family="Times,serif" font-size="9.00">GetSubGoal!*</text>
</g>
<!-- Fallback****&#45;&gt;GetSubGoal!* -->
<g id="edge17" class="edge">
<title>Fallback****&#45;&gt;GetSubGoal!*</title>
<path fill="none" stroke="black" d="M252.38,-71.7C257.99,-63.35 264.81,-53.18 270.97,-44.02"/>
<polygon fill="black" stroke="black" points="273.94,-45.88 276.6,-35.62 268.12,-41.97 273.94,-45.88"/>
</g>
<!-- ReachGoal?* -->
<g id="node19" class="node">
<title>ReachGoal?*</title>
<ellipse fill="gray" stroke="black" cx="381.77" cy="-18" rx="36.9" ry="18"/>
<text text-anchor="middle" x="381.77" y="-15.8" font-family="Times,serif" font-size="9.00">ReachGoal?*</text>
</g>
<!-- Fallback****&#45;&gt;ReachGoal?* -->
<g id="edge18" class="edge">
<title>Fallback****&#45;&gt;ReachGoal?*</title>
<path fill="none" stroke="black" d="M266.96,-76C289.7,-64.71 322.78,-48.28 347.59,-35.96"/>
<polygon fill="black" stroke="black" points="349.26,-39.04 356.66,-31.46 346.15,-32.77 349.26,-39.04"/>
</g>
</g>
</svg>
