<?xml version="1.0" encoding="UTF-8" standalone="no"?>
<!DOCTYPE svg PUBLIC "-//W3C//DTD SVG 1.1//EN"
 "http://www.w3.org/Graphics/SVG/1.1/DTD/svg11.dtd">
<!-- Generated by graphviz version 2.43.0 (0)
 -->
<!-- Title: pastafarianism Pages: 1 -->
<svg width="1064pt" height="332pt"
 viewBox="0.00 0.00 1064.30 332.00" xmlns="http://www.w3.org/2000/svg" xmlns:xlink="http://www.w3.org/1999/xlink">
<g id="graph0" class="graph" transform="scale(1 1) rotate(0) translate(4 328)">
<title>pastafarianism</title>
<polygon fill="white" stroke="transparent" points="-4,4 -4,-328 1060.3,-328 1060.3,4 -4,4"/>
<!-- Sequence -->
<g id="node1" class="node">
<title>Sequence</title>
<polygon fill="cyan" stroke="black" points="541.26,-298.54 541.26,-313.46 522.81,-324 496.72,-324 478.27,-313.46 478.27,-298.54 496.72,-288 522.81,-288 541.26,-298.54"/>
<text text-anchor="middle" x="509.77" y="-303.8" font-family="Times,serif" font-size="9.00">Sequence</text>
</g>
<!-- Fallback -->
<g id="node2" class="node">
<title>Fallback</title>
<polygon fill="cyan" stroke="black" points="501.01,-226.54 501.01,-241.46 483.88,-252 459.65,-252 442.52,-241.46 442.52,-226.54 459.65,-216 483.88,-216 501.01,-226.54"/>
<text text-anchor="middle" x="471.77" y="-231.8" font-family="Times,serif" font-size="9.00">Fallback</text>
</g>
<!-- Sequence&#45;&gt;Fallback -->
<g id="edge1" class="edge">
<title>Sequence&#45;&gt;Fallback</title>
<path fill="none" stroke="black" d="M500.37,-287.7C496,-279.64 490.71,-269.89 485.87,-260.98"/>
<polygon fill="black" stroke="black" points="488.9,-259.22 481.05,-252.1 482.75,-262.56 488.9,-259.22"/>
</g>
<!-- LkClose? -->
<g id="node22" class="node">
<title>LkClose?</title>
<ellipse fill="gray" stroke="black" cx="547.77" cy="-234" rx="28.74" ry="18"/>
<text text-anchor="middle" x="547.77" y="-231.8" font-family="Times,serif" font-size="9.00">LkClose?</text>
</g>
<!-- Sequence&#45;&gt;LkClose? -->
<g id="edge21" class="edge">
<title>Sequence&#45;&gt;LkClose?</title>
<path fill="none" stroke="black" d="M519.16,-287.7C523.6,-279.52 528.98,-269.6 533.88,-260.58"/>
<polygon fill="black" stroke="black" points="537.05,-262.08 538.74,-251.62 530.89,-258.74 537.05,-262.08"/>
</g>
<!-- ReachGoal? -->
<g id="node3" class="node">
<title>ReachGoal?</title>
<ellipse fill="gray" stroke="black" cx="390.77" cy="-162" rx="34.13" ry="18"/>
<text text-anchor="middle" x="390.77" y="-159.8" font-family="Times,serif" font-size="9.00">ReachGoal?</text>
</g>
<!-- Fallback&#45;&gt;ReachGoal? -->
<g id="edge2" class="edge">
<title>Fallback&#45;&gt;ReachGoal?</title>
<path fill="none" stroke="black" d="M454.98,-218.5C443.55,-208.61 428.22,-195.36 415.4,-184.29"/>
<polygon fill="black" stroke="black" points="417.66,-181.62 407.81,-177.73 413.08,-186.91 417.66,-181.62"/>
</g>
<!-- MoveTo! -->
<g id="node4" class="node">
<title>MoveTo!</title>
<ellipse fill="gray" stroke="black" cx="471.77" cy="-162" rx="28.74" ry="18"/>
<text text-anchor="middle" x="471.77" y="-159.8" font-family="Times,serif" font-size="9.00">MoveTo!</text>
</g>
<!-- Fallback&#45;&gt;MoveTo! -->
<g id="edge3" class="edge">
<title>Fallback&#45;&gt;MoveTo!</title>
<path fill="none" stroke="black" d="M471.77,-215.7C471.77,-207.98 471.77,-198.71 471.77,-190.11"/>
<polygon fill="black" stroke="black" points="475.27,-190.1 471.77,-180.1 468.27,-190.1 475.27,-190.1"/>
</g>
<!-- Sequence* -->
<g id="node5" class="node">
<title>Sequence*</title>
<polygon fill="cyan" stroke="black" points="587.01,-154.54 587.01,-169.46 566.95,-180 538.58,-180 518.52,-169.46 518.52,-154.54 538.58,-144 566.95,-144 587.01,-154.54"/>
<text text-anchor="middle" x="552.77" y="-159.8" font-family="Times,serif" font-size="9.00">Sequence*</text>
</g>
<!-- Fallback&#45;&gt;Sequence* -->
<g id="edge4" class="edge">
<title>Fallback&#45;&gt;Sequence*</title>
<path fill="none" stroke="black" d="M488.55,-218.5C499.72,-208.84 514.62,-195.97 527.25,-185.05"/>
<polygon fill="black" stroke="black" points="529.89,-187.4 535.16,-178.21 525.31,-182.1 529.89,-187.4"/>
</g>
<!-- Fallback* -->
<g id="node6" class="node">
<title>Fallback*</title>
<polygon fill="cyan" stroke="black" points="180.51,-82.54 180.51,-97.46 161.91,-108 135.62,-108 117.02,-97.46 117.02,-82.54 135.62,-72 161.91,-72 180.51,-82.54"/>
<text text-anchor="middle" x="148.77" y="-87.8" font-family="Times,serif" font-size="9.00">Fallback*</text>
</g>
<!-- Sequence*&#45;&gt;Fallback* -->
<g id="edge5" class="edge">
<title>Sequence*&#45;&gt;Fallback*</title>
<path fill="none" stroke="black" d="M527.21,-149.62C521.55,-147.46 515.53,-145.44 509.77,-144 370.89,-109.39 328.35,-143.76 189.77,-108 187.28,-107.36 184.76,-106.6 182.24,-105.76"/>
<polygon fill="black" stroke="black" points="183.25,-102.41 172.66,-102.22 180.83,-108.97 183.25,-102.41"/>
</g>
<!-- MoveTo!* -->
<g id="node10" class="node">
<title>MoveTo!*</title>
<ellipse fill="gray" stroke="black" cx="230.77" cy="-90" rx="31.51" ry="18"/>
<text text-anchor="middle" x="230.77" y="-87.8" font-family="Times,serif" font-size="9.00">MoveTo!*</text>
</g>
<!-- Sequence*&#45;&gt;MoveTo!* -->
<g id="edge9" class="edge">
<title>Sequence*&#45;&gt;MoveTo!*</title>
<path fill="none" stroke="black" d="M527.16,-149.78C521.51,-147.62 515.5,-145.55 509.77,-144 406.47,-116.16 374.83,-136.7 271.77,-108 269.3,-107.31 266.78,-106.52 264.26,-105.65"/>
<polygon fill="black" stroke="black" points="265.3,-102.3 254.7,-102.06 262.84,-108.86 265.3,-102.3"/>
</g>
<!-- MoveTo!** -->
<g id="node11" class="node">
<title>MoveTo!**</title>
<ellipse fill="gray" stroke="black" cx="314.77" cy="-90" rx="34.13" ry="18"/>
<text text-anchor="middle" x="314.77" y="-87.8" font-family="Times,serif" font-size="9.00">MoveTo!**</text>
</g>
<!-- Sequence*&#45;&gt;MoveTo!** -->
<g id="edge10" class="edge">
<title>Sequence*&#45;&gt;MoveTo!**</title>
<path fill="none" stroke="black" d="M526.6,-149.96C521.09,-147.84 515.28,-145.73 509.77,-144 443.54,-123.18 424,-128.82 357.77,-108 355.2,-107.19 352.56,-106.31 349.93,-105.37"/>
<polygon fill="black" stroke="black" points="351.06,-102.06 340.47,-101.86 348.63,-108.62 351.06,-102.06"/>
</g>
<!-- ReachGoal?* -->
<g id="node12" class="node">
<title>ReachGoal?*</title>
<ellipse fill="gray" stroke="black" cx="403.77" cy="-90" rx="36.9" ry="18"/>
<text text-anchor="middle" x="403.77" y="-87.8" font-family="Times,serif" font-size="9.00">ReachGoal?*</text>
</g>
<!-- Sequence*&#45;&gt;ReachGoal?* -->
<g id="edge11" class="edge">
<title>Sequence*&#45;&gt;ReachGoal?*</title>
<path fill="none" stroke="black" d="M528.16,-149.44C503.76,-137.98 466.15,-120.31 438.67,-107.4"/>
<polygon fill="black" stroke="black" points="439.95,-104.13 429.41,-103.05 436.97,-110.47 439.95,-104.13"/>
</g>
<!-- GetSubGoal!** -->
<g id="node13" class="node">
<title>GetSubGoal!**</title>
<ellipse fill="gray" stroke="black" cx="500.77" cy="-90" rx="42.29" ry="18"/>
<text text-anchor="middle" x="500.77" y="-87.8" font-family="Times,serif" font-size="9.00">GetSubGoal!**</text>
</g>
<!-- Sequence*&#45;&gt;GetSubGoal!** -->
<g id="edge12" class="edge">
<title>Sequence*&#45;&gt;GetSubGoal!**</title>
<path fill="none" stroke="black" d="M539.91,-143.7C533.65,-135.27 526,-124.97 519.14,-115.73"/>
<polygon fill="black" stroke="black" points="521.89,-113.56 513.11,-107.62 516.27,-117.74 521.89,-113.56"/>
</g>
<!-- GetSubGoal!*** -->
<g id="node14" class="node">
<title>GetSubGoal!***</title>
<ellipse fill="gray" stroke="black" cx="605.77" cy="-90" rx="44.41" ry="18"/>
<text text-anchor="middle" x="605.77" y="-87.8" font-family="Times,serif" font-size="9.00">GetSubGoal!***</text>
</g>
<!-- Sequence*&#45;&gt;GetSubGoal!*** -->
<g id="edge13" class="edge">
<title>Sequence*&#45;&gt;GetSubGoal!***</title>
<path fill="none" stroke="black" d="M565.87,-143.7C572.25,-135.27 580.04,-124.97 587.04,-115.73"/>
<polygon fill="black" stroke="black" points="589.93,-117.71 593.18,-107.62 584.35,-113.48 589.93,-117.71"/>
</g>
<!-- Fallback** -->
<g id="node15" class="node">
<title>Fallback**</title>
<polygon fill="cyan" stroke="black" points="737.76,-82.54 737.76,-97.46 717.26,-108 688.27,-108 667.77,-97.46 667.77,-82.54 688.27,-72 717.26,-72 737.76,-82.54"/>
<text text-anchor="middle" x="702.77" y="-87.8" font-family="Times,serif" font-size="9.00">Fallback**</text>
</g>
<!-- Sequence*&#45;&gt;Fallback** -->
<g id="edge14" class="edge">
<title>Sequence*&#45;&gt;Fallback**</title>
<path fill="none" stroke="black" d="M577.53,-149.44C602.32,-137.87 640.66,-119.98 668.38,-107.05"/>
<polygon fill="black" stroke="black" points="670.13,-110.09 677.71,-102.69 667.17,-103.75 670.13,-110.09"/>
</g>
<!-- CompLkGraph! -->
<g id="node19" class="node">
<title>CompLkGraph!</title>
<ellipse fill="gray" stroke="black" cx="798.77" cy="-90" rx="42.95" ry="18"/>
<text text-anchor="middle" x="798.77" y="-87.8" font-family="Times,serif" font-size="9.00">CompLkGraph!</text>
</g>
<!-- Sequence*&#45;&gt;CompLkGraph! -->
<g id="edge18" class="edge">
<title>Sequence*&#45;&gt;CompLkGraph!</title>
<path fill="none" stroke="black" d="M584.15,-152.94C622.62,-142.93 689.74,-125.1 746.77,-108 750.05,-107.02 753.44,-105.97 756.84,-104.9"/>
<polygon fill="black" stroke="black" points="757.92,-108.23 766.39,-101.86 755.8,-101.56 757.92,-108.23"/>
</g>
<!-- MoveTo!*** -->
<g id="node20" class="node">
<title>MoveTo!***</title>
<ellipse fill="gray" stroke="black" cx="896.77" cy="-90" rx="36.9" ry="18"/>
<text text-anchor="middle" x="896.77" y="-87.8" font-family="Times,serif" font-size="9.00">MoveTo!***</text>
</g>
<!-- Sequence*&#45;&gt;MoveTo!*** -->
<g id="edge19" class="edge">
<title>Sequence*&#45;&gt;MoveTo!***</title>
<path fill="none" stroke="black" d="M587.17,-156.91C643.1,-149.8 756.95,-133.46 850.77,-108 853.71,-107.2 856.73,-106.29 859.75,-105.32"/>
<polygon fill="black" stroke="black" points="860.96,-108.6 869.29,-102.06 858.7,-101.98 860.96,-108.6"/>
</g>
<!-- GetSubGoal!****** -->
<g id="node21" class="node">
<title>GetSubGoal!******</title>
<ellipse fill="gray" stroke="black" cx="1003.77" cy="-90" rx="52.58" ry="18"/>
<text text-anchor="middle" x="1003.77" y="-87.8" font-family="Times,serif" font-size="9.00">GetSubGoal!******</text>
</g>
<!-- Sequence*&#45;&gt;GetSubGoal!****** -->
<g id="edge20" class="edge">
<title>Sequence*&#45;&gt;GetSubGoal!******</title>
<path fill="none" stroke="black" d="M587.2,-157.92C655.51,-151.45 812.77,-134.82 942.77,-108 946.94,-107.14 951.26,-106.15 955.57,-105.08"/>
<polygon fill="black" stroke="black" points="956.75,-108.39 965.56,-102.51 955.01,-101.62 956.75,-108.39"/>
</g>
<!-- NotReadyForSG? -->
<g id="node7" class="node">
<title>NotReadyForSG?</title>
<ellipse fill="gray" stroke="black" cx="46.77" cy="-18" rx="46.53" ry="18"/>
<text text-anchor="middle" x="46.77" y="-15.8" font-family="Times,serif" font-size="9.00">NotReadyForSG?</text>
</g>
<!-- Fallback*&#45;&gt;NotReadyForSG? -->
<g id="edge6" class="edge">
<title>Fallback*&#45;&gt;NotReadyForSG?</title>
<path fill="none" stroke="black" d="M129.1,-75.5C114.41,-65.42 94.05,-51.45 77.26,-39.93"/>
<polygon fill="black" stroke="black" points="79.08,-36.93 68.85,-34.16 75.12,-42.7 79.08,-36.93"/>
</g>
<!-- GetSubGoal! -->
<g id="node8" class="node">
<title>GetSubGoal!</title>
<ellipse fill="gray" stroke="black" cx="148.77" cy="-18" rx="36.9" ry="18"/>
<text text-anchor="middle" x="148.77" y="-15.8" font-family="Times,serif" font-size="9.00">GetSubGoal!</text>
</g>
<!-- Fallback*&#45;&gt;GetSubGoal! -->
<g id="edge7" class="edge">
<title>Fallback*&#45;&gt;GetSubGoal!</title>
<path fill="none" stroke="black" d="M148.77,-71.7C148.77,-63.98 148.77,-54.71 148.77,-46.11"/>
<polygon fill="black" stroke="black" points="152.27,-46.1 148.77,-36.1 145.27,-46.1 152.27,-46.1"/>
</g>
<!-- GetSubGoal!* -->
<g id="node9" class="node">
<title>GetSubGoal!*</title>
<ellipse fill="gray" stroke="black" cx="242.77" cy="-18" rx="39.02" ry="18"/>
<text text-anchor="middle" x="242.77" y="-15.8" font-family="Times,serif" font-size="9.00">GetSubGoal!*</text>
</g>
<!-- Fallback*&#45;&gt;GetSubGoal!* -->
<g id="edge8" class="edge">
<title>Fallback*&#45;&gt;GetSubGoal!*</title>
<path fill="none" stroke="black" d="M167.79,-74.83C181.37,-64.72 199.85,-50.96 215.06,-39.63"/>
<polygon fill="black" stroke="black" points="217.19,-42.41 223.12,-33.63 213.01,-36.79 217.19,-42.41"/>
</g>
<!-- NotReadyForSG?* -->
<g id="node16" class="node">
<title>NotReadyForSG?*</title>
<ellipse fill="gray" stroke="black" cx="587.77" cy="-18" rx="49.8" ry="18"/>
<text text-anchor="middle" x="587.77" y="-15.8" font-family="Times,serif" font-size="9.00">NotReadyForSG?*</text>
</g>
<!-- Fallback**&#45;&gt;NotReadyForSG?* -->
<g id="edge15" class="edge">
<title>Fallback**&#45;&gt;NotReadyForSG?*</title>
<path fill="none" stroke="black" d="M680.86,-75.67C663.87,-65.33 640.05,-50.82 620.75,-39.08"/>
<polygon fill="black" stroke="black" points="622.33,-35.94 611.97,-33.73 618.69,-41.92 622.33,-35.94"/>
</g>
<!-- GetSubGoal!**** -->
<g id="node17" class="node">
<title>GetSubGoal!****</title>
<ellipse fill="gray" stroke="black" cx="702.77" cy="-18" rx="47.19" ry="18"/>
<text text-anchor="middle" x="702.77" y="-15.8" font-family="Times,serif" font-size="9.00">GetSubGoal!****</text>
</g>
<!-- Fallback**&#45;&gt;GetSubGoal!**** -->
<g id="edge16" class="edge">
<title>Fallback**&#45;&gt;GetSubGoal!****</title>
<path fill="none" stroke="black" d="M702.77,-71.7C702.77,-63.98 702.77,-54.71 702.77,-46.11"/>
<polygon fill="black" stroke="black" points="706.27,-46.1 702.77,-36.1 699.27,-46.1 706.27,-46.1"/>
</g>
<!-- GetSubGoal!***** -->
<g id="node18" class="node">
<title>GetSubGoal!*****</title>
<ellipse fill="gray" stroke="black" cx="817.77" cy="-18" rx="49.8" ry="18"/>
<text text-anchor="middle" x="817.77" y="-15.8" font-family="Times,serif" font-size="9.00">GetSubGoal!*****</text>
</g>
<!-- Fallback**&#45;&gt;GetSubGoal!***** -->
<g id="edge17" class="edge">
<title>Fallback**&#45;&gt;GetSubGoal!*****</title>
<path fill="none" stroke="black" d="M724.67,-75.67C741.66,-65.33 765.48,-50.82 784.78,-39.08"/>
<polygon fill="black" stroke="black" points="786.84,-41.92 793.56,-33.73 783.2,-35.94 786.84,-41.92"/>
</g>
</g>
</svg>
