<?xml version="1.0" encoding="UTF-8" standalone="no"?>
<!DOCTYPE svg PUBLIC "-//W3C//DTD SVG 1.1//EN"
 "http://www.w3.org/Graphics/SVG/1.1/DTD/svg11.dtd">
<!-- Generated by graphviz version 2.43.0 (0)
 -->
<!-- Title: pastafarianism Pages: 1 -->
<svg width="626pt" height="332pt"
 viewBox="0.00 0.00 625.91 332.00" xmlns="http://www.w3.org/2000/svg" xmlns:xlink="http://www.w3.org/1999/xlink">
<g id="graph0" class="graph" transform="scale(1 1) rotate(0) translate(4 328)">
<title>pastafarianism</title>
<polygon fill="white" stroke="transparent" points="-4,4 -4,-328 621.91,-328 621.91,4 -4,4"/>
<!-- Fallback -->
<g id="node1" class="node">
<title>Fallback</title>
<polygon fill="cyan" stroke="black" points="373.01,-298.54 373.01,-313.46 355.88,-324 331.65,-324 314.52,-313.46 314.52,-298.54 331.65,-288 355.88,-288 373.01,-298.54"/>
<text text-anchor="middle" x="343.77" y="-303.8" font-family="Times,serif" font-size="9.00">Fallback</text>
</g>
<!-- Sequence -->
<g id="node2" class="node">
<title>Sequence</title>
<polygon fill="cyan" stroke="black" points="375.26,-226.54 375.26,-241.46 356.81,-252 330.72,-252 312.27,-241.46 312.27,-226.54 330.72,-216 356.81,-216 375.26,-226.54"/>
<text text-anchor="middle" x="343.77" y="-231.8" font-family="Times,serif" font-size="9.00">Sequence</text>
</g>
<!-- Fallback&#45;&gt;Sequence -->
<g id="edge1" class="edge">
<title>Fallback&#45;&gt;Sequence</title>
<path fill="none" stroke="black" d="M343.77,-287.7C343.77,-279.98 343.77,-270.71 343.77,-262.11"/>
<polygon fill="black" stroke="black" points="347.27,-262.1 343.77,-252.1 340.27,-262.1 347.27,-262.1"/>
</g>
<!-- Fallback* -->
<g id="node3" class="node">
<title>Fallback*</title>
<polygon fill="cyan" stroke="black" points="175.51,-154.54 175.51,-169.46 156.91,-180 130.62,-180 112.02,-169.46 112.02,-154.54 130.62,-144 156.91,-144 175.51,-154.54"/>
<text text-anchor="middle" x="143.77" y="-159.8" font-family="Times,serif" font-size="9.00">Fallback*</text>
</g>
<!-- Sequence&#45;&gt;Fallback* -->
<g id="edge2" class="edge">
<title>Sequence&#45;&gt;Fallback*</title>
<path fill="none" stroke="black" d="M315.98,-224.4C284.08,-214.37 230.29,-197 184.77,-180 182.51,-179.16 180.2,-178.27 177.87,-177.36"/>
<polygon fill="black" stroke="black" points="178.95,-174.02 168.37,-173.53 176.34,-180.51 178.95,-174.02"/>
</g>
<!-- MoveTo! -->
<g id="node8" class="node">
<title>MoveTo!</title>
<ellipse fill="gray" stroke="black" cx="222.77" cy="-162" rx="28.74" ry="18"/>
<text text-anchor="middle" x="222.77" y="-159.8" font-family="Times,serif" font-size="9.00">MoveTo!</text>
</g>
<!-- Sequence&#45;&gt;MoveTo! -->
<g id="edge7" class="edge">
<title>Sequence&#45;&gt;MoveTo!</title>
<path fill="none" stroke="black" d="M322.41,-220.65C302.94,-209.38 273.99,-192.63 252.3,-180.09"/>
<polygon fill="black" stroke="black" points="253.91,-176.97 243.5,-175 250.4,-183.03 253.91,-176.97"/>
</g>
<!-- MoveTo!* -->
<g id="node9" class="node">
<title>MoveTo!*</title>
<ellipse fill="gray" stroke="black" cx="301.77" cy="-162" rx="31.51" ry="18"/>
<text text-anchor="middle" x="301.77" y="-159.8" font-family="Times,serif" font-size="9.00">MoveTo!*</text>
</g>
<!-- Sequence&#45;&gt;MoveTo!* -->
<g id="edge8" class="edge">
<title>Sequence&#45;&gt;MoveTo!*</title>
<path fill="none" stroke="black" d="M333.38,-215.7C328.35,-207.32 322.22,-197.1 316.7,-187.9"/>
<polygon fill="black" stroke="black" points="319.6,-185.92 311.45,-179.14 313.6,-189.52 319.6,-185.92"/>
</g>
<!-- ReachGoal? -->
<g id="node10" class="node">
<title>ReachGoal?</title>
<ellipse fill="gray" stroke="black" cx="385.77" cy="-162" rx="34.13" ry="18"/>
<text text-anchor="middle" x="385.77" y="-159.8" font-family="Times,serif" font-size="9.00">ReachGoal?</text>
</g>
<!-- Sequence&#45;&gt;ReachGoal? -->
<g id="edge9" class="edge">
<title>Sequence&#45;&gt;ReachGoal?</title>
<path fill="none" stroke="black" d="M354.15,-215.7C359.1,-207.44 365.13,-197.39 370.59,-188.3"/>
<polygon fill="black" stroke="black" points="373.65,-190 375.79,-179.62 367.65,-186.4 373.65,-190"/>
</g>
<!-- GetSubGoal!* -->
<g id="node11" class="node">
<title>GetSubGoal!*</title>
<ellipse fill="gray" stroke="black" cx="476.77" cy="-162" rx="39.02" ry="18"/>
<text text-anchor="middle" x="476.77" y="-159.8" font-family="Times,serif" font-size="9.00">GetSubGoal!*</text>
</g>
<!-- Sequence&#45;&gt;GetSubGoal!* -->
<g id="edge10" class="edge">
<title>Sequence&#45;&gt;GetSubGoal!*</title>
<path fill="none" stroke="black" d="M366.33,-221.13C387.26,-210.11 418.72,-193.55 442.71,-180.92"/>
<polygon fill="black" stroke="black" points="444.61,-183.88 451.83,-176.13 441.35,-177.69 444.61,-183.88"/>
</g>
<!-- GetSubGoal!** -->
<g id="node12" class="node">
<title>GetSubGoal!**</title>
<ellipse fill="gray" stroke="black" cx="575.77" cy="-162" rx="42.29" ry="18"/>
<text text-anchor="middle" x="575.77" y="-159.8" font-family="Times,serif" font-size="9.00">GetSubGoal!**</text>
</g>
<!-- Sequence&#45;&gt;GetSubGoal!** -->
<g id="edge11" class="edge">
<title>Sequence&#45;&gt;GetSubGoal!**</title>
<path fill="none" stroke="black" d="M372.7,-224.88C408.52,-214.75 471.33,-196.72 524.77,-180 527.84,-179.04 531.01,-178.03 534.2,-177"/>
<polygon fill="black" stroke="black" points="535.3,-180.32 543.72,-173.88 533.13,-173.66 535.3,-180.32"/>
</g>
<!-- Sequence* -->
<g id="node4" class="node">
<title>Sequence*</title>
<polygon fill="cyan" stroke="black" points="134.01,-82.54 134.01,-97.46 113.95,-108 85.58,-108 65.52,-97.46 65.52,-82.54 85.58,-72 113.95,-72 134.01,-82.54"/>
<text text-anchor="middle" x="99.77" y="-87.8" font-family="Times,serif" font-size="9.00">Sequence*</text>
</g>
<!-- Fallback*&#45;&gt;Sequence* -->
<g id="edge3" class="edge">
<title>Fallback*&#45;&gt;Sequence*</title>
<path fill="none" stroke="black" d="M132.89,-143.7C127.77,-135.56 121.57,-125.69 115.92,-116.7"/>
<polygon fill="black" stroke="black" points="118.8,-114.71 110.52,-108.1 112.88,-118.43 118.8,-114.71"/>
</g>
<!-- GetSubGoal! -->
<g id="node7" class="node">
<title>GetSubGoal!</title>
<ellipse fill="gray" stroke="black" cx="188.77" cy="-90" rx="36.9" ry="18"/>
<text text-anchor="middle" x="188.77" y="-87.8" font-family="Times,serif" font-size="9.00">GetSubGoal!</text>
</g>
<!-- Fallback*&#45;&gt;GetSubGoal! -->
<g id="edge6" class="edge">
<title>Fallback*&#45;&gt;GetSubGoal!</title>
<path fill="none" stroke="black" d="M154.89,-143.7C160.2,-135.44 166.65,-125.39 172.5,-116.3"/>
<polygon fill="black" stroke="black" points="175.62,-117.93 178.08,-107.62 169.73,-114.14 175.62,-117.93"/>
</g>
<!-- NotReadyForSG? -->
<g id="node5" class="node">
<title>NotReadyForSG?</title>
<ellipse fill="gray" stroke="black" cx="46.77" cy="-18" rx="46.53" ry="18"/>
<text text-anchor="middle" x="46.77" y="-15.8" font-family="Times,serif" font-size="9.00">NotReadyForSG?</text>
</g>
<!-- Sequence*&#45;&gt;NotReadyForSG? -->
<g id="edge4" class="edge">
<title>Sequence*&#45;&gt;NotReadyForSG?</title>
<path fill="none" stroke="black" d="M86.66,-71.7C80.28,-63.27 72.49,-52.97 65.49,-43.73"/>
<polygon fill="black" stroke="black" points="68.18,-41.48 59.35,-35.62 62.6,-45.71 68.18,-41.48"/>
</g>
<!-- CompLkGraph! -->
<g id="node6" class="node">
<title>CompLkGraph!</title>
<ellipse fill="gray" stroke="black" cx="153.77" cy="-18" rx="42.95" ry="18"/>
<text text-anchor="middle" x="153.77" y="-15.8" font-family="Times,serif" font-size="9.00">CompLkGraph!</text>
</g>
<!-- Sequence*&#45;&gt;CompLkGraph! -->
<g id="edge5" class="edge">
<title>Sequence*&#45;&gt;CompLkGraph!</title>
<path fill="none" stroke="black" d="M113.11,-71.7C119.62,-63.27 127.56,-52.97 134.69,-43.73"/>
<polygon fill="black" stroke="black" points="137.61,-45.68 140.94,-35.62 132.06,-41.4 137.61,-45.68"/>
</g>
</g>
</svg>
