<?xml version="1.0" encoding="UTF-8" standalone="no"?>
<!DOCTYPE svg PUBLIC "-//W3C//DTD SVG 1.1//EN"
 "http://www.w3.org/Graphics/SVG/1.1/DTD/svg11.dtd">
<!-- Generated by graphviz version 2.43.0 (0)
 -->
<!-- Title: pastafarianism Pages: 1 -->
<svg width="632pt" height="260pt"
 viewBox="0.00 0.00 632.41 260.00" xmlns="http://www.w3.org/2000/svg" xmlns:xlink="http://www.w3.org/1999/xlink">
<g id="graph0" class="graph" transform="scale(1 1) rotate(0) translate(4 256)">
<title>pastafarianism</title>
<polygon fill="white" stroke="transparent" points="-4,4 -4,-256 628.41,-256 628.41,4 -4,4"/>
<!-- Fallback -->
<g id="node1" class="node">
<title>Fallback</title>
<polygon fill="cyan" stroke="black" points="368.19,-226.54 368.19,-241.46 351.06,-252 326.84,-252 309.71,-241.46 309.71,-226.54 326.84,-216 351.06,-216 368.19,-226.54"/>
<text text-anchor="middle" x="338.95" y="-231.8" font-family="Times,serif" font-size="9.00">Fallback</text>
</g>
<!-- Sequence -->
<g id="node2" class="node">
<title>Sequence</title>
<polygon fill="cyan" stroke="black" points="370.44,-154.54 370.44,-169.46 352,-180 325.91,-180 307.46,-169.46 307.46,-154.54 325.91,-144 352,-144 370.44,-154.54"/>
<text text-anchor="middle" x="338.95" y="-159.8" font-family="Times,serif" font-size="9.00">Sequence</text>
</g>
<!-- Fallback&#45;&gt;Sequence -->
<g id="edge1" class="edge">
<title>Fallback&#45;&gt;Sequence</title>
<path fill="none" stroke="black" d="M338.95,-215.7C338.95,-207.98 338.95,-198.71 338.95,-190.11"/>
<polygon fill="black" stroke="black" points="342.45,-190.1 338.95,-180.1 335.45,-190.1 342.45,-190.1"/>
</g>
<!-- Fallback* -->
<g id="node3" class="node">
<title>Fallback*</title>
<polygon fill="cyan" stroke="black" points="170.69,-82.54 170.69,-97.46 152.1,-108 125.8,-108 107.21,-97.46 107.21,-82.54 125.8,-72 152.1,-72 170.69,-82.54"/>
<text text-anchor="middle" x="138.95" y="-87.8" font-family="Times,serif" font-size="9.00">Fallback*</text>
</g>
<!-- Sequence&#45;&gt;Fallback* -->
<g id="edge2" class="edge">
<title>Sequence&#45;&gt;Fallback*</title>
<path fill="none" stroke="black" d="M311.17,-152.4C279.27,-142.37 225.47,-125 179.95,-108 177.7,-107.16 175.38,-106.27 173.06,-105.36"/>
<polygon fill="black" stroke="black" points="174.14,-102.02 163.55,-101.53 171.53,-108.51 174.14,-102.02"/>
</g>
<!-- MoveTo! -->
<g id="node7" class="node">
<title>MoveTo!</title>
<ellipse fill="gray" stroke="black" cx="217.95" cy="-90" rx="28.74" ry="18"/>
<text text-anchor="middle" x="217.95" y="-87.8" font-family="Times,serif" font-size="9.00">MoveTo!</text>
</g>
<!-- Sequence&#45;&gt;MoveTo! -->
<g id="edge6" class="edge">
<title>Sequence&#45;&gt;MoveTo!</title>
<path fill="none" stroke="black" d="M317.6,-148.65C298.13,-137.38 269.17,-120.63 247.49,-108.09"/>
<polygon fill="black" stroke="black" points="249.1,-104.97 238.69,-103 245.59,-111.03 249.1,-104.97"/>
</g>
<!-- MoveTo!* -->
<g id="node8" class="node">
<title>MoveTo!*</title>
<ellipse fill="gray" stroke="black" cx="296.95" cy="-90" rx="31.51" ry="18"/>
<text text-anchor="middle" x="296.95" y="-87.8" font-family="Times,serif" font-size="9.00">MoveTo!*</text>
</g>
<!-- Sequence&#45;&gt;MoveTo!* -->
<g id="edge7" class="edge">
<title>Sequence&#45;&gt;MoveTo!*</title>
<path fill="none" stroke="black" d="M328.57,-143.7C323.54,-135.32 317.41,-125.1 311.89,-115.9"/>
<polygon fill="black" stroke="black" points="314.78,-113.92 306.64,-107.14 308.78,-117.52 314.78,-113.92"/>
</g>
<!-- ReachGoal? -->
<g id="node9" class="node">
<title>ReachGoal?</title>
<ellipse fill="gray" stroke="black" cx="380.95" cy="-90" rx="34.13" ry="18"/>
<text text-anchor="middle" x="380.95" y="-87.8" font-family="Times,serif" font-size="9.00">ReachGoal?</text>
</g>
<!-- Sequence&#45;&gt;ReachGoal? -->
<g id="edge8" class="edge">
<title>Sequence&#45;&gt;ReachGoal?</title>
<path fill="none" stroke="black" d="M349.33,-143.7C354.29,-135.44 360.31,-125.39 365.77,-116.3"/>
<polygon fill="black" stroke="black" points="368.83,-118 370.98,-107.62 362.83,-114.4 368.83,-118"/>
</g>
<!-- GetSubGoal!** -->
<g id="node10" class="node">
<title>GetSubGoal!**</title>
<ellipse fill="gray" stroke="black" cx="474.95" cy="-90" rx="42.29" ry="18"/>
<text text-anchor="middle" x="474.95" y="-87.8" font-family="Times,serif" font-size="9.00">GetSubGoal!**</text>
</g>
<!-- Sequence&#45;&gt;GetSubGoal!** -->
<g id="edge9" class="edge">
<title>Sequence&#45;&gt;GetSubGoal!**</title>
<path fill="none" stroke="black" d="M361.71,-149.28C383.04,-138.31 415.22,-121.74 439.83,-109.08"/>
<polygon fill="black" stroke="black" points="441.57,-112.12 448.86,-104.43 438.36,-105.9 441.57,-112.12"/>
</g>
<!-- GetSubGoal!*** -->
<g id="node11" class="node">
<title>GetSubGoal!***</title>
<ellipse fill="gray" stroke="black" cx="579.95" cy="-90" rx="44.41" ry="18"/>
<text text-anchor="middle" x="579.95" y="-87.8" font-family="Times,serif" font-size="9.00">GetSubGoal!***</text>
</g>
<!-- Sequence&#45;&gt;GetSubGoal!*** -->
<g id="edge10" class="edge">
<title>Sequence&#45;&gt;GetSubGoal!***</title>
<path fill="none" stroke="black" d="M368.18,-153C405.04,-142.84 470.34,-124.63 525.95,-108 529.45,-106.95 533.08,-105.85 536.71,-104.73"/>
<polygon fill="black" stroke="black" points="537.78,-108.07 546.29,-101.76 535.71,-101.38 537.78,-108.07"/>
</g>
<!-- GetSubGoal! -->
<g id="node4" class="node">
<title>GetSubGoal!</title>
<ellipse fill="gray" stroke="black" cx="36.95" cy="-18" rx="36.9" ry="18"/>
<text text-anchor="middle" x="36.95" y="-15.8" font-family="Times,serif" font-size="9.00">GetSubGoal!</text>
</g>
<!-- Fallback*&#45;&gt;GetSubGoal! -->
<g id="edge3" class="edge">
<title>Fallback*&#45;&gt;GetSubGoal!</title>
<path fill="none" stroke="black" d="M119.28,-75.5C104.2,-65.15 83.14,-50.7 66.1,-39"/>
<polygon fill="black" stroke="black" points="67.83,-35.95 57.61,-33.18 63.87,-41.72 67.83,-35.95"/>
</g>
<!-- NotReadyForSG? -->
<g id="node5" class="node">
<title>NotReadyForSG?</title>
<ellipse fill="gray" stroke="black" cx="138.95" cy="-18" rx="46.53" ry="18"/>
<text text-anchor="middle" x="138.95" y="-15.8" font-family="Times,serif" font-size="9.00">NotReadyForSG?</text>
</g>
<!-- Fallback*&#45;&gt;NotReadyForSG? -->
<g id="edge4" class="edge">
<title>Fallback*&#45;&gt;NotReadyForSG?</title>
<path fill="none" stroke="black" d="M138.95,-71.7C138.95,-63.98 138.95,-54.71 138.95,-46.11"/>
<polygon fill="black" stroke="black" points="142.45,-46.1 138.95,-36.1 135.45,-46.1 142.45,-46.1"/>
</g>
<!-- GetSubGoal!* -->
<g id="node6" class="node">
<title>GetSubGoal!*</title>
<ellipse fill="gray" stroke="black" cx="242.95" cy="-18" rx="39.02" ry="18"/>
<text text-anchor="middle" x="242.95" y="-15.8" font-family="Times,serif" font-size="9.00">GetSubGoal!*</text>
</g>
<!-- Fallback*&#45;&gt;GetSubGoal!* -->
<g id="edge5" class="edge">
<title>Fallback*&#45;&gt;GetSubGoal!*</title>
<path fill="none" stroke="black" d="M159,-75.5C174.28,-65.22 195.57,-50.89 212.89,-39.23"/>
<polygon fill="black" stroke="black" points="215.19,-41.91 221.53,-33.42 211.28,-36.1 215.19,-41.91"/>
</g>
</g>
</svg>
