<?xml version="1.0" encoding="UTF-8" standalone="no"?>
<!DOCTYPE svg PUBLIC "-//W3C//DTD SVG 1.1//EN"
 "http://www.w3.org/Graphics/SVG/1.1/DTD/svg11.dtd">
<!-- Generated by graphviz version 2.43.0 (0)
 -->
<!-- Title: pastafarianism Pages: 1 -->
<svg width="919pt" height="260pt"
 viewBox="0.00 0.00 919.42 260.00" xmlns="http://www.w3.org/2000/svg" xmlns:xlink="http://www.w3.org/1999/xlink">
<g id="graph0" class="graph" transform="scale(1 1) rotate(0) translate(4 256)">
<title>pastafarianism</title>
<polygon fill="white" stroke="transparent" points="-4,4 -4,-256 915.42,-256 915.42,4 -4,4"/>
<!-- Fallback -->
<g id="node1" class="node">
<title>Fallback</title>
<polygon fill="cyan" stroke="black" points="504.01,-226.54 504.01,-241.46 486.88,-252 462.65,-252 445.52,-241.46 445.52,-226.54 462.65,-216 486.88,-216 504.01,-226.54"/>
<text text-anchor="middle" x="474.77" y="-231.8" font-family="Times,serif" font-size="9.00">Fallback</text>
</g>
<!-- Sequence -->
<g id="node2" class="node">
<title>Sequence</title>
<polygon fill="cyan" stroke="black" points="506.26,-154.54 506.26,-169.46 487.81,-180 461.72,-180 443.27,-169.46 443.27,-154.54 461.72,-144 487.81,-144 506.26,-154.54"/>
<text text-anchor="middle" x="474.77" y="-159.8" font-family="Times,serif" font-size="9.00">Sequence</text>
</g>
<!-- Fallback&#45;&gt;Sequence -->
<g id="edge1" class="edge">
<title>Fallback&#45;&gt;Sequence</title>
<path fill="none" stroke="black" d="M474.77,-215.7C474.77,-207.98 474.77,-198.71 474.77,-190.11"/>
<polygon fill="black" stroke="black" points="478.27,-190.1 474.77,-180.1 471.27,-190.1 478.27,-190.1"/>
</g>
<!-- Fallback* -->
<g id="node3" class="node">
<title>Fallback*</title>
<polygon fill="cyan" stroke="black" points="173.51,-82.54 173.51,-97.46 154.91,-108 128.62,-108 110.02,-97.46 110.02,-82.54 128.62,-72 154.91,-72 173.51,-82.54"/>
<text text-anchor="middle" x="141.77" y="-87.8" font-family="Times,serif" font-size="9.00">Fallback*</text>
</g>
<!-- Sequence&#45;&gt;Fallback* -->
<g id="edge2" class="edge">
<title>Sequence&#45;&gt;Fallback*</title>
<path fill="none" stroke="black" d="M443.14,-157.51C389,-151.03 275.44,-135.28 182.77,-108 180.31,-107.28 177.8,-106.45 175.29,-105.57"/>
<polygon fill="black" stroke="black" points="176.33,-102.22 165.74,-101.94 173.84,-108.77 176.33,-102.22"/>
</g>
<!-- MoveTo! -->
<g id="node7" class="node">
<title>MoveTo!</title>
<ellipse fill="gray" stroke="black" cx="220.77" cy="-90" rx="28.74" ry="18"/>
<text text-anchor="middle" x="220.77" y="-87.8" font-family="Times,serif" font-size="9.00">MoveTo!</text>
</g>
<!-- Sequence&#45;&gt;MoveTo! -->
<g id="edge6" class="edge">
<title>Sequence&#45;&gt;MoveTo!</title>
<path fill="none" stroke="black" d="M443.5,-155.17C401.03,-146.84 323.04,-130.06 258.77,-108 256.65,-107.28 254.5,-106.48 252.34,-105.64"/>
<polygon fill="black" stroke="black" points="253.58,-102.36 243,-101.75 250.89,-108.82 253.58,-102.36"/>
</g>
<!-- MoveTo!* -->
<g id="node8" class="node">
<title>MoveTo!*</title>
<ellipse fill="gray" stroke="black" cx="299.77" cy="-90" rx="31.51" ry="18"/>
<text text-anchor="middle" x="299.77" y="-87.8" font-family="Times,serif" font-size="9.00">MoveTo!*</text>
</g>
<!-- Sequence&#45;&gt;MoveTo!* -->
<g id="edge7" class="edge">
<title>Sequence&#45;&gt;MoveTo!*</title>
<path fill="none" stroke="black" d="M449.03,-150.96C422.01,-140.4 378.33,-123.22 340.77,-108 338.68,-107.15 336.53,-106.28 334.37,-105.39"/>
<polygon fill="black" stroke="black" points="335.47,-102.06 324.89,-101.49 332.81,-108.54 335.47,-102.06"/>
</g>
<!-- ReachGoal? -->
<g id="node9" class="node">
<title>ReachGoal?</title>
<ellipse fill="gray" stroke="black" cx="383.77" cy="-90" rx="34.13" ry="18"/>
<text text-anchor="middle" x="383.77" y="-87.8" font-family="Times,serif" font-size="9.00">ReachGoal?</text>
</g>
<!-- Sequence&#45;&gt;ReachGoal? -->
<g id="edge8" class="edge">
<title>Sequence&#45;&gt;ReachGoal?</title>
<path fill="none" stroke="black" d="M456.35,-146.83C443.24,-136.75 425.41,-123.03 410.7,-111.72"/>
<polygon fill="black" stroke="black" points="412.53,-108.71 402.47,-105.38 408.26,-114.26 412.53,-108.71"/>
</g>
<!-- GetSubGoal!* -->
<g id="node10" class="node">
<title>GetSubGoal!*</title>
<ellipse fill="gray" stroke="black" cx="474.77" cy="-90" rx="39.02" ry="18"/>
<text text-anchor="middle" x="474.77" y="-87.8" font-family="Times,serif" font-size="9.00">GetSubGoal!*</text>
</g>
<!-- Sequence&#45;&gt;GetSubGoal!* -->
<g id="edge9" class="edge">
<title>Sequence&#45;&gt;GetSubGoal!*</title>
<path fill="none" stroke="black" d="M474.77,-143.7C474.77,-135.98 474.77,-126.71 474.77,-118.11"/>
<polygon fill="black" stroke="black" points="478.27,-118.1 474.77,-108.1 471.27,-118.1 478.27,-118.1"/>
</g>
<!-- MoveTo!** -->
<g id="node11" class="node">
<title>MoveTo!**</title>
<ellipse fill="gray" stroke="black" cx="565.77" cy="-90" rx="34.13" ry="18"/>
<text text-anchor="middle" x="565.77" y="-87.8" font-family="Times,serif" font-size="9.00">MoveTo!**</text>
</g>
<!-- Sequence&#45;&gt;MoveTo!** -->
<g id="edge10" class="edge">
<title>Sequence&#45;&gt;MoveTo!**</title>
<path fill="none" stroke="black" d="M493.18,-146.83C506.29,-136.75 524.12,-123.03 538.83,-111.72"/>
<polygon fill="black" stroke="black" points="541.27,-114.26 547.07,-105.38 537,-108.71 541.27,-114.26"/>
</g>
<!-- GetSubGoal!** -->
<g id="node12" class="node">
<title>GetSubGoal!**</title>
<ellipse fill="gray" stroke="black" cx="659.77" cy="-90" rx="42.29" ry="18"/>
<text text-anchor="middle" x="659.77" y="-87.8" font-family="Times,serif" font-size="9.00">GetSubGoal!**</text>
</g>
<!-- Sequence&#45;&gt;GetSubGoal!** -->
<g id="edge11" class="edge">
<title>Sequence&#45;&gt;GetSubGoal!**</title>
<path fill="none" stroke="black" d="M500.88,-151.12C531.74,-139.44 583.44,-119.88 619.46,-106.25"/>
<polygon fill="black" stroke="black" points="621.05,-109.39 629.17,-102.58 618.58,-102.84 621.05,-109.39"/>
</g>
<!-- ReachGoal?* -->
<g id="node13" class="node">
<title>ReachGoal?*</title>
<ellipse fill="gray" stroke="black" cx="756.77" cy="-90" rx="36.9" ry="18"/>
<text text-anchor="middle" x="756.77" y="-87.8" font-family="Times,serif" font-size="9.00">ReachGoal?*</text>
</g>
<!-- Sequence&#45;&gt;ReachGoal?* -->
<g id="edge12" class="edge">
<title>Sequence&#45;&gt;ReachGoal?*</title>
<path fill="none" stroke="black" d="M506.03,-155.36C551.54,-146.83 638.48,-129.37 710.77,-108 713.52,-107.19 716.35,-106.29 719.18,-105.35"/>
<polygon fill="black" stroke="black" points="720.45,-108.62 728.75,-102.03 718.15,-102 720.45,-108.62"/>
</g>
<!-- NotReadyForSG?* -->
<g id="node14" class="node">
<title>NotReadyForSG?*</title>
<ellipse fill="gray" stroke="black" cx="861.77" cy="-90" rx="49.8" ry="18"/>
<text text-anchor="middle" x="861.77" y="-87.8" font-family="Times,serif" font-size="9.00">NotReadyForSG?*</text>
</g>
<!-- Sequence&#45;&gt;NotReadyForSG?* -->
<g id="edge13" class="edge">
<title>Sequence&#45;&gt;NotReadyForSG?*</title>
<path fill="none" stroke="black" d="M506.21,-157.2C564.91,-149.82 694.97,-132.15 802.77,-108 806.86,-107.08 811.09,-106.05 815.32,-104.95"/>
<polygon fill="black" stroke="black" points="816.38,-108.29 825.12,-102.3 814.55,-101.53 816.38,-108.29"/>
</g>
<!-- NotReadyForSG? -->
<g id="node4" class="node">
<title>NotReadyForSG?</title>
<ellipse fill="gray" stroke="black" cx="46.77" cy="-18" rx="46.53" ry="18"/>
<text text-anchor="middle" x="46.77" y="-15.8" font-family="Times,serif" font-size="9.00">NotReadyForSG?</text>
</g>
<!-- Fallback*&#45;&gt;NotReadyForSG? -->
<g id="edge3" class="edge">
<title>Fallback*&#45;&gt;NotReadyForSG?</title>
<path fill="none" stroke="black" d="M123,-75.17C109.49,-65.22 91.02,-51.61 75.65,-40.28"/>
<polygon fill="black" stroke="black" points="77.6,-37.37 67.47,-34.26 73.45,-43.01 77.6,-37.37"/>
</g>
<!-- LkGraph? -->
<g id="node5" class="node">
<title>LkGraph?</title>
<ellipse fill="gray" stroke="black" cx="141.77" cy="-18" rx="30.7" ry="18"/>
<text text-anchor="middle" x="141.77" y="-15.8" font-family="Times,serif" font-size="9.00">LkGraph?</text>
</g>
<!-- Fallback*&#45;&gt;LkGraph? -->
<g id="edge4" class="edge">
<title>Fallback*&#45;&gt;LkGraph?</title>
<path fill="none" stroke="black" d="M141.77,-71.7C141.77,-63.98 141.77,-54.71 141.77,-46.11"/>
<polygon fill="black" stroke="black" points="145.27,-46.1 141.77,-36.1 138.27,-46.1 145.27,-46.1"/>
</g>
<!-- GetSubGoal! -->
<g id="node6" class="node">
<title>GetSubGoal!</title>
<ellipse fill="gray" stroke="black" cx="227.77" cy="-18" rx="36.9" ry="18"/>
<text text-anchor="middle" x="227.77" y="-15.8" font-family="Times,serif" font-size="9.00">GetSubGoal!</text>
</g>
<!-- Fallback*&#45;&gt;GetSubGoal! -->
<g id="edge5" class="edge">
<title>Fallback*&#45;&gt;GetSubGoal!</title>
<path fill="none" stroke="black" d="M159.58,-74.5C171.73,-64.61 188,-51.36 201.61,-40.29"/>
<polygon fill="black" stroke="black" points="204.13,-42.75 209.67,-33.73 199.71,-37.32 204.13,-42.75"/>
</g>
</g>
</svg>
