<?xml version="1.0" encoding="UTF-8" standalone="no"?>
<!DOCTYPE svg PUBLIC "-//W3C//DTD SVG 1.1//EN"
 "http://www.w3.org/Graphics/SVG/1.1/DTD/svg11.dtd">
<!-- Generated by graphviz version 2.43.0 (0)
 -->
<!-- Title: pastafarianism Pages: 1 -->
<svg width="809pt" height="332pt"
 viewBox="0.00 0.00 808.86 332.00" xmlns="http://www.w3.org/2000/svg" xmlns:xlink="http://www.w3.org/1999/xlink">
<g id="graph0" class="graph" transform="scale(1 1) rotate(0) translate(4 328)">
<title>pastafarianism</title>
<polygon fill="white" stroke="transparent" points="-4,4 -4,-328 804.86,-328 804.86,4 -4,4"/>
<!-- Sequence -->
<g id="node1" class="node">
<title>Sequence</title>
<polygon fill="cyan" stroke="black" points="382.65,-298.54 382.65,-313.46 364.2,-324 338.11,-324 319.66,-313.46 319.66,-298.54 338.11,-288 364.2,-288 382.65,-298.54"/>
<text text-anchor="middle" x="351.16" y="-303.8" font-family="Times,serif" font-size="9.00">Sequence</text>
</g>
<!-- Fallback -->
<g id="node2" class="node">
<title>Fallback</title>
<polygon fill="cyan" stroke="black" points="196.4,-226.54 196.4,-241.46 179.27,-252 155.04,-252 137.91,-241.46 137.91,-226.54 155.04,-216 179.27,-216 196.4,-226.54"/>
<text text-anchor="middle" x="167.16" y="-231.8" font-family="Times,serif" font-size="9.00">Fallback</text>
</g>
<!-- Sequence&#45;&gt;Fallback -->
<g id="edge1" class="edge">
<title>Sequence&#45;&gt;Fallback</title>
<path fill="none" stroke="black" d="M325.19,-295.12C292.77,-282.79 237.24,-261.66 201.38,-248.02"/>
<polygon fill="black" stroke="black" points="202.41,-244.67 191.82,-244.38 199.92,-251.21 202.41,-244.67"/>
</g>
<!-- Fallback** -->
<g id="node9" class="node">
<title>Fallback**</title>
<polygon fill="cyan" stroke="black" points="386.15,-226.54 386.15,-241.46 365.65,-252 336.66,-252 316.17,-241.46 316.17,-226.54 336.66,-216 365.65,-216 386.15,-226.54"/>
<text text-anchor="middle" x="351.16" y="-231.8" font-family="Times,serif" font-size="9.00">Fallback**</text>
</g>
<!-- Sequence&#45;&gt;Fallback** -->
<g id="edge8" class="edge">
<title>Sequence&#45;&gt;Fallback**</title>
<path fill="none" stroke="black" d="M351.16,-287.7C351.16,-279.98 351.16,-270.71 351.16,-262.11"/>
<polygon fill="black" stroke="black" points="354.66,-262.1 351.16,-252.1 347.66,-262.1 354.66,-262.1"/>
</g>
<!-- Fallback**** -->
<g id="node16" class="node">
<title>Fallback****</title>
<polygon fill="cyan" stroke="black" points="575.9,-226.54 575.9,-241.46 552.03,-252 518.28,-252 494.42,-241.46 494.42,-226.54 518.28,-216 552.03,-216 575.9,-226.54"/>
<text text-anchor="middle" x="535.16" y="-231.8" font-family="Times,serif" font-size="9.00">Fallback****</text>
</g>
<!-- Sequence&#45;&gt;Fallback**** -->
<g id="edge15" class="edge">
<title>Sequence&#45;&gt;Fallback****</title>
<path fill="none" stroke="black" d="M377.13,-295.12C408.01,-283.37 459.86,-263.65 495.7,-250.01"/>
<polygon fill="black" stroke="black" points="497.25,-253.17 505.35,-246.34 494.76,-246.62 497.25,-253.17"/>
</g>
<!-- 0 at pos (0.0, 0.0, 0.0)? -->
<g id="node3" class="node">
<title>0 at pos (0.0, 0.0, 0.0)?</title>
<ellipse fill="gray" stroke="black" cx="57.16" cy="-162" rx="57.32" ry="18"/>
<text text-anchor="middle" x="57.16" y="-159.8" font-family="Times,serif" font-size="9.00">0 at pos (0.0, 0.0, 0.0)?</text>
</g>
<!-- Fallback&#45;&gt;0 at pos (0.0, 0.0, 0.0)? -->
<g id="edge2" class="edge">
<title>Fallback&#45;&gt;0 at pos (0.0, 0.0, 0.0)?</title>
<path fill="none" stroke="black" d="M147.49,-220.49C131.49,-210.3 108.56,-195.71 89.81,-183.78"/>
<polygon fill="black" stroke="black" points="91.58,-180.75 81.26,-178.34 87.82,-186.66 91.58,-180.75"/>
</g>
<!-- Sequence* -->
<g id="node4" class="node">
<title>Sequence*</title>
<polygon fill="cyan" stroke="black" points="201.4,-154.54 201.4,-169.46 181.34,-180 152.97,-180 132.92,-169.46 132.92,-154.54 152.97,-144 181.34,-144 201.4,-154.54"/>
<text text-anchor="middle" x="167.16" y="-159.8" font-family="Times,serif" font-size="9.00">Sequence*</text>
</g>
<!-- Fallback&#45;&gt;Sequence* -->
<g id="edge3" class="edge">
<title>Fallback&#45;&gt;Sequence*</title>
<path fill="none" stroke="black" d="M167.16,-215.7C167.16,-207.98 167.16,-198.71 167.16,-190.11"/>
<polygon fill="black" stroke="black" points="170.66,-190.1 167.16,-180.1 163.66,-190.1 170.66,-190.1"/>
</g>
<!-- Fallback* -->
<g id="node5" class="node">
<title>Fallback*</title>
<polygon fill="cyan" stroke="black" points="145.9,-82.54 145.9,-97.46 127.31,-108 101.01,-108 82.42,-97.46 82.42,-82.54 101.01,-72 127.31,-72 145.9,-82.54"/>
<text text-anchor="middle" x="114.16" y="-87.8" font-family="Times,serif" font-size="9.00">Fallback*</text>
</g>
<!-- Sequence*&#45;&gt;Fallback* -->
<g id="edge4" class="edge">
<title>Sequence*&#45;&gt;Fallback*</title>
<path fill="none" stroke="black" d="M154.06,-143.7C147.77,-135.39 140.11,-125.28 133.19,-116.14"/>
<polygon fill="black" stroke="black" points="135.93,-113.96 127.11,-108.1 130.35,-118.19 135.93,-113.96"/>
</g>
<!-- place at (0.0, 0.0, 0.0)! -->
<g id="node8" class="node">
<title>place at (0.0, 0.0, 0.0)!</title>
<ellipse fill="gray" stroke="black" cx="220.16" cy="-90" rx="56.01" ry="18"/>
<text text-anchor="middle" x="220.16" y="-87.8" font-family="Times,serif" font-size="9.00">place at (0.0, 0.0, 0.0)!</text>
</g>
<!-- Sequence*&#45;&gt;place at (0.0, 0.0, 0.0)! -->
<g id="edge7" class="edge">
<title>Sequence*&#45;&gt;place at (0.0, 0.0, 0.0)!</title>
<path fill="none" stroke="black" d="M180.26,-143.7C186.64,-135.27 194.43,-124.97 201.43,-115.73"/>
<polygon fill="black" stroke="black" points="204.33,-117.71 207.57,-107.62 198.75,-113.48 204.33,-117.71"/>
</g>
<!-- picked 0? -->
<g id="node6" class="node">
<title>picked 0?</title>
<ellipse fill="gray" stroke="black" cx="77.16" cy="-18" rx="28.74" ry="18"/>
<text text-anchor="middle" x="77.16" y="-15.8" font-family="Times,serif" font-size="9.00">picked 0?</text>
</g>
<!-- Fallback*&#45;&gt;picked 0? -->
<g id="edge5" class="edge">
<title>Fallback*&#45;&gt;picked 0?</title>
<path fill="none" stroke="black" d="M105.01,-71.7C100.69,-63.52 95.45,-53.6 90.68,-44.58"/>
<polygon fill="black" stroke="black" points="93.71,-42.83 85.94,-35.62 87.52,-46.1 93.71,-42.83"/>
</g>
<!-- pick 0! -->
<g id="node7" class="node">
<title>pick 0!</title>
<ellipse fill="gray" stroke="black" cx="151.16" cy="-18" rx="27" ry="18"/>
<text text-anchor="middle" x="151.16" y="-15.8" font-family="Times,serif" font-size="9.00">pick 0!</text>
</g>
<!-- Fallback*&#45;&gt;pick 0! -->
<g id="edge6" class="edge">
<title>Fallback*&#45;&gt;pick 0!</title>
<path fill="none" stroke="black" d="M123.3,-71.7C127.69,-63.4 133.02,-53.31 137.84,-44.19"/>
<polygon fill="black" stroke="black" points="141.05,-45.62 142.62,-35.14 134.86,-42.35 141.05,-45.62"/>
</g>
<!-- 2 at pos (0.016, &#45;0.032, 0.0)? -->
<g id="node10" class="node">
<title>2 at pos (0.016, &#45;0.032, 0.0)?</title>
<ellipse fill="gray" stroke="black" cx="289.16" cy="-162" rx="69.06" ry="18"/>
<text text-anchor="middle" x="289.16" y="-159.8" font-family="Times,serif" font-size="9.00">2 at pos (0.016, &#45;0.032, 0.0)?</text>
</g>
<!-- Fallback**&#45;&gt;2 at pos (0.016, &#45;0.032, 0.0)? -->
<g id="edge9" class="edge">
<title>Fallback**&#45;&gt;2 at pos (0.016, &#45;0.032, 0.0)?</title>
<path fill="none" stroke="black" d="M336.15,-216.05C328.53,-207.46 319.14,-196.86 310.77,-187.4"/>
<polygon fill="black" stroke="black" points="313.28,-184.95 304.03,-179.79 308.04,-189.6 313.28,-184.95"/>
</g>
<!-- Sequence** -->
<g id="node11" class="node">
<title>Sequence**</title>
<polygon fill="cyan" stroke="black" points="449.9,-154.54 449.9,-169.46 428.38,-180 397.94,-180 376.42,-169.46 376.42,-154.54 397.94,-144 428.38,-144 449.9,-154.54"/>
<text text-anchor="middle" x="413.16" y="-159.8" font-family="Times,serif" font-size="9.00">Sequence**</text>
</g>
<!-- Fallback**&#45;&gt;Sequence** -->
<g id="edge10" class="edge">
<title>Fallback**&#45;&gt;Sequence**</title>
<path fill="none" stroke="black" d="M366.17,-216.05C373.67,-207.58 382.89,-197.17 391.18,-187.82"/>
<polygon fill="black" stroke="black" points="393.85,-190.08 397.86,-180.28 388.61,-185.44 393.85,-190.08"/>
</g>
<!-- Fallback*** -->
<g id="node12" class="node">
<title>Fallback***</title>
<polygon fill="cyan" stroke="black" points="380.65,-82.54 380.65,-97.46 358.69,-108 327.63,-108 305.67,-97.46 305.67,-82.54 327.63,-72 358.69,-72 380.65,-82.54"/>
<text text-anchor="middle" x="343.16" y="-87.8" font-family="Times,serif" font-size="9.00">Fallback***</text>
</g>
<!-- Sequence**&#45;&gt;Fallback*** -->
<g id="edge11" class="edge">
<title>Sequence**&#45;&gt;Fallback***</title>
<path fill="none" stroke="black" d="M396.57,-144.41C387.81,-135.65 376.89,-124.73 367.21,-115.06"/>
<polygon fill="black" stroke="black" points="369.66,-112.55 360.11,-107.96 364.71,-117.5 369.66,-112.55"/>
</g>
<!-- place at (0.016, &#45;0.032, 0.0)! -->
<g id="node15" class="node">
<title>place at (0.016, &#45;0.032, 0.0)!</title>
<ellipse fill="gray" stroke="black" cx="467.16" cy="-90" rx="68.25" ry="18"/>
<text text-anchor="middle" x="467.16" y="-87.8" font-family="Times,serif" font-size="9.00">place at (0.016, &#45;0.032, 0.0)!</text>
</g>
<!-- Sequence**&#45;&gt;place at (0.016, &#45;0.032, 0.0)! -->
<g id="edge14" class="edge">
<title>Sequence**&#45;&gt;place at (0.016, &#45;0.032, 0.0)!</title>
<path fill="none" stroke="black" d="M426.51,-143.7C432.91,-135.39 440.72,-125.28 447.76,-116.14"/>
<polygon fill="black" stroke="black" points="450.63,-118.16 453.96,-108.1 445.08,-113.88 450.63,-118.16"/>
</g>
<!-- picked 2? -->
<g id="node13" class="node">
<title>picked 2?</title>
<ellipse fill="gray" stroke="black" cx="306.16" cy="-18" rx="28.74" ry="18"/>
<text text-anchor="middle" x="306.16" y="-15.8" font-family="Times,serif" font-size="9.00">picked 2?</text>
</g>
<!-- Fallback***&#45;&gt;picked 2? -->
<g id="edge12" class="edge">
<title>Fallback***&#45;&gt;picked 2?</title>
<path fill="none" stroke="black" d="M334.01,-71.7C329.69,-63.52 324.45,-53.6 319.68,-44.58"/>
<polygon fill="black" stroke="black" points="322.71,-42.83 314.94,-35.62 316.52,-46.1 322.71,-42.83"/>
</g>
<!-- pick 2! -->
<g id="node14" class="node">
<title>pick 2!</title>
<ellipse fill="gray" stroke="black" cx="380.16" cy="-18" rx="27" ry="18"/>
<text text-anchor="middle" x="380.16" y="-15.8" font-family="Times,serif" font-size="9.00">pick 2!</text>
</g>
<!-- Fallback***&#45;&gt;pick 2! -->
<g id="edge13" class="edge">
<title>Fallback***&#45;&gt;pick 2!</title>
<path fill="none" stroke="black" d="M352.3,-71.7C356.69,-63.4 362.02,-53.31 366.84,-44.19"/>
<polygon fill="black" stroke="black" points="370.05,-45.62 371.62,-35.14 363.86,-42.35 370.05,-45.62"/>
</g>
<!-- 3 at pos (0.016, 0.032, 0.0)? -->
<g id="node17" class="node">
<title>3 at pos (0.016, 0.032, 0.0)?</title>
<ellipse fill="gray" stroke="black" cx="535.16" cy="-162" rx="67.6" ry="18"/>
<text text-anchor="middle" x="535.16" y="-159.8" font-family="Times,serif" font-size="9.00">3 at pos (0.016, 0.032, 0.0)?</text>
</g>
<!-- Fallback****&#45;&gt;3 at pos (0.016, 0.032, 0.0)? -->
<g id="edge16" class="edge">
<title>Fallback****&#45;&gt;3 at pos (0.016, 0.032, 0.0)?</title>
<path fill="none" stroke="black" d="M535.16,-215.7C535.16,-207.98 535.16,-198.71 535.16,-190.11"/>
<polygon fill="black" stroke="black" points="538.66,-190.1 535.16,-180.1 531.66,-190.1 538.66,-190.1"/>
</g>
<!-- Sequence*** -->
<g id="node18" class="node">
<title>Sequence***</title>
<polygon fill="cyan" stroke="black" points="701.15,-154.54 701.15,-169.46 677.72,-180 644.59,-180 621.17,-169.46 621.17,-154.54 644.59,-144 677.72,-144 701.15,-154.54"/>
<text text-anchor="middle" x="661.16" y="-159.8" font-family="Times,serif" font-size="9.00">Sequence***</text>
</g>
<!-- Fallback****&#45;&gt;Sequence*** -->
<g id="edge17" class="edge">
<title>Fallback****&#45;&gt;Sequence***</title>
<path fill="none" stroke="black" d="M559.75,-219.34C579.18,-208.54 606.48,-193.38 627.87,-181.5"/>
<polygon fill="black" stroke="black" points="629.58,-184.54 636.63,-176.63 626.19,-178.43 629.58,-184.54"/>
</g>
<!-- Fallback***** -->
<g id="node19" class="node">
<title>Fallback*****</title>
<polygon fill="cyan" stroke="black" points="645.4,-82.54 645.4,-97.46 620.07,-108 584.25,-108 558.92,-97.46 558.92,-82.54 584.25,-72 620.07,-72 645.4,-82.54"/>
<text text-anchor="middle" x="602.16" y="-87.8" font-family="Times,serif" font-size="9.00">Fallback*****</text>
</g>
<!-- Sequence***&#45;&gt;Fallback***** -->
<g id="edge18" class="edge">
<title>Sequence***&#45;&gt;Fallback*****</title>
<path fill="none" stroke="black" d="M646.57,-143.7C639.5,-135.3 630.87,-125.07 623.11,-115.86"/>
<polygon fill="black" stroke="black" points="625.7,-113.49 616.57,-108.1 620.34,-118.01 625.7,-113.49"/>
</g>
<!-- place at (0.016, 0.032, 0.0)!* -->
<g id="node23" class="node">
<title>place at (0.016, 0.032, 0.0)!*</title>
<ellipse fill="gray" stroke="black" cx="732.16" cy="-90" rx="68.91" ry="18"/>
<text text-anchor="middle" x="732.16" y="-87.8" font-family="Times,serif" font-size="9.00">place at (0.016, 0.032, 0.0)!*</text>
</g>
<!-- Sequence***&#45;&gt;place at (0.016, 0.032, 0.0)!* -->
<g id="edge22" class="edge">
<title>Sequence***&#45;&gt;place at (0.016, 0.032, 0.0)!*</title>
<path fill="none" stroke="black" d="M678.34,-144.05C687.24,-135.28 698.25,-124.43 707.99,-114.83"/>
<polygon fill="black" stroke="black" points="710.47,-117.3 715.13,-107.79 705.55,-112.32 710.47,-117.3"/>
</g>
<!-- picked 3? -->
<g id="node20" class="node">
<title>picked 3?</title>
<ellipse fill="gray" stroke="black" cx="528.16" cy="-18" rx="28.74" ry="18"/>
<text text-anchor="middle" x="528.16" y="-15.8" font-family="Times,serif" font-size="9.00">picked 3?</text>
</g>
<!-- Fallback*****&#45;&gt;picked 3? -->
<g id="edge19" class="edge">
<title>Fallback*****&#45;&gt;picked 3?</title>
<path fill="none" stroke="black" d="M583.87,-71.7C573.95,-62.31 561.59,-50.63 551.04,-40.65"/>
<polygon fill="black" stroke="black" points="553.41,-38.07 543.74,-33.74 548.6,-43.15 553.41,-38.07"/>
</g>
<!-- pick 3! -->
<g id="node21" class="node">
<title>pick 3!</title>
<ellipse fill="gray" stroke="black" cx="602.16" cy="-18" rx="27" ry="18"/>
<text text-anchor="middle" x="602.16" y="-15.8" font-family="Times,serif" font-size="9.00">pick 3!</text>
</g>
<!-- Fallback*****&#45;&gt;pick 3! -->
<g id="edge20" class="edge">
<title>Fallback*****&#45;&gt;pick 3!</title>
<path fill="none" stroke="black" d="M602.16,-71.7C602.16,-63.98 602.16,-54.71 602.16,-46.11"/>
<polygon fill="black" stroke="black" points="605.66,-46.1 602.16,-36.1 598.66,-46.1 605.66,-46.1"/>
</g>
<!-- place at (0.016, 0.032, 0.0)! -->
<g id="node22" class="node">
<title>place at (0.016, 0.032, 0.0)!</title>
<ellipse fill="gray" stroke="black" cx="713.16" cy="-18" rx="66.29" ry="18"/>
<text text-anchor="middle" x="713.16" y="-15.8" font-family="Times,serif" font-size="9.00">place at (0.016, 0.032, 0.0)!</text>
</g>
<!-- Fallback*****&#45;&gt;place at (0.016, 0.032, 0.0)! -->
<g id="edge21" class="edge">
<title>Fallback*****&#45;&gt;place at (0.016, 0.032, 0.0)!</title>
<path fill="none" stroke="black" d="M625.7,-74.15C641.31,-64.31 662.03,-51.24 679.38,-40.3"/>
<polygon fill="black" stroke="black" points="681.52,-43.09 688.11,-34.8 677.78,-37.17 681.52,-43.09"/>
</g>
</g>
</svg>
