<?xml version="1.0" encoding="UTF-8" standalone="no"?>
<!DOCTYPE svg PUBLIC "-//W3C//DTD SVG 1.1//EN"
 "http://www.w3.org/Graphics/SVG/1.1/DTD/svg11.dtd">
<!-- Generated by graphviz version 2.43.0 (0)
 -->
<!-- Title: pastafarianism Pages: 1 -->
<svg width="1094pt" height="260pt"
 viewBox="0.00 0.00 1093.55 260.00" xmlns="http://www.w3.org/2000/svg" xmlns:xlink="http://www.w3.org/1999/xlink">
<g id="graph0" class="graph" transform="scale(1 1) rotate(0) translate(4 256)">
<title>pastafarianism</title>
<polygon fill="white" stroke="transparent" points="-4,4 -4,-256 1089.55,-256 1089.55,4 -4,4"/>
<!-- Sequence -->
<g id="node1" class="node">
<title>Sequence</title>
<polygon fill="cyan" stroke="black" points="678.65,-226.54 678.65,-241.46 660.2,-252 634.11,-252 615.66,-241.46 615.66,-226.54 634.11,-216 660.2,-216 678.65,-226.54"/>
<text text-anchor="middle" x="647.16" y="-231.8" font-family="Times,serif" font-size="9.00">Sequence</text>
</g>
<!-- Fallback -->
<g id="node2" class="node">
<title>Fallback</title>
<polygon fill="cyan" stroke="black" points="196.4,-154.54 196.4,-169.46 179.27,-180 155.04,-180 137.91,-169.46 137.91,-154.54 155.04,-144 179.27,-144 196.4,-154.54"/>
<text text-anchor="middle" x="167.16" y="-159.8" font-family="Times,serif" font-size="9.00">Fallback</text>
</g>
<!-- Sequence&#45;&gt;Fallback -->
<g id="edge1" class="edge">
<title>Sequence&#45;&gt;Fallback</title>
<path fill="none" stroke="black" d="M615.66,-228.41C531.22,-216.09 299.84,-182.35 206.74,-168.77"/>
<polygon fill="black" stroke="black" points="207.01,-165.27 196.61,-167.29 206,-172.2 207.01,-165.27"/>
</g>
<!-- Fallback* -->
<g id="node7" class="node">
<title>Fallback*</title>
<polygon fill="cyan" stroke="black" points="560.9,-154.54 560.9,-169.46 542.31,-180 516.01,-180 497.42,-169.46 497.42,-154.54 516.01,-144 542.31,-144 560.9,-154.54"/>
<text text-anchor="middle" x="529.16" y="-159.8" font-family="Times,serif" font-size="9.00">Fallback*</text>
</g>
<!-- Sequence&#45;&gt;Fallback* -->
<g id="edge6" class="edge">
<title>Sequence&#45;&gt;Fallback*</title>
<path fill="none" stroke="black" d="M626.06,-220.49C607.47,-209.46 580.16,-193.26 559.27,-180.86"/>
<polygon fill="black" stroke="black" points="560.86,-177.73 550.47,-175.64 557.28,-183.75 560.86,-177.73"/>
</g>
<!-- pick 3!** -->
<g id="node19" class="node">
<title>pick 3!**</title>
<ellipse fill="gray" stroke="black" cx="647.16" cy="-162" rx="28.74" ry="18"/>
<text text-anchor="middle" x="647.16" y="-159.8" font-family="Times,serif" font-size="9.00">pick 3!**</text>
</g>
<!-- Sequence&#45;&gt;pick 3!** -->
<g id="edge18" class="edge">
<title>Sequence&#45;&gt;pick 3!**</title>
<path fill="none" stroke="black" d="M647.16,-215.7C647.16,-207.98 647.16,-198.71 647.16,-190.11"/>
<polygon fill="black" stroke="black" points="650.66,-190.1 647.16,-180.1 643.66,-190.1 650.66,-190.1"/>
</g>
<!-- Fallback** -->
<g id="node20" class="node">
<title>Fallback**</title>
<polygon fill="cyan" stroke="black" points="840.15,-154.54 840.15,-169.46 819.65,-180 790.66,-180 770.17,-169.46 770.17,-154.54 790.66,-144 819.65,-144 840.15,-154.54"/>
<text text-anchor="middle" x="805.16" y="-159.8" font-family="Times,serif" font-size="9.00">Fallback**</text>
</g>
<!-- Sequence&#45;&gt;Fallback** -->
<g id="edge19" class="edge">
<title>Sequence&#45;&gt;Fallback**</title>
<path fill="none" stroke="black" d="M671.5,-222.22C697.9,-210.52 740.28,-191.75 770.23,-178.48"/>
<polygon fill="black" stroke="black" points="771.75,-181.63 779.48,-174.38 768.92,-175.23 771.75,-181.63"/>
</g>
<!-- apply force 1! -->
<g id="node27" class="node">
<title>apply force 1!</title>
<ellipse fill="gray" stroke="black" cx="896.16" cy="-162" rx="38.21" ry="18"/>
<text text-anchor="middle" x="896.16" y="-159.8" font-family="Times,serif" font-size="9.00">apply force 1!</text>
</g>
<!-- Sequence&#45;&gt;apply force 1! -->
<g id="edge26" class="edge">
<title>Sequence&#45;&gt;apply force 1!</title>
<path fill="none" stroke="black" d="M677.86,-225.86C717.66,-216.4 789.1,-198.7 849.16,-180 851.91,-179.14 854.75,-178.22 857.6,-177.26"/>
<polygon fill="black" stroke="black" points="858.91,-180.51 867.21,-173.93 856.62,-173.9 858.91,-180.51"/>
</g>
<!-- 0 at pos (0.0, 0.0, 0.0)? -->
<g id="node3" class="node">
<title>0 at pos (0.0, 0.0, 0.0)?</title>
<ellipse fill="gray" stroke="black" cx="57.16" cy="-90" rx="57.32" ry="18"/>
<text text-anchor="middle" x="57.16" y="-87.8" font-family="Times,serif" font-size="9.00">0 at pos (0.0, 0.0, 0.0)?</text>
</g>
<!-- Fallback&#45;&gt;0 at pos (0.0, 0.0, 0.0)? -->
<g id="edge2" class="edge">
<title>Fallback&#45;&gt;0 at pos (0.0, 0.0, 0.0)?</title>
<path fill="none" stroke="black" d="M147.49,-148.49C131.49,-138.3 108.56,-123.71 89.81,-111.78"/>
<polygon fill="black" stroke="black" points="91.58,-108.75 81.26,-106.34 87.82,-114.66 91.58,-108.75"/>
</g>
<!-- Sequence* -->
<g id="node4" class="node">
<title>Sequence*</title>
<polygon fill="cyan" stroke="black" points="201.4,-82.54 201.4,-97.46 181.34,-108 152.97,-108 132.92,-97.46 132.92,-82.54 152.97,-72 181.34,-72 201.4,-82.54"/>
<text text-anchor="middle" x="167.16" y="-87.8" font-family="Times,serif" font-size="9.00">Sequence*</text>
</g>
<!-- Fallback&#45;&gt;Sequence* -->
<g id="edge3" class="edge">
<title>Fallback&#45;&gt;Sequence*</title>
<path fill="none" stroke="black" d="M167.16,-143.7C167.16,-135.98 167.16,-126.71 167.16,-118.11"/>
<polygon fill="black" stroke="black" points="170.66,-118.1 167.16,-108.1 163.66,-118.1 170.66,-118.1"/>
</g>
<!-- pick 0! -->
<g id="node5" class="node">
<title>pick 0!</title>
<ellipse fill="gray" stroke="black" cx="66.16" cy="-18" rx="27" ry="18"/>
<text text-anchor="middle" x="66.16" y="-15.8" font-family="Times,serif" font-size="9.00">pick 0!</text>
</g>
<!-- Sequence*&#45;&gt;pick 0! -->
<g id="edge4" class="edge">
<title>Sequence*&#45;&gt;pick 0!</title>
<path fill="none" stroke="black" d="M146.72,-74.83C131.11,-64.02 109.48,-49.02 92.56,-37.3"/>
<polygon fill="black" stroke="black" points="94.41,-34.32 84.2,-31.5 90.42,-40.08 94.41,-34.32"/>
</g>
<!-- place at (0.0, 0.0, 0.0)! -->
<g id="node6" class="node">
<title>place at (0.0, 0.0, 0.0)!</title>
<ellipse fill="gray" stroke="black" cx="167.16" cy="-18" rx="56.01" ry="18"/>
<text text-anchor="middle" x="167.16" y="-15.8" font-family="Times,serif" font-size="9.00">place at (0.0, 0.0, 0.0)!</text>
</g>
<!-- Sequence*&#45;&gt;place at (0.0, 0.0, 0.0)! -->
<g id="edge5" class="edge">
<title>Sequence*&#45;&gt;place at (0.0, 0.0, 0.0)!</title>
<path fill="none" stroke="black" d="M167.16,-71.7C167.16,-63.98 167.16,-54.71 167.16,-46.11"/>
<polygon fill="black" stroke="black" points="170.66,-46.1 167.16,-36.1 163.66,-46.1 170.66,-46.1"/>
</g>
<!-- 2 at pos (0.016, &#45;0.032, 0.0)? -->
<g id="node8" class="node">
<title>2 at pos (0.016, &#45;0.032, 0.0)?</title>
<ellipse fill="gray" stroke="black" cx="291.16" cy="-90" rx="69.06" ry="18"/>
<text text-anchor="middle" x="291.16" y="-87.8" font-family="Times,serif" font-size="9.00">2 at pos (0.016, &#45;0.032, 0.0)?</text>
</g>
<!-- Fallback*&#45;&gt;2 at pos (0.016, &#45;0.032, 0.0)? -->
<g id="edge7" class="edge">
<title>Fallback*&#45;&gt;2 at pos (0.016, &#45;0.032, 0.0)?</title>
<path fill="none" stroke="black" d="M500.45,-152.56C462.05,-141.26 393.22,-121.02 345.01,-106.84"/>
<polygon fill="black" stroke="black" points="345.93,-103.46 335.35,-104 343.96,-110.18 345.93,-103.46"/>
</g>
<!-- picked 1? -->
<g id="node9" class="node">
<title>picked 1?</title>
<ellipse fill="gray" stroke="black" cx="407.16" cy="-90" rx="28.74" ry="18"/>
<text text-anchor="middle" x="407.16" y="-87.8" font-family="Times,serif" font-size="9.00">picked 1?</text>
</g>
<!-- Fallback*&#45;&gt;picked 1? -->
<g id="edge8" class="edge">
<title>Fallback*&#45;&gt;picked 1?</title>
<path fill="none" stroke="black" d="M507.63,-148.65C487.88,-137.31 458.45,-120.43 436.54,-107.86"/>
<polygon fill="black" stroke="black" points="438.08,-104.7 427.66,-102.76 434.59,-110.78 438.08,-104.7"/>
</g>
<!-- Sequence** -->
<g id="node10" class="node">
<title>Sequence**</title>
<polygon fill="cyan" stroke="black" points="527.9,-82.54 527.9,-97.46 506.38,-108 475.94,-108 454.42,-97.46 454.42,-82.54 475.94,-72 506.38,-72 527.9,-82.54"/>
<text text-anchor="middle" x="491.16" y="-87.8" font-family="Times,serif" font-size="9.00">Sequence**</text>
</g>
<!-- Fallback*&#45;&gt;Sequence** -->
<g id="edge9" class="edge">
<title>Fallback*&#45;&gt;Sequence**</title>
<path fill="none" stroke="black" d="M519.76,-143.7C515.39,-135.64 510.1,-125.89 505.26,-116.98"/>
<polygon fill="black" stroke="black" points="508.29,-115.22 500.44,-108.1 502.14,-118.56 508.29,-115.22"/>
</g>
<!-- place at (0.0, 0.0, 0.0)!* -->
<g id="node15" class="node">
<title>place at (0.0, 0.0, 0.0)!*</title>
<ellipse fill="gray" stroke="black" cx="604.16" cy="-90" rx="58.13" ry="18"/>
<text text-anchor="middle" x="604.16" y="-87.8" font-family="Times,serif" font-size="9.00">place at (0.0, 0.0, 0.0)!*</text>
</g>
<!-- Fallback*&#45;&gt;place at (0.0, 0.0, 0.0)!* -->
<g id="edge14" class="edge">
<title>Fallback*&#45;&gt;place at (0.0, 0.0, 0.0)!*</title>
<path fill="none" stroke="black" d="M545.8,-145.46C555.69,-136.24 568.42,-124.36 579.46,-114.05"/>
<polygon fill="black" stroke="black" points="581.85,-116.6 586.78,-107.22 577.08,-111.49 581.85,-116.6"/>
</g>
<!-- Sequence*** -->
<g id="node16" class="node">
<title>Sequence***</title>
<polygon fill="cyan" stroke="black" points="760.15,-82.54 760.15,-97.46 736.72,-108 703.59,-108 680.17,-97.46 680.17,-82.54 703.59,-72 736.72,-72 760.15,-82.54"/>
<text text-anchor="middle" x="720.16" y="-87.8" font-family="Times,serif" font-size="9.00">Sequence***</text>
</g>
<!-- Fallback*&#45;&gt;Sequence*** -->
<g id="edge15" class="edge">
<title>Fallback*&#45;&gt;Sequence***</title>
<path fill="none" stroke="black" d="M555.72,-151.27C588.08,-139.4 643.08,-119.25 680.48,-105.54"/>
<polygon fill="black" stroke="black" points="681.87,-108.76 690.05,-102.03 679.46,-102.19 681.87,-108.76"/>
</g>
<!-- pick 2! -->
<g id="node11" class="node">
<title>pick 2!</title>
<ellipse fill="gray" stroke="black" cx="268.16" cy="-18" rx="27" ry="18"/>
<text text-anchor="middle" x="268.16" y="-15.8" font-family="Times,serif" font-size="9.00">pick 2!</text>
</g>
<!-- Sequence**&#45;&gt;pick 2! -->
<g id="edge10" class="edge">
<title>Sequence**&#45;&gt;pick 2!</title>
<path fill="none" stroke="black" d="M463.1,-78.1C457.21,-75.97 451.01,-73.82 445.16,-72 383.41,-52.76 365.01,-57.91 304.16,-36 302.3,-35.33 300.42,-34.6 298.53,-33.83"/>
<polygon fill="black" stroke="black" points="299.76,-30.55 289.19,-29.76 296.95,-36.97 299.76,-30.55"/>
</g>
<!-- place at (0.016, &#45;0.032, 0.0)! -->
<g id="node12" class="node">
<title>place at (0.016, &#45;0.032, 0.0)!</title>
<ellipse fill="gray" stroke="black" cx="381.16" cy="-18" rx="68.25" ry="18"/>
<text text-anchor="middle" x="381.16" y="-15.8" font-family="Times,serif" font-size="9.00">place at (0.016, &#45;0.032, 0.0)!</text>
</g>
<!-- Sequence**&#45;&gt;place at (0.016, &#45;0.032, 0.0)! -->
<g id="edge11" class="edge">
<title>Sequence**&#45;&gt;place at (0.016, &#45;0.032, 0.0)!</title>
<path fill="none" stroke="black" d="M469.43,-75.17C453.96,-65.33 432.88,-51.92 415.2,-40.66"/>
<polygon fill="black" stroke="black" points="416.63,-37.42 406.31,-35.01 412.87,-43.33 416.63,-37.42"/>
</g>
<!-- pick 3! -->
<g id="node13" class="node">
<title>pick 3!</title>
<ellipse fill="gray" stroke="black" cx="494.16" cy="-18" rx="27" ry="18"/>
<text text-anchor="middle" x="494.16" y="-15.8" font-family="Times,serif" font-size="9.00">pick 3!</text>
</g>
<!-- Sequence**&#45;&gt;pick 3! -->
<g id="edge12" class="edge">
<title>Sequence**&#45;&gt;pick 3!</title>
<path fill="none" stroke="black" d="M491.9,-71.7C492.23,-63.98 492.63,-54.71 493,-46.11"/>
<polygon fill="black" stroke="black" points="496.49,-46.25 493.42,-36.1 489.5,-45.95 496.49,-46.25"/>
</g>
<!-- pick 3!* -->
<g id="node14" class="node">
<title>pick 3!*</title>
<ellipse fill="gray" stroke="black" cx="566.16" cy="-18" rx="27" ry="18"/>
<text text-anchor="middle" x="566.16" y="-15.8" font-family="Times,serif" font-size="9.00">pick 3!*</text>
</g>
<!-- Sequence**&#45;&gt;pick 3!* -->
<g id="edge13" class="edge">
<title>Sequence**&#45;&gt;pick 3!*</title>
<path fill="none" stroke="black" d="M508.55,-72.76C518.96,-63.05 532.3,-50.6 543.52,-40.13"/>
<polygon fill="black" stroke="black" points="545.97,-42.63 550.89,-33.25 541.19,-37.51 545.97,-42.63"/>
</g>
<!-- pick 2!* -->
<g id="node17" class="node">
<title>pick 2!*</title>
<ellipse fill="gray" stroke="black" cx="638.16" cy="-18" rx="27" ry="18"/>
<text text-anchor="middle" x="638.16" y="-15.8" font-family="Times,serif" font-size="9.00">pick 2!*</text>
</g>
<!-- Sequence***&#45;&gt;pick 2!* -->
<g id="edge16" class="edge">
<title>Sequence***&#45;&gt;pick 2!*</title>
<path fill="none" stroke="black" d="M701.14,-72.76C689.42,-62.76 674.29,-49.85 661.81,-39.19"/>
<polygon fill="black" stroke="black" points="663.92,-36.39 654.04,-32.56 659.37,-41.71 663.92,-36.39"/>
</g>
<!-- place at (0.016, &#45;0.032, 0.0)!* -->
<g id="node18" class="node">
<title>place at (0.016, &#45;0.032, 0.0)!*</title>
<ellipse fill="gray" stroke="black" cx="753.16" cy="-18" rx="70.37" ry="18"/>
<text text-anchor="middle" x="753.16" y="-15.8" font-family="Times,serif" font-size="9.00">place at (0.016, &#45;0.032, 0.0)!*</text>
</g>
<!-- Sequence***&#45;&gt;place at (0.016, &#45;0.032, 0.0)!* -->
<g id="edge17" class="edge">
<title>Sequence***&#45;&gt;place at (0.016, &#45;0.032, 0.0)!*</title>
<path fill="none" stroke="black" d="M728.31,-71.7C732.07,-63.73 736.61,-54.1 740.78,-45.26"/>
<polygon fill="black" stroke="black" points="744,-46.64 745.09,-36.1 737.66,-43.66 744,-46.64"/>
</g>
<!-- 1 on 0? -->
<g id="node21" class="node">
<title>1 on 0?</title>
<ellipse fill="gray" stroke="black" cx="805.16" cy="-90" rx="27" ry="18"/>
<text text-anchor="middle" x="805.16" y="-87.8" font-family="Times,serif" font-size="9.00">1 on 0?</text>
</g>
<!-- Fallback**&#45;&gt;1 on 0? -->
<g id="edge20" class="edge">
<title>Fallback**&#45;&gt;1 on 0?</title>
<path fill="none" stroke="black" d="M805.16,-143.7C805.16,-135.98 805.16,-126.71 805.16,-118.11"/>
<polygon fill="black" stroke="black" points="808.66,-118.1 805.16,-108.1 801.66,-118.1 808.66,-118.1"/>
</g>
<!-- Sequence**** -->
<g id="node22" class="node">
<title>Sequence****</title>
<polygon fill="cyan" stroke="black" points="934.65,-82.54 934.65,-97.46 909.76,-108 874.56,-108 849.67,-97.46 849.67,-82.54 874.56,-72 909.76,-72 934.65,-82.54"/>
<text text-anchor="middle" x="892.16" y="-87.8" font-family="Times,serif" font-size="9.00">Sequence****</text>
</g>
<!-- Fallback**&#45;&gt;Sequence**** -->
<g id="edge21" class="edge">
<title>Fallback**&#45;&gt;Sequence****</title>
<path fill="none" stroke="black" d="M824.04,-145.81C835.79,-136.35 851.12,-124.02 864.26,-113.45"/>
<polygon fill="black" stroke="black" points="866.51,-116.13 872.11,-107.13 862.12,-110.68 866.51,-116.13"/>
</g>
<!-- place at (0.016, 0.032, 0.0)! -->
<g id="node26" class="node">
<title>place at (0.016, 0.032, 0.0)!</title>
<ellipse fill="gray" stroke="black" cx="1019.16" cy="-90" rx="66.29" ry="18"/>
<text text-anchor="middle" x="1019.16" y="-87.8" font-family="Times,serif" font-size="9.00">place at (0.016, 0.032, 0.0)!</text>
</g>
<!-- Fallback**&#45;&gt;place at (0.016, 0.032, 0.0)! -->
<g id="edge25" class="edge">
<title>Fallback**&#45;&gt;place at (0.016, 0.032, 0.0)!</title>
<path fill="none" stroke="black" d="M832.05,-150.29C837.67,-148.13 843.59,-145.94 849.16,-144 887.95,-130.48 932.27,-116.71 965.93,-106.6"/>
<polygon fill="black" stroke="black" points="967,-109.94 975.58,-103.72 964.99,-103.23 967,-109.94"/>
</g>
<!-- pick 1! -->
<g id="node23" class="node">
<title>pick 1!</title>
<ellipse fill="gray" stroke="black" cx="868.16" cy="-18" rx="27" ry="18"/>
<text text-anchor="middle" x="868.16" y="-15.8" font-family="Times,serif" font-size="9.00">pick 1!</text>
</g>
<!-- Sequence****&#45;&gt;pick 1! -->
<g id="edge22" class="edge">
<title>Sequence****&#45;&gt;pick 1!</title>
<path fill="none" stroke="black" d="M886.23,-71.7C883.48,-63.7 880.16,-54.02 877.13,-45.15"/>
<polygon fill="black" stroke="black" points="880.41,-43.95 873.86,-35.62 873.79,-46.22 880.41,-43.95"/>
</g>
<!-- place on 0! -->
<g id="node24" class="node">
<title>place on 0!</title>
<ellipse fill="gray" stroke="black" cx="945.16" cy="-18" rx="32.16" ry="18"/>
<text text-anchor="middle" x="945.16" y="-15.8" font-family="Times,serif" font-size="9.00">place on 0!</text>
</g>
<!-- Sequence****&#45;&gt;place on 0! -->
<g id="edge23" class="edge">
<title>Sequence****&#45;&gt;place on 0!</title>
<path fill="none" stroke="black" d="M905.26,-71.7C911.74,-63.14 919.66,-52.67 926.74,-43.33"/>
<polygon fill="black" stroke="black" points="929.69,-45.23 932.93,-35.14 924.11,-41 929.69,-45.23"/>
</g>
<!-- pick 0!* -->
<g id="node25" class="node">
<title>pick 0!*</title>
<ellipse fill="gray" stroke="black" cx="1022.16" cy="-18" rx="27" ry="18"/>
<text text-anchor="middle" x="1022.16" y="-15.8" font-family="Times,serif" font-size="9.00">pick 0!*</text>
</g>
<!-- Sequence****&#45;&gt;pick 0!* -->
<g id="edge24" class="edge">
<title>Sequence****&#45;&gt;pick 0!*</title>
<path fill="none" stroke="black" d="M917.84,-75.17C939.34,-63.6 970.02,-47.07 992.55,-34.94"/>
<polygon fill="black" stroke="black" points="994.51,-37.86 1001.65,-30.04 991.19,-31.7 994.51,-37.86"/>
</g>
</g>
</svg>
