<?xml version="1.0" encoding="UTF-8" standalone="no"?>
<!DOCTYPE svg PUBLIC "-//W3C//DTD SVG 1.1//EN"
 "http://www.w3.org/Graphics/SVG/1.1/DTD/svg11.dtd">
<!-- Generated by graphviz version 2.43.0 (0)
 -->
<!-- Title: pastafarianism Pages: 1 -->
<svg width="1345pt" height="332pt"
 viewBox="0.00 0.00 1344.55 332.00" xmlns="http://www.w3.org/2000/svg" xmlns:xlink="http://www.w3.org/1999/xlink">
<g id="graph0" class="graph" transform="scale(1 1) rotate(0) translate(4 328)">
<title>pastafarianism</title>
<polygon fill="white" stroke="transparent" points="-4,4 -4,-328 1340.55,-328 1340.55,4 -4,4"/>
<!-- Sequence -->
<g id="node1" class="node">
<title>Sequence</title>
<polygon fill="cyan" stroke="black" points="793.65,-298.54 793.65,-313.46 775.2,-324 749.11,-324 730.66,-313.46 730.66,-298.54 749.11,-288 775.2,-288 793.65,-298.54"/>
<text text-anchor="middle" x="762.16" y="-303.8" font-family="Times,serif" font-size="9.00">Sequence</text>
</g>
<!-- Fallback -->
<g id="node2" class="node">
<title>Fallback</title>
<polygon fill="cyan" stroke="black" points="196.4,-226.54 196.4,-241.46 179.27,-252 155.04,-252 137.91,-241.46 137.91,-226.54 155.04,-216 179.27,-216 196.4,-226.54"/>
<text text-anchor="middle" x="167.16" y="-231.8" font-family="Times,serif" font-size="9.00">Fallback</text>
</g>
<!-- Sequence&#45;&gt;Fallback -->
<g id="edge1" class="edge">
<title>Sequence&#45;&gt;Fallback</title>
<path fill="none" stroke="black" d="M730.59,-301.29C630.04,-289.46 317.43,-252.68 206.61,-239.64"/>
<polygon fill="black" stroke="black" points="206.86,-236.15 196.52,-238.45 206.05,-243.1 206.86,-236.15"/>
</g>
<!-- Fallback* -->
<g id="node7" class="node">
<title>Fallback*</title>
<polygon fill="cyan" stroke="black" points="425.9,-226.54 425.9,-241.46 407.31,-252 381.01,-252 362.42,-241.46 362.42,-226.54 381.01,-216 407.31,-216 425.9,-226.54"/>
<text text-anchor="middle" x="394.16" y="-231.8" font-family="Times,serif" font-size="9.00">Fallback*</text>
</g>
<!-- Sequence&#45;&gt;Fallback* -->
<g id="edge6" class="edge">
<title>Sequence&#45;&gt;Fallback*</title>
<path fill="none" stroke="black" d="M730.78,-299.03C664.55,-286.43 510.43,-257.12 435.94,-242.95"/>
<polygon fill="black" stroke="black" points="436.45,-239.48 425.98,-241.05 435.15,-246.36 436.45,-239.48"/>
</g>
<!-- Fallback*** -->
<g id="node14" class="node">
<title>Fallback***</title>
<polygon fill="cyan" stroke="black" points="758.65,-226.54 758.65,-241.46 736.69,-252 705.63,-252 683.67,-241.46 683.67,-226.54 705.63,-216 736.69,-216 758.65,-226.54"/>
<text text-anchor="middle" x="721.16" y="-231.8" font-family="Times,serif" font-size="9.00">Fallback***</text>
</g>
<!-- Sequence&#45;&gt;Fallback*** -->
<g id="edge13" class="edge">
<title>Sequence&#45;&gt;Fallback***</title>
<path fill="none" stroke="black" d="M752.02,-287.7C747.31,-279.64 741.6,-269.89 736.38,-260.98"/>
<polygon fill="black" stroke="black" points="739.25,-258.96 731.18,-252.1 733.21,-262.5 739.25,-258.96"/>
</g>
<!-- pick 3!* -->
<g id="node25" class="node">
<title>pick 3!*</title>
<ellipse fill="gray" stroke="black" cx="803.16" cy="-234" rx="27" ry="18"/>
<text text-anchor="middle" x="803.16" y="-231.8" font-family="Times,serif" font-size="9.00">pick 3!*</text>
</g>
<!-- Sequence&#45;&gt;pick 3!* -->
<g id="edge24" class="edge">
<title>Sequence&#45;&gt;pick 3!*</title>
<path fill="none" stroke="black" d="M772.29,-287.7C777.2,-279.32 783.19,-269.1 788.57,-259.9"/>
<polygon fill="black" stroke="black" points="791.67,-261.54 793.7,-251.14 785.63,-258 791.67,-261.54"/>
</g>
<!-- Fallback**** -->
<g id="node26" class="node">
<title>Fallback****</title>
<polygon fill="cyan" stroke="black" points="1089.9,-226.54 1089.9,-241.46 1066.03,-252 1032.28,-252 1008.42,-241.46 1008.42,-226.54 1032.28,-216 1066.03,-216 1089.9,-226.54"/>
<text text-anchor="middle" x="1049.16" y="-231.8" font-family="Times,serif" font-size="9.00">Fallback****</text>
</g>
<!-- Sequence&#45;&gt;Fallback**** -->
<g id="edge25" class="edge">
<title>Sequence&#45;&gt;Fallback****</title>
<path fill="none" stroke="black" d="M792.33,-297.64C842.67,-285.36 944.08,-260.63 1003.3,-246.18"/>
<polygon fill="black" stroke="black" points="1004.25,-249.56 1013.14,-243.79 1002.59,-242.75 1004.25,-249.56"/>
</g>
<!-- apply force 1! -->
<g id="node33" class="node">
<title>apply force 1!</title>
<ellipse fill="gray" stroke="black" cx="1146.16" cy="-234" rx="38.21" ry="18"/>
<text text-anchor="middle" x="1146.16" y="-231.8" font-family="Times,serif" font-size="9.00">apply force 1!</text>
</g>
<!-- Sequence&#45;&gt;apply force 1! -->
<g id="edge32" class="edge">
<title>Sequence&#45;&gt;apply force 1!</title>
<path fill="none" stroke="black" d="M793.69,-302.07C853.83,-296.04 988.73,-280.38 1099.16,-252 1102.09,-251.25 1105.09,-250.38 1108.1,-249.45"/>
<polygon fill="black" stroke="black" points="1109.2,-252.77 1117.6,-246.31 1107,-246.13 1109.2,-252.77"/>
</g>
<!-- 0 at pos (0.0, 0.0, 0.0)? -->
<g id="node3" class="node">
<title>0 at pos (0.0, 0.0, 0.0)?</title>
<ellipse fill="gray" stroke="black" cx="57.16" cy="-162" rx="57.32" ry="18"/>
<text text-anchor="middle" x="57.16" y="-159.8" font-family="Times,serif" font-size="9.00">0 at pos (0.0, 0.0, 0.0)?</text>
</g>
<!-- Fallback&#45;&gt;0 at pos (0.0, 0.0, 0.0)? -->
<g id="edge2" class="edge">
<title>Fallback&#45;&gt;0 at pos (0.0, 0.0, 0.0)?</title>
<path fill="none" stroke="black" d="M147.49,-220.49C131.49,-210.3 108.56,-195.71 89.81,-183.78"/>
<polygon fill="black" stroke="black" points="91.58,-180.75 81.26,-178.34 87.82,-186.66 91.58,-180.75"/>
</g>
<!-- Sequence* -->
<g id="node4" class="node">
<title>Sequence*</title>
<polygon fill="cyan" stroke="black" points="201.4,-154.54 201.4,-169.46 181.34,-180 152.97,-180 132.92,-169.46 132.92,-154.54 152.97,-144 181.34,-144 201.4,-154.54"/>
<text text-anchor="middle" x="167.16" y="-159.8" font-family="Times,serif" font-size="9.00">Sequence*</text>
</g>
<!-- Fallback&#45;&gt;Sequence* -->
<g id="edge3" class="edge">
<title>Fallback&#45;&gt;Sequence*</title>
<path fill="none" stroke="black" d="M167.16,-215.7C167.16,-207.98 167.16,-198.71 167.16,-190.11"/>
<polygon fill="black" stroke="black" points="170.66,-190.1 167.16,-180.1 163.66,-190.1 170.66,-190.1"/>
</g>
<!-- pick 0! -->
<g id="node5" class="node">
<title>pick 0!</title>
<ellipse fill="gray" stroke="black" cx="69.16" cy="-90" rx="27" ry="18"/>
<text text-anchor="middle" x="69.16" y="-87.8" font-family="Times,serif" font-size="9.00">pick 0!</text>
</g>
<!-- Sequence*&#45;&gt;pick 0! -->
<g id="edge4" class="edge">
<title>Sequence*&#45;&gt;pick 0!</title>
<path fill="none" stroke="black" d="M147.33,-146.83C132.41,-136.18 111.83,-121.48 95.53,-109.84"/>
<polygon fill="black" stroke="black" points="97.15,-106.7 86.98,-103.73 93.09,-112.39 97.15,-106.7"/>
</g>
<!-- place at (0.0, 0.0, 0.0)! -->
<g id="node6" class="node">
<title>place at (0.0, 0.0, 0.0)!</title>
<ellipse fill="gray" stroke="black" cx="170.16" cy="-90" rx="56.01" ry="18"/>
<text text-anchor="middle" x="170.16" y="-87.8" font-family="Times,serif" font-size="9.00">place at (0.0, 0.0, 0.0)!</text>
</g>
<!-- Sequence*&#45;&gt;place at (0.0, 0.0, 0.0)! -->
<g id="edge5" class="edge">
<title>Sequence*&#45;&gt;place at (0.0, 0.0, 0.0)!</title>
<path fill="none" stroke="black" d="M167.9,-143.7C168.23,-135.98 168.63,-126.71 169,-118.11"/>
<polygon fill="black" stroke="black" points="172.49,-118.25 169.42,-108.1 165.5,-117.95 172.49,-118.25"/>
</g>
<!-- 0 at pos (0.0, 0.0, 0.0)?* -->
<g id="node8" class="node">
<title>0 at pos (0.0, 0.0, 0.0)?*</title>
<ellipse fill="gray" stroke="black" cx="279.16" cy="-162" rx="60.09" ry="18"/>
<text text-anchor="middle" x="279.16" y="-159.8" font-family="Times,serif" font-size="9.00">0 at pos (0.0, 0.0, 0.0)?*</text>
</g>
<!-- Fallback*&#45;&gt;0 at pos (0.0, 0.0, 0.0)?* -->
<g id="edge7" class="edge">
<title>Fallback*&#45;&gt;0 at pos (0.0, 0.0, 0.0)?*</title>
<path fill="none" stroke="black" d="M373.33,-220.32C356.61,-210.14 332.77,-195.64 313.27,-183.76"/>
<polygon fill="black" stroke="black" points="315.01,-180.73 304.65,-178.52 311.37,-186.71 315.01,-180.73"/>
</g>
<!-- Sequence** -->
<g id="node9" class="node">
<title>Sequence**</title>
<polygon fill="cyan" stroke="black" points="430.9,-154.54 430.9,-169.46 409.38,-180 378.94,-180 357.42,-169.46 357.42,-154.54 378.94,-144 409.38,-144 430.9,-154.54"/>
<text text-anchor="middle" x="394.16" y="-159.8" font-family="Times,serif" font-size="9.00">Sequence**</text>
</g>
<!-- Fallback*&#45;&gt;Sequence** -->
<g id="edge8" class="edge">
<title>Fallback*&#45;&gt;Sequence**</title>
<path fill="none" stroke="black" d="M394.16,-215.7C394.16,-207.98 394.16,-198.71 394.16,-190.11"/>
<polygon fill="black" stroke="black" points="397.66,-190.1 394.16,-180.1 390.66,-190.1 397.66,-190.1"/>
</g>
<!-- Fallback** -->
<g id="node10" class="node">
<title>Fallback**</title>
<polygon fill="cyan" stroke="black" points="344.15,-82.54 344.15,-97.46 323.65,-108 294.66,-108 274.17,-97.46 274.17,-82.54 294.66,-72 323.65,-72 344.15,-82.54"/>
<text text-anchor="middle" x="309.16" y="-87.8" font-family="Times,serif" font-size="9.00">Fallback**</text>
</g>
<!-- Sequence**&#45;&gt;Fallback** -->
<g id="edge9" class="edge">
<title>Sequence**&#45;&gt;Fallback**</title>
<path fill="none" stroke="black" d="M375.29,-145.46C363.66,-135.88 348.56,-123.45 335.72,-112.88"/>
<polygon fill="black" stroke="black" points="337.62,-109.91 327.68,-106.25 333.17,-115.31 337.62,-109.91"/>
</g>
<!-- place at (0.0, 0.0, 0.0)!* -->
<g id="node13" class="node">
<title>place at (0.0, 0.0, 0.0)!*</title>
<ellipse fill="gray" stroke="black" cx="420.16" cy="-90" rx="58.13" ry="18"/>
<text text-anchor="middle" x="420.16" y="-87.8" font-family="Times,serif" font-size="9.00">place at (0.0, 0.0, 0.0)!*</text>
</g>
<!-- Sequence**&#45;&gt;place at (0.0, 0.0, 0.0)!* -->
<g id="edge12" class="edge">
<title>Sequence**&#45;&gt;place at (0.0, 0.0, 0.0)!*</title>
<path fill="none" stroke="black" d="M400.58,-143.7C403.51,-135.81 407.04,-126.3 410.3,-117.55"/>
<polygon fill="black" stroke="black" points="413.6,-118.7 413.8,-108.1 407.04,-116.26 413.6,-118.7"/>
</g>
<!-- picked 0? -->
<g id="node11" class="node">
<title>picked 0?</title>
<ellipse fill="gray" stroke="black" cx="272.16" cy="-18" rx="28.74" ry="18"/>
<text text-anchor="middle" x="272.16" y="-15.8" font-family="Times,serif" font-size="9.00">picked 0?</text>
</g>
<!-- Fallback**&#45;&gt;picked 0? -->
<g id="edge10" class="edge">
<title>Fallback**&#45;&gt;picked 0?</title>
<path fill="none" stroke="black" d="M300.01,-71.7C295.69,-63.52 290.45,-53.6 285.68,-44.58"/>
<polygon fill="black" stroke="black" points="288.71,-42.83 280.94,-35.62 282.52,-46.1 288.71,-42.83"/>
</g>
<!-- pick 0!* -->
<g id="node12" class="node">
<title>pick 0!*</title>
<ellipse fill="gray" stroke="black" cx="346.16" cy="-18" rx="27" ry="18"/>
<text text-anchor="middle" x="346.16" y="-15.8" font-family="Times,serif" font-size="9.00">pick 0!*</text>
</g>
<!-- Fallback**&#45;&gt;pick 0!* -->
<g id="edge11" class="edge">
<title>Fallback**&#45;&gt;pick 0!*</title>
<path fill="none" stroke="black" d="M318.3,-71.7C322.69,-63.4 328.02,-53.31 332.84,-44.19"/>
<polygon fill="black" stroke="black" points="336.05,-45.62 337.62,-35.14 329.86,-42.35 336.05,-45.62"/>
</g>
<!-- 2 at pos (0.016, &#45;0.032, 0.0)? -->
<g id="node15" class="node">
<title>2 at pos (0.016, &#45;0.032, 0.0)?</title>
<ellipse fill="gray" stroke="black" cx="518.16" cy="-162" rx="69.06" ry="18"/>
<text text-anchor="middle" x="518.16" y="-159.8" font-family="Times,serif" font-size="9.00">2 at pos (0.016, &#45;0.032, 0.0)?</text>
</g>
<!-- Fallback***&#45;&gt;2 at pos (0.016, &#45;0.032, 0.0)? -->
<g id="edge14" class="edge">
<title>Fallback***&#45;&gt;2 at pos (0.016, &#45;0.032, 0.0)?</title>
<path fill="none" stroke="black" d="M691.2,-222.67C658.67,-211.45 606.18,-193.35 567.53,-180.02"/>
<polygon fill="black" stroke="black" points="568.62,-176.7 558.02,-176.75 566.33,-183.32 568.62,-176.7"/>
</g>
<!-- picked 1? -->
<g id="node16" class="node">
<title>picked 1?</title>
<ellipse fill="gray" stroke="black" cx="634.16" cy="-162" rx="28.74" ry="18"/>
<text text-anchor="middle" x="634.16" y="-159.8" font-family="Times,serif" font-size="9.00">picked 1?</text>
</g>
<!-- Fallback***&#45;&gt;picked 1? -->
<g id="edge15" class="edge">
<title>Fallback***&#45;&gt;picked 1?</title>
<path fill="none" stroke="black" d="M701.85,-217.46C689.25,-207.32 672.67,-193.99 659.08,-183.05"/>
<polygon fill="black" stroke="black" points="661.05,-180.14 651.06,-176.6 656.66,-185.6 661.05,-180.14"/>
</g>
<!-- Sequence*** -->
<g id="node17" class="node">
<title>Sequence***</title>
<polygon fill="cyan" stroke="black" points="761.15,-154.54 761.15,-169.46 737.72,-180 704.59,-180 681.17,-169.46 681.17,-154.54 704.59,-144 737.72,-144 761.15,-154.54"/>
<text text-anchor="middle" x="721.16" y="-159.8" font-family="Times,serif" font-size="9.00">Sequence***</text>
</g>
<!-- Fallback***&#45;&gt;Sequence*** -->
<g id="edge16" class="edge">
<title>Fallback***&#45;&gt;Sequence***</title>
<path fill="none" stroke="black" d="M721.16,-215.7C721.16,-207.98 721.16,-198.71 721.16,-190.11"/>
<polygon fill="black" stroke="black" points="724.66,-190.1 721.16,-180.1 717.66,-190.1 724.66,-190.1"/>
</g>
<!-- place at (0.0, 0.0, 0.0)!** -->
<g id="node21" class="node">
<title>place at (0.0, 0.0, 0.0)!**</title>
<ellipse fill="gray" stroke="black" cx="840.16" cy="-162" rx="61.4" ry="18"/>
<text text-anchor="middle" x="840.16" y="-159.8" font-family="Times,serif" font-size="9.00">place at (0.0, 0.0, 0.0)!**</text>
</g>
<!-- Fallback***&#45;&gt;place at (0.0, 0.0, 0.0)!** -->
<g id="edge20" class="edge">
<title>Fallback***&#45;&gt;place at (0.0, 0.0, 0.0)!**</title>
<path fill="none" stroke="black" d="M744.1,-219.5C761.44,-209.31 785.54,-195.13 805.26,-183.53"/>
<polygon fill="black" stroke="black" points="807.12,-186.49 813.97,-178.41 803.58,-180.46 807.12,-186.49"/>
</g>
<!-- Sequence**** -->
<g id="node22" class="node">
<title>Sequence****</title>
<polygon fill="cyan" stroke="black" points="1004.65,-154.54 1004.65,-169.46 979.76,-180 944.56,-180 919.67,-169.46 919.67,-154.54 944.56,-144 979.76,-144 1004.65,-154.54"/>
<text text-anchor="middle" x="962.16" y="-159.8" font-family="Times,serif" font-size="9.00">Sequence****</text>
</g>
<!-- Fallback***&#45;&gt;Sequence**** -->
<g id="edge21" class="edge">
<title>Fallback***&#45;&gt;Sequence****</title>
<path fill="none" stroke="black" d="M749.7,-221.91C755.45,-219.83 761.46,-217.76 767.16,-216 829.76,-196.61 847.19,-198.19 910.16,-180 913.45,-179.05 916.85,-178.03 920.26,-176.97"/>
<polygon fill="black" stroke="black" points="921.33,-180.31 929.81,-173.96 919.22,-173.63 921.33,-180.31"/>
</g>
<!-- pick 2! -->
<g id="node18" class="node">
<title>pick 2!</title>
<ellipse fill="gray" stroke="black" cx="578.16" cy="-90" rx="27" ry="18"/>
<text text-anchor="middle" x="578.16" y="-87.8" font-family="Times,serif" font-size="9.00">pick 2!</text>
</g>
<!-- Sequence***&#45;&gt;pick 2! -->
<g id="edge17" class="edge">
<title>Sequence***&#45;&gt;pick 2!</title>
<path fill="none" stroke="black" d="M694.93,-148.16C670.62,-136.26 634.45,-118.56 608.82,-106.01"/>
<polygon fill="black" stroke="black" points="610.08,-102.73 599.56,-101.47 607,-109.02 610.08,-102.73"/>
</g>
<!-- place at (0.016, &#45;0.032, 0.0)! -->
<g id="node19" class="node">
<title>place at (0.016, &#45;0.032, 0.0)!</title>
<ellipse fill="gray" stroke="black" cx="691.16" cy="-90" rx="68.25" ry="18"/>
<text text-anchor="middle" x="691.16" y="-87.8" font-family="Times,serif" font-size="9.00">place at (0.016, &#45;0.032, 0.0)!</text>
</g>
<!-- Sequence***&#45;&gt;place at (0.016, &#45;0.032, 0.0)! -->
<g id="edge18" class="edge">
<title>Sequence***&#45;&gt;place at (0.016, &#45;0.032, 0.0)!</title>
<path fill="none" stroke="black" d="M713.74,-143.7C710.36,-135.81 706.29,-126.3 702.53,-117.55"/>
<polygon fill="black" stroke="black" points="705.64,-115.92 698.49,-108.1 699.21,-118.67 705.64,-115.92"/>
</g>
<!-- pick 3! -->
<g id="node20" class="node">
<title>pick 3!</title>
<ellipse fill="gray" stroke="black" cx="804.16" cy="-90" rx="27" ry="18"/>
<text text-anchor="middle" x="804.16" y="-87.8" font-family="Times,serif" font-size="9.00">pick 3!</text>
</g>
<!-- Sequence***&#45;&gt;pick 3! -->
<g id="edge19" class="edge">
<title>Sequence***&#45;&gt;pick 3!</title>
<path fill="none" stroke="black" d="M740.41,-144.76C752.27,-134.76 767.58,-121.85 780.22,-111.19"/>
<polygon fill="black" stroke="black" points="782.69,-113.68 788.08,-104.56 778.18,-108.33 782.69,-113.68"/>
</g>
<!-- pick 2!* -->
<g id="node23" class="node">
<title>pick 2!*</title>
<ellipse fill="gray" stroke="black" cx="876.16" cy="-90" rx="27" ry="18"/>
<text text-anchor="middle" x="876.16" y="-87.8" font-family="Times,serif" font-size="9.00">pick 2!*</text>
</g>
<!-- Sequence****&#45;&gt;pick 2!* -->
<g id="edge22" class="edge">
<title>Sequence****&#45;&gt;pick 2!*</title>
<path fill="none" stroke="black" d="M942.21,-144.76C929.72,-134.6 913.54,-121.43 900.32,-110.67"/>
<polygon fill="black" stroke="black" points="902.5,-107.93 892.54,-104.33 898.08,-113.36 902.5,-107.93"/>
</g>
<!-- place at (0.016, &#45;0.032, 0.0)!* -->
<g id="node24" class="node">
<title>place at (0.016, &#45;0.032, 0.0)!*</title>
<ellipse fill="gray" stroke="black" cx="991.16" cy="-90" rx="70.37" ry="18"/>
<text text-anchor="middle" x="991.16" y="-87.8" font-family="Times,serif" font-size="9.00">place at (0.016, &#45;0.032, 0.0)!*</text>
</g>
<!-- Sequence****&#45;&gt;place at (0.016, &#45;0.032, 0.0)!* -->
<g id="edge23" class="edge">
<title>Sequence****&#45;&gt;place at (0.016, &#45;0.032, 0.0)!*</title>
<path fill="none" stroke="black" d="M969.33,-143.7C972.59,-135.81 976.53,-126.3 980.16,-117.55"/>
<polygon fill="black" stroke="black" points="983.48,-118.68 984.07,-108.1 977.01,-116 983.48,-118.68"/>
</g>
<!-- 1 on 0? -->
<g id="node27" class="node">
<title>1 on 0?</title>
<ellipse fill="gray" stroke="black" cx="1049.16" cy="-162" rx="27" ry="18"/>
<text text-anchor="middle" x="1049.16" y="-159.8" font-family="Times,serif" font-size="9.00">1 on 0?</text>
</g>
<!-- Fallback****&#45;&gt;1 on 0? -->
<g id="edge26" class="edge">
<title>Fallback****&#45;&gt;1 on 0?</title>
<path fill="none" stroke="black" d="M1049.16,-215.7C1049.16,-207.98 1049.16,-198.71 1049.16,-190.11"/>
<polygon fill="black" stroke="black" points="1052.66,-190.1 1049.16,-180.1 1045.66,-190.1 1052.66,-190.1"/>
</g>
<!-- Sequence***** -->
<g id="node28" class="node">
<title>Sequence*****</title>
<polygon fill="cyan" stroke="black" points="1185.9,-154.54 1185.9,-169.46 1159.1,-180 1121.21,-180 1094.42,-169.46 1094.42,-154.54 1121.21,-144 1159.1,-144 1185.9,-154.54"/>
<text text-anchor="middle" x="1140.16" y="-159.8" font-family="Times,serif" font-size="9.00">Sequence*****</text>
</g>
<!-- Fallback****&#45;&gt;Sequence***** -->
<g id="edge27" class="edge">
<title>Fallback****&#45;&gt;Sequence*****</title>
<path fill="none" stroke="black" d="M1069.35,-217.46C1081.58,-208.06 1097.39,-195.9 1110.96,-185.46"/>
<polygon fill="black" stroke="black" points="1113.28,-188.09 1119.07,-179.22 1109.01,-182.54 1113.28,-188.09"/>
</g>
<!-- place at (0.016, 0.032, 0.0)! -->
<g id="node32" class="node">
<title>place at (0.016, 0.032, 0.0)!</title>
<ellipse fill="gray" stroke="black" cx="1270.16" cy="-162" rx="66.29" ry="18"/>
<text text-anchor="middle" x="1270.16" y="-159.8" font-family="Times,serif" font-size="9.00">place at (0.016, 0.032, 0.0)!</text>
</g>
<!-- Fallback****&#45;&gt;place at (0.016, 0.032, 0.0)! -->
<g id="edge31" class="edge">
<title>Fallback****&#45;&gt;place at (0.016, 0.032, 0.0)!</title>
<path fill="none" stroke="black" d="M1080.32,-222.26C1086.55,-220.15 1093.05,-217.98 1099.16,-216 1138.84,-203.11 1183.93,-189.16 1217.84,-178.81"/>
<polygon fill="black" stroke="black" points="1218.99,-182.12 1227.54,-175.86 1216.95,-175.42 1218.99,-182.12"/>
</g>
<!-- pick 1! -->
<g id="node29" class="node">
<title>pick 1!</title>
<ellipse fill="gray" stroke="black" cx="1106.16" cy="-90" rx="27" ry="18"/>
<text text-anchor="middle" x="1106.16" y="-87.8" font-family="Times,serif" font-size="9.00">pick 1!</text>
</g>
<!-- Sequence*****&#45;&gt;pick 1! -->
<g id="edge28" class="edge">
<title>Sequence*****&#45;&gt;pick 1!</title>
<path fill="none" stroke="black" d="M1131.75,-143.7C1127.83,-135.61 1123.07,-125.81 1118.72,-116.87"/>
<polygon fill="black" stroke="black" points="1121.75,-115.09 1114.23,-107.62 1115.45,-118.15 1121.75,-115.09"/>
</g>
<!-- place on 0! -->
<g id="node30" class="node">
<title>place on 0!</title>
<ellipse fill="gray" stroke="black" cx="1183.16" cy="-90" rx="32.16" ry="18"/>
<text text-anchor="middle" x="1183.16" y="-87.8" font-family="Times,serif" font-size="9.00">place on 0!</text>
</g>
<!-- Sequence*****&#45;&gt;place on 0! -->
<g id="edge29" class="edge">
<title>Sequence*****&#45;&gt;place on 0!</title>
<path fill="none" stroke="black" d="M1150.79,-143.7C1155.94,-135.32 1162.21,-125.1 1167.86,-115.9"/>
<polygon fill="black" stroke="black" points="1170.99,-117.5 1173.24,-107.14 1165.02,-113.83 1170.99,-117.5"/>
</g>
<!-- pick 0!** -->
<g id="node31" class="node">
<title>pick 0!**</title>
<ellipse fill="gray" stroke="black" cx="1262.16" cy="-90" rx="28.74" ry="18"/>
<text text-anchor="middle" x="1262.16" y="-87.8" font-family="Times,serif" font-size="9.00">pick 0!**</text>
</g>
<!-- Sequence*****&#45;&gt;pick 0!** -->
<g id="edge30" class="edge">
<title>Sequence*****&#45;&gt;pick 0!**</title>
<path fill="none" stroke="black" d="M1165.73,-146.33C1185.24,-135.13 1212.15,-119.69 1232.59,-107.97"/>
<polygon fill="black" stroke="black" points="1234.54,-110.88 1241.47,-102.87 1231.06,-104.81 1234.54,-110.88"/>
</g>
</g>
</svg>
