<?xml version="1.0" encoding="UTF-8" standalone="no"?>
<!DOCTYPE svg PUBLIC "-//W3C//DTD SVG 1.1//EN"
 "http://www.w3.org/Graphics/SVG/1.1/DTD/svg11.dtd">
<!-- Generated by graphviz version 2.43.0 (0)
 -->
<!-- Title: pastafarianism Pages: 1 -->
<svg width="1381pt" height="404pt"
 viewBox="0.00 0.00 1380.59 404.00" xmlns="http://www.w3.org/2000/svg" xmlns:xlink="http://www.w3.org/1999/xlink">
<g id="graph0" class="graph" transform="scale(1 1) rotate(0) translate(4 400)">
<title>pastafarianism</title>
<polygon fill="white" stroke="transparent" points="-4,4 -4,-400 1376.59,-400 1376.59,4 -4,4"/>
<!-- Sequence -->
<g id="node1" class="node">
<title>Sequence</title>
<polygon fill="cyan" stroke="black" points="966.54,-370.54 966.54,-385.46 948.09,-396 922,-396 903.55,-385.46 903.55,-370.54 922,-360 948.09,-360 966.54,-370.54"/>
<text text-anchor="middle" x="935.04" y="-375.8" font-family="Times,serif" font-size="9.00">Sequence</text>
</g>
<!-- Fallback -->
<g id="node2" class="node">
<title>Fallback</title>
<polygon fill="cyan" stroke="black" points="927.29,-298.54 927.29,-313.46 910.16,-324 885.93,-324 868.8,-313.46 868.8,-298.54 885.93,-288 910.16,-288 927.29,-298.54"/>
<text text-anchor="middle" x="898.04" y="-303.8" font-family="Times,serif" font-size="9.00">Fallback</text>
</g>
<!-- Sequence&#45;&gt;Fallback -->
<g id="edge1" class="edge">
<title>Sequence&#45;&gt;Fallback</title>
<path fill="none" stroke="black" d="M925.9,-359.7C921.64,-351.64 916.49,-341.89 911.78,-332.98"/>
<polygon fill="black" stroke="black" points="914.85,-331.31 907.09,-324.1 908.66,-334.58 914.85,-331.31"/>
</g>
<!-- pick 1!* -->
<g id="node30" class="node">
<title>pick 1!*</title>
<ellipse fill="gray" stroke="black" cx="972.04" cy="-306" rx="27" ry="18"/>
<text text-anchor="middle" x="972.04" y="-303.8" font-family="Times,serif" font-size="9.00">pick 1!*</text>
</g>
<!-- Sequence&#45;&gt;pick 1!* -->
<g id="edge29" class="edge">
<title>Sequence&#45;&gt;pick 1!*</title>
<path fill="none" stroke="black" d="M944.19,-359.7C948.57,-351.4 953.91,-341.31 958.73,-332.19"/>
<polygon fill="black" stroke="black" points="961.93,-333.62 963.51,-323.14 955.74,-330.35 961.93,-333.62"/>
</g>
<!-- Sequence* -->
<g id="node3" class="node">
<title>Sequence*</title>
<polygon fill="cyan" stroke="black" points="343.29,-226.54 343.29,-241.46 323.23,-252 294.86,-252 274.8,-241.46 274.8,-226.54 294.86,-216 323.23,-216 343.29,-226.54"/>
<text text-anchor="middle" x="309.04" y="-231.8" font-family="Times,serif" font-size="9.00">Sequence*</text>
</g>
<!-- Fallback&#45;&gt;Sequence* -->
<g id="edge2" class="edge">
<title>Fallback&#45;&gt;Sequence*</title>
<path fill="none" stroke="black" d="M868.43,-301.48C772.29,-290.05 468.48,-253.95 353.61,-240.3"/>
<polygon fill="black" stroke="black" points="353.77,-236.79 343.42,-239.09 352.94,-243.74 353.77,-236.79"/>
</g>
<!-- 2 on 0?* -->
<g id="node17" class="node">
<title>2 on 0?*</title>
<ellipse fill="gray" stroke="black" cx="669.04" cy="-234" rx="27.27" ry="18"/>
<text text-anchor="middle" x="669.04" y="-231.8" font-family="Times,serif" font-size="9.00">2 on 0?*</text>
</g>
<!-- Fallback&#45;&gt;2 on 0?* -->
<g id="edge16" class="edge">
<title>Fallback&#45;&gt;2 on 0?*</title>
<path fill="none" stroke="black" d="M868.78,-298.63C830.53,-289.93 761.74,-272.99 705.04,-252 703.2,-251.32 701.31,-250.57 699.43,-249.79"/>
<polygon fill="black" stroke="black" points="700.67,-246.52 690.1,-245.69 697.85,-252.92 700.67,-246.52"/>
</g>
<!-- Sequence*** -->
<g id="node18" class="node">
<title>Sequence***</title>
<polygon fill="cyan" stroke="black" points="794.03,-226.54 794.03,-241.46 770.61,-252 737.48,-252 714.05,-241.46 714.05,-226.54 737.48,-216 770.61,-216 794.03,-226.54"/>
<text text-anchor="middle" x="754.04" y="-231.8" font-family="Times,serif" font-size="9.00">Sequence***</text>
</g>
<!-- Fallback&#45;&gt;Sequence*** -->
<g id="edge17" class="edge">
<title>Fallback&#45;&gt;Sequence***</title>
<path fill="none" stroke="black" d="M875.54,-294.06C852.48,-282.85 816.27,-265.25 789.38,-252.18"/>
<polygon fill="black" stroke="black" points="790.81,-248.98 780.29,-247.76 787.75,-255.28 790.81,-248.98"/>
</g>
<!-- Sequence**** -->
<g id="node21" class="node">
<title>Sequence****</title>
<polygon fill="cyan" stroke="black" points="896.53,-226.54 896.53,-241.46 871.64,-252 836.44,-252 811.56,-241.46 811.56,-226.54 836.44,-216 871.64,-216 896.53,-226.54"/>
<text text-anchor="middle" x="854.04" y="-231.8" font-family="Times,serif" font-size="9.00">Sequence****</text>
</g>
<!-- Fallback&#45;&gt;Sequence**** -->
<g id="edge20" class="edge">
<title>Fallback&#45;&gt;Sequence****</title>
<path fill="none" stroke="black" d="M887.17,-287.7C882.05,-279.56 875.85,-269.69 870.2,-260.7"/>
<polygon fill="black" stroke="black" points="873.08,-258.71 864.8,-252.1 867.15,-262.43 873.08,-258.71"/>
</g>
<!-- 2 on 1?* -->
<g id="node26" class="node">
<title>2 on 1?*</title>
<ellipse fill="gray" stroke="black" cx="942.04" cy="-234" rx="27.27" ry="18"/>
<text text-anchor="middle" x="942.04" y="-231.8" font-family="Times,serif" font-size="9.00">2 on 1?*</text>
</g>
<!-- Fallback&#45;&gt;2 on 1?* -->
<g id="edge25" class="edge">
<title>Fallback&#45;&gt;2 on 1?*</title>
<path fill="none" stroke="black" d="M908.92,-287.7C914.24,-279.23 920.75,-268.89 926.57,-259.61"/>
<polygon fill="black" stroke="black" points="929.54,-261.47 931.9,-251.14 923.61,-257.75 929.54,-261.47"/>
</g>
<!-- place at (0.0, 0.05, 0.0)!**** -->
<g id="node27" class="node">
<title>place at (0.0, 0.05, 0.0)!****</title>
<ellipse fill="gray" stroke="black" cx="1056.04" cy="-234" rx="68.91" ry="18"/>
<text text-anchor="middle" x="1056.04" y="-231.8" font-family="Times,serif" font-size="9.00">place at (0.0, 0.05, 0.0)!****</text>
</g>
<!-- Fallback&#45;&gt;place at (0.0, 0.05, 0.0)!**** -->
<g id="edge26" class="edge">
<title>Fallback&#45;&gt;place at (0.0, 0.05, 0.0)!****</title>
<path fill="none" stroke="black" d="M921.35,-294.55C926.2,-292.38 931.29,-290.11 936.04,-288 961.54,-276.67 990.11,-264.04 1012.98,-253.96"/>
<polygon fill="black" stroke="black" points="1014.67,-257.04 1022.4,-249.81 1011.84,-250.64 1014.67,-257.04"/>
</g>
<!-- apply force 0! -->
<g id="node28" class="node">
<title>apply force 0!</title>
<ellipse fill="gray" stroke="black" cx="1181.04" cy="-234" rx="38.21" ry="18"/>
<text text-anchor="middle" x="1181.04" y="-231.8" font-family="Times,serif" font-size="9.00">apply force 0!</text>
</g>
<!-- Fallback&#45;&gt;apply force 0! -->
<g id="edge27" class="edge">
<title>Fallback&#45;&gt;apply force 0!</title>
<path fill="none" stroke="black" d="M920.2,-294.01C925.32,-291.78 930.8,-289.62 936.04,-288 1021.49,-261.55 1047.69,-275.29 1134.04,-252 1136.97,-251.21 1139.96,-250.32 1142.96,-249.38"/>
<polygon fill="black" stroke="black" points="1144.08,-252.69 1152.45,-246.2 1141.86,-246.05 1144.08,-252.69"/>
</g>
<!-- 2 at pos (0.0, 0.05, 0.0384)? -->
<g id="node29" class="node">
<title>2 at pos (0.0, 0.05, 0.0384)?</title>
<ellipse fill="gray" stroke="black" cx="1305.04" cy="-234" rx="67.6" ry="18"/>
<text text-anchor="middle" x="1305.04" y="-231.8" font-family="Times,serif" font-size="9.00">2 at pos (0.0, 0.05, 0.0384)?</text>
</g>
<!-- Fallback&#45;&gt;2 at pos (0.0, 0.05, 0.0384)? -->
<g id="edge28" class="edge">
<title>Fallback&#45;&gt;2 at pos (0.0, 0.05, 0.0384)?</title>
<path fill="none" stroke="black" d="M920.14,-293.79C925.25,-291.57 930.75,-289.47 936.04,-288 1062.01,-252.91 1099.17,-274.12 1228.04,-252 1233.92,-250.99 1240.03,-249.83 1246.12,-248.61"/>
<polygon fill="black" stroke="black" points="1247.22,-251.95 1256.3,-246.49 1245.8,-245.1 1247.22,-251.95"/>
</g>
<!-- 0 at pos (0.0, 0.05, 0.0)? -->
<g id="node4" class="node">
<title>0 at pos (0.0, 0.05, 0.0)?</title>
<ellipse fill="gray" stroke="black" cx="60.04" cy="-162" rx="60.09" ry="18"/>
<text text-anchor="middle" x="60.04" y="-159.8" font-family="Times,serif" font-size="9.00">0 at pos (0.0, 0.05, 0.0)?</text>
</g>
<!-- Sequence*&#45;&gt;0 at pos (0.0, 0.05, 0.0)? -->
<g id="edge3" class="edge">
<title>Sequence*&#45;&gt;0 at pos (0.0, 0.05, 0.0)?</title>
<path fill="none" stroke="black" d="M278.51,-224.42C237.12,-212.78 162.59,-191.83 112.23,-177.67"/>
<polygon fill="black" stroke="black" points="113.07,-174.27 102.5,-174.93 111.18,-181.01 113.07,-174.27"/>
</g>
<!-- pick 2! -->
<g id="node5" class="node">
<title>pick 2!</title>
<ellipse fill="gray" stroke="black" cx="165.04" cy="-162" rx="27" ry="18"/>
<text text-anchor="middle" x="165.04" y="-159.8" font-family="Times,serif" font-size="9.00">pick 2!</text>
</g>
<!-- Sequence*&#45;&gt;pick 2! -->
<g id="edge4" class="edge">
<title>Sequence*&#45;&gt;pick 2!</title>
<path fill="none" stroke="black" d="M284.62,-221.13C260.03,-209.17 222.06,-190.71 195.52,-177.81"/>
<polygon fill="black" stroke="black" points="196.83,-174.56 186.3,-173.33 193.77,-180.85 196.83,-174.56"/>
</g>
<!-- 2 on 1? -->
<g id="node6" class="node">
<title>2 on 1?</title>
<ellipse fill="gray" stroke="black" cx="237.04" cy="-162" rx="27" ry="18"/>
<text text-anchor="middle" x="237.04" y="-159.8" font-family="Times,serif" font-size="9.00">2 on 1?</text>
</g>
<!-- Sequence*&#45;&gt;2 on 1? -->
<g id="edge5" class="edge">
<title>Sequence*&#45;&gt;2 on 1?</title>
<path fill="none" stroke="black" d="M292.71,-217.12C282.82,-207.51 270.09,-195.13 259.3,-184.63"/>
<polygon fill="black" stroke="black" points="261.46,-181.85 251.85,-177.39 256.58,-186.87 261.46,-181.85"/>
</g>
<!-- pick 1! -->
<g id="node7" class="node">
<title>pick 1!</title>
<ellipse fill="gray" stroke="black" cx="309.04" cy="-162" rx="27" ry="18"/>
<text text-anchor="middle" x="309.04" y="-159.8" font-family="Times,serif" font-size="9.00">pick 1!</text>
</g>
<!-- Sequence*&#45;&gt;pick 1! -->
<g id="edge6" class="edge">
<title>Sequence*&#45;&gt;pick 1!</title>
<path fill="none" stroke="black" d="M309.04,-215.7C309.04,-207.98 309.04,-198.71 309.04,-190.11"/>
<polygon fill="black" stroke="black" points="312.54,-190.1 309.04,-180.1 305.54,-190.1 312.54,-190.1"/>
</g>
<!-- Fallback* -->
<g id="node8" class="node">
<title>Fallback*</title>
<polygon fill="cyan" stroke="black" points="417.79,-154.54 417.79,-169.46 399.19,-180 372.9,-180 354.3,-169.46 354.3,-154.54 372.9,-144 399.19,-144 417.79,-154.54"/>
<text text-anchor="middle" x="386.04" y="-159.8" font-family="Times,serif" font-size="9.00">Fallback*</text>
</g>
<!-- Sequence*&#45;&gt;Fallback* -->
<g id="edge7" class="edge">
<title>Sequence*&#45;&gt;Fallback*</title>
<path fill="none" stroke="black" d="M326.13,-217.46C336.57,-207.97 350.09,-195.68 361.65,-185.18"/>
<polygon fill="black" stroke="black" points="364.22,-187.57 369.27,-178.25 359.51,-182.39 364.22,-187.57"/>
</g>
<!-- place at (0.0, 0.05, 0.0)!* -->
<g id="node16" class="node">
<title>place at (0.0, 0.05, 0.0)!*</title>
<ellipse fill="gray" stroke="black" cx="497.04" cy="-162" rx="61.4" ry="18"/>
<text text-anchor="middle" x="497.04" y="-159.8" font-family="Times,serif" font-size="9.00">place at (0.0, 0.05, 0.0)!*</text>
</g>
<!-- Sequence*&#45;&gt;place at (0.0, 0.05, 0.0)!* -->
<g id="edge15" class="edge">
<title>Sequence*&#45;&gt;place at (0.0, 0.05, 0.0)!*</title>
<path fill="none" stroke="black" d="M336.38,-222.82C366.36,-211.66 414.96,-193.56 450.87,-180.19"/>
<polygon fill="black" stroke="black" points="452.49,-183.33 460.64,-176.56 450.04,-176.77 452.49,-183.33"/>
</g>
<!-- 0 at pos (0.0, 0.05, 0.0)?* -->
<g id="node9" class="node">
<title>0 at pos (0.0, 0.05, 0.0)?*</title>
<ellipse fill="gray" stroke="black" cx="242.04" cy="-90" rx="62.21" ry="18"/>
<text text-anchor="middle" x="242.04" y="-87.8" font-family="Times,serif" font-size="9.00">0 at pos (0.0, 0.05, 0.0)?*</text>
</g>
<!-- Fallback*&#45;&gt;0 at pos (0.0, 0.05, 0.0)?* -->
<g id="edge8" class="edge">
<title>Fallback*&#45;&gt;0 at pos (0.0, 0.05, 0.0)?*</title>
<path fill="none" stroke="black" d="M362.59,-149.6C340.73,-138.97 307.69,-122.91 281.73,-110.29"/>
<polygon fill="black" stroke="black" points="283.04,-107.04 272.51,-105.81 279.98,-113.33 283.04,-107.04"/>
</g>
<!-- 2 on 0? -->
<g id="node10" class="node">
<title>2 on 0?</title>
<ellipse fill="gray" stroke="black" cx="349.04" cy="-90" rx="27" ry="18"/>
<text text-anchor="middle" x="349.04" y="-87.8" font-family="Times,serif" font-size="9.00">2 on 0?</text>
</g>
<!-- Fallback*&#45;&gt;2 on 0? -->
<g id="edge9" class="edge">
<title>Fallback*&#45;&gt;2 on 0?</title>
<path fill="none" stroke="black" d="M376.9,-143.7C372.51,-135.4 367.18,-125.31 362.36,-116.19"/>
<polygon fill="black" stroke="black" points="365.35,-114.35 357.58,-107.14 359.16,-117.62 365.35,-114.35"/>
</g>
<!-- picked 1? -->
<g id="node11" class="node">
<title>picked 1?</title>
<ellipse fill="gray" stroke="black" cx="423.04" cy="-90" rx="28.74" ry="18"/>
<text text-anchor="middle" x="423.04" y="-87.8" font-family="Times,serif" font-size="9.00">picked 1?</text>
</g>
<!-- Fallback*&#45;&gt;picked 1? -->
<g id="edge10" class="edge">
<title>Fallback*&#45;&gt;picked 1?</title>
<path fill="none" stroke="black" d="M395.19,-143.7C399.51,-135.52 404.75,-125.6 409.52,-116.58"/>
<polygon fill="black" stroke="black" points="412.68,-118.1 414.26,-107.62 406.49,-114.83 412.68,-118.1"/>
</g>
<!-- Sequence** -->
<g id="node12" class="node">
<title>Sequence**</title>
<polygon fill="cyan" stroke="black" points="543.79,-82.54 543.79,-97.46 522.26,-108 491.83,-108 470.3,-97.46 470.3,-82.54 491.83,-72 522.26,-72 543.79,-82.54"/>
<text text-anchor="middle" x="507.04" y="-87.8" font-family="Times,serif" font-size="9.00">Sequence**</text>
</g>
<!-- Fallback*&#45;&gt;Sequence** -->
<g id="edge11" class="edge">
<title>Fallback*&#45;&gt;Sequence**</title>
<path fill="none" stroke="black" d="M407.4,-148.65C426.16,-137.79 453.72,-121.85 475.1,-109.48"/>
<polygon fill="black" stroke="black" points="476.94,-112.46 483.84,-104.42 473.43,-106.4 476.94,-112.46"/>
</g>
<!-- pick 0! -->
<g id="node13" class="node">
<title>pick 0!</title>
<ellipse fill="gray" stroke="black" cx="404.04" cy="-18" rx="27" ry="18"/>
<text text-anchor="middle" x="404.04" y="-15.8" font-family="Times,serif" font-size="9.00">pick 0!</text>
</g>
<!-- Sequence**&#45;&gt;pick 0! -->
<g id="edge12" class="edge">
<title>Sequence**&#45;&gt;pick 0!</title>
<path fill="none" stroke="black" d="M485.7,-74.5C469.75,-63.65 447.83,-48.75 430.71,-37.12"/>
<polygon fill="black" stroke="black" points="432.5,-34.11 422.26,-31.38 428.56,-39.9 432.5,-34.11"/>
</g>
<!-- place at (0.0, 0.05, 0.0)! -->
<g id="node14" class="node">
<title>place at (0.0, 0.05, 0.0)!</title>
<ellipse fill="gray" stroke="black" cx="507.04" cy="-18" rx="58.13" ry="18"/>
<text text-anchor="middle" x="507.04" y="-15.8" font-family="Times,serif" font-size="9.00">place at (0.0, 0.05, 0.0)!</text>
</g>
<!-- Sequence**&#45;&gt;place at (0.0, 0.05, 0.0)! -->
<g id="edge13" class="edge">
<title>Sequence**&#45;&gt;place at (0.0, 0.05, 0.0)!</title>
<path fill="none" stroke="black" d="M507.04,-71.7C507.04,-63.98 507.04,-54.71 507.04,-46.11"/>
<polygon fill="black" stroke="black" points="510.54,-46.1 507.04,-36.1 503.54,-46.1 510.54,-46.1"/>
</g>
<!-- picked 1?* -->
<g id="node15" class="node">
<title>picked 1?*</title>
<ellipse fill="gray" stroke="black" cx="615.04" cy="-18" rx="31.51" ry="18"/>
<text text-anchor="middle" x="615.04" y="-15.8" font-family="Times,serif" font-size="9.00">picked 1?*</text>
</g>
<!-- Sequence**&#45;&gt;picked 1?* -->
<g id="edge14" class="edge">
<title>Sequence**&#45;&gt;picked 1?*</title>
<path fill="none" stroke="black" d="M528.64,-75C545.25,-64.24 568.35,-49.26 586.49,-37.51"/>
<polygon fill="black" stroke="black" points="588.46,-40.4 594.95,-32.03 584.65,-34.53 588.46,-40.4"/>
</g>
<!-- place at (0.0, 0.05, 0.0)!** -->
<g id="node19" class="node">
<title>place at (0.0, 0.05, 0.0)!**</title>
<ellipse fill="gray" stroke="black" cx="640.04" cy="-162" rx="63.52" ry="18"/>
<text text-anchor="middle" x="640.04" y="-159.8" font-family="Times,serif" font-size="9.00">place at (0.0, 0.05, 0.0)!**</text>
</g>
<!-- Sequence***&#45;&gt;place at (0.0, 0.05, 0.0)!** -->
<g id="edge18" class="edge">
<title>Sequence***&#45;&gt;place at (0.0, 0.05, 0.0)!**</title>
<path fill="none" stroke="black" d="M730.97,-218.83C714.65,-208.81 692.48,-195.2 674.12,-183.93"/>
<polygon fill="black" stroke="black" points="675.81,-180.86 665.46,-178.61 672.15,-186.82 675.81,-180.86"/>
</g>
<!-- place on 2! -->
<g id="node20" class="node">
<title>place on 2!</title>
<ellipse fill="gray" stroke="black" cx="754.04" cy="-162" rx="32.16" ry="18"/>
<text text-anchor="middle" x="754.04" y="-159.8" font-family="Times,serif" font-size="9.00">place on 2!</text>
</g>
<!-- Sequence***&#45;&gt;place on 2! -->
<g id="edge19" class="edge">
<title>Sequence***&#45;&gt;place on 2!</title>
<path fill="none" stroke="black" d="M754.04,-215.7C754.04,-207.98 754.04,-198.71 754.04,-190.11"/>
<polygon fill="black" stroke="black" points="757.54,-190.1 754.04,-180.1 750.54,-190.1 757.54,-190.1"/>
</g>
<!-- pick 0!* -->
<g id="node22" class="node">
<title>pick 0!*</title>
<ellipse fill="gray" stroke="black" cx="831.04" cy="-162" rx="27" ry="18"/>
<text text-anchor="middle" x="831.04" y="-159.8" font-family="Times,serif" font-size="9.00">pick 0!*</text>
</g>
<!-- Sequence****&#45;&gt;pick 0!* -->
<g id="edge21" class="edge">
<title>Sequence****&#45;&gt;pick 0!*</title>
<path fill="none" stroke="black" d="M848.36,-215.7C845.8,-207.9 842.71,-198.51 839.86,-189.83"/>
<polygon fill="black" stroke="black" points="843.11,-188.51 836.66,-180.1 836.46,-190.7 843.11,-188.51"/>
</g>
<!-- place at (0.0, 0.05, 0.0)!*** -->
<g id="node23" class="node">
<title>place at (0.0, 0.05, 0.0)!***</title>
<ellipse fill="gray" stroke="black" cx="942.04" cy="-162" rx="66.29" ry="18"/>
<text text-anchor="middle" x="942.04" y="-159.8" font-family="Times,serif" font-size="9.00">place at (0.0, 0.05, 0.0)!***</text>
</g>
<!-- Sequence****&#45;&gt;place at (0.0, 0.05, 0.0)!*** -->
<g id="edge22" class="edge">
<title>Sequence****&#45;&gt;place at (0.0, 0.05, 0.0)!***</title>
<path fill="none" stroke="black" d="M874.45,-216.76C886.12,-207.49 900.92,-195.71 913.69,-185.55"/>
<polygon fill="black" stroke="black" points="916.1,-188.11 921.74,-179.15 911.74,-182.63 916.1,-188.11"/>
</g>
<!-- 1 on 0? -->
<g id="node24" class="node">
<title>1 on 0?</title>
<ellipse fill="gray" stroke="black" cx="1053.04" cy="-162" rx="27" ry="18"/>
<text text-anchor="middle" x="1053.04" y="-159.8" font-family="Times,serif" font-size="9.00">1 on 0?</text>
</g>
<!-- Sequence****&#45;&gt;1 on 0? -->
<g id="edge23" class="edge">
<title>Sequence****&#45;&gt;1 on 0?</title>
<path fill="none" stroke="black" d="M886.77,-222.29C893.16,-220.2 899.81,-218.03 906.04,-216 955.36,-199.94 968.83,-199.11 1017.04,-180 1018.88,-179.27 1020.75,-178.5 1022.62,-177.69"/>
<polygon fill="black" stroke="black" points="1024.23,-180.81 1031.92,-173.52 1021.37,-174.42 1024.23,-180.81"/>
</g>
<!-- picked 1?** -->
<g id="node25" class="node">
<title>picked 1?**</title>
<ellipse fill="gray" stroke="black" cx="1132.04" cy="-162" rx="34.13" ry="18"/>
<text text-anchor="middle" x="1132.04" y="-159.8" font-family="Times,serif" font-size="9.00">picked 1?**</text>
</g>
<!-- Sequence****&#45;&gt;picked 1?** -->
<g id="edge24" class="edge">
<title>Sequence****&#45;&gt;picked 1?**</title>
<path fill="none" stroke="black" d="M885.76,-221.95C892.42,-219.83 899.43,-217.73 906.04,-216 986.25,-195.08 1009.5,-203.33 1089.04,-180 1091.63,-179.24 1094.27,-178.39 1096.92,-177.48"/>
<polygon fill="black" stroke="black" points="1098.2,-180.74 1106.39,-174.02 1095.8,-174.17 1098.2,-180.74"/>
</g>
</g>
</svg>
