<?xml version="1.0" encoding="UTF-8" standalone="no"?>
<!DOCTYPE svg PUBLIC "-//W3C//DTD SVG 1.1//EN"
 "http://www.w3.org/Graphics/SVG/1.1/DTD/svg11.dtd">
<!-- Generated by graphviz version 2.43.0 (0)
 -->
<!-- Title: pastafarianism Pages: 1 -->
<svg width="1524pt" height="404pt"
 viewBox="0.00 0.00 1523.59 404.00" xmlns="http://www.w3.org/2000/svg" xmlns:xlink="http://www.w3.org/1999/xlink">
<g id="graph0" class="graph" transform="scale(1 1) rotate(0) translate(4 400)">
<title>pastafarianism</title>
<polygon fill="white" stroke="transparent" points="-4,4 -4,-400 1519.59,-400 1519.59,4 -4,4"/>
<!-- Sequence -->
<g id="node1" class="node">
<title>Sequence</title>
<polygon fill="cyan" stroke="black" points="1066.54,-370.54 1066.54,-385.46 1048.09,-396 1022,-396 1003.55,-385.46 1003.55,-370.54 1022,-360 1048.09,-360 1066.54,-370.54"/>
<text text-anchor="middle" x="1035.04" y="-375.8" font-family="Times,serif" font-size="9.00">Sequence</text>
</g>
<!-- Fallback -->
<g id="node2" class="node">
<title>Fallback</title>
<polygon fill="cyan" stroke="black" points="1064.29,-298.54 1064.29,-313.46 1047.16,-324 1022.93,-324 1005.8,-313.46 1005.8,-298.54 1022.93,-288 1047.16,-288 1064.29,-298.54"/>
<text text-anchor="middle" x="1035.04" y="-303.8" font-family="Times,serif" font-size="9.00">Fallback</text>
</g>
<!-- Sequence&#45;&gt;Fallback -->
<g id="edge1" class="edge">
<title>Sequence&#45;&gt;Fallback</title>
<path fill="none" stroke="black" d="M1035.04,-359.7C1035.04,-351.98 1035.04,-342.71 1035.04,-334.11"/>
<polygon fill="black" stroke="black" points="1038.54,-334.1 1035.04,-324.1 1031.54,-334.1 1038.54,-334.1"/>
</g>
<!-- Sequence* -->
<g id="node3" class="node">
<title>Sequence*</title>
<polygon fill="cyan" stroke="black" points="343.29,-226.54 343.29,-241.46 323.23,-252 294.86,-252 274.8,-241.46 274.8,-226.54 294.86,-216 323.23,-216 343.29,-226.54"/>
<text text-anchor="middle" x="309.04" y="-231.8" font-family="Times,serif" font-size="9.00">Sequence*</text>
</g>
<!-- Fallback&#45;&gt;Sequence* -->
<g id="edge2" class="edge">
<title>Fallback&#45;&gt;Sequence*</title>
<path fill="none" stroke="black" d="M1005.69,-302.17C893.09,-291.31 488.43,-252.3 353.32,-239.27"/>
<polygon fill="black" stroke="black" points="353.61,-235.78 343.32,-238.3 352.93,-242.75 353.61,-235.78"/>
</g>
<!-- 2 on 0?* -->
<g id="node21" class="node">
<title>2 on 0?*</title>
<ellipse fill="gray" stroke="black" cx="766.04" cy="-234" rx="27.27" ry="18"/>
<text text-anchor="middle" x="766.04" y="-231.8" font-family="Times,serif" font-size="9.00">2 on 0?*</text>
</g>
<!-- Fallback&#45;&gt;2 on 0?* -->
<g id="edge20" class="edge">
<title>Fallback&#45;&gt;2 on 0?*</title>
<path fill="none" stroke="black" d="M1005.57,-300.28C960.98,-292.69 874.04,-276.13 803.04,-252 800.92,-251.28 798.76,-250.48 796.6,-249.62"/>
<polygon fill="black" stroke="black" points="797.83,-246.34 787.26,-245.65 795.09,-252.79 797.83,-246.34"/>
</g>
<!-- Sequence**** -->
<g id="node22" class="node">
<title>Sequence****</title>
<polygon fill="cyan" stroke="black" points="896.53,-226.54 896.53,-241.46 871.64,-252 836.44,-252 811.56,-241.46 811.56,-226.54 836.44,-216 871.64,-216 896.53,-226.54"/>
<text text-anchor="middle" x="854.04" y="-231.8" font-family="Times,serif" font-size="9.00">Sequence****</text>
</g>
<!-- Fallback&#45;&gt;Sequence**** -->
<g id="edge21" class="edge">
<title>Fallback&#45;&gt;Sequence****</title>
<path fill="none" stroke="black" d="M1010.63,-295.56C980.73,-284 929.67,-264.25 894.01,-250.46"/>
<polygon fill="black" stroke="black" points="894.98,-247.08 884.39,-246.74 892.46,-253.61 894.98,-247.08"/>
</g>
<!-- Sequence***** -->
<g id="node27" class="node">
<title>Sequence*****</title>
<polygon fill="cyan" stroke="black" points="1033.78,-226.54 1033.78,-241.46 1006.99,-252 969.1,-252 942.31,-241.46 942.31,-226.54 969.1,-216 1006.99,-216 1033.78,-226.54"/>
<text text-anchor="middle" x="988.04" y="-231.8" font-family="Times,serif" font-size="9.00">Sequence*****</text>
</g>
<!-- Fallback&#45;&gt;Sequence***** -->
<g id="edge26" class="edge">
<title>Fallback&#45;&gt;Sequence*****</title>
<path fill="none" stroke="black" d="M1023.43,-287.7C1017.91,-279.47 1011.2,-269.48 1005.11,-260.42"/>
<polygon fill="black" stroke="black" points="1008.01,-258.46 999.53,-252.1 1002.2,-262.36 1008.01,-258.46"/>
</g>
<!-- 2 on 1?** -->
<g id="node32" class="node">
<title>2 on 1?**</title>
<ellipse fill="gray" stroke="black" cx="1082.04" cy="-234" rx="30.04" ry="18"/>
<text text-anchor="middle" x="1082.04" y="-231.8" font-family="Times,serif" font-size="9.00">2 on 1?**</text>
</g>
<!-- Fallback&#45;&gt;2 on 1?** -->
<g id="edge31" class="edge">
<title>Fallback&#45;&gt;2 on 1?**</title>
<path fill="none" stroke="black" d="M1046.66,-287.7C1052.35,-279.23 1059.29,-268.89 1065.52,-259.61"/>
<polygon fill="black" stroke="black" points="1068.54,-261.4 1071.2,-251.14 1062.72,-257.5 1068.54,-261.4"/>
</g>
<!-- place at (0.0, 0.05, 0.0)!**** -->
<g id="node33" class="node">
<title>place at (0.0, 0.05, 0.0)!****</title>
<ellipse fill="gray" stroke="black" cx="1199.04" cy="-234" rx="68.91" ry="18"/>
<text text-anchor="middle" x="1199.04" y="-231.8" font-family="Times,serif" font-size="9.00">place at (0.0, 0.05, 0.0)!****</text>
</g>
<!-- Fallback&#45;&gt;place at (0.0, 0.05, 0.0)!**** -->
<g id="edge32" class="edge">
<title>Fallback&#45;&gt;place at (0.0, 0.05, 0.0)!****</title>
<path fill="none" stroke="black" d="M1058.54,-294.97C1083.75,-284.21 1124.33,-266.89 1155.42,-253.62"/>
<polygon fill="black" stroke="black" points="1156.91,-256.79 1164.74,-249.64 1154.17,-250.35 1156.91,-256.79"/>
</g>
<!-- apply force 0! -->
<g id="node34" class="node">
<title>apply force 0!</title>
<ellipse fill="gray" stroke="black" cx="1324.04" cy="-234" rx="38.21" ry="18"/>
<text text-anchor="middle" x="1324.04" y="-231.8" font-family="Times,serif" font-size="9.00">apply force 0!</text>
</g>
<!-- Fallback&#45;&gt;apply force 0! -->
<g id="edge33" class="edge">
<title>Fallback&#45;&gt;apply force 0!</title>
<path fill="none" stroke="black" d="M1064.41,-299.86C1110.26,-291.55 1201.43,-273.85 1277.04,-252 1279.95,-251.16 1282.94,-250.23 1285.93,-249.26"/>
<polygon fill="black" stroke="black" points="1287.07,-252.57 1295.41,-246.03 1284.81,-245.94 1287.07,-252.57"/>
</g>
<!-- 2 at pos (0.0, 0.05, 0.0384)? -->
<g id="node35" class="node">
<title>2 at pos (0.0, 0.05, 0.0384)?</title>
<ellipse fill="gray" stroke="black" cx="1448.04" cy="-234" rx="67.6" ry="18"/>
<text text-anchor="middle" x="1448.04" y="-231.8" font-family="Times,serif" font-size="9.00">2 at pos (0.0, 0.05, 0.0384)?</text>
</g>
<!-- Fallback&#45;&gt;2 at pos (0.0, 0.05, 0.0384)? -->
<g id="edge34" class="edge">
<title>Fallback&#45;&gt;2 at pos (0.0, 0.05, 0.0384)?</title>
<path fill="none" stroke="black" d="M1064.36,-300.99C1122.86,-292.85 1258.18,-273.34 1371.04,-252 1376.73,-250.92 1382.64,-249.74 1388.54,-248.51"/>
<polygon fill="black" stroke="black" points="1389.37,-251.92 1398.43,-246.42 1387.92,-245.07 1389.37,-251.92"/>
</g>
<!-- 0 at pos (0.0, 0.05, 0.0)? -->
<g id="node4" class="node">
<title>0 at pos (0.0, 0.05, 0.0)?</title>
<ellipse fill="gray" stroke="black" cx="60.04" cy="-162" rx="60.09" ry="18"/>
<text text-anchor="middle" x="60.04" y="-159.8" font-family="Times,serif" font-size="9.00">0 at pos (0.0, 0.05, 0.0)?</text>
</g>
<!-- Sequence*&#45;&gt;0 at pos (0.0, 0.05, 0.0)? -->
<g id="edge3" class="edge">
<title>Sequence*&#45;&gt;0 at pos (0.0, 0.05, 0.0)?</title>
<path fill="none" stroke="black" d="M278.51,-224.42C237.12,-212.78 162.59,-191.83 112.23,-177.67"/>
<polygon fill="black" stroke="black" points="113.07,-174.27 102.5,-174.93 111.18,-181.01 113.07,-174.27"/>
</g>
<!-- pick 2! -->
<g id="node5" class="node">
<title>pick 2!</title>
<ellipse fill="gray" stroke="black" cx="165.04" cy="-162" rx="27" ry="18"/>
<text text-anchor="middle" x="165.04" y="-159.8" font-family="Times,serif" font-size="9.00">pick 2!</text>
</g>
<!-- Sequence*&#45;&gt;pick 2! -->
<g id="edge4" class="edge">
<title>Sequence*&#45;&gt;pick 2!</title>
<path fill="none" stroke="black" d="M284.62,-221.13C260.03,-209.17 222.06,-190.71 195.52,-177.81"/>
<polygon fill="black" stroke="black" points="196.83,-174.56 186.3,-173.33 193.77,-180.85 196.83,-174.56"/>
</g>
<!-- 2 on 1? -->
<g id="node6" class="node">
<title>2 on 1?</title>
<ellipse fill="gray" stroke="black" cx="237.04" cy="-162" rx="27" ry="18"/>
<text text-anchor="middle" x="237.04" y="-159.8" font-family="Times,serif" font-size="9.00">2 on 1?</text>
</g>
<!-- Sequence*&#45;&gt;2 on 1? -->
<g id="edge5" class="edge">
<title>Sequence*&#45;&gt;2 on 1?</title>
<path fill="none" stroke="black" d="M292.71,-217.12C282.82,-207.51 270.09,-195.13 259.3,-184.63"/>
<polygon fill="black" stroke="black" points="261.46,-181.85 251.85,-177.39 256.58,-186.87 261.46,-181.85"/>
</g>
<!-- pick 1! -->
<g id="node7" class="node">
<title>pick 1!</title>
<ellipse fill="gray" stroke="black" cx="309.04" cy="-162" rx="27" ry="18"/>
<text text-anchor="middle" x="309.04" y="-159.8" font-family="Times,serif" font-size="9.00">pick 1!</text>
</g>
<!-- Sequence*&#45;&gt;pick 1! -->
<g id="edge6" class="edge">
<title>Sequence*&#45;&gt;pick 1!</title>
<path fill="none" stroke="black" d="M309.04,-215.7C309.04,-207.98 309.04,-198.71 309.04,-190.11"/>
<polygon fill="black" stroke="black" points="312.54,-190.1 309.04,-180.1 305.54,-190.1 312.54,-190.1"/>
</g>
<!-- Fallback* -->
<g id="node8" class="node">
<title>Fallback*</title>
<polygon fill="cyan" stroke="black" points="417.79,-154.54 417.79,-169.46 399.19,-180 372.9,-180 354.3,-169.46 354.3,-154.54 372.9,-144 399.19,-144 417.79,-154.54"/>
<text text-anchor="middle" x="386.04" y="-159.8" font-family="Times,serif" font-size="9.00">Fallback*</text>
</g>
<!-- Sequence*&#45;&gt;Fallback* -->
<g id="edge7" class="edge">
<title>Sequence*&#45;&gt;Fallback*</title>
<path fill="none" stroke="black" d="M326.13,-217.46C336.57,-207.97 350.09,-195.68 361.65,-185.18"/>
<polygon fill="black" stroke="black" points="364.22,-187.57 369.27,-178.25 359.51,-182.39 364.22,-187.57"/>
</g>
<!-- place at (0.0, 0.05, 0.0)!* -->
<g id="node20" class="node">
<title>place at (0.0, 0.05, 0.0)!*</title>
<ellipse fill="gray" stroke="black" cx="497.04" cy="-162" rx="61.4" ry="18"/>
<text text-anchor="middle" x="497.04" y="-159.8" font-family="Times,serif" font-size="9.00">place at (0.0, 0.05, 0.0)!*</text>
</g>
<!-- Sequence*&#45;&gt;place at (0.0, 0.05, 0.0)!* -->
<g id="edge19" class="edge">
<title>Sequence*&#45;&gt;place at (0.0, 0.05, 0.0)!*</title>
<path fill="none" stroke="black" d="M336.38,-222.82C366.36,-211.66 414.96,-193.56 450.87,-180.19"/>
<polygon fill="black" stroke="black" points="452.49,-183.33 460.64,-176.56 450.04,-176.77 452.49,-183.33"/>
</g>
<!-- 0 at pos (0.0, 0.05, 0.0)?* -->
<g id="node9" class="node">
<title>0 at pos (0.0, 0.05, 0.0)?*</title>
<ellipse fill="gray" stroke="black" cx="205.04" cy="-90" rx="62.21" ry="18"/>
<text text-anchor="middle" x="205.04" y="-87.8" font-family="Times,serif" font-size="9.00">0 at pos (0.0, 0.05, 0.0)?*</text>
</g>
<!-- Fallback*&#45;&gt;0 at pos (0.0, 0.05, 0.0)?* -->
<g id="edge8" class="edge">
<title>Fallback*&#45;&gt;0 at pos (0.0, 0.05, 0.0)?*</title>
<path fill="none" stroke="black" d="M360.94,-150.45C355.7,-148.28 350.2,-146.04 345.04,-144 314.06,-131.72 278.98,-118.44 251.69,-108.24"/>
<polygon fill="black" stroke="black" points="252.6,-104.85 242.01,-104.64 250.16,-111.41 252.6,-104.85"/>
</g>
<!-- 2 on 0? -->
<g id="node10" class="node">
<title>2 on 0?</title>
<ellipse fill="gray" stroke="black" cx="312.04" cy="-90" rx="27" ry="18"/>
<text text-anchor="middle" x="312.04" y="-87.8" font-family="Times,serif" font-size="9.00">2 on 0?</text>
</g>
<!-- Fallback*&#45;&gt;2 on 0? -->
<g id="edge9" class="edge">
<title>Fallback*&#45;&gt;2 on 0?</title>
<path fill="none" stroke="black" d="M369.62,-145.46C359.24,-135.65 345.7,-122.83 334.35,-112.1"/>
<polygon fill="black" stroke="black" points="336.58,-109.39 326.91,-105.07 331.77,-114.48 336.58,-109.39"/>
</g>
<!-- picked 1? -->
<g id="node11" class="node">
<title>picked 1?</title>
<ellipse fill="gray" stroke="black" cx="386.04" cy="-90" rx="28.74" ry="18"/>
<text text-anchor="middle" x="386.04" y="-87.8" font-family="Times,serif" font-size="9.00">picked 1?</text>
</g>
<!-- Fallback*&#45;&gt;picked 1? -->
<g id="edge10" class="edge">
<title>Fallback*&#45;&gt;picked 1?</title>
<path fill="none" stroke="black" d="M386.04,-143.7C386.04,-135.98 386.04,-126.71 386.04,-118.11"/>
<polygon fill="black" stroke="black" points="389.54,-118.1 386.04,-108.1 382.54,-118.1 389.54,-118.1"/>
</g>
<!-- Sequence** -->
<g id="node12" class="node">
<title>Sequence**</title>
<polygon fill="cyan" stroke="black" points="506.79,-82.54 506.79,-97.46 485.26,-108 454.83,-108 433.3,-97.46 433.3,-82.54 454.83,-72 485.26,-72 506.79,-82.54"/>
<text text-anchor="middle" x="470.04" y="-87.8" font-family="Times,serif" font-size="9.00">Sequence**</text>
</g>
<!-- Fallback*&#45;&gt;Sequence** -->
<g id="edge11" class="edge">
<title>Fallback*&#45;&gt;Sequence**</title>
<path fill="none" stroke="black" d="M403.86,-146.15C415.42,-136.52 430.7,-123.79 443.66,-112.98"/>
<polygon fill="black" stroke="black" points="445.94,-115.64 451.38,-106.55 441.46,-110.26 445.94,-115.64"/>
</g>
<!-- Sequence*** -->
<g id="node16" class="node">
<title>Sequence***</title>
<polygon fill="cyan" stroke="black" points="681.03,-82.54 681.03,-97.46 657.61,-108 624.48,-108 601.05,-97.46 601.05,-82.54 624.48,-72 657.61,-72 681.03,-82.54"/>
<text text-anchor="middle" x="641.04" y="-87.8" font-family="Times,serif" font-size="9.00">Sequence***</text>
</g>
<!-- Fallback*&#45;&gt;Sequence*** -->
<g id="edge15" class="edge">
<title>Fallback*&#45;&gt;Sequence***</title>
<path fill="none" stroke="black" d="M410.53,-150.14C415.92,-147.95 421.63,-145.78 427.04,-144 483.2,-125.52 549.5,-110.04 593.26,-100.68"/>
<polygon fill="black" stroke="black" points="594,-104.1 603.06,-98.6 592.55,-97.25 594,-104.1"/>
</g>
<!-- 0 at pos (0.0, 0.05, 0.0)?** -->
<g id="node13" class="node">
<title>0 at pos (0.0, 0.05, 0.0)?**</title>
<ellipse fill="gray" stroke="black" cx="336.04" cy="-18" rx="65.48" ry="18"/>
<text text-anchor="middle" x="336.04" y="-15.8" font-family="Times,serif" font-size="9.00">0 at pos (0.0, 0.05, 0.0)?**</text>
</g>
<!-- Sequence**&#45;&gt;0 at pos (0.0, 0.05, 0.0)?** -->
<g id="edge12" class="edge">
<title>Sequence**&#45;&gt;0 at pos (0.0, 0.05, 0.0)?**</title>
<path fill="none" stroke="black" d="M445.78,-76.32C425.89,-65.94 397.39,-51.04 374.41,-39.04"/>
<polygon fill="black" stroke="black" points="375.75,-35.79 365.27,-34.27 372.51,-42 375.75,-35.79"/>
</g>
<!-- pick 2!* -->
<g id="node14" class="node">
<title>pick 2!*</title>
<ellipse fill="gray" stroke="black" cx="446.04" cy="-18" rx="27" ry="18"/>
<text text-anchor="middle" x="446.04" y="-15.8" font-family="Times,serif" font-size="9.00">pick 2!*</text>
</g>
<!-- Sequence**&#45;&gt;pick 2!* -->
<g id="edge13" class="edge">
<title>Sequence**&#45;&gt;pick 2!*</title>
<path fill="none" stroke="black" d="M464.11,-71.7C461.37,-63.7 458.05,-54.02 455.01,-45.15"/>
<polygon fill="black" stroke="black" points="458.3,-43.95 451.74,-35.62 451.68,-46.22 458.3,-43.95"/>
</g>
<!-- 2 on 1?* -->
<g id="node15" class="node">
<title>2 on 1?*</title>
<ellipse fill="gray" stroke="black" cx="518.04" cy="-18" rx="27.27" ry="18"/>
<text text-anchor="middle" x="518.04" y="-15.8" font-family="Times,serif" font-size="9.00">2 on 1?*</text>
</g>
<!-- Sequence**&#45;&gt;2 on 1?* -->
<g id="edge14" class="edge">
<title>Sequence**&#45;&gt;2 on 1?*</title>
<path fill="none" stroke="black" d="M481.91,-71.7C487.86,-63.02 495.16,-52.37 501.64,-42.92"/>
<polygon fill="black" stroke="black" points="504.53,-44.9 507.3,-34.67 498.76,-40.94 504.53,-44.9"/>
</g>
<!-- pick 0! -->
<g id="node17" class="node">
<title>pick 0!</title>
<ellipse fill="gray" stroke="black" cx="590.04" cy="-18" rx="27" ry="18"/>
<text text-anchor="middle" x="590.04" y="-15.8" font-family="Times,serif" font-size="9.00">pick 0!</text>
</g>
<!-- Sequence***&#45;&gt;pick 0! -->
<g id="edge16" class="edge">
<title>Sequence***&#45;&gt;pick 0!</title>
<path fill="none" stroke="black" d="M628.44,-71.7C622.11,-63.02 614.36,-52.37 607.47,-42.92"/>
<polygon fill="black" stroke="black" points="610.18,-40.69 601.46,-34.67 604.52,-44.81 610.18,-40.69"/>
</g>
<!-- place at (0.0, 0.05, 0.0)! -->
<g id="node18" class="node">
<title>place at (0.0, 0.05, 0.0)!</title>
<ellipse fill="gray" stroke="black" cx="693.04" cy="-18" rx="58.13" ry="18"/>
<text text-anchor="middle" x="693.04" y="-15.8" font-family="Times,serif" font-size="9.00">place at (0.0, 0.05, 0.0)!</text>
</g>
<!-- Sequence***&#45;&gt;place at (0.0, 0.05, 0.0)! -->
<g id="edge17" class="edge">
<title>Sequence***&#45;&gt;place at (0.0, 0.05, 0.0)!</title>
<path fill="none" stroke="black" d="M653.9,-71.7C660.16,-63.27 667.81,-52.97 674.67,-43.73"/>
<polygon fill="black" stroke="black" points="677.54,-45.74 680.7,-35.62 671.92,-41.56 677.54,-45.74"/>
</g>
<!-- picked 1?* -->
<g id="node19" class="node">
<title>picked 1?*</title>
<ellipse fill="gray" stroke="black" cx="801.04" cy="-18" rx="31.51" ry="18"/>
<text text-anchor="middle" x="801.04" y="-15.8" font-family="Times,serif" font-size="9.00">picked 1?*</text>
</g>
<!-- Sequence***&#45;&gt;picked 1?* -->
<g id="edge18" class="edge">
<title>Sequence***&#45;&gt;picked 1?*</title>
<path fill="none" stroke="black" d="M668.91,-76.81C696.26,-64.84 738.01,-46.58 767.24,-33.79"/>
<polygon fill="black" stroke="black" points="768.88,-36.89 776.64,-29.68 766.07,-30.48 768.88,-36.89"/>
</g>
<!-- pick 0!* -->
<g id="node23" class="node">
<title>pick 0!*</title>
<ellipse fill="gray" stroke="black" cx="603.04" cy="-162" rx="27" ry="18"/>
<text text-anchor="middle" x="603.04" y="-159.8" font-family="Times,serif" font-size="9.00">pick 0!*</text>
</g>
<!-- Sequence****&#45;&gt;pick 0!* -->
<g id="edge22" class="edge">
<title>Sequence****&#45;&gt;pick 0!*</title>
<path fill="none" stroke="black" d="M822.02,-221.98C815.45,-219.88 808.55,-217.78 802.04,-216 730.48,-196.45 709.25,-203.99 639.04,-180 637.13,-179.35 635.19,-178.62 633.24,-177.85"/>
<polygon fill="black" stroke="black" points="634.22,-174.46 623.66,-173.7 631.44,-180.88 634.22,-174.46"/>
</g>
<!-- place at (0.0, 0.05, 0.0)!** -->
<g id="node24" class="node">
<title>place at (0.0, 0.05, 0.0)!**</title>
<ellipse fill="gray" stroke="black" cx="712.04" cy="-162" rx="63.52" ry="18"/>
<text text-anchor="middle" x="712.04" y="-159.8" font-family="Times,serif" font-size="9.00">place at (0.0, 0.05, 0.0)!**</text>
</g>
<!-- Sequence****&#45;&gt;place at (0.0, 0.05, 0.0)!** -->
<g id="edge23" class="edge">
<title>Sequence****&#45;&gt;place at (0.0, 0.05, 0.0)!**</title>
<path fill="none" stroke="black" d="M827.34,-219.83C805.99,-209.31 775.74,-194.4 751.59,-182.49"/>
<polygon fill="black" stroke="black" points="752.84,-179.21 742.33,-177.93 749.75,-185.49 752.84,-179.21"/>
</g>
<!-- place on 2! -->
<g id="node25" class="node">
<title>place on 2!</title>
<ellipse fill="gray" stroke="black" cx="826.04" cy="-162" rx="32.16" ry="18"/>
<text text-anchor="middle" x="826.04" y="-159.8" font-family="Times,serif" font-size="9.00">place on 2!</text>
</g>
<!-- Sequence****&#45;&gt;place on 2! -->
<g id="edge24" class="edge">
<title>Sequence****&#45;&gt;place on 2!</title>
<path fill="none" stroke="black" d="M847.12,-215.7C843.92,-207.7 840.05,-198.02 836.51,-189.15"/>
<polygon fill="black" stroke="black" points="839.66,-187.61 832.69,-179.62 833.16,-190.21 839.66,-187.61"/>
</g>
<!-- place on 1! -->
<g id="node26" class="node">
<title>place on 1!</title>
<ellipse fill="gray" stroke="black" cx="909.04" cy="-162" rx="32.16" ry="18"/>
<text text-anchor="middle" x="909.04" y="-159.8" font-family="Times,serif" font-size="9.00">place on 1!</text>
</g>
<!-- Sequence****&#45;&gt;place on 1! -->
<g id="edge25" class="edge">
<title>Sequence****&#45;&gt;place on 1!</title>
<path fill="none" stroke="black" d="M867.64,-215.7C874.53,-206.93 883,-196.15 890.48,-186.63"/>
<polygon fill="black" stroke="black" points="893.31,-188.7 896.73,-178.67 887.8,-184.37 893.31,-188.7"/>
</g>
<!-- pick 0!** -->
<g id="node28" class="node">
<title>pick 0!**</title>
<ellipse fill="gray" stroke="black" cx="988.04" cy="-162" rx="28.74" ry="18"/>
<text text-anchor="middle" x="988.04" y="-159.8" font-family="Times,serif" font-size="9.00">pick 0!**</text>
</g>
<!-- Sequence*****&#45;&gt;pick 0!** -->
<g id="edge27" class="edge">
<title>Sequence*****&#45;&gt;pick 0!**</title>
<path fill="none" stroke="black" d="M988.04,-215.7C988.04,-207.98 988.04,-198.71 988.04,-190.11"/>
<polygon fill="black" stroke="black" points="991.54,-190.1 988.04,-180.1 984.54,-190.1 991.54,-190.1"/>
</g>
<!-- place at (0.0, 0.05, 0.0)!*** -->
<g id="node29" class="node">
<title>place at (0.0, 0.05, 0.0)!***</title>
<ellipse fill="gray" stroke="black" cx="1101.04" cy="-162" rx="66.29" ry="18"/>
<text text-anchor="middle" x="1101.04" y="-159.8" font-family="Times,serif" font-size="9.00">place at (0.0, 0.05, 0.0)!***</text>
</g>
<!-- Sequence*****&#45;&gt;place at (0.0, 0.05, 0.0)!*** -->
<g id="edge28" class="edge">
<title>Sequence*****&#45;&gt;place at (0.0, 0.05, 0.0)!***</title>
<path fill="none" stroke="black" d="M1012.29,-217.98C1028.19,-208.13 1049.22,-195.1 1066.82,-184.2"/>
<polygon fill="black" stroke="black" points="1069.01,-186.96 1075.67,-178.72 1065.32,-181.01 1069.01,-186.96"/>
</g>
<!-- 1 on 0? -->
<g id="node30" class="node">
<title>1 on 0?</title>
<ellipse fill="gray" stroke="black" cx="1212.04" cy="-162" rx="27" ry="18"/>
<text text-anchor="middle" x="1212.04" y="-159.8" font-family="Times,serif" font-size="9.00">1 on 0?</text>
</g>
<!-- Sequence*****&#45;&gt;1 on 0? -->
<g id="edge29" class="edge">
<title>Sequence*****&#45;&gt;1 on 0?</title>
<path fill="none" stroke="black" d="M1022.61,-222.11C1029.37,-220.04 1036.42,-217.92 1043.04,-216 1101.86,-198.96 1118.58,-201.16 1176.04,-180 1177.89,-179.32 1179.78,-178.58 1181.66,-177.8"/>
<polygon fill="black" stroke="black" points="1183.24,-180.93 1190.99,-173.7 1180.43,-174.52 1183.24,-180.93"/>
</g>
<!-- picked 1?** -->
<g id="node31" class="node">
<title>picked 1?**</title>
<ellipse fill="gray" stroke="black" cx="1291.04" cy="-162" rx="34.13" ry="18"/>
<text text-anchor="middle" x="1291.04" y="-159.8" font-family="Times,serif" font-size="9.00">picked 1?**</text>
</g>
<!-- Sequence*****&#45;&gt;picked 1?** -->
<g id="edge30" class="edge">
<title>Sequence*****&#45;&gt;picked 1?**</title>
<path fill="none" stroke="black" d="M1021.89,-221.81C1028.84,-219.71 1036.15,-217.66 1043.04,-216 1132.97,-194.3 1159.02,-205.13 1248.04,-180 1250.63,-179.27 1253.28,-178.44 1255.93,-177.54"/>
<polygon fill="black" stroke="black" points="1257.2,-180.81 1265.41,-174.11 1254.82,-174.23 1257.2,-180.81"/>
</g>
</g>
</svg>
