<?xml version="1.0" encoding="UTF-8" standalone="no"?>
<!DOCTYPE svg PUBLIC "-//W3C//DTD SVG 1.1//EN"
 "http://www.w3.org/Graphics/SVG/1.1/DTD/svg11.dtd">
<!-- Generated by graphviz version 2.43.0 (0)
 -->
<!-- Title: pastafarianism Pages: 1 -->
<svg width="844pt" height="260pt"
 viewBox="0.00 0.00 843.80 260.00" xmlns="http://www.w3.org/2000/svg" xmlns:xlink="http://www.w3.org/1999/xlink">
<g id="graph0" class="graph" transform="scale(1 1) rotate(0) translate(4 256)">
<title>pastafarianism</title>
<polygon fill="white" stroke="transparent" points="-4,4 -4,-256 839.8,-256 839.8,4 -4,4"/>
<!-- Sequence -->
<g id="node1" class="node">
<title>Sequence</title>
<polygon fill="cyan" stroke="black" points="441.54,-226.54 441.54,-241.46 423.09,-252 397,-252 378.55,-241.46 378.55,-226.54 397,-216 423.09,-216 441.54,-226.54"/>
<text text-anchor="middle" x="410.04" y="-231.8" font-family="Times,serif" font-size="9.00">Sequence</text>
</g>
<!-- Fallback -->
<g id="node2" class="node">
<title>Fallback</title>
<polygon fill="cyan" stroke="black" points="439.29,-154.54 439.29,-169.46 422.16,-180 397.93,-180 380.8,-169.46 380.8,-154.54 397.93,-144 422.16,-144 439.29,-154.54"/>
<text text-anchor="middle" x="410.04" y="-159.8" font-family="Times,serif" font-size="9.00">Fallback</text>
</g>
<!-- Sequence&#45;&gt;Fallback -->
<g id="edge1" class="edge">
<title>Sequence&#45;&gt;Fallback</title>
<path fill="none" stroke="black" d="M410.04,-215.7C410.04,-207.98 410.04,-198.71 410.04,-190.11"/>
<polygon fill="black" stroke="black" points="413.54,-190.1 410.04,-180.1 406.54,-190.1 413.54,-190.1"/>
</g>
<!-- Sequence* -->
<g id="node3" class="node">
<title>Sequence*</title>
<polygon fill="cyan" stroke="black" points="271.29,-82.54 271.29,-97.46 251.23,-108 222.86,-108 202.8,-97.46 202.8,-82.54 222.86,-72 251.23,-72 271.29,-82.54"/>
<text text-anchor="middle" x="237.04" y="-87.8" font-family="Times,serif" font-size="9.00">Sequence*</text>
</g>
<!-- Fallback&#45;&gt;Sequence* -->
<g id="edge2" class="edge">
<title>Fallback&#45;&gt;Sequence*</title>
<path fill="none" stroke="black" d="M385.99,-151.27C356.67,-139.4 306.85,-119.24 272.97,-105.54"/>
<polygon fill="black" stroke="black" points="274.03,-102.19 263.44,-101.68 271.4,-108.68 274.03,-102.19"/>
</g>
<!-- picked 1? -->
<g id="node8" class="node">
<title>picked 1?</title>
<ellipse fill="gray" stroke="black" cx="368.04" cy="-90" rx="28.74" ry="18"/>
<text text-anchor="middle" x="368.04" y="-87.8" font-family="Times,serif" font-size="9.00">picked 1?</text>
</g>
<!-- Fallback&#45;&gt;picked 1? -->
<g id="edge7" class="edge">
<title>Fallback&#45;&gt;picked 1?</title>
<path fill="none" stroke="black" d="M399.66,-143.7C394.63,-135.32 388.5,-125.1 382.98,-115.9"/>
<polygon fill="black" stroke="black" points="385.88,-113.92 377.73,-107.14 379.87,-117.52 385.88,-113.92"/>
</g>
<!-- Sequence** -->
<g id="node9" class="node">
<title>Sequence**</title>
<polygon fill="cyan" stroke="black" points="488.79,-82.54 488.79,-97.46 467.26,-108 436.83,-108 415.3,-97.46 415.3,-82.54 436.83,-72 467.26,-72 488.79,-82.54"/>
<text text-anchor="middle" x="452.04" y="-87.8" font-family="Times,serif" font-size="9.00">Sequence**</text>
</g>
<!-- Fallback&#45;&gt;Sequence** -->
<g id="edge8" class="edge">
<title>Fallback&#45;&gt;Sequence**</title>
<path fill="none" stroke="black" d="M420.43,-143.7C425.31,-135.56 431.23,-125.69 436.62,-116.7"/>
<polygon fill="black" stroke="black" points="439.64,-118.48 441.78,-108.1 433.64,-114.88 439.64,-118.48"/>
</g>
<!-- Sequence*** -->
<g id="node12" class="node">
<title>Sequence***</title>
<polygon fill="cyan" stroke="black" points="680.03,-82.54 680.03,-97.46 656.61,-108 623.48,-108 600.05,-97.46 600.05,-82.54 623.48,-72 656.61,-72 680.03,-82.54"/>
<text text-anchor="middle" x="640.04" y="-87.8" font-family="Times,serif" font-size="9.00">Sequence***</text>
</g>
<!-- Fallback&#45;&gt;Sequence*** -->
<g id="edge11" class="edge">
<title>Fallback&#45;&gt;Sequence***</title>
<path fill="none" stroke="black" d="M436.88,-152.83C476.48,-140.78 550.96,-118.11 597.9,-103.83"/>
<polygon fill="black" stroke="black" points="598.93,-107.17 607.47,-100.91 596.89,-100.48 598.93,-107.17"/>
</g>
<!-- 0 at pos (0.0, 0.05, 0.0)? -->
<g id="node4" class="node">
<title>0 at pos (0.0, 0.05, 0.0)?</title>
<ellipse fill="gray" stroke="black" cx="60.04" cy="-18" rx="60.09" ry="18"/>
<text text-anchor="middle" x="60.04" y="-15.8" font-family="Times,serif" font-size="9.00">0 at pos (0.0, 0.05, 0.0)?</text>
</g>
<!-- Sequence*&#45;&gt;0 at pos (0.0, 0.05, 0.0)? -->
<g id="edge3" class="edge">
<title>Sequence*&#45;&gt;0 at pos (0.0, 0.05, 0.0)?</title>
<path fill="none" stroke="black" d="M210.16,-78.37C182.08,-67.26 137.58,-49.66 104.3,-36.5"/>
<polygon fill="black" stroke="black" points="105.39,-33.17 94.8,-32.75 102.82,-39.68 105.39,-33.17"/>
</g>
<!-- 2 on 1? -->
<g id="node5" class="node">
<title>2 on 1?</title>
<ellipse fill="gray" stroke="black" cx="165.04" cy="-18" rx="27" ry="18"/>
<text text-anchor="middle" x="165.04" y="-15.8" font-family="Times,serif" font-size="9.00">2 on 1?</text>
</g>
<!-- Sequence*&#45;&gt;2 on 1? -->
<g id="edge4" class="edge">
<title>Sequence*&#45;&gt;2 on 1?</title>
<path fill="none" stroke="black" d="M220.71,-73.12C210.82,-63.51 198.09,-51.13 187.3,-40.63"/>
<polygon fill="black" stroke="black" points="189.46,-37.85 179.85,-33.39 184.58,-42.87 189.46,-37.85"/>
</g>
<!-- pick 2! -->
<g id="node6" class="node">
<title>pick 2!</title>
<ellipse fill="gray" stroke="black" cx="237.04" cy="-18" rx="27" ry="18"/>
<text text-anchor="middle" x="237.04" y="-15.8" font-family="Times,serif" font-size="9.00">pick 2!</text>
</g>
<!-- Sequence*&#45;&gt;pick 2! -->
<g id="edge5" class="edge">
<title>Sequence*&#45;&gt;pick 2!</title>
<path fill="none" stroke="black" d="M237.04,-71.7C237.04,-63.98 237.04,-54.71 237.04,-46.11"/>
<polygon fill="black" stroke="black" points="240.54,-46.1 237.04,-36.1 233.54,-46.1 240.54,-46.1"/>
</g>
<!-- 2 on 1?* -->
<g id="node7" class="node">
<title>2 on 1?*</title>
<ellipse fill="gray" stroke="black" cx="309.04" cy="-18" rx="27.27" ry="18"/>
<text text-anchor="middle" x="309.04" y="-15.8" font-family="Times,serif" font-size="9.00">2 on 1?*</text>
</g>
<!-- Sequence*&#45;&gt;2 on 1?* -->
<g id="edge6" class="edge">
<title>Sequence*&#45;&gt;2 on 1?*</title>
<path fill="none" stroke="black" d="M253.38,-73.12C263.26,-63.51 276,-51.13 286.79,-40.63"/>
<polygon fill="black" stroke="black" points="289.51,-42.87 294.24,-33.39 284.63,-37.85 289.51,-42.87"/>
</g>
<!-- place at (0.0, 0.05, 0.0)! -->
<g id="node10" class="node">
<title>place at (0.0, 0.05, 0.0)!</title>
<ellipse fill="gray" stroke="black" cx="412.04" cy="-18" rx="58.13" ry="18"/>
<text text-anchor="middle" x="412.04" y="-15.8" font-family="Times,serif" font-size="9.00">place at (0.0, 0.05, 0.0)!</text>
</g>
<!-- Sequence**&#45;&gt;place at (0.0, 0.05, 0.0)! -->
<g id="edge9" class="edge">
<title>Sequence**&#45;&gt;place at (0.0, 0.05, 0.0)!</title>
<path fill="none" stroke="black" d="M442.16,-71.7C437.56,-63.64 431.98,-53.89 426.89,-44.98"/>
<polygon fill="black" stroke="black" points="429.82,-43.05 421.82,-36.1 423.74,-46.52 429.82,-43.05"/>
</g>
<!-- pick 0! -->
<g id="node11" class="node">
<title>pick 0!</title>
<ellipse fill="gray" stroke="black" cx="515.04" cy="-18" rx="27" ry="18"/>
<text text-anchor="middle" x="515.04" y="-15.8" font-family="Times,serif" font-size="9.00">pick 0!</text>
</g>
<!-- Sequence**&#45;&gt;pick 0! -->
<g id="edge10" class="edge">
<title>Sequence**&#45;&gt;pick 0!</title>
<path fill="none" stroke="black" d="M467.62,-71.7C475.9,-62.5 486.17,-51.08 495.04,-41.23"/>
<polygon fill="black" stroke="black" points="497.69,-43.51 501.78,-33.74 492.49,-38.83 497.69,-43.51"/>
</g>
<!-- pick 0!* -->
<g id="node13" class="node">
<title>pick 0!*</title>
<ellipse fill="gray" stroke="black" cx="587.04" cy="-18" rx="27" ry="18"/>
<text text-anchor="middle" x="587.04" y="-15.8" font-family="Times,serif" font-size="9.00">pick 0!*</text>
</g>
<!-- Sequence***&#45;&gt;pick 0!* -->
<g id="edge12" class="edge">
<title>Sequence***&#45;&gt;pick 0!*</title>
<path fill="none" stroke="black" d="M626.94,-71.7C620.37,-63.02 612.31,-52.37 605.15,-42.92"/>
<polygon fill="black" stroke="black" points="607.74,-40.53 598.91,-34.67 602.16,-44.76 607.74,-40.53"/>
</g>
<!-- place at (0.0, 0.05, 0.0)!* -->
<g id="node14" class="node">
<title>place at (0.0, 0.05, 0.0)!*</title>
<ellipse fill="gray" stroke="black" cx="693.04" cy="-18" rx="61.4" ry="18"/>
<text text-anchor="middle" x="693.04" y="-15.8" font-family="Times,serif" font-size="9.00">place at (0.0, 0.05, 0.0)!*</text>
</g>
<!-- Sequence***&#45;&gt;place at (0.0, 0.05, 0.0)!* -->
<g id="edge13" class="edge">
<title>Sequence***&#45;&gt;place at (0.0, 0.05, 0.0)!*</title>
<path fill="none" stroke="black" d="M653.15,-71.7C659.53,-63.27 667.32,-52.97 674.32,-43.73"/>
<polygon fill="black" stroke="black" points="677.21,-45.71 680.46,-35.62 671.63,-41.48 677.21,-45.71"/>
</g>
<!-- picked 1?* -->
<g id="node15" class="node">
<title>picked 1?*</title>
<ellipse fill="gray" stroke="black" cx="804.04" cy="-18" rx="31.51" ry="18"/>
<text text-anchor="middle" x="804.04" y="-15.8" font-family="Times,serif" font-size="9.00">picked 1?*</text>
</g>
<!-- Sequence***&#45;&gt;picked 1?* -->
<g id="edge14" class="edge">
<title>Sequence***&#45;&gt;picked 1?*</title>
<path fill="none" stroke="black" d="M668.24,-76.97C696.5,-64.9 740.03,-46.32 770.16,-33.46"/>
<polygon fill="black" stroke="black" points="771.61,-36.65 779.43,-29.51 768.86,-30.21 771.61,-36.65"/>
</g>
</g>
</svg>
