<?xml version="1.0" encoding="UTF-8" standalone="no"?>
<!DOCTYPE svg PUBLIC "-//W3C//DTD SVG 1.1//EN"
 "http://www.w3.org/Graphics/SVG/1.1/DTD/svg11.dtd">
<!-- Generated by graphviz version 2.43.0 (0)
 -->
<!-- Title: pastafarianism Pages: 1 -->
<svg width="917pt" height="260pt"
 viewBox="0.00 0.00 916.80 260.00" xmlns="http://www.w3.org/2000/svg" xmlns:xlink="http://www.w3.org/1999/xlink">
<g id="graph0" class="graph" transform="scale(1 1) rotate(0) translate(4 256)">
<title>pastafarianism</title>
<polygon fill="white" stroke="transparent" points="-4,4 -4,-256 912.8,-256 912.8,4 -4,4"/>
<!-- Sequence -->
<g id="node1" class="node">
<title>Sequence</title>
<polygon fill="cyan" stroke="black" points="362.54,-226.54 362.54,-241.46 344.09,-252 318,-252 299.55,-241.46 299.55,-226.54 318,-216 344.09,-216 362.54,-226.54"/>
<text text-anchor="middle" x="331.04" y="-231.8" font-family="Times,serif" font-size="9.00">Sequence</text>
</g>
<!-- Fallback -->
<g id="node2" class="node">
<title>Fallback</title>
<polygon fill="cyan" stroke="black" points="360.29,-154.54 360.29,-169.46 343.16,-180 318.93,-180 301.8,-169.46 301.8,-154.54 318.93,-144 343.16,-144 360.29,-154.54"/>
<text text-anchor="middle" x="331.04" y="-159.8" font-family="Times,serif" font-size="9.00">Fallback</text>
</g>
<!-- Sequence&#45;&gt;Fallback -->
<g id="edge1" class="edge">
<title>Sequence&#45;&gt;Fallback</title>
<path fill="none" stroke="black" d="M331.04,-215.7C331.04,-207.98 331.04,-198.71 331.04,-190.11"/>
<polygon fill="black" stroke="black" points="334.54,-190.1 331.04,-180.1 327.54,-190.1 334.54,-190.1"/>
</g>
<!-- Sequence* -->
<g id="node3" class="node">
<title>Sequence*</title>
<polygon fill="cyan" stroke="black" points="237.29,-82.54 237.29,-97.46 217.23,-108 188.86,-108 168.8,-97.46 168.8,-82.54 188.86,-72 217.23,-72 237.29,-82.54"/>
<text text-anchor="middle" x="203.04" y="-87.8" font-family="Times,serif" font-size="9.00">Sequence*</text>
</g>
<!-- Fallback&#45;&gt;Sequence* -->
<g id="edge2" class="edge">
<title>Fallback&#45;&gt;Sequence*</title>
<path fill="none" stroke="black" d="M309.91,-149.44C289.47,-138.27 258.25,-121.19 234.82,-108.38"/>
<polygon fill="black" stroke="black" points="236.4,-105.25 225.94,-103.52 233.04,-111.39 236.4,-105.25"/>
</g>
<!-- picked 1? -->
<g id="node7" class="node">
<title>picked 1?</title>
<ellipse fill="gray" stroke="black" cx="289.04" cy="-90" rx="28.74" ry="18"/>
<text text-anchor="middle" x="289.04" y="-87.8" font-family="Times,serif" font-size="9.00">picked 1?</text>
</g>
<!-- Fallback&#45;&gt;picked 1? -->
<g id="edge6" class="edge">
<title>Fallback&#45;&gt;picked 1?</title>
<path fill="none" stroke="black" d="M320.66,-143.7C315.63,-135.32 309.5,-125.1 303.98,-115.9"/>
<polygon fill="black" stroke="black" points="306.88,-113.92 298.73,-107.14 300.87,-117.52 306.88,-113.92"/>
</g>
<!-- Sequence** -->
<g id="node8" class="node">
<title>Sequence**</title>
<polygon fill="cyan" stroke="black" points="409.79,-82.54 409.79,-97.46 388.26,-108 357.83,-108 336.3,-97.46 336.3,-82.54 357.83,-72 388.26,-72 409.79,-82.54"/>
<text text-anchor="middle" x="373.04" y="-87.8" font-family="Times,serif" font-size="9.00">Sequence**</text>
</g>
<!-- Fallback&#45;&gt;Sequence** -->
<g id="edge7" class="edge">
<title>Fallback&#45;&gt;Sequence**</title>
<path fill="none" stroke="black" d="M341.43,-143.7C346.31,-135.56 352.23,-125.69 357.62,-116.7"/>
<polygon fill="black" stroke="black" points="360.64,-118.48 362.78,-108.1 354.64,-114.88 360.64,-118.48"/>
</g>
<!-- Sequence*** -->
<g id="node11" class="node">
<title>Sequence***</title>
<polygon fill="cyan" stroke="black" points="695.03,-82.54 695.03,-97.46 671.61,-108 638.48,-108 615.05,-97.46 615.05,-82.54 638.48,-72 671.61,-72 695.03,-82.54"/>
<text text-anchor="middle" x="655.04" y="-87.8" font-family="Times,serif" font-size="9.00">Sequence***</text>
</g>
<!-- Fallback&#45;&gt;Sequence*** -->
<g id="edge10" class="edge">
<title>Fallback&#45;&gt;Sequence***</title>
<path fill="none" stroke="black" d="M360.37,-154.66C416.67,-142.5 540.34,-115.78 608.2,-101.12"/>
<polygon fill="black" stroke="black" points="609.15,-104.5 618.19,-98.96 607.67,-97.65 609.15,-104.5"/>
</g>
<!-- 0 at pos (0.0, 0.05, 0.0)? -->
<g id="node4" class="node">
<title>0 at pos (0.0, 0.05, 0.0)?</title>
<ellipse fill="gray" stroke="black" cx="60.04" cy="-18" rx="60.09" ry="18"/>
<text text-anchor="middle" x="60.04" y="-15.8" font-family="Times,serif" font-size="9.00">0 at pos (0.0, 0.05, 0.0)?</text>
</g>
<!-- Sequence*&#45;&gt;0 at pos (0.0, 0.05, 0.0)? -->
<g id="edge3" class="edge">
<title>Sequence*&#45;&gt;0 at pos (0.0, 0.05, 0.0)?</title>
<path fill="none" stroke="black" d="M178.79,-77.13C157,-66.46 124.62,-50.61 99.17,-38.15"/>
<polygon fill="black" stroke="black" points="100.66,-34.99 90.14,-33.73 97.59,-41.27 100.66,-34.99"/>
</g>
<!-- pick 2! -->
<g id="node5" class="node">
<title>pick 2!</title>
<ellipse fill="gray" stroke="black" cx="165.04" cy="-18" rx="27" ry="18"/>
<text text-anchor="middle" x="165.04" y="-15.8" font-family="Times,serif" font-size="9.00">pick 2!</text>
</g>
<!-- Sequence*&#45;&gt;pick 2! -->
<g id="edge4" class="edge">
<title>Sequence*&#45;&gt;pick 2!</title>
<path fill="none" stroke="black" d="M193.65,-71.7C189.15,-63.4 183.67,-53.31 178.72,-44.19"/>
<polygon fill="black" stroke="black" points="181.66,-42.26 173.81,-35.14 175.5,-45.6 181.66,-42.26"/>
</g>
<!-- 2 on 1? -->
<g id="node6" class="node">
<title>2 on 1?</title>
<ellipse fill="gray" stroke="black" cx="237.04" cy="-18" rx="27" ry="18"/>
<text text-anchor="middle" x="237.04" y="-15.8" font-family="Times,serif" font-size="9.00">2 on 1?</text>
</g>
<!-- Sequence*&#45;&gt;2 on 1? -->
<g id="edge5" class="edge">
<title>Sequence*&#45;&gt;2 on 1?</title>
<path fill="none" stroke="black" d="M211.45,-71.7C215.38,-63.61 220.14,-53.81 224.48,-44.87"/>
<polygon fill="black" stroke="black" points="227.75,-46.15 228.97,-35.62 221.45,-43.09 227.75,-46.15"/>
</g>
<!-- place at (0.0, 0.05, 0.0)! -->
<g id="node9" class="node">
<title>place at (0.0, 0.05, 0.0)!</title>
<ellipse fill="gray" stroke="black" cx="340.04" cy="-18" rx="58.13" ry="18"/>
<text text-anchor="middle" x="340.04" y="-15.8" font-family="Times,serif" font-size="9.00">place at (0.0, 0.05, 0.0)!</text>
</g>
<!-- Sequence**&#45;&gt;place at (0.0, 0.05, 0.0)! -->
<g id="edge8" class="edge">
<title>Sequence**&#45;&gt;place at (0.0, 0.05, 0.0)!</title>
<path fill="none" stroke="black" d="M364.89,-71.7C361.13,-63.73 356.59,-54.1 352.43,-45.26"/>
<polygon fill="black" stroke="black" points="355.54,-43.66 348.11,-36.1 349.21,-46.64 355.54,-43.66"/>
</g>
<!-- pick 0! -->
<g id="node10" class="node">
<title>pick 0!</title>
<ellipse fill="gray" stroke="black" cx="443.04" cy="-18" rx="27" ry="18"/>
<text text-anchor="middle" x="443.04" y="-15.8" font-family="Times,serif" font-size="9.00">pick 0!</text>
</g>
<!-- Sequence**&#45;&gt;pick 0! -->
<g id="edge9" class="edge">
<title>Sequence**&#45;&gt;pick 0!</title>
<path fill="none" stroke="black" d="M389.63,-72.41C399.13,-62.91 411.16,-50.88 421.4,-40.65"/>
<polygon fill="black" stroke="black" points="423.88,-43.12 428.47,-33.57 418.93,-38.17 423.88,-43.12"/>
</g>
<!-- place at (0.0, 0.05, 0.0)!* -->
<g id="node12" class="node">
<title>place at (0.0, 0.05, 0.0)!*</title>
<ellipse fill="gray" stroke="black" cx="549.04" cy="-18" rx="61.4" ry="18"/>
<text text-anchor="middle" x="549.04" y="-15.8" font-family="Times,serif" font-size="9.00">place at (0.0, 0.05, 0.0)!*</text>
</g>
<!-- Sequence***&#45;&gt;place at (0.0, 0.05, 0.0)!* -->
<g id="edge11" class="edge">
<title>Sequence***&#45;&gt;place at (0.0, 0.05, 0.0)!*</title>
<path fill="none" stroke="black" d="M632.82,-74.33C617.83,-64.43 597.81,-51.2 581.1,-40.17"/>
<polygon fill="black" stroke="black" points="582.98,-37.22 572.71,-34.63 579.12,-43.06 582.98,-37.22"/>
</g>
<!-- pick 0!* -->
<g id="node13" class="node">
<title>pick 0!*</title>
<ellipse fill="gray" stroke="black" cx="655.04" cy="-18" rx="27" ry="18"/>
<text text-anchor="middle" x="655.04" y="-15.8" font-family="Times,serif" font-size="9.00">pick 0!*</text>
</g>
<!-- Sequence***&#45;&gt;pick 0!* -->
<g id="edge12" class="edge">
<title>Sequence***&#45;&gt;pick 0!*</title>
<path fill="none" stroke="black" d="M655.04,-71.7C655.04,-63.98 655.04,-54.71 655.04,-46.11"/>
<polygon fill="black" stroke="black" points="658.54,-46.1 655.04,-36.1 651.54,-46.1 658.54,-46.1"/>
</g>
<!-- place at (0.0, 0.05, 0.0)!** -->
<g id="node14" class="node">
<title>place at (0.0, 0.05, 0.0)!**</title>
<ellipse fill="gray" stroke="black" cx="764.04" cy="-18" rx="63.52" ry="18"/>
<text text-anchor="middle" x="764.04" y="-15.8" font-family="Times,serif" font-size="9.00">place at (0.0, 0.05, 0.0)!**</text>
</g>
<!-- Sequence***&#45;&gt;place at (0.0, 0.05, 0.0)!** -->
<g id="edge13" class="edge">
<title>Sequence***&#45;&gt;place at (0.0, 0.05, 0.0)!**</title>
<path fill="none" stroke="black" d="M677.63,-74.5C693.03,-64.61 713.68,-51.35 730.93,-40.27"/>
<polygon fill="black" stroke="black" points="733.07,-43.05 739.59,-34.7 729.29,-37.16 733.07,-43.05"/>
</g>
<!-- picked 1?* -->
<g id="node15" class="node">
<title>picked 1?*</title>
<ellipse fill="gray" stroke="black" cx="877.04" cy="-18" rx="31.51" ry="18"/>
<text text-anchor="middle" x="877.04" y="-15.8" font-family="Times,serif" font-size="9.00">picked 1?*</text>
</g>
<!-- Sequence***&#45;&gt;picked 1?* -->
<g id="edge14" class="edge">
<title>Sequence***&#45;&gt;picked 1?*</title>
<path fill="none" stroke="black" d="M689.99,-80.14C726.92,-70.48 786.67,-53.97 837.04,-36 839.12,-35.26 841.25,-34.46 843.38,-33.64"/>
<polygon fill="black" stroke="black" points="844.72,-36.88 852.69,-29.89 842.1,-30.38 844.72,-36.88"/>
</g>
</g>
</svg>
