<?xml version="1.0" encoding="UTF-8" standalone="no"?>
<!DOCTYPE svg PUBLIC "-//W3C//DTD SVG 1.1//EN"
 "http://www.w3.org/Graphics/SVG/1.1/DTD/svg11.dtd">
<!-- Generated by graphviz version 2.43.0 (0)
 -->
<!-- Title: pastafarianism Pages: 1 -->
<svg width="866pt" height="260pt"
 viewBox="0.00 0.00 865.80 260.00" xmlns="http://www.w3.org/2000/svg" xmlns:xlink="http://www.w3.org/1999/xlink">
<g id="graph0" class="graph" transform="scale(1 1) rotate(0) translate(4 256)">
<title>pastafarianism</title>
<polygon fill="white" stroke="transparent" points="-4,4 -4,-256 861.8,-256 861.8,4 -4,4"/>
<!-- Sequence -->
<g id="node1" class="node">
<title>Sequence</title>
<polygon fill="cyan" stroke="black" points="429.54,-226.54 429.54,-241.46 411.09,-252 385,-252 366.55,-241.46 366.55,-226.54 385,-216 411.09,-216 429.54,-226.54"/>
<text text-anchor="middle" x="398.04" y="-231.8" font-family="Times,serif" font-size="9.00">Sequence</text>
</g>
<!-- Fallback -->
<g id="node2" class="node">
<title>Fallback</title>
<polygon fill="cyan" stroke="black" points="389.29,-154.54 389.29,-169.46 372.16,-180 347.93,-180 330.8,-169.46 330.8,-154.54 347.93,-144 372.16,-144 389.29,-154.54"/>
<text text-anchor="middle" x="360.04" y="-159.8" font-family="Times,serif" font-size="9.00">Fallback</text>
</g>
<!-- Sequence&#45;&gt;Fallback -->
<g id="edge1" class="edge">
<title>Sequence&#45;&gt;Fallback</title>
<path fill="none" stroke="black" d="M388.65,-215.7C384.28,-207.64 378.99,-197.89 374.15,-188.98"/>
<polygon fill="black" stroke="black" points="377.18,-187.22 369.33,-180.1 371.02,-190.56 377.18,-187.22"/>
</g>
<!-- picked 2? -->
<g id="node18" class="node">
<title>picked 2?</title>
<ellipse fill="gray" stroke="black" cx="436.04" cy="-162" rx="28.74" ry="18"/>
<text text-anchor="middle" x="436.04" y="-159.8" font-family="Times,serif" font-size="9.00">picked 2?</text>
</g>
<!-- Sequence&#45;&gt;picked 2? -->
<g id="edge17" class="edge">
<title>Sequence&#45;&gt;picked 2?</title>
<path fill="none" stroke="black" d="M407.44,-215.7C411.87,-207.52 417.26,-197.6 422.16,-188.58"/>
<polygon fill="black" stroke="black" points="425.33,-190.08 427.02,-179.62 419.17,-186.74 425.33,-190.08"/>
</g>
<!-- Sequence* -->
<g id="node3" class="node">
<title>Sequence*</title>
<polygon fill="cyan" stroke="black" points="199.29,-82.54 199.29,-97.46 179.23,-108 150.86,-108 130.8,-97.46 130.8,-82.54 150.86,-72 179.23,-72 199.29,-82.54"/>
<text text-anchor="middle" x="165.04" y="-87.8" font-family="Times,serif" font-size="9.00">Sequence*</text>
</g>
<!-- Fallback&#45;&gt;Sequence* -->
<g id="edge2" class="edge">
<title>Fallback&#45;&gt;Sequence*</title>
<path fill="none" stroke="black" d="M334.11,-152.32C303.76,-142.08 252.05,-124.36 208.04,-108 205.82,-107.17 203.54,-106.31 201.24,-105.43"/>
<polygon fill="black" stroke="black" points="202.41,-102.13 191.82,-101.78 199.88,-108.66 202.41,-102.13"/>
</g>
<!-- 2 on 0? -->
<g id="node7" class="node">
<title>2 on 0?</title>
<ellipse fill="gray" stroke="black" cx="244.04" cy="-90" rx="27" ry="18"/>
<text text-anchor="middle" x="244.04" y="-87.8" font-family="Times,serif" font-size="9.00">2 on 0?</text>
</g>
<!-- Fallback&#45;&gt;2 on 0? -->
<g id="edge6" class="edge">
<title>Fallback&#45;&gt;2 on 0?</title>
<path fill="none" stroke="black" d="M339.84,-148.81C321.18,-137.55 293.28,-120.71 272.39,-108.11"/>
<polygon fill="black" stroke="black" points="274,-104.99 263.63,-102.82 270.39,-110.98 274,-104.99"/>
</g>
<!-- picked 1? -->
<g id="node8" class="node">
<title>picked 1?</title>
<ellipse fill="gray" stroke="black" cx="318.04" cy="-90" rx="28.74" ry="18"/>
<text text-anchor="middle" x="318.04" y="-87.8" font-family="Times,serif" font-size="9.00">picked 1?</text>
</g>
<!-- Fallback&#45;&gt;picked 1? -->
<g id="edge7" class="edge">
<title>Fallback&#45;&gt;picked 1?</title>
<path fill="none" stroke="black" d="M349.66,-143.7C344.63,-135.32 338.5,-125.1 332.98,-115.9"/>
<polygon fill="black" stroke="black" points="335.88,-113.92 327.73,-107.14 329.87,-117.52 335.88,-113.92"/>
</g>
<!-- Sequence** -->
<g id="node9" class="node">
<title>Sequence**</title>
<polygon fill="cyan" stroke="black" points="438.79,-82.54 438.79,-97.46 417.26,-108 386.83,-108 365.3,-97.46 365.3,-82.54 386.83,-72 417.26,-72 438.79,-82.54"/>
<text text-anchor="middle" x="402.04" y="-87.8" font-family="Times,serif" font-size="9.00">Sequence**</text>
</g>
<!-- Fallback&#45;&gt;Sequence** -->
<g id="edge8" class="edge">
<title>Fallback&#45;&gt;Sequence**</title>
<path fill="none" stroke="black" d="M370.43,-143.7C375.31,-135.56 381.23,-125.69 386.62,-116.7"/>
<polygon fill="black" stroke="black" points="389.64,-118.48 391.78,-108.1 383.64,-114.88 389.64,-118.48"/>
</g>
<!-- 2 at pos (0.0, 0.05, 0.0384)? -->
<g id="node12" class="node">
<title>2 at pos (0.0, 0.05, 0.0384)?</title>
<ellipse fill="gray" stroke="black" cx="524.04" cy="-90" rx="67.6" ry="18"/>
<text text-anchor="middle" x="524.04" y="-87.8" font-family="Times,serif" font-size="9.00">2 at pos (0.0, 0.05, 0.0384)?</text>
</g>
<!-- Fallback&#45;&gt;2 at pos (0.0, 0.05, 0.0384)? -->
<g id="edge11" class="edge">
<title>Fallback&#45;&gt;2 at pos (0.0, 0.05, 0.0384)?</title>
<path fill="none" stroke="black" d="M383.32,-150.49C388.18,-148.32 393.27,-146.07 398.04,-144 425.05,-132.28 455.46,-119.48 479.64,-109.39"/>
<polygon fill="black" stroke="black" points="481.04,-112.6 488.92,-105.53 478.35,-106.14 481.04,-112.6"/>
</g>
<!-- Sequence*** -->
<g id="node13" class="node">
<title>Sequence***</title>
<polygon fill="cyan" stroke="black" points="690.03,-82.54 690.03,-97.46 666.61,-108 633.48,-108 610.05,-97.46 610.05,-82.54 633.48,-72 666.61,-72 690.03,-82.54"/>
<text text-anchor="middle" x="650.04" y="-87.8" font-family="Times,serif" font-size="9.00">Sequence***</text>
</g>
<!-- Fallback&#45;&gt;Sequence*** -->
<g id="edge12" class="edge">
<title>Fallback&#45;&gt;Sequence***</title>
<path fill="none" stroke="black" d="M382.2,-150C387.31,-147.77 392.79,-145.61 398.04,-144 485.63,-117.09 512.37,-131.09 601.04,-108 604.18,-107.18 607.41,-106.26 610.63,-105.28"/>
<polygon fill="black" stroke="black" points="611.77,-108.59 620.22,-102.19 609.62,-101.92 611.77,-108.59"/>
</g>
<!-- 0 at pos (0.0, 0.05, 0.0)? -->
<g id="node4" class="node">
<title>0 at pos (0.0, 0.05, 0.0)?</title>
<ellipse fill="gray" stroke="black" cx="60.04" cy="-18" rx="60.09" ry="18"/>
<text text-anchor="middle" x="60.04" y="-15.8" font-family="Times,serif" font-size="9.00">0 at pos (0.0, 0.05, 0.0)?</text>
</g>
<!-- Sequence*&#45;&gt;0 at pos (0.0, 0.05, 0.0)? -->
<g id="edge3" class="edge">
<title>Sequence*&#45;&gt;0 at pos (0.0, 0.05, 0.0)?</title>
<path fill="none" stroke="black" d="M144.3,-75.17C129.44,-65.26 109.14,-51.73 92.19,-40.43"/>
<polygon fill="black" stroke="black" points="93.94,-37.39 83.68,-34.76 90.06,-43.21 93.94,-37.39"/>
</g>
<!-- pick 2! -->
<g id="node5" class="node">
<title>pick 2!</title>
<ellipse fill="gray" stroke="black" cx="165.04" cy="-18" rx="27" ry="18"/>
<text text-anchor="middle" x="165.04" y="-15.8" font-family="Times,serif" font-size="9.00">pick 2!</text>
</g>
<!-- Sequence*&#45;&gt;pick 2! -->
<g id="edge4" class="edge">
<title>Sequence*&#45;&gt;pick 2!</title>
<path fill="none" stroke="black" d="M165.04,-71.7C165.04,-63.98 165.04,-54.71 165.04,-46.11"/>
<polygon fill="black" stroke="black" points="168.54,-46.1 165.04,-36.1 161.54,-46.1 168.54,-46.1"/>
</g>
<!-- 2 on 1? -->
<g id="node6" class="node">
<title>2 on 1?</title>
<ellipse fill="gray" stroke="black" cx="237.04" cy="-18" rx="27" ry="18"/>
<text text-anchor="middle" x="237.04" y="-15.8" font-family="Times,serif" font-size="9.00">2 on 1?</text>
</g>
<!-- Sequence*&#45;&gt;2 on 1? -->
<g id="edge5" class="edge">
<title>Sequence*&#45;&gt;2 on 1?</title>
<path fill="none" stroke="black" d="M181.38,-73.12C191.26,-63.51 204,-51.13 214.79,-40.63"/>
<polygon fill="black" stroke="black" points="217.51,-42.87 222.24,-33.39 212.63,-37.85 217.51,-42.87"/>
</g>
<!-- place at (0.0, 0.05, 0.0)! -->
<g id="node10" class="node">
<title>place at (0.0, 0.05, 0.0)!</title>
<ellipse fill="gray" stroke="black" cx="348.04" cy="-18" rx="58.13" ry="18"/>
<text text-anchor="middle" x="348.04" y="-15.8" font-family="Times,serif" font-size="9.00">place at (0.0, 0.05, 0.0)!</text>
</g>
<!-- Sequence**&#45;&gt;place at (0.0, 0.05, 0.0)! -->
<g id="edge9" class="edge">
<title>Sequence**&#45;&gt;place at (0.0, 0.05, 0.0)!</title>
<path fill="none" stroke="black" d="M388.7,-71.7C382.19,-63.27 374.25,-52.97 367.12,-43.73"/>
<polygon fill="black" stroke="black" points="369.75,-41.4 360.87,-35.62 364.2,-45.68 369.75,-41.4"/>
</g>
<!-- pick 0! -->
<g id="node11" class="node">
<title>pick 0!</title>
<ellipse fill="gray" stroke="black" cx="451.04" cy="-18" rx="27" ry="18"/>
<text text-anchor="middle" x="451.04" y="-15.8" font-family="Times,serif" font-size="9.00">pick 0!</text>
</g>
<!-- Sequence**&#45;&gt;pick 0! -->
<g id="edge10" class="edge">
<title>Sequence**&#45;&gt;pick 0!</title>
<path fill="none" stroke="black" d="M414.16,-71.7C420.23,-63.02 427.69,-52.37 434.3,-42.92"/>
<polygon fill="black" stroke="black" points="437.21,-44.87 440.07,-34.67 431.47,-40.86 437.21,-44.87"/>
</g>
<!-- pick 0!* -->
<g id="node14" class="node">
<title>pick 0!*</title>
<ellipse fill="gray" stroke="black" cx="537.04" cy="-18" rx="27" ry="18"/>
<text text-anchor="middle" x="537.04" y="-15.8" font-family="Times,serif" font-size="9.00">pick 0!*</text>
</g>
<!-- Sequence***&#45;&gt;pick 0!* -->
<g id="edge13" class="edge">
<title>Sequence***&#45;&gt;pick 0!*</title>
<path fill="none" stroke="black" d="M627.18,-74.83C609.14,-63.66 583.91,-48.03 564.73,-36.15"/>
<polygon fill="black" stroke="black" points="566.47,-33.11 556.13,-30.82 562.78,-39.06 566.47,-33.11"/>
</g>
<!-- place at (0.0, 0.05, 0.0)!* -->
<g id="node15" class="node">
<title>place at (0.0, 0.05, 0.0)!*</title>
<ellipse fill="gray" stroke="black" cx="643.04" cy="-18" rx="61.4" ry="18"/>
<text text-anchor="middle" x="643.04" y="-15.8" font-family="Times,serif" font-size="9.00">place at (0.0, 0.05, 0.0)!*</text>
</g>
<!-- Sequence***&#45;&gt;place at (0.0, 0.05, 0.0)!* -->
<g id="edge14" class="edge">
<title>Sequence***&#45;&gt;place at (0.0, 0.05, 0.0)!*</title>
<path fill="none" stroke="black" d="M648.31,-71.7C647.54,-63.98 646.62,-54.71 645.76,-46.11"/>
<polygon fill="black" stroke="black" points="649.23,-45.71 644.75,-36.1 642.27,-46.4 649.23,-45.71"/>
</g>
<!-- 0 on 1? -->
<g id="node16" class="node">
<title>0 on 1?</title>
<ellipse fill="gray" stroke="black" cx="749.04" cy="-18" rx="27" ry="18"/>
<text text-anchor="middle" x="749.04" y="-15.8" font-family="Times,serif" font-size="9.00">0 on 1?</text>
</g>
<!-- Sequence***&#45;&gt;0 on 1? -->
<g id="edge15" class="edge">
<title>Sequence***&#45;&gt;0 on 1?</title>
<path fill="none" stroke="black" d="M671.53,-73.81C686.59,-63.16 706.82,-48.85 722.84,-37.53"/>
<polygon fill="black" stroke="black" points="725.1,-40.22 731.24,-31.59 721.06,-34.5 725.1,-40.22"/>
</g>
<!-- picked 1?* -->
<g id="node17" class="node">
<title>picked 1?*</title>
<ellipse fill="gray" stroke="black" cx="826.04" cy="-18" rx="31.51" ry="18"/>
<text text-anchor="middle" x="826.04" y="-15.8" font-family="Times,serif" font-size="9.00">picked 1?*</text>
</g>
<!-- Sequence***&#45;&gt;picked 1?* -->
<g id="edge16" class="edge">
<title>Sequence***&#45;&gt;picked 1?*</title>
<path fill="none" stroke="black" d="M679.34,-77.68C706.73,-67.06 748.74,-50.65 785.04,-36 787.28,-35.1 789.57,-34.17 791.88,-33.22"/>
<polygon fill="black" stroke="black" points="793.44,-36.36 801.36,-29.32 790.78,-29.89 793.44,-36.36"/>
</g>
</g>
</svg>
