<?xml version="1.0" encoding="UTF-8" standalone="no"?>
<!DOCTYPE svg PUBLIC "-//W3C//DTD SVG 1.1//EN"
 "http://www.w3.org/Graphics/SVG/1.1/DTD/svg11.dtd">
<!-- Generated by graphviz version 2.43.0 (0)
 -->
<!-- Title: pastafarianism Pages: 1 -->
<svg width="1528pt" height="404pt"
 viewBox="0.00 0.00 1527.59 404.00" xmlns="http://www.w3.org/2000/svg" xmlns:xlink="http://www.w3.org/1999/xlink">
<g id="graph0" class="graph" transform="scale(1 1) rotate(0) translate(4 400)">
<title>pastafarianism</title>
<polygon fill="white" stroke="transparent" points="-4,4 -4,-400 1523.59,-400 1523.59,4 -4,4"/>
<!-- Sequence -->
<g id="node1" class="node">
<title>Sequence</title>
<polygon fill="cyan" stroke="black" points="1081.54,-370.54 1081.54,-385.46 1063.09,-396 1037,-396 1018.55,-385.46 1018.55,-370.54 1037,-360 1063.09,-360 1081.54,-370.54"/>
<text text-anchor="middle" x="1050.04" y="-375.8" font-family="Times,serif" font-size="9.00">Sequence</text>
</g>
<!-- Fallback -->
<g id="node2" class="node">
<title>Fallback</title>
<polygon fill="cyan" stroke="black" points="1042.29,-298.54 1042.29,-313.46 1025.16,-324 1000.93,-324 983.8,-313.46 983.8,-298.54 1000.93,-288 1025.16,-288 1042.29,-298.54"/>
<text text-anchor="middle" x="1013.04" y="-303.8" font-family="Times,serif" font-size="9.00">Fallback</text>
</g>
<!-- Sequence&#45;&gt;Fallback -->
<g id="edge1" class="edge">
<title>Sequence&#45;&gt;Fallback</title>
<path fill="none" stroke="black" d="M1040.9,-359.7C1036.64,-351.64 1031.49,-341.89 1026.78,-332.98"/>
<polygon fill="black" stroke="black" points="1029.85,-331.31 1022.09,-324.1 1023.66,-334.58 1029.85,-331.31"/>
</g>
<!-- pick 1!* -->
<g id="node32" class="node">
<title>pick 1!*</title>
<ellipse fill="gray" stroke="black" cx="1087.04" cy="-306" rx="27" ry="18"/>
<text text-anchor="middle" x="1087.04" y="-303.8" font-family="Times,serif" font-size="9.00">pick 1!*</text>
</g>
<!-- Sequence&#45;&gt;pick 1!* -->
<g id="edge31" class="edge">
<title>Sequence&#45;&gt;pick 1!*</title>
<path fill="none" stroke="black" d="M1059.19,-359.7C1063.57,-351.4 1068.91,-341.31 1073.73,-332.19"/>
<polygon fill="black" stroke="black" points="1076.93,-333.62 1078.51,-323.14 1070.74,-330.35 1076.93,-333.62"/>
</g>
<!-- Sequence* -->
<g id="node3" class="node">
<title>Sequence*</title>
<polygon fill="cyan" stroke="black" points="343.29,-226.54 343.29,-241.46 323.23,-252 294.86,-252 274.8,-241.46 274.8,-226.54 294.86,-216 323.23,-216 343.29,-226.54"/>
<text text-anchor="middle" x="309.04" y="-231.8" font-family="Times,serif" font-size="9.00">Sequence*</text>
</g>
<!-- Fallback&#45;&gt;Sequence* -->
<g id="edge2" class="edge">
<title>Fallback&#45;&gt;Sequence*</title>
<path fill="none" stroke="black" d="M983.69,-302.08C873.73,-291.15 485.75,-252.57 353.55,-239.43"/>
<polygon fill="black" stroke="black" points="353.68,-235.92 343.38,-238.41 352.99,-242.89 353.68,-235.92"/>
</g>
<!-- 2 on 0?* -->
<g id="node17" class="node">
<title>2 on 0?*</title>
<ellipse fill="gray" stroke="black" cx="740.04" cy="-234" rx="27.27" ry="18"/>
<text text-anchor="middle" x="740.04" y="-231.8" font-family="Times,serif" font-size="9.00">2 on 0?*</text>
</g>
<!-- Fallback&#45;&gt;2 on 0?* -->
<g id="edge16" class="edge">
<title>Fallback&#45;&gt;2 on 0?*</title>
<path fill="none" stroke="black" d="M983.65,-300.58C938.28,-293.28 848.82,-276.98 776.04,-252 774.18,-251.36 772.29,-250.65 770.39,-249.9"/>
<polygon fill="black" stroke="black" points="771.61,-246.61 761.04,-245.87 768.84,-253.04 771.61,-246.61"/>
</g>
<!-- Sequence*** -->
<g id="node18" class="node">
<title>Sequence***</title>
<polygon fill="cyan" stroke="black" points="865.03,-226.54 865.03,-241.46 841.61,-252 808.48,-252 785.05,-241.46 785.05,-226.54 808.48,-216 841.61,-216 865.03,-226.54"/>
<text text-anchor="middle" x="825.04" y="-231.8" font-family="Times,serif" font-size="9.00">Sequence***</text>
</g>
<!-- Fallback&#45;&gt;Sequence*** -->
<g id="edge17" class="edge">
<title>Fallback&#45;&gt;Sequence***</title>
<path fill="none" stroke="black" d="M988.08,-295.7C956.54,-283.96 901.89,-263.61 864.63,-249.74"/>
<polygon fill="black" stroke="black" points="865.68,-246.4 855.09,-246.19 863.24,-252.96 865.68,-246.4"/>
</g>
<!-- Sequence**** -->
<g id="node22" class="node">
<title>Sequence****</title>
<polygon fill="cyan" stroke="black" points="967.53,-226.54 967.53,-241.46 942.64,-252 907.44,-252 882.56,-241.46 882.56,-226.54 907.44,-216 942.64,-216 967.53,-226.54"/>
<text text-anchor="middle" x="925.04" y="-231.8" font-family="Times,serif" font-size="9.00">Sequence****</text>
</g>
<!-- Fallback&#45;&gt;Sequence**** -->
<g id="edge21" class="edge">
<title>Fallback&#45;&gt;Sequence****</title>
<path fill="none" stroke="black" d="M995.66,-291.17C983.52,-281.51 967.04,-268.41 953.06,-257.28"/>
<polygon fill="black" stroke="black" points="955.17,-254.49 945.17,-251.01 950.81,-259.97 955.17,-254.49"/>
</g>
<!-- 2 on 1?* -->
<g id="node27" class="node">
<title>2 on 1?*</title>
<ellipse fill="gray" stroke="black" cx="1013.04" cy="-234" rx="27.27" ry="18"/>
<text text-anchor="middle" x="1013.04" y="-231.8" font-family="Times,serif" font-size="9.00">2 on 1?*</text>
</g>
<!-- Fallback&#45;&gt;2 on 1?* -->
<g id="edge26" class="edge">
<title>Fallback&#45;&gt;2 on 1?*</title>
<path fill="none" stroke="black" d="M1013.04,-287.7C1013.04,-279.98 1013.04,-270.71 1013.04,-262.11"/>
<polygon fill="black" stroke="black" points="1016.54,-262.1 1013.04,-252.1 1009.54,-262.1 1016.54,-262.1"/>
</g>
<!-- place at (0.0, 0.05, 0.0)!**** -->
<g id="node28" class="node">
<title>place at (0.0, 0.05, 0.0)!****</title>
<ellipse fill="gray" stroke="black" cx="1127.04" cy="-234" rx="68.91" ry="18"/>
<text text-anchor="middle" x="1127.04" y="-231.8" font-family="Times,serif" font-size="9.00">place at (0.0, 0.05, 0.0)!****</text>
</g>
<!-- Fallback&#45;&gt;place at (0.0, 0.05, 0.0)!**** -->
<g id="edge27" class="edge">
<title>Fallback&#45;&gt;place at (0.0, 0.05, 0.0)!****</title>
<path fill="none" stroke="black" d="M1033.16,-292.65C1049.57,-282.57 1073.12,-268.11 1092.53,-256.19"/>
<polygon fill="black" stroke="black" points="1094.43,-259.13 1101.12,-250.92 1090.76,-253.17 1094.43,-259.13"/>
</g>
<!-- pick 0!** -->
<g id="node29" class="node">
<title>pick 0!**</title>
<ellipse fill="gray" stroke="black" cx="1243.04" cy="-234" rx="28.74" ry="18"/>
<text text-anchor="middle" x="1243.04" y="-231.8" font-family="Times,serif" font-size="9.00">pick 0!**</text>
</g>
<!-- Fallback&#45;&gt;pick 0!** -->
<g id="edge28" class="edge">
<title>Fallback&#45;&gt;pick 0!**</title>
<path fill="none" stroke="black" d="M1035.27,-294.21C1040.38,-291.97 1045.84,-289.75 1051.04,-288 1117.65,-265.55 1138.44,-274.45 1205.04,-252 1207.16,-251.29 1209.32,-250.5 1211.47,-249.66"/>
<polygon fill="black" stroke="black" points="1212.92,-252.85 1220.82,-245.79 1210.24,-246.39 1212.92,-252.85"/>
</g>
<!-- apply force 0! -->
<g id="node30" class="node">
<title>apply force 0!</title>
<ellipse fill="gray" stroke="black" cx="1328.04" cy="-234" rx="38.21" ry="18"/>
<text text-anchor="middle" x="1328.04" y="-231.8" font-family="Times,serif" font-size="9.00">apply force 0!</text>
</g>
<!-- Fallback&#45;&gt;apply force 0! -->
<g id="edge29" class="edge">
<title>Fallback&#45;&gt;apply force 0!</title>
<path fill="none" stroke="black" d="M1035.17,-293.92C1040.29,-291.69 1045.78,-289.56 1051.04,-288 1150.25,-258.62 1180.82,-277.71 1281.04,-252 1283.98,-251.25 1286.98,-250.39 1289.98,-249.46"/>
<polygon fill="black" stroke="black" points="1291.09,-252.78 1299.49,-246.32 1288.89,-246.13 1291.09,-252.78"/>
</g>
<!-- 2 at pos (0.0, 0.05, 0.0384)? -->
<g id="node31" class="node">
<title>2 at pos (0.0, 0.05, 0.0384)?</title>
<ellipse fill="gray" stroke="black" cx="1452.04" cy="-234" rx="67.6" ry="18"/>
<text text-anchor="middle" x="1452.04" y="-231.8" font-family="Times,serif" font-size="9.00">2 at pos (0.0, 0.05, 0.0384)?</text>
</g>
<!-- Fallback&#45;&gt;2 at pos (0.0, 0.05, 0.0384)? -->
<g id="edge30" class="edge">
<title>Fallback&#45;&gt;2 at pos (0.0, 0.05, 0.0384)?</title>
<path fill="none" stroke="black" d="M1035.12,-293.74C1040.24,-291.53 1045.74,-289.44 1051.04,-288 1190.85,-249.96 1232.1,-275.65 1375.04,-252 1380.93,-251.03 1387.04,-249.89 1393.13,-248.68"/>
<polygon fill="black" stroke="black" points="1394.23,-252.03 1403.32,-246.58 1392.82,-245.17 1394.23,-252.03"/>
</g>
<!-- 0 at pos (0.0, 0.05, 0.0)? -->
<g id="node4" class="node">
<title>0 at pos (0.0, 0.05, 0.0)?</title>
<ellipse fill="gray" stroke="black" cx="60.04" cy="-162" rx="60.09" ry="18"/>
<text text-anchor="middle" x="60.04" y="-159.8" font-family="Times,serif" font-size="9.00">0 at pos (0.0, 0.05, 0.0)?</text>
</g>
<!-- Sequence*&#45;&gt;0 at pos (0.0, 0.05, 0.0)? -->
<g id="edge3" class="edge">
<title>Sequence*&#45;&gt;0 at pos (0.0, 0.05, 0.0)?</title>
<path fill="none" stroke="black" d="M278.51,-224.42C237.12,-212.78 162.59,-191.83 112.23,-177.67"/>
<polygon fill="black" stroke="black" points="113.07,-174.27 102.5,-174.93 111.18,-181.01 113.07,-174.27"/>
</g>
<!-- pick 2! -->
<g id="node5" class="node">
<title>pick 2!</title>
<ellipse fill="gray" stroke="black" cx="165.04" cy="-162" rx="27" ry="18"/>
<text text-anchor="middle" x="165.04" y="-159.8" font-family="Times,serif" font-size="9.00">pick 2!</text>
</g>
<!-- Sequence*&#45;&gt;pick 2! -->
<g id="edge4" class="edge">
<title>Sequence*&#45;&gt;pick 2!</title>
<path fill="none" stroke="black" d="M284.62,-221.13C260.03,-209.17 222.06,-190.71 195.52,-177.81"/>
<polygon fill="black" stroke="black" points="196.83,-174.56 186.3,-173.33 193.77,-180.85 196.83,-174.56"/>
</g>
<!-- 2 on 1? -->
<g id="node6" class="node">
<title>2 on 1?</title>
<ellipse fill="gray" stroke="black" cx="237.04" cy="-162" rx="27" ry="18"/>
<text text-anchor="middle" x="237.04" y="-159.8" font-family="Times,serif" font-size="9.00">2 on 1?</text>
</g>
<!-- Sequence*&#45;&gt;2 on 1? -->
<g id="edge5" class="edge">
<title>Sequence*&#45;&gt;2 on 1?</title>
<path fill="none" stroke="black" d="M292.71,-217.12C282.82,-207.51 270.09,-195.13 259.3,-184.63"/>
<polygon fill="black" stroke="black" points="261.46,-181.85 251.85,-177.39 256.58,-186.87 261.46,-181.85"/>
</g>
<!-- pick 1! -->
<g id="node7" class="node">
<title>pick 1!</title>
<ellipse fill="gray" stroke="black" cx="309.04" cy="-162" rx="27" ry="18"/>
<text text-anchor="middle" x="309.04" y="-159.8" font-family="Times,serif" font-size="9.00">pick 1!</text>
</g>
<!-- Sequence*&#45;&gt;pick 1! -->
<g id="edge6" class="edge">
<title>Sequence*&#45;&gt;pick 1!</title>
<path fill="none" stroke="black" d="M309.04,-215.7C309.04,-207.98 309.04,-198.71 309.04,-190.11"/>
<polygon fill="black" stroke="black" points="312.54,-190.1 309.04,-180.1 305.54,-190.1 312.54,-190.1"/>
</g>
<!-- Fallback* -->
<g id="node8" class="node">
<title>Fallback*</title>
<polygon fill="cyan" stroke="black" points="417.79,-154.54 417.79,-169.46 399.19,-180 372.9,-180 354.3,-169.46 354.3,-154.54 372.9,-144 399.19,-144 417.79,-154.54"/>
<text text-anchor="middle" x="386.04" y="-159.8" font-family="Times,serif" font-size="9.00">Fallback*</text>
</g>
<!-- Sequence*&#45;&gt;Fallback* -->
<g id="edge7" class="edge">
<title>Sequence*&#45;&gt;Fallback*</title>
<path fill="none" stroke="black" d="M326.13,-217.46C336.57,-207.97 350.09,-195.68 361.65,-185.18"/>
<polygon fill="black" stroke="black" points="364.22,-187.57 369.27,-178.25 359.51,-182.39 364.22,-187.57"/>
</g>
<!-- place at (0.0, 0.05, 0.0)!* -->
<g id="node16" class="node">
<title>place at (0.0, 0.05, 0.0)!*</title>
<ellipse fill="gray" stroke="black" cx="497.04" cy="-162" rx="61.4" ry="18"/>
<text text-anchor="middle" x="497.04" y="-159.8" font-family="Times,serif" font-size="9.00">place at (0.0, 0.05, 0.0)!*</text>
</g>
<!-- Sequence*&#45;&gt;place at (0.0, 0.05, 0.0)!* -->
<g id="edge15" class="edge">
<title>Sequence*&#45;&gt;place at (0.0, 0.05, 0.0)!*</title>
<path fill="none" stroke="black" d="M336.38,-222.82C366.36,-211.66 414.96,-193.56 450.87,-180.19"/>
<polygon fill="black" stroke="black" points="452.49,-183.33 460.64,-176.56 450.04,-176.77 452.49,-183.33"/>
</g>
<!-- 0 at pos (0.0, 0.05, 0.0)?* -->
<g id="node9" class="node">
<title>0 at pos (0.0, 0.05, 0.0)?*</title>
<ellipse fill="gray" stroke="black" cx="242.04" cy="-90" rx="62.21" ry="18"/>
<text text-anchor="middle" x="242.04" y="-87.8" font-family="Times,serif" font-size="9.00">0 at pos (0.0, 0.05, 0.0)?*</text>
</g>
<!-- Fallback*&#45;&gt;0 at pos (0.0, 0.05, 0.0)?* -->
<g id="edge8" class="edge">
<title>Fallback*&#45;&gt;0 at pos (0.0, 0.05, 0.0)?*</title>
<path fill="none" stroke="black" d="M362.59,-149.6C340.73,-138.97 307.69,-122.91 281.73,-110.29"/>
<polygon fill="black" stroke="black" points="283.04,-107.04 272.51,-105.81 279.98,-113.33 283.04,-107.04"/>
</g>
<!-- 2 on 0? -->
<g id="node10" class="node">
<title>2 on 0?</title>
<ellipse fill="gray" stroke="black" cx="349.04" cy="-90" rx="27" ry="18"/>
<text text-anchor="middle" x="349.04" y="-87.8" font-family="Times,serif" font-size="9.00">2 on 0?</text>
</g>
<!-- Fallback*&#45;&gt;2 on 0? -->
<g id="edge9" class="edge">
<title>Fallback*&#45;&gt;2 on 0?</title>
<path fill="none" stroke="black" d="M376.9,-143.7C372.51,-135.4 367.18,-125.31 362.36,-116.19"/>
<polygon fill="black" stroke="black" points="365.35,-114.35 357.58,-107.14 359.16,-117.62 365.35,-114.35"/>
</g>
<!-- picked 1? -->
<g id="node11" class="node">
<title>picked 1?</title>
<ellipse fill="gray" stroke="black" cx="423.04" cy="-90" rx="28.74" ry="18"/>
<text text-anchor="middle" x="423.04" y="-87.8" font-family="Times,serif" font-size="9.00">picked 1?</text>
</g>
<!-- Fallback*&#45;&gt;picked 1? -->
<g id="edge10" class="edge">
<title>Fallback*&#45;&gt;picked 1?</title>
<path fill="none" stroke="black" d="M395.19,-143.7C399.51,-135.52 404.75,-125.6 409.52,-116.58"/>
<polygon fill="black" stroke="black" points="412.68,-118.1 414.26,-107.62 406.49,-114.83 412.68,-118.1"/>
</g>
<!-- Sequence** -->
<g id="node12" class="node">
<title>Sequence**</title>
<polygon fill="cyan" stroke="black" points="543.79,-82.54 543.79,-97.46 522.26,-108 491.83,-108 470.3,-97.46 470.3,-82.54 491.83,-72 522.26,-72 543.79,-82.54"/>
<text text-anchor="middle" x="507.04" y="-87.8" font-family="Times,serif" font-size="9.00">Sequence**</text>
</g>
<!-- Fallback*&#45;&gt;Sequence** -->
<g id="edge11" class="edge">
<title>Fallback*&#45;&gt;Sequence**</title>
<path fill="none" stroke="black" d="M407.4,-148.65C426.16,-137.79 453.72,-121.85 475.1,-109.48"/>
<polygon fill="black" stroke="black" points="476.94,-112.46 483.84,-104.42 473.43,-106.4 476.94,-112.46"/>
</g>
<!-- pick 0! -->
<g id="node13" class="node">
<title>pick 0!</title>
<ellipse fill="gray" stroke="black" cx="404.04" cy="-18" rx="27" ry="18"/>
<text text-anchor="middle" x="404.04" y="-15.8" font-family="Times,serif" font-size="9.00">pick 0!</text>
</g>
<!-- Sequence**&#45;&gt;pick 0! -->
<g id="edge12" class="edge">
<title>Sequence**&#45;&gt;pick 0!</title>
<path fill="none" stroke="black" d="M485.7,-74.5C469.75,-63.65 447.83,-48.75 430.71,-37.12"/>
<polygon fill="black" stroke="black" points="432.5,-34.11 422.26,-31.38 428.56,-39.9 432.5,-34.11"/>
</g>
<!-- place at (0.0, 0.05, 0.0)! -->
<g id="node14" class="node">
<title>place at (0.0, 0.05, 0.0)!</title>
<ellipse fill="gray" stroke="black" cx="507.04" cy="-18" rx="58.13" ry="18"/>
<text text-anchor="middle" x="507.04" y="-15.8" font-family="Times,serif" font-size="9.00">place at (0.0, 0.05, 0.0)!</text>
</g>
<!-- Sequence**&#45;&gt;place at (0.0, 0.05, 0.0)! -->
<g id="edge13" class="edge">
<title>Sequence**&#45;&gt;place at (0.0, 0.05, 0.0)!</title>
<path fill="none" stroke="black" d="M507.04,-71.7C507.04,-63.98 507.04,-54.71 507.04,-46.11"/>
<polygon fill="black" stroke="black" points="510.54,-46.1 507.04,-36.1 503.54,-46.1 510.54,-46.1"/>
</g>
<!-- picked 1?* -->
<g id="node15" class="node">
<title>picked 1?*</title>
<ellipse fill="gray" stroke="black" cx="615.04" cy="-18" rx="31.51" ry="18"/>
<text text-anchor="middle" x="615.04" y="-15.8" font-family="Times,serif" font-size="9.00">picked 1?*</text>
</g>
<!-- Sequence**&#45;&gt;picked 1?* -->
<g id="edge14" class="edge">
<title>Sequence**&#45;&gt;picked 1?*</title>
<path fill="none" stroke="black" d="M528.64,-75C545.25,-64.24 568.35,-49.26 586.49,-37.51"/>
<polygon fill="black" stroke="black" points="588.46,-40.4 594.95,-32.03 584.65,-34.53 588.46,-40.4"/>
</g>
<!-- place at (0.0, 0.05, 0.0)!** -->
<g id="node19" class="node">
<title>place at (0.0, 0.05, 0.0)!**</title>
<ellipse fill="gray" stroke="black" cx="640.04" cy="-162" rx="63.52" ry="18"/>
<text text-anchor="middle" x="640.04" y="-159.8" font-family="Times,serif" font-size="9.00">place at (0.0, 0.05, 0.0)!**</text>
</g>
<!-- Sequence***&#45;&gt;place at (0.0, 0.05, 0.0)!** -->
<g id="edge18" class="edge">
<title>Sequence***&#45;&gt;place at (0.0, 0.05, 0.0)!**</title>
<path fill="none" stroke="black" d="M795.32,-221.75C765.94,-210.64 720.57,-193.47 686.45,-180.56"/>
<polygon fill="black" stroke="black" points="687.29,-177.13 676.7,-176.87 684.81,-183.68 687.29,-177.13"/>
</g>
<!-- place on 2! -->
<g id="node20" class="node">
<title>place on 2!</title>
<ellipse fill="gray" stroke="black" cx="754.04" cy="-162" rx="32.16" ry="18"/>
<text text-anchor="middle" x="754.04" y="-159.8" font-family="Times,serif" font-size="9.00">place on 2!</text>
</g>
<!-- Sequence***&#45;&gt;place on 2! -->
<g id="edge19" class="edge">
<title>Sequence***&#45;&gt;place on 2!</title>
<path fill="none" stroke="black" d="M807.86,-216.05C798.57,-206.9 786.98,-195.47 776.93,-185.57"/>
<polygon fill="black" stroke="black" points="779.2,-182.88 769.62,-178.36 774.28,-187.87 779.2,-182.88"/>
</g>
<!-- place on 1! -->
<g id="node21" class="node">
<title>place on 1!</title>
<ellipse fill="gray" stroke="black" cx="837.04" cy="-162" rx="32.16" ry="18"/>
<text text-anchor="middle" x="837.04" y="-159.8" font-family="Times,serif" font-size="9.00">place on 1!</text>
</g>
<!-- Sequence***&#45;&gt;place on 1! -->
<g id="edge20" class="edge">
<title>Sequence***&#45;&gt;place on 1!</title>
<path fill="none" stroke="black" d="M828.01,-215.7C829.33,-207.98 830.92,-198.71 832.4,-190.11"/>
<polygon fill="black" stroke="black" points="835.87,-190.55 834.11,-180.1 828.97,-189.37 835.87,-190.55"/>
</g>
<!-- pick 0!* -->
<g id="node23" class="node">
<title>pick 0!*</title>
<ellipse fill="gray" stroke="black" cx="914.04" cy="-162" rx="27" ry="18"/>
<text text-anchor="middle" x="914.04" y="-159.8" font-family="Times,serif" font-size="9.00">pick 0!*</text>
</g>
<!-- Sequence****&#45;&gt;pick 0!* -->
<g id="edge22" class="edge">
<title>Sequence****&#45;&gt;pick 0!*</title>
<path fill="none" stroke="black" d="M922.33,-215.7C921.11,-207.98 919.66,-198.71 918.3,-190.11"/>
<polygon fill="black" stroke="black" points="921.74,-189.44 916.73,-180.1 914.83,-190.53 921.74,-189.44"/>
</g>
<!-- place at (0.0, 0.05, 0.0)!*** -->
<g id="node24" class="node">
<title>place at (0.0, 0.05, 0.0)!***</title>
<ellipse fill="gray" stroke="black" cx="1025.04" cy="-162" rx="66.29" ry="18"/>
<text text-anchor="middle" x="1025.04" y="-159.8" font-family="Times,serif" font-size="9.00">place at (0.0, 0.05, 0.0)!***</text>
</g>
<!-- Sequence****&#45;&gt;place at (0.0, 0.05, 0.0)!*** -->
<g id="edge23" class="edge">
<title>Sequence****&#45;&gt;place at (0.0, 0.05, 0.0)!***</title>
<path fill="none" stroke="black" d="M947.24,-217.46C960.9,-207.9 978.62,-195.5 993.7,-184.94"/>
<polygon fill="black" stroke="black" points="996.03,-187.58 1002.22,-178.98 992.02,-181.84 996.03,-187.58"/>
</g>
<!-- 1 on 0? -->
<g id="node25" class="node">
<title>1 on 0?</title>
<ellipse fill="gray" stroke="black" cx="1136.04" cy="-162" rx="27" ry="18"/>
<text text-anchor="middle" x="1136.04" y="-159.8" font-family="Times,serif" font-size="9.00">1 on 0?</text>
</g>
<!-- Sequence****&#45;&gt;1 on 0? -->
<g id="edge24" class="edge">
<title>Sequence****&#45;&gt;1 on 0?</title>
<path fill="none" stroke="black" d="M957.45,-222.23C963.93,-220.13 970.69,-217.97 977.04,-216 1031.45,-199.15 1046.8,-200.22 1100.04,-180 1101.89,-179.3 1103.76,-178.55 1105.65,-177.76"/>
<polygon fill="black" stroke="black" points="1107.24,-180.88 1114.96,-173.63 1104.4,-174.48 1107.24,-180.88"/>
</g>
<!-- picked 1?** -->
<g id="node26" class="node">
<title>picked 1?**</title>
<ellipse fill="gray" stroke="black" cx="1215.04" cy="-162" rx="34.13" ry="18"/>
<text text-anchor="middle" x="1215.04" y="-159.8" font-family="Times,serif" font-size="9.00">picked 1?**</text>
</g>
<!-- Sequence****&#45;&gt;picked 1?** -->
<g id="edge25" class="edge">
<title>Sequence****&#45;&gt;picked 1?**</title>
<path fill="none" stroke="black" d="M956.75,-221.89C963.4,-219.77 970.42,-217.69 977.04,-216 1062.45,-194.26 1087.33,-204.32 1172.04,-180 1174.63,-179.26 1177.28,-178.42 1179.93,-177.52"/>
<polygon fill="black" stroke="black" points="1181.2,-180.78 1189.4,-174.07 1178.81,-174.2 1181.2,-180.78"/>
</g>
</g>
</svg>
