<?xml version="1.0" encoding="UTF-8" standalone="no"?>
<!DOCTYPE svg PUBLIC "-//W3C//DTD SVG 1.1//EN"
 "http://www.w3.org/Graphics/SVG/1.1/DTD/svg11.dtd">
<!-- Generated by graphviz version 2.43.0 (0)
 -->
<!-- Title: pastafarianism Pages: 1 -->
<svg width="1192pt" height="476pt"
 viewBox="0.00 0.00 1191.69 476.00" xmlns="http://www.w3.org/2000/svg" xmlns:xlink="http://www.w3.org/1999/xlink">
<g id="graph0" class="graph" transform="scale(1 1) rotate(0) translate(4 472)">
<title>pastafarianism</title>
<polygon fill="white" stroke="transparent" points="-4,4 -4,-472 1187.69,-472 1187.69,4 -4,4"/>
<!-- Fallback -->
<g id="node1" class="node">
<title>Fallback</title>
<polygon fill="cyan" stroke="black" points="507.97,-442.54 507.97,-457.46 490.84,-468 466.61,-468 449.48,-457.46 449.48,-442.54 466.61,-432 490.84,-432 507.97,-442.54"/>
<text text-anchor="middle" x="478.72" y="-447.8" font-family="Times,serif" font-size="9.00">Fallback</text>
</g>
<!-- ReachGoal? -->
<g id="node2" class="node">
<title>ReachGoal?</title>
<ellipse fill="gray" stroke="black" cx="203.72" cy="-378" rx="34.13" ry="18"/>
<text text-anchor="middle" x="203.72" y="-375.8" font-family="Times,serif" font-size="9.00">ReachGoal?</text>
</g>
<!-- Fallback&#45;&gt;ReachGoal? -->
<g id="edge1" class="edge">
<title>Fallback&#45;&gt;ReachGoal?</title>
<path fill="none" stroke="black" d="M449.41,-443.79C405.03,-435.56 318.35,-418.2 246.72,-396 244.15,-395.2 241.52,-394.32 238.88,-393.4"/>
<polygon fill="black" stroke="black" points="240.01,-390.08 229.42,-389.89 237.58,-396.65 240.01,-390.08"/>
</g>
<!-- Sequence -->
<g id="node3" class="node">
<title>Sequence</title>
<polygon fill="cyan" stroke="black" points="318.22,-370.54 318.22,-385.46 299.77,-396 273.68,-396 255.23,-385.46 255.23,-370.54 273.68,-360 299.77,-360 318.22,-370.54"/>
<text text-anchor="middle" x="286.72" y="-375.8" font-family="Times,serif" font-size="9.00">Sequence</text>
</g>
<!-- Fallback&#45;&gt;Sequence -->
<g id="edge2" class="edge">
<title>Fallback&#45;&gt;Sequence</title>
<path fill="none" stroke="black" d="M453.62,-439.85C420.22,-427.67 360.94,-406.06 322.76,-392.14"/>
<polygon fill="black" stroke="black" points="323.66,-388.74 313.06,-388.6 321.26,-395.32 323.66,-388.74"/>
</g>
<!-- ReachGoal?*** -->
<g id="node18" class="node">
<title>ReachGoal?***</title>
<ellipse fill="gray" stroke="black" cx="428.72" cy="-378" rx="42.29" ry="18"/>
<text text-anchor="middle" x="428.72" y="-375.8" font-family="Times,serif" font-size="9.00">ReachGoal?***</text>
</g>
<!-- Fallback&#45;&gt;ReachGoal?*** -->
<g id="edge17" class="edge">
<title>Fallback&#45;&gt;ReachGoal?***</title>
<path fill="none" stroke="black" d="M466.36,-431.7C460.4,-423.35 453.14,-413.18 446.59,-404.02"/>
<polygon fill="black" stroke="black" points="449.26,-401.73 440.6,-395.62 443.56,-405.79 449.26,-401.73"/>
</g>
<!-- Sequence*** -->
<g id="node19" class="node">
<title>Sequence***</title>
<polygon fill="cyan" stroke="black" points="568.71,-370.54 568.71,-385.46 545.29,-396 512.16,-396 488.73,-385.46 488.73,-370.54 512.16,-360 545.29,-360 568.71,-370.54"/>
<text text-anchor="middle" x="528.72" y="-375.8" font-family="Times,serif" font-size="9.00">Sequence***</text>
</g>
<!-- Fallback&#45;&gt;Sequence*** -->
<g id="edge18" class="edge">
<title>Fallback&#45;&gt;Sequence***</title>
<path fill="none" stroke="black" d="M491.08,-431.7C496.96,-423.47 504.09,-413.48 510.57,-404.42"/>
<polygon fill="black" stroke="black" points="513.54,-406.28 516.51,-396.1 507.85,-402.21 513.54,-406.28"/>
</g>
<!-- Sequence**** -->
<g id="node27" class="node">
<title>Sequence****</title>
<polygon fill="cyan" stroke="black" points="854.21,-370.54 854.21,-385.46 829.32,-396 794.12,-396 769.23,-385.46 769.23,-370.54 794.12,-360 829.32,-360 854.21,-370.54"/>
<text text-anchor="middle" x="811.72" y="-375.8" font-family="Times,serif" font-size="9.00">Sequence****</text>
</g>
<!-- Fallback&#45;&gt;Sequence**** -->
<g id="edge26" class="edge">
<title>Fallback&#45;&gt;Sequence****</title>
<path fill="none" stroke="black" d="M507.98,-442.85C565.31,-430.8 692.94,-403.97 763.14,-389.21"/>
<polygon fill="black" stroke="black" points="763.99,-392.61 773.06,-387.13 762.55,-385.76 763.99,-392.61"/>
</g>
<!-- Sequence****** -->
<g id="node35" class="node">
<title>Sequence******</title>
<polygon fill="cyan" stroke="black" points="1070.96,-370.54 1070.96,-385.46 1042.7,-396 1002.74,-396 974.49,-385.46 974.49,-370.54 1002.74,-360 1042.7,-360 1070.96,-370.54"/>
<text text-anchor="middle" x="1022.72" y="-375.8" font-family="Times,serif" font-size="9.00">Sequence******</text>
</g>
<!-- Fallback&#45;&gt;Sequence****** -->
<g id="edge34" class="edge">
<title>Fallback&#45;&gt;Sequence******</title>
<path fill="none" stroke="black" d="M507.97,-445.24C594.2,-434.14 848.58,-401.41 964.26,-386.52"/>
<polygon fill="black" stroke="black" points="964.88,-389.97 974.35,-385.22 963.99,-383.03 964.88,-389.97"/>
</g>
<!-- LkClose? -->
<g id="node4" class="node">
<title>LkClose?</title>
<ellipse fill="gray" stroke="black" cx="156.72" cy="-306" rx="28.74" ry="18"/>
<text text-anchor="middle" x="156.72" y="-303.8" font-family="Times,serif" font-size="9.00">LkClose?</text>
</g>
<!-- Sequence&#45;&gt;LkClose? -->
<g id="edge3" class="edge">
<title>Sequence&#45;&gt;LkClose?</title>
<path fill="none" stroke="black" d="M264.67,-365.13C243.31,-353.62 210.75,-336.09 186.98,-323.29"/>
<polygon fill="black" stroke="black" points="188.48,-320.13 178.02,-318.47 185.17,-326.29 188.48,-320.13"/>
</g>
<!-- Fallback* -->
<g id="node5" class="node">
<title>Fallback*</title>
<polygon fill="cyan" stroke="black" points="267.47,-298.54 267.47,-313.46 248.87,-324 222.58,-324 203.98,-313.46 203.98,-298.54 222.58,-288 248.87,-288 267.47,-298.54"/>
<text text-anchor="middle" x="235.72" y="-303.8" font-family="Times,serif" font-size="9.00">Fallback*</text>
</g>
<!-- Sequence&#45;&gt;Fallback* -->
<g id="edge4" class="edge">
<title>Sequence&#45;&gt;Fallback*</title>
<path fill="none" stroke="black" d="M274.12,-359.7C268.13,-351.47 260.85,-341.48 254.24,-332.42"/>
<polygon fill="black" stroke="black" points="256.9,-330.13 248.19,-324.1 251.25,-334.25 256.9,-330.13"/>
</g>
<!-- GetLk! -->
<g id="node6" class="node">
<title>GetLk!</title>
<ellipse fill="gray" stroke="black" cx="156.72" cy="-234" rx="27" ry="18"/>
<text text-anchor="middle" x="156.72" y="-231.8" font-family="Times,serif" font-size="9.00">GetLk!</text>
</g>
<!-- Fallback*&#45;&gt;GetLk! -->
<g id="edge5" class="edge">
<title>Fallback*&#45;&gt;GetLk!</title>
<path fill="none" stroke="black" d="M218.58,-289.81C207.34,-279.85 192.49,-266.7 180.17,-255.77"/>
<polygon fill="black" stroke="black" points="182.3,-252.98 172.49,-248.97 177.65,-258.22 182.3,-252.98"/>
</g>
<!-- Sequence* -->
<g id="node7" class="node">
<title>Sequence*</title>
<polygon fill="cyan" stroke="black" points="269.97,-226.54 269.97,-241.46 249.91,-252 221.54,-252 201.48,-241.46 201.48,-226.54 221.54,-216 249.91,-216 269.97,-226.54"/>
<text text-anchor="middle" x="235.72" y="-231.8" font-family="Times,serif" font-size="9.00">Sequence*</text>
</g>
<!-- Fallback*&#45;&gt;Sequence* -->
<g id="edge6" class="edge">
<title>Fallback*&#45;&gt;Sequence*</title>
<path fill="none" stroke="black" d="M235.72,-287.7C235.72,-279.98 235.72,-270.71 235.72,-262.11"/>
<polygon fill="black" stroke="black" points="239.22,-262.1 235.72,-252.1 232.22,-262.1 239.22,-262.1"/>
</g>
<!-- ReachGoal?** -->
<g id="node17" class="node">
<title>ReachGoal?**</title>
<ellipse fill="gray" stroke="black" cx="327.72" cy="-234" rx="39.02" ry="18"/>
<text text-anchor="middle" x="327.72" y="-231.8" font-family="Times,serif" font-size="9.00">ReachGoal?**</text>
</g>
<!-- Fallback*&#45;&gt;ReachGoal?** -->
<g id="edge16" class="edge">
<title>Fallback*&#45;&gt;ReachGoal?**</title>
<path fill="none" stroke="black" d="M254.34,-290.83C267.42,-280.88 285.14,-267.4 299.9,-256.17"/>
<polygon fill="black" stroke="black" points="302.34,-258.71 308.18,-249.87 298.1,-253.14 302.34,-258.71"/>
</g>
<!-- Fallback** -->
<g id="node8" class="node">
<title>Fallback**</title>
<polygon fill="cyan" stroke="black" points="180.71,-154.54 180.71,-169.46 160.22,-180 131.23,-180 110.73,-169.46 110.73,-154.54 131.23,-144 160.22,-144 180.71,-154.54"/>
<text text-anchor="middle" x="145.72" y="-159.8" font-family="Times,serif" font-size="9.00">Fallback**</text>
</g>
<!-- Sequence*&#45;&gt;Fallback** -->
<g id="edge7" class="edge">
<title>Sequence*&#45;&gt;Fallback**</title>
<path fill="none" stroke="black" d="M216.64,-218.15C203.87,-208.22 186.88,-195.01 172.73,-184.01"/>
<polygon fill="black" stroke="black" points="174.83,-181.2 164.78,-177.82 170.53,-186.73 174.83,-181.2"/>
</g>
<!-- ReachGoal?* -->
<g id="node15" class="node">
<title>ReachGoal?*</title>
<ellipse fill="gray" stroke="black" cx="235.72" cy="-162" rx="36.9" ry="18"/>
<text text-anchor="middle" x="235.72" y="-159.8" font-family="Times,serif" font-size="9.00">ReachGoal?*</text>
</g>
<!-- Sequence*&#45;&gt;ReachGoal?* -->
<g id="edge14" class="edge">
<title>Sequence*&#45;&gt;ReachGoal?*</title>
<path fill="none" stroke="black" d="M235.72,-215.7C235.72,-207.98 235.72,-198.71 235.72,-190.11"/>
<polygon fill="black" stroke="black" points="239.22,-190.1 235.72,-180.1 232.22,-190.1 239.22,-190.1"/>
</g>
<!-- NotReadyForSG? -->
<g id="node16" class="node">
<title>NotReadyForSG?</title>
<ellipse fill="gray" stroke="black" cx="337.72" cy="-162" rx="46.53" ry="18"/>
<text text-anchor="middle" x="337.72" y="-159.8" font-family="Times,serif" font-size="9.00">NotReadyForSG?</text>
</g>
<!-- Sequence*&#45;&gt;NotReadyForSG? -->
<g id="edge15" class="edge">
<title>Sequence*&#45;&gt;NotReadyForSG?</title>
<path fill="none" stroke="black" d="M256.37,-218.83C271.04,-208.76 290.98,-195.08 307.45,-183.77"/>
<polygon fill="black" stroke="black" points="309.44,-186.66 315.7,-178.11 305.48,-180.89 309.44,-186.66"/>
</g>
<!-- GetSubGoal! -->
<g id="node9" class="node">
<title>GetSubGoal!</title>
<ellipse fill="gray" stroke="black" cx="99.72" cy="-90" rx="36.9" ry="18"/>
<text text-anchor="middle" x="99.72" y="-87.8" font-family="Times,serif" font-size="9.00">GetSubGoal!</text>
</g>
<!-- Fallback**&#45;&gt;GetSubGoal! -->
<g id="edge8" class="edge">
<title>Fallback**&#45;&gt;GetSubGoal!</title>
<path fill="none" stroke="black" d="M134.35,-143.7C128.87,-135.35 122.19,-125.18 116.16,-116.02"/>
<polygon fill="black" stroke="black" points="119.06,-114.06 110.65,-107.62 113.21,-117.9 119.06,-114.06"/>
</g>
<!-- Sequence** -->
<g id="node10" class="node">
<title>Sequence**</title>
<polygon fill="cyan" stroke="black" points="228.46,-82.54 228.46,-97.46 206.94,-108 176.51,-108 154.98,-97.46 154.98,-82.54 176.51,-72 206.94,-72 228.46,-82.54"/>
<text text-anchor="middle" x="191.72" y="-87.8" font-family="Times,serif" font-size="9.00">Sequence**</text>
</g>
<!-- Fallback**&#45;&gt;Sequence** -->
<g id="edge9" class="edge">
<title>Fallback**&#45;&gt;Sequence**</title>
<path fill="none" stroke="black" d="M157.09,-143.7C162.44,-135.56 168.93,-125.69 174.83,-116.7"/>
<polygon fill="black" stroke="black" points="177.92,-118.38 180.48,-108.1 172.07,-114.54 177.92,-118.38"/>
</g>
<!-- CompLkGraph! -->
<g id="node11" class="node">
<title>CompLkGraph!</title>
<ellipse fill="gray" stroke="black" cx="42.72" cy="-18" rx="42.95" ry="18"/>
<text text-anchor="middle" x="42.72" y="-15.8" font-family="Times,serif" font-size="9.00">CompLkGraph!</text>
</g>
<!-- Sequence**&#45;&gt;CompLkGraph! -->
<g id="edge10" class="edge">
<title>Sequence**&#45;&gt;CompLkGraph!</title>
<path fill="none" stroke="black" d="M166.11,-76.97C142.22,-65.74 106.32,-48.88 79.39,-36.23"/>
<polygon fill="black" stroke="black" points="80.81,-33.03 70.27,-31.94 77.84,-39.36 80.81,-33.03"/>
</g>
<!-- GetSubGoal!* -->
<g id="node12" class="node">
<title>GetSubGoal!*</title>
<ellipse fill="gray" stroke="black" cx="142.72" cy="-18" rx="39.02" ry="18"/>
<text text-anchor="middle" x="142.72" y="-15.8" font-family="Times,serif" font-size="9.00">GetSubGoal!*</text>
</g>
<!-- Sequence**&#45;&gt;GetSubGoal!* -->
<g id="edge11" class="edge">
<title>Sequence**&#45;&gt;GetSubGoal!*</title>
<path fill="none" stroke="black" d="M179.61,-71.7C173.77,-63.35 166.65,-53.18 160.23,-44.02"/>
<polygon fill="black" stroke="black" points="162.96,-41.81 154.36,-35.62 157.23,-45.82 162.96,-41.81"/>
</g>
<!-- GetSubGoal!** -->
<g id="node13" class="node">
<title>GetSubGoal!**</title>
<ellipse fill="gray" stroke="black" cx="241.72" cy="-18" rx="42.29" ry="18"/>
<text text-anchor="middle" x="241.72" y="-15.8" font-family="Times,serif" font-size="9.00">GetSubGoal!**</text>
</g>
<!-- Sequence**&#45;&gt;GetSubGoal!** -->
<g id="edge12" class="edge">
<title>Sequence**&#45;&gt;GetSubGoal!**</title>
<path fill="none" stroke="black" d="M204.08,-71.7C210.04,-63.35 217.31,-53.18 223.86,-44.02"/>
<polygon fill="black" stroke="black" points="226.89,-45.79 229.85,-35.62 221.19,-41.73 226.89,-45.79"/>
</g>
<!-- MoveTo! -->
<g id="node14" class="node">
<title>MoveTo!</title>
<ellipse fill="gray" stroke="black" cx="330.72" cy="-18" rx="28.74" ry="18"/>
<text text-anchor="middle" x="330.72" y="-15.8" font-family="Times,serif" font-size="9.00">MoveTo!</text>
</g>
<!-- Sequence**&#45;&gt;MoveTo! -->
<g id="edge13" class="edge">
<title>Sequence**&#45;&gt;MoveTo!</title>
<path fill="none" stroke="black" d="M216.57,-76.49C239.84,-64.77 274.68,-47.22 299.75,-34.6"/>
<polygon fill="black" stroke="black" points="301.48,-37.65 308.83,-30.02 298.33,-31.4 301.48,-37.65"/>
</g>
<!-- MoveTo!* -->
<g id="node20" class="node">
<title>MoveTo!*</title>
<ellipse fill="gray" stroke="black" cx="317.72" cy="-306" rx="31.51" ry="18"/>
<text text-anchor="middle" x="317.72" y="-303.8" font-family="Times,serif" font-size="9.00">MoveTo!*</text>
</g>
<!-- Sequence***&#45;&gt;MoveTo!* -->
<g id="edge19" class="edge">
<title>Sequence***&#45;&gt;MoveTo!*</title>
<path fill="none" stroke="black" d="M498.22,-366.17C492.11,-364.07 485.73,-361.93 479.72,-360 425.89,-342.73 410.94,-343.09 357.72,-324 355.65,-323.25 353.52,-322.46 351.39,-321.63"/>
<polygon fill="black" stroke="black" points="352.67,-318.37 342.09,-317.88 350.05,-324.87 352.67,-318.37"/>
</g>
<!-- NotReadyForSG?* -->
<g id="node21" class="node">
<title>NotReadyForSG?*</title>
<ellipse fill="gray" stroke="black" cx="416.72" cy="-306" rx="49.8" ry="18"/>
<text text-anchor="middle" x="416.72" y="-303.8" font-family="Times,serif" font-size="9.00">NotReadyForSG?*</text>
</g>
<!-- Sequence***&#45;&gt;NotReadyForSG?* -->
<g id="edge20" class="edge">
<title>Sequence***&#45;&gt;NotReadyForSG?*</title>
<path fill="none" stroke="black" d="M505.79,-362.67C489.51,-352.49 467.42,-338.69 449.32,-327.37"/>
<polygon fill="black" stroke="black" points="451.12,-324.37 440.79,-322.04 447.41,-330.31 451.12,-324.37"/>
</g>
<!-- ReachGoal?**** -->
<g id="node22" class="node">
<title>ReachGoal?****</title>
<ellipse fill="gray" stroke="black" cx="528.72" cy="-306" rx="44.41" ry="18"/>
<text text-anchor="middle" x="528.72" y="-303.8" font-family="Times,serif" font-size="9.00">ReachGoal?****</text>
</g>
<!-- Sequence***&#45;&gt;ReachGoal?**** -->
<g id="edge21" class="edge">
<title>Sequence***&#45;&gt;ReachGoal?****</title>
<path fill="none" stroke="black" d="M528.72,-359.7C528.72,-351.98 528.72,-342.71 528.72,-334.11"/>
<polygon fill="black" stroke="black" points="532.22,-334.1 528.72,-324.1 525.22,-334.1 532.22,-334.1"/>
</g>
<!-- MoveTo!** -->
<g id="node23" class="node">
<title>MoveTo!**</title>
<ellipse fill="gray" stroke="black" cx="625.72" cy="-306" rx="34.13" ry="18"/>
<text text-anchor="middle" x="625.72" y="-303.8" font-family="Times,serif" font-size="9.00">MoveTo!**</text>
</g>
<!-- Sequence***&#45;&gt;MoveTo!** -->
<g id="edge22" class="edge">
<title>Sequence***&#45;&gt;MoveTo!**</title>
<path fill="none" stroke="black" d="M549.77,-361.81C563.97,-351.57 582.85,-337.94 598.23,-326.84"/>
<polygon fill="black" stroke="black" points="600.3,-329.66 606.37,-320.97 596.21,-323.98 600.3,-329.66"/>
</g>
<!-- Fallback*** -->
<g id="node24" class="node">
<title>Fallback***</title>
<polygon fill="cyan" stroke="black" points="753.21,-298.54 753.21,-313.46 731.25,-324 700.19,-324 678.23,-313.46 678.23,-298.54 700.19,-288 731.25,-288 753.21,-298.54"/>
<text text-anchor="middle" x="715.72" y="-303.8" font-family="Times,serif" font-size="9.00">Fallback***</text>
</g>
<!-- Sequence***&#45;&gt;Fallback*** -->
<g id="edge23" class="edge">
<title>Sequence***&#45;&gt;Fallback***</title>
<path fill="none" stroke="black" d="M558.77,-365.75C591.04,-353.67 642.42,-334.44 677.54,-321.29"/>
<polygon fill="black" stroke="black" points="678.84,-324.54 686.98,-317.76 676.39,-317.99 678.84,-324.54"/>
</g>
<!-- LkClose?* -->
<g id="node25" class="node">
<title>LkClose?*</title>
<ellipse fill="gray" stroke="black" cx="639.72" cy="-234" rx="31.51" ry="18"/>
<text text-anchor="middle" x="639.72" y="-231.8" font-family="Times,serif" font-size="9.00">LkClose?*</text>
</g>
<!-- Fallback***&#45;&gt;LkClose?* -->
<g id="edge24" class="edge">
<title>Fallback***&#45;&gt;LkClose?*</title>
<path fill="none" stroke="black" d="M698.1,-288.76C687.69,-279.18 674.4,-266.94 663.12,-256.55"/>
<polygon fill="black" stroke="black" points="665.43,-253.92 655.7,-249.72 660.69,-259.07 665.43,-253.92"/>
</g>
<!-- GetLk!* -->
<g id="node26" class="node">
<title>GetLk!*</title>
<ellipse fill="gray" stroke="black" cx="716.72" cy="-234" rx="27.27" ry="18"/>
<text text-anchor="middle" x="716.72" y="-231.8" font-family="Times,serif" font-size="9.00">GetLk!*</text>
</g>
<!-- Fallback***&#45;&gt;GetLk!* -->
<g id="edge25" class="edge">
<title>Fallback***&#45;&gt;GetLk!*</title>
<path fill="none" stroke="black" d="M715.97,-287.7C716.08,-279.98 716.21,-270.71 716.34,-262.11"/>
<polygon fill="black" stroke="black" points="719.84,-262.15 716.48,-252.1 712.84,-262.05 719.84,-262.15"/>
</g>
<!-- Fallback**** -->
<g id="node28" class="node">
<title>Fallback****</title>
<polygon fill="cyan" stroke="black" points="852.46,-298.54 852.46,-313.46 828.6,-324 794.85,-324 770.98,-313.46 770.98,-298.54 794.85,-288 828.6,-288 852.46,-298.54"/>
<text text-anchor="middle" x="811.72" y="-303.8" font-family="Times,serif" font-size="9.00">Fallback****</text>
</g>
<!-- Sequence****&#45;&gt;Fallback**** -->
<g id="edge27" class="edge">
<title>Sequence****&#45;&gt;Fallback****</title>
<path fill="none" stroke="black" d="M811.72,-359.7C811.72,-351.98 811.72,-342.71 811.72,-334.11"/>
<polygon fill="black" stroke="black" points="815.22,-334.1 811.72,-324.1 808.22,-334.1 815.22,-334.1"/>
</g>
<!-- ReachGoal?***** -->
<g id="node34" class="node">
<title>ReachGoal?*****</title>
<ellipse fill="gray" stroke="black" cx="917.72" cy="-306" rx="47.19" ry="18"/>
<text text-anchor="middle" x="917.72" y="-303.8" font-family="Times,serif" font-size="9.00">ReachGoal?*****</text>
</g>
<!-- Sequence****&#45;&gt;ReachGoal?***** -->
<g id="edge33" class="edge">
<title>Sequence****&#45;&gt;ReachGoal?*****</title>
<path fill="none" stroke="black" d="M834.46,-361.98C849.69,-351.93 869.94,-338.56 886.65,-327.52"/>
<polygon fill="black" stroke="black" points="888.61,-330.42 895.02,-321.99 884.75,-324.58 888.61,-330.42"/>
</g>
<!-- GetSubGoal!*** -->
<g id="node29" class="node">
<title>GetSubGoal!***</title>
<ellipse fill="gray" stroke="black" cx="809.72" cy="-234" rx="44.41" ry="18"/>
<text text-anchor="middle" x="809.72" y="-231.8" font-family="Times,serif" font-size="9.00">GetSubGoal!***</text>
</g>
<!-- Fallback****&#45;&gt;GetSubGoal!*** -->
<g id="edge28" class="edge">
<title>Fallback****&#45;&gt;GetSubGoal!***</title>
<path fill="none" stroke="black" d="M811.23,-287.7C811.01,-279.98 810.74,-270.71 810.5,-262.11"/>
<polygon fill="black" stroke="black" points="814,-262 810.21,-252.1 807,-262.2 814,-262"/>
</g>
<!-- Sequence***** -->
<g id="node30" class="node">
<title>Sequence*****</title>
<polygon fill="cyan" stroke="black" points="963.46,-226.54 963.46,-241.46 936.67,-252 898.78,-252 871.99,-241.46 871.99,-226.54 898.78,-216 936.67,-216 963.46,-226.54"/>
<text text-anchor="middle" x="917.72" y="-231.8" font-family="Times,serif" font-size="9.00">Sequence*****</text>
</g>
<!-- Fallback****&#45;&gt;Sequence***** -->
<g id="edge29" class="edge">
<title>Fallback****&#45;&gt;Sequence*****</title>
<path fill="none" stroke="black" d="M833.94,-290.33C849.04,-280.36 869.23,-267.02 886.01,-255.94"/>
<polygon fill="black" stroke="black" points="888.02,-258.81 894.43,-250.38 884.16,-252.97 888.02,-258.81"/>
</g>
<!-- CompLkGraph!* -->
<g id="node31" class="node">
<title>CompLkGraph!*</title>
<ellipse fill="gray" stroke="black" cx="807.72" cy="-162" rx="45.07" ry="18"/>
<text text-anchor="middle" x="807.72" y="-159.8" font-family="Times,serif" font-size="9.00">CompLkGraph!*</text>
</g>
<!-- Sequence*****&#45;&gt;CompLkGraph!* -->
<g id="edge30" class="edge">
<title>Sequence*****&#45;&gt;CompLkGraph!*</title>
<path fill="none" stroke="black" d="M893.86,-217.81C877.93,-207.68 856.81,-194.24 839.47,-183.2"/>
<polygon fill="black" stroke="black" points="841.11,-180.1 830.79,-177.68 837.35,-186 841.11,-180.1"/>
</g>
<!-- GetSubGoal!**** -->
<g id="node32" class="node">
<title>GetSubGoal!****</title>
<ellipse fill="gray" stroke="black" cx="917.72" cy="-162" rx="47.19" ry="18"/>
<text text-anchor="middle" x="917.72" y="-159.8" font-family="Times,serif" font-size="9.00">GetSubGoal!****</text>
</g>
<!-- Sequence*****&#45;&gt;GetSubGoal!**** -->
<g id="edge31" class="edge">
<title>Sequence*****&#45;&gt;GetSubGoal!****</title>
<path fill="none" stroke="black" d="M917.72,-215.7C917.72,-207.98 917.72,-198.71 917.72,-190.11"/>
<polygon fill="black" stroke="black" points="921.22,-190.1 917.72,-180.1 914.22,-190.1 921.22,-190.1"/>
</g>
<!-- MoveTo!*** -->
<g id="node33" class="node">
<title>MoveTo!***</title>
<ellipse fill="gray" stroke="black" cx="1019.72" cy="-162" rx="36.9" ry="18"/>
<text text-anchor="middle" x="1019.72" y="-159.8" font-family="Times,serif" font-size="9.00">MoveTo!***</text>
</g>
<!-- Sequence*****&#45;&gt;MoveTo!*** -->
<g id="edge32" class="edge">
<title>Sequence*****&#45;&gt;MoveTo!***</title>
<path fill="none" stroke="black" d="M940.61,-217.29C955.38,-207.16 974.73,-193.88 990.59,-183"/>
<polygon fill="black" stroke="black" points="992.72,-185.77 998.99,-177.23 988.76,-180 992.72,-185.77"/>
</g>
<!-- MoveTo!**** -->
<g id="node36" class="node">
<title>MoveTo!****</title>
<ellipse fill="gray" stroke="black" cx="1022.72" cy="-306" rx="39.02" ry="18"/>
<text text-anchor="middle" x="1022.72" y="-303.8" font-family="Times,serif" font-size="9.00">MoveTo!****</text>
</g>
<!-- Sequence******&#45;&gt;MoveTo!**** -->
<g id="edge35" class="edge">
<title>Sequence******&#45;&gt;MoveTo!****</title>
<path fill="none" stroke="black" d="M1022.72,-359.7C1022.72,-351.98 1022.72,-342.71 1022.72,-334.11"/>
<polygon fill="black" stroke="black" points="1026.22,-334.1 1022.72,-324.1 1019.22,-334.1 1026.22,-334.1"/>
</g>
<!-- NotReadyForSG?** -->
<g id="node37" class="node">
<title>NotReadyForSG?**</title>
<ellipse fill="gray" stroke="black" cx="1131.72" cy="-306" rx="51.92" ry="18"/>
<text text-anchor="middle" x="1131.72" y="-303.8" font-family="Times,serif" font-size="9.00">NotReadyForSG?**</text>
</g>
<!-- Sequence******&#45;&gt;NotReadyForSG?** -->
<g id="edge36" class="edge">
<title>Sequence******&#45;&gt;NotReadyForSG?**</title>
<path fill="none" stroke="black" d="M1046.91,-361.46C1062.4,-351.52 1082.68,-338.5 1099.52,-327.68"/>
<polygon fill="black" stroke="black" points="1101.45,-330.6 1107.98,-322.25 1097.67,-324.71 1101.45,-330.6"/>
</g>
</g>
</svg>
