<?xml version="1.0" encoding="UTF-8" standalone="no"?>
<!DOCTYPE svg PUBLIC "-//W3C//DTD SVG 1.1//EN"
 "http://www.w3.org/Graphics/SVG/1.1/DTD/svg11.dtd">
<!-- Generated by graphviz version 2.43.0 (0)
 -->
<!-- Title: pastafarianism Pages: 1 -->
<svg width="567pt" height="332pt"
 viewBox="0.00 0.00 567.13 332.00" xmlns="http://www.w3.org/2000/svg" xmlns:xlink="http://www.w3.org/1999/xlink">
<g id="graph0" class="graph" transform="scale(1 1) rotate(0) translate(4 328)">
<title>pastafarianism</title>
<polygon fill="white" stroke="transparent" points="-4,4 -4,-328 563.13,-328 563.13,4 -4,4"/>
<!-- Fallback -->
<g id="node1" class="node">
<title>Fallback</title>
<polygon fill="cyan" stroke="black" points="235.31,-298.54 235.31,-313.46 218.18,-324 193.95,-324 176.82,-313.46 176.82,-298.54 193.95,-288 218.18,-288 235.31,-298.54"/>
<text text-anchor="middle" x="206.06" y="-303.8" font-family="Times,serif" font-size="9.00">Fallback</text>
</g>
<!-- ReachGoal? -->
<g id="node2" class="node">
<title>ReachGoal?</title>
<ellipse fill="gray" stroke="black" cx="34.06" cy="-234" rx="34.13" ry="18"/>
<text text-anchor="middle" x="34.06" y="-231.8" font-family="Times,serif" font-size="9.00">ReachGoal?</text>
</g>
<!-- Fallback&#45;&gt;ReachGoal? -->
<g id="edge1" class="edge">
<title>Fallback&#45;&gt;ReachGoal?</title>
<path fill="none" stroke="black" d="M181.79,-295.12C152.54,-283.22 103.17,-263.12 69.62,-249.47"/>
<polygon fill="black" stroke="black" points="70.77,-246.16 60.19,-245.63 68.13,-252.64 70.77,-246.16"/>
</g>
<!-- Sequence -->
<g id="node3" class="node">
<title>Sequence</title>
<polygon fill="cyan" stroke="black" points="148.56,-226.54 148.56,-241.46 130.11,-252 104.02,-252 85.57,-241.46 85.57,-226.54 104.02,-216 130.11,-216 148.56,-226.54"/>
<text text-anchor="middle" x="117.06" y="-231.8" font-family="Times,serif" font-size="9.00">Sequence</text>
</g>
<!-- Fallback&#45;&gt;Sequence -->
<g id="edge2" class="edge">
<title>Fallback&#45;&gt;Sequence</title>
<path fill="none" stroke="black" d="M188.48,-291.17C175.61,-281.04 157.92,-267.13 143.37,-255.69"/>
<polygon fill="black" stroke="black" points="145.25,-252.71 135.22,-249.28 140.92,-258.21 145.25,-252.71"/>
</g>
<!-- ReachGoal?** -->
<g id="node8" class="node">
<title>ReachGoal?**</title>
<ellipse fill="gray" stroke="black" cx="206.06" cy="-234" rx="39.02" ry="18"/>
<text text-anchor="middle" x="206.06" y="-231.8" font-family="Times,serif" font-size="9.00">ReachGoal?**</text>
</g>
<!-- Fallback&#45;&gt;ReachGoal?** -->
<g id="edge7" class="edge">
<title>Fallback&#45;&gt;ReachGoal?**</title>
<path fill="none" stroke="black" d="M206.06,-287.7C206.06,-279.98 206.06,-270.71 206.06,-262.11"/>
<polygon fill="black" stroke="black" points="209.56,-262.1 206.06,-252.1 202.56,-262.1 209.56,-262.1"/>
</g>
<!-- MoveTo! -->
<g id="node9" class="node">
<title>MoveTo!</title>
<ellipse fill="gray" stroke="black" cx="292.06" cy="-234" rx="28.74" ry="18"/>
<text text-anchor="middle" x="292.06" y="-231.8" font-family="Times,serif" font-size="9.00">MoveTo!</text>
</g>
<!-- Fallback&#45;&gt;MoveTo! -->
<g id="edge8" class="edge">
<title>Fallback&#45;&gt;MoveTo!</title>
<path fill="none" stroke="black" d="M223.47,-290.83C236.1,-280.55 253.38,-266.49 267.43,-255.05"/>
<polygon fill="black" stroke="black" points="269.73,-257.7 275.27,-248.67 265.31,-252.27 269.73,-257.7"/>
</g>
<!-- Sequence* -->
<g id="node10" class="node">
<title>Sequence*</title>
<polygon fill="cyan" stroke="black" points="407.31,-226.54 407.31,-241.46 387.25,-252 358.88,-252 338.82,-241.46 338.82,-226.54 358.88,-216 387.25,-216 407.31,-226.54"/>
<text text-anchor="middle" x="373.06" y="-231.8" font-family="Times,serif" font-size="9.00">Sequence*</text>
</g>
<!-- Fallback&#45;&gt;Sequence* -->
<g id="edge9" class="edge">
<title>Fallback&#45;&gt;Sequence*</title>
<path fill="none" stroke="black" d="M229.99,-294.97C258.11,-283.19 305.03,-263.52 337.43,-249.94"/>
<polygon fill="black" stroke="black" points="339.11,-253.03 346.98,-245.93 336.41,-246.57 339.11,-253.03"/>
</g>
<!-- LkClose? -->
<g id="node4" class="node">
<title>LkClose?</title>
<ellipse fill="gray" stroke="black" cx="78.06" cy="-162" rx="28.74" ry="18"/>
<text text-anchor="middle" x="78.06" y="-159.8" font-family="Times,serif" font-size="9.00">LkClose?</text>
</g>
<!-- Sequence&#45;&gt;LkClose? -->
<g id="edge3" class="edge">
<title>Sequence&#45;&gt;LkClose?</title>
<path fill="none" stroke="black" d="M107.42,-215.7C102.75,-207.32 97.06,-197.1 91.94,-187.9"/>
<polygon fill="black" stroke="black" points="94.98,-186.18 87.06,-179.14 88.87,-189.58 94.98,-186.18"/>
</g>
<!-- Fallback* -->
<g id="node5" class="node">
<title>Fallback*</title>
<polygon fill="cyan" stroke="black" points="188.81,-154.54 188.81,-169.46 170.21,-180 143.92,-180 125.32,-169.46 125.32,-154.54 143.92,-144 170.21,-144 188.81,-154.54"/>
<text text-anchor="middle" x="157.06" y="-159.8" font-family="Times,serif" font-size="9.00">Fallback*</text>
</g>
<!-- Sequence&#45;&gt;Fallback* -->
<g id="edge4" class="edge">
<title>Sequence&#45;&gt;Fallback*</title>
<path fill="none" stroke="black" d="M126.95,-215.7C131.55,-207.64 137.12,-197.89 142.22,-188.98"/>
<polygon fill="black" stroke="black" points="145.37,-190.52 147.29,-180.1 139.29,-187.05 145.37,-190.52"/>
</g>
<!-- GetLk! -->
<g id="node6" class="node">
<title>GetLk!</title>
<ellipse fill="gray" stroke="black" cx="130.06" cy="-90" rx="27" ry="18"/>
<text text-anchor="middle" x="130.06" y="-87.8" font-family="Times,serif" font-size="9.00">GetLk!</text>
</g>
<!-- Fallback*&#45;&gt;GetLk! -->
<g id="edge5" class="edge">
<title>Fallback*&#45;&gt;GetLk!</title>
<path fill="none" stroke="black" d="M150.39,-143.7C147.3,-135.7 143.57,-126.02 140.15,-117.15"/>
<polygon fill="black" stroke="black" points="143.34,-115.69 136.48,-107.62 136.81,-118.21 143.34,-115.69"/>
</g>
<!-- ReachGoal?* -->
<g id="node7" class="node">
<title>ReachGoal?*</title>
<ellipse fill="gray" stroke="black" cx="212.06" cy="-90" rx="36.9" ry="18"/>
<text text-anchor="middle" x="212.06" y="-87.8" font-family="Times,serif" font-size="9.00">ReachGoal?*</text>
</g>
<!-- Fallback*&#45;&gt;ReachGoal?* -->
<g id="edge6" class="edge">
<title>Fallback*&#45;&gt;ReachGoal?*</title>
<path fill="none" stroke="black" d="M170.38,-144.05C177.16,-135.42 185.54,-124.76 193,-115.27"/>
<polygon fill="black" stroke="black" points="195.82,-117.33 199.25,-107.31 190.32,-113.01 195.82,-117.33"/>
</g>
<!-- Fallback** -->
<g id="node11" class="node">
<title>Fallback**</title>
<polygon fill="cyan" stroke="black" points="374.05,-154.54 374.05,-169.46 353.56,-180 324.57,-180 304.07,-169.46 304.07,-154.54 324.57,-144 353.56,-144 374.05,-154.54"/>
<text text-anchor="middle" x="339.06" y="-159.8" font-family="Times,serif" font-size="9.00">Fallback**</text>
</g>
<!-- Sequence*&#45;&gt;Fallback** -->
<g id="edge10" class="edge">
<title>Sequence*&#45;&gt;Fallback**</title>
<path fill="none" stroke="black" d="M364.66,-215.7C360.79,-207.73 356.11,-198.1 351.82,-189.26"/>
<polygon fill="black" stroke="black" points="354.89,-187.57 347.37,-180.1 348.59,-190.63 354.89,-187.57"/>
</g>
<!-- ReachGoal?*** -->
<g id="node18" class="node">
<title>ReachGoal?***</title>
<ellipse fill="gray" stroke="black" cx="434.06" cy="-162" rx="42.29" ry="18"/>
<text text-anchor="middle" x="434.06" y="-159.8" font-family="Times,serif" font-size="9.00">ReachGoal?***</text>
</g>
<!-- Sequence*&#45;&gt;ReachGoal?*** -->
<g id="edge17" class="edge">
<title>Sequence*&#45;&gt;ReachGoal?***</title>
<path fill="none" stroke="black" d="M387.83,-216.05C395.43,-207.33 404.83,-196.54 413.17,-186.98"/>
<polygon fill="black" stroke="black" points="415.92,-189.15 419.85,-179.31 410.64,-184.55 415.92,-189.15"/>
</g>
<!-- GetSubGoal! -->
<g id="node12" class="node">
<title>GetSubGoal!</title>
<ellipse fill="gray" stroke="black" cx="305.06" cy="-90" rx="36.9" ry="18"/>
<text text-anchor="middle" x="305.06" y="-87.8" font-family="Times,serif" font-size="9.00">GetSubGoal!</text>
</g>
<!-- Fallback**&#45;&gt;GetSubGoal! -->
<g id="edge11" class="edge">
<title>Fallback**&#45;&gt;GetSubGoal!</title>
<path fill="none" stroke="black" d="M330.66,-143.7C326.73,-135.61 321.97,-125.81 317.63,-116.87"/>
<polygon fill="black" stroke="black" points="320.65,-115.09 313.14,-107.62 314.36,-118.15 320.65,-115.09"/>
</g>
<!-- Sequence** -->
<g id="node13" class="node">
<title>Sequence**</title>
<polygon fill="cyan" stroke="black" points="433.8,-82.54 433.8,-97.46 412.28,-108 381.85,-108 360.32,-97.46 360.32,-82.54 381.85,-72 412.28,-72 433.8,-82.54"/>
<text text-anchor="middle" x="397.06" y="-87.8" font-family="Times,serif" font-size="9.00">Sequence**</text>
</g>
<!-- Fallback**&#45;&gt;Sequence** -->
<g id="edge12" class="edge">
<title>Fallback**&#45;&gt;Sequence**</title>
<path fill="none" stroke="black" d="M353.4,-143.7C360.35,-135.3 368.83,-125.07 376.46,-115.86"/>
<polygon fill="black" stroke="black" points="379.21,-118.04 382.89,-108.1 373.82,-113.57 379.21,-118.04"/>
</g>
<!-- CompLkGraph! -->
<g id="node14" class="node">
<title>CompLkGraph!</title>
<ellipse fill="gray" stroke="black" cx="252.06" cy="-18" rx="42.95" ry="18"/>
<text text-anchor="middle" x="252.06" y="-15.8" font-family="Times,serif" font-size="9.00">CompLkGraph!</text>
</g>
<!-- Sequence**&#45;&gt;CompLkGraph! -->
<g id="edge13" class="edge">
<title>Sequence**&#45;&gt;CompLkGraph!</title>
<path fill="none" stroke="black" d="M371.81,-76.81C348.68,-65.64 314.2,-49 288.17,-36.43"/>
<polygon fill="black" stroke="black" points="289.52,-33.2 279,-32 286.48,-39.5 289.52,-33.2"/>
</g>
<!-- GetSubGoal!* -->
<g id="node15" class="node">
<title>GetSubGoal!*</title>
<ellipse fill="gray" stroke="black" cx="352.06" cy="-18" rx="39.02" ry="18"/>
<text text-anchor="middle" x="352.06" y="-15.8" font-family="Times,serif" font-size="9.00">GetSubGoal!*</text>
</g>
<!-- Sequence**&#45;&gt;GetSubGoal!* -->
<g id="edge14" class="edge">
<title>Sequence**&#45;&gt;GetSubGoal!*</title>
<path fill="none" stroke="black" d="M385.94,-71.7C380.63,-63.44 374.17,-53.39 368.33,-44.3"/>
<polygon fill="black" stroke="black" points="371.1,-42.14 362.75,-35.62 365.21,-45.93 371.1,-42.14"/>
</g>
<!-- MoveTo!* -->
<g id="node16" class="node">
<title>MoveTo!*</title>
<ellipse fill="gray" stroke="black" cx="441.06" cy="-18" rx="31.51" ry="18"/>
<text text-anchor="middle" x="441.06" y="-15.8" font-family="Times,serif" font-size="9.00">MoveTo!*</text>
</g>
<!-- Sequence**&#45;&gt;MoveTo!* -->
<g id="edge15" class="edge">
<title>Sequence**&#45;&gt;MoveTo!*</title>
<path fill="none" stroke="black" d="M407.94,-71.7C413.26,-63.23 419.76,-52.89 425.59,-43.61"/>
<polygon fill="black" stroke="black" points="428.56,-45.47 430.92,-35.14 422.63,-41.75 428.56,-45.47"/>
</g>
<!-- MoveTo!** -->
<g id="node17" class="node">
<title>MoveTo!**</title>
<ellipse fill="gray" stroke="black" cx="525.06" cy="-18" rx="34.13" ry="18"/>
<text text-anchor="middle" x="525.06" y="-15.8" font-family="Times,serif" font-size="9.00">MoveTo!**</text>
</g>
<!-- Sequence**&#45;&gt;MoveTo!** -->
<g id="edge16" class="edge">
<title>Sequence**&#45;&gt;MoveTo!**</title>
<path fill="none" stroke="black" d="M420.84,-76C441.3,-64.81 470.99,-48.57 493.45,-36.29"/>
<polygon fill="black" stroke="black" points="495.18,-39.33 502.28,-31.46 491.82,-33.19 495.18,-39.33"/>
</g>
</g>
</svg>
