<?xml version="1.0" encoding="UTF-8" standalone="no"?>
<!DOCTYPE svg PUBLIC "-//W3C//DTD SVG 1.1//EN"
 "http://www.w3.org/Graphics/SVG/1.1/DTD/svg11.dtd">
<!-- Generated by graphviz version 2.43.0 (0)
 -->
<!-- Title: pastafarianism Pages: 1 -->
<svg width="684pt" height="332pt"
 viewBox="0.00 0.00 683.62 332.00" xmlns="http://www.w3.org/2000/svg" xmlns:xlink="http://www.w3.org/1999/xlink">
<g id="graph0" class="graph" transform="scale(1 1) rotate(0) translate(4 328)">
<title>pastafarianism</title>
<polygon fill="white" stroke="transparent" points="-4,4 -4,-328 679.62,-328 679.62,4 -4,4"/>
<!-- Fallback -->
<g id="node1" class="node">
<title>Fallback</title>
<polygon fill="cyan" stroke="black" points="260.11,-298.54 260.11,-313.46 242.98,-324 218.75,-324 201.62,-313.46 201.62,-298.54 218.75,-288 242.98,-288 260.11,-298.54"/>
<text text-anchor="middle" x="230.87" y="-303.8" font-family="Times,serif" font-size="9.00">Fallback</text>
</g>
<!-- ReachGoal? -->
<g id="node2" class="node">
<title>ReachGoal?</title>
<ellipse fill="gray" stroke="black" cx="58.87" cy="-234" rx="34.13" ry="18"/>
<text text-anchor="middle" x="58.87" y="-231.8" font-family="Times,serif" font-size="9.00">ReachGoal?</text>
</g>
<!-- Fallback&#45;&gt;ReachGoal? -->
<g id="edge1" class="edge">
<title>Fallback&#45;&gt;ReachGoal?</title>
<path fill="none" stroke="black" d="M206.59,-295.12C177.34,-283.22 127.97,-263.12 94.43,-249.47"/>
<polygon fill="black" stroke="black" points="95.57,-246.16 84.99,-245.63 92.94,-252.64 95.57,-246.16"/>
</g>
<!-- Sequence -->
<g id="node3" class="node">
<title>Sequence</title>
<polygon fill="cyan" stroke="black" points="173.36,-226.54 173.36,-241.46 154.91,-252 128.82,-252 110.37,-241.46 110.37,-226.54 128.82,-216 154.91,-216 173.36,-226.54"/>
<text text-anchor="middle" x="141.87" y="-231.8" font-family="Times,serif" font-size="9.00">Sequence</text>
</g>
<!-- Fallback&#45;&gt;Sequence -->
<g id="edge2" class="edge">
<title>Fallback&#45;&gt;Sequence</title>
<path fill="none" stroke="black" d="M213.28,-291.17C200.41,-281.04 182.72,-267.13 168.17,-255.69"/>
<polygon fill="black" stroke="black" points="170.05,-252.71 160.03,-249.28 165.72,-258.21 170.05,-252.71"/>
</g>
<!-- ReachGoal?** -->
<g id="node7" class="node">
<title>ReachGoal?**</title>
<ellipse fill="gray" stroke="black" cx="230.87" cy="-234" rx="39.02" ry="18"/>
<text text-anchor="middle" x="230.87" y="-231.8" font-family="Times,serif" font-size="9.00">ReachGoal?**</text>
</g>
<!-- Fallback&#45;&gt;ReachGoal?** -->
<g id="edge6" class="edge">
<title>Fallback&#45;&gt;ReachGoal?**</title>
<path fill="none" stroke="black" d="M230.87,-287.7C230.87,-279.98 230.87,-270.71 230.87,-262.11"/>
<polygon fill="black" stroke="black" points="234.37,-262.1 230.87,-252.1 227.37,-262.1 234.37,-262.1"/>
</g>
<!-- Sequence* -->
<g id="node8" class="node">
<title>Sequence*</title>
<polygon fill="cyan" stroke="black" points="357.11,-226.54 357.11,-241.46 337.05,-252 308.68,-252 288.63,-241.46 288.63,-226.54 308.68,-216 337.05,-216 357.11,-226.54"/>
<text text-anchor="middle" x="322.87" y="-231.8" font-family="Times,serif" font-size="9.00">Sequence*</text>
</g>
<!-- Fallback&#45;&gt;Sequence* -->
<g id="edge7" class="edge">
<title>Fallback&#45;&gt;Sequence*</title>
<path fill="none" stroke="black" d="M249.04,-291.17C262.39,-281.02 280.73,-267.06 295.8,-255.6"/>
<polygon fill="black" stroke="black" points="297.94,-258.36 303.78,-249.52 293.7,-252.79 297.94,-258.36"/>
</g>
<!-- Sequence** -->
<g id="node11" class="node">
<title>Sequence**</title>
<polygon fill="cyan" stroke="black" points="496.61,-226.54 496.61,-241.46 475.09,-252 444.65,-252 423.13,-241.46 423.13,-226.54 444.65,-216 475.09,-216 496.61,-226.54"/>
<text text-anchor="middle" x="459.87" y="-231.8" font-family="Times,serif" font-size="9.00">Sequence**</text>
</g>
<!-- Fallback&#45;&gt;Sequence** -->
<g id="edge10" class="edge">
<title>Fallback&#45;&gt;Sequence**</title>
<path fill="none" stroke="black" d="M257.58,-296.83C297.38,-284.67 372.51,-261.7 419.17,-247.44"/>
<polygon fill="black" stroke="black" points="420.41,-250.72 428.95,-244.45 418.37,-244.03 420.41,-250.72"/>
</g>
<!-- LkClose? -->
<g id="node4" class="node">
<title>LkClose?</title>
<ellipse fill="gray" stroke="black" cx="28.87" cy="-162" rx="28.74" ry="18"/>
<text text-anchor="middle" x="28.87" y="-159.8" font-family="Times,serif" font-size="9.00">LkClose?</text>
</g>
<!-- Sequence&#45;&gt;LkClose? -->
<g id="edge3" class="edge">
<title>Sequence&#45;&gt;LkClose?</title>
<path fill="none" stroke="black" d="M121.14,-220.16C103.24,-209.07 77.2,-192.94 57.34,-180.64"/>
<polygon fill="black" stroke="black" points="59.05,-177.58 48.7,-175.29 55.36,-183.53 59.05,-177.58"/>
</g>
<!-- GetLk! -->
<g id="node5" class="node">
<title>GetLk!</title>
<ellipse fill="gray" stroke="black" cx="102.87" cy="-162" rx="27" ry="18"/>
<text text-anchor="middle" x="102.87" y="-159.8" font-family="Times,serif" font-size="9.00">GetLk!</text>
</g>
<!-- Sequence&#45;&gt;GetLk! -->
<g id="edge4" class="edge">
<title>Sequence&#45;&gt;GetLk!</title>
<path fill="none" stroke="black" d="M132.23,-215.7C127.56,-207.32 121.87,-197.1 116.74,-187.9"/>
<polygon fill="black" stroke="black" points="119.79,-186.18 111.86,-179.14 113.67,-189.58 119.79,-186.18"/>
</g>
<!-- ReachGoal?* -->
<g id="node6" class="node">
<title>ReachGoal?*</title>
<ellipse fill="gray" stroke="black" cx="184.87" cy="-162" rx="36.9" ry="18"/>
<text text-anchor="middle" x="184.87" y="-159.8" font-family="Times,serif" font-size="9.00">ReachGoal?*</text>
</g>
<!-- Sequence&#45;&gt;ReachGoal?* -->
<g id="edge5" class="edge">
<title>Sequence&#45;&gt;ReachGoal?*</title>
<path fill="none" stroke="black" d="M152.5,-215.7C157.57,-207.44 163.74,-197.39 169.33,-188.3"/>
<polygon fill="black" stroke="black" points="172.4,-189.98 174.66,-179.62 166.44,-186.31 172.4,-189.98"/>
</g>
<!-- MoveTo! -->
<g id="node9" class="node">
<title>MoveTo!</title>
<ellipse fill="gray" stroke="black" cx="268.87" cy="-162" rx="28.74" ry="18"/>
<text text-anchor="middle" x="268.87" y="-159.8" font-family="Times,serif" font-size="9.00">MoveTo!</text>
</g>
<!-- Sequence*&#45;&gt;MoveTo! -->
<g id="edge8" class="edge">
<title>Sequence*&#45;&gt;MoveTo!</title>
<path fill="none" stroke="black" d="M309.52,-215.7C302.76,-206.93 294.44,-196.15 287.1,-186.63"/>
<polygon fill="black" stroke="black" points="289.84,-184.45 280.96,-178.67 284.29,-188.73 289.84,-184.45"/>
</g>
<!-- NotReadyForSG? -->
<g id="node10" class="node">
<title>NotReadyForSG?</title>
<ellipse fill="gray" stroke="black" cx="362.87" cy="-162" rx="46.53" ry="18"/>
<text text-anchor="middle" x="362.87" y="-159.8" font-family="Times,serif" font-size="9.00">NotReadyForSG?</text>
</g>
<!-- Sequence*&#45;&gt;NotReadyForSG? -->
<g id="edge9" class="edge">
<title>Sequence*&#45;&gt;NotReadyForSG?</title>
<path fill="none" stroke="black" d="M332.76,-215.7C337.36,-207.64 342.93,-197.89 348.02,-188.98"/>
<polygon fill="black" stroke="black" points="351.17,-190.52 353.09,-180.1 345.09,-187.05 351.17,-190.52"/>
</g>
<!-- Fallback* -->
<g id="node12" class="node">
<title>Fallback*</title>
<polygon fill="cyan" stroke="black" points="491.61,-154.54 491.61,-169.46 473.02,-180 446.72,-180 428.13,-169.46 428.13,-154.54 446.72,-144 473.02,-144 491.61,-154.54"/>
<text text-anchor="middle" x="459.87" y="-159.8" font-family="Times,serif" font-size="9.00">Fallback*</text>
</g>
<!-- Sequence**&#45;&gt;Fallback* -->
<g id="edge11" class="edge">
<title>Sequence**&#45;&gt;Fallback*</title>
<path fill="none" stroke="black" d="M459.87,-215.7C459.87,-207.98 459.87,-198.71 459.87,-190.11"/>
<polygon fill="black" stroke="black" points="463.37,-190.1 459.87,-180.1 456.37,-190.1 463.37,-190.1"/>
</g>
<!-- ReachGoal?*** -->
<g id="node19" class="node">
<title>ReachGoal?***</title>
<ellipse fill="gray" stroke="black" cx="551.87" cy="-162" rx="42.29" ry="18"/>
<text text-anchor="middle" x="551.87" y="-159.8" font-family="Times,serif" font-size="9.00">ReachGoal?***</text>
</g>
<!-- Sequence**&#45;&gt;ReachGoal?*** -->
<g id="edge18" class="edge">
<title>Sequence**&#45;&gt;ReachGoal?***</title>
<path fill="none" stroke="black" d="M479.83,-217.81C492.73,-208 509.7,-195.08 523.93,-184.25"/>
<polygon fill="black" stroke="black" points="526.1,-187 531.94,-178.16 521.87,-181.43 526.1,-187"/>
</g>
<!-- NotReadyForSG?* -->
<g id="node13" class="node">
<title>NotReadyForSG?*</title>
<ellipse fill="gray" stroke="black" cx="354.87" cy="-90" rx="49.8" ry="18"/>
<text text-anchor="middle" x="354.87" y="-87.8" font-family="Times,serif" font-size="9.00">NotReadyForSG?*</text>
</g>
<!-- Fallback*&#45;&gt;NotReadyForSG?* -->
<g id="edge12" class="edge">
<title>Fallback*&#45;&gt;NotReadyForSG?*</title>
<path fill="none" stroke="black" d="M439.62,-147.5C424.5,-137.42 403.55,-123.45 386.26,-111.93"/>
<polygon fill="black" stroke="black" points="387.86,-108.79 377.6,-106.16 383.98,-114.62 387.86,-108.79"/>
</g>
<!-- GetSubGoal! -->
<g id="node14" class="node">
<title>GetSubGoal!</title>
<ellipse fill="gray" stroke="black" cx="459.87" cy="-90" rx="36.9" ry="18"/>
<text text-anchor="middle" x="459.87" y="-87.8" font-family="Times,serif" font-size="9.00">GetSubGoal!</text>
</g>
<!-- Fallback*&#45;&gt;GetSubGoal! -->
<g id="edge13" class="edge">
<title>Fallback*&#45;&gt;GetSubGoal!</title>
<path fill="none" stroke="black" d="M459.87,-143.7C459.87,-135.98 459.87,-126.71 459.87,-118.11"/>
<polygon fill="black" stroke="black" points="463.37,-118.1 459.87,-108.1 456.37,-118.1 463.37,-118.1"/>
</g>
<!-- Sequence*** -->
<g id="node15" class="node">
<title>Sequence***</title>
<polygon fill="cyan" stroke="black" points="594.86,-82.54 594.86,-97.46 571.43,-108 538.3,-108 514.88,-97.46 514.88,-82.54 538.3,-72 571.43,-72 594.86,-82.54"/>
<text text-anchor="middle" x="554.87" y="-87.8" font-family="Times,serif" font-size="9.00">Sequence***</text>
</g>
<!-- Fallback*&#45;&gt;Sequence*** -->
<g id="edge14" class="edge">
<title>Fallback*&#45;&gt;Sequence***</title>
<path fill="none" stroke="black" d="M478.64,-147.17C492.14,-137.22 510.61,-123.61 525.99,-112.28"/>
<polygon fill="black" stroke="black" points="528.18,-115.01 534.16,-106.26 524.03,-109.37 528.18,-115.01"/>
</g>
<!-- CompLkGraph! -->
<g id="node16" class="node">
<title>CompLkGraph!</title>
<ellipse fill="gray" stroke="black" cx="454.87" cy="-18" rx="42.95" ry="18"/>
<text text-anchor="middle" x="454.87" y="-15.8" font-family="Times,serif" font-size="9.00">CompLkGraph!</text>
</g>
<!-- Sequence***&#45;&gt;CompLkGraph! -->
<g id="edge15" class="edge">
<title>Sequence***&#45;&gt;CompLkGraph!</title>
<path fill="none" stroke="black" d="M533.17,-73.81C518.92,-63.84 500.1,-50.66 484.48,-39.73"/>
<polygon fill="black" stroke="black" points="486.38,-36.79 476.18,-33.92 482.37,-42.52 486.38,-36.79"/>
</g>
<!-- GetSubGoal!* -->
<g id="node17" class="node">
<title>GetSubGoal!*</title>
<ellipse fill="gray" stroke="black" cx="554.87" cy="-18" rx="39.02" ry="18"/>
<text text-anchor="middle" x="554.87" y="-15.8" font-family="Times,serif" font-size="9.00">GetSubGoal!*</text>
</g>
<!-- Sequence***&#45;&gt;GetSubGoal!* -->
<g id="edge16" class="edge">
<title>Sequence***&#45;&gt;GetSubGoal!*</title>
<path fill="none" stroke="black" d="M554.87,-71.7C554.87,-63.98 554.87,-54.71 554.87,-46.11"/>
<polygon fill="black" stroke="black" points="558.37,-46.1 554.87,-36.1 551.37,-46.1 558.37,-46.1"/>
</g>
<!-- MoveTo!* -->
<g id="node18" class="node">
<title>MoveTo!*</title>
<ellipse fill="gray" stroke="black" cx="643.87" cy="-18" rx="31.51" ry="18"/>
<text text-anchor="middle" x="643.87" y="-15.8" font-family="Times,serif" font-size="9.00">MoveTo!*</text>
</g>
<!-- Sequence***&#45;&gt;MoveTo!* -->
<g id="edge17" class="edge">
<title>Sequence***&#45;&gt;MoveTo!*</title>
<path fill="none" stroke="black" d="M575.06,-73.12C587.72,-63.16 604.16,-50.23 617.8,-39.51"/>
<polygon fill="black" stroke="black" points="620.17,-42.09 625.87,-33.16 615.84,-36.59 620.17,-42.09"/>
</g>
</g>
</svg>
