<?xml version="1.0" encoding="UTF-8" standalone="no"?>
<!DOCTYPE svg PUBLIC "-//W3C//DTD SVG 1.1//EN"
 "http://www.w3.org/Graphics/SVG/1.1/DTD/svg11.dtd">
<!-- Generated by graphviz version 2.43.0 (0)
 -->
<!-- Title: pastafarianism Pages: 1 -->
<svg width="569pt" height="332pt"
 viewBox="0.00 0.00 569.15 332.00" xmlns="http://www.w3.org/2000/svg" xmlns:xlink="http://www.w3.org/1999/xlink">
<g id="graph0" class="graph" transform="scale(1 1) rotate(0) translate(4 328)">
<title>pastafarianism</title>
<polygon fill="white" stroke="transparent" points="-4,4 -4,-328 565.15,-328 565.15,4 -4,4"/>
<!-- Fallback -->
<g id="node1" class="node">
<title>Fallback</title>
<polygon fill="cyan" stroke="black" points="255.24,-298.54 255.24,-313.46 238.11,-324 213.89,-324 196.76,-313.46 196.76,-298.54 213.89,-288 238.11,-288 255.24,-298.54"/>
<text text-anchor="middle" x="226" y="-303.8" font-family="Times,serif" font-size="9.00">Fallback</text>
</g>
<!-- ReachGoal? -->
<g id="node2" class="node">
<title>ReachGoal?</title>
<ellipse fill="gray" stroke="black" cx="54" cy="-234" rx="34.13" ry="18"/>
<text text-anchor="middle" x="54" y="-231.8" font-family="Times,serif" font-size="9.00">ReachGoal?</text>
</g>
<!-- Fallback&#45;&gt;ReachGoal? -->
<g id="edge1" class="edge">
<title>Fallback&#45;&gt;ReachGoal?</title>
<path fill="none" stroke="black" d="M201.72,-295.12C172.48,-283.22 123.1,-263.12 89.56,-249.47"/>
<polygon fill="black" stroke="black" points="90.71,-246.16 80.13,-245.63 88.07,-252.64 90.71,-246.16"/>
</g>
<!-- Sequence -->
<g id="node3" class="node">
<title>Sequence</title>
<polygon fill="cyan" stroke="black" points="168.49,-226.54 168.49,-241.46 150.05,-252 123.95,-252 105.51,-241.46 105.51,-226.54 123.95,-216 150.05,-216 168.49,-226.54"/>
<text text-anchor="middle" x="137" y="-231.8" font-family="Times,serif" font-size="9.00">Sequence</text>
</g>
<!-- Fallback&#45;&gt;Sequence -->
<g id="edge2" class="edge">
<title>Fallback&#45;&gt;Sequence</title>
<path fill="none" stroke="black" d="M208.42,-291.17C195.54,-281.04 177.85,-267.13 163.3,-255.69"/>
<polygon fill="black" stroke="black" points="165.18,-252.71 155.16,-249.28 160.85,-258.21 165.18,-252.71"/>
</g>
<!-- ReachGoal?** -->
<g id="node12" class="node">
<title>ReachGoal?**</title>
<ellipse fill="gray" stroke="black" cx="226" cy="-234" rx="39.02" ry="18"/>
<text text-anchor="middle" x="226" y="-231.8" font-family="Times,serif" font-size="9.00">ReachGoal?**</text>
</g>
<!-- Fallback&#45;&gt;ReachGoal?** -->
<g id="edge11" class="edge">
<title>Fallback&#45;&gt;ReachGoal?**</title>
<path fill="none" stroke="black" d="M226,-287.7C226,-279.98 226,-270.71 226,-262.11"/>
<polygon fill="black" stroke="black" points="229.5,-262.1 226,-252.1 222.5,-262.1 229.5,-262.1"/>
</g>
<!-- Sequence** -->
<g id="node13" class="node">
<title>Sequence**</title>
<polygon fill="cyan" stroke="black" points="356.74,-226.54 356.74,-241.46 335.22,-252 304.78,-252 283.26,-241.46 283.26,-226.54 304.78,-216 335.22,-216 356.74,-226.54"/>
<text text-anchor="middle" x="320" y="-231.8" font-family="Times,serif" font-size="9.00">Sequence**</text>
</g>
<!-- Fallback&#45;&gt;Sequence** -->
<g id="edge12" class="edge">
<title>Fallback&#45;&gt;Sequence**</title>
<path fill="none" stroke="black" d="M244.12,-291.5C257.63,-281.45 276.33,-267.52 291.78,-256.01"/>
<polygon fill="black" stroke="black" points="294.05,-258.69 299.98,-249.91 289.87,-253.08 294.05,-258.69"/>
</g>
<!-- Sequence*** -->
<g id="node16" class="node">
<title>Sequence***</title>
<polygon fill="cyan" stroke="black" points="461.99,-226.54 461.99,-241.46 438.56,-252 405.44,-252 382.01,-241.46 382.01,-226.54 405.44,-216 438.56,-216 461.99,-226.54"/>
<text text-anchor="middle" x="422" y="-231.8" font-family="Times,serif" font-size="9.00">Sequence***</text>
</g>
<!-- Fallback&#45;&gt;Sequence*** -->
<g id="edge15" class="edge">
<title>Fallback&#45;&gt;Sequence***</title>
<path fill="none" stroke="black" d="M251.22,-295.99C284.3,-284.18 342.71,-263.32 381.88,-249.33"/>
<polygon fill="black" stroke="black" points="383.16,-252.59 391.4,-245.93 380.81,-246 383.16,-252.59"/>
</g>
<!-- LkClose? -->
<g id="node4" class="node">
<title>LkClose?</title>
<ellipse fill="gray" stroke="black" cx="60" cy="-162" rx="28.74" ry="18"/>
<text text-anchor="middle" x="60" y="-159.8" font-family="Times,serif" font-size="9.00">LkClose?</text>
</g>
<!-- Sequence&#45;&gt;LkClose? -->
<g id="edge3" class="edge">
<title>Sequence&#45;&gt;LkClose?</title>
<path fill="none" stroke="black" d="M120.29,-217.81C109.41,-207.92 95.06,-194.87 83.09,-183.99"/>
<polygon fill="black" stroke="black" points="85.38,-181.34 75.63,-177.21 80.67,-186.52 85.38,-181.34"/>
</g>
<!-- Fallback* -->
<g id="node5" class="node">
<title>Fallback*</title>
<polygon fill="cyan" stroke="black" points="170.74,-154.54 170.74,-169.46 152.15,-180 125.85,-180 107.26,-169.46 107.26,-154.54 125.85,-144 152.15,-144 170.74,-154.54"/>
<text text-anchor="middle" x="139" y="-159.8" font-family="Times,serif" font-size="9.00">Fallback*</text>
</g>
<!-- Sequence&#45;&gt;Fallback* -->
<g id="edge4" class="edge">
<title>Sequence&#45;&gt;Fallback*</title>
<path fill="none" stroke="black" d="M137.49,-215.7C137.71,-207.98 137.98,-198.71 138.23,-190.11"/>
<polygon fill="black" stroke="black" points="141.72,-190.2 138.51,-180.1 134.73,-190 141.72,-190.2"/>
</g>
<!-- GetLk! -->
<g id="node6" class="node">
<title>GetLk!</title>
<ellipse fill="gray" stroke="black" cx="27" cy="-90" rx="27" ry="18"/>
<text text-anchor="middle" x="27" y="-87.8" font-family="Times,serif" font-size="9.00">GetLk!</text>
</g>
<!-- Fallback*&#45;&gt;GetLk! -->
<g id="edge5" class="edge">
<title>Fallback*&#45;&gt;GetLk!</title>
<path fill="none" stroke="black" d="M118.46,-148.16C100.6,-137 74.58,-120.74 54.86,-108.41"/>
<polygon fill="black" stroke="black" points="56.62,-105.39 46.29,-103.06 52.91,-111.32 56.62,-105.39"/>
</g>
<!-- GetLk!* -->
<g id="node7" class="node">
<title>GetLk!*</title>
<ellipse fill="gray" stroke="black" cx="99" cy="-90" rx="27.27" ry="18"/>
<text text-anchor="middle" x="99" y="-87.8" font-family="Times,serif" font-size="9.00">GetLk!*</text>
</g>
<!-- Fallback*&#45;&gt;GetLk!* -->
<g id="edge6" class="edge">
<title>Fallback*&#45;&gt;GetLk!*</title>
<path fill="none" stroke="black" d="M129.11,-143.7C124.32,-135.32 118.48,-125.1 113.23,-115.9"/>
<polygon fill="black" stroke="black" points="116.23,-114.09 108.23,-107.14 110.15,-117.56 116.23,-114.09"/>
</g>
<!-- Sequence* -->
<g id="node8" class="node">
<title>Sequence*</title>
<polygon fill="cyan" stroke="black" points="213.24,-82.54 213.24,-97.46 193.18,-108 164.82,-108 144.76,-97.46 144.76,-82.54 164.82,-72 193.18,-72 213.24,-82.54"/>
<text text-anchor="middle" x="179" y="-87.8" font-family="Times,serif" font-size="9.00">Sequence*</text>
</g>
<!-- Fallback*&#45;&gt;Sequence* -->
<g id="edge7" class="edge">
<title>Fallback*&#45;&gt;Sequence*</title>
<path fill="none" stroke="black" d="M148.89,-143.7C153.49,-135.64 159.06,-125.89 164.15,-116.98"/>
<polygon fill="black" stroke="black" points="167.3,-118.52 169.23,-108.1 161.23,-115.05 167.3,-118.52"/>
</g>
<!-- ReachGoal?* -->
<g id="node11" class="node">
<title>ReachGoal?*</title>
<ellipse fill="gray" stroke="black" cx="268" cy="-90" rx="36.9" ry="18"/>
<text text-anchor="middle" x="268" y="-87.8" font-family="Times,serif" font-size="9.00">ReachGoal?*</text>
</g>
<!-- Fallback*&#45;&gt;ReachGoal?* -->
<g id="edge10" class="edge">
<title>Fallback*&#45;&gt;ReachGoal?*</title>
<path fill="none" stroke="black" d="M161.18,-148.97C181.53,-137.92 211.94,-121.42 235.12,-108.84"/>
<polygon fill="black" stroke="black" points="236.81,-111.91 243.93,-104.06 233.47,-105.76 236.81,-111.91"/>
</g>
<!-- LkClose?* -->
<g id="node9" class="node">
<title>LkClose?*</title>
<ellipse fill="gray" stroke="black" cx="140" cy="-18" rx="31.51" ry="18"/>
<text text-anchor="middle" x="140" y="-15.8" font-family="Times,serif" font-size="9.00">LkClose?*</text>
</g>
<!-- Sequence*&#45;&gt;LkClose?* -->
<g id="edge8" class="edge">
<title>Sequence*&#45;&gt;LkClose?*</title>
<path fill="none" stroke="black" d="M169.36,-71.7C164.81,-63.52 159.28,-53.6 154.25,-44.58"/>
<polygon fill="black" stroke="black" points="157.19,-42.65 149.26,-35.62 151.07,-46.06 157.19,-42.65"/>
</g>
<!-- MoveTo! -->
<g id="node10" class="node">
<title>MoveTo!</title>
<ellipse fill="gray" stroke="black" cx="219" cy="-18" rx="28.74" ry="18"/>
<text text-anchor="middle" x="219" y="-15.8" font-family="Times,serif" font-size="9.00">MoveTo!</text>
</g>
<!-- Sequence*&#45;&gt;MoveTo! -->
<g id="edge9" class="edge">
<title>Sequence*&#45;&gt;MoveTo!</title>
<path fill="none" stroke="black" d="M188.89,-71.7C193.68,-63.32 199.52,-53.1 204.77,-43.9"/>
<polygon fill="black" stroke="black" points="207.85,-45.56 209.77,-35.14 201.77,-42.09 207.85,-45.56"/>
</g>
<!-- MoveTo!* -->
<g id="node14" class="node">
<title>MoveTo!*</title>
<ellipse fill="gray" stroke="black" cx="223" cy="-162" rx="31.51" ry="18"/>
<text text-anchor="middle" x="223" y="-159.8" font-family="Times,serif" font-size="9.00">MoveTo!*</text>
</g>
<!-- Sequence**&#45;&gt;MoveTo!* -->
<g id="edge13" class="edge">
<title>Sequence**&#45;&gt;MoveTo!*</title>
<path fill="none" stroke="black" d="M299.43,-218.15C285.07,-207.79 265.76,-193.86 250.14,-182.58"/>
<polygon fill="black" stroke="black" points="252.05,-179.65 241.9,-176.64 247.96,-185.33 252.05,-179.65"/>
</g>
<!-- NotReadyForSG? -->
<g id="node15" class="node">
<title>NotReadyForSG?</title>
<ellipse fill="gray" stroke="black" cx="320" cy="-162" rx="46.53" ry="18"/>
<text text-anchor="middle" x="320" y="-159.8" font-family="Times,serif" font-size="9.00">NotReadyForSG?</text>
</g>
<!-- Sequence**&#45;&gt;NotReadyForSG? -->
<g id="edge14" class="edge">
<title>Sequence**&#45;&gt;NotReadyForSG?</title>
<path fill="none" stroke="black" d="M320,-215.7C320,-207.98 320,-198.71 320,-190.11"/>
<polygon fill="black" stroke="black" points="323.5,-190.1 320,-180.1 316.5,-190.1 323.5,-190.1"/>
</g>
<!-- GetSubGoal! -->
<g id="node17" class="node">
<title>GetSubGoal!</title>
<ellipse fill="gray" stroke="black" cx="422" cy="-162" rx="36.9" ry="18"/>
<text text-anchor="middle" x="422" y="-159.8" font-family="Times,serif" font-size="9.00">GetSubGoal!</text>
</g>
<!-- Sequence***&#45;&gt;GetSubGoal! -->
<g id="edge16" class="edge">
<title>Sequence***&#45;&gt;GetSubGoal!</title>
<path fill="none" stroke="black" d="M422,-215.7C422,-207.98 422,-198.71 422,-190.11"/>
<polygon fill="black" stroke="black" points="425.5,-190.1 422,-180.1 418.5,-190.1 425.5,-190.1"/>
</g>
<!-- ReachGoal?*** -->
<g id="node18" class="node">
<title>ReachGoal?***</title>
<ellipse fill="gray" stroke="black" cx="519" cy="-162" rx="42.29" ry="18"/>
<text text-anchor="middle" x="519" y="-159.8" font-family="Times,serif" font-size="9.00">ReachGoal?***</text>
</g>
<!-- Sequence***&#45;&gt;ReachGoal?*** -->
<g id="edge17" class="edge">
<title>Sequence***&#45;&gt;ReachGoal?***</title>
<path fill="none" stroke="black" d="M443.05,-217.81C456.74,-207.93 474.79,-194.9 489.86,-184.03"/>
<polygon fill="black" stroke="black" points="492.27,-186.61 498.33,-177.92 488.17,-180.93 492.27,-186.61"/>
</g>
</g>
</svg>
