<?xml version="1.0" encoding="UTF-8" standalone="no"?>
<!DOCTYPE svg PUBLIC "-//W3C//DTD SVG 1.1//EN"
 "http://www.w3.org/Graphics/SVG/1.1/DTD/svg11.dtd">
<!-- Generated by graphviz version 2.43.0 (0)
 -->
<!-- Title: pastafarianism Pages: 1 -->
<svg width="623pt" height="404pt"
 viewBox="0.00 0.00 623.13 404.00" xmlns="http://www.w3.org/2000/svg" xmlns:xlink="http://www.w3.org/1999/xlink">
<g id="graph0" class="graph" transform="scale(1 1) rotate(0) translate(4 400)">
<title>pastafarianism</title>
<polygon fill="white" stroke="transparent" points="-4,4 -4,-400 619.13,-400 619.13,4 -4,4"/>
<!-- Fallback -->
<g id="node1" class="node">
<title>Fallback</title>
<polygon fill="cyan" stroke="black" points="237.31,-370.54 237.31,-385.46 220.18,-396 195.95,-396 178.82,-385.46 178.82,-370.54 195.95,-360 220.18,-360 237.31,-370.54"/>
<text text-anchor="middle" x="208.06" y="-375.8" font-family="Times,serif" font-size="9.00">Fallback</text>
</g>
<!-- ReachGoal? -->
<g id="node2" class="node">
<title>ReachGoal?</title>
<ellipse fill="gray" stroke="black" cx="34.06" cy="-306" rx="34.13" ry="18"/>
<text text-anchor="middle" x="34.06" y="-303.8" font-family="Times,serif" font-size="9.00">ReachGoal?</text>
</g>
<!-- Fallback&#45;&gt;ReachGoal? -->
<g id="edge1" class="edge">
<title>Fallback&#45;&gt;ReachGoal?</title>
<path fill="none" stroke="black" d="M183.87,-367.27C154.29,-355.37 103.98,-335.13 69.91,-321.42"/>
<polygon fill="black" stroke="black" points="70.91,-318.05 60.33,-317.56 68.3,-324.54 70.91,-318.05"/>
</g>
<!-- Sequence -->
<g id="node3" class="node">
<title>Sequence</title>
<polygon fill="cyan" stroke="black" points="148.56,-298.54 148.56,-313.46 130.11,-324 104.02,-324 85.57,-313.46 85.57,-298.54 104.02,-288 130.11,-288 148.56,-298.54"/>
<text text-anchor="middle" x="117.06" y="-303.8" font-family="Times,serif" font-size="9.00">Sequence</text>
</g>
<!-- Fallback&#45;&gt;Sequence -->
<g id="edge2" class="edge">
<title>Fallback&#45;&gt;Sequence</title>
<path fill="none" stroke="black" d="M190.08,-363.17C176.71,-352.88 158.26,-338.69 143.25,-327.14"/>
<polygon fill="black" stroke="black" points="145.38,-324.36 135.32,-321.04 141.11,-329.91 145.38,-324.36"/>
</g>
<!-- ReachGoal?*** -->
<g id="node13" class="node">
<title>ReachGoal?***</title>
<ellipse fill="gray" stroke="black" cx="208.06" cy="-306" rx="42.29" ry="18"/>
<text text-anchor="middle" x="208.06" y="-303.8" font-family="Times,serif" font-size="9.00">ReachGoal?***</text>
</g>
<!-- Fallback&#45;&gt;ReachGoal?*** -->
<g id="edge12" class="edge">
<title>Fallback&#45;&gt;ReachGoal?***</title>
<path fill="none" stroke="black" d="M208.06,-359.7C208.06,-351.98 208.06,-342.71 208.06,-334.11"/>
<polygon fill="black" stroke="black" points="211.56,-334.1 208.06,-324.1 204.56,-334.1 211.56,-334.1"/>
</g>
<!-- Sequence** -->
<g id="node14" class="node">
<title>Sequence**</title>
<polygon fill="cyan" stroke="black" points="341.8,-298.54 341.8,-313.46 320.28,-324 289.85,-324 268.32,-313.46 268.32,-298.54 289.85,-288 320.28,-288 341.8,-298.54"/>
<text text-anchor="middle" x="305.06" y="-303.8" font-family="Times,serif" font-size="9.00">Sequence**</text>
</g>
<!-- Fallback&#45;&gt;Sequence** -->
<g id="edge13" class="edge">
<title>Fallback&#45;&gt;Sequence**</title>
<path fill="none" stroke="black" d="M226.77,-363.5C240.79,-353.38 260.25,-339.34 276.26,-327.79"/>
<polygon fill="black" stroke="black" points="278.68,-330.35 284.74,-321.66 274.59,-324.68 278.68,-330.35"/>
</g>
<!-- Sequence*** -->
<g id="node17" class="node">
<title>Sequence***</title>
<polygon fill="cyan" stroke="black" points="447.05,-298.54 447.05,-313.46 423.63,-324 390.5,-324 367.07,-313.46 367.07,-298.54 390.5,-288 423.63,-288 447.05,-298.54"/>
<text text-anchor="middle" x="407.06" y="-303.8" font-family="Times,serif" font-size="9.00">Sequence***</text>
</g>
<!-- Fallback&#45;&gt;Sequence*** -->
<g id="edge16" class="edge">
<title>Fallback&#45;&gt;Sequence***</title>
<path fill="none" stroke="black" d="M233.67,-367.99C267.35,-356.15 326.9,-335.2 366.68,-321.21"/>
<polygon fill="black" stroke="black" points="368.06,-324.43 376.33,-317.81 365.74,-317.83 368.06,-324.43"/>
</g>
<!-- LkClose? -->
<g id="node4" class="node">
<title>LkClose?</title>
<ellipse fill="gray" stroke="black" cx="43.06" cy="-234" rx="28.74" ry="18"/>
<text text-anchor="middle" x="43.06" y="-231.8" font-family="Times,serif" font-size="9.00">LkClose?</text>
</g>
<!-- Sequence&#45;&gt;LkClose? -->
<g id="edge3" class="edge">
<title>Sequence&#45;&gt;LkClose?</title>
<path fill="none" stroke="black" d="M100.64,-289.46C90.4,-279.78 77.08,-267.17 65.82,-256.53"/>
<polygon fill="black" stroke="black" points="68.1,-253.87 58.43,-249.54 63.29,-258.95 68.1,-253.87"/>
</g>
<!-- Fallback* -->
<g id="node5" class="node">
<title>Fallback*</title>
<polygon fill="cyan" stroke="black" points="153.81,-226.54 153.81,-241.46 135.21,-252 108.92,-252 90.32,-241.46 90.32,-226.54 108.92,-216 135.21,-216 153.81,-226.54"/>
<text text-anchor="middle" x="122.06" y="-231.8" font-family="Times,serif" font-size="9.00">Fallback*</text>
</g>
<!-- Sequence&#45;&gt;Fallback* -->
<g id="edge4" class="edge">
<title>Sequence&#45;&gt;Fallback*</title>
<path fill="none" stroke="black" d="M118.3,-287.7C118.85,-279.98 119.51,-270.71 120.13,-262.11"/>
<polygon fill="black" stroke="black" points="123.62,-262.33 120.84,-252.1 116.64,-261.83 123.62,-262.33"/>
</g>
<!-- GetLk! -->
<g id="node6" class="node">
<title>GetLk!</title>
<ellipse fill="gray" stroke="black" cx="43.06" cy="-162" rx="27" ry="18"/>
<text text-anchor="middle" x="43.06" y="-159.8" font-family="Times,serif" font-size="9.00">GetLk!</text>
</g>
<!-- Fallback*&#45;&gt;GetLk! -->
<g id="edge5" class="edge">
<title>Fallback*&#45;&gt;GetLk!</title>
<path fill="none" stroke="black" d="M104.92,-217.81C93.68,-207.85 78.83,-194.7 66.51,-183.77"/>
<polygon fill="black" stroke="black" points="68.64,-180.98 58.83,-176.97 63.99,-186.22 68.64,-180.98"/>
</g>
<!-- Sequence* -->
<g id="node7" class="node">
<title>Sequence*</title>
<polygon fill="cyan" stroke="black" points="156.31,-154.54 156.31,-169.46 136.25,-180 107.88,-180 87.82,-169.46 87.82,-154.54 107.88,-144 136.25,-144 156.31,-154.54"/>
<text text-anchor="middle" x="122.06" y="-159.8" font-family="Times,serif" font-size="9.00">Sequence*</text>
</g>
<!-- Fallback*&#45;&gt;Sequence* -->
<g id="edge6" class="edge">
<title>Fallback*&#45;&gt;Sequence*</title>
<path fill="none" stroke="black" d="M122.06,-215.7C122.06,-207.98 122.06,-198.71 122.06,-190.11"/>
<polygon fill="black" stroke="black" points="125.56,-190.1 122.06,-180.1 118.56,-190.1 125.56,-190.1"/>
</g>
<!-- ReachGoal?** -->
<g id="node12" class="node">
<title>ReachGoal?**</title>
<ellipse fill="gray" stroke="black" cx="214.06" cy="-162" rx="39.02" ry="18"/>
<text text-anchor="middle" x="214.06" y="-159.8" font-family="Times,serif" font-size="9.00">ReachGoal?**</text>
</g>
<!-- Fallback*&#45;&gt;ReachGoal?** -->
<g id="edge11" class="edge">
<title>Fallback*&#45;&gt;ReachGoal?**</title>
<path fill="none" stroke="black" d="M140.68,-218.83C153.76,-208.88 171.48,-195.4 186.24,-184.17"/>
<polygon fill="black" stroke="black" points="188.68,-186.71 194.52,-177.87 184.44,-181.14 188.68,-186.71"/>
</g>
<!-- Fallback** -->
<g id="node8" class="node">
<title>Fallback**</title>
<polygon fill="cyan" stroke="black" points="130.05,-82.54 130.05,-97.46 109.56,-108 80.57,-108 60.07,-97.46 60.07,-82.54 80.57,-72 109.56,-72 130.05,-82.54"/>
<text text-anchor="middle" x="95.06" y="-87.8" font-family="Times,serif" font-size="9.00">Fallback**</text>
</g>
<!-- Sequence*&#45;&gt;Fallback** -->
<g id="edge7" class="edge">
<title>Sequence*&#45;&gt;Fallback**</title>
<path fill="none" stroke="black" d="M115.39,-143.7C112.35,-135.81 108.68,-126.3 105.3,-117.55"/>
<polygon fill="black" stroke="black" points="108.53,-116.17 101.66,-108.1 101.99,-118.69 108.53,-116.17"/>
</g>
<!-- MoveTo! -->
<g id="node11" class="node">
<title>MoveTo!</title>
<ellipse fill="gray" stroke="black" cx="177.06" cy="-90" rx="28.74" ry="18"/>
<text text-anchor="middle" x="177.06" y="-87.8" font-family="Times,serif" font-size="9.00">MoveTo!</text>
</g>
<!-- Sequence*&#45;&gt;MoveTo! -->
<g id="edge10" class="edge">
<title>Sequence*&#45;&gt;MoveTo!</title>
<path fill="none" stroke="black" d="M135.66,-143.7C142.55,-134.93 151.02,-124.15 158.5,-114.63"/>
<polygon fill="black" stroke="black" points="161.32,-116.7 164.75,-106.67 155.82,-112.37 161.32,-116.7"/>
</g>
<!-- ReachGoal?* -->
<g id="node9" class="node">
<title>ReachGoal?*</title>
<ellipse fill="gray" stroke="black" cx="54.06" cy="-18" rx="36.9" ry="18"/>
<text text-anchor="middle" x="54.06" y="-15.8" font-family="Times,serif" font-size="9.00">ReachGoal?*</text>
</g>
<!-- Fallback**&#45;&gt;ReachGoal?* -->
<g id="edge8" class="edge">
<title>Fallback**&#45;&gt;ReachGoal?*</title>
<path fill="none" stroke="black" d="M84.93,-71.7C80.09,-63.44 74.21,-53.39 68.88,-44.3"/>
<polygon fill="black" stroke="black" points="71.87,-42.48 63.8,-35.62 65.83,-46.02 71.87,-42.48"/>
</g>
<!-- GetLk!* -->
<g id="node10" class="node">
<title>GetLk!*</title>
<ellipse fill="gray" stroke="black" cx="136.06" cy="-18" rx="27.27" ry="18"/>
<text text-anchor="middle" x="136.06" y="-15.8" font-family="Times,serif" font-size="9.00">GetLk!*</text>
</g>
<!-- Fallback**&#45;&gt;GetLk!* -->
<g id="edge9" class="edge">
<title>Fallback**&#45;&gt;GetLk!*</title>
<path fill="none" stroke="black" d="M105.2,-71.7C110.11,-63.32 116.09,-53.1 121.48,-43.9"/>
<polygon fill="black" stroke="black" points="124.57,-45.54 126.61,-35.14 118.53,-42 124.57,-45.54"/>
</g>
<!-- MoveTo!* -->
<g id="node15" class="node">
<title>MoveTo!*</title>
<ellipse fill="gray" stroke="black" cx="208.06" cy="-234" rx="31.51" ry="18"/>
<text text-anchor="middle" x="208.06" y="-231.8" font-family="Times,serif" font-size="9.00">MoveTo!*</text>
</g>
<!-- Sequence**&#45;&gt;MoveTo!* -->
<g id="edge14" class="edge">
<title>Sequence**&#45;&gt;MoveTo!*</title>
<path fill="none" stroke="black" d="M284.49,-290.15C270.13,-279.79 250.82,-265.86 235.2,-254.58"/>
<polygon fill="black" stroke="black" points="237.12,-251.65 226.96,-248.64 233.02,-257.33 237.12,-251.65"/>
</g>
<!-- NotReadyForSG? -->
<g id="node16" class="node">
<title>NotReadyForSG?</title>
<ellipse fill="gray" stroke="black" cx="305.06" cy="-234" rx="46.53" ry="18"/>
<text text-anchor="middle" x="305.06" y="-231.8" font-family="Times,serif" font-size="9.00">NotReadyForSG?</text>
</g>
<!-- Sequence**&#45;&gt;NotReadyForSG? -->
<g id="edge15" class="edge">
<title>Sequence**&#45;&gt;NotReadyForSG?</title>
<path fill="none" stroke="black" d="M305.06,-287.7C305.06,-279.98 305.06,-270.71 305.06,-262.11"/>
<polygon fill="black" stroke="black" points="308.56,-262.1 305.06,-252.1 301.56,-262.1 308.56,-262.1"/>
</g>
<!-- Fallback*** -->
<g id="node18" class="node">
<title>Fallback***</title>
<polygon fill="cyan" stroke="black" points="444.55,-226.54 444.55,-241.46 422.59,-252 391.53,-252 369.57,-241.46 369.57,-226.54 391.53,-216 422.59,-216 444.55,-226.54"/>
<text text-anchor="middle" x="407.06" y="-231.8" font-family="Times,serif" font-size="9.00">Fallback***</text>
</g>
<!-- Sequence***&#45;&gt;Fallback*** -->
<g id="edge17" class="edge">
<title>Sequence***&#45;&gt;Fallback***</title>
<path fill="none" stroke="black" d="M407.06,-287.7C407.06,-279.98 407.06,-270.71 407.06,-262.11"/>
<polygon fill="black" stroke="black" points="410.56,-262.1 407.06,-252.1 403.56,-262.1 410.56,-262.1"/>
</g>
<!-- ReachGoal?**** -->
<g id="node25" class="node">
<title>ReachGoal?****</title>
<ellipse fill="gray" stroke="black" cx="507.06" cy="-234" rx="44.41" ry="18"/>
<text text-anchor="middle" x="507.06" y="-231.8" font-family="Times,serif" font-size="9.00">ReachGoal?****</text>
</g>
<!-- Sequence***&#45;&gt;ReachGoal?**** -->
<g id="edge24" class="edge">
<title>Sequence***&#45;&gt;ReachGoal?****</title>
<path fill="none" stroke="black" d="M428.76,-289.81C443.01,-279.84 461.83,-266.66 477.45,-255.73"/>
<polygon fill="black" stroke="black" points="479.57,-258.52 485.75,-249.92 475.55,-252.79 479.57,-258.52"/>
</g>
<!-- GetSubGoal! -->
<g id="node19" class="node">
<title>GetSubGoal!</title>
<ellipse fill="gray" stroke="black" cx="355.06" cy="-162" rx="36.9" ry="18"/>
<text text-anchor="middle" x="355.06" y="-159.8" font-family="Times,serif" font-size="9.00">GetSubGoal!</text>
</g>
<!-- Fallback***&#45;&gt;GetSubGoal! -->
<g id="edge18" class="edge">
<title>Fallback***&#45;&gt;GetSubGoal!</title>
<path fill="none" stroke="black" d="M394.21,-215.7C387.85,-207.14 380.08,-196.67 373.13,-187.33"/>
<polygon fill="black" stroke="black" points="375.83,-185.08 367.06,-179.14 370.21,-189.26 375.83,-185.08"/>
</g>
<!-- Sequence**** -->
<g id="node20" class="node">
<title>Sequence****</title>
<polygon fill="cyan" stroke="black" points="494.55,-154.54 494.55,-169.46 469.66,-180 434.46,-180 409.57,-169.46 409.57,-154.54 434.46,-144 469.66,-144 494.55,-154.54"/>
<text text-anchor="middle" x="452.06" y="-159.8" font-family="Times,serif" font-size="9.00">Sequence****</text>
</g>
<!-- Fallback***&#45;&gt;Sequence**** -->
<g id="edge19" class="edge">
<title>Fallback***&#45;&gt;Sequence****</title>
<path fill="none" stroke="black" d="M418.19,-215.7C423.42,-207.56 429.76,-197.69 435.54,-188.7"/>
<polygon fill="black" stroke="black" points="438.6,-190.41 441.07,-180.1 432.72,-186.62 438.6,-190.41"/>
</g>
<!-- CompLkGraph! -->
<g id="node21" class="node">
<title>CompLkGraph!</title>
<ellipse fill="gray" stroke="black" cx="272.06" cy="-90" rx="42.95" ry="18"/>
<text text-anchor="middle" x="272.06" y="-87.8" font-family="Times,serif" font-size="9.00">CompLkGraph!</text>
</g>
<!-- Sequence****&#45;&gt;CompLkGraph! -->
<g id="edge20" class="edge">
<title>Sequence****&#45;&gt;CompLkGraph!</title>
<path fill="none" stroke="black" d="M421.94,-149.28C391.69,-137.52 344.95,-119.34 311.71,-106.42"/>
<polygon fill="black" stroke="black" points="312.88,-103.12 302.29,-102.75 310.34,-109.64 312.88,-103.12"/>
</g>
<!-- GetSubGoal!* -->
<g id="node22" class="node">
<title>GetSubGoal!*</title>
<ellipse fill="gray" stroke="black" cx="372.06" cy="-90" rx="39.02" ry="18"/>
<text text-anchor="middle" x="372.06" y="-87.8" font-family="Times,serif" font-size="9.00">GetSubGoal!*</text>
</g>
<!-- Sequence****&#45;&gt;GetSubGoal!* -->
<g id="edge21" class="edge">
<title>Sequence****&#45;&gt;GetSubGoal!*</title>
<path fill="none" stroke="black" d="M433.1,-144.41C422.37,-135.02 408.8,-123.15 397.19,-112.99"/>
<polygon fill="black" stroke="black" points="399.35,-110.23 389.52,-106.27 394.74,-115.49 399.35,-110.23"/>
</g>
<!-- NotReadyForSG?* -->
<g id="node23" class="node">
<title>NotReadyForSG?*</title>
<ellipse fill="gray" stroke="black" cx="479.06" cy="-90" rx="49.8" ry="18"/>
<text text-anchor="middle" x="479.06" y="-87.8" font-family="Times,serif" font-size="9.00">NotReadyForSG?*</text>
</g>
<!-- Sequence****&#45;&gt;NotReadyForSG?* -->
<g id="edge22" class="edge">
<title>Sequence****&#45;&gt;NotReadyForSG?*</title>
<path fill="none" stroke="black" d="M458.74,-143.7C461.78,-135.81 465.45,-126.3 468.82,-117.55"/>
<polygon fill="black" stroke="black" points="472.13,-118.69 472.47,-108.1 465.6,-116.17 472.13,-118.69"/>
</g>
<!-- MoveTo!** -->
<g id="node24" class="node">
<title>MoveTo!**</title>
<ellipse fill="gray" stroke="black" cx="581.06" cy="-90" rx="34.13" ry="18"/>
<text text-anchor="middle" x="581.06" y="-87.8" font-family="Times,serif" font-size="9.00">MoveTo!**</text>
</g>
<!-- Sequence****&#45;&gt;MoveTo!** -->
<g id="edge23" class="edge">
<title>Sequence****&#45;&gt;MoveTo!**</title>
<path fill="none" stroke="black" d="M477.55,-147.17C498.11,-136.01 527.14,-120.26 549.23,-108.28"/>
<polygon fill="black" stroke="black" points="551.1,-111.24 558.22,-103.39 547.77,-105.09 551.1,-111.24"/>
</g>
</g>
</svg>
