<?xml version="1.0" encoding="UTF-8" standalone="no"?>
<!DOCTYPE svg PUBLIC "-//W3C//DTD SVG 1.1//EN"
 "http://www.w3.org/Graphics/SVG/1.1/DTD/svg11.dtd">
<!-- Generated by graphviz version 2.43.0 (0)
 -->
<!-- Title: pastafarianism Pages: 1 -->
<svg width="974pt" height="332pt"
 viewBox="0.00 0.00 974.32 332.00" xmlns="http://www.w3.org/2000/svg" xmlns:xlink="http://www.w3.org/1999/xlink">
<g id="graph0" class="graph" transform="scale(1 1) rotate(0) translate(4 328)">
<title>pastafarianism</title>
<polygon fill="white" stroke="transparent" points="-4,4 -4,-328 970.32,-328 970.32,4 -4,4"/>
<!-- Fallback -->
<g id="node1" class="node">
<title>Fallback</title>
<polygon fill="cyan" stroke="black" points="463.31,-298.54 463.31,-313.46 446.18,-324 421.95,-324 404.82,-313.46 404.82,-298.54 421.95,-288 446.18,-288 463.31,-298.54"/>
<text text-anchor="middle" x="434.06" y="-303.8" font-family="Times,serif" font-size="9.00">Fallback</text>
</g>
<!-- Sequence -->
<g id="node2" class="node">
<title>Sequence</title>
<polygon fill="cyan" stroke="black" points="144.56,-226.54 144.56,-241.46 126.11,-252 100.02,-252 81.57,-241.46 81.57,-226.54 100.02,-216 126.11,-216 144.56,-226.54"/>
<text text-anchor="middle" x="113.06" y="-231.8" font-family="Times,serif" font-size="9.00">Sequence</text>
</g>
<!-- Fallback&#45;&gt;Sequence -->
<g id="edge1" class="edge">
<title>Fallback&#45;&gt;Sequence</title>
<path fill="none" stroke="black" d="M404.73,-298.6C347.28,-286.08 219.86,-258.29 154.1,-243.95"/>
<polygon fill="black" stroke="black" points="154.61,-240.48 144.09,-241.77 153.12,-247.32 154.61,-240.48"/>
</g>
<!-- Sequence* -->
<g id="node5" class="node">
<title>Sequence*</title>
<polygon fill="cyan" stroke="black" points="376.31,-226.54 376.31,-241.46 356.25,-252 327.88,-252 307.82,-241.46 307.82,-226.54 327.88,-216 356.25,-216 376.31,-226.54"/>
<text text-anchor="middle" x="342.06" y="-231.8" font-family="Times,serif" font-size="9.00">Sequence*</text>
</g>
<!-- Fallback&#45;&gt;Sequence* -->
<g id="edge4" class="edge">
<title>Fallback&#45;&gt;Sequence*</title>
<path fill="none" stroke="black" d="M415.89,-291.17C402.54,-281.02 384.2,-267.06 369.13,-255.6"/>
<polygon fill="black" stroke="black" points="371.23,-252.79 361.15,-249.52 366.99,-258.36 371.23,-252.79"/>
</g>
<!-- ReachGoal?** -->
<g id="node15" class="node">
<title>ReachGoal?**</title>
<ellipse fill="gray" stroke="black" cx="434.06" cy="-234" rx="39.02" ry="18"/>
<text text-anchor="middle" x="434.06" y="-231.8" font-family="Times,serif" font-size="9.00">ReachGoal?**</text>
</g>
<!-- Fallback&#45;&gt;ReachGoal?** -->
<g id="edge14" class="edge">
<title>Fallback&#45;&gt;ReachGoal?**</title>
<path fill="none" stroke="black" d="M434.06,-287.7C434.06,-279.98 434.06,-270.71 434.06,-262.11"/>
<polygon fill="black" stroke="black" points="437.56,-262.1 434.06,-252.1 430.56,-262.1 437.56,-262.1"/>
</g>
<!-- Sequence** -->
<g id="node16" class="node">
<title>Sequence**</title>
<polygon fill="cyan" stroke="black" points="564.8,-226.54 564.8,-241.46 543.28,-252 512.85,-252 491.32,-241.46 491.32,-226.54 512.85,-216 543.28,-216 564.8,-226.54"/>
<text text-anchor="middle" x="528.06" y="-231.8" font-family="Times,serif" font-size="9.00">Sequence**</text>
</g>
<!-- Fallback&#45;&gt;Sequence** -->
<g id="edge15" class="edge">
<title>Fallback&#45;&gt;Sequence**</title>
<path fill="none" stroke="black" d="M452.19,-291.5C465.69,-281.45 484.39,-267.52 499.84,-256.01"/>
<polygon fill="black" stroke="black" points="502.11,-258.69 508.04,-249.91 497.93,-253.08 502.11,-258.69"/>
</g>
<!-- Sequence*** -->
<g id="node19" class="node">
<title>Sequence***</title>
<polygon fill="cyan" stroke="black" points="810.05,-226.54 810.05,-241.46 786.63,-252 753.5,-252 730.07,-241.46 730.07,-226.54 753.5,-216 786.63,-216 810.05,-226.54"/>
<text text-anchor="middle" x="770.06" y="-231.8" font-family="Times,serif" font-size="9.00">Sequence***</text>
</g>
<!-- Fallback&#45;&gt;Sequence*** -->
<g id="edge18" class="edge">
<title>Fallback&#45;&gt;Sequence***</title>
<path fill="none" stroke="black" d="M463.59,-298.85C521.97,-286.69 652.6,-259.47 722.99,-244.81"/>
<polygon fill="black" stroke="black" points="723.84,-248.2 732.92,-242.74 722.41,-241.35 723.84,-248.2"/>
</g>
<!-- ReachGoal? -->
<g id="node3" class="node">
<title>ReachGoal?</title>
<ellipse fill="gray" stroke="black" cx="34.06" cy="-162" rx="34.13" ry="18"/>
<text text-anchor="middle" x="34.06" y="-159.8" font-family="Times,serif" font-size="9.00">ReachGoal?</text>
</g>
<!-- Sequence&#45;&gt;ReachGoal? -->
<g id="edge2" class="edge">
<title>Sequence&#45;&gt;ReachGoal?</title>
<path fill="none" stroke="black" d="M95.92,-217.81C84.98,-208.11 70.62,-195.39 58.49,-184.64"/>
<polygon fill="black" stroke="black" points="60.71,-181.93 50.9,-177.92 56.06,-187.17 60.71,-181.93"/>
</g>
<!-- GetLk! -->
<g id="node4" class="node">
<title>GetLk!</title>
<ellipse fill="gray" stroke="black" cx="113.06" cy="-162" rx="27" ry="18"/>
<text text-anchor="middle" x="113.06" y="-159.8" font-family="Times,serif" font-size="9.00">GetLk!</text>
</g>
<!-- Sequence&#45;&gt;GetLk! -->
<g id="edge3" class="edge">
<title>Sequence&#45;&gt;GetLk!</title>
<path fill="none" stroke="black" d="M113.06,-215.7C113.06,-207.98 113.06,-198.71 113.06,-190.11"/>
<polygon fill="black" stroke="black" points="116.56,-190.1 113.06,-180.1 109.56,-190.1 116.56,-190.1"/>
</g>
<!-- LkClose? -->
<g id="node6" class="node">
<title>LkClose?</title>
<ellipse fill="gray" stroke="black" cx="187.06" cy="-162" rx="28.74" ry="18"/>
<text text-anchor="middle" x="187.06" y="-159.8" font-family="Times,serif" font-size="9.00">LkClose?</text>
</g>
<!-- Sequence*&#45;&gt;LkClose? -->
<g id="edge5" class="edge">
<title>Sequence*&#45;&gt;LkClose?</title>
<path fill="none" stroke="black" d="M316.82,-221.6C290.15,-209.55 248.03,-190.53 219.06,-177.45"/>
<polygon fill="black" stroke="black" points="220.33,-174.18 209.78,-173.26 217.45,-180.56 220.33,-174.18"/>
</g>
<!-- Fallback* -->
<g id="node7" class="node">
<title>Fallback*</title>
<polygon fill="cyan" stroke="black" points="297.81,-154.54 297.81,-169.46 279.21,-180 252.92,-180 234.32,-169.46 234.32,-154.54 252.92,-144 279.21,-144 297.81,-154.54"/>
<text text-anchor="middle" x="266.06" y="-159.8" font-family="Times,serif" font-size="9.00">Fallback*</text>
</g>
<!-- Sequence*&#45;&gt;Fallback* -->
<g id="edge6" class="edge">
<title>Sequence*&#45;&gt;Fallback*</title>
<path fill="none" stroke="black" d="M324.82,-217.12C314.57,-207.68 301.42,-195.56 290.15,-185.19"/>
<polygon fill="black" stroke="black" points="292.45,-182.54 282.72,-178.34 287.7,-187.69 292.45,-182.54"/>
</g>
<!-- MoveTo!* -->
<g id="node11" class="node">
<title>MoveTo!*</title>
<ellipse fill="gray" stroke="black" cx="348.06" cy="-162" rx="31.51" ry="18"/>
<text text-anchor="middle" x="348.06" y="-159.8" font-family="Times,serif" font-size="9.00">MoveTo!*</text>
</g>
<!-- Sequence*&#45;&gt;MoveTo!* -->
<g id="edge10" class="edge">
<title>Sequence*&#45;&gt;MoveTo!*</title>
<path fill="none" stroke="black" d="M343.55,-215.7C344.21,-207.98 345,-198.71 345.74,-190.11"/>
<polygon fill="black" stroke="black" points="349.23,-190.37 346.6,-180.1 342.26,-189.77 349.23,-190.37"/>
</g>
<!-- Fallback** -->
<g id="node12" class="node">
<title>Fallback**</title>
<polygon fill="cyan" stroke="black" points="468.05,-154.54 468.05,-169.46 447.56,-180 418.57,-180 398.07,-169.46 398.07,-154.54 418.57,-144 447.56,-144 468.05,-154.54"/>
<text text-anchor="middle" x="433.06" y="-159.8" font-family="Times,serif" font-size="9.00">Fallback**</text>
</g>
<!-- Sequence*&#45;&gt;Fallback** -->
<g id="edge11" class="edge">
<title>Sequence*&#45;&gt;Fallback**</title>
<path fill="none" stroke="black" d="M361.36,-218.15C374.27,-208.22 391.45,-195.01 405.76,-184.01"/>
<polygon fill="black" stroke="black" points="408,-186.7 413.79,-177.82 403.73,-181.15 408,-186.7"/>
</g>
<!-- GetLk!* -->
<g id="node8" class="node">
<title>GetLk!*</title>
<ellipse fill="gray" stroke="black" cx="177.06" cy="-90" rx="27.27" ry="18"/>
<text text-anchor="middle" x="177.06" y="-87.8" font-family="Times,serif" font-size="9.00">GetLk!*</text>
</g>
<!-- Fallback*&#45;&gt;GetLk!* -->
<g id="edge7" class="edge">
<title>Fallback*&#45;&gt;GetLk!*</title>
<path fill="none" stroke="black" d="M247.62,-146.5C234.43,-136.12 216.52,-122.03 202.04,-110.64"/>
<polygon fill="black" stroke="black" points="204,-107.73 193.98,-104.3 199.67,-113.23 204,-107.73"/>
</g>
<!-- ReachGoal?* -->
<g id="node9" class="node">
<title>ReachGoal?*</title>
<ellipse fill="gray" stroke="black" cx="259.06" cy="-90" rx="36.9" ry="18"/>
<text text-anchor="middle" x="259.06" y="-87.8" font-family="Times,serif" font-size="9.00">ReachGoal?*</text>
</g>
<!-- Fallback*&#45;&gt;ReachGoal?* -->
<g id="edge8" class="edge">
<title>Fallback*&#45;&gt;ReachGoal?*</title>
<path fill="none" stroke="black" d="M264.33,-143.7C263.56,-135.98 262.63,-126.71 261.77,-118.11"/>
<polygon fill="black" stroke="black" points="265.25,-117.71 260.77,-108.1 258.29,-118.4 265.25,-117.71"/>
</g>
<!-- MoveTo! -->
<g id="node10" class="node">
<title>MoveTo!</title>
<ellipse fill="gray" stroke="black" cx="343.06" cy="-90" rx="28.74" ry="18"/>
<text text-anchor="middle" x="343.06" y="-87.8" font-family="Times,serif" font-size="9.00">MoveTo!</text>
</g>
<!-- Fallback*&#45;&gt;MoveTo! -->
<g id="edge9" class="edge">
<title>Fallback*&#45;&gt;MoveTo!</title>
<path fill="none" stroke="black" d="M282.77,-145.81C293.66,-135.92 308.01,-122.87 319.98,-111.99"/>
<polygon fill="black" stroke="black" points="322.39,-114.52 327.44,-105.21 317.68,-109.34 322.39,-114.52"/>
</g>
<!-- CompLkGraph! -->
<g id="node13" class="node">
<title>CompLkGraph!</title>
<ellipse fill="gray" stroke="black" cx="433.06" cy="-90" rx="42.95" ry="18"/>
<text text-anchor="middle" x="433.06" y="-87.8" font-family="Times,serif" font-size="9.00">CompLkGraph!</text>
</g>
<!-- Fallback**&#45;&gt;CompLkGraph! -->
<g id="edge12" class="edge">
<title>Fallback**&#45;&gt;CompLkGraph!</title>
<path fill="none" stroke="black" d="M433.06,-143.7C433.06,-135.98 433.06,-126.71 433.06,-118.11"/>
<polygon fill="black" stroke="black" points="436.56,-118.1 433.06,-108.1 429.56,-118.1 436.56,-118.1"/>
</g>
<!-- MoveTo!** -->
<g id="node14" class="node">
<title>MoveTo!**</title>
<ellipse fill="gray" stroke="black" cx="528.06" cy="-90" rx="34.13" ry="18"/>
<text text-anchor="middle" x="528.06" y="-87.8" font-family="Times,serif" font-size="9.00">MoveTo!**</text>
</g>
<!-- Fallback**&#45;&gt;MoveTo!** -->
<g id="edge13" class="edge">
<title>Fallback**&#45;&gt;MoveTo!**</title>
<path fill="none" stroke="black" d="M452.75,-146.5C466.69,-136.22 485.56,-122.32 500.93,-110.99"/>
<polygon fill="black" stroke="black" points="503.08,-113.76 509.05,-105.01 498.93,-108.12 503.08,-113.76"/>
</g>
<!-- MoveTo!*** -->
<g id="node17" class="node">
<title>MoveTo!***</title>
<ellipse fill="gray" stroke="black" cx="523.06" cy="-162" rx="36.9" ry="18"/>
<text text-anchor="middle" x="523.06" y="-159.8" font-family="Times,serif" font-size="9.00">MoveTo!***</text>
</g>
<!-- Sequence**&#45;&gt;MoveTo!*** -->
<g id="edge16" class="edge">
<title>Sequence**&#45;&gt;MoveTo!***</title>
<path fill="none" stroke="black" d="M526.83,-215.7C526.28,-207.98 525.61,-198.71 525,-190.11"/>
<polygon fill="black" stroke="black" points="528.49,-189.83 524.29,-180.1 521.51,-190.33 528.49,-189.83"/>
</g>
<!-- NotReadyForSG? -->
<g id="node18" class="node">
<title>NotReadyForSG?</title>
<ellipse fill="gray" stroke="black" cx="625.06" cy="-162" rx="46.53" ry="18"/>
<text text-anchor="middle" x="625.06" y="-159.8" font-family="Times,serif" font-size="9.00">NotReadyForSG?</text>
</g>
<!-- Sequence**&#45;&gt;NotReadyForSG? -->
<g id="edge17" class="edge">
<title>Sequence**&#45;&gt;NotReadyForSG?</title>
<path fill="none" stroke="black" d="M548.63,-218.15C562.21,-208.36 580.21,-195.37 595.34,-184.45"/>
<polygon fill="black" stroke="black" points="597.79,-187 603.85,-178.31 593.69,-181.32 597.79,-187"/>
</g>
<!-- Fallback*** -->
<g id="node20" class="node">
<title>Fallback***</title>
<polygon fill="cyan" stroke="black" points="764.55,-154.54 764.55,-169.46 742.59,-180 711.53,-180 689.57,-169.46 689.57,-154.54 711.53,-144 742.59,-144 764.55,-154.54"/>
<text text-anchor="middle" x="727.06" y="-159.8" font-family="Times,serif" font-size="9.00">Fallback***</text>
</g>
<!-- Sequence***&#45;&gt;Fallback*** -->
<g id="edge19" class="edge">
<title>Sequence***&#45;&gt;Fallback***</title>
<path fill="none" stroke="black" d="M759.43,-215.7C754.44,-207.56 748.37,-197.69 742.85,-188.7"/>
<polygon fill="black" stroke="black" points="745.79,-186.79 737.57,-180.1 739.82,-190.46 745.79,-186.79"/>
</g>
<!-- LkGraph? -->
<g id="node27" class="node">
<title>LkGraph?</title>
<ellipse fill="gray" stroke="black" cx="813.06" cy="-162" rx="30.7" ry="18"/>
<text text-anchor="middle" x="813.06" y="-159.8" font-family="Times,serif" font-size="9.00">LkGraph?</text>
</g>
<!-- Sequence***&#45;&gt;LkGraph? -->
<g id="edge26" class="edge">
<title>Sequence***&#45;&gt;LkGraph?</title>
<path fill="none" stroke="black" d="M780.69,-215.7C785.84,-207.32 792.12,-197.1 797.77,-187.9"/>
<polygon fill="black" stroke="black" points="800.89,-189.5 803.15,-179.14 794.93,-185.83 800.89,-189.5"/>
</g>
<!-- ReachGoal?**** -->
<g id="node28" class="node">
<title>ReachGoal?****</title>
<ellipse fill="gray" stroke="black" cx="906.06" cy="-162" rx="44.41" ry="18"/>
<text text-anchor="middle" x="906.06" y="-159.8" font-family="Times,serif" font-size="9.00">ReachGoal?****</text>
</g>
<!-- Sequence***&#45;&gt;ReachGoal?**** -->
<g id="edge27" class="edge">
<title>Sequence***&#45;&gt;ReachGoal?****</title>
<path fill="none" stroke="black" d="M795.64,-219.83C816.84,-208.93 847.18,-193.31 870.7,-181.2"/>
<polygon fill="black" stroke="black" points="872.38,-184.27 879.67,-176.58 869.18,-178.05 872.38,-184.27"/>
</g>
<!-- GetSubGoal! -->
<g id="node21" class="node">
<title>GetSubGoal!</title>
<ellipse fill="gray" stroke="black" cx="630.06" cy="-90" rx="36.9" ry="18"/>
<text text-anchor="middle" x="630.06" y="-87.8" font-family="Times,serif" font-size="9.00">GetSubGoal!</text>
</g>
<!-- Fallback***&#45;&gt;GetSubGoal! -->
<g id="edge20" class="edge">
<title>Fallback***&#45;&gt;GetSubGoal!</title>
<path fill="none" stroke="black" d="M706.49,-146.15C692.42,-136 673.58,-122.4 658.13,-111.25"/>
<polygon fill="black" stroke="black" points="660.1,-108.36 649.94,-105.35 656,-114.04 660.1,-108.36"/>
</g>
<!-- ReachGoal?*** -->
<g id="node22" class="node">
<title>ReachGoal?***</title>
<ellipse fill="gray" stroke="black" cx="727.06" cy="-90" rx="42.29" ry="18"/>
<text text-anchor="middle" x="727.06" y="-87.8" font-family="Times,serif" font-size="9.00">ReachGoal?***</text>
</g>
<!-- Fallback***&#45;&gt;ReachGoal?*** -->
<g id="edge21" class="edge">
<title>Fallback***&#45;&gt;ReachGoal?***</title>
<path fill="none" stroke="black" d="M727.06,-143.7C727.06,-135.98 727.06,-126.71 727.06,-118.11"/>
<polygon fill="black" stroke="black" points="730.56,-118.1 727.06,-108.1 723.56,-118.1 730.56,-118.1"/>
</g>
<!-- Sequence**** -->
<g id="node23" class="node">
<title>Sequence****</title>
<polygon fill="cyan" stroke="black" points="872.55,-82.54 872.55,-97.46 847.66,-108 812.46,-108 787.57,-97.46 787.57,-82.54 812.46,-72 847.66,-72 872.55,-82.54"/>
<text text-anchor="middle" x="830.06" y="-87.8" font-family="Times,serif" font-size="9.00">Sequence****</text>
</g>
<!-- Fallback***&#45;&gt;Sequence**** -->
<g id="edge22" class="edge">
<title>Fallback***&#45;&gt;Sequence****</title>
<path fill="none" stroke="black" d="M748.41,-146.5C763.02,-136.56 782.64,-123.23 798.99,-112.12"/>
<polygon fill="black" stroke="black" points="801.38,-114.73 807.68,-106.21 797.44,-108.94 801.38,-114.73"/>
</g>
<!-- CompLkGraph!* -->
<g id="node24" class="node">
<title>CompLkGraph!*</title>
<ellipse fill="gray" stroke="black" cx="728.06" cy="-18" rx="45.07" ry="18"/>
<text text-anchor="middle" x="728.06" y="-15.8" font-family="Times,serif" font-size="9.00">CompLkGraph!*</text>
</g>
<!-- Sequence****&#45;&gt;CompLkGraph!* -->
<g id="edge23" class="edge">
<title>Sequence****&#45;&gt;CompLkGraph!*</title>
<path fill="none" stroke="black" d="M807.93,-73.81C793.4,-63.84 774.2,-50.66 758.27,-39.73"/>
<polygon fill="black" stroke="black" points="760.03,-36.69 749.8,-33.92 756.07,-42.46 760.03,-36.69"/>
</g>
<!-- GetSubGoal!* -->
<g id="node25" class="node">
<title>GetSubGoal!*</title>
<ellipse fill="gray" stroke="black" cx="830.06" cy="-18" rx="39.02" ry="18"/>
<text text-anchor="middle" x="830.06" y="-15.8" font-family="Times,serif" font-size="9.00">GetSubGoal!*</text>
</g>
<!-- Sequence****&#45;&gt;GetSubGoal!* -->
<g id="edge24" class="edge">
<title>Sequence****&#45;&gt;GetSubGoal!*</title>
<path fill="none" stroke="black" d="M830.06,-71.7C830.06,-63.98 830.06,-54.71 830.06,-46.11"/>
<polygon fill="black" stroke="black" points="833.56,-46.1 830.06,-36.1 826.56,-46.1 833.56,-46.1"/>
</g>
<!-- MoveTo!**** -->
<g id="node26" class="node">
<title>MoveTo!****</title>
<ellipse fill="gray" stroke="black" cx="927.06" cy="-18" rx="39.02" ry="18"/>
<text text-anchor="middle" x="927.06" y="-15.8" font-family="Times,serif" font-size="9.00">MoveTo!****</text>
</g>
<!-- Sequence****&#45;&gt;MoveTo!**** -->
<g id="edge25" class="edge">
<title>Sequence****&#45;&gt;MoveTo!****</title>
<path fill="none" stroke="black" d="M851.59,-73.46C865.4,-63.5 883.49,-50.44 898.5,-39.61"/>
<polygon fill="black" stroke="black" points="900.86,-42.23 906.92,-33.54 896.76,-36.55 900.86,-42.23"/>
</g>
</g>
</svg>
