<?xml version="1.0" encoding="UTF-8" standalone="no"?>
<!DOCTYPE svg PUBLIC "-//W3C//DTD SVG 1.1//EN"
 "http://www.w3.org/Graphics/SVG/1.1/DTD/svg11.dtd">
<!-- Generated by graphviz version 2.43.0 (0)
 -->
<!-- Title: pastafarianism Pages: 1 -->
<svg width="948pt" height="188pt"
 viewBox="0.00 0.00 947.52 188.00" xmlns="http://www.w3.org/2000/svg" xmlns:xlink="http://www.w3.org/1999/xlink">
<g id="graph0" class="graph" transform="scale(1 1) rotate(0) translate(4 184)">
<title>pastafarianism</title>
<polygon fill="white" stroke="transparent" points="-4,4 -4,-184 943.52,-184 943.52,4 -4,4"/>
<!-- Sequence -->
<g id="node1" class="node">
<title>Sequence</title>
<polygon fill="cyan" stroke="black" points="394.26,-154.54 394.26,-169.46 375.81,-180 349.72,-180 331.27,-169.46 331.27,-154.54 349.72,-144 375.81,-144 394.26,-154.54"/>
<text text-anchor="middle" x="362.77" y="-159.8" font-family="Times,serif" font-size="9.00">Sequence</text>
</g>
<!-- Fallback -->
<g id="node2" class="node">
<title>Fallback</title>
<polygon fill="cyan" stroke="black" points="170.01,-82.54 170.01,-97.46 152.88,-108 128.65,-108 111.52,-97.46 111.52,-82.54 128.65,-72 152.88,-72 170.01,-82.54"/>
<text text-anchor="middle" x="140.77" y="-87.8" font-family="Times,serif" font-size="9.00">Fallback</text>
</g>
<!-- Sequence&#45;&gt;Fallback -->
<g id="edge1" class="edge">
<title>Sequence&#45;&gt;Fallback</title>
<path fill="none" stroke="black" d="M335.1,-152.28C295.09,-139.66 221.05,-116.32 176.82,-102.37"/>
<polygon fill="black" stroke="black" points="177.64,-98.96 167.05,-99.29 175.54,-105.63 177.64,-98.96"/>
</g>
<!-- NotReadyForSG?* -->
<g id="node5" class="node">
<title>NotReadyForSG?*</title>
<ellipse fill="gray" stroke="black" cx="262.77" cy="-90" rx="49.8" ry="18"/>
<text text-anchor="middle" x="262.77" y="-87.8" font-family="Times,serif" font-size="9.00">NotReadyForSG?*</text>
</g>
<!-- Sequence&#45;&gt;NotReadyForSG?* -->
<g id="edge4" class="edge">
<title>Sequence&#45;&gt;NotReadyForSG?*</title>
<path fill="none" stroke="black" d="M343.48,-147.5C329.18,-137.49 309.39,-123.64 292.99,-112.16"/>
<polygon fill="black" stroke="black" points="294.97,-109.27 284.77,-106.41 290.96,-115.01 294.97,-109.27"/>
</g>
<!-- Fallback* -->
<g id="node6" class="node">
<title>Fallback*</title>
<polygon fill="cyan" stroke="black" points="394.51,-82.54 394.51,-97.46 375.91,-108 349.62,-108 331.02,-97.46 331.02,-82.54 349.62,-72 375.91,-72 394.51,-82.54"/>
<text text-anchor="middle" x="362.77" y="-87.8" font-family="Times,serif" font-size="9.00">Fallback*</text>
</g>
<!-- Sequence&#45;&gt;Fallback* -->
<g id="edge5" class="edge">
<title>Sequence&#45;&gt;Fallback*</title>
<path fill="none" stroke="black" d="M362.77,-143.7C362.77,-135.98 362.77,-126.71 362.77,-118.11"/>
<polygon fill="black" stroke="black" points="366.27,-118.1 362.77,-108.1 359.27,-118.1 366.27,-118.1"/>
</g>
<!-- Fallback** -->
<g id="node10" class="node">
<title>Fallback**</title>
<polygon fill="cyan" stroke="black" points="619.76,-82.54 619.76,-97.46 599.26,-108 570.27,-108 549.77,-97.46 549.77,-82.54 570.27,-72 599.26,-72 619.76,-82.54"/>
<text text-anchor="middle" x="584.77" y="-87.8" font-family="Times,serif" font-size="9.00">Fallback**</text>
</g>
<!-- Sequence&#45;&gt;Fallback** -->
<g id="edge9" class="edge">
<title>Sequence&#45;&gt;Fallback**</title>
<path fill="none" stroke="black" d="M390.43,-152.28C429.44,-139.98 500.81,-117.47 545.36,-103.43"/>
<polygon fill="black" stroke="black" points="546.49,-106.74 554.98,-100.39 544.39,-100.06 546.49,-106.74"/>
</g>
<!-- GetLk!** -->
<g id="node16" class="node">
<title>GetLk!**</title>
<ellipse fill="gray" stroke="black" cx="666.77" cy="-90" rx="29.39" ry="18"/>
<text text-anchor="middle" x="666.77" y="-87.8" font-family="Times,serif" font-size="9.00">GetLk!**</text>
</g>
<!-- Sequence&#45;&gt;GetLk!** -->
<g id="edge15" class="edge">
<title>Sequence&#45;&gt;GetLk!**</title>
<path fill="none" stroke="black" d="M394.05,-157.08C444.37,-150.27 545.99,-134.39 628.77,-108 630.89,-107.32 633.06,-106.56 635.22,-105.75"/>
<polygon fill="black" stroke="black" points="636.65,-108.94 644.59,-101.92 634,-102.46 636.65,-108.94"/>
</g>
<!-- NotReadyForSG? -->
<g id="node3" class="node">
<title>NotReadyForSG?</title>
<ellipse fill="gray" stroke="black" cx="46.77" cy="-18" rx="46.53" ry="18"/>
<text text-anchor="middle" x="46.77" y="-15.8" font-family="Times,serif" font-size="9.00">NotReadyForSG?</text>
</g>
<!-- Fallback&#45;&gt;NotReadyForSG? -->
<g id="edge2" class="edge">
<title>Fallback&#45;&gt;NotReadyForSG?</title>
<path fill="none" stroke="black" d="M122.64,-75.5C109.32,-65.58 90.94,-51.89 75.61,-40.48"/>
<polygon fill="black" stroke="black" points="77.56,-37.57 67.45,-34.41 73.38,-43.18 77.56,-37.57"/>
</g>
<!-- MoveTo! -->
<g id="node4" class="node">
<title>MoveTo!</title>
<ellipse fill="gray" stroke="black" cx="140.77" cy="-18" rx="28.74" ry="18"/>
<text text-anchor="middle" x="140.77" y="-15.8" font-family="Times,serif" font-size="9.00">MoveTo!</text>
</g>
<!-- Fallback&#45;&gt;MoveTo! -->
<g id="edge3" class="edge">
<title>Fallback&#45;&gt;MoveTo!</title>
<path fill="none" stroke="black" d="M140.77,-71.7C140.77,-63.98 140.77,-54.71 140.77,-46.11"/>
<polygon fill="black" stroke="black" points="144.27,-46.1 140.77,-36.1 137.27,-46.1 144.27,-46.1"/>
</g>
<!-- GetLk! -->
<g id="node7" class="node">
<title>GetLk!</title>
<ellipse fill="gray" stroke="black" cx="214.77" cy="-18" rx="27" ry="18"/>
<text text-anchor="middle" x="214.77" y="-15.8" font-family="Times,serif" font-size="9.00">GetLk!</text>
</g>
<!-- Fallback*&#45;&gt;GetLk! -->
<g id="edge6" class="edge">
<title>Fallback*&#45;&gt;GetLk!</title>
<path fill="none" stroke="black" d="M338.99,-77.75C313.55,-65.72 273.12,-46.6 245.34,-33.46"/>
<polygon fill="black" stroke="black" points="246.62,-30.19 236.08,-29.08 243.63,-36.52 246.62,-30.19"/>
</g>
<!-- LkClose? -->
<g id="node8" class="node">
<title>LkClose?</title>
<ellipse fill="gray" stroke="black" cx="288.77" cy="-18" rx="28.74" ry="18"/>
<text text-anchor="middle" x="288.77" y="-15.8" font-family="Times,serif" font-size="9.00">LkClose?</text>
</g>
<!-- Fallback*&#45;&gt;LkClose? -->
<g id="edge7" class="edge">
<title>Fallback*&#45;&gt;LkClose?</title>
<path fill="none" stroke="black" d="M346.34,-73.46C336.1,-63.78 322.78,-51.17 311.53,-40.53"/>
<polygon fill="black" stroke="black" points="313.8,-37.87 304.13,-33.54 308.99,-42.95 313.8,-37.87"/>
</g>
<!-- NotReadyForSG?** -->
<g id="node9" class="node">
<title>NotReadyForSG?**</title>
<ellipse fill="gray" stroke="black" cx="387.77" cy="-18" rx="51.92" ry="18"/>
<text text-anchor="middle" x="387.77" y="-15.8" font-family="Times,serif" font-size="9.00">NotReadyForSG?**</text>
</g>
<!-- Fallback*&#45;&gt;NotReadyForSG?** -->
<g id="edge8" class="edge">
<title>Fallback*&#45;&gt;NotReadyForSG?**</title>
<path fill="none" stroke="black" d="M368.95,-71.7C371.76,-63.81 375.16,-54.3 378.28,-45.55"/>
<polygon fill="black" stroke="black" points="381.59,-46.7 381.66,-36.1 375,-44.34 381.59,-46.7"/>
</g>
<!-- GetLk!* -->
<g id="node11" class="node">
<title>GetLk!*</title>
<ellipse fill="gray" stroke="black" cx="484.77" cy="-18" rx="27.27" ry="18"/>
<text text-anchor="middle" x="484.77" y="-15.8" font-family="Times,serif" font-size="9.00">GetLk!*</text>
</g>
<!-- Fallback**&#45;&gt;GetLk!* -->
<g id="edge10" class="edge">
<title>Fallback**&#45;&gt;GetLk!*</title>
<path fill="none" stroke="black" d="M564.53,-74.83C549.17,-64.08 527.92,-49.21 511.22,-37.52"/>
<polygon fill="black" stroke="black" points="513.15,-34.6 502.95,-31.73 509.14,-40.33 513.15,-34.6"/>
</g>
<!-- NotReadyForSG?*** -->
<g id="node12" class="node">
<title>NotReadyForSG?***</title>
<ellipse fill="gray" stroke="black" cx="584.77" cy="-18" rx="54.7" ry="18"/>
<text text-anchor="middle" x="584.77" y="-15.8" font-family="Times,serif" font-size="9.00">NotReadyForSG?***</text>
</g>
<!-- Fallback**&#45;&gt;NotReadyForSG?*** -->
<g id="edge11" class="edge">
<title>Fallback**&#45;&gt;NotReadyForSG?***</title>
<path fill="none" stroke="black" d="M584.77,-71.7C584.77,-63.98 584.77,-54.71 584.77,-46.11"/>
<polygon fill="black" stroke="black" points="588.27,-46.1 584.77,-36.1 581.27,-46.1 588.27,-46.1"/>
</g>
<!-- ReachGoal? -->
<g id="node13" class="node">
<title>ReachGoal?</title>
<ellipse fill="gray" stroke="black" cx="691.77" cy="-18" rx="34.13" ry="18"/>
<text text-anchor="middle" x="691.77" y="-15.8" font-family="Times,serif" font-size="9.00">ReachGoal?</text>
</g>
<!-- Fallback**&#45;&gt;ReachGoal? -->
<g id="edge12" class="edge">
<title>Fallback**&#45;&gt;ReachGoal?</title>
<path fill="none" stroke="black" d="M605.91,-75.17C622.13,-64.56 644.72,-49.78 662.65,-38.05"/>
<polygon fill="black" stroke="black" points="664.58,-40.97 671.03,-32.56 660.75,-35.11 664.58,-40.97"/>
</g>
<!-- NotReadyForSG?**** -->
<g id="node14" class="node">
<title>NotReadyForSG?****</title>
<ellipse fill="gray" stroke="black" cx="800.77" cy="-18" rx="57.32" ry="18"/>
<text text-anchor="middle" x="800.77" y="-15.8" font-family="Times,serif" font-size="9.00">NotReadyForSG?****</text>
</g>
<!-- Fallback**&#45;&gt;NotReadyForSG?**** -->
<g id="edge13" class="edge">
<title>Fallback**&#45;&gt;NotReadyForSG?****</title>
<path fill="none" stroke="black" d="M611.65,-78.27C617.28,-76.12 623.19,-73.93 628.77,-72 669.2,-57.98 715.61,-43.79 750.02,-33.62"/>
<polygon fill="black" stroke="black" points="751.24,-36.91 759.85,-30.73 749.26,-30.2 751.24,-36.91"/>
</g>
<!-- MoveTo!* -->
<g id="node15" class="node">
<title>MoveTo!*</title>
<ellipse fill="gray" stroke="black" cx="907.77" cy="-18" rx="31.51" ry="18"/>
<text text-anchor="middle" x="907.77" y="-15.8" font-family="Times,serif" font-size="9.00">MoveTo!*</text>
</g>
<!-- Fallback**&#45;&gt;MoveTo!* -->
<g id="edge14" class="edge">
<title>Fallback**&#45;&gt;MoveTo!*</title>
<path fill="none" stroke="black" d="M610.98,-77.8C616.76,-75.63 622.91,-73.55 628.77,-72 732.17,-44.56 763.71,-64.7 866.77,-36 869.23,-35.31 871.75,-34.52 874.27,-33.65"/>
<polygon fill="black" stroke="black" points="875.7,-36.86 883.83,-30.06 873.24,-30.3 875.7,-36.86"/>
</g>
</g>
</svg>
