<?xml version="1.0" encoding="UTF-8" standalone="no"?>
<!DOCTYPE svg PUBLIC "-//W3C//DTD SVG 1.1//EN"
 "http://www.w3.org/Graphics/SVG/1.1/DTD/svg11.dtd">
<!-- Generated by graphviz version 2.43.0 (0)
 -->
<!-- Title: pastafarianism Pages: 1 -->
<svg width="772pt" height="188pt"
 viewBox="0.00 0.00 771.52 188.00" xmlns="http://www.w3.org/2000/svg" xmlns:xlink="http://www.w3.org/1999/xlink">
<g id="graph0" class="graph" transform="scale(1 1) rotate(0) translate(4 184)">
<title>pastafarianism</title>
<polygon fill="white" stroke="transparent" points="-4,4 -4,-184 767.52,-184 767.52,4 -4,4"/>
<!-- Sequence -->
<g id="node1" class="node">
<title>Sequence</title>
<polygon fill="cyan" stroke="black" points="408.26,-154.54 408.26,-169.46 389.81,-180 363.72,-180 345.27,-169.46 345.27,-154.54 363.72,-144 389.81,-144 408.26,-154.54"/>
<text text-anchor="middle" x="376.77" y="-159.8" font-family="Times,serif" font-size="9.00">Sequence</text>
</g>
<!-- Fallback -->
<g id="node2" class="node">
<title>Fallback</title>
<polygon fill="cyan" stroke="black" points="157.01,-82.54 157.01,-97.46 139.88,-108 115.65,-108 98.52,-97.46 98.52,-82.54 115.65,-72 139.88,-72 157.01,-82.54"/>
<text text-anchor="middle" x="127.77" y="-87.8" font-family="Times,serif" font-size="9.00">Fallback</text>
</g>
<!-- Sequence&#45;&gt;Fallback -->
<g id="edge1" class="edge">
<title>Sequence&#45;&gt;Fallback</title>
<path fill="none" stroke="black" d="M345.16,-154.86C303.46,-146.36 228.05,-129.57 165.77,-108 163.87,-107.34 161.94,-106.63 160,-105.88"/>
<polygon fill="black" stroke="black" points="160.99,-102.5 150.41,-101.91 158.31,-108.97 160.99,-102.5"/>
</g>
<!-- NotReadyForSG?* -->
<g id="node5" class="node">
<title>NotReadyForSG?*</title>
<ellipse fill="gray" stroke="black" cx="224.77" cy="-90" rx="49.8" ry="18"/>
<text text-anchor="middle" x="224.77" y="-87.8" font-family="Times,serif" font-size="9.00">NotReadyForSG?*</text>
</g>
<!-- Sequence&#45;&gt;NotReadyForSG?* -->
<g id="edge4" class="edge">
<title>Sequence&#45;&gt;NotReadyForSG?*</title>
<path fill="none" stroke="black" d="M353.02,-150.06C329.09,-139.04 291.76,-121.85 263.53,-108.85"/>
<polygon fill="black" stroke="black" points="264.89,-105.63 254.34,-104.62 261.96,-111.98 264.89,-105.63"/>
</g>
<!-- Fallback* -->
<g id="node6" class="node">
<title>Fallback*</title>
<polygon fill="cyan" stroke="black" points="356.51,-82.54 356.51,-97.46 337.91,-108 311.62,-108 293.02,-97.46 293.02,-82.54 311.62,-72 337.91,-72 356.51,-82.54"/>
<text text-anchor="middle" x="324.77" y="-87.8" font-family="Times,serif" font-size="9.00">Fallback*</text>
</g>
<!-- Sequence&#45;&gt;Fallback* -->
<g id="edge5" class="edge">
<title>Sequence&#45;&gt;Fallback*</title>
<path fill="none" stroke="black" d="M363.91,-143.7C357.74,-135.39 350.23,-125.28 343.44,-116.14"/>
<polygon fill="black" stroke="black" points="346.24,-114.04 337.47,-108.1 340.63,-118.22 346.24,-114.04"/>
</g>
<!-- NotReadyForSG?*** -->
<g id="node10" class="node">
<title>NotReadyForSG?***</title>
<ellipse fill="gray" stroke="black" cx="429.77" cy="-90" rx="54.7" ry="18"/>
<text text-anchor="middle" x="429.77" y="-87.8" font-family="Times,serif" font-size="9.00">NotReadyForSG?***</text>
</g>
<!-- Sequence&#45;&gt;NotReadyForSG?*** -->
<g id="edge9" class="edge">
<title>Sequence&#45;&gt;NotReadyForSG?***</title>
<path fill="none" stroke="black" d="M389.87,-143.7C396.25,-135.27 404.04,-124.97 411.04,-115.73"/>
<polygon fill="black" stroke="black" points="413.93,-117.71 417.18,-107.62 408.35,-113.48 413.93,-117.71"/>
</g>
<!-- Fallback** -->
<g id="node11" class="node">
<title>Fallback**</title>
<polygon fill="cyan" stroke="black" points="572.76,-82.54 572.76,-97.46 552.26,-108 523.27,-108 502.77,-97.46 502.77,-82.54 523.27,-72 552.26,-72 572.76,-82.54"/>
<text text-anchor="middle" x="537.77" y="-87.8" font-family="Times,serif" font-size="9.00">Fallback**</text>
</g>
<!-- Sequence&#45;&gt;Fallback** -->
<g id="edge10" class="edge">
<title>Sequence&#45;&gt;Fallback**</title>
<path fill="none" stroke="black" d="M401.22,-150.37C428.13,-138.67 471.62,-119.76 502.28,-106.43"/>
<polygon fill="black" stroke="black" points="503.97,-109.51 511.75,-102.31 501.18,-103.09 503.97,-109.51"/>
</g>
<!-- GetLk!* -->
<g id="node15" class="node">
<title>GetLk!*</title>
<ellipse fill="gray" stroke="black" cx="617.77" cy="-90" rx="27.27" ry="18"/>
<text text-anchor="middle" x="617.77" y="-87.8" font-family="Times,serif" font-size="9.00">GetLk!*</text>
</g>
<!-- Sequence&#45;&gt;GetLk!* -->
<g id="edge14" class="edge">
<title>Sequence&#45;&gt;GetLk!*</title>
<path fill="none" stroke="black" d="M408.23,-154.79C448.95,-146.33 521.79,-129.7 581.77,-108 583.62,-107.33 585.5,-106.6 587.39,-105.83"/>
<polygon fill="black" stroke="black" points="588.97,-108.96 596.73,-101.74 586.16,-102.55 588.97,-108.96"/>
</g>
<!-- NotReadyForSG? -->
<g id="node3" class="node">
<title>NotReadyForSG?</title>
<ellipse fill="gray" stroke="black" cx="46.77" cy="-18" rx="46.53" ry="18"/>
<text text-anchor="middle" x="46.77" y="-15.8" font-family="Times,serif" font-size="9.00">NotReadyForSG?</text>
</g>
<!-- Fallback&#45;&gt;NotReadyForSG? -->
<g id="edge2" class="edge">
<title>Fallback&#45;&gt;NotReadyForSG?</title>
<path fill="none" stroke="black" d="M110.98,-74.5C99.96,-64.97 85.32,-52.32 72.8,-41.5"/>
<polygon fill="black" stroke="black" points="74.79,-38.59 64.94,-34.7 70.21,-43.89 74.79,-38.59"/>
</g>
<!-- MoveTo! -->
<g id="node4" class="node">
<title>MoveTo!</title>
<ellipse fill="gray" stroke="black" cx="140.77" cy="-18" rx="28.74" ry="18"/>
<text text-anchor="middle" x="140.77" y="-15.8" font-family="Times,serif" font-size="9.00">MoveTo!</text>
</g>
<!-- Fallback&#45;&gt;MoveTo! -->
<g id="edge3" class="edge">
<title>Fallback&#45;&gt;MoveTo!</title>
<path fill="none" stroke="black" d="M130.98,-71.7C132.41,-63.98 134.13,-54.71 135.73,-46.11"/>
<polygon fill="black" stroke="black" points="139.2,-46.58 137.59,-36.1 132.32,-45.3 139.2,-46.58"/>
</g>
<!-- GetLk! -->
<g id="node7" class="node">
<title>GetLk!</title>
<ellipse fill="gray" stroke="black" cx="238.77" cy="-18" rx="27" ry="18"/>
<text text-anchor="middle" x="238.77" y="-15.8" font-family="Times,serif" font-size="9.00">GetLk!</text>
</g>
<!-- Fallback*&#45;&gt;GetLk! -->
<g id="edge6" class="edge">
<title>Fallback*&#45;&gt;GetLk!</title>
<path fill="none" stroke="black" d="M306.95,-74.5C294.28,-64.19 277.11,-50.21 263.17,-38.86"/>
<polygon fill="black" stroke="black" points="265.36,-36.13 255.39,-32.54 260.94,-41.56 265.36,-36.13"/>
</g>
<!-- LkClose? -->
<g id="node8" class="node">
<title>LkClose?</title>
<ellipse fill="gray" stroke="black" cx="312.77" cy="-18" rx="28.74" ry="18"/>
<text text-anchor="middle" x="312.77" y="-15.8" font-family="Times,serif" font-size="9.00">LkClose?</text>
</g>
<!-- Fallback*&#45;&gt;LkClose? -->
<g id="edge7" class="edge">
<title>Fallback*&#45;&gt;LkClose?</title>
<path fill="none" stroke="black" d="M321.8,-71.7C320.48,-63.98 318.89,-54.71 317.41,-46.11"/>
<polygon fill="black" stroke="black" points="320.84,-45.37 315.7,-36.1 313.94,-46.55 320.84,-45.37"/>
</g>
<!-- NotReadyForSG?** -->
<g id="node9" class="node">
<title>NotReadyForSG?**</title>
<ellipse fill="gray" stroke="black" cx="411.77" cy="-18" rx="51.92" ry="18"/>
<text text-anchor="middle" x="411.77" y="-15.8" font-family="Times,serif" font-size="9.00">NotReadyForSG?**</text>
</g>
<!-- Fallback*&#45;&gt;NotReadyForSG?** -->
<g id="edge8" class="edge">
<title>Fallback*&#45;&gt;NotReadyForSG?**</title>
<path fill="none" stroke="black" d="M342.79,-74.5C354.74,-64.88 370.66,-52.07 384.19,-41.19"/>
<polygon fill="black" stroke="black" points="386.65,-43.7 392.25,-34.7 382.26,-38.24 386.65,-43.7"/>
</g>
<!-- ReachGoal? -->
<g id="node12" class="node">
<title>ReachGoal?</title>
<ellipse fill="gray" stroke="black" cx="515.77" cy="-18" rx="34.13" ry="18"/>
<text text-anchor="middle" x="515.77" y="-15.8" font-family="Times,serif" font-size="9.00">ReachGoal?</text>
</g>
<!-- Fallback**&#45;&gt;ReachGoal? -->
<g id="edge11" class="edge">
<title>Fallback**&#45;&gt;ReachGoal?</title>
<path fill="none" stroke="black" d="M532.33,-71.7C529.88,-63.9 526.93,-54.51 524.2,-45.83"/>
<polygon fill="black" stroke="black" points="527.48,-44.59 521.14,-36.1 520.8,-46.69 527.48,-44.59"/>
</g>
<!-- NotReadyForSG?**** -->
<g id="node13" class="node">
<title>NotReadyForSG?****</title>
<ellipse fill="gray" stroke="black" cx="624.77" cy="-18" rx="57.32" ry="18"/>
<text text-anchor="middle" x="624.77" y="-15.8" font-family="Times,serif" font-size="9.00">NotReadyForSG?****</text>
</g>
<!-- Fallback**&#45;&gt;NotReadyForSG?**** -->
<g id="edge12" class="edge">
<title>Fallback**&#45;&gt;NotReadyForSG?****</title>
<path fill="none" stroke="black" d="M556.64,-73.81C568.4,-64.35 583.73,-52.02 596.87,-41.45"/>
<polygon fill="black" stroke="black" points="599.12,-44.13 604.71,-35.13 594.73,-38.68 599.12,-44.13"/>
</g>
<!-- MoveTo!* -->
<g id="node14" class="node">
<title>MoveTo!*</title>
<ellipse fill="gray" stroke="black" cx="731.77" cy="-18" rx="31.51" ry="18"/>
<text text-anchor="middle" x="731.77" y="-15.8" font-family="Times,serif" font-size="9.00">MoveTo!*</text>
</g>
<!-- Fallback**&#45;&gt;MoveTo!* -->
<g id="edge13" class="edge">
<title>Fallback**&#45;&gt;MoveTo!*</title>
<path fill="none" stroke="black" d="M564.68,-78.36C570.31,-76.2 576.21,-73.99 581.77,-72 629.8,-54.8 642.95,-53.78 690.77,-36 693.02,-35.16 695.33,-34.27 697.66,-33.36"/>
<polygon fill="black" stroke="black" points="699.19,-36.52 707.17,-29.55 696.58,-30.03 699.19,-36.52"/>
</g>
</g>
</svg>
