<?xml version="1.0" encoding="UTF-8" standalone="no"?>
<!DOCTYPE svg PUBLIC "-//W3C//DTD SVG 1.1//EN"
 "http://www.w3.org/Graphics/SVG/1.1/DTD/svg11.dtd">
<!-- Generated by graphviz version 2.43.0 (0)
 -->
<!-- Title: pastafarianism Pages: 1 -->
<svg width="774pt" height="260pt"
 viewBox="0.00 0.00 773.52 260.00" xmlns="http://www.w3.org/2000/svg" xmlns:xlink="http://www.w3.org/1999/xlink">
<g id="graph0" class="graph" transform="scale(1 1) rotate(0) translate(4 256)">
<title>pastafarianism</title>
<polygon fill="white" stroke="transparent" points="-4,4 -4,-256 769.52,-256 769.52,4 -4,4"/>
<!-- Sequence -->
<g id="node1" class="node">
<title>Sequence</title>
<polygon fill="cyan" stroke="black" points="410.26,-226.54 410.26,-241.46 391.81,-252 365.72,-252 347.27,-241.46 347.27,-226.54 365.72,-216 391.81,-216 410.26,-226.54"/>
<text text-anchor="middle" x="378.77" y="-231.8" font-family="Times,serif" font-size="9.00">Sequence</text>
</g>
<!-- Fallback -->
<g id="node2" class="node">
<title>Fallback</title>
<polygon fill="cyan" stroke="black" points="159.01,-154.54 159.01,-169.46 141.88,-180 117.65,-180 100.52,-169.46 100.52,-154.54 117.65,-144 141.88,-144 159.01,-154.54"/>
<text text-anchor="middle" x="129.77" y="-159.8" font-family="Times,serif" font-size="9.00">Fallback</text>
</g>
<!-- Sequence&#45;&gt;Fallback -->
<g id="edge1" class="edge">
<title>Sequence&#45;&gt;Fallback</title>
<path fill="none" stroke="black" d="M347.16,-226.86C305.46,-218.36 230.05,-201.57 167.77,-180 165.87,-179.34 163.94,-178.63 162,-177.88"/>
<polygon fill="black" stroke="black" points="162.99,-174.5 152.41,-173.91 160.31,-180.97 162.99,-174.5"/>
</g>
<!-- NotReadyForSG?* -->
<g id="node5" class="node">
<title>NotReadyForSG?*</title>
<ellipse fill="gray" stroke="black" cx="226.77" cy="-162" rx="49.8" ry="18"/>
<text text-anchor="middle" x="226.77" y="-159.8" font-family="Times,serif" font-size="9.00">NotReadyForSG?*</text>
</g>
<!-- Sequence&#45;&gt;NotReadyForSG?* -->
<g id="edge4" class="edge">
<title>Sequence&#45;&gt;NotReadyForSG?*</title>
<path fill="none" stroke="black" d="M355.02,-222.06C331.09,-211.04 293.76,-193.85 265.53,-180.85"/>
<polygon fill="black" stroke="black" points="266.89,-177.63 256.34,-176.62 263.96,-183.98 266.89,-177.63"/>
</g>
<!-- Fallback* -->
<g id="node6" class="node">
<title>Fallback*</title>
<polygon fill="cyan" stroke="black" points="358.51,-154.54 358.51,-169.46 339.91,-180 313.62,-180 295.02,-169.46 295.02,-154.54 313.62,-144 339.91,-144 358.51,-154.54"/>
<text text-anchor="middle" x="326.77" y="-159.8" font-family="Times,serif" font-size="9.00">Fallback*</text>
</g>
<!-- Sequence&#45;&gt;Fallback* -->
<g id="edge5" class="edge">
<title>Sequence&#45;&gt;Fallback*</title>
<path fill="none" stroke="black" d="M365.91,-215.7C359.74,-207.39 352.23,-197.28 345.44,-188.14"/>
<polygon fill="black" stroke="black" points="348.24,-186.04 339.47,-180.1 342.63,-190.22 348.24,-186.04"/>
</g>
<!-- NotReadyForSG?*** -->
<g id="node9" class="node">
<title>NotReadyForSG?***</title>
<ellipse fill="gray" stroke="black" cx="431.77" cy="-162" rx="54.7" ry="18"/>
<text text-anchor="middle" x="431.77" y="-159.8" font-family="Times,serif" font-size="9.00">NotReadyForSG?***</text>
</g>
<!-- Sequence&#45;&gt;NotReadyForSG?*** -->
<g id="edge8" class="edge">
<title>Sequence&#45;&gt;NotReadyForSG?***</title>
<path fill="none" stroke="black" d="M391.87,-215.7C398.25,-207.27 406.04,-196.97 413.04,-187.73"/>
<polygon fill="black" stroke="black" points="415.93,-189.71 419.18,-179.62 410.35,-185.48 415.93,-189.71"/>
</g>
<!-- Fallback** -->
<g id="node10" class="node">
<title>Fallback**</title>
<polygon fill="cyan" stroke="black" points="574.76,-154.54 574.76,-169.46 554.26,-180 525.27,-180 504.77,-169.46 504.77,-154.54 525.27,-144 554.26,-144 574.76,-154.54"/>
<text text-anchor="middle" x="539.77" y="-159.8" font-family="Times,serif" font-size="9.00">Fallback**</text>
</g>
<!-- Sequence&#45;&gt;Fallback** -->
<g id="edge9" class="edge">
<title>Sequence&#45;&gt;Fallback**</title>
<path fill="none" stroke="black" d="M403.22,-222.37C430.13,-210.67 473.62,-191.76 504.28,-178.43"/>
<polygon fill="black" stroke="black" points="505.97,-181.51 513.75,-174.31 503.18,-175.09 505.97,-181.51"/>
</g>
<!-- GetLk! -->
<g id="node17" class="node">
<title>GetLk!</title>
<ellipse fill="gray" stroke="black" cx="619.77" cy="-162" rx="27" ry="18"/>
<text text-anchor="middle" x="619.77" y="-159.8" font-family="Times,serif" font-size="9.00">GetLk!</text>
</g>
<!-- Sequence&#45;&gt;GetLk! -->
<g id="edge16" class="edge">
<title>Sequence&#45;&gt;GetLk!</title>
<path fill="none" stroke="black" d="M410.23,-226.79C450.95,-218.33 523.79,-201.7 583.77,-180 585.62,-179.33 587.5,-178.6 589.39,-177.83"/>
<polygon fill="black" stroke="black" points="590.97,-180.96 598.73,-173.74 588.16,-174.55 590.97,-180.96"/>
</g>
<!-- NotReadyForSG? -->
<g id="node3" class="node">
<title>NotReadyForSG?</title>
<ellipse fill="gray" stroke="black" cx="46.77" cy="-90" rx="46.53" ry="18"/>
<text text-anchor="middle" x="46.77" y="-87.8" font-family="Times,serif" font-size="9.00">NotReadyForSG?</text>
</g>
<!-- Fallback&#45;&gt;NotReadyForSG? -->
<g id="edge2" class="edge">
<title>Fallback&#45;&gt;NotReadyForSG?</title>
<path fill="none" stroke="black" d="M112.97,-146.83C101.51,-137.17 86.11,-124.18 73.05,-113.17"/>
<polygon fill="black" stroke="black" points="75.17,-110.38 65.27,-106.61 70.66,-115.73 75.17,-110.38"/>
</g>
<!-- MoveTo! -->
<g id="node4" class="node">
<title>MoveTo!</title>
<ellipse fill="gray" stroke="black" cx="140.77" cy="-90" rx="28.74" ry="18"/>
<text text-anchor="middle" x="140.77" y="-87.8" font-family="Times,serif" font-size="9.00">MoveTo!</text>
</g>
<!-- Fallback&#45;&gt;MoveTo! -->
<g id="edge3" class="edge">
<title>Fallback&#45;&gt;MoveTo!</title>
<path fill="none" stroke="black" d="M132.48,-143.7C133.7,-135.98 135.15,-126.71 136.5,-118.11"/>
<polygon fill="black" stroke="black" points="139.98,-118.53 138.08,-108.1 133.07,-117.44 139.98,-118.53"/>
</g>
<!-- LkClose? -->
<g id="node7" class="node">
<title>LkClose?</title>
<ellipse fill="gray" stroke="black" cx="227.77" cy="-90" rx="28.74" ry="18"/>
<text text-anchor="middle" x="227.77" y="-87.8" font-family="Times,serif" font-size="9.00">LkClose?</text>
</g>
<!-- Fallback*&#45;&gt;LkClose? -->
<g id="edge6" class="edge">
<title>Fallback*&#45;&gt;LkClose?</title>
<path fill="none" stroke="black" d="M307.21,-147.17C292.14,-136.52 271.14,-121.67 254.52,-109.92"/>
<polygon fill="black" stroke="black" points="256.47,-107.01 246.28,-104.09 252.42,-112.72 256.47,-107.01"/>
</g>
<!-- NotReadyForSG?** -->
<g id="node8" class="node">
<title>NotReadyForSG?**</title>
<ellipse fill="gray" stroke="black" cx="326.77" cy="-90" rx="51.92" ry="18"/>
<text text-anchor="middle" x="326.77" y="-87.8" font-family="Times,serif" font-size="9.00">NotReadyForSG?**</text>
</g>
<!-- Fallback*&#45;&gt;NotReadyForSG?** -->
<g id="edge7" class="edge">
<title>Fallback*&#45;&gt;NotReadyForSG?**</title>
<path fill="none" stroke="black" d="M326.77,-143.7C326.77,-135.98 326.77,-126.71 326.77,-118.11"/>
<polygon fill="black" stroke="black" points="330.27,-118.1 326.77,-108.1 323.27,-118.1 330.27,-118.1"/>
</g>
<!-- ReachGoal? -->
<g id="node11" class="node">
<title>ReachGoal?</title>
<ellipse fill="gray" stroke="black" cx="430.77" cy="-90" rx="34.13" ry="18"/>
<text text-anchor="middle" x="430.77" y="-87.8" font-family="Times,serif" font-size="9.00">ReachGoal?</text>
</g>
<!-- Fallback**&#45;&gt;ReachGoal? -->
<g id="edge10" class="edge">
<title>Fallback**&#45;&gt;ReachGoal?</title>
<path fill="none" stroke="black" d="M518.49,-147.34C501.88,-136.67 478.61,-121.72 460.21,-109.91"/>
<polygon fill="black" stroke="black" points="461.92,-106.85 451.62,-104.39 458.14,-112.74 461.92,-106.85"/>
</g>
<!-- NotReadyForSG?**** -->
<g id="node12" class="node">
<title>NotReadyForSG?****</title>
<ellipse fill="gray" stroke="black" cx="539.77" cy="-90" rx="57.32" ry="18"/>
<text text-anchor="middle" x="539.77" y="-87.8" font-family="Times,serif" font-size="9.00">NotReadyForSG?****</text>
</g>
<!-- Fallback**&#45;&gt;NotReadyForSG?**** -->
<g id="edge11" class="edge">
<title>Fallback**&#45;&gt;NotReadyForSG?****</title>
<path fill="none" stroke="black" d="M539.77,-143.7C539.77,-135.98 539.77,-126.71 539.77,-118.11"/>
<polygon fill="black" stroke="black" points="543.27,-118.1 539.77,-108.1 536.27,-118.1 543.27,-118.1"/>
</g>
<!-- Sequence* -->
<g id="node13" class="node">
<title>Sequence*</title>
<polygon fill="cyan" stroke="black" points="684.01,-82.54 684.01,-97.46 663.95,-108 635.58,-108 615.52,-97.46 615.52,-82.54 635.58,-72 663.95,-72 684.01,-82.54"/>
<text text-anchor="middle" x="649.77" y="-87.8" font-family="Times,serif" font-size="9.00">Sequence*</text>
</g>
<!-- Fallback**&#45;&gt;Sequence* -->
<g id="edge12" class="edge">
<title>Fallback**&#45;&gt;Sequence*</title>
<path fill="none" stroke="black" d="M561.24,-147.34C577.89,-136.74 601.18,-121.92 619.7,-110.14"/>
<polygon fill="black" stroke="black" points="621.79,-112.95 628.35,-104.63 618.03,-107.04 621.79,-112.95"/>
</g>
<!-- MoveTo!* -->
<g id="node16" class="node">
<title>MoveTo!*</title>
<ellipse fill="gray" stroke="black" cx="733.77" cy="-90" rx="31.51" ry="18"/>
<text text-anchor="middle" x="733.77" y="-87.8" font-family="Times,serif" font-size="9.00">MoveTo!*</text>
</g>
<!-- Fallback**&#45;&gt;MoveTo!* -->
<g id="edge15" class="edge">
<title>Fallback**&#45;&gt;MoveTo!*</title>
<path fill="none" stroke="black" d="M566.68,-150.36C572.31,-148.2 578.21,-145.99 583.77,-144 631.8,-126.8 644.95,-125.78 692.77,-108 695.02,-107.16 697.33,-106.27 699.66,-105.36"/>
<polygon fill="black" stroke="black" points="701.19,-108.52 709.17,-101.55 698.58,-102.03 701.19,-108.52"/>
</g>
<!-- ReachGoal?* -->
<g id="node14" class="node">
<title>ReachGoal?*</title>
<ellipse fill="gray" stroke="black" cx="603.77" cy="-18" rx="36.9" ry="18"/>
<text text-anchor="middle" x="603.77" y="-15.8" font-family="Times,serif" font-size="9.00">ReachGoal?*</text>
</g>
<!-- Sequence*&#45;&gt;ReachGoal?* -->
<g id="edge13" class="edge">
<title>Sequence*&#45;&gt;ReachGoal?*</title>
<path fill="none" stroke="black" d="M638.39,-71.7C632.91,-63.35 626.23,-53.18 620.2,-44.02"/>
<polygon fill="black" stroke="black" points="623.11,-42.06 614.69,-35.62 617.26,-45.9 623.11,-42.06"/>
</g>
<!-- GetSubGoal! -->
<g id="node15" class="node">
<title>GetSubGoal!</title>
<ellipse fill="gray" stroke="black" cx="695.77" cy="-18" rx="36.9" ry="18"/>
<text text-anchor="middle" x="695.77" y="-15.8" font-family="Times,serif" font-size="9.00">GetSubGoal!</text>
</g>
<!-- Sequence*&#45;&gt;GetSubGoal! -->
<g id="edge14" class="edge">
<title>Sequence*&#45;&gt;GetSubGoal!</title>
<path fill="none" stroke="black" d="M661.14,-71.7C666.62,-63.35 673.3,-53.18 679.33,-44.02"/>
<polygon fill="black" stroke="black" points="682.28,-45.9 684.84,-35.62 676.43,-42.06 682.28,-45.9"/>
</g>
</g>
</svg>
