<?xml version="1.0" encoding="UTF-8" standalone="no"?>
<!DOCTYPE svg PUBLIC "-//W3C//DTD SVG 1.1//EN"
 "http://www.w3.org/Graphics/SVG/1.1/DTD/svg11.dtd">
<!-- Generated by graphviz version 2.43.0 (0)
 -->
<!-- Title: pastafarianism Pages: 1 -->
<svg width="968pt" height="188pt"
 viewBox="0.00 0.00 967.83 188.00" xmlns="http://www.w3.org/2000/svg" xmlns:xlink="http://www.w3.org/1999/xlink">
<g id="graph0" class="graph" transform="scale(1 1) rotate(0) translate(4 184)">
<title>pastafarianism</title>
<polygon fill="white" stroke="transparent" points="-4,4 -4,-184 963.83,-184 963.83,4 -4,4"/>
<!-- Sequence -->
<g id="node1" class="node">
<title>Sequence</title>
<polygon fill="cyan" stroke="black" points="610.26,-154.54 610.26,-169.46 591.81,-180 565.72,-180 547.27,-169.46 547.27,-154.54 565.72,-144 591.81,-144 610.26,-154.54"/>
<text text-anchor="middle" x="578.77" y="-159.8" font-family="Times,serif" font-size="9.00">Sequence</text>
</g>
<!-- Fallback -->
<g id="node2" class="node">
<title>Fallback</title>
<polygon fill="cyan" stroke="black" points="170.01,-82.54 170.01,-97.46 152.88,-108 128.65,-108 111.52,-97.46 111.52,-82.54 128.65,-72 152.88,-72 170.01,-82.54"/>
<text text-anchor="middle" x="140.77" y="-87.8" font-family="Times,serif" font-size="9.00">Fallback</text>
</g>
<!-- Sequence&#45;&gt;Fallback -->
<g id="edge1" class="edge">
<title>Sequence&#45;&gt;Fallback</title>
<path fill="none" stroke="black" d="M547.27,-155.97C469.04,-143.46 266.06,-111.03 180.13,-97.29"/>
<polygon fill="black" stroke="black" points="180.67,-93.83 170.24,-95.71 179.56,-100.75 180.67,-93.83"/>
</g>
<!-- NotReadyForSG?* -->
<g id="node5" class="node">
<title>NotReadyForSG?*</title>
<ellipse fill="gray" stroke="black" cx="345.77" cy="-90" rx="49.8" ry="18"/>
<text text-anchor="middle" x="345.77" y="-87.8" font-family="Times,serif" font-size="9.00">NotReadyForSG?*</text>
</g>
<!-- Sequence&#45;&gt;NotReadyForSG?* -->
<g id="edge4" class="edge">
<title>Sequence&#45;&gt;NotReadyForSG?*</title>
<path fill="none" stroke="black" d="M550.66,-152.56C511.45,-140.78 439.83,-119.26 392.51,-105.04"/>
<polygon fill="black" stroke="black" points="393.39,-101.65 382.8,-102.13 391.37,-108.36 393.39,-101.65"/>
</g>
<!-- Fallback* -->
<g id="node6" class="node">
<title>Fallback*</title>
<polygon fill="cyan" stroke="black" points="477.51,-82.54 477.51,-97.46 458.91,-108 432.62,-108 414.02,-97.46 414.02,-82.54 432.62,-72 458.91,-72 477.51,-82.54"/>
<text text-anchor="middle" x="445.77" y="-87.8" font-family="Times,serif" font-size="9.00">Fallback*</text>
</g>
<!-- Sequence&#45;&gt;Fallback* -->
<g id="edge5" class="edge">
<title>Sequence&#45;&gt;Fallback*</title>
<path fill="none" stroke="black" d="M556.2,-149.13C534.61,-137.76 501.84,-120.51 477.59,-107.75"/>
<polygon fill="black" stroke="black" points="478.92,-104.49 468.44,-102.93 475.66,-110.69 478.92,-104.49"/>
</g>
<!-- Fallback** -->
<g id="node11" class="node">
<title>Fallback**</title>
<polygon fill="cyan" stroke="black" points="613.76,-82.54 613.76,-97.46 593.26,-108 564.27,-108 543.77,-97.46 543.77,-82.54 564.27,-72 593.26,-72 613.76,-82.54"/>
<text text-anchor="middle" x="578.77" y="-87.8" font-family="Times,serif" font-size="9.00">Fallback**</text>
</g>
<!-- Sequence&#45;&gt;Fallback** -->
<g id="edge10" class="edge">
<title>Sequence&#45;&gt;Fallback**</title>
<path fill="none" stroke="black" d="M578.77,-143.7C578.77,-135.98 578.77,-126.71 578.77,-118.11"/>
<polygon fill="black" stroke="black" points="582.27,-118.1 578.77,-108.1 575.27,-118.1 582.27,-118.1"/>
</g>
<!-- NotReadyForSG?**** -->
<g id="node14" class="node">
<title>NotReadyForSG?****</title>
<ellipse fill="gray" stroke="black" cx="688.77" cy="-90" rx="57.32" ry="18"/>
<text text-anchor="middle" x="688.77" y="-87.8" font-family="Times,serif" font-size="9.00">NotReadyForSG?****</text>
</g>
<!-- Sequence&#45;&gt;NotReadyForSG?**** -->
<g id="edge13" class="edge">
<title>Sequence&#45;&gt;NotReadyForSG?****</title>
<path fill="none" stroke="black" d="M599.2,-148C615.11,-137.87 637.51,-123.62 655.93,-111.89"/>
<polygon fill="black" stroke="black" points="658.05,-114.69 664.61,-106.37 654.29,-108.79 658.05,-114.69"/>
</g>
<!-- Fallback*** -->
<g id="node15" class="node">
<title>Fallback***</title>
<polygon fill="cyan" stroke="black" points="845.26,-82.54 845.26,-97.46 823.29,-108 792.24,-108 770.28,-97.46 770.28,-82.54 792.24,-72 823.29,-72 845.26,-82.54"/>
<text text-anchor="middle" x="807.77" y="-87.8" font-family="Times,serif" font-size="9.00">Fallback***</text>
</g>
<!-- Sequence&#45;&gt;Fallback*** -->
<g id="edge14" class="edge">
<title>Sequence&#45;&gt;Fallback***</title>
<path fill="none" stroke="black" d="M607.16,-152.62C641.99,-142.3 702.81,-124.15 754.77,-108 758.87,-106.73 763.14,-105.38 767.4,-104.03"/>
<polygon fill="black" stroke="black" points="768.78,-107.26 777.25,-100.89 766.66,-100.59 768.78,-107.26"/>
</g>
<!-- GetLk!* -->
<g id="node18" class="node">
<title>GetLk!*</title>
<ellipse fill="gray" stroke="black" cx="890.77" cy="-90" rx="27.27" ry="18"/>
<text text-anchor="middle" x="890.77" y="-87.8" font-family="Times,serif" font-size="9.00">GetLk!*</text>
</g>
<!-- Sequence&#45;&gt;GetLk!* -->
<g id="edge17" class="edge">
<title>Sequence&#45;&gt;GetLk!*</title>
<path fill="none" stroke="black" d="M610.31,-157.43C662.07,-151.01 767.89,-135.56 853.77,-108 856.04,-107.27 858.35,-106.44 860.66,-105.54"/>
<polygon fill="black" stroke="black" points="862.13,-108.72 869.98,-101.61 859.41,-102.27 862.13,-108.72"/>
</g>
<!-- NotReadyForSG? -->
<g id="node3" class="node">
<title>NotReadyForSG?</title>
<ellipse fill="gray" stroke="black" cx="46.77" cy="-18" rx="46.53" ry="18"/>
<text text-anchor="middle" x="46.77" y="-15.8" font-family="Times,serif" font-size="9.00">NotReadyForSG?</text>
</g>
<!-- Fallback&#45;&gt;NotReadyForSG? -->
<g id="edge2" class="edge">
<title>Fallback&#45;&gt;NotReadyForSG?</title>
<path fill="none" stroke="black" d="M122.64,-75.5C109.32,-65.58 90.94,-51.89 75.61,-40.48"/>
<polygon fill="black" stroke="black" points="77.56,-37.57 67.45,-34.41 73.38,-43.18 77.56,-37.57"/>
</g>
<!-- MoveTo! -->
<g id="node4" class="node">
<title>MoveTo!</title>
<ellipse fill="gray" stroke="black" cx="140.77" cy="-18" rx="28.74" ry="18"/>
<text text-anchor="middle" x="140.77" y="-15.8" font-family="Times,serif" font-size="9.00">MoveTo!</text>
</g>
<!-- Fallback&#45;&gt;MoveTo! -->
<g id="edge3" class="edge">
<title>Fallback&#45;&gt;MoveTo!</title>
<path fill="none" stroke="black" d="M140.77,-71.7C140.77,-63.98 140.77,-54.71 140.77,-46.11"/>
<polygon fill="black" stroke="black" points="144.27,-46.1 140.77,-36.1 137.27,-46.1 144.27,-46.1"/>
</g>
<!-- GetLk! -->
<g id="node7" class="node">
<title>GetLk!</title>
<ellipse fill="gray" stroke="black" cx="214.77" cy="-18" rx="27" ry="18"/>
<text text-anchor="middle" x="214.77" y="-15.8" font-family="Times,serif" font-size="9.00">GetLk!</text>
</g>
<!-- Fallback*&#45;&gt;GetLk! -->
<g id="edge6" class="edge">
<title>Fallback*&#45;&gt;GetLk!</title>
<path fill="none" stroke="black" d="M421.29,-78.09C415.91,-75.9 410.19,-73.75 404.77,-72 337.86,-50.47 317.14,-59.14 250.77,-36 248.86,-35.33 246.91,-34.6 244.97,-33.82"/>
<polygon fill="black" stroke="black" points="245.96,-30.43 235.39,-29.65 243.17,-36.85 245.96,-30.43"/>
</g>
<!-- ReachGoal? -->
<g id="node8" class="node">
<title>ReachGoal?</title>
<ellipse fill="gray" stroke="black" cx="293.77" cy="-18" rx="34.13" ry="18"/>
<text text-anchor="middle" x="293.77" y="-15.8" font-family="Times,serif" font-size="9.00">ReachGoal?</text>
</g>
<!-- Fallback*&#45;&gt;ReachGoal? -->
<g id="edge7" class="edge">
<title>Fallback*&#45;&gt;ReachGoal?</title>
<path fill="none" stroke="black" d="M421.68,-77.91C396.34,-66.24 356.23,-47.77 327.69,-34.62"/>
<polygon fill="black" stroke="black" points="329.04,-31.39 318.49,-30.39 326.11,-37.75 329.04,-31.39"/>
</g>
<!-- NotReadyForSG?** -->
<g id="node9" class="node">
<title>NotReadyForSG?**</title>
<ellipse fill="gray" stroke="black" cx="397.77" cy="-18" rx="51.92" ry="18"/>
<text text-anchor="middle" x="397.77" y="-15.8" font-family="Times,serif" font-size="9.00">NotReadyForSG?**</text>
</g>
<!-- Fallback*&#45;&gt;NotReadyForSG?** -->
<g id="edge8" class="edge">
<title>Fallback*&#45;&gt;NotReadyForSG?**</title>
<path fill="none" stroke="black" d="M433.9,-71.7C428.18,-63.35 421.21,-53.18 414.92,-44.02"/>
<polygon fill="black" stroke="black" points="417.71,-41.89 409.16,-35.62 411.93,-45.85 417.71,-41.89"/>
</g>
<!-- MoveTo!* -->
<g id="node10" class="node">
<title>MoveTo!*</title>
<ellipse fill="gray" stroke="black" cx="499.77" cy="-18" rx="31.51" ry="18"/>
<text text-anchor="middle" x="499.77" y="-15.8" font-family="Times,serif" font-size="9.00">MoveTo!*</text>
</g>
<!-- Fallback*&#45;&gt;MoveTo!* -->
<g id="edge9" class="edge">
<title>Fallback*&#45;&gt;MoveTo!*</title>
<path fill="none" stroke="black" d="M459.11,-71.7C465.88,-62.93 474.19,-52.15 481.54,-42.63"/>
<polygon fill="black" stroke="black" points="484.34,-44.73 487.68,-34.67 478.8,-40.45 484.34,-44.73"/>
</g>
<!-- LkClose? -->
<g id="node12" class="node">
<title>LkClose?</title>
<ellipse fill="gray" stroke="black" cx="578.77" cy="-18" rx="28.74" ry="18"/>
<text text-anchor="middle" x="578.77" y="-15.8" font-family="Times,serif" font-size="9.00">LkClose?</text>
</g>
<!-- Fallback**&#45;&gt;LkClose? -->
<g id="edge11" class="edge">
<title>Fallback**&#45;&gt;LkClose?</title>
<path fill="none" stroke="black" d="M578.77,-71.7C578.77,-63.98 578.77,-54.71 578.77,-46.11"/>
<polygon fill="black" stroke="black" points="582.27,-46.1 578.77,-36.1 575.27,-46.1 582.27,-46.1"/>
</g>
<!-- NotReadyForSG?*** -->
<g id="node13" class="node">
<title>NotReadyForSG?***</title>
<ellipse fill="gray" stroke="black" cx="680.77" cy="-18" rx="54.7" ry="18"/>
<text text-anchor="middle" x="680.77" y="-15.8" font-family="Times,serif" font-size="9.00">NotReadyForSG?***</text>
</g>
<!-- Fallback**&#45;&gt;NotReadyForSG?*** -->
<g id="edge12" class="edge">
<title>Fallback**&#45;&gt;NotReadyForSG?***</title>
<path fill="none" stroke="black" d="M599.41,-74.83C613.75,-64.99 633.13,-51.69 649.37,-40.54"/>
<polygon fill="black" stroke="black" points="651.76,-43.15 658.03,-34.61 647.8,-37.38 651.76,-43.15"/>
</g>
<!-- NotReadyForSG?***** -->
<g id="node16" class="node">
<title>NotReadyForSG?*****</title>
<ellipse fill="gray" stroke="black" cx="813.77" cy="-18" rx="60.09" ry="18"/>
<text text-anchor="middle" x="813.77" y="-15.8" font-family="Times,serif" font-size="9.00">NotReadyForSG?*****</text>
</g>
<!-- Fallback***&#45;&gt;NotReadyForSG?***** -->
<g id="edge15" class="edge">
<title>Fallback***&#45;&gt;NotReadyForSG?*****</title>
<path fill="none" stroke="black" d="M809.25,-71.7C809.91,-63.98 810.7,-54.71 811.44,-46.11"/>
<polygon fill="black" stroke="black" points="814.93,-46.37 812.3,-36.1 807.96,-45.77 814.93,-46.37"/>
</g>
<!-- MoveTo!** -->
<g id="node17" class="node">
<title>MoveTo!**</title>
<ellipse fill="gray" stroke="black" cx="925.77" cy="-18" rx="34.13" ry="18"/>
<text text-anchor="middle" x="925.77" y="-15.8" font-family="Times,serif" font-size="9.00">MoveTo!**</text>
</g>
<!-- Fallback***&#45;&gt;MoveTo!** -->
<g id="edge16" class="edge">
<title>Fallback***&#45;&gt;MoveTo!**</title>
<path fill="none" stroke="black" d="M830.8,-75.34C849.18,-64.43 875.09,-49.06 895.2,-37.13"/>
<polygon fill="black" stroke="black" points="897.17,-40.03 903.99,-31.92 893.6,-34.01 897.17,-40.03"/>
</g>
</g>
</svg>
