<?xml version="1.0" encoding="UTF-8" standalone="no"?>
<!DOCTYPE svg PUBLIC "-//W3C//DTD SVG 1.1//EN"
 "http://www.w3.org/Graphics/SVG/1.1/DTD/svg11.dtd">
<!-- Generated by graphviz version 2.43.0 (0)
 -->
<!-- Title: pastafarianism Pages: 1 -->
<svg width="768pt" height="260pt"
 viewBox="0.00 0.00 767.52 260.00" xmlns="http://www.w3.org/2000/svg" xmlns:xlink="http://www.w3.org/1999/xlink">
<g id="graph0" class="graph" transform="scale(1 1) rotate(0) translate(4 256)">
<title>pastafarianism</title>
<polygon fill="white" stroke="transparent" points="-4,4 -4,-256 763.52,-256 763.52,4 -4,4"/>
<!-- Sequence -->
<g id="node1" class="node">
<title>Sequence</title>
<polygon fill="cyan" stroke="black" points="436.26,-226.54 436.26,-241.46 417.81,-252 391.72,-252 373.27,-241.46 373.27,-226.54 391.72,-216 417.81,-216 436.26,-226.54"/>
<text text-anchor="middle" x="404.77" y="-231.8" font-family="Times,serif" font-size="9.00">Sequence</text>
</g>
<!-- Fallback -->
<g id="node2" class="node">
<title>Fallback</title>
<polygon fill="cyan" stroke="black" points="204.01,-154.54 204.01,-169.46 186.88,-180 162.65,-180 145.52,-169.46 145.52,-154.54 162.65,-144 186.88,-144 204.01,-154.54"/>
<text text-anchor="middle" x="174.77" y="-159.8" font-family="Times,serif" font-size="9.00">Fallback</text>
</g>
<!-- Sequence&#45;&gt;Fallback -->
<g id="edge1" class="edge">
<title>Sequence&#45;&gt;Fallback</title>
<path fill="none" stroke="black" d="M376.56,-224.42C334.97,-211.76 257.15,-188.07 211.25,-174.1"/>
<polygon fill="black" stroke="black" points="212,-170.67 201.42,-171.11 209.96,-177.37 212,-170.67"/>
</g>
<!-- NotReadyForSG?** -->
<g id="node8" class="node">
<title>NotReadyForSG?**</title>
<ellipse fill="gray" stroke="black" cx="302.77" cy="-162" rx="51.92" ry="18"/>
<text text-anchor="middle" x="302.77" y="-159.8" font-family="Times,serif" font-size="9.00">NotReadyForSG?**</text>
</g>
<!-- Sequence&#45;&gt;NotReadyForSG?** -->
<g id="edge7" class="edge">
<title>Sequence&#45;&gt;NotReadyForSG?**</title>
<path fill="none" stroke="black" d="M385.1,-219.5C370.51,-209.49 350.33,-195.64 333.6,-184.16"/>
<polygon fill="black" stroke="black" points="335.44,-181.18 325.21,-178.41 331.48,-186.95 335.44,-181.18"/>
</g>
<!-- Fallback* -->
<g id="node9" class="node">
<title>Fallback*</title>
<polygon fill="cyan" stroke="black" points="436.51,-154.54 436.51,-169.46 417.91,-180 391.62,-180 373.02,-169.46 373.02,-154.54 391.62,-144 417.91,-144 436.51,-154.54"/>
<text text-anchor="middle" x="404.77" y="-159.8" font-family="Times,serif" font-size="9.00">Fallback*</text>
</g>
<!-- Sequence&#45;&gt;Fallback* -->
<g id="edge8" class="edge">
<title>Sequence&#45;&gt;Fallback*</title>
<path fill="none" stroke="black" d="M404.77,-215.7C404.77,-207.98 404.77,-198.71 404.77,-190.11"/>
<polygon fill="black" stroke="black" points="408.27,-190.1 404.77,-180.1 401.27,-190.1 408.27,-190.1"/>
</g>
<!-- Fallback** -->
<g id="node12" class="node">
<title>Fallback**</title>
<polygon fill="cyan" stroke="black" points="546.76,-154.54 546.76,-169.46 526.26,-180 497.27,-180 476.77,-169.46 476.77,-154.54 497.27,-144 526.26,-144 546.76,-154.54"/>
<text text-anchor="middle" x="511.77" y="-159.8" font-family="Times,serif" font-size="9.00">Fallback**</text>
</g>
<!-- Sequence&#45;&gt;Fallback** -->
<g id="edge11" class="edge">
<title>Sequence&#45;&gt;Fallback**</title>
<path fill="none" stroke="black" d="M424.89,-219.83C441.02,-209.28 463.88,-194.32 482.11,-182.4"/>
<polygon fill="black" stroke="black" points="484.18,-185.23 490.63,-176.83 480.35,-179.37 484.18,-185.23"/>
</g>
<!-- GetLk! -->
<g id="node16" class="node">
<title>GetLk!</title>
<ellipse fill="gray" stroke="black" cx="591.77" cy="-162" rx="27" ry="18"/>
<text text-anchor="middle" x="591.77" y="-159.8" font-family="Times,serif" font-size="9.00">GetLk!</text>
</g>
<!-- Sequence&#45;&gt;GetLk! -->
<g id="edge15" class="edge">
<title>Sequence&#45;&gt;GetLk!</title>
<path fill="none" stroke="black" d="M432.36,-224.27C462.89,-214.39 513.35,-197.4 555.77,-180 557.59,-179.25 559.45,-178.46 561.32,-177.64"/>
<polygon fill="black" stroke="black" points="562.94,-180.75 570.61,-173.44 560.05,-174.38 562.94,-180.75"/>
</g>
<!-- NotReadyForSG? -->
<g id="node3" class="node">
<title>NotReadyForSG?</title>
<ellipse fill="gray" stroke="black" cx="46.77" cy="-90" rx="46.53" ry="18"/>
<text text-anchor="middle" x="46.77" y="-87.8" font-family="Times,serif" font-size="9.00">NotReadyForSG?</text>
</g>
<!-- Fallback&#45;&gt;NotReadyForSG? -->
<g id="edge2" class="edge">
<title>Fallback&#45;&gt;NotReadyForSG?</title>
<path fill="none" stroke="black" d="M153.63,-149.44C134.07,-138.75 104.63,-122.64 81.6,-110.05"/>
<polygon fill="black" stroke="black" points="83.26,-106.97 72.8,-105.24 79.9,-113.11 83.26,-106.97"/>
</g>
<!-- Sequence* -->
<g id="node4" class="node">
<title>Sequence*</title>
<polygon fill="cyan" stroke="black" points="180.01,-82.54 180.01,-97.46 159.95,-108 131.58,-108 111.52,-97.46 111.52,-82.54 131.58,-72 159.95,-72 180.01,-82.54"/>
<text text-anchor="middle" x="145.77" y="-87.8" font-family="Times,serif" font-size="9.00">Sequence*</text>
</g>
<!-- Fallback&#45;&gt;Sequence* -->
<g id="edge3" class="edge">
<title>Fallback&#45;&gt;Sequence*</title>
<path fill="none" stroke="black" d="M167.6,-143.7C164.33,-135.81 160.39,-126.3 156.76,-117.55"/>
<polygon fill="black" stroke="black" points="159.91,-116 152.85,-108.1 153.45,-118.68 159.91,-116"/>
</g>
<!-- MoveTo! -->
<g id="node7" class="node">
<title>MoveTo!</title>
<ellipse fill="gray" stroke="black" cx="226.77" cy="-90" rx="28.74" ry="18"/>
<text text-anchor="middle" x="226.77" y="-87.8" font-family="Times,serif" font-size="9.00">MoveTo!</text>
</g>
<!-- Fallback&#45;&gt;MoveTo! -->
<g id="edge6" class="edge">
<title>Fallback&#45;&gt;MoveTo!</title>
<path fill="none" stroke="black" d="M187.35,-144.05C193.8,-135.38 201.75,-124.67 208.83,-115.15"/>
<polygon fill="black" stroke="black" points="211.85,-116.94 215.01,-106.83 206.23,-112.77 211.85,-116.94"/>
</g>
<!-- NotReadyForSG?* -->
<g id="node5" class="node">
<title>NotReadyForSG?*</title>
<ellipse fill="gray" stroke="black" cx="90.77" cy="-18" rx="49.8" ry="18"/>
<text text-anchor="middle" x="90.77" y="-15.8" font-family="Times,serif" font-size="9.00">NotReadyForSG?*</text>
</g>
<!-- Sequence*&#45;&gt;NotReadyForSG?* -->
<g id="edge4" class="edge">
<title>Sequence*&#45;&gt;NotReadyForSG?*</title>
<path fill="none" stroke="black" d="M132.17,-71.7C125.55,-63.27 117.46,-52.97 110.2,-43.73"/>
<polygon fill="black" stroke="black" points="112.76,-41.32 103.83,-35.62 107.25,-45.65 112.76,-41.32"/>
</g>
<!-- CompLkGraph! -->
<g id="node6" class="node">
<title>CompLkGraph!</title>
<ellipse fill="gray" stroke="black" cx="200.77" cy="-18" rx="42.95" ry="18"/>
<text text-anchor="middle" x="200.77" y="-15.8" font-family="Times,serif" font-size="9.00">CompLkGraph!</text>
</g>
<!-- Sequence*&#45;&gt;CompLkGraph! -->
<g id="edge5" class="edge">
<title>Sequence*&#45;&gt;CompLkGraph!</title>
<path fill="none" stroke="black" d="M159.36,-71.7C165.99,-63.27 174.07,-52.97 181.33,-43.73"/>
<polygon fill="black" stroke="black" points="184.28,-45.65 187.7,-35.62 178.77,-41.32 184.28,-45.65"/>
</g>
<!-- LkClose? -->
<g id="node10" class="node">
<title>LkClose?</title>
<ellipse fill="gray" stroke="black" cx="302.77" cy="-90" rx="28.74" ry="18"/>
<text text-anchor="middle" x="302.77" y="-87.8" font-family="Times,serif" font-size="9.00">LkClose?</text>
</g>
<!-- Fallback*&#45;&gt;LkClose? -->
<g id="edge9" class="edge">
<title>Fallback*&#45;&gt;LkClose?</title>
<path fill="none" stroke="black" d="M385.1,-147.5C369.52,-136.81 347.57,-121.75 330.26,-109.87"/>
<polygon fill="black" stroke="black" points="331.91,-106.75 321.68,-103.98 327.95,-112.53 331.91,-106.75"/>
</g>
<!-- NotReadyForSG?*** -->
<g id="node11" class="node">
<title>NotReadyForSG?***</title>
<ellipse fill="gray" stroke="black" cx="404.77" cy="-90" rx="54.7" ry="18"/>
<text text-anchor="middle" x="404.77" y="-87.8" font-family="Times,serif" font-size="9.00">NotReadyForSG?***</text>
</g>
<!-- Fallback*&#45;&gt;NotReadyForSG?*** -->
<g id="edge10" class="edge">
<title>Fallback*&#45;&gt;NotReadyForSG?***</title>
<path fill="none" stroke="black" d="M404.77,-143.7C404.77,-135.98 404.77,-126.71 404.77,-118.11"/>
<polygon fill="black" stroke="black" points="408.27,-118.1 404.77,-108.1 401.27,-118.1 408.27,-118.1"/>
</g>
<!-- ReachGoal? -->
<g id="node13" class="node">
<title>ReachGoal?</title>
<ellipse fill="gray" stroke="black" cx="511.77" cy="-90" rx="34.13" ry="18"/>
<text text-anchor="middle" x="511.77" y="-87.8" font-family="Times,serif" font-size="9.00">ReachGoal?</text>
</g>
<!-- Fallback**&#45;&gt;ReachGoal? -->
<g id="edge12" class="edge">
<title>Fallback**&#45;&gt;ReachGoal?</title>
<path fill="none" stroke="black" d="M511.77,-143.7C511.77,-135.98 511.77,-126.71 511.77,-118.11"/>
<polygon fill="black" stroke="black" points="515.27,-118.1 511.77,-108.1 508.27,-118.1 515.27,-118.1"/>
</g>
<!-- NotReadyForSG?**** -->
<g id="node14" class="node">
<title>NotReadyForSG?****</title>
<ellipse fill="gray" stroke="black" cx="620.77" cy="-90" rx="57.32" ry="18"/>
<text text-anchor="middle" x="620.77" y="-87.8" font-family="Times,serif" font-size="9.00">NotReadyForSG?****</text>
</g>
<!-- Fallback**&#45;&gt;NotReadyForSG?**** -->
<g id="edge13" class="edge">
<title>Fallback**&#45;&gt;NotReadyForSG?****</title>
<path fill="none" stroke="black" d="M533.04,-147.34C548.55,-137.38 569.87,-123.69 587.61,-112.3"/>
<polygon fill="black" stroke="black" points="589.98,-114.93 596.5,-106.58 586.2,-109.04 589.98,-114.93"/>
</g>
<!-- MoveTo!* -->
<g id="node15" class="node">
<title>MoveTo!*</title>
<ellipse fill="gray" stroke="black" cx="727.77" cy="-90" rx="31.51" ry="18"/>
<text text-anchor="middle" x="727.77" y="-87.8" font-family="Times,serif" font-size="9.00">MoveTo!*</text>
</g>
<!-- Fallback**&#45;&gt;MoveTo!* -->
<g id="edge14" class="edge">
<title>Fallback**&#45;&gt;MoveTo!*</title>
<path fill="none" stroke="black" d="M538.6,-150.14C544.24,-148 550.17,-145.85 555.77,-144 613.11,-125.1 629.65,-127.6 686.77,-108 689.04,-107.22 691.37,-106.38 693.71,-105.5"/>
<polygon fill="black" stroke="black" points="695.21,-108.67 703.24,-101.75 692.65,-102.15 695.21,-108.67"/>
</g>
</g>
</svg>
