<?xml version="1.0" encoding="UTF-8" standalone="no"?>
<!DOCTYPE svg PUBLIC "-//W3C//DTD SVG 1.1//EN"
 "http://www.w3.org/Graphics/SVG/1.1/DTD/svg11.dtd">
<!-- Generated by graphviz version 2.43.0 (0)
 -->
<!-- Title: pastafarianism Pages: 1 -->
<svg width="284pt" height="116pt"
 viewBox="0.00 0.00 284.40 116.00" xmlns="http://www.w3.org/2000/svg" xmlns:xlink="http://www.w3.org/1999/xlink">
<g id="graph0" class="graph" transform="scale(1 1) rotate(0) translate(4 112)">
<title>pastafarianism</title>
<polygon fill="white" stroke="transparent" points="-4,4 -4,-112 280.4,-112 280.4,4 -4,4"/>
<!-- Sequence -->
<g id="node1" class="node">
<title>Sequence</title>
<polygon fill="cyan" stroke="black" points="130.49,-82.54 130.49,-97.46 112.05,-108 85.95,-108 67.51,-97.46 67.51,-82.54 85.95,-72 112.05,-72 130.49,-82.54"/>
<text text-anchor="middle" x="99" y="-87.8" font-family="Times,serif" font-size="9.00">Sequence</text>
</g>
<!-- pick 3! -->
<g id="node2" class="node">
<title>pick 3!</title>
<ellipse fill="gray" stroke="black" cx="27" cy="-18" rx="27" ry="18"/>
<text text-anchor="middle" x="27" y="-15.8" font-family="Times,serif" font-size="9.00">pick 3!</text>
</g>
<!-- Sequence&#45;&gt;pick 3! -->
<g id="edge1" class="edge">
<title>Sequence&#45;&gt;pick 3!</title>
<path fill="none" stroke="black" d="M83.02,-73.46C73.06,-63.78 60.09,-51.17 49.15,-40.53"/>
<polygon fill="black" stroke="black" points="51.56,-38 41.95,-33.54 46.68,-43.02 51.56,-38"/>
</g>
<!-- pick 3!* -->
<g id="node3" class="node">
<title>pick 3!*</title>
<ellipse fill="gray" stroke="black" cx="99" cy="-18" rx="27" ry="18"/>
<text text-anchor="middle" x="99" y="-15.8" font-family="Times,serif" font-size="9.00">pick 3!*</text>
</g>
<!-- Sequence&#45;&gt;pick 3!* -->
<g id="edge2" class="edge">
<title>Sequence&#45;&gt;pick 3!*</title>
<path fill="none" stroke="black" d="M99,-71.7C99,-63.98 99,-54.71 99,-46.11"/>
<polygon fill="black" stroke="black" points="102.5,-46.1 99,-36.1 95.5,-46.1 102.5,-46.1"/>
</g>
<!-- place at (0.016, 0.032, 0.0)! -->
<g id="node4" class="node">
<title>place at (0.016, 0.032, 0.0)!</title>
<ellipse fill="gray" stroke="black" cx="210" cy="-18" rx="66.29" ry="18"/>
<text text-anchor="middle" x="210" y="-15.8" font-family="Times,serif" font-size="9.00">place at (0.016, 0.032, 0.0)!</text>
</g>
<!-- Sequence&#45;&gt;place at (0.016, 0.032, 0.0)! -->
<g id="edge3" class="edge">
<title>Sequence&#45;&gt;place at (0.016, 0.032, 0.0)!</title>
<path fill="none" stroke="black" d="M119.36,-76.16C135.35,-66.08 157.96,-51.82 176.59,-40.07"/>
<polygon fill="black" stroke="black" points="178.52,-42.99 185.11,-34.7 174.78,-37.07 178.52,-42.99"/>
</g>
</g>
</svg>
