<?xml version="1.0" encoding="UTF-8" standalone="no"?>
<!DOCTYPE svg PUBLIC "-//W3C//DTD SVG 1.1//EN"
 "http://www.w3.org/Graphics/SVG/1.1/DTD/svg11.dtd">
<!-- Generated by graphviz version 2.43.0 (0)
 -->
<!-- Title: pastafarianism Pages: 1 -->
<svg width="635pt" height="260pt"
 viewBox="0.00 0.00 635.06 260.00" xmlns="http://www.w3.org/2000/svg" xmlns:xlink="http://www.w3.org/1999/xlink">
<g id="graph0" class="graph" transform="scale(1 1) rotate(0) translate(4 256)">
<title>pastafarianism</title>
<polygon fill="white" stroke="transparent" points="-4,4 -4,-256 631.06,-256 631.06,4 -4,4"/>
<!-- Fallback -->
<g id="node1" class="node">
<title>Fallback</title>
<polygon fill="cyan" stroke="black" points="498.24,-226.54 498.24,-241.46 481.11,-252 456.89,-252 439.76,-241.46 439.76,-226.54 456.89,-216 481.11,-216 498.24,-226.54"/>
<text text-anchor="middle" x="469" y="-231.8" font-family="Times,serif" font-size="9.00">Fallback</text>
</g>
<!-- Sequence -->
<g id="node2" class="node">
<title>Sequence</title>
<polygon fill="cyan" stroke="black" points="379.49,-154.54 379.49,-169.46 361.05,-180 334.95,-180 316.51,-169.46 316.51,-154.54 334.95,-144 361.05,-144 379.49,-154.54"/>
<text text-anchor="middle" x="348" y="-159.8" font-family="Times,serif" font-size="9.00">Sequence</text>
</g>
<!-- Fallback&#45;&gt;Sequence -->
<g id="edge1" class="edge">
<title>Fallback&#45;&gt;Sequence</title>
<path fill="none" stroke="black" d="M448.47,-221.13C429.24,-210 400.25,-193.23 378.35,-180.56"/>
<polygon fill="black" stroke="black" points="379.85,-177.38 369.44,-175.4 376.35,-183.44 379.85,-177.38"/>
</g>
<!-- place at (0.016, 0.032, 0.0)!** -->
<g id="node11" class="node">
<title>place at (0.016, 0.032, 0.0)!**</title>
<ellipse fill="gray" stroke="black" cx="469" cy="-162" rx="71.68" ry="18"/>
<text text-anchor="middle" x="469" y="-159.8" font-family="Times,serif" font-size="9.00">place at (0.016, 0.032, 0.0)!**</text>
</g>
<!-- Fallback&#45;&gt;place at (0.016, 0.032, 0.0)!** -->
<g id="edge10" class="edge">
<title>Fallback&#45;&gt;place at (0.016, 0.032, 0.0)!**</title>
<path fill="none" stroke="black" d="M469,-215.7C469,-207.98 469,-198.71 469,-190.11"/>
<polygon fill="black" stroke="black" points="472.5,-190.1 469,-180.1 465.5,-190.1 472.5,-190.1"/>
</g>
<!-- pick 3!**** -->
<g id="node12" class="node">
<title>pick 3!****</title>
<ellipse fill="gray" stroke="black" cx="593" cy="-162" rx="34.13" ry="18"/>
<text text-anchor="middle" x="593" y="-159.8" font-family="Times,serif" font-size="9.00">pick 3!****</text>
</g>
<!-- Fallback&#45;&gt;pick 3!**** -->
<g id="edge11" class="edge">
<title>Fallback&#45;&gt;pick 3!****</title>
<path fill="none" stroke="black" d="M489.75,-221.28C509.39,-210.2 539.12,-193.42 561.64,-180.7"/>
<polygon fill="black" stroke="black" points="563.51,-183.67 570.5,-175.7 560.07,-177.57 563.51,-183.67"/>
</g>
<!-- pick 3! -->
<g id="node3" class="node">
<title>pick 3!</title>
<ellipse fill="gray" stroke="black" cx="27" cy="-90" rx="27" ry="18"/>
<text text-anchor="middle" x="27" y="-87.8" font-family="Times,serif" font-size="9.00">pick 3!</text>
</g>
<!-- Sequence&#45;&gt;pick 3! -->
<g id="edge2" class="edge">
<title>Sequence&#45;&gt;pick 3!</title>
<path fill="none" stroke="black" d="M316.57,-157.83C263.35,-151.88 152.55,-136.94 63,-108 61.08,-107.38 59.12,-106.68 57.17,-105.92"/>
<polygon fill="black" stroke="black" points="58.14,-102.53 47.57,-101.82 55.39,-108.97 58.14,-102.53"/>
</g>
<!-- place at (0.016, 0.032, 0.0)! -->
<g id="node4" class="node">
<title>place at (0.016, 0.032, 0.0)!</title>
<ellipse fill="gray" stroke="black" cx="138" cy="-90" rx="66.29" ry="18"/>
<text text-anchor="middle" x="138" y="-87.8" font-family="Times,serif" font-size="9.00">place at (0.016, 0.032, 0.0)!</text>
</g>
<!-- Sequence&#45;&gt;place at (0.016, 0.032, 0.0)! -->
<g id="edge3" class="edge">
<title>Sequence&#45;&gt;place at (0.016, 0.032, 0.0)!</title>
<path fill="none" stroke="black" d="M320.55,-151.85C286.99,-140.66 229.57,-121.52 188.07,-107.69"/>
<polygon fill="black" stroke="black" points="189.01,-104.32 178.42,-104.47 186.8,-110.96 189.01,-104.32"/>
</g>
<!-- place at (0.016, 0.032, 0.0)!* -->
<g id="node5" class="node">
<title>place at (0.016, 0.032, 0.0)!*</title>
<ellipse fill="gray" stroke="black" cx="291" cy="-90" rx="68.91" ry="18"/>
<text text-anchor="middle" x="291" y="-87.8" font-family="Times,serif" font-size="9.00">place at (0.016, 0.032, 0.0)!*</text>
</g>
<!-- Sequence&#45;&gt;place at (0.016, 0.032, 0.0)!* -->
<g id="edge4" class="edge">
<title>Sequence&#45;&gt;place at (0.016, 0.032, 0.0)!*</title>
<path fill="none" stroke="black" d="M334.2,-144.05C327.27,-135.54 318.74,-125.07 311.1,-115.68"/>
<polygon fill="black" stroke="black" points="313.7,-113.33 304.67,-107.79 308.27,-117.75 313.7,-113.33"/>
</g>
<!-- pick 3!* -->
<g id="node6" class="node">
<title>pick 3!*</title>
<ellipse fill="gray" stroke="black" cx="405" cy="-90" rx="27" ry="18"/>
<text text-anchor="middle" x="405" y="-87.8" font-family="Times,serif" font-size="9.00">pick 3!*</text>
</g>
<!-- Sequence&#45;&gt;pick 3!* -->
<g id="edge5" class="edge">
<title>Sequence&#45;&gt;pick 3!*</title>
<path fill="none" stroke="black" d="M361.8,-144.05C369.11,-135.08 378.2,-123.92 386.15,-114.15"/>
<polygon fill="black" stroke="black" points="388.9,-116.32 392.5,-106.36 383.47,-111.9 388.9,-116.32"/>
</g>
<!-- Fallback* -->
<g id="node7" class="node">
<title>Fallback*</title>
<polygon fill="cyan" stroke="black" points="513.74,-82.54 513.74,-97.46 495.15,-108 468.85,-108 450.26,-97.46 450.26,-82.54 468.85,-72 495.15,-72 513.74,-82.54"/>
<text text-anchor="middle" x="482" y="-87.8" font-family="Times,serif" font-size="9.00">Fallback*</text>
</g>
<!-- Sequence&#45;&gt;Fallback* -->
<g id="edge6" class="edge">
<title>Sequence&#45;&gt;Fallback*</title>
<path fill="none" stroke="black" d="M370.43,-149.28C392.36,-137.83 425.96,-120.28 450.56,-107.43"/>
<polygon fill="black" stroke="black" points="452.26,-110.49 459.5,-102.75 449.01,-104.28 452.26,-110.49"/>
</g>
<!-- pick 3!*** -->
<g id="node10" class="node">
<title>pick 3!***</title>
<ellipse fill="gray" stroke="black" cx="564" cy="-90" rx="31.51" ry="18"/>
<text text-anchor="middle" x="564" y="-87.8" font-family="Times,serif" font-size="9.00">pick 3!***</text>
</g>
<!-- Sequence&#45;&gt;pick 3!*** -->
<g id="edge9" class="edge">
<title>Sequence&#45;&gt;pick 3!***</title>
<path fill="none" stroke="black" d="M371.9,-150.19C377.15,-148 382.72,-145.82 388,-144 446.72,-123.81 464.19,-127.94 523,-108 525.28,-107.23 527.61,-106.39 529.95,-105.52"/>
<polygon fill="black" stroke="black" points="531.45,-108.69 539.49,-101.78 528.9,-102.17 531.45,-108.69"/>
</g>
<!-- pick 2! -->
<g id="node8" class="node">
<title>pick 2!</title>
<ellipse fill="gray" stroke="black" cx="445" cy="-18" rx="27" ry="18"/>
<text text-anchor="middle" x="445" y="-15.8" font-family="Times,serif" font-size="9.00">pick 2!</text>
</g>
<!-- Fallback*&#45;&gt;pick 2! -->
<g id="edge7" class="edge">
<title>Fallback*&#45;&gt;pick 2!</title>
<path fill="none" stroke="black" d="M472.85,-71.7C468.47,-63.4 463.14,-53.31 458.31,-44.19"/>
<polygon fill="black" stroke="black" points="461.3,-42.35 453.53,-35.14 455.11,-45.62 461.3,-42.35"/>
</g>
<!-- pick 3!** -->
<g id="node9" class="node">
<title>pick 3!**</title>
<ellipse fill="gray" stroke="black" cx="519" cy="-18" rx="28.74" ry="18"/>
<text text-anchor="middle" x="519" y="-15.8" font-family="Times,serif" font-size="9.00">pick 3!**</text>
</g>
<!-- Fallback*&#45;&gt;pick 3!** -->
<g id="edge8" class="edge">
<title>Fallback*&#45;&gt;pick 3!**</title>
<path fill="none" stroke="black" d="M491.15,-71.7C495.47,-63.52 500.71,-53.6 505.48,-44.58"/>
<polygon fill="black" stroke="black" points="508.64,-46.1 510.21,-35.62 502.45,-42.83 508.64,-46.1"/>
</g>
</g>
</svg>
