<?xml version="1.0" encoding="UTF-8" standalone="no"?>
<!DOCTYPE svg PUBLIC "-//W3C//DTD SVG 1.1//EN"
 "http://www.w3.org/Graphics/SVG/1.1/DTD/svg11.dtd">
<!-- Generated by graphviz version 2.43.0 (0)
 -->
<!-- Title: pastafarianism Pages: 1 -->
<svg width="421pt" height="188pt"
 viewBox="0.00 0.00 421.06 188.00" xmlns="http://www.w3.org/2000/svg" xmlns:xlink="http://www.w3.org/1999/xlink">
<g id="graph0" class="graph" transform="scale(1 1) rotate(0) translate(4 184)">
<title>pastafarianism</title>
<polygon fill="white" stroke="transparent" points="-4,4 -4,-184 417.06,-184 417.06,4 -4,4"/>
<!-- Fallback -->
<g id="node1" class="node">
<title>Fallback</title>
<polygon fill="cyan" stroke="black" points="228.24,-154.54 228.24,-169.46 211.11,-180 186.89,-180 169.76,-169.46 169.76,-154.54 186.89,-144 211.11,-144 228.24,-154.54"/>
<text text-anchor="middle" x="199" y="-159.8" font-family="Times,serif" font-size="9.00">Fallback</text>
</g>
<!-- pick 3! -->
<g id="node2" class="node">
<title>pick 3!</title>
<ellipse fill="gray" stroke="black" cx="64" cy="-90" rx="27" ry="18"/>
<text text-anchor="middle" x="64" y="-87.8" font-family="Times,serif" font-size="9.00">pick 3!</text>
</g>
<!-- Fallback&#45;&gt;pick 3! -->
<g id="edge1" class="edge">
<title>Fallback&#45;&gt;pick 3!</title>
<path fill="none" stroke="black" d="M177.31,-149.75C154.71,-138.03 119.13,-119.58 93.87,-106.49"/>
<polygon fill="black" stroke="black" points="95.24,-103.26 84.75,-101.76 92.02,-109.47 95.24,-103.26"/>
</g>
<!-- Sequence -->
<g id="node3" class="node">
<title>Sequence</title>
<polygon fill="cyan" stroke="black" points="171.49,-82.54 171.49,-97.46 153.05,-108 126.95,-108 108.51,-97.46 108.51,-82.54 126.95,-72 153.05,-72 171.49,-82.54"/>
<text text-anchor="middle" x="140" y="-87.8" font-family="Times,serif" font-size="9.00">Sequence</text>
</g>
<!-- Fallback&#45;&gt;Sequence -->
<g id="edge2" class="edge">
<title>Fallback&#45;&gt;Sequence</title>
<path fill="none" stroke="black" d="M185.32,-144.76C177.98,-136.06 168.78,-125.15 160.6,-115.43"/>
<polygon fill="black" stroke="black" points="163.14,-113.02 154.02,-107.63 157.79,-117.54 163.14,-113.02"/>
</g>
<!-- place at (0.016, 0.032, 0.0)!* -->
<g id="node8" class="node">
<title>place at (0.016, 0.032, 0.0)!*</title>
<ellipse fill="gray" stroke="black" cx="258" cy="-90" rx="68.91" ry="18"/>
<text text-anchor="middle" x="258" y="-87.8" font-family="Times,serif" font-size="9.00">place at (0.016, 0.032, 0.0)!*</text>
</g>
<!-- Fallback&#45;&gt;place at (0.016, 0.032, 0.0)!* -->
<g id="edge7" class="edge">
<title>Fallback&#45;&gt;place at (0.016, 0.032, 0.0)!*</title>
<path fill="none" stroke="black" d="M212.68,-144.76C220.02,-136.06 229.22,-125.15 237.4,-115.43"/>
<polygon fill="black" stroke="black" points="240.21,-117.54 243.98,-107.63 234.86,-113.02 240.21,-117.54"/>
</g>
<!-- pick 3!**** -->
<g id="node9" class="node">
<title>pick 3!****</title>
<ellipse fill="gray" stroke="black" cx="379" cy="-90" rx="34.13" ry="18"/>
<text text-anchor="middle" x="379" y="-87.8" font-family="Times,serif" font-size="9.00">pick 3!****</text>
</g>
<!-- Fallback&#45;&gt;pick 3!**** -->
<g id="edge8" class="edge">
<title>Fallback&#45;&gt;pick 3!****</title>
<path fill="none" stroke="black" d="M223.77,-151.48C251.23,-140.91 296.81,-123.33 336,-108 338.35,-107.08 340.78,-106.13 343.23,-105.17"/>
<polygon fill="black" stroke="black" points="344.61,-108.38 352.63,-101.46 342.05,-101.87 344.61,-108.38"/>
</g>
<!-- pick 3!* -->
<g id="node4" class="node">
<title>pick 3!*</title>
<ellipse fill="gray" stroke="black" cx="27" cy="-18" rx="27" ry="18"/>
<text text-anchor="middle" x="27" y="-15.8" font-family="Times,serif" font-size="9.00">pick 3!*</text>
</g>
<!-- Sequence&#45;&gt;pick 3!* -->
<g id="edge3" class="edge">
<title>Sequence&#45;&gt;pick 3!*</title>
<path fill="none" stroke="black" d="M119.27,-76.16C101.15,-64.93 74.69,-48.54 54.74,-36.18"/>
<polygon fill="black" stroke="black" points="56.43,-33.12 46.09,-30.83 52.75,-39.07 56.43,-33.12"/>
</g>
<!-- pick 3!** -->
<g id="node5" class="node">
<title>pick 3!**</title>
<ellipse fill="gray" stroke="black" cx="101" cy="-18" rx="28.74" ry="18"/>
<text text-anchor="middle" x="101" y="-15.8" font-family="Times,serif" font-size="9.00">pick 3!**</text>
</g>
<!-- Sequence&#45;&gt;pick 3!** -->
<g id="edge4" class="edge">
<title>Sequence&#45;&gt;pick 3!**</title>
<path fill="none" stroke="black" d="M130.36,-71.7C125.69,-63.32 120,-53.1 114.87,-43.9"/>
<polygon fill="black" stroke="black" points="117.92,-42.18 109.99,-35.14 111.8,-45.58 117.92,-42.18"/>
</g>
<!-- pick 3!*** -->
<g id="node6" class="node">
<title>pick 3!***</title>
<ellipse fill="gray" stroke="black" cx="180" cy="-18" rx="31.51" ry="18"/>
<text text-anchor="middle" x="180" y="-15.8" font-family="Times,serif" font-size="9.00">pick 3!***</text>
</g>
<!-- Sequence&#45;&gt;pick 3!*** -->
<g id="edge5" class="edge">
<title>Sequence&#45;&gt;pick 3!***</title>
<path fill="none" stroke="black" d="M149.89,-71.7C154.56,-63.52 160.23,-53.6 165.38,-44.58"/>
<polygon fill="black" stroke="black" points="168.58,-46.04 170.5,-35.62 162.5,-42.57 168.58,-46.04"/>
</g>
<!-- place at (0.016, 0.032, 0.0)! -->
<g id="node7" class="node">
<title>place at (0.016, 0.032, 0.0)!</title>
<ellipse fill="gray" stroke="black" cx="296" cy="-18" rx="66.29" ry="18"/>
<text text-anchor="middle" x="296" y="-15.8" font-family="Times,serif" font-size="9.00">place at (0.016, 0.032, 0.0)!</text>
</g>
<!-- Sequence&#45;&gt;place at (0.016, 0.032, 0.0)! -->
<g id="edge6" class="edge">
<title>Sequence&#45;&gt;place at (0.016, 0.032, 0.0)!</title>
<path fill="none" stroke="black" d="M164.03,-78.22C187.91,-67.5 225.03,-50.84 253.83,-37.92"/>
<polygon fill="black" stroke="black" points="255.55,-40.99 263.24,-33.7 252.69,-34.6 255.55,-40.99"/>
</g>
</g>
</svg>
