<?xml version="1.0" encoding="UTF-8" standalone="no"?>
<!DOCTYPE svg PUBLIC "-//W3C//DTD SVG 1.1//EN"
 "http://www.w3.org/Graphics/SVG/1.1/DTD/svg11.dtd">
<!-- Generated by graphviz version 2.43.0 (0)
 -->
<!-- Title: pastafarianism Pages: 1 -->
<svg width="794pt" height="332pt"
 viewBox="0.00 0.00 793.87 332.00" xmlns="http://www.w3.org/2000/svg" xmlns:xlink="http://www.w3.org/1999/xlink">
<g id="graph0" class="graph" transform="scale(1 1) rotate(0) translate(4 328)">
<title>pastafarianism</title>
<polygon fill="white" stroke="transparent" points="-4,4 -4,-328 789.87,-328 789.87,4 -4,4"/>
<!-- Fallback -->
<g id="node1" class="node">
<title>Fallback</title>
<polygon fill="cyan" stroke="black" points="484.19,-298.54 484.19,-313.46 467.06,-324 442.84,-324 425.71,-313.46 425.71,-298.54 442.84,-288 467.06,-288 484.19,-298.54"/>
<text text-anchor="middle" x="454.95" y="-303.8" font-family="Times,serif" font-size="9.00">Fallback</text>
</g>
<!-- Sequence -->
<g id="node2" class="node">
<title>Sequence</title>
<polygon fill="cyan" stroke="black" points="319.44,-226.54 319.44,-241.46 301,-252 274.91,-252 256.46,-241.46 256.46,-226.54 274.91,-216 301,-216 319.44,-226.54"/>
<text text-anchor="middle" x="287.95" y="-231.8" font-family="Times,serif" font-size="9.00">Sequence</text>
</g>
<!-- Fallback&#45;&gt;Sequence -->
<g id="edge1" class="edge">
<title>Fallback&#45;&gt;Sequence</title>
<path fill="none" stroke="black" d="M431.06,-295.08C405.51,-284.47 363.84,-267.12 327.95,-252 325.92,-251.14 323.82,-250.26 321.72,-249.37"/>
<polygon fill="black" stroke="black" points="323.05,-246.13 312.48,-245.45 320.32,-252.58 323.05,-246.13"/>
</g>
<!-- ReachGoal? -->
<g id="node5" class="node">
<title>ReachGoal?</title>
<ellipse fill="gray" stroke="black" cx="370.95" cy="-234" rx="34.13" ry="18"/>
<text text-anchor="middle" x="370.95" y="-231.8" font-family="Times,serif" font-size="9.00">ReachGoal?</text>
</g>
<!-- Fallback&#45;&gt;ReachGoal? -->
<g id="edge4" class="edge">
<title>Fallback&#45;&gt;ReachGoal?</title>
<path fill="none" stroke="black" d="M437.95,-290.83C426.04,-280.91 409.91,-267.47 396.47,-256.26"/>
<polygon fill="black" stroke="black" points="398.42,-253.34 388.5,-249.63 393.94,-258.72 398.42,-253.34"/>
</g>
<!-- LkClose?* -->
<g id="node6" class="node">
<title>LkClose?*</title>
<ellipse fill="gray" stroke="black" cx="454.95" cy="-234" rx="31.51" ry="18"/>
<text text-anchor="middle" x="454.95" y="-231.8" font-family="Times,serif" font-size="9.00">LkClose?*</text>
</g>
<!-- Fallback&#45;&gt;LkClose?* -->
<g id="edge5" class="edge">
<title>Fallback&#45;&gt;LkClose?*</title>
<path fill="none" stroke="black" d="M454.95,-287.7C454.95,-279.98 454.95,-270.71 454.95,-262.11"/>
<polygon fill="black" stroke="black" points="458.45,-262.1 454.95,-252.1 451.45,-262.1 458.45,-262.1"/>
</g>
<!-- Sequence* -->
<g id="node7" class="node">
<title>Sequence*</title>
<polygon fill="cyan" stroke="black" points="573.19,-226.54 573.19,-241.46 553.13,-252 524.77,-252 504.71,-241.46 504.71,-226.54 524.77,-216 553.13,-216 573.19,-226.54"/>
<text text-anchor="middle" x="538.95" y="-231.8" font-family="Times,serif" font-size="9.00">Sequence*</text>
</g>
<!-- Fallback&#45;&gt;Sequence* -->
<g id="edge6" class="edge">
<title>Fallback&#45;&gt;Sequence*</title>
<path fill="none" stroke="black" d="M471.95,-290.83C483.7,-281.04 499.56,-267.83 512.89,-256.71"/>
<polygon fill="black" stroke="black" points="515.37,-259.2 520.81,-250.11 510.89,-253.83 515.37,-259.2"/>
</g>
<!-- Sequence*** -->
<g id="node21" class="node">
<title>Sequence***</title>
<polygon fill="cyan" stroke="black" points="672.94,-226.54 672.94,-241.46 649.51,-252 616.39,-252 592.96,-241.46 592.96,-226.54 616.39,-216 649.51,-216 672.94,-226.54"/>
<text text-anchor="middle" x="632.95" y="-231.8" font-family="Times,serif" font-size="9.00">Sequence***</text>
</g>
<!-- Fallback&#45;&gt;Sequence*** -->
<g id="edge20" class="edge">
<title>Fallback&#45;&gt;Sequence***</title>
<path fill="none" stroke="black" d="M479.33,-295.41C509.01,-283.74 559.48,-263.89 594.44,-250.15"/>
<polygon fill="black" stroke="black" points="595.83,-253.36 603.85,-246.44 593.27,-246.85 595.83,-253.36"/>
</g>
<!-- LkClose? -->
<g id="node3" class="node">
<title>LkClose?</title>
<ellipse fill="gray" stroke="black" cx="250.95" cy="-162" rx="28.74" ry="18"/>
<text text-anchor="middle" x="250.95" y="-159.8" font-family="Times,serif" font-size="9.00">LkClose?</text>
</g>
<!-- Sequence&#45;&gt;LkClose? -->
<g id="edge2" class="edge">
<title>Sequence&#45;&gt;LkClose?</title>
<path fill="none" stroke="black" d="M278.8,-215.7C274.48,-207.52 269.24,-197.6 264.47,-188.58"/>
<polygon fill="black" stroke="black" points="267.5,-186.83 259.74,-179.62 261.32,-190.1 267.5,-186.83"/>
</g>
<!-- GetLk! -->
<g id="node4" class="node">
<title>GetLk!</title>
<ellipse fill="gray" stroke="black" cx="324.95" cy="-162" rx="27" ry="18"/>
<text text-anchor="middle" x="324.95" y="-159.8" font-family="Times,serif" font-size="9.00">GetLk!</text>
</g>
<!-- Sequence&#45;&gt;GetLk! -->
<g id="edge3" class="edge">
<title>Sequence&#45;&gt;GetLk!</title>
<path fill="none" stroke="black" d="M297.1,-215.7C301.48,-207.4 306.81,-197.31 311.64,-188.19"/>
<polygon fill="black" stroke="black" points="314.84,-189.62 316.42,-179.14 308.65,-186.35 314.84,-189.62"/>
</g>
<!-- Fallback* -->
<g id="node8" class="node">
<title>Fallback*</title>
<polygon fill="cyan" stroke="black" points="483.69,-154.54 483.69,-169.46 465.1,-180 438.8,-180 420.21,-169.46 420.21,-154.54 438.8,-144 465.1,-144 483.69,-154.54"/>
<text text-anchor="middle" x="451.95" y="-159.8" font-family="Times,serif" font-size="9.00">Fallback*</text>
</g>
<!-- Sequence*&#45;&gt;Fallback* -->
<g id="edge7" class="edge">
<title>Sequence*&#45;&gt;Fallback*</title>
<path fill="none" stroke="black" d="M520.5,-218.15C508.19,-208.25 491.82,-195.08 478.17,-184.09"/>
<polygon fill="black" stroke="black" points="480.06,-181.13 470.08,-177.58 475.67,-186.58 480.06,-181.13"/>
</g>
<!-- MoveTo!*** -->
<g id="node20" class="node">
<title>MoveTo!***</title>
<ellipse fill="gray" stroke="black" cx="538.95" cy="-162" rx="36.9" ry="18"/>
<text text-anchor="middle" x="538.95" y="-159.8" font-family="Times,serif" font-size="9.00">MoveTo!***</text>
</g>
<!-- Sequence*&#45;&gt;MoveTo!*** -->
<g id="edge19" class="edge">
<title>Sequence*&#45;&gt;MoveTo!***</title>
<path fill="none" stroke="black" d="M538.95,-215.7C538.95,-207.98 538.95,-198.71 538.95,-190.11"/>
<polygon fill="black" stroke="black" points="542.45,-190.1 538.95,-180.1 535.45,-190.1 542.45,-190.1"/>
</g>
<!-- Sequence** -->
<g id="node9" class="node">
<title>Sequence**</title>
<polygon fill="cyan" stroke="black" points="386.69,-82.54 386.69,-97.46 365.17,-108 334.73,-108 313.21,-97.46 313.21,-82.54 334.73,-72 365.17,-72 386.69,-82.54"/>
<text text-anchor="middle" x="349.95" y="-87.8" font-family="Times,serif" font-size="9.00">Sequence**</text>
</g>
<!-- Fallback*&#45;&gt;Sequence** -->
<g id="edge8" class="edge">
<title>Fallback*&#45;&gt;Sequence**</title>
<path fill="none" stroke="black" d="M432.28,-147.5C417.3,-137.22 396.42,-122.89 379.43,-111.23"/>
<polygon fill="black" stroke="black" points="381.19,-108.19 370.96,-105.42 377.23,-113.96 381.19,-108.19"/>
</g>
<!-- NotReadyForSG? -->
<g id="node18" class="node">
<title>NotReadyForSG?</title>
<ellipse fill="gray" stroke="black" cx="451.95" cy="-90" rx="46.53" ry="18"/>
<text text-anchor="middle" x="451.95" y="-87.8" font-family="Times,serif" font-size="9.00">NotReadyForSG?</text>
</g>
<!-- Fallback*&#45;&gt;NotReadyForSG? -->
<g id="edge17" class="edge">
<title>Fallback*&#45;&gt;NotReadyForSG?</title>
<path fill="none" stroke="black" d="M451.95,-143.7C451.95,-135.98 451.95,-126.71 451.95,-118.11"/>
<polygon fill="black" stroke="black" points="455.45,-118.1 451.95,-108.1 448.45,-118.1 455.45,-118.1"/>
</g>
<!-- GetSubGoal!* -->
<g id="node19" class="node">
<title>GetSubGoal!*</title>
<ellipse fill="gray" stroke="black" cx="555.95" cy="-90" rx="39.02" ry="18"/>
<text text-anchor="middle" x="555.95" y="-87.8" font-family="Times,serif" font-size="9.00">GetSubGoal!*</text>
</g>
<!-- Fallback*&#45;&gt;GetSubGoal!* -->
<g id="edge18" class="edge">
<title>Fallback*&#45;&gt;GetSubGoal!*</title>
<path fill="none" stroke="black" d="M472,-147.5C487.28,-137.22 508.57,-122.89 525.89,-111.23"/>
<polygon fill="black" stroke="black" points="528.19,-113.91 534.53,-105.42 524.28,-108.1 528.19,-113.91"/>
</g>
<!-- ReachGoal?* -->
<g id="node10" class="node">
<title>ReachGoal?*</title>
<ellipse fill="gray" stroke="black" cx="36.95" cy="-18" rx="36.9" ry="18"/>
<text text-anchor="middle" x="36.95" y="-15.8" font-family="Times,serif" font-size="9.00">ReachGoal?*</text>
</g>
<!-- Sequence**&#45;&gt;ReachGoal?* -->
<g id="edge9" class="edge">
<title>Sequence**&#45;&gt;ReachGoal?*</title>
<path fill="none" stroke="black" d="M312.8,-83.53C260.82,-75.45 163.68,-58.78 82.95,-36 80.18,-35.22 77.35,-34.35 74.51,-33.43"/>
<polygon fill="black" stroke="black" points="75.53,-30.08 64.94,-30.14 73.26,-36.7 75.53,-30.08"/>
</g>
<!-- MoveTo! -->
<g id="node11" class="node">
<title>MoveTo!</title>
<ellipse fill="gray" stroke="black" cx="120.95" cy="-18" rx="28.74" ry="18"/>
<text text-anchor="middle" x="120.95" y="-15.8" font-family="Times,serif" font-size="9.00">MoveTo!</text>
</g>
<!-- Sequence**&#45;&gt;MoveTo! -->
<g id="edge10" class="edge">
<title>Sequence**&#45;&gt;MoveTo!</title>
<path fill="none" stroke="black" d="M315.66,-81.13C277.05,-71.89 212.7,-55.36 158.95,-36 156.85,-35.24 154.71,-34.42 152.55,-33.56"/>
<polygon fill="black" stroke="black" points="153.8,-30.29 143.23,-29.63 151.08,-36.74 153.8,-30.29"/>
</g>
<!-- CompLkGraph! -->
<g id="node12" class="node">
<title>CompLkGraph!</title>
<ellipse fill="gray" stroke="black" cx="210.95" cy="-18" rx="42.95" ry="18"/>
<text text-anchor="middle" x="210.95" y="-15.8" font-family="Times,serif" font-size="9.00">CompLkGraph!</text>
</g>
<!-- Sequence**&#45;&gt;CompLkGraph! -->
<g id="edge11" class="edge">
<title>Sequence**&#45;&gt;CompLkGraph!</title>
<path fill="none" stroke="black" d="M325.1,-76.49C303.22,-65.47 271.1,-49.29 246.5,-36.9"/>
<polygon fill="black" stroke="black" points="247.98,-33.73 237.48,-32.36 244.84,-39.98 247.98,-33.73"/>
</g>
<!-- MoveTo!* -->
<g id="node13" class="node">
<title>MoveTo!*</title>
<ellipse fill="gray" stroke="black" cx="302.95" cy="-18" rx="31.51" ry="18"/>
<text text-anchor="middle" x="302.95" y="-15.8" font-family="Times,serif" font-size="9.00">MoveTo!*</text>
</g>
<!-- Sequence**&#45;&gt;MoveTo!* -->
<g id="edge12" class="edge">
<title>Sequence**&#45;&gt;MoveTo!*</title>
<path fill="none" stroke="black" d="M338.33,-71.7C332.65,-63.23 325.7,-52.89 319.48,-43.61"/>
<polygon fill="black" stroke="black" points="322.27,-41.5 313.79,-35.14 316.46,-45.4 322.27,-41.5"/>
</g>
<!-- CompLkGraph!* -->
<g id="node14" class="node">
<title>CompLkGraph!*</title>
<ellipse fill="gray" stroke="black" cx="397.95" cy="-18" rx="45.07" ry="18"/>
<text text-anchor="middle" x="397.95" y="-15.8" font-family="Times,serif" font-size="9.00">CompLkGraph!*</text>
</g>
<!-- Sequence**&#45;&gt;CompLkGraph!* -->
<g id="edge13" class="edge">
<title>Sequence**&#45;&gt;CompLkGraph!*</title>
<path fill="none" stroke="black" d="M361.82,-71.7C367.54,-63.35 374.51,-53.18 380.8,-44.02"/>
<polygon fill="black" stroke="black" points="383.78,-45.85 386.55,-35.62 378.01,-41.89 383.78,-45.85"/>
</g>
<!-- LkClose?** -->
<g id="node15" class="node">
<title>LkClose?**</title>
<ellipse fill="gray" stroke="black" cx="494.95" cy="-18" rx="34.13" ry="18"/>
<text text-anchor="middle" x="494.95" y="-15.8" font-family="Times,serif" font-size="9.00">LkClose?**</text>
</g>
<!-- Sequence**&#45;&gt;LkClose?** -->
<g id="edge14" class="edge">
<title>Sequence**&#45;&gt;LkClose?**</title>
<path fill="none" stroke="black" d="M375.21,-76.81C399.05,-65.29 434.98,-47.95 461.26,-35.26"/>
<polygon fill="black" stroke="black" points="462.98,-38.32 470.47,-30.82 459.94,-32.02 462.98,-38.32"/>
</g>
<!-- MoveTo!** -->
<g id="node16" class="node">
<title>MoveTo!**</title>
<ellipse fill="gray" stroke="black" cx="580.95" cy="-18" rx="34.13" ry="18"/>
<text text-anchor="middle" x="580.95" y="-15.8" font-family="Times,serif" font-size="9.00">MoveTo!**</text>
</g>
<!-- Sequence**&#45;&gt;MoveTo!** -->
<g id="edge15" class="edge">
<title>Sequence**&#45;&gt;MoveTo!**</title>
<path fill="none" stroke="black" d="M378.01,-78.1C383.9,-75.96 390.1,-73.82 395.95,-72 458.13,-52.69 475.99,-56.01 537.95,-36 540.36,-35.22 542.82,-34.38 545.29,-33.5"/>
<polygon fill="black" stroke="black" points="546.62,-36.74 554.77,-29.97 544.17,-30.18 546.62,-36.74"/>
</g>
<!-- GetSubGoal! -->
<g id="node17" class="node">
<title>GetSubGoal!</title>
<ellipse fill="gray" stroke="black" cx="669.95" cy="-18" rx="36.9" ry="18"/>
<text text-anchor="middle" x="669.95" y="-15.8" font-family="Times,serif" font-size="9.00">GetSubGoal!</text>
</g>
<!-- Sequence**&#45;&gt;GetSubGoal! -->
<g id="edge16" class="edge">
<title>Sequence**&#45;&gt;GetSubGoal!</title>
<path fill="none" stroke="black" d="M377.4,-77.85C383.44,-75.68 389.85,-73.59 395.95,-72 495.21,-46.09 524.69,-61.91 623.95,-36 626.9,-35.23 629.93,-34.34 632.95,-33.38"/>
<polygon fill="black" stroke="black" points="634.16,-36.67 642.5,-30.15 631.91,-30.04 634.16,-36.67"/>
</g>
<!-- ReachGoal?** -->
<g id="node22" class="node">
<title>ReachGoal?**</title>
<ellipse fill="gray" stroke="black" cx="632.95" cy="-162" rx="39.02" ry="18"/>
<text text-anchor="middle" x="632.95" y="-159.8" font-family="Times,serif" font-size="9.00">ReachGoal?**</text>
</g>
<!-- Sequence***&#45;&gt;ReachGoal?** -->
<g id="edge21" class="edge">
<title>Sequence***&#45;&gt;ReachGoal?**</title>
<path fill="none" stroke="black" d="M632.95,-215.7C632.95,-207.98 632.95,-198.71 632.95,-190.11"/>
<polygon fill="black" stroke="black" points="636.45,-190.1 632.95,-180.1 629.45,-190.1 636.45,-190.1"/>
</g>
<!-- CompLkGraph!** -->
<g id="node23" class="node">
<title>CompLkGraph!**</title>
<ellipse fill="gray" stroke="black" cx="737.95" cy="-162" rx="47.84" ry="18"/>
<text text-anchor="middle" x="737.95" y="-159.8" font-family="Times,serif" font-size="9.00">CompLkGraph!**</text>
</g>
<!-- Sequence***&#45;&gt;CompLkGraph!** -->
<g id="edge22" class="edge">
<title>Sequence***&#45;&gt;CompLkGraph!**</title>
<path fill="none" stroke="black" d="M654.96,-218.33C670.02,-208.29 690.19,-194.84 706.88,-183.71"/>
<polygon fill="black" stroke="black" points="708.86,-186.6 715.24,-178.14 704.98,-180.77 708.86,-186.6"/>
</g>
</g>
</svg>
