<?xml version="1.0" encoding="UTF-8" standalone="no"?>
<!DOCTYPE svg PUBLIC "-//W3C//DTD SVG 1.1//EN"
 "http://www.w3.org/Graphics/SVG/1.1/DTD/svg11.dtd">
<!-- Generated by graphviz version 2.43.0 (0)
 -->
<!-- Title: pastafarianism Pages: 1 -->
<svg width="1692pt" height="548pt"
 viewBox="0.00 0.00 1691.90 548.00" xmlns="http://www.w3.org/2000/svg" xmlns:xlink="http://www.w3.org/1999/xlink">
<g id="graph0" class="graph" transform="scale(1 1) rotate(0) translate(4 544)">
<title>pastafarianism</title>
<polygon fill="white" stroke="transparent" points="-4,4 -4,-544 1687.9,-544 1687.9,4 -4,4"/>
<!-- Fallback -->
<g id="node1" class="node">
<title>Fallback</title>
<polygon fill="cyan" stroke="black" points="747,-514.54 747,-529.46 729.87,-540 705.64,-540 688.51,-529.46 688.51,-514.54 705.64,-504 729.87,-504 747,-514.54"/>
<text text-anchor="middle" x="717.75" y="-519.8" font-family="Times,serif" font-size="9.00">Fallback</text>
</g>
<!-- ReachGoal? -->
<g id="node2" class="node">
<title>ReachGoal?</title>
<ellipse fill="gray" stroke="black" cx="597.75" cy="-450" rx="34.13" ry="18"/>
<text text-anchor="middle" x="597.75" y="-447.8" font-family="Times,serif" font-size="9.00">ReachGoal?</text>
</g>
<!-- Fallback&#45;&gt;ReachGoal? -->
<g id="edge1" class="edge">
<title>Fallback&#45;&gt;ReachGoal?</title>
<path fill="none" stroke="black" d="M697.13,-508.97C678.25,-497.95 650.05,-481.51 628.51,-468.94"/>
<polygon fill="black" stroke="black" points="630.14,-465.84 619.74,-463.82 626.61,-471.89 630.14,-465.84"/>
</g>
<!-- LkClose? -->
<g id="node3" class="node">
<title>LkClose?</title>
<ellipse fill="gray" stroke="black" cx="678.75" cy="-450" rx="28.74" ry="18"/>
<text text-anchor="middle" x="678.75" y="-447.8" font-family="Times,serif" font-size="9.00">LkClose?</text>
</g>
<!-- Fallback&#45;&gt;LkClose? -->
<g id="edge2" class="edge">
<title>Fallback&#45;&gt;LkClose?</title>
<path fill="none" stroke="black" d="M708.11,-503.7C703.44,-495.32 697.75,-485.1 692.63,-475.9"/>
<polygon fill="black" stroke="black" points="695.67,-474.18 687.75,-467.14 689.56,-477.58 695.67,-474.18"/>
</g>
<!-- Sequence -->
<g id="node4" class="node">
<title>Sequence</title>
<polygon fill="cyan" stroke="black" points="788.25,-442.54 788.25,-457.46 769.8,-468 743.71,-468 725.26,-457.46 725.26,-442.54 743.71,-432 769.8,-432 788.25,-442.54"/>
<text text-anchor="middle" x="756.75" y="-447.8" font-family="Times,serif" font-size="9.00">Sequence</text>
</g>
<!-- Fallback&#45;&gt;Sequence -->
<g id="edge3" class="edge">
<title>Fallback&#45;&gt;Sequence</title>
<path fill="none" stroke="black" d="M727.39,-503.7C731.88,-495.64 737.31,-485.89 742.28,-476.98"/>
<polygon fill="black" stroke="black" points="745.42,-478.54 747.22,-468.1 739.3,-475.14 745.42,-478.54"/>
</g>
<!-- ReachGoal?**** -->
<g id="node43" class="node">
<title>ReachGoal?****</title>
<ellipse fill="gray" stroke="black" cx="850.75" cy="-450" rx="44.41" ry="18"/>
<text text-anchor="middle" x="850.75" y="-447.8" font-family="Times,serif" font-size="9.00">ReachGoal?****</text>
</g>
<!-- Fallback&#45;&gt;ReachGoal?**** -->
<g id="edge42" class="edge">
<title>Fallback&#45;&gt;ReachGoal?****</title>
<path fill="none" stroke="black" d="M739.42,-509.6C760.04,-498.74 791.44,-482.22 815.64,-469.48"/>
<polygon fill="black" stroke="black" points="817.31,-472.56 824.52,-464.8 814.05,-466.37 817.31,-472.56"/>
</g>
<!-- Fallback* -->
<g id="node5" class="node">
<title>Fallback*</title>
<polygon fill="cyan" stroke="black" points="741.5,-370.54 741.5,-385.46 722.9,-396 696.61,-396 678.01,-385.46 678.01,-370.54 696.61,-360 722.9,-360 741.5,-370.54"/>
<text text-anchor="middle" x="709.75" y="-375.8" font-family="Times,serif" font-size="9.00">Fallback*</text>
</g>
<!-- Sequence&#45;&gt;Fallback* -->
<g id="edge4" class="edge">
<title>Sequence&#45;&gt;Fallback*</title>
<path fill="none" stroke="black" d="M745.14,-431.7C739.62,-423.47 732.91,-413.48 726.82,-404.42"/>
<polygon fill="black" stroke="black" points="729.72,-402.46 721.24,-396.1 723.91,-406.36 729.72,-402.46"/>
</g>
<!-- MoveTo!****** -->
<g id="node42" class="node">
<title>MoveTo!******</title>
<ellipse fill="gray" stroke="black" cx="803.75" cy="-378" rx="44.41" ry="18"/>
<text text-anchor="middle" x="803.75" y="-375.8" font-family="Times,serif" font-size="9.00">MoveTo!******</text>
</g>
<!-- Sequence&#45;&gt;MoveTo!****** -->
<g id="edge41" class="edge">
<title>Sequence&#45;&gt;MoveTo!******</title>
<path fill="none" stroke="black" d="M768.37,-431.7C773.98,-423.35 780.8,-413.18 786.96,-404.02"/>
<polygon fill="black" stroke="black" points="789.92,-405.88 792.59,-395.62 784.11,-401.97 789.92,-405.88"/>
</g>
<!-- Sequence* -->
<g id="node6" class="node">
<title>Sequence*</title>
<polygon fill="cyan" stroke="black" points="640,-298.54 640,-313.46 619.94,-324 591.57,-324 571.51,-313.46 571.51,-298.54 591.57,-288 619.94,-288 640,-298.54"/>
<text text-anchor="middle" x="605.75" y="-303.8" font-family="Times,serif" font-size="9.00">Sequence*</text>
</g>
<!-- Fallback*&#45;&gt;Sequence* -->
<g id="edge5" class="edge">
<title>Fallback*&#45;&gt;Sequence*</title>
<path fill="none" stroke="black" d="M689.7,-363.5C674.22,-353.08 652.57,-338.51 635.14,-326.78"/>
<polygon fill="black" stroke="black" points="636.71,-323.61 626.46,-320.93 632.8,-329.42 636.71,-323.61"/>
</g>
<!-- NotReadyForSG?** -->
<g id="node40" class="node">
<title>NotReadyForSG?**</title>
<ellipse fill="gray" stroke="black" cx="709.75" cy="-306" rx="51.92" ry="18"/>
<text text-anchor="middle" x="709.75" y="-303.8" font-family="Times,serif" font-size="9.00">NotReadyForSG?**</text>
</g>
<!-- Fallback*&#45;&gt;NotReadyForSG?** -->
<g id="edge39" class="edge">
<title>Fallback*&#45;&gt;NotReadyForSG?**</title>
<path fill="none" stroke="black" d="M709.75,-359.7C709.75,-351.98 709.75,-342.71 709.75,-334.11"/>
<polygon fill="black" stroke="black" points="713.25,-334.1 709.75,-324.1 706.25,-334.1 713.25,-334.1"/>
</g>
<!-- GetSubGoal!**** -->
<g id="node41" class="node">
<title>GetSubGoal!****</title>
<ellipse fill="gray" stroke="black" cx="826.75" cy="-306" rx="47.19" ry="18"/>
<text text-anchor="middle" x="826.75" y="-303.8" font-family="Times,serif" font-size="9.00">GetSubGoal!****</text>
</g>
<!-- Fallback*&#45;&gt;GetSubGoal!**** -->
<g id="edge40" class="edge">
<title>Fallback*&#45;&gt;GetSubGoal!****</title>
<path fill="none" stroke="black" d="M730.94,-364.32C748.42,-353.87 773.51,-338.85 793.64,-326.81"/>
<polygon fill="black" stroke="black" points="795.71,-329.65 802.49,-321.52 792.11,-323.65 795.71,-329.65"/>
</g>
<!-- LkClose?* -->
<g id="node7" class="node">
<title>LkClose?*</title>
<ellipse fill="gray" stroke="black" cx="31.75" cy="-234" rx="31.51" ry="18"/>
<text text-anchor="middle" x="31.75" y="-231.8" font-family="Times,serif" font-size="9.00">LkClose?*</text>
</g>
<!-- Sequence*&#45;&gt;LkClose?* -->
<g id="edge6" class="edge">
<title>Sequence*&#45;&gt;LkClose?*</title>
<path fill="none" stroke="black" d="M571.4,-305.16C485.65,-304.79 255.88,-299.09 71.75,-252 69.41,-251.4 67.03,-250.68 64.65,-249.89"/>
<polygon fill="black" stroke="black" points="65.62,-246.52 55.03,-246.29 63.17,-253.07 65.62,-246.52"/>
</g>
<!-- LkGraph? -->
<g id="node8" class="node">
<title>LkGraph?</title>
<ellipse fill="gray" stroke="black" cx="111.75" cy="-234" rx="30.7" ry="18"/>
<text text-anchor="middle" x="111.75" y="-231.8" font-family="Times,serif" font-size="9.00">LkGraph?</text>
</g>
<!-- Sequence*&#45;&gt;LkGraph? -->
<g id="edge7" class="edge">
<title>Sequence*&#45;&gt;LkGraph?</title>
<path fill="none" stroke="black" d="M571.43,-304.43C494.69,-302.43 303.93,-293.33 150.75,-252 148.47,-251.38 146.14,-250.65 143.82,-249.85"/>
<polygon fill="black" stroke="black" points="145.03,-246.57 134.45,-246.23 142.51,-253.1 145.03,-246.57"/>
</g>
<!-- CompLkGraph! -->
<g id="node9" class="node">
<title>CompLkGraph!</title>
<ellipse fill="gray" stroke="black" cx="202.75" cy="-234" rx="42.95" ry="18"/>
<text text-anchor="middle" x="202.75" y="-231.8" font-family="Times,serif" font-size="9.00">CompLkGraph!</text>
</g>
<!-- Sequence*&#45;&gt;CompLkGraph! -->
<g id="edge8" class="edge">
<title>Sequence*&#45;&gt;CompLkGraph!</title>
<path fill="none" stroke="black" d="M571.51,-301.74C508.3,-295.3 369.29,-279.17 254.75,-252 251.32,-251.19 247.79,-250.25 244.27,-249.25"/>
<polygon fill="black" stroke="black" points="245,-245.81 234.42,-246.28 242.98,-252.51 245,-245.81"/>
</g>
<!-- LkClose?** -->
<g id="node10" class="node">
<title>LkClose?**</title>
<ellipse fill="gray" stroke="black" cx="297.75" cy="-234" rx="34.13" ry="18"/>
<text text-anchor="middle" x="297.75" y="-231.8" font-family="Times,serif" font-size="9.00">LkClose?**</text>
</g>
<!-- Sequence*&#45;&gt;LkClose?** -->
<g id="edge9" class="edge">
<title>Sequence*&#45;&gt;LkClose?**</title>
<path fill="none" stroke="black" d="M571.4,-300.14C520.4,-292.49 421.98,-275.97 340.75,-252 338.17,-251.24 335.53,-250.38 332.89,-249.48"/>
<polygon fill="black" stroke="black" points="334.01,-246.16 323.41,-246.01 331.6,-252.73 334.01,-246.16"/>
</g>
<!-- GetSubGoal! -->
<g id="node11" class="node">
<title>GetSubGoal!</title>
<ellipse fill="gray" stroke="black" cx="386.75" cy="-234" rx="36.9" ry="18"/>
<text text-anchor="middle" x="386.75" y="-231.8" font-family="Times,serif" font-size="9.00">GetSubGoal!</text>
</g>
<!-- Sequence*&#45;&gt;GetSubGoal! -->
<g id="edge10" class="edge">
<title>Sequence*&#45;&gt;GetSubGoal!</title>
<path fill="none" stroke="black" d="M575.59,-296.32C540.93,-286.22 482.46,-268.78 432.75,-252 430.03,-251.08 427.23,-250.11 424.41,-249.11"/>
<polygon fill="black" stroke="black" points="425.48,-245.78 414.88,-245.68 423.11,-252.36 425.48,-245.78"/>
</g>
<!-- ReachGoal?* -->
<g id="node12" class="node">
<title>ReachGoal?*</title>
<ellipse fill="gray" stroke="black" cx="478.75" cy="-234" rx="36.9" ry="18"/>
<text text-anchor="middle" x="478.75" y="-231.8" font-family="Times,serif" font-size="9.00">ReachGoal?*</text>
</g>
<!-- Sequence*&#45;&gt;ReachGoal?* -->
<g id="edge11" class="edge">
<title>Sequence*&#45;&gt;ReachGoal?*</title>
<path fill="none" stroke="black" d="M582.76,-292.32C562.78,-281.31 533.62,-265.24 511.26,-252.92"/>
<polygon fill="black" stroke="black" points="512.89,-249.82 502.44,-248.06 509.51,-255.95 512.89,-249.82"/>
</g>
<!-- MoveTo! -->
<g id="node13" class="node">
<title>MoveTo!</title>
<ellipse fill="gray" stroke="black" cx="562.75" cy="-234" rx="28.74" ry="18"/>
<text text-anchor="middle" x="562.75" y="-231.8" font-family="Times,serif" font-size="9.00">MoveTo!</text>
</g>
<!-- Sequence*&#45;&gt;MoveTo! -->
<g id="edge12" class="edge">
<title>Sequence*&#45;&gt;MoveTo!</title>
<path fill="none" stroke="black" d="M595.13,-287.7C589.98,-279.32 583.7,-269.1 578.05,-259.9"/>
<polygon fill="black" stroke="black" points="580.89,-257.83 572.67,-251.14 574.92,-261.5 580.89,-257.83"/>
</g>
<!-- ReachGoal?** -->
<g id="node14" class="node">
<title>ReachGoal?**</title>
<ellipse fill="gray" stroke="black" cx="648.75" cy="-234" rx="39.02" ry="18"/>
<text text-anchor="middle" x="648.75" y="-231.8" font-family="Times,serif" font-size="9.00">ReachGoal?**</text>
</g>
<!-- Sequence*&#45;&gt;ReachGoal?** -->
<g id="edge13" class="edge">
<title>Sequence*&#45;&gt;ReachGoal?**</title>
<path fill="none" stroke="black" d="M616.38,-287.7C621.46,-279.44 627.63,-269.39 633.21,-260.3"/>
<polygon fill="black" stroke="black" points="636.29,-261.98 638.54,-251.62 630.33,-258.31 636.29,-261.98"/>
</g>
<!-- LkClose?*** -->
<g id="node15" class="node">
<title>LkClose?***</title>
<ellipse fill="gray" stroke="black" cx="742.75" cy="-234" rx="36.9" ry="18"/>
<text text-anchor="middle" x="742.75" y="-231.8" font-family="Times,serif" font-size="9.00">LkClose?***</text>
</g>
<!-- Sequence*&#45;&gt;LkClose?*** -->
<g id="edge14" class="edge">
<title>Sequence*&#45;&gt;LkClose?***</title>
<path fill="none" stroke="black" d="M629.62,-292.81C651.64,-281.55 684.57,-264.73 709.23,-252.13"/>
<polygon fill="black" stroke="black" points="710.93,-255.19 718.24,-247.52 707.74,-248.96 710.93,-255.19"/>
</g>
<!-- MoveTo!* -->
<g id="node16" class="node">
<title>MoveTo!*</title>
<ellipse fill="gray" stroke="black" cx="829.75" cy="-234" rx="31.51" ry="18"/>
<text text-anchor="middle" x="829.75" y="-231.8" font-family="Times,serif" font-size="9.00">MoveTo!*</text>
</g>
<!-- Sequence*&#45;&gt;MoveTo!* -->
<g id="edge15" class="edge">
<title>Sequence*&#45;&gt;MoveTo!*</title>
<path fill="none" stroke="black" d="M631.94,-294.05C637.45,-291.91 643.26,-289.79 648.75,-288 709.86,-268.15 727.82,-272.35 788.75,-252 791.04,-251.24 793.37,-250.41 795.71,-249.54"/>
<polygon fill="black" stroke="black" points="797.21,-252.71 805.25,-245.82 794.66,-246.19 797.21,-252.71"/>
</g>
<!-- LkClose?**** -->
<g id="node17" class="node">
<title>LkClose?****</title>
<ellipse fill="gray" stroke="black" cx="918.75" cy="-234" rx="39.02" ry="18"/>
<text text-anchor="middle" x="918.75" y="-231.8" font-family="Times,serif" font-size="9.00">LkClose?****</text>
</g>
<!-- Sequence*&#45;&gt;LkClose?**** -->
<g id="edge16" class="edge">
<title>Sequence*&#45;&gt;LkClose?****</title>
<path fill="none" stroke="black" d="M631.37,-293.83C637.02,-291.66 643.03,-289.58 648.75,-288 745.13,-261.47 773.92,-276.78 870.75,-252 873.88,-251.2 877.09,-250.28 880.3,-249.3"/>
<polygon fill="black" stroke="black" points="881.4,-252.62 889.82,-246.19 879.23,-245.96 881.4,-252.62"/>
</g>
<!-- MoveTo!** -->
<g id="node18" class="node">
<title>MoveTo!**</title>
<ellipse fill="gray" stroke="black" cx="1009.75" cy="-234" rx="34.13" ry="18"/>
<text text-anchor="middle" x="1009.75" y="-231.8" font-family="Times,serif" font-size="9.00">MoveTo!**</text>
</g>
<!-- Sequence*&#45;&gt;MoveTo!** -->
<g id="edge17" class="edge">
<title>Sequence*&#45;&gt;MoveTo!**</title>
<path fill="none" stroke="black" d="M631.31,-293.62C636.97,-291.47 642.99,-289.44 648.75,-288 786.76,-253.55 828.75,-286.45 966.75,-252 969.53,-251.31 972.36,-250.48 975.19,-249.56"/>
<polygon fill="black" stroke="black" points="976.4,-252.85 984.65,-246.2 974.06,-246.25 976.4,-252.85"/>
</g>
<!-- Fallback** -->
<g id="node19" class="node">
<title>Fallback**</title>
<polygon fill="cyan" stroke="black" points="1131.75,-226.54 1131.75,-241.46 1111.25,-252 1082.26,-252 1061.76,-241.46 1061.76,-226.54 1082.26,-216 1111.25,-216 1131.75,-226.54"/>
<text text-anchor="middle" x="1096.75" y="-231.8" font-family="Times,serif" font-size="9.00">Fallback**</text>
</g>
<!-- Sequence*&#45;&gt;Fallback** -->
<g id="edge18" class="edge">
<title>Sequence*&#45;&gt;Fallback**</title>
<path fill="none" stroke="black" d="M630.83,-293.69C636.62,-291.48 642.82,-289.41 648.75,-288 824.16,-246.43 877.18,-292.88 1052.75,-252 1055.6,-251.34 1058.5,-250.53 1061.39,-249.63"/>
<polygon fill="black" stroke="black" points="1062.76,-252.86 1071.08,-246.3 1060.48,-246.24 1062.76,-252.86"/>
</g>
<!-- LkClose?****** -->
<g id="node39" class="node">
<title>LkClose?******</title>
<ellipse fill="gray" stroke="black" cx="1193.75" cy="-234" rx="44.41" ry="18"/>
<text text-anchor="middle" x="1193.75" y="-231.8" font-family="Times,serif" font-size="9.00">LkClose?******</text>
</g>
<!-- Sequence*&#45;&gt;LkClose?****** -->
<g id="edge38" class="edge">
<title>Sequence*&#45;&gt;LkClose?******</title>
<path fill="none" stroke="black" d="M630.81,-293.62C636.6,-291.41 642.81,-289.36 648.75,-288 862.49,-239.13 925.52,-293.78 1140.75,-252 1144.43,-251.29 1148.21,-250.4 1151.98,-249.41"/>
<polygon fill="black" stroke="black" points="1153.19,-252.7 1161.84,-246.58 1151.26,-245.97 1153.19,-252.7"/>
</g>
<!-- Sequence** -->
<g id="node20" class="node">
<title>Sequence**</title>
<polygon fill="cyan" stroke="black" points="1028.5,-154.54 1028.5,-169.46 1006.97,-180 976.54,-180 955.01,-169.46 955.01,-154.54 976.54,-144 1006.97,-144 1028.5,-154.54"/>
<text text-anchor="middle" x="991.75" y="-159.8" font-family="Times,serif" font-size="9.00">Sequence**</text>
</g>
<!-- Fallback**&#45;&gt;Sequence** -->
<g id="edge19" class="edge">
<title>Fallback**&#45;&gt;Sequence**</title>
<path fill="none" stroke="black" d="M1076.01,-219.17C1060.54,-208.86 1039.17,-194.61 1021.83,-183.05"/>
<polygon fill="black" stroke="black" points="1023.44,-179.92 1013.18,-177.28 1019.56,-185.74 1023.44,-179.92"/>
</g>
<!-- NotReadyForSG?* -->
<g id="node37" class="node">
<title>NotReadyForSG?*</title>
<ellipse fill="gray" stroke="black" cx="1096.75" cy="-162" rx="49.8" ry="18"/>
<text text-anchor="middle" x="1096.75" y="-159.8" font-family="Times,serif" font-size="9.00">NotReadyForSG?*</text>
</g>
<!-- Fallback**&#45;&gt;NotReadyForSG?* -->
<g id="edge36" class="edge">
<title>Fallback**&#45;&gt;NotReadyForSG?*</title>
<path fill="none" stroke="black" d="M1096.75,-215.7C1096.75,-207.98 1096.75,-198.71 1096.75,-190.11"/>
<polygon fill="black" stroke="black" points="1100.25,-190.1 1096.75,-180.1 1093.25,-190.1 1100.25,-190.1"/>
</g>
<!-- GetSubGoal!*** -->
<g id="node38" class="node">
<title>GetSubGoal!***</title>
<ellipse fill="gray" stroke="black" cx="1208.75" cy="-162" rx="44.41" ry="18"/>
<text text-anchor="middle" x="1208.75" y="-159.8" font-family="Times,serif" font-size="9.00">GetSubGoal!***</text>
</g>
<!-- Fallback**&#45;&gt;GetSubGoal!*** -->
<g id="edge37" class="edge">
<title>Fallback**&#45;&gt;GetSubGoal!***</title>
<path fill="none" stroke="black" d="M1118.35,-219.5C1135.03,-209.08 1158.36,-194.49 1177.15,-182.75"/>
<polygon fill="black" stroke="black" points="1179.06,-185.69 1185.68,-177.42 1175.35,-179.75 1179.06,-185.69"/>
</g>
<!-- ReachGoal?*** -->
<g id="node21" class="node">
<title>ReachGoal?***</title>
<ellipse fill="gray" stroke="black" cx="394.75" cy="-90" rx="42.29" ry="18"/>
<text text-anchor="middle" x="394.75" y="-87.8" font-family="Times,serif" font-size="9.00">ReachGoal?***</text>
</g>
<!-- Sequence**&#45;&gt;ReachGoal?*** -->
<g id="edge20" class="edge">
<title>Sequence**&#45;&gt;ReachGoal?***</title>
<path fill="none" stroke="black" d="M954.9,-160.27C866.24,-157.91 634.4,-148.06 445.75,-108 442.32,-107.27 438.79,-106.39 435.27,-105.41"/>
<polygon fill="black" stroke="black" points="436.05,-101.99 425.46,-102.47 434.03,-108.7 436.05,-101.99"/>
</g>
<!-- GetLk! -->
<g id="node22" class="node">
<title>GetLk!</title>
<ellipse fill="gray" stroke="black" cx="481.75" cy="-90" rx="27" ry="18"/>
<text text-anchor="middle" x="481.75" y="-87.8" font-family="Times,serif" font-size="9.00">GetLk!</text>
</g>
<!-- Sequence**&#45;&gt;GetLk! -->
<g id="edge21" class="edge">
<title>Sequence**&#45;&gt;GetLk!</title>
<path fill="none" stroke="black" d="M955,-160.97C874.27,-160.02 676.09,-152.89 517.75,-108 515.81,-107.45 513.84,-106.8 511.87,-106.09"/>
<polygon fill="black" stroke="black" points="512.82,-102.69 502.24,-102.09 510.14,-109.16 512.82,-102.69"/>
</g>
<!-- LkGraph?* -->
<g id="node23" class="node">
<title>LkGraph?*</title>
<ellipse fill="gray" stroke="black" cx="559.75" cy="-90" rx="32.82" ry="18"/>
<text text-anchor="middle" x="559.75" y="-87.8" font-family="Times,serif" font-size="9.00">LkGraph?*</text>
</g>
<!-- Sequence**&#45;&gt;LkGraph?* -->
<g id="edge22" class="edge">
<title>Sequence**&#45;&gt;LkGraph?*</title>
<path fill="none" stroke="black" d="M954.86,-159.06C884.93,-154.7 728.71,-141.75 601.75,-108 599.14,-107.3 596.46,-106.49 593.8,-105.6"/>
<polygon fill="black" stroke="black" points="594.87,-102.26 584.28,-102.12 592.47,-108.84 594.87,-102.26"/>
</g>
<!-- MoveTo!*** -->
<g id="node24" class="node">
<title>MoveTo!***</title>
<ellipse fill="gray" stroke="black" cx="647.75" cy="-90" rx="36.9" ry="18"/>
<text text-anchor="middle" x="647.75" y="-87.8" font-family="Times,serif" font-size="9.00">MoveTo!***</text>
</g>
<!-- Sequence**&#45;&gt;MoveTo!*** -->
<g id="edge23" class="edge">
<title>Sequence**&#45;&gt;MoveTo!***</title>
<path fill="none" stroke="black" d="M954.59,-156.55C897.73,-149.27 786.05,-133.05 693.75,-108 690.81,-107.2 687.79,-106.29 684.77,-105.32"/>
<polygon fill="black" stroke="black" points="685.82,-101.98 675.23,-102.06 683.56,-108.6 685.82,-101.98"/>
</g>
<!-- CompLkGraph!* -->
<g id="node25" class="node">
<title>CompLkGraph!*</title>
<ellipse fill="gray" stroke="black" cx="747.75" cy="-90" rx="45.07" ry="18"/>
<text text-anchor="middle" x="747.75" y="-87.8" font-family="Times,serif" font-size="9.00">CompLkGraph!*</text>
</g>
<!-- Sequence**&#45;&gt;CompLkGraph!* -->
<g id="edge24" class="edge">
<title>Sequence**&#45;&gt;CompLkGraph!*</title>
<path fill="none" stroke="black" d="M959.39,-152.32C921.5,-142.08 856.91,-124.37 801.75,-108 798.4,-107.01 794.94,-105.96 791.46,-104.89"/>
<polygon fill="black" stroke="black" points="792.28,-101.48 781.69,-101.87 790.21,-108.17 792.28,-101.48"/>
</g>
<!-- NotReadyForSG? -->
<g id="node26" class="node">
<title>NotReadyForSG?</title>
<ellipse fill="gray" stroke="black" cx="857.75" cy="-90" rx="46.53" ry="18"/>
<text text-anchor="middle" x="857.75" y="-87.8" font-family="Times,serif" font-size="9.00">NotReadyForSG?</text>
</g>
<!-- Sequence**&#45;&gt;NotReadyForSG? -->
<g id="edge25" class="edge">
<title>Sequence**&#45;&gt;NotReadyForSG?</title>
<path fill="none" stroke="black" d="M967.49,-148.32C946.85,-137.54 916.92,-121.91 893.53,-109.69"/>
<polygon fill="black" stroke="black" points="895.08,-106.55 884.6,-105.02 891.84,-112.76 895.08,-106.55"/>
</g>
<!-- GetLk!* -->
<g id="node27" class="node">
<title>GetLk!*</title>
<ellipse fill="gray" stroke="black" cx="949.75" cy="-90" rx="27.27" ry="18"/>
<text text-anchor="middle" x="949.75" y="-87.8" font-family="Times,serif" font-size="9.00">GetLk!*</text>
</g>
<!-- Sequence**&#45;&gt;GetLk!* -->
<g id="edge26" class="edge">
<title>Sequence**&#45;&gt;GetLk!*</title>
<path fill="none" stroke="black" d="M981.37,-143.7C976.34,-135.32 970.21,-125.1 964.69,-115.9"/>
<polygon fill="black" stroke="black" points="967.59,-113.92 959.44,-107.14 961.58,-117.52 967.59,-113.92"/>
</g>
<!-- MoveTo!**** -->
<g id="node28" class="node">
<title>MoveTo!****</title>
<ellipse fill="gray" stroke="black" cx="1033.75" cy="-90" rx="39.02" ry="18"/>
<text text-anchor="middle" x="1033.75" y="-87.8" font-family="Times,serif" font-size="9.00">MoveTo!****</text>
</g>
<!-- Sequence**&#45;&gt;MoveTo!**** -->
<g id="edge27" class="edge">
<title>Sequence**&#45;&gt;MoveTo!****</title>
<path fill="none" stroke="black" d="M1002.14,-143.7C1007.09,-135.44 1013.12,-125.39 1018.57,-116.3"/>
<polygon fill="black" stroke="black" points="1021.64,-118 1023.78,-107.62 1015.63,-114.4 1021.64,-118"/>
</g>
<!-- GetSubGoal!* -->
<g id="node29" class="node">
<title>GetSubGoal!*</title>
<ellipse fill="gray" stroke="black" cx="1130.75" cy="-90" rx="39.02" ry="18"/>
<text text-anchor="middle" x="1130.75" y="-87.8" font-family="Times,serif" font-size="9.00">GetSubGoal!*</text>
</g>
<!-- Sequence**&#45;&gt;GetSubGoal!* -->
<g id="edge28" class="edge">
<title>Sequence**&#45;&gt;GetSubGoal!*</title>
<path fill="none" stroke="black" d="M1016.6,-148.49C1038.76,-137.33 1071.42,-120.88 1096.13,-108.43"/>
<polygon fill="black" stroke="black" points="1097.82,-111.5 1105.18,-103.88 1094.67,-105.25 1097.82,-111.5"/>
</g>
<!-- CompLkGraph!** -->
<g id="node30" class="node">
<title>CompLkGraph!**</title>
<ellipse fill="gray" stroke="black" cx="1235.75" cy="-90" rx="47.84" ry="18"/>
<text text-anchor="middle" x="1235.75" y="-87.8" font-family="Times,serif" font-size="9.00">CompLkGraph!**</text>
</g>
<!-- Sequence**&#45;&gt;CompLkGraph!** -->
<g id="edge29" class="edge">
<title>Sequence**&#45;&gt;CompLkGraph!**</title>
<path fill="none" stroke="black" d="M1019.81,-150.1C1025.7,-147.97 1031.9,-145.82 1037.75,-144 1099.5,-124.76 1116.42,-125.25 1178.75,-108 1182.35,-107.01 1186.07,-105.95 1189.8,-104.88"/>
<polygon fill="black" stroke="black" points="1191.01,-108.17 1199.63,-102.01 1189.05,-101.45 1191.01,-108.17"/>
</g>
<!-- LkClose?***** -->
<g id="node31" class="node">
<title>LkClose?*****</title>
<ellipse fill="gray" stroke="black" cx="1343.75" cy="-90" rx="42.29" ry="18"/>
<text text-anchor="middle" x="1343.75" y="-87.8" font-family="Times,serif" font-size="9.00">LkClose?*****</text>
</g>
<!-- Sequence**&#45;&gt;LkClose?***** -->
<g id="edge30" class="edge">
<title>Sequence**&#45;&gt;LkClose?*****</title>
<path fill="none" stroke="black" d="M1019.18,-149.78C1025.22,-147.61 1031.65,-145.54 1037.75,-144 1148.73,-116 1181.34,-134.21 1292.75,-108 1296.13,-107.21 1299.59,-106.29 1303.06,-105.29"/>
<polygon fill="black" stroke="black" points="1304.18,-108.61 1312.73,-102.34 1302.14,-101.91 1304.18,-108.61"/>
</g>
<!-- Fallback*** -->
<g id="node32" class="node">
<title>Fallback***</title>
<polygon fill="cyan" stroke="black" points="1479.24,-82.54 1479.24,-97.46 1457.28,-108 1426.23,-108 1404.26,-97.46 1404.26,-82.54 1426.23,-72 1457.28,-72 1479.24,-82.54"/>
<text text-anchor="middle" x="1441.75" y="-87.8" font-family="Times,serif" font-size="9.00">Fallback***</text>
</g>
<!-- Sequence**&#45;&gt;Fallback*** -->
<g id="edge31" class="edge">
<title>Sequence**&#45;&gt;Fallback***</title>
<path fill="none" stroke="black" d="M1019.14,-149.59C1025.18,-147.44 1031.62,-145.42 1037.75,-144 1193.13,-108.07 1239.26,-143.39 1394.75,-108 1397.79,-107.31 1400.89,-106.48 1403.99,-105.56"/>
<polygon fill="black" stroke="black" points="1405.32,-108.81 1413.76,-102.4 1403.17,-102.15 1405.32,-108.81"/>
</g>
<!-- MoveTo!***** -->
<g id="node35" class="node">
<title>MoveTo!*****</title>
<ellipse fill="gray" stroke="black" cx="1539.75" cy="-90" rx="42.29" ry="18"/>
<text text-anchor="middle" x="1539.75" y="-87.8" font-family="Times,serif" font-size="9.00">MoveTo!*****</text>
</g>
<!-- Sequence**&#45;&gt;MoveTo!***** -->
<g id="edge34" class="edge">
<title>Sequence**&#45;&gt;MoveTo!*****</title>
<path fill="none" stroke="black" d="M1018.63,-149.67C1024.81,-147.46 1031.44,-145.39 1037.75,-144 1233.69,-100.82 1291.03,-147.45 1487.75,-108 1491.57,-107.23 1495.5,-106.28 1499.41,-105.21"/>
<polygon fill="black" stroke="black" points="1500.4,-108.57 1509,-102.38 1498.42,-101.85 1500.4,-108.57"/>
</g>
<!-- GetSubGoal!** -->
<g id="node36" class="node">
<title>GetSubGoal!**</title>
<ellipse fill="gray" stroke="black" cx="1641.75" cy="-90" rx="42.29" ry="18"/>
<text text-anchor="middle" x="1641.75" y="-87.8" font-family="Times,serif" font-size="9.00">GetSubGoal!**</text>
</g>
<!-- Sequence**&#45;&gt;GetSubGoal!** -->
<g id="edge35" class="edge">
<title>Sequence**&#45;&gt;GetSubGoal!**</title>
<path fill="none" stroke="black" d="M1018.61,-149.6C1024.8,-147.39 1031.43,-145.35 1037.75,-144 1278.67,-92.78 1349.05,-155.33 1590.75,-108 1594.35,-107.29 1598.05,-106.41 1601.73,-105.4"/>
<polygon fill="black" stroke="black" points="1602.76,-108.75 1611.35,-102.55 1600.77,-102.04 1602.76,-108.75"/>
</g>
<!-- CompLkGraph!*** -->
<g id="node33" class="node">
<title>CompLkGraph!***</title>
<ellipse fill="gray" stroke="black" cx="1380.75" cy="-18" rx="50.46" ry="18"/>
<text text-anchor="middle" x="1380.75" y="-15.8" font-family="Times,serif" font-size="9.00">CompLkGraph!***</text>
</g>
<!-- Fallback***&#45;&gt;CompLkGraph!*** -->
<g id="edge32" class="edge">
<title>Fallback***&#45;&gt;CompLkGraph!***</title>
<path fill="none" stroke="black" d="M1426.68,-71.7C1419.18,-63.09 1409.99,-52.55 1401.81,-43.17"/>
<polygon fill="black" stroke="black" points="1404.45,-40.86 1395.24,-35.62 1399.17,-45.46 1404.45,-40.86"/>
</g>
<!-- CompLkGraph!**** -->
<g id="node34" class="node">
<title>CompLkGraph!****</title>
<ellipse fill="gray" stroke="black" cx="1501.75" cy="-18" rx="53.23" ry="18"/>
<text text-anchor="middle" x="1501.75" y="-15.8" font-family="Times,serif" font-size="9.00">CompLkGraph!****</text>
</g>
<!-- Fallback***&#45;&gt;CompLkGraph!**** -->
<g id="edge33" class="edge">
<title>Fallback***&#45;&gt;CompLkGraph!****</title>
<path fill="none" stroke="black" d="M1456.59,-71.7C1463.89,-63.18 1472.81,-52.76 1480.8,-43.45"/>
<polygon fill="black" stroke="black" points="1483.66,-45.49 1487.51,-35.62 1478.34,-40.94 1483.66,-45.49"/>
</g>
</g>
</svg>
