<?xml version="1.0" encoding="UTF-8" standalone="no"?>
<!DOCTYPE svg PUBLIC "-//W3C//DTD SVG 1.1//EN"
 "http://www.w3.org/Graphics/SVG/1.1/DTD/svg11.dtd">
<!-- Generated by graphviz version 2.43.0 (0)
 -->
<!-- Title: pastafarianism Pages: 1 -->
<svg width="791pt" height="332pt"
 viewBox="0.00 0.00 790.87 332.00" xmlns="http://www.w3.org/2000/svg" xmlns:xlink="http://www.w3.org/1999/xlink">
<g id="graph0" class="graph" transform="scale(1 1) rotate(0) translate(4 328)">
<title>pastafarianism</title>
<polygon fill="white" stroke="transparent" points="-4,4 -4,-328 786.87,-328 786.87,4 -4,4"/>
<!-- Fallback -->
<g id="node1" class="node">
<title>Fallback</title>
<polygon fill="cyan" stroke="black" points="526.19,-298.54 526.19,-313.46 509.06,-324 484.84,-324 467.71,-313.46 467.71,-298.54 484.84,-288 509.06,-288 526.19,-298.54"/>
<text text-anchor="middle" x="496.95" y="-303.8" font-family="Times,serif" font-size="9.00">Fallback</text>
</g>
<!-- ReachGoal? -->
<g id="node2" class="node">
<title>ReachGoal?</title>
<ellipse fill="gray" stroke="black" cx="376.95" cy="-234" rx="34.13" ry="18"/>
<text text-anchor="middle" x="376.95" y="-231.8" font-family="Times,serif" font-size="9.00">ReachGoal?</text>
</g>
<!-- Fallback&#45;&gt;ReachGoal? -->
<g id="edge1" class="edge">
<title>Fallback&#45;&gt;ReachGoal?</title>
<path fill="none" stroke="black" d="M476.32,-292.97C457.44,-281.95 429.25,-265.51 407.71,-252.94"/>
<polygon fill="black" stroke="black" points="409.33,-249.84 398.93,-247.82 405.81,-255.89 409.33,-249.84"/>
</g>
<!-- LkClose? -->
<g id="node3" class="node">
<title>LkClose?</title>
<ellipse fill="gray" stroke="black" cx="457.95" cy="-234" rx="28.74" ry="18"/>
<text text-anchor="middle" x="457.95" y="-231.8" font-family="Times,serif" font-size="9.00">LkClose?</text>
</g>
<!-- Fallback&#45;&gt;LkClose? -->
<g id="edge2" class="edge">
<title>Fallback&#45;&gt;LkClose?</title>
<path fill="none" stroke="black" d="M487.31,-287.7C482.64,-279.32 476.95,-269.1 471.82,-259.9"/>
<polygon fill="black" stroke="black" points="474.87,-258.18 466.95,-251.14 468.75,-261.58 474.87,-258.18"/>
</g>
<!-- Sequence -->
<g id="node4" class="node">
<title>Sequence</title>
<polygon fill="cyan" stroke="black" points="567.44,-226.54 567.44,-241.46 549,-252 522.91,-252 504.46,-241.46 504.46,-226.54 522.91,-216 549,-216 567.44,-226.54"/>
<text text-anchor="middle" x="535.95" y="-231.8" font-family="Times,serif" font-size="9.00">Sequence</text>
</g>
<!-- Fallback&#45;&gt;Sequence -->
<g id="edge3" class="edge">
<title>Fallback&#45;&gt;Sequence</title>
<path fill="none" stroke="black" d="M506.59,-287.7C511.08,-279.64 516.51,-269.89 521.47,-260.98"/>
<polygon fill="black" stroke="black" points="524.61,-262.54 526.42,-252.1 518.5,-259.14 524.61,-262.54"/>
</g>
<!-- Sequence** -->
<g id="node18" class="node">
<title>Sequence**</title>
<polygon fill="cyan" stroke="black" points="666.69,-226.54 666.69,-241.46 645.17,-252 614.73,-252 593.21,-241.46 593.21,-226.54 614.73,-216 645.17,-216 666.69,-226.54"/>
<text text-anchor="middle" x="629.95" y="-231.8" font-family="Times,serif" font-size="9.00">Sequence**</text>
</g>
<!-- Fallback&#45;&gt;Sequence** -->
<g id="edge17" class="edge">
<title>Fallback&#45;&gt;Sequence**</title>
<path fill="none" stroke="black" d="M518.62,-293.6C539.76,-282.47 572.23,-265.38 596.66,-252.52"/>
<polygon fill="black" stroke="black" points="598.37,-255.58 605.59,-247.82 595.11,-249.38 598.37,-255.58"/>
</g>
<!-- Fallback* -->
<g id="node5" class="node">
<title>Fallback*</title>
<polygon fill="cyan" stroke="black" points="480.69,-154.54 480.69,-169.46 462.1,-180 435.8,-180 417.21,-169.46 417.21,-154.54 435.8,-144 462.1,-144 480.69,-154.54"/>
<text text-anchor="middle" x="448.95" y="-159.8" font-family="Times,serif" font-size="9.00">Fallback*</text>
</g>
<!-- Sequence&#45;&gt;Fallback* -->
<g id="edge4" class="edge">
<title>Sequence&#45;&gt;Fallback*</title>
<path fill="none" stroke="black" d="M517.92,-218.5C505.56,-208.55 488.95,-195.19 475.14,-184.07"/>
<polygon fill="black" stroke="black" points="476.94,-181.03 466.95,-177.49 472.55,-186.48 476.94,-181.03"/>
</g>
<!-- MoveTo!*** -->
<g id="node17" class="node">
<title>MoveTo!***</title>
<ellipse fill="gray" stroke="black" cx="535.95" cy="-162" rx="36.9" ry="18"/>
<text text-anchor="middle" x="535.95" y="-159.8" font-family="Times,serif" font-size="9.00">MoveTo!***</text>
</g>
<!-- Sequence&#45;&gt;MoveTo!*** -->
<g id="edge16" class="edge">
<title>Sequence&#45;&gt;MoveTo!***</title>
<path fill="none" stroke="black" d="M535.95,-215.7C535.95,-207.98 535.95,-198.71 535.95,-190.11"/>
<polygon fill="black" stroke="black" points="539.45,-190.1 535.95,-180.1 532.45,-190.1 539.45,-190.1"/>
</g>
<!-- Sequence* -->
<g id="node6" class="node">
<title>Sequence*</title>
<polygon fill="cyan" stroke="black" points="384.19,-82.54 384.19,-97.46 364.13,-108 335.77,-108 315.71,-97.46 315.71,-82.54 335.77,-72 364.13,-72 384.19,-82.54"/>
<text text-anchor="middle" x="349.95" y="-87.8" font-family="Times,serif" font-size="9.00">Sequence*</text>
</g>
<!-- Fallback*&#45;&gt;Sequence* -->
<g id="edge5" class="edge">
<title>Fallback*&#45;&gt;Sequence*</title>
<path fill="none" stroke="black" d="M429.39,-147.17C414.71,-136.79 394.39,-122.42 377.98,-110.82"/>
<polygon fill="black" stroke="black" points="379.99,-107.96 369.81,-105.04 375.95,-113.67 379.99,-107.96"/>
</g>
<!-- NotReadyForSG? -->
<g id="node15" class="node">
<title>NotReadyForSG?</title>
<ellipse fill="gray" stroke="black" cx="448.95" cy="-90" rx="46.53" ry="18"/>
<text text-anchor="middle" x="448.95" y="-87.8" font-family="Times,serif" font-size="9.00">NotReadyForSG?</text>
</g>
<!-- Fallback*&#45;&gt;NotReadyForSG? -->
<g id="edge14" class="edge">
<title>Fallback*&#45;&gt;NotReadyForSG?</title>
<path fill="none" stroke="black" d="M448.95,-143.7C448.95,-135.98 448.95,-126.71 448.95,-118.11"/>
<polygon fill="black" stroke="black" points="452.45,-118.1 448.95,-108.1 445.45,-118.1 452.45,-118.1"/>
</g>
<!-- GetSubGoal!* -->
<g id="node16" class="node">
<title>GetSubGoal!*</title>
<ellipse fill="gray" stroke="black" cx="552.95" cy="-90" rx="39.02" ry="18"/>
<text text-anchor="middle" x="552.95" y="-87.8" font-family="Times,serif" font-size="9.00">GetSubGoal!*</text>
</g>
<!-- Fallback*&#45;&gt;GetSubGoal!* -->
<g id="edge15" class="edge">
<title>Fallback*&#45;&gt;GetSubGoal!*</title>
<path fill="none" stroke="black" d="M469,-147.5C484.28,-137.22 505.57,-122.89 522.89,-111.23"/>
<polygon fill="black" stroke="black" points="525.19,-113.91 531.53,-105.42 521.28,-108.1 525.19,-113.91"/>
</g>
<!-- ReachGoal?* -->
<g id="node7" class="node">
<title>ReachGoal?*</title>
<ellipse fill="gray" stroke="black" cx="36.95" cy="-18" rx="36.9" ry="18"/>
<text text-anchor="middle" x="36.95" y="-15.8" font-family="Times,serif" font-size="9.00">ReachGoal?*</text>
</g>
<!-- Sequence*&#45;&gt;ReachGoal?* -->
<g id="edge6" class="edge">
<title>Sequence*&#45;&gt;ReachGoal?*</title>
<path fill="none" stroke="black" d="M315.4,-83.93C264.11,-76.01 165.05,-59.16 82.95,-36 80.18,-35.22 77.35,-34.35 74.51,-33.43"/>
<polygon fill="black" stroke="black" points="75.53,-30.08 64.94,-30.14 73.26,-36.7 75.53,-30.08"/>
</g>
<!-- MoveTo! -->
<g id="node8" class="node">
<title>MoveTo!</title>
<ellipse fill="gray" stroke="black" cx="120.95" cy="-18" rx="28.74" ry="18"/>
<text text-anchor="middle" x="120.95" y="-15.8" font-family="Times,serif" font-size="9.00">MoveTo!</text>
</g>
<!-- Sequence*&#45;&gt;MoveTo! -->
<g id="edge7" class="edge">
<title>Sequence*&#45;&gt;MoveTo!</title>
<path fill="none" stroke="black" d="M317.38,-81.54C278.99,-72.39 213.51,-55.65 158.95,-36 156.85,-35.24 154.71,-34.42 152.55,-33.56"/>
<polygon fill="black" stroke="black" points="153.8,-30.29 143.23,-29.63 151.08,-36.74 153.8,-30.29"/>
</g>
<!-- CompLkGraph! -->
<g id="node9" class="node">
<title>CompLkGraph!</title>
<ellipse fill="gray" stroke="black" cx="210.95" cy="-18" rx="42.95" ry="18"/>
<text text-anchor="middle" x="210.95" y="-15.8" font-family="Times,serif" font-size="9.00">CompLkGraph!</text>
</g>
<!-- Sequence*&#45;&gt;CompLkGraph! -->
<g id="edge8" class="edge">
<title>Sequence*&#45;&gt;CompLkGraph!</title>
<path fill="none" stroke="black" d="M326.06,-76.97C304.17,-65.94 271.48,-49.48 246.52,-36.91"/>
<polygon fill="black" stroke="black" points="247.88,-33.68 237.37,-32.31 244.73,-39.93 247.88,-33.68"/>
</g>
<!-- MoveTo!* -->
<g id="node10" class="node">
<title>MoveTo!*</title>
<ellipse fill="gray" stroke="black" cx="302.95" cy="-18" rx="31.51" ry="18"/>
<text text-anchor="middle" x="302.95" y="-15.8" font-family="Times,serif" font-size="9.00">MoveTo!*</text>
</g>
<!-- Sequence*&#45;&gt;MoveTo!* -->
<g id="edge9" class="edge">
<title>Sequence*&#45;&gt;MoveTo!*</title>
<path fill="none" stroke="black" d="M338.33,-71.7C332.65,-63.23 325.7,-52.89 319.48,-43.61"/>
<polygon fill="black" stroke="black" points="322.27,-41.5 313.79,-35.14 316.46,-45.4 322.27,-41.5"/>
</g>
<!-- CompLkGraph!* -->
<g id="node11" class="node">
<title>CompLkGraph!*</title>
<ellipse fill="gray" stroke="black" cx="397.95" cy="-18" rx="45.07" ry="18"/>
<text text-anchor="middle" x="397.95" y="-15.8" font-family="Times,serif" font-size="9.00">CompLkGraph!*</text>
</g>
<!-- Sequence*&#45;&gt;CompLkGraph!* -->
<g id="edge10" class="edge">
<title>Sequence*&#45;&gt;CompLkGraph!*</title>
<path fill="none" stroke="black" d="M361.82,-71.7C367.54,-63.35 374.51,-53.18 380.8,-44.02"/>
<polygon fill="black" stroke="black" points="383.78,-45.85 386.55,-35.62 378.01,-41.89 383.78,-45.85"/>
</g>
<!-- LkClose?* -->
<g id="node12" class="node">
<title>LkClose?*</title>
<ellipse fill="gray" stroke="black" cx="492.95" cy="-18" rx="31.51" ry="18"/>
<text text-anchor="middle" x="492.95" y="-15.8" font-family="Times,serif" font-size="9.00">LkClose?*</text>
</g>
<!-- Sequence*&#45;&gt;LkClose?* -->
<g id="edge11" class="edge">
<title>Sequence*&#45;&gt;LkClose?*</title>
<path fill="none" stroke="black" d="M374.21,-77.13C397.91,-65.52 434.15,-47.78 460.36,-34.95"/>
<polygon fill="black" stroke="black" points="462.08,-38.01 469.52,-30.47 459,-31.72 462.08,-38.01"/>
</g>
<!-- MoveTo!** -->
<g id="node13" class="node">
<title>MoveTo!**</title>
<ellipse fill="gray" stroke="black" cx="576.95" cy="-18" rx="34.13" ry="18"/>
<text text-anchor="middle" x="576.95" y="-15.8" font-family="Times,serif" font-size="9.00">MoveTo!**</text>
</g>
<!-- Sequence*&#45;&gt;MoveTo!** -->
<g id="edge12" class="edge">
<title>Sequence*&#45;&gt;MoveTo!**</title>
<path fill="none" stroke="black" d="M376.14,-78.04C381.64,-75.9 387.45,-73.78 392.95,-72 454.48,-52.07 472.42,-55.93 533.95,-36 536.36,-35.22 538.82,-34.38 541.29,-33.49"/>
<polygon fill="black" stroke="black" points="542.62,-36.74 550.76,-29.96 540.17,-30.18 542.62,-36.74"/>
</g>
<!-- GetSubGoal! -->
<g id="node14" class="node">
<title>GetSubGoal!</title>
<ellipse fill="gray" stroke="black" cx="665.95" cy="-18" rx="36.9" ry="18"/>
<text text-anchor="middle" x="665.95" y="-15.8" font-family="Times,serif" font-size="9.00">GetSubGoal!</text>
</g>
<!-- Sequence*&#45;&gt;GetSubGoal! -->
<g id="edge13" class="edge">
<title>Sequence*&#45;&gt;GetSubGoal!</title>
<path fill="none" stroke="black" d="M375.56,-77.82C381.21,-75.65 387.22,-73.57 392.95,-72 491.48,-45.06 521.12,-61.83 619.95,-36 622.9,-35.23 625.93,-34.34 628.95,-33.38"/>
<polygon fill="black" stroke="black" points="630.16,-36.67 638.5,-30.14 627.91,-30.04 630.16,-36.67"/>
</g>
<!-- ReachGoal?** -->
<g id="node19" class="node">
<title>ReachGoal?**</title>
<ellipse fill="gray" stroke="black" cx="629.95" cy="-162" rx="39.02" ry="18"/>
<text text-anchor="middle" x="629.95" y="-159.8" font-family="Times,serif" font-size="9.00">ReachGoal?**</text>
</g>
<!-- Sequence**&#45;&gt;ReachGoal?** -->
<g id="edge18" class="edge">
<title>Sequence**&#45;&gt;ReachGoal?**</title>
<path fill="none" stroke="black" d="M629.95,-215.7C629.95,-207.98 629.95,-198.71 629.95,-190.11"/>
<polygon fill="black" stroke="black" points="633.45,-190.1 629.95,-180.1 626.45,-190.1 633.45,-190.1"/>
</g>
<!-- CompLkGraph!** -->
<g id="node20" class="node">
<title>CompLkGraph!**</title>
<ellipse fill="gray" stroke="black" cx="734.95" cy="-162" rx="47.84" ry="18"/>
<text text-anchor="middle" x="734.95" y="-159.8" font-family="Times,serif" font-size="9.00">CompLkGraph!**</text>
</g>
<!-- Sequence**&#45;&gt;CompLkGraph!** -->
<g id="edge19" class="edge">
<title>Sequence**&#45;&gt;CompLkGraph!**</title>
<path fill="none" stroke="black" d="M651.2,-218.83C666.3,-208.76 686.83,-195.08 703.79,-183.77"/>
<polygon fill="black" stroke="black" points="705.9,-186.57 712.28,-178.11 702.02,-180.75 705.9,-186.57"/>
</g>
</g>
</svg>
