<?xml version="1.0" encoding="UTF-8" standalone="no"?>
<!DOCTYPE svg PUBLIC "-//W3C//DTD SVG 1.1//EN"
 "http://www.w3.org/Graphics/SVG/1.1/DTD/svg11.dtd">
<!-- Generated by graphviz version 2.43.0 (0)
 -->
<!-- Title: pastafarianism Pages: 1 -->
<svg width="893pt" height="332pt"
 viewBox="0.00 0.00 892.79 332.00" xmlns="http://www.w3.org/2000/svg" xmlns:xlink="http://www.w3.org/1999/xlink">
<g id="graph0" class="graph" transform="scale(1 1) rotate(0) translate(4 328)">
<title>pastafarianism</title>
<polygon fill="white" stroke="transparent" points="-4,4 -4,-328 888.79,-328 888.79,4 -4,4"/>
<!-- Fallback -->
<g id="node1" class="node">
<title>Fallback</title>
<polygon fill="cyan" stroke="black" points="584,-298.54 584,-313.46 566.87,-324 542.64,-324 525.51,-313.46 525.51,-298.54 542.64,-288 566.87,-288 584,-298.54"/>
<text text-anchor="middle" x="554.75" y="-303.8" font-family="Times,serif" font-size="9.00">Fallback</text>
</g>
<!-- ReachGoal? -->
<g id="node2" class="node">
<title>ReachGoal?</title>
<ellipse fill="gray" stroke="black" cx="434.75" cy="-234" rx="34.13" ry="18"/>
<text text-anchor="middle" x="434.75" y="-231.8" font-family="Times,serif" font-size="9.00">ReachGoal?</text>
</g>
<!-- Fallback&#45;&gt;ReachGoal? -->
<g id="edge1" class="edge">
<title>Fallback&#45;&gt;ReachGoal?</title>
<path fill="none" stroke="black" d="M534.13,-292.97C515.25,-281.95 487.05,-265.51 465.51,-252.94"/>
<polygon fill="black" stroke="black" points="467.14,-249.84 456.74,-247.82 463.61,-255.89 467.14,-249.84"/>
</g>
<!-- LkClose? -->
<g id="node3" class="node">
<title>LkClose?</title>
<ellipse fill="gray" stroke="black" cx="515.75" cy="-234" rx="28.74" ry="18"/>
<text text-anchor="middle" x="515.75" y="-231.8" font-family="Times,serif" font-size="9.00">LkClose?</text>
</g>
<!-- Fallback&#45;&gt;LkClose? -->
<g id="edge2" class="edge">
<title>Fallback&#45;&gt;LkClose?</title>
<path fill="none" stroke="black" d="M545.11,-287.7C540.44,-279.32 534.75,-269.1 529.63,-259.9"/>
<polygon fill="black" stroke="black" points="532.67,-258.18 524.75,-251.14 526.56,-261.58 532.67,-258.18"/>
</g>
<!-- Sequence -->
<g id="node4" class="node">
<title>Sequence</title>
<polygon fill="cyan" stroke="black" points="625.25,-226.54 625.25,-241.46 606.8,-252 580.71,-252 562.26,-241.46 562.26,-226.54 580.71,-216 606.8,-216 625.25,-226.54"/>
<text text-anchor="middle" x="593.75" y="-231.8" font-family="Times,serif" font-size="9.00">Sequence</text>
</g>
<!-- Fallback&#45;&gt;Sequence -->
<g id="edge3" class="edge">
<title>Fallback&#45;&gt;Sequence</title>
<path fill="none" stroke="black" d="M564.39,-287.7C568.88,-279.64 574.31,-269.89 579.28,-260.98"/>
<polygon fill="black" stroke="black" points="582.42,-262.54 584.22,-252.1 576.3,-259.14 582.42,-262.54"/>
</g>
<!-- Sequence** -->
<g id="node20" class="node">
<title>Sequence**</title>
<polygon fill="cyan" stroke="black" points="774.5,-226.54 774.5,-241.46 752.97,-252 722.54,-252 701.01,-241.46 701.01,-226.54 722.54,-216 752.97,-216 774.5,-226.54"/>
<text text-anchor="middle" x="737.75" y="-231.8" font-family="Times,serif" font-size="9.00">Sequence**</text>
</g>
<!-- Fallback&#45;&gt;Sequence** -->
<g id="edge19" class="edge">
<title>Fallback&#45;&gt;Sequence**</title>
<path fill="none" stroke="black" d="M579.43,-295.56C610.38,-283.72 663.74,-263.31 699.87,-249.49"/>
<polygon fill="black" stroke="black" points="701.48,-252.62 709.57,-245.78 698.98,-246.08 701.48,-252.62"/>
</g>
<!-- Fallback* -->
<g id="node5" class="node">
<title>Fallback*</title>
<polygon fill="cyan" stroke="black" points="491.5,-154.54 491.5,-169.46 472.9,-180 446.61,-180 428.01,-169.46 428.01,-154.54 446.61,-144 472.9,-144 491.5,-154.54"/>
<text text-anchor="middle" x="459.75" y="-159.8" font-family="Times,serif" font-size="9.00">Fallback*</text>
</g>
<!-- Sequence&#45;&gt;Fallback* -->
<g id="edge4" class="edge">
<title>Sequence&#45;&gt;Fallback*</title>
<path fill="none" stroke="black" d="M571.33,-221.28C549.39,-209.83 515.8,-192.28 491.2,-179.43"/>
<polygon fill="black" stroke="black" points="492.74,-176.28 482.26,-174.75 489.5,-182.49 492.74,-176.28"/>
</g>
<!-- MoveTo!*** -->
<g id="node18" class="node">
<title>MoveTo!***</title>
<ellipse fill="gray" stroke="black" cx="546.75" cy="-162" rx="36.9" ry="18"/>
<text text-anchor="middle" x="546.75" y="-159.8" font-family="Times,serif" font-size="9.00">MoveTo!***</text>
</g>
<!-- Sequence&#45;&gt;MoveTo!*** -->
<g id="edge17" class="edge">
<title>Sequence&#45;&gt;MoveTo!***</title>
<path fill="none" stroke="black" d="M582.14,-215.7C576.53,-207.35 569.71,-197.18 563.55,-188.02"/>
<polygon fill="black" stroke="black" points="566.4,-185.97 557.91,-179.62 560.58,-189.88 566.4,-185.97"/>
</g>
<!-- MoveTo!**** -->
<g id="node19" class="node">
<title>MoveTo!****</title>
<ellipse fill="gray" stroke="black" cx="640.75" cy="-162" rx="39.02" ry="18"/>
<text text-anchor="middle" x="640.75" y="-159.8" font-family="Times,serif" font-size="9.00">MoveTo!****</text>
</g>
<!-- Sequence&#45;&gt;MoveTo!**** -->
<g id="edge18" class="edge">
<title>Sequence&#45;&gt;MoveTo!****</title>
<path fill="none" stroke="black" d="M605.37,-215.7C610.98,-207.35 617.8,-197.18 623.96,-188.02"/>
<polygon fill="black" stroke="black" points="626.92,-189.88 629.59,-179.62 621.11,-185.97 626.92,-189.88"/>
</g>
<!-- Sequence* -->
<g id="node6" class="node">
<title>Sequence*</title>
<polygon fill="cyan" stroke="black" points="395,-82.54 395,-97.46 374.94,-108 346.57,-108 326.51,-97.46 326.51,-82.54 346.57,-72 374.94,-72 395,-82.54"/>
<text text-anchor="middle" x="360.75" y="-87.8" font-family="Times,serif" font-size="9.00">Sequence*</text>
</g>
<!-- Fallback*&#45;&gt;Sequence* -->
<g id="edge5" class="edge">
<title>Fallback*&#45;&gt;Sequence*</title>
<path fill="none" stroke="black" d="M440.2,-147.17C425.51,-136.79 405.2,-122.42 388.79,-110.82"/>
<polygon fill="black" stroke="black" points="390.8,-107.96 380.61,-105.04 386.76,-113.67 390.8,-107.96"/>
</g>
<!-- NotReadyForSG? -->
<g id="node16" class="node">
<title>NotReadyForSG?</title>
<ellipse fill="gray" stroke="black" cx="459.75" cy="-90" rx="46.53" ry="18"/>
<text text-anchor="middle" x="459.75" y="-87.8" font-family="Times,serif" font-size="9.00">NotReadyForSG?</text>
</g>
<!-- Fallback*&#45;&gt;NotReadyForSG? -->
<g id="edge15" class="edge">
<title>Fallback*&#45;&gt;NotReadyForSG?</title>
<path fill="none" stroke="black" d="M459.75,-143.7C459.75,-135.98 459.75,-126.71 459.75,-118.11"/>
<polygon fill="black" stroke="black" points="463.25,-118.1 459.75,-108.1 456.25,-118.1 463.25,-118.1"/>
</g>
<!-- GetSubGoal!* -->
<g id="node17" class="node">
<title>GetSubGoal!*</title>
<ellipse fill="gray" stroke="black" cx="563.75" cy="-90" rx="39.02" ry="18"/>
<text text-anchor="middle" x="563.75" y="-87.8" font-family="Times,serif" font-size="9.00">GetSubGoal!*</text>
</g>
<!-- Fallback*&#45;&gt;GetSubGoal!* -->
<g id="edge16" class="edge">
<title>Fallback*&#45;&gt;GetSubGoal!*</title>
<path fill="none" stroke="black" d="M479.81,-147.5C495.09,-137.22 516.38,-122.89 533.69,-111.23"/>
<polygon fill="black" stroke="black" points="535.99,-113.91 542.33,-105.42 532.08,-108.1 535.99,-113.91"/>
</g>
<!-- LkClose?* -->
<g id="node7" class="node">
<title>LkClose?*</title>
<ellipse fill="gray" stroke="black" cx="31.75" cy="-18" rx="31.51" ry="18"/>
<text text-anchor="middle" x="31.75" y="-15.8" font-family="Times,serif" font-size="9.00">LkClose?*</text>
</g>
<!-- Sequence*&#45;&gt;LkClose?* -->
<g id="edge6" class="edge">
<title>Sequence*&#45;&gt;LkClose?*</title>
<path fill="none" stroke="black" d="M326.36,-85.18C271.62,-78.56 161.65,-62.99 71.75,-36 69.5,-35.32 67.2,-34.56 64.9,-33.74"/>
<polygon fill="black" stroke="black" points="66.14,-30.47 55.55,-30.13 63.62,-36.99 66.14,-30.47"/>
</g>
<!-- LkGraph? -->
<g id="node8" class="node">
<title>LkGraph?</title>
<ellipse fill="gray" stroke="black" cx="111.75" cy="-18" rx="30.7" ry="18"/>
<text text-anchor="middle" x="111.75" y="-15.8" font-family="Times,serif" font-size="9.00">LkGraph?</text>
</g>
<!-- Sequence*&#45;&gt;LkGraph? -->
<g id="edge7" class="edge">
<title>Sequence*&#45;&gt;LkGraph?</title>
<path fill="none" stroke="black" d="M326.99,-82.11C285.29,-73.23 212.41,-56.45 151.75,-36 149.38,-35.2 146.94,-34.32 144.51,-33.39"/>
<polygon fill="black" stroke="black" points="145.8,-30.14 135.21,-29.68 143.2,-36.64 145.8,-30.14"/>
</g>
<!-- ReachGoal?* -->
<g id="node9" class="node">
<title>ReachGoal?*</title>
<ellipse fill="gray" stroke="black" cx="197.75" cy="-18" rx="36.9" ry="18"/>
<text text-anchor="middle" x="197.75" y="-15.8" font-family="Times,serif" font-size="9.00">ReachGoal?*</text>
</g>
<!-- Sequence*&#45;&gt;ReachGoal?* -->
<g id="edge8" class="edge">
<title>Sequence*&#45;&gt;ReachGoal?*</title>
<path fill="none" stroke="black" d="M334.93,-77.91C307.71,-66.22 264.63,-47.72 234.01,-34.57"/>
<polygon fill="black" stroke="black" points="235.11,-31.24 224.54,-30.51 232.35,-37.67 235.11,-31.24"/>
</g>
<!-- MoveTo! -->
<g id="node10" class="node">
<title>MoveTo!</title>
<ellipse fill="gray" stroke="black" cx="281.75" cy="-18" rx="28.74" ry="18"/>
<text text-anchor="middle" x="281.75" y="-15.8" font-family="Times,serif" font-size="9.00">MoveTo!</text>
</g>
<!-- Sequence*&#45;&gt;MoveTo! -->
<g id="edge9" class="edge">
<title>Sequence*&#45;&gt;MoveTo!</title>
<path fill="none" stroke="black" d="M343.22,-73.46C332.03,-63.55 317.4,-50.59 305.22,-39.79"/>
<polygon fill="black" stroke="black" points="307.43,-37.08 297.63,-33.07 302.79,-42.32 307.43,-37.08"/>
</g>
<!-- MoveTo!* -->
<g id="node11" class="node">
<title>MoveTo!*</title>
<ellipse fill="gray" stroke="black" cx="360.75" cy="-18" rx="31.51" ry="18"/>
<text text-anchor="middle" x="360.75" y="-15.8" font-family="Times,serif" font-size="9.00">MoveTo!*</text>
</g>
<!-- Sequence*&#45;&gt;MoveTo!* -->
<g id="edge10" class="edge">
<title>Sequence*&#45;&gt;MoveTo!*</title>
<path fill="none" stroke="black" d="M360.75,-71.7C360.75,-63.98 360.75,-54.71 360.75,-46.11"/>
<polygon fill="black" stroke="black" points="364.25,-46.1 360.75,-36.1 357.25,-46.1 364.25,-46.1"/>
</g>
<!-- CompLkGraph! -->
<g id="node12" class="node">
<title>CompLkGraph!</title>
<ellipse fill="gray" stroke="black" cx="452.75" cy="-18" rx="42.95" ry="18"/>
<text text-anchor="middle" x="452.75" y="-15.8" font-family="Times,serif" font-size="9.00">CompLkGraph!</text>
</g>
<!-- Sequence*&#45;&gt;CompLkGraph! -->
<g id="edge11" class="edge">
<title>Sequence*&#45;&gt;CompLkGraph!</title>
<path fill="none" stroke="black" d="M379.82,-74.5C392.75,-64.65 410.07,-51.47 424.59,-40.43"/>
<polygon fill="black" stroke="black" points="426.92,-43.05 432.76,-34.21 422.68,-37.48 426.92,-43.05"/>
</g>
<!-- LkClose?** -->
<g id="node13" class="node">
<title>LkClose?**</title>
<ellipse fill="gray" stroke="black" cx="547.75" cy="-18" rx="34.13" ry="18"/>
<text text-anchor="middle" x="547.75" y="-15.8" font-family="Times,serif" font-size="9.00">LkClose?**</text>
</g>
<!-- Sequence*&#45;&gt;LkClose?** -->
<g id="edge12" class="edge">
<title>Sequence*&#45;&gt;LkClose?**</title>
<path fill="none" stroke="black" d="M387.54,-78.25C392.9,-76.14 398.49,-73.98 403.75,-72 448.36,-55.24 460.14,-52.76 504.75,-36 507.12,-35.11 509.56,-34.18 512.01,-33.24"/>
<polygon fill="black" stroke="black" points="513.38,-36.46 521.43,-29.57 510.84,-29.94 513.38,-36.46"/>
</g>
<!-- MoveTo!** -->
<g id="node14" class="node">
<title>MoveTo!**</title>
<ellipse fill="gray" stroke="black" cx="633.75" cy="-18" rx="34.13" ry="18"/>
<text text-anchor="middle" x="633.75" y="-15.8" font-family="Times,serif" font-size="9.00">MoveTo!**</text>
</g>
<!-- Sequence*&#45;&gt;MoveTo!** -->
<g id="edge13" class="edge">
<title>Sequence*&#45;&gt;MoveTo!**</title>
<path fill="none" stroke="black" d="M386.4,-77.96C392.05,-75.78 398.05,-73.66 403.75,-72 485.02,-48.34 509.49,-59.66 590.75,-36 593.34,-35.25 595.98,-34.4 598.63,-33.5"/>
<polygon fill="black" stroke="black" points="599.91,-36.76 608.1,-30.04 597.51,-30.18 599.91,-36.76"/>
</g>
<!-- GetSubGoal! -->
<g id="node15" class="node">
<title>GetSubGoal!</title>
<ellipse fill="gray" stroke="black" cx="722.75" cy="-18" rx="36.9" ry="18"/>
<text text-anchor="middle" x="722.75" y="-15.8" font-family="Times,serif" font-size="9.00">GetSubGoal!</text>
</g>
<!-- Sequence*&#45;&gt;GetSubGoal! -->
<g id="edge14" class="edge">
<title>Sequence*&#45;&gt;GetSubGoal!</title>
<path fill="none" stroke="black" d="M386.33,-77.7C391.99,-75.54 398,-73.49 403.75,-72 522.22,-41.27 557.95,-65.39 676.75,-36 679.72,-35.27 682.75,-34.41 685.78,-33.47"/>
<polygon fill="black" stroke="black" points="686.97,-36.76 695.34,-30.27 684.74,-30.12 686.97,-36.76"/>
</g>
<!-- ReachGoal?** -->
<g id="node21" class="node">
<title>ReachGoal?**</title>
<ellipse fill="gray" stroke="black" cx="737.75" cy="-162" rx="39.02" ry="18"/>
<text text-anchor="middle" x="737.75" y="-159.8" font-family="Times,serif" font-size="9.00">ReachGoal?**</text>
</g>
<!-- Sequence**&#45;&gt;ReachGoal?** -->
<g id="edge20" class="edge">
<title>Sequence**&#45;&gt;ReachGoal?**</title>
<path fill="none" stroke="black" d="M737.75,-215.7C737.75,-207.98 737.75,-198.71 737.75,-190.11"/>
<polygon fill="black" stroke="black" points="741.25,-190.1 737.75,-180.1 734.25,-190.1 741.25,-190.1"/>
</g>
<!-- CompLkGraph!* -->
<g id="node22" class="node">
<title>CompLkGraph!*</title>
<ellipse fill="gray" stroke="black" cx="839.75" cy="-162" rx="45.07" ry="18"/>
<text text-anchor="middle" x="839.75" y="-159.8" font-family="Times,serif" font-size="9.00">CompLkGraph!*</text>
</g>
<!-- Sequence**&#45;&gt;CompLkGraph!* -->
<g id="edge21" class="edge">
<title>Sequence**&#45;&gt;CompLkGraph!*</title>
<path fill="none" stroke="black" d="M758.89,-218.5C773.46,-208.49 793.06,-195.05 809.31,-183.89"/>
<polygon fill="black" stroke="black" points="811.68,-186.51 817.94,-177.97 807.72,-180.74 811.68,-186.51"/>
</g>
</g>
</svg>
