<?xml version="1.0" encoding="UTF-8" standalone="no"?>
<!DOCTYPE svg PUBLIC "-//W3C//DTD SVG 1.1//EN"
 "http://www.w3.org/Graphics/SVG/1.1/DTD/svg11.dtd">
<!-- Generated by graphviz version 2.43.0 (0)
 -->
<!-- Title: pastafarianism Pages: 1 -->
<svg width="946pt" height="548pt"
 viewBox="0.00 0.00 945.72 548.00" xmlns="http://www.w3.org/2000/svg" xmlns:xlink="http://www.w3.org/1999/xlink">
<g id="graph0" class="graph" transform="scale(1 1) rotate(0) translate(4 544)">
<title>pastafarianism</title>
<polygon fill="white" stroke="transparent" points="-4,4 -4,-544 941.72,-544 941.72,4 -4,4"/>
<!-- Fallback -->
<g id="node1" class="node">
<title>Fallback</title>
<polygon fill="cyan" stroke="black" points="635.5,-514.54 635.5,-529.46 618.37,-540 594.15,-540 577.02,-529.46 577.02,-514.54 594.15,-504 618.37,-504 635.5,-514.54"/>
<text text-anchor="middle" x="606.26" y="-519.8" font-family="Times,serif" font-size="9.00">Fallback</text>
</g>
<!-- ReachGoal? -->
<g id="node2" class="node">
<title>ReachGoal?</title>
<ellipse fill="gray" stroke="black" cx="486.26" cy="-450" rx="34.13" ry="18"/>
<text text-anchor="middle" x="486.26" y="-447.8" font-family="Times,serif" font-size="9.00">ReachGoal?</text>
</g>
<!-- Fallback&#45;&gt;ReachGoal? -->
<g id="edge1" class="edge">
<title>Fallback&#45;&gt;ReachGoal?</title>
<path fill="none" stroke="black" d="M585.63,-508.97C566.75,-497.95 538.56,-481.51 517.02,-468.94"/>
<polygon fill="black" stroke="black" points="518.64,-465.84 508.24,-463.82 515.12,-471.89 518.64,-465.84"/>
</g>
<!-- LkClose? -->
<g id="node3" class="node">
<title>LkClose?</title>
<ellipse fill="gray" stroke="black" cx="567.26" cy="-450" rx="28.74" ry="18"/>
<text text-anchor="middle" x="567.26" y="-447.8" font-family="Times,serif" font-size="9.00">LkClose?</text>
</g>
<!-- Fallback&#45;&gt;LkClose? -->
<g id="edge2" class="edge">
<title>Fallback&#45;&gt;LkClose?</title>
<path fill="none" stroke="black" d="M596.62,-503.7C591.95,-495.32 586.26,-485.1 581.13,-475.9"/>
<polygon fill="black" stroke="black" points="584.18,-474.18 576.25,-467.14 578.06,-477.58 584.18,-474.18"/>
</g>
<!-- Sequence -->
<g id="node4" class="node">
<title>Sequence</title>
<polygon fill="cyan" stroke="black" points="676.75,-442.54 676.75,-457.46 658.31,-468 632.21,-468 613.77,-457.46 613.77,-442.54 632.21,-432 658.31,-432 676.75,-442.54"/>
<text text-anchor="middle" x="645.26" y="-447.8" font-family="Times,serif" font-size="9.00">Sequence</text>
</g>
<!-- Fallback&#45;&gt;Sequence -->
<g id="edge3" class="edge">
<title>Fallback&#45;&gt;Sequence</title>
<path fill="none" stroke="black" d="M615.9,-503.7C620.39,-495.64 625.82,-485.89 630.78,-476.98"/>
<polygon fill="black" stroke="black" points="633.92,-478.54 635.73,-468.1 627.81,-475.14 633.92,-478.54"/>
</g>
<!-- Sequence*** -->
<g id="node35" class="node">
<title>Sequence***</title>
<polygon fill="cyan" stroke="black" points="792.25,-442.54 792.25,-457.46 768.82,-468 735.7,-468 712.27,-457.46 712.27,-442.54 735.7,-432 768.82,-432 792.25,-442.54"/>
<text text-anchor="middle" x="752.26" y="-447.8" font-family="Times,serif" font-size="9.00">Sequence***</text>
</g>
<!-- Fallback&#45;&gt;Sequence*** -->
<g id="edge34" class="edge">
<title>Fallback&#45;&gt;Sequence***</title>
<path fill="none" stroke="black" d="M628.75,-510.22C652.15,-499 689.13,-481.27 716.53,-468.13"/>
<polygon fill="black" stroke="black" points="718.28,-471.17 725.78,-463.69 715.25,-464.86 718.28,-471.17"/>
</g>
<!-- Fallback* -->
<g id="node5" class="node">
<title>Fallback*</title>
<polygon fill="cyan" stroke="black" points="580,-370.54 580,-385.46 561.41,-396 535.11,-396 516.52,-385.46 516.52,-370.54 535.11,-360 561.41,-360 580,-370.54"/>
<text text-anchor="middle" x="548.26" y="-375.8" font-family="Times,serif" font-size="9.00">Fallback*</text>
</g>
<!-- Sequence&#45;&gt;Fallback* -->
<g id="edge4" class="edge">
<title>Sequence&#45;&gt;Fallback*</title>
<path fill="none" stroke="black" d="M626.1,-435.17C611.75,-424.82 591.91,-410.5 575.86,-398.91"/>
<polygon fill="black" stroke="black" points="577.54,-395.81 567.38,-392.8 573.44,-401.49 577.54,-395.81"/>
</g>
<!-- MoveTo!******* -->
<g id="node34" class="node">
<title>MoveTo!*******</title>
<ellipse fill="gray" stroke="black" cx="645.26" cy="-378" rx="47.19" ry="18"/>
<text text-anchor="middle" x="645.26" y="-375.8" font-family="Times,serif" font-size="9.00">MoveTo!*******</text>
</g>
<!-- Sequence&#45;&gt;MoveTo!******* -->
<g id="edge33" class="edge">
<title>Sequence&#45;&gt;MoveTo!*******</title>
<path fill="none" stroke="black" d="M645.26,-431.7C645.26,-423.98 645.26,-414.71 645.26,-406.11"/>
<polygon fill="black" stroke="black" points="648.76,-406.1 645.26,-396.1 641.76,-406.1 648.76,-406.1"/>
</g>
<!-- Sequence* -->
<g id="node6" class="node">
<title>Sequence*</title>
<polygon fill="cyan" stroke="black" points="480.5,-298.54 480.5,-313.46 460.44,-324 432.08,-324 412.02,-313.46 412.02,-298.54 432.08,-288 460.44,-288 480.5,-298.54"/>
<text text-anchor="middle" x="446.26" y="-303.8" font-family="Times,serif" font-size="9.00">Sequence*</text>
</g>
<!-- Fallback*&#45;&gt;Sequence* -->
<g id="edge5" class="edge">
<title>Fallback*&#45;&gt;Sequence*</title>
<path fill="none" stroke="black" d="M528.59,-363.5C513.41,-353.08 492.18,-338.51 475.08,-326.78"/>
<polygon fill="black" stroke="black" points="476.79,-323.71 466.56,-320.93 472.83,-329.48 476.79,-323.71"/>
</g>
<!-- NotReadyForSG?* -->
<g id="node32" class="node">
<title>NotReadyForSG?*</title>
<ellipse fill="gray" stroke="black" cx="548.26" cy="-306" rx="49.8" ry="18"/>
<text text-anchor="middle" x="548.26" y="-303.8" font-family="Times,serif" font-size="9.00">NotReadyForSG?*</text>
</g>
<!-- Fallback*&#45;&gt;NotReadyForSG?* -->
<g id="edge31" class="edge">
<title>Fallback*&#45;&gt;NotReadyForSG?*</title>
<path fill="none" stroke="black" d="M548.26,-359.7C548.26,-351.98 548.26,-342.71 548.26,-334.11"/>
<polygon fill="black" stroke="black" points="551.76,-334.1 548.26,-324.1 544.76,-334.1 551.76,-334.1"/>
</g>
<!-- GetSubGoal!**** -->
<g id="node33" class="node">
<title>GetSubGoal!****</title>
<ellipse fill="gray" stroke="black" cx="663.26" cy="-306" rx="47.19" ry="18"/>
<text text-anchor="middle" x="663.26" y="-303.8" font-family="Times,serif" font-size="9.00">GetSubGoal!****</text>
</g>
<!-- Fallback*&#45;&gt;GetSubGoal!**** -->
<g id="edge32" class="edge">
<title>Fallback*&#45;&gt;GetSubGoal!****</title>
<path fill="none" stroke="black" d="M569.09,-364.32C586.15,-353.94 610.61,-339.05 630.32,-327.05"/>
<polygon fill="black" stroke="black" points="632.28,-329.95 639,-321.77 628.64,-323.97 632.28,-329.95"/>
</g>
<!-- ReachGoal?* -->
<g id="node7" class="node">
<title>ReachGoal?*</title>
<ellipse fill="gray" stroke="black" cx="51.26" cy="-234" rx="36.9" ry="18"/>
<text text-anchor="middle" x="51.26" y="-231.8" font-family="Times,serif" font-size="9.00">ReachGoal?*</text>
</g>
<!-- Sequence*&#45;&gt;ReachGoal?* -->
<g id="edge6" class="edge">
<title>Sequence*&#45;&gt;ReachGoal?*</title>
<path fill="none" stroke="black" d="M411.61,-302.09C348.37,-296.27 210.31,-281.15 97.26,-252 94.3,-251.24 91.28,-250.36 88.25,-249.4"/>
<polygon fill="black" stroke="black" points="89.29,-246.06 78.7,-246.17 87.05,-252.69 89.29,-246.06"/>
</g>
<!-- MoveTo! -->
<g id="node8" class="node">
<title>MoveTo!</title>
<ellipse fill="gray" stroke="black" cx="135.26" cy="-234" rx="28.74" ry="18"/>
<text text-anchor="middle" x="135.26" y="-231.8" font-family="Times,serif" font-size="9.00">MoveTo!</text>
</g>
<!-- Sequence*&#45;&gt;MoveTo! -->
<g id="edge7" class="edge">
<title>Sequence*&#45;&gt;MoveTo!</title>
<path fill="none" stroke="black" d="M412.02,-300.91C359.68,-294.1 257.04,-278.49 173.26,-252 171.13,-251.33 168.97,-250.57 166.8,-249.76"/>
<polygon fill="black" stroke="black" points="168.01,-246.47 157.43,-245.94 165.37,-252.96 168.01,-246.47"/>
</g>
<!-- CompLkGraph! -->
<g id="node9" class="node">
<title>CompLkGraph!</title>
<ellipse fill="gray" stroke="black" cx="225.26" cy="-234" rx="42.95" ry="18"/>
<text text-anchor="middle" x="225.26" y="-231.8" font-family="Times,serif" font-size="9.00">CompLkGraph!</text>
</g>
<!-- Sequence*&#45;&gt;CompLkGraph! -->
<g id="edge8" class="edge">
<title>Sequence*&#45;&gt;CompLkGraph!</title>
<path fill="none" stroke="black" d="M416.72,-295.98C382.77,-285.57 325.4,-267.85 276.26,-252 273.33,-251.06 270.32,-250.07 267.28,-249.08"/>
<polygon fill="black" stroke="black" points="268.2,-245.7 257.6,-245.89 266,-252.34 268.2,-245.7"/>
</g>
<!-- MoveTo!* -->
<g id="node10" class="node">
<title>MoveTo!*</title>
<ellipse fill="gray" stroke="black" cx="317.26" cy="-234" rx="31.51" ry="18"/>
<text text-anchor="middle" x="317.26" y="-231.8" font-family="Times,serif" font-size="9.00">MoveTo!*</text>
</g>
<!-- Sequence*&#45;&gt;MoveTo!* -->
<g id="edge9" class="edge">
<title>Sequence*&#45;&gt;MoveTo!*</title>
<path fill="none" stroke="black" d="M423.2,-292.49C402.43,-281.22 371.73,-264.56 348.72,-252.07"/>
<polygon fill="black" stroke="black" points="350.15,-248.87 339.69,-247.17 346.81,-255.02 350.15,-248.87"/>
</g>
<!-- LkClose?* -->
<g id="node11" class="node">
<title>LkClose?*</title>
<ellipse fill="gray" stroke="black" cx="399.26" cy="-234" rx="31.51" ry="18"/>
<text text-anchor="middle" x="399.26" y="-231.8" font-family="Times,serif" font-size="9.00">LkClose?*</text>
</g>
<!-- Sequence*&#45;&gt;LkClose?* -->
<g id="edge10" class="edge">
<title>Sequence*&#45;&gt;LkClose?*</title>
<path fill="none" stroke="black" d="M434.64,-287.7C428.96,-279.23 422.01,-268.89 415.78,-259.61"/>
<polygon fill="black" stroke="black" points="418.58,-257.5 410.1,-251.14 412.77,-261.4 418.58,-257.5"/>
</g>
<!-- CompLkGraph!* -->
<g id="node12" class="node">
<title>CompLkGraph!*</title>
<ellipse fill="gray" stroke="black" cx="494.26" cy="-234" rx="45.07" ry="18"/>
<text text-anchor="middle" x="494.26" y="-231.8" font-family="Times,serif" font-size="9.00">CompLkGraph!*</text>
</g>
<!-- Sequence*&#45;&gt;CompLkGraph!* -->
<g id="edge11" class="edge">
<title>Sequence*&#45;&gt;CompLkGraph!*</title>
<path fill="none" stroke="black" d="M458.12,-287.7C463.85,-279.35 470.82,-269.18 477.11,-260.02"/>
<polygon fill="black" stroke="black" points="480.09,-261.85 482.86,-251.62 474.32,-257.89 480.09,-261.85"/>
</g>
<!-- Fallback** -->
<g id="node13" class="node">
<title>Fallback**</title>
<polygon fill="cyan" stroke="black" points="627.25,-226.54 627.25,-241.46 606.75,-252 577.77,-252 557.27,-241.46 557.27,-226.54 577.77,-216 606.75,-216 627.25,-226.54"/>
<text text-anchor="middle" x="592.26" y="-231.8" font-family="Times,serif" font-size="9.00">Fallback**</text>
</g>
<!-- Sequence*&#45;&gt;Fallback** -->
<g id="edge12" class="edge">
<title>Sequence*&#45;&gt;Fallback**</title>
<path fill="none" stroke="black" d="M470.7,-293.28C494.66,-281.79 531.4,-264.18 558.22,-251.32"/>
<polygon fill="black" stroke="black" points="559.75,-254.47 567.25,-246.99 556.72,-248.16 559.75,-254.47"/>
</g>
<!-- LkClose?**** -->
<g id="node29" class="node">
<title>LkClose?****</title>
<ellipse fill="gray" stroke="black" cx="684.26" cy="-234" rx="39.02" ry="18"/>
<text text-anchor="middle" x="684.26" y="-231.8" font-family="Times,serif" font-size="9.00">LkClose?****</text>
</g>
<!-- Sequence*&#45;&gt;LkClose?**** -->
<g id="edge28" class="edge">
<title>Sequence*&#45;&gt;LkClose?****</title>
<path fill="none" stroke="black" d="M472.43,-294C477.94,-291.87 483.75,-289.75 489.26,-288 553.35,-267.59 571.81,-271.25 636.26,-252 639.17,-251.13 642.17,-250.19 645.17,-249.21"/>
<polygon fill="black" stroke="black" points="646.35,-252.5 654.71,-245.99 644.12,-245.87 646.35,-252.5"/>
</g>
<!-- MoveTo!****** -->
<g id="node30" class="node">
<title>MoveTo!******</title>
<ellipse fill="gray" stroke="black" cx="786.26" cy="-234" rx="44.41" ry="18"/>
<text text-anchor="middle" x="786.26" y="-231.8" font-family="Times,serif" font-size="9.00">MoveTo!******</text>
</g>
<!-- Sequence*&#45;&gt;MoveTo!****** -->
<g id="edge29" class="edge">
<title>Sequence*&#45;&gt;MoveTo!******</title>
<path fill="none" stroke="black" d="M471.86,-293.77C477.51,-291.61 483.52,-289.54 489.26,-288 594.72,-259.74 625.86,-276.47 732.26,-252 735.92,-251.16 739.7,-250.19 743.47,-249.15"/>
<polygon fill="black" stroke="black" points="744.74,-252.42 753.36,-246.26 742.78,-245.7 744.74,-252.42"/>
</g>
<!-- GetSubGoal!*** -->
<g id="node31" class="node">
<title>GetSubGoal!***</title>
<ellipse fill="gray" stroke="black" cx="893.26" cy="-234" rx="44.41" ry="18"/>
<text text-anchor="middle" x="893.26" y="-231.8" font-family="Times,serif" font-size="9.00">GetSubGoal!***</text>
</g>
<!-- Sequence*&#45;&gt;GetSubGoal!*** -->
<g id="edge30" class="edge">
<title>Sequence*&#45;&gt;GetSubGoal!***</title>
<path fill="none" stroke="black" d="M471.81,-293.58C477.46,-291.42 483.49,-289.41 489.26,-288 641.17,-250.91 686.12,-283.64 839.26,-252 843.1,-251.21 847.06,-250.25 851,-249.19"/>
<polygon fill="black" stroke="black" points="852.05,-252.53 860.7,-246.42 850.12,-245.8 852.05,-252.53"/>
</g>
<!-- Sequence** -->
<g id="node14" class="node">
<title>Sequence**</title>
<polygon fill="cyan" stroke="black" points="475,-154.54 475,-169.46 453.48,-180 423.04,-180 401.52,-169.46 401.52,-154.54 423.04,-144 453.48,-144 475,-154.54"/>
<text text-anchor="middle" x="438.26" y="-159.8" font-family="Times,serif" font-size="9.00">Sequence**</text>
</g>
<!-- Fallback**&#45;&gt;Sequence** -->
<g id="edge13" class="edge">
<title>Fallback**&#45;&gt;Sequence**</title>
<path fill="none" stroke="black" d="M566.83,-221.44C541.35,-209.86 501.92,-191.94 473.44,-178.99"/>
<polygon fill="black" stroke="black" points="474.79,-175.76 464.24,-174.81 471.9,-182.13 474.79,-175.76"/>
</g>
<!-- NotReadyForSG? -->
<g id="node26" class="node">
<title>NotReadyForSG?</title>
<ellipse fill="gray" stroke="black" cx="540.26" cy="-162" rx="46.53" ry="18"/>
<text text-anchor="middle" x="540.26" y="-159.8" font-family="Times,serif" font-size="9.00">NotReadyForSG?</text>
</g>
<!-- Fallback**&#45;&gt;NotReadyForSG? -->
<g id="edge25" class="edge">
<title>Fallback**&#45;&gt;NotReadyForSG?</title>
<path fill="none" stroke="black" d="M579.41,-215.7C573.14,-207.27 565.5,-196.97 558.63,-187.73"/>
<polygon fill="black" stroke="black" points="561.38,-185.56 552.61,-179.62 555.76,-189.74 561.38,-185.56"/>
</g>
<!-- GetSubGoal!* -->
<g id="node27" class="node">
<title>GetSubGoal!*</title>
<ellipse fill="gray" stroke="black" cx="644.26" cy="-162" rx="39.02" ry="18"/>
<text text-anchor="middle" x="644.26" y="-159.8" font-family="Times,serif" font-size="9.00">GetSubGoal!*</text>
</g>
<!-- Fallback**&#45;&gt;GetSubGoal!* -->
<g id="edge26" class="edge">
<title>Fallback**&#45;&gt;GetSubGoal!*</title>
<path fill="none" stroke="black" d="M605.11,-215.7C611.47,-207.14 619.25,-196.67 626.19,-187.33"/>
<polygon fill="black" stroke="black" points="629.11,-189.26 632.27,-179.14 623.49,-185.08 629.11,-189.26"/>
</g>
<!-- GetSubGoal!** -->
<g id="node28" class="node">
<title>GetSubGoal!**</title>
<ellipse fill="gray" stroke="black" cx="743.26" cy="-162" rx="42.29" ry="18"/>
<text text-anchor="middle" x="743.26" y="-159.8" font-family="Times,serif" font-size="9.00">GetSubGoal!**</text>
</g>
<!-- Fallback**&#45;&gt;GetSubGoal!** -->
<g id="edge27" class="edge">
<title>Fallback**&#45;&gt;GetSubGoal!**</title>
<path fill="none" stroke="black" d="M617.53,-221.28C641.87,-210 678.94,-192.82 706.53,-180.03"/>
<polygon fill="black" stroke="black" points="708.26,-183.08 715.86,-175.7 705.31,-176.73 708.26,-183.08"/>
</g>
<!-- ReachGoal?** -->
<g id="node15" class="node">
<title>ReachGoal?**</title>
<ellipse fill="gray" stroke="black" cx="39.26" cy="-90" rx="39.02" ry="18"/>
<text text-anchor="middle" x="39.26" y="-87.8" font-family="Times,serif" font-size="9.00">ReachGoal?**</text>
</g>
<!-- Sequence**&#45;&gt;ReachGoal?** -->
<g id="edge14" class="edge">
<title>Sequence**&#45;&gt;ReachGoal?**</title>
<path fill="none" stroke="black" d="M401.43,-157.77C336.99,-151.6 199.96,-136.19 87.26,-108 84.13,-107.22 80.92,-106.31 77.71,-105.33"/>
<polygon fill="black" stroke="black" points="78.77,-102 68.18,-102.24 76.61,-108.66 78.77,-102"/>
</g>
<!-- MoveTo!** -->
<g id="node16" class="node">
<title>MoveTo!**</title>
<ellipse fill="gray" stroke="black" cx="130.26" cy="-90" rx="34.13" ry="18"/>
<text text-anchor="middle" x="130.26" y="-87.8" font-family="Times,serif" font-size="9.00">MoveTo!**</text>
</g>
<!-- Sequence**&#45;&gt;MoveTo!** -->
<g id="edge15" class="edge">
<title>Sequence**&#45;&gt;MoveTo!**</title>
<path fill="none" stroke="black" d="M401.32,-155.75C349.64,-147.93 253.13,-131.57 173.26,-108 170.68,-107.24 168.04,-106.38 165.39,-105.48"/>
<polygon fill="black" stroke="black" points="166.51,-102.16 155.92,-102.01 164.11,-108.73 166.51,-102.16"/>
</g>
<!-- CompLkGraph!** -->
<g id="node17" class="node">
<title>CompLkGraph!**</title>
<ellipse fill="gray" stroke="black" cx="230.26" cy="-90" rx="47.84" ry="18"/>
<text text-anchor="middle" x="230.26" y="-87.8" font-family="Times,serif" font-size="9.00">CompLkGraph!**</text>
</g>
<!-- Sequence**&#45;&gt;CompLkGraph!** -->
<g id="edge16" class="edge">
<title>Sequence**&#45;&gt;CompLkGraph!**</title>
<path fill="none" stroke="black" d="M408.46,-150.97C373.38,-139.17 314.81,-119.45 274.45,-105.87"/>
<polygon fill="black" stroke="black" points="275.45,-102.52 264.86,-102.64 273.22,-109.15 275.45,-102.52"/>
</g>
<!-- MoveTo!*** -->
<g id="node18" class="node">
<title>MoveTo!***</title>
<ellipse fill="gray" stroke="black" cx="333.26" cy="-90" rx="36.9" ry="18"/>
<text text-anchor="middle" x="333.26" y="-87.8" font-family="Times,serif" font-size="9.00">MoveTo!***</text>
</g>
<!-- Sequence**&#45;&gt;MoveTo!*** -->
<g id="edge17" class="edge">
<title>Sequence**&#45;&gt;MoveTo!***</title>
<path fill="none" stroke="black" d="M417.01,-146.83C401.4,-136.42 379.98,-122.15 362.72,-110.64"/>
<polygon fill="black" stroke="black" points="364.38,-107.54 354.12,-104.91 360.5,-113.36 364.38,-107.54"/>
</g>
<!-- CompLkGraph!*** -->
<g id="node19" class="node">
<title>CompLkGraph!***</title>
<ellipse fill="gray" stroke="black" cx="438.26" cy="-90" rx="50.46" ry="18"/>
<text text-anchor="middle" x="438.26" y="-87.8" font-family="Times,serif" font-size="9.00">CompLkGraph!***</text>
</g>
<!-- Sequence**&#45;&gt;CompLkGraph!*** -->
<g id="edge18" class="edge">
<title>Sequence**&#45;&gt;CompLkGraph!***</title>
<path fill="none" stroke="black" d="M438.26,-143.7C438.26,-135.98 438.26,-126.71 438.26,-118.11"/>
<polygon fill="black" stroke="black" points="441.76,-118.1 438.26,-108.1 434.76,-118.1 441.76,-118.1"/>
</g>
<!-- Fallback*** -->
<g id="node20" class="node">
<title>Fallback***</title>
<polygon fill="cyan" stroke="black" points="581.75,-82.54 581.75,-97.46 559.79,-108 528.73,-108 506.77,-97.46 506.77,-82.54 528.73,-72 559.79,-72 581.75,-82.54"/>
<text text-anchor="middle" x="544.26" y="-87.8" font-family="Times,serif" font-size="9.00">Fallback***</text>
</g>
<!-- Sequence**&#45;&gt;Fallback*** -->
<g id="edge19" class="edge">
<title>Sequence**&#45;&gt;Fallback***</title>
<path fill="none" stroke="black" d="M459.71,-146.83C475.27,-136.56 496.53,-122.52 513.84,-111.09"/>
<polygon fill="black" stroke="black" points="516.06,-113.82 522.48,-105.38 512.2,-107.97 516.06,-113.82"/>
</g>
<!-- LkClose?*** -->
<g id="node23" class="node">
<title>LkClose?***</title>
<ellipse fill="gray" stroke="black" cx="636.26" cy="-90" rx="36.9" ry="18"/>
<text text-anchor="middle" x="636.26" y="-87.8" font-family="Times,serif" font-size="9.00">LkClose?***</text>
</g>
<!-- Sequence**&#45;&gt;LkClose?*** -->
<g id="edge22" class="edge">
<title>Sequence**&#45;&gt;LkClose?***</title>
<path fill="none" stroke="black" d="M466.93,-150.27C472.66,-148.16 478.64,-145.99 484.26,-144 531.15,-127.37 543.37,-124.63 590.26,-108 592.81,-107.1 595.43,-106.16 598.06,-105.2"/>
<polygon fill="black" stroke="black" points="599.4,-108.44 607.59,-101.73 597,-101.87 599.4,-108.44"/>
</g>
<!-- MoveTo!***** -->
<g id="node24" class="node">
<title>MoveTo!*****</title>
<ellipse fill="gray" stroke="black" cx="733.26" cy="-90" rx="42.29" ry="18"/>
<text text-anchor="middle" x="733.26" y="-87.8" font-family="Times,serif" font-size="9.00">MoveTo!*****</text>
</g>
<!-- Sequence**&#45;&gt;MoveTo!***** -->
<g id="edge23" class="edge">
<title>Sequence**&#45;&gt;MoveTo!*****</title>
<path fill="none" stroke="black" d="M465.74,-149.96C471.78,-147.78 478.18,-145.66 484.26,-144 570.54,-120.41 595.62,-130.2 682.26,-108 685.47,-107.18 688.77,-106.26 692.07,-105.28"/>
<polygon fill="black" stroke="black" points="693.4,-108.53 701.91,-102.23 691.32,-101.85 693.4,-108.53"/>
</g>
<!-- GetSubGoal! -->
<g id="node25" class="node">
<title>GetSubGoal!</title>
<ellipse fill="gray" stroke="black" cx="830.26" cy="-90" rx="36.9" ry="18"/>
<text text-anchor="middle" x="830.26" y="-87.8" font-family="Times,serif" font-size="9.00">GetSubGoal!</text>
</g>
<!-- Sequence**&#45;&gt;GetSubGoal! -->
<g id="edge24" class="edge">
<title>Sequence**&#45;&gt;GetSubGoal!</title>
<path fill="none" stroke="black" d="M465.66,-149.68C471.71,-147.52 478.14,-145.48 484.26,-144 614.8,-112.51 653.71,-139.49 784.26,-108 787.23,-107.28 790.26,-106.44 793.29,-105.51"/>
<polygon fill="black" stroke="black" points="794.48,-108.8 802.86,-102.32 792.26,-102.16 794.48,-108.8"/>
</g>
<!-- LkClose?** -->
<g id="node21" class="node">
<title>LkClose?**</title>
<ellipse fill="gray" stroke="black" cx="498.26" cy="-18" rx="34.13" ry="18"/>
<text text-anchor="middle" x="498.26" y="-15.8" font-family="Times,serif" font-size="9.00">LkClose?**</text>
</g>
<!-- Fallback***&#45;&gt;LkClose?** -->
<g id="edge20" class="edge">
<title>Fallback***&#45;&gt;LkClose?**</title>
<path fill="none" stroke="black" d="M532.89,-71.7C527.32,-63.23 520.53,-52.89 514.43,-43.61"/>
<polygon fill="black" stroke="black" points="517.29,-41.58 508.87,-35.14 511.44,-45.42 517.29,-41.58"/>
</g>
<!-- MoveTo!**** -->
<g id="node22" class="node">
<title>MoveTo!****</title>
<ellipse fill="gray" stroke="black" cx="589.26" cy="-18" rx="39.02" ry="18"/>
<text text-anchor="middle" x="589.26" y="-15.8" font-family="Times,serif" font-size="9.00">MoveTo!****</text>
</g>
<!-- Fallback***&#45;&gt;MoveTo!**** -->
<g id="edge21" class="edge">
<title>Fallback***&#45;&gt;MoveTo!****</title>
<path fill="none" stroke="black" d="M555.38,-71.7C560.69,-63.44 567.15,-53.39 573,-44.3"/>
<polygon fill="black" stroke="black" points="576.11,-45.93 578.57,-35.62 570.22,-42.14 576.11,-45.93"/>
</g>
<!-- ReachGoal?*** -->
<g id="node36" class="node">
<title>ReachGoal?***</title>
<ellipse fill="gray" stroke="black" cx="752.26" cy="-378" rx="42.29" ry="18"/>
<text text-anchor="middle" x="752.26" y="-375.8" font-family="Times,serif" font-size="9.00">ReachGoal?***</text>
</g>
<!-- Sequence***&#45;&gt;ReachGoal?*** -->
<g id="edge35" class="edge">
<title>Sequence***&#45;&gt;ReachGoal?***</title>
<path fill="none" stroke="black" d="M752.26,-431.7C752.26,-423.98 752.26,-414.71 752.26,-406.11"/>
<polygon fill="black" stroke="black" points="755.76,-406.1 752.26,-396.1 748.76,-406.1 755.76,-406.1"/>
</g>
<!-- CompLkGraph!**** -->
<g id="node37" class="node">
<title>CompLkGraph!****</title>
<ellipse fill="gray" stroke="black" cx="865.26" cy="-378" rx="53.23" ry="18"/>
<text text-anchor="middle" x="865.26" y="-375.8" font-family="Times,serif" font-size="9.00">CompLkGraph!****</text>
</g>
<!-- Sequence***&#45;&gt;CompLkGraph!**** -->
<g id="edge36" class="edge">
<title>Sequence***&#45;&gt;CompLkGraph!****</title>
<path fill="none" stroke="black" d="M775.13,-434.83C791.53,-424.67 813.88,-410.83 832.22,-399.46"/>
<polygon fill="black" stroke="black" points="834.2,-402.36 840.86,-394.11 830.52,-396.4 834.2,-402.36"/>
</g>
</g>
</svg>
