<?xml version="1.0" encoding="UTF-8" standalone="no"?>
<!DOCTYPE svg PUBLIC "-//W3C//DTD SVG 1.1//EN"
 "http://www.w3.org/Graphics/SVG/1.1/DTD/svg11.dtd">
<!-- Generated by graphviz version 2.43.0 (0)
 -->
<!-- Title: pastafarianism Pages: 1 -->
<svg width="821pt" height="332pt"
 viewBox="0.00 0.00 821.45 332.00" xmlns="http://www.w3.org/2000/svg" xmlns:xlink="http://www.w3.org/1999/xlink">
<g id="graph0" class="graph" transform="scale(1 1) rotate(0) translate(4 328)">
<title>pastafarianism</title>
<polygon fill="white" stroke="transparent" points="-4,4 -4,-328 817.45,-328 817.45,4 -4,4"/>
<!-- Sequence -->
<g id="node1" class="node">
<title>Sequence</title>
<polygon fill="cyan" stroke="black" points="405.09,-298.54 405.09,-313.46 386.64,-324 360.55,-324 342.11,-313.46 342.11,-298.54 360.55,-288 386.64,-288 405.09,-298.54"/>
<text text-anchor="middle" x="373.6" y="-303.8" font-family="Times,serif" font-size="9.00">Sequence</text>
</g>
<!-- Fallback -->
<g id="node2" class="node">
<title>Fallback</title>
<polygon fill="cyan" stroke="black" points="294.84,-226.54 294.84,-241.46 277.71,-252 253.49,-252 236.36,-241.46 236.36,-226.54 253.49,-216 277.71,-216 294.84,-226.54"/>
<text text-anchor="middle" x="265.6" y="-231.8" font-family="Times,serif" font-size="9.00">Fallback</text>
</g>
<!-- Sequence&#45;&gt;Fallback -->
<g id="edge1" class="edge">
<title>Sequence&#45;&gt;Fallback</title>
<path fill="none" stroke="black" d="M353.54,-292C336.69,-281.08 312.42,-265.35 293.64,-253.18"/>
<polygon fill="black" stroke="black" points="295.48,-250.2 285.19,-247.7 291.68,-256.07 295.48,-250.2"/>
</g>
<!-- Fallback*** -->
<g id="node17" class="node">
<title>Fallback***</title>
<polygon fill="cyan" stroke="black" points="580.09,-226.54 580.09,-241.46 558.13,-252 527.07,-252 505.11,-241.46 505.11,-226.54 527.07,-216 558.13,-216 580.09,-226.54"/>
<text text-anchor="middle" x="542.6" y="-231.8" font-family="Times,serif" font-size="9.00">Fallback***</text>
</g>
<!-- Sequence&#45;&gt;Fallback*** -->
<g id="edge16" class="edge">
<title>Sequence&#45;&gt;Fallback***</title>
<path fill="none" stroke="black" d="M398.54,-294.67C426.74,-282.99 472.97,-263.84 505.43,-250.39"/>
<polygon fill="black" stroke="black" points="507.13,-253.48 515.03,-246.42 504.45,-247.01 507.13,-253.48"/>
</g>
<!-- ReachGoal? -->
<g id="node3" class="node">
<title>ReachGoal?</title>
<ellipse fill="gray" stroke="black" cx="117.6" cy="-162" rx="34.13" ry="18"/>
<text text-anchor="middle" x="117.6" y="-159.8" font-family="Times,serif" font-size="9.00">ReachGoal?</text>
</g>
<!-- Fallback&#45;&gt;ReachGoal? -->
<g id="edge2" class="edge">
<title>Fallback&#45;&gt;ReachGoal?</title>
<path fill="none" stroke="black" d="M243.12,-222.37C218.71,-210.82 179.45,-192.25 151.34,-178.96"/>
<polygon fill="black" stroke="black" points="152.8,-175.78 142.27,-174.67 149.81,-182.11 152.8,-175.78"/>
</g>
<!-- Sequence* -->
<g id="node4" class="node">
<title>Sequence*</title>
<polygon fill="cyan" stroke="black" points="237.84,-154.54 237.84,-169.46 217.78,-180 189.42,-180 169.36,-169.46 169.36,-154.54 189.42,-144 217.78,-144 237.84,-154.54"/>
<text text-anchor="middle" x="203.6" y="-159.8" font-family="Times,serif" font-size="9.00">Sequence*</text>
</g>
<!-- Fallback&#45;&gt;Sequence* -->
<g id="edge3" class="edge">
<title>Fallback&#45;&gt;Sequence*</title>
<path fill="none" stroke="black" d="M251.53,-217.12C243.75,-208.33 233.92,-197.23 225.18,-187.37"/>
<polygon fill="black" stroke="black" points="227.73,-184.96 218.48,-179.8 222.49,-189.6 227.73,-184.96"/>
</g>
<!-- Sequence** -->
<g id="node11" class="node">
<title>Sequence**</title>
<polygon fill="cyan" stroke="black" points="363.34,-154.54 363.34,-169.46 341.82,-180 311.38,-180 289.86,-169.46 289.86,-154.54 311.38,-144 341.82,-144 363.34,-154.54"/>
<text text-anchor="middle" x="326.6" y="-159.8" font-family="Times,serif" font-size="9.00">Sequence**</text>
</g>
<!-- Fallback&#45;&gt;Sequence** -->
<g id="edge10" class="edge">
<title>Fallback&#45;&gt;Sequence**</title>
<path fill="none" stroke="black" d="M279.75,-216.76C287.23,-208.18 296.57,-197.46 304.94,-187.86"/>
<polygon fill="black" stroke="black" points="307.75,-189.96 311.68,-180.12 302.47,-185.36 307.75,-189.96"/>
</g>
<!-- LkGraph? -->
<g id="node5" class="node">
<title>LkGraph?</title>
<ellipse fill="gray" stroke="black" cx="30.6" cy="-90" rx="30.7" ry="18"/>
<text text-anchor="middle" x="30.6" y="-87.8" font-family="Times,serif" font-size="9.00">LkGraph?</text>
</g>
<!-- Sequence*&#45;&gt;LkGraph? -->
<g id="edge4" class="edge">
<title>Sequence*&#45;&gt;LkGraph?</title>
<path fill="none" stroke="black" d="M176.81,-150.41C138.09,-135.1 70.91,-108.55 69.6,-108 67.76,-107.23 65.87,-106.44 63.97,-105.64"/>
<polygon fill="black" stroke="black" points="65.04,-102.29 54.47,-101.56 62.28,-108.72 65.04,-102.29"/>
</g>
<!-- LkClose? -->
<g id="node6" class="node">
<title>LkClose?</title>
<ellipse fill="gray" stroke="black" cx="107.6" cy="-90" rx="28.74" ry="18"/>
<text text-anchor="middle" x="107.6" y="-87.8" font-family="Times,serif" font-size="9.00">LkClose?</text>
</g>
<!-- Sequence*&#45;&gt;LkClose? -->
<g id="edge5" class="edge">
<title>Sequence*&#45;&gt;LkClose?</title>
<path fill="none" stroke="black" d="M183.71,-146.5C169.34,-136.02 149.79,-121.77 134.1,-110.33"/>
<polygon fill="black" stroke="black" points="135.98,-107.37 125.84,-104.3 131.86,-113.02 135.98,-107.37"/>
</g>
<!-- Fallback* -->
<g id="node7" class="node">
<title>Fallback*</title>
<polygon fill="cyan" stroke="black" points="218.34,-82.54 218.34,-97.46 199.75,-108 173.45,-108 154.86,-97.46 154.86,-82.54 173.45,-72 199.75,-72 218.34,-82.54"/>
<text text-anchor="middle" x="186.6" y="-87.8" font-family="Times,serif" font-size="9.00">Fallback*</text>
</g>
<!-- Sequence*&#45;&gt;Fallback* -->
<g id="edge6" class="edge">
<title>Sequence*&#45;&gt;Fallback*</title>
<path fill="none" stroke="black" d="M199.4,-143.7C197.5,-135.9 195.22,-126.51 193.12,-117.83"/>
<polygon fill="black" stroke="black" points="196.51,-117 190.75,-108.1 189.71,-118.65 196.51,-117"/>
</g>
<!-- GetLk! -->
<g id="node10" class="node">
<title>GetLk!</title>
<ellipse fill="gray" stroke="black" cx="263.6" cy="-90" rx="27" ry="18"/>
<text text-anchor="middle" x="263.6" y="-87.8" font-family="Times,serif" font-size="9.00">GetLk!</text>
</g>
<!-- Sequence*&#45;&gt;GetLk! -->
<g id="edge9" class="edge">
<title>Sequence*&#45;&gt;GetLk!</title>
<path fill="none" stroke="black" d="M218.12,-144.05C225.93,-134.95 235.65,-123.6 244.11,-113.74"/>
<polygon fill="black" stroke="black" points="246.99,-115.76 250.84,-105.89 241.67,-111.2 246.99,-115.76"/>
</g>
<!-- ReachGoal?* -->
<g id="node8" class="node">
<title>ReachGoal?*</title>
<ellipse fill="gray" stroke="black" cx="102.6" cy="-18" rx="36.9" ry="18"/>
<text text-anchor="middle" x="102.6" y="-15.8" font-family="Times,serif" font-size="9.00">ReachGoal?*</text>
</g>
<!-- Fallback*&#45;&gt;ReachGoal?* -->
<g id="edge7" class="edge">
<title>Fallback*&#45;&gt;ReachGoal?*</title>
<path fill="none" stroke="black" d="M168.79,-74.15C156.98,-64.32 141.31,-51.26 128.18,-40.32"/>
<polygon fill="black" stroke="black" points="130.31,-37.54 120.39,-33.82 125.83,-42.91 130.31,-37.54"/>
</g>
<!-- MoveTo! -->
<g id="node9" class="node">
<title>MoveTo!</title>
<ellipse fill="gray" stroke="black" cx="186.6" cy="-18" rx="28.74" ry="18"/>
<text text-anchor="middle" x="186.6" y="-15.8" font-family="Times,serif" font-size="9.00">MoveTo!</text>
</g>
<!-- Fallback*&#45;&gt;MoveTo! -->
<g id="edge8" class="edge">
<title>Fallback*&#45;&gt;MoveTo!</title>
<path fill="none" stroke="black" d="M186.6,-71.7C186.6,-63.98 186.6,-54.71 186.6,-46.11"/>
<polygon fill="black" stroke="black" points="190.1,-46.1 186.6,-36.1 183.1,-46.1 190.1,-46.1"/>
</g>
<!-- Fallback** -->
<g id="node12" class="node">
<title>Fallback**</title>
<polygon fill="cyan" stroke="black" points="378.59,-82.54 378.59,-97.46 358.09,-108 329.11,-108 308.61,-97.46 308.61,-82.54 329.11,-72 358.09,-72 378.59,-82.54"/>
<text text-anchor="middle" x="343.6" y="-87.8" font-family="Times,serif" font-size="9.00">Fallback**</text>
</g>
<!-- Sequence**&#45;&gt;Fallback** -->
<g id="edge11" class="edge">
<title>Sequence**&#45;&gt;Fallback**</title>
<path fill="none" stroke="black" d="M330.8,-143.7C332.7,-135.9 334.98,-126.51 337.08,-117.83"/>
<polygon fill="black" stroke="black" points="340.49,-118.65 339.45,-108.1 333.68,-117 340.49,-118.65"/>
</g>
<!-- MoveTo!* -->
<g id="node16" class="node">
<title>MoveTo!*</title>
<ellipse fill="gray" stroke="black" cx="428.6" cy="-90" rx="31.51" ry="18"/>
<text text-anchor="middle" x="428.6" y="-87.8" font-family="Times,serif" font-size="9.00">MoveTo!*</text>
</g>
<!-- Sequence**&#45;&gt;MoveTo!* -->
<g id="edge15" class="edge">
<title>Sequence**&#45;&gt;MoveTo!*</title>
<path fill="none" stroke="black" d="M347.73,-146.5C363.14,-135.92 384.15,-121.5 400.9,-110.01"/>
<polygon fill="black" stroke="black" points="402.95,-112.85 409.22,-104.3 398.99,-107.07 402.95,-112.85"/>
</g>
<!-- NotReadyForSG? -->
<g id="node13" class="node">
<title>NotReadyForSG?</title>
<ellipse fill="gray" stroke="black" cx="280.6" cy="-18" rx="46.53" ry="18"/>
<text text-anchor="middle" x="280.6" y="-15.8" font-family="Times,serif" font-size="9.00">NotReadyForSG?</text>
</g>
<!-- Fallback**&#45;&gt;NotReadyForSG? -->
<g id="edge12" class="edge">
<title>Fallback**&#45;&gt;NotReadyForSG?</title>
<path fill="none" stroke="black" d="M328.35,-72.05C320.5,-63.33 310.79,-52.54 302.18,-42.98"/>
<polygon fill="black" stroke="black" points="304.57,-40.4 295.28,-35.31 299.36,-45.08 304.57,-40.4"/>
</g>
<!-- GetSubGoal! -->
<g id="node14" class="node">
<title>GetSubGoal!</title>
<ellipse fill="gray" stroke="black" cx="382.6" cy="-18" rx="36.9" ry="18"/>
<text text-anchor="middle" x="382.6" y="-15.8" font-family="Times,serif" font-size="9.00">GetSubGoal!</text>
</g>
<!-- Fallback**&#45;&gt;GetSubGoal! -->
<g id="edge13" class="edge">
<title>Fallback**&#45;&gt;GetSubGoal!</title>
<path fill="none" stroke="black" d="M353.24,-71.7C357.79,-63.52 363.32,-53.6 368.35,-44.58"/>
<polygon fill="black" stroke="black" points="371.53,-46.06 373.34,-35.62 365.41,-42.65 371.53,-46.06"/>
</g>
<!-- NotReadyForSG?* -->
<g id="node15" class="node">
<title>NotReadyForSG?*</title>
<ellipse fill="gray" stroke="black" cx="487.6" cy="-18" rx="49.8" ry="18"/>
<text text-anchor="middle" x="487.6" y="-15.8" font-family="Times,serif" font-size="9.00">NotReadyForSG?*</text>
</g>
<!-- Fallback**&#45;&gt;NotReadyForSG?* -->
<g id="edge14" class="edge">
<title>Fallback**&#45;&gt;NotReadyForSG?*</title>
<path fill="none" stroke="black" d="M368.35,-76.97C390.84,-66.03 424.34,-49.75 450.11,-37.22"/>
<polygon fill="black" stroke="black" points="451.76,-40.31 459.22,-32.8 448.7,-34.02 451.76,-40.31"/>
</g>
<!-- NotReadyForSG?** -->
<g id="node18" class="node">
<title>NotReadyForSG?**</title>
<ellipse fill="gray" stroke="black" cx="433.6" cy="-162" rx="51.92" ry="18"/>
<text text-anchor="middle" x="433.6" y="-159.8" font-family="Times,serif" font-size="9.00">NotReadyForSG?**</text>
</g>
<!-- Fallback***&#45;&gt;NotReadyForSG?** -->
<g id="edge17" class="edge">
<title>Fallback***&#45;&gt;NotReadyForSG?**</title>
<path fill="none" stroke="black" d="M520.8,-219C505.14,-208.95 483.77,-195.22 466.1,-183.87"/>
<polygon fill="black" stroke="black" points="467.55,-180.64 457.25,-178.19 463.77,-186.53 467.55,-180.64"/>
</g>
<!-- GetSubGoal!* -->
<g id="node19" class="node">
<title>GetSubGoal!*</title>
<ellipse fill="gray" stroke="black" cx="542.6" cy="-162" rx="39.02" ry="18"/>
<text text-anchor="middle" x="542.6" y="-159.8" font-family="Times,serif" font-size="9.00">GetSubGoal!*</text>
</g>
<!-- Fallback***&#45;&gt;GetSubGoal!* -->
<g id="edge18" class="edge">
<title>Fallback***&#45;&gt;GetSubGoal!*</title>
<path fill="none" stroke="black" d="M542.6,-215.7C542.6,-207.98 542.6,-198.71 542.6,-190.11"/>
<polygon fill="black" stroke="black" points="546.1,-190.1 542.6,-180.1 539.1,-190.1 546.1,-190.1"/>
</g>
<!-- CompLkGraph! -->
<g id="node20" class="node">
<title>CompLkGraph!</title>
<ellipse fill="gray" stroke="black" cx="642.6" cy="-162" rx="42.95" ry="18"/>
<text text-anchor="middle" x="642.6" y="-159.8" font-family="Times,serif" font-size="9.00">CompLkGraph!</text>
</g>
<!-- Fallback***&#45;&gt;CompLkGraph! -->
<g id="edge19" class="edge">
<title>Fallback***&#45;&gt;CompLkGraph!</title>
<path fill="none" stroke="black" d="M563.81,-218.15C578.13,-208.13 597.22,-194.76 613.03,-183.7"/>
<polygon fill="black" stroke="black" points="615.24,-186.43 621.42,-177.82 611.22,-180.69 615.24,-186.43"/>
</g>
<!-- NotReadyForSG?*** -->
<g id="node21" class="node">
<title>NotReadyForSG?***</title>
<ellipse fill="gray" stroke="black" cx="758.6" cy="-162" rx="54.7" ry="18"/>
<text text-anchor="middle" x="758.6" y="-159.8" font-family="Times,serif" font-size="9.00">NotReadyForSG?***</text>
</g>
<!-- Fallback***&#45;&gt;NotReadyForSG?*** -->
<g id="edge20" class="edge">
<title>Fallback***&#45;&gt;NotReadyForSG?***</title>
<path fill="none" stroke="black" d="M573.09,-223.12C609.05,-211.47 669.23,-191.96 711.27,-178.34"/>
<polygon fill="black" stroke="black" points="712.57,-181.59 721.01,-175.18 710.42,-174.94 712.57,-181.59"/>
</g>
</g>
</svg>
