<?xml version="1.0" encoding="UTF-8" standalone="no"?>
<!DOCTYPE svg PUBLIC "-//W3C//DTD SVG 1.1//EN"
 "http://www.w3.org/Graphics/SVG/1.1/DTD/svg11.dtd">
<!-- Generated by graphviz version 2.43.0 (0)
 -->
<!-- Title: pastafarianism Pages: 1 -->
<svg width="474pt" height="260pt"
 viewBox="0.00 0.00 473.79 260.00" xmlns="http://www.w3.org/2000/svg" xmlns:xlink="http://www.w3.org/1999/xlink">
<g id="graph0" class="graph" transform="scale(1 1) rotate(0) translate(4 256)">
<title>pastafarianism</title>
<polygon fill="white" stroke="transparent" points="-4,4 -4,-256 469.79,-256 469.79,4 -4,4"/>
<!-- Fallback -->
<g id="node1" class="node">
<title>Fallback</title>
<polygon fill="cyan" stroke="black" points="180.31,-226.54 180.31,-241.46 163.18,-252 138.95,-252 121.82,-241.46 121.82,-226.54 138.95,-216 163.18,-216 180.31,-226.54"/>
<text text-anchor="middle" x="151.06" y="-231.8" font-family="Times,serif" font-size="9.00">Fallback</text>
</g>
<!-- ReachGoal? -->
<g id="node2" class="node">
<title>ReachGoal?</title>
<ellipse fill="gray" stroke="black" cx="34.06" cy="-162" rx="34.13" ry="18"/>
<text text-anchor="middle" x="34.06" y="-159.8" font-family="Times,serif" font-size="9.00">ReachGoal?</text>
</g>
<!-- Fallback&#45;&gt;ReachGoal? -->
<g id="edge1" class="edge">
<title>Fallback&#45;&gt;ReachGoal?</title>
<path fill="none" stroke="black" d="M130.68,-220.81C112.43,-209.89 85.42,-193.72 64.59,-181.26"/>
<polygon fill="black" stroke="black" points="66.17,-178.13 55.8,-176 62.58,-184.14 66.17,-178.13"/>
</g>
<!-- GetLk! -->
<g id="node3" class="node">
<title>GetLk!</title>
<ellipse fill="gray" stroke="black" cx="113.06" cy="-162" rx="27" ry="18"/>
<text text-anchor="middle" x="113.06" y="-159.8" font-family="Times,serif" font-size="9.00">GetLk!</text>
</g>
<!-- Fallback&#45;&gt;GetLk! -->
<g id="edge2" class="edge">
<title>Fallback&#45;&gt;GetLk!</title>
<path fill="none" stroke="black" d="M141.67,-215.7C137.17,-207.4 131.69,-197.31 126.74,-188.19"/>
<polygon fill="black" stroke="black" points="129.67,-186.26 121.83,-179.14 123.52,-189.6 129.67,-186.26"/>
</g>
<!-- Sequence -->
<g id="node4" class="node">
<title>Sequence</title>
<polygon fill="cyan" stroke="black" points="220.56,-154.54 220.56,-169.46 202.11,-180 176.02,-180 157.57,-169.46 157.57,-154.54 176.02,-144 202.11,-144 220.56,-154.54"/>
<text text-anchor="middle" x="189.06" y="-159.8" font-family="Times,serif" font-size="9.00">Sequence</text>
</g>
<!-- Fallback&#45;&gt;Sequence -->
<g id="edge3" class="edge">
<title>Fallback&#45;&gt;Sequence</title>
<path fill="none" stroke="black" d="M160.46,-215.7C164.83,-207.64 170.12,-197.89 174.96,-188.98"/>
<polygon fill="black" stroke="black" points="178.08,-190.56 179.78,-180.1 171.93,-187.22 178.08,-190.56"/>
</g>
<!-- Sequence* -->
<g id="node7" class="node">
<title>Sequence*</title>
<polygon fill="cyan" stroke="black" points="307.31,-154.54 307.31,-169.46 287.25,-180 258.88,-180 238.82,-169.46 238.82,-154.54 258.88,-144 287.25,-144 307.31,-154.54"/>
<text text-anchor="middle" x="273.06" y="-159.8" font-family="Times,serif" font-size="9.00">Sequence*</text>
</g>
<!-- Fallback&#45;&gt;Sequence* -->
<g id="edge6" class="edge">
<title>Fallback&#45;&gt;Sequence*</title>
<path fill="none" stroke="black" d="M171.76,-221.13C190.91,-210.14 219.66,-193.64 241.65,-181.02"/>
<polygon fill="black" stroke="black" points="243.68,-183.9 250.61,-175.88 240.19,-177.82 243.68,-183.9"/>
</g>
<!-- LkClose? -->
<g id="node5" class="node">
<title>LkClose?</title>
<ellipse fill="gray" stroke="black" cx="117.06" cy="-90" rx="28.74" ry="18"/>
<text text-anchor="middle" x="117.06" y="-87.8" font-family="Times,serif" font-size="9.00">LkClose?</text>
</g>
<!-- Sequence&#45;&gt;LkClose? -->
<g id="edge4" class="edge">
<title>Sequence&#45;&gt;LkClose?</title>
<path fill="none" stroke="black" d="M173.08,-145.46C163.12,-135.78 150.16,-123.17 139.21,-112.53"/>
<polygon fill="black" stroke="black" points="141.62,-110 132.01,-105.54 136.75,-115.02 141.62,-110"/>
</g>
<!-- GetLk!* -->
<g id="node6" class="node">
<title>GetLk!*</title>
<ellipse fill="gray" stroke="black" cx="191.06" cy="-90" rx="27.27" ry="18"/>
<text text-anchor="middle" x="191.06" y="-87.8" font-family="Times,serif" font-size="9.00">GetLk!*</text>
</g>
<!-- Sequence&#45;&gt;GetLk!* -->
<g id="edge5" class="edge">
<title>Sequence&#45;&gt;GetLk!*</title>
<path fill="none" stroke="black" d="M189.56,-143.7C189.78,-135.98 190.04,-126.71 190.29,-118.11"/>
<polygon fill="black" stroke="black" points="193.79,-118.2 190.57,-108.1 186.79,-118 193.79,-118.2"/>
</g>
<!-- Fallback* -->
<g id="node8" class="node">
<title>Fallback*</title>
<polygon fill="cyan" stroke="black" points="302.81,-82.54 302.81,-97.46 284.21,-108 257.92,-108 239.32,-97.46 239.32,-82.54 257.92,-72 284.21,-72 302.81,-82.54"/>
<text text-anchor="middle" x="271.06" y="-87.8" font-family="Times,serif" font-size="9.00">Fallback*</text>
</g>
<!-- Sequence*&#45;&gt;Fallback* -->
<g id="edge7" class="edge">
<title>Sequence*&#45;&gt;Fallback*</title>
<path fill="none" stroke="black" d="M272.57,-143.7C272.35,-135.98 272.08,-126.71 271.84,-118.11"/>
<polygon fill="black" stroke="black" points="275.34,-118 271.55,-108.1 268.34,-118.2 275.34,-118"/>
</g>
<!-- MoveTo! -->
<g id="node13" class="node">
<title>MoveTo!</title>
<ellipse fill="gray" stroke="black" cx="350.06" cy="-90" rx="28.74" ry="18"/>
<text text-anchor="middle" x="350.06" y="-87.8" font-family="Times,serif" font-size="9.00">MoveTo!</text>
</g>
<!-- Sequence*&#45;&gt;MoveTo! -->
<g id="edge12" class="edge">
<title>Sequence*&#45;&gt;MoveTo!</title>
<path fill="none" stroke="black" d="M290.15,-145.46C300.88,-135.71 314.86,-123 326.62,-112.32"/>
<polygon fill="black" stroke="black" points="329.29,-114.62 334.33,-105.3 324.58,-109.44 329.29,-114.62"/>
</g>
<!-- GetSubGoal! -->
<g id="node9" class="node">
<title>GetSubGoal!</title>
<ellipse fill="gray" stroke="black" cx="117.06" cy="-18" rx="36.9" ry="18"/>
<text text-anchor="middle" x="117.06" y="-15.8" font-family="Times,serif" font-size="9.00">GetSubGoal!</text>
</g>
<!-- Fallback*&#45;&gt;GetSubGoal! -->
<g id="edge8" class="edge">
<title>Fallback*&#45;&gt;GetSubGoal!</title>
<path fill="none" stroke="black" d="M247,-78.06C221.69,-66.56 181.59,-48.33 152.63,-35.17"/>
<polygon fill="black" stroke="black" points="153.83,-31.87 143.27,-30.91 150.93,-38.24 153.83,-31.87"/>
</g>
<!-- NotReadyForSG? -->
<g id="node10" class="node">
<title>NotReadyForSG?</title>
<ellipse fill="gray" stroke="black" cx="219.06" cy="-18" rx="46.53" ry="18"/>
<text text-anchor="middle" x="219.06" y="-15.8" font-family="Times,serif" font-size="9.00">NotReadyForSG?</text>
</g>
<!-- Fallback*&#45;&gt;NotReadyForSG? -->
<g id="edge9" class="edge">
<title>Fallback*&#45;&gt;NotReadyForSG?</title>
<path fill="none" stroke="black" d="M258.21,-71.7C251.95,-63.27 244.3,-52.97 237.44,-43.73"/>
<polygon fill="black" stroke="black" points="240.18,-41.56 231.41,-35.62 234.57,-45.74 240.18,-41.56"/>
</g>
<!-- GetSubGoal!* -->
<g id="node11" class="node">
<title>GetSubGoal!*</title>
<ellipse fill="gray" stroke="black" cx="323.06" cy="-18" rx="39.02" ry="18"/>
<text text-anchor="middle" x="323.06" y="-15.8" font-family="Times,serif" font-size="9.00">GetSubGoal!*</text>
</g>
<!-- Fallback*&#45;&gt;GetSubGoal!* -->
<g id="edge10" class="edge">
<title>Fallback*&#45;&gt;GetSubGoal!*</title>
<path fill="none" stroke="black" d="M283.92,-71.7C290.27,-63.14 298.05,-52.67 304.99,-43.33"/>
<polygon fill="black" stroke="black" points="307.92,-45.26 311.07,-35.14 302.3,-41.08 307.92,-45.26"/>
</g>
<!-- CompLkGraph! -->
<g id="node12" class="node">
<title>CompLkGraph!</title>
<ellipse fill="gray" stroke="black" cx="423.06" cy="-18" rx="42.95" ry="18"/>
<text text-anchor="middle" x="423.06" y="-15.8" font-family="Times,serif" font-size="9.00">CompLkGraph!</text>
</g>
<!-- Fallback*&#45;&gt;CompLkGraph! -->
<g id="edge11" class="edge">
<title>Fallback*&#45;&gt;CompLkGraph!</title>
<path fill="none" stroke="black" d="M295.15,-77.91C319.59,-66.65 357.76,-49.08 386.05,-36.05"/>
<polygon fill="black" stroke="black" points="387.61,-39.18 395.23,-31.82 384.68,-32.82 387.61,-39.18"/>
</g>
</g>
</svg>
