<?xml version="1.0" encoding="UTF-8" standalone="no"?>
<!DOCTYPE svg PUBLIC "-//W3C//DTD SVG 1.1//EN"
 "http://www.w3.org/Graphics/SVG/1.1/DTD/svg11.dtd">
<!-- Generated by graphviz version 2.43.0 (0)
 -->
<!-- Title: pastafarianism Pages: 1 -->
<svg width="382pt" height="260pt"
 viewBox="0.00 0.00 381.93 260.00" xmlns="http://www.w3.org/2000/svg" xmlns:xlink="http://www.w3.org/1999/xlink">
<g id="graph0" class="graph" transform="scale(1 1) rotate(0) translate(4 256)">
<title>pastafarianism</title>
<polygon fill="white" stroke="transparent" points="-4,4 -4,-256 377.93,-256 377.93,4 -4,4"/>
<!-- Fallback -->
<g id="node1" class="node">
<title>Fallback</title>
<polygon fill="cyan" stroke="black" points="174.11,-226.54 174.11,-241.46 156.98,-252 132.75,-252 115.62,-241.46 115.62,-226.54 132.75,-216 156.98,-216 174.11,-226.54"/>
<text text-anchor="middle" x="144.87" y="-231.8" font-family="Times,serif" font-size="9.00">Fallback</text>
</g>
<!-- Sequence -->
<g id="node2" class="node">
<title>Sequence</title>
<polygon fill="cyan" stroke="black" points="134.36,-154.54 134.36,-169.46 115.91,-180 89.82,-180 71.37,-169.46 71.37,-154.54 89.82,-144 115.91,-144 134.36,-154.54"/>
<text text-anchor="middle" x="102.87" y="-159.8" font-family="Times,serif" font-size="9.00">Sequence</text>
</g>
<!-- Fallback&#45;&gt;Sequence -->
<g id="edge1" class="edge">
<title>Fallback&#45;&gt;Sequence</title>
<path fill="none" stroke="black" d="M134.49,-215.7C129.6,-207.56 123.68,-197.69 118.29,-188.7"/>
<polygon fill="black" stroke="black" points="121.28,-186.88 113.13,-180.1 115.27,-190.48 121.28,-186.88"/>
</g>
<!-- Sequence* -->
<g id="node5" class="node">
<title>Sequence*</title>
<polygon fill="cyan" stroke="black" points="257.11,-154.54 257.11,-169.46 237.05,-180 208.68,-180 188.63,-169.46 188.63,-154.54 208.68,-144 237.05,-144 257.11,-154.54"/>
<text text-anchor="middle" x="222.87" y="-159.8" font-family="Times,serif" font-size="9.00">Sequence*</text>
</g>
<!-- Fallback&#45;&gt;Sequence* -->
<g id="edge4" class="edge">
<title>Fallback&#45;&gt;Sequence*</title>
<path fill="none" stroke="black" d="M161.41,-218.15C172.05,-208.61 186.07,-196.03 198.03,-185.29"/>
<polygon fill="black" stroke="black" points="200.43,-187.84 205.54,-178.55 195.76,-182.63 200.43,-187.84"/>
</g>
<!-- LkClose? -->
<g id="node3" class="node">
<title>LkClose?</title>
<ellipse fill="gray" stroke="black" cx="28.87" cy="-90" rx="28.74" ry="18"/>
<text text-anchor="middle" x="28.87" y="-87.8" font-family="Times,serif" font-size="9.00">LkClose?</text>
</g>
<!-- Sequence&#45;&gt;LkClose? -->
<g id="edge2" class="edge">
<title>Sequence&#45;&gt;LkClose?</title>
<path fill="none" stroke="black" d="M86.44,-145.46C76.2,-135.78 62.88,-123.17 51.63,-112.53"/>
<polygon fill="black" stroke="black" points="53.9,-109.87 44.23,-105.54 49.09,-114.95 53.9,-109.87"/>
</g>
<!-- GetLk! -->
<g id="node4" class="node">
<title>GetLk!</title>
<ellipse fill="gray" stroke="black" cx="102.87" cy="-90" rx="27" ry="18"/>
<text text-anchor="middle" x="102.87" y="-87.8" font-family="Times,serif" font-size="9.00">GetLk!</text>
</g>
<!-- Sequence&#45;&gt;GetLk! -->
<g id="edge3" class="edge">
<title>Sequence&#45;&gt;GetLk!</title>
<path fill="none" stroke="black" d="M102.87,-143.7C102.87,-135.98 102.87,-126.71 102.87,-118.11"/>
<polygon fill="black" stroke="black" points="106.37,-118.1 102.87,-108.1 99.37,-118.1 106.37,-118.1"/>
</g>
<!-- Fallback* -->
<g id="node6" class="node">
<title>Fallback*</title>
<polygon fill="cyan" stroke="black" points="211.61,-82.54 211.61,-97.46 193.02,-108 166.72,-108 148.13,-97.46 148.13,-82.54 166.72,-72 193.02,-72 211.61,-82.54"/>
<text text-anchor="middle" x="179.87" y="-87.8" font-family="Times,serif" font-size="9.00">Fallback*</text>
</g>
<!-- Sequence*&#45;&gt;Fallback* -->
<g id="edge5" class="edge">
<title>Sequence*&#45;&gt;Fallback*</title>
<path fill="none" stroke="black" d="M212.24,-143.7C207.24,-135.56 201.18,-125.69 195.66,-116.7"/>
<polygon fill="black" stroke="black" points="198.59,-114.79 190.37,-108.1 192.63,-118.46 198.59,-114.79"/>
</g>
<!-- MoveTo! -->
<g id="node10" class="node">
<title>MoveTo!</title>
<ellipse fill="gray" stroke="black" cx="258.87" cy="-90" rx="28.74" ry="18"/>
<text text-anchor="middle" x="258.87" y="-87.8" font-family="Times,serif" font-size="9.00">MoveTo!</text>
</g>
<!-- Sequence*&#45;&gt;MoveTo! -->
<g id="edge9" class="edge">
<title>Sequence*&#45;&gt;MoveTo!</title>
<path fill="none" stroke="black" d="M231.77,-143.7C235.97,-135.52 241.07,-125.6 245.71,-116.58"/>
<polygon fill="black" stroke="black" points="248.86,-118.12 250.32,-107.62 242.63,-114.91 248.86,-118.12"/>
</g>
<!-- ReachGoal? -->
<g id="node11" class="node">
<title>ReachGoal?</title>
<ellipse fill="gray" stroke="black" cx="339.87" cy="-90" rx="34.13" ry="18"/>
<text text-anchor="middle" x="339.87" y="-87.8" font-family="Times,serif" font-size="9.00">ReachGoal?</text>
</g>
<!-- Sequence*&#45;&gt;ReachGoal? -->
<g id="edge10" class="edge">
<title>Sequence*&#45;&gt;ReachGoal?</title>
<path fill="none" stroke="black" d="M244.87,-147.83C263.01,-136.98 288.95,-121.46 309.14,-109.39"/>
<polygon fill="black" stroke="black" points="311.17,-112.25 317.96,-104.11 307.58,-106.24 311.17,-112.25"/>
</g>
<!-- NotReadyForSG? -->
<g id="node7" class="node">
<title>NotReadyForSG?</title>
<ellipse fill="gray" stroke="black" cx="77.87" cy="-18" rx="46.53" ry="18"/>
<text text-anchor="middle" x="77.87" y="-15.8" font-family="Times,serif" font-size="9.00">NotReadyForSG?</text>
</g>
<!-- Fallback*&#45;&gt;NotReadyForSG? -->
<g id="edge6" class="edge">
<title>Fallback*&#45;&gt;NotReadyForSG?</title>
<path fill="none" stroke="black" d="M160.2,-75.5C145.51,-65.42 125.16,-51.45 108.36,-39.93"/>
<polygon fill="black" stroke="black" points="110.18,-36.93 99.95,-34.16 106.22,-42.7 110.18,-36.93"/>
</g>
<!-- GetSubGoal! -->
<g id="node8" class="node">
<title>GetSubGoal!</title>
<ellipse fill="gray" stroke="black" cx="179.87" cy="-18" rx="36.9" ry="18"/>
<text text-anchor="middle" x="179.87" y="-15.8" font-family="Times,serif" font-size="9.00">GetSubGoal!</text>
</g>
<!-- Fallback*&#45;&gt;GetSubGoal! -->
<g id="edge7" class="edge">
<title>Fallback*&#45;&gt;GetSubGoal!</title>
<path fill="none" stroke="black" d="M179.87,-71.7C179.87,-63.98 179.87,-54.71 179.87,-46.11"/>
<polygon fill="black" stroke="black" points="183.37,-46.1 179.87,-36.1 176.37,-46.1 183.37,-46.1"/>
</g>
<!-- CompLkGraph! -->
<g id="node9" class="node">
<title>CompLkGraph!</title>
<ellipse fill="gray" stroke="black" cx="277.87" cy="-18" rx="42.95" ry="18"/>
<text text-anchor="middle" x="277.87" y="-15.8" font-family="Times,serif" font-size="9.00">CompLkGraph!</text>
</g>
<!-- Fallback*&#45;&gt;CompLkGraph! -->
<g id="edge8" class="edge">
<title>Fallback*&#45;&gt;CompLkGraph!</title>
<path fill="none" stroke="black" d="M199.23,-75.17C213.35,-65.08 232.73,-51.24 248.71,-39.82"/>
<polygon fill="black" stroke="black" points="251.09,-42.43 257.19,-33.77 247.02,-36.73 251.09,-42.43"/>
</g>
</g>
</svg>
