<?xml version="1.0" encoding="UTF-8" standalone="no"?>
<!DOCTYPE svg PUBLIC "-//W3C//DTD SVG 1.1//EN"
 "http://www.w3.org/Graphics/SVG/1.1/DTD/svg11.dtd">
<!-- Generated by graphviz version 2.43.0 (0)
 -->
<!-- Title: pastafarianism Pages: 1 -->
<svg width="399pt" height="260pt"
 viewBox="0.00 0.00 398.83 260.00" xmlns="http://www.w3.org/2000/svg" xmlns:xlink="http://www.w3.org/1999/xlink">
<g id="graph0" class="graph" transform="scale(1 1) rotate(0) translate(4 256)">
<title>pastafarianism</title>
<polygon fill="white" stroke="transparent" points="-4,4 -4,-256 394.83,-256 394.83,4 -4,4"/>
<!-- Fallback -->
<g id="node1" class="node">
<title>Fallback</title>
<polygon fill="cyan" stroke="black" points="185.01,-226.54 185.01,-241.46 167.88,-252 143.65,-252 126.52,-241.46 126.52,-226.54 143.65,-216 167.88,-216 185.01,-226.54"/>
<text text-anchor="middle" x="155.77" y="-231.8" font-family="Times,serif" font-size="9.00">Fallback</text>
</g>
<!-- Sequence -->
<g id="node2" class="node">
<title>Sequence</title>
<polygon fill="cyan" stroke="black" points="145.26,-154.54 145.26,-169.46 126.81,-180 100.72,-180 82.27,-169.46 82.27,-154.54 100.72,-144 126.81,-144 145.26,-154.54"/>
<text text-anchor="middle" x="113.77" y="-159.8" font-family="Times,serif" font-size="9.00">Sequence</text>
</g>
<!-- Fallback&#45;&gt;Sequence -->
<g id="edge1" class="edge">
<title>Fallback&#45;&gt;Sequence</title>
<path fill="none" stroke="black" d="M145.38,-215.7C140.5,-207.56 134.58,-197.69 129.19,-188.7"/>
<polygon fill="black" stroke="black" points="132.17,-186.88 124.03,-180.1 126.17,-190.48 132.17,-186.88"/>
</g>
<!-- Sequence* -->
<g id="node5" class="node">
<title>Sequence*</title>
<polygon fill="cyan" stroke="black" points="269.01,-154.54 269.01,-169.46 248.95,-180 220.58,-180 200.52,-169.46 200.52,-154.54 220.58,-144 248.95,-144 269.01,-154.54"/>
<text text-anchor="middle" x="234.77" y="-159.8" font-family="Times,serif" font-size="9.00">Sequence*</text>
</g>
<!-- Fallback&#45;&gt;Sequence* -->
<g id="edge4" class="edge">
<title>Fallback&#45;&gt;Sequence*</title>
<path fill="none" stroke="black" d="M172.13,-218.5C182.96,-208.9 197.36,-196.14 209.63,-185.27"/>
<polygon fill="black" stroke="black" points="212.16,-187.71 217.32,-178.46 207.52,-182.47 212.16,-187.71"/>
</g>
<!-- LkClose? -->
<g id="node3" class="node">
<title>LkClose?</title>
<ellipse fill="gray" stroke="black" cx="39.77" cy="-90" rx="28.74" ry="18"/>
<text text-anchor="middle" x="39.77" y="-87.8" font-family="Times,serif" font-size="9.00">LkClose?</text>
</g>
<!-- Sequence&#45;&gt;LkClose? -->
<g id="edge2" class="edge">
<title>Sequence&#45;&gt;LkClose?</title>
<path fill="none" stroke="black" d="M97.34,-145.46C87.1,-135.78 73.78,-123.17 62.53,-112.53"/>
<polygon fill="black" stroke="black" points="64.8,-109.87 55.13,-105.54 59.99,-114.95 64.8,-109.87"/>
</g>
<!-- GetLk! -->
<g id="node4" class="node">
<title>GetLk!</title>
<ellipse fill="gray" stroke="black" cx="113.77" cy="-90" rx="27" ry="18"/>
<text text-anchor="middle" x="113.77" y="-87.8" font-family="Times,serif" font-size="9.00">GetLk!</text>
</g>
<!-- Sequence&#45;&gt;GetLk! -->
<g id="edge3" class="edge">
<title>Sequence&#45;&gt;GetLk!</title>
<path fill="none" stroke="black" d="M113.77,-143.7C113.77,-135.98 113.77,-126.71 113.77,-118.11"/>
<polygon fill="black" stroke="black" points="117.27,-118.1 113.77,-108.1 110.27,-118.1 117.27,-118.1"/>
</g>
<!-- Fallback* -->
<g id="node6" class="node">
<title>Fallback*</title>
<polygon fill="cyan" stroke="black" points="222.51,-82.54 222.51,-97.46 203.91,-108 177.62,-108 159.02,-97.46 159.02,-82.54 177.62,-72 203.91,-72 222.51,-82.54"/>
<text text-anchor="middle" x="190.77" y="-87.8" font-family="Times,serif" font-size="9.00">Fallback*</text>
</g>
<!-- Sequence*&#45;&gt;Fallback* -->
<g id="edge5" class="edge">
<title>Sequence*&#45;&gt;Fallback*</title>
<path fill="none" stroke="black" d="M223.89,-143.7C218.77,-135.56 212.57,-125.69 206.92,-116.7"/>
<polygon fill="black" stroke="black" points="209.8,-114.71 201.52,-108.1 203.88,-118.43 209.8,-114.71"/>
</g>
<!-- MoveTo!* -->
<g id="node11" class="node">
<title>MoveTo!*</title>
<ellipse fill="gray" stroke="black" cx="272.77" cy="-90" rx="31.51" ry="18"/>
<text text-anchor="middle" x="272.77" y="-87.8" font-family="Times,serif" font-size="9.00">MoveTo!*</text>
</g>
<!-- Sequence*&#45;&gt;MoveTo!* -->
<g id="edge10" class="edge">
<title>Sequence*&#45;&gt;MoveTo!*</title>
<path fill="none" stroke="black" d="M244.16,-143.7C248.6,-135.52 253.98,-125.6 258.88,-116.58"/>
<polygon fill="black" stroke="black" points="262.05,-118.08 263.74,-107.62 255.89,-114.74 262.05,-118.08"/>
</g>
<!-- ReachGoal? -->
<g id="node12" class="node">
<title>ReachGoal?</title>
<ellipse fill="gray" stroke="black" cx="356.77" cy="-90" rx="34.13" ry="18"/>
<text text-anchor="middle" x="356.77" y="-87.8" font-family="Times,serif" font-size="9.00">ReachGoal?</text>
</g>
<!-- Sequence*&#45;&gt;ReachGoal? -->
<g id="edge11" class="edge">
<title>Sequence*&#45;&gt;ReachGoal?</title>
<path fill="none" stroke="black" d="M257.14,-148.16C276.4,-137.11 304.39,-121.05 325.8,-108.77"/>
<polygon fill="black" stroke="black" points="327.6,-111.77 334.53,-103.76 324.12,-105.7 327.6,-111.77"/>
</g>
<!-- NotReadyForSG? -->
<g id="node7" class="node">
<title>NotReadyForSG?</title>
<ellipse fill="gray" stroke="black" cx="46.77" cy="-18" rx="46.53" ry="18"/>
<text text-anchor="middle" x="46.77" y="-15.8" font-family="Times,serif" font-size="9.00">NotReadyForSG?</text>
</g>
<!-- Fallback*&#45;&gt;NotReadyForSG? -->
<g id="edge6" class="edge">
<title>Fallback*&#45;&gt;NotReadyForSG?</title>
<path fill="none" stroke="black" d="M167.31,-77.6C144.74,-66.63 110.25,-49.86 83.94,-37.07"/>
<polygon fill="black" stroke="black" points="85.18,-33.78 74.65,-32.56 82.12,-40.08 85.18,-33.78"/>
</g>
<!-- GetSubGoal! -->
<g id="node8" class="node">
<title>GetSubGoal!</title>
<ellipse fill="gray" stroke="black" cx="148.77" cy="-18" rx="36.9" ry="18"/>
<text text-anchor="middle" x="148.77" y="-15.8" font-family="Times,serif" font-size="9.00">GetSubGoal!</text>
</g>
<!-- Fallback*&#45;&gt;GetSubGoal! -->
<g id="edge7" class="edge">
<title>Fallback*&#45;&gt;GetSubGoal!</title>
<path fill="none" stroke="black" d="M180.38,-71.7C175.43,-63.44 169.4,-53.39 163.95,-44.3"/>
<polygon fill="black" stroke="black" points="166.88,-42.4 158.74,-35.62 160.88,-46 166.88,-42.4"/>
</g>
<!-- MoveTo! -->
<g id="node9" class="node">
<title>MoveTo!</title>
<ellipse fill="gray" stroke="black" cx="232.77" cy="-18" rx="28.74" ry="18"/>
<text text-anchor="middle" x="232.77" y="-15.8" font-family="Times,serif" font-size="9.00">MoveTo!</text>
</g>
<!-- Fallback*&#45;&gt;MoveTo! -->
<g id="edge8" class="edge">
<title>Fallback*&#45;&gt;MoveTo!</title>
<path fill="none" stroke="black" d="M201.15,-71.7C206.18,-63.32 212.31,-53.1 217.83,-43.9"/>
<polygon fill="black" stroke="black" points="220.93,-45.52 223.08,-35.14 214.93,-41.92 220.93,-45.52"/>
</g>
<!-- CompLkGraph! -->
<g id="node10" class="node">
<title>CompLkGraph!</title>
<ellipse fill="gray" stroke="black" cx="322.77" cy="-18" rx="42.95" ry="18"/>
<text text-anchor="middle" x="322.77" y="-15.8" font-family="Times,serif" font-size="9.00">CompLkGraph!</text>
</g>
<!-- Fallback*&#45;&gt;CompLkGraph! -->
<g id="edge9" class="edge">
<title>Fallback*&#45;&gt;CompLkGraph!</title>
<path fill="none" stroke="black" d="M213.16,-77.13C233.68,-66.24 264.38,-49.96 288.07,-37.4"/>
<polygon fill="black" stroke="black" points="289.9,-40.39 297.09,-32.61 286.62,-34.21 289.9,-40.39"/>
</g>
</g>
</svg>
