<?xml version="1.0" encoding="UTF-8" standalone="no"?>
<!DOCTYPE svg PUBLIC "-//W3C//DTD SVG 1.1//EN"
 "http://www.w3.org/Graphics/SVG/1.1/DTD/svg11.dtd">
<!-- Generated by graphviz version 2.43.0 (0)
 -->
<!-- Title: pastafarianism Pages: 1 -->
<svg width="765pt" height="260pt"
 viewBox="0.00 0.00 764.66 260.00" xmlns="http://www.w3.org/2000/svg" xmlns:xlink="http://www.w3.org/1999/xlink">
<g id="graph0" class="graph" transform="scale(1 1) rotate(0) translate(4 256)">
<title>pastafarianism</title>
<polygon fill="white" stroke="transparent" points="-4,4 -4,-256 760.66,-256 760.66,4 -4,4"/>
<!-- Fallback -->
<g id="node1" class="node">
<title>Fallback</title>
<polygon fill="cyan" stroke="black" points="407.84,-226.54 407.84,-241.46 390.71,-252 366.49,-252 349.36,-241.46 349.36,-226.54 366.49,-216 390.71,-216 407.84,-226.54"/>
<text text-anchor="middle" x="378.6" y="-231.8" font-family="Times,serif" font-size="9.00">Fallback</text>
</g>
<!-- Sequence -->
<g id="node2" class="node">
<title>Sequence</title>
<polygon fill="cyan" stroke="black" points="279.09,-154.54 279.09,-169.46 260.64,-180 234.55,-180 216.11,-169.46 216.11,-154.54 234.55,-144 260.64,-144 279.09,-154.54"/>
<text text-anchor="middle" x="247.6" y="-159.8" font-family="Times,serif" font-size="9.00">Sequence</text>
</g>
<!-- Fallback&#45;&gt;Sequence -->
<g id="edge1" class="edge">
<title>Fallback&#45;&gt;Sequence</title>
<path fill="none" stroke="black" d="M357.26,-221.6C336.01,-210.24 303.15,-192.69 278.94,-179.75"/>
<polygon fill="black" stroke="black" points="280.28,-176.49 269.81,-174.87 276.98,-182.67 280.28,-176.49"/>
</g>
<!-- Sequence* -->
<g id="node8" class="node">
<title>Sequence*</title>
<polygon fill="cyan" stroke="black" points="590.84,-154.54 590.84,-169.46 570.78,-180 542.42,-180 522.36,-169.46 522.36,-154.54 542.42,-144 570.78,-144 590.84,-154.54"/>
<text text-anchor="middle" x="556.6" y="-159.8" font-family="Times,serif" font-size="9.00">Sequence*</text>
</g>
<!-- Fallback&#45;&gt;Sequence* -->
<g id="edge7" class="edge">
<title>Fallback&#45;&gt;Sequence*</title>
<path fill="none" stroke="black" d="M402.98,-223.41C433.35,-211.47 485.51,-190.96 520.52,-177.19"/>
<polygon fill="black" stroke="black" points="521.88,-180.41 529.91,-173.5 519.32,-173.9 521.88,-180.41"/>
</g>
<!-- LkGraph? -->
<g id="node3" class="node">
<title>LkGraph?</title>
<ellipse fill="gray" stroke="black" cx="30.6" cy="-90" rx="30.7" ry="18"/>
<text text-anchor="middle" x="30.6" y="-87.8" font-family="Times,serif" font-size="9.00">LkGraph?</text>
</g>
<!-- Sequence&#45;&gt;LkGraph? -->
<g id="edge2" class="edge">
<title>Sequence&#45;&gt;LkGraph?</title>
<path fill="none" stroke="black" d="M217.95,-153.36C182.32,-143.91 120.93,-126.75 69.6,-108 67.51,-107.24 65.38,-106.42 63.24,-105.57"/>
<polygon fill="black" stroke="black" points="64.5,-102.31 53.92,-101.72 61.82,-108.77 64.5,-102.31"/>
</g>
<!-- LkClose? -->
<g id="node4" class="node">
<title>LkClose?</title>
<ellipse fill="gray" stroke="black" cx="107.6" cy="-90" rx="28.74" ry="18"/>
<text text-anchor="middle" x="107.6" y="-87.8" font-family="Times,serif" font-size="9.00">LkClose?</text>
</g>
<!-- Sequence&#45;&gt;LkClose? -->
<g id="edge3" class="edge">
<title>Sequence&#45;&gt;LkClose?</title>
<path fill="none" stroke="black" d="M224.48,-149.44C200.96,-137.68 164.38,-119.39 138.41,-106.41"/>
<polygon fill="black" stroke="black" points="139.88,-103.23 129.37,-101.88 136.75,-109.49 139.88,-103.23"/>
</g>
<!-- NotReadyForSG? -->
<g id="node5" class="node">
<title>NotReadyForSG?</title>
<ellipse fill="gray" stroke="black" cx="201.6" cy="-90" rx="46.53" ry="18"/>
<text text-anchor="middle" x="201.6" y="-87.8" font-family="Times,serif" font-size="9.00">NotReadyForSG?</text>
</g>
<!-- Sequence&#45;&gt;NotReadyForSG? -->
<g id="edge4" class="edge">
<title>Sequence&#45;&gt;NotReadyForSG?</title>
<path fill="none" stroke="black" d="M236.23,-143.7C230.74,-135.35 224.06,-125.18 218.04,-116.02"/>
<polygon fill="black" stroke="black" points="220.94,-114.06 212.52,-107.62 215.09,-117.9 220.94,-114.06"/>
</g>
<!-- GetLk! -->
<g id="node6" class="node">
<title>GetLk!</title>
<ellipse fill="gray" stroke="black" cx="293.6" cy="-90" rx="27" ry="18"/>
<text text-anchor="middle" x="293.6" y="-87.8" font-family="Times,serif" font-size="9.00">GetLk!</text>
</g>
<!-- Sequence&#45;&gt;GetLk! -->
<g id="edge5" class="edge">
<title>Sequence&#45;&gt;GetLk!</title>
<path fill="none" stroke="black" d="M258.97,-143.7C264.62,-135.11 271.53,-124.58 277.69,-115.21"/>
<polygon fill="black" stroke="black" points="280.73,-116.95 283.3,-106.67 274.88,-113.11 280.73,-116.95"/>
</g>
<!-- CompLkGraph! -->
<g id="node7" class="node">
<title>CompLkGraph!</title>
<ellipse fill="gray" stroke="black" cx="381.6" cy="-90" rx="42.95" ry="18"/>
<text text-anchor="middle" x="381.6" y="-87.8" font-family="Times,serif" font-size="9.00">CompLkGraph!</text>
</g>
<!-- Sequence&#45;&gt;CompLkGraph! -->
<g id="edge6" class="edge">
<title>Sequence&#45;&gt;CompLkGraph!</title>
<path fill="none" stroke="black" d="M270.03,-149.28C291.04,-138.31 322.75,-121.74 347,-109.08"/>
<polygon fill="black" stroke="black" points="348.65,-112.16 355.89,-104.43 345.4,-105.96 348.65,-112.16"/>
</g>
<!-- Fallback* -->
<g id="node9" class="node">
<title>Fallback*</title>
<polygon fill="cyan" stroke="black" points="506.34,-82.54 506.34,-97.46 487.75,-108 461.45,-108 442.86,-97.46 442.86,-82.54 461.45,-72 487.75,-72 506.34,-82.54"/>
<text text-anchor="middle" x="474.6" y="-87.8" font-family="Times,serif" font-size="9.00">Fallback*</text>
</g>
<!-- Sequence*&#45;&gt;Fallback* -->
<g id="edge8" class="edge">
<title>Sequence*&#45;&gt;Fallback*</title>
<path fill="none" stroke="black" d="M538.81,-145.81C527.45,-136.11 512.54,-123.39 499.95,-112.64"/>
<polygon fill="black" stroke="black" points="501.95,-109.75 492.08,-105.92 497.41,-115.07 501.95,-109.75"/>
</g>
<!-- MoveTo!* -->
<g id="node14" class="node">
<title>MoveTo!*</title>
<ellipse fill="gray" stroke="black" cx="556.6" cy="-90" rx="31.51" ry="18"/>
<text text-anchor="middle" x="556.6" y="-87.8" font-family="Times,serif" font-size="9.00">MoveTo!*</text>
</g>
<!-- Sequence*&#45;&gt;MoveTo!* -->
<g id="edge13" class="edge">
<title>Sequence*&#45;&gt;MoveTo!*</title>
<path fill="none" stroke="black" d="M556.6,-143.7C556.6,-135.98 556.6,-126.71 556.6,-118.11"/>
<polygon fill="black" stroke="black" points="560.1,-118.1 556.6,-108.1 553.1,-118.1 560.1,-118.1"/>
</g>
<!-- LkClose?* -->
<g id="node15" class="node">
<title>LkClose?*</title>
<ellipse fill="gray" stroke="black" cx="638.6" cy="-90" rx="31.51" ry="18"/>
<text text-anchor="middle" x="638.6" y="-87.8" font-family="Times,serif" font-size="9.00">LkClose?*</text>
</g>
<!-- Sequence*&#45;&gt;LkClose?* -->
<g id="edge14" class="edge">
<title>Sequence*&#45;&gt;LkClose?*</title>
<path fill="none" stroke="black" d="M574.39,-145.81C585.91,-135.98 601.06,-123.04 613.76,-112.21"/>
<polygon fill="black" stroke="black" points="616.35,-114.6 621.68,-105.44 611.8,-109.27 616.35,-114.6"/>
</g>
<!-- ReachGoal? -->
<g id="node16" class="node">
<title>ReachGoal?</title>
<ellipse fill="gray" stroke="black" cx="722.6" cy="-90" rx="34.13" ry="18"/>
<text text-anchor="middle" x="722.6" y="-87.8" font-family="Times,serif" font-size="9.00">ReachGoal?</text>
</g>
<!-- Sequence*&#45;&gt;ReachGoal? -->
<g id="edge15" class="edge">
<title>Sequence*&#45;&gt;ReachGoal?</title>
<path fill="none" stroke="black" d="M582.54,-150.06C610.8,-138.14 656.17,-119.01 687.58,-105.77"/>
<polygon fill="black" stroke="black" points="688.99,-108.97 696.84,-101.86 686.27,-102.52 688.99,-108.97"/>
</g>
<!-- NotReadyForSG?* -->
<g id="node10" class="node">
<title>NotReadyForSG?*</title>
<ellipse fill="gray" stroke="black" cx="319.6" cy="-18" rx="49.8" ry="18"/>
<text text-anchor="middle" x="319.6" y="-15.8" font-family="Times,serif" font-size="9.00">NotReadyForSG?*</text>
</g>
<!-- Fallback*&#45;&gt;NotReadyForSG?* -->
<g id="edge9" class="edge">
<title>Fallback*&#45;&gt;NotReadyForSG?*</title>
<path fill="none" stroke="black" d="M450.38,-78.06C425.9,-67.01 387.68,-49.74 358.86,-36.73"/>
<polygon fill="black" stroke="black" points="360.04,-33.42 349.49,-32.5 357.16,-39.8 360.04,-33.42"/>
</g>
<!-- GetSubGoal! -->
<g id="node11" class="node">
<title>GetSubGoal!</title>
<ellipse fill="gray" stroke="black" cx="424.6" cy="-18" rx="36.9" ry="18"/>
<text text-anchor="middle" x="424.6" y="-15.8" font-family="Times,serif" font-size="9.00">GetSubGoal!</text>
</g>
<!-- Fallback*&#45;&gt;GetSubGoal! -->
<g id="edge10" class="edge">
<title>Fallback*&#45;&gt;GetSubGoal!</title>
<path fill="none" stroke="black" d="M462.24,-71.7C456.13,-63.14 448.65,-52.67 441.97,-43.33"/>
<polygon fill="black" stroke="black" points="444.79,-41.25 436.13,-35.14 439.1,-45.32 444.79,-41.25"/>
</g>
<!-- CompLkGraph!* -->
<g id="node12" class="node">
<title>CompLkGraph!*</title>
<ellipse fill="gray" stroke="black" cx="524.6" cy="-18" rx="45.07" ry="18"/>
<text text-anchor="middle" x="524.6" y="-15.8" font-family="Times,serif" font-size="9.00">CompLkGraph!*</text>
</g>
<!-- Fallback*&#45;&gt;CompLkGraph!* -->
<g id="edge11" class="edge">
<title>Fallback*&#45;&gt;CompLkGraph!*</title>
<path fill="none" stroke="black" d="M486.96,-71.7C492.92,-63.35 500.18,-53.18 506.73,-44.02"/>
<polygon fill="black" stroke="black" points="509.76,-45.79 512.73,-35.62 504.07,-41.73 509.76,-45.79"/>
</g>
<!-- MoveTo! -->
<g id="node13" class="node">
<title>MoveTo!</title>
<ellipse fill="gray" stroke="black" cx="616.6" cy="-18" rx="28.74" ry="18"/>
<text text-anchor="middle" x="616.6" y="-15.8" font-family="Times,serif" font-size="9.00">MoveTo!</text>
</g>
<!-- Fallback*&#45;&gt;MoveTo! -->
<g id="edge12" class="edge">
<title>Fallback*&#45;&gt;MoveTo!</title>
<path fill="none" stroke="black" d="M497.73,-77.6C521.53,-65.87 558.76,-47.51 585.2,-34.48"/>
<polygon fill="black" stroke="black" points="586.99,-37.5 594.41,-29.94 583.9,-31.22 586.99,-37.5"/>
</g>
</g>
</svg>
