<?xml version="1.0" encoding="UTF-8" standalone="no"?>
<!DOCTYPE svg PUBLIC "-//W3C//DTD SVG 1.1//EN"
 "http://www.w3.org/Graphics/SVG/1.1/DTD/svg11.dtd">
<!-- Generated by graphviz version 2.43.0 (0)
 -->
<!-- Title: pastafarianism Pages: 1 -->
<svg width="490pt" height="332pt"
 viewBox="0.00 0.00 489.98 332.00" xmlns="http://www.w3.org/2000/svg" xmlns:xlink="http://www.w3.org/1999/xlink">
<g id="graph0" class="graph" transform="scale(1 1) rotate(0) translate(4 328)">
<title>pastafarianism</title>
<polygon fill="white" stroke="transparent" points="-4,4 -4,-328 485.98,-328 485.98,4 -4,4"/>
<!-- Fallback -->
<g id="node1" class="node">
<title>Fallback</title>
<polygon fill="cyan" stroke="black" points="188.19,-298.54 188.19,-313.46 171.06,-324 146.84,-324 129.71,-313.46 129.71,-298.54 146.84,-288 171.06,-288 188.19,-298.54"/>
<text text-anchor="middle" x="158.95" y="-303.8" font-family="Times,serif" font-size="9.00">Fallback</text>
</g>
<!-- ReachGoal? -->
<g id="node2" class="node">
<title>ReachGoal?</title>
<ellipse fill="gray" stroke="black" cx="75.95" cy="-234" rx="34.13" ry="18"/>
<text text-anchor="middle" x="75.95" y="-231.8" font-family="Times,serif" font-size="9.00">ReachGoal?</text>
</g>
<!-- Fallback&#45;&gt;ReachGoal? -->
<g id="edge1" class="edge">
<title>Fallback&#45;&gt;ReachGoal?</title>
<path fill="none" stroke="black" d="M142.15,-290.83C130.39,-280.91 114.45,-267.47 101.16,-256.26"/>
<polygon fill="black" stroke="black" points="103.19,-253.4 93.29,-249.63 98.68,-258.75 103.19,-253.4"/>
</g>
<!-- Sequence -->
<g id="node3" class="node">
<title>Sequence</title>
<polygon fill="cyan" stroke="black" points="190.44,-226.54 190.44,-241.46 172,-252 145.91,-252 127.46,-241.46 127.46,-226.54 145.91,-216 172,-216 190.44,-226.54"/>
<text text-anchor="middle" x="158.95" y="-231.8" font-family="Times,serif" font-size="9.00">Sequence</text>
</g>
<!-- Fallback&#45;&gt;Sequence -->
<g id="edge2" class="edge">
<title>Fallback&#45;&gt;Sequence</title>
<path fill="none" stroke="black" d="M158.95,-287.7C158.95,-279.98 158.95,-270.71 158.95,-262.11"/>
<polygon fill="black" stroke="black" points="162.45,-262.1 158.95,-252.1 155.45,-262.1 162.45,-262.1"/>
</g>
<!-- Sequence* -->
<g id="node6" class="node">
<title>Sequence*</title>
<polygon fill="cyan" stroke="black" points="277.19,-226.54 277.19,-241.46 257.13,-252 228.77,-252 208.71,-241.46 208.71,-226.54 228.77,-216 257.13,-216 277.19,-226.54"/>
<text text-anchor="middle" x="242.95" y="-231.8" font-family="Times,serif" font-size="9.00">Sequence*</text>
</g>
<!-- Fallback&#45;&gt;Sequence* -->
<g id="edge5" class="edge">
<title>Fallback&#45;&gt;Sequence*</title>
<path fill="none" stroke="black" d="M175.95,-290.83C187.7,-281.04 203.56,-267.83 216.89,-256.71"/>
<polygon fill="black" stroke="black" points="219.37,-259.2 224.81,-250.11 214.89,-253.83 219.37,-259.2"/>
</g>
<!-- LkClose? -->
<g id="node4" class="node">
<title>LkClose?</title>
<ellipse fill="gray" stroke="black" cx="86.95" cy="-162" rx="28.74" ry="18"/>
<text text-anchor="middle" x="86.95" y="-159.8" font-family="Times,serif" font-size="9.00">LkClose?</text>
</g>
<!-- Sequence&#45;&gt;LkClose? -->
<g id="edge3" class="edge">
<title>Sequence&#45;&gt;LkClose?</title>
<path fill="none" stroke="black" d="M142.97,-217.46C133.01,-207.78 120.04,-195.17 109.1,-184.53"/>
<polygon fill="black" stroke="black" points="111.51,-182 101.9,-177.54 106.63,-187.02 111.51,-182"/>
</g>
<!-- GetLk! -->
<g id="node5" class="node">
<title>GetLk!</title>
<ellipse fill="gray" stroke="black" cx="160.95" cy="-162" rx="27" ry="18"/>
<text text-anchor="middle" x="160.95" y="-159.8" font-family="Times,serif" font-size="9.00">GetLk!</text>
</g>
<!-- Sequence&#45;&gt;GetLk! -->
<g id="edge4" class="edge">
<title>Sequence&#45;&gt;GetLk!</title>
<path fill="none" stroke="black" d="M159.44,-215.7C159.67,-207.98 159.93,-198.71 160.18,-190.11"/>
<polygon fill="black" stroke="black" points="163.67,-190.2 160.46,-180.1 156.68,-190 163.67,-190.2"/>
</g>
<!-- Fallback* -->
<g id="node7" class="node">
<title>Fallback*</title>
<polygon fill="cyan" stroke="black" points="272.69,-154.54 272.69,-169.46 254.1,-180 227.8,-180 209.21,-169.46 209.21,-154.54 227.8,-144 254.1,-144 272.69,-154.54"/>
<text text-anchor="middle" x="240.95" y="-159.8" font-family="Times,serif" font-size="9.00">Fallback*</text>
</g>
<!-- Sequence*&#45;&gt;Fallback* -->
<g id="edge6" class="edge">
<title>Sequence*&#45;&gt;Fallback*</title>
<path fill="none" stroke="black" d="M242.46,-215.7C242.24,-207.98 241.97,-198.71 241.73,-190.11"/>
<polygon fill="black" stroke="black" points="245.22,-190 241.44,-180.1 238.23,-190.2 245.22,-190"/>
</g>
<!-- MoveTo!* -->
<g id="node15" class="node">
<title>MoveTo!*</title>
<ellipse fill="gray" stroke="black" cx="322.95" cy="-162" rx="31.51" ry="18"/>
<text text-anchor="middle" x="322.95" y="-159.8" font-family="Times,serif" font-size="9.00">MoveTo!*</text>
</g>
<!-- Sequence*&#45;&gt;MoveTo!* -->
<g id="edge14" class="edge">
<title>Sequence*&#45;&gt;MoveTo!*</title>
<path fill="none" stroke="black" d="M260.71,-217.46C271.88,-207.68 286.46,-194.93 298.69,-184.22"/>
<polygon fill="black" stroke="black" points="301.12,-186.76 306.34,-177.54 296.51,-181.49 301.12,-186.76"/>
</g>
<!-- GetSubGoal! -->
<g id="node8" class="node">
<title>GetSubGoal!</title>
<ellipse fill="gray" stroke="black" cx="36.95" cy="-90" rx="36.9" ry="18"/>
<text text-anchor="middle" x="36.95" y="-87.8" font-family="Times,serif" font-size="9.00">GetSubGoal!</text>
</g>
<!-- Fallback*&#45;&gt;GetSubGoal! -->
<g id="edge7" class="edge">
<title>Fallback*&#45;&gt;GetSubGoal!</title>
<path fill="none" stroke="black" d="M215.46,-150.84C209.42,-148.52 202.98,-146.11 196.95,-144 146.81,-126.42 133.22,-125.21 82.95,-108 80.4,-107.13 77.77,-106.21 75.12,-105.27"/>
<polygon fill="black" stroke="black" points="76.18,-101.93 65.58,-101.82 73.8,-108.51 76.18,-101.93"/>
</g>
<!-- NotReadyForSG? -->
<g id="node9" class="node">
<title>NotReadyForSG?</title>
<ellipse fill="gray" stroke="black" cx="138.95" cy="-90" rx="46.53" ry="18"/>
<text text-anchor="middle" x="138.95" y="-87.8" font-family="Times,serif" font-size="9.00">NotReadyForSG?</text>
</g>
<!-- Fallback*&#45;&gt;NotReadyForSG? -->
<g id="edge8" class="edge">
<title>Fallback*&#45;&gt;NotReadyForSG?</title>
<path fill="none" stroke="black" d="M221.28,-147.5C206.59,-137.42 186.24,-123.45 169.44,-111.93"/>
<polygon fill="black" stroke="black" points="171.26,-108.93 161.04,-106.16 167.3,-114.7 171.26,-108.93"/>
</g>
<!-- Sequence** -->
<g id="node10" class="node">
<title>Sequence**</title>
<polygon fill="cyan" stroke="black" points="277.69,-82.54 277.69,-97.46 256.17,-108 225.73,-108 204.21,-97.46 204.21,-82.54 225.73,-72 256.17,-72 277.69,-82.54"/>
<text text-anchor="middle" x="240.95" y="-87.8" font-family="Times,serif" font-size="9.00">Sequence**</text>
</g>
<!-- Fallback*&#45;&gt;Sequence** -->
<g id="edge9" class="edge">
<title>Fallback*&#45;&gt;Sequence**</title>
<path fill="none" stroke="black" d="M240.95,-143.7C240.95,-135.98 240.95,-126.71 240.95,-118.11"/>
<polygon fill="black" stroke="black" points="244.45,-118.1 240.95,-108.1 237.45,-118.1 244.45,-118.1"/>
</g>
<!-- GetSubGoal!* -->
<g id="node13" class="node">
<title>GetSubGoal!*</title>
<ellipse fill="gray" stroke="black" cx="334.95" cy="-90" rx="39.02" ry="18"/>
<text text-anchor="middle" x="334.95" y="-87.8" font-family="Times,serif" font-size="9.00">GetSubGoal!*</text>
</g>
<!-- Fallback*&#45;&gt;GetSubGoal!* -->
<g id="edge12" class="edge">
<title>Fallback*&#45;&gt;GetSubGoal!*</title>
<path fill="none" stroke="black" d="M259.97,-146.83C273.55,-136.72 292.03,-122.96 307.24,-111.63"/>
<polygon fill="black" stroke="black" points="309.38,-114.41 315.31,-105.63 305.2,-108.79 309.38,-114.41"/>
</g>
<!-- CompLkGraph!* -->
<g id="node14" class="node">
<title>CompLkGraph!*</title>
<ellipse fill="gray" stroke="black" cx="436.95" cy="-90" rx="45.07" ry="18"/>
<text text-anchor="middle" x="436.95" y="-87.8" font-family="Times,serif" font-size="9.00">CompLkGraph!*</text>
</g>
<!-- Fallback*&#45;&gt;CompLkGraph!* -->
<g id="edge13" class="edge">
<title>Fallback*&#45;&gt;CompLkGraph!*</title>
<path fill="none" stroke="black" d="M265.57,-150.5C270.94,-148.29 276.62,-146.02 281.95,-144 319.16,-129.94 361.98,-115.42 393.17,-105.15"/>
<polygon fill="black" stroke="black" points="394.45,-108.41 402.86,-101.96 392.27,-101.76 394.45,-108.41"/>
</g>
<!-- CompLkGraph! -->
<g id="node11" class="node">
<title>CompLkGraph!</title>
<ellipse fill="gray" stroke="black" cx="195.95" cy="-18" rx="42.95" ry="18"/>
<text text-anchor="middle" x="195.95" y="-15.8" font-family="Times,serif" font-size="9.00">CompLkGraph!</text>
</g>
<!-- Sequence**&#45;&gt;CompLkGraph! -->
<g id="edge10" class="edge">
<title>Sequence**&#45;&gt;CompLkGraph!</title>
<path fill="none" stroke="black" d="M229.83,-71.7C224.52,-63.44 218.06,-53.39 212.21,-44.3"/>
<polygon fill="black" stroke="black" points="214.99,-42.14 206.64,-35.62 209.1,-45.93 214.99,-42.14"/>
</g>
<!-- MoveTo! -->
<g id="node12" class="node">
<title>MoveTo!</title>
<ellipse fill="gray" stroke="black" cx="285.95" cy="-18" rx="28.74" ry="18"/>
<text text-anchor="middle" x="285.95" y="-15.8" font-family="Times,serif" font-size="9.00">MoveTo!</text>
</g>
<!-- Sequence**&#45;&gt;MoveTo! -->
<g id="edge11" class="edge">
<title>Sequence**&#45;&gt;MoveTo!</title>
<path fill="none" stroke="black" d="M252.07,-71.7C257.52,-63.23 264.17,-52.89 270.13,-43.61"/>
<polygon fill="black" stroke="black" points="273.11,-45.45 275.57,-35.14 267.22,-41.66 273.11,-45.45"/>
</g>
</g>
</svg>
