<?xml version="1.0" encoding="UTF-8" standalone="no"?>
<!DOCTYPE svg PUBLIC "-//W3C//DTD SVG 1.1//EN"
 "http://www.w3.org/Graphics/SVG/1.1/DTD/svg11.dtd">
<!-- Generated by graphviz version 2.43.0 (0)
 -->
<!-- Title: pastafarianism Pages: 1 -->
<svg width="1177pt" height="332pt"
 viewBox="0.00 0.00 1177.30 332.00" xmlns="http://www.w3.org/2000/svg" xmlns:xlink="http://www.w3.org/1999/xlink">
<g id="graph0" class="graph" transform="scale(1 1) rotate(0) translate(4 328)">
<title>pastafarianism</title>
<polygon fill="white" stroke="transparent" points="-4,4 -4,-328 1173.3,-328 1173.3,4 -4,4"/>
<!-- Fallback -->
<g id="node1" class="node">
<title>Fallback</title>
<polygon fill="cyan" stroke="black" points="803.01,-298.54 803.01,-313.46 785.88,-324 761.65,-324 744.52,-313.46 744.52,-298.54 761.65,-288 785.88,-288 803.01,-298.54"/>
<text text-anchor="middle" x="773.77" y="-303.8" font-family="Times,serif" font-size="9.00">Fallback</text>
</g>
<!-- Sequence -->
<g id="node2" class="node">
<title>Sequence</title>
<polygon fill="cyan" stroke="black" points="507.26,-226.54 507.26,-241.46 488.81,-252 462.72,-252 444.27,-241.46 444.27,-226.54 462.72,-216 488.81,-216 507.26,-226.54"/>
<text text-anchor="middle" x="475.77" y="-231.8" font-family="Times,serif" font-size="9.00">Sequence</text>
</g>
<!-- Fallback&#45;&gt;Sequence -->
<g id="edge1" class="edge">
<title>Fallback&#45;&gt;Sequence</title>
<path fill="none" stroke="black" d="M744.92,-298.22C691.62,-285.7 577.59,-258.92 516.46,-244.56"/>
<polygon fill="black" stroke="black" points="516.94,-241.08 506.4,-242.2 515.34,-247.89 516.94,-241.08"/>
</g>
<!-- ReachGoal? -->
<g id="node16" class="node">
<title>ReachGoal?</title>
<ellipse fill="gray" stroke="black" cx="639.77" cy="-234" rx="34.13" ry="18"/>
<text text-anchor="middle" x="639.77" y="-231.8" font-family="Times,serif" font-size="9.00">ReachGoal?</text>
</g>
<!-- Fallback&#45;&gt;ReachGoal? -->
<g id="edge15" class="edge">
<title>Fallback&#45;&gt;ReachGoal?</title>
<path fill="none" stroke="black" d="M752.24,-293.75C730.59,-282.44 696.95,-264.87 672.09,-251.89"/>
<polygon fill="black" stroke="black" points="673.53,-248.69 663.04,-247.16 670.28,-254.89 673.53,-248.69"/>
</g>
<!-- Sequence** -->
<g id="node17" class="node">
<title>Sequence**</title>
<polygon fill="cyan" stroke="black" points="765.51,-226.54 765.51,-241.46 743.98,-252 713.55,-252 692.02,-241.46 692.02,-226.54 713.55,-216 743.98,-216 765.51,-226.54"/>
<text text-anchor="middle" x="728.77" y="-231.8" font-family="Times,serif" font-size="9.00">Sequence**</text>
</g>
<!-- Fallback&#45;&gt;Sequence** -->
<g id="edge16" class="edge">
<title>Fallback&#45;&gt;Sequence**</title>
<path fill="none" stroke="black" d="M762.64,-287.7C757.41,-279.56 751.07,-269.69 745.29,-260.7"/>
<polygon fill="black" stroke="black" points="748.11,-258.62 739.76,-252.1 742.22,-262.41 748.11,-258.62"/>
</g>
<!-- LkGraph?** -->
<g id="node25" class="node">
<title>LkGraph?**</title>
<ellipse fill="gray" stroke="black" cx="819.77" cy="-234" rx="35.59" ry="18"/>
<text text-anchor="middle" x="819.77" y="-231.8" font-family="Times,serif" font-size="9.00">LkGraph?**</text>
</g>
<!-- Fallback&#45;&gt;LkGraph?** -->
<g id="edge24" class="edge">
<title>Fallback&#45;&gt;LkGraph?**</title>
<path fill="none" stroke="black" d="M785.14,-287.7C790.62,-279.35 797.3,-269.18 803.33,-260.02"/>
<polygon fill="black" stroke="black" points="806.28,-261.9 808.84,-251.62 800.43,-258.06 806.28,-261.9"/>
</g>
<!-- GetSubGoal!***** -->
<g id="node26" class="node">
<title>GetSubGoal!*****</title>
<ellipse fill="gray" stroke="black" cx="922.77" cy="-234" rx="49.8" ry="18"/>
<text text-anchor="middle" x="922.77" y="-231.8" font-family="Times,serif" font-size="9.00">GetSubGoal!*****</text>
</g>
<!-- Fallback&#45;&gt;GetSubGoal!***** -->
<g id="edge25" class="edge">
<title>Fallback&#45;&gt;GetSubGoal!*****</title>
<path fill="none" stroke="black" d="M796.4,-294.37C819.8,-283.37 856.77,-266.01 884.68,-252.89"/>
<polygon fill="black" stroke="black" points="886.21,-256.04 893.77,-248.62 883.23,-249.71 886.21,-256.04"/>
</g>
<!-- Sequence**** -->
<g id="node27" class="node">
<title>Sequence****</title>
<polygon fill="cyan" stroke="black" points="1075.25,-226.54 1075.25,-241.46 1050.36,-252 1015.17,-252 990.28,-241.46 990.28,-226.54 1015.17,-216 1050.36,-216 1075.25,-226.54"/>
<text text-anchor="middle" x="1032.77" y="-231.8" font-family="Times,serif" font-size="9.00">Sequence****</text>
</g>
<!-- Fallback&#45;&gt;Sequence**** -->
<g id="edge26" class="edge">
<title>Fallback&#45;&gt;Sequence****</title>
<path fill="none" stroke="black" d="M802.88,-298.28C843.27,-288.81 918.48,-270.58 981.77,-252 984.85,-251.09 988.04,-250.12 991.23,-249.12"/>
<polygon fill="black" stroke="black" points="992.32,-252.45 1000.77,-246.06 990.18,-245.78 992.32,-252.45"/>
</g>
<!-- LkGraph? -->
<g id="node3" class="node">
<title>LkGraph?</title>
<ellipse fill="gray" stroke="black" cx="201.77" cy="-162" rx="30.7" ry="18"/>
<text text-anchor="middle" x="201.77" y="-159.8" font-family="Times,serif" font-size="9.00">LkGraph?</text>
</g>
<!-- Sequence&#45;&gt;LkGraph? -->
<g id="edge2" class="edge">
<title>Sequence&#45;&gt;LkGraph?</title>
<path fill="none" stroke="black" d="M444.47,-227.89C398.94,-220.02 312.11,-203.36 240.77,-180 238.66,-179.31 236.5,-178.55 234.35,-177.74"/>
<polygon fill="black" stroke="black" points="235.58,-174.46 225,-173.98 232.97,-180.96 235.58,-174.46"/>
</g>
<!-- Fallback* -->
<g id="node4" class="node">
<title>Fallback*</title>
<polygon fill="cyan" stroke="black" points="313.51,-154.54 313.51,-169.46 294.91,-180 268.62,-180 250.02,-169.46 250.02,-154.54 268.62,-144 294.91,-144 313.51,-154.54"/>
<text text-anchor="middle" x="281.77" y="-159.8" font-family="Times,serif" font-size="9.00">Fallback*</text>
</g>
<!-- Sequence&#45;&gt;Fallback* -->
<g id="edge3" class="edge">
<title>Sequence&#45;&gt;Fallback*</title>
<path fill="none" stroke="black" d="M449.2,-223.41C415.19,-211.14 356.12,-189.83 318.01,-176.08"/>
<polygon fill="black" stroke="black" points="318.92,-172.68 308.32,-172.58 316.54,-179.27 318.92,-172.68"/>
</g>
<!-- Fallback** -->
<g id="node11" class="node">
<title>Fallback**</title>
<polygon fill="cyan" stroke="black" points="462.76,-154.54 462.76,-169.46 442.26,-180 413.27,-180 392.77,-169.46 392.77,-154.54 413.27,-144 442.26,-144 462.76,-154.54"/>
<text text-anchor="middle" x="427.77" y="-159.8" font-family="Times,serif" font-size="9.00">Fallback**</text>
</g>
<!-- Sequence&#45;&gt;Fallback** -->
<g id="edge10" class="edge">
<title>Sequence&#45;&gt;Fallback**</title>
<path fill="none" stroke="black" d="M463.9,-215.7C458.26,-207.47 451.41,-197.48 445.2,-188.42"/>
<polygon fill="black" stroke="black" points="448.04,-186.37 439.49,-180.1 442.26,-190.33 448.04,-186.37"/>
</g>
<!-- CompLkGraph! -->
<g id="node14" class="node">
<title>CompLkGraph!</title>
<ellipse fill="gray" stroke="black" cx="523.77" cy="-162" rx="42.95" ry="18"/>
<text text-anchor="middle" x="523.77" y="-159.8" font-family="Times,serif" font-size="9.00">CompLkGraph!</text>
</g>
<!-- Sequence&#45;&gt;CompLkGraph! -->
<g id="edge13" class="edge">
<title>Sequence&#45;&gt;CompLkGraph!</title>
<path fill="none" stroke="black" d="M487.63,-215.7C493.35,-207.35 500.32,-197.18 506.61,-188.02"/>
<polygon fill="black" stroke="black" points="509.6,-189.85 512.37,-179.62 503.83,-185.89 509.6,-189.85"/>
</g>
<!-- LkGraph?* -->
<g id="node15" class="node">
<title>LkGraph?*</title>
<ellipse fill="gray" stroke="black" cx="617.77" cy="-162" rx="32.82" ry="18"/>
<text text-anchor="middle" x="617.77" y="-159.8" font-family="Times,serif" font-size="9.00">LkGraph?*</text>
</g>
<!-- Sequence&#45;&gt;LkGraph?* -->
<g id="edge14" class="edge">
<title>Sequence&#45;&gt;LkGraph?*</title>
<path fill="none" stroke="black" d="M498.9,-221.6C522.27,-210.07 558.61,-192.16 584.96,-179.17"/>
<polygon fill="black" stroke="black" points="586.75,-182.19 594.17,-174.63 583.65,-175.91 586.75,-182.19"/>
</g>
<!-- NotReadyForSG? -->
<g id="node5" class="node">
<title>NotReadyForSG?</title>
<ellipse fill="gray" stroke="black" cx="46.77" cy="-90" rx="46.53" ry="18"/>
<text text-anchor="middle" x="46.77" y="-87.8" font-family="Times,serif" font-size="9.00">NotReadyForSG?</text>
</g>
<!-- Fallback*&#45;&gt;NotReadyForSG? -->
<g id="edge4" class="edge">
<title>Fallback*&#45;&gt;NotReadyForSG?</title>
<path fill="none" stroke="black" d="M257.45,-149.99C252.32,-147.86 246.91,-145.75 241.77,-144 181.34,-123.46 164.2,-125.27 102.77,-108 99.18,-106.99 95.47,-105.92 91.75,-104.83"/>
<polygon fill="black" stroke="black" points="92.53,-101.41 81.95,-101.92 90.54,-108.13 92.53,-101.41"/>
</g>
<!-- Sequence* -->
<g id="node6" class="node">
<title>Sequence*</title>
<polygon fill="cyan" stroke="black" points="180.01,-82.54 180.01,-97.46 159.95,-108 131.58,-108 111.52,-97.46 111.52,-82.54 131.58,-72 159.95,-72 180.01,-82.54"/>
<text text-anchor="middle" x="145.77" y="-87.8" font-family="Times,serif" font-size="9.00">Sequence*</text>
</g>
<!-- Fallback*&#45;&gt;Sequence* -->
<g id="edge5" class="edge">
<title>Fallback*&#45;&gt;Sequence*</title>
<path fill="none" stroke="black" d="M259,-149.28C237.01,-137.96 203.46,-120.7 178.59,-107.89"/>
<polygon fill="black" stroke="black" points="180.01,-104.69 169.52,-103.23 176.81,-110.91 180.01,-104.69"/>
</g>
<!-- GetSubGoal! -->
<g id="node9" class="node">
<title>GetSubGoal!</title>
<ellipse fill="gray" stroke="black" cx="234.77" cy="-90" rx="36.9" ry="18"/>
<text text-anchor="middle" x="234.77" y="-87.8" font-family="Times,serif" font-size="9.00">GetSubGoal!</text>
</g>
<!-- Fallback*&#45;&gt;GetSubGoal! -->
<g id="edge8" class="edge">
<title>Fallback*&#45;&gt;GetSubGoal!</title>
<path fill="none" stroke="black" d="M270.15,-143.7C264.54,-135.35 257.72,-125.18 251.56,-116.02"/>
<polygon fill="black" stroke="black" points="254.41,-113.97 245.93,-107.62 248.59,-117.88 254.41,-113.97"/>
</g>
<!-- GetSubGoal!* -->
<g id="node10" class="node">
<title>GetSubGoal!*</title>
<ellipse fill="gray" stroke="black" cx="328.77" cy="-90" rx="39.02" ry="18"/>
<text text-anchor="middle" x="328.77" y="-87.8" font-family="Times,serif" font-size="9.00">GetSubGoal!*</text>
</g>
<!-- Fallback*&#45;&gt;GetSubGoal!* -->
<g id="edge9" class="edge">
<title>Fallback*&#45;&gt;GetSubGoal!*</title>
<path fill="none" stroke="black" d="M293.38,-143.7C298.99,-135.35 305.81,-125.18 311.97,-116.02"/>
<polygon fill="black" stroke="black" points="314.94,-117.88 317.6,-107.62 309.12,-113.97 314.94,-117.88"/>
</g>
<!-- LkClose? -->
<g id="node7" class="node">
<title>LkClose?</title>
<ellipse fill="gray" stroke="black" cx="108.77" cy="-18" rx="28.74" ry="18"/>
<text text-anchor="middle" x="108.77" y="-15.8" font-family="Times,serif" font-size="9.00">LkClose?</text>
</g>
<!-- Sequence*&#45;&gt;LkClose? -->
<g id="edge6" class="edge">
<title>Sequence*&#45;&gt;LkClose?</title>
<path fill="none" stroke="black" d="M136.62,-71.7C132.3,-63.52 127.06,-53.6 122.29,-44.58"/>
<polygon fill="black" stroke="black" points="125.32,-42.83 117.55,-35.62 119.13,-46.1 125.32,-42.83"/>
</g>
<!-- GetLk! -->
<g id="node8" class="node">
<title>GetLk!</title>
<ellipse fill="gray" stroke="black" cx="182.77" cy="-18" rx="27" ry="18"/>
<text text-anchor="middle" x="182.77" y="-15.8" font-family="Times,serif" font-size="9.00">GetLk!</text>
</g>
<!-- Sequence*&#45;&gt;GetLk! -->
<g id="edge7" class="edge">
<title>Sequence*&#45;&gt;GetLk!</title>
<path fill="none" stroke="black" d="M154.91,-71.7C159.3,-63.4 164.63,-53.31 169.45,-44.19"/>
<polygon fill="black" stroke="black" points="172.65,-45.62 174.23,-35.14 166.46,-42.35 172.65,-45.62"/>
</g>
<!-- GetSubGoal!** -->
<g id="node12" class="node">
<title>GetSubGoal!**</title>
<ellipse fill="gray" stroke="black" cx="427.77" cy="-90" rx="42.29" ry="18"/>
<text text-anchor="middle" x="427.77" y="-87.8" font-family="Times,serif" font-size="9.00">GetSubGoal!**</text>
</g>
<!-- Fallback**&#45;&gt;GetSubGoal!** -->
<g id="edge11" class="edge">
<title>Fallback**&#45;&gt;GetSubGoal!**</title>
<path fill="none" stroke="black" d="M427.77,-143.7C427.77,-135.98 427.77,-126.71 427.77,-118.11"/>
<polygon fill="black" stroke="black" points="431.27,-118.1 427.77,-108.1 424.27,-118.1 431.27,-118.1"/>
</g>
<!-- GetSubGoal!*** -->
<g id="node13" class="node">
<title>GetSubGoal!***</title>
<ellipse fill="gray" stroke="black" cx="532.77" cy="-90" rx="44.41" ry="18"/>
<text text-anchor="middle" x="532.77" y="-87.8" font-family="Times,serif" font-size="9.00">GetSubGoal!***</text>
</g>
<!-- Fallback**&#45;&gt;GetSubGoal!*** -->
<g id="edge12" class="edge">
<title>Fallback**&#45;&gt;GetSubGoal!***</title>
<path fill="none" stroke="black" d="M448.51,-147.17C463.78,-136.99 484.79,-122.99 502.01,-111.51"/>
<polygon fill="black" stroke="black" points="504.23,-114.23 510.61,-105.77 500.35,-108.4 504.23,-114.23"/>
</g>
<!-- Fallback*** -->
<g id="node18" class="node">
<title>Fallback***</title>
<polygon fill="cyan" stroke="black" points="766.26,-154.54 766.26,-169.46 744.29,-180 713.24,-180 691.28,-169.46 691.28,-154.54 713.24,-144 744.29,-144 766.26,-154.54"/>
<text text-anchor="middle" x="728.77" y="-159.8" font-family="Times,serif" font-size="9.00">Fallback***</text>
</g>
<!-- Sequence**&#45;&gt;Fallback*** -->
<g id="edge17" class="edge">
<title>Sequence**&#45;&gt;Fallback***</title>
<path fill="none" stroke="black" d="M728.77,-215.7C728.77,-207.98 728.77,-198.71 728.77,-190.11"/>
<polygon fill="black" stroke="black" points="732.27,-190.1 728.77,-180.1 725.27,-190.1 732.27,-190.1"/>
</g>
<!-- MoveTo! -->
<g id="node24" class="node">
<title>MoveTo!</title>
<ellipse fill="gray" stroke="black" cx="812.77" cy="-162" rx="28.74" ry="18"/>
<text text-anchor="middle" x="812.77" y="-159.8" font-family="Times,serif" font-size="9.00">MoveTo!</text>
</g>
<!-- Sequence**&#45;&gt;MoveTo! -->
<g id="edge23" class="edge">
<title>Sequence**&#45;&gt;MoveTo!</title>
<path fill="none" stroke="black" d="M747.41,-217.46C759.5,-207.39 775.37,-194.16 788.45,-183.27"/>
<polygon fill="black" stroke="black" points="790.72,-185.92 796.17,-176.83 786.24,-180.55 790.72,-185.92"/>
</g>
<!-- NotReadyForSG?* -->
<g id="node19" class="node">
<title>NotReadyForSG?*</title>
<ellipse fill="gray" stroke="black" cx="644.77" cy="-90" rx="49.8" ry="18"/>
<text text-anchor="middle" x="644.77" y="-87.8" font-family="Times,serif" font-size="9.00">NotReadyForSG?*</text>
</g>
<!-- Fallback***&#45;&gt;NotReadyForSG?* -->
<g id="edge18" class="edge">
<title>Fallback***&#45;&gt;NotReadyForSG?*</title>
<path fill="none" stroke="black" d="M710.12,-145.46C698.78,-136.02 684.11,-123.79 671.55,-113.32"/>
<polygon fill="black" stroke="black" points="673.57,-110.45 663.65,-106.73 669.09,-115.82 673.57,-110.45"/>
</g>
<!-- Sequence*** -->
<g id="node20" class="node">
<title>Sequence***</title>
<polygon fill="cyan" stroke="black" points="792.76,-82.54 792.76,-97.46 769.33,-108 736.2,-108 712.78,-97.46 712.78,-82.54 736.2,-72 769.33,-72 792.76,-82.54"/>
<text text-anchor="middle" x="752.77" y="-87.8" font-family="Times,serif" font-size="9.00">Sequence***</text>
</g>
<!-- Fallback***&#45;&gt;Sequence*** -->
<g id="edge19" class="edge">
<title>Fallback***&#45;&gt;Sequence***</title>
<path fill="none" stroke="black" d="M734.7,-143.7C737.37,-135.9 740.59,-126.51 743.57,-117.83"/>
<polygon fill="black" stroke="black" points="746.97,-118.7 746.9,-108.1 740.35,-116.43 746.97,-118.7"/>
</g>
<!-- GetSubGoal!**** -->
<g id="node23" class="node">
<title>GetSubGoal!****</title>
<ellipse fill="gray" stroke="black" cx="857.77" cy="-90" rx="47.19" ry="18"/>
<text text-anchor="middle" x="857.77" y="-87.8" font-family="Times,serif" font-size="9.00">GetSubGoal!****</text>
</g>
<!-- Fallback***&#45;&gt;GetSubGoal!**** -->
<g id="edge22" class="edge">
<title>Fallback***&#45;&gt;GetSubGoal!****</title>
<path fill="none" stroke="black" d="M752.73,-148C772.45,-137.29 800.68,-121.98 822.91,-109.91"/>
<polygon fill="black" stroke="black" points="824.6,-112.98 831.72,-105.14 821.26,-106.83 824.6,-112.98"/>
</g>
<!-- NotReadyForSG?** -->
<g id="node21" class="node">
<title>NotReadyForSG?**</title>
<ellipse fill="gray" stroke="black" cx="694.77" cy="-18" rx="51.92" ry="18"/>
<text text-anchor="middle" x="694.77" y="-15.8" font-family="Times,serif" font-size="9.00">NotReadyForSG?**</text>
</g>
<!-- Sequence***&#45;&gt;NotReadyForSG?** -->
<g id="edge20" class="edge">
<title>Sequence***&#45;&gt;NotReadyForSG?**</title>
<path fill="none" stroke="black" d="M738.43,-71.7C731.37,-63.18 722.74,-52.76 715.02,-43.45"/>
<polygon fill="black" stroke="black" points="717.61,-41.09 708.54,-35.62 712.22,-45.56 717.61,-41.09"/>
</g>
<!-- CompLkGraph!* -->
<g id="node22" class="node">
<title>CompLkGraph!*</title>
<ellipse fill="gray" stroke="black" cx="809.77" cy="-18" rx="45.07" ry="18"/>
<text text-anchor="middle" x="809.77" y="-15.8" font-family="Times,serif" font-size="9.00">CompLkGraph!*</text>
</g>
<!-- Sequence***&#45;&gt;CompLkGraph!* -->
<g id="edge21" class="edge">
<title>Sequence***&#45;&gt;CompLkGraph!*</title>
<path fill="none" stroke="black" d="M766.86,-71.7C773.79,-63.18 782.27,-52.76 789.86,-43.45"/>
<polygon fill="black" stroke="black" points="792.63,-45.59 796.23,-35.62 787.2,-41.17 792.63,-45.59"/>
</g>
<!-- Fallback**** -->
<g id="node28" class="node">
<title>Fallback****</title>
<polygon fill="cyan" stroke="black" points="1046.51,-154.54 1046.51,-169.46 1022.64,-180 988.89,-180 965.03,-169.46 965.03,-154.54 988.89,-144 1022.64,-144 1046.51,-154.54"/>
<text text-anchor="middle" x="1005.77" y="-159.8" font-family="Times,serif" font-size="9.00">Fallback****</text>
</g>
<!-- Sequence****&#45;&gt;Fallback**** -->
<g id="edge27" class="edge">
<title>Sequence****&#45;&gt;Fallback****</title>
<path fill="none" stroke="black" d="M1026.09,-215.7C1023.05,-207.81 1019.38,-198.3 1016,-189.55"/>
<polygon fill="black" stroke="black" points="1019.23,-188.17 1012.36,-180.1 1012.7,-190.69 1019.23,-188.17"/>
</g>
<!-- MoveTo!* -->
<g id="node31" class="node">
<title>MoveTo!*</title>
<ellipse fill="gray" stroke="black" cx="1095.77" cy="-162" rx="31.51" ry="18"/>
<text text-anchor="middle" x="1095.77" y="-159.8" font-family="Times,serif" font-size="9.00">MoveTo!*</text>
</g>
<!-- Sequence****&#45;&gt;MoveTo!* -->
<g id="edge30" class="edge">
<title>Sequence****&#45;&gt;MoveTo!*</title>
<path fill="none" stroke="black" d="M1048.34,-215.7C1056.31,-206.84 1066.13,-195.93 1074.76,-186.34"/>
<polygon fill="black" stroke="black" points="1077.57,-188.45 1081.66,-178.67 1072.37,-183.76 1077.57,-188.45"/>
</g>
<!-- NotReadyForSG?*** -->
<g id="node29" class="node">
<title>NotReadyForSG?***</title>
<ellipse fill="gray" stroke="black" cx="991.77" cy="-90" rx="54.7" ry="18"/>
<text text-anchor="middle" x="991.77" y="-87.8" font-family="Times,serif" font-size="9.00">NotReadyForSG?***</text>
</g>
<!-- Fallback****&#45;&gt;NotReadyForSG?*** -->
<g id="edge28" class="edge">
<title>Fallback****&#45;&gt;NotReadyForSG?***</title>
<path fill="none" stroke="black" d="M1002.3,-143.7C1000.76,-135.98 998.91,-126.71 997.19,-118.11"/>
<polygon fill="black" stroke="black" points="1000.58,-117.22 995.19,-108.1 993.72,-118.6 1000.58,-117.22"/>
</g>
<!-- GetSubGoal!****** -->
<g id="node30" class="node">
<title>GetSubGoal!******</title>
<ellipse fill="gray" stroke="black" cx="1116.77" cy="-90" rx="52.58" ry="18"/>
<text text-anchor="middle" x="1116.77" y="-87.8" font-family="Times,serif" font-size="9.00">GetSubGoal!******</text>
</g>
<!-- Fallback****&#45;&gt;GetSubGoal!****** -->
<g id="edge29" class="edge">
<title>Fallback****&#45;&gt;GetSubGoal!******</title>
<path fill="none" stroke="black" d="M1028.76,-146.5C1044.66,-136.47 1066.05,-122.98 1083.77,-111.81"/>
<polygon fill="black" stroke="black" points="1086.05,-114.51 1092.64,-106.21 1082.32,-108.59 1086.05,-114.51"/>
</g>
</g>
</svg>
