<?xml version="1.0" encoding="UTF-8" standalone="no"?>
<!DOCTYPE svg PUBLIC "-//W3C//DTD SVG 1.1//EN"
 "http://www.w3.org/Graphics/SVG/1.1/DTD/svg11.dtd">
<!-- Generated by graphviz version 2.43.0 (0)
 -->
<!-- Title: pastafarianism Pages: 1 -->
<svg width="1219pt" height="332pt"
 viewBox="0.00 0.00 1218.69 332.00" xmlns="http://www.w3.org/2000/svg" xmlns:xlink="http://www.w3.org/1999/xlink">
<g id="graph0" class="graph" transform="scale(1 1) rotate(0) translate(4 328)">
<title>pastafarianism</title>
<polygon fill="white" stroke="transparent" points="-4,4 -4,-328 1214.69,-328 1214.69,4 -4,4"/>
<!-- Fallback -->
<g id="node1" class="node">
<title>Fallback</title>
<polygon fill="cyan" stroke="black" points="807.01,-298.54 807.01,-313.46 789.88,-324 765.65,-324 748.52,-313.46 748.52,-298.54 765.65,-288 789.88,-288 807.01,-298.54"/>
<text text-anchor="middle" x="777.77" y="-303.8" font-family="Times,serif" font-size="9.00">Fallback</text>
</g>
<!-- Sequence -->
<g id="node2" class="node">
<title>Sequence</title>
<polygon fill="cyan" stroke="black" points="374.26,-226.54 374.26,-241.46 355.81,-252 329.72,-252 311.27,-241.46 311.27,-226.54 329.72,-216 355.81,-216 374.26,-226.54"/>
<text text-anchor="middle" x="342.77" y="-231.8" font-family="Times,serif" font-size="9.00">Sequence</text>
</g>
<!-- Fallback&#45;&gt;Sequence -->
<g id="edge1" class="edge">
<title>Fallback&#45;&gt;Sequence</title>
<path fill="none" stroke="black" d="M748.21,-300.24C672.5,-288.06 471.45,-255.71 384.17,-241.66"/>
<polygon fill="black" stroke="black" points="384.54,-238.18 374.11,-240.04 383.42,-245.09 384.54,-238.18"/>
</g>
<!-- ReachGoal? -->
<g id="node13" class="node">
<title>ReachGoal?</title>
<ellipse fill="gray" stroke="black" cx="607.77" cy="-234" rx="34.13" ry="18"/>
<text text-anchor="middle" x="607.77" y="-231.8" font-family="Times,serif" font-size="9.00">ReachGoal?</text>
</g>
<!-- Fallback&#45;&gt;ReachGoal? -->
<g id="edge12" class="edge">
<title>Fallback&#45;&gt;ReachGoal?</title>
<path fill="none" stroke="black" d="M753.77,-295.12C724.95,-283.25 676.35,-263.24 643.2,-249.59"/>
<polygon fill="black" stroke="black" points="644.45,-246.32 633.87,-245.75 641.78,-252.79 644.45,-246.32"/>
</g>
<!-- LkGraph?* -->
<g id="node14" class="node">
<title>LkGraph?*</title>
<ellipse fill="gray" stroke="black" cx="692.77" cy="-234" rx="32.82" ry="18"/>
<text text-anchor="middle" x="692.77" y="-231.8" font-family="Times,serif" font-size="9.00">LkGraph?*</text>
</g>
<!-- Fallback&#45;&gt;LkGraph?* -->
<g id="edge13" class="edge">
<title>Fallback&#45;&gt;LkGraph?*</title>
<path fill="none" stroke="black" d="M760.56,-290.83C748.43,-280.84 731.98,-267.29 718.31,-256.04"/>
<polygon fill="black" stroke="black" points="720.18,-253.04 710.23,-249.38 715.73,-258.44 720.18,-253.04"/>
</g>
<!-- Sequence* -->
<g id="node15" class="node">
<title>Sequence*</title>
<polygon fill="cyan" stroke="black" points="812.01,-226.54 812.01,-241.46 791.95,-252 763.58,-252 743.52,-241.46 743.52,-226.54 763.58,-216 791.95,-216 812.01,-226.54"/>
<text text-anchor="middle" x="777.77" y="-231.8" font-family="Times,serif" font-size="9.00">Sequence*</text>
</g>
<!-- Fallback&#45;&gt;Sequence* -->
<g id="edge14" class="edge">
<title>Fallback&#45;&gt;Sequence*</title>
<path fill="none" stroke="black" d="M777.77,-287.7C777.77,-279.98 777.77,-270.71 777.77,-262.11"/>
<polygon fill="black" stroke="black" points="781.27,-262.1 777.77,-252.1 774.27,-262.1 781.27,-262.1"/>
</g>
<!-- NotReadyForSG?***** -->
<g id="node23" class="node">
<title>NotReadyForSG?*****</title>
<ellipse fill="gray" stroke="black" cx="889.77" cy="-234" rx="60.09" ry="18"/>
<text text-anchor="middle" x="889.77" y="-231.8" font-family="Times,serif" font-size="9.00">NotReadyForSG?*****</text>
</g>
<!-- Fallback&#45;&gt;NotReadyForSG?***** -->
<g id="edge22" class="edge">
<title>Fallback&#45;&gt;NotReadyForSG?*****</title>
<path fill="none" stroke="black" d="M797.53,-292.65C813.69,-282.55 836.89,-268.05 855.99,-256.11"/>
<polygon fill="black" stroke="black" points="858.08,-258.93 864.7,-250.66 854.37,-253 858.08,-258.93"/>
</g>
<!-- Sequence*** -->
<g id="node24" class="node">
<title>Sequence***</title>
<polygon fill="cyan" stroke="black" points="1047.76,-226.54 1047.76,-241.46 1024.33,-252 991.2,-252 967.78,-241.46 967.78,-226.54 991.2,-216 1024.33,-216 1047.76,-226.54"/>
<text text-anchor="middle" x="1007.77" y="-231.8" font-family="Times,serif" font-size="9.00">Sequence***</text>
</g>
<!-- Fallback&#45;&gt;Sequence*** -->
<g id="edge23" class="edge">
<title>Fallback&#45;&gt;Sequence***</title>
<path fill="none" stroke="black" d="M805.49,-297.34C841.12,-287.39 904.81,-269.25 958.77,-252 961.67,-251.07 964.67,-250.09 967.68,-249.09"/>
<polygon fill="black" stroke="black" points="968.91,-252.36 977.26,-245.84 966.67,-245.73 968.91,-252.36"/>
</g>
<!-- GetSubGoal!**** -->
<g id="node28" class="node">
<title>GetSubGoal!****</title>
<ellipse fill="gray" stroke="black" cx="1112.77" cy="-234" rx="47.19" ry="18"/>
<text text-anchor="middle" x="1112.77" y="-231.8" font-family="Times,serif" font-size="9.00">GetSubGoal!****</text>
</g>
<!-- Fallback&#45;&gt;GetSubGoal!**** -->
<g id="edge27" class="edge">
<title>Fallback&#45;&gt;GetSubGoal!****</title>
<path fill="none" stroke="black" d="M807.31,-300.46C858.48,-292.35 966.76,-274.14 1056.77,-252 1060.38,-251.11 1064.11,-250.13 1067.85,-249.09"/>
<polygon fill="black" stroke="black" points="1069.02,-252.4 1077.67,-246.28 1067.1,-245.67 1069.02,-252.4"/>
</g>
<!-- LkGraph? -->
<g id="node3" class="node">
<title>LkGraph?</title>
<ellipse fill="gray" stroke="black" cx="162.77" cy="-162" rx="30.7" ry="18"/>
<text text-anchor="middle" x="162.77" y="-159.8" font-family="Times,serif" font-size="9.00">LkGraph?</text>
</g>
<!-- Sequence&#45;&gt;LkGraph? -->
<g id="edge2" class="edge">
<title>Sequence&#45;&gt;LkGraph?</title>
<path fill="none" stroke="black" d="M316.36,-223.54C287.91,-213.23 241.39,-196.07 201.77,-180 199.92,-179.25 198.03,-178.47 196.12,-177.67"/>
<polygon fill="black" stroke="black" points="197.18,-174.32 186.61,-173.62 194.44,-180.76 197.18,-174.32"/>
</g>
<!-- Fallback* -->
<g id="node4" class="node">
<title>Fallback*</title>
<polygon fill="cyan" stroke="black" points="274.51,-154.54 274.51,-169.46 255.91,-180 229.62,-180 211.02,-169.46 211.02,-154.54 229.62,-144 255.91,-144 274.51,-154.54"/>
<text text-anchor="middle" x="242.77" y="-159.8" font-family="Times,serif" font-size="9.00">Fallback*</text>
</g>
<!-- Sequence&#45;&gt;Fallback* -->
<g id="edge3" class="edge">
<title>Sequence&#45;&gt;Fallback*</title>
<path fill="none" stroke="black" d="M323.48,-219.5C308.5,-209.02 287.51,-194.32 270.69,-182.55"/>
<polygon fill="black" stroke="black" points="272.53,-179.56 262.33,-176.69 268.51,-185.3 272.53,-179.56"/>
</g>
<!-- CompLkGraph! -->
<g id="node8" class="node">
<title>CompLkGraph!</title>
<ellipse fill="gray" stroke="black" cx="342.77" cy="-162" rx="42.95" ry="18"/>
<text text-anchor="middle" x="342.77" y="-159.8" font-family="Times,serif" font-size="9.00">CompLkGraph!</text>
</g>
<!-- Sequence&#45;&gt;CompLkGraph! -->
<g id="edge7" class="edge">
<title>Sequence&#45;&gt;CompLkGraph!</title>
<path fill="none" stroke="black" d="M342.77,-215.7C342.77,-207.98 342.77,-198.71 342.77,-190.11"/>
<polygon fill="black" stroke="black" points="346.27,-190.1 342.77,-180.1 339.27,-190.1 346.27,-190.1"/>
</g>
<!-- Fallback** -->
<g id="node9" class="node">
<title>Fallback**</title>
<polygon fill="cyan" stroke="black" points="480.76,-154.54 480.76,-169.46 460.26,-180 431.27,-180 410.77,-169.46 410.77,-154.54 431.27,-144 460.26,-144 480.76,-154.54"/>
<text text-anchor="middle" x="445.77" y="-159.8" font-family="Times,serif" font-size="9.00">Fallback**</text>
</g>
<!-- Sequence&#45;&gt;Fallback** -->
<g id="edge8" class="edge">
<title>Sequence&#45;&gt;Fallback**</title>
<path fill="none" stroke="black" d="M362.62,-219.5C377.96,-209.08 399.4,-194.51 416.67,-182.78"/>
<polygon fill="black" stroke="black" points="418.96,-185.45 425.26,-176.93 415.02,-179.66 418.96,-185.45"/>
</g>
<!-- NotReadyForSG? -->
<g id="node5" class="node">
<title>NotReadyForSG?</title>
<ellipse fill="gray" stroke="black" cx="46.77" cy="-90" rx="46.53" ry="18"/>
<text text-anchor="middle" x="46.77" y="-87.8" font-family="Times,serif" font-size="9.00">NotReadyForSG?</text>
</g>
<!-- Fallback*&#45;&gt;NotReadyForSG? -->
<g id="edge4" class="edge">
<title>Fallback*&#45;&gt;NotReadyForSG?</title>
<path fill="none" stroke="black" d="M218.34,-150.28C213.23,-148.13 207.84,-145.94 202.77,-144 165.63,-129.82 122.85,-115.42 91.49,-105.22"/>
<polygon fill="black" stroke="black" points="92.32,-101.81 81.73,-102.05 90.16,-108.47 92.32,-101.81"/>
</g>
<!-- GetSubGoal! -->
<g id="node6" class="node">
<title>GetSubGoal!</title>
<ellipse fill="gray" stroke="black" cx="148.77" cy="-90" rx="36.9" ry="18"/>
<text text-anchor="middle" x="148.77" y="-87.8" font-family="Times,serif" font-size="9.00">GetSubGoal!</text>
</g>
<!-- Fallback*&#45;&gt;GetSubGoal! -->
<g id="edge5" class="edge">
<title>Fallback*&#45;&gt;GetSubGoal!</title>
<path fill="none" stroke="black" d="M223.74,-146.83C210.07,-136.65 191.44,-122.78 176.17,-111.41"/>
<polygon fill="black" stroke="black" points="178.19,-108.55 168.08,-105.38 174.01,-114.16 178.19,-108.55"/>
</g>
<!-- GetSubGoal!* -->
<g id="node7" class="node">
<title>GetSubGoal!*</title>
<ellipse fill="gray" stroke="black" cx="242.77" cy="-90" rx="39.02" ry="18"/>
<text text-anchor="middle" x="242.77" y="-87.8" font-family="Times,serif" font-size="9.00">GetSubGoal!*</text>
</g>
<!-- Fallback*&#45;&gt;GetSubGoal!* -->
<g id="edge6" class="edge">
<title>Fallback*&#45;&gt;GetSubGoal!*</title>
<path fill="none" stroke="black" d="M242.77,-143.7C242.77,-135.98 242.77,-126.71 242.77,-118.11"/>
<polygon fill="black" stroke="black" points="246.27,-118.1 242.77,-108.1 239.27,-118.1 246.27,-118.1"/>
</g>
<!-- NotReadyForSG?* -->
<g id="node10" class="node">
<title>NotReadyForSG?*</title>
<ellipse fill="gray" stroke="black" cx="349.77" cy="-90" rx="49.8" ry="18"/>
<text text-anchor="middle" x="349.77" y="-87.8" font-family="Times,serif" font-size="9.00">NotReadyForSG?*</text>
</g>
<!-- Fallback**&#45;&gt;NotReadyForSG?* -->
<g id="edge9" class="edge">
<title>Fallback**&#45;&gt;NotReadyForSG?*</title>
<path fill="none" stroke="black" d="M425.87,-146.5C412.47,-136.72 394.55,-123.65 379.46,-112.65"/>
<polygon fill="black" stroke="black" points="381.11,-109.52 370.96,-106.46 376.98,-115.18 381.11,-109.52"/>
</g>
<!-- GetSubGoal!** -->
<g id="node11" class="node">
<title>GetSubGoal!**</title>
<ellipse fill="gray" stroke="black" cx="459.77" cy="-90" rx="42.29" ry="18"/>
<text text-anchor="middle" x="459.77" y="-87.8" font-family="Times,serif" font-size="9.00">GetSubGoal!**</text>
</g>
<!-- Fallback**&#45;&gt;GetSubGoal!** -->
<g id="edge10" class="edge">
<title>Fallback**&#45;&gt;GetSubGoal!**</title>
<path fill="none" stroke="black" d="M449.23,-143.7C450.77,-135.98 452.62,-126.71 454.34,-118.11"/>
<polygon fill="black" stroke="black" points="457.82,-118.6 456.34,-108.1 450.95,-117.22 457.82,-118.6"/>
</g>
<!-- NotReadyForSG?** -->
<g id="node12" class="node">
<title>NotReadyForSG?**</title>
<ellipse fill="gray" stroke="black" cx="571.77" cy="-90" rx="51.92" ry="18"/>
<text text-anchor="middle" x="571.77" y="-87.8" font-family="Times,serif" font-size="9.00">NotReadyForSG?**</text>
</g>
<!-- Fallback**&#45;&gt;NotReadyForSG?** -->
<g id="edge11" class="edge">
<title>Fallback**&#45;&gt;NotReadyForSG?**</title>
<path fill="none" stroke="black" d="M468.88,-148.16C487.77,-137.66 514.81,-122.64 536.42,-110.64"/>
<polygon fill="black" stroke="black" points="538.27,-113.61 545.31,-105.7 534.87,-107.49 538.27,-113.61"/>
</g>
<!-- Fallback*** -->
<g id="node16" class="node">
<title>Fallback***</title>
<polygon fill="cyan" stroke="black" points="789.26,-154.54 789.26,-169.46 767.29,-180 736.24,-180 714.28,-169.46 714.28,-154.54 736.24,-144 767.29,-144 789.26,-154.54"/>
<text text-anchor="middle" x="751.77" y="-159.8" font-family="Times,serif" font-size="9.00">Fallback***</text>
</g>
<!-- Sequence*&#45;&gt;Fallback*** -->
<g id="edge15" class="edge">
<title>Sequence*&#45;&gt;Fallback***</title>
<path fill="none" stroke="black" d="M771.34,-215.7C768.41,-207.81 764.88,-198.3 761.63,-189.55"/>
<polygon fill="black" stroke="black" points="764.88,-188.26 758.12,-180.1 758.32,-190.7 764.88,-188.26"/>
</g>
<!-- MoveTo! -->
<g id="node22" class="node">
<title>MoveTo!</title>
<ellipse fill="gray" stroke="black" cx="835.77" cy="-162" rx="28.74" ry="18"/>
<text text-anchor="middle" x="835.77" y="-159.8" font-family="Times,serif" font-size="9.00">MoveTo!</text>
</g>
<!-- Sequence*&#45;&gt;MoveTo! -->
<g id="edge21" class="edge">
<title>Sequence*&#45;&gt;MoveTo!</title>
<path fill="none" stroke="black" d="M792.1,-215.7C799.55,-206.71 808.74,-195.62 816.76,-185.93"/>
<polygon fill="black" stroke="black" points="819.48,-188.14 823.17,-178.2 814.09,-183.67 819.48,-188.14"/>
</g>
<!-- NotReadyForSG?*** -->
<g id="node17" class="node">
<title>NotReadyForSG?***</title>
<ellipse fill="gray" stroke="black" cx="696.77" cy="-90" rx="54.7" ry="18"/>
<text text-anchor="middle" x="696.77" y="-87.8" font-family="Times,serif" font-size="9.00">NotReadyForSG?***</text>
</g>
<!-- Fallback***&#45;&gt;NotReadyForSG?*** -->
<g id="edge16" class="edge">
<title>Fallback***&#45;&gt;NotReadyForSG?***</title>
<path fill="none" stroke="black" d="M738.17,-143.7C731.55,-135.27 723.46,-124.97 716.2,-115.73"/>
<polygon fill="black" stroke="black" points="718.76,-113.32 709.83,-107.62 713.25,-117.65 718.76,-113.32"/>
</g>
<!-- Sequence** -->
<g id="node18" class="node">
<title>Sequence**</title>
<polygon fill="cyan" stroke="black" points="843.51,-82.54 843.51,-97.46 821.98,-108 791.55,-108 770.02,-97.46 770.02,-82.54 791.55,-72 821.98,-72 843.51,-82.54"/>
<text text-anchor="middle" x="806.77" y="-87.8" font-family="Times,serif" font-size="9.00">Sequence**</text>
</g>
<!-- Fallback***&#45;&gt;Sequence** -->
<g id="edge17" class="edge">
<title>Fallback***&#45;&gt;Sequence**</title>
<path fill="none" stroke="black" d="M765.36,-143.7C771.89,-135.39 779.83,-125.28 787.01,-116.14"/>
<polygon fill="black" stroke="black" points="789.9,-118.13 793.33,-108.1 784.4,-113.81 789.9,-118.13"/>
</g>
<!-- GetSubGoal!*** -->
<g id="node21" class="node">
<title>GetSubGoal!***</title>
<ellipse fill="gray" stroke="black" cx="905.77" cy="-90" rx="44.41" ry="18"/>
<text text-anchor="middle" x="905.77" y="-87.8" font-family="Times,serif" font-size="9.00">GetSubGoal!***</text>
</g>
<!-- Fallback***&#45;&gt;GetSubGoal!*** -->
<g id="edge20" class="edge">
<title>Fallback***&#45;&gt;GetSubGoal!***</title>
<path fill="none" stroke="black" d="M778.24,-148.97C802.93,-137.74 840.04,-120.88 867.87,-108.23"/>
<polygon fill="black" stroke="black" points="869.63,-111.27 877.29,-103.94 866.74,-104.9 869.63,-111.27"/>
</g>
<!-- NotReadyForSG?**** -->
<g id="node19" class="node">
<title>NotReadyForSG?****</title>
<ellipse fill="gray" stroke="black" cx="746.77" cy="-18" rx="57.32" ry="18"/>
<text text-anchor="middle" x="746.77" y="-15.8" font-family="Times,serif" font-size="9.00">NotReadyForSG?****</text>
</g>
<!-- Sequence**&#45;&gt;NotReadyForSG?**** -->
<g id="edge18" class="edge">
<title>Sequence**&#45;&gt;NotReadyForSG?****</title>
<path fill="none" stroke="black" d="M791.93,-71.7C784.63,-63.18 775.71,-52.76 767.72,-43.45"/>
<polygon fill="black" stroke="black" points="770.18,-40.94 761.01,-35.62 764.86,-45.49 770.18,-40.94"/>
</g>
<!-- CompLkGraph!* -->
<g id="node20" class="node">
<title>CompLkGraph!*</title>
<ellipse fill="gray" stroke="black" cx="866.77" cy="-18" rx="45.07" ry="18"/>
<text text-anchor="middle" x="866.77" y="-15.8" font-family="Times,serif" font-size="9.00">CompLkGraph!*</text>
</g>
<!-- Sequence**&#45;&gt;CompLkGraph!* -->
<g id="edge19" class="edge">
<title>Sequence**&#45;&gt;CompLkGraph!*</title>
<path fill="none" stroke="black" d="M821.6,-71.7C829.08,-62.97 838.27,-52.24 846.4,-42.75"/>
<polygon fill="black" stroke="black" points="849.08,-45.01 852.93,-35.14 843.76,-40.46 849.08,-45.01"/>
</g>
<!-- LkGraph?** -->
<g id="node25" class="node">
<title>LkGraph?**</title>
<ellipse fill="gray" stroke="black" cx="918.77" cy="-162" rx="35.59" ry="18"/>
<text text-anchor="middle" x="918.77" y="-159.8" font-family="Times,serif" font-size="9.00">LkGraph?**</text>
</g>
<!-- Sequence***&#45;&gt;LkGraph?** -->
<g id="edge24" class="edge">
<title>Sequence***&#45;&gt;LkGraph?**</title>
<path fill="none" stroke="black" d="M987.57,-217.12C975.08,-207.29 958.91,-194.58 945.39,-183.94"/>
<polygon fill="black" stroke="black" points="947.39,-181.06 937.36,-177.63 943.06,-186.56 947.39,-181.06"/>
</g>
<!-- NotReadyForSG?****** -->
<g id="node26" class="node">
<title>NotReadyForSG?******</title>
<ellipse fill="gray" stroke="black" cx="1034.77" cy="-162" rx="62.21" ry="18"/>
<text text-anchor="middle" x="1034.77" y="-159.8" font-family="Times,serif" font-size="9.00">NotReadyForSG?******</text>
</g>
<!-- Sequence***&#45;&gt;NotReadyForSG?****** -->
<g id="edge25" class="edge">
<title>Sequence***&#45;&gt;NotReadyForSG?******</title>
<path fill="none" stroke="black" d="M1014.44,-215.7C1017.48,-207.81 1021.15,-198.3 1024.53,-189.55"/>
<polygon fill="black" stroke="black" points="1027.83,-190.69 1028.17,-180.1 1021.3,-188.17 1027.83,-190.69"/>
</g>
<!-- CompLkGraph!** -->
<g id="node27" class="node">
<title>CompLkGraph!**</title>
<ellipse fill="gray" stroke="black" cx="1162.77" cy="-162" rx="47.84" ry="18"/>
<text text-anchor="middle" x="1162.77" y="-159.8" font-family="Times,serif" font-size="9.00">CompLkGraph!**</text>
</g>
<!-- Sequence***&#45;&gt;CompLkGraph!** -->
<g id="edge26" class="edge">
<title>Sequence***&#45;&gt;CompLkGraph!**</title>
<path fill="none" stroke="black" d="M1035.12,-220.65C1059.76,-209.52 1096.26,-193.03 1123.93,-180.54"/>
<polygon fill="black" stroke="black" points="1125.64,-183.61 1133.31,-176.3 1122.76,-177.23 1125.64,-183.61"/>
</g>
</g>
</svg>
