<?xml version="1.0" encoding="UTF-8" standalone="no"?>
<!DOCTYPE svg PUBLIC "-//W3C//DTD SVG 1.1//EN"
 "http://www.w3.org/Graphics/SVG/1.1/DTD/svg11.dtd">
<!-- Generated by graphviz version 2.43.0 (0)
 -->
<!-- Title: pastafarianism Pages: 1 -->
<svg width="1027pt" height="332pt"
 viewBox="0.00 0.00 1026.80 332.00" xmlns="http://www.w3.org/2000/svg" xmlns:xlink="http://www.w3.org/1999/xlink">
<g id="graph0" class="graph" transform="scale(1 1) rotate(0) translate(4 328)">
<title>pastafarianism</title>
<polygon fill="white" stroke="transparent" points="-4,4 -4,-328 1022.8,-328 1022.8,4 -4,4"/>
<!-- Fallback -->
<g id="node1" class="node">
<title>Fallback</title>
<polygon fill="cyan" stroke="black" points="658.01,-298.54 658.01,-313.46 640.88,-324 616.65,-324 599.52,-313.46 599.52,-298.54 616.65,-288 640.88,-288 658.01,-298.54"/>
<text text-anchor="middle" x="628.77" y="-303.8" font-family="Times,serif" font-size="9.00">Fallback</text>
</g>
<!-- Sequence -->
<g id="node2" class="node">
<title>Sequence</title>
<polygon fill="cyan" stroke="black" points="442.26,-226.54 442.26,-241.46 423.81,-252 397.72,-252 379.27,-241.46 379.27,-226.54 397.72,-216 423.81,-216 442.26,-226.54"/>
<text text-anchor="middle" x="410.77" y="-231.8" font-family="Times,serif" font-size="9.00">Sequence</text>
</g>
<!-- Fallback&#45;&gt;Sequence -->
<g id="edge1" class="edge">
<title>Fallback&#45;&gt;Sequence</title>
<path fill="none" stroke="black" d="M602.47,-296.56C563.91,-284.18 491.86,-261.04 447.91,-246.93"/>
<polygon fill="black" stroke="black" points="448.77,-243.53 438.18,-243.8 446.63,-250.19 448.77,-243.53"/>
</g>
<!-- ReachGoal? -->
<g id="node16" class="node">
<title>ReachGoal?</title>
<ellipse fill="gray" stroke="black" cx="586.77" cy="-234" rx="34.13" ry="18"/>
<text text-anchor="middle" x="586.77" y="-231.8" font-family="Times,serif" font-size="9.00">ReachGoal?</text>
</g>
<!-- Fallback&#45;&gt;ReachGoal? -->
<g id="edge15" class="edge">
<title>Fallback&#45;&gt;ReachGoal?</title>
<path fill="none" stroke="black" d="M618.38,-287.7C613.43,-279.44 607.4,-269.39 601.95,-260.3"/>
<polygon fill="black" stroke="black" points="604.88,-258.4 596.74,-251.62 598.88,-262 604.88,-258.4"/>
</g>
<!-- LkGraph?* -->
<g id="node17" class="node">
<title>LkGraph?*</title>
<ellipse fill="gray" stroke="black" cx="671.77" cy="-234" rx="32.82" ry="18"/>
<text text-anchor="middle" x="671.77" y="-231.8" font-family="Times,serif" font-size="9.00">LkGraph?*</text>
</g>
<!-- Fallback&#45;&gt;LkGraph?* -->
<g id="edge16" class="edge">
<title>Fallback&#45;&gt;LkGraph?*</title>
<path fill="none" stroke="black" d="M639.39,-287.7C644.47,-279.44 650.64,-269.39 656.22,-260.3"/>
<polygon fill="black" stroke="black" points="659.3,-261.98 661.55,-251.62 653.34,-258.31 659.3,-261.98"/>
</g>
<!-- Sequence** -->
<g id="node18" class="node">
<title>Sequence**</title>
<polygon fill="cyan" stroke="black" points="833.51,-226.54 833.51,-241.46 811.98,-252 781.55,-252 760.02,-241.46 760.02,-226.54 781.55,-216 811.98,-216 833.51,-226.54"/>
<text text-anchor="middle" x="796.77" y="-231.8" font-family="Times,serif" font-size="9.00">Sequence**</text>
</g>
<!-- Fallback&#45;&gt;Sequence** -->
<g id="edge17" class="edge">
<title>Fallback&#45;&gt;Sequence**</title>
<path fill="none" stroke="black" d="M652.48,-295.12C680.55,-283.42 727.61,-263.82 760.32,-250.19"/>
<polygon fill="black" stroke="black" points="761.67,-253.42 769.55,-246.34 758.98,-246.95 761.67,-253.42"/>
</g>
<!-- LkGraph? -->
<g id="node3" class="node">
<title>LkGraph?</title>
<ellipse fill="gray" stroke="black" cx="230.77" cy="-162" rx="30.7" ry="18"/>
<text text-anchor="middle" x="230.77" y="-159.8" font-family="Times,serif" font-size="9.00">LkGraph?</text>
</g>
<!-- Sequence&#45;&gt;LkGraph? -->
<g id="edge2" class="edge">
<title>Sequence&#45;&gt;LkGraph?</title>
<path fill="none" stroke="black" d="M384.36,-223.54C355.91,-213.23 309.39,-196.07 269.77,-180 267.92,-179.25 266.03,-178.47 264.12,-177.67"/>
<polygon fill="black" stroke="black" points="265.18,-174.32 254.61,-173.62 262.44,-180.76 265.18,-174.32"/>
</g>
<!-- Fallback* -->
<g id="node4" class="node">
<title>Fallback*</title>
<polygon fill="cyan" stroke="black" points="342.51,-154.54 342.51,-169.46 323.91,-180 297.62,-180 279.02,-169.46 279.02,-154.54 297.62,-144 323.91,-144 342.51,-154.54"/>
<text text-anchor="middle" x="310.77" y="-159.8" font-family="Times,serif" font-size="9.00">Fallback*</text>
</g>
<!-- Sequence&#45;&gt;Fallback* -->
<g id="edge3" class="edge">
<title>Sequence&#45;&gt;Fallback*</title>
<path fill="none" stroke="black" d="M391.48,-219.5C376.5,-209.02 355.51,-194.32 338.69,-182.55"/>
<polygon fill="black" stroke="black" points="340.53,-179.56 330.33,-176.69 336.51,-185.3 340.53,-179.56"/>
</g>
<!-- CompLkGraph! -->
<g id="node12" class="node">
<title>CompLkGraph!</title>
<ellipse fill="gray" stroke="black" cx="410.77" cy="-162" rx="42.95" ry="18"/>
<text text-anchor="middle" x="410.77" y="-159.8" font-family="Times,serif" font-size="9.00">CompLkGraph!</text>
</g>
<!-- Sequence&#45;&gt;CompLkGraph! -->
<g id="edge11" class="edge">
<title>Sequence&#45;&gt;CompLkGraph!</title>
<path fill="none" stroke="black" d="M410.77,-215.7C410.77,-207.98 410.77,-198.71 410.77,-190.11"/>
<polygon fill="black" stroke="black" points="414.27,-190.1 410.77,-180.1 407.27,-190.1 414.27,-190.1"/>
</g>
<!-- Fallback** -->
<g id="node13" class="node">
<title>Fallback**</title>
<polygon fill="cyan" stroke="black" points="548.76,-154.54 548.76,-169.46 528.26,-180 499.27,-180 478.77,-169.46 478.77,-154.54 499.27,-144 528.26,-144 548.76,-154.54"/>
<text text-anchor="middle" x="513.77" y="-159.8" font-family="Times,serif" font-size="9.00">Fallback**</text>
</g>
<!-- Sequence&#45;&gt;Fallback** -->
<g id="edge12" class="edge">
<title>Sequence&#45;&gt;Fallback**</title>
<path fill="none" stroke="black" d="M430.62,-219.5C445.96,-209.08 467.4,-194.51 484.67,-182.78"/>
<polygon fill="black" stroke="black" points="486.96,-185.45 493.26,-176.93 483.02,-179.66 486.96,-185.45"/>
</g>
<!-- NotReadyForSG? -->
<g id="node5" class="node">
<title>NotReadyForSG?</title>
<ellipse fill="gray" stroke="black" cx="46.77" cy="-90" rx="46.53" ry="18"/>
<text text-anchor="middle" x="46.77" y="-87.8" font-family="Times,serif" font-size="9.00">NotReadyForSG?</text>
</g>
<!-- Fallback*&#45;&gt;NotReadyForSG? -->
<g id="edge4" class="edge">
<title>Fallback*&#45;&gt;NotReadyForSG?</title>
<path fill="none" stroke="black" d="M286.93,-149.99C281.68,-147.82 276.09,-145.68 270.77,-144 197.96,-120.96 176.7,-127.11 102.77,-108 99,-107.03 95.11,-105.96 91.21,-104.86"/>
<polygon fill="black" stroke="black" points="92.17,-101.49 81.59,-102.06 90.21,-108.22 92.17,-101.49"/>
</g>
<!-- LkClose? -->
<g id="node6" class="node">
<title>LkClose?</title>
<ellipse fill="gray" stroke="black" cx="140.77" cy="-90" rx="28.74" ry="18"/>
<text text-anchor="middle" x="140.77" y="-87.8" font-family="Times,serif" font-size="9.00">LkClose?</text>
</g>
<!-- Fallback*&#45;&gt;LkClose? -->
<g id="edge5" class="edge">
<title>Fallback*&#45;&gt;LkClose?</title>
<path fill="none" stroke="black" d="M285.85,-150.28C280.86,-148.17 275.66,-146 270.77,-144 230.11,-127.41 219.26,-124.97 178.77,-108 176.92,-107.22 175.02,-106.42 173.11,-105.6"/>
<polygon fill="black" stroke="black" points="174.16,-102.23 163.6,-101.43 171.35,-108.65 174.16,-102.23"/>
</g>
<!-- Sequence* -->
<g id="node7" class="node">
<title>Sequence*</title>
<polygon fill="cyan" stroke="black" points="256.01,-82.54 256.01,-97.46 235.95,-108 207.58,-108 187.52,-97.46 187.52,-82.54 207.58,-72 235.95,-72 256.01,-82.54"/>
<text text-anchor="middle" x="221.77" y="-87.8" font-family="Times,serif" font-size="9.00">Sequence*</text>
</g>
<!-- Fallback*&#45;&gt;Sequence* -->
<g id="edge6" class="edge">
<title>Fallback*&#45;&gt;Sequence*</title>
<path fill="none" stroke="black" d="M292.32,-146.5C279.64,-136.52 262.6,-123.11 248.44,-111.98"/>
<polygon fill="black" stroke="black" points="250.51,-109.16 240.49,-105.73 246.19,-114.66 250.51,-109.16"/>
</g>
<!-- GetSubGoal! -->
<g id="node10" class="node">
<title>GetSubGoal!</title>
<ellipse fill="gray" stroke="black" cx="310.77" cy="-90" rx="36.9" ry="18"/>
<text text-anchor="middle" x="310.77" y="-87.8" font-family="Times,serif" font-size="9.00">GetSubGoal!</text>
</g>
<!-- Fallback*&#45;&gt;GetSubGoal! -->
<g id="edge9" class="edge">
<title>Fallback*&#45;&gt;GetSubGoal!</title>
<path fill="none" stroke="black" d="M310.77,-143.7C310.77,-135.98 310.77,-126.71 310.77,-118.11"/>
<polygon fill="black" stroke="black" points="314.27,-118.1 310.77,-108.1 307.27,-118.1 314.27,-118.1"/>
</g>
<!-- GetSubGoal!* -->
<g id="node11" class="node">
<title>GetSubGoal!*</title>
<ellipse fill="gray" stroke="black" cx="404.77" cy="-90" rx="39.02" ry="18"/>
<text text-anchor="middle" x="404.77" y="-87.8" font-family="Times,serif" font-size="9.00">GetSubGoal!*</text>
</g>
<!-- Fallback*&#45;&gt;GetSubGoal!* -->
<g id="edge10" class="edge">
<title>Fallback*&#45;&gt;GetSubGoal!*</title>
<path fill="none" stroke="black" d="M329.79,-146.83C343.37,-136.72 361.85,-122.96 377.06,-111.63"/>
<polygon fill="black" stroke="black" points="379.19,-114.41 385.12,-105.63 375.01,-108.79 379.19,-114.41"/>
</g>
<!-- NotReadyForSG?* -->
<g id="node8" class="node">
<title>NotReadyForSG?*</title>
<ellipse fill="gray" stroke="black" cx="174.77" cy="-18" rx="49.8" ry="18"/>
<text text-anchor="middle" x="174.77" y="-15.8" font-family="Times,serif" font-size="9.00">NotReadyForSG?*</text>
</g>
<!-- Sequence*&#45;&gt;NotReadyForSG?* -->
<g id="edge7" class="edge">
<title>Sequence*&#45;&gt;NotReadyForSG?*</title>
<path fill="none" stroke="black" d="M210.15,-71.7C204.54,-63.35 197.72,-53.18 191.56,-44.02"/>
<polygon fill="black" stroke="black" points="194.41,-41.97 185.93,-35.62 188.59,-45.88 194.41,-41.97"/>
</g>
<!-- GetLk! -->
<g id="node9" class="node">
<title>GetLk!</title>
<ellipse fill="gray" stroke="black" cx="269.77" cy="-18" rx="27" ry="18"/>
<text text-anchor="middle" x="269.77" y="-15.8" font-family="Times,serif" font-size="9.00">GetLk!</text>
</g>
<!-- Sequence*&#45;&gt;GetLk! -->
<g id="edge8" class="edge">
<title>Sequence*&#45;&gt;GetLk!</title>
<path fill="none" stroke="black" d="M233.63,-71.7C239.58,-63.02 246.88,-52.37 253.36,-42.92"/>
<polygon fill="black" stroke="black" points="256.25,-44.9 259.02,-34.67 250.48,-40.94 256.25,-44.9"/>
</g>
<!-- NotReadyForSG?** -->
<g id="node14" class="node">
<title>NotReadyForSG?**</title>
<ellipse fill="gray" stroke="black" cx="513.77" cy="-90" rx="51.92" ry="18"/>
<text text-anchor="middle" x="513.77" y="-87.8" font-family="Times,serif" font-size="9.00">NotReadyForSG?**</text>
</g>
<!-- Fallback**&#45;&gt;NotReadyForSG?** -->
<g id="edge13" class="edge">
<title>Fallback**&#45;&gt;NotReadyForSG?**</title>
<path fill="none" stroke="black" d="M513.77,-143.7C513.77,-135.98 513.77,-126.71 513.77,-118.11"/>
<polygon fill="black" stroke="black" points="517.27,-118.1 513.77,-108.1 510.27,-118.1 517.27,-118.1"/>
</g>
<!-- GetSubGoal!** -->
<g id="node15" class="node">
<title>GetSubGoal!**</title>
<ellipse fill="gray" stroke="black" cx="625.77" cy="-90" rx="42.29" ry="18"/>
<text text-anchor="middle" x="625.77" y="-87.8" font-family="Times,serif" font-size="9.00">GetSubGoal!**</text>
</g>
<!-- Fallback**&#45;&gt;GetSubGoal!** -->
<g id="edge14" class="edge">
<title>Fallback**&#45;&gt;GetSubGoal!**</title>
<path fill="none" stroke="black" d="M535.36,-147.5C552.15,-137.01 575.68,-122.3 594.53,-110.52"/>
<polygon fill="black" stroke="black" points="596.46,-113.44 603.08,-105.18 592.75,-107.51 596.46,-113.44"/>
</g>
<!-- Fallback*** -->
<g id="node19" class="node">
<title>Fallback***</title>
<polygon fill="cyan" stroke="black" points="834.26,-154.54 834.26,-169.46 812.29,-180 781.24,-180 759.28,-169.46 759.28,-154.54 781.24,-144 812.29,-144 834.26,-154.54"/>
<text text-anchor="middle" x="796.77" y="-159.8" font-family="Times,serif" font-size="9.00">Fallback***</text>
</g>
<!-- Sequence**&#45;&gt;Fallback*** -->
<g id="edge18" class="edge">
<title>Sequence**&#45;&gt;Fallback***</title>
<path fill="none" stroke="black" d="M796.77,-215.7C796.77,-207.98 796.77,-198.71 796.77,-190.11"/>
<polygon fill="black" stroke="black" points="800.27,-190.1 796.77,-180.1 793.27,-190.1 800.27,-190.1"/>
</g>
<!-- MoveTo! -->
<g id="node26" class="node">
<title>MoveTo!</title>
<ellipse fill="gray" stroke="black" cx="880.77" cy="-162" rx="28.74" ry="18"/>
<text text-anchor="middle" x="880.77" y="-159.8" font-family="Times,serif" font-size="9.00">MoveTo!</text>
</g>
<!-- Sequence**&#45;&gt;MoveTo! -->
<g id="edge25" class="edge">
<title>Sequence**&#45;&gt;MoveTo!</title>
<path fill="none" stroke="black" d="M815.41,-217.46C827.5,-207.39 843.37,-194.16 856.45,-183.27"/>
<polygon fill="black" stroke="black" points="858.72,-185.92 864.17,-176.83 854.24,-180.55 858.72,-185.92"/>
</g>
<!-- NotReadyForSG?*** -->
<g id="node20" class="node">
<title>NotReadyForSG?***</title>
<ellipse fill="gray" stroke="black" cx="740.77" cy="-90" rx="54.7" ry="18"/>
<text text-anchor="middle" x="740.77" y="-87.8" font-family="Times,serif" font-size="9.00">NotReadyForSG?***</text>
</g>
<!-- Fallback***&#45;&gt;NotReadyForSG?*** -->
<g id="edge19" class="edge">
<title>Fallback***&#45;&gt;NotReadyForSG?***</title>
<path fill="none" stroke="black" d="M782.92,-143.7C776.11,-135.18 767.78,-124.76 760.33,-115.45"/>
<polygon fill="black" stroke="black" points="763.04,-113.24 754.06,-107.62 757.58,-117.62 763.04,-113.24"/>
</g>
<!-- Sequence*** -->
<g id="node21" class="node">
<title>Sequence***</title>
<polygon fill="cyan" stroke="black" points="893.76,-82.54 893.76,-97.46 870.33,-108 837.2,-108 813.78,-97.46 813.78,-82.54 837.2,-72 870.33,-72 893.76,-82.54"/>
<text text-anchor="middle" x="853.77" y="-87.8" font-family="Times,serif" font-size="9.00">Sequence***</text>
</g>
<!-- Fallback***&#45;&gt;Sequence*** -->
<g id="edge20" class="edge">
<title>Fallback***&#45;&gt;Sequence***</title>
<path fill="none" stroke="black" d="M810.86,-143.7C817.69,-135.3 826.02,-125.07 833.52,-115.86"/>
<polygon fill="black" stroke="black" points="836.24,-118.07 839.84,-108.1 830.81,-113.65 836.24,-118.07"/>
</g>
<!-- GetSubGoal!*** -->
<g id="node25" class="node">
<title>GetSubGoal!***</title>
<ellipse fill="gray" stroke="black" cx="955.77" cy="-90" rx="44.41" ry="18"/>
<text text-anchor="middle" x="955.77" y="-87.8" font-family="Times,serif" font-size="9.00">GetSubGoal!***</text>
</g>
<!-- Fallback***&#45;&gt;GetSubGoal!*** -->
<g id="edge24" class="edge">
<title>Fallback***&#45;&gt;GetSubGoal!***</title>
<path fill="none" stroke="black" d="M823.38,-149.28C849.11,-137.95 888.38,-120.67 917.47,-107.86"/>
<polygon fill="black" stroke="black" points="919.17,-110.94 926.91,-103.7 916.35,-104.53 919.17,-110.94"/>
</g>
<!-- LkGraph?** -->
<g id="node22" class="node">
<title>LkGraph?**</title>
<ellipse fill="gray" stroke="black" cx="742.77" cy="-18" rx="35.59" ry="18"/>
<text text-anchor="middle" x="742.77" y="-15.8" font-family="Times,serif" font-size="9.00">LkGraph?**</text>
</g>
<!-- Sequence***&#45;&gt;LkGraph?** -->
<g id="edge21" class="edge">
<title>Sequence***&#45;&gt;LkGraph?**</title>
<path fill="none" stroke="black" d="M831.04,-74.67C814.25,-64.08 791.23,-49.56 772.9,-38.01"/>
<polygon fill="black" stroke="black" points="774.66,-34.98 764.33,-32.6 770.93,-40.9 774.66,-34.98"/>
</g>
<!-- NotReadyForSG?**** -->
<g id="node23" class="node">
<title>NotReadyForSG?****</title>
<ellipse fill="gray" stroke="black" cx="853.77" cy="-18" rx="57.32" ry="18"/>
<text text-anchor="middle" x="853.77" y="-15.8" font-family="Times,serif" font-size="9.00">NotReadyForSG?****</text>
</g>
<!-- Sequence***&#45;&gt;NotReadyForSG?**** -->
<g id="edge22" class="edge">
<title>Sequence***&#45;&gt;NotReadyForSG?****</title>
<path fill="none" stroke="black" d="M853.77,-71.7C853.77,-63.98 853.77,-54.71 853.77,-46.11"/>
<polygon fill="black" stroke="black" points="857.27,-46.1 853.77,-36.1 850.27,-46.1 857.27,-46.1"/>
</g>
<!-- CompLkGraph!* -->
<g id="node24" class="node">
<title>CompLkGraph!*</title>
<ellipse fill="gray" stroke="black" cx="973.77" cy="-18" rx="45.07" ry="18"/>
<text text-anchor="middle" x="973.77" y="-15.8" font-family="Times,serif" font-size="9.00">CompLkGraph!*</text>
</g>
<!-- Sequence***&#45;&gt;CompLkGraph!* -->
<g id="edge23" class="edge">
<title>Sequence***&#45;&gt;CompLkGraph!*</title>
<path fill="none" stroke="black" d="M877.47,-75.17C895.48,-64.67 920.47,-50.09 940.48,-38.42"/>
<polygon fill="black" stroke="black" points="942.41,-41.34 949.28,-33.28 938.88,-35.3 942.41,-41.34"/>
</g>
</g>
</svg>
