<?xml version="1.0" encoding="UTF-8" standalone="no"?>
<!DOCTYPE svg PUBLIC "-//W3C//DTD SVG 1.1//EN"
 "http://www.w3.org/Graphics/SVG/1.1/DTD/svg11.dtd">
<!-- Generated by graphviz version 2.43.0 (0)
 -->
<!-- Title: pastafarianism Pages: 1 -->
<svg width="820pt" height="260pt"
 viewBox="0.00 0.00 820.38 260.00" xmlns="http://www.w3.org/2000/svg" xmlns:xlink="http://www.w3.org/1999/xlink">
<g id="graph0" class="graph" transform="scale(1 1) rotate(0) translate(4 256)">
<title>pastafarianism</title>
<polygon fill="white" stroke="transparent" points="-4,4 -4,-256 816.38,-256 816.38,4 -4,4"/>
<!-- Sequence -->
<g id="node1" class="node">
<title>Sequence</title>
<polygon fill="cyan" stroke="black" points="560.54,-226.54 560.54,-241.46 542.09,-252 516,-252 497.55,-241.46 497.55,-226.54 516,-216 542.09,-216 560.54,-226.54"/>
<text text-anchor="middle" x="529.04" y="-231.8" font-family="Times,serif" font-size="9.00">Sequence</text>
</g>
<!-- Fallback -->
<g id="node2" class="node">
<title>Fallback</title>
<polygon fill="cyan" stroke="black" points="201.29,-154.54 201.29,-169.46 184.16,-180 159.93,-180 142.8,-169.46 142.8,-154.54 159.93,-144 184.16,-144 201.29,-154.54"/>
<text text-anchor="middle" x="172.04" y="-159.8" font-family="Times,serif" font-size="9.00">Fallback</text>
</g>
<!-- Sequence&#45;&gt;Fallback -->
<g id="edge1" class="edge">
<title>Sequence&#45;&gt;Fallback</title>
<path fill="none" stroke="black" d="M497.68,-226.85C432.65,-214.1 283.25,-184.8 211.68,-170.77"/>
<polygon fill="black" stroke="black" points="212.19,-167.3 201.7,-168.82 210.84,-174.17 212.19,-167.3"/>
</g>
<!-- Fallback* -->
<g id="node7" class="node">
<title>Fallback*</title>
<polygon fill="cyan" stroke="black" points="518.79,-154.54 518.79,-169.46 500.19,-180 473.9,-180 455.3,-169.46 455.3,-154.54 473.9,-144 500.19,-144 518.79,-154.54"/>
<text text-anchor="middle" x="487.04" y="-159.8" font-family="Times,serif" font-size="9.00">Fallback*</text>
</g>
<!-- Sequence&#45;&gt;Fallback* -->
<g id="edge6" class="edge">
<title>Sequence&#45;&gt;Fallback*</title>
<path fill="none" stroke="black" d="M518.66,-215.7C513.78,-207.56 507.86,-197.69 502.47,-188.7"/>
<polygon fill="black" stroke="black" points="505.45,-186.88 497.31,-180.1 499.45,-190.48 505.45,-186.88"/>
</g>
<!-- Fallback** -->
<g id="node14" class="node">
<title>Fallback**</title>
<polygon fill="cyan" stroke="black" points="649.04,-154.54 649.04,-169.46 628.54,-180 599.55,-180 579.05,-169.46 579.05,-154.54 599.55,-144 628.54,-144 649.04,-154.54"/>
<text text-anchor="middle" x="614.04" y="-159.8" font-family="Times,serif" font-size="9.00">Fallback**</text>
</g>
<!-- Sequence&#45;&gt;Fallback** -->
<g id="edge13" class="edge">
<title>Sequence&#45;&gt;Fallback**</title>
<path fill="none" stroke="black" d="M546.66,-218.5C558.5,-208.75 574.31,-195.72 587.65,-184.74"/>
<polygon fill="black" stroke="black" points="590.08,-187.27 595.57,-178.21 585.63,-181.87 590.08,-187.27"/>
</g>
<!-- apply force 2! -->
<g id="node19" class="node">
<title>apply force 2!</title>
<ellipse fill="gray" stroke="black" cx="705.04" cy="-162" rx="38.21" ry="18"/>
<text text-anchor="middle" x="705.04" y="-159.8" font-family="Times,serif" font-size="9.00">apply force 2!</text>
</g>
<!-- Sequence&#45;&gt;apply force 2! -->
<g id="edge18" class="edge">
<title>Sequence&#45;&gt;apply force 2!</title>
<path fill="none" stroke="black" d="M554.64,-222.82C584.23,-211.05 633.21,-191.57 667.2,-178.05"/>
<polygon fill="black" stroke="black" points="668.8,-181.18 676.8,-174.23 666.21,-174.68 668.8,-181.18"/>
</g>
<!-- 0 at pos (0.0, 0.05, 0.0)? -->
<g id="node3" class="node">
<title>0 at pos (0.0, 0.05, 0.0)?</title>
<ellipse fill="gray" stroke="black" cx="60.04" cy="-90" rx="60.09" ry="18"/>
<text text-anchor="middle" x="60.04" y="-87.8" font-family="Times,serif" font-size="9.00">0 at pos (0.0, 0.05, 0.0)?</text>
</g>
<!-- Fallback&#45;&gt;0 at pos (0.0, 0.05, 0.0)? -->
<g id="edge2" class="edge">
<title>Fallback&#45;&gt;0 at pos (0.0, 0.05, 0.0)?</title>
<path fill="none" stroke="black" d="M152.28,-148.65C136.12,-138.55 112.92,-124.05 93.82,-112.11"/>
<polygon fill="black" stroke="black" points="95.44,-109 85.11,-106.66 91.73,-114.93 95.44,-109"/>
</g>
<!-- Sequence* -->
<g id="node4" class="node">
<title>Sequence*</title>
<polygon fill="cyan" stroke="black" points="206.29,-82.54 206.29,-97.46 186.23,-108 157.86,-108 137.8,-97.46 137.8,-82.54 157.86,-72 186.23,-72 206.29,-82.54"/>
<text text-anchor="middle" x="172.04" y="-87.8" font-family="Times,serif" font-size="9.00">Sequence*</text>
</g>
<!-- Fallback&#45;&gt;Sequence* -->
<g id="edge3" class="edge">
<title>Fallback&#45;&gt;Sequence*</title>
<path fill="none" stroke="black" d="M172.04,-143.7C172.04,-135.98 172.04,-126.71 172.04,-118.11"/>
<polygon fill="black" stroke="black" points="175.54,-118.1 172.04,-108.1 168.54,-118.1 175.54,-118.1"/>
</g>
<!-- pick 0! -->
<g id="node5" class="node">
<title>pick 0!</title>
<ellipse fill="gray" stroke="black" cx="121.04" cy="-18" rx="27" ry="18"/>
<text text-anchor="middle" x="121.04" y="-15.8" font-family="Times,serif" font-size="9.00">pick 0!</text>
</g>
<!-- Sequence*&#45;&gt;pick 0! -->
<g id="edge4" class="edge">
<title>Sequence*&#45;&gt;pick 0!</title>
<path fill="none" stroke="black" d="M159.44,-71.7C153.11,-63.02 145.36,-52.37 138.47,-42.92"/>
<polygon fill="black" stroke="black" points="141.18,-40.69 132.46,-34.67 135.52,-44.81 141.18,-40.69"/>
</g>
<!-- place at (0.0, 0.05, 0.0)! -->
<g id="node6" class="node">
<title>place at (0.0, 0.05, 0.0)!</title>
<ellipse fill="gray" stroke="black" cx="224.04" cy="-18" rx="58.13" ry="18"/>
<text text-anchor="middle" x="224.04" y="-15.8" font-family="Times,serif" font-size="9.00">place at (0.0, 0.05, 0.0)!</text>
</g>
<!-- Sequence*&#45;&gt;place at (0.0, 0.05, 0.0)! -->
<g id="edge5" class="edge">
<title>Sequence*&#45;&gt;place at (0.0, 0.05, 0.0)!</title>
<path fill="none" stroke="black" d="M184.9,-71.7C191.16,-63.27 198.81,-52.97 205.67,-43.73"/>
<polygon fill="black" stroke="black" points="208.54,-45.74 211.7,-35.62 202.92,-41.56 208.54,-45.74"/>
</g>
<!-- 1 at pos (0.0, 0.05, 0.0192)? -->
<g id="node8" class="node">
<title>1 at pos (0.0, 0.05, 0.0192)?</title>
<ellipse fill="gray" stroke="black" cx="292.04" cy="-90" rx="67.6" ry="18"/>
<text text-anchor="middle" x="292.04" y="-87.8" font-family="Times,serif" font-size="9.00">1 at pos (0.0, 0.05, 0.0192)?</text>
</g>
<!-- Fallback*&#45;&gt;1 at pos (0.0, 0.05, 0.0192)? -->
<g id="edge7" class="edge">
<title>Fallback*&#45;&gt;1 at pos (0.0, 0.05, 0.0192)?</title>
<path fill="none" stroke="black" d="M460.34,-151.41C429.51,-140.35 378.18,-121.92 340.3,-108.32"/>
<polygon fill="black" stroke="black" points="341.09,-104.89 330.5,-104.8 338.72,-111.48 341.09,-104.89"/>
</g>
<!-- 1 on 0? -->
<g id="node9" class="node">
<title>1 on 0?</title>
<ellipse fill="gray" stroke="black" cx="405.04" cy="-90" rx="27" ry="18"/>
<text text-anchor="middle" x="405.04" y="-87.8" font-family="Times,serif" font-size="9.00">1 on 0?</text>
</g>
<!-- Fallback*&#45;&gt;1 on 0? -->
<g id="edge8" class="edge">
<title>Fallback*&#45;&gt;1 on 0?</title>
<path fill="none" stroke="black" d="M469.65,-146.15C457.74,-135.98 441.79,-122.37 428.72,-111.21"/>
<polygon fill="black" stroke="black" points="430.9,-108.47 421.02,-104.64 426.35,-113.79 430.9,-108.47"/>
</g>
<!-- Sequence** -->
<g id="node10" class="node">
<title>Sequence**</title>
<polygon fill="cyan" stroke="black" points="523.79,-82.54 523.79,-97.46 502.26,-108 471.83,-108 450.3,-97.46 450.3,-82.54 471.83,-72 502.26,-72 523.79,-82.54"/>
<text text-anchor="middle" x="487.04" y="-87.8" font-family="Times,serif" font-size="9.00">Sequence**</text>
</g>
<!-- Fallback*&#45;&gt;Sequence** -->
<g id="edge9" class="edge">
<title>Fallback*&#45;&gt;Sequence**</title>
<path fill="none" stroke="black" d="M487.04,-143.7C487.04,-135.98 487.04,-126.71 487.04,-118.11"/>
<polygon fill="black" stroke="black" points="490.54,-118.1 487.04,-108.1 483.54,-118.1 490.54,-118.1"/>
</g>
<!-- place on 0!* -->
<g id="node13" class="node">
<title>place on 0!*</title>
<ellipse fill="gray" stroke="black" cx="577.04" cy="-90" rx="34.78" ry="18"/>
<text text-anchor="middle" x="577.04" y="-87.8" font-family="Times,serif" font-size="9.00">place on 0!*</text>
</g>
<!-- Fallback*&#45;&gt;place on 0!* -->
<g id="edge12" class="edge">
<title>Fallback*&#45;&gt;place on 0!*</title>
<path fill="none" stroke="black" d="M505.26,-146.83C518.22,-136.75 535.86,-123.03 550.4,-111.72"/>
<polygon fill="black" stroke="black" points="552.81,-114.29 558.55,-105.38 548.51,-108.76 552.81,-114.29"/>
</g>
<!-- pick 1! -->
<g id="node11" class="node">
<title>pick 1!</title>
<ellipse fill="gray" stroke="black" cx="448.04" cy="-18" rx="27" ry="18"/>
<text text-anchor="middle" x="448.04" y="-15.8" font-family="Times,serif" font-size="9.00">pick 1!</text>
</g>
<!-- Sequence**&#45;&gt;pick 1! -->
<g id="edge10" class="edge">
<title>Sequence**&#45;&gt;pick 1!</title>
<path fill="none" stroke="black" d="M477.4,-71.7C472.73,-63.32 467.04,-53.1 461.92,-43.9"/>
<polygon fill="black" stroke="black" points="464.96,-42.18 457.04,-35.14 458.85,-45.58 464.96,-42.18"/>
</g>
<!-- place on 0! -->
<g id="node12" class="node">
<title>place on 0!</title>
<ellipse fill="gray" stroke="black" cx="525.04" cy="-18" rx="32.16" ry="18"/>
<text text-anchor="middle" x="525.04" y="-15.8" font-family="Times,serif" font-size="9.00">place on 0!</text>
</g>
<!-- Sequence**&#45;&gt;place on 0! -->
<g id="edge11" class="edge">
<title>Sequence**&#45;&gt;place on 0!</title>
<path fill="none" stroke="black" d="M496.44,-71.7C500.87,-63.52 506.26,-53.6 511.16,-44.58"/>
<polygon fill="black" stroke="black" points="514.33,-46.08 516.02,-35.62 508.17,-42.74 514.33,-46.08"/>
</g>
<!-- 2 on 1? -->
<g id="node15" class="node">
<title>2 on 1?</title>
<ellipse fill="gray" stroke="black" cx="657.04" cy="-90" rx="27" ry="18"/>
<text text-anchor="middle" x="657.04" y="-87.8" font-family="Times,serif" font-size="9.00">2 on 1?</text>
</g>
<!-- Fallback**&#45;&gt;2 on 1? -->
<g id="edge14" class="edge">
<title>Fallback**&#45;&gt;2 on 1?</title>
<path fill="none" stroke="black" d="M624.67,-143.7C629.82,-135.32 636.1,-125.1 641.75,-115.9"/>
<polygon fill="black" stroke="black" points="644.88,-117.5 647.13,-107.14 638.91,-113.83 644.88,-117.5"/>
</g>
<!-- Sequence*** -->
<g id="node16" class="node">
<title>Sequence***</title>
<polygon fill="cyan" stroke="black" points="782.03,-82.54 782.03,-97.46 758.61,-108 725.48,-108 702.05,-97.46 702.05,-82.54 725.48,-72 758.61,-72 782.03,-82.54"/>
<text text-anchor="middle" x="742.04" y="-87.8" font-family="Times,serif" font-size="9.00">Sequence***</text>
</g>
<!-- Fallback**&#45;&gt;Sequence*** -->
<g id="edge15" class="edge">
<title>Fallback**&#45;&gt;Sequence***</title>
<path fill="none" stroke="black" d="M637.22,-148.32C657.11,-137.45 686.01,-121.64 708.43,-109.38"/>
<polygon fill="black" stroke="black" points="710.2,-112.41 717.29,-104.54 706.84,-106.26 710.2,-112.41"/>
</g>
<!-- pick 2! -->
<g id="node17" class="node">
<title>pick 2!</title>
<ellipse fill="gray" stroke="black" cx="703.04" cy="-18" rx="27" ry="18"/>
<text text-anchor="middle" x="703.04" y="-15.8" font-family="Times,serif" font-size="9.00">pick 2!</text>
</g>
<!-- Sequence***&#45;&gt;pick 2! -->
<g id="edge16" class="edge">
<title>Sequence***&#45;&gt;pick 2!</title>
<path fill="none" stroke="black" d="M732.4,-71.7C727.73,-63.32 722.04,-53.1 716.92,-43.9"/>
<polygon fill="black" stroke="black" points="719.96,-42.18 712.04,-35.14 713.85,-45.58 719.96,-42.18"/>
</g>
<!-- place on 1! -->
<g id="node18" class="node">
<title>place on 1!</title>
<ellipse fill="gray" stroke="black" cx="780.04" cy="-18" rx="32.16" ry="18"/>
<text text-anchor="middle" x="780.04" y="-15.8" font-family="Times,serif" font-size="9.00">place on 1!</text>
</g>
<!-- Sequence***&#45;&gt;place on 1! -->
<g id="edge17" class="edge">
<title>Sequence***&#45;&gt;place on 1!</title>
<path fill="none" stroke="black" d="M751.44,-71.7C755.87,-63.52 761.26,-53.6 766.16,-44.58"/>
<polygon fill="black" stroke="black" points="769.33,-46.08 771.02,-35.62 763.17,-42.74 769.33,-46.08"/>
</g>
</g>
</svg>
