<?xml version="1.0" encoding="UTF-8" standalone="no"?>
<!DOCTYPE svg PUBLIC "-//W3C//DTD SVG 1.1//EN"
 "http://www.w3.org/Graphics/SVG/1.1/DTD/svg11.dtd">
<!-- Generated by graphviz version 2.43.0 (0)
 -->
<!-- Title: pastafarianism Pages: 1 -->
<svg width="1063pt" height="404pt"
 viewBox="0.00 0.00 1063.38 404.00" xmlns="http://www.w3.org/2000/svg" xmlns:xlink="http://www.w3.org/1999/xlink">
<g id="graph0" class="graph" transform="scale(1 1) rotate(0) translate(4 400)">
<title>pastafarianism</title>
<polygon fill="white" stroke="transparent" points="-4,4 -4,-400 1059.38,-400 1059.38,4 -4,4"/>
<!-- Sequence -->
<g id="node1" class="node">
<title>Sequence</title>
<polygon fill="cyan" stroke="black" points="545.54,-370.54 545.54,-385.46 527.09,-396 501,-396 482.55,-385.46 482.55,-370.54 501,-360 527.09,-360 545.54,-370.54"/>
<text text-anchor="middle" x="514.04" y="-375.8" font-family="Times,serif" font-size="9.00">Sequence</text>
</g>
<!-- Fallback -->
<g id="node2" class="node">
<title>Fallback</title>
<polygon fill="cyan" stroke="black" points="201.29,-298.54 201.29,-313.46 184.16,-324 159.93,-324 142.8,-313.46 142.8,-298.54 159.93,-288 184.16,-288 201.29,-298.54"/>
<text text-anchor="middle" x="172.04" y="-303.8" font-family="Times,serif" font-size="9.00">Fallback</text>
</g>
<!-- Sequence&#45;&gt;Fallback -->
<g id="edge1" class="edge">
<title>Sequence&#45;&gt;Fallback</title>
<path fill="none" stroke="black" d="M482.79,-370.6C420.36,-357.83 280.37,-329.17 211.64,-315.1"/>
<polygon fill="black" stroke="black" points="212.14,-311.63 201.64,-313.06 210.73,-318.49 212.14,-311.63"/>
</g>
<!-- Fallback* -->
<g id="node7" class="node">
<title>Fallback*</title>
<polygon fill="cyan" stroke="black" points="445.79,-298.54 445.79,-313.46 427.19,-324 400.9,-324 382.3,-313.46 382.3,-298.54 400.9,-288 427.19,-288 445.79,-298.54"/>
<text text-anchor="middle" x="414.04" y="-303.8" font-family="Times,serif" font-size="9.00">Fallback*</text>
</g>
<!-- Sequence&#45;&gt;Fallback* -->
<g id="edge6" class="edge">
<title>Sequence&#45;&gt;Fallback*</title>
<path fill="none" stroke="black" d="M494.76,-363.5C479.78,-353.02 458.79,-338.32 441.97,-326.55"/>
<polygon fill="black" stroke="black" points="443.81,-323.56 433.61,-320.69 439.79,-329.3 443.81,-323.56"/>
</g>
<!-- Fallback*** -->
<g id="node18" class="node">
<title>Fallback***</title>
<polygon fill="cyan" stroke="black" points="667.53,-298.54 667.53,-313.46 645.57,-324 614.52,-324 592.55,-313.46 592.55,-298.54 614.52,-288 645.57,-288 667.53,-298.54"/>
<text text-anchor="middle" x="630.04" y="-303.8" font-family="Times,serif" font-size="9.00">Fallback***</text>
</g>
<!-- Sequence&#45;&gt;Fallback*** -->
<g id="edge17" class="edge">
<title>Sequence&#45;&gt;Fallback***</title>
<path fill="none" stroke="black" d="M535.05,-364.32C552.72,-353.66 578.24,-338.26 598.38,-326.11"/>
<polygon fill="black" stroke="black" points="600.46,-328.94 607.21,-320.78 596.84,-322.95 600.46,-328.94"/>
</g>
<!-- apply force 2!* -->
<g id="node33" class="node">
<title>apply force 2!*</title>
<ellipse fill="gray" stroke="black" cx="726.04" cy="-306" rx="40.98" ry="18"/>
<text text-anchor="middle" x="726.04" y="-303.8" font-family="Times,serif" font-size="9.00">apply force 2!*</text>
</g>
<!-- Sequence&#45;&gt;apply force 2!* -->
<g id="edge32" class="edge">
<title>Sequence&#45;&gt;apply force 2!*</title>
<path fill="none" stroke="black" d="M541.59,-368.09C573.85,-357.64 628.88,-339.73 676.04,-324 678.95,-323.03 681.95,-322.02 684.97,-321.01"/>
<polygon fill="black" stroke="black" points="686.24,-324.27 694.59,-317.76 684,-317.64 686.24,-324.27"/>
</g>
<!-- 0 at pos (0.0, 0.05, 0.0)? -->
<g id="node3" class="node">
<title>0 at pos (0.0, 0.05, 0.0)?</title>
<ellipse fill="gray" stroke="black" cx="60.04" cy="-234" rx="60.09" ry="18"/>
<text text-anchor="middle" x="60.04" y="-231.8" font-family="Times,serif" font-size="9.00">0 at pos (0.0, 0.05, 0.0)?</text>
</g>
<!-- Fallback&#45;&gt;0 at pos (0.0, 0.05, 0.0)? -->
<g id="edge2" class="edge">
<title>Fallback&#45;&gt;0 at pos (0.0, 0.05, 0.0)?</title>
<path fill="none" stroke="black" d="M152.28,-292.65C136.12,-282.55 112.92,-268.05 93.82,-256.11"/>
<polygon fill="black" stroke="black" points="95.44,-253 85.11,-250.66 91.73,-258.93 95.44,-253"/>
</g>
<!-- Sequence* -->
<g id="node4" class="node">
<title>Sequence*</title>
<polygon fill="cyan" stroke="black" points="206.29,-226.54 206.29,-241.46 186.23,-252 157.86,-252 137.8,-241.46 137.8,-226.54 157.86,-216 186.23,-216 206.29,-226.54"/>
<text text-anchor="middle" x="172.04" y="-231.8" font-family="Times,serif" font-size="9.00">Sequence*</text>
</g>
<!-- Fallback&#45;&gt;Sequence* -->
<g id="edge3" class="edge">
<title>Fallback&#45;&gt;Sequence*</title>
<path fill="none" stroke="black" d="M172.04,-287.7C172.04,-279.98 172.04,-270.71 172.04,-262.11"/>
<polygon fill="black" stroke="black" points="175.54,-262.1 172.04,-252.1 168.54,-262.1 175.54,-262.1"/>
</g>
<!-- pick 0! -->
<g id="node5" class="node">
<title>pick 0!</title>
<ellipse fill="gray" stroke="black" cx="79.04" cy="-162" rx="27" ry="18"/>
<text text-anchor="middle" x="79.04" y="-159.8" font-family="Times,serif" font-size="9.00">pick 0!</text>
</g>
<!-- Sequence*&#45;&gt;pick 0! -->
<g id="edge4" class="edge">
<title>Sequence*&#45;&gt;pick 0!</title>
<path fill="none" stroke="black" d="M152.77,-218.5C138.77,-207.95 119.67,-193.58 104.43,-182.1"/>
<polygon fill="black" stroke="black" points="106.5,-179.29 96.41,-176.07 102.29,-184.88 106.5,-179.29"/>
</g>
<!-- place at (0.0, 0.05, 0.0)! -->
<g id="node6" class="node">
<title>place at (0.0, 0.05, 0.0)!</title>
<ellipse fill="gray" stroke="black" cx="182.04" cy="-162" rx="58.13" ry="18"/>
<text text-anchor="middle" x="182.04" y="-159.8" font-family="Times,serif" font-size="9.00">place at (0.0, 0.05, 0.0)!</text>
</g>
<!-- Sequence*&#45;&gt;place at (0.0, 0.05, 0.0)! -->
<g id="edge5" class="edge">
<title>Sequence*&#45;&gt;place at (0.0, 0.05, 0.0)!</title>
<path fill="none" stroke="black" d="M174.52,-215.7C175.62,-207.98 176.94,-198.71 178.17,-190.11"/>
<polygon fill="black" stroke="black" points="181.65,-190.5 179.6,-180.1 174.72,-189.51 181.65,-190.5"/>
</g>
<!-- 1 at pos (0.0, 0.05, 0.0192)? -->
<g id="node8" class="node">
<title>1 at pos (0.0, 0.05, 0.0192)?</title>
<ellipse fill="gray" stroke="black" cx="292.04" cy="-234" rx="67.6" ry="18"/>
<text text-anchor="middle" x="292.04" y="-231.8" font-family="Times,serif" font-size="9.00">1 at pos (0.0, 0.05, 0.0192)?</text>
</g>
<!-- Fallback*&#45;&gt;1 at pos (0.0, 0.05, 0.0192)? -->
<g id="edge7" class="edge">
<title>Fallback*&#45;&gt;1 at pos (0.0, 0.05, 0.0192)?</title>
<path fill="none" stroke="black" d="M392.51,-292.65C374.76,-282.46 349.18,-267.78 328.28,-255.79"/>
<polygon fill="black" stroke="black" points="329.76,-252.6 319.34,-250.66 326.28,-258.68 329.76,-252.6"/>
</g>
<!-- Sequence** -->
<g id="node9" class="node">
<title>Sequence**</title>
<polygon fill="cyan" stroke="black" points="450.79,-226.54 450.79,-241.46 429.26,-252 398.83,-252 377.3,-241.46 377.3,-226.54 398.83,-216 429.26,-216 450.79,-226.54"/>
<text text-anchor="middle" x="414.04" y="-231.8" font-family="Times,serif" font-size="9.00">Sequence**</text>
</g>
<!-- Fallback*&#45;&gt;Sequence** -->
<g id="edge8" class="edge">
<title>Fallback*&#45;&gt;Sequence**</title>
<path fill="none" stroke="black" d="M414.04,-287.7C414.04,-279.98 414.04,-270.71 414.04,-262.11"/>
<polygon fill="black" stroke="black" points="417.54,-262.1 414.04,-252.1 410.54,-262.1 417.54,-262.1"/>
</g>
<!-- Fallback** -->
<g id="node10" class="node">
<title>Fallback**</title>
<polygon fill="cyan" stroke="black" points="331.04,-154.54 331.04,-169.46 310.54,-180 281.55,-180 261.05,-169.46 261.05,-154.54 281.55,-144 310.54,-144 331.04,-154.54"/>
<text text-anchor="middle" x="296.04" y="-159.8" font-family="Times,serif" font-size="9.00">Fallback**</text>
</g>
<!-- Sequence**&#45;&gt;Fallback** -->
<g id="edge9" class="edge">
<title>Sequence**&#45;&gt;Fallback**</title>
<path fill="none" stroke="black" d="M391.29,-219.5C373.06,-208.69 347.28,-193.39 327.14,-181.44"/>
<polygon fill="black" stroke="black" points="328.71,-178.31 318.33,-176.22 325.14,-184.33 328.71,-178.31"/>
</g>
<!-- apply force 1!* -->
<g id="node17" class="node">
<title>apply force 1!*</title>
<ellipse fill="gray" stroke="black" cx="390.04" cy="-162" rx="40.98" ry="18"/>
<text text-anchor="middle" x="390.04" y="-159.8" font-family="Times,serif" font-size="9.00">apply force 1!*</text>
</g>
<!-- Sequence**&#45;&gt;apply force 1!* -->
<g id="edge16" class="edge">
<title>Sequence**&#45;&gt;apply force 1!*</title>
<path fill="none" stroke="black" d="M408.11,-215.7C405.44,-207.9 402.22,-198.51 399.24,-189.83"/>
<polygon fill="black" stroke="black" points="402.46,-188.43 395.91,-180.1 395.84,-190.7 402.46,-188.43"/>
</g>
<!-- 1 on 0? -->
<g id="node11" class="node">
<title>1 on 0?</title>
<ellipse fill="gray" stroke="black" cx="211.04" cy="-90" rx="27" ry="18"/>
<text text-anchor="middle" x="211.04" y="-87.8" font-family="Times,serif" font-size="9.00">1 on 0?</text>
</g>
<!-- Fallback**&#45;&gt;1 on 0? -->
<g id="edge10" class="edge">
<title>Fallback**&#45;&gt;1 on 0?</title>
<path fill="none" stroke="black" d="M277.6,-145.81C265.23,-135.62 248.8,-122.09 235.36,-111.02"/>
<polygon fill="black" stroke="black" points="237.39,-108.16 227.44,-104.5 232.94,-113.56 237.39,-108.16"/>
</g>
<!-- Sequence*** -->
<g id="node12" class="node">
<title>Sequence***</title>
<polygon fill="cyan" stroke="black" points="336.03,-82.54 336.03,-97.46 312.61,-108 279.48,-108 256.05,-97.46 256.05,-82.54 279.48,-72 312.61,-72 336.03,-82.54"/>
<text text-anchor="middle" x="296.04" y="-87.8" font-family="Times,serif" font-size="9.00">Sequence***</text>
</g>
<!-- Fallback**&#45;&gt;Sequence*** -->
<g id="edge11" class="edge">
<title>Fallback**&#45;&gt;Sequence***</title>
<path fill="none" stroke="black" d="M296.04,-143.7C296.04,-135.98 296.04,-126.71 296.04,-118.11"/>
<polygon fill="black" stroke="black" points="299.54,-118.1 296.04,-108.1 292.54,-118.1 299.54,-118.1"/>
</g>
<!-- apply force 1! -->
<g id="node16" class="node">
<title>apply force 1!</title>
<ellipse fill="gray" stroke="black" cx="392.04" cy="-90" rx="38.21" ry="18"/>
<text text-anchor="middle" x="392.04" y="-87.8" font-family="Times,serif" font-size="9.00">apply force 1!</text>
</g>
<!-- Fallback**&#45;&gt;apply force 1! -->
<g id="edge15" class="edge">
<title>Fallback**&#45;&gt;apply force 1!</title>
<path fill="none" stroke="black" d="M315.94,-146.5C329.84,-136.36 348.6,-122.68 364.01,-111.44"/>
<polygon fill="black" stroke="black" points="366.16,-114.21 372.18,-105.49 362.04,-108.55 366.16,-114.21"/>
</g>
<!-- pick 1! -->
<g id="node13" class="node">
<title>pick 1!</title>
<ellipse fill="gray" stroke="black" cx="219.04" cy="-18" rx="27" ry="18"/>
<text text-anchor="middle" x="219.04" y="-15.8" font-family="Times,serif" font-size="9.00">pick 1!</text>
</g>
<!-- Sequence***&#45;&gt;pick 1! -->
<g id="edge12" class="edge">
<title>Sequence***&#45;&gt;pick 1!</title>
<path fill="none" stroke="black" d="M277.8,-72.41C267.03,-62.62 253.31,-50.15 241.83,-39.72"/>
<polygon fill="black" stroke="black" points="244.06,-37.02 234.31,-32.88 239.36,-42.19 244.06,-37.02"/>
</g>
<!-- place on 0! -->
<g id="node14" class="node">
<title>place on 0!</title>
<ellipse fill="gray" stroke="black" cx="296.04" cy="-18" rx="32.16" ry="18"/>
<text text-anchor="middle" x="296.04" y="-15.8" font-family="Times,serif" font-size="9.00">place on 0!</text>
</g>
<!-- Sequence***&#45;&gt;place on 0! -->
<g id="edge13" class="edge">
<title>Sequence***&#45;&gt;place on 0!</title>
<path fill="none" stroke="black" d="M296.04,-71.7C296.04,-63.98 296.04,-54.71 296.04,-46.11"/>
<polygon fill="black" stroke="black" points="299.54,-46.1 296.04,-36.1 292.54,-46.1 299.54,-46.1"/>
</g>
<!-- place on 2! -->
<g id="node15" class="node">
<title>place on 2!</title>
<ellipse fill="gray" stroke="black" cx="379.04" cy="-18" rx="32.16" ry="18"/>
<text text-anchor="middle" x="379.04" y="-15.8" font-family="Times,serif" font-size="9.00">place on 2!</text>
</g>
<!-- Sequence***&#45;&gt;place on 2! -->
<g id="edge14" class="edge">
<title>Sequence***&#45;&gt;place on 2!</title>
<path fill="none" stroke="black" d="M315.29,-72.76C326.84,-63.02 341.66,-50.53 354.1,-40.04"/>
<polygon fill="black" stroke="black" points="356.48,-42.61 361.87,-33.48 351.97,-37.25 356.48,-42.61"/>
</g>
<!-- Sequence**** -->
<g id="node19" class="node">
<title>Sequence****</title>
<polygon fill="cyan" stroke="black" points="568.53,-226.54 568.53,-241.46 543.64,-252 508.44,-252 483.56,-241.46 483.56,-226.54 508.44,-216 543.64,-216 568.53,-226.54"/>
<text text-anchor="middle" x="526.04" y="-231.8" font-family="Times,serif" font-size="9.00">Sequence****</text>
</g>
<!-- Fallback***&#45;&gt;Sequence**** -->
<g id="edge18" class="edge">
<title>Fallback***&#45;&gt;Sequence****</title>
<path fill="none" stroke="black" d="M608.75,-290.67C593.77,-280.58 573.49,-266.94 556.77,-255.68"/>
<polygon fill="black" stroke="black" points="558.64,-252.72 548.39,-250.04 554.73,-258.53 558.64,-252.72"/>
</g>
<!-- apply force 1!** -->
<g id="node22" class="node">
<title>apply force 1!**</title>
<ellipse fill="gray" stroke="black" cx="630.04" cy="-234" rx="43.1" ry="18"/>
<text text-anchor="middle" x="630.04" y="-231.8" font-family="Times,serif" font-size="9.00">apply force 1!**</text>
</g>
<!-- Fallback***&#45;&gt;apply force 1!** -->
<g id="edge21" class="edge">
<title>Fallback***&#45;&gt;apply force 1!**</title>
<path fill="none" stroke="black" d="M630.04,-287.7C630.04,-279.98 630.04,-270.71 630.04,-262.11"/>
<polygon fill="black" stroke="black" points="633.54,-262.1 630.04,-252.1 626.54,-262.1 633.54,-262.1"/>
</g>
<!-- Sequence***** -->
<g id="node23" class="node">
<title>Sequence*****</title>
<polygon fill="cyan" stroke="black" points="782.78,-226.54 782.78,-241.46 755.99,-252 718.1,-252 691.31,-241.46 691.31,-226.54 718.1,-216 755.99,-216 782.78,-226.54"/>
<text text-anchor="middle" x="737.04" y="-231.8" font-family="Times,serif" font-size="9.00">Sequence*****</text>
</g>
<!-- Fallback***&#45;&gt;Sequence***** -->
<g id="edge22" class="edge">
<title>Fallback***&#45;&gt;Sequence*****</title>
<path fill="none" stroke="black" d="M651.7,-290.83C666.99,-280.83 687.73,-267.26 704.94,-256"/>
<polygon fill="black" stroke="black" points="707.11,-258.76 713.57,-250.36 703.28,-252.9 707.11,-258.76"/>
</g>
<!-- 2 on 1? -->
<g id="node29" class="node">
<title>2 on 1?</title>
<ellipse fill="gray" stroke="black" cx="828.04" cy="-234" rx="27" ry="18"/>
<text text-anchor="middle" x="828.04" y="-231.8" font-family="Times,serif" font-size="9.00">2 on 1?</text>
</g>
<!-- Fallback***&#45;&gt;2 on 1? -->
<g id="edge28" class="edge">
<title>Fallback***&#45;&gt;2 on 1?</title>
<path fill="none" stroke="black" d="M658.67,-294.15C664.4,-292.06 670.4,-289.92 676.04,-288 727.16,-270.64 741.74,-271.57 792.04,-252 793.88,-251.29 795.75,-250.52 797.63,-249.72"/>
<polygon fill="black" stroke="black" points="799.23,-252.84 806.94,-245.57 796.38,-246.45 799.23,-252.84"/>
</g>
<!-- Sequence****** -->
<g id="node30" class="node">
<title>Sequence******</title>
<polygon fill="cyan" stroke="black" points="994.28,-226.54 994.28,-241.46 966.03,-252 926.06,-252 897.81,-241.46 897.81,-226.54 926.06,-216 966.03,-216 994.28,-226.54"/>
<text text-anchor="middle" x="946.04" y="-231.8" font-family="Times,serif" font-size="9.00">Sequence******</text>
</g>
<!-- Fallback***&#45;&gt;Sequence****** -->
<g id="edge29" class="edge">
<title>Fallback***&#45;&gt;Sequence******</title>
<path fill="none" stroke="black" d="M658.02,-293.83C663.92,-291.71 670.14,-289.64 676.04,-288 758,-265.18 780.61,-268.64 864.04,-252 873.78,-250.06 884.15,-247.95 894.12,-245.89"/>
<polygon fill="black" stroke="black" points="894.85,-249.31 903.93,-243.86 893.43,-242.46 894.85,-249.31"/>
</g>
<!-- 2 at pos (0.0, 0.05, 0.0384)? -->
<g id="node20" class="node">
<title>2 at pos (0.0, 0.05, 0.0384)?</title>
<ellipse fill="gray" stroke="black" cx="517.04" cy="-162" rx="67.6" ry="18"/>
<text text-anchor="middle" x="517.04" y="-159.8" font-family="Times,serif" font-size="9.00">2 at pos (0.0, 0.05, 0.0384)?</text>
</g>
<!-- Sequence****&#45;&gt;2 at pos (0.0, 0.05, 0.0384)? -->
<g id="edge19" class="edge">
<title>Sequence****&#45;&gt;2 at pos (0.0, 0.05, 0.0384)?</title>
<path fill="none" stroke="black" d="M523.82,-215.7C522.83,-207.98 521.64,-198.71 520.53,-190.11"/>
<polygon fill="black" stroke="black" points="523.99,-189.58 519.24,-180.1 517.05,-190.47 523.99,-189.58"/>
</g>
<!-- pick 1!* -->
<g id="node21" class="node">
<title>pick 1!*</title>
<ellipse fill="gray" stroke="black" cx="630.04" cy="-162" rx="27" ry="18"/>
<text text-anchor="middle" x="630.04" y="-159.8" font-family="Times,serif" font-size="9.00">pick 1!*</text>
</g>
<!-- Sequence****&#45;&gt;pick 1!* -->
<g id="edge20" class="edge">
<title>Sequence****&#45;&gt;pick 1!*</title>
<path fill="none" stroke="black" d="M548.36,-217.98C564.42,-207.17 586.16,-192.54 603.18,-181.08"/>
<polygon fill="black" stroke="black" points="605.25,-183.91 611.59,-175.42 601.34,-178.1 605.25,-183.91"/>
</g>
<!-- Fallback**** -->
<g id="node24" class="node">
<title>Fallback****</title>
<polygon fill="cyan" stroke="black" points="756.78,-154.54 756.78,-169.46 732.92,-180 699.17,-180 675.3,-169.46 675.3,-154.54 699.17,-144 732.92,-144 756.78,-154.54"/>
<text text-anchor="middle" x="716.04" y="-159.8" font-family="Times,serif" font-size="9.00">Fallback****</text>
</g>
<!-- Sequence*****&#45;&gt;Fallback**** -->
<g id="edge23" class="edge">
<title>Sequence*****&#45;&gt;Fallback****</title>
<path fill="none" stroke="black" d="M731.85,-215.7C729.51,-207.9 726.7,-198.51 724.09,-189.83"/>
<polygon fill="black" stroke="black" points="727.4,-188.68 721.18,-180.1 720.7,-190.69 727.4,-188.68"/>
</g>
<!-- pick 0!* -->
<g id="node27" class="node">
<title>pick 0!*</title>
<ellipse fill="gray" stroke="black" cx="802.04" cy="-162" rx="27" ry="18"/>
<text text-anchor="middle" x="802.04" y="-159.8" font-family="Times,serif" font-size="9.00">pick 0!*</text>
</g>
<!-- Sequence*****&#45;&gt;pick 0!* -->
<g id="edge26" class="edge">
<title>Sequence*****&#45;&gt;pick 0!*</title>
<path fill="none" stroke="black" d="M753.11,-215.7C761.66,-206.5 772.25,-195.08 781.4,-185.23"/>
<polygon fill="black" stroke="black" points="784.12,-187.45 788.36,-177.74 778.99,-182.68 784.12,-187.45"/>
</g>
<!-- 1 on 0?* -->
<g id="node28" class="node">
<title>1 on 0?*</title>
<ellipse fill="gray" stroke="black" cx="874.04" cy="-162" rx="27.27" ry="18"/>
<text text-anchor="middle" x="874.04" y="-159.8" font-family="Times,serif" font-size="9.00">1 on 0?*</text>
</g>
<!-- Sequence*****&#45;&gt;1 on 0?* -->
<g id="edge27" class="edge">
<title>Sequence*****&#45;&gt;1 on 0?*</title>
<path fill="none" stroke="black" d="M764.11,-219.17C787.24,-207.35 820.47,-190.37 844.33,-178.18"/>
<polygon fill="black" stroke="black" points="845.98,-181.27 853.29,-173.6 842.8,-175.04 845.98,-181.27"/>
</g>
<!-- place at (0.0, 0.05, 0.0)!* -->
<g id="node25" class="node">
<title>place at (0.0, 0.05, 0.0)!*</title>
<ellipse fill="gray" stroke="black" cx="657.04" cy="-90" rx="61.4" ry="18"/>
<text text-anchor="middle" x="657.04" y="-87.8" font-family="Times,serif" font-size="9.00">place at (0.0, 0.05, 0.0)!*</text>
</g>
<!-- Fallback****&#45;&gt;place at (0.0, 0.05, 0.0)!* -->
<g id="edge24" class="edge">
<title>Fallback****&#45;&gt;place at (0.0, 0.05, 0.0)!*</title>
<path fill="none" stroke="black" d="M701.46,-143.7C694.28,-135.18 685.5,-124.76 677.65,-115.45"/>
<polygon fill="black" stroke="black" points="680.18,-113.01 671.05,-107.62 674.82,-117.52 680.18,-113.01"/>
</g>
<!-- apply force 2! -->
<g id="node26" class="node">
<title>apply force 2!</title>
<ellipse fill="gray" stroke="black" cx="774.04" cy="-90" rx="38.21" ry="18"/>
<text text-anchor="middle" x="774.04" y="-87.8" font-family="Times,serif" font-size="9.00">apply force 2!</text>
</g>
<!-- Fallback****&#45;&gt;apply force 2! -->
<g id="edge25" class="edge">
<title>Fallback****&#45;&gt;apply force 2!</title>
<path fill="none" stroke="black" d="M730.38,-143.7C737.54,-135.05 746.32,-124.46 754.13,-115.04"/>
<polygon fill="black" stroke="black" points="756.98,-117.08 760.67,-107.14 751.59,-112.61 756.98,-117.08"/>
</g>
<!-- pick 2! -->
<g id="node31" class="node">
<title>pick 2!</title>
<ellipse fill="gray" stroke="black" cx="946.04" cy="-162" rx="27" ry="18"/>
<text text-anchor="middle" x="946.04" y="-159.8" font-family="Times,serif" font-size="9.00">pick 2!</text>
</g>
<!-- Sequence******&#45;&gt;pick 2! -->
<g id="edge30" class="edge">
<title>Sequence******&#45;&gt;pick 2!</title>
<path fill="none" stroke="black" d="M946.04,-215.7C946.04,-207.98 946.04,-198.71 946.04,-190.11"/>
<polygon fill="black" stroke="black" points="949.54,-190.1 946.04,-180.1 942.54,-190.1 949.54,-190.1"/>
</g>
<!-- place on 1! -->
<g id="node32" class="node">
<title>place on 1!</title>
<ellipse fill="gray" stroke="black" cx="1023.04" cy="-162" rx="32.16" ry="18"/>
<text text-anchor="middle" x="1023.04" y="-159.8" font-family="Times,serif" font-size="9.00">place on 1!</text>
</g>
<!-- Sequence******&#45;&gt;place on 1! -->
<g id="edge31" class="edge">
<title>Sequence******&#45;&gt;place on 1!</title>
<path fill="none" stroke="black" d="M965.08,-215.7C975.4,-206.31 988.25,-194.63 999.23,-184.65"/>
<polygon fill="black" stroke="black" points="1001.79,-187.05 1006.83,-177.74 997.08,-181.88 1001.79,-187.05"/>
</g>
</g>
</svg>
