<?xml version="1.0" encoding="UTF-8" standalone="no"?>
<!DOCTYPE svg PUBLIC "-//W3C//DTD SVG 1.1//EN"
 "http://www.w3.org/Graphics/SVG/1.1/DTD/svg11.dtd">
<!-- Generated by graphviz version 2.43.0 (0)
 -->
<!-- Title: pastafarianism Pages: 1 -->
<svg width="824pt" height="476pt"
 viewBox="0.00 0.00 824.04 476.00" xmlns="http://www.w3.org/2000/svg" xmlns:xlink="http://www.w3.org/1999/xlink">
<g id="graph0" class="graph" transform="scale(1 1) rotate(0) translate(4 472)">
<title>pastafarianism</title>
<polygon fill="white" stroke="transparent" points="-4,4 -4,-472 820.04,-472 820.04,4 -4,4"/>
<!-- Sequence -->
<g id="node1" class="node">
<title>Sequence</title>
<polygon fill="cyan" stroke="black" points="445.54,-442.54 445.54,-457.46 427.09,-468 401,-468 382.55,-457.46 382.55,-442.54 401,-432 427.09,-432 445.54,-442.54"/>
<text text-anchor="middle" x="414.04" y="-447.8" font-family="Times,serif" font-size="9.00">Sequence</text>
</g>
<!-- Fallback -->
<g id="node2" class="node">
<title>Fallback</title>
<polygon fill="cyan" stroke="black" points="201.29,-370.54 201.29,-385.46 184.16,-396 159.93,-396 142.8,-385.46 142.8,-370.54 159.93,-360 184.16,-360 201.29,-370.54"/>
<text text-anchor="middle" x="172.04" y="-375.8" font-family="Times,serif" font-size="9.00">Fallback</text>
</g>
<!-- Sequence&#45;&gt;Fallback -->
<g id="edge1" class="edge">
<title>Sequence&#45;&gt;Fallback</title>
<path fill="none" stroke="black" d="M385.33,-440.7C341.38,-427.98 257.44,-403.7 209,-389.69"/>
<polygon fill="black" stroke="black" points="209.81,-386.28 199.23,-386.86 207.87,-393.01 209.81,-386.28"/>
</g>
<!-- Fallback** -->
<g id="node9" class="node">
<title>Fallback**</title>
<polygon fill="cyan" stroke="black" points="449.04,-370.54 449.04,-385.46 428.54,-396 399.55,-396 379.05,-385.46 379.05,-370.54 399.55,-360 428.54,-360 449.04,-370.54"/>
<text text-anchor="middle" x="414.04" y="-375.8" font-family="Times,serif" font-size="9.00">Fallback**</text>
</g>
<!-- Sequence&#45;&gt;Fallback** -->
<g id="edge8" class="edge">
<title>Sequence&#45;&gt;Fallback**</title>
<path fill="none" stroke="black" d="M414.04,-431.7C414.04,-423.98 414.04,-414.71 414.04,-406.11"/>
<polygon fill="black" stroke="black" points="417.54,-406.1 414.04,-396.1 410.54,-406.1 417.54,-406.1"/>
</g>
<!-- Fallback***** -->
<g id="node21" class="node">
<title>Fallback*****</title>
<polygon fill="cyan" stroke="black" points="674.28,-370.54 674.28,-385.46 648.95,-396 613.13,-396 587.81,-385.46 587.81,-370.54 613.13,-360 648.95,-360 674.28,-370.54"/>
<text text-anchor="middle" x="631.04" y="-375.8" font-family="Times,serif" font-size="9.00">Fallback*****</text>
</g>
<!-- Sequence&#45;&gt;Fallback***** -->
<g id="edge20" class="edge">
<title>Sequence&#45;&gt;Fallback*****</title>
<path fill="none" stroke="black" d="M441.53,-440.13C478.45,-428.22 544.47,-406.93 588.01,-392.88"/>
<polygon fill="black" stroke="black" points="589.31,-396.14 597.75,-389.74 587.16,-389.48 589.31,-396.14"/>
</g>
<!-- 0 at pos (0.0, 0.05, 0.0)? -->
<g id="node3" class="node">
<title>0 at pos (0.0, 0.05, 0.0)?</title>
<ellipse fill="gray" stroke="black" cx="60.04" cy="-306" rx="60.09" ry="18"/>
<text text-anchor="middle" x="60.04" y="-303.8" font-family="Times,serif" font-size="9.00">0 at pos (0.0, 0.05, 0.0)?</text>
</g>
<!-- Fallback&#45;&gt;0 at pos (0.0, 0.05, 0.0)? -->
<g id="edge2" class="edge">
<title>Fallback&#45;&gt;0 at pos (0.0, 0.05, 0.0)?</title>
<path fill="none" stroke="black" d="M152.28,-364.65C136.12,-354.55 112.92,-340.05 93.82,-328.11"/>
<polygon fill="black" stroke="black" points="95.44,-325 85.11,-322.66 91.73,-330.93 95.44,-325"/>
</g>
<!-- Sequence* -->
<g id="node4" class="node">
<title>Sequence*</title>
<polygon fill="cyan" stroke="black" points="206.29,-298.54 206.29,-313.46 186.23,-324 157.86,-324 137.8,-313.46 137.8,-298.54 157.86,-288 186.23,-288 206.29,-298.54"/>
<text text-anchor="middle" x="172.04" y="-303.8" font-family="Times,serif" font-size="9.00">Sequence*</text>
</g>
<!-- Fallback&#45;&gt;Sequence* -->
<g id="edge3" class="edge">
<title>Fallback&#45;&gt;Sequence*</title>
<path fill="none" stroke="black" d="M172.04,-359.7C172.04,-351.98 172.04,-342.71 172.04,-334.11"/>
<polygon fill="black" stroke="black" points="175.54,-334.1 172.04,-324.1 168.54,-334.1 175.54,-334.1"/>
</g>
<!-- Fallback* -->
<g id="node5" class="node">
<title>Fallback*</title>
<polygon fill="cyan" stroke="black" points="149.79,-226.54 149.79,-241.46 131.19,-252 104.9,-252 86.3,-241.46 86.3,-226.54 104.9,-216 131.19,-216 149.79,-226.54"/>
<text text-anchor="middle" x="118.04" y="-231.8" font-family="Times,serif" font-size="9.00">Fallback*</text>
</g>
<!-- Sequence*&#45;&gt;Fallback* -->
<g id="edge4" class="edge">
<title>Sequence*&#45;&gt;Fallback*</title>
<path fill="none" stroke="black" d="M158.7,-287.7C152.29,-279.39 144.49,-269.28 137.44,-260.14"/>
<polygon fill="black" stroke="black" points="140.12,-257.88 131.24,-252.1 134.58,-262.16 140.12,-257.88"/>
</g>
<!-- place at (0.0, 0.05, 0.0)! -->
<g id="node8" class="node">
<title>place at (0.0, 0.05, 0.0)!</title>
<ellipse fill="gray" stroke="black" cx="226.04" cy="-234" rx="58.13" ry="18"/>
<text text-anchor="middle" x="226.04" y="-231.8" font-family="Times,serif" font-size="9.00">place at (0.0, 0.05, 0.0)!</text>
</g>
<!-- Sequence*&#45;&gt;place at (0.0, 0.05, 0.0)! -->
<g id="edge7" class="edge">
<title>Sequence*&#45;&gt;place at (0.0, 0.05, 0.0)!</title>
<path fill="none" stroke="black" d="M185.39,-287.7C191.9,-279.27 199.84,-268.97 206.97,-259.73"/>
<polygon fill="black" stroke="black" points="209.88,-261.68 213.22,-251.62 204.34,-257.4 209.88,-261.68"/>
</g>
<!-- picked 0? -->
<g id="node6" class="node">
<title>picked 0?</title>
<ellipse fill="gray" stroke="black" cx="81.04" cy="-162" rx="28.74" ry="18"/>
<text text-anchor="middle" x="81.04" y="-159.8" font-family="Times,serif" font-size="9.00">picked 0?</text>
</g>
<!-- Fallback*&#45;&gt;picked 0? -->
<g id="edge5" class="edge">
<title>Fallback*&#45;&gt;picked 0?</title>
<path fill="none" stroke="black" d="M108.9,-215.7C104.58,-207.52 99.33,-197.6 94.57,-188.58"/>
<polygon fill="black" stroke="black" points="97.6,-186.83 89.83,-179.62 91.41,-190.1 97.6,-186.83"/>
</g>
<!-- pick 0! -->
<g id="node7" class="node">
<title>pick 0!</title>
<ellipse fill="gray" stroke="black" cx="155.04" cy="-162" rx="27" ry="18"/>
<text text-anchor="middle" x="155.04" y="-159.8" font-family="Times,serif" font-size="9.00">pick 0!</text>
</g>
<!-- Fallback*&#45;&gt;pick 0! -->
<g id="edge6" class="edge">
<title>Fallback*&#45;&gt;pick 0!</title>
<path fill="none" stroke="black" d="M127.19,-215.7C131.57,-207.4 136.91,-197.31 141.73,-188.19"/>
<polygon fill="black" stroke="black" points="144.93,-189.62 146.51,-179.14 138.74,-186.35 144.93,-189.62"/>
</g>
<!-- 1 at pos (0.0, 0.05, 0.0192)? -->
<g id="node10" class="node">
<title>1 at pos (0.0, 0.05, 0.0192)?</title>
<ellipse fill="gray" stroke="black" cx="292.04" cy="-306" rx="67.6" ry="18"/>
<text text-anchor="middle" x="292.04" y="-303.8" font-family="Times,serif" font-size="9.00">1 at pos (0.0, 0.05, 0.0192)?</text>
</g>
<!-- Fallback**&#45;&gt;1 at pos (0.0, 0.05, 0.0192)? -->
<g id="edge9" class="edge">
<title>Fallback**&#45;&gt;1 at pos (0.0, 0.05, 0.0192)?</title>
<path fill="none" stroke="black" d="M391.38,-364C373.62,-353.8 348.55,-339.42 328.04,-327.65"/>
<polygon fill="black" stroke="black" points="329.69,-324.57 319.28,-322.62 326.21,-330.64 329.69,-324.57"/>
</g>
<!-- Sequence** -->
<g id="node11" class="node">
<title>Sequence**</title>
<polygon fill="cyan" stroke="black" points="450.79,-298.54 450.79,-313.46 429.26,-324 398.83,-324 377.3,-313.46 377.3,-298.54 398.83,-288 429.26,-288 450.79,-298.54"/>
<text text-anchor="middle" x="414.04" y="-303.8" font-family="Times,serif" font-size="9.00">Sequence**</text>
</g>
<!-- Fallback**&#45;&gt;Sequence** -->
<g id="edge10" class="edge">
<title>Fallback**&#45;&gt;Sequence**</title>
<path fill="none" stroke="black" d="M414.04,-359.7C414.04,-351.98 414.04,-342.71 414.04,-334.11"/>
<polygon fill="black" stroke="black" points="417.54,-334.1 414.04,-324.1 410.54,-334.1 417.54,-334.1"/>
</g>
<!-- apply force 2! -->
<g id="node20" class="node">
<title>apply force 2!</title>
<ellipse fill="gray" stroke="black" cx="507.04" cy="-306" rx="38.21" ry="18"/>
<text text-anchor="middle" x="507.04" y="-303.8" font-family="Times,serif" font-size="9.00">apply force 2!</text>
</g>
<!-- Fallback**&#45;&gt;apply force 2! -->
<g id="edge19" class="edge">
<title>Fallback**&#45;&gt;apply force 2!</title>
<path fill="none" stroke="black" d="M433.77,-362.15C447.05,-352.16 464.75,-338.83 479.43,-327.78"/>
<polygon fill="black" stroke="black" points="481.78,-330.39 487.67,-321.58 477.57,-324.8 481.78,-330.39"/>
</g>
<!-- Fallback*** -->
<g id="node12" class="node">
<title>Fallback***</title>
<polygon fill="cyan" stroke="black" points="441.53,-226.54 441.53,-241.46 419.57,-252 388.52,-252 366.55,-241.46 366.55,-226.54 388.52,-216 419.57,-216 441.53,-226.54"/>
<text text-anchor="middle" x="404.04" y="-231.8" font-family="Times,serif" font-size="9.00">Fallback***</text>
</g>
<!-- Sequence**&#45;&gt;Fallback*** -->
<g id="edge11" class="edge">
<title>Sequence**&#45;&gt;Fallback***</title>
<path fill="none" stroke="black" d="M411.57,-287.7C410.47,-279.98 409.15,-270.71 407.92,-262.11"/>
<polygon fill="black" stroke="black" points="411.37,-261.51 406.49,-252.1 404.44,-262.5 411.37,-261.51"/>
</g>
<!-- apply force 1! -->
<g id="node19" class="node">
<title>apply force 1!</title>
<ellipse fill="gray" stroke="black" cx="498.04" cy="-234" rx="38.21" ry="18"/>
<text text-anchor="middle" x="498.04" y="-231.8" font-family="Times,serif" font-size="9.00">apply force 1!</text>
</g>
<!-- Sequence**&#45;&gt;apply force 1! -->
<g id="edge18" class="edge">
<title>Sequence**&#45;&gt;apply force 1!</title>
<path fill="none" stroke="black" d="M432.69,-289.46C444.26,-279.82 459.31,-267.28 472.05,-256.66"/>
<polygon fill="black" stroke="black" points="474.59,-259.1 480.03,-250.01 470.11,-253.72 474.59,-259.1"/>
</g>
<!-- 1 on 0? -->
<g id="node13" class="node">
<title>1 on 0?</title>
<ellipse fill="gray" stroke="black" cx="395.04" cy="-162" rx="27" ry="18"/>
<text text-anchor="middle" x="395.04" y="-159.8" font-family="Times,serif" font-size="9.00">1 on 0?</text>
</g>
<!-- Fallback***&#45;&gt;1 on 0? -->
<g id="edge12" class="edge">
<title>Fallback***&#45;&gt;1 on 0?</title>
<path fill="none" stroke="black" d="M401.82,-215.7C400.83,-207.98 399.64,-198.71 398.53,-190.11"/>
<polygon fill="black" stroke="black" points="401.99,-189.58 397.24,-180.1 395.05,-190.47 401.99,-189.58"/>
</g>
<!-- Sequence*** -->
<g id="node14" class="node">
<title>Sequence***</title>
<polygon fill="cyan" stroke="black" points="520.03,-154.54 520.03,-169.46 496.61,-180 463.48,-180 440.05,-169.46 440.05,-154.54 463.48,-144 496.61,-144 520.03,-154.54"/>
<text text-anchor="middle" x="480.04" y="-159.8" font-family="Times,serif" font-size="9.00">Sequence***</text>
</g>
<!-- Fallback***&#45;&gt;Sequence*** -->
<g id="edge13" class="edge">
<title>Fallback***&#45;&gt;Sequence***</title>
<path fill="none" stroke="black" d="M421.67,-216.76C431.41,-207.79 443.68,-196.49 454.46,-186.56"/>
<polygon fill="black" stroke="black" points="457,-188.98 461.99,-179.63 452.26,-183.83 457,-188.98"/>
</g>
<!-- Fallback**** -->
<g id="node15" class="node">
<title>Fallback****</title>
<polygon fill="cyan" stroke="black" points="467.78,-82.54 467.78,-97.46 443.92,-108 410.17,-108 386.3,-97.46 386.3,-82.54 410.17,-72 443.92,-72 467.78,-82.54"/>
<text text-anchor="middle" x="427.04" y="-87.8" font-family="Times,serif" font-size="9.00">Fallback****</text>
</g>
<!-- Sequence***&#45;&gt;Fallback**** -->
<g id="edge14" class="edge">
<title>Sequence***&#45;&gt;Fallback****</title>
<path fill="none" stroke="black" d="M466.94,-143.7C460.65,-135.39 453,-125.28 446.08,-116.14"/>
<polygon fill="black" stroke="black" points="448.82,-113.96 439.99,-108.1 443.24,-118.19 448.82,-113.96"/>
</g>
<!-- place on 0! -->
<g id="node18" class="node">
<title>place on 0!</title>
<ellipse fill="gray" stroke="black" cx="518.04" cy="-90" rx="32.16" ry="18"/>
<text text-anchor="middle" x="518.04" y="-87.8" font-family="Times,serif" font-size="9.00">place on 0!</text>
</g>
<!-- Sequence***&#45;&gt;place on 0! -->
<g id="edge17" class="edge">
<title>Sequence***&#45;&gt;place on 0!</title>
<path fill="none" stroke="black" d="M489.44,-143.7C493.87,-135.52 499.26,-125.6 504.16,-116.58"/>
<polygon fill="black" stroke="black" points="507.33,-118.08 509.02,-107.62 501.17,-114.74 507.33,-118.08"/>
</g>
<!-- picked 1? -->
<g id="node16" class="node">
<title>picked 1?</title>
<ellipse fill="gray" stroke="black" cx="411.04" cy="-18" rx="28.74" ry="18"/>
<text text-anchor="middle" x="411.04" y="-15.8" font-family="Times,serif" font-size="9.00">picked 1?</text>
</g>
<!-- Fallback****&#45;&gt;picked 1? -->
<g id="edge15" class="edge">
<title>Fallback****&#45;&gt;picked 1?</title>
<path fill="none" stroke="black" d="M423.09,-71.7C421.33,-63.98 419.21,-54.71 417.24,-46.11"/>
<polygon fill="black" stroke="black" points="420.59,-45.07 414.95,-36.1 413.77,-46.63 420.59,-45.07"/>
</g>
<!-- pick 1! -->
<g id="node17" class="node">
<title>pick 1!</title>
<ellipse fill="gray" stroke="black" cx="485.04" cy="-18" rx="27" ry="18"/>
<text text-anchor="middle" x="485.04" y="-15.8" font-family="Times,serif" font-size="9.00">pick 1!</text>
</g>
<!-- Fallback****&#45;&gt;pick 1! -->
<g id="edge16" class="edge">
<title>Fallback****&#45;&gt;pick 1!</title>
<path fill="none" stroke="black" d="M441.38,-71.7C448.82,-62.71 458.02,-51.62 466.04,-41.93"/>
<polygon fill="black" stroke="black" points="468.76,-44.14 472.45,-34.2 463.37,-39.67 468.76,-44.14"/>
</g>
<!-- 2 at pos (0.0, 0.05, 0.0384)? -->
<g id="node22" class="node">
<title>2 at pos (0.0, 0.05, 0.0384)?</title>
<ellipse fill="gray" stroke="black" cx="631.04" cy="-306" rx="67.6" ry="18"/>
<text text-anchor="middle" x="631.04" y="-303.8" font-family="Times,serif" font-size="9.00">2 at pos (0.0, 0.05, 0.0384)?</text>
</g>
<!-- Fallback*****&#45;&gt;2 at pos (0.0, 0.05, 0.0384)? -->
<g id="edge21" class="edge">
<title>Fallback*****&#45;&gt;2 at pos (0.0, 0.05, 0.0384)?</title>
<path fill="none" stroke="black" d="M631.04,-359.7C631.04,-351.98 631.04,-342.71 631.04,-334.11"/>
<polygon fill="black" stroke="black" points="634.54,-334.1 631.04,-324.1 627.54,-334.1 634.54,-334.1"/>
</g>
<!-- Sequence**** -->
<g id="node23" class="node">
<title>Sequence****</title>
<polygon fill="cyan" stroke="black" points="801.53,-298.54 801.53,-313.46 776.64,-324 741.44,-324 716.56,-313.46 716.56,-298.54 741.44,-288 776.64,-288 801.53,-298.54"/>
<text text-anchor="middle" x="759.04" y="-303.8" font-family="Times,serif" font-size="9.00">Sequence****</text>
</g>
<!-- Fallback*****&#45;&gt;Sequence**** -->
<g id="edge22" class="edge">
<title>Fallback*****&#45;&gt;Sequence****</title>
<path fill="none" stroke="black" d="M656.64,-363C676.17,-352.32 703.28,-337.49 724.7,-325.78"/>
<polygon fill="black" stroke="black" points="726.4,-328.84 733.49,-320.97 723.04,-322.7 726.4,-328.84"/>
</g>
<!-- Fallback****** -->
<g id="node24" class="node">
<title>Fallback******</title>
<polygon fill="cyan" stroke="black" points="716.53,-226.54 716.53,-241.46 689.3,-252 650.79,-252 623.56,-241.46 623.56,-226.54 650.79,-216 689.3,-216 716.53,-226.54"/>
<text text-anchor="middle" x="670.04" y="-231.8" font-family="Times,serif" font-size="9.00">Fallback******</text>
</g>
<!-- Sequence****&#45;&gt;Fallback****** -->
<g id="edge23" class="edge">
<title>Sequence****&#45;&gt;Fallback******</title>
<path fill="none" stroke="black" d="M738.4,-288.76C726.69,-279.55 711.85,-267.88 698.99,-257.77"/>
<polygon fill="black" stroke="black" points="700.91,-254.82 690.88,-251.39 696.58,-260.32 700.91,-254.82"/>
</g>
<!-- apply force 2!* -->
<g id="node31" class="node">
<title>apply force 2!*</title>
<ellipse fill="gray" stroke="black" cx="775.04" cy="-234" rx="40.98" ry="18"/>
<text text-anchor="middle" x="775.04" y="-231.8" font-family="Times,serif" font-size="9.00">apply force 2!*</text>
</g>
<!-- Sequence****&#45;&gt;apply force 2!* -->
<g id="edge30" class="edge">
<title>Sequence****&#45;&gt;apply force 2!*</title>
<path fill="none" stroke="black" d="M763,-287.7C764.76,-279.98 766.88,-270.71 768.85,-262.11"/>
<polygon fill="black" stroke="black" points="772.32,-262.63 771.13,-252.1 765.49,-261.07 772.32,-262.63"/>
</g>
<!-- 2 on 1? -->
<g id="node25" class="node">
<title>2 on 1?</title>
<ellipse fill="gray" stroke="black" cx="587.04" cy="-162" rx="27" ry="18"/>
<text text-anchor="middle" x="587.04" y="-159.8" font-family="Times,serif" font-size="9.00">2 on 1?</text>
</g>
<!-- Fallback******&#45;&gt;2 on 1? -->
<g id="edge24" class="edge">
<title>Fallback******&#45;&gt;2 on 1?</title>
<path fill="none" stroke="black" d="M649.95,-216.05C638.15,-206.1 623.16,-193.46 610.77,-183.01"/>
<polygon fill="black" stroke="black" points="612.97,-180.28 603.07,-176.51 608.45,-185.63 612.97,-180.28"/>
</g>
<!-- Sequence***** -->
<g id="node26" class="node">
<title>Sequence*****</title>
<polygon fill="cyan" stroke="black" points="723.78,-154.54 723.78,-169.46 696.99,-180 659.1,-180 632.31,-169.46 632.31,-154.54 659.1,-144 696.99,-144 723.78,-154.54"/>
<text text-anchor="middle" x="678.04" y="-159.8" font-family="Times,serif" font-size="9.00">Sequence*****</text>
</g>
<!-- Fallback******&#45;&gt;Sequence***** -->
<g id="edge25" class="edge">
<title>Fallback******&#45;&gt;Sequence*****</title>
<path fill="none" stroke="black" d="M672.02,-215.7C672.9,-207.98 673.96,-198.71 674.95,-190.11"/>
<polygon fill="black" stroke="black" points="678.43,-190.44 676.09,-180.1 671.48,-189.64 678.43,-190.44"/>
</g>
<!-- Fallback******* -->
<g id="node27" class="node">
<title>Fallback*******</title>
<polygon fill="cyan" stroke="black" points="688.03,-82.54 688.03,-97.46 659.34,-108 618.75,-108 590.06,-97.46 590.06,-82.54 618.75,-72 659.34,-72 688.03,-82.54"/>
<text text-anchor="middle" x="639.04" y="-87.8" font-family="Times,serif" font-size="9.00">Fallback*******</text>
</g>
<!-- Sequence*****&#45;&gt;Fallback******* -->
<g id="edge26" class="edge">
<title>Sequence*****&#45;&gt;Fallback*******</title>
<path fill="none" stroke="black" d="M668.4,-143.7C663.92,-135.64 658.49,-125.89 653.52,-116.98"/>
<polygon fill="black" stroke="black" points="656.5,-115.14 648.57,-108.1 650.38,-118.54 656.5,-115.14"/>
</g>
<!-- place on 1! -->
<g id="node30" class="node">
<title>place on 1!</title>
<ellipse fill="gray" stroke="black" cx="738.04" cy="-90" rx="32.16" ry="18"/>
<text text-anchor="middle" x="738.04" y="-87.8" font-family="Times,serif" font-size="9.00">place on 1!</text>
</g>
<!-- Sequence*****&#45;&gt;place on 1! -->
<g id="edge29" class="edge">
<title>Sequence*****&#45;&gt;place on 1!</title>
<path fill="none" stroke="black" d="M692.88,-143.7C700.47,-134.84 709.82,-123.93 718.04,-114.34"/>
<polygon fill="black" stroke="black" points="720.76,-116.54 724.61,-106.67 715.45,-111.99 720.76,-116.54"/>
</g>
<!-- picked 2? -->
<g id="node28" class="node">
<title>picked 2?</title>
<ellipse fill="gray" stroke="black" cx="588.04" cy="-18" rx="28.74" ry="18"/>
<text text-anchor="middle" x="588.04" y="-15.8" font-family="Times,serif" font-size="9.00">picked 2?</text>
</g>
<!-- Fallback*******&#45;&gt;picked 2? -->
<g id="edge27" class="edge">
<title>Fallback*******&#45;&gt;picked 2?</title>
<path fill="none" stroke="black" d="M626.44,-71.7C620.11,-63.02 612.36,-52.37 605.47,-42.92"/>
<polygon fill="black" stroke="black" points="608.18,-40.69 599.46,-34.67 602.52,-44.81 608.18,-40.69"/>
</g>
<!-- pick 2! -->
<g id="node29" class="node">
<title>pick 2!</title>
<ellipse fill="gray" stroke="black" cx="662.04" cy="-18" rx="27" ry="18"/>
<text text-anchor="middle" x="662.04" y="-15.8" font-family="Times,serif" font-size="9.00">pick 2!</text>
</g>
<!-- Fallback*******&#45;&gt;pick 2! -->
<g id="edge28" class="edge">
<title>Fallback*******&#45;&gt;pick 2!</title>
<path fill="none" stroke="black" d="M644.73,-71.7C647.29,-63.9 650.38,-54.51 653.23,-45.83"/>
<polygon fill="black" stroke="black" points="656.63,-46.7 656.42,-36.1 649.98,-44.51 656.63,-46.7"/>
</g>
</g>
</svg>
