<?xml version="1.0" encoding="UTF-8" standalone="no"?>
<!DOCTYPE svg PUBLIC "-//W3C//DTD SVG 1.1//EN"
 "http://www.w3.org/Graphics/SVG/1.1/DTD/svg11.dtd">
<!-- Generated by graphviz version 2.43.0 (0)
 -->
<!-- Title: pastafarianism Pages: 1 -->
<svg width="1066pt" height="548pt"
 viewBox="0.00 0.00 1066.48 548.00" xmlns="http://www.w3.org/2000/svg" xmlns:xlink="http://www.w3.org/1999/xlink">
<g id="graph0" class="graph" transform="scale(1 1) rotate(0) translate(4 544)">
<title>pastafarianism</title>
<polygon fill="white" stroke="transparent" points="-4,4 -4,-544 1062.48,-544 1062.48,4 -4,4"/>
<!-- Sequence -->
<g id="node1" class="node">
<title>Sequence</title>
<polygon fill="cyan" stroke="black" points="502.54,-514.54 502.54,-529.46 484.09,-540 458,-540 439.55,-529.46 439.55,-514.54 458,-504 484.09,-504 502.54,-514.54"/>
<text text-anchor="middle" x="471.04" y="-519.8" font-family="Times,serif" font-size="9.00">Sequence</text>
</g>
<!-- Fallback -->
<g id="node2" class="node">
<title>Fallback</title>
<polygon fill="cyan" stroke="black" points="201.29,-442.54 201.29,-457.46 184.16,-468 159.93,-468 142.8,-457.46 142.8,-442.54 159.93,-432 184.16,-432 201.29,-442.54"/>
<text text-anchor="middle" x="172.04" y="-447.8" font-family="Times,serif" font-size="9.00">Fallback</text>
</g>
<!-- Sequence&#45;&gt;Fallback -->
<g id="edge1" class="edge">
<title>Sequence&#45;&gt;Fallback</title>
<path fill="none" stroke="black" d="M440.45,-513.84C385.72,-501.02 271.15,-474.2 210.93,-460.1"/>
<polygon fill="black" stroke="black" points="211.58,-456.66 201.05,-457.79 209.99,-463.48 211.58,-456.66"/>
</g>
<!-- Fallback* -->
<g id="node8" class="node">
<title>Fallback*</title>
<polygon fill="cyan" stroke="black" points="457.79,-442.54 457.79,-457.46 439.19,-468 412.9,-468 394.3,-457.46 394.3,-442.54 412.9,-432 439.19,-432 457.79,-442.54"/>
<text text-anchor="middle" x="426.04" y="-447.8" font-family="Times,serif" font-size="9.00">Fallback*</text>
</g>
<!-- Sequence&#45;&gt;Fallback* -->
<g id="edge7" class="edge">
<title>Sequence&#45;&gt;Fallback*</title>
<path fill="none" stroke="black" d="M459.92,-503.7C454.69,-495.56 448.34,-485.69 442.57,-476.7"/>
<polygon fill="black" stroke="black" points="445.39,-474.62 437.04,-468.1 439.5,-478.41 445.39,-474.62"/>
</g>
<!-- Fallback**** -->
<g id="node22" class="node">
<title>Fallback****</title>
<polygon fill="cyan" stroke="black" points="556.78,-442.54 556.78,-457.46 532.92,-468 499.17,-468 475.3,-457.46 475.3,-442.54 499.17,-432 532.92,-432 556.78,-442.54"/>
<text text-anchor="middle" x="516.04" y="-447.8" font-family="Times,serif" font-size="9.00">Fallback****</text>
</g>
<!-- Sequence&#45;&gt;Fallback**** -->
<g id="edge21" class="edge">
<title>Sequence&#45;&gt;Fallback****</title>
<path fill="none" stroke="black" d="M482.17,-503.7C487.4,-495.56 493.74,-485.69 499.52,-476.7"/>
<polygon fill="black" stroke="black" points="502.59,-478.41 505.05,-468.1 496.7,-474.62 502.59,-478.41"/>
</g>
<!-- apply force 2! -->
<g id="node40" class="node">
<title>apply force 2!</title>
<ellipse fill="gray" stroke="black" cx="613.04" cy="-450" rx="38.21" ry="18"/>
<text text-anchor="middle" x="613.04" y="-447.8" font-family="Times,serif" font-size="9.00">apply force 2!</text>
</g>
<!-- Sequence&#45;&gt;apply force 2! -->
<g id="edge39" class="edge">
<title>Sequence&#45;&gt;apply force 2!</title>
<path fill="none" stroke="black" d="M494.18,-509.6C516.99,-498.35 552.16,-481.01 578.33,-468.11"/>
<polygon fill="black" stroke="black" points="580.1,-471.14 587.52,-463.58 577.01,-464.86 580.1,-471.14"/>
</g>
<!-- 0 at pos (0.0, 0.05, 0.0)? -->
<g id="node3" class="node">
<title>0 at pos (0.0, 0.05, 0.0)?</title>
<ellipse fill="gray" stroke="black" cx="60.04" cy="-378" rx="60.09" ry="18"/>
<text text-anchor="middle" x="60.04" y="-375.8" font-family="Times,serif" font-size="9.00">0 at pos (0.0, 0.05, 0.0)?</text>
</g>
<!-- Fallback&#45;&gt;0 at pos (0.0, 0.05, 0.0)? -->
<g id="edge2" class="edge">
<title>Fallback&#45;&gt;0 at pos (0.0, 0.05, 0.0)?</title>
<path fill="none" stroke="black" d="M152.28,-436.65C136.12,-426.55 112.92,-412.05 93.82,-400.11"/>
<polygon fill="black" stroke="black" points="95.44,-397 85.11,-394.66 91.73,-402.93 95.44,-397"/>
</g>
<!-- Sequence* -->
<g id="node4" class="node">
<title>Sequence*</title>
<polygon fill="cyan" stroke="black" points="206.29,-370.54 206.29,-385.46 186.23,-396 157.86,-396 137.8,-385.46 137.8,-370.54 157.86,-360 186.23,-360 206.29,-370.54"/>
<text text-anchor="middle" x="172.04" y="-375.8" font-family="Times,serif" font-size="9.00">Sequence*</text>
</g>
<!-- Fallback&#45;&gt;Sequence* -->
<g id="edge3" class="edge">
<title>Fallback&#45;&gt;Sequence*</title>
<path fill="none" stroke="black" d="M172.04,-431.7C172.04,-423.98 172.04,-414.71 172.04,-406.11"/>
<polygon fill="black" stroke="black" points="175.54,-406.1 172.04,-396.1 168.54,-406.1 175.54,-406.1"/>
</g>
<!-- pick 0! -->
<g id="node5" class="node">
<title>pick 0!</title>
<ellipse fill="gray" stroke="black" cx="61.04" cy="-306" rx="27" ry="18"/>
<text text-anchor="middle" x="61.04" y="-303.8" font-family="Times,serif" font-size="9.00">pick 0!</text>
</g>
<!-- Sequence*&#45;&gt;pick 0! -->
<g id="edge4" class="edge">
<title>Sequence*&#45;&gt;pick 0!</title>
<path fill="none" stroke="black" d="M150.64,-363.5C133.02,-352.39 107.91,-336.56 88.76,-324.48"/>
<polygon fill="black" stroke="black" points="90.48,-321.43 80.16,-319.05 86.75,-327.35 90.48,-321.43"/>
</g>
<!-- place at (0.0, 0.05, 0.0)! -->
<g id="node6" class="node">
<title>place at (0.0, 0.05, 0.0)!</title>
<ellipse fill="gray" stroke="black" cx="164.04" cy="-306" rx="58.13" ry="18"/>
<text text-anchor="middle" x="164.04" y="-303.8" font-family="Times,serif" font-size="9.00">place at (0.0, 0.05, 0.0)!</text>
</g>
<!-- Sequence*&#45;&gt;place at (0.0, 0.05, 0.0)! -->
<g id="edge5" class="edge">
<title>Sequence*&#45;&gt;place at (0.0, 0.05, 0.0)!</title>
<path fill="none" stroke="black" d="M170.07,-359.7C169.19,-351.98 168.13,-342.71 167.14,-334.11"/>
<polygon fill="black" stroke="black" points="170.61,-333.64 166,-324.1 163.66,-334.44 170.61,-333.64"/>
</g>
<!-- pick 0!* -->
<g id="node7" class="node">
<title>pick 0!*</title>
<ellipse fill="gray" stroke="black" cx="267.04" cy="-306" rx="27" ry="18"/>
<text text-anchor="middle" x="267.04" y="-303.8" font-family="Times,serif" font-size="9.00">pick 0!*</text>
</g>
<!-- Sequence*&#45;&gt;pick 0!* -->
<g id="edge6" class="edge">
<title>Sequence*&#45;&gt;pick 0!*</title>
<path fill="none" stroke="black" d="M191.73,-362.5C206.13,-351.89 225.79,-337.4 241.42,-325.88"/>
<polygon fill="black" stroke="black" points="243.65,-328.59 249.62,-319.84 239.49,-322.95 243.65,-328.59"/>
</g>
<!-- 1 at pos (0.0, 0.05, 0.0192)? -->
<g id="node9" class="node">
<title>1 at pos (0.0, 0.05, 0.0192)?</title>
<ellipse fill="gray" stroke="black" cx="308.04" cy="-378" rx="67.6" ry="18"/>
<text text-anchor="middle" x="308.04" y="-375.8" font-family="Times,serif" font-size="9.00">1 at pos (0.0, 0.05, 0.0192)?</text>
</g>
<!-- Fallback*&#45;&gt;1 at pos (0.0, 0.05, 0.0192)? -->
<g id="edge8" class="edge">
<title>Fallback*&#45;&gt;1 at pos (0.0, 0.05, 0.0192)?</title>
<path fill="none" stroke="black" d="M404.95,-436.49C387.74,-426.28 363.07,-411.64 342.93,-399.7"/>
<polygon fill="black" stroke="black" points="344.71,-396.68 334.33,-394.59 341.14,-402.7 344.71,-396.68"/>
</g>
<!-- Sequence** -->
<g id="node10" class="node">
<title>Sequence**</title>
<polygon fill="cyan" stroke="black" points="466.79,-370.54 466.79,-385.46 445.26,-396 414.83,-396 393.3,-385.46 393.3,-370.54 414.83,-360 445.26,-360 466.79,-370.54"/>
<text text-anchor="middle" x="430.04" y="-375.8" font-family="Times,serif" font-size="9.00">Sequence**</text>
</g>
<!-- Fallback*&#45;&gt;Sequence** -->
<g id="edge9" class="edge">
<title>Fallback*&#45;&gt;Sequence**</title>
<path fill="none" stroke="black" d="M427.03,-431.7C427.47,-423.98 428,-414.71 428.5,-406.11"/>
<polygon fill="black" stroke="black" points="431.99,-406.29 429.07,-396.1 425,-405.89 431.99,-406.29"/>
</g>
<!-- Fallback** -->
<g id="node11" class="node">
<title>Fallback**</title>
<polygon fill="cyan" stroke="black" points="382.04,-298.54 382.04,-313.46 361.54,-324 332.55,-324 312.05,-313.46 312.05,-298.54 332.55,-288 361.54,-288 382.04,-298.54"/>
<text text-anchor="middle" x="347.04" y="-303.8" font-family="Times,serif" font-size="9.00">Fallback**</text>
</g>
<!-- Sequence**&#45;&gt;Fallback** -->
<g id="edge10" class="edge">
<title>Sequence**&#45;&gt;Fallback**</title>
<path fill="none" stroke="black" d="M411.62,-361.46C400.26,-351.88 385.52,-339.45 372.99,-328.88"/>
<polygon fill="black" stroke="black" points="375.03,-326.02 365.13,-322.25 370.52,-331.37 375.03,-326.02"/>
</g>
<!-- apply force 1! -->
<g id="node21" class="node">
<title>apply force 1!</title>
<ellipse fill="gray" stroke="black" cx="438.04" cy="-306" rx="38.21" ry="18"/>
<text text-anchor="middle" x="438.04" y="-303.8" font-family="Times,serif" font-size="9.00">apply force 1!</text>
</g>
<!-- Sequence**&#45;&gt;apply force 1! -->
<g id="edge20" class="edge">
<title>Sequence**&#45;&gt;apply force 1!</title>
<path fill="none" stroke="black" d="M432.02,-359.7C432.9,-351.98 433.96,-342.71 434.95,-334.11"/>
<polygon fill="black" stroke="black" points="438.43,-334.44 436.09,-324.1 431.48,-333.64 438.43,-334.44"/>
</g>
<!-- 1 on 0? -->
<g id="node12" class="node">
<title>1 on 0?</title>
<ellipse fill="gray" stroke="black" cx="233.04" cy="-234" rx="27" ry="18"/>
<text text-anchor="middle" x="233.04" y="-231.8" font-family="Times,serif" font-size="9.00">1 on 0?</text>
</g>
<!-- Fallback**&#45;&gt;1 on 0? -->
<g id="edge11" class="edge">
<title>Fallback**&#45;&gt;1 on 0?</title>
<path fill="none" stroke="black" d="M325.33,-291.67C307.07,-280.45 280.84,-264.35 261.01,-252.17"/>
<polygon fill="black" stroke="black" points="262.75,-249.13 252.4,-246.88 259.09,-255.1 262.75,-249.13"/>
</g>
<!-- Sequence*** -->
<g id="node13" class="node">
<title>Sequence***</title>
<polygon fill="cyan" stroke="black" points="358.03,-226.54 358.03,-241.46 334.61,-252 301.48,-252 278.05,-241.46 278.05,-226.54 301.48,-216 334.61,-216 358.03,-226.54"/>
<text text-anchor="middle" x="318.04" y="-231.8" font-family="Times,serif" font-size="9.00">Sequence***</text>
</g>
<!-- Fallback**&#45;&gt;Sequence*** -->
<g id="edge12" class="edge">
<title>Fallback**&#45;&gt;Sequence***</title>
<path fill="none" stroke="black" d="M339.88,-287.7C336.61,-279.81 332.67,-270.3 329.04,-261.55"/>
<polygon fill="black" stroke="black" points="332.19,-260 325.13,-252.1 325.72,-262.68 332.19,-260"/>
</g>
<!-- Sequence**** -->
<g id="node16" class="node">
<title>Sequence****</title>
<polygon fill="cyan" stroke="black" points="460.53,-226.54 460.53,-241.46 435.64,-252 400.44,-252 375.56,-241.46 375.56,-226.54 400.44,-216 435.64,-216 460.53,-226.54"/>
<text text-anchor="middle" x="418.04" y="-231.8" font-family="Times,serif" font-size="9.00">Sequence****</text>
</g>
<!-- Fallback**&#45;&gt;Sequence**** -->
<g id="edge15" class="edge">
<title>Fallback**&#45;&gt;Sequence****</title>
<path fill="none" stroke="black" d="M363.51,-288.76C372.39,-280.01 383.53,-269.03 393.41,-259.28"/>
<polygon fill="black" stroke="black" points="396.01,-261.64 400.68,-252.12 391.1,-256.65 396.01,-261.64"/>
</g>
<!-- pick 1! -->
<g id="node14" class="node">
<title>pick 1!</title>
<ellipse fill="gray" stroke="black" cx="241.04" cy="-162" rx="27" ry="18"/>
<text text-anchor="middle" x="241.04" y="-159.8" font-family="Times,serif" font-size="9.00">pick 1!</text>
</g>
<!-- Sequence***&#45;&gt;pick 1! -->
<g id="edge13" class="edge">
<title>Sequence***&#45;&gt;pick 1!</title>
<path fill="none" stroke="black" d="M299.8,-216.41C289.03,-206.62 275.31,-194.15 263.83,-183.72"/>
<polygon fill="black" stroke="black" points="266.06,-181.02 256.31,-176.88 261.36,-186.19 266.06,-181.02"/>
</g>
<!-- place on 0! -->
<g id="node15" class="node">
<title>place on 0!</title>
<ellipse fill="gray" stroke="black" cx="318.04" cy="-162" rx="32.16" ry="18"/>
<text text-anchor="middle" x="318.04" y="-159.8" font-family="Times,serif" font-size="9.00">place on 0!</text>
</g>
<!-- Sequence***&#45;&gt;place on 0! -->
<g id="edge14" class="edge">
<title>Sequence***&#45;&gt;place on 0!</title>
<path fill="none" stroke="black" d="M318.04,-215.7C318.04,-207.98 318.04,-198.71 318.04,-190.11"/>
<polygon fill="black" stroke="black" points="321.54,-190.1 318.04,-180.1 314.54,-190.1 321.54,-190.1"/>
</g>
<!-- Fallback*** -->
<g id="node17" class="node">
<title>Fallback***</title>
<polygon fill="cyan" stroke="black" points="443.53,-154.54 443.53,-169.46 421.57,-180 390.52,-180 368.55,-169.46 368.55,-154.54 390.52,-144 421.57,-144 443.53,-154.54"/>
<text text-anchor="middle" x="406.04" y="-159.8" font-family="Times,serif" font-size="9.00">Fallback***</text>
</g>
<!-- Sequence****&#45;&gt;Fallback*** -->
<g id="edge16" class="edge">
<title>Sequence****&#45;&gt;Fallback***</title>
<path fill="none" stroke="black" d="M415.08,-215.7C413.76,-207.98 412.17,-198.71 410.69,-190.11"/>
<polygon fill="black" stroke="black" points="414.12,-189.37 408.98,-180.1 407.22,-190.55 414.12,-189.37"/>
</g>
<!-- place on 0!* -->
<g id="node20" class="node">
<title>place on 0!*</title>
<ellipse fill="gray" stroke="black" cx="496.04" cy="-162" rx="34.78" ry="18"/>
<text text-anchor="middle" x="496.04" y="-159.8" font-family="Times,serif" font-size="9.00">place on 0!*</text>
</g>
<!-- Sequence****&#45;&gt;place on 0!* -->
<g id="edge19" class="edge">
<title>Sequence****&#45;&gt;place on 0!*</title>
<path fill="none" stroke="black" d="M436.93,-216.05C447.37,-206.68 460.48,-194.92 471.69,-184.86"/>
<polygon fill="black" stroke="black" points="474.35,-187.17 479.45,-177.89 469.67,-181.96 474.35,-187.17"/>
</g>
<!-- picked 1? -->
<g id="node18" class="node">
<title>picked 1?</title>
<ellipse fill="gray" stroke="black" cx="351.04" cy="-90" rx="28.74" ry="18"/>
<text text-anchor="middle" x="351.04" y="-87.8" font-family="Times,serif" font-size="9.00">picked 1?</text>
</g>
<!-- Fallback***&#45;&gt;picked 1? -->
<g id="edge17" class="edge">
<title>Fallback***&#45;&gt;picked 1?</title>
<path fill="none" stroke="black" d="M392.45,-143.7C385.56,-134.93 377.09,-124.15 369.61,-114.63"/>
<polygon fill="black" stroke="black" points="372.29,-112.37 363.36,-106.67 366.78,-116.7 372.29,-112.37"/>
</g>
<!-- pick 1!* -->
<g id="node19" class="node">
<title>pick 1!*</title>
<ellipse fill="gray" stroke="black" cx="425.04" cy="-90" rx="27" ry="18"/>
<text text-anchor="middle" x="425.04" y="-87.8" font-family="Times,serif" font-size="9.00">pick 1!*</text>
</g>
<!-- Fallback***&#45;&gt;pick 1!* -->
<g id="edge18" class="edge">
<title>Fallback***&#45;&gt;pick 1!*</title>
<path fill="none" stroke="black" d="M410.74,-143.7C412.86,-135.9 415.41,-126.51 417.76,-117.83"/>
<polygon fill="black" stroke="black" points="421.16,-118.67 420.4,-108.1 414.4,-116.84 421.16,-118.67"/>
</g>
<!-- 2 on 1? -->
<g id="node23" class="node">
<title>2 on 1?</title>
<ellipse fill="gray" stroke="black" cx="516.04" cy="-378" rx="27" ry="18"/>
<text text-anchor="middle" x="516.04" y="-375.8" font-family="Times,serif" font-size="9.00">2 on 1?</text>
</g>
<!-- Fallback****&#45;&gt;2 on 1? -->
<g id="edge22" class="edge">
<title>Fallback****&#45;&gt;2 on 1?</title>
<path fill="none" stroke="black" d="M516.04,-431.7C516.04,-423.98 516.04,-414.71 516.04,-406.11"/>
<polygon fill="black" stroke="black" points="519.54,-406.1 516.04,-396.1 512.54,-406.1 519.54,-406.1"/>
</g>
<!-- Sequence***** -->
<g id="node24" class="node">
<title>Sequence*****</title>
<polygon fill="cyan" stroke="black" points="676.78,-370.54 676.78,-385.46 649.99,-396 612.1,-396 585.31,-385.46 585.31,-370.54 612.1,-360 649.99,-360 676.78,-370.54"/>
<text text-anchor="middle" x="631.04" y="-375.8" font-family="Times,serif" font-size="9.00">Sequence*****</text>
</g>
<!-- Fallback****&#45;&gt;Sequence***** -->
<g id="edge23" class="edge">
<title>Fallback****&#45;&gt;Sequence*****</title>
<path fill="none" stroke="black" d="M539.59,-434.67C556.31,-424.49 578.99,-410.69 597.58,-399.37"/>
<polygon fill="black" stroke="black" points="599.61,-402.23 606.33,-394.04 595.97,-396.25 599.61,-402.23"/>
</g>
<!-- Fallback***** -->
<g id="node25" class="node">
<title>Fallback*****</title>
<polygon fill="cyan" stroke="black" points="609.28,-298.54 609.28,-313.46 583.95,-324 548.13,-324 522.81,-313.46 522.81,-298.54 548.13,-288 583.95,-288 609.28,-298.54"/>
<text text-anchor="middle" x="566.04" y="-303.8" font-family="Times,serif" font-size="9.00">Fallback*****</text>
</g>
<!-- Sequence*****&#45;&gt;Fallback***** -->
<g id="edge24" class="edge">
<title>Sequence*****&#45;&gt;Fallback*****</title>
<path fill="none" stroke="black" d="M614.98,-359.7C607.11,-351.22 597.49,-340.86 588.87,-331.58"/>
<polygon fill="black" stroke="black" points="591.3,-329.05 581.93,-324.1 586.17,-333.81 591.3,-329.05"/>
</g>
<!-- pick 2! -->
<g id="node38" class="node">
<title>pick 2!</title>
<ellipse fill="gray" stroke="black" cx="654.04" cy="-306" rx="27" ry="18"/>
<text text-anchor="middle" x="654.04" y="-303.8" font-family="Times,serif" font-size="9.00">pick 2!</text>
</g>
<!-- Sequence*****&#45;&gt;pick 2! -->
<g id="edge37" class="edge">
<title>Sequence*****&#45;&gt;pick 2!</title>
<path fill="none" stroke="black" d="M636.73,-359.7C639.29,-351.9 642.38,-342.51 645.23,-333.83"/>
<polygon fill="black" stroke="black" points="648.63,-334.7 648.42,-324.1 641.98,-332.51 648.63,-334.7"/>
</g>
<!-- place on 1! -->
<g id="node39" class="node">
<title>place on 1!</title>
<ellipse fill="gray" stroke="black" cx="731.04" cy="-306" rx="32.16" ry="18"/>
<text text-anchor="middle" x="731.04" y="-303.8" font-family="Times,serif" font-size="9.00">place on 1!</text>
</g>
<!-- Sequence*****&#45;&gt;place on 1! -->
<g id="edge38" class="edge">
<title>Sequence*****&#45;&gt;place on 1!</title>
<path fill="none" stroke="black" d="M653.74,-361.12C668.42,-350.84 687.64,-337.39 703.24,-326.47"/>
<polygon fill="black" stroke="black" points="705.29,-329.3 711.48,-320.7 701.28,-323.56 705.29,-329.3"/>
</g>
<!-- 0 at pos (0.0, 0.05, 0.0)?* -->
<g id="node26" class="node">
<title>0 at pos (0.0, 0.05, 0.0)?*</title>
<ellipse fill="gray" stroke="black" cx="566.04" cy="-234" rx="62.21" ry="18"/>
<text text-anchor="middle" x="566.04" y="-231.8" font-family="Times,serif" font-size="9.00">0 at pos (0.0, 0.05, 0.0)?*</text>
</g>
<!-- Fallback*****&#45;&gt;0 at pos (0.0, 0.05, 0.0)?* -->
<g id="edge25" class="edge">
<title>Fallback*****&#45;&gt;0 at pos (0.0, 0.05, 0.0)?*</title>
<path fill="none" stroke="black" d="M566.04,-287.7C566.04,-279.98 566.04,-270.71 566.04,-262.11"/>
<polygon fill="black" stroke="black" points="569.54,-262.1 566.04,-252.1 562.54,-262.1 569.54,-262.1"/>
</g>
<!-- Sequence****** -->
<g id="node27" class="node">
<title>Sequence******</title>
<polygon fill="cyan" stroke="black" points="755.28,-226.54 755.28,-241.46 727.03,-252 687.06,-252 658.81,-241.46 658.81,-226.54 687.06,-216 727.03,-216 755.28,-226.54"/>
<text text-anchor="middle" x="707.04" y="-231.8" font-family="Times,serif" font-size="9.00">Sequence******</text>
</g>
<!-- Fallback*****&#45;&gt;Sequence****** -->
<g id="edge26" class="edge">
<title>Fallback*****&#45;&gt;Sequence******</title>
<path fill="none" stroke="black" d="M592.9,-291.67C614.62,-280.88 645.47,-265.57 669.62,-253.58"/>
<polygon fill="black" stroke="black" points="671.44,-256.58 678.84,-249 668.33,-250.31 671.44,-256.58"/>
</g>
<!-- Fallback****** -->
<g id="node28" class="node">
<title>Fallback******</title>
<polygon fill="cyan" stroke="black" points="641.53,-154.54 641.53,-169.46 614.3,-180 575.79,-180 548.56,-169.46 548.56,-154.54 575.79,-144 614.3,-144 641.53,-154.54"/>
<text text-anchor="middle" x="595.04" y="-159.8" font-family="Times,serif" font-size="9.00">Fallback******</text>
</g>
<!-- Sequence******&#45;&gt;Fallback****** -->
<g id="edge27" class="edge">
<title>Sequence******&#45;&gt;Fallback******</title>
<path fill="none" stroke="black" d="M682.47,-217.64C666.56,-207.7 645.66,-194.64 628.29,-183.78"/>
<polygon fill="black" stroke="black" points="629.9,-180.66 619.57,-178.33 626.19,-186.59 629.9,-180.66"/>
</g>
<!-- place at (0.0, 0.05, 0.0)!* -->
<g id="node31" class="node">
<title>place at (0.0, 0.05, 0.0)!*</title>
<ellipse fill="gray" stroke="black" cx="720.04" cy="-162" rx="61.4" ry="18"/>
<text text-anchor="middle" x="720.04" y="-159.8" font-family="Times,serif" font-size="9.00">place at (0.0, 0.05, 0.0)!*</text>
</g>
<!-- Sequence******&#45;&gt;place at (0.0, 0.05, 0.0)!* -->
<g id="edge30" class="edge">
<title>Sequence******&#45;&gt;place at (0.0, 0.05, 0.0)!*</title>
<path fill="none" stroke="black" d="M710.26,-215.7C711.69,-207.98 713.41,-198.71 715.01,-190.11"/>
<polygon fill="black" stroke="black" points="718.48,-190.58 716.87,-180.1 711.6,-189.3 718.48,-190.58"/>
</g>
<!-- Fallback******* -->
<g id="node32" class="node">
<title>Fallback*******</title>
<polygon fill="cyan" stroke="black" points="897.03,-154.54 897.03,-169.46 868.34,-180 827.75,-180 799.06,-169.46 799.06,-154.54 827.75,-144 868.34,-144 897.03,-154.54"/>
<text text-anchor="middle" x="848.04" y="-159.8" font-family="Times,serif" font-size="9.00">Fallback*******</text>
</g>
<!-- Sequence******&#45;&gt;Fallback******* -->
<g id="edge31" class="edge">
<title>Sequence******&#45;&gt;Fallback*******</title>
<path fill="none" stroke="black" d="M735.24,-219C756.81,-208.3 786.76,-193.43 810.38,-181.7"/>
<polygon fill="black" stroke="black" points="812.01,-184.79 819.42,-177.21 808.9,-178.52 812.01,-184.79"/>
</g>
<!-- picked 0? -->
<g id="node29" class="node">
<title>picked 0?</title>
<ellipse fill="gray" stroke="black" cx="522.04" cy="-90" rx="28.74" ry="18"/>
<text text-anchor="middle" x="522.04" y="-87.8" font-family="Times,serif" font-size="9.00">picked 0?</text>
</g>
<!-- Fallback******&#45;&gt;picked 0? -->
<g id="edge28" class="edge">
<title>Fallback******&#45;&gt;picked 0?</title>
<path fill="none" stroke="black" d="M577,-143.7C567.31,-134.41 555.26,-122.86 544.92,-112.94"/>
<polygon fill="black" stroke="black" points="547.05,-110.13 537.41,-105.74 542.21,-115.19 547.05,-110.13"/>
</g>
<!-- pick 0!** -->
<g id="node30" class="node">
<title>pick 0!**</title>
<ellipse fill="gray" stroke="black" cx="598.04" cy="-90" rx="28.74" ry="18"/>
<text text-anchor="middle" x="598.04" y="-87.8" font-family="Times,serif" font-size="9.00">pick 0!**</text>
</g>
<!-- Fallback******&#45;&gt;pick 0!** -->
<g id="edge29" class="edge">
<title>Fallback******&#45;&gt;pick 0!**</title>
<path fill="none" stroke="black" d="M595.79,-143.7C596.12,-135.98 596.51,-126.71 596.88,-118.11"/>
<polygon fill="black" stroke="black" points="600.38,-118.25 597.31,-108.1 593.39,-117.95 600.38,-118.25"/>
</g>
<!-- 0 at pos (0.0, 0.05, 0.0)?** -->
<g id="node33" class="node">
<title>0 at pos (0.0, 0.05, 0.0)?**</title>
<ellipse fill="gray" stroke="black" cx="714.04" cy="-90" rx="65.48" ry="18"/>
<text text-anchor="middle" x="714.04" y="-87.8" font-family="Times,serif" font-size="9.00">0 at pos (0.0, 0.05, 0.0)?**</text>
</g>
<!-- Fallback*******&#45;&gt;0 at pos (0.0, 0.05, 0.0)?** -->
<g id="edge32" class="edge">
<title>Fallback*******&#45;&gt;0 at pos (0.0, 0.05, 0.0)?**</title>
<path fill="none" stroke="black" d="M820.28,-146.5C800.56,-136.19 773.84,-122.23 752.13,-110.89"/>
<polygon fill="black" stroke="black" points="753.65,-107.74 743.16,-106.21 750.41,-113.94 753.65,-107.74"/>
</g>
<!-- Sequence******* -->
<g id="node34" class="node">
<title>Sequence*******</title>
<polygon fill="cyan" stroke="black" points="899.53,-82.54 899.53,-97.46 869.37,-108 826.72,-108 796.56,-97.46 796.56,-82.54 826.72,-72 869.37,-72 899.53,-82.54"/>
<text text-anchor="middle" x="848.04" y="-87.8" font-family="Times,serif" font-size="9.00">Sequence*******</text>
</g>
<!-- Fallback*******&#45;&gt;Sequence******* -->
<g id="edge33" class="edge">
<title>Fallback*******&#45;&gt;Sequence*******</title>
<path fill="none" stroke="black" d="M848.04,-143.7C848.04,-135.98 848.04,-126.71 848.04,-118.11"/>
<polygon fill="black" stroke="black" points="851.54,-118.1 848.04,-108.1 844.54,-118.1 851.54,-118.1"/>
</g>
<!-- 1 at pos (0.0, 0.05, 0.0192)?* -->
<g id="node37" class="node">
<title>1 at pos (0.0, 0.05, 0.0192)?*</title>
<ellipse fill="gray" stroke="black" cx="988.04" cy="-90" rx="70.37" ry="18"/>
<text text-anchor="middle" x="988.04" y="-87.8" font-family="Times,serif" font-size="9.00">1 at pos (0.0, 0.05, 0.0192)?*</text>
</g>
<!-- Fallback*******&#45;&gt;1 at pos (0.0, 0.05, 0.0192)?* -->
<g id="edge36" class="edge">
<title>Fallback*******&#45;&gt;1 at pos (0.0, 0.05, 0.0192)?*</title>
<path fill="none" stroke="black" d="M876.38,-146.83C897.02,-136.51 925.27,-122.39 948.19,-110.93"/>
<polygon fill="black" stroke="black" points="949.95,-113.96 957.33,-106.36 946.82,-107.7 949.95,-113.96"/>
</g>
<!-- pick 0!*** -->
<g id="node35" class="node">
<title>pick 0!***</title>
<ellipse fill="gray" stroke="black" cx="791.04" cy="-18" rx="31.51" ry="18"/>
<text text-anchor="middle" x="791.04" y="-15.8" font-family="Times,serif" font-size="9.00">pick 0!***</text>
</g>
<!-- Sequence*******&#45;&gt;pick 0!*** -->
<g id="edge34" class="edge">
<title>Sequence*******&#45;&gt;pick 0!***</title>
<path fill="none" stroke="black" d="M833.95,-71.7C826.82,-62.93 818.04,-52.15 810.29,-42.63"/>
<polygon fill="black" stroke="black" points="812.83,-40.22 803.81,-34.67 807.41,-44.64 812.83,-40.22"/>
</g>
<!-- place at (0.0, 0.05, 0.0)!** -->
<g id="node36" class="node">
<title>place at (0.0, 0.05, 0.0)!**</title>
<ellipse fill="gray" stroke="black" cx="904.04" cy="-18" rx="63.52" ry="18"/>
<text text-anchor="middle" x="904.04" y="-15.8" font-family="Times,serif" font-size="9.00">place at (0.0, 0.05, 0.0)!**</text>
</g>
<!-- Sequence*******&#45;&gt;place at (0.0, 0.05, 0.0)!** -->
<g id="edge35" class="edge">
<title>Sequence*******&#45;&gt;place at (0.0, 0.05, 0.0)!**</title>
<path fill="none" stroke="black" d="M861.89,-71.7C868.7,-63.18 877.03,-52.76 884.48,-43.45"/>
<polygon fill="black" stroke="black" points="887.23,-45.62 890.75,-35.62 881.77,-41.24 887.23,-45.62"/>
</g>
</g>
</svg>
