<?xml version="1.0" encoding="UTF-8" standalone="no"?>
<!DOCTYPE svg PUBLIC "-//W3C//DTD SVG 1.1//EN"
 "http://www.w3.org/Graphics/SVG/1.1/DTD/svg11.dtd">
<!-- Generated by graphviz version 2.43.0 (0)
 -->
<!-- Title: pastafarianism Pages: 1 -->
<svg width="1720pt" height="404pt"
 viewBox="0.00 0.00 1719.69 404.00" xmlns="http://www.w3.org/2000/svg" xmlns:xlink="http://www.w3.org/1999/xlink">
<g id="graph0" class="graph" transform="scale(1 1) rotate(0) translate(4 400)">
<title>pastafarianism</title>
<polygon fill="white" stroke="transparent" points="-4,4 -4,-400 1715.69,-400 1715.69,4 -4,4"/>
<!-- Fallback -->
<g id="node1" class="node">
<title>Fallback</title>
<polygon fill="cyan" stroke="black" points="564.9,-370.54 564.9,-385.46 547.76,-396 523.54,-396 506.41,-385.46 506.41,-370.54 523.54,-360 547.76,-360 564.9,-370.54"/>
<text text-anchor="middle" x="535.65" y="-375.8" font-family="Times,serif" font-size="9.00">Fallback</text>
</g>
<!-- ReachGoal? -->
<g id="node2" class="node">
<title>ReachGoal?</title>
<ellipse fill="gray" stroke="black" cx="412.65" cy="-306" rx="34.13" ry="18"/>
<text text-anchor="middle" x="412.65" y="-303.8" font-family="Times,serif" font-size="9.00">ReachGoal?</text>
</g>
<!-- Fallback&#45;&gt;ReachGoal? -->
<g id="edge1" class="edge">
<title>Fallback&#45;&gt;ReachGoal?</title>
<path fill="none" stroke="black" d="M514.79,-365.13C495.39,-354.09 466.23,-337.49 444.03,-324.86"/>
<polygon fill="black" stroke="black" points="445.71,-321.79 435.29,-319.88 442.25,-327.87 445.71,-321.79"/>
</g>
<!-- LkGraph? -->
<g id="node3" class="node">
<title>LkGraph?</title>
<ellipse fill="gray" stroke="black" cx="495.65" cy="-306" rx="30.7" ry="18"/>
<text text-anchor="middle" x="495.65" y="-303.8" font-family="Times,serif" font-size="9.00">LkGraph?</text>
</g>
<!-- Fallback&#45;&gt;LkGraph? -->
<g id="edge2" class="edge">
<title>Fallback&#45;&gt;LkGraph?</title>
<path fill="none" stroke="black" d="M525.76,-359.7C521.09,-351.52 515.43,-341.6 510.27,-332.58"/>
<polygon fill="black" stroke="black" points="513.15,-330.57 505.15,-323.62 507.07,-334.04 513.15,-330.57"/>
</g>
<!-- Sequence -->
<g id="node4" class="node">
<title>Sequence</title>
<polygon fill="cyan" stroke="black" points="607.15,-298.54 607.15,-313.46 588.7,-324 562.61,-324 544.16,-313.46 544.16,-298.54 562.61,-288 588.7,-288 607.15,-298.54"/>
<text text-anchor="middle" x="575.65" y="-303.8" font-family="Times,serif" font-size="9.00">Sequence</text>
</g>
<!-- Fallback&#45;&gt;Sequence -->
<g id="edge3" class="edge">
<title>Fallback&#45;&gt;Sequence</title>
<path fill="none" stroke="black" d="M545.54,-359.7C550.14,-351.64 555.71,-341.89 560.81,-332.98"/>
<polygon fill="black" stroke="black" points="563.96,-334.52 565.88,-324.1 557.88,-331.05 563.96,-334.52"/>
</g>
<!-- Sequence* -->
<g id="node8" class="node">
<title>Sequence*</title>
<polygon fill="cyan" stroke="black" points="796.89,-298.54 796.89,-313.46 776.84,-324 748.47,-324 728.41,-313.46 728.41,-298.54 748.47,-288 776.84,-288 796.89,-298.54"/>
<text text-anchor="middle" x="762.65" y="-303.8" font-family="Times,serif" font-size="9.00">Sequence*</text>
</g>
<!-- Fallback&#45;&gt;Sequence* -->
<g id="edge7" class="edge">
<title>Fallback&#45;&gt;Sequence*</title>
<path fill="none" stroke="black" d="M562.14,-368.83C601.91,-356.57 677.3,-333.32 723.45,-319.09"/>
<polygon fill="black" stroke="black" points="724.59,-322.4 733.11,-316.11 722.53,-315.71 724.59,-322.4"/>
</g>
<!-- ReachGoal?* -->
<g id="node5" class="node">
<title>ReachGoal?*</title>
<ellipse fill="gray" stroke="black" cx="444.65" cy="-234" rx="36.9" ry="18"/>
<text text-anchor="middle" x="444.65" y="-231.8" font-family="Times,serif" font-size="9.00">ReachGoal?*</text>
</g>
<!-- Sequence&#45;&gt;ReachGoal?* -->
<g id="edge4" class="edge">
<title>Sequence&#45;&gt;ReachGoal?*</title>
<path fill="none" stroke="black" d="M553.43,-293.13C532.68,-282.04 501.44,-265.34 477.75,-252.69"/>
<polygon fill="black" stroke="black" points="479.23,-249.51 468.76,-247.88 475.93,-255.68 479.23,-249.51"/>
</g>
<!-- MoveTo! -->
<g id="node6" class="node">
<title>MoveTo!</title>
<ellipse fill="gray" stroke="black" cx="528.65" cy="-234" rx="28.74" ry="18"/>
<text text-anchor="middle" x="528.65" y="-231.8" font-family="Times,serif" font-size="9.00">MoveTo!</text>
</g>
<!-- Sequence&#45;&gt;MoveTo! -->
<g id="edge5" class="edge">
<title>Sequence&#45;&gt;MoveTo!</title>
<path fill="none" stroke="black" d="M564.03,-287.7C558.35,-279.23 551.4,-268.89 545.18,-259.61"/>
<polygon fill="black" stroke="black" points="547.97,-257.5 539.49,-251.14 542.16,-261.4 547.97,-257.5"/>
</g>
<!-- NotReadyForSG? -->
<g id="node7" class="node">
<title>NotReadyForSG?</title>
<ellipse fill="gray" stroke="black" cx="622.65" cy="-234" rx="46.53" ry="18"/>
<text text-anchor="middle" x="622.65" y="-231.8" font-family="Times,serif" font-size="9.00">NotReadyForSG?</text>
</g>
<!-- Sequence&#45;&gt;NotReadyForSG? -->
<g id="edge6" class="edge">
<title>Sequence&#45;&gt;NotReadyForSG?</title>
<path fill="none" stroke="black" d="M587.27,-287.7C592.87,-279.35 599.7,-269.18 605.86,-260.02"/>
<polygon fill="black" stroke="black" points="608.82,-261.88 611.49,-251.62 603.01,-257.97 608.82,-261.88"/>
</g>
<!-- Fallback* -->
<g id="node9" class="node">
<title>Fallback*</title>
<polygon fill="cyan" stroke="black" points="751.39,-226.54 751.39,-241.46 732.8,-252 706.5,-252 687.91,-241.46 687.91,-226.54 706.5,-216 732.8,-216 751.39,-226.54"/>
<text text-anchor="middle" x="719.65" y="-231.8" font-family="Times,serif" font-size="9.00">Fallback*</text>
</g>
<!-- Sequence*&#45;&gt;Fallback* -->
<g id="edge8" class="edge">
<title>Sequence*&#45;&gt;Fallback*</title>
<path fill="none" stroke="black" d="M752.02,-287.7C747.02,-279.56 740.96,-269.69 735.44,-260.7"/>
<polygon fill="black" stroke="black" points="738.38,-258.79 730.16,-252.1 732.41,-262.46 738.38,-258.79"/>
</g>
<!-- MoveTo!*** -->
<g id="node36" class="node">
<title>MoveTo!***</title>
<ellipse fill="gray" stroke="black" cx="806.65" cy="-234" rx="36.9" ry="18"/>
<text text-anchor="middle" x="806.65" y="-231.8" font-family="Times,serif" font-size="9.00">MoveTo!***</text>
</g>
<!-- Sequence*&#45;&gt;MoveTo!*** -->
<g id="edge35" class="edge">
<title>Sequence*&#45;&gt;MoveTo!***</title>
<path fill="none" stroke="black" d="M773.53,-287.7C778.72,-279.44 785.03,-269.39 790.75,-260.3"/>
<polygon fill="black" stroke="black" points="793.85,-261.95 796.2,-251.62 787.92,-258.23 793.85,-261.95"/>
</g>
<!-- Fallback**** -->
<g id="node37" class="node">
<title>Fallback****</title>
<polygon fill="cyan" stroke="black" points="1465.39,-226.54 1465.39,-241.46 1441.53,-252 1407.78,-252 1383.91,-241.46 1383.91,-226.54 1407.78,-216 1441.53,-216 1465.39,-226.54"/>
<text text-anchor="middle" x="1424.65" y="-231.8" font-family="Times,serif" font-size="9.00">Fallback****</text>
</g>
<!-- Sequence*&#45;&gt;Fallback**** -->
<g id="edge36" class="edge">
<title>Sequence*&#45;&gt;Fallback****</title>
<path fill="none" stroke="black" d="M797.31,-301.34C906.62,-289.78 1244.49,-254.05 1373.69,-240.39"/>
<polygon fill="black" stroke="black" points="1374.14,-243.86 1383.72,-239.33 1373.41,-236.9 1374.14,-243.86"/>
</g>
<!-- NotReadyForSG?* -->
<g id="node10" class="node">
<title>NotReadyForSG?*</title>
<ellipse fill="gray" stroke="black" cx="49.65" cy="-162" rx="49.8" ry="18"/>
<text text-anchor="middle" x="49.65" y="-159.8" font-family="Times,serif" font-size="9.00">NotReadyForSG?*</text>
</g>
<!-- Fallback*&#45;&gt;NotReadyForSG?* -->
<g id="edge9" class="edge">
<title>Fallback*&#45;&gt;NotReadyForSG?*</title>
<path fill="none" stroke="black" d="M696.24,-221.74C690.6,-219.47 684.51,-217.36 678.65,-216 431.39,-158.61 358.75,-223.4 108.65,-180 104.22,-179.23 99.65,-178.25 95.1,-177.16"/>
<polygon fill="black" stroke="black" points="95.8,-173.72 85.24,-174.6 94.04,-180.5 95.8,-173.72"/>
</g>
<!-- ReachGoal?** -->
<g id="node11" class="node">
<title>ReachGoal?**</title>
<ellipse fill="gray" stroke="black" cx="156.65" cy="-162" rx="39.02" ry="18"/>
<text text-anchor="middle" x="156.65" y="-159.8" font-family="Times,serif" font-size="9.00">ReachGoal?**</text>
</g>
<!-- Fallback*&#45;&gt;ReachGoal?** -->
<g id="edge10" class="edge">
<title>Fallback*&#45;&gt;ReachGoal?**</title>
<path fill="none" stroke="black" d="M696.23,-221.8C690.59,-219.52 684.5,-217.4 678.65,-216 473.16,-166.92 411.37,-223.65 204.65,-180 201.45,-179.32 198.17,-178.49 194.91,-177.55"/>
<polygon fill="black" stroke="black" points="195.82,-174.17 185.23,-174.51 193.72,-180.85 195.82,-174.17"/>
</g>
<!-- GetSubGoal! -->
<g id="node12" class="node">
<title>GetSubGoal!</title>
<ellipse fill="gray" stroke="black" cx="250.65" cy="-162" rx="36.9" ry="18"/>
<text text-anchor="middle" x="250.65" y="-159.8" font-family="Times,serif" font-size="9.00">GetSubGoal!</text>
</g>
<!-- Fallback*&#45;&gt;GetSubGoal! -->
<g id="edge11" class="edge">
<title>Fallback*&#45;&gt;GetSubGoal!</title>
<path fill="none" stroke="black" d="M695.78,-221.7C690.26,-219.48 684.34,-217.41 678.65,-216 513.15,-174.88 462.92,-217.88 296.65,-180 293.68,-179.32 290.63,-178.5 287.6,-177.59"/>
<polygon fill="black" stroke="black" points="288.62,-174.24 278.03,-174.44 286.43,-180.89 288.62,-174.24"/>
</g>
<!-- NotReadyForSG?** -->
<g id="node13" class="node">
<title>NotReadyForSG?**</title>
<ellipse fill="gray" stroke="black" cx="357.65" cy="-162" rx="51.92" ry="18"/>
<text text-anchor="middle" x="357.65" y="-159.8" font-family="Times,serif" font-size="9.00">NotReadyForSG?**</text>
</g>
<!-- Fallback*&#45;&gt;NotReadyForSG?** -->
<g id="edge12" class="edge">
<title>Fallback*&#45;&gt;NotReadyForSG?**</title>
<path fill="none" stroke="black" d="M695.73,-221.88C690.21,-219.66 684.3,-217.54 678.65,-216 566.08,-185.41 532.87,-203.71 418.65,-180 414.3,-179.1 409.79,-178.05 405.3,-176.94"/>
<polygon fill="black" stroke="black" points="406.09,-173.53 395.53,-174.4 404.33,-180.3 406.09,-173.53"/>
</g>
<!-- ReachGoal?*** -->
<g id="node14" class="node">
<title>ReachGoal?***</title>
<ellipse fill="gray" stroke="black" cx="469.65" cy="-162" rx="42.29" ry="18"/>
<text text-anchor="middle" x="469.65" y="-159.8" font-family="Times,serif" font-size="9.00">ReachGoal?***</text>
</g>
<!-- Fallback*&#45;&gt;ReachGoal?*** -->
<g id="edge13" class="edge">
<title>Fallback*&#45;&gt;ReachGoal?***</title>
<path fill="none" stroke="black" d="M695.19,-222.07C689.8,-219.88 684.09,-217.73 678.65,-216 610.03,-194.13 590.01,-199.41 520.65,-180 517.46,-179.11 514.17,-178.13 510.88,-177.12"/>
<polygon fill="black" stroke="black" points="511.65,-173.7 501.06,-174 509.53,-180.37 511.65,-173.7"/>
</g>
<!-- GetSubGoal!* -->
<g id="node15" class="node">
<title>GetSubGoal!*</title>
<ellipse fill="gray" stroke="black" cx="568.65" cy="-162" rx="39.02" ry="18"/>
<text text-anchor="middle" x="568.65" y="-159.8" font-family="Times,serif" font-size="9.00">GetSubGoal!*</text>
</g>
<!-- Fallback*&#45;&gt;GetSubGoal!* -->
<g id="edge14" class="edge">
<title>Fallback*&#45;&gt;GetSubGoal!*</title>
<path fill="none" stroke="black" d="M695.73,-221.91C671.14,-210.51 632.59,-192.64 604.39,-179.57"/>
<polygon fill="black" stroke="black" points="605.81,-176.37 595.26,-175.34 602.86,-182.72 605.81,-176.37"/>
</g>
<!-- GetSubGoal!** -->
<g id="node16" class="node">
<title>GetSubGoal!**</title>
<ellipse fill="gray" stroke="black" cx="667.65" cy="-162" rx="42.29" ry="18"/>
<text text-anchor="middle" x="667.65" y="-159.8" font-family="Times,serif" font-size="9.00">GetSubGoal!**</text>
</g>
<!-- Fallback*&#45;&gt;GetSubGoal!** -->
<g id="edge15" class="edge">
<title>Fallback*&#45;&gt;GetSubGoal!**</title>
<path fill="none" stroke="black" d="M706.8,-215.7C700.53,-207.27 692.89,-196.97 686.02,-187.73"/>
<polygon fill="black" stroke="black" points="688.77,-185.56 680,-179.62 683.15,-189.74 688.77,-185.56"/>
</g>
<!-- ReachGoal?**** -->
<g id="node17" class="node">
<title>ReachGoal?****</title>
<ellipse fill="gray" stroke="black" cx="772.65" cy="-162" rx="44.41" ry="18"/>
<text text-anchor="middle" x="772.65" y="-159.8" font-family="Times,serif" font-size="9.00">ReachGoal?****</text>
</g>
<!-- Fallback*&#45;&gt;ReachGoal?**** -->
<g id="edge16" class="edge">
<title>Fallback*&#45;&gt;ReachGoal?****</title>
<path fill="none" stroke="black" d="M732.75,-215.7C739.14,-207.27 746.93,-196.97 753.93,-187.73"/>
<polygon fill="black" stroke="black" points="756.82,-189.71 760.07,-179.62 751.24,-185.48 756.82,-189.71"/>
</g>
<!-- NotReadyForSG?*** -->
<g id="node18" class="node">
<title>NotReadyForSG?***</title>
<ellipse fill="gray" stroke="black" cx="889.65" cy="-162" rx="54.7" ry="18"/>
<text text-anchor="middle" x="889.65" y="-159.8" font-family="Times,serif" font-size="9.00">NotReadyForSG?***</text>
</g>
<!-- Fallback*&#45;&gt;NotReadyForSG?*** -->
<g id="edge17" class="edge">
<title>Fallback*&#45;&gt;NotReadyForSG?***</title>
<path fill="none" stroke="black" d="M744.8,-222.56C750.04,-220.39 755.52,-218.12 760.65,-216 789.63,-204.04 822.29,-190.62 847.49,-180.28"/>
<polygon fill="black" stroke="black" points="848.84,-183.51 856.77,-176.48 846.19,-177.03 848.84,-183.51"/>
</g>
<!-- LkGraph?* -->
<g id="node19" class="node">
<title>LkGraph?*</title>
<ellipse fill="gray" stroke="black" cx="995.65" cy="-162" rx="32.82" ry="18"/>
<text text-anchor="middle" x="995.65" y="-159.8" font-family="Times,serif" font-size="9.00">LkGraph?*</text>
</g>
<!-- Fallback*&#45;&gt;LkGraph?* -->
<g id="edge18" class="edge">
<title>Fallback*&#45;&gt;LkGraph?*</title>
<path fill="none" stroke="black" d="M743.63,-222.08C749.14,-219.84 755.04,-217.67 760.65,-216 844.3,-191.15 869.9,-204.49 953.65,-180 956.1,-179.29 958.59,-178.48 961.09,-177.62"/>
<polygon fill="black" stroke="black" points="962.46,-180.84 970.62,-174.08 960.03,-174.28 962.46,-180.84"/>
</g>
<!-- ReachGoal?***** -->
<g id="node20" class="node">
<title>ReachGoal?*****</title>
<ellipse fill="gray" stroke="black" cx="1093.65" cy="-162" rx="47.19" ry="18"/>
<text text-anchor="middle" x="1093.65" y="-159.8" font-family="Times,serif" font-size="9.00">ReachGoal?*****</text>
</g>
<!-- Fallback*&#45;&gt;ReachGoal?***** -->
<g id="edge19" class="edge">
<title>Fallback*&#45;&gt;ReachGoal?*****</title>
<path fill="none" stroke="black" d="M743.57,-221.85C749.08,-219.62 754.99,-217.51 760.65,-216 880.59,-183.95 916.28,-206.12 1037.65,-180 1041.51,-179.17 1045.48,-178.2 1049.45,-177.15"/>
<polygon fill="black" stroke="black" points="1050.54,-180.48 1059.23,-174.42 1048.66,-173.74 1050.54,-180.48"/>
</g>
<!-- NotReadyForSG?**** -->
<g id="node21" class="node">
<title>NotReadyForSG?****</title>
<ellipse fill="gray" stroke="black" cx="1216.65" cy="-162" rx="57.32" ry="18"/>
<text text-anchor="middle" x="1216.65" y="-159.8" font-family="Times,serif" font-size="9.00">NotReadyForSG?****</text>
</g>
<!-- Fallback*&#45;&gt;NotReadyForSG?**** -->
<g id="edge20" class="edge">
<title>Fallback*&#45;&gt;NotReadyForSG?****</title>
<path fill="none" stroke="black" d="M743.53,-221.69C749.04,-219.48 754.97,-217.41 760.65,-216 929.19,-174.28 978.54,-209.44 1149.65,-180 1154.77,-179.12 1160.07,-178.05 1165.35,-176.88"/>
<polygon fill="black" stroke="black" points="1166.46,-180.22 1175.41,-174.54 1164.88,-173.4 1166.46,-180.22"/>
</g>
<!-- Sequence** -->
<g id="node22" class="node">
<title>Sequence**</title>
<polygon fill="cyan" stroke="black" points="1365.39,-154.54 1365.39,-169.46 1343.87,-180 1313.43,-180 1291.91,-169.46 1291.91,-154.54 1313.43,-144 1343.87,-144 1365.39,-154.54"/>
<text text-anchor="middle" x="1328.65" y="-159.8" font-family="Times,serif" font-size="9.00">Sequence**</text>
</g>
<!-- Fallback*&#45;&gt;Sequence** -->
<g id="edge21" class="edge">
<title>Fallback*&#45;&gt;Sequence**</title>
<path fill="none" stroke="black" d="M743.07,-221.77C748.71,-219.49 754.8,-217.38 760.65,-216 987.03,-162.77 1055.28,-228.8 1282.65,-180 1285.82,-179.32 1289.05,-178.47 1292.27,-177.51"/>
<polygon fill="black" stroke="black" points="1293.38,-180.83 1301.79,-174.38 1291.2,-174.18 1293.38,-180.83"/>
</g>
<!-- LkGraph?** -->
<g id="node23" class="node">
<title>LkGraph?**</title>
<ellipse fill="gray" stroke="black" cx="999.65" cy="-90" rx="35.59" ry="18"/>
<text text-anchor="middle" x="999.65" y="-87.8" font-family="Times,serif" font-size="9.00">LkGraph?**</text>
</g>
<!-- Sequence**&#45;&gt;LkGraph?** -->
<g id="edge22" class="edge">
<title>Sequence**&#45;&gt;LkGraph?**</title>
<path fill="none" stroke="black" d="M1301.21,-149.82C1295.17,-147.65 1288.75,-145.57 1282.65,-144 1179.05,-117.32 1148.16,-135.05 1044.65,-108 1041.85,-107.27 1038.98,-106.42 1036.11,-105.51"/>
<polygon fill="black" stroke="black" points="1037.07,-102.13 1026.48,-102.19 1034.8,-108.75 1037.07,-102.13"/>
</g>
<!-- GetSubGoal!*** -->
<g id="node24" class="node">
<title>GetSubGoal!***</title>
<ellipse fill="gray" stroke="black" cx="1097.65" cy="-90" rx="44.41" ry="18"/>
<text text-anchor="middle" x="1097.65" y="-87.8" font-family="Times,serif" font-size="9.00">GetSubGoal!***</text>
</g>
<!-- Sequence**&#45;&gt;GetSubGoal!*** -->
<g id="edge23" class="edge">
<title>Sequence**&#45;&gt;GetSubGoal!***</title>
<path fill="none" stroke="black" d="M1300.57,-150.18C1294.68,-148.03 1288.49,-145.87 1282.65,-144 1224.74,-125.44 1208.95,-125.29 1150.65,-108 1147.5,-107.07 1144.25,-106.08 1140.99,-105.07"/>
<polygon fill="black" stroke="black" points="1141.82,-101.66 1131.23,-102.02 1139.73,-108.34 1141.82,-101.66"/>
</g>
<!-- Fallback** -->
<g id="node25" class="node">
<title>Fallback**</title>
<polygon fill="cyan" stroke="black" points="1229.64,-82.54 1229.64,-97.46 1209.15,-108 1180.16,-108 1159.66,-97.46 1159.66,-82.54 1180.16,-72 1209.15,-72 1229.64,-82.54"/>
<text text-anchor="middle" x="1194.65" y="-87.8" font-family="Times,serif" font-size="9.00">Fallback**</text>
</g>
<!-- Sequence**&#45;&gt;Fallback** -->
<g id="edge24" class="edge">
<title>Sequence**&#45;&gt;Fallback**</title>
<path fill="none" stroke="black" d="M1304.39,-148.32C1282.81,-137.05 1251.1,-120.49 1227.3,-108.06"/>
<polygon fill="black" stroke="black" points="1228.77,-104.88 1218.29,-103.35 1225.53,-111.08 1228.77,-104.88"/>
</g>
<!-- MoveTo!* -->
<g id="node29" class="node">
<title>MoveTo!*</title>
<ellipse fill="gray" stroke="black" cx="1279.65" cy="-90" rx="31.51" ry="18"/>
<text text-anchor="middle" x="1279.65" y="-87.8" font-family="Times,serif" font-size="9.00">MoveTo!*</text>
</g>
<!-- Sequence**&#45;&gt;MoveTo!* -->
<g id="edge28" class="edge">
<title>Sequence**&#45;&gt;MoveTo!*</title>
<path fill="none" stroke="black" d="M1316.54,-143.7C1310.61,-135.23 1303.37,-124.89 1296.88,-115.61"/>
<polygon fill="black" stroke="black" points="1299.56,-113.33 1290.95,-107.14 1293.82,-117.34 1299.56,-113.33"/>
</g>
<!-- GetSubGoal!**** -->
<g id="node30" class="node">
<title>GetSubGoal!****</title>
<ellipse fill="gray" stroke="black" cx="1376.65" cy="-90" rx="47.19" ry="18"/>
<text text-anchor="middle" x="1376.65" y="-87.8" font-family="Times,serif" font-size="9.00">GetSubGoal!****</text>
</g>
<!-- Sequence**&#45;&gt;GetSubGoal!**** -->
<g id="edge29" class="edge">
<title>Sequence**&#45;&gt;GetSubGoal!****</title>
<path fill="none" stroke="black" d="M1340.52,-143.7C1346.24,-135.35 1353.21,-125.18 1359.5,-116.02"/>
<polygon fill="black" stroke="black" points="1362.49,-117.85 1365.25,-107.62 1356.71,-113.89 1362.49,-117.85"/>
</g>
<!-- MoveTo!** -->
<g id="node31" class="node">
<title>MoveTo!**</title>
<ellipse fill="gray" stroke="black" cx="1475.65" cy="-90" rx="34.13" ry="18"/>
<text text-anchor="middle" x="1475.65" y="-87.8" font-family="Times,serif" font-size="9.00">MoveTo!**</text>
</g>
<!-- Sequence**&#45;&gt;MoveTo!** -->
<g id="edge30" class="edge">
<title>Sequence**&#45;&gt;MoveTo!**</title>
<path fill="none" stroke="black" d="M1354.26,-148.81C1378.43,-137.29 1414.86,-119.95 1441.5,-107.26"/>
<polygon fill="black" stroke="black" points="1443.31,-110.28 1450.83,-102.82 1440.3,-103.96 1443.31,-110.28"/>
</g>
<!-- Fallback*** -->
<g id="node32" class="node">
<title>Fallback***</title>
<polygon fill="cyan" stroke="black" points="1603.14,-82.54 1603.14,-97.46 1581.18,-108 1550.12,-108 1528.16,-97.46 1528.16,-82.54 1550.12,-72 1581.18,-72 1603.14,-82.54"/>
<text text-anchor="middle" x="1565.65" y="-87.8" font-family="Times,serif" font-size="9.00">Fallback***</text>
</g>
<!-- Sequence**&#45;&gt;Fallback*** -->
<g id="edge31" class="edge">
<title>Sequence**&#45;&gt;Fallback***</title>
<path fill="none" stroke="black" d="M1356.71,-150.08C1362.59,-147.94 1368.79,-145.81 1374.65,-144 1437.69,-124.54 1455.55,-127.24 1518.65,-108 1521.55,-107.12 1524.52,-106.16 1527.51,-105.16"/>
<polygon fill="black" stroke="black" points="1528.66,-108.47 1536.98,-101.9 1526.38,-101.85 1528.66,-108.47"/>
</g>
<!-- CompLkGraph!* -->
<g id="node35" class="node">
<title>CompLkGraph!*</title>
<ellipse fill="gray" stroke="black" cx="1666.65" cy="-90" rx="45.07" ry="18"/>
<text text-anchor="middle" x="1666.65" y="-87.8" font-family="Times,serif" font-size="9.00">CompLkGraph!*</text>
</g>
<!-- Sequence**&#45;&gt;CompLkGraph!* -->
<g id="edge34" class="edge">
<title>Sequence**&#45;&gt;CompLkGraph!*</title>
<path fill="none" stroke="black" d="M1356.09,-149.83C1362.13,-147.66 1368.55,-145.57 1374.65,-144 1477.82,-117.4 1507.8,-131.8 1611.65,-108 1615.49,-107.12 1619.44,-106.11 1623.4,-105.03"/>
<polygon fill="black" stroke="black" points="1624.48,-108.36 1633.13,-102.23 1622.55,-101.63 1624.48,-108.36"/>
</g>
<!-- NotReadyForSG?***** -->
<g id="node26" class="node">
<title>NotReadyForSG?*****</title>
<ellipse fill="gray" stroke="black" cx="1066.65" cy="-18" rx="60.09" ry="18"/>
<text text-anchor="middle" x="1066.65" y="-15.8" font-family="Times,serif" font-size="9.00">NotReadyForSG?*****</text>
</g>
<!-- Fallback**&#45;&gt;NotReadyForSG?***** -->
<g id="edge25" class="edge">
<title>Fallback**&#45;&gt;NotReadyForSG?*****</title>
<path fill="none" stroke="black" d="M1171.47,-76.32C1152.43,-65.91 1125.13,-50.98 1103.16,-38.96"/>
<polygon fill="black" stroke="black" points="1104.56,-35.74 1094.11,-34.01 1101.2,-41.88 1104.56,-35.74"/>
</g>
<!-- ReachGoal?****** -->
<g id="node27" class="node">
<title>ReachGoal?******</title>
<ellipse fill="gray" stroke="black" cx="1194.65" cy="-18" rx="49.8" ry="18"/>
<text text-anchor="middle" x="1194.65" y="-15.8" font-family="Times,serif" font-size="9.00">ReachGoal?******</text>
</g>
<!-- Fallback**&#45;&gt;ReachGoal?****** -->
<g id="edge26" class="edge">
<title>Fallback**&#45;&gt;ReachGoal?******</title>
<path fill="none" stroke="black" d="M1194.65,-71.7C1194.65,-63.98 1194.65,-54.71 1194.65,-46.11"/>
<polygon fill="black" stroke="black" points="1198.15,-46.1 1194.65,-36.1 1191.15,-46.1 1198.15,-46.1"/>
</g>
<!-- CompLkGraph! -->
<g id="node28" class="node">
<title>CompLkGraph!</title>
<ellipse fill="gray" stroke="black" cx="1304.65" cy="-18" rx="42.95" ry="18"/>
<text text-anchor="middle" x="1304.65" y="-15.8" font-family="Times,serif" font-size="9.00">CompLkGraph!</text>
</g>
<!-- Fallback**&#45;&gt;CompLkGraph! -->
<g id="edge27" class="edge">
<title>Fallback**&#45;&gt;CompLkGraph!</title>
<path fill="none" stroke="black" d="M1216.12,-75.34C1232.46,-64.94 1255.17,-50.49 1273.5,-38.82"/>
<polygon fill="black" stroke="black" points="1275.54,-41.67 1282.1,-33.35 1271.79,-35.77 1275.54,-41.67"/>
</g>
<!-- LkGraph?*** -->
<g id="node33" class="node">
<title>LkGraph?***</title>
<ellipse fill="gray" stroke="black" cx="1512.65" cy="-18" rx="38.21" ry="18"/>
<text text-anchor="middle" x="1512.65" y="-15.8" font-family="Times,serif" font-size="9.00">LkGraph?***</text>
</g>
<!-- Fallback***&#45;&gt;LkGraph?*** -->
<g id="edge32" class="edge">
<title>Fallback***&#45;&gt;LkGraph?***</title>
<path fill="none" stroke="black" d="M1552.55,-71.7C1546.07,-63.14 1538.15,-52.67 1531.07,-43.33"/>
<polygon fill="black" stroke="black" points="1533.7,-41 1524.88,-35.14 1528.12,-45.23 1533.7,-41"/>
</g>
<!-- GetSubGoal!***** -->
<g id="node34" class="node">
<title>GetSubGoal!*****</title>
<ellipse fill="gray" stroke="black" cx="1618.65" cy="-18" rx="49.8" ry="18"/>
<text text-anchor="middle" x="1618.65" y="-15.8" font-family="Times,serif" font-size="9.00">GetSubGoal!*****</text>
</g>
<!-- Fallback***&#45;&gt;GetSubGoal!***** -->
<g id="edge33" class="edge">
<title>Fallback***&#45;&gt;GetSubGoal!*****</title>
<path fill="none" stroke="black" d="M1578.75,-71.7C1585.14,-63.27 1592.93,-52.97 1599.93,-43.73"/>
<polygon fill="black" stroke="black" points="1602.82,-45.71 1606.07,-35.62 1597.24,-41.48 1602.82,-45.71"/>
</g>
<!-- LkGraph?**** -->
<g id="node38" class="node">
<title>LkGraph?****</title>
<ellipse fill="gray" stroke="black" cx="1424.65" cy="-162" rx="40.98" ry="18"/>
<text text-anchor="middle" x="1424.65" y="-159.8" font-family="Times,serif" font-size="9.00">LkGraph?****</text>
</g>
<!-- Fallback****&#45;&gt;LkGraph?**** -->
<g id="edge37" class="edge">
<title>Fallback****&#45;&gt;LkGraph?****</title>
<path fill="none" stroke="black" d="M1424.65,-215.7C1424.65,-207.98 1424.65,-198.71 1424.65,-190.11"/>
<polygon fill="black" stroke="black" points="1428.15,-190.1 1424.65,-180.1 1421.15,-190.1 1428.15,-190.1"/>
</g>
<!-- GetLk! -->
<g id="node39" class="node">
<title>GetLk!</title>
<ellipse fill="gray" stroke="black" cx="1510.65" cy="-162" rx="27" ry="18"/>
<text text-anchor="middle" x="1510.65" y="-159.8" font-family="Times,serif" font-size="9.00">GetLk!</text>
</g>
<!-- Fallback****&#45;&gt;GetLk! -->
<g id="edge38" class="edge">
<title>Fallback****&#45;&gt;GetLk!</title>
<path fill="none" stroke="black" d="M1444.17,-217.12C1456.64,-206.96 1472.92,-193.71 1486.25,-182.86"/>
<polygon fill="black" stroke="black" points="1488.56,-185.49 1494.11,-176.47 1484.14,-180.06 1488.56,-185.49"/>
</g>
</g>
</svg>
