<?xml version="1.0" encoding="UTF-8" standalone="no"?>
<!DOCTYPE svg PUBLIC "-//W3C//DTD SVG 1.1//EN"
 "http://www.w3.org/Graphics/SVG/1.1/DTD/svg11.dtd">
<!-- Generated by graphviz version 2.43.0 (0)
 -->
<!-- Title: pastafarianism Pages: 1 -->
<svg width="1627pt" height="404pt"
 viewBox="0.00 0.00 1626.61 404.00" xmlns="http://www.w3.org/2000/svg" xmlns:xlink="http://www.w3.org/1999/xlink">
<g id="graph0" class="graph" transform="scale(1 1) rotate(0) translate(4 400)">
<title>pastafarianism</title>
<polygon fill="white" stroke="transparent" points="-4,4 -4,-400 1622.61,-400 1622.61,4 -4,4"/>
<!-- Fallback -->
<g id="node1" class="node">
<title>Fallback</title>
<polygon fill="cyan" stroke="black" points="585.01,-370.54 585.01,-385.46 567.88,-396 543.65,-396 526.52,-385.46 526.52,-370.54 543.65,-360 567.88,-360 585.01,-370.54"/>
<text text-anchor="middle" x="555.77" y="-375.8" font-family="Times,serif" font-size="9.00">Fallback</text>
</g>
<!-- ReachGoal? -->
<g id="node2" class="node">
<title>ReachGoal?</title>
<ellipse fill="gray" stroke="black" cx="472.77" cy="-306" rx="34.13" ry="18"/>
<text text-anchor="middle" x="472.77" y="-303.8" font-family="Times,serif" font-size="9.00">ReachGoal?</text>
</g>
<!-- Fallback&#45;&gt;ReachGoal? -->
<g id="edge1" class="edge">
<title>Fallback&#45;&gt;ReachGoal?</title>
<path fill="none" stroke="black" d="M538.97,-362.83C527.2,-352.91 511.27,-339.47 497.98,-328.26"/>
<polygon fill="black" stroke="black" points="500.01,-325.4 490.11,-321.63 495.5,-330.75 500.01,-325.4"/>
</g>
<!-- LkGraph? -->
<g id="node3" class="node">
<title>LkGraph?</title>
<ellipse fill="gray" stroke="black" cx="555.77" cy="-306" rx="30.7" ry="18"/>
<text text-anchor="middle" x="555.77" y="-303.8" font-family="Times,serif" font-size="9.00">LkGraph?</text>
</g>
<!-- Fallback&#45;&gt;LkGraph? -->
<g id="edge2" class="edge">
<title>Fallback&#45;&gt;LkGraph?</title>
<path fill="none" stroke="black" d="M555.77,-359.7C555.77,-351.98 555.77,-342.71 555.77,-334.11"/>
<polygon fill="black" stroke="black" points="559.27,-334.1 555.77,-324.1 552.27,-334.1 559.27,-334.1"/>
</g>
<!-- Sequence -->
<g id="node4" class="node">
<title>Sequence</title>
<polygon fill="cyan" stroke="black" points="667.26,-298.54 667.26,-313.46 648.81,-324 622.72,-324 604.27,-313.46 604.27,-298.54 622.72,-288 648.81,-288 667.26,-298.54"/>
<text text-anchor="middle" x="635.77" y="-303.8" font-family="Times,serif" font-size="9.00">Sequence</text>
</g>
<!-- Fallback&#45;&gt;Sequence -->
<g id="edge3" class="edge">
<title>Fallback&#45;&gt;Sequence</title>
<path fill="none" stroke="black" d="M572.34,-362.5C583.45,-352.77 598.29,-339.79 610.82,-328.83"/>
<polygon fill="black" stroke="black" points="613.44,-331.19 618.66,-321.97 608.83,-325.92 613.44,-331.19"/>
</g>
<!-- Fallback* -->
<g id="node5" class="node">
<title>Fallback*</title>
<polygon fill="cyan" stroke="black" points="583.51,-226.54 583.51,-241.46 564.91,-252 538.62,-252 520.02,-241.46 520.02,-226.54 538.62,-216 564.91,-216 583.51,-226.54"/>
<text text-anchor="middle" x="551.77" y="-231.8" font-family="Times,serif" font-size="9.00">Fallback*</text>
</g>
<!-- Sequence&#45;&gt;Fallback* -->
<g id="edge4" class="edge">
<title>Sequence&#45;&gt;Fallback*</title>
<path fill="none" stroke="black" d="M617.95,-290.15C606.07,-280.25 590.26,-267.08 577.08,-256.09"/>
<polygon fill="black" stroke="black" points="579.19,-253.3 569.27,-249.58 574.71,-258.67 579.19,-253.3"/>
</g>
<!-- MoveTo!** -->
<g id="node30" class="node">
<title>MoveTo!**</title>
<ellipse fill="gray" stroke="black" cx="635.77" cy="-234" rx="34.13" ry="18"/>
<text text-anchor="middle" x="635.77" y="-231.8" font-family="Times,serif" font-size="9.00">MoveTo!**</text>
</g>
<!-- Sequence&#45;&gt;MoveTo!** -->
<g id="edge29" class="edge">
<title>Sequence&#45;&gt;MoveTo!**</title>
<path fill="none" stroke="black" d="M635.77,-287.7C635.77,-279.98 635.77,-270.71 635.77,-262.11"/>
<polygon fill="black" stroke="black" points="639.27,-262.1 635.77,-252.1 632.27,-262.1 639.27,-262.1"/>
</g>
<!-- LkGraph?**** -->
<g id="node31" class="node">
<title>LkGraph?****</title>
<ellipse fill="gray" stroke="black" cx="728.77" cy="-234" rx="40.98" ry="18"/>
<text text-anchor="middle" x="728.77" y="-231.8" font-family="Times,serif" font-size="9.00">LkGraph?****</text>
</g>
<!-- Sequence&#45;&gt;LkGraph?**** -->
<g id="edge30" class="edge">
<title>Sequence&#45;&gt;LkGraph?****</title>
<path fill="none" stroke="black" d="M654.59,-290.83C667.81,-280.88 685.72,-267.4 700.64,-256.17"/>
<polygon fill="black" stroke="black" points="703.13,-258.68 709.01,-249.87 698.92,-253.09 703.13,-258.68"/>
</g>
<!-- NotReadyForSG? -->
<g id="node6" class="node">
<title>NotReadyForSG?</title>
<ellipse fill="gray" stroke="black" cx="46.77" cy="-162" rx="46.53" ry="18"/>
<text text-anchor="middle" x="46.77" y="-159.8" font-family="Times,serif" font-size="9.00">NotReadyForSG?</text>
</g>
<!-- Fallback*&#45;&gt;NotReadyForSG? -->
<g id="edge5" class="edge">
<title>Fallback*&#45;&gt;NotReadyForSG?</title>
<path fill="none" stroke="black" d="M519.88,-231.18C445.92,-226.55 257.2,-212.29 102.77,-180 98.85,-179.18 94.81,-178.21 90.79,-177.16"/>
<polygon fill="black" stroke="black" points="91.44,-173.71 80.87,-174.4 89.57,-180.45 91.44,-173.71"/>
</g>
<!-- ReachGoal?* -->
<g id="node7" class="node">
<title>ReachGoal?*</title>
<ellipse fill="gray" stroke="black" cx="148.77" cy="-162" rx="36.9" ry="18"/>
<text text-anchor="middle" x="148.77" y="-159.8" font-family="Times,serif" font-size="9.00">ReachGoal?*</text>
</g>
<!-- Fallback*&#45;&gt;ReachGoal?* -->
<g id="edge6" class="edge">
<title>Fallback*&#45;&gt;ReachGoal?*</title>
<path fill="none" stroke="black" d="M519.81,-230.49C456.82,-225.04 312.52,-210.16 194.77,-180 191.81,-179.24 188.78,-178.36 185.75,-177.41"/>
<polygon fill="black" stroke="black" points="186.8,-174.07 176.2,-174.19 184.56,-180.7 186.8,-174.07"/>
</g>
<!-- GetSubGoal! -->
<g id="node8" class="node">
<title>GetSubGoal!</title>
<ellipse fill="gray" stroke="black" cx="240.77" cy="-162" rx="36.9" ry="18"/>
<text text-anchor="middle" x="240.77" y="-159.8" font-family="Times,serif" font-size="9.00">GetSubGoal!</text>
</g>
<!-- Fallback*&#45;&gt;GetSubGoal! -->
<g id="edge7" class="edge">
<title>Fallback*&#45;&gt;GetSubGoal!</title>
<path fill="none" stroke="black" d="M519.97,-228.29C469.84,-220.51 369.61,-203.44 286.77,-180 284,-179.22 281.16,-178.35 278.33,-177.42"/>
<polygon fill="black" stroke="black" points="279.35,-174.07 268.75,-174.14 277.08,-180.69 279.35,-174.07"/>
</g>
<!-- NotReadyForSG?* -->
<g id="node9" class="node">
<title>NotReadyForSG?*</title>
<ellipse fill="gray" stroke="black" cx="345.77" cy="-162" rx="49.8" ry="18"/>
<text text-anchor="middle" x="345.77" y="-159.8" font-family="Times,serif" font-size="9.00">NotReadyForSG?*</text>
</g>
<!-- Fallback*&#45;&gt;NotReadyForSG?* -->
<g id="edge8" class="edge">
<title>Fallback*&#45;&gt;NotReadyForSG?*</title>
<path fill="none" stroke="black" d="M524.41,-223.7C490.24,-212.09 431.3,-192.06 390.52,-178.21"/>
<polygon fill="black" stroke="black" points="391.42,-174.82 380.82,-174.91 389.16,-181.44 391.42,-174.82"/>
</g>
<!-- GetSubGoal!* -->
<g id="node10" class="node">
<title>GetSubGoal!*</title>
<ellipse fill="gray" stroke="black" cx="452.77" cy="-162" rx="39.02" ry="18"/>
<text text-anchor="middle" x="452.77" y="-159.8" font-family="Times,serif" font-size="9.00">GetSubGoal!*</text>
</g>
<!-- Fallback*&#45;&gt;GetSubGoal!* -->
<g id="edge9" class="edge">
<title>Fallback*&#45;&gt;GetSubGoal!*</title>
<path fill="none" stroke="black" d="M532.21,-219.17C517.85,-209.02 498.1,-195.06 481.89,-183.6"/>
<polygon fill="black" stroke="black" points="483.49,-180.44 473.31,-177.52 479.45,-186.16 483.49,-180.44"/>
</g>
<!-- GetSubGoal!** -->
<g id="node11" class="node">
<title>GetSubGoal!**</title>
<ellipse fill="gray" stroke="black" cx="551.77" cy="-162" rx="42.29" ry="18"/>
<text text-anchor="middle" x="551.77" y="-159.8" font-family="Times,serif" font-size="9.00">GetSubGoal!**</text>
</g>
<!-- Fallback*&#45;&gt;GetSubGoal!** -->
<g id="edge10" class="edge">
<title>Fallback*&#45;&gt;GetSubGoal!**</title>
<path fill="none" stroke="black" d="M551.77,-215.7C551.77,-207.98 551.77,-198.71 551.77,-190.11"/>
<polygon fill="black" stroke="black" points="555.27,-190.1 551.77,-180.1 548.27,-190.1 555.27,-190.1"/>
</g>
<!-- ReachGoal?** -->
<g id="node12" class="node">
<title>ReachGoal?**</title>
<ellipse fill="gray" stroke="black" cx="650.77" cy="-162" rx="39.02" ry="18"/>
<text text-anchor="middle" x="650.77" y="-159.8" font-family="Times,serif" font-size="9.00">ReachGoal?**</text>
</g>
<!-- Fallback*&#45;&gt;ReachGoal?** -->
<g id="edge11" class="edge">
<title>Fallback*&#45;&gt;ReachGoal?**</title>
<path fill="none" stroke="black" d="M571.32,-219.17C585.68,-209.02 605.43,-195.06 621.64,-183.6"/>
<polygon fill="black" stroke="black" points="624.08,-186.16 630.22,-177.52 620.04,-180.44 624.08,-186.16"/>
</g>
<!-- NotReadyForSG?** -->
<g id="node13" class="node">
<title>NotReadyForSG?**</title>
<ellipse fill="gray" stroke="black" cx="759.77" cy="-162" rx="51.92" ry="18"/>
<text text-anchor="middle" x="759.77" y="-159.8" font-family="Times,serif" font-size="9.00">NotReadyForSG?**</text>
</g>
<!-- Fallback*&#45;&gt;NotReadyForSG?** -->
<g id="edge12" class="edge">
<title>Fallback*&#45;&gt;NotReadyForSG?**</title>
<path fill="none" stroke="black" d="M576.35,-222.41C581.72,-220.2 587.41,-217.96 592.77,-216 632.25,-201.58 677.78,-187.28 711.31,-177.18"/>
<polygon fill="black" stroke="black" points="712.74,-180.4 721.31,-174.18 710.73,-173.7 712.74,-180.4"/>
</g>
<!-- CompLkGraph! -->
<g id="node14" class="node">
<title>CompLkGraph!</title>
<ellipse fill="gray" stroke="black" cx="872.77" cy="-162" rx="42.95" ry="18"/>
<text text-anchor="middle" x="872.77" y="-159.8" font-family="Times,serif" font-size="9.00">CompLkGraph!</text>
</g>
<!-- Fallback*&#45;&gt;CompLkGraph! -->
<g id="edge13" class="edge">
<title>Fallback*&#45;&gt;CompLkGraph!</title>
<path fill="none" stroke="black" d="M575.71,-221.96C581.23,-219.73 587.13,-217.59 592.77,-216 691.5,-188.16 721.03,-204.02 820.77,-180 824.19,-179.17 827.72,-178.23 831.25,-177.22"/>
<polygon fill="black" stroke="black" points="832.54,-180.49 841.1,-174.24 830.51,-173.79 832.54,-180.49"/>
</g>
<!-- ReachGoal?*** -->
<g id="node15" class="node">
<title>ReachGoal?***</title>
<ellipse fill="gray" stroke="black" cx="975.77" cy="-162" rx="42.29" ry="18"/>
<text text-anchor="middle" x="975.77" y="-159.8" font-family="Times,serif" font-size="9.00">ReachGoal?***</text>
</g>
<!-- Fallback*&#45;&gt;ReachGoal?*** -->
<g id="edge14" class="edge">
<title>Fallback*&#45;&gt;ReachGoal?***</title>
<path fill="none" stroke="black" d="M575.66,-221.76C581.17,-219.54 587.09,-217.45 592.77,-216 736.55,-179.2 779.76,-211.65 924.77,-180 928.2,-179.25 931.72,-178.35 935.24,-177.37"/>
<polygon fill="black" stroke="black" points="936.48,-180.65 945.05,-174.41 934.46,-173.95 936.48,-180.65"/>
</g>
<!-- Sequence* -->
<g id="node16" class="node">
<title>Sequence*</title>
<polygon fill="cyan" stroke="black" points="1105.01,-154.54 1105.01,-169.46 1084.95,-180 1056.58,-180 1036.52,-169.46 1036.52,-154.54 1056.58,-144 1084.95,-144 1105.01,-154.54"/>
<text text-anchor="middle" x="1070.77" y="-159.8" font-family="Times,serif" font-size="9.00">Sequence*</text>
</g>
<!-- Fallback*&#45;&gt;Sequence* -->
<g id="edge15" class="edge">
<title>Fallback*&#45;&gt;Sequence*</title>
<path fill="none" stroke="black" d="M575.19,-221.83C580.84,-219.55 586.92,-217.42 592.77,-216 780.86,-170.39 838.12,-223.32 1026.77,-180 1029.61,-179.35 1032.51,-178.55 1035.41,-177.65"/>
<polygon fill="black" stroke="black" points="1036.77,-180.88 1045.09,-174.33 1034.5,-174.26 1036.77,-180.88"/>
</g>
<!-- LkGraph?* -->
<g id="node17" class="node">
<title>LkGraph?*</title>
<ellipse fill="gray" stroke="black" cx="626.77" cy="-90" rx="32.82" ry="18"/>
<text text-anchor="middle" x="626.77" y="-87.8" font-family="Times,serif" font-size="9.00">LkGraph?*</text>
</g>
<!-- Sequence*&#45;&gt;LkGraph?* -->
<g id="edge16" class="edge">
<title>Sequence*&#45;&gt;LkGraph?*</title>
<path fill="none" stroke="black" d="M1045.07,-149.75C1039.16,-147.53 1032.82,-145.45 1026.77,-144 871.23,-106.85 824,-146.39 668.77,-108 666.14,-107.35 663.45,-106.57 660.78,-105.7"/>
<polygon fill="black" stroke="black" points="661.85,-102.36 651.25,-102.27 659.47,-108.95 661.85,-102.36"/>
</g>
<!-- GetSubGoal!*** -->
<g id="node18" class="node">
<title>GetSubGoal!***</title>
<ellipse fill="gray" stroke="black" cx="721.77" cy="-90" rx="44.41" ry="18"/>
<text text-anchor="middle" x="721.77" y="-87.8" font-family="Times,serif" font-size="9.00">GetSubGoal!***</text>
</g>
<!-- Sequence*&#45;&gt;GetSubGoal!*** -->
<g id="edge17" class="edge">
<title>Sequence*&#45;&gt;GetSubGoal!***</title>
<path fill="none" stroke="black" d="M1045.03,-149.94C1039.11,-147.71 1032.79,-145.57 1026.77,-144 917.3,-115.43 885.02,-133.37 774.77,-108 771.32,-107.21 767.77,-106.29 764.23,-105.31"/>
<polygon fill="black" stroke="black" points="764.9,-101.86 754.32,-102.39 762.93,-108.57 764.9,-101.86"/>
</g>
<!-- MoveTo! -->
<g id="node19" class="node">
<title>MoveTo!</title>
<ellipse fill="gray" stroke="black" cx="812.77" cy="-90" rx="28.74" ry="18"/>
<text text-anchor="middle" x="812.77" y="-87.8" font-family="Times,serif" font-size="9.00">MoveTo!</text>
</g>
<!-- Sequence*&#45;&gt;MoveTo! -->
<g id="edge18" class="edge">
<title>Sequence*&#45;&gt;MoveTo!</title>
<path fill="none" stroke="black" d="M1044.49,-150.03C1038.71,-147.84 1032.58,-145.71 1026.77,-144 950.15,-121.53 926.77,-132.45 850.77,-108 848.64,-107.32 846.48,-106.55 844.31,-105.73"/>
<polygon fill="black" stroke="black" points="845.53,-102.45 834.95,-101.9 842.88,-108.93 845.53,-102.45"/>
</g>
<!-- ReachGoal?**** -->
<g id="node20" class="node">
<title>ReachGoal?****</title>
<ellipse fill="gray" stroke="black" cx="903.77" cy="-90" rx="44.41" ry="18"/>
<text text-anchor="middle" x="903.77" y="-87.8" font-family="Times,serif" font-size="9.00">ReachGoal?****</text>
</g>
<!-- Sequence*&#45;&gt;ReachGoal?**** -->
<g id="edge19" class="edge">
<title>Sequence*&#45;&gt;ReachGoal?****</title>
<path fill="none" stroke="black" d="M1044.67,-150.06C1017.4,-138.63 974.3,-120.57 942.95,-107.42"/>
<polygon fill="black" stroke="black" points="944.2,-104.15 933.62,-103.51 941.49,-110.61 944.2,-104.15"/>
</g>
<!-- GetSubGoal!**** -->
<g id="node21" class="node">
<title>GetSubGoal!****</title>
<ellipse fill="gray" stroke="black" cx="1013.77" cy="-90" rx="47.19" ry="18"/>
<text text-anchor="middle" x="1013.77" y="-87.8" font-family="Times,serif" font-size="9.00">GetSubGoal!****</text>
</g>
<!-- Sequence*&#45;&gt;GetSubGoal!**** -->
<g id="edge20" class="edge">
<title>Sequence*&#45;&gt;GetSubGoal!****</title>
<path fill="none" stroke="black" d="M1056.68,-143.7C1049.74,-135.18 1041.26,-124.76 1033.67,-115.45"/>
<polygon fill="black" stroke="black" points="1036.33,-113.17 1027.3,-107.62 1030.9,-117.59 1036.33,-113.17"/>
</g>
<!-- GetSubGoal!***** -->
<g id="node22" class="node">
<title>GetSubGoal!*****</title>
<ellipse fill="gray" stroke="black" cx="1128.77" cy="-90" rx="49.8" ry="18"/>
<text text-anchor="middle" x="1128.77" y="-87.8" font-family="Times,serif" font-size="9.00">GetSubGoal!*****</text>
</g>
<!-- Sequence*&#45;&gt;GetSubGoal!***** -->
<g id="edge21" class="edge">
<title>Sequence*&#45;&gt;GetSubGoal!*****</title>
<path fill="none" stroke="black" d="M1085.1,-143.7C1092.16,-135.18 1100.79,-124.76 1108.51,-115.45"/>
<polygon fill="black" stroke="black" points="1111.31,-117.56 1114.99,-107.62 1105.92,-113.09 1111.31,-117.56"/>
</g>
<!-- GetSubGoal!****** -->
<g id="node23" class="node">
<title>GetSubGoal!******</title>
<ellipse fill="gray" stroke="black" cx="1248.77" cy="-90" rx="52.58" ry="18"/>
<text text-anchor="middle" x="1248.77" y="-87.8" font-family="Times,serif" font-size="9.00">GetSubGoal!******</text>
</g>
<!-- Sequence*&#45;&gt;GetSubGoal!****** -->
<g id="edge22" class="edge">
<title>Sequence*&#45;&gt;GetSubGoal!******</title>
<path fill="none" stroke="black" d="M1097.41,-150.52C1126.1,-139.24 1172.16,-121.13 1205.94,-107.84"/>
<polygon fill="black" stroke="black" points="1207.53,-110.98 1215.56,-104.06 1204.97,-104.46 1207.53,-110.98"/>
</g>
<!-- MoveTo!* -->
<g id="node24" class="node">
<title>MoveTo!*</title>
<ellipse fill="gray" stroke="black" cx="1350.77" cy="-90" rx="31.51" ry="18"/>
<text text-anchor="middle" x="1350.77" y="-87.8" font-family="Times,serif" font-size="9.00">MoveTo!*</text>
</g>
<!-- Sequence*&#45;&gt;MoveTo!* -->
<g id="edge23" class="edge">
<title>Sequence*&#45;&gt;MoveTo!*</title>
<path fill="none" stroke="black" d="M1105.07,-155.48C1152.13,-147.45 1239.03,-130.95 1310.77,-108 1313.01,-107.28 1315.3,-106.49 1317.59,-105.64"/>
<polygon fill="black" stroke="black" points="1318.89,-108.89 1326.92,-101.98 1316.34,-102.38 1318.89,-108.89"/>
</g>
<!-- Fallback** -->
<g id="node25" class="node">
<title>Fallback**</title>
<polygon fill="cyan" stroke="black" points="1470.76,-82.54 1470.76,-97.46 1450.26,-108 1421.27,-108 1400.77,-97.46 1400.77,-82.54 1421.27,-72 1450.26,-72 1470.76,-82.54"/>
<text text-anchor="middle" x="1435.77" y="-87.8" font-family="Times,serif" font-size="9.00">Fallback**</text>
</g>
<!-- Sequence*&#45;&gt;Fallback** -->
<g id="edge24" class="edge">
<title>Sequence*&#45;&gt;Fallback**</title>
<path fill="none" stroke="black" d="M1105.47,-157.63C1164.89,-151.34 1289.59,-135.86 1391.77,-108 1394.41,-107.28 1397.12,-106.45 1399.83,-105.57"/>
<polygon fill="black" stroke="black" points="1401.27,-108.77 1409.53,-102.14 1398.94,-102.17 1401.27,-108.77"/>
</g>
<!-- LkGraph?*** -->
<g id="node29" class="node">
<title>LkGraph?***</title>
<ellipse fill="gray" stroke="black" cx="1526.77" cy="-90" rx="38.21" ry="18"/>
<text text-anchor="middle" x="1526.77" y="-87.8" font-family="Times,serif" font-size="9.00">LkGraph?***</text>
</g>
<!-- Sequence*&#45;&gt;LkGraph?*** -->
<g id="edge28" class="edge">
<title>Sequence*&#45;&gt;LkGraph?***</title>
<path fill="none" stroke="black" d="M1105.16,-159.08C1176.09,-154.57 1343.38,-141.08 1479.77,-108 1482.79,-107.27 1485.89,-106.41 1488.98,-105.47"/>
<polygon fill="black" stroke="black" points="1490.33,-108.71 1498.74,-102.26 1488.15,-102.06 1490.33,-108.71"/>
</g>
<!-- LkGraph?** -->
<g id="node26" class="node">
<title>LkGraph?**</title>
<ellipse fill="gray" stroke="black" cx="1326.77" cy="-18" rx="35.59" ry="18"/>
<text text-anchor="middle" x="1326.77" y="-15.8" font-family="Times,serif" font-size="9.00">LkGraph?**</text>
</g>
<!-- Fallback**&#45;&gt;LkGraph?** -->
<g id="edge25" class="edge">
<title>Fallback**&#45;&gt;LkGraph?**</title>
<path fill="none" stroke="black" d="M1414.49,-75.34C1397.99,-64.74 1374.91,-49.92 1356.56,-38.14"/>
<polygon fill="black" stroke="black" points="1358.29,-35.09 1347.99,-32.63 1354.51,-40.98 1358.29,-35.09"/>
</g>
<!-- NotReadyForSG?*** -->
<g id="node27" class="node">
<title>NotReadyForSG?***</title>
<ellipse fill="gray" stroke="black" cx="1435.77" cy="-18" rx="54.7" ry="18"/>
<text text-anchor="middle" x="1435.77" y="-15.8" font-family="Times,serif" font-size="9.00">NotReadyForSG?***</text>
</g>
<!-- Fallback**&#45;&gt;NotReadyForSG?*** -->
<g id="edge26" class="edge">
<title>Fallback**&#45;&gt;NotReadyForSG?***</title>
<path fill="none" stroke="black" d="M1435.77,-71.7C1435.77,-63.98 1435.77,-54.71 1435.77,-46.11"/>
<polygon fill="black" stroke="black" points="1439.27,-46.1 1435.77,-36.1 1432.27,-46.1 1439.27,-46.1"/>
</g>
<!-- GetSubGoal!******* -->
<g id="node28" class="node">
<title>GetSubGoal!*******</title>
<ellipse fill="gray" stroke="black" cx="1563.77" cy="-18" rx="54.7" ry="18"/>
<text text-anchor="middle" x="1563.77" y="-15.8" font-family="Times,serif" font-size="9.00">GetSubGoal!*******</text>
</g>
<!-- Fallback**&#45;&gt;GetSubGoal!******* -->
<g id="edge27" class="edge">
<title>Fallback**&#45;&gt;GetSubGoal!*******</title>
<path fill="none" stroke="black" d="M1458.95,-76.32C1478.19,-65.8 1505.9,-50.65 1527.99,-38.56"/>
<polygon fill="black" stroke="black" points="1529.67,-41.63 1536.77,-33.77 1526.31,-35.49 1529.67,-41.63"/>
</g>
</g>
</svg>
