<?xml version="1.0" encoding="UTF-8" standalone="no"?>
<!DOCTYPE svg PUBLIC "-//W3C//DTD SVG 1.1//EN"
 "http://www.w3.org/Graphics/SVG/1.1/DTD/svg11.dtd">
<!-- Generated by graphviz version 2.43.0 (0)
 -->
<!-- Title: pastafarianism Pages: 1 -->
<svg width="1388pt" height="404pt"
 viewBox="0.00 0.00 1387.95 404.00" xmlns="http://www.w3.org/2000/svg" xmlns:xlink="http://www.w3.org/1999/xlink">
<g id="graph0" class="graph" transform="scale(1 1) rotate(0) translate(4 400)">
<title>pastafarianism</title>
<polygon fill="white" stroke="transparent" points="-4,4 -4,-400 1383.95,-400 1383.95,4 -4,4"/>
<!-- Fallback -->
<g id="node1" class="node">
<title>Fallback</title>
<polygon fill="cyan" stroke="black" points="601.01,-370.54 601.01,-385.46 583.88,-396 559.65,-396 542.52,-385.46 542.52,-370.54 559.65,-360 583.88,-360 601.01,-370.54"/>
<text text-anchor="middle" x="571.77" y="-375.8" font-family="Times,serif" font-size="9.00">Fallback</text>
</g>
<!-- ReachGoal? -->
<g id="node2" class="node">
<title>ReachGoal?</title>
<ellipse fill="gray" stroke="black" cx="530.77" cy="-306" rx="34.13" ry="18"/>
<text text-anchor="middle" x="530.77" y="-303.8" font-family="Times,serif" font-size="9.00">ReachGoal?</text>
</g>
<!-- Fallback&#45;&gt;ReachGoal? -->
<g id="edge1" class="edge">
<title>Fallback&#45;&gt;ReachGoal?</title>
<path fill="none" stroke="black" d="M561.63,-359.7C556.79,-351.44 550.91,-341.39 545.58,-332.3"/>
<polygon fill="black" stroke="black" points="548.58,-330.48 540.5,-323.62 542.54,-334.02 548.58,-330.48"/>
</g>
<!-- Sequence -->
<g id="node3" class="node">
<title>Sequence</title>
<polygon fill="cyan" stroke="black" points="645.26,-298.54 645.26,-313.46 626.81,-324 600.72,-324 582.27,-313.46 582.27,-298.54 600.72,-288 626.81,-288 645.26,-298.54"/>
<text text-anchor="middle" x="613.77" y="-303.8" font-family="Times,serif" font-size="9.00">Sequence</text>
</g>
<!-- Fallback&#45;&gt;Sequence -->
<g id="edge2" class="edge">
<title>Fallback&#45;&gt;Sequence</title>
<path fill="none" stroke="black" d="M582.15,-359.7C587.03,-351.56 592.95,-341.69 598.34,-332.7"/>
<polygon fill="black" stroke="black" points="601.36,-334.48 603.5,-324.1 595.36,-330.88 601.36,-334.48"/>
</g>
<!-- Fallback* -->
<g id="node4" class="node">
<title>Fallback*</title>
<polygon fill="cyan" stroke="black" points="563.51,-226.54 563.51,-241.46 544.91,-252 518.62,-252 500.02,-241.46 500.02,-226.54 518.62,-216 544.91,-216 563.51,-226.54"/>
<text text-anchor="middle" x="531.77" y="-231.8" font-family="Times,serif" font-size="9.00">Fallback*</text>
</g>
<!-- Sequence&#45;&gt;Fallback* -->
<g id="edge3" class="edge">
<title>Sequence&#45;&gt;Fallback*</title>
<path fill="none" stroke="black" d="M596.38,-290.15C584.96,-280.41 569.84,-267.5 557.1,-256.63"/>
<polygon fill="black" stroke="black" points="559.01,-253.65 549.13,-249.82 554.46,-258.98 559.01,-253.65"/>
</g>
<!-- MoveTo!* -->
<g id="node25" class="node">
<title>MoveTo!*</title>
<ellipse fill="gray" stroke="black" cx="613.77" cy="-234" rx="31.51" ry="18"/>
<text text-anchor="middle" x="613.77" y="-231.8" font-family="Times,serif" font-size="9.00">MoveTo!*</text>
</g>
<!-- Sequence&#45;&gt;MoveTo!* -->
<g id="edge24" class="edge">
<title>Sequence&#45;&gt;MoveTo!*</title>
<path fill="none" stroke="black" d="M613.77,-287.7C613.77,-279.98 613.77,-270.71 613.77,-262.11"/>
<polygon fill="black" stroke="black" points="617.27,-262.1 613.77,-252.1 610.27,-262.1 617.27,-262.1"/>
</g>
<!-- LkGraph?******* -->
<g id="node26" class="node">
<title>LkGraph?*******</title>
<ellipse fill="gray" stroke="black" cx="711.77" cy="-234" rx="48.49" ry="18"/>
<text text-anchor="middle" x="711.77" y="-231.8" font-family="Times,serif" font-size="9.00">LkGraph?*******</text>
</g>
<!-- Sequence&#45;&gt;LkGraph?******* -->
<g id="edge25" class="edge">
<title>Sequence&#45;&gt;LkGraph?*******</title>
<path fill="none" stroke="black" d="M633.13,-291.17C647.06,-281.22 666.11,-267.61 681.97,-256.28"/>
<polygon fill="black" stroke="black" points="684.3,-258.92 690.4,-250.26 680.23,-253.22 684.3,-258.92"/>
</g>
<!-- NotReadyForSG? -->
<g id="node5" class="node">
<title>NotReadyForSG?</title>
<ellipse fill="gray" stroke="black" cx="46.77" cy="-162" rx="46.53" ry="18"/>
<text text-anchor="middle" x="46.77" y="-159.8" font-family="Times,serif" font-size="9.00">NotReadyForSG?</text>
</g>
<!-- Fallback*&#45;&gt;NotReadyForSG? -->
<g id="edge4" class="edge">
<title>Fallback*&#45;&gt;NotReadyForSG?</title>
<path fill="none" stroke="black" d="M499.97,-230.95C428.4,-225.92 249.41,-211.08 102.77,-180 98.85,-179.17 94.82,-178.19 90.79,-177.14"/>
<polygon fill="black" stroke="black" points="91.45,-173.69 80.88,-174.37 89.57,-180.43 91.45,-173.69"/>
</g>
<!-- ReachGoal?* -->
<g id="node6" class="node">
<title>ReachGoal?*</title>
<ellipse fill="gray" stroke="black" cx="148.77" cy="-162" rx="36.9" ry="18"/>
<text text-anchor="middle" x="148.77" y="-159.8" font-family="Times,serif" font-size="9.00">ReachGoal?*</text>
</g>
<!-- Fallback*&#45;&gt;ReachGoal?* -->
<g id="edge5" class="edge">
<title>Fallback*&#45;&gt;ReachGoal?*</title>
<path fill="none" stroke="black" d="M499.74,-230.1C439.35,-224.15 304.8,-208.68 194.77,-180 191.81,-179.23 188.78,-178.34 185.76,-177.39"/>
<polygon fill="black" stroke="black" points="186.81,-174.04 176.21,-174.15 184.56,-180.67 186.81,-174.04"/>
</g>
<!-- GetSubGoal! -->
<g id="node7" class="node">
<title>GetSubGoal!</title>
<ellipse fill="gray" stroke="black" cx="240.77" cy="-162" rx="36.9" ry="18"/>
<text text-anchor="middle" x="240.77" y="-159.8" font-family="Times,serif" font-size="9.00">GetSubGoal!</text>
</g>
<!-- Fallback*&#45;&gt;GetSubGoal! -->
<g id="edge6" class="edge">
<title>Fallback*&#45;&gt;GetSubGoal!</title>
<path fill="none" stroke="black" d="M499.69,-227.55C452.54,-219.21 361.97,-201.91 286.77,-180 284.01,-179.2 281.18,-178.31 278.34,-177.37"/>
<polygon fill="black" stroke="black" points="279.37,-174.03 268.77,-174.06 277.08,-180.64 279.37,-174.03"/>
</g>
<!-- LkGraph? -->
<g id="node8" class="node">
<title>LkGraph?</title>
<ellipse fill="gray" stroke="black" cx="326.77" cy="-162" rx="30.7" ry="18"/>
<text text-anchor="middle" x="326.77" y="-159.8" font-family="Times,serif" font-size="9.00">LkGraph?</text>
</g>
<!-- Fallback*&#45;&gt;LkGraph? -->
<g id="edge7" class="edge">
<title>Fallback*&#45;&gt;LkGraph?</title>
<path fill="none" stroke="black" d="M502.97,-224.78C469.62,-215.03 413.19,-197.85 365.77,-180 363.69,-179.22 361.56,-178.38 359.42,-177.52"/>
<polygon fill="black" stroke="black" points="360.69,-174.26 350.12,-173.64 358,-180.72 360.69,-174.26"/>
</g>
<!-- NotReadyForSG?* -->
<g id="node9" class="node">
<title>NotReadyForSG?*</title>
<ellipse fill="gray" stroke="black" cx="424.77" cy="-162" rx="49.8" ry="18"/>
<text text-anchor="middle" x="424.77" y="-159.8" font-family="Times,serif" font-size="9.00">NotReadyForSG?*</text>
</g>
<!-- Fallback*&#45;&gt;NotReadyForSG?* -->
<g id="edge8" class="edge">
<title>Fallback*&#45;&gt;NotReadyForSG?*</title>
<path fill="none" stroke="black" d="M511.64,-219.83C496.03,-209.62 474.12,-195.29 456.2,-183.57"/>
<polygon fill="black" stroke="black" points="458.06,-180.6 447.77,-178.05 454.23,-186.46 458.06,-180.6"/>
</g>
<!-- GetSubGoal!* -->
<g id="node10" class="node">
<title>GetSubGoal!*</title>
<ellipse fill="gray" stroke="black" cx="531.77" cy="-162" rx="39.02" ry="18"/>
<text text-anchor="middle" x="531.77" y="-159.8" font-family="Times,serif" font-size="9.00">GetSubGoal!*</text>
</g>
<!-- Fallback*&#45;&gt;GetSubGoal!* -->
<g id="edge9" class="edge">
<title>Fallback*&#45;&gt;GetSubGoal!*</title>
<path fill="none" stroke="black" d="M531.77,-215.7C531.77,-207.98 531.77,-198.71 531.77,-190.11"/>
<polygon fill="black" stroke="black" points="535.27,-190.1 531.77,-180.1 528.27,-190.1 535.27,-190.1"/>
</g>
<!-- NotReadyForSG?** -->
<g id="node11" class="node">
<title>NotReadyForSG?**</title>
<ellipse fill="gray" stroke="black" cx="640.77" cy="-162" rx="51.92" ry="18"/>
<text text-anchor="middle" x="640.77" y="-159.8" font-family="Times,serif" font-size="9.00">NotReadyForSG?**</text>
</g>
<!-- Fallback*&#45;&gt;NotReadyForSG?** -->
<g id="edge10" class="edge">
<title>Fallback*&#45;&gt;NotReadyForSG?**</title>
<path fill="none" stroke="black" d="M552.01,-220C567.88,-209.8 590.28,-195.42 608.6,-183.66"/>
<polygon fill="black" stroke="black" points="610.69,-186.47 617.22,-178.12 606.91,-180.58 610.69,-186.47"/>
</g>
<!-- LkGraph?* -->
<g id="node12" class="node">
<title>LkGraph?*</title>
<ellipse fill="gray" stroke="black" cx="743.77" cy="-162" rx="32.82" ry="18"/>
<text text-anchor="middle" x="743.77" y="-159.8" font-family="Times,serif" font-size="9.00">LkGraph?*</text>
</g>
<!-- Fallback*&#45;&gt;LkGraph?* -->
<g id="edge11" class="edge">
<title>Fallback*&#45;&gt;LkGraph?*</title>
<path fill="none" stroke="black" d="M556.3,-222.26C561.68,-220.07 567.38,-217.86 572.77,-216 629.03,-196.57 645.42,-199.2 701.77,-180 704.18,-179.18 706.65,-178.29 709.13,-177.37"/>
<polygon fill="black" stroke="black" points="710.55,-180.58 718.62,-173.71 708.03,-174.05 710.55,-180.58"/>
</g>
<!-- NotReadyForSG?*** -->
<g id="node13" class="node">
<title>NotReadyForSG?***</title>
<ellipse fill="gray" stroke="black" cx="849.77" cy="-162" rx="54.7" ry="18"/>
<text text-anchor="middle" x="849.77" y="-159.8" font-family="Times,serif" font-size="9.00">NotReadyForSG?***</text>
</g>
<!-- Fallback*&#45;&gt;NotReadyForSG?*** -->
<g id="edge12" class="edge">
<title>Fallback*&#45;&gt;NotReadyForSG?***</title>
<path fill="none" stroke="black" d="M555.72,-222.01C561.24,-219.78 567.14,-217.62 572.77,-216 665.03,-189.44 691.94,-200.35 785.77,-180 790.37,-179 795.14,-177.89 799.9,-176.72"/>
<polygon fill="black" stroke="black" points="800.78,-180.11 809.62,-174.27 799.06,-173.32 800.78,-180.11"/>
</g>
<!-- LkGraph?** -->
<g id="node14" class="node">
<title>LkGraph?**</title>
<ellipse fill="gray" stroke="black" cx="958.77" cy="-162" rx="35.59" ry="18"/>
<text text-anchor="middle" x="958.77" y="-159.8" font-family="Times,serif" font-size="9.00">LkGraph?**</text>
</g>
<!-- Fallback*&#45;&gt;LkGraph?** -->
<g id="edge13" class="edge">
<title>Fallback*&#45;&gt;LkGraph?**</title>
<path fill="none" stroke="black" d="M555.65,-221.75C561.17,-219.53 567.09,-217.44 572.77,-216 720.46,-178.43 765.49,-215.22 913.77,-180 916.76,-179.29 919.82,-178.43 922.87,-177.48"/>
<polygon fill="black" stroke="black" points="924.13,-180.75 932.47,-174.22 921.87,-174.13 924.13,-180.75"/>
</g>
<!-- Sequence* -->
<g id="node15" class="node">
<title>Sequence*</title>
<polygon fill="cyan" stroke="black" points="1081.01,-154.54 1081.01,-169.46 1060.95,-180 1032.58,-180 1012.52,-169.46 1012.52,-154.54 1032.58,-144 1060.95,-144 1081.01,-154.54"/>
<text text-anchor="middle" x="1046.77" y="-159.8" font-family="Times,serif" font-size="9.00">Sequence*</text>
</g>
<!-- Fallback*&#45;&gt;Sequence* -->
<g id="edge14" class="edge">
<title>Fallback*&#45;&gt;Sequence*</title>
<path fill="none" stroke="black" d="M555.19,-221.83C560.84,-219.55 566.92,-217.42 572.77,-216 759.56,-170.65 816.6,-223.81 1003.77,-180 1006.55,-179.35 1009.39,-178.55 1012.22,-177.66"/>
<polygon fill="black" stroke="black" points="1013.42,-180.95 1021.7,-174.33 1011.1,-174.34 1013.42,-180.95"/>
</g>
<!-- LkGraph?*** -->
<g id="node16" class="node">
<title>LkGraph?***</title>
<ellipse fill="gray" stroke="black" cx="759.77" cy="-90" rx="38.21" ry="18"/>
<text text-anchor="middle" x="759.77" y="-87.8" font-family="Times,serif" font-size="9.00">LkGraph?***</text>
</g>
<!-- Sequence*&#45;&gt;LkGraph?*** -->
<g id="edge15" class="edge">
<title>Sequence*&#45;&gt;LkGraph?***</title>
<path fill="none" stroke="black" d="M1021.13,-149.92C1015.48,-147.74 1009.48,-145.63 1003.77,-144 918.19,-119.52 892.69,-131.22 806.77,-108 803.84,-107.21 800.85,-106.32 797.85,-105.37"/>
<polygon fill="black" stroke="black" points="798.95,-102.05 788.36,-102.2 796.73,-108.69 798.95,-102.05"/>
</g>
<!-- GetSubGoal!** -->
<g id="node17" class="node">
<title>GetSubGoal!**</title>
<ellipse fill="gray" stroke="black" cx="857.77" cy="-90" rx="42.29" ry="18"/>
<text text-anchor="middle" x="857.77" y="-87.8" font-family="Times,serif" font-size="9.00">GetSubGoal!**</text>
</g>
<!-- Sequence*&#45;&gt;GetSubGoal!** -->
<g id="edge16" class="edge">
<title>Sequence*&#45;&gt;GetSubGoal!**</title>
<path fill="none" stroke="black" d="M1019.97,-150.27C1014.62,-148.17 1009.02,-145.99 1003.77,-144 968.43,-130.6 928.02,-115.99 898.69,-105.51"/>
<polygon fill="black" stroke="black" points="899.78,-102.18 889.19,-102.12 897.43,-108.77 899.78,-102.18"/>
</g>
<!-- LkGraph?**** -->
<g id="node18" class="node">
<title>LkGraph?****</title>
<ellipse fill="gray" stroke="black" cx="958.77" cy="-90" rx="40.98" ry="18"/>
<text text-anchor="middle" x="958.77" y="-87.8" font-family="Times,serif" font-size="9.00">LkGraph?****</text>
</g>
<!-- Sequence*&#45;&gt;LkGraph?**** -->
<g id="edge17" class="edge">
<title>Sequence*&#45;&gt;LkGraph?****</title>
<path fill="none" stroke="black" d="M1028.1,-146.15C1015.82,-136.38 999.54,-123.43 985.84,-112.54"/>
<polygon fill="black" stroke="black" points="987.71,-109.55 977.7,-106.07 983.35,-115.03 987.71,-109.55"/>
</g>
<!-- MoveTo! -->
<g id="node19" class="node">
<title>MoveTo!</title>
<ellipse fill="gray" stroke="black" cx="1046.77" cy="-90" rx="28.74" ry="18"/>
<text text-anchor="middle" x="1046.77" y="-87.8" font-family="Times,serif" font-size="9.00">MoveTo!</text>
</g>
<!-- Sequence*&#45;&gt;MoveTo! -->
<g id="edge18" class="edge">
<title>Sequence*&#45;&gt;MoveTo!</title>
<path fill="none" stroke="black" d="M1046.77,-143.7C1046.77,-135.98 1046.77,-126.71 1046.77,-118.11"/>
<polygon fill="black" stroke="black" points="1050.27,-118.1 1046.77,-108.1 1043.27,-118.1 1050.27,-118.1"/>
</g>
<!-- GetSubGoal!*** -->
<g id="node20" class="node">
<title>GetSubGoal!***</title>
<ellipse fill="gray" stroke="black" cx="1137.77" cy="-90" rx="44.41" ry="18"/>
<text text-anchor="middle" x="1137.77" y="-87.8" font-family="Times,serif" font-size="9.00">GetSubGoal!***</text>
</g>
<!-- Sequence*&#45;&gt;GetSubGoal!*** -->
<g id="edge19" class="edge">
<title>Sequence*&#45;&gt;GetSubGoal!***</title>
<path fill="none" stroke="black" d="M1066.06,-146.15C1078.8,-136.36 1095.69,-123.37 1109.88,-112.45"/>
<polygon fill="black" stroke="black" points="1112.07,-115.18 1117.87,-106.31 1107.81,-109.63 1112.07,-115.18"/>
</g>
<!-- Fallback** -->
<g id="node21" class="node">
<title>Fallback**</title>
<polygon fill="cyan" stroke="black" points="1269.76,-82.54 1269.76,-97.46 1249.26,-108 1220.27,-108 1199.77,-97.46 1199.77,-82.54 1220.27,-72 1249.26,-72 1269.76,-82.54"/>
<text text-anchor="middle" x="1234.77" y="-87.8" font-family="Times,serif" font-size="9.00">Fallback**</text>
</g>
<!-- Sequence*&#45;&gt;Fallback** -->
<g id="edge20" class="edge">
<title>Sequence*&#45;&gt;Fallback**</title>
<path fill="none" stroke="black" d="M1074.42,-150.97C1103.45,-140.41 1150.39,-123.23 1190.77,-108 1193.11,-107.11 1195.53,-106.2 1197.96,-105.27"/>
<polygon fill="black" stroke="black" points="1199.25,-108.53 1207.33,-101.68 1196.74,-101.99 1199.25,-108.53"/>
</g>
<!-- LkGraph?****** -->
<g id="node24" class="node">
<title>LkGraph?******</title>
<ellipse fill="gray" stroke="black" cx="1333.77" cy="-90" rx="46.38" ry="18"/>
<text text-anchor="middle" x="1333.77" y="-87.8" font-family="Times,serif" font-size="9.00">LkGraph?******</text>
</g>
<!-- Sequence*&#45;&gt;LkGraph?****** -->
<g id="edge23" class="edge">
<title>Sequence*&#45;&gt;LkGraph?******</title>
<path fill="none" stroke="black" d="M1080.39,-154.15C1125.69,-144.73 1208.73,-126.79 1278.77,-108 1282.3,-107.05 1285.96,-106.02 1289.62,-104.96"/>
<polygon fill="black" stroke="black" points="1290.67,-108.3 1299.26,-102.1 1288.68,-101.59 1290.67,-108.3"/>
</g>
<!-- LkGraph?***** -->
<g id="node22" class="node">
<title>LkGraph?*****</title>
<ellipse fill="gray" stroke="black" cx="1179.77" cy="-18" rx="43.1" ry="18"/>
<text text-anchor="middle" x="1179.77" y="-15.8" font-family="Times,serif" font-size="9.00">LkGraph?*****</text>
</g>
<!-- Fallback**&#45;&gt;LkGraph?***** -->
<g id="edge21" class="edge">
<title>Fallback**&#45;&gt;LkGraph?*****</title>
<path fill="none" stroke="black" d="M1221.17,-71.7C1214.55,-63.27 1206.46,-52.97 1199.2,-43.73"/>
<polygon fill="black" stroke="black" points="1201.76,-41.32 1192.83,-35.62 1196.25,-45.65 1201.76,-41.32"/>
</g>
<!-- GetSubGoal!**** -->
<g id="node23" class="node">
<title>GetSubGoal!****</title>
<ellipse fill="gray" stroke="black" cx="1288.77" cy="-18" rx="47.19" ry="18"/>
<text text-anchor="middle" x="1288.77" y="-15.8" font-family="Times,serif" font-size="9.00">GetSubGoal!****</text>
</g>
<!-- Fallback**&#45;&gt;GetSubGoal!**** -->
<g id="edge22" class="edge">
<title>Fallback**&#45;&gt;GetSubGoal!****</title>
<path fill="none" stroke="black" d="M1248.11,-71.7C1254.62,-63.27 1262.56,-52.97 1269.69,-43.73"/>
<polygon fill="black" stroke="black" points="1272.61,-45.68 1275.94,-35.62 1267.06,-41.4 1272.61,-45.68"/>
</g>
</g>
</svg>
