<?xml version="1.0" encoding="UTF-8" standalone="no"?>
<!DOCTYPE svg PUBLIC "-//W3C//DTD SVG 1.1//EN"
 "http://www.w3.org/Graphics/SVG/1.1/DTD/svg11.dtd">
<!-- Generated by graphviz version 2.43.0 (0)
 -->
<!-- Title: pastafarianism Pages: 1 -->
<svg width="1411pt" height="404pt"
 viewBox="0.00 0.00 1410.87 404.00" xmlns="http://www.w3.org/2000/svg" xmlns:xlink="http://www.w3.org/1999/xlink">
<g id="graph0" class="graph" transform="scale(1 1) rotate(0) translate(4 400)">
<title>pastafarianism</title>
<polygon fill="white" stroke="transparent" points="-4,4 -4,-400 1406.87,-400 1406.87,4 -4,4"/>
<!-- Fallback -->
<g id="node1" class="node">
<title>Fallback</title>
<polygon fill="cyan" stroke="black" points="535.01,-370.54 535.01,-385.46 517.88,-396 493.65,-396 476.52,-385.46 476.52,-370.54 493.65,-360 517.88,-360 535.01,-370.54"/>
<text text-anchor="middle" x="505.77" y="-375.8" font-family="Times,serif" font-size="9.00">Fallback</text>
</g>
<!-- ReachGoal? -->
<g id="node2" class="node">
<title>ReachGoal?</title>
<ellipse fill="gray" stroke="black" cx="422.77" cy="-306" rx="34.13" ry="18"/>
<text text-anchor="middle" x="422.77" y="-303.8" font-family="Times,serif" font-size="9.00">ReachGoal?</text>
</g>
<!-- Fallback&#45;&gt;ReachGoal? -->
<g id="edge1" class="edge">
<title>Fallback&#45;&gt;ReachGoal?</title>
<path fill="none" stroke="black" d="M488.97,-362.83C477.2,-352.91 461.27,-339.47 447.98,-328.26"/>
<polygon fill="black" stroke="black" points="450.01,-325.4 440.11,-321.63 445.5,-330.75 450.01,-325.4"/>
</g>
<!-- LkGraph? -->
<g id="node3" class="node">
<title>LkGraph?</title>
<ellipse fill="gray" stroke="black" cx="505.77" cy="-306" rx="30.7" ry="18"/>
<text text-anchor="middle" x="505.77" y="-303.8" font-family="Times,serif" font-size="9.00">LkGraph?</text>
</g>
<!-- Fallback&#45;&gt;LkGraph? -->
<g id="edge2" class="edge">
<title>Fallback&#45;&gt;LkGraph?</title>
<path fill="none" stroke="black" d="M505.77,-359.7C505.77,-351.98 505.77,-342.71 505.77,-334.11"/>
<polygon fill="black" stroke="black" points="509.27,-334.1 505.77,-324.1 502.27,-334.1 509.27,-334.1"/>
</g>
<!-- Sequence -->
<g id="node4" class="node">
<title>Sequence</title>
<polygon fill="cyan" stroke="black" points="617.26,-298.54 617.26,-313.46 598.81,-324 572.72,-324 554.27,-313.46 554.27,-298.54 572.72,-288 598.81,-288 617.26,-298.54"/>
<text text-anchor="middle" x="585.77" y="-303.8" font-family="Times,serif" font-size="9.00">Sequence</text>
</g>
<!-- Fallback&#45;&gt;Sequence -->
<g id="edge3" class="edge">
<title>Fallback&#45;&gt;Sequence</title>
<path fill="none" stroke="black" d="M522.34,-362.5C533.45,-352.77 548.29,-339.79 560.82,-328.83"/>
<polygon fill="black" stroke="black" points="563.44,-331.19 568.66,-321.97 558.83,-325.92 563.44,-331.19"/>
</g>
<!-- Fallback* -->
<g id="node5" class="node">
<title>Fallback*</title>
<polygon fill="cyan" stroke="black" points="533.51,-226.54 533.51,-241.46 514.91,-252 488.62,-252 470.02,-241.46 470.02,-226.54 488.62,-216 514.91,-216 533.51,-226.54"/>
<text text-anchor="middle" x="501.77" y="-231.8" font-family="Times,serif" font-size="9.00">Fallback*</text>
</g>
<!-- Sequence&#45;&gt;Fallback* -->
<g id="edge4" class="edge">
<title>Sequence&#45;&gt;Fallback*</title>
<path fill="none" stroke="black" d="M567.95,-290.15C556.07,-280.25 540.26,-267.08 527.08,-256.09"/>
<polygon fill="black" stroke="black" points="529.19,-253.3 519.27,-249.58 524.71,-258.67 529.19,-253.3"/>
</g>
<!-- MoveTo!** -->
<g id="node27" class="node">
<title>MoveTo!**</title>
<ellipse fill="gray" stroke="black" cx="585.77" cy="-234" rx="34.13" ry="18"/>
<text text-anchor="middle" x="585.77" y="-231.8" font-family="Times,serif" font-size="9.00">MoveTo!**</text>
</g>
<!-- Sequence&#45;&gt;MoveTo!** -->
<g id="edge26" class="edge">
<title>Sequence&#45;&gt;MoveTo!**</title>
<path fill="none" stroke="black" d="M585.77,-287.7C585.77,-279.98 585.77,-270.71 585.77,-262.11"/>
<polygon fill="black" stroke="black" points="589.27,-262.1 585.77,-252.1 582.27,-262.1 589.27,-262.1"/>
</g>
<!-- LkGraph?**** -->
<g id="node28" class="node">
<title>LkGraph?****</title>
<ellipse fill="gray" stroke="black" cx="678.77" cy="-234" rx="40.98" ry="18"/>
<text text-anchor="middle" x="678.77" y="-231.8" font-family="Times,serif" font-size="9.00">LkGraph?****</text>
</g>
<!-- Sequence&#45;&gt;LkGraph?**** -->
<g id="edge27" class="edge">
<title>Sequence&#45;&gt;LkGraph?****</title>
<path fill="none" stroke="black" d="M604.59,-290.83C617.81,-280.88 635.72,-267.4 650.64,-256.17"/>
<polygon fill="black" stroke="black" points="653.13,-258.68 659.01,-249.87 648.92,-253.09 653.13,-258.68"/>
</g>
<!-- NotReadyForSG? -->
<g id="node6" class="node">
<title>NotReadyForSG?</title>
<ellipse fill="gray" stroke="black" cx="46.77" cy="-162" rx="46.53" ry="18"/>
<text text-anchor="middle" x="46.77" y="-159.8" font-family="Times,serif" font-size="9.00">NotReadyForSG?</text>
</g>
<!-- Fallback*&#45;&gt;NotReadyForSG? -->
<g id="edge5" class="edge">
<title>Fallback*&#45;&gt;NotReadyForSG?</title>
<path fill="none" stroke="black" d="M469.91,-230.54C401.89,-224.9 237.65,-209.23 102.77,-180 98.86,-179.15 94.82,-178.16 90.8,-177.1"/>
<polygon fill="black" stroke="black" points="91.46,-173.65 80.89,-174.32 89.57,-180.39 91.46,-173.65"/>
</g>
<!-- ReachGoal?* -->
<g id="node7" class="node">
<title>ReachGoal?*</title>
<ellipse fill="gray" stroke="black" cx="148.77" cy="-162" rx="36.9" ry="18"/>
<text text-anchor="middle" x="148.77" y="-159.8" font-family="Times,serif" font-size="9.00">ReachGoal?*</text>
</g>
<!-- Fallback*&#45;&gt;ReachGoal?* -->
<g id="edge6" class="edge">
<title>Fallback*&#45;&gt;ReachGoal?*</title>
<path fill="none" stroke="black" d="M469.97,-229.46C413.77,-222.77 293.49,-206.52 194.77,-180 191.82,-179.21 188.79,-178.3 185.77,-177.34"/>
<polygon fill="black" stroke="black" points="186.83,-174 176.23,-174.08 184.56,-180.62 186.83,-174"/>
</g>
<!-- GetSubGoal! -->
<g id="node8" class="node">
<title>GetSubGoal!</title>
<ellipse fill="gray" stroke="black" cx="240.77" cy="-162" rx="36.9" ry="18"/>
<text text-anchor="middle" x="240.77" y="-159.8" font-family="Times,serif" font-size="9.00">GetSubGoal!</text>
</g>
<!-- Fallback*&#45;&gt;GetSubGoal! -->
<g id="edge7" class="edge">
<title>Fallback*&#45;&gt;GetSubGoal!</title>
<path fill="none" stroke="black" d="M470.13,-226.37C427.93,-217.26 351.08,-199.74 286.77,-180 284.02,-179.16 281.2,-178.24 278.37,-177.28"/>
<polygon fill="black" stroke="black" points="279.41,-173.94 268.81,-173.93 277.09,-180.55 279.41,-173.94"/>
</g>
<!-- NotReadyForSG?* -->
<g id="node9" class="node">
<title>NotReadyForSG?*</title>
<ellipse fill="gray" stroke="black" cx="345.77" cy="-162" rx="49.8" ry="18"/>
<text text-anchor="middle" x="345.77" y="-159.8" font-family="Times,serif" font-size="9.00">NotReadyForSG?*</text>
</g>
<!-- Fallback*&#45;&gt;NotReadyForSG?* -->
<g id="edge8" class="edge">
<title>Fallback*&#45;&gt;NotReadyForSG?*</title>
<path fill="none" stroke="black" d="M477.39,-222.06C452.75,-211.01 414.28,-193.74 385.28,-180.73"/>
<polygon fill="black" stroke="black" points="386.4,-177.4 375.84,-176.5 383.53,-183.78 386.4,-177.4"/>
</g>
<!-- GetSubGoal!* -->
<g id="node10" class="node">
<title>GetSubGoal!*</title>
<ellipse fill="gray" stroke="black" cx="452.77" cy="-162" rx="39.02" ry="18"/>
<text text-anchor="middle" x="452.77" y="-159.8" font-family="Times,serif" font-size="9.00">GetSubGoal!*</text>
</g>
<!-- Fallback*&#45;&gt;GetSubGoal!* -->
<g id="edge9" class="edge">
<title>Fallback*&#45;&gt;GetSubGoal!*</title>
<path fill="none" stroke="black" d="M489.65,-215.7C483.81,-207.35 476.69,-197.18 470.28,-188.02"/>
<polygon fill="black" stroke="black" points="473,-185.81 464.4,-179.62 467.27,-189.82 473,-185.81"/>
</g>
<!-- GetSubGoal!** -->
<g id="node11" class="node">
<title>GetSubGoal!**</title>
<ellipse fill="gray" stroke="black" cx="551.77" cy="-162" rx="42.29" ry="18"/>
<text text-anchor="middle" x="551.77" y="-159.8" font-family="Times,serif" font-size="9.00">GetSubGoal!**</text>
</g>
<!-- Fallback*&#45;&gt;GetSubGoal!** -->
<g id="edge10" class="edge">
<title>Fallback*&#45;&gt;GetSubGoal!**</title>
<path fill="none" stroke="black" d="M514.12,-215.7C520.09,-207.35 527.35,-197.18 533.9,-188.02"/>
<polygon fill="black" stroke="black" points="536.93,-189.79 539.89,-179.62 531.23,-185.73 536.93,-189.79"/>
</g>
<!-- ReachGoal?** -->
<g id="node12" class="node">
<title>ReachGoal?**</title>
<ellipse fill="gray" stroke="black" cx="650.77" cy="-162" rx="39.02" ry="18"/>
<text text-anchor="middle" x="650.77" y="-159.8" font-family="Times,serif" font-size="9.00">ReachGoal?**</text>
</g>
<!-- Fallback*&#45;&gt;ReachGoal?** -->
<g id="edge11" class="edge">
<title>Fallback*&#45;&gt;ReachGoal?**</title>
<path fill="none" stroke="black" d="M525.37,-221.91C549.45,-210.6 587.11,-192.9 614.88,-179.86"/>
<polygon fill="black" stroke="black" points="616.69,-182.88 624.25,-175.46 613.71,-176.54 616.69,-182.88"/>
</g>
<!-- NotReadyForSG?** -->
<g id="node13" class="node">
<title>NotReadyForSG?**</title>
<ellipse fill="gray" stroke="black" cx="759.77" cy="-162" rx="51.92" ry="18"/>
<text text-anchor="middle" x="759.77" y="-159.8" font-family="Times,serif" font-size="9.00">NotReadyForSG?**</text>
</g>
<!-- Fallback*&#45;&gt;NotReadyForSG?** -->
<g id="edge12" class="edge">
<title>Fallback*&#45;&gt;NotReadyForSG?**</title>
<path fill="none" stroke="black" d="M526.23,-222.08C531.62,-219.89 537.33,-217.74 542.77,-216 610.53,-194.3 629.81,-197.56 698.77,-180 702.84,-178.96 707.06,-177.86 711.29,-176.72"/>
<polygon fill="black" stroke="black" points="712.38,-180.05 721.11,-174.05 710.54,-173.3 712.38,-180.05"/>
</g>
<!-- ReachGoal?*** -->
<g id="node14" class="node">
<title>ReachGoal?***</title>
<ellipse fill="gray" stroke="black" cx="871.77" cy="-162" rx="42.29" ry="18"/>
<text text-anchor="middle" x="871.77" y="-159.8" font-family="Times,serif" font-size="9.00">ReachGoal?***</text>
</g>
<!-- Fallback*&#45;&gt;ReachGoal?*** -->
<g id="edge13" class="edge">
<title>Fallback*&#45;&gt;ReachGoal?***</title>
<path fill="none" stroke="black" d="M525.68,-221.85C531.2,-219.62 537.11,-217.51 542.77,-216 663.14,-183.86 699.33,-207.83 820.77,-180 824.14,-179.23 827.61,-178.32 831.08,-177.33"/>
<polygon fill="black" stroke="black" points="832.2,-180.65 840.75,-174.4 830.16,-173.95 832.2,-180.65"/>
</g>
<!-- Sequence* -->
<g id="node15" class="node">
<title>Sequence*</title>
<polygon fill="cyan" stroke="black" points="1001.01,-154.54 1001.01,-169.46 980.95,-180 952.58,-180 932.52,-169.46 932.52,-154.54 952.58,-144 980.95,-144 1001.01,-154.54"/>
<text text-anchor="middle" x="966.77" y="-159.8" font-family="Times,serif" font-size="9.00">Sequence*</text>
</g>
<!-- Fallback*&#45;&gt;Sequence* -->
<g id="edge14" class="edge">
<title>Fallback*&#45;&gt;Sequence*</title>
<path fill="none" stroke="black" d="M525.64,-221.7C531.16,-219.49 537.08,-217.41 542.77,-216 707.4,-175.06 757.65,-218.94 922.77,-180 925.6,-179.33 928.51,-178.52 931.4,-177.62"/>
<polygon fill="black" stroke="black" points="932.77,-180.84 941.08,-174.28 930.49,-174.23 932.77,-180.84"/>
</g>
<!-- LkGraph?* -->
<g id="node16" class="node">
<title>LkGraph?*</title>
<ellipse fill="gray" stroke="black" cx="571.77" cy="-90" rx="32.82" ry="18"/>
<text text-anchor="middle" x="571.77" y="-87.8" font-family="Times,serif" font-size="9.00">LkGraph?*</text>
</g>
<!-- Sequence*&#45;&gt;LkGraph?* -->
<g id="edge15" class="edge">
<title>Sequence*&#45;&gt;LkGraph?*</title>
<path fill="none" stroke="black" d="M941.06,-149.82C935.14,-147.6 928.81,-145.49 922.77,-144 788.54,-110.82 747.72,-142.25 613.77,-108 611.14,-107.33 608.46,-106.53 605.79,-105.65"/>
<polygon fill="black" stroke="black" points="606.86,-102.32 596.27,-102.2 604.48,-108.9 606.86,-102.32"/>
</g>
<!-- GetSubGoal!*** -->
<g id="node17" class="node">
<title>GetSubGoal!***</title>
<ellipse fill="gray" stroke="black" cx="666.77" cy="-90" rx="44.41" ry="18"/>
<text text-anchor="middle" x="666.77" y="-87.8" font-family="Times,serif" font-size="9.00">GetSubGoal!***</text>
</g>
<!-- Sequence*&#45;&gt;GetSubGoal!*** -->
<g id="edge16" class="edge">
<title>Sequence*&#45;&gt;GetSubGoal!***</title>
<path fill="none" stroke="black" d="M940.99,-150.09C935.07,-147.85 928.76,-145.67 922.77,-144 834.51,-119.37 808.7,-130.04 719.77,-108 716.38,-107.16 712.9,-106.22 709.41,-105.22"/>
<polygon fill="black" stroke="black" points="710.23,-101.82 699.65,-102.3 708.22,-108.52 710.23,-101.82"/>
</g>
<!-- MoveTo! -->
<g id="node18" class="node">
<title>MoveTo!</title>
<ellipse fill="gray" stroke="black" cx="757.77" cy="-90" rx="28.74" ry="18"/>
<text text-anchor="middle" x="757.77" y="-87.8" font-family="Times,serif" font-size="9.00">MoveTo!</text>
</g>
<!-- Sequence*&#45;&gt;MoveTo! -->
<g id="edge17" class="edge">
<title>Sequence*&#45;&gt;MoveTo!</title>
<path fill="none" stroke="black" d="M940.38,-150.35C934.61,-148.15 928.51,-145.92 922.77,-144 867.12,-125.41 850.91,-128.03 795.77,-108 793.67,-107.24 791.52,-106.41 789.37,-105.55"/>
<polygon fill="black" stroke="black" points="790.62,-102.28 780.05,-101.61 787.9,-108.73 790.62,-102.28"/>
</g>
<!-- GetSubGoal!**** -->
<g id="node19" class="node">
<title>GetSubGoal!****</title>
<ellipse fill="gray" stroke="black" cx="851.77" cy="-90" rx="47.19" ry="18"/>
<text text-anchor="middle" x="851.77" y="-87.8" font-family="Times,serif" font-size="9.00">GetSubGoal!****</text>
</g>
<!-- Sequence*&#45;&gt;GetSubGoal!**** -->
<g id="edge18" class="edge">
<title>Sequence*&#45;&gt;GetSubGoal!****</title>
<path fill="none" stroke="black" d="M945.13,-147.83C927.98,-137.39 903.74,-122.64 884.26,-110.78"/>
<polygon fill="black" stroke="black" points="886.04,-107.77 875.68,-105.56 882.4,-113.75 886.04,-107.77"/>
</g>
<!-- GetSubGoal!***** -->
<g id="node20" class="node">
<title>GetSubGoal!*****</title>
<ellipse fill="gray" stroke="black" cx="966.77" cy="-90" rx="49.8" ry="18"/>
<text text-anchor="middle" x="966.77" y="-87.8" font-family="Times,serif" font-size="9.00">GetSubGoal!*****</text>
</g>
<!-- Sequence*&#45;&gt;GetSubGoal!***** -->
<g id="edge19" class="edge">
<title>Sequence*&#45;&gt;GetSubGoal!*****</title>
<path fill="none" stroke="black" d="M966.77,-143.7C966.77,-135.98 966.77,-126.71 966.77,-118.11"/>
<polygon fill="black" stroke="black" points="970.27,-118.1 966.77,-108.1 963.27,-118.1 970.27,-118.1"/>
</g>
<!-- GetSubGoal!****** -->
<g id="node21" class="node">
<title>GetSubGoal!******</title>
<ellipse fill="gray" stroke="black" cx="1086.77" cy="-90" rx="52.58" ry="18"/>
<text text-anchor="middle" x="1086.77" y="-87.8" font-family="Times,serif" font-size="9.00">GetSubGoal!******</text>
</g>
<!-- Sequence*&#45;&gt;GetSubGoal!****** -->
<g id="edge20" class="edge">
<title>Sequence*&#45;&gt;GetSubGoal!******</title>
<path fill="none" stroke="black" d="M989.06,-148C1006.89,-137.6 1032.19,-122.84 1052.58,-110.94"/>
<polygon fill="black" stroke="black" points="1054.39,-113.94 1061.27,-105.87 1050.87,-107.89 1054.39,-113.94"/>
</g>
<!-- MoveTo!* -->
<g id="node22" class="node">
<title>MoveTo!*</title>
<ellipse fill="gray" stroke="black" cx="1188.77" cy="-90" rx="31.51" ry="18"/>
<text text-anchor="middle" x="1188.77" y="-87.8" font-family="Times,serif" font-size="9.00">MoveTo!*</text>
</g>
<!-- Sequence*&#45;&gt;MoveTo!* -->
<g id="edge21" class="edge">
<title>Sequence*&#45;&gt;MoveTo!*</title>
<path fill="none" stroke="black" d="M998.36,-153.02C1034.95,-143.49 1096.85,-126.52 1148.77,-108 1150.84,-107.26 1152.97,-106.46 1155.11,-105.64"/>
<polygon fill="black" stroke="black" points="1156.44,-108.88 1164.41,-101.89 1153.82,-102.38 1156.44,-108.88"/>
</g>
<!-- Fallback** -->
<g id="node23" class="node">
<title>Fallback**</title>
<polygon fill="cyan" stroke="black" points="1308.76,-82.54 1308.76,-97.46 1288.26,-108 1259.27,-108 1238.77,-97.46 1238.77,-82.54 1259.27,-72 1288.26,-72 1308.76,-82.54"/>
<text text-anchor="middle" x="1273.77" y="-87.8" font-family="Times,serif" font-size="9.00">Fallback**</text>
</g>
<!-- Sequence*&#45;&gt;Fallback** -->
<g id="edge22" class="edge">
<title>Sequence*&#45;&gt;Fallback**</title>
<path fill="none" stroke="black" d="M1001.26,-155.97C1051.95,-148.14 1149.28,-131.47 1229.77,-108 1232.4,-107.23 1235.1,-106.37 1237.8,-105.46"/>
<polygon fill="black" stroke="black" points="1239.26,-108.66 1247.49,-101.99 1236.9,-102.07 1239.26,-108.66"/>
</g>
<!-- LkGraph?*** -->
<g id="node26" class="node">
<title>LkGraph?***</title>
<ellipse fill="gray" stroke="black" cx="1364.77" cy="-90" rx="38.21" ry="18"/>
<text text-anchor="middle" x="1364.77" y="-87.8" font-family="Times,serif" font-size="9.00">LkGraph?***</text>
</g>
<!-- Sequence*&#45;&gt;LkGraph?*** -->
<g id="edge25" class="edge">
<title>Sequence*&#45;&gt;LkGraph?***</title>
<path fill="none" stroke="black" d="M1001.09,-158.08C1064.44,-152.2 1203.67,-136.95 1317.77,-108 1320.7,-107.26 1323.7,-106.4 1326.71,-105.47"/>
<polygon fill="black" stroke="black" points="1327.81,-108.8 1336.21,-102.34 1325.62,-102.15 1327.81,-108.8"/>
</g>
<!-- LkGraph?** -->
<g id="node24" class="node">
<title>LkGraph?**</title>
<ellipse fill="gray" stroke="black" cx="1218.77" cy="-18" rx="35.59" ry="18"/>
<text text-anchor="middle" x="1218.77" y="-15.8" font-family="Times,serif" font-size="9.00">LkGraph?**</text>
</g>
<!-- Fallback**&#45;&gt;LkGraph?** -->
<g id="edge23" class="edge">
<title>Fallback**&#45;&gt;LkGraph?**</title>
<path fill="none" stroke="black" d="M1260.17,-71.7C1253.38,-63.05 1245.05,-52.46 1237.65,-43.04"/>
<polygon fill="black" stroke="black" points="1240.38,-40.85 1231.45,-35.14 1234.88,-45.17 1240.38,-40.85"/>
</g>
<!-- GetSubGoal!******* -->
<g id="node25" class="node">
<title>GetSubGoal!*******</title>
<ellipse fill="gray" stroke="black" cx="1327.77" cy="-18" rx="54.7" ry="18"/>
<text text-anchor="middle" x="1327.77" y="-15.8" font-family="Times,serif" font-size="9.00">GetSubGoal!*******</text>
</g>
<!-- Fallback**&#45;&gt;GetSubGoal!******* -->
<g id="edge24" class="edge">
<title>Fallback**&#45;&gt;GetSubGoal!*******</title>
<path fill="none" stroke="black" d="M1287.11,-71.7C1293.62,-63.27 1301.56,-52.97 1308.69,-43.73"/>
<polygon fill="black" stroke="black" points="1311.61,-45.68 1314.94,-35.62 1306.06,-41.4 1311.61,-45.68"/>
</g>
</g>
</svg>
