<?xml version="1.0" encoding="UTF-8" standalone="no"?>
<!DOCTYPE svg PUBLIC "-//W3C//DTD SVG 1.1//EN"
 "http://www.w3.org/Graphics/SVG/1.1/DTD/svg11.dtd">
<!-- Generated by graphviz version 2.43.0 (0)
 -->
<!-- Title: pastafarianism Pages: 1 -->
<svg width="1499pt" height="404pt"
 viewBox="0.00 0.00 1498.61 404.00" xmlns="http://www.w3.org/2000/svg" xmlns:xlink="http://www.w3.org/1999/xlink">
<g id="graph0" class="graph" transform="scale(1 1) rotate(0) translate(4 400)">
<title>pastafarianism</title>
<polygon fill="white" stroke="transparent" points="-4,4 -4,-400 1494.61,-400 1494.61,4 -4,4"/>
<!-- Fallback -->
<g id="node1" class="node">
<title>Fallback</title>
<polygon fill="cyan" stroke="black" points="585.01,-370.54 585.01,-385.46 567.88,-396 543.65,-396 526.52,-385.46 526.52,-370.54 543.65,-360 567.88,-360 585.01,-370.54"/>
<text text-anchor="middle" x="555.77" y="-375.8" font-family="Times,serif" font-size="9.00">Fallback</text>
</g>
<!-- ReachGoal? -->
<g id="node2" class="node">
<title>ReachGoal?</title>
<ellipse fill="gray" stroke="black" cx="472.77" cy="-306" rx="34.13" ry="18"/>
<text text-anchor="middle" x="472.77" y="-303.8" font-family="Times,serif" font-size="9.00">ReachGoal?</text>
</g>
<!-- Fallback&#45;&gt;ReachGoal? -->
<g id="edge1" class="edge">
<title>Fallback&#45;&gt;ReachGoal?</title>
<path fill="none" stroke="black" d="M538.97,-362.83C527.2,-352.91 511.27,-339.47 497.98,-328.26"/>
<polygon fill="black" stroke="black" points="500.01,-325.4 490.11,-321.63 495.5,-330.75 500.01,-325.4"/>
</g>
<!-- LkGraph? -->
<g id="node3" class="node">
<title>LkGraph?</title>
<ellipse fill="gray" stroke="black" cx="555.77" cy="-306" rx="30.7" ry="18"/>
<text text-anchor="middle" x="555.77" y="-303.8" font-family="Times,serif" font-size="9.00">LkGraph?</text>
</g>
<!-- Fallback&#45;&gt;LkGraph? -->
<g id="edge2" class="edge">
<title>Fallback&#45;&gt;LkGraph?</title>
<path fill="none" stroke="black" d="M555.77,-359.7C555.77,-351.98 555.77,-342.71 555.77,-334.11"/>
<polygon fill="black" stroke="black" points="559.27,-334.1 555.77,-324.1 552.27,-334.1 559.27,-334.1"/>
</g>
<!-- Sequence -->
<g id="node4" class="node">
<title>Sequence</title>
<polygon fill="cyan" stroke="black" points="667.26,-298.54 667.26,-313.46 648.81,-324 622.72,-324 604.27,-313.46 604.27,-298.54 622.72,-288 648.81,-288 667.26,-298.54"/>
<text text-anchor="middle" x="635.77" y="-303.8" font-family="Times,serif" font-size="9.00">Sequence</text>
</g>
<!-- Fallback&#45;&gt;Sequence -->
<g id="edge3" class="edge">
<title>Fallback&#45;&gt;Sequence</title>
<path fill="none" stroke="black" d="M572.34,-362.5C583.45,-352.77 598.29,-339.79 610.82,-328.83"/>
<polygon fill="black" stroke="black" points="613.44,-331.19 618.66,-321.97 608.83,-325.92 613.44,-331.19"/>
</g>
<!-- Fallback* -->
<g id="node5" class="node">
<title>Fallback*</title>
<polygon fill="cyan" stroke="black" points="583.51,-226.54 583.51,-241.46 564.91,-252 538.62,-252 520.02,-241.46 520.02,-226.54 538.62,-216 564.91,-216 583.51,-226.54"/>
<text text-anchor="middle" x="551.77" y="-231.8" font-family="Times,serif" font-size="9.00">Fallback*</text>
</g>
<!-- Sequence&#45;&gt;Fallback* -->
<g id="edge4" class="edge">
<title>Sequence&#45;&gt;Fallback*</title>
<path fill="none" stroke="black" d="M617.95,-290.15C606.07,-280.25 590.26,-267.08 577.08,-256.09"/>
<polygon fill="black" stroke="black" points="579.19,-253.3 569.27,-249.58 574.71,-258.67 579.19,-253.3"/>
</g>
<!-- MoveTo!** -->
<g id="node26" class="node">
<title>MoveTo!**</title>
<ellipse fill="gray" stroke="black" cx="635.77" cy="-234" rx="34.13" ry="18"/>
<text text-anchor="middle" x="635.77" y="-231.8" font-family="Times,serif" font-size="9.00">MoveTo!**</text>
</g>
<!-- Sequence&#45;&gt;MoveTo!** -->
<g id="edge25" class="edge">
<title>Sequence&#45;&gt;MoveTo!**</title>
<path fill="none" stroke="black" d="M635.77,-287.7C635.77,-279.98 635.77,-270.71 635.77,-262.11"/>
<polygon fill="black" stroke="black" points="639.27,-262.1 635.77,-252.1 632.27,-262.1 639.27,-262.1"/>
</g>
<!-- LkGraph?*** -->
<g id="node27" class="node">
<title>LkGraph?***</title>
<ellipse fill="gray" stroke="black" cx="725.77" cy="-234" rx="38.21" ry="18"/>
<text text-anchor="middle" x="725.77" y="-231.8" font-family="Times,serif" font-size="9.00">LkGraph?***</text>
</g>
<!-- Sequence&#45;&gt;LkGraph?*** -->
<g id="edge26" class="edge">
<title>Sequence&#45;&gt;LkGraph?***</title>
<path fill="none" stroke="black" d="M653.98,-290.83C666.77,-280.88 684.11,-267.4 698.54,-256.17"/>
<polygon fill="black" stroke="black" points="700.9,-258.77 706.65,-249.87 696.61,-253.25 700.9,-258.77"/>
</g>
<!-- NotReadyForSG? -->
<g id="node6" class="node">
<title>NotReadyForSG?</title>
<ellipse fill="gray" stroke="black" cx="46.77" cy="-162" rx="46.53" ry="18"/>
<text text-anchor="middle" x="46.77" y="-159.8" font-family="Times,serif" font-size="9.00">NotReadyForSG?</text>
</g>
<!-- Fallback*&#45;&gt;NotReadyForSG? -->
<g id="edge5" class="edge">
<title>Fallback*&#45;&gt;NotReadyForSG?</title>
<path fill="none" stroke="black" d="M519.88,-231.18C445.92,-226.55 257.2,-212.29 102.77,-180 98.85,-179.18 94.81,-178.21 90.79,-177.16"/>
<polygon fill="black" stroke="black" points="91.44,-173.71 80.87,-174.4 89.57,-180.45 91.44,-173.71"/>
</g>
<!-- ReachGoal?* -->
<g id="node7" class="node">
<title>ReachGoal?*</title>
<ellipse fill="gray" stroke="black" cx="148.77" cy="-162" rx="36.9" ry="18"/>
<text text-anchor="middle" x="148.77" y="-159.8" font-family="Times,serif" font-size="9.00">ReachGoal?*</text>
</g>
<!-- Fallback*&#45;&gt;ReachGoal?* -->
<g id="edge6" class="edge">
<title>Fallback*&#45;&gt;ReachGoal?*</title>
<path fill="none" stroke="black" d="M519.81,-230.49C456.82,-225.04 312.52,-210.16 194.77,-180 191.81,-179.24 188.78,-178.36 185.75,-177.41"/>
<polygon fill="black" stroke="black" points="186.8,-174.07 176.2,-174.19 184.56,-180.7 186.8,-174.07"/>
</g>
<!-- GetSubGoal! -->
<g id="node8" class="node">
<title>GetSubGoal!</title>
<ellipse fill="gray" stroke="black" cx="240.77" cy="-162" rx="36.9" ry="18"/>
<text text-anchor="middle" x="240.77" y="-159.8" font-family="Times,serif" font-size="9.00">GetSubGoal!</text>
</g>
<!-- Fallback*&#45;&gt;GetSubGoal! -->
<g id="edge7" class="edge">
<title>Fallback*&#45;&gt;GetSubGoal!</title>
<path fill="none" stroke="black" d="M519.97,-228.29C469.84,-220.51 369.61,-203.44 286.77,-180 284,-179.22 281.16,-178.35 278.33,-177.42"/>
<polygon fill="black" stroke="black" points="279.35,-174.07 268.75,-174.14 277.08,-180.69 279.35,-174.07"/>
</g>
<!-- NotReadyForSG?* -->
<g id="node9" class="node">
<title>NotReadyForSG?*</title>
<ellipse fill="gray" stroke="black" cx="345.77" cy="-162" rx="49.8" ry="18"/>
<text text-anchor="middle" x="345.77" y="-159.8" font-family="Times,serif" font-size="9.00">NotReadyForSG?*</text>
</g>
<!-- Fallback*&#45;&gt;NotReadyForSG?* -->
<g id="edge8" class="edge">
<title>Fallback*&#45;&gt;NotReadyForSG?*</title>
<path fill="none" stroke="black" d="M524.41,-223.7C490.24,-212.09 431.3,-192.06 390.52,-178.21"/>
<polygon fill="black" stroke="black" points="391.42,-174.82 380.82,-174.91 389.16,-181.44 391.42,-174.82"/>
</g>
<!-- GetSubGoal!* -->
<g id="node10" class="node">
<title>GetSubGoal!*</title>
<ellipse fill="gray" stroke="black" cx="452.77" cy="-162" rx="39.02" ry="18"/>
<text text-anchor="middle" x="452.77" y="-159.8" font-family="Times,serif" font-size="9.00">GetSubGoal!*</text>
</g>
<!-- Fallback*&#45;&gt;GetSubGoal!* -->
<g id="edge9" class="edge">
<title>Fallback*&#45;&gt;GetSubGoal!*</title>
<path fill="none" stroke="black" d="M532.21,-219.17C517.85,-209.02 498.1,-195.06 481.89,-183.6"/>
<polygon fill="black" stroke="black" points="483.49,-180.44 473.31,-177.52 479.45,-186.16 483.49,-180.44"/>
</g>
<!-- GetSubGoal!** -->
<g id="node11" class="node">
<title>GetSubGoal!**</title>
<ellipse fill="gray" stroke="black" cx="551.77" cy="-162" rx="42.29" ry="18"/>
<text text-anchor="middle" x="551.77" y="-159.8" font-family="Times,serif" font-size="9.00">GetSubGoal!**</text>
</g>
<!-- Fallback*&#45;&gt;GetSubGoal!** -->
<g id="edge10" class="edge">
<title>Fallback*&#45;&gt;GetSubGoal!**</title>
<path fill="none" stroke="black" d="M551.77,-215.7C551.77,-207.98 551.77,-198.71 551.77,-190.11"/>
<polygon fill="black" stroke="black" points="555.27,-190.1 551.77,-180.1 548.27,-190.1 555.27,-190.1"/>
</g>
<!-- GetSubGoal!*** -->
<g id="node12" class="node">
<title>GetSubGoal!***</title>
<ellipse fill="gray" stroke="black" cx="656.77" cy="-162" rx="44.41" ry="18"/>
<text text-anchor="middle" x="656.77" y="-159.8" font-family="Times,serif" font-size="9.00">GetSubGoal!***</text>
</g>
<!-- Fallback*&#45;&gt;GetSubGoal!*** -->
<g id="edge11" class="edge">
<title>Fallback*&#45;&gt;GetSubGoal!***</title>
<path fill="none" stroke="black" d="M572.01,-219.5C587.34,-209.29 608.65,-195.08 626.07,-183.46"/>
<polygon fill="black" stroke="black" points="628.39,-186.12 634.77,-177.66 624.51,-180.3 628.39,-186.12"/>
</g>
<!-- ReachGoal?** -->
<g id="node13" class="node">
<title>ReachGoal?**</title>
<ellipse fill="gray" stroke="black" cx="758.77" cy="-162" rx="39.02" ry="18"/>
<text text-anchor="middle" x="758.77" y="-159.8" font-family="Times,serif" font-size="9.00">ReachGoal?**</text>
</g>
<!-- Fallback*&#45;&gt;ReachGoal?** -->
<g id="edge12" class="edge">
<title>Fallback*&#45;&gt;ReachGoal?**</title>
<path fill="none" stroke="black" d="M576.33,-222.37C581.71,-220.17 587.4,-217.93 592.77,-216 643.95,-197.56 658.06,-196.92 709.77,-180 712.71,-179.04 715.75,-178.03 718.8,-177"/>
<polygon fill="black" stroke="black" points="720.17,-180.23 728.5,-173.69 717.91,-173.6 720.17,-180.23"/>
</g>
<!-- NotReadyForSG?** -->
<g id="node14" class="node">
<title>NotReadyForSG?**</title>
<ellipse fill="gray" stroke="black" cx="867.77" cy="-162" rx="51.92" ry="18"/>
<text text-anchor="middle" x="867.77" y="-159.8" font-family="Times,serif" font-size="9.00">NotReadyForSG?**</text>
</g>
<!-- Fallback*&#45;&gt;NotReadyForSG?** -->
<g id="edge13" class="edge">
<title>Fallback*&#45;&gt;NotReadyForSG?**</title>
<path fill="none" stroke="black" d="M575.72,-222C581.24,-219.77 587.14,-217.62 592.77,-216 685.46,-189.36 712.63,-200.98 806.77,-180 810.93,-179.07 815.23,-178.03 819.54,-176.94"/>
<polygon fill="black" stroke="black" points="820.74,-180.25 829.52,-174.32 818.96,-173.48 820.74,-180.25"/>
</g>
<!-- ReachGoal?*** -->
<g id="node15" class="node">
<title>ReachGoal?***</title>
<ellipse fill="gray" stroke="black" cx="979.77" cy="-162" rx="42.29" ry="18"/>
<text text-anchor="middle" x="979.77" y="-159.8" font-family="Times,serif" font-size="9.00">ReachGoal?***</text>
</g>
<!-- Fallback*&#45;&gt;ReachGoal?*** -->
<g id="edge14" class="edge">
<title>Fallback*&#45;&gt;ReachGoal?***</title>
<path fill="none" stroke="black" d="M575.65,-221.75C581.17,-219.53 587.09,-217.45 592.77,-216 738.29,-178.86 782.01,-211.93 928.77,-180 932.2,-179.25 935.72,-178.36 939.24,-177.38"/>
<polygon fill="black" stroke="black" points="940.48,-180.66 949.05,-174.42 938.46,-173.95 940.48,-180.66"/>
</g>
<!-- Sequence* -->
<g id="node16" class="node">
<title>Sequence*</title>
<polygon fill="cyan" stroke="black" points="1109.01,-154.54 1109.01,-169.46 1088.95,-180 1060.58,-180 1040.52,-169.46 1040.52,-154.54 1060.58,-144 1088.95,-144 1109.01,-154.54"/>
<text text-anchor="middle" x="1074.77" y="-159.8" font-family="Times,serif" font-size="9.00">Sequence*</text>
</g>
<!-- Fallback*&#45;&gt;Sequence* -->
<g id="edge15" class="edge">
<title>Fallback*&#45;&gt;Sequence*</title>
<path fill="none" stroke="black" d="M575.19,-221.82C580.84,-219.54 586.92,-217.41 592.77,-216 782.6,-170.04 840.38,-223.64 1030.77,-180 1033.61,-179.35 1036.51,-178.55 1039.41,-177.65"/>
<polygon fill="black" stroke="black" points="1040.77,-180.89 1049.09,-174.33 1038.5,-174.27 1040.77,-180.89"/>
</g>
<!-- LkGraph?* -->
<g id="node17" class="node">
<title>LkGraph?*</title>
<ellipse fill="gray" stroke="black" cx="785.77" cy="-90" rx="32.82" ry="18"/>
<text text-anchor="middle" x="785.77" y="-87.8" font-family="Times,serif" font-size="9.00">LkGraph?*</text>
</g>
<!-- Sequence*&#45;&gt;LkGraph?* -->
<g id="edge16" class="edge">
<title>Sequence*&#45;&gt;LkGraph?*</title>
<path fill="none" stroke="black" d="M1048.99,-150.09C1043.07,-147.85 1036.76,-145.67 1030.77,-144 942.51,-119.37 915.83,-133.33 827.77,-108 825.32,-107.3 822.82,-106.5 820.32,-105.64"/>
<polygon fill="black" stroke="black" points="821.38,-102.3 810.78,-102.12 818.95,-108.87 821.38,-102.3"/>
</g>
<!-- GetSubGoal!**** -->
<g id="node18" class="node">
<title>GetSubGoal!****</title>
<ellipse fill="gray" stroke="black" cx="883.77" cy="-90" rx="47.19" ry="18"/>
<text text-anchor="middle" x="883.77" y="-87.8" font-family="Times,serif" font-size="9.00">GetSubGoal!****</text>
</g>
<!-- Sequence*&#45;&gt;GetSubGoal!**** -->
<g id="edge17" class="edge">
<title>Sequence*&#45;&gt;GetSubGoal!****</title>
<path fill="none" stroke="black" d="M1047.81,-150.47C1042.19,-148.31 1036.29,-146.06 1030.77,-144 995.83,-130.96 956.03,-116.64 926.66,-106.18"/>
<polygon fill="black" stroke="black" points="927.72,-102.84 917.12,-102.78 925.37,-109.43 927.72,-102.84"/>
</g>
<!-- MoveTo! -->
<g id="node19" class="node">
<title>MoveTo!</title>
<ellipse fill="gray" stroke="black" cx="977.77" cy="-90" rx="28.74" ry="18"/>
<text text-anchor="middle" x="977.77" y="-87.8" font-family="Times,serif" font-size="9.00">MoveTo!</text>
</g>
<!-- Sequence*&#45;&gt;MoveTo! -->
<g id="edge18" class="edge">
<title>Sequence*&#45;&gt;MoveTo!</title>
<path fill="none" stroke="black" d="M1055.14,-146.83C1040.56,-136.32 1020.52,-121.86 1004.49,-110.28"/>
<polygon fill="black" stroke="black" points="1006.21,-107.21 996.05,-104.2 1002.11,-112.89 1006.21,-107.21"/>
</g>
<!-- GetSubGoal!***** -->
<g id="node20" class="node">
<title>GetSubGoal!*****</title>
<ellipse fill="gray" stroke="black" cx="1074.77" cy="-90" rx="49.8" ry="18"/>
<text text-anchor="middle" x="1074.77" y="-87.8" font-family="Times,serif" font-size="9.00">GetSubGoal!*****</text>
</g>
<!-- Sequence*&#45;&gt;GetSubGoal!***** -->
<g id="edge19" class="edge">
<title>Sequence*&#45;&gt;GetSubGoal!*****</title>
<path fill="none" stroke="black" d="M1074.77,-143.7C1074.77,-135.98 1074.77,-126.71 1074.77,-118.11"/>
<polygon fill="black" stroke="black" points="1078.27,-118.1 1074.77,-108.1 1071.27,-118.1 1078.27,-118.1"/>
</g>
<!-- GetSubGoal!****** -->
<g id="node21" class="node">
<title>GetSubGoal!******</title>
<ellipse fill="gray" stroke="black" cx="1194.77" cy="-90" rx="52.58" ry="18"/>
<text text-anchor="middle" x="1194.77" y="-87.8" font-family="Times,serif" font-size="9.00">GetSubGoal!******</text>
</g>
<!-- Sequence*&#45;&gt;GetSubGoal!****** -->
<g id="edge20" class="edge">
<title>Sequence*&#45;&gt;GetSubGoal!******</title>
<path fill="none" stroke="black" d="M1097.06,-148C1114.89,-137.6 1140.19,-122.84 1160.58,-110.94"/>
<polygon fill="black" stroke="black" points="1162.39,-113.94 1169.27,-105.87 1158.87,-107.89 1162.39,-113.94"/>
</g>
<!-- MoveTo!* -->
<g id="node22" class="node">
<title>MoveTo!*</title>
<ellipse fill="gray" stroke="black" cx="1296.77" cy="-90" rx="31.51" ry="18"/>
<text text-anchor="middle" x="1296.77" y="-87.8" font-family="Times,serif" font-size="9.00">MoveTo!*</text>
</g>
<!-- Sequence*&#45;&gt;MoveTo!* -->
<g id="edge21" class="edge">
<title>Sequence*&#45;&gt;MoveTo!*</title>
<path fill="none" stroke="black" d="M1106.36,-153.02C1142.95,-143.49 1204.85,-126.52 1256.77,-108 1258.84,-107.26 1260.97,-106.46 1263.11,-105.64"/>
<polygon fill="black" stroke="black" points="1264.44,-108.88 1272.41,-101.89 1261.82,-102.38 1264.44,-108.88"/>
</g>
<!-- Fallback** -->
<g id="node23" class="node">
<title>Fallback**</title>
<polygon fill="cyan" stroke="black" points="1416.76,-82.54 1416.76,-97.46 1396.26,-108 1367.27,-108 1346.77,-97.46 1346.77,-82.54 1367.27,-72 1396.26,-72 1416.76,-82.54"/>
<text text-anchor="middle" x="1381.77" y="-87.8" font-family="Times,serif" font-size="9.00">Fallback**</text>
</g>
<!-- Sequence*&#45;&gt;Fallback** -->
<g id="edge22" class="edge">
<title>Sequence*&#45;&gt;Fallback**</title>
<path fill="none" stroke="black" d="M1109.26,-155.97C1159.95,-148.14 1257.28,-131.47 1337.77,-108 1340.4,-107.23 1343.1,-106.37 1345.8,-105.46"/>
<polygon fill="black" stroke="black" points="1347.26,-108.66 1355.49,-101.99 1344.9,-102.07 1347.26,-108.66"/>
</g>
<!-- LkGraph?** -->
<g id="node24" class="node">
<title>LkGraph?**</title>
<ellipse fill="gray" stroke="black" cx="1326.77" cy="-18" rx="35.59" ry="18"/>
<text text-anchor="middle" x="1326.77" y="-15.8" font-family="Times,serif" font-size="9.00">LkGraph?**</text>
</g>
<!-- Fallback**&#45;&gt;LkGraph?** -->
<g id="edge23" class="edge">
<title>Fallback**&#45;&gt;LkGraph?**</title>
<path fill="none" stroke="black" d="M1368.17,-71.7C1361.38,-63.05 1353.05,-52.46 1345.65,-43.04"/>
<polygon fill="black" stroke="black" points="1348.38,-40.85 1339.45,-35.14 1342.88,-45.17 1348.38,-40.85"/>
</g>
<!-- GetSubGoal!******* -->
<g id="node25" class="node">
<title>GetSubGoal!*******</title>
<ellipse fill="gray" stroke="black" cx="1435.77" cy="-18" rx="54.7" ry="18"/>
<text text-anchor="middle" x="1435.77" y="-15.8" font-family="Times,serif" font-size="9.00">GetSubGoal!*******</text>
</g>
<!-- Fallback**&#45;&gt;GetSubGoal!******* -->
<g id="edge24" class="edge">
<title>Fallback**&#45;&gt;GetSubGoal!*******</title>
<path fill="none" stroke="black" d="M1395.11,-71.7C1401.62,-63.27 1409.56,-52.97 1416.69,-43.73"/>
<polygon fill="black" stroke="black" points="1419.61,-45.68 1422.94,-35.62 1414.06,-41.4 1419.61,-45.68"/>
</g>
</g>
</svg>
