<?xml version="1.0" encoding="UTF-8" standalone="no"?>
<!DOCTYPE svg PUBLIC "-//W3C//DTD SVG 1.1//EN"
 "http://www.w3.org/Graphics/SVG/1.1/DTD/svg11.dtd">
<!-- Generated by graphviz version 2.43.0 (0)
 -->
<!-- Title: pastafarianism Pages: 1 -->
<svg width="1155pt" height="404pt"
 viewBox="0.00 0.00 1154.87 404.00" xmlns="http://www.w3.org/2000/svg" xmlns:xlink="http://www.w3.org/1999/xlink">
<g id="graph0" class="graph" transform="scale(1 1) rotate(0) translate(4 400)">
<title>pastafarianism</title>
<polygon fill="white" stroke="transparent" points="-4,4 -4,-400 1150.87,-400 1150.87,4 -4,4"/>
<!-- Fallback -->
<g id="node1" class="node">
<title>Fallback</title>
<polygon fill="cyan" stroke="black" points="475.01,-370.54 475.01,-385.46 457.88,-396 433.65,-396 416.52,-385.46 416.52,-370.54 433.65,-360 457.88,-360 475.01,-370.54"/>
<text text-anchor="middle" x="445.77" y="-375.8" font-family="Times,serif" font-size="9.00">Fallback</text>
</g>
<!-- Sequence -->
<g id="node2" class="node">
<title>Sequence</title>
<polygon fill="cyan" stroke="black" points="391.26,-298.54 391.26,-313.46 372.81,-324 346.72,-324 328.27,-313.46 328.27,-298.54 346.72,-288 372.81,-288 391.26,-298.54"/>
<text text-anchor="middle" x="359.77" y="-303.8" font-family="Times,serif" font-size="9.00">Sequence</text>
</g>
<!-- Fallback&#45;&gt;Sequence -->
<g id="edge1" class="edge">
<title>Fallback&#45;&gt;Sequence</title>
<path fill="none" stroke="black" d="M428.36,-362.83C415.97,-352.75 399.12,-339.03 385.22,-327.72"/>
<polygon fill="black" stroke="black" points="387.4,-324.98 377.44,-321.38 382.98,-330.41 387.4,-324.98"/>
</g>
<!-- ReachGoal? -->
<g id="node5" class="node">
<title>ReachGoal?</title>
<ellipse fill="gray" stroke="black" cx="445.77" cy="-306" rx="34.13" ry="18"/>
<text text-anchor="middle" x="445.77" y="-303.8" font-family="Times,serif" font-size="9.00">ReachGoal?</text>
</g>
<!-- Fallback&#45;&gt;ReachGoal? -->
<g id="edge4" class="edge">
<title>Fallback&#45;&gt;ReachGoal?</title>
<path fill="none" stroke="black" d="M445.77,-359.7C445.77,-351.98 445.77,-342.71 445.77,-334.11"/>
<polygon fill="black" stroke="black" points="449.27,-334.1 445.77,-324.1 442.27,-334.1 449.27,-334.1"/>
</g>
<!-- Sequence* -->
<g id="node6" class="node">
<title>Sequence*</title>
<polygon fill="cyan" stroke="black" points="567.01,-298.54 567.01,-313.46 546.95,-324 518.58,-324 498.52,-313.46 498.52,-298.54 518.58,-288 546.95,-288 567.01,-298.54"/>
<text text-anchor="middle" x="532.77" y="-303.8" font-family="Times,serif" font-size="9.00">Sequence*</text>
</g>
<!-- Fallback&#45;&gt;Sequence* -->
<g id="edge5" class="edge">
<title>Fallback&#45;&gt;Sequence*</title>
<path fill="none" stroke="black" d="M463.37,-362.83C475.74,-352.88 492.5,-339.4 506.45,-328.17"/>
<polygon fill="black" stroke="black" points="508.69,-330.87 514.28,-321.87 504.3,-325.41 508.69,-330.87"/>
</g>
<!-- GetLk! -->
<g id="node3" class="node">
<title>GetLk!</title>
<ellipse fill="gray" stroke="black" cx="271.77" cy="-234" rx="27" ry="18"/>
<text text-anchor="middle" x="271.77" y="-231.8" font-family="Times,serif" font-size="9.00">GetLk!</text>
</g>
<!-- Sequence&#45;&gt;GetLk! -->
<g id="edge2" class="edge">
<title>Sequence&#45;&gt;GetLk!</title>
<path fill="none" stroke="black" d="M341.53,-290.5C328.49,-280.12 310.77,-266.03 296.46,-254.64"/>
<polygon fill="black" stroke="black" points="298.49,-251.79 288.49,-248.3 294.13,-257.27 298.49,-251.79"/>
</g>
<!-- CompLkGraph! -->
<g id="node4" class="node">
<title>CompLkGraph!</title>
<ellipse fill="gray" stroke="black" cx="359.77" cy="-234" rx="42.95" ry="18"/>
<text text-anchor="middle" x="359.77" y="-231.8" font-family="Times,serif" font-size="9.00">CompLkGraph!</text>
</g>
<!-- Sequence&#45;&gt;CompLkGraph! -->
<g id="edge3" class="edge">
<title>Sequence&#45;&gt;CompLkGraph!</title>
<path fill="none" stroke="black" d="M359.77,-287.7C359.77,-279.98 359.77,-270.71 359.77,-262.11"/>
<polygon fill="black" stroke="black" points="363.27,-262.1 359.77,-252.1 356.27,-262.1 363.27,-262.1"/>
</g>
<!-- Fallback* -->
<g id="node7" class="node">
<title>Fallback*</title>
<polygon fill="cyan" stroke="black" points="484.51,-226.54 484.51,-241.46 465.91,-252 439.62,-252 421.02,-241.46 421.02,-226.54 439.62,-216 465.91,-216 484.51,-226.54"/>
<text text-anchor="middle" x="452.77" y="-231.8" font-family="Times,serif" font-size="9.00">Fallback*</text>
</g>
<!-- Sequence*&#45;&gt;Fallback* -->
<g id="edge6" class="edge">
<title>Sequence*&#45;&gt;Fallback*</title>
<path fill="none" stroke="black" d="M515.01,-289.46C503.98,-279.82 489.65,-267.28 477.52,-256.66"/>
<polygon fill="black" stroke="black" points="479.75,-253.96 469.92,-250.01 475.14,-259.23 479.75,-253.96"/>
</g>
<!-- MoveTo!* -->
<g id="node25" class="node">
<title>MoveTo!*</title>
<ellipse fill="gray" stroke="black" cx="534.77" cy="-234" rx="31.51" ry="18"/>
<text text-anchor="middle" x="534.77" y="-231.8" font-family="Times,serif" font-size="9.00">MoveTo!*</text>
</g>
<!-- Sequence*&#45;&gt;MoveTo!* -->
<g id="edge24" class="edge">
<title>Sequence*&#45;&gt;MoveTo!*</title>
<path fill="none" stroke="black" d="M533.26,-287.7C533.48,-279.98 533.75,-270.71 533.99,-262.11"/>
<polygon fill="black" stroke="black" points="537.49,-262.2 534.28,-252.1 530.49,-262 537.49,-262.2"/>
</g>
<!-- LkGraph?**** -->
<g id="node26" class="node">
<title>LkGraph?****</title>
<ellipse fill="gray" stroke="black" cx="625.77" cy="-234" rx="40.98" ry="18"/>
<text text-anchor="middle" x="625.77" y="-231.8" font-family="Times,serif" font-size="9.00">LkGraph?****</text>
</g>
<!-- Sequence*&#45;&gt;LkGraph?**** -->
<g id="edge25" class="edge">
<title>Sequence*&#45;&gt;LkGraph?****</title>
<path fill="none" stroke="black" d="M552.04,-290.5C565.2,-280.59 582.86,-267.29 597.6,-256.2"/>
<polygon fill="black" stroke="black" points="599.99,-258.78 605.88,-249.97 595.78,-253.19 599.99,-258.78"/>
</g>
<!-- NotReadyForSG? -->
<g id="node8" class="node">
<title>NotReadyForSG?</title>
<ellipse fill="gray" stroke="black" cx="46.77" cy="-162" rx="46.53" ry="18"/>
<text text-anchor="middle" x="46.77" y="-159.8" font-family="Times,serif" font-size="9.00">NotReadyForSG?</text>
</g>
<!-- Fallback*&#45;&gt;NotReadyForSG? -->
<g id="edge7" class="edge">
<title>Fallback*&#45;&gt;NotReadyForSG?</title>
<path fill="none" stroke="black" d="M428.87,-221.79C423.35,-219.57 417.43,-217.47 411.77,-216 277.96,-181.19 238.12,-208.19 102.77,-180 98.85,-179.18 94.81,-178.22 90.79,-177.16"/>
<polygon fill="black" stroke="black" points="91.44,-173.71 80.87,-174.41 89.57,-180.46 91.44,-173.71"/>
</g>
<!-- ReachGoal?* -->
<g id="node9" class="node">
<title>ReachGoal?*</title>
<ellipse fill="gray" stroke="black" cx="148.77" cy="-162" rx="36.9" ry="18"/>
<text text-anchor="middle" x="148.77" y="-159.8" font-family="Times,serif" font-size="9.00">ReachGoal?*</text>
</g>
<!-- Fallback*&#45;&gt;ReachGoal?* -->
<g id="edge8" class="edge">
<title>Fallback*&#45;&gt;ReachGoal?*</title>
<path fill="none" stroke="black" d="M428.81,-222C423.3,-219.76 417.4,-217.61 411.77,-216 317.78,-189.1 289.26,-205.06 194.77,-180 191.82,-179.22 188.79,-178.32 185.77,-177.36"/>
<polygon fill="black" stroke="black" points="186.82,-174.02 176.22,-174.11 184.56,-180.65 186.82,-174.02"/>
</g>
<!-- GetSubGoal! -->
<g id="node10" class="node">
<title>GetSubGoal!</title>
<ellipse fill="gray" stroke="black" cx="240.77" cy="-162" rx="36.9" ry="18"/>
<text text-anchor="middle" x="240.77" y="-159.8" font-family="Times,serif" font-size="9.00">GetSubGoal!</text>
</g>
<!-- Fallback*&#45;&gt;GetSubGoal! -->
<g id="edge9" class="edge">
<title>Fallback*&#45;&gt;GetSubGoal!</title>
<path fill="none" stroke="black" d="M428.22,-222.3C422.84,-220.1 417.15,-217.88 411.77,-216 357.2,-196.9 341.69,-198.03 286.77,-180 284.04,-179.1 281.23,-178.15 278.4,-177.16"/>
<polygon fill="black" stroke="black" points="279.46,-173.83 268.87,-173.76 277.11,-180.42 279.46,-173.83"/>
</g>
<!-- NotReadyForSG?* -->
<g id="node11" class="node">
<title>NotReadyForSG?*</title>
<ellipse fill="gray" stroke="black" cx="345.77" cy="-162" rx="49.8" ry="18"/>
<text text-anchor="middle" x="345.77" y="-159.8" font-family="Times,serif" font-size="9.00">NotReadyForSG?*</text>
</g>
<!-- Fallback*&#45;&gt;NotReadyForSG?* -->
<g id="edge10" class="edge">
<title>Fallback*&#45;&gt;NotReadyForSG?*</title>
<path fill="none" stroke="black" d="M432.64,-219.83C417.03,-209.62 395.12,-195.29 377.2,-183.57"/>
<polygon fill="black" stroke="black" points="379.06,-180.6 368.77,-178.05 375.23,-186.46 379.06,-180.6"/>
</g>
<!-- GetSubGoal!* -->
<g id="node12" class="node">
<title>GetSubGoal!*</title>
<ellipse fill="gray" stroke="black" cx="452.77" cy="-162" rx="39.02" ry="18"/>
<text text-anchor="middle" x="452.77" y="-159.8" font-family="Times,serif" font-size="9.00">GetSubGoal!*</text>
</g>
<!-- Fallback*&#45;&gt;GetSubGoal!* -->
<g id="edge11" class="edge">
<title>Fallback*&#45;&gt;GetSubGoal!*</title>
<path fill="none" stroke="black" d="M452.77,-215.7C452.77,-207.98 452.77,-198.71 452.77,-190.11"/>
<polygon fill="black" stroke="black" points="456.27,-190.1 452.77,-180.1 449.27,-190.1 456.27,-190.1"/>
</g>
<!-- NotReadyForSG?** -->
<g id="node13" class="node">
<title>NotReadyForSG?**</title>
<ellipse fill="gray" stroke="black" cx="561.77" cy="-162" rx="51.92" ry="18"/>
<text text-anchor="middle" x="561.77" y="-159.8" font-family="Times,serif" font-size="9.00">NotReadyForSG?**</text>
</g>
<!-- Fallback*&#45;&gt;NotReadyForSG?** -->
<g id="edge12" class="edge">
<title>Fallback*&#45;&gt;NotReadyForSG?**</title>
<path fill="none" stroke="black" d="M473.01,-220C488.88,-209.8 511.28,-195.42 529.6,-183.66"/>
<polygon fill="black" stroke="black" points="531.69,-186.47 538.22,-178.12 527.91,-180.58 531.69,-186.47"/>
</g>
<!-- LkGraph? -->
<g id="node14" class="node">
<title>LkGraph?</title>
<ellipse fill="gray" stroke="black" cx="662.77" cy="-162" rx="30.7" ry="18"/>
<text text-anchor="middle" x="662.77" y="-159.8" font-family="Times,serif" font-size="9.00">LkGraph?</text>
</g>
<!-- Fallback*&#45;&gt;LkGraph? -->
<g id="edge13" class="edge">
<title>Fallback*&#45;&gt;LkGraph?</title>
<path fill="none" stroke="black" d="M477.3,-222.26C482.68,-220.07 488.38,-217.86 493.77,-216 550.03,-196.57 566.59,-199.68 622.77,-180 625.13,-179.17 627.56,-178.27 629.99,-177.33"/>
<polygon fill="black" stroke="black" points="631.31,-180.57 639.28,-173.58 628.69,-174.08 631.31,-180.57"/>
</g>
<!-- NotReadyForSG?*** -->
<g id="node15" class="node">
<title>NotReadyForSG?***</title>
<ellipse fill="gray" stroke="black" cx="765.77" cy="-162" rx="54.7" ry="18"/>
<text text-anchor="middle" x="765.77" y="-159.8" font-family="Times,serif" font-size="9.00">NotReadyForSG?***</text>
</g>
<!-- Fallback*&#45;&gt;NotReadyForSG?*** -->
<g id="edge14" class="edge">
<title>Fallback*&#45;&gt;NotReadyForSG?***</title>
<path fill="none" stroke="black" d="M476.73,-222.02C482.24,-219.79 488.14,-217.63 493.77,-216 584.3,-189.79 610.72,-200.3 702.77,-180 706.93,-179.08 711.24,-178.06 715.56,-177"/>
<polygon fill="black" stroke="black" points="716.75,-180.31 725.57,-174.44 715.02,-173.52 716.75,-180.31"/>
</g>
<!-- Sequence** -->
<g id="node16" class="node">
<title>Sequence**</title>
<polygon fill="cyan" stroke="black" points="912.51,-154.54 912.51,-169.46 890.98,-180 860.55,-180 839.02,-169.46 839.02,-154.54 860.55,-144 890.98,-144 912.51,-154.54"/>
<text text-anchor="middle" x="875.77" y="-159.8" font-family="Times,serif" font-size="9.00">Sequence**</text>
</g>
<!-- Fallback*&#45;&gt;Sequence** -->
<g id="edge15" class="edge">
<title>Fallback*&#45;&gt;Sequence**</title>
<path fill="none" stroke="black" d="M476.65,-221.75C482.17,-219.53 488.09,-217.45 493.77,-216 639.29,-178.86 683.54,-214.29 829.77,-180 832.74,-179.3 835.78,-178.47 838.81,-177.55"/>
<polygon fill="black" stroke="black" points="839.98,-180.85 848.38,-174.38 837.78,-174.2 839.98,-180.85"/>
</g>
<!-- LkGraph?* -->
<g id="node17" class="node">
<title>LkGraph?*</title>
<ellipse fill="gray" stroke="black" cx="647.77" cy="-90" rx="32.82" ry="18"/>
<text text-anchor="middle" x="647.77" y="-87.8" font-family="Times,serif" font-size="9.00">LkGraph?*</text>
</g>
<!-- Sequence**&#45;&gt;LkGraph?* -->
<g id="edge16" class="edge">
<title>Sequence**&#45;&gt;LkGraph?*</title>
<path fill="none" stroke="black" d="M847.7,-150.11C841.82,-147.97 835.62,-145.83 829.77,-144 768.44,-124.84 750.79,-128.1 689.77,-108 687.35,-107.2 684.87,-106.34 682.38,-105.43"/>
<polygon fill="black" stroke="black" points="683.47,-102.1 672.88,-101.8 680.97,-108.64 683.47,-102.1"/>
</g>
<!-- GetSubGoal!** -->
<g id="node18" class="node">
<title>GetSubGoal!**</title>
<ellipse fill="gray" stroke="black" cx="740.77" cy="-90" rx="42.29" ry="18"/>
<text text-anchor="middle" x="740.77" y="-87.8" font-family="Times,serif" font-size="9.00">GetSubGoal!**</text>
</g>
<!-- Sequence**&#45;&gt;GetSubGoal!** -->
<g id="edge17" class="edge">
<title>Sequence**&#45;&gt;GetSubGoal!**</title>
<path fill="none" stroke="black" d="M851.32,-148.32C830.12,-137.33 799.2,-121.3 775.45,-108.98"/>
<polygon fill="black" stroke="black" points="776.9,-105.79 766.41,-104.3 773.67,-112.01 776.9,-105.79"/>
</g>
<!-- MoveTo! -->
<g id="node19" class="node">
<title>MoveTo!</title>
<ellipse fill="gray" stroke="black" cx="829.77" cy="-90" rx="28.74" ry="18"/>
<text text-anchor="middle" x="829.77" y="-87.8" font-family="Times,serif" font-size="9.00">MoveTo!</text>
</g>
<!-- Sequence**&#45;&gt;MoveTo! -->
<g id="edge18" class="edge">
<title>Sequence**&#45;&gt;MoveTo!</title>
<path fill="none" stroke="black" d="M864.39,-143.7C858.83,-135.23 852.03,-124.89 845.94,-115.61"/>
<polygon fill="black" stroke="black" points="848.79,-113.58 840.37,-107.14 842.94,-117.42 848.79,-113.58"/>
</g>
<!-- GetSubGoal!*** -->
<g id="node20" class="node">
<title>GetSubGoal!***</title>
<ellipse fill="gray" stroke="black" cx="920.77" cy="-90" rx="44.41" ry="18"/>
<text text-anchor="middle" x="920.77" y="-87.8" font-family="Times,serif" font-size="9.00">GetSubGoal!***</text>
</g>
<!-- Sequence**&#45;&gt;GetSubGoal!*** -->
<g id="edge19" class="edge">
<title>Sequence**&#45;&gt;GetSubGoal!***</title>
<path fill="none" stroke="black" d="M886.89,-143.7C892.2,-135.44 898.65,-125.39 904.5,-116.3"/>
<polygon fill="black" stroke="black" points="907.62,-117.93 910.08,-107.62 901.73,-114.14 907.62,-117.93"/>
</g>
<!-- Fallback** -->
<g id="node21" class="node">
<title>Fallback**</title>
<polygon fill="cyan" stroke="black" points="1052.76,-82.54 1052.76,-97.46 1032.26,-108 1003.27,-108 982.77,-97.46 982.77,-82.54 1003.27,-72 1032.26,-72 1052.76,-82.54"/>
<text text-anchor="middle" x="1017.77" y="-87.8" font-family="Times,serif" font-size="9.00">Fallback**</text>
</g>
<!-- Sequence**&#45;&gt;Fallback** -->
<g id="edge20" class="edge">
<title>Sequence**&#45;&gt;Fallback**</title>
<path fill="none" stroke="black" d="M900.83,-148.65C924.08,-137.18 958.87,-120.03 984.46,-107.42"/>
<polygon fill="black" stroke="black" points="986.01,-110.56 993.43,-103 982.91,-104.28 986.01,-110.56"/>
</g>
<!-- LkGraph?*** -->
<g id="node24" class="node">
<title>LkGraph?***</title>
<ellipse fill="gray" stroke="black" cx="1108.77" cy="-90" rx="38.21" ry="18"/>
<text text-anchor="middle" x="1108.77" y="-87.8" font-family="Times,serif" font-size="9.00">LkGraph?***</text>
</g>
<!-- Sequence**&#45;&gt;LkGraph?*** -->
<g id="edge23" class="edge">
<title>Sequence**&#45;&gt;LkGraph?***</title>
<path fill="none" stroke="black" d="M908.56,-152.39C945.89,-142.43 1008.56,-125.18 1061.77,-108 1064.51,-107.11 1067.34,-106.17 1070.18,-105.2"/>
<polygon fill="black" stroke="black" points="1071.51,-108.44 1079.79,-101.84 1069.2,-101.83 1071.51,-108.44"/>
</g>
<!-- LkGraph?** -->
<g id="node22" class="node">
<title>LkGraph?**</title>
<ellipse fill="gray" stroke="black" cx="966.77" cy="-18" rx="35.59" ry="18"/>
<text text-anchor="middle" x="966.77" y="-15.8" font-family="Times,serif" font-size="9.00">LkGraph?**</text>
</g>
<!-- Fallback**&#45;&gt;LkGraph?** -->
<g id="edge21" class="edge">
<title>Fallback**&#45;&gt;LkGraph?**</title>
<path fill="none" stroke="black" d="M1005.16,-71.7C998.93,-63.14 991.3,-52.67 984.49,-43.33"/>
<polygon fill="black" stroke="black" points="987.25,-41.17 978.53,-35.14 981.59,-45.29 987.25,-41.17"/>
</g>
<!-- GetSubGoal!**** -->
<g id="node23" class="node">
<title>GetSubGoal!****</title>
<ellipse fill="gray" stroke="black" cx="1067.77" cy="-18" rx="47.19" ry="18"/>
<text text-anchor="middle" x="1067.77" y="-15.8" font-family="Times,serif" font-size="9.00">GetSubGoal!****</text>
</g>
<!-- Fallback**&#45;&gt;GetSubGoal!**** -->
<g id="edge22" class="edge">
<title>Fallback**&#45;&gt;GetSubGoal!****</title>
<path fill="none" stroke="black" d="M1030.12,-71.7C1036.09,-63.35 1043.35,-53.18 1049.9,-44.02"/>
<polygon fill="black" stroke="black" points="1052.93,-45.79 1055.89,-35.62 1047.23,-41.73 1052.93,-45.79"/>
</g>
</g>
</svg>
