<?xml version="1.0" encoding="UTF-8" standalone="no"?>
<!DOCTYPE svg PUBLIC "-//W3C//DTD SVG 1.1//EN"
 "http://www.w3.org/Graphics/SVG/1.1/DTD/svg11.dtd">
<!-- Generated by graphviz version 2.43.0 (0)
 -->
<!-- Title: pastafarianism Pages: 1 -->
<svg width="3112pt" height="260pt"
 viewBox="0.00 0.00 3112.30 260.00" xmlns="http://www.w3.org/2000/svg" xmlns:xlink="http://www.w3.org/1999/xlink">
<g id="graph0" class="graph" transform="scale(1 1) rotate(0) translate(4 256)">
<title>pastafarianism</title>
<polygon fill="white" stroke="transparent" points="-4,4 -4,-256 3108.3,-256 3108.3,4 -4,4"/>
<!-- Fallback -->
<g id="node1" class="node">
<title>Fallback</title>
<polygon fill="cyan" stroke="black" points="1474.19,-226.54 1474.19,-241.46 1457.06,-252 1432.84,-252 1415.71,-241.46 1415.71,-226.54 1432.84,-216 1457.06,-216 1474.19,-226.54"/>
<text text-anchor="middle" x="1444.95" y="-231.8" font-family="Times,serif" font-size="9.00">Fallback</text>
</g>
<!-- NotReadyForSG? -->
<g id="node2" class="node">
<title>NotReadyForSG?</title>
<ellipse fill="gray" stroke="black" cx="1291.95" cy="-162" rx="46.53" ry="18"/>
<text text-anchor="middle" x="1291.95" y="-159.8" font-family="Times,serif" font-size="9.00">NotReadyForSG?</text>
</g>
<!-- Fallback&#45;&gt;NotReadyForSG? -->
<g id="edge1" class="edge">
<title>Fallback&#45;&gt;NotReadyForSG?</title>
<path fill="none" stroke="black" d="M1422.04,-222.52C1397.78,-211.42 1359.05,-193.7 1330.15,-180.48"/>
<polygon fill="black" stroke="black" points="1331.31,-177.16 1320.77,-176.18 1328.4,-183.53 1331.31,-177.16"/>
</g>
<!-- Sequence -->
<g id="node3" class="node">
<title>Sequence</title>
<polygon fill="cyan" stroke="black" points="1419.44,-154.54 1419.44,-169.46 1401,-180 1374.91,-180 1356.46,-169.46 1356.46,-154.54 1374.91,-144 1401,-144 1419.44,-154.54"/>
<text text-anchor="middle" x="1387.95" y="-159.8" font-family="Times,serif" font-size="9.00">Sequence</text>
</g>
<!-- Fallback&#45;&gt;Sequence -->
<g id="edge2" class="edge">
<title>Fallback&#45;&gt;Sequence</title>
<path fill="none" stroke="black" d="M1431.44,-216.41C1424.52,-207.91 1415.94,-197.37 1408.24,-187.91"/>
<polygon fill="black" stroke="black" points="1410.79,-185.5 1401.76,-179.96 1405.36,-189.92 1410.79,-185.5"/>
</g>
<!-- NotReadyForSG?******* -->
<g id="node34" class="node">
<title>NotReadyForSG?*******</title>
<ellipse fill="gray" stroke="black" cx="1501.95" cy="-162" rx="65.48" ry="18"/>
<text text-anchor="middle" x="1501.95" y="-159.8" font-family="Times,serif" font-size="9.00">NotReadyForSG?*******</text>
</g>
<!-- Fallback&#45;&gt;NotReadyForSG?******* -->
<g id="edge33" class="edge">
<title>Fallback&#45;&gt;NotReadyForSG?*******</title>
<path fill="none" stroke="black" d="M1458.46,-216.41C1465.38,-207.91 1473.96,-197.37 1481.66,-187.91"/>
<polygon fill="black" stroke="black" points="1484.54,-189.92 1488.14,-179.96 1479.11,-185.5 1484.54,-189.92"/>
</g>
<!-- ReachGoal?* -->
<g id="node35" class="node">
<title>ReachGoal?*</title>
<ellipse fill="gray" stroke="black" cx="1621.95" cy="-162" rx="36.9" ry="18"/>
<text text-anchor="middle" x="1621.95" y="-159.8" font-family="Times,serif" font-size="9.00">ReachGoal?*</text>
</g>
<!-- Fallback&#45;&gt;ReachGoal?* -->
<g id="edge34" class="edge">
<title>Fallback&#45;&gt;ReachGoal?*</title>
<path fill="none" stroke="black" d="M1469.19,-223.41C1499.05,-211.61 1550.08,-191.42 1584.87,-177.66"/>
<polygon fill="black" stroke="black" points="1586.21,-180.9 1594.22,-173.97 1583.64,-174.39 1586.21,-180.9"/>
</g>
<!-- GetSubGoal! -->
<g id="node4" class="node">
<title>GetSubGoal!</title>
<ellipse fill="gray" stroke="black" cx="36.95" cy="-90" rx="36.9" ry="18"/>
<text text-anchor="middle" x="36.95" y="-87.8" font-family="Times,serif" font-size="9.00">GetSubGoal!</text>
</g>
<!-- Sequence&#45;&gt;GetSubGoal! -->
<g id="edge3" class="edge">
<title>Sequence&#45;&gt;GetSubGoal!</title>
<path fill="none" stroke="black" d="M1364.74,-149.42C1359.35,-147.22 1353.55,-145.22 1347.95,-144 1073.21,-83.96 359.05,-161.45 82.95,-108 79.77,-107.39 76.53,-106.58 73.3,-105.65"/>
<polygon fill="black" stroke="black" points="74.36,-102.32 63.77,-102.57 72.21,-108.98 74.36,-102.32"/>
</g>
<!-- MoveTo! -->
<g id="node5" class="node">
<title>MoveTo!</title>
<ellipse fill="gray" stroke="black" cx="120.95" cy="-90" rx="28.74" ry="18"/>
<text text-anchor="middle" x="120.95" y="-87.8" font-family="Times,serif" font-size="9.00">MoveTo!</text>
</g>
<!-- Sequence&#45;&gt;MoveTo! -->
<g id="edge4" class="edge">
<title>Sequence&#45;&gt;MoveTo!</title>
<path fill="none" stroke="black" d="M1364.74,-149.43C1359.35,-147.23 1353.55,-145.23 1347.95,-144 1089.75,-87.33 416.6,-167.1 158.95,-108 156.48,-107.43 153.98,-106.71 151.5,-105.87"/>
<polygon fill="black" stroke="black" points="152.73,-102.59 142.15,-102.22 150.19,-109.12 152.73,-102.59"/>
</g>
<!-- NotReadyForSG?* -->
<g id="node6" class="node">
<title>NotReadyForSG?*</title>
<ellipse fill="gray" stroke="black" cx="217.95" cy="-90" rx="49.8" ry="18"/>
<text text-anchor="middle" x="217.95" y="-87.8" font-family="Times,serif" font-size="9.00">NotReadyForSG?*</text>
</g>
<!-- Sequence&#45;&gt;NotReadyForSG?* -->
<g id="edge5" class="edge">
<title>Sequence&#45;&gt;NotReadyForSG?*</title>
<path fill="none" stroke="black" d="M1364.74,-149.44C1359.35,-147.24 1353.55,-145.24 1347.95,-144 1115.22,-92.51 511.29,-145.82 275.95,-108 271.75,-107.33 267.43,-106.44 263.13,-105.42"/>
<polygon fill="black" stroke="black" points="263.76,-101.97 253.21,-102.86 262.02,-108.75 263.76,-101.97"/>
</g>
<!-- MoveTo!* -->
<g id="node7" class="node">
<title>MoveTo!*</title>
<ellipse fill="gray" stroke="black" cx="316.95" cy="-90" rx="31.51" ry="18"/>
<text text-anchor="middle" x="316.95" y="-87.8" font-family="Times,serif" font-size="9.00">MoveTo!*</text>
</g>
<!-- Sequence&#45;&gt;MoveTo!* -->
<g id="edge6" class="edge">
<title>Sequence&#45;&gt;MoveTo!*</title>
<path fill="none" stroke="black" d="M1364.74,-149.45C1359.35,-147.25 1353.55,-145.25 1347.95,-144 918.19,-48.3 788.13,-201.81 357.95,-108 355.29,-107.42 352.58,-106.68 349.89,-105.82"/>
<polygon fill="black" stroke="black" points="350.93,-102.48 340.33,-102.37 348.55,-109.06 350.93,-102.48"/>
</g>
<!-- MoveTo!** -->
<g id="node8" class="node">
<title>MoveTo!**</title>
<ellipse fill="gray" stroke="black" cx="400.95" cy="-90" rx="34.13" ry="18"/>
<text text-anchor="middle" x="400.95" y="-87.8" font-family="Times,serif" font-size="9.00">MoveTo!**</text>
</g>
<!-- Sequence&#45;&gt;MoveTo!** -->
<g id="edge7" class="edge">
<title>Sequence&#45;&gt;MoveTo!**</title>
<path fill="none" stroke="black" d="M1364.73,-149.47C1359.34,-147.26 1353.55,-145.26 1347.95,-144 955.62,-55.92 837.37,-191.09 443.95,-108 441.15,-107.41 438.3,-106.65 435.46,-105.79"/>
<polygon fill="black" stroke="black" points="436.57,-102.47 425.98,-102.52 434.29,-109.09 436.57,-102.47"/>
</g>
<!-- MoveTo!*** -->
<g id="node9" class="node">
<title>MoveTo!***</title>
<ellipse fill="gray" stroke="black" cx="489.95" cy="-90" rx="36.9" ry="18"/>
<text text-anchor="middle" x="489.95" y="-87.8" font-family="Times,serif" font-size="9.00">MoveTo!***</text>
</g>
<!-- Sequence&#45;&gt;MoveTo!*** -->
<g id="edge8" class="edge">
<title>Sequence&#45;&gt;MoveTo!***</title>
<path fill="none" stroke="black" d="M1364.73,-149.49C1359.34,-147.28 1353.54,-145.27 1347.95,-144 995.66,-64.08 890.05,-179.47 535.95,-108 532.78,-107.36 529.54,-106.54 526.31,-105.6"/>
<polygon fill="black" stroke="black" points="527.38,-102.26 516.79,-102.5 525.21,-108.92 527.38,-102.26"/>
</g>
<!-- MoveTo!**** -->
<g id="node10" class="node">
<title>MoveTo!****</title>
<ellipse fill="gray" stroke="black" cx="583.95" cy="-90" rx="39.02" ry="18"/>
<text text-anchor="middle" x="583.95" y="-87.8" font-family="Times,serif" font-size="9.00">MoveTo!****</text>
</g>
<!-- Sequence&#45;&gt;MoveTo!**** -->
<g id="edge9" class="edge">
<title>Sequence&#45;&gt;MoveTo!****</title>
<path fill="none" stroke="black" d="M1364.72,-149.51C1359.33,-147.31 1353.54,-145.29 1347.95,-144 1037.43,-72.59 944.52,-169.84 631.95,-108 628.7,-107.36 625.37,-106.54 622.05,-105.61"/>
<polygon fill="black" stroke="black" points="622.84,-102.18 612.25,-102.55 620.75,-108.87 622.84,-102.18"/>
</g>
<!-- MoveTo!***** -->
<g id="node11" class="node">
<title>MoveTo!*****</title>
<ellipse fill="gray" stroke="black" cx="682.95" cy="-90" rx="42.29" ry="18"/>
<text text-anchor="middle" x="682.95" y="-87.8" font-family="Times,serif" font-size="9.00">MoveTo!*****</text>
</g>
<!-- Sequence&#45;&gt;MoveTo!***** -->
<g id="edge10" class="edge">
<title>Sequence&#45;&gt;MoveTo!*****</title>
<path fill="none" stroke="black" d="M1364.71,-149.55C1359.33,-147.34 1353.53,-145.31 1347.95,-144 1082.24,-81.71 1003.09,-158.82 734.95,-108 731.23,-107.3 727.41,-106.4 723.61,-105.39"/>
<polygon fill="black" stroke="black" points="724.26,-101.93 713.68,-102.49 722.3,-108.65 724.26,-101.93"/>
</g>
<!-- MoveTo!****** -->
<g id="node12" class="node">
<title>MoveTo!******</title>
<ellipse fill="gray" stroke="black" cx="787.95" cy="-90" rx="44.41" ry="18"/>
<text text-anchor="middle" x="787.95" y="-87.8" font-family="Times,serif" font-size="9.00">MoveTo!******</text>
</g>
<!-- Sequence&#45;&gt;MoveTo!****** -->
<g id="edge11" class="edge">
<title>Sequence&#45;&gt;MoveTo!******</title>
<path fill="none" stroke="black" d="M1364.7,-149.6C1359.32,-147.39 1353.53,-145.34 1347.95,-144 1128.33,-91.1 1062.76,-150.8 840.95,-108 837.27,-107.29 833.49,-106.4 829.72,-105.41"/>
<polygon fill="black" stroke="black" points="830.44,-101.98 819.86,-102.59 828.51,-108.71 830.44,-101.98"/>
</g>
<!-- Fallback* -->
<g id="node13" class="node">
<title>Fallback*</title>
<polygon fill="cyan" stroke="black" points="913.69,-82.54 913.69,-97.46 895.1,-108 868.8,-108 850.21,-97.46 850.21,-82.54 868.8,-72 895.1,-72 913.69,-82.54"/>
<text text-anchor="middle" x="881.95" y="-87.8" font-family="Times,serif" font-size="9.00">Fallback*</text>
</g>
<!-- Sequence&#45;&gt;Fallback* -->
<g id="edge12" class="edge">
<title>Sequence&#45;&gt;Fallback*</title>
<path fill="none" stroke="black" d="M1364.69,-149.65C1359.3,-147.44 1353.52,-145.38 1347.95,-144 1163.96,-98.35 1107.14,-152.84 922.95,-108 920.46,-107.39 917.93,-106.66 915.4,-105.84"/>
<polygon fill="black" stroke="black" points="916.41,-102.48 905.82,-102.34 914.01,-109.06 916.41,-102.48"/>
</g>
<!-- MoveTo!******** -->
<g id="node16" class="node">
<title>MoveTo!********</title>
<ellipse fill="gray" stroke="black" cx="981.95" cy="-90" rx="49.8" ry="18"/>
<text text-anchor="middle" x="981.95" y="-87.8" font-family="Times,serif" font-size="9.00">MoveTo!********</text>
</g>
<!-- Sequence&#45;&gt;MoveTo!******** -->
<g id="edge15" class="edge">
<title>Sequence&#45;&gt;MoveTo!********</title>
<path fill="none" stroke="black" d="M1364.65,-149.79C1359.27,-147.57 1353.49,-145.47 1347.95,-144 1215.16,-108.78 1175.63,-135.11 1040.95,-108 1036.78,-107.16 1032.47,-106.17 1028.17,-105.09"/>
<polygon fill="black" stroke="black" points="1028.79,-101.64 1018.23,-102.46 1027,-108.4 1028.79,-101.64"/>
</g>
<!-- NotReadyForSG?** -->
<g id="node17" class="node">
<title>NotReadyForSG?**</title>
<ellipse fill="gray" stroke="black" cx="1101.95" cy="-90" rx="51.92" ry="18"/>
<text text-anchor="middle" x="1101.95" y="-87.8" font-family="Times,serif" font-size="9.00">NotReadyForSG?**</text>
</g>
<!-- Sequence&#45;&gt;NotReadyForSG?** -->
<g id="edge16" class="edge">
<title>Sequence&#45;&gt;NotReadyForSG?**</title>
<path fill="none" stroke="black" d="M1364.14,-149.92C1358.88,-147.74 1353.29,-145.63 1347.95,-144 1267.85,-119.48 1244.47,-127.26 1162.95,-108 1158.86,-107.03 1154.63,-105.98 1150.39,-104.88"/>
<polygon fill="black" stroke="black" points="1151.12,-101.45 1140.55,-102.26 1149.32,-108.21 1151.12,-101.45"/>
</g>
<!-- CompLkGraph! -->
<g id="node18" class="node">
<title>CompLkGraph!</title>
<ellipse fill="gray" stroke="black" cx="1214.95" cy="-90" rx="42.95" ry="18"/>
<text text-anchor="middle" x="1214.95" y="-87.8" font-family="Times,serif" font-size="9.00">CompLkGraph!</text>
</g>
<!-- Sequence&#45;&gt;CompLkGraph! -->
<g id="edge17" class="edge">
<title>Sequence&#45;&gt;CompLkGraph!</title>
<path fill="none" stroke="black" d="M1363.45,-150.48C1358.34,-148.32 1352.97,-146.07 1347.95,-144 1316.63,-131.11 1280.97,-116.92 1254.46,-106.47"/>
<polygon fill="black" stroke="black" points="1255.72,-103.21 1245.14,-102.8 1253.16,-109.72 1255.72,-103.21"/>
</g>
<!-- NotReadyForSG?*** -->
<g id="node19" class="node">
<title>NotReadyForSG?***</title>
<ellipse fill="gray" stroke="black" cx="1330.95" cy="-90" rx="54.7" ry="18"/>
<text text-anchor="middle" x="1330.95" y="-87.8" font-family="Times,serif" font-size="9.00">NotReadyForSG?***</text>
</g>
<!-- Sequence&#45;&gt;NotReadyForSG?*** -->
<g id="edge18" class="edge">
<title>Sequence&#45;&gt;NotReadyForSG?***</title>
<path fill="none" stroke="black" d="M1374.15,-144.05C1367.22,-135.54 1358.69,-125.07 1351.05,-115.68"/>
<polygon fill="black" stroke="black" points="1353.65,-113.33 1344.62,-107.79 1348.22,-117.75 1353.65,-113.33"/>
</g>
<!-- GetSubGoal!** -->
<g id="node20" class="node">
<title>GetSubGoal!**</title>
<ellipse fill="gray" stroke="black" cx="1445.95" cy="-90" rx="42.29" ry="18"/>
<text text-anchor="middle" x="1445.95" y="-87.8" font-family="Times,serif" font-size="9.00">GetSubGoal!**</text>
</g>
<!-- Sequence&#45;&gt;GetSubGoal!** -->
<g id="edge19" class="edge">
<title>Sequence&#45;&gt;GetSubGoal!**</title>
<path fill="none" stroke="black" d="M1401.99,-144.05C1409.15,-135.42 1417.98,-124.76 1425.84,-115.27"/>
<polygon fill="black" stroke="black" points="1428.75,-117.24 1432.44,-107.31 1423.36,-112.77 1428.75,-117.24"/>
</g>
<!-- MoveTo!********* -->
<g id="node21" class="node">
<title>MoveTo!*********</title>
<ellipse fill="gray" stroke="black" cx="1558.95" cy="-90" rx="52.58" ry="18"/>
<text text-anchor="middle" x="1558.95" y="-87.8" font-family="Times,serif" font-size="9.00">MoveTo!*********</text>
</g>
<!-- Sequence&#45;&gt;MoveTo!********* -->
<g id="edge20" class="edge">
<title>Sequence&#45;&gt;MoveTo!*********</title>
<path fill="none" stroke="black" d="M1412.46,-150.5C1417.57,-148.34 1422.93,-146.08 1427.95,-144 1457.49,-131.75 1490.91,-118.23 1516.6,-107.92"/>
<polygon fill="black" stroke="black" points="1518.07,-111.1 1526.05,-104.13 1515.46,-104.6 1518.07,-111.1"/>
</g>
<!-- NotReadyForSG?**** -->
<g id="node22" class="node">
<title>NotReadyForSG?****</title>
<ellipse fill="gray" stroke="black" cx="1686.95" cy="-90" rx="57.32" ry="18"/>
<text text-anchor="middle" x="1686.95" y="-87.8" font-family="Times,serif" font-size="9.00">NotReadyForSG?****</text>
</g>
<!-- Sequence&#45;&gt;NotReadyForSG?**** -->
<g id="edge21" class="edge">
<title>Sequence&#45;&gt;NotReadyForSG?****</title>
<path fill="none" stroke="black" d="M1411.75,-149.89C1417.01,-147.71 1422.6,-145.61 1427.95,-144 1511.49,-118.79 1535.76,-126.89 1620.95,-108 1625.55,-106.98 1630.31,-105.87 1635.07,-104.71"/>
<polygon fill="black" stroke="black" points="1635.93,-108.11 1644.8,-102.31 1634.25,-101.31 1635.93,-108.11"/>
</g>
<!-- ReachGoal? -->
<g id="node23" class="node">
<title>ReachGoal?</title>
<ellipse fill="gray" stroke="black" cx="1795.95" cy="-90" rx="34.13" ry="18"/>
<text text-anchor="middle" x="1795.95" y="-87.8" font-family="Times,serif" font-size="9.00">ReachGoal?</text>
</g>
<!-- Sequence&#45;&gt;ReachGoal? -->
<g id="edge22" class="edge">
<title>Sequence&#45;&gt;ReachGoal?</title>
<path fill="none" stroke="black" d="M1411.24,-149.76C1416.62,-147.54 1422.4,-145.45 1427.95,-144 1568.54,-107.19 1611.91,-143.03 1752.95,-108 1755.73,-107.31 1758.56,-106.48 1761.39,-105.57"/>
<polygon fill="black" stroke="black" points="1762.6,-108.86 1770.85,-102.21 1760.26,-102.26 1762.6,-108.86"/>
</g>
<!-- GetLk! -->
<g id="node24" class="node">
<title>GetLk!</title>
<ellipse fill="gray" stroke="black" cx="1874.95" cy="-90" rx="27" ry="18"/>
<text text-anchor="middle" x="1874.95" y="-87.8" font-family="Times,serif" font-size="9.00">GetLk!</text>
</g>
<!-- Sequence&#45;&gt;GetLk! -->
<g id="edge23" class="edge">
<title>Sequence&#45;&gt;GetLk!</title>
<path fill="none" stroke="black" d="M1411.22,-149.67C1416.6,-147.45 1422.39,-145.39 1427.95,-144 1605.86,-99.59 1661.95,-155.9 1838.95,-108 1840.9,-107.47 1842.88,-106.84 1844.85,-106.14"/>
<polygon fill="black" stroke="black" points="1846.57,-109.22 1854.49,-102.18 1843.91,-102.74 1846.57,-109.22"/>
</g>
<!-- MoveTo!********** -->
<g id="node25" class="node">
<title>MoveTo!**********</title>
<ellipse fill="gray" stroke="black" cx="1974.95" cy="-90" rx="54.7" ry="18"/>
<text text-anchor="middle" x="1974.95" y="-87.8" font-family="Times,serif" font-size="9.00">MoveTo!**********</text>
</g>
<!-- Sequence&#45;&gt;MoveTo!********** -->
<g id="edge24" class="edge">
<title>Sequence&#45;&gt;MoveTo!**********</title>
<path fill="none" stroke="black" d="M1411.2,-149.61C1416.59,-147.4 1422.38,-145.35 1427.95,-144 1637.14,-93.22 1698.68,-143.78 1910.95,-108 1915.73,-107.19 1920.67,-106.19 1925.59,-105.08"/>
<polygon fill="black" stroke="black" points="1926.69,-108.42 1935.6,-102.68 1925.06,-101.61 1926.69,-108.42"/>
</g>
<!-- MoveTo!*********** -->
<g id="node26" class="node">
<title>MoveTo!***********</title>
<ellipse fill="gray" stroke="black" cx="2105.95" cy="-90" rx="57.97" ry="18"/>
<text text-anchor="middle" x="2105.95" y="-87.8" font-family="Times,serif" font-size="9.00">MoveTo!***********</text>
</g>
<!-- Sequence&#45;&gt;MoveTo!*********** -->
<g id="edge25" class="edge">
<title>Sequence&#45;&gt;MoveTo!***********</title>
<path fill="none" stroke="black" d="M1411.19,-149.55C1416.57,-147.34 1422.37,-145.31 1427.95,-144 1692.79,-81.89 1770.13,-149.64 2038.95,-108 2044.08,-107.21 2049.39,-106.19 2054.67,-105.06"/>
<polygon fill="black" stroke="black" points="2055.78,-108.4 2064.74,-102.76 2054.22,-101.58 2055.78,-108.4"/>
</g>
<!-- MoveTo!************ -->
<g id="node27" class="node">
<title>MoveTo!************</title>
<ellipse fill="gray" stroke="black" cx="2241.95" cy="-90" rx="60.09" ry="18"/>
<text text-anchor="middle" x="2241.95" y="-87.8" font-family="Times,serif" font-size="9.00">MoveTo!************</text>
</g>
<!-- Sequence&#45;&gt;MoveTo!************ -->
<g id="edge26" class="edge">
<title>Sequence&#45;&gt;MoveTo!************</title>
<path fill="none" stroke="black" d="M1411.18,-149.5C1416.56,-147.3 1422.36,-145.28 1427.95,-144 1751.09,-70.02 1844.93,-155.87 2172.95,-108 2178.37,-107.21 2183.98,-106.18 2189.56,-105.02"/>
<polygon fill="black" stroke="black" points="2190.5,-108.4 2199.51,-102.82 2188.99,-101.57 2190.5,-108.4"/>
</g>
<!-- NotReadyForSG?***** -->
<g id="node28" class="node">
<title>NotReadyForSG?*****</title>
<ellipse fill="gray" stroke="black" cx="2379.95" cy="-90" rx="60.09" ry="18"/>
<text text-anchor="middle" x="2379.95" y="-87.8" font-family="Times,serif" font-size="9.00">NotReadyForSG?*****</text>
</g>
<!-- Sequence&#45;&gt;NotReadyForSG?***** -->
<g id="edge27" class="edge">
<title>Sequence&#45;&gt;NotReadyForSG?*****</title>
<path fill="none" stroke="black" d="M1411.17,-149.47C1416.56,-147.27 1422.36,-145.26 1427.95,-144 1811.14,-57.78 1922.09,-163.26 2310.95,-108 2316.37,-107.23 2321.99,-106.22 2327.56,-105.07"/>
<polygon fill="black" stroke="black" points="2328.5,-108.44 2337.52,-102.87 2327,-101.61 2328.5,-108.44"/>
</g>
<!-- MoveTo!************* -->
<g id="node29" class="node">
<title>MoveTo!*************</title>
<ellipse fill="gray" stroke="black" cx="2520.95" cy="-90" rx="62.86" ry="18"/>
<text text-anchor="middle" x="2520.95" y="-87.8" font-family="Times,serif" font-size="9.00">MoveTo!*************</text>
</g>
<!-- Sequence&#45;&gt;MoveTo!************* -->
<g id="edge28" class="edge">
<title>Sequence&#45;&gt;MoveTo!*************</title>
<path fill="none" stroke="black" d="M1411.16,-149.45C1416.55,-147.25 1422.35,-145.24 1427.95,-144 1649.58,-94.77 2223.94,-138.23 2448.95,-108 2454.74,-107.22 2460.75,-106.18 2466.71,-105"/>
<polygon fill="black" stroke="black" points="2467.59,-108.39 2476.65,-102.9 2466.14,-101.54 2467.59,-108.39"/>
</g>
<!-- MoveTo!************** -->
<g id="node30" class="node">
<title>MoveTo!**************</title>
<ellipse fill="gray" stroke="black" cx="2666.95" cy="-90" rx="65.48" ry="18"/>
<text text-anchor="middle" x="2666.95" y="-87.8" font-family="Times,serif" font-size="9.00">MoveTo!**************</text>
</g>
<!-- Sequence&#45;&gt;MoveTo!************** -->
<g id="edge29" class="edge">
<title>Sequence&#45;&gt;MoveTo!**************</title>
<path fill="none" stroke="black" d="M1411.16,-149.43C1416.55,-147.23 1422.35,-145.23 1427.95,-144 1680.92,-88.39 2336.07,-141.15 2592.95,-108 2598.9,-107.23 2605.07,-106.2 2611.19,-105.02"/>
<polygon fill="black" stroke="black" points="2612.32,-108.37 2621.41,-102.93 2610.91,-101.51 2612.32,-108.37"/>
</g>
<!-- MoveTo!*************** -->
<g id="node31" class="node">
<title>MoveTo!***************</title>
<ellipse fill="gray" stroke="black" cx="2817.95" cy="-90" rx="68.25" ry="18"/>
<text text-anchor="middle" x="2817.95" y="-87.8" font-family="Times,serif" font-size="9.00">MoveTo!***************</text>
</g>
<!-- Sequence&#45;&gt;MoveTo!*************** -->
<g id="edge30" class="edge">
<title>Sequence&#45;&gt;MoveTo!***************</title>
<path fill="none" stroke="black" d="M1411.16,-149.42C1416.55,-147.22 1422.35,-145.22 1427.95,-144 1713.14,-81.83 2451.25,-143.62 2740.95,-108 2747.28,-107.22 2753.86,-106.16 2760.38,-104.95"/>
<polygon fill="black" stroke="black" points="2761.42,-108.32 2770.55,-102.94 2760.06,-101.45 2761.42,-108.32"/>
</g>
<!-- LkClose? -->
<g id="node32" class="node">
<title>LkClose?</title>
<ellipse fill="gray" stroke="black" cx="2932.95" cy="-90" rx="28.74" ry="18"/>
<text text-anchor="middle" x="2932.95" y="-87.8" font-family="Times,serif" font-size="9.00">LkClose?</text>
</g>
<!-- Sequence&#45;&gt;LkClose? -->
<g id="edge31" class="edge">
<title>Sequence&#45;&gt;LkClose?</title>
<path fill="none" stroke="black" d="M1411.15,-149.4C1416.54,-147.2 1422.35,-145.21 1427.95,-144 1746.67,-75 2576.9,-179.99 2894.95,-108 2897.42,-107.44 2899.92,-106.72 2902.4,-105.89"/>
<polygon fill="black" stroke="black" points="2903.71,-109.13 2911.76,-102.25 2901.17,-102.61 2903.71,-109.13"/>
</g>
<!-- NotReadyForSG?****** -->
<g id="node33" class="node">
<title>NotReadyForSG?******</title>
<ellipse fill="gray" stroke="black" cx="3041.95" cy="-90" rx="62.21" ry="18"/>
<text text-anchor="middle" x="3041.95" y="-87.8" font-family="Times,serif" font-size="9.00">NotReadyForSG?******</text>
</g>
<!-- Sequence&#45;&gt;NotReadyForSG?****** -->
<g id="edge32" class="edge">
<title>Sequence&#45;&gt;NotReadyForSG?******</title>
<path fill="none" stroke="black" d="M1411.15,-149.4C1416.54,-147.2 1422.34,-145.21 1427.95,-144 1763.21,-71.63 2630.83,-152.18 2970.95,-108 2976.67,-107.26 2982.59,-106.24 2988.48,-105.07"/>
<polygon fill="black" stroke="black" points="2989.23,-108.49 2998.29,-102.99 2987.78,-101.64 2989.23,-108.49"/>
</g>
<!-- GetSubGoal!* -->
<g id="node14" class="node">
<title>GetSubGoal!*</title>
<ellipse fill="gray" stroke="black" cx="828.95" cy="-18" rx="39.02" ry="18"/>
<text text-anchor="middle" x="828.95" y="-15.8" font-family="Times,serif" font-size="9.00">GetSubGoal!*</text>
</g>
<!-- Fallback*&#45;&gt;GetSubGoal!* -->
<g id="edge13" class="edge">
<title>Fallback*&#45;&gt;GetSubGoal!*</title>
<path fill="none" stroke="black" d="M868.85,-71.7C862.37,-63.14 854.44,-52.67 847.37,-43.33"/>
<polygon fill="black" stroke="black" points="850,-41 841.17,-35.14 844.42,-45.23 850,-41"/>
</g>
<!-- MoveTo!******* -->
<g id="node15" class="node">
<title>MoveTo!*******</title>
<ellipse fill="gray" stroke="black" cx="933.95" cy="-18" rx="47.19" ry="18"/>
<text text-anchor="middle" x="933.95" y="-15.8" font-family="Times,serif" font-size="9.00">MoveTo!*******</text>
</g>
<!-- Fallback*&#45;&gt;MoveTo!******* -->
<g id="edge14" class="edge">
<title>Fallback*&#45;&gt;MoveTo!*******</title>
<path fill="none" stroke="black" d="M894.8,-71.7C901.07,-63.27 908.71,-52.97 915.58,-43.73"/>
<polygon fill="black" stroke="black" points="918.45,-45.74 921.6,-35.62 912.83,-41.56 918.45,-45.74"/>
</g>
</g>
</svg>
