<?xml version="1.0" encoding="UTF-8" standalone="no"?>
<!DOCTYPE svg PUBLIC "-//W3C//DTD SVG 1.1//EN"
 "http://www.w3.org/Graphics/SVG/1.1/DTD/svg11.dtd">
<!-- Generated by graphviz version 2.43.0 (0)
 -->
<!-- Title: pastafarianism Pages: 1 -->
<svg width="2882pt" height="260pt"
 viewBox="0.00 0.00 2881.99 260.00" xmlns="http://www.w3.org/2000/svg" xmlns:xlink="http://www.w3.org/1999/xlink">
<g id="graph0" class="graph" transform="scale(1 1) rotate(0) translate(4 256)">
<title>pastafarianism</title>
<polygon fill="white" stroke="transparent" points="-4,4 -4,-256 2877.99,-256 2877.99,4 -4,4"/>
<!-- Fallback -->
<g id="node1" class="node">
<title>Fallback</title>
<polygon fill="cyan" stroke="black" points="1377.19,-226.54 1377.19,-241.46 1360.06,-252 1335.84,-252 1318.71,-241.46 1318.71,-226.54 1335.84,-216 1360.06,-216 1377.19,-226.54"/>
<text text-anchor="middle" x="1347.95" y="-231.8" font-family="Times,serif" font-size="9.00">Fallback</text>
</g>
<!-- NotReadyForSG? -->
<g id="node2" class="node">
<title>NotReadyForSG?</title>
<ellipse fill="gray" stroke="black" cx="1195.95" cy="-162" rx="46.53" ry="18"/>
<text text-anchor="middle" x="1195.95" y="-159.8" font-family="Times,serif" font-size="9.00">NotReadyForSG?</text>
</g>
<!-- Fallback&#45;&gt;NotReadyForSG? -->
<g id="edge1" class="edge">
<title>Fallback&#45;&gt;NotReadyForSG?</title>
<path fill="none" stroke="black" d="M1325.19,-222.52C1301.16,-211.45 1262.85,-193.81 1234.17,-180.6"/>
<polygon fill="black" stroke="black" points="1235.39,-177.31 1224.85,-176.31 1232.47,-183.67 1235.39,-177.31"/>
</g>
<!-- Sequence -->
<g id="node3" class="node">
<title>Sequence</title>
<polygon fill="cyan" stroke="black" points="1323.44,-154.54 1323.44,-169.46 1305,-180 1278.91,-180 1260.46,-169.46 1260.46,-154.54 1278.91,-144 1305,-144 1323.44,-154.54"/>
<text text-anchor="middle" x="1291.95" y="-159.8" font-family="Times,serif" font-size="9.00">Sequence</text>
</g>
<!-- Fallback&#45;&gt;Sequence -->
<g id="edge2" class="edge">
<title>Fallback&#45;&gt;Sequence</title>
<path fill="none" stroke="black" d="M1334.68,-216.41C1327.87,-207.91 1319.45,-197.37 1311.88,-187.91"/>
<polygon fill="black" stroke="black" points="1314.5,-185.58 1305.52,-179.96 1309.03,-189.95 1314.5,-185.58"/>
</g>
<!-- NotReadyForSG?****** -->
<g id="node37" class="node">
<title>NotReadyForSG?******</title>
<ellipse fill="gray" stroke="black" cx="1403.95" cy="-162" rx="62.21" ry="18"/>
<text text-anchor="middle" x="1403.95" y="-159.8" font-family="Times,serif" font-size="9.00">NotReadyForSG?******</text>
</g>
<!-- Fallback&#45;&gt;NotReadyForSG?****** -->
<g id="edge36" class="edge">
<title>Fallback&#45;&gt;NotReadyForSG?******</title>
<path fill="none" stroke="black" d="M1361.22,-216.41C1368.03,-207.91 1376.45,-197.37 1384.02,-187.91"/>
<polygon fill="black" stroke="black" points="1386.87,-189.95 1390.39,-179.96 1381.41,-185.58 1386.87,-189.95"/>
</g>
<!-- ReachGoal?** -->
<g id="node38" class="node">
<title>ReachGoal?**</title>
<ellipse fill="gray" stroke="black" cx="1523.95" cy="-162" rx="39.02" ry="18"/>
<text text-anchor="middle" x="1523.95" y="-159.8" font-family="Times,serif" font-size="9.00">ReachGoal?**</text>
</g>
<!-- Fallback&#45;&gt;ReachGoal?** -->
<g id="edge37" class="edge">
<title>Fallback&#45;&gt;ReachGoal?**</title>
<path fill="none" stroke="black" d="M1372.42,-223.27C1401.74,-211.61 1451.19,-191.94 1485.6,-178.25"/>
<polygon fill="black" stroke="black" points="1487.31,-181.34 1495.31,-174.39 1484.73,-174.83 1487.31,-181.34"/>
</g>
<!-- GetSubGoal! -->
<g id="node4" class="node">
<title>GetSubGoal!</title>
<ellipse fill="gray" stroke="black" cx="36.95" cy="-90" rx="36.9" ry="18"/>
<text text-anchor="middle" x="36.95" y="-87.8" font-family="Times,serif" font-size="9.00">GetSubGoal!</text>
</g>
<!-- Sequence&#45;&gt;GetSubGoal! -->
<g id="edge3" class="edge">
<title>Sequence&#45;&gt;GetSubGoal!</title>
<path fill="none" stroke="black" d="M1268.74,-149.43C1263.35,-147.23 1257.55,-145.23 1251.95,-144 998.11,-88.21 338.06,-157.69 82.95,-108 79.77,-107.38 76.53,-106.57 73.3,-105.64"/>
<polygon fill="black" stroke="black" points="74.37,-102.31 63.78,-102.56 72.21,-108.97 74.37,-102.31"/>
</g>
<!-- MoveTo! -->
<g id="node5" class="node">
<title>MoveTo!</title>
<ellipse fill="gray" stroke="black" cx="120.95" cy="-90" rx="28.74" ry="18"/>
<text text-anchor="middle" x="120.95" y="-87.8" font-family="Times,serif" font-size="9.00">MoveTo!</text>
</g>
<!-- Sequence&#45;&gt;MoveTo! -->
<g id="edge4" class="edge">
<title>Sequence&#45;&gt;MoveTo!</title>
<path fill="none" stroke="black" d="M1268.74,-149.44C1263.35,-147.24 1257.55,-145.24 1251.95,-144 1014.65,-91.58 395.75,-162.64 158.95,-108 156.63,-107.47 154.28,-106.79 151.95,-106.01"/>
<polygon fill="black" stroke="black" points="153.14,-102.72 142.55,-102.39 150.62,-109.25 153.14,-102.72"/>
</g>
<!-- MoveTo!* -->
<g id="node6" class="node">
<title>MoveTo!*</title>
<ellipse fill="gray" stroke="black" cx="199.95" cy="-90" rx="31.51" ry="18"/>
<text text-anchor="middle" x="199.95" y="-87.8" font-family="Times,serif" font-size="9.00">MoveTo!*</text>
</g>
<!-- Sequence&#45;&gt;MoveTo!* -->
<g id="edge5" class="edge">
<title>Sequence&#45;&gt;MoveTo!*</title>
<path fill="none" stroke="black" d="M1268.74,-149.45C1263.35,-147.25 1257.55,-145.24 1251.95,-144 813.05,-46.44 680.28,-203.63 240.95,-108 238.29,-107.42 235.58,-106.68 232.89,-105.83"/>
<polygon fill="black" stroke="black" points="233.93,-102.48 223.33,-102.37 231.55,-109.06 233.93,-102.48"/>
</g>
<!-- MoveTo!** -->
<g id="node7" class="node">
<title>MoveTo!**</title>
<ellipse fill="gray" stroke="black" cx="283.95" cy="-90" rx="34.13" ry="18"/>
<text text-anchor="middle" x="283.95" y="-87.8" font-family="Times,serif" font-size="9.00">MoveTo!**</text>
</g>
<!-- Sequence&#45;&gt;MoveTo!** -->
<g id="edge6" class="edge">
<title>Sequence&#45;&gt;MoveTo!**</title>
<path fill="none" stroke="black" d="M1268.73,-149.46C1263.35,-147.26 1257.55,-145.25 1251.95,-144 850.48,-54.06 729.53,-192.84 326.95,-108 324.15,-107.41 321.3,-106.66 318.46,-105.79"/>
<polygon fill="black" stroke="black" points="319.57,-102.47 308.98,-102.53 317.29,-109.09 319.57,-102.47"/>
</g>
<!-- MoveTo!*** -->
<g id="node8" class="node">
<title>MoveTo!***</title>
<ellipse fill="gray" stroke="black" cx="372.95" cy="-90" rx="36.9" ry="18"/>
<text text-anchor="middle" x="372.95" y="-87.8" font-family="Times,serif" font-size="9.00">MoveTo!***</text>
</g>
<!-- Sequence&#45;&gt;MoveTo!*** -->
<g id="edge7" class="edge">
<title>Sequence&#45;&gt;MoveTo!***</title>
<path fill="none" stroke="black" d="M1268.73,-149.48C1263.34,-147.28 1257.54,-145.27 1251.95,-144 890.52,-62.22 782.23,-181.11 418.95,-108 415.78,-107.36 412.53,-106.54 409.31,-105.6"/>
<polygon fill="black" stroke="black" points="410.38,-102.27 399.79,-102.5 408.21,-108.92 410.38,-102.27"/>
</g>
<!-- MoveTo!**** -->
<g id="node9" class="node">
<title>MoveTo!****</title>
<ellipse fill="gray" stroke="black" cx="466.95" cy="-90" rx="39.02" ry="18"/>
<text text-anchor="middle" x="466.95" y="-87.8" font-family="Times,serif" font-size="9.00">MoveTo!****</text>
</g>
<!-- Sequence&#45;&gt;MoveTo!**** -->
<g id="edge8" class="edge">
<title>Sequence&#45;&gt;MoveTo!****</title>
<path fill="none" stroke="black" d="M1268.72,-149.51C1263.34,-147.3 1257.54,-145.28 1251.95,-144 932.3,-70.72 836.71,-171.41 514.95,-108 511.7,-107.36 508.37,-106.54 505.05,-105.61"/>
<polygon fill="black" stroke="black" points="505.84,-102.19 495.25,-102.55 503.75,-108.87 505.84,-102.19"/>
</g>
<!-- MoveTo!***** -->
<g id="node10" class="node">
<title>MoveTo!*****</title>
<ellipse fill="gray" stroke="black" cx="565.95" cy="-90" rx="42.29" ry="18"/>
<text text-anchor="middle" x="565.95" y="-87.8" font-family="Times,serif" font-size="9.00">MoveTo!*****</text>
</g>
<!-- Sequence&#45;&gt;MoveTo!***** -->
<g id="edge9" class="edge">
<title>Sequence&#45;&gt;MoveTo!*****</title>
<path fill="none" stroke="black" d="M1268.72,-149.54C1263.33,-147.33 1257.54,-145.3 1251.95,-144 976.67,-79.76 894.58,-161.16 616.95,-108 613.35,-107.31 609.65,-106.43 605.97,-105.44"/>
<polygon fill="black" stroke="black" points="606.93,-102.07 596.34,-102.59 604.94,-108.78 606.93,-102.07"/>
</g>
<!-- Fallback* -->
<g id="node11" class="node">
<title>Fallback*</title>
<polygon fill="cyan" stroke="black" points="689.69,-82.54 689.69,-97.46 671.1,-108 644.8,-108 626.21,-97.46 626.21,-82.54 644.8,-72 671.1,-72 689.69,-82.54"/>
<text text-anchor="middle" x="657.95" y="-87.8" font-family="Times,serif" font-size="9.00">Fallback*</text>
</g>
<!-- Sequence&#45;&gt;Fallback* -->
<g id="edge10" class="edge">
<title>Sequence&#45;&gt;Fallback*</title>
<path fill="none" stroke="black" d="M1268.71,-149.57C1263.32,-147.36 1257.53,-145.33 1251.95,-144 1012.33,-87.03 938.82,-163.92 698.95,-108 696.3,-107.38 693.6,-106.61 690.91,-105.74"/>
<polygon fill="black" stroke="black" points="691.96,-102.39 681.36,-102.25 689.55,-108.97 691.96,-102.39"/>
</g>
<!-- MoveTo!****** -->
<g id="node14" class="node">
<title>MoveTo!******</title>
<ellipse fill="gray" stroke="black" cx="751.95" cy="-90" rx="44.41" ry="18"/>
<text text-anchor="middle" x="751.95" y="-87.8" font-family="Times,serif" font-size="9.00">MoveTo!******</text>
</g>
<!-- Sequence&#45;&gt;MoveTo!****** -->
<g id="edge13" class="edge">
<title>Sequence&#45;&gt;MoveTo!******</title>
<path fill="none" stroke="black" d="M1268.69,-149.64C1263.31,-147.42 1257.52,-145.37 1251.95,-144 1058.41,-96.41 1000.47,-146.69 804.95,-108 801.27,-107.27 797.5,-106.38 793.73,-105.38"/>
<polygon fill="black" stroke="black" points="794.45,-101.94 783.87,-102.54 792.51,-108.67 794.45,-101.94"/>
</g>
<!-- Fallback** -->
<g id="node15" class="node">
<title>Fallback**</title>
<polygon fill="cyan" stroke="black" points="883.94,-82.54 883.94,-97.46 863.44,-108 834.46,-108 813.96,-97.46 813.96,-82.54 834.46,-72 863.44,-72 883.94,-82.54"/>
<text text-anchor="middle" x="848.95" y="-87.8" font-family="Times,serif" font-size="9.00">Fallback**</text>
</g>
<!-- Sequence&#45;&gt;Fallback** -->
<g id="edge14" class="edge">
<title>Sequence&#45;&gt;Fallback**</title>
<path fill="none" stroke="black" d="M1268.67,-149.72C1263.29,-147.5 1257.51,-145.42 1251.95,-144 1096.62,-104.19 1048.92,-145.23 892.95,-108 890.11,-107.32 887.21,-106.5 884.32,-105.6"/>
<polygon fill="black" stroke="black" points="885.24,-102.21 874.64,-102.25 882.95,-108.83 885.24,-102.21"/>
</g>
<!-- MoveTo!******** -->
<g id="node18" class="node">
<title>MoveTo!********</title>
<ellipse fill="gray" stroke="black" cx="951.95" cy="-90" rx="49.8" ry="18"/>
<text text-anchor="middle" x="951.95" y="-87.8" font-family="Times,serif" font-size="9.00">MoveTo!********</text>
</g>
<!-- Sequence&#45;&gt;MoveTo!******** -->
<g id="edge17" class="edge">
<title>Sequence&#45;&gt;MoveTo!********</title>
<path fill="none" stroke="black" d="M1268.19,-149.74C1262.93,-147.57 1257.32,-145.52 1251.95,-144 1147.29,-114.5 1116.15,-131.35 1009.95,-108 1006.08,-107.15 1002.1,-106.18 998.11,-105.15"/>
<polygon fill="black" stroke="black" points="998.83,-101.72 988.26,-102.47 996.99,-108.47 998.83,-101.72"/>
</g>
<!-- NotReadyForSG?* -->
<g id="node19" class="node">
<title>NotReadyForSG?*</title>
<ellipse fill="gray" stroke="black" cx="1068.95" cy="-90" rx="49.8" ry="18"/>
<text text-anchor="middle" x="1068.95" y="-87.8" font-family="Times,serif" font-size="9.00">NotReadyForSG?*</text>
</g>
<!-- Sequence&#45;&gt;NotReadyForSG?* -->
<g id="edge18" class="edge">
<title>Sequence&#45;&gt;NotReadyForSG?*</title>
<path fill="none" stroke="black" d="M1267.6,-150.09C1262.47,-147.96 1257.07,-145.82 1251.95,-144 1197.47,-124.66 1182.47,-124.13 1126.95,-108 1123.42,-106.97 1119.76,-105.91 1116.09,-104.84"/>
<polygon fill="black" stroke="black" points="1116.96,-101.45 1106.38,-102 1115,-108.16 1116.96,-101.45"/>
</g>
<!-- CompLkGraph! -->
<g id="node20" class="node">
<title>CompLkGraph!</title>
<ellipse fill="gray" stroke="black" cx="1178.95" cy="-90" rx="42.95" ry="18"/>
<text text-anchor="middle" x="1178.95" y="-87.8" font-family="Times,serif" font-size="9.00">CompLkGraph!</text>
</g>
<!-- Sequence&#45;&gt;CompLkGraph! -->
<g id="edge19" class="edge">
<title>Sequence&#45;&gt;CompLkGraph!</title>
<path fill="none" stroke="black" d="M1271.22,-148.16C1254.21,-137.62 1229.83,-122.52 1210.41,-110.49"/>
<polygon fill="black" stroke="black" points="1212.22,-107.49 1201.88,-105.2 1208.54,-113.44 1212.22,-107.49"/>
</g>
<!-- NotReadyForSG?** -->
<g id="node21" class="node">
<title>NotReadyForSG?**</title>
<ellipse fill="gray" stroke="black" cx="1291.95" cy="-90" rx="51.92" ry="18"/>
<text text-anchor="middle" x="1291.95" y="-87.8" font-family="Times,serif" font-size="9.00">NotReadyForSG?**</text>
</g>
<!-- Sequence&#45;&gt;NotReadyForSG?** -->
<g id="edge20" class="edge">
<title>Sequence&#45;&gt;NotReadyForSG?**</title>
<path fill="none" stroke="black" d="M1291.95,-143.7C1291.95,-135.98 1291.95,-126.71 1291.95,-118.11"/>
<polygon fill="black" stroke="black" points="1295.45,-118.1 1291.95,-108.1 1288.45,-118.1 1295.45,-118.1"/>
</g>
<!-- MoveTo!********* -->
<g id="node22" class="node">
<title>MoveTo!*********</title>
<ellipse fill="gray" stroke="black" cx="1414.95" cy="-90" rx="52.58" ry="18"/>
<text text-anchor="middle" x="1414.95" y="-87.8" font-family="Times,serif" font-size="9.00">MoveTo!*********</text>
</g>
<!-- Sequence&#45;&gt;MoveTo!********* -->
<g id="edge21" class="edge">
<title>Sequence&#45;&gt;MoveTo!*********</title>
<path fill="none" stroke="black" d="M1313.66,-148.65C1332,-138.21 1358.63,-123.05 1379.97,-110.9"/>
<polygon fill="black" stroke="black" points="1381.8,-113.89 1388.76,-105.9 1378.34,-107.81 1381.8,-113.89"/>
</g>
<!-- MoveTo!********** -->
<g id="node23" class="node">
<title>MoveTo!**********</title>
<ellipse fill="gray" stroke="black" cx="1539.95" cy="-90" rx="54.7" ry="18"/>
<text text-anchor="middle" x="1539.95" y="-87.8" font-family="Times,serif" font-size="9.00">MoveTo!**********</text>
</g>
<!-- Sequence&#45;&gt;MoveTo!********** -->
<g id="edge22" class="edge">
<title>Sequence&#45;&gt;MoveTo!**********</title>
<path fill="none" stroke="black" d="M1316.44,-150.15C1321.83,-147.96 1327.54,-145.79 1332.95,-144 1395.59,-123.31 1413.1,-124.59 1476.95,-108 1480.96,-106.96 1485.11,-105.87 1489.28,-104.76"/>
<polygon fill="black" stroke="black" points="1490.21,-108.13 1498.97,-102.18 1488.41,-101.37 1490.21,-108.13"/>
</g>
<!-- NotReadyForSG?*** -->
<g id="node24" class="node">
<title>NotReadyForSG?***</title>
<ellipse fill="gray" stroke="black" cx="1667.95" cy="-90" rx="54.7" ry="18"/>
<text text-anchor="middle" x="1667.95" y="-87.8" font-family="Times,serif" font-size="9.00">NotReadyForSG?***</text>
</g>
<!-- Sequence&#45;&gt;NotReadyForSG?*** -->
<g id="edge23" class="edge">
<title>Sequence&#45;&gt;NotReadyForSG?***</title>
<path fill="none" stroke="black" d="M1315.87,-149.86C1321.38,-147.64 1327.29,-145.52 1332.95,-144 1450.29,-112.46 1484.77,-131.64 1603.95,-108 1608.64,-107.07 1613.49,-105.99 1618.33,-104.84"/>
<polygon fill="black" stroke="black" points="1619.32,-108.2 1628.19,-102.4 1617.64,-101.41 1619.32,-108.2"/>
</g>
<!-- GetLk!* -->
<g id="node25" class="node">
<title>GetLk!*</title>
<ellipse fill="gray" stroke="black" cx="1767.95" cy="-90" rx="27.27" ry="18"/>
<text text-anchor="middle" x="1767.95" y="-87.8" font-family="Times,serif" font-size="9.00">GetLk!*</text>
</g>
<!-- Sequence&#45;&gt;GetLk!* -->
<g id="edge24" class="edge">
<title>Sequence&#45;&gt;GetLk!*</title>
<path fill="none" stroke="black" d="M1315.39,-149.86C1321.03,-147.58 1327.11,-145.44 1332.95,-144 1505.84,-101.41 1560.14,-154.73 1731.95,-108 1733.9,-107.47 1735.88,-106.84 1737.84,-106.14"/>
<polygon fill="black" stroke="black" points="1739.57,-109.21 1747.49,-102.17 1736.91,-102.74 1739.57,-109.21"/>
</g>
<!-- MoveTo!*********** -->
<g id="node26" class="node">
<title>MoveTo!***********</title>
<ellipse fill="gray" stroke="black" cx="1870.95" cy="-90" rx="57.97" ry="18"/>
<text text-anchor="middle" x="1870.95" y="-87.8" font-family="Times,serif" font-size="9.00">MoveTo!***********</text>
</g>
<!-- Sequence&#45;&gt;MoveTo!*********** -->
<g id="edge25" class="edge">
<title>Sequence&#45;&gt;MoveTo!***********</title>
<path fill="none" stroke="black" d="M1315.37,-149.8C1321.02,-147.52 1327.1,-145.4 1332.95,-144 1537.14,-95.18 1596.77,-141.94 1803.95,-108 1809.07,-107.16 1814.38,-106.12 1819.66,-104.97"/>
<polygon fill="black" stroke="black" points="1820.77,-108.3 1829.73,-102.64 1819.19,-101.48 1820.77,-108.3"/>
</g>
<!-- GetLk!** -->
<g id="node27" class="node">
<title>GetLk!**</title>
<ellipse fill="gray" stroke="black" cx="1975.95" cy="-90" rx="29.39" ry="18"/>
<text text-anchor="middle" x="1975.95" y="-87.8" font-family="Times,serif" font-size="9.00">GetLk!**</text>
</g>
<!-- Sequence&#45;&gt;GetLk!** -->
<g id="edge26" class="edge">
<title>Sequence&#45;&gt;GetLk!**</title>
<path fill="none" stroke="black" d="M1315.36,-149.73C1321,-147.45 1327.09,-145.35 1332.95,-144 1595.45,-83.58 1676.31,-172.04 1937.95,-108 1940.26,-107.43 1942.6,-106.73 1944.94,-105.94"/>
<polygon fill="black" stroke="black" points="1946.28,-109.17 1954.33,-102.28 1943.74,-102.65 1946.28,-109.17"/>
</g>
<!-- MoveTo!************ -->
<g id="node28" class="node">
<title>MoveTo!************</title>
<ellipse fill="gray" stroke="black" cx="2082.95" cy="-90" rx="60.09" ry="18"/>
<text text-anchor="middle" x="2082.95" y="-87.8" font-family="Times,serif" font-size="9.00">MoveTo!************</text>
</g>
<!-- Sequence&#45;&gt;MoveTo!************ -->
<g id="edge27" class="edge">
<title>Sequence&#45;&gt;MoveTo!************</title>
<path fill="none" stroke="black" d="M1315.35,-149.7C1320.99,-147.43 1327.09,-145.33 1332.95,-144 1628.54,-76.99 1714.14,-152.45 2013.95,-108 2019.37,-107.2 2024.98,-106.16 2030.55,-105"/>
<polygon fill="black" stroke="black" points="2031.5,-108.37 2040.5,-102.79 2029.98,-101.54 2031.5,-108.37"/>
</g>
<!-- NotReadyForSG?**** -->
<g id="node29" class="node">
<title>NotReadyForSG?****</title>
<ellipse fill="gray" stroke="black" cx="2217.95" cy="-90" rx="57.32" ry="18"/>
<text text-anchor="middle" x="2217.95" y="-87.8" font-family="Times,serif" font-size="9.00">NotReadyForSG?****</text>
</g>
<!-- Sequence&#45;&gt;NotReadyForSG?**** -->
<g id="edge28" class="edge">
<title>Sequence&#45;&gt;NotReadyForSG?****</title>
<path fill="none" stroke="black" d="M1315.34,-149.66C1320.98,-147.39 1327.08,-145.3 1332.95,-144 1688.64,-65.02 1791.58,-161.73 2151.95,-108 2157.01,-107.25 2162.25,-106.26 2167.46,-105.14"/>
<polygon fill="black" stroke="black" points="2168.42,-108.51 2177.38,-102.86 2166.85,-101.69 2168.42,-108.51"/>
</g>
<!-- MoveTo!************* -->
<g id="node30" class="node">
<title>MoveTo!*************</title>
<ellipse fill="gray" stroke="black" cx="2355.95" cy="-90" rx="62.86" ry="18"/>
<text text-anchor="middle" x="2355.95" y="-87.8" font-family="Times,serif" font-size="9.00">MoveTo!*************</text>
</g>
<!-- Sequence&#45;&gt;MoveTo!************* -->
<g id="edge29" class="edge">
<title>Sequence&#45;&gt;MoveTo!*************</title>
<path fill="none" stroke="black" d="M1315.34,-149.64C1320.98,-147.37 1327.08,-145.28 1332.95,-144 1539.55,-98.79 2074.39,-136.43 2283.95,-108 2289.74,-107.21 2295.74,-106.17 2301.71,-104.99"/>
<polygon fill="black" stroke="black" points="2302.59,-108.38 2311.65,-102.88 2301.14,-101.53 2302.59,-108.38"/>
</g>
<!-- MoveTo!************** -->
<g id="node31" class="node">
<title>MoveTo!**************</title>
<ellipse fill="gray" stroke="black" cx="2501.95" cy="-90" rx="65.48" ry="18"/>
<text text-anchor="middle" x="2501.95" y="-87.8" font-family="Times,serif" font-size="9.00">MoveTo!**************</text>
</g>
<!-- Sequence&#45;&gt;MoveTo!************** -->
<g id="edge30" class="edge">
<title>Sequence&#45;&gt;MoveTo!**************</title>
<path fill="none" stroke="black" d="M1315.33,-149.62C1320.97,-147.34 1327.08,-145.27 1332.95,-144 1570.92,-92.54 2186.52,-139.4 2427.95,-108 2433.9,-107.23 2440.06,-106.19 2446.19,-105.01"/>
<polygon fill="black" stroke="black" points="2447.32,-108.35 2456.41,-102.91 2445.91,-101.5 2447.32,-108.35"/>
</g>
<!-- Fallback*** -->
<g id="node32" class="node">
<title>Fallback***</title>
<polygon fill="cyan" stroke="black" points="2660.44,-82.54 2660.44,-97.46 2638.48,-108 2607.42,-108 2585.46,-97.46 2585.46,-82.54 2607.42,-72 2638.48,-72 2660.44,-82.54"/>
<text text-anchor="middle" x="2622.95" y="-87.8" font-family="Times,serif" font-size="9.00">Fallback***</text>
</g>
<!-- Sequence&#45;&gt;Fallback*** -->
<g id="edge31" class="edge">
<title>Sequence&#45;&gt;Fallback***</title>
<path fill="none" stroke="black" d="M1315.33,-149.6C1320.97,-147.33 1327.07,-145.26 1332.95,-144 1603.16,-86.12 2304.48,-159.65 2575.95,-108 2579.19,-107.38 2582.5,-106.58 2585.8,-105.65"/>
<polygon fill="black" stroke="black" points="2587.05,-108.92 2595.53,-102.57 2584.94,-102.25 2587.05,-108.92"/>
</g>
<!-- LkClose? -->
<g id="node35" class="node">
<title>LkClose?</title>
<ellipse fill="gray" stroke="black" cx="2706.95" cy="-90" rx="28.74" ry="18"/>
<text text-anchor="middle" x="2706.95" y="-87.8" font-family="Times,serif" font-size="9.00">LkClose?</text>
</g>
<!-- Sequence&#45;&gt;LkClose? -->
<g id="edge34" class="edge">
<title>Sequence&#45;&gt;LkClose?</title>
<path fill="none" stroke="black" d="M1315.33,-149.59C1320.97,-147.32 1327.07,-145.25 1332.95,-144 1623.42,-82.09 2379.36,-173.91 2668.95,-108 2671.42,-107.44 2673.92,-106.71 2676.4,-105.88"/>
<polygon fill="black" stroke="black" points="2677.71,-109.13 2685.76,-102.24 2675.17,-102.6 2677.71,-109.13"/>
</g>
<!-- NotReadyForSG?***** -->
<g id="node36" class="node">
<title>NotReadyForSG?*****</title>
<ellipse fill="gray" stroke="black" cx="2813.95" cy="-90" rx="60.09" ry="18"/>
<text text-anchor="middle" x="2813.95" y="-87.8" font-family="Times,serif" font-size="9.00">NotReadyForSG?*****</text>
</g>
<!-- Sequence&#45;&gt;NotReadyForSG?***** -->
<g id="edge35" class="edge">
<title>Sequence&#45;&gt;NotReadyForSG?*****</title>
<path fill="none" stroke="black" d="M1315.32,-149.58C1320.97,-147.31 1327.07,-145.25 1332.95,-144 1639.98,-78.79 2433.86,-149.79 2744.95,-108 2750.45,-107.26 2756.15,-106.26 2761.81,-105.1"/>
<polygon fill="black" stroke="black" points="2762.88,-108.45 2771.9,-102.89 2761.38,-101.61 2762.88,-108.45"/>
</g>
<!-- ReachGoal? -->
<g id="node12" class="node">
<title>ReachGoal?</title>
<ellipse fill="gray" stroke="black" cx="618.95" cy="-18" rx="34.13" ry="18"/>
<text text-anchor="middle" x="618.95" y="-15.8" font-family="Times,serif" font-size="9.00">ReachGoal?</text>
</g>
<!-- Fallback*&#45;&gt;ReachGoal? -->
<g id="edge11" class="edge">
<title>Fallback*&#45;&gt;ReachGoal?</title>
<path fill="none" stroke="black" d="M648.31,-71.7C643.76,-63.52 638.23,-53.6 633.2,-44.58"/>
<polygon fill="black" stroke="black" points="636.14,-42.65 628.21,-35.62 630.02,-46.06 636.14,-42.65"/>
</g>
<!-- GetLk! -->
<g id="node13" class="node">
<title>GetLk!</title>
<ellipse fill="gray" stroke="black" cx="697.95" cy="-18" rx="27" ry="18"/>
<text text-anchor="middle" x="697.95" y="-15.8" font-family="Times,serif" font-size="9.00">GetLk!</text>
</g>
<!-- Fallback*&#45;&gt;GetLk! -->
<g id="edge12" class="edge">
<title>Fallback*&#45;&gt;GetLk!</title>
<path fill="none" stroke="black" d="M667.84,-71.7C672.63,-63.32 678.47,-53.1 683.72,-43.9"/>
<polygon fill="black" stroke="black" points="686.8,-45.56 688.72,-35.14 680.72,-42.09 686.8,-45.56"/>
</g>
<!-- GetSubGoal!* -->
<g id="node16" class="node">
<title>GetSubGoal!*</title>
<ellipse fill="gray" stroke="black" cx="834.95" cy="-18" rx="39.02" ry="18"/>
<text text-anchor="middle" x="834.95" y="-15.8" font-family="Times,serif" font-size="9.00">GetSubGoal!*</text>
</g>
<!-- Fallback**&#45;&gt;GetSubGoal!* -->
<g id="edge15" class="edge">
<title>Fallback**&#45;&gt;GetSubGoal!*</title>
<path fill="none" stroke="black" d="M845.49,-71.7C843.95,-63.98 842.09,-54.71 840.37,-46.11"/>
<polygon fill="black" stroke="black" points="843.76,-45.22 838.37,-36.1 836.9,-46.6 843.76,-45.22"/>
</g>
<!-- MoveTo!******* -->
<g id="node17" class="node">
<title>MoveTo!*******</title>
<ellipse fill="gray" stroke="black" cx="939.95" cy="-18" rx="47.19" ry="18"/>
<text text-anchor="middle" x="939.95" y="-15.8" font-family="Times,serif" font-size="9.00">MoveTo!*******</text>
</g>
<!-- Fallback**&#45;&gt;MoveTo!******* -->
<g id="edge16" class="edge">
<title>Fallback**&#45;&gt;MoveTo!*******</title>
<path fill="none" stroke="black" d="M868.25,-74.15C880.9,-64.43 897.64,-51.54 911.77,-40.68"/>
<polygon fill="black" stroke="black" points="913.94,-43.42 919.73,-34.55 909.67,-37.87 913.94,-43.42"/>
</g>
<!-- ReachGoal?* -->
<g id="node33" class="node">
<title>ReachGoal?*</title>
<ellipse fill="gray" stroke="black" cx="2560.95" cy="-18" rx="36.9" ry="18"/>
<text text-anchor="middle" x="2560.95" y="-15.8" font-family="Times,serif" font-size="9.00">ReachGoal?*</text>
</g>
<!-- Fallback***&#45;&gt;ReachGoal?* -->
<g id="edge32" class="edge">
<title>Fallback***&#45;&gt;ReachGoal?*</title>
<path fill="none" stroke="black" d="M2607.62,-71.7C2599.89,-62.97 2590.39,-52.24 2581.99,-42.75"/>
<polygon fill="black" stroke="black" points="2584.5,-40.31 2575.25,-35.14 2579.26,-44.95 2584.5,-40.31"/>
</g>
<!-- MoveTo!*************** -->
<g id="node34" class="node">
<title>MoveTo!***************</title>
<ellipse fill="gray" stroke="black" cx="2683.95" cy="-18" rx="68.25" ry="18"/>
<text text-anchor="middle" x="2683.95" y="-15.8" font-family="Times,serif" font-size="9.00">MoveTo!***************</text>
</g>
<!-- Fallback***&#45;&gt;MoveTo!*************** -->
<g id="edge33" class="edge">
<title>Fallback***&#45;&gt;MoveTo!***************</title>
<path fill="none" stroke="black" d="M2638.03,-71.7C2645.53,-63.09 2654.71,-52.55 2662.89,-43.17"/>
<polygon fill="black" stroke="black" points="2665.53,-45.46 2669.47,-35.62 2660.26,-40.86 2665.53,-45.46"/>
</g>
</g>
</svg>
