<?xml version="1.0" encoding="UTF-8" standalone="no"?>
<!DOCTYPE svg PUBLIC "-//W3C//DTD SVG 1.1//EN"
 "http://www.w3.org/Graphics/SVG/1.1/DTD/svg11.dtd">
<!-- Generated by graphviz version 2.43.0 (0)
 -->
<!-- Title: pastafarianism Pages: 1 -->
<svg width="2781pt" height="260pt"
 viewBox="0.00 0.00 2780.75 260.00" xmlns="http://www.w3.org/2000/svg" xmlns:xlink="http://www.w3.org/1999/xlink">
<g id="graph0" class="graph" transform="scale(1 1) rotate(0) translate(4 256)">
<title>pastafarianism</title>
<polygon fill="white" stroke="transparent" points="-4,4 -4,-256 2776.75,-256 2776.75,4 -4,4"/>
<!-- Fallback -->
<g id="node1" class="node">
<title>Fallback</title>
<polygon fill="cyan" stroke="black" points="1320.24,-226.54 1320.24,-241.46 1303.11,-252 1278.89,-252 1261.76,-241.46 1261.76,-226.54 1278.89,-216 1303.11,-216 1320.24,-226.54"/>
<text text-anchor="middle" x="1291" y="-231.8" font-family="Times,serif" font-size="9.00">Fallback</text>
</g>
<!-- NotReadyForSG? -->
<g id="node2" class="node">
<title>NotReadyForSG?</title>
<ellipse fill="gray" stroke="black" cx="1139" cy="-162" rx="46.53" ry="18"/>
<text text-anchor="middle" x="1139" y="-159.8" font-family="Times,serif" font-size="9.00">NotReadyForSG?</text>
</g>
<!-- Fallback&#45;&gt;NotReadyForSG? -->
<g id="edge1" class="edge">
<title>Fallback&#45;&gt;NotReadyForSG?</title>
<path fill="none" stroke="black" d="M1268.24,-222.52C1244.21,-211.45 1205.9,-193.81 1177.22,-180.6"/>
<polygon fill="black" stroke="black" points="1178.44,-177.31 1167.9,-176.31 1175.52,-183.67 1178.44,-177.31"/>
</g>
<!-- Sequence -->
<g id="node3" class="node">
<title>Sequence</title>
<polygon fill="cyan" stroke="black" points="1266.49,-154.54 1266.49,-169.46 1248.05,-180 1221.95,-180 1203.51,-169.46 1203.51,-154.54 1221.95,-144 1248.05,-144 1266.49,-154.54"/>
<text text-anchor="middle" x="1235" y="-159.8" font-family="Times,serif" font-size="9.00">Sequence</text>
</g>
<!-- Fallback&#45;&gt;Sequence -->
<g id="edge2" class="edge">
<title>Fallback&#45;&gt;Sequence</title>
<path fill="none" stroke="black" d="M1277.73,-216.41C1270.92,-207.91 1262.5,-197.37 1254.93,-187.91"/>
<polygon fill="black" stroke="black" points="1257.55,-185.58 1248.56,-179.96 1252.08,-189.95 1257.55,-185.58"/>
</g>
<!-- NotReadyForSG?****** -->
<g id="node32" class="node">
<title>NotReadyForSG?******</title>
<ellipse fill="gray" stroke="black" cx="1347" cy="-162" rx="62.21" ry="18"/>
<text text-anchor="middle" x="1347" y="-159.8" font-family="Times,serif" font-size="9.00">NotReadyForSG?******</text>
</g>
<!-- Fallback&#45;&gt;NotReadyForSG?****** -->
<g id="edge31" class="edge">
<title>Fallback&#45;&gt;NotReadyForSG?******</title>
<path fill="none" stroke="black" d="M1304.27,-216.41C1311.08,-207.91 1319.5,-197.37 1327.07,-187.91"/>
<polygon fill="black" stroke="black" points="1329.92,-189.95 1333.44,-179.96 1324.45,-185.58 1329.92,-189.95"/>
</g>
<!-- ReachGoal? -->
<g id="node33" class="node">
<title>ReachGoal?</title>
<ellipse fill="gray" stroke="black" cx="1461" cy="-162" rx="34.13" ry="18"/>
<text text-anchor="middle" x="1461" y="-159.8" font-family="Times,serif" font-size="9.00">ReachGoal?</text>
</g>
<!-- Fallback&#45;&gt;ReachGoal? -->
<g id="edge32" class="edge">
<title>Fallback&#45;&gt;ReachGoal?</title>
<path fill="none" stroke="black" d="M1315,-223.12C1343.82,-211.25 1392.42,-191.24 1425.57,-177.59"/>
<polygon fill="black" stroke="black" points="1426.98,-180.79 1434.9,-173.75 1424.32,-174.32 1426.98,-180.79"/>
</g>
<!-- GetLk! -->
<g id="node4" class="node">
<title>GetLk!</title>
<ellipse fill="gray" stroke="black" cx="27" cy="-90" rx="27" ry="18"/>
<text text-anchor="middle" x="27" y="-87.8" font-family="Times,serif" font-size="9.00">GetLk!</text>
</g>
<!-- Sequence&#45;&gt;GetLk! -->
<g id="edge3" class="edge">
<title>Sequence&#45;&gt;GetLk!</title>
<path fill="none" stroke="black" d="M1211.79,-149.44C1206.4,-147.23 1200.6,-145.23 1195,-144 949.21,-89.85 307.68,-166.97 63,-108 60.82,-107.47 58.61,-106.81 56.41,-106.04"/>
<polygon fill="black" stroke="black" points="57.61,-102.75 47.03,-102.22 54.97,-109.23 57.61,-102.75"/>
</g>
<!-- GetSubGoal! -->
<g id="node5" class="node">
<title>GetSubGoal!</title>
<ellipse fill="gray" stroke="black" cx="109" cy="-90" rx="36.9" ry="18"/>
<text text-anchor="middle" x="109" y="-87.8" font-family="Times,serif" font-size="9.00">GetSubGoal!</text>
</g>
<!-- Sequence&#45;&gt;GetSubGoal! -->
<g id="edge4" class="edge">
<title>Sequence&#45;&gt;GetSubGoal!</title>
<path fill="none" stroke="black" d="M1211.79,-149.45C1206.4,-147.24 1200.6,-145.24 1195,-144 743.47,-43.87 608.8,-197.3 155,-108 151.83,-107.38 148.58,-106.56 145.35,-105.63"/>
<polygon fill="black" stroke="black" points="146.42,-102.29 135.83,-102.54 144.26,-108.95 146.42,-102.29"/>
</g>
<!-- MoveTo! -->
<g id="node6" class="node">
<title>MoveTo!</title>
<ellipse fill="gray" stroke="black" cx="193" cy="-90" rx="28.74" ry="18"/>
<text text-anchor="middle" x="193" y="-87.8" font-family="Times,serif" font-size="9.00">MoveTo!</text>
</g>
<!-- Sequence&#45;&gt;MoveTo! -->
<g id="edge5" class="edge">
<title>Sequence&#45;&gt;MoveTo!</title>
<path fill="none" stroke="black" d="M1211.78,-149.46C1206.4,-147.26 1200.6,-145.25 1195,-144 776.55,-50.6 648.55,-205.32 231,-108 228.68,-107.46 226.34,-106.78 224,-106"/>
<polygon fill="black" stroke="black" points="225.19,-102.71 214.6,-102.37 222.67,-109.24 225.19,-102.71"/>
</g>
<!-- MoveTo!* -->
<g id="node7" class="node">
<title>MoveTo!*</title>
<ellipse fill="gray" stroke="black" cx="272" cy="-90" rx="31.51" ry="18"/>
<text text-anchor="middle" x="272" y="-87.8" font-family="Times,serif" font-size="9.00">MoveTo!*</text>
</g>
<!-- Sequence&#45;&gt;MoveTo!* -->
<g id="edge6" class="edge">
<title>Sequence&#45;&gt;MoveTo!*</title>
<path fill="none" stroke="black" d="M1211.78,-149.47C1206.39,-147.27 1200.59,-145.26 1195,-144 812.24,-57.87 696.13,-192.44 313,-108 310.34,-107.41 307.63,-106.67 304.94,-105.81"/>
<polygon fill="black" stroke="black" points="305.98,-102.46 295.39,-102.35 303.6,-109.05 305.98,-102.46"/>
</g>
<!-- MoveTo!** -->
<g id="node8" class="node">
<title>MoveTo!**</title>
<ellipse fill="gray" stroke="black" cx="356" cy="-90" rx="34.13" ry="18"/>
<text text-anchor="middle" x="356" y="-87.8" font-family="Times,serif" font-size="9.00">MoveTo!**</text>
</g>
<!-- Sequence&#45;&gt;MoveTo!** -->
<g id="edge7" class="edge">
<title>Sequence&#45;&gt;MoveTo!**</title>
<path fill="none" stroke="black" d="M1211.78,-149.49C1206.39,-147.29 1200.59,-145.27 1195,-144 849.67,-65.5 745.3,-182.12 399,-108 396.2,-107.4 393.35,-106.64 390.52,-105.77"/>
<polygon fill="black" stroke="black" points="391.63,-102.45 381.03,-102.5 389.34,-109.07 391.63,-102.45"/>
</g>
<!-- MoveTo!*** -->
<g id="node9" class="node">
<title>MoveTo!***</title>
<ellipse fill="gray" stroke="black" cx="445" cy="-90" rx="36.9" ry="18"/>
<text text-anchor="middle" x="445" y="-87.8" font-family="Times,serif" font-size="9.00">MoveTo!***</text>
</g>
<!-- Sequence&#45;&gt;MoveTo!*** -->
<g id="edge8" class="edge">
<title>Sequence&#45;&gt;MoveTo!***</title>
<path fill="none" stroke="black" d="M1211.77,-149.52C1206.38,-147.31 1200.59,-145.29 1195,-144 889.7,-73.65 797.89,-171.02 491,-108 487.83,-107.35 484.59,-106.52 481.37,-105.57"/>
<polygon fill="black" stroke="black" points="482.44,-102.24 471.84,-102.46 480.26,-108.89 482.44,-102.24"/>
</g>
<!-- MoveTo!**** -->
<g id="node10" class="node">
<title>MoveTo!****</title>
<ellipse fill="gray" stroke="black" cx="539" cy="-90" rx="39.02" ry="18"/>
<text text-anchor="middle" x="539" y="-87.8" font-family="Times,serif" font-size="9.00">MoveTo!****</text>
</g>
<!-- Sequence&#45;&gt;MoveTo!**** -->
<g id="edge9" class="edge">
<title>Sequence&#45;&gt;MoveTo!****</title>
<path fill="none" stroke="black" d="M1211.76,-149.55C1206.38,-147.34 1200.58,-145.31 1195,-144 931.46,-82.15 852.31,-161.72 587,-108 583.75,-107.34 580.42,-106.51 577.11,-105.57"/>
<polygon fill="black" stroke="black" points="577.9,-102.15 567.31,-102.5 575.81,-108.83 577.9,-102.15"/>
</g>
<!-- MoveTo!***** -->
<g id="node11" class="node">
<title>MoveTo!*****</title>
<ellipse fill="gray" stroke="black" cx="638" cy="-90" rx="42.29" ry="18"/>
<text text-anchor="middle" x="638" y="-87.8" font-family="Times,serif" font-size="9.00">MoveTo!*****</text>
</g>
<!-- Sequence&#45;&gt;MoveTo!***** -->
<g id="edge10" class="edge">
<title>Sequence&#45;&gt;MoveTo!*****</title>
<path fill="none" stroke="black" d="M1211.75,-149.6C1206.37,-147.39 1200.58,-145.34 1195,-144 975.82,-91.19 910.12,-151.99 689,-108 685.4,-107.28 681.71,-106.39 678.03,-105.38"/>
<polygon fill="black" stroke="black" points="678.99,-102.02 668.41,-102.52 676.99,-108.73 678.99,-102.02"/>
</g>
<!-- NotReadyForSG?* -->
<g id="node12" class="node">
<title>NotReadyForSG?*</title>
<ellipse fill="gray" stroke="black" cx="748" cy="-90" rx="49.8" ry="18"/>
<text text-anchor="middle" x="748" y="-87.8" font-family="Times,serif" font-size="9.00">NotReadyForSG?*</text>
</g>
<!-- Sequence&#45;&gt;NotReadyForSG?* -->
<g id="edge11" class="edge">
<title>Sequence&#45;&gt;NotReadyForSG?*</title>
<path fill="none" stroke="black" d="M1211.73,-149.69C1206.34,-147.47 1200.56,-145.4 1195,-144 1027.08,-101.62 977.18,-140.12 807,-108 802.64,-107.18 798.14,-106.17 793.66,-105.07"/>
<polygon fill="black" stroke="black" points="794.5,-101.67 783.94,-102.52 792.72,-108.44 794.5,-101.67"/>
</g>
<!-- MoveTo!****** -->
<g id="node13" class="node">
<title>MoveTo!******</title>
<ellipse fill="gray" stroke="black" cx="860" cy="-90" rx="44.41" ry="18"/>
<text text-anchor="middle" x="860" y="-87.8" font-family="Times,serif" font-size="9.00">MoveTo!******</text>
</g>
<!-- Sequence&#45;&gt;MoveTo!****** -->
<g id="edge12" class="edge">
<title>Sequence&#45;&gt;MoveTo!******</title>
<path fill="none" stroke="black" d="M1211.69,-149.83C1206.31,-147.61 1200.54,-145.5 1195,-144 1073.04,-110.98 1036.34,-135.41 913,-108 909.55,-107.23 906,-106.34 902.45,-105.37"/>
<polygon fill="black" stroke="black" points="903.12,-101.91 892.54,-102.47 901.16,-108.63 903.12,-101.91"/>
</g>
<!-- Fallback* -->
<g id="node14" class="node">
<title>Fallback*</title>
<polygon fill="cyan" stroke="black" points="985.74,-82.54 985.74,-97.46 967.15,-108 940.85,-108 922.26,-97.46 922.26,-82.54 940.85,-72 967.15,-72 985.74,-82.54"/>
<text text-anchor="middle" x="954" y="-87.8" font-family="Times,serif" font-size="9.00">Fallback*</text>
</g>
<!-- Sequence&#45;&gt;Fallback* -->
<g id="edge13" class="edge">
<title>Sequence&#45;&gt;Fallback*</title>
<path fill="none" stroke="black" d="M1211.21,-149.86C1205.95,-147.69 1200.35,-145.6 1195,-144 1108.45,-118.18 1081.66,-133.44 995,-108 992.54,-107.28 990.03,-106.46 987.52,-105.57"/>
<polygon fill="black" stroke="black" points="988.56,-102.23 977.97,-101.95 986.08,-108.77 988.56,-102.23"/>
</g>
<!-- MoveTo!******** -->
<g id="node17" class="node">
<title>MoveTo!********</title>
<ellipse fill="gray" stroke="black" cx="1054" cy="-90" rx="49.8" ry="18"/>
<text text-anchor="middle" x="1054" y="-87.8" font-family="Times,serif" font-size="9.00">MoveTo!********</text>
</g>
<!-- Sequence&#45;&gt;MoveTo!******** -->
<g id="edge16" class="edge">
<title>Sequence&#45;&gt;MoveTo!********</title>
<path fill="none" stroke="black" d="M1210.53,-150.41C1205.41,-148.25 1200.04,-146.02 1195,-144 1162.42,-130.96 1125.26,-117.03 1097.27,-106.72"/>
<polygon fill="black" stroke="black" points="1098.37,-103.4 1087.77,-103.24 1095.95,-109.97 1098.37,-103.4"/>
</g>
<!-- MoveTo!********* -->
<g id="node18" class="node">
<title>MoveTo!*********</title>
<ellipse fill="gray" stroke="black" cx="1174" cy="-90" rx="52.58" ry="18"/>
<text text-anchor="middle" x="1174" y="-87.8" font-family="Times,serif" font-size="9.00">MoveTo!*********</text>
</g>
<!-- Sequence&#45;&gt;MoveTo!********* -->
<g id="edge17" class="edge">
<title>Sequence&#45;&gt;MoveTo!*********</title>
<path fill="none" stroke="black" d="M1220.54,-144.41C1212.95,-135.69 1203.49,-124.85 1195.1,-115.21"/>
<polygon fill="black" stroke="black" points="1197.56,-112.71 1188.35,-107.47 1192.28,-117.31 1197.56,-112.71"/>
</g>
<!-- NotReadyForSG?** -->
<g id="node19" class="node">
<title>NotReadyForSG?**</title>
<ellipse fill="gray" stroke="black" cx="1297" cy="-90" rx="51.92" ry="18"/>
<text text-anchor="middle" x="1297" y="-87.8" font-family="Times,serif" font-size="9.00">NotReadyForSG?**</text>
</g>
<!-- Sequence&#45;&gt;NotReadyForSG?** -->
<g id="edge18" class="edge">
<title>Sequence&#45;&gt;NotReadyForSG?**</title>
<path fill="none" stroke="black" d="M1249.69,-144.41C1257.41,-135.69 1267.02,-124.85 1275.56,-115.21"/>
<polygon fill="black" stroke="black" points="1278.4,-117.28 1282.41,-107.47 1273.16,-112.64 1278.4,-117.28"/>
</g>
<!-- CompLkGraph! -->
<g id="node20" class="node">
<title>CompLkGraph!</title>
<ellipse fill="gray" stroke="black" cx="1410" cy="-90" rx="42.95" ry="18"/>
<text text-anchor="middle" x="1410" y="-87.8" font-family="Times,serif" font-size="9.00">CompLkGraph!</text>
</g>
<!-- Sequence&#45;&gt;CompLkGraph! -->
<g id="edge19" class="edge">
<title>Sequence&#45;&gt;CompLkGraph!</title>
<path fill="none" stroke="black" d="M1260.13,-150.51C1265.36,-148.34 1270.86,-146.08 1276,-144 1307.6,-131.2 1343.52,-117.01 1370.22,-106.54"/>
<polygon fill="black" stroke="black" points="1371.58,-109.76 1379.61,-102.86 1369.02,-103.25 1371.58,-109.76"/>
</g>
<!-- NotReadyForSG?*** -->
<g id="node21" class="node">
<title>NotReadyForSG?***</title>
<ellipse fill="gray" stroke="black" cx="1526" cy="-90" rx="54.7" ry="18"/>
<text text-anchor="middle" x="1526" y="-87.8" font-family="Times,serif" font-size="9.00">NotReadyForSG?***</text>
</g>
<!-- Sequence&#45;&gt;NotReadyForSG?*** -->
<g id="edge20" class="edge">
<title>Sequence&#45;&gt;NotReadyForSG?***</title>
<path fill="none" stroke="black" d="M1258.99,-150.11C1264.5,-147.87 1270.39,-145.69 1276,-144 1356.63,-119.75 1379.93,-126.82 1462,-108 1466.41,-106.99 1470.97,-105.89 1475.53,-104.75"/>
<polygon fill="black" stroke="black" points="1476.65,-108.08 1485.48,-102.21 1474.92,-101.29 1476.65,-108.08"/>
</g>
<!-- MoveTo!********** -->
<g id="node22" class="node">
<title>MoveTo!**********</title>
<ellipse fill="gray" stroke="black" cx="1654" cy="-90" rx="54.7" ry="18"/>
<text text-anchor="middle" x="1654" y="-87.8" font-family="Times,serif" font-size="9.00">MoveTo!**********</text>
</g>
<!-- Sequence&#45;&gt;MoveTo!********** -->
<g id="edge21" class="edge">
<title>Sequence&#45;&gt;MoveTo!**********</title>
<path fill="none" stroke="black" d="M1258.9,-149.78C1264.41,-147.56 1270.33,-145.47 1276,-144 1411.98,-108.76 1451.98,-134.1 1590,-108 1594.69,-107.11 1599.55,-106.06 1604.4,-104.93"/>
<polygon fill="black" stroke="black" points="1605.38,-108.29 1614.26,-102.51 1603.72,-101.5 1605.38,-108.29"/>
</g>
<!-- NotReadyForSG?**** -->
<g id="node23" class="node">
<title>NotReadyForSG?****</title>
<ellipse fill="gray" stroke="black" cx="1784" cy="-90" rx="57.32" ry="18"/>
<text text-anchor="middle" x="1784" y="-87.8" font-family="Times,serif" font-size="9.00">NotReadyForSG?****</text>
</g>
<!-- Sequence&#45;&gt;NotReadyForSG?**** -->
<g id="edge22" class="edge">
<title>Sequence&#45;&gt;NotReadyForSG?****</title>
<path fill="none" stroke="black" d="M1258.43,-149.82C1264.07,-147.54 1270.16,-145.41 1276,-144 1467.58,-97.69 1523.64,-140.7 1718,-108 1722.98,-107.16 1728.13,-106.13 1733.26,-105"/>
<polygon fill="black" stroke="black" points="1734.1,-108.39 1743.04,-102.71 1732.51,-101.58 1734.1,-108.39"/>
</g>
<!-- GetLk!* -->
<g id="node24" class="node">
<title>GetLk!*</title>
<ellipse fill="gray" stroke="black" cx="1886" cy="-90" rx="27.27" ry="18"/>
<text text-anchor="middle" x="1886" y="-87.8" font-family="Times,serif" font-size="9.00">GetLk!*</text>
</g>
<!-- Sequence&#45;&gt;GetLk!* -->
<g id="edge23" class="edge">
<title>Sequence&#45;&gt;GetLk!*</title>
<path fill="none" stroke="black" d="M1258.41,-149.74C1264.05,-147.47 1270.14,-145.36 1276,-144 1525.01,-86.26 1602.46,-171.71 1850,-108 1851.96,-107.5 1853.94,-106.89 1855.91,-106.2"/>
<polygon fill="black" stroke="black" points="1857.61,-109.28 1865.56,-102.28 1854.98,-102.8 1857.61,-109.28"/>
</g>
<!-- MoveTo!*********** -->
<g id="node25" class="node">
<title>MoveTo!***********</title>
<ellipse fill="gray" stroke="black" cx="1989" cy="-90" rx="57.97" ry="18"/>
<text text-anchor="middle" x="1989" y="-87.8" font-family="Times,serif" font-size="9.00">MoveTo!***********</text>
</g>
<!-- Sequence&#45;&gt;MoveTo!*********** -->
<g id="edge24" class="edge">
<title>Sequence&#45;&gt;MoveTo!***********</title>
<path fill="none" stroke="black" d="M1258.4,-149.71C1264.05,-147.44 1270.14,-145.34 1276,-144 1556.35,-80.02 1637.76,-151.56 1922,-108 1927.13,-107.21 1932.44,-106.21 1937.73,-105.08"/>
<polygon fill="black" stroke="black" points="1938.83,-108.42 1947.8,-102.78 1937.27,-101.59 1938.83,-108.42"/>
</g>
<!-- MoveTo!************ -->
<g id="node26" class="node">
<title>MoveTo!************</title>
<ellipse fill="gray" stroke="black" cx="2125" cy="-90" rx="60.09" ry="18"/>
<text text-anchor="middle" x="2125" y="-87.8" font-family="Times,serif" font-size="9.00">MoveTo!************</text>
</g>
<!-- Sequence&#45;&gt;MoveTo!************ -->
<g id="edge25" class="edge">
<title>Sequence&#45;&gt;MoveTo!************</title>
<path fill="none" stroke="black" d="M1258.39,-149.67C1264.04,-147.4 1270.13,-145.31 1276,-144 1614.7,-68.41 1712.55,-157.75 2056,-108 2061.42,-107.22 2067.03,-106.19 2072.61,-105.04"/>
<polygon fill="black" stroke="black" points="2073.55,-108.41 2082.56,-102.84 2072.04,-101.58 2073.55,-108.41"/>
</g>
<!-- NotReadyForSG?***** -->
<g id="node27" class="node">
<title>NotReadyForSG?*****</title>
<ellipse fill="gray" stroke="black" cx="2263" cy="-90" rx="60.09" ry="18"/>
<text text-anchor="middle" x="2263" y="-87.8" font-family="Times,serif" font-size="9.00">NotReadyForSG?*****</text>
</g>
<!-- Sequence&#45;&gt;NotReadyForSG?***** -->
<g id="edge26" class="edge">
<title>Sequence&#45;&gt;NotReadyForSG?*****</title>
<path fill="none" stroke="black" d="M1258.39,-149.64C1264.03,-147.37 1270.13,-145.29 1276,-144 1674.81,-56.44 1789.7,-165.13 2194,-108 2199.42,-107.23 2205.04,-106.22 2210.61,-105.07"/>
<polygon fill="black" stroke="black" points="2211.55,-108.45 2220.57,-102.88 2210.05,-101.62 2211.55,-108.45"/>
</g>
<!-- MoveTo!************* -->
<g id="node28" class="node">
<title>MoveTo!*************</title>
<ellipse fill="gray" stroke="black" cx="2404" cy="-90" rx="62.86" ry="18"/>
<text text-anchor="middle" x="2404" y="-87.8" font-family="Times,serif" font-size="9.00">MoveTo!*************</text>
</g>
<!-- Sequence&#45;&gt;MoveTo!************* -->
<g id="edge27" class="edge">
<title>Sequence&#45;&gt;MoveTo!*************</title>
<path fill="none" stroke="black" d="M1258.38,-149.62C1264.03,-147.35 1270.13,-145.27 1276,-144 1505.47,-94.23 2099.27,-139.13 2332,-108 2337.79,-107.23 2343.8,-106.19 2349.76,-105.01"/>
<polygon fill="black" stroke="black" points="2350.64,-108.4 2359.7,-102.91 2349.2,-101.55 2350.64,-108.4"/>
</g>
<!-- LkClose? -->
<g id="node29" class="node">
<title>LkClose?</title>
<ellipse fill="gray" stroke="black" cx="2514" cy="-90" rx="28.74" ry="18"/>
<text text-anchor="middle" x="2514" y="-87.8" font-family="Times,serif" font-size="9.00">LkClose?</text>
</g>
<!-- Sequence&#45;&gt;LkClose? -->
<g id="edge28" class="edge">
<title>Sequence&#45;&gt;LkClose?</title>
<path fill="none" stroke="black" d="M1258.38,-149.6C1264.02,-147.33 1270.12,-145.26 1276,-144 1536.84,-87.99 2215.96,-167.61 2476,-108 2478.47,-107.43 2480.97,-106.71 2483.45,-105.87"/>
<polygon fill="black" stroke="black" points="2484.76,-109.12 2492.8,-102.23 2482.22,-102.59 2484.76,-109.12"/>
</g>
<!-- MoveTo!************** -->
<g id="node30" class="node">
<title>MoveTo!**************</title>
<ellipse fill="gray" stroke="black" cx="2626" cy="-90" rx="65.48" ry="18"/>
<text text-anchor="middle" x="2626" y="-87.8" font-family="Times,serif" font-size="9.00">MoveTo!**************</text>
</g>
<!-- Sequence&#45;&gt;MoveTo!************** -->
<g id="edge29" class="edge">
<title>Sequence&#45;&gt;MoveTo!**************</title>
<path fill="none" stroke="black" d="M1258.38,-149.6C1264.02,-147.33 1270.12,-145.26 1276,-144 1553.4,-84.69 2270.62,-143.93 2552,-108 2557.95,-107.24 2564.12,-106.21 2570.24,-105.04"/>
<polygon fill="black" stroke="black" points="2571.37,-108.38 2580.46,-102.95 2569.96,-101.52 2571.37,-108.38"/>
</g>
<!-- LkClose?* -->
<g id="node31" class="node">
<title>LkClose?*</title>
<ellipse fill="gray" stroke="black" cx="2741" cy="-90" rx="31.51" ry="18"/>
<text text-anchor="middle" x="2741" y="-87.8" font-family="Times,serif" font-size="9.00">LkClose?*</text>
</g>
<!-- Sequence&#45;&gt;LkClose?* -->
<g id="edge30" class="edge">
<title>Sequence&#45;&gt;LkClose?*</title>
<path fill="none" stroke="black" d="M1258.37,-149.58C1264.02,-147.31 1270.12,-145.25 1276,-144 1585.65,-78.27 2390.35,-173.73 2700,-108 2702.66,-107.43 2705.37,-106.7 2708.07,-105.86"/>
<polygon fill="black" stroke="black" points="2709.4,-109.1 2717.63,-102.42 2707.03,-102.51 2709.4,-109.1"/>
</g>
<!-- GetSubGoal!* -->
<g id="node15" class="node">
<title>GetSubGoal!*</title>
<ellipse fill="gray" stroke="black" cx="901" cy="-18" rx="39.02" ry="18"/>
<text text-anchor="middle" x="901" y="-15.8" font-family="Times,serif" font-size="9.00">GetSubGoal!*</text>
</g>
<!-- Fallback*&#45;&gt;GetSubGoal!* -->
<g id="edge14" class="edge">
<title>Fallback*&#45;&gt;GetSubGoal!*</title>
<path fill="none" stroke="black" d="M940.9,-71.7C934.42,-63.14 926.49,-52.67 919.42,-43.33"/>
<polygon fill="black" stroke="black" points="922.05,-41 913.22,-35.14 916.47,-45.23 922.05,-41"/>
</g>
<!-- MoveTo!******* -->
<g id="node16" class="node">
<title>MoveTo!*******</title>
<ellipse fill="gray" stroke="black" cx="1006" cy="-18" rx="47.19" ry="18"/>
<text text-anchor="middle" x="1006" y="-15.8" font-family="Times,serif" font-size="9.00">MoveTo!*******</text>
</g>
<!-- Fallback*&#45;&gt;MoveTo!******* -->
<g id="edge15" class="edge">
<title>Fallback*&#45;&gt;MoveTo!*******</title>
<path fill="none" stroke="black" d="M966.85,-71.7C973.12,-63.27 980.76,-52.97 987.63,-43.73"/>
<polygon fill="black" stroke="black" points="990.5,-45.74 993.65,-35.62 984.88,-41.56 990.5,-45.74"/>
</g>
</g>
</svg>
