<?xml version="1.0" encoding="UTF-8" standalone="no"?>
<!DOCTYPE svg PUBLIC "-//W3C//DTD SVG 1.1//EN"
 "http://www.w3.org/Graphics/SVG/1.1/DTD/svg11.dtd">
<!-- Generated by graphviz version 2.43.0 (0)
 -->
<!-- Title: pastafarianism Pages: 1 -->
<svg width="496pt" height="260pt"
 viewBox="0.00 0.00 495.60 260.00" xmlns="http://www.w3.org/2000/svg" xmlns:xlink="http://www.w3.org/1999/xlink">
<g id="graph0" class="graph" transform="scale(1 1) rotate(0) translate(4 256)">
<title>pastafarianism</title>
<polygon fill="white" stroke="transparent" points="-4,4 -4,-256 491.6,-256 491.6,4 -4,4"/>
<!-- Fallback -->
<g id="node1" class="node">
<title>Fallback</title>
<polygon fill="cyan" stroke="black" points="297.84,-226.54 297.84,-241.46 280.71,-252 256.49,-252 239.36,-241.46 239.36,-226.54 256.49,-216 280.71,-216 297.84,-226.54"/>
<text text-anchor="middle" x="268.6" y="-231.8" font-family="Times,serif" font-size="9.00">Fallback</text>
</g>
<!-- ReachGoal? -->
<g id="node2" class="node">
<title>ReachGoal?</title>
<ellipse fill="gray" stroke="black" cx="227.6" cy="-162" rx="34.13" ry="18"/>
<text text-anchor="middle" x="227.6" y="-159.8" font-family="Times,serif" font-size="9.00">ReachGoal?</text>
</g>
<!-- Fallback&#45;&gt;ReachGoal? -->
<g id="edge1" class="edge">
<title>Fallback&#45;&gt;ReachGoal?</title>
<path fill="none" stroke="black" d="M258.46,-215.7C253.63,-207.44 247.74,-197.39 242.42,-188.3"/>
<polygon fill="black" stroke="black" points="245.41,-186.48 237.34,-179.62 239.37,-190.02 245.41,-186.48"/>
</g>
<!-- Sequence -->
<g id="node3" class="node">
<title>Sequence</title>
<polygon fill="cyan" stroke="black" points="342.09,-154.54 342.09,-169.46 323.64,-180 297.55,-180 279.11,-169.46 279.11,-154.54 297.55,-144 323.64,-144 342.09,-154.54"/>
<text text-anchor="middle" x="310.6" y="-159.8" font-family="Times,serif" font-size="9.00">Sequence</text>
</g>
<!-- Fallback&#45;&gt;Sequence -->
<g id="edge2" class="edge">
<title>Fallback&#45;&gt;Sequence</title>
<path fill="none" stroke="black" d="M278.98,-215.7C283.86,-207.56 289.79,-197.69 295.18,-188.7"/>
<polygon fill="black" stroke="black" points="298.19,-190.48 300.34,-180.1 292.19,-186.88 298.19,-190.48"/>
</g>
<!-- Fallback* -->
<g id="node4" class="node">
<title>Fallback*</title>
<polygon fill="cyan" stroke="black" points="153.34,-82.54 153.34,-97.46 134.75,-108 108.45,-108 89.86,-97.46 89.86,-82.54 108.45,-72 134.75,-72 153.34,-82.54"/>
<text text-anchor="middle" x="121.6" y="-87.8" font-family="Times,serif" font-size="9.00">Fallback*</text>
</g>
<!-- Sequence&#45;&gt;Fallback* -->
<g id="edge3" class="edge">
<title>Sequence&#45;&gt;Fallback*</title>
<path fill="none" stroke="black" d="M286.16,-150.34C281.04,-148.18 275.66,-145.97 270.6,-144 232.68,-129.21 188.71,-113.78 158.42,-103.41"/>
<polygon fill="black" stroke="black" points="159.29,-100.01 148.7,-100.09 157.03,-106.63 159.29,-100.01"/>
</g>
<!-- Fallback** -->
<g id="node7" class="node">
<title>Fallback**</title>
<polygon fill="cyan" stroke="black" points="263.59,-82.54 263.59,-97.46 243.09,-108 214.11,-108 193.61,-97.46 193.61,-82.54 214.11,-72 243.09,-72 263.59,-82.54"/>
<text text-anchor="middle" x="228.6" y="-87.8" font-family="Times,serif" font-size="9.00">Fallback**</text>
</g>
<!-- Sequence&#45;&gt;Fallback** -->
<g id="edge6" class="edge">
<title>Sequence&#45;&gt;Fallback**</title>
<path fill="none" stroke="black" d="M293.21,-146.15C281.95,-136.54 267.08,-123.85 254.45,-113.07"/>
<polygon fill="black" stroke="black" points="256.41,-110.14 246.53,-106.31 251.86,-115.46 256.41,-110.14"/>
</g>
<!-- MoveTo! -->
<g id="node10" class="node">
<title>MoveTo!</title>
<ellipse fill="gray" stroke="black" cx="310.6" cy="-90" rx="28.74" ry="18"/>
<text text-anchor="middle" x="310.6" y="-87.8" font-family="Times,serif" font-size="9.00">MoveTo!</text>
</g>
<!-- Sequence&#45;&gt;MoveTo! -->
<g id="edge9" class="edge">
<title>Sequence&#45;&gt;MoveTo!</title>
<path fill="none" stroke="black" d="M310.6,-143.7C310.6,-135.98 310.6,-126.71 310.6,-118.11"/>
<polygon fill="black" stroke="black" points="314.1,-118.1 310.6,-108.1 307.1,-118.1 314.1,-118.1"/>
</g>
<!-- LkClose? -->
<g id="node11" class="node">
<title>LkClose?</title>
<ellipse fill="gray" stroke="black" cx="386.6" cy="-90" rx="28.74" ry="18"/>
<text text-anchor="middle" x="386.6" y="-87.8" font-family="Times,serif" font-size="9.00">LkClose?</text>
</g>
<!-- Sequence&#45;&gt;LkClose? -->
<g id="edge10" class="edge">
<title>Sequence&#45;&gt;LkClose?</title>
<path fill="none" stroke="black" d="M327.09,-145.81C337.66,-136.08 351.54,-123.29 363.24,-112.52"/>
<polygon fill="black" stroke="black" points="365.94,-114.79 370.92,-105.44 361.19,-109.64 365.94,-114.79"/>
</g>
<!-- GetLk! -->
<g id="node12" class="node">
<title>GetLk!</title>
<ellipse fill="gray" stroke="black" cx="460.6" cy="-90" rx="27" ry="18"/>
<text text-anchor="middle" x="460.6" y="-87.8" font-family="Times,serif" font-size="9.00">GetLk!</text>
</g>
<!-- Sequence&#45;&gt;GetLk! -->
<g id="edge11" class="edge">
<title>Sequence&#45;&gt;GetLk!</title>
<path fill="none" stroke="black" d="M334.64,-149.87C357.72,-139.18 393.57,-122.54 424.6,-108 426.38,-107.16 428.22,-106.3 430.06,-105.43"/>
<polygon fill="black" stroke="black" points="431.73,-108.52 439.29,-101.09 428.75,-102.18 431.73,-108.52"/>
</g>
<!-- LkGraph? -->
<g id="node5" class="node">
<title>LkGraph?</title>
<ellipse fill="gray" stroke="black" cx="30.6" cy="-18" rx="30.7" ry="18"/>
<text text-anchor="middle" x="30.6" y="-15.8" font-family="Times,serif" font-size="9.00">LkGraph?</text>
</g>
<!-- Fallback*&#45;&gt;LkGraph? -->
<g id="edge4" class="edge">
<title>Fallback*&#45;&gt;LkGraph?</title>
<path fill="none" stroke="black" d="M103.18,-74.83C89.81,-64.55 71.53,-50.49 56.67,-39.05"/>
<polygon fill="black" stroke="black" points="58.43,-35.99 48.37,-32.67 54.16,-41.54 58.43,-35.99"/>
</g>
<!-- CompLkGraph! -->
<g id="node6" class="node">
<title>CompLkGraph!</title>
<ellipse fill="gray" stroke="black" cx="121.6" cy="-18" rx="42.95" ry="18"/>
<text text-anchor="middle" x="121.6" y="-15.8" font-family="Times,serif" font-size="9.00">CompLkGraph!</text>
</g>
<!-- Fallback*&#45;&gt;CompLkGraph! -->
<g id="edge5" class="edge">
<title>Fallback*&#45;&gt;CompLkGraph!</title>
<path fill="none" stroke="black" d="M121.6,-71.7C121.6,-63.98 121.6,-54.71 121.6,-46.11"/>
<polygon fill="black" stroke="black" points="125.1,-46.1 121.6,-36.1 118.1,-46.1 125.1,-46.1"/>
</g>
<!-- NotReadyForSG? -->
<g id="node8" class="node">
<title>NotReadyForSG?</title>
<ellipse fill="gray" stroke="black" cx="228.6" cy="-18" rx="46.53" ry="18"/>
<text text-anchor="middle" x="228.6" y="-15.8" font-family="Times,serif" font-size="9.00">NotReadyForSG?</text>
</g>
<!-- Fallback**&#45;&gt;NotReadyForSG? -->
<g id="edge7" class="edge">
<title>Fallback**&#45;&gt;NotReadyForSG?</title>
<path fill="none" stroke="black" d="M228.6,-71.7C228.6,-63.98 228.6,-54.71 228.6,-46.11"/>
<polygon fill="black" stroke="black" points="232.1,-46.1 228.6,-36.1 225.1,-46.1 232.1,-46.1"/>
</g>
<!-- GetSubGoal! -->
<g id="node9" class="node">
<title>GetSubGoal!</title>
<ellipse fill="gray" stroke="black" cx="330.6" cy="-18" rx="36.9" ry="18"/>
<text text-anchor="middle" x="330.6" y="-15.8" font-family="Times,serif" font-size="9.00">GetSubGoal!</text>
</g>
<!-- Fallback**&#45;&gt;GetSubGoal! -->
<g id="edge8" class="edge">
<title>Fallback**&#45;&gt;GetSubGoal!</title>
<path fill="none" stroke="black" d="M249.24,-74.83C264.31,-64.49 284.94,-50.33 301.66,-38.86"/>
<polygon fill="black" stroke="black" points="303.72,-41.69 309.99,-33.14 299.76,-35.92 303.72,-41.69"/>
</g>
</g>
</svg>
