<?xml version="1.0" encoding="UTF-8" standalone="no"?>
<!DOCTYPE svg PUBLIC "-//W3C//DTD SVG 1.1//EN"
 "http://www.w3.org/Graphics/SVG/1.1/DTD/svg11.dtd">
<!-- Generated by graphviz version 2.43.0 (0)
 -->
<!-- Title: pastafarianism Pages: 1 -->
<svg width="363pt" height="260pt"
 viewBox="0.00 0.00 362.63 260.00" xmlns="http://www.w3.org/2000/svg" xmlns:xlink="http://www.w3.org/1999/xlink">
<g id="graph0" class="graph" transform="scale(1 1) rotate(0) translate(4 256)">
<title>pastafarianism</title>
<polygon fill="white" stroke="transparent" points="-4,4 -4,-256 358.63,-256 358.63,4 -4,4"/>
<!-- Fallback -->
<g id="node1" class="node">
<title>Fallback</title>
<polygon fill="cyan" stroke="black" points="187.01,-226.54 187.01,-241.46 169.88,-252 145.65,-252 128.52,-241.46 128.52,-226.54 145.65,-216 169.88,-216 187.01,-226.54"/>
<text text-anchor="middle" x="157.77" y="-231.8" font-family="Times,serif" font-size="9.00">Fallback</text>
</g>
<!-- ReachGoal? -->
<g id="node2" class="node">
<title>ReachGoal?</title>
<ellipse fill="gray" stroke="black" cx="116.77" cy="-162" rx="34.13" ry="18"/>
<text text-anchor="middle" x="116.77" y="-159.8" font-family="Times,serif" font-size="9.00">ReachGoal?</text>
</g>
<!-- Fallback&#45;&gt;ReachGoal? -->
<g id="edge1" class="edge">
<title>Fallback&#45;&gt;ReachGoal?</title>
<path fill="none" stroke="black" d="M147.63,-215.7C142.79,-207.44 136.91,-197.39 131.58,-188.3"/>
<polygon fill="black" stroke="black" points="134.58,-186.48 126.5,-179.62 128.54,-190.02 134.58,-186.48"/>
</g>
<!-- Sequence -->
<g id="node3" class="node">
<title>Sequence</title>
<polygon fill="cyan" stroke="black" points="231.26,-154.54 231.26,-169.46 212.81,-180 186.72,-180 168.27,-169.46 168.27,-154.54 186.72,-144 212.81,-144 231.26,-154.54"/>
<text text-anchor="middle" x="199.77" y="-159.8" font-family="Times,serif" font-size="9.00">Sequence</text>
</g>
<!-- Fallback&#45;&gt;Sequence -->
<g id="edge2" class="edge">
<title>Fallback&#45;&gt;Sequence</title>
<path fill="none" stroke="black" d="M168.15,-215.7C173.03,-207.56 178.95,-197.69 184.34,-188.7"/>
<polygon fill="black" stroke="black" points="187.36,-190.48 189.5,-180.1 181.36,-186.88 187.36,-190.48"/>
</g>
<!-- NotReadyForSG? -->
<g id="node4" class="node">
<title>NotReadyForSG?</title>
<ellipse fill="gray" stroke="black" cx="46.77" cy="-90" rx="46.53" ry="18"/>
<text text-anchor="middle" x="46.77" y="-87.8" font-family="Times,serif" font-size="9.00">NotReadyForSG?</text>
</g>
<!-- Sequence&#45;&gt;NotReadyForSG? -->
<g id="edge3" class="edge">
<title>Sequence&#45;&gt;NotReadyForSG?</title>
<path fill="none" stroke="black" d="M175.86,-150.06C151.55,-138.94 113.49,-121.53 84.99,-108.49"/>
<polygon fill="black" stroke="black" points="86.27,-105.23 75.72,-104.25 83.36,-111.59 86.27,-105.23"/>
</g>
<!-- CompLkGraph! -->
<g id="node5" class="node">
<title>CompLkGraph!</title>
<ellipse fill="gray" stroke="black" cx="153.77" cy="-90" rx="42.95" ry="18"/>
<text text-anchor="middle" x="153.77" y="-87.8" font-family="Times,serif" font-size="9.00">CompLkGraph!</text>
</g>
<!-- Sequence&#45;&gt;CompLkGraph! -->
<g id="edge4" class="edge">
<title>Sequence&#45;&gt;CompLkGraph!</title>
<path fill="none" stroke="black" d="M188.39,-143.7C182.91,-135.35 176.23,-125.18 170.2,-116.02"/>
<polygon fill="black" stroke="black" points="173.11,-114.06 164.69,-107.62 167.26,-117.9 173.11,-114.06"/>
</g>
<!-- Fallback* -->
<g id="node6" class="node">
<title>Fallback*</title>
<polygon fill="cyan" stroke="black" points="278.51,-82.54 278.51,-97.46 259.91,-108 233.62,-108 215.02,-97.46 215.02,-82.54 233.62,-72 259.91,-72 278.51,-82.54"/>
<text text-anchor="middle" x="246.77" y="-87.8" font-family="Times,serif" font-size="9.00">Fallback*</text>
</g>
<!-- Sequence&#45;&gt;Fallback* -->
<g id="edge5" class="edge">
<title>Sequence&#45;&gt;Fallback*</title>
<path fill="none" stroke="black" d="M211.38,-143.7C216.9,-135.47 223.61,-125.48 229.7,-116.42"/>
<polygon fill="black" stroke="black" points="232.61,-118.36 235.28,-108.1 226.8,-114.46 232.61,-118.36"/>
</g>
<!-- MoveTo! -->
<g id="node9" class="node">
<title>MoveTo!</title>
<ellipse fill="gray" stroke="black" cx="325.77" cy="-90" rx="28.74" ry="18"/>
<text text-anchor="middle" x="325.77" y="-87.8" font-family="Times,serif" font-size="9.00">MoveTo!</text>
</g>
<!-- Sequence&#45;&gt;MoveTo! -->
<g id="edge8" class="edge">
<title>Sequence&#45;&gt;MoveTo!</title>
<path fill="none" stroke="black" d="M221.71,-148.81C242.29,-137.38 273.21,-120.2 296,-107.54"/>
<polygon fill="black" stroke="black" points="297.86,-110.5 304.91,-102.59 294.46,-104.39 297.86,-110.5"/>
</g>
<!-- NotReadyForSG?* -->
<g id="node7" class="node">
<title>NotReadyForSG?*</title>
<ellipse fill="gray" stroke="black" cx="193.77" cy="-18" rx="49.8" ry="18"/>
<text text-anchor="middle" x="193.77" y="-15.8" font-family="Times,serif" font-size="9.00">NotReadyForSG?*</text>
</g>
<!-- Fallback*&#45;&gt;NotReadyForSG?* -->
<g id="edge6" class="edge">
<title>Fallback*&#45;&gt;NotReadyForSG?*</title>
<path fill="none" stroke="black" d="M233.66,-71.7C227.28,-63.27 219.49,-52.97 212.49,-43.73"/>
<polygon fill="black" stroke="black" points="215.18,-41.48 206.35,-35.62 209.6,-45.71 215.18,-41.48"/>
</g>
<!-- GetSubGoal! -->
<g id="node8" class="node">
<title>GetSubGoal!</title>
<ellipse fill="gray" stroke="black" cx="298.77" cy="-18" rx="36.9" ry="18"/>
<text text-anchor="middle" x="298.77" y="-15.8" font-family="Times,serif" font-size="9.00">GetSubGoal!</text>
</g>
<!-- Fallback*&#45;&gt;GetSubGoal! -->
<g id="edge7" class="edge">
<title>Fallback*&#45;&gt;GetSubGoal!</title>
<path fill="none" stroke="black" d="M259.62,-71.7C265.97,-63.14 273.75,-52.67 280.7,-43.33"/>
<polygon fill="black" stroke="black" points="283.62,-45.26 286.77,-35.14 278,-41.08 283.62,-45.26"/>
</g>
</g>
</svg>
