<?xml version="1.0" encoding="UTF-8" standalone="no"?>
<!DOCTYPE svg PUBLIC "-//W3C//DTD SVG 1.1//EN"
 "http://www.w3.org/Graphics/SVG/1.1/DTD/svg11.dtd">
<!-- Generated by graphviz version 2.43.0 (0)
 -->
<!-- Title: pastafarianism Pages: 1 -->
<svg width="468pt" height="332pt"
 viewBox="0.00 0.00 467.55 332.00" xmlns="http://www.w3.org/2000/svg" xmlns:xlink="http://www.w3.org/1999/xlink">
<g id="graph0" class="graph" transform="scale(1 1) rotate(0) translate(4 328)">
<title>pastafarianism</title>
<polygon fill="white" stroke="transparent" points="-4,4 -4,-328 463.55,-328 463.55,4 -4,4"/>
<!-- Fallback -->
<g id="node1" class="node">
<title>Fallback</title>
<polygon fill="cyan" stroke="black" points="417.79,-298.54 417.79,-313.46 400.66,-324 376.44,-324 359.31,-313.46 359.31,-298.54 376.44,-288 400.66,-288 417.79,-298.54"/>
<text text-anchor="middle" x="388.55" y="-303.8" font-family="Times,serif" font-size="9.00">Fallback</text>
</g>
<!-- Sequence -->
<g id="node2" class="node">
<title>Sequence</title>
<polygon fill="cyan" stroke="black" points="382.04,-226.54 382.04,-241.46 363.6,-252 337.5,-252 319.06,-241.46 319.06,-226.54 337.5,-216 363.6,-216 382.04,-226.54"/>
<text text-anchor="middle" x="350.55" y="-231.8" font-family="Times,serif" font-size="9.00">Sequence</text>
</g>
<!-- Fallback&#45;&gt;Sequence -->
<g id="edge1" class="edge">
<title>Fallback&#45;&gt;Sequence</title>
<path fill="none" stroke="black" d="M379.16,-287.7C374.79,-279.64 369.49,-269.89 364.65,-260.98"/>
<polygon fill="black" stroke="black" points="367.68,-259.22 359.84,-252.1 361.53,-262.56 367.68,-259.22"/>
</g>
<!-- pick 3!* -->
<g id="node11" class="node">
<title>pick 3!*</title>
<ellipse fill="gray" stroke="black" cx="426.55" cy="-234" rx="27" ry="18"/>
<text text-anchor="middle" x="426.55" y="-231.8" font-family="Times,serif" font-size="9.00">pick 3!*</text>
</g>
<!-- Fallback&#45;&gt;pick 3!* -->
<g id="edge10" class="edge">
<title>Fallback&#45;&gt;pick 3!*</title>
<path fill="none" stroke="black" d="M397.94,-287.7C402.45,-279.4 407.92,-269.31 412.88,-260.19"/>
<polygon fill="black" stroke="black" points="416.09,-261.6 417.79,-251.14 409.94,-258.26 416.09,-261.6"/>
</g>
<!-- Fallback* -->
<g id="node3" class="node">
<title>Fallback*</title>
<polygon fill="cyan" stroke="black" points="329.29,-154.54 329.29,-169.46 310.7,-180 284.4,-180 265.81,-169.46 265.81,-154.54 284.4,-144 310.7,-144 329.29,-154.54"/>
<text text-anchor="middle" x="297.55" y="-159.8" font-family="Times,serif" font-size="9.00">Fallback*</text>
</g>
<!-- Sequence&#45;&gt;Fallback* -->
<g id="edge2" class="edge">
<title>Sequence&#45;&gt;Fallback*</title>
<path fill="none" stroke="black" d="M337.45,-215.7C331.16,-207.39 323.5,-197.28 316.59,-188.14"/>
<polygon fill="black" stroke="black" points="319.33,-185.96 310.5,-180.1 313.75,-190.19 319.33,-185.96"/>
</g>
<!-- place at (0.0, 0.0, 0.0)! -->
<g id="node10" class="node">
<title>place at (0.0, 0.0, 0.0)!</title>
<ellipse fill="gray" stroke="black" cx="403.55" cy="-162" rx="56.01" ry="18"/>
<text text-anchor="middle" x="403.55" y="-159.8" font-family="Times,serif" font-size="9.00">place at (0.0, 0.0, 0.0)!</text>
</g>
<!-- Sequence&#45;&gt;place at (0.0, 0.0, 0.0)! -->
<g id="edge9" class="edge">
<title>Sequence&#45;&gt;place at (0.0, 0.0, 0.0)!</title>
<path fill="none" stroke="black" d="M363.65,-215.7C370.03,-207.27 377.83,-196.97 384.82,-187.73"/>
<polygon fill="black" stroke="black" points="387.72,-189.71 390.96,-179.62 382.14,-185.48 387.72,-189.71"/>
</g>
<!-- Sequence* -->
<g id="node4" class="node">
<title>Sequence*</title>
<polygon fill="cyan" stroke="black" points="157.79,-82.54 157.79,-97.46 137.73,-108 109.37,-108 89.31,-97.46 89.31,-82.54 109.37,-72 137.73,-72 157.79,-82.54"/>
<text text-anchor="middle" x="123.55" y="-87.8" font-family="Times,serif" font-size="9.00">Sequence*</text>
</g>
<!-- Fallback*&#45;&gt;Sequence* -->
<g id="edge3" class="edge">
<title>Fallback*&#45;&gt;Sequence*</title>
<path fill="none" stroke="black" d="M272.25,-150.82C242.57,-138.88 193.14,-119 159.49,-105.46"/>
<polygon fill="black" stroke="black" points="160.61,-102.14 150.02,-101.65 157.99,-108.63 160.61,-102.14"/>
</g>
<!-- place at (0.016, 0.032, 0.0)! -->
<g id="node7" class="node">
<title>place at (0.016, 0.032, 0.0)!</title>
<ellipse fill="gray" stroke="black" cx="242.55" cy="-90" rx="66.29" ry="18"/>
<text text-anchor="middle" x="242.55" y="-87.8" font-family="Times,serif" font-size="9.00">place at (0.016, 0.032, 0.0)!</text>
</g>
<!-- Fallback*&#45;&gt;place at (0.016, 0.032, 0.0)! -->
<g id="edge6" class="edge">
<title>Fallback*&#45;&gt;place at (0.016, 0.032, 0.0)!</title>
<path fill="none" stroke="black" d="M284.24,-144.05C277.55,-135.54 269.32,-125.07 261.94,-115.68"/>
<polygon fill="black" stroke="black" points="264.67,-113.49 255.74,-107.79 259.17,-117.81 264.67,-113.49"/>
</g>
<!-- pick 3! -->
<g id="node8" class="node">
<title>pick 3!</title>
<ellipse fill="gray" stroke="black" cx="353.55" cy="-90" rx="27" ry="18"/>
<text text-anchor="middle" x="353.55" y="-87.8" font-family="Times,serif" font-size="9.00">pick 3!</text>
</g>
<!-- Fallback*&#45;&gt;pick 3! -->
<g id="edge7" class="edge">
<title>Fallback*&#45;&gt;pick 3!</title>
<path fill="none" stroke="black" d="M311.11,-144.05C318.22,-135.17 327.04,-124.14 334.79,-114.45"/>
<polygon fill="black" stroke="black" points="337.75,-116.35 341.26,-106.36 332.28,-111.98 337.75,-116.35"/>
</g>
<!-- 0 on 3? -->
<g id="node9" class="node">
<title>0 on 3?</title>
<ellipse fill="gray" stroke="black" cx="425.55" cy="-90" rx="27" ry="18"/>
<text text-anchor="middle" x="425.55" y="-87.8" font-family="Times,serif" font-size="9.00">0 on 3?</text>
</g>
<!-- Fallback*&#45;&gt;0 on 3? -->
<g id="edge8" class="edge">
<title>Fallback*&#45;&gt;0 on 3?</title>
<path fill="none" stroke="black" d="M319.55,-148.97C340.76,-137.37 372.97,-119.76 396.32,-106.99"/>
<polygon fill="black" stroke="black" points="398.01,-110.05 405.1,-102.18 394.65,-103.91 398.01,-110.05"/>
</g>
<!-- 3 at pos (0.016, 0.032, 0.0)? -->
<g id="node5" class="node">
<title>3 at pos (0.016, 0.032, 0.0)?</title>
<ellipse fill="gray" stroke="black" cx="67.55" cy="-18" rx="67.6" ry="18"/>
<text text-anchor="middle" x="67.55" y="-15.8" font-family="Times,serif" font-size="9.00">3 at pos (0.016, 0.032, 0.0)?</text>
</g>
<!-- Sequence*&#45;&gt;3 at pos (0.016, 0.032, 0.0)? -->
<g id="edge4" class="edge">
<title>Sequence*&#45;&gt;3 at pos (0.016, 0.032, 0.0)?</title>
<path fill="none" stroke="black" d="M109.71,-71.7C103.06,-63.39 94.97,-53.28 87.66,-44.14"/>
<polygon fill="black" stroke="black" points="90.21,-41.73 81.23,-36.1 84.75,-46.1 90.21,-41.73"/>
</g>
<!-- pick 0! -->
<g id="node6" class="node">
<title>pick 0!</title>
<ellipse fill="gray" stroke="black" cx="180.55" cy="-18" rx="27" ry="18"/>
<text text-anchor="middle" x="180.55" y="-15.8" font-family="Times,serif" font-size="9.00">pick 0!</text>
</g>
<!-- Sequence*&#45;&gt;pick 0! -->
<g id="edge5" class="edge">
<title>Sequence*&#45;&gt;pick 0!</title>
<path fill="none" stroke="black" d="M137.64,-71.7C144.88,-62.8 153.81,-51.84 161.64,-42.22"/>
<polygon fill="black" stroke="black" points="164.57,-44.17 168.17,-34.2 159.14,-39.75 164.57,-44.17"/>
</g>
</g>
</svg>
