<?xml version="1.0" encoding="UTF-8" standalone="no"?>
<!DOCTYPE svg PUBLIC "-//W3C//DTD SVG 1.1//EN"
 "http://www.w3.org/Graphics/SVG/1.1/DTD/svg11.dtd">
<!-- Generated by graphviz version 2.43.0 (0)
 -->
<!-- Title: pastafarianism Pages: 1 -->
<svg width="1429pt" height="404pt"
 viewBox="0.00 0.00 1429.30 404.00" xmlns="http://www.w3.org/2000/svg" xmlns:xlink="http://www.w3.org/1999/xlink">
<g id="graph0" class="graph" transform="scale(1 1) rotate(0) translate(4 400)">
<title>pastafarianism</title>
<polygon fill="white" stroke="transparent" points="-4,4 -4,-400 1425.3,-400 1425.3,4 -4,4"/>
<!-- Fallback -->
<g id="node1" class="node">
<title>Fallback</title>
<polygon fill="cyan" stroke="black" points="949.79,-370.54 949.79,-385.46 932.66,-396 908.44,-396 891.31,-385.46 891.31,-370.54 908.44,-360 932.66,-360 949.79,-370.54"/>
<text text-anchor="middle" x="920.55" y="-375.8" font-family="Times,serif" font-size="9.00">Fallback</text>
</g>
<!-- Sequence -->
<g id="node2" class="node">
<title>Sequence</title>
<polygon fill="cyan" stroke="black" points="582.04,-298.54 582.04,-313.46 563.6,-324 537.5,-324 519.06,-313.46 519.06,-298.54 537.5,-288 563.6,-288 582.04,-298.54"/>
<text text-anchor="middle" x="550.55" y="-303.8" font-family="Times,serif" font-size="9.00">Sequence</text>
</g>
<!-- Fallback&#45;&gt;Sequence -->
<g id="edge1" class="edge">
<title>Fallback&#45;&gt;Sequence</title>
<path fill="none" stroke="black" d="M891.21,-371.45C825.75,-359.06 667.61,-329.15 592.07,-314.86"/>
<polygon fill="black" stroke="black" points="592.45,-311.37 581.98,-312.95 591.15,-318.24 592.45,-311.37"/>
</g>
<!-- 2 at pos (0.016, &#45;0.032, 0.0)? -->
<g id="node11" class="node">
<title>2 at pos (0.016, &#45;0.032, 0.0)?</title>
<ellipse fill="gray" stroke="black" cx="796.55" cy="-306" rx="69.06" ry="18"/>
<text text-anchor="middle" x="796.55" y="-303.8" font-family="Times,serif" font-size="9.00">2 at pos (0.016, &#45;0.032, 0.0)?</text>
</g>
<!-- Fallback&#45;&gt;2 at pos (0.016, &#45;0.032, 0.0)? -->
<g id="edge10" class="edge">
<title>Fallback&#45;&gt;2 at pos (0.016, &#45;0.032, 0.0)?</title>
<path fill="none" stroke="black" d="M899.8,-365.28C881.7,-355.07 855.02,-340.01 833.31,-327.75"/>
<polygon fill="black" stroke="black" points="834.79,-324.57 824.36,-322.7 831.34,-330.66 834.79,-324.57"/>
</g>
<!-- Sequence** -->
<g id="node12" class="node">
<title>Sequence**</title>
<polygon fill="cyan" stroke="black" points="957.29,-298.54 957.29,-313.46 935.77,-324 905.33,-324 883.81,-313.46 883.81,-298.54 905.33,-288 935.77,-288 957.29,-298.54"/>
<text text-anchor="middle" x="920.55" y="-303.8" font-family="Times,serif" font-size="9.00">Sequence**</text>
</g>
<!-- Fallback&#45;&gt;Sequence** -->
<g id="edge11" class="edge">
<title>Fallback&#45;&gt;Sequence**</title>
<path fill="none" stroke="black" d="M920.55,-359.7C920.55,-351.98 920.55,-342.71 920.55,-334.11"/>
<polygon fill="black" stroke="black" points="924.05,-334.1 920.55,-324.1 917.05,-334.1 924.05,-334.1"/>
</g>
<!-- Sequence**** -->
<g id="node24" class="node">
<title>Sequence****</title>
<polygon fill="cyan" stroke="black" points="1070.04,-298.54 1070.04,-313.46 1045.15,-324 1009.95,-324 985.06,-313.46 985.06,-298.54 1009.95,-288 1045.15,-288 1070.04,-298.54"/>
<text text-anchor="middle" x="1027.55" y="-303.8" font-family="Times,serif" font-size="9.00">Sequence****</text>
</g>
<!-- Fallback&#45;&gt;Sequence**** -->
<g id="edge23" class="edge">
<title>Fallback&#45;&gt;Sequence****</title>
<path fill="none" stroke="black" d="M940.18,-364.16C955.83,-353.92 978.07,-339.37 996.19,-327.52"/>
<polygon fill="black" stroke="black" points="998.25,-330.35 1004.71,-321.94 994.42,-324.49 998.25,-330.35"/>
</g>
<!-- pick 3!**** -->
<g id="node35" class="node">
<title>pick 3!****</title>
<ellipse fill="gray" stroke="black" cx="1122.55" cy="-306" rx="34.13" ry="18"/>
<text text-anchor="middle" x="1122.55" y="-303.8" font-family="Times,serif" font-size="9.00">pick 3!****</text>
</g>
<!-- Fallback&#45;&gt;pick 3!**** -->
<g id="edge34" class="edge">
<title>Fallback&#45;&gt;pick 3!****</title>
<path fill="none" stroke="black" d="M946.95,-368.55C978.43,-358.37 1032.55,-340.59 1078.55,-324 1081.22,-323.04 1083.98,-322.02 1086.75,-320.99"/>
<polygon fill="black" stroke="black" points="1087.99,-324.26 1096.1,-317.44 1085.51,-317.71 1087.99,-324.26"/>
</g>
<!-- Fallback* -->
<g id="node3" class="node">
<title>Fallback*</title>
<polygon fill="cyan" stroke="black" points="387.29,-226.54 387.29,-241.46 368.7,-252 342.4,-252 323.81,-241.46 323.81,-226.54 342.4,-216 368.7,-216 387.29,-226.54"/>
<text text-anchor="middle" x="355.55" y="-231.8" font-family="Times,serif" font-size="9.00">Fallback*</text>
</g>
<!-- Sequence&#45;&gt;Fallback* -->
<g id="edge2" class="edge">
<title>Sequence&#45;&gt;Fallback*</title>
<path fill="none" stroke="black" d="M524.25,-295.56C490.09,-283.3 430.28,-261.83 391.82,-248.02"/>
<polygon fill="black" stroke="black" points="392.65,-244.6 382.05,-244.51 390.28,-251.19 392.65,-244.6"/>
</g>
<!-- place at (0.0, 0.0, 0.0)! -->
<g id="node10" class="node">
<title>place at (0.0, 0.0, 0.0)!</title>
<ellipse fill="gray" stroke="black" cx="550.55" cy="-234" rx="56.01" ry="18"/>
<text text-anchor="middle" x="550.55" y="-231.8" font-family="Times,serif" font-size="9.00">place at (0.0, 0.0, 0.0)!</text>
</g>
<!-- Sequence&#45;&gt;place at (0.0, 0.0, 0.0)! -->
<g id="edge9" class="edge">
<title>Sequence&#45;&gt;place at (0.0, 0.0, 0.0)!</title>
<path fill="none" stroke="black" d="M550.55,-287.7C550.55,-279.98 550.55,-270.71 550.55,-262.11"/>
<polygon fill="black" stroke="black" points="554.05,-262.1 550.55,-252.1 547.05,-262.1 554.05,-262.1"/>
</g>
<!-- Sequence* -->
<g id="node4" class="node">
<title>Sequence*</title>
<polygon fill="cyan" stroke="black" points="157.79,-154.54 157.79,-169.46 137.73,-180 109.37,-180 89.31,-169.46 89.31,-154.54 109.37,-144 137.73,-144 157.79,-154.54"/>
<text text-anchor="middle" x="123.55" y="-159.8" font-family="Times,serif" font-size="9.00">Sequence*</text>
</g>
<!-- Fallback*&#45;&gt;Sequence* -->
<g id="edge3" class="edge">
<title>Fallback*&#45;&gt;Sequence*</title>
<path fill="none" stroke="black" d="M325.33,-225.42C287.96,-215.82 222.56,-198.34 167.55,-180 164.94,-179.13 162.27,-178.2 159.58,-177.23"/>
<polygon fill="black" stroke="black" points="160.52,-173.85 149.93,-173.65 158.09,-180.41 160.52,-173.85"/>
</g>
<!-- place at (0.016, 0.032, 0.0)! -->
<g id="node7" class="node">
<title>place at (0.016, 0.032, 0.0)!</title>
<ellipse fill="gray" stroke="black" cx="242.55" cy="-162" rx="66.29" ry="18"/>
<text text-anchor="middle" x="242.55" y="-159.8" font-family="Times,serif" font-size="9.00">place at (0.016, 0.032, 0.0)!</text>
</g>
<!-- Fallback*&#45;&gt;place at (0.016, 0.032, 0.0)! -->
<g id="edge6" class="edge">
<title>Fallback*&#45;&gt;place at (0.016, 0.032, 0.0)!</title>
<path fill="none" stroke="black" d="M334.82,-220.16C318.54,-210.08 295.53,-195.82 276.56,-184.07"/>
<polygon fill="black" stroke="black" points="278.24,-180.99 267.89,-178.7 274.55,-186.94 278.24,-180.99"/>
</g>
<!-- picked 2? -->
<g id="node8" class="node">
<title>picked 2?</title>
<ellipse fill="gray" stroke="black" cx="355.55" cy="-162" rx="28.74" ry="18"/>
<text text-anchor="middle" x="355.55" y="-159.8" font-family="Times,serif" font-size="9.00">picked 2?</text>
</g>
<!-- Fallback*&#45;&gt;picked 2? -->
<g id="edge7" class="edge">
<title>Fallback*&#45;&gt;picked 2?</title>
<path fill="none" stroke="black" d="M355.55,-215.7C355.55,-207.98 355.55,-198.71 355.55,-190.11"/>
<polygon fill="black" stroke="black" points="359.05,-190.1 355.55,-180.1 352.05,-190.1 359.05,-190.1"/>
</g>
<!-- pick 3! -->
<g id="node9" class="node">
<title>pick 3!</title>
<ellipse fill="gray" stroke="black" cx="429.55" cy="-162" rx="27" ry="18"/>
<text text-anchor="middle" x="429.55" y="-159.8" font-family="Times,serif" font-size="9.00">pick 3!</text>
</g>
<!-- Fallback*&#45;&gt;pick 3! -->
<g id="edge8" class="edge">
<title>Fallback*&#45;&gt;pick 3!</title>
<path fill="none" stroke="black" d="M371.97,-217.46C382.35,-207.65 395.9,-194.83 407.24,-184.1"/>
<polygon fill="black" stroke="black" points="409.82,-186.48 414.68,-177.07 405.01,-181.39 409.82,-186.48"/>
</g>
<!-- 3 at pos (0.016, 0.032, 0.0)? -->
<g id="node5" class="node">
<title>3 at pos (0.016, 0.032, 0.0)?</title>
<ellipse fill="gray" stroke="black" cx="67.55" cy="-90" rx="67.6" ry="18"/>
<text text-anchor="middle" x="67.55" y="-87.8" font-family="Times,serif" font-size="9.00">3 at pos (0.016, 0.032, 0.0)?</text>
</g>
<!-- Sequence*&#45;&gt;3 at pos (0.016, 0.032, 0.0)? -->
<g id="edge4" class="edge">
<title>Sequence*&#45;&gt;3 at pos (0.016, 0.032, 0.0)?</title>
<path fill="none" stroke="black" d="M109.71,-143.7C103.06,-135.39 94.97,-125.28 87.66,-116.14"/>
<polygon fill="black" stroke="black" points="90.21,-113.73 81.23,-108.1 84.75,-118.1 90.21,-113.73"/>
</g>
<!-- pick 0! -->
<g id="node6" class="node">
<title>pick 0!</title>
<ellipse fill="gray" stroke="black" cx="180.55" cy="-90" rx="27" ry="18"/>
<text text-anchor="middle" x="180.55" y="-87.8" font-family="Times,serif" font-size="9.00">pick 0!</text>
</g>
<!-- Sequence*&#45;&gt;pick 0! -->
<g id="edge5" class="edge">
<title>Sequence*&#45;&gt;pick 0!</title>
<path fill="none" stroke="black" d="M137.64,-143.7C144.88,-134.8 153.81,-123.84 161.64,-114.22"/>
<polygon fill="black" stroke="black" points="164.57,-116.17 168.17,-106.2 159.14,-111.75 164.57,-116.17"/>
</g>
<!-- Fallback** -->
<g id="node13" class="node">
<title>Fallback**</title>
<polygon fill="cyan" stroke="black" points="815.54,-226.54 815.54,-241.46 795.04,-252 766.06,-252 745.56,-241.46 745.56,-226.54 766.06,-216 795.04,-216 815.54,-226.54"/>
<text text-anchor="middle" x="780.55" y="-231.8" font-family="Times,serif" font-size="9.00">Fallback**</text>
</g>
<!-- Sequence**&#45;&gt;Fallback** -->
<g id="edge12" class="edge">
<title>Sequence**&#45;&gt;Fallback**</title>
<path fill="none" stroke="black" d="M895.84,-292.65C873.15,-281.3 839.33,-264.39 814.18,-251.82"/>
<polygon fill="black" stroke="black" points="815.52,-248.57 805.01,-247.23 812.39,-254.83 815.52,-248.57"/>
</g>
<!-- place at (0.0, 0.0, 0.0)!* -->
<g id="node23" class="node">
<title>place at (0.0, 0.0, 0.0)!*</title>
<ellipse fill="gray" stroke="black" cx="920.55" cy="-234" rx="58.13" ry="18"/>
<text text-anchor="middle" x="920.55" y="-231.8" font-family="Times,serif" font-size="9.00">place at (0.0, 0.0, 0.0)!*</text>
</g>
<!-- Sequence**&#45;&gt;place at (0.0, 0.0, 0.0)!* -->
<g id="edge22" class="edge">
<title>Sequence**&#45;&gt;place at (0.0, 0.0, 0.0)!*</title>
<path fill="none" stroke="black" d="M920.55,-287.7C920.55,-279.98 920.55,-270.71 920.55,-262.11"/>
<polygon fill="black" stroke="black" points="924.05,-262.1 920.55,-252.1 917.05,-262.1 924.05,-262.1"/>
</g>
<!-- Sequence*** -->
<g id="node14" class="node">
<title>Sequence***</title>
<polygon fill="cyan" stroke="black" points="554.54,-154.54 554.54,-169.46 531.11,-180 497.99,-180 474.56,-169.46 474.56,-154.54 497.99,-144 531.11,-144 554.54,-154.54"/>
<text text-anchor="middle" x="514.55" y="-159.8" font-family="Times,serif" font-size="9.00">Sequence***</text>
</g>
<!-- Fallback**&#45;&gt;Sequence*** -->
<g id="edge13" class="edge">
<title>Fallback**&#45;&gt;Sequence***</title>
<path fill="none" stroke="black" d="M746.83,-225.8C703.94,-216.41 627.72,-198.92 563.55,-180 560.58,-179.12 557.52,-178.18 554.46,-177.19"/>
<polygon fill="black" stroke="black" points="555.32,-173.79 544.73,-173.97 553.12,-180.44 555.32,-173.79"/>
</g>
<!-- 0 on 3? -->
<g id="node19" class="node">
<title>0 on 3?</title>
<ellipse fill="gray" stroke="black" cx="599.55" cy="-162" rx="27" ry="18"/>
<text text-anchor="middle" x="599.55" y="-159.8" font-family="Times,serif" font-size="9.00">0 on 3?</text>
</g>
<!-- Fallback**&#45;&gt;0 on 3? -->
<g id="edge18" class="edge">
<title>Fallback**&#45;&gt;0 on 3?</title>
<path fill="none" stroke="black" d="M751.64,-223.3C722.16,-213.21 675.24,-196.59 635.55,-180 633.73,-179.24 631.87,-178.44 630,-177.62"/>
<polygon fill="black" stroke="black" points="631.28,-174.35 620.73,-173.39 628.38,-180.72 631.28,-174.35"/>
</g>
<!-- place at (0.016, 0.032, 0.0)!* -->
<g id="node20" class="node">
<title>place at (0.016, 0.032, 0.0)!*</title>
<ellipse fill="gray" stroke="black" cx="713.55" cy="-162" rx="68.91" ry="18"/>
<text text-anchor="middle" x="713.55" y="-159.8" font-family="Times,serif" font-size="9.00">place at (0.016, 0.032, 0.0)!*</text>
</g>
<!-- Fallback**&#45;&gt;place at (0.016, 0.032, 0.0)!* -->
<g id="edge19" class="edge">
<title>Fallback**&#45;&gt;place at (0.016, 0.032, 0.0)!*</title>
<path fill="none" stroke="black" d="M764.67,-216.41C756.37,-207.73 746.04,-196.95 736.85,-187.34"/>
<polygon fill="black" stroke="black" points="739.22,-184.76 729.78,-179.96 734.17,-189.6 739.22,-184.76"/>
</g>
<!-- place on 1! -->
<g id="node21" class="node">
<title>place on 1!</title>
<ellipse fill="gray" stroke="black" cx="832.55" cy="-162" rx="32.16" ry="18"/>
<text text-anchor="middle" x="832.55" y="-159.8" font-family="Times,serif" font-size="9.00">place on 1!</text>
</g>
<!-- Fallback**&#45;&gt;place on 1! -->
<g id="edge20" class="edge">
<title>Fallback**&#45;&gt;place on 1!</title>
<path fill="none" stroke="black" d="M793.4,-215.7C799.76,-207.14 807.54,-196.67 814.48,-187.33"/>
<polygon fill="black" stroke="black" points="817.4,-189.26 820.56,-179.14 811.78,-185.08 817.4,-189.26"/>
</g>
<!-- pick 3!* -->
<g id="node22" class="node">
<title>pick 3!*</title>
<ellipse fill="gray" stroke="black" cx="909.55" cy="-162" rx="27" ry="18"/>
<text text-anchor="middle" x="909.55" y="-159.8" font-family="Times,serif" font-size="9.00">pick 3!*</text>
</g>
<!-- Fallback**&#45;&gt;pick 3!* -->
<g id="edge21" class="edge">
<title>Fallback**&#45;&gt;pick 3!*</title>
<path fill="none" stroke="black" d="M803.91,-220.32C825.35,-208.69 857.2,-191.41 880.32,-178.86"/>
<polygon fill="black" stroke="black" points="882.21,-181.82 889.33,-173.97 878.87,-175.66 882.21,-181.82"/>
</g>
<!-- Fallback*** -->
<g id="node15" class="node">
<title>Fallback***</title>
<polygon fill="cyan" stroke="black" points="511.04,-82.54 511.04,-97.46 489.08,-108 458.02,-108 436.06,-97.46 436.06,-82.54 458.02,-72 489.08,-72 511.04,-82.54"/>
<text text-anchor="middle" x="473.55" y="-87.8" font-family="Times,serif" font-size="9.00">Fallback***</text>
</g>
<!-- Sequence***&#45;&gt;Fallback*** -->
<g id="edge14" class="edge">
<title>Sequence***&#45;&gt;Fallback***</title>
<path fill="none" stroke="black" d="M504.42,-143.7C499.7,-135.64 493.99,-125.89 488.77,-116.98"/>
<polygon fill="black" stroke="black" points="491.64,-114.96 483.57,-108.1 485.6,-118.5 491.64,-114.96"/>
</g>
<!-- pick 0!* -->
<g id="node18" class="node">
<title>pick 0!*</title>
<ellipse fill="gray" stroke="black" cx="555.55" cy="-90" rx="27" ry="18"/>
<text text-anchor="middle" x="555.55" y="-87.8" font-family="Times,serif" font-size="9.00">pick 0!*</text>
</g>
<!-- Sequence***&#45;&gt;pick 0!* -->
<g id="edge17" class="edge">
<title>Sequence***&#45;&gt;pick 0!*</title>
<path fill="none" stroke="black" d="M524.68,-143.7C529.59,-135.32 535.58,-125.1 540.97,-115.9"/>
<polygon fill="black" stroke="black" points="544.06,-117.54 546.09,-107.14 538.02,-114 544.06,-117.54"/>
</g>
<!-- 3 at pos (0.016, 0.032, 0.0)?* -->
<g id="node16" class="node">
<title>3 at pos (0.016, 0.032, 0.0)?*</title>
<ellipse fill="gray" stroke="black" cx="410.55" cy="-18" rx="70.37" ry="18"/>
<text text-anchor="middle" x="410.55" y="-15.8" font-family="Times,serif" font-size="9.00">3 at pos (0.016, 0.032, 0.0)?*</text>
</g>
<!-- Fallback***&#45;&gt;3 at pos (0.016, 0.032, 0.0)?* -->
<g id="edge15" class="edge">
<title>Fallback***&#45;&gt;3 at pos (0.016, 0.032, 0.0)?*</title>
<path fill="none" stroke="black" d="M457.98,-71.7C450.23,-63.09 440.75,-52.55 432.3,-43.17"/>
<polygon fill="black" stroke="black" points="434.8,-40.71 425.51,-35.62 429.6,-45.4 434.8,-40.71"/>
</g>
<!-- apply force 3! -->
<g id="node17" class="node">
<title>apply force 3!</title>
<ellipse fill="gray" stroke="black" cx="537.55" cy="-18" rx="38.21" ry="18"/>
<text text-anchor="middle" x="537.55" y="-15.8" font-family="Times,serif" font-size="9.00">apply force 3!</text>
</g>
<!-- Fallback***&#45;&gt;apply force 3! -->
<g id="edge16" class="edge">
<title>Fallback***&#45;&gt;apply force 3!</title>
<path fill="none" stroke="black" d="M489.37,-71.7C497.35,-62.97 507.16,-52.24 515.83,-42.75"/>
<polygon fill="black" stroke="black" points="518.62,-44.89 522.79,-35.14 513.46,-40.16 518.62,-44.89"/>
</g>
<!-- Fallback**** -->
<g id="node25" class="node">
<title>Fallback****</title>
<polygon fill="cyan" stroke="black" points="1093.29,-226.54 1093.29,-241.46 1069.42,-252 1035.67,-252 1011.81,-241.46 1011.81,-226.54 1035.67,-216 1069.42,-216 1093.29,-226.54"/>
<text text-anchor="middle" x="1052.55" y="-231.8" font-family="Times,serif" font-size="9.00">Fallback****</text>
</g>
<!-- Sequence****&#45;&gt;Fallback**** -->
<g id="edge24" class="edge">
<title>Sequence****&#45;&gt;Fallback****</title>
<path fill="none" stroke="black" d="M1033.73,-287.7C1036.55,-279.81 1039.94,-270.3 1043.07,-261.55"/>
<polygon fill="black" stroke="black" points="1046.37,-262.7 1046.44,-252.1 1039.78,-260.34 1046.37,-262.7"/>
</g>
<!-- place at (0.0, 0.0, 0.0)!** -->
<g id="node34" class="node">
<title>place at (0.0, 0.0, 0.0)!**</title>
<ellipse fill="gray" stroke="black" cx="1172.55" cy="-234" rx="61.4" ry="18"/>
<text text-anchor="middle" x="1172.55" y="-231.8" font-family="Times,serif" font-size="9.00">place at (0.0, 0.0, 0.0)!**</text>
</g>
<!-- Sequence****&#45;&gt;place at (0.0, 0.0, 0.0)!** -->
<g id="edge33" class="edge">
<title>Sequence****&#45;&gt;place at (0.0, 0.0, 0.0)!**</title>
<path fill="none" stroke="black" d="M1054.82,-291.83C1076.86,-281.19 1108.19,-266.07 1132.99,-254.1"/>
<polygon fill="black" stroke="black" points="1134.66,-257.18 1142.14,-249.68 1131.61,-250.88 1134.66,-257.18"/>
</g>
<!-- Sequence***** -->
<g id="node26" class="node">
<title>Sequence*****</title>
<polygon fill="cyan" stroke="black" points="1046.29,-154.54 1046.29,-169.46 1019.5,-180 981.6,-180 954.81,-169.46 954.81,-154.54 981.6,-144 1019.5,-144 1046.29,-154.54"/>
<text text-anchor="middle" x="1000.55" y="-159.8" font-family="Times,serif" font-size="9.00">Sequence*****</text>
</g>
<!-- Fallback****&#45;&gt;Sequence***** -->
<g id="edge25" class="edge">
<title>Fallback****&#45;&gt;Sequence*****</title>
<path fill="none" stroke="black" d="M1039.7,-215.7C1033.52,-207.39 1026.01,-197.28 1019.23,-188.14"/>
<polygon fill="black" stroke="black" points="1022.03,-186.04 1013.26,-180.1 1016.41,-190.22 1022.03,-186.04"/>
</g>
<!-- place at (0.016, 0.032, 0.0)!** -->
<g id="node29" class="node">
<title>place at (0.016, 0.032, 0.0)!**</title>
<ellipse fill="gray" stroke="black" cx="1135.55" cy="-162" rx="71.68" ry="18"/>
<text text-anchor="middle" x="1135.55" y="-159.8" font-family="Times,serif" font-size="9.00">place at (0.016, 0.032, 0.0)!**</text>
</g>
<!-- Fallback****&#45;&gt;place at (0.016, 0.032, 0.0)!** -->
<g id="edge28" class="edge">
<title>Fallback****&#45;&gt;place at (0.016, 0.032, 0.0)!**</title>
<path fill="none" stroke="black" d="M1071.8,-216.76C1082.62,-207.64 1096.3,-196.1 1108.21,-186.06"/>
<polygon fill="black" stroke="black" points="1110.73,-188.51 1116.12,-179.39 1106.22,-183.16 1110.73,-188.51"/>
</g>
<!-- pick 3!** -->
<g id="node30" class="node">
<title>pick 3!**</title>
<ellipse fill="gray" stroke="black" cx="1253.55" cy="-162" rx="28.74" ry="18"/>
<text text-anchor="middle" x="1253.55" y="-159.8" font-family="Times,serif" font-size="9.00">pick 3!**</text>
</g>
<!-- Fallback****&#45;&gt;pick 3!** -->
<g id="edge29" class="edge">
<title>Fallback****&#45;&gt;pick 3!**</title>
<path fill="none" stroke="black" d="M1083.72,-222.28C1089.95,-220.18 1096.45,-218 1102.55,-216 1153.04,-199.45 1166.98,-199.13 1216.55,-180 1218.38,-179.29 1220.25,-178.54 1222.12,-177.76"/>
<polygon fill="black" stroke="black" points="1223.67,-180.91 1231.44,-173.7 1220.87,-174.49 1223.67,-180.91"/>
</g>
<!-- Sequence****** -->
<g id="node31" class="node">
<title>Sequence******</title>
<polygon fill="cyan" stroke="black" points="1396.79,-154.54 1396.79,-169.46 1368.53,-180 1328.57,-180 1300.31,-169.46 1300.31,-154.54 1328.57,-144 1368.53,-144 1396.79,-154.54"/>
<text text-anchor="middle" x="1348.55" y="-159.8" font-family="Times,serif" font-size="9.00">Sequence******</text>
</g>
<!-- Fallback****&#45;&gt;Sequence****** -->
<g id="edge30" class="edge">
<title>Fallback****&#45;&gt;Sequence******</title>
<path fill="none" stroke="black" d="M1083.02,-221.89C1089.42,-219.77 1096.17,-217.68 1102.55,-216 1185.23,-194.18 1208.47,-200.25 1291.55,-180 1295.34,-179.08 1299.24,-178.06 1303.16,-176.99"/>
<polygon fill="black" stroke="black" points="1304.15,-180.35 1312.82,-174.26 1302.25,-173.61 1304.15,-180.35"/>
</g>
<!-- 3 at pos (0.016, 0.032, 0.0)?** -->
<g id="node27" class="node">
<title>3 at pos (0.016, 0.032, 0.0)?**</title>
<ellipse fill="gray" stroke="black" cx="940.55" cy="-90" rx="72.99" ry="18"/>
<text text-anchor="middle" x="940.55" y="-87.8" font-family="Times,serif" font-size="9.00">3 at pos (0.016, 0.032, 0.0)?**</text>
</g>
<!-- Sequence*****&#45;&gt;3 at pos (0.016, 0.032, 0.0)?** -->
<g id="edge26" class="edge">
<title>Sequence*****&#45;&gt;3 at pos (0.016, 0.032, 0.0)?**</title>
<path fill="none" stroke="black" d="M985.72,-143.7C978.53,-135.3 969.75,-125.07 961.86,-115.86"/>
<polygon fill="black" stroke="black" points="964.38,-113.42 955.21,-108.1 959.06,-117.97 964.38,-113.42"/>
</g>
<!-- pick 0!** -->
<g id="node28" class="node">
<title>pick 0!**</title>
<ellipse fill="gray" stroke="black" cx="1060.55" cy="-90" rx="28.74" ry="18"/>
<text text-anchor="middle" x="1060.55" y="-87.8" font-family="Times,serif" font-size="9.00">pick 0!**</text>
</g>
<!-- Sequence*****&#45;&gt;pick 0!** -->
<g id="edge27" class="edge">
<title>Sequence*****&#45;&gt;pick 0!**</title>
<path fill="none" stroke="black" d="M1015.38,-143.7C1023.08,-134.71 1032.59,-123.62 1040.89,-113.93"/>
<polygon fill="black" stroke="black" points="1043.67,-116.07 1047.52,-106.2 1038.35,-111.52 1043.67,-116.07"/>
</g>
<!-- pick 3!*** -->
<g id="node32" class="node">
<title>pick 3!***</title>
<ellipse fill="gray" stroke="black" cx="1307.55" cy="-90" rx="31.51" ry="18"/>
<text text-anchor="middle" x="1307.55" y="-87.8" font-family="Times,serif" font-size="9.00">pick 3!***</text>
</g>
<!-- Sequence******&#45;&gt;pick 3!*** -->
<g id="edge31" class="edge">
<title>Sequence******&#45;&gt;pick 3!***</title>
<path fill="none" stroke="black" d="M1338.42,-143.7C1333.58,-135.44 1327.7,-125.39 1322.37,-116.3"/>
<polygon fill="black" stroke="black" points="1325.36,-114.48 1317.29,-107.62 1319.32,-118.02 1325.36,-114.48"/>
</g>
<!-- pick 0!*** -->
<g id="node33" class="node">
<title>pick 0!***</title>
<ellipse fill="gray" stroke="black" cx="1389.55" cy="-90" rx="31.51" ry="18"/>
<text text-anchor="middle" x="1389.55" y="-87.8" font-family="Times,serif" font-size="9.00">pick 0!***</text>
</g>
<!-- Sequence******&#45;&gt;pick 0!*** -->
<g id="edge32" class="edge">
<title>Sequence******&#45;&gt;pick 0!***</title>
<path fill="none" stroke="black" d="M1358.68,-143.7C1363.52,-135.44 1369.4,-125.39 1374.73,-116.3"/>
<polygon fill="black" stroke="black" points="1377.78,-118.02 1379.81,-107.62 1371.74,-114.48 1377.78,-118.02"/>
</g>
</g>
</svg>
