<?xml version="1.0" encoding="UTF-8" standalone="no"?>
<!DOCTYPE svg PUBLIC "-//W3C//DTD SVG 1.1//EN"
 "http://www.w3.org/Graphics/SVG/1.1/DTD/svg11.dtd">
<!-- Generated by graphviz version 2.43.0 (0)
 -->
<!-- Title: pastafarianism Pages: 1 -->
<svg width="1479pt" height="332pt"
 viewBox="0.00 0.00 1479.30 332.00" xmlns="http://www.w3.org/2000/svg" xmlns:xlink="http://www.w3.org/1999/xlink">
<g id="graph0" class="graph" transform="scale(1 1) rotate(0) translate(4 328)">
<title>pastafarianism</title>
<polygon fill="white" stroke="transparent" points="-4,4 -4,-328 1475.3,-328 1475.3,4 -4,4"/>
<!-- Fallback -->
<g id="node1" class="node">
<title>Fallback</title>
<polygon fill="cyan" stroke="black" points="994.79,-298.54 994.79,-313.46 977.66,-324 953.44,-324 936.31,-313.46 936.31,-298.54 953.44,-288 977.66,-288 994.79,-298.54"/>
<text text-anchor="middle" x="965.55" y="-303.8" font-family="Times,serif" font-size="9.00">Fallback</text>
</g>
<!-- Sequence -->
<g id="node2" class="node">
<title>Sequence</title>
<polygon fill="cyan" stroke="black" points="604.04,-226.54 604.04,-241.46 585.6,-252 559.5,-252 541.06,-241.46 541.06,-226.54 559.5,-216 585.6,-216 604.04,-226.54"/>
<text text-anchor="middle" x="572.55" y="-231.8" font-family="Times,serif" font-size="9.00">Sequence</text>
</g>
<!-- Fallback&#45;&gt;Sequence -->
<g id="edge1" class="edge">
<title>Fallback&#45;&gt;Sequence</title>
<path fill="none" stroke="black" d="M936.01,-299.74C866.82,-287.41 694.09,-256.65 614.24,-242.43"/>
<polygon fill="black" stroke="black" points="614.52,-238.92 604.06,-240.61 613.3,-245.81 614.52,-238.92"/>
</g>
<!-- 2 at pos (0.016, &#45;0.032, 0.0)? -->
<g id="node13" class="node">
<title>2 at pos (0.016, &#45;0.032, 0.0)?</title>
<ellipse fill="gray" stroke="black" cx="838.55" cy="-234" rx="69.06" ry="18"/>
<text text-anchor="middle" x="838.55" y="-231.8" font-family="Times,serif" font-size="9.00">2 at pos (0.016, &#45;0.032, 0.0)?</text>
</g>
<!-- Fallback&#45;&gt;2 at pos (0.016, &#45;0.032, 0.0)? -->
<g id="edge12" class="edge">
<title>Fallback&#45;&gt;2 at pos (0.016, &#45;0.032, 0.0)?</title>
<path fill="none" stroke="black" d="M944.58,-293.44C925.88,-283.13 898.07,-267.81 875.63,-255.44"/>
<polygon fill="black" stroke="black" points="877.14,-252.27 866.69,-250.51 873.76,-258.4 877.14,-252.27"/>
</g>
<!-- Sequence*** -->
<g id="node14" class="node">
<title>Sequence***</title>
<polygon fill="cyan" stroke="black" points="1005.54,-226.54 1005.54,-241.46 982.11,-252 948.99,-252 925.56,-241.46 925.56,-226.54 948.99,-216 982.11,-216 1005.54,-226.54"/>
<text text-anchor="middle" x="965.55" y="-231.8" font-family="Times,serif" font-size="9.00">Sequence***</text>
</g>
<!-- Fallback&#45;&gt;Sequence*** -->
<g id="edge13" class="edge">
<title>Fallback&#45;&gt;Sequence***</title>
<path fill="none" stroke="black" d="M965.55,-287.7C965.55,-279.98 965.55,-270.71 965.55,-262.11"/>
<polygon fill="black" stroke="black" points="969.05,-262.1 965.55,-252.1 962.05,-262.1 969.05,-262.1"/>
</g>
<!-- Sequence***** -->
<g id="node24" class="node">
<title>Sequence*****</title>
<polygon fill="cyan" stroke="black" points="1120.29,-226.54 1120.29,-241.46 1093.5,-252 1055.6,-252 1028.81,-241.46 1028.81,-226.54 1055.6,-216 1093.5,-216 1120.29,-226.54"/>
<text text-anchor="middle" x="1074.55" y="-231.8" font-family="Times,serif" font-size="9.00">Sequence*****</text>
</g>
<!-- Fallback&#45;&gt;Sequence***** -->
<g id="edge23" class="edge">
<title>Fallback&#45;&gt;Sequence*****</title>
<path fill="none" stroke="black" d="M985.04,-292.49C1000.9,-282.3 1023.61,-267.71 1042.19,-255.78"/>
<polygon fill="black" stroke="black" points="1044.14,-258.69 1050.67,-250.34 1040.36,-252.8 1044.14,-258.69"/>
</g>
<!-- pick 3!**** -->
<g id="node35" class="node">
<title>pick 3!****</title>
<ellipse fill="gray" stroke="black" cx="1172.55" cy="-234" rx="34.13" ry="18"/>
<text text-anchor="middle" x="1172.55" y="-231.8" font-family="Times,serif" font-size="9.00">pick 3!****</text>
</g>
<!-- Fallback&#45;&gt;pick 3!**** -->
<g id="edge34" class="edge">
<title>Fallback&#45;&gt;pick 3!****</title>
<path fill="none" stroke="black" d="M992.43,-296.89C1025.06,-286.92 1081.67,-269.18 1129.55,-252 1131.93,-251.15 1134.38,-250.24 1136.83,-249.32"/>
<polygon fill="black" stroke="black" points="1138.19,-252.55 1146.27,-245.7 1135.68,-246.01 1138.19,-252.55"/>
</g>
<!-- Fallback* -->
<g id="node3" class="node">
<title>Fallback*</title>
<polygon fill="cyan" stroke="black" points="387.29,-154.54 387.29,-169.46 368.7,-180 342.4,-180 323.81,-169.46 323.81,-154.54 342.4,-144 368.7,-144 387.29,-154.54"/>
<text text-anchor="middle" x="355.55" y="-159.8" font-family="Times,serif" font-size="9.00">Fallback*</text>
</g>
<!-- Sequence&#45;&gt;Fallback* -->
<g id="edge2" class="edge">
<title>Sequence&#45;&gt;Fallback*</title>
<path fill="none" stroke="black" d="M545.07,-224.13C506.45,-211.68 436.01,-188.96 392.74,-175"/>
<polygon fill="black" stroke="black" points="393.74,-171.64 383.15,-171.9 391.59,-178.3 393.74,-171.64"/>
</g>
<!-- place at (0.0, 0.0, 0.0)! -->
<g id="node12" class="node">
<title>place at (0.0, 0.0, 0.0)!</title>
<ellipse fill="gray" stroke="black" cx="572.55" cy="-162" rx="56.01" ry="18"/>
<text text-anchor="middle" x="572.55" y="-159.8" font-family="Times,serif" font-size="9.00">place at (0.0, 0.0, 0.0)!</text>
</g>
<!-- Sequence&#45;&gt;place at (0.0, 0.0, 0.0)! -->
<g id="edge11" class="edge">
<title>Sequence&#45;&gt;place at (0.0, 0.0, 0.0)!</title>
<path fill="none" stroke="black" d="M572.55,-215.7C572.55,-207.98 572.55,-198.71 572.55,-190.11"/>
<polygon fill="black" stroke="black" points="576.05,-190.1 572.55,-180.1 569.05,-190.1 576.05,-190.1"/>
</g>
<!-- Sequence* -->
<g id="node4" class="node">
<title>Sequence*</title>
<polygon fill="cyan" stroke="black" points="157.79,-82.54 157.79,-97.46 137.73,-108 109.37,-108 89.31,-97.46 89.31,-82.54 109.37,-72 137.73,-72 157.79,-82.54"/>
<text text-anchor="middle" x="123.55" y="-87.8" font-family="Times,serif" font-size="9.00">Sequence*</text>
</g>
<!-- Fallback*&#45;&gt;Sequence* -->
<g id="edge3" class="edge">
<title>Fallback*&#45;&gt;Sequence*</title>
<path fill="none" stroke="black" d="M325.33,-153.42C287.96,-143.82 222.56,-126.34 167.55,-108 164.94,-107.13 162.27,-106.2 159.58,-105.23"/>
<polygon fill="black" stroke="black" points="160.52,-101.85 149.93,-101.65 158.09,-108.41 160.52,-101.85"/>
</g>
<!-- place at (0.016, 0.032, 0.0)! -->
<g id="node7" class="node">
<title>place at (0.016, 0.032, 0.0)!</title>
<ellipse fill="gray" stroke="black" cx="242.55" cy="-90" rx="66.29" ry="18"/>
<text text-anchor="middle" x="242.55" y="-87.8" font-family="Times,serif" font-size="9.00">place at (0.016, 0.032, 0.0)!</text>
</g>
<!-- Fallback*&#45;&gt;place at (0.016, 0.032, 0.0)! -->
<g id="edge6" class="edge">
<title>Fallback*&#45;&gt;place at (0.016, 0.032, 0.0)!</title>
<path fill="none" stroke="black" d="M334.82,-148.16C318.54,-138.08 295.53,-123.82 276.56,-112.07"/>
<polygon fill="black" stroke="black" points="278.24,-108.99 267.89,-106.7 274.55,-114.94 278.24,-108.99"/>
</g>
<!-- picked 2? -->
<g id="node8" class="node">
<title>picked 2?</title>
<ellipse fill="gray" stroke="black" cx="355.55" cy="-90" rx="28.74" ry="18"/>
<text text-anchor="middle" x="355.55" y="-87.8" font-family="Times,serif" font-size="9.00">picked 2?</text>
</g>
<!-- Fallback*&#45;&gt;picked 2? -->
<g id="edge7" class="edge">
<title>Fallback*&#45;&gt;picked 2?</title>
<path fill="none" stroke="black" d="M355.55,-143.7C355.55,-135.98 355.55,-126.71 355.55,-118.11"/>
<polygon fill="black" stroke="black" points="359.05,-118.1 355.55,-108.1 352.05,-118.1 359.05,-118.1"/>
</g>
<!-- Sequence** -->
<g id="node9" class="node">
<title>Sequence**</title>
<polygon fill="cyan" stroke="black" points="476.29,-82.54 476.29,-97.46 454.77,-108 424.33,-108 402.81,-97.46 402.81,-82.54 424.33,-72 454.77,-72 476.29,-82.54"/>
<text text-anchor="middle" x="439.55" y="-87.8" font-family="Times,serif" font-size="9.00">Sequence**</text>
</g>
<!-- Fallback*&#45;&gt;Sequence** -->
<g id="edge8" class="edge">
<title>Fallback*&#45;&gt;Sequence**</title>
<path fill="none" stroke="black" d="M373.36,-146.15C384.93,-136.52 400.21,-123.79 413.17,-112.98"/>
<polygon fill="black" stroke="black" points="415.45,-115.64 420.89,-106.55 410.97,-110.26 415.45,-115.64"/>
</g>
<!-- 3 at pos (0.016, 0.032, 0.0)? -->
<g id="node5" class="node">
<title>3 at pos (0.016, 0.032, 0.0)?</title>
<ellipse fill="gray" stroke="black" cx="67.55" cy="-18" rx="67.6" ry="18"/>
<text text-anchor="middle" x="67.55" y="-15.8" font-family="Times,serif" font-size="9.00">3 at pos (0.016, 0.032, 0.0)?</text>
</g>
<!-- Sequence*&#45;&gt;3 at pos (0.016, 0.032, 0.0)? -->
<g id="edge4" class="edge">
<title>Sequence*&#45;&gt;3 at pos (0.016, 0.032, 0.0)?</title>
<path fill="none" stroke="black" d="M109.71,-71.7C103.06,-63.39 94.97,-53.28 87.66,-44.14"/>
<polygon fill="black" stroke="black" points="90.21,-41.73 81.23,-36.1 84.75,-46.1 90.21,-41.73"/>
</g>
<!-- pick 0! -->
<g id="node6" class="node">
<title>pick 0!</title>
<ellipse fill="gray" stroke="black" cx="180.55" cy="-18" rx="27" ry="18"/>
<text text-anchor="middle" x="180.55" y="-15.8" font-family="Times,serif" font-size="9.00">pick 0!</text>
</g>
<!-- Sequence*&#45;&gt;pick 0! -->
<g id="edge5" class="edge">
<title>Sequence*&#45;&gt;pick 0!</title>
<path fill="none" stroke="black" d="M137.64,-71.7C144.88,-62.8 153.81,-51.84 161.64,-42.22"/>
<polygon fill="black" stroke="black" points="164.57,-44.17 168.17,-34.2 159.14,-39.75 164.57,-44.17"/>
</g>
<!-- place on 0! -->
<g id="node10" class="node">
<title>place on 0!</title>
<ellipse fill="gray" stroke="black" cx="362.55" cy="-18" rx="32.16" ry="18"/>
<text text-anchor="middle" x="362.55" y="-15.8" font-family="Times,serif" font-size="9.00">place on 0!</text>
</g>
<!-- Sequence**&#45;&gt;place on 0! -->
<g id="edge9" class="edge">
<title>Sequence**&#45;&gt;place on 0!</title>
<path fill="none" stroke="black" d="M421.69,-72.76C411.15,-63.18 397.68,-50.94 386.26,-40.55"/>
<polygon fill="black" stroke="black" points="388.49,-37.85 378.74,-33.72 383.78,-43.03 388.49,-37.85"/>
</g>
<!-- pick 3! -->
<g id="node11" class="node">
<title>pick 3!</title>
<ellipse fill="gray" stroke="black" cx="439.55" cy="-18" rx="27" ry="18"/>
<text text-anchor="middle" x="439.55" y="-15.8" font-family="Times,serif" font-size="9.00">pick 3!</text>
</g>
<!-- Sequence**&#45;&gt;pick 3! -->
<g id="edge10" class="edge">
<title>Sequence**&#45;&gt;pick 3!</title>
<path fill="none" stroke="black" d="M439.55,-71.7C439.55,-63.98 439.55,-54.71 439.55,-46.11"/>
<polygon fill="black" stroke="black" points="443.05,-46.1 439.55,-36.1 436.05,-46.1 443.05,-46.1"/>
</g>
<!-- Fallback** -->
<g id="node15" class="node">
<title>Fallback**</title>
<polygon fill="cyan" stroke="black" points="857.54,-154.54 857.54,-169.46 837.04,-180 808.06,-180 787.56,-169.46 787.56,-154.54 808.06,-144 837.04,-144 857.54,-154.54"/>
<text text-anchor="middle" x="822.55" y="-159.8" font-family="Times,serif" font-size="9.00">Fallback**</text>
</g>
<!-- Sequence***&#45;&gt;Fallback** -->
<g id="edge14" class="edge">
<title>Sequence***&#45;&gt;Fallback**</title>
<path fill="none" stroke="black" d="M939.32,-220.16C916.01,-208.75 881.8,-192 856.43,-179.58"/>
<polygon fill="black" stroke="black" points="857.7,-176.31 847.18,-175.06 854.62,-182.6 857.7,-176.31"/>
</g>
<!-- place at (0.0, 0.0, 0.0)!* -->
<g id="node23" class="node">
<title>place at (0.0, 0.0, 0.0)!*</title>
<ellipse fill="gray" stroke="black" cx="965.55" cy="-162" rx="58.13" ry="18"/>
<text text-anchor="middle" x="965.55" y="-159.8" font-family="Times,serif" font-size="9.00">place at (0.0, 0.0, 0.0)!*</text>
</g>
<!-- Sequence***&#45;&gt;place at (0.0, 0.0, 0.0)!* -->
<g id="edge22" class="edge">
<title>Sequence***&#45;&gt;place at (0.0, 0.0, 0.0)!*</title>
<path fill="none" stroke="black" d="M965.55,-215.7C965.55,-207.98 965.55,-198.71 965.55,-190.11"/>
<polygon fill="black" stroke="black" points="969.05,-190.1 965.55,-180.1 962.05,-190.1 969.05,-190.1"/>
</g>
<!-- Sequence**** -->
<g id="node16" class="node">
<title>Sequence****</title>
<polygon fill="cyan" stroke="black" points="597.04,-82.54 597.04,-97.46 572.15,-108 536.95,-108 512.06,-97.46 512.06,-82.54 536.95,-72 572.15,-72 597.04,-82.54"/>
<text text-anchor="middle" x="554.55" y="-87.8" font-family="Times,serif" font-size="9.00">Sequence****</text>
</g>
<!-- Fallback**&#45;&gt;Sequence**** -->
<g id="edge15" class="edge">
<title>Fallback**&#45;&gt;Sequence****</title>
<path fill="none" stroke="black" d="M788.87,-153.68C746.01,-144.15 669.83,-126.53 605.55,-108 602.46,-107.11 599.27,-106.15 596.07,-105.15"/>
<polygon fill="black" stroke="black" points="597.12,-101.81 586.53,-102.11 594.99,-108.48 597.12,-101.81"/>
</g>
<!-- 0 on 3? -->
<g id="node19" class="node">
<title>0 on 3?</title>
<ellipse fill="gray" stroke="black" cx="641.55" cy="-90" rx="27" ry="18"/>
<text text-anchor="middle" x="641.55" y="-87.8" font-family="Times,serif" font-size="9.00">0 on 3?</text>
</g>
<!-- Fallback**&#45;&gt;0 on 3? -->
<g id="edge18" class="edge">
<title>Fallback**&#45;&gt;0 on 3?</title>
<path fill="none" stroke="black" d="M793.64,-151.3C764.16,-141.21 717.24,-124.59 677.55,-108 675.73,-107.24 673.87,-106.44 672,-105.62"/>
<polygon fill="black" stroke="black" points="673.28,-102.35 662.73,-101.39 670.38,-108.72 673.28,-102.35"/>
</g>
<!-- place at (0.016, 0.032, 0.0)!* -->
<g id="node20" class="node">
<title>place at (0.016, 0.032, 0.0)!*</title>
<ellipse fill="gray" stroke="black" cx="755.55" cy="-90" rx="68.91" ry="18"/>
<text text-anchor="middle" x="755.55" y="-87.8" font-family="Times,serif" font-size="9.00">place at (0.016, 0.032, 0.0)!*</text>
</g>
<!-- Fallback**&#45;&gt;place at (0.016, 0.032, 0.0)!* -->
<g id="edge19" class="edge">
<title>Fallback**&#45;&gt;place at (0.016, 0.032, 0.0)!*</title>
<path fill="none" stroke="black" d="M806.67,-144.41C798.37,-135.73 788.04,-124.95 778.85,-115.34"/>
<polygon fill="black" stroke="black" points="781.22,-112.76 771.78,-107.96 776.17,-117.6 781.22,-112.76"/>
</g>
<!-- place on 1! -->
<g id="node21" class="node">
<title>place on 1!</title>
<ellipse fill="gray" stroke="black" cx="874.55" cy="-90" rx="32.16" ry="18"/>
<text text-anchor="middle" x="874.55" y="-87.8" font-family="Times,serif" font-size="9.00">place on 1!</text>
</g>
<!-- Fallback**&#45;&gt;place on 1! -->
<g id="edge20" class="edge">
<title>Fallback**&#45;&gt;place on 1!</title>
<path fill="none" stroke="black" d="M835.4,-143.7C841.76,-135.14 849.54,-124.67 856.48,-115.33"/>
<polygon fill="black" stroke="black" points="859.4,-117.26 862.56,-107.14 853.78,-113.08 859.4,-117.26"/>
</g>
<!-- pick 3!* -->
<g id="node22" class="node">
<title>pick 3!*</title>
<ellipse fill="gray" stroke="black" cx="951.55" cy="-90" rx="27" ry="18"/>
<text text-anchor="middle" x="951.55" y="-87.8" font-family="Times,serif" font-size="9.00">pick 3!*</text>
</g>
<!-- Fallback**&#45;&gt;pick 3!* -->
<g id="edge21" class="edge">
<title>Fallback**&#45;&gt;pick 3!*</title>
<path fill="none" stroke="black" d="M845.91,-148.32C867.35,-136.69 899.2,-119.41 922.32,-106.86"/>
<polygon fill="black" stroke="black" points="924.21,-109.82 931.33,-101.97 920.87,-103.66 924.21,-109.82"/>
</g>
<!-- 3 at pos (0.016, 0.032, 0.0)?* -->
<g id="node17" class="node">
<title>3 at pos (0.016, 0.032, 0.0)?*</title>
<ellipse fill="gray" stroke="black" cx="554.55" cy="-18" rx="70.37" ry="18"/>
<text text-anchor="middle" x="554.55" y="-15.8" font-family="Times,serif" font-size="9.00">3 at pos (0.016, 0.032, 0.0)?*</text>
</g>
<!-- Sequence****&#45;&gt;3 at pos (0.016, 0.032, 0.0)?* -->
<g id="edge16" class="edge">
<title>Sequence****&#45;&gt;3 at pos (0.016, 0.032, 0.0)?*</title>
<path fill="none" stroke="black" d="M554.55,-71.7C554.55,-63.98 554.55,-54.71 554.55,-46.11"/>
<polygon fill="black" stroke="black" points="558.05,-46.1 554.55,-36.1 551.05,-46.1 558.05,-46.1"/>
</g>
<!-- pick 0!* -->
<g id="node18" class="node">
<title>pick 0!*</title>
<ellipse fill="gray" stroke="black" cx="669.55" cy="-18" rx="27" ry="18"/>
<text text-anchor="middle" x="669.55" y="-15.8" font-family="Times,serif" font-size="9.00">pick 0!*</text>
</g>
<!-- Sequence****&#45;&gt;pick 0!* -->
<g id="edge17" class="edge">
<title>Sequence****&#45;&gt;pick 0!*</title>
<path fill="none" stroke="black" d="M578.38,-74.5C596.78,-63.3 622.28,-47.77 641.64,-35.99"/>
<polygon fill="black" stroke="black" points="643.6,-38.89 650.32,-30.7 639.96,-32.91 643.6,-38.89"/>
</g>
<!-- Fallback*** -->
<g id="node25" class="node">
<title>Fallback***</title>
<polygon fill="cyan" stroke="black" points="1133.04,-154.54 1133.04,-169.46 1111.08,-180 1080.02,-180 1058.06,-169.46 1058.06,-154.54 1080.02,-144 1111.08,-144 1133.04,-154.54"/>
<text text-anchor="middle" x="1095.55" y="-159.8" font-family="Times,serif" font-size="9.00">Fallback***</text>
</g>
<!-- Sequence*****&#45;&gt;Fallback*** -->
<g id="edge24" class="edge">
<title>Sequence*****&#45;&gt;Fallback***</title>
<path fill="none" stroke="black" d="M1079.74,-215.7C1082.08,-207.9 1084.9,-198.51 1087.5,-189.83"/>
<polygon fill="black" stroke="black" points="1090.9,-190.69 1090.42,-180.1 1084.19,-188.68 1090.9,-190.69"/>
</g>
<!-- place at (0.0, 0.0, 0.0)!** -->
<g id="node34" class="node">
<title>place at (0.0, 0.0, 0.0)!**</title>
<ellipse fill="gray" stroke="black" cx="1212.55" cy="-162" rx="61.4" ry="18"/>
<text text-anchor="middle" x="1212.55" y="-159.8" font-family="Times,serif" font-size="9.00">place at (0.0, 0.0, 0.0)!**</text>
</g>
<!-- Sequence*****&#45;&gt;place at (0.0, 0.0, 0.0)!** -->
<g id="edge33" class="edge">
<title>Sequence*****&#45;&gt;place at (0.0, 0.0, 0.0)!**</title>
<path fill="none" stroke="black" d="M1101.81,-219.17C1122.39,-208.73 1150.89,-194.28 1173.83,-182.64"/>
<polygon fill="black" stroke="black" points="1175.62,-185.66 1182.95,-178.01 1172.45,-179.42 1175.62,-185.66"/>
</g>
<!-- Sequence****** -->
<g id="node26" class="node">
<title>Sequence******</title>
<polygon fill="cyan" stroke="black" points="1092.79,-82.54 1092.79,-97.46 1064.53,-108 1024.57,-108 996.31,-97.46 996.31,-82.54 1024.57,-72 1064.53,-72 1092.79,-82.54"/>
<text text-anchor="middle" x="1044.55" y="-87.8" font-family="Times,serif" font-size="9.00">Sequence******</text>
</g>
<!-- Fallback***&#45;&gt;Sequence****** -->
<g id="edge25" class="edge">
<title>Fallback***&#45;&gt;Sequence******</title>
<path fill="none" stroke="black" d="M1082.94,-143.7C1076.95,-135.47 1069.67,-125.48 1063.07,-116.42"/>
<polygon fill="black" stroke="black" points="1065.73,-114.13 1057.01,-108.1 1060.07,-118.25 1065.73,-114.13"/>
</g>
<!-- place at (0.016, 0.032, 0.0)!** -->
<g id="node29" class="node">
<title>place at (0.016, 0.032, 0.0)!**</title>
<ellipse fill="gray" stroke="black" cx="1182.55" cy="-90" rx="71.68" ry="18"/>
<text text-anchor="middle" x="1182.55" y="-87.8" font-family="Times,serif" font-size="9.00">place at (0.016, 0.032, 0.0)!**</text>
</g>
<!-- Fallback***&#45;&gt;place at (0.016, 0.032, 0.0)!** -->
<g id="edge28" class="edge">
<title>Fallback***&#45;&gt;place at (0.016, 0.032, 0.0)!**</title>
<path fill="none" stroke="black" d="M1114.86,-145.46C1126.36,-136.21 1141.16,-124.3 1153.99,-113.98"/>
<polygon fill="black" stroke="black" points="1156.49,-116.46 1162.08,-107.47 1152.1,-111.01 1156.49,-116.46"/>
</g>
<!-- pick 3!** -->
<g id="node30" class="node">
<title>pick 3!**</title>
<ellipse fill="gray" stroke="black" cx="1300.55" cy="-90" rx="28.74" ry="18"/>
<text text-anchor="middle" x="1300.55" y="-87.8" font-family="Times,serif" font-size="9.00">pick 3!**</text>
</g>
<!-- Fallback***&#45;&gt;pick 3!** -->
<g id="edge29" class="edge">
<title>Fallback***&#45;&gt;pick 3!**</title>
<path fill="none" stroke="black" d="M1124.29,-150.31C1130.3,-148.15 1136.62,-145.95 1142.55,-144 1195.84,-126.45 1211.04,-127.76 1263.55,-108 1265.39,-107.31 1267.26,-106.57 1269.14,-105.8"/>
<polygon fill="black" stroke="black" points="1270.67,-108.95 1278.46,-101.77 1267.89,-102.52 1270.67,-108.95"/>
</g>
<!-- Sequence******* -->
<g id="node31" class="node">
<title>Sequence*******</title>
<polygon fill="cyan" stroke="black" points="1450.04,-82.54 1450.04,-97.46 1419.88,-108 1377.22,-108 1347.06,-97.46 1347.06,-82.54 1377.22,-72 1419.88,-72 1450.04,-82.54"/>
<text text-anchor="middle" x="1398.55" y="-87.8" font-family="Times,serif" font-size="9.00">Sequence*******</text>
</g>
<!-- Fallback***&#45;&gt;Sequence******* -->
<g id="edge30" class="edge">
<title>Fallback***&#45;&gt;Sequence*******</title>
<path fill="none" stroke="black" d="M1123.64,-149.98C1129.81,-147.81 1136.35,-145.68 1142.55,-144 1228.04,-120.86 1252.29,-128.09 1338.55,-108 1342.58,-107.06 1346.75,-106.02 1350.92,-104.94"/>
<polygon fill="black" stroke="black" points="1351.85,-108.31 1360.6,-102.34 1350.04,-101.55 1351.85,-108.31"/>
</g>
<!-- 3 at pos (0.016, 0.032, 0.0)?** -->
<g id="node27" class="node">
<title>3 at pos (0.016, 0.032, 0.0)?**</title>
<ellipse fill="gray" stroke="black" cx="984.55" cy="-18" rx="72.99" ry="18"/>
<text text-anchor="middle" x="984.55" y="-15.8" font-family="Times,serif" font-size="9.00">3 at pos (0.016, 0.032, 0.0)?**</text>
</g>
<!-- Sequence******&#45;&gt;3 at pos (0.016, 0.032, 0.0)?** -->
<g id="edge26" class="edge">
<title>Sequence******&#45;&gt;3 at pos (0.016, 0.032, 0.0)?**</title>
<path fill="none" stroke="black" d="M1029.72,-71.7C1022.53,-63.3 1013.75,-53.07 1005.86,-43.86"/>
<polygon fill="black" stroke="black" points="1008.38,-41.42 999.21,-36.1 1003.06,-45.97 1008.38,-41.42"/>
</g>
<!-- pick 0!** -->
<g id="node28" class="node">
<title>pick 0!**</title>
<ellipse fill="gray" stroke="black" cx="1104.55" cy="-18" rx="28.74" ry="18"/>
<text text-anchor="middle" x="1104.55" y="-15.8" font-family="Times,serif" font-size="9.00">pick 0!**</text>
</g>
<!-- Sequence******&#45;&gt;pick 0!** -->
<g id="edge27" class="edge">
<title>Sequence******&#45;&gt;pick 0!**</title>
<path fill="none" stroke="black" d="M1059.38,-71.7C1067.08,-62.71 1076.59,-51.62 1084.89,-41.93"/>
<polygon fill="black" stroke="black" points="1087.67,-44.07 1091.52,-34.2 1082.35,-39.52 1087.67,-44.07"/>
</g>
<!-- pick 3!*** -->
<g id="node32" class="node">
<title>pick 3!***</title>
<ellipse fill="gray" stroke="black" cx="1357.55" cy="-18" rx="31.51" ry="18"/>
<text text-anchor="middle" x="1357.55" y="-15.8" font-family="Times,serif" font-size="9.00">pick 3!***</text>
</g>
<!-- Sequence*******&#45;&gt;pick 3!*** -->
<g id="edge31" class="edge">
<title>Sequence*******&#45;&gt;pick 3!***</title>
<path fill="none" stroke="black" d="M1388.42,-71.7C1383.58,-63.44 1377.7,-53.39 1372.37,-44.3"/>
<polygon fill="black" stroke="black" points="1375.36,-42.48 1367.29,-35.62 1369.32,-46.02 1375.36,-42.48"/>
</g>
<!-- pick 0!*** -->
<g id="node33" class="node">
<title>pick 0!***</title>
<ellipse fill="gray" stroke="black" cx="1439.55" cy="-18" rx="31.51" ry="18"/>
<text text-anchor="middle" x="1439.55" y="-15.8" font-family="Times,serif" font-size="9.00">pick 0!***</text>
</g>
<!-- Sequence*******&#45;&gt;pick 0!*** -->
<g id="edge32" class="edge">
<title>Sequence*******&#45;&gt;pick 0!***</title>
<path fill="none" stroke="black" d="M1408.68,-71.7C1413.52,-63.44 1419.4,-53.39 1424.73,-44.3"/>
<polygon fill="black" stroke="black" points="1427.78,-46.02 1429.81,-35.62 1421.74,-42.48 1427.78,-46.02"/>
</g>
</g>
</svg>
