<?xml version="1.0" encoding="UTF-8" standalone="no"?>
<!DOCTYPE svg PUBLIC "-//W3C//DTD SVG 1.1//EN"
 "http://www.w3.org/Graphics/SVG/1.1/DTD/svg11.dtd">
<!-- Generated by graphviz version 2.43.0 (0)
 -->
<!-- Title: pastafarianism Pages: 1 -->
<svg width="1171pt" height="476pt"
 viewBox="0.00 0.00 1171.19 476.00" xmlns="http://www.w3.org/2000/svg" xmlns:xlink="http://www.w3.org/1999/xlink">
<g id="graph0" class="graph" transform="scale(1 1) rotate(0) translate(4 472)">
<title>pastafarianism</title>
<polygon fill="white" stroke="transparent" points="-4,4 -4,-472 1167.19,-472 1167.19,4 -4,4"/>
<!-- Fallback -->
<g id="node1" class="node">
<title>Fallback</title>
<polygon fill="cyan" stroke="black" points="897.48,-442.54 897.48,-457.46 880.35,-468 856.13,-468 839,-457.46 839,-442.54 856.13,-432 880.35,-432 897.48,-442.54"/>
<text text-anchor="middle" x="868.24" y="-447.8" font-family="Times,serif" font-size="9.00">Fallback</text>
</g>
<!-- Sequence -->
<g id="node2" class="node">
<title>Sequence</title>
<polygon fill="cyan" stroke="black" points="899.73,-370.54 899.73,-385.46 881.29,-396 855.2,-396 836.75,-385.46 836.75,-370.54 855.2,-360 881.29,-360 899.73,-370.54"/>
<text text-anchor="middle" x="868.24" y="-375.8" font-family="Times,serif" font-size="9.00">Sequence</text>
</g>
<!-- Fallback&#45;&gt;Sequence -->
<g id="edge1" class="edge">
<title>Fallback&#45;&gt;Sequence</title>
<path fill="none" stroke="black" d="M868.24,-431.7C868.24,-423.98 868.24,-414.71 868.24,-406.11"/>
<polygon fill="black" stroke="black" points="871.74,-406.1 868.24,-396.1 864.74,-406.1 871.74,-406.1"/>
</g>
<!-- Fallback* -->
<g id="node3" class="node">
<title>Fallback*</title>
<polygon fill="cyan" stroke="black" points="846.98,-298.54 846.98,-313.46 828.39,-324 802.09,-324 783.5,-313.46 783.5,-298.54 802.09,-288 828.39,-288 846.98,-298.54"/>
<text text-anchor="middle" x="815.24" y="-303.8" font-family="Times,serif" font-size="9.00">Fallback*</text>
</g>
<!-- Sequence&#45;&gt;Fallback* -->
<g id="edge2" class="edge">
<title>Sequence&#45;&gt;Fallback*</title>
<path fill="none" stroke="black" d="M855.14,-359.7C848.85,-351.39 841.19,-341.28 834.28,-332.14"/>
<polygon fill="black" stroke="black" points="837.02,-329.96 828.19,-324.1 831.44,-334.19 837.02,-329.96"/>
</g>
<!-- place at (0.0, 0.0, 0.0)! -->
<g id="node26" class="node">
<title>place at (0.0, 0.0, 0.0)!</title>
<ellipse fill="gray" stroke="black" cx="921.24" cy="-306" rx="56.01" ry="18"/>
<text text-anchor="middle" x="921.24" y="-303.8" font-family="Times,serif" font-size="9.00">place at (0.0, 0.0, 0.0)!</text>
</g>
<!-- Sequence&#45;&gt;place at (0.0, 0.0, 0.0)! -->
<g id="edge25" class="edge">
<title>Sequence&#45;&gt;place at (0.0, 0.0, 0.0)!</title>
<path fill="none" stroke="black" d="M881.34,-359.7C887.73,-351.27 895.52,-340.97 902.51,-331.73"/>
<polygon fill="black" stroke="black" points="905.41,-333.71 908.66,-323.62 899.83,-329.48 905.41,-333.71"/>
</g>
<!-- Sequence* -->
<g id="node4" class="node">
<title>Sequence*</title>
<polygon fill="cyan" stroke="black" points="725.48,-226.54 725.48,-241.46 705.42,-252 677.06,-252 657,-241.46 657,-226.54 677.06,-216 705.42,-216 725.48,-226.54"/>
<text text-anchor="middle" x="691.24" y="-231.8" font-family="Times,serif" font-size="9.00">Sequence*</text>
</g>
<!-- Fallback*&#45;&gt;Sequence* -->
<g id="edge3" class="edge">
<title>Fallback*&#45;&gt;Sequence*</title>
<path fill="none" stroke="black" d="M793.36,-292.65C773.77,-281.59 744.82,-265.24 722.74,-252.78"/>
<polygon fill="black" stroke="black" points="724.17,-249.57 713.74,-247.7 720.73,-255.67 724.17,-249.57"/>
</g>
<!-- place at (0.016, 0.032, 0.0)!** -->
<g id="node24" class="node">
<title>place at (0.016, 0.032, 0.0)!**</title>
<ellipse fill="gray" stroke="black" cx="815.24" cy="-234" rx="71.68" ry="18"/>
<text text-anchor="middle" x="815.24" y="-231.8" font-family="Times,serif" font-size="9.00">place at (0.016, 0.032, 0.0)!**</text>
</g>
<!-- Fallback*&#45;&gt;place at (0.016, 0.032, 0.0)!** -->
<g id="edge23" class="edge">
<title>Fallback*&#45;&gt;place at (0.016, 0.032, 0.0)!**</title>
<path fill="none" stroke="black" d="M815.24,-287.7C815.24,-279.98 815.24,-270.71 815.24,-262.11"/>
<polygon fill="black" stroke="black" points="818.74,-262.1 815.24,-252.1 811.74,-262.1 818.74,-262.1"/>
</g>
<!-- pick 3!** -->
<g id="node25" class="node">
<title>pick 3!**</title>
<ellipse fill="gray" stroke="black" cx="933.24" cy="-234" rx="28.74" ry="18"/>
<text text-anchor="middle" x="933.24" y="-231.8" font-family="Times,serif" font-size="9.00">pick 3!**</text>
</g>
<!-- Fallback*&#45;&gt;pick 3!** -->
<g id="edge24" class="edge">
<title>Fallback*&#45;&gt;pick 3!**</title>
<path fill="none" stroke="black" d="M836.34,-292.49C855.28,-281.25 883.26,-264.65 904.29,-252.18"/>
<polygon fill="black" stroke="black" points="906.3,-255.05 913.11,-246.94 902.73,-249.03 906.3,-255.05"/>
</g>
<!-- Fallback** -->
<g id="node5" class="node">
<title>Fallback**</title>
<polygon fill="cyan" stroke="black" points="452.23,-154.54 452.23,-169.46 431.73,-180 402.75,-180 382.25,-169.46 382.25,-154.54 402.75,-144 431.73,-144 452.23,-154.54"/>
<text text-anchor="middle" x="417.24" y="-159.8" font-family="Times,serif" font-size="9.00">Fallback**</text>
</g>
<!-- Sequence*&#45;&gt;Fallback** -->
<g id="edge4" class="edge">
<title>Sequence*&#45;&gt;Fallback**</title>
<path fill="none" stroke="black" d="M659.81,-224.97C610.32,-212.33 514.19,-187.77 458.96,-173.66"/>
<polygon fill="black" stroke="black" points="459.7,-170.24 449.15,-171.15 457.97,-177.02 459.7,-170.24"/>
</g>
<!-- 3 at pos (0.016, 0.032, 0.0)?* -->
<g id="node14" class="node">
<title>3 at pos (0.016, 0.032, 0.0)?*</title>
<ellipse fill="gray" stroke="black" cx="631.24" cy="-162" rx="70.37" ry="18"/>
<text text-anchor="middle" x="631.24" y="-159.8" font-family="Times,serif" font-size="9.00">3 at pos (0.016, 0.032, 0.0)?*</text>
</g>
<!-- Sequence*&#45;&gt;3 at pos (0.016, 0.032, 0.0)?* -->
<g id="edge13" class="edge">
<title>Sequence*&#45;&gt;3 at pos (0.016, 0.032, 0.0)?*</title>
<path fill="none" stroke="black" d="M676.72,-216.05C669.35,-207.46 660.26,-196.86 652.15,-187.4"/>
<polygon fill="black" stroke="black" points="654.8,-185.1 645.63,-179.79 649.48,-189.66 654.8,-185.1"/>
</g>
<!-- pick 0!*** -->
<g id="node15" class="node">
<title>pick 0!***</title>
<ellipse fill="gray" stroke="black" cx="751.24" cy="-162" rx="31.51" ry="18"/>
<text text-anchor="middle" x="751.24" y="-159.8" font-family="Times,serif" font-size="9.00">pick 0!***</text>
</g>
<!-- Sequence*&#45;&gt;pick 0!*** -->
<g id="edge14" class="edge">
<title>Sequence*&#45;&gt;pick 0!***</title>
<path fill="none" stroke="black" d="M705.76,-216.05C713.35,-207.2 722.76,-196.23 731.04,-186.57"/>
<polygon fill="black" stroke="black" points="733.82,-188.7 737.67,-178.83 728.51,-184.14 733.82,-188.7"/>
</g>
<!-- Fallback*** -->
<g id="node16" class="node">
<title>Fallback***</title>
<polygon fill="cyan" stroke="black" points="903.73,-154.54 903.73,-169.46 881.77,-180 850.71,-180 828.75,-169.46 828.75,-154.54 850.71,-144 881.77,-144 903.73,-154.54"/>
<text text-anchor="middle" x="866.24" y="-159.8" font-family="Times,serif" font-size="9.00">Fallback***</text>
</g>
<!-- Sequence*&#45;&gt;Fallback*** -->
<g id="edge15" class="edge">
<title>Sequence*&#45;&gt;Fallback***</title>
<path fill="none" stroke="black" d="M717.82,-222.37C747.41,-210.53 795.45,-191.32 828.83,-177.97"/>
<polygon fill="black" stroke="black" points="830.27,-181.16 838.25,-174.2 827.67,-174.66 830.27,-181.16"/>
</g>
<!-- 1 at pos (0.0, 0.0, 0.0192)? -->
<g id="node6" class="node">
<title>1 at pos (0.0, 0.0, 0.0192)?</title>
<ellipse fill="gray" stroke="black" cx="65.24" cy="-90" rx="65.48" ry="18"/>
<text text-anchor="middle" x="65.24" y="-87.8" font-family="Times,serif" font-size="9.00">1 at pos (0.0, 0.0, 0.0192)?</text>
</g>
<!-- Fallback**&#45;&gt;1 at pos (0.0, 0.0, 0.0192)? -->
<g id="edge5" class="edge">
<title>Fallback**&#45;&gt;1 at pos (0.0, 0.0, 0.0192)?</title>
<path fill="none" stroke="black" d="M382.05,-154.73C329.21,-145.21 226.27,-126.29 139.24,-108 134,-106.9 128.56,-105.72 123.11,-104.51"/>
<polygon fill="black" stroke="black" points="123.87,-101.1 113.35,-102.33 122.34,-107.93 123.87,-101.1"/>
</g>
<!-- Sequence** -->
<g id="node7" class="node">
<title>Sequence**</title>
<polygon fill="cyan" stroke="black" points="221.98,-82.54 221.98,-97.46 200.46,-108 170.02,-108 148.5,-97.46 148.5,-82.54 170.02,-72 200.46,-72 221.98,-82.54"/>
<text text-anchor="middle" x="185.24" y="-87.8" font-family="Times,serif" font-size="9.00">Sequence**</text>
</g>
<!-- Fallback**&#45;&gt;Sequence** -->
<g id="edge6" class="edge">
<title>Fallback**&#45;&gt;Sequence**</title>
<path fill="none" stroke="black" d="M385.42,-152.73C348.21,-142.87 284.86,-125.52 231.24,-108 228.51,-107.11 225.7,-106.15 222.88,-105.17"/>
<polygon fill="black" stroke="black" points="223.94,-101.84 213.34,-101.77 221.58,-108.43 223.94,-101.84"/>
</g>
<!-- place at (0.016, 0.032, 0.0)! -->
<g id="node10" class="node">
<title>place at (0.016, 0.032, 0.0)!</title>
<ellipse fill="gray" stroke="black" cx="306.24" cy="-90" rx="66.29" ry="18"/>
<text text-anchor="middle" x="306.24" y="-87.8" font-family="Times,serif" font-size="9.00">place at (0.016, 0.032, 0.0)!</text>
</g>
<!-- Fallback**&#45;&gt;place at (0.016, 0.032, 0.0)! -->
<g id="edge9" class="edge">
<title>Fallback**&#45;&gt;place at (0.016, 0.032, 0.0)!</title>
<path fill="none" stroke="black" d="M395.84,-147.5C380.03,-137.53 358.19,-123.76 340.04,-112.31"/>
<polygon fill="black" stroke="black" points="341.79,-109.28 331.46,-106.91 338.05,-115.2 341.79,-109.28"/>
</g>
<!-- pick 3! -->
<g id="node11" class="node">
<title>pick 3!</title>
<ellipse fill="gray" stroke="black" cx="417.24" cy="-90" rx="27" ry="18"/>
<text text-anchor="middle" x="417.24" y="-87.8" font-family="Times,serif" font-size="9.00">pick 3!</text>
</g>
<!-- Fallback**&#45;&gt;pick 3! -->
<g id="edge10" class="edge">
<title>Fallback**&#45;&gt;pick 3!</title>
<path fill="none" stroke="black" d="M417.24,-143.7C417.24,-135.98 417.24,-126.71 417.24,-118.11"/>
<polygon fill="black" stroke="black" points="420.74,-118.1 417.24,-108.1 413.74,-118.1 420.74,-118.1"/>
</g>
<!-- pick 0!* -->
<g id="node12" class="node">
<title>pick 0!*</title>
<ellipse fill="gray" stroke="black" cx="489.24" cy="-90" rx="27" ry="18"/>
<text text-anchor="middle" x="489.24" y="-87.8" font-family="Times,serif" font-size="9.00">pick 0!*</text>
</g>
<!-- Fallback**&#45;&gt;pick 0!* -->
<g id="edge11" class="edge">
<title>Fallback**&#45;&gt;pick 0!*</title>
<path fill="none" stroke="black" d="M433.94,-144.76C443.83,-135.14 456.49,-122.84 467.2,-112.43"/>
<polygon fill="black" stroke="black" points="469.85,-114.73 474.58,-105.25 464.97,-109.71 469.85,-114.73"/>
</g>
<!-- pick 0!** -->
<g id="node13" class="node">
<title>pick 0!**</title>
<ellipse fill="gray" stroke="black" cx="563.24" cy="-90" rx="28.74" ry="18"/>
<text text-anchor="middle" x="563.24" y="-87.8" font-family="Times,serif" font-size="9.00">pick 0!**</text>
</g>
<!-- Fallback**&#45;&gt;pick 0!** -->
<g id="edge12" class="edge">
<title>Fallback**&#45;&gt;pick 0!**</title>
<path fill="none" stroke="black" d="M442.01,-149.13C466.64,-137.31 504.54,-119.14 531.4,-106.26"/>
<polygon fill="black" stroke="black" points="533.25,-109.26 540.75,-101.78 530.22,-102.95 533.25,-109.26"/>
</g>
<!-- 3 at pos (0.016, 0.032, 0.0)? -->
<g id="node8" class="node">
<title>3 at pos (0.016, 0.032, 0.0)?</title>
<ellipse fill="gray" stroke="black" cx="129.24" cy="-18" rx="67.6" ry="18"/>
<text text-anchor="middle" x="129.24" y="-15.8" font-family="Times,serif" font-size="9.00">3 at pos (0.016, 0.032, 0.0)?</text>
</g>
<!-- Sequence**&#45;&gt;3 at pos (0.016, 0.032, 0.0)? -->
<g id="edge7" class="edge">
<title>Sequence**&#45;&gt;3 at pos (0.016, 0.032, 0.0)?</title>
<path fill="none" stroke="black" d="M171.4,-71.7C164.75,-63.39 156.66,-53.28 149.35,-44.14"/>
<polygon fill="black" stroke="black" points="151.9,-41.73 142.92,-36.1 146.44,-46.1 151.9,-41.73"/>
</g>
<!-- pick 0! -->
<g id="node9" class="node">
<title>pick 0!</title>
<ellipse fill="gray" stroke="black" cx="242.24" cy="-18" rx="27" ry="18"/>
<text text-anchor="middle" x="242.24" y="-15.8" font-family="Times,serif" font-size="9.00">pick 0!</text>
</g>
<!-- Sequence**&#45;&gt;pick 0! -->
<g id="edge8" class="edge">
<title>Sequence**&#45;&gt;pick 0!</title>
<path fill="none" stroke="black" d="M199.33,-71.7C206.57,-62.8 215.5,-51.84 223.33,-42.22"/>
<polygon fill="black" stroke="black" points="226.26,-44.17 229.86,-34.2 220.83,-39.75 226.26,-44.17"/>
</g>
<!-- 1 at pos (0.0, 0.0, 0.0192)?* -->
<g id="node17" class="node">
<title>1 at pos (0.0, 0.0, 0.0192)?*</title>
<ellipse fill="gray" stroke="black" cx="677.24" cy="-90" rx="67.6" ry="18"/>
<text text-anchor="middle" x="677.24" y="-87.8" font-family="Times,serif" font-size="9.00">1 at pos (0.0, 0.0, 0.0192)?*</text>
</g>
<!-- Fallback***&#45;&gt;1 at pos (0.0, 0.0, 0.0192)?* -->
<g id="edge16" class="edge">
<title>Fallback***&#45;&gt;1 at pos (0.0, 0.0, 0.0192)?*</title>
<path fill="none" stroke="black" d="M837.12,-150.22C807.21,-139.14 760.17,-121.71 724.84,-108.63"/>
<polygon fill="black" stroke="black" points="725.8,-105.25 715.21,-105.06 723.37,-111.82 725.8,-105.25"/>
</g>
<!-- Sequence*** -->
<g id="node18" class="node">
<title>Sequence***</title>
<polygon fill="cyan" stroke="black" points="843.23,-82.54 843.23,-97.46 819.8,-108 786.68,-108 763.25,-97.46 763.25,-82.54 786.68,-72 819.8,-72 843.23,-82.54"/>
<text text-anchor="middle" x="803.24" y="-87.8" font-family="Times,serif" font-size="9.00">Sequence***</text>
</g>
<!-- Fallback***&#45;&gt;Sequence*** -->
<g id="edge17" class="edge">
<title>Fallback***&#45;&gt;Sequence***</title>
<path fill="none" stroke="black" d="M850.67,-143.7C843.04,-135.22 833.72,-124.86 825.36,-115.58"/>
<polygon fill="black" stroke="black" points="827.93,-113.2 818.63,-108.1 822.72,-117.88 827.93,-113.2"/>
</g>
<!-- place at (0.016, 0.032, 0.0)!* -->
<g id="node21" class="node">
<title>place at (0.016, 0.032, 0.0)!*</title>
<ellipse fill="gray" stroke="black" cx="930.24" cy="-90" rx="68.91" ry="18"/>
<text text-anchor="middle" x="930.24" y="-87.8" font-family="Times,serif" font-size="9.00">place at (0.016, 0.032, 0.0)!*</text>
</g>
<!-- Fallback***&#45;&gt;place at (0.016, 0.032, 0.0)!* -->
<g id="edge20" class="edge">
<title>Fallback***&#45;&gt;place at (0.016, 0.032, 0.0)!*</title>
<path fill="none" stroke="black" d="M882.06,-143.7C889.93,-135.09 899.56,-124.55 908.14,-115.17"/>
<polygon fill="black" stroke="black" points="910.88,-117.36 915.04,-107.62 905.71,-112.64 910.88,-117.36"/>
</g>
<!-- pick 3!* -->
<g id="node22" class="node">
<title>pick 3!*</title>
<ellipse fill="gray" stroke="black" cx="1044.24" cy="-90" rx="27" ry="18"/>
<text text-anchor="middle" x="1044.24" y="-87.8" font-family="Times,serif" font-size="9.00">pick 3!*</text>
</g>
<!-- Fallback***&#45;&gt;pick 3!* -->
<g id="edge21" class="edge">
<title>Fallback***&#45;&gt;pick 3!*</title>
<path fill="none" stroke="black" d="M895.9,-150.75C924.82,-140.56 969.93,-124.16 1008.24,-108 1010.06,-107.23 1011.91,-106.43 1013.78,-105.6"/>
<polygon fill="black" stroke="black" points="1015.41,-108.7 1023.05,-101.37 1012.5,-102.34 1015.41,-108.7"/>
</g>
<!-- pick 0!***** -->
<g id="node23" class="node">
<title>pick 0!*****</title>
<ellipse fill="gray" stroke="black" cx="1126.24" cy="-90" rx="36.9" ry="18"/>
<text text-anchor="middle" x="1126.24" y="-87.8" font-family="Times,serif" font-size="9.00">pick 0!*****</text>
</g>
<!-- Fallback***&#45;&gt;pick 0!***** -->
<g id="edge22" class="edge">
<title>Fallback***&#45;&gt;pick 0!*****</title>
<path fill="none" stroke="black" d="M901.79,-153.47C944.52,-144.12 1018.23,-127.07 1080.24,-108 1082.99,-107.16 1085.81,-106.24 1088.64,-105.28"/>
<polygon fill="black" stroke="black" points="1089.91,-108.54 1098.19,-101.93 1087.6,-101.94 1089.91,-108.54"/>
</g>
<!-- 3 at pos (0.016, 0.032, 0.0)?** -->
<g id="node19" class="node">
<title>3 at pos (0.016, 0.032, 0.0)?**</title>
<ellipse fill="gray" stroke="black" cx="740.24" cy="-18" rx="72.99" ry="18"/>
<text text-anchor="middle" x="740.24" y="-15.8" font-family="Times,serif" font-size="9.00">3 at pos (0.016, 0.032, 0.0)?**</text>
</g>
<!-- Sequence***&#45;&gt;3 at pos (0.016, 0.032, 0.0)?** -->
<g id="edge18" class="edge">
<title>Sequence***&#45;&gt;3 at pos (0.016, 0.032, 0.0)?**</title>
<path fill="none" stroke="black" d="M787.67,-71.7C779.92,-63.09 770.44,-52.55 761.99,-43.17"/>
<polygon fill="black" stroke="black" points="764.49,-40.71 755.2,-35.62 759.29,-45.4 764.49,-40.71"/>
</g>
<!-- pick 0!**** -->
<g id="node20" class="node">
<title>pick 0!****</title>
<ellipse fill="gray" stroke="black" cx="865.24" cy="-18" rx="34.13" ry="18"/>
<text text-anchor="middle" x="865.24" y="-15.8" font-family="Times,serif" font-size="9.00">pick 0!****</text>
</g>
<!-- Sequence***&#45;&gt;pick 0!**** -->
<g id="edge19" class="edge">
<title>Sequence***&#45;&gt;pick 0!****</title>
<path fill="none" stroke="black" d="M818.57,-71.7C826.41,-62.84 836.07,-51.93 844.57,-42.34"/>
<polygon fill="black" stroke="black" points="847.35,-44.48 851.36,-34.67 842.11,-39.84 847.35,-44.48"/>
</g>
</g>
</svg>
