<?xml version="1.0" encoding="UTF-8" standalone="no"?>
<!DOCTYPE svg PUBLIC "-//W3C//DTD SVG 1.1//EN"
 "http://www.w3.org/Graphics/SVG/1.1/DTD/svg11.dtd">
<!-- Generated by graphviz version 2.43.0 (0)
 -->
<!-- Title: pastafarianism Pages: 1 -->
<svg width="652pt" height="476pt"
 viewBox="0.00 0.00 652.24 476.00" xmlns="http://www.w3.org/2000/svg" xmlns:xlink="http://www.w3.org/1999/xlink">
<g id="graph0" class="graph" transform="scale(1 1) rotate(0) translate(4 472)">
<title>pastafarianism</title>
<polygon fill="white" stroke="transparent" points="-4,4 -4,-472 648.24,-472 648.24,4 -4,4"/>
<!-- Fallback -->
<g id="node1" class="node">
<title>Fallback</title>
<polygon fill="cyan" stroke="black" points="567.48,-442.54 567.48,-457.46 550.35,-468 526.13,-468 509,-457.46 509,-442.54 526.13,-432 550.35,-432 567.48,-442.54"/>
<text text-anchor="middle" x="538.24" y="-447.8" font-family="Times,serif" font-size="9.00">Fallback</text>
</g>
<!-- Sequence -->
<g id="node2" class="node">
<title>Sequence</title>
<polygon fill="cyan" stroke="black" points="486.73,-370.54 486.73,-385.46 468.29,-396 442.2,-396 423.75,-385.46 423.75,-370.54 442.2,-360 468.29,-360 486.73,-370.54"/>
<text text-anchor="middle" x="455.24" y="-375.8" font-family="Times,serif" font-size="9.00">Sequence</text>
</g>
<!-- Fallback&#45;&gt;Sequence -->
<g id="edge1" class="edge">
<title>Fallback&#45;&gt;Sequence</title>
<path fill="none" stroke="black" d="M521.44,-434.83C509.68,-424.91 493.74,-411.47 480.45,-400.26"/>
<polygon fill="black" stroke="black" points="482.48,-397.4 472.58,-393.63 477.97,-402.75 482.48,-397.4"/>
</g>
<!-- pick 0!**** -->
<g id="node19" class="node">
<title>pick 0!****</title>
<ellipse fill="gray" stroke="black" cx="538.24" cy="-378" rx="34.13" ry="18"/>
<text text-anchor="middle" x="538.24" y="-375.8" font-family="Times,serif" font-size="9.00">pick 0!****</text>
</g>
<!-- Fallback&#45;&gt;pick 0!**** -->
<g id="edge18" class="edge">
<title>Fallback&#45;&gt;pick 0!****</title>
<path fill="none" stroke="black" d="M538.24,-431.7C538.24,-423.98 538.24,-414.71 538.24,-406.11"/>
<polygon fill="black" stroke="black" points="541.74,-406.1 538.24,-396.1 534.74,-406.1 541.74,-406.1"/>
</g>
<!-- 1 on 3? -->
<g id="node20" class="node">
<title>1 on 3?</title>
<ellipse fill="gray" stroke="black" cx="617.24" cy="-378" rx="27" ry="18"/>
<text text-anchor="middle" x="617.24" y="-375.8" font-family="Times,serif" font-size="9.00">1 on 3?</text>
</g>
<!-- Fallback&#45;&gt;1 on 3? -->
<g id="edge19" class="edge">
<title>Fallback&#45;&gt;1 on 3?</title>
<path fill="none" stroke="black" d="M554.61,-434.5C566.06,-424.35 581.52,-410.65 594.21,-399.4"/>
<polygon fill="black" stroke="black" points="596.54,-402.02 601.7,-392.77 591.89,-396.78 596.54,-402.02"/>
</g>
<!-- Fallback* -->
<g id="node3" class="node">
<title>Fallback*</title>
<polygon fill="cyan" stroke="black" points="433.98,-298.54 433.98,-313.46 415.39,-324 389.09,-324 370.5,-313.46 370.5,-298.54 389.09,-288 415.39,-288 433.98,-298.54"/>
<text text-anchor="middle" x="402.24" y="-303.8" font-family="Times,serif" font-size="9.00">Fallback*</text>
</g>
<!-- Sequence&#45;&gt;Fallback* -->
<g id="edge2" class="edge">
<title>Sequence&#45;&gt;Fallback*</title>
<path fill="none" stroke="black" d="M442.14,-359.7C435.85,-351.39 428.19,-341.28 421.28,-332.14"/>
<polygon fill="black" stroke="black" points="424.02,-329.96 415.19,-324.1 418.44,-334.19 424.02,-329.96"/>
</g>
<!-- place at (0.0, 0.0, 0.0)! -->
<g id="node18" class="node">
<title>place at (0.0, 0.0, 0.0)!</title>
<ellipse fill="gray" stroke="black" cx="508.24" cy="-306" rx="56.01" ry="18"/>
<text text-anchor="middle" x="508.24" y="-303.8" font-family="Times,serif" font-size="9.00">place at (0.0, 0.0, 0.0)!</text>
</g>
<!-- Sequence&#45;&gt;place at (0.0, 0.0, 0.0)! -->
<g id="edge17" class="edge">
<title>Sequence&#45;&gt;place at (0.0, 0.0, 0.0)!</title>
<path fill="none" stroke="black" d="M468.34,-359.7C474.73,-351.27 482.52,-340.97 489.51,-331.73"/>
<polygon fill="black" stroke="black" points="492.41,-333.71 495.66,-323.62 486.83,-329.48 492.41,-333.71"/>
</g>
<!-- Sequence* -->
<g id="node4" class="node">
<title>Sequence*</title>
<polygon fill="cyan" stroke="black" points="315.48,-226.54 315.48,-241.46 295.42,-252 267.06,-252 247,-241.46 247,-226.54 267.06,-216 295.42,-216 315.48,-226.54"/>
<text text-anchor="middle" x="281.24" y="-231.8" font-family="Times,serif" font-size="9.00">Sequence*</text>
</g>
<!-- Fallback*&#45;&gt;Sequence* -->
<g id="edge3" class="edge">
<title>Fallback*&#45;&gt;Sequence*</title>
<path fill="none" stroke="black" d="M380.89,-292.65C361.89,-281.66 333.87,-265.45 312.38,-253.01"/>
<polygon fill="black" stroke="black" points="314.02,-249.92 303.61,-247.94 310.51,-255.98 314.02,-249.92"/>
</g>
<!-- place at (0.016, 0.032, 0.0)!* -->
<g id="node16" class="node">
<title>place at (0.016, 0.032, 0.0)!*</title>
<ellipse fill="gray" stroke="black" cx="402.24" cy="-234" rx="68.91" ry="18"/>
<text text-anchor="middle" x="402.24" y="-231.8" font-family="Times,serif" font-size="9.00">place at (0.016, 0.032, 0.0)!*</text>
</g>
<!-- Fallback*&#45;&gt;place at (0.016, 0.032, 0.0)!* -->
<g id="edge15" class="edge">
<title>Fallback*&#45;&gt;place at (0.016, 0.032, 0.0)!*</title>
<path fill="none" stroke="black" d="M402.24,-287.7C402.24,-279.98 402.24,-270.71 402.24,-262.11"/>
<polygon fill="black" stroke="black" points="405.74,-262.1 402.24,-252.1 398.74,-262.1 405.74,-262.1"/>
</g>
<!-- pick 3!* -->
<g id="node17" class="node">
<title>pick 3!*</title>
<ellipse fill="gray" stroke="black" cx="516.24" cy="-234" rx="27" ry="18"/>
<text text-anchor="middle" x="516.24" y="-231.8" font-family="Times,serif" font-size="9.00">pick 3!*</text>
</g>
<!-- Fallback*&#45;&gt;pick 3!* -->
<g id="edge16" class="edge">
<title>Fallback*&#45;&gt;pick 3!*</title>
<path fill="none" stroke="black" d="M423.15,-292.16C441.43,-280.93 468.13,-264.54 488.25,-252.18"/>
<polygon fill="black" stroke="black" points="490.29,-255.04 496.98,-246.83 486.63,-249.08 490.29,-255.04"/>
</g>
<!-- 3 at pos (0.016, 0.032, 0.0)? -->
<g id="node5" class="node">
<title>3 at pos (0.016, 0.032, 0.0)?</title>
<ellipse fill="gray" stroke="black" cx="168.24" cy="-162" rx="67.6" ry="18"/>
<text text-anchor="middle" x="168.24" y="-159.8" font-family="Times,serif" font-size="9.00">3 at pos (0.016, 0.032, 0.0)?</text>
</g>
<!-- Sequence*&#45;&gt;3 at pos (0.016, 0.032, 0.0)? -->
<g id="edge4" class="edge">
<title>Sequence*&#45;&gt;3 at pos (0.016, 0.032, 0.0)?</title>
<path fill="none" stroke="black" d="M259.72,-219.67C243.47,-209.6 220.85,-195.59 202.17,-184.02"/>
<polygon fill="black" stroke="black" points="203.98,-181.02 193.63,-178.73 200.29,-186.97 203.98,-181.02"/>
</g>
<!-- pick 0! -->
<g id="node6" class="node">
<title>pick 0!</title>
<ellipse fill="gray" stroke="black" cx="281.24" cy="-162" rx="27" ry="18"/>
<text text-anchor="middle" x="281.24" y="-159.8" font-family="Times,serif" font-size="9.00">pick 0!</text>
</g>
<!-- Sequence*&#45;&gt;pick 0! -->
<g id="edge5" class="edge">
<title>Sequence*&#45;&gt;pick 0!</title>
<path fill="none" stroke="black" d="M281.24,-215.7C281.24,-207.98 281.24,-198.71 281.24,-190.11"/>
<polygon fill="black" stroke="black" points="284.74,-190.1 281.24,-180.1 277.74,-190.1 284.74,-190.1"/>
</g>
<!-- Fallback** -->
<g id="node7" class="node">
<title>Fallback**</title>
<polygon fill="cyan" stroke="black" points="396.23,-154.54 396.23,-169.46 375.73,-180 346.75,-180 326.25,-169.46 326.25,-154.54 346.75,-144 375.73,-144 396.23,-154.54"/>
<text text-anchor="middle" x="361.24" y="-159.8" font-family="Times,serif" font-size="9.00">Fallback**</text>
</g>
<!-- Sequence*&#45;&gt;Fallback** -->
<g id="edge6" class="edge">
<title>Sequence*&#45;&gt;Fallback**</title>
<path fill="none" stroke="black" d="M299,-217.46C309.87,-207.95 323.96,-195.62 335.99,-185.1"/>
<polygon fill="black" stroke="black" points="338.31,-187.71 343.54,-178.49 333.71,-182.44 338.31,-187.71"/>
</g>
<!-- 1 at pos (0.0, 0.0, 0.0192)? -->
<g id="node8" class="node">
<title>1 at pos (0.0, 0.0, 0.0192)?</title>
<ellipse fill="gray" stroke="black" cx="65.24" cy="-90" rx="65.48" ry="18"/>
<text text-anchor="middle" x="65.24" y="-87.8" font-family="Times,serif" font-size="9.00">1 at pos (0.0, 0.0, 0.0192)?</text>
</g>
<!-- Fallback**&#45;&gt;1 at pos (0.0, 0.0, 0.0192)? -->
<g id="edge7" class="edge">
<title>Fallback**&#45;&gt;1 at pos (0.0, 0.0, 0.0192)?</title>
<path fill="none" stroke="black" d="M334.97,-150.02C329.19,-147.84 323.06,-145.7 317.24,-144 239.76,-121.37 218.13,-125.04 139.24,-108 134.01,-106.87 128.57,-105.67 123.13,-104.45"/>
<polygon fill="black" stroke="black" points="123.89,-101.04 113.36,-102.25 122.35,-107.86 123.89,-101.04"/>
</g>
<!-- Sequence** -->
<g id="node9" class="node">
<title>Sequence**</title>
<polygon fill="cyan" stroke="black" points="221.98,-82.54 221.98,-97.46 200.46,-108 170.02,-108 148.5,-97.46 148.5,-82.54 170.02,-72 200.46,-72 221.98,-82.54"/>
<text text-anchor="middle" x="185.24" y="-87.8" font-family="Times,serif" font-size="9.00">Sequence**</text>
</g>
<!-- Fallback**&#45;&gt;Sequence** -->
<g id="edge8" class="edge">
<title>Fallback**&#45;&gt;Sequence**</title>
<path fill="none" stroke="black" d="M334.13,-150.22C304.2,-138.31 255.85,-119.08 222.4,-105.78"/>
<polygon fill="black" stroke="black" points="223.55,-102.47 212.97,-102.03 220.97,-108.98 223.55,-102.47"/>
</g>
<!-- place at (0.016, 0.032, 0.0)! -->
<g id="node12" class="node">
<title>place at (0.016, 0.032, 0.0)!</title>
<ellipse fill="gray" stroke="black" cx="306.24" cy="-90" rx="66.29" ry="18"/>
<text text-anchor="middle" x="306.24" y="-87.8" font-family="Times,serif" font-size="9.00">place at (0.016, 0.032, 0.0)!</text>
</g>
<!-- Fallback**&#45;&gt;place at (0.016, 0.032, 0.0)! -->
<g id="edge11" class="edge">
<title>Fallback**&#45;&gt;place at (0.016, 0.032, 0.0)!</title>
<path fill="none" stroke="black" d="M347.65,-143.7C341.12,-135.39 333.17,-125.28 325.99,-116.14"/>
<polygon fill="black" stroke="black" points="328.61,-113.81 319.68,-108.1 323.11,-118.13 328.61,-113.81"/>
</g>
<!-- pick 3! -->
<g id="node13" class="node">
<title>pick 3!</title>
<ellipse fill="gray" stroke="black" cx="417.24" cy="-90" rx="27" ry="18"/>
<text text-anchor="middle" x="417.24" y="-87.8" font-family="Times,serif" font-size="9.00">pick 3!</text>
</g>
<!-- Fallback**&#45;&gt;pick 3! -->
<g id="edge12" class="edge">
<title>Fallback**&#45;&gt;pick 3!</title>
<path fill="none" stroke="black" d="M375.08,-143.7C382.2,-134.8 390.97,-123.84 398.66,-114.22"/>
<polygon fill="black" stroke="black" points="401.56,-116.2 405.08,-106.2 396.1,-111.82 401.56,-116.2"/>
</g>
<!-- pick 0!** -->
<g id="node14" class="node">
<title>pick 0!**</title>
<ellipse fill="gray" stroke="black" cx="491.24" cy="-90" rx="28.74" ry="18"/>
<text text-anchor="middle" x="491.24" y="-87.8" font-family="Times,serif" font-size="9.00">pick 0!**</text>
</g>
<!-- Fallback**&#45;&gt;pick 0!** -->
<g id="edge13" class="edge">
<title>Fallback**&#45;&gt;pick 0!**</title>
<path fill="none" stroke="black" d="M384.48,-148.49C405.79,-137.01 437.49,-119.94 460.81,-107.39"/>
<polygon fill="black" stroke="black" points="462.78,-110.3 469.92,-102.48 459.46,-104.14 462.78,-110.3"/>
</g>
<!-- pick 0!*** -->
<g id="node15" class="node">
<title>pick 0!***</title>
<ellipse fill="gray" stroke="black" cx="570.24" cy="-90" rx="31.51" ry="18"/>
<text text-anchor="middle" x="570.24" y="-87.8" font-family="Times,serif" font-size="9.00">pick 0!***</text>
</g>
<!-- Fallback**&#45;&gt;pick 0!*** -->
<g id="edge14" class="edge">
<title>Fallback**&#45;&gt;pick 0!***</title>
<path fill="none" stroke="black" d="M391.86,-152.22C425.74,-142.3 481.83,-125.27 529.24,-108 531.5,-107.18 533.82,-106.3 536.15,-105.4"/>
<polygon fill="black" stroke="black" points="537.67,-108.56 545.66,-101.6 535.08,-102.06 537.67,-108.56"/>
</g>
<!-- 3 at pos (0.016, 0.032, 0.0)?* -->
<g id="node10" class="node">
<title>3 at pos (0.016, 0.032, 0.0)?*</title>
<ellipse fill="gray" stroke="black" cx="127.24" cy="-18" rx="70.37" ry="18"/>
<text text-anchor="middle" x="127.24" y="-15.8" font-family="Times,serif" font-size="9.00">3 at pos (0.016, 0.032, 0.0)?*</text>
</g>
<!-- Sequence**&#45;&gt;3 at pos (0.016, 0.032, 0.0)?* -->
<g id="edge9" class="edge">
<title>Sequence**&#45;&gt;3 at pos (0.016, 0.032, 0.0)?*</title>
<path fill="none" stroke="black" d="M170.9,-71.7C163.95,-63.3 155.47,-53.07 147.84,-43.86"/>
<polygon fill="black" stroke="black" points="150.49,-41.57 141.41,-36.1 145.1,-46.04 150.49,-41.57"/>
</g>
<!-- pick 0!* -->
<g id="node11" class="node">
<title>pick 0!*</title>
<ellipse fill="gray" stroke="black" cx="242.24" cy="-18" rx="27" ry="18"/>
<text text-anchor="middle" x="242.24" y="-15.8" font-family="Times,serif" font-size="9.00">pick 0!*</text>
</g>
<!-- Sequence**&#45;&gt;pick 0!* -->
<g id="edge10" class="edge">
<title>Sequence**&#45;&gt;pick 0!*</title>
<path fill="none" stroke="black" d="M199.33,-71.7C206.57,-62.8 215.5,-51.84 223.33,-42.22"/>
<polygon fill="black" stroke="black" points="226.26,-44.17 229.86,-34.2 220.83,-39.75 226.26,-44.17"/>
</g>
</g>
</svg>
