<?xml version="1.0" encoding="UTF-8" standalone="no"?>
<!DOCTYPE svg PUBLIC "-//W3C//DTD SVG 1.1//EN"
 "http://www.w3.org/Graphics/SVG/1.1/DTD/svg11.dtd">
<!-- Generated by graphviz version 2.43.0 (0)
 -->
<!-- Title: pastafarianism Pages: 1 -->
<svg width="1081pt" height="404pt"
 viewBox="0.00 0.00 1081.20 404.00" xmlns="http://www.w3.org/2000/svg" xmlns:xlink="http://www.w3.org/1999/xlink">
<g id="graph0" class="graph" transform="scale(1 1) rotate(0) translate(4 400)">
<title>pastafarianism</title>
<polygon fill="white" stroke="transparent" points="-4,4 -4,-400 1077.2,-400 1077.2,4 -4,4"/>
<!-- Sequence -->
<g id="node1" class="node">
<title>Sequence</title>
<polygon fill="cyan" stroke="black" points="407.49,-370.54 407.49,-385.46 389.05,-396 362.95,-396 344.51,-385.46 344.51,-370.54 362.95,-360 389.05,-360 407.49,-370.54"/>
<text text-anchor="middle" x="376" y="-375.8" font-family="Times,serif" font-size="9.00">Sequence</text>
</g>
<!-- pick 0! -->
<g id="node2" class="node">
<title>pick 0!</title>
<ellipse fill="gray" stroke="black" cx="167" cy="-306" rx="27" ry="18"/>
<text text-anchor="middle" x="167" y="-303.8" font-family="Times,serif" font-size="9.00">pick 0!</text>
</g>
<!-- Sequence&#45;&gt;pick 0! -->
<g id="edge1" class="edge">
<title>Sequence&#45;&gt;pick 0!</title>
<path fill="none" stroke="black" d="M346.48,-369.35C311.69,-360.02 252.36,-343.1 203,-324 201.16,-323.29 199.29,-322.53 197.41,-321.73"/>
<polygon fill="black" stroke="black" points="198.66,-318.46 188.1,-317.58 195.81,-324.85 198.66,-318.46"/>
</g>
<!-- place at (0.0, 0.05, 0.0)! -->
<g id="node3" class="node">
<title>place at (0.0, 0.05, 0.0)!</title>
<ellipse fill="gray" stroke="black" cx="270" cy="-306" rx="58.13" ry="18"/>
<text text-anchor="middle" x="270" y="-303.8" font-family="Times,serif" font-size="9.00">place at (0.0, 0.05, 0.0)!</text>
</g>
<!-- Sequence&#45;&gt;place at (0.0, 0.05, 0.0)! -->
<g id="edge2" class="edge">
<title>Sequence&#45;&gt;place at (0.0, 0.05, 0.0)!</title>
<path fill="none" stroke="black" d="M356.06,-363.83C340.95,-353.85 319.85,-339.92 302.33,-328.35"/>
<polygon fill="black" stroke="black" points="303.82,-325.14 293.55,-322.55 299.97,-330.98 303.82,-325.14"/>
</g>
<!-- Fallback -->
<g id="node4" class="node">
<title>Fallback</title>
<polygon fill="cyan" stroke="black" points="405.24,-298.54 405.24,-313.46 388.11,-324 363.89,-324 346.76,-313.46 346.76,-298.54 363.89,-288 388.11,-288 405.24,-298.54"/>
<text text-anchor="middle" x="376" y="-303.8" font-family="Times,serif" font-size="9.00">Fallback</text>
</g>
<!-- Sequence&#45;&gt;Fallback -->
<g id="edge3" class="edge">
<title>Sequence&#45;&gt;Fallback</title>
<path fill="none" stroke="black" d="M376,-359.7C376,-351.98 376,-342.71 376,-334.11"/>
<polygon fill="black" stroke="black" points="379.5,-334.1 376,-324.1 372.5,-334.1 379.5,-334.1"/>
</g>
<!-- Fallback** -->
<g id="node17" class="node">
<title>Fallback**</title>
<polygon fill="cyan" stroke="black" points="512.99,-298.54 512.99,-313.46 492.49,-324 463.51,-324 443.01,-313.46 443.01,-298.54 463.51,-288 492.49,-288 512.99,-298.54"/>
<text text-anchor="middle" x="478" y="-303.8" font-family="Times,serif" font-size="9.00">Fallback**</text>
</g>
<!-- Sequence&#45;&gt;Fallback** -->
<g id="edge16" class="edge">
<title>Sequence&#45;&gt;Fallback**</title>
<path fill="none" stroke="black" d="M395.67,-363.5C410.75,-353.15 431.81,-338.7 448.85,-327"/>
<polygon fill="black" stroke="black" points="451.08,-329.72 457.34,-321.18 447.12,-323.95 451.08,-329.72"/>
</g>
<!-- apply force 2! -->
<g id="node27" class="node">
<title>apply force 2!</title>
<ellipse fill="gray" stroke="black" cx="569" cy="-306" rx="38.21" ry="18"/>
<text text-anchor="middle" x="569" y="-303.8" font-family="Times,serif" font-size="9.00">apply force 2!</text>
</g>
<!-- Sequence&#45;&gt;apply force 2! -->
<g id="edge26" class="edge">
<title>Sequence&#45;&gt;apply force 2!</title>
<path fill="none" stroke="black" d="M402.43,-367.41C435.41,-355.45 492.08,-334.9 530.04,-321.13"/>
<polygon fill="black" stroke="black" points="531.53,-324.31 539.74,-317.61 529.14,-317.73 531.53,-324.31"/>
</g>
<!-- 1 at pos (0.0, 0.05, 0.0192)? -->
<g id="node5" class="node">
<title>1 at pos (0.0, 0.05, 0.0192)?</title>
<ellipse fill="gray" stroke="black" cx="130" cy="-234" rx="67.6" ry="18"/>
<text text-anchor="middle" x="130" y="-231.8" font-family="Times,serif" font-size="9.00">1 at pos (0.0, 0.05, 0.0192)?</text>
</g>
<!-- Fallback&#45;&gt;1 at pos (0.0, 0.05, 0.0192)? -->
<g id="edge4" class="edge">
<title>Fallback&#45;&gt;1 at pos (0.0, 0.05, 0.0192)?</title>
<path fill="none" stroke="black" d="M353.14,-294.31C347.9,-292.06 342.31,-289.82 337,-288 309.86,-278.68 239.94,-261.27 188.85,-248.95"/>
<polygon fill="black" stroke="black" points="189.44,-245.5 178.9,-246.56 187.81,-252.3 189.44,-245.5"/>
</g>
<!-- Sequence* -->
<g id="node6" class="node">
<title>Sequence*</title>
<polygon fill="cyan" stroke="black" points="284.24,-226.54 284.24,-241.46 264.18,-252 235.82,-252 215.76,-241.46 215.76,-226.54 235.82,-216 264.18,-216 284.24,-226.54"/>
<text text-anchor="middle" x="250" y="-231.8" font-family="Times,serif" font-size="9.00">Sequence*</text>
</g>
<!-- Fallback&#45;&gt;Sequence* -->
<g id="edge5" class="edge">
<title>Fallback&#45;&gt;Sequence*</title>
<path fill="none" stroke="black" d="M354.91,-293.28C334.96,-282.2 304.75,-265.42 281.86,-252.7"/>
<polygon fill="black" stroke="black" points="283.31,-249.5 272.87,-247.7 279.91,-255.62 283.31,-249.5"/>
</g>
<!-- Sequence*** -->
<g id="node14" class="node">
<title>Sequence***</title>
<polygon fill="cyan" stroke="black" points="415.99,-226.54 415.99,-241.46 392.56,-252 359.44,-252 336.01,-241.46 336.01,-226.54 359.44,-216 392.56,-216 415.99,-226.54"/>
<text text-anchor="middle" x="376" y="-231.8" font-family="Times,serif" font-size="9.00">Sequence***</text>
</g>
<!-- Fallback&#45;&gt;Sequence*** -->
<g id="edge13" class="edge">
<title>Fallback&#45;&gt;Sequence***</title>
<path fill="none" stroke="black" d="M376,-287.7C376,-279.98 376,-270.71 376,-262.11"/>
<polygon fill="black" stroke="black" points="379.5,-262.1 376,-252.1 372.5,-262.1 379.5,-262.1"/>
</g>
<!-- Fallback* -->
<g id="node7" class="node">
<title>Fallback*</title>
<polygon fill="cyan" stroke="black" points="99.74,-154.54 99.74,-169.46 81.15,-180 54.85,-180 36.26,-169.46 36.26,-154.54 54.85,-144 81.15,-144 99.74,-154.54"/>
<text text-anchor="middle" x="68" y="-159.8" font-family="Times,serif" font-size="9.00">Fallback*</text>
</g>
<!-- Sequence*&#45;&gt;Fallback* -->
<g id="edge6" class="edge">
<title>Sequence*&#45;&gt;Fallback*</title>
<path fill="none" stroke="black" d="M223.2,-222.29C217.84,-220.18 212.25,-218 207,-216 163.64,-199.47 152.22,-196.89 109,-180 106.9,-179.18 104.75,-178.32 102.58,-177.45"/>
<polygon fill="black" stroke="black" points="103.67,-174.12 93.09,-173.59 101.03,-180.6 103.67,-174.12"/>
</g>
<!-- apply force 0! -->
<g id="node12" class="node">
<title>apply force 0!</title>
<ellipse fill="gray" stroke="black" cx="156" cy="-162" rx="38.21" ry="18"/>
<text text-anchor="middle" x="156" y="-159.8" font-family="Times,serif" font-size="9.00">apply force 0!</text>
</g>
<!-- Sequence*&#45;&gt;apply force 0! -->
<g id="edge11" class="edge">
<title>Sequence*&#45;&gt;apply force 0!</title>
<path fill="none" stroke="black" d="M230.52,-218.5C217.04,-208.45 198.88,-194.93 183.87,-183.75"/>
<polygon fill="black" stroke="black" points="185.56,-180.65 175.45,-177.49 181.38,-186.27 185.56,-180.65"/>
</g>
<!-- apply force 1! -->
<g id="node13" class="node">
<title>apply force 1!</title>
<ellipse fill="gray" stroke="black" cx="250" cy="-162" rx="38.21" ry="18"/>
<text text-anchor="middle" x="250" y="-159.8" font-family="Times,serif" font-size="9.00">apply force 1!</text>
</g>
<!-- Sequence*&#45;&gt;apply force 1! -->
<g id="edge12" class="edge">
<title>Sequence*&#45;&gt;apply force 1!</title>
<path fill="none" stroke="black" d="M250,-215.7C250,-207.98 250,-198.71 250,-190.11"/>
<polygon fill="black" stroke="black" points="253.5,-190.1 250,-180.1 246.5,-190.1 253.5,-190.1"/>
</g>
<!-- 1 on 0? -->
<g id="node8" class="node">
<title>1 on 0?</title>
<ellipse fill="gray" stroke="black" cx="27" cy="-90" rx="27" ry="18"/>
<text text-anchor="middle" x="27" y="-87.8" font-family="Times,serif" font-size="9.00">1 on 0?</text>
</g>
<!-- Fallback*&#45;&gt;1 on 0? -->
<g id="edge7" class="edge">
<title>Fallback*&#45;&gt;1 on 0?</title>
<path fill="none" stroke="black" d="M57.87,-143.7C52.96,-135.32 46.97,-125.1 41.58,-115.9"/>
<polygon fill="black" stroke="black" points="44.53,-114 36.46,-107.14 38.49,-117.54 44.53,-114"/>
</g>
<!-- Sequence** -->
<g id="node9" class="node">
<title>Sequence**</title>
<polygon fill="cyan" stroke="black" points="145.74,-82.54 145.74,-97.46 124.22,-108 93.78,-108 72.26,-97.46 72.26,-82.54 93.78,-72 124.22,-72 145.74,-82.54"/>
<text text-anchor="middle" x="109" y="-87.8" font-family="Times,serif" font-size="9.00">Sequence**</text>
</g>
<!-- Fallback*&#45;&gt;Sequence** -->
<g id="edge8" class="edge">
<title>Fallback*&#45;&gt;Sequence**</title>
<path fill="none" stroke="black" d="M78.13,-143.7C82.85,-135.64 88.56,-125.89 93.78,-116.98"/>
<polygon fill="black" stroke="black" points="96.95,-118.5 98.98,-108.1 90.91,-114.96 96.95,-118.5"/>
</g>
<!-- pick 1! -->
<g id="node10" class="node">
<title>pick 1!</title>
<ellipse fill="gray" stroke="black" cx="70" cy="-18" rx="27" ry="18"/>
<text text-anchor="middle" x="70" y="-15.8" font-family="Times,serif" font-size="9.00">pick 1!</text>
</g>
<!-- Sequence**&#45;&gt;pick 1! -->
<g id="edge9" class="edge">
<title>Sequence**&#45;&gt;pick 1!</title>
<path fill="none" stroke="black" d="M99.36,-71.7C94.69,-63.32 89,-53.1 83.87,-43.9"/>
<polygon fill="black" stroke="black" points="86.92,-42.18 78.99,-35.14 80.8,-45.58 86.92,-42.18"/>
</g>
<!-- place on 0! -->
<g id="node11" class="node">
<title>place on 0!</title>
<ellipse fill="gray" stroke="black" cx="147" cy="-18" rx="32.16" ry="18"/>
<text text-anchor="middle" x="147" y="-15.8" font-family="Times,serif" font-size="9.00">place on 0!</text>
</g>
<!-- Sequence**&#45;&gt;place on 0! -->
<g id="edge10" class="edge">
<title>Sequence**&#45;&gt;place on 0!</title>
<path fill="none" stroke="black" d="M118.39,-71.7C122.83,-63.52 128.22,-53.6 133.11,-44.58"/>
<polygon fill="black" stroke="black" points="136.28,-46.08 137.98,-35.62 130.13,-42.74 136.28,-46.08"/>
</g>
<!-- 1 on 0?* -->
<g id="node15" class="node">
<title>1 on 0?*</title>
<ellipse fill="gray" stroke="black" cx="333" cy="-162" rx="27.27" ry="18"/>
<text text-anchor="middle" x="333" y="-159.8" font-family="Times,serif" font-size="9.00">1 on 0?*</text>
</g>
<!-- Sequence***&#45;&gt;1 on 0?* -->
<g id="edge14" class="edge">
<title>Sequence***&#45;&gt;1 on 0?*</title>
<path fill="none" stroke="black" d="M365.37,-215.7C360.22,-207.32 353.95,-197.1 348.29,-187.9"/>
<polygon fill="black" stroke="black" points="351.13,-185.83 342.92,-179.14 345.17,-189.5 351.13,-185.83"/>
</g>
<!-- apply force 0!* -->
<g id="node16" class="node">
<title>apply force 0!*</title>
<ellipse fill="gray" stroke="black" cx="419" cy="-162" rx="40.98" ry="18"/>
<text text-anchor="middle" x="419" y="-159.8" font-family="Times,serif" font-size="9.00">apply force 0!*</text>
</g>
<!-- Sequence***&#45;&gt;apply force 0!* -->
<g id="edge15" class="edge">
<title>Sequence***&#45;&gt;apply force 0!*</title>
<path fill="none" stroke="black" d="M386.63,-215.7C391.7,-207.44 397.87,-197.39 403.46,-188.3"/>
<polygon fill="black" stroke="black" points="406.54,-189.98 408.79,-179.62 400.57,-186.31 406.54,-189.98"/>
</g>
<!-- 2 on 1? -->
<g id="node18" class="node">
<title>2 on 1?</title>
<ellipse fill="gray" stroke="black" cx="478" cy="-234" rx="27" ry="18"/>
<text text-anchor="middle" x="478" y="-231.8" font-family="Times,serif" font-size="9.00">2 on 1?</text>
</g>
<!-- Fallback**&#45;&gt;2 on 1? -->
<g id="edge17" class="edge">
<title>Fallback**&#45;&gt;2 on 1?</title>
<path fill="none" stroke="black" d="M478,-287.7C478,-279.98 478,-270.71 478,-262.11"/>
<polygon fill="black" stroke="black" points="481.5,-262.1 478,-252.1 474.5,-262.1 481.5,-262.1"/>
</g>
<!-- Sequence**** -->
<g id="node19" class="node">
<title>Sequence****</title>
<polygon fill="cyan" stroke="black" points="624.49,-226.54 624.49,-241.46 599.6,-252 564.4,-252 539.51,-241.46 539.51,-226.54 564.4,-216 599.6,-216 624.49,-226.54"/>
<text text-anchor="middle" x="582" y="-231.8" font-family="Times,serif" font-size="9.00">Sequence****</text>
</g>
<!-- Fallback**&#45;&gt;Sequence**** -->
<g id="edge18" class="edge">
<title>Fallback**&#45;&gt;Sequence****</title>
<path fill="none" stroke="black" d="M499.05,-290.83C514.01,-280.76 534.34,-267.08 551.13,-255.77"/>
<polygon fill="black" stroke="black" points="553.2,-258.6 559.55,-250.11 549.3,-252.79 553.2,-258.6"/>
</g>
<!-- Sequence***** -->
<g id="node24" class="node">
<title>Sequence*****</title>
<polygon fill="cyan" stroke="black" points="951.74,-226.54 951.74,-241.46 924.95,-252 887.05,-252 860.26,-241.46 860.26,-226.54 887.05,-216 924.95,-216 951.74,-226.54"/>
<text text-anchor="middle" x="906" y="-231.8" font-family="Times,serif" font-size="9.00">Sequence*****</text>
</g>
<!-- Fallback**&#45;&gt;Sequence***** -->
<g id="edge23" class="edge">
<title>Fallback**&#45;&gt;Sequence*****</title>
<path fill="none" stroke="black" d="M504.2,-293.74C509.98,-291.58 516.13,-289.52 522,-288 636.35,-258.45 774.38,-244.5 849.88,-238.66"/>
<polygon fill="black" stroke="black" points="850.41,-242.13 860.12,-237.89 849.88,-235.15 850.41,-242.13"/>
</g>
<!-- pick 2! -->
<g id="node20" class="node">
<title>pick 2!</title>
<ellipse fill="gray" stroke="black" cx="505" cy="-162" rx="27" ry="18"/>
<text text-anchor="middle" x="505" y="-159.8" font-family="Times,serif" font-size="9.00">pick 2!</text>
</g>
<!-- Sequence****&#45;&gt;pick 2! -->
<g id="edge19" class="edge">
<title>Sequence****&#45;&gt;pick 2!</title>
<path fill="none" stroke="black" d="M563.36,-216.05C552.66,-206.32 539.13,-194.03 527.8,-183.72"/>
<polygon fill="black" stroke="black" points="530.12,-181.1 520.36,-176.97 525.41,-186.28 530.12,-181.1"/>
</g>
<!-- place on 1! -->
<g id="node21" class="node">
<title>place on 1!</title>
<ellipse fill="gray" stroke="black" cx="582" cy="-162" rx="32.16" ry="18"/>
<text text-anchor="middle" x="582" y="-159.8" font-family="Times,serif" font-size="9.00">place on 1!</text>
</g>
<!-- Sequence****&#45;&gt;place on 1! -->
<g id="edge20" class="edge">
<title>Sequence****&#45;&gt;place on 1!</title>
<path fill="none" stroke="black" d="M582,-215.7C582,-207.98 582,-198.71 582,-190.11"/>
<polygon fill="black" stroke="black" points="585.5,-190.1 582,-180.1 578.5,-190.1 585.5,-190.1"/>
</g>
<!-- 1 at pos (0.0, 0.05, 0.0192)?* -->
<g id="node22" class="node">
<title>1 at pos (0.0, 0.05, 0.0192)?*</title>
<ellipse fill="gray" stroke="black" cx="703" cy="-162" rx="70.37" ry="18"/>
<text text-anchor="middle" x="703" y="-159.8" font-family="Times,serif" font-size="9.00">1 at pos (0.0, 0.05, 0.0192)?*</text>
</g>
<!-- Sequence****&#45;&gt;1 at pos (0.0, 0.05, 0.0192)?* -->
<g id="edge21" class="edge">
<title>Sequence****&#45;&gt;1 at pos (0.0, 0.05, 0.0192)?*</title>
<path fill="none" stroke="black" d="M606.49,-218.83C623.77,-208.83 647.23,-195.26 666.69,-184.01"/>
<polygon fill="black" stroke="black" points="668.69,-186.89 675.6,-178.85 665.19,-180.83 668.69,-186.89"/>
</g>
<!-- place on 0!* -->
<g id="node23" class="node">
<title>place on 0!*</title>
<ellipse fill="gray" stroke="black" cx="826" cy="-162" rx="34.78" ry="18"/>
<text text-anchor="middle" x="826" y="-159.8" font-family="Times,serif" font-size="9.00">place on 0!*</text>
</g>
<!-- Sequence****&#45;&gt;place on 0!* -->
<g id="edge22" class="edge">
<title>Sequence****&#45;&gt;place on 0!*</title>
<path fill="none" stroke="black" d="M619.59,-224.34C660.05,-214.72 726.14,-198.13 782,-180 784.61,-179.15 787.29,-178.23 789.98,-177.28"/>
<polygon fill="black" stroke="black" points="791.47,-180.46 799.64,-173.72 789.05,-173.89 791.47,-180.46"/>
</g>
<!-- pick 0!* -->
<g id="node25" class="node">
<title>pick 0!*</title>
<ellipse fill="gray" stroke="black" cx="906" cy="-162" rx="27" ry="18"/>
<text text-anchor="middle" x="906" y="-159.8" font-family="Times,serif" font-size="9.00">pick 0!*</text>
</g>
<!-- Sequence*****&#45;&gt;pick 0!* -->
<g id="edge24" class="edge">
<title>Sequence*****&#45;&gt;pick 0!*</title>
<path fill="none" stroke="black" d="M906,-215.7C906,-207.98 906,-198.71 906,-190.11"/>
<polygon fill="black" stroke="black" points="909.5,-190.1 906,-180.1 902.5,-190.1 909.5,-190.1"/>
</g>
<!-- place at (0.0, 0.05, 0.0)!* -->
<g id="node26" class="node">
<title>place at (0.0, 0.05, 0.0)!*</title>
<ellipse fill="gray" stroke="black" cx="1012" cy="-162" rx="61.4" ry="18"/>
<text text-anchor="middle" x="1012" y="-159.8" font-family="Times,serif" font-size="9.00">place at (0.0, 0.05, 0.0)!*</text>
</g>
<!-- Sequence*****&#45;&gt;place at (0.0, 0.05, 0.0)!* -->
<g id="edge25" class="edge">
<title>Sequence*****&#45;&gt;place at (0.0, 0.05, 0.0)!*</title>
<path fill="none" stroke="black" d="M929.26,-217.64C943.97,-207.93 963.19,-195.23 979.41,-184.52"/>
<polygon fill="black" stroke="black" points="981.64,-187.24 988.06,-178.81 977.78,-181.4 981.64,-187.24"/>
</g>
</g>
</svg>
