<?xml version="1.0" encoding="UTF-8" standalone="no"?>
<!DOCTYPE svg PUBLIC "-//W3C//DTD SVG 1.1//EN"
 "http://www.w3.org/Graphics/SVG/1.1/DTD/svg11.dtd">
<!-- Generated by graphviz version 2.43.0 (0)
 -->
<!-- Title: pastafarianism Pages: 1 -->
<svg width="1246pt" height="404pt"
 viewBox="0.00 0.00 1246.17 404.00" xmlns="http://www.w3.org/2000/svg" xmlns:xlink="http://www.w3.org/1999/xlink">
<g id="graph0" class="graph" transform="scale(1 1) rotate(0) translate(4 400)">
<title>pastafarianism</title>
<polygon fill="white" stroke="transparent" points="-4,4 -4,-400 1242.17,-400 1242.17,4 -4,4"/>
<!-- Fallback -->
<g id="node1" class="node">
<title>Fallback</title>
<polygon fill="cyan" stroke="black" points="885.11,-370.54 885.11,-385.46 867.98,-396 843.75,-396 826.62,-385.46 826.62,-370.54 843.75,-360 867.98,-360 885.11,-370.54"/>
<text text-anchor="middle" x="855.87" y="-375.8" font-family="Times,serif" font-size="9.00">Fallback</text>
</g>
<!-- Sequence -->
<g id="node2" class="node">
<title>Sequence</title>
<polygon fill="cyan" stroke="black" points="887.36,-298.54 887.36,-313.46 868.91,-324 842.82,-324 824.37,-313.46 824.37,-298.54 842.82,-288 868.91,-288 887.36,-298.54"/>
<text text-anchor="middle" x="855.87" y="-303.8" font-family="Times,serif" font-size="9.00">Sequence</text>
</g>
<!-- Fallback&#45;&gt;Sequence -->
<g id="edge1" class="edge">
<title>Fallback&#45;&gt;Sequence</title>
<path fill="none" stroke="black" d="M855.87,-359.7C855.87,-351.98 855.87,-342.71 855.87,-334.11"/>
<polygon fill="black" stroke="black" points="859.37,-334.1 855.87,-324.1 852.37,-334.1 859.37,-334.1"/>
</g>
<!-- Fallback* -->
<g id="node3" class="node">
<title>Fallback*</title>
<polygon fill="cyan" stroke="black" points="386.61,-226.54 386.61,-241.46 368.02,-252 341.72,-252 323.13,-241.46 323.13,-226.54 341.72,-216 368.02,-216 386.61,-226.54"/>
<text text-anchor="middle" x="354.87" y="-231.8" font-family="Times,serif" font-size="9.00">Fallback*</text>
</g>
<!-- Sequence&#45;&gt;Fallback* -->
<g id="edge2" class="edge">
<title>Sequence&#45;&gt;Fallback*</title>
<path fill="none" stroke="black" d="M824.53,-300.62C737.92,-288.52 495.27,-254.62 396.99,-240.89"/>
<polygon fill="black" stroke="black" points="397.23,-237.38 386.84,-239.47 396.26,-244.32 397.23,-237.38"/>
</g>
<!-- Fallback** -->
<g id="node14" class="node">
<title>Fallback**</title>
<polygon fill="cyan" stroke="black" points="803.86,-226.54 803.86,-241.46 783.36,-252 754.37,-252 733.88,-241.46 733.88,-226.54 754.37,-216 783.36,-216 803.86,-226.54"/>
<text text-anchor="middle" x="768.87" y="-231.8" font-family="Times,serif" font-size="9.00">Fallback**</text>
</g>
<!-- Sequence&#45;&gt;Fallback** -->
<g id="edge13" class="edge">
<title>Sequence&#45;&gt;Fallback**</title>
<path fill="none" stroke="black" d="M837.84,-290.5C825.64,-280.68 809.31,-267.54 795.61,-256.51"/>
<polygon fill="black" stroke="black" points="797.46,-253.51 787.47,-249.97 793.07,-258.96 797.46,-253.51"/>
</g>
<!-- Fallback**** -->
<g id="node22" class="node">
<title>Fallback****</title>
<polygon fill="cyan" stroke="black" points="944.61,-226.54 944.61,-241.46 920.74,-252 886.99,-252 863.13,-241.46 863.13,-226.54 886.99,-216 920.74,-216 944.61,-226.54"/>
<text text-anchor="middle" x="903.87" y="-231.8" font-family="Times,serif" font-size="9.00">Fallback****</text>
</g>
<!-- Sequence&#45;&gt;Fallback**** -->
<g id="edge21" class="edge">
<title>Sequence&#45;&gt;Fallback****</title>
<path fill="none" stroke="black" d="M867.73,-287.7C873.37,-279.47 880.22,-269.48 886.44,-260.42"/>
<polygon fill="black" stroke="black" points="889.37,-262.33 892.14,-252.1 883.6,-258.37 889.37,-262.33"/>
</g>
<!-- Fallback***** -->
<g id="node27" class="node">
<title>Fallback*****</title>
<polygon fill="cyan" stroke="black" points="1136.11,-226.54 1136.11,-241.46 1110.78,-252 1074.96,-252 1049.63,-241.46 1049.63,-226.54 1074.96,-216 1110.78,-216 1136.11,-226.54"/>
<text text-anchor="middle" x="1092.87" y="-231.8" font-family="Times,serif" font-size="9.00">Fallback*****</text>
</g>
<!-- Sequence&#45;&gt;Fallback***** -->
<g id="edge26" class="edge">
<title>Sequence&#45;&gt;Fallback*****</title>
<path fill="none" stroke="black" d="M884.46,-296.56C925.26,-284.5 1000.57,-262.26 1048.61,-248.07"/>
<polygon fill="black" stroke="black" points="1049.83,-251.36 1058.42,-245.17 1047.84,-244.65 1049.83,-251.36"/>
</g>
<!-- Sequence* -->
<g id="node4" class="node">
<title>Sequence*</title>
<polygon fill="cyan" stroke="black" points="147.11,-154.54 147.11,-169.46 127.05,-180 98.68,-180 78.63,-169.46 78.63,-154.54 98.68,-144 127.05,-144 147.11,-154.54"/>
<text text-anchor="middle" x="112.87" y="-159.8" font-family="Times,serif" font-size="9.00">Sequence*</text>
</g>
<!-- Fallback*&#45;&gt;Sequence* -->
<g id="edge3" class="edge">
<title>Fallback*&#45;&gt;Sequence*</title>
<path fill="none" stroke="black" d="M323.86,-225.92C284.43,-216.66 214.44,-199.31 155.87,-180 153.47,-179.21 151,-178.35 148.53,-177.46"/>
<polygon fill="black" stroke="black" points="149.66,-174.15 139.07,-173.92 147.21,-180.7 149.66,-174.15"/>
</g>
<!-- 2 on 1? -->
<g id="node7" class="node">
<title>2 on 1?</title>
<ellipse fill="gray" stroke="black" cx="191.87" cy="-162" rx="27" ry="18"/>
<text text-anchor="middle" x="191.87" y="-159.8" font-family="Times,serif" font-size="9.00">2 on 1?</text>
</g>
<!-- Fallback*&#45;&gt;2 on 1? -->
<g id="edge6" class="edge">
<title>Fallback*&#45;&gt;2 on 1?</title>
<path fill="none" stroke="black" d="M329.42,-222.78C303.68,-212.35 262.8,-195.53 227.87,-180 226.07,-179.2 224.22,-178.37 222.36,-177.52"/>
<polygon fill="black" stroke="black" points="223.66,-174.26 213.11,-173.23 220.71,-180.61 223.66,-174.26"/>
</g>
<!-- 0 at pos (0.0, 0.05, 0.0)? -->
<g id="node8" class="node">
<title>0 at pos (0.0, 0.05, 0.0)?</title>
<ellipse fill="gray" stroke="black" cx="296.87" cy="-162" rx="60.09" ry="18"/>
<text text-anchor="middle" x="296.87" y="-159.8" font-family="Times,serif" font-size="9.00">0 at pos (0.0, 0.05, 0.0)?</text>
</g>
<!-- Fallback*&#45;&gt;0 at pos (0.0, 0.05, 0.0)? -->
<g id="edge7" class="edge">
<title>Fallback*&#45;&gt;0 at pos (0.0, 0.05, 0.0)?</title>
<path fill="none" stroke="black" d="M340.83,-216.05C333.77,-207.54 325.1,-197.07 317.32,-187.68"/>
<polygon fill="black" stroke="black" points="319.85,-185.26 310.78,-179.79 314.46,-189.72 319.85,-185.26"/>
</g>
<!-- Sequence** -->
<g id="node9" class="node">
<title>Sequence**</title>
<polygon fill="cyan" stroke="black" points="448.61,-154.54 448.61,-169.46 427.09,-180 396.65,-180 375.13,-169.46 375.13,-154.54 396.65,-144 427.09,-144 448.61,-154.54"/>
<text text-anchor="middle" x="411.87" y="-159.8" font-family="Times,serif" font-size="9.00">Sequence**</text>
</g>
<!-- Fallback*&#45;&gt;Sequence** -->
<g id="edge8" class="edge">
<title>Fallback*&#45;&gt;Sequence**</title>
<path fill="none" stroke="black" d="M368.67,-216.05C375.5,-207.67 383.88,-197.38 391.43,-188.1"/>
<polygon fill="black" stroke="black" points="394.2,-190.24 397.8,-180.28 388.77,-185.82 394.2,-190.24"/>
</g>
<!-- pick 2! -->
<g id="node13" class="node">
<title>pick 2!</title>
<ellipse fill="gray" stroke="black" cx="493.87" cy="-162" rx="27" ry="18"/>
<text text-anchor="middle" x="493.87" y="-159.8" font-family="Times,serif" font-size="9.00">pick 2!</text>
</g>
<!-- Fallback*&#45;&gt;pick 2! -->
<g id="edge12" class="edge">
<title>Fallback*&#45;&gt;pick 2!</title>
<path fill="none" stroke="black" d="M377.82,-221.44C401.31,-209.61 437.92,-191.17 463.73,-178.18"/>
<polygon fill="black" stroke="black" points="465.35,-181.28 472.7,-173.66 462.2,-175.03 465.35,-181.28"/>
</g>
<!-- picked 2? -->
<g id="node5" class="node">
<title>picked 2?</title>
<ellipse fill="gray" stroke="black" cx="28.87" cy="-90" rx="28.74" ry="18"/>
<text text-anchor="middle" x="28.87" y="-87.8" font-family="Times,serif" font-size="9.00">picked 2?</text>
</g>
<!-- Sequence*&#45;&gt;picked 2? -->
<g id="edge4" class="edge">
<title>Sequence*&#45;&gt;picked 2?</title>
<path fill="none" stroke="black" d="M94.64,-145.81C82.57,-135.75 66.6,-122.44 53.42,-111.46"/>
<polygon fill="black" stroke="black" points="55.55,-108.68 45.63,-104.97 51.07,-114.06 55.55,-108.68"/>
</g>
<!-- place at (0.0, 0.05, 0.0)! -->
<g id="node6" class="node">
<title>place at (0.0, 0.05, 0.0)!</title>
<ellipse fill="gray" stroke="black" cx="133.87" cy="-90" rx="58.13" ry="18"/>
<text text-anchor="middle" x="133.87" y="-87.8" font-family="Times,serif" font-size="9.00">place at (0.0, 0.05, 0.0)!</text>
</g>
<!-- Sequence*&#45;&gt;place at (0.0, 0.05, 0.0)! -->
<g id="edge5" class="edge">
<title>Sequence*&#45;&gt;place at (0.0, 0.05, 0.0)!</title>
<path fill="none" stroke="black" d="M118.06,-143.7C120.4,-135.9 123.21,-126.51 125.82,-117.83"/>
<polygon fill="black" stroke="black" points="129.22,-118.69 128.74,-108.1 122.51,-116.68 129.22,-118.69"/>
</g>
<!-- 1 at pos (0.0, 0.05, 0.0192)? -->
<g id="node10" class="node">
<title>1 at pos (0.0, 0.05, 0.0192)?</title>
<ellipse fill="gray" stroke="black" cx="298.87" cy="-90" rx="67.6" ry="18"/>
<text text-anchor="middle" x="298.87" y="-87.8" font-family="Times,serif" font-size="9.00">1 at pos (0.0, 0.05, 0.0192)?</text>
</g>
<!-- Sequence**&#45;&gt;1 at pos (0.0, 0.05, 0.0192)? -->
<g id="edge9" class="edge">
<title>Sequence**&#45;&gt;1 at pos (0.0, 0.05, 0.0192)?</title>
<path fill="none" stroke="black" d="M389.81,-147.34C373.69,-137.35 351.53,-123.62 333.12,-112.22"/>
<polygon fill="black" stroke="black" points="334.77,-109.12 324.42,-106.83 331.08,-115.07 334.77,-109.12"/>
</g>
<!-- pick 0! -->
<g id="node11" class="node">
<title>pick 0!</title>
<ellipse fill="gray" stroke="black" cx="411.87" cy="-90" rx="27" ry="18"/>
<text text-anchor="middle" x="411.87" y="-87.8" font-family="Times,serif" font-size="9.00">pick 0!</text>
</g>
<!-- Sequence**&#45;&gt;pick 0! -->
<g id="edge10" class="edge">
<title>Sequence**&#45;&gt;pick 0!</title>
<path fill="none" stroke="black" d="M411.87,-143.7C411.87,-135.98 411.87,-126.71 411.87,-118.11"/>
<polygon fill="black" stroke="black" points="415.37,-118.1 411.87,-108.1 408.37,-118.1 415.37,-118.1"/>
</g>
<!-- place at (0.0, 0.05, 0.0)!* -->
<g id="node12" class="node">
<title>place at (0.0, 0.05, 0.0)!*</title>
<ellipse fill="gray" stroke="black" cx="517.87" cy="-90" rx="61.4" ry="18"/>
<text text-anchor="middle" x="517.87" y="-87.8" font-family="Times,serif" font-size="9.00">place at (0.0, 0.05, 0.0)!*</text>
</g>
<!-- Sequence**&#45;&gt;place at (0.0, 0.05, 0.0)!* -->
<g id="edge11" class="edge">
<title>Sequence**&#45;&gt;place at (0.0, 0.05, 0.0)!*</title>
<path fill="none" stroke="black" d="M433.32,-146.83C448.36,-136.9 468.73,-123.45 485.71,-112.23"/>
<polygon fill="black" stroke="black" points="487.82,-115.04 494.24,-106.61 483.96,-109.2 487.82,-115.04"/>
</g>
<!-- 1 at pos (0.0, 0.05, 0.0192)?* -->
<g id="node15" class="node">
<title>1 at pos (0.0, 0.05, 0.0192)?*</title>
<ellipse fill="gray" stroke="black" cx="608.87" cy="-162" rx="70.37" ry="18"/>
<text text-anchor="middle" x="608.87" y="-159.8" font-family="Times,serif" font-size="9.00">1 at pos (0.0, 0.05, 0.0192)?*</text>
</g>
<!-- Fallback**&#45;&gt;1 at pos (0.0, 0.05, 0.0192)?* -->
<g id="edge14" class="edge">
<title>Fallback**&#45;&gt;1 at pos (0.0, 0.05, 0.0192)?*</title>
<path fill="none" stroke="black" d="M743.16,-221.75C718.72,-211.06 681.47,-194.76 652.39,-182.04"/>
<polygon fill="black" stroke="black" points="653.44,-178.68 642.88,-177.88 650.64,-185.09 653.44,-178.68"/>
</g>
<!-- picked 2?* -->
<g id="node16" class="node">
<title>picked 2?*</title>
<ellipse fill="gray" stroke="black" cx="728.87" cy="-162" rx="31.51" ry="18"/>
<text text-anchor="middle" x="728.87" y="-159.8" font-family="Times,serif" font-size="9.00">picked 2?*</text>
</g>
<!-- Fallback**&#45;&gt;picked 2?* -->
<g id="edge15" class="edge">
<title>Fallback**&#45;&gt;picked 2?*</title>
<path fill="none" stroke="black" d="M758.98,-215.7C754.31,-207.52 748.64,-197.6 743.49,-188.58"/>
<polygon fill="black" stroke="black" points="746.37,-186.57 738.37,-179.62 740.29,-190.04 746.37,-186.57"/>
</g>
<!-- Sequence*** -->
<g id="node17" class="node">
<title>Sequence***</title>
<polygon fill="cyan" stroke="black" points="858.86,-154.54 858.86,-169.46 835.43,-180 802.3,-180 778.88,-169.46 778.88,-154.54 802.3,-144 835.43,-144 858.86,-154.54"/>
<text text-anchor="middle" x="818.87" y="-159.8" font-family="Times,serif" font-size="9.00">Sequence***</text>
</g>
<!-- Fallback**&#45;&gt;Sequence*** -->
<g id="edge16" class="edge">
<title>Fallback**&#45;&gt;Sequence***</title>
<path fill="none" stroke="black" d="M781.23,-215.7C787.1,-207.47 794.24,-197.48 800.71,-188.42"/>
<polygon fill="black" stroke="black" points="803.69,-190.28 806.65,-180.1 797.99,-186.21 803.69,-190.28"/>
</g>
<!-- Fallback*** -->
<g id="node18" class="node">
<title>Fallback***</title>
<polygon fill="cyan" stroke="black" points="768.36,-82.54 768.36,-97.46 746.4,-108 715.34,-108 693.38,-97.46 693.38,-82.54 715.34,-72 746.4,-72 768.36,-82.54"/>
<text text-anchor="middle" x="730.87" y="-87.8" font-family="Times,serif" font-size="9.00">Fallback***</text>
</g>
<!-- Sequence***&#45;&gt;Fallback*** -->
<g id="edge17" class="edge">
<title>Sequence***&#45;&gt;Fallback***</title>
<path fill="none" stroke="black" d="M798.9,-145.12C786.8,-135.5 771.22,-123.1 758.01,-112.59"/>
<polygon fill="black" stroke="black" points="760.16,-109.83 750.15,-106.34 755.8,-115.3 760.16,-109.83"/>
</g>
<!-- apply force 1! -->
<g id="node21" class="node">
<title>apply force 1!</title>
<ellipse fill="gray" stroke="black" cx="824.87" cy="-90" rx="38.21" ry="18"/>
<text text-anchor="middle" x="824.87" y="-87.8" font-family="Times,serif" font-size="9.00">apply force 1!</text>
</g>
<!-- Sequence***&#45;&gt;apply force 1! -->
<g id="edge20" class="edge">
<title>Sequence***&#45;&gt;apply force 1!</title>
<path fill="none" stroke="black" d="M820.35,-143.7C821.01,-135.98 821.81,-126.71 822.54,-118.11"/>
<polygon fill="black" stroke="black" points="826.03,-118.37 823.4,-108.1 819.06,-117.77 826.03,-118.37"/>
</g>
<!-- 1 on 0? -->
<g id="node19" class="node">
<title>1 on 0?</title>
<ellipse fill="gray" stroke="black" cx="688.87" cy="-18" rx="27" ry="18"/>
<text text-anchor="middle" x="688.87" y="-15.8" font-family="Times,serif" font-size="9.00">1 on 0?</text>
</g>
<!-- Fallback***&#45;&gt;1 on 0? -->
<g id="edge18" class="edge">
<title>Fallback***&#45;&gt;1 on 0?</title>
<path fill="none" stroke="black" d="M720.49,-71.7C715.46,-63.32 709.33,-53.1 703.81,-43.9"/>
<polygon fill="black" stroke="black" points="706.7,-41.92 698.55,-35.14 700.7,-45.52 706.7,-41.92"/>
</g>
<!-- apply force 2! -->
<g id="node20" class="node">
<title>apply force 2!</title>
<ellipse fill="gray" stroke="black" cx="771.87" cy="-18" rx="38.21" ry="18"/>
<text text-anchor="middle" x="771.87" y="-15.8" font-family="Times,serif" font-size="9.00">apply force 2!</text>
</g>
<!-- Fallback***&#45;&gt;apply force 2! -->
<g id="edge19" class="edge">
<title>Fallback***&#45;&gt;apply force 2!</title>
<path fill="none" stroke="black" d="M741,-71.7C745.84,-63.44 751.72,-53.39 757.05,-44.3"/>
<polygon fill="black" stroke="black" points="760.1,-46.02 762.13,-35.62 754.06,-42.48 760.1,-46.02"/>
</g>
<!-- 2 on 1?* -->
<g id="node23" class="node">
<title>2 on 1?*</title>
<ellipse fill="gray" stroke="black" cx="903.87" cy="-162" rx="27.27" ry="18"/>
<text text-anchor="middle" x="903.87" y="-159.8" font-family="Times,serif" font-size="9.00">2 on 1?*</text>
</g>
<!-- Fallback****&#45;&gt;2 on 1?* -->
<g id="edge22" class="edge">
<title>Fallback****&#45;&gt;2 on 1?*</title>
<path fill="none" stroke="black" d="M903.87,-215.7C903.87,-207.98 903.87,-198.71 903.87,-190.11"/>
<polygon fill="black" stroke="black" points="907.37,-190.1 903.87,-180.1 900.37,-190.1 907.37,-190.1"/>
</g>
<!-- Sequence**** -->
<g id="node24" class="node">
<title>Sequence****</title>
<polygon fill="cyan" stroke="black" points="1034.36,-154.54 1034.36,-169.46 1009.47,-180 974.27,-180 949.38,-169.46 949.38,-154.54 974.27,-144 1009.47,-144 1034.36,-154.54"/>
<text text-anchor="middle" x="991.87" y="-159.8" font-family="Times,serif" font-size="9.00">Sequence****</text>
</g>
<!-- Fallback****&#45;&gt;Sequence**** -->
<g id="edge23" class="edge">
<title>Fallback****&#45;&gt;Sequence****</title>
<path fill="none" stroke="black" d="M923.84,-217.12C935.57,-207.78 950.58,-195.84 963.53,-185.55"/>
<polygon fill="black" stroke="black" points="966.03,-188.03 971.67,-179.06 961.67,-182.55 966.03,-188.03"/>
</g>
<!-- pick 2!* -->
<g id="node25" class="node">
<title>pick 2!*</title>
<ellipse fill="gray" stroke="black" cx="952.87" cy="-90" rx="27" ry="18"/>
<text text-anchor="middle" x="952.87" y="-87.8" font-family="Times,serif" font-size="9.00">pick 2!*</text>
</g>
<!-- Sequence****&#45;&gt;pick 2!* -->
<g id="edge24" class="edge">
<title>Sequence****&#45;&gt;pick 2!*</title>
<path fill="none" stroke="black" d="M982.23,-143.7C977.56,-135.32 971.87,-125.1 966.74,-115.9"/>
<polygon fill="black" stroke="black" points="969.79,-114.18 961.86,-107.14 963.67,-117.58 969.79,-114.18"/>
</g>
<!-- place on 1! -->
<g id="node26" class="node">
<title>place on 1!</title>
<ellipse fill="gray" stroke="black" cx="1029.87" cy="-90" rx="32.16" ry="18"/>
<text text-anchor="middle" x="1029.87" y="-87.8" font-family="Times,serif" font-size="9.00">place on 1!</text>
</g>
<!-- Sequence****&#45;&gt;place on 1! -->
<g id="edge25" class="edge">
<title>Sequence****&#45;&gt;place on 1!</title>
<path fill="none" stroke="black" d="M1001.26,-143.7C1005.7,-135.52 1011.08,-125.6 1015.98,-116.58"/>
<polygon fill="black" stroke="black" points="1019.15,-118.08 1020.84,-107.62 1013,-114.74 1019.15,-118.08"/>
</g>
<!-- apply force 2!* -->
<g id="node28" class="node">
<title>apply force 2!*</title>
<ellipse fill="gray" stroke="black" cx="1092.87" cy="-162" rx="40.98" ry="18"/>
<text text-anchor="middle" x="1092.87" y="-159.8" font-family="Times,serif" font-size="9.00">apply force 2!*</text>
</g>
<!-- Fallback*****&#45;&gt;apply force 2!* -->
<g id="edge27" class="edge">
<title>Fallback*****&#45;&gt;apply force 2!*</title>
<path fill="none" stroke="black" d="M1092.87,-215.7C1092.87,-207.98 1092.87,-198.71 1092.87,-190.11"/>
<polygon fill="black" stroke="black" points="1096.37,-190.1 1092.87,-180.1 1089.37,-190.1 1096.37,-190.1"/>
</g>
<!-- apply force 2!** -->
<g id="node29" class="node">
<title>apply force 2!**</title>
<ellipse fill="gray" stroke="black" cx="1194.87" cy="-162" rx="43.1" ry="18"/>
<text text-anchor="middle" x="1194.87" y="-159.8" font-family="Times,serif" font-size="9.00">apply force 2!**</text>
</g>
<!-- Fallback*****&#45;&gt;apply force 2!** -->
<g id="edge28" class="edge">
<title>Fallback*****&#45;&gt;apply force 2!**</title>
<path fill="none" stroke="black" d="M1115.25,-217.64C1129.8,-207.65 1148.94,-194.52 1164.81,-183.63"/>
<polygon fill="black" stroke="black" points="1166.97,-186.39 1173.23,-177.85 1163.01,-180.62 1166.97,-186.39"/>
</g>
</g>
</svg>
