<?xml version="1.0" encoding="UTF-8" standalone="no"?>
<!DOCTYPE svg PUBLIC "-//W3C//DTD SVG 1.1//EN"
 "http://www.w3.org/Graphics/SVG/1.1/DTD/svg11.dtd">
<!-- Generated by graphviz version 2.43.0 (0)
 -->
<!-- Title: pastafarianism Pages: 1 -->
<svg width="759pt" height="476pt"
 viewBox="0.00 0.00 759.15 476.00" xmlns="http://www.w3.org/2000/svg" xmlns:xlink="http://www.w3.org/1999/xlink">
<g id="graph0" class="graph" transform="scale(1 1) rotate(0) translate(4 472)">
<title>pastafarianism</title>
<polygon fill="white" stroke="transparent" points="-4,4 -4,-472 755.15,-472 755.15,4 -4,4"/>
<!-- Sequence -->
<g id="node1" class="node">
<title>Sequence</title>
<polygon fill="cyan" stroke="black" points="384.54,-442.54 384.54,-457.46 366.09,-468 340,-468 321.55,-457.46 321.55,-442.54 340,-432 366.09,-432 384.54,-442.54"/>
<text text-anchor="middle" x="353.04" y="-447.8" font-family="Times,serif" font-size="9.00">Sequence</text>
</g>
<!-- Fallback -->
<g id="node2" class="node">
<title>Fallback</title>
<polygon fill="cyan" stroke="black" points="201.29,-370.54 201.29,-385.46 184.16,-396 159.93,-396 142.8,-385.46 142.8,-370.54 159.93,-360 184.16,-360 201.29,-370.54"/>
<text text-anchor="middle" x="172.04" y="-375.8" font-family="Times,serif" font-size="9.00">Fallback</text>
</g>
<!-- Sequence&#45;&gt;Fallback -->
<g id="edge1" class="edge">
<title>Sequence&#45;&gt;Fallback</title>
<path fill="none" stroke="black" d="M327.5,-439.12C295.7,-426.82 241.29,-405.78 206,-392.13"/>
<polygon fill="black" stroke="black" points="207.18,-388.84 196.59,-388.49 204.66,-395.37 207.18,-388.84"/>
</g>
<!-- Fallback** -->
<g id="node9" class="node">
<title>Fallback**</title>
<polygon fill="cyan" stroke="black" points="388.04,-370.54 388.04,-385.46 367.54,-396 338.55,-396 318.05,-385.46 318.05,-370.54 338.55,-360 367.54,-360 388.04,-370.54"/>
<text text-anchor="middle" x="353.04" y="-375.8" font-family="Times,serif" font-size="9.00">Fallback**</text>
</g>
<!-- Sequence&#45;&gt;Fallback** -->
<g id="edge8" class="edge">
<title>Sequence&#45;&gt;Fallback**</title>
<path fill="none" stroke="black" d="M353.04,-431.7C353.04,-423.98 353.04,-414.71 353.04,-406.11"/>
<polygon fill="black" stroke="black" points="356.54,-406.1 353.04,-396.1 349.54,-406.1 356.54,-406.1"/>
</g>
<!-- Fallback**** -->
<g id="node18" class="node">
<title>Fallback****</title>
<polygon fill="cyan" stroke="black" points="576.78,-370.54 576.78,-385.46 552.92,-396 519.17,-396 495.3,-385.46 495.3,-370.54 519.17,-360 552.92,-360 576.78,-370.54"/>
<text text-anchor="middle" x="536.04" y="-375.8" font-family="Times,serif" font-size="9.00">Fallback****</text>
</g>
<!-- Sequence&#45;&gt;Fallback**** -->
<g id="edge17" class="edge">
<title>Sequence&#45;&gt;Fallback****</title>
<path fill="none" stroke="black" d="M378.88,-439.12C409.5,-427.41 460.85,-407.76 496.49,-394.13"/>
<polygon fill="black" stroke="black" points="498,-397.3 506.09,-390.46 495.5,-390.76 498,-397.3"/>
</g>
<!-- 0 at pos (0.0, 0.05, 0.0)? -->
<g id="node3" class="node">
<title>0 at pos (0.0, 0.05, 0.0)?</title>
<ellipse fill="gray" stroke="black" cx="60.04" cy="-306" rx="60.09" ry="18"/>
<text text-anchor="middle" x="60.04" y="-303.8" font-family="Times,serif" font-size="9.00">0 at pos (0.0, 0.05, 0.0)?</text>
</g>
<!-- Fallback&#45;&gt;0 at pos (0.0, 0.05, 0.0)? -->
<g id="edge2" class="edge">
<title>Fallback&#45;&gt;0 at pos (0.0, 0.05, 0.0)?</title>
<path fill="none" stroke="black" d="M152.28,-364.65C136.12,-354.55 112.92,-340.05 93.82,-328.11"/>
<polygon fill="black" stroke="black" points="95.44,-325 85.11,-322.66 91.73,-330.93 95.44,-325"/>
</g>
<!-- Sequence* -->
<g id="node4" class="node">
<title>Sequence*</title>
<polygon fill="cyan" stroke="black" points="206.29,-298.54 206.29,-313.46 186.23,-324 157.86,-324 137.8,-313.46 137.8,-298.54 157.86,-288 186.23,-288 206.29,-298.54"/>
<text text-anchor="middle" x="172.04" y="-303.8" font-family="Times,serif" font-size="9.00">Sequence*</text>
</g>
<!-- Fallback&#45;&gt;Sequence* -->
<g id="edge3" class="edge">
<title>Fallback&#45;&gt;Sequence*</title>
<path fill="none" stroke="black" d="M172.04,-359.7C172.04,-351.98 172.04,-342.71 172.04,-334.11"/>
<polygon fill="black" stroke="black" points="175.54,-334.1 172.04,-324.1 168.54,-334.1 175.54,-334.1"/>
</g>
<!-- Fallback* -->
<g id="node5" class="node">
<title>Fallback*</title>
<polygon fill="cyan" stroke="black" points="112.79,-226.54 112.79,-241.46 94.19,-252 67.9,-252 49.3,-241.46 49.3,-226.54 67.9,-216 94.19,-216 112.79,-226.54"/>
<text text-anchor="middle" x="81.04" y="-231.8" font-family="Times,serif" font-size="9.00">Fallback*</text>
</g>
<!-- Sequence*&#45;&gt;Fallback* -->
<g id="edge4" class="edge">
<title>Sequence*&#45;&gt;Fallback*</title>
<path fill="none" stroke="black" d="M152.75,-290.15C139.57,-280.02 121.96,-266.47 107.49,-255.34"/>
<polygon fill="black" stroke="black" points="109.44,-252.43 99.38,-249.11 105.18,-257.98 109.44,-252.43"/>
</g>
<!-- place at (0.0, 0.05, 0.0)! -->
<g id="node8" class="node">
<title>place at (0.0, 0.05, 0.0)!</title>
<ellipse fill="gray" stroke="black" cx="189.04" cy="-234" rx="58.13" ry="18"/>
<text text-anchor="middle" x="189.04" y="-231.8" font-family="Times,serif" font-size="9.00">place at (0.0, 0.05, 0.0)!</text>
</g>
<!-- Sequence*&#45;&gt;place at (0.0, 0.05, 0.0)! -->
<g id="edge7" class="edge">
<title>Sequence*&#45;&gt;place at (0.0, 0.05, 0.0)!</title>
<path fill="none" stroke="black" d="M176.25,-287.7C178.14,-279.9 180.42,-270.51 182.53,-261.83"/>
<polygon fill="black" stroke="black" points="185.93,-262.65 184.89,-252.1 179.13,-261 185.93,-262.65"/>
</g>
<!-- picked 0? -->
<g id="node6" class="node">
<title>picked 0?</title>
<ellipse fill="gray" stroke="black" cx="44.04" cy="-162" rx="28.74" ry="18"/>
<text text-anchor="middle" x="44.04" y="-159.8" font-family="Times,serif" font-size="9.00">picked 0?</text>
</g>
<!-- Fallback*&#45;&gt;picked 0? -->
<g id="edge5" class="edge">
<title>Fallback*&#45;&gt;picked 0?</title>
<path fill="none" stroke="black" d="M71.9,-215.7C67.58,-207.52 62.33,-197.6 57.57,-188.58"/>
<polygon fill="black" stroke="black" points="60.6,-186.83 52.83,-179.62 54.41,-190.1 60.6,-186.83"/>
</g>
<!-- pick 0! -->
<g id="node7" class="node">
<title>pick 0!</title>
<ellipse fill="gray" stroke="black" cx="118.04" cy="-162" rx="27" ry="18"/>
<text text-anchor="middle" x="118.04" y="-159.8" font-family="Times,serif" font-size="9.00">pick 0!</text>
</g>
<!-- Fallback*&#45;&gt;pick 0! -->
<g id="edge6" class="edge">
<title>Fallback*&#45;&gt;pick 0!</title>
<path fill="none" stroke="black" d="M90.19,-215.7C94.57,-207.4 99.91,-197.31 104.73,-188.19"/>
<polygon fill="black" stroke="black" points="107.93,-189.62 109.51,-179.14 101.74,-186.35 107.93,-189.62"/>
</g>
<!-- 1 at pos (0.0, 0.05, 0.0192)? -->
<g id="node10" class="node">
<title>1 at pos (0.0, 0.05, 0.0192)?</title>
<ellipse fill="gray" stroke="black" cx="292.04" cy="-306" rx="67.6" ry="18"/>
<text text-anchor="middle" x="292.04" y="-303.8" font-family="Times,serif" font-size="9.00">1 at pos (0.0, 0.05, 0.0192)?</text>
</g>
<!-- Fallback**&#45;&gt;1 at pos (0.0, 0.05, 0.0192)? -->
<g id="edge9" class="edge">
<title>Fallback**&#45;&gt;1 at pos (0.0, 0.05, 0.0192)?</title>
<path fill="none" stroke="black" d="M338.28,-360.05C330.79,-351.46 321.55,-340.86 313.31,-331.4"/>
<polygon fill="black" stroke="black" points="315.88,-329.03 306.67,-323.79 310.61,-333.63 315.88,-329.03"/>
</g>
<!-- Sequence** -->
<g id="node11" class="node">
<title>Sequence**</title>
<polygon fill="cyan" stroke="black" points="450.79,-298.54 450.79,-313.46 429.26,-324 398.83,-324 377.3,-313.46 377.3,-298.54 398.83,-288 429.26,-288 450.79,-298.54"/>
<text text-anchor="middle" x="414.04" y="-303.8" font-family="Times,serif" font-size="9.00">Sequence**</text>
</g>
<!-- Fallback**&#45;&gt;Sequence** -->
<g id="edge10" class="edge">
<title>Fallback**&#45;&gt;Sequence**</title>
<path fill="none" stroke="black" d="M367.81,-360.05C375.19,-351.58 384.27,-341.17 392.42,-331.82"/>
<polygon fill="black" stroke="black" points="395.06,-334.11 398.99,-324.28 389.78,-329.51 395.06,-334.11"/>
</g>
<!-- Fallback*** -->
<g id="node12" class="node">
<title>Fallback***</title>
<polygon fill="cyan" stroke="black" points="379.53,-226.54 379.53,-241.46 357.57,-252 326.52,-252 304.55,-241.46 304.55,-226.54 326.52,-216 357.57,-216 379.53,-226.54"/>
<text text-anchor="middle" x="342.04" y="-231.8" font-family="Times,serif" font-size="9.00">Fallback***</text>
</g>
<!-- Sequence**&#45;&gt;Fallback*** -->
<g id="edge11" class="edge">
<title>Sequence**&#45;&gt;Fallback***</title>
<path fill="none" stroke="black" d="M396.98,-288.41C387.84,-279.52 376.41,-268.41 366.35,-258.63"/>
<polygon fill="black" stroke="black" points="368.59,-255.93 358.98,-251.47 363.72,-260.95 368.59,-255.93"/>
</g>
<!-- apply force 1! -->
<g id="node17" class="node">
<title>apply force 1!</title>
<ellipse fill="gray" stroke="black" cx="436.04" cy="-234" rx="38.21" ry="18"/>
<text text-anchor="middle" x="436.04" y="-231.8" font-family="Times,serif" font-size="9.00">apply force 1!</text>
</g>
<!-- Sequence**&#45;&gt;apply force 1! -->
<g id="edge16" class="edge">
<title>Sequence**&#45;&gt;apply force 1!</title>
<path fill="none" stroke="black" d="M419.48,-287.7C421.93,-279.9 424.88,-270.51 427.61,-261.83"/>
<polygon fill="black" stroke="black" points="431.01,-262.69 430.67,-252.1 424.33,-260.59 431.01,-262.69"/>
</g>
<!-- 1 on 0? -->
<g id="node13" class="node">
<title>1 on 0?</title>
<ellipse fill="gray" stroke="black" cx="281.04" cy="-162" rx="27" ry="18"/>
<text text-anchor="middle" x="281.04" y="-159.8" font-family="Times,serif" font-size="9.00">1 on 0?</text>
</g>
<!-- Fallback***&#45;&gt;1 on 0? -->
<g id="edge12" class="edge">
<title>Fallback***&#45;&gt;1 on 0?</title>
<path fill="none" stroke="black" d="M326.97,-215.7C319.14,-206.71 309.47,-195.62 301.03,-185.93"/>
<polygon fill="black" stroke="black" points="303.5,-183.44 294.29,-178.2 298.22,-188.04 303.5,-183.44"/>
</g>
<!-- Sequence*** -->
<g id="node14" class="node">
<title>Sequence***</title>
<polygon fill="cyan" stroke="black" points="406.03,-154.54 406.03,-169.46 382.61,-180 349.48,-180 326.05,-169.46 326.05,-154.54 349.48,-144 382.61,-144 406.03,-154.54"/>
<text text-anchor="middle" x="366.04" y="-159.8" font-family="Times,serif" font-size="9.00">Sequence***</text>
</g>
<!-- Fallback***&#45;&gt;Sequence*** -->
<g id="edge13" class="edge">
<title>Fallback***&#45;&gt;Sequence***</title>
<path fill="none" stroke="black" d="M347.98,-215.7C350.65,-207.9 353.87,-198.51 356.85,-189.83"/>
<polygon fill="black" stroke="black" points="360.25,-190.7 360.18,-180.1 353.63,-188.43 360.25,-190.7"/>
</g>
<!-- place on 0! -->
<g id="node15" class="node">
<title>place on 0!</title>
<ellipse fill="gray" stroke="black" cx="306.04" cy="-90" rx="32.16" ry="18"/>
<text text-anchor="middle" x="306.04" y="-87.8" font-family="Times,serif" font-size="9.00">place on 0!</text>
</g>
<!-- Sequence***&#45;&gt;place on 0! -->
<g id="edge14" class="edge">
<title>Sequence***&#45;&gt;place on 0!</title>
<path fill="none" stroke="black" d="M351.21,-143.7C343.62,-134.84 334.27,-123.93 326.05,-114.34"/>
<polygon fill="black" stroke="black" points="328.64,-111.99 319.48,-106.67 323.33,-116.54 328.64,-111.99"/>
</g>
<!-- place on 0!* -->
<g id="node16" class="node">
<title>place on 0!*</title>
<ellipse fill="gray" stroke="black" cx="391.04" cy="-90" rx="34.78" ry="18"/>
<text text-anchor="middle" x="391.04" y="-87.8" font-family="Times,serif" font-size="9.00">place on 0!*</text>
</g>
<!-- Sequence***&#45;&gt;place on 0!* -->
<g id="edge15" class="edge">
<title>Sequence***&#45;&gt;place on 0!*</title>
<path fill="none" stroke="black" d="M372.22,-143.7C375.04,-135.81 378.44,-126.3 381.56,-117.55"/>
<polygon fill="black" stroke="black" points="384.87,-118.7 384.94,-108.1 378.28,-116.34 384.87,-118.7"/>
</g>
<!-- 2 at pos (0.0, 0.05, 0.0384)? -->
<g id="node19" class="node">
<title>2 at pos (0.0, 0.05, 0.0384)?</title>
<ellipse fill="gray" stroke="black" cx="536.04" cy="-306" rx="67.6" ry="18"/>
<text text-anchor="middle" x="536.04" y="-303.8" font-family="Times,serif" font-size="9.00">2 at pos (0.0, 0.05, 0.0384)?</text>
</g>
<!-- Fallback****&#45;&gt;2 at pos (0.0, 0.05, 0.0384)? -->
<g id="edge18" class="edge">
<title>Fallback****&#45;&gt;2 at pos (0.0, 0.05, 0.0384)?</title>
<path fill="none" stroke="black" d="M536.04,-359.7C536.04,-351.98 536.04,-342.71 536.04,-334.11"/>
<polygon fill="black" stroke="black" points="539.54,-334.1 536.04,-324.1 532.54,-334.1 539.54,-334.1"/>
</g>
<!-- Sequence**** -->
<g id="node20" class="node">
<title>Sequence****</title>
<polygon fill="cyan" stroke="black" points="706.53,-298.54 706.53,-313.46 681.64,-324 646.44,-324 621.56,-313.46 621.56,-298.54 646.44,-288 681.64,-288 706.53,-298.54"/>
<text text-anchor="middle" x="664.04" y="-303.8" font-family="Times,serif" font-size="9.00">Sequence****</text>
</g>
<!-- Fallback****&#45;&gt;Sequence**** -->
<g id="edge19" class="edge">
<title>Fallback****&#45;&gt;Sequence****</title>
<path fill="none" stroke="black" d="M561.03,-363.34C580.64,-352.61 608.14,-337.57 629.8,-325.73"/>
<polygon fill="black" stroke="black" points="631.59,-328.74 638.69,-320.87 628.23,-322.6 631.59,-328.74"/>
</g>
<!-- Fallback***** -->
<g id="node21" class="node">
<title>Fallback*****</title>
<polygon fill="cyan" stroke="black" points="657.28,-226.54 657.28,-241.46 631.95,-252 596.13,-252 570.81,-241.46 570.81,-226.54 596.13,-216 631.95,-216 657.28,-226.54"/>
<text text-anchor="middle" x="614.04" y="-231.8" font-family="Times,serif" font-size="9.00">Fallback*****</text>
</g>
<!-- Sequence****&#45;&gt;Fallback***** -->
<g id="edge20" class="edge">
<title>Sequence****&#45;&gt;Fallback*****</title>
<path fill="none" stroke="black" d="M651.68,-287.7C645.81,-279.47 638.68,-269.48 632.2,-260.42"/>
<polygon fill="black" stroke="black" points="634.92,-258.21 626.26,-252.1 629.23,-262.28 634.92,-258.21"/>
</g>
<!-- apply force 2! -->
<g id="node28" class="node">
<title>apply force 2!</title>
<ellipse fill="gray" stroke="black" cx="713.04" cy="-234" rx="38.21" ry="18"/>
<text text-anchor="middle" x="713.04" y="-231.8" font-family="Times,serif" font-size="9.00">apply force 2!</text>
</g>
<!-- Sequence****&#45;&gt;apply force 2! -->
<g id="edge27" class="edge">
<title>Sequence****&#45;&gt;apply force 2!</title>
<path fill="none" stroke="black" d="M676.16,-287.7C682,-279.35 689.12,-269.18 695.53,-260.02"/>
<polygon fill="black" stroke="black" points="698.54,-261.82 701.41,-251.62 692.81,-257.81 698.54,-261.82"/>
</g>
<!-- 2 on 1? -->
<g id="node22" class="node">
<title>2 on 1?</title>
<ellipse fill="gray" stroke="black" cx="568.04" cy="-162" rx="27" ry="18"/>
<text text-anchor="middle" x="568.04" y="-159.8" font-family="Times,serif" font-size="9.00">2 on 1?</text>
</g>
<!-- Fallback*****&#45;&gt;2 on 1? -->
<g id="edge21" class="edge">
<title>Fallback*****&#45;&gt;2 on 1?</title>
<path fill="none" stroke="black" d="M602.67,-215.7C597.03,-207.11 590.11,-196.58 583.95,-187.21"/>
<polygon fill="black" stroke="black" points="586.76,-185.11 578.34,-178.67 580.91,-188.95 586.76,-185.11"/>
</g>
<!-- Sequence***** -->
<g id="node23" class="node">
<title>Sequence*****</title>
<polygon fill="cyan" stroke="black" points="704.78,-154.54 704.78,-169.46 677.99,-180 640.1,-180 613.31,-169.46 613.31,-154.54 640.1,-144 677.99,-144 704.78,-154.54"/>
<text text-anchor="middle" x="659.04" y="-159.8" font-family="Times,serif" font-size="9.00">Sequence*****</text>
</g>
<!-- Fallback*****&#45;&gt;Sequence***** -->
<g id="edge22" class="edge">
<title>Fallback*****&#45;&gt;Sequence*****</title>
<path fill="none" stroke="black" d="M625.17,-215.7C630.4,-207.56 636.74,-197.69 642.52,-188.7"/>
<polygon fill="black" stroke="black" points="645.59,-190.41 648.05,-180.1 639.7,-186.62 645.59,-190.41"/>
</g>
<!-- Fallback****** -->
<g id="node24" class="node">
<title>Fallback******</title>
<polygon fill="cyan" stroke="black" points="656.53,-82.54 656.53,-97.46 629.3,-108 590.79,-108 563.56,-97.46 563.56,-82.54 590.79,-72 629.3,-72 656.53,-82.54"/>
<text text-anchor="middle" x="610.04" y="-87.8" font-family="Times,serif" font-size="9.00">Fallback******</text>
</g>
<!-- Sequence*****&#45;&gt;Fallback****** -->
<g id="edge23" class="edge">
<title>Sequence*****&#45;&gt;Fallback******</title>
<path fill="none" stroke="black" d="M646.93,-143.7C641.18,-135.47 634.18,-125.48 627.84,-116.42"/>
<polygon fill="black" stroke="black" points="630.62,-114.29 622.02,-108.1 624.88,-118.3 630.62,-114.29"/>
</g>
<!-- place on 1! -->
<g id="node27" class="node">
<title>place on 1!</title>
<ellipse fill="gray" stroke="black" cx="707.04" cy="-90" rx="32.16" ry="18"/>
<text text-anchor="middle" x="707.04" y="-87.8" font-family="Times,serif" font-size="9.00">place on 1!</text>
</g>
<!-- Sequence*****&#45;&gt;place on 1! -->
<g id="edge26" class="edge">
<title>Sequence*****&#45;&gt;place on 1!</title>
<path fill="none" stroke="black" d="M670.91,-143.7C676.72,-135.23 683.81,-124.89 690.17,-115.61"/>
<polygon fill="black" stroke="black" points="693.21,-117.37 695.97,-107.14 687.43,-113.41 693.21,-117.37"/>
</g>
<!-- picked 2? -->
<g id="node25" class="node">
<title>picked 2?</title>
<ellipse fill="gray" stroke="black" cx="573.04" cy="-18" rx="28.74" ry="18"/>
<text text-anchor="middle" x="573.04" y="-15.8" font-family="Times,serif" font-size="9.00">picked 2?</text>
</g>
<!-- Fallback******&#45;&gt;picked 2? -->
<g id="edge24" class="edge">
<title>Fallback******&#45;&gt;picked 2?</title>
<path fill="none" stroke="black" d="M600.9,-71.7C596.58,-63.52 591.33,-53.6 586.57,-44.58"/>
<polygon fill="black" stroke="black" points="589.6,-42.83 581.83,-35.62 583.41,-46.1 589.6,-42.83"/>
</g>
<!-- pick 2! -->
<g id="node26" class="node">
<title>pick 2!</title>
<ellipse fill="gray" stroke="black" cx="647.04" cy="-18" rx="27" ry="18"/>
<text text-anchor="middle" x="647.04" y="-15.8" font-family="Times,serif" font-size="9.00">pick 2!</text>
</g>
<!-- Fallback******&#45;&gt;pick 2! -->
<g id="edge25" class="edge">
<title>Fallback******&#45;&gt;pick 2!</title>
<path fill="none" stroke="black" d="M619.19,-71.7C623.57,-63.4 628.91,-53.31 633.73,-44.19"/>
<polygon fill="black" stroke="black" points="636.93,-45.62 638.51,-35.14 630.74,-42.35 636.93,-45.62"/>
</g>
</g>
</svg>
