<?xml version="1.0" encoding="UTF-8" standalone="no"?>
<!DOCTYPE svg PUBLIC "-//W3C//DTD SVG 1.1//EN"
 "http://www.w3.org/Graphics/SVG/1.1/DTD/svg11.dtd">
<!-- Generated by graphviz version 2.43.0 (0)
 -->
<!-- Title: pastafarianism Pages: 1 -->
<svg width="631pt" height="404pt"
 viewBox="0.00 0.00 631.11 404.00" xmlns="http://www.w3.org/2000/svg" xmlns:xlink="http://www.w3.org/1999/xlink">
<g id="graph0" class="graph" transform="scale(1 1) rotate(0) translate(4 400)">
<title>pastafarianism</title>
<polygon fill="white" stroke="transparent" points="-4,4 -4,-400 627.11,-400 627.11,4 -4,4"/>
<!-- Sequence -->
<g id="node1" class="node">
<title>Sequence</title>
<polygon fill="cyan" stroke="black" points="494.49,-370.54 494.49,-385.46 476.05,-396 449.95,-396 431.51,-385.46 431.51,-370.54 449.95,-360 476.05,-360 494.49,-370.54"/>
<text text-anchor="middle" x="463" y="-375.8" font-family="Times,serif" font-size="9.00">Sequence</text>
</g>
<!-- Fallback -->
<g id="node2" class="node">
<title>Fallback</title>
<polygon fill="cyan" stroke="black" points="217.24,-298.54 217.24,-313.46 200.11,-324 175.89,-324 158.76,-313.46 158.76,-298.54 175.89,-288 200.11,-288 217.24,-298.54"/>
<text text-anchor="middle" x="188" y="-303.8" font-family="Times,serif" font-size="9.00">Fallback</text>
</g>
<!-- Sequence&#45;&gt;Fallback -->
<g id="edge1" class="edge">
<title>Sequence&#45;&gt;Fallback</title>
<path fill="none" stroke="black" d="M433.31,-369.44C383.1,-356.66 281.5,-330.8 226.11,-316.7"/>
<polygon fill="black" stroke="black" points="226.88,-313.29 216.33,-314.21 225.16,-320.07 226.88,-313.29"/>
</g>
<!-- Fallback* -->
<g id="node8" class="node">
<title>Fallback*</title>
<polygon fill="cyan" stroke="black" points="456.74,-298.54 456.74,-313.46 438.15,-324 411.85,-324 393.26,-313.46 393.26,-298.54 411.85,-288 438.15,-288 456.74,-298.54"/>
<text text-anchor="middle" x="425" y="-303.8" font-family="Times,serif" font-size="9.00">Fallback*</text>
</g>
<!-- Sequence&#45;&gt;Fallback* -->
<g id="edge7" class="edge">
<title>Sequence&#45;&gt;Fallback*</title>
<path fill="none" stroke="black" d="M453.61,-359.7C449.24,-351.64 443.94,-341.89 439.1,-332.98"/>
<polygon fill="black" stroke="black" points="442.13,-331.22 434.29,-324.1 435.98,-334.56 442.13,-331.22"/>
</g>
<!-- 2 on 1?* -->
<g id="node18" class="node">
<title>2 on 1?*</title>
<ellipse fill="gray" stroke="black" cx="502" cy="-306" rx="27.27" ry="18"/>
<text text-anchor="middle" x="502" y="-303.8" font-family="Times,serif" font-size="9.00">2 on 1?*</text>
</g>
<!-- Sequence&#45;&gt;2 on 1?* -->
<g id="edge17" class="edge">
<title>Sequence&#45;&gt;2 on 1?*</title>
<path fill="none" stroke="black" d="M472.64,-359.7C477.31,-351.32 483,-341.1 488.13,-331.9"/>
<polygon fill="black" stroke="black" points="491.2,-333.58 493.01,-323.14 485.08,-330.18 491.2,-333.58"/>
</g>
<!-- apply force 2! -->
<g id="node19" class="node">
<title>apply force 2!</title>
<ellipse fill="gray" stroke="black" cx="585" cy="-306" rx="38.21" ry="18"/>
<text text-anchor="middle" x="585" y="-303.8" font-family="Times,serif" font-size="9.00">apply force 2!</text>
</g>
<!-- Sequence&#45;&gt;apply force 2! -->
<g id="edge18" class="edge">
<title>Sequence&#45;&gt;apply force 2!</title>
<path fill="none" stroke="black" d="M484.53,-364.65C503.44,-353.79 531.23,-337.85 552.79,-325.48"/>
<polygon fill="black" stroke="black" points="554.67,-328.44 561.61,-320.42 551.19,-322.36 554.67,-328.44"/>
</g>
<!-- 2 on 1? -->
<g id="node3" class="node">
<title>2 on 1?</title>
<ellipse fill="gray" stroke="black" cx="27" cy="-234" rx="27" ry="18"/>
<text text-anchor="middle" x="27" y="-231.8" font-family="Times,serif" font-size="9.00">2 on 1?</text>
</g>
<!-- Fallback&#45;&gt;2 on 1? -->
<g id="edge2" class="edge">
<title>Fallback&#45;&gt;2 on 1?</title>
<path fill="none" stroke="black" d="M163.91,-295.12C138.65,-284.69 97.85,-267.61 63,-252 61.2,-251.19 59.36,-250.36 57.5,-249.51"/>
<polygon fill="black" stroke="black" points="58.8,-246.25 48.25,-245.21 55.85,-252.6 58.8,-246.25"/>
</g>
<!-- 0 at pos (0.0, 0.05, 0.0)? -->
<g id="node4" class="node">
<title>0 at pos (0.0, 0.05, 0.0)?</title>
<ellipse fill="gray" stroke="black" cx="132" cy="-234" rx="60.09" ry="18"/>
<text text-anchor="middle" x="132" y="-231.8" font-family="Times,serif" font-size="9.00">0 at pos (0.0, 0.05, 0.0)?</text>
</g>
<!-- Fallback&#45;&gt;0 at pos (0.0, 0.05, 0.0)? -->
<g id="edge3" class="edge">
<title>Fallback&#45;&gt;0 at pos (0.0, 0.05, 0.0)?</title>
<path fill="none" stroke="black" d="M174.73,-288.41C167.92,-279.91 159.5,-269.37 151.93,-259.91"/>
<polygon fill="black" stroke="black" points="154.55,-257.58 145.56,-251.96 149.08,-261.95 154.55,-257.58"/>
</g>
<!-- Sequence* -->
<g id="node5" class="node">
<title>Sequence*</title>
<polygon fill="cyan" stroke="black" points="278.24,-226.54 278.24,-241.46 258.18,-252 229.82,-252 209.76,-241.46 209.76,-226.54 229.82,-216 258.18,-216 278.24,-226.54"/>
<text text-anchor="middle" x="244" y="-231.8" font-family="Times,serif" font-size="9.00">Sequence*</text>
</g>
<!-- Fallback&#45;&gt;Sequence* -->
<g id="edge4" class="edge">
<title>Fallback&#45;&gt;Sequence*</title>
<path fill="none" stroke="black" d="M201.27,-288.41C207.98,-280.03 216.25,-269.68 223.73,-260.33"/>
<polygon fill="black" stroke="black" points="226.53,-262.44 230.04,-252.45 221.06,-258.07 226.53,-262.44"/>
</g>
<!-- pick 0! -->
<g id="node6" class="node">
<title>pick 0!</title>
<ellipse fill="gray" stroke="black" cx="161" cy="-162" rx="27" ry="18"/>
<text text-anchor="middle" x="161" y="-159.8" font-family="Times,serif" font-size="9.00">pick 0!</text>
</g>
<!-- Sequence*&#45;&gt;pick 0! -->
<g id="edge5" class="edge">
<title>Sequence*&#45;&gt;pick 0!</title>
<path fill="none" stroke="black" d="M225.99,-217.81C213.91,-207.62 197.87,-194.09 184.74,-183.02"/>
<polygon fill="black" stroke="black" points="186.91,-180.27 177.01,-176.5 182.4,-185.63 186.91,-180.27"/>
</g>
<!-- place at (0.0, 0.05, 0.0)! -->
<g id="node7" class="node">
<title>place at (0.0, 0.05, 0.0)!</title>
<ellipse fill="gray" stroke="black" cx="264" cy="-162" rx="58.13" ry="18"/>
<text text-anchor="middle" x="264" y="-159.8" font-family="Times,serif" font-size="9.00">place at (0.0, 0.05, 0.0)!</text>
</g>
<!-- Sequence*&#45;&gt;place at (0.0, 0.05, 0.0)! -->
<g id="edge6" class="edge">
<title>Sequence*&#45;&gt;place at (0.0, 0.05, 0.0)!</title>
<path fill="none" stroke="black" d="M248.94,-215.7C251.17,-207.9 253.85,-198.51 256.33,-189.83"/>
<polygon fill="black" stroke="black" points="259.73,-190.68 259.11,-180.1 253,-188.76 259.73,-190.68"/>
</g>
<!-- 1 at pos (0.0, 0.05, 0.0192)? -->
<g id="node9" class="node">
<title>1 at pos (0.0, 0.05, 0.0192)?</title>
<ellipse fill="gray" stroke="black" cx="364" cy="-234" rx="67.6" ry="18"/>
<text text-anchor="middle" x="364" y="-231.8" font-family="Times,serif" font-size="9.00">1 at pos (0.0, 0.05, 0.0192)?</text>
</g>
<!-- Fallback*&#45;&gt;1 at pos (0.0, 0.05, 0.0192)? -->
<g id="edge8" class="edge">
<title>Fallback*&#45;&gt;1 at pos (0.0, 0.05, 0.0192)?</title>
<path fill="none" stroke="black" d="M410.54,-288.41C403.06,-279.82 393.77,-269.16 385.46,-259.63"/>
<polygon fill="black" stroke="black" points="387.98,-257.2 378.78,-251.96 382.71,-261.79 387.98,-257.2"/>
</g>
<!-- Sequence** -->
<g id="node10" class="node">
<title>Sequence**</title>
<polygon fill="cyan" stroke="black" points="522.74,-226.54 522.74,-241.46 501.22,-252 470.78,-252 449.26,-241.46 449.26,-226.54 470.78,-216 501.22,-216 522.74,-226.54"/>
<text text-anchor="middle" x="486" y="-231.8" font-family="Times,serif" font-size="9.00">Sequence**</text>
</g>
<!-- Fallback*&#45;&gt;Sequence** -->
<g id="edge9" class="edge">
<title>Fallback*&#45;&gt;Sequence**</title>
<path fill="none" stroke="black" d="M439.46,-288.41C446.83,-279.95 455.96,-269.47 464.17,-260.05"/>
<polygon fill="black" stroke="black" points="466.87,-262.29 470.8,-252.45 461.59,-257.69 466.87,-262.29"/>
</g>
<!-- pick 2! -->
<g id="node17" class="node">
<title>pick 2!</title>
<ellipse fill="gray" stroke="black" cx="568" cy="-234" rx="27" ry="18"/>
<text text-anchor="middle" x="568" y="-231.8" font-family="Times,serif" font-size="9.00">pick 2!</text>
</g>
<!-- Fallback*&#45;&gt;pick 2! -->
<g id="edge16" class="edge">
<title>Fallback*&#45;&gt;pick 2!</title>
<path fill="none" stroke="black" d="M448.29,-293.6C472.54,-281.73 510.63,-263.08 537.32,-250.02"/>
<polygon fill="black" stroke="black" points="539.14,-253.02 546.59,-245.48 536.07,-246.74 539.14,-253.02"/>
</g>
<!-- Fallback** -->
<g id="node11" class="node">
<title>Fallback**</title>
<polygon fill="cyan" stroke="black" points="474.99,-154.54 474.99,-169.46 454.49,-180 425.51,-180 405.01,-169.46 405.01,-154.54 425.51,-144 454.49,-144 474.99,-154.54"/>
<text text-anchor="middle" x="440" y="-159.8" font-family="Times,serif" font-size="9.00">Fallback**</text>
</g>
<!-- Sequence**&#45;&gt;Fallback** -->
<g id="edge10" class="edge">
<title>Sequence**&#45;&gt;Fallback**</title>
<path fill="none" stroke="black" d="M474.63,-215.7C469.28,-207.56 462.8,-197.69 456.89,-188.7"/>
<polygon fill="black" stroke="black" points="459.66,-186.54 451.24,-180.1 453.81,-190.38 459.66,-186.54"/>
</g>
<!-- apply force 1! -->
<g id="node16" class="node">
<title>apply force 1!</title>
<ellipse fill="gray" stroke="black" cx="531" cy="-162" rx="38.21" ry="18"/>
<text text-anchor="middle" x="531" y="-159.8" font-family="Times,serif" font-size="9.00">apply force 1!</text>
</g>
<!-- Sequence**&#45;&gt;apply force 1! -->
<g id="edge15" class="edge">
<title>Sequence**&#45;&gt;apply force 1!</title>
<path fill="none" stroke="black" d="M497.12,-215.7C502.43,-207.44 508.89,-197.39 514.74,-188.3"/>
<polygon fill="black" stroke="black" points="517.85,-189.93 520.31,-179.62 511.96,-186.14 517.85,-189.93"/>
</g>
<!-- 1 on 0? -->
<g id="node12" class="node">
<title>1 on 0?</title>
<ellipse fill="gray" stroke="black" cx="398" cy="-90" rx="27" ry="18"/>
<text text-anchor="middle" x="398" y="-87.8" font-family="Times,serif" font-size="9.00">1 on 0?</text>
</g>
<!-- Fallback**&#45;&gt;1 on 0? -->
<g id="edge11" class="edge">
<title>Fallback**&#45;&gt;1 on 0?</title>
<path fill="none" stroke="black" d="M429.62,-143.7C424.59,-135.32 418.46,-125.1 412.94,-115.9"/>
<polygon fill="black" stroke="black" points="415.83,-113.92 407.69,-107.14 409.83,-117.52 415.83,-113.92"/>
</g>
<!-- Sequence*** -->
<g id="node13" class="node">
<title>Sequence***</title>
<polygon fill="cyan" stroke="black" points="522.99,-82.54 522.99,-97.46 499.56,-108 466.44,-108 443.01,-97.46 443.01,-82.54 466.44,-72 499.56,-72 522.99,-82.54"/>
<text text-anchor="middle" x="483" y="-87.8" font-family="Times,serif" font-size="9.00">Sequence***</text>
</g>
<!-- Fallback**&#45;&gt;Sequence*** -->
<g id="edge12" class="edge">
<title>Fallback**&#45;&gt;Sequence***</title>
<path fill="none" stroke="black" d="M450.63,-143.7C455.63,-135.56 461.69,-125.69 467.21,-116.7"/>
<polygon fill="black" stroke="black" points="470.24,-118.46 472.49,-108.1 464.28,-114.79 470.24,-118.46"/>
</g>
<!-- pick 1! -->
<g id="node14" class="node">
<title>pick 1!</title>
<ellipse fill="gray" stroke="black" cx="444" cy="-18" rx="27" ry="18"/>
<text text-anchor="middle" x="444" y="-15.8" font-family="Times,serif" font-size="9.00">pick 1!</text>
</g>
<!-- Sequence***&#45;&gt;pick 1! -->
<g id="edge13" class="edge">
<title>Sequence***&#45;&gt;pick 1!</title>
<path fill="none" stroke="black" d="M473.36,-71.7C468.69,-63.32 463,-53.1 457.87,-43.9"/>
<polygon fill="black" stroke="black" points="460.92,-42.18 452.99,-35.14 454.8,-45.58 460.92,-42.18"/>
</g>
<!-- place on 0! -->
<g id="node15" class="node">
<title>place on 0!</title>
<ellipse fill="gray" stroke="black" cx="521" cy="-18" rx="32.16" ry="18"/>
<text text-anchor="middle" x="521" y="-15.8" font-family="Times,serif" font-size="9.00">place on 0!</text>
</g>
<!-- Sequence***&#45;&gt;place on 0! -->
<g id="edge14" class="edge">
<title>Sequence***&#45;&gt;place on 0!</title>
<path fill="none" stroke="black" d="M492.39,-71.7C496.83,-63.52 502.22,-53.6 507.11,-44.58"/>
<polygon fill="black" stroke="black" points="510.28,-46.08 511.98,-35.62 504.13,-42.74 510.28,-46.08"/>
</g>
</g>
</svg>
