<?xml version="1.0" encoding="UTF-8" standalone="no"?>
<!DOCTYPE svg PUBLIC "-//W3C//DTD SVG 1.1//EN"
 "http://www.w3.org/Graphics/SVG/1.1/DTD/svg11.dtd">
<!-- Generated by graphviz version 2.43.0 (0)
 -->
<!-- Title: pastafarianism Pages: 1 -->
<svg width="862pt" height="476pt"
 viewBox="0.00 0.00 861.69 476.00" xmlns="http://www.w3.org/2000/svg" xmlns:xlink="http://www.w3.org/1999/xlink">
<g id="graph0" class="graph" transform="scale(1 1) rotate(0) translate(4 472)">
<title>pastafarianism</title>
<polygon fill="white" stroke="transparent" points="-4,4 -4,-472 857.69,-472 857.69,4 -4,4"/>
<!-- Sequence -->
<g id="node1" class="node">
<title>Sequence</title>
<polygon fill="cyan" stroke="black" points="384.54,-442.54 384.54,-457.46 366.09,-468 340,-468 321.55,-457.46 321.55,-442.54 340,-432 366.09,-432 384.54,-442.54"/>
<text text-anchor="middle" x="353.04" y="-447.8" font-family="Times,serif" font-size="9.00">Sequence</text>
</g>
<!-- Fallback -->
<g id="node2" class="node">
<title>Fallback</title>
<polygon fill="cyan" stroke="black" points="201.29,-370.54 201.29,-385.46 184.16,-396 159.93,-396 142.8,-385.46 142.8,-370.54 159.93,-360 184.16,-360 201.29,-370.54"/>
<text text-anchor="middle" x="172.04" y="-375.8" font-family="Times,serif" font-size="9.00">Fallback</text>
</g>
<!-- Sequence&#45;&gt;Fallback -->
<g id="edge1" class="edge">
<title>Sequence&#45;&gt;Fallback</title>
<path fill="none" stroke="black" d="M327.5,-439.12C295.7,-426.82 241.29,-405.78 206,-392.13"/>
<polygon fill="black" stroke="black" points="207.18,-388.84 196.59,-388.49 204.66,-395.37 207.18,-388.84"/>
</g>
<!-- Fallback** -->
<g id="node9" class="node">
<title>Fallback**</title>
<polygon fill="cyan" stroke="black" points="388.04,-370.54 388.04,-385.46 367.54,-396 338.55,-396 318.05,-385.46 318.05,-370.54 338.55,-360 367.54,-360 388.04,-370.54"/>
<text text-anchor="middle" x="353.04" y="-375.8" font-family="Times,serif" font-size="9.00">Fallback**</text>
</g>
<!-- Sequence&#45;&gt;Fallback** -->
<g id="edge8" class="edge">
<title>Sequence&#45;&gt;Fallback**</title>
<path fill="none" stroke="black" d="M353.04,-431.7C353.04,-423.98 353.04,-414.71 353.04,-406.11"/>
<polygon fill="black" stroke="black" points="356.54,-406.1 353.04,-396.1 349.54,-406.1 356.54,-406.1"/>
</g>
<!-- Fallback***** -->
<g id="node20" class="node">
<title>Fallback*****</title>
<polygon fill="cyan" stroke="black" points="579.28,-370.54 579.28,-385.46 553.95,-396 518.13,-396 492.81,-385.46 492.81,-370.54 518.13,-360 553.95,-360 579.28,-370.54"/>
<text text-anchor="middle" x="536.04" y="-375.8" font-family="Times,serif" font-size="9.00">Fallback*****</text>
</g>
<!-- Sequence&#45;&gt;Fallback***** -->
<g id="edge19" class="edge">
<title>Sequence&#45;&gt;Fallback*****</title>
<path fill="none" stroke="black" d="M378.88,-439.12C409.22,-427.51 459.95,-408.11 495.54,-394.49"/>
<polygon fill="black" stroke="black" points="497.06,-397.66 505.15,-390.82 494.56,-391.12 497.06,-397.66"/>
</g>
<!-- 0 at pos (0.0, 0.05, 0.0)? -->
<g id="node3" class="node">
<title>0 at pos (0.0, 0.05, 0.0)?</title>
<ellipse fill="gray" stroke="black" cx="60.04" cy="-306" rx="60.09" ry="18"/>
<text text-anchor="middle" x="60.04" y="-303.8" font-family="Times,serif" font-size="9.00">0 at pos (0.0, 0.05, 0.0)?</text>
</g>
<!-- Fallback&#45;&gt;0 at pos (0.0, 0.05, 0.0)? -->
<g id="edge2" class="edge">
<title>Fallback&#45;&gt;0 at pos (0.0, 0.05, 0.0)?</title>
<path fill="none" stroke="black" d="M152.28,-364.65C136.12,-354.55 112.92,-340.05 93.82,-328.11"/>
<polygon fill="black" stroke="black" points="95.44,-325 85.11,-322.66 91.73,-330.93 95.44,-325"/>
</g>
<!-- Sequence* -->
<g id="node4" class="node">
<title>Sequence*</title>
<polygon fill="cyan" stroke="black" points="206.29,-298.54 206.29,-313.46 186.23,-324 157.86,-324 137.8,-313.46 137.8,-298.54 157.86,-288 186.23,-288 206.29,-298.54"/>
<text text-anchor="middle" x="172.04" y="-303.8" font-family="Times,serif" font-size="9.00">Sequence*</text>
</g>
<!-- Fallback&#45;&gt;Sequence* -->
<g id="edge3" class="edge">
<title>Fallback&#45;&gt;Sequence*</title>
<path fill="none" stroke="black" d="M172.04,-359.7C172.04,-351.98 172.04,-342.71 172.04,-334.11"/>
<polygon fill="black" stroke="black" points="175.54,-334.1 172.04,-324.1 168.54,-334.1 175.54,-334.1"/>
</g>
<!-- Fallback* -->
<g id="node5" class="node">
<title>Fallback*</title>
<polygon fill="cyan" stroke="black" points="164.79,-226.54 164.79,-241.46 146.19,-252 119.9,-252 101.3,-241.46 101.3,-226.54 119.9,-216 146.19,-216 164.79,-226.54"/>
<text text-anchor="middle" x="133.04" y="-231.8" font-family="Times,serif" font-size="9.00">Fallback*</text>
</g>
<!-- Sequence*&#45;&gt;Fallback* -->
<g id="edge4" class="edge">
<title>Sequence*&#45;&gt;Fallback*</title>
<path fill="none" stroke="black" d="M162.4,-287.7C157.92,-279.64 152.49,-269.89 147.52,-260.98"/>
<polygon fill="black" stroke="black" points="150.5,-259.14 142.57,-252.1 144.38,-262.54 150.5,-259.14"/>
</g>
<!-- place at (0.0, 0.05, 0.0)! -->
<g id="node8" class="node">
<title>place at (0.0, 0.05, 0.0)!</title>
<ellipse fill="gray" stroke="black" cx="241.04" cy="-234" rx="58.13" ry="18"/>
<text text-anchor="middle" x="241.04" y="-231.8" font-family="Times,serif" font-size="9.00">place at (0.0, 0.05, 0.0)!</text>
</g>
<!-- Sequence*&#45;&gt;place at (0.0, 0.05, 0.0)! -->
<g id="edge7" class="edge">
<title>Sequence*&#45;&gt;place at (0.0, 0.05, 0.0)!</title>
<path fill="none" stroke="black" d="M188.05,-288.76C196.8,-279.88 207.82,-268.71 217.53,-258.85"/>
<polygon fill="black" stroke="black" points="220.12,-261.21 224.65,-251.63 215.14,-256.3 220.12,-261.21"/>
</g>
<!-- picked 0? -->
<g id="node6" class="node">
<title>picked 0?</title>
<ellipse fill="gray" stroke="black" cx="104.04" cy="-162" rx="28.74" ry="18"/>
<text text-anchor="middle" x="104.04" y="-159.8" font-family="Times,serif" font-size="9.00">picked 0?</text>
</g>
<!-- Fallback*&#45;&gt;picked 0? -->
<g id="edge5" class="edge">
<title>Fallback*&#45;&gt;picked 0?</title>
<path fill="none" stroke="black" d="M125.88,-215.7C122.53,-207.61 118.47,-197.81 114.76,-188.87"/>
<polygon fill="black" stroke="black" points="117.99,-187.52 110.93,-179.62 111.52,-190.2 117.99,-187.52"/>
</g>
<!-- pick 0! -->
<g id="node7" class="node">
<title>pick 0!</title>
<ellipse fill="gray" stroke="black" cx="178.04" cy="-162" rx="27" ry="18"/>
<text text-anchor="middle" x="178.04" y="-159.8" font-family="Times,serif" font-size="9.00">pick 0!</text>
</g>
<!-- Fallback*&#45;&gt;pick 0! -->
<g id="edge6" class="edge">
<title>Fallback*&#45;&gt;pick 0!</title>
<path fill="none" stroke="black" d="M144.17,-215.7C149.61,-207.23 156.26,-196.89 162.22,-187.61"/>
<polygon fill="black" stroke="black" points="165.2,-189.45 167.67,-179.14 159.31,-185.66 165.2,-189.45"/>
</g>
<!-- 1 at pos (0.0, 0.05, 0.0192)? -->
<g id="node10" class="node">
<title>1 at pos (0.0, 0.05, 0.0192)?</title>
<ellipse fill="gray" stroke="black" cx="292.04" cy="-306" rx="67.6" ry="18"/>
<text text-anchor="middle" x="292.04" y="-303.8" font-family="Times,serif" font-size="9.00">1 at pos (0.0, 0.05, 0.0192)?</text>
</g>
<!-- Fallback**&#45;&gt;1 at pos (0.0, 0.05, 0.0192)? -->
<g id="edge9" class="edge">
<title>Fallback**&#45;&gt;1 at pos (0.0, 0.05, 0.0192)?</title>
<path fill="none" stroke="black" d="M338.28,-360.05C330.79,-351.46 321.55,-340.86 313.31,-331.4"/>
<polygon fill="black" stroke="black" points="315.88,-329.03 306.67,-323.79 310.61,-333.63 315.88,-329.03"/>
</g>
<!-- Sequence** -->
<g id="node11" class="node">
<title>Sequence**</title>
<polygon fill="cyan" stroke="black" points="450.79,-298.54 450.79,-313.46 429.26,-324 398.83,-324 377.3,-313.46 377.3,-298.54 398.83,-288 429.26,-288 450.79,-298.54"/>
<text text-anchor="middle" x="414.04" y="-303.8" font-family="Times,serif" font-size="9.00">Sequence**</text>
</g>
<!-- Fallback**&#45;&gt;Sequence** -->
<g id="edge10" class="edge">
<title>Fallback**&#45;&gt;Sequence**</title>
<path fill="none" stroke="black" d="M367.81,-360.05C375.19,-351.58 384.27,-341.17 392.42,-331.82"/>
<polygon fill="black" stroke="black" points="395.06,-334.11 398.99,-324.28 389.78,-329.51 395.06,-334.11"/>
</g>
<!-- Fallback*** -->
<g id="node12" class="node">
<title>Fallback***</title>
<polygon fill="cyan" stroke="black" points="402.53,-226.54 402.53,-241.46 380.57,-252 349.52,-252 327.55,-241.46 327.55,-226.54 349.52,-216 380.57,-216 402.53,-226.54"/>
<text text-anchor="middle" x="365.04" y="-231.8" font-family="Times,serif" font-size="9.00">Fallback***</text>
</g>
<!-- Sequence**&#45;&gt;Fallback*** -->
<g id="edge11" class="edge">
<title>Sequence**&#45;&gt;Fallback***</title>
<path fill="none" stroke="black" d="M401.93,-287.7C396.18,-279.47 389.18,-269.48 382.84,-260.42"/>
<polygon fill="black" stroke="black" points="385.62,-258.29 377.02,-252.1 379.88,-262.3 385.62,-258.29"/>
</g>
<!-- apply force 1! -->
<g id="node19" class="node">
<title>apply force 1!</title>
<ellipse fill="gray" stroke="black" cx="459.04" cy="-234" rx="38.21" ry="18"/>
<text text-anchor="middle" x="459.04" y="-231.8" font-family="Times,serif" font-size="9.00">apply force 1!</text>
</g>
<!-- Sequence**&#45;&gt;apply force 1! -->
<g id="edge18" class="edge">
<title>Sequence**&#45;&gt;apply force 1!</title>
<path fill="none" stroke="black" d="M425.17,-287.7C430.48,-279.44 436.93,-269.39 442.78,-260.3"/>
<polygon fill="black" stroke="black" points="445.9,-261.93 448.36,-251.62 440.01,-258.14 445.9,-261.93"/>
</g>
<!-- 1 on 0? -->
<g id="node13" class="node">
<title>1 on 0?</title>
<ellipse fill="gray" stroke="black" cx="284.04" cy="-162" rx="27" ry="18"/>
<text text-anchor="middle" x="284.04" y="-159.8" font-family="Times,serif" font-size="9.00">1 on 0?</text>
</g>
<!-- Fallback***&#45;&gt;1 on 0? -->
<g id="edge12" class="edge">
<title>Fallback***&#45;&gt;1 on 0?</title>
<path fill="none" stroke="black" d="M346.66,-217.12C335.1,-207.12 320.07,-194.13 307.63,-183.38"/>
<polygon fill="black" stroke="black" points="309.75,-180.59 299.89,-176.7 305.17,-185.88 309.75,-180.59"/>
</g>
<!-- Sequence*** -->
<g id="node14" class="node">
<title>Sequence***</title>
<polygon fill="cyan" stroke="black" points="409.03,-154.54 409.03,-169.46 385.61,-180 352.48,-180 329.05,-169.46 329.05,-154.54 352.48,-144 385.61,-144 409.03,-154.54"/>
<text text-anchor="middle" x="369.04" y="-159.8" font-family="Times,serif" font-size="9.00">Sequence***</text>
</g>
<!-- Fallback***&#45;&gt;Sequence*** -->
<g id="edge13" class="edge">
<title>Fallback***&#45;&gt;Sequence***</title>
<path fill="none" stroke="black" d="M366.03,-215.7C366.47,-207.98 367,-198.71 367.5,-190.11"/>
<polygon fill="black" stroke="black" points="370.99,-190.29 368.07,-180.1 364,-189.89 370.99,-190.29"/>
</g>
<!-- Fallback**** -->
<g id="node15" class="node">
<title>Fallback****</title>
<polygon fill="cyan" stroke="black" points="349.78,-82.54 349.78,-97.46 325.92,-108 292.17,-108 268.3,-97.46 268.3,-82.54 292.17,-72 325.92,-72 349.78,-82.54"/>
<text text-anchor="middle" x="309.04" y="-87.8" font-family="Times,serif" font-size="9.00">Fallback****</text>
</g>
<!-- Sequence***&#45;&gt;Fallback**** -->
<g id="edge14" class="edge">
<title>Sequence***&#45;&gt;Fallback****</title>
<path fill="none" stroke="black" d="M354.21,-143.7C347.02,-135.3 338.25,-125.07 330.35,-115.86"/>
<polygon fill="black" stroke="black" points="332.87,-113.42 323.71,-108.1 327.56,-117.97 332.87,-113.42"/>
</g>
<!-- place on 0! -->
<g id="node18" class="node">
<title>place on 0!</title>
<ellipse fill="gray" stroke="black" cx="400.04" cy="-90" rx="32.16" ry="18"/>
<text text-anchor="middle" x="400.04" y="-87.8" font-family="Times,serif" font-size="9.00">place on 0!</text>
</g>
<!-- Sequence***&#45;&gt;place on 0! -->
<g id="edge17" class="edge">
<title>Sequence***&#45;&gt;place on 0!</title>
<path fill="none" stroke="black" d="M376.71,-143.7C380.29,-135.61 384.63,-125.81 388.59,-116.87"/>
<polygon fill="black" stroke="black" points="391.83,-118.18 392.68,-107.62 385.43,-115.35 391.83,-118.18"/>
</g>
<!-- picked 1? -->
<g id="node16" class="node">
<title>picked 1?</title>
<ellipse fill="gray" stroke="black" cx="293.04" cy="-18" rx="28.74" ry="18"/>
<text text-anchor="middle" x="293.04" y="-15.8" font-family="Times,serif" font-size="9.00">picked 1?</text>
</g>
<!-- Fallback****&#45;&gt;picked 1? -->
<g id="edge15" class="edge">
<title>Fallback****&#45;&gt;picked 1?</title>
<path fill="none" stroke="black" d="M305.09,-71.7C303.33,-63.98 301.21,-54.71 299.24,-46.11"/>
<polygon fill="black" stroke="black" points="302.59,-45.07 296.95,-36.1 295.77,-46.63 302.59,-45.07"/>
</g>
<!-- pick 1! -->
<g id="node17" class="node">
<title>pick 1!</title>
<ellipse fill="gray" stroke="black" cx="367.04" cy="-18" rx="27" ry="18"/>
<text text-anchor="middle" x="367.04" y="-15.8" font-family="Times,serif" font-size="9.00">pick 1!</text>
</g>
<!-- Fallback****&#45;&gt;pick 1! -->
<g id="edge16" class="edge">
<title>Fallback****&#45;&gt;pick 1!</title>
<path fill="none" stroke="black" d="M323.38,-71.7C330.82,-62.71 340.02,-51.62 348.04,-41.93"/>
<polygon fill="black" stroke="black" points="350.76,-44.14 354.45,-34.2 345.37,-39.67 350.76,-44.14"/>
</g>
<!-- 2 at pos (0.0, 0.05, 0.0384)? -->
<g id="node21" class="node">
<title>2 at pos (0.0, 0.05, 0.0384)?</title>
<ellipse fill="gray" stroke="black" cx="536.04" cy="-306" rx="67.6" ry="18"/>
<text text-anchor="middle" x="536.04" y="-303.8" font-family="Times,serif" font-size="9.00">2 at pos (0.0, 0.05, 0.0384)?</text>
</g>
<!-- Fallback*****&#45;&gt;2 at pos (0.0, 0.05, 0.0384)? -->
<g id="edge20" class="edge">
<title>Fallback*****&#45;&gt;2 at pos (0.0, 0.05, 0.0384)?</title>
<path fill="none" stroke="black" d="M536.04,-359.7C536.04,-351.98 536.04,-342.71 536.04,-334.11"/>
<polygon fill="black" stroke="black" points="539.54,-334.1 536.04,-324.1 532.54,-334.1 539.54,-334.1"/>
</g>
<!-- Sequence**** -->
<g id="node22" class="node">
<title>Sequence****</title>
<polygon fill="cyan" stroke="black" points="706.53,-298.54 706.53,-313.46 681.64,-324 646.44,-324 621.56,-313.46 621.56,-298.54 646.44,-288 681.64,-288 706.53,-298.54"/>
<text text-anchor="middle" x="664.04" y="-303.8" font-family="Times,serif" font-size="9.00">Sequence****</text>
</g>
<!-- Fallback*****&#45;&gt;Sequence**** -->
<g id="edge21" class="edge">
<title>Fallback*****&#45;&gt;Sequence****</title>
<path fill="none" stroke="black" d="M561.64,-363C581.17,-352.32 608.28,-337.49 629.7,-325.78"/>
<polygon fill="black" stroke="black" points="631.4,-328.84 638.49,-320.97 628.04,-322.7 631.4,-328.84"/>
</g>
<!-- Fallback****** -->
<g id="node23" class="node">
<title>Fallback******</title>
<polygon fill="cyan" stroke="black" points="676.53,-226.54 676.53,-241.46 649.3,-252 610.79,-252 583.56,-241.46 583.56,-226.54 610.79,-216 649.3,-216 676.53,-226.54"/>
<text text-anchor="middle" x="630.04" y="-231.8" font-family="Times,serif" font-size="9.00">Fallback******</text>
</g>
<!-- Sequence****&#45;&gt;Fallback****** -->
<g id="edge22" class="edge">
<title>Sequence****&#45;&gt;Fallback******</title>
<path fill="none" stroke="black" d="M655.64,-287.7C651.77,-279.73 647.09,-270.1 642.8,-261.26"/>
<polygon fill="black" stroke="black" points="645.87,-259.57 638.35,-252.1 639.57,-262.63 645.87,-259.57"/>
</g>
<!-- apply force 2! -->
<g id="node34" class="node">
<title>apply force 2!</title>
<ellipse fill="gray" stroke="black" cx="732.04" cy="-234" rx="38.21" ry="18"/>
<text text-anchor="middle" x="732.04" y="-231.8" font-family="Times,serif" font-size="9.00">apply force 2!</text>
</g>
<!-- Sequence****&#45;&gt;apply force 2! -->
<g id="edge33" class="edge">
<title>Sequence****&#45;&gt;apply force 2!</title>
<path fill="none" stroke="black" d="M680.85,-287.7C689.54,-278.75 700.27,-267.71 709.65,-258.06"/>
<polygon fill="black" stroke="black" points="712.36,-260.28 716.82,-250.67 707.34,-255.41 712.36,-260.28"/>
</g>
<!-- 2 on 1? -->
<g id="node24" class="node">
<title>2 on 1?</title>
<ellipse fill="gray" stroke="black" cx="574.04" cy="-162" rx="27" ry="18"/>
<text text-anchor="middle" x="574.04" y="-159.8" font-family="Times,serif" font-size="9.00">2 on 1?</text>
</g>
<!-- Fallback******&#45;&gt;2 on 1? -->
<g id="edge23" class="edge">
<title>Fallback******&#45;&gt;2 on 1?</title>
<path fill="none" stroke="black" d="M616.2,-215.7C609.09,-206.8 600.32,-195.84 592.62,-186.22"/>
<polygon fill="black" stroke="black" points="595.19,-183.82 586.21,-178.2 589.72,-188.2 595.19,-183.82"/>
</g>
<!-- Sequence***** -->
<g id="node25" class="node">
<title>Sequence*****</title>
<polygon fill="cyan" stroke="black" points="710.78,-154.54 710.78,-169.46 683.99,-180 646.1,-180 619.31,-169.46 619.31,-154.54 646.1,-144 683.99,-144 710.78,-154.54"/>
<text text-anchor="middle" x="665.04" y="-159.8" font-family="Times,serif" font-size="9.00">Sequence*****</text>
</g>
<!-- Fallback******&#45;&gt;Sequence***** -->
<g id="edge24" class="edge">
<title>Fallback******&#45;&gt;Sequence*****</title>
<path fill="none" stroke="black" d="M638.7,-215.7C642.68,-207.73 647.49,-198.1 651.91,-189.26"/>
<polygon fill="black" stroke="black" points="655.15,-190.61 656.49,-180.1 648.89,-187.48 655.15,-190.61"/>
</g>
<!-- Fallback******* -->
<g id="node26" class="node">
<title>Fallback*******</title>
<polygon fill="cyan" stroke="black" points="562.03,-82.54 562.03,-97.46 533.34,-108 492.75,-108 464.06,-97.46 464.06,-82.54 492.75,-72 533.34,-72 562.03,-82.54"/>
<text text-anchor="middle" x="513.04" y="-87.8" font-family="Times,serif" font-size="9.00">Fallback*******</text>
</g>
<!-- Sequence*****&#45;&gt;Fallback******* -->
<g id="edge25" class="edge">
<title>Sequence*****&#45;&gt;Fallback*******</title>
<path fill="none" stroke="black" d="M636.1,-147.67C612.24,-136.68 578.18,-121 551.94,-108.91"/>
<polygon fill="black" stroke="black" points="553.21,-105.64 542.66,-104.64 550.28,-112 553.21,-105.64"/>
</g>
<!-- Fallback******** -->
<g id="node29" class="node">
<title>Fallback********</title>
<polygon fill="cyan" stroke="black" points="683.78,-82.54 683.78,-97.46 653.47,-108 610.61,-108 580.31,-97.46 580.31,-82.54 610.61,-72 653.47,-72 683.78,-82.54"/>
<text text-anchor="middle" x="632.04" y="-87.8" font-family="Times,serif" font-size="9.00">Fallback********</text>
</g>
<!-- Sequence*****&#45;&gt;Fallback******** -->
<g id="edge28" class="edge">
<title>Sequence*****&#45;&gt;Fallback********</title>
<path fill="none" stroke="black" d="M656.89,-143.7C653.13,-135.73 648.59,-126.1 644.43,-117.26"/>
<polygon fill="black" stroke="black" points="647.54,-115.66 640.11,-108.1 641.21,-118.64 647.54,-115.66"/>
</g>
<!-- place on 1! -->
<g id="node32" class="node">
<title>place on 1!</title>
<ellipse fill="gray" stroke="black" cx="734.04" cy="-90" rx="32.16" ry="18"/>
<text text-anchor="middle" x="734.04" y="-87.8" font-family="Times,serif" font-size="9.00">place on 1!</text>
</g>
<!-- Sequence*****&#45;&gt;place on 1! -->
<g id="edge31" class="edge">
<title>Sequence*****&#45;&gt;place on 1!</title>
<path fill="none" stroke="black" d="M682.1,-143.7C691.13,-134.53 702.33,-123.18 712.01,-113.35"/>
<polygon fill="black" stroke="black" points="714.53,-115.78 719.06,-106.2 709.55,-110.87 714.53,-115.78"/>
</g>
<!-- place on 0!* -->
<g id="node33" class="node">
<title>place on 0!*</title>
<ellipse fill="gray" stroke="black" cx="819.04" cy="-90" rx="34.78" ry="18"/>
<text text-anchor="middle" x="819.04" y="-87.8" font-family="Times,serif" font-size="9.00">place on 0!*</text>
</g>
<!-- Sequence*****&#45;&gt;place on 0!* -->
<g id="edge32" class="edge">
<title>Sequence*****&#45;&gt;place on 0!*</title>
<path fill="none" stroke="black" d="M694.01,-147.83C719.73,-136.14 757.36,-119.04 784.61,-106.65"/>
<polygon fill="black" stroke="black" points="786.12,-109.81 793.78,-102.48 783.23,-103.44 786.12,-109.81"/>
</g>
<!-- picked 2? -->
<g id="node27" class="node">
<title>picked 2?</title>
<ellipse fill="gray" stroke="black" cx="454.04" cy="-18" rx="28.74" ry="18"/>
<text text-anchor="middle" x="454.04" y="-15.8" font-family="Times,serif" font-size="9.00">picked 2?</text>
</g>
<!-- Fallback*******&#45;&gt;picked 2? -->
<g id="edge26" class="edge">
<title>Fallback*******&#45;&gt;picked 2?</title>
<path fill="none" stroke="black" d="M498.46,-71.7C490.89,-62.71 481.54,-51.62 473.37,-41.93"/>
<polygon fill="black" stroke="black" points="475.98,-39.59 466.86,-34.2 470.63,-44.1 475.98,-39.59"/>
</g>
<!-- pick 2! -->
<g id="node28" class="node">
<title>pick 2!</title>
<ellipse fill="gray" stroke="black" cx="528.04" cy="-18" rx="27" ry="18"/>
<text text-anchor="middle" x="528.04" y="-15.8" font-family="Times,serif" font-size="9.00">pick 2!</text>
</g>
<!-- Fallback*******&#45;&gt;pick 2! -->
<g id="edge27" class="edge">
<title>Fallback*******&#45;&gt;pick 2!</title>
<path fill="none" stroke="black" d="M516.75,-71.7C518.41,-63.98 520.39,-54.71 522.23,-46.11"/>
<polygon fill="black" stroke="black" points="525.71,-46.62 524.38,-36.1 518.86,-45.15 525.71,-46.62"/>
</g>
<!-- place on 2! -->
<g id="node30" class="node">
<title>place on 2!</title>
<ellipse fill="gray" stroke="black" cx="611.04" cy="-18" rx="32.16" ry="18"/>
<text text-anchor="middle" x="611.04" y="-15.8" font-family="Times,serif" font-size="9.00">place on 2!</text>
</g>
<!-- Fallback********&#45;&gt;place on 2! -->
<g id="edge29" class="edge">
<title>Fallback********&#45;&gt;place on 2!</title>
<path fill="none" stroke="black" d="M626.85,-71.7C624.51,-63.9 621.7,-54.51 619.09,-45.83"/>
<polygon fill="black" stroke="black" points="622.4,-44.68 616.18,-36.1 615.7,-46.69 622.4,-44.68"/>
</g>
<!-- apply force 0! -->
<g id="node31" class="node">
<title>apply force 0!</title>
<ellipse fill="gray" stroke="black" cx="699.04" cy="-18" rx="38.21" ry="18"/>
<text text-anchor="middle" x="699.04" y="-15.8" font-family="Times,serif" font-size="9.00">apply force 0!</text>
</g>
<!-- Fallback********&#45;&gt;apply force 0! -->
<g id="edge30" class="edge">
<title>Fallback********&#45;&gt;apply force 0!</title>
<path fill="none" stroke="black" d="M648.61,-71.7C657.17,-62.75 667.73,-51.71 676.98,-42.06"/>
<polygon fill="black" stroke="black" points="679.66,-44.32 684.04,-34.67 674.6,-39.48 679.66,-44.32"/>
</g>
</g>
</svg>
