<?xml version="1.0" encoding="UTF-8" standalone="no"?>
<!DOCTYPE svg PUBLIC "-//W3C//DTD SVG 1.1//EN"
 "http://www.w3.org/Graphics/SVG/1.1/DTD/svg11.dtd">
<!-- Generated by graphviz version 2.43.0 (0)
 -->
<!-- Title: pastafarianism Pages: 1 -->
<svg width="782pt" height="476pt"
 viewBox="0.00 0.00 782.04 476.00" xmlns="http://www.w3.org/2000/svg" xmlns:xlink="http://www.w3.org/1999/xlink">
<g id="graph0" class="graph" transform="scale(1 1) rotate(0) translate(4 472)">
<title>pastafarianism</title>
<polygon fill="white" stroke="transparent" points="-4,4 -4,-472 778.04,-472 778.04,4 -4,4"/>
<!-- Sequence -->
<g id="node1" class="node">
<title>Sequence</title>
<polygon fill="cyan" stroke="black" points="384.54,-442.54 384.54,-457.46 366.09,-468 340,-468 321.55,-457.46 321.55,-442.54 340,-432 366.09,-432 384.54,-442.54"/>
<text text-anchor="middle" x="353.04" y="-447.8" font-family="Times,serif" font-size="9.00">Sequence</text>
</g>
<!-- Fallback -->
<g id="node2" class="node">
<title>Fallback</title>
<polygon fill="cyan" stroke="black" points="201.29,-370.54 201.29,-385.46 184.16,-396 159.93,-396 142.8,-385.46 142.8,-370.54 159.93,-360 184.16,-360 201.29,-370.54"/>
<text text-anchor="middle" x="172.04" y="-375.8" font-family="Times,serif" font-size="9.00">Fallback</text>
</g>
<!-- Sequence&#45;&gt;Fallback -->
<g id="edge1" class="edge">
<title>Sequence&#45;&gt;Fallback</title>
<path fill="none" stroke="black" d="M327.5,-439.12C295.7,-426.82 241.29,-405.78 206,-392.13"/>
<polygon fill="black" stroke="black" points="207.18,-388.84 196.59,-388.49 204.66,-395.37 207.18,-388.84"/>
</g>
<!-- Fallback** -->
<g id="node9" class="node">
<title>Fallback**</title>
<polygon fill="cyan" stroke="black" points="388.04,-370.54 388.04,-385.46 367.54,-396 338.55,-396 318.05,-385.46 318.05,-370.54 338.55,-360 367.54,-360 388.04,-370.54"/>
<text text-anchor="middle" x="353.04" y="-375.8" font-family="Times,serif" font-size="9.00">Fallback**</text>
</g>
<!-- Sequence&#45;&gt;Fallback** -->
<g id="edge8" class="edge">
<title>Sequence&#45;&gt;Fallback**</title>
<path fill="none" stroke="black" d="M353.04,-431.7C353.04,-423.98 353.04,-414.71 353.04,-406.11"/>
<polygon fill="black" stroke="black" points="356.54,-406.1 353.04,-396.1 349.54,-406.1 356.54,-406.1"/>
</g>
<!-- Fallback***** -->
<g id="node20" class="node">
<title>Fallback*****</title>
<polygon fill="cyan" stroke="black" points="579.28,-370.54 579.28,-385.46 553.95,-396 518.13,-396 492.81,-385.46 492.81,-370.54 518.13,-360 553.95,-360 579.28,-370.54"/>
<text text-anchor="middle" x="536.04" y="-375.8" font-family="Times,serif" font-size="9.00">Fallback*****</text>
</g>
<!-- Sequence&#45;&gt;Fallback***** -->
<g id="edge19" class="edge">
<title>Sequence&#45;&gt;Fallback*****</title>
<path fill="none" stroke="black" d="M378.88,-439.12C409.22,-427.51 459.95,-408.11 495.54,-394.49"/>
<polygon fill="black" stroke="black" points="497.06,-397.66 505.15,-390.82 494.56,-391.12 497.06,-397.66"/>
</g>
<!-- 0 at pos (0.0, 0.05, 0.0)? -->
<g id="node3" class="node">
<title>0 at pos (0.0, 0.05, 0.0)?</title>
<ellipse fill="gray" stroke="black" cx="60.04" cy="-306" rx="60.09" ry="18"/>
<text text-anchor="middle" x="60.04" y="-303.8" font-family="Times,serif" font-size="9.00">0 at pos (0.0, 0.05, 0.0)?</text>
</g>
<!-- Fallback&#45;&gt;0 at pos (0.0, 0.05, 0.0)? -->
<g id="edge2" class="edge">
<title>Fallback&#45;&gt;0 at pos (0.0, 0.05, 0.0)?</title>
<path fill="none" stroke="black" d="M152.28,-364.65C136.12,-354.55 112.92,-340.05 93.82,-328.11"/>
<polygon fill="black" stroke="black" points="95.44,-325 85.11,-322.66 91.73,-330.93 95.44,-325"/>
</g>
<!-- Sequence* -->
<g id="node4" class="node">
<title>Sequence*</title>
<polygon fill="cyan" stroke="black" points="206.29,-298.54 206.29,-313.46 186.23,-324 157.86,-324 137.8,-313.46 137.8,-298.54 157.86,-288 186.23,-288 206.29,-298.54"/>
<text text-anchor="middle" x="172.04" y="-303.8" font-family="Times,serif" font-size="9.00">Sequence*</text>
</g>
<!-- Fallback&#45;&gt;Sequence* -->
<g id="edge3" class="edge">
<title>Fallback&#45;&gt;Sequence*</title>
<path fill="none" stroke="black" d="M172.04,-359.7C172.04,-351.98 172.04,-342.71 172.04,-334.11"/>
<polygon fill="black" stroke="black" points="175.54,-334.1 172.04,-324.1 168.54,-334.1 175.54,-334.1"/>
</g>
<!-- Fallback* -->
<g id="node5" class="node">
<title>Fallback*</title>
<polygon fill="cyan" stroke="black" points="115.79,-226.54 115.79,-241.46 97.19,-252 70.9,-252 52.3,-241.46 52.3,-226.54 70.9,-216 97.19,-216 115.79,-226.54"/>
<text text-anchor="middle" x="84.04" y="-231.8" font-family="Times,serif" font-size="9.00">Fallback*</text>
</g>
<!-- Sequence*&#45;&gt;Fallback* -->
<g id="edge4" class="edge">
<title>Sequence*&#45;&gt;Fallback*</title>
<path fill="none" stroke="black" d="M153.38,-290.15C140.85,-280.18 124.15,-266.9 110.28,-255.87"/>
<polygon fill="black" stroke="black" points="112.08,-252.83 102.08,-249.35 107.73,-258.31 112.08,-252.83"/>
</g>
<!-- place at (0.0, 0.05, 0.0)! -->
<g id="node8" class="node">
<title>place at (0.0, 0.05, 0.0)!</title>
<ellipse fill="gray" stroke="black" cx="192.04" cy="-234" rx="58.13" ry="18"/>
<text text-anchor="middle" x="192.04" y="-231.8" font-family="Times,serif" font-size="9.00">place at (0.0, 0.05, 0.0)!</text>
</g>
<!-- Sequence*&#45;&gt;place at (0.0, 0.05, 0.0)! -->
<g id="edge7" class="edge">
<title>Sequence*&#45;&gt;place at (0.0, 0.05, 0.0)!</title>
<path fill="none" stroke="black" d="M176.99,-287.7C179.22,-279.9 181.9,-270.51 184.38,-261.83"/>
<polygon fill="black" stroke="black" points="187.78,-262.68 187.16,-252.1 181.04,-260.76 187.78,-262.68"/>
</g>
<!-- picked 0? -->
<g id="node6" class="node">
<title>picked 0?</title>
<ellipse fill="gray" stroke="black" cx="47.04" cy="-162" rx="28.74" ry="18"/>
<text text-anchor="middle" x="47.04" y="-159.8" font-family="Times,serif" font-size="9.00">picked 0?</text>
</g>
<!-- Fallback*&#45;&gt;picked 0? -->
<g id="edge5" class="edge">
<title>Fallback*&#45;&gt;picked 0?</title>
<path fill="none" stroke="black" d="M74.9,-215.7C70.58,-207.52 65.33,-197.6 60.57,-188.58"/>
<polygon fill="black" stroke="black" points="63.6,-186.83 55.83,-179.62 57.41,-190.1 63.6,-186.83"/>
</g>
<!-- pick 0! -->
<g id="node7" class="node">
<title>pick 0!</title>
<ellipse fill="gray" stroke="black" cx="121.04" cy="-162" rx="27" ry="18"/>
<text text-anchor="middle" x="121.04" y="-159.8" font-family="Times,serif" font-size="9.00">pick 0!</text>
</g>
<!-- Fallback*&#45;&gt;pick 0! -->
<g id="edge6" class="edge">
<title>Fallback*&#45;&gt;pick 0!</title>
<path fill="none" stroke="black" d="M93.19,-215.7C97.57,-207.4 102.91,-197.31 107.73,-188.19"/>
<polygon fill="black" stroke="black" points="110.93,-189.62 112.51,-179.14 104.74,-186.35 110.93,-189.62"/>
</g>
<!-- 1 at pos (0.0, 0.05, 0.0192)? -->
<g id="node10" class="node">
<title>1 at pos (0.0, 0.05, 0.0192)?</title>
<ellipse fill="gray" stroke="black" cx="292.04" cy="-306" rx="67.6" ry="18"/>
<text text-anchor="middle" x="292.04" y="-303.8" font-family="Times,serif" font-size="9.00">1 at pos (0.0, 0.05, 0.0192)?</text>
</g>
<!-- Fallback**&#45;&gt;1 at pos (0.0, 0.05, 0.0192)? -->
<g id="edge9" class="edge">
<title>Fallback**&#45;&gt;1 at pos (0.0, 0.05, 0.0192)?</title>
<path fill="none" stroke="black" d="M338.28,-360.05C330.79,-351.46 321.55,-340.86 313.31,-331.4"/>
<polygon fill="black" stroke="black" points="315.88,-329.03 306.67,-323.79 310.61,-333.63 315.88,-329.03"/>
</g>
<!-- Sequence** -->
<g id="node11" class="node">
<title>Sequence**</title>
<polygon fill="cyan" stroke="black" points="450.79,-298.54 450.79,-313.46 429.26,-324 398.83,-324 377.3,-313.46 377.3,-298.54 398.83,-288 429.26,-288 450.79,-298.54"/>
<text text-anchor="middle" x="414.04" y="-303.8" font-family="Times,serif" font-size="9.00">Sequence**</text>
</g>
<!-- Fallback**&#45;&gt;Sequence** -->
<g id="edge10" class="edge">
<title>Fallback**&#45;&gt;Sequence**</title>
<path fill="none" stroke="black" d="M367.81,-360.05C375.19,-351.58 384.27,-341.17 392.42,-331.82"/>
<polygon fill="black" stroke="black" points="395.06,-334.11 398.99,-324.28 389.78,-329.51 395.06,-334.11"/>
</g>
<!-- Fallback*** -->
<g id="node12" class="node">
<title>Fallback***</title>
<polygon fill="cyan" stroke="black" points="383.53,-226.54 383.53,-241.46 361.57,-252 330.52,-252 308.55,-241.46 308.55,-226.54 330.52,-216 361.57,-216 383.53,-226.54"/>
<text text-anchor="middle" x="346.04" y="-231.8" font-family="Times,serif" font-size="9.00">Fallback***</text>
</g>
<!-- Sequence**&#45;&gt;Fallback*** -->
<g id="edge11" class="edge">
<title>Sequence**&#45;&gt;Fallback***</title>
<path fill="none" stroke="black" d="M397.93,-288.41C389.5,-279.73 379.02,-268.95 369.69,-259.34"/>
<polygon fill="black" stroke="black" points="371.99,-256.69 362.52,-251.96 366.97,-261.57 371.99,-256.69"/>
</g>
<!-- apply force 1! -->
<g id="node19" class="node">
<title>apply force 1!</title>
<ellipse fill="gray" stroke="black" cx="440.04" cy="-234" rx="38.21" ry="18"/>
<text text-anchor="middle" x="440.04" y="-231.8" font-family="Times,serif" font-size="9.00">apply force 1!</text>
</g>
<!-- Sequence**&#45;&gt;apply force 1! -->
<g id="edge18" class="edge">
<title>Sequence**&#45;&gt;apply force 1!</title>
<path fill="none" stroke="black" d="M420.47,-287.7C423.4,-279.81 426.93,-270.3 430.18,-261.55"/>
<polygon fill="black" stroke="black" points="433.49,-262.7 433.69,-252.1 426.93,-260.26 433.49,-262.7"/>
</g>
<!-- 1 on 0? -->
<g id="node13" class="node">
<title>1 on 0?</title>
<ellipse fill="gray" stroke="black" cx="291.04" cy="-162" rx="27" ry="18"/>
<text text-anchor="middle" x="291.04" y="-159.8" font-family="Times,serif" font-size="9.00">1 on 0?</text>
</g>
<!-- Fallback***&#45;&gt;1 on 0? -->
<g id="edge12" class="edge">
<title>Fallback***&#45;&gt;1 on 0?</title>
<path fill="none" stroke="black" d="M332.45,-215.7C325.46,-206.8 316.85,-195.84 309.29,-186.22"/>
<polygon fill="black" stroke="black" points="311.92,-183.9 302.99,-178.2 306.42,-188.23 311.92,-183.9"/>
</g>
<!-- Sequence*** -->
<g id="node14" class="node">
<title>Sequence***</title>
<polygon fill="cyan" stroke="black" points="416.03,-154.54 416.03,-169.46 392.61,-180 359.48,-180 336.05,-169.46 336.05,-154.54 359.48,-144 392.61,-144 416.03,-154.54"/>
<text text-anchor="middle" x="376.04" y="-159.8" font-family="Times,serif" font-size="9.00">Sequence***</text>
</g>
<!-- Fallback***&#45;&gt;Sequence*** -->
<g id="edge13" class="edge">
<title>Fallback***&#45;&gt;Sequence***</title>
<path fill="none" stroke="black" d="M353.46,-215.7C356.84,-207.81 360.91,-198.3 364.67,-189.55"/>
<polygon fill="black" stroke="black" points="367.99,-190.67 368.71,-180.1 361.56,-187.92 367.99,-190.67"/>
</g>
<!-- Fallback**** -->
<g id="node15" class="node">
<title>Fallback****</title>
<polygon fill="cyan" stroke="black" points="357.78,-82.54 357.78,-97.46 333.92,-108 300.17,-108 276.3,-97.46 276.3,-82.54 300.17,-72 333.92,-72 357.78,-82.54"/>
<text text-anchor="middle" x="317.04" y="-87.8" font-family="Times,serif" font-size="9.00">Fallback****</text>
</g>
<!-- Sequence***&#45;&gt;Fallback**** -->
<g id="edge14" class="edge">
<title>Sequence***&#45;&gt;Fallback****</title>
<path fill="none" stroke="black" d="M361.46,-143.7C354.39,-135.3 345.76,-125.07 338,-115.86"/>
<polygon fill="black" stroke="black" points="340.58,-113.49 331.46,-108.1 335.23,-118.01 340.58,-113.49"/>
</g>
<!-- place on 0! -->
<g id="node18" class="node">
<title>place on 0!</title>
<ellipse fill="gray" stroke="black" cx="408.04" cy="-90" rx="32.16" ry="18"/>
<text text-anchor="middle" x="408.04" y="-87.8" font-family="Times,serif" font-size="9.00">place on 0!</text>
</g>
<!-- Sequence***&#45;&gt;place on 0! -->
<g id="edge17" class="edge">
<title>Sequence***&#45;&gt;place on 0!</title>
<path fill="none" stroke="black" d="M383.95,-143.7C387.65,-135.61 392.13,-125.81 396.22,-116.87"/>
<polygon fill="black" stroke="black" points="399.47,-118.17 400.45,-107.62 393.1,-115.26 399.47,-118.17"/>
</g>
<!-- picked 1? -->
<g id="node16" class="node">
<title>picked 1?</title>
<ellipse fill="gray" stroke="black" cx="301.04" cy="-18" rx="28.74" ry="18"/>
<text text-anchor="middle" x="301.04" y="-15.8" font-family="Times,serif" font-size="9.00">picked 1?</text>
</g>
<!-- Fallback****&#45;&gt;picked 1? -->
<g id="edge15" class="edge">
<title>Fallback****&#45;&gt;picked 1?</title>
<path fill="none" stroke="black" d="M313.09,-71.7C311.33,-63.98 309.21,-54.71 307.24,-46.11"/>
<polygon fill="black" stroke="black" points="310.59,-45.07 304.95,-36.1 303.77,-46.63 310.59,-45.07"/>
</g>
<!-- pick 1! -->
<g id="node17" class="node">
<title>pick 1!</title>
<ellipse fill="gray" stroke="black" cx="375.04" cy="-18" rx="27" ry="18"/>
<text text-anchor="middle" x="375.04" y="-15.8" font-family="Times,serif" font-size="9.00">pick 1!</text>
</g>
<!-- Fallback****&#45;&gt;pick 1! -->
<g id="edge16" class="edge">
<title>Fallback****&#45;&gt;pick 1!</title>
<path fill="none" stroke="black" d="M331.38,-71.7C338.82,-62.71 348.02,-51.62 356.04,-41.93"/>
<polygon fill="black" stroke="black" points="358.76,-44.14 362.45,-34.2 353.37,-39.67 358.76,-44.14"/>
</g>
<!-- 2 at pos (0.0, 0.05, 0.0384)? -->
<g id="node21" class="node">
<title>2 at pos (0.0, 0.05, 0.0384)?</title>
<ellipse fill="gray" stroke="black" cx="536.04" cy="-306" rx="67.6" ry="18"/>
<text text-anchor="middle" x="536.04" y="-303.8" font-family="Times,serif" font-size="9.00">2 at pos (0.0, 0.05, 0.0384)?</text>
</g>
<!-- Fallback*****&#45;&gt;2 at pos (0.0, 0.05, 0.0384)? -->
<g id="edge20" class="edge">
<title>Fallback*****&#45;&gt;2 at pos (0.0, 0.05, 0.0384)?</title>
<path fill="none" stroke="black" d="M536.04,-359.7C536.04,-351.98 536.04,-342.71 536.04,-334.11"/>
<polygon fill="black" stroke="black" points="539.54,-334.1 536.04,-324.1 532.54,-334.1 539.54,-334.1"/>
</g>
<!-- Sequence**** -->
<g id="node22" class="node">
<title>Sequence****</title>
<polygon fill="cyan" stroke="black" points="706.53,-298.54 706.53,-313.46 681.64,-324 646.44,-324 621.56,-313.46 621.56,-298.54 646.44,-288 681.64,-288 706.53,-298.54"/>
<text text-anchor="middle" x="664.04" y="-303.8" font-family="Times,serif" font-size="9.00">Sequence****</text>
</g>
<!-- Fallback*****&#45;&gt;Sequence**** -->
<g id="edge21" class="edge">
<title>Fallback*****&#45;&gt;Sequence****</title>
<path fill="none" stroke="black" d="M561.64,-363C581.17,-352.32 608.28,-337.49 629.7,-325.78"/>
<polygon fill="black" stroke="black" points="631.4,-328.84 638.49,-320.97 628.04,-322.7 631.4,-328.84"/>
</g>
<!-- Fallback****** -->
<g id="node23" class="node">
<title>Fallback******</title>
<polygon fill="cyan" stroke="black" points="608.53,-226.54 608.53,-241.46 581.3,-252 542.79,-252 515.56,-241.46 515.56,-226.54 542.79,-216 581.3,-216 608.53,-226.54"/>
<text text-anchor="middle" x="562.04" y="-231.8" font-family="Times,serif" font-size="9.00">Fallback******</text>
</g>
<!-- Sequence****&#45;&gt;Fallback****** -->
<g id="edge22" class="edge">
<title>Sequence****&#45;&gt;Fallback******</title>
<path fill="none" stroke="black" d="M641.91,-289.81C627.67,-280.04 608.96,-267.2 593.23,-256.4"/>
<polygon fill="black" stroke="black" points="595.07,-253.42 584.84,-250.64 591.1,-259.19 595.07,-253.42"/>
</g>
<!-- apply force 2! -->
<g id="node31" class="node">
<title>apply force 2!</title>
<ellipse fill="gray" stroke="black" cx="664.04" cy="-234" rx="38.21" ry="18"/>
<text text-anchor="middle" x="664.04" y="-231.8" font-family="Times,serif" font-size="9.00">apply force 2!</text>
</g>
<!-- Sequence****&#45;&gt;apply force 2! -->
<g id="edge30" class="edge">
<title>Sequence****&#45;&gt;apply force 2!</title>
<path fill="none" stroke="black" d="M664.04,-287.7C664.04,-279.98 664.04,-270.71 664.04,-262.11"/>
<polygon fill="black" stroke="black" points="667.54,-262.1 664.04,-252.1 660.54,-262.1 667.54,-262.1"/>
</g>
<!-- pick 2!* -->
<g id="node32" class="node">
<title>pick 2!*</title>
<ellipse fill="gray" stroke="black" cx="747.04" cy="-234" rx="27" ry="18"/>
<text text-anchor="middle" x="747.04" y="-231.8" font-family="Times,serif" font-size="9.00">pick 2!*</text>
</g>
<!-- Sequence****&#45;&gt;pick 2!* -->
<g id="edge31" class="edge">
<title>Sequence****&#45;&gt;pick 2!*</title>
<path fill="none" stroke="black" d="M683.71,-288.41C695.51,-278.46 710.6,-265.74 723.09,-255.2"/>
<polygon fill="black" stroke="black" points="725.47,-257.77 730.86,-248.65 720.96,-252.42 725.47,-257.77"/>
</g>
<!-- 2 on 1? -->
<g id="node24" class="node">
<title>2 on 1?</title>
<ellipse fill="gray" stroke="black" cx="471.04" cy="-162" rx="27" ry="18"/>
<text text-anchor="middle" x="471.04" y="-159.8" font-family="Times,serif" font-size="9.00">2 on 1?</text>
</g>
<!-- Fallback******&#45;&gt;2 on 1? -->
<g id="edge23" class="edge">
<title>Fallback******&#45;&gt;2 on 1?</title>
<path fill="none" stroke="black" d="M540.48,-216.41C527.25,-206.23 510.24,-193.15 496.37,-182.48"/>
<polygon fill="black" stroke="black" points="498.26,-179.52 488.2,-176.2 493.99,-185.07 498.26,-179.52"/>
</g>
<!-- Sequence***** -->
<g id="node25" class="node">
<title>Sequence*****</title>
<polygon fill="cyan" stroke="black" points="607.78,-154.54 607.78,-169.46 580.99,-180 543.1,-180 516.31,-169.46 516.31,-154.54 543.1,-144 580.99,-144 607.78,-154.54"/>
<text text-anchor="middle" x="562.04" y="-159.8" font-family="Times,serif" font-size="9.00">Sequence*****</text>
</g>
<!-- Fallback******&#45;&gt;Sequence***** -->
<g id="edge24" class="edge">
<title>Fallback******&#45;&gt;Sequence*****</title>
<path fill="none" stroke="black" d="M562.04,-215.7C562.04,-207.98 562.04,-198.71 562.04,-190.11"/>
<polygon fill="black" stroke="black" points="565.54,-190.1 562.04,-180.1 558.54,-190.1 565.54,-190.1"/>
</g>
<!-- 0 at pos (0.0, 0.05, 0.0)?* -->
<g id="node30" class="node">
<title>0 at pos (0.0, 0.05, 0.0)?*</title>
<ellipse fill="gray" stroke="black" cx="688.04" cy="-162" rx="62.21" ry="18"/>
<text text-anchor="middle" x="688.04" y="-159.8" font-family="Times,serif" font-size="9.00">0 at pos (0.0, 0.05, 0.0)?*</text>
</g>
<!-- Fallback******&#45;&gt;0 at pos (0.0, 0.05, 0.0)?* -->
<g id="edge29" class="edge">
<title>Fallback******&#45;&gt;0 at pos (0.0, 0.05, 0.0)?*</title>
<path fill="none" stroke="black" d="M588.15,-218.5C606.53,-208.29 631.37,-194.48 651.69,-183.2"/>
<polygon fill="black" stroke="black" points="653.62,-186.13 660.66,-178.21 650.22,-180.01 653.62,-186.13"/>
</g>
<!-- Fallback******* -->
<g id="node26" class="node">
<title>Fallback*******</title>
<polygon fill="cyan" stroke="black" points="578.03,-82.54 578.03,-97.46 549.34,-108 508.75,-108 480.06,-97.46 480.06,-82.54 508.75,-72 549.34,-72 578.03,-82.54"/>
<text text-anchor="middle" x="529.04" y="-87.8" font-family="Times,serif" font-size="9.00">Fallback*******</text>
</g>
<!-- Sequence*****&#45;&gt;Fallback******* -->
<g id="edge25" class="edge">
<title>Sequence*****&#45;&gt;Fallback*******</title>
<path fill="none" stroke="black" d="M553.89,-143.7C550.13,-135.73 545.59,-126.1 541.43,-117.26"/>
<polygon fill="black" stroke="black" points="544.54,-115.66 537.11,-108.1 538.21,-118.64 544.54,-115.66"/>
</g>
<!-- place on 1! -->
<g id="node29" class="node">
<title>place on 1!</title>
<ellipse fill="gray" stroke="black" cx="628.04" cy="-90" rx="32.16" ry="18"/>
<text text-anchor="middle" x="628.04" y="-87.8" font-family="Times,serif" font-size="9.00">place on 1!</text>
</g>
<!-- Sequence*****&#45;&gt;place on 1! -->
<g id="edge28" class="edge">
<title>Sequence*****&#45;&gt;place on 1!</title>
<path fill="none" stroke="black" d="M578.36,-143.7C586.91,-134.62 597.5,-123.4 606.7,-113.64"/>
<polygon fill="black" stroke="black" points="609.4,-115.88 613.71,-106.2 604.3,-111.08 609.4,-115.88"/>
</g>
<!-- picked 2? -->
<g id="node27" class="node">
<title>picked 2?</title>
<ellipse fill="gray" stroke="black" cx="478.04" cy="-18" rx="28.74" ry="18"/>
<text text-anchor="middle" x="478.04" y="-15.8" font-family="Times,serif" font-size="9.00">picked 2?</text>
</g>
<!-- Fallback*******&#45;&gt;picked 2? -->
<g id="edge26" class="edge">
<title>Fallback*******&#45;&gt;picked 2?</title>
<path fill="none" stroke="black" d="M516.44,-71.7C510.11,-63.02 502.36,-52.37 495.47,-42.92"/>
<polygon fill="black" stroke="black" points="498.18,-40.69 489.46,-34.67 492.52,-44.81 498.18,-40.69"/>
</g>
<!-- pick 2! -->
<g id="node28" class="node">
<title>pick 2!</title>
<ellipse fill="gray" stroke="black" cx="552.04" cy="-18" rx="27" ry="18"/>
<text text-anchor="middle" x="552.04" y="-15.8" font-family="Times,serif" font-size="9.00">pick 2!</text>
</g>
<!-- Fallback*******&#45;&gt;pick 2! -->
<g id="edge27" class="edge">
<title>Fallback*******&#45;&gt;pick 2!</title>
<path fill="none" stroke="black" d="M534.73,-71.7C537.29,-63.9 540.38,-54.51 543.23,-45.83"/>
<polygon fill="black" stroke="black" points="546.63,-46.7 546.42,-36.1 539.98,-44.51 546.63,-46.7"/>
</g>
</g>
</svg>
