<?xml version="1.0" encoding="UTF-8" standalone="no"?>
<!DOCTYPE svg PUBLIC "-//W3C//DTD SVG 1.1//EN"
 "http://www.w3.org/Graphics/SVG/1.1/DTD/svg11.dtd">
<!-- Generated by graphviz version 2.43.0 (0)
 -->
<!-- Title: pastafarianism Pages: 1 -->
<svg width="946pt" height="260pt"
 viewBox="0.00 0.00 946.32 260.00" xmlns="http://www.w3.org/2000/svg" xmlns:xlink="http://www.w3.org/1999/xlink">
<g id="graph0" class="graph" transform="scale(1 1) rotate(0) translate(4 256)">
<title>pastafarianism</title>
<polygon fill="white" stroke="transparent" points="-4,4 -4,-256 942.32,-256 942.32,4 -4,4"/>
<!-- Fallback -->
<g id="node1" class="node">
<title>Fallback</title>
<polygon fill="cyan" stroke="black" points="435.31,-226.54 435.31,-241.46 418.18,-252 393.95,-252 376.82,-241.46 376.82,-226.54 393.95,-216 418.18,-216 435.31,-226.54"/>
<text text-anchor="middle" x="406.06" y="-231.8" font-family="Times,serif" font-size="9.00">Fallback</text>
</g>
<!-- ReachGoal? -->
<g id="node2" class="node">
<title>ReachGoal?</title>
<ellipse fill="gray" stroke="black" cx="34.06" cy="-162" rx="34.13" ry="18"/>
<text text-anchor="middle" x="34.06" y="-159.8" font-family="Times,serif" font-size="9.00">ReachGoal?</text>
</g>
<!-- Fallback&#45;&gt;ReachGoal? -->
<g id="edge1" class="edge">
<title>Fallback&#45;&gt;ReachGoal?</title>
<path fill="none" stroke="black" d="M376.56,-230.41C318.42,-224.84 185.29,-209.73 77.06,-180 74.47,-179.29 71.81,-178.47 69.16,-177.59"/>
<polygon fill="black" stroke="black" points="70.27,-174.26 59.68,-174.17 67.9,-180.85 70.27,-174.26"/>
</g>
<!-- LkGraph? -->
<g id="node3" class="node">
<title>LkGraph?</title>
<ellipse fill="gray" stroke="black" cx="117.06" cy="-162" rx="30.7" ry="18"/>
<text text-anchor="middle" x="117.06" y="-159.8" font-family="Times,serif" font-size="9.00">LkGraph?</text>
</g>
<!-- Fallback&#45;&gt;LkGraph? -->
<g id="edge2" class="edge">
<title>Fallback&#45;&gt;LkGraph?</title>
<path fill="none" stroke="black" d="M376.46,-228.59C329.32,-221.15 234.61,-204.48 157.06,-180 154.67,-179.24 152.23,-178.4 149.78,-177.5"/>
<polygon fill="black" stroke="black" points="151.06,-174.24 140.47,-173.83 148.49,-180.75 151.06,-174.24"/>
</g>
<!-- Sequence -->
<g id="node4" class="node">
<title>Sequence</title>
<polygon fill="cyan" stroke="black" points="228.56,-154.54 228.56,-169.46 210.11,-180 184.02,-180 165.57,-169.46 165.57,-154.54 184.02,-144 210.11,-144 228.56,-154.54"/>
<text text-anchor="middle" x="197.06" y="-159.8" font-family="Times,serif" font-size="9.00">Sequence</text>
</g>
<!-- Fallback&#45;&gt;Sequence -->
<g id="edge3" class="edge">
<title>Fallback&#45;&gt;Sequence</title>
<path fill="none" stroke="black" d="M378.57,-225.28C344.89,-215.61 286.26,-198.12 237.06,-180 234.99,-179.24 232.87,-178.43 230.74,-177.59"/>
<polygon fill="black" stroke="black" points="232.03,-174.34 221.45,-173.81 229.4,-180.82 232.03,-174.34"/>
</g>
<!-- LkClose?* -->
<g id="node8" class="node">
<title>LkClose?*</title>
<ellipse fill="gray" stroke="black" cx="278.06" cy="-162" rx="31.51" ry="18"/>
<text text-anchor="middle" x="278.06" y="-159.8" font-family="Times,serif" font-size="9.00">LkClose?*</text>
</g>
<!-- Fallback&#45;&gt;LkClose?* -->
<g id="edge7" class="edge">
<title>Fallback&#45;&gt;LkClose?*</title>
<path fill="none" stroke="black" d="M384.93,-221.44C364.24,-210.13 332.5,-192.77 308.98,-179.91"/>
<polygon fill="black" stroke="black" points="310.54,-176.77 300.09,-175.05 307.18,-182.91 310.54,-176.77"/>
</g>
<!-- LkGraph?* -->
<g id="node9" class="node">
<title>LkGraph?*</title>
<ellipse fill="gray" stroke="black" cx="361.06" cy="-162" rx="32.82" ry="18"/>
<text text-anchor="middle" x="361.06" y="-159.8" font-family="Times,serif" font-size="9.00">LkGraph?*</text>
</g>
<!-- Fallback&#45;&gt;LkGraph?* -->
<g id="edge8" class="edge">
<title>Fallback&#45;&gt;LkGraph?*</title>
<path fill="none" stroke="black" d="M394.94,-215.7C389.5,-207.23 382.85,-196.89 376.89,-187.61"/>
<polygon fill="black" stroke="black" points="379.79,-185.66 371.44,-179.14 373.91,-189.45 379.79,-185.66"/>
</g>
<!-- ReachGoal?** -->
<g id="node10" class="node">
<title>ReachGoal?**</title>
<ellipse fill="gray" stroke="black" cx="451.06" cy="-162" rx="39.02" ry="18"/>
<text text-anchor="middle" x="451.06" y="-159.8" font-family="Times,serif" font-size="9.00">ReachGoal?**</text>
</g>
<!-- Fallback&#45;&gt;ReachGoal?** -->
<g id="edge9" class="edge">
<title>Fallback&#45;&gt;ReachGoal?**</title>
<path fill="none" stroke="black" d="M417.19,-215.7C422.5,-207.44 428.95,-197.39 434.8,-188.3"/>
<polygon fill="black" stroke="black" points="437.91,-189.93 440.38,-179.62 432.03,-186.14 437.91,-189.93"/>
</g>
<!-- LkClose?** -->
<g id="node11" class="node">
<title>LkClose?**</title>
<ellipse fill="gray" stroke="black" cx="542.06" cy="-162" rx="34.13" ry="18"/>
<text text-anchor="middle" x="542.06" y="-159.8" font-family="Times,serif" font-size="9.00">LkClose?**</text>
</g>
<!-- Fallback&#45;&gt;LkClose?** -->
<g id="edge10" class="edge">
<title>Fallback&#45;&gt;LkClose?**</title>
<path fill="none" stroke="black" d="M427.91,-221.75C449.89,-210.44 484.03,-192.87 509.25,-179.89"/>
<polygon fill="black" stroke="black" points="511.15,-182.85 518.44,-175.16 507.95,-176.62 511.15,-182.85"/>
</g>
<!-- LkGraph?** -->
<g id="node12" class="node">
<title>LkGraph?**</title>
<ellipse fill="gray" stroke="black" cx="630.06" cy="-162" rx="35.59" ry="18"/>
<text text-anchor="middle" x="630.06" y="-159.8" font-family="Times,serif" font-size="9.00">LkGraph?**</text>
</g>
<!-- Fallback&#45;&gt;LkGraph?** -->
<g id="edge11" class="edge">
<title>Fallback&#45;&gt;LkGraph?**</title>
<path fill="none" stroke="black" d="M433.86,-225.45C469.22,-215.69 532.07,-197.83 585.06,-180 587.65,-179.13 590.3,-178.21 592.97,-177.26"/>
<polygon fill="black" stroke="black" points="594.38,-180.47 602.57,-173.75 591.98,-173.89 594.38,-180.47"/>
</g>
<!-- LkClose?*** -->
<g id="node13" class="node">
<title>LkClose?***</title>
<ellipse fill="gray" stroke="black" cx="721.06" cy="-162" rx="36.9" ry="18"/>
<text text-anchor="middle" x="721.06" y="-159.8" font-family="Times,serif" font-size="9.00">LkClose?***</text>
</g>
<!-- Fallback&#45;&gt;LkClose?*** -->
<g id="edge12" class="edge">
<title>Fallback&#45;&gt;LkClose?***</title>
<path fill="none" stroke="black" d="M435.48,-228.78C485.34,-221.28 589.38,-204.11 675.06,-180 677.83,-179.22 680.67,-178.35 683.51,-177.43"/>
<polygon fill="black" stroke="black" points="684.75,-180.7 693.08,-174.15 682.48,-174.08 684.75,-180.7"/>
</g>
<!-- Sequence* -->
<g id="node14" class="node">
<title>Sequence*</title>
<polygon fill="cyan" stroke="black" points="844.31,-154.54 844.31,-169.46 824.25,-180 795.88,-180 775.82,-169.46 775.82,-154.54 795.88,-144 824.25,-144 844.31,-154.54"/>
<text text-anchor="middle" x="810.06" y="-159.8" font-family="Times,serif" font-size="9.00">Sequence*</text>
</g>
<!-- Fallback&#45;&gt;Sequence* -->
<g id="edge13" class="edge">
<title>Fallback&#45;&gt;Sequence*</title>
<path fill="none" stroke="black" d="M435.54,-230.99C497.72,-226.24 646.5,-212.22 767.06,-180 769.66,-179.31 772.32,-178.5 774.98,-177.63"/>
<polygon fill="black" stroke="black" points="776.23,-180.9 784.47,-174.23 773.87,-174.3 776.23,-180.9"/>
</g>
<!-- ReachGoal?* -->
<g id="node5" class="node">
<title>ReachGoal?*</title>
<ellipse fill="gray" stroke="black" cx="113.06" cy="-90" rx="36.9" ry="18"/>
<text text-anchor="middle" x="113.06" y="-87.8" font-family="Times,serif" font-size="9.00">ReachGoal?*</text>
</g>
<!-- Sequence&#45;&gt;ReachGoal?* -->
<g id="edge4" class="edge">
<title>Sequence&#45;&gt;ReachGoal?*</title>
<path fill="none" stroke="black" d="M179.25,-146.15C167.44,-136.32 151.77,-123.26 138.64,-112.32"/>
<polygon fill="black" stroke="black" points="140.78,-109.54 130.85,-105.82 136.29,-114.91 140.78,-109.54"/>
</g>
<!-- LkClose? -->
<g id="node6" class="node">
<title>LkClose?</title>
<ellipse fill="gray" stroke="black" cx="197.06" cy="-90" rx="28.74" ry="18"/>
<text text-anchor="middle" x="197.06" y="-87.8" font-family="Times,serif" font-size="9.00">LkClose?</text>
</g>
<!-- Sequence&#45;&gt;LkClose? -->
<g id="edge5" class="edge">
<title>Sequence&#45;&gt;LkClose?</title>
<path fill="none" stroke="black" d="M197.06,-143.7C197.06,-135.98 197.06,-126.71 197.06,-118.11"/>
<polygon fill="black" stroke="black" points="200.56,-118.1 197.06,-108.1 193.56,-118.1 200.56,-118.1"/>
</g>
<!-- MoveTo! -->
<g id="node7" class="node">
<title>MoveTo!</title>
<ellipse fill="gray" stroke="black" cx="273.06" cy="-90" rx="28.74" ry="18"/>
<text text-anchor="middle" x="273.06" y="-87.8" font-family="Times,serif" font-size="9.00">MoveTo!</text>
</g>
<!-- Sequence&#45;&gt;MoveTo! -->
<g id="edge6" class="edge">
<title>Sequence&#45;&gt;MoveTo!</title>
<path fill="none" stroke="black" d="M213.55,-145.81C224.12,-136.08 238.01,-123.29 249.7,-112.52"/>
<polygon fill="black" stroke="black" points="252.4,-114.79 257.38,-105.44 247.66,-109.64 252.4,-114.79"/>
</g>
<!-- Fallback* -->
<g id="node15" class="node">
<title>Fallback*</title>
<polygon fill="cyan" stroke="black" points="759.81,-82.54 759.81,-97.46 741.21,-108 714.92,-108 696.32,-97.46 696.32,-82.54 714.92,-72 741.21,-72 759.81,-82.54"/>
<text text-anchor="middle" x="728.06" y="-87.8" font-family="Times,serif" font-size="9.00">Fallback*</text>
</g>
<!-- Sequence*&#45;&gt;Fallback* -->
<g id="edge14" class="edge">
<title>Sequence*&#45;&gt;Fallback*</title>
<path fill="none" stroke="black" d="M792.27,-145.81C780.91,-136.11 766.01,-123.39 753.42,-112.64"/>
<polygon fill="black" stroke="black" points="755.42,-109.75 745.54,-105.92 750.87,-115.07 755.42,-109.75"/>
</g>
<!-- MoveTo!* -->
<g id="node20" class="node">
<title>MoveTo!*</title>
<ellipse fill="gray" stroke="black" cx="810.06" cy="-90" rx="31.51" ry="18"/>
<text text-anchor="middle" x="810.06" y="-87.8" font-family="Times,serif" font-size="9.00">MoveTo!*</text>
</g>
<!-- Sequence*&#45;&gt;MoveTo!* -->
<g id="edge19" class="edge">
<title>Sequence*&#45;&gt;MoveTo!*</title>
<path fill="none" stroke="black" d="M810.06,-143.7C810.06,-135.98 810.06,-126.71 810.06,-118.11"/>
<polygon fill="black" stroke="black" points="813.56,-118.1 810.06,-108.1 806.56,-118.1 813.56,-118.1"/>
</g>
<!-- LkClose?**** -->
<g id="node21" class="node">
<title>LkClose?****</title>
<ellipse fill="gray" stroke="black" cx="899.06" cy="-90" rx="39.02" ry="18"/>
<text text-anchor="middle" x="899.06" y="-87.8" font-family="Times,serif" font-size="9.00">LkClose?****</text>
</g>
<!-- Sequence*&#45;&gt;LkClose?**** -->
<g id="edge20" class="edge">
<title>Sequence*&#45;&gt;LkClose?****</title>
<path fill="none" stroke="black" d="M828.94,-146.15C841.56,-136.22 858.36,-123.01 872.36,-112.01"/>
<polygon fill="black" stroke="black" points="874.52,-114.76 880.22,-105.82 870.19,-109.25 874.52,-114.76"/>
</g>
<!-- NotReadyForSG? -->
<g id="node16" class="node">
<title>NotReadyForSG?</title>
<ellipse fill="gray" stroke="black" cx="579.06" cy="-18" rx="46.53" ry="18"/>
<text text-anchor="middle" x="579.06" y="-15.8" font-family="Times,serif" font-size="9.00">NotReadyForSG?</text>
</g>
<!-- Fallback*&#45;&gt;NotReadyForSG? -->
<g id="edge15" class="edge">
<title>Fallback*&#45;&gt;NotReadyForSG?</title>
<path fill="none" stroke="black" d="M704.45,-77.91C680.96,-66.87 644.55,-49.76 617,-36.82"/>
<polygon fill="black" stroke="black" points="618.2,-33.52 607.66,-32.43 615.22,-39.85 618.2,-33.52"/>
</g>
<!-- GetSubGoal! -->
<g id="node17" class="node">
<title>GetSubGoal!</title>
<ellipse fill="gray" stroke="black" cx="681.06" cy="-18" rx="36.9" ry="18"/>
<text text-anchor="middle" x="681.06" y="-15.8" font-family="Times,serif" font-size="9.00">GetSubGoal!</text>
</g>
<!-- Fallback*&#45;&gt;GetSubGoal! -->
<g id="edge16" class="edge">
<title>Fallback*&#45;&gt;GetSubGoal!</title>
<path fill="none" stroke="black" d="M716.45,-71.7C710.84,-63.35 704.02,-53.18 697.86,-44.02"/>
<polygon fill="black" stroke="black" points="700.7,-41.97 692.22,-35.62 694.89,-45.88 700.7,-41.97"/>
</g>
<!-- GetSubGoal!* -->
<g id="node18" class="node">
<title>GetSubGoal!*</title>
<ellipse fill="gray" stroke="black" cx="775.06" cy="-18" rx="39.02" ry="18"/>
<text text-anchor="middle" x="775.06" y="-15.8" font-family="Times,serif" font-size="9.00">GetSubGoal!*</text>
</g>
<!-- Fallback*&#45;&gt;GetSubGoal!* -->
<g id="edge17" class="edge">
<title>Fallback*&#45;&gt;GetSubGoal!*</title>
<path fill="none" stroke="black" d="M739.68,-71.7C745.28,-63.35 752.11,-53.18 758.27,-44.02"/>
<polygon fill="black" stroke="black" points="761.23,-45.88 763.9,-35.62 755.42,-41.97 761.23,-45.88"/>
</g>
<!-- ReachGoal?*** -->
<g id="node19" class="node">
<title>ReachGoal?***</title>
<ellipse fill="gray" stroke="black" cx="874.06" cy="-18" rx="42.29" ry="18"/>
<text text-anchor="middle" x="874.06" y="-15.8" font-family="Times,serif" font-size="9.00">ReachGoal?***</text>
</g>
<!-- Fallback*&#45;&gt;ReachGoal?*** -->
<g id="edge18" class="edge">
<title>Fallback*&#45;&gt;ReachGoal?***</title>
<path fill="none" stroke="black" d="M751.52,-77.75C774.88,-66.55 811.06,-49.21 838.06,-36.26"/>
<polygon fill="black" stroke="black" points="839.69,-39.36 847.19,-31.88 836.66,-33.05 839.69,-39.36"/>
</g>
</g>
</svg>
