<?xml version="1.0" encoding="UTF-8" standalone="no"?>
<!DOCTYPE svg PUBLIC "-//W3C//DTD SVG 1.1//EN"
 "http://www.w3.org/Graphics/SVG/1.1/DTD/svg11.dtd">
<!-- Generated by graphviz version 2.43.0 (0)
 -->
<!-- Title: pastafarianism Pages: 1 -->
<svg width="864pt" height="260pt"
 viewBox="0.00 0.00 863.86 260.00" xmlns="http://www.w3.org/2000/svg" xmlns:xlink="http://www.w3.org/1999/xlink">
<g id="graph0" class="graph" transform="scale(1 1) rotate(0) translate(4 256)">
<title>pastafarianism</title>
<polygon fill="white" stroke="transparent" points="-4,4 -4,-256 859.86,-256 859.86,4 -4,4"/>
<!-- Fallback -->
<g id="node1" class="node">
<title>Fallback</title>
<polygon fill="cyan" stroke="black" points="306.31,-226.54 306.31,-241.46 289.18,-252 264.95,-252 247.82,-241.46 247.82,-226.54 264.95,-216 289.18,-216 306.31,-226.54"/>
<text text-anchor="middle" x="277.06" y="-231.8" font-family="Times,serif" font-size="9.00">Fallback</text>
</g>
<!-- LkGraph? -->
<g id="node2" class="node">
<title>LkGraph?</title>
<ellipse fill="gray" stroke="black" cx="40.06" cy="-162" rx="30.7" ry="18"/>
<text text-anchor="middle" x="40.06" y="-159.8" font-family="Times,serif" font-size="9.00">LkGraph?</text>
</g>
<!-- Fallback&#45;&gt;LkGraph? -->
<g id="edge1" class="edge">
<title>Fallback&#45;&gt;LkGraph?</title>
<path fill="none" stroke="black" d="M247.8,-226.61C208.79,-217.77 137.85,-200.55 79.06,-180 76.97,-179.27 74.83,-178.47 72.68,-177.64"/>
<polygon fill="black" stroke="black" points="73.93,-174.37 63.35,-173.82 71.28,-180.85 73.93,-174.37"/>
</g>
<!-- LkClose? -->
<g id="node3" class="node">
<title>LkClose?</title>
<ellipse fill="gray" stroke="black" cx="117.06" cy="-162" rx="28.74" ry="18"/>
<text text-anchor="middle" x="117.06" y="-159.8" font-family="Times,serif" font-size="9.00">LkClose?</text>
</g>
<!-- Fallback&#45;&gt;LkClose? -->
<g id="edge2" class="edge">
<title>Fallback&#45;&gt;LkClose?</title>
<path fill="none" stroke="black" d="M253.64,-222.91C229.06,-212.31 189.29,-195.09 155.06,-180 153.23,-179.19 151.34,-178.36 149.44,-177.51"/>
<polygon fill="black" stroke="black" points="150.51,-174.16 139.95,-173.29 147.66,-180.55 150.51,-174.16"/>
</g>
<!-- Sequence -->
<g id="node4" class="node">
<title>Sequence</title>
<polygon fill="cyan" stroke="black" points="226.56,-154.54 226.56,-169.46 208.11,-180 182.02,-180 163.57,-169.46 163.57,-154.54 182.02,-144 208.11,-144 226.56,-154.54"/>
<text text-anchor="middle" x="195.06" y="-159.8" font-family="Times,serif" font-size="9.00">Sequence</text>
</g>
<!-- Fallback&#45;&gt;Sequence -->
<g id="edge3" class="edge">
<title>Fallback&#45;&gt;Sequence</title>
<path fill="none" stroke="black" d="M260.07,-218.5C248.5,-208.61 232.98,-195.36 220,-184.29"/>
<polygon fill="black" stroke="black" points="222.19,-181.56 212.31,-177.73 217.65,-186.88 222.19,-181.56"/>
</g>
<!-- LkGraph?* -->
<g id="node8" class="node">
<title>LkGraph?*</title>
<ellipse fill="gray" stroke="black" cx="277.06" cy="-162" rx="32.82" ry="18"/>
<text text-anchor="middle" x="277.06" y="-159.8" font-family="Times,serif" font-size="9.00">LkGraph?*</text>
</g>
<!-- Fallback&#45;&gt;LkGraph?* -->
<g id="edge7" class="edge">
<title>Fallback&#45;&gt;LkGraph?*</title>
<path fill="none" stroke="black" d="M277.06,-215.7C277.06,-207.98 277.06,-198.71 277.06,-190.11"/>
<polygon fill="black" stroke="black" points="280.56,-190.1 277.06,-180.1 273.56,-190.1 280.56,-190.1"/>
</g>
<!-- LkClose?** -->
<g id="node9" class="node">
<title>LkClose?**</title>
<ellipse fill="gray" stroke="black" cx="362.06" cy="-162" rx="34.13" ry="18"/>
<text text-anchor="middle" x="362.06" y="-159.8" font-family="Times,serif" font-size="9.00">LkClose?**</text>
</g>
<!-- Fallback&#45;&gt;LkClose?** -->
<g id="edge8" class="edge">
<title>Fallback&#45;&gt;LkClose?**</title>
<path fill="none" stroke="black" d="M294.26,-218.83C306.32,-208.91 322.64,-195.47 336.24,-184.26"/>
<polygon fill="black" stroke="black" points="338.81,-186.69 344.3,-177.63 334.36,-181.28 338.81,-186.69"/>
</g>
<!-- Sequence* -->
<g id="node10" class="node">
<title>Sequence*</title>
<polygon fill="cyan" stroke="black" points="482.31,-154.54 482.31,-169.46 462.25,-180 433.88,-180 413.82,-169.46 413.82,-154.54 433.88,-144 462.25,-144 482.31,-154.54"/>
<text text-anchor="middle" x="448.06" y="-159.8" font-family="Times,serif" font-size="9.00">Sequence*</text>
</g>
<!-- Fallback&#45;&gt;Sequence* -->
<g id="edge9" class="edge">
<title>Fallback&#45;&gt;Sequence*</title>
<path fill="none" stroke="black" d="M301.2,-223.12C330.19,-211.25 379.08,-191.24 412.42,-177.59"/>
<polygon fill="black" stroke="black" points="413.88,-180.78 421.81,-173.75 411.23,-174.3 413.88,-180.78"/>
</g>
<!-- ReachGoal?**** -->
<g id="node23" class="node">
<title>ReachGoal?****</title>
<ellipse fill="gray" stroke="black" cx="545.06" cy="-162" rx="44.41" ry="18"/>
<text text-anchor="middle" x="545.06" y="-159.8" font-family="Times,serif" font-size="9.00">ReachGoal?****</text>
</g>
<!-- Fallback&#45;&gt;ReachGoal?**** -->
<g id="edge22" class="edge">
<title>Fallback&#45;&gt;ReachGoal?****</title>
<path fill="none" stroke="black" d="M306.29,-226.37C347.63,-216.85 425.47,-198.43 491.06,-180 494.58,-179.01 498.22,-177.95 501.86,-176.86"/>
<polygon fill="black" stroke="black" points="502.91,-180.2 511.46,-173.93 500.87,-173.5 502.91,-180.2"/>
</g>
<!-- ReachGoal? -->
<g id="node5" class="node">
<title>ReachGoal?</title>
<ellipse fill="gray" stroke="black" cx="34.06" cy="-90" rx="34.13" ry="18"/>
<text text-anchor="middle" x="34.06" y="-87.8" font-family="Times,serif" font-size="9.00">ReachGoal?</text>
</g>
<!-- Sequence&#45;&gt;ReachGoal? -->
<g id="edge4" class="edge">
<title>Sequence&#45;&gt;ReachGoal?</title>
<path fill="none" stroke="black" d="M170.61,-150.37C143.54,-138.6 99.69,-119.53 69.01,-106.19"/>
<polygon fill="black" stroke="black" points="70.11,-102.86 59.55,-102.08 67.32,-109.28 70.11,-102.86"/>
</g>
<!-- LkClose?* -->
<g id="node6" class="node">
<title>LkClose?*</title>
<ellipse fill="gray" stroke="black" cx="118.06" cy="-90" rx="31.51" ry="18"/>
<text text-anchor="middle" x="118.06" y="-87.8" font-family="Times,serif" font-size="9.00">LkClose?*</text>
</g>
<!-- Sequence&#45;&gt;LkClose?* -->
<g id="edge5" class="edge">
<title>Sequence&#45;&gt;LkClose?*</title>
<path fill="none" stroke="black" d="M178.36,-145.81C167.62,-136.05 153.5,-123.22 141.63,-112.42"/>
<polygon fill="black" stroke="black" points="143.97,-109.82 134.21,-105.68 139.26,-115 143.97,-109.82"/>
</g>
<!-- MoveTo! -->
<g id="node7" class="node">
<title>MoveTo!</title>
<ellipse fill="gray" stroke="black" cx="197.06" cy="-90" rx="28.74" ry="18"/>
<text text-anchor="middle" x="197.06" y="-87.8" font-family="Times,serif" font-size="9.00">MoveTo!</text>
</g>
<!-- Sequence&#45;&gt;MoveTo! -->
<g id="edge6" class="edge">
<title>Sequence&#45;&gt;MoveTo!</title>
<path fill="none" stroke="black" d="M195.56,-143.7C195.78,-135.98 196.04,-126.71 196.29,-118.11"/>
<polygon fill="black" stroke="black" points="199.79,-118.2 196.57,-108.1 192.79,-118 199.79,-118.2"/>
</g>
<!-- Fallback* -->
<g id="node11" class="node">
<title>Fallback*</title>
<polygon fill="cyan" stroke="black" points="307.81,-82.54 307.81,-97.46 289.21,-108 262.92,-108 244.32,-97.46 244.32,-82.54 262.92,-72 289.21,-72 307.81,-82.54"/>
<text text-anchor="middle" x="276.06" y="-87.8" font-family="Times,serif" font-size="9.00">Fallback*</text>
</g>
<!-- Sequence*&#45;&gt;Fallback* -->
<g id="edge10" class="edge">
<title>Sequence*&#45;&gt;Fallback*</title>
<path fill="none" stroke="black" d="M421.69,-150.41C395.22,-139.76 353.28,-122.83 317.06,-108 314.98,-107.15 312.83,-106.26 310.67,-105.37"/>
<polygon fill="black" stroke="black" points="311.78,-102.05 301.2,-101.46 309.11,-108.52 311.78,-102.05"/>
</g>
<!-- MoveTo!* -->
<g id="node17" class="node">
<title>MoveTo!*</title>
<ellipse fill="gray" stroke="black" cx="358.06" cy="-90" rx="31.51" ry="18"/>
<text text-anchor="middle" x="358.06" y="-87.8" font-family="Times,serif" font-size="9.00">MoveTo!*</text>
</g>
<!-- Sequence*&#45;&gt;MoveTo!* -->
<g id="edge16" class="edge">
<title>Sequence*&#45;&gt;MoveTo!*</title>
<path fill="none" stroke="black" d="M428.98,-146.15C415.95,-136.02 398.53,-122.47 384.21,-111.34"/>
<polygon fill="black" stroke="black" points="386.24,-108.48 376.2,-105.11 381.95,-114.01 386.24,-108.48"/>
</g>
<!-- ReachGoal?** -->
<g id="node18" class="node">
<title>ReachGoal?**</title>
<ellipse fill="gray" stroke="black" cx="447.06" cy="-90" rx="39.02" ry="18"/>
<text text-anchor="middle" x="447.06" y="-87.8" font-family="Times,serif" font-size="9.00">ReachGoal?**</text>
</g>
<!-- Sequence*&#45;&gt;ReachGoal?** -->
<g id="edge17" class="edge">
<title>Sequence*&#45;&gt;ReachGoal?**</title>
<path fill="none" stroke="black" d="M447.82,-143.7C447.71,-135.98 447.57,-126.71 447.45,-118.11"/>
<polygon fill="black" stroke="black" points="450.95,-118.05 447.31,-108.1 443.95,-118.15 450.95,-118.05"/>
</g>
<!-- MoveTo!** -->
<g id="node19" class="node">
<title>MoveTo!**</title>
<ellipse fill="gray" stroke="black" cx="538.06" cy="-90" rx="34.13" ry="18"/>
<text text-anchor="middle" x="538.06" y="-87.8" font-family="Times,serif" font-size="9.00">MoveTo!**</text>
</g>
<!-- Sequence*&#45;&gt;MoveTo!** -->
<g id="edge18" class="edge">
<title>Sequence*&#45;&gt;MoveTo!**</title>
<path fill="none" stroke="black" d="M467.15,-146.15C480.09,-136.09 497.37,-122.65 511.63,-111.56"/>
<polygon fill="black" stroke="black" points="513.88,-114.25 519.62,-105.35 509.58,-108.72 513.88,-114.25"/>
</g>
<!-- MoveTo!*** -->
<g id="node20" class="node">
<title>MoveTo!***</title>
<ellipse fill="gray" stroke="black" cx="627.06" cy="-90" rx="36.9" ry="18"/>
<text text-anchor="middle" x="627.06" y="-87.8" font-family="Times,serif" font-size="9.00">MoveTo!***</text>
</g>
<!-- Sequence*&#45;&gt;MoveTo!*** -->
<g id="edge19" class="edge">
<title>Sequence*&#45;&gt;MoveTo!***</title>
<path fill="none" stroke="black" d="M474.86,-150.52C505.31,-138.61 555.21,-119.1 589.52,-105.68"/>
<polygon fill="black" stroke="black" points="591.16,-108.8 599.2,-101.9 588.61,-102.28 591.16,-108.8"/>
</g>
<!-- ReachGoal?*** -->
<g id="node21" class="node">
<title>ReachGoal?***</title>
<ellipse fill="gray" stroke="black" cx="724.06" cy="-90" rx="42.29" ry="18"/>
<text text-anchor="middle" x="724.06" y="-87.8" font-family="Times,serif" font-size="9.00">ReachGoal?***</text>
</g>
<!-- Sequence*&#45;&gt;ReachGoal?*** -->
<g id="edge20" class="edge">
<title>Sequence*&#45;&gt;ReachGoal?***</title>
<path fill="none" stroke="black" d="M474.34,-150C480.11,-147.82 486.24,-145.69 492.06,-144 570.83,-121.14 593.78,-129.01 673.06,-108 676.27,-107.15 679.56,-106.21 682.86,-105.22"/>
<polygon fill="black" stroke="black" points="684.19,-108.47 692.69,-102.14 682.1,-101.79 684.19,-108.47"/>
</g>
<!-- LkGraph?** -->
<g id="node22" class="node">
<title>LkGraph?**</title>
<ellipse fill="gray" stroke="black" cx="820.06" cy="-90" rx="35.59" ry="18"/>
<text text-anchor="middle" x="820.06" y="-87.8" font-family="Times,serif" font-size="9.00">LkGraph?**</text>
</g>
<!-- Sequence*&#45;&gt;LkGraph?** -->
<g id="edge21" class="edge">
<title>Sequence*&#45;&gt;LkGraph?**</title>
<path fill="none" stroke="black" d="M473.78,-149.87C479.7,-147.64 486.03,-145.53 492.06,-144 614.99,-112.92 652.02,-138.61 775.06,-108 777.87,-107.3 780.75,-106.48 783.62,-105.58"/>
<polygon fill="black" stroke="black" points="784.93,-108.83 793.26,-102.3 782.67,-102.21 784.93,-108.83"/>
</g>
<!-- NotReadyForSG? -->
<g id="node12" class="node">
<title>NotReadyForSG?</title>
<ellipse fill="gray" stroke="black" cx="82.06" cy="-18" rx="46.53" ry="18"/>
<text text-anchor="middle" x="82.06" y="-15.8" font-family="Times,serif" font-size="9.00">NotReadyForSG?</text>
</g>
<!-- Fallback*&#45;&gt;NotReadyForSG? -->
<g id="edge11" class="edge">
<title>Fallback*&#45;&gt;NotReadyForSG?</title>
<path fill="none" stroke="black" d="M251.01,-78.33C245.76,-76.18 240.25,-73.97 235.06,-72 198.67,-58.16 156.87,-43.79 126.16,-33.5"/>
<polygon fill="black" stroke="black" points="127.2,-30.16 116.61,-30.31 124.99,-36.8 127.2,-30.16"/>
</g>
<!-- GetSubGoal! -->
<g id="node13" class="node">
<title>GetSubGoal!</title>
<ellipse fill="gray" stroke="black" cx="184.06" cy="-18" rx="36.9" ry="18"/>
<text text-anchor="middle" x="184.06" y="-15.8" font-family="Times,serif" font-size="9.00">GetSubGoal!</text>
</g>
<!-- Fallback*&#45;&gt;GetSubGoal! -->
<g id="edge12" class="edge">
<title>Fallback*&#45;&gt;GetSubGoal!</title>
<path fill="none" stroke="black" d="M257.45,-74.83C244.28,-64.82 226.41,-51.22 211.59,-39.95"/>
<polygon fill="black" stroke="black" points="213.36,-36.9 203.29,-33.63 209.13,-42.47 213.36,-36.9"/>
</g>
<!-- ReachGoal?* -->
<g id="node14" class="node">
<title>ReachGoal?*</title>
<ellipse fill="gray" stroke="black" cx="276.06" cy="-18" rx="36.9" ry="18"/>
<text text-anchor="middle" x="276.06" y="-15.8" font-family="Times,serif" font-size="9.00">ReachGoal?*</text>
</g>
<!-- Fallback*&#45;&gt;ReachGoal?* -->
<g id="edge13" class="edge">
<title>Fallback*&#45;&gt;ReachGoal?*</title>
<path fill="none" stroke="black" d="M276.06,-71.7C276.06,-63.98 276.06,-54.71 276.06,-46.11"/>
<polygon fill="black" stroke="black" points="279.56,-46.1 276.06,-36.1 272.56,-46.1 279.56,-46.1"/>
</g>
<!-- GetSubGoal!* -->
<g id="node15" class="node">
<title>GetSubGoal!*</title>
<ellipse fill="gray" stroke="black" cx="370.06" cy="-18" rx="39.02" ry="18"/>
<text text-anchor="middle" x="370.06" y="-15.8" font-family="Times,serif" font-size="9.00">GetSubGoal!*</text>
</g>
<!-- Fallback*&#45;&gt;GetSubGoal!* -->
<g id="edge14" class="edge">
<title>Fallback*&#45;&gt;GetSubGoal!*</title>
<path fill="none" stroke="black" d="M295.09,-74.83C308.67,-64.72 327.14,-50.96 342.36,-39.63"/>
<polygon fill="black" stroke="black" points="344.49,-42.41 350.42,-33.63 340.31,-36.79 344.49,-42.41"/>
</g>
<!-- GetSubGoal!** -->
<g id="node16" class="node">
<title>GetSubGoal!**</title>
<ellipse fill="gray" stroke="black" cx="469.06" cy="-18" rx="42.29" ry="18"/>
<text text-anchor="middle" x="469.06" y="-15.8" font-family="Times,serif" font-size="9.00">GetSubGoal!**</text>
</g>
<!-- Fallback*&#45;&gt;GetSubGoal!** -->
<g id="edge15" class="edge">
<title>Fallback*&#45;&gt;GetSubGoal!**</title>
<path fill="none" stroke="black" d="M301.12,-78.34C306.37,-76.19 311.88,-73.98 317.06,-72 337.56,-64.19 390.07,-46.03 427.63,-33.15"/>
<polygon fill="black" stroke="black" points="428.98,-36.39 437.3,-29.83 426.71,-29.76 428.98,-36.39"/>
</g>
</g>
</svg>
