<?xml version="1.0" encoding="UTF-8" standalone="no"?>
<!DOCTYPE svg PUBLIC "-//W3C//DTD SVG 1.1//EN"
 "http://www.w3.org/Graphics/SVG/1.1/DTD/svg11.dtd">
<!-- Generated by graphviz version 2.43.0 (0)
 -->
<!-- Title: pastafarianism Pages: 1 -->
<svg width="1082pt" height="332pt"
 viewBox="0.00 0.00 1082.17 332.00" xmlns="http://www.w3.org/2000/svg" xmlns:xlink="http://www.w3.org/1999/xlink">
<g id="graph0" class="graph" transform="scale(1 1) rotate(0) translate(4 328)">
<title>pastafarianism</title>
<polygon fill="white" stroke="transparent" points="-4,4 -4,-328 1078.17,-328 1078.17,4 -4,4"/>
<!-- Fallback -->
<g id="node1" class="node">
<title>Fallback</title>
<polygon fill="cyan" stroke="black" points="308.31,-298.54 308.31,-313.46 291.18,-324 266.95,-324 249.82,-313.46 249.82,-298.54 266.95,-288 291.18,-288 308.31,-298.54"/>
<text text-anchor="middle" x="279.06" y="-303.8" font-family="Times,serif" font-size="9.00">Fallback</text>
</g>
<!-- LkGraph? -->
<g id="node2" class="node">
<title>LkGraph?</title>
<ellipse fill="gray" stroke="black" cx="42.06" cy="-234" rx="30.7" ry="18"/>
<text text-anchor="middle" x="42.06" y="-231.8" font-family="Times,serif" font-size="9.00">LkGraph?</text>
</g>
<!-- Fallback&#45;&gt;LkGraph? -->
<g id="edge1" class="edge">
<title>Fallback&#45;&gt;LkGraph?</title>
<path fill="none" stroke="black" d="M249.8,-298.61C210.79,-289.77 139.85,-272.55 81.06,-252 78.97,-251.27 76.83,-250.47 74.68,-249.64"/>
<polygon fill="black" stroke="black" points="75.93,-246.37 65.35,-245.82 73.28,-252.85 75.93,-246.37"/>
</g>
<!-- LkClose? -->
<g id="node3" class="node">
<title>LkClose?</title>
<ellipse fill="gray" stroke="black" cx="119.06" cy="-234" rx="28.74" ry="18"/>
<text text-anchor="middle" x="119.06" y="-231.8" font-family="Times,serif" font-size="9.00">LkClose?</text>
</g>
<!-- Fallback&#45;&gt;LkClose? -->
<g id="edge2" class="edge">
<title>Fallback&#45;&gt;LkClose?</title>
<path fill="none" stroke="black" d="M255.64,-294.91C231.06,-284.31 191.29,-267.09 157.06,-252 155.23,-251.19 153.34,-250.36 151.44,-249.51"/>
<polygon fill="black" stroke="black" points="152.51,-246.16 141.95,-245.29 149.66,-252.55 152.51,-246.16"/>
</g>
<!-- Sequence -->
<g id="node4" class="node">
<title>Sequence</title>
<polygon fill="cyan" stroke="black" points="228.56,-226.54 228.56,-241.46 210.11,-252 184.02,-252 165.57,-241.46 165.57,-226.54 184.02,-216 210.11,-216 228.56,-226.54"/>
<text text-anchor="middle" x="197.06" y="-231.8" font-family="Times,serif" font-size="9.00">Sequence</text>
</g>
<!-- Fallback&#45;&gt;Sequence -->
<g id="edge3" class="edge">
<title>Fallback&#45;&gt;Sequence</title>
<path fill="none" stroke="black" d="M262.07,-290.5C250.5,-280.61 234.98,-267.36 222,-256.29"/>
<polygon fill="black" stroke="black" points="224.19,-253.56 214.31,-249.73 219.65,-258.88 224.19,-253.56"/>
</g>
<!-- LkGraph?* -->
<g id="node8" class="node">
<title>LkGraph?*</title>
<ellipse fill="gray" stroke="black" cx="279.06" cy="-234" rx="32.82" ry="18"/>
<text text-anchor="middle" x="279.06" y="-231.8" font-family="Times,serif" font-size="9.00">LkGraph?*</text>
</g>
<!-- Fallback&#45;&gt;LkGraph?* -->
<g id="edge7" class="edge">
<title>Fallback&#45;&gt;LkGraph?*</title>
<path fill="none" stroke="black" d="M279.06,-287.7C279.06,-279.98 279.06,-270.71 279.06,-262.11"/>
<polygon fill="black" stroke="black" points="282.56,-262.1 279.06,-252.1 275.56,-262.1 282.56,-262.1"/>
</g>
<!-- LkClose?** -->
<g id="node9" class="node">
<title>LkClose?**</title>
<ellipse fill="gray" stroke="black" cx="364.06" cy="-234" rx="34.13" ry="18"/>
<text text-anchor="middle" x="364.06" y="-231.8" font-family="Times,serif" font-size="9.00">LkClose?**</text>
</g>
<!-- Fallback&#45;&gt;LkClose?** -->
<g id="edge8" class="edge">
<title>Fallback&#45;&gt;LkClose?**</title>
<path fill="none" stroke="black" d="M296.26,-290.83C308.32,-280.91 324.64,-267.47 338.24,-256.26"/>
<polygon fill="black" stroke="black" points="340.81,-258.69 346.3,-249.63 336.36,-253.28 340.81,-258.69"/>
</g>
<!-- Sequence* -->
<g id="node10" class="node">
<title>Sequence*</title>
<polygon fill="cyan" stroke="black" points="575.31,-226.54 575.31,-241.46 555.25,-252 526.88,-252 506.82,-241.46 506.82,-226.54 526.88,-216 555.25,-216 575.31,-226.54"/>
<text text-anchor="middle" x="541.06" y="-231.8" font-family="Times,serif" font-size="9.00">Sequence*</text>
</g>
<!-- Fallback&#45;&gt;Sequence* -->
<g id="edge9" class="edge">
<title>Fallback&#45;&gt;Sequence*</title>
<path fill="none" stroke="black" d="M307.1,-297.51C353.48,-285.12 446.39,-260.3 500.12,-245.94"/>
<polygon fill="black" stroke="black" points="501.24,-249.26 510,-243.3 499.43,-242.5 501.24,-249.26"/>
</g>
<!-- ReachGoal?*** -->
<g id="node26" class="node">
<title>ReachGoal?***</title>
<ellipse fill="gray" stroke="black" cx="636.06" cy="-234" rx="42.29" ry="18"/>
<text text-anchor="middle" x="636.06" y="-231.8" font-family="Times,serif" font-size="9.00">ReachGoal?***</text>
</g>
<!-- Fallback&#45;&gt;ReachGoal?*** -->
<g id="edge25" class="edge">
<title>Fallback&#45;&gt;ReachGoal?***</title>
<path fill="none" stroke="black" d="M308.37,-301.34C363.07,-294.19 484.19,-276.87 584.06,-252 587.64,-251.11 591.32,-250.1 595,-249.03"/>
<polygon fill="black" stroke="black" points="596.11,-252.35 604.65,-246.07 594.06,-245.65 596.11,-252.35"/>
</g>
<!-- ReachGoal? -->
<g id="node5" class="node">
<title>ReachGoal?</title>
<ellipse fill="gray" stroke="black" cx="34.06" cy="-162" rx="34.13" ry="18"/>
<text text-anchor="middle" x="34.06" y="-159.8" font-family="Times,serif" font-size="9.00">ReachGoal?</text>
</g>
<!-- Sequence&#45;&gt;ReachGoal? -->
<g id="edge4" class="edge">
<title>Sequence&#45;&gt;ReachGoal?</title>
<path fill="none" stroke="black" d="M172.31,-222.37C144.82,-210.57 100.25,-191.42 69.17,-178.08"/>
<polygon fill="black" stroke="black" points="70.16,-174.69 59.59,-173.96 67.4,-181.12 70.16,-174.69"/>
</g>
<!-- LkClose?* -->
<g id="node6" class="node">
<title>LkClose?*</title>
<ellipse fill="gray" stroke="black" cx="118.06" cy="-162" rx="31.51" ry="18"/>
<text text-anchor="middle" x="118.06" y="-159.8" font-family="Times,serif" font-size="9.00">LkClose?*</text>
</g>
<!-- Sequence&#45;&gt;LkClose?* -->
<g id="edge5" class="edge">
<title>Sequence&#45;&gt;LkClose?*</title>
<path fill="none" stroke="black" d="M179.92,-217.81C168.9,-208.05 154.42,-195.22 142.24,-184.42"/>
<polygon fill="black" stroke="black" points="144.44,-181.69 134.63,-177.68 139.79,-186.93 144.44,-181.69"/>
</g>
<!-- MoveTo! -->
<g id="node7" class="node">
<title>MoveTo!</title>
<ellipse fill="gray" stroke="black" cx="197.06" cy="-162" rx="28.74" ry="18"/>
<text text-anchor="middle" x="197.06" y="-159.8" font-family="Times,serif" font-size="9.00">MoveTo!</text>
</g>
<!-- Sequence&#45;&gt;MoveTo! -->
<g id="edge6" class="edge">
<title>Sequence&#45;&gt;MoveTo!</title>
<path fill="none" stroke="black" d="M197.06,-215.7C197.06,-207.98 197.06,-198.71 197.06,-190.11"/>
<polygon fill="black" stroke="black" points="200.56,-190.1 197.06,-180.1 193.56,-190.1 200.56,-190.1"/>
</g>
<!-- Fallback* -->
<g id="node11" class="node">
<title>Fallback*</title>
<polygon fill="cyan" stroke="black" points="307.81,-154.54 307.81,-169.46 289.21,-180 262.92,-180 244.32,-169.46 244.32,-154.54 262.92,-144 289.21,-144 307.81,-154.54"/>
<text text-anchor="middle" x="276.06" y="-159.8" font-family="Times,serif" font-size="9.00">Fallback*</text>
</g>
<!-- Sequence*&#45;&gt;Fallback* -->
<g id="edge10" class="edge">
<title>Sequence*&#45;&gt;Fallback*</title>
<path fill="none" stroke="black" d="M506.82,-226.68C462.47,-218.09 383.04,-201.33 317.06,-180 314.77,-179.26 312.43,-178.45 310.09,-177.59"/>
<polygon fill="black" stroke="black" points="311.13,-174.24 300.54,-173.9 308.61,-180.77 311.13,-174.24"/>
</g>
<!-- MoveTo!** -->
<g id="node18" class="node">
<title>MoveTo!**</title>
<ellipse fill="gray" stroke="black" cx="360.06" cy="-162" rx="34.13" ry="18"/>
<text text-anchor="middle" x="360.06" y="-159.8" font-family="Times,serif" font-size="9.00">MoveTo!**</text>
</g>
<!-- Sequence*&#45;&gt;MoveTo!** -->
<g id="edge17" class="edge">
<title>Sequence*&#45;&gt;MoveTo!**</title>
<path fill="none" stroke="black" d="M514.06,-222.72C486.22,-212.1 441.56,-195 403.06,-180 400.71,-179.08 398.28,-178.13 395.83,-177.17"/>
<polygon fill="black" stroke="black" points="397.01,-173.88 386.43,-173.47 394.45,-180.39 397.01,-173.88"/>
</g>
<!-- ReachGoal?* -->
<g id="node19" class="node">
<title>ReachGoal?*</title>
<ellipse fill="gray" stroke="black" cx="449.06" cy="-162" rx="36.9" ry="18"/>
<text text-anchor="middle" x="449.06" y="-159.8" font-family="Times,serif" font-size="9.00">ReachGoal?*</text>
</g>
<!-- Sequence*&#45;&gt;ReachGoal?* -->
<g id="edge18" class="edge">
<title>Sequence*&#45;&gt;ReachGoal?*</title>
<path fill="none" stroke="black" d="M522,-218.5C508.8,-208.45 491.03,-194.93 476.34,-183.75"/>
<polygon fill="black" stroke="black" points="478.18,-180.76 468.1,-177.49 473.94,-186.33 478.18,-180.76"/>
</g>
<!-- MoveTo!*** -->
<g id="node20" class="node">
<title>MoveTo!***</title>
<ellipse fill="gray" stroke="black" cx="541.06" cy="-162" rx="36.9" ry="18"/>
<text text-anchor="middle" x="541.06" y="-159.8" font-family="Times,serif" font-size="9.00">MoveTo!***</text>
</g>
<!-- Sequence*&#45;&gt;MoveTo!*** -->
<g id="edge19" class="edge">
<title>Sequence*&#45;&gt;MoveTo!***</title>
<path fill="none" stroke="black" d="M541.06,-215.7C541.06,-207.98 541.06,-198.71 541.06,-190.11"/>
<polygon fill="black" stroke="black" points="544.56,-190.1 541.06,-180.1 537.56,-190.1 544.56,-190.1"/>
</g>
<!-- MoveTo!**** -->
<g id="node21" class="node">
<title>MoveTo!****</title>
<ellipse fill="gray" stroke="black" cx="635.06" cy="-162" rx="39.02" ry="18"/>
<text text-anchor="middle" x="635.06" y="-159.8" font-family="Times,serif" font-size="9.00">MoveTo!****</text>
</g>
<!-- Sequence*&#45;&gt;MoveTo!**** -->
<g id="edge20" class="edge">
<title>Sequence*&#45;&gt;MoveTo!****</title>
<path fill="none" stroke="black" d="M560.54,-218.5C573.94,-208.52 591.94,-195.11 606.89,-183.98"/>
<polygon fill="black" stroke="black" points="609.36,-186.51 615.29,-177.73 605.18,-180.89 609.36,-186.51"/>
</g>
<!-- GetSubGoal!** -->
<g id="node22" class="node">
<title>GetSubGoal!**</title>
<ellipse fill="gray" stroke="black" cx="734.06" cy="-162" rx="42.29" ry="18"/>
<text text-anchor="middle" x="734.06" y="-159.8" font-family="Times,serif" font-size="9.00">GetSubGoal!**</text>
</g>
<!-- Sequence*&#45;&gt;GetSubGoal!** -->
<g id="edge21" class="edge">
<title>Sequence*&#45;&gt;GetSubGoal!**</title>
<path fill="none" stroke="black" d="M568.01,-222.46C573.64,-220.29 579.54,-218.05 585.06,-216 621.26,-202.57 662.64,-187.91 692.6,-177.41"/>
<polygon fill="black" stroke="black" points="694.01,-180.63 702.29,-174.02 691.7,-174.02 694.01,-180.63"/>
</g>
<!-- GetSubGoal!*** -->
<g id="node23" class="node">
<title>GetSubGoal!***</title>
<ellipse fill="gray" stroke="black" cx="839.06" cy="-162" rx="44.41" ry="18"/>
<text text-anchor="middle" x="839.06" y="-159.8" font-family="Times,serif" font-size="9.00">GetSubGoal!***</text>
</g>
<!-- Sequence*&#45;&gt;GetSubGoal!*** -->
<g id="edge22" class="edge">
<title>Sequence*&#45;&gt;GetSubGoal!***</title>
<path fill="none" stroke="black" d="M567.31,-221.92C573.09,-219.75 579.23,-217.64 585.06,-216 672.03,-191.61 697.37,-201.6 785.06,-180 788.71,-179.1 792.48,-178.09 796.24,-177.02"/>
<polygon fill="black" stroke="black" points="797.53,-180.29 806.12,-174.1 795.54,-173.58 797.53,-180.29"/>
</g>
<!-- ReachGoal?** -->
<g id="node24" class="node">
<title>ReachGoal?**</title>
<ellipse fill="gray" stroke="black" cx="941.06" cy="-162" rx="39.02" ry="18"/>
<text text-anchor="middle" x="941.06" y="-159.8" font-family="Times,serif" font-size="9.00">ReachGoal?**</text>
</g>
<!-- Sequence*&#45;&gt;ReachGoal?** -->
<g id="edge23" class="edge">
<title>Sequence*&#45;&gt;ReachGoal?**</title>
<path fill="none" stroke="black" d="M566.77,-221.82C572.69,-219.6 579.02,-217.5 585.06,-216 718.42,-182.98 758.16,-210.7 892.06,-180 895.46,-179.22 898.94,-178.29 902.42,-177.27"/>
<polygon fill="black" stroke="black" points="903.61,-180.57 912.09,-174.21 901.5,-173.89 903.61,-180.57"/>
</g>
<!-- LkGraph?*** -->
<g id="node25" class="node">
<title>LkGraph?***</title>
<ellipse fill="gray" stroke="black" cx="1036.06" cy="-162" rx="38.21" ry="18"/>
<text text-anchor="middle" x="1036.06" y="-159.8" font-family="Times,serif" font-size="9.00">LkGraph?***</text>
</g>
<!-- Sequence*&#45;&gt;LkGraph?*** -->
<g id="edge24" class="edge">
<title>Sequence*&#45;&gt;LkGraph?***</title>
<path fill="none" stroke="black" d="M566.74,-221.7C572.66,-219.48 579,-217.41 585.06,-216 760.63,-175.12 813.06,-218.98 989.06,-180 992.1,-179.33 995.21,-178.51 998.31,-177.6"/>
<polygon fill="black" stroke="black" points="999.63,-180.85 1008.08,-174.45 997.49,-174.19 999.63,-180.85"/>
</g>
<!-- Sequence** -->
<g id="node12" class="node">
<title>Sequence**</title>
<polygon fill="cyan" stroke="black" points="159.8,-82.54 159.8,-97.46 138.28,-108 107.85,-108 86.32,-97.46 86.32,-82.54 107.85,-72 138.28,-72 159.8,-82.54"/>
<text text-anchor="middle" x="123.06" y="-87.8" font-family="Times,serif" font-size="9.00">Sequence**</text>
</g>
<!-- Fallback*&#45;&gt;Sequence** -->
<g id="edge11" class="edge">
<title>Fallback*&#45;&gt;Sequence**</title>
<path fill="none" stroke="black" d="M252.16,-150.06C227.01,-138.56 187.18,-120.33 158.4,-107.17"/>
<polygon fill="black" stroke="black" points="159.65,-103.89 149.1,-102.91 156.74,-110.26 159.65,-103.89"/>
</g>
<!-- NotReadyForSG? -->
<g id="node15" class="node">
<title>NotReadyForSG?</title>
<ellipse fill="gray" stroke="black" cx="225.06" cy="-90" rx="46.53" ry="18"/>
<text text-anchor="middle" x="225.06" y="-87.8" font-family="Times,serif" font-size="9.00">NotReadyForSG?</text>
</g>
<!-- Fallback*&#45;&gt;NotReadyForSG? -->
<g id="edge14" class="edge">
<title>Fallback*&#45;&gt;NotReadyForSG?</title>
<path fill="none" stroke="black" d="M263.46,-143.7C257.31,-135.27 249.82,-124.97 243.08,-115.73"/>
<polygon fill="black" stroke="black" points="245.89,-113.64 237.17,-107.62 240.23,-117.77 245.89,-113.64"/>
</g>
<!-- GetSubGoal! -->
<g id="node16" class="node">
<title>GetSubGoal!</title>
<ellipse fill="gray" stroke="black" cx="327.06" cy="-90" rx="36.9" ry="18"/>
<text text-anchor="middle" x="327.06" y="-87.8" font-family="Times,serif" font-size="9.00">GetSubGoal!</text>
</g>
<!-- Fallback*&#45;&gt;GetSubGoal! -->
<g id="edge15" class="edge">
<title>Fallback*&#45;&gt;GetSubGoal!</title>
<path fill="none" stroke="black" d="M288.67,-143.7C294.9,-135.14 302.53,-124.67 309.34,-115.33"/>
<polygon fill="black" stroke="black" points="312.24,-117.29 315.3,-107.14 306.58,-113.17 312.24,-117.29"/>
</g>
<!-- GetSubGoal!* -->
<g id="node17" class="node">
<title>GetSubGoal!*</title>
<ellipse fill="gray" stroke="black" cx="421.06" cy="-90" rx="39.02" ry="18"/>
<text text-anchor="middle" x="421.06" y="-87.8" font-family="Times,serif" font-size="9.00">GetSubGoal!*</text>
</g>
<!-- Fallback*&#45;&gt;GetSubGoal!* -->
<g id="edge16" class="edge">
<title>Fallback*&#45;&gt;GetSubGoal!*</title>
<path fill="none" stroke="black" d="M299.36,-149.75C322.78,-138.45 359.16,-120.88 386.05,-107.9"/>
<polygon fill="black" stroke="black" points="387.65,-111.02 395.13,-103.52 384.6,-104.71 387.65,-111.02"/>
</g>
<!-- LkGraph?** -->
<g id="node13" class="node">
<title>LkGraph?**</title>
<ellipse fill="gray" stroke="black" cx="80.06" cy="-18" rx="35.59" ry="18"/>
<text text-anchor="middle" x="80.06" y="-15.8" font-family="Times,serif" font-size="9.00">LkGraph?**</text>
</g>
<!-- Sequence**&#45;&gt;LkGraph?** -->
<g id="edge12" class="edge">
<title>Sequence**&#45;&gt;LkGraph?**</title>
<path fill="none" stroke="black" d="M112.43,-71.7C107.36,-63.44 101.19,-53.39 95.6,-44.3"/>
<polygon fill="black" stroke="black" points="98.49,-42.31 90.27,-35.62 92.53,-45.98 98.49,-42.31"/>
</g>
<!-- MoveTo!* -->
<g id="node14" class="node">
<title>MoveTo!*</title>
<ellipse fill="gray" stroke="black" cx="166.06" cy="-18" rx="31.51" ry="18"/>
<text text-anchor="middle" x="166.06" y="-15.8" font-family="Times,serif" font-size="9.00">MoveTo!*</text>
</g>
<!-- Sequence**&#45;&gt;MoveTo!* -->
<g id="edge13" class="edge">
<title>Sequence**&#45;&gt;MoveTo!*</title>
<path fill="none" stroke="black" d="M133.69,-71.7C138.84,-63.32 145.12,-53.1 150.77,-43.9"/>
<polygon fill="black" stroke="black" points="153.89,-45.5 156.15,-35.14 147.93,-41.83 153.89,-45.5"/>
</g>
</g>
</svg>
