<?xml version="1.0" encoding="UTF-8" standalone="no"?>
<!DOCTYPE svg PUBLIC "-//W3C//DTD SVG 1.1//EN"
 "http://www.w3.org/Graphics/SVG/1.1/DTD/svg11.dtd">
<!-- Generated by graphviz version 2.43.0 (0)
 -->
<!-- Title: pastafarianism Pages: 1 -->
<svg width="1323pt" height="260pt"
 viewBox="0.00 0.00 1322.60 260.00" xmlns="http://www.w3.org/2000/svg" xmlns:xlink="http://www.w3.org/1999/xlink">
<g id="graph0" class="graph" transform="scale(1 1) rotate(0) translate(4 256)">
<title>pastafarianism</title>
<polygon fill="white" stroke="transparent" points="-4,4 -4,-256 1318.6,-256 1318.6,4 -4,4"/>
<!-- Fallback -->
<g id="node1" class="node">
<title>Fallback</title>
<polygon fill="cyan" stroke="black" points="381.84,-226.54 381.84,-241.46 364.71,-252 340.49,-252 323.36,-241.46 323.36,-226.54 340.49,-216 364.71,-216 381.84,-226.54"/>
<text text-anchor="middle" x="352.6" y="-231.8" font-family="Times,serif" font-size="9.00">Fallback</text>
</g>
<!-- LkGraph? -->
<g id="node2" class="node">
<title>LkGraph?</title>
<ellipse fill="gray" stroke="black" cx="30.6" cy="-162" rx="30.7" ry="18"/>
<text text-anchor="middle" x="30.6" y="-159.8" font-family="Times,serif" font-size="9.00">LkGraph?</text>
</g>
<!-- Fallback&#45;&gt;LkGraph? -->
<g id="edge1" class="edge">
<title>Fallback&#45;&gt;LkGraph?</title>
<path fill="none" stroke="black" d="M323.15,-229.71C271.12,-223.41 159.91,-207.75 69.6,-180 67.48,-179.35 65.32,-178.61 63.15,-177.83"/>
<polygon fill="black" stroke="black" points="64.37,-174.55 53.79,-174.13 61.8,-181.06 64.37,-174.55"/>
</g>
<!-- LkClose? -->
<g id="node3" class="node">
<title>LkClose?</title>
<ellipse fill="gray" stroke="black" cx="107.6" cy="-162" rx="28.74" ry="18"/>
<text text-anchor="middle" x="107.6" y="-159.8" font-family="Times,serif" font-size="9.00">LkClose?</text>
</g>
<!-- Fallback&#45;&gt;LkClose? -->
<g id="edge2" class="edge">
<title>Fallback&#45;&gt;LkClose?</title>
<path fill="none" stroke="black" d="M323.34,-227.15C282.82,-218.68 207.6,-201.63 145.6,-180 143.49,-179.26 141.34,-178.46 139.19,-177.61"/>
<polygon fill="black" stroke="black" points="140.43,-174.34 129.85,-173.71 137.73,-180.8 140.43,-174.34"/>
</g>
<!-- Sequence -->
<g id="node4" class="node">
<title>Sequence</title>
<polygon fill="cyan" stroke="black" points="217.09,-154.54 217.09,-169.46 198.64,-180 172.55,-180 154.11,-169.46 154.11,-154.54 172.55,-144 198.64,-144 217.09,-154.54"/>
<text text-anchor="middle" x="185.6" y="-159.8" font-family="Times,serif" font-size="9.00">Sequence</text>
</g>
<!-- Fallback&#45;&gt;Sequence -->
<g id="edge3" class="edge">
<title>Fallback&#45;&gt;Sequence</title>
<path fill="none" stroke="black" d="M328.7,-223.08C303.16,-212.47 261.49,-195.12 225.6,-180 223.57,-179.14 221.47,-178.26 219.36,-177.37"/>
<polygon fill="black" stroke="black" points="220.7,-174.13 210.13,-173.45 217.97,-180.58 220.7,-174.13"/>
</g>
<!-- LkGraph?* -->
<g id="node8" class="node">
<title>LkGraph?*</title>
<ellipse fill="gray" stroke="black" cx="267.6" cy="-162" rx="32.82" ry="18"/>
<text text-anchor="middle" x="267.6" y="-159.8" font-family="Times,serif" font-size="9.00">LkGraph?*</text>
</g>
<!-- Fallback&#45;&gt;LkGraph?* -->
<g id="edge7" class="edge">
<title>Fallback&#45;&gt;LkGraph?*</title>
<path fill="none" stroke="black" d="M335.4,-218.83C323.27,-208.84 306.81,-195.29 293.15,-184.04"/>
<polygon fill="black" stroke="black" points="295.01,-181.04 285.07,-177.38 290.56,-186.44 295.01,-181.04"/>
</g>
<!-- LkClose?** -->
<g id="node9" class="node">
<title>LkClose?**</title>
<ellipse fill="gray" stroke="black" cx="352.6" cy="-162" rx="34.13" ry="18"/>
<text text-anchor="middle" x="352.6" y="-159.8" font-family="Times,serif" font-size="9.00">LkClose?**</text>
</g>
<!-- Fallback&#45;&gt;LkClose?** -->
<g id="edge8" class="edge">
<title>Fallback&#45;&gt;LkClose?**</title>
<path fill="none" stroke="black" d="M352.6,-215.7C352.6,-207.98 352.6,-198.71 352.6,-190.11"/>
<polygon fill="black" stroke="black" points="356.1,-190.1 352.6,-180.1 349.1,-190.1 356.1,-190.1"/>
</g>
<!-- LkGraph?** -->
<g id="node10" class="node">
<title>LkGraph?**</title>
<ellipse fill="gray" stroke="black" cx="440.6" cy="-162" rx="35.59" ry="18"/>
<text text-anchor="middle" x="440.6" y="-159.8" font-family="Times,serif" font-size="9.00">LkGraph?**</text>
</g>
<!-- Fallback&#45;&gt;LkGraph?** -->
<g id="edge9" class="edge">
<title>Fallback&#45;&gt;LkGraph?**</title>
<path fill="none" stroke="black" d="M369.99,-219.17C382.63,-209.11 399.97,-195.32 414.31,-183.91"/>
<polygon fill="black" stroke="black" points="416.69,-186.49 422.34,-177.52 412.34,-181.01 416.69,-186.49"/>
</g>
<!-- Sequence* -->
<g id="node11" class="node">
<title>Sequence*</title>
<polygon fill="cyan" stroke="black" points="562.84,-154.54 562.84,-169.46 542.78,-180 514.42,-180 494.36,-169.46 494.36,-154.54 514.42,-144 542.78,-144 562.84,-154.54"/>
<text text-anchor="middle" x="528.6" y="-159.8" font-family="Times,serif" font-size="9.00">Sequence*</text>
</g>
<!-- Fallback&#45;&gt;Sequence* -->
<g id="edge10" class="edge">
<title>Fallback&#45;&gt;Sequence*</title>
<path fill="none" stroke="black" d="M377.07,-223.27C406.99,-211.37 457.88,-191.13 492.35,-177.42"/>
<polygon fill="black" stroke="black" points="494.04,-180.51 502.04,-173.56 491.45,-174.01 494.04,-180.51"/>
</g>
<!-- Sequence** -->
<g id="node19" class="node">
<title>Sequence**</title>
<polygon fill="cyan" stroke="black" points="855.34,-154.54 855.34,-169.46 833.82,-180 803.38,-180 781.86,-169.46 781.86,-154.54 803.38,-144 833.82,-144 855.34,-154.54"/>
<text text-anchor="middle" x="818.6" y="-159.8" font-family="Times,serif" font-size="9.00">Sequence**</text>
</g>
<!-- Fallback&#45;&gt;Sequence** -->
<g id="edge18" class="edge">
<title>Fallback&#45;&gt;Sequence**</title>
<path fill="none" stroke="black" d="M382.1,-228.57C460.77,-216.75 676.02,-184.42 771.69,-170.05"/>
<polygon fill="black" stroke="black" points="772.29,-173.5 781.66,-168.55 771.25,-166.57 772.29,-173.5"/>
</g>
<!-- ReachGoal?*** -->
<g id="node35" class="node">
<title>ReachGoal?***</title>
<ellipse fill="gray" stroke="black" cx="915.6" cy="-162" rx="42.29" ry="18"/>
<text text-anchor="middle" x="915.6" y="-159.8" font-family="Times,serif" font-size="9.00">ReachGoal?***</text>
</g>
<!-- Fallback&#45;&gt;ReachGoal?*** -->
<g id="edge34" class="edge">
<title>Fallback&#45;&gt;ReachGoal?***</title>
<path fill="none" stroke="black" d="M382.1,-232.2C461.16,-229.56 683.99,-218.96 864.6,-180 868.03,-179.26 871.56,-178.37 875.08,-177.39"/>
<polygon fill="black" stroke="black" points="876.32,-180.67 884.89,-174.44 874.3,-173.97 876.32,-180.67"/>
</g>
<!-- ReachGoal? -->
<g id="node5" class="node">
<title>ReachGoal?</title>
<ellipse fill="gray" stroke="black" cx="97.6" cy="-90" rx="34.13" ry="18"/>
<text text-anchor="middle" x="97.6" y="-87.8" font-family="Times,serif" font-size="9.00">ReachGoal?</text>
</g>
<!-- Sequence&#45;&gt;ReachGoal? -->
<g id="edge4" class="edge">
<title>Sequence&#45;&gt;ReachGoal?</title>
<path fill="none" stroke="black" d="M167.37,-146.5C154.74,-136.45 137.75,-122.93 123.69,-111.75"/>
<polygon fill="black" stroke="black" points="125.81,-108.97 115.81,-105.49 121.46,-114.45 125.81,-108.97"/>
</g>
<!-- LkClose?* -->
<g id="node6" class="node">
<title>LkClose?*</title>
<ellipse fill="gray" stroke="black" cx="181.6" cy="-90" rx="31.51" ry="18"/>
<text text-anchor="middle" x="181.6" y="-87.8" font-family="Times,serif" font-size="9.00">LkClose?*</text>
</g>
<!-- Sequence&#45;&gt;LkClose?* -->
<g id="edge5" class="edge">
<title>Sequence&#45;&gt;LkClose?*</title>
<path fill="none" stroke="black" d="M184.61,-143.7C184.17,-135.98 183.64,-126.71 183.15,-118.11"/>
<polygon fill="black" stroke="black" points="186.64,-117.89 182.58,-108.1 179.65,-118.29 186.64,-117.89"/>
</g>
<!-- MoveTo! -->
<g id="node7" class="node">
<title>MoveTo!</title>
<ellipse fill="gray" stroke="black" cx="260.6" cy="-90" rx="28.74" ry="18"/>
<text text-anchor="middle" x="260.6" y="-87.8" font-family="Times,serif" font-size="9.00">MoveTo!</text>
</g>
<!-- Sequence&#45;&gt;MoveTo! -->
<g id="edge6" class="edge">
<title>Sequence&#45;&gt;MoveTo!</title>
<path fill="none" stroke="black" d="M201.87,-145.81C212.3,-136.08 226,-123.29 237.55,-112.52"/>
<polygon fill="black" stroke="black" points="240.2,-114.82 245.13,-105.44 235.43,-109.71 240.2,-114.82"/>
</g>
<!-- Fallback* -->
<g id="node12" class="node">
<title>Fallback*</title>
<polygon fill="cyan" stroke="black" points="371.34,-82.54 371.34,-97.46 352.75,-108 326.45,-108 307.86,-97.46 307.86,-82.54 326.45,-72 352.75,-72 371.34,-82.54"/>
<text text-anchor="middle" x="339.6" y="-87.8" font-family="Times,serif" font-size="9.00">Fallback*</text>
</g>
<!-- Sequence*&#45;&gt;Fallback* -->
<g id="edge11" class="edge">
<title>Sequence*&#45;&gt;Fallback*</title>
<path fill="none" stroke="black" d="M501.81,-150.27C496.45,-148.17 490.85,-145.99 485.6,-144 448.33,-129.87 405.44,-114.39 375.83,-103.83"/>
<polygon fill="black" stroke="black" points="376.92,-100.5 366.32,-100.45 374.57,-107.1 376.92,-100.5"/>
</g>
<!-- MoveTo!* -->
<g id="node17" class="node">
<title>MoveTo!*</title>
<ellipse fill="gray" stroke="black" cx="448.6" cy="-90" rx="31.51" ry="18"/>
<text text-anchor="middle" x="448.6" y="-87.8" font-family="Times,serif" font-size="9.00">MoveTo!*</text>
</g>
<!-- Sequence*&#45;&gt;MoveTo!* -->
<g id="edge16" class="edge">
<title>Sequence*&#45;&gt;MoveTo!*</title>
<path fill="none" stroke="black" d="M510.84,-145.46C499.67,-135.68 485.09,-122.93 472.86,-112.22"/>
<polygon fill="black" stroke="black" points="475.04,-109.49 465.21,-105.54 470.43,-114.76 475.04,-109.49"/>
</g>
<!-- LkClose?*** -->
<g id="node18" class="node">
<title>LkClose?***</title>
<ellipse fill="gray" stroke="black" cx="535.6" cy="-90" rx="36.9" ry="18"/>
<text text-anchor="middle" x="535.6" y="-87.8" font-family="Times,serif" font-size="9.00">LkClose?***</text>
</g>
<!-- Sequence*&#45;&gt;LkClose?*** -->
<g id="edge17" class="edge">
<title>Sequence*&#45;&gt;LkClose?***</title>
<path fill="none" stroke="black" d="M530.33,-143.7C531.1,-135.98 532.03,-126.71 532.89,-118.11"/>
<polygon fill="black" stroke="black" points="536.38,-118.4 533.89,-108.1 529.41,-117.71 536.38,-118.4"/>
</g>
<!-- NotReadyForSG? -->
<g id="node13" class="node">
<title>NotReadyForSG?</title>
<ellipse fill="gray" stroke="black" cx="139.6" cy="-18" rx="46.53" ry="18"/>
<text text-anchor="middle" x="139.6" y="-15.8" font-family="Times,serif" font-size="9.00">NotReadyForSG?</text>
</g>
<!-- Fallback*&#45;&gt;NotReadyForSG? -->
<g id="edge12" class="edge">
<title>Fallback*&#45;&gt;NotReadyForSG?</title>
<path fill="none" stroke="black" d="M315,-78.47C309.62,-76.26 303.94,-73.99 298.6,-72 260.43,-57.75 216.45,-43.23 184.44,-33"/>
<polygon fill="black" stroke="black" points="185.49,-29.67 174.9,-29.97 183.37,-36.34 185.49,-29.67"/>
</g>
<!-- GetSubGoal! -->
<g id="node14" class="node">
<title>GetSubGoal!</title>
<ellipse fill="gray" stroke="black" cx="241.6" cy="-18" rx="36.9" ry="18"/>
<text text-anchor="middle" x="241.6" y="-15.8" font-family="Times,serif" font-size="9.00">GetSubGoal!</text>
</g>
<!-- Fallback*&#45;&gt;GetSubGoal! -->
<g id="edge13" class="edge">
<title>Fallback*&#45;&gt;GetSubGoal!</title>
<path fill="none" stroke="black" d="M320.24,-75.17C305.93,-64.95 286.22,-50.87 270.11,-39.37"/>
<polygon fill="black" stroke="black" points="271.77,-36.25 261.59,-33.28 267.7,-41.94 271.77,-36.25"/>
</g>
<!-- GetSubGoal!* -->
<g id="node15" class="node">
<title>GetSubGoal!*</title>
<ellipse fill="gray" stroke="black" cx="335.6" cy="-18" rx="39.02" ry="18"/>
<text text-anchor="middle" x="335.6" y="-15.8" font-family="Times,serif" font-size="9.00">GetSubGoal!*</text>
</g>
<!-- Fallback*&#45;&gt;GetSubGoal!* -->
<g id="edge14" class="edge">
<title>Fallback*&#45;&gt;GetSubGoal!*</title>
<path fill="none" stroke="black" d="M338.61,-71.7C338.17,-63.98 337.64,-54.71 337.15,-46.11"/>
<polygon fill="black" stroke="black" points="340.64,-45.89 336.58,-36.1 333.65,-46.29 340.64,-45.89"/>
</g>
<!-- ReachGoal?* -->
<g id="node16" class="node">
<title>ReachGoal?*</title>
<ellipse fill="gray" stroke="black" cx="429.6" cy="-18" rx="36.9" ry="18"/>
<text text-anchor="middle" x="429.6" y="-15.8" font-family="Times,serif" font-size="9.00">ReachGoal?*</text>
</g>
<!-- Fallback*&#45;&gt;ReachGoal?* -->
<g id="edge15" class="edge">
<title>Fallback*&#45;&gt;ReachGoal?*</title>
<path fill="none" stroke="black" d="M357.81,-74.83C370.69,-64.82 388.18,-51.22 402.67,-39.95"/>
<polygon fill="black" stroke="black" points="405.05,-42.53 410.79,-33.63 400.75,-37 405.05,-42.53"/>
</g>
<!-- Fallback** -->
<g id="node20" class="node">
<title>Fallback**</title>
<polygon fill="cyan" stroke="black" points="675.59,-82.54 675.59,-97.46 655.09,-108 626.11,-108 605.61,-97.46 605.61,-82.54 626.11,-72 655.09,-72 675.59,-82.54"/>
<text text-anchor="middle" x="640.6" y="-87.8" font-family="Times,serif" font-size="9.00">Fallback**</text>
</g>
<!-- Sequence**&#45;&gt;Fallback** -->
<g id="edge19" class="edge">
<title>Sequence**&#45;&gt;Fallback**</title>
<path fill="none" stroke="black" d="M790.79,-150.06C760.17,-138.02 710.84,-118.62 677.13,-105.36"/>
<polygon fill="black" stroke="black" points="678.22,-102.03 667.63,-101.63 675.66,-108.55 678.22,-102.03"/>
</g>
<!-- MoveTo!** -->
<g id="node26" class="node">
<title>MoveTo!**</title>
<ellipse fill="gray" stroke="black" cx="727.6" cy="-90" rx="34.13" ry="18"/>
<text text-anchor="middle" x="727.6" y="-87.8" font-family="Times,serif" font-size="9.00">MoveTo!**</text>
</g>
<!-- Sequence**&#45;&gt;MoveTo!** -->
<g id="edge25" class="edge">
<title>Sequence**&#45;&gt;MoveTo!**</title>
<path fill="none" stroke="black" d="M798.85,-145.81C785.74,-135.73 768.38,-122.37 754.08,-111.37"/>
<polygon fill="black" stroke="black" points="756.13,-108.53 746.07,-105.21 751.86,-114.08 756.13,-108.53"/>
</g>
<!-- ReachGoal?** -->
<g id="node27" class="node">
<title>ReachGoal?**</title>
<ellipse fill="gray" stroke="black" cx="818.6" cy="-90" rx="39.02" ry="18"/>
<text text-anchor="middle" x="818.6" y="-87.8" font-family="Times,serif" font-size="9.00">ReachGoal?**</text>
</g>
<!-- Sequence**&#45;&gt;ReachGoal?** -->
<g id="edge26" class="edge">
<title>Sequence**&#45;&gt;ReachGoal?**</title>
<path fill="none" stroke="black" d="M818.6,-143.7C818.6,-135.98 818.6,-126.71 818.6,-118.11"/>
<polygon fill="black" stroke="black" points="822.1,-118.1 818.6,-108.1 815.1,-118.1 822.1,-118.1"/>
</g>
<!-- MoveTo!*** -->
<g id="node28" class="node">
<title>MoveTo!***</title>
<ellipse fill="gray" stroke="black" cx="912.6" cy="-90" rx="36.9" ry="18"/>
<text text-anchor="middle" x="912.6" y="-87.8" font-family="Times,serif" font-size="9.00">MoveTo!***</text>
</g>
<!-- Sequence**&#45;&gt;MoveTo!*** -->
<g id="edge27" class="edge">
<title>Sequence**&#45;&gt;MoveTo!***</title>
<path fill="none" stroke="black" d="M838.53,-146.15C851.96,-136.16 869.85,-122.83 884.69,-111.78"/>
<polygon fill="black" stroke="black" points="887.09,-114.36 893.02,-105.58 882.9,-108.75 887.09,-114.36"/>
</g>
<!-- MoveTo!**** -->
<g id="node29" class="node">
<title>MoveTo!****</title>
<ellipse fill="gray" stroke="black" cx="1006.6" cy="-90" rx="39.02" ry="18"/>
<text text-anchor="middle" x="1006.6" y="-87.8" font-family="Times,serif" font-size="9.00">MoveTo!****</text>
</g>
<!-- Sequence**&#45;&gt;MoveTo!**** -->
<g id="edge28" class="edge">
<title>Sequence**&#45;&gt;MoveTo!****</title>
<path fill="none" stroke="black" d="M847.15,-150.37C879.26,-138.41 931.6,-118.92 967.5,-105.56"/>
<polygon fill="black" stroke="black" points="969.01,-108.73 977.16,-101.96 966.56,-102.17 969.01,-108.73"/>
</g>
<!-- LkGraph?**** -->
<g id="node30" class="node">
<title>LkGraph?****</title>
<ellipse fill="gray" stroke="black" cx="1104.6" cy="-90" rx="40.98" ry="18"/>
<text text-anchor="middle" x="1104.6" y="-87.8" font-family="Times,serif" font-size="9.00">LkGraph?****</text>
</g>
<!-- Sequence**&#45;&gt;LkGraph?**** -->
<g id="edge29" class="edge">
<title>Sequence**&#45;&gt;LkGraph?****</title>
<path fill="none" stroke="black" d="M846.09,-149.99C852.12,-147.82 858.53,-145.68 864.6,-144 947.42,-121.02 971.49,-129.89 1054.6,-108 1057.79,-107.16 1061.07,-106.22 1064.36,-105.22"/>
<polygon fill="black" stroke="black" points="1065.66,-108.48 1074.13,-102.12 1063.54,-101.81 1065.66,-108.48"/>
</g>
<!-- Fallback*** -->
<g id="node31" class="node">
<title>Fallback***</title>
<polygon fill="cyan" stroke="black" points="1238.09,-82.54 1238.09,-97.46 1216.13,-108 1185.07,-108 1163.11,-97.46 1163.11,-82.54 1185.07,-72 1216.13,-72 1238.09,-82.54"/>
<text text-anchor="middle" x="1200.6" y="-87.8" font-family="Times,serif" font-size="9.00">Fallback***</text>
</g>
<!-- Sequence**&#45;&gt;Fallback*** -->
<g id="edge30" class="edge">
<title>Sequence**&#45;&gt;Fallback***</title>
<path fill="none" stroke="black" d="M846.01,-149.7C852.05,-147.54 858.48,-145.49 864.6,-144 990.79,-113.29 1028.41,-138.71 1154.6,-108 1157.56,-107.28 1160.6,-106.43 1163.63,-105.49"/>
<polygon fill="black" stroke="black" points="1164.81,-108.79 1173.19,-102.3 1162.6,-102.15 1164.81,-108.79"/>
</g>
<!-- NotReadyForSG?* -->
<g id="node21" class="node">
<title>NotReadyForSG?*</title>
<ellipse fill="gray" stroke="black" cx="534.6" cy="-18" rx="49.8" ry="18"/>
<text text-anchor="middle" x="534.6" y="-15.8" font-family="Times,serif" font-size="9.00">NotReadyForSG?*</text>
</g>
<!-- Fallback**&#45;&gt;NotReadyForSG?* -->
<g id="edge20" class="edge">
<title>Fallback**&#45;&gt;NotReadyForSG?*</title>
<path fill="none" stroke="black" d="M619.66,-75.17C604.35,-65.06 583.32,-51.17 566,-39.74"/>
<polygon fill="black" stroke="black" points="567.61,-36.6 557.33,-34.01 563.75,-42.44 567.61,-36.6"/>
</g>
<!-- LkGraph?*** -->
<g id="node22" class="node">
<title>LkGraph?***</title>
<ellipse fill="gray" stroke="black" cx="640.6" cy="-18" rx="38.21" ry="18"/>
<text text-anchor="middle" x="640.6" y="-15.8" font-family="Times,serif" font-size="9.00">LkGraph?***</text>
</g>
<!-- Fallback**&#45;&gt;LkGraph?*** -->
<g id="edge21" class="edge">
<title>Fallback**&#45;&gt;LkGraph?***</title>
<path fill="none" stroke="black" d="M640.6,-71.7C640.6,-63.98 640.6,-54.71 640.6,-46.11"/>
<polygon fill="black" stroke="black" points="644.1,-46.1 640.6,-36.1 637.1,-46.1 644.1,-46.1"/>
</g>
<!-- GetSubGoal!** -->
<g id="node23" class="node">
<title>GetSubGoal!**</title>
<ellipse fill="gray" stroke="black" cx="738.6" cy="-18" rx="42.29" ry="18"/>
<text text-anchor="middle" x="738.6" y="-15.8" font-family="Times,serif" font-size="9.00">GetSubGoal!**</text>
</g>
<!-- Fallback**&#45;&gt;GetSubGoal!** -->
<g id="edge22" class="edge">
<title>Fallback**&#45;&gt;GetSubGoal!**</title>
<path fill="none" stroke="black" d="M660.91,-74.5C675,-64.43 693.99,-50.86 709.67,-39.67"/>
<polygon fill="black" stroke="black" points="711.88,-42.39 717.98,-33.73 707.81,-36.69 711.88,-42.39"/>
</g>
<!-- GetSubGoal!*** -->
<g id="node24" class="node">
<title>GetSubGoal!***</title>
<ellipse fill="gray" stroke="black" cx="843.6" cy="-18" rx="44.41" ry="18"/>
<text text-anchor="middle" x="843.6" y="-15.8" font-family="Times,serif" font-size="9.00">GetSubGoal!***</text>
</g>
<!-- Fallback**&#45;&gt;GetSubGoal!*** -->
<g id="edge23" class="edge">
<title>Fallback**&#45;&gt;GetSubGoal!***</title>
<path fill="none" stroke="black" d="M667.52,-78.37C673.14,-76.21 679.05,-74 684.6,-72 723.43,-58.03 768.04,-43.28 800.1,-32.89"/>
<polygon fill="black" stroke="black" points="801.19,-36.22 809.63,-29.81 799.04,-29.55 801.19,-36.22"/>
</g>
<!-- LkClose?**** -->
<g id="node25" class="node">
<title>LkClose?****</title>
<ellipse fill="gray" stroke="black" cx="945.6" cy="-18" rx="39.02" ry="18"/>
<text text-anchor="middle" x="945.6" y="-15.8" font-family="Times,serif" font-size="9.00">LkClose?****</text>
</g>
<!-- Fallback**&#45;&gt;LkClose?**** -->
<g id="edge24" class="edge">
<title>Fallback**&#45;&gt;LkClose?****</title>
<path fill="none" stroke="black" d="M666.84,-77.88C672.62,-75.71 678.76,-73.61 684.6,-72 776.75,-46.65 804.03,-59.74 896.6,-36 899.93,-35.15 903.35,-34.17 906.77,-33.13"/>
<polygon fill="black" stroke="black" points="907.86,-36.45 916.3,-30.05 905.71,-29.79 907.86,-36.45"/>
</g>
<!-- MoveTo!***** -->
<g id="node32" class="node">
<title>MoveTo!*****</title>
<ellipse fill="gray" stroke="black" cx="1098.6" cy="-18" rx="42.29" ry="18"/>
<text text-anchor="middle" x="1098.6" y="-15.8" font-family="Times,serif" font-size="9.00">MoveTo!*****</text>
</g>
<!-- Fallback***&#45;&gt;MoveTo!***** -->
<g id="edge31" class="edge">
<title>Fallback***&#45;&gt;MoveTo!*****</title>
<path fill="none" stroke="black" d="M1179.47,-74.5C1164.79,-64.43 1145.03,-50.86 1128.71,-39.67"/>
<polygon fill="black" stroke="black" points="1130.28,-36.5 1120.06,-33.73 1126.32,-42.27 1130.28,-36.5"/>
</g>
<!-- LkClose?***** -->
<g id="node33" class="node">
<title>LkClose?*****</title>
<ellipse fill="gray" stroke="black" cx="1200.6" cy="-18" rx="42.29" ry="18"/>
<text text-anchor="middle" x="1200.6" y="-15.8" font-family="Times,serif" font-size="9.00">LkClose?*****</text>
</g>
<!-- Fallback***&#45;&gt;LkClose?***** -->
<g id="edge32" class="edge">
<title>Fallback***&#45;&gt;LkClose?*****</title>
<path fill="none" stroke="black" d="M1200.6,-71.7C1200.6,-63.98 1200.6,-54.71 1200.6,-46.11"/>
<polygon fill="black" stroke="black" points="1204.1,-46.1 1200.6,-36.1 1197.1,-46.1 1204.1,-46.1"/>
</g>
<!-- GetLk! -->
<g id="node34" class="node">
<title>GetLk!</title>
<ellipse fill="gray" stroke="black" cx="1287.6" cy="-18" rx="27" ry="18"/>
<text text-anchor="middle" x="1287.6" y="-15.8" font-family="Times,serif" font-size="9.00">GetLk!</text>
</g>
<!-- Fallback***&#45;&gt;GetLk! -->
<g id="edge33" class="edge">
<title>Fallback***&#45;&gt;GetLk!</title>
<path fill="none" stroke="black" d="M1219.91,-73.46C1232.59,-63.26 1249.3,-49.81 1262.95,-38.84"/>
<polygon fill="black" stroke="black" points="1265.39,-41.37 1270.98,-32.37 1261,-35.91 1265.39,-41.37"/>
</g>
</g>
</svg>
