<?xml version="1.0" encoding="UTF-8" standalone="no"?>
<!DOCTYPE svg PUBLIC "-//W3C//DTD SVG 1.1//EN"
 "http://www.w3.org/Graphics/SVG/1.1/DTD/svg11.dtd">
<!-- Generated by graphviz version 2.43.0 (0)
 -->
<!-- Title: pastafarianism Pages: 1 -->
<svg width="713pt" height="404pt"
 viewBox="0.00 0.00 712.88 404.00" xmlns="http://www.w3.org/2000/svg" xmlns:xlink="http://www.w3.org/1999/xlink">
<g id="graph0" class="graph" transform="scale(1 1) rotate(0) translate(4 400)">
<title>pastafarianism</title>
<polygon fill="white" stroke="transparent" points="-4,4 -4,-400 708.88,-400 708.88,4 -4,4"/>
<!-- Sequence -->
<g id="node1" class="node">
<title>Sequence</title>
<polygon fill="cyan" stroke="black" points="507.04,-370.54 507.04,-385.46 488.6,-396 462.5,-396 444.06,-385.46 444.06,-370.54 462.5,-360 488.6,-360 507.04,-370.54"/>
<text text-anchor="middle" x="475.55" y="-375.8" font-family="Times,serif" font-size="9.00">Sequence</text>
</g>
<!-- Fallback -->
<g id="node2" class="node">
<title>Fallback</title>
<polygon fill="cyan" stroke="black" points="366.79,-298.54 366.79,-313.46 349.66,-324 325.44,-324 308.31,-313.46 308.31,-298.54 325.44,-288 349.66,-288 366.79,-298.54"/>
<text text-anchor="middle" x="337.55" y="-303.8" font-family="Times,serif" font-size="9.00">Fallback</text>
</g>
<!-- Sequence&#45;&gt;Fallback -->
<g id="edge1" class="edge">
<title>Sequence&#45;&gt;Fallback</title>
<path fill="none" stroke="black" d="M452.76,-365.44C429.82,-353.8 394.26,-335.76 368.71,-322.81"/>
<polygon fill="black" stroke="black" points="369.96,-319.52 359.46,-318.11 366.79,-325.76 369.96,-319.52"/>
</g>
<!-- Fallback*** -->
<g id="node18" class="node">
<title>Fallback***</title>
<polygon fill="cyan" stroke="black" points="513.04,-298.54 513.04,-313.46 491.08,-324 460.02,-324 438.06,-313.46 438.06,-298.54 460.02,-288 491.08,-288 513.04,-298.54"/>
<text text-anchor="middle" x="475.55" y="-303.8" font-family="Times,serif" font-size="9.00">Fallback***</text>
</g>
<!-- Sequence&#45;&gt;Fallback*** -->
<g id="edge17" class="edge">
<title>Sequence&#45;&gt;Fallback***</title>
<path fill="none" stroke="black" d="M475.55,-359.7C475.55,-351.98 475.55,-342.71 475.55,-334.11"/>
<polygon fill="black" stroke="black" points="479.05,-334.1 475.55,-324.1 472.05,-334.1 479.05,-334.1"/>
</g>
<!-- pick 0!* -->
<g id="node23" class="node">
<title>pick 0!*</title>
<ellipse fill="gray" stroke="black" cx="557.55" cy="-306" rx="27" ry="18"/>
<text text-anchor="middle" x="557.55" y="-303.8" font-family="Times,serif" font-size="9.00">pick 0!*</text>
</g>
<!-- Sequence&#45;&gt;pick 0!* -->
<g id="edge22" class="edge">
<title>Sequence&#45;&gt;pick 0!*</title>
<path fill="none" stroke="black" d="M492.94,-362.15C504.85,-351.98 520.8,-338.37 533.87,-327.21"/>
<polygon fill="black" stroke="black" points="536.24,-329.79 541.58,-320.64 531.7,-324.47 536.24,-329.79"/>
</g>
<!-- picked 1? -->
<g id="node3" class="node">
<title>picked 1?</title>
<ellipse fill="gray" stroke="black" cx="179.55" cy="-234" rx="28.74" ry="18"/>
<text text-anchor="middle" x="179.55" y="-231.8" font-family="Times,serif" font-size="9.00">picked 1?</text>
</g>
<!-- Fallback&#45;&gt;picked 1? -->
<g id="edge2" class="edge">
<title>Fallback&#45;&gt;picked 1?</title>
<path fill="none" stroke="black" d="M314.08,-294.67C289.88,-284.02 251.06,-266.89 217.55,-252 215.72,-251.19 213.84,-250.35 211.94,-249.5"/>
<polygon fill="black" stroke="black" points="213.01,-246.15 202.45,-245.27 210.15,-252.54 213.01,-246.15"/>
</g>
<!-- 0 at pos (0.0, 0.0, 0.0)? -->
<g id="node4" class="node">
<title>0 at pos (0.0, 0.0, 0.0)?</title>
<ellipse fill="gray" stroke="black" cx="283.55" cy="-234" rx="57.32" ry="18"/>
<text text-anchor="middle" x="283.55" y="-231.8" font-family="Times,serif" font-size="9.00">0 at pos (0.0, 0.0, 0.0)?</text>
</g>
<!-- Fallback&#45;&gt;0 at pos (0.0, 0.0, 0.0)? -->
<g id="edge3" class="edge">
<title>Fallback&#45;&gt;0 at pos (0.0, 0.0, 0.0)?</title>
<path fill="none" stroke="black" d="M324.75,-288.41C318.19,-279.91 310.07,-269.37 302.77,-259.91"/>
<polygon fill="black" stroke="black" points="305.51,-257.74 296.63,-251.96 299.97,-262.01 305.51,-257.74"/>
</g>
<!-- Sequence* -->
<g id="node5" class="node">
<title>Sequence*</title>
<polygon fill="cyan" stroke="black" points="427.79,-226.54 427.79,-241.46 407.73,-252 379.37,-252 359.31,-241.46 359.31,-226.54 379.37,-216 407.73,-216 427.79,-226.54"/>
<text text-anchor="middle" x="393.55" y="-231.8" font-family="Times,serif" font-size="9.00">Sequence*</text>
</g>
<!-- Fallback&#45;&gt;Sequence* -->
<g id="edge4" class="edge">
<title>Fallback&#45;&gt;Sequence*</title>
<path fill="none" stroke="black" d="M350.82,-288.41C357.53,-280.03 365.8,-269.68 373.28,-260.33"/>
<polygon fill="black" stroke="black" points="376.08,-262.44 379.59,-252.45 370.61,-258.07 376.08,-262.44"/>
</g>
<!-- Fallback* -->
<g id="node6" class="node">
<title>Fallback*</title>
<polygon fill="cyan" stroke="black" points="221.29,-154.54 221.29,-169.46 202.7,-180 176.4,-180 157.81,-169.46 157.81,-154.54 176.4,-144 202.7,-144 221.29,-154.54"/>
<text text-anchor="middle" x="189.55" y="-159.8" font-family="Times,serif" font-size="9.00">Fallback*</text>
</g>
<!-- Sequence*&#45;&gt;Fallback* -->
<g id="edge5" class="edge">
<title>Sequence*&#45;&gt;Fallback*</title>
<path fill="none" stroke="black" d="M366.64,-222.36C361.01,-220.21 355.1,-217.99 349.55,-216 307.86,-201.05 259.54,-185.25 227.01,-174.84"/>
<polygon fill="black" stroke="black" points="228.03,-171.49 217.44,-171.78 225.9,-178.16 228.03,-171.49"/>
</g>
<!-- Fallback** -->
<g id="node11" class="node">
<title>Fallback**</title>
<polygon fill="cyan" stroke="black" points="348.54,-154.54 348.54,-169.46 328.04,-180 299.06,-180 278.56,-169.46 278.56,-154.54 299.06,-144 328.04,-144 348.54,-154.54"/>
<text text-anchor="middle" x="313.55" y="-159.8" font-family="Times,serif" font-size="9.00">Fallback**</text>
</g>
<!-- Sequence*&#45;&gt;Fallback** -->
<g id="edge10" class="edge">
<title>Sequence*&#45;&gt;Fallback**</title>
<path fill="none" stroke="black" d="M375.8,-217.46C364.92,-207.95 350.83,-195.62 338.8,-185.1"/>
<polygon fill="black" stroke="black" points="341.09,-182.44 331.25,-178.49 336.48,-187.71 341.09,-182.44"/>
</g>
<!-- pick 0! -->
<g id="node16" class="node">
<title>pick 0!</title>
<ellipse fill="gray" stroke="black" cx="393.55" cy="-162" rx="27" ry="18"/>
<text text-anchor="middle" x="393.55" y="-159.8" font-family="Times,serif" font-size="9.00">pick 0!</text>
</g>
<!-- Sequence*&#45;&gt;pick 0! -->
<g id="edge15" class="edge">
<title>Sequence*&#45;&gt;pick 0!</title>
<path fill="none" stroke="black" d="M393.55,-215.7C393.55,-207.98 393.55,-198.71 393.55,-190.11"/>
<polygon fill="black" stroke="black" points="397.05,-190.1 393.55,-180.1 390.05,-190.1 397.05,-190.1"/>
</g>
<!-- place at (0.0, 0.0, 0.0)! -->
<g id="node17" class="node">
<title>place at (0.0, 0.0, 0.0)!</title>
<ellipse fill="gray" stroke="black" cx="494.55" cy="-162" rx="56.01" ry="18"/>
<text text-anchor="middle" x="494.55" y="-159.8" font-family="Times,serif" font-size="9.00">place at (0.0, 0.0, 0.0)!</text>
</g>
<!-- Sequence*&#45;&gt;place at (0.0, 0.0, 0.0)! -->
<g id="edge16" class="edge">
<title>Sequence*&#45;&gt;place at (0.0, 0.0, 0.0)!</title>
<path fill="none" stroke="black" d="M413.99,-218.83C428.19,-208.99 447.38,-195.69 463.47,-184.54"/>
<polygon fill="black" stroke="black" points="465.81,-187.18 472.03,-178.61 461.82,-181.43 465.81,-187.18"/>
</g>
<!-- 3 at pos (0.016, 0.032, 0.0)? -->
<g id="node7" class="node">
<title>3 at pos (0.016, 0.032, 0.0)?</title>
<ellipse fill="gray" stroke="black" cx="67.55" cy="-90" rx="67.6" ry="18"/>
<text text-anchor="middle" x="67.55" y="-87.8" font-family="Times,serif" font-size="9.00">3 at pos (0.016, 0.032, 0.0)?</text>
</g>
<!-- Fallback*&#45;&gt;3 at pos (0.016, 0.032, 0.0)? -->
<g id="edge6" class="edge">
<title>Fallback*&#45;&gt;3 at pos (0.016, 0.032, 0.0)?</title>
<path fill="none" stroke="black" d="M168.02,-148.65C150.26,-138.46 124.69,-123.78 103.78,-111.79"/>
<polygon fill="black" stroke="black" points="105.27,-108.6 94.85,-106.66 101.78,-114.68 105.27,-108.6"/>
</g>
<!-- Sequence** -->
<g id="node8" class="node">
<title>Sequence**</title>
<polygon fill="cyan" stroke="black" points="226.29,-82.54 226.29,-97.46 204.77,-108 174.33,-108 152.81,-97.46 152.81,-82.54 174.33,-72 204.77,-72 226.29,-82.54"/>
<text text-anchor="middle" x="189.55" y="-87.8" font-family="Times,serif" font-size="9.00">Sequence**</text>
</g>
<!-- Fallback*&#45;&gt;Sequence** -->
<g id="edge7" class="edge">
<title>Fallback*&#45;&gt;Sequence**</title>
<path fill="none" stroke="black" d="M189.55,-143.7C189.55,-135.98 189.55,-126.71 189.55,-118.11"/>
<polygon fill="black" stroke="black" points="193.05,-118.1 189.55,-108.1 186.05,-118.1 193.05,-118.1"/>
</g>
<!-- pick 3! -->
<g id="node9" class="node">
<title>pick 3!</title>
<ellipse fill="gray" stroke="black" cx="140.55" cy="-18" rx="27" ry="18"/>
<text text-anchor="middle" x="140.55" y="-15.8" font-family="Times,serif" font-size="9.00">pick 3!</text>
</g>
<!-- Sequence**&#45;&gt;pick 3! -->
<g id="edge8" class="edge">
<title>Sequence**&#45;&gt;pick 3!</title>
<path fill="none" stroke="black" d="M177.44,-71.7C171.36,-63.02 163.91,-52.37 157.29,-42.92"/>
<polygon fill="black" stroke="black" points="160.12,-40.86 151.52,-34.67 154.39,-44.87 160.12,-40.86"/>
</g>
<!-- place at (0.016, 0.032, 0.0)! -->
<g id="node10" class="node">
<title>place at (0.016, 0.032, 0.0)!</title>
<ellipse fill="gray" stroke="black" cx="251.55" cy="-18" rx="66.29" ry="18"/>
<text text-anchor="middle" x="251.55" y="-15.8" font-family="Times,serif" font-size="9.00">place at (0.016, 0.032, 0.0)!</text>
</g>
<!-- Sequence**&#45;&gt;place at (0.016, 0.032, 0.0)! -->
<g id="edge9" class="edge">
<title>Sequence**&#45;&gt;place at (0.016, 0.032, 0.0)!</title>
<path fill="none" stroke="black" d="M204.88,-71.7C212.5,-63.09 221.83,-52.55 230.14,-43.17"/>
<polygon fill="black" stroke="black" points="232.82,-45.43 236.83,-35.62 227.58,-40.79 232.82,-45.43"/>
</g>
<!-- 2 at pos (0.016, &#45;0.032, 0.0)? -->
<g id="node12" class="node">
<title>2 at pos (0.016, &#45;0.032, 0.0)?</title>
<ellipse fill="gray" stroke="black" cx="313.55" cy="-90" rx="69.06" ry="18"/>
<text text-anchor="middle" x="313.55" y="-87.8" font-family="Times,serif" font-size="9.00">2 at pos (0.016, &#45;0.032, 0.0)?</text>
</g>
<!-- Fallback**&#45;&gt;2 at pos (0.016, &#45;0.032, 0.0)? -->
<g id="edge11" class="edge">
<title>Fallback**&#45;&gt;2 at pos (0.016, &#45;0.032, 0.0)?</title>
<path fill="none" stroke="black" d="M313.55,-143.7C313.55,-135.98 313.55,-126.71 313.55,-118.11"/>
<polygon fill="black" stroke="black" points="317.05,-118.1 313.55,-108.1 310.05,-118.1 317.05,-118.1"/>
</g>
<!-- Sequence*** -->
<g id="node13" class="node">
<title>Sequence***</title>
<polygon fill="cyan" stroke="black" points="480.54,-82.54 480.54,-97.46 457.11,-108 423.99,-108 400.56,-97.46 400.56,-82.54 423.99,-72 457.11,-72 480.54,-82.54"/>
<text text-anchor="middle" x="440.55" y="-87.8" font-family="Times,serif" font-size="9.00">Sequence***</text>
</g>
<!-- Fallback**&#45;&gt;Sequence*** -->
<g id="edge12" class="edge">
<title>Fallback**&#45;&gt;Sequence***</title>
<path fill="none" stroke="black" d="M336.55,-148.32C356.28,-137.45 384.95,-121.64 407.2,-109.38"/>
<polygon fill="black" stroke="black" points="408.92,-112.43 415.99,-104.54 405.54,-106.3 408.92,-112.43"/>
</g>
<!-- pick 2! -->
<g id="node14" class="node">
<title>pick 2!</title>
<ellipse fill="gray" stroke="black" cx="376.55" cy="-18" rx="27" ry="18"/>
<text text-anchor="middle" x="376.55" y="-15.8" font-family="Times,serif" font-size="9.00">pick 2!</text>
</g>
<!-- Sequence***&#45;&gt;pick 2! -->
<g id="edge13" class="edge">
<title>Sequence***&#45;&gt;pick 2!</title>
<path fill="none" stroke="black" d="M424.73,-71.7C416.32,-62.5 405.88,-51.08 396.88,-41.23"/>
<polygon fill="black" stroke="black" points="399.36,-38.76 390.03,-33.74 394.19,-43.48 399.36,-38.76"/>
</g>
<!-- place at (0.016, &#45;0.032, 0.0)! -->
<g id="node15" class="node">
<title>place at (0.016, &#45;0.032, 0.0)!</title>
<ellipse fill="gray" stroke="black" cx="489.55" cy="-18" rx="68.25" ry="18"/>
<text text-anchor="middle" x="489.55" y="-15.8" font-family="Times,serif" font-size="9.00">place at (0.016, &#45;0.032, 0.0)!</text>
</g>
<!-- Sequence***&#45;&gt;place at (0.016, &#45;0.032, 0.0)! -->
<g id="edge14" class="edge">
<title>Sequence***&#45;&gt;place at (0.016, &#45;0.032, 0.0)!</title>
<path fill="none" stroke="black" d="M452.66,-71.7C458.42,-63.47 465.41,-53.48 471.76,-44.42"/>
<polygon fill="black" stroke="black" points="474.71,-46.3 477.58,-36.1 468.97,-42.29 474.71,-46.3"/>
</g>
<!-- 1 on 0? -->
<g id="node19" class="node">
<title>1 on 0?</title>
<ellipse fill="gray" stroke="black" cx="475.55" cy="-234" rx="27" ry="18"/>
<text text-anchor="middle" x="475.55" y="-231.8" font-family="Times,serif" font-size="9.00">1 on 0?</text>
</g>
<!-- Fallback***&#45;&gt;1 on 0? -->
<g id="edge18" class="edge">
<title>Fallback***&#45;&gt;1 on 0?</title>
<path fill="none" stroke="black" d="M475.55,-287.7C475.55,-279.98 475.55,-270.71 475.55,-262.11"/>
<polygon fill="black" stroke="black" points="479.05,-262.1 475.55,-252.1 472.05,-262.1 479.05,-262.1"/>
</g>
<!-- Sequence**** -->
<g id="node20" class="node">
<title>Sequence****</title>
<polygon fill="cyan" stroke="black" points="638.04,-226.54 638.04,-241.46 613.15,-252 577.95,-252 553.06,-241.46 553.06,-226.54 577.95,-216 613.15,-216 638.04,-226.54"/>
<text text-anchor="middle" x="595.55" y="-231.8" font-family="Times,serif" font-size="9.00">Sequence****</text>
</g>
<!-- Fallback***&#45;&gt;Sequence**** -->
<g id="edge19" class="edge">
<title>Fallback***&#45;&gt;Sequence****</title>
<path fill="none" stroke="black" d="M498.69,-291.5C516.76,-280.96 542.12,-266.17 562.35,-254.36"/>
<polygon fill="black" stroke="black" points="564.37,-257.24 571.25,-249.18 560.85,-251.19 564.37,-257.24"/>
</g>
<!-- pick 1! -->
<g id="node21" class="node">
<title>pick 1!</title>
<ellipse fill="gray" stroke="black" cx="595.55" cy="-162" rx="27" ry="18"/>
<text text-anchor="middle" x="595.55" y="-159.8" font-family="Times,serif" font-size="9.00">pick 1!</text>
</g>
<!-- Sequence****&#45;&gt;pick 1! -->
<g id="edge20" class="edge">
<title>Sequence****&#45;&gt;pick 1!</title>
<path fill="none" stroke="black" d="M595.55,-215.7C595.55,-207.98 595.55,-198.71 595.55,-190.11"/>
<polygon fill="black" stroke="black" points="599.05,-190.1 595.55,-180.1 592.05,-190.1 599.05,-190.1"/>
</g>
<!-- place on 0! -->
<g id="node22" class="node">
<title>place on 0!</title>
<ellipse fill="gray" stroke="black" cx="672.55" cy="-162" rx="32.16" ry="18"/>
<text text-anchor="middle" x="672.55" y="-159.8" font-family="Times,serif" font-size="9.00">place on 0!</text>
</g>
<!-- Sequence****&#45;&gt;place on 0! -->
<g id="edge21" class="edge">
<title>Sequence****&#45;&gt;place on 0!</title>
<path fill="none" stroke="black" d="M614.19,-216.05C624.58,-206.61 637.62,-194.76 648.74,-184.65"/>
<polygon fill="black" stroke="black" points="651.38,-186.97 656.43,-177.66 646.67,-181.79 651.38,-186.97"/>
</g>
</g>
</svg>
