<?xml version="1.0" encoding="UTF-8" standalone="no"?>
<!DOCTYPE svg PUBLIC "-//W3C//DTD SVG 1.1//EN"
 "http://www.w3.org/Graphics/SVG/1.1/DTD/svg11.dtd">
<!-- Generated by graphviz version 2.43.0 (0)
 -->
<!-- Title: pastafarianism Pages: 1 -->
<svg width="877pt" height="404pt"
 viewBox="0.00 0.00 876.59 404.00" xmlns="http://www.w3.org/2000/svg" xmlns:xlink="http://www.w3.org/1999/xlink">
<g id="graph0" class="graph" transform="scale(1 1) rotate(0) translate(4 400)">
<title>pastafarianism</title>
<polygon fill="white" stroke="transparent" points="-4,4 -4,-400 872.59,-400 872.59,4 -4,4"/>
<!-- Sequence -->
<g id="node1" class="node">
<title>Sequence</title>
<polygon fill="cyan" stroke="black" points="675.04,-370.54 675.04,-385.46 656.6,-396 630.5,-396 612.06,-385.46 612.06,-370.54 630.5,-360 656.6,-360 675.04,-370.54"/>
<text text-anchor="middle" x="643.55" y="-375.8" font-family="Times,serif" font-size="9.00">Sequence</text>
</g>
<!-- Fallback -->
<g id="node2" class="node">
<title>Fallback</title>
<polygon fill="cyan" stroke="black" points="472.79,-298.54 472.79,-313.46 455.66,-324 431.44,-324 414.31,-313.46 414.31,-298.54 431.44,-288 455.66,-288 472.79,-298.54"/>
<text text-anchor="middle" x="443.55" y="-303.8" font-family="Times,serif" font-size="9.00">Fallback</text>
</g>
<!-- Sequence&#45;&gt;Fallback -->
<g id="edge1" class="edge">
<title>Sequence&#45;&gt;Fallback</title>
<path fill="none" stroke="black" d="M616.99,-367.7C581.34,-355.22 517.92,-333.03 478.44,-319.21"/>
<polygon fill="black" stroke="black" points="479.55,-315.89 468.95,-315.89 477.24,-322.5 479.55,-315.89"/>
</g>
<!-- Fallback**** -->
<g id="node21" class="node">
<title>Fallback****</title>
<polygon fill="cyan" stroke="black" points="684.29,-298.54 684.29,-313.46 660.42,-324 626.67,-324 602.81,-313.46 602.81,-298.54 626.67,-288 660.42,-288 684.29,-298.54"/>
<text text-anchor="middle" x="643.55" y="-303.8" font-family="Times,serif" font-size="9.00">Fallback****</text>
</g>
<!-- Sequence&#45;&gt;Fallback**** -->
<g id="edge20" class="edge">
<title>Sequence&#45;&gt;Fallback****</title>
<path fill="none" stroke="black" d="M643.55,-359.7C643.55,-351.98 643.55,-342.71 643.55,-334.11"/>
<polygon fill="black" stroke="black" points="647.05,-334.1 643.55,-324.1 640.05,-334.1 647.05,-334.1"/>
</g>
<!-- apply force 1! -->
<g id="node27" class="node">
<title>apply force 1!</title>
<ellipse fill="gray" stroke="black" cx="740.55" cy="-306" rx="38.21" ry="18"/>
<text text-anchor="middle" x="740.55" y="-303.8" font-family="Times,serif" font-size="9.00">apply force 1!</text>
</g>
<!-- Sequence&#45;&gt;apply force 1! -->
<g id="edge26" class="edge">
<title>Sequence&#45;&gt;apply force 1!</title>
<path fill="none" stroke="black" d="M662.71,-363.17C676.78,-353.02 696.13,-339.06 712.01,-327.6"/>
<polygon fill="black" stroke="black" points="714.36,-330.21 720.42,-321.52 710.27,-324.54 714.36,-330.21"/>
</g>
<!-- 0 at pos (0.0, 0.0, 0.0)? -->
<g id="node3" class="node">
<title>0 at pos (0.0, 0.0, 0.0)?</title>
<ellipse fill="gray" stroke="black" cx="333.55" cy="-234" rx="57.32" ry="18"/>
<text text-anchor="middle" x="333.55" y="-231.8" font-family="Times,serif" font-size="9.00">0 at pos (0.0, 0.0, 0.0)?</text>
</g>
<!-- Fallback&#45;&gt;0 at pos (0.0, 0.0, 0.0)? -->
<g id="edge2" class="edge">
<title>Fallback&#45;&gt;0 at pos (0.0, 0.0, 0.0)?</title>
<path fill="none" stroke="black" d="M423.88,-292.49C407.88,-282.3 384.95,-267.71 366.2,-255.78"/>
<polygon fill="black" stroke="black" points="367.97,-252.75 357.65,-250.34 364.21,-258.66 367.97,-252.75"/>
</g>
<!-- Sequence* -->
<g id="node4" class="node">
<title>Sequence*</title>
<polygon fill="cyan" stroke="black" points="477.79,-226.54 477.79,-241.46 457.73,-252 429.37,-252 409.31,-241.46 409.31,-226.54 429.37,-216 457.73,-216 477.79,-226.54"/>
<text text-anchor="middle" x="443.55" y="-231.8" font-family="Times,serif" font-size="9.00">Sequence*</text>
</g>
<!-- Fallback&#45;&gt;Sequence* -->
<g id="edge3" class="edge">
<title>Fallback&#45;&gt;Sequence*</title>
<path fill="none" stroke="black" d="M443.55,-287.7C443.55,-279.98 443.55,-270.71 443.55,-262.11"/>
<polygon fill="black" stroke="black" points="447.05,-262.1 443.55,-252.1 440.05,-262.1 447.05,-262.1"/>
</g>
<!-- Fallback* -->
<g id="node5" class="node">
<title>Fallback*</title>
<polygon fill="cyan" stroke="black" points="221.29,-154.54 221.29,-169.46 202.7,-180 176.4,-180 157.81,-169.46 157.81,-154.54 176.4,-144 202.7,-144 221.29,-154.54"/>
<text text-anchor="middle" x="189.55" y="-159.8" font-family="Times,serif" font-size="9.00">Fallback*</text>
</g>
<!-- Sequence*&#45;&gt;Fallback* -->
<g id="edge4" class="edge">
<title>Sequence*&#45;&gt;Fallback*</title>
<path fill="none" stroke="black" d="M417.21,-222.23C411.44,-220.03 405.32,-217.84 399.55,-216 341.95,-197.68 273.89,-181.47 231.21,-171.94"/>
<polygon fill="black" stroke="black" points="231.71,-168.47 221.19,-169.73 230.2,-175.3 231.71,-168.47"/>
</g>
<!-- Fallback** -->
<g id="node10" class="node">
<title>Fallback**</title>
<polygon fill="cyan" stroke="black" points="348.54,-154.54 348.54,-169.46 328.04,-180 299.06,-180 278.56,-169.46 278.56,-154.54 299.06,-144 328.04,-144 348.54,-154.54"/>
<text text-anchor="middle" x="313.55" y="-159.8" font-family="Times,serif" font-size="9.00">Fallback**</text>
</g>
<!-- Sequence*&#45;&gt;Fallback** -->
<g id="edge9" class="edge">
<title>Sequence*&#45;&gt;Fallback**</title>
<path fill="none" stroke="black" d="M420.31,-220.49C399.64,-209.36 369.2,-192.97 346.11,-180.53"/>
<polygon fill="black" stroke="black" points="347.49,-177.3 337.03,-175.64 344.17,-183.46 347.49,-177.3"/>
</g>
<!-- pick 0! -->
<g id="node15" class="node">
<title>pick 0!</title>
<ellipse fill="gray" stroke="black" cx="393.55" cy="-162" rx="27" ry="18"/>
<text text-anchor="middle" x="393.55" y="-159.8" font-family="Times,serif" font-size="9.00">pick 0!</text>
</g>
<!-- Sequence*&#45;&gt;pick 0! -->
<g id="edge14" class="edge">
<title>Sequence*&#45;&gt;pick 0!</title>
<path fill="none" stroke="black" d="M431.19,-215.7C424.99,-207.02 417.38,-196.37 410.64,-186.92"/>
<polygon fill="black" stroke="black" points="413.4,-184.77 404.74,-178.67 407.71,-188.84 413.4,-184.77"/>
</g>
<!-- place at (0.0, 0.0, 0.0)! -->
<g id="node16" class="node">
<title>place at (0.0, 0.0, 0.0)!</title>
<ellipse fill="gray" stroke="black" cx="494.55" cy="-162" rx="56.01" ry="18"/>
<text text-anchor="middle" x="494.55" y="-159.8" font-family="Times,serif" font-size="9.00">place at (0.0, 0.0, 0.0)!</text>
</g>
<!-- Sequence*&#45;&gt;place at (0.0, 0.0, 0.0)! -->
<g id="edge15" class="edge">
<title>Sequence*&#45;&gt;place at (0.0, 0.0, 0.0)!</title>
<path fill="none" stroke="black" d="M456.16,-215.7C462.3,-207.27 469.8,-196.97 476.53,-187.73"/>
<polygon fill="black" stroke="black" points="479.38,-189.77 482.44,-179.62 473.72,-185.64 479.38,-189.77"/>
</g>
<!-- Fallback*** -->
<g id="node17" class="node">
<title>Fallback***</title>
<polygon fill="cyan" stroke="black" points="643.04,-154.54 643.04,-169.46 621.08,-180 590.02,-180 568.06,-169.46 568.06,-154.54 590.02,-144 621.08,-144 643.04,-154.54"/>
<text text-anchor="middle" x="605.55" y="-159.8" font-family="Times,serif" font-size="9.00">Fallback***</text>
</g>
<!-- Sequence*&#45;&gt;Fallback*** -->
<g id="edge16" class="edge">
<title>Sequence*&#45;&gt;Fallback***</title>
<path fill="none" stroke="black" d="M469.22,-221.91C496.19,-210.25 538.83,-191.83 569.24,-178.69"/>
<polygon fill="black" stroke="black" points="570.86,-181.8 578.65,-174.62 568.08,-175.38 570.86,-181.8"/>
</g>
<!-- 3 at pos (0.016, 0.032, 0.0)? -->
<g id="node6" class="node">
<title>3 at pos (0.016, 0.032, 0.0)?</title>
<ellipse fill="gray" stroke="black" cx="67.55" cy="-90" rx="67.6" ry="18"/>
<text text-anchor="middle" x="67.55" y="-87.8" font-family="Times,serif" font-size="9.00">3 at pos (0.016, 0.032, 0.0)?</text>
</g>
<!-- Fallback*&#45;&gt;3 at pos (0.016, 0.032, 0.0)? -->
<g id="edge5" class="edge">
<title>Fallback*&#45;&gt;3 at pos (0.016, 0.032, 0.0)?</title>
<path fill="none" stroke="black" d="M168.02,-148.65C150.26,-138.46 124.69,-123.78 103.78,-111.79"/>
<polygon fill="black" stroke="black" points="105.27,-108.6 94.85,-106.66 101.78,-114.68 105.27,-108.6"/>
</g>
<!-- Sequence** -->
<g id="node7" class="node">
<title>Sequence**</title>
<polygon fill="cyan" stroke="black" points="226.29,-82.54 226.29,-97.46 204.77,-108 174.33,-108 152.81,-97.46 152.81,-82.54 174.33,-72 204.77,-72 226.29,-82.54"/>
<text text-anchor="middle" x="189.55" y="-87.8" font-family="Times,serif" font-size="9.00">Sequence**</text>
</g>
<!-- Fallback*&#45;&gt;Sequence** -->
<g id="edge6" class="edge">
<title>Fallback*&#45;&gt;Sequence**</title>
<path fill="none" stroke="black" d="M189.55,-143.7C189.55,-135.98 189.55,-126.71 189.55,-118.11"/>
<polygon fill="black" stroke="black" points="193.05,-118.1 189.55,-108.1 186.05,-118.1 193.05,-118.1"/>
</g>
<!-- pick 3! -->
<g id="node8" class="node">
<title>pick 3!</title>
<ellipse fill="gray" stroke="black" cx="91.55" cy="-18" rx="27" ry="18"/>
<text text-anchor="middle" x="91.55" y="-15.8" font-family="Times,serif" font-size="9.00">pick 3!</text>
</g>
<!-- Sequence**&#45;&gt;pick 3! -->
<g id="edge7" class="edge">
<title>Sequence**&#45;&gt;pick 3!</title>
<path fill="none" stroke="black" d="M168.77,-74.15C153.88,-63.52 133.73,-49.13 117.74,-37.71"/>
<polygon fill="black" stroke="black" points="119.52,-34.68 109.35,-31.71 115.45,-40.37 119.52,-34.68"/>
</g>
<!-- place at (0.016, 0.032, 0.0)! -->
<g id="node9" class="node">
<title>place at (0.016, 0.032, 0.0)!</title>
<ellipse fill="gray" stroke="black" cx="202.55" cy="-18" rx="66.29" ry="18"/>
<text text-anchor="middle" x="202.55" y="-15.8" font-family="Times,serif" font-size="9.00">place at (0.016, 0.032, 0.0)!</text>
</g>
<!-- Sequence**&#45;&gt;place at (0.016, 0.032, 0.0)! -->
<g id="edge8" class="edge">
<title>Sequence**&#45;&gt;place at (0.016, 0.032, 0.0)!</title>
<path fill="none" stroke="black" d="M192.76,-71.7C194.2,-63.98 195.92,-54.71 197.51,-46.11"/>
<polygon fill="black" stroke="black" points="200.99,-46.58 199.37,-36.1 194.11,-45.3 200.99,-46.58"/>
</g>
<!-- 2 at pos (0.016, &#45;0.032, 0.0)? -->
<g id="node11" class="node">
<title>2 at pos (0.016, &#45;0.032, 0.0)?</title>
<ellipse fill="gray" stroke="black" cx="313.55" cy="-90" rx="69.06" ry="18"/>
<text text-anchor="middle" x="313.55" y="-87.8" font-family="Times,serif" font-size="9.00">2 at pos (0.016, &#45;0.032, 0.0)?</text>
</g>
<!-- Fallback**&#45;&gt;2 at pos (0.016, &#45;0.032, 0.0)? -->
<g id="edge10" class="edge">
<title>Fallback**&#45;&gt;2 at pos (0.016, &#45;0.032, 0.0)?</title>
<path fill="none" stroke="black" d="M313.55,-143.7C313.55,-135.98 313.55,-126.71 313.55,-118.11"/>
<polygon fill="black" stroke="black" points="317.05,-118.1 313.55,-108.1 310.05,-118.1 317.05,-118.1"/>
</g>
<!-- Sequence*** -->
<g id="node12" class="node">
<title>Sequence***</title>
<polygon fill="cyan" stroke="black" points="480.54,-82.54 480.54,-97.46 457.11,-108 423.99,-108 400.56,-97.46 400.56,-82.54 423.99,-72 457.11,-72 480.54,-82.54"/>
<text text-anchor="middle" x="440.55" y="-87.8" font-family="Times,serif" font-size="9.00">Sequence***</text>
</g>
<!-- Fallback**&#45;&gt;Sequence*** -->
<g id="edge11" class="edge">
<title>Fallback**&#45;&gt;Sequence***</title>
<path fill="none" stroke="black" d="M336.55,-148.32C356.28,-137.45 384.95,-121.64 407.2,-109.38"/>
<polygon fill="black" stroke="black" points="408.92,-112.43 415.99,-104.54 405.54,-106.3 408.92,-112.43"/>
</g>
<!-- pick 2! -->
<g id="node13" class="node">
<title>pick 2!</title>
<ellipse fill="gray" stroke="black" cx="383.55" cy="-18" rx="27" ry="18"/>
<text text-anchor="middle" x="383.55" y="-15.8" font-family="Times,serif" font-size="9.00">pick 2!</text>
</g>
<!-- Sequence***&#45;&gt;pick 2! -->
<g id="edge12" class="edge">
<title>Sequence***&#45;&gt;pick 2!</title>
<path fill="none" stroke="black" d="M426.46,-71.7C419.22,-62.8 410.29,-51.84 402.46,-42.22"/>
<polygon fill="black" stroke="black" points="404.96,-39.75 395.93,-34.2 399.53,-44.17 404.96,-39.75"/>
</g>
<!-- place at (0.016, &#45;0.032, 0.0)! -->
<g id="node14" class="node">
<title>place at (0.016, &#45;0.032, 0.0)!</title>
<ellipse fill="gray" stroke="black" cx="496.55" cy="-18" rx="68.25" ry="18"/>
<text text-anchor="middle" x="496.55" y="-15.8" font-family="Times,serif" font-size="9.00">place at (0.016, &#45;0.032, 0.0)!</text>
</g>
<!-- Sequence***&#45;&gt;place at (0.016, &#45;0.032, 0.0)! -->
<g id="edge13" class="edge">
<title>Sequence***&#45;&gt;place at (0.016, &#45;0.032, 0.0)!</title>
<path fill="none" stroke="black" d="M454.39,-71.7C461.04,-63.39 469.13,-53.28 476.44,-44.14"/>
<polygon fill="black" stroke="black" points="479.35,-46.1 482.87,-36.1 473.89,-41.73 479.35,-46.1"/>
</g>
<!-- 3 on 2? -->
<g id="node18" class="node">
<title>3 on 2?</title>
<ellipse fill="gray" stroke="black" cx="533.55" cy="-90" rx="27" ry="18"/>
<text text-anchor="middle" x="533.55" y="-87.8" font-family="Times,serif" font-size="9.00">3 on 2?</text>
</g>
<!-- Fallback***&#45;&gt;3 on 2? -->
<g id="edge17" class="edge">
<title>Fallback***&#45;&gt;3 on 2?</title>
<path fill="none" stroke="black" d="M588.49,-144.41C578.72,-134.91 566.34,-122.88 555.81,-112.65"/>
<polygon fill="black" stroke="black" points="558.15,-110.03 548.54,-105.57 553.27,-115.05 558.15,-110.03"/>
</g>
<!-- pick 3!* -->
<g id="node19" class="node">
<title>pick 3!*</title>
<ellipse fill="gray" stroke="black" cx="605.55" cy="-90" rx="27" ry="18"/>
<text text-anchor="middle" x="605.55" y="-87.8" font-family="Times,serif" font-size="9.00">pick 3!*</text>
</g>
<!-- Fallback***&#45;&gt;pick 3!* -->
<g id="edge18" class="edge">
<title>Fallback***&#45;&gt;pick 3!*</title>
<path fill="none" stroke="black" d="M605.55,-143.7C605.55,-135.98 605.55,-126.71 605.55,-118.11"/>
<polygon fill="black" stroke="black" points="609.05,-118.1 605.55,-108.1 602.05,-118.1 609.05,-118.1"/>
</g>
<!-- pick 2!* -->
<g id="node20" class="node">
<title>pick 2!*</title>
<ellipse fill="gray" stroke="black" cx="677.55" cy="-90" rx="27" ry="18"/>
<text text-anchor="middle" x="677.55" y="-87.8" font-family="Times,serif" font-size="9.00">pick 2!*</text>
</g>
<!-- Fallback***&#45;&gt;pick 2!* -->
<g id="edge19" class="edge">
<title>Fallback***&#45;&gt;pick 2!*</title>
<path fill="none" stroke="black" d="M622.61,-144.41C632.38,-134.91 644.76,-122.88 655.29,-112.65"/>
<polygon fill="black" stroke="black" points="657.83,-115.05 662.56,-105.57 652.95,-110.03 657.83,-115.05"/>
</g>
<!-- 1 on 0? -->
<g id="node22" class="node">
<title>1 on 0?</title>
<ellipse fill="gray" stroke="black" cx="600.55" cy="-234" rx="27" ry="18"/>
<text text-anchor="middle" x="600.55" y="-231.8" font-family="Times,serif" font-size="9.00">1 on 0?</text>
</g>
<!-- Fallback****&#45;&gt;1 on 0? -->
<g id="edge21" class="edge">
<title>Fallback****&#45;&gt;1 on 0?</title>
<path fill="none" stroke="black" d="M632.92,-287.7C627.77,-279.32 621.5,-269.1 615.84,-259.9"/>
<polygon fill="black" stroke="black" points="618.68,-257.83 610.47,-251.14 612.72,-261.5 618.68,-257.83"/>
</g>
<!-- Sequence**** -->
<g id="node23" class="node">
<title>Sequence****</title>
<polygon fill="cyan" stroke="black" points="730.04,-226.54 730.04,-241.46 705.15,-252 669.95,-252 645.06,-241.46 645.06,-226.54 669.95,-216 705.15,-216 730.04,-226.54"/>
<text text-anchor="middle" x="687.55" y="-231.8" font-family="Times,serif" font-size="9.00">Sequence****</text>
</g>
<!-- Fallback****&#45;&gt;Sequence**** -->
<g id="edge22" class="edge">
<title>Fallback****&#45;&gt;Sequence****</title>
<path fill="none" stroke="black" d="M654.43,-287.7C659.54,-279.56 665.75,-269.69 671.39,-260.7"/>
<polygon fill="black" stroke="black" points="674.44,-262.43 676.8,-252.1 668.51,-258.71 674.44,-262.43"/>
</g>
<!-- 0 at pos (0.0, 0.0, 0.0)?* -->
<g id="node26" class="node">
<title>0 at pos (0.0, 0.0, 0.0)?*</title>
<ellipse fill="gray" stroke="black" cx="808.55" cy="-234" rx="60.09" ry="18"/>
<text text-anchor="middle" x="808.55" y="-231.8" font-family="Times,serif" font-size="9.00">0 at pos (0.0, 0.0, 0.0)?*</text>
</g>
<!-- Fallback****&#45;&gt;0 at pos (0.0, 0.0, 0.0)?* -->
<g id="edge25" class="edge">
<title>Fallback****&#45;&gt;0 at pos (0.0, 0.0, 0.0)?*</title>
<path fill="none" stroke="black" d="M671.91,-292.97C697.85,-281.96 736.58,-265.53 766.19,-252.97"/>
<polygon fill="black" stroke="black" points="767.61,-256.17 775.45,-249.04 764.88,-249.73 767.61,-256.17"/>
</g>
<!-- pick 1! -->
<g id="node24" class="node">
<title>pick 1!</title>
<ellipse fill="gray" stroke="black" cx="687.55" cy="-162" rx="27" ry="18"/>
<text text-anchor="middle" x="687.55" y="-159.8" font-family="Times,serif" font-size="9.00">pick 1!</text>
</g>
<!-- Sequence****&#45;&gt;pick 1! -->
<g id="edge23" class="edge">
<title>Sequence****&#45;&gt;pick 1!</title>
<path fill="none" stroke="black" d="M687.55,-215.7C687.55,-207.98 687.55,-198.71 687.55,-190.11"/>
<polygon fill="black" stroke="black" points="691.05,-190.1 687.55,-180.1 684.05,-190.1 691.05,-190.1"/>
</g>
<!-- place on 0! -->
<g id="node25" class="node">
<title>place on 0!</title>
<ellipse fill="gray" stroke="black" cx="764.55" cy="-162" rx="32.16" ry="18"/>
<text text-anchor="middle" x="764.55" y="-159.8" font-family="Times,serif" font-size="9.00">place on 0!</text>
</g>
<!-- Sequence****&#45;&gt;place on 0! -->
<g id="edge24" class="edge">
<title>Sequence****&#45;&gt;place on 0!</title>
<path fill="none" stroke="black" d="M706.19,-216.05C716.58,-206.61 729.62,-194.76 740.74,-184.65"/>
<polygon fill="black" stroke="black" points="743.38,-186.97 748.43,-177.66 738.67,-181.79 743.38,-186.97"/>
</g>
</g>
</svg>
