<?xml version="1.0" encoding="UTF-8" standalone="no"?>
<!DOCTYPE svg PUBLIC "-//W3C//DTD SVG 1.1//EN"
 "http://www.w3.org/Graphics/SVG/1.1/DTD/svg11.dtd">
<!-- Generated by graphviz version 2.43.0 (0)
 -->
<!-- Title: pastafarianism Pages: 1 -->
<svg width="688pt" height="404pt"
 viewBox="0.00 0.00 687.59 404.00" xmlns="http://www.w3.org/2000/svg" xmlns:xlink="http://www.w3.org/1999/xlink">
<g id="graph0" class="graph" transform="scale(1 1) rotate(0) translate(4 400)">
<title>pastafarianism</title>
<polygon fill="white" stroke="transparent" points="-4,4 -4,-400 683.59,-400 683.59,4 -4,4"/>
<!-- Sequence -->
<g id="node1" class="node">
<title>Sequence</title>
<polygon fill="cyan" stroke="black" points="505.04,-370.54 505.04,-385.46 486.6,-396 460.5,-396 442.06,-385.46 442.06,-370.54 460.5,-360 486.6,-360 505.04,-370.54"/>
<text text-anchor="middle" x="473.55" y="-375.8" font-family="Times,serif" font-size="9.00">Sequence</text>
</g>
<!-- Fallback -->
<g id="node2" class="node">
<title>Fallback</title>
<polygon fill="cyan" stroke="black" points="382.79,-298.54 382.79,-313.46 365.66,-324 341.44,-324 324.31,-313.46 324.31,-298.54 341.44,-288 365.66,-288 382.79,-298.54"/>
<text text-anchor="middle" x="353.55" y="-303.8" font-family="Times,serif" font-size="9.00">Fallback</text>
</g>
<!-- Sequence&#45;&gt;Fallback -->
<g id="edge1" class="edge">
<title>Sequence&#45;&gt;Fallback</title>
<path fill="none" stroke="black" d="M452.37,-364.65C433.06,-353.38 404.35,-336.63 382.84,-324.09"/>
<polygon fill="black" stroke="black" points="384.52,-321.01 374.11,-319 380.99,-327.06 384.52,-321.01"/>
</g>
<!-- Fallback*** -->
<g id="node17" class="node">
<title>Fallback***</title>
<polygon fill="cyan" stroke="black" points="511.04,-298.54 511.04,-313.46 489.08,-324 458.02,-324 436.06,-313.46 436.06,-298.54 458.02,-288 489.08,-288 511.04,-298.54"/>
<text text-anchor="middle" x="473.55" y="-303.8" font-family="Times,serif" font-size="9.00">Fallback***</text>
</g>
<!-- Sequence&#45;&gt;Fallback*** -->
<g id="edge16" class="edge">
<title>Sequence&#45;&gt;Fallback***</title>
<path fill="none" stroke="black" d="M473.55,-359.7C473.55,-351.98 473.55,-342.71 473.55,-334.11"/>
<polygon fill="black" stroke="black" points="477.05,-334.1 473.55,-324.1 470.05,-334.1 477.05,-334.1"/>
</g>
<!-- apply force 1! -->
<g id="node21" class="node">
<title>apply force 1!</title>
<ellipse fill="gray" stroke="black" cx="567.55" cy="-306" rx="38.21" ry="18"/>
<text text-anchor="middle" x="567.55" y="-303.8" font-family="Times,serif" font-size="9.00">apply force 1!</text>
</g>
<!-- Sequence&#45;&gt;apply force 1! -->
<g id="edge20" class="edge">
<title>Sequence&#45;&gt;apply force 1!</title>
<path fill="none" stroke="black" d="M492.57,-362.83C506.15,-352.72 524.63,-338.96 539.84,-327.63"/>
<polygon fill="black" stroke="black" points="541.98,-330.41 547.91,-321.63 537.8,-324.79 541.98,-330.41"/>
</g>
<!-- 0 at pos (0.0, 0.0, 0.0)? -->
<g id="node3" class="node">
<title>0 at pos (0.0, 0.0, 0.0)?</title>
<ellipse fill="gray" stroke="black" cx="243.55" cy="-234" rx="57.32" ry="18"/>
<text text-anchor="middle" x="243.55" y="-231.8" font-family="Times,serif" font-size="9.00">0 at pos (0.0, 0.0, 0.0)?</text>
</g>
<!-- Fallback&#45;&gt;0 at pos (0.0, 0.0, 0.0)? -->
<g id="edge2" class="edge">
<title>Fallback&#45;&gt;0 at pos (0.0, 0.0, 0.0)?</title>
<path fill="none" stroke="black" d="M333.88,-292.49C317.88,-282.3 294.95,-267.71 276.2,-255.78"/>
<polygon fill="black" stroke="black" points="277.97,-252.75 267.65,-250.34 274.21,-258.66 277.97,-252.75"/>
</g>
<!-- Sequence* -->
<g id="node4" class="node">
<title>Sequence*</title>
<polygon fill="cyan" stroke="black" points="387.79,-226.54 387.79,-241.46 367.73,-252 339.37,-252 319.31,-241.46 319.31,-226.54 339.37,-216 367.73,-216 387.79,-226.54"/>
<text text-anchor="middle" x="353.55" y="-231.8" font-family="Times,serif" font-size="9.00">Sequence*</text>
</g>
<!-- Fallback&#45;&gt;Sequence* -->
<g id="edge3" class="edge">
<title>Fallback&#45;&gt;Sequence*</title>
<path fill="none" stroke="black" d="M353.55,-287.7C353.55,-279.98 353.55,-270.71 353.55,-262.11"/>
<polygon fill="black" stroke="black" points="357.05,-262.1 353.55,-252.1 350.05,-262.1 357.05,-262.1"/>
</g>
<!-- Fallback* -->
<g id="node5" class="node">
<title>Fallback*</title>
<polygon fill="cyan" stroke="black" points="221.29,-154.54 221.29,-169.46 202.7,-180 176.4,-180 157.81,-169.46 157.81,-154.54 176.4,-144 202.7,-144 221.29,-154.54"/>
<text text-anchor="middle" x="189.55" y="-159.8" font-family="Times,serif" font-size="9.00">Fallback*</text>
</g>
<!-- Sequence*&#45;&gt;Fallback* -->
<g id="edge4" class="edge">
<title>Sequence*&#45;&gt;Fallback*</title>
<path fill="none" stroke="black" d="M327.56,-221.91C299.53,-209.94 254.76,-190.83 223.85,-177.64"/>
<polygon fill="black" stroke="black" points="224.91,-174.29 214.34,-173.58 222.16,-180.73 224.91,-174.29"/>
</g>
<!-- Fallback** -->
<g id="node10" class="node">
<title>Fallback**</title>
<polygon fill="cyan" stroke="black" points="348.54,-154.54 348.54,-169.46 328.04,-180 299.06,-180 278.56,-169.46 278.56,-154.54 299.06,-144 328.04,-144 348.54,-154.54"/>
<text text-anchor="middle" x="313.55" y="-159.8" font-family="Times,serif" font-size="9.00">Fallback**</text>
</g>
<!-- Sequence*&#45;&gt;Fallback** -->
<g id="edge9" class="edge">
<title>Sequence*&#45;&gt;Fallback**</title>
<path fill="none" stroke="black" d="M343.66,-215.7C339.06,-207.64 333.49,-197.89 328.4,-188.98"/>
<polygon fill="black" stroke="black" points="331.32,-187.05 323.32,-180.1 325.25,-190.52 331.32,-187.05"/>
</g>
<!-- pick 0! -->
<g id="node15" class="node">
<title>pick 0!</title>
<ellipse fill="gray" stroke="black" cx="393.55" cy="-162" rx="27" ry="18"/>
<text text-anchor="middle" x="393.55" y="-159.8" font-family="Times,serif" font-size="9.00">pick 0!</text>
</g>
<!-- Sequence*&#45;&gt;pick 0! -->
<g id="edge14" class="edge">
<title>Sequence*&#45;&gt;pick 0!</title>
<path fill="none" stroke="black" d="M363.44,-215.7C368.23,-207.32 374.07,-197.1 379.32,-187.9"/>
<polygon fill="black" stroke="black" points="382.4,-189.56 384.32,-179.14 376.32,-186.09 382.4,-189.56"/>
</g>
<!-- place at (0.0, 0.0, 0.0)! -->
<g id="node16" class="node">
<title>place at (0.0, 0.0, 0.0)!</title>
<ellipse fill="gray" stroke="black" cx="494.55" cy="-162" rx="56.01" ry="18"/>
<text text-anchor="middle" x="494.55" y="-159.8" font-family="Times,serif" font-size="9.00">place at (0.0, 0.0, 0.0)!</text>
</g>
<!-- Sequence*&#45;&gt;place at (0.0, 0.0, 0.0)! -->
<g id="edge15" class="edge">
<title>Sequence*&#45;&gt;place at (0.0, 0.0, 0.0)!</title>
<path fill="none" stroke="black" d="M377.79,-220.97C399.36,-210.26 431.28,-194.41 456.3,-181.99"/>
<polygon fill="black" stroke="black" points="458.11,-185 465.51,-177.41 455,-178.73 458.11,-185"/>
</g>
<!-- 3 at pos (0.016, 0.032, 0.0)? -->
<g id="node6" class="node">
<title>3 at pos (0.016, 0.032, 0.0)?</title>
<ellipse fill="gray" stroke="black" cx="67.55" cy="-90" rx="67.6" ry="18"/>
<text text-anchor="middle" x="67.55" y="-87.8" font-family="Times,serif" font-size="9.00">3 at pos (0.016, 0.032, 0.0)?</text>
</g>
<!-- Fallback*&#45;&gt;3 at pos (0.016, 0.032, 0.0)? -->
<g id="edge5" class="edge">
<title>Fallback*&#45;&gt;3 at pos (0.016, 0.032, 0.0)?</title>
<path fill="none" stroke="black" d="M168.02,-148.65C150.26,-138.46 124.69,-123.78 103.78,-111.79"/>
<polygon fill="black" stroke="black" points="105.27,-108.6 94.85,-106.66 101.78,-114.68 105.27,-108.6"/>
</g>
<!-- Sequence** -->
<g id="node7" class="node">
<title>Sequence**</title>
<polygon fill="cyan" stroke="black" points="226.29,-82.54 226.29,-97.46 204.77,-108 174.33,-108 152.81,-97.46 152.81,-82.54 174.33,-72 204.77,-72 226.29,-82.54"/>
<text text-anchor="middle" x="189.55" y="-87.8" font-family="Times,serif" font-size="9.00">Sequence**</text>
</g>
<!-- Fallback*&#45;&gt;Sequence** -->
<g id="edge6" class="edge">
<title>Fallback*&#45;&gt;Sequence**</title>
<path fill="none" stroke="black" d="M189.55,-143.7C189.55,-135.98 189.55,-126.71 189.55,-118.11"/>
<polygon fill="black" stroke="black" points="193.05,-118.1 189.55,-108.1 186.05,-118.1 193.05,-118.1"/>
</g>
<!-- pick 3! -->
<g id="node8" class="node">
<title>pick 3!</title>
<ellipse fill="gray" stroke="black" cx="91.55" cy="-18" rx="27" ry="18"/>
<text text-anchor="middle" x="91.55" y="-15.8" font-family="Times,serif" font-size="9.00">pick 3!</text>
</g>
<!-- Sequence**&#45;&gt;pick 3! -->
<g id="edge7" class="edge">
<title>Sequence**&#45;&gt;pick 3!</title>
<path fill="none" stroke="black" d="M168.77,-74.15C153.88,-63.52 133.73,-49.13 117.74,-37.71"/>
<polygon fill="black" stroke="black" points="119.52,-34.68 109.35,-31.71 115.45,-40.37 119.52,-34.68"/>
</g>
<!-- place at (0.016, 0.032, 0.0)! -->
<g id="node9" class="node">
<title>place at (0.016, 0.032, 0.0)!</title>
<ellipse fill="gray" stroke="black" cx="202.55" cy="-18" rx="66.29" ry="18"/>
<text text-anchor="middle" x="202.55" y="-15.8" font-family="Times,serif" font-size="9.00">place at (0.016, 0.032, 0.0)!</text>
</g>
<!-- Sequence**&#45;&gt;place at (0.016, 0.032, 0.0)! -->
<g id="edge8" class="edge">
<title>Sequence**&#45;&gt;place at (0.016, 0.032, 0.0)!</title>
<path fill="none" stroke="black" d="M192.76,-71.7C194.2,-63.98 195.92,-54.71 197.51,-46.11"/>
<polygon fill="black" stroke="black" points="200.99,-46.58 199.37,-36.1 194.11,-45.3 200.99,-46.58"/>
</g>
<!-- 2 at pos (0.016, &#45;0.032, 0.0)? -->
<g id="node11" class="node">
<title>2 at pos (0.016, &#45;0.032, 0.0)?</title>
<ellipse fill="gray" stroke="black" cx="313.55" cy="-90" rx="69.06" ry="18"/>
<text text-anchor="middle" x="313.55" y="-87.8" font-family="Times,serif" font-size="9.00">2 at pos (0.016, &#45;0.032, 0.0)?</text>
</g>
<!-- Fallback**&#45;&gt;2 at pos (0.016, &#45;0.032, 0.0)? -->
<g id="edge10" class="edge">
<title>Fallback**&#45;&gt;2 at pos (0.016, &#45;0.032, 0.0)?</title>
<path fill="none" stroke="black" d="M313.55,-143.7C313.55,-135.98 313.55,-126.71 313.55,-118.11"/>
<polygon fill="black" stroke="black" points="317.05,-118.1 313.55,-108.1 310.05,-118.1 317.05,-118.1"/>
</g>
<!-- Sequence*** -->
<g id="node12" class="node">
<title>Sequence***</title>
<polygon fill="cyan" stroke="black" points="480.54,-82.54 480.54,-97.46 457.11,-108 423.99,-108 400.56,-97.46 400.56,-82.54 423.99,-72 457.11,-72 480.54,-82.54"/>
<text text-anchor="middle" x="440.55" y="-87.8" font-family="Times,serif" font-size="9.00">Sequence***</text>
</g>
<!-- Fallback**&#45;&gt;Sequence*** -->
<g id="edge11" class="edge">
<title>Fallback**&#45;&gt;Sequence***</title>
<path fill="none" stroke="black" d="M336.55,-148.32C356.28,-137.45 384.95,-121.64 407.2,-109.38"/>
<polygon fill="black" stroke="black" points="408.92,-112.43 415.99,-104.54 405.54,-106.3 408.92,-112.43"/>
</g>
<!-- pick 2! -->
<g id="node13" class="node">
<title>pick 2!</title>
<ellipse fill="gray" stroke="black" cx="383.55" cy="-18" rx="27" ry="18"/>
<text text-anchor="middle" x="383.55" y="-15.8" font-family="Times,serif" font-size="9.00">pick 2!</text>
</g>
<!-- Sequence***&#45;&gt;pick 2! -->
<g id="edge12" class="edge">
<title>Sequence***&#45;&gt;pick 2!</title>
<path fill="none" stroke="black" d="M426.46,-71.7C419.22,-62.8 410.29,-51.84 402.46,-42.22"/>
<polygon fill="black" stroke="black" points="404.96,-39.75 395.93,-34.2 399.53,-44.17 404.96,-39.75"/>
</g>
<!-- place at (0.016, &#45;0.032, 0.0)! -->
<g id="node14" class="node">
<title>place at (0.016, &#45;0.032, 0.0)!</title>
<ellipse fill="gray" stroke="black" cx="496.55" cy="-18" rx="68.25" ry="18"/>
<text text-anchor="middle" x="496.55" y="-15.8" font-family="Times,serif" font-size="9.00">place at (0.016, &#45;0.032, 0.0)!</text>
</g>
<!-- Sequence***&#45;&gt;place at (0.016, &#45;0.032, 0.0)! -->
<g id="edge13" class="edge">
<title>Sequence***&#45;&gt;place at (0.016, &#45;0.032, 0.0)!</title>
<path fill="none" stroke="black" d="M454.39,-71.7C461.04,-63.39 469.13,-53.28 476.44,-44.14"/>
<polygon fill="black" stroke="black" points="479.35,-46.1 482.87,-36.1 473.89,-41.73 479.35,-46.1"/>
</g>
<!-- 1 on 0? -->
<g id="node18" class="node">
<title>1 on 0?</title>
<ellipse fill="gray" stroke="black" cx="432.55" cy="-234" rx="27" ry="18"/>
<text text-anchor="middle" x="432.55" y="-231.8" font-family="Times,serif" font-size="9.00">1 on 0?</text>
</g>
<!-- Fallback***&#45;&gt;1 on 0? -->
<g id="edge17" class="edge">
<title>Fallback***&#45;&gt;1 on 0?</title>
<path fill="none" stroke="black" d="M463.42,-287.7C458.51,-279.32 452.52,-269.1 447.13,-259.9"/>
<polygon fill="black" stroke="black" points="450.08,-258 442.01,-251.14 444.04,-261.54 450.08,-258"/>
</g>
<!-- place on 0! -->
<g id="node19" class="node">
<title>place on 0!</title>
<ellipse fill="gray" stroke="black" cx="509.55" cy="-234" rx="32.16" ry="18"/>
<text text-anchor="middle" x="509.55" y="-231.8" font-family="Times,serif" font-size="9.00">place on 0!</text>
</g>
<!-- Fallback***&#45;&gt;place on 0! -->
<g id="edge18" class="edge">
<title>Fallback***&#45;&gt;place on 0!</title>
<path fill="none" stroke="black" d="M482.45,-287.7C486.65,-279.52 491.75,-269.6 496.39,-260.58"/>
<polygon fill="black" stroke="black" points="499.54,-262.12 501,-251.62 493.32,-258.91 499.54,-262.12"/>
</g>
<!-- 0 at pos (0.0, 0.0, 0.0)?* -->
<g id="node20" class="node">
<title>0 at pos (0.0, 0.0, 0.0)?*</title>
<ellipse fill="gray" stroke="black" cx="619.55" cy="-234" rx="60.09" ry="18"/>
<text text-anchor="middle" x="619.55" y="-231.8" font-family="Times,serif" font-size="9.00">0 at pos (0.0, 0.0, 0.0)?*</text>
</g>
<!-- Fallback***&#45;&gt;0 at pos (0.0, 0.0, 0.0)?* -->
<g id="edge19" class="edge">
<title>Fallback***&#45;&gt;0 at pos (0.0, 0.0, 0.0)?*</title>
<path fill="none" stroke="black" d="M499.32,-292.65C521.63,-281.95 554.25,-266.31 579.89,-254.02"/>
<polygon fill="black" stroke="black" points="581.48,-257.13 588.99,-249.65 578.46,-250.82 581.48,-257.13"/>
</g>
</g>
</svg>
