<?xml version="1.0" encoding="UTF-8" standalone="no"?>
<!DOCTYPE svg PUBLIC "-//W3C//DTD SVG 1.1//EN"
 "http://www.w3.org/Graphics/SVG/1.1/DTD/svg11.dtd">
<!-- Generated by graphviz version 2.43.0 (0)
 -->
<!-- Title: pastafarianism Pages: 1 -->
<svg width="1075pt" height="692pt"
 viewBox="0.00 0.00 1075.39 692.00" xmlns="http://www.w3.org/2000/svg" xmlns:xlink="http://www.w3.org/1999/xlink">
<g id="graph0" class="graph" transform="scale(1 1) rotate(0) translate(4 688)">
<title>pastafarianism</title>
<polygon fill="white" stroke="transparent" points="-4,4 -4,-688 1071.39,-688 1071.39,4 -4,4"/>
<!-- Sequence -->
<g id="node1" class="node">
<title>Sequence</title>
<polygon fill="cyan" stroke="black" points="789.78,-658.54 789.78,-673.46 771.33,-684 745.24,-684 726.79,-673.46 726.79,-658.54 745.24,-648 771.33,-648 789.78,-658.54"/>
<text text-anchor="middle" x="758.28" y="-663.8" font-family="Times,serif" font-size="9.00">Sequence</text>
</g>
<!-- Fallback -->
<g id="node2" class="node">
<title>Fallback</title>
<polygon fill="cyan" stroke="black" points="220.53,-586.54 220.53,-601.46 203.39,-612 179.17,-612 162.04,-601.46 162.04,-586.54 179.17,-576 203.39,-576 220.53,-586.54"/>
<text text-anchor="middle" x="191.28" y="-591.8" font-family="Times,serif" font-size="9.00">Fallback</text>
</g>
<!-- Sequence&#45;&gt;Fallback -->
<g id="edge1" class="edge">
<title>Sequence&#45;&gt;Fallback</title>
<path fill="none" stroke="black" d="M726.99,-661.14C630.49,-649.22 337.6,-613.06 230.8,-599.88"/>
<polygon fill="black" stroke="black" points="231.11,-596.39 220.76,-598.64 230.26,-603.34 231.11,-596.39"/>
</g>
<!-- Fallback* -->
<g id="node7" class="node">
<title>Fallback*</title>
<polygon fill="cyan" stroke="black" points="622.02,-586.54 622.02,-601.46 603.43,-612 577.13,-612 558.54,-601.46 558.54,-586.54 577.13,-576 603.43,-576 622.02,-586.54"/>
<text text-anchor="middle" x="590.28" y="-591.8" font-family="Times,serif" font-size="9.00">Fallback*</text>
</g>
<!-- Sequence&#45;&gt;Fallback* -->
<g id="edge6" class="edge">
<title>Sequence&#45;&gt;Fallback*</title>
<path fill="none" stroke="black" d="M733.49,-654.67C704.71,-642.68 657.05,-622.82 624.69,-609.34"/>
<polygon fill="black" stroke="black" points="625.75,-605.99 615.17,-605.37 623.06,-612.45 625.75,-605.99"/>
</g>
<!-- Fallback******* -->
<g id="node37" class="node">
<title>Fallback*******</title>
<polygon fill="cyan" stroke="black" points="738.27,-586.54 738.27,-601.46 709.57,-612 668.99,-612 640.29,-601.46 640.29,-586.54 668.99,-576 709.57,-576 738.27,-586.54"/>
<text text-anchor="middle" x="689.28" y="-591.8" font-family="Times,serif" font-size="9.00">Fallback*******</text>
</g>
<!-- Sequence&#45;&gt;Fallback******* -->
<g id="edge36" class="edge">
<title>Sequence&#45;&gt;Fallback*******</title>
<path fill="none" stroke="black" d="M742.62,-649.12C734.01,-640.37 723.13,-629.33 713.44,-619.51"/>
<polygon fill="black" stroke="black" points="715.84,-616.96 706.33,-612.29 710.85,-621.87 715.84,-616.96"/>
</g>
<!-- 3 at pos (0.016, 0.032, 0.0)?** -->
<g id="node42" class="node">
<title>3 at pos (0.016, 0.032, 0.0)?**</title>
<ellipse fill="gray" stroke="black" cx="828.28" cy="-594" rx="72.99" ry="18"/>
<text text-anchor="middle" x="828.28" y="-591.8" font-family="Times,serif" font-size="9.00">3 at pos (0.016, 0.032, 0.0)?**</text>
</g>
<!-- Sequence&#45;&gt;3 at pos (0.016, 0.032, 0.0)?** -->
<g id="edge41" class="edge">
<title>Sequence&#45;&gt;3 at pos (0.016, 0.032, 0.0)?**</title>
<path fill="none" stroke="black" d="M774.17,-649.12C783.04,-640.24 794.27,-629.01 804.2,-619.08"/>
<polygon fill="black" stroke="black" points="806.89,-621.34 811.48,-611.8 801.94,-616.39 806.89,-621.34"/>
</g>
<!-- 0 on 2? -->
<g id="node43" class="node">
<title>0 on 2?</title>
<ellipse fill="gray" stroke="black" cx="946.28" cy="-594" rx="27" ry="18"/>
<text text-anchor="middle" x="946.28" y="-591.8" font-family="Times,serif" font-size="9.00">0 on 2?</text>
</g>
<!-- Sequence&#45;&gt;0 on 2? -->
<g id="edge42" class="edge">
<title>Sequence&#45;&gt;0 on 2?</title>
<path fill="none" stroke="black" d="M786.07,-656.29C816.8,-646.43 867.6,-629.46 910.28,-612 912.11,-611.25 913.97,-610.46 915.84,-609.65"/>
<polygon fill="black" stroke="black" points="917.46,-612.76 925.13,-605.44 914.57,-606.38 917.46,-612.76"/>
</g>
<!-- apply force 1! -->
<g id="node44" class="node">
<title>apply force 1!</title>
<ellipse fill="gray" stroke="black" cx="1029.28" cy="-594" rx="38.21" ry="18"/>
<text text-anchor="middle" x="1029.28" y="-591.8" font-family="Times,serif" font-size="9.00">apply force 1!</text>
</g>
<!-- Sequence&#45;&gt;apply force 1! -->
<g id="edge43" class="edge">
<title>Sequence&#45;&gt;apply force 1!</title>
<path fill="none" stroke="black" d="M789.75,-658.75C833.36,-649.81 914.5,-632.21 982.28,-612 985.18,-611.14 988.16,-610.19 991.15,-609.2"/>
<polygon fill="black" stroke="black" points="992.3,-612.51 1000.62,-605.96 990.03,-605.89 992.3,-612.51"/>
</g>
<!-- 2 at pos (0.016, &#45;0.032, 0.0)? -->
<g id="node3" class="node">
<title>2 at pos (0.016, &#45;0.032, 0.0)?</title>
<ellipse fill="gray" stroke="black" cx="69.28" cy="-522" rx="69.06" ry="18"/>
<text text-anchor="middle" x="69.28" y="-519.8" font-family="Times,serif" font-size="9.00">2 at pos (0.016, &#45;0.032, 0.0)?</text>
</g>
<!-- Fallback&#45;&gt;2 at pos (0.016, &#45;0.032, 0.0)? -->
<g id="edge2" class="edge">
<title>Fallback&#45;&gt;2 at pos (0.016, &#45;0.032, 0.0)?</title>
<path fill="none" stroke="black" d="M170.59,-581.13C152.74,-570.89 126.57,-555.87 105.29,-543.66"/>
<polygon fill="black" stroke="black" points="106.93,-540.57 96.51,-538.62 103.45,-546.64 106.93,-540.57"/>
</g>
<!-- Sequence* -->
<g id="node4" class="node">
<title>Sequence*</title>
<polygon fill="cyan" stroke="black" points="225.52,-514.54 225.52,-529.46 205.47,-540 177.1,-540 157.04,-529.46 157.04,-514.54 177.1,-504 205.47,-504 225.52,-514.54"/>
<text text-anchor="middle" x="191.28" y="-519.8" font-family="Times,serif" font-size="9.00">Sequence*</text>
</g>
<!-- Fallback&#45;&gt;Sequence* -->
<g id="edge3" class="edge">
<title>Fallback&#45;&gt;Sequence*</title>
<path fill="none" stroke="black" d="M191.28,-575.7C191.28,-567.98 191.28,-558.71 191.28,-550.11"/>
<polygon fill="black" stroke="black" points="194.78,-550.1 191.28,-540.1 187.78,-550.1 194.78,-550.1"/>
</g>
<!-- pick 2! -->
<g id="node5" class="node">
<title>pick 2!</title>
<ellipse fill="gray" stroke="black" cx="78.28" cy="-450" rx="27" ry="18"/>
<text text-anchor="middle" x="78.28" y="-447.8" font-family="Times,serif" font-size="9.00">pick 2!</text>
</g>
<!-- Sequence*&#45;&gt;pick 2! -->
<g id="edge4" class="edge">
<title>Sequence*&#45;&gt;pick 2!</title>
<path fill="none" stroke="black" d="M169.76,-507.67C151.66,-496.45 125.66,-480.35 106,-468.17"/>
<polygon fill="black" stroke="black" points="107.81,-465.17 97.46,-462.88 104.12,-471.12 107.81,-465.17"/>
</g>
<!-- place at (0.016, &#45;0.032, 0.0)! -->
<g id="node6" class="node">
<title>place at (0.016, &#45;0.032, 0.0)!</title>
<ellipse fill="gray" stroke="black" cx="191.28" cy="-450" rx="68.25" ry="18"/>
<text text-anchor="middle" x="191.28" y="-447.8" font-family="Times,serif" font-size="9.00">place at (0.016, &#45;0.032, 0.0)!</text>
</g>
<!-- Sequence*&#45;&gt;place at (0.016, &#45;0.032, 0.0)! -->
<g id="edge5" class="edge">
<title>Sequence*&#45;&gt;place at (0.016, &#45;0.032, 0.0)!</title>
<path fill="none" stroke="black" d="M191.28,-503.7C191.28,-495.98 191.28,-486.71 191.28,-478.11"/>
<polygon fill="black" stroke="black" points="194.78,-478.1 191.28,-468.1 187.78,-478.1 194.78,-478.1"/>
</g>
<!-- 0 at pos (0.0, 0.0, 0.0)? -->
<g id="node8" class="node">
<title>0 at pos (0.0, 0.0, 0.0)?</title>
<ellipse fill="gray" stroke="black" cx="487.28" cy="-522" rx="57.32" ry="18"/>
<text text-anchor="middle" x="487.28" y="-519.8" font-family="Times,serif" font-size="9.00">0 at pos (0.0, 0.0, 0.0)?</text>
</g>
<!-- Fallback*&#45;&gt;0 at pos (0.0, 0.0, 0.0)? -->
<g id="edge7" class="edge">
<title>Fallback*&#45;&gt;0 at pos (0.0, 0.0, 0.0)?</title>
<path fill="none" stroke="black" d="M570.42,-579.5C555.79,-569.56 535.59,-555.83 518.76,-544.39"/>
<polygon fill="black" stroke="black" points="520.56,-541.38 510.32,-538.65 516.62,-547.17 520.56,-541.38"/>
</g>
<!-- Sequence** -->
<g id="node9" class="node">
<title>Sequence**</title>
<polygon fill="cyan" stroke="black" points="636.02,-514.54 636.02,-529.46 614.5,-540 584.06,-540 562.54,-529.46 562.54,-514.54 584.06,-504 614.5,-504 636.02,-514.54"/>
<text text-anchor="middle" x="599.28" y="-519.8" font-family="Times,serif" font-size="9.00">Sequence**</text>
</g>
<!-- Fallback*&#45;&gt;Sequence** -->
<g id="edge8" class="edge">
<title>Fallback*&#45;&gt;Sequence**</title>
<path fill="none" stroke="black" d="M592.51,-575.7C593.5,-567.98 594.69,-558.71 595.8,-550.11"/>
<polygon fill="black" stroke="black" points="599.28,-550.47 597.08,-540.1 592.34,-549.58 599.28,-550.47"/>
</g>
<!-- Fallback** -->
<g id="node10" class="node">
<title>Fallback**</title>
<polygon fill="cyan" stroke="black" points="347.27,-442.54 347.27,-457.46 326.78,-468 297.79,-468 277.29,-457.46 277.29,-442.54 297.79,-432 326.78,-432 347.27,-442.54"/>
<text text-anchor="middle" x="312.28" y="-447.8" font-family="Times,serif" font-size="9.00">Fallback**</text>
</g>
<!-- Sequence**&#45;&gt;Fallback** -->
<g id="edge9" class="edge">
<title>Sequence**&#45;&gt;Fallback**</title>
<path fill="none" stroke="black" d="M571.27,-509.95C565.38,-507.82 559.16,-505.72 553.28,-504 485.93,-484.25 406.07,-468.07 357.3,-458.98"/>
<polygon fill="black" stroke="black" points="357.85,-455.52 347.38,-457.15 356.58,-462.41 357.85,-455.52"/>
</g>
<!-- Fallback***** -->
<g id="node25" class="node">
<title>Fallback*****</title>
<polygon fill="cyan" stroke="black" points="535.52,-442.54 535.52,-457.46 510.19,-468 474.37,-468 449.04,-457.46 449.04,-442.54 474.37,-432 510.19,-432 535.52,-442.54"/>
<text text-anchor="middle" x="492.28" y="-447.8" font-family="Times,serif" font-size="9.00">Fallback*****</text>
</g>
<!-- Sequence**&#45;&gt;Fallback***** -->
<g id="edge24" class="edge">
<title>Sequence**&#45;&gt;Fallback*****</title>
<path fill="none" stroke="black" d="M577.89,-507C562.51,-496.95 541.53,-483.22 524.18,-471.87"/>
<polygon fill="black" stroke="black" points="525.78,-468.73 515.5,-466.19 521.95,-474.59 525.78,-468.73"/>
</g>
<!-- Fallback****** -->
<g id="node30" class="node">
<title>Fallback******</title>
<polygon fill="cyan" stroke="black" points="645.77,-442.54 645.77,-457.46 618.54,-468 580.03,-468 552.79,-457.46 552.79,-442.54 580.03,-432 618.54,-432 645.77,-442.54"/>
<text text-anchor="middle" x="599.28" y="-447.8" font-family="Times,serif" font-size="9.00">Fallback******</text>
</g>
<!-- Sequence**&#45;&gt;Fallback****** -->
<g id="edge29" class="edge">
<title>Sequence**&#45;&gt;Fallback******</title>
<path fill="none" stroke="black" d="M599.28,-503.7C599.28,-495.98 599.28,-486.71 599.28,-478.11"/>
<polygon fill="black" stroke="black" points="602.78,-478.1 599.28,-468.1 595.78,-478.1 602.78,-478.1"/>
</g>
<!-- pick 0!* -->
<g id="node35" class="node">
<title>pick 0!*</title>
<ellipse fill="gray" stroke="black" cx="690.28" cy="-450" rx="27" ry="18"/>
<text text-anchor="middle" x="690.28" y="-447.8" font-family="Times,serif" font-size="9.00">pick 0!*</text>
</g>
<!-- Sequence**&#45;&gt;pick 0!* -->
<g id="edge34" class="edge">
<title>Sequence**&#45;&gt;pick 0!*</title>
<path fill="none" stroke="black" d="M619.03,-505.81C632.57,-495.39 650.66,-481.48 665.22,-470.28"/>
<polygon fill="black" stroke="black" points="667.54,-472.91 673.33,-464.04 663.27,-467.37 667.54,-472.91"/>
</g>
<!-- place at (0.0, 0.0, 0.0)!* -->
<g id="node36" class="node">
<title>place at (0.0, 0.0, 0.0)!*</title>
<ellipse fill="gray" stroke="black" cx="793.28" cy="-450" rx="58.13" ry="18"/>
<text text-anchor="middle" x="793.28" y="-447.8" font-family="Times,serif" font-size="9.00">place at (0.0, 0.0, 0.0)!*</text>
</g>
<!-- Sequence**&#45;&gt;place at (0.0, 0.0, 0.0)!* -->
<g id="edge35" class="edge">
<title>Sequence**&#45;&gt;place at (0.0, 0.0, 0.0)!*</title>
<path fill="none" stroke="black" d="M628.33,-510.52C659.76,-499.18 710.34,-480.93 747.21,-467.62"/>
<polygon fill="black" stroke="black" points="748.53,-470.87 756.75,-464.18 746.15,-464.29 748.53,-470.87"/>
</g>
<!-- 2 at pos (0.016, &#45;0.032, 0.0)?* -->
<g id="node11" class="node">
<title>2 at pos (0.016, &#45;0.032, 0.0)?*</title>
<ellipse fill="gray" stroke="black" cx="139.28" cy="-378" rx="72.34" ry="18"/>
<text text-anchor="middle" x="139.28" y="-375.8" font-family="Times,serif" font-size="9.00">2 at pos (0.016, &#45;0.032, 0.0)?*</text>
</g>
<!-- Fallback**&#45;&gt;2 at pos (0.016, &#45;0.032, 0.0)?* -->
<g id="edge10" class="edge">
<title>Fallback**&#45;&gt;2 at pos (0.016, &#45;0.032, 0.0)?*</title>
<path fill="none" stroke="black" d="M285.63,-438.22C258.92,-427.41 217.27,-410.55 185.22,-397.59"/>
<polygon fill="black" stroke="black" points="186.19,-394.21 175.61,-393.7 183.57,-400.69 186.19,-394.21"/>
</g>
<!-- Sequence*** -->
<g id="node12" class="node">
<title>Sequence***</title>
<polygon fill="cyan" stroke="black" points="309.27,-370.54 309.27,-385.46 285.85,-396 252.72,-396 229.29,-385.46 229.29,-370.54 252.72,-360 285.85,-360 309.27,-370.54"/>
<text text-anchor="middle" x="269.28" y="-375.8" font-family="Times,serif" font-size="9.00">Sequence***</text>
</g>
<!-- Fallback**&#45;&gt;Sequence*** -->
<g id="edge11" class="edge">
<title>Fallback**&#45;&gt;Sequence***</title>
<path fill="none" stroke="black" d="M301.65,-431.7C296.65,-423.56 290.59,-413.69 285.07,-404.7"/>
<polygon fill="black" stroke="black" points="288.01,-402.79 279.79,-396.1 282.04,-406.46 288.01,-402.79"/>
</g>
<!-- pick 2!* -->
<g id="node13" class="node">
<title>pick 2!*</title>
<ellipse fill="gray" stroke="black" cx="154.28" cy="-306" rx="27" ry="18"/>
<text text-anchor="middle" x="154.28" y="-303.8" font-family="Times,serif" font-size="9.00">pick 2!*</text>
</g>
<!-- Sequence***&#45;&gt;pick 2!* -->
<g id="edge12" class="edge">
<title>Sequence***&#45;&gt;pick 2!*</title>
<path fill="none" stroke="black" d="M246.01,-362.83C227.65,-351.66 201.98,-336.03 182.46,-324.15"/>
<polygon fill="black" stroke="black" points="184.06,-321.03 173.7,-318.82 180.42,-327.01 184.06,-321.03"/>
</g>
<!-- place at (0.016, &#45;0.032, 0.0)!* -->
<g id="node14" class="node">
<title>place at (0.016, &#45;0.032, 0.0)!*</title>
<ellipse fill="gray" stroke="black" cx="269.28" cy="-306" rx="70.37" ry="18"/>
<text text-anchor="middle" x="269.28" y="-303.8" font-family="Times,serif" font-size="9.00">place at (0.016, &#45;0.032, 0.0)!*</text>
</g>
<!-- Sequence***&#45;&gt;place at (0.016, &#45;0.032, 0.0)!* -->
<g id="edge13" class="edge">
<title>Sequence***&#45;&gt;place at (0.016, &#45;0.032, 0.0)!*</title>
<path fill="none" stroke="black" d="M269.28,-359.7C269.28,-351.98 269.28,-342.71 269.28,-334.11"/>
<polygon fill="black" stroke="black" points="272.78,-334.1 269.28,-324.1 265.78,-334.1 272.78,-334.1"/>
</g>
<!-- Fallback*** -->
<g id="node15" class="node">
<title>Fallback***</title>
<polygon fill="cyan" stroke="black" points="432.77,-298.54 432.77,-313.46 410.81,-324 379.75,-324 357.79,-313.46 357.79,-298.54 379.75,-288 410.81,-288 432.77,-298.54"/>
<text text-anchor="middle" x="395.28" y="-303.8" font-family="Times,serif" font-size="9.00">Fallback***</text>
</g>
<!-- Sequence***&#45;&gt;Fallback*** -->
<g id="edge14" class="edge">
<title>Sequence***&#45;&gt;Fallback***</title>
<path fill="none" stroke="black" d="M293.88,-363.34C313.55,-352.41 341.31,-336.98 362.81,-325.04"/>
<polygon fill="black" stroke="black" points="364.56,-328.07 371.6,-320.15 361.16,-321.95 364.56,-328.07"/>
</g>
<!-- 0 at pos (0.0, 0.0, 0.0)?* -->
<g id="node16" class="node">
<title>0 at pos (0.0, 0.0, 0.0)?*</title>
<ellipse fill="gray" stroke="black" cx="335.28" cy="-234" rx="60.09" ry="18"/>
<text text-anchor="middle" x="335.28" y="-231.8" font-family="Times,serif" font-size="9.00">0 at pos (0.0, 0.0, 0.0)?*</text>
</g>
<!-- Fallback***&#45;&gt;0 at pos (0.0, 0.0, 0.0)?* -->
<g id="edge15" class="edge">
<title>Fallback***&#45;&gt;0 at pos (0.0, 0.0, 0.0)?*</title>
<path fill="none" stroke="black" d="M380.45,-287.7C373.15,-279.18 364.22,-268.76 356.24,-259.45"/>
<polygon fill="black" stroke="black" points="358.7,-256.94 349.53,-251.62 353.38,-261.49 358.7,-256.94"/>
</g>
<!-- Sequence**** -->
<g id="node17" class="node">
<title>Sequence****</title>
<polygon fill="cyan" stroke="black" points="498.77,-226.54 498.77,-241.46 473.88,-252 438.68,-252 413.79,-241.46 413.79,-226.54 438.68,-216 473.88,-216 498.77,-226.54"/>
<text text-anchor="middle" x="456.28" y="-231.8" font-family="Times,serif" font-size="9.00">Sequence****</text>
</g>
<!-- Fallback***&#45;&gt;Sequence**** -->
<g id="edge16" class="edge">
<title>Fallback***&#45;&gt;Sequence****</title>
<path fill="none" stroke="black" d="M410.36,-287.7C417.67,-279.3 426.59,-269.07 434.62,-259.86"/>
<polygon fill="black" stroke="black" points="437.45,-261.94 441.38,-252.1 432.17,-257.34 437.45,-261.94"/>
</g>
<!-- Fallback**** -->
<g id="node18" class="node">
<title>Fallback****</title>
<polygon fill="cyan" stroke="black" points="411.02,-154.54 411.02,-169.46 387.16,-180 353.41,-180 329.54,-169.46 329.54,-154.54 353.41,-144 387.16,-144 411.02,-154.54"/>
<text text-anchor="middle" x="370.28" y="-159.8" font-family="Times,serif" font-size="9.00">Fallback****</text>
</g>
<!-- Sequence****&#45;&gt;Fallback**** -->
<g id="edge17" class="edge">
<title>Sequence****&#45;&gt;Fallback****</title>
<path fill="none" stroke="black" d="M436.34,-216.76C424.86,-207.42 410.27,-195.55 397.72,-185.33"/>
<polygon fill="black" stroke="black" points="399.79,-182.5 389.82,-178.91 395.37,-187.93 399.79,-182.5"/>
</g>
<!-- pick 0! -->
<g id="node23" class="node">
<title>pick 0!</title>
<ellipse fill="gray" stroke="black" cx="456.28" cy="-162" rx="27" ry="18"/>
<text text-anchor="middle" x="456.28" y="-159.8" font-family="Times,serif" font-size="9.00">pick 0!</text>
</g>
<!-- Sequence****&#45;&gt;pick 0! -->
<g id="edge22" class="edge">
<title>Sequence****&#45;&gt;pick 0!</title>
<path fill="none" stroke="black" d="M456.28,-215.7C456.28,-207.98 456.28,-198.71 456.28,-190.11"/>
<polygon fill="black" stroke="black" points="459.78,-190.1 456.28,-180.1 452.78,-190.1 459.78,-190.1"/>
</g>
<!-- place at (0.0, 0.0, 0.0)! -->
<g id="node24" class="node">
<title>place at (0.0, 0.0, 0.0)!</title>
<ellipse fill="gray" stroke="black" cx="557.28" cy="-162" rx="56.01" ry="18"/>
<text text-anchor="middle" x="557.28" y="-159.8" font-family="Times,serif" font-size="9.00">place at (0.0, 0.0, 0.0)!</text>
</g>
<!-- Sequence****&#45;&gt;place at (0.0, 0.0, 0.0)! -->
<g id="edge23" class="edge">
<title>Sequence****&#45;&gt;place at (0.0, 0.0, 0.0)!</title>
<path fill="none" stroke="black" d="M478.2,-217.81C492.3,-208.04 510.83,-195.2 526.41,-184.4"/>
<polygon fill="black" stroke="black" points="528.48,-187.22 534.71,-178.64 524.5,-181.46 528.48,-187.22"/>
</g>
<!-- 3 at pos (0.016, 0.032, 0.0)? -->
<g id="node19" class="node">
<title>3 at pos (0.016, 0.032, 0.0)?</title>
<ellipse fill="gray" stroke="black" cx="305.28" cy="-90" rx="67.6" ry="18"/>
<text text-anchor="middle" x="305.28" y="-87.8" font-family="Times,serif" font-size="9.00">3 at pos (0.016, 0.032, 0.0)?</text>
</g>
<!-- Fallback****&#45;&gt;3 at pos (0.016, 0.032, 0.0)? -->
<g id="edge18" class="edge">
<title>Fallback****&#45;&gt;3 at pos (0.016, 0.032, 0.0)?</title>
<path fill="none" stroke="black" d="M354.21,-143.7C346.23,-135.09 336.44,-124.55 327.72,-115.17"/>
<polygon fill="black" stroke="black" points="330.09,-112.57 320.72,-107.62 324.96,-117.33 330.09,-112.57"/>
</g>
<!-- Sequence***** -->
<g id="node20" class="node">
<title>Sequence*****</title>
<polygon fill="cyan" stroke="black" points="482.02,-82.54 482.02,-97.46 455.23,-108 417.34,-108 390.54,-97.46 390.54,-82.54 417.34,-72 455.23,-72 482.02,-82.54"/>
<text text-anchor="middle" x="436.28" y="-87.8" font-family="Times,serif" font-size="9.00">Sequence*****</text>
</g>
<!-- Fallback****&#45;&gt;Sequence***** -->
<g id="edge19" class="edge">
<title>Fallback****&#45;&gt;Sequence*****</title>
<path fill="none" stroke="black" d="M386.6,-143.7C394.59,-135.22 404.35,-124.86 413.1,-115.58"/>
<polygon fill="black" stroke="black" points="415.84,-117.78 420.16,-108.1 410.75,-112.98 415.84,-117.78"/>
</g>
<!-- pick 3! -->
<g id="node21" class="node">
<title>pick 3!</title>
<ellipse fill="gray" stroke="black" cx="380.28" cy="-18" rx="27" ry="18"/>
<text text-anchor="middle" x="380.28" y="-15.8" font-family="Times,serif" font-size="9.00">pick 3!</text>
</g>
<!-- Sequence*****&#45;&gt;pick 3! -->
<g id="edge20" class="edge">
<title>Sequence*****&#45;&gt;pick 3!</title>
<path fill="none" stroke="black" d="M422.44,-71.7C415.32,-62.8 406.56,-51.84 398.86,-42.22"/>
<polygon fill="black" stroke="black" points="401.42,-39.82 392.44,-34.2 395.96,-44.2 401.42,-39.82"/>
</g>
<!-- place at (0.016, 0.032, 0.0)! -->
<g id="node22" class="node">
<title>place at (0.016, 0.032, 0.0)!</title>
<ellipse fill="gray" stroke="black" cx="491.28" cy="-18" rx="66.29" ry="18"/>
<text text-anchor="middle" x="491.28" y="-15.8" font-family="Times,serif" font-size="9.00">place at (0.016, 0.032, 0.0)!</text>
</g>
<!-- Sequence*****&#45;&gt;place at (0.016, 0.032, 0.0)! -->
<g id="edge21" class="edge">
<title>Sequence*****&#45;&gt;place at (0.016, 0.032, 0.0)!</title>
<path fill="none" stroke="black" d="M449.88,-71.7C456.4,-63.39 464.35,-53.28 471.53,-44.14"/>
<polygon fill="black" stroke="black" points="474.42,-46.13 477.84,-36.1 468.91,-41.81 474.42,-46.13"/>
</g>
<!-- 3 at pos (0.016, 0.032, 0.0)?* -->
<g id="node26" class="node">
<title>3 at pos (0.016, 0.032, 0.0)?*</title>
<ellipse fill="gray" stroke="black" cx="397.28" cy="-378" rx="70.37" ry="18"/>
<text text-anchor="middle" x="397.28" y="-375.8" font-family="Times,serif" font-size="9.00">3 at pos (0.016, 0.032, 0.0)?*</text>
</g>
<!-- Fallback*****&#45;&gt;3 at pos (0.016, 0.032, 0.0)?* -->
<g id="edge25" class="edge">
<title>Fallback*****&#45;&gt;3 at pos (0.016, 0.032, 0.0)?*</title>
<path fill="none" stroke="black" d="M470.73,-433.12C458.03,-423.76 441.77,-411.78 427.78,-401.47"/>
<polygon fill="black" stroke="black" points="429.54,-398.42 419.41,-395.31 425.39,-404.06 429.54,-398.42"/>
</g>
<!-- Sequence****** -->
<g id="node27" class="node">
<title>Sequence******</title>
<polygon fill="cyan" stroke="black" points="582.52,-370.54 582.52,-385.46 554.26,-396 514.3,-396 486.04,-385.46 486.04,-370.54 514.3,-360 554.26,-360 582.52,-370.54"/>
<text text-anchor="middle" x="534.28" y="-375.8" font-family="Times,serif" font-size="9.00">Sequence******</text>
</g>
<!-- Fallback*****&#45;&gt;Sequence****** -->
<g id="edge26" class="edge">
<title>Fallback*****&#45;&gt;Sequence******</title>
<path fill="none" stroke="black" d="M502.66,-431.7C507.55,-423.56 513.47,-413.69 518.86,-404.7"/>
<polygon fill="black" stroke="black" points="521.88,-406.48 524.02,-396.1 515.87,-402.88 521.88,-406.48"/>
</g>
<!-- pick 3!* -->
<g id="node28" class="node">
<title>pick 3!*</title>
<ellipse fill="gray" stroke="black" cx="506.28" cy="-306" rx="27" ry="18"/>
<text text-anchor="middle" x="506.28" y="-303.8" font-family="Times,serif" font-size="9.00">pick 3!*</text>
</g>
<!-- Sequence******&#45;&gt;pick 3!* -->
<g id="edge27" class="edge">
<title>Sequence******&#45;&gt;pick 3!*</title>
<path fill="none" stroke="black" d="M527.36,-359.7C524.16,-351.7 520.29,-342.02 516.74,-333.15"/>
<polygon fill="black" stroke="black" points="519.89,-331.61 512.93,-323.62 513.4,-334.21 519.89,-331.61"/>
</g>
<!-- place at (0.016, 0.032, 0.0)!* -->
<g id="node29" class="node">
<title>place at (0.016, 0.032, 0.0)!*</title>
<ellipse fill="gray" stroke="black" cx="620.28" cy="-306" rx="68.91" ry="18"/>
<text text-anchor="middle" x="620.28" y="-303.8" font-family="Times,serif" font-size="9.00">place at (0.016, 0.032, 0.0)!*</text>
</g>
<!-- Sequence******&#45;&gt;place at (0.016, 0.032, 0.0)!* -->
<g id="edge28" class="edge">
<title>Sequence******&#45;&gt;place at (0.016, 0.032, 0.0)!*</title>
<path fill="none" stroke="black" d="M555.1,-360.05C566.25,-350.98 580.13,-339.68 592.22,-329.84"/>
<polygon fill="black" stroke="black" points="594.7,-332.33 600.25,-323.31 590.28,-326.91 594.7,-332.33"/>
</g>
<!-- 2 at pos (0.016, &#45;0.032, 0.0)?** -->
<g id="node31" class="node">
<title>2 at pos (0.016, &#45;0.032, 0.0)?**</title>
<ellipse fill="gray" stroke="black" cx="675.28" cy="-378" rx="74.46" ry="18"/>
<text text-anchor="middle" x="675.28" y="-375.8" font-family="Times,serif" font-size="9.00">2 at pos (0.016, &#45;0.032, 0.0)?**</text>
</g>
<!-- Fallback******&#45;&gt;2 at pos (0.016, &#45;0.032, 0.0)?** -->
<g id="edge30" class="edge">
<title>Fallback******&#45;&gt;2 at pos (0.016, &#45;0.032, 0.0)?**</title>
<path fill="none" stroke="black" d="M618.07,-431.7C627.6,-422.92 639.31,-412.13 649.65,-402.61"/>
<polygon fill="black" stroke="black" points="652.25,-404.97 657.23,-395.62 647.51,-399.82 652.25,-404.97"/>
</g>
<!-- Sequence******* -->
<g id="node32" class="node">
<title>Sequence*******</title>
<polygon fill="cyan" stroke="black" points="870.77,-370.54 870.77,-385.46 840.61,-396 797.96,-396 767.79,-385.46 767.79,-370.54 797.96,-360 840.61,-360 870.77,-370.54"/>
<text text-anchor="middle" x="819.28" y="-375.8" font-family="Times,serif" font-size="9.00">Sequence*******</text>
</g>
<!-- Fallback******&#45;&gt;Sequence******* -->
<g id="edge31" class="edge">
<title>Fallback******&#45;&gt;Sequence*******</title>
<path fill="none" stroke="black" d="M634.14,-437.91C671.61,-425.99 731.34,-406.98 772.79,-393.79"/>
<polygon fill="black" stroke="black" points="773.92,-397.11 782.38,-390.74 771.79,-390.44 773.92,-397.11"/>
</g>
<!-- pick 2!** -->
<g id="node33" class="node">
<title>pick 2!**</title>
<ellipse fill="gray" stroke="black" cx="778.28" cy="-306" rx="28.74" ry="18"/>
<text text-anchor="middle" x="778.28" y="-303.8" font-family="Times,serif" font-size="9.00">pick 2!**</text>
</g>
<!-- Sequence*******&#45;&gt;pick 2!** -->
<g id="edge32" class="edge">
<title>Sequence*******&#45;&gt;pick 2!**</title>
<path fill="none" stroke="black" d="M809.15,-359.7C804.24,-351.32 798.25,-341.1 792.87,-331.9"/>
<polygon fill="black" stroke="black" points="795.81,-330 787.74,-323.14 789.77,-333.54 795.81,-330"/>
</g>
<!-- place at (0.016, &#45;0.032, 0.0)!** -->
<g id="node34" class="node">
<title>place at (0.016, &#45;0.032, 0.0)!**</title>
<ellipse fill="gray" stroke="black" cx="898.28" cy="-306" rx="73.15" ry="18"/>
<text text-anchor="middle" x="898.28" y="-303.8" font-family="Times,serif" font-size="9.00">place at (0.016, &#45;0.032, 0.0)!**</text>
</g>
<!-- Sequence*******&#45;&gt;place at (0.016, &#45;0.032, 0.0)!** -->
<g id="edge33" class="edge">
<title>Sequence*******&#45;&gt;place at (0.016, &#45;0.032, 0.0)!**</title>
<path fill="none" stroke="black" d="M838.81,-359.7C848.81,-350.84 861.13,-339.92 871.96,-330.33"/>
<polygon fill="black" stroke="black" points="874.36,-332.87 879.52,-323.62 869.72,-327.63 874.36,-332.87"/>
</g>
<!-- 1 on 0? -->
<g id="node38" class="node">
<title>1 on 0?</title>
<ellipse fill="gray" stroke="black" cx="689.28" cy="-522" rx="27" ry="18"/>
<text text-anchor="middle" x="689.28" y="-519.8" font-family="Times,serif" font-size="9.00">1 on 0?</text>
</g>
<!-- Fallback*******&#45;&gt;1 on 0? -->
<g id="edge37" class="edge">
<title>Fallback*******&#45;&gt;1 on 0?</title>
<path fill="none" stroke="black" d="M689.28,-575.7C689.28,-567.98 689.28,-558.71 689.28,-550.11"/>
<polygon fill="black" stroke="black" points="692.78,-550.1 689.28,-540.1 685.78,-550.1 692.78,-550.1"/>
</g>
<!-- Sequence******** -->
<g id="node39" class="node">
<title>Sequence********</title>
<polygon fill="cyan" stroke="black" points="950.27,-514.54 950.27,-529.46 918.64,-540 873.92,-540 842.29,-529.46 842.29,-514.54 873.92,-504 918.64,-504 950.27,-514.54"/>
<text text-anchor="middle" x="896.28" y="-519.8" font-family="Times,serif" font-size="9.00">Sequence********</text>
</g>
<!-- Fallback*******&#45;&gt;Sequence******** -->
<g id="edge38" class="edge">
<title>Fallback*******&#45;&gt;Sequence********</title>
<path fill="none" stroke="black" d="M724.4,-581.13C758.92,-569.45 811.8,-551.57 849.79,-538.72"/>
<polygon fill="black" stroke="black" points="851.25,-541.92 859.6,-535.4 849,-535.29 851.25,-541.92"/>
</g>
<!-- pick 1! -->
<g id="node40" class="node">
<title>pick 1!</title>
<ellipse fill="gray" stroke="black" cx="896.28" cy="-450" rx="27" ry="18"/>
<text text-anchor="middle" x="896.28" y="-447.8" font-family="Times,serif" font-size="9.00">pick 1!</text>
</g>
<!-- Sequence********&#45;&gt;pick 1! -->
<g id="edge39" class="edge">
<title>Sequence********&#45;&gt;pick 1!</title>
<path fill="none" stroke="black" d="M896.28,-503.7C896.28,-495.98 896.28,-486.71 896.28,-478.11"/>
<polygon fill="black" stroke="black" points="899.78,-478.1 896.28,-468.1 892.78,-478.1 899.78,-478.1"/>
</g>
<!-- place on 0! -->
<g id="node41" class="node">
<title>place on 0!</title>
<ellipse fill="gray" stroke="black" cx="973.28" cy="-450" rx="32.16" ry="18"/>
<text text-anchor="middle" x="973.28" y="-447.8" font-family="Times,serif" font-size="9.00">place on 0!</text>
</g>
<!-- Sequence********&#45;&gt;place on 0! -->
<g id="edge40" class="edge">
<title>Sequence********&#45;&gt;place on 0!</title>
<path fill="none" stroke="black" d="M915.32,-503.7C925.64,-494.31 938.49,-482.63 949.47,-472.65"/>
<polygon fill="black" stroke="black" points="952.02,-475.05 957.07,-465.74 947.32,-469.88 952.02,-475.05"/>
</g>
</g>
</svg>
