<?xml version="1.0" encoding="UTF-8" standalone="no"?>
<!DOCTYPE svg PUBLIC "-//W3C//DTD SVG 1.1//EN"
 "http://www.w3.org/Graphics/SVG/1.1/DTD/svg11.dtd">
<!-- Generated by graphviz version 2.43.0 (0)
 -->
<!-- Title: pastafarianism Pages: 1 -->
<svg width="776pt" height="404pt"
 viewBox="0.00 0.00 775.88 404.00" xmlns="http://www.w3.org/2000/svg" xmlns:xlink="http://www.w3.org/1999/xlink">
<g id="graph0" class="graph" transform="scale(1 1) rotate(0) translate(4 400)">
<title>pastafarianism</title>
<polygon fill="white" stroke="transparent" points="-4,4 -4,-400 771.88,-400 771.88,4 -4,4"/>
<!-- Sequence -->
<g id="node1" class="node">
<title>Sequence</title>
<polygon fill="cyan" stroke="black" points="474.04,-370.54 474.04,-385.46 455.6,-396 429.5,-396 411.06,-385.46 411.06,-370.54 429.5,-360 455.6,-360 474.04,-370.54"/>
<text text-anchor="middle" x="442.55" y="-375.8" font-family="Times,serif" font-size="9.00">Sequence</text>
</g>
<!-- Fallback -->
<g id="node2" class="node">
<title>Fallback</title>
<polygon fill="cyan" stroke="black" points="429.79,-298.54 429.79,-313.46 412.66,-324 388.44,-324 371.31,-313.46 371.31,-298.54 388.44,-288 412.66,-288 429.79,-298.54"/>
<text text-anchor="middle" x="400.55" y="-303.8" font-family="Times,serif" font-size="9.00">Fallback</text>
</g>
<!-- Sequence&#45;&gt;Fallback -->
<g id="edge1" class="edge">
<title>Sequence&#45;&gt;Fallback</title>
<path fill="none" stroke="black" d="M432.17,-359.7C427.29,-351.56 421.36,-341.69 415.97,-332.7"/>
<polygon fill="black" stroke="black" points="418.96,-330.88 410.81,-324.1 412.96,-334.48 418.96,-330.88"/>
</g>
<!-- Fallback*** -->
<g id="node21" class="node">
<title>Fallback***</title>
<polygon fill="cyan" stroke="black" points="576.04,-298.54 576.04,-313.46 554.08,-324 523.02,-324 501.06,-313.46 501.06,-298.54 523.02,-288 554.08,-288 576.04,-298.54"/>
<text text-anchor="middle" x="538.55" y="-303.8" font-family="Times,serif" font-size="9.00">Fallback***</text>
</g>
<!-- Sequence&#45;&gt;Fallback*** -->
<g id="edge20" class="edge">
<title>Sequence&#45;&gt;Fallback***</title>
<path fill="none" stroke="black" d="M461.52,-363.17C475.35,-353.08 494.33,-339.24 509.99,-327.82"/>
<polygon fill="black" stroke="black" points="512.28,-330.49 518.3,-321.77 508.15,-324.83 512.28,-330.49"/>
</g>
<!-- picked 1? -->
<g id="node3" class="node">
<title>picked 1?</title>
<ellipse fill="gray" stroke="black" cx="242.55" cy="-234" rx="28.74" ry="18"/>
<text text-anchor="middle" x="242.55" y="-231.8" font-family="Times,serif" font-size="9.00">picked 1?</text>
</g>
<!-- Fallback&#45;&gt;picked 1? -->
<g id="edge2" class="edge">
<title>Fallback&#45;&gt;picked 1?</title>
<path fill="none" stroke="black" d="M377.08,-294.67C352.88,-284.02 314.06,-266.89 280.55,-252 278.72,-251.19 276.84,-250.35 274.94,-249.5"/>
<polygon fill="black" stroke="black" points="276.01,-246.15 265.45,-245.27 273.15,-252.54 276.01,-246.15"/>
</g>
<!-- 0 at pos (0.0, 0.0, 0.0)? -->
<g id="node4" class="node">
<title>0 at pos (0.0, 0.0, 0.0)?</title>
<ellipse fill="gray" stroke="black" cx="346.55" cy="-234" rx="57.32" ry="18"/>
<text text-anchor="middle" x="346.55" y="-231.8" font-family="Times,serif" font-size="9.00">0 at pos (0.0, 0.0, 0.0)?</text>
</g>
<!-- Fallback&#45;&gt;0 at pos (0.0, 0.0, 0.0)? -->
<g id="edge3" class="edge">
<title>Fallback&#45;&gt;0 at pos (0.0, 0.0, 0.0)?</title>
<path fill="none" stroke="black" d="M387.75,-288.41C381.19,-279.91 373.07,-269.37 365.77,-259.91"/>
<polygon fill="black" stroke="black" points="368.51,-257.74 359.63,-251.96 362.97,-262.01 368.51,-257.74"/>
</g>
<!-- Sequence* -->
<g id="node5" class="node">
<title>Sequence*</title>
<polygon fill="cyan" stroke="black" points="490.79,-226.54 490.79,-241.46 470.73,-252 442.37,-252 422.31,-241.46 422.31,-226.54 442.37,-216 470.73,-216 490.79,-226.54"/>
<text text-anchor="middle" x="456.55" y="-231.8" font-family="Times,serif" font-size="9.00">Sequence*</text>
</g>
<!-- Fallback&#45;&gt;Sequence* -->
<g id="edge4" class="edge">
<title>Fallback&#45;&gt;Sequence*</title>
<path fill="none" stroke="black" d="M413.82,-288.41C420.53,-280.03 428.8,-269.68 436.28,-260.33"/>
<polygon fill="black" stroke="black" points="439.08,-262.44 442.59,-252.45 433.61,-258.07 439.08,-262.44"/>
</g>
<!-- Fallback* -->
<g id="node6" class="node">
<title>Fallback*</title>
<polygon fill="cyan" stroke="black" points="221.29,-154.54 221.29,-169.46 202.7,-180 176.4,-180 157.81,-169.46 157.81,-154.54 176.4,-144 202.7,-144 221.29,-154.54"/>
<text text-anchor="middle" x="189.55" y="-159.8" font-family="Times,serif" font-size="9.00">Fallback*</text>
</g>
<!-- Sequence*&#45;&gt;Fallback* -->
<g id="edge5" class="edge">
<title>Sequence*&#45;&gt;Fallback*</title>
<path fill="none" stroke="black" d="M430.23,-222.16C424.46,-219.98 418.34,-217.8 412.55,-216 350.32,-196.68 276.46,-180.39 231.31,-171.16"/>
<polygon fill="black" stroke="black" points="231.8,-167.69 221.3,-169.13 230.41,-174.55 231.8,-167.69"/>
</g>
<!-- Fallback** -->
<g id="node11" class="node">
<title>Fallback**</title>
<polygon fill="cyan" stroke="black" points="411.54,-154.54 411.54,-169.46 391.04,-180 362.06,-180 341.56,-169.46 341.56,-154.54 362.06,-144 391.04,-144 411.54,-154.54"/>
<text text-anchor="middle" x="376.55" y="-159.8" font-family="Times,serif" font-size="9.00">Fallback**</text>
</g>
<!-- Sequence*&#45;&gt;Fallback** -->
<g id="edge10" class="edge">
<title>Sequence*&#45;&gt;Fallback**</title>
<path fill="none" stroke="black" d="M438.8,-217.46C427.92,-207.95 413.83,-195.62 401.8,-185.1"/>
<polygon fill="black" stroke="black" points="404.09,-182.44 394.25,-178.49 399.48,-187.71 404.09,-182.44"/>
</g>
<!-- pick 0! -->
<g id="node19" class="node">
<title>pick 0!</title>
<ellipse fill="gray" stroke="black" cx="456.55" cy="-162" rx="27" ry="18"/>
<text text-anchor="middle" x="456.55" y="-159.8" font-family="Times,serif" font-size="9.00">pick 0!</text>
</g>
<!-- Sequence*&#45;&gt;pick 0! -->
<g id="edge18" class="edge">
<title>Sequence*&#45;&gt;pick 0!</title>
<path fill="none" stroke="black" d="M456.55,-215.7C456.55,-207.98 456.55,-198.71 456.55,-190.11"/>
<polygon fill="black" stroke="black" points="460.05,-190.1 456.55,-180.1 453.05,-190.1 460.05,-190.1"/>
</g>
<!-- place at (0.0, 0.0, 0.0)! -->
<g id="node20" class="node">
<title>place at (0.0, 0.0, 0.0)!</title>
<ellipse fill="gray" stroke="black" cx="557.55" cy="-162" rx="56.01" ry="18"/>
<text text-anchor="middle" x="557.55" y="-159.8" font-family="Times,serif" font-size="9.00">place at (0.0, 0.0, 0.0)!</text>
</g>
<!-- Sequence*&#45;&gt;place at (0.0, 0.0, 0.0)! -->
<g id="edge19" class="edge">
<title>Sequence*&#45;&gt;place at (0.0, 0.0, 0.0)!</title>
<path fill="none" stroke="black" d="M476.99,-218.83C491.19,-208.99 510.38,-195.69 526.47,-184.54"/>
<polygon fill="black" stroke="black" points="528.81,-187.18 535.03,-178.61 524.82,-181.43 528.81,-187.18"/>
</g>
<!-- 3 at pos (0.016, 0.032, 0.0)? -->
<g id="node7" class="node">
<title>3 at pos (0.016, 0.032, 0.0)?</title>
<ellipse fill="gray" stroke="black" cx="67.55" cy="-90" rx="67.6" ry="18"/>
<text text-anchor="middle" x="67.55" y="-87.8" font-family="Times,serif" font-size="9.00">3 at pos (0.016, 0.032, 0.0)?</text>
</g>
<!-- Fallback*&#45;&gt;3 at pos (0.016, 0.032, 0.0)? -->
<g id="edge6" class="edge">
<title>Fallback*&#45;&gt;3 at pos (0.016, 0.032, 0.0)?</title>
<path fill="none" stroke="black" d="M168.02,-148.65C150.26,-138.46 124.69,-123.78 103.78,-111.79"/>
<polygon fill="black" stroke="black" points="105.27,-108.6 94.85,-106.66 101.78,-114.68 105.27,-108.6"/>
</g>
<!-- Sequence** -->
<g id="node8" class="node">
<title>Sequence**</title>
<polygon fill="cyan" stroke="black" points="226.29,-82.54 226.29,-97.46 204.77,-108 174.33,-108 152.81,-97.46 152.81,-82.54 174.33,-72 204.77,-72 226.29,-82.54"/>
<text text-anchor="middle" x="189.55" y="-87.8" font-family="Times,serif" font-size="9.00">Sequence**</text>
</g>
<!-- Fallback*&#45;&gt;Sequence** -->
<g id="edge7" class="edge">
<title>Fallback*&#45;&gt;Sequence**</title>
<path fill="none" stroke="black" d="M189.55,-143.7C189.55,-135.98 189.55,-126.71 189.55,-118.11"/>
<polygon fill="black" stroke="black" points="193.05,-118.1 189.55,-108.1 186.05,-118.1 193.05,-118.1"/>
</g>
<!-- pick 3! -->
<g id="node9" class="node">
<title>pick 3!</title>
<ellipse fill="gray" stroke="black" cx="94.55" cy="-18" rx="27" ry="18"/>
<text text-anchor="middle" x="94.55" y="-15.8" font-family="Times,serif" font-size="9.00">pick 3!</text>
</g>
<!-- Sequence**&#45;&gt;pick 3! -->
<g id="edge8" class="edge">
<title>Sequence**&#45;&gt;pick 3!</title>
<path fill="none" stroke="black" d="M169.4,-74.15C155.06,-63.59 135.68,-49.31 120.23,-37.92"/>
<polygon fill="black" stroke="black" points="122.24,-35.06 112.11,-31.94 118.09,-40.69 122.24,-35.06"/>
</g>
<!-- place at (0.016, 0.032, 0.0)! -->
<g id="node10" class="node">
<title>place at (0.016, 0.032, 0.0)!</title>
<ellipse fill="gray" stroke="black" cx="205.55" cy="-18" rx="66.29" ry="18"/>
<text text-anchor="middle" x="205.55" y="-15.8" font-family="Times,serif" font-size="9.00">place at (0.016, 0.032, 0.0)!</text>
</g>
<!-- Sequence**&#45;&gt;place at (0.016, 0.032, 0.0)! -->
<g id="edge9" class="edge">
<title>Sequence**&#45;&gt;place at (0.016, 0.032, 0.0)!</title>
<path fill="none" stroke="black" d="M193.51,-71.7C195.27,-63.98 197.39,-54.71 199.35,-46.11"/>
<polygon fill="black" stroke="black" points="202.82,-46.63 201.64,-36.1 196,-45.07 202.82,-46.63"/>
</g>
<!-- 2 at pos (0.016, &#45;0.032, 0.0)? -->
<g id="node12" class="node">
<title>2 at pos (0.016, &#45;0.032, 0.0)?</title>
<ellipse fill="gray" stroke="black" cx="313.55" cy="-90" rx="69.06" ry="18"/>
<text text-anchor="middle" x="313.55" y="-87.8" font-family="Times,serif" font-size="9.00">2 at pos (0.016, &#45;0.032, 0.0)?</text>
</g>
<!-- Fallback**&#45;&gt;2 at pos (0.016, &#45;0.032, 0.0)? -->
<g id="edge11" class="edge">
<title>Fallback**&#45;&gt;2 at pos (0.016, &#45;0.032, 0.0)?</title>
<path fill="none" stroke="black" d="M361.3,-144.05C353.56,-135.46 344.02,-124.86 335.51,-115.4"/>
<polygon fill="black" stroke="black" points="337.95,-112.88 328.66,-107.79 332.75,-117.56 337.95,-112.88"/>
</g>
<!-- Sequence*** -->
<g id="node13" class="node">
<title>Sequence***</title>
<polygon fill="cyan" stroke="black" points="480.54,-82.54 480.54,-97.46 457.11,-108 423.99,-108 400.56,-97.46 400.56,-82.54 423.99,-72 457.11,-72 480.54,-82.54"/>
<text text-anchor="middle" x="440.55" y="-87.8" font-family="Times,serif" font-size="9.00">Sequence***</text>
</g>
<!-- Fallback**&#45;&gt;Sequence*** -->
<g id="edge12" class="edge">
<title>Fallback**&#45;&gt;Sequence***</title>
<path fill="none" stroke="black" d="M392.04,-144.05C399.79,-135.58 409.31,-125.17 417.86,-115.82"/>
<polygon fill="black" stroke="black" points="420.59,-118.02 424.76,-108.28 415.42,-113.29 420.59,-118.02"/>
</g>
<!-- Sequence**** -->
<g id="node16" class="node">
<title>Sequence****</title>
<polygon fill="cyan" stroke="black" points="583.04,-82.54 583.04,-97.46 558.15,-108 522.95,-108 498.06,-97.46 498.06,-82.54 522.95,-72 558.15,-72 583.04,-82.54"/>
<text text-anchor="middle" x="540.55" y="-87.8" font-family="Times,serif" font-size="9.00">Sequence****</text>
</g>
<!-- Fallback**&#45;&gt;Sequence**** -->
<g id="edge15" class="edge">
<title>Fallback**&#45;&gt;Sequence****</title>
<path fill="none" stroke="black" d="M402.54,-149.91C429.35,-138.46 471.47,-120.49 502.13,-107.4"/>
<polygon fill="black" stroke="black" points="503.82,-110.48 511.65,-103.34 501.08,-104.04 503.82,-110.48"/>
</g>
<!-- apply force 3! -->
<g id="node14" class="node">
<title>apply force 3!</title>
<ellipse fill="gray" stroke="black" cx="364.55" cy="-18" rx="38.21" ry="18"/>
<text text-anchor="middle" x="364.55" y="-15.8" font-family="Times,serif" font-size="9.00">apply force 3!</text>
</g>
<!-- Sequence***&#45;&gt;apply force 3! -->
<g id="edge13" class="edge">
<title>Sequence***&#45;&gt;apply force 3!</title>
<path fill="none" stroke="black" d="M422.54,-72.41C412.44,-63.11 399.7,-51.38 388.74,-41.28"/>
<polygon fill="black" stroke="black" points="390.86,-38.47 381.13,-34.27 386.12,-43.62 390.86,-38.47"/>
</g>
<!-- pick 3!* -->
<g id="node15" class="node">
<title>pick 3!*</title>
<ellipse fill="gray" stroke="black" cx="447.55" cy="-18" rx="27" ry="18"/>
<text text-anchor="middle" x="447.55" y="-15.8" font-family="Times,serif" font-size="9.00">pick 3!*</text>
</g>
<!-- Sequence***&#45;&gt;pick 3!* -->
<g id="edge14" class="edge">
<title>Sequence***&#45;&gt;pick 3!*</title>
<path fill="none" stroke="black" d="M442.28,-71.7C443.05,-63.98 443.98,-54.71 444.84,-46.11"/>
<polygon fill="black" stroke="black" points="448.33,-46.4 445.84,-36.1 441.36,-45.71 448.33,-46.4"/>
</g>
<!-- pick 2! -->
<g id="node17" class="node">
<title>pick 2!</title>
<ellipse fill="gray" stroke="black" cx="533.55" cy="-18" rx="27" ry="18"/>
<text text-anchor="middle" x="533.55" y="-15.8" font-family="Times,serif" font-size="9.00">pick 2!</text>
</g>
<!-- Sequence****&#45;&gt;pick 2! -->
<g id="edge16" class="edge">
<title>Sequence****&#45;&gt;pick 2!</title>
<path fill="none" stroke="black" d="M538.82,-71.7C538.05,-63.98 537.12,-54.71 536.26,-46.11"/>
<polygon fill="black" stroke="black" points="539.74,-45.71 535.26,-36.1 532.77,-46.4 539.74,-45.71"/>
</g>
<!-- place at (0.016, &#45;0.032, 0.0)! -->
<g id="node18" class="node">
<title>place at (0.016, &#45;0.032, 0.0)!</title>
<ellipse fill="gray" stroke="black" cx="646.55" cy="-18" rx="68.25" ry="18"/>
<text text-anchor="middle" x="646.55" y="-15.8" font-family="Times,serif" font-size="9.00">place at (0.016, &#45;0.032, 0.0)!</text>
</g>
<!-- Sequence****&#45;&gt;place at (0.016, &#45;0.032, 0.0)! -->
<g id="edge17" class="edge">
<title>Sequence****&#45;&gt;place at (0.016, &#45;0.032, 0.0)!</title>
<path fill="none" stroke="black" d="M563.29,-73.98C577.97,-64.29 597.31,-51.52 613.65,-40.73"/>
<polygon fill="black" stroke="black" points="615.96,-43.4 622.37,-34.97 612.1,-37.56 615.96,-43.4"/>
</g>
<!-- 1 on 0? -->
<g id="node22" class="node">
<title>1 on 0?</title>
<ellipse fill="gray" stroke="black" cx="538.55" cy="-234" rx="27" ry="18"/>
<text text-anchor="middle" x="538.55" y="-231.8" font-family="Times,serif" font-size="9.00">1 on 0?</text>
</g>
<!-- Fallback***&#45;&gt;1 on 0? -->
<g id="edge21" class="edge">
<title>Fallback***&#45;&gt;1 on 0?</title>
<path fill="none" stroke="black" d="M538.55,-287.7C538.55,-279.98 538.55,-270.71 538.55,-262.11"/>
<polygon fill="black" stroke="black" points="542.05,-262.1 538.55,-252.1 535.05,-262.1 542.05,-262.1"/>
</g>
<!-- Sequence***** -->
<g id="node23" class="node">
<title>Sequence*****</title>
<polygon fill="cyan" stroke="black" points="704.29,-226.54 704.29,-241.46 677.5,-252 639.6,-252 612.81,-241.46 612.81,-226.54 639.6,-216 677.5,-216 704.29,-226.54"/>
<text text-anchor="middle" x="658.55" y="-231.8" font-family="Times,serif" font-size="9.00">Sequence*****</text>
</g>
<!-- Fallback***&#45;&gt;Sequence***** -->
<g id="edge22" class="edge">
<title>Fallback***&#45;&gt;Sequence*****</title>
<path fill="none" stroke="black" d="M561.69,-291.5C579.52,-281.1 604.46,-266.55 624.56,-254.83"/>
<polygon fill="black" stroke="black" points="626.54,-257.73 633.41,-249.66 623.01,-251.68 626.54,-257.73"/>
</g>
<!-- pick 1! -->
<g id="node24" class="node">
<title>pick 1!</title>
<ellipse fill="gray" stroke="black" cx="658.55" cy="-162" rx="27" ry="18"/>
<text text-anchor="middle" x="658.55" y="-159.8" font-family="Times,serif" font-size="9.00">pick 1!</text>
</g>
<!-- Sequence*****&#45;&gt;pick 1! -->
<g id="edge23" class="edge">
<title>Sequence*****&#45;&gt;pick 1!</title>
<path fill="none" stroke="black" d="M658.55,-215.7C658.55,-207.98 658.55,-198.71 658.55,-190.11"/>
<polygon fill="black" stroke="black" points="662.05,-190.1 658.55,-180.1 655.05,-190.1 662.05,-190.1"/>
</g>
<!-- place on 0! -->
<g id="node25" class="node">
<title>place on 0!</title>
<ellipse fill="gray" stroke="black" cx="735.55" cy="-162" rx="32.16" ry="18"/>
<text text-anchor="middle" x="735.55" y="-159.8" font-family="Times,serif" font-size="9.00">place on 0!</text>
</g>
<!-- Sequence*****&#45;&gt;place on 0! -->
<g id="edge24" class="edge">
<title>Sequence*****&#45;&gt;place on 0!</title>
<path fill="none" stroke="black" d="M677.58,-215.7C687.9,-206.31 700.76,-194.63 711.74,-184.65"/>
<polygon fill="black" stroke="black" points="714.29,-187.05 719.34,-177.74 709.58,-181.88 714.29,-187.05"/>
</g>
</g>
</svg>
