<?xml version="1.0" encoding="UTF-8" standalone="no"?>
<!DOCTYPE svg PUBLIC "-//W3C//DTD SVG 1.1//EN"
 "http://www.w3.org/Graphics/SVG/1.1/DTD/svg11.dtd">
<!-- Generated by graphviz version 2.43.0 (0)
 -->
<!-- Title: pastafarianism Pages: 1 -->
<svg width="1036pt" height="692pt"
 viewBox="0.00 0.00 1035.92 692.00" xmlns="http://www.w3.org/2000/svg" xmlns:xlink="http://www.w3.org/1999/xlink">
<g id="graph0" class="graph" transform="scale(1 1) rotate(0) translate(4 688)">
<title>pastafarianism</title>
<polygon fill="white" stroke="transparent" points="-4,4 -4,-688 1031.92,-688 1031.92,4 -4,4"/>
<!-- Sequence -->
<g id="node1" class="node">
<title>Sequence</title>
<polygon fill="cyan" stroke="black" points="737.78,-658.54 737.78,-673.46 719.33,-684 693.24,-684 674.79,-673.46 674.79,-658.54 693.24,-648 719.33,-648 737.78,-658.54"/>
<text text-anchor="middle" x="706.28" y="-663.8" font-family="Times,serif" font-size="9.00">Sequence</text>
</g>
<!-- Fallback -->
<g id="node2" class="node">
<title>Fallback</title>
<polygon fill="cyan" stroke="black" points="220.53,-586.54 220.53,-601.46 203.39,-612 179.17,-612 162.04,-601.46 162.04,-586.54 179.17,-576 203.39,-576 220.53,-586.54"/>
<text text-anchor="middle" x="191.28" y="-591.8" font-family="Times,serif" font-size="9.00">Fallback</text>
</g>
<!-- Sequence&#45;&gt;Fallback -->
<g id="edge1" class="edge">
<title>Sequence&#45;&gt;Fallback</title>
<path fill="none" stroke="black" d="M674.84,-660.73C585.4,-648.57 329.61,-613.8 230.86,-600.38"/>
<polygon fill="black" stroke="black" points="231.08,-596.88 220.7,-599 230.14,-603.81 231.08,-596.88"/>
</g>
<!-- Fallback* -->
<g id="node7" class="node">
<title>Fallback*</title>
<polygon fill="cyan" stroke="black" points="639.02,-586.54 639.02,-601.46 620.43,-612 594.13,-612 575.54,-601.46 575.54,-586.54 594.13,-576 620.43,-576 639.02,-586.54"/>
<text text-anchor="middle" x="607.28" y="-591.8" font-family="Times,serif" font-size="9.00">Fallback*</text>
</g>
<!-- Sequence&#45;&gt;Fallback* -->
<g id="edge6" class="edge">
<title>Sequence&#45;&gt;Fallback*</title>
<path fill="none" stroke="black" d="M686.72,-651.17C671.94,-640.72 651.46,-626.24 634.99,-614.59"/>
<polygon fill="black" stroke="black" points="636.99,-611.72 626.8,-608.8 632.95,-617.43 636.99,-611.72"/>
</g>
<!-- Fallback******* -->
<g id="node38" class="node">
<title>Fallback*******</title>
<polygon fill="cyan" stroke="black" points="755.27,-586.54 755.27,-601.46 726.57,-612 685.99,-612 657.29,-601.46 657.29,-586.54 685.99,-576 726.57,-576 755.27,-586.54"/>
<text text-anchor="middle" x="706.28" y="-591.8" font-family="Times,serif" font-size="9.00">Fallback*******</text>
</g>
<!-- Sequence&#45;&gt;Fallback******* -->
<g id="edge37" class="edge">
<title>Sequence&#45;&gt;Fallback*******</title>
<path fill="none" stroke="black" d="M706.28,-647.7C706.28,-639.98 706.28,-630.71 706.28,-622.11"/>
<polygon fill="black" stroke="black" points="709.78,-622.1 706.28,-612.1 702.78,-622.1 709.78,-622.1"/>
</g>
<!-- 0 on 2? -->
<g id="node43" class="node">
<title>0 on 2?</title>
<ellipse fill="gray" stroke="black" cx="800.28" cy="-594" rx="27" ry="18"/>
<text text-anchor="middle" x="800.28" y="-591.8" font-family="Times,serif" font-size="9.00">0 on 2?</text>
</g>
<!-- Sequence&#45;&gt;0 on 2? -->
<g id="edge42" class="edge">
<title>Sequence&#45;&gt;0 on 2?</title>
<path fill="none" stroke="black" d="M725.3,-650.83C739.52,-640.25 759.1,-625.67 774.68,-614.06"/>
<polygon fill="black" stroke="black" points="776.94,-616.74 782.87,-607.96 772.76,-611.13 776.94,-616.74"/>
</g>
<!-- apply force 1! -->
<g id="node44" class="node">
<title>apply force 1!</title>
<ellipse fill="gray" stroke="black" cx="883.28" cy="-594" rx="38.21" ry="18"/>
<text text-anchor="middle" x="883.28" y="-591.8" font-family="Times,serif" font-size="9.00">apply force 1!</text>
</g>
<!-- Sequence&#45;&gt;apply force 1! -->
<g id="edge43" class="edge">
<title>Sequence&#45;&gt;apply force 1!</title>
<path fill="none" stroke="black" d="M731.64,-654.97C761.4,-643.2 811.02,-623.58 845.36,-610"/>
<polygon fill="black" stroke="black" points="847.03,-613.1 855.04,-606.17 844.46,-606.59 847.03,-613.1"/>
</g>
<!-- 2 at pos (0.016, &#45;0.032, 0.0)? -->
<g id="node3" class="node">
<title>2 at pos (0.016, &#45;0.032, 0.0)?</title>
<ellipse fill="gray" stroke="black" cx="69.28" cy="-522" rx="69.06" ry="18"/>
<text text-anchor="middle" x="69.28" y="-519.8" font-family="Times,serif" font-size="9.00">2 at pos (0.016, &#45;0.032, 0.0)?</text>
</g>
<!-- Fallback&#45;&gt;2 at pos (0.016, &#45;0.032, 0.0)? -->
<g id="edge2" class="edge">
<title>Fallback&#45;&gt;2 at pos (0.016, &#45;0.032, 0.0)?</title>
<path fill="none" stroke="black" d="M170.59,-581.13C152.74,-570.89 126.57,-555.87 105.29,-543.66"/>
<polygon fill="black" stroke="black" points="106.93,-540.57 96.51,-538.62 103.45,-546.64 106.93,-540.57"/>
</g>
<!-- Sequence* -->
<g id="node4" class="node">
<title>Sequence*</title>
<polygon fill="cyan" stroke="black" points="225.52,-514.54 225.52,-529.46 205.47,-540 177.1,-540 157.04,-529.46 157.04,-514.54 177.1,-504 205.47,-504 225.52,-514.54"/>
<text text-anchor="middle" x="191.28" y="-519.8" font-family="Times,serif" font-size="9.00">Sequence*</text>
</g>
<!-- Fallback&#45;&gt;Sequence* -->
<g id="edge3" class="edge">
<title>Fallback&#45;&gt;Sequence*</title>
<path fill="none" stroke="black" d="M191.28,-575.7C191.28,-567.98 191.28,-558.71 191.28,-550.11"/>
<polygon fill="black" stroke="black" points="194.78,-550.1 191.28,-540.1 187.78,-550.1 194.78,-550.1"/>
</g>
<!-- pick 2! -->
<g id="node5" class="node">
<title>pick 2!</title>
<ellipse fill="gray" stroke="black" cx="78.28" cy="-450" rx="27" ry="18"/>
<text text-anchor="middle" x="78.28" y="-447.8" font-family="Times,serif" font-size="9.00">pick 2!</text>
</g>
<!-- Sequence*&#45;&gt;pick 2! -->
<g id="edge4" class="edge">
<title>Sequence*&#45;&gt;pick 2!</title>
<path fill="none" stroke="black" d="M169.76,-507.67C151.66,-496.45 125.66,-480.35 106,-468.17"/>
<polygon fill="black" stroke="black" points="107.81,-465.17 97.46,-462.88 104.12,-471.12 107.81,-465.17"/>
</g>
<!-- place at (0.016, &#45;0.032, 0.0)! -->
<g id="node6" class="node">
<title>place at (0.016, &#45;0.032, 0.0)!</title>
<ellipse fill="gray" stroke="black" cx="191.28" cy="-450" rx="68.25" ry="18"/>
<text text-anchor="middle" x="191.28" y="-447.8" font-family="Times,serif" font-size="9.00">place at (0.016, &#45;0.032, 0.0)!</text>
</g>
<!-- Sequence*&#45;&gt;place at (0.016, &#45;0.032, 0.0)! -->
<g id="edge5" class="edge">
<title>Sequence*&#45;&gt;place at (0.016, &#45;0.032, 0.0)!</title>
<path fill="none" stroke="black" d="M191.28,-503.7C191.28,-495.98 191.28,-486.71 191.28,-478.11"/>
<polygon fill="black" stroke="black" points="194.78,-478.1 191.28,-468.1 187.78,-478.1 194.78,-478.1"/>
</g>
<!-- 0 at pos (0.0, 0.0, 0.0)? -->
<g id="node8" class="node">
<title>0 at pos (0.0, 0.0, 0.0)?</title>
<ellipse fill="gray" stroke="black" cx="504.28" cy="-522" rx="57.32" ry="18"/>
<text text-anchor="middle" x="504.28" y="-519.8" font-family="Times,serif" font-size="9.00">0 at pos (0.0, 0.0, 0.0)?</text>
</g>
<!-- Fallback*&#45;&gt;0 at pos (0.0, 0.0, 0.0)? -->
<g id="edge7" class="edge">
<title>Fallback*&#45;&gt;0 at pos (0.0, 0.0, 0.0)?</title>
<path fill="none" stroke="black" d="M587.42,-579.5C572.79,-569.56 552.59,-555.83 535.76,-544.39"/>
<polygon fill="black" stroke="black" points="537.56,-541.38 527.32,-538.65 533.62,-547.17 537.56,-541.38"/>
</g>
<!-- Sequence** -->
<g id="node9" class="node">
<title>Sequence**</title>
<polygon fill="cyan" stroke="black" points="653.02,-514.54 653.02,-529.46 631.5,-540 601.06,-540 579.54,-529.46 579.54,-514.54 601.06,-504 631.5,-504 653.02,-514.54"/>
<text text-anchor="middle" x="616.28" y="-519.8" font-family="Times,serif" font-size="9.00">Sequence**</text>
</g>
<!-- Fallback*&#45;&gt;Sequence** -->
<g id="edge8" class="edge">
<title>Fallback*&#45;&gt;Sequence**</title>
<path fill="none" stroke="black" d="M609.51,-575.7C610.5,-567.98 611.69,-558.71 612.8,-550.11"/>
<polygon fill="black" stroke="black" points="616.28,-550.47 614.08,-540.1 609.34,-549.58 616.28,-550.47"/>
</g>
<!-- Fallback** -->
<g id="node10" class="node">
<title>Fallback**</title>
<polygon fill="cyan" stroke="black" points="347.27,-442.54 347.27,-457.46 326.78,-468 297.79,-468 277.29,-457.46 277.29,-442.54 297.79,-432 326.78,-432 347.27,-442.54"/>
<text text-anchor="middle" x="312.28" y="-447.8" font-family="Times,serif" font-size="9.00">Fallback**</text>
</g>
<!-- Sequence**&#45;&gt;Fallback** -->
<g id="edge9" class="edge">
<title>Sequence**&#45;&gt;Fallback**</title>
<path fill="none" stroke="black" d="M588.29,-509.89C582.39,-507.77 576.18,-505.68 570.28,-504 496.71,-482.98 409.08,-466.79 357.21,-458.1"/>
<polygon fill="black" stroke="black" points="357.76,-454.65 347.32,-456.47 356.62,-461.55 357.76,-454.65"/>
</g>
<!-- Fallback***** -->
<g id="node25" class="node">
<title>Fallback*****</title>
<polygon fill="cyan" stroke="black" points="535.52,-442.54 535.52,-457.46 510.19,-468 474.37,-468 449.04,-457.46 449.04,-442.54 474.37,-432 510.19,-432 535.52,-442.54"/>
<text text-anchor="middle" x="492.28" y="-447.8" font-family="Times,serif" font-size="9.00">Fallback*****</text>
</g>
<!-- Sequence**&#45;&gt;Fallback***** -->
<g id="edge24" class="edge">
<title>Sequence**&#45;&gt;Fallback*****</title>
<path fill="none" stroke="black" d="M592.96,-507.83C574.26,-497.28 547.74,-482.31 526.62,-470.38"/>
<polygon fill="black" stroke="black" points="528.06,-467.18 517.63,-465.31 524.62,-473.28 528.06,-467.18"/>
</g>
<!-- Fallback****** -->
<g id="node30" class="node">
<title>Fallback******</title>
<polygon fill="cyan" stroke="black" points="662.77,-442.54 662.77,-457.46 635.54,-468 597.03,-468 569.79,-457.46 569.79,-442.54 597.03,-432 635.54,-432 662.77,-442.54"/>
<text text-anchor="middle" x="616.28" y="-447.8" font-family="Times,serif" font-size="9.00">Fallback******</text>
</g>
<!-- Sequence**&#45;&gt;Fallback****** -->
<g id="edge29" class="edge">
<title>Sequence**&#45;&gt;Fallback******</title>
<path fill="none" stroke="black" d="M616.28,-503.7C616.28,-495.98 616.28,-486.71 616.28,-478.11"/>
<polygon fill="black" stroke="black" points="619.78,-478.1 616.28,-468.1 612.78,-478.1 619.78,-478.1"/>
</g>
<!-- pick 0!* -->
<g id="node36" class="node">
<title>pick 0!*</title>
<ellipse fill="gray" stroke="black" cx="707.28" cy="-450" rx="27" ry="18"/>
<text text-anchor="middle" x="707.28" y="-447.8" font-family="Times,serif" font-size="9.00">pick 0!*</text>
</g>
<!-- Sequence**&#45;&gt;pick 0!* -->
<g id="edge35" class="edge">
<title>Sequence**&#45;&gt;pick 0!*</title>
<path fill="none" stroke="black" d="M636.03,-505.81C649.57,-495.39 667.66,-481.48 682.22,-470.28"/>
<polygon fill="black" stroke="black" points="684.54,-472.91 690.33,-464.04 680.27,-467.37 684.54,-472.91"/>
</g>
<!-- place at (0.0, 0.0, 0.0)!* -->
<g id="node37" class="node">
<title>place at (0.0, 0.0, 0.0)!*</title>
<ellipse fill="gray" stroke="black" cx="810.28" cy="-450" rx="58.13" ry="18"/>
<text text-anchor="middle" x="810.28" y="-447.8" font-family="Times,serif" font-size="9.00">place at (0.0, 0.0, 0.0)!*</text>
</g>
<!-- Sequence**&#45;&gt;place at (0.0, 0.0, 0.0)!* -->
<g id="edge36" class="edge">
<title>Sequence**&#45;&gt;place at (0.0, 0.0, 0.0)!*</title>
<path fill="none" stroke="black" d="M645.33,-510.52C676.76,-499.18 727.34,-480.93 764.21,-467.62"/>
<polygon fill="black" stroke="black" points="765.53,-470.87 773.75,-464.18 763.15,-464.29 765.53,-470.87"/>
</g>
<!-- 2 at pos (0.016, &#45;0.032, 0.0)?* -->
<g id="node11" class="node">
<title>2 at pos (0.016, &#45;0.032, 0.0)?*</title>
<ellipse fill="gray" stroke="black" cx="97.28" cy="-378" rx="72.34" ry="18"/>
<text text-anchor="middle" x="97.28" y="-375.8" font-family="Times,serif" font-size="9.00">2 at pos (0.016, &#45;0.032, 0.0)?*</text>
</g>
<!-- Fallback**&#45;&gt;2 at pos (0.016, &#45;0.032, 0.0)?* -->
<g id="edge10" class="edge">
<title>Fallback**&#45;&gt;2 at pos (0.016, &#45;0.032, 0.0)?*</title>
<path fill="none" stroke="black" d="M285.4,-438.28C279.77,-436.13 273.85,-433.94 268.28,-432 229.81,-418.62 185.91,-405.05 152.22,-394.99"/>
<polygon fill="black" stroke="black" points="153.14,-391.61 142.56,-392.12 151.15,-398.32 153.14,-391.61"/>
</g>
<!-- Sequence*** -->
<g id="node12" class="node">
<title>Sequence***</title>
<polygon fill="cyan" stroke="black" points="267.27,-370.54 267.27,-385.46 243.85,-396 210.72,-396 187.29,-385.46 187.29,-370.54 210.72,-360 243.85,-360 267.27,-370.54"/>
<text text-anchor="middle" x="227.28" y="-375.8" font-family="Times,serif" font-size="9.00">Sequence***</text>
</g>
<!-- Fallback**&#45;&gt;Sequence*** -->
<g id="edge11" class="edge">
<title>Fallback**&#45;&gt;Sequence***</title>
<path fill="none" stroke="black" d="M293.84,-433.81C282.38,-424.38 267.45,-412.08 254.63,-401.53"/>
<polygon fill="black" stroke="black" points="256.52,-398.54 246.57,-394.89 252.07,-403.95 256.52,-398.54"/>
</g>
<!-- pick 2!* -->
<g id="node13" class="node">
<title>pick 2!*</title>
<ellipse fill="gray" stroke="black" cx="112.28" cy="-306" rx="27" ry="18"/>
<text text-anchor="middle" x="112.28" y="-303.8" font-family="Times,serif" font-size="9.00">pick 2!*</text>
</g>
<!-- Sequence***&#45;&gt;pick 2!* -->
<g id="edge12" class="edge">
<title>Sequence***&#45;&gt;pick 2!*</title>
<path fill="none" stroke="black" d="M204.01,-362.83C185.65,-351.66 159.98,-336.03 140.46,-324.15"/>
<polygon fill="black" stroke="black" points="142.06,-321.03 131.7,-318.82 138.42,-327.01 142.06,-321.03"/>
</g>
<!-- place at (0.016, &#45;0.032, 0.0)!* -->
<g id="node14" class="node">
<title>place at (0.016, &#45;0.032, 0.0)!*</title>
<ellipse fill="gray" stroke="black" cx="227.28" cy="-306" rx="70.37" ry="18"/>
<text text-anchor="middle" x="227.28" y="-303.8" font-family="Times,serif" font-size="9.00">place at (0.016, &#45;0.032, 0.0)!*</text>
</g>
<!-- Sequence***&#45;&gt;place at (0.016, &#45;0.032, 0.0)!* -->
<g id="edge13" class="edge">
<title>Sequence***&#45;&gt;place at (0.016, &#45;0.032, 0.0)!*</title>
<path fill="none" stroke="black" d="M227.28,-359.7C227.28,-351.98 227.28,-342.71 227.28,-334.11"/>
<polygon fill="black" stroke="black" points="230.78,-334.1 227.28,-324.1 223.78,-334.1 230.78,-334.1"/>
</g>
<!-- Fallback*** -->
<g id="node15" class="node">
<title>Fallback***</title>
<polygon fill="cyan" stroke="black" points="390.77,-298.54 390.77,-313.46 368.81,-324 337.75,-324 315.79,-313.46 315.79,-298.54 337.75,-288 368.81,-288 390.77,-298.54"/>
<text text-anchor="middle" x="353.28" y="-303.8" font-family="Times,serif" font-size="9.00">Fallback***</text>
</g>
<!-- Sequence***&#45;&gt;Fallback*** -->
<g id="edge14" class="edge">
<title>Sequence***&#45;&gt;Fallback***</title>
<path fill="none" stroke="black" d="M251.88,-363.34C271.55,-352.41 299.31,-336.98 320.81,-325.04"/>
<polygon fill="black" stroke="black" points="322.56,-328.07 329.6,-320.15 319.16,-321.95 322.56,-328.07"/>
</g>
<!-- 0 at pos (0.0, 0.0, 0.0)?* -->
<g id="node16" class="node">
<title>0 at pos (0.0, 0.0, 0.0)?*</title>
<ellipse fill="gray" stroke="black" cx="293.28" cy="-234" rx="60.09" ry="18"/>
<text text-anchor="middle" x="293.28" y="-231.8" font-family="Times,serif" font-size="9.00">0 at pos (0.0, 0.0, 0.0)?*</text>
</g>
<!-- Fallback***&#45;&gt;0 at pos (0.0, 0.0, 0.0)?* -->
<g id="edge15" class="edge">
<title>Fallback***&#45;&gt;0 at pos (0.0, 0.0, 0.0)?*</title>
<path fill="none" stroke="black" d="M338.45,-287.7C331.15,-279.18 322.22,-268.76 314.24,-259.45"/>
<polygon fill="black" stroke="black" points="316.7,-256.94 307.53,-251.62 311.38,-261.49 316.7,-256.94"/>
</g>
<!-- Sequence**** -->
<g id="node17" class="node">
<title>Sequence****</title>
<polygon fill="cyan" stroke="black" points="456.77,-226.54 456.77,-241.46 431.88,-252 396.68,-252 371.79,-241.46 371.79,-226.54 396.68,-216 431.88,-216 456.77,-226.54"/>
<text text-anchor="middle" x="414.28" y="-231.8" font-family="Times,serif" font-size="9.00">Sequence****</text>
</g>
<!-- Fallback***&#45;&gt;Sequence**** -->
<g id="edge16" class="edge">
<title>Fallback***&#45;&gt;Sequence****</title>
<path fill="none" stroke="black" d="M368.36,-287.7C375.67,-279.3 384.59,-269.07 392.62,-259.86"/>
<polygon fill="black" stroke="black" points="395.45,-261.94 399.38,-252.1 390.17,-257.34 395.45,-261.94"/>
</g>
<!-- Fallback**** -->
<g id="node18" class="node">
<title>Fallback****</title>
<polygon fill="cyan" stroke="black" points="369.02,-154.54 369.02,-169.46 345.16,-180 311.41,-180 287.54,-169.46 287.54,-154.54 311.41,-144 345.16,-144 369.02,-154.54"/>
<text text-anchor="middle" x="328.28" y="-159.8" font-family="Times,serif" font-size="9.00">Fallback****</text>
</g>
<!-- Sequence****&#45;&gt;Fallback**** -->
<g id="edge17" class="edge">
<title>Sequence****&#45;&gt;Fallback****</title>
<path fill="none" stroke="black" d="M394.34,-216.76C382.86,-207.42 368.27,-195.55 355.72,-185.33"/>
<polygon fill="black" stroke="black" points="357.79,-182.5 347.82,-178.91 353.37,-187.93 357.79,-182.5"/>
</g>
<!-- pick 0! -->
<g id="node23" class="node">
<title>pick 0!</title>
<ellipse fill="gray" stroke="black" cx="414.28" cy="-162" rx="27" ry="18"/>
<text text-anchor="middle" x="414.28" y="-159.8" font-family="Times,serif" font-size="9.00">pick 0!</text>
</g>
<!-- Sequence****&#45;&gt;pick 0! -->
<g id="edge22" class="edge">
<title>Sequence****&#45;&gt;pick 0!</title>
<path fill="none" stroke="black" d="M414.28,-215.7C414.28,-207.98 414.28,-198.71 414.28,-190.11"/>
<polygon fill="black" stroke="black" points="417.78,-190.1 414.28,-180.1 410.78,-190.1 417.78,-190.1"/>
</g>
<!-- place at (0.0, 0.0, 0.0)! -->
<g id="node24" class="node">
<title>place at (0.0, 0.0, 0.0)!</title>
<ellipse fill="gray" stroke="black" cx="515.28" cy="-162" rx="56.01" ry="18"/>
<text text-anchor="middle" x="515.28" y="-159.8" font-family="Times,serif" font-size="9.00">place at (0.0, 0.0, 0.0)!</text>
</g>
<!-- Sequence****&#45;&gt;place at (0.0, 0.0, 0.0)! -->
<g id="edge23" class="edge">
<title>Sequence****&#45;&gt;place at (0.0, 0.0, 0.0)!</title>
<path fill="none" stroke="black" d="M436.2,-217.81C450.3,-208.04 468.83,-195.2 484.41,-184.4"/>
<polygon fill="black" stroke="black" points="486.48,-187.22 492.71,-178.64 482.5,-181.46 486.48,-187.22"/>
</g>
<!-- 3 at pos (0.016, 0.032, 0.0)? -->
<g id="node19" class="node">
<title>3 at pos (0.016, 0.032, 0.0)?</title>
<ellipse fill="gray" stroke="black" cx="263.28" cy="-90" rx="67.6" ry="18"/>
<text text-anchor="middle" x="263.28" y="-87.8" font-family="Times,serif" font-size="9.00">3 at pos (0.016, 0.032, 0.0)?</text>
</g>
<!-- Fallback****&#45;&gt;3 at pos (0.016, 0.032, 0.0)? -->
<g id="edge18" class="edge">
<title>Fallback****&#45;&gt;3 at pos (0.016, 0.032, 0.0)?</title>
<path fill="none" stroke="black" d="M312.21,-143.7C304.23,-135.09 294.44,-124.55 285.72,-115.17"/>
<polygon fill="black" stroke="black" points="288.09,-112.57 278.72,-107.62 282.96,-117.33 288.09,-112.57"/>
</g>
<!-- Sequence***** -->
<g id="node20" class="node">
<title>Sequence*****</title>
<polygon fill="cyan" stroke="black" points="440.02,-82.54 440.02,-97.46 413.23,-108 375.34,-108 348.54,-97.46 348.54,-82.54 375.34,-72 413.23,-72 440.02,-82.54"/>
<text text-anchor="middle" x="394.28" y="-87.8" font-family="Times,serif" font-size="9.00">Sequence*****</text>
</g>
<!-- Fallback****&#45;&gt;Sequence***** -->
<g id="edge19" class="edge">
<title>Fallback****&#45;&gt;Sequence*****</title>
<path fill="none" stroke="black" d="M344.6,-143.7C352.59,-135.22 362.35,-124.86 371.1,-115.58"/>
<polygon fill="black" stroke="black" points="373.84,-117.78 378.16,-108.1 368.75,-112.98 373.84,-117.78"/>
</g>
<!-- pick 3! -->
<g id="node21" class="node">
<title>pick 3!</title>
<ellipse fill="gray" stroke="black" cx="338.28" cy="-18" rx="27" ry="18"/>
<text text-anchor="middle" x="338.28" y="-15.8" font-family="Times,serif" font-size="9.00">pick 3!</text>
</g>
<!-- Sequence*****&#45;&gt;pick 3! -->
<g id="edge20" class="edge">
<title>Sequence*****&#45;&gt;pick 3!</title>
<path fill="none" stroke="black" d="M380.44,-71.7C373.32,-62.8 364.56,-51.84 356.86,-42.22"/>
<polygon fill="black" stroke="black" points="359.42,-39.82 350.44,-34.2 353.96,-44.2 359.42,-39.82"/>
</g>
<!-- place at (0.016, 0.032, 0.0)! -->
<g id="node22" class="node">
<title>place at (0.016, 0.032, 0.0)!</title>
<ellipse fill="gray" stroke="black" cx="449.28" cy="-18" rx="66.29" ry="18"/>
<text text-anchor="middle" x="449.28" y="-15.8" font-family="Times,serif" font-size="9.00">place at (0.016, 0.032, 0.0)!</text>
</g>
<!-- Sequence*****&#45;&gt;place at (0.016, 0.032, 0.0)! -->
<g id="edge21" class="edge">
<title>Sequence*****&#45;&gt;place at (0.016, 0.032, 0.0)!</title>
<path fill="none" stroke="black" d="M407.88,-71.7C414.4,-63.39 422.35,-53.28 429.53,-44.14"/>
<polygon fill="black" stroke="black" points="432.42,-46.13 435.84,-36.1 426.91,-41.81 432.42,-46.13"/>
</g>
<!-- 3 at pos (0.016, 0.032, 0.0)?* -->
<g id="node26" class="node">
<title>3 at pos (0.016, 0.032, 0.0)?*</title>
<ellipse fill="gray" stroke="black" cx="355.28" cy="-378" rx="70.37" ry="18"/>
<text text-anchor="middle" x="355.28" y="-375.8" font-family="Times,serif" font-size="9.00">3 at pos (0.016, 0.032, 0.0)?*</text>
</g>
<!-- Fallback*****&#45;&gt;3 at pos (0.016, 0.032, 0.0)?* -->
<g id="edge25" class="edge">
<title>Fallback*****&#45;&gt;3 at pos (0.016, 0.032, 0.0)?*</title>
<path fill="none" stroke="black" d="M465.87,-435.5C445.64,-425.17 417.42,-410.75 394.55,-399.06"/>
<polygon fill="black" stroke="black" points="395.93,-395.84 385.43,-394.41 392.74,-402.07 395.93,-395.84"/>
</g>
<!-- Sequence****** -->
<g id="node27" class="node">
<title>Sequence******</title>
<polygon fill="cyan" stroke="black" points="540.52,-370.54 540.52,-385.46 512.26,-396 472.3,-396 444.04,-385.46 444.04,-370.54 472.3,-360 512.26,-360 540.52,-370.54"/>
<text text-anchor="middle" x="492.28" y="-375.8" font-family="Times,serif" font-size="9.00">Sequence******</text>
</g>
<!-- Fallback*****&#45;&gt;Sequence****** -->
<g id="edge26" class="edge">
<title>Fallback*****&#45;&gt;Sequence******</title>
<path fill="none" stroke="black" d="M492.28,-431.7C492.28,-423.98 492.28,-414.71 492.28,-406.11"/>
<polygon fill="black" stroke="black" points="495.78,-406.1 492.28,-396.1 488.78,-406.1 495.78,-406.1"/>
</g>
<!-- pick 3!* -->
<g id="node28" class="node">
<title>pick 3!*</title>
<ellipse fill="gray" stroke="black" cx="464.28" cy="-306" rx="27" ry="18"/>
<text text-anchor="middle" x="464.28" y="-303.8" font-family="Times,serif" font-size="9.00">pick 3!*</text>
</g>
<!-- Sequence******&#45;&gt;pick 3!* -->
<g id="edge27" class="edge">
<title>Sequence******&#45;&gt;pick 3!*</title>
<path fill="none" stroke="black" d="M485.36,-359.7C482.16,-351.7 478.29,-342.02 474.74,-333.15"/>
<polygon fill="black" stroke="black" points="477.89,-331.61 470.93,-323.62 471.4,-334.21 477.89,-331.61"/>
</g>
<!-- place at (0.016, 0.032, 0.0)!* -->
<g id="node29" class="node">
<title>place at (0.016, 0.032, 0.0)!*</title>
<ellipse fill="gray" stroke="black" cx="578.28" cy="-306" rx="68.91" ry="18"/>
<text text-anchor="middle" x="578.28" y="-303.8" font-family="Times,serif" font-size="9.00">place at (0.016, 0.032, 0.0)!*</text>
</g>
<!-- Sequence******&#45;&gt;place at (0.016, 0.032, 0.0)!* -->
<g id="edge28" class="edge">
<title>Sequence******&#45;&gt;place at (0.016, 0.032, 0.0)!*</title>
<path fill="none" stroke="black" d="M513.1,-360.05C524.25,-350.98 538.13,-339.68 550.22,-329.84"/>
<polygon fill="black" stroke="black" points="552.7,-332.33 558.25,-323.31 548.28,-326.91 552.7,-332.33"/>
</g>
<!-- 2 at pos (0.016, &#45;0.032, 0.0)?** -->
<g id="node31" class="node">
<title>2 at pos (0.016, &#45;0.032, 0.0)?**</title>
<ellipse fill="gray" stroke="black" cx="633.28" cy="-378" rx="74.46" ry="18"/>
<text text-anchor="middle" x="633.28" y="-375.8" font-family="Times,serif" font-size="9.00">2 at pos (0.016, &#45;0.032, 0.0)?**</text>
</g>
<!-- Fallback******&#45;&gt;2 at pos (0.016, &#45;0.032, 0.0)?** -->
<g id="edge30" class="edge">
<title>Fallback******&#45;&gt;2 at pos (0.016, &#45;0.032, 0.0)?**</title>
<path fill="none" stroke="black" d="M620.48,-431.7C622.38,-423.9 624.66,-414.51 626.77,-405.83"/>
<polygon fill="black" stroke="black" points="630.17,-406.65 629.13,-396.1 623.37,-405 630.17,-406.65"/>
</g>
<!-- Sequence******* -->
<g id="node32" class="node">
<title>Sequence*******</title>
<polygon fill="cyan" stroke="black" points="828.77,-370.54 828.77,-385.46 798.61,-396 755.96,-396 725.79,-385.46 725.79,-370.54 755.96,-360 798.61,-360 828.77,-370.54"/>
<text text-anchor="middle" x="777.28" y="-375.8" font-family="Times,serif" font-size="9.00">Sequence*******</text>
</g>
<!-- Fallback******&#45;&gt;Sequence******* -->
<g id="edge31" class="edge">
<title>Fallback******&#45;&gt;Sequence*******</title>
<path fill="none" stroke="black" d="M646.19,-436C671.68,-424.91 708.55,-408.88 736.7,-396.64"/>
<polygon fill="black" stroke="black" points="738.11,-399.85 745.89,-392.65 735.32,-393.43 738.11,-399.85"/>
</g>
<!-- place on 0! -->
<g id="node35" class="node">
<title>place on 0!</title>
<ellipse fill="gray" stroke="black" cx="879.28" cy="-378" rx="32.16" ry="18"/>
<text text-anchor="middle" x="879.28" y="-375.8" font-family="Times,serif" font-size="9.00">place on 0!</text>
</g>
<!-- Fallback******&#45;&gt;place on 0! -->
<g id="edge34" class="edge">
<title>Fallback******&#45;&gt;place on 0!</title>
<path fill="none" stroke="black" d="M650.77,-437.84C657.54,-435.79 664.61,-433.75 671.28,-432 744.3,-412.84 765.14,-418.24 837.28,-396 839.87,-395.2 842.52,-394.31 845.17,-393.37"/>
<polygon fill="black" stroke="black" points="846.54,-396.59 854.66,-389.78 844.07,-390.04 846.54,-396.59"/>
</g>
<!-- pick 2!** -->
<g id="node33" class="node">
<title>pick 2!**</title>
<ellipse fill="gray" stroke="black" cx="736.28" cy="-306" rx="28.74" ry="18"/>
<text text-anchor="middle" x="736.28" y="-303.8" font-family="Times,serif" font-size="9.00">pick 2!**</text>
</g>
<!-- Sequence*******&#45;&gt;pick 2!** -->
<g id="edge32" class="edge">
<title>Sequence*******&#45;&gt;pick 2!**</title>
<path fill="none" stroke="black" d="M767.15,-359.7C762.24,-351.32 756.25,-341.1 750.87,-331.9"/>
<polygon fill="black" stroke="black" points="753.81,-330 745.74,-323.14 747.77,-333.54 753.81,-330"/>
</g>
<!-- place at (0.016, &#45;0.032, 0.0)!** -->
<g id="node34" class="node">
<title>place at (0.016, &#45;0.032, 0.0)!**</title>
<ellipse fill="gray" stroke="black" cx="856.28" cy="-306" rx="73.15" ry="18"/>
<text text-anchor="middle" x="856.28" y="-303.8" font-family="Times,serif" font-size="9.00">place at (0.016, &#45;0.032, 0.0)!**</text>
</g>
<!-- Sequence*******&#45;&gt;place at (0.016, &#45;0.032, 0.0)!** -->
<g id="edge33" class="edge">
<title>Sequence*******&#45;&gt;place at (0.016, &#45;0.032, 0.0)!**</title>
<path fill="none" stroke="black" d="M796.81,-359.7C806.81,-350.84 819.13,-339.92 829.96,-330.33"/>
<polygon fill="black" stroke="black" points="832.36,-332.87 837.52,-323.62 827.72,-327.63 832.36,-332.87"/>
</g>
<!-- 1 on 0? -->
<g id="node39" class="node">
<title>1 on 0?</title>
<ellipse fill="gray" stroke="black" cx="706.28" cy="-522" rx="27" ry="18"/>
<text text-anchor="middle" x="706.28" y="-519.8" font-family="Times,serif" font-size="9.00">1 on 0?</text>
</g>
<!-- Fallback*******&#45;&gt;1 on 0? -->
<g id="edge38" class="edge">
<title>Fallback*******&#45;&gt;1 on 0?</title>
<path fill="none" stroke="black" d="M706.28,-575.7C706.28,-567.98 706.28,-558.71 706.28,-550.11"/>
<polygon fill="black" stroke="black" points="709.78,-550.1 706.28,-540.1 702.78,-550.1 709.78,-550.1"/>
</g>
<!-- Sequence******** -->
<g id="node40" class="node">
<title>Sequence********</title>
<polygon fill="cyan" stroke="black" points="967.27,-514.54 967.27,-529.46 935.64,-540 890.92,-540 859.29,-529.46 859.29,-514.54 890.92,-504 935.64,-504 967.27,-514.54"/>
<text text-anchor="middle" x="913.28" y="-519.8" font-family="Times,serif" font-size="9.00">Sequence********</text>
</g>
<!-- Fallback*******&#45;&gt;Sequence******** -->
<g id="edge39" class="edge">
<title>Fallback*******&#45;&gt;Sequence********</title>
<path fill="none" stroke="black" d="M741.4,-581.13C775.92,-569.45 828.8,-551.57 866.79,-538.72"/>
<polygon fill="black" stroke="black" points="868.25,-541.92 876.6,-535.4 866,-535.29 868.25,-541.92"/>
</g>
<!-- pick 1! -->
<g id="node41" class="node">
<title>pick 1!</title>
<ellipse fill="gray" stroke="black" cx="913.28" cy="-450" rx="27" ry="18"/>
<text text-anchor="middle" x="913.28" y="-447.8" font-family="Times,serif" font-size="9.00">pick 1!</text>
</g>
<!-- Sequence********&#45;&gt;pick 1! -->
<g id="edge40" class="edge">
<title>Sequence********&#45;&gt;pick 1!</title>
<path fill="none" stroke="black" d="M913.28,-503.7C913.28,-495.98 913.28,-486.71 913.28,-478.11"/>
<polygon fill="black" stroke="black" points="916.78,-478.1 913.28,-468.1 909.78,-478.1 916.78,-478.1"/>
</g>
<!-- place on 0!* -->
<g id="node42" class="node">
<title>place on 0!*</title>
<ellipse fill="gray" stroke="black" cx="993.28" cy="-450" rx="34.78" ry="18"/>
<text text-anchor="middle" x="993.28" y="-447.8" font-family="Times,serif" font-size="9.00">place on 0!*</text>
</g>
<!-- Sequence********&#45;&gt;place on 0!* -->
<g id="edge41" class="edge">
<title>Sequence********&#45;&gt;place on 0!*</title>
<path fill="none" stroke="black" d="M933.06,-503.7C943.88,-494.22 957.39,-482.4 968.87,-472.36"/>
<polygon fill="black" stroke="black" points="971.22,-474.96 976.44,-465.74 966.61,-469.69 971.22,-474.96"/>
</g>
</g>
</svg>
