<?xml version="1.0" encoding="UTF-8" standalone="no"?>
<!DOCTYPE svg PUBLIC "-//W3C//DTD SVG 1.1//EN"
 "http://www.w3.org/Graphics/SVG/1.1/DTD/svg11.dtd">
<!-- Generated by graphviz version 2.43.0 (0)
 -->
<!-- Title: pastafarianism Pages: 1 -->
<svg width="711pt" height="116pt"
 viewBox="0.00 0.00 710.63 116.00" xmlns="http://www.w3.org/2000/svg" xmlns:xlink="http://www.w3.org/1999/xlink">
<g id="graph0" class="graph" transform="scale(1 1) rotate(0) translate(4 112)">
<title>pastafarianism</title>
<polygon fill="white" stroke="transparent" points="-4,4 -4,-112 706.63,-112 706.63,4 -4,4"/>
<!-- Fallback -->
<g id="node1" class="node">
<title>Fallback</title>
<polygon fill="cyan" stroke="black" points="402.01,-82.54 402.01,-97.46 384.88,-108 360.65,-108 343.52,-97.46 343.52,-82.54 360.65,-72 384.88,-72 402.01,-82.54"/>
<text text-anchor="middle" x="372.77" y="-87.8" font-family="Times,serif" font-size="9.00">Fallback</text>
</g>
<!-- NotReadyForSG? -->
<g id="node2" class="node">
<title>NotReadyForSG?</title>
<ellipse fill="gray" stroke="black" cx="46.77" cy="-18" rx="46.53" ry="18"/>
<text text-anchor="middle" x="46.77" y="-15.8" font-family="Times,serif" font-size="9.00">NotReadyForSG?</text>
</g>
<!-- Fallback&#45;&gt;NotReadyForSG? -->
<g id="edge1" class="edge">
<title>Fallback&#45;&gt;NotReadyForSG?</title>
<path fill="none" stroke="black" d="M343.39,-84.23C293.56,-75.93 189.44,-57.61 102.77,-36 98.99,-35.06 95.09,-34.02 91.19,-32.93"/>
<polygon fill="black" stroke="black" points="92.14,-29.56 81.57,-30.16 90.21,-36.29 92.14,-29.56"/>
</g>
<!-- MoveTo! -->
<g id="node3" class="node">
<title>MoveTo!</title>
<ellipse fill="gray" stroke="black" cx="140.77" cy="-18" rx="28.74" ry="18"/>
<text text-anchor="middle" x="140.77" y="-15.8" font-family="Times,serif" font-size="9.00">MoveTo!</text>
</g>
<!-- Fallback&#45;&gt;MoveTo! -->
<g id="edge2" class="edge">
<title>Fallback&#45;&gt;MoveTo!</title>
<path fill="none" stroke="black" d="M343.41,-82.47C305.03,-73.6 235.96,-56.47 178.77,-36 176.66,-35.25 174.52,-34.43 172.37,-33.57"/>
<polygon fill="black" stroke="black" points="173.61,-30.3 163.04,-29.65 170.9,-36.75 173.61,-30.3"/>
</g>
<!-- GetSubGoal! -->
<g id="node4" class="node">
<title>GetSubGoal!</title>
<ellipse fill="gray" stroke="black" cx="224.77" cy="-18" rx="36.9" ry="18"/>
<text text-anchor="middle" x="224.77" y="-15.8" font-family="Times,serif" font-size="9.00">GetSubGoal!</text>
</g>
<!-- Fallback&#45;&gt;GetSubGoal! -->
<g id="edge3" class="edge">
<title>Fallback&#45;&gt;GetSubGoal!</title>
<path fill="none" stroke="black" d="M350.29,-78.37C326.17,-66.96 287.55,-48.69 259.51,-35.43"/>
<polygon fill="black" stroke="black" points="260.98,-32.26 250.44,-31.15 257.99,-38.59 260.98,-32.26"/>
</g>
<!-- CompLkGraph! -->
<g id="node5" class="node">
<title>CompLkGraph!</title>
<ellipse fill="gray" stroke="black" cx="322.77" cy="-18" rx="42.95" ry="18"/>
<text text-anchor="middle" x="322.77" y="-15.8" font-family="Times,serif" font-size="9.00">CompLkGraph!</text>
</g>
<!-- Fallback&#45;&gt;CompLkGraph! -->
<g id="edge4" class="edge">
<title>Fallback&#45;&gt;CompLkGraph!</title>
<path fill="none" stroke="black" d="M360.41,-71.7C354.44,-63.35 347.18,-53.18 340.63,-44.02"/>
<polygon fill="black" stroke="black" points="343.3,-41.73 334.64,-35.62 337.6,-45.79 343.3,-41.73"/>
</g>
<!-- GetSubGoal!* -->
<g id="node6" class="node">
<title>GetSubGoal!*</title>
<ellipse fill="gray" stroke="black" cx="422.77" cy="-18" rx="39.02" ry="18"/>
<text text-anchor="middle" x="422.77" y="-15.8" font-family="Times,serif" font-size="9.00">GetSubGoal!*</text>
</g>
<!-- Fallback&#45;&gt;GetSubGoal!* -->
<g id="edge5" class="edge">
<title>Fallback&#45;&gt;GetSubGoal!*</title>
<path fill="none" stroke="black" d="M385.12,-71.7C391.09,-63.35 398.35,-53.18 404.9,-44.02"/>
<polygon fill="black" stroke="black" points="407.93,-45.79 410.89,-35.62 402.23,-41.73 407.93,-45.79"/>
</g>
<!-- ReachGoal? -->
<g id="node7" class="node">
<title>ReachGoal?</title>
<ellipse fill="gray" stroke="black" cx="513.77" cy="-18" rx="34.13" ry="18"/>
<text text-anchor="middle" x="513.77" y="-15.8" font-family="Times,serif" font-size="9.00">ReachGoal?</text>
</g>
<!-- Fallback&#45;&gt;ReachGoal? -->
<g id="edge6" class="edge">
<title>Fallback&#45;&gt;ReachGoal?</title>
<path fill="none" stroke="black" d="M394.8,-78.06C417.7,-66.69 453.83,-48.76 480.27,-35.63"/>
<polygon fill="black" stroke="black" points="482.13,-38.62 489.53,-31.03 479.01,-32.35 482.13,-38.62"/>
</g>
<!-- LkGraph? -->
<g id="node8" class="node">
<title>LkGraph?</title>
<ellipse fill="gray" stroke="black" cx="596.77" cy="-18" rx="30.7" ry="18"/>
<text text-anchor="middle" x="596.77" y="-15.8" font-family="Times,serif" font-size="9.00">LkGraph?</text>
</g>
<!-- Fallback&#45;&gt;LkGraph? -->
<g id="edge7" class="edge">
<title>Fallback&#45;&gt;LkGraph?</title>
<path fill="none" stroke="black" d="M401.16,-81.97C437.59,-72.68 502.57,-55.24 556.77,-36 559.13,-35.16 561.55,-34.25 563.98,-33.31"/>
<polygon fill="black" stroke="black" points="565.31,-36.55 573.26,-29.55 562.68,-30.06 565.31,-36.55"/>
</g>
<!-- LkClose? -->
<g id="node9" class="node">
<title>LkClose?</title>
<ellipse fill="gray" stroke="black" cx="673.77" cy="-18" rx="28.74" ry="18"/>
<text text-anchor="middle" x="673.77" y="-15.8" font-family="Times,serif" font-size="9.00">LkClose?</text>
</g>
<!-- Fallback&#45;&gt;LkClose? -->
<g id="edge8" class="edge">
<title>Fallback&#45;&gt;LkClose?</title>
<path fill="none" stroke="black" d="M402.24,-85.36C451.63,-78.77 553.85,-62.96 636.77,-36 638.63,-35.39 640.53,-34.72 642.42,-34"/>
<polygon fill="black" stroke="black" points="643.9,-37.17 651.8,-30.11 641.22,-30.71 643.9,-37.17"/>
</g>
</g>
</svg>
