<?xml version="1.0" encoding="UTF-8" standalone="no"?>
<!DOCTYPE svg PUBLIC "-//W3C//DTD SVG 1.1//EN"
 "http://www.w3.org/Graphics/SVG/1.1/DTD/svg11.dtd">
<!-- Generated by graphviz version 2.43.0 (0)
 -->
<!-- Title: pastafarianism Pages: 1 -->
<svg width="654pt" height="116pt"
 viewBox="0.00 0.00 653.78 116.00" xmlns="http://www.w3.org/2000/svg" xmlns:xlink="http://www.w3.org/1999/xlink">
<g id="graph0" class="graph" transform="scale(1 1) rotate(0) translate(4 112)">
<title>pastafarianism</title>
<polygon fill="white" stroke="transparent" points="-4,4 -4,-112 649.78,-112 649.78,4 -4,4"/>
<!-- Fallback -->
<g id="node1" class="node">
<title>Fallback</title>
<polygon fill="cyan" stroke="black" points="349.11,-82.54 349.11,-97.46 331.98,-108 307.75,-108 290.62,-97.46 290.62,-82.54 307.75,-72 331.98,-72 349.11,-82.54"/>
<text text-anchor="middle" x="319.87" y="-87.8" font-family="Times,serif" font-size="9.00">Fallback</text>
</g>
<!-- MoveTo! -->
<g id="node2" class="node">
<title>MoveTo!</title>
<ellipse fill="gray" stroke="black" cx="28.87" cy="-18" rx="28.74" ry="18"/>
<text text-anchor="middle" x="28.87" y="-15.8" font-family="Times,serif" font-size="9.00">MoveTo!</text>
</g>
<!-- Fallback&#45;&gt;MoveTo! -->
<g id="edge1" class="edge">
<title>Fallback&#45;&gt;MoveTo!</title>
<path fill="none" stroke="black" d="M290.5,-84.94C242.8,-77.88 145.84,-61.61 66.87,-36 64.74,-35.31 62.58,-34.54 60.42,-33.72"/>
<polygon fill="black" stroke="black" points="61.64,-30.44 51.06,-29.88 58.98,-36.92 61.64,-30.44"/>
</g>
<!-- LkClose? -->
<g id="node3" class="node">
<title>LkClose?</title>
<ellipse fill="gray" stroke="black" cx="104.87" cy="-18" rx="28.74" ry="18"/>
<text text-anchor="middle" x="104.87" y="-15.8" font-family="Times,serif" font-size="9.00">LkClose?</text>
</g>
<!-- Fallback&#45;&gt;LkClose? -->
<g id="edge2" class="edge">
<title>Fallback&#45;&gt;LkClose?</title>
<path fill="none" stroke="black" d="M291.6,-81.75C256.35,-72.44 194.43,-55.16 142.87,-36 140.78,-35.22 138.64,-34.39 136.49,-33.51"/>
<polygon fill="black" stroke="black" points="137.74,-30.24 127.17,-29.56 135.01,-36.69 137.74,-30.24"/>
</g>
<!-- GetSubGoal! -->
<g id="node4" class="node">
<title>GetSubGoal!</title>
<ellipse fill="gray" stroke="black" cx="188.87" cy="-18" rx="36.9" ry="18"/>
<text text-anchor="middle" x="188.87" y="-15.8" font-family="Times,serif" font-size="9.00">GetSubGoal!</text>
</g>
<!-- Fallback&#45;&gt;GetSubGoal! -->
<g id="edge3" class="edge">
<title>Fallback&#45;&gt;GetSubGoal!</title>
<path fill="none" stroke="black" d="M298.53,-77.6C277.79,-66.52 246,-49.53 221.98,-36.69"/>
<polygon fill="black" stroke="black" points="223.33,-33.45 212.86,-31.82 220.03,-39.62 223.33,-33.45"/>
</g>
<!-- LkGraph? -->
<g id="node5" class="node">
<title>LkGraph?</title>
<ellipse fill="gray" stroke="black" cx="274.87" cy="-18" rx="30.7" ry="18"/>
<text text-anchor="middle" x="274.87" y="-15.8" font-family="Times,serif" font-size="9.00">LkGraph?</text>
</g>
<!-- Fallback&#45;&gt;LkGraph? -->
<g id="edge4" class="edge">
<title>Fallback&#45;&gt;LkGraph?</title>
<path fill="none" stroke="black" d="M308.74,-71.7C303.3,-63.23 296.65,-52.89 290.69,-43.61"/>
<polygon fill="black" stroke="black" points="293.6,-41.66 285.25,-35.14 287.71,-45.45 293.6,-41.66"/>
</g>
<!-- CompLkGraph! -->
<g id="node6" class="node">
<title>CompLkGraph!</title>
<ellipse fill="gray" stroke="black" cx="365.87" cy="-18" rx="42.95" ry="18"/>
<text text-anchor="middle" x="365.87" y="-15.8" font-family="Times,serif" font-size="9.00">CompLkGraph!</text>
</g>
<!-- Fallback&#45;&gt;CompLkGraph! -->
<g id="edge5" class="edge">
<title>Fallback&#45;&gt;CompLkGraph!</title>
<path fill="none" stroke="black" d="M331.24,-71.7C336.72,-63.35 343.4,-53.18 349.43,-44.02"/>
<polygon fill="black" stroke="black" points="352.38,-45.9 354.94,-35.62 346.53,-42.06 352.38,-45.9"/>
</g>
<!-- MoveTo!* -->
<g id="node7" class="node">
<title>MoveTo!*</title>
<ellipse fill="gray" stroke="black" cx="457.87" cy="-18" rx="31.51" ry="18"/>
<text text-anchor="middle" x="457.87" y="-15.8" font-family="Times,serif" font-size="9.00">MoveTo!*</text>
</g>
<!-- Fallback&#45;&gt;MoveTo!* -->
<g id="edge6" class="edge">
<title>Fallback&#45;&gt;MoveTo!*</title>
<path fill="none" stroke="black" d="M341.73,-77.91C364.34,-66.44 399.88,-48.41 425.69,-35.32"/>
<polygon fill="black" stroke="black" points="427.39,-38.39 434.72,-30.74 424.22,-32.14 427.39,-38.39"/>
</g>
<!-- GetLk! -->
<g id="node8" class="node">
<title>GetLk!</title>
<ellipse fill="gray" stroke="black" cx="534.87" cy="-18" rx="27" ry="18"/>
<text text-anchor="middle" x="534.87" y="-15.8" font-family="Times,serif" font-size="9.00">GetLk!</text>
</g>
<!-- Fallback&#45;&gt;GetLk! -->
<g id="edge7" class="edge">
<title>Fallback&#45;&gt;GetLk!</title>
<path fill="none" stroke="black" d="M348.53,-81.97C384.25,-72.87 446.94,-55.82 498.87,-36 500.71,-35.3 502.58,-34.54 504.47,-33.75"/>
<polygon fill="black" stroke="black" points="506.06,-36.87 513.78,-29.62 503.22,-30.47 506.06,-36.87"/>
</g>
<!-- LkGraph?* -->
<g id="node9" class="node">
<title>LkGraph?*</title>
<ellipse fill="gray" stroke="black" cx="612.87" cy="-18" rx="32.82" ry="18"/>
<text text-anchor="middle" x="612.87" y="-15.8" font-family="Times,serif" font-size="9.00">LkGraph?*</text>
</g>
<!-- Fallback&#45;&gt;LkGraph?* -->
<g id="edge8" class="edge">
<title>Fallback&#45;&gt;LkGraph?*</title>
<path fill="none" stroke="black" d="M349.28,-84.52C396.6,-76.93 492.28,-60 570.87,-36 573.3,-35.26 575.79,-34.43 578.29,-33.55"/>
<polygon fill="black" stroke="black" points="579.67,-36.77 587.81,-29.98 577.22,-30.21 579.67,-36.77"/>
</g>
</g>
</svg>
