<?xml version="1.0" encoding="UTF-8" standalone="no"?>
<!DOCTYPE svg PUBLIC "-//W3C//DTD SVG 1.1//EN"
 "http://www.w3.org/Graphics/SVG/1.1/DTD/svg11.dtd">
<!-- Generated by graphviz version 2.43.0 (0)
 -->
<!-- Title: pastafarianism Pages: 1 -->
<svg width="1305pt" height="548pt"
 viewBox="0.00 0.00 1305.11 548.00" xmlns="http://www.w3.org/2000/svg" xmlns:xlink="http://www.w3.org/1999/xlink">
<g id="graph0" class="graph" transform="scale(1 1) rotate(0) translate(4 544)">
<title>pastafarianism</title>
<polygon fill="white" stroke="transparent" points="-4,4 -4,-544 1301.11,-544 1301.11,4 -4,4"/>
<!-- Fallback -->
<g id="node1" class="node">
<title>Fallback</title>
<polygon fill="cyan" stroke="black" points="882.9,-514.54 882.9,-529.46 865.76,-540 841.54,-540 824.41,-529.46 824.41,-514.54 841.54,-504 865.76,-504 882.9,-514.54"/>
<text text-anchor="middle" x="853.65" y="-519.8" font-family="Times,serif" font-size="9.00">Fallback</text>
</g>
<!-- LkGraph? -->
<g id="node2" class="node">
<title>LkGraph?</title>
<ellipse fill="gray" stroke="black" cx="776.65" cy="-450" rx="30.7" ry="18"/>
<text text-anchor="middle" x="776.65" y="-447.8" font-family="Times,serif" font-size="9.00">LkGraph?</text>
</g>
<!-- Fallback&#45;&gt;LkGraph? -->
<g id="edge1" class="edge">
<title>Fallback&#45;&gt;LkGraph?</title>
<path fill="none" stroke="black" d="M837.32,-506.15C826.53,-496.34 812.21,-483.33 800.2,-472.41"/>
<polygon fill="black" stroke="black" points="802.45,-469.72 792.69,-465.58 797.74,-474.9 802.45,-469.72"/>
</g>
<!-- LkClose? -->
<g id="node3" class="node">
<title>LkClose?</title>
<ellipse fill="gray" stroke="black" cx="853.65" cy="-450" rx="28.74" ry="18"/>
<text text-anchor="middle" x="853.65" y="-447.8" font-family="Times,serif" font-size="9.00">LkClose?</text>
</g>
<!-- Fallback&#45;&gt;LkClose? -->
<g id="edge2" class="edge">
<title>Fallback&#45;&gt;LkClose?</title>
<path fill="none" stroke="black" d="M853.65,-503.7C853.65,-495.98 853.65,-486.71 853.65,-478.11"/>
<polygon fill="black" stroke="black" points="857.15,-478.1 853.65,-468.1 850.15,-478.1 857.15,-478.1"/>
</g>
<!-- Sequence -->
<g id="node4" class="node">
<title>Sequence</title>
<polygon fill="cyan" stroke="black" points="963.15,-442.54 963.15,-457.46 944.7,-468 918.61,-468 900.16,-457.46 900.16,-442.54 918.61,-432 944.7,-432 963.15,-442.54"/>
<text text-anchor="middle" x="931.65" y="-447.8" font-family="Times,serif" font-size="9.00">Sequence</text>
</g>
<!-- Fallback&#45;&gt;Sequence -->
<g id="edge3" class="edge">
<title>Fallback&#45;&gt;Sequence</title>
<path fill="none" stroke="black" d="M870.19,-506.15C880.98,-496.48 895.24,-483.68 907.31,-472.85"/>
<polygon fill="black" stroke="black" points="909.76,-475.35 914.87,-466.07 905.09,-470.14 909.76,-475.35"/>
</g>
<!-- Fallback* -->
<g id="node5" class="node">
<title>Fallback*</title>
<polygon fill="cyan" stroke="black" points="876.39,-370.54 876.39,-385.46 857.8,-396 831.5,-396 812.91,-385.46 812.91,-370.54 831.5,-360 857.8,-360 876.39,-370.54"/>
<text text-anchor="middle" x="844.65" y="-375.8" font-family="Times,serif" font-size="9.00">Fallback*</text>
</g>
<!-- Sequence&#45;&gt;Fallback* -->
<g id="edge4" class="edge">
<title>Sequence&#45;&gt;Fallback*</title>
<path fill="none" stroke="black" d="M913.63,-434.5C901.26,-424.55 884.66,-411.19 870.84,-400.07"/>
<polygon fill="black" stroke="black" points="872.64,-397.03 862.66,-393.49 868.25,-402.48 872.64,-397.03"/>
</g>
<!-- MoveTo!*** -->
<g id="node46" class="node">
<title>MoveTo!***</title>
<ellipse fill="gray" stroke="black" cx="931.65" cy="-378" rx="36.9" ry="18"/>
<text text-anchor="middle" x="931.65" y="-375.8" font-family="Times,serif" font-size="9.00">MoveTo!***</text>
</g>
<!-- Sequence&#45;&gt;MoveTo!*** -->
<g id="edge45" class="edge">
<title>Sequence&#45;&gt;MoveTo!***</title>
<path fill="none" stroke="black" d="M931.65,-431.7C931.65,-423.98 931.65,-414.71 931.65,-406.11"/>
<polygon fill="black" stroke="black" points="935.15,-406.1 931.65,-396.1 928.15,-406.1 935.15,-406.1"/>
</g>
<!-- NotReadyForSG?********** -->
<g id="node47" class="node">
<title>NotReadyForSG?**********</title>
<ellipse fill="gray" stroke="black" cx="1059.65" cy="-378" rx="72.99" ry="18"/>
<text text-anchor="middle" x="1059.65" y="-375.8" font-family="Times,serif" font-size="9.00">NotReadyForSG?**********</text>
</g>
<!-- Sequence&#45;&gt;NotReadyForSG?********** -->
<g id="edge46" class="edge">
<title>Sequence&#45;&gt;NotReadyForSG?**********</title>
<path fill="none" stroke="black" d="M953.66,-436.97C972.38,-426.73 999.68,-411.8 1021.89,-399.65"/>
<polygon fill="black" stroke="black" points="1023.65,-402.68 1030.74,-394.81 1020.29,-396.54 1023.65,-402.68"/>
</g>
<!-- Sequence* -->
<g id="node6" class="node">
<title>Sequence*</title>
<polygon fill="cyan" stroke="black" points="444.89,-298.54 444.89,-313.46 424.84,-324 396.47,-324 376.41,-313.46 376.41,-298.54 396.47,-288 424.84,-288 444.89,-298.54"/>
<text text-anchor="middle" x="410.65" y="-303.8" font-family="Times,serif" font-size="9.00">Sequence*</text>
</g>
<!-- Fallback*&#45;&gt;Sequence* -->
<g id="edge5" class="edge">
<title>Fallback*&#45;&gt;Sequence*</title>
<path fill="none" stroke="black" d="M812.74,-371.85C736.29,-359.52 542.53,-328.27 454.9,-314.14"/>
<polygon fill="black" stroke="black" points="455.43,-310.68 445,-312.54 454.31,-317.59 455.43,-310.68"/>
</g>
<!-- Sequence** -->
<g id="node20" class="node">
<title>Sequence**</title>
<polygon fill="cyan" stroke="black" points="779.39,-298.54 779.39,-313.46 757.87,-324 727.43,-324 705.91,-313.46 705.91,-298.54 727.43,-288 757.87,-288 779.39,-298.54"/>
<text text-anchor="middle" x="742.65" y="-303.8" font-family="Times,serif" font-size="9.00">Sequence**</text>
</g>
<!-- Fallback*&#45;&gt;Sequence** -->
<g id="edge19" class="edge">
<title>Fallback*&#45;&gt;Sequence**</title>
<path fill="none" stroke="black" d="M824.99,-363.5C810,-353.22 789.12,-338.89 772.14,-327.23"/>
<polygon fill="black" stroke="black" points="773.89,-324.19 763.66,-321.42 769.93,-329.96 773.89,-324.19"/>
</g>
<!-- ReachGoal?***** -->
<g id="node43" class="node">
<title>ReachGoal?*****</title>
<ellipse fill="gray" stroke="black" cx="844.65" cy="-306" rx="47.19" ry="18"/>
<text text-anchor="middle" x="844.65" y="-303.8" font-family="Times,serif" font-size="9.00">ReachGoal?*****</text>
</g>
<!-- Fallback*&#45;&gt;ReachGoal?***** -->
<g id="edge42" class="edge">
<title>Fallback*&#45;&gt;ReachGoal?*****</title>
<path fill="none" stroke="black" d="M844.65,-359.7C844.65,-351.98 844.65,-342.71 844.65,-334.11"/>
<polygon fill="black" stroke="black" points="848.15,-334.1 844.65,-324.1 841.15,-334.1 848.15,-334.1"/>
</g>
<!-- NotReadyForSG?********* -->
<g id="node44" class="node">
<title>NotReadyForSG?*********</title>
<ellipse fill="gray" stroke="black" cx="980.65" cy="-306" rx="70.37" ry="18"/>
<text text-anchor="middle" x="980.65" y="-303.8" font-family="Times,serif" font-size="9.00">NotReadyForSG?*********</text>
</g>
<!-- Fallback*&#45;&gt;NotReadyForSG?********* -->
<g id="edge43" class="edge">
<title>Fallback*&#45;&gt;NotReadyForSG?*********</title>
<path fill="none" stroke="black" d="M867.42,-365.28C887.66,-354.86 917.71,-339.4 941.76,-327.02"/>
<polygon fill="black" stroke="black" points="943.37,-330.13 950.66,-322.44 940.16,-323.9 943.37,-330.13"/>
</g>
<!-- GetSubGoal!**** -->
<g id="node45" class="node">
<title>GetSubGoal!****</title>
<ellipse fill="gray" stroke="black" cx="1116.65" cy="-306" rx="47.19" ry="18"/>
<text text-anchor="middle" x="1116.65" y="-303.8" font-family="Times,serif" font-size="9.00">GetSubGoal!****</text>
</g>
<!-- Fallback*&#45;&gt;GetSubGoal!**** -->
<g id="edge44" class="edge">
<title>Fallback*&#45;&gt;GetSubGoal!****</title>
<path fill="none" stroke="black" d="M869.09,-365.98C874.48,-363.81 880.2,-361.68 885.65,-360 961.13,-336.77 983.08,-343.3 1059.65,-324 1063.49,-323.03 1067.45,-321.98 1071.41,-320.88"/>
<polygon fill="black" stroke="black" points="1072.55,-324.19 1081.21,-318.08 1070.63,-317.46 1072.55,-324.19"/>
</g>
<!-- NotReadyForSG? -->
<g id="node7" class="node">
<title>NotReadyForSG?</title>
<ellipse fill="gray" stroke="black" cx="105.65" cy="-234" rx="46.53" ry="18"/>
<text text-anchor="middle" x="105.65" y="-231.8" font-family="Times,serif" font-size="9.00">NotReadyForSG?</text>
</g>
<!-- Sequence*&#45;&gt;NotReadyForSG? -->
<g id="edge6" class="edge">
<title>Sequence*&#45;&gt;NotReadyForSG?</title>
<path fill="none" stroke="black" d="M376.2,-298.63C327.95,-289.49 237.62,-271.58 161.65,-252 157.89,-251.03 153.99,-249.97 150.1,-248.87"/>
<polygon fill="black" stroke="black" points="151.05,-245.5 140.47,-246.07 149.1,-252.22 151.05,-245.5"/>
</g>
<!-- ReachGoal? -->
<g id="node8" class="node">
<title>ReachGoal?</title>
<ellipse fill="gray" stroke="black" cx="204.65" cy="-234" rx="34.13" ry="18"/>
<text text-anchor="middle" x="204.65" y="-231.8" font-family="Times,serif" font-size="9.00">ReachGoal?</text>
</g>
<!-- Sequence*&#45;&gt;ReachGoal? -->
<g id="edge7" class="edge">
<title>Sequence*&#45;&gt;ReachGoal?</title>
<path fill="none" stroke="black" d="M381.02,-295.97C348.21,-285.84 293.85,-268.63 247.65,-252 245.27,-251.14 242.83,-250.24 240.37,-249.32"/>
<polygon fill="black" stroke="black" points="241.52,-246.01 230.93,-245.69 239.01,-252.54 241.52,-246.01"/>
</g>
<!-- MoveTo! -->
<g id="node9" class="node">
<title>MoveTo!</title>
<ellipse fill="gray" stroke="black" cx="285.65" cy="-234" rx="28.74" ry="18"/>
<text text-anchor="middle" x="285.65" y="-231.8" font-family="Times,serif" font-size="9.00">MoveTo!</text>
</g>
<!-- Sequence*&#45;&gt;MoveTo! -->
<g id="edge8" class="edge">
<title>Sequence*&#45;&gt;MoveTo!</title>
<path fill="none" stroke="black" d="M388.02,-292.32C367.7,-280.95 337.74,-264.17 315.48,-251.7"/>
<polygon fill="black" stroke="black" points="316.89,-248.48 306.46,-246.65 313.47,-254.59 316.89,-248.48"/>
</g>
<!-- Fallback** -->
<g id="node10" class="node">
<title>Fallback**</title>
<polygon fill="cyan" stroke="black" points="402.64,-226.54 402.64,-241.46 382.15,-252 353.16,-252 332.66,-241.46 332.66,-226.54 353.16,-216 382.15,-216 402.64,-226.54"/>
<text text-anchor="middle" x="367.65" y="-231.8" font-family="Times,serif" font-size="9.00">Fallback**</text>
</g>
<!-- Sequence*&#45;&gt;Fallback** -->
<g id="edge9" class="edge">
<title>Sequence*&#45;&gt;Fallback**</title>
<path fill="none" stroke="black" d="M400.02,-287.7C395.02,-279.56 388.96,-269.69 383.44,-260.7"/>
<polygon fill="black" stroke="black" points="386.38,-258.79 378.16,-252.1 380.41,-262.46 386.38,-258.79"/>
</g>
<!-- MoveTo!* -->
<g id="node17" class="node">
<title>MoveTo!*</title>
<ellipse fill="gray" stroke="black" cx="452.65" cy="-234" rx="31.51" ry="18"/>
<text text-anchor="middle" x="452.65" y="-231.8" font-family="Times,serif" font-size="9.00">MoveTo!*</text>
</g>
<!-- Sequence*&#45;&gt;MoveTo!* -->
<g id="edge16" class="edge">
<title>Sequence*&#45;&gt;MoveTo!*</title>
<path fill="none" stroke="black" d="M421.03,-287.7C426.06,-279.32 432.19,-269.1 437.71,-259.9"/>
<polygon fill="black" stroke="black" points="440.82,-261.52 442.97,-251.14 434.82,-257.92 440.82,-261.52"/>
</g>
<!-- LkGraph?* -->
<g id="node18" class="node">
<title>LkGraph?*</title>
<ellipse fill="gray" stroke="black" cx="535.65" cy="-234" rx="32.82" ry="18"/>
<text text-anchor="middle" x="535.65" y="-231.8" font-family="Times,serif" font-size="9.00">LkGraph?*</text>
</g>
<!-- Sequence*&#45;&gt;LkGraph?* -->
<g id="edge17" class="edge">
<title>Sequence*&#45;&gt;LkGraph?*</title>
<path fill="none" stroke="black" d="M433.29,-292.32C453.11,-281.22 482.12,-264.98 504.19,-252.62"/>
<polygon fill="black" stroke="black" points="506.17,-255.52 513.18,-247.58 502.75,-249.41 506.17,-255.52"/>
</g>
<!-- GetLk! -->
<g id="node19" class="node">
<title>GetLk!</title>
<ellipse fill="gray" stroke="black" cx="613.65" cy="-234" rx="27" ry="18"/>
<text text-anchor="middle" x="613.65" y="-231.8" font-family="Times,serif" font-size="9.00">GetLk!</text>
</g>
<!-- Sequence*&#45;&gt;GetLk! -->
<g id="edge18" class="edge">
<title>Sequence*&#45;&gt;GetLk!</title>
<path fill="none" stroke="black" d="M441.25,-296.63C475.06,-287.06 530.94,-270.35 577.65,-252 579.49,-251.28 581.36,-250.51 583.24,-249.71"/>
<polygon fill="black" stroke="black" points="584.84,-252.83 592.54,-245.55 581.98,-246.44 584.84,-252.83"/>
</g>
<!-- NotReadyForSG?* -->
<g id="node11" class="node">
<title>NotReadyForSG?*</title>
<ellipse fill="gray" stroke="black" cx="49.65" cy="-162" rx="49.8" ry="18"/>
<text text-anchor="middle" x="49.65" y="-159.8" font-family="Times,serif" font-size="9.00">NotReadyForSG?*</text>
</g>
<!-- Fallback**&#45;&gt;NotReadyForSG?* -->
<g id="edge10" class="edge">
<title>Fallback**&#45;&gt;NotReadyForSG?*</title>
<path fill="none" stroke="black" d="M341.42,-221.87C335.64,-219.7 329.5,-217.6 323.65,-216 230.21,-190.41 203.13,-201.45 108.65,-180 104.56,-179.07 100.33,-178.03 96.1,-176.92"/>
<polygon fill="black" stroke="black" points="96.87,-173.5 86.31,-174.27 95.04,-180.26 96.87,-173.5"/>
</g>
<!-- ReachGoal?* -->
<g id="node12" class="node">
<title>ReachGoal?*</title>
<ellipse fill="gray" stroke="black" cx="154.65" cy="-162" rx="36.9" ry="18"/>
<text text-anchor="middle" x="154.65" y="-159.8" font-family="Times,serif" font-size="9.00">ReachGoal?*</text>
</g>
<!-- Fallback**&#45;&gt;ReachGoal?* -->
<g id="edge11" class="edge">
<title>Fallback**&#45;&gt;ReachGoal?*</title>
<path fill="none" stroke="black" d="M340.79,-222.21C335.16,-220.06 329.24,-217.89 323.65,-216 269.71,-197.72 254.73,-197.88 200.65,-180 197.92,-179.1 195.12,-178.14 192.3,-177.15"/>
<polygon fill="black" stroke="black" points="193.36,-173.81 182.76,-173.74 191,-180.4 193.36,-173.81"/>
</g>
<!-- NotReadyForSG?** -->
<g id="node13" class="node">
<title>NotReadyForSG?**</title>
<ellipse fill="gray" stroke="black" cx="261.65" cy="-162" rx="51.92" ry="18"/>
<text text-anchor="middle" x="261.65" y="-159.8" font-family="Times,serif" font-size="9.00">NotReadyForSG?**</text>
</g>
<!-- Fallback**&#45;&gt;NotReadyForSG?** -->
<g id="edge12" class="edge">
<title>Fallback**&#45;&gt;NotReadyForSG?**</title>
<path fill="none" stroke="black" d="M346.71,-219.17C331.5,-209.13 310.65,-195.36 293.4,-183.97"/>
<polygon fill="black" stroke="black" points="295.03,-180.85 284.76,-178.26 291.17,-186.69 295.03,-180.85"/>
</g>
<!-- GetSubGoal! -->
<g id="node14" class="node">
<title>GetSubGoal!</title>
<ellipse fill="gray" stroke="black" cx="368.65" cy="-162" rx="36.9" ry="18"/>
<text text-anchor="middle" x="368.65" y="-159.8" font-family="Times,serif" font-size="9.00">GetSubGoal!</text>
</g>
<!-- Fallback**&#45;&gt;GetSubGoal! -->
<g id="edge13" class="edge">
<title>Fallback**&#45;&gt;GetSubGoal!</title>
<path fill="none" stroke="black" d="M367.9,-215.7C368.01,-207.98 368.14,-198.71 368.26,-190.11"/>
<polygon fill="black" stroke="black" points="371.76,-190.15 368.41,-180.1 364.77,-190.05 371.76,-190.15"/>
</g>
<!-- GetSubGoal!* -->
<g id="node15" class="node">
<title>GetSubGoal!*</title>
<ellipse fill="gray" stroke="black" cx="462.65" cy="-162" rx="39.02" ry="18"/>
<text text-anchor="middle" x="462.65" y="-159.8" font-family="Times,serif" font-size="9.00">GetSubGoal!*</text>
</g>
<!-- Fallback**&#45;&gt;GetSubGoal!* -->
<g id="edge14" class="edge">
<title>Fallback**&#45;&gt;GetSubGoal!*</title>
<path fill="none" stroke="black" d="M387.34,-218.5C401,-208.43 419.41,-194.86 434.6,-183.67"/>
<polygon fill="black" stroke="black" points="436.69,-186.48 442.67,-177.73 432.54,-180.84 436.69,-186.48"/>
</g>
<!-- NotReadyForSG?*** -->
<g id="node16" class="node">
<title>NotReadyForSG?***</title>
<ellipse fill="gray" stroke="black" cx="574.65" cy="-162" rx="54.7" ry="18"/>
<text text-anchor="middle" x="574.65" y="-159.8" font-family="Times,serif" font-size="9.00">NotReadyForSG?***</text>
</g>
<!-- Fallback**&#45;&gt;NotReadyForSG?*** -->
<g id="edge15" class="edge">
<title>Fallback**&#45;&gt;NotReadyForSG?***</title>
<path fill="none" stroke="black" d="M394.56,-222.34C400.19,-220.18 406.1,-217.97 411.65,-216 449.89,-202.41 493.65,-188.25 526.2,-178"/>
<polygon fill="black" stroke="black" points="527.43,-181.28 535.92,-174.94 525.33,-174.6 527.43,-181.28"/>
</g>
<!-- LkGraph?** -->
<g id="node21" class="node">
<title>LkGraph?**</title>
<ellipse fill="gray" stroke="black" cx="694.65" cy="-234" rx="35.59" ry="18"/>
<text text-anchor="middle" x="694.65" y="-231.8" font-family="Times,serif" font-size="9.00">LkGraph?**</text>
</g>
<!-- Sequence**&#45;&gt;LkGraph?** -->
<g id="edge20" class="edge">
<title>Sequence**&#45;&gt;LkGraph?**</title>
<path fill="none" stroke="black" d="M730.79,-287.7C724.98,-279.23 717.89,-268.89 711.53,-259.61"/>
<polygon fill="black" stroke="black" points="714.26,-257.41 705.72,-251.14 708.49,-261.37 714.26,-257.41"/>
</g>
<!-- CompLkGraph! -->
<g id="node22" class="node">
<title>CompLkGraph!</title>
<ellipse fill="gray" stroke="black" cx="791.65" cy="-234" rx="42.95" ry="18"/>
<text text-anchor="middle" x="791.65" y="-231.8" font-family="Times,serif" font-size="9.00">CompLkGraph!</text>
</g>
<!-- Sequence**&#45;&gt;CompLkGraph! -->
<g id="edge21" class="edge">
<title>Sequence**&#45;&gt;CompLkGraph!</title>
<path fill="none" stroke="black" d="M754.76,-287.7C760.61,-279.35 767.72,-269.18 774.14,-260.02"/>
<polygon fill="black" stroke="black" points="777.15,-261.82 780.02,-251.62 771.41,-257.81 777.15,-261.82"/>
</g>
<!-- Fallback*** -->
<g id="node23" class="node">
<title>Fallback***</title>
<polygon fill="cyan" stroke="black" points="927.14,-226.54 927.14,-241.46 905.18,-252 874.12,-252 852.16,-241.46 852.16,-226.54 874.12,-216 905.18,-216 927.14,-226.54"/>
<text text-anchor="middle" x="889.65" y="-231.8" font-family="Times,serif" font-size="9.00">Fallback***</text>
</g>
<!-- Sequence**&#45;&gt;Fallback*** -->
<g id="edge22" class="edge">
<title>Sequence**&#45;&gt;Fallback***</title>
<path fill="none" stroke="black" d="M768.26,-292.81C792.14,-281.43 827.97,-264.37 854.52,-251.73"/>
<polygon fill="black" stroke="black" points="856.32,-254.75 863.85,-247.29 853.31,-248.43 856.32,-254.75"/>
</g>
<!-- LkGraph?*** -->
<g id="node24" class="node">
<title>LkGraph?***</title>
<ellipse fill="gray" stroke="black" cx="689.65" cy="-162" rx="38.21" ry="18"/>
<text text-anchor="middle" x="689.65" y="-159.8" font-family="Times,serif" font-size="9.00">LkGraph?***</text>
</g>
<!-- Fallback***&#45;&gt;LkGraph?*** -->
<g id="edge23" class="edge">
<title>Fallback***&#45;&gt;LkGraph?***</title>
<path fill="none" stroke="black" d="M860.99,-222.26C855.26,-220.15 849.27,-217.98 843.65,-216 796.34,-199.3 784.02,-196.53 736.65,-180 733.96,-179.06 731.19,-178.08 728.4,-177.09"/>
<polygon fill="black" stroke="black" points="729.54,-173.79 718.95,-173.71 727.19,-180.38 729.54,-173.79"/>
</g>
<!-- Sequence*** -->
<g id="node25" class="node">
<title>Sequence***</title>
<polygon fill="cyan" stroke="black" points="825.64,-154.54 825.64,-169.46 802.22,-180 769.09,-180 745.66,-169.46 745.66,-154.54 769.09,-144 802.22,-144 825.64,-154.54"/>
<text text-anchor="middle" x="785.65" y="-159.8" font-family="Times,serif" font-size="9.00">Sequence***</text>
</g>
<!-- Fallback***&#45;&gt;Sequence*** -->
<g id="edge24" class="edge">
<title>Fallback***&#45;&gt;Sequence***</title>
<path fill="none" stroke="black" d="M868.36,-218.67C853.27,-208.52 832.83,-194.75 816.04,-183.45"/>
<polygon fill="black" stroke="black" points="817.89,-180.48 807.64,-177.8 813.98,-186.29 817.89,-180.48"/>
</g>
<!-- Sequence**** -->
<g id="node37" class="node">
<title>Sequence****</title>
<polygon fill="cyan" stroke="black" points="930.14,-154.54 930.14,-169.46 905.25,-180 870.05,-180 845.16,-169.46 845.16,-154.54 870.05,-144 905.25,-144 930.14,-154.54"/>
<text text-anchor="middle" x="887.65" y="-159.8" font-family="Times,serif" font-size="9.00">Sequence****</text>
</g>
<!-- Fallback***&#45;&gt;Sequence**** -->
<g id="edge36" class="edge">
<title>Fallback***&#45;&gt;Sequence****</title>
<path fill="none" stroke="black" d="M889.16,-215.7C888.94,-207.98 888.67,-198.71 888.43,-190.11"/>
<polygon fill="black" stroke="black" points="891.93,-190 888.14,-180.1 884.93,-190.2 891.93,-190"/>
</g>
<!-- ReachGoal?**** -->
<g id="node40" class="node">
<title>ReachGoal?****</title>
<ellipse fill="gray" stroke="black" cx="992.65" cy="-162" rx="44.41" ry="18"/>
<text text-anchor="middle" x="992.65" y="-159.8" font-family="Times,serif" font-size="9.00">ReachGoal?****</text>
</g>
<!-- Fallback***&#45;&gt;ReachGoal?**** -->
<g id="edge39" class="edge">
<title>Fallback***&#45;&gt;ReachGoal?****</title>
<path fill="none" stroke="black" d="M910.99,-218.5C925.95,-208.33 946.14,-194.61 962.7,-183.36"/>
<polygon fill="black" stroke="black" points="964.68,-186.24 970.98,-177.73 960.75,-180.45 964.68,-186.24"/>
</g>
<!-- NotReadyForSG?******** -->
<g id="node41" class="node">
<title>NotReadyForSG?********</title>
<ellipse fill="gray" stroke="black" cx="1122.65" cy="-162" rx="67.6" ry="18"/>
<text text-anchor="middle" x="1122.65" y="-159.8" font-family="Times,serif" font-size="9.00">NotReadyForSG?********</text>
</g>
<!-- Fallback***&#45;&gt;NotReadyForSG?******** -->
<g id="edge40" class="edge">
<title>Fallback***&#45;&gt;NotReadyForSG?********</title>
<path fill="none" stroke="black" d="M921.08,-223.56C959.15,-212.12 1023.88,-192.67 1069.7,-178.91"/>
<polygon fill="black" stroke="black" points="1070.9,-182.2 1079.47,-175.97 1068.88,-175.5 1070.9,-182.2"/>
</g>
<!-- GetSubGoal!*** -->
<g id="node42" class="node">
<title>GetSubGoal!***</title>
<ellipse fill="gray" stroke="black" cx="1252.65" cy="-162" rx="44.41" ry="18"/>
<text text-anchor="middle" x="1252.65" y="-159.8" font-family="Times,serif" font-size="9.00">GetSubGoal!***</text>
</g>
<!-- Fallback***&#45;&gt;GetSubGoal!*** -->
<g id="edge41" class="edge">
<title>Fallback***&#45;&gt;GetSubGoal!***</title>
<path fill="none" stroke="black" d="M927.22,-228.32C985.89,-220.62 1102.59,-203.74 1199.65,-180 1203.09,-179.16 1206.63,-178.21 1210.17,-177.2"/>
<polygon fill="black" stroke="black" points="1211.48,-180.46 1220.06,-174.25 1209.48,-173.76 1211.48,-180.46"/>
</g>
<!-- NotReadyForSG?**** -->
<g id="node26" class="node">
<title>NotReadyForSG?****</title>
<ellipse fill="gray" stroke="black" cx="433.65" cy="-90" rx="57.32" ry="18"/>
<text text-anchor="middle" x="433.65" y="-87.8" font-family="Times,serif" font-size="9.00">NotReadyForSG?****</text>
</g>
<!-- Sequence***&#45;&gt;NotReadyForSG?**** -->
<g id="edge25" class="edge">
<title>Sequence***&#45;&gt;NotReadyForSG?****</title>
<path fill="none" stroke="black" d="M756.12,-149.78C749.76,-147.64 743.03,-145.58 736.65,-144 633.22,-118.43 604.04,-129.31 499.65,-108 494.97,-107.04 490.13,-105.97 485.28,-104.83"/>
<polygon fill="black" stroke="black" points="485.94,-101.39 475.4,-102.43 484.29,-108.19 485.94,-101.39"/>
</g>
<!-- ReachGoal?** -->
<g id="node27" class="node">
<title>ReachGoal?**</title>
<ellipse fill="gray" stroke="black" cx="547.65" cy="-90" rx="39.02" ry="18"/>
<text text-anchor="middle" x="547.65" y="-87.8" font-family="Times,serif" font-size="9.00">ReachGoal?**</text>
</g>
<!-- Sequence***&#45;&gt;ReachGoal?** -->
<g id="edge26" class="edge">
<title>Sequence***&#45;&gt;ReachGoal?**</title>
<path fill="none" stroke="black" d="M755.46,-150.08C749.27,-147.97 742.77,-145.84 736.65,-144 674.71,-125.38 657.53,-126.82 595.65,-108 592.74,-107.12 589.75,-106.16 586.75,-105.17"/>
<polygon fill="black" stroke="black" points="587.81,-101.84 577.22,-101.94 585.56,-108.47 587.81,-101.84"/>
</g>
<!-- Fallback**** -->
<g id="node28" class="node">
<title>Fallback****</title>
<polygon fill="cyan" stroke="black" points="686.39,-82.54 686.39,-97.46 662.53,-108 628.78,-108 604.91,-97.46 604.91,-82.54 628.78,-72 662.53,-72 686.39,-82.54"/>
<text text-anchor="middle" x="645.65" y="-87.8" font-family="Times,serif" font-size="9.00">Fallback****</text>
</g>
<!-- Sequence***&#45;&gt;Fallback**** -->
<g id="edge27" class="edge">
<title>Sequence***&#45;&gt;Fallback****</title>
<path fill="none" stroke="black" d="M759.65,-148C737.49,-136.92 705.44,-120.9 680.97,-108.66"/>
<polygon fill="black" stroke="black" points="682.5,-105.51 671.99,-104.17 679.37,-111.77 682.5,-105.51"/>
</g>
<!-- MoveTo!** -->
<g id="node34" class="node">
<title>MoveTo!**</title>
<ellipse fill="gray" stroke="black" cx="738.65" cy="-90" rx="34.13" ry="18"/>
<text text-anchor="middle" x="738.65" y="-87.8" font-family="Times,serif" font-size="9.00">MoveTo!**</text>
</g>
<!-- Sequence***&#45;&gt;MoveTo!** -->
<g id="edge33" class="edge">
<title>Sequence***&#45;&gt;MoveTo!**</title>
<path fill="none" stroke="black" d="M774.03,-143.7C768.35,-135.23 761.4,-124.89 755.18,-115.61"/>
<polygon fill="black" stroke="black" points="757.97,-113.5 749.49,-107.14 752.16,-117.4 757.97,-113.5"/>
</g>
<!-- LkGraph?**** -->
<g id="node35" class="node">
<title>LkGraph?****</title>
<ellipse fill="gray" stroke="black" cx="831.65" cy="-90" rx="40.98" ry="18"/>
<text text-anchor="middle" x="831.65" y="-87.8" font-family="Times,serif" font-size="9.00">LkGraph?****</text>
</g>
<!-- Sequence***&#45;&gt;LkGraph?**** -->
<g id="edge34" class="edge">
<title>Sequence***&#45;&gt;LkGraph?****</title>
<path fill="none" stroke="black" d="M797.02,-143.7C802.51,-135.35 809.19,-125.18 815.21,-116.02"/>
<polygon fill="black" stroke="black" points="818.16,-117.9 820.73,-107.62 812.31,-114.06 818.16,-117.9"/>
</g>
<!-- GetLk!* -->
<g id="node36" class="node">
<title>GetLk!*</title>
<ellipse fill="gray" stroke="black" cx="917.65" cy="-90" rx="27.27" ry="18"/>
<text text-anchor="middle" x="917.65" y="-87.8" font-family="Times,serif" font-size="9.00">GetLk!*</text>
</g>
<!-- Sequence***&#45;&gt;GetLk!* -->
<g id="edge35" class="edge">
<title>Sequence***&#45;&gt;GetLk!*</title>
<path fill="none" stroke="black" d="M810.79,-147.67C832.75,-136.02 864.66,-119.1 887.89,-106.79"/>
<polygon fill="black" stroke="black" points="889.75,-109.76 896.94,-101.98 886.47,-103.57 889.75,-109.76"/>
</g>
<!-- NotReadyForSG?***** -->
<g id="node29" class="node">
<title>NotReadyForSG?*****</title>
<ellipse fill="gray" stroke="black" cx="402.65" cy="-18" rx="60.09" ry="18"/>
<text text-anchor="middle" x="402.65" y="-15.8" font-family="Times,serif" font-size="9.00">NotReadyForSG?*****</text>
</g>
<!-- Fallback****&#45;&gt;NotReadyForSG?***** -->
<g id="edge28" class="edge">
<title>Fallback****&#45;&gt;NotReadyForSG?*****</title>
<path fill="none" stroke="black" d="M614.54,-78.1C608.31,-76.01 601.79,-73.88 595.65,-72 549.15,-57.72 495.79,-43.21 456.98,-32.99"/>
<polygon fill="black" stroke="black" points="457.51,-29.51 446.94,-30.36 455.73,-36.28 457.51,-29.51"/>
</g>
<!-- ReachGoal?*** -->
<g id="node30" class="node">
<title>ReachGoal?***</title>
<ellipse fill="gray" stroke="black" cx="522.65" cy="-18" rx="42.29" ry="18"/>
<text text-anchor="middle" x="522.65" y="-15.8" font-family="Times,serif" font-size="9.00">ReachGoal?***</text>
</g>
<!-- Fallback****&#45;&gt;ReachGoal?*** -->
<g id="edge29" class="edge">
<title>Fallback****&#45;&gt;ReachGoal?***</title>
<path fill="none" stroke="black" d="M621.35,-75.17C602.57,-64.48 576.37,-49.57 555.68,-37.8"/>
<polygon fill="black" stroke="black" points="557.32,-34.71 546.9,-32.8 553.86,-40.79 557.32,-34.71"/>
</g>
<!-- NotReadyForSG?****** -->
<g id="node31" class="node">
<title>NotReadyForSG?******</title>
<ellipse fill="gray" stroke="black" cx="645.65" cy="-18" rx="62.21" ry="18"/>
<text text-anchor="middle" x="645.65" y="-15.8" font-family="Times,serif" font-size="9.00">NotReadyForSG?******</text>
</g>
<!-- Fallback****&#45;&gt;NotReadyForSG?****** -->
<g id="edge30" class="edge">
<title>Fallback****&#45;&gt;NotReadyForSG?******</title>
<path fill="none" stroke="black" d="M645.65,-71.7C645.65,-63.98 645.65,-54.71 645.65,-46.11"/>
<polygon fill="black" stroke="black" points="649.15,-46.1 645.65,-36.1 642.15,-46.1 649.15,-46.1"/>
</g>
<!-- GetSubGoal!** -->
<g id="node32" class="node">
<title>GetSubGoal!**</title>
<ellipse fill="gray" stroke="black" cx="768.65" cy="-18" rx="42.29" ry="18"/>
<text text-anchor="middle" x="768.65" y="-15.8" font-family="Times,serif" font-size="9.00">GetSubGoal!**</text>
</g>
<!-- Fallback****&#45;&gt;GetSubGoal!** -->
<g id="edge31" class="edge">
<title>Fallback****&#45;&gt;GetSubGoal!**</title>
<path fill="none" stroke="black" d="M669.95,-75.17C688.74,-64.48 714.94,-49.57 735.62,-37.8"/>
<polygon fill="black" stroke="black" points="737.44,-40.79 744.4,-32.8 733.98,-34.71 737.44,-40.79"/>
</g>
<!-- NotReadyForSG?******* -->
<g id="node33" class="node">
<title>NotReadyForSG?*******</title>
<ellipse fill="gray" stroke="black" cx="893.65" cy="-18" rx="65.48" ry="18"/>
<text text-anchor="middle" x="893.65" y="-15.8" font-family="Times,serif" font-size="9.00">NotReadyForSG?*******</text>
</g>
<!-- Fallback****&#45;&gt;NotReadyForSG?******* -->
<g id="edge32" class="edge">
<title>Fallback****&#45;&gt;NotReadyForSG?*******</title>
<path fill="none" stroke="black" d="M676.49,-78.16C682.8,-76.04 689.42,-73.89 695.65,-72 742.9,-57.66 797.09,-43.3 836.82,-33.15"/>
<polygon fill="black" stroke="black" points="837.77,-36.52 846.6,-30.66 836.04,-29.73 837.77,-36.52"/>
</g>
<!-- LkGraph?***** -->
<g id="node38" class="node">
<title>LkGraph?*****</title>
<ellipse fill="gray" stroke="black" cx="1005.65" cy="-90" rx="43.1" ry="18"/>
<text text-anchor="middle" x="1005.65" y="-87.8" font-family="Times,serif" font-size="9.00">LkGraph?*****</text>
</g>
<!-- Sequence****&#45;&gt;LkGraph?***** -->
<g id="edge37" class="edge">
<title>Sequence****&#45;&gt;LkGraph?*****</title>
<path fill="none" stroke="black" d="M911.82,-146.67C929.51,-136.17 953.72,-121.81 973.12,-110.3"/>
<polygon fill="black" stroke="black" points="975.11,-113.19 981.92,-105.08 971.54,-107.17 975.11,-113.19"/>
</g>
<!-- CompLkGraph!* -->
<g id="node39" class="node">
<title>CompLkGraph!*</title>
<ellipse fill="gray" stroke="black" cx="1111.65" cy="-90" rx="45.07" ry="18"/>
<text text-anchor="middle" x="1111.65" y="-87.8" font-family="Times,serif" font-size="9.00">CompLkGraph!*</text>
</g>
<!-- Sequence****&#45;&gt;CompLkGraph!* -->
<g id="edge38" class="edge">
<title>Sequence****&#45;&gt;CompLkGraph!*</title>
<path fill="none" stroke="black" d="M920.35,-150.2C926.74,-148.12 933.4,-145.97 939.65,-144 991.94,-127.48 1005.28,-124.23 1057.65,-108 1060.94,-106.98 1064.35,-105.92 1067.77,-104.85"/>
<polygon fill="black" stroke="black" points="1068.89,-108.17 1077.39,-101.84 1066.8,-101.49 1068.89,-108.17"/>
</g>
</g>
</svg>
