<?xml version="1.0" encoding="UTF-8" standalone="no"?>
<!DOCTYPE svg PUBLIC "-//W3C//DTD SVG 1.1//EN"
 "http://www.w3.org/Graphics/SVG/1.1/DTD/svg11.dtd">
<!-- Generated by graphviz version 2.43.0 (0)
 -->
<!-- Title: pastafarianism Pages: 1 -->
<svg width="1103pt" height="404pt"
 viewBox="0.00 0.00 1102.91 404.00" xmlns="http://www.w3.org/2000/svg" xmlns:xlink="http://www.w3.org/1999/xlink">
<g id="graph0" class="graph" transform="scale(1 1) rotate(0) translate(4 400)">
<title>pastafarianism</title>
<polygon fill="white" stroke="transparent" points="-4,4 -4,-400 1098.91,-400 1098.91,4 -4,4"/>
<!-- Fallback -->
<g id="node1" class="node">
<title>Fallback</title>
<polygon fill="cyan" stroke="black" points="822.01,-370.54 822.01,-385.46 804.88,-396 780.65,-396 763.52,-385.46 763.52,-370.54 780.65,-360 804.88,-360 822.01,-370.54"/>
<text text-anchor="middle" x="792.77" y="-375.8" font-family="Times,serif" font-size="9.00">Fallback</text>
</g>
<!-- LkGraph? -->
<g id="node2" class="node">
<title>LkGraph?</title>
<ellipse fill="gray" stroke="black" cx="678.77" cy="-306" rx="30.7" ry="18"/>
<text text-anchor="middle" x="678.77" y="-303.8" font-family="Times,serif" font-size="9.00">LkGraph?</text>
</g>
<!-- Fallback&#45;&gt;LkGraph? -->
<g id="edge1" class="edge">
<title>Fallback&#45;&gt;LkGraph?</title>
<path fill="none" stroke="black" d="M772.65,-364.65C754.72,-353.64 728.26,-337.39 707.99,-324.95"/>
<polygon fill="black" stroke="black" points="709.81,-321.95 699.45,-319.7 706.14,-327.92 709.81,-321.95"/>
</g>
<!-- LkClose? -->
<g id="node3" class="node">
<title>LkClose?</title>
<ellipse fill="gray" stroke="black" cx="755.77" cy="-306" rx="28.74" ry="18"/>
<text text-anchor="middle" x="755.77" y="-303.8" font-family="Times,serif" font-size="9.00">LkClose?</text>
</g>
<!-- Fallback&#45;&gt;LkClose? -->
<g id="edge2" class="edge">
<title>Fallback&#45;&gt;LkClose?</title>
<path fill="none" stroke="black" d="M783.62,-359.7C779.3,-351.52 774.06,-341.6 769.29,-332.58"/>
<polygon fill="black" stroke="black" points="772.32,-330.83 764.55,-323.62 766.13,-334.1 772.32,-330.83"/>
</g>
<!-- GetLk! -->
<g id="node4" class="node">
<title>GetLk!</title>
<ellipse fill="gray" stroke="black" cx="829.77" cy="-306" rx="27" ry="18"/>
<text text-anchor="middle" x="829.77" y="-303.8" font-family="Times,serif" font-size="9.00">GetLk!</text>
</g>
<!-- Fallback&#45;&gt;GetLk! -->
<g id="edge3" class="edge">
<title>Fallback&#45;&gt;GetLk!</title>
<path fill="none" stroke="black" d="M801.91,-359.7C806.3,-351.4 811.63,-341.31 816.45,-332.19"/>
<polygon fill="black" stroke="black" points="819.65,-333.62 821.23,-323.14 813.46,-330.35 819.65,-333.62"/>
</g>
<!-- Sequence -->
<g id="node5" class="node">
<title>Sequence</title>
<polygon fill="cyan" stroke="black" points="937.26,-298.54 937.26,-313.46 918.81,-324 892.72,-324 874.27,-313.46 874.27,-298.54 892.72,-288 918.81,-288 937.26,-298.54"/>
<text text-anchor="middle" x="905.77" y="-303.8" font-family="Times,serif" font-size="9.00">Sequence</text>
</g>
<!-- Fallback&#45;&gt;Sequence -->
<g id="edge4" class="edge">
<title>Fallback&#45;&gt;Sequence</title>
<path fill="none" stroke="black" d="M812.71,-364.65C830.29,-353.75 856.15,-337.74 876.15,-325.35"/>
<polygon fill="black" stroke="black" points="878.22,-328.18 884.87,-319.94 874.53,-322.23 878.22,-328.18"/>
</g>
<!-- Fallback* -->
<g id="node6" class="node">
<title>Fallback*</title>
<polygon fill="cyan" stroke="black" points="853.51,-226.54 853.51,-241.46 834.91,-252 808.62,-252 790.02,-241.46 790.02,-226.54 808.62,-216 834.91,-216 853.51,-226.54"/>
<text text-anchor="middle" x="821.77" y="-231.8" font-family="Times,serif" font-size="9.00">Fallback*</text>
</g>
<!-- Sequence&#45;&gt;Fallback* -->
<g id="edge5" class="edge">
<title>Sequence&#45;&gt;Fallback*</title>
<path fill="none" stroke="black" d="M887.95,-290.15C876.07,-280.25 860.26,-267.08 847.08,-256.09"/>
<polygon fill="black" stroke="black" points="849.19,-253.3 839.27,-249.58 844.71,-258.67 849.19,-253.3"/>
</g>
<!-- MoveTo!** -->
<g id="node28" class="node">
<title>MoveTo!**</title>
<ellipse fill="gray" stroke="black" cx="905.77" cy="-234" rx="34.13" ry="18"/>
<text text-anchor="middle" x="905.77" y="-231.8" font-family="Times,serif" font-size="9.00">MoveTo!**</text>
</g>
<!-- Sequence&#45;&gt;MoveTo!** -->
<g id="edge27" class="edge">
<title>Sequence&#45;&gt;MoveTo!**</title>
<path fill="none" stroke="black" d="M905.77,-287.7C905.77,-279.98 905.77,-270.71 905.77,-262.11"/>
<polygon fill="black" stroke="black" points="909.27,-262.1 905.77,-252.1 902.27,-262.1 909.27,-262.1"/>
</g>
<!-- NotReadyForSG?***** -->
<g id="node29" class="node">
<title>NotReadyForSG?*****</title>
<ellipse fill="gray" stroke="black" cx="1017.77" cy="-234" rx="60.09" ry="18"/>
<text text-anchor="middle" x="1017.77" y="-231.8" font-family="Times,serif" font-size="9.00">NotReadyForSG?*****</text>
</g>
<!-- Sequence&#45;&gt;NotReadyForSG?***** -->
<g id="edge28" class="edge">
<title>Sequence&#45;&gt;NotReadyForSG?*****</title>
<path fill="none" stroke="black" d="M926.31,-292.16C942.55,-282.01 965.56,-267.63 984.44,-255.83"/>
<polygon fill="black" stroke="black" points="986.43,-258.71 993.05,-250.45 982.72,-252.78 986.43,-258.71"/>
</g>
<!-- Sequence* -->
<g id="node7" class="node">
<title>Sequence*</title>
<polygon fill="cyan" stroke="black" points="427.01,-154.54 427.01,-169.46 406.95,-180 378.58,-180 358.52,-169.46 358.52,-154.54 378.58,-144 406.95,-144 427.01,-154.54"/>
<text text-anchor="middle" x="392.77" y="-159.8" font-family="Times,serif" font-size="9.00">Sequence*</text>
</g>
<!-- Fallback*&#45;&gt;Sequence* -->
<g id="edge6" class="edge">
<title>Fallback*&#45;&gt;Sequence*</title>
<path fill="none" stroke="black" d="M789.87,-227.8C714.3,-215.46 524.18,-184.44 437.31,-170.27"/>
<polygon fill="black" stroke="black" points="437.68,-166.78 427.24,-168.63 436.55,-173.69 437.68,-166.78"/>
</g>
<!-- Sequence** -->
<g id="node22" class="node">
<title>Sequence**</title>
<polygon fill="cyan" stroke="black" points="764.51,-154.54 764.51,-169.46 742.98,-180 712.55,-180 691.02,-169.46 691.02,-154.54 712.55,-144 742.98,-144 764.51,-154.54"/>
<text text-anchor="middle" x="727.77" y="-159.8" font-family="Times,serif" font-size="9.00">Sequence**</text>
</g>
<!-- Fallback*&#45;&gt;Sequence** -->
<g id="edge21" class="edge">
<title>Fallback*&#45;&gt;Sequence**</title>
<path fill="none" stroke="black" d="M802.74,-218.83C789.25,-208.79 770.93,-195.15 755.78,-183.86"/>
<polygon fill="black" stroke="black" points="757.84,-181.03 747.73,-177.87 753.66,-186.65 757.84,-181.03"/>
</g>
<!-- ReachGoal?** -->
<g id="node25" class="node">
<title>ReachGoal?**</title>
<ellipse fill="gray" stroke="black" cx="821.77" cy="-162" rx="39.02" ry="18"/>
<text text-anchor="middle" x="821.77" y="-159.8" font-family="Times,serif" font-size="9.00">ReachGoal?**</text>
</g>
<!-- Fallback*&#45;&gt;ReachGoal?** -->
<g id="edge24" class="edge">
<title>Fallback*&#45;&gt;ReachGoal?**</title>
<path fill="none" stroke="black" d="M821.77,-215.7C821.77,-207.98 821.77,-198.71 821.77,-190.11"/>
<polygon fill="black" stroke="black" points="825.27,-190.1 821.77,-180.1 818.27,-190.1 825.27,-190.1"/>
</g>
<!-- NotReadyForSG?**** -->
<g id="node26" class="node">
<title>NotReadyForSG?****</title>
<ellipse fill="gray" stroke="black" cx="935.77" cy="-162" rx="57.32" ry="18"/>
<text text-anchor="middle" x="935.77" y="-159.8" font-family="Times,serif" font-size="9.00">NotReadyForSG?****</text>
</g>
<!-- Fallback*&#45;&gt;NotReadyForSG?**** -->
<g id="edge25" class="edge">
<title>Fallback*&#45;&gt;NotReadyForSG?****</title>
<path fill="none" stroke="black" d="M842.67,-220.16C859.21,-210.01 882.63,-195.63 901.84,-183.83"/>
<polygon fill="black" stroke="black" points="903.92,-186.66 910.61,-178.45 900.26,-180.7 903.92,-186.66"/>
</g>
<!-- GetSubGoal!** -->
<g id="node27" class="node">
<title>GetSubGoal!**</title>
<ellipse fill="gray" stroke="black" cx="1052.77" cy="-162" rx="42.29" ry="18"/>
<text text-anchor="middle" x="1052.77" y="-159.8" font-family="Times,serif" font-size="9.00">GetSubGoal!**</text>
</g>
<!-- Fallback*&#45;&gt;GetSubGoal!** -->
<g id="edge26" class="edge">
<title>Fallback*&#45;&gt;GetSubGoal!**</title>
<path fill="none" stroke="black" d="M846.27,-222.19C851.65,-220 857.36,-217.81 862.77,-216 923.28,-195.73 940.57,-198.1 1001.77,-180 1004.9,-179.07 1008.13,-178.08 1011.37,-177.06"/>
<polygon fill="black" stroke="black" points="1012.6,-180.34 1021.04,-173.95 1010.45,-173.68 1012.6,-180.34"/>
</g>
<!-- NotReadyForSG? -->
<g id="node8" class="node">
<title>NotReadyForSG?</title>
<ellipse fill="gray" stroke="black" cx="46.77" cy="-90" rx="46.53" ry="18"/>
<text text-anchor="middle" x="46.77" y="-87.8" font-family="Times,serif" font-size="9.00">NotReadyForSG?</text>
</g>
<!-- Sequence*&#45;&gt;NotReadyForSG? -->
<g id="edge7" class="edge">
<title>Sequence*&#45;&gt;NotReadyForSG?</title>
<path fill="none" stroke="black" d="M358.12,-155.98C303.47,-147.76 194.04,-130.12 102.77,-108 98.99,-107.08 95.08,-106.06 91.18,-104.99"/>
<polygon fill="black" stroke="black" points="92.12,-101.62 81.55,-102.23 90.2,-108.35 92.12,-101.62"/>
</g>
<!-- ReachGoal? -->
<g id="node9" class="node">
<title>ReachGoal?</title>
<ellipse fill="gray" stroke="black" cx="145.77" cy="-90" rx="34.13" ry="18"/>
<text text-anchor="middle" x="145.77" y="-87.8" font-family="Times,serif" font-size="9.00">ReachGoal?</text>
</g>
<!-- Sequence*&#45;&gt;ReachGoal? -->
<g id="edge8" class="edge">
<title>Sequence*&#45;&gt;ReachGoal?</title>
<path fill="none" stroke="black" d="M359.9,-153.77C319.29,-144.53 248.25,-127.41 188.77,-108 186.36,-107.22 183.9,-106.37 181.43,-105.48"/>
<polygon fill="black" stroke="black" points="182.55,-102.17 171.96,-101.94 180.1,-108.72 182.55,-102.17"/>
</g>
<!-- MoveTo! -->
<g id="node10" class="node">
<title>MoveTo!</title>
<ellipse fill="gray" stroke="black" cx="226.77" cy="-90" rx="28.74" ry="18"/>
<text text-anchor="middle" x="226.77" y="-87.8" font-family="Times,serif" font-size="9.00">MoveTo!</text>
</g>
<!-- Sequence*&#45;&gt;MoveTo! -->
<g id="edge9" class="edge">
<title>Sequence*&#45;&gt;MoveTo!</title>
<path fill="none" stroke="black" d="M366.2,-150.25C340.25,-139.7 299.67,-123.03 264.77,-108 262.92,-107.21 261.03,-106.39 259.13,-105.55"/>
<polygon fill="black" stroke="black" points="260.19,-102.19 249.63,-101.35 257.36,-108.6 260.19,-102.19"/>
</g>
<!-- LkGraph?* -->
<g id="node11" class="node">
<title>LkGraph?*</title>
<ellipse fill="gray" stroke="black" cx="306.77" cy="-90" rx="32.82" ry="18"/>
<text text-anchor="middle" x="306.77" y="-87.8" font-family="Times,serif" font-size="9.00">LkGraph?*</text>
</g>
<!-- Sequence*&#45;&gt;LkGraph?* -->
<g id="edge10" class="edge">
<title>Sequence*&#45;&gt;LkGraph?*</title>
<path fill="none" stroke="black" d="M374.1,-145.81C361.91,-135.89 345.83,-122.8 332.44,-111.9"/>
<polygon fill="black" stroke="black" points="334.47,-109.04 324.51,-105.44 330.05,-114.47 334.47,-109.04"/>
</g>
<!-- Fallback** -->
<g id="node12" class="node">
<title>Fallback**</title>
<polygon fill="cyan" stroke="black" points="427.76,-82.54 427.76,-97.46 407.26,-108 378.27,-108 357.77,-97.46 357.77,-82.54 378.27,-72 407.26,-72 427.76,-82.54"/>
<text text-anchor="middle" x="392.77" y="-87.8" font-family="Times,serif" font-size="9.00">Fallback**</text>
</g>
<!-- Sequence*&#45;&gt;Fallback** -->
<g id="edge11" class="edge">
<title>Sequence*&#45;&gt;Fallback**</title>
<path fill="none" stroke="black" d="M392.77,-143.7C392.77,-135.98 392.77,-126.71 392.77,-118.11"/>
<polygon fill="black" stroke="black" points="396.27,-118.1 392.77,-108.1 389.27,-118.1 396.27,-118.1"/>
</g>
<!-- MoveTo!* -->
<g id="node19" class="node">
<title>MoveTo!*</title>
<ellipse fill="gray" stroke="black" cx="477.77" cy="-90" rx="31.51" ry="18"/>
<text text-anchor="middle" x="477.77" y="-87.8" font-family="Times,serif" font-size="9.00">MoveTo!*</text>
</g>
<!-- Sequence*&#45;&gt;MoveTo!* -->
<g id="edge18" class="edge">
<title>Sequence*&#45;&gt;MoveTo!*</title>
<path fill="none" stroke="black" d="M411.21,-145.81C423.34,-135.82 439.37,-122.62 452.66,-111.68"/>
<polygon fill="black" stroke="black" points="455.02,-114.26 460.52,-105.21 450.57,-108.86 455.02,-114.26"/>
</g>
<!-- LkGraph?** -->
<g id="node20" class="node">
<title>LkGraph?**</title>
<ellipse fill="gray" stroke="black" cx="563.77" cy="-90" rx="35.59" ry="18"/>
<text text-anchor="middle" x="563.77" y="-87.8" font-family="Times,serif" font-size="9.00">LkGraph?**</text>
</g>
<!-- Sequence*&#45;&gt;LkGraph?** -->
<g id="edge19" class="edge">
<title>Sequence*&#45;&gt;LkGraph?**</title>
<path fill="none" stroke="black" d="M419.11,-150.22C448.06,-138.36 494.76,-119.25 527.24,-105.95"/>
<polygon fill="black" stroke="black" points="528.9,-109.06 536.83,-102.03 526.25,-102.58 528.9,-109.06"/>
</g>
<!-- GetLk!* -->
<g id="node21" class="node">
<title>GetLk!*</title>
<ellipse fill="gray" stroke="black" cx="644.77" cy="-90" rx="27.27" ry="18"/>
<text text-anchor="middle" x="644.77" y="-87.8" font-family="Times,serif" font-size="9.00">GetLk!*</text>
</g>
<!-- Sequence*&#45;&gt;GetLk!* -->
<g id="edge20" class="edge">
<title>Sequence*&#45;&gt;GetLk!*</title>
<path fill="none" stroke="black" d="M427.05,-154.8C470.18,-146.5 546.17,-130.2 608.77,-108 610.62,-107.34 612.51,-106.62 614.4,-105.85"/>
<polygon fill="black" stroke="black" points="615.97,-108.99 623.74,-101.79 613.18,-102.57 615.97,-108.99"/>
</g>
<!-- NotReadyForSG?* -->
<g id="node13" class="node">
<title>NotReadyForSG?*</title>
<ellipse fill="gray" stroke="black" cx="126.77" cy="-18" rx="49.8" ry="18"/>
<text text-anchor="middle" x="126.77" y="-15.8" font-family="Times,serif" font-size="9.00">NotReadyForSG?*</text>
</g>
<!-- Fallback**&#45;&gt;NotReadyForSG?* -->
<g id="edge12" class="edge">
<title>Fallback**&#45;&gt;NotReadyForSG?*</title>
<path fill="none" stroke="black" d="M366,-77.92C360.36,-75.79 354.41,-73.7 348.77,-72 277.74,-50.57 257.67,-54.28 185.77,-36 181.76,-34.98 177.61,-33.88 173.45,-32.75"/>
<polygon fill="black" stroke="black" points="174.38,-29.37 163.81,-30.06 172.5,-36.11 174.38,-29.37"/>
</g>
<!-- ReachGoal?* -->
<g id="node14" class="node">
<title>ReachGoal?*</title>
<ellipse fill="gray" stroke="black" cx="231.77" cy="-18" rx="36.9" ry="18"/>
<text text-anchor="middle" x="231.77" y="-15.8" font-family="Times,serif" font-size="9.00">ReachGoal?*</text>
</g>
<!-- Fallback**&#45;&gt;ReachGoal?* -->
<g id="edge13" class="edge">
<title>Fallback**&#45;&gt;ReachGoal?*</title>
<path fill="none" stroke="black" d="M366.9,-77.75C340.03,-66.07 297.78,-47.7 267.68,-34.62"/>
<polygon fill="black" stroke="black" points="268.94,-31.35 258.37,-30.57 266.15,-37.77 268.94,-31.35"/>
</g>
<!-- NotReadyForSG?** -->
<g id="node15" class="node">
<title>NotReadyForSG?**</title>
<ellipse fill="gray" stroke="black" cx="338.77" cy="-18" rx="51.92" ry="18"/>
<text text-anchor="middle" x="338.77" y="-15.8" font-family="Times,serif" font-size="9.00">NotReadyForSG?**</text>
</g>
<!-- Fallback**&#45;&gt;NotReadyForSG?** -->
<g id="edge14" class="edge">
<title>Fallback**&#45;&gt;NotReadyForSG?**</title>
<path fill="none" stroke="black" d="M379.42,-71.7C372.91,-63.27 364.97,-52.97 357.84,-43.73"/>
<polygon fill="black" stroke="black" points="360.47,-41.4 351.59,-35.62 354.93,-45.68 360.47,-41.4"/>
</g>
<!-- GetSubGoal! -->
<g id="node16" class="node">
<title>GetSubGoal!</title>
<ellipse fill="gray" stroke="black" cx="445.77" cy="-18" rx="36.9" ry="18"/>
<text text-anchor="middle" x="445.77" y="-15.8" font-family="Times,serif" font-size="9.00">GetSubGoal!</text>
</g>
<!-- Fallback**&#45;&gt;GetSubGoal! -->
<g id="edge15" class="edge">
<title>Fallback**&#45;&gt;GetSubGoal!</title>
<path fill="none" stroke="black" d="M405.87,-71.7C412.34,-63.14 420.27,-52.67 427.35,-43.33"/>
<polygon fill="black" stroke="black" points="430.3,-45.23 433.54,-35.14 424.71,-41 430.3,-45.23"/>
</g>
<!-- GetSubGoal!* -->
<g id="node17" class="node">
<title>GetSubGoal!*</title>
<ellipse fill="gray" stroke="black" cx="539.77" cy="-18" rx="39.02" ry="18"/>
<text text-anchor="middle" x="539.77" y="-15.8" font-family="Times,serif" font-size="9.00">GetSubGoal!*</text>
</g>
<!-- Fallback**&#45;&gt;GetSubGoal!* -->
<g id="edge16" class="edge">
<title>Fallback**&#45;&gt;GetSubGoal!*</title>
<path fill="none" stroke="black" d="M417.7,-77.13C441.52,-65.79 477.64,-48.58 504.42,-35.83"/>
<polygon fill="black" stroke="black" points="505.94,-38.98 513.46,-31.52 502.93,-32.66 505.94,-38.98"/>
</g>
<!-- NotReadyForSG?*** -->
<g id="node18" class="node">
<title>NotReadyForSG?***</title>
<ellipse fill="gray" stroke="black" cx="651.77" cy="-18" rx="54.7" ry="18"/>
<text text-anchor="middle" x="651.77" y="-15.8" font-family="Times,serif" font-size="9.00">NotReadyForSG?***</text>
</g>
<!-- Fallback**&#45;&gt;NotReadyForSG?*** -->
<g id="edge17" class="edge">
<title>Fallback**&#45;&gt;NotReadyForSG?***</title>
<path fill="none" stroke="black" d="M419.56,-77.99C425.19,-75.86 431.13,-73.75 436.77,-72 502.65,-51.52 520.86,-52.86 587.77,-36 592.08,-34.91 596.56,-33.76 601.05,-32.6"/>
<polygon fill="black" stroke="black" points="602.05,-35.96 610.84,-30.04 600.28,-29.18 602.05,-35.96"/>
</g>
<!-- LkGraph?*** -->
<g id="node23" class="node">
<title>LkGraph?***</title>
<ellipse fill="gray" stroke="black" cx="727.77" cy="-90" rx="38.21" ry="18"/>
<text text-anchor="middle" x="727.77" y="-87.8" font-family="Times,serif" font-size="9.00">LkGraph?***</text>
</g>
<!-- Sequence**&#45;&gt;LkGraph?*** -->
<g id="edge22" class="edge">
<title>Sequence**&#45;&gt;LkGraph?***</title>
<path fill="none" stroke="black" d="M727.77,-143.7C727.77,-135.98 727.77,-126.71 727.77,-118.11"/>
<polygon fill="black" stroke="black" points="731.27,-118.1 727.77,-108.1 724.27,-118.1 731.27,-118.1"/>
</g>
<!-- CompLkGraph! -->
<g id="node24" class="node">
<title>CompLkGraph!</title>
<ellipse fill="gray" stroke="black" cx="826.77" cy="-90" rx="42.95" ry="18"/>
<text text-anchor="middle" x="826.77" y="-87.8" font-family="Times,serif" font-size="9.00">CompLkGraph!</text>
</g>
<!-- Sequence**&#45;&gt;CompLkGraph! -->
<g id="edge23" class="edge">
<title>Sequence**&#45;&gt;CompLkGraph!</title>
<path fill="none" stroke="black" d="M748.28,-146.5C762.52,-136.43 781.7,-122.86 797.54,-111.67"/>
<polygon fill="black" stroke="black" points="799.79,-114.36 805.94,-105.73 795.75,-108.64 799.79,-114.36"/>
</g>
</g>
</svg>
