<?xml version="1.0" encoding="UTF-8" standalone="no"?>
<!DOCTYPE svg PUBLIC "-//W3C//DTD SVG 1.1//EN"
 "http://www.w3.org/Graphics/SVG/1.1/DTD/svg11.dtd">
<!-- Generated by graphviz version 2.43.0 (0)
 -->
<!-- Title: pastafarianism Pages: 1 -->
<svg width="599pt" height="260pt"
 viewBox="0.00 0.00 598.95 260.00" xmlns="http://www.w3.org/2000/svg" xmlns:xlink="http://www.w3.org/1999/xlink">
<g id="graph0" class="graph" transform="scale(1 1) rotate(0) translate(4 256)">
<title>pastafarianism</title>
<polygon fill="white" stroke="transparent" points="-4,4 -4,-256 594.95,-256 594.95,4 -4,4"/>
<!-- Fallback -->
<g id="node1" class="node">
<title>Fallback</title>
<polygon fill="cyan" stroke="black" points="434.19,-226.54 434.19,-241.46 417.06,-252 392.84,-252 375.71,-241.46 375.71,-226.54 392.84,-216 417.06,-216 434.19,-226.54"/>
<text text-anchor="middle" x="404.95" y="-231.8" font-family="Times,serif" font-size="9.00">Fallback</text>
</g>
<!-- Sequence -->
<g id="node2" class="node">
<title>Sequence</title>
<polygon fill="cyan" stroke="black" points="394.44,-154.54 394.44,-169.46 376,-180 349.91,-180 331.46,-169.46 331.46,-154.54 349.91,-144 376,-144 394.44,-154.54"/>
<text text-anchor="middle" x="362.95" y="-159.8" font-family="Times,serif" font-size="9.00">Sequence</text>
</g>
<!-- Fallback&#45;&gt;Sequence -->
<g id="edge1" class="edge">
<title>Fallback&#45;&gt;Sequence</title>
<path fill="none" stroke="black" d="M394.57,-215.7C389.69,-207.56 383.76,-197.69 378.37,-188.7"/>
<polygon fill="black" stroke="black" points="381.36,-186.88 373.21,-180.1 375.36,-190.48 381.36,-186.88"/>
</g>
<!-- Sequence* -->
<g id="node11" class="node">
<title>Sequence*</title>
<polygon fill="cyan" stroke="black" points="521.19,-154.54 521.19,-169.46 501.13,-180 472.77,-180 452.71,-169.46 452.71,-154.54 472.77,-144 501.13,-144 521.19,-154.54"/>
<text text-anchor="middle" x="486.95" y="-159.8" font-family="Times,serif" font-size="9.00">Sequence*</text>
</g>
<!-- Fallback&#45;&gt;Sequence* -->
<g id="edge10" class="edge">
<title>Fallback&#45;&gt;Sequence*</title>
<path fill="none" stroke="black" d="M421.94,-218.5C433.36,-208.75 448.62,-195.72 461.49,-184.74"/>
<polygon fill="black" stroke="black" points="463.8,-187.37 469.13,-178.21 459.25,-182.04 463.8,-187.37"/>
</g>
<!-- Fallback* -->
<g id="node3" class="node">
<title>Fallback*</title>
<polygon fill="cyan" stroke="black" points="274.69,-82.54 274.69,-97.46 256.1,-108 229.8,-108 211.21,-97.46 211.21,-82.54 229.8,-72 256.1,-72 274.69,-82.54"/>
<text text-anchor="middle" x="242.95" y="-87.8" font-family="Times,serif" font-size="9.00">Fallback*</text>
</g>
<!-- Sequence&#45;&gt;Fallback* -->
<g id="edge2" class="edge">
<title>Sequence&#45;&gt;Fallback*</title>
<path fill="none" stroke="black" d="M341.77,-148.65C322.7,-137.52 294.45,-121.04 273.03,-108.55"/>
<polygon fill="black" stroke="black" points="274.72,-105.48 264.32,-103.47 271.19,-111.53 274.72,-105.48"/>
</g>
<!-- MoveTo! -->
<g id="node9" class="node">
<title>MoveTo!</title>
<ellipse fill="gray" stroke="black" cx="321.95" cy="-90" rx="28.74" ry="18"/>
<text text-anchor="middle" x="321.95" y="-87.8" font-family="Times,serif" font-size="9.00">MoveTo!</text>
</g>
<!-- Sequence&#45;&gt;MoveTo! -->
<g id="edge8" class="edge">
<title>Sequence&#45;&gt;MoveTo!</title>
<path fill="none" stroke="black" d="M352.82,-143.7C347.91,-135.32 341.92,-125.1 336.53,-115.9"/>
<polygon fill="black" stroke="black" points="339.48,-114 331.41,-107.14 333.44,-117.54 339.48,-114"/>
</g>
<!-- ReachGoal? -->
<g id="node10" class="node">
<title>ReachGoal?</title>
<ellipse fill="gray" stroke="black" cx="402.95" cy="-90" rx="34.13" ry="18"/>
<text text-anchor="middle" x="402.95" y="-87.8" font-family="Times,serif" font-size="9.00">ReachGoal?</text>
</g>
<!-- Sequence&#45;&gt;ReachGoal? -->
<g id="edge9" class="edge">
<title>Sequence&#45;&gt;ReachGoal?</title>
<path fill="none" stroke="black" d="M372.84,-143.7C377.51,-135.52 383.18,-125.6 388.33,-116.58"/>
<polygon fill="black" stroke="black" points="391.53,-118.04 393.45,-107.62 385.45,-114.57 391.53,-118.04"/>
</g>
<!-- GetSubGoal! -->
<g id="node4" class="node">
<title>GetSubGoal!</title>
<ellipse fill="gray" stroke="black" cx="36.95" cy="-18" rx="36.9" ry="18"/>
<text text-anchor="middle" x="36.95" y="-15.8" font-family="Times,serif" font-size="9.00">GetSubGoal!</text>
</g>
<!-- Fallback*&#45;&gt;GetSubGoal! -->
<g id="edge3" class="edge">
<title>Fallback*&#45;&gt;GetSubGoal!</title>
<path fill="none" stroke="black" d="M215.1,-80.09C183.11,-69.79 129.07,-52.16 82.95,-36 80.4,-35.11 77.78,-34.17 75.14,-33.23"/>
<polygon fill="black" stroke="black" points="76.2,-29.89 65.61,-29.76 73.81,-36.47 76.2,-29.89"/>
</g>
<!-- NotReadyForSG? -->
<g id="node5" class="node">
<title>NotReadyForSG?</title>
<ellipse fill="gray" stroke="black" cx="138.95" cy="-18" rx="46.53" ry="18"/>
<text text-anchor="middle" x="138.95" y="-15.8" font-family="Times,serif" font-size="9.00">NotReadyForSG?</text>
</g>
<!-- Fallback*&#45;&gt;NotReadyForSG? -->
<g id="edge4" class="edge">
<title>Fallback*&#45;&gt;NotReadyForSG?</title>
<path fill="none" stroke="black" d="M222.9,-75.5C207.82,-65.35 186.89,-51.27 169.7,-39.7"/>
<polygon fill="black" stroke="black" points="171.35,-36.59 161.1,-33.91 167.44,-42.4 171.35,-36.59"/>
</g>
<!-- GetSubGoal!* -->
<g id="node6" class="node">
<title>GetSubGoal!*</title>
<ellipse fill="gray" stroke="black" cx="242.95" cy="-18" rx="39.02" ry="18"/>
<text text-anchor="middle" x="242.95" y="-15.8" font-family="Times,serif" font-size="9.00">GetSubGoal!*</text>
</g>
<!-- Fallback*&#45;&gt;GetSubGoal!* -->
<g id="edge5" class="edge">
<title>Fallback*&#45;&gt;GetSubGoal!*</title>
<path fill="none" stroke="black" d="M242.95,-71.7C242.95,-63.98 242.95,-54.71 242.95,-46.11"/>
<polygon fill="black" stroke="black" points="246.45,-46.1 242.95,-36.1 239.45,-46.1 246.45,-46.1"/>
</g>
<!-- GetSubGoal!** -->
<g id="node7" class="node">
<title>GetSubGoal!**</title>
<ellipse fill="gray" stroke="black" cx="341.95" cy="-18" rx="42.29" ry="18"/>
<text text-anchor="middle" x="341.95" y="-15.8" font-family="Times,serif" font-size="9.00">GetSubGoal!**</text>
</g>
<!-- Fallback*&#45;&gt;GetSubGoal!** -->
<g id="edge6" class="edge">
<title>Fallback*&#45;&gt;GetSubGoal!**</title>
<path fill="none" stroke="black" d="M262.51,-75.17C276.77,-65.08 296.35,-51.24 312.5,-39.82"/>
<polygon fill="black" stroke="black" points="314.92,-42.4 321.06,-33.77 310.88,-36.68 314.92,-42.4"/>
</g>
<!-- LkClose? -->
<g id="node8" class="node">
<title>LkClose?</title>
<ellipse fill="gray" stroke="black" cx="430.95" cy="-18" rx="28.74" ry="18"/>
<text text-anchor="middle" x="430.95" y="-15.8" font-family="Times,serif" font-size="9.00">LkClose?</text>
</g>
<!-- Fallback*&#45;&gt;LkClose? -->
<g id="edge7" class="edge">
<title>Fallback*&#45;&gt;LkClose?</title>
<path fill="none" stroke="black" d="M267.55,-78.45C272.93,-76.25 278.61,-73.99 283.95,-72 331.77,-54.22 345.38,-54.44 392.95,-36 395.03,-35.19 397.16,-34.33 399.3,-33.45"/>
<polygon fill="black" stroke="black" points="400.8,-36.61 408.61,-29.45 398.04,-30.18 400.8,-36.61"/>
</g>
<!-- LkClose?* -->
<g id="node12" class="node">
<title>LkClose?*</title>
<ellipse fill="gray" stroke="black" cx="486.95" cy="-90" rx="31.51" ry="18"/>
<text text-anchor="middle" x="486.95" y="-87.8" font-family="Times,serif" font-size="9.00">LkClose?*</text>
</g>
<!-- Sequence*&#45;&gt;LkClose?* -->
<g id="edge11" class="edge">
<title>Sequence*&#45;&gt;LkClose?*</title>
<path fill="none" stroke="black" d="M486.95,-143.7C486.95,-135.98 486.95,-126.71 486.95,-118.11"/>
<polygon fill="black" stroke="black" points="490.45,-118.1 486.95,-108.1 483.45,-118.1 490.45,-118.1"/>
</g>
<!-- GetLk! -->
<g id="node13" class="node">
<title>GetLk!</title>
<ellipse fill="gray" stroke="black" cx="563.95" cy="-90" rx="27" ry="18"/>
<text text-anchor="middle" x="563.95" y="-87.8" font-family="Times,serif" font-size="9.00">GetLk!</text>
</g>
<!-- Sequence*&#45;&gt;GetLk! -->
<g id="edge12" class="edge">
<title>Sequence*&#45;&gt;GetLk!</title>
<path fill="none" stroke="black" d="M504.04,-145.46C514.84,-135.65 528.93,-122.83 540.74,-112.1"/>
<polygon fill="black" stroke="black" points="543.43,-114.38 548.48,-105.07 538.72,-109.2 543.43,-114.38"/>
</g>
</g>
</svg>
