<?xml version="1.0" encoding="UTF-8" standalone="no"?>
<!DOCTYPE svg PUBLIC "-//W3C//DTD SVG 1.1//EN"
 "http://www.w3.org/Graphics/SVG/1.1/DTD/svg11.dtd">
<!-- Generated by graphviz version 2.43.0 (0)
 -->
<!-- Title: pastafarianism Pages: 1 -->
<svg width="548pt" height="332pt"
 viewBox="0.00 0.00 547.77 332.00" xmlns="http://www.w3.org/2000/svg" xmlns:xlink="http://www.w3.org/1999/xlink">
<g id="graph0" class="graph" transform="scale(1 1) rotate(0) translate(4 328)">
<title>pastafarianism</title>
<polygon fill="white" stroke="transparent" points="-4,4 -4,-328 543.77,-328 543.77,4 -4,4"/>
<!-- Fallback -->
<g id="node1" class="node">
<title>Fallback</title>
<polygon fill="cyan" stroke="black" points="387.01,-298.54 387.01,-313.46 369.88,-324 345.65,-324 328.52,-313.46 328.52,-298.54 345.65,-288 369.88,-288 387.01,-298.54"/>
<text text-anchor="middle" x="357.77" y="-303.8" font-family="Times,serif" font-size="9.00">Fallback</text>
</g>
<!-- Sequence -->
<g id="node2" class="node">
<title>Sequence</title>
<polygon fill="cyan" stroke="black" points="346.26,-226.54 346.26,-241.46 327.81,-252 301.72,-252 283.27,-241.46 283.27,-226.54 301.72,-216 327.81,-216 346.26,-226.54"/>
<text text-anchor="middle" x="314.77" y="-231.8" font-family="Times,serif" font-size="9.00">Sequence</text>
</g>
<!-- Fallback&#45;&gt;Sequence -->
<g id="edge1" class="edge">
<title>Fallback&#45;&gt;Sequence</title>
<path fill="none" stroke="black" d="M347.14,-287.7C342.14,-279.56 336.07,-269.69 330.55,-260.7"/>
<polygon fill="black" stroke="black" points="333.49,-258.79 325.27,-252.1 327.52,-262.46 333.49,-258.79"/>
</g>
<!-- Sequence** -->
<g id="node12" class="node">
<title>Sequence**</title>
<polygon fill="cyan" stroke="black" points="475.51,-226.54 475.51,-241.46 453.98,-252 423.55,-252 402.02,-241.46 402.02,-226.54 423.55,-216 453.98,-216 475.51,-226.54"/>
<text text-anchor="middle" x="438.77" y="-231.8" font-family="Times,serif" font-size="9.00">Sequence**</text>
</g>
<!-- Fallback&#45;&gt;Sequence** -->
<g id="edge11" class="edge">
<title>Fallback&#45;&gt;Sequence**</title>
<path fill="none" stroke="black" d="M374.55,-290.5C385.57,-280.97 400.22,-268.32 412.73,-257.5"/>
<polygon fill="black" stroke="black" points="415.32,-259.89 420.6,-250.7 410.74,-254.59 415.32,-259.89"/>
</g>
<!-- Fallback* -->
<g id="node3" class="node">
<title>Fallback*</title>
<polygon fill="cyan" stroke="black" points="229.51,-154.54 229.51,-169.46 210.91,-180 184.62,-180 166.02,-169.46 166.02,-154.54 184.62,-144 210.91,-144 229.51,-154.54"/>
<text text-anchor="middle" x="197.77" y="-159.8" font-family="Times,serif" font-size="9.00">Fallback*</text>
</g>
<!-- Sequence&#45;&gt;Fallback* -->
<g id="edge2" class="edge">
<title>Sequence&#45;&gt;Fallback*</title>
<path fill="none" stroke="black" d="M293.85,-220.49C275.41,-209.46 248.34,-193.26 227.63,-180.86"/>
<polygon fill="black" stroke="black" points="229.27,-177.77 218.9,-175.64 225.68,-183.78 229.27,-177.77"/>
</g>
<!-- MoveTo! -->
<g id="node10" class="node">
<title>MoveTo!</title>
<ellipse fill="gray" stroke="black" cx="276.77" cy="-162" rx="28.74" ry="18"/>
<text text-anchor="middle" x="276.77" y="-159.8" font-family="Times,serif" font-size="9.00">MoveTo!</text>
</g>
<!-- Sequence&#45;&gt;MoveTo! -->
<g id="edge9" class="edge">
<title>Sequence&#45;&gt;MoveTo!</title>
<path fill="none" stroke="black" d="M305.37,-215.7C300.94,-207.52 295.55,-197.6 290.65,-188.58"/>
<polygon fill="black" stroke="black" points="293.64,-186.74 285.79,-179.62 287.48,-190.08 293.64,-186.74"/>
</g>
<!-- ReachGoal? -->
<g id="node11" class="node">
<title>ReachGoal?</title>
<ellipse fill="gray" stroke="black" cx="357.77" cy="-162" rx="34.13" ry="18"/>
<text text-anchor="middle" x="357.77" y="-159.8" font-family="Times,serif" font-size="9.00">ReachGoal?</text>
</g>
<!-- Sequence&#45;&gt;ReachGoal? -->
<g id="edge10" class="edge">
<title>Sequence&#45;&gt;ReachGoal?</title>
<path fill="none" stroke="black" d="M325.39,-215.7C330.47,-207.44 336.64,-197.39 342.22,-188.3"/>
<polygon fill="black" stroke="black" points="345.3,-189.98 347.55,-179.62 339.34,-186.31 345.3,-189.98"/>
</g>
<!-- NotReadyForSG? -->
<g id="node4" class="node">
<title>NotReadyForSG?</title>
<ellipse fill="gray" stroke="black" cx="46.77" cy="-90" rx="46.53" ry="18"/>
<text text-anchor="middle" x="46.77" y="-87.8" font-family="Times,serif" font-size="9.00">NotReadyForSG?</text>
</g>
<!-- Fallback*&#45;&gt;NotReadyForSG? -->
<g id="edge3" class="edge">
<title>Fallback*&#45;&gt;NotReadyForSG?</title>
<path fill="none" stroke="black" d="M173.84,-149.91C149.86,-138.79 112.57,-121.51 84.58,-108.53"/>
<polygon fill="black" stroke="black" points="86.02,-105.34 75.48,-104.31 83.08,-111.69 86.02,-105.34"/>
</g>
<!-- GetSubGoal! -->
<g id="node5" class="node">
<title>GetSubGoal!</title>
<ellipse fill="gray" stroke="black" cx="148.77" cy="-90" rx="36.9" ry="18"/>
<text text-anchor="middle" x="148.77" y="-87.8" font-family="Times,serif" font-size="9.00">GetSubGoal!</text>
</g>
<!-- Fallback*&#45;&gt;GetSubGoal! -->
<g id="edge4" class="edge">
<title>Fallback*&#45;&gt;GetSubGoal!</title>
<path fill="none" stroke="black" d="M185.65,-143.7C179.73,-135.23 172.49,-124.89 165.99,-115.61"/>
<polygon fill="black" stroke="black" points="168.67,-113.33 160.07,-107.14 162.93,-117.34 168.67,-113.33"/>
</g>
<!-- CompLkGraph! -->
<g id="node6" class="node">
<title>CompLkGraph!</title>
<ellipse fill="gray" stroke="black" cx="246.77" cy="-90" rx="42.95" ry="18"/>
<text text-anchor="middle" x="246.77" y="-87.8" font-family="Times,serif" font-size="9.00">CompLkGraph!</text>
</g>
<!-- Fallback*&#45;&gt;CompLkGraph! -->
<g id="edge5" class="edge">
<title>Fallback*&#45;&gt;CompLkGraph!</title>
<path fill="none" stroke="black" d="M209.88,-143.7C215.72,-135.35 222.84,-125.18 229.25,-116.02"/>
<polygon fill="black" stroke="black" points="232.26,-117.82 235.13,-107.62 226.53,-113.81 232.26,-117.82"/>
</g>
<!-- Sequence* -->
<g id="node7" class="node">
<title>Sequence*</title>
<polygon fill="cyan" stroke="black" points="376.01,-82.54 376.01,-97.46 355.95,-108 327.58,-108 307.52,-97.46 307.52,-82.54 327.58,-72 355.95,-72 376.01,-82.54"/>
<text text-anchor="middle" x="341.77" y="-87.8" font-family="Times,serif" font-size="9.00">Sequence*</text>
</g>
<!-- Fallback*&#45;&gt;Sequence* -->
<g id="edge6" class="edge">
<title>Fallback*&#45;&gt;Sequence*</title>
<path fill="none" stroke="black" d="M221.22,-149.6C244.79,-138.14 281.34,-120.37 308.02,-107.41"/>
<polygon fill="black" stroke="black" points="309.89,-110.39 317.36,-102.87 306.83,-104.09 309.89,-110.39"/>
</g>
<!-- CompLkGraph!* -->
<g id="node8" class="node">
<title>CompLkGraph!*</title>
<ellipse fill="gray" stroke="black" cx="290.77" cy="-18" rx="45.07" ry="18"/>
<text text-anchor="middle" x="290.77" y="-15.8" font-family="Times,serif" font-size="9.00">CompLkGraph!*</text>
</g>
<!-- Sequence*&#45;&gt;CompLkGraph!* -->
<g id="edge7" class="edge">
<title>Sequence*&#45;&gt;CompLkGraph!*</title>
<path fill="none" stroke="black" d="M329.16,-71.7C323.02,-63.27 315.52,-52.97 308.78,-43.73"/>
<polygon fill="black" stroke="black" points="311.59,-41.64 302.88,-35.62 305.94,-45.77 311.59,-41.64"/>
</g>
<!-- GetSubGoal!* -->
<g id="node9" class="node">
<title>GetSubGoal!*</title>
<ellipse fill="gray" stroke="black" cx="392.77" cy="-18" rx="39.02" ry="18"/>
<text text-anchor="middle" x="392.77" y="-15.8" font-family="Times,serif" font-size="9.00">GetSubGoal!*</text>
</g>
<!-- Sequence*&#45;&gt;GetSubGoal!* -->
<g id="edge8" class="edge">
<title>Sequence*&#45;&gt;GetSubGoal!*</title>
<path fill="none" stroke="black" d="M354.37,-71.7C360.51,-63.27 368.01,-52.97 374.75,-43.73"/>
<polygon fill="black" stroke="black" points="377.6,-45.77 380.65,-35.62 371.94,-41.64 377.6,-45.77"/>
</g>
<!-- LkClose? -->
<g id="node13" class="node">
<title>LkClose?</title>
<ellipse fill="gray" stroke="black" cx="438.77" cy="-162" rx="28.74" ry="18"/>
<text text-anchor="middle" x="438.77" y="-159.8" font-family="Times,serif" font-size="9.00">LkClose?</text>
</g>
<!-- Sequence**&#45;&gt;LkClose? -->
<g id="edge12" class="edge">
<title>Sequence**&#45;&gt;LkClose?</title>
<path fill="none" stroke="black" d="M438.77,-215.7C438.77,-207.98 438.77,-198.71 438.77,-190.11"/>
<polygon fill="black" stroke="black" points="442.27,-190.1 438.77,-180.1 435.27,-190.1 442.27,-190.1"/>
</g>
<!-- GetLk! -->
<g id="node14" class="node">
<title>GetLk!</title>
<ellipse fill="gray" stroke="black" cx="512.77" cy="-162" rx="27" ry="18"/>
<text text-anchor="middle" x="512.77" y="-159.8" font-family="Times,serif" font-size="9.00">GetLk!</text>
</g>
<!-- Sequence**&#45;&gt;GetLk! -->
<g id="edge13" class="edge">
<title>Sequence**&#45;&gt;GetLk!</title>
<path fill="none" stroke="black" d="M455.93,-216.76C466.2,-207.05 479.36,-194.6 490.43,-184.13"/>
<polygon fill="black" stroke="black" points="492.84,-186.66 497.7,-177.25 488.03,-181.58 492.84,-186.66"/>
</g>
</g>
</svg>
