<?xml version="1.0" encoding="UTF-8" standalone="no"?>
<!DOCTYPE svg PUBLIC "-//W3C//DTD SVG 1.1//EN"
 "http://www.w3.org/Graphics/SVG/1.1/DTD/svg11.dtd">
<!-- Generated by graphviz version 2.43.0 (0)
 -->
<!-- Title: pastafarianism Pages: 1 -->
<svg width="448pt" height="260pt"
 viewBox="0.00 0.00 447.77 260.00" xmlns="http://www.w3.org/2000/svg" xmlns:xlink="http://www.w3.org/1999/xlink">
<g id="graph0" class="graph" transform="scale(1 1) rotate(0) translate(4 256)">
<title>pastafarianism</title>
<polygon fill="white" stroke="transparent" points="-4,4 -4,-256 443.77,-256 443.77,4 -4,4"/>
<!-- Fallback -->
<g id="node1" class="node">
<title>Fallback</title>
<polygon fill="cyan" stroke="black" points="287.01,-226.54 287.01,-241.46 269.88,-252 245.65,-252 228.52,-241.46 228.52,-226.54 245.65,-216 269.88,-216 287.01,-226.54"/>
<text text-anchor="middle" x="257.77" y="-231.8" font-family="Times,serif" font-size="9.00">Fallback</text>
</g>
<!-- Sequence -->
<g id="node2" class="node">
<title>Sequence</title>
<polygon fill="cyan" stroke="black" points="247.26,-154.54 247.26,-169.46 228.81,-180 202.72,-180 184.27,-169.46 184.27,-154.54 202.72,-144 228.81,-144 247.26,-154.54"/>
<text text-anchor="middle" x="215.77" y="-159.8" font-family="Times,serif" font-size="9.00">Sequence</text>
</g>
<!-- Fallback&#45;&gt;Sequence -->
<g id="edge1" class="edge">
<title>Fallback&#45;&gt;Sequence</title>
<path fill="none" stroke="black" d="M247.38,-215.7C242.5,-207.56 236.58,-197.69 231.19,-188.7"/>
<polygon fill="black" stroke="black" points="234.17,-186.88 226.03,-180.1 228.17,-190.48 234.17,-186.88"/>
</g>
<!-- Sequence* -->
<g id="node8" class="node">
<title>Sequence*</title>
<polygon fill="cyan" stroke="black" points="373.01,-154.54 373.01,-169.46 352.95,-180 324.58,-180 304.52,-169.46 304.52,-154.54 324.58,-144 352.95,-144 373.01,-154.54"/>
<text text-anchor="middle" x="338.77" y="-159.8" font-family="Times,serif" font-size="9.00">Sequence*</text>
</g>
<!-- Fallback&#45;&gt;Sequence* -->
<g id="edge7" class="edge">
<title>Fallback&#45;&gt;Sequence*</title>
<path fill="none" stroke="black" d="M274.55,-218.5C285.72,-208.84 300.62,-195.97 313.25,-185.05"/>
<polygon fill="black" stroke="black" points="315.89,-187.4 321.16,-178.21 311.31,-182.1 315.89,-187.4"/>
</g>
<!-- Fallback* -->
<g id="node3" class="node">
<title>Fallback*</title>
<polygon fill="cyan" stroke="black" points="129.51,-82.54 129.51,-97.46 110.91,-108 84.62,-108 66.02,-97.46 66.02,-82.54 84.62,-72 110.91,-72 129.51,-82.54"/>
<text text-anchor="middle" x="97.77" y="-87.8" font-family="Times,serif" font-size="9.00">Fallback*</text>
</g>
<!-- Sequence&#45;&gt;Fallback* -->
<g id="edge2" class="edge">
<title>Sequence&#45;&gt;Fallback*</title>
<path fill="none" stroke="black" d="M194.67,-148.49C176.08,-137.46 148.77,-121.26 127.88,-108.86"/>
<polygon fill="black" stroke="black" points="129.46,-105.73 119.08,-103.64 125.89,-111.75 129.46,-105.73"/>
</g>
<!-- MoveTo! -->
<g id="node6" class="node">
<title>MoveTo!</title>
<ellipse fill="gray" stroke="black" cx="176.77" cy="-90" rx="28.74" ry="18"/>
<text text-anchor="middle" x="176.77" y="-87.8" font-family="Times,serif" font-size="9.00">MoveTo!</text>
</g>
<!-- Sequence&#45;&gt;MoveTo! -->
<g id="edge5" class="edge">
<title>Sequence&#45;&gt;MoveTo!</title>
<path fill="none" stroke="black" d="M206.12,-143.7C201.46,-135.32 195.76,-125.1 190.64,-115.9"/>
<polygon fill="black" stroke="black" points="193.68,-114.18 185.76,-107.14 187.57,-117.58 193.68,-114.18"/>
</g>
<!-- ReachGoal? -->
<g id="node7" class="node">
<title>ReachGoal?</title>
<ellipse fill="gray" stroke="black" cx="257.77" cy="-90" rx="34.13" ry="18"/>
<text text-anchor="middle" x="257.77" y="-87.8" font-family="Times,serif" font-size="9.00">ReachGoal?</text>
</g>
<!-- Sequence&#45;&gt;ReachGoal? -->
<g id="edge6" class="edge">
<title>Sequence&#45;&gt;ReachGoal?</title>
<path fill="none" stroke="black" d="M226.15,-143.7C231.1,-135.44 237.13,-125.39 242.59,-116.3"/>
<polygon fill="black" stroke="black" points="245.65,-118 247.79,-107.62 239.65,-114.4 245.65,-118"/>
</g>
<!-- NotReadyForSG? -->
<g id="node4" class="node">
<title>NotReadyForSG?</title>
<ellipse fill="gray" stroke="black" cx="46.77" cy="-18" rx="46.53" ry="18"/>
<text text-anchor="middle" x="46.77" y="-15.8" font-family="Times,serif" font-size="9.00">NotReadyForSG?</text>
</g>
<!-- Fallback*&#45;&gt;NotReadyForSG? -->
<g id="edge3" class="edge">
<title>Fallback*&#45;&gt;NotReadyForSG?</title>
<path fill="none" stroke="black" d="M85.16,-71.7C79.02,-63.27 71.52,-52.97 64.78,-43.73"/>
<polygon fill="black" stroke="black" points="67.59,-41.64 58.88,-35.62 61.94,-45.77 67.59,-41.64"/>
</g>
<!-- GetSubGoal! -->
<g id="node5" class="node">
<title>GetSubGoal!</title>
<ellipse fill="gray" stroke="black" cx="148.77" cy="-18" rx="36.9" ry="18"/>
<text text-anchor="middle" x="148.77" y="-15.8" font-family="Times,serif" font-size="9.00">GetSubGoal!</text>
</g>
<!-- Fallback*&#45;&gt;GetSubGoal! -->
<g id="edge4" class="edge">
<title>Fallback*&#45;&gt;GetSubGoal!</title>
<path fill="none" stroke="black" d="M110.37,-71.7C116.61,-63.14 124.23,-52.67 131.04,-43.33"/>
<polygon fill="black" stroke="black" points="133.94,-45.29 137,-35.14 128.29,-41.17 133.94,-45.29"/>
</g>
<!-- LkClose? -->
<g id="node9" class="node">
<title>LkClose?</title>
<ellipse fill="gray" stroke="black" cx="338.77" cy="-90" rx="28.74" ry="18"/>
<text text-anchor="middle" x="338.77" y="-87.8" font-family="Times,serif" font-size="9.00">LkClose?</text>
</g>
<!-- Sequence*&#45;&gt;LkClose? -->
<g id="edge8" class="edge">
<title>Sequence*&#45;&gt;LkClose?</title>
<path fill="none" stroke="black" d="M338.77,-143.7C338.77,-135.98 338.77,-126.71 338.77,-118.11"/>
<polygon fill="black" stroke="black" points="342.27,-118.1 338.77,-108.1 335.27,-118.1 342.27,-118.1"/>
</g>
<!-- GetLk! -->
<g id="node10" class="node">
<title>GetLk!</title>
<ellipse fill="gray" stroke="black" cx="412.77" cy="-90" rx="27" ry="18"/>
<text text-anchor="middle" x="412.77" y="-87.8" font-family="Times,serif" font-size="9.00">GetLk!</text>
</g>
<!-- Sequence*&#45;&gt;GetLk! -->
<g id="edge9" class="edge">
<title>Sequence*&#45;&gt;GetLk!</title>
<path fill="none" stroke="black" d="M355.56,-145.12C365.81,-135.41 379.06,-122.89 390.22,-112.33"/>
<polygon fill="black" stroke="black" points="392.69,-114.81 397.55,-105.39 387.88,-109.72 392.69,-114.81"/>
</g>
</g>
</svg>
