<?xml version="1.0" encoding="UTF-8" standalone="no"?>
<!DOCTYPE svg PUBLIC "-//W3C//DTD SVG 1.1//EN"
 "http://www.w3.org/Graphics/SVG/1.1/DTD/svg11.dtd">
<!-- Generated by graphviz version 2.43.0 (0)
 -->
<!-- Title: pastafarianism Pages: 1 -->
<svg width="499pt" height="404pt"
 viewBox="0.00 0.00 498.77 404.00" xmlns="http://www.w3.org/2000/svg" xmlns:xlink="http://www.w3.org/1999/xlink">
<g id="graph0" class="graph" transform="scale(1 1) rotate(0) translate(4 400)">
<title>pastafarianism</title>
<polygon fill="white" stroke="transparent" points="-4,4 -4,-400 494.77,-400 494.77,4 -4,4"/>
<!-- Fallback -->
<g id="node1" class="node">
<title>Fallback</title>
<polygon fill="cyan" stroke="black" points="338.01,-370.54 338.01,-385.46 320.88,-396 296.65,-396 279.52,-385.46 279.52,-370.54 296.65,-360 320.88,-360 338.01,-370.54"/>
<text text-anchor="middle" x="308.77" y="-375.8" font-family="Times,serif" font-size="9.00">Fallback</text>
</g>
<!-- Sequence -->
<g id="node2" class="node">
<title>Sequence</title>
<polygon fill="cyan" stroke="black" points="297.26,-298.54 297.26,-313.46 278.81,-324 252.72,-324 234.27,-313.46 234.27,-298.54 252.72,-288 278.81,-288 297.26,-298.54"/>
<text text-anchor="middle" x="265.77" y="-303.8" font-family="Times,serif" font-size="9.00">Sequence</text>
</g>
<!-- Fallback&#45;&gt;Sequence -->
<g id="edge1" class="edge">
<title>Fallback&#45;&gt;Sequence</title>
<path fill="none" stroke="black" d="M298.14,-359.7C293.14,-351.56 287.07,-341.69 281.55,-332.7"/>
<polygon fill="black" stroke="black" points="284.49,-330.79 276.27,-324.1 278.52,-334.46 284.49,-330.79"/>
</g>
<!-- Sequence** -->
<g id="node16" class="node">
<title>Sequence**</title>
<polygon fill="cyan" stroke="black" points="426.51,-298.54 426.51,-313.46 404.98,-324 374.55,-324 353.02,-313.46 353.02,-298.54 374.55,-288 404.98,-288 426.51,-298.54"/>
<text text-anchor="middle" x="389.77" y="-303.8" font-family="Times,serif" font-size="9.00">Sequence**</text>
</g>
<!-- Fallback&#45;&gt;Sequence** -->
<g id="edge15" class="edge">
<title>Fallback&#45;&gt;Sequence**</title>
<path fill="none" stroke="black" d="M325.55,-362.5C336.57,-352.97 351.22,-340.32 363.73,-329.5"/>
<polygon fill="black" stroke="black" points="366.32,-331.89 371.6,-322.7 361.74,-326.59 366.32,-331.89"/>
</g>
<!-- Fallback* -->
<g id="node3" class="node">
<title>Fallback*</title>
<polygon fill="cyan" stroke="black" points="180.51,-226.54 180.51,-241.46 161.91,-252 135.62,-252 117.02,-241.46 117.02,-226.54 135.62,-216 161.91,-216 180.51,-226.54"/>
<text text-anchor="middle" x="148.77" y="-231.8" font-family="Times,serif" font-size="9.00">Fallback*</text>
</g>
<!-- Sequence&#45;&gt;Fallback* -->
<g id="edge2" class="edge">
<title>Sequence&#45;&gt;Fallback*</title>
<path fill="none" stroke="black" d="M244.85,-292.49C226.41,-281.46 199.34,-265.26 178.63,-252.86"/>
<polygon fill="black" stroke="black" points="180.27,-249.77 169.9,-247.64 176.68,-255.78 180.27,-249.77"/>
</g>
<!-- MoveTo! -->
<g id="node14" class="node">
<title>MoveTo!</title>
<ellipse fill="gray" stroke="black" cx="227.77" cy="-234" rx="28.74" ry="18"/>
<text text-anchor="middle" x="227.77" y="-231.8" font-family="Times,serif" font-size="9.00">MoveTo!</text>
</g>
<!-- Sequence&#45;&gt;MoveTo! -->
<g id="edge13" class="edge">
<title>Sequence&#45;&gt;MoveTo!</title>
<path fill="none" stroke="black" d="M256.37,-287.7C251.94,-279.52 246.55,-269.6 241.65,-260.58"/>
<polygon fill="black" stroke="black" points="244.64,-258.74 236.79,-251.62 238.48,-262.08 244.64,-258.74"/>
</g>
<!-- ReachGoal? -->
<g id="node15" class="node">
<title>ReachGoal?</title>
<ellipse fill="gray" stroke="black" cx="308.77" cy="-234" rx="34.13" ry="18"/>
<text text-anchor="middle" x="308.77" y="-231.8" font-family="Times,serif" font-size="9.00">ReachGoal?</text>
</g>
<!-- Sequence&#45;&gt;ReachGoal? -->
<g id="edge14" class="edge">
<title>Sequence&#45;&gt;ReachGoal?</title>
<path fill="none" stroke="black" d="M276.39,-287.7C281.47,-279.44 287.64,-269.39 293.22,-260.3"/>
<polygon fill="black" stroke="black" points="296.3,-261.98 298.55,-251.62 290.34,-258.31 296.3,-261.98"/>
</g>
<!-- NotReadyForSG? -->
<g id="node4" class="node">
<title>NotReadyForSG?</title>
<ellipse fill="gray" stroke="black" cx="46.77" cy="-162" rx="46.53" ry="18"/>
<text text-anchor="middle" x="46.77" y="-159.8" font-family="Times,serif" font-size="9.00">NotReadyForSG?</text>
</g>
<!-- Fallback*&#45;&gt;NotReadyForSG? -->
<g id="edge3" class="edge">
<title>Fallback*&#45;&gt;NotReadyForSG?</title>
<path fill="none" stroke="black" d="M129.1,-219.5C114.41,-209.42 94.05,-195.45 77.26,-183.93"/>
<polygon fill="black" stroke="black" points="79.08,-180.93 68.85,-178.16 75.12,-186.7 79.08,-180.93"/>
</g>
<!-- GetSubGoal! -->
<g id="node5" class="node">
<title>GetSubGoal!</title>
<ellipse fill="gray" stroke="black" cx="148.77" cy="-162" rx="36.9" ry="18"/>
<text text-anchor="middle" x="148.77" y="-159.8" font-family="Times,serif" font-size="9.00">GetSubGoal!</text>
</g>
<!-- Fallback*&#45;&gt;GetSubGoal! -->
<g id="edge4" class="edge">
<title>Fallback*&#45;&gt;GetSubGoal!</title>
<path fill="none" stroke="black" d="M148.77,-215.7C148.77,-207.98 148.77,-198.71 148.77,-190.11"/>
<polygon fill="black" stroke="black" points="152.27,-190.1 148.77,-180.1 145.27,-190.1 152.27,-190.1"/>
</g>
<!-- Sequence* -->
<g id="node6" class="node">
<title>Sequence*</title>
<polygon fill="cyan" stroke="black" points="272.01,-154.54 272.01,-169.46 251.95,-180 223.58,-180 203.52,-169.46 203.52,-154.54 223.58,-144 251.95,-144 272.01,-154.54"/>
<text text-anchor="middle" x="237.77" y="-159.8" font-family="Times,serif" font-size="9.00">Sequence*</text>
</g>
<!-- Fallback*&#45;&gt;Sequence* -->
<g id="edge5" class="edge">
<title>Fallback*&#45;&gt;Sequence*</title>
<path fill="none" stroke="black" d="M167.21,-218.5C179.89,-208.52 196.93,-195.11 211.09,-183.98"/>
<polygon fill="black" stroke="black" points="213.35,-186.66 219.04,-177.73 209.02,-181.16 213.35,-186.66"/>
</g>
<!-- CompLkGraph! -->
<g id="node7" class="node">
<title>CompLkGraph!</title>
<ellipse fill="gray" stroke="black" cx="141.77" cy="-90" rx="42.95" ry="18"/>
<text text-anchor="middle" x="141.77" y="-87.8" font-family="Times,serif" font-size="9.00">CompLkGraph!</text>
</g>
<!-- Sequence*&#45;&gt;CompLkGraph! -->
<g id="edge6" class="edge">
<title>Sequence*&#45;&gt;CompLkGraph!</title>
<path fill="none" stroke="black" d="M217.87,-146.5C204.16,-136.49 185.71,-123.05 170.42,-111.89"/>
<polygon fill="black" stroke="black" points="172.44,-109.03 162.29,-105.97 168.31,-114.69 172.44,-109.03"/>
</g>
<!-- Fallback** -->
<g id="node8" class="node">
<title>Fallback**</title>
<polygon fill="cyan" stroke="black" points="272.76,-82.54 272.76,-97.46 252.26,-108 223.27,-108 202.77,-97.46 202.77,-82.54 223.27,-72 252.26,-72 272.76,-82.54"/>
<text text-anchor="middle" x="237.77" y="-87.8" font-family="Times,serif" font-size="9.00">Fallback**</text>
</g>
<!-- Sequence*&#45;&gt;Fallback** -->
<g id="edge7" class="edge">
<title>Sequence*&#45;&gt;Fallback**</title>
<path fill="none" stroke="black" d="M237.77,-143.7C237.77,-135.98 237.77,-126.71 237.77,-118.11"/>
<polygon fill="black" stroke="black" points="241.27,-118.1 237.77,-108.1 234.27,-118.1 241.27,-118.1"/>
</g>
<!-- GetSubGoal!*** -->
<g id="node13" class="node">
<title>GetSubGoal!***</title>
<ellipse fill="gray" stroke="black" cx="334.77" cy="-90" rx="44.41" ry="18"/>
<text text-anchor="middle" x="334.77" y="-87.8" font-family="Times,serif" font-size="9.00">GetSubGoal!***</text>
</g>
<!-- Sequence*&#45;&gt;GetSubGoal!*** -->
<g id="edge12" class="edge">
<title>Sequence*&#45;&gt;GetSubGoal!***</title>
<path fill="none" stroke="black" d="M257.39,-146.83C271.22,-136.86 289.97,-123.33 305.55,-112.09"/>
<polygon fill="black" stroke="black" points="307.76,-114.8 313.82,-106.11 303.67,-109.13 307.76,-114.8"/>
</g>
<!-- GetSubGoal!* -->
<g id="node9" class="node">
<title>GetSubGoal!*</title>
<ellipse fill="gray" stroke="black" cx="75.77" cy="-18" rx="39.02" ry="18"/>
<text text-anchor="middle" x="75.77" y="-15.8" font-family="Times,serif" font-size="9.00">GetSubGoal!*</text>
</g>
<!-- Fallback**&#45;&gt;GetSubGoal!* -->
<g id="edge8" class="edge">
<title>Fallback**&#45;&gt;GetSubGoal!*</title>
<path fill="none" stroke="black" d="M211.74,-77.75C184.94,-66.18 142.95,-48.03 112.72,-34.97"/>
<polygon fill="black" stroke="black" points="113.92,-31.68 103.36,-30.92 111.15,-38.1 113.92,-31.68"/>
</g>
<!-- NotReadyForSG?* -->
<g id="node10" class="node">
<title>NotReadyForSG?*</title>
<ellipse fill="gray" stroke="black" cx="182.77" cy="-18" rx="49.8" ry="18"/>
<text text-anchor="middle" x="182.77" y="-15.8" font-family="Times,serif" font-size="9.00">NotReadyForSG?*</text>
</g>
<!-- Fallback**&#45;&gt;NotReadyForSG?* -->
<g id="edge9" class="edge">
<title>Fallback**&#45;&gt;NotReadyForSG?*</title>
<path fill="none" stroke="black" d="M224.17,-71.7C217.55,-63.27 209.46,-52.97 202.2,-43.73"/>
<polygon fill="black" stroke="black" points="204.76,-41.32 195.83,-35.62 199.25,-45.65 204.76,-41.32"/>
</g>
<!-- GetSubGoal!** -->
<g id="node11" class="node">
<title>GetSubGoal!**</title>
<ellipse fill="gray" stroke="black" cx="292.77" cy="-18" rx="42.29" ry="18"/>
<text text-anchor="middle" x="292.77" y="-15.8" font-family="Times,serif" font-size="9.00">GetSubGoal!**</text>
</g>
<!-- Fallback**&#45;&gt;GetSubGoal!** -->
<g id="edge10" class="edge">
<title>Fallback**&#45;&gt;GetSubGoal!**</title>
<path fill="none" stroke="black" d="M251.36,-71.7C257.99,-63.27 266.07,-52.97 273.33,-43.73"/>
<polygon fill="black" stroke="black" points="276.28,-45.65 279.7,-35.62 270.77,-41.32 276.28,-45.65"/>
</g>
<!-- CompLkGraph!* -->
<g id="node12" class="node">
<title>CompLkGraph!*</title>
<ellipse fill="gray" stroke="black" cx="397.77" cy="-18" rx="45.07" ry="18"/>
<text text-anchor="middle" x="397.77" y="-15.8" font-family="Times,serif" font-size="9.00">CompLkGraph!*</text>
</g>
<!-- Fallback**&#45;&gt;CompLkGraph!* -->
<g id="edge11" class="edge">
<title>Fallback**&#45;&gt;CompLkGraph!*</title>
<path fill="none" stroke="black" d="M263.47,-77.75C289.38,-66.42 329.67,-48.79 359.36,-35.8"/>
<polygon fill="black" stroke="black" points="360.84,-38.98 368.6,-31.76 358.03,-32.56 360.84,-38.98"/>
</g>
<!-- LkClose? -->
<g id="node17" class="node">
<title>LkClose?</title>
<ellipse fill="gray" stroke="black" cx="389.77" cy="-234" rx="28.74" ry="18"/>
<text text-anchor="middle" x="389.77" y="-231.8" font-family="Times,serif" font-size="9.00">LkClose?</text>
</g>
<!-- Sequence**&#45;&gt;LkClose? -->
<g id="edge16" class="edge">
<title>Sequence**&#45;&gt;LkClose?</title>
<path fill="none" stroke="black" d="M389.77,-287.7C389.77,-279.98 389.77,-270.71 389.77,-262.11"/>
<polygon fill="black" stroke="black" points="393.27,-262.1 389.77,-252.1 386.27,-262.1 393.27,-262.1"/>
</g>
<!-- GetLk! -->
<g id="node18" class="node">
<title>GetLk!</title>
<ellipse fill="gray" stroke="black" cx="463.77" cy="-234" rx="27" ry="18"/>
<text text-anchor="middle" x="463.77" y="-231.8" font-family="Times,serif" font-size="9.00">GetLk!</text>
</g>
<!-- Sequence**&#45;&gt;GetLk! -->
<g id="edge17" class="edge">
<title>Sequence**&#45;&gt;GetLk!</title>
<path fill="none" stroke="black" d="M406.93,-288.76C417.2,-279.05 430.36,-266.6 441.43,-256.13"/>
<polygon fill="black" stroke="black" points="443.84,-258.66 448.7,-249.25 439.03,-253.58 443.84,-258.66"/>
</g>
</g>
</svg>
