<?xml version="1.0" encoding="UTF-8" standalone="no"?>
<!DOCTYPE svg PUBLIC "-//W3C//DTD SVG 1.1//EN"
 "http://www.w3.org/Graphics/SVG/1.1/DTD/svg11.dtd">
<!-- Generated by graphviz version 2.43.0 (0)
 -->
<!-- Title: pastafarianism Pages: 1 -->
<svg width="599pt" height="332pt"
 viewBox="0.00 0.00 598.90 332.00" xmlns="http://www.w3.org/2000/svg" xmlns:xlink="http://www.w3.org/1999/xlink">
<g id="graph0" class="graph" transform="scale(1 1) rotate(0) translate(4 328)">
<title>pastafarianism</title>
<polygon fill="white" stroke="transparent" points="-4,4 -4,-328 594.9,-328 594.9,4 -4,4"/>
<!-- Fallback -->
<g id="node1" class="node">
<title>Fallback</title>
<polygon fill="cyan" stroke="black" points="433.01,-298.54 433.01,-313.46 415.88,-324 391.65,-324 374.52,-313.46 374.52,-298.54 391.65,-288 415.88,-288 433.01,-298.54"/>
<text text-anchor="middle" x="403.77" y="-303.8" font-family="Times,serif" font-size="9.00">Fallback</text>
</g>
<!-- Sequence -->
<g id="node2" class="node">
<title>Sequence</title>
<polygon fill="cyan" stroke="black" points="391.26,-226.54 391.26,-241.46 372.81,-252 346.72,-252 328.27,-241.46 328.27,-226.54 346.72,-216 372.81,-216 391.26,-226.54"/>
<text text-anchor="middle" x="359.77" y="-231.8" font-family="Times,serif" font-size="9.00">Sequence</text>
</g>
<!-- Fallback&#45;&gt;Sequence -->
<g id="edge1" class="edge">
<title>Fallback&#45;&gt;Sequence</title>
<path fill="none" stroke="black" d="M392.89,-287.7C387.77,-279.56 381.57,-269.69 375.92,-260.7"/>
<polygon fill="black" stroke="black" points="378.8,-258.71 370.52,-252.1 372.88,-262.43 378.8,-258.71"/>
</g>
<!-- Sequence*** -->
<g id="node15" class="node">
<title>Sequence***</title>
<polygon fill="cyan" stroke="black" points="526.76,-226.54 526.76,-241.46 503.33,-252 470.2,-252 446.78,-241.46 446.78,-226.54 470.2,-216 503.33,-216 526.76,-226.54"/>
<text text-anchor="middle" x="486.77" y="-231.8" font-family="Times,serif" font-size="9.00">Sequence***</text>
</g>
<!-- Fallback&#45;&gt;Sequence*** -->
<g id="edge14" class="edge">
<title>Fallback&#45;&gt;Sequence***</title>
<path fill="none" stroke="black" d="M420.56,-290.83C431.86,-281.31 447,-268.54 459.95,-257.62"/>
<polygon fill="black" stroke="black" points="462.28,-260.23 467.67,-251.1 457.77,-254.87 462.28,-260.23"/>
</g>
<!-- Fallback* -->
<g id="node3" class="node">
<title>Fallback*</title>
<polygon fill="cyan" stroke="black" points="274.51,-154.54 274.51,-169.46 255.91,-180 229.62,-180 211.02,-169.46 211.02,-154.54 229.62,-144 255.91,-144 274.51,-154.54"/>
<text text-anchor="middle" x="242.77" y="-159.8" font-family="Times,serif" font-size="9.00">Fallback*</text>
</g>
<!-- Sequence&#45;&gt;Fallback* -->
<g id="edge2" class="edge">
<title>Sequence&#45;&gt;Fallback*</title>
<path fill="none" stroke="black" d="M338.85,-220.49C320.41,-209.46 293.34,-193.26 272.63,-180.86"/>
<polygon fill="black" stroke="black" points="274.27,-177.77 263.9,-175.64 270.68,-183.78 274.27,-177.77"/>
</g>
<!-- MoveTo! -->
<g id="node13" class="node">
<title>MoveTo!</title>
<ellipse fill="gray" stroke="black" cx="321.77" cy="-162" rx="28.74" ry="18"/>
<text text-anchor="middle" x="321.77" y="-159.8" font-family="Times,serif" font-size="9.00">MoveTo!</text>
</g>
<!-- Sequence&#45;&gt;MoveTo! -->
<g id="edge12" class="edge">
<title>Sequence&#45;&gt;MoveTo!</title>
<path fill="none" stroke="black" d="M350.37,-215.7C345.94,-207.52 340.55,-197.6 335.65,-188.58"/>
<polygon fill="black" stroke="black" points="338.64,-186.74 330.79,-179.62 332.48,-190.08 338.64,-186.74"/>
</g>
<!-- ReachGoal? -->
<g id="node14" class="node">
<title>ReachGoal?</title>
<ellipse fill="gray" stroke="black" cx="402.77" cy="-162" rx="34.13" ry="18"/>
<text text-anchor="middle" x="402.77" y="-159.8" font-family="Times,serif" font-size="9.00">ReachGoal?</text>
</g>
<!-- Sequence&#45;&gt;ReachGoal? -->
<g id="edge13" class="edge">
<title>Sequence&#45;&gt;ReachGoal?</title>
<path fill="none" stroke="black" d="M370.39,-215.7C375.47,-207.44 381.64,-197.39 387.22,-188.3"/>
<polygon fill="black" stroke="black" points="390.3,-189.98 392.55,-179.62 384.34,-186.31 390.3,-189.98"/>
</g>
<!-- NotReadyForSG? -->
<g id="node4" class="node">
<title>NotReadyForSG?</title>
<ellipse fill="gray" stroke="black" cx="46.77" cy="-90" rx="46.53" ry="18"/>
<text text-anchor="middle" x="46.77" y="-87.8" font-family="Times,serif" font-size="9.00">NotReadyForSG?</text>
</g>
<!-- Fallback*&#45;&gt;NotReadyForSG? -->
<g id="edge3" class="edge">
<title>Fallback*&#45;&gt;NotReadyForSG?</title>
<path fill="none" stroke="black" d="M215.92,-151.41C183.39,-139.8 128.17,-120.07 89.7,-106.33"/>
<polygon fill="black" stroke="black" points="90.41,-102.87 79.82,-102.8 88.06,-109.46 90.41,-102.87"/>
</g>
<!-- GetSubGoal! -->
<g id="node5" class="node">
<title>GetSubGoal!</title>
<ellipse fill="gray" stroke="black" cx="148.77" cy="-90" rx="36.9" ry="18"/>
<text text-anchor="middle" x="148.77" y="-87.8" font-family="Times,serif" font-size="9.00">GetSubGoal!</text>
</g>
<!-- Fallback*&#45;&gt;GetSubGoal! -->
<g id="edge4" class="edge">
<title>Fallback*&#45;&gt;GetSubGoal!</title>
<path fill="none" stroke="black" d="M223.74,-146.83C210.07,-136.65 191.44,-122.78 176.17,-111.41"/>
<polygon fill="black" stroke="black" points="178.19,-108.55 168.08,-105.38 174.01,-114.16 178.19,-108.55"/>
</g>
<!-- GetSubGoal!* -->
<g id="node6" class="node">
<title>GetSubGoal!*</title>
<ellipse fill="gray" stroke="black" cx="242.77" cy="-90" rx="39.02" ry="18"/>
<text text-anchor="middle" x="242.77" y="-87.8" font-family="Times,serif" font-size="9.00">GetSubGoal!*</text>
</g>
<!-- Fallback*&#45;&gt;GetSubGoal!* -->
<g id="edge5" class="edge">
<title>Fallback*&#45;&gt;GetSubGoal!*</title>
<path fill="none" stroke="black" d="M242.77,-143.7C242.77,-135.98 242.77,-126.71 242.77,-118.11"/>
<polygon fill="black" stroke="black" points="246.27,-118.1 242.77,-108.1 239.27,-118.1 246.27,-118.1"/>
</g>
<!-- Sequence* -->
<g id="node7" class="node">
<title>Sequence*</title>
<polygon fill="cyan" stroke="black" points="369.01,-82.54 369.01,-97.46 348.95,-108 320.58,-108 300.52,-97.46 300.52,-82.54 320.58,-72 348.95,-72 369.01,-82.54"/>
<text text-anchor="middle" x="334.77" y="-87.8" font-family="Times,serif" font-size="9.00">Sequence*</text>
</g>
<!-- Fallback*&#45;&gt;Sequence* -->
<g id="edge6" class="edge">
<title>Fallback*&#45;&gt;Sequence*</title>
<path fill="none" stroke="black" d="M261.38,-146.83C274.55,-136.82 292.42,-123.22 307.23,-111.95"/>
<polygon fill="black" stroke="black" points="309.7,-114.47 315.54,-105.63 305.46,-108.9 309.7,-114.47"/>
</g>
<!-- Sequence** -->
<g id="node10" class="node">
<title>Sequence**</title>
<polygon fill="cyan" stroke="black" points="460.51,-82.54 460.51,-97.46 438.98,-108 408.55,-108 387.02,-97.46 387.02,-82.54 408.55,-72 438.98,-72 460.51,-82.54"/>
<text text-anchor="middle" x="423.77" y="-87.8" font-family="Times,serif" font-size="9.00">Sequence**</text>
</g>
<!-- Fallback*&#45;&gt;Sequence** -->
<g id="edge9" class="edge">
<title>Fallback*&#45;&gt;Sequence**</title>
<path fill="none" stroke="black" d="M267.87,-150.45C273.11,-148.28 278.61,-146.04 283.77,-144 318.13,-130.38 357.52,-115.53 385.75,-105.03"/>
<polygon fill="black" stroke="black" points="387.09,-108.26 395.24,-101.5 384.65,-101.7 387.09,-108.26"/>
</g>
<!-- CompLkGraph! -->
<g id="node8" class="node">
<title>CompLkGraph!</title>
<ellipse fill="gray" stroke="black" cx="231.77" cy="-18" rx="42.95" ry="18"/>
<text text-anchor="middle" x="231.77" y="-15.8" font-family="Times,serif" font-size="9.00">CompLkGraph!</text>
</g>
<!-- Sequence*&#45;&gt;CompLkGraph! -->
<g id="edge7" class="edge">
<title>Sequence*&#45;&gt;CompLkGraph!</title>
<path fill="none" stroke="black" d="M314.42,-75.17C299.44,-64.99 278.83,-50.99 261.94,-39.51"/>
<polygon fill="black" stroke="black" points="263.73,-36.49 253.49,-33.77 259.8,-42.28 263.73,-36.49"/>
</g>
<!-- GetSubGoal!** -->
<g id="node9" class="node">
<title>GetSubGoal!**</title>
<ellipse fill="gray" stroke="black" cx="334.77" cy="-18" rx="42.29" ry="18"/>
<text text-anchor="middle" x="334.77" y="-15.8" font-family="Times,serif" font-size="9.00">GetSubGoal!**</text>
</g>
<!-- Sequence*&#45;&gt;GetSubGoal!** -->
<g id="edge8" class="edge">
<title>Sequence*&#45;&gt;GetSubGoal!**</title>
<path fill="none" stroke="black" d="M334.77,-71.7C334.77,-63.98 334.77,-54.71 334.77,-46.11"/>
<polygon fill="black" stroke="black" points="338.27,-46.1 334.77,-36.1 331.27,-46.1 338.27,-46.1"/>
</g>
<!-- LkClose? -->
<g id="node11" class="node">
<title>LkClose?</title>
<ellipse fill="gray" stroke="black" cx="423.77" cy="-18" rx="28.74" ry="18"/>
<text text-anchor="middle" x="423.77" y="-15.8" font-family="Times,serif" font-size="9.00">LkClose?</text>
</g>
<!-- Sequence**&#45;&gt;LkClose? -->
<g id="edge10" class="edge">
<title>Sequence**&#45;&gt;LkClose?</title>
<path fill="none" stroke="black" d="M423.77,-71.7C423.77,-63.98 423.77,-54.71 423.77,-46.11"/>
<polygon fill="black" stroke="black" points="427.27,-46.1 423.77,-36.1 420.27,-46.1 427.27,-46.1"/>
</g>
<!-- GetLk! -->
<g id="node12" class="node">
<title>GetLk!</title>
<ellipse fill="gray" stroke="black" cx="497.77" cy="-18" rx="27" ry="18"/>
<text text-anchor="middle" x="497.77" y="-15.8" font-family="Times,serif" font-size="9.00">GetLk!</text>
</g>
<!-- Sequence**&#45;&gt;GetLk! -->
<g id="edge11" class="edge">
<title>Sequence**&#45;&gt;GetLk!</title>
<path fill="none" stroke="black" d="M440.93,-72.76C451.2,-63.05 464.36,-50.6 475.43,-40.13"/>
<polygon fill="black" stroke="black" points="477.84,-42.66 482.7,-33.25 473.03,-37.58 477.84,-42.66"/>
</g>
<!-- LkClose?* -->
<g id="node16" class="node">
<title>LkClose?*</title>
<ellipse fill="gray" stroke="black" cx="486.77" cy="-162" rx="31.51" ry="18"/>
<text text-anchor="middle" x="486.77" y="-159.8" font-family="Times,serif" font-size="9.00">LkClose?*</text>
</g>
<!-- Sequence***&#45;&gt;LkClose?* -->
<g id="edge15" class="edge">
<title>Sequence***&#45;&gt;LkClose?*</title>
<path fill="none" stroke="black" d="M486.77,-215.7C486.77,-207.98 486.77,-198.71 486.77,-190.11"/>
<polygon fill="black" stroke="black" points="490.27,-190.1 486.77,-180.1 483.27,-190.1 490.27,-190.1"/>
</g>
<!-- GetLk!* -->
<g id="node17" class="node">
<title>GetLk!*</title>
<ellipse fill="gray" stroke="black" cx="563.77" cy="-162" rx="27.27" ry="18"/>
<text text-anchor="middle" x="563.77" y="-159.8" font-family="Times,serif" font-size="9.00">GetLk!*</text>
</g>
<!-- Sequence***&#45;&gt;GetLk!* -->
<g id="edge16" class="edge">
<title>Sequence***&#45;&gt;GetLk!*</title>
<path fill="none" stroke="black" d="M505.01,-216.41C515.71,-206.69 529.32,-194.31 540.75,-183.93"/>
<polygon fill="black" stroke="black" points="543.2,-186.42 548.25,-177.11 538.49,-181.24 543.2,-186.42"/>
</g>
</g>
</svg>
