<?xml version="1.0" encoding="UTF-8" standalone="no"?>
<!DOCTYPE svg PUBLIC "-//W3C//DTD SVG 1.1//EN"
 "http://www.w3.org/Graphics/SVG/1.1/DTD/svg11.dtd">
<!-- Generated by graphviz version 2.43.0 (0)
 -->
<!-- Title: pastafarianism Pages: 1 -->
<svg width="793pt" height="332pt"
 viewBox="0.00 0.00 793.21 332.00" xmlns="http://www.w3.org/2000/svg" xmlns:xlink="http://www.w3.org/1999/xlink">
<g id="graph0" class="graph" transform="scale(1 1) rotate(0) translate(4 328)">
<title>pastafarianism</title>
<polygon fill="white" stroke="transparent" points="-4,4 -4,-328 789.21,-328 789.21,4 -4,4"/>
<!-- Sequence -->
<g id="node1" class="node">
<title>Sequence</title>
<polygon fill="cyan" stroke="black" points="497.56,-298.54 497.56,-313.46 479.11,-324 453.02,-324 434.57,-313.46 434.57,-298.54 453.02,-288 479.11,-288 497.56,-298.54"/>
<text text-anchor="middle" x="466.06" y="-303.8" font-family="Times,serif" font-size="9.00">Sequence</text>
</g>
<!-- Fallback -->
<g id="node2" class="node">
<title>Fallback</title>
<polygon fill="cyan" stroke="black" points="495.31,-226.54 495.31,-241.46 478.18,-252 453.95,-252 436.82,-241.46 436.82,-226.54 453.95,-216 478.18,-216 495.31,-226.54"/>
<text text-anchor="middle" x="466.06" y="-231.8" font-family="Times,serif" font-size="9.00">Fallback</text>
</g>
<!-- Sequence&#45;&gt;Fallback -->
<g id="edge1" class="edge">
<title>Sequence&#45;&gt;Fallback</title>
<path fill="none" stroke="black" d="M466.06,-287.7C466.06,-279.98 466.06,-270.71 466.06,-262.11"/>
<polygon fill="black" stroke="black" points="469.56,-262.1 466.06,-252.1 462.56,-262.1 469.56,-262.1"/>
</g>
<!-- LkGraph? -->
<g id="node3" class="node">
<title>LkGraph?</title>
<ellipse fill="gray" stroke="black" cx="241.06" cy="-162" rx="30.7" ry="18"/>
<text text-anchor="middle" x="241.06" y="-159.8" font-family="Times,serif" font-size="9.00">LkGraph?</text>
</g>
<!-- Fallback&#45;&gt;LkGraph? -->
<g id="edge2" class="edge">
<title>Fallback&#45;&gt;LkGraph?</title>
<path fill="none" stroke="black" d="M437.51,-225.99C400.88,-216.72 335.55,-199.3 281.06,-180 278.7,-179.16 276.27,-178.26 273.84,-177.31"/>
<polygon fill="black" stroke="black" points="275.15,-174.06 264.56,-173.55 272.52,-180.55 275.15,-174.06"/>
</g>
<!-- Sequence* -->
<g id="node4" class="node">
<title>Sequence*</title>
<polygon fill="cyan" stroke="black" points="358.31,-154.54 358.31,-169.46 338.25,-180 309.88,-180 289.82,-169.46 289.82,-154.54 309.88,-144 338.25,-144 358.31,-154.54"/>
<text text-anchor="middle" x="324.06" y="-159.8" font-family="Times,serif" font-size="9.00">Sequence*</text>
</g>
<!-- Fallback&#45;&gt;Sequence* -->
<g id="edge3" class="edge">
<title>Fallback&#45;&gt;Sequence*</title>
<path fill="none" stroke="black" d="M443.88,-222.06C420.71,-210.64 384.11,-192.6 357.45,-179.46"/>
<polygon fill="black" stroke="black" points="358.99,-176.32 348.47,-175.03 355.9,-182.59 358.99,-176.32"/>
</g>
<!-- ReachGoal?** -->
<g id="node11" class="node">
<title>ReachGoal?**</title>
<ellipse fill="gray" stroke="black" cx="466.06" cy="-162" rx="39.02" ry="18"/>
<text text-anchor="middle" x="466.06" y="-159.8" font-family="Times,serif" font-size="9.00">ReachGoal?**</text>
</g>
<!-- Fallback&#45;&gt;ReachGoal?** -->
<g id="edge10" class="edge">
<title>Fallback&#45;&gt;ReachGoal?**</title>
<path fill="none" stroke="black" d="M466.06,-215.7C466.06,-207.98 466.06,-198.71 466.06,-190.11"/>
<polygon fill="black" stroke="black" points="469.56,-190.1 466.06,-180.1 462.56,-190.1 469.56,-190.1"/>
</g>
<!-- Sequence** -->
<g id="node12" class="node">
<title>Sequence**</title>
<polygon fill="cyan" stroke="black" points="622.8,-154.54 622.8,-169.46 601.28,-180 570.85,-180 549.32,-169.46 549.32,-154.54 570.85,-144 601.28,-144 622.8,-154.54"/>
<text text-anchor="middle" x="586.06" y="-159.8" font-family="Times,serif" font-size="9.00">Sequence**</text>
</g>
<!-- Fallback&#45;&gt;Sequence** -->
<g id="edge11" class="edge">
<title>Fallback&#45;&gt;Sequence**</title>
<path fill="none" stroke="black" d="M486.69,-220.97C505.34,-210.09 533.07,-193.91 554.5,-181.41"/>
<polygon fill="black" stroke="black" points="556.38,-184.37 563.25,-176.31 552.85,-178.32 556.38,-184.37"/>
</g>
<!-- ReachGoal?**** -->
<g id="node20" class="node">
<title>ReachGoal?****</title>
<ellipse fill="gray" stroke="black" cx="685.06" cy="-162" rx="44.41" ry="18"/>
<text text-anchor="middle" x="685.06" y="-159.8" font-family="Times,serif" font-size="9.00">ReachGoal?****</text>
</g>
<!-- Fallback&#45;&gt;ReachGoal?**** -->
<g id="edge19" class="edge">
<title>Fallback&#45;&gt;ReachGoal?****</title>
<path fill="none" stroke="black" d="M492.52,-224.57C525.28,-214.12 582.79,-195.77 632.06,-180 635.19,-179 638.43,-177.96 641.68,-176.92"/>
<polygon fill="black" stroke="black" points="642.97,-180.18 651.42,-173.8 640.83,-173.52 642.97,-180.18"/>
</g>
<!-- ReachGoal? -->
<g id="node5" class="node">
<title>ReachGoal?</title>
<ellipse fill="gray" stroke="black" cx="34.06" cy="-90" rx="34.13" ry="18"/>
<text text-anchor="middle" x="34.06" y="-87.8" font-family="Times,serif" font-size="9.00">ReachGoal?</text>
</g>
<!-- Sequence*&#45;&gt;ReachGoal? -->
<g id="edge4" class="edge">
<title>Sequence*&#45;&gt;ReachGoal?</title>
<path fill="none" stroke="black" d="M298.43,-149.89C292.78,-147.72 286.78,-145.62 281.06,-144 192.47,-118.95 165.66,-133.05 77.06,-108 74.47,-107.27 71.82,-106.44 69.18,-105.54"/>
<polygon fill="black" stroke="black" points="70.29,-102.22 59.69,-102.11 67.91,-108.8 70.29,-102.22"/>
</g>
<!-- GetSubGoal! -->
<g id="node6" class="node">
<title>GetSubGoal!</title>
<ellipse fill="gray" stroke="black" cx="123.06" cy="-90" rx="36.9" ry="18"/>
<text text-anchor="middle" x="123.06" y="-87.8" font-family="Times,serif" font-size="9.00">GetSubGoal!</text>
</g>
<!-- Sequence*&#45;&gt;GetSubGoal! -->
<g id="edge5" class="edge">
<title>Sequence*&#45;&gt;GetSubGoal!</title>
<path fill="none" stroke="black" d="M297.79,-150.3C292.29,-148.14 286.51,-145.95 281.06,-144 231.84,-126.38 218.49,-125.07 169.06,-108 166.51,-107.12 163.88,-106.19 161.24,-105.25"/>
<polygon fill="black" stroke="black" points="162.3,-101.91 151.71,-101.8 159.92,-108.49 162.3,-101.91"/>
</g>
<!-- LkGraph?* -->
<g id="node7" class="node">
<title>LkGraph?*</title>
<ellipse fill="gray" stroke="black" cx="211.06" cy="-90" rx="32.82" ry="18"/>
<text text-anchor="middle" x="211.06" y="-87.8" font-family="Times,serif" font-size="9.00">LkGraph?*</text>
</g>
<!-- Sequence*&#45;&gt;LkGraph?* -->
<g id="edge6" class="edge">
<title>Sequence*&#45;&gt;LkGraph?*</title>
<path fill="none" stroke="black" d="M302.54,-147.67C285.07,-136.85 260.25,-121.47 240.87,-109.46"/>
<polygon fill="black" stroke="black" points="242.47,-106.34 232.12,-104.04 238.78,-112.29 242.47,-106.34"/>
</g>
<!-- ReachGoal?* -->
<g id="node8" class="node">
<title>ReachGoal?*</title>
<ellipse fill="gray" stroke="black" cx="299.06" cy="-90" rx="36.9" ry="18"/>
<text text-anchor="middle" x="299.06" y="-87.8" font-family="Times,serif" font-size="9.00">ReachGoal?*</text>
</g>
<!-- Sequence*&#45;&gt;ReachGoal?* -->
<g id="edge7" class="edge">
<title>Sequence*&#45;&gt;ReachGoal?*</title>
<path fill="none" stroke="black" d="M317.88,-143.7C315.07,-135.81 311.67,-126.3 308.54,-117.55"/>
<polygon fill="black" stroke="black" points="311.83,-116.34 305.17,-108.1 305.24,-118.7 311.83,-116.34"/>
</g>
<!-- GetSubGoal!* -->
<g id="node9" class="node">
<title>GetSubGoal!*</title>
<ellipse fill="gray" stroke="black" cx="393.06" cy="-90" rx="39.02" ry="18"/>
<text text-anchor="middle" x="393.06" y="-87.8" font-family="Times,serif" font-size="9.00">GetSubGoal!*</text>
</g>
<!-- Sequence*&#45;&gt;GetSubGoal!* -->
<g id="edge8" class="edge">
<title>Sequence*&#45;&gt;GetSubGoal!*</title>
<path fill="none" stroke="black" d="M340.07,-144.76C349.08,-135.62 360.48,-124.06 370.39,-114"/>
<polygon fill="black" stroke="black" points="373.09,-116.24 377.62,-106.67 368.11,-111.33 373.09,-116.24"/>
</g>
<!-- CompLkGraph! -->
<g id="node10" class="node">
<title>CompLkGraph!</title>
<ellipse fill="gray" stroke="black" cx="493.06" cy="-90" rx="42.95" ry="18"/>
<text text-anchor="middle" x="493.06" y="-87.8" font-family="Times,serif" font-size="9.00">CompLkGraph!</text>
</g>
<!-- Sequence*&#45;&gt;CompLkGraph! -->
<g id="edge9" class="edge">
<title>Sequence*&#45;&gt;CompLkGraph!</title>
<path fill="none" stroke="black" d="M350.1,-150.22C377.87,-138.71 422.18,-120.36 454.11,-107.14"/>
<polygon fill="black" stroke="black" points="455.69,-110.27 463.59,-103.21 453.01,-103.8 455.69,-110.27"/>
</g>
<!-- Fallback* -->
<g id="node13" class="node">
<title>Fallback*</title>
<polygon fill="cyan" stroke="black" points="617.81,-82.54 617.81,-97.46 599.21,-108 572.92,-108 554.32,-97.46 554.32,-82.54 572.92,-72 599.21,-72 617.81,-82.54"/>
<text text-anchor="middle" x="586.06" y="-87.8" font-family="Times,serif" font-size="9.00">Fallback*</text>
</g>
<!-- Sequence**&#45;&gt;Fallback* -->
<g id="edge12" class="edge">
<title>Sequence**&#45;&gt;Fallback*</title>
<path fill="none" stroke="black" d="M586.06,-143.7C586.06,-135.98 586.06,-126.71 586.06,-118.11"/>
<polygon fill="black" stroke="black" points="589.56,-118.1 586.06,-108.1 582.56,-118.1 589.56,-118.1"/>
</g>
<!-- MoveTo! -->
<g id="node18" class="node">
<title>MoveTo!</title>
<ellipse fill="gray" stroke="black" cx="665.06" cy="-90" rx="28.74" ry="18"/>
<text text-anchor="middle" x="665.06" y="-87.8" font-family="Times,serif" font-size="9.00">MoveTo!</text>
</g>
<!-- Sequence**&#45;&gt;MoveTo! -->
<g id="edge17" class="edge">
<title>Sequence**&#45;&gt;MoveTo!</title>
<path fill="none" stroke="black" d="M603.99,-145.12C615.12,-135.26 629.54,-122.47 641.58,-111.81"/>
<polygon fill="black" stroke="black" points="643.92,-114.41 649.08,-105.16 639.28,-109.17 643.92,-114.41"/>
</g>
<!-- MoveTo!* -->
<g id="node19" class="node">
<title>MoveTo!*</title>
<ellipse fill="gray" stroke="black" cx="744.06" cy="-90" rx="31.51" ry="18"/>
<text text-anchor="middle" x="744.06" y="-87.8" font-family="Times,serif" font-size="9.00">MoveTo!*</text>
</g>
<!-- Sequence**&#45;&gt;MoveTo!* -->
<g id="edge18" class="edge">
<title>Sequence**&#45;&gt;MoveTo!*</title>
<path fill="none" stroke="black" d="M612.51,-149.28C639.42,-137.36 681.23,-118.84 710.47,-105.88"/>
<polygon fill="black" stroke="black" points="712.14,-108.97 719.87,-101.72 709.31,-102.57 712.14,-108.97"/>
</g>
<!-- NotReadyForSG? -->
<g id="node14" class="node">
<title>NotReadyForSG?</title>
<ellipse fill="gray" stroke="black" cx="426.06" cy="-18" rx="46.53" ry="18"/>
<text text-anchor="middle" x="426.06" y="-15.8" font-family="Times,serif" font-size="9.00">NotReadyForSG?</text>
</g>
<!-- Fallback*&#45;&gt;NotReadyForSG? -->
<g id="edge13" class="edge">
<title>Fallback*&#45;&gt;NotReadyForSG?</title>
<path fill="none" stroke="black" d="M561.41,-78.22C535.79,-67 495.29,-49.29 465.27,-36.15"/>
<polygon fill="black" stroke="black" points="466.49,-32.86 455.92,-32.06 463.68,-39.28 466.49,-32.86"/>
</g>
<!-- GetSubGoal!** -->
<g id="node15" class="node">
<title>GetSubGoal!**</title>
<ellipse fill="gray" stroke="black" cx="533.06" cy="-18" rx="42.29" ry="18"/>
<text text-anchor="middle" x="533.06" y="-15.8" font-family="Times,serif" font-size="9.00">GetSubGoal!**</text>
</g>
<!-- Fallback*&#45;&gt;GetSubGoal!** -->
<g id="edge14" class="edge">
<title>Fallback*&#45;&gt;GetSubGoal!**</title>
<path fill="none" stroke="black" d="M572.96,-71.7C566.58,-63.27 558.79,-52.97 551.79,-43.73"/>
<polygon fill="black" stroke="black" points="554.48,-41.48 545.65,-35.62 548.9,-45.71 554.48,-41.48"/>
</g>
<!-- GetSubGoal!*** -->
<g id="node16" class="node">
<title>GetSubGoal!***</title>
<ellipse fill="gray" stroke="black" cx="638.06" cy="-18" rx="44.41" ry="18"/>
<text text-anchor="middle" x="638.06" y="-15.8" font-family="Times,serif" font-size="9.00">GetSubGoal!***</text>
</g>
<!-- Fallback*&#45;&gt;GetSubGoal!*** -->
<g id="edge15" class="edge">
<title>Fallback*&#45;&gt;GetSubGoal!***</title>
<path fill="none" stroke="black" d="M598.92,-71.7C605.18,-63.27 612.83,-52.97 619.69,-43.73"/>
<polygon fill="black" stroke="black" points="622.56,-45.74 625.72,-35.62 616.94,-41.56 622.56,-45.74"/>
</g>
<!-- ReachGoal?*** -->
<g id="node17" class="node">
<title>ReachGoal?***</title>
<ellipse fill="gray" stroke="black" cx="743.06" cy="-18" rx="42.29" ry="18"/>
<text text-anchor="middle" x="743.06" y="-15.8" font-family="Times,serif" font-size="9.00">ReachGoal?***</text>
</g>
<!-- Fallback*&#45;&gt;ReachGoal?*** -->
<g id="edge16" class="edge">
<title>Fallback*&#45;&gt;ReachGoal?***</title>
<path fill="none" stroke="black" d="M610.25,-78.22C635.71,-66.87 676.11,-48.85 705.68,-35.67"/>
<polygon fill="black" stroke="black" points="707.16,-38.84 714.86,-31.57 704.31,-32.45 707.16,-38.84"/>
</g>
</g>
</svg>
