<?xml version="1.0" encoding="UTF-8" standalone="no"?>
<!DOCTYPE svg PUBLIC "-//W3C//DTD SVG 1.1//EN"
 "http://www.w3.org/Graphics/SVG/1.1/DTD/svg11.dtd">
<!-- Generated by graphviz version 2.43.0 (0)
 -->
<!-- Title: pastafarianism Pages: 1 -->
<svg width="2143pt" height="260pt"
 viewBox="0.00 0.00 2142.87 260.00" xmlns="http://www.w3.org/2000/svg" xmlns:xlink="http://www.w3.org/1999/xlink">
<g id="graph0" class="graph" transform="scale(1 1) rotate(0) translate(4 256)">
<title>pastafarianism</title>
<polygon fill="white" stroke="transparent" points="-4,4 -4,-256 2138.87,-256 2138.87,4 -4,4"/>
<!-- Fallback -->
<g id="node1" class="node">
<title>Fallback</title>
<polygon fill="cyan" stroke="black" points="940.11,-226.54 940.11,-241.46 922.98,-252 898.75,-252 881.62,-241.46 881.62,-226.54 898.75,-216 922.98,-216 940.11,-226.54"/>
<text text-anchor="middle" x="910.87" y="-231.8" font-family="Times,serif" font-size="9.00">Fallback</text>
</g>
<!-- NotReadyForSG? -->
<g id="node2" class="node">
<title>NotReadyForSG?</title>
<ellipse fill="gray" stroke="black" cx="811.87" cy="-162" rx="46.53" ry="18"/>
<text text-anchor="middle" x="811.87" y="-159.8" font-family="Times,serif" font-size="9.00">NotReadyForSG?</text>
</g>
<!-- Fallback&#45;&gt;NotReadyForSG? -->
<g id="edge1" class="edge">
<title>Fallback&#45;&gt;NotReadyForSG?</title>
<path fill="none" stroke="black" d="M892.25,-219.83C877.94,-209.72 857.9,-195.55 841.41,-183.89"/>
<polygon fill="black" stroke="black" points="843.34,-180.97 833.15,-178.05 839.3,-186.68 843.34,-180.97"/>
</g>
<!-- ReachGoal? -->
<g id="node3" class="node">
<title>ReachGoal?</title>
<ellipse fill="gray" stroke="black" cx="910.87" cy="-162" rx="34.13" ry="18"/>
<text text-anchor="middle" x="910.87" y="-159.8" font-family="Times,serif" font-size="9.00">ReachGoal?</text>
</g>
<!-- Fallback&#45;&gt;ReachGoal? -->
<g id="edge2" class="edge">
<title>Fallback&#45;&gt;ReachGoal?</title>
<path fill="none" stroke="black" d="M910.87,-215.7C910.87,-207.98 910.87,-198.71 910.87,-190.11"/>
<polygon fill="black" stroke="black" points="914.37,-190.1 910.87,-180.1 907.37,-190.1 914.37,-190.1"/>
</g>
<!-- Sequence -->
<g id="node4" class="node">
<title>Sequence</title>
<polygon fill="cyan" stroke="black" points="1025.36,-154.54 1025.36,-169.46 1006.91,-180 980.82,-180 962.37,-169.46 962.37,-154.54 980.82,-144 1006.91,-144 1025.36,-154.54"/>
<text text-anchor="middle" x="993.87" y="-159.8" font-family="Times,serif" font-size="9.00">Sequence</text>
</g>
<!-- Fallback&#45;&gt;Sequence -->
<g id="edge3" class="edge">
<title>Fallback&#45;&gt;Sequence</title>
<path fill="none" stroke="black" d="M927.66,-218.83C939.43,-208.91 955.37,-195.47 968.65,-184.26"/>
<polygon fill="black" stroke="black" points="971.14,-186.75 976.52,-177.63 966.62,-181.4 971.14,-186.75"/>
</g>
<!-- GetSubGoal! -->
<g id="node5" class="node">
<title>GetSubGoal!</title>
<ellipse fill="gray" stroke="black" cx="124.87" cy="-90" rx="36.9" ry="18"/>
<text text-anchor="middle" x="124.87" y="-87.8" font-family="Times,serif" font-size="9.00">GetSubGoal!</text>
</g>
<!-- Sequence&#45;&gt;GetSubGoal! -->
<g id="edge4" class="edge">
<title>Sequence&#45;&gt;GetSubGoal!</title>
<path fill="none" stroke="black" d="M970.64,-149.49C965.26,-147.29 959.46,-145.27 953.87,-144 614.2,-66.65 512.29,-177.2 170.87,-108 167.7,-107.36 164.45,-106.53 161.23,-105.59"/>
<polygon fill="black" stroke="black" points="162.3,-102.26 151.71,-102.49 160.13,-108.91 162.3,-102.26"/>
</g>
<!-- Fallback* -->
<g id="node6" class="node">
<title>Fallback*</title>
<polygon fill="cyan" stroke="black" points="243.61,-82.54 243.61,-97.46 225.02,-108 198.72,-108 180.13,-97.46 180.13,-82.54 198.72,-72 225.02,-72 243.61,-82.54"/>
<text text-anchor="middle" x="211.87" y="-87.8" font-family="Times,serif" font-size="9.00">Fallback*</text>
</g>
<!-- Sequence&#45;&gt;Fallback* -->
<g id="edge5" class="edge">
<title>Sequence&#45;&gt;Fallback*</title>
<path fill="none" stroke="black" d="M970.64,-149.53C965.25,-147.32 959.45,-145.29 953.87,-144 663.36,-76.66 579.04,-150.43 283.87,-108 273.08,-106.45 261.53,-104.06 250.91,-101.55"/>
<polygon fill="black" stroke="black" points="251.61,-98.12 241.07,-99.14 249.95,-104.92 251.61,-98.12"/>
</g>
<!-- MoveTo!* -->
<g id="node11" class="node">
<title>MoveTo!*</title>
<ellipse fill="gray" stroke="black" cx="324.87" cy="-90" rx="31.51" ry="18"/>
<text text-anchor="middle" x="324.87" y="-87.8" font-family="Times,serif" font-size="9.00">MoveTo!*</text>
</g>
<!-- Sequence&#45;&gt;MoveTo!* -->
<g id="edge10" class="edge">
<title>Sequence&#45;&gt;MoveTo!*</title>
<path fill="none" stroke="black" d="M970.63,-149.56C965.24,-147.35 959.45,-145.32 953.87,-144 699.03,-83.93 620.97,-166.95 365.87,-108 363.21,-107.39 360.51,-106.62 357.82,-105.75"/>
<polygon fill="black" stroke="black" points="358.87,-102.41 348.27,-102.26 356.47,-108.98 358.87,-102.41"/>
</g>
<!-- MoveTo!** -->
<g id="node12" class="node">
<title>MoveTo!**</title>
<ellipse fill="gray" stroke="black" cx="408.87" cy="-90" rx="34.13" ry="18"/>
<text text-anchor="middle" x="408.87" y="-87.8" font-family="Times,serif" font-size="9.00">MoveTo!**</text>
</g>
<!-- Sequence&#45;&gt;MoveTo!** -->
<g id="edge11" class="edge">
<title>Sequence&#45;&gt;MoveTo!**</title>
<path fill="none" stroke="black" d="M970.62,-149.6C965.23,-147.39 959.44,-145.34 953.87,-144 736.42,-91.54 669.96,-157.7 451.87,-108 449.08,-107.36 446.23,-106.58 443.4,-105.69"/>
<polygon fill="black" stroke="black" points="444.52,-102.37 433.93,-102.38 442.21,-108.98 444.52,-102.37"/>
</g>
<!-- Fallback** -->
<g id="node13" class="node">
<title>Fallback**</title>
<polygon fill="cyan" stroke="black" points="530.86,-82.54 530.86,-97.46 510.36,-108 481.37,-108 460.88,-97.46 460.88,-82.54 481.37,-72 510.36,-72 530.86,-82.54"/>
<text text-anchor="middle" x="495.87" y="-87.8" font-family="Times,serif" font-size="9.00">Fallback**</text>
</g>
<!-- Sequence&#45;&gt;Fallback** -->
<g id="edge12" class="edge">
<title>Sequence&#45;&gt;Fallback**</title>
<path fill="none" stroke="black" d="M970.6,-149.66C965.22,-147.45 959.43,-145.39 953.87,-144 774.66,-99.33 719.79,-149.7 539.87,-108 537.03,-107.34 534.12,-106.54 531.23,-105.64"/>
<polygon fill="black" stroke="black" points="532.14,-102.25 521.54,-102.31 529.86,-108.87 532.14,-102.25"/>
</g>
<!-- MoveTo!*** -->
<g id="node19" class="node">
<title>MoveTo!***</title>
<ellipse fill="gray" stroke="black" cx="585.87" cy="-90" rx="36.9" ry="18"/>
<text text-anchor="middle" x="585.87" y="-87.8" font-family="Times,serif" font-size="9.00">MoveTo!***</text>
</g>
<!-- Sequence&#45;&gt;MoveTo!*** -->
<g id="edge18" class="edge">
<title>Sequence&#45;&gt;MoveTo!***</title>
<path fill="none" stroke="black" d="M970.58,-149.76C965.19,-147.55 959.41,-145.46 953.87,-144 814.58,-107.45 771.99,-141.2 631.87,-108 628.9,-107.3 625.86,-106.46 622.83,-105.53"/>
<polygon fill="black" stroke="black" points="623.86,-102.19 613.26,-102.36 621.65,-108.83 623.86,-102.19"/>
</g>
<!-- MoveTo!**** -->
<g id="node20" class="node">
<title>MoveTo!****</title>
<ellipse fill="gray" stroke="black" cx="679.87" cy="-90" rx="39.02" ry="18"/>
<text text-anchor="middle" x="679.87" y="-87.8" font-family="Times,serif" font-size="9.00">MoveTo!****</text>
</g>
<!-- Sequence&#45;&gt;MoveTo!**** -->
<g id="edge19" class="edge">
<title>Sequence&#45;&gt;MoveTo!****</title>
<path fill="none" stroke="black" d="M970.1,-149.78C964.84,-147.61 959.23,-145.54 953.87,-144 856.12,-115.9 826.44,-133.08 727.87,-108 724.74,-107.2 721.53,-106.29 718.32,-105.31"/>
<polygon fill="black" stroke="black" points="719.39,-101.97 708.8,-102.2 717.22,-108.63 719.39,-101.97"/>
</g>
<!-- MoveTo!***** -->
<g id="node21" class="node">
<title>MoveTo!*****</title>
<ellipse fill="gray" stroke="black" cx="778.87" cy="-90" rx="42.29" ry="18"/>
<text text-anchor="middle" x="778.87" y="-87.8" font-family="Times,serif" font-size="9.00">MoveTo!*****</text>
</g>
<!-- Sequence&#45;&gt;MoveTo!***** -->
<g id="edge20" class="edge">
<title>Sequence&#45;&gt;MoveTo!*****</title>
<path fill="none" stroke="black" d="M969.51,-150.11C964.39,-147.97 958.98,-145.83 953.87,-144 900.23,-124.83 885.28,-124.85 830.87,-108 827.55,-106.97 824.11,-105.89 820.66,-104.79"/>
<polygon fill="black" stroke="black" points="821.59,-101.41 810.99,-101.68 819.44,-108.07 821.59,-101.41"/>
</g>
<!-- MoveTo!****** -->
<g id="node22" class="node">
<title>MoveTo!******</title>
<ellipse fill="gray" stroke="black" cx="883.87" cy="-90" rx="44.41" ry="18"/>
<text text-anchor="middle" x="883.87" y="-87.8" font-family="Times,serif" font-size="9.00">MoveTo!******</text>
</g>
<!-- Sequence&#45;&gt;MoveTo!****** -->
<g id="edge21" class="edge">
<title>Sequence&#45;&gt;MoveTo!******</title>
<path fill="none" stroke="black" d="M973.44,-148C957.13,-137.62 934.01,-122.91 915.34,-111.03"/>
<polygon fill="black" stroke="black" points="917.17,-108.04 906.85,-105.63 913.41,-113.95 917.17,-108.04"/>
</g>
<!-- MoveTo!******* -->
<g id="node23" class="node">
<title>MoveTo!*******</title>
<ellipse fill="gray" stroke="black" cx="993.87" cy="-90" rx="47.19" ry="18"/>
<text text-anchor="middle" x="993.87" y="-87.8" font-family="Times,serif" font-size="9.00">MoveTo!*******</text>
</g>
<!-- Sequence&#45;&gt;MoveTo!******* -->
<g id="edge22" class="edge">
<title>Sequence&#45;&gt;MoveTo!*******</title>
<path fill="none" stroke="black" d="M993.87,-143.7C993.87,-135.98 993.87,-126.71 993.87,-118.11"/>
<polygon fill="black" stroke="black" points="997.37,-118.1 993.87,-108.1 990.37,-118.1 997.37,-118.1"/>
</g>
<!-- NotReadyForSG?** -->
<g id="node24" class="node">
<title>NotReadyForSG?**</title>
<ellipse fill="gray" stroke="black" cx="1110.87" cy="-90" rx="51.92" ry="18"/>
<text text-anchor="middle" x="1110.87" y="-87.8" font-family="Times,serif" font-size="9.00">NotReadyForSG?**</text>
</g>
<!-- Sequence&#45;&gt;NotReadyForSG?** -->
<g id="edge23" class="edge">
<title>Sequence&#45;&gt;NotReadyForSG?**</title>
<path fill="none" stroke="black" d="M1014.78,-148.49C1032.19,-138.07 1057.29,-123.05 1077.48,-110.98"/>
<polygon fill="black" stroke="black" points="1079.29,-113.97 1086.07,-105.83 1075.69,-107.97 1079.29,-113.97"/>
</g>
<!-- MoveTo!******** -->
<g id="node25" class="node">
<title>MoveTo!********</title>
<ellipse fill="gray" stroke="black" cx="1230.87" cy="-90" rx="49.8" ry="18"/>
<text text-anchor="middle" x="1230.87" y="-87.8" font-family="Times,serif" font-size="9.00">MoveTo!********</text>
</g>
<!-- Sequence&#45;&gt;MoveTo!******** -->
<g id="edge24" class="edge">
<title>Sequence&#45;&gt;MoveTo!********</title>
<path fill="none" stroke="black" d="M1022.46,-152.56C1062.45,-140.74 1135.61,-119.14 1183.74,-104.92"/>
<polygon fill="black" stroke="black" points="1185.01,-108.2 1193.6,-102.01 1183.02,-101.48 1185.01,-108.2"/>
</g>
<!-- MoveTo!********* -->
<g id="node26" class="node">
<title>MoveTo!*********</title>
<ellipse fill="gray" stroke="black" cx="1350.87" cy="-90" rx="52.58" ry="18"/>
<text text-anchor="middle" x="1350.87" y="-87.8" font-family="Times,serif" font-size="9.00">MoveTo!*********</text>
</g>
<!-- Sequence&#45;&gt;MoveTo!********* -->
<g id="edge25" class="edge">
<title>Sequence&#45;&gt;MoveTo!*********</title>
<path fill="none" stroke="black" d="M1025.17,-156.39C1079.4,-148.19 1194.18,-129.85 1289.87,-108 1293.97,-107.06 1298.2,-106.03 1302.44,-104.94"/>
<polygon fill="black" stroke="black" points="1303.51,-108.28 1312.28,-102.35 1301.72,-101.51 1303.51,-108.28"/>
</g>
<!-- MoveTo!********** -->
<g id="node27" class="node">
<title>MoveTo!**********</title>
<ellipse fill="gray" stroke="black" cx="1475.87" cy="-90" rx="54.7" ry="18"/>
<text text-anchor="middle" x="1475.87" y="-87.8" font-family="Times,serif" font-size="9.00">MoveTo!**********</text>
</g>
<!-- Sequence&#45;&gt;MoveTo!********** -->
<g id="edge26" class="edge">
<title>Sequence&#45;&gt;MoveTo!**********</title>
<path fill="none" stroke="black" d="M1025.12,-158.53C1095.06,-152.68 1269.35,-136.3 1412.87,-108 1417.3,-107.13 1421.88,-106.11 1426.46,-105.02"/>
<polygon fill="black" stroke="black" points="1427.55,-108.36 1436.41,-102.54 1425.86,-101.56 1427.55,-108.36"/>
</g>
<!-- MoveTo!*********** -->
<g id="node28" class="node">
<title>MoveTo!***********</title>
<ellipse fill="gray" stroke="black" cx="1606.87" cy="-90" rx="57.97" ry="18"/>
<text text-anchor="middle" x="1606.87" y="-87.8" font-family="Times,serif" font-size="9.00">MoveTo!***********</text>
</g>
<!-- Sequence&#45;&gt;MoveTo!*********** -->
<g id="edge27" class="edge">
<title>Sequence&#45;&gt;MoveTo!***********</title>
<path fill="none" stroke="black" d="M1025.18,-159.63C1109.11,-155.58 1345.89,-141.82 1539.87,-108 1544.91,-107.12 1550.13,-106.06 1555.34,-104.91"/>
<polygon fill="black" stroke="black" points="1556.32,-108.27 1565.26,-102.6 1554.73,-101.46 1556.32,-108.27"/>
</g>
<!-- NotReadyForSG?*** -->
<g id="node29" class="node">
<title>NotReadyForSG?***</title>
<ellipse fill="gray" stroke="black" cx="1737.87" cy="-90" rx="54.7" ry="18"/>
<text text-anchor="middle" x="1737.87" y="-87.8" font-family="Times,serif" font-size="9.00">NotReadyForSG?***</text>
</g>
<!-- Sequence&#45;&gt;NotReadyForSG?*** -->
<g id="edge28" class="edge">
<title>Sequence&#45;&gt;NotReadyForSG?***</title>
<path fill="none" stroke="black" d="M1025.29,-160.58C1122.46,-158.84 1426.39,-150.15 1673.87,-108 1678.65,-107.19 1683.58,-106.18 1688.5,-105.07"/>
<polygon fill="black" stroke="black" points="1689.61,-108.4 1698.51,-102.66 1687.97,-101.59 1689.61,-108.4"/>
</g>
<!-- MoveTo!************ -->
<g id="node30" class="node">
<title>MoveTo!************</title>
<ellipse fill="gray" stroke="black" cx="1870.87" cy="-90" rx="60.09" ry="18"/>
<text text-anchor="middle" x="1870.87" y="-87.8" font-family="Times,serif" font-size="9.00">MoveTo!************</text>
</g>
<!-- Sequence&#45;&gt;MoveTo!************ -->
<g id="edge29" class="edge">
<title>Sequence&#45;&gt;MoveTo!************</title>
<path fill="none" stroke="black" d="M1025.28,-160.92C1133.72,-160.23 1502.14,-154.38 1801.87,-108 1807.2,-107.17 1812.73,-106.13 1818.22,-104.98"/>
<polygon fill="black" stroke="black" points="1819.04,-108.38 1828.04,-102.79 1817.52,-101.55 1819.04,-108.38"/>
</g>
<!-- NotReadyForSG?**** -->
<g id="node31" class="node">
<title>NotReadyForSG?****</title>
<ellipse fill="gray" stroke="black" cx="2005.87" cy="-90" rx="57.32" ry="18"/>
<text text-anchor="middle" x="2005.87" y="-87.8" font-family="Times,serif" font-size="9.00">NotReadyForSG?****</text>
</g>
<!-- Sequence&#45;&gt;NotReadyForSG?**** -->
<g id="edge30" class="edge">
<title>Sequence&#45;&gt;NotReadyForSG?****</title>
<path fill="none" stroke="black" d="M1025.13,-161.46C1144.66,-162.76 1583.89,-163.27 1939.87,-108 1944.93,-107.21 1950.16,-106.21 1955.37,-105.08"/>
<polygon fill="black" stroke="black" points="1956.33,-108.45 1965.29,-102.78 1954.76,-101.63 1956.33,-108.45"/>
</g>
<!-- GetLk! -->
<g id="node32" class="node">
<title>GetLk!</title>
<ellipse fill="gray" stroke="black" cx="2107.87" cy="-90" rx="27" ry="18"/>
<text text-anchor="middle" x="2107.87" y="-87.8" font-family="Times,serif" font-size="9.00">GetLk!</text>
</g>
<!-- Sequence&#45;&gt;GetLk! -->
<g id="edge31" class="edge">
<title>Sequence&#45;&gt;GetLk!</title>
<path fill="none" stroke="black" d="M1025.31,-161.1C1180.55,-161.36 1866.01,-159.5 2071.87,-108 2074.05,-107.45 2076.25,-106.77 2078.44,-106"/>
<polygon fill="black" stroke="black" points="2079.9,-109.19 2087.82,-102.15 2077.24,-102.71 2079.9,-109.19"/>
</g>
<!-- MoveTo! -->
<g id="node7" class="node">
<title>MoveTo!</title>
<ellipse fill="gray" stroke="black" cx="28.87" cy="-18" rx="28.74" ry="18"/>
<text text-anchor="middle" x="28.87" y="-15.8" font-family="Times,serif" font-size="9.00">MoveTo!</text>
</g>
<!-- Fallback*&#45;&gt;MoveTo! -->
<g id="edge6" class="edge">
<title>Fallback*&#45;&gt;MoveTo!</title>
<path fill="none" stroke="black" d="M186.81,-78.33C181.57,-76.18 176.05,-73.97 170.87,-72 125.14,-54.62 112.35,-54 66.87,-36 64.79,-35.18 62.67,-34.31 60.53,-33.41"/>
<polygon fill="black" stroke="black" points="61.8,-30.15 51.23,-29.4 59.03,-36.58 61.8,-30.15"/>
</g>
<!-- LkClose? -->
<g id="node8" class="node">
<title>LkClose?</title>
<ellipse fill="gray" stroke="black" cx="104.87" cy="-18" rx="28.74" ry="18"/>
<text text-anchor="middle" x="104.87" y="-15.8" font-family="Times,serif" font-size="9.00">LkClose?</text>
</g>
<!-- Fallback*&#45;&gt;LkClose? -->
<g id="edge7" class="edge">
<title>Fallback*&#45;&gt;LkClose?</title>
<path fill="none" stroke="black" d="M191.74,-75.83C175.09,-64.94 151.27,-49.36 132.78,-37.26"/>
<polygon fill="black" stroke="black" points="134.47,-34.18 124.18,-31.64 130.63,-40.04 134.47,-34.18"/>
</g>
<!-- LkGraph? -->
<g id="node9" class="node">
<title>LkGraph?</title>
<ellipse fill="gray" stroke="black" cx="181.87" cy="-18" rx="30.7" ry="18"/>
<text text-anchor="middle" x="181.87" y="-15.8" font-family="Times,serif" font-size="9.00">LkGraph?</text>
</g>
<!-- Fallback*&#45;&gt;LkGraph? -->
<g id="edge8" class="edge">
<title>Fallback*&#45;&gt;LkGraph?</title>
<path fill="none" stroke="black" d="M204.45,-71.7C200.99,-63.61 196.79,-53.81 192.95,-44.87"/>
<polygon fill="black" stroke="black" points="196.15,-43.44 188.99,-35.62 189.71,-46.19 196.15,-43.44"/>
</g>
<!-- CompLkGraph! -->
<g id="node10" class="node">
<title>CompLkGraph!</title>
<ellipse fill="gray" stroke="black" cx="272.87" cy="-18" rx="42.95" ry="18"/>
<text text-anchor="middle" x="272.87" y="-15.8" font-family="Times,serif" font-size="9.00">CompLkGraph!</text>
</g>
<!-- Fallback*&#45;&gt;CompLkGraph! -->
<g id="edge9" class="edge">
<title>Fallback*&#45;&gt;CompLkGraph!</title>
<path fill="none" stroke="black" d="M226.32,-72.41C233.92,-63.69 243.37,-52.85 251.77,-43.21"/>
<polygon fill="black" stroke="black" points="254.58,-45.31 258.52,-35.47 249.31,-40.71 254.58,-45.31"/>
</g>
<!-- NotReadyForSG?* -->
<g id="node14" class="node">
<title>NotReadyForSG?*</title>
<ellipse fill="gray" stroke="black" cx="382.87" cy="-18" rx="49.8" ry="18"/>
<text text-anchor="middle" x="382.87" y="-15.8" font-family="Times,serif" font-size="9.00">NotReadyForSG?*</text>
</g>
<!-- Fallback**&#45;&gt;NotReadyForSG?* -->
<g id="edge13" class="edge">
<title>Fallback**&#45;&gt;NotReadyForSG?*</title>
<path fill="none" stroke="black" d="M474.08,-75.5C457.47,-65.21 434.33,-50.88 415.51,-39.22"/>
<polygon fill="black" stroke="black" points="417.28,-36.2 406.94,-33.91 413.59,-42.15 417.28,-36.2"/>
</g>
<!-- CompLkGraph!* -->
<g id="node15" class="node">
<title>CompLkGraph!*</title>
<ellipse fill="gray" stroke="black" cx="495.87" cy="-18" rx="45.07" ry="18"/>
<text text-anchor="middle" x="495.87" y="-15.8" font-family="Times,serif" font-size="9.00">CompLkGraph!*</text>
</g>
<!-- Fallback**&#45;&gt;CompLkGraph!* -->
<g id="edge14" class="edge">
<title>Fallback**&#45;&gt;CompLkGraph!*</title>
<path fill="none" stroke="black" d="M495.87,-71.7C495.87,-63.98 495.87,-54.71 495.87,-46.11"/>
<polygon fill="black" stroke="black" points="499.37,-46.1 495.87,-36.1 492.37,-46.1 499.37,-46.1"/>
</g>
<!-- LkClose?* -->
<g id="node16" class="node">
<title>LkClose?*</title>
<ellipse fill="gray" stroke="black" cx="590.87" cy="-18" rx="31.51" ry="18"/>
<text text-anchor="middle" x="590.87" y="-15.8" font-family="Times,serif" font-size="9.00">LkClose?*</text>
</g>
<!-- Fallback**&#45;&gt;LkClose?* -->
<g id="edge15" class="edge">
<title>Fallback**&#45;&gt;LkClose?*</title>
<path fill="none" stroke="black" d="M515.55,-74.5C529.58,-64.16 548.62,-50.13 564.04,-38.77"/>
<polygon fill="black" stroke="black" points="566.2,-41.52 572.18,-32.77 562.05,-35.89 566.2,-41.52"/>
</g>
<!-- GetSubGoal!* -->
<g id="node17" class="node">
<title>GetSubGoal!*</title>
<ellipse fill="gray" stroke="black" cx="679.87" cy="-18" rx="39.02" ry="18"/>
<text text-anchor="middle" x="679.87" y="-15.8" font-family="Times,serif" font-size="9.00">GetSubGoal!*</text>
</g>
<!-- Fallback**&#45;&gt;GetSubGoal!* -->
<g id="edge16" class="edge">
<title>Fallback**&#45;&gt;GetSubGoal!*</title>
<path fill="none" stroke="black" d="M523.32,-78.36C528.8,-76.25 534.51,-74.05 539.87,-72 574.07,-58.92 613.03,-44.18 641.15,-33.58"/>
<polygon fill="black" stroke="black" points="642.5,-36.81 650.62,-30.01 640.03,-30.26 642.5,-36.81"/>
</g>
<!-- CompLkGraph!** -->
<g id="node18" class="node">
<title>CompLkGraph!**</title>
<ellipse fill="gray" stroke="black" cx="784.87" cy="-18" rx="47.84" ry="18"/>
<text text-anchor="middle" x="784.87" y="-15.8" font-family="Times,serif" font-size="9.00">CompLkGraph!**</text>
</g>
<!-- Fallback**&#45;&gt;CompLkGraph!** -->
<g id="edge17" class="edge">
<title>Fallback**&#45;&gt;CompLkGraph!**</title>
<path fill="none" stroke="black" d="M522.13,-77.97C527.91,-75.79 534.04,-73.67 539.87,-72 621.65,-48.58 645.22,-56.18 727.87,-36 731.71,-35.06 735.67,-34.02 739.64,-32.94"/>
<polygon fill="black" stroke="black" points="740.77,-36.26 749.44,-30.17 738.87,-29.52 740.77,-36.26"/>
</g>
</g>
</svg>
