<?xml version="1.0" encoding="UTF-8" standalone="no"?>
<!DOCTYPE svg PUBLIC "-//W3C//DTD SVG 1.1//EN"
 "http://www.w3.org/Graphics/SVG/1.1/DTD/svg11.dtd">
<!-- Generated by graphviz version 2.43.0 (0)
 -->
<!-- Title: pastafarianism Pages: 1 -->
<svg width="2158pt" height="260pt"
 viewBox="0.00 0.00 2157.87 260.00" xmlns="http://www.w3.org/2000/svg" xmlns:xlink="http://www.w3.org/1999/xlink">
<g id="graph0" class="graph" transform="scale(1 1) rotate(0) translate(4 256)">
<title>pastafarianism</title>
<polygon fill="white" stroke="transparent" points="-4,4 -4,-256 2153.87,-256 2153.87,4 -4,4"/>
<!-- Fallback -->
<g id="node1" class="node">
<title>Fallback</title>
<polygon fill="cyan" stroke="black" points="954.11,-226.54 954.11,-241.46 936.98,-252 912.75,-252 895.62,-241.46 895.62,-226.54 912.75,-216 936.98,-216 954.11,-226.54"/>
<text text-anchor="middle" x="924.87" y="-231.8" font-family="Times,serif" font-size="9.00">Fallback</text>
</g>
<!-- NotReadyForSG? -->
<g id="node2" class="node">
<title>NotReadyForSG?</title>
<ellipse fill="gray" stroke="black" cx="825.87" cy="-162" rx="46.53" ry="18"/>
<text text-anchor="middle" x="825.87" y="-159.8" font-family="Times,serif" font-size="9.00">NotReadyForSG?</text>
</g>
<!-- Fallback&#45;&gt;NotReadyForSG? -->
<g id="edge1" class="edge">
<title>Fallback&#45;&gt;NotReadyForSG?</title>
<path fill="none" stroke="black" d="M906.25,-219.83C891.94,-209.72 871.9,-195.55 855.41,-183.89"/>
<polygon fill="black" stroke="black" points="857.34,-180.97 847.15,-178.05 853.3,-186.68 857.34,-180.97"/>
</g>
<!-- ReachGoal? -->
<g id="node3" class="node">
<title>ReachGoal?</title>
<ellipse fill="gray" stroke="black" cx="924.87" cy="-162" rx="34.13" ry="18"/>
<text text-anchor="middle" x="924.87" y="-159.8" font-family="Times,serif" font-size="9.00">ReachGoal?</text>
</g>
<!-- Fallback&#45;&gt;ReachGoal? -->
<g id="edge2" class="edge">
<title>Fallback&#45;&gt;ReachGoal?</title>
<path fill="none" stroke="black" d="M924.87,-215.7C924.87,-207.98 924.87,-198.71 924.87,-190.11"/>
<polygon fill="black" stroke="black" points="928.37,-190.1 924.87,-180.1 921.37,-190.1 928.37,-190.1"/>
</g>
<!-- Sequence -->
<g id="node4" class="node">
<title>Sequence</title>
<polygon fill="cyan" stroke="black" points="1039.36,-154.54 1039.36,-169.46 1020.91,-180 994.82,-180 976.37,-169.46 976.37,-154.54 994.82,-144 1020.91,-144 1039.36,-154.54"/>
<text text-anchor="middle" x="1007.87" y="-159.8" font-family="Times,serif" font-size="9.00">Sequence</text>
</g>
<!-- Fallback&#45;&gt;Sequence -->
<g id="edge3" class="edge">
<title>Fallback&#45;&gt;Sequence</title>
<path fill="none" stroke="black" d="M941.66,-218.83C953.43,-208.91 969.37,-195.47 982.65,-184.26"/>
<polygon fill="black" stroke="black" points="985.14,-186.75 990.52,-177.63 980.62,-181.4 985.14,-186.75"/>
</g>
<!-- GetSubGoal! -->
<g id="node5" class="node">
<title>GetSubGoal!</title>
<ellipse fill="gray" stroke="black" cx="135.87" cy="-90" rx="36.9" ry="18"/>
<text text-anchor="middle" x="135.87" y="-87.8" font-family="Times,serif" font-size="9.00">GetSubGoal!</text>
</g>
<!-- Sequence&#45;&gt;GetSubGoal! -->
<g id="edge4" class="edge">
<title>Sequence&#45;&gt;GetSubGoal!</title>
<path fill="none" stroke="black" d="M984.64,-149.49C979.26,-147.29 973.46,-145.27 967.87,-144 626.89,-66.38 524.6,-177.43 181.87,-108 178.7,-107.36 175.45,-106.53 172.23,-105.59"/>
<polygon fill="black" stroke="black" points="173.3,-102.26 162.71,-102.49 171.13,-108.91 173.3,-102.26"/>
</g>
<!-- Fallback* -->
<g id="node6" class="node">
<title>Fallback*</title>
<polygon fill="cyan" stroke="black" points="254.61,-82.54 254.61,-97.46 236.02,-108 209.72,-108 191.13,-97.46 191.13,-82.54 209.72,-72 236.02,-72 254.61,-82.54"/>
<text text-anchor="middle" x="222.87" y="-87.8" font-family="Times,serif" font-size="9.00">Fallback*</text>
</g>
<!-- Sequence&#45;&gt;Fallback* -->
<g id="edge5" class="edge">
<title>Sequence&#45;&gt;Fallback*</title>
<path fill="none" stroke="black" d="M984.64,-149.53C979.25,-147.32 973.45,-145.29 967.87,-144 677.36,-76.66 593.23,-149.11 297.87,-108 286.11,-106.36 273.46,-103.81 261.97,-101.18"/>
<polygon fill="black" stroke="black" points="262.76,-97.77 252.22,-98.86 261.14,-104.58 262.76,-97.77"/>
</g>
<!-- MoveTo!* -->
<g id="node11" class="node">
<title>MoveTo!*</title>
<ellipse fill="gray" stroke="black" cx="338.87" cy="-90" rx="31.51" ry="18"/>
<text text-anchor="middle" x="338.87" y="-87.8" font-family="Times,serif" font-size="9.00">MoveTo!*</text>
</g>
<!-- Sequence&#45;&gt;MoveTo!* -->
<g id="edge10" class="edge">
<title>Sequence&#45;&gt;MoveTo!*</title>
<path fill="none" stroke="black" d="M984.63,-149.56C979.24,-147.35 973.45,-145.32 967.87,-144 713.03,-83.93 634.97,-166.95 379.87,-108 377.21,-107.39 374.51,-106.62 371.82,-105.75"/>
<polygon fill="black" stroke="black" points="372.87,-102.41 362.27,-102.26 370.47,-108.98 372.87,-102.41"/>
</g>
<!-- MoveTo!** -->
<g id="node12" class="node">
<title>MoveTo!**</title>
<ellipse fill="gray" stroke="black" cx="422.87" cy="-90" rx="34.13" ry="18"/>
<text text-anchor="middle" x="422.87" y="-87.8" font-family="Times,serif" font-size="9.00">MoveTo!**</text>
</g>
<!-- Sequence&#45;&gt;MoveTo!** -->
<g id="edge11" class="edge">
<title>Sequence&#45;&gt;MoveTo!**</title>
<path fill="none" stroke="black" d="M984.62,-149.6C979.23,-147.39 973.44,-145.34 967.87,-144 750.42,-91.54 683.96,-157.7 465.87,-108 463.08,-107.36 460.23,-106.58 457.4,-105.69"/>
<polygon fill="black" stroke="black" points="458.52,-102.37 447.93,-102.38 456.21,-108.98 458.52,-102.37"/>
</g>
<!-- Fallback** -->
<g id="node13" class="node">
<title>Fallback**</title>
<polygon fill="cyan" stroke="black" points="544.86,-82.54 544.86,-97.46 524.36,-108 495.37,-108 474.88,-97.46 474.88,-82.54 495.37,-72 524.36,-72 544.86,-82.54"/>
<text text-anchor="middle" x="509.87" y="-87.8" font-family="Times,serif" font-size="9.00">Fallback**</text>
</g>
<!-- Sequence&#45;&gt;Fallback** -->
<g id="edge12" class="edge">
<title>Sequence&#45;&gt;Fallback**</title>
<path fill="none" stroke="black" d="M984.6,-149.66C979.22,-147.45 973.43,-145.39 967.87,-144 788.66,-99.33 733.79,-149.7 553.87,-108 551.03,-107.34 548.12,-106.54 545.23,-105.64"/>
<polygon fill="black" stroke="black" points="546.14,-102.25 535.54,-102.31 543.86,-108.87 546.14,-102.25"/>
</g>
<!-- MoveTo!*** -->
<g id="node19" class="node">
<title>MoveTo!***</title>
<ellipse fill="gray" stroke="black" cx="599.87" cy="-90" rx="36.9" ry="18"/>
<text text-anchor="middle" x="599.87" y="-87.8" font-family="Times,serif" font-size="9.00">MoveTo!***</text>
</g>
<!-- Sequence&#45;&gt;MoveTo!*** -->
<g id="edge18" class="edge">
<title>Sequence&#45;&gt;MoveTo!***</title>
<path fill="none" stroke="black" d="M984.58,-149.76C979.19,-147.55 973.41,-145.46 967.87,-144 828.58,-107.45 785.99,-141.2 645.87,-108 642.9,-107.3 639.86,-106.46 636.83,-105.53"/>
<polygon fill="black" stroke="black" points="637.86,-102.19 627.26,-102.36 635.65,-108.83 637.86,-102.19"/>
</g>
<!-- MoveTo!**** -->
<g id="node20" class="node">
<title>MoveTo!****</title>
<ellipse fill="gray" stroke="black" cx="693.87" cy="-90" rx="39.02" ry="18"/>
<text text-anchor="middle" x="693.87" y="-87.8" font-family="Times,serif" font-size="9.00">MoveTo!****</text>
</g>
<!-- Sequence&#45;&gt;MoveTo!**** -->
<g id="edge19" class="edge">
<title>Sequence&#45;&gt;MoveTo!****</title>
<path fill="none" stroke="black" d="M984.1,-149.78C978.84,-147.61 973.23,-145.54 967.87,-144 870.12,-115.9 840.44,-133.08 741.87,-108 738.74,-107.2 735.53,-106.29 732.32,-105.31"/>
<polygon fill="black" stroke="black" points="733.39,-101.97 722.8,-102.2 731.22,-108.63 733.39,-101.97"/>
</g>
<!-- MoveTo!***** -->
<g id="node21" class="node">
<title>MoveTo!*****</title>
<ellipse fill="gray" stroke="black" cx="792.87" cy="-90" rx="42.29" ry="18"/>
<text text-anchor="middle" x="792.87" y="-87.8" font-family="Times,serif" font-size="9.00">MoveTo!*****</text>
</g>
<!-- Sequence&#45;&gt;MoveTo!***** -->
<g id="edge20" class="edge">
<title>Sequence&#45;&gt;MoveTo!*****</title>
<path fill="none" stroke="black" d="M983.51,-150.11C978.39,-147.97 972.98,-145.83 967.87,-144 914.23,-124.83 899.28,-124.85 844.87,-108 841.55,-106.97 838.11,-105.89 834.66,-104.79"/>
<polygon fill="black" stroke="black" points="835.59,-101.41 824.99,-101.68 833.44,-108.07 835.59,-101.41"/>
</g>
<!-- MoveTo!****** -->
<g id="node22" class="node">
<title>MoveTo!******</title>
<ellipse fill="gray" stroke="black" cx="897.87" cy="-90" rx="44.41" ry="18"/>
<text text-anchor="middle" x="897.87" y="-87.8" font-family="Times,serif" font-size="9.00">MoveTo!******</text>
</g>
<!-- Sequence&#45;&gt;MoveTo!****** -->
<g id="edge21" class="edge">
<title>Sequence&#45;&gt;MoveTo!******</title>
<path fill="none" stroke="black" d="M987.44,-148C971.13,-137.62 948.01,-122.91 929.34,-111.03"/>
<polygon fill="black" stroke="black" points="931.17,-108.04 920.85,-105.63 927.41,-113.95 931.17,-108.04"/>
</g>
<!-- MoveTo!******* -->
<g id="node23" class="node">
<title>MoveTo!*******</title>
<ellipse fill="gray" stroke="black" cx="1007.87" cy="-90" rx="47.19" ry="18"/>
<text text-anchor="middle" x="1007.87" y="-87.8" font-family="Times,serif" font-size="9.00">MoveTo!*******</text>
</g>
<!-- Sequence&#45;&gt;MoveTo!******* -->
<g id="edge22" class="edge">
<title>Sequence&#45;&gt;MoveTo!*******</title>
<path fill="none" stroke="black" d="M1007.87,-143.7C1007.87,-135.98 1007.87,-126.71 1007.87,-118.11"/>
<polygon fill="black" stroke="black" points="1011.37,-118.1 1007.87,-108.1 1004.37,-118.1 1011.37,-118.1"/>
</g>
<!-- MoveTo!******** -->
<g id="node24" class="node">
<title>MoveTo!********</title>
<ellipse fill="gray" stroke="black" cx="1122.87" cy="-90" rx="49.8" ry="18"/>
<text text-anchor="middle" x="1122.87" y="-87.8" font-family="Times,serif" font-size="9.00">MoveTo!********</text>
</g>
<!-- Sequence&#45;&gt;MoveTo!******** -->
<g id="edge23" class="edge">
<title>Sequence&#45;&gt;MoveTo!********</title>
<path fill="none" stroke="black" d="M1028.69,-148.32C1045.76,-137.94 1070.22,-123.05 1089.93,-111.05"/>
<polygon fill="black" stroke="black" points="1091.89,-113.95 1098.61,-105.77 1088.25,-107.97 1091.89,-113.95"/>
</g>
<!-- NotReadyForSG?** -->
<g id="node25" class="node">
<title>NotReadyForSG?**</title>
<ellipse fill="gray" stroke="black" cx="1242.87" cy="-90" rx="51.92" ry="18"/>
<text text-anchor="middle" x="1242.87" y="-87.8" font-family="Times,serif" font-size="9.00">NotReadyForSG?**</text>
</g>
<!-- Sequence&#45;&gt;NotReadyForSG?** -->
<g id="edge24" class="edge">
<title>Sequence&#45;&gt;NotReadyForSG?**</title>
<path fill="none" stroke="black" d="M1036.21,-152.56C1075.53,-140.84 1147.16,-119.51 1194.89,-105.29"/>
<polygon fill="black" stroke="black" points="1196.11,-108.58 1204.7,-102.37 1194.11,-101.87 1196.11,-108.58"/>
</g>
<!-- MoveTo!********* -->
<g id="node26" class="node">
<title>MoveTo!*********</title>
<ellipse fill="gray" stroke="black" cx="1365.87" cy="-90" rx="52.58" ry="18"/>
<text text-anchor="middle" x="1365.87" y="-87.8" font-family="Times,serif" font-size="9.00">MoveTo!*********</text>
</g>
<!-- Sequence&#45;&gt;MoveTo!********* -->
<g id="edge25" class="edge">
<title>Sequence&#45;&gt;MoveTo!*********</title>
<path fill="none" stroke="black" d="M1039.16,-156.35C1093.38,-148.08 1208.14,-129.65 1303.87,-108 1308.21,-107.02 1312.7,-105.93 1317.2,-104.79"/>
<polygon fill="black" stroke="black" points="1318.18,-108.15 1326.98,-102.24 1316.42,-101.38 1318.18,-108.15"/>
</g>
<!-- MoveTo!********** -->
<g id="node27" class="node">
<title>MoveTo!**********</title>
<ellipse fill="gray" stroke="black" cx="1490.87" cy="-90" rx="54.7" ry="18"/>
<text text-anchor="middle" x="1490.87" y="-87.8" font-family="Times,serif" font-size="9.00">MoveTo!**********</text>
</g>
<!-- Sequence&#45;&gt;MoveTo!********** -->
<g id="edge26" class="edge">
<title>Sequence&#45;&gt;MoveTo!**********</title>
<path fill="none" stroke="black" d="M1039.19,-158.54C1109.3,-152.7 1284.01,-136.35 1427.87,-108 1432.3,-107.13 1436.88,-106.11 1441.46,-105.02"/>
<polygon fill="black" stroke="black" points="1442.55,-108.36 1451.41,-102.54 1440.86,-101.57 1442.55,-108.36"/>
</g>
<!-- MoveTo!*********** -->
<g id="node28" class="node">
<title>MoveTo!***********</title>
<ellipse fill="gray" stroke="black" cx="1621.87" cy="-90" rx="57.97" ry="18"/>
<text text-anchor="middle" x="1621.87" y="-87.8" font-family="Times,serif" font-size="9.00">MoveTo!***********</text>
</g>
<!-- Sequence&#45;&gt;MoveTo!*********** -->
<g id="edge27" class="edge">
<title>Sequence&#45;&gt;MoveTo!***********</title>
<path fill="none" stroke="black" d="M1039.24,-159.63C1123.32,-155.6 1360.54,-141.87 1554.87,-108 1559.91,-107.12 1565.13,-106.06 1570.34,-104.91"/>
<polygon fill="black" stroke="black" points="1571.32,-108.28 1580.26,-102.6 1569.73,-101.46 1571.32,-108.28"/>
</g>
<!-- NotReadyForSG?*** -->
<g id="node29" class="node">
<title>NotReadyForSG?***</title>
<ellipse fill="gray" stroke="black" cx="1752.87" cy="-90" rx="54.7" ry="18"/>
<text text-anchor="middle" x="1752.87" y="-87.8" font-family="Times,serif" font-size="9.00">NotReadyForSG?***</text>
</g>
<!-- Sequence&#45;&gt;NotReadyForSG?*** -->
<g id="edge28" class="edge">
<title>Sequence&#45;&gt;NotReadyForSG?***</title>
<path fill="none" stroke="black" d="M1039.34,-160.58C1136.65,-158.85 1441.03,-150.2 1688.87,-108 1693.65,-107.19 1698.58,-106.18 1703.5,-105.07"/>
<polygon fill="black" stroke="black" points="1704.61,-108.4 1713.51,-102.66 1702.97,-101.59 1704.61,-108.4"/>
</g>
<!-- MoveTo!************ -->
<g id="node30" class="node">
<title>MoveTo!************</title>
<ellipse fill="gray" stroke="black" cx="1885.87" cy="-90" rx="60.09" ry="18"/>
<text text-anchor="middle" x="1885.87" y="-87.8" font-family="Times,serif" font-size="9.00">MoveTo!************</text>
</g>
<!-- Sequence&#45;&gt;MoveTo!************ -->
<g id="edge29" class="edge">
<title>Sequence&#45;&gt;MoveTo!************</title>
<path fill="none" stroke="black" d="M1039.32,-160.92C1147.89,-160.24 1516.76,-154.43 1816.87,-108 1822.2,-107.17 1827.73,-106.14 1833.22,-104.98"/>
<polygon fill="black" stroke="black" points="1834.04,-108.38 1843.04,-102.79 1832.52,-101.55 1834.04,-108.38"/>
</g>
<!-- NotReadyForSG?**** -->
<g id="node31" class="node">
<title>NotReadyForSG?****</title>
<ellipse fill="gray" stroke="black" cx="2020.87" cy="-90" rx="57.32" ry="18"/>
<text text-anchor="middle" x="2020.87" y="-87.8" font-family="Times,serif" font-size="9.00">NotReadyForSG?****</text>
</g>
<!-- Sequence&#45;&gt;NotReadyForSG?**** -->
<g id="edge30" class="edge">
<title>Sequence&#45;&gt;NotReadyForSG?****</title>
<path fill="none" stroke="black" d="M1039.16,-161.47C1158.82,-162.78 1598.51,-163.32 1954.87,-108 1959.93,-107.21 1965.16,-106.21 1970.37,-105.08"/>
<polygon fill="black" stroke="black" points="1971.33,-108.45 1980.29,-102.78 1969.76,-101.63 1971.33,-108.45"/>
</g>
<!-- GetLk! -->
<g id="node32" class="node">
<title>GetLk!</title>
<ellipse fill="gray" stroke="black" cx="2122.87" cy="-90" rx="27" ry="18"/>
<text text-anchor="middle" x="2122.87" y="-87.8" font-family="Times,serif" font-size="9.00">GetLk!</text>
</g>
<!-- Sequence&#45;&gt;GetLk! -->
<g id="edge31" class="edge">
<title>Sequence&#45;&gt;GetLk!</title>
<path fill="none" stroke="black" d="M1039.34,-161.1C1194.73,-161.37 1880.81,-159.55 2086.87,-108 2089.05,-107.45 2091.25,-106.77 2093.44,-106"/>
<polygon fill="black" stroke="black" points="2094.9,-109.19 2102.82,-102.15 2092.24,-102.71 2094.9,-109.19"/>
</g>
<!-- MoveTo! -->
<g id="node7" class="node">
<title>MoveTo!</title>
<ellipse fill="gray" stroke="black" cx="28.87" cy="-18" rx="28.74" ry="18"/>
<text text-anchor="middle" x="28.87" y="-15.8" font-family="Times,serif" font-size="9.00">MoveTo!</text>
</g>
<!-- Fallback*&#45;&gt;MoveTo! -->
<g id="edge6" class="edge">
<title>Fallback*&#45;&gt;MoveTo!</title>
<path fill="none" stroke="black" d="M198.29,-78.39C192.91,-76.19 187.23,-73.95 181.87,-72 131.52,-53.73 116.95,-54.97 66.87,-36 64.78,-35.21 62.64,-34.36 60.5,-33.48"/>
<polygon fill="black" stroke="black" points="61.76,-30.22 51.19,-29.51 59.01,-36.65 61.76,-30.22"/>
</g>
<!-- LkClose? -->
<g id="node8" class="node">
<title>LkClose?</title>
<ellipse fill="gray" stroke="black" cx="104.87" cy="-18" rx="28.74" ry="18"/>
<text text-anchor="middle" x="104.87" y="-15.8" font-family="Times,serif" font-size="9.00">LkClose?</text>
</g>
<!-- Fallback*&#45;&gt;LkClose? -->
<g id="edge7" class="edge">
<title>Fallback*&#45;&gt;LkClose?</title>
<path fill="none" stroke="black" d="M201.77,-76.49C182.83,-65.25 154.85,-48.65 133.82,-36.18"/>
<polygon fill="black" stroke="black" points="135.38,-33.03 124.99,-30.94 131.81,-39.05 135.38,-33.03"/>
</g>
<!-- ReachGoal?* -->
<g id="node9" class="node">
<title>ReachGoal?*</title>
<ellipse fill="gray" stroke="black" cx="188.87" cy="-18" rx="36.9" ry="18"/>
<text text-anchor="middle" x="188.87" y="-15.8" font-family="Times,serif" font-size="9.00">ReachGoal?*</text>
</g>
<!-- Fallback*&#45;&gt;ReachGoal?* -->
<g id="edge8" class="edge">
<title>Fallback*&#45;&gt;ReachGoal?*</title>
<path fill="none" stroke="black" d="M214.46,-71.7C210.53,-63.61 205.78,-53.81 201.43,-44.87"/>
<polygon fill="black" stroke="black" points="204.46,-43.09 196.94,-35.62 198.16,-46.15 204.46,-43.09"/>
</g>
<!-- CompLkGraph! -->
<g id="node10" class="node">
<title>CompLkGraph!</title>
<ellipse fill="gray" stroke="black" cx="286.87" cy="-18" rx="42.95" ry="18"/>
<text text-anchor="middle" x="286.87" y="-15.8" font-family="Times,serif" font-size="9.00">CompLkGraph!</text>
</g>
<!-- Fallback*&#45;&gt;CompLkGraph! -->
<g id="edge9" class="edge">
<title>Fallback*&#45;&gt;CompLkGraph!</title>
<path fill="none" stroke="black" d="M237.71,-72.76C245.87,-63.84 256.14,-52.61 265.18,-42.72"/>
<polygon fill="black" stroke="black" points="267.94,-44.89 272.1,-35.15 262.77,-40.17 267.94,-44.89"/>
</g>
<!-- NotReadyForSG?* -->
<g id="node14" class="node">
<title>NotReadyForSG?*</title>
<ellipse fill="gray" stroke="black" cx="396.87" cy="-18" rx="49.8" ry="18"/>
<text text-anchor="middle" x="396.87" y="-15.8" font-family="Times,serif" font-size="9.00">NotReadyForSG?*</text>
</g>
<!-- Fallback**&#45;&gt;NotReadyForSG?* -->
<g id="edge13" class="edge">
<title>Fallback**&#45;&gt;NotReadyForSG?*</title>
<path fill="none" stroke="black" d="M488.08,-75.5C471.47,-65.21 448.33,-50.88 429.51,-39.22"/>
<polygon fill="black" stroke="black" points="431.28,-36.2 420.94,-33.91 427.59,-42.15 431.28,-36.2"/>
</g>
<!-- CompLkGraph!* -->
<g id="node15" class="node">
<title>CompLkGraph!*</title>
<ellipse fill="gray" stroke="black" cx="509.87" cy="-18" rx="45.07" ry="18"/>
<text text-anchor="middle" x="509.87" y="-15.8" font-family="Times,serif" font-size="9.00">CompLkGraph!*</text>
</g>
<!-- Fallback**&#45;&gt;CompLkGraph!* -->
<g id="edge14" class="edge">
<title>Fallback**&#45;&gt;CompLkGraph!*</title>
<path fill="none" stroke="black" d="M509.87,-71.7C509.87,-63.98 509.87,-54.71 509.87,-46.11"/>
<polygon fill="black" stroke="black" points="513.37,-46.1 509.87,-36.1 506.37,-46.1 513.37,-46.1"/>
</g>
<!-- LkClose?* -->
<g id="node16" class="node">
<title>LkClose?*</title>
<ellipse fill="gray" stroke="black" cx="604.87" cy="-18" rx="31.51" ry="18"/>
<text text-anchor="middle" x="604.87" y="-15.8" font-family="Times,serif" font-size="9.00">LkClose?*</text>
</g>
<!-- Fallback**&#45;&gt;LkClose?* -->
<g id="edge15" class="edge">
<title>Fallback**&#45;&gt;LkClose?*</title>
<path fill="none" stroke="black" d="M529.55,-74.5C543.58,-64.16 562.62,-50.13 578.04,-38.77"/>
<polygon fill="black" stroke="black" points="580.2,-41.52 586.18,-32.77 576.05,-35.89 580.2,-41.52"/>
</g>
<!-- GetSubGoal!* -->
<g id="node17" class="node">
<title>GetSubGoal!*</title>
<ellipse fill="gray" stroke="black" cx="693.87" cy="-18" rx="39.02" ry="18"/>
<text text-anchor="middle" x="693.87" y="-15.8" font-family="Times,serif" font-size="9.00">GetSubGoal!*</text>
</g>
<!-- Fallback**&#45;&gt;GetSubGoal!* -->
<g id="edge16" class="edge">
<title>Fallback**&#45;&gt;GetSubGoal!*</title>
<path fill="none" stroke="black" d="M537.32,-78.36C542.8,-76.25 548.51,-74.05 553.87,-72 588.07,-58.92 627.03,-44.18 655.15,-33.58"/>
<polygon fill="black" stroke="black" points="656.5,-36.81 664.62,-30.01 654.03,-30.26 656.5,-36.81"/>
</g>
<!-- CompLkGraph!** -->
<g id="node18" class="node">
<title>CompLkGraph!**</title>
<ellipse fill="gray" stroke="black" cx="798.87" cy="-18" rx="47.84" ry="18"/>
<text text-anchor="middle" x="798.87" y="-15.8" font-family="Times,serif" font-size="9.00">CompLkGraph!**</text>
</g>
<!-- Fallback**&#45;&gt;CompLkGraph!** -->
<g id="edge17" class="edge">
<title>Fallback**&#45;&gt;CompLkGraph!**</title>
<path fill="none" stroke="black" d="M536.13,-77.97C541.91,-75.79 548.04,-73.67 553.87,-72 635.65,-48.58 659.22,-56.18 741.87,-36 745.71,-35.06 749.67,-34.02 753.64,-32.94"/>
<polygon fill="black" stroke="black" points="754.77,-36.26 763.44,-30.17 752.87,-29.52 754.77,-36.26"/>
</g>
</g>
</svg>
