<?xml version="1.0" encoding="UTF-8" standalone="no"?>
<!DOCTYPE svg PUBLIC "-//W3C//DTD SVG 1.1//EN"
 "http://www.w3.org/Graphics/SVG/1.1/DTD/svg11.dtd">
<!-- Generated by graphviz version 2.43.0 (0)
 -->
<!-- Title: pastafarianism Pages: 1 -->
<svg width="2567pt" height="260pt"
 viewBox="0.00 0.00 2566.87 260.00" xmlns="http://www.w3.org/2000/svg" xmlns:xlink="http://www.w3.org/1999/xlink">
<g id="graph0" class="graph" transform="scale(1 1) rotate(0) translate(4 256)">
<title>pastafarianism</title>
<polygon fill="white" stroke="transparent" points="-4,4 -4,-256 2562.87,-256 2562.87,4 -4,4"/>
<!-- Fallback -->
<g id="node1" class="node">
<title>Fallback</title>
<polygon fill="cyan" stroke="black" points="1273.11,-226.54 1273.11,-241.46 1255.98,-252 1231.75,-252 1214.62,-241.46 1214.62,-226.54 1231.75,-216 1255.98,-216 1273.11,-226.54"/>
<text text-anchor="middle" x="1243.87" y="-231.8" font-family="Times,serif" font-size="9.00">Fallback</text>
</g>
<!-- NotReadyForSG? -->
<g id="node2" class="node">
<title>NotReadyForSG?</title>
<ellipse fill="gray" stroke="black" cx="1103.87" cy="-162" rx="46.53" ry="18"/>
<text text-anchor="middle" x="1103.87" y="-159.8" font-family="Times,serif" font-size="9.00">NotReadyForSG?</text>
</g>
<!-- Fallback&#45;&gt;NotReadyForSG? -->
<g id="edge1" class="edge">
<title>Fallback&#45;&gt;NotReadyForSG?</title>
<path fill="none" stroke="black" d="M1221.68,-221.91C1199.85,-210.99 1166.12,-194.13 1140.34,-181.23"/>
<polygon fill="black" stroke="black" points="1141.74,-178.02 1131.23,-176.68 1138.61,-184.29 1141.74,-178.02"/>
</g>
<!-- ReachGoal? -->
<g id="node3" class="node">
<title>ReachGoal?</title>
<ellipse fill="gray" stroke="black" cx="1202.87" cy="-162" rx="34.13" ry="18"/>
<text text-anchor="middle" x="1202.87" y="-159.8" font-family="Times,serif" font-size="9.00">ReachGoal?</text>
</g>
<!-- Fallback&#45;&gt;ReachGoal? -->
<g id="edge2" class="edge">
<title>Fallback&#45;&gt;ReachGoal?</title>
<path fill="none" stroke="black" d="M1233.73,-215.7C1228.9,-207.44 1223.01,-197.39 1217.69,-188.3"/>
<polygon fill="black" stroke="black" points="1220.68,-186.48 1212.6,-179.62 1214.64,-190.02 1220.68,-186.48"/>
</g>
<!-- Sequence -->
<g id="node4" class="node">
<title>Sequence</title>
<polygon fill="cyan" stroke="black" points="1317.36,-154.54 1317.36,-169.46 1298.91,-180 1272.82,-180 1254.37,-169.46 1254.37,-154.54 1272.82,-144 1298.91,-144 1317.36,-154.54"/>
<text text-anchor="middle" x="1285.87" y="-159.8" font-family="Times,serif" font-size="9.00">Sequence</text>
</g>
<!-- Fallback&#45;&gt;Sequence -->
<g id="edge3" class="edge">
<title>Fallback&#45;&gt;Sequence</title>
<path fill="none" stroke="black" d="M1254.25,-215.7C1259.13,-207.56 1265.05,-197.69 1270.45,-188.7"/>
<polygon fill="black" stroke="black" points="1273.46,-190.48 1275.6,-180.1 1267.46,-186.88 1273.46,-190.48"/>
</g>
<!-- LkClose?** -->
<g id="node37" class="node">
<title>LkClose?**</title>
<ellipse fill="gray" stroke="black" cx="1368.87" cy="-162" rx="34.13" ry="18"/>
<text text-anchor="middle" x="1368.87" y="-159.8" font-family="Times,serif" font-size="9.00">LkClose?**</text>
</g>
<!-- Fallback&#45;&gt;LkClose?** -->
<g id="edge36" class="edge">
<title>Fallback&#45;&gt;LkClose?**</title>
<path fill="none" stroke="black" d="M1264.79,-221.28C1284.58,-210.2 1314.55,-193.42 1337.26,-180.7"/>
<polygon fill="black" stroke="black" points="1339.17,-183.64 1346.18,-175.7 1335.75,-177.54 1339.17,-183.64"/>
</g>
<!-- GetSubGoal! -->
<g id="node5" class="node">
<title>GetSubGoal!</title>
<ellipse fill="gray" stroke="black" cx="187.87" cy="-90" rx="36.9" ry="18"/>
<text text-anchor="middle" x="187.87" y="-87.8" font-family="Times,serif" font-size="9.00">GetSubGoal!</text>
</g>
<!-- Sequence&#45;&gt;GetSubGoal! -->
<g id="edge4" class="edge">
<title>Sequence&#45;&gt;GetSubGoal!</title>
<path fill="none" stroke="black" d="M1262.65,-149.45C1257.27,-147.25 1251.47,-145.24 1245.87,-144 806.53,-46.35 675.42,-195.11 233.87,-108 230.69,-107.37 227.45,-106.56 224.22,-105.63"/>
<polygon fill="black" stroke="black" points="225.29,-102.29 214.7,-102.54 223.13,-108.95 225.29,-102.29"/>
</g>
<!-- Fallback* -->
<g id="node6" class="node">
<title>Fallback*</title>
<polygon fill="cyan" stroke="black" points="306.61,-82.54 306.61,-97.46 288.02,-108 261.72,-108 243.13,-97.46 243.13,-82.54 261.72,-72 288.02,-72 306.61,-82.54"/>
<text text-anchor="middle" x="274.87" y="-87.8" font-family="Times,serif" font-size="9.00">Fallback*</text>
</g>
<!-- Sequence&#45;&gt;Fallback* -->
<g id="edge5" class="edge">
<title>Sequence&#45;&gt;Fallback*</title>
<path fill="none" stroke="black" d="M1262.64,-149.5C1257.25,-147.3 1251.46,-145.28 1245.87,-144 1082.34,-106.61 659.28,-118.55 491.87,-108 430.94,-104.16 360.49,-98.4 316.81,-94.67"/>
<polygon fill="black" stroke="black" points="317.1,-91.18 306.83,-93.81 316.5,-98.15 317.1,-91.18"/>
</g>
<!-- MoveTo!* -->
<g id="node12" class="node">
<title>MoveTo!*</title>
<ellipse fill="gray" stroke="black" cx="532.87" cy="-90" rx="31.51" ry="18"/>
<text text-anchor="middle" x="532.87" y="-87.8" font-family="Times,serif" font-size="9.00">MoveTo!*</text>
</g>
<!-- Sequence&#45;&gt;MoveTo!* -->
<g id="edge11" class="edge">
<title>Sequence&#45;&gt;MoveTo!*</title>
<path fill="none" stroke="black" d="M1262.64,-149.53C1257.25,-147.32 1251.45,-145.29 1245.87,-144 954.49,-76.48 865.54,-174.23 573.87,-108 571.21,-107.4 568.51,-106.64 565.82,-105.77"/>
<polygon fill="black" stroke="black" points="566.86,-102.43 556.27,-102.3 564.47,-109.01 566.86,-102.43"/>
</g>
<!-- MoveTo!** -->
<g id="node13" class="node">
<title>MoveTo!**</title>
<ellipse fill="gray" stroke="black" cx="616.87" cy="-90" rx="34.13" ry="18"/>
<text text-anchor="middle" x="616.87" y="-87.8" font-family="Times,serif" font-size="9.00">MoveTo!**</text>
</g>
<!-- Sequence&#45;&gt;MoveTo!** -->
<g id="edge12" class="edge">
<title>Sequence&#45;&gt;MoveTo!**</title>
<path fill="none" stroke="black" d="M1262.63,-149.56C1257.24,-147.35 1251.45,-145.32 1245.87,-144 991.9,-84.1 914.57,-164.67 659.87,-108 657.08,-107.38 654.23,-106.6 651.4,-105.72"/>
<polygon fill="black" stroke="black" points="652.51,-102.41 641.92,-102.43 650.21,-109.02 652.51,-102.41"/>
</g>
<!-- Fallback** -->
<g id="node14" class="node">
<title>Fallback**</title>
<polygon fill="cyan" stroke="black" points="738.86,-82.54 738.86,-97.46 718.36,-108 689.37,-108 668.88,-97.46 668.88,-82.54 689.37,-72 718.36,-72 738.86,-82.54"/>
<text text-anchor="middle" x="703.87" y="-87.8" font-family="Times,serif" font-size="9.00">Fallback**</text>
</g>
<!-- Sequence&#45;&gt;Fallback** -->
<g id="edge13" class="edge">
<title>Sequence&#45;&gt;Fallback**</title>
<path fill="none" stroke="black" d="M1262.62,-149.6C1257.23,-147.39 1251.44,-145.35 1245.87,-144 1030.16,-91.89 964.41,-156.52 747.87,-108 745.02,-107.36 742.11,-106.57 739.22,-105.69"/>
<polygon fill="black" stroke="black" points="740.12,-102.3 729.53,-102.38 737.86,-108.92 740.12,-102.3"/>
</g>
<!-- MoveTo!**** -->
<g id="node22" class="node">
<title>MoveTo!****</title>
<ellipse fill="gray" stroke="black" cx="795.87" cy="-90" rx="39.02" ry="18"/>
<text text-anchor="middle" x="795.87" y="-87.8" font-family="Times,serif" font-size="9.00">MoveTo!****</text>
</g>
<!-- Sequence&#45;&gt;MoveTo!**** -->
<g id="edge21" class="edge">
<title>Sequence&#45;&gt;MoveTo!****</title>
<path fill="none" stroke="black" d="M1262.6,-149.67C1257.22,-147.46 1251.43,-145.39 1245.87,-144 1071.87,-100.39 1019.12,-146.24 843.87,-108 840.67,-107.3 837.4,-106.45 834.13,-105.51"/>
<polygon fill="black" stroke="black" points="835.05,-102.13 824.46,-102.44 832.94,-108.8 835.05,-102.13"/>
</g>
<!-- MoveTo!***** -->
<g id="node23" class="node">
<title>MoveTo!*****</title>
<ellipse fill="gray" stroke="black" cx="894.87" cy="-90" rx="42.29" ry="18"/>
<text text-anchor="middle" x="894.87" y="-87.8" font-family="Times,serif" font-size="9.00">MoveTo!*****</text>
</g>
<!-- Sequence&#45;&gt;MoveTo!***** -->
<g id="edge22" class="edge">
<title>Sequence&#45;&gt;MoveTo!*****</title>
<path fill="none" stroke="black" d="M1262.57,-149.8C1257.18,-147.58 1251.41,-145.48 1245.87,-144 1116.55,-109.48 1077.55,-136.94 946.87,-108 943.22,-107.19 939.47,-106.23 935.73,-105.19"/>
<polygon fill="black" stroke="black" points="936.52,-101.77 925.94,-102.26 934.52,-108.48 936.52,-101.77"/>
</g>
<!-- MoveTo!****** -->
<g id="node24" class="node">
<title>MoveTo!******</title>
<ellipse fill="gray" stroke="black" cx="999.87" cy="-90" rx="44.41" ry="18"/>
<text text-anchor="middle" x="999.87" y="-87.8" font-family="Times,serif" font-size="9.00">MoveTo!******</text>
</g>
<!-- Sequence&#45;&gt;MoveTo!****** -->
<g id="edge23" class="edge">
<title>Sequence&#45;&gt;MoveTo!******</title>
<path fill="none" stroke="black" d="M1262.07,-149.89C1256.81,-147.72 1251.21,-145.62 1245.87,-144 1162.76,-118.87 1138.09,-129.07 1053.87,-108 1050.27,-107.1 1046.56,-106.1 1042.85,-105.04"/>
<polygon fill="black" stroke="black" points="1043.69,-101.64 1033.1,-102.15 1041.7,-108.35 1043.69,-101.64"/>
</g>
<!-- MoveTo!******* -->
<g id="node25" class="node">
<title>MoveTo!*******</title>
<ellipse fill="gray" stroke="black" cx="1109.87" cy="-90" rx="47.19" ry="18"/>
<text text-anchor="middle" x="1109.87" y="-87.8" font-family="Times,serif" font-size="9.00">MoveTo!*******</text>
</g>
<!-- Sequence&#45;&gt;MoveTo!******* -->
<g id="edge24" class="edge">
<title>Sequence&#45;&gt;MoveTo!*******</title>
<path fill="none" stroke="black" d="M1261.38,-150.45C1256.26,-148.29 1250.9,-146.05 1245.87,-144 1214.41,-131.19 1178.61,-117.26 1151.64,-106.9"/>
<polygon fill="black" stroke="black" points="1152.72,-103.57 1142.13,-103.26 1150.21,-110.1 1152.72,-103.57"/>
</g>
<!-- MoveTo!******** -->
<g id="node26" class="node">
<title>MoveTo!********</title>
<ellipse fill="gray" stroke="black" cx="1224.87" cy="-90" rx="49.8" ry="18"/>
<text text-anchor="middle" x="1224.87" y="-87.8" font-family="Times,serif" font-size="9.00">MoveTo!********</text>
</g>
<!-- Sequence&#45;&gt;MoveTo!******** -->
<g id="edge25" class="edge">
<title>Sequence&#45;&gt;MoveTo!********</title>
<path fill="none" stroke="black" d="M1271.41,-144.41C1263.81,-135.69 1254.36,-124.85 1245.96,-115.21"/>
<polygon fill="black" stroke="black" points="1248.43,-112.71 1239.22,-107.47 1243.15,-117.31 1248.43,-112.71"/>
</g>
<!-- NotReadyForSG?*** -->
<g id="node27" class="node">
<title>NotReadyForSG?***</title>
<ellipse fill="gray" stroke="black" cx="1347.87" cy="-90" rx="54.7" ry="18"/>
<text text-anchor="middle" x="1347.87" y="-87.8" font-family="Times,serif" font-size="9.00">NotReadyForSG?***</text>
</g>
<!-- Sequence&#45;&gt;NotReadyForSG?*** -->
<g id="edge26" class="edge">
<title>Sequence&#45;&gt;NotReadyForSG?***</title>
<path fill="none" stroke="black" d="M1300.56,-144.41C1308.28,-135.69 1317.89,-124.85 1326.43,-115.21"/>
<polygon fill="black" stroke="black" points="1329.27,-117.28 1333.28,-107.47 1324.03,-112.64 1329.27,-117.28"/>
</g>
<!-- MoveTo!********* -->
<g id="node28" class="node">
<title>MoveTo!*********</title>
<ellipse fill="gray" stroke="black" cx="1472.87" cy="-90" rx="52.58" ry="18"/>
<text text-anchor="middle" x="1472.87" y="-87.8" font-family="Times,serif" font-size="9.00">MoveTo!*********</text>
</g>
<!-- Sequence&#45;&gt;MoveTo!********* -->
<g id="edge27" class="edge">
<title>Sequence&#45;&gt;MoveTo!*********</title>
<path fill="none" stroke="black" d="M1310.32,-150.35C1315.43,-148.2 1320.81,-145.98 1325.87,-144 1359.67,-130.73 1398.32,-116.85 1427.5,-106.62"/>
<polygon fill="black" stroke="black" points="1428.73,-109.9 1437.01,-103.3 1426.42,-103.29 1428.73,-109.9"/>
</g>
<!-- MoveTo!********** -->
<g id="node29" class="node">
<title>MoveTo!**********</title>
<ellipse fill="gray" stroke="black" cx="1597.87" cy="-90" rx="54.7" ry="18"/>
<text text-anchor="middle" x="1597.87" y="-87.8" font-family="Times,serif" font-size="9.00">MoveTo!**********</text>
</g>
<!-- Sequence&#45;&gt;MoveTo!********** -->
<g id="edge28" class="edge">
<title>Sequence&#45;&gt;MoveTo!**********</title>
<path fill="none" stroke="black" d="M1309.65,-149.83C1314.91,-147.66 1320.51,-145.58 1325.87,-144 1416.29,-117.39 1442.82,-128.3 1534.87,-108 1539.04,-107.08 1543.34,-106.06 1547.66,-105"/>
<polygon fill="black" stroke="black" points="1548.85,-108.31 1557.67,-102.44 1547.12,-101.52 1548.85,-108.31"/>
</g>
<!-- MoveTo!*********** -->
<g id="node30" class="node">
<title>MoveTo!***********</title>
<ellipse fill="gray" stroke="black" cx="1728.87" cy="-90" rx="57.97" ry="18"/>
<text text-anchor="middle" x="1728.87" y="-87.8" font-family="Times,serif" font-size="9.00">MoveTo!***********</text>
</g>
<!-- Sequence&#45;&gt;MoveTo!*********** -->
<g id="edge29" class="edge">
<title>Sequence&#45;&gt;MoveTo!***********</title>
<path fill="none" stroke="black" d="M1309.15,-149.74C1314.54,-147.53 1320.32,-145.44 1325.87,-144 1471.23,-106.22 1514.04,-134.54 1661.87,-108 1666.91,-107.1 1672.13,-106.02 1677.33,-104.86"/>
<polygon fill="black" stroke="black" points="1678.31,-108.22 1687.25,-102.53 1676.72,-101.41 1678.31,-108.22"/>
</g>
<!-- MoveTo!************ -->
<g id="node31" class="node">
<title>MoveTo!************</title>
<ellipse fill="gray" stroke="black" cx="1864.87" cy="-90" rx="60.09" ry="18"/>
<text text-anchor="middle" x="1864.87" y="-87.8" font-family="Times,serif" font-size="9.00">MoveTo!************</text>
</g>
<!-- Sequence&#45;&gt;MoveTo!************ -->
<g id="edge30" class="edge">
<title>Sequence&#45;&gt;MoveTo!************</title>
<path fill="none" stroke="black" d="M1309.12,-149.62C1314.51,-147.41 1320.3,-145.36 1325.87,-144 1529.41,-94.37 1589.01,-141.17 1795.87,-108 1801.2,-107.15 1806.72,-106.09 1812.22,-104.92"/>
<polygon fill="black" stroke="black" points="1813.04,-108.32 1822.03,-102.72 1811.5,-101.49 1813.04,-108.32"/>
</g>
<!-- MoveTo!************* -->
<g id="node32" class="node">
<title>MoveTo!*************</title>
<ellipse fill="gray" stroke="black" cx="2005.87" cy="-90" rx="62.86" ry="18"/>
<text text-anchor="middle" x="2005.87" y="-87.8" font-family="Times,serif" font-size="9.00">MoveTo!*************</text>
</g>
<!-- Sequence&#45;&gt;MoveTo!************* -->
<g id="edge31" class="edge">
<title>Sequence&#45;&gt;MoveTo!*************</title>
<path fill="none" stroke="black" d="M1309.1,-149.55C1314.49,-147.34 1320.28,-145.31 1325.87,-144 1589.4,-82.15 1666.03,-147.25 1933.87,-108 1939.57,-107.16 1945.48,-106.1 1951.35,-104.91"/>
<polygon fill="black" stroke="black" points="1952.11,-108.33 1961.16,-102.82 1950.65,-101.48 1952.11,-108.33"/>
</g>
<!-- NotReadyForSG?**** -->
<g id="node33" class="node">
<title>NotReadyForSG?****</title>
<ellipse fill="gray" stroke="black" cx="2143.87" cy="-90" rx="57.32" ry="18"/>
<text text-anchor="middle" x="2143.87" y="-87.8" font-family="Times,serif" font-size="9.00">NotReadyForSG?****</text>
</g>
<!-- Sequence&#45;&gt;NotReadyForSG?**** -->
<g id="edge32" class="edge">
<title>Sequence&#45;&gt;NotReadyForSG?****</title>
<path fill="none" stroke="black" d="M1309.09,-149.5C1314.48,-147.3 1320.28,-145.28 1325.87,-144 1652.05,-69.4 1747.02,-157.99 2077.87,-108 2082.93,-107.24 2088.17,-106.24 2093.37,-105.12"/>
<polygon fill="black" stroke="black" points="2094.34,-108.49 2103.3,-102.84 2092.77,-101.67 2094.34,-108.49"/>
</g>
<!-- MoveTo!************** -->
<g id="node34" class="node">
<title>MoveTo!**************</title>
<ellipse fill="gray" stroke="black" cx="2283.87" cy="-90" rx="65.48" ry="18"/>
<text text-anchor="middle" x="2283.87" y="-87.8" font-family="Times,serif" font-size="9.00">MoveTo!**************</text>
</g>
<!-- Sequence&#45;&gt;MoveTo!************** -->
<g id="edge33" class="edge">
<title>Sequence&#45;&gt;MoveTo!**************</title>
<path fill="none" stroke="black" d="M1309.09,-149.47C1314.47,-147.27 1320.27,-145.26 1325.87,-144 1517.68,-100.85 2015,-134.12 2209.87,-108 2215.73,-107.21 2221.8,-106.18 2227.84,-105.01"/>
<polygon fill="black" stroke="black" points="2228.83,-108.38 2237.92,-102.94 2227.42,-101.53 2228.83,-108.38"/>
</g>
<!-- NotReadyForSG?***** -->
<g id="node35" class="node">
<title>NotReadyForSG?*****</title>
<ellipse fill="gray" stroke="black" cx="2426.87" cy="-90" rx="60.09" ry="18"/>
<text text-anchor="middle" x="2426.87" y="-87.8" font-family="Times,serif" font-size="9.00">NotReadyForSG?*****</text>
</g>
<!-- Sequence&#45;&gt;NotReadyForSG?***** -->
<g id="edge34" class="edge">
<title>Sequence&#45;&gt;NotReadyForSG?*****</title>
<path fill="none" stroke="black" d="M1309.08,-149.45C1314.47,-147.25 1320.27,-145.24 1325.87,-144 1549.89,-94.29 2130.58,-139.62 2357.87,-108 2363.29,-107.25 2368.91,-106.24 2374.49,-105.1"/>
<polygon fill="black" stroke="black" points="2375.42,-108.48 2384.44,-102.91 2373.92,-101.64 2375.42,-108.48"/>
</g>
<!-- GetLk! -->
<g id="node36" class="node">
<title>GetLk!</title>
<ellipse fill="gray" stroke="black" cx="2531.87" cy="-90" rx="27" ry="18"/>
<text text-anchor="middle" x="2531.87" y="-87.8" font-family="Times,serif" font-size="9.00">GetLk!</text>
</g>
<!-- Sequence&#45;&gt;GetLk! -->
<g id="edge35" class="edge">
<title>Sequence&#45;&gt;GetLk!</title>
<path fill="none" stroke="black" d="M1309.08,-149.43C1314.47,-147.23 1320.27,-145.23 1325.87,-144 1579.93,-88.17 2242.95,-168.81 2495.87,-108 2498.05,-107.47 2500.26,-106.81 2502.46,-106.05"/>
<polygon fill="black" stroke="black" points="2503.9,-109.24 2511.84,-102.22 2501.26,-102.75 2503.9,-109.24"/>
</g>
<!-- MoveTo! -->
<g id="node7" class="node">
<title>MoveTo!</title>
<ellipse fill="gray" stroke="black" cx="28.87" cy="-18" rx="28.74" ry="18"/>
<text text-anchor="middle" x="28.87" y="-15.8" font-family="Times,serif" font-size="9.00">MoveTo!</text>
</g>
<!-- Fallback*&#45;&gt;MoveTo! -->
<g id="edge6" class="edge">
<title>Fallback*&#45;&gt;MoveTo!</title>
<path fill="none" stroke="black" d="M250.42,-78.02C245.03,-75.84 239.31,-73.7 233.87,-72 161.39,-49.37 139.02,-59.63 66.87,-36 64.75,-35.31 62.59,-34.53 60.42,-33.71"/>
<polygon fill="black" stroke="black" points="61.65,-30.43 51.07,-29.86 58.98,-36.9 61.65,-30.43"/>
</g>
<!-- LkClose? -->
<g id="node8" class="node">
<title>LkClose?</title>
<ellipse fill="gray" stroke="black" cx="104.87" cy="-18" rx="28.74" ry="18"/>
<text text-anchor="middle" x="104.87" y="-15.8" font-family="Times,serif" font-size="9.00">LkClose?</text>
</g>
<!-- Fallback*&#45;&gt;LkClose? -->
<g id="edge7" class="edge">
<title>Fallback*&#45;&gt;LkClose?</title>
<path fill="none" stroke="black" d="M249.74,-78.51C244.5,-76.34 239.01,-74.08 233.87,-72 193.56,-55.67 182.95,-52.88 142.87,-36 141.02,-35.22 139.13,-34.41 137.22,-33.59"/>
<polygon fill="black" stroke="black" points="138.27,-30.23 127.7,-29.41 135.45,-36.64 138.27,-30.23"/>
</g>
<!-- ReachGoal?* -->
<g id="node9" class="node">
<title>ReachGoal?*</title>
<ellipse fill="gray" stroke="black" cx="188.87" cy="-18" rx="36.9" ry="18"/>
<text text-anchor="middle" x="188.87" y="-15.8" font-family="Times,serif" font-size="9.00">ReachGoal?*</text>
</g>
<!-- Fallback*&#45;&gt;ReachGoal?* -->
<g id="edge8" class="edge">
<title>Fallback*&#45;&gt;ReachGoal?*</title>
<path fill="none" stroke="black" d="M257.05,-74.5C244.91,-64.61 228.63,-51.36 215.02,-40.29"/>
<polygon fill="black" stroke="black" points="216.92,-37.32 206.96,-33.73 212.51,-42.75 216.92,-37.32"/>
</g>
<!-- LkGraph? -->
<g id="node10" class="node">
<title>LkGraph?</title>
<ellipse fill="gray" stroke="black" cx="274.87" cy="-18" rx="30.7" ry="18"/>
<text text-anchor="middle" x="274.87" y="-15.8" font-family="Times,serif" font-size="9.00">LkGraph?</text>
</g>
<!-- Fallback*&#45;&gt;LkGraph? -->
<g id="edge9" class="edge">
<title>Fallback*&#45;&gt;LkGraph?</title>
<path fill="none" stroke="black" d="M274.87,-71.7C274.87,-63.98 274.87,-54.71 274.87,-46.11"/>
<polygon fill="black" stroke="black" points="278.37,-46.1 274.87,-36.1 271.37,-46.1 278.37,-46.1"/>
</g>
<!-- NotReadyForSG?* -->
<g id="node11" class="node">
<title>NotReadyForSG?*</title>
<ellipse fill="gray" stroke="black" cx="372.87" cy="-18" rx="49.8" ry="18"/>
<text text-anchor="middle" x="372.87" y="-15.8" font-family="Times,serif" font-size="9.00">NotReadyForSG?*</text>
</g>
<!-- Fallback*&#45;&gt;NotReadyForSG?* -->
<g id="edge10" class="edge">
<title>Fallback*&#45;&gt;NotReadyForSG?*</title>
<path fill="none" stroke="black" d="M294.23,-75.17C308.16,-65.22 327.21,-51.61 343.07,-40.28"/>
<polygon fill="black" stroke="black" points="345.4,-42.92 351.5,-34.26 341.33,-37.22 345.4,-42.92"/>
</g>
<!-- NotReadyForSG?** -->
<g id="node15" class="node">
<title>NotReadyForSG?**</title>
<ellipse fill="gray" stroke="black" cx="492.87" cy="-18" rx="51.92" ry="18"/>
<text text-anchor="middle" x="492.87" y="-15.8" font-family="Times,serif" font-size="9.00">NotReadyForSG?**</text>
</g>
<!-- Fallback**&#45;&gt;NotReadyForSG?** -->
<g id="edge14" class="edge">
<title>Fallback**&#45;&gt;NotReadyForSG?**</title>
<path fill="none" stroke="black" d="M676.97,-78.31C671.34,-76.16 665.43,-73.96 659.87,-72 620.08,-58.01 574.4,-43.63 540.88,-33.38"/>
<polygon fill="black" stroke="black" points="541.48,-29.91 530.89,-30.34 539.44,-36.6 541.48,-29.91"/>
</g>
<!-- CompLkGraph! -->
<g id="node16" class="node">
<title>CompLkGraph!</title>
<ellipse fill="gray" stroke="black" cx="605.87" cy="-18" rx="42.95" ry="18"/>
<text text-anchor="middle" x="605.87" y="-15.8" font-family="Times,serif" font-size="9.00">CompLkGraph!</text>
</g>
<!-- Fallback**&#45;&gt;CompLkGraph! -->
<g id="edge15" class="edge">
<title>Fallback**&#45;&gt;CompLkGraph!</title>
<path fill="none" stroke="black" d="M683.56,-74.5C669.56,-64.49 650.73,-51.05 635.12,-39.89"/>
<polygon fill="black" stroke="black" points="637,-36.93 626.82,-33.97 632.93,-42.63 637,-36.93"/>
</g>
<!-- MoveTo!*** -->
<g id="node17" class="node">
<title>MoveTo!***</title>
<ellipse fill="gray" stroke="black" cx="703.87" cy="-18" rx="36.9" ry="18"/>
<text text-anchor="middle" x="703.87" y="-15.8" font-family="Times,serif" font-size="9.00">MoveTo!***</text>
</g>
<!-- Fallback**&#45;&gt;MoveTo!*** -->
<g id="edge16" class="edge">
<title>Fallback**&#45;&gt;MoveTo!***</title>
<path fill="none" stroke="black" d="M703.87,-71.7C703.87,-63.98 703.87,-54.71 703.87,-46.11"/>
<polygon fill="black" stroke="black" points="707.37,-46.1 703.87,-36.1 700.37,-46.1 707.37,-46.1"/>
</g>
<!-- LkClose?* -->
<g id="node18" class="node">
<title>LkClose?*</title>
<ellipse fill="gray" stroke="black" cx="790.87" cy="-18" rx="31.51" ry="18"/>
<text text-anchor="middle" x="790.87" y="-15.8" font-family="Times,serif" font-size="9.00">LkClose?*</text>
</g>
<!-- Fallback**&#45;&gt;LkClose?* -->
<g id="edge17" class="edge">
<title>Fallback**&#45;&gt;LkClose?*</title>
<path fill="none" stroke="black" d="M722.75,-73.81C735.16,-63.82 751.57,-50.62 765.17,-39.68"/>
<polygon fill="black" stroke="black" points="767.62,-42.2 773.21,-33.21 763.23,-36.75 767.62,-42.2"/>
</g>
<!-- GetSubGoal!* -->
<g id="node19" class="node">
<title>GetSubGoal!*</title>
<ellipse fill="gray" stroke="black" cx="879.87" cy="-18" rx="39.02" ry="18"/>
<text text-anchor="middle" x="879.87" y="-15.8" font-family="Times,serif" font-size="9.00">GetSubGoal!*</text>
</g>
<!-- Fallback**&#45;&gt;GetSubGoal!* -->
<g id="edge18" class="edge">
<title>Fallback**&#45;&gt;GetSubGoal!*</title>
<path fill="none" stroke="black" d="M730.98,-78.22C760.65,-66.42 808.41,-47.42 841.82,-34.13"/>
<polygon fill="black" stroke="black" points="843.26,-37.33 851.26,-30.38 840.68,-30.82 843.26,-37.33"/>
</g>
<!-- CompLkGraph!* -->
<g id="node20" class="node">
<title>CompLkGraph!*</title>
<ellipse fill="gray" stroke="black" cx="981.87" cy="-18" rx="45.07" ry="18"/>
<text text-anchor="middle" x="981.87" y="-15.8" font-family="Times,serif" font-size="9.00">CompLkGraph!*</text>
</g>
<!-- Fallback**&#45;&gt;CompLkGraph!* -->
<g id="edge19" class="edge">
<title>Fallback**&#45;&gt;CompLkGraph!*</title>
<path fill="none" stroke="black" d="M730.14,-78.01C735.92,-75.83 742.05,-73.69 747.87,-72 826.21,-49.22 848.84,-56.28 927.87,-36 931.41,-35.09 935.06,-34.09 938.71,-33.04"/>
<polygon fill="black" stroke="black" points="939.74,-36.38 948.33,-30.17 937.74,-29.67 939.74,-36.38"/>
</g>
<!-- GetSubGoal!** -->
<g id="node21" class="node">
<title>GetSubGoal!**</title>
<ellipse fill="gray" stroke="black" cx="1086.87" cy="-18" rx="42.29" ry="18"/>
<text text-anchor="middle" x="1086.87" y="-15.8" font-family="Times,serif" font-size="9.00">GetSubGoal!**</text>
</g>
<!-- Fallback**&#45;&gt;GetSubGoal!** -->
<g id="edge20" class="edge">
<title>Fallback**&#45;&gt;GetSubGoal!**</title>
<path fill="none" stroke="black" d="M730.05,-77.68C735.83,-75.52 741.99,-73.48 747.87,-72 872.96,-40.52 910.07,-64.53 1035.87,-36 1039.29,-35.22 1042.81,-34.31 1046.33,-33.31"/>
<polygon fill="black" stroke="black" points="1047.58,-36.59 1056.13,-30.33 1045.54,-29.89 1047.58,-36.59"/>
</g>
</g>
</svg>
