<?xml version="1.0" encoding="UTF-8" standalone="no"?>
<!DOCTYPE svg PUBLIC "-//W3C//DTD SVG 1.1//EN"
 "http://www.w3.org/Graphics/SVG/1.1/DTD/svg11.dtd">
<!-- Generated by graphviz version 2.43.0 (0)
 -->
<!-- Title: pastafarianism Pages: 1 -->
<svg width="1995pt" height="260pt"
 viewBox="0.00 0.00 1994.87 260.00" xmlns="http://www.w3.org/2000/svg" xmlns:xlink="http://www.w3.org/1999/xlink">
<g id="graph0" class="graph" transform="scale(1 1) rotate(0) translate(4 256)">
<title>pastafarianism</title>
<polygon fill="white" stroke="transparent" points="-4,4 -4,-256 1990.87,-256 1990.87,4 -4,4"/>
<!-- Fallback -->
<g id="node1" class="node">
<title>Fallback</title>
<polygon fill="cyan" stroke="black" points="824.11,-226.54 824.11,-241.46 806.98,-252 782.75,-252 765.62,-241.46 765.62,-226.54 782.75,-216 806.98,-216 824.11,-226.54"/>
<text text-anchor="middle" x="794.87" y="-231.8" font-family="Times,serif" font-size="9.00">Fallback</text>
</g>
<!-- ReachGoal? -->
<g id="node2" class="node">
<title>ReachGoal?</title>
<ellipse fill="gray" stroke="black" cx="644.87" cy="-162" rx="34.13" ry="18"/>
<text text-anchor="middle" x="644.87" y="-159.8" font-family="Times,serif" font-size="9.00">ReachGoal?</text>
</g>
<!-- Fallback&#45;&gt;ReachGoal? -->
<g id="edge1" class="edge">
<title>Fallback&#45;&gt;ReachGoal?</title>
<path fill="none" stroke="black" d="M772.09,-222.37C747.27,-210.79 707.32,-192.14 678.81,-178.84"/>
<polygon fill="black" stroke="black" points="680.16,-175.61 669.61,-174.55 677.2,-181.95 680.16,-175.61"/>
</g>
<!-- NotReadyForSG? -->
<g id="node3" class="node">
<title>NotReadyForSG?</title>
<ellipse fill="gray" stroke="black" cx="743.87" cy="-162" rx="46.53" ry="18"/>
<text text-anchor="middle" x="743.87" y="-159.8" font-family="Times,serif" font-size="9.00">NotReadyForSG?</text>
</g>
<!-- Fallback&#45;&gt;NotReadyForSG? -->
<g id="edge2" class="edge">
<title>Fallback&#45;&gt;NotReadyForSG?</title>
<path fill="none" stroke="black" d="M782.52,-216.05C776.38,-207.63 768.84,-197.28 762.06,-187.97"/>
<polygon fill="black" stroke="black" points="764.82,-185.81 756.1,-179.79 759.16,-189.93 764.82,-185.81"/>
</g>
<!-- ReachGoal?* -->
<g id="node4" class="node">
<title>ReachGoal?*</title>
<ellipse fill="gray" stroke="black" cx="845.87" cy="-162" rx="36.9" ry="18"/>
<text text-anchor="middle" x="845.87" y="-159.8" font-family="Times,serif" font-size="9.00">ReachGoal?*</text>
</g>
<!-- Fallback&#45;&gt;ReachGoal?* -->
<g id="edge3" class="edge">
<title>Fallback&#45;&gt;ReachGoal?*</title>
<path fill="none" stroke="black" d="M807.21,-216.05C813.44,-207.5 821.11,-196.97 827.98,-187.56"/>
<polygon fill="black" stroke="black" points="830.93,-189.45 833.99,-179.31 825.27,-185.33 830.93,-189.45"/>
</g>
<!-- Sequence -->
<g id="node5" class="node">
<title>Sequence</title>
<polygon fill="cyan" stroke="black" points="963.36,-154.54 963.36,-169.46 944.91,-180 918.82,-180 900.37,-169.46 900.37,-154.54 918.82,-144 944.91,-144 963.36,-154.54"/>
<text text-anchor="middle" x="931.87" y="-159.8" font-family="Times,serif" font-size="9.00">Sequence</text>
</g>
<!-- Fallback&#45;&gt;Sequence -->
<g id="edge4" class="edge">
<title>Fallback&#45;&gt;Sequence</title>
<path fill="none" stroke="black" d="M816.88,-221.75C839.38,-210.26 874.55,-192.29 900.07,-179.25"/>
<polygon fill="black" stroke="black" points="901.68,-182.35 909,-174.69 898.5,-176.12 901.68,-182.35"/>
</g>
<!-- GetSubGoal! -->
<g id="node6" class="node">
<title>GetSubGoal!</title>
<ellipse fill="gray" stroke="black" cx="124.87" cy="-90" rx="36.9" ry="18"/>
<text text-anchor="middle" x="124.87" y="-87.8" font-family="Times,serif" font-size="9.00">GetSubGoal!</text>
</g>
<!-- Sequence&#45;&gt;GetSubGoal! -->
<g id="edge5" class="edge">
<title>Sequence&#45;&gt;GetSubGoal!</title>
<path fill="none" stroke="black" d="M908.64,-149.51C903.25,-147.3 897.46,-145.28 891.87,-144 579.17,-72.14 485.19,-172.35 170.87,-108 167.7,-107.35 164.46,-106.52 161.23,-105.58"/>
<polygon fill="black" stroke="black" points="162.3,-102.24 151.71,-102.47 160.13,-108.9 162.3,-102.24"/>
</g>
<!-- Fallback* -->
<g id="node7" class="node">
<title>Fallback*</title>
<polygon fill="cyan" stroke="black" points="243.61,-82.54 243.61,-97.46 225.02,-108 198.72,-108 180.13,-97.46 180.13,-82.54 198.72,-72 225.02,-72 243.61,-82.54"/>
<text text-anchor="middle" x="211.87" y="-87.8" font-family="Times,serif" font-size="9.00">Fallback*</text>
</g>
<!-- Sequence&#45;&gt;Fallback* -->
<g id="edge6" class="edge">
<title>Sequence&#45;&gt;Fallback*</title>
<path fill="none" stroke="black" d="M908.63,-149.54C903.24,-147.34 897.45,-145.31 891.87,-144 624.42,-81.36 546.01,-152.01 274.87,-108 266.6,-106.66 257.85,-104.67 249.59,-102.53"/>
<polygon fill="black" stroke="black" points="250.39,-99.12 239.82,-99.87 248.55,-105.87 250.39,-99.12"/>
</g>
<!-- MoveTo!* -->
<g id="node12" class="node">
<title>MoveTo!*</title>
<ellipse fill="gray" stroke="black" cx="315.87" cy="-90" rx="31.51" ry="18"/>
<text text-anchor="middle" x="315.87" y="-87.8" font-family="Times,serif" font-size="9.00">MoveTo!*</text>
</g>
<!-- Sequence&#45;&gt;MoveTo!* -->
<g id="edge11" class="edge">
<title>Sequence&#45;&gt;MoveTo!*</title>
<path fill="none" stroke="black" d="M908.62,-149.58C903.24,-147.37 897.45,-145.33 891.87,-144 660.08,-88.62 588.9,-162.36 356.87,-108 354.22,-107.38 351.51,-106.61 348.83,-105.73"/>
<polygon fill="black" stroke="black" points="349.87,-102.39 339.28,-102.24 347.47,-108.96 349.87,-102.39"/>
</g>
<!-- MoveTo!** -->
<g id="node13" class="node">
<title>MoveTo!**</title>
<ellipse fill="gray" stroke="black" cx="399.87" cy="-90" rx="34.13" ry="18"/>
<text text-anchor="middle" x="399.87" y="-87.8" font-family="Times,serif" font-size="9.00">MoveTo!**</text>
</g>
<!-- Sequence&#45;&gt;MoveTo!** -->
<g id="edge12" class="edge">
<title>Sequence&#45;&gt;MoveTo!**</title>
<path fill="none" stroke="black" d="M908.61,-149.63C903.22,-147.42 897.44,-145.37 891.87,-144 697.45,-96.23 637.87,-153.3 442.87,-108 440.08,-107.35 437.24,-106.56 434.41,-105.67"/>
<polygon fill="black" stroke="black" points="435.53,-102.35 424.93,-102.35 433.22,-108.96 435.53,-102.35"/>
</g>
<!-- Fallback** -->
<g id="node14" class="node">
<title>Fallback**</title>
<polygon fill="cyan" stroke="black" points="521.86,-82.54 521.86,-97.46 501.36,-108 472.37,-108 451.88,-97.46 451.88,-82.54 472.37,-72 501.36,-72 521.86,-82.54"/>
<text text-anchor="middle" x="486.87" y="-87.8" font-family="Times,serif" font-size="9.00">Fallback**</text>
</g>
<!-- Sequence&#45;&gt;Fallback** -->
<g id="edge13" class="edge">
<title>Sequence&#45;&gt;Fallback**</title>
<path fill="none" stroke="black" d="M908.59,-149.71C903.21,-147.5 897.42,-145.42 891.87,-144 735.67,-104.01 687.71,-145.39 530.87,-108 528.03,-107.32 525.13,-106.51 522.24,-105.6"/>
<polygon fill="black" stroke="black" points="523.15,-102.21 512.56,-102.25 520.87,-108.83 523.15,-102.21"/>
</g>
<!-- MoveTo!*** -->
<g id="node20" class="node">
<title>MoveTo!***</title>
<ellipse fill="gray" stroke="black" cx="576.87" cy="-90" rx="36.9" ry="18"/>
<text text-anchor="middle" x="576.87" y="-87.8" font-family="Times,serif" font-size="9.00">MoveTo!***</text>
</g>
<!-- Sequence&#45;&gt;MoveTo!*** -->
<g id="edge19" class="edge">
<title>Sequence&#45;&gt;MoveTo!***</title>
<path fill="none" stroke="black" d="M908.55,-149.85C903.17,-147.63 897.4,-145.52 891.87,-144 775.53,-112.12 739.93,-137.08 622.87,-108 619.91,-107.26 616.87,-106.4 613.84,-105.46"/>
<polygon fill="black" stroke="black" points="614.88,-102.12 604.29,-102.26 612.66,-108.75 614.88,-102.12"/>
</g>
<!-- MoveTo!**** -->
<g id="node21" class="node">
<title>MoveTo!****</title>
<ellipse fill="gray" stroke="black" cx="670.87" cy="-90" rx="39.02" ry="18"/>
<text text-anchor="middle" x="670.87" y="-87.8" font-family="Times,serif" font-size="9.00">MoveTo!****</text>
</g>
<!-- Sequence&#45;&gt;MoveTo!**** -->
<g id="edge20" class="edge">
<title>Sequence&#45;&gt;MoveTo!****</title>
<path fill="none" stroke="black" d="M908.04,-149.97C902.79,-147.79 897.2,-145.67 891.87,-144 816.92,-120.53 794.5,-129.16 718.87,-108 715.9,-107.17 712.85,-106.25 709.79,-105.28"/>
<polygon fill="black" stroke="black" points="710.71,-101.9 700.11,-102.06 708.5,-108.54 710.71,-101.9"/>
</g>
<!-- MoveTo!***** -->
<g id="node22" class="node">
<title>MoveTo!*****</title>
<ellipse fill="gray" stroke="black" cx="769.87" cy="-90" rx="42.29" ry="18"/>
<text text-anchor="middle" x="769.87" y="-87.8" font-family="Times,serif" font-size="9.00">MoveTo!*****</text>
</g>
<!-- Sequence&#45;&gt;MoveTo!***** -->
<g id="edge21" class="edge">
<title>Sequence&#45;&gt;MoveTo!*****</title>
<path fill="none" stroke="black" d="M907.26,-150.37C880.91,-138.98 838.73,-120.76 808.06,-107.5"/>
<polygon fill="black" stroke="black" points="809.1,-104.14 798.54,-103.39 806.33,-110.57 809.1,-104.14"/>
</g>
<!-- MoveTo!****** -->
<g id="node23" class="node">
<title>MoveTo!******</title>
<ellipse fill="gray" stroke="black" cx="874.87" cy="-90" rx="44.41" ry="18"/>
<text text-anchor="middle" x="874.87" y="-87.8" font-family="Times,serif" font-size="9.00">MoveTo!******</text>
</g>
<!-- Sequence&#45;&gt;MoveTo!****** -->
<g id="edge22" class="edge">
<title>Sequence&#45;&gt;MoveTo!******</title>
<path fill="none" stroke="black" d="M918.07,-144.05C911.04,-135.42 902.36,-124.76 894.63,-115.27"/>
<polygon fill="black" stroke="black" points="897.17,-112.85 888.15,-107.31 891.75,-117.27 897.17,-112.85"/>
</g>
<!-- NotReadyForSG?** -->
<g id="node24" class="node">
<title>NotReadyForSG?**</title>
<ellipse fill="gray" stroke="black" cx="988.87" cy="-90" rx="51.92" ry="18"/>
<text text-anchor="middle" x="988.87" y="-87.8" font-family="Times,serif" font-size="9.00">NotReadyForSG?**</text>
</g>
<!-- Sequence&#45;&gt;NotReadyForSG?** -->
<g id="edge23" class="edge">
<title>Sequence&#45;&gt;NotReadyForSG?**</title>
<path fill="none" stroke="black" d="M945.67,-144.05C952.6,-135.54 961.13,-125.07 968.77,-115.68"/>
<polygon fill="black" stroke="black" points="971.6,-117.75 975.2,-107.79 966.17,-113.33 971.6,-117.75"/>
</g>
<!-- MoveTo!******* -->
<g id="node25" class="node">
<title>MoveTo!*******</title>
<ellipse fill="gray" stroke="black" cx="1105.87" cy="-90" rx="47.19" ry="18"/>
<text text-anchor="middle" x="1105.87" y="-87.8" font-family="Times,serif" font-size="9.00">MoveTo!*******</text>
</g>
<!-- Sequence&#45;&gt;MoveTo!******* -->
<g id="edge24" class="edge">
<title>Sequence&#45;&gt;MoveTo!*******</title>
<path fill="none" stroke="black" d="M957.17,-150.82C985.48,-139.43 1031.75,-120.82 1065.16,-107.38"/>
<polygon fill="black" stroke="black" points="1066.68,-110.54 1074.65,-103.56 1064.06,-104.04 1066.68,-110.54"/>
</g>
<!-- MoveTo!******** -->
<g id="node26" class="node">
<title>MoveTo!********</title>
<ellipse fill="gray" stroke="black" cx="1220.87" cy="-90" rx="49.8" ry="18"/>
<text text-anchor="middle" x="1220.87" y="-87.8" font-family="Times,serif" font-size="9.00">MoveTo!********</text>
</g>
<!-- Sequence&#45;&gt;MoveTo!******** -->
<g id="edge25" class="edge">
<title>Sequence&#45;&gt;MoveTo!********</title>
<path fill="none" stroke="black" d="M963.25,-154.33C1007.65,-144.77 1091.26,-126.29 1161.87,-108 1165.87,-106.96 1170.02,-105.85 1174.17,-104.71"/>
<polygon fill="black" stroke="black" points="1175.13,-108.07 1183.81,-102.01 1173.24,-101.33 1175.13,-108.07"/>
</g>
<!-- MoveTo!********* -->
<g id="node27" class="node">
<title>MoveTo!*********</title>
<ellipse fill="gray" stroke="black" cx="1340.87" cy="-90" rx="52.58" ry="18"/>
<text text-anchor="middle" x="1340.87" y="-87.8" font-family="Times,serif" font-size="9.00">MoveTo!*********</text>
</g>
<!-- Sequence&#45;&gt;MoveTo!********* -->
<g id="edge26" class="edge">
<title>Sequence&#45;&gt;MoveTo!*********</title>
<path fill="none" stroke="black" d="M963.29,-157.5C1024.59,-150.4 1164.25,-132.82 1279.87,-108 1284.04,-107.1 1288.35,-106.09 1292.66,-105.01"/>
<polygon fill="black" stroke="black" points="1293.85,-108.32 1302.65,-102.41 1292.09,-101.54 1293.85,-108.32"/>
</g>
<!-- MoveTo!********** -->
<g id="node28" class="node">
<title>MoveTo!**********</title>
<ellipse fill="gray" stroke="black" cx="1465.87" cy="-90" rx="54.7" ry="18"/>
<text text-anchor="middle" x="1465.87" y="-87.8" font-family="Times,serif" font-size="9.00">MoveTo!**********</text>
</g>
<!-- Sequence&#45;&gt;MoveTo!********** -->
<g id="edge27" class="edge">
<title>Sequence&#45;&gt;MoveTo!**********</title>
<path fill="none" stroke="black" d="M963.25,-159.12C1039.25,-154.2 1238.96,-139.15 1402.87,-108 1407.31,-107.16 1411.89,-106.16 1416.47,-105.09"/>
<polygon fill="black" stroke="black" points="1417.56,-108.42 1426.42,-102.62 1415.88,-101.63 1417.56,-108.42"/>
</g>
<!-- NotReadyForSG?*** -->
<g id="node29" class="node">
<title>NotReadyForSG?***</title>
<ellipse fill="gray" stroke="black" cx="1593.87" cy="-90" rx="54.7" ry="18"/>
<text text-anchor="middle" x="1593.87" y="-87.8" font-family="Times,serif" font-size="9.00">NotReadyForSG?***</text>
</g>
<!-- Sequence&#45;&gt;NotReadyForSG?*** -->
<g id="edge28" class="edge">
<title>Sequence&#45;&gt;NotReadyForSG?***</title>
<path fill="none" stroke="black" d="M963.24,-160.11C1052.51,-157.17 1315.32,-145.71 1529.87,-108 1534.64,-107.16 1539.58,-106.14 1544.49,-105.01"/>
<polygon fill="black" stroke="black" points="1545.61,-108.34 1554.5,-102.59 1543.96,-101.54 1545.61,-108.34"/>
</g>
<!-- MoveTo!*********** -->
<g id="node30" class="node">
<title>MoveTo!***********</title>
<ellipse fill="gray" stroke="black" cx="1724.87" cy="-90" rx="57.97" ry="18"/>
<text text-anchor="middle" x="1724.87" y="-87.8" font-family="Times,serif" font-size="9.00">MoveTo!***********</text>
</g>
<!-- Sequence&#45;&gt;MoveTo!*********** -->
<g id="edge29" class="edge">
<title>Sequence&#45;&gt;MoveTo!***********</title>
<path fill="none" stroke="black" d="M963.23,-160.67C1064.48,-159.2 1391.53,-151.17 1657.87,-108 1662.99,-107.17 1668.3,-106.13 1673.58,-104.99"/>
<polygon fill="black" stroke="black" points="1674.69,-108.32 1683.65,-102.67 1673.12,-101.5 1674.69,-108.32"/>
</g>
<!-- NotReadyForSG?**** -->
<g id="node31" class="node">
<title>NotReadyForSG?****</title>
<ellipse fill="gray" stroke="black" cx="1857.87" cy="-90" rx="57.32" ry="18"/>
<text text-anchor="middle" x="1857.87" y="-87.8" font-family="Times,serif" font-size="9.00">NotReadyForSG?****</text>
</g>
<!-- Sequence&#45;&gt;NotReadyForSG?**** -->
<g id="edge30" class="edge">
<title>Sequence&#45;&gt;NotReadyForSG?****</title>
<path fill="none" stroke="black" d="M963.34,-161.21C1076.25,-161.53 1471.24,-158.7 1791.87,-108 1796.92,-107.2 1802.16,-106.19 1807.36,-105.05"/>
<polygon fill="black" stroke="black" points="1808.33,-108.42 1817.28,-102.75 1806.75,-101.6 1808.33,-108.42"/>
</g>
<!-- GetLk! -->
<g id="node32" class="node">
<title>GetLk!</title>
<ellipse fill="gray" stroke="black" cx="1959.87" cy="-90" rx="27" ry="18"/>
<text text-anchor="middle" x="1959.87" y="-87.8" font-family="Times,serif" font-size="9.00">GetLk!</text>
</g>
<!-- Sequence&#45;&gt;GetLk! -->
<g id="edge31" class="edge">
<title>Sequence&#45;&gt;GetLk!</title>
<path fill="none" stroke="black" d="M963.22,-160.95C1110.62,-160.45 1735.53,-155.54 1923.87,-108 1926.05,-107.45 1928.25,-106.77 1930.44,-105.99"/>
<polygon fill="black" stroke="black" points="1931.9,-109.18 1939.82,-102.14 1929.24,-102.7 1931.9,-109.18"/>
</g>
<!-- MoveTo! -->
<g id="node8" class="node">
<title>MoveTo!</title>
<ellipse fill="gray" stroke="black" cx="28.87" cy="-18" rx="28.74" ry="18"/>
<text text-anchor="middle" x="28.87" y="-15.8" font-family="Times,serif" font-size="9.00">MoveTo!</text>
</g>
<!-- Fallback*&#45;&gt;MoveTo! -->
<g id="edge7" class="edge">
<title>Fallback*&#45;&gt;MoveTo!</title>
<path fill="none" stroke="black" d="M186.81,-78.33C181.57,-76.18 176.05,-73.97 170.87,-72 125.14,-54.62 112.35,-54 66.87,-36 64.79,-35.18 62.67,-34.31 60.53,-33.41"/>
<polygon fill="black" stroke="black" points="61.8,-30.15 51.23,-29.4 59.03,-36.58 61.8,-30.15"/>
</g>
<!-- LkClose? -->
<g id="node9" class="node">
<title>LkClose?</title>
<ellipse fill="gray" stroke="black" cx="104.87" cy="-18" rx="28.74" ry="18"/>
<text text-anchor="middle" x="104.87" y="-15.8" font-family="Times,serif" font-size="9.00">LkClose?</text>
</g>
<!-- Fallback*&#45;&gt;LkClose? -->
<g id="edge8" class="edge">
<title>Fallback*&#45;&gt;LkClose?</title>
<path fill="none" stroke="black" d="M191.74,-75.83C175.09,-64.94 151.27,-49.36 132.78,-37.26"/>
<polygon fill="black" stroke="black" points="134.47,-34.18 124.18,-31.64 130.63,-40.04 134.47,-34.18"/>
</g>
<!-- ReachGoal?** -->
<g id="node10" class="node">
<title>ReachGoal?**</title>
<ellipse fill="gray" stroke="black" cx="190.87" cy="-18" rx="39.02" ry="18"/>
<text text-anchor="middle" x="190.87" y="-15.8" font-family="Times,serif" font-size="9.00">ReachGoal?**</text>
</g>
<!-- Fallback*&#45;&gt;ReachGoal?** -->
<g id="edge9" class="edge">
<title>Fallback*&#45;&gt;ReachGoal?**</title>
<path fill="none" stroke="black" d="M206.68,-71.7C204.34,-63.9 201.52,-54.51 198.92,-45.83"/>
<polygon fill="black" stroke="black" points="202.22,-44.68 196,-36.1 195.52,-46.69 202.22,-44.68"/>
</g>
<!-- LkGraph? -->
<g id="node11" class="node">
<title>LkGraph?</title>
<ellipse fill="gray" stroke="black" cx="278.87" cy="-18" rx="30.7" ry="18"/>
<text text-anchor="middle" x="278.87" y="-15.8" font-family="Times,serif" font-size="9.00">LkGraph?</text>
</g>
<!-- Fallback*&#45;&gt;LkGraph? -->
<g id="edge10" class="edge">
<title>Fallback*&#45;&gt;LkGraph?</title>
<path fill="none" stroke="black" d="M227.07,-73.12C235.93,-63.86 247.26,-52.03 257.05,-41.79"/>
<polygon fill="black" stroke="black" points="259.8,-43.98 264.18,-34.34 254.74,-39.14 259.8,-43.98"/>
</g>
<!-- NotReadyForSG?* -->
<g id="node15" class="node">
<title>NotReadyForSG?*</title>
<ellipse fill="gray" stroke="black" cx="376.87" cy="-18" rx="49.8" ry="18"/>
<text text-anchor="middle" x="376.87" y="-15.8" font-family="Times,serif" font-size="9.00">NotReadyForSG?*</text>
</g>
<!-- Fallback**&#45;&gt;NotReadyForSG?* -->
<g id="edge14" class="edge">
<title>Fallback**&#45;&gt;NotReadyForSG?*</title>
<path fill="none" stroke="black" d="M465.4,-75.34C449.39,-65.15 427.24,-51.06 409.11,-39.52"/>
<polygon fill="black" stroke="black" points="410.89,-36.5 400.57,-34.08 407.13,-42.41 410.89,-36.5"/>
</g>
<!-- CompLkGraph! -->
<g id="node16" class="node">
<title>CompLkGraph!</title>
<ellipse fill="gray" stroke="black" cx="486.87" cy="-18" rx="42.95" ry="18"/>
<text text-anchor="middle" x="486.87" y="-15.8" font-family="Times,serif" font-size="9.00">CompLkGraph!</text>
</g>
<!-- Fallback**&#45;&gt;CompLkGraph! -->
<g id="edge15" class="edge">
<title>Fallback**&#45;&gt;CompLkGraph!</title>
<path fill="none" stroke="black" d="M486.87,-71.7C486.87,-63.98 486.87,-54.71 486.87,-46.11"/>
<polygon fill="black" stroke="black" points="490.37,-46.1 486.87,-36.1 483.37,-46.1 490.37,-46.1"/>
</g>
<!-- LkClose?* -->
<g id="node17" class="node">
<title>LkClose?*</title>
<ellipse fill="gray" stroke="black" cx="578.87" cy="-18" rx="31.51" ry="18"/>
<text text-anchor="middle" x="578.87" y="-15.8" font-family="Times,serif" font-size="9.00">LkClose?*</text>
</g>
<!-- Fallback**&#45;&gt;LkClose?* -->
<g id="edge16" class="edge">
<title>Fallback**&#45;&gt;LkClose?*</title>
<path fill="none" stroke="black" d="M506.38,-74.15C519.78,-63.96 537.74,-50.29 552.43,-39.12"/>
<polygon fill="black" stroke="black" points="554.8,-41.71 560.64,-32.87 550.56,-36.14 554.8,-41.71"/>
</g>
<!-- GetSubGoal!* -->
<g id="node18" class="node">
<title>GetSubGoal!*</title>
<ellipse fill="gray" stroke="black" cx="667.87" cy="-18" rx="39.02" ry="18"/>
<text text-anchor="middle" x="667.87" y="-15.8" font-family="Times,serif" font-size="9.00">GetSubGoal!*</text>
</g>
<!-- Fallback**&#45;&gt;GetSubGoal!* -->
<g id="edge17" class="edge">
<title>Fallback**&#45;&gt;GetSubGoal!*</title>
<path fill="none" stroke="black" d="M514.36,-78.37C544.96,-66.53 594.65,-47.32 629.17,-33.97"/>
<polygon fill="black" stroke="black" points="630.85,-37.07 638.92,-30.2 628.33,-30.54 630.85,-37.07"/>
</g>
<!-- CompLkGraph!* -->
<g id="node19" class="node">
<title>CompLkGraph!*</title>
<ellipse fill="gray" stroke="black" cx="769.87" cy="-18" rx="45.07" ry="18"/>
<text text-anchor="middle" x="769.87" y="-15.8" font-family="Times,serif" font-size="9.00">CompLkGraph!*</text>
</g>
<!-- Fallback**&#45;&gt;CompLkGraph!* -->
<g id="edge18" class="edge">
<title>Fallback**&#45;&gt;CompLkGraph!*</title>
<path fill="none" stroke="black" d="M513.13,-77.98C518.91,-75.81 525.04,-73.68 530.87,-72 611.36,-48.82 634.68,-56.61 715.87,-36 719.41,-35.1 723.06,-34.1 726.72,-33.06"/>
<polygon fill="black" stroke="black" points="727.74,-36.4 736.33,-30.2 725.75,-29.69 727.74,-36.4"/>
</g>
</g>
</svg>
