<?xml version="1.0" encoding="UTF-8" standalone="no"?>
<!DOCTYPE svg PUBLIC "-//W3C//DTD SVG 1.1//EN"
 "http://www.w3.org/Graphics/SVG/1.1/DTD/svg11.dtd">
<!-- Generated by graphviz version 2.43.0 (0)
 -->
<!-- Title: pastafarianism Pages: 1 -->
<svg width="2236pt" height="260pt"
 viewBox="0.00 0.00 2235.87 260.00" xmlns="http://www.w3.org/2000/svg" xmlns:xlink="http://www.w3.org/1999/xlink">
<g id="graph0" class="graph" transform="scale(1 1) rotate(0) translate(4 256)">
<title>pastafarianism</title>
<polygon fill="white" stroke="transparent" points="-4,4 -4,-256 2231.87,-256 2231.87,4 -4,4"/>
<!-- Fallback -->
<g id="node1" class="node">
<title>Fallback</title>
<polygon fill="cyan" stroke="black" points="1033.11,-226.54 1033.11,-241.46 1015.98,-252 991.75,-252 974.62,-241.46 974.62,-226.54 991.75,-216 1015.98,-216 1033.11,-226.54"/>
<text text-anchor="middle" x="1003.87" y="-231.8" font-family="Times,serif" font-size="9.00">Fallback</text>
</g>
<!-- NotReadyForSG? -->
<g id="node2" class="node">
<title>NotReadyForSG?</title>
<ellipse fill="gray" stroke="black" cx="904.87" cy="-162" rx="46.53" ry="18"/>
<text text-anchor="middle" x="904.87" y="-159.8" font-family="Times,serif" font-size="9.00">NotReadyForSG?</text>
</g>
<!-- Fallback&#45;&gt;NotReadyForSG? -->
<g id="edge1" class="edge">
<title>Fallback&#45;&gt;NotReadyForSG?</title>
<path fill="none" stroke="black" d="M985.25,-219.83C970.94,-209.72 950.9,-195.55 934.41,-183.89"/>
<polygon fill="black" stroke="black" points="936.34,-180.97 926.15,-178.05 932.3,-186.68 936.34,-180.97"/>
</g>
<!-- ReachGoal? -->
<g id="node3" class="node">
<title>ReachGoal?</title>
<ellipse fill="gray" stroke="black" cx="1003.87" cy="-162" rx="34.13" ry="18"/>
<text text-anchor="middle" x="1003.87" y="-159.8" font-family="Times,serif" font-size="9.00">ReachGoal?</text>
</g>
<!-- Fallback&#45;&gt;ReachGoal? -->
<g id="edge2" class="edge">
<title>Fallback&#45;&gt;ReachGoal?</title>
<path fill="none" stroke="black" d="M1003.87,-215.7C1003.87,-207.98 1003.87,-198.71 1003.87,-190.11"/>
<polygon fill="black" stroke="black" points="1007.37,-190.1 1003.87,-180.1 1000.37,-190.1 1007.37,-190.1"/>
</g>
<!-- Sequence -->
<g id="node4" class="node">
<title>Sequence</title>
<polygon fill="cyan" stroke="black" points="1118.36,-154.54 1118.36,-169.46 1099.91,-180 1073.82,-180 1055.37,-169.46 1055.37,-154.54 1073.82,-144 1099.91,-144 1118.36,-154.54"/>
<text text-anchor="middle" x="1086.87" y="-159.8" font-family="Times,serif" font-size="9.00">Sequence</text>
</g>
<!-- Fallback&#45;&gt;Sequence -->
<g id="edge3" class="edge">
<title>Fallback&#45;&gt;Sequence</title>
<path fill="none" stroke="black" d="M1020.66,-218.83C1032.43,-208.91 1048.37,-195.47 1061.65,-184.26"/>
<polygon fill="black" stroke="black" points="1064.14,-186.75 1069.52,-177.63 1059.62,-181.4 1064.14,-186.75"/>
</g>
<!-- GetSubGoal! -->
<g id="node5" class="node">
<title>GetSubGoal!</title>
<ellipse fill="gray" stroke="black" cx="187.87" cy="-90" rx="36.9" ry="18"/>
<text text-anchor="middle" x="187.87" y="-87.8" font-family="Times,serif" font-size="9.00">GetSubGoal!</text>
</g>
<!-- Sequence&#45;&gt;GetSubGoal! -->
<g id="edge4" class="edge">
<title>Sequence&#45;&gt;GetSubGoal!</title>
<path fill="none" stroke="black" d="M1063.65,-149.49C1058.26,-147.28 1052.46,-145.27 1046.87,-144 694.14,-63.99 588.41,-179.55 233.87,-108 230.7,-107.36 227.45,-106.54 224.23,-105.6"/>
<polygon fill="black" stroke="black" points="225.3,-102.26 214.7,-102.5 223.13,-108.92 225.3,-102.26"/>
</g>
<!-- Fallback* -->
<g id="node6" class="node">
<title>Fallback*</title>
<polygon fill="cyan" stroke="black" points="306.61,-82.54 306.61,-97.46 288.02,-108 261.72,-108 243.13,-97.46 243.13,-82.54 261.72,-72 288.02,-72 306.61,-82.54"/>
<text text-anchor="middle" x="274.87" y="-87.8" font-family="Times,serif" font-size="9.00">Fallback*</text>
</g>
<!-- Sequence&#45;&gt;Fallback* -->
<g id="edge5" class="edge">
<title>Sequence&#45;&gt;Fallback*</title>
<path fill="none" stroke="black" d="M1063.64,-149.53C1058.25,-147.32 1052.45,-145.29 1046.87,-144 756.36,-76.66 673.29,-140.56 376.87,-108 357.08,-105.83 335.31,-102.35 316.97,-99.1"/>
<polygon fill="black" stroke="black" points="317.36,-95.61 306.9,-97.28 316.12,-102.5 317.36,-95.61"/>
</g>
<!-- MoveTo!* -->
<g id="node12" class="node">
<title>MoveTo!*</title>
<ellipse fill="gray" stroke="black" cx="417.87" cy="-90" rx="31.51" ry="18"/>
<text text-anchor="middle" x="417.87" y="-87.8" font-family="Times,serif" font-size="9.00">MoveTo!*</text>
</g>
<!-- Sequence&#45;&gt;MoveTo!* -->
<g id="edge11" class="edge">
<title>Sequence&#45;&gt;MoveTo!*</title>
<path fill="none" stroke="black" d="M1063.63,-149.56C1058.24,-147.35 1052.45,-145.32 1046.87,-144 792.03,-83.93 713.97,-166.95 458.87,-108 456.21,-107.39 453.51,-106.62 450.82,-105.75"/>
<polygon fill="black" stroke="black" points="451.87,-102.41 441.27,-102.26 449.47,-108.98 451.87,-102.41"/>
</g>
<!-- MoveTo!** -->
<g id="node13" class="node">
<title>MoveTo!**</title>
<ellipse fill="gray" stroke="black" cx="501.87" cy="-90" rx="34.13" ry="18"/>
<text text-anchor="middle" x="501.87" y="-87.8" font-family="Times,serif" font-size="9.00">MoveTo!**</text>
</g>
<!-- Sequence&#45;&gt;MoveTo!** -->
<g id="edge12" class="edge">
<title>Sequence&#45;&gt;MoveTo!**</title>
<path fill="none" stroke="black" d="M1063.62,-149.6C1058.23,-147.39 1052.44,-145.34 1046.87,-144 829.42,-91.54 762.96,-157.7 544.87,-108 542.08,-107.36 539.23,-106.58 536.4,-105.69"/>
<polygon fill="black" stroke="black" points="537.52,-102.37 526.93,-102.38 535.21,-108.98 537.52,-102.37"/>
</g>
<!-- Fallback** -->
<g id="node14" class="node">
<title>Fallback**</title>
<polygon fill="cyan" stroke="black" points="623.86,-82.54 623.86,-97.46 603.36,-108 574.37,-108 553.88,-97.46 553.88,-82.54 574.37,-72 603.36,-72 623.86,-82.54"/>
<text text-anchor="middle" x="588.87" y="-87.8" font-family="Times,serif" font-size="9.00">Fallback**</text>
</g>
<!-- Sequence&#45;&gt;Fallback** -->
<g id="edge13" class="edge">
<title>Sequence&#45;&gt;Fallback**</title>
<path fill="none" stroke="black" d="M1063.6,-149.66C1058.22,-147.45 1052.43,-145.39 1046.87,-144 867.66,-99.33 812.79,-149.7 632.87,-108 630.03,-107.34 627.12,-106.54 624.23,-105.64"/>
<polygon fill="black" stroke="black" points="625.14,-102.25 614.54,-102.31 622.86,-108.87 625.14,-102.25"/>
</g>
<!-- MoveTo!*** -->
<g id="node20" class="node">
<title>MoveTo!***</title>
<ellipse fill="gray" stroke="black" cx="678.87" cy="-90" rx="36.9" ry="18"/>
<text text-anchor="middle" x="678.87" y="-87.8" font-family="Times,serif" font-size="9.00">MoveTo!***</text>
</g>
<!-- Sequence&#45;&gt;MoveTo!*** -->
<g id="edge19" class="edge">
<title>Sequence&#45;&gt;MoveTo!***</title>
<path fill="none" stroke="black" d="M1063.58,-149.76C1058.19,-147.55 1052.41,-145.46 1046.87,-144 907.58,-107.45 864.99,-141.2 724.87,-108 721.9,-107.3 718.86,-106.46 715.83,-105.53"/>
<polygon fill="black" stroke="black" points="716.86,-102.19 706.26,-102.36 714.65,-108.83 716.86,-102.19"/>
</g>
<!-- MoveTo!**** -->
<g id="node21" class="node">
<title>MoveTo!****</title>
<ellipse fill="gray" stroke="black" cx="772.87" cy="-90" rx="39.02" ry="18"/>
<text text-anchor="middle" x="772.87" y="-87.8" font-family="Times,serif" font-size="9.00">MoveTo!****</text>
</g>
<!-- Sequence&#45;&gt;MoveTo!**** -->
<g id="edge20" class="edge">
<title>Sequence&#45;&gt;MoveTo!****</title>
<path fill="none" stroke="black" d="M1063.1,-149.78C1057.84,-147.61 1052.23,-145.54 1046.87,-144 949.12,-115.9 919.44,-133.08 820.87,-108 817.74,-107.2 814.53,-106.29 811.32,-105.31"/>
<polygon fill="black" stroke="black" points="812.39,-101.97 801.8,-102.2 810.22,-108.63 812.39,-101.97"/>
</g>
<!-- MoveTo!***** -->
<g id="node22" class="node">
<title>MoveTo!*****</title>
<ellipse fill="gray" stroke="black" cx="871.87" cy="-90" rx="42.29" ry="18"/>
<text text-anchor="middle" x="871.87" y="-87.8" font-family="Times,serif" font-size="9.00">MoveTo!*****</text>
</g>
<!-- Sequence&#45;&gt;MoveTo!***** -->
<g id="edge21" class="edge">
<title>Sequence&#45;&gt;MoveTo!*****</title>
<path fill="none" stroke="black" d="M1062.51,-150.11C1057.39,-147.97 1051.98,-145.83 1046.87,-144 993.23,-124.83 978.28,-124.85 923.87,-108 920.55,-106.97 917.11,-105.89 913.66,-104.79"/>
<polygon fill="black" stroke="black" points="914.59,-101.41 903.99,-101.68 912.44,-108.07 914.59,-101.41"/>
</g>
<!-- MoveTo!****** -->
<g id="node23" class="node">
<title>MoveTo!******</title>
<ellipse fill="gray" stroke="black" cx="976.87" cy="-90" rx="44.41" ry="18"/>
<text text-anchor="middle" x="976.87" y="-87.8" font-family="Times,serif" font-size="9.00">MoveTo!******</text>
</g>
<!-- Sequence&#45;&gt;MoveTo!****** -->
<g id="edge22" class="edge">
<title>Sequence&#45;&gt;MoveTo!******</title>
<path fill="none" stroke="black" d="M1066.44,-148C1050.13,-137.62 1027.01,-122.91 1008.34,-111.03"/>
<polygon fill="black" stroke="black" points="1010.17,-108.04 999.85,-105.63 1006.41,-113.95 1010.17,-108.04"/>
</g>
<!-- MoveTo!******* -->
<g id="node24" class="node">
<title>MoveTo!*******</title>
<ellipse fill="gray" stroke="black" cx="1086.87" cy="-90" rx="47.19" ry="18"/>
<text text-anchor="middle" x="1086.87" y="-87.8" font-family="Times,serif" font-size="9.00">MoveTo!*******</text>
</g>
<!-- Sequence&#45;&gt;MoveTo!******* -->
<g id="edge23" class="edge">
<title>Sequence&#45;&gt;MoveTo!*******</title>
<path fill="none" stroke="black" d="M1086.87,-143.7C1086.87,-135.98 1086.87,-126.71 1086.87,-118.11"/>
<polygon fill="black" stroke="black" points="1090.37,-118.1 1086.87,-108.1 1083.37,-118.1 1090.37,-118.1"/>
</g>
<!-- NotReadyForSG?** -->
<g id="node25" class="node">
<title>NotReadyForSG?**</title>
<ellipse fill="gray" stroke="black" cx="1203.87" cy="-90" rx="51.92" ry="18"/>
<text text-anchor="middle" x="1203.87" y="-87.8" font-family="Times,serif" font-size="9.00">NotReadyForSG?**</text>
</g>
<!-- Sequence&#45;&gt;NotReadyForSG?** -->
<g id="edge24" class="edge">
<title>Sequence&#45;&gt;NotReadyForSG?**</title>
<path fill="none" stroke="black" d="M1107.78,-148.49C1125.19,-138.07 1150.29,-123.05 1170.48,-110.98"/>
<polygon fill="black" stroke="black" points="1172.29,-113.97 1179.07,-105.83 1168.69,-107.97 1172.29,-113.97"/>
</g>
<!-- MoveTo!******** -->
<g id="node26" class="node">
<title>MoveTo!********</title>
<ellipse fill="gray" stroke="black" cx="1323.87" cy="-90" rx="49.8" ry="18"/>
<text text-anchor="middle" x="1323.87" y="-87.8" font-family="Times,serif" font-size="9.00">MoveTo!********</text>
</g>
<!-- Sequence&#45;&gt;MoveTo!******** -->
<g id="edge25" class="edge">
<title>Sequence&#45;&gt;MoveTo!********</title>
<path fill="none" stroke="black" d="M1115.46,-152.56C1155.45,-140.74 1228.61,-119.14 1276.74,-104.92"/>
<polygon fill="black" stroke="black" points="1278.01,-108.2 1286.6,-102.01 1276.02,-101.48 1278.01,-108.2"/>
</g>
<!-- MoveTo!********* -->
<g id="node27" class="node">
<title>MoveTo!*********</title>
<ellipse fill="gray" stroke="black" cx="1443.87" cy="-90" rx="52.58" ry="18"/>
<text text-anchor="middle" x="1443.87" y="-87.8" font-family="Times,serif" font-size="9.00">MoveTo!*********</text>
</g>
<!-- Sequence&#45;&gt;MoveTo!********* -->
<g id="edge26" class="edge">
<title>Sequence&#45;&gt;MoveTo!*********</title>
<path fill="none" stroke="black" d="M1118.17,-156.39C1172.4,-148.19 1287.18,-129.85 1382.87,-108 1386.97,-107.06 1391.2,-106.03 1395.44,-104.94"/>
<polygon fill="black" stroke="black" points="1396.51,-108.28 1405.28,-102.35 1394.72,-101.51 1396.51,-108.28"/>
</g>
<!-- MoveTo!********** -->
<g id="node28" class="node">
<title>MoveTo!**********</title>
<ellipse fill="gray" stroke="black" cx="1568.87" cy="-90" rx="54.7" ry="18"/>
<text text-anchor="middle" x="1568.87" y="-87.8" font-family="Times,serif" font-size="9.00">MoveTo!**********</text>
</g>
<!-- Sequence&#45;&gt;MoveTo!********** -->
<g id="edge27" class="edge">
<title>Sequence&#45;&gt;MoveTo!**********</title>
<path fill="none" stroke="black" d="M1118.12,-158.53C1188.06,-152.68 1362.35,-136.3 1505.87,-108 1510.3,-107.13 1514.88,-106.11 1519.46,-105.02"/>
<polygon fill="black" stroke="black" points="1520.55,-108.36 1529.41,-102.54 1518.86,-101.56 1520.55,-108.36"/>
</g>
<!-- MoveTo!*********** -->
<g id="node29" class="node">
<title>MoveTo!***********</title>
<ellipse fill="gray" stroke="black" cx="1699.87" cy="-90" rx="57.97" ry="18"/>
<text text-anchor="middle" x="1699.87" y="-87.8" font-family="Times,serif" font-size="9.00">MoveTo!***********</text>
</g>
<!-- Sequence&#45;&gt;MoveTo!*********** -->
<g id="edge28" class="edge">
<title>Sequence&#45;&gt;MoveTo!***********</title>
<path fill="none" stroke="black" d="M1118.18,-159.63C1202.11,-155.58 1438.89,-141.82 1632.87,-108 1637.91,-107.12 1643.13,-106.06 1648.34,-104.91"/>
<polygon fill="black" stroke="black" points="1649.32,-108.27 1658.26,-102.6 1647.73,-101.46 1649.32,-108.27"/>
</g>
<!-- NotReadyForSG?*** -->
<g id="node30" class="node">
<title>NotReadyForSG?***</title>
<ellipse fill="gray" stroke="black" cx="1830.87" cy="-90" rx="54.7" ry="18"/>
<text text-anchor="middle" x="1830.87" y="-87.8" font-family="Times,serif" font-size="9.00">NotReadyForSG?***</text>
</g>
<!-- Sequence&#45;&gt;NotReadyForSG?*** -->
<g id="edge29" class="edge">
<title>Sequence&#45;&gt;NotReadyForSG?***</title>
<path fill="none" stroke="black" d="M1118.29,-160.58C1215.46,-158.84 1519.39,-150.15 1766.87,-108 1771.65,-107.19 1776.58,-106.18 1781.5,-105.07"/>
<polygon fill="black" stroke="black" points="1782.61,-108.4 1791.51,-102.66 1780.97,-101.59 1782.61,-108.4"/>
</g>
<!-- MoveTo!************ -->
<g id="node31" class="node">
<title>MoveTo!************</title>
<ellipse fill="gray" stroke="black" cx="1963.87" cy="-90" rx="60.09" ry="18"/>
<text text-anchor="middle" x="1963.87" y="-87.8" font-family="Times,serif" font-size="9.00">MoveTo!************</text>
</g>
<!-- Sequence&#45;&gt;MoveTo!************ -->
<g id="edge30" class="edge">
<title>Sequence&#45;&gt;MoveTo!************</title>
<path fill="none" stroke="black" d="M1118.28,-160.92C1226.72,-160.23 1595.14,-154.38 1894.87,-108 1900.2,-107.17 1905.73,-106.13 1911.22,-104.98"/>
<polygon fill="black" stroke="black" points="1912.04,-108.38 1921.04,-102.79 1910.52,-101.55 1912.04,-108.38"/>
</g>
<!-- NotReadyForSG?**** -->
<g id="node32" class="node">
<title>NotReadyForSG?****</title>
<ellipse fill="gray" stroke="black" cx="2098.87" cy="-90" rx="57.32" ry="18"/>
<text text-anchor="middle" x="2098.87" y="-87.8" font-family="Times,serif" font-size="9.00">NotReadyForSG?****</text>
</g>
<!-- Sequence&#45;&gt;NotReadyForSG?**** -->
<g id="edge31" class="edge">
<title>Sequence&#45;&gt;NotReadyForSG?****</title>
<path fill="none" stroke="black" d="M1118.13,-161.46C1237.66,-162.76 1676.89,-163.27 2032.87,-108 2037.93,-107.21 2043.16,-106.21 2048.37,-105.08"/>
<polygon fill="black" stroke="black" points="2049.33,-108.45 2058.29,-102.78 2047.76,-101.63 2049.33,-108.45"/>
</g>
<!-- GetLk! -->
<g id="node33" class="node">
<title>GetLk!</title>
<ellipse fill="gray" stroke="black" cx="2200.87" cy="-90" rx="27" ry="18"/>
<text text-anchor="middle" x="2200.87" y="-87.8" font-family="Times,serif" font-size="9.00">GetLk!</text>
</g>
<!-- Sequence&#45;&gt;GetLk! -->
<g id="edge32" class="edge">
<title>Sequence&#45;&gt;GetLk!</title>
<path fill="none" stroke="black" d="M1118.31,-161.1C1273.55,-161.36 1959.01,-159.5 2164.87,-108 2167.05,-107.45 2169.25,-106.77 2171.44,-106"/>
<polygon fill="black" stroke="black" points="2172.9,-109.19 2180.82,-102.15 2170.24,-102.71 2172.9,-109.19"/>
</g>
<!-- MoveTo! -->
<g id="node7" class="node">
<title>MoveTo!</title>
<ellipse fill="gray" stroke="black" cx="28.87" cy="-18" rx="28.74" ry="18"/>
<text text-anchor="middle" x="28.87" y="-15.8" font-family="Times,serif" font-size="9.00">MoveTo!</text>
</g>
<!-- Fallback*&#45;&gt;MoveTo! -->
<g id="edge6" class="edge">
<title>Fallback*&#45;&gt;MoveTo!</title>
<path fill="none" stroke="black" d="M250.42,-78.02C245.03,-75.84 239.31,-73.7 233.87,-72 161.39,-49.37 139.02,-59.63 66.87,-36 64.75,-35.31 62.59,-34.53 60.42,-33.71"/>
<polygon fill="black" stroke="black" points="61.65,-30.43 51.07,-29.86 58.98,-36.9 61.65,-30.43"/>
</g>
<!-- LkClose? -->
<g id="node8" class="node">
<title>LkClose?</title>
<ellipse fill="gray" stroke="black" cx="104.87" cy="-18" rx="28.74" ry="18"/>
<text text-anchor="middle" x="104.87" y="-15.8" font-family="Times,serif" font-size="9.00">LkClose?</text>
</g>
<!-- Fallback*&#45;&gt;LkClose? -->
<g id="edge7" class="edge">
<title>Fallback*&#45;&gt;LkClose?</title>
<path fill="none" stroke="black" d="M249.74,-78.51C244.5,-76.34 239.01,-74.08 233.87,-72 193.56,-55.67 182.95,-52.88 142.87,-36 141.02,-35.22 139.13,-34.41 137.22,-33.59"/>
<polygon fill="black" stroke="black" points="138.27,-30.23 127.7,-29.41 135.45,-36.64 138.27,-30.23"/>
</g>
<!-- ReachGoal?* -->
<g id="node9" class="node">
<title>ReachGoal?*</title>
<ellipse fill="gray" stroke="black" cx="188.87" cy="-18" rx="36.9" ry="18"/>
<text text-anchor="middle" x="188.87" y="-15.8" font-family="Times,serif" font-size="9.00">ReachGoal?*</text>
</g>
<!-- Fallback*&#45;&gt;ReachGoal?* -->
<g id="edge8" class="edge">
<title>Fallback*&#45;&gt;ReachGoal?*</title>
<path fill="none" stroke="black" d="M257.05,-74.5C244.91,-64.61 228.63,-51.36 215.02,-40.29"/>
<polygon fill="black" stroke="black" points="216.92,-37.32 206.96,-33.73 212.51,-42.75 216.92,-37.32"/>
</g>
<!-- LkGraph? -->
<g id="node10" class="node">
<title>LkGraph?</title>
<ellipse fill="gray" stroke="black" cx="274.87" cy="-18" rx="30.7" ry="18"/>
<text text-anchor="middle" x="274.87" y="-15.8" font-family="Times,serif" font-size="9.00">LkGraph?</text>
</g>
<!-- Fallback*&#45;&gt;LkGraph? -->
<g id="edge9" class="edge">
<title>Fallback*&#45;&gt;LkGraph?</title>
<path fill="none" stroke="black" d="M274.87,-71.7C274.87,-63.98 274.87,-54.71 274.87,-46.11"/>
<polygon fill="black" stroke="black" points="278.37,-46.1 274.87,-36.1 271.37,-46.1 278.37,-46.1"/>
</g>
<!-- CompLkGraph! -->
<g id="node11" class="node">
<title>CompLkGraph!</title>
<ellipse fill="gray" stroke="black" cx="365.87" cy="-18" rx="42.95" ry="18"/>
<text text-anchor="middle" x="365.87" y="-15.8" font-family="Times,serif" font-size="9.00">CompLkGraph!</text>
</g>
<!-- Fallback*&#45;&gt;CompLkGraph! -->
<g id="edge10" class="edge">
<title>Fallback*&#45;&gt;CompLkGraph!</title>
<path fill="none" stroke="black" d="M293.28,-74.83C306.13,-64.95 323.52,-51.58 338.05,-40.4"/>
<polygon fill="black" stroke="black" points="340.43,-42.98 346.22,-34.11 336.16,-37.44 340.43,-42.98"/>
</g>
<!-- NotReadyForSG?* -->
<g id="node15" class="node">
<title>NotReadyForSG?*</title>
<ellipse fill="gray" stroke="black" cx="475.87" cy="-18" rx="49.8" ry="18"/>
<text text-anchor="middle" x="475.87" y="-15.8" font-family="Times,serif" font-size="9.00">NotReadyForSG?*</text>
</g>
<!-- Fallback**&#45;&gt;NotReadyForSG?* -->
<g id="edge14" class="edge">
<title>Fallback**&#45;&gt;NotReadyForSG?*</title>
<path fill="none" stroke="black" d="M567.08,-75.5C550.47,-65.21 527.33,-50.88 508.51,-39.22"/>
<polygon fill="black" stroke="black" points="510.28,-36.2 499.94,-33.91 506.59,-42.15 510.28,-36.2"/>
</g>
<!-- CompLkGraph!* -->
<g id="node16" class="node">
<title>CompLkGraph!*</title>
<ellipse fill="gray" stroke="black" cx="588.87" cy="-18" rx="45.07" ry="18"/>
<text text-anchor="middle" x="588.87" y="-15.8" font-family="Times,serif" font-size="9.00">CompLkGraph!*</text>
</g>
<!-- Fallback**&#45;&gt;CompLkGraph!* -->
<g id="edge15" class="edge">
<title>Fallback**&#45;&gt;CompLkGraph!*</title>
<path fill="none" stroke="black" d="M588.87,-71.7C588.87,-63.98 588.87,-54.71 588.87,-46.11"/>
<polygon fill="black" stroke="black" points="592.37,-46.1 588.87,-36.1 585.37,-46.1 592.37,-46.1"/>
</g>
<!-- LkClose?* -->
<g id="node17" class="node">
<title>LkClose?*</title>
<ellipse fill="gray" stroke="black" cx="683.87" cy="-18" rx="31.51" ry="18"/>
<text text-anchor="middle" x="683.87" y="-15.8" font-family="Times,serif" font-size="9.00">LkClose?*</text>
</g>
<!-- Fallback**&#45;&gt;LkClose?* -->
<g id="edge16" class="edge">
<title>Fallback**&#45;&gt;LkClose?*</title>
<path fill="none" stroke="black" d="M608.55,-74.5C622.58,-64.16 641.62,-50.13 657.04,-38.77"/>
<polygon fill="black" stroke="black" points="659.2,-41.52 665.18,-32.77 655.05,-35.89 659.2,-41.52"/>
</g>
<!-- GetSubGoal!* -->
<g id="node18" class="node">
<title>GetSubGoal!*</title>
<ellipse fill="gray" stroke="black" cx="772.87" cy="-18" rx="39.02" ry="18"/>
<text text-anchor="middle" x="772.87" y="-15.8" font-family="Times,serif" font-size="9.00">GetSubGoal!*</text>
</g>
<!-- Fallback**&#45;&gt;GetSubGoal!* -->
<g id="edge17" class="edge">
<title>Fallback**&#45;&gt;GetSubGoal!*</title>
<path fill="none" stroke="black" d="M616.32,-78.36C621.8,-76.25 627.51,-74.05 632.87,-72 667.07,-58.92 706.03,-44.18 734.15,-33.58"/>
<polygon fill="black" stroke="black" points="735.5,-36.81 743.62,-30.01 733.03,-30.26 735.5,-36.81"/>
</g>
<!-- CompLkGraph!** -->
<g id="node19" class="node">
<title>CompLkGraph!**</title>
<ellipse fill="gray" stroke="black" cx="877.87" cy="-18" rx="47.84" ry="18"/>
<text text-anchor="middle" x="877.87" y="-15.8" font-family="Times,serif" font-size="9.00">CompLkGraph!**</text>
</g>
<!-- Fallback**&#45;&gt;CompLkGraph!** -->
<g id="edge18" class="edge">
<title>Fallback**&#45;&gt;CompLkGraph!**</title>
<path fill="none" stroke="black" d="M615.13,-77.97C620.91,-75.79 627.04,-73.67 632.87,-72 714.65,-48.58 738.22,-56.18 820.87,-36 824.71,-35.06 828.67,-34.02 832.64,-32.94"/>
<polygon fill="black" stroke="black" points="833.77,-36.26 842.44,-30.17 831.87,-29.52 833.77,-36.26"/>
</g>
</g>
</svg>
