<?xml version="1.0" encoding="UTF-8" standalone="no"?>
<!DOCTYPE svg PUBLIC "-//W3C//DTD SVG 1.1//EN"
 "http://www.w3.org/Graphics/SVG/1.1/DTD/svg11.dtd">
<!-- Generated by graphviz version 2.43.0 (0)
 -->
<!-- Title: pastafarianism Pages: 1 -->
<svg width="1271pt" height="332pt"
 viewBox="0.00 0.00 1270.91 332.00" xmlns="http://www.w3.org/2000/svg" xmlns:xlink="http://www.w3.org/1999/xlink">
<g id="graph0" class="graph" transform="scale(1 1) rotate(0) translate(4 328)">
<title>pastafarianism</title>
<polygon fill="white" stroke="transparent" points="-4,4 -4,-328 1266.91,-328 1266.91,4 -4,4"/>
<!-- Sequence -->
<g id="node1" class="node">
<title>Sequence</title>
<polygon fill="cyan" stroke="black" points="770.26,-298.54 770.26,-313.46 751.81,-324 725.72,-324 707.27,-313.46 707.27,-298.54 725.72,-288 751.81,-288 770.26,-298.54"/>
<text text-anchor="middle" x="738.77" y="-303.8" font-family="Times,serif" font-size="9.00">Sequence</text>
</g>
<!-- Fallback -->
<g id="node2" class="node">
<title>Fallback</title>
<polygon fill="cyan" stroke="black" points="768.01,-226.54 768.01,-241.46 750.88,-252 726.65,-252 709.52,-241.46 709.52,-226.54 726.65,-216 750.88,-216 768.01,-226.54"/>
<text text-anchor="middle" x="738.77" y="-231.8" font-family="Times,serif" font-size="9.00">Fallback</text>
</g>
<!-- Sequence&#45;&gt;Fallback -->
<g id="edge1" class="edge">
<title>Sequence&#45;&gt;Fallback</title>
<path fill="none" stroke="black" d="M738.77,-287.7C738.77,-279.98 738.77,-270.71 738.77,-262.11"/>
<polygon fill="black" stroke="black" points="742.27,-262.1 738.77,-252.1 735.27,-262.1 742.27,-262.1"/>
</g>
<!-- ReachGoal? -->
<g id="node3" class="node">
<title>ReachGoal?</title>
<ellipse fill="gray" stroke="black" cx="597.77" cy="-162" rx="34.13" ry="18"/>
<text text-anchor="middle" x="597.77" y="-159.8" font-family="Times,serif" font-size="9.00">ReachGoal?</text>
</g>
<!-- Fallback&#45;&gt;ReachGoal? -->
<g id="edge2" class="edge">
<title>Fallback&#45;&gt;ReachGoal?</title>
<path fill="none" stroke="black" d="M716.73,-222.06C693.83,-210.69 657.7,-192.76 631.26,-179.63"/>
<polygon fill="black" stroke="black" points="632.52,-176.35 622,-175.03 629.4,-182.62 632.52,-176.35"/>
</g>
<!-- Sequence* -->
<g id="node4" class="node">
<title>Sequence*</title>
<polygon fill="cyan" stroke="black" points="718.01,-154.54 718.01,-169.46 697.95,-180 669.58,-180 649.52,-169.46 649.52,-154.54 669.58,-144 697.95,-144 718.01,-154.54"/>
<text text-anchor="middle" x="683.77" y="-159.8" font-family="Times,serif" font-size="9.00">Sequence*</text>
</g>
<!-- Fallback&#45;&gt;Sequence* -->
<g id="edge3" class="edge">
<title>Fallback&#45;&gt;Sequence*</title>
<path fill="none" stroke="black" d="M725.73,-216.41C719.15,-208.03 711.02,-197.68 703.67,-188.33"/>
<polygon fill="black" stroke="black" points="706.4,-186.15 697.47,-180.45 700.9,-190.47 706.4,-186.15"/>
</g>
<!-- NotReadyForSG?**** -->
<g id="node19" class="node">
<title>NotReadyForSG?****</title>
<ellipse fill="gray" stroke="black" cx="793.77" cy="-162" rx="57.32" ry="18"/>
<text text-anchor="middle" x="793.77" y="-159.8" font-family="Times,serif" font-size="9.00">NotReadyForSG?****</text>
</g>
<!-- Fallback&#45;&gt;NotReadyForSG?**** -->
<g id="edge18" class="edge">
<title>Fallback&#45;&gt;NotReadyForSG?****</title>
<path fill="none" stroke="black" d="M751.8,-216.41C758.48,-207.91 766.76,-197.37 774.19,-187.91"/>
<polygon fill="black" stroke="black" points="777.02,-189.98 780.44,-179.96 771.51,-185.66 777.02,-189.98"/>
</g>
<!-- Sequence** -->
<g id="node20" class="node">
<title>Sequence**</title>
<polygon fill="cyan" stroke="black" points="1038.51,-154.54 1038.51,-169.46 1016.98,-180 986.55,-180 965.02,-169.46 965.02,-154.54 986.55,-144 1016.98,-144 1038.51,-154.54"/>
<text text-anchor="middle" x="1001.77" y="-159.8" font-family="Times,serif" font-size="9.00">Sequence**</text>
</g>
<!-- Fallback&#45;&gt;Sequence** -->
<g id="edge19" class="edge">
<title>Fallback&#45;&gt;Sequence**</title>
<path fill="none" stroke="black" d="M766.91,-225.51C813.1,-213.22 905.23,-188.69 959.36,-174.29"/>
<polygon fill="black" stroke="black" points="960.56,-177.59 969.33,-171.63 958.76,-170.82 960.56,-177.59"/>
</g>
<!-- GetLk! -->
<g id="node5" class="node">
<title>GetLk!</title>
<ellipse fill="gray" stroke="black" cx="316.77" cy="-90" rx="27" ry="18"/>
<text text-anchor="middle" x="316.77" y="-87.8" font-family="Times,serif" font-size="9.00">GetLk!</text>
</g>
<!-- Sequence*&#45;&gt;GetLk! -->
<g id="edge4" class="edge">
<title>Sequence*&#45;&gt;GetLk!</title>
<path fill="none" stroke="black" d="M658.19,-149.67C652.54,-147.51 646.52,-145.47 640.77,-144 515.79,-112.03 476.64,-143.99 352.77,-108 350.82,-107.44 348.86,-106.78 346.89,-106.06"/>
<polygon fill="black" stroke="black" points="347.84,-102.66 337.27,-102.05 345.15,-109.12 347.84,-102.66"/>
</g>
<!-- Fallback* -->
<g id="node6" class="node">
<title>Fallback*</title>
<polygon fill="cyan" stroke="black" points="425.51,-82.54 425.51,-97.46 406.91,-108 380.62,-108 362.02,-97.46 362.02,-82.54 380.62,-72 406.91,-72 425.51,-82.54"/>
<text text-anchor="middle" x="393.77" y="-87.8" font-family="Times,serif" font-size="9.00">Fallback*</text>
</g>
<!-- Sequence*&#45;&gt;Fallback* -->
<g id="edge5" class="edge">
<title>Sequence*&#45;&gt;Fallback*</title>
<path fill="none" stroke="black" d="M657.63,-149.87C652.12,-147.75 646.3,-145.67 640.77,-144 570.03,-122.59 485.39,-106.4 435.81,-97.84"/>
<polygon fill="black" stroke="black" points="436.22,-94.36 425.77,-96.13 435.04,-101.26 436.22,-94.36"/>
</g>
<!-- Fallback** -->
<g id="node13" class="node">
<title>Fallback**</title>
<polygon fill="cyan" stroke="black" points="718.76,-82.54 718.76,-97.46 698.26,-108 669.27,-108 648.77,-97.46 648.77,-82.54 669.27,-72 698.26,-72 718.76,-82.54"/>
<text text-anchor="middle" x="683.77" y="-87.8" font-family="Times,serif" font-size="9.00">Fallback**</text>
</g>
<!-- Sequence*&#45;&gt;Fallback** -->
<g id="edge12" class="edge">
<title>Sequence*&#45;&gt;Fallback**</title>
<path fill="none" stroke="black" d="M683.77,-143.7C683.77,-135.98 683.77,-126.71 683.77,-118.11"/>
<polygon fill="black" stroke="black" points="687.27,-118.1 683.77,-108.1 680.27,-118.1 687.27,-118.1"/>
</g>
<!-- MoveTo!* -->
<g id="node18" class="node">
<title>MoveTo!*</title>
<ellipse fill="gray" stroke="black" cx="768.77" cy="-90" rx="31.51" ry="18"/>
<text text-anchor="middle" x="768.77" y="-87.8" font-family="Times,serif" font-size="9.00">MoveTo!*</text>
</g>
<!-- Sequence*&#45;&gt;MoveTo!* -->
<g id="edge17" class="edge">
<title>Sequence*&#45;&gt;MoveTo!*</title>
<path fill="none" stroke="black" d="M702.21,-145.81C714.34,-135.82 730.37,-122.62 743.66,-111.68"/>
<polygon fill="black" stroke="black" points="746.02,-114.26 751.52,-105.21 741.57,-108.86 746.02,-114.26"/>
</g>
<!-- NotReadyForSG? -->
<g id="node7" class="node">
<title>NotReadyForSG?</title>
<ellipse fill="gray" stroke="black" cx="46.77" cy="-18" rx="46.53" ry="18"/>
<text text-anchor="middle" x="46.77" y="-15.8" font-family="Times,serif" font-size="9.00">NotReadyForSG?</text>
</g>
<!-- Fallback*&#45;&gt;NotReadyForSG? -->
<g id="edge6" class="edge">
<title>Fallback*&#45;&gt;NotReadyForSG?</title>
<path fill="none" stroke="black" d="M369.84,-77.91C364.32,-75.68 358.41,-73.55 352.77,-72 244.52,-42.27 212.34,-60.37 102.77,-36 98.91,-35.14 94.94,-34.16 90.98,-33.1"/>
<polygon fill="black" stroke="black" points="91.77,-29.68 81.2,-30.35 89.88,-36.42 91.77,-29.68"/>
</g>
<!-- GetSubGoal! -->
<g id="node8" class="node">
<title>GetSubGoal!</title>
<ellipse fill="gray" stroke="black" cx="148.77" cy="-18" rx="36.9" ry="18"/>
<text text-anchor="middle" x="148.77" y="-15.8" font-family="Times,serif" font-size="9.00">GetSubGoal!</text>
</g>
<!-- Fallback*&#45;&gt;GetSubGoal! -->
<g id="edge7" class="edge">
<title>Fallback*&#45;&gt;GetSubGoal!</title>
<path fill="none" stroke="black" d="M369.3,-78.07C363.92,-75.88 358.2,-73.73 352.77,-72 284.14,-50.13 263.8,-56.53 194.77,-36 192.01,-35.18 189.18,-34.28 186.35,-33.34"/>
<polygon fill="black" stroke="black" points="187.38,-29.99 176.79,-30.01 185.08,-36.61 187.38,-29.99"/>
</g>
<!-- ReachGoal?* -->
<g id="node9" class="node">
<title>ReachGoal?*</title>
<ellipse fill="gray" stroke="black" cx="240.77" cy="-18" rx="36.9" ry="18"/>
<text text-anchor="middle" x="240.77" y="-15.8" font-family="Times,serif" font-size="9.00">ReachGoal?*</text>
</g>
<!-- Fallback*&#45;&gt;ReachGoal?* -->
<g id="edge8" class="edge">
<title>Fallback*&#45;&gt;ReachGoal?*</title>
<path fill="none" stroke="black" d="M369.86,-78.06C344.71,-66.56 304.88,-48.33 276.1,-35.17"/>
<polygon fill="black" stroke="black" points="277.36,-31.89 266.81,-30.91 274.44,-38.26 277.36,-31.89"/>
</g>
<!-- NotReadyForSG?* -->
<g id="node10" class="node">
<title>NotReadyForSG?*</title>
<ellipse fill="gray" stroke="black" cx="345.77" cy="-18" rx="49.8" ry="18"/>
<text text-anchor="middle" x="345.77" y="-15.8" font-family="Times,serif" font-size="9.00">NotReadyForSG?*</text>
</g>
<!-- Fallback*&#45;&gt;NotReadyForSG?* -->
<g id="edge9" class="edge">
<title>Fallback*&#45;&gt;NotReadyForSG?*</title>
<path fill="none" stroke="black" d="M381.9,-71.7C376.18,-63.35 369.21,-53.18 362.92,-44.02"/>
<polygon fill="black" stroke="black" points="365.71,-41.89 357.16,-35.62 359.93,-45.85 365.71,-41.89"/>
</g>
<!-- LkClose? -->
<g id="node11" class="node">
<title>LkClose?</title>
<ellipse fill="gray" stroke="black" cx="442.77" cy="-18" rx="28.74" ry="18"/>
<text text-anchor="middle" x="442.77" y="-15.8" font-family="Times,serif" font-size="9.00">LkClose?</text>
</g>
<!-- Fallback*&#45;&gt;LkClose? -->
<g id="edge10" class="edge">
<title>Fallback*&#45;&gt;LkClose?</title>
<path fill="none" stroke="black" d="M405.88,-71.7C411.95,-63.02 419.41,-52.37 426.02,-42.92"/>
<polygon fill="black" stroke="black" points="428.93,-44.87 431.8,-34.67 423.19,-40.86 428.93,-44.87"/>
</g>
<!-- NotReadyForSG?** -->
<g id="node12" class="node">
<title>NotReadyForSG?**</title>
<ellipse fill="gray" stroke="black" cx="541.77" cy="-18" rx="51.92" ry="18"/>
<text text-anchor="middle" x="541.77" y="-15.8" font-family="Times,serif" font-size="9.00">NotReadyForSG?**</text>
</g>
<!-- Fallback*&#45;&gt;NotReadyForSG?** -->
<g id="edge11" class="edge">
<title>Fallback*&#45;&gt;NotReadyForSG?**</title>
<path fill="none" stroke="black" d="M417.54,-77.75C440.64,-66.83 476.1,-50.06 503.23,-37.23"/>
<polygon fill="black" stroke="black" points="504.9,-40.31 512.44,-32.87 501.91,-33.98 504.9,-40.31"/>
</g>
<!-- MoveTo! -->
<g id="node14" class="node">
<title>MoveTo!</title>
<ellipse fill="gray" stroke="black" cx="640.77" cy="-18" rx="28.74" ry="18"/>
<text text-anchor="middle" x="640.77" y="-15.8" font-family="Times,serif" font-size="9.00">MoveTo!</text>
</g>
<!-- Fallback**&#45;&gt;MoveTo! -->
<g id="edge13" class="edge">
<title>Fallback**&#45;&gt;MoveTo!</title>
<path fill="none" stroke="black" d="M673.14,-71.7C667.99,-63.32 661.71,-53.1 656.06,-43.9"/>
<polygon fill="black" stroke="black" points="658.9,-41.83 650.68,-35.14 652.93,-45.5 658.9,-41.83"/>
</g>
<!-- GetSubGoal!* -->
<g id="node15" class="node">
<title>GetSubGoal!*</title>
<ellipse fill="gray" stroke="black" cx="726.77" cy="-18" rx="39.02" ry="18"/>
<text text-anchor="middle" x="726.77" y="-15.8" font-family="Times,serif" font-size="9.00">GetSubGoal!*</text>
</g>
<!-- Fallback**&#45;&gt;GetSubGoal!* -->
<g id="edge14" class="edge">
<title>Fallback**&#45;&gt;GetSubGoal!*</title>
<path fill="none" stroke="black" d="M694.39,-71.7C699.47,-63.44 705.64,-53.39 711.22,-44.3"/>
<polygon fill="black" stroke="black" points="714.3,-45.98 716.55,-35.62 708.34,-42.31 714.3,-45.98"/>
</g>
<!-- CompLkGraph! -->
<g id="node16" class="node">
<title>CompLkGraph!</title>
<ellipse fill="gray" stroke="black" cx="826.77" cy="-18" rx="42.95" ry="18"/>
<text text-anchor="middle" x="826.77" y="-15.8" font-family="Times,serif" font-size="9.00">CompLkGraph!</text>
</g>
<!-- Fallback**&#45;&gt;CompLkGraph! -->
<g id="edge15" class="edge">
<title>Fallback**&#45;&gt;CompLkGraph!</title>
<path fill="none" stroke="black" d="M708.35,-76.97C731.11,-65.83 765.22,-49.13 791,-36.51"/>
<polygon fill="black" stroke="black" points="792.63,-39.6 800.08,-32.06 789.56,-33.32 792.63,-39.6"/>
</g>
<!-- NotReadyForSG?*** -->
<g id="node17" class="node">
<title>NotReadyForSG?***</title>
<ellipse fill="gray" stroke="black" cx="942.77" cy="-18" rx="54.7" ry="18"/>
<text text-anchor="middle" x="942.77" y="-15.8" font-family="Times,serif" font-size="9.00">NotReadyForSG?***</text>
</g>
<!-- Fallback**&#45;&gt;NotReadyForSG?*** -->
<g id="edge16" class="edge">
<title>Fallback**&#45;&gt;NotReadyForSG?***</title>
<path fill="none" stroke="black" d="M710.56,-77.99C716.19,-75.86 722.13,-73.75 727.77,-72 793.65,-51.52 811.86,-52.86 878.77,-36 883.08,-34.91 887.56,-33.76 892.05,-32.6"/>
<polygon fill="black" stroke="black" points="893.05,-35.96 901.84,-30.04 891.28,-29.18 893.05,-35.96"/>
</g>
<!-- NotReadyForSG?***** -->
<g id="node21" class="node">
<title>NotReadyForSG?*****</title>
<ellipse fill="gray" stroke="black" cx="878.77" cy="-90" rx="60.09" ry="18"/>
<text text-anchor="middle" x="878.77" y="-87.8" font-family="Times,serif" font-size="9.00">NotReadyForSG?*****</text>
</g>
<!-- Sequence**&#45;&gt;NotReadyForSG?***** -->
<g id="edge20" class="edge">
<title>Sequence**&#45;&gt;NotReadyForSG?*****</title>
<path fill="none" stroke="black" d="M978.63,-147.83C960.57,-137.55 935.15,-123.09 914.48,-111.32"/>
<polygon fill="black" stroke="black" points="916.07,-108.21 905.65,-106.3 912.61,-114.29 916.07,-108.21"/>
</g>
<!-- CompLkGraph!* -->
<g id="node22" class="node">
<title>CompLkGraph!*</title>
<ellipse fill="gray" stroke="black" cx="1001.77" cy="-90" rx="45.07" ry="18"/>
<text text-anchor="middle" x="1001.77" y="-87.8" font-family="Times,serif" font-size="9.00">CompLkGraph!*</text>
</g>
<!-- Sequence**&#45;&gt;CompLkGraph!* -->
<g id="edge21" class="edge">
<title>Sequence**&#45;&gt;CompLkGraph!*</title>
<path fill="none" stroke="black" d="M1001.77,-143.7C1001.77,-135.98 1001.77,-126.71 1001.77,-118.11"/>
<polygon fill="black" stroke="black" points="1005.27,-118.1 1001.77,-108.1 998.27,-118.1 1005.27,-118.1"/>
</g>
<!-- GetLk!* -->
<g id="node23" class="node">
<title>GetLk!*</title>
<ellipse fill="gray" stroke="black" cx="1091.77" cy="-90" rx="27.27" ry="18"/>
<text text-anchor="middle" x="1091.77" y="-87.8" font-family="Times,serif" font-size="9.00">GetLk!*</text>
</g>
<!-- Sequence**&#45;&gt;GetLk!* -->
<g id="edge22" class="edge">
<title>Sequence**&#45;&gt;GetLk!*</title>
<path fill="none" stroke="black" d="M1021.29,-145.81C1034.6,-135.46 1052.35,-121.66 1066.7,-110.49"/>
<polygon fill="black" stroke="black" points="1068.96,-113.17 1074.7,-104.27 1064.66,-107.65 1068.96,-113.17"/>
</g>
<!-- Fallback*** -->
<g id="node24" class="node">
<title>Fallback***</title>
<polygon fill="cyan" stroke="black" points="1212.26,-82.54 1212.26,-97.46 1190.29,-108 1159.24,-108 1137.28,-97.46 1137.28,-82.54 1159.24,-72 1190.29,-72 1212.26,-82.54"/>
<text text-anchor="middle" x="1174.77" y="-87.8" font-family="Times,serif" font-size="9.00">Fallback***</text>
</g>
<!-- Sequence**&#45;&gt;Fallback*** -->
<g id="edge23" class="edge">
<title>Sequence**&#45;&gt;Fallback***</title>
<path fill="none" stroke="black" d="M1029.18,-149.91C1058.36,-138.1 1104.74,-119.34 1137.28,-106.17"/>
<polygon fill="black" stroke="black" points="1138.95,-109.27 1146.91,-102.27 1136.33,-102.78 1138.95,-109.27"/>
</g>
<!-- LkClose?* -->
<g id="node25" class="node">
<title>LkClose?*</title>
<ellipse fill="gray" stroke="black" cx="1128.77" cy="-18" rx="31.51" ry="18"/>
<text text-anchor="middle" x="1128.77" y="-15.8" font-family="Times,serif" font-size="9.00">LkClose?*</text>
</g>
<!-- Fallback***&#45;&gt;LkClose?* -->
<g id="edge24" class="edge">
<title>Fallback***&#45;&gt;LkClose?*</title>
<path fill="none" stroke="black" d="M1163.39,-71.7C1157.83,-63.23 1151.03,-52.89 1144.94,-43.61"/>
<polygon fill="black" stroke="black" points="1147.79,-41.58 1139.37,-35.14 1141.94,-45.42 1147.79,-41.58"/>
</g>
<!-- GetSubGoal!** -->
<g id="node26" class="node">
<title>GetSubGoal!**</title>
<ellipse fill="gray" stroke="black" cx="1220.77" cy="-18" rx="42.29" ry="18"/>
<text text-anchor="middle" x="1220.77" y="-15.8" font-family="Times,serif" font-size="9.00">GetSubGoal!**</text>
</g>
<!-- Fallback***&#45;&gt;GetSubGoal!** -->
<g id="edge25" class="edge">
<title>Fallback***&#45;&gt;GetSubGoal!**</title>
<path fill="none" stroke="black" d="M1186.14,-71.7C1191.62,-63.35 1198.3,-53.18 1204.33,-44.02"/>
<polygon fill="black" stroke="black" points="1207.28,-45.9 1209.84,-35.62 1201.43,-42.06 1207.28,-45.9"/>
</g>
</g>
</svg>
