<?xml version="1.0" encoding="UTF-8" standalone="no"?>
<!DOCTYPE svg PUBLIC "-//W3C//DTD SVG 1.1//EN"
 "http://www.w3.org/Graphics/SVG/1.1/DTD/svg11.dtd">
<!-- Generated by graphviz version 2.43.0 (0)
 -->
<!-- Title: pastafarianism Pages: 1 -->
<svg width="1308pt" height="260pt"
 viewBox="0.00 0.00 1308.22 260.00" xmlns="http://www.w3.org/2000/svg" xmlns:xlink="http://www.w3.org/1999/xlink">
<g id="graph0" class="graph" transform="scale(1 1) rotate(0) translate(4 256)">
<title>pastafarianism</title>
<polygon fill="white" stroke="transparent" points="-4,4 -4,-256 1304.22,-256 1304.22,4 -4,4"/>
<!-- Fallback -->
<g id="node1" class="node">
<title>Fallback</title>
<polygon fill="cyan" stroke="black" points="396.31,-226.54 396.31,-241.46 379.18,-252 354.95,-252 337.82,-241.46 337.82,-226.54 354.95,-216 379.18,-216 396.31,-226.54"/>
<text text-anchor="middle" x="367.06" y="-231.8" font-family="Times,serif" font-size="9.00">Fallback</text>
</g>
<!-- Sequence -->
<g id="node2" class="node">
<title>Sequence</title>
<polygon fill="cyan" stroke="black" points="241.56,-154.54 241.56,-169.46 223.11,-180 197.02,-180 178.57,-169.46 178.57,-154.54 197.02,-144 223.11,-144 241.56,-154.54"/>
<text text-anchor="middle" x="210.06" y="-159.8" font-family="Times,serif" font-size="9.00">Sequence</text>
</g>
<!-- Fallback&#45;&gt;Sequence -->
<g id="edge1" class="edge">
<title>Fallback&#45;&gt;Sequence</title>
<path fill="none" stroke="black" d="M343.9,-222.67C317.42,-210.87 273.86,-191.44 243.66,-177.98"/>
<polygon fill="black" stroke="black" points="244.92,-174.71 234.36,-173.83 242.07,-181.1 244.92,-174.71"/>
</g>
<!-- Sequence* -->
<g id="node9" class="node">
<title>Sequence*</title>
<polygon fill="cyan" stroke="black" points="558.31,-154.54 558.31,-169.46 538.25,-180 509.88,-180 489.82,-169.46 489.82,-154.54 509.88,-144 538.25,-144 558.31,-154.54"/>
<text text-anchor="middle" x="524.06" y="-159.8" font-family="Times,serif" font-size="9.00">Sequence*</text>
</g>
<!-- Fallback&#45;&gt;Sequence* -->
<g id="edge8" class="edge">
<title>Fallback&#45;&gt;Sequence*</title>
<path fill="none" stroke="black" d="M390.23,-222.67C416.4,-211 459.26,-191.89 489.41,-178.45"/>
<polygon fill="black" stroke="black" points="491.01,-181.57 498.72,-174.3 488.16,-175.18 491.01,-181.57"/>
</g>
<!-- ReachGoal? -->
<g id="node3" class="node">
<title>ReachGoal?</title>
<ellipse fill="gray" stroke="black" cx="34.06" cy="-90" rx="34.13" ry="18"/>
<text text-anchor="middle" x="34.06" y="-87.8" font-family="Times,serif" font-size="9.00">ReachGoal?</text>
</g>
<!-- Sequence&#45;&gt;ReachGoal? -->
<g id="edge2" class="edge">
<title>Sequence&#45;&gt;ReachGoal?</title>
<path fill="none" stroke="black" d="M184.47,-150.82C154.36,-138.85 104.17,-118.88 70.12,-105.34"/>
<polygon fill="black" stroke="black" points="71.14,-101.98 60.55,-101.53 68.55,-108.48 71.14,-101.98"/>
</g>
<!-- GetSubGoal! -->
<g id="node4" class="node">
<title>GetSubGoal!</title>
<ellipse fill="gray" stroke="black" cx="123.06" cy="-90" rx="36.9" ry="18"/>
<text text-anchor="middle" x="123.06" y="-87.8" font-family="Times,serif" font-size="9.00">GetSubGoal!</text>
</g>
<!-- Sequence&#45;&gt;GetSubGoal! -->
<g id="edge3" class="edge">
<title>Sequence&#45;&gt;GetSubGoal!</title>
<path fill="none" stroke="black" d="M192.04,-146.5C179.75,-136.61 163.29,-123.36 149.53,-112.29"/>
<polygon fill="black" stroke="black" points="151.35,-109.27 141.37,-105.73 146.96,-114.72 151.35,-109.27"/>
</g>
<!-- Fallback* -->
<g id="node5" class="node">
<title>Fallback*</title>
<polygon fill="cyan" stroke="black" points="241.81,-82.54 241.81,-97.46 223.21,-108 196.92,-108 178.32,-97.46 178.32,-82.54 196.92,-72 223.21,-72 241.81,-82.54"/>
<text text-anchor="middle" x="210.06" y="-87.8" font-family="Times,serif" font-size="9.00">Fallback*</text>
</g>
<!-- Sequence&#45;&gt;Fallback* -->
<g id="edge4" class="edge">
<title>Sequence&#45;&gt;Fallback*</title>
<path fill="none" stroke="black" d="M210.06,-143.7C210.06,-135.98 210.06,-126.71 210.06,-118.11"/>
<polygon fill="black" stroke="black" points="213.56,-118.1 210.06,-108.1 206.56,-118.1 213.56,-118.1"/>
</g>
<!-- NotReadyForSG? -->
<g id="node8" class="node">
<title>NotReadyForSG?</title>
<ellipse fill="gray" stroke="black" cx="307.06" cy="-90" rx="46.53" ry="18"/>
<text text-anchor="middle" x="307.06" y="-87.8" font-family="Times,serif" font-size="9.00">NotReadyForSG?</text>
</g>
<!-- Sequence&#45;&gt;NotReadyForSG? -->
<g id="edge7" class="edge">
<title>Sequence&#45;&gt;NotReadyForSG?</title>
<path fill="none" stroke="black" d="M229.23,-147.17C243.02,-137.22 261.87,-123.61 277.57,-112.28"/>
<polygon fill="black" stroke="black" points="279.86,-114.95 285.92,-106.26 275.76,-109.27 279.86,-114.95"/>
</g>
<!-- ReachGoal?* -->
<g id="node6" class="node">
<title>ReachGoal?*</title>
<ellipse fill="gray" stroke="black" cx="124.06" cy="-18" rx="36.9" ry="18"/>
<text text-anchor="middle" x="124.06" y="-15.8" font-family="Times,serif" font-size="9.00">ReachGoal?*</text>
</g>
<!-- Fallback*&#45;&gt;ReachGoal?* -->
<g id="edge5" class="edge">
<title>Fallback*&#45;&gt;ReachGoal?*</title>
<path fill="none" stroke="black" d="M192.24,-74.5C180.1,-64.61 163.83,-51.36 150.22,-40.29"/>
<polygon fill="black" stroke="black" points="152.12,-37.32 142.16,-33.73 147.7,-42.75 152.12,-37.32"/>
</g>
<!-- LkGraph? -->
<g id="node7" class="node">
<title>LkGraph?</title>
<ellipse fill="gray" stroke="black" cx="210.06" cy="-18" rx="30.7" ry="18"/>
<text text-anchor="middle" x="210.06" y="-15.8" font-family="Times,serif" font-size="9.00">LkGraph?</text>
</g>
<!-- Fallback*&#45;&gt;LkGraph? -->
<g id="edge6" class="edge">
<title>Fallback*&#45;&gt;LkGraph?</title>
<path fill="none" stroke="black" d="M210.06,-71.7C210.06,-63.98 210.06,-54.71 210.06,-46.11"/>
<polygon fill="black" stroke="black" points="213.56,-46.1 210.06,-36.1 206.56,-46.1 213.56,-46.1"/>
</g>
<!-- GetLk! -->
<g id="node10" class="node">
<title>GetLk!</title>
<ellipse fill="gray" stroke="black" cx="444.06" cy="-90" rx="27" ry="18"/>
<text text-anchor="middle" x="444.06" y="-87.8" font-family="Times,serif" font-size="9.00">GetLk!</text>
</g>
<!-- Sequence*&#45;&gt;GetLk! -->
<g id="edge9" class="edge">
<title>Sequence*&#45;&gt;GetLk!</title>
<path fill="none" stroke="black" d="M506.31,-145.46C494.91,-135.49 479.96,-122.41 467.58,-111.58"/>
<polygon fill="black" stroke="black" points="469.7,-108.78 459.87,-104.83 465.09,-114.05 469.7,-108.78"/>
</g>
<!-- Fallback** -->
<g id="node11" class="node">
<title>Fallback**</title>
<polygon fill="cyan" stroke="black" points="559.05,-82.54 559.05,-97.46 538.56,-108 509.57,-108 489.07,-97.46 489.07,-82.54 509.57,-72 538.56,-72 559.05,-82.54"/>
<text text-anchor="middle" x="524.06" y="-87.8" font-family="Times,serif" font-size="9.00">Fallback**</text>
</g>
<!-- Sequence*&#45;&gt;Fallback** -->
<g id="edge10" class="edge">
<title>Sequence*&#45;&gt;Fallback**</title>
<path fill="none" stroke="black" d="M524.06,-143.7C524.06,-135.98 524.06,-126.71 524.06,-118.11"/>
<polygon fill="black" stroke="black" points="527.56,-118.1 524.06,-108.1 520.56,-118.1 527.56,-118.1"/>
</g>
<!-- Fallback*** -->
<g id="node16" class="node">
<title>Fallback***</title>
<polygon fill="cyan" stroke="black" points="889.55,-82.54 889.55,-97.46 867.59,-108 836.53,-108 814.57,-97.46 814.57,-82.54 836.53,-72 867.59,-72 889.55,-82.54"/>
<text text-anchor="middle" x="852.06" y="-87.8" font-family="Times,serif" font-size="9.00">Fallback***</text>
</g>
<!-- Sequence*&#45;&gt;Fallback*** -->
<g id="edge15" class="edge">
<title>Sequence*&#45;&gt;Fallback***</title>
<path fill="none" stroke="black" d="M557.32,-153.9C616.5,-141.27 740.12,-114.89 806.92,-100.63"/>
<polygon fill="black" stroke="black" points="807.69,-104.05 816.74,-98.54 806.23,-97.2 807.69,-104.05"/>
</g>
<!-- MoveTo!* -->
<g id="node23" class="node">
<title>MoveTo!*</title>
<ellipse fill="gray" stroke="black" cx="939.06" cy="-90" rx="31.51" ry="18"/>
<text text-anchor="middle" x="939.06" y="-87.8" font-family="Times,serif" font-size="9.00">MoveTo!*</text>
</g>
<!-- Sequence*&#45;&gt;MoveTo!* -->
<g id="edge22" class="edge">
<title>Sequence*&#45;&gt;MoveTo!*</title>
<path fill="none" stroke="black" d="M558.43,-159.03C625.01,-154.59 775.82,-141.43 898.06,-108 900.54,-107.32 903.06,-106.54 905.57,-105.68"/>
<polygon fill="black" stroke="black" points="907,-108.88 915.14,-102.1 904.54,-102.33 907,-108.88"/>
</g>
<!-- NotReadyForSG?* -->
<g id="node12" class="node">
<title>NotReadyForSG?*</title>
<ellipse fill="gray" stroke="black" cx="308.06" cy="-18" rx="49.8" ry="18"/>
<text text-anchor="middle" x="308.06" y="-15.8" font-family="Times,serif" font-size="9.00">NotReadyForSG?*</text>
</g>
<!-- Fallback**&#45;&gt;NotReadyForSG?* -->
<g id="edge11" class="edge">
<title>Fallback**&#45;&gt;NotReadyForSG?*</title>
<path fill="none" stroke="black" d="M497.18,-78.27C491.55,-76.12 485.63,-73.93 480.06,-72 438.42,-57.56 390.44,-42.94 355.75,-32.72"/>
<polygon fill="black" stroke="black" points="356.47,-29.28 345.89,-29.83 354.5,-36 356.47,-29.28"/>
</g>
<!-- GetSubGoal!* -->
<g id="node13" class="node">
<title>GetSubGoal!*</title>
<ellipse fill="gray" stroke="black" cx="415.06" cy="-18" rx="39.02" ry="18"/>
<text text-anchor="middle" x="415.06" y="-15.8" font-family="Times,serif" font-size="9.00">GetSubGoal!*</text>
</g>
<!-- Fallback**&#45;&gt;GetSubGoal!* -->
<g id="edge12" class="edge">
<title>Fallback**&#45;&gt;GetSubGoal!*</title>
<path fill="none" stroke="black" d="M502.79,-75.34C486.5,-64.87 463.8,-50.3 445.57,-38.59"/>
<polygon fill="black" stroke="black" points="447.34,-35.57 437.03,-33.11 443.56,-41.46 447.34,-35.57"/>
</g>
<!-- NotReadyForSG?** -->
<g id="node14" class="node">
<title>NotReadyForSG?**</title>
<ellipse fill="gray" stroke="black" cx="524.06" cy="-18" rx="51.92" ry="18"/>
<text text-anchor="middle" x="524.06" y="-15.8" font-family="Times,serif" font-size="9.00">NotReadyForSG?**</text>
</g>
<!-- Fallback**&#45;&gt;NotReadyForSG?** -->
<g id="edge13" class="edge">
<title>Fallback**&#45;&gt;NotReadyForSG?**</title>
<path fill="none" stroke="black" d="M524.06,-71.7C524.06,-63.98 524.06,-54.71 524.06,-46.11"/>
<polygon fill="black" stroke="black" points="527.56,-46.1 524.06,-36.1 520.56,-46.1 527.56,-46.1"/>
</g>
<!-- GetSubGoal!** -->
<g id="node15" class="node">
<title>GetSubGoal!**</title>
<ellipse fill="gray" stroke="black" cx="636.06" cy="-18" rx="42.29" ry="18"/>
<text text-anchor="middle" x="636.06" y="-15.8" font-family="Times,serif" font-size="9.00">GetSubGoal!**</text>
</g>
<!-- Fallback**&#45;&gt;GetSubGoal!** -->
<g id="edge14" class="edge">
<title>Fallback**&#45;&gt;GetSubGoal!**</title>
<path fill="none" stroke="black" d="M545.66,-75.5C562.45,-65.01 585.98,-50.3 604.83,-38.52"/>
<polygon fill="black" stroke="black" points="606.76,-41.44 613.38,-33.18 603.05,-35.51 606.76,-41.44"/>
</g>
<!-- MoveTo! -->
<g id="node17" class="node">
<title>MoveTo!</title>
<ellipse fill="gray" stroke="black" cx="725.06" cy="-18" rx="28.74" ry="18"/>
<text text-anchor="middle" x="725.06" y="-15.8" font-family="Times,serif" font-size="9.00">MoveTo!</text>
</g>
<!-- Fallback***&#45;&gt;MoveTo! -->
<g id="edge16" class="edge">
<title>Fallback***&#45;&gt;MoveTo!</title>
<path fill="none" stroke="black" d="M828.18,-75.83C807.43,-64.4 777.29,-47.78 754.95,-35.47"/>
<polygon fill="black" stroke="black" points="756.35,-32.25 745.9,-30.48 752.97,-38.38 756.35,-32.25"/>
</g>
<!-- LkClose? -->
<g id="node18" class="node">
<title>LkClose?</title>
<ellipse fill="gray" stroke="black" cx="801.06" cy="-18" rx="28.74" ry="18"/>
<text text-anchor="middle" x="801.06" y="-15.8" font-family="Times,serif" font-size="9.00">LkClose?</text>
</g>
<!-- Fallback***&#45;&gt;LkClose? -->
<g id="edge17" class="edge">
<title>Fallback***&#45;&gt;LkClose?</title>
<path fill="none" stroke="black" d="M839.46,-71.7C833.13,-63.02 825.37,-52.37 818.49,-42.92"/>
<polygon fill="black" stroke="black" points="821.2,-40.69 812.48,-34.67 815.54,-44.81 821.2,-40.69"/>
</g>
<!-- NotReadyForSG?*** -->
<g id="node19" class="node">
<title>NotReadyForSG?***</title>
<ellipse fill="gray" stroke="black" cx="903.06" cy="-18" rx="54.7" ry="18"/>
<text text-anchor="middle" x="903.06" y="-15.8" font-family="Times,serif" font-size="9.00">NotReadyForSG?***</text>
</g>
<!-- Fallback***&#45;&gt;NotReadyForSG?*** -->
<g id="edge18" class="edge">
<title>Fallback***&#45;&gt;NotReadyForSG?***</title>
<path fill="none" stroke="black" d="M864.67,-71.7C870.81,-63.27 878.31,-52.97 885.04,-43.73"/>
<polygon fill="black" stroke="black" points="887.89,-45.77 890.95,-35.62 882.24,-41.64 887.89,-45.77"/>
</g>
<!-- GetSubGoal!*** -->
<g id="node20" class="node">
<title>GetSubGoal!***</title>
<ellipse fill="gray" stroke="black" cx="1020.06" cy="-18" rx="44.41" ry="18"/>
<text text-anchor="middle" x="1020.06" y="-15.8" font-family="Times,serif" font-size="9.00">GetSubGoal!***</text>
</g>
<!-- Fallback***&#45;&gt;GetSubGoal!*** -->
<g id="edge19" class="edge">
<title>Fallback***&#45;&gt;GetSubGoal!***</title>
<path fill="none" stroke="black" d="M879.43,-77.6C906.98,-66.12 949.75,-48.3 980.9,-35.32"/>
<polygon fill="black" stroke="black" points="982.27,-38.54 990.16,-31.46 979.58,-32.08 982.27,-38.54"/>
</g>
<!-- CompLkGraph! -->
<g id="node21" class="node">
<title>CompLkGraph!</title>
<ellipse fill="gray" stroke="black" cx="1125.06" cy="-18" rx="42.95" ry="18"/>
<text text-anchor="middle" x="1125.06" y="-15.8" font-family="Times,serif" font-size="9.00">CompLkGraph!</text>
</g>
<!-- Fallback***&#45;&gt;CompLkGraph! -->
<g id="edge20" class="edge">
<title>Fallback***&#45;&gt;CompLkGraph!</title>
<path fill="none" stroke="black" d="M880.06,-77.89C885.95,-75.77 892.17,-73.68 898.06,-72 974.41,-50.17 996.31,-56.37 1073.06,-36 1076.42,-35.11 1079.89,-34.12 1083.35,-33.09"/>
<polygon fill="black" stroke="black" points="1084.54,-36.39 1093.06,-30.09 1082.47,-29.7 1084.54,-36.39"/>
</g>
<!-- NotReadyForSG?**** -->
<g id="node22" class="node">
<title>NotReadyForSG?****</title>
<ellipse fill="gray" stroke="black" cx="1243.06" cy="-18" rx="57.32" ry="18"/>
<text text-anchor="middle" x="1243.06" y="-15.8" font-family="Times,serif" font-size="9.00">NotReadyForSG?****</text>
</g>
<!-- Fallback***&#45;&gt;NotReadyForSG?**** -->
<g id="edge21" class="edge">
<title>Fallback***&#45;&gt;NotReadyForSG?****</title>
<path fill="none" stroke="black" d="M879.97,-77.55C885.87,-75.45 892.11,-73.46 898.06,-72 1019.47,-42.14 1054.29,-59.64 1177.06,-36 1181.82,-35.08 1186.75,-34.02 1191.67,-32.89"/>
<polygon fill="black" stroke="black" points="1192.79,-36.22 1201.7,-30.49 1191.16,-29.42 1192.79,-36.22"/>
</g>
</g>
</svg>
