<?xml version="1.0" encoding="UTF-8" standalone="no"?>
<!DOCTYPE svg PUBLIC "-//W3C//DTD SVG 1.1//EN"
 "http://www.w3.org/Graphics/SVG/1.1/DTD/svg11.dtd">
<!-- Generated by graphviz version 2.43.0 (0)
 -->
<!-- Title: pastafarianism Pages: 1 -->
<svg width="344pt" height="116pt"
 viewBox="0.00 0.00 344.31 116.00" xmlns="http://www.w3.org/2000/svg" xmlns:xlink="http://www.w3.org/1999/xlink">
<g id="graph0" class="graph" transform="scale(1 1) rotate(0) translate(4 112)">
<title>pastafarianism</title>
<polygon fill="white" stroke="transparent" points="-4,4 -4,-112 340.31,-112 340.31,4 -4,4"/>
<!-- Sequence -->
<g id="node1" class="node">
<title>Sequence</title>
<polygon fill="cyan" stroke="black" points="167.49,-82.54 167.49,-97.46 149.05,-108 122.95,-108 104.51,-97.46 104.51,-82.54 122.95,-72 149.05,-72 167.49,-82.54"/>
<text text-anchor="middle" x="136" y="-87.8" font-family="Times,serif" font-size="9.00">Sequence</text>
</g>
<!-- pick 0! -->
<g id="node2" class="node">
<title>pick 0!</title>
<ellipse fill="gray" stroke="black" cx="27" cy="-18" rx="27" ry="18"/>
<text text-anchor="middle" x="27" y="-15.8" font-family="Times,serif" font-size="9.00">pick 0!</text>
</g>
<!-- Sequence&#45;&gt;pick 0! -->
<g id="edge1" class="edge">
<title>Sequence&#45;&gt;pick 0!</title>
<path fill="none" stroke="black" d="M115.75,-76C98.43,-64.87 73.33,-48.75 54.24,-36.5"/>
<polygon fill="black" stroke="black" points="55.99,-33.46 45.68,-31 52.21,-39.35 55.99,-33.46"/>
</g>
<!-- pick 0!* -->
<g id="node3" class="node">
<title>pick 0!*</title>
<ellipse fill="gray" stroke="black" cx="99" cy="-18" rx="27" ry="18"/>
<text text-anchor="middle" x="99" y="-15.8" font-family="Times,serif" font-size="9.00">pick 0!*</text>
</g>
<!-- Sequence&#45;&gt;pick 0!* -->
<g id="edge2" class="edge">
<title>Sequence&#45;&gt;pick 0!*</title>
<path fill="none" stroke="black" d="M126.85,-71.7C122.47,-63.4 117.14,-53.31 112.31,-44.19"/>
<polygon fill="black" stroke="black" points="115.3,-42.35 107.53,-35.14 109.11,-45.62 115.3,-42.35"/>
</g>
<!-- pick 0!** -->
<g id="node4" class="node">
<title>pick 0!**</title>
<ellipse fill="gray" stroke="black" cx="173" cy="-18" rx="28.74" ry="18"/>
<text text-anchor="middle" x="173" y="-15.8" font-family="Times,serif" font-size="9.00">pick 0!**</text>
</g>
<!-- Sequence&#45;&gt;pick 0!** -->
<g id="edge3" class="edge">
<title>Sequence&#45;&gt;pick 0!**</title>
<path fill="none" stroke="black" d="M145.15,-71.7C149.47,-63.52 154.71,-53.6 159.48,-44.58"/>
<polygon fill="black" stroke="black" points="162.64,-46.1 164.21,-35.62 156.45,-42.83 162.64,-46.1"/>
</g>
<!-- place at (0.0, 0.05, 0.0)! -->
<g id="node5" class="node">
<title>place at (0.0, 0.05, 0.0)!</title>
<ellipse fill="gray" stroke="black" cx="278" cy="-18" rx="58.13" ry="18"/>
<text text-anchor="middle" x="278" y="-15.8" font-family="Times,serif" font-size="9.00">place at (0.0, 0.05, 0.0)!</text>
</g>
<!-- Sequence&#45;&gt;place at (0.0, 0.05, 0.0)! -->
<g id="edge4" class="edge">
<title>Sequence&#45;&gt;place at (0.0, 0.05, 0.0)!</title>
<path fill="none" stroke="black" d="M159.13,-77.6C180.83,-66.9 213.69,-50.7 239.37,-38.04"/>
<polygon fill="black" stroke="black" points="241.05,-41.12 248.47,-33.56 237.95,-34.84 241.05,-41.12"/>
</g>
</g>
</svg>
