<?xml version="1.0" encoding="UTF-8" standalone="no"?>
<!DOCTYPE svg PUBLIC "-//W3C//DTD SVG 1.1//EN"
 "http://www.w3.org/Graphics/SVG/1.1/DTD/svg11.dtd">
<!-- Generated by graphviz version 2.43.0 (0)
 -->
<!-- Title: pastafarianism Pages: 1 -->
<svg width="814pt" height="188pt"
 viewBox="0.00 0.00 813.51 188.00" xmlns="http://www.w3.org/2000/svg" xmlns:xlink="http://www.w3.org/1999/xlink">
<g id="graph0" class="graph" transform="scale(1 1) rotate(0) translate(4 184)">
<title>pastafarianism</title>
<polygon fill="white" stroke="transparent" points="-4,4 -4,-184 809.51,-184 809.51,4 -4,4"/>
<!-- Fallback -->
<g id="node1" class="node">
<title>Fallback</title>
<polygon fill="cyan" stroke="black" points="507.24,-154.54 507.24,-169.46 490.11,-180 465.89,-180 448.76,-169.46 448.76,-154.54 465.89,-144 490.11,-144 507.24,-154.54"/>
<text text-anchor="middle" x="478" y="-159.8" font-family="Times,serif" font-size="9.00">Fallback</text>
</g>
<!-- Sequence -->
<g id="node2" class="node">
<title>Sequence</title>
<polygon fill="cyan" stroke="black" points="206.49,-82.54 206.49,-97.46 188.05,-108 161.95,-108 143.51,-97.46 143.51,-82.54 161.95,-72 188.05,-72 206.49,-82.54"/>
<text text-anchor="middle" x="175" y="-87.8" font-family="Times,serif" font-size="9.00">Sequence</text>
</g>
<!-- Fallback&#45;&gt;Sequence -->
<g id="edge1" class="edge">
<title>Fallback&#45;&gt;Sequence</title>
<path fill="none" stroke="black" d="M448.72,-157.08C399.64,-150.08 297.98,-133.7 215,-108 212.75,-107.3 210.45,-106.52 208.16,-105.69"/>
<polygon fill="black" stroke="black" points="209.41,-102.42 198.82,-102.05 206.87,-108.95 209.41,-102.42"/>
</g>
<!-- place at (0.0, 0.05, 0.0)!* -->
<g id="node8" class="node">
<title>place at (0.0, 0.05, 0.0)!*</title>
<ellipse fill="gray" stroke="black" cx="285" cy="-90" rx="61.4" ry="18"/>
<text text-anchor="middle" x="285" y="-87.8" font-family="Times,serif" font-size="9.00">place at (0.0, 0.05, 0.0)!*</text>
</g>
<!-- Fallback&#45;&gt;place at (0.0, 0.05, 0.0)!* -->
<g id="edge7" class="edge">
<title>Fallback&#45;&gt;place at (0.0, 0.05, 0.0)!*</title>
<path fill="none" stroke="black" d="M452.77,-151.85C422.19,-140.76 370.04,-121.84 331.99,-108.04"/>
<polygon fill="black" stroke="black" points="332.74,-104.59 322.15,-104.47 330.36,-111.17 332.74,-104.59"/>
</g>
<!-- pick 0!** -->
<g id="node9" class="node">
<title>pick 0!**</title>
<ellipse fill="gray" stroke="black" cx="393" cy="-90" rx="28.74" ry="18"/>
<text text-anchor="middle" x="393" y="-87.8" font-family="Times,serif" font-size="9.00">pick 0!**</text>
</g>
<!-- Fallback&#45;&gt;pick 0!** -->
<g id="edge8" class="edge">
<title>Fallback&#45;&gt;pick 0!**</title>
<path fill="none" stroke="black" d="M460.8,-146.83C448.39,-136.62 431.46,-122.67 417.62,-111.27"/>
<polygon fill="black" stroke="black" points="419.83,-108.56 409.89,-104.91 415.38,-113.96 419.83,-108.56"/>
</g>
<!-- apply force 1! -->
<g id="node10" class="node">
<title>apply force 1!</title>
<ellipse fill="gray" stroke="black" cx="478" cy="-90" rx="38.21" ry="18"/>
<text text-anchor="middle" x="478" y="-87.8" font-family="Times,serif" font-size="9.00">apply force 1!</text>
</g>
<!-- Fallback&#45;&gt;apply force 1! -->
<g id="edge9" class="edge">
<title>Fallback&#45;&gt;apply force 1!</title>
<path fill="none" stroke="black" d="M478,-143.7C478,-135.98 478,-126.71 478,-118.11"/>
<polygon fill="black" stroke="black" points="481.5,-118.1 478,-108.1 474.5,-118.1 481.5,-118.1"/>
</g>
<!-- 1 on 0? -->
<g id="node11" class="node">
<title>1 on 0?</title>
<ellipse fill="gray" stroke="black" cx="561" cy="-90" rx="27" ry="18"/>
<text text-anchor="middle" x="561" y="-87.8" font-family="Times,serif" font-size="9.00">1 on 0?</text>
</g>
<!-- Fallback&#45;&gt;1 on 0? -->
<g id="edge10" class="edge">
<title>Fallback&#45;&gt;1 on 0?</title>
<path fill="none" stroke="black" d="M494.8,-146.83C506.88,-136.64 523.35,-122.75 536.84,-111.37"/>
<polygon fill="black" stroke="black" points="539.41,-113.79 544.79,-104.67 534.89,-108.44 539.41,-113.79"/>
</g>
<!-- 0 on 1? -->
<g id="node12" class="node">
<title>0 on 1?</title>
<ellipse fill="gray" stroke="black" cx="633" cy="-90" rx="27" ry="18"/>
<text text-anchor="middle" x="633" y="-87.8" font-family="Times,serif" font-size="9.00">0 on 1?</text>
</g>
<!-- Fallback&#45;&gt;0 on 1? -->
<g id="edge11" class="edge">
<title>Fallback&#45;&gt;0 on 1?</title>
<path fill="none" stroke="black" d="M501.33,-150.79C525.37,-140.23 563.9,-123.18 597,-108 598.79,-107.18 600.63,-106.33 602.48,-105.47"/>
<polygon fill="black" stroke="black" points="604.14,-108.56 611.72,-101.15 601.18,-102.22 604.14,-108.56"/>
</g>
<!-- place at (0.0, 0.05, 0.0)!** -->
<g id="node13" class="node">
<title>place at (0.0, 0.05, 0.0)!**</title>
<ellipse fill="gray" stroke="black" cx="742" cy="-90" rx="63.52" ry="18"/>
<text text-anchor="middle" x="742" y="-87.8" font-family="Times,serif" font-size="9.00">place at (0.0, 0.05, 0.0)!**</text>
</g>
<!-- Fallback&#45;&gt;place at (0.0, 0.05, 0.0)!** -->
<g id="edge12" class="edge">
<title>Fallback&#45;&gt;place at (0.0, 0.05, 0.0)!**</title>
<path fill="none" stroke="black" d="M506.25,-153.51C549.33,-142.09 632.23,-120.11 687.34,-105.49"/>
<polygon fill="black" stroke="black" points="688.52,-108.8 697.29,-102.85 686.73,-102.03 688.52,-108.8"/>
</g>
<!-- pick 0! -->
<g id="node3" class="node">
<title>pick 0!</title>
<ellipse fill="gray" stroke="black" cx="27" cy="-18" rx="27" ry="18"/>
<text text-anchor="middle" x="27" y="-15.8" font-family="Times,serif" font-size="9.00">pick 0!</text>
</g>
<!-- Sequence&#45;&gt;pick 0! -->
<g id="edge2" class="edge">
<title>Sequence&#45;&gt;pick 0!</title>
<path fill="none" stroke="black" d="M151.55,-77.91C126.18,-65.91 85.61,-46.72 57.71,-33.53"/>
<polygon fill="black" stroke="black" points="58.96,-30.24 48.42,-29.13 55.96,-36.57 58.96,-30.24"/>
</g>
<!-- picked 2? -->
<g id="node4" class="node">
<title>picked 2?</title>
<ellipse fill="gray" stroke="black" cx="101" cy="-18" rx="28.74" ry="18"/>
<text text-anchor="middle" x="101" y="-15.8" font-family="Times,serif" font-size="9.00">picked 2?</text>
</g>
<!-- Sequence&#45;&gt;picked 2? -->
<g id="edge3" class="edge">
<title>Sequence&#45;&gt;picked 2?</title>
<path fill="none" stroke="black" d="M158.58,-73.46C148.34,-63.78 135.01,-51.17 123.76,-40.53"/>
<polygon fill="black" stroke="black" points="126.04,-37.87 116.37,-33.54 121.23,-42.95 126.04,-37.87"/>
</g>
<!-- pick 0!* -->
<g id="node5" class="node">
<title>pick 0!*</title>
<ellipse fill="gray" stroke="black" cx="175" cy="-18" rx="27" ry="18"/>
<text text-anchor="middle" x="175" y="-15.8" font-family="Times,serif" font-size="9.00">pick 0!*</text>
</g>
<!-- Sequence&#45;&gt;pick 0!* -->
<g id="edge4" class="edge">
<title>Sequence&#45;&gt;pick 0!*</title>
<path fill="none" stroke="black" d="M175,-71.7C175,-63.98 175,-54.71 175,-46.11"/>
<polygon fill="black" stroke="black" points="178.5,-46.1 175,-36.1 171.5,-46.1 178.5,-46.1"/>
</g>
<!-- place at (0.0, 0.05, 0.0)! -->
<g id="node6" class="node">
<title>place at (0.0, 0.05, 0.0)!</title>
<ellipse fill="gray" stroke="black" cx="278" cy="-18" rx="58.13" ry="18"/>
<text text-anchor="middle" x="278" y="-15.8" font-family="Times,serif" font-size="9.00">place at (0.0, 0.05, 0.0)!</text>
</g>
<!-- Sequence&#45;&gt;place at (0.0, 0.05, 0.0)! -->
<g id="edge5" class="edge">
<title>Sequence&#45;&gt;place at (0.0, 0.05, 0.0)!</title>
<path fill="none" stroke="black" d="M194.86,-75.5C209.49,-65.56 229.7,-51.83 246.52,-40.39"/>
<polygon fill="black" stroke="black" points="248.66,-43.17 254.96,-34.65 244.73,-37.38 248.66,-43.17"/>
</g>
<!-- 1 at pos (0.0, 0.05, 0.0192)? -->
<g id="node7" class="node">
<title>1 at pos (0.0, 0.05, 0.0192)?</title>
<ellipse fill="gray" stroke="black" cx="422" cy="-18" rx="67.6" ry="18"/>
<text text-anchor="middle" x="422" y="-15.8" font-family="Times,serif" font-size="9.00">1 at pos (0.0, 0.05, 0.0192)?</text>
</g>
<!-- Sequence&#45;&gt;1 at pos (0.0, 0.05, 0.0192)? -->
<g id="edge6" class="edge">
<title>Sequence&#45;&gt;1 at pos (0.0, 0.05, 0.0192)?</title>
<path fill="none" stroke="black" d="M198.89,-78.15C204.14,-75.97 209.71,-73.79 215,-72 242.18,-62.8 312.09,-45.37 363.17,-33.01"/>
<polygon fill="black" stroke="black" points="364.22,-36.36 373.12,-30.61 362.57,-29.55 364.22,-36.36"/>
</g>
</g>
</svg>
