<?xml version="1.0" encoding="UTF-8" standalone="no"?>
<!DOCTYPE svg PUBLIC "-//W3C//DTD SVG 1.1//EN"
 "http://www.w3.org/Graphics/SVG/1.1/DTD/svg11.dtd">
<!-- Generated by graphviz version 2.43.0 (0)
 -->
<!-- Title: pastafarianism Pages: 1 -->
<svg width="278pt" height="260pt"
 viewBox="0.00 0.00 278.31 260.00" xmlns="http://www.w3.org/2000/svg" xmlns:xlink="http://www.w3.org/1999/xlink">
<g id="graph0" class="graph" transform="scale(1 1) rotate(0) translate(4 256)">
<title>pastafarianism</title>
<polygon fill="white" stroke="transparent" points="-4,4 -4,-256 274.31,-256 274.31,4 -4,4"/>
<!-- Fallback -->
<g id="node1" class="node">
<title>Fallback</title>
<polygon fill="cyan" stroke="black" points="133.24,-226.54 133.24,-241.46 116.11,-252 91.89,-252 74.76,-241.46 74.76,-226.54 91.89,-216 116.11,-216 133.24,-226.54"/>
<text text-anchor="middle" x="104" y="-231.8" font-family="Times,serif" font-size="9.00">Fallback</text>
</g>
<!-- Sequence -->
<g id="node2" class="node">
<title>Sequence</title>
<polygon fill="cyan" stroke="black" points="135.49,-154.54 135.49,-169.46 117.05,-180 90.95,-180 72.51,-169.46 72.51,-154.54 90.95,-144 117.05,-144 135.49,-154.54"/>
<text text-anchor="middle" x="104" y="-159.8" font-family="Times,serif" font-size="9.00">Sequence</text>
</g>
<!-- Fallback&#45;&gt;Sequence -->
<g id="edge1" class="edge">
<title>Fallback&#45;&gt;Sequence</title>
<path fill="none" stroke="black" d="M104,-215.7C104,-207.98 104,-198.71 104,-190.11"/>
<polygon fill="black" stroke="black" points="107.5,-190.1 104,-180.1 100.5,-190.1 107.5,-190.1"/>
</g>
<!-- pick 0! -->
<g id="node3" class="node">
<title>pick 0!</title>
<ellipse fill="gray" stroke="black" cx="27" cy="-90" rx="27" ry="18"/>
<text text-anchor="middle" x="27" y="-87.8" font-family="Times,serif" font-size="9.00">pick 0!</text>
</g>
<!-- Sequence&#45;&gt;pick 0! -->
<g id="edge2" class="edge">
<title>Sequence&#45;&gt;pick 0!</title>
<path fill="none" stroke="black" d="M87.29,-145.81C76.33,-135.85 61.87,-122.7 49.85,-111.77"/>
<polygon fill="black" stroke="black" points="52.12,-109.11 42.37,-104.97 47.41,-114.29 52.12,-109.11"/>
</g>
<!-- Fallback* -->
<g id="node4" class="node">
<title>Fallback*</title>
<polygon fill="cyan" stroke="black" points="135.74,-82.54 135.74,-97.46 117.15,-108 90.85,-108 72.26,-97.46 72.26,-82.54 90.85,-72 117.15,-72 135.74,-82.54"/>
<text text-anchor="middle" x="104" y="-87.8" font-family="Times,serif" font-size="9.00">Fallback*</text>
</g>
<!-- Sequence&#45;&gt;Fallback* -->
<g id="edge3" class="edge">
<title>Sequence&#45;&gt;Fallback*</title>
<path fill="none" stroke="black" d="M104,-143.7C104,-135.98 104,-126.71 104,-118.11"/>
<polygon fill="black" stroke="black" points="107.5,-118.1 104,-108.1 100.5,-118.1 107.5,-118.1"/>
</g>
<!-- place at (0.0, 0.05, 0.0)! -->
<g id="node7" class="node">
<title>place at (0.0, 0.05, 0.0)!</title>
<ellipse fill="gray" stroke="black" cx="212" cy="-90" rx="58.13" ry="18"/>
<text text-anchor="middle" x="212" y="-87.8" font-family="Times,serif" font-size="9.00">place at (0.0, 0.05, 0.0)!</text>
</g>
<!-- Sequence&#45;&gt;place at (0.0, 0.05, 0.0)! -->
<g id="edge6" class="edge">
<title>Sequence&#45;&gt;place at (0.0, 0.05, 0.0)!</title>
<path fill="none" stroke="black" d="M124.06,-148C139.58,-137.94 161.38,-123.81 179.4,-112.13"/>
<polygon fill="black" stroke="black" points="181.41,-115 187.89,-106.62 177.6,-109.13 181.41,-115"/>
</g>
<!-- pick 1! -->
<g id="node5" class="node">
<title>pick 1!</title>
<ellipse fill="gray" stroke="black" cx="68" cy="-18" rx="27" ry="18"/>
<text text-anchor="middle" x="68" y="-15.8" font-family="Times,serif" font-size="9.00">pick 1!</text>
</g>
<!-- Fallback*&#45;&gt;pick 1! -->
<g id="edge4" class="edge">
<title>Fallback*&#45;&gt;pick 1!</title>
<path fill="none" stroke="black" d="M95.1,-71.7C90.84,-63.4 85.65,-53.31 80.95,-44.19"/>
<polygon fill="black" stroke="black" points="83.99,-42.44 76.3,-35.14 77.76,-45.64 83.99,-42.44"/>
</g>
<!-- pick 0!* -->
<g id="node6" class="node">
<title>pick 0!*</title>
<ellipse fill="gray" stroke="black" cx="140" cy="-18" rx="27" ry="18"/>
<text text-anchor="middle" x="140" y="-15.8" font-family="Times,serif" font-size="9.00">pick 0!*</text>
</g>
<!-- Fallback*&#45;&gt;pick 0!* -->
<g id="edge5" class="edge">
<title>Fallback*&#45;&gt;pick 0!*</title>
<path fill="none" stroke="black" d="M112.9,-71.7C117.16,-63.4 122.35,-53.31 127.05,-44.19"/>
<polygon fill="black" stroke="black" points="130.24,-45.64 131.7,-35.14 124.01,-42.44 130.24,-45.64"/>
</g>
</g>
</svg>
