<?xml version="1.0" encoding="UTF-8" standalone="no"?>
<!DOCTYPE svg PUBLIC "-//W3C//DTD SVG 1.1//EN"
 "http://www.w3.org/Graphics/SVG/1.1/DTD/svg11.dtd">
<!-- Generated by graphviz version 2.43.0 (0)
 -->
<!-- Title: pastafarianism Pages: 1 -->
<svg width="342pt" height="188pt"
 viewBox="0.00 0.00 341.51 188.00" xmlns="http://www.w3.org/2000/svg" xmlns:xlink="http://www.w3.org/1999/xlink">
<g id="graph0" class="graph" transform="scale(1 1) rotate(0) translate(4 184)">
<title>pastafarianism</title>
<polygon fill="white" stroke="transparent" points="-4,4 -4,-184 337.51,-184 337.51,4 -4,4"/>
<!-- Fallback -->
<g id="node1" class="node">
<title>Fallback</title>
<polygon fill="cyan" stroke="black" points="195.56,-154.54 195.56,-169.46 178.43,-180 154.2,-180 137.07,-169.46 137.07,-154.54 154.2,-144 178.43,-144 195.56,-154.54"/>
<text text-anchor="middle" x="166.31" y="-159.8" font-family="Times,serif" font-size="9.00">Fallback</text>
</g>
<!-- place at (0.0, 0.05, 0.0)! -->
<g id="node2" class="node">
<title>place at (0.0, 0.05, 0.0)!</title>
<ellipse fill="gray" stroke="black" cx="58.31" cy="-90" rx="58.13" ry="18"/>
<text text-anchor="middle" x="58.31" y="-87.8" font-family="Times,serif" font-size="9.00">place at (0.0, 0.05, 0.0)!</text>
</g>
<!-- Fallback&#45;&gt;place at (0.0, 0.05, 0.0)! -->
<g id="edge1" class="edge">
<title>Fallback&#45;&gt;place at (0.0, 0.05, 0.0)!</title>
<path fill="none" stroke="black" d="M146.75,-148.32C131.19,-138.23 109.07,-123.9 90.84,-112.08"/>
<polygon fill="black" stroke="black" points="92.55,-109.02 82.25,-106.52 88.74,-114.89 92.55,-109.02"/>
</g>
<!-- Sequence -->
<g id="node3" class="node">
<title>Sequence</title>
<polygon fill="cyan" stroke="black" points="197.81,-82.54 197.81,-97.46 179.36,-108 153.27,-108 134.82,-97.46 134.82,-82.54 153.27,-72 179.36,-72 197.81,-82.54"/>
<text text-anchor="middle" x="166.31" y="-87.8" font-family="Times,serif" font-size="9.00">Sequence</text>
</g>
<!-- Fallback&#45;&gt;Sequence -->
<g id="edge2" class="edge">
<title>Fallback&#45;&gt;Sequence</title>
<path fill="none" stroke="black" d="M166.31,-143.7C166.31,-135.98 166.31,-126.71 166.31,-118.11"/>
<polygon fill="black" stroke="black" points="169.81,-118.1 166.31,-108.1 162.81,-118.1 169.81,-118.1"/>
</g>
<!-- apply force 0! -->
<g id="node7" class="node">
<title>apply force 0!</title>
<ellipse fill="gray" stroke="black" cx="253.31" cy="-90" rx="38.21" ry="18"/>
<text text-anchor="middle" x="253.31" y="-87.8" font-family="Times,serif" font-size="9.00">apply force 0!</text>
</g>
<!-- Fallback&#45;&gt;apply force 0! -->
<g id="edge6" class="edge">
<title>Fallback&#45;&gt;apply force 0!</title>
<path fill="none" stroke="black" d="M183.92,-146.83C196.29,-136.88 213.05,-123.4 227,-112.17"/>
<polygon fill="black" stroke="black" points="229.23,-114.87 234.83,-105.87 224.85,-109.41 229.23,-114.87"/>
</g>
<!-- pick 0! -->
<g id="node4" class="node">
<title>pick 0!</title>
<ellipse fill="gray" stroke="black" cx="94.31" cy="-18" rx="27" ry="18"/>
<text text-anchor="middle" x="94.31" y="-15.8" font-family="Times,serif" font-size="9.00">pick 0!</text>
</g>
<!-- Sequence&#45;&gt;pick 0! -->
<g id="edge3" class="edge">
<title>Sequence&#45;&gt;pick 0!</title>
<path fill="none" stroke="black" d="M150.33,-73.46C140.37,-63.78 127.41,-51.17 116.46,-40.53"/>
<polygon fill="black" stroke="black" points="118.87,-38 109.26,-33.54 113.99,-43.02 118.87,-38"/>
</g>
<!-- pick 0!* -->
<g id="node5" class="node">
<title>pick 0!*</title>
<ellipse fill="gray" stroke="black" cx="166.31" cy="-18" rx="27" ry="18"/>
<text text-anchor="middle" x="166.31" y="-15.8" font-family="Times,serif" font-size="9.00">pick 0!*</text>
</g>
<!-- Sequence&#45;&gt;pick 0!* -->
<g id="edge4" class="edge">
<title>Sequence&#45;&gt;pick 0!*</title>
<path fill="none" stroke="black" d="M166.31,-71.7C166.31,-63.98 166.31,-54.71 166.31,-46.11"/>
<polygon fill="black" stroke="black" points="169.81,-46.1 166.31,-36.1 162.81,-46.1 169.81,-46.1"/>
</g>
<!-- place at (0.0, 0.05, 0.0)!* -->
<g id="node6" class="node">
<title>place at (0.0, 0.05, 0.0)!*</title>
<ellipse fill="gray" stroke="black" cx="272.31" cy="-18" rx="61.4" ry="18"/>
<text text-anchor="middle" x="272.31" y="-15.8" font-family="Times,serif" font-size="9.00">place at (0.0, 0.05, 0.0)!*</text>
</g>
<!-- Sequence&#45;&gt;place at (0.0, 0.05, 0.0)!* -->
<g id="edge5" class="edge">
<title>Sequence&#45;&gt;place at (0.0, 0.05, 0.0)!*</title>
<path fill="none" stroke="black" d="M186.25,-75.83C201.26,-65.92 222.17,-52.11 239.62,-40.59"/>
<polygon fill="black" stroke="black" points="241.97,-43.23 248.38,-34.8 238.11,-37.39 241.97,-43.23"/>
</g>
</g>
</svg>
