<?xml version="1.0" encoding="UTF-8" standalone="no"?>
<!DOCTYPE svg PUBLIC "-//W3C//DTD SVG 1.1//EN"
 "http://www.w3.org/Graphics/SVG/1.1/DTD/svg11.dtd">
<!-- Generated by graphviz version 2.43.0 (0)
 -->
<!-- Title: pastafarianism Pages: 1 -->
<svg width="1054pt" height="188pt"
 viewBox="0.00 0.00 1053.90 188.00" xmlns="http://www.w3.org/2000/svg" xmlns:xlink="http://www.w3.org/1999/xlink">
<g id="graph0" class="graph" transform="scale(1 1) rotate(0) translate(4 184)">
<title>pastafarianism</title>
<polygon fill="white" stroke="transparent" points="-4,4 -4,-184 1049.9,-184 1049.9,4 -4,4"/>
<!-- Fallback -->
<g id="node1" class="node">
<title>Fallback</title>
<polygon fill="cyan" stroke="black" points="454.24,-154.54 454.24,-169.46 437.11,-180 412.89,-180 395.76,-169.46 395.76,-154.54 412.89,-144 437.11,-144 454.24,-154.54"/>
<text text-anchor="middle" x="425" y="-159.8" font-family="Times,serif" font-size="9.00">Fallback</text>
</g>
<!-- 0 on 2? -->
<g id="node2" class="node">
<title>0 on 2?</title>
<ellipse fill="gray" stroke="black" cx="27" cy="-90" rx="27" ry="18"/>
<text text-anchor="middle" x="27" y="-87.8" font-family="Times,serif" font-size="9.00">0 on 2?</text>
</g>
<!-- Fallback&#45;&gt;0 on 2? -->
<g id="edge1" class="edge">
<title>Fallback&#45;&gt;0 on 2?</title>
<path fill="none" stroke="black" d="M395.74,-159.64C333.34,-156.12 183.09,-144.27 63,-108 61.06,-107.42 59.1,-106.74 57.14,-106.01"/>
<polygon fill="black" stroke="black" points="58.1,-102.62 47.53,-101.97 55.39,-109.07 58.1,-102.62"/>
</g>
<!-- place at (0.0, 0.05, 0.0)! -->
<g id="node3" class="node">
<title>place at (0.0, 0.05, 0.0)!</title>
<ellipse fill="gray" stroke="black" cx="130" cy="-90" rx="58.13" ry="18"/>
<text text-anchor="middle" x="130" y="-87.8" font-family="Times,serif" font-size="9.00">place at (0.0, 0.05, 0.0)!</text>
</g>
<!-- Fallback&#45;&gt;place at (0.0, 0.05, 0.0)! -->
<g id="edge2" class="edge">
<title>Fallback&#45;&gt;place at (0.0, 0.05, 0.0)!</title>
<path fill="none" stroke="black" d="M395.94,-154.37C352.73,-144.47 269,-125.16 198,-108 193.36,-106.88 188.56,-105.7 183.73,-104.52"/>
<polygon fill="black" stroke="black" points="184.42,-101.08 173.87,-102.07 182.74,-107.87 184.42,-101.08"/>
</g>
<!-- Sequence -->
<g id="node4" class="node">
<title>Sequence</title>
<polygon fill="cyan" stroke="black" points="269.49,-82.54 269.49,-97.46 251.05,-108 224.95,-108 206.51,-97.46 206.51,-82.54 224.95,-72 251.05,-72 269.49,-82.54"/>
<text text-anchor="middle" x="238" y="-87.8" font-family="Times,serif" font-size="9.00">Sequence</text>
</g>
<!-- Fallback&#45;&gt;Sequence -->
<g id="edge3" class="edge">
<title>Fallback&#45;&gt;Sequence</title>
<path fill="none" stroke="black" d="M399.34,-152.24C369.88,-142.06 320.17,-124.55 278,-108 275.95,-107.19 273.84,-106.35 271.72,-105.49"/>
<polygon fill="black" stroke="black" points="273.03,-102.24 262.45,-101.65 270.35,-108.71 273.03,-102.24"/>
</g>
<!-- 2 on 1? -->
<g id="node9" class="node">
<title>2 on 1?</title>
<ellipse fill="gray" stroke="black" cx="314" cy="-90" rx="27" ry="18"/>
<text text-anchor="middle" x="314" y="-87.8" font-family="Times,serif" font-size="9.00">2 on 1?</text>
</g>
<!-- Fallback&#45;&gt;2 on 1? -->
<g id="edge8" class="edge">
<title>Fallback&#45;&gt;2 on 1?</title>
<path fill="none" stroke="black" d="M405.16,-148.49C387.42,-137.3 361.26,-120.8 341.5,-108.34"/>
<polygon fill="black" stroke="black" points="343.26,-105.31 332.93,-102.94 339.52,-111.23 343.26,-105.31"/>
</g>
<!-- place at (0.0, 0.05, 0.0)!*** -->
<g id="node10" class="node">
<title>place at (0.0, 0.05, 0.0)!***</title>
<ellipse fill="gray" stroke="black" cx="425" cy="-90" rx="66.29" ry="18"/>
<text text-anchor="middle" x="425" y="-87.8" font-family="Times,serif" font-size="9.00">place at (0.0, 0.05, 0.0)!***</text>
</g>
<!-- Fallback&#45;&gt;place at (0.0, 0.05, 0.0)!*** -->
<g id="edge9" class="edge">
<title>Fallback&#45;&gt;place at (0.0, 0.05, 0.0)!***</title>
<path fill="none" stroke="black" d="M425,-143.7C425,-135.98 425,-126.71 425,-118.11"/>
<polygon fill="black" stroke="black" points="428.5,-118.1 425,-108.1 421.5,-118.1 428.5,-118.1"/>
</g>
<!-- place at (0.0, 0.05, 0.0)!**** -->
<g id="node11" class="node">
<title>place at (0.0, 0.05, 0.0)!****</title>
<ellipse fill="gray" stroke="black" cx="578" cy="-90" rx="68.91" ry="18"/>
<text text-anchor="middle" x="578" y="-87.8" font-family="Times,serif" font-size="9.00">place at (0.0, 0.05, 0.0)!****</text>
</g>
<!-- Fallback&#45;&gt;place at (0.0, 0.05, 0.0)!**** -->
<g id="edge10" class="edge">
<title>Fallback&#45;&gt;place at (0.0, 0.05, 0.0)!****</title>
<path fill="none" stroke="black" d="M447.91,-150.52C471.12,-139.9 507.58,-123.22 536,-110.22"/>
<polygon fill="black" stroke="black" points="537.66,-113.31 545.3,-105.96 534.75,-106.94 537.66,-113.31"/>
</g>
<!-- pick 2! -->
<g id="node12" class="node">
<title>pick 2!</title>
<ellipse fill="gray" stroke="black" cx="692" cy="-90" rx="27" ry="18"/>
<text text-anchor="middle" x="692" y="-87.8" font-family="Times,serif" font-size="9.00">pick 2!</text>
</g>
<!-- Fallback&#45;&gt;pick 2! -->
<g id="edge11" class="edge">
<title>Fallback&#45;&gt;pick 2!</title>
<path fill="none" stroke="black" d="M454.37,-156.36C498.81,-148.86 585.43,-132.44 656,-108 657.91,-107.34 659.85,-106.61 661.8,-105.83"/>
<polygon fill="black" stroke="black" points="663.6,-108.86 671.38,-101.67 660.81,-102.44 663.6,-108.86"/>
</g>
<!-- place at (0.0, 0.05, 0.0)!***** -->
<g id="node13" class="node">
<title>place at (0.0, 0.05, 0.0)!*****</title>
<ellipse fill="gray" stroke="black" cx="809" cy="-90" rx="71.68" ry="18"/>
<text text-anchor="middle" x="809" y="-87.8" font-family="Times,serif" font-size="9.00">place at (0.0, 0.05, 0.0)!*****</text>
</g>
<!-- Fallback&#45;&gt;place at (0.0, 0.05, 0.0)!***** -->
<g id="edge12" class="edge">
<title>Fallback&#45;&gt;place at (0.0, 0.05, 0.0)!*****</title>
<path fill="none" stroke="black" d="M454.31,-156.21C508.47,-147.29 627.84,-127.27 728,-108 733.88,-106.87 739.98,-105.66 746.09,-104.42"/>
<polygon fill="black" stroke="black" points="747.24,-107.76 756.33,-102.32 745.83,-100.9 747.24,-107.76"/>
</g>
<!-- place at (0.0, 0.05, 0.0)!****** -->
<g id="node14" class="node">
<title>place at (0.0, 0.05, 0.0)!******</title>
<ellipse fill="gray" stroke="black" cx="972" cy="-90" rx="73.8" ry="18"/>
<text text-anchor="middle" x="972" y="-87.8" font-family="Times,serif" font-size="9.00">place at (0.0, 0.05, 0.0)!******</text>
</g>
<!-- Fallback&#45;&gt;place at (0.0, 0.05, 0.0)!****** -->
<g id="edge13" class="edge">
<title>Fallback&#45;&gt;place at (0.0, 0.05, 0.0)!******</title>
<path fill="none" stroke="black" d="M454.5,-158.58C528.23,-152.31 726.34,-134.24 890,-108 896.22,-107 902.68,-105.86 909.12,-104.64"/>
<polygon fill="black" stroke="black" points="910.05,-108.03 919.2,-102.68 908.71,-101.15 910.05,-108.03"/>
</g>
<!-- pick 0! -->
<g id="node5" class="node">
<title>pick 0!</title>
<ellipse fill="gray" stroke="black" cx="113" cy="-18" rx="27" ry="18"/>
<text text-anchor="middle" x="113" y="-15.8" font-family="Times,serif" font-size="9.00">pick 0!</text>
</g>
<!-- Sequence&#45;&gt;pick 0! -->
<g id="edge4" class="edge">
<title>Sequence&#45;&gt;pick 0!</title>
<path fill="none" stroke="black" d="M216.23,-76.81C195.69,-65.31 164.77,-47.99 142.12,-35.31"/>
<polygon fill="black" stroke="black" points="143.72,-32.19 133.28,-30.36 140.3,-38.3 143.72,-32.19"/>
</g>
<!-- pick 0!* -->
<g id="node6" class="node">
<title>pick 0!*</title>
<ellipse fill="gray" stroke="black" cx="185" cy="-18" rx="27" ry="18"/>
<text text-anchor="middle" x="185" y="-15.8" font-family="Times,serif" font-size="9.00">pick 0!*</text>
</g>
<!-- Sequence&#45;&gt;pick 0!* -->
<g id="edge5" class="edge">
<title>Sequence&#45;&gt;pick 0!*</title>
<path fill="none" stroke="black" d="M224.9,-71.7C218.33,-63.02 210.26,-52.37 203.11,-42.92"/>
<polygon fill="black" stroke="black" points="205.69,-40.53 196.87,-34.67 200.11,-44.76 205.69,-40.53"/>
</g>
<!-- place at (0.0, 0.05, 0.0)!* -->
<g id="node7" class="node">
<title>place at (0.0, 0.05, 0.0)!*</title>
<ellipse fill="gray" stroke="black" cx="291" cy="-18" rx="61.4" ry="18"/>
<text text-anchor="middle" x="291" y="-15.8" font-family="Times,serif" font-size="9.00">place at (0.0, 0.05, 0.0)!*</text>
</g>
<!-- Sequence&#45;&gt;place at (0.0, 0.05, 0.0)!* -->
<g id="edge6" class="edge">
<title>Sequence&#45;&gt;place at (0.0, 0.05, 0.0)!*</title>
<path fill="none" stroke="black" d="M251.1,-71.7C257.48,-63.27 265.28,-52.97 272.27,-43.73"/>
<polygon fill="black" stroke="black" points="275.17,-45.71 278.41,-35.62 269.59,-41.48 275.17,-45.71"/>
</g>
<!-- place at (0.0, 0.05, 0.0)!** -->
<g id="node8" class="node">
<title>place at (0.0, 0.05, 0.0)!**</title>
<ellipse fill="gray" stroke="black" cx="434" cy="-18" rx="63.52" ry="18"/>
<text text-anchor="middle" x="434" y="-15.8" font-family="Times,serif" font-size="9.00">place at (0.0, 0.05, 0.0)!**</text>
</g>
<!-- Sequence&#45;&gt;place at (0.0, 0.05, 0.0)!** -->
<g id="edge7" class="edge">
<title>Sequence&#45;&gt;place at (0.0, 0.05, 0.0)!**</title>
<path fill="none" stroke="black" d="M262.42,-78.28C267.54,-76.13 272.92,-73.94 278,-72 312.96,-58.65 352.94,-45.1 383.67,-35.05"/>
<polygon fill="black" stroke="black" points="384.88,-38.33 393.3,-31.91 382.71,-31.68 384.88,-38.33"/>
</g>
</g>
</svg>
