<?xml version="1.0" encoding="UTF-8" standalone="no"?>
<!DOCTYPE svg PUBLIC "-//W3C//DTD SVG 1.1//EN"
 "http://www.w3.org/Graphics/SVG/1.1/DTD/svg11.dtd">
<!-- Generated by graphviz version 2.43.0 (0)
 -->
<!-- Title: pastafarianism Pages: 1 -->
<svg width="1422pt" height="260pt"
 viewBox="0.00 0.00 1422.01 260.00" xmlns="http://www.w3.org/2000/svg" xmlns:xlink="http://www.w3.org/1999/xlink">
<g id="graph0" class="graph" transform="scale(1 1) rotate(0) translate(4 256)">
<title>pastafarianism</title>
<polygon fill="white" stroke="transparent" points="-4,4 -4,-256 1418.01,-256 1418.01,4 -4,4"/>
<!-- Sequence -->
<g id="node1" class="node">
<title>Sequence</title>
<polygon fill="cyan" stroke="black" points="759.36,-226.54 759.36,-241.46 740.91,-252 714.82,-252 696.37,-241.46 696.37,-226.54 714.82,-216 740.91,-216 759.36,-226.54"/>
<text text-anchor="middle" x="727.87" y="-231.8" font-family="Times,serif" font-size="9.00">Sequence</text>
</g>
<!-- Fallback -->
<g id="node2" class="node">
<title>Fallback</title>
<polygon fill="cyan" stroke="black" points="293.11,-154.54 293.11,-169.46 275.98,-180 251.75,-180 234.62,-169.46 234.62,-154.54 251.75,-144 275.98,-144 293.11,-154.54"/>
<text text-anchor="middle" x="263.87" y="-159.8" font-family="Times,serif" font-size="9.00">Fallback</text>
</g>
<!-- Sequence&#45;&gt;Fallback -->
<g id="edge1" class="edge">
<title>Sequence&#45;&gt;Fallback</title>
<path fill="none" stroke="black" d="M696.34,-228.24C614.23,-215.86 393.89,-182.61 303.44,-168.97"/>
<polygon fill="black" stroke="black" points="303.74,-165.48 293.33,-167.44 302.69,-172.4 303.74,-165.48"/>
</g>
<!-- Fallback* -->
<g id="node11" class="node">
<title>Fallback*</title>
<polygon fill="cyan" stroke="black" points="548.61,-154.54 548.61,-169.46 530.02,-180 503.72,-180 485.13,-169.46 485.13,-154.54 503.72,-144 530.02,-144 548.61,-154.54"/>
<text text-anchor="middle" x="516.87" y="-159.8" font-family="Times,serif" font-size="9.00">Fallback*</text>
</g>
<!-- Sequence&#45;&gt;Fallback* -->
<g id="edge10" class="edge">
<title>Sequence&#45;&gt;Fallback*</title>
<path fill="none" stroke="black" d="M699.03,-224.88C665,-215.09 606.84,-197.75 557.87,-180 555.61,-179.18 553.29,-178.31 550.96,-177.41"/>
<polygon fill="black" stroke="black" points="552.03,-174.07 541.44,-173.61 549.43,-180.57 552.03,-174.07"/>
</g>
<!-- MoveTo!** -->
<g id="node14" class="node">
<title>MoveTo!**</title>
<ellipse fill="gray" stroke="black" cx="600.87" cy="-162" rx="34.13" ry="18"/>
<text text-anchor="middle" x="600.87" y="-159.8" font-family="Times,serif" font-size="9.00">MoveTo!**</text>
</g>
<!-- Sequence&#45;&gt;MoveTo!** -->
<g id="edge13" class="edge">
<title>Sequence&#45;&gt;MoveTo!**</title>
<path fill="none" stroke="black" d="M706.04,-220.97C685.84,-209.84 655.58,-193.15 632.69,-180.54"/>
<polygon fill="black" stroke="black" points="634.15,-177.35 623.7,-175.58 630.77,-183.48 634.15,-177.35"/>
</g>
<!-- GetLk!*** -->
<g id="node15" class="node">
<title>GetLk!***</title>
<ellipse fill="gray" stroke="black" cx="684.87" cy="-162" rx="32.16" ry="18"/>
<text text-anchor="middle" x="684.87" y="-159.8" font-family="Times,serif" font-size="9.00">GetLk!***</text>
</g>
<!-- Sequence&#45;&gt;GetLk!*** -->
<g id="edge14" class="edge">
<title>Sequence&#45;&gt;GetLk!***</title>
<path fill="none" stroke="black" d="M717.24,-215.7C712.09,-207.32 705.81,-197.1 700.16,-187.9"/>
<polygon fill="black" stroke="black" points="703,-185.83 694.78,-179.14 697.04,-189.5 703,-185.83"/>
</g>
<!-- MoveTo!*** -->
<g id="node16" class="node">
<title>MoveTo!***</title>
<ellipse fill="gray" stroke="black" cx="771.87" cy="-162" rx="36.9" ry="18"/>
<text text-anchor="middle" x="771.87" y="-159.8" font-family="Times,serif" font-size="9.00">MoveTo!***</text>
</g>
<!-- Sequence&#45;&gt;MoveTo!*** -->
<g id="edge15" class="edge">
<title>Sequence&#45;&gt;MoveTo!***</title>
<path fill="none" stroke="black" d="M738.74,-215.7C743.94,-207.44 750.25,-197.39 755.97,-188.3"/>
<polygon fill="black" stroke="black" points="759.06,-189.95 761.42,-179.62 753.13,-186.23 759.06,-189.95"/>
</g>
<!-- MoveTo!**** -->
<g id="node17" class="node">
<title>MoveTo!****</title>
<ellipse fill="gray" stroke="black" cx="865.87" cy="-162" rx="39.02" ry="18"/>
<text text-anchor="middle" x="865.87" y="-159.8" font-family="Times,serif" font-size="9.00">MoveTo!****</text>
</g>
<!-- Sequence&#45;&gt;MoveTo!**** -->
<g id="edge16" class="edge">
<title>Sequence&#45;&gt;MoveTo!****</title>
<path fill="none" stroke="black" d="M750.66,-221.44C772.51,-210.35 805.82,-193.46 831.01,-180.68"/>
<polygon fill="black" stroke="black" points="832.89,-183.65 840.23,-176 829.73,-177.41 832.89,-183.65"/>
</g>
<!-- MoveTo!***** -->
<g id="node18" class="node">
<title>MoveTo!*****</title>
<ellipse fill="gray" stroke="black" cx="964.87" cy="-162" rx="42.29" ry="18"/>
<text text-anchor="middle" x="964.87" y="-159.8" font-family="Times,serif" font-size="9.00">MoveTo!*****</text>
</g>
<!-- Sequence&#45;&gt;MoveTo!***** -->
<g id="edge17" class="edge">
<title>Sequence&#45;&gt;MoveTo!*****</title>
<path fill="none" stroke="black" d="M756.98,-225.13C793.69,-215.11 858.69,-197.05 913.87,-180 916.94,-179.05 920.12,-178.05 923.31,-177.02"/>
<polygon fill="black" stroke="black" points="924.41,-180.34 932.83,-173.92 922.24,-173.69 924.41,-180.34"/>
</g>
<!-- Fallback** -->
<g id="node19" class="node">
<title>Fallback**</title>
<polygon fill="cyan" stroke="black" points="1094.86,-154.54 1094.86,-169.46 1074.36,-180 1045.37,-180 1024.88,-169.46 1024.88,-154.54 1045.37,-144 1074.36,-144 1094.86,-154.54"/>
<text text-anchor="middle" x="1059.87" y="-159.8" font-family="Times,serif" font-size="9.00">Fallback**</text>
</g>
<!-- Sequence&#45;&gt;Fallback** -->
<g id="edge18" class="edge">
<title>Sequence&#45;&gt;Fallback**</title>
<path fill="none" stroke="black" d="M759.42,-229.16C812.88,-222.21 924.38,-205.85 1015.87,-180 1018.51,-179.25 1021.22,-178.41 1023.92,-177.51"/>
<polygon fill="black" stroke="black" points="1025.37,-180.71 1033.61,-174.06 1023.02,-174.12 1025.37,-180.71"/>
</g>
<!-- MoveTo! -->
<g id="node3" class="node">
<title>MoveTo!</title>
<ellipse fill="gray" stroke="black" cx="28.87" cy="-90" rx="28.74" ry="18"/>
<text text-anchor="middle" x="28.87" y="-87.8" font-family="Times,serif" font-size="9.00">MoveTo!</text>
</g>
<!-- Fallback&#45;&gt;MoveTo! -->
<g id="edge2" class="edge">
<title>Fallback&#45;&gt;MoveTo!</title>
<path fill="none" stroke="black" d="M234.39,-154.6C195.48,-145.81 125.1,-128.71 66.87,-108 64.77,-107.25 62.62,-106.44 60.47,-105.58"/>
<polygon fill="black" stroke="black" points="61.71,-102.31 51.13,-101.66 59,-108.76 61.71,-102.31"/>
</g>
<!-- GetLk! -->
<g id="node4" class="node">
<title>GetLk!</title>
<ellipse fill="gray" stroke="black" cx="102.87" cy="-90" rx="27" ry="18"/>
<text text-anchor="middle" x="102.87" y="-87.8" font-family="Times,serif" font-size="9.00">GetLk!</text>
</g>
<!-- Fallback&#45;&gt;GetLk! -->
<g id="edge3" class="edge">
<title>Fallback&#45;&gt;GetLk!</title>
<path fill="none" stroke="black" d="M239.78,-151.12C214.52,-140.69 173.72,-123.61 138.87,-108 137.07,-107.19 135.23,-106.36 133.37,-105.51"/>
<polygon fill="black" stroke="black" points="134.67,-102.25 124.12,-101.21 131.72,-108.6 134.67,-102.25"/>
</g>
<!-- Sequence* -->
<g id="node5" class="node">
<title>Sequence*</title>
<polygon fill="cyan" stroke="black" points="216.11,-82.54 216.11,-97.46 196.05,-108 167.68,-108 147.63,-97.46 147.63,-82.54 167.68,-72 196.05,-72 216.11,-82.54"/>
<text text-anchor="middle" x="181.87" y="-87.8" font-family="Times,serif" font-size="9.00">Sequence*</text>
</g>
<!-- Fallback&#45;&gt;Sequence* -->
<g id="edge4" class="edge">
<title>Fallback&#45;&gt;Sequence*</title>
<path fill="none" stroke="black" d="M246.88,-146.5C235.46,-136.75 220.2,-123.72 207.33,-112.74"/>
<polygon fill="black" stroke="black" points="209.57,-110.04 199.69,-106.21 205.02,-115.37 209.57,-110.04"/>
</g>
<!-- GetLk!** -->
<g id="node8" class="node">
<title>GetLk!**</title>
<ellipse fill="gray" stroke="black" cx="263.87" cy="-90" rx="29.39" ry="18"/>
<text text-anchor="middle" x="263.87" y="-87.8" font-family="Times,serif" font-size="9.00">GetLk!**</text>
</g>
<!-- Fallback&#45;&gt;GetLk!** -->
<g id="edge7" class="edge">
<title>Fallback&#45;&gt;GetLk!**</title>
<path fill="none" stroke="black" d="M263.87,-143.7C263.87,-135.98 263.87,-126.71 263.87,-118.11"/>
<polygon fill="black" stroke="black" points="267.37,-118.1 263.87,-108.1 260.37,-118.1 267.37,-118.1"/>
</g>
<!-- ReachGoal? -->
<g id="node9" class="node">
<title>ReachGoal?</title>
<ellipse fill="gray" stroke="black" cx="345.87" cy="-90" rx="34.13" ry="18"/>
<text text-anchor="middle" x="345.87" y="-87.8" font-family="Times,serif" font-size="9.00">ReachGoal?</text>
</g>
<!-- Fallback&#45;&gt;ReachGoal? -->
<g id="edge8" class="edge">
<title>Fallback&#45;&gt;ReachGoal?</title>
<path fill="none" stroke="black" d="M280.86,-146.5C292.43,-136.61 307.95,-123.36 320.93,-112.29"/>
<polygon fill="black" stroke="black" points="323.28,-114.88 328.62,-105.73 318.74,-109.56 323.28,-114.88"/>
</g>
<!-- MoveTo!* -->
<g id="node10" class="node">
<title>MoveTo!*</title>
<ellipse fill="gray" stroke="black" cx="429.87" cy="-90" rx="31.51" ry="18"/>
<text text-anchor="middle" x="429.87" y="-87.8" font-family="Times,serif" font-size="9.00">MoveTo!*</text>
</g>
<!-- Fallback&#45;&gt;MoveTo!* -->
<g id="edge9" class="edge">
<title>Fallback&#45;&gt;MoveTo!*</title>
<path fill="none" stroke="black" d="M287.65,-150.97C315.92,-139.05 363.33,-119.06 395.56,-105.47"/>
<polygon fill="black" stroke="black" points="397.19,-108.58 405.04,-101.47 394.47,-102.13 397.19,-108.58"/>
</g>
<!-- GetLk!* -->
<g id="node6" class="node">
<title>GetLk!*</title>
<ellipse fill="gray" stroke="black" cx="143.87" cy="-18" rx="27.27" ry="18"/>
<text text-anchor="middle" x="143.87" y="-15.8" font-family="Times,serif" font-size="9.00">GetLk!*</text>
</g>
<!-- Sequence*&#45;&gt;GetLk!* -->
<g id="edge5" class="edge">
<title>Sequence*&#45;&gt;GetLk!*</title>
<path fill="none" stroke="black" d="M172.47,-71.7C167.97,-63.4 162.49,-53.31 157.54,-44.19"/>
<polygon fill="black" stroke="black" points="160.48,-42.26 152.63,-35.14 154.33,-45.6 160.48,-42.26"/>
</g>
<!-- LkGraph? -->
<g id="node7" class="node">
<title>LkGraph?</title>
<ellipse fill="gray" stroke="black" cx="219.87" cy="-18" rx="30.7" ry="18"/>
<text text-anchor="middle" x="219.87" y="-15.8" font-family="Times,serif" font-size="9.00">LkGraph?</text>
</g>
<!-- Sequence*&#45;&gt;LkGraph? -->
<g id="edge6" class="edge">
<title>Sequence*&#45;&gt;LkGraph?</title>
<path fill="none" stroke="black" d="M191.26,-71.7C195.7,-63.52 201.08,-53.6 205.98,-44.58"/>
<polygon fill="black" stroke="black" points="209.15,-46.08 210.84,-35.62 203,-42.74 209.15,-46.08"/>
</g>
<!-- ReachGoal?* -->
<g id="node12" class="node">
<title>ReachGoal?*</title>
<ellipse fill="gray" stroke="black" cx="516.87" cy="-90" rx="36.9" ry="18"/>
<text text-anchor="middle" x="516.87" y="-87.8" font-family="Times,serif" font-size="9.00">ReachGoal?*</text>
</g>
<!-- Fallback*&#45;&gt;ReachGoal?* -->
<g id="edge11" class="edge">
<title>Fallback*&#45;&gt;ReachGoal?*</title>
<path fill="none" stroke="black" d="M516.87,-143.7C516.87,-135.98 516.87,-126.71 516.87,-118.11"/>
<polygon fill="black" stroke="black" points="520.37,-118.1 516.87,-108.1 513.37,-118.1 520.37,-118.1"/>
</g>
<!-- GetSubGoal! -->
<g id="node13" class="node">
<title>GetSubGoal!</title>
<ellipse fill="gray" stroke="black" cx="608.87" cy="-90" rx="36.9" ry="18"/>
<text text-anchor="middle" x="608.87" y="-87.8" font-family="Times,serif" font-size="9.00">GetSubGoal!</text>
</g>
<!-- Fallback*&#45;&gt;GetSubGoal! -->
<g id="edge12" class="edge">
<title>Fallback*&#45;&gt;GetSubGoal!</title>
<path fill="none" stroke="black" d="M535.49,-146.83C548.65,-136.82 566.53,-123.22 581.34,-111.95"/>
<polygon fill="black" stroke="black" points="583.81,-114.47 589.64,-105.63 579.57,-108.9 583.81,-114.47"/>
</g>
<!-- ReachGoal?** -->
<g id="node20" class="node">
<title>ReachGoal?**</title>
<ellipse fill="gray" stroke="black" cx="750.87" cy="-90" rx="39.02" ry="18"/>
<text text-anchor="middle" x="750.87" y="-87.8" font-family="Times,serif" font-size="9.00">ReachGoal?**</text>
</g>
<!-- Fallback**&#45;&gt;ReachGoal?** -->
<g id="edge19" class="edge">
<title>Fallback**&#45;&gt;ReachGoal?**</title>
<path fill="none" stroke="black" d="M1033.63,-149.86C1027.86,-147.69 1021.71,-145.6 1015.87,-144 921.99,-118.33 894.18,-132.04 799.87,-108 796.54,-107.15 793.11,-106.18 789.69,-105.14"/>
<polygon fill="black" stroke="black" points="790.75,-101.8 780.16,-102.06 788.61,-108.46 790.75,-101.8"/>
</g>
<!-- MoveTo!****** -->
<g id="node21" class="node">
<title>MoveTo!******</title>
<ellipse fill="gray" stroke="black" cx="852.87" cy="-90" rx="44.41" ry="18"/>
<text text-anchor="middle" x="852.87" y="-87.8" font-family="Times,serif" font-size="9.00">MoveTo!******</text>
</g>
<!-- Fallback**&#45;&gt;MoveTo!****** -->
<g id="edge20" class="edge">
<title>Fallback**&#45;&gt;MoveTo!******</title>
<path fill="none" stroke="black" d="M1032.96,-150.34C1027.33,-148.18 1021.42,-145.97 1015.87,-144 993.72,-136.13 936.84,-117.79 896.52,-104.9"/>
<polygon fill="black" stroke="black" points="897.51,-101.54 886.92,-101.83 895.38,-108.21 897.51,-101.54"/>
</g>
<!-- GetSubGoal!* -->
<g id="node22" class="node">
<title>GetSubGoal!*</title>
<ellipse fill="gray" stroke="black" cx="954.87" cy="-90" rx="39.02" ry="18"/>
<text text-anchor="middle" x="954.87" y="-87.8" font-family="Times,serif" font-size="9.00">GetSubGoal!*</text>
</g>
<!-- Fallback**&#45;&gt;GetSubGoal!* -->
<g id="edge21" class="edge">
<title>Fallback**&#45;&gt;GetSubGoal!*</title>
<path fill="none" stroke="black" d="M1039.12,-147.17C1023.65,-136.86 1002.29,-122.61 984.94,-111.05"/>
<polygon fill="black" stroke="black" points="986.55,-107.92 976.29,-105.28 982.67,-113.74 986.55,-107.92"/>
</g>
<!-- MoveTo!******* -->
<g id="node23" class="node">
<title>MoveTo!*******</title>
<ellipse fill="gray" stroke="black" cx="1059.87" cy="-90" rx="47.19" ry="18"/>
<text text-anchor="middle" x="1059.87" y="-87.8" font-family="Times,serif" font-size="9.00">MoveTo!*******</text>
</g>
<!-- Fallback**&#45;&gt;MoveTo!******* -->
<g id="edge22" class="edge">
<title>Fallback**&#45;&gt;MoveTo!*******</title>
<path fill="none" stroke="black" d="M1059.87,-143.7C1059.87,-135.98 1059.87,-126.71 1059.87,-118.11"/>
<polygon fill="black" stroke="black" points="1063.37,-118.1 1059.87,-108.1 1056.37,-118.1 1063.37,-118.1"/>
</g>
<!-- GetLk!**** -->
<g id="node24" class="node">
<title>GetLk!****</title>
<ellipse fill="gray" stroke="black" cx="1159.87" cy="-90" rx="34.78" ry="18"/>
<text text-anchor="middle" x="1159.87" y="-87.8" font-family="Times,serif" font-size="9.00">GetLk!****</text>
</g>
<!-- Fallback**&#45;&gt;GetLk!**** -->
<g id="edge23" class="edge">
<title>Fallback**&#45;&gt;GetLk!****</title>
<path fill="none" stroke="black" d="M1080.1,-146.83C1094.84,-136.52 1115,-122.41 1131.36,-110.96"/>
<polygon fill="black" stroke="black" points="1133.82,-113.51 1140,-104.91 1129.8,-107.77 1133.82,-113.51"/>
</g>
<!-- MoveTo!******** -->
<g id="node25" class="node">
<title>MoveTo!********</title>
<ellipse fill="gray" stroke="black" cx="1261.87" cy="-90" rx="49.8" ry="18"/>
<text text-anchor="middle" x="1261.87" y="-87.8" font-family="Times,serif" font-size="9.00">MoveTo!********</text>
</g>
<!-- Fallback**&#45;&gt;MoveTo!******** -->
<g id="edge24" class="edge">
<title>Fallback**&#45;&gt;MoveTo!********</title>
<path fill="none" stroke="black" d="M1088.38,-151.12C1121.97,-139.48 1178.15,-120.01 1217.46,-106.39"/>
<polygon fill="black" stroke="black" points="1218.76,-109.64 1227.06,-103.06 1216.47,-103.03 1218.76,-109.64"/>
</g>
<!-- ReachGoal?*** -->
<g id="node26" class="node">
<title>ReachGoal?***</title>
<ellipse fill="gray" stroke="black" cx="1371.87" cy="-90" rx="42.29" ry="18"/>
<text text-anchor="middle" x="1371.87" y="-87.8" font-family="Times,serif" font-size="9.00">ReachGoal?***</text>
</g>
<!-- Fallback**&#45;&gt;ReachGoal?*** -->
<g id="edge25" class="edge">
<title>Fallback**&#45;&gt;ReachGoal?***</title>
<path fill="none" stroke="black" d="M1095.22,-155.23C1145.7,-146.66 1241.13,-129.3 1320.87,-108 1324.07,-107.14 1327.36,-106.2 1330.66,-105.21"/>
<polygon fill="black" stroke="black" points="1332,-108.46 1340.49,-102.12 1329.9,-101.78 1332,-108.46"/>
</g>
</g>
</svg>
