<?xml version="1.0" encoding="UTF-8" standalone="no"?>
<!DOCTYPE svg PUBLIC "-//W3C//DTD SVG 1.1//EN"
 "http://www.w3.org/Graphics/SVG/1.1/DTD/svg11.dtd">
<!-- Generated by graphviz version 2.43.0 (0)
 -->
<!-- Title: pastafarianism Pages: 1 -->
<svg width="1646pt" height="260pt"
 viewBox="0.00 0.00 1646.32 260.00" xmlns="http://www.w3.org/2000/svg" xmlns:xlink="http://www.w3.org/1999/xlink">
<g id="graph0" class="graph" transform="scale(1 1) rotate(0) translate(4 256)">
<title>pastafarianism</title>
<polygon fill="white" stroke="transparent" points="-4,4 -4,-256 1642.32,-256 1642.32,4 -4,4"/>
<!-- Sequence -->
<g id="node1" class="node">
<title>Sequence</title>
<polygon fill="cyan" stroke="black" points="768.36,-226.54 768.36,-241.46 749.91,-252 723.82,-252 705.37,-241.46 705.37,-226.54 723.82,-216 749.91,-216 768.36,-226.54"/>
<text text-anchor="middle" x="736.87" y="-231.8" font-family="Times,serif" font-size="9.00">Sequence</text>
</g>
<!-- Fallback -->
<g id="node2" class="node">
<title>Fallback</title>
<polygon fill="cyan" stroke="black" points="412.11,-154.54 412.11,-169.46 394.98,-180 370.75,-180 353.62,-169.46 353.62,-154.54 370.75,-144 394.98,-144 412.11,-154.54"/>
<text text-anchor="middle" x="382.87" y="-159.8" font-family="Times,serif" font-size="9.00">Fallback</text>
</g>
<!-- Sequence&#45;&gt;Fallback -->
<g id="edge1" class="edge">
<title>Sequence&#45;&gt;Fallback</title>
<path fill="none" stroke="black" d="M705.46,-229.16C649.92,-222.01 530.97,-205.07 432.87,-180 427.83,-178.71 422.58,-177.16 417.45,-175.53"/>
<polygon fill="black" stroke="black" points="418.41,-172.16 407.82,-172.33 416.2,-178.81 418.41,-172.16"/>
</g>
<!-- ReachGoal?* -->
<g id="node12" class="node">
<title>ReachGoal?*</title>
<ellipse fill="gray" stroke="black" cx="478.87" cy="-162" rx="36.9" ry="18"/>
<text text-anchor="middle" x="478.87" y="-159.8" font-family="Times,serif" font-size="9.00">ReachGoal?*</text>
</g>
<!-- Sequence&#45;&gt;ReachGoal?* -->
<g id="edge11" class="edge">
<title>Sequence&#45;&gt;ReachGoal?*</title>
<path fill="none" stroke="black" d="M705.68,-226.32C664.08,-217.16 588.3,-199.59 524.87,-180 522.12,-179.15 519.3,-178.23 516.47,-177.27"/>
<polygon fill="black" stroke="black" points="517.52,-173.93 506.92,-173.92 515.2,-180.54 517.52,-173.93"/>
</g>
<!-- MoveTo!** -->
<g id="node13" class="node">
<title>MoveTo!**</title>
<ellipse fill="gray" stroke="black" cx="567.87" cy="-162" rx="34.13" ry="18"/>
<text text-anchor="middle" x="567.87" y="-159.8" font-family="Times,serif" font-size="9.00">MoveTo!**</text>
</g>
<!-- Sequence&#45;&gt;MoveTo!** -->
<g id="edge12" class="edge">
<title>Sequence&#45;&gt;MoveTo!**</title>
<path fill="none" stroke="black" d="M711.93,-222.67C683.22,-210.78 635.86,-191.16 603.32,-177.69"/>
<polygon fill="black" stroke="black" points="604.32,-174.31 593.74,-173.72 601.64,-180.78 604.32,-174.31"/>
</g>
<!-- GetLk!*** -->
<g id="node14" class="node">
<title>GetLk!***</title>
<ellipse fill="gray" stroke="black" cx="651.87" cy="-162" rx="32.16" ry="18"/>
<text text-anchor="middle" x="651.87" y="-159.8" font-family="Times,serif" font-size="9.00">GetLk!***</text>
</g>
<!-- Sequence&#45;&gt;GetLk!*** -->
<g id="edge13" class="edge">
<title>Sequence&#45;&gt;GetLk!***</title>
<path fill="none" stroke="black" d="M719.26,-218.5C707.09,-208.48 690.73,-195.01 677.18,-183.85"/>
<polygon fill="black" stroke="black" points="679.11,-180.9 669.17,-177.25 674.66,-186.3 679.11,-180.9"/>
</g>
<!-- GetLk!**** -->
<g id="node15" class="node">
<title>GetLk!****</title>
<ellipse fill="gray" stroke="black" cx="736.87" cy="-162" rx="34.78" ry="18"/>
<text text-anchor="middle" x="736.87" y="-159.8" font-family="Times,serif" font-size="9.00">GetLk!****</text>
</g>
<!-- Sequence&#45;&gt;GetLk!**** -->
<g id="edge14" class="edge">
<title>Sequence&#45;&gt;GetLk!****</title>
<path fill="none" stroke="black" d="M736.87,-215.7C736.87,-207.98 736.87,-198.71 736.87,-190.11"/>
<polygon fill="black" stroke="black" points="740.37,-190.1 736.87,-180.1 733.37,-190.1 740.37,-190.1"/>
</g>
<!-- MoveTo!*** -->
<g id="node16" class="node">
<title>MoveTo!***</title>
<ellipse fill="gray" stroke="black" cx="826.87" cy="-162" rx="36.9" ry="18"/>
<text text-anchor="middle" x="826.87" y="-159.8" font-family="Times,serif" font-size="9.00">MoveTo!***</text>
</g>
<!-- Sequence&#45;&gt;MoveTo!*** -->
<g id="edge15" class="edge">
<title>Sequence&#45;&gt;MoveTo!***</title>
<path fill="none" stroke="black" d="M755.08,-218.83C767.96,-208.82 785.45,-195.22 799.94,-183.95"/>
<polygon fill="black" stroke="black" points="802.32,-186.53 808.06,-177.63 798.02,-181 802.32,-186.53"/>
</g>
<!-- MoveTo!**** -->
<g id="node17" class="node">
<title>MoveTo!****</title>
<ellipse fill="gray" stroke="black" cx="920.87" cy="-162" rx="39.02" ry="18"/>
<text text-anchor="middle" x="920.87" y="-159.8" font-family="Times,serif" font-size="9.00">MoveTo!****</text>
</g>
<!-- Sequence&#45;&gt;MoveTo!**** -->
<g id="edge16" class="edge">
<title>Sequence&#45;&gt;MoveTo!****</title>
<path fill="none" stroke="black" d="M762.84,-223.12C793.9,-211.3 846.18,-191.42 882.04,-177.77"/>
<polygon fill="black" stroke="black" points="883.59,-180.93 891.69,-174.1 881.1,-174.39 883.59,-180.93"/>
</g>
<!-- MoveTo!***** -->
<g id="node18" class="node">
<title>MoveTo!*****</title>
<ellipse fill="gray" stroke="black" cx="1019.87" cy="-162" rx="42.29" ry="18"/>
<text text-anchor="middle" x="1019.87" y="-159.8" font-family="Times,serif" font-size="9.00">MoveTo!*****</text>
</g>
<!-- Sequence&#45;&gt;MoveTo!***** -->
<g id="edge17" class="edge">
<title>Sequence&#45;&gt;MoveTo!*****</title>
<path fill="none" stroke="black" d="M768.26,-226.84C813.08,-217.81 897.85,-199.9 968.87,-180 972.01,-179.12 975.25,-178.16 978.5,-177.16"/>
<polygon fill="black" stroke="black" points="979.71,-180.45 988.18,-174.09 977.59,-173.78 979.71,-180.45"/>
</g>
<!-- Fallback* -->
<g id="node19" class="node">
<title>Fallback*</title>
<polygon fill="cyan" stroke="black" points="1149.61,-154.54 1149.61,-169.46 1131.02,-180 1104.72,-180 1086.13,-169.46 1086.13,-154.54 1104.72,-144 1131.02,-144 1149.61,-154.54"/>
<text text-anchor="middle" x="1117.87" y="-159.8" font-family="Times,serif" font-size="9.00">Fallback*</text>
</g>
<!-- Sequence&#45;&gt;Fallback* -->
<g id="edge18" class="edge">
<title>Sequence&#45;&gt;Fallback*</title>
<path fill="none" stroke="black" d="M768.12,-230.04C827.72,-223.96 961.42,-208.2 1070.87,-180 1074.73,-179.01 1078.72,-177.82 1082.66,-176.54"/>
<polygon fill="black" stroke="black" points="1083.96,-179.8 1092.29,-173.25 1081.69,-173.18 1083.96,-179.8"/>
</g>
<!-- MoveTo! -->
<g id="node3" class="node">
<title>MoveTo!</title>
<ellipse fill="gray" stroke="black" cx="28.87" cy="-90" rx="28.74" ry="18"/>
<text text-anchor="middle" x="28.87" y="-87.8" font-family="Times,serif" font-size="9.00">MoveTo!</text>
</g>
<!-- Fallback&#45;&gt;MoveTo! -->
<g id="edge2" class="edge">
<title>Fallback&#45;&gt;MoveTo!</title>
<path fill="none" stroke="black" d="M353.55,-158.59C297.06,-153.41 169.64,-139.05 66.87,-108 64.59,-107.31 62.27,-106.52 59.96,-105.66"/>
<polygon fill="black" stroke="black" points="61.19,-102.38 50.61,-101.86 58.55,-108.87 61.19,-102.38"/>
</g>
<!-- GetSubGoal! -->
<g id="node4" class="node">
<title>GetSubGoal!</title>
<ellipse fill="gray" stroke="black" cx="112.87" cy="-90" rx="36.9" ry="18"/>
<text text-anchor="middle" x="112.87" y="-87.8" font-family="Times,serif" font-size="9.00">GetSubGoal!</text>
</g>
<!-- Fallback&#45;&gt;GetSubGoal! -->
<g id="edge3" class="edge">
<title>Fallback&#45;&gt;GetSubGoal!</title>
<path fill="none" stroke="black" d="M353.57,-155.26C310.5,-146.54 227.73,-128.79 158.87,-108 156.12,-107.17 153.29,-106.26 150.46,-105.31"/>
<polygon fill="black" stroke="black" points="151.5,-101.97 140.9,-101.98 149.19,-108.58 151.5,-101.97"/>
</g>
<!-- GetLk! -->
<g id="node5" class="node">
<title>GetLk!</title>
<ellipse fill="gray" stroke="black" cx="194.87" cy="-90" rx="27" ry="18"/>
<text text-anchor="middle" x="194.87" y="-87.8" font-family="Times,serif" font-size="9.00">GetLk!</text>
</g>
<!-- Fallback&#45;&gt;GetLk! -->
<g id="edge4" class="edge">
<title>Fallback&#45;&gt;GetLk!</title>
<path fill="none" stroke="black" d="M356.46,-152.73C325.9,-142.94 274.19,-125.73 230.87,-108 229.04,-107.25 227.18,-106.46 225.31,-105.65"/>
<polygon fill="black" stroke="black" points="226.58,-102.38 216.02,-101.44 223.69,-108.76 226.58,-102.38"/>
</g>
<!-- LkClose? -->
<g id="node6" class="node">
<title>LkClose?</title>
<ellipse fill="gray" stroke="black" cx="268.87" cy="-90" rx="28.74" ry="18"/>
<text text-anchor="middle" x="268.87" y="-87.8" font-family="Times,serif" font-size="9.00">LkClose?</text>
</g>
<!-- Fallback&#45;&gt;LkClose? -->
<g id="edge5" class="edge">
<title>Fallback&#45;&gt;LkClose?</title>
<path fill="none" stroke="black" d="M362.75,-148.65C344.6,-137.5 317.7,-120.99 297.34,-108.49"/>
<polygon fill="black" stroke="black" points="299.14,-105.48 288.78,-103.23 295.48,-111.45 299.14,-105.48"/>
</g>
<!-- GetLk!* -->
<g id="node7" class="node">
<title>GetLk!*</title>
<ellipse fill="gray" stroke="black" cx="342.87" cy="-90" rx="27.27" ry="18"/>
<text text-anchor="middle" x="342.87" y="-87.8" font-family="Times,serif" font-size="9.00">GetLk!*</text>
</g>
<!-- Fallback&#45;&gt;GetLk!* -->
<g id="edge6" class="edge">
<title>Fallback&#45;&gt;GetLk!*</title>
<path fill="none" stroke="black" d="M372.98,-143.7C368.19,-135.32 362.35,-125.1 357.1,-115.9"/>
<polygon fill="black" stroke="black" points="360.09,-114.09 352.09,-107.14 354.02,-117.56 360.09,-114.09"/>
</g>
<!-- GetLk!** -->
<g id="node8" class="node">
<title>GetLk!**</title>
<ellipse fill="gray" stroke="black" cx="417.87" cy="-90" rx="29.39" ry="18"/>
<text text-anchor="middle" x="417.87" y="-87.8" font-family="Times,serif" font-size="9.00">GetLk!**</text>
</g>
<!-- Fallback&#45;&gt;GetLk!** -->
<g id="edge7" class="edge">
<title>Fallback&#45;&gt;GetLk!**</title>
<path fill="none" stroke="black" d="M391.52,-143.7C395.61,-135.52 400.57,-125.6 405.08,-116.58"/>
<polygon fill="black" stroke="black" points="408.21,-118.13 409.56,-107.62 401.95,-115 408.21,-118.13"/>
</g>
<!-- ReachGoal? -->
<g id="node9" class="node">
<title>ReachGoal?</title>
<ellipse fill="gray" stroke="black" cx="499.87" cy="-90" rx="34.13" ry="18"/>
<text text-anchor="middle" x="499.87" y="-87.8" font-family="Times,serif" font-size="9.00">ReachGoal?</text>
</g>
<!-- Fallback&#45;&gt;ReachGoal? -->
<g id="edge8" class="edge">
<title>Fallback&#45;&gt;ReachGoal?</title>
<path fill="none" stroke="black" d="M403.25,-148.81C421.5,-137.89 448.51,-121.72 469.34,-109.26"/>
<polygon fill="black" stroke="black" points="471.35,-112.14 478.13,-104 467.76,-106.13 471.35,-112.14"/>
</g>
<!-- MoveTo!* -->
<g id="node10" class="node">
<title>MoveTo!*</title>
<ellipse fill="gray" stroke="black" cx="583.87" cy="-90" rx="31.51" ry="18"/>
<text text-anchor="middle" x="583.87" y="-87.8" font-family="Times,serif" font-size="9.00">MoveTo!*</text>
</g>
<!-- Fallback&#45;&gt;MoveTo!* -->
<g id="edge9" class="edge">
<title>Fallback&#45;&gt;MoveTo!*</title>
<path fill="none" stroke="black" d="M408.54,-152.21C416.35,-149.55 424.95,-146.64 432.87,-144 481.66,-127.72 494.63,-125.86 542.87,-108 545.12,-107.16 547.44,-106.28 549.77,-105.37"/>
<polygon fill="black" stroke="black" points="551.29,-108.53 559.27,-101.56 548.69,-102.03 551.29,-108.53"/>
</g>
<!-- GetSubGoal!* -->
<g id="node11" class="node">
<title>GetSubGoal!*</title>
<ellipse fill="gray" stroke="black" cx="672.87" cy="-90" rx="39.02" ry="18"/>
<text text-anchor="middle" x="672.87" y="-87.8" font-family="Times,serif" font-size="9.00">GetSubGoal!*</text>
</g>
<!-- Fallback&#45;&gt;GetSubGoal!* -->
<g id="edge10" class="edge">
<title>Fallback&#45;&gt;GetSubGoal!*</title>
<path fill="none" stroke="black" d="M407.83,-151.73C415.77,-149 424.62,-146.16 432.87,-144 516.85,-121.97 541.03,-130.56 624.87,-108 627.84,-107.2 630.9,-106.3 633.96,-105.35"/>
<polygon fill="black" stroke="black" points="635.24,-108.61 643.65,-102.16 633.06,-101.96 635.24,-108.61"/>
</g>
<!-- ReachGoal?** -->
<g id="node20" class="node">
<title>ReachGoal?**</title>
<ellipse fill="gray" stroke="black" cx="769.87" cy="-90" rx="39.02" ry="18"/>
<text text-anchor="middle" x="769.87" y="-87.8" font-family="Times,serif" font-size="9.00">ReachGoal?**</text>
</g>
<!-- Fallback*&#45;&gt;ReachGoal?** -->
<g id="edge19" class="edge">
<title>Fallback*&#45;&gt;ReachGoal?**</title>
<path fill="none" stroke="black" d="M1092.3,-150.68C1085.43,-148.2 1077.94,-145.76 1070.87,-144 961.09,-116.62 928.82,-134.66 818.87,-108 815.53,-107.19 812.1,-106.24 808.67,-105.22"/>
<polygon fill="black" stroke="black" points="809.72,-101.88 799.13,-102.18 807.6,-108.55 809.72,-101.88"/>
</g>
<!-- MoveTo!****** -->
<g id="node21" class="node">
<title>MoveTo!******</title>
<ellipse fill="gray" stroke="black" cx="871.87" cy="-90" rx="44.41" ry="18"/>
<text text-anchor="middle" x="871.87" y="-87.8" font-family="Times,serif" font-size="9.00">MoveTo!******</text>
</g>
<!-- Fallback*&#45;&gt;MoveTo!****** -->
<g id="edge20" class="edge">
<title>Fallback*&#45;&gt;MoveTo!******</title>
<path fill="none" stroke="black" d="M1091.68,-150.98C1084.94,-148.56 1077.67,-146.07 1070.87,-144 1007.34,-124.68 989.79,-125.98 925.87,-108 922.35,-107.01 918.71,-105.95 915.07,-104.86"/>
<polygon fill="black" stroke="black" points="916.06,-101.5 905.47,-101.93 914.02,-108.2 916.06,-101.5"/>
</g>
<!-- GetSubGoal!** -->
<g id="node22" class="node">
<title>GetSubGoal!**</title>
<ellipse fill="gray" stroke="black" cx="976.87" cy="-90" rx="42.29" ry="18"/>
<text text-anchor="middle" x="976.87" y="-87.8" font-family="Times,serif" font-size="9.00">GetSubGoal!**</text>
</g>
<!-- Fallback*&#45;&gt;GetSubGoal!** -->
<g id="edge21" class="edge">
<title>Fallback*&#45;&gt;GetSubGoal!**</title>
<path fill="none" stroke="black" d="M1094.58,-149.44C1072.29,-138.37 1038.34,-121.52 1012.62,-108.75"/>
<polygon fill="black" stroke="black" points="1014.07,-105.56 1003.55,-104.25 1010.95,-111.83 1014.07,-105.56"/>
</g>
<!-- MoveTo!******* -->
<g id="node23" class="node">
<title>MoveTo!*******</title>
<ellipse fill="gray" stroke="black" cx="1083.87" cy="-90" rx="47.19" ry="18"/>
<text text-anchor="middle" x="1083.87" y="-87.8" font-family="Times,serif" font-size="9.00">MoveTo!*******</text>
</g>
<!-- Fallback*&#45;&gt;MoveTo!******* -->
<g id="edge22" class="edge">
<title>Fallback*&#45;&gt;MoveTo!*******</title>
<path fill="none" stroke="black" d="M1109.46,-143.7C1105.59,-135.73 1100.92,-126.1 1096.62,-117.26"/>
<polygon fill="black" stroke="black" points="1099.69,-115.57 1092.18,-108.1 1093.4,-118.63 1099.69,-115.57"/>
</g>
<!-- GetLk!***** -->
<g id="node24" class="node">
<title>GetLk!*****</title>
<ellipse fill="gray" stroke="black" cx="1186.87" cy="-90" rx="37.56" ry="18"/>
<text text-anchor="middle" x="1186.87" y="-87.8" font-family="Times,serif" font-size="9.00">GetLk!*****</text>
</g>
<!-- Fallback*&#45;&gt;GetLk!***** -->
<g id="edge23" class="edge">
<title>Fallback*&#45;&gt;GetLk!*****</title>
<path fill="none" stroke="black" d="M1133.52,-145.12C1142.52,-135.99 1153.99,-124.36 1163.98,-114.22"/>
<polygon fill="black" stroke="black" points="1166.74,-116.4 1171.27,-106.82 1161.76,-111.49 1166.74,-116.4"/>
</g>
<!-- MoveTo!******** -->
<g id="node25" class="node">
<title>MoveTo!********</title>
<ellipse fill="gray" stroke="black" cx="1291.87" cy="-90" rx="49.8" ry="18"/>
<text text-anchor="middle" x="1291.87" y="-87.8" font-family="Times,serif" font-size="9.00">MoveTo!********</text>
</g>
<!-- Fallback*&#45;&gt;MoveTo!******** -->
<g id="edge24" class="edge">
<title>Fallback*&#45;&gt;MoveTo!********</title>
<path fill="none" stroke="black" d="M1143.17,-150.82C1171.22,-139.54 1216.91,-121.16 1250.24,-107.74"/>
<polygon fill="black" stroke="black" points="1251.76,-110.91 1259.73,-103.93 1249.14,-104.42 1251.76,-110.91"/>
</g>
<!-- ReachGoal?*** -->
<g id="node26" class="node">
<title>ReachGoal?***</title>
<ellipse fill="gray" stroke="black" cx="1401.87" cy="-90" rx="42.29" ry="18"/>
<text text-anchor="middle" x="1401.87" y="-87.8" font-family="Times,serif" font-size="9.00">ReachGoal?***</text>
</g>
<!-- Fallback*&#45;&gt;ReachGoal?*** -->
<g id="edge25" class="edge">
<title>Fallback*&#45;&gt;ReachGoal?***</title>
<path fill="none" stroke="black" d="M1149.77,-154.78C1194.89,-145.74 1279.75,-127.89 1350.87,-108 1354.06,-107.11 1357.34,-106.14 1360.64,-105.12"/>
<polygon fill="black" stroke="black" points="1361.99,-108.37 1370.46,-102.01 1359.87,-101.7 1361.99,-108.37"/>
</g>
<!-- Sequence* -->
<g id="node27" class="node">
<title>Sequence*</title>
<polygon fill="cyan" stroke="black" points="1531.11,-82.54 1531.11,-97.46 1511.05,-108 1482.68,-108 1462.63,-97.46 1462.63,-82.54 1482.68,-72 1511.05,-72 1531.11,-82.54"/>
<text text-anchor="middle" x="1496.87" y="-87.8" font-family="Times,serif" font-size="9.00">Sequence*</text>
</g>
<!-- Fallback*&#45;&gt;Sequence* -->
<g id="edge26" class="edge">
<title>Fallback*&#45;&gt;Sequence*</title>
<path fill="none" stroke="black" d="M1149.74,-158.23C1209.84,-152.5 1343.69,-137.37 1452.87,-108 1455.68,-107.24 1458.57,-106.37 1461.45,-105.42"/>
<polygon fill="black" stroke="black" points="1462.85,-108.63 1471.11,-102 1460.52,-102.04 1462.85,-108.63"/>
</g>
<!-- ReachGoal?**** -->
<g id="node30" class="node">
<title>ReachGoal?****</title>
<ellipse fill="gray" stroke="black" cx="1593.87" cy="-90" rx="44.41" ry="18"/>
<text text-anchor="middle" x="1593.87" y="-87.8" font-family="Times,serif" font-size="9.00">ReachGoal?****</text>
</g>
<!-- Fallback*&#45;&gt;ReachGoal?**** -->
<g id="edge29" class="edge">
<title>Fallback*&#45;&gt;ReachGoal?****</title>
<path fill="none" stroke="black" d="M1149.7,-158.97C1220.5,-154.02 1396.13,-139.38 1539.87,-108 1543.7,-107.16 1547.65,-106.17 1551.59,-105.1"/>
<polygon fill="black" stroke="black" points="1552.65,-108.44 1561.28,-102.3 1550.7,-101.71 1552.65,-108.44"/>
</g>
<!-- GetLk!****** -->
<g id="node28" class="node">
<title>GetLk!******</title>
<ellipse fill="gray" stroke="black" cx="1445.87" cy="-18" rx="39.67" ry="18"/>
<text text-anchor="middle" x="1445.87" y="-15.8" font-family="Times,serif" font-size="9.00">GetLk!******</text>
</g>
<!-- Sequence*&#45;&gt;GetLk!****** -->
<g id="edge27" class="edge">
<title>Sequence*&#45;&gt;GetLk!******</title>
<path fill="none" stroke="black" d="M1484.26,-71.7C1478.12,-63.27 1470.62,-52.97 1463.89,-43.73"/>
<polygon fill="black" stroke="black" points="1466.7,-41.64 1457.98,-35.62 1461.04,-45.77 1466.7,-41.64"/>
</g>
<!-- GetSubGoal!*** -->
<g id="node29" class="node">
<title>GetSubGoal!***</title>
<ellipse fill="gray" stroke="black" cx="1547.87" cy="-18" rx="44.41" ry="18"/>
<text text-anchor="middle" x="1547.87" y="-15.8" font-family="Times,serif" font-size="9.00">GetSubGoal!***</text>
</g>
<!-- Sequence*&#45;&gt;GetSubGoal!*** -->
<g id="edge28" class="edge">
<title>Sequence*&#45;&gt;GetSubGoal!***</title>
<path fill="none" stroke="black" d="M1509.47,-71.7C1515.62,-63.27 1523.11,-52.97 1529.85,-43.73"/>
<polygon fill="black" stroke="black" points="1532.7,-45.77 1535.76,-35.62 1527.04,-41.64 1532.7,-45.77"/>
</g>
</g>
</svg>
