<?xml version="1.0" encoding="UTF-8" standalone="no"?>
<!DOCTYPE svg PUBLIC "-//W3C//DTD SVG 1.1//EN"
 "http://www.w3.org/Graphics/SVG/1.1/DTD/svg11.dtd">
<!-- Generated by graphviz version 2.43.0 (0)
 -->
<!-- Title: pastafarianism Pages: 1 -->
<svg width="1554pt" height="260pt"
 viewBox="0.00 0.00 1554.13 260.00" xmlns="http://www.w3.org/2000/svg" xmlns:xlink="http://www.w3.org/1999/xlink">
<g id="graph0" class="graph" transform="scale(1 1) rotate(0) translate(4 256)">
<title>pastafarianism</title>
<polygon fill="white" stroke="transparent" points="-4,4 -4,-256 1550.13,-256 1550.13,4 -4,4"/>
<!-- Sequence -->
<g id="node1" class="node">
<title>Sequence</title>
<polygon fill="cyan" stroke="black" points="850.36,-226.54 850.36,-241.46 831.91,-252 805.82,-252 787.37,-241.46 787.37,-226.54 805.82,-216 831.91,-216 850.36,-226.54"/>
<text text-anchor="middle" x="818.87" y="-231.8" font-family="Times,serif" font-size="9.00">Sequence</text>
</g>
<!-- Fallback -->
<g id="node2" class="node">
<title>Fallback</title>
<polygon fill="cyan" stroke="black" points="303.11,-154.54 303.11,-169.46 285.98,-180 261.75,-180 244.62,-169.46 244.62,-154.54 261.75,-144 285.98,-144 303.11,-154.54"/>
<text text-anchor="middle" x="273.87" y="-159.8" font-family="Times,serif" font-size="9.00">Fallback</text>
</g>
<!-- Sequence&#45;&gt;Fallback -->
<g id="edge1" class="edge">
<title>Sequence&#45;&gt;Fallback</title>
<path fill="none" stroke="black" d="M787.61,-228.99C694.13,-216.98 416.8,-181.36 313.36,-168.07"/>
<polygon fill="black" stroke="black" points="313.69,-164.59 303.33,-166.78 312.8,-171.53 313.69,-164.59"/>
</g>
<!-- Fallback* -->
<g id="node11" class="node">
<title>Fallback*</title>
<polygon fill="cyan" stroke="black" points="553.61,-154.54 553.61,-169.46 535.02,-180 508.72,-180 490.13,-169.46 490.13,-154.54 508.72,-144 535.02,-144 553.61,-154.54"/>
<text text-anchor="middle" x="521.87" y="-159.8" font-family="Times,serif" font-size="9.00">Fallback*</text>
</g>
<!-- Sequence&#45;&gt;Fallback* -->
<g id="edge10" class="edge">
<title>Sequence&#45;&gt;Fallback*</title>
<path fill="none" stroke="black" d="M787.25,-228.43C738.43,-220.93 642.03,-204.37 562.87,-180 560.57,-179.29 558.22,-178.5 555.87,-177.67"/>
<polygon fill="black" stroke="black" points="556.9,-174.31 546.31,-174.02 554.4,-180.85 556.9,-174.31"/>
</g>
<!-- MoveTo!** -->
<g id="node14" class="node">
<title>MoveTo!**</title>
<ellipse fill="gray" stroke="black" cx="605.87" cy="-162" rx="34.13" ry="18"/>
<text text-anchor="middle" x="605.87" y="-159.8" font-family="Times,serif" font-size="9.00">MoveTo!**</text>
</g>
<!-- Sequence&#45;&gt;MoveTo!** -->
<g id="edge13" class="edge">
<title>Sequence&#45;&gt;MoveTo!**</title>
<path fill="none" stroke="black" d="M790.28,-224.65C756.52,-214.65 698.78,-197.1 649.87,-180 647.19,-179.06 644.42,-178.07 641.65,-177.05"/>
<polygon fill="black" stroke="black" points="642.88,-173.77 632.29,-173.53 640.42,-180.32 642.88,-173.77"/>
</g>
<!-- GetLk!** -->
<g id="node15" class="node">
<title>GetLk!**</title>
<ellipse fill="gray" stroke="black" cx="687.87" cy="-162" rx="29.39" ry="18"/>
<text text-anchor="middle" x="687.87" y="-159.8" font-family="Times,serif" font-size="9.00">GetLk!**</text>
</g>
<!-- Sequence&#45;&gt;GetLk!** -->
<g id="edge14" class="edge">
<title>Sequence&#45;&gt;GetLk!**</title>
<path fill="none" stroke="black" d="M796.65,-221.13C775.12,-209.62 742.31,-192.09 718.35,-179.29"/>
<polygon fill="black" stroke="black" points="719.8,-176.09 709.33,-174.47 716.5,-182.27 719.8,-176.09"/>
</g>
<!-- MoveTo!*** -->
<g id="node16" class="node">
<title>MoveTo!***</title>
<ellipse fill="gray" stroke="black" cx="771.87" cy="-162" rx="36.9" ry="18"/>
<text text-anchor="middle" x="771.87" y="-159.8" font-family="Times,serif" font-size="9.00">MoveTo!***</text>
</g>
<!-- Sequence&#45;&gt;MoveTo!*** -->
<g id="edge15" class="edge">
<title>Sequence&#45;&gt;MoveTo!***</title>
<path fill="none" stroke="black" d="M807.25,-215.7C801.65,-207.35 794.82,-197.18 788.66,-188.02"/>
<polygon fill="black" stroke="black" points="791.51,-185.97 783.03,-179.62 785.7,-189.88 791.51,-185.97"/>
</g>
<!-- MoveTo!**** -->
<g id="node17" class="node">
<title>MoveTo!****</title>
<ellipse fill="gray" stroke="black" cx="865.87" cy="-162" rx="39.02" ry="18"/>
<text text-anchor="middle" x="865.87" y="-159.8" font-family="Times,serif" font-size="9.00">MoveTo!****</text>
</g>
<!-- Sequence&#45;&gt;MoveTo!**** -->
<g id="edge16" class="edge">
<title>Sequence&#45;&gt;MoveTo!****</title>
<path fill="none" stroke="black" d="M830.49,-215.7C836.09,-207.35 842.91,-197.18 849.07,-188.02"/>
<polygon fill="black" stroke="black" points="852.04,-189.88 854.71,-179.62 846.23,-185.97 852.04,-189.88"/>
</g>
<!-- MoveTo!***** -->
<g id="node18" class="node">
<title>MoveTo!*****</title>
<ellipse fill="gray" stroke="black" cx="964.87" cy="-162" rx="42.29" ry="18"/>
<text text-anchor="middle" x="964.87" y="-159.8" font-family="Times,serif" font-size="9.00">MoveTo!*****</text>
</g>
<!-- Sequence&#45;&gt;MoveTo!***** -->
<g id="edge17" class="edge">
<title>Sequence&#45;&gt;MoveTo!*****</title>
<path fill="none" stroke="black" d="M842.32,-221.75C865.69,-210.55 901.87,-193.21 928.87,-180.26"/>
<polygon fill="black" stroke="black" points="930.49,-183.36 938,-175.88 927.47,-177.05 930.49,-183.36"/>
</g>
<!-- MoveTo!****** -->
<g id="node19" class="node">
<title>MoveTo!******</title>
<ellipse fill="gray" stroke="black" cx="1069.87" cy="-162" rx="44.41" ry="18"/>
<text text-anchor="middle" x="1069.87" y="-159.8" font-family="Times,serif" font-size="9.00">MoveTo!******</text>
</g>
<!-- Sequence&#45;&gt;MoveTo!****** -->
<g id="edge18" class="edge">
<title>Sequence&#45;&gt;MoveTo!******</title>
<path fill="none" stroke="black" d="M848.68,-225.4C887.36,-215.44 956.88,-197.21 1015.87,-180 1019.38,-178.98 1023.01,-177.89 1026.65,-176.78"/>
<polygon fill="black" stroke="black" points="1027.71,-180.12 1036.23,-173.83 1025.64,-173.43 1027.71,-180.12"/>
</g>
<!-- GetLk!*** -->
<g id="node20" class="node">
<title>GetLk!***</title>
<ellipse fill="gray" stroke="black" cx="1164.87" cy="-162" rx="32.16" ry="18"/>
<text text-anchor="middle" x="1164.87" y="-159.8" font-family="Times,serif" font-size="9.00">GetLk!***</text>
</g>
<!-- Sequence&#45;&gt;GetLk!*** -->
<g id="edge19" class="edge">
<title>Sequence&#45;&gt;GetLk!***</title>
<path fill="none" stroke="black" d="M850.43,-229.73C906.21,-223.46 1025.52,-207.85 1122.87,-180 1125.47,-179.25 1128.14,-178.4 1130.8,-177.49"/>
<polygon fill="black" stroke="black" points="1132.14,-180.72 1140.3,-173.96 1129.71,-174.16 1132.14,-180.72"/>
</g>
<!-- Fallback** -->
<g id="node21" class="node">
<title>Fallback**</title>
<polygon fill="cyan" stroke="black" points="1284.86,-154.54 1284.86,-169.46 1264.36,-180 1235.37,-180 1214.88,-169.46 1214.88,-154.54 1235.37,-144 1264.36,-144 1284.86,-154.54"/>
<text text-anchor="middle" x="1249.87" y="-159.8" font-family="Times,serif" font-size="9.00">Fallback**</text>
</g>
<!-- Sequence&#45;&gt;Fallback** -->
<g id="edge20" class="edge">
<title>Sequence&#45;&gt;Fallback**</title>
<path fill="none" stroke="black" d="M850.19,-231.19C916.66,-226.8 1076.34,-213.4 1205.87,-180 1208.53,-179.31 1211.24,-178.52 1213.96,-177.65"/>
<polygon fill="black" stroke="black" points="1215.38,-180.86 1223.67,-174.27 1213.07,-174.25 1215.38,-180.86"/>
</g>
<!-- MoveTo! -->
<g id="node3" class="node">
<title>MoveTo!</title>
<ellipse fill="gray" stroke="black" cx="28.87" cy="-90" rx="28.74" ry="18"/>
<text text-anchor="middle" x="28.87" y="-87.8" font-family="Times,serif" font-size="9.00">MoveTo!</text>
</g>
<!-- Fallback&#45;&gt;MoveTo! -->
<g id="edge2" class="edge">
<title>Fallback&#45;&gt;MoveTo!</title>
<path fill="none" stroke="black" d="M244.61,-155.15C204.09,-146.68 128.86,-129.63 66.87,-108 64.76,-107.26 62.61,-106.46 60.45,-105.61"/>
<polygon fill="black" stroke="black" points="61.69,-102.34 51.12,-101.71 58.99,-108.8 61.69,-102.34"/>
</g>
<!-- GetSubGoal! -->
<g id="node4" class="node">
<title>GetSubGoal!</title>
<ellipse fill="gray" stroke="black" cx="112.87" cy="-90" rx="36.9" ry="18"/>
<text text-anchor="middle" x="112.87" y="-87.8" font-family="Times,serif" font-size="9.00">GetSubGoal!</text>
</g>
<!-- Fallback&#45;&gt;GetSubGoal! -->
<g id="edge3" class="edge">
<title>Fallback&#45;&gt;GetSubGoal!</title>
<path fill="none" stroke="black" d="M250.46,-150.82C223.74,-139.21 179.75,-120.08 148.71,-106.58"/>
<polygon fill="black" stroke="black" points="150.09,-103.37 139.53,-102.59 147.3,-109.79 150.09,-103.37"/>
</g>
<!-- GetLk! -->
<g id="node5" class="node">
<title>GetLk!</title>
<ellipse fill="gray" stroke="black" cx="194.87" cy="-90" rx="27" ry="18"/>
<text text-anchor="middle" x="194.87" y="-87.8" font-family="Times,serif" font-size="9.00">GetLk!</text>
</g>
<!-- Fallback&#45;&gt;GetLk! -->
<g id="edge4" class="edge">
<title>Fallback&#45;&gt;GetLk!</title>
<path fill="none" stroke="black" d="M257.5,-146.5C246.05,-136.35 230.59,-122.65 217.89,-111.4"/>
<polygon fill="black" stroke="black" points="220.21,-108.78 210.41,-104.77 215.57,-114.02 220.21,-108.78"/>
</g>
<!-- Sequence* -->
<g id="node6" class="node">
<title>Sequence*</title>
<polygon fill="cyan" stroke="black" points="308.11,-82.54 308.11,-97.46 288.05,-108 259.68,-108 239.63,-97.46 239.63,-82.54 259.68,-72 288.05,-72 308.11,-82.54"/>
<text text-anchor="middle" x="273.87" y="-87.8" font-family="Times,serif" font-size="9.00">Sequence*</text>
</g>
<!-- Fallback&#45;&gt;Sequence* -->
<g id="edge5" class="edge">
<title>Fallback&#45;&gt;Sequence*</title>
<path fill="none" stroke="black" d="M273.87,-143.7C273.87,-135.98 273.87,-126.71 273.87,-118.11"/>
<polygon fill="black" stroke="black" points="277.37,-118.1 273.87,-108.1 270.37,-118.1 277.37,-118.1"/>
</g>
<!-- GetLk!* -->
<g id="node9" class="node">
<title>GetLk!*</title>
<ellipse fill="gray" stroke="black" cx="353.87" cy="-90" rx="27.27" ry="18"/>
<text text-anchor="middle" x="353.87" y="-87.8" font-family="Times,serif" font-size="9.00">GetLk!*</text>
</g>
<!-- Fallback&#45;&gt;GetLk!* -->
<g id="edge8" class="edge">
<title>Fallback&#45;&gt;GetLk!*</title>
<path fill="none" stroke="black" d="M290.44,-146.5C302.04,-136.35 317.69,-122.65 330.55,-111.4"/>
<polygon fill="black" stroke="black" points="332.91,-113.99 338.13,-104.77 328.3,-108.72 332.91,-113.99"/>
</g>
<!-- ReachGoal? -->
<g id="node10" class="node">
<title>ReachGoal?</title>
<ellipse fill="gray" stroke="black" cx="432.87" cy="-90" rx="34.13" ry="18"/>
<text text-anchor="middle" x="432.87" y="-87.8" font-family="Times,serif" font-size="9.00">ReachGoal?</text>
</g>
<!-- Fallback&#45;&gt;ReachGoal? -->
<g id="edge9" class="edge">
<title>Fallback&#45;&gt;ReachGoal?</title>
<path fill="none" stroke="black" d="M297.33,-150.67C323.91,-138.97 367.49,-119.78 398.04,-106.33"/>
<polygon fill="black" stroke="black" points="399.73,-109.42 407.47,-102.18 396.9,-103.01 399.73,-109.42"/>
</g>
<!-- LkClose? -->
<g id="node7" class="node">
<title>LkClose?</title>
<ellipse fill="gray" stroke="black" cx="233.87" cy="-18" rx="28.74" ry="18"/>
<text text-anchor="middle" x="233.87" y="-15.8" font-family="Times,serif" font-size="9.00">LkClose?</text>
</g>
<!-- Sequence*&#45;&gt;LkClose? -->
<g id="edge6" class="edge">
<title>Sequence*&#45;&gt;LkClose?</title>
<path fill="none" stroke="black" d="M263.98,-71.7C259.19,-63.32 253.35,-53.1 248.1,-43.9"/>
<polygon fill="black" stroke="black" points="251.09,-42.09 243.09,-35.14 245.02,-45.56 251.09,-42.09"/>
</g>
<!-- MoveTo!* -->
<g id="node8" class="node">
<title>MoveTo!*</title>
<ellipse fill="gray" stroke="black" cx="312.87" cy="-18" rx="31.51" ry="18"/>
<text text-anchor="middle" x="312.87" y="-15.8" font-family="Times,serif" font-size="9.00">MoveTo!*</text>
</g>
<!-- Sequence*&#45;&gt;MoveTo!* -->
<g id="edge7" class="edge">
<title>Sequence*&#45;&gt;MoveTo!*</title>
<path fill="none" stroke="black" d="M283.51,-71.7C288.06,-63.52 293.59,-53.6 298.61,-44.58"/>
<polygon fill="black" stroke="black" points="301.8,-46.06 303.61,-35.62 295.68,-42.65 301.8,-46.06"/>
</g>
<!-- ReachGoal?* -->
<g id="node12" class="node">
<title>ReachGoal?*</title>
<ellipse fill="gray" stroke="black" cx="521.87" cy="-90" rx="36.9" ry="18"/>
<text text-anchor="middle" x="521.87" y="-87.8" font-family="Times,serif" font-size="9.00">ReachGoal?*</text>
</g>
<!-- Fallback*&#45;&gt;ReachGoal?* -->
<g id="edge11" class="edge">
<title>Fallback*&#45;&gt;ReachGoal?*</title>
<path fill="none" stroke="black" d="M521.87,-143.7C521.87,-135.98 521.87,-126.71 521.87,-118.11"/>
<polygon fill="black" stroke="black" points="525.37,-118.1 521.87,-108.1 518.37,-118.1 525.37,-118.1"/>
</g>
<!-- GetSubGoal!* -->
<g id="node13" class="node">
<title>GetSubGoal!*</title>
<ellipse fill="gray" stroke="black" cx="615.87" cy="-90" rx="39.02" ry="18"/>
<text text-anchor="middle" x="615.87" y="-87.8" font-family="Times,serif" font-size="9.00">GetSubGoal!*</text>
</g>
<!-- Fallback*&#45;&gt;GetSubGoal!* -->
<g id="edge12" class="edge">
<title>Fallback*&#45;&gt;GetSubGoal!*</title>
<path fill="none" stroke="black" d="M540.89,-146.83C554.47,-136.72 572.95,-122.96 588.16,-111.63"/>
<polygon fill="black" stroke="black" points="590.3,-114.41 596.23,-105.63 586.12,-108.79 590.3,-114.41"/>
</g>
<!-- MoveTo!******* -->
<g id="node22" class="node">
<title>MoveTo!*******</title>
<ellipse fill="gray" stroke="black" cx="1002.87" cy="-90" rx="47.19" ry="18"/>
<text text-anchor="middle" x="1002.87" y="-87.8" font-family="Times,serif" font-size="9.00">MoveTo!*******</text>
</g>
<!-- Fallback**&#45;&gt;MoveTo!******* -->
<g id="edge21" class="edge">
<title>Fallback**&#45;&gt;MoveTo!*******</title>
<path fill="none" stroke="black" d="M1223.07,-150.02C1217.43,-147.89 1211.49,-145.77 1205.87,-144 1141.7,-123.84 1123.74,-125.78 1058.87,-108 1055.33,-107.03 1051.67,-106 1048,-104.93"/>
<polygon fill="black" stroke="black" points="1048.91,-101.55 1038.33,-102.08 1046.94,-108.27 1048.91,-101.55"/>
</g>
<!-- GetSubGoal!** -->
<g id="node23" class="node">
<title>GetSubGoal!**</title>
<ellipse fill="gray" stroke="black" cx="1109.87" cy="-90" rx="42.29" ry="18"/>
<text text-anchor="middle" x="1109.87" y="-87.8" font-family="Times,serif" font-size="9.00">GetSubGoal!**</text>
</g>
<!-- Fallback**&#45;&gt;GetSubGoal!** -->
<g id="edge22" class="edge">
<title>Fallback**&#45;&gt;GetSubGoal!**</title>
<path fill="none" stroke="black" d="M1225.48,-148.81C1203.39,-137.76 1170.57,-121.35 1145.53,-108.83"/>
<polygon fill="black" stroke="black" points="1146.86,-105.59 1136.35,-104.24 1143.73,-111.85 1146.86,-105.59"/>
</g>
<!-- GetLk!**** -->
<g id="node24" class="node">
<title>GetLk!****</title>
<ellipse fill="gray" stroke="black" cx="1204.87" cy="-90" rx="34.78" ry="18"/>
<text text-anchor="middle" x="1204.87" y="-87.8" font-family="Times,serif" font-size="9.00">GetLk!****</text>
</g>
<!-- Fallback**&#45;&gt;GetLk!**** -->
<g id="edge23" class="edge">
<title>Fallback**&#45;&gt;GetLk!****</title>
<path fill="none" stroke="black" d="M1238.74,-143.7C1233.43,-135.44 1226.98,-125.39 1221.13,-116.3"/>
<polygon fill="black" stroke="black" points="1223.91,-114.14 1215.55,-107.62 1218.02,-117.93 1223.91,-114.14"/>
</g>
<!-- GetLk!***** -->
<g id="node25" class="node">
<title>GetLk!*****</title>
<ellipse fill="gray" stroke="black" cx="1294.87" cy="-90" rx="37.56" ry="18"/>
<text text-anchor="middle" x="1294.87" y="-87.8" font-family="Times,serif" font-size="9.00">GetLk!*****</text>
</g>
<!-- Fallback**&#45;&gt;GetLk!***** -->
<g id="edge24" class="edge">
<title>Fallback**&#45;&gt;GetLk!*****</title>
<path fill="none" stroke="black" d="M1260.99,-143.7C1266.3,-135.44 1272.76,-125.39 1278.6,-116.3"/>
<polygon fill="black" stroke="black" points="1281.72,-117.93 1284.18,-107.62 1275.83,-114.14 1281.72,-117.93"/>
</g>
<!-- MoveTo!******** -->
<g id="node26" class="node">
<title>MoveTo!********</title>
<ellipse fill="gray" stroke="black" cx="1399.87" cy="-90" rx="49.8" ry="18"/>
<text text-anchor="middle" x="1399.87" y="-87.8" font-family="Times,serif" font-size="9.00">MoveTo!********</text>
</g>
<!-- Fallback**&#45;&gt;MoveTo!******** -->
<g id="edge25" class="edge">
<title>Fallback**&#45;&gt;MoveTo!********</title>
<path fill="none" stroke="black" d="M1274.97,-149.28C1298.55,-138.28 1334.16,-121.66 1361.33,-108.98"/>
<polygon fill="black" stroke="black" points="1362.98,-112.08 1370.56,-104.68 1360.02,-105.73 1362.98,-112.08"/>
</g>
<!-- ReachGoal?** -->
<g id="node27" class="node">
<title>ReachGoal?**</title>
<ellipse fill="gray" stroke="black" cx="1506.87" cy="-90" rx="39.02" ry="18"/>
<text text-anchor="middle" x="1506.87" y="-87.8" font-family="Times,serif" font-size="9.00">ReachGoal?**</text>
</g>
<!-- Fallback**&#45;&gt;ReachGoal?** -->
<g id="edge26" class="edge">
<title>Fallback**&#45;&gt;ReachGoal?**</title>
<path fill="none" stroke="black" d="M1283.07,-153.58C1324.51,-144.08 1397.43,-126.63 1458.87,-108 1461.78,-107.12 1464.77,-106.17 1467.77,-105.18"/>
<polygon fill="black" stroke="black" points="1468.96,-108.47 1477.31,-101.95 1466.71,-101.84 1468.96,-108.47"/>
</g>
</g>
</svg>
