<?xml version="1.0" encoding="UTF-8" standalone="no"?>
<!DOCTYPE svg PUBLIC "-//W3C//DTD SVG 1.1//EN"
 "http://www.w3.org/Graphics/SVG/1.1/DTD/svg11.dtd">
<!-- Generated by graphviz version 2.43.0 (0)
 -->
<!-- Title: pastafarianism Pages: 1 -->
<svg width="1400pt" height="260pt"
 viewBox="0.00 0.00 1400.32 260.00" xmlns="http://www.w3.org/2000/svg" xmlns:xlink="http://www.w3.org/1999/xlink">
<g id="graph0" class="graph" transform="scale(1 1) rotate(0) translate(4 256)">
<title>pastafarianism</title>
<polygon fill="white" stroke="transparent" points="-4,4 -4,-256 1396.32,-256 1396.32,4 -4,4"/>
<!-- Sequence -->
<g id="node1" class="node">
<title>Sequence</title>
<polygon fill="cyan" stroke="black" points="947.36,-226.54 947.36,-241.46 928.91,-252 902.82,-252 884.37,-241.46 884.37,-226.54 902.82,-216 928.91,-216 947.36,-226.54"/>
<text text-anchor="middle" x="915.87" y="-231.8" font-family="Times,serif" font-size="9.00">Sequence</text>
</g>
<!-- Fallback -->
<g id="node2" class="node">
<title>Fallback</title>
<polygon fill="cyan" stroke="black" points="343.11,-154.54 343.11,-169.46 325.98,-180 301.75,-180 284.62,-169.46 284.62,-154.54 301.75,-144 325.98,-144 343.11,-154.54"/>
<text text-anchor="middle" x="313.87" y="-159.8" font-family="Times,serif" font-size="9.00">Fallback</text>
</g>
<!-- Sequence&#45;&gt;Fallback -->
<g id="edge1" class="edge">
<title>Sequence&#45;&gt;Fallback</title>
<path fill="none" stroke="black" d="M884.35,-229.34C782.99,-217.55 465.49,-180.63 353.48,-167.61"/>
<polygon fill="black" stroke="black" points="353.63,-164.1 343.29,-166.42 352.82,-171.05 353.63,-164.1"/>
</g>
<!-- GetLk!*** -->
<g id="node13" class="node">
<title>GetLk!***</title>
<ellipse fill="gray" stroke="black" cx="615.87" cy="-162" rx="32.16" ry="18"/>
<text text-anchor="middle" x="615.87" y="-159.8" font-family="Times,serif" font-size="9.00">GetLk!***</text>
</g>
<!-- Sequence&#45;&gt;GetLk!*** -->
<g id="edge12" class="edge">
<title>Sequence&#45;&gt;GetLk!***</title>
<path fill="none" stroke="black" d="M884.29,-228.53C835.01,-221.12 737.17,-204.62 656.87,-180 654.57,-179.29 652.22,-178.51 649.87,-177.67"/>
<polygon fill="black" stroke="black" points="650.89,-174.32 640.3,-174.03 648.4,-180.86 650.89,-174.32"/>
</g>
<!-- Fallback* -->
<g id="node14" class="node">
<title>Fallback*</title>
<polygon fill="cyan" stroke="black" points="729.61,-154.54 729.61,-169.46 711.02,-180 684.72,-180 666.13,-169.46 666.13,-154.54 684.72,-144 711.02,-144 729.61,-154.54"/>
<text text-anchor="middle" x="697.87" y="-159.8" font-family="Times,serif" font-size="9.00">Fallback*</text>
</g>
<!-- Sequence&#45;&gt;Fallback* -->
<g id="edge13" class="edge">
<title>Sequence&#45;&gt;Fallback*</title>
<path fill="none" stroke="black" d="M887.03,-224.91C852.34,-215.03 792.47,-197.46 741.87,-180 738.94,-178.99 735.92,-177.91 732.9,-176.8"/>
<polygon fill="black" stroke="black" points="733.94,-173.45 723.34,-173.21 731.47,-180 733.94,-173.45"/>
</g>
<!-- Fallback** -->
<g id="node17" class="node">
<title>Fallback**</title>
<polygon fill="cyan" stroke="black" points="820.86,-154.54 820.86,-169.46 800.36,-180 771.37,-180 750.88,-169.46 750.88,-154.54 771.37,-144 800.36,-144 820.86,-154.54"/>
<text text-anchor="middle" x="785.87" y="-159.8" font-family="Times,serif" font-size="9.00">Fallback**</text>
</g>
<!-- Sequence&#45;&gt;Fallback** -->
<g id="edge16" class="edge">
<title>Sequence&#45;&gt;Fallback**</title>
<path fill="none" stroke="black" d="M893.81,-221.13C873.09,-209.97 841.84,-193.14 818.28,-180.45"/>
<polygon fill="black" stroke="black" points="819.81,-177.3 809.35,-175.64 816.49,-183.47 819.81,-177.3"/>
</g>
<!-- MoveTo!** -->
<g id="node21" class="node">
<title>MoveTo!**</title>
<ellipse fill="gray" stroke="black" cx="872.87" cy="-162" rx="34.13" ry="18"/>
<text text-anchor="middle" x="872.87" y="-159.8" font-family="Times,serif" font-size="9.00">MoveTo!**</text>
</g>
<!-- Sequence&#45;&gt;MoveTo!** -->
<g id="edge20" class="edge">
<title>Sequence&#45;&gt;MoveTo!**</title>
<path fill="none" stroke="black" d="M905.24,-215.7C900.16,-207.44 894,-197.39 888.41,-188.3"/>
<polygon fill="black" stroke="black" points="891.29,-186.31 883.08,-179.62 885.33,-189.98 891.29,-186.31"/>
</g>
<!-- GetLk!**** -->
<g id="node22" class="node">
<title>GetLk!****</title>
<ellipse fill="gray" stroke="black" cx="959.87" cy="-162" rx="34.78" ry="18"/>
<text text-anchor="middle" x="959.87" y="-159.8" font-family="Times,serif" font-size="9.00">GetLk!****</text>
</g>
<!-- Sequence&#45;&gt;GetLk!**** -->
<g id="edge21" class="edge">
<title>Sequence&#45;&gt;GetLk!****</title>
<path fill="none" stroke="black" d="M926.74,-215.7C931.94,-207.44 938.25,-197.39 943.97,-188.3"/>
<polygon fill="black" stroke="black" points="947.06,-189.95 949.42,-179.62 941.13,-186.23 947.06,-189.95"/>
</g>
<!-- MoveTo!*** -->
<g id="node23" class="node">
<title>MoveTo!***</title>
<ellipse fill="gray" stroke="black" cx="1049.87" cy="-162" rx="36.9" ry="18"/>
<text text-anchor="middle" x="1049.87" y="-159.8" font-family="Times,serif" font-size="9.00">MoveTo!***</text>
</g>
<!-- Sequence&#45;&gt;MoveTo!*** -->
<g id="edge22" class="edge">
<title>Sequence&#45;&gt;MoveTo!***</title>
<path fill="none" stroke="black" d="M938.3,-221.28C959.7,-210.1 992.21,-193.12 1016.63,-180.36"/>
<polygon fill="black" stroke="black" points="1018.31,-183.44 1025.55,-175.7 1015.07,-177.23 1018.31,-183.44"/>
</g>
<!-- MoveTo!**** -->
<g id="node24" class="node">
<title>MoveTo!****</title>
<ellipse fill="gray" stroke="black" cx="1143.87" cy="-162" rx="39.02" ry="18"/>
<text text-anchor="middle" x="1143.87" y="-159.8" font-family="Times,serif" font-size="9.00">MoveTo!****</text>
</g>
<!-- Sequence&#45;&gt;MoveTo!**** -->
<g id="edge23" class="edge">
<title>Sequence&#45;&gt;MoveTo!****</title>
<path fill="none" stroke="black" d="M945.01,-224.94C980.73,-214.95 1043.03,-197.12 1095.87,-180 1098.63,-179.11 1101.47,-178.16 1104.32,-177.19"/>
<polygon fill="black" stroke="black" points="1105.68,-180.43 1113.99,-173.86 1103.4,-173.81 1105.68,-180.43"/>
</g>
<!-- MoveTo!***** -->
<g id="node25" class="node">
<title>MoveTo!*****</title>
<ellipse fill="gray" stroke="black" cx="1242.87" cy="-162" rx="42.29" ry="18"/>
<text text-anchor="middle" x="1242.87" y="-159.8" font-family="Times,serif" font-size="9.00">MoveTo!*****</text>
</g>
<!-- Sequence&#45;&gt;MoveTo!***** -->
<g id="edge24" class="edge">
<title>Sequence&#45;&gt;MoveTo!*****</title>
<path fill="none" stroke="black" d="M947.21,-228.36C998.72,-220.44 1104.3,-202.89 1191.87,-180 1195.07,-179.16 1198.37,-178.23 1201.67,-177.24"/>
<polygon fill="black" stroke="black" points="1203,-180.5 1211.5,-174.18 1200.92,-173.81 1203,-180.5"/>
</g>
<!-- MoveTo!****** -->
<g id="node26" class="node">
<title>MoveTo!******</title>
<ellipse fill="gray" stroke="black" cx="1347.87" cy="-162" rx="44.41" ry="18"/>
<text text-anchor="middle" x="1347.87" y="-159.8" font-family="Times,serif" font-size="9.00">MoveTo!******</text>
</g>
<!-- Sequence&#45;&gt;MoveTo!****** -->
<g id="edge25" class="edge">
<title>Sequence&#45;&gt;MoveTo!******</title>
<path fill="none" stroke="black" d="M947.55,-230.35C1012.9,-224.48 1167.18,-208.62 1293.87,-180 1297.53,-179.17 1301.31,-178.21 1305.08,-177.18"/>
<polygon fill="black" stroke="black" points="1306.35,-180.45 1314.98,-174.31 1304.4,-173.73 1306.35,-180.45"/>
</g>
<!-- MoveTo! -->
<g id="node3" class="node">
<title>MoveTo!</title>
<ellipse fill="gray" stroke="black" cx="28.87" cy="-90" rx="28.74" ry="18"/>
<text text-anchor="middle" x="28.87" y="-87.8" font-family="Times,serif" font-size="9.00">MoveTo!</text>
</g>
<!-- Fallback&#45;&gt;MoveTo! -->
<g id="edge2" class="edge">
<title>Fallback&#45;&gt;MoveTo!</title>
<path fill="none" stroke="black" d="M284.45,-156.73C237.61,-149.49 143.57,-133.08 66.87,-108 64.75,-107.31 62.58,-106.53 60.42,-105.71"/>
<polygon fill="black" stroke="black" points="61.65,-102.43 51.07,-101.86 58.98,-108.9 61.65,-102.43"/>
</g>
<!-- GetSubGoal! -->
<g id="node4" class="node">
<title>GetSubGoal!</title>
<ellipse fill="gray" stroke="black" cx="112.87" cy="-90" rx="36.9" ry="18"/>
<text text-anchor="middle" x="112.87" y="-87.8" font-family="Times,serif" font-size="9.00">GetSubGoal!</text>
</g>
<!-- Fallback&#45;&gt;GetSubGoal! -->
<g id="edge3" class="edge">
<title>Fallback&#45;&gt;GetSubGoal!</title>
<path fill="none" stroke="black" d="M288.02,-152.38C257.2,-142.05 204.15,-124.11 158.87,-108 156.32,-107.09 153.7,-106.15 151.07,-105.2"/>
<polygon fill="black" stroke="black" points="152.13,-101.86 141.54,-101.72 149.73,-108.44 152.13,-101.86"/>
</g>
<!-- GetLk! -->
<g id="node5" class="node">
<title>GetLk!</title>
<ellipse fill="gray" stroke="black" cx="194.87" cy="-90" rx="27" ry="18"/>
<text text-anchor="middle" x="194.87" y="-87.8" font-family="Times,serif" font-size="9.00">GetLk!</text>
</g>
<!-- Fallback&#45;&gt;GetLk! -->
<g id="edge4" class="edge">
<title>Fallback&#45;&gt;GetLk!</title>
<path fill="none" stroke="black" d="M293.41,-148.97C274.11,-137.61 244.98,-120.48 223.4,-107.78"/>
<polygon fill="black" stroke="black" points="225.06,-104.7 214.66,-102.64 221.51,-110.73 225.06,-104.7"/>
</g>
<!-- Sequence* -->
<g id="node6" class="node">
<title>Sequence*</title>
<polygon fill="cyan" stroke="black" points="308.11,-82.54 308.11,-97.46 288.05,-108 259.68,-108 239.63,-97.46 239.63,-82.54 259.68,-72 288.05,-72 308.11,-82.54"/>
<text text-anchor="middle" x="273.87" y="-87.8" font-family="Times,serif" font-size="9.00">Sequence*</text>
</g>
<!-- Fallback&#45;&gt;Sequence* -->
<g id="edge5" class="edge">
<title>Fallback&#45;&gt;Sequence*</title>
<path fill="none" stroke="black" d="M303.98,-143.7C299.38,-135.64 293.81,-125.89 288.71,-116.98"/>
<polygon fill="black" stroke="black" points="291.64,-115.05 283.64,-108.1 285.56,-118.52 291.64,-115.05"/>
</g>
<!-- GetLk!* -->
<g id="node10" class="node">
<title>GetLk!*</title>
<ellipse fill="gray" stroke="black" cx="353.87" cy="-90" rx="27.27" ry="18"/>
<text text-anchor="middle" x="353.87" y="-87.8" font-family="Times,serif" font-size="9.00">GetLk!*</text>
</g>
<!-- Fallback&#45;&gt;GetLk!* -->
<g id="edge9" class="edge">
<title>Fallback&#45;&gt;GetLk!*</title>
<path fill="none" stroke="black" d="M323.76,-143.7C328.54,-135.32 334.38,-125.1 339.64,-115.9"/>
<polygon fill="black" stroke="black" points="342.72,-117.56 344.64,-107.14 336.64,-114.09 342.72,-117.56"/>
</g>
<!-- GetLk!** -->
<g id="node11" class="node">
<title>GetLk!**</title>
<ellipse fill="gray" stroke="black" cx="428.87" cy="-90" rx="29.39" ry="18"/>
<text text-anchor="middle" x="428.87" y="-87.8" font-family="Times,serif" font-size="9.00">GetLk!**</text>
</g>
<!-- Fallback&#45;&gt;GetLk!** -->
<g id="edge10" class="edge">
<title>Fallback&#45;&gt;GetLk!**</title>
<path fill="none" stroke="black" d="M333.9,-148.81C352.17,-137.68 379.39,-121.12 400.01,-108.57"/>
<polygon fill="black" stroke="black" points="401.96,-111.48 408.68,-103.29 398.32,-105.5 401.96,-111.48"/>
</g>
<!-- ReachGoal? -->
<g id="node12" class="node">
<title>ReachGoal?</title>
<ellipse fill="gray" stroke="black" cx="510.87" cy="-90" rx="34.13" ry="18"/>
<text text-anchor="middle" x="510.87" y="-87.8" font-family="Times,serif" font-size="9.00">ReachGoal?</text>
</g>
<!-- Fallback&#45;&gt;ReachGoal? -->
<g id="edge11" class="edge">
<title>Fallback&#45;&gt;ReachGoal?</title>
<path fill="none" stroke="black" d="M339.68,-152.37C370.18,-142.1 422.39,-124.29 466.87,-108 469.53,-107.02 472.29,-106 475.05,-104.96"/>
<polygon fill="black" stroke="black" points="476.3,-108.23 484.4,-101.4 473.81,-101.69 476.3,-108.23"/>
</g>
<!-- LkClose? -->
<g id="node7" class="node">
<title>LkClose?</title>
<ellipse fill="gray" stroke="black" cx="187.87" cy="-18" rx="28.74" ry="18"/>
<text text-anchor="middle" x="187.87" y="-15.8" font-family="Times,serif" font-size="9.00">LkClose?</text>
</g>
<!-- Sequence*&#45;&gt;LkClose? -->
<g id="edge6" class="edge">
<title>Sequence*&#45;&gt;LkClose?</title>
<path fill="none" stroke="black" d="M255.21,-73.81C242.77,-63.69 226.28,-50.27 212.74,-39.24"/>
<polygon fill="black" stroke="black" points="214.71,-36.33 204.74,-32.74 210.29,-41.76 214.71,-36.33"/>
</g>
<!-- GetSubGoal!* -->
<g id="node8" class="node">
<title>GetSubGoal!*</title>
<ellipse fill="gray" stroke="black" cx="273.87" cy="-18" rx="39.02" ry="18"/>
<text text-anchor="middle" x="273.87" y="-15.8" font-family="Times,serif" font-size="9.00">GetSubGoal!*</text>
</g>
<!-- Sequence*&#45;&gt;GetSubGoal!* -->
<g id="edge7" class="edge">
<title>Sequence*&#45;&gt;GetSubGoal!*</title>
<path fill="none" stroke="black" d="M273.87,-71.7C273.87,-63.98 273.87,-54.71 273.87,-46.11"/>
<polygon fill="black" stroke="black" points="277.37,-46.1 273.87,-36.1 270.37,-46.1 277.37,-46.1"/>
</g>
<!-- MoveTo!* -->
<g id="node9" class="node">
<title>MoveTo!*</title>
<ellipse fill="gray" stroke="black" cx="362.87" cy="-18" rx="31.51" ry="18"/>
<text text-anchor="middle" x="362.87" y="-15.8" font-family="Times,serif" font-size="9.00">MoveTo!*</text>
</g>
<!-- Sequence*&#45;&gt;MoveTo!* -->
<g id="edge8" class="edge">
<title>Sequence*&#45;&gt;MoveTo!*</title>
<path fill="none" stroke="black" d="M292.74,-74.15C305.62,-64.02 322.85,-50.47 337.01,-39.34"/>
<polygon fill="black" stroke="black" points="339.23,-42.04 344.93,-33.11 334.91,-36.54 339.23,-42.04"/>
</g>
<!-- ReachGoal?* -->
<g id="node15" class="node">
<title>ReachGoal?*</title>
<ellipse fill="gray" stroke="black" cx="599.87" cy="-90" rx="36.9" ry="18"/>
<text text-anchor="middle" x="599.87" y="-87.8" font-family="Times,serif" font-size="9.00">ReachGoal?*</text>
</g>
<!-- Fallback*&#45;&gt;ReachGoal?* -->
<g id="edge14" class="edge">
<title>Fallback*&#45;&gt;ReachGoal?*</title>
<path fill="none" stroke="black" d="M678.51,-147.17C664.2,-136.95 644.49,-122.87 628.38,-111.37"/>
<polygon fill="black" stroke="black" points="630.03,-108.25 619.86,-105.28 625.96,-113.94 630.03,-108.25"/>
</g>
<!-- GetSubGoal!** -->
<g id="node16" class="node">
<title>GetSubGoal!**</title>
<ellipse fill="gray" stroke="black" cx="696.87" cy="-90" rx="42.29" ry="18"/>
<text text-anchor="middle" x="696.87" y="-87.8" font-family="Times,serif" font-size="9.00">GetSubGoal!**</text>
</g>
<!-- Fallback*&#45;&gt;GetSubGoal!** -->
<g id="edge15" class="edge">
<title>Fallback*&#45;&gt;GetSubGoal!**</title>
<path fill="none" stroke="black" d="M697.62,-143.7C697.51,-135.98 697.38,-126.71 697.25,-118.11"/>
<polygon fill="black" stroke="black" points="700.75,-118.05 697.11,-108.1 693.76,-118.15 700.75,-118.05"/>
</g>
<!-- LkGraph? -->
<g id="node18" class="node">
<title>LkGraph?</title>
<ellipse fill="gray" stroke="black" cx="787.87" cy="-90" rx="30.7" ry="18"/>
<text text-anchor="middle" x="787.87" y="-87.8" font-family="Times,serif" font-size="9.00">LkGraph?</text>
</g>
<!-- Fallback**&#45;&gt;LkGraph? -->
<g id="edge17" class="edge">
<title>Fallback**&#45;&gt;LkGraph?</title>
<path fill="none" stroke="black" d="M786.36,-143.7C786.58,-135.98 786.85,-126.71 787.09,-118.11"/>
<polygon fill="black" stroke="black" points="790.59,-118.2 787.38,-108.1 783.59,-118 790.59,-118.2"/>
</g>
<!-- GetSubGoal!*** -->
<g id="node19" class="node">
<title>GetSubGoal!***</title>
<ellipse fill="gray" stroke="black" cx="880.87" cy="-90" rx="44.41" ry="18"/>
<text text-anchor="middle" x="880.87" y="-87.8" font-family="Times,serif" font-size="9.00">GetSubGoal!***</text>
</g>
<!-- Fallback**&#45;&gt;GetSubGoal!*** -->
<g id="edge18" class="edge">
<title>Fallback**&#45;&gt;GetSubGoal!***</title>
<path fill="none" stroke="black" d="M805.55,-146.5C818.91,-136.65 836.8,-123.47 851.79,-112.43"/>
<polygon fill="black" stroke="black" points="854.25,-114.96 860.22,-106.21 850.1,-109.33 854.25,-114.96"/>
</g>
<!-- GetSubGoal!**** -->
<g id="node20" class="node">
<title>GetSubGoal!****</title>
<ellipse fill="gray" stroke="black" cx="990.87" cy="-90" rx="47.19" ry="18"/>
<text text-anchor="middle" x="990.87" y="-87.8" font-family="Times,serif" font-size="9.00">GetSubGoal!****</text>
</g>
<!-- Fallback**&#45;&gt;GetSubGoal!**** -->
<g id="edge19" class="edge">
<title>Fallback**&#45;&gt;GetSubGoal!****</title>
<path fill="none" stroke="black" d="M812.78,-150.35C818.41,-148.2 824.32,-145.98 829.87,-144 868.79,-130.08 913.47,-115.48 945.87,-105.14"/>
<polygon fill="black" stroke="black" points="947.05,-108.44 955.52,-102.07 944.93,-101.77 947.05,-108.44"/>
</g>
</g>
</svg>
