<?xml version="1.0" encoding="UTF-8" standalone="no"?>
<!DOCTYPE svg PUBLIC "-//W3C//DTD SVG 1.1//EN"
 "http://www.w3.org/Graphics/SVG/1.1/DTD/svg11.dtd">
<!-- Generated by graphviz version 2.43.0 (0)
 -->
<!-- Title: pastafarianism Pages: 1 -->
<svg width="491pt" height="260pt"
 viewBox="0.00 0.00 490.77 260.00" xmlns="http://www.w3.org/2000/svg" xmlns:xlink="http://www.w3.org/1999/xlink">
<g id="graph0" class="graph" transform="scale(1 1) rotate(0) translate(4 256)">
<title>pastafarianism</title>
<polygon fill="white" stroke="transparent" points="-4,4 -4,-256 486.77,-256 486.77,4 -4,4"/>
<!-- Fallback -->
<g id="node1" class="node">
<title>Fallback</title>
<polygon fill="cyan" stroke="black" points="293.01,-226.54 293.01,-241.46 275.88,-252 251.65,-252 234.52,-241.46 234.52,-226.54 251.65,-216 275.88,-216 293.01,-226.54"/>
<text text-anchor="middle" x="263.77" y="-231.8" font-family="Times,serif" font-size="9.00">Fallback</text>
</g>
<!-- ReachGoal? -->
<g id="node2" class="node">
<title>ReachGoal?</title>
<ellipse fill="gray" stroke="black" cx="222.77" cy="-162" rx="34.13" ry="18"/>
<text text-anchor="middle" x="222.77" y="-159.8" font-family="Times,serif" font-size="9.00">ReachGoal?</text>
</g>
<!-- Fallback&#45;&gt;ReachGoal? -->
<g id="edge1" class="edge">
<title>Fallback&#45;&gt;ReachGoal?</title>
<path fill="none" stroke="black" d="M253.63,-215.7C248.79,-207.44 242.91,-197.39 237.58,-188.3"/>
<polygon fill="black" stroke="black" points="240.58,-186.48 232.5,-179.62 234.54,-190.02 240.58,-186.48"/>
</g>
<!-- Sequence -->
<g id="node3" class="node">
<title>Sequence</title>
<polygon fill="cyan" stroke="black" points="337.26,-154.54 337.26,-169.46 318.81,-180 292.72,-180 274.27,-169.46 274.27,-154.54 292.72,-144 318.81,-144 337.26,-154.54"/>
<text text-anchor="middle" x="305.77" y="-159.8" font-family="Times,serif" font-size="9.00">Sequence</text>
</g>
<!-- Fallback&#45;&gt;Sequence -->
<g id="edge2" class="edge">
<title>Fallback&#45;&gt;Sequence</title>
<path fill="none" stroke="black" d="M274.15,-215.7C279.03,-207.56 284.95,-197.69 290.34,-188.7"/>
<polygon fill="black" stroke="black" points="293.36,-190.48 295.5,-180.1 287.36,-186.88 293.36,-190.48"/>
</g>
<!-- Fallback* -->
<g id="node4" class="node">
<title>Fallback*</title>
<polygon fill="cyan" stroke="black" points="180.51,-82.54 180.51,-97.46 161.91,-108 135.62,-108 117.02,-97.46 117.02,-82.54 135.62,-72 161.91,-72 180.51,-82.54"/>
<text text-anchor="middle" x="148.77" y="-87.8" font-family="Times,serif" font-size="9.00">Fallback*</text>
</g>
<!-- Sequence&#45;&gt;Fallback* -->
<g id="edge3" class="edge">
<title>Sequence&#45;&gt;Fallback*</title>
<path fill="none" stroke="black" d="M281.58,-150.22C254.96,-138.35 211.99,-119.19 182.16,-105.89"/>
<polygon fill="black" stroke="black" points="183.54,-102.67 172.98,-101.8 180.69,-109.07 183.54,-102.67"/>
</g>
<!-- LkGraph? -->
<g id="node8" class="node">
<title>LkGraph?</title>
<ellipse fill="gray" stroke="black" cx="228.77" cy="-90" rx="30.7" ry="18"/>
<text text-anchor="middle" x="228.77" y="-87.8" font-family="Times,serif" font-size="9.00">LkGraph?</text>
</g>
<!-- Sequence&#45;&gt;LkGraph? -->
<g id="edge7" class="edge">
<title>Sequence&#45;&gt;LkGraph?</title>
<path fill="none" stroke="black" d="M289.06,-145.81C278.25,-135.98 264.01,-123.04 252.09,-112.21"/>
<polygon fill="black" stroke="black" points="254.41,-109.58 244.65,-105.44 249.7,-114.76 254.41,-109.58"/>
</g>
<!-- MoveTo! -->
<g id="node9" class="node">
<title>MoveTo!</title>
<ellipse fill="gray" stroke="black" cx="305.77" cy="-90" rx="28.74" ry="18"/>
<text text-anchor="middle" x="305.77" y="-87.8" font-family="Times,serif" font-size="9.00">MoveTo!</text>
</g>
<!-- Sequence&#45;&gt;MoveTo! -->
<g id="edge8" class="edge">
<title>Sequence&#45;&gt;MoveTo!</title>
<path fill="none" stroke="black" d="M305.77,-143.7C305.77,-135.98 305.77,-126.71 305.77,-118.11"/>
<polygon fill="black" stroke="black" points="309.27,-118.1 305.77,-108.1 302.27,-118.1 309.27,-118.1"/>
</g>
<!-- LkClose? -->
<g id="node10" class="node">
<title>LkClose?</title>
<ellipse fill="gray" stroke="black" cx="381.77" cy="-90" rx="28.74" ry="18"/>
<text text-anchor="middle" x="381.77" y="-87.8" font-family="Times,serif" font-size="9.00">LkClose?</text>
</g>
<!-- Sequence&#45;&gt;LkClose? -->
<g id="edge9" class="edge">
<title>Sequence&#45;&gt;LkClose?</title>
<path fill="none" stroke="black" d="M322.26,-145.81C332.83,-136.08 346.71,-123.29 358.4,-112.52"/>
<polygon fill="black" stroke="black" points="361.1,-114.79 366.09,-105.44 356.36,-109.64 361.1,-114.79"/>
</g>
<!-- GetLk! -->
<g id="node11" class="node">
<title>GetLk!</title>
<ellipse fill="gray" stroke="black" cx="455.77" cy="-90" rx="27" ry="18"/>
<text text-anchor="middle" x="455.77" y="-87.8" font-family="Times,serif" font-size="9.00">GetLk!</text>
</g>
<!-- Sequence&#45;&gt;GetLk! -->
<g id="edge10" class="edge">
<title>Sequence&#45;&gt;GetLk!</title>
<path fill="none" stroke="black" d="M329.8,-149.87C352.89,-139.18 388.74,-122.54 419.77,-108 421.55,-107.16 423.38,-106.3 425.23,-105.43"/>
<polygon fill="black" stroke="black" points="426.9,-108.52 434.45,-101.09 423.92,-102.18 426.9,-108.52"/>
</g>
<!-- NotReadyForSG? -->
<g id="node5" class="node">
<title>NotReadyForSG?</title>
<ellipse fill="gray" stroke="black" cx="46.77" cy="-18" rx="46.53" ry="18"/>
<text text-anchor="middle" x="46.77" y="-15.8" font-family="Times,serif" font-size="9.00">NotReadyForSG?</text>
</g>
<!-- Fallback*&#45;&gt;NotReadyForSG? -->
<g id="edge4" class="edge">
<title>Fallback*&#45;&gt;NotReadyForSG?</title>
<path fill="none" stroke="black" d="M129.1,-75.5C114.41,-65.42 94.05,-51.45 77.26,-39.93"/>
<polygon fill="black" stroke="black" points="79.08,-36.93 68.85,-34.16 75.12,-42.7 79.08,-36.93"/>
</g>
<!-- GetSubGoal! -->
<g id="node6" class="node">
<title>GetSubGoal!</title>
<ellipse fill="gray" stroke="black" cx="148.77" cy="-18" rx="36.9" ry="18"/>
<text text-anchor="middle" x="148.77" y="-15.8" font-family="Times,serif" font-size="9.00">GetSubGoal!</text>
</g>
<!-- Fallback*&#45;&gt;GetSubGoal! -->
<g id="edge5" class="edge">
<title>Fallback*&#45;&gt;GetSubGoal!</title>
<path fill="none" stroke="black" d="M148.77,-71.7C148.77,-63.98 148.77,-54.71 148.77,-46.11"/>
<polygon fill="black" stroke="black" points="152.27,-46.1 148.77,-36.1 145.27,-46.1 152.27,-46.1"/>
</g>
<!-- CompLkGraph! -->
<g id="node7" class="node">
<title>CompLkGraph!</title>
<ellipse fill="gray" stroke="black" cx="246.77" cy="-18" rx="42.95" ry="18"/>
<text text-anchor="middle" x="246.77" y="-15.8" font-family="Times,serif" font-size="9.00">CompLkGraph!</text>
</g>
<!-- Fallback*&#45;&gt;CompLkGraph! -->
<g id="edge6" class="edge">
<title>Fallback*&#45;&gt;CompLkGraph!</title>
<path fill="none" stroke="black" d="M168.13,-75.17C182.25,-65.08 201.63,-51.24 217.61,-39.82"/>
<polygon fill="black" stroke="black" points="219.99,-42.43 226.09,-33.77 215.92,-36.73 219.99,-42.43"/>
</g>
</g>
</svg>
