<?xml version="1.0" encoding="UTF-8" standalone="no"?>
<!DOCTYPE svg PUBLIC "-//W3C//DTD SVG 1.1//EN"
 "http://www.w3.org/Graphics/SVG/1.1/DTD/svg11.dtd">
<!-- Generated by graphviz version 2.43.0 (0)
 -->
<!-- Title: pastafarianism Pages: 1 -->
<svg width="691pt" height="260pt"
 viewBox="0.00 0.00 690.90 260.00" xmlns="http://www.w3.org/2000/svg" xmlns:xlink="http://www.w3.org/1999/xlink">
<g id="graph0" class="graph" transform="scale(1 1) rotate(0) translate(4 256)">
<title>pastafarianism</title>
<polygon fill="white" stroke="transparent" points="-4,4 -4,-256 686.9,-256 686.9,4 -4,4"/>
<!-- Fallback -->
<g id="node1" class="node">
<title>Fallback</title>
<polygon fill="cyan" stroke="black" points="423.01,-226.54 423.01,-241.46 405.88,-252 381.65,-252 364.52,-241.46 364.52,-226.54 381.65,-216 405.88,-216 423.01,-226.54"/>
<text text-anchor="middle" x="393.77" y="-231.8" font-family="Times,serif" font-size="9.00">Fallback</text>
</g>
<!-- ReachGoal? -->
<g id="node2" class="node">
<title>ReachGoal?</title>
<ellipse fill="gray" stroke="black" cx="352.77" cy="-162" rx="34.13" ry="18"/>
<text text-anchor="middle" x="352.77" y="-159.8" font-family="Times,serif" font-size="9.00">ReachGoal?</text>
</g>
<!-- Fallback&#45;&gt;ReachGoal? -->
<g id="edge1" class="edge">
<title>Fallback&#45;&gt;ReachGoal?</title>
<path fill="none" stroke="black" d="M383.63,-215.7C378.79,-207.44 372.91,-197.39 367.58,-188.3"/>
<polygon fill="black" stroke="black" points="370.58,-186.48 362.5,-179.62 364.54,-190.02 370.58,-186.48"/>
</g>
<!-- Sequence -->
<g id="node3" class="node">
<title>Sequence</title>
<polygon fill="cyan" stroke="black" points="467.26,-154.54 467.26,-169.46 448.81,-180 422.72,-180 404.27,-169.46 404.27,-154.54 422.72,-144 448.81,-144 467.26,-154.54"/>
<text text-anchor="middle" x="435.77" y="-159.8" font-family="Times,serif" font-size="9.00">Sequence</text>
</g>
<!-- Fallback&#45;&gt;Sequence -->
<g id="edge2" class="edge">
<title>Fallback&#45;&gt;Sequence</title>
<path fill="none" stroke="black" d="M404.15,-215.7C409.03,-207.56 414.95,-197.69 420.34,-188.7"/>
<polygon fill="black" stroke="black" points="423.36,-190.48 425.5,-180.1 417.36,-186.88 423.36,-190.48"/>
</g>
<!-- Fallback* -->
<g id="node4" class="node">
<title>Fallback*</title>
<polygon fill="cyan" stroke="black" points="262.51,-82.54 262.51,-97.46 243.91,-108 217.62,-108 199.02,-97.46 199.02,-82.54 217.62,-72 243.91,-72 262.51,-82.54"/>
<text text-anchor="middle" x="230.77" y="-87.8" font-family="Times,serif" font-size="9.00">Fallback*</text>
</g>
<!-- Sequence&#45;&gt;Fallback* -->
<g id="edge3" class="edge">
<title>Sequence&#45;&gt;Fallback*</title>
<path fill="none" stroke="black" d="M411.41,-150.09C406.29,-147.96 400.89,-145.82 395.77,-144 341.28,-124.66 325.25,-127.34 270.77,-108 268.69,-107.26 266.56,-106.47 264.42,-105.65"/>
<polygon fill="black" stroke="black" points="265.7,-102.39 255.12,-101.91 263.09,-108.88 265.7,-102.39"/>
</g>
<!-- LkGraph? -->
<g id="node10" class="node">
<title>LkGraph?</title>
<ellipse fill="gray" stroke="black" cx="310.77" cy="-90" rx="30.7" ry="18"/>
<text text-anchor="middle" x="310.77" y="-87.8" font-family="Times,serif" font-size="9.00">LkGraph?</text>
</g>
<!-- Sequence&#45;&gt;LkGraph? -->
<g id="edge9" class="edge">
<title>Sequence&#45;&gt;LkGraph?</title>
<path fill="none" stroke="black" d="M413.99,-148.81C393.83,-137.51 363.64,-120.61 341.12,-108"/>
<polygon fill="black" stroke="black" points="342.72,-104.89 332.29,-103.05 339.3,-110.99 342.72,-104.89"/>
</g>
<!-- MoveTo! -->
<g id="node11" class="node">
<title>MoveTo!</title>
<ellipse fill="gray" stroke="black" cx="387.77" cy="-90" rx="28.74" ry="18"/>
<text text-anchor="middle" x="387.77" y="-87.8" font-family="Times,serif" font-size="9.00">MoveTo!</text>
</g>
<!-- Sequence&#45;&gt;MoveTo! -->
<g id="edge10" class="edge">
<title>Sequence&#45;&gt;MoveTo!</title>
<path fill="none" stroke="black" d="M423.9,-143.7C418.09,-135.23 411,-124.89 404.64,-115.61"/>
<polygon fill="black" stroke="black" points="407.38,-113.41 398.84,-107.14 401.6,-117.37 407.38,-113.41"/>
</g>
<!-- NotReadyForSG?* -->
<g id="node12" class="node">
<title>NotReadyForSG?*</title>
<ellipse fill="gray" stroke="black" cx="484.77" cy="-90" rx="49.8" ry="18"/>
<text text-anchor="middle" x="484.77" y="-87.8" font-family="Times,serif" font-size="9.00">NotReadyForSG?*</text>
</g>
<!-- Sequence&#45;&gt;NotReadyForSG?* -->
<g id="edge11" class="edge">
<title>Sequence&#45;&gt;NotReadyForSG?*</title>
<path fill="none" stroke="black" d="M447.88,-143.7C453.72,-135.35 460.84,-125.18 467.25,-116.02"/>
<polygon fill="black" stroke="black" points="470.26,-117.82 473.13,-107.62 464.53,-113.81 470.26,-117.82"/>
</g>
<!-- LkClose? -->
<g id="node13" class="node">
<title>LkClose?</title>
<ellipse fill="gray" stroke="black" cx="581.77" cy="-90" rx="28.74" ry="18"/>
<text text-anchor="middle" x="581.77" y="-87.8" font-family="Times,serif" font-size="9.00">LkClose?</text>
</g>
<!-- Sequence&#45;&gt;LkClose? -->
<g id="edge12" class="edge">
<title>Sequence&#45;&gt;LkClose?</title>
<path fill="none" stroke="black" d="M459.22,-149.75C483.88,-137.93 522.82,-119.26 550.18,-106.15"/>
<polygon fill="black" stroke="black" points="551.82,-109.24 559.33,-101.76 548.79,-102.93 551.82,-109.24"/>
</g>
<!-- GetLk!* -->
<g id="node14" class="node">
<title>GetLk!*</title>
<ellipse fill="gray" stroke="black" cx="655.77" cy="-90" rx="27.27" ry="18"/>
<text text-anchor="middle" x="655.77" y="-87.8" font-family="Times,serif" font-size="9.00">GetLk!*</text>
</g>
<!-- Sequence&#45;&gt;GetLk!* -->
<g id="edge13" class="edge">
<title>Sequence&#45;&gt;GetLk!*</title>
<path fill="none" stroke="black" d="M466.21,-153.83C503.1,-144.78 566.89,-127.95 619.77,-108 621.61,-107.3 623.49,-106.55 625.37,-105.77"/>
<polygon fill="black" stroke="black" points="626.96,-108.89 634.69,-101.64 624.13,-102.49 626.96,-108.89"/>
</g>
<!-- NotReadyForSG? -->
<g id="node5" class="node">
<title>NotReadyForSG?</title>
<ellipse fill="gray" stroke="black" cx="46.77" cy="-18" rx="46.53" ry="18"/>
<text text-anchor="middle" x="46.77" y="-15.8" font-family="Times,serif" font-size="9.00">NotReadyForSG?</text>
</g>
<!-- Fallback*&#45;&gt;NotReadyForSG? -->
<g id="edge4" class="edge">
<title>Fallback*&#45;&gt;NotReadyForSG?</title>
<path fill="none" stroke="black" d="M204.79,-79.12C174.55,-67.61 124.19,-48.45 88.45,-34.86"/>
<polygon fill="black" stroke="black" points="89.38,-31.47 78.79,-31.18 86.89,-38.01 89.38,-31.47"/>
</g>
<!-- GetSubGoal! -->
<g id="node6" class="node">
<title>GetSubGoal!</title>
<ellipse fill="gray" stroke="black" cx="148.77" cy="-18" rx="36.9" ry="18"/>
<text text-anchor="middle" x="148.77" y="-15.8" font-family="Times,serif" font-size="9.00">GetSubGoal!</text>
</g>
<!-- Fallback*&#45;&gt;GetSubGoal! -->
<g id="edge5" class="edge">
<title>Fallback*&#45;&gt;GetSubGoal!</title>
<path fill="none" stroke="black" d="M213.38,-74.15C202.04,-64.48 187.04,-51.68 174.36,-40.85"/>
<polygon fill="black" stroke="black" points="176.29,-37.9 166.41,-34.07 171.75,-43.22 176.29,-37.9"/>
</g>
<!-- GetLk! -->
<g id="node7" class="node">
<title>GetLk!</title>
<ellipse fill="gray" stroke="black" cx="230.77" cy="-18" rx="27" ry="18"/>
<text text-anchor="middle" x="230.77" y="-15.8" font-family="Times,serif" font-size="9.00">GetLk!</text>
</g>
<!-- Fallback*&#45;&gt;GetLk! -->
<g id="edge6" class="edge">
<title>Fallback*&#45;&gt;GetLk!</title>
<path fill="none" stroke="black" d="M230.77,-71.7C230.77,-63.98 230.77,-54.71 230.77,-46.11"/>
<polygon fill="black" stroke="black" points="234.27,-46.1 230.77,-36.1 227.27,-46.1 234.27,-46.1"/>
</g>
<!-- GetSubGoal!* -->
<g id="node8" class="node">
<title>GetSubGoal!*</title>
<ellipse fill="gray" stroke="black" cx="314.77" cy="-18" rx="39.02" ry="18"/>
<text text-anchor="middle" x="314.77" y="-15.8" font-family="Times,serif" font-size="9.00">GetSubGoal!*</text>
</g>
<!-- Fallback*&#45;&gt;GetSubGoal!* -->
<g id="edge7" class="edge">
<title>Fallback*&#45;&gt;GetSubGoal!*</title>
<path fill="none" stroke="black" d="M248.58,-74.15C260.3,-64.38 275.84,-51.43 288.92,-40.54"/>
<polygon fill="black" stroke="black" points="291.25,-43.16 296.69,-34.07 286.76,-37.78 291.25,-43.16"/>
</g>
<!-- CompLkGraph! -->
<g id="node9" class="node">
<title>CompLkGraph!</title>
<ellipse fill="gray" stroke="black" cx="414.77" cy="-18" rx="42.95" ry="18"/>
<text text-anchor="middle" x="414.77" y="-15.8" font-family="Times,serif" font-size="9.00">CompLkGraph!</text>
</g>
<!-- Fallback*&#45;&gt;CompLkGraph! -->
<g id="edge8" class="edge">
<title>Fallback*&#45;&gt;CompLkGraph!</title>
<path fill="none" stroke="black" d="M255.23,-78.38C260.34,-76.22 265.71,-74 270.77,-72 305.1,-58.39 344.49,-43.98 373.38,-33.62"/>
<polygon fill="black" stroke="black" points="374.9,-36.8 383.13,-30.14 372.54,-30.21 374.9,-36.8"/>
</g>
</g>
</svg>
