<?xml version="1.0" encoding="UTF-8" standalone="no"?>
<!DOCTYPE svg PUBLIC "-//W3C//DTD SVG 1.1//EN"
 "http://www.w3.org/Graphics/SVG/1.1/DTD/svg11.dtd">
<!-- Generated by graphviz version 2.43.0 (0)
 -->
<!-- Title: pastafarianism Pages: 1 -->
<svg width="1217pt" height="260pt"
 viewBox="0.00 0.00 1216.83 260.00" xmlns="http://www.w3.org/2000/svg" xmlns:xlink="http://www.w3.org/1999/xlink">
<g id="graph0" class="graph" transform="scale(1 1) rotate(0) translate(4 256)">
<title>pastafarianism</title>
<polygon fill="white" stroke="transparent" points="-4,4 -4,-256 1212.83,-256 1212.83,4 -4,4"/>
<!-- Fallback -->
<g id="node1" class="node">
<title>Fallback</title>
<polygon fill="cyan" stroke="black" points="828.01,-226.54 828.01,-241.46 810.88,-252 786.65,-252 769.52,-241.46 769.52,-226.54 786.65,-216 810.88,-216 828.01,-226.54"/>
<text text-anchor="middle" x="798.77" y="-231.8" font-family="Times,serif" font-size="9.00">Fallback</text>
</g>
<!-- ReachGoal? -->
<g id="node2" class="node">
<title>ReachGoal?</title>
<ellipse fill="gray" stroke="black" cx="757.77" cy="-162" rx="34.13" ry="18"/>
<text text-anchor="middle" x="757.77" y="-159.8" font-family="Times,serif" font-size="9.00">ReachGoal?</text>
</g>
<!-- Fallback&#45;&gt;ReachGoal? -->
<g id="edge1" class="edge">
<title>Fallback&#45;&gt;ReachGoal?</title>
<path fill="none" stroke="black" d="M788.63,-215.7C783.79,-207.44 777.91,-197.39 772.58,-188.3"/>
<polygon fill="black" stroke="black" points="775.58,-186.48 767.5,-179.62 769.54,-190.02 775.58,-186.48"/>
</g>
<!-- Sequence -->
<g id="node3" class="node">
<title>Sequence</title>
<polygon fill="cyan" stroke="black" points="872.26,-154.54 872.26,-169.46 853.81,-180 827.72,-180 809.27,-169.46 809.27,-154.54 827.72,-144 853.81,-144 872.26,-154.54"/>
<text text-anchor="middle" x="840.77" y="-159.8" font-family="Times,serif" font-size="9.00">Sequence</text>
</g>
<!-- Fallback&#45;&gt;Sequence -->
<g id="edge2" class="edge">
<title>Fallback&#45;&gt;Sequence</title>
<path fill="none" stroke="black" d="M809.15,-215.7C814.03,-207.56 819.95,-197.69 825.34,-188.7"/>
<polygon fill="black" stroke="black" points="828.36,-190.48 830.5,-180.1 822.36,-186.88 828.36,-190.48"/>
</g>
<!-- Fallback* -->
<g id="node4" class="node">
<title>Fallback*</title>
<polygon fill="cyan" stroke="black" points="368.51,-82.54 368.51,-97.46 349.91,-108 323.62,-108 305.02,-97.46 305.02,-82.54 323.62,-72 349.91,-72 368.51,-82.54"/>
<text text-anchor="middle" x="336.77" y="-87.8" font-family="Times,serif" font-size="9.00">Fallback*</text>
</g>
<!-- Sequence&#45;&gt;Fallback* -->
<g id="edge3" class="edge">
<title>Sequence&#45;&gt;Fallback*</title>
<path fill="none" stroke="black" d="M817.47,-149.77C812.09,-147.55 806.31,-145.46 800.77,-144 721.43,-123.08 477.56,-102.12 378.87,-94.25"/>
<polygon fill="black" stroke="black" points="378.92,-90.74 368.68,-93.44 378.37,-97.72 378.92,-90.74"/>
</g>
<!-- MoveTo! -->
<g id="node11" class="node">
<title>MoveTo!</title>
<ellipse fill="gray" stroke="black" cx="594.77" cy="-90" rx="28.74" ry="18"/>
<text text-anchor="middle" x="594.77" y="-87.8" font-family="Times,serif" font-size="9.00">MoveTo!</text>
</g>
<!-- Sequence&#45;&gt;MoveTo! -->
<g id="edge10" class="edge">
<title>Sequence&#45;&gt;MoveTo!</title>
<path fill="none" stroke="black" d="M816.93,-149.99C811.68,-147.82 806.09,-145.68 800.77,-144 727.96,-120.96 705.35,-131.72 632.77,-108 630.64,-107.31 628.48,-106.53 626.32,-105.71"/>
<polygon fill="black" stroke="black" points="627.54,-102.43 616.96,-101.86 624.88,-108.9 627.54,-102.43"/>
</g>
<!-- Fallback** -->
<g id="node12" class="node">
<title>Fallback**</title>
<polygon fill="cyan" stroke="black" points="711.76,-82.54 711.76,-97.46 691.26,-108 662.27,-108 641.77,-97.46 641.77,-82.54 662.27,-72 691.26,-72 711.76,-82.54"/>
<text text-anchor="middle" x="676.77" y="-87.8" font-family="Times,serif" font-size="9.00">Fallback**</text>
</g>
<!-- Sequence&#45;&gt;Fallback** -->
<g id="edge11" class="edge">
<title>Sequence&#45;&gt;Fallback**</title>
<path fill="none" stroke="black" d="M816.21,-150.52C788.6,-138.73 743.52,-119.49 712.12,-106.09"/>
<polygon fill="black" stroke="black" points="713.41,-102.84 702.84,-102.13 710.67,-109.28 713.41,-102.84"/>
</g>
<!-- LkGraph? -->
<g id="node16" class="node">
<title>LkGraph?</title>
<ellipse fill="gray" stroke="black" cx="760.77" cy="-90" rx="30.7" ry="18"/>
<text text-anchor="middle" x="760.77" y="-87.8" font-family="Times,serif" font-size="9.00">LkGraph?</text>
</g>
<!-- Sequence&#45;&gt;LkGraph? -->
<g id="edge15" class="edge">
<title>Sequence&#45;&gt;LkGraph?</title>
<path fill="none" stroke="black" d="M823.8,-146.15C812.51,-136.28 797.51,-123.15 784.98,-112.19"/>
<polygon fill="black" stroke="black" points="786.99,-109.3 777.16,-105.35 782.38,-114.56 786.99,-109.3"/>
</g>
<!-- MoveTo!* -->
<g id="node17" class="node">
<title>MoveTo!*</title>
<ellipse fill="gray" stroke="black" cx="840.77" cy="-90" rx="31.51" ry="18"/>
<text text-anchor="middle" x="840.77" y="-87.8" font-family="Times,serif" font-size="9.00">MoveTo!*</text>
</g>
<!-- Sequence&#45;&gt;MoveTo!* -->
<g id="edge16" class="edge">
<title>Sequence&#45;&gt;MoveTo!*</title>
<path fill="none" stroke="black" d="M840.77,-143.7C840.77,-135.98 840.77,-126.71 840.77,-118.11"/>
<polygon fill="black" stroke="black" points="844.27,-118.1 840.77,-108.1 837.27,-118.1 844.27,-118.1"/>
</g>
<!-- LkClose?* -->
<g id="node18" class="node">
<title>LkClose?*</title>
<ellipse fill="gray" stroke="black" cx="922.77" cy="-90" rx="31.51" ry="18"/>
<text text-anchor="middle" x="922.77" y="-87.8" font-family="Times,serif" font-size="9.00">LkClose?*</text>
</g>
<!-- Sequence&#45;&gt;LkClose?* -->
<g id="edge17" class="edge">
<title>Sequence&#45;&gt;LkClose?*</title>
<path fill="none" stroke="black" d="M858.16,-146.15C869.84,-136.18 885.39,-122.9 898.31,-111.87"/>
<polygon fill="black" stroke="black" points="900.63,-114.5 905.96,-105.35 896.08,-109.18 900.63,-114.5"/>
</g>
<!-- GetLk! -->
<g id="node19" class="node">
<title>GetLk!</title>
<ellipse fill="gray" stroke="black" cx="999.77" cy="-90" rx="27" ry="18"/>
<text text-anchor="middle" x="999.77" y="-87.8" font-family="Times,serif" font-size="9.00">GetLk!</text>
</g>
<!-- Sequence&#45;&gt;GetLk! -->
<g id="edge18" class="edge">
<title>Sequence&#45;&gt;GetLk!</title>
<path fill="none" stroke="black" d="M865.85,-150.49C890.78,-139.97 930.07,-123.21 963.77,-108 965.56,-107.19 967.4,-106.35 969.26,-105.49"/>
<polygon fill="black" stroke="black" points="970.91,-108.58 978.5,-101.19 967.96,-102.24 970.91,-108.58"/>
</g>
<!-- ReachGoal?** -->
<g id="node20" class="node">
<title>ReachGoal?**</title>
<ellipse fill="gray" stroke="black" cx="1083.77" cy="-90" rx="39.02" ry="18"/>
<text text-anchor="middle" x="1083.77" y="-87.8" font-family="Times,serif" font-size="9.00">ReachGoal?**</text>
</g>
<!-- Sequence&#45;&gt;ReachGoal?** -->
<g id="edge19" class="edge">
<title>Sequence&#45;&gt;ReachGoal?**</title>
<path fill="none" stroke="black" d="M870.7,-153.61C909.15,-143.94 977.84,-126.1 1035.77,-108 1038.67,-107.09 1041.66,-106.12 1044.66,-105.12"/>
<polygon fill="black" stroke="black" points="1045.85,-108.41 1054.18,-101.87 1043.59,-101.79 1045.85,-108.41"/>
</g>
<!-- LkClose?** -->
<g id="node21" class="node">
<title>LkClose?**</title>
<ellipse fill="gray" stroke="black" cx="1174.77" cy="-90" rx="34.13" ry="18"/>
<text text-anchor="middle" x="1174.77" y="-87.8" font-family="Times,serif" font-size="9.00">LkClose?**</text>
</g>
<!-- Sequence&#45;&gt;LkClose?** -->
<g id="edge20" class="edge">
<title>Sequence&#45;&gt;LkClose?**</title>
<path fill="none" stroke="black" d="M872.23,-157.33C926.12,-150.59 1039.19,-134.45 1131.77,-108 1134.35,-107.26 1137,-106.42 1139.65,-105.53"/>
<polygon fill="black" stroke="black" points="1140.92,-108.79 1149.13,-102.09 1138.53,-102.21 1140.92,-108.79"/>
</g>
<!-- NotReadyForSG? -->
<g id="node5" class="node">
<title>NotReadyForSG?</title>
<ellipse fill="gray" stroke="black" cx="46.77" cy="-18" rx="46.53" ry="18"/>
<text text-anchor="middle" x="46.77" y="-15.8" font-family="Times,serif" font-size="9.00">NotReadyForSG?</text>
</g>
<!-- Fallback*&#45;&gt;NotReadyForSG? -->
<g id="edge4" class="edge">
<title>Fallback*&#45;&gt;NotReadyForSG?</title>
<path fill="none" stroke="black" d="M304.8,-82.52C259.57,-73.18 174.44,-54.97 102.77,-36 99.16,-35.05 95.45,-34.02 91.72,-32.96"/>
<polygon fill="black" stroke="black" points="92.49,-29.53 81.9,-30.09 90.52,-36.25 92.49,-29.53"/>
</g>
<!-- GetSubGoal! -->
<g id="node6" class="node">
<title>GetSubGoal!</title>
<ellipse fill="gray" stroke="black" cx="148.77" cy="-18" rx="36.9" ry="18"/>
<text text-anchor="middle" x="148.77" y="-15.8" font-family="Times,serif" font-size="9.00">GetSubGoal!</text>
</g>
<!-- Fallback*&#45;&gt;GetSubGoal! -->
<g id="edge5" class="edge">
<title>Fallback*&#45;&gt;GetSubGoal!</title>
<path fill="none" stroke="black" d="M310.62,-79.27C278.39,-67.27 223.37,-46.78 186.55,-33.07"/>
<polygon fill="black" stroke="black" points="187.73,-29.77 177.14,-29.56 185.29,-36.33 187.73,-29.77"/>
</g>
<!-- GetSubGoal!* -->
<g id="node7" class="node">
<title>GetSubGoal!*</title>
<ellipse fill="gray" stroke="black" cx="242.77" cy="-18" rx="39.02" ry="18"/>
<text text-anchor="middle" x="242.77" y="-15.8" font-family="Times,serif" font-size="9.00">GetSubGoal!*</text>
</g>
<!-- Fallback*&#45;&gt;GetSubGoal!* -->
<g id="edge6" class="edge">
<title>Fallback*&#45;&gt;GetSubGoal!*</title>
<path fill="none" stroke="black" d="M317.74,-74.83C304.16,-64.72 285.69,-50.96 270.47,-39.63"/>
<polygon fill="black" stroke="black" points="272.52,-36.79 262.41,-33.63 268.34,-42.41 272.52,-36.79"/>
</g>
<!-- ReachGoal?* -->
<g id="node8" class="node">
<title>ReachGoal?*</title>
<ellipse fill="gray" stroke="black" cx="336.77" cy="-18" rx="36.9" ry="18"/>
<text text-anchor="middle" x="336.77" y="-15.8" font-family="Times,serif" font-size="9.00">ReachGoal?*</text>
</g>
<!-- Fallback*&#45;&gt;ReachGoal?* -->
<g id="edge7" class="edge">
<title>Fallback*&#45;&gt;ReachGoal?*</title>
<path fill="none" stroke="black" d="M336.77,-71.7C336.77,-63.98 336.77,-54.71 336.77,-46.11"/>
<polygon fill="black" stroke="black" points="340.27,-46.1 336.77,-36.1 333.27,-46.1 340.27,-46.1"/>
</g>
<!-- CompLkGraph! -->
<g id="node9" class="node">
<title>CompLkGraph!</title>
<ellipse fill="gray" stroke="black" cx="434.77" cy="-18" rx="42.95" ry="18"/>
<text text-anchor="middle" x="434.77" y="-15.8" font-family="Times,serif" font-size="9.00">CompLkGraph!</text>
</g>
<!-- Fallback*&#45;&gt;CompLkGraph! -->
<g id="edge8" class="edge">
<title>Fallback*&#45;&gt;CompLkGraph!</title>
<path fill="none" stroke="black" d="M356.13,-75.17C370.25,-65.08 389.63,-51.24 405.61,-39.82"/>
<polygon fill="black" stroke="black" points="407.99,-42.43 414.09,-33.77 403.92,-36.73 407.99,-42.43"/>
</g>
<!-- LkClose? -->
<g id="node10" class="node">
<title>LkClose?</title>
<ellipse fill="gray" stroke="black" cx="524.77" cy="-18" rx="28.74" ry="18"/>
<text text-anchor="middle" x="524.77" y="-15.8" font-family="Times,serif" font-size="9.00">LkClose?</text>
</g>
<!-- Fallback*&#45;&gt;LkClose? -->
<g id="edge9" class="edge">
<title>Fallback*&#45;&gt;LkClose?</title>
<path fill="none" stroke="black" d="M364.39,-79.99C394.67,-69.94 444.57,-52.86 486.77,-36 488.63,-35.26 490.53,-34.47 492.45,-33.67"/>
<polygon fill="black" stroke="black" points="494.19,-36.73 501.99,-29.55 491.42,-30.3 494.19,-36.73"/>
</g>
<!-- NotReadyForSG?* -->
<g id="node13" class="node">
<title>NotReadyForSG?*</title>
<ellipse fill="gray" stroke="black" cx="621.77" cy="-18" rx="49.8" ry="18"/>
<text text-anchor="middle" x="621.77" y="-15.8" font-family="Times,serif" font-size="9.00">NotReadyForSG?*</text>
</g>
<!-- Fallback**&#45;&gt;NotReadyForSG?* -->
<g id="edge12" class="edge">
<title>Fallback**&#45;&gt;NotReadyForSG?*</title>
<path fill="none" stroke="black" d="M663.17,-71.7C656.55,-63.27 648.46,-52.97 641.2,-43.73"/>
<polygon fill="black" stroke="black" points="643.76,-41.32 634.83,-35.62 638.25,-45.65 643.76,-41.32"/>
</g>
<!-- GetSubGoal!** -->
<g id="node14" class="node">
<title>GetSubGoal!**</title>
<ellipse fill="gray" stroke="black" cx="731.77" cy="-18" rx="42.29" ry="18"/>
<text text-anchor="middle" x="731.77" y="-15.8" font-family="Times,serif" font-size="9.00">GetSubGoal!**</text>
</g>
<!-- Fallback**&#45;&gt;GetSubGoal!** -->
<g id="edge13" class="edge">
<title>Fallback**&#45;&gt;GetSubGoal!**</title>
<path fill="none" stroke="black" d="M690.36,-71.7C696.99,-63.27 705.07,-52.97 712.33,-43.73"/>
<polygon fill="black" stroke="black" points="715.28,-45.65 718.7,-35.62 709.77,-41.32 715.28,-45.65"/>
</g>
<!-- CompLkGraph!* -->
<g id="node15" class="node">
<title>CompLkGraph!*</title>
<ellipse fill="gray" stroke="black" cx="836.77" cy="-18" rx="45.07" ry="18"/>
<text text-anchor="middle" x="836.77" y="-15.8" font-family="Times,serif" font-size="9.00">CompLkGraph!*</text>
</g>
<!-- Fallback**&#45;&gt;CompLkGraph!* -->
<g id="edge14" class="edge">
<title>Fallback**&#45;&gt;CompLkGraph!*</title>
<path fill="none" stroke="black" d="M702.47,-77.75C728.38,-66.42 768.67,-48.79 798.36,-35.8"/>
<polygon fill="black" stroke="black" points="799.84,-38.98 807.6,-31.76 797.03,-32.56 799.84,-38.98"/>
</g>
</g>
</svg>
