<?xml version="1.0" encoding="UTF-8" standalone="no"?>
<!DOCTYPE svg PUBLIC "-//W3C//DTD SVG 1.1//EN"
 "http://www.w3.org/Graphics/SVG/1.1/DTD/svg11.dtd">
<!-- Generated by graphviz version 2.43.0 (0)
 -->
<!-- Title: pastafarianism Pages: 1 -->
<svg width="1110pt" height="260pt"
 viewBox="0.00 0.00 1109.70 260.00" xmlns="http://www.w3.org/2000/svg" xmlns:xlink="http://www.w3.org/1999/xlink">
<g id="graph0" class="graph" transform="scale(1 1) rotate(0) translate(4 256)">
<title>pastafarianism</title>
<polygon fill="white" stroke="transparent" points="-4,4 -4,-256 1105.7,-256 1105.7,4 -4,4"/>
<!-- Fallback -->
<g id="node1" class="node">
<title>Fallback</title>
<polygon fill="cyan" stroke="black" points="772.19,-226.54 772.19,-241.46 755.06,-252 730.84,-252 713.71,-241.46 713.71,-226.54 730.84,-216 755.06,-216 772.19,-226.54"/>
<text text-anchor="middle" x="742.95" y="-231.8" font-family="Times,serif" font-size="9.00">Fallback</text>
</g>
<!-- ReachGoal? -->
<g id="node2" class="node">
<title>ReachGoal?</title>
<ellipse fill="gray" stroke="black" cx="701.95" cy="-162" rx="34.13" ry="18"/>
<text text-anchor="middle" x="701.95" y="-159.8" font-family="Times,serif" font-size="9.00">ReachGoal?</text>
</g>
<!-- Fallback&#45;&gt;ReachGoal? -->
<g id="edge1" class="edge">
<title>Fallback&#45;&gt;ReachGoal?</title>
<path fill="none" stroke="black" d="M732.82,-215.7C727.98,-207.44 722.1,-197.39 716.77,-188.3"/>
<polygon fill="black" stroke="black" points="719.76,-186.48 711.69,-179.62 713.72,-190.02 719.76,-186.48"/>
</g>
<!-- Sequence -->
<g id="node3" class="node">
<title>Sequence</title>
<polygon fill="cyan" stroke="black" points="816.44,-154.54 816.44,-169.46 798,-180 771.91,-180 753.46,-169.46 753.46,-154.54 771.91,-144 798,-144 816.44,-154.54"/>
<text text-anchor="middle" x="784.95" y="-159.8" font-family="Times,serif" font-size="9.00">Sequence</text>
</g>
<!-- Fallback&#45;&gt;Sequence -->
<g id="edge2" class="edge">
<title>Fallback&#45;&gt;Sequence</title>
<path fill="none" stroke="black" d="M753.33,-215.7C758.22,-207.56 764.14,-197.69 769.53,-188.7"/>
<polygon fill="black" stroke="black" points="772.54,-190.48 774.69,-180.1 766.54,-186.88 772.54,-190.48"/>
</g>
<!-- Fallback* -->
<g id="node4" class="node">
<title>Fallback*</title>
<polygon fill="cyan" stroke="black" points="310.69,-82.54 310.69,-97.46 292.1,-108 265.8,-108 247.21,-97.46 247.21,-82.54 265.8,-72 292.1,-72 310.69,-82.54"/>
<text text-anchor="middle" x="278.95" y="-87.8" font-family="Times,serif" font-size="9.00">Fallback*</text>
</g>
<!-- Sequence&#45;&gt;Fallback* -->
<g id="edge3" class="edge">
<title>Sequence&#45;&gt;Fallback*</title>
<path fill="none" stroke="black" d="M761.66,-149.77C756.27,-147.55 750.5,-145.46 744.95,-144 665.28,-123.01 420.35,-102.09 321.24,-94.24"/>
<polygon fill="black" stroke="black" points="321.24,-90.73 311,-93.43 320.69,-97.71 321.24,-90.73"/>
</g>
<!-- Fallback** -->
<g id="node10" class="node">
<title>Fallback**</title>
<polygon fill="cyan" stroke="black" points="620.94,-82.54 620.94,-97.46 600.44,-108 571.46,-108 550.96,-97.46 550.96,-82.54 571.46,-72 600.44,-72 620.94,-82.54"/>
<text text-anchor="middle" x="585.95" y="-87.8" font-family="Times,serif" font-size="9.00">Fallback**</text>
</g>
<!-- Sequence&#45;&gt;Fallback** -->
<g id="edge9" class="edge">
<title>Sequence&#45;&gt;Fallback**</title>
<path fill="none" stroke="black" d="M760.56,-150.19C755.44,-148.04 750.05,-145.88 744.95,-144 694.69,-125.5 680.51,-125.66 629.95,-108 627.43,-107.12 624.83,-106.19 622.23,-105.23"/>
<polygon fill="black" stroke="black" points="623.43,-101.94 612.84,-101.71 620.97,-108.5 623.43,-101.94"/>
</g>
<!-- LkGraph? -->
<g id="node14" class="node">
<title>LkGraph?</title>
<ellipse fill="gray" stroke="black" cx="669.95" cy="-90" rx="30.7" ry="18"/>
<text text-anchor="middle" x="669.95" y="-87.8" font-family="Times,serif" font-size="9.00">LkGraph?</text>
</g>
<!-- Sequence&#45;&gt;LkGraph? -->
<g id="edge13" class="edge">
<title>Sequence&#45;&gt;LkGraph?</title>
<path fill="none" stroke="black" d="M764.12,-148.32C745.97,-137.27 719.44,-121.13 699.17,-108.78"/>
<polygon fill="black" stroke="black" points="700.98,-105.79 690.62,-103.58 697.34,-111.77 700.98,-105.79"/>
</g>
<!-- MoveTo! -->
<g id="node15" class="node">
<title>MoveTo!</title>
<ellipse fill="gray" stroke="black" cx="746.95" cy="-90" rx="28.74" ry="18"/>
<text text-anchor="middle" x="746.95" y="-87.8" font-family="Times,serif" font-size="9.00">MoveTo!</text>
</g>
<!-- Sequence&#45;&gt;MoveTo! -->
<g id="edge14" class="edge">
<title>Sequence&#45;&gt;MoveTo!</title>
<path fill="none" stroke="black" d="M775.56,-143.7C771.12,-135.52 765.73,-125.6 760.84,-116.58"/>
<polygon fill="black" stroke="black" points="763.82,-114.74 755.97,-107.62 757.67,-118.08 763.82,-114.74"/>
</g>
<!-- LkClose? -->
<g id="node16" class="node">
<title>LkClose?</title>
<ellipse fill="gray" stroke="black" cx="822.95" cy="-90" rx="28.74" ry="18"/>
<text text-anchor="middle" x="822.95" y="-87.8" font-family="Times,serif" font-size="9.00">LkClose?</text>
</g>
<!-- Sequence&#45;&gt;LkClose? -->
<g id="edge15" class="edge">
<title>Sequence&#45;&gt;LkClose?</title>
<path fill="none" stroke="black" d="M794.34,-143.7C798.78,-135.52 804.17,-125.6 809.06,-116.58"/>
<polygon fill="black" stroke="black" points="812.23,-118.08 813.93,-107.62 806.08,-114.74 812.23,-118.08"/>
</g>
<!-- GetLk! -->
<g id="node17" class="node">
<title>GetLk!</title>
<ellipse fill="gray" stroke="black" cx="896.95" cy="-90" rx="27" ry="18"/>
<text text-anchor="middle" x="896.95" y="-87.8" font-family="Times,serif" font-size="9.00">GetLk!</text>
</g>
<!-- Sequence&#45;&gt;GetLk! -->
<g id="edge16" class="edge">
<title>Sequence&#45;&gt;GetLk!</title>
<path fill="none" stroke="black" d="M805.49,-148.16C823.35,-137 849.37,-120.74 869.09,-108.41"/>
<polygon fill="black" stroke="black" points="871.04,-111.32 877.66,-103.06 867.33,-105.39 871.04,-111.32"/>
</g>
<!-- ReachGoal?** -->
<g id="node18" class="node">
<title>ReachGoal?**</title>
<ellipse fill="gray" stroke="black" cx="980.95" cy="-90" rx="39.02" ry="18"/>
<text text-anchor="middle" x="980.95" y="-87.8" font-family="Times,serif" font-size="9.00">ReachGoal?**</text>
</g>
<!-- Sequence&#45;&gt;ReachGoal?** -->
<g id="edge17" class="edge">
<title>Sequence&#45;&gt;ReachGoal?**</title>
<path fill="none" stroke="black" d="M811.38,-151.56C844.67,-139.67 902.17,-119.14 940.87,-105.31"/>
<polygon fill="black" stroke="black" points="942.53,-108.44 950.77,-101.78 940.17,-101.85 942.53,-108.44"/>
</g>
<!-- LkClose?* -->
<g id="node19" class="node">
<title>LkClose?*</title>
<ellipse fill="gray" stroke="black" cx="1069.95" cy="-90" rx="31.51" ry="18"/>
<text text-anchor="middle" x="1069.95" y="-87.8" font-family="Times,serif" font-size="9.00">LkClose?*</text>
</g>
<!-- Sequence&#45;&gt;LkClose?* -->
<g id="edge18" class="edge">
<title>Sequence&#45;&gt;LkClose?*</title>
<path fill="none" stroke="black" d="M816.23,-156.06C863.1,-148.23 954.07,-131.45 1028.95,-108 1031.4,-107.23 1033.9,-106.38 1036.4,-105.48"/>
<polygon fill="black" stroke="black" points="1037.86,-108.66 1045.93,-101.8 1035.34,-102.13 1037.86,-108.66"/>
</g>
<!-- GetSubGoal! -->
<g id="node5" class="node">
<title>GetSubGoal!</title>
<ellipse fill="gray" stroke="black" cx="36.95" cy="-18" rx="36.9" ry="18"/>
<text text-anchor="middle" x="36.95" y="-15.8" font-family="Times,serif" font-size="9.00">GetSubGoal!</text>
</g>
<!-- Fallback*&#45;&gt;GetSubGoal! -->
<g id="edge4" class="edge">
<title>Fallback*&#45;&gt;GetSubGoal!</title>
<path fill="none" stroke="black" d="M248.48,-81.67C209.73,-72.13 140.88,-54.49 82.95,-36 80.21,-35.13 77.4,-34.19 74.57,-33.22"/>
<polygon fill="black" stroke="black" points="75.63,-29.88 65.03,-29.83 73.29,-36.47 75.63,-29.88"/>
</g>
<!-- GetSubGoal!* -->
<g id="node6" class="node">
<title>GetSubGoal!*</title>
<ellipse fill="gray" stroke="black" cx="130.95" cy="-18" rx="39.02" ry="18"/>
<text text-anchor="middle" x="130.95" y="-15.8" font-family="Times,serif" font-size="9.00">GetSubGoal!*</text>
</g>
<!-- Fallback*&#45;&gt;GetSubGoal!* -->
<g id="edge5" class="edge">
<title>Fallback*&#45;&gt;GetSubGoal!*</title>
<path fill="none" stroke="black" d="M255.17,-77.75C231.27,-66.45 194.13,-48.88 166.69,-35.9"/>
<polygon fill="black" stroke="black" points="167.96,-32.63 157.42,-31.52 164.96,-38.96 167.96,-32.63"/>
</g>
<!-- GetSubGoal!** -->
<g id="node7" class="node">
<title>GetSubGoal!**</title>
<ellipse fill="gray" stroke="black" cx="229.95" cy="-18" rx="42.29" ry="18"/>
<text text-anchor="middle" x="229.95" y="-15.8" font-family="Times,serif" font-size="9.00">GetSubGoal!**</text>
</g>
<!-- Fallback*&#45;&gt;GetSubGoal!** -->
<g id="edge6" class="edge">
<title>Fallback*&#45;&gt;GetSubGoal!**</title>
<path fill="none" stroke="black" d="M266.84,-71.7C261,-63.35 253.88,-53.18 247.46,-44.02"/>
<polygon fill="black" stroke="black" points="250.19,-41.81 241.59,-35.62 244.45,-45.82 250.19,-41.81"/>
</g>
<!-- ReachGoal?* -->
<g id="node8" class="node">
<title>ReachGoal?*</title>
<ellipse fill="gray" stroke="black" cx="326.95" cy="-18" rx="36.9" ry="18"/>
<text text-anchor="middle" x="326.95" y="-15.8" font-family="Times,serif" font-size="9.00">ReachGoal?*</text>
</g>
<!-- Fallback*&#45;&gt;ReachGoal?* -->
<g id="edge7" class="edge">
<title>Fallback*&#45;&gt;ReachGoal?*</title>
<path fill="none" stroke="black" d="M290.82,-71.7C296.54,-63.35 303.51,-53.18 309.8,-44.02"/>
<polygon fill="black" stroke="black" points="312.78,-45.85 315.55,-35.62 307.01,-41.89 312.78,-45.85"/>
</g>
<!-- CompLkGraph! -->
<g id="node9" class="node">
<title>CompLkGraph!</title>
<ellipse fill="gray" stroke="black" cx="424.95" cy="-18" rx="42.95" ry="18"/>
<text text-anchor="middle" x="424.95" y="-15.8" font-family="Times,serif" font-size="9.00">CompLkGraph!</text>
</g>
<!-- Fallback*&#45;&gt;CompLkGraph! -->
<g id="edge8" class="edge">
<title>Fallback*&#45;&gt;CompLkGraph!</title>
<path fill="none" stroke="black" d="M302.41,-77.75C325.7,-66.59 361.73,-49.31 388.7,-36.38"/>
<polygon fill="black" stroke="black" points="390.32,-39.48 397.83,-32 387.3,-33.17 390.32,-39.48"/>
</g>
<!-- NotReadyForSG? -->
<g id="node11" class="node">
<title>NotReadyForSG?</title>
<ellipse fill="gray" stroke="black" cx="531.95" cy="-18" rx="46.53" ry="18"/>
<text text-anchor="middle" x="531.95" y="-15.8" font-family="Times,serif" font-size="9.00">NotReadyForSG?</text>
</g>
<!-- Fallback**&#45;&gt;NotReadyForSG? -->
<g id="edge10" class="edge">
<title>Fallback**&#45;&gt;NotReadyForSG?</title>
<path fill="none" stroke="black" d="M572.6,-71.7C566.1,-63.27 558.16,-52.97 551.03,-43.73"/>
<polygon fill="black" stroke="black" points="553.65,-41.4 544.77,-35.62 548.11,-45.68 553.65,-41.4"/>
</g>
<!-- GetSubGoal!*** -->
<g id="node12" class="node">
<title>GetSubGoal!***</title>
<ellipse fill="gray" stroke="black" cx="640.95" cy="-18" rx="44.41" ry="18"/>
<text text-anchor="middle" x="640.95" y="-15.8" font-family="Times,serif" font-size="9.00">GetSubGoal!***</text>
</g>
<!-- Fallback**&#45;&gt;GetSubGoal!*** -->
<g id="edge11" class="edge">
<title>Fallback**&#45;&gt;GetSubGoal!***</title>
<path fill="none" stroke="black" d="M599.55,-71.7C606.17,-63.27 614.26,-52.97 621.52,-43.73"/>
<polygon fill="black" stroke="black" points="624.46,-45.65 627.89,-35.62 618.96,-41.32 624.46,-45.65"/>
</g>
<!-- CompLkGraph!* -->
<g id="node13" class="node">
<title>CompLkGraph!*</title>
<ellipse fill="gray" stroke="black" cx="747.95" cy="-18" rx="45.07" ry="18"/>
<text text-anchor="middle" x="747.95" y="-15.8" font-family="Times,serif" font-size="9.00">CompLkGraph!*</text>
</g>
<!-- Fallback**&#45;&gt;CompLkGraph!* -->
<g id="edge12" class="edge">
<title>Fallback**&#45;&gt;CompLkGraph!*</title>
<path fill="none" stroke="black" d="M611.98,-77.75C638.21,-66.42 679,-48.79 709.07,-35.8"/>
<polygon fill="black" stroke="black" points="710.63,-38.94 718.42,-31.76 707.85,-32.51 710.63,-38.94"/>
</g>
</g>
</svg>
