<?xml version="1.0" encoding="UTF-8" standalone="no"?>
<!DOCTYPE svg PUBLIC "-//W3C//DTD SVG 1.1//EN"
 "http://www.w3.org/Graphics/SVG/1.1/DTD/svg11.dtd">
<!-- Generated by graphviz version 2.43.0 (0)
 -->
<!-- Title: pastafarianism Pages: 1 -->
<svg width="2183pt" height="332pt"
 viewBox="0.00 0.00 2182.52 332.00" xmlns="http://www.w3.org/2000/svg" xmlns:xlink="http://www.w3.org/1999/xlink">
<g id="graph0" class="graph" transform="scale(1 1) rotate(0) translate(4 328)">
<title>pastafarianism</title>
<polygon fill="white" stroke="transparent" points="-4,4 -4,-328 2178.52,-328 2178.52,4 -4,4"/>
<!-- Fallback -->
<g id="node1" class="node">
<title>Fallback</title>
<polygon fill="cyan" stroke="black" points="799.11,-298.54 799.11,-313.46 781.98,-324 757.75,-324 740.62,-313.46 740.62,-298.54 757.75,-288 781.98,-288 799.11,-298.54"/>
<text text-anchor="middle" x="769.87" y="-303.8" font-family="Times,serif" font-size="9.00">Fallback</text>
</g>
<!-- NotReadyForSG? -->
<g id="node2" class="node">
<title>NotReadyForSG?</title>
<ellipse fill="gray" stroke="black" cx="721.87" cy="-234" rx="46.53" ry="18"/>
<text text-anchor="middle" x="721.87" y="-231.8" font-family="Times,serif" font-size="9.00">NotReadyForSG?</text>
</g>
<!-- Fallback&#45;&gt;NotReadyForSG? -->
<g id="edge1" class="edge">
<title>Fallback&#45;&gt;NotReadyForSG?</title>
<path fill="none" stroke="black" d="M758,-287.7C752.28,-279.35 745.31,-269.18 739.02,-260.02"/>
<polygon fill="black" stroke="black" points="741.81,-257.89 733.27,-251.62 736.03,-261.85 741.81,-257.89"/>
</g>
<!-- Sequence -->
<g id="node3" class="node">
<title>Sequence</title>
<polygon fill="cyan" stroke="black" points="849.36,-226.54 849.36,-241.46 830.91,-252 804.82,-252 786.37,-241.46 786.37,-226.54 804.82,-216 830.91,-216 849.36,-226.54"/>
<text text-anchor="middle" x="817.87" y="-231.8" font-family="Times,serif" font-size="9.00">Sequence</text>
</g>
<!-- Fallback&#45;&gt;Sequence -->
<g id="edge2" class="edge">
<title>Fallback&#45;&gt;Sequence</title>
<path fill="none" stroke="black" d="M781.73,-287.7C787.37,-279.47 794.22,-269.48 800.44,-260.42"/>
<polygon fill="black" stroke="black" points="803.37,-262.33 806.14,-252.1 797.6,-258.37 803.37,-262.33"/>
</g>
<!-- GetSubGoal! -->
<g id="node4" class="node">
<title>GetSubGoal!</title>
<ellipse fill="gray" stroke="black" cx="178.87" cy="-162" rx="36.9" ry="18"/>
<text text-anchor="middle" x="178.87" y="-159.8" font-family="Times,serif" font-size="9.00">GetSubGoal!</text>
</g>
<!-- Sequence&#45;&gt;GetSubGoal! -->
<g id="edge3" class="edge">
<title>Sequence&#45;&gt;GetSubGoal!</title>
<path fill="none" stroke="black" d="M794.63,-221.57C789.24,-219.36 783.45,-217.33 777.87,-216 538.25,-159.03 465.78,-231.22 224.87,-180 221.7,-179.33 218.46,-178.48 215.24,-177.52"/>
<polygon fill="black" stroke="black" points="216.32,-174.19 205.72,-174.4 214.13,-180.84 216.32,-174.19"/>
</g>
<!-- Fallback* -->
<g id="node5" class="node">
<title>Fallback*</title>
<polygon fill="cyan" stroke="black" points="297.61,-154.54 297.61,-169.46 279.02,-180 252.72,-180 234.13,-169.46 234.13,-154.54 252.72,-144 279.02,-144 297.61,-154.54"/>
<text text-anchor="middle" x="265.87" y="-159.8" font-family="Times,serif" font-size="9.00">Fallback*</text>
</g>
<!-- Sequence&#45;&gt;Fallback* -->
<g id="edge4" class="edge">
<title>Sequence&#45;&gt;Fallback*</title>
<path fill="none" stroke="black" d="M794.61,-221.62C789.23,-219.41 783.44,-217.36 777.87,-216 573.9,-166.28 511.06,-228.82 306.87,-180 304.22,-179.37 301.52,-178.58 298.84,-177.71"/>
<polygon fill="black" stroke="black" points="299.88,-174.36 289.29,-174.2 297.47,-180.93 299.88,-174.36"/>
</g>
<!-- MoveTo!*** -->
<g id="node13" class="node">
<title>MoveTo!***</title>
<ellipse fill="gray" stroke="black" cx="352.87" cy="-162" rx="36.9" ry="18"/>
<text text-anchor="middle" x="352.87" y="-159.8" font-family="Times,serif" font-size="9.00">MoveTo!***</text>
</g>
<!-- Sequence&#45;&gt;MoveTo!*** -->
<g id="edge12" class="edge">
<title>Sequence&#45;&gt;MoveTo!***</title>
<path fill="none" stroke="black" d="M794.6,-221.7C789.21,-219.48 783.43,-217.41 777.87,-216 613.85,-174.42 563.83,-217.64 398.87,-180 395.89,-179.32 392.85,-178.5 389.81,-177.59"/>
<polygon fill="black" stroke="black" points="390.84,-174.24 380.24,-174.43 388.65,-180.89 390.84,-174.24"/>
</g>
<!-- MoveTo!**** -->
<g id="node14" class="node">
<title>MoveTo!****</title>
<ellipse fill="gray" stroke="black" cx="446.87" cy="-162" rx="39.02" ry="18"/>
<text text-anchor="middle" x="446.87" y="-159.8" font-family="Times,serif" font-size="9.00">MoveTo!****</text>
</g>
<!-- Sequence&#45;&gt;MoveTo!**** -->
<g id="edge13" class="edge">
<title>Sequence&#45;&gt;MoveTo!****</title>
<path fill="none" stroke="black" d="M794.56,-221.83C789.18,-219.6 783.4,-217.5 777.87,-216 655.48,-182.89 618.22,-209.33 494.87,-180 491.73,-179.25 488.51,-178.37 485.29,-177.42"/>
<polygon fill="black" stroke="black" points="486.35,-174.08 475.76,-174.35 484.21,-180.74 486.35,-174.08"/>
</g>
<!-- MoveTo!***** -->
<g id="node15" class="node">
<title>MoveTo!*****</title>
<ellipse fill="gray" stroke="black" cx="545.87" cy="-162" rx="42.29" ry="18"/>
<text text-anchor="middle" x="545.87" y="-159.8" font-family="Times,serif" font-size="9.00">MoveTo!*****</text>
</g>
<!-- Sequence&#45;&gt;MoveTo!***** -->
<g id="edge14" class="edge">
<title>Sequence&#45;&gt;MoveTo!*****</title>
<path fill="none" stroke="black" d="M794.05,-221.94C788.8,-219.76 783.2,-217.65 777.87,-216 699.92,-191.92 676.78,-200.71 597.87,-180 594.46,-179.1 590.94,-178.11 587.42,-177.07"/>
<polygon fill="black" stroke="black" points="588.18,-173.64 577.59,-174.03 586.11,-180.33 588.18,-173.64"/>
</g>
<!-- MoveTo!****** -->
<g id="node16" class="node">
<title>MoveTo!******</title>
<ellipse fill="gray" stroke="black" cx="650.87" cy="-162" rx="44.41" ry="18"/>
<text text-anchor="middle" x="650.87" y="-159.8" font-family="Times,serif" font-size="9.00">MoveTo!******</text>
</g>
<!-- Sequence&#45;&gt;MoveTo!****** -->
<g id="edge15" class="edge">
<title>Sequence&#45;&gt;MoveTo!******</title>
<path fill="none" stroke="black" d="M793.34,-222.55C788.23,-220.38 782.87,-218.11 777.87,-216 748.52,-203.64 715.3,-189.78 690.2,-179.33"/>
<polygon fill="black" stroke="black" points="691.23,-175.98 680.66,-175.37 688.55,-182.44 691.23,-175.98"/>
</g>
<!-- MoveTo!******* -->
<g id="node17" class="node">
<title>MoveTo!*******</title>
<ellipse fill="gray" stroke="black" cx="760.87" cy="-162" rx="47.19" ry="18"/>
<text text-anchor="middle" x="760.87" y="-159.8" font-family="Times,serif" font-size="9.00">MoveTo!*******</text>
</g>
<!-- Sequence&#45;&gt;MoveTo!******* -->
<g id="edge16" class="edge">
<title>Sequence&#45;&gt;MoveTo!*******</title>
<path fill="none" stroke="black" d="M804.07,-216.05C797.04,-207.42 788.36,-196.76 780.63,-187.27"/>
<polygon fill="black" stroke="black" points="783.17,-184.85 774.15,-179.31 777.75,-189.27 783.17,-184.85"/>
</g>
<!-- MoveTo!******** -->
<g id="node18" class="node">
<title>MoveTo!********</title>
<ellipse fill="gray" stroke="black" cx="875.87" cy="-162" rx="49.8" ry="18"/>
<text text-anchor="middle" x="875.87" y="-159.8" font-family="Times,serif" font-size="9.00">MoveTo!********</text>
</g>
<!-- Sequence&#45;&gt;MoveTo!******** -->
<g id="edge17" class="edge">
<title>Sequence&#45;&gt;MoveTo!********</title>
<path fill="none" stroke="black" d="M831.91,-216.05C838.96,-207.54 847.64,-197.07 855.42,-187.68"/>
<polygon fill="black" stroke="black" points="858.27,-189.72 861.96,-179.79 852.88,-185.26 858.27,-189.72"/>
</g>
<!-- Fallback** -->
<g id="node19" class="node">
<title>Fallback**</title>
<polygon fill="cyan" stroke="black" points="1013.86,-154.54 1013.86,-169.46 993.36,-180 964.37,-180 943.88,-169.46 943.88,-154.54 964.37,-144 993.36,-144 1013.86,-154.54"/>
<text text-anchor="middle" x="978.87" y="-159.8" font-family="Times,serif" font-size="9.00">Fallback**</text>
</g>
<!-- Sequence&#45;&gt;Fallback** -->
<g id="edge18" class="edge">
<title>Sequence&#45;&gt;Fallback**</title>
<path fill="none" stroke="black" d="M842.32,-222.37C869.23,-210.67 912.72,-191.76 943.38,-178.43"/>
<polygon fill="black" stroke="black" points="945.07,-181.51 952.85,-174.31 942.28,-175.09 945.07,-181.51"/>
</g>
<!-- Fallback*** -->
<g id="node26" class="node">
<title>Fallback***</title>
<polygon fill="cyan" stroke="black" points="1406.36,-154.54 1406.36,-169.46 1384.4,-180 1353.34,-180 1331.38,-169.46 1331.38,-154.54 1353.34,-144 1384.4,-144 1406.36,-154.54"/>
<text text-anchor="middle" x="1368.87" y="-159.8" font-family="Times,serif" font-size="9.00">Fallback***</text>
</g>
<!-- Sequence&#45;&gt;Fallback*** -->
<g id="edge25" class="edge">
<title>Sequence&#45;&gt;Fallback***</title>
<path fill="none" stroke="black" d="M849.47,-228.99C941.74,-217.26 1211.14,-183.04 1321.2,-169.06"/>
<polygon fill="black" stroke="black" points="1321.86,-172.5 1331.34,-167.77 1320.98,-165.56 1321.86,-172.5"/>
</g>
<!-- MoveTo!************** -->
<g id="node37" class="node">
<title>MoveTo!**************</title>
<ellipse fill="gray" stroke="black" cx="1489.87" cy="-162" rx="65.48" ry="18"/>
<text text-anchor="middle" x="1489.87" y="-159.8" font-family="Times,serif" font-size="9.00">MoveTo!**************</text>
</g>
<!-- Sequence&#45;&gt;MoveTo!************** -->
<g id="edge36" class="edge">
<title>Sequence&#45;&gt;MoveTo!**************</title>
<path fill="none" stroke="black" d="M849.12,-231.71C938.07,-227.71 1200.03,-213.73 1414.87,-180 1420.7,-179.08 1426.75,-177.98 1432.78,-176.77"/>
<polygon fill="black" stroke="black" points="1433.77,-180.14 1442.84,-174.67 1432.34,-173.29 1433.77,-180.14"/>
</g>
<!-- GetLk!**** -->
<g id="node38" class="node">
<title>GetLk!****</title>
<ellipse fill="gray" stroke="black" cx="1607.87" cy="-162" rx="34.78" ry="18"/>
<text text-anchor="middle" x="1607.87" y="-159.8" font-family="Times,serif" font-size="9.00">GetLk!****</text>
</g>
<!-- Sequence&#45;&gt;GetLk!**** -->
<g id="edge37" class="edge">
<title>Sequence&#45;&gt;GetLk!****</title>
<path fill="none" stroke="black" d="M849.28,-232.01C972.7,-227.94 1424.32,-211.18 1563.87,-180 1566.71,-179.36 1569.62,-178.58 1572.52,-177.69"/>
<polygon fill="black" stroke="black" points="1573.87,-180.92 1582.21,-174.38 1571.61,-174.3 1573.87,-180.92"/>
</g>
<!-- MoveTo!*************** -->
<g id="node39" class="node">
<title>MoveTo!***************</title>
<ellipse fill="gray" stroke="black" cx="1728.87" cy="-162" rx="68.25" ry="18"/>
<text text-anchor="middle" x="1728.87" y="-159.8" font-family="Times,serif" font-size="9.00">MoveTo!***************</text>
</g>
<!-- Sequence&#45;&gt;MoveTo!*************** -->
<g id="edge38" class="edge">
<title>Sequence&#45;&gt;MoveTo!***************</title>
<path fill="none" stroke="black" d="M849.48,-232.74C960.28,-231.45 1341.21,-223.9 1651.87,-180 1658.01,-179.13 1664.38,-178.04 1670.72,-176.83"/>
<polygon fill="black" stroke="black" points="1671.49,-180.24 1680.61,-174.85 1670.11,-173.38 1671.49,-180.24"/>
</g>
<!-- ReachGoal?* -->
<g id="node40" class="node">
<title>ReachGoal?*</title>
<ellipse fill="gray" stroke="black" cx="1851.87" cy="-162" rx="36.9" ry="18"/>
<text text-anchor="middle" x="1851.87" y="-159.8" font-family="Times,serif" font-size="9.00">ReachGoal?*</text>
</g>
<!-- Sequence&#45;&gt;ReachGoal?* -->
<g id="edge39" class="edge">
<title>Sequence&#45;&gt;ReachGoal?*</title>
<path fill="none" stroke="black" d="M849.5,-232.58C996.83,-230.41 1616.62,-219.11 1805.87,-180 1809.04,-179.35 1812.28,-178.51 1815.5,-177.56"/>
<polygon fill="black" stroke="black" points="1816.6,-180.88 1825.02,-174.45 1814.43,-174.23 1816.6,-180.88"/>
</g>
<!-- MoveTo! -->
<g id="node6" class="node">
<title>MoveTo!</title>
<ellipse fill="gray" stroke="black" cx="28.87" cy="-90" rx="28.74" ry="18"/>
<text text-anchor="middle" x="28.87" y="-87.8" font-family="Times,serif" font-size="9.00">MoveTo!</text>
</g>
<!-- Fallback*&#45;&gt;MoveTo! -->
<g id="edge5" class="edge">
<title>Fallback*&#45;&gt;MoveTo!</title>
<path fill="none" stroke="black" d="M241.4,-150.07C236.02,-147.88 230.3,-145.73 224.87,-144 156.25,-122.13 135.18,-130.82 66.87,-108 64.75,-107.29 62.59,-106.51 60.43,-105.68"/>
<polygon fill="black" stroke="black" points="61.66,-102.4 51.08,-101.81 58.99,-108.87 61.66,-102.4"/>
</g>
<!-- Sequence* -->
<g id="node7" class="node">
<title>Sequence*</title>
<polygon fill="cyan" stroke="black" points="144.11,-82.54 144.11,-97.46 124.05,-108 95.68,-108 75.63,-97.46 75.63,-82.54 95.68,-72 124.05,-72 144.11,-82.54"/>
<text text-anchor="middle" x="109.87" y="-87.8" font-family="Times,serif" font-size="9.00">Sequence*</text>
</g>
<!-- Fallback*&#45;&gt;Sequence* -->
<g id="edge6" class="edge">
<title>Fallback*&#45;&gt;Sequence*</title>
<path fill="none" stroke="black" d="M241.49,-150.06C215.47,-138.39 174.01,-119.78 144.58,-106.58"/>
<polygon fill="black" stroke="black" points="145.66,-103.23 135.1,-102.32 142.8,-109.61 145.66,-103.23"/>
</g>
<!-- NotReadyForSG?* -->
<g id="node10" class="node">
<title>NotReadyForSG?*</title>
<ellipse fill="gray" stroke="black" cx="211.87" cy="-90" rx="49.8" ry="18"/>
<text text-anchor="middle" x="211.87" y="-87.8" font-family="Times,serif" font-size="9.00">NotReadyForSG?*</text>
</g>
<!-- Fallback*&#45;&gt;NotReadyForSG?* -->
<g id="edge9" class="edge">
<title>Fallback*&#45;&gt;NotReadyForSG?*</title>
<path fill="none" stroke="black" d="M252.52,-143.7C246.02,-135.27 238.08,-124.97 230.95,-115.73"/>
<polygon fill="black" stroke="black" points="233.57,-113.4 224.69,-107.62 228.03,-117.68 233.57,-113.4"/>
</g>
<!-- MoveTo!* -->
<g id="node11" class="node">
<title>MoveTo!*</title>
<ellipse fill="gray" stroke="black" cx="310.87" cy="-90" rx="31.51" ry="18"/>
<text text-anchor="middle" x="310.87" y="-87.8" font-family="Times,serif" font-size="9.00">MoveTo!*</text>
</g>
<!-- Fallback*&#45;&gt;MoveTo!* -->
<g id="edge10" class="edge">
<title>Fallback*&#45;&gt;MoveTo!*</title>
<path fill="none" stroke="black" d="M276.99,-143.7C282.43,-135.23 289.08,-124.89 295.05,-115.61"/>
<polygon fill="black" stroke="black" points="298.03,-117.45 300.49,-107.14 292.14,-113.66 298.03,-117.45"/>
</g>
<!-- MoveTo!** -->
<g id="node12" class="node">
<title>MoveTo!**</title>
<ellipse fill="gray" stroke="black" cx="394.87" cy="-90" rx="34.13" ry="18"/>
<text text-anchor="middle" x="394.87" y="-87.8" font-family="Times,serif" font-size="9.00">MoveTo!**</text>
</g>
<!-- Fallback*&#45;&gt;MoveTo!** -->
<g id="edge11" class="edge">
<title>Fallback*&#45;&gt;MoveTo!**</title>
<path fill="none" stroke="black" d="M288.04,-148.97C308.65,-137.79 339.57,-121.01 362.85,-108.37"/>
<polygon fill="black" stroke="black" points="364.56,-111.43 371.68,-103.58 361.22,-105.28 364.56,-111.43"/>
</g>
<!-- LkGraph? -->
<g id="node8" class="node">
<title>LkGraph?</title>
<ellipse fill="gray" stroke="black" cx="65.87" cy="-18" rx="30.7" ry="18"/>
<text text-anchor="middle" x="65.87" y="-15.8" font-family="Times,serif" font-size="9.00">LkGraph?</text>
</g>
<!-- Sequence*&#45;&gt;LkGraph? -->
<g id="edge7" class="edge">
<title>Sequence*&#45;&gt;LkGraph?</title>
<path fill="none" stroke="black" d="M98.99,-71.7C93.67,-63.23 87.17,-52.89 81.34,-43.61"/>
<polygon fill="black" stroke="black" points="84.3,-41.75 76.02,-35.14 78.37,-45.47 84.3,-41.75"/>
</g>
<!-- GetSubGoal!* -->
<g id="node9" class="node">
<title>GetSubGoal!*</title>
<ellipse fill="gray" stroke="black" cx="153.87" cy="-18" rx="39.02" ry="18"/>
<text text-anchor="middle" x="153.87" y="-15.8" font-family="Times,serif" font-size="9.00">GetSubGoal!*</text>
</g>
<!-- Sequence*&#45;&gt;GetSubGoal!* -->
<g id="edge8" class="edge">
<title>Sequence*&#45;&gt;GetSubGoal!*</title>
<path fill="none" stroke="black" d="M120.74,-71.7C125.94,-63.44 132.25,-53.39 137.97,-44.3"/>
<polygon fill="black" stroke="black" points="141.06,-45.95 143.42,-35.62 135.13,-42.23 141.06,-45.95"/>
</g>
<!-- MoveTo!********* -->
<g id="node20" class="node">
<title>MoveTo!*********</title>
<ellipse fill="gray" stroke="black" cx="499.87" cy="-90" rx="52.58" ry="18"/>
<text text-anchor="middle" x="499.87" y="-87.8" font-family="Times,serif" font-size="9.00">MoveTo!*********</text>
</g>
<!-- Fallback**&#45;&gt;MoveTo!********* -->
<g id="edge19" class="edge">
<title>Fallback**&#45;&gt;MoveTo!*********</title>
<path fill="none" stroke="black" d="M953.18,-149.73C947.26,-147.51 940.92,-145.43 934.87,-144 772.8,-105.63 725.67,-138.13 561.87,-108 557.36,-107.17 552.71,-106.17 548.07,-105.08"/>
<polygon fill="black" stroke="black" points="548.55,-101.59 538,-102.56 546.85,-108.38 548.55,-101.59"/>
</g>
<!-- NotReadyForSG?** -->
<g id="node21" class="node">
<title>NotReadyForSG?**</title>
<ellipse fill="gray" stroke="black" cx="622.87" cy="-90" rx="51.92" ry="18"/>
<text text-anchor="middle" x="622.87" y="-87.8" font-family="Times,serif" font-size="9.00">NotReadyForSG?**</text>
</g>
<!-- Fallback**&#45;&gt;NotReadyForSG?** -->
<g id="edge20" class="edge">
<title>Fallback**&#45;&gt;NotReadyForSG?**</title>
<path fill="none" stroke="black" d="M952.66,-149.76C946.88,-147.6 940.73,-145.53 934.87,-144 825.83,-115.51 794.16,-131.18 683.87,-108 679.51,-107.09 675.01,-106.03 670.52,-104.91"/>
<polygon fill="black" stroke="black" points="671.31,-101.5 660.75,-102.38 669.55,-108.28 671.31,-101.5"/>
</g>
<!-- MoveTo!********** -->
<g id="node22" class="node">
<title>MoveTo!**********</title>
<ellipse fill="gray" stroke="black" cx="747.87" cy="-90" rx="54.7" ry="18"/>
<text text-anchor="middle" x="747.87" y="-87.8" font-family="Times,serif" font-size="9.00">MoveTo!**********</text>
</g>
<!-- Fallback**&#45;&gt;MoveTo!********** -->
<g id="edge21" class="edge">
<title>Fallback**&#45;&gt;MoveTo!**********</title>
<path fill="none" stroke="black" d="M952.02,-150.17C946.39,-148.03 940.46,-145.87 934.87,-144 909.67,-135.58 844.73,-117.47 798.47,-104.77"/>
<polygon fill="black" stroke="black" points="799.18,-101.34 788.61,-102.07 797.33,-108.09 799.18,-101.34"/>
</g>
<!-- GetLk! -->
<g id="node23" class="node">
<title>GetLk!</title>
<ellipse fill="gray" stroke="black" cx="847.87" cy="-90" rx="27" ry="18"/>
<text text-anchor="middle" x="847.87" y="-87.8" font-family="Times,serif" font-size="9.00">GetLk!</text>
</g>
<!-- Fallback**&#45;&gt;GetLk! -->
<g id="edge22" class="edge">
<title>Fallback**&#45;&gt;GetLk!</title>
<path fill="none" stroke="black" d="M955.45,-148.49C933.62,-136.82 900.97,-119.38 877.37,-106.77"/>
<polygon fill="black" stroke="black" points="878.97,-103.65 868.5,-102.02 875.67,-109.82 878.97,-103.65"/>
</g>
<!-- GetSubGoal!** -->
<g id="node24" class="node">
<title>GetSubGoal!**</title>
<ellipse fill="gray" stroke="black" cx="934.87" cy="-90" rx="42.29" ry="18"/>
<text text-anchor="middle" x="934.87" y="-87.8" font-family="Times,serif" font-size="9.00">GetSubGoal!**</text>
</g>
<!-- Fallback**&#45;&gt;GetSubGoal!** -->
<g id="edge23" class="edge">
<title>Fallback**&#45;&gt;GetSubGoal!**</title>
<path fill="none" stroke="black" d="M967.99,-143.7C962.8,-135.44 956.49,-125.39 950.77,-116.3"/>
<polygon fill="black" stroke="black" points="953.6,-114.23 945.32,-107.62 947.67,-117.95 953.6,-114.23"/>
</g>
<!-- ReachGoal? -->
<g id="node25" class="node">
<title>ReachGoal?</title>
<ellipse fill="gray" stroke="black" cx="1028.87" cy="-90" rx="34.13" ry="18"/>
<text text-anchor="middle" x="1028.87" y="-87.8" font-family="Times,serif" font-size="9.00">ReachGoal?</text>
</g>
<!-- Fallback**&#45;&gt;ReachGoal? -->
<g id="edge24" class="edge">
<title>Fallback**&#45;&gt;ReachGoal?</title>
<path fill="none" stroke="black" d="M991.23,-143.7C997.34,-135.14 1004.82,-124.67 1011.49,-115.33"/>
<polygon fill="black" stroke="black" points="1014.37,-117.32 1017.34,-107.14 1008.68,-113.25 1014.37,-117.32"/>
</g>
<!-- MoveTo!*********** -->
<g id="node27" class="node">
<title>MoveTo!***********</title>
<ellipse fill="gray" stroke="black" cx="1138.87" cy="-90" rx="57.97" ry="18"/>
<text text-anchor="middle" x="1138.87" y="-87.8" font-family="Times,serif" font-size="9.00">MoveTo!***********</text>
</g>
<!-- Fallback***&#45;&gt;MoveTo!*********** -->
<g id="edge26" class="edge">
<title>Fallback***&#45;&gt;MoveTo!***********</title>
<path fill="none" stroke="black" d="M1337.37,-151.41C1298.97,-139.73 1233.63,-119.84 1188.46,-106.09"/>
<polygon fill="black" stroke="black" points="1189.44,-102.73 1178.86,-103.17 1187.41,-109.43 1189.44,-102.73"/>
</g>
<!-- GetSubGoal!*** -->
<g id="node28" class="node">
<title>GetSubGoal!***</title>
<ellipse fill="gray" stroke="black" cx="1258.87" cy="-90" rx="44.41" ry="18"/>
<text text-anchor="middle" x="1258.87" y="-87.8" font-family="Times,serif" font-size="9.00">GetSubGoal!***</text>
</g>
<!-- Fallback***&#45;&gt;GetSubGoal!*** -->
<g id="edge27" class="edge">
<title>Fallback***&#45;&gt;GetSubGoal!***</title>
<path fill="none" stroke="black" d="M1346.87,-147C1330.71,-136.72 1308.51,-122.59 1290.45,-111.1"/>
<polygon fill="black" stroke="black" points="1292.28,-108.11 1281.96,-105.7 1288.52,-114.02 1292.28,-108.11"/>
</g>
<!-- GetSubGoal!**** -->
<g id="node29" class="node">
<title>GetSubGoal!****</title>
<ellipse fill="gray" stroke="black" cx="1368.87" cy="-90" rx="47.19" ry="18"/>
<text text-anchor="middle" x="1368.87" y="-87.8" font-family="Times,serif" font-size="9.00">GetSubGoal!****</text>
</g>
<!-- Fallback***&#45;&gt;GetSubGoal!**** -->
<g id="edge28" class="edge">
<title>Fallback***&#45;&gt;GetSubGoal!****</title>
<path fill="none" stroke="black" d="M1368.87,-143.7C1368.87,-135.98 1368.87,-126.71 1368.87,-118.11"/>
<polygon fill="black" stroke="black" points="1372.37,-118.1 1368.87,-108.1 1365.37,-118.1 1372.37,-118.1"/>
</g>
<!-- NotReadyForSG?*** -->
<g id="node30" class="node">
<title>NotReadyForSG?***</title>
<ellipse fill="gray" stroke="black" cx="1488.87" cy="-90" rx="54.7" ry="18"/>
<text text-anchor="middle" x="1488.87" y="-87.8" font-family="Times,serif" font-size="9.00">NotReadyForSG?***</text>
</g>
<!-- Fallback***&#45;&gt;NotReadyForSG?*** -->
<g id="edge29" class="edge">
<title>Fallback***&#45;&gt;NotReadyForSG?***</title>
<path fill="none" stroke="black" d="M1392,-147.5C1409.6,-137.24 1434.11,-122.94 1454.07,-111.3"/>
<polygon fill="black" stroke="black" points="1456.01,-114.22 1462.88,-106.16 1452.48,-108.17 1456.01,-114.22"/>
</g>
<!-- MoveTo!************ -->
<g id="node31" class="node">
<title>MoveTo!************</title>
<ellipse fill="gray" stroke="black" cx="1621.87" cy="-90" rx="60.09" ry="18"/>
<text text-anchor="middle" x="1621.87" y="-87.8" font-family="Times,serif" font-size="9.00">MoveTo!************</text>
</g>
<!-- Fallback***&#45;&gt;MoveTo!************ -->
<g id="edge30" class="edge">
<title>Fallback***&#45;&gt;MoveTo!************</title>
<path fill="none" stroke="black" d="M1397.55,-150.13C1403.57,-147.99 1409.9,-145.84 1415.87,-144 1443.82,-135.37 1516.08,-117.12 1567.09,-104.47"/>
<polygon fill="black" stroke="black" points="1568.13,-107.82 1576.99,-102.01 1566.45,-101.02 1568.13,-107.82"/>
</g>
<!-- GetLk!* -->
<g id="node32" class="node">
<title>GetLk!*</title>
<ellipse fill="gray" stroke="black" cx="1726.87" cy="-90" rx="27.27" ry="18"/>
<text text-anchor="middle" x="1726.87" y="-87.8" font-family="Times,serif" font-size="9.00">GetLk!*</text>
</g>
<!-- Fallback***&#45;&gt;GetLk!* -->
<g id="edge31" class="edge">
<title>Fallback***&#45;&gt;GetLk!*</title>
<path fill="none" stroke="black" d="M1396.9,-149.74C1403.07,-147.58 1409.63,-145.52 1415.87,-144 1535.64,-114.87 1572.6,-142.74 1690.87,-108 1692.81,-107.43 1694.77,-106.77 1696.74,-106.04"/>
<polygon fill="black" stroke="black" points="1698.48,-109.11 1706.36,-102.02 1695.78,-102.65 1698.48,-109.11"/>
</g>
<!-- GetLk!** -->
<g id="node33" class="node">
<title>GetLk!**</title>
<ellipse fill="gray" stroke="black" cx="1801.87" cy="-90" rx="29.39" ry="18"/>
<text text-anchor="middle" x="1801.87" y="-87.8" font-family="Times,serif" font-size="9.00">GetLk!**</text>
</g>
<!-- Fallback***&#45;&gt;GetLk!** -->
<g id="edge32" class="edge">
<title>Fallback***&#45;&gt;GetLk!**</title>
<path fill="none" stroke="black" d="M1396.87,-149.61C1403.04,-147.46 1409.61,-145.43 1415.87,-144 1567,-109.37 1612.92,-147.44 1762.87,-108 1765.31,-107.36 1767.79,-106.59 1770.25,-105.73"/>
<polygon fill="black" stroke="black" points="1771.55,-108.98 1779.6,-102.1 1769.01,-102.46 1771.55,-108.98"/>
</g>
<!-- MoveTo!************* -->
<g id="node34" class="node">
<title>MoveTo!*************</title>
<ellipse fill="gray" stroke="black" cx="1911.87" cy="-90" rx="62.86" ry="18"/>
<text text-anchor="middle" x="1911.87" y="-87.8" font-family="Times,serif" font-size="9.00">MoveTo!*************</text>
</g>
<!-- Fallback***&#45;&gt;MoveTo!************* -->
<g id="edge33" class="edge">
<title>Fallback***&#45;&gt;MoveTo!*************</title>
<path fill="none" stroke="black" d="M1396.35,-149.7C1402.67,-147.48 1409.43,-145.41 1415.87,-144 1600.6,-103.49 1653.11,-137.81 1839.87,-108 1845.34,-107.13 1851.01,-106.07 1856.65,-104.9"/>
<polygon fill="black" stroke="black" points="1857.71,-108.26 1866.75,-102.72 1856.23,-101.41 1857.71,-108.26"/>
</g>
<!-- GetLk!*** -->
<g id="node35" class="node">
<title>GetLk!***</title>
<ellipse fill="gray" stroke="black" cx="2024.87" cy="-90" rx="32.16" ry="18"/>
<text text-anchor="middle" x="2024.87" y="-87.8" font-family="Times,serif" font-size="9.00">GetLk!***</text>
</g>
<!-- Fallback***&#45;&gt;GetLk!*** -->
<g id="edge34" class="edge">
<title>Fallback***&#45;&gt;GetLk!***</title>
<path fill="none" stroke="black" d="M1396.32,-149.6C1402.65,-147.39 1409.41,-145.34 1415.87,-144 1663.51,-92.46 1737.47,-165.22 1983.87,-108 1986.36,-107.42 1988.9,-106.7 1991.43,-105.9"/>
<polygon fill="black" stroke="black" points="1992.81,-109.12 2001.02,-102.43 1990.43,-102.54 1992.81,-109.12"/>
</g>
<!-- GetSubGoal!***** -->
<g id="node36" class="node">
<title>GetSubGoal!*****</title>
<ellipse fill="gray" stroke="black" cx="2124.87" cy="-90" rx="49.8" ry="18"/>
<text text-anchor="middle" x="2124.87" y="-87.8" font-family="Times,serif" font-size="9.00">GetSubGoal!*****</text>
</g>
<!-- Fallback***&#45;&gt;GetSubGoal!***** -->
<g id="edge35" class="edge">
<title>Fallback***&#45;&gt;GetSubGoal!*****</title>
<path fill="none" stroke="black" d="M1396.32,-149.56C1402.64,-147.35 1409.41,-145.32 1415.87,-144 1699.36,-86.18 1780.61,-156.36 2065.87,-108 2070.3,-107.25 2074.88,-106.28 2079.43,-105.19"/>
<polygon fill="black" stroke="black" points="2080.48,-108.54 2089.29,-102.65 2078.73,-101.76 2080.48,-108.54"/>
</g>
</g>
</svg>
