<?xml version="1.0" encoding="UTF-8" standalone="no"?>
<!DOCTYPE svg PUBLIC "-//W3C//DTD SVG 1.1//EN"
 "http://www.w3.org/Graphics/SVG/1.1/DTD/svg11.dtd">
<!-- Generated by graphviz version 2.43.0 (0)
 -->
<!-- Title: pastafarianism Pages: 1 -->
<svg width="1746pt" height="332pt"
 viewBox="0.00 0.00 1746.31 332.00" xmlns="http://www.w3.org/2000/svg" xmlns:xlink="http://www.w3.org/1999/xlink">
<g id="graph0" class="graph" transform="scale(1 1) rotate(0) translate(4 328)">
<title>pastafarianism</title>
<polygon fill="white" stroke="transparent" points="-4,4 -4,-328 1742.31,-328 1742.31,4 -4,4"/>
<!-- Fallback -->
<g id="node1" class="node">
<title>Fallback</title>
<polygon fill="cyan" stroke="black" points="628.11,-298.54 628.11,-313.46 610.98,-324 586.75,-324 569.62,-313.46 569.62,-298.54 586.75,-288 610.98,-288 628.11,-298.54"/>
<text text-anchor="middle" x="598.87" y="-303.8" font-family="Times,serif" font-size="9.00">Fallback</text>
</g>
<!-- NotReadyForSG? -->
<g id="node2" class="node">
<title>NotReadyForSG?</title>
<ellipse fill="gray" stroke="black" cx="550.87" cy="-234" rx="46.53" ry="18"/>
<text text-anchor="middle" x="550.87" y="-231.8" font-family="Times,serif" font-size="9.00">NotReadyForSG?</text>
</g>
<!-- Fallback&#45;&gt;NotReadyForSG? -->
<g id="edge1" class="edge">
<title>Fallback&#45;&gt;NotReadyForSG?</title>
<path fill="none" stroke="black" d="M587,-287.7C581.28,-279.35 574.31,-269.18 568.02,-260.02"/>
<polygon fill="black" stroke="black" points="570.81,-257.89 562.27,-251.62 565.03,-261.85 570.81,-257.89"/>
</g>
<!-- Sequence -->
<g id="node3" class="node">
<title>Sequence</title>
<polygon fill="cyan" stroke="black" points="678.36,-226.54 678.36,-241.46 659.91,-252 633.82,-252 615.37,-241.46 615.37,-226.54 633.82,-216 659.91,-216 678.36,-226.54"/>
<text text-anchor="middle" x="646.87" y="-231.8" font-family="Times,serif" font-size="9.00">Sequence</text>
</g>
<!-- Fallback&#45;&gt;Sequence -->
<g id="edge2" class="edge">
<title>Fallback&#45;&gt;Sequence</title>
<path fill="none" stroke="black" d="M610.73,-287.7C616.37,-279.47 623.22,-269.48 629.44,-260.42"/>
<polygon fill="black" stroke="black" points="632.37,-262.33 635.14,-252.1 626.6,-258.37 632.37,-262.33"/>
</g>
<!-- GetSubGoal! -->
<g id="node4" class="node">
<title>GetSubGoal!</title>
<ellipse fill="gray" stroke="black" cx="64.87" cy="-162" rx="36.9" ry="18"/>
<text text-anchor="middle" x="64.87" y="-159.8" font-family="Times,serif" font-size="9.00">GetSubGoal!</text>
</g>
<!-- Sequence&#45;&gt;GetSubGoal! -->
<g id="edge3" class="edge">
<title>Sequence&#45;&gt;GetSubGoal!</title>
<path fill="none" stroke="black" d="M623.62,-221.6C618.23,-219.39 612.44,-217.35 606.87,-216 392.03,-164.07 326.89,-226.77 110.87,-180 107.71,-179.32 104.47,-178.46 101.25,-177.5"/>
<polygon fill="black" stroke="black" points="102.33,-174.17 91.73,-174.36 100.14,-180.82 102.33,-174.17"/>
</g>
<!-- Fallback* -->
<g id="node5" class="node">
<title>Fallback*</title>
<polygon fill="cyan" stroke="black" points="183.61,-154.54 183.61,-169.46 165.02,-180 138.72,-180 120.13,-169.46 120.13,-154.54 138.72,-144 165.02,-144 183.61,-154.54"/>
<text text-anchor="middle" x="151.87" y="-159.8" font-family="Times,serif" font-size="9.00">Fallback*</text>
</g>
<!-- Sequence&#45;&gt;Fallback* -->
<g id="edge4" class="edge">
<title>Sequence&#45;&gt;Fallback*</title>
<path fill="none" stroke="black" d="M623.6,-221.66C618.22,-219.45 612.43,-217.39 606.87,-216 427.66,-171.33 372.27,-223.88 192.87,-180 190.38,-179.39 187.84,-178.65 185.32,-177.83"/>
<polygon fill="black" stroke="black" points="186.33,-174.47 175.74,-174.33 183.93,-181.05 186.33,-174.47"/>
</g>
<!-- MoveTo!*** -->
<g id="node12" class="node">
<title>MoveTo!***</title>
<ellipse fill="gray" stroke="black" cx="238.87" cy="-162" rx="36.9" ry="18"/>
<text text-anchor="middle" x="238.87" y="-159.8" font-family="Times,serif" font-size="9.00">MoveTo!***</text>
</g>
<!-- Sequence&#45;&gt;MoveTo!*** -->
<g id="edge11" class="edge">
<title>Sequence&#45;&gt;MoveTo!***</title>
<path fill="none" stroke="black" d="M623.58,-221.76C618.19,-219.55 612.41,-217.46 606.87,-216 467.58,-179.45 424.99,-213.2 284.87,-180 281.9,-179.3 278.86,-178.46 275.83,-177.53"/>
<polygon fill="black" stroke="black" points="276.86,-174.19 266.26,-174.36 274.65,-180.83 276.86,-174.19"/>
</g>
<!-- MoveTo!**** -->
<g id="node13" class="node">
<title>MoveTo!****</title>
<ellipse fill="gray" stroke="black" cx="332.87" cy="-162" rx="39.02" ry="18"/>
<text text-anchor="middle" x="332.87" y="-159.8" font-family="Times,serif" font-size="9.00">MoveTo!****</text>
</g>
<!-- Sequence&#45;&gt;MoveTo!**** -->
<g id="edge12" class="edge">
<title>Sequence&#45;&gt;MoveTo!****</title>
<path fill="none" stroke="black" d="M623.1,-221.78C617.84,-219.61 612.23,-217.54 606.87,-216 509.12,-187.9 479.44,-205.08 380.87,-180 377.74,-179.2 374.53,-178.29 371.32,-177.31"/>
<polygon fill="black" stroke="black" points="372.39,-173.97 361.8,-174.2 370.22,-180.63 372.39,-173.97"/>
</g>
<!-- MoveTo!***** -->
<g id="node14" class="node">
<title>MoveTo!*****</title>
<ellipse fill="gray" stroke="black" cx="431.87" cy="-162" rx="42.29" ry="18"/>
<text text-anchor="middle" x="431.87" y="-159.8" font-family="Times,serif" font-size="9.00">MoveTo!*****</text>
</g>
<!-- Sequence&#45;&gt;MoveTo!***** -->
<g id="edge13" class="edge">
<title>Sequence&#45;&gt;MoveTo!*****</title>
<path fill="none" stroke="black" d="M622.51,-222.11C617.39,-219.97 611.98,-217.83 606.87,-216 553.23,-196.83 538.28,-196.85 483.87,-180 480.55,-178.97 477.11,-177.89 473.66,-176.79"/>
<polygon fill="black" stroke="black" points="474.59,-173.41 463.99,-173.68 472.44,-180.07 474.59,-173.41"/>
</g>
<!-- MoveTo!****** -->
<g id="node15" class="node">
<title>MoveTo!******</title>
<ellipse fill="gray" stroke="black" cx="536.87" cy="-162" rx="44.41" ry="18"/>
<text text-anchor="middle" x="536.87" y="-159.8" font-family="Times,serif" font-size="9.00">MoveTo!******</text>
</g>
<!-- Sequence&#45;&gt;MoveTo!****** -->
<g id="edge14" class="edge">
<title>Sequence&#45;&gt;MoveTo!******</title>
<path fill="none" stroke="black" d="M626.44,-220C610.13,-209.62 587.01,-194.91 568.34,-183.03"/>
<polygon fill="black" stroke="black" points="570.17,-180.04 559.85,-177.63 566.41,-185.95 570.17,-180.04"/>
</g>
<!-- MoveTo!******* -->
<g id="node16" class="node">
<title>MoveTo!*******</title>
<ellipse fill="gray" stroke="black" cx="646.87" cy="-162" rx="47.19" ry="18"/>
<text text-anchor="middle" x="646.87" y="-159.8" font-family="Times,serif" font-size="9.00">MoveTo!*******</text>
</g>
<!-- Sequence&#45;&gt;MoveTo!******* -->
<g id="edge15" class="edge">
<title>Sequence&#45;&gt;MoveTo!*******</title>
<path fill="none" stroke="black" d="M646.87,-215.7C646.87,-207.98 646.87,-198.71 646.87,-190.11"/>
<polygon fill="black" stroke="black" points="650.37,-190.1 646.87,-180.1 643.37,-190.1 650.37,-190.1"/>
</g>
<!-- MoveTo!******** -->
<g id="node17" class="node">
<title>MoveTo!********</title>
<ellipse fill="gray" stroke="black" cx="761.87" cy="-162" rx="49.8" ry="18"/>
<text text-anchor="middle" x="761.87" y="-159.8" font-family="Times,serif" font-size="9.00">MoveTo!********</text>
</g>
<!-- Sequence&#45;&gt;MoveTo!******** -->
<g id="edge16" class="edge">
<title>Sequence&#45;&gt;MoveTo!********</title>
<path fill="none" stroke="black" d="M667.69,-220.32C684.76,-209.94 709.22,-195.05 728.93,-183.05"/>
<polygon fill="black" stroke="black" points="730.89,-185.95 737.61,-177.77 727.25,-179.97 730.89,-185.95"/>
</g>
<!-- Fallback** -->
<g id="node18" class="node">
<title>Fallback**</title>
<polygon fill="cyan" stroke="black" points="899.86,-154.54 899.86,-169.46 879.36,-180 850.37,-180 829.88,-169.46 829.88,-154.54 850.37,-144 879.36,-144 899.86,-154.54"/>
<text text-anchor="middle" x="864.87" y="-159.8" font-family="Times,serif" font-size="9.00">Fallback**</text>
</g>
<!-- Sequence&#45;&gt;Fallback** -->
<g id="edge17" class="edge">
<title>Sequence&#45;&gt;Fallback**</title>
<path fill="none" stroke="black" d="M675.71,-224.91C710.39,-215.03 770.27,-197.46 820.87,-180 823.39,-179.13 825.99,-178.2 828.6,-177.25"/>
<polygon fill="black" stroke="black" points="829.85,-180.52 837.99,-173.74 827.4,-173.96 829.85,-180.52"/>
</g>
<!-- Fallback*** -->
<g id="node25" class="node">
<title>Fallback***</title>
<polygon fill="cyan" stroke="black" points="1179.36,-154.54 1179.36,-169.46 1157.4,-180 1126.34,-180 1104.38,-169.46 1104.38,-154.54 1126.34,-144 1157.4,-144 1179.36,-154.54"/>
<text text-anchor="middle" x="1141.87" y="-159.8" font-family="Times,serif" font-size="9.00">Fallback***</text>
</g>
<!-- Sequence&#45;&gt;Fallback*** -->
<g id="edge24" class="edge">
<title>Sequence&#45;&gt;Fallback***</title>
<path fill="none" stroke="black" d="M678.21,-228.57C762.36,-216.67 993.69,-183.95 1094.2,-169.74"/>
<polygon fill="black" stroke="black" points="1094.96,-173.17 1104.37,-168.3 1093.98,-166.24 1094.96,-173.17"/>
</g>
<!-- GetLk!*** -->
<g id="node33" class="node">
<title>GetLk!***</title>
<ellipse fill="gray" stroke="black" cx="1229.87" cy="-162" rx="32.16" ry="18"/>
<text text-anchor="middle" x="1229.87" y="-159.8" font-family="Times,serif" font-size="9.00">GetLk!***</text>
</g>
<!-- Sequence&#45;&gt;GetLk!*** -->
<g id="edge32" class="edge">
<title>Sequence&#45;&gt;GetLk!***</title>
<path fill="none" stroke="black" d="M678.19,-233.04C762.1,-232.5 998.4,-226.59 1187.87,-180 1190.66,-179.31 1193.51,-178.48 1196.35,-177.54"/>
<polygon fill="black" stroke="black" points="1197.63,-180.81 1205.83,-174.1 1195.24,-174.23 1197.63,-180.81"/>
</g>
<!-- MoveTo!************** -->
<g id="node34" class="node">
<title>MoveTo!**************</title>
<ellipse fill="gray" stroke="black" cx="1345.87" cy="-162" rx="65.48" ry="18"/>
<text text-anchor="middle" x="1345.87" y="-159.8" font-family="Times,serif" font-size="9.00">MoveTo!**************</text>
</g>
<!-- Sequence&#45;&gt;MoveTo!************** -->
<g id="edge33" class="edge">
<title>Sequence&#45;&gt;MoveTo!**************</title>
<path fill="none" stroke="black" d="M678.21,-231.87C769.89,-228.24 1045.24,-214.98 1270.87,-180 1276.78,-179.08 1282.93,-177.97 1289.04,-176.75"/>
<polygon fill="black" stroke="black" points="1290.18,-180.08 1299.25,-174.61 1288.75,-173.23 1290.18,-180.08"/>
</g>
<!-- ReachGoal?* -->
<g id="node35" class="node">
<title>ReachGoal?*</title>
<ellipse fill="gray" stroke="black" cx="1465.87" cy="-162" rx="36.9" ry="18"/>
<text text-anchor="middle" x="1465.87" y="-159.8" font-family="Times,serif" font-size="9.00">ReachGoal?*</text>
</g>
<!-- Sequence&#45;&gt;ReachGoal?* -->
<g id="edge34" class="edge">
<title>Sequence&#45;&gt;ReachGoal?*</title>
<path fill="none" stroke="black" d="M678.11,-232.05C804.05,-228.02 1274.53,-211.16 1419.87,-180 1423.03,-179.32 1426.27,-178.47 1429.49,-177.51"/>
<polygon fill="black" stroke="black" points="1430.6,-180.83 1439.01,-174.38 1428.41,-174.18 1430.6,-180.83"/>
</g>
<!-- MoveTo! -->
<g id="node6" class="node">
<title>MoveTo!</title>
<ellipse fill="gray" stroke="black" cx="28.87" cy="-90" rx="28.74" ry="18"/>
<text text-anchor="middle" x="28.87" y="-87.8" font-family="Times,serif" font-size="9.00">MoveTo!</text>
</g>
<!-- Fallback*&#45;&gt;MoveTo! -->
<g id="edge5" class="edge">
<title>Fallback*&#45;&gt;MoveTo!</title>
<path fill="none" stroke="black" d="M130.16,-148.65C110.25,-137.31 80.58,-120.43 58.49,-107.86"/>
<polygon fill="black" stroke="black" points="59.96,-104.67 49.54,-102.76 56.5,-110.75 59.96,-104.67"/>
</g>
<!-- Sequence* -->
<g id="node7" class="node">
<title>Sequence*</title>
<polygon fill="cyan" stroke="black" points="144.11,-82.54 144.11,-97.46 124.05,-108 95.68,-108 75.63,-97.46 75.63,-82.54 95.68,-72 124.05,-72 144.11,-82.54"/>
<text text-anchor="middle" x="109.87" y="-87.8" font-family="Times,serif" font-size="9.00">Sequence*</text>
</g>
<!-- Fallback*&#45;&gt;Sequence* -->
<g id="edge6" class="edge">
<title>Fallback*&#45;&gt;Sequence*</title>
<path fill="none" stroke="black" d="M141.49,-143.7C136.6,-135.56 130.68,-125.69 125.29,-116.7"/>
<polygon fill="black" stroke="black" points="128.28,-114.88 120.13,-108.1 122.27,-118.48 128.28,-114.88"/>
</g>
<!-- MoveTo!* -->
<g id="node10" class="node">
<title>MoveTo!*</title>
<ellipse fill="gray" stroke="black" cx="193.87" cy="-90" rx="31.51" ry="18"/>
<text text-anchor="middle" x="193.87" y="-87.8" font-family="Times,serif" font-size="9.00">MoveTo!*</text>
</g>
<!-- Fallback*&#45;&gt;MoveTo!* -->
<g id="edge9" class="edge">
<title>Fallback*&#45;&gt;MoveTo!*</title>
<path fill="none" stroke="black" d="M162.25,-143.7C167.28,-135.32 173.41,-125.1 178.93,-115.9"/>
<polygon fill="black" stroke="black" points="182.04,-117.52 184.18,-107.14 176.03,-113.92 182.04,-117.52"/>
</g>
<!-- MoveTo!** -->
<g id="node11" class="node">
<title>MoveTo!**</title>
<ellipse fill="gray" stroke="black" cx="277.87" cy="-90" rx="34.13" ry="18"/>
<text text-anchor="middle" x="277.87" y="-87.8" font-family="Times,serif" font-size="9.00">MoveTo!**</text>
</g>
<!-- Fallback*&#45;&gt;MoveTo!** -->
<g id="edge10" class="edge">
<title>Fallback*&#45;&gt;MoveTo!**</title>
<path fill="none" stroke="black" d="M173.82,-148.81C193.89,-137.65 223.82,-121.02 246.44,-108.46"/>
<polygon fill="black" stroke="black" points="248.28,-111.44 255.32,-103.52 244.88,-105.32 248.28,-111.44"/>
</g>
<!-- LkGraph? -->
<g id="node8" class="node">
<title>LkGraph?</title>
<ellipse fill="gray" stroke="black" cx="65.87" cy="-18" rx="30.7" ry="18"/>
<text text-anchor="middle" x="65.87" y="-15.8" font-family="Times,serif" font-size="9.00">LkGraph?</text>
</g>
<!-- Sequence*&#45;&gt;LkGraph? -->
<g id="edge7" class="edge">
<title>Sequence*&#45;&gt;LkGraph?</title>
<path fill="none" stroke="black" d="M98.99,-71.7C93.67,-63.23 87.17,-52.89 81.34,-43.61"/>
<polygon fill="black" stroke="black" points="84.3,-41.75 76.02,-35.14 78.37,-45.47 84.3,-41.75"/>
</g>
<!-- GetSubGoal!* -->
<g id="node9" class="node">
<title>GetSubGoal!*</title>
<ellipse fill="gray" stroke="black" cx="153.87" cy="-18" rx="39.02" ry="18"/>
<text text-anchor="middle" x="153.87" y="-15.8" font-family="Times,serif" font-size="9.00">GetSubGoal!*</text>
</g>
<!-- Sequence*&#45;&gt;GetSubGoal!* -->
<g id="edge8" class="edge">
<title>Sequence*&#45;&gt;GetSubGoal!*</title>
<path fill="none" stroke="black" d="M120.74,-71.7C125.94,-63.44 132.25,-53.39 137.97,-44.3"/>
<polygon fill="black" stroke="black" points="141.06,-45.95 143.42,-35.62 135.13,-42.23 141.06,-45.95"/>
</g>
<!-- MoveTo!********* -->
<g id="node19" class="node">
<title>MoveTo!*********</title>
<ellipse fill="gray" stroke="black" cx="387.87" cy="-90" rx="52.58" ry="18"/>
<text text-anchor="middle" x="387.87" y="-87.8" font-family="Times,serif" font-size="9.00">MoveTo!*********</text>
</g>
<!-- Fallback**&#45;&gt;MoveTo!********* -->
<g id="edge18" class="edge">
<title>Fallback**&#45;&gt;MoveTo!*********</title>
<path fill="none" stroke="black" d="M839.18,-149.73C833.26,-147.52 826.92,-145.43 820.87,-144 659.23,-105.71 612.17,-138.41 448.87,-108 444.49,-107.19 439.98,-106.2 435.48,-105.13"/>
<polygon fill="black" stroke="black" points="436.25,-101.71 425.7,-102.65 434.53,-108.5 436.25,-101.71"/>
</g>
<!-- NotReadyForSG?* -->
<g id="node20" class="node">
<title>NotReadyForSG?*</title>
<ellipse fill="gray" stroke="black" cx="507.87" cy="-90" rx="49.8" ry="18"/>
<text text-anchor="middle" x="507.87" y="-87.8" font-family="Times,serif" font-size="9.00">NotReadyForSG?*</text>
</g>
<!-- Fallback**&#45;&gt;NotReadyForSG?* -->
<g id="edge19" class="edge">
<title>Fallback**&#45;&gt;NotReadyForSG?*</title>
<path fill="none" stroke="black" d="M838.66,-149.76C832.88,-147.59 826.73,-145.53 820.87,-144 710.53,-115.27 678.36,-131.84 566.87,-108 562.7,-107.11 558.4,-106.08 554.11,-104.99"/>
<polygon fill="black" stroke="black" points="554.74,-101.53 544.17,-102.32 552.93,-108.29 554.74,-101.53"/>
</g>
<!-- MoveTo!********** -->
<g id="node21" class="node">
<title>MoveTo!**********</title>
<ellipse fill="gray" stroke="black" cx="630.87" cy="-90" rx="54.7" ry="18"/>
<text text-anchor="middle" x="630.87" y="-87.8" font-family="Times,serif" font-size="9.00">MoveTo!**********</text>
</g>
<!-- Fallback**&#45;&gt;MoveTo!********** -->
<g id="edge20" class="edge">
<title>Fallback**&#45;&gt;MoveTo!**********</title>
<path fill="none" stroke="black" d="M838.02,-150.16C832.39,-148.01 826.46,-145.86 820.87,-144 795.23,-135.49 729.02,-117.34 681.99,-104.66"/>
<polygon fill="black" stroke="black" points="682.83,-101.26 672.27,-102.05 681.01,-108.02 682.83,-101.26"/>
</g>
<!-- GetLk! -->
<g id="node22" class="node">
<title>GetLk!</title>
<ellipse fill="gray" stroke="black" cx="730.87" cy="-90" rx="27" ry="18"/>
<text text-anchor="middle" x="730.87" y="-87.8" font-family="Times,serif" font-size="9.00">GetLk!</text>
</g>
<!-- Fallback**&#45;&gt;GetLk! -->
<g id="edge21" class="edge">
<title>Fallback**&#45;&gt;GetLk!</title>
<path fill="none" stroke="black" d="M841.22,-148.65C818.8,-136.93 785.03,-119.29 760.76,-106.61"/>
<polygon fill="black" stroke="black" points="762.12,-103.38 751.64,-101.85 758.88,-109.58 762.12,-103.38"/>
</g>
<!-- GetSubGoal!** -->
<g id="node23" class="node">
<title>GetSubGoal!**</title>
<ellipse fill="gray" stroke="black" cx="817.87" cy="-90" rx="42.29" ry="18"/>
<text text-anchor="middle" x="817.87" y="-87.8" font-family="Times,serif" font-size="9.00">GetSubGoal!**</text>
</g>
<!-- Fallback**&#45;&gt;GetSubGoal!** -->
<g id="edge22" class="edge">
<title>Fallback**&#45;&gt;GetSubGoal!**</title>
<path fill="none" stroke="black" d="M853.25,-143.7C847.65,-135.35 840.82,-125.18 834.66,-116.02"/>
<polygon fill="black" stroke="black" points="837.51,-113.97 829.03,-107.62 831.7,-117.88 837.51,-113.97"/>
</g>
<!-- ReachGoal? -->
<g id="node24" class="node">
<title>ReachGoal?</title>
<ellipse fill="gray" stroke="black" cx="911.87" cy="-90" rx="34.13" ry="18"/>
<text text-anchor="middle" x="911.87" y="-87.8" font-family="Times,serif" font-size="9.00">ReachGoal?</text>
</g>
<!-- Fallback**&#45;&gt;ReachGoal? -->
<g id="edge23" class="edge">
<title>Fallback**&#45;&gt;ReachGoal?</title>
<path fill="none" stroke="black" d="M876.49,-143.7C882.17,-135.23 889.12,-124.89 895.34,-115.61"/>
<polygon fill="black" stroke="black" points="898.36,-117.4 901.03,-107.14 892.55,-113.5 898.36,-117.4"/>
</g>
<!-- MoveTo!*********** -->
<g id="node26" class="node">
<title>MoveTo!***********</title>
<ellipse fill="gray" stroke="black" cx="1021.87" cy="-90" rx="57.97" ry="18"/>
<text text-anchor="middle" x="1021.87" y="-87.8" font-family="Times,serif" font-size="9.00">MoveTo!***********</text>
</g>
<!-- Fallback***&#45;&gt;MoveTo!*********** -->
<g id="edge25" class="edge">
<title>Fallback***&#45;&gt;MoveTo!***********</title>
<path fill="none" stroke="black" d="M1118.73,-147.5C1101.13,-137.24 1076.62,-122.94 1056.66,-111.3"/>
<polygon fill="black" stroke="black" points="1058.25,-108.17 1047.85,-106.16 1054.72,-114.22 1058.25,-108.17"/>
</g>
<!-- GetSubGoal!*** -->
<g id="node27" class="node">
<title>GetSubGoal!***</title>
<ellipse fill="gray" stroke="black" cx="1141.87" cy="-90" rx="44.41" ry="18"/>
<text text-anchor="middle" x="1141.87" y="-87.8" font-family="Times,serif" font-size="9.00">GetSubGoal!***</text>
</g>
<!-- Fallback***&#45;&gt;GetSubGoal!*** -->
<g id="edge26" class="edge">
<title>Fallback***&#45;&gt;GetSubGoal!***</title>
<path fill="none" stroke="black" d="M1141.87,-143.7C1141.87,-135.98 1141.87,-126.71 1141.87,-118.11"/>
<polygon fill="black" stroke="black" points="1145.37,-118.1 1141.87,-108.1 1138.37,-118.1 1145.37,-118.1"/>
</g>
<!-- NotReadyForSG?** -->
<g id="node28" class="node">
<title>NotReadyForSG?**</title>
<ellipse fill="gray" stroke="black" cx="1255.87" cy="-90" rx="51.92" ry="18"/>
<text text-anchor="middle" x="1255.87" y="-87.8" font-family="Times,serif" font-size="9.00">NotReadyForSG?**</text>
</g>
<!-- Fallback***&#45;&gt;NotReadyForSG?** -->
<g id="edge27" class="edge">
<title>Fallback***&#45;&gt;NotReadyForSG?**</title>
<path fill="none" stroke="black" d="M1164.39,-147.17C1181.08,-136.92 1204.1,-122.79 1222.86,-111.27"/>
<polygon fill="black" stroke="black" points="1224.73,-114.23 1231.42,-106.01 1221.07,-108.26 1224.73,-114.23"/>
</g>
<!-- MoveTo!************ -->
<g id="node29" class="node">
<title>MoveTo!************</title>
<ellipse fill="gray" stroke="black" cx="1385.87" cy="-90" rx="60.09" ry="18"/>
<text text-anchor="middle" x="1385.87" y="-87.8" font-family="Times,serif" font-size="9.00">MoveTo!************</text>
</g>
<!-- Fallback***&#45;&gt;MoveTo!************ -->
<g id="edge28" class="edge">
<title>Fallback***&#45;&gt;MoveTo!************</title>
<path fill="none" stroke="black" d="M1170.57,-150.18C1176.58,-148.04 1182.91,-145.88 1188.87,-144 1236.36,-129.05 1291.1,-114.54 1330.81,-104.49"/>
<polygon fill="black" stroke="black" points="1331.72,-107.87 1340.57,-102.03 1330.01,-101.08 1331.72,-107.87"/>
</g>
<!-- GetLk!* -->
<g id="node30" class="node">
<title>GetLk!*</title>
<ellipse fill="gray" stroke="black" cx="1490.87" cy="-90" rx="27.27" ry="18"/>
<text text-anchor="middle" x="1490.87" y="-87.8" font-family="Times,serif" font-size="9.00">GetLk!*</text>
</g>
<!-- Fallback***&#45;&gt;GetLk!* -->
<g id="edge29" class="edge">
<title>Fallback***&#45;&gt;GetLk!*</title>
<path fill="none" stroke="black" d="M1169.9,-149.76C1176.07,-147.6 1182.63,-145.53 1188.87,-144 1304.73,-115.55 1340.48,-141.87 1454.87,-108 1456.81,-107.43 1458.77,-106.76 1460.73,-106.03"/>
<polygon fill="black" stroke="black" points="1462.48,-109.1 1470.35,-102.01 1459.78,-102.64 1462.48,-109.1"/>
</g>
<!-- MoveTo!************* -->
<g id="node31" class="node">
<title>MoveTo!*************</title>
<ellipse fill="gray" stroke="black" cx="1598.87" cy="-90" rx="62.86" ry="18"/>
<text text-anchor="middle" x="1598.87" y="-87.8" font-family="Times,serif" font-size="9.00">MoveTo!*************</text>
</g>
<!-- Fallback***&#45;&gt;MoveTo!************* -->
<g id="edge30" class="edge">
<title>Fallback***&#45;&gt;MoveTo!*************</title>
<path fill="none" stroke="black" d="M1169.87,-149.63C1176.04,-147.47 1182.61,-145.44 1188.87,-144 1336.08,-110.06 1377.95,-133.41 1526.87,-108 1532.33,-107.07 1537.99,-105.97 1543.63,-104.78"/>
<polygon fill="black" stroke="black" points="1544.7,-108.13 1553.72,-102.57 1543.21,-101.29 1544.7,-108.13"/>
</g>
<!-- GetLk!** -->
<g id="node32" class="node">
<title>GetLk!**</title>
<ellipse fill="gray" stroke="black" cx="1708.87" cy="-90" rx="29.39" ry="18"/>
<text text-anchor="middle" x="1708.87" y="-87.8" font-family="Times,serif" font-size="9.00">GetLk!**</text>
</g>
<!-- Fallback***&#45;&gt;GetLk!** -->
<g id="edge31" class="edge">
<title>Fallback***&#45;&gt;GetLk!**</title>
<path fill="none" stroke="black" d="M1169.34,-149.65C1175.66,-147.44 1182.42,-145.38 1188.87,-144 1398.93,-99.05 1462.6,-160.65 1670.87,-108 1673.17,-107.42 1675.51,-106.7 1677.84,-105.9"/>
<polygon fill="black" stroke="black" points="1679.19,-109.13 1687.23,-102.22 1676.64,-102.61 1679.19,-109.13"/>
</g>
</g>
</svg>
