<?xml version="1.0" encoding="UTF-8" standalone="no"?>
<!DOCTYPE svg PUBLIC "-//W3C//DTD SVG 1.1//EN"
 "http://www.w3.org/Graphics/SVG/1.1/DTD/svg11.dtd">
<!-- Generated by graphviz version 2.43.0 (0)
 -->
<!-- Title: pastafarianism Pages: 1 -->
<svg width="1206pt" height="332pt"
 viewBox="0.00 0.00 1206.00 332.00" xmlns="http://www.w3.org/2000/svg" xmlns:xlink="http://www.w3.org/1999/xlink">
<g id="graph0" class="graph" transform="scale(1 1) rotate(0) translate(4 328)">
<title>pastafarianism</title>
<polygon fill="white" stroke="transparent" points="-4,4 -4,-328 1202,-328 1202,4 -4,4"/>
<!-- Fallback -->
<g id="node1" class="node">
<title>Fallback</title>
<polygon fill="cyan" stroke="black" points="518.11,-298.54 518.11,-313.46 500.98,-324 476.75,-324 459.62,-313.46 459.62,-298.54 476.75,-288 500.98,-288 518.11,-298.54"/>
<text text-anchor="middle" x="488.87" y="-303.8" font-family="Times,serif" font-size="9.00">Fallback</text>
</g>
<!-- NotReadyForSG? -->
<g id="node2" class="node">
<title>NotReadyForSG?</title>
<ellipse fill="gray" stroke="black" cx="440.87" cy="-234" rx="46.53" ry="18"/>
<text text-anchor="middle" x="440.87" y="-231.8" font-family="Times,serif" font-size="9.00">NotReadyForSG?</text>
</g>
<!-- Fallback&#45;&gt;NotReadyForSG? -->
<g id="edge1" class="edge">
<title>Fallback&#45;&gt;NotReadyForSG?</title>
<path fill="none" stroke="black" d="M477,-287.7C471.28,-279.35 464.31,-269.18 458.02,-260.02"/>
<polygon fill="black" stroke="black" points="460.81,-257.89 452.27,-251.62 455.03,-261.85 460.81,-257.89"/>
</g>
<!-- Sequence -->
<g id="node3" class="node">
<title>Sequence</title>
<polygon fill="cyan" stroke="black" points="568.36,-226.54 568.36,-241.46 549.91,-252 523.82,-252 505.37,-241.46 505.37,-226.54 523.82,-216 549.91,-216 568.36,-226.54"/>
<text text-anchor="middle" x="536.87" y="-231.8" font-family="Times,serif" font-size="9.00">Sequence</text>
</g>
<!-- Fallback&#45;&gt;Sequence -->
<g id="edge2" class="edge">
<title>Fallback&#45;&gt;Sequence</title>
<path fill="none" stroke="black" d="M500.73,-287.7C506.37,-279.47 513.22,-269.48 519.44,-260.42"/>
<polygon fill="black" stroke="black" points="522.37,-262.33 525.14,-252.1 516.6,-258.37 522.37,-262.33"/>
</g>
<!-- GetSubGoal! -->
<g id="node4" class="node">
<title>GetSubGoal!</title>
<ellipse fill="gray" stroke="black" cx="64.87" cy="-162" rx="36.9" ry="18"/>
<text text-anchor="middle" x="64.87" y="-159.8" font-family="Times,serif" font-size="9.00">GetSubGoal!</text>
</g>
<!-- Sequence&#45;&gt;GetSubGoal! -->
<g id="edge3" class="edge">
<title>Sequence&#45;&gt;GetSubGoal!</title>
<path fill="none" stroke="black" d="M513.6,-221.69C508.21,-219.47 502.43,-217.4 496.87,-216 329.81,-173.8 278.88,-218.19 110.87,-180 107.89,-179.32 104.85,-178.5 101.81,-177.59"/>
<polygon fill="black" stroke="black" points="102.84,-174.25 92.24,-174.44 100.65,-180.89 102.84,-174.25"/>
</g>
<!-- Fallback* -->
<g id="node5" class="node">
<title>Fallback*</title>
<polygon fill="cyan" stroke="black" points="183.61,-154.54 183.61,-169.46 165.02,-180 138.72,-180 120.13,-169.46 120.13,-154.54 138.72,-144 165.02,-144 183.61,-154.54"/>
<text text-anchor="middle" x="151.87" y="-159.8" font-family="Times,serif" font-size="9.00">Fallback*</text>
</g>
<!-- Sequence&#45;&gt;Fallback* -->
<g id="edge4" class="edge">
<title>Sequence&#45;&gt;Fallback*</title>
<path fill="none" stroke="black" d="M513.57,-221.79C508.19,-219.57 502.41,-217.47 496.87,-216 365.38,-181.04 324.51,-214.38 192.87,-180 190.39,-179.35 187.86,-178.59 185.34,-177.74"/>
<polygon fill="black" stroke="black" points="186.36,-174.39 175.77,-174.2 183.93,-180.95 186.36,-174.39"/>
</g>
<!-- MoveTo!*** -->
<g id="node12" class="node">
<title>MoveTo!***</title>
<ellipse fill="gray" stroke="black" cx="238.87" cy="-162" rx="36.9" ry="18"/>
<text text-anchor="middle" x="238.87" y="-159.8" font-family="Times,serif" font-size="9.00">MoveTo!***</text>
</g>
<!-- Sequence&#45;&gt;MoveTo!*** -->
<g id="edge11" class="edge">
<title>Sequence&#45;&gt;MoveTo!***</title>
<path fill="none" stroke="black" d="M513.09,-221.82C507.83,-219.65 502.23,-217.57 496.87,-216 405.15,-189.13 377.2,-204.67 284.87,-180 281.92,-179.21 278.89,-178.31 275.87,-177.35"/>
<polygon fill="black" stroke="black" points="276.92,-174.01 266.33,-174.09 274.67,-180.63 276.92,-174.01"/>
</g>
<!-- MoveTo!**** -->
<g id="node13" class="node">
<title>MoveTo!****</title>
<ellipse fill="gray" stroke="black" cx="332.87" cy="-162" rx="39.02" ry="18"/>
<text text-anchor="middle" x="332.87" y="-159.8" font-family="Times,serif" font-size="9.00">MoveTo!****</text>
</g>
<!-- Sequence&#45;&gt;MoveTo!**** -->
<g id="edge12" class="edge">
<title>Sequence&#45;&gt;MoveTo!****</title>
<path fill="none" stroke="black" d="M512.49,-222.18C507.36,-220.03 501.97,-217.87 496.87,-216 446.18,-197.42 432.1,-197.01 380.87,-180 378.11,-179.09 375.28,-178.13 372.43,-177.15"/>
<polygon fill="black" stroke="black" points="373.36,-173.77 362.76,-173.79 371.06,-180.38 373.36,-173.77"/>
</g>
<!-- MoveTo!***** -->
<g id="node14" class="node">
<title>MoveTo!*****</title>
<ellipse fill="gray" stroke="black" cx="431.87" cy="-162" rx="42.29" ry="18"/>
<text text-anchor="middle" x="431.87" y="-159.8" font-family="Times,serif" font-size="9.00">MoveTo!*****</text>
</g>
<!-- Sequence&#45;&gt;MoveTo!***** -->
<g id="edge13" class="edge">
<title>Sequence&#45;&gt;MoveTo!*****</title>
<path fill="none" stroke="black" d="M516.62,-219.5C501.3,-209.29 479.98,-195.08 462.56,-183.46"/>
<polygon fill="black" stroke="black" points="464.12,-180.3 453.86,-177.66 460.24,-186.12 464.12,-180.3"/>
</g>
<!-- MoveTo!****** -->
<g id="node15" class="node">
<title>MoveTo!******</title>
<ellipse fill="gray" stroke="black" cx="536.87" cy="-162" rx="44.41" ry="18"/>
<text text-anchor="middle" x="536.87" y="-159.8" font-family="Times,serif" font-size="9.00">MoveTo!******</text>
</g>
<!-- Sequence&#45;&gt;MoveTo!****** -->
<g id="edge14" class="edge">
<title>Sequence&#45;&gt;MoveTo!******</title>
<path fill="none" stroke="black" d="M536.87,-215.7C536.87,-207.98 536.87,-198.71 536.87,-190.11"/>
<polygon fill="black" stroke="black" points="540.37,-190.1 536.87,-180.1 533.37,-190.1 540.37,-190.1"/>
</g>
<!-- MoveTo!******* -->
<g id="node16" class="node">
<title>MoveTo!*******</title>
<ellipse fill="gray" stroke="black" cx="646.87" cy="-162" rx="47.19" ry="18"/>
<text text-anchor="middle" x="646.87" y="-159.8" font-family="Times,serif" font-size="9.00">MoveTo!*******</text>
</g>
<!-- Sequence&#45;&gt;MoveTo!******* -->
<g id="edge15" class="edge">
<title>Sequence&#45;&gt;MoveTo!*******</title>
<path fill="none" stroke="black" d="M557.3,-220C573.5,-209.69 596.42,-195.1 615.03,-183.26"/>
<polygon fill="black" stroke="black" points="616.94,-186.2 623.49,-177.87 613.18,-180.29 616.94,-186.2"/>
</g>
<!-- MoveTo!******** -->
<g id="node17" class="node">
<title>MoveTo!********</title>
<ellipse fill="gray" stroke="black" cx="761.87" cy="-162" rx="49.8" ry="18"/>
<text text-anchor="middle" x="761.87" y="-159.8" font-family="Times,serif" font-size="9.00">MoveTo!********</text>
</g>
<!-- Sequence&#45;&gt;MoveTo!******** -->
<g id="edge16" class="edge">
<title>Sequence&#45;&gt;MoveTo!********</title>
<path fill="none" stroke="black" d="M564.91,-224.28C602.66,-212.53 670.32,-191.48 715.66,-177.38"/>
<polygon fill="black" stroke="black" points="716.75,-180.7 725.26,-174.39 714.67,-174.02 716.75,-180.7"/>
</g>
<!-- Fallback** -->
<g id="node18" class="node">
<title>Fallback**</title>
<polygon fill="cyan" stroke="black" points="899.86,-154.54 899.86,-169.46 879.36,-180 850.37,-180 829.88,-169.46 829.88,-154.54 850.37,-144 879.36,-144 899.86,-154.54"/>
<text text-anchor="middle" x="864.87" y="-159.8" font-family="Times,serif" font-size="9.00">Fallback**</text>
</g>
<!-- Sequence&#45;&gt;Fallback** -->
<g id="edge17" class="edge">
<title>Sequence&#45;&gt;Fallback**</title>
<path fill="none" stroke="black" d="M568.4,-229.05C621.28,-222 730.88,-205.54 820.87,-180 823.51,-179.25 826.21,-178.41 828.92,-177.5"/>
<polygon fill="black" stroke="black" points="830.37,-180.7 838.61,-174.05 828.02,-174.11 830.37,-180.7"/>
</g>
<!-- MoveTo!************ -->
<g id="node26" class="node">
<title>MoveTo!************</title>
<ellipse fill="gray" stroke="black" cx="977.87" cy="-162" rx="60.09" ry="18"/>
<text text-anchor="middle" x="977.87" y="-159.8" font-family="Times,serif" font-size="9.00">MoveTo!************</text>
</g>
<!-- Sequence&#45;&gt;MoveTo!************ -->
<g id="edge25" class="edge">
<title>Sequence&#45;&gt;MoveTo!************</title>
<path fill="none" stroke="black" d="M568.4,-229.59C632.74,-222.39 783.66,-204.28 908.87,-180 913.89,-179.03 919.09,-177.92 924.28,-176.76"/>
<polygon fill="black" stroke="black" points="925.26,-180.12 934.21,-174.45 923.68,-173.3 925.26,-180.12"/>
</g>
<!-- ReachGoal? -->
<g id="node27" class="node">
<title>ReachGoal?</title>
<ellipse fill="gray" stroke="black" cx="1089.87" cy="-162" rx="34.13" ry="18"/>
<text text-anchor="middle" x="1089.87" y="-159.8" font-family="Times,serif" font-size="9.00">ReachGoal?</text>
</g>
<!-- Sequence&#45;&gt;ReachGoal? -->
<g id="edge26" class="edge">
<title>Sequence&#45;&gt;ReachGoal?</title>
<path fill="none" stroke="black" d="M568.13,-232.7C648.67,-231.29 869.39,-223.43 1046.87,-180 1049.65,-179.32 1052.48,-178.5 1055.31,-177.59"/>
<polygon fill="black" stroke="black" points="1056.52,-180.88 1064.78,-174.24 1054.18,-174.28 1056.52,-180.88"/>
</g>
<!-- MoveTo! -->
<g id="node6" class="node">
<title>MoveTo!</title>
<ellipse fill="gray" stroke="black" cx="28.87" cy="-90" rx="28.74" ry="18"/>
<text text-anchor="middle" x="28.87" y="-87.8" font-family="Times,serif" font-size="9.00">MoveTo!</text>
</g>
<!-- Fallback*&#45;&gt;MoveTo! -->
<g id="edge5" class="edge">
<title>Fallback*&#45;&gt;MoveTo!</title>
<path fill="none" stroke="black" d="M130.16,-148.65C110.25,-137.31 80.58,-120.43 58.49,-107.86"/>
<polygon fill="black" stroke="black" points="59.96,-104.67 49.54,-102.76 56.5,-110.75 59.96,-104.67"/>
</g>
<!-- Sequence* -->
<g id="node7" class="node">
<title>Sequence*</title>
<polygon fill="cyan" stroke="black" points="144.11,-82.54 144.11,-97.46 124.05,-108 95.68,-108 75.63,-97.46 75.63,-82.54 95.68,-72 124.05,-72 144.11,-82.54"/>
<text text-anchor="middle" x="109.87" y="-87.8" font-family="Times,serif" font-size="9.00">Sequence*</text>
</g>
<!-- Fallback*&#45;&gt;Sequence* -->
<g id="edge6" class="edge">
<title>Fallback*&#45;&gt;Sequence*</title>
<path fill="none" stroke="black" d="M141.49,-143.7C136.6,-135.56 130.68,-125.69 125.29,-116.7"/>
<polygon fill="black" stroke="black" points="128.28,-114.88 120.13,-108.1 122.27,-118.48 128.28,-114.88"/>
</g>
<!-- MoveTo!* -->
<g id="node10" class="node">
<title>MoveTo!*</title>
<ellipse fill="gray" stroke="black" cx="193.87" cy="-90" rx="31.51" ry="18"/>
<text text-anchor="middle" x="193.87" y="-87.8" font-family="Times,serif" font-size="9.00">MoveTo!*</text>
</g>
<!-- Fallback*&#45;&gt;MoveTo!* -->
<g id="edge9" class="edge">
<title>Fallback*&#45;&gt;MoveTo!*</title>
<path fill="none" stroke="black" d="M162.25,-143.7C167.28,-135.32 173.41,-125.1 178.93,-115.9"/>
<polygon fill="black" stroke="black" points="182.04,-117.52 184.18,-107.14 176.03,-113.92 182.04,-117.52"/>
</g>
<!-- MoveTo!** -->
<g id="node11" class="node">
<title>MoveTo!**</title>
<ellipse fill="gray" stroke="black" cx="277.87" cy="-90" rx="34.13" ry="18"/>
<text text-anchor="middle" x="277.87" y="-87.8" font-family="Times,serif" font-size="9.00">MoveTo!**</text>
</g>
<!-- Fallback*&#45;&gt;MoveTo!** -->
<g id="edge10" class="edge">
<title>Fallback*&#45;&gt;MoveTo!**</title>
<path fill="none" stroke="black" d="M173.82,-148.81C193.89,-137.65 223.82,-121.02 246.44,-108.46"/>
<polygon fill="black" stroke="black" points="248.28,-111.44 255.32,-103.52 244.88,-105.32 248.28,-111.44"/>
</g>
<!-- LkGraph? -->
<g id="node8" class="node">
<title>LkGraph?</title>
<ellipse fill="gray" stroke="black" cx="65.87" cy="-18" rx="30.7" ry="18"/>
<text text-anchor="middle" x="65.87" y="-15.8" font-family="Times,serif" font-size="9.00">LkGraph?</text>
</g>
<!-- Sequence*&#45;&gt;LkGraph? -->
<g id="edge7" class="edge">
<title>Sequence*&#45;&gt;LkGraph?</title>
<path fill="none" stroke="black" d="M98.99,-71.7C93.67,-63.23 87.17,-52.89 81.34,-43.61"/>
<polygon fill="black" stroke="black" points="84.3,-41.75 76.02,-35.14 78.37,-45.47 84.3,-41.75"/>
</g>
<!-- GetSubGoal!* -->
<g id="node9" class="node">
<title>GetSubGoal!*</title>
<ellipse fill="gray" stroke="black" cx="153.87" cy="-18" rx="39.02" ry="18"/>
<text text-anchor="middle" x="153.87" y="-15.8" font-family="Times,serif" font-size="9.00">GetSubGoal!*</text>
</g>
<!-- Sequence*&#45;&gt;GetSubGoal!* -->
<g id="edge8" class="edge">
<title>Sequence*&#45;&gt;GetSubGoal!*</title>
<path fill="none" stroke="black" d="M120.74,-71.7C125.94,-63.44 132.25,-53.39 137.97,-44.3"/>
<polygon fill="black" stroke="black" points="141.06,-45.95 143.42,-35.62 135.13,-42.23 141.06,-45.95"/>
</g>
<!-- MoveTo!********* -->
<g id="node19" class="node">
<title>MoveTo!*********</title>
<ellipse fill="gray" stroke="black" cx="518.87" cy="-90" rx="52.58" ry="18"/>
<text text-anchor="middle" x="518.87" y="-87.8" font-family="Times,serif" font-size="9.00">MoveTo!*********</text>
</g>
<!-- Fallback**&#45;&gt;MoveTo!********* -->
<g id="edge18" class="edge">
<title>Fallback**&#45;&gt;MoveTo!*********</title>
<path fill="none" stroke="black" d="M838.65,-149.79C832.87,-147.63 826.73,-145.55 820.87,-144 716.6,-116.4 686.4,-130.3 580.87,-108 576.45,-107.07 571.88,-106 567.31,-104.87"/>
<polygon fill="black" stroke="black" points="567.95,-101.42 557.39,-102.32 566.2,-108.2 567.95,-101.42"/>
</g>
<!-- GetSubGoal!** -->
<g id="node20" class="node">
<title>GetSubGoal!**</title>
<ellipse fill="gray" stroke="black" cx="631.87" cy="-90" rx="42.29" ry="18"/>
<text text-anchor="middle" x="631.87" y="-87.8" font-family="Times,serif" font-size="9.00">GetSubGoal!**</text>
</g>
<!-- Fallback**&#45;&gt;GetSubGoal!** -->
<g id="edge19" class="edge">
<title>Fallback**&#45;&gt;GetSubGoal!**</title>
<path fill="none" stroke="black" d="M838.05,-150.08C832.41,-147.95 826.48,-145.81 820.87,-144 760.54,-124.55 743.63,-126.03 682.87,-108 679.74,-107.07 676.51,-106.08 673.27,-105.06"/>
<polygon fill="black" stroke="black" points="674.19,-101.67 663.59,-101.94 672.04,-108.34 674.19,-101.67"/>
</g>
<!-- NotReadyForSG?* -->
<g id="node21" class="node">
<title>NotReadyForSG?*</title>
<ellipse fill="gray" stroke="black" cx="741.87" cy="-90" rx="49.8" ry="18"/>
<text text-anchor="middle" x="741.87" y="-87.8" font-family="Times,serif" font-size="9.00">NotReadyForSG?*</text>
</g>
<!-- Fallback**&#45;&gt;NotReadyForSG?* -->
<g id="edge20" class="edge">
<title>Fallback**&#45;&gt;NotReadyForSG?*</title>
<path fill="none" stroke="black" d="M842.02,-148C823.62,-137.53 797.46,-122.64 776.49,-110.71"/>
<polygon fill="black" stroke="black" points="777.99,-107.53 767.57,-105.63 774.53,-113.61 777.99,-107.53"/>
</g>
<!-- MoveTo!********** -->
<g id="node22" class="node">
<title>MoveTo!**********</title>
<ellipse fill="gray" stroke="black" cx="864.87" cy="-90" rx="54.7" ry="18"/>
<text text-anchor="middle" x="864.87" y="-87.8" font-family="Times,serif" font-size="9.00">MoveTo!**********</text>
</g>
<!-- Fallback**&#45;&gt;MoveTo!********** -->
<g id="edge21" class="edge">
<title>Fallback**&#45;&gt;MoveTo!**********</title>
<path fill="none" stroke="black" d="M864.87,-143.7C864.87,-135.98 864.87,-126.71 864.87,-118.11"/>
<polygon fill="black" stroke="black" points="868.37,-118.1 864.87,-108.1 861.37,-118.1 868.37,-118.1"/>
</g>
<!-- GetLk! -->
<g id="node23" class="node">
<title>GetLk!</title>
<ellipse fill="gray" stroke="black" cx="964.87" cy="-90" rx="27" ry="18"/>
<text text-anchor="middle" x="964.87" y="-87.8" font-family="Times,serif" font-size="9.00">GetLk!</text>
</g>
<!-- Fallback**&#45;&gt;GetLk! -->
<g id="edge22" class="edge">
<title>Fallback**&#45;&gt;GetLk!</title>
<path fill="none" stroke="black" d="M885.1,-146.83C900.56,-136.02 921.98,-121.02 938.73,-109.3"/>
<polygon fill="black" stroke="black" points="940.82,-112.1 947.01,-103.5 936.81,-106.37 940.82,-112.1"/>
</g>
<!-- MoveTo!*********** -->
<g id="node24" class="node">
<title>MoveTo!***********</title>
<ellipse fill="gray" stroke="black" cx="1067.87" cy="-90" rx="57.97" ry="18"/>
<text text-anchor="middle" x="1067.87" y="-87.8" font-family="Times,serif" font-size="9.00">MoveTo!***********</text>
</g>
<!-- Fallback**&#45;&gt;MoveTo!*********** -->
<g id="edge23" class="edge">
<title>Fallback**&#45;&gt;MoveTo!***********</title>
<path fill="none" stroke="black" d="M891.78,-150.37C897.41,-148.21 903.32,-146 908.87,-144 945.56,-130.81 987.4,-116.9 1018.95,-106.65"/>
<polygon fill="black" stroke="black" points="1020.38,-109.87 1028.81,-103.45 1018.22,-103.21 1020.38,-109.87"/>
</g>
<!-- GetLk!* -->
<g id="node25" class="node">
<title>GetLk!*</title>
<ellipse fill="gray" stroke="black" cx="1170.87" cy="-90" rx="27.27" ry="18"/>
<text text-anchor="middle" x="1170.87" y="-87.8" font-family="Times,serif" font-size="9.00">GetLk!*</text>
</g>
<!-- Fallback**&#45;&gt;GetLk!* -->
<g id="edge24" class="edge">
<title>Fallback**&#45;&gt;GetLk!*</title>
<path fill="none" stroke="black" d="M891.09,-149.83C896.87,-147.66 903.02,-145.58 908.87,-144 1007.07,-117.52 1037.69,-138.02 1134.87,-108 1136.8,-107.4 1138.76,-106.72 1140.72,-105.98"/>
<polygon fill="black" stroke="black" points="1142.48,-109.04 1150.33,-101.92 1139.75,-102.59 1142.48,-109.04"/>
</g>
</g>
</svg>
