<?xml version="1.0" encoding="UTF-8" standalone="no"?>
<!DOCTYPE svg PUBLIC "-//W3C//DTD SVG 1.1//EN"
 "http://www.w3.org/Graphics/SVG/1.1/DTD/svg11.dtd">
<!-- Generated by graphviz version 2.43.0 (0)
 -->
<!-- Title: pastafarianism Pages: 1 -->
<svg width="1955pt" height="404pt"
 viewBox="0.00 0.00 1955.04 404.00" xmlns="http://www.w3.org/2000/svg" xmlns:xlink="http://www.w3.org/1999/xlink">
<g id="graph0" class="graph" transform="scale(1 1) rotate(0) translate(4 400)">
<title>pastafarianism</title>
<polygon fill="white" stroke="transparent" points="-4,4 -4,-400 1951.04,-400 1951.04,4 -4,4"/>
<!-- Fallback -->
<g id="node1" class="node">
<title>Fallback</title>
<polygon fill="cyan" stroke="black" points="847.84,-370.54 847.84,-385.46 830.71,-396 806.49,-396 789.36,-385.46 789.36,-370.54 806.49,-360 830.71,-360 847.84,-370.54"/>
<text text-anchor="middle" x="818.6" y="-375.8" font-family="Times,serif" font-size="9.00">Fallback</text>
</g>
<!-- NotReadyForSG? -->
<g id="node2" class="node">
<title>NotReadyForSG?</title>
<ellipse fill="gray" stroke="black" cx="770.6" cy="-306" rx="46.53" ry="18"/>
<text text-anchor="middle" x="770.6" y="-303.8" font-family="Times,serif" font-size="9.00">NotReadyForSG?</text>
</g>
<!-- Fallback&#45;&gt;NotReadyForSG? -->
<g id="edge1" class="edge">
<title>Fallback&#45;&gt;NotReadyForSG?</title>
<path fill="none" stroke="black" d="M806.73,-359.7C801.01,-351.35 794.04,-341.18 787.75,-332.02"/>
<polygon fill="black" stroke="black" points="790.54,-329.89 782,-323.62 784.77,-333.85 790.54,-329.89"/>
</g>
<!-- Sequence -->
<g id="node3" class="node">
<title>Sequence</title>
<polygon fill="cyan" stroke="black" points="898.09,-298.54 898.09,-313.46 879.64,-324 853.55,-324 835.11,-313.46 835.11,-298.54 853.55,-288 879.64,-288 898.09,-298.54"/>
<text text-anchor="middle" x="866.6" y="-303.8" font-family="Times,serif" font-size="9.00">Sequence</text>
</g>
<!-- Fallback&#45;&gt;Sequence -->
<g id="edge2" class="edge">
<title>Fallback&#45;&gt;Sequence</title>
<path fill="none" stroke="black" d="M830.46,-359.7C836.1,-351.47 842.95,-341.48 849.17,-332.42"/>
<polygon fill="black" stroke="black" points="852.1,-334.33 854.87,-324.1 846.33,-330.37 852.1,-334.33"/>
</g>
<!-- GetSubGoal! -->
<g id="node4" class="node">
<title>GetSubGoal!</title>
<ellipse fill="gray" stroke="black" cx="227.6" cy="-234" rx="36.9" ry="18"/>
<text text-anchor="middle" x="227.6" y="-231.8" font-family="Times,serif" font-size="9.00">GetSubGoal!</text>
</g>
<!-- Sequence&#45;&gt;GetSubGoal! -->
<g id="edge3" class="edge">
<title>Sequence&#45;&gt;GetSubGoal!</title>
<path fill="none" stroke="black" d="M843.36,-293.57C837.97,-291.36 832.18,-289.33 826.6,-288 586.98,-231.03 514.51,-303.22 273.6,-252 270.43,-251.33 267.2,-250.48 263.98,-249.52"/>
<polygon fill="black" stroke="black" points="265.05,-246.19 254.46,-246.4 262.87,-252.84 265.05,-246.19"/>
</g>
<!-- Fallback* -->
<g id="node5" class="node">
<title>Fallback*</title>
<polygon fill="cyan" stroke="black" points="346.34,-226.54 346.34,-241.46 327.75,-252 301.45,-252 282.86,-241.46 282.86,-226.54 301.45,-216 327.75,-216 346.34,-226.54"/>
<text text-anchor="middle" x="314.6" y="-231.8" font-family="Times,serif" font-size="9.00">Fallback*</text>
</g>
<!-- Sequence&#45;&gt;Fallback* -->
<g id="edge4" class="edge">
<title>Sequence&#45;&gt;Fallback*</title>
<path fill="none" stroke="black" d="M843.35,-293.62C837.96,-291.41 832.17,-289.36 826.6,-288 622.63,-238.28 559.79,-300.82 355.6,-252 352.95,-251.37 350.25,-250.58 347.57,-249.71"/>
<polygon fill="black" stroke="black" points="348.62,-246.36 338.02,-246.2 346.2,-252.93 348.62,-246.36"/>
</g>
<!-- MoveTo!*** -->
<g id="node17" class="node">
<title>MoveTo!***</title>
<ellipse fill="gray" stroke="black" cx="401.6" cy="-234" rx="36.9" ry="18"/>
<text text-anchor="middle" x="401.6" y="-231.8" font-family="Times,serif" font-size="9.00">MoveTo!***</text>
</g>
<!-- Sequence&#45;&gt;MoveTo!*** -->
<g id="edge16" class="edge">
<title>Sequence&#45;&gt;MoveTo!***</title>
<path fill="none" stroke="black" d="M843.33,-293.7C837.94,-291.48 832.16,-289.41 826.6,-288 662.59,-246.42 612.56,-289.64 447.6,-252 444.62,-251.32 441.58,-250.5 438.55,-249.59"/>
<polygon fill="black" stroke="black" points="439.57,-246.24 428.98,-246.43 437.38,-252.89 439.57,-246.24"/>
</g>
<!-- MoveTo!**** -->
<g id="node18" class="node">
<title>MoveTo!****</title>
<ellipse fill="gray" stroke="black" cx="495.6" cy="-234" rx="39.02" ry="18"/>
<text text-anchor="middle" x="495.6" y="-231.8" font-family="Times,serif" font-size="9.00">MoveTo!****</text>
</g>
<!-- Sequence&#45;&gt;MoveTo!**** -->
<g id="edge17" class="edge">
<title>Sequence&#45;&gt;MoveTo!****</title>
<path fill="none" stroke="black" d="M843.29,-293.83C837.91,-291.6 832.14,-289.5 826.6,-288 704.21,-254.89 666.95,-281.33 543.6,-252 540.46,-251.25 537.24,-250.37 534.03,-249.42"/>
<polygon fill="black" stroke="black" points="535.08,-246.08 524.49,-246.35 532.94,-252.74 535.08,-246.08"/>
</g>
<!-- MoveTo!***** -->
<g id="node19" class="node">
<title>MoveTo!*****</title>
<ellipse fill="gray" stroke="black" cx="594.6" cy="-234" rx="42.29" ry="18"/>
<text text-anchor="middle" x="594.6" y="-231.8" font-family="Times,serif" font-size="9.00">MoveTo!*****</text>
</g>
<!-- Sequence&#45;&gt;MoveTo!***** -->
<g id="edge18" class="edge">
<title>Sequence&#45;&gt;MoveTo!*****</title>
<path fill="none" stroke="black" d="M842.78,-293.94C837.53,-291.76 831.93,-289.65 826.6,-288 748.65,-263.92 725.51,-272.71 646.6,-252 643.19,-251.1 639.67,-250.11 636.16,-249.07"/>
<polygon fill="black" stroke="black" points="636.91,-245.64 626.32,-246.03 634.84,-252.33 636.91,-245.64"/>
</g>
<!-- MoveTo!****** -->
<g id="node20" class="node">
<title>MoveTo!******</title>
<ellipse fill="gray" stroke="black" cx="699.6" cy="-234" rx="44.41" ry="18"/>
<text text-anchor="middle" x="699.6" y="-231.8" font-family="Times,serif" font-size="9.00">MoveTo!******</text>
</g>
<!-- Sequence&#45;&gt;MoveTo!****** -->
<g id="edge19" class="edge">
<title>Sequence&#45;&gt;MoveTo!******</title>
<path fill="none" stroke="black" d="M842.07,-294.55C836.96,-292.38 831.61,-290.11 826.6,-288 797.25,-275.64 764.03,-261.78 738.93,-251.33"/>
<polygon fill="black" stroke="black" points="739.97,-247.98 729.39,-247.37 737.28,-254.44 739.97,-247.98"/>
</g>
<!-- MoveTo!******* -->
<g id="node21" class="node">
<title>MoveTo!*******</title>
<ellipse fill="gray" stroke="black" cx="809.6" cy="-234" rx="47.19" ry="18"/>
<text text-anchor="middle" x="809.6" y="-231.8" font-family="Times,serif" font-size="9.00">MoveTo!*******</text>
</g>
<!-- Sequence&#45;&gt;MoveTo!******* -->
<g id="edge20" class="edge">
<title>Sequence&#45;&gt;MoveTo!*******</title>
<path fill="none" stroke="black" d="M852.8,-288.05C845.77,-279.42 837.09,-268.76 829.36,-259.27"/>
<polygon fill="black" stroke="black" points="831.91,-256.85 822.88,-251.31 826.48,-261.27 831.91,-256.85"/>
</g>
<!-- MoveTo!******** -->
<g id="node22" class="node">
<title>MoveTo!********</title>
<ellipse fill="gray" stroke="black" cx="924.6" cy="-234" rx="49.8" ry="18"/>
<text text-anchor="middle" x="924.6" y="-231.8" font-family="Times,serif" font-size="9.00">MoveTo!********</text>
</g>
<!-- Sequence&#45;&gt;MoveTo!******** -->
<g id="edge21" class="edge">
<title>Sequence&#45;&gt;MoveTo!********</title>
<path fill="none" stroke="black" d="M880.64,-288.05C887.69,-279.54 896.37,-269.07 904.15,-259.68"/>
<polygon fill="black" stroke="black" points="907,-261.72 910.69,-251.79 901.61,-257.26 907,-261.72"/>
</g>
<!-- Fallback*** -->
<g id="node23" class="node">
<title>Fallback***</title>
<polygon fill="cyan" stroke="black" points="1067.09,-226.54 1067.09,-241.46 1045.13,-252 1014.07,-252 992.11,-241.46 992.11,-226.54 1014.07,-216 1045.13,-216 1067.09,-226.54"/>
<text text-anchor="middle" x="1029.6" y="-231.8" font-family="Times,serif" font-size="9.00">Fallback***</text>
</g>
<!-- Sequence&#45;&gt;Fallback*** -->
<g id="edge22" class="edge">
<title>Sequence&#45;&gt;Fallback***</title>
<path fill="none" stroke="black" d="M891.36,-294.37C918.44,-282.74 962.12,-263.98 993.12,-250.66"/>
<polygon fill="black" stroke="black" points="994.9,-253.71 1002.71,-246.55 992.14,-247.28 994.9,-253.71"/>
</g>
<!-- Fallback**** -->
<g id="node30" class="node">
<title>Fallback****</title>
<polygon fill="cyan" stroke="black" points="1314.34,-226.54 1314.34,-241.46 1290.47,-252 1256.72,-252 1232.86,-241.46 1232.86,-226.54 1256.72,-216 1290.47,-216 1314.34,-226.54"/>
<text text-anchor="middle" x="1273.6" y="-231.8" font-family="Times,serif" font-size="9.00">Fallback****</text>
</g>
<!-- Sequence&#45;&gt;Fallback**** -->
<g id="edge29" class="edge">
<title>Sequence&#45;&gt;Fallback****</title>
<path fill="none" stroke="black" d="M897.86,-299.62C968.07,-287.55 1138.74,-258.2 1223.76,-243.57"/>
<polygon fill="black" stroke="black" points="1224.43,-247.01 1233.69,-241.86 1223.24,-240.11 1224.43,-247.01"/>
</g>
<!-- GetLk!*** -->
<g id="node38" class="node">
<title>GetLk!***</title>
<ellipse fill="gray" stroke="black" cx="1364.6" cy="-234" rx="32.16" ry="18"/>
<text text-anchor="middle" x="1364.6" y="-231.8" font-family="Times,serif" font-size="9.00">GetLk!***</text>
</g>
<!-- Sequence&#45;&gt;GetLk!*** -->
<g id="edge37" class="edge">
<title>Sequence&#45;&gt;GetLk!***</title>
<path fill="none" stroke="black" d="M897.9,-304.35C972.7,-302.14 1167.25,-292.63 1323.6,-252 1326.08,-251.36 1328.61,-250.59 1331.13,-249.75"/>
<polygon fill="black" stroke="black" points="1332.54,-252.96 1340.7,-246.21 1330.11,-246.4 1332.54,-252.96"/>
</g>
<!-- GetSubGoal!***** -->
<g id="node39" class="node">
<title>GetSubGoal!*****</title>
<ellipse fill="gray" stroke="black" cx="1464.6" cy="-234" rx="49.8" ry="18"/>
<text text-anchor="middle" x="1464.6" y="-231.8" font-family="Times,serif" font-size="9.00">GetSubGoal!*****</text>
</g>
<!-- Sequence&#45;&gt;GetSubGoal!***** -->
<g id="edge38" class="edge">
<title>Sequence&#45;&gt;GetSubGoal!*****</title>
<path fill="none" stroke="black" d="M897.87,-303.92C981.14,-300.61 1214.9,-288.53 1405.6,-252 1409.96,-251.17 1414.46,-250.15 1418.94,-249.04"/>
<polygon fill="black" stroke="black" points="1419.88,-252.41 1428.66,-246.48 1418.1,-245.64 1419.88,-252.41"/>
</g>
<!-- MoveTo!*************** -->
<g id="node40" class="node">
<title>MoveTo!***************</title>
<ellipse fill="gray" stroke="black" cx="1600.6" cy="-234" rx="68.25" ry="18"/>
<text text-anchor="middle" x="1600.6" y="-231.8" font-family="Times,serif" font-size="9.00">MoveTo!***************</text>
</g>
<!-- Sequence&#45;&gt;MoveTo!*************** -->
<g id="edge39" class="edge">
<title>Sequence&#45;&gt;MoveTo!***************</title>
<path fill="none" stroke="black" d="M897.89,-304C992.64,-300.63 1284.53,-287.86 1523.6,-252 1529.73,-251.08 1536.1,-249.95 1542.44,-248.72"/>
<polygon fill="black" stroke="black" points="1543.22,-252.14 1552.32,-246.72 1541.82,-245.28 1543.22,-252.14"/>
</g>
<!-- ReachGoal?* -->
<g id="node41" class="node">
<title>ReachGoal?*</title>
<ellipse fill="gray" stroke="black" cx="1723.6" cy="-234" rx="36.9" ry="18"/>
<text text-anchor="middle" x="1723.6" y="-231.8" font-family="Times,serif" font-size="9.00">ReachGoal?*</text>
</g>
<!-- Sequence&#45;&gt;ReachGoal?* -->
<g id="edge40" class="edge">
<title>Sequence&#45;&gt;ReachGoal?*</title>
<path fill="none" stroke="black" d="M898.05,-304.16C1028.14,-300.48 1524.58,-284.56 1677.6,-252 1680.76,-251.33 1684,-250.48 1687.22,-249.52"/>
<polygon fill="black" stroke="black" points="1688.33,-252.84 1696.74,-246.4 1686.15,-246.19 1688.33,-252.84"/>
</g>
<!-- MoveTo! -->
<g id="node6" class="node">
<title>MoveTo!</title>
<ellipse fill="gray" stroke="black" cx="82.6" cy="-162" rx="28.74" ry="18"/>
<text text-anchor="middle" x="82.6" y="-159.8" font-family="Times,serif" font-size="9.00">MoveTo!</text>
</g>
<!-- Fallback*&#45;&gt;MoveTo! -->
<g id="edge5" class="edge">
<title>Fallback*&#45;&gt;MoveTo!</title>
<path fill="none" stroke="black" d="M290.13,-222.09C284.74,-219.91 279.03,-217.75 273.6,-216 207.12,-194.55 186.78,-202.36 120.6,-180 118.49,-179.29 116.33,-178.5 114.17,-177.66"/>
<polygon fill="black" stroke="black" points="115.4,-174.38 104.82,-173.79 112.72,-180.85 115.4,-174.38"/>
</g>
<!-- Sequence* -->
<g id="node7" class="node">
<title>Sequence*</title>
<polygon fill="cyan" stroke="black" points="197.84,-154.54 197.84,-169.46 177.78,-180 149.42,-180 129.36,-169.46 129.36,-154.54 149.42,-144 177.78,-144 197.84,-154.54"/>
<text text-anchor="middle" x="163.6" y="-159.8" font-family="Times,serif" font-size="9.00">Sequence*</text>
</g>
<!-- Fallback*&#45;&gt;Sequence* -->
<g id="edge6" class="edge">
<title>Fallback*&#45;&gt;Sequence*</title>
<path fill="none" stroke="black" d="M290.67,-221.91C265.57,-210.27 225.89,-191.88 197.56,-178.74"/>
<polygon fill="black" stroke="black" points="198.96,-175.54 188.42,-174.51 196.02,-181.89 198.96,-175.54"/>
</g>
<!-- GetSubGoal!*** -->
<g id="node14" class="node">
<title>GetSubGoal!***</title>
<ellipse fill="gray" stroke="black" cx="260.6" cy="-162" rx="44.41" ry="18"/>
<text text-anchor="middle" x="260.6" y="-159.8" font-family="Times,serif" font-size="9.00">GetSubGoal!***</text>
</g>
<!-- Fallback*&#45;&gt;GetSubGoal!*** -->
<g id="edge13" class="edge">
<title>Fallback*&#45;&gt;GetSubGoal!***</title>
<path fill="none" stroke="black" d="M301.25,-215.7C294.75,-207.27 286.81,-196.97 279.68,-187.73"/>
<polygon fill="black" stroke="black" points="282.3,-185.4 273.42,-179.62 276.76,-189.68 282.3,-185.4"/>
</g>
<!-- MoveTo!* -->
<g id="node15" class="node">
<title>MoveTo!*</title>
<ellipse fill="gray" stroke="black" cx="354.6" cy="-162" rx="31.51" ry="18"/>
<text text-anchor="middle" x="354.6" y="-159.8" font-family="Times,serif" font-size="9.00">MoveTo!*</text>
</g>
<!-- Fallback*&#45;&gt;MoveTo!* -->
<g id="edge14" class="edge">
<title>Fallback*&#45;&gt;MoveTo!*</title>
<path fill="none" stroke="black" d="M324.49,-215.7C329.16,-207.52 334.83,-197.6 339.98,-188.58"/>
<polygon fill="black" stroke="black" points="343.18,-190.04 345.1,-179.62 337.1,-186.57 343.18,-190.04"/>
</g>
<!-- MoveTo!** -->
<g id="node16" class="node">
<title>MoveTo!**</title>
<ellipse fill="gray" stroke="black" cx="438.6" cy="-162" rx="34.13" ry="18"/>
<text text-anchor="middle" x="438.6" y="-159.8" font-family="Times,serif" font-size="9.00">MoveTo!**</text>
</g>
<!-- Fallback*&#45;&gt;MoveTo!** -->
<g id="edge15" class="edge">
<title>Fallback*&#45;&gt;MoveTo!**</title>
<path fill="none" stroke="black" d="M336.48,-220.65C356.07,-209.59 385.02,-193.24 407.1,-180.78"/>
<polygon fill="black" stroke="black" points="409.11,-183.67 416.1,-175.7 405.67,-177.57 409.11,-183.67"/>
</g>
<!-- LkGraph? -->
<g id="node8" class="node">
<title>LkGraph?</title>
<ellipse fill="gray" stroke="black" cx="30.6" cy="-90" rx="30.7" ry="18"/>
<text text-anchor="middle" x="30.6" y="-87.8" font-family="Times,serif" font-size="9.00">LkGraph?</text>
</g>
<!-- Sequence*&#45;&gt;LkGraph? -->
<g id="edge7" class="edge">
<title>Sequence*&#45;&gt;LkGraph?</title>
<path fill="none" stroke="black" d="M140.13,-148.65C118.4,-137.21 85.94,-120.13 61.99,-107.52"/>
<polygon fill="black" stroke="black" points="63.43,-104.32 52.95,-102.76 60.17,-110.52 63.43,-104.32"/>
</g>
<!-- GetSubGoal!* -->
<g id="node9" class="node">
<title>GetSubGoal!*</title>
<ellipse fill="gray" stroke="black" cx="118.6" cy="-90" rx="39.02" ry="18"/>
<text text-anchor="middle" x="118.6" y="-87.8" font-family="Times,serif" font-size="9.00">GetSubGoal!*</text>
</g>
<!-- Sequence*&#45;&gt;GetSubGoal!* -->
<g id="edge8" class="edge">
<title>Sequence*&#45;&gt;GetSubGoal!*</title>
<path fill="none" stroke="black" d="M152.48,-143.7C147.17,-135.44 140.71,-125.39 134.86,-116.3"/>
<polygon fill="black" stroke="black" points="137.64,-114.14 129.29,-107.62 131.75,-117.93 137.64,-114.14"/>
</g>
<!-- LkGraph?* -->
<g id="node10" class="node">
<title>LkGraph?*</title>
<ellipse fill="gray" stroke="black" cx="208.6" cy="-90" rx="32.82" ry="18"/>
<text text-anchor="middle" x="208.6" y="-87.8" font-family="Times,serif" font-size="9.00">LkGraph?*</text>
</g>
<!-- Sequence*&#45;&gt;LkGraph?* -->
<g id="edge9" class="edge">
<title>Sequence*&#45;&gt;LkGraph?*</title>
<path fill="none" stroke="black" d="M174.72,-143.7C180.17,-135.23 186.82,-124.89 192.78,-115.61"/>
<polygon fill="black" stroke="black" points="195.76,-117.45 198.22,-107.14 189.87,-113.66 195.76,-117.45"/>
</g>
<!-- Fallback** -->
<g id="node11" class="node">
<title>Fallback**</title>
<polygon fill="cyan" stroke="black" points="329.59,-82.54 329.59,-97.46 309.09,-108 280.11,-108 259.61,-97.46 259.61,-82.54 280.11,-72 309.09,-72 329.59,-82.54"/>
<text text-anchor="middle" x="294.6" y="-87.8" font-family="Times,serif" font-size="9.00">Fallback**</text>
</g>
<!-- Sequence*&#45;&gt;Fallback** -->
<g id="edge10" class="edge">
<title>Sequence*&#45;&gt;Fallback**</title>
<path fill="none" stroke="black" d="M186.72,-148.65C207.73,-137.42 238.93,-120.75 262.38,-108.21"/>
<polygon fill="black" stroke="black" points="264.1,-111.27 271.27,-103.47 260.8,-105.09 264.1,-111.27"/>
</g>
<!-- LkClose? -->
<g id="node12" class="node">
<title>LkClose?</title>
<ellipse fill="gray" stroke="black" cx="250.6" cy="-18" rx="28.74" ry="18"/>
<text text-anchor="middle" x="250.6" y="-15.8" font-family="Times,serif" font-size="9.00">LkClose?</text>
</g>
<!-- Fallback**&#45;&gt;LkClose? -->
<g id="edge11" class="edge">
<title>Fallback**&#45;&gt;LkClose?</title>
<path fill="none" stroke="black" d="M283.72,-71.7C278.4,-63.23 271.9,-52.89 266.07,-43.61"/>
<polygon fill="black" stroke="black" points="269.03,-41.75 260.75,-35.14 263.11,-45.47 269.03,-41.75"/>
</g>
<!-- GetSubGoal!** -->
<g id="node13" class="node">
<title>GetSubGoal!**</title>
<ellipse fill="gray" stroke="black" cx="339.6" cy="-18" rx="42.29" ry="18"/>
<text text-anchor="middle" x="339.6" y="-15.8" font-family="Times,serif" font-size="9.00">GetSubGoal!**</text>
</g>
<!-- Fallback**&#45;&gt;GetSubGoal!** -->
<g id="edge12" class="edge">
<title>Fallback**&#45;&gt;GetSubGoal!**</title>
<path fill="none" stroke="black" d="M305.72,-71.7C311.03,-63.44 317.49,-53.39 323.34,-44.3"/>
<polygon fill="black" stroke="black" points="326.45,-45.93 328.91,-35.62 320.56,-42.14 326.45,-45.93"/>
</g>
<!-- MoveTo!********* -->
<g id="node24" class="node">
<title>MoveTo!*********</title>
<ellipse fill="gray" stroke="black" cx="543.6" cy="-162" rx="52.58" ry="18"/>
<text text-anchor="middle" x="543.6" y="-159.8" font-family="Times,serif" font-size="9.00">MoveTo!*********</text>
</g>
<!-- Fallback***&#45;&gt;MoveTo!********* -->
<g id="edge23" class="edge">
<title>Fallback***&#45;&gt;MoveTo!*********</title>
<path fill="none" stroke="black" d="M1002.22,-221.57C996.18,-219.41 989.74,-217.4 983.6,-216 818.64,-178.36 770.97,-210.83 604.6,-180 600.22,-179.19 595.71,-178.21 591.21,-177.14"/>
<polygon fill="black" stroke="black" points="591.98,-173.72 581.43,-174.66 590.26,-180.51 591.98,-173.72"/>
</g>
<!-- NotReadyForSG?* -->
<g id="node25" class="node">
<title>NotReadyForSG?*</title>
<ellipse fill="gray" stroke="black" cx="663.6" cy="-162" rx="49.8" ry="18"/>
<text text-anchor="middle" x="663.6" y="-159.8" font-family="Times,serif" font-size="9.00">NotReadyForSG?*</text>
</g>
<!-- Fallback***&#45;&gt;NotReadyForSG?* -->
<g id="edge24" class="edge">
<title>Fallback***&#45;&gt;NotReadyForSG?*</title>
<path fill="none" stroke="black" d="M1001.68,-221.59C995.79,-219.49 989.55,-217.49 983.6,-216 870.01,-187.54 837.15,-204.27 722.6,-180 718.43,-179.12 714.13,-178.1 709.84,-177"/>
<polygon fill="black" stroke="black" points="710.47,-173.55 699.9,-174.34 708.66,-180.31 710.47,-173.55"/>
</g>
<!-- MoveTo!********** -->
<g id="node26" class="node">
<title>MoveTo!**********</title>
<ellipse fill="gray" stroke="black" cx="786.6" cy="-162" rx="54.7" ry="18"/>
<text text-anchor="middle" x="786.6" y="-159.8" font-family="Times,serif" font-size="9.00">MoveTo!**********</text>
</g>
<!-- Fallback***&#45;&gt;MoveTo!********** -->
<g id="edge25" class="edge">
<title>Fallback***&#45;&gt;MoveTo!**********</title>
<path fill="none" stroke="black" d="M1001.03,-221.98C995.29,-219.9 989.28,-217.81 983.6,-216 976.5,-213.74 893.5,-191.52 837.53,-176.58"/>
<polygon fill="black" stroke="black" points="838.33,-173.17 827.76,-173.97 836.52,-179.93 838.33,-173.17"/>
</g>
<!-- GetLk! -->
<g id="node27" class="node">
<title>GetLk!</title>
<ellipse fill="gray" stroke="black" cx="886.6" cy="-162" rx="27" ry="18"/>
<text text-anchor="middle" x="886.6" y="-159.8" font-family="Times,serif" font-size="9.00">GetLk!</text>
</g>
<!-- Fallback***&#45;&gt;GetLk! -->
<g id="edge26" class="edge">
<title>Fallback***&#45;&gt;GetLk!</title>
<path fill="none" stroke="black" d="M1004.36,-220.65C979.94,-208.69 942.9,-190.56 916.89,-177.83"/>
<polygon fill="black" stroke="black" points="918.38,-174.66 907.86,-173.41 915.3,-180.95 918.38,-174.66"/>
</g>
<!-- MoveTo!*********** -->
<g id="node28" class="node">
<title>MoveTo!***********</title>
<ellipse fill="gray" stroke="black" cx="989.6" cy="-162" rx="57.97" ry="18"/>
<text text-anchor="middle" x="989.6" y="-159.8" font-family="Times,serif" font-size="9.00">MoveTo!***********</text>
</g>
<!-- Fallback***&#45;&gt;MoveTo!*********** -->
<g id="edge27" class="edge">
<title>Fallback***&#45;&gt;MoveTo!***********</title>
<path fill="none" stroke="black" d="M1019.71,-215.7C1015.11,-207.64 1009.54,-197.89 1004.45,-188.98"/>
<polygon fill="black" stroke="black" points="1007.37,-187.05 999.37,-180.1 1001.3,-190.52 1007.37,-187.05"/>
</g>
<!-- ReachGoal? -->
<g id="node29" class="node">
<title>ReachGoal?</title>
<ellipse fill="gray" stroke="black" cx="1099.6" cy="-162" rx="34.13" ry="18"/>
<text text-anchor="middle" x="1099.6" y="-159.8" font-family="Times,serif" font-size="9.00">ReachGoal?</text>
</g>
<!-- Fallback***&#45;&gt;ReachGoal? -->
<g id="edge28" class="edge">
<title>Fallback***&#45;&gt;ReachGoal?</title>
<path fill="none" stroke="black" d="M1046.19,-216.41C1055.34,-207.26 1066.83,-195.76 1076.82,-185.78"/>
<polygon fill="black" stroke="black" points="1079.49,-188.06 1084.09,-178.51 1074.54,-183.11 1079.49,-188.06"/>
</g>
<!-- MoveTo!************ -->
<g id="node31" class="node">
<title>MoveTo!************</title>
<ellipse fill="gray" stroke="black" cx="1211.6" cy="-162" rx="60.09" ry="18"/>
<text text-anchor="middle" x="1211.6" y="-159.8" font-family="Times,serif" font-size="9.00">MoveTo!************</text>
</g>
<!-- Fallback****&#45;&gt;MoveTo!************ -->
<g id="edge30" class="edge">
<title>Fallback****&#45;&gt;MoveTo!************</title>
<path fill="none" stroke="black" d="M1258.27,-215.7C1250.65,-207.09 1241.32,-196.55 1233.01,-187.17"/>
<polygon fill="black" stroke="black" points="1235.57,-184.79 1226.32,-179.62 1230.33,-189.43 1235.57,-184.79"/>
</g>
<!-- GetSubGoal!**** -->
<g id="node32" class="node">
<title>GetSubGoal!****</title>
<ellipse fill="gray" stroke="black" cx="1336.6" cy="-162" rx="47.19" ry="18"/>
<text text-anchor="middle" x="1336.6" y="-159.8" font-family="Times,serif" font-size="9.00">GetSubGoal!****</text>
</g>
<!-- Fallback****&#45;&gt;GetSubGoal!**** -->
<g id="edge31" class="edge">
<title>Fallback****&#45;&gt;GetSubGoal!****</title>
<path fill="none" stroke="black" d="M1289.17,-215.7C1297.03,-206.97 1306.68,-196.24 1315.22,-186.75"/>
<polygon fill="black" stroke="black" points="1317.98,-188.92 1322.07,-179.14 1312.78,-184.24 1317.98,-188.92"/>
</g>
<!-- NotReadyForSG?** -->
<g id="node33" class="node">
<title>NotReadyForSG?**</title>
<ellipse fill="gray" stroke="black" cx="1453.6" cy="-162" rx="51.92" ry="18"/>
<text text-anchor="middle" x="1453.6" y="-159.8" font-family="Times,serif" font-size="9.00">NotReadyForSG?**</text>
</g>
<!-- Fallback****&#45;&gt;NotReadyForSG?** -->
<g id="edge32" class="edge">
<title>Fallback****&#45;&gt;NotReadyForSG?**</title>
<path fill="none" stroke="black" d="M1303.32,-221.44C1332.68,-210.03 1377.87,-192.45 1411.03,-179.56"/>
<polygon fill="black" stroke="black" points="1412.42,-182.77 1420.47,-175.88 1409.88,-176.25 1412.42,-182.77"/>
</g>
<!-- MoveTo!************* -->
<g id="node34" class="node">
<title>MoveTo!*************</title>
<ellipse fill="gray" stroke="black" cx="1586.6" cy="-162" rx="62.86" ry="18"/>
<text text-anchor="middle" x="1586.6" y="-159.8" font-family="Times,serif" font-size="9.00">MoveTo!*************</text>
</g>
<!-- Fallback****&#45;&gt;MoveTo!************* -->
<g id="edge33" class="edge">
<title>Fallback****&#45;&gt;MoveTo!*************</title>
<path fill="none" stroke="black" d="M1304.06,-221.88C1310.47,-219.76 1317.22,-217.68 1323.6,-216 1407.15,-194.04 1430.1,-197.93 1514.6,-180 1519.65,-178.93 1524.9,-177.77 1530.14,-176.59"/>
<polygon fill="black" stroke="black" points="1531.23,-179.93 1540.19,-174.29 1529.66,-173.11 1531.23,-179.93"/>
</g>
<!-- GetLk!* -->
<g id="node35" class="node">
<title>GetLk!*</title>
<ellipse fill="gray" stroke="black" cx="1694.6" cy="-162" rx="27.27" ry="18"/>
<text text-anchor="middle" x="1694.6" y="-159.8" font-family="Times,serif" font-size="9.00">GetLk!*</text>
</g>
<!-- Fallback****&#45;&gt;GetLk!* -->
<g id="edge34" class="edge">
<title>Fallback****&#45;&gt;GetLk!*</title>
<path fill="none" stroke="black" d="M1303.44,-221.66C1310,-219.5 1316.97,-217.46 1323.6,-216 1469.82,-183.7 1514.44,-220.54 1658.6,-180 1660.55,-179.45 1662.52,-178.81 1664.48,-178.1"/>
<polygon fill="black" stroke="black" points="1666.21,-181.17 1674.12,-174.11 1663.54,-174.7 1666.21,-181.17"/>
</g>
<!-- MoveTo!************** -->
<g id="node36" class="node">
<title>MoveTo!**************</title>
<ellipse fill="gray" stroke="black" cx="1804.6" cy="-162" rx="65.48" ry="18"/>
<text text-anchor="middle" x="1804.6" y="-159.8" font-family="Times,serif" font-size="9.00">MoveTo!**************</text>
</g>
<!-- Fallback****&#45;&gt;MoveTo!************** -->
<g id="edge35" class="edge">
<title>Fallback****&#45;&gt;MoveTo!**************</title>
<path fill="none" stroke="black" d="M1303.42,-221.56C1309.98,-219.41 1316.96,-217.4 1323.6,-216 1501.28,-178.5 1551.24,-208.4 1730.6,-180 1736.35,-179.09 1742.33,-177.99 1748.27,-176.78"/>
<polygon fill="black" stroke="black" points="1749.15,-180.18 1758.21,-174.68 1747.7,-173.33 1749.15,-180.18"/>
</g>
<!-- GetLk!** -->
<g id="node37" class="node">
<title>GetLk!**</title>
<ellipse fill="gray" stroke="black" cx="1917.6" cy="-162" rx="29.39" ry="18"/>
<text text-anchor="middle" x="1917.6" y="-159.8" font-family="Times,serif" font-size="9.00">GetLk!**</text>
</g>
<!-- Fallback****&#45;&gt;GetLk!** -->
<g id="edge36" class="edge">
<title>Fallback****&#45;&gt;GetLk!**</title>
<path fill="none" stroke="black" d="M1303.13,-221.53C1309.77,-219.36 1316.86,-217.34 1323.6,-216 1566.04,-167.8 1638.38,-238.26 1878.6,-180 1881.05,-179.41 1883.54,-178.67 1886.01,-177.84"/>
<polygon fill="black" stroke="black" points="1887.28,-181.1 1895.38,-174.26 1884.78,-174.56 1887.28,-181.1"/>
</g>
</g>
</svg>
