<?xml version="1.0" encoding="UTF-8" standalone="no"?>
<!DOCTYPE svg PUBLIC "-//W3C//DTD SVG 1.1//EN"
 "http://www.w3.org/Graphics/SVG/1.1/DTD/svg11.dtd">
<!-- Generated by graphviz version 2.43.0 (0)
 -->
<!-- Title: pastafarianism Pages: 1 -->
<svg width="982pt" height="260pt"
 viewBox="0.00 0.00 982.21 260.00" xmlns="http://www.w3.org/2000/svg" xmlns:xlink="http://www.w3.org/1999/xlink">
<g id="graph0" class="graph" transform="scale(1 1) rotate(0) translate(4 256)">
<title>pastafarianism</title>
<polygon fill="white" stroke="transparent" points="-4,4 -4,-256 978.21,-256 978.21,4 -4,4"/>
<!-- Sequence -->
<g id="node1" class="node">
<title>Sequence</title>
<polygon fill="cyan" stroke="black" points="544.44,-226.54 544.44,-241.46 526,-252 499.91,-252 481.46,-241.46 481.46,-226.54 499.91,-216 526,-216 544.44,-226.54"/>
<text text-anchor="middle" x="512.95" y="-231.8" font-family="Times,serif" font-size="9.00">Sequence</text>
</g>
<!-- Fallback -->
<g id="node2" class="node">
<title>Fallback</title>
<polygon fill="cyan" stroke="black" points="504.19,-154.54 504.19,-169.46 487.06,-180 462.84,-180 445.71,-169.46 445.71,-154.54 462.84,-144 487.06,-144 504.19,-154.54"/>
<text text-anchor="middle" x="474.95" y="-159.8" font-family="Times,serif" font-size="9.00">Fallback</text>
</g>
<!-- Sequence&#45;&gt;Fallback -->
<g id="edge1" class="edge">
<title>Sequence&#45;&gt;Fallback</title>
<path fill="none" stroke="black" d="M503.56,-215.7C499.19,-207.64 493.89,-197.89 489.06,-188.98"/>
<polygon fill="black" stroke="black" points="492.08,-187.22 484.24,-180.1 485.93,-190.56 492.08,-187.22"/>
</g>
<!-- MoveTo! -->
<g id="node20" class="node">
<title>MoveTo!</title>
<ellipse fill="gray" stroke="black" cx="550.95" cy="-162" rx="28.74" ry="18"/>
<text text-anchor="middle" x="550.95" y="-159.8" font-family="Times,serif" font-size="9.00">MoveTo!</text>
</g>
<!-- Sequence&#45;&gt;MoveTo! -->
<g id="edge19" class="edge">
<title>Sequence&#45;&gt;MoveTo!</title>
<path fill="none" stroke="black" d="M522.34,-215.7C526.78,-207.52 532.17,-197.6 537.06,-188.58"/>
<polygon fill="black" stroke="black" points="540.23,-190.08 541.93,-179.62 534.08,-186.74 540.23,-190.08"/>
</g>
<!-- ReachGoal? -->
<g id="node3" class="node">
<title>ReachGoal?</title>
<ellipse fill="gray" stroke="black" cx="141.95" cy="-90" rx="34.13" ry="18"/>
<text text-anchor="middle" x="141.95" y="-87.8" font-family="Times,serif" font-size="9.00">ReachGoal?</text>
</g>
<!-- Fallback&#45;&gt;ReachGoal? -->
<g id="edge2" class="edge">
<title>Fallback&#45;&gt;ReachGoal?</title>
<path fill="none" stroke="black" d="M445.71,-157.58C392.9,-150.99 278.44,-134.75 184.95,-108 182.36,-107.26 179.71,-106.42 177.07,-105.52"/>
<polygon fill="black" stroke="black" points="178.18,-102.21 167.59,-102.08 175.79,-108.79 178.18,-102.21"/>
</g>
<!-- Sequence* -->
<g id="node4" class="node">
<title>Sequence*</title>
<polygon fill="cyan" stroke="black" points="262.19,-82.54 262.19,-97.46 242.13,-108 213.77,-108 193.71,-97.46 193.71,-82.54 213.77,-72 242.13,-72 262.19,-82.54"/>
<text text-anchor="middle" x="227.95" y="-87.8" font-family="Times,serif" font-size="9.00">Sequence*</text>
</g>
<!-- Fallback&#45;&gt;Sequence* -->
<g id="edge3" class="edge">
<title>Fallback&#45;&gt;Sequence*</title>
<path fill="none" stroke="black" d="M445.57,-154.56C405.64,-145.53 332.18,-127.97 270.95,-108 268.55,-107.22 266.08,-106.37 263.61,-105.48"/>
<polygon fill="black" stroke="black" points="264.74,-102.17 254.14,-101.94 262.29,-108.72 264.74,-102.17"/>
</g>
<!-- NotReadyForSG? -->
<g id="node9" class="node">
<title>NotReadyForSG?</title>
<ellipse fill="gray" stroke="black" cx="326.95" cy="-90" rx="46.53" ry="18"/>
<text text-anchor="middle" x="326.95" y="-87.8" font-family="Times,serif" font-size="9.00">NotReadyForSG?</text>
</g>
<!-- Fallback&#45;&gt;NotReadyForSG? -->
<g id="edge8" class="edge">
<title>Fallback&#45;&gt;NotReadyForSG?</title>
<path fill="none" stroke="black" d="M452.47,-150.37C429.18,-139.35 392.37,-121.94 364.62,-108.82"/>
<polygon fill="black" stroke="black" points="365.76,-105.48 355.22,-104.37 362.76,-111.81 365.76,-105.48"/>
</g>
<!-- Sequence** -->
<g id="node10" class="node">
<title>Sequence**</title>
<polygon fill="cyan" stroke="black" points="465.69,-82.54 465.69,-97.46 444.17,-108 413.73,-108 392.21,-97.46 392.21,-82.54 413.73,-72 444.17,-72 465.69,-82.54"/>
<text text-anchor="middle" x="428.95" y="-87.8" font-family="Times,serif" font-size="9.00">Sequence**</text>
</g>
<!-- Fallback&#45;&gt;Sequence** -->
<g id="edge9" class="edge">
<title>Fallback&#45;&gt;Sequence**</title>
<path fill="none" stroke="black" d="M463.58,-143.7C458.23,-135.56 451.75,-125.69 445.84,-116.7"/>
<polygon fill="black" stroke="black" points="448.61,-114.54 440.19,-108.1 442.76,-118.38 448.61,-114.54"/>
</g>
<!-- GetSubGoal! -->
<g id="node13" class="node">
<title>GetSubGoal!</title>
<ellipse fill="gray" stroke="black" cx="520.95" cy="-90" rx="36.9" ry="18"/>
<text text-anchor="middle" x="520.95" y="-87.8" font-family="Times,serif" font-size="9.00">GetSubGoal!</text>
</g>
<!-- Fallback&#45;&gt;GetSubGoal! -->
<g id="edge12" class="edge">
<title>Fallback&#45;&gt;GetSubGoal!</title>
<path fill="none" stroke="black" d="M486.32,-143.7C491.81,-135.35 498.49,-125.18 504.51,-116.02"/>
<polygon fill="black" stroke="black" points="507.46,-117.9 510.03,-107.62 501.61,-114.06 507.46,-117.9"/>
</g>
<!-- CompLkGraph!* -->
<g id="node14" class="node">
<title>CompLkGraph!*</title>
<ellipse fill="gray" stroke="black" cx="620.95" cy="-90" rx="45.07" ry="18"/>
<text text-anchor="middle" x="620.95" y="-87.8" font-family="Times,serif" font-size="9.00">CompLkGraph!*</text>
</g>
<!-- Fallback&#45;&gt;CompLkGraph!* -->
<g id="edge13" class="edge">
<title>Fallback&#45;&gt;CompLkGraph!*</title>
<path fill="none" stroke="black" d="M497.44,-150.22C520.48,-139.17 556.69,-121.81 583.95,-108.74"/>
<polygon fill="black" stroke="black" points="585.69,-111.79 593.19,-104.31 582.66,-105.48 585.69,-111.79"/>
</g>
<!-- ReachGoal?**** -->
<g id="node15" class="node">
<title>ReachGoal?****</title>
<ellipse fill="gray" stroke="black" cx="727.95" cy="-90" rx="44.41" ry="18"/>
<text text-anchor="middle" x="727.95" y="-87.8" font-family="Times,serif" font-size="9.00">ReachGoal?****</text>
</g>
<!-- Fallback&#45;&gt;ReachGoal?**** -->
<g id="edge14" class="edge">
<title>Fallback&#45;&gt;ReachGoal?****</title>
<path fill="none" stroke="black" d="M497.16,-150.17C502.27,-147.93 507.74,-145.73 512.95,-144 582.97,-120.82 603.76,-127.28 674.95,-108 678.27,-107.1 681.69,-106.12 685.12,-105.11"/>
<polygon fill="black" stroke="black" points="686.19,-108.44 694.73,-102.17 684.14,-101.75 686.19,-108.44"/>
</g>
<!-- Sequence*** -->
<g id="node16" class="node">
<title>Sequence***</title>
<polygon fill="cyan" stroke="black" points="869.94,-82.54 869.94,-97.46 846.51,-108 813.39,-108 789.96,-97.46 789.96,-82.54 813.39,-72 846.51,-72 869.94,-82.54"/>
<text text-anchor="middle" x="829.95" y="-87.8" font-family="Times,serif" font-size="9.00">Sequence***</text>
</g>
<!-- Fallback&#45;&gt;Sequence*** -->
<g id="edge15" class="edge">
<title>Fallback&#45;&gt;Sequence***</title>
<path fill="none" stroke="black" d="M497.06,-149.83C502.17,-147.61 507.67,-145.5 512.95,-144 628.55,-111.12 664.04,-135.84 780.95,-108 784.15,-107.24 787.43,-106.35 790.71,-105.38"/>
<polygon fill="black" stroke="black" points="791.95,-108.66 800.43,-102.31 789.84,-101.98 791.95,-108.66"/>
</g>
<!-- ReachGoal?* -->
<g id="node5" class="node">
<title>ReachGoal?*</title>
<ellipse fill="gray" stroke="black" cx="36.95" cy="-18" rx="36.9" ry="18"/>
<text text-anchor="middle" x="36.95" y="-15.8" font-family="Times,serif" font-size="9.00">ReachGoal?*</text>
</g>
<!-- Sequence*&#45;&gt;ReachGoal?* -->
<g id="edge4" class="edge">
<title>Sequence*&#45;&gt;ReachGoal?*</title>
<path fill="none" stroke="black" d="M201.17,-78.24C195.81,-76.13 190.21,-73.97 184.95,-72 139.92,-55.16 128.16,-52.33 82.95,-36 80.41,-35.08 77.79,-34.13 75.16,-33.17"/>
<polygon fill="black" stroke="black" points="76.23,-29.83 65.64,-29.68 73.82,-36.41 76.23,-29.83"/>
</g>
<!-- CompLkGraph! -->
<g id="node6" class="node">
<title>CompLkGraph!</title>
<ellipse fill="gray" stroke="black" cx="134.95" cy="-18" rx="42.95" ry="18"/>
<text text-anchor="middle" x="134.95" y="-15.8" font-family="Times,serif" font-size="9.00">CompLkGraph!</text>
</g>
<!-- Sequence*&#45;&gt;CompLkGraph! -->
<g id="edge5" class="edge">
<title>Sequence*&#45;&gt;CompLkGraph!</title>
<path fill="none" stroke="black" d="M208.68,-74.5C195.52,-64.59 177.86,-51.29 163.12,-40.2"/>
<polygon fill="black" stroke="black" points="164.93,-37.19 154.84,-33.97 160.72,-42.78 164.93,-37.19"/>
</g>
<!-- ReachGoal?** -->
<g id="node7" class="node">
<title>ReachGoal?**</title>
<ellipse fill="gray" stroke="black" cx="234.95" cy="-18" rx="39.02" ry="18"/>
<text text-anchor="middle" x="234.95" y="-15.8" font-family="Times,serif" font-size="9.00">ReachGoal?**</text>
</g>
<!-- Sequence*&#45;&gt;ReachGoal?** -->
<g id="edge6" class="edge">
<title>Sequence*&#45;&gt;ReachGoal?**</title>
<path fill="none" stroke="black" d="M229.68,-71.7C230.45,-63.98 231.38,-54.71 232.24,-46.11"/>
<polygon fill="black" stroke="black" points="235.73,-46.4 233.24,-36.1 228.76,-45.71 235.73,-46.4"/>
</g>
<!-- LkClose? -->
<g id="node8" class="node">
<title>LkClose?</title>
<ellipse fill="gray" stroke="black" cx="320.95" cy="-18" rx="28.74" ry="18"/>
<text text-anchor="middle" x="320.95" y="-15.8" font-family="Times,serif" font-size="9.00">LkClose?</text>
</g>
<!-- Sequence*&#45;&gt;LkClose? -->
<g id="edge7" class="edge">
<title>Sequence*&#45;&gt;LkClose?</title>
<path fill="none" stroke="black" d="M247.22,-74.5C261.14,-64.02 280.08,-49.77 295.28,-38.33"/>
<polygon fill="black" stroke="black" points="297.39,-41.11 303.28,-32.3 293.18,-35.52 297.39,-41.11"/>
</g>
<!-- ReachGoal?*** -->
<g id="node11" class="node">
<title>ReachGoal?***</title>
<ellipse fill="gray" stroke="black" cx="422.95" cy="-18" rx="42.29" ry="18"/>
<text text-anchor="middle" x="422.95" y="-15.8" font-family="Times,serif" font-size="9.00">ReachGoal?***</text>
</g>
<!-- Sequence**&#45;&gt;ReachGoal?*** -->
<g id="edge10" class="edge">
<title>Sequence**&#45;&gt;ReachGoal?***</title>
<path fill="none" stroke="black" d="M427.47,-71.7C426.81,-63.98 426.01,-54.71 425.27,-46.11"/>
<polygon fill="black" stroke="black" points="428.76,-45.77 424.42,-36.1 421.78,-46.37 428.76,-45.77"/>
</g>
<!-- LkClose?* -->
<g id="node12" class="node">
<title>LkClose?*</title>
<ellipse fill="gray" stroke="black" cx="514.95" cy="-18" rx="31.51" ry="18"/>
<text text-anchor="middle" x="514.95" y="-15.8" font-family="Times,serif" font-size="9.00">LkClose?*</text>
</g>
<!-- Sequence**&#45;&gt;LkClose?* -->
<g id="edge11" class="edge">
<title>Sequence**&#45;&gt;LkClose?*</title>
<path fill="none" stroke="black" d="M448.04,-73.46C460.25,-63.52 476.23,-50.51 489.52,-39.7"/>
<polygon fill="black" stroke="black" points="491.84,-42.33 497.38,-33.3 487.42,-36.9 491.84,-42.33"/>
</g>
<!-- NotReadyForSG?* -->
<g id="node17" class="node">
<title>NotReadyForSG?*</title>
<ellipse fill="gray" stroke="black" cx="714.95" cy="-18" rx="49.8" ry="18"/>
<text text-anchor="middle" x="714.95" y="-15.8" font-family="Times,serif" font-size="9.00">NotReadyForSG?*</text>
</g>
<!-- Sequence***&#45;&gt;NotReadyForSG?* -->
<g id="edge16" class="edge">
<title>Sequence***&#45;&gt;NotReadyForSG?*</title>
<path fill="none" stroke="black" d="M806.68,-74.83C789.79,-64.56 766.72,-50.51 747.94,-39.08"/>
<polygon fill="black" stroke="black" points="749.74,-36.08 739.38,-33.87 746.1,-42.06 749.74,-36.08"/>
</g>
<!-- ReachGoal?***** -->
<g id="node18" class="node">
<title>ReachGoal?*****</title>
<ellipse fill="gray" stroke="black" cx="829.95" cy="-18" rx="47.19" ry="18"/>
<text text-anchor="middle" x="829.95" y="-15.8" font-family="Times,serif" font-size="9.00">ReachGoal?*****</text>
</g>
<!-- Sequence***&#45;&gt;ReachGoal?***** -->
<g id="edge17" class="edge">
<title>Sequence***&#45;&gt;ReachGoal?*****</title>
<path fill="none" stroke="black" d="M829.95,-71.7C829.95,-63.98 829.95,-54.71 829.95,-46.11"/>
<polygon fill="black" stroke="black" points="833.45,-46.1 829.95,-36.1 826.45,-46.1 833.45,-46.1"/>
</g>
<!-- GetSubGoal!* -->
<g id="node19" class="node">
<title>GetSubGoal!*</title>
<ellipse fill="gray" stroke="black" cx="934.95" cy="-18" rx="39.02" ry="18"/>
<text text-anchor="middle" x="934.95" y="-15.8" font-family="Times,serif" font-size="9.00">GetSubGoal!*</text>
</g>
<!-- Sequence***&#45;&gt;GetSubGoal!* -->
<g id="edge18" class="edge">
<title>Sequence***&#45;&gt;GetSubGoal!*</title>
<path fill="none" stroke="black" d="M851.96,-74.33C867.43,-64.02 888.29,-50.1 905.23,-38.81"/>
<polygon fill="black" stroke="black" points="907.31,-41.64 913.69,-33.18 903.42,-35.81 907.31,-41.64"/>
</g>
</g>
</svg>
