<?xml version="1.0" encoding="UTF-8" standalone="no"?>
<!DOCTYPE svg PUBLIC "-//W3C//DTD SVG 1.1//EN"
 "http://www.w3.org/Graphics/SVG/1.1/DTD/svg11.dtd">
<!-- Generated by graphviz version 2.43.0 (0)
 -->
<!-- Title: pastafarianism Pages: 1 -->
<svg width="1125pt" height="260pt"
 viewBox="0.00 0.00 1125.29 260.00" xmlns="http://www.w3.org/2000/svg" xmlns:xlink="http://www.w3.org/1999/xlink">
<g id="graph0" class="graph" transform="scale(1 1) rotate(0) translate(4 256)">
<title>pastafarianism</title>
<polygon fill="white" stroke="transparent" points="-4,4 -4,-256 1121.29,-256 1121.29,4 -4,4"/>
<!-- Sequence -->
<g id="node1" class="node">
<title>Sequence</title>
<polygon fill="cyan" stroke="black" points="655.44,-226.54 655.44,-241.46 637,-252 610.91,-252 592.46,-241.46 592.46,-226.54 610.91,-216 637,-216 655.44,-226.54"/>
<text text-anchor="middle" x="623.95" y="-231.8" font-family="Times,serif" font-size="9.00">Sequence</text>
</g>
<!-- Fallback -->
<g id="node2" class="node">
<title>Fallback</title>
<polygon fill="cyan" stroke="black" points="577.19,-154.54 577.19,-169.46 560.06,-180 535.84,-180 518.71,-169.46 518.71,-154.54 535.84,-144 560.06,-144 577.19,-154.54"/>
<text text-anchor="middle" x="547.95" y="-159.8" font-family="Times,serif" font-size="9.00">Fallback</text>
</g>
<!-- Sequence&#45;&gt;Fallback -->
<g id="edge1" class="edge">
<title>Sequence&#45;&gt;Fallback</title>
<path fill="none" stroke="black" d="M607.46,-217.81C596.96,-208.14 583.19,-195.46 571.55,-184.73"/>
<polygon fill="black" stroke="black" points="573.61,-181.88 563.89,-177.68 568.87,-187.03 573.61,-181.88"/>
</g>
<!-- MoveTo! -->
<g id="node22" class="node">
<title>MoveTo!</title>
<ellipse fill="gray" stroke="black" cx="623.95" cy="-162" rx="28.74" ry="18"/>
<text text-anchor="middle" x="623.95" y="-159.8" font-family="Times,serif" font-size="9.00">MoveTo!</text>
</g>
<!-- Sequence&#45;&gt;MoveTo! -->
<g id="edge21" class="edge">
<title>Sequence&#45;&gt;MoveTo!</title>
<path fill="none" stroke="black" d="M623.95,-215.7C623.95,-207.98 623.95,-198.71 623.95,-190.11"/>
<polygon fill="black" stroke="black" points="627.45,-190.1 623.95,-180.1 620.45,-190.1 627.45,-190.1"/>
</g>
<!-- ReachGoal?****** -->
<g id="node23" class="node">
<title>ReachGoal?******</title>
<ellipse fill="gray" stroke="black" cx="720.95" cy="-162" rx="49.8" ry="18"/>
<text text-anchor="middle" x="720.95" y="-159.8" font-family="Times,serif" font-size="9.00">ReachGoal?******</text>
</g>
<!-- Sequence&#45;&gt;ReachGoal?****** -->
<g id="edge22" class="edge">
<title>Sequence&#45;&gt;ReachGoal?******</title>
<path fill="none" stroke="black" d="M643.11,-219.17C656.81,-209.29 675.51,-195.79 691.14,-184.51"/>
<polygon fill="black" stroke="black" points="693.4,-187.2 699.46,-178.51 689.31,-181.52 693.4,-187.2"/>
</g>
<!-- ReachGoal? -->
<g id="node3" class="node">
<title>ReachGoal?</title>
<ellipse fill="gray" stroke="black" cx="134.95" cy="-90" rx="34.13" ry="18"/>
<text text-anchor="middle" x="134.95" y="-87.8" font-family="Times,serif" font-size="9.00">ReachGoal?</text>
</g>
<!-- Fallback&#45;&gt;ReachGoal? -->
<g id="edge2" class="edge">
<title>Fallback&#45;&gt;ReachGoal?</title>
<path fill="none" stroke="black" d="M518.7,-159.15C455.56,-154.64 302.14,-140.95 177.95,-108 175.35,-107.31 172.69,-106.51 170.04,-105.64"/>
<polygon fill="black" stroke="black" points="171.14,-102.31 160.54,-102.25 168.78,-108.91 171.14,-102.31"/>
</g>
<!-- Sequence* -->
<g id="node4" class="node">
<title>Sequence*</title>
<polygon fill="cyan" stroke="black" points="255.19,-82.54 255.19,-97.46 235.13,-108 206.77,-108 186.71,-97.46 186.71,-82.54 206.77,-72 235.13,-72 255.19,-82.54"/>
<text text-anchor="middle" x="220.95" y="-87.8" font-family="Times,serif" font-size="9.00">Sequence*</text>
</g>
<!-- Fallback&#45;&gt;Sequence* -->
<g id="edge3" class="edge">
<title>Fallback&#45;&gt;Sequence*</title>
<path fill="none" stroke="black" d="M518.49,-157.4C466.43,-150.62 355.04,-134.24 263.95,-108 261.36,-107.25 258.72,-106.41 256.07,-105.51"/>
<polygon fill="black" stroke="black" points="257.19,-102.2 246.59,-102.07 254.79,-108.77 257.19,-102.2"/>
</g>
<!-- NotReadyForSG? -->
<g id="node9" class="node">
<title>NotReadyForSG?</title>
<ellipse fill="gray" stroke="black" cx="319.95" cy="-90" rx="46.53" ry="18"/>
<text text-anchor="middle" x="319.95" y="-87.8" font-family="Times,serif" font-size="9.00">NotReadyForSG?</text>
</g>
<!-- Fallback&#45;&gt;NotReadyForSG? -->
<g id="edge8" class="edge">
<title>Fallback&#45;&gt;NotReadyForSG?</title>
<path fill="none" stroke="black" d="M521.35,-152.83C483.05,-141.07 411.84,-119.21 365.18,-104.89"/>
<polygon fill="black" stroke="black" points="365.92,-101.45 355.33,-101.86 363.86,-108.14 365.92,-101.45"/>
</g>
<!-- Sequence** -->
<g id="node10" class="node">
<title>Sequence**</title>
<polygon fill="cyan" stroke="black" points="458.69,-82.54 458.69,-97.46 437.17,-108 406.73,-108 385.21,-97.46 385.21,-82.54 406.73,-72 437.17,-72 458.69,-82.54"/>
<text text-anchor="middle" x="421.95" y="-87.8" font-family="Times,serif" font-size="9.00">Sequence**</text>
</g>
<!-- Fallback&#45;&gt;Sequence** -->
<g id="edge9" class="edge">
<title>Fallback&#45;&gt;Sequence**</title>
<path fill="none" stroke="black" d="M526.86,-149.28C507.16,-138.34 477.44,-121.83 454.66,-109.17"/>
<polygon fill="black" stroke="black" points="456.13,-105.98 445.69,-104.19 452.73,-112.1 456.13,-105.98"/>
</g>
<!-- LkGraph? -->
<g id="node13" class="node">
<title>LkGraph?</title>
<ellipse fill="gray" stroke="black" cx="506.95" cy="-90" rx="30.7" ry="18"/>
<text text-anchor="middle" x="506.95" y="-87.8" font-family="Times,serif" font-size="9.00">LkGraph?</text>
</g>
<!-- Fallback&#45;&gt;LkGraph? -->
<g id="edge12" class="edge">
<title>Fallback&#45;&gt;LkGraph?</title>
<path fill="none" stroke="black" d="M537.82,-143.7C532.91,-135.32 526.92,-125.1 521.53,-115.9"/>
<polygon fill="black" stroke="black" points="524.48,-114 516.41,-107.14 518.44,-117.54 524.48,-114"/>
</g>
<!-- LkClose?** -->
<g id="node14" class="node">
<title>LkClose?**</title>
<ellipse fill="gray" stroke="black" cx="589.95" cy="-90" rx="34.13" ry="18"/>
<text text-anchor="middle" x="589.95" y="-87.8" font-family="Times,serif" font-size="9.00">LkClose?**</text>
</g>
<!-- Fallback&#45;&gt;LkClose?** -->
<g id="edge13" class="edge">
<title>Fallback&#45;&gt;LkClose?**</title>
<path fill="none" stroke="black" d="M558.33,-143.7C563.29,-135.44 569.31,-125.39 574.77,-116.3"/>
<polygon fill="black" stroke="black" points="577.83,-118 579.98,-107.62 571.83,-114.4 577.83,-118"/>
</g>
<!-- GetSubGoal! -->
<g id="node15" class="node">
<title>GetSubGoal!</title>
<ellipse fill="gray" stroke="black" cx="678.95" cy="-90" rx="36.9" ry="18"/>
<text text-anchor="middle" x="678.95" y="-87.8" font-family="Times,serif" font-size="9.00">GetSubGoal!</text>
</g>
<!-- Fallback&#45;&gt;GetSubGoal! -->
<g id="edge14" class="edge">
<title>Fallback&#45;&gt;GetSubGoal!</title>
<path fill="none" stroke="black" d="M569.29,-149.6C590.03,-138.52 621.82,-121.53 645.84,-108.69"/>
<polygon fill="black" stroke="black" points="647.78,-111.62 654.95,-103.82 644.48,-105.45 647.78,-111.62"/>
</g>
<!-- LkClose?*** -->
<g id="node16" class="node">
<title>LkClose?***</title>
<ellipse fill="gray" stroke="black" cx="770.95" cy="-90" rx="36.9" ry="18"/>
<text text-anchor="middle" x="770.95" y="-87.8" font-family="Times,serif" font-size="9.00">LkClose?***</text>
</g>
<!-- Fallback&#45;&gt;LkClose?*** -->
<g id="edge15" class="edge">
<title>Fallback&#45;&gt;LkClose?***</title>
<path fill="none" stroke="black" d="M570.61,-150.12C575.6,-147.94 580.9,-145.77 585.95,-144 646.18,-122.9 664.05,-127.09 724.95,-108 727.69,-107.14 730.51,-106.21 733.34,-105.25"/>
<polygon fill="black" stroke="black" points="734.62,-108.51 742.89,-101.88 732.29,-101.91 734.62,-108.51"/>
</g>
<!-- ReachGoal?**** -->
<g id="node17" class="node">
<title>ReachGoal?****</title>
<ellipse fill="gray" stroke="black" cx="869.95" cy="-90" rx="44.41" ry="18"/>
<text text-anchor="middle" x="869.95" y="-87.8" font-family="Times,serif" font-size="9.00">ReachGoal?****</text>
</g>
<!-- Fallback&#45;&gt;ReachGoal?**** -->
<g id="edge16" class="edge">
<title>Fallback&#45;&gt;ReachGoal?****</title>
<path fill="none" stroke="black" d="M570.08,-149.92C575.19,-147.69 580.68,-145.56 585.95,-144 685.59,-114.52 715.84,-131.94 816.95,-108 820.39,-107.18 823.93,-106.26 827.48,-105.26"/>
<polygon fill="black" stroke="black" points="828.79,-108.52 837.38,-102.33 826.8,-101.81 828.79,-108.52"/>
</g>
<!-- Sequence*** -->
<g id="node18" class="node">
<title>Sequence***</title>
<polygon fill="cyan" stroke="black" points="1011.94,-82.54 1011.94,-97.46 988.51,-108 955.39,-108 931.96,-97.46 931.96,-82.54 955.39,-72 988.51,-72 1011.94,-82.54"/>
<text text-anchor="middle" x="971.95" y="-87.8" font-family="Times,serif" font-size="9.00">Sequence***</text>
</g>
<!-- Fallback&#45;&gt;Sequence*** -->
<g id="edge17" class="edge">
<title>Fallback&#45;&gt;Sequence***</title>
<path fill="none" stroke="black" d="M570.03,-149.73C575.14,-147.51 580.65,-145.43 585.95,-144 731.38,-104.76 775.96,-140.9 922.95,-108 926.3,-107.25 929.75,-106.35 933.18,-105.35"/>
<polygon fill="black" stroke="black" points="934.23,-108.69 942.73,-102.35 932.14,-102.01 934.23,-108.69"/>
</g>
<!-- ReachGoal?* -->
<g id="node5" class="node">
<title>ReachGoal?*</title>
<ellipse fill="gray" stroke="black" cx="36.95" cy="-18" rx="36.9" ry="18"/>
<text text-anchor="middle" x="36.95" y="-15.8" font-family="Times,serif" font-size="9.00">ReachGoal?*</text>
</g>
<!-- Sequence*&#45;&gt;ReachGoal?* -->
<g id="edge4" class="edge">
<title>Sequence*&#45;&gt;ReachGoal?*</title>
<path fill="none" stroke="black" d="M194.14,-78.32C188.78,-76.21 183.19,-74.02 177.95,-72 143.14,-58.58 103.33,-43.65 74.91,-33.07"/>
<polygon fill="black" stroke="black" points="75.95,-29.72 65.36,-29.52 73.51,-36.28 75.95,-29.72"/>
</g>
<!-- CompLkGraph! -->
<g id="node6" class="node">
<title>CompLkGraph!</title>
<ellipse fill="gray" stroke="black" cx="134.95" cy="-18" rx="42.95" ry="18"/>
<text text-anchor="middle" x="134.95" y="-15.8" font-family="Times,serif" font-size="9.00">CompLkGraph!</text>
</g>
<!-- Sequence*&#45;&gt;CompLkGraph! -->
<g id="edge5" class="edge">
<title>Sequence*&#45;&gt;CompLkGraph!</title>
<path fill="none" stroke="black" d="M202.29,-73.81C190.43,-64.15 174.88,-51.5 161.71,-40.78"/>
<polygon fill="black" stroke="black" points="163.84,-38 153.87,-34.4 159.42,-43.43 163.84,-38"/>
</g>
<!-- LkClose? -->
<g id="node7" class="node">
<title>LkClose?</title>
<ellipse fill="gray" stroke="black" cx="224.95" cy="-18" rx="28.74" ry="18"/>
<text text-anchor="middle" x="224.95" y="-15.8" font-family="Times,serif" font-size="9.00">LkClose?</text>
</g>
<!-- Sequence*&#45;&gt;LkClose? -->
<g id="edge6" class="edge">
<title>Sequence*&#45;&gt;LkClose?</title>
<path fill="none" stroke="black" d="M221.94,-71.7C222.38,-63.98 222.91,-54.71 223.4,-46.11"/>
<polygon fill="black" stroke="black" points="226.9,-46.29 223.97,-36.1 219.91,-45.89 226.9,-46.29"/>
</g>
<!-- ReachGoal?** -->
<g id="node8" class="node">
<title>ReachGoal?**</title>
<ellipse fill="gray" stroke="black" cx="310.95" cy="-18" rx="39.02" ry="18"/>
<text text-anchor="middle" x="310.95" y="-15.8" font-family="Times,serif" font-size="9.00">ReachGoal?**</text>
</g>
<!-- Sequence*&#45;&gt;ReachGoal?** -->
<g id="edge7" class="edge">
<title>Sequence*&#45;&gt;ReachGoal?**</title>
<path fill="none" stroke="black" d="M240.04,-74.15C252.8,-64.22 269.79,-51.01 283.94,-40.01"/>
<polygon fill="black" stroke="black" points="286.15,-42.73 291.89,-33.82 281.85,-37.2 286.15,-42.73"/>
</g>
<!-- ReachGoal?*** -->
<g id="node11" class="node">
<title>ReachGoal?***</title>
<ellipse fill="gray" stroke="black" cx="417.95" cy="-18" rx="42.29" ry="18"/>
<text text-anchor="middle" x="417.95" y="-15.8" font-family="Times,serif" font-size="9.00">ReachGoal?***</text>
</g>
<!-- Sequence**&#45;&gt;ReachGoal?*** -->
<g id="edge10" class="edge">
<title>Sequence**&#45;&gt;ReachGoal?***</title>
<path fill="none" stroke="black" d="M420.96,-71.7C420.52,-63.98 419.99,-54.71 419.5,-46.11"/>
<polygon fill="black" stroke="black" points="422.99,-45.89 418.93,-36.1 416,-46.29 422.99,-45.89"/>
</g>
<!-- LkClose?* -->
<g id="node12" class="node">
<title>LkClose?*</title>
<ellipse fill="gray" stroke="black" cx="509.95" cy="-18" rx="31.51" ry="18"/>
<text text-anchor="middle" x="509.95" y="-15.8" font-family="Times,serif" font-size="9.00">LkClose?*</text>
</g>
<!-- Sequence**&#45;&gt;LkClose?* -->
<g id="edge11" class="edge">
<title>Sequence**&#45;&gt;LkClose?*</title>
<path fill="none" stroke="black" d="M441.05,-73.81C453.6,-63.82 470.2,-50.62 483.96,-39.68"/>
<polygon fill="black" stroke="black" points="486.45,-42.17 492.09,-33.21 482.09,-36.69 486.45,-42.17"/>
</g>
<!-- NotReadyForSG?* -->
<g id="node19" class="node">
<title>NotReadyForSG?*</title>
<ellipse fill="gray" stroke="black" cx="870.95" cy="-18" rx="49.8" ry="18"/>
<text text-anchor="middle" x="870.95" y="-15.8" font-family="Times,serif" font-size="9.00">NotReadyForSG?*</text>
</g>
<!-- Sequence***&#45;&gt;NotReadyForSG?* -->
<g id="edge18" class="edge">
<title>Sequence***&#45;&gt;NotReadyForSG?*</title>
<path fill="none" stroke="black" d="M950.53,-74.15C936.26,-64.27 917.3,-51.12 901.46,-40.15"/>
<polygon fill="black" stroke="black" points="903.25,-37.13 893.04,-34.31 899.26,-42.88 903.25,-37.13"/>
</g>
<!-- LkGraph?* -->
<g id="node20" class="node">
<title>LkGraph?*</title>
<ellipse fill="gray" stroke="black" cx="971.95" cy="-18" rx="32.82" ry="18"/>
<text text-anchor="middle" x="971.95" y="-15.8" font-family="Times,serif" font-size="9.00">LkGraph?*</text>
</g>
<!-- Sequence***&#45;&gt;LkGraph?* -->
<g id="edge19" class="edge">
<title>Sequence***&#45;&gt;LkGraph?*</title>
<path fill="none" stroke="black" d="M971.95,-71.7C971.95,-63.98 971.95,-54.71 971.95,-46.11"/>
<polygon fill="black" stroke="black" points="975.45,-46.1 971.95,-36.1 968.45,-46.1 975.45,-46.1"/>
</g>
<!-- ReachGoal?***** -->
<g id="node21" class="node">
<title>ReachGoal?*****</title>
<ellipse fill="gray" stroke="black" cx="1069.95" cy="-18" rx="47.19" ry="18"/>
<text text-anchor="middle" x="1069.95" y="-15.8" font-family="Times,serif" font-size="9.00">ReachGoal?*****</text>
</g>
<!-- Sequence***&#45;&gt;ReachGoal?***** -->
<g id="edge20" class="edge">
<title>Sequence***&#45;&gt;ReachGoal?*****</title>
<path fill="none" stroke="black" d="M993.21,-73.81C1006.96,-64 1025.04,-51.08 1040.19,-40.25"/>
<polygon fill="black" stroke="black" points="1042.62,-42.82 1048.73,-34.16 1038.56,-37.12 1042.62,-42.82"/>
</g>
</g>
</svg>
