<?xml version="1.0" encoding="UTF-8" standalone="no"?>
<!DOCTYPE svg PUBLIC "-//W3C//DTD SVG 1.1//EN"
 "http://www.w3.org/Graphics/SVG/1.1/DTD/svg11.dtd">
<!-- Generated by graphviz version 2.43.0 (0)
 -->
<!-- Title: pastafarianism Pages: 1 -->
<svg width="919pt" height="260pt"
 viewBox="0.00 0.00 919.41 260.00" xmlns="http://www.w3.org/2000/svg" xmlns:xlink="http://www.w3.org/1999/xlink">
<g id="graph0" class="graph" transform="scale(1 1) rotate(0) translate(4 256)">
<title>pastafarianism</title>
<polygon fill="white" stroke="transparent" points="-4,4 -4,-256 915.41,-256 915.41,4 -4,4"/>
<!-- Sequence -->
<g id="node1" class="node">
<title>Sequence</title>
<polygon fill="cyan" stroke="black" points="569.44,-226.54 569.44,-241.46 551,-252 524.91,-252 506.46,-241.46 506.46,-226.54 524.91,-216 551,-216 569.44,-226.54"/>
<text text-anchor="middle" x="537.95" y="-231.8" font-family="Times,serif" font-size="9.00">Sequence</text>
</g>
<!-- Fallback -->
<g id="node2" class="node">
<title>Fallback</title>
<polygon fill="cyan" stroke="black" points="491.19,-154.54 491.19,-169.46 474.06,-180 449.84,-180 432.71,-169.46 432.71,-154.54 449.84,-144 474.06,-144 491.19,-154.54"/>
<text text-anchor="middle" x="461.95" y="-159.8" font-family="Times,serif" font-size="9.00">Fallback</text>
</g>
<!-- Sequence&#45;&gt;Fallback -->
<g id="edge1" class="edge">
<title>Sequence&#45;&gt;Fallback</title>
<path fill="none" stroke="black" d="M521.46,-217.81C510.96,-208.14 497.19,-195.46 485.55,-184.73"/>
<polygon fill="black" stroke="black" points="487.61,-181.88 477.89,-177.68 482.87,-187.03 487.61,-181.88"/>
</g>
<!-- MoveTo! -->
<g id="node18" class="node">
<title>MoveTo!</title>
<ellipse fill="gray" stroke="black" cx="537.95" cy="-162" rx="28.74" ry="18"/>
<text text-anchor="middle" x="537.95" y="-159.8" font-family="Times,serif" font-size="9.00">MoveTo!</text>
</g>
<!-- Sequence&#45;&gt;MoveTo! -->
<g id="edge17" class="edge">
<title>Sequence&#45;&gt;MoveTo!</title>
<path fill="none" stroke="black" d="M537.95,-215.7C537.95,-207.98 537.95,-198.71 537.95,-190.11"/>
<polygon fill="black" stroke="black" points="541.45,-190.1 537.95,-180.1 534.45,-190.1 541.45,-190.1"/>
</g>
<!-- ReachGoal?***** -->
<g id="node19" class="node">
<title>ReachGoal?*****</title>
<ellipse fill="gray" stroke="black" cx="631.95" cy="-162" rx="47.19" ry="18"/>
<text text-anchor="middle" x="631.95" y="-159.8" font-family="Times,serif" font-size="9.00">ReachGoal?*****</text>
</g>
<!-- Sequence&#45;&gt;ReachGoal?***** -->
<g id="edge18" class="edge">
<title>Sequence&#45;&gt;ReachGoal?*****</title>
<path fill="none" stroke="black" d="M556.97,-218.83C570.16,-209.02 587.96,-195.76 602.91,-184.63"/>
<polygon fill="black" stroke="black" points="605.4,-187.14 611.33,-178.36 601.21,-181.52 605.4,-187.14"/>
</g>
<!-- ReachGoal? -->
<g id="node3" class="node">
<title>ReachGoal?</title>
<ellipse fill="gray" stroke="black" cx="146.95" cy="-90" rx="34.13" ry="18"/>
<text text-anchor="middle" x="146.95" y="-87.8" font-family="Times,serif" font-size="9.00">ReachGoal?</text>
</g>
<!-- Fallback&#45;&gt;ReachGoal? -->
<g id="edge2" class="edge">
<title>Fallback&#45;&gt;ReachGoal?</title>
<path fill="none" stroke="black" d="M432.55,-157.08C382.2,-149.98 276.53,-133.32 189.95,-108 187.37,-107.24 184.72,-106.4 182.08,-105.49"/>
<polygon fill="black" stroke="black" points="183.2,-102.17 172.6,-102.03 180.8,-108.75 183.2,-102.17"/>
</g>
<!-- Sequence* -->
<g id="node4" class="node">
<title>Sequence*</title>
<polygon fill="cyan" stroke="black" points="267.19,-82.54 267.19,-97.46 247.13,-108 218.77,-108 198.71,-97.46 198.71,-82.54 218.77,-72 247.13,-72 267.19,-82.54"/>
<text text-anchor="middle" x="232.95" y="-87.8" font-family="Times,serif" font-size="9.00">Sequence*</text>
</g>
<!-- Fallback&#45;&gt;Sequence* -->
<g id="edge3" class="edge">
<title>Fallback&#45;&gt;Sequence*</title>
<path fill="none" stroke="black" d="M433.99,-153.7C397.74,-144.07 332.68,-126.19 277.95,-108 275.2,-107.09 272.37,-106.11 269.53,-105.1"/>
<polygon fill="black" stroke="black" points="270.55,-101.74 259.95,-101.6 268.15,-108.32 270.55,-101.74"/>
</g>
<!-- Sequence** -->
<g id="node8" class="node">
<title>Sequence**</title>
<polygon fill="cyan" stroke="black" points="360.69,-82.54 360.69,-97.46 339.17,-108 308.73,-108 287.21,-97.46 287.21,-82.54 308.73,-72 339.17,-72 360.69,-82.54"/>
<text text-anchor="middle" x="323.95" y="-87.8" font-family="Times,serif" font-size="9.00">Sequence**</text>
</g>
<!-- Fallback&#45;&gt;Sequence** -->
<g id="edge7" class="edge">
<title>Fallback&#45;&gt;Sequence**</title>
<path fill="none" stroke="black" d="M440.08,-149.91C417.88,-138.65 383.21,-121.06 357.52,-108.03"/>
<polygon fill="black" stroke="black" points="359.01,-104.86 348.51,-103.46 355.84,-111.1 359.01,-104.86"/>
</g>
<!-- GetSubGoal!* -->
<g id="node11" class="node">
<title>GetSubGoal!*</title>
<ellipse fill="gray" stroke="black" cx="417.95" cy="-90" rx="39.02" ry="18"/>
<text text-anchor="middle" x="417.95" y="-87.8" font-family="Times,serif" font-size="9.00">GetSubGoal!*</text>
</g>
<!-- Fallback&#45;&gt;GetSubGoal!* -->
<g id="edge10" class="edge">
<title>Fallback&#45;&gt;GetSubGoal!*</title>
<path fill="none" stroke="black" d="M451.07,-143.7C445.88,-135.44 439.57,-125.39 433.85,-116.3"/>
<polygon fill="black" stroke="black" points="436.68,-114.23 428.4,-107.62 430.76,-117.95 436.68,-114.23"/>
</g>
<!-- LkClose?* -->
<g id="node12" class="node">
<title>LkClose?*</title>
<ellipse fill="gray" stroke="black" cx="506.95" cy="-90" rx="31.51" ry="18"/>
<text text-anchor="middle" x="506.95" y="-87.8" font-family="Times,serif" font-size="9.00">LkClose?*</text>
</g>
<!-- Fallback&#45;&gt;LkClose?* -->
<g id="edge11" class="edge">
<title>Fallback&#45;&gt;LkClose?*</title>
<path fill="none" stroke="black" d="M473.07,-143.7C478.52,-135.23 485.17,-124.89 491.13,-115.61"/>
<polygon fill="black" stroke="black" points="494.11,-117.45 496.57,-107.14 488.22,-113.66 494.11,-117.45"/>
</g>
<!-- NotReadyForSG? -->
<g id="node13" class="node">
<title>NotReadyForSG?</title>
<ellipse fill="gray" stroke="black" cx="603.95" cy="-90" rx="46.53" ry="18"/>
<text text-anchor="middle" x="603.95" y="-87.8" font-family="Times,serif" font-size="9.00">NotReadyForSG?</text>
</g>
<!-- Fallback&#45;&gt;NotReadyForSG? -->
<g id="edge12" class="edge">
<title>Fallback&#45;&gt;NotReadyForSG?</title>
<path fill="none" stroke="black" d="M484.14,-150.06C506.3,-139.14 540.76,-122.15 567.04,-109.19"/>
<polygon fill="black" stroke="black" points="568.9,-112.18 576.32,-104.62 565.8,-105.9 568.9,-112.18"/>
</g>
<!-- ReachGoal?*** -->
<g id="node14" class="node">
<title>ReachGoal?***</title>
<ellipse fill="gray" stroke="black" cx="710.95" cy="-90" rx="42.29" ry="18"/>
<text text-anchor="middle" x="710.95" y="-87.8" font-family="Times,serif" font-size="9.00">ReachGoal?***</text>
</g>
<!-- Fallback&#45;&gt;ReachGoal?*** -->
<g id="edge13" class="edge">
<title>Fallback&#45;&gt;ReachGoal?***</title>
<path fill="none" stroke="black" d="M484.16,-150.18C489.27,-147.94 494.74,-145.73 499.95,-144 569.12,-121 589.73,-127.55 659.95,-108 663.14,-107.11 666.43,-106.14 669.72,-105.13"/>
<polygon fill="black" stroke="black" points="671.07,-108.38 679.54,-102.02 668.95,-101.7 671.07,-108.38"/>
</g>
<!-- Sequence*** -->
<g id="node15" class="node">
<title>Sequence***</title>
<polygon fill="cyan" stroke="black" points="850.94,-82.54 850.94,-97.46 827.51,-108 794.39,-108 770.96,-97.46 770.96,-82.54 794.39,-72 827.51,-72 850.94,-82.54"/>
<text text-anchor="middle" x="810.95" y="-87.8" font-family="Times,serif" font-size="9.00">Sequence***</text>
</g>
<!-- Fallback&#45;&gt;Sequence*** -->
<g id="edge14" class="edge">
<title>Fallback&#45;&gt;Sequence***</title>
<path fill="none" stroke="black" d="M484.06,-149.85C489.17,-147.62 494.67,-145.51 499.95,-144 612.96,-111.68 647.65,-135.4 761.95,-108 765.15,-107.23 768.43,-106.34 771.7,-105.37"/>
<polygon fill="black" stroke="black" points="772.95,-108.65 781.43,-102.29 770.84,-101.97 772.95,-108.65"/>
</g>
<!-- ReachGoal?* -->
<g id="node5" class="node">
<title>ReachGoal?*</title>
<ellipse fill="gray" stroke="black" cx="36.95" cy="-18" rx="36.9" ry="18"/>
<text text-anchor="middle" x="36.95" y="-15.8" font-family="Times,serif" font-size="9.00">ReachGoal?*</text>
</g>
<!-- Sequence*&#45;&gt;ReachGoal?* -->
<g id="edge4" class="edge">
<title>Sequence*&#45;&gt;ReachGoal?*</title>
<path fill="none" stroke="black" d="M206.65,-78.35C201.16,-76.2 195.38,-73.98 189.95,-72 142.83,-54.77 130.27,-52.7 82.95,-36 80.4,-35.1 77.78,-34.16 75.14,-33.21"/>
<polygon fill="black" stroke="black" points="76.21,-29.87 65.61,-29.74 73.81,-36.45 76.21,-29.87"/>
</g>
<!-- CompLkGraph! -->
<g id="node6" class="node">
<title>CompLkGraph!</title>
<ellipse fill="gray" stroke="black" cx="134.95" cy="-18" rx="42.95" ry="18"/>
<text text-anchor="middle" x="134.95" y="-15.8" font-family="Times,serif" font-size="9.00">CompLkGraph!</text>
</g>
<!-- Sequence*&#45;&gt;CompLkGraph! -->
<g id="edge5" class="edge">
<title>Sequence*&#45;&gt;CompLkGraph!</title>
<path fill="none" stroke="black" d="M213.12,-74.83C199.06,-64.79 179.95,-51.15 164.15,-39.86"/>
<polygon fill="black" stroke="black" points="165.94,-36.83 155.77,-33.87 161.87,-42.53 165.94,-36.83"/>
</g>
<!-- GetSubGoal! -->
<g id="node7" class="node">
<title>GetSubGoal!</title>
<ellipse fill="gray" stroke="black" cx="232.95" cy="-18" rx="36.9" ry="18"/>
<text text-anchor="middle" x="232.95" y="-15.8" font-family="Times,serif" font-size="9.00">GetSubGoal!</text>
</g>
<!-- Sequence*&#45;&gt;GetSubGoal! -->
<g id="edge6" class="edge">
<title>Sequence*&#45;&gt;GetSubGoal!</title>
<path fill="none" stroke="black" d="M232.95,-71.7C232.95,-63.98 232.95,-54.71 232.95,-46.11"/>
<polygon fill="black" stroke="black" points="236.45,-46.1 232.95,-36.1 229.45,-46.1 236.45,-46.1"/>
</g>
<!-- ReachGoal?** -->
<g id="node9" class="node">
<title>ReachGoal?**</title>
<ellipse fill="gray" stroke="black" cx="326.95" cy="-18" rx="39.02" ry="18"/>
<text text-anchor="middle" x="326.95" y="-15.8" font-family="Times,serif" font-size="9.00">ReachGoal?**</text>
</g>
<!-- Sequence**&#45;&gt;ReachGoal?** -->
<g id="edge8" class="edge">
<title>Sequence**&#45;&gt;ReachGoal?**</title>
<path fill="none" stroke="black" d="M324.69,-71.7C325.02,-63.98 325.42,-54.71 325.79,-46.11"/>
<polygon fill="black" stroke="black" points="329.29,-46.25 326.22,-36.1 322.29,-45.95 329.29,-46.25"/>
</g>
<!-- LkClose? -->
<g id="node10" class="node">
<title>LkClose?</title>
<ellipse fill="gray" stroke="black" cx="412.95" cy="-18" rx="28.74" ry="18"/>
<text text-anchor="middle" x="412.95" y="-15.8" font-family="Times,serif" font-size="9.00">LkClose?</text>
</g>
<!-- Sequence**&#45;&gt;LkClose? -->
<g id="edge9" class="edge">
<title>Sequence**&#45;&gt;LkClose?</title>
<path fill="none" stroke="black" d="M343.26,-73.81C356.34,-63.53 373.74,-49.84 387.89,-38.71"/>
<polygon fill="black" stroke="black" points="390.09,-41.44 395.78,-32.5 385.76,-35.93 390.09,-41.44"/>
</g>
<!-- NotReadyForSG?* -->
<g id="node16" class="node">
<title>NotReadyForSG?*</title>
<ellipse fill="gray" stroke="black" cx="754.95" cy="-18" rx="49.8" ry="18"/>
<text text-anchor="middle" x="754.95" y="-15.8" font-family="Times,serif" font-size="9.00">NotReadyForSG?*</text>
</g>
<!-- Sequence***&#45;&gt;NotReadyForSG?* -->
<g id="edge15" class="edge">
<title>Sequence***&#45;&gt;NotReadyForSG?*</title>
<path fill="none" stroke="black" d="M797.11,-71.7C790.29,-63.18 781.96,-52.76 774.51,-43.45"/>
<polygon fill="black" stroke="black" points="777.23,-41.24 768.25,-35.62 771.76,-45.62 777.23,-41.24"/>
</g>
<!-- ReachGoal?**** -->
<g id="node17" class="node">
<title>ReachGoal?****</title>
<ellipse fill="gray" stroke="black" cx="866.95" cy="-18" rx="44.41" ry="18"/>
<text text-anchor="middle" x="866.95" y="-15.8" font-family="Times,serif" font-size="9.00">ReachGoal?****</text>
</g>
<!-- Sequence***&#45;&gt;ReachGoal?**** -->
<g id="edge16" class="edge">
<title>Sequence***&#45;&gt;ReachGoal?****</title>
<path fill="none" stroke="black" d="M824.79,-71.7C831.61,-63.18 839.94,-52.76 847.39,-43.45"/>
<polygon fill="black" stroke="black" points="850.14,-45.62 853.65,-35.62 844.67,-41.24 850.14,-45.62"/>
</g>
</g>
</svg>
