<?xml version="1.0" encoding="UTF-8" standalone="no"?>
<!DOCTYPE svg PUBLIC "-//W3C//DTD SVG 1.1//EN"
 "http://www.w3.org/Graphics/SVG/1.1/DTD/svg11.dtd">
<!-- Generated by graphviz version 2.43.0 (0)
 -->
<!-- Title: pastafarianism Pages: 1 -->
<svg width="443pt" height="260pt"
 viewBox="0.00 0.00 443.32 260.00" xmlns="http://www.w3.org/2000/svg" xmlns:xlink="http://www.w3.org/1999/xlink">
<g id="graph0" class="graph" transform="scale(1 1) rotate(0) translate(4 256)">
<title>pastafarianism</title>
<polygon fill="white" stroke="transparent" points="-4,4 -4,-256 439.32,-256 439.32,4 -4,4"/>
<!-- Fallback -->
<g id="node1" class="node">
<title>Fallback</title>
<polygon fill="cyan" stroke="black" points="230.31,-226.54 230.31,-241.46 213.18,-252 188.95,-252 171.82,-241.46 171.82,-226.54 188.95,-216 213.18,-216 230.31,-226.54"/>
<text text-anchor="middle" x="201.06" y="-231.8" font-family="Times,serif" font-size="9.00">Fallback</text>
</g>
<!-- ReachGoal? -->
<g id="node2" class="node">
<title>ReachGoal?</title>
<ellipse fill="gray" stroke="black" cx="34.06" cy="-162" rx="34.13" ry="18"/>
<text text-anchor="middle" x="34.06" y="-159.8" font-family="Times,serif" font-size="9.00">ReachGoal?</text>
</g>
<!-- Fallback&#45;&gt;ReachGoal? -->
<g id="edge1" class="edge">
<title>Fallback&#45;&gt;ReachGoal?</title>
<path fill="none" stroke="black" d="M177.14,-222.97C148.94,-211.15 101.83,-191.4 69.42,-177.82"/>
<polygon fill="black" stroke="black" points="70.44,-174.45 59.87,-173.82 67.74,-180.91 70.44,-174.45"/>
</g>
<!-- Sequence -->
<g id="node3" class="node">
<title>Sequence</title>
<polygon fill="cyan" stroke="black" points="148.56,-154.54 148.56,-169.46 130.11,-180 104.02,-180 85.57,-169.46 85.57,-154.54 104.02,-144 130.11,-144 148.56,-154.54"/>
<text text-anchor="middle" x="117.06" y="-159.8" font-family="Times,serif" font-size="9.00">Sequence</text>
</g>
<!-- Fallback&#45;&gt;Sequence -->
<g id="edge2" class="edge">
<title>Fallback&#45;&gt;Sequence</title>
<path fill="none" stroke="black" d="M184.07,-218.83C172.16,-208.91 156.03,-195.47 142.58,-184.26"/>
<polygon fill="black" stroke="black" points="144.54,-181.34 134.62,-177.63 140.06,-186.72 144.54,-181.34"/>
</g>
<!-- Sequence* -->
<g id="node6" class="node">
<title>Sequence*</title>
<polygon fill="cyan" stroke="black" points="235.31,-154.54 235.31,-169.46 215.25,-180 186.88,-180 166.82,-169.46 166.82,-154.54 186.88,-144 215.25,-144 235.31,-154.54"/>
<text text-anchor="middle" x="201.06" y="-159.8" font-family="Times,serif" font-size="9.00">Sequence*</text>
</g>
<!-- Fallback&#45;&gt;Sequence* -->
<g id="edge5" class="edge">
<title>Fallback&#45;&gt;Sequence*</title>
<path fill="none" stroke="black" d="M201.06,-215.7C201.06,-207.98 201.06,-198.71 201.06,-190.11"/>
<polygon fill="black" stroke="black" points="204.56,-190.1 201.06,-180.1 197.56,-190.1 204.56,-190.1"/>
</g>
<!-- CompLkGraph! -->
<g id="node11" class="node">
<title>CompLkGraph!</title>
<ellipse fill="gray" stroke="black" cx="296.06" cy="-162" rx="42.95" ry="18"/>
<text text-anchor="middle" x="296.06" y="-159.8" font-family="Times,serif" font-size="9.00">CompLkGraph!</text>
</g>
<!-- Fallback&#45;&gt;CompLkGraph! -->
<g id="edge10" class="edge">
<title>Fallback&#45;&gt;CompLkGraph!</title>
<path fill="none" stroke="black" d="M219.38,-219.5C233.03,-209.45 251.92,-195.52 267.54,-184.01"/>
<polygon fill="black" stroke="black" points="269.86,-186.66 275.83,-177.91 265.7,-181.02 269.86,-186.66"/>
</g>
<!-- GetSubGoal!* -->
<g id="node12" class="node">
<title>GetSubGoal!*</title>
<ellipse fill="gray" stroke="black" cx="396.06" cy="-162" rx="39.02" ry="18"/>
<text text-anchor="middle" x="396.06" y="-159.8" font-family="Times,serif" font-size="9.00">GetSubGoal!*</text>
</g>
<!-- Fallback&#45;&gt;GetSubGoal!* -->
<g id="edge11" class="edge">
<title>Fallback&#45;&gt;GetSubGoal!*</title>
<path fill="none" stroke="black" d="M226.56,-223.85C259.68,-211.96 317.84,-191.08 356.66,-177.14"/>
<polygon fill="black" stroke="black" points="357.86,-180.43 366.09,-173.76 355.49,-173.84 357.86,-180.43"/>
</g>
<!-- LkClose? -->
<g id="node4" class="node">
<title>LkClose?</title>
<ellipse fill="gray" stroke="black" cx="45.06" cy="-90" rx="28.74" ry="18"/>
<text text-anchor="middle" x="45.06" y="-87.8" font-family="Times,serif" font-size="9.00">LkClose?</text>
</g>
<!-- Sequence&#45;&gt;LkClose? -->
<g id="edge3" class="edge">
<title>Sequence&#45;&gt;LkClose?</title>
<path fill="none" stroke="black" d="M101.08,-145.46C91.12,-135.78 78.16,-123.17 67.21,-112.53"/>
<polygon fill="black" stroke="black" points="69.62,-110 60.01,-105.54 64.75,-115.02 69.62,-110"/>
</g>
<!-- GetLk! -->
<g id="node5" class="node">
<title>GetLk!</title>
<ellipse fill="gray" stroke="black" cx="119.06" cy="-90" rx="27" ry="18"/>
<text text-anchor="middle" x="119.06" y="-87.8" font-family="Times,serif" font-size="9.00">GetLk!</text>
</g>
<!-- Sequence&#45;&gt;GetLk! -->
<g id="edge4" class="edge">
<title>Sequence&#45;&gt;GetLk!</title>
<path fill="none" stroke="black" d="M117.56,-143.7C117.78,-135.98 118.04,-126.71 118.29,-118.11"/>
<polygon fill="black" stroke="black" points="121.79,-118.2 118.57,-108.1 114.79,-118 121.79,-118.2"/>
</g>
<!-- Fallback* -->
<g id="node7" class="node">
<title>Fallback*</title>
<polygon fill="cyan" stroke="black" points="230.81,-82.54 230.81,-97.46 212.21,-108 185.92,-108 167.32,-97.46 167.32,-82.54 185.92,-72 212.21,-72 230.81,-82.54"/>
<text text-anchor="middle" x="199.06" y="-87.8" font-family="Times,serif" font-size="9.00">Fallback*</text>
</g>
<!-- Sequence*&#45;&gt;Fallback* -->
<g id="edge6" class="edge">
<title>Sequence*&#45;&gt;Fallback*</title>
<path fill="none" stroke="black" d="M200.57,-143.7C200.35,-135.98 200.08,-126.71 199.84,-118.11"/>
<polygon fill="black" stroke="black" points="203.34,-118 199.55,-108.1 196.34,-118.2 203.34,-118"/>
</g>
<!-- MoveTo! -->
<g id="node10" class="node">
<title>MoveTo!</title>
<ellipse fill="gray" stroke="black" cx="278.06" cy="-90" rx="28.74" ry="18"/>
<text text-anchor="middle" x="278.06" y="-87.8" font-family="Times,serif" font-size="9.00">MoveTo!</text>
</g>
<!-- Sequence*&#45;&gt;MoveTo! -->
<g id="edge9" class="edge">
<title>Sequence*&#45;&gt;MoveTo!</title>
<path fill="none" stroke="black" d="M218.15,-145.46C228.88,-135.71 242.86,-123 254.62,-112.32"/>
<polygon fill="black" stroke="black" points="257.29,-114.62 262.33,-105.3 252.58,-109.44 257.29,-114.62"/>
</g>
<!-- NotReadyForSG? -->
<g id="node8" class="node">
<title>NotReadyForSG?</title>
<ellipse fill="gray" stroke="black" cx="148.06" cy="-18" rx="46.53" ry="18"/>
<text text-anchor="middle" x="148.06" y="-15.8" font-family="Times,serif" font-size="9.00">NotReadyForSG?</text>
</g>
<!-- Fallback*&#45;&gt;NotReadyForSG? -->
<g id="edge7" class="edge">
<title>Fallback*&#45;&gt;NotReadyForSG?</title>
<path fill="none" stroke="black" d="M186.46,-71.7C180.31,-63.27 172.82,-52.97 166.08,-43.73"/>
<polygon fill="black" stroke="black" points="168.89,-41.64 160.17,-35.62 163.23,-45.77 168.89,-41.64"/>
</g>
<!-- GetSubGoal! -->
<g id="node9" class="node">
<title>GetSubGoal!</title>
<ellipse fill="gray" stroke="black" cx="250.06" cy="-18" rx="36.9" ry="18"/>
<text text-anchor="middle" x="250.06" y="-15.8" font-family="Times,serif" font-size="9.00">GetSubGoal!</text>
</g>
<!-- Fallback*&#45;&gt;GetSubGoal! -->
<g id="edge8" class="edge">
<title>Fallback*&#45;&gt;GetSubGoal!</title>
<path fill="none" stroke="black" d="M211.67,-71.7C217.9,-63.14 225.53,-52.67 232.34,-43.33"/>
<polygon fill="black" stroke="black" points="235.24,-45.29 238.3,-35.14 229.58,-41.17 235.24,-45.29"/>
</g>
</g>
</svg>
