<?xml version="1.0" encoding="UTF-8" standalone="no"?>
<!DOCTYPE svg PUBLIC "-//W3C//DTD SVG 1.1//EN"
 "http://www.w3.org/Graphics/SVG/1.1/DTD/svg11.dtd">
<!-- Generated by graphviz version 2.43.0 (0)
 -->
<!-- Title: pastafarianism Pages: 1 -->
<svg width="527pt" height="260pt"
 viewBox="0.00 0.00 526.66 260.00" xmlns="http://www.w3.org/2000/svg" xmlns:xlink="http://www.w3.org/1999/xlink">
<g id="graph0" class="graph" transform="scale(1 1) rotate(0) translate(4 256)">
<title>pastafarianism</title>
<polygon fill="white" stroke="transparent" points="-4,4 -4,-256 522.66,-256 522.66,4 -4,4"/>
<!-- Fallback -->
<g id="node1" class="node">
<title>Fallback</title>
<polygon fill="cyan" stroke="black" points="290.84,-226.54 290.84,-241.46 273.71,-252 249.49,-252 232.36,-241.46 232.36,-226.54 249.49,-216 273.71,-216 290.84,-226.54"/>
<text text-anchor="middle" x="261.6" y="-231.8" font-family="Times,serif" font-size="9.00">Fallback</text>
</g>
<!-- ReachGoal? -->
<g id="node2" class="node">
<title>ReachGoal?</title>
<ellipse fill="gray" stroke="black" cx="94.6" cy="-162" rx="34.13" ry="18"/>
<text text-anchor="middle" x="94.6" y="-159.8" font-family="Times,serif" font-size="9.00">ReachGoal?</text>
</g>
<!-- Fallback&#45;&gt;ReachGoal? -->
<g id="edge1" class="edge">
<title>Fallback&#45;&gt;ReachGoal?</title>
<path fill="none" stroke="black" d="M237.67,-222.97C209.47,-211.15 162.36,-191.4 129.95,-177.82"/>
<polygon fill="black" stroke="black" points="130.98,-174.45 120.4,-173.82 128.27,-180.91 130.98,-174.45"/>
</g>
<!-- Sequence -->
<g id="node3" class="node">
<title>Sequence</title>
<polygon fill="cyan" stroke="black" points="209.09,-154.54 209.09,-169.46 190.64,-180 164.55,-180 146.11,-169.46 146.11,-154.54 164.55,-144 190.64,-144 209.09,-154.54"/>
<text text-anchor="middle" x="177.6" y="-159.8" font-family="Times,serif" font-size="9.00">Sequence</text>
</g>
<!-- Fallback&#45;&gt;Sequence -->
<g id="edge2" class="edge">
<title>Fallback&#45;&gt;Sequence</title>
<path fill="none" stroke="black" d="M244.6,-218.83C232.69,-208.91 216.56,-195.47 203.12,-184.26"/>
<polygon fill="black" stroke="black" points="205.07,-181.34 195.15,-177.63 200.59,-186.72 205.07,-181.34"/>
</g>
<!-- Sequence* -->
<g id="node7" class="node">
<title>Sequence*</title>
<polygon fill="cyan" stroke="black" points="295.84,-154.54 295.84,-169.46 275.78,-180 247.42,-180 227.36,-169.46 227.36,-154.54 247.42,-144 275.78,-144 295.84,-154.54"/>
<text text-anchor="middle" x="261.6" y="-159.8" font-family="Times,serif" font-size="9.00">Sequence*</text>
</g>
<!-- Fallback&#45;&gt;Sequence* -->
<g id="edge6" class="edge">
<title>Fallback&#45;&gt;Sequence*</title>
<path fill="none" stroke="black" d="M261.6,-215.7C261.6,-207.98 261.6,-198.71 261.6,-190.11"/>
<polygon fill="black" stroke="black" points="265.1,-190.1 261.6,-180.1 258.1,-190.1 265.1,-190.1"/>
</g>
<!-- NotReadyForSG?* -->
<g id="node15" class="node">
<title>NotReadyForSG?*</title>
<ellipse fill="gray" stroke="black" cx="363.6" cy="-162" rx="49.8" ry="18"/>
<text text-anchor="middle" x="363.6" y="-159.8" font-family="Times,serif" font-size="9.00">NotReadyForSG?*</text>
</g>
<!-- Fallback&#45;&gt;NotReadyForSG?* -->
<g id="edge14" class="edge">
<title>Fallback&#45;&gt;NotReadyForSG?*</title>
<path fill="none" stroke="black" d="M280.78,-219.83C295.43,-209.78 315.9,-195.73 332.83,-184.12"/>
<polygon fill="black" stroke="black" points="335.04,-186.85 341.3,-178.3 331.08,-181.07 335.04,-186.85"/>
</g>
<!-- CompLkGraph! -->
<g id="node16" class="node">
<title>CompLkGraph!</title>
<ellipse fill="gray" stroke="black" cx="473.6" cy="-162" rx="42.95" ry="18"/>
<text text-anchor="middle" x="473.6" y="-159.8" font-family="Times,serif" font-size="9.00">CompLkGraph!</text>
</g>
<!-- Fallback&#45;&gt;CompLkGraph! -->
<g id="edge15" class="edge">
<title>Fallback&#45;&gt;CompLkGraph!</title>
<path fill="none" stroke="black" d="M287.54,-224.49C319.37,-214.05 374.97,-195.78 422.6,-180 425.52,-179.03 428.53,-178.03 431.56,-177.03"/>
<polygon fill="black" stroke="black" points="432.85,-180.29 441.23,-173.81 430.64,-173.65 432.85,-180.29"/>
</g>
<!-- LkGraph? -->
<g id="node4" class="node">
<title>LkGraph?</title>
<ellipse fill="gray" stroke="black" cx="30.6" cy="-90" rx="30.7" ry="18"/>
<text text-anchor="middle" x="30.6" y="-87.8" font-family="Times,serif" font-size="9.00">LkGraph?</text>
</g>
<!-- Sequence&#45;&gt;LkGraph? -->
<g id="edge3" class="edge">
<title>Sequence&#45;&gt;LkGraph?</title>
<path fill="none" stroke="black" d="M153.98,-149.75C129.3,-138 90.4,-119.48 62.89,-106.38"/>
<polygon fill="black" stroke="black" points="64.21,-103.13 53.67,-101.99 61.2,-109.45 64.21,-103.13"/>
</g>
<!-- LkClose? -->
<g id="node5" class="node">
<title>LkClose?</title>
<ellipse fill="gray" stroke="black" cx="107.6" cy="-90" rx="28.74" ry="18"/>
<text text-anchor="middle" x="107.6" y="-87.8" font-family="Times,serif" font-size="9.00">LkClose?</text>
</g>
<!-- Sequence&#45;&gt;LkClose? -->
<g id="edge4" class="edge">
<title>Sequence&#45;&gt;LkClose?</title>
<path fill="none" stroke="black" d="M161.72,-145.12C152.24,-135.64 140.06,-123.46 129.66,-113.06"/>
<polygon fill="black" stroke="black" points="132.01,-110.46 122.46,-105.86 127.06,-115.41 132.01,-110.46"/>
</g>
<!-- GetLk! -->
<g id="node6" class="node">
<title>GetLk!</title>
<ellipse fill="gray" stroke="black" cx="181.6" cy="-90" rx="27" ry="18"/>
<text text-anchor="middle" x="181.6" y="-87.8" font-family="Times,serif" font-size="9.00">GetLk!</text>
</g>
<!-- Sequence&#45;&gt;GetLk! -->
<g id="edge5" class="edge">
<title>Sequence&#45;&gt;GetLk!</title>
<path fill="none" stroke="black" d="M178.59,-143.7C179.03,-135.98 179.56,-126.71 180.05,-118.11"/>
<polygon fill="black" stroke="black" points="183.55,-118.29 180.62,-108.1 176.56,-117.89 183.55,-118.29"/>
</g>
<!-- Fallback* -->
<g id="node8" class="node">
<title>Fallback*</title>
<polygon fill="cyan" stroke="black" points="290.34,-82.54 290.34,-97.46 271.75,-108 245.45,-108 226.86,-97.46 226.86,-82.54 245.45,-72 271.75,-72 290.34,-82.54"/>
<text text-anchor="middle" x="258.6" y="-87.8" font-family="Times,serif" font-size="9.00">Fallback*</text>
</g>
<!-- Sequence*&#45;&gt;Fallback* -->
<g id="edge7" class="edge">
<title>Sequence*&#45;&gt;Fallback*</title>
<path fill="none" stroke="black" d="M260.86,-143.7C260.53,-135.98 260.13,-126.71 259.76,-118.11"/>
<polygon fill="black" stroke="black" points="263.26,-117.95 259.33,-108.1 256.26,-118.25 263.26,-117.95"/>
</g>
<!-- MoveTo! -->
<g id="node11" class="node">
<title>MoveTo!</title>
<ellipse fill="gray" stroke="black" cx="337.6" cy="-90" rx="28.74" ry="18"/>
<text text-anchor="middle" x="337.6" y="-87.8" font-family="Times,serif" font-size="9.00">MoveTo!</text>
</g>
<!-- Sequence*&#45;&gt;MoveTo! -->
<g id="edge10" class="edge">
<title>Sequence*&#45;&gt;MoveTo!</title>
<path fill="none" stroke="black" d="M278.85,-145.12C289.38,-135.41 302.98,-122.89 314.44,-112.33"/>
<polygon fill="black" stroke="black" points="316.99,-114.74 321.97,-105.39 312.25,-109.59 316.99,-114.74"/>
</g>
<!-- Fallback** -->
<g id="node12" class="node">
<title>Fallback**</title>
<polygon fill="cyan" stroke="black" points="454.59,-82.54 454.59,-97.46 434.09,-108 405.11,-108 384.61,-97.46 384.61,-82.54 405.11,-72 434.09,-72 454.59,-82.54"/>
<text text-anchor="middle" x="419.6" y="-87.8" font-family="Times,serif" font-size="9.00">Fallback**</text>
</g>
<!-- Sequence*&#45;&gt;Fallback** -->
<g id="edge11" class="edge">
<title>Sequence*&#45;&gt;Fallback**</title>
<path fill="none" stroke="black" d="M286.98,-149.75C313.4,-138.05 354.95,-119.64 384.49,-106.55"/>
<polygon fill="black" stroke="black" points="386.29,-109.59 394.02,-102.33 383.45,-103.19 386.29,-109.59"/>
</g>
<!-- NotReadyForSG? -->
<g id="node9" class="node">
<title>NotReadyForSG?</title>
<ellipse fill="gray" stroke="black" cx="174.6" cy="-18" rx="46.53" ry="18"/>
<text text-anchor="middle" x="174.6" y="-15.8" font-family="Times,serif" font-size="9.00">NotReadyForSG?</text>
</g>
<!-- Fallback*&#45;&gt;NotReadyForSG? -->
<g id="edge8" class="edge">
<title>Fallback*&#45;&gt;NotReadyForSG?</title>
<path fill="none" stroke="black" d="M240.79,-74.15C229.22,-64.52 213.94,-51.79 200.98,-40.98"/>
<polygon fill="black" stroke="black" points="203.18,-38.26 193.26,-34.55 198.7,-43.64 203.18,-38.26"/>
</g>
<!-- GetSubGoal! -->
<g id="node10" class="node">
<title>GetSubGoal!</title>
<ellipse fill="gray" stroke="black" cx="276.6" cy="-18" rx="36.9" ry="18"/>
<text text-anchor="middle" x="276.6" y="-15.8" font-family="Times,serif" font-size="9.00">GetSubGoal!</text>
</g>
<!-- Fallback*&#45;&gt;GetSubGoal! -->
<g id="edge9" class="edge">
<title>Fallback*&#45;&gt;GetSubGoal!</title>
<path fill="none" stroke="black" d="M263.05,-71.7C265.05,-63.9 267.47,-54.51 269.7,-45.83"/>
<polygon fill="black" stroke="black" points="273.1,-46.66 272.2,-36.1 266.32,-44.92 273.1,-46.66"/>
</g>
<!-- MoveTo!* -->
<g id="node13" class="node">
<title>MoveTo!*</title>
<ellipse fill="gray" stroke="black" cx="400.6" cy="-18" rx="31.51" ry="18"/>
<text text-anchor="middle" x="400.6" y="-15.8" font-family="Times,serif" font-size="9.00">MoveTo!*</text>
</g>
<!-- Fallback**&#45;&gt;MoveTo!* -->
<g id="edge12" class="edge">
<title>Fallback**&#45;&gt;MoveTo!*</title>
<path fill="none" stroke="black" d="M414.9,-71.7C412.79,-63.9 410.24,-54.51 407.88,-45.83"/>
<polygon fill="black" stroke="black" points="411.24,-44.84 405.24,-36.1 404.48,-46.67 411.24,-44.84"/>
</g>
<!-- MoveTo!** -->
<g id="node14" class="node">
<title>MoveTo!**</title>
<ellipse fill="gray" stroke="black" cx="484.6" cy="-18" rx="34.13" ry="18"/>
<text text-anchor="middle" x="484.6" y="-15.8" font-family="Times,serif" font-size="9.00">MoveTo!**</text>
</g>
<!-- Fallback**&#45;&gt;MoveTo!** -->
<g id="edge13" class="edge">
<title>Fallback**&#45;&gt;MoveTo!**</title>
<path fill="none" stroke="black" d="M435,-72.41C443.42,-63.35 453.97,-51.99 463.17,-42.08"/>
<polygon fill="black" stroke="black" points="465.96,-44.22 470.2,-34.51 460.83,-39.46 465.96,-44.22"/>
</g>
</g>
</svg>
