<?xml version="1.0" encoding="UTF-8" standalone="no"?>
<!DOCTYPE svg PUBLIC "-//W3C//DTD SVG 1.1//EN"
 "http://www.w3.org/Graphics/SVG/1.1/DTD/svg11.dtd">
<!-- Generated by graphviz version 2.43.0 (0)
 -->
<!-- Title: pastafarianism Pages: 1 -->
<svg width="487pt" height="260pt"
 viewBox="0.00 0.00 486.63 260.00" xmlns="http://www.w3.org/2000/svg" xmlns:xlink="http://www.w3.org/1999/xlink">
<g id="graph0" class="graph" transform="scale(1 1) rotate(0) translate(4 256)">
<title>pastafarianism</title>
<polygon fill="white" stroke="transparent" points="-4,4 -4,-256 482.63,-256 482.63,4 -4,4"/>
<!-- Fallback -->
<g id="node1" class="node">
<title>Fallback</title>
<polygon fill="cyan" stroke="black" points="282.01,-226.54 282.01,-241.46 264.88,-252 240.65,-252 223.52,-241.46 223.52,-226.54 240.65,-216 264.88,-216 282.01,-226.54"/>
<text text-anchor="middle" x="252.77" y="-231.8" font-family="Times,serif" font-size="9.00">Fallback</text>
</g>
<!-- ReachGoal? -->
<g id="node2" class="node">
<title>ReachGoal?</title>
<ellipse fill="gray" stroke="black" cx="127.77" cy="-162" rx="34.13" ry="18"/>
<text text-anchor="middle" x="127.77" y="-159.8" font-family="Times,serif" font-size="9.00">ReachGoal?</text>
</g>
<!-- Fallback&#45;&gt;ReachGoal? -->
<g id="edge1" class="edge">
<title>Fallback&#45;&gt;ReachGoal?</title>
<path fill="none" stroke="black" d="M231.84,-221.28C212.05,-210.2 182.08,-193.42 159.37,-180.7"/>
<polygon fill="black" stroke="black" points="160.88,-177.54 150.45,-175.7 157.46,-183.64 160.88,-177.54"/>
</g>
<!-- Sequence -->
<g id="node3" class="node">
<title>Sequence</title>
<polygon fill="cyan" stroke="black" points="242.26,-154.54 242.26,-169.46 223.81,-180 197.72,-180 179.27,-169.46 179.27,-154.54 197.72,-144 223.81,-144 242.26,-154.54"/>
<text text-anchor="middle" x="210.77" y="-159.8" font-family="Times,serif" font-size="9.00">Sequence</text>
</g>
<!-- Fallback&#45;&gt;Sequence -->
<g id="edge2" class="edge">
<title>Fallback&#45;&gt;Sequence</title>
<path fill="none" stroke="black" d="M242.38,-215.7C237.5,-207.56 231.58,-197.69 226.19,-188.7"/>
<polygon fill="black" stroke="black" points="229.17,-186.88 221.03,-180.1 223.17,-190.48 229.17,-186.88"/>
</g>
<!-- Sequence* -->
<g id="node7" class="node">
<title>Sequence*</title>
<polygon fill="cyan" stroke="black" points="329.01,-154.54 329.01,-169.46 308.95,-180 280.58,-180 260.52,-169.46 260.52,-154.54 280.58,-144 308.95,-144 329.01,-154.54"/>
<text text-anchor="middle" x="294.77" y="-159.8" font-family="Times,serif" font-size="9.00">Sequence*</text>
</g>
<!-- Fallback&#45;&gt;Sequence* -->
<g id="edge6" class="edge">
<title>Fallback&#45;&gt;Sequence*</title>
<path fill="none" stroke="black" d="M263.15,-215.7C268.03,-207.56 273.95,-197.69 279.34,-188.7"/>
<polygon fill="black" stroke="black" points="282.36,-190.48 284.5,-180.1 276.36,-186.88 282.36,-190.48"/>
</g>
<!-- CompLkGraph! -->
<g id="node13" class="node">
<title>CompLkGraph!</title>
<ellipse fill="gray" stroke="black" cx="389.77" cy="-162" rx="42.95" ry="18"/>
<text text-anchor="middle" x="389.77" y="-159.8" font-family="Times,serif" font-size="9.00">CompLkGraph!</text>
</g>
<!-- Fallback&#45;&gt;CompLkGraph! -->
<g id="edge12" class="edge">
<title>Fallback&#45;&gt;CompLkGraph!</title>
<path fill="none" stroke="black" d="M274.78,-221.75C296.24,-210.79 329.23,-193.93 354.38,-181.08"/>
<polygon fill="black" stroke="black" points="356.28,-184.04 363.59,-176.37 353.1,-177.81 356.28,-184.04"/>
</g>
<!-- NotReadyForSG? -->
<g id="node4" class="node">
<title>NotReadyForSG?</title>
<ellipse fill="gray" stroke="black" cx="46.77" cy="-90" rx="46.53" ry="18"/>
<text text-anchor="middle" x="46.77" y="-87.8" font-family="Times,serif" font-size="9.00">NotReadyForSG?</text>
</g>
<!-- Sequence&#45;&gt;NotReadyForSG? -->
<g id="edge3" class="edge">
<title>Sequence&#45;&gt;NotReadyForSG?</title>
<path fill="none" stroke="black" d="M186.21,-150.52C159.73,-139.22 117.19,-121.06 86.05,-107.77"/>
<polygon fill="black" stroke="black" points="87.35,-104.52 76.78,-103.81 84.61,-110.96 87.35,-104.52"/>
</g>
<!-- LkClose? -->
<g id="node5" class="node">
<title>LkClose?</title>
<ellipse fill="gray" stroke="black" cx="140.77" cy="-90" rx="28.74" ry="18"/>
<text text-anchor="middle" x="140.77" y="-87.8" font-family="Times,serif" font-size="9.00">LkClose?</text>
</g>
<!-- Sequence&#45;&gt;LkClose? -->
<g id="edge4" class="edge">
<title>Sequence&#45;&gt;LkClose?</title>
<path fill="none" stroke="black" d="M194.88,-145.12C185.4,-135.64 173.23,-123.46 162.83,-113.06"/>
<polygon fill="black" stroke="black" points="165.18,-110.46 155.63,-105.86 160.23,-115.41 165.18,-110.46"/>
</g>
<!-- GetLk! -->
<g id="node6" class="node">
<title>GetLk!</title>
<ellipse fill="gray" stroke="black" cx="214.77" cy="-90" rx="27" ry="18"/>
<text text-anchor="middle" x="214.77" y="-87.8" font-family="Times,serif" font-size="9.00">GetLk!</text>
</g>
<!-- Sequence&#45;&gt;GetLk! -->
<g id="edge5" class="edge">
<title>Sequence&#45;&gt;GetLk!</title>
<path fill="none" stroke="black" d="M211.75,-143.7C212.19,-135.98 212.72,-126.71 213.22,-118.11"/>
<polygon fill="black" stroke="black" points="216.71,-118.29 213.79,-108.1 209.72,-117.89 216.71,-118.29"/>
</g>
<!-- LkGraph? -->
<g id="node8" class="node">
<title>LkGraph?</title>
<ellipse fill="gray" stroke="black" cx="290.77" cy="-90" rx="30.7" ry="18"/>
<text text-anchor="middle" x="290.77" y="-87.8" font-family="Times,serif" font-size="9.00">LkGraph?</text>
</g>
<!-- Sequence*&#45;&gt;LkGraph? -->
<g id="edge7" class="edge">
<title>Sequence*&#45;&gt;LkGraph?</title>
<path fill="none" stroke="black" d="M293.78,-143.7C293.34,-135.98 292.81,-126.71 292.31,-118.11"/>
<polygon fill="black" stroke="black" points="295.81,-117.89 291.74,-108.1 288.82,-118.29 295.81,-117.89"/>
</g>
<!-- Fallback* -->
<g id="node9" class="node">
<title>Fallback*</title>
<polygon fill="cyan" stroke="black" points="402.51,-82.54 402.51,-97.46 383.91,-108 357.62,-108 339.02,-97.46 339.02,-82.54 357.62,-72 383.91,-72 402.51,-82.54"/>
<text text-anchor="middle" x="370.77" y="-87.8" font-family="Times,serif" font-size="9.00">Fallback*</text>
</g>
<!-- Sequence*&#45;&gt;Fallback* -->
<g id="edge8" class="edge">
<title>Sequence*&#45;&gt;Fallback*</title>
<path fill="none" stroke="black" d="M312.01,-145.12C322.26,-135.68 335.41,-123.56 346.67,-113.19"/>
<polygon fill="black" stroke="black" points="349.13,-115.69 354.11,-106.34 344.38,-110.54 349.13,-115.69"/>
</g>
<!-- MoveTo! -->
<g id="node12" class="node">
<title>MoveTo!</title>
<ellipse fill="gray" stroke="black" cx="449.77" cy="-90" rx="28.74" ry="18"/>
<text text-anchor="middle" x="449.77" y="-87.8" font-family="Times,serif" font-size="9.00">MoveTo!</text>
</g>
<!-- Sequence*&#45;&gt;MoveTo! -->
<g id="edge11" class="edge">
<title>Sequence*&#45;&gt;MoveTo!</title>
<path fill="none" stroke="black" d="M320.01,-149.6C346.68,-137.55 388.8,-118.53 417.77,-105.45"/>
<polygon fill="black" stroke="black" points="419.38,-108.56 427.05,-101.26 416.5,-102.18 419.38,-108.56"/>
</g>
<!-- NotReadyForSG?* -->
<g id="node10" class="node">
<title>NotReadyForSG?*</title>
<ellipse fill="gray" stroke="black" cx="317.77" cy="-18" rx="49.8" ry="18"/>
<text text-anchor="middle" x="317.77" y="-15.8" font-family="Times,serif" font-size="9.00">NotReadyForSG?*</text>
</g>
<!-- Fallback*&#45;&gt;NotReadyForSG?* -->
<g id="edge9" class="edge">
<title>Fallback*&#45;&gt;NotReadyForSG?*</title>
<path fill="none" stroke="black" d="M357.66,-71.7C351.28,-63.27 343.49,-52.97 336.49,-43.73"/>
<polygon fill="black" stroke="black" points="339.18,-41.48 330.35,-35.62 333.6,-45.71 339.18,-41.48"/>
</g>
<!-- GetSubGoal! -->
<g id="node11" class="node">
<title>GetSubGoal!</title>
<ellipse fill="gray" stroke="black" cx="422.77" cy="-18" rx="36.9" ry="18"/>
<text text-anchor="middle" x="422.77" y="-15.8" font-family="Times,serif" font-size="9.00">GetSubGoal!</text>
</g>
<!-- Fallback*&#45;&gt;GetSubGoal! -->
<g id="edge10" class="edge">
<title>Fallback*&#45;&gt;GetSubGoal!</title>
<path fill="none" stroke="black" d="M383.62,-71.7C389.97,-63.14 397.75,-52.67 404.7,-43.33"/>
<polygon fill="black" stroke="black" points="407.62,-45.26 410.77,-35.14 402,-41.08 407.62,-45.26"/>
</g>
</g>
</svg>
