<?xml version="1.0" encoding="UTF-8" standalone="no"?>
<!DOCTYPE svg PUBLIC "-//W3C//DTD SVG 1.1//EN"
 "http://www.w3.org/Graphics/SVG/1.1/DTD/svg11.dtd">
<!-- Generated by graphviz version 2.43.0 (0)
 -->
<!-- Title: pastafarianism Pages: 1 -->
<svg width="422pt" height="260pt"
 viewBox="0.00 0.00 421.79 260.00" xmlns="http://www.w3.org/2000/svg" xmlns:xlink="http://www.w3.org/1999/xlink">
<g id="graph0" class="graph" transform="scale(1 1) rotate(0) translate(4 256)">
<title>pastafarianism</title>
<polygon fill="white" stroke="transparent" points="-4,4 -4,-256 417.79,-256 417.79,4 -4,4"/>
<!-- Fallback -->
<g id="node1" class="node">
<title>Fallback</title>
<polygon fill="cyan" stroke="black" points="224.31,-226.54 224.31,-241.46 207.18,-252 182.95,-252 165.82,-241.46 165.82,-226.54 182.95,-216 207.18,-216 224.31,-226.54"/>
<text text-anchor="middle" x="195.06" y="-231.8" font-family="Times,serif" font-size="9.00">Fallback</text>
</g>
<!-- ReachGoal? -->
<g id="node2" class="node">
<title>ReachGoal?</title>
<ellipse fill="gray" stroke="black" cx="34.06" cy="-162" rx="34.13" ry="18"/>
<text text-anchor="middle" x="34.06" y="-159.8" font-family="Times,serif" font-size="9.00">ReachGoal?</text>
</g>
<!-- Fallback&#45;&gt;ReachGoal? -->
<g id="edge1" class="edge">
<title>Fallback&#45;&gt;ReachGoal?</title>
<path fill="none" stroke="black" d="M171.65,-222.82C144.62,-211.07 99.9,-191.62 68.81,-178.11"/>
<polygon fill="black" stroke="black" points="70.2,-174.89 59.63,-174.12 67.41,-181.31 70.2,-174.89"/>
</g>
<!-- Sequence -->
<g id="node3" class="node">
<title>Sequence</title>
<polygon fill="cyan" stroke="black" points="148.56,-154.54 148.56,-169.46 130.11,-180 104.02,-180 85.57,-169.46 85.57,-154.54 104.02,-144 130.11,-144 148.56,-154.54"/>
<text text-anchor="middle" x="117.06" y="-159.8" font-family="Times,serif" font-size="9.00">Sequence</text>
</g>
<!-- Fallback&#45;&gt;Sequence -->
<g id="edge2" class="edge">
<title>Fallback&#45;&gt;Sequence</title>
<path fill="none" stroke="black" d="M178.52,-218.15C167.74,-208.48 153.48,-195.68 141.41,-184.85"/>
<polygon fill="black" stroke="black" points="143.63,-182.14 133.85,-178.07 138.96,-187.35 143.63,-182.14"/>
</g>
<!-- MoveTo! -->
<g id="node6" class="node">
<title>MoveTo!</title>
<ellipse fill="gray" stroke="black" cx="195.06" cy="-162" rx="28.74" ry="18"/>
<text text-anchor="middle" x="195.06" y="-159.8" font-family="Times,serif" font-size="9.00">MoveTo!</text>
</g>
<!-- Fallback&#45;&gt;MoveTo! -->
<g id="edge5" class="edge">
<title>Fallback&#45;&gt;MoveTo!</title>
<path fill="none" stroke="black" d="M195.06,-215.7C195.06,-207.98 195.06,-198.71 195.06,-190.11"/>
<polygon fill="black" stroke="black" points="198.56,-190.1 195.06,-180.1 191.56,-190.1 198.56,-190.1"/>
</g>
<!-- Sequence* -->
<g id="node7" class="node">
<title>Sequence*</title>
<polygon fill="cyan" stroke="black" points="310.31,-154.54 310.31,-169.46 290.25,-180 261.88,-180 241.82,-169.46 241.82,-154.54 261.88,-144 290.25,-144 310.31,-154.54"/>
<text text-anchor="middle" x="276.06" y="-159.8" font-family="Times,serif" font-size="9.00">Sequence*</text>
</g>
<!-- Fallback&#45;&gt;Sequence* -->
<g id="edge6" class="edge">
<title>Fallback&#45;&gt;Sequence*</title>
<path fill="none" stroke="black" d="M211.85,-218.5C223.02,-208.84 237.92,-195.97 250.55,-185.05"/>
<polygon fill="black" stroke="black" points="253.18,-187.4 258.46,-178.21 248.61,-182.1 253.18,-187.4"/>
</g>
<!-- CompLkGraph! -->
<g id="node12" class="node">
<title>CompLkGraph!</title>
<ellipse fill="gray" stroke="black" cx="371.06" cy="-162" rx="42.95" ry="18"/>
<text text-anchor="middle" x="371.06" y="-159.8" font-family="Times,serif" font-size="9.00">CompLkGraph!</text>
</g>
<!-- Fallback&#45;&gt;CompLkGraph! -->
<g id="edge11" class="edge">
<title>Fallback&#45;&gt;CompLkGraph!</title>
<path fill="none" stroke="black" d="M219.54,-223.27C248.42,-211.78 296.86,-192.51 331.19,-178.86"/>
<polygon fill="black" stroke="black" points="332.91,-181.94 340.91,-174.99 330.32,-175.44 332.91,-181.94"/>
</g>
<!-- LkClose? -->
<g id="node4" class="node">
<title>LkClose?</title>
<ellipse fill="gray" stroke="black" cx="80.06" cy="-90" rx="28.74" ry="18"/>
<text text-anchor="middle" x="80.06" y="-87.8" font-family="Times,serif" font-size="9.00">LkClose?</text>
</g>
<!-- Sequence&#45;&gt;LkClose? -->
<g id="edge3" class="edge">
<title>Sequence&#45;&gt;LkClose?</title>
<path fill="none" stroke="black" d="M107.92,-143.7C103.6,-135.52 98.35,-125.6 93.59,-116.58"/>
<polygon fill="black" stroke="black" points="96.62,-114.83 88.85,-107.62 90.43,-118.1 96.62,-114.83"/>
</g>
<!-- GetLk! -->
<g id="node5" class="node">
<title>GetLk!</title>
<ellipse fill="gray" stroke="black" cx="154.06" cy="-90" rx="27" ry="18"/>
<text text-anchor="middle" x="154.06" y="-87.8" font-family="Times,serif" font-size="9.00">GetLk!</text>
</g>
<!-- Sequence&#45;&gt;GetLk! -->
<g id="edge4" class="edge">
<title>Sequence&#45;&gt;GetLk!</title>
<path fill="none" stroke="black" d="M126.21,-143.7C130.59,-135.4 135.93,-125.31 140.75,-116.19"/>
<polygon fill="black" stroke="black" points="143.95,-117.62 145.53,-107.14 137.76,-114.35 143.95,-117.62"/>
</g>
<!-- Fallback* -->
<g id="node8" class="node">
<title>Fallback*</title>
<polygon fill="cyan" stroke="black" points="262.81,-82.54 262.81,-97.46 244.21,-108 217.92,-108 199.32,-97.46 199.32,-82.54 217.92,-72 244.21,-72 262.81,-82.54"/>
<text text-anchor="middle" x="231.06" y="-87.8" font-family="Times,serif" font-size="9.00">Fallback*</text>
</g>
<!-- Sequence*&#45;&gt;Fallback* -->
<g id="edge7" class="edge">
<title>Sequence*&#45;&gt;Fallback*</title>
<path fill="none" stroke="black" d="M264.94,-143.7C259.71,-135.56 253.36,-125.69 247.59,-116.7"/>
<polygon fill="black" stroke="black" points="250.41,-114.62 242.06,-108.1 244.52,-118.41 250.41,-114.62"/>
</g>
<!-- MoveTo!* -->
<g id="node11" class="node">
<title>MoveTo!*</title>
<ellipse fill="gray" stroke="black" cx="313.06" cy="-90" rx="31.51" ry="18"/>
<text text-anchor="middle" x="313.06" y="-87.8" font-family="Times,serif" font-size="9.00">MoveTo!*</text>
</g>
<!-- Sequence*&#45;&gt;MoveTo!* -->
<g id="edge10" class="edge">
<title>Sequence*&#45;&gt;MoveTo!*</title>
<path fill="none" stroke="black" d="M285.21,-143.7C289.53,-135.52 294.77,-125.6 299.54,-116.58"/>
<polygon fill="black" stroke="black" points="302.7,-118.1 304.28,-107.62 296.51,-114.83 302.7,-118.1"/>
</g>
<!-- NotReadyForSG? -->
<g id="node9" class="node">
<title>NotReadyForSG?</title>
<ellipse fill="gray" stroke="black" cx="180.06" cy="-18" rx="46.53" ry="18"/>
<text text-anchor="middle" x="180.06" y="-15.8" font-family="Times,serif" font-size="9.00">NotReadyForSG?</text>
</g>
<!-- Fallback*&#45;&gt;NotReadyForSG? -->
<g id="edge8" class="edge">
<title>Fallback*&#45;&gt;NotReadyForSG?</title>
<path fill="none" stroke="black" d="M218.46,-71.7C212.31,-63.27 204.82,-52.97 198.08,-43.73"/>
<polygon fill="black" stroke="black" points="200.89,-41.64 192.17,-35.62 195.23,-45.77 200.89,-41.64"/>
</g>
<!-- GetSubGoal! -->
<g id="node10" class="node">
<title>GetSubGoal!</title>
<ellipse fill="gray" stroke="black" cx="282.06" cy="-18" rx="36.9" ry="18"/>
<text text-anchor="middle" x="282.06" y="-15.8" font-family="Times,serif" font-size="9.00">GetSubGoal!</text>
</g>
<!-- Fallback*&#45;&gt;GetSubGoal! -->
<g id="edge9" class="edge">
<title>Fallback*&#45;&gt;GetSubGoal!</title>
<path fill="none" stroke="black" d="M243.67,-71.7C249.9,-63.14 257.53,-52.67 264.34,-43.33"/>
<polygon fill="black" stroke="black" points="267.24,-45.29 270.3,-35.14 261.58,-41.17 267.24,-45.29"/>
</g>
</g>
</svg>
