<?xml version="1.0" encoding="UTF-8" standalone="no"?>
<!DOCTYPE svg PUBLIC "-//W3C//DTD SVG 1.1//EN"
 "http://www.w3.org/Graphics/SVG/1.1/DTD/svg11.dtd">
<!-- Generated by graphviz version 2.43.0 (0)
 -->
<!-- Title: pastafarianism Pages: 1 -->
<svg width="1132pt" height="260pt"
 viewBox="0.00 0.00 1131.82 260.00" xmlns="http://www.w3.org/2000/svg" xmlns:xlink="http://www.w3.org/1999/xlink">
<g id="graph0" class="graph" transform="scale(1 1) rotate(0) translate(4 256)">
<title>pastafarianism</title>
<polygon fill="white" stroke="transparent" points="-4,4 -4,-256 1127.82,-256 1127.82,4 -4,4"/>
<!-- Fallback -->
<g id="node1" class="node">
<title>Fallback</title>
<polygon fill="cyan" stroke="black" points="551.31,-226.54 551.31,-241.46 534.18,-252 509.95,-252 492.82,-241.46 492.82,-226.54 509.95,-216 534.18,-216 551.31,-226.54"/>
<text text-anchor="middle" x="522.06" y="-231.8" font-family="Times,serif" font-size="9.00">Fallback</text>
</g>
<!-- Sequence -->
<g id="node2" class="node">
<title>Sequence</title>
<polygon fill="cyan" stroke="black" points="146.56,-154.54 146.56,-169.46 128.11,-180 102.02,-180 83.57,-169.46 83.57,-154.54 102.02,-144 128.11,-144 146.56,-154.54"/>
<text text-anchor="middle" x="115.06" y="-159.8" font-family="Times,serif" font-size="9.00">Sequence</text>
</g>
<!-- Fallback&#45;&gt;Sequence -->
<g id="edge1" class="edge">
<title>Fallback&#45;&gt;Sequence</title>
<path fill="none" stroke="black" d="M492.79,-227.97C421.57,-215.72 239.02,-184.32 156.58,-170.14"/>
<polygon fill="black" stroke="black" points="157.01,-166.66 146.56,-168.42 155.83,-173.56 157.01,-166.66"/>
</g>
<!-- Sequence* -->
<g id="node5" class="node">
<title>Sequence*</title>
<polygon fill="cyan" stroke="black" points="422.31,-154.54 422.31,-169.46 402.25,-180 373.88,-180 353.82,-169.46 353.82,-154.54 373.88,-144 402.25,-144 422.31,-154.54"/>
<text text-anchor="middle" x="388.06" y="-159.8" font-family="Times,serif" font-size="9.00">Sequence*</text>
</g>
<!-- Fallback&#45;&gt;Sequence* -->
<g id="edge4" class="edge">
<title>Fallback&#45;&gt;Sequence*</title>
<path fill="none" stroke="black" d="M500.53,-221.75C479.02,-210.51 445.65,-193.08 420.84,-180.12"/>
<polygon fill="black" stroke="black" points="422.28,-176.93 411.8,-175.4 419.04,-183.13 422.28,-176.93"/>
</g>
<!-- Sequence** -->
<g id="node14" class="node">
<title>Sequence**</title>
<polygon fill="cyan" stroke="black" points="708.8,-154.54 708.8,-169.46 687.28,-180 656.85,-180 635.32,-169.46 635.32,-154.54 656.85,-144 687.28,-144 708.8,-154.54"/>
<text text-anchor="middle" x="672.06" y="-159.8" font-family="Times,serif" font-size="9.00">Sequence**</text>
</g>
<!-- Fallback&#45;&gt;Sequence** -->
<g id="edge13" class="edge">
<title>Fallback&#45;&gt;Sequence**</title>
<path fill="none" stroke="black" d="M544.85,-222.37C569.37,-210.93 608.67,-192.58 637.1,-179.31"/>
<polygon fill="black" stroke="black" points="638.71,-182.43 646.3,-175.03 635.75,-176.08 638.71,-182.43"/>
</g>
<!-- CompLkGraph!* -->
<g id="node24" class="node">
<title>CompLkGraph!*</title>
<ellipse fill="gray" stroke="black" cx="772.06" cy="-162" rx="45.07" ry="18"/>
<text text-anchor="middle" x="772.06" y="-159.8" font-family="Times,serif" font-size="9.00">CompLkGraph!*</text>
</g>
<!-- Fallback&#45;&gt;CompLkGraph!* -->
<g id="edge23" class="edge">
<title>Fallback&#45;&gt;CompLkGraph!*</title>
<path fill="none" stroke="black" d="M550.4,-225.73C588.61,-215.83 658.69,-197.37 718.06,-180 721.42,-179.02 724.89,-177.98 728.37,-176.92"/>
<polygon fill="black" stroke="black" points="729.61,-180.2 738.14,-173.91 727.55,-173.51 729.61,-180.2"/>
</g>
<!-- ReachGoal? -->
<g id="node3" class="node">
<title>ReachGoal?</title>
<ellipse fill="gray" stroke="black" cx="34.06" cy="-90" rx="34.13" ry="18"/>
<text text-anchor="middle" x="34.06" y="-87.8" font-family="Times,serif" font-size="9.00">ReachGoal?</text>
</g>
<!-- Sequence&#45;&gt;ReachGoal? -->
<g id="edge2" class="edge">
<title>Sequence&#45;&gt;ReachGoal?</title>
<path fill="none" stroke="black" d="M97.89,-146.15C86.61,-136.41 71.67,-123.5 59.09,-112.63"/>
<polygon fill="black" stroke="black" points="61.07,-109.71 51.22,-105.82 56.49,-115.01 61.07,-109.71"/>
</g>
<!-- MoveTo! -->
<g id="node4" class="node">
<title>MoveTo!</title>
<ellipse fill="gray" stroke="black" cx="115.06" cy="-90" rx="28.74" ry="18"/>
<text text-anchor="middle" x="115.06" y="-87.8" font-family="Times,serif" font-size="9.00">MoveTo!</text>
</g>
<!-- Sequence&#45;&gt;MoveTo! -->
<g id="edge3" class="edge">
<title>Sequence&#45;&gt;MoveTo!</title>
<path fill="none" stroke="black" d="M115.06,-143.7C115.06,-135.98 115.06,-126.71 115.06,-118.11"/>
<polygon fill="black" stroke="black" points="118.56,-118.1 115.06,-108.1 111.56,-118.1 118.56,-118.1"/>
</g>
<!-- LkClose? -->
<g id="node6" class="node">
<title>LkClose?</title>
<ellipse fill="gray" stroke="black" cx="191.06" cy="-90" rx="28.74" ry="18"/>
<text text-anchor="middle" x="191.06" y="-87.8" font-family="Times,serif" font-size="9.00">LkClose?</text>
</g>
<!-- Sequence*&#45;&gt;LkClose? -->
<g id="edge5" class="edge">
<title>Sequence*&#45;&gt;LkClose?</title>
<path fill="none" stroke="black" d="M358.45,-152.09C326.28,-142.19 273.53,-125.31 229.06,-108 226.98,-107.19 224.85,-106.33 222.71,-105.44"/>
<polygon fill="black" stroke="black" points="223.98,-102.18 213.41,-101.44 221.22,-108.61 223.98,-102.18"/>
</g>
<!-- GetLk! -->
<g id="node7" class="node">
<title>GetLk!</title>
<ellipse fill="gray" stroke="black" cx="265.06" cy="-90" rx="27" ry="18"/>
<text text-anchor="middle" x="265.06" y="-87.8" font-family="Times,serif" font-size="9.00">GetLk!</text>
</g>
<!-- Sequence*&#45;&gt;GetLk! -->
<g id="edge6" class="edge">
<title>Sequence*&#45;&gt;GetLk!</title>
<path fill="none" stroke="black" d="M365.5,-148.16C345.36,-136.7 315.74,-119.84 293.88,-107.4"/>
<polygon fill="black" stroke="black" points="295.46,-104.27 285.04,-102.37 292,-110.36 295.46,-104.27"/>
</g>
<!-- LkClose?* -->
<g id="node8" class="node">
<title>LkClose?*</title>
<ellipse fill="gray" stroke="black" cx="342.06" cy="-90" rx="31.51" ry="18"/>
<text text-anchor="middle" x="342.06" y="-87.8" font-family="Times,serif" font-size="9.00">LkClose?*</text>
</g>
<!-- Sequence*&#45;&gt;LkClose?* -->
<g id="edge7" class="edge">
<title>Sequence*&#45;&gt;LkClose?*</title>
<path fill="none" stroke="black" d="M376.69,-143.7C371.13,-135.23 364.33,-124.89 358.24,-115.61"/>
<polygon fill="black" stroke="black" points="361.09,-113.58 352.67,-107.14 355.24,-117.42 361.09,-113.58"/>
</g>
<!-- CompLkGraph! -->
<g id="node9" class="node">
<title>CompLkGraph!</title>
<ellipse fill="gray" stroke="black" cx="434.06" cy="-90" rx="42.95" ry="18"/>
<text text-anchor="middle" x="434.06" y="-87.8" font-family="Times,serif" font-size="9.00">CompLkGraph!</text>
</g>
<!-- Sequence*&#45;&gt;CompLkGraph! -->
<g id="edge8" class="edge">
<title>Sequence*&#45;&gt;CompLkGraph!</title>
<path fill="none" stroke="black" d="M399.43,-143.7C404.92,-135.35 411.6,-125.18 417.62,-116.02"/>
<polygon fill="black" stroke="black" points="420.57,-117.9 423.14,-107.62 414.72,-114.06 420.57,-117.9"/>
</g>
<!-- Fallback* -->
<g id="node10" class="node">
<title>Fallback*</title>
<polygon fill="cyan" stroke="black" points="558.81,-82.54 558.81,-97.46 540.21,-108 513.92,-108 495.32,-97.46 495.32,-82.54 513.92,-72 540.21,-72 558.81,-82.54"/>
<text text-anchor="middle" x="527.06" y="-87.8" font-family="Times,serif" font-size="9.00">Fallback*</text>
</g>
<!-- Sequence*&#45;&gt;Fallback* -->
<g id="edge9" class="edge">
<title>Sequence*&#45;&gt;Fallback*</title>
<path fill="none" stroke="black" d="M411.96,-148.97C434.81,-137.46 469.44,-120.02 494.74,-107.28"/>
<polygon fill="black" stroke="black" points="496.59,-110.27 503.94,-102.64 493.44,-104.02 496.59,-110.27"/>
</g>
<!-- NotReadyForSG? -->
<g id="node11" class="node">
<title>NotReadyForSG?</title>
<ellipse fill="gray" stroke="black" cx="339.06" cy="-18" rx="46.53" ry="18"/>
<text text-anchor="middle" x="339.06" y="-15.8" font-family="Times,serif" font-size="9.00">NotReadyForSG?</text>
</g>
<!-- Fallback*&#45;&gt;NotReadyForSG? -->
<g id="edge10" class="edge">
<title>Fallback*&#45;&gt;NotReadyForSG?</title>
<path fill="none" stroke="black" d="M501.99,-78.38C496.74,-76.23 491.24,-74 486.06,-72 451.4,-58.57 411.74,-44.34 382.35,-34"/>
<polygon fill="black" stroke="black" points="383.4,-30.66 372.8,-30.66 381.08,-37.27 383.4,-30.66"/>
</g>
<!-- GetSubGoal! -->
<g id="node12" class="node">
<title>GetSubGoal!</title>
<ellipse fill="gray" stroke="black" cx="441.06" cy="-18" rx="36.9" ry="18"/>
<text text-anchor="middle" x="441.06" y="-15.8" font-family="Times,serif" font-size="9.00">GetSubGoal!</text>
</g>
<!-- Fallback*&#45;&gt;GetSubGoal! -->
<g id="edge11" class="edge">
<title>Fallback*&#45;&gt;GetSubGoal!</title>
<path fill="none" stroke="black" d="M509.24,-74.5C497.1,-64.61 480.83,-51.36 467.22,-40.29"/>
<polygon fill="black" stroke="black" points="469.12,-37.32 459.16,-33.73 464.7,-42.75 469.12,-37.32"/>
</g>
<!-- LkGraph? -->
<g id="node13" class="node">
<title>LkGraph?</title>
<ellipse fill="gray" stroke="black" cx="527.06" cy="-18" rx="30.7" ry="18"/>
<text text-anchor="middle" x="527.06" y="-15.8" font-family="Times,serif" font-size="9.00">LkGraph?</text>
</g>
<!-- Fallback*&#45;&gt;LkGraph? -->
<g id="edge12" class="edge">
<title>Fallback*&#45;&gt;LkGraph?</title>
<path fill="none" stroke="black" d="M527.06,-71.7C527.06,-63.98 527.06,-54.71 527.06,-46.11"/>
<polygon fill="black" stroke="black" points="530.56,-46.1 527.06,-36.1 523.56,-46.1 530.56,-46.1"/>
</g>
<!-- LkGraph?* -->
<g id="node15" class="node">
<title>LkGraph?*</title>
<ellipse fill="gray" stroke="black" cx="672.06" cy="-90" rx="32.82" ry="18"/>
<text text-anchor="middle" x="672.06" y="-87.8" font-family="Times,serif" font-size="9.00">LkGraph?*</text>
</g>
<!-- Sequence**&#45;&gt;LkGraph?* -->
<g id="edge14" class="edge">
<title>Sequence**&#45;&gt;LkGraph?*</title>
<path fill="none" stroke="black" d="M672.06,-143.7C672.06,-135.98 672.06,-126.71 672.06,-118.11"/>
<polygon fill="black" stroke="black" points="675.56,-118.1 672.06,-108.1 668.56,-118.1 675.56,-118.1"/>
</g>
<!-- Fallback** -->
<g id="node16" class="node">
<title>Fallback**</title>
<polygon fill="cyan" stroke="black" points="824.05,-82.54 824.05,-97.46 803.56,-108 774.57,-108 754.07,-97.46 754.07,-82.54 774.57,-72 803.56,-72 824.05,-82.54"/>
<text text-anchor="middle" x="789.06" y="-87.8" font-family="Times,serif" font-size="9.00">Fallback**</text>
</g>
<!-- Sequence**&#45;&gt;Fallback** -->
<g id="edge15" class="edge">
<title>Sequence**&#45;&gt;Fallback**</title>
<path fill="none" stroke="black" d="M694.62,-147.5C712.7,-136.69 738.27,-121.39 758.24,-109.44"/>
<polygon fill="black" stroke="black" points="760.19,-112.36 766.97,-104.22 756.59,-106.35 760.19,-112.36"/>
</g>
<!-- MoveTo!** -->
<g id="node23" class="node">
<title>MoveTo!**</title>
<ellipse fill="gray" stroke="black" cx="876.06" cy="-90" rx="34.13" ry="18"/>
<text text-anchor="middle" x="876.06" y="-87.8" font-family="Times,serif" font-size="9.00">MoveTo!**</text>
</g>
<!-- Sequence**&#45;&gt;MoveTo!** -->
<g id="edge22" class="edge">
<title>Sequence**&#45;&gt;MoveTo!**</title>
<path fill="none" stroke="black" d="M700.69,-150.16C706.43,-148.07 712.42,-145.92 718.06,-144 768.75,-126.71 782.57,-125.86 833.06,-108 835.45,-107.16 837.9,-106.26 840.36,-105.35"/>
<polygon fill="black" stroke="black" points="841.71,-108.58 849.8,-101.74 839.21,-102.04 841.71,-108.58"/>
</g>
<!-- ReachGoal?* -->
<g id="node17" class="node">
<title>ReachGoal?*</title>
<ellipse fill="gray" stroke="black" cx="613.06" cy="-18" rx="36.9" ry="18"/>
<text text-anchor="middle" x="613.06" y="-15.8" font-family="Times,serif" font-size="9.00">ReachGoal?*</text>
</g>
<!-- Fallback**&#45;&gt;ReachGoal?* -->
<g id="edge16" class="edge">
<title>Fallback**&#45;&gt;ReachGoal?*</title>
<path fill="none" stroke="black" d="M761.95,-78.22C732.02,-66.31 683.67,-47.08 650.23,-33.78"/>
<polygon fill="black" stroke="black" points="651.38,-30.47 640.79,-30.03 648.79,-36.98 651.38,-30.47"/>
</g>
<!-- NotReadyForSG?* -->
<g id="node18" class="node">
<title>NotReadyForSG?*</title>
<ellipse fill="gray" stroke="black" cx="718.06" cy="-18" rx="49.8" ry="18"/>
<text text-anchor="middle" x="718.06" y="-15.8" font-family="Times,serif" font-size="9.00">NotReadyForSG?*</text>
</g>
<!-- Fallback**&#45;&gt;NotReadyForSG?* -->
<g id="edge17" class="edge">
<title>Fallback**&#45;&gt;NotReadyForSG?*</title>
<path fill="none" stroke="black" d="M772.6,-72.76C763.46,-63.75 751.93,-52.39 741.82,-42.43"/>
<polygon fill="black" stroke="black" points="744.02,-39.68 734.44,-35.15 739.11,-44.66 744.02,-39.68"/>
</g>
<!-- LkClose?** -->
<g id="node19" class="node">
<title>LkClose?**</title>
<ellipse fill="gray" stroke="black" cx="820.06" cy="-18" rx="34.13" ry="18"/>
<text text-anchor="middle" x="820.06" y="-15.8" font-family="Times,serif" font-size="9.00">LkClose?**</text>
</g>
<!-- Fallback**&#45;&gt;LkClose?** -->
<g id="edge18" class="edge">
<title>Fallback**&#45;&gt;LkClose?**</title>
<path fill="none" stroke="black" d="M796.73,-71.7C800.31,-63.61 804.65,-53.81 808.61,-44.87"/>
<polygon fill="black" stroke="black" points="811.85,-46.18 812.7,-35.62 805.45,-43.35 811.85,-46.18"/>
</g>
<!-- GetSubGoal!* -->
<g id="node20" class="node">
<title>GetSubGoal!*</title>
<ellipse fill="gray" stroke="black" cx="911.06" cy="-18" rx="39.02" ry="18"/>
<text text-anchor="middle" x="911.06" y="-15.8" font-family="Times,serif" font-size="9.00">GetSubGoal!*</text>
</g>
<!-- Fallback**&#45;&gt;GetSubGoal!* -->
<g id="edge19" class="edge">
<title>Fallback**&#45;&gt;GetSubGoal!*</title>
<path fill="none" stroke="black" d="M811.73,-76C830.45,-65.25 857.29,-49.85 878.35,-37.77"/>
<polygon fill="black" stroke="black" points="880.34,-40.66 887.27,-32.65 876.86,-34.59 880.34,-40.66"/>
</g>
<!-- LkClose?*** -->
<g id="node21" class="node">
<title>LkClose?***</title>
<ellipse fill="gray" stroke="black" cx="1005.06" cy="-18" rx="36.9" ry="18"/>
<text text-anchor="middle" x="1005.06" y="-15.8" font-family="Times,serif" font-size="9.00">LkClose?***</text>
</g>
<!-- Fallback**&#45;&gt;LkClose?*** -->
<g id="edge20" class="edge">
<title>Fallback**&#45;&gt;LkClose?***</title>
<path fill="none" stroke="black" d="M815.92,-78.18C821.55,-76.04 827.47,-73.87 833.06,-72 888.28,-53.49 903.71,-54.11 959.06,-36 961.79,-35.11 964.61,-34.15 967.43,-33.17"/>
<polygon fill="black" stroke="black" points="968.72,-36.43 976.96,-29.77 966.37,-29.83 968.72,-36.43"/>
</g>
<!-- MoveTo!* -->
<g id="node22" class="node">
<title>MoveTo!*</title>
<ellipse fill="gray" stroke="black" cx="1092.06" cy="-18" rx="31.51" ry="18"/>
<text text-anchor="middle" x="1092.06" y="-15.8" font-family="Times,serif" font-size="9.00">MoveTo!*</text>
</g>
<!-- Fallback**&#45;&gt;MoveTo!* -->
<g id="edge21" class="edge">
<title>Fallback**&#45;&gt;MoveTo!*</title>
<path fill="none" stroke="black" d="M815.29,-77.86C821.07,-75.69 827.22,-73.59 833.06,-72 927.81,-46.17 956.64,-62.98 1051.06,-36 1053.53,-35.3 1056.04,-34.49 1058.55,-33.62"/>
<polygon fill="black" stroke="black" points="1059.99,-36.81 1068.11,-30.01 1057.52,-30.27 1059.99,-36.81"/>
</g>
</g>
</svg>
