<?xml version="1.0" encoding="UTF-8" standalone="no"?>
<!DOCTYPE svg PUBLIC "-//W3C//DTD SVG 1.1//EN"
 "http://www.w3.org/Graphics/SVG/1.1/DTD/svg11.dtd">
<!-- Generated by graphviz version 2.43.0 (0)
 -->
<!-- Title: pastafarianism Pages: 1 -->
<svg width="289pt" height="188pt"
 viewBox="0.00 0.00 288.51 188.00" xmlns="http://www.w3.org/2000/svg" xmlns:xlink="http://www.w3.org/1999/xlink">
<g id="graph0" class="graph" transform="scale(1 1) rotate(0) translate(4 184)">
<title>pastafarianism</title>
<polygon fill="white" stroke="transparent" points="-4,4 -4,-184 284.51,-184 284.51,4 -4,4"/>
<!-- Fallback -->
<g id="node1" class="node">
<title>Fallback</title>
<polygon fill="cyan" stroke="black" points="141.56,-154.54 141.56,-169.46 124.43,-180 100.2,-180 83.07,-169.46 83.07,-154.54 100.2,-144 124.43,-144 141.56,-154.54"/>
<text text-anchor="middle" x="112.31" y="-159.8" font-family="Times,serif" font-size="9.00">Fallback</text>
</g>
<!-- place at (0.0, 0.05, 0.0)! -->
<g id="node2" class="node">
<title>place at (0.0, 0.05, 0.0)!</title>
<ellipse fill="gray" stroke="black" cx="58.31" cy="-90" rx="58.13" ry="18"/>
<text text-anchor="middle" x="58.31" y="-87.8" font-family="Times,serif" font-size="9.00">place at (0.0, 0.05, 0.0)!</text>
</g>
<!-- Fallback&#45;&gt;place at (0.0, 0.05, 0.0)! -->
<g id="edge1" class="edge">
<title>Fallback&#45;&gt;place at (0.0, 0.05, 0.0)!</title>
<path fill="none" stroke="black" d="M99.52,-144.41C92.95,-135.91 84.83,-125.37 77.53,-115.91"/>
<polygon fill="black" stroke="black" points="80.27,-113.74 71.39,-107.96 74.73,-118.01 80.27,-113.74"/>
</g>
<!-- Sequence -->
<g id="node3" class="node">
<title>Sequence</title>
<polygon fill="cyan" stroke="black" points="197.81,-82.54 197.81,-97.46 179.36,-108 153.27,-108 134.82,-97.46 134.82,-82.54 153.27,-72 179.36,-72 197.81,-82.54"/>
<text text-anchor="middle" x="166.31" y="-87.8" font-family="Times,serif" font-size="9.00">Sequence</text>
</g>
<!-- Fallback&#45;&gt;Sequence -->
<g id="edge2" class="edge">
<title>Fallback&#45;&gt;Sequence</title>
<path fill="none" stroke="black" d="M125.11,-144.41C131.51,-136.12 139.4,-125.89 146.55,-116.62"/>
<polygon fill="black" stroke="black" points="149.52,-118.5 152.85,-108.45 143.97,-114.23 149.52,-118.5"/>
</g>
<!-- pick 0! -->
<g id="node4" class="node">
<title>pick 0!</title>
<ellipse fill="gray" stroke="black" cx="113.31" cy="-18" rx="27" ry="18"/>
<text text-anchor="middle" x="113.31" y="-15.8" font-family="Times,serif" font-size="9.00">pick 0!</text>
</g>
<!-- Sequence&#45;&gt;pick 0! -->
<g id="edge3" class="edge">
<title>Sequence&#45;&gt;pick 0!</title>
<path fill="none" stroke="black" d="M153.21,-71.7C146.64,-63.02 138.58,-52.37 131.42,-42.92"/>
<polygon fill="black" stroke="black" points="134,-40.53 125.18,-34.67 128.42,-44.76 134,-40.53"/>
</g>
<!-- place at (0.0, 0.05, 0.0)!* -->
<g id="node5" class="node">
<title>place at (0.0, 0.05, 0.0)!*</title>
<ellipse fill="gray" stroke="black" cx="219.31" cy="-18" rx="61.4" ry="18"/>
<text text-anchor="middle" x="219.31" y="-15.8" font-family="Times,serif" font-size="9.00">place at (0.0, 0.05, 0.0)!*</text>
</g>
<!-- Sequence&#45;&gt;place at (0.0, 0.05, 0.0)!* -->
<g id="edge4" class="edge">
<title>Sequence&#45;&gt;place at (0.0, 0.05, 0.0)!*</title>
<path fill="none" stroke="black" d="M179.41,-71.7C185.8,-63.27 193.59,-52.97 200.59,-43.73"/>
<polygon fill="black" stroke="black" points="203.48,-45.71 206.73,-35.62 197.9,-41.48 203.48,-45.71"/>
</g>
</g>
</svg>
