<?xml version="1.0" encoding="UTF-8" standalone="no"?>
<!DOCTYPE svg PUBLIC "-//W3C//DTD SVG 1.1//EN"
 "http://www.w3.org/Graphics/SVG/1.1/DTD/svg11.dtd">
<!-- Generated by graphviz version 2.43.0 (0)
 -->
<!-- Title: pastafarianism Pages: 1 -->
<svg width="1294pt" height="548pt"
 viewBox="0.00 0.00 1293.69 548.00" xmlns="http://www.w3.org/2000/svg" xmlns:xlink="http://www.w3.org/1999/xlink">
<g id="graph0" class="graph" transform="scale(1 1) rotate(0) translate(4 544)">
<title>pastafarianism</title>
<polygon fill="white" stroke="transparent" points="-4,4 -4,-544 1289.69,-544 1289.69,4 -4,4"/>
<!-- Fallback -->
<g id="node1" class="node">
<title>Fallback</title>
<polygon fill="cyan" stroke="black" points="479.2,-514.54 479.2,-529.46 462.07,-540 437.85,-540 420.72,-529.46 420.72,-514.54 437.85,-504 462.07,-504 479.2,-514.54"/>
<text text-anchor="middle" x="449.96" y="-519.8" font-family="Times,serif" font-size="9.00">Fallback</text>
</g>
<!-- ReachGoal? -->
<g id="node2" class="node">
<title>ReachGoal?</title>
<ellipse fill="gray" stroke="black" cx="326.96" cy="-450" rx="34.13" ry="18"/>
<text text-anchor="middle" x="326.96" y="-447.8" font-family="Times,serif" font-size="9.00">ReachGoal?</text>
</g>
<!-- Fallback&#45;&gt;ReachGoal? -->
<g id="edge1" class="edge">
<title>Fallback&#45;&gt;ReachGoal?</title>
<path fill="none" stroke="black" d="M429.1,-509.13C409.7,-498.09 380.54,-481.49 358.34,-468.86"/>
<polygon fill="black" stroke="black" points="360.02,-465.79 349.6,-463.88 356.56,-471.87 360.02,-465.79"/>
</g>
<!-- LkClose? -->
<g id="node3" class="node">
<title>LkClose?</title>
<ellipse fill="gray" stroke="black" cx="407.96" cy="-450" rx="28.74" ry="18"/>
<text text-anchor="middle" x="407.96" y="-447.8" font-family="Times,serif" font-size="9.00">LkClose?</text>
</g>
<!-- Fallback&#45;&gt;LkClose? -->
<g id="edge2" class="edge">
<title>Fallback&#45;&gt;LkClose?</title>
<path fill="none" stroke="black" d="M439.58,-503.7C434.55,-495.32 428.42,-485.1 422.9,-475.9"/>
<polygon fill="black" stroke="black" points="425.79,-473.92 417.65,-467.14 419.79,-477.52 425.79,-473.92"/>
</g>
<!-- ReachGoal?* -->
<g id="node4" class="node">
<title>ReachGoal?*</title>
<ellipse fill="gray" stroke="black" cx="491.96" cy="-450" rx="36.9" ry="18"/>
<text text-anchor="middle" x="491.96" y="-447.8" font-family="Times,serif" font-size="9.00">ReachGoal?*</text>
</g>
<!-- Fallback&#45;&gt;ReachGoal?* -->
<g id="edge3" class="edge">
<title>Fallback&#45;&gt;ReachGoal?*</title>
<path fill="none" stroke="black" d="M460.34,-503.7C465.3,-495.44 471.33,-485.39 476.78,-476.3"/>
<polygon fill="black" stroke="black" points="479.84,-478 481.99,-467.62 473.84,-474.4 479.84,-478"/>
</g>
<!-- Sequence -->
<g id="node5" class="node">
<title>Sequence</title>
<polygon fill="cyan" stroke="black" points="609.46,-442.54 609.46,-457.46 591.01,-468 564.92,-468 546.47,-457.46 546.47,-442.54 564.92,-432 591.01,-432 609.46,-442.54"/>
<text text-anchor="middle" x="577.96" y="-447.8" font-family="Times,serif" font-size="9.00">Sequence</text>
</g>
<!-- Fallback&#45;&gt;Sequence -->
<g id="edge4" class="edge">
<title>Fallback&#45;&gt;Sequence</title>
<path fill="none" stroke="black" d="M471.1,-509.44C491.78,-498.13 523.53,-480.77 547.05,-467.91"/>
<polygon fill="black" stroke="black" points="548.84,-470.91 555.93,-463.05 545.48,-464.77 548.84,-470.91"/>
</g>
<!-- Fallback* -->
<g id="node6" class="node">
<title>Fallback*</title>
<polygon fill="cyan" stroke="black" points="525.7,-370.54 525.7,-385.46 507.11,-396 480.81,-396 462.22,-385.46 462.22,-370.54 480.81,-360 507.11,-360 525.7,-370.54"/>
<text text-anchor="middle" x="493.96" y="-375.8" font-family="Times,serif" font-size="9.00">Fallback*</text>
</g>
<!-- Sequence&#45;&gt;Fallback* -->
<g id="edge5" class="edge">
<title>Sequence&#45;&gt;Fallback*</title>
<path fill="none" stroke="black" d="M560.15,-434.15C548.26,-424.25 532.46,-411.08 519.27,-400.09"/>
<polygon fill="black" stroke="black" points="521.38,-397.3 511.46,-393.58 516.9,-402.67 521.38,-397.3"/>
</g>
<!-- MoveTo!** -->
<g id="node45" class="node">
<title>MoveTo!**</title>
<ellipse fill="gray" stroke="black" cx="577.96" cy="-378" rx="34.13" ry="18"/>
<text text-anchor="middle" x="577.96" y="-375.8" font-family="Times,serif" font-size="9.00">MoveTo!**</text>
</g>
<!-- Sequence&#45;&gt;MoveTo!** -->
<g id="edge44" class="edge">
<title>Sequence&#45;&gt;MoveTo!**</title>
<path fill="none" stroke="black" d="M577.96,-431.7C577.96,-423.98 577.96,-414.71 577.96,-406.11"/>
<polygon fill="black" stroke="black" points="581.46,-406.1 577.96,-396.1 574.46,-406.1 581.46,-406.1"/>
</g>
<!-- ReachGoal?******** -->
<g id="node46" class="node">
<title>ReachGoal?********</title>
<ellipse fill="gray" stroke="black" cx="684.96" cy="-378" rx="54.7" ry="18"/>
<text text-anchor="middle" x="684.96" y="-375.8" font-family="Times,serif" font-size="9.00">ReachGoal?********</text>
</g>
<!-- Sequence&#45;&gt;ReachGoal?******** -->
<g id="edge45" class="edge">
<title>Sequence&#45;&gt;ReachGoal?********</title>
<path fill="none" stroke="black" d="M598.09,-435.83C613.59,-425.69 635.32,-411.48 653.17,-399.8"/>
<polygon fill="black" stroke="black" points="655.12,-402.7 661.57,-394.3 651.29,-396.85 655.12,-402.7"/>
</g>
<!-- NotReadyForSG? -->
<g id="node7" class="node">
<title>NotReadyForSG?</title>
<ellipse fill="gray" stroke="black" cx="198.96" cy="-306" rx="46.53" ry="18"/>
<text text-anchor="middle" x="198.96" y="-303.8" font-family="Times,serif" font-size="9.00">NotReadyForSG?</text>
</g>
<!-- Fallback*&#45;&gt;NotReadyForSG? -->
<g id="edge6" class="edge">
<title>Fallback*&#45;&gt;NotReadyForSG?</title>
<path fill="none" stroke="black" d="M461.93,-370.8C415.72,-361.66 327.8,-343.53 253.96,-324 250.57,-323.1 247.08,-322.13 243.58,-321.13"/>
<polygon fill="black" stroke="black" points="244.33,-317.7 233.75,-318.23 242.35,-324.42 244.33,-317.7"/>
</g>
<!-- LkGraph? -->
<g id="node8" class="node">
<title>LkGraph?</title>
<ellipse fill="gray" stroke="black" cx="293.96" cy="-306" rx="30.7" ry="18"/>
<text text-anchor="middle" x="293.96" y="-303.8" font-family="Times,serif" font-size="9.00">LkGraph?</text>
</g>
<!-- Fallback*&#45;&gt;LkGraph? -->
<g id="edge7" class="edge">
<title>Fallback*&#45;&gt;LkGraph?</title>
<path fill="none" stroke="black" d="M465.47,-368.5C433.07,-358.63 378.74,-341.47 332.96,-324 331.1,-323.29 329.19,-322.54 327.28,-321.77"/>
<polygon fill="black" stroke="black" points="328.32,-318.41 317.74,-317.78 325.62,-324.87 328.32,-318.41"/>
</g>
<!-- NotReadyForSG?* -->
<g id="node9" class="node">
<title>NotReadyForSG?*</title>
<ellipse fill="gray" stroke="black" cx="391.96" cy="-306" rx="49.8" ry="18"/>
<text text-anchor="middle" x="391.96" y="-303.8" font-family="Times,serif" font-size="9.00">NotReadyForSG?*</text>
</g>
<!-- Fallback*&#45;&gt;NotReadyForSG?* -->
<g id="edge8" class="edge">
<title>Fallback*&#45;&gt;NotReadyForSG?*</title>
<path fill="none" stroke="black" d="M474.29,-363.5C459.6,-353.42 439.25,-339.45 422.46,-327.93"/>
<polygon fill="black" stroke="black" points="424.27,-324.93 414.05,-322.16 420.31,-330.7 424.27,-324.93"/>
</g>
<!-- Sequence* -->
<g id="node10" class="node">
<title>Sequence*</title>
<polygon fill="cyan" stroke="black" points="528.2,-298.54 528.2,-313.46 508.14,-324 479.78,-324 459.72,-313.46 459.72,-298.54 479.78,-288 508.14,-288 528.2,-298.54"/>
<text text-anchor="middle" x="493.96" y="-303.8" font-family="Times,serif" font-size="9.00">Sequence*</text>
</g>
<!-- Fallback*&#45;&gt;Sequence* -->
<g id="edge9" class="edge">
<title>Fallback*&#45;&gt;Sequence*</title>
<path fill="none" stroke="black" d="M493.96,-359.7C493.96,-351.98 493.96,-342.71 493.96,-334.11"/>
<polygon fill="black" stroke="black" points="497.46,-334.1 493.96,-324.1 490.46,-334.1 497.46,-334.1"/>
</g>
<!-- ReachGoal?******* -->
<g id="node42" class="node">
<title>ReachGoal?*******</title>
<ellipse fill="gray" stroke="black" cx="598.96" cy="-306" rx="52.58" ry="18"/>
<text text-anchor="middle" x="598.96" y="-303.8" font-family="Times,serif" font-size="9.00">ReachGoal?*******</text>
</g>
<!-- Fallback*&#45;&gt;ReachGoal?******* -->
<g id="edge41" class="edge">
<title>Fallback*&#45;&gt;ReachGoal?*******</title>
<path fill="none" stroke="black" d="M514.21,-363.5C529.23,-353.49 550,-339.64 567.22,-328.16"/>
<polygon fill="black" stroke="black" points="569.47,-330.86 575.85,-322.41 565.59,-325.04 569.47,-330.86"/>
</g>
<!-- GetSubGoal!*** -->
<g id="node43" class="node">
<title>GetSubGoal!***</title>
<ellipse fill="gray" stroke="black" cx="713.96" cy="-306" rx="44.41" ry="18"/>
<text text-anchor="middle" x="713.96" y="-303.8" font-family="Times,serif" font-size="9.00">GetSubGoal!***</text>
</g>
<!-- Fallback*&#45;&gt;GetSubGoal!*** -->
<g id="edge42" class="edge">
<title>Fallback*&#45;&gt;GetSubGoal!***</title>
<path fill="none" stroke="black" d="M518.5,-366.29C523.88,-364.09 529.58,-361.88 534.96,-360 589.95,-340.81 605.23,-340.9 660.96,-324 664.11,-323.05 667.35,-322.05 670.61,-321.03"/>
<polygon fill="black" stroke="black" points="671.88,-324.3 680.37,-317.95 669.78,-317.62 671.88,-324.3"/>
</g>
<!-- GetSubGoal!**** -->
<g id="node44" class="node">
<title>GetSubGoal!****</title>
<ellipse fill="gray" stroke="black" cx="823.96" cy="-306" rx="47.19" ry="18"/>
<text text-anchor="middle" x="823.96" y="-303.8" font-family="Times,serif" font-size="9.00">GetSubGoal!****</text>
</g>
<!-- Fallback*&#45;&gt;GetSubGoal!**** -->
<g id="edge43" class="edge">
<title>Fallback*&#45;&gt;GetSubGoal!****</title>
<path fill="none" stroke="black" d="M517.9,-365.95C523.42,-363.72 529.32,-361.58 534.96,-360 635.43,-331.82 665.17,-346.96 766.96,-324 770.87,-323.12 774.91,-322.11 778.94,-321.04"/>
<polygon fill="black" stroke="black" points="780.19,-324.33 788.89,-318.27 778.32,-317.58 780.19,-324.33"/>
</g>
<!-- LkClose?* -->
<g id="node11" class="node">
<title>LkClose?*</title>
<ellipse fill="gray" stroke="black" cx="136.96" cy="-234" rx="31.51" ry="18"/>
<text text-anchor="middle" x="136.96" y="-231.8" font-family="Times,serif" font-size="9.00">LkClose?*</text>
</g>
<!-- Sequence*&#45;&gt;LkClose?* -->
<g id="edge10" class="edge">
<title>Sequence*&#45;&gt;LkClose?*</title>
<path fill="none" stroke="black" d="M468.38,-293.7C462.73,-291.54 456.71,-289.49 450.96,-288 332.5,-257.27 296.17,-283.71 177.96,-252 175.49,-251.34 172.96,-250.56 170.45,-249.71"/>
<polygon fill="black" stroke="black" points="171.47,-246.35 160.88,-246.14 169.03,-252.91 171.47,-246.35"/>
</g>
<!-- ReachGoal?** -->
<g id="node12" class="node">
<title>ReachGoal?**</title>
<ellipse fill="gray" stroke="black" cx="225.96" cy="-234" rx="39.02" ry="18"/>
<text text-anchor="middle" x="225.96" y="-231.8" font-family="Times,serif" font-size="9.00">ReachGoal?**</text>
</g>
<!-- Sequence*&#45;&gt;ReachGoal?** -->
<g id="edge11" class="edge">
<title>Sequence*&#45;&gt;ReachGoal?**</title>
<path fill="none" stroke="black" d="M468.3,-294C462.65,-291.82 456.66,-289.69 450.96,-288 374,-265.15 351.32,-273.45 273.96,-252 270.99,-251.18 267.94,-250.26 264.88,-249.3"/>
<polygon fill="black" stroke="black" points="265.79,-245.91 255.2,-246.09 263.59,-252.55 265.79,-245.91"/>
</g>
<!-- Fallback** -->
<g id="node13" class="node">
<title>Fallback**</title>
<polygon fill="cyan" stroke="black" points="352.95,-226.54 352.95,-241.46 332.46,-252 303.47,-252 282.97,-241.46 282.97,-226.54 303.47,-216 332.46,-216 352.95,-226.54"/>
<text text-anchor="middle" x="317.96" y="-231.8" font-family="Times,serif" font-size="9.00">Fallback**</text>
</g>
<!-- Sequence*&#45;&gt;Fallback** -->
<g id="edge12" class="edge">
<title>Sequence*&#45;&gt;Fallback**</title>
<path fill="none" stroke="black" d="M467.23,-294.37C437.12,-282.39 388.02,-262.86 354.41,-249.5"/>
<polygon fill="black" stroke="black" points="355.53,-246.18 344.94,-245.73 352.94,-252.68 355.53,-246.18"/>
</g>
<!-- MoveTo! -->
<g id="node28" class="node">
<title>MoveTo!</title>
<ellipse fill="gray" stroke="black" cx="399.96" cy="-234" rx="28.74" ry="18"/>
<text text-anchor="middle" x="399.96" y="-231.8" font-family="Times,serif" font-size="9.00">MoveTo!</text>
</g>
<!-- Sequence*&#45;&gt;MoveTo! -->
<g id="edge27" class="edge">
<title>Sequence*&#45;&gt;MoveTo!</title>
<path fill="none" stroke="black" d="M474.48,-290.5C460.42,-280.02 441.28,-265.77 425.91,-254.33"/>
<polygon fill="black" stroke="black" points="427.93,-251.47 417.82,-248.3 423.75,-257.08 427.93,-251.47"/>
</g>
<!-- ReachGoal?***** -->
<g id="node29" class="node">
<title>ReachGoal?*****</title>
<ellipse fill="gray" stroke="black" cx="493.96" cy="-234" rx="47.19" ry="18"/>
<text text-anchor="middle" x="493.96" y="-231.8" font-family="Times,serif" font-size="9.00">ReachGoal?*****</text>
</g>
<!-- Sequence*&#45;&gt;ReachGoal?***** -->
<g id="edge28" class="edge">
<title>Sequence*&#45;&gt;ReachGoal?*****</title>
<path fill="none" stroke="black" d="M493.96,-287.7C493.96,-279.98 493.96,-270.71 493.96,-262.11"/>
<polygon fill="black" stroke="black" points="497.46,-262.1 493.96,-252.1 490.46,-262.1 497.46,-262.1"/>
</g>
<!-- LkClose?****** -->
<g id="node30" class="node">
<title>LkClose?******</title>
<ellipse fill="gray" stroke="black" cx="603.96" cy="-234" rx="44.41" ry="18"/>
<text text-anchor="middle" x="603.96" y="-231.8" font-family="Times,serif" font-size="9.00">LkClose?******</text>
</g>
<!-- Sequence*&#45;&gt;LkClose?****** -->
<g id="edge29" class="edge">
<title>Sequence*&#45;&gt;LkClose?******</title>
<path fill="none" stroke="black" d="M515.17,-291.5C531.37,-281.19 553.96,-266.82 572.3,-255.15"/>
<polygon fill="black" stroke="black" points="574.36,-257.99 580.92,-249.66 570.6,-252.08 574.36,-257.99"/>
</g>
<!-- NotReadyForSG?****** -->
<g id="node31" class="node">
<title>NotReadyForSG?******</title>
<ellipse fill="gray" stroke="black" cx="728.96" cy="-234" rx="62.21" ry="18"/>
<text text-anchor="middle" x="728.96" y="-231.8" font-family="Times,serif" font-size="9.00">NotReadyForSG?******</text>
</g>
<!-- Sequence*&#45;&gt;NotReadyForSG?****** -->
<g id="edge30" class="edge">
<title>Sequence*&#45;&gt;NotReadyForSG?******</title>
<path fill="none" stroke="black" d="M520.18,-294.12C525.68,-291.98 531.48,-289.83 536.96,-288 582.12,-272.89 634.24,-258.7 672.78,-248.81"/>
<polygon fill="black" stroke="black" points="673.94,-252.13 682.77,-246.27 672.21,-245.35 673.94,-252.13"/>
</g>
<!-- GetSubGoal!* -->
<g id="node32" class="node">
<title>GetSubGoal!*</title>
<ellipse fill="gray" stroke="black" cx="848.96" cy="-234" rx="39.02" ry="18"/>
<text text-anchor="middle" x="848.96" y="-231.8" font-family="Times,serif" font-size="9.00">GetSubGoal!*</text>
</g>
<!-- Sequence*&#45;&gt;GetSubGoal!* -->
<g id="edge31" class="edge">
<title>Sequence*&#45;&gt;GetSubGoal!*</title>
<path fill="none" stroke="black" d="M519.55,-293.72C525.2,-291.56 531.22,-289.51 536.96,-288 651.09,-258.1 685.23,-279.47 799.96,-252 803.3,-251.2 806.74,-250.26 810.16,-249.24"/>
<polygon fill="black" stroke="black" points="811.23,-252.57 819.7,-246.21 809.11,-245.9 811.23,-252.57"/>
</g>
<!-- Fallback**** -->
<g id="node33" class="node">
<title>Fallback****</title>
<polygon fill="cyan" stroke="black" points="987.7,-226.54 987.7,-241.46 963.84,-252 930.09,-252 906.22,-241.46 906.22,-226.54 930.09,-216 963.84,-216 987.7,-226.54"/>
<text text-anchor="middle" x="946.96" y="-231.8" font-family="Times,serif" font-size="9.00">Fallback****</text>
</g>
<!-- Sequence*&#45;&gt;Fallback**** -->
<g id="edge32" class="edge">
<title>Sequence*&#45;&gt;Fallback****</title>
<path fill="none" stroke="black" d="M519.51,-293.56C525.16,-291.41 531.19,-289.4 536.96,-288 693.22,-250.08 739.82,-286.1 896.96,-252 900.38,-251.26 903.89,-250.36 907.39,-249.37"/>
<polygon fill="black" stroke="black" points="908.6,-252.66 917.13,-246.38 906.55,-245.97 908.6,-252.66"/>
</g>
<!-- NotReadyForSG?** -->
<g id="node14" class="node">
<title>NotReadyForSG?**</title>
<ellipse fill="gray" stroke="black" cx="51.96" cy="-162" rx="51.92" ry="18"/>
<text text-anchor="middle" x="51.96" y="-159.8" font-family="Times,serif" font-size="9.00">NotReadyForSG?**</text>
</g>
<!-- Fallback**&#45;&gt;NotReadyForSG?** -->
<g id="edge13" class="edge">
<title>Fallback**&#45;&gt;NotReadyForSG?**</title>
<path fill="none" stroke="black" d="M291.19,-221.93C285.55,-219.8 279.6,-217.71 273.96,-216 203.79,-194.73 184.08,-197.85 112.96,-180 108.88,-178.98 104.66,-177.88 100.43,-176.75"/>
<polygon fill="black" stroke="black" points="101.17,-173.33 90.6,-174.09 99.34,-180.08 101.17,-173.33"/>
</g>
<!-- LkClose?** -->
<g id="node15" class="node">
<title>LkClose?**</title>
<ellipse fill="gray" stroke="black" cx="155.96" cy="-162" rx="34.13" ry="18"/>
<text text-anchor="middle" x="155.96" y="-159.8" font-family="Times,serif" font-size="9.00">LkClose?**</text>
</g>
<!-- Fallback**&#45;&gt;LkClose?** -->
<g id="edge14" class="edge">
<title>Fallback**&#45;&gt;LkClose?**</title>
<path fill="none" stroke="black" d="M291.93,-221.75C264.49,-209.9 221.12,-191.15 190.75,-178.03"/>
<polygon fill="black" stroke="black" points="191.96,-174.74 181.39,-173.99 189.18,-181.17 191.96,-174.74"/>
</g>
<!-- NotReadyForSG?*** -->
<g id="node16" class="node">
<title>NotReadyForSG?***</title>
<ellipse fill="gray" stroke="black" cx="262.96" cy="-162" rx="54.7" ry="18"/>
<text text-anchor="middle" x="262.96" y="-159.8" font-family="Times,serif" font-size="9.00">NotReadyForSG?***</text>
</g>
<!-- Fallback**&#45;&gt;NotReadyForSG?*** -->
<g id="edge15" class="edge">
<title>Fallback**&#45;&gt;NotReadyForSG?***</title>
<path fill="none" stroke="black" d="M304.37,-215.7C297.74,-207.27 289.66,-196.97 282.39,-187.73"/>
<polygon fill="black" stroke="black" points="284.95,-185.32 276.02,-179.62 279.45,-189.65 284.95,-185.32"/>
</g>
<!-- Sequence** -->
<g id="node17" class="node">
<title>Sequence**</title>
<polygon fill="cyan" stroke="black" points="409.7,-154.54 409.7,-169.46 388.18,-180 357.74,-180 336.22,-169.46 336.22,-154.54 357.74,-144 388.18,-144 409.7,-154.54"/>
<text text-anchor="middle" x="372.96" y="-159.8" font-family="Times,serif" font-size="9.00">Sequence**</text>
</g>
<!-- Fallback**&#45;&gt;Sequence** -->
<g id="edge16" class="edge">
<title>Fallback**&#45;&gt;Sequence**</title>
<path fill="none" stroke="black" d="M331.56,-215.7C338.08,-207.39 346.03,-197.28 353.21,-188.14"/>
<polygon fill="black" stroke="black" points="356.1,-190.13 359.52,-180.1 350.59,-185.81 356.1,-190.13"/>
</g>
<!-- ReachGoal?**** -->
<g id="node26" class="node">
<title>ReachGoal?****</title>
<ellipse fill="gray" stroke="black" cx="471.96" cy="-162" rx="44.41" ry="18"/>
<text text-anchor="middle" x="471.96" y="-159.8" font-family="Times,serif" font-size="9.00">ReachGoal?****</text>
</g>
<!-- Fallback**&#45;&gt;ReachGoal?**** -->
<g id="edge25" class="edge">
<title>Fallback**&#45;&gt;ReachGoal?****</title>
<path fill="none" stroke="black" d="M343.39,-221.44C368.18,-210.17 406.17,-192.9 434.44,-180.06"/>
<polygon fill="black" stroke="black" points="435.96,-183.21 443.62,-175.88 433.07,-176.84 435.96,-183.21"/>
</g>
<!-- GetSubGoal! -->
<g id="node27" class="node">
<title>GetSubGoal!</title>
<ellipse fill="gray" stroke="black" cx="570.96" cy="-162" rx="36.9" ry="18"/>
<text text-anchor="middle" x="570.96" y="-159.8" font-family="Times,serif" font-size="9.00">GetSubGoal!</text>
</g>
<!-- Fallback**&#45;&gt;GetSubGoal! -->
<g id="edge26" class="edge">
<title>Fallback**&#45;&gt;GetSubGoal!</title>
<path fill="none" stroke="black" d="M344.73,-221.92C350.37,-219.79 356.32,-217.7 361.96,-216 432.99,-194.57 453.78,-200.91 524.96,-180 527.72,-179.19 530.55,-178.3 533.38,-177.36"/>
<polygon fill="black" stroke="black" points="534.64,-180.63 542.95,-174.04 532.35,-174.01 534.64,-180.63"/>
</g>
<!-- LkClose?*** -->
<g id="node18" class="node">
<title>LkClose?***</title>
<ellipse fill="gray" stroke="black" cx="176.96" cy="-90" rx="36.9" ry="18"/>
<text text-anchor="middle" x="176.96" y="-87.8" font-family="Times,serif" font-size="9.00">LkClose?***</text>
</g>
<!-- Sequence**&#45;&gt;LkClose?*** -->
<g id="edge17" class="edge">
<title>Sequence**&#45;&gt;LkClose?***</title>
<path fill="none" stroke="black" d="M344.29,-150.3C338.55,-148.19 332.57,-146.01 326.96,-144 280.91,-127.52 269.02,-124.48 222.96,-108 220.42,-107.09 217.8,-106.14 215.16,-105.19"/>
<polygon fill="black" stroke="black" points="216.23,-101.85 205.64,-101.7 213.83,-108.42 216.23,-101.85"/>
</g>
<!-- ReachGoal?*** -->
<g id="node19" class="node">
<title>ReachGoal?***</title>
<ellipse fill="gray" stroke="black" cx="273.96" cy="-90" rx="42.29" ry="18"/>
<text text-anchor="middle" x="273.96" y="-87.8" font-family="Times,serif" font-size="9.00">ReachGoal?***</text>
</g>
<!-- Sequence**&#45;&gt;ReachGoal?*** -->
<g id="edge18" class="edge">
<title>Sequence**&#45;&gt;ReachGoal?***</title>
<path fill="none" stroke="black" d="M352.45,-146.5C338.21,-136.43 319.03,-122.86 303.19,-111.67"/>
<polygon fill="black" stroke="black" points="304.97,-108.64 294.79,-105.73 300.93,-114.36 304.97,-108.64"/>
</g>
<!-- LkClose?**** -->
<g id="node20" class="node">
<title>LkClose?****</title>
<ellipse fill="gray" stroke="black" cx="372.96" cy="-90" rx="39.02" ry="18"/>
<text text-anchor="middle" x="372.96" y="-87.8" font-family="Times,serif" font-size="9.00">LkClose?****</text>
</g>
<!-- Sequence**&#45;&gt;LkClose?**** -->
<g id="edge19" class="edge">
<title>Sequence**&#45;&gt;LkClose?****</title>
<path fill="none" stroke="black" d="M372.96,-143.7C372.96,-135.98 372.96,-126.71 372.96,-118.11"/>
<polygon fill="black" stroke="black" points="376.46,-118.1 372.96,-108.1 369.46,-118.1 376.46,-118.1"/>
</g>
<!-- NotReadyForSG?**** -->
<g id="node21" class="node">
<title>NotReadyForSG?****</title>
<ellipse fill="gray" stroke="black" cx="486.96" cy="-90" rx="57.32" ry="18"/>
<text text-anchor="middle" x="486.96" y="-87.8" font-family="Times,serif" font-size="9.00">NotReadyForSG?****</text>
</g>
<!-- Sequence**&#45;&gt;NotReadyForSG?**** -->
<g id="edge20" class="edge">
<title>Sequence**&#45;&gt;NotReadyForSG?****</title>
<path fill="none" stroke="black" d="M395.21,-147.34C411.77,-137.17 434.65,-123.12 453.42,-111.59"/>
<polygon fill="black" stroke="black" points="455.3,-114.55 461.99,-106.33 451.64,-108.58 455.3,-114.55"/>
</g>
<!-- Fallback*** -->
<g id="node22" class="node">
<title>Fallback***</title>
<polygon fill="cyan" stroke="black" points="637.45,-82.54 637.45,-97.46 615.49,-108 584.43,-108 562.47,-97.46 562.47,-82.54 584.43,-72 615.49,-72 637.45,-82.54"/>
<text text-anchor="middle" x="599.96" y="-87.8" font-family="Times,serif" font-size="9.00">Fallback***</text>
</g>
<!-- Sequence**&#45;&gt;Fallback*** -->
<g id="edge21" class="edge">
<title>Sequence**&#45;&gt;Fallback***</title>
<path fill="none" stroke="black" d="M401.04,-150.16C406.93,-148.02 413.12,-145.86 418.96,-144 477.72,-125.29 494.14,-126.5 552.96,-108 555.85,-107.09 558.82,-106.12 561.8,-105.11"/>
<polygon fill="black" stroke="black" points="562.96,-108.41 571.26,-101.82 560.67,-101.8 562.96,-108.41"/>
</g>
<!-- LkClose?***** -->
<g id="node23" class="node">
<title>LkClose?*****</title>
<ellipse fill="gray" stroke="black" cx="512.96" cy="-18" rx="42.29" ry="18"/>
<text text-anchor="middle" x="512.96" y="-15.8" font-family="Times,serif" font-size="9.00">LkClose?*****</text>
</g>
<!-- Fallback***&#45;&gt;LkClose?***** -->
<g id="edge22" class="edge">
<title>Fallback***&#45;&gt;LkClose?*****</title>
<path fill="none" stroke="black" d="M580.65,-73.46C568.63,-63.79 552.99,-51.21 539.78,-40.58"/>
<polygon fill="black" stroke="black" points="541.9,-37.79 531.92,-34.25 537.51,-43.25 541.9,-37.79"/>
</g>
<!-- GetLk! -->
<g id="node24" class="node">
<title>GetLk!</title>
<ellipse fill="gray" stroke="black" cx="599.96" cy="-18" rx="27" ry="18"/>
<text text-anchor="middle" x="599.96" y="-15.8" font-family="Times,serif" font-size="9.00">GetLk!</text>
</g>
<!-- Fallback***&#45;&gt;GetLk! -->
<g id="edge23" class="edge">
<title>Fallback***&#45;&gt;GetLk!</title>
<path fill="none" stroke="black" d="M599.96,-71.7C599.96,-63.98 599.96,-54.71 599.96,-46.11"/>
<polygon fill="black" stroke="black" points="603.46,-46.1 599.96,-36.1 596.46,-46.1 603.46,-46.1"/>
</g>
<!-- NotReadyForSG?***** -->
<g id="node25" class="node">
<title>NotReadyForSG?*****</title>
<ellipse fill="gray" stroke="black" cx="704.96" cy="-18" rx="60.09" ry="18"/>
<text text-anchor="middle" x="704.96" y="-15.8" font-family="Times,serif" font-size="9.00">NotReadyForSG?*****</text>
</g>
<!-- Fallback***&#45;&gt;NotReadyForSG?***** -->
<g id="edge24" class="edge">
<title>Fallback***&#45;&gt;NotReadyForSG?*****</title>
<path fill="none" stroke="black" d="M621.46,-74.67C636.28,-64.79 656.23,-51.49 672.91,-40.37"/>
<polygon fill="black" stroke="black" points="674.92,-43.24 681.29,-34.78 671.03,-37.41 674.92,-43.24"/>
</g>
<!-- LkClose?******* -->
<g id="node34" class="node">
<title>LkClose?*******</title>
<ellipse fill="gray" stroke="black" cx="701.96" cy="-162" rx="47.19" ry="18"/>
<text text-anchor="middle" x="701.96" y="-159.8" font-family="Times,serif" font-size="9.00">LkClose?*******</text>
</g>
<!-- Fallback****&#45;&gt;LkClose?******* -->
<g id="edge33" class="edge">
<title>Fallback****&#45;&gt;LkClose?*******</title>
<path fill="none" stroke="black" d="M916.14,-222.12C909.82,-220 903.2,-217.87 896.96,-216 835.82,-197.72 819.4,-197.27 757.96,-180 754.43,-179.01 750.78,-177.95 747.11,-176.88"/>
<polygon fill="black" stroke="black" points="748.03,-173.5 737.45,-174.01 746.04,-180.21 748.03,-173.5"/>
</g>
<!-- GetSubGoal!** -->
<g id="node35" class="node">
<title>GetSubGoal!**</title>
<ellipse fill="gray" stroke="black" cx="808.96" cy="-162" rx="42.29" ry="18"/>
<text text-anchor="middle" x="808.96" y="-159.8" font-family="Times,serif" font-size="9.00">GetSubGoal!**</text>
</g>
<!-- Fallback****&#45;&gt;GetSubGoal!** -->
<g id="edge34" class="edge">
<title>Fallback****&#45;&gt;GetSubGoal!**</title>
<path fill="none" stroke="black" d="M921,-219.83C899.36,-208.86 868.31,-193.1 844.38,-180.97"/>
<polygon fill="black" stroke="black" points="845.77,-177.75 835.27,-176.35 842.61,-183.99 845.77,-177.75"/>
</g>
<!-- ReachGoal?****** -->
<g id="node36" class="node">
<title>ReachGoal?******</title>
<ellipse fill="gray" stroke="black" cx="918.96" cy="-162" rx="49.8" ry="18"/>
<text text-anchor="middle" x="918.96" y="-159.8" font-family="Times,serif" font-size="9.00">ReachGoal?******</text>
</g>
<!-- Fallback****&#45;&gt;ReachGoal?****** -->
<g id="edge35" class="edge">
<title>Fallback****&#45;&gt;ReachGoal?******</title>
<path fill="none" stroke="black" d="M940.04,-215.7C936.89,-207.81 933.08,-198.3 929.58,-189.55"/>
<polygon fill="black" stroke="black" points="932.77,-188.09 925.8,-180.1 926.27,-190.69 932.77,-188.09"/>
</g>
<!-- MoveTo!* -->
<g id="node37" class="node">
<title>MoveTo!*</title>
<ellipse fill="gray" stroke="black" cx="1017.96" cy="-162" rx="31.51" ry="18"/>
<text text-anchor="middle" x="1017.96" y="-159.8" font-family="Times,serif" font-size="9.00">MoveTo!*</text>
</g>
<!-- Fallback****&#45;&gt;MoveTo!* -->
<g id="edge36" class="edge">
<title>Fallback****&#45;&gt;MoveTo!*</title>
<path fill="none" stroke="black" d="M964.15,-216.05C973.57,-206.77 985.35,-195.15 995.49,-185.15"/>
<polygon fill="black" stroke="black" points="998.2,-187.4 1002.86,-177.89 993.28,-182.42 998.2,-187.4"/>
</g>
<!-- GetLk!* -->
<g id="node38" class="node">
<title>GetLk!*</title>
<ellipse fill="gray" stroke="black" cx="1094.96" cy="-162" rx="27.27" ry="18"/>
<text text-anchor="middle" x="1094.96" y="-159.8" font-family="Times,serif" font-size="9.00">GetLk!*</text>
</g>
<!-- Fallback****&#45;&gt;GetLk!* -->
<g id="edge37" class="edge">
<title>Fallback****&#45;&gt;GetLk!*</title>
<path fill="none" stroke="black" d="M973.76,-220.32C999.14,-208.32 1037.21,-190.31 1063.9,-177.69"/>
<polygon fill="black" stroke="black" points="1065.63,-180.75 1073.17,-173.31 1062.64,-174.42 1065.63,-180.75"/>
</g>
<!-- Sequence*** -->
<g id="node39" class="node">
<title>Sequence***</title>
<polygon fill="cyan" stroke="black" points="1219.95,-154.54 1219.95,-169.46 1196.53,-180 1163.4,-180 1139.97,-169.46 1139.97,-154.54 1163.4,-144 1196.53,-144 1219.95,-154.54"/>
<text text-anchor="middle" x="1179.96" y="-159.8" font-family="Times,serif" font-size="9.00">Sequence***</text>
</g>
<!-- Fallback****&#45;&gt;Sequence*** -->
<g id="edge38" class="edge">
<title>Fallback****&#45;&gt;Sequence***</title>
<path fill="none" stroke="black" d="M981.38,-223.68C1018.47,-213.5 1079.15,-196.44 1130.96,-180 1133.87,-179.08 1136.87,-178.1 1139.88,-177.1"/>
<polygon fill="black" stroke="black" points="1141.11,-180.38 1149.46,-173.86 1138.87,-173.75 1141.11,-180.38"/>
</g>
<!-- NotReadyForSG?******* -->
<g id="node40" class="node">
<title>NotReadyForSG?*******</title>
<ellipse fill="gray" stroke="black" cx="1116.96" cy="-90" rx="65.48" ry="18"/>
<text text-anchor="middle" x="1116.96" y="-87.8" font-family="Times,serif" font-size="9.00">NotReadyForSG?*******</text>
</g>
<!-- Sequence***&#45;&gt;NotReadyForSG?******* -->
<g id="edge39" class="edge">
<title>Sequence***&#45;&gt;NotReadyForSG?*******</title>
<path fill="none" stroke="black" d="M1164.39,-143.7C1156.65,-135.09 1147.16,-124.55 1138.71,-115.17"/>
<polygon fill="black" stroke="black" points="1141.21,-112.71 1131.92,-107.62 1136.01,-117.4 1141.21,-112.71"/>
</g>
<!-- CompLkGraph! -->
<g id="node41" class="node">
<title>CompLkGraph!</title>
<ellipse fill="gray" stroke="black" cx="1242.96" cy="-90" rx="42.95" ry="18"/>
<text text-anchor="middle" x="1242.96" y="-87.8" font-family="Times,serif" font-size="9.00">CompLkGraph!</text>
</g>
<!-- Sequence***&#45;&gt;CompLkGraph! -->
<g id="edge40" class="edge">
<title>Sequence***&#45;&gt;CompLkGraph!</title>
<path fill="none" stroke="black" d="M1195.53,-143.7C1203.39,-134.97 1213.04,-124.24 1221.58,-114.75"/>
<polygon fill="black" stroke="black" points="1224.34,-116.92 1228.43,-107.14 1219.14,-112.24 1224.34,-116.92"/>
</g>
</g>
</svg>
