<?xml version="1.0" encoding="UTF-8" standalone="no"?>
<!DOCTYPE svg PUBLIC "-//W3C//DTD SVG 1.1//EN"
 "http://www.w3.org/Graphics/SVG/1.1/DTD/svg11.dtd">
<!-- Generated by graphviz version 2.43.0 (0)
 -->
<!-- Title: pastafarianism Pages: 1 -->
<svg width="597pt" height="404pt"
 viewBox="0.00 0.00 597.03 404.00" xmlns="http://www.w3.org/2000/svg" xmlns:xlink="http://www.w3.org/1999/xlink">
<g id="graph0" class="graph" transform="scale(1 1) rotate(0) translate(4 400)">
<title>pastafarianism</title>
<polygon fill="white" stroke="transparent" points="-4,4 -4,-400 593.03,-400 593.03,4 -4,4"/>
<!-- Fallback -->
<g id="node1" class="node">
<title>Fallback</title>
<polygon fill="cyan" stroke="black" points="282.01,-370.54 282.01,-385.46 264.88,-396 240.65,-396 223.52,-385.46 223.52,-370.54 240.65,-360 264.88,-360 282.01,-370.54"/>
<text text-anchor="middle" x="252.77" y="-375.8" font-family="Times,serif" font-size="9.00">Fallback</text>
</g>
<!-- ReachGoal? -->
<g id="node2" class="node">
<title>ReachGoal?</title>
<ellipse fill="gray" stroke="black" cx="87.77" cy="-306" rx="34.13" ry="18"/>
<text text-anchor="middle" x="87.77" y="-303.8" font-family="Times,serif" font-size="9.00">ReachGoal?</text>
</g>
<!-- Fallback&#45;&gt;ReachGoal? -->
<g id="edge1" class="edge">
<title>Fallback&#45;&gt;ReachGoal?</title>
<path fill="none" stroke="black" d="M229.12,-366.97C201.35,-355.19 154.99,-335.52 122.97,-321.94"/>
<polygon fill="black" stroke="black" points="124.11,-318.62 113.54,-317.93 121.37,-325.06 124.11,-318.62"/>
</g>
<!-- LkClose? -->
<g id="node3" class="node">
<title>LkClose?</title>
<ellipse fill="gray" stroke="black" cx="168.77" cy="-306" rx="28.74" ry="18"/>
<text text-anchor="middle" x="168.77" y="-303.8" font-family="Times,serif" font-size="9.00">LkClose?</text>
</g>
<!-- Fallback&#45;&gt;LkClose? -->
<g id="edge2" class="edge">
<title>Fallback&#45;&gt;LkClose?</title>
<path fill="none" stroke="black" d="M235.77,-362.83C223.62,-352.71 207.08,-338.93 193.48,-327.59"/>
<polygon fill="black" stroke="black" points="195.37,-324.62 185.45,-320.91 190.89,-330 195.37,-324.62"/>
</g>
<!-- ReachGoal?* -->
<g id="node4" class="node">
<title>ReachGoal?*</title>
<ellipse fill="gray" stroke="black" cx="252.77" cy="-306" rx="36.9" ry="18"/>
<text text-anchor="middle" x="252.77" y="-303.8" font-family="Times,serif" font-size="9.00">ReachGoal?*</text>
</g>
<!-- Fallback&#45;&gt;ReachGoal?* -->
<g id="edge3" class="edge">
<title>Fallback&#45;&gt;ReachGoal?*</title>
<path fill="none" stroke="black" d="M252.77,-359.7C252.77,-351.98 252.77,-342.71 252.77,-334.11"/>
<polygon fill="black" stroke="black" points="256.27,-334.1 252.77,-324.1 249.27,-334.1 256.27,-334.1"/>
</g>
<!-- Sequence -->
<g id="node5" class="node">
<title>Sequence</title>
<polygon fill="cyan" stroke="black" points="370.26,-298.54 370.26,-313.46 351.81,-324 325.72,-324 307.27,-313.46 307.27,-298.54 325.72,-288 351.81,-288 370.26,-298.54"/>
<text text-anchor="middle" x="338.77" y="-303.8" font-family="Times,serif" font-size="9.00">Sequence</text>
</g>
<!-- Fallback&#45;&gt;Sequence -->
<g id="edge4" class="edge">
<title>Fallback&#45;&gt;Sequence</title>
<path fill="none" stroke="black" d="M270.17,-362.83C282.56,-352.75 299.41,-339.03 313.31,-327.72"/>
<polygon fill="black" stroke="black" points="315.55,-330.41 321.09,-321.38 311.13,-324.98 315.55,-330.41"/>
</g>
<!-- ReachGoal?**** -->
<g id="node20" class="node">
<title>ReachGoal?****</title>
<ellipse fill="gray" stroke="black" cx="432.77" cy="-306" rx="44.41" ry="18"/>
<text text-anchor="middle" x="432.77" y="-303.8" font-family="Times,serif" font-size="9.00">ReachGoal?****</text>
</g>
<!-- Fallback&#45;&gt;ReachGoal?**** -->
<g id="edge19" class="edge">
<title>Fallback&#45;&gt;ReachGoal?****</title>
<path fill="none" stroke="black" d="M277.42,-367.41C306.99,-355.91 356.98,-336.47 392.25,-322.75"/>
<polygon fill="black" stroke="black" points="393.73,-325.93 401.78,-319.05 391.2,-319.41 393.73,-325.93"/>
</g>
<!-- Fallback* -->
<g id="node6" class="node">
<title>Fallback*</title>
<polygon fill="cyan" stroke="black" points="272.51,-226.54 272.51,-241.46 253.91,-252 227.62,-252 209.02,-241.46 209.02,-226.54 227.62,-216 253.91,-216 272.51,-226.54"/>
<text text-anchor="middle" x="240.77" y="-231.8" font-family="Times,serif" font-size="9.00">Fallback*</text>
</g>
<!-- Sequence&#45;&gt;Fallback* -->
<g id="edge5" class="edge">
<title>Sequence&#45;&gt;Fallback*</title>
<path fill="none" stroke="black" d="M319.4,-291.17C304.91,-280.82 284.87,-266.5 268.65,-254.91"/>
<polygon fill="black" stroke="black" points="270.26,-251.77 260.09,-248.8 266.19,-257.46 270.26,-251.77"/>
</g>
<!-- MoveTo! -->
<g id="node16" class="node">
<title>MoveTo!</title>
<ellipse fill="gray" stroke="black" cx="338.77" cy="-234" rx="28.74" ry="18"/>
<text text-anchor="middle" x="338.77" y="-231.8" font-family="Times,serif" font-size="9.00">MoveTo!</text>
</g>
<!-- Sequence&#45;&gt;MoveTo! -->
<g id="edge15" class="edge">
<title>Sequence&#45;&gt;MoveTo!</title>
<path fill="none" stroke="black" d="M338.77,-287.7C338.77,-279.98 338.77,-270.71 338.77,-262.11"/>
<polygon fill="black" stroke="black" points="342.27,-262.1 338.77,-252.1 335.27,-262.1 342.27,-262.1"/>
</g>
<!-- Fallback*** -->
<g id="node17" class="node">
<title>Fallback***</title>
<polygon fill="cyan" stroke="black" points="480.26,-226.54 480.26,-241.46 458.29,-252 427.24,-252 405.28,-241.46 405.28,-226.54 427.24,-216 458.29,-216 480.26,-226.54"/>
<text text-anchor="middle" x="442.77" y="-231.8" font-family="Times,serif" font-size="9.00">Fallback***</text>
</g>
<!-- Sequence&#45;&gt;Fallback*** -->
<g id="edge16" class="edge">
<title>Sequence&#45;&gt;Fallback***</title>
<path fill="none" stroke="black" d="M358.82,-291.5C374.1,-281.22 395.39,-266.89 412.7,-255.23"/>
<polygon fill="black" stroke="black" points="415,-257.91 421.34,-249.42 411.09,-252.1 415,-257.91"/>
</g>
<!-- NotReadyForSG? -->
<g id="node7" class="node">
<title>NotReadyForSG?</title>
<ellipse fill="gray" stroke="black" cx="46.77" cy="-162" rx="46.53" ry="18"/>
<text text-anchor="middle" x="46.77" y="-159.8" font-family="Times,serif" font-size="9.00">NotReadyForSG?</text>
</g>
<!-- Fallback*&#45;&gt;NotReadyForSG? -->
<g id="edge6" class="edge">
<title>Fallback*&#45;&gt;NotReadyForSG?</title>
<path fill="none" stroke="black" d="M214.2,-223.41C182.09,-211.83 127.66,-192.19 89.6,-178.46"/>
<polygon fill="black" stroke="black" points="90.41,-175.03 79.82,-174.93 88.04,-181.61 90.41,-175.03"/>
</g>
<!-- Sequence* -->
<g id="node8" class="node">
<title>Sequence*</title>
<polygon fill="cyan" stroke="black" points="180.01,-154.54 180.01,-169.46 159.95,-180 131.58,-180 111.52,-169.46 111.52,-154.54 131.58,-144 159.95,-144 180.01,-154.54"/>
<text text-anchor="middle" x="145.77" y="-159.8" font-family="Times,serif" font-size="9.00">Sequence*</text>
</g>
<!-- Fallback*&#45;&gt;Sequence* -->
<g id="edge7" class="edge">
<title>Fallback*&#45;&gt;Sequence*</title>
<path fill="none" stroke="black" d="M222,-219.17C208.13,-208.95 189.02,-194.87 173.41,-183.37"/>
<polygon fill="black" stroke="black" points="175.27,-180.4 165.15,-177.28 171.12,-186.03 175.27,-180.4"/>
</g>
<!-- ReachGoal?*** -->
<g id="node14" class="node">
<title>ReachGoal?***</title>
<ellipse fill="gray" stroke="black" cx="240.77" cy="-162" rx="42.29" ry="18"/>
<text text-anchor="middle" x="240.77" y="-159.8" font-family="Times,serif" font-size="9.00">ReachGoal?***</text>
</g>
<!-- Fallback*&#45;&gt;ReachGoal?*** -->
<g id="edge13" class="edge">
<title>Fallback*&#45;&gt;ReachGoal?***</title>
<path fill="none" stroke="black" d="M240.77,-215.7C240.77,-207.98 240.77,-198.71 240.77,-190.11"/>
<polygon fill="black" stroke="black" points="244.27,-190.1 240.77,-180.1 237.27,-190.1 244.27,-190.1"/>
</g>
<!-- GetSubGoal! -->
<g id="node15" class="node">
<title>GetSubGoal!</title>
<ellipse fill="gray" stroke="black" cx="337.77" cy="-162" rx="36.9" ry="18"/>
<text text-anchor="middle" x="337.77" y="-159.8" font-family="Times,serif" font-size="9.00">GetSubGoal!</text>
</g>
<!-- Fallback*&#45;&gt;GetSubGoal! -->
<g id="edge14" class="edge">
<title>Fallback*&#45;&gt;GetSubGoal!</title>
<path fill="none" stroke="black" d="M259.93,-219.17C274.09,-208.95 293.6,-194.87 309.54,-183.37"/>
<polygon fill="black" stroke="black" points="311.91,-185.97 317.98,-177.28 307.82,-180.3 311.91,-185.97"/>
</g>
<!-- LkClose?* -->
<g id="node9" class="node">
<title>LkClose?*</title>
<ellipse fill="gray" stroke="black" cx="56.77" cy="-90" rx="31.51" ry="18"/>
<text text-anchor="middle" x="56.77" y="-87.8" font-family="Times,serif" font-size="9.00">LkClose?*</text>
</g>
<!-- Sequence*&#45;&gt;LkClose?* -->
<g id="edge8" class="edge">
<title>Sequence*&#45;&gt;LkClose?*</title>
<path fill="none" stroke="black" d="M126.89,-146.15C114.01,-136.02 96.78,-122.47 82.63,-111.34"/>
<polygon fill="black" stroke="black" points="84.73,-108.54 74.7,-105.11 80.4,-114.04 84.73,-108.54"/>
</g>
<!-- ReachGoal?** -->
<g id="node10" class="node">
<title>ReachGoal?**</title>
<ellipse fill="gray" stroke="black" cx="145.77" cy="-90" rx="39.02" ry="18"/>
<text text-anchor="middle" x="145.77" y="-87.8" font-family="Times,serif" font-size="9.00">ReachGoal?**</text>
</g>
<!-- Sequence*&#45;&gt;ReachGoal?** -->
<g id="edge9" class="edge">
<title>Sequence*&#45;&gt;ReachGoal?**</title>
<path fill="none" stroke="black" d="M145.77,-143.7C145.77,-135.98 145.77,-126.71 145.77,-118.11"/>
<polygon fill="black" stroke="black" points="149.27,-118.1 145.77,-108.1 142.27,-118.1 149.27,-118.1"/>
</g>
<!-- Fallback** -->
<g id="node11" class="node">
<title>Fallback**</title>
<polygon fill="cyan" stroke="black" points="272.76,-82.54 272.76,-97.46 252.26,-108 223.27,-108 202.77,-97.46 202.77,-82.54 223.27,-72 252.26,-72 272.76,-82.54"/>
<text text-anchor="middle" x="237.77" y="-87.8" font-family="Times,serif" font-size="9.00">Fallback**</text>
</g>
<!-- Sequence*&#45;&gt;Fallback** -->
<g id="edge10" class="edge">
<title>Sequence*&#45;&gt;Fallback**</title>
<path fill="none" stroke="black" d="M164.83,-146.5C177.94,-136.52 195.56,-123.11 210.19,-111.98"/>
<polygon fill="black" stroke="black" points="212.57,-114.57 218.41,-105.73 208.33,-109 212.57,-114.57"/>
</g>
<!-- LkClose?** -->
<g id="node12" class="node">
<title>LkClose?**</title>
<ellipse fill="gray" stroke="black" cx="197.77" cy="-18" rx="34.13" ry="18"/>
<text text-anchor="middle" x="197.77" y="-15.8" font-family="Times,serif" font-size="9.00">LkClose?**</text>
</g>
<!-- Fallback**&#45;&gt;LkClose?** -->
<g id="edge11" class="edge">
<title>Fallback**&#45;&gt;LkClose?**</title>
<path fill="none" stroke="black" d="M227.88,-71.7C223.21,-63.52 217.54,-53.6 212.38,-44.58"/>
<polygon fill="black" stroke="black" points="215.26,-42.57 207.26,-35.62 209.19,-46.04 215.26,-42.57"/>
</g>
<!-- GetLk! -->
<g id="node13" class="node">
<title>GetLk!</title>
<ellipse fill="gray" stroke="black" cx="276.77" cy="-18" rx="27" ry="18"/>
<text text-anchor="middle" x="276.77" y="-15.8" font-family="Times,serif" font-size="9.00">GetLk!</text>
</g>
<!-- Fallback**&#45;&gt;GetLk! -->
<g id="edge12" class="edge">
<title>Fallback**&#45;&gt;GetLk!</title>
<path fill="none" stroke="black" d="M247.41,-71.7C252.08,-63.32 257.77,-53.1 262.89,-43.9"/>
<polygon fill="black" stroke="black" points="265.96,-45.58 267.77,-35.14 259.85,-42.18 265.96,-45.58"/>
</g>
<!-- NotReadyForSG?* -->
<g id="node18" class="node">
<title>NotReadyForSG?*</title>
<ellipse fill="gray" stroke="black" cx="442.77" cy="-162" rx="49.8" ry="18"/>
<text text-anchor="middle" x="442.77" y="-159.8" font-family="Times,serif" font-size="9.00">NotReadyForSG?*</text>
</g>
<!-- Fallback***&#45;&gt;NotReadyForSG?* -->
<g id="edge17" class="edge">
<title>Fallback***&#45;&gt;NotReadyForSG?*</title>
<path fill="none" stroke="black" d="M442.77,-215.7C442.77,-207.98 442.77,-198.71 442.77,-190.11"/>
<polygon fill="black" stroke="black" points="446.27,-190.1 442.77,-180.1 439.27,-190.1 446.27,-190.1"/>
</g>
<!-- GetSubGoal!* -->
<g id="node19" class="node">
<title>GetSubGoal!*</title>
<ellipse fill="gray" stroke="black" cx="549.77" cy="-162" rx="39.02" ry="18"/>
<text text-anchor="middle" x="549.77" y="-159.8" font-family="Times,serif" font-size="9.00">GetSubGoal!*</text>
</g>
<!-- Fallback***&#45;&gt;GetSubGoal!* -->
<g id="edge18" class="edge">
<title>Fallback***&#45;&gt;GetSubGoal!*</title>
<path fill="none" stroke="black" d="M464.42,-218.83C480.23,-208.49 501.87,-194.33 519.4,-182.86"/>
<polygon fill="black" stroke="black" points="521.69,-185.55 528.14,-177.14 517.86,-179.69 521.69,-185.55"/>
</g>
</g>
</svg>
