<?xml version="1.0" encoding="UTF-8" standalone="no"?>
<!DOCTYPE svg PUBLIC "-//W3C//DTD SVG 1.1//EN"
 "http://www.w3.org/Graphics/SVG/1.1/DTD/svg11.dtd">
<!-- Generated by graphviz version 2.43.0 (0)
 -->
<!-- Title: pastafarianism Pages: 1 -->
<svg width="794pt" height="476pt"
 viewBox="0.00 0.00 794.21 476.00" xmlns="http://www.w3.org/2000/svg" xmlns:xlink="http://www.w3.org/1999/xlink">
<g id="graph0" class="graph" transform="scale(1 1) rotate(0) translate(4 472)">
<title>pastafarianism</title>
<polygon fill="white" stroke="transparent" points="-4,4 -4,-472 790.21,-472 790.21,4 -4,4"/>
<!-- Fallback -->
<g id="node1" class="node">
<title>Fallback</title>
<polygon fill="cyan" stroke="black" points="294.01,-442.54 294.01,-457.46 276.88,-468 252.65,-468 235.52,-457.46 235.52,-442.54 252.65,-432 276.88,-432 294.01,-442.54"/>
<text text-anchor="middle" x="264.77" y="-447.8" font-family="Times,serif" font-size="9.00">Fallback</text>
</g>
<!-- ReachGoal? -->
<g id="node2" class="node">
<title>ReachGoal?</title>
<ellipse fill="gray" stroke="black" cx="105.77" cy="-378" rx="34.13" ry="18"/>
<text text-anchor="middle" x="105.77" y="-375.8" font-family="Times,serif" font-size="9.00">ReachGoal?</text>
</g>
<!-- Fallback&#45;&gt;ReachGoal? -->
<g id="edge1" class="edge">
<title>Fallback&#45;&gt;ReachGoal?</title>
<path fill="none" stroke="black" d="M241.3,-438.67C214.72,-426.97 171.14,-407.78 140.59,-394.33"/>
<polygon fill="black" stroke="black" points="141.73,-391.01 131.17,-390.18 138.91,-397.42 141.73,-391.01"/>
</g>
<!-- LkClose? -->
<g id="node3" class="node">
<title>LkClose?</title>
<ellipse fill="gray" stroke="black" cx="186.77" cy="-378" rx="28.74" ry="18"/>
<text text-anchor="middle" x="186.77" y="-375.8" font-family="Times,serif" font-size="9.00">LkClose?</text>
</g>
<!-- Fallback&#45;&gt;LkClose? -->
<g id="edge2" class="edge">
<title>Fallback&#45;&gt;LkClose?</title>
<path fill="none" stroke="black" d="M248.22,-434.15C237.15,-424.21 222.4,-410.98 210.13,-399.97"/>
<polygon fill="black" stroke="black" points="212.27,-397.18 202.49,-393.11 207.59,-402.39 212.27,-397.18"/>
</g>
<!-- Sequence -->
<g id="node4" class="node">
<title>Sequence</title>
<polygon fill="cyan" stroke="black" points="296.26,-370.54 296.26,-385.46 277.81,-396 251.72,-396 233.27,-385.46 233.27,-370.54 251.72,-360 277.81,-360 296.26,-370.54"/>
<text text-anchor="middle" x="264.77" y="-375.8" font-family="Times,serif" font-size="9.00">Sequence</text>
</g>
<!-- Fallback&#45;&gt;Sequence -->
<g id="edge3" class="edge">
<title>Fallback&#45;&gt;Sequence</title>
<path fill="none" stroke="black" d="M264.77,-431.7C264.77,-423.98 264.77,-414.71 264.77,-406.11"/>
<polygon fill="black" stroke="black" points="268.27,-406.1 264.77,-396.1 261.27,-406.1 268.27,-406.1"/>
</g>
<!-- ReachGoal?* -->
<g id="node7" class="node">
<title>ReachGoal?*</title>
<ellipse fill="gray" stroke="black" cx="350.77" cy="-378" rx="36.9" ry="18"/>
<text text-anchor="middle" x="350.77" y="-375.8" font-family="Times,serif" font-size="9.00">ReachGoal?*</text>
</g>
<!-- Fallback&#45;&gt;ReachGoal?* -->
<g id="edge6" class="edge">
<title>Fallback&#45;&gt;ReachGoal?*</title>
<path fill="none" stroke="black" d="M282.17,-434.83C294.28,-424.98 310.65,-411.65 324.37,-400.49"/>
<polygon fill="black" stroke="black" points="326.95,-402.9 332.5,-393.87 322.53,-397.47 326.95,-402.9"/>
</g>
<!-- Sequence* -->
<g id="node8" class="node">
<title>Sequence*</title>
<polygon fill="cyan" stroke="black" points="474.01,-370.54 474.01,-385.46 453.95,-396 425.58,-396 405.52,-385.46 405.52,-370.54 425.58,-360 453.95,-360 474.01,-370.54"/>
<text text-anchor="middle" x="439.77" y="-375.8" font-family="Times,serif" font-size="9.00">Sequence*</text>
</g>
<!-- Fallback&#45;&gt;Sequence* -->
<g id="edge7" class="edge">
<title>Fallback&#45;&gt;Sequence*</title>
<path fill="none" stroke="black" d="M289.1,-439.27C318.76,-427.4 369.16,-407.24 403.42,-393.54"/>
<polygon fill="black" stroke="black" points="405.08,-396.65 413.06,-389.68 402.48,-390.15 405.08,-396.65"/>
</g>
<!-- LkClose?* -->
<g id="node5" class="node">
<title>LkClose?*</title>
<ellipse fill="gray" stroke="black" cx="189.77" cy="-306" rx="31.51" ry="18"/>
<text text-anchor="middle" x="189.77" y="-303.8" font-family="Times,serif" font-size="9.00">LkClose?*</text>
</g>
<!-- Sequence&#45;&gt;LkClose?* -->
<g id="edge4" class="edge">
<title>Sequence&#45;&gt;LkClose?*</title>
<path fill="none" stroke="black" d="M248.49,-361.81C238.13,-352.14 224.55,-339.46 213.05,-328.73"/>
<polygon fill="black" stroke="black" points="215.19,-325.94 205.49,-321.68 210.42,-331.06 215.19,-325.94"/>
</g>
<!-- MoveTo! -->
<g id="node6" class="node">
<title>MoveTo!</title>
<ellipse fill="gray" stroke="black" cx="268.77" cy="-306" rx="28.74" ry="18"/>
<text text-anchor="middle" x="268.77" y="-303.8" font-family="Times,serif" font-size="9.00">MoveTo!</text>
</g>
<!-- Sequence&#45;&gt;MoveTo! -->
<g id="edge5" class="edge">
<title>Sequence&#45;&gt;MoveTo!</title>
<path fill="none" stroke="black" d="M265.75,-359.7C266.19,-351.98 266.72,-342.71 267.22,-334.11"/>
<polygon fill="black" stroke="black" points="270.71,-334.29 267.79,-324.1 263.72,-333.89 270.71,-334.29"/>
</g>
<!-- Fallback* -->
<g id="node9" class="node">
<title>Fallback*</title>
<polygon fill="cyan" stroke="black" points="384.51,-298.54 384.51,-313.46 365.91,-324 339.62,-324 321.02,-313.46 321.02,-298.54 339.62,-288 365.91,-288 384.51,-298.54"/>
<text text-anchor="middle" x="352.77" y="-303.8" font-family="Times,serif" font-size="9.00">Fallback*</text>
</g>
<!-- Sequence*&#45;&gt;Fallback* -->
<g id="edge8" class="edge">
<title>Sequence*&#45;&gt;Fallback*</title>
<path fill="none" stroke="black" d="M421.31,-362.15C409.01,-352.25 392.64,-339.08 378.98,-328.09"/>
<polygon fill="black" stroke="black" points="380.88,-325.13 370.89,-321.58 376.49,-330.58 380.88,-325.13"/>
</g>
<!-- MoveTo!*** -->
<g id="node29" class="node">
<title>MoveTo!***</title>
<ellipse fill="gray" stroke="black" cx="439.77" cy="-306" rx="36.9" ry="18"/>
<text text-anchor="middle" x="439.77" y="-303.8" font-family="Times,serif" font-size="9.00">MoveTo!***</text>
</g>
<!-- Sequence*&#45;&gt;MoveTo!*** -->
<g id="edge28" class="edge">
<title>Sequence*&#45;&gt;MoveTo!***</title>
<path fill="none" stroke="black" d="M439.77,-359.7C439.77,-351.98 439.77,-342.71 439.77,-334.11"/>
<polygon fill="black" stroke="black" points="443.27,-334.1 439.77,-324.1 436.27,-334.1 443.27,-334.1"/>
</g>
<!-- ReachGoal?**** -->
<g id="node30" class="node">
<title>ReachGoal?****</title>
<ellipse fill="gray" stroke="black" cx="538.77" cy="-306" rx="44.41" ry="18"/>
<text text-anchor="middle" x="538.77" y="-303.8" font-family="Times,serif" font-size="9.00">ReachGoal?****</text>
</g>
<!-- Sequence*&#45;&gt;ReachGoal?**** -->
<g id="edge29" class="edge">
<title>Sequence*&#45;&gt;ReachGoal?****</title>
<path fill="none" stroke="black" d="M459.8,-362.83C474.01,-352.79 493.3,-339.15 509.26,-327.86"/>
<polygon fill="black" stroke="black" points="511.59,-330.5 517.74,-321.87 507.55,-324.78 511.59,-330.5"/>
</g>
<!-- NotReadyForSG? -->
<g id="node10" class="node">
<title>NotReadyForSG?</title>
<ellipse fill="gray" stroke="black" cx="46.77" cy="-234" rx="46.53" ry="18"/>
<text text-anchor="middle" x="46.77" y="-231.8" font-family="Times,serif" font-size="9.00">NotReadyForSG?</text>
</g>
<!-- Fallback*&#45;&gt;NotReadyForSG? -->
<g id="edge9" class="edge">
<title>Fallback*&#45;&gt;NotReadyForSG?</title>
<path fill="none" stroke="black" d="M327.24,-294.64C320.65,-292.22 313.5,-289.82 306.77,-288 217.9,-263.95 192.31,-273.41 102.77,-252 98.93,-251.08 94.97,-250.05 91.01,-248.96"/>
<polygon fill="black" stroke="black" points="91.82,-245.56 81.24,-246.17 89.89,-252.29 91.82,-245.56"/>
</g>
<!-- LkClose?** -->
<g id="node11" class="node">
<title>LkClose?**</title>
<ellipse fill="gray" stroke="black" cx="145.77" cy="-234" rx="34.13" ry="18"/>
<text text-anchor="middle" x="145.77" y="-231.8" font-family="Times,serif" font-size="9.00">LkClose?**</text>
</g>
<!-- Fallback*&#45;&gt;LkClose?** -->
<g id="edge10" class="edge">
<title>Fallback*&#45;&gt;LkClose?**</title>
<path fill="none" stroke="black" d="M326.59,-295.03C320.13,-292.65 313.22,-290.18 306.77,-288 254.81,-270.49 240.52,-270.09 188.77,-252 186.38,-251.17 183.93,-250.28 181.47,-249.37"/>
<polygon fill="black" stroke="black" points="182.61,-246.06 172.02,-245.77 180.12,-252.6 182.61,-246.06"/>
</g>
<!-- NotReadyForSG?* -->
<g id="node12" class="node">
<title>NotReadyForSG?*</title>
<ellipse fill="gray" stroke="black" cx="247.77" cy="-234" rx="49.8" ry="18"/>
<text text-anchor="middle" x="247.77" y="-231.8" font-family="Times,serif" font-size="9.00">NotReadyForSG?*</text>
</g>
<!-- Fallback*&#45;&gt;NotReadyForSG?* -->
<g id="edge11" class="edge">
<title>Fallback*&#45;&gt;NotReadyForSG?*</title>
<path fill="none" stroke="black" d="M332.52,-291.5C317.4,-281.42 296.45,-267.45 279.16,-255.93"/>
<polygon fill="black" stroke="black" points="280.76,-252.79 270.5,-250.16 276.88,-258.62 280.76,-252.79"/>
</g>
<!-- Sequence** -->
<g id="node13" class="node">
<title>Sequence**</title>
<polygon fill="cyan" stroke="black" points="389.51,-226.54 389.51,-241.46 367.98,-252 337.55,-252 316.02,-241.46 316.02,-226.54 337.55,-216 367.98,-216 389.51,-226.54"/>
<text text-anchor="middle" x="352.77" y="-231.8" font-family="Times,serif" font-size="9.00">Sequence**</text>
</g>
<!-- Fallback*&#45;&gt;Sequence** -->
<g id="edge12" class="edge">
<title>Fallback*&#45;&gt;Sequence**</title>
<path fill="none" stroke="black" d="M352.77,-287.7C352.77,-279.98 352.77,-270.71 352.77,-262.11"/>
<polygon fill="black" stroke="black" points="356.27,-262.1 352.77,-252.1 349.27,-262.1 356.27,-262.1"/>
</g>
<!-- ReachGoal?*** -->
<g id="node26" class="node">
<title>ReachGoal?***</title>
<ellipse fill="gray" stroke="black" cx="449.77" cy="-234" rx="42.29" ry="18"/>
<text text-anchor="middle" x="449.77" y="-231.8" font-family="Times,serif" font-size="9.00">ReachGoal?***</text>
</g>
<!-- Fallback*&#45;&gt;ReachGoal?*** -->
<g id="edge25" class="edge">
<title>Fallback*&#45;&gt;ReachGoal?***</title>
<path fill="none" stroke="black" d="M371.93,-291.17C385.91,-281.08 405.09,-267.24 420.91,-255.82"/>
<polygon fill="black" stroke="black" points="423.24,-258.46 429.3,-249.77 419.14,-252.78 423.24,-258.46"/>
</g>
<!-- GetSubGoal!* -->
<g id="node27" class="node">
<title>GetSubGoal!*</title>
<ellipse fill="gray" stroke="black" cx="548.77" cy="-234" rx="39.02" ry="18"/>
<text text-anchor="middle" x="548.77" y="-231.8" font-family="Times,serif" font-size="9.00">GetSubGoal!*</text>
</g>
<!-- Fallback*&#45;&gt;GetSubGoal!* -->
<g id="edge26" class="edge">
<title>Fallback*&#45;&gt;GetSubGoal!*</title>
<path fill="none" stroke="black" d="M377.37,-294.48C382.75,-292.27 388.43,-290 393.77,-288 440.75,-270.38 453.34,-268.38 500.77,-252 503.51,-251.05 506.33,-250.07 509.18,-249.07"/>
<polygon fill="black" stroke="black" points="510.56,-252.3 518.83,-245.68 508.24,-245.7 510.56,-252.3"/>
</g>
<!-- LkGraph?* -->
<g id="node28" class="node">
<title>LkGraph?*</title>
<ellipse fill="gray" stroke="black" cx="638.77" cy="-234" rx="32.82" ry="18"/>
<text text-anchor="middle" x="638.77" y="-231.8" font-family="Times,serif" font-size="9.00">LkGraph?*</text>
</g>
<!-- Fallback*&#45;&gt;LkGraph?* -->
<g id="edge27" class="edge">
<title>Fallback*&#45;&gt;LkGraph?*</title>
<path fill="none" stroke="black" d="M376.73,-294.04C382.25,-291.81 388.14,-289.64 393.77,-288 481.72,-262.3 508.71,-277.33 596.77,-252 599.21,-251.3 601.71,-250.5 604.21,-249.64"/>
<polygon fill="black" stroke="black" points="605.58,-252.87 613.75,-246.12 603.15,-246.3 605.58,-252.87"/>
</g>
<!-- ReachGoal?** -->
<g id="node14" class="node">
<title>ReachGoal?**</title>
<ellipse fill="gray" stroke="black" cx="172.77" cy="-162" rx="39.02" ry="18"/>
<text text-anchor="middle" x="172.77" y="-159.8" font-family="Times,serif" font-size="9.00">ReachGoal?**</text>
</g>
<!-- Sequence**&#45;&gt;ReachGoal?** -->
<g id="edge13" class="edge">
<title>Sequence**&#45;&gt;ReachGoal?**</title>
<path fill="none" stroke="black" d="M324.64,-222.06C294.22,-210.23 245.53,-191.3 211.5,-178.06"/>
<polygon fill="black" stroke="black" points="212.47,-174.69 201.89,-174.32 209.94,-181.21 212.47,-174.69"/>
</g>
<!-- LkClose?*** -->
<g id="node15" class="node">
<title>LkClose?***</title>
<ellipse fill="gray" stroke="black" cx="266.77" cy="-162" rx="36.9" ry="18"/>
<text text-anchor="middle" x="266.77" y="-159.8" font-family="Times,serif" font-size="9.00">LkClose?***</text>
</g>
<!-- Sequence**&#45;&gt;LkClose?*** -->
<g id="edge14" class="edge">
<title>Sequence**&#45;&gt;LkClose?***</title>
<path fill="none" stroke="black" d="M333.68,-217.46C321.63,-207.66 305.91,-194.86 292.73,-184.14"/>
<polygon fill="black" stroke="black" points="294.88,-181.37 284.92,-177.77 290.46,-186.8 294.88,-181.37"/>
</g>
<!-- LkGraph? -->
<g id="node16" class="node">
<title>LkGraph?</title>
<ellipse fill="gray" stroke="black" cx="352.77" cy="-162" rx="30.7" ry="18"/>
<text text-anchor="middle" x="352.77" y="-159.8" font-family="Times,serif" font-size="9.00">LkGraph?</text>
</g>
<!-- Sequence**&#45;&gt;LkGraph? -->
<g id="edge15" class="edge">
<title>Sequence**&#45;&gt;LkGraph?</title>
<path fill="none" stroke="black" d="M352.77,-215.7C352.77,-207.98 352.77,-198.71 352.77,-190.11"/>
<polygon fill="black" stroke="black" points="356.27,-190.1 352.77,-180.1 349.27,-190.1 356.27,-190.1"/>
</g>
<!-- NotReadyForSG?** -->
<g id="node17" class="node">
<title>NotReadyForSG?**</title>
<ellipse fill="gray" stroke="black" cx="453.77" cy="-162" rx="51.92" ry="18"/>
<text text-anchor="middle" x="453.77" y="-159.8" font-family="Times,serif" font-size="9.00">NotReadyForSG?**</text>
</g>
<!-- Sequence**&#45;&gt;NotReadyForSG?** -->
<g id="edge16" class="edge">
<title>Sequence**&#45;&gt;NotReadyForSG?**</title>
<path fill="none" stroke="black" d="M373.69,-218.5C387.93,-208.63 407,-195.41 422.97,-184.35"/>
<polygon fill="black" stroke="black" points="425.24,-187.03 431.46,-178.46 421.25,-181.28 425.24,-187.03"/>
</g>
<!-- Fallback** -->
<g id="node18" class="node">
<title>Fallback**</title>
<polygon fill="cyan" stroke="black" points="593.76,-154.54 593.76,-169.46 573.26,-180 544.27,-180 523.77,-169.46 523.77,-154.54 544.27,-144 573.26,-144 593.76,-154.54"/>
<text text-anchor="middle" x="558.77" y="-159.8" font-family="Times,serif" font-size="9.00">Fallback**</text>
</g>
<!-- Sequence**&#45;&gt;Fallback** -->
<g id="edge17" class="edge">
<title>Sequence**&#45;&gt;Fallback**</title>
<path fill="none" stroke="black" d="M381.39,-222.15C387.13,-220.06 393.12,-217.92 398.77,-216 449.88,-198.64 463.78,-197.74 514.77,-180 517.29,-179.12 519.88,-178.19 522.49,-177.24"/>
<polygon fill="black" stroke="black" points="523.74,-180.51 531.88,-173.72 521.29,-173.95 523.74,-180.51"/>
</g>
<!-- GetSubGoal! -->
<g id="node19" class="node">
<title>GetSubGoal!</title>
<ellipse fill="gray" stroke="black" cx="394.77" cy="-90" rx="36.9" ry="18"/>
<text text-anchor="middle" x="394.77" y="-87.8" font-family="Times,serif" font-size="9.00">GetSubGoal!</text>
</g>
<!-- Fallback**&#45;&gt;GetSubGoal! -->
<g id="edge18" class="edge">
<title>Fallback**&#45;&gt;GetSubGoal!</title>
<path fill="none" stroke="black" d="M532.78,-149.91C505.4,-138.22 462.05,-119.72 431.24,-106.57"/>
<polygon fill="black" stroke="black" points="432.29,-103.21 421.72,-102.51 429.54,-109.65 432.29,-103.21"/>
</g>
<!-- MoveTo!* -->
<g id="node20" class="node">
<title>MoveTo!*</title>
<ellipse fill="gray" stroke="black" cx="481.77" cy="-90" rx="31.51" ry="18"/>
<text text-anchor="middle" x="481.77" y="-87.8" font-family="Times,serif" font-size="9.00">MoveTo!*</text>
</g>
<!-- Fallback**&#45;&gt;MoveTo!* -->
<g id="edge19" class="edge">
<title>Fallback**&#45;&gt;MoveTo!*</title>
<path fill="none" stroke="black" d="M541.29,-145.12C530.69,-135.48 517.03,-123.06 505.46,-112.54"/>
<polygon fill="black" stroke="black" points="507.61,-109.76 497.86,-105.63 502.9,-114.94 507.61,-109.76"/>
</g>
<!-- GetLk! -->
<g id="node21" class="node">
<title>GetLk!</title>
<ellipse fill="gray" stroke="black" cx="558.77" cy="-90" rx="27" ry="18"/>
<text text-anchor="middle" x="558.77" y="-87.8" font-family="Times,serif" font-size="9.00">GetLk!</text>
</g>
<!-- Fallback**&#45;&gt;GetLk! -->
<g id="edge20" class="edge">
<title>Fallback**&#45;&gt;GetLk!</title>
<path fill="none" stroke="black" d="M558.77,-143.7C558.77,-135.98 558.77,-126.71 558.77,-118.11"/>
<polygon fill="black" stroke="black" points="562.27,-118.1 558.77,-108.1 555.27,-118.1 562.27,-118.1"/>
</g>
<!-- GetLk!* -->
<g id="node22" class="node">
<title>GetLk!*</title>
<ellipse fill="gray" stroke="black" cx="630.77" cy="-90" rx="27.27" ry="18"/>
<text text-anchor="middle" x="630.77" y="-87.8" font-family="Times,serif" font-size="9.00">GetLk!*</text>
</g>
<!-- Fallback**&#45;&gt;GetLk!* -->
<g id="edge21" class="edge">
<title>Fallback**&#45;&gt;GetLk!*</title>
<path fill="none" stroke="black" d="M575.46,-144.76C585.36,-135.14 598.02,-122.84 608.72,-112.43"/>
<polygon fill="black" stroke="black" points="611.38,-114.73 616.11,-105.25 606.5,-109.71 611.38,-114.73"/>
</g>
<!-- Sequence*** -->
<g id="node23" class="node">
<title>Sequence***</title>
<polygon fill="cyan" stroke="black" points="755.76,-82.54 755.76,-97.46 732.33,-108 699.2,-108 675.78,-97.46 675.78,-82.54 699.2,-72 732.33,-72 755.76,-82.54"/>
<text text-anchor="middle" x="715.77" y="-87.8" font-family="Times,serif" font-size="9.00">Sequence***</text>
</g>
<!-- Fallback**&#45;&gt;Sequence*** -->
<g id="edge22" class="edge">
<title>Fallback**&#45;&gt;Sequence***</title>
<path fill="none" stroke="black" d="M584.34,-149.6C610.02,-138.15 649.86,-120.39 678.94,-107.42"/>
<polygon fill="black" stroke="black" points="680.65,-110.49 688.35,-103.22 677.8,-104.1 680.65,-110.49"/>
</g>
<!-- MoveTo!** -->
<g id="node24" class="node">
<title>MoveTo!**</title>
<ellipse fill="gray" stroke="black" cx="674.77" cy="-18" rx="34.13" ry="18"/>
<text text-anchor="middle" x="674.77" y="-15.8" font-family="Times,serif" font-size="9.00">MoveTo!**</text>
</g>
<!-- Sequence***&#45;&gt;MoveTo!** -->
<g id="edge23" class="edge">
<title>Sequence***&#45;&gt;MoveTo!**</title>
<path fill="none" stroke="black" d="M705.63,-71.7C700.79,-63.44 694.91,-53.39 689.58,-44.3"/>
<polygon fill="black" stroke="black" points="692.58,-42.48 684.5,-35.62 686.54,-46.02 692.58,-42.48"/>
</g>
<!-- GetLk!** -->
<g id="node25" class="node">
<title>GetLk!**</title>
<ellipse fill="gray" stroke="black" cx="756.77" cy="-18" rx="29.39" ry="18"/>
<text text-anchor="middle" x="756.77" y="-15.8" font-family="Times,serif" font-size="9.00">GetLk!**</text>
</g>
<!-- Sequence***&#45;&gt;GetLk!** -->
<g id="edge24" class="edge">
<title>Sequence***&#45;&gt;GetLk!**</title>
<path fill="none" stroke="black" d="M725.9,-71.7C730.81,-63.32 736.79,-53.1 742.18,-43.9"/>
<polygon fill="black" stroke="black" points="745.28,-45.54 747.31,-35.14 739.24,-42 745.28,-45.54"/>
</g>
</g>
</svg>
