<?xml version="1.0" encoding="UTF-8" standalone="no"?>
<!DOCTYPE svg PUBLIC "-//W3C//DTD SVG 1.1//EN"
 "http://www.w3.org/Graphics/SVG/1.1/DTD/svg11.dtd">
<!-- Generated by graphviz version 2.43.0 (0)
 -->
<!-- Title: pastafarianism Pages: 1 -->
<svg width="1305pt" height="476pt"
 viewBox="0.00 0.00 1305.41 476.00" xmlns="http://www.w3.org/2000/svg" xmlns:xlink="http://www.w3.org/1999/xlink">
<g id="graph0" class="graph" transform="scale(1 1) rotate(0) translate(4 472)">
<title>pastafarianism</title>
<polygon fill="white" stroke="transparent" points="-4,4 -4,-472 1301.41,-472 1301.41,4 -4,4"/>
<!-- Fallback -->
<g id="node1" class="node">
<title>Fallback</title>
<polygon fill="cyan" stroke="black" points="641.31,-442.54 641.31,-457.46 624.18,-468 599.95,-468 582.82,-457.46 582.82,-442.54 599.95,-432 624.18,-432 641.31,-442.54"/>
<text text-anchor="middle" x="612.06" y="-447.8" font-family="Times,serif" font-size="9.00">Fallback</text>
</g>
<!-- ReachGoal? -->
<g id="node2" class="node">
<title>ReachGoal?</title>
<ellipse fill="gray" stroke="black" cx="404.06" cy="-378" rx="34.13" ry="18"/>
<text text-anchor="middle" x="404.06" y="-375.8" font-family="Times,serif" font-size="9.00">ReachGoal?</text>
</g>
<!-- Fallback&#45;&gt;ReachGoal? -->
<g id="edge1" class="edge">
<title>Fallback&#45;&gt;ReachGoal?</title>
<path fill="none" stroke="black" d="M585.31,-441C552.52,-431.05 495.36,-413.28 447.06,-396 444.68,-395.15 442.24,-394.25 439.78,-393.33"/>
<polygon fill="black" stroke="black" points="440.93,-390.02 430.34,-389.7 438.42,-396.55 440.93,-390.02"/>
</g>
<!-- LkClose? -->
<g id="node3" class="node">
<title>LkClose?</title>
<ellipse fill="gray" stroke="black" cx="485.06" cy="-378" rx="28.74" ry="18"/>
<text text-anchor="middle" x="485.06" y="-375.8" font-family="Times,serif" font-size="9.00">LkClose?</text>
</g>
<!-- Fallback&#45;&gt;LkClose? -->
<g id="edge2" class="edge">
<title>Fallback&#45;&gt;LkClose?</title>
<path fill="none" stroke="black" d="M591.09,-437.44C570.32,-425.99 538.31,-408.35 514.89,-395.44"/>
<polygon fill="black" stroke="black" points="516.51,-392.34 506.07,-390.58 513.13,-398.47 516.51,-392.34"/>
</g>
<!-- ReachGoal?* -->
<g id="node4" class="node">
<title>ReachGoal?*</title>
<ellipse fill="gray" stroke="black" cx="569.06" cy="-378" rx="36.9" ry="18"/>
<text text-anchor="middle" x="569.06" y="-375.8" font-family="Times,serif" font-size="9.00">ReachGoal?*</text>
</g>
<!-- Fallback&#45;&gt;ReachGoal?* -->
<g id="edge3" class="edge">
<title>Fallback&#45;&gt;ReachGoal?*</title>
<path fill="none" stroke="black" d="M601.43,-431.7C596.36,-423.44 590.19,-413.39 584.6,-404.3"/>
<polygon fill="black" stroke="black" points="587.49,-402.31 579.27,-395.62 581.53,-405.98 587.49,-402.31"/>
</g>
<!-- Sequence -->
<g id="node5" class="node">
<title>Sequence</title>
<polygon fill="cyan" stroke="black" points="686.56,-370.54 686.56,-385.46 668.11,-396 642.02,-396 623.57,-385.46 623.57,-370.54 642.02,-360 668.11,-360 686.56,-370.54"/>
<text text-anchor="middle" x="655.06" y="-375.8" font-family="Times,serif" font-size="9.00">Sequence</text>
</g>
<!-- Fallback&#45;&gt;Sequence -->
<g id="edge4" class="edge">
<title>Fallback&#45;&gt;Sequence</title>
<path fill="none" stroke="black" d="M622.69,-431.7C627.69,-423.56 633.75,-413.69 639.28,-404.7"/>
<polygon fill="black" stroke="black" points="642.3,-406.46 644.56,-396.1 636.34,-402.79 642.3,-406.46"/>
</g>
<!-- LkGraph? -->
<g id="node34" class="node">
<title>LkGraph?</title>
<ellipse fill="gray" stroke="black" cx="735.06" cy="-378" rx="30.7" ry="18"/>
<text text-anchor="middle" x="735.06" y="-375.8" font-family="Times,serif" font-size="9.00">LkGraph?</text>
</g>
<!-- Fallback&#45;&gt;LkGraph? -->
<g id="edge33" class="edge">
<title>Fallback&#45;&gt;LkGraph?</title>
<path fill="none" stroke="black" d="M632.93,-437.13C652.69,-425.88 682.58,-408.87 704.92,-396.15"/>
<polygon fill="black" stroke="black" points="706.72,-399.16 713.68,-391.17 703.26,-393.07 706.72,-399.16"/>
</g>
<!-- ReachGoal?****** -->
<g id="node35" class="node">
<title>ReachGoal?******</title>
<ellipse fill="gray" stroke="black" cx="833.06" cy="-378" rx="49.8" ry="18"/>
<text text-anchor="middle" x="833.06" y="-375.8" font-family="Times,serif" font-size="9.00">ReachGoal?******</text>
</g>
<!-- Fallback&#45;&gt;ReachGoal?****** -->
<g id="edge34" class="edge">
<title>Fallback&#45;&gt;ReachGoal?******</title>
<path fill="none" stroke="black" d="M638.72,-440.56C675.44,-428.93 742.11,-407.81 786.99,-393.59"/>
<polygon fill="black" stroke="black" points="788.3,-396.85 796.78,-390.49 786.19,-390.18 788.3,-396.85"/>
</g>
<!-- Fallback* -->
<g id="node6" class="node">
<title>Fallback*</title>
<polygon fill="cyan" stroke="black" points="644.81,-298.54 644.81,-313.46 626.21,-324 599.92,-324 581.32,-313.46 581.32,-298.54 599.92,-288 626.21,-288 644.81,-298.54"/>
<text text-anchor="middle" x="613.06" y="-303.8" font-family="Times,serif" font-size="9.00">Fallback*</text>
</g>
<!-- Sequence&#45;&gt;Fallback* -->
<g id="edge5" class="edge">
<title>Sequence&#45;&gt;Fallback*</title>
<path fill="none" stroke="black" d="M644.68,-359.7C639.8,-351.56 633.88,-341.69 628.48,-332.7"/>
<polygon fill="black" stroke="black" points="631.47,-330.88 623.33,-324.1 625.47,-334.48 631.47,-330.88"/>
</g>
<!-- MoveTo!** -->
<g id="node33" class="node">
<title>MoveTo!**</title>
<ellipse fill="gray" stroke="black" cx="697.06" cy="-306" rx="34.13" ry="18"/>
<text text-anchor="middle" x="697.06" y="-303.8" font-family="Times,serif" font-size="9.00">MoveTo!**</text>
</g>
<!-- Sequence&#45;&gt;MoveTo!** -->
<g id="edge32" class="edge">
<title>Sequence&#45;&gt;MoveTo!**</title>
<path fill="none" stroke="black" d="M665.45,-359.7C670.4,-351.44 676.43,-341.39 681.88,-332.3"/>
<polygon fill="black" stroke="black" points="684.95,-334 687.09,-323.62 678.94,-330.4 684.95,-334"/>
</g>
<!-- LkClose?* -->
<g id="node7" class="node">
<title>LkClose?*</title>
<ellipse fill="gray" stroke="black" cx="256.06" cy="-234" rx="31.51" ry="18"/>
<text text-anchor="middle" x="256.06" y="-231.8" font-family="Times,serif" font-size="9.00">LkClose?*</text>
</g>
<!-- Fallback*&#45;&gt;LkClose?* -->
<g id="edge6" class="edge">
<title>Fallback*&#45;&gt;LkClose?*</title>
<path fill="none" stroke="black" d="M581.14,-302.06C523.51,-296.24 398.65,-281.17 297.06,-252 294.6,-251.29 292.09,-250.48 289.57,-249.61"/>
<polygon fill="black" stroke="black" points="290.61,-246.26 280.02,-246 288.14,-252.81 290.61,-246.26"/>
</g>
<!-- NotReadyForSG? -->
<g id="node8" class="node">
<title>NotReadyForSG?</title>
<ellipse fill="gray" stroke="black" cx="353.06" cy="-234" rx="46.53" ry="18"/>
<text text-anchor="middle" x="353.06" y="-231.8" font-family="Times,serif" font-size="9.00">NotReadyForSG?</text>
</g>
<!-- Fallback*&#45;&gt;NotReadyForSG? -->
<g id="edge7" class="edge">
<title>Fallback*&#45;&gt;NotReadyForSG?</title>
<path fill="none" stroke="black" d="M582.89,-297.57C542.98,-287.64 470.53,-269.31 409.06,-252 405.48,-250.99 401.77,-249.92 398.05,-248.83"/>
<polygon fill="black" stroke="black" points="398.83,-245.41 388.25,-245.92 396.84,-252.12 398.83,-245.41"/>
</g>
<!-- Sequence* -->
<g id="node9" class="node">
<title>Sequence*</title>
<polygon fill="cyan" stroke="black" points="486.31,-226.54 486.31,-241.46 466.25,-252 437.88,-252 417.82,-241.46 417.82,-226.54 437.88,-216 466.25,-216 486.31,-226.54"/>
<text text-anchor="middle" x="452.06" y="-231.8" font-family="Times,serif" font-size="9.00">Sequence*</text>
</g>
<!-- Fallback*&#45;&gt;Sequence* -->
<g id="edge8" class="edge">
<title>Fallback*&#45;&gt;Sequence*</title>
<path fill="none" stroke="black" d="M588.61,-294.37C561.54,-282.6 517.69,-263.53 487.01,-250.19"/>
<polygon fill="black" stroke="black" points="488.11,-246.86 477.55,-246.08 485.32,-253.28 488.11,-246.86"/>
</g>
<!-- Sequence*** -->
<g id="node24" class="node">
<title>Sequence***</title>
<polygon fill="cyan" stroke="black" points="817.05,-226.54 817.05,-241.46 793.63,-252 760.5,-252 737.07,-241.46 737.07,-226.54 760.5,-216 793.63,-216 817.05,-226.54"/>
<text text-anchor="middle" x="777.06" y="-231.8" font-family="Times,serif" font-size="9.00">Sequence***</text>
</g>
<!-- Fallback*&#45;&gt;Sequence*** -->
<g id="edge23" class="edge">
<title>Fallback*&#45;&gt;Sequence***</title>
<path fill="none" stroke="black" d="M637.97,-294.37C665.09,-282.79 708.76,-264.15 739.93,-250.85"/>
<polygon fill="black" stroke="black" points="741.35,-254.05 749.17,-246.91 738.6,-247.61 741.35,-254.05"/>
</g>
<!-- Sequence**** -->
<g id="node28" class="node">
<title>Sequence****</title>
<polygon fill="cyan" stroke="black" points="1069.55,-226.54 1069.55,-241.46 1044.66,-252 1009.46,-252 984.57,-241.46 984.57,-226.54 1009.46,-216 1044.66,-216 1069.55,-226.54"/>
<text text-anchor="middle" x="1027.06" y="-231.8" font-family="Times,serif" font-size="9.00">Sequence****</text>
</g>
<!-- Fallback*&#45;&gt;Sequence**** -->
<g id="edge27" class="edge">
<title>Fallback*&#45;&gt;Sequence****</title>
<path fill="none" stroke="black" d="M636.99,-293.9C642.51,-291.67 648.42,-289.55 654.06,-288 765.61,-257.48 900.99,-243.83 974.08,-238.32"/>
<polygon fill="black" stroke="black" points="974.69,-241.78 984.41,-237.56 974.18,-234.8 974.69,-241.78"/>
</g>
<!-- GetSubGoal! -->
<g id="node32" class="node">
<title>GetSubGoal!</title>
<ellipse fill="gray" stroke="black" cx="1124.06" cy="-234" rx="36.9" ry="18"/>
<text text-anchor="middle" x="1124.06" y="-231.8" font-family="Times,serif" font-size="9.00">GetSubGoal!</text>
</g>
<!-- Fallback*&#45;&gt;GetSubGoal! -->
<g id="edge31" class="edge">
<title>Fallback*&#45;&gt;GetSubGoal!</title>
<path fill="none" stroke="black" d="M636.93,-293.66C642.45,-291.45 648.37,-289.39 654.06,-288 837.82,-243.25 893.47,-293.15 1078.06,-252 1081.04,-251.34 1084.09,-250.52 1087.13,-249.62"/>
<polygon fill="black" stroke="black" points="1088.29,-252.92 1096.7,-246.48 1086.1,-246.27 1088.29,-252.92"/>
</g>
<!-- LkClose?** -->
<g id="node10" class="node">
<title>LkClose?**</title>
<ellipse fill="gray" stroke="black" cx="34.06" cy="-162" rx="34.13" ry="18"/>
<text text-anchor="middle" x="34.06" y="-159.8" font-family="Times,serif" font-size="9.00">LkClose?**</text>
</g>
<!-- Sequence*&#45;&gt;LkClose?** -->
<g id="edge9" class="edge">
<title>Sequence*&#45;&gt;LkClose?**</title>
<path fill="none" stroke="black" d="M426.51,-221.6C420.86,-219.45 414.83,-217.43 409.06,-216 264.98,-180.4 221.15,-215.6 77.06,-180 74.29,-179.31 71.45,-178.49 68.63,-177.58"/>
<polygon fill="black" stroke="black" points="69.75,-174.27 59.16,-174.22 67.42,-180.86 69.75,-174.27"/>
</g>
<!-- GetLk! -->
<g id="node11" class="node">
<title>GetLk!</title>
<ellipse fill="gray" stroke="black" cx="113.06" cy="-162" rx="27" ry="18"/>
<text text-anchor="middle" x="113.06" y="-159.8" font-family="Times,serif" font-size="9.00">GetLk!</text>
</g>
<!-- Sequence*&#45;&gt;GetLk! -->
<g id="edge10" class="edge">
<title>Sequence*&#45;&gt;GetLk!</title>
<path fill="none" stroke="black" d="M426.48,-221.73C420.83,-219.57 414.81,-217.51 409.06,-216 296.24,-186.34 260.87,-213.29 149.06,-180 147.13,-179.42 145.16,-178.76 143.2,-178.03"/>
<polygon fill="black" stroke="black" points="144.16,-174.63 133.58,-174 141.45,-181.09 144.16,-174.63"/>
</g>
<!-- NotReadyForSG?* -->
<g id="node12" class="node">
<title>NotReadyForSG?*</title>
<ellipse fill="gray" stroke="black" cx="208.06" cy="-162" rx="49.8" ry="18"/>
<text text-anchor="middle" x="208.06" y="-159.8" font-family="Times,serif" font-size="9.00">NotReadyForSG?*</text>
</g>
<!-- Sequence*&#45;&gt;NotReadyForSG?* -->
<g id="edge11" class="edge">
<title>Sequence*&#45;&gt;NotReadyForSG?*</title>
<path fill="none" stroke="black" d="M425.88,-222.03C420.37,-219.9 414.56,-217.78 409.06,-216 347.11,-195.99 329.91,-197.02 267.06,-180 263.24,-178.96 259.28,-177.87 255.3,-176.76"/>
<polygon fill="black" stroke="black" points="256.04,-173.33 245.47,-173.97 254.14,-180.06 256.04,-173.33"/>
</g>
<!-- Fallback** -->
<g id="node13" class="node">
<title>Fallback**</title>
<polygon fill="cyan" stroke="black" points="346.05,-154.54 346.05,-169.46 325.56,-180 296.57,-180 276.07,-169.46 276.07,-154.54 296.57,-144 325.56,-144 346.05,-154.54"/>
<text text-anchor="middle" x="311.06" y="-159.8" font-family="Times,serif" font-size="9.00">Fallback**</text>
</g>
<!-- Sequence*&#45;&gt;Fallback** -->
<g id="edge12" class="edge">
<title>Sequence*&#45;&gt;Fallback**</title>
<path fill="none" stroke="black" d="M427.82,-220.97C404.82,-209.55 370.06,-192.29 344.44,-179.57"/>
<polygon fill="black" stroke="black" points="345.97,-176.42 335.46,-175.11 342.86,-182.69 345.97,-176.42"/>
</g>
<!-- ReachGoal?** -->
<g id="node21" class="node">
<title>ReachGoal?**</title>
<ellipse fill="gray" stroke="black" cx="403.06" cy="-162" rx="39.02" ry="18"/>
<text text-anchor="middle" x="403.06" y="-159.8" font-family="Times,serif" font-size="9.00">ReachGoal?**</text>
</g>
<!-- Sequence*&#45;&gt;ReachGoal?** -->
<g id="edge20" class="edge">
<title>Sequence*&#45;&gt;ReachGoal?**</title>
<path fill="none" stroke="black" d="M439.95,-215.7C434.11,-207.35 426.99,-197.18 420.57,-188.02"/>
<polygon fill="black" stroke="black" points="423.3,-185.81 414.7,-179.62 417.57,-189.82 423.3,-185.81"/>
</g>
<!-- LkClose?***** -->
<g id="node22" class="node">
<title>LkClose?*****</title>
<ellipse fill="gray" stroke="black" cx="502.06" cy="-162" rx="42.29" ry="18"/>
<text text-anchor="middle" x="502.06" y="-159.8" font-family="Times,serif" font-size="9.00">LkClose?*****</text>
</g>
<!-- Sequence*&#45;&gt;LkClose?***** -->
<g id="edge21" class="edge">
<title>Sequence*&#45;&gt;LkClose?*****</title>
<path fill="none" stroke="black" d="M464.42,-215.7C470.38,-207.35 477.65,-197.18 484.2,-188.02"/>
<polygon fill="black" stroke="black" points="487.23,-189.79 490.19,-179.62 481.53,-185.73 487.23,-189.79"/>
</g>
<!-- CompLkGraph!* -->
<g id="node23" class="node">
<title>CompLkGraph!*</title>
<ellipse fill="gray" stroke="black" cx="607.06" cy="-162" rx="45.07" ry="18"/>
<text text-anchor="middle" x="607.06" y="-159.8" font-family="Times,serif" font-size="9.00">CompLkGraph!*</text>
</g>
<!-- Sequence*&#45;&gt;CompLkGraph!* -->
<g id="edge22" class="edge">
<title>Sequence*&#45;&gt;CompLkGraph!*</title>
<path fill="none" stroke="black" d="M477.31,-221.6C502.21,-210.36 540.56,-193.03 569.13,-180.13"/>
<polygon fill="black" stroke="black" points="570.73,-183.25 578.4,-175.94 567.85,-176.87 570.73,-183.25"/>
</g>
<!-- NotReadyForSG?** -->
<g id="node14" class="node">
<title>NotReadyForSG?**</title>
<ellipse fill="gray" stroke="black" cx="158.06" cy="-90" rx="51.92" ry="18"/>
<text text-anchor="middle" x="158.06" y="-87.8" font-family="Times,serif" font-size="9.00">NotReadyForSG?**</text>
</g>
<!-- Fallback**&#45;&gt;NotReadyForSG?** -->
<g id="edge13" class="edge">
<title>Fallback**&#45;&gt;NotReadyForSG?**</title>
<path fill="none" stroke="black" d="M285.8,-149.44C261.81,-138.46 225.37,-121.79 197.55,-109.06"/>
<polygon fill="black" stroke="black" points="198.65,-105.72 188.1,-104.74 195.73,-112.08 198.65,-105.72"/>
</g>
<!-- LkClose?*** -->
<g id="node15" class="node">
<title>LkClose?***</title>
<ellipse fill="gray" stroke="black" cx="265.06" cy="-90" rx="36.9" ry="18"/>
<text text-anchor="middle" x="265.06" y="-87.8" font-family="Times,serif" font-size="9.00">LkClose?***</text>
</g>
<!-- Fallback**&#45;&gt;LkClose?*** -->
<g id="edge14" class="edge">
<title>Fallback**&#45;&gt;LkClose?***</title>
<path fill="none" stroke="black" d="M299.69,-143.7C294.21,-135.35 287.53,-125.18 281.5,-116.02"/>
<polygon fill="black" stroke="black" points="284.4,-114.06 275.99,-107.62 278.55,-117.9 284.4,-114.06"/>
</g>
<!-- Sequence** -->
<g id="node16" class="node">
<title>Sequence**</title>
<polygon fill="cyan" stroke="black" points="393.8,-82.54 393.8,-97.46 372.28,-108 341.85,-108 320.32,-97.46 320.32,-82.54 341.85,-72 372.28,-72 393.8,-82.54"/>
<text text-anchor="middle" x="357.06" y="-87.8" font-family="Times,serif" font-size="9.00">Sequence**</text>
</g>
<!-- Fallback**&#45;&gt;Sequence** -->
<g id="edge15" class="edge">
<title>Fallback**&#45;&gt;Sequence**</title>
<path fill="none" stroke="black" d="M322.43,-143.7C327.78,-135.56 334.27,-125.69 340.17,-116.7"/>
<polygon fill="black" stroke="black" points="343.26,-118.38 345.82,-108.1 337.41,-114.54 343.26,-118.38"/>
</g>
<!-- CompLkGraph! -->
<g id="node20" class="node">
<title>CompLkGraph!</title>
<ellipse fill="gray" stroke="black" cx="455.06" cy="-90" rx="42.95" ry="18"/>
<text text-anchor="middle" x="455.06" y="-87.8" font-family="Times,serif" font-size="9.00">CompLkGraph!</text>
</g>
<!-- Fallback**&#45;&gt;CompLkGraph! -->
<g id="edge19" class="edge">
<title>Fallback**&#45;&gt;CompLkGraph!</title>
<path fill="none" stroke="black" d="M335.82,-148.97C358.74,-137.83 393.09,-121.13 419.04,-108.51"/>
<polygon fill="black" stroke="black" points="420.73,-111.58 428.19,-104.06 417.67,-105.29 420.73,-111.58"/>
</g>
<!-- MoveTo! -->
<g id="node17" class="node">
<title>MoveTo!</title>
<ellipse fill="gray" stroke="black" cx="283.06" cy="-18" rx="28.74" ry="18"/>
<text text-anchor="middle" x="283.06" y="-15.8" font-family="Times,serif" font-size="9.00">MoveTo!</text>
</g>
<!-- Sequence**&#45;&gt;MoveTo! -->
<g id="edge16" class="edge">
<title>Sequence**&#45;&gt;MoveTo!</title>
<path fill="none" stroke="black" d="M339.9,-72.76C329.87,-63.27 317.07,-51.17 306.17,-40.85"/>
<polygon fill="black" stroke="black" points="308.29,-38.05 298.62,-33.72 303.48,-43.13 308.29,-38.05"/>
</g>
<!-- GetLk!* -->
<g id="node18" class="node">
<title>GetLk!*</title>
<ellipse fill="gray" stroke="black" cx="357.06" cy="-18" rx="27.27" ry="18"/>
<text text-anchor="middle" x="357.06" y="-15.8" font-family="Times,serif" font-size="9.00">GetLk!*</text>
</g>
<!-- Sequence**&#45;&gt;GetLk!* -->
<g id="edge17" class="edge">
<title>Sequence**&#45;&gt;GetLk!*</title>
<path fill="none" stroke="black" d="M357.06,-71.7C357.06,-63.98 357.06,-54.71 357.06,-46.11"/>
<polygon fill="black" stroke="black" points="360.56,-46.1 357.06,-36.1 353.56,-46.1 360.56,-46.1"/>
</g>
<!-- LkClose?**** -->
<g id="node19" class="node">
<title>LkClose?****</title>
<ellipse fill="gray" stroke="black" cx="441.06" cy="-18" rx="39.02" ry="18"/>
<text text-anchor="middle" x="441.06" y="-15.8" font-family="Times,serif" font-size="9.00">LkClose?****</text>
</g>
<!-- Sequence**&#45;&gt;LkClose?**** -->
<g id="edge18" class="edge">
<title>Sequence**&#45;&gt;LkClose?****</title>
<path fill="none" stroke="black" d="M375.71,-73.46C387.28,-63.82 402.33,-51.28 415.07,-40.66"/>
<polygon fill="black" stroke="black" points="417.61,-43.1 423.05,-34.01 413.13,-37.72 417.61,-43.1"/>
</g>
<!-- NotReadyForSG?*** -->
<g id="node25" class="node">
<title>NotReadyForSG?***</title>
<ellipse fill="gray" stroke="black" cx="725.06" cy="-162" rx="54.7" ry="18"/>
<text text-anchor="middle" x="725.06" y="-159.8" font-family="Times,serif" font-size="9.00">NotReadyForSG?***</text>
</g>
<!-- Sequence***&#45;&gt;NotReadyForSG?*** -->
<g id="edge24" class="edge">
<title>Sequence***&#45;&gt;NotReadyForSG?***</title>
<path fill="none" stroke="black" d="M764.21,-215.7C757.95,-207.27 750.3,-196.97 743.44,-187.73"/>
<polygon fill="black" stroke="black" points="746.18,-185.56 737.41,-179.62 740.57,-189.74 746.18,-185.56"/>
</g>
<!-- MoveTo!* -->
<g id="node26" class="node">
<title>MoveTo!*</title>
<ellipse fill="gray" stroke="black" cx="830.06" cy="-162" rx="31.51" ry="18"/>
<text text-anchor="middle" x="830.06" y="-159.8" font-family="Times,serif" font-size="9.00">MoveTo!*</text>
</g>
<!-- Sequence***&#45;&gt;MoveTo!* -->
<g id="edge25" class="edge">
<title>Sequence***&#45;&gt;MoveTo!*</title>
<path fill="none" stroke="black" d="M790.16,-215.7C796.64,-207.14 804.57,-196.67 811.65,-187.33"/>
<polygon fill="black" stroke="black" points="814.59,-189.23 817.84,-179.14 809.01,-185 814.59,-189.23"/>
</g>
<!-- ReachGoal?*** -->
<g id="node27" class="node">
<title>ReachGoal?***</title>
<ellipse fill="gray" stroke="black" cx="922.06" cy="-162" rx="42.29" ry="18"/>
<text text-anchor="middle" x="922.06" y="-159.8" font-family="Times,serif" font-size="9.00">ReachGoal?***</text>
</g>
<!-- Sequence***&#45;&gt;ReachGoal?*** -->
<g id="edge26" class="edge">
<title>Sequence***&#45;&gt;ReachGoal?***</title>
<path fill="none" stroke="black" d="M803.32,-220.32C826.44,-209.17 860.31,-192.81 885.97,-180.42"/>
<polygon fill="black" stroke="black" points="887.53,-183.56 895.02,-176.06 884.49,-177.25 887.53,-183.56"/>
</g>
<!-- ReachGoal?**** -->
<g id="node29" class="node">
<title>ReachGoal?****</title>
<ellipse fill="gray" stroke="black" cx="1027.06" cy="-162" rx="44.41" ry="18"/>
<text text-anchor="middle" x="1027.06" y="-159.8" font-family="Times,serif" font-size="9.00">ReachGoal?****</text>
</g>
<!-- Sequence****&#45;&gt;ReachGoal?**** -->
<g id="edge28" class="edge">
<title>Sequence****&#45;&gt;ReachGoal?****</title>
<path fill="none" stroke="black" d="M1027.06,-215.7C1027.06,-207.98 1027.06,-198.71 1027.06,-190.11"/>
<polygon fill="black" stroke="black" points="1030.56,-190.1 1027.06,-180.1 1023.56,-190.1 1030.56,-190.1"/>
</g>
<!-- CompLkGraph!** -->
<g id="node30" class="node">
<title>CompLkGraph!**</title>
<ellipse fill="gray" stroke="black" cx="1137.06" cy="-162" rx="47.84" ry="18"/>
<text text-anchor="middle" x="1137.06" y="-159.8" font-family="Times,serif" font-size="9.00">CompLkGraph!**</text>
</g>
<!-- Sequence****&#45;&gt;CompLkGraph!** -->
<g id="edge29" class="edge">
<title>Sequence****&#45;&gt;CompLkGraph!**</title>
<path fill="none" stroke="black" d="M1050.39,-218.15C1066.29,-208.04 1087.54,-194.52 1105.02,-183.39"/>
<polygon fill="black" stroke="black" points="1107.21,-186.15 1113.77,-177.82 1103.45,-180.24 1107.21,-186.15"/>
</g>
<!-- ReachGoal?***** -->
<g id="node31" class="node">
<title>ReachGoal?*****</title>
<ellipse fill="gray" stroke="black" cx="1250.06" cy="-162" rx="47.19" ry="18"/>
<text text-anchor="middle" x="1250.06" y="-159.8" font-family="Times,serif" font-size="9.00">ReachGoal?*****</text>
</g>
<!-- Sequence****&#45;&gt;ReachGoal?***** -->
<g id="edge30" class="edge">
<title>Sequence****&#45;&gt;ReachGoal?*****</title>
<path fill="none" stroke="black" d="M1059.4,-222.1C1065.59,-220.05 1072.02,-217.94 1078.06,-216 1101.66,-208.43 1162.07,-189.89 1204.6,-176.88"/>
<polygon fill="black" stroke="black" points="1205.64,-180.22 1214.18,-173.95 1203.6,-173.53 1205.64,-180.22"/>
</g>
</g>
</svg>
