<?xml version="1.0" encoding="UTF-8" standalone="no"?>
<!DOCTYPE svg PUBLIC "-//W3C//DTD SVG 1.1//EN"
 "http://www.w3.org/Graphics/SVG/1.1/DTD/svg11.dtd">
<!-- Generated by graphviz version 2.43.0 (0)
 -->
<!-- Title: pastafarianism Pages: 1 -->
<svg width="1116pt" height="476pt"
 viewBox="0.00 0.00 1115.79 476.00" xmlns="http://www.w3.org/2000/svg" xmlns:xlink="http://www.w3.org/1999/xlink">
<g id="graph0" class="graph" transform="scale(1 1) rotate(0) translate(4 472)">
<title>pastafarianism</title>
<polygon fill="white" stroke="transparent" points="-4,4 -4,-472 1111.79,-472 1111.79,4 -4,4"/>
<!-- Fallback -->
<g id="node1" class="node">
<title>Fallback</title>
<polygon fill="cyan" stroke="black" points="289.31,-442.54 289.31,-457.46 272.18,-468 247.95,-468 230.82,-457.46 230.82,-442.54 247.95,-432 272.18,-432 289.31,-442.54"/>
<text text-anchor="middle" x="260.06" y="-447.8" font-family="Times,serif" font-size="9.00">Fallback</text>
</g>
<!-- LkClose? -->
<g id="node2" class="node">
<title>LkClose?</title>
<ellipse fill="gray" stroke="black" cx="95.06" cy="-378" rx="28.74" ry="18"/>
<text text-anchor="middle" x="95.06" y="-375.8" font-family="Times,serif" font-size="9.00">LkClose?</text>
</g>
<!-- Fallback&#45;&gt;LkClose? -->
<g id="edge1" class="edge">
<title>Fallback&#45;&gt;LkClose?</title>
<path fill="none" stroke="black" d="M236.11,-439.22C210.52,-428.71 168.81,-411.45 133.06,-396 131.22,-395.2 129.33,-394.38 127.43,-393.55"/>
<polygon fill="black" stroke="black" points="128.49,-390.19 117.93,-389.34 125.66,-396.59 128.49,-390.19"/>
</g>
<!-- ReachGoal? -->
<g id="node3" class="node">
<title>ReachGoal?</title>
<ellipse fill="gray" stroke="black" cx="176.06" cy="-378" rx="34.13" ry="18"/>
<text text-anchor="middle" x="176.06" y="-375.8" font-family="Times,serif" font-size="9.00">ReachGoal?</text>
</g>
<!-- Fallback&#45;&gt;ReachGoal? -->
<g id="edge2" class="edge">
<title>Fallback&#45;&gt;ReachGoal?</title>
<path fill="none" stroke="black" d="M243.07,-434.83C231.16,-424.91 215.03,-411.47 201.58,-400.26"/>
<polygon fill="black" stroke="black" points="203.54,-397.34 193.62,-393.63 199.06,-402.72 203.54,-397.34"/>
</g>
<!-- LkClose?* -->
<g id="node4" class="node">
<title>LkClose?*</title>
<ellipse fill="gray" stroke="black" cx="260.06" cy="-378" rx="31.51" ry="18"/>
<text text-anchor="middle" x="260.06" y="-375.8" font-family="Times,serif" font-size="9.00">LkClose?*</text>
</g>
<!-- Fallback&#45;&gt;LkClose?* -->
<g id="edge3" class="edge">
<title>Fallback&#45;&gt;LkClose?*</title>
<path fill="none" stroke="black" d="M260.06,-431.7C260.06,-423.98 260.06,-414.71 260.06,-406.11"/>
<polygon fill="black" stroke="black" points="263.56,-406.1 260.06,-396.1 256.56,-406.1 263.56,-406.1"/>
</g>
<!-- ReachGoal?* -->
<g id="node5" class="node">
<title>ReachGoal?*</title>
<ellipse fill="gray" stroke="black" cx="347.06" cy="-378" rx="36.9" ry="18"/>
<text text-anchor="middle" x="347.06" y="-375.8" font-family="Times,serif" font-size="9.00">ReachGoal?*</text>
</g>
<!-- Fallback&#45;&gt;ReachGoal?* -->
<g id="edge4" class="edge">
<title>Fallback&#45;&gt;ReachGoal?*</title>
<path fill="none" stroke="black" d="M277.67,-434.83C290.04,-424.88 306.8,-411.4 320.75,-400.17"/>
<polygon fill="black" stroke="black" points="322.99,-402.87 328.58,-393.87 318.6,-397.41 322.99,-402.87"/>
</g>
<!-- Sequence -->
<g id="node6" class="node">
<title>Sequence</title>
<polygon fill="cyan" stroke="black" points="464.56,-370.54 464.56,-385.46 446.11,-396 420.02,-396 401.57,-385.46 401.57,-370.54 420.02,-360 446.11,-360 464.56,-370.54"/>
<text text-anchor="middle" x="433.06" y="-375.8" font-family="Times,serif" font-size="9.00">Sequence</text>
</g>
<!-- Fallback&#45;&gt;Sequence -->
<g id="edge5" class="edge">
<title>Fallback&#45;&gt;Sequence</title>
<path fill="none" stroke="black" d="M284.64,-439.4C311.39,-428.91 355.37,-411.52 393.06,-396 395.1,-395.16 397.2,-394.29 399.31,-393.41"/>
<polygon fill="black" stroke="black" points="400.7,-396.62 408.56,-389.52 397.99,-390.17 400.7,-396.62"/>
</g>
<!-- Fallback* -->
<g id="node7" class="node">
<title>Fallback*</title>
<polygon fill="cyan" stroke="black" points="377.81,-298.54 377.81,-313.46 359.21,-324 332.92,-324 314.32,-313.46 314.32,-298.54 332.92,-288 359.21,-288 377.81,-298.54"/>
<text text-anchor="middle" x="346.06" y="-303.8" font-family="Times,serif" font-size="9.00">Fallback*</text>
</g>
<!-- Sequence&#45;&gt;Fallback* -->
<g id="edge6" class="edge">
<title>Sequence&#45;&gt;Fallback*</title>
<path fill="none" stroke="black" d="M415.04,-362.5C402.67,-352.55 386.07,-339.19 372.25,-328.07"/>
<polygon fill="black" stroke="black" points="374.05,-325.03 364.07,-321.49 369.66,-330.48 374.05,-325.03"/>
</g>
<!-- MoveTo!*** -->
<g id="node33" class="node">
<title>MoveTo!***</title>
<ellipse fill="gray" stroke="black" cx="433.06" cy="-306" rx="36.9" ry="18"/>
<text text-anchor="middle" x="433.06" y="-303.8" font-family="Times,serif" font-size="9.00">MoveTo!***</text>
</g>
<!-- Sequence&#45;&gt;MoveTo!*** -->
<g id="edge32" class="edge">
<title>Sequence&#45;&gt;MoveTo!***</title>
<path fill="none" stroke="black" d="M433.06,-359.7C433.06,-351.98 433.06,-342.71 433.06,-334.11"/>
<polygon fill="black" stroke="black" points="436.56,-334.1 433.06,-324.1 429.56,-334.1 436.56,-334.1"/>
</g>
<!-- ReachGoal?***** -->
<g id="node34" class="node">
<title>ReachGoal?*****</title>
<ellipse fill="gray" stroke="black" cx="535.06" cy="-306" rx="47.19" ry="18"/>
<text text-anchor="middle" x="535.06" y="-303.8" font-family="Times,serif" font-size="9.00">ReachGoal?*****</text>
</g>
<!-- Sequence&#45;&gt;ReachGoal?***** -->
<g id="edge33" class="edge">
<title>Sequence&#45;&gt;ReachGoal?*****</title>
<path fill="none" stroke="black" d="M452.73,-363.5C467.42,-353.42 487.77,-339.45 504.57,-327.93"/>
<polygon fill="black" stroke="black" points="506.71,-330.7 512.98,-322.16 502.75,-324.93 506.71,-330.7"/>
</g>
<!-- NotReadyForSG? -->
<g id="node8" class="node">
<title>NotReadyForSG?</title>
<ellipse fill="gray" stroke="black" cx="102.06" cy="-234" rx="46.53" ry="18"/>
<text text-anchor="middle" x="102.06" y="-231.8" font-family="Times,serif" font-size="9.00">NotReadyForSG?</text>
</g>
<!-- Fallback*&#45;&gt;NotReadyForSG? -->
<g id="edge7" class="edge">
<title>Fallback*&#45;&gt;NotReadyForSG?</title>
<path fill="none" stroke="black" d="M316.86,-297.07C279.66,-286.9 213.45,-268.62 157.06,-252 153.75,-251.02 150.33,-250 146.89,-248.96"/>
<polygon fill="black" stroke="black" points="147.82,-245.59 137.23,-246.02 145.78,-252.28 147.82,-245.59"/>
</g>
<!-- LkGraph? -->
<g id="node9" class="node">
<title>LkGraph?</title>
<ellipse fill="gray" stroke="black" cx="197.06" cy="-234" rx="30.7" ry="18"/>
<text text-anchor="middle" x="197.06" y="-231.8" font-family="Times,serif" font-size="9.00">LkGraph?</text>
</g>
<!-- Fallback*&#45;&gt;LkGraph? -->
<g id="edge8" class="edge">
<title>Fallback*&#45;&gt;LkGraph?</title>
<path fill="none" stroke="black" d="M322.45,-293.91C297.5,-282.18 257.94,-263.6 229.94,-250.45"/>
<polygon fill="black" stroke="black" points="231.1,-247.12 220.56,-246.04 228.13,-253.46 231.1,-247.12"/>
</g>
<!-- NotReadyForSG?* -->
<g id="node10" class="node">
<title>NotReadyForSG?*</title>
<ellipse fill="gray" stroke="black" cx="295.06" cy="-234" rx="49.8" ry="18"/>
<text text-anchor="middle" x="295.06" y="-231.8" font-family="Times,serif" font-size="9.00">NotReadyForSG?*</text>
</g>
<!-- Fallback*&#45;&gt;NotReadyForSG?* -->
<g id="edge9" class="edge">
<title>Fallback*&#45;&gt;NotReadyForSG?*</title>
<path fill="none" stroke="black" d="M333.46,-287.7C327.31,-279.27 319.82,-268.97 313.08,-259.73"/>
<polygon fill="black" stroke="black" points="315.89,-257.64 307.17,-251.62 310.23,-261.77 315.89,-257.64"/>
</g>
<!-- Sequence* -->
<g id="node11" class="node">
<title>Sequence*</title>
<polygon fill="cyan" stroke="black" points="431.31,-226.54 431.31,-241.46 411.25,-252 382.88,-252 362.82,-241.46 362.82,-226.54 382.88,-216 411.25,-216 431.31,-226.54"/>
<text text-anchor="middle" x="397.06" y="-231.8" font-family="Times,serif" font-size="9.00">Sequence*</text>
</g>
<!-- Fallback*&#45;&gt;Sequence* -->
<g id="edge10" class="edge">
<title>Fallback*&#45;&gt;Sequence*</title>
<path fill="none" stroke="black" d="M358.67,-287.7C364.66,-279.47 371.94,-269.48 378.54,-260.42"/>
<polygon fill="black" stroke="black" points="381.54,-262.25 384.6,-252.1 375.88,-258.13 381.54,-262.25"/>
</g>
<!-- ReachGoal?**** -->
<g id="node31" class="node">
<title>ReachGoal?****</title>
<ellipse fill="gray" stroke="black" cx="494.06" cy="-234" rx="44.41" ry="18"/>
<text text-anchor="middle" x="494.06" y="-231.8" font-family="Times,serif" font-size="9.00">ReachGoal?****</text>
</g>
<!-- Fallback*&#45;&gt;ReachGoal?**** -->
<g id="edge30" class="edge">
<title>Fallback*&#45;&gt;ReachGoal?****</title>
<path fill="none" stroke="black" d="M369.84,-293.75C393.38,-282.62 429.75,-265.42 457.06,-252.5"/>
<polygon fill="black" stroke="black" points="458.77,-255.57 466.31,-248.13 455.77,-249.24 458.77,-255.57"/>
</g>
<!-- GetSubGoal!** -->
<g id="node32" class="node">
<title>GetSubGoal!**</title>
<ellipse fill="gray" stroke="black" cx="599.06" cy="-234" rx="42.29" ry="18"/>
<text text-anchor="middle" x="599.06" y="-231.8" font-family="Times,serif" font-size="9.00">GetSubGoal!**</text>
</g>
<!-- Fallback*&#45;&gt;GetSubGoal!** -->
<g id="edge31" class="edge">
<title>Fallback*&#45;&gt;GetSubGoal!**</title>
<path fill="none" stroke="black" d="M370.53,-294.05C375.91,-291.87 381.63,-289.72 387.06,-288 456.54,-265.96 476.79,-271.35 547.06,-252 550.46,-251.06 553.97,-250.04 557.48,-248.98"/>
<polygon fill="black" stroke="black" points="558.81,-252.23 567.31,-245.91 556.72,-245.55 558.81,-252.23"/>
</g>
<!-- LkClose?** -->
<g id="node12" class="node">
<title>LkClose?**</title>
<ellipse fill="gray" stroke="black" cx="34.06" cy="-162" rx="34.13" ry="18"/>
<text text-anchor="middle" x="34.06" y="-159.8" font-family="Times,serif" font-size="9.00">LkClose?**</text>
</g>
<!-- Sequence*&#45;&gt;LkClose?** -->
<g id="edge11" class="edge">
<title>Sequence*&#45;&gt;LkClose?**</title>
<path fill="none" stroke="black" d="M371.49,-221.69C365.83,-219.53 359.82,-217.49 354.06,-216 233.87,-184.94 197.26,-211.06 77.06,-180 74.46,-179.33 71.8,-178.54 69.14,-177.68"/>
<polygon fill="black" stroke="black" points="70.24,-174.35 59.64,-174.31 67.9,-180.95 70.24,-174.35"/>
</g>
<!-- ReachGoal?** -->
<g id="node13" class="node">
<title>ReachGoal?**</title>
<ellipse fill="gray" stroke="black" cx="125.06" cy="-162" rx="39.02" ry="18"/>
<text text-anchor="middle" x="125.06" y="-159.8" font-family="Times,serif" font-size="9.00">ReachGoal?**</text>
</g>
<!-- Sequence*&#45;&gt;ReachGoal?** -->
<g id="edge12" class="edge">
<title>Sequence*&#45;&gt;ReachGoal?**</title>
<path fill="none" stroke="black" d="M371.41,-221.98C365.76,-219.81 359.76,-217.68 354.06,-216 275.38,-192.83 252.15,-201.75 173.06,-180 170.09,-179.18 167.04,-178.27 163.98,-177.31"/>
<polygon fill="black" stroke="black" points="164.89,-173.92 154.3,-174.11 162.69,-180.57 164.89,-173.92"/>
</g>
<!-- MoveTo! -->
<g id="node14" class="node">
<title>MoveTo!</title>
<ellipse fill="gray" stroke="black" cx="211.06" cy="-162" rx="28.74" ry="18"/>
<text text-anchor="middle" x="211.06" y="-159.8" font-family="Times,serif" font-size="9.00">MoveTo!</text>
</g>
<!-- Sequence*&#45;&gt;MoveTo! -->
<g id="edge13" class="edge">
<title>Sequence*&#45;&gt;MoveTo!</title>
<path fill="none" stroke="black" d="M370.3,-222.2C364.94,-220.1 359.34,-217.94 354.06,-216 307.78,-198.93 294.96,-198.09 249.06,-180 246.99,-179.18 244.86,-178.31 242.72,-177.42"/>
<polygon fill="black" stroke="black" points="243.99,-174.16 233.43,-173.41 241.22,-180.58 243.99,-174.16"/>
</g>
<!-- ReachGoal?*** -->
<g id="node15" class="node">
<title>ReachGoal?***</title>
<ellipse fill="gray" stroke="black" cx="300.06" cy="-162" rx="42.29" ry="18"/>
<text text-anchor="middle" x="300.06" y="-159.8" font-family="Times,serif" font-size="9.00">ReachGoal?***</text>
</g>
<!-- Sequence*&#45;&gt;ReachGoal?*** -->
<g id="edge14" class="edge">
<title>Sequence*&#45;&gt;ReachGoal?***</title>
<path fill="none" stroke="black" d="M377.43,-218.83C363.51,-208.79 344.61,-195.15 328.97,-183.86"/>
<polygon fill="black" stroke="black" points="330.83,-180.88 320.67,-177.87 326.73,-186.56 330.83,-180.88"/>
</g>
<!-- LkClose?*** -->
<g id="node16" class="node">
<title>LkClose?***</title>
<ellipse fill="gray" stroke="black" cx="397.06" cy="-162" rx="36.9" ry="18"/>
<text text-anchor="middle" x="397.06" y="-159.8" font-family="Times,serif" font-size="9.00">LkClose?***</text>
</g>
<!-- Sequence*&#45;&gt;LkClose?*** -->
<g id="edge15" class="edge">
<title>Sequence*&#45;&gt;LkClose?***</title>
<path fill="none" stroke="black" d="M397.06,-215.7C397.06,-207.98 397.06,-198.71 397.06,-190.11"/>
<polygon fill="black" stroke="black" points="400.56,-190.1 397.06,-180.1 393.56,-190.1 400.56,-190.1"/>
</g>
<!-- NotReadyForSG?** -->
<g id="node17" class="node">
<title>NotReadyForSG?**</title>
<ellipse fill="gray" stroke="black" cx="504.06" cy="-162" rx="51.92" ry="18"/>
<text text-anchor="middle" x="504.06" y="-159.8" font-family="Times,serif" font-size="9.00">NotReadyForSG?**</text>
</g>
<!-- Sequence*&#45;&gt;NotReadyForSG?** -->
<g id="edge16" class="edge">
<title>Sequence*&#45;&gt;NotReadyForSG?**</title>
<path fill="none" stroke="black" d="M417.95,-219.34C433.28,-209.31 454.39,-195.5 471.87,-184.06"/>
<polygon fill="black" stroke="black" points="474.18,-186.74 480.63,-178.33 470.34,-180.88 474.18,-186.74"/>
</g>
<!-- GetSubGoal! -->
<g id="node18" class="node">
<title>GetSubGoal!</title>
<ellipse fill="gray" stroke="black" cx="611.06" cy="-162" rx="36.9" ry="18"/>
<text text-anchor="middle" x="611.06" y="-159.8" font-family="Times,serif" font-size="9.00">GetSubGoal!</text>
</g>
<!-- Sequence*&#45;&gt;GetSubGoal! -->
<g id="edge17" class="edge">
<title>Sequence*&#45;&gt;GetSubGoal!</title>
<path fill="none" stroke="black" d="M423.45,-222.38C429.22,-220.18 435.32,-217.94 441.06,-216 495.43,-197.64 510.56,-197.96 565.06,-180 567.79,-179.1 570.6,-178.14 573.42,-177.16"/>
<polygon fill="black" stroke="black" points="574.72,-180.41 582.96,-173.75 572.36,-173.82 574.72,-180.41"/>
</g>
<!-- LkClose?**** -->
<g id="node19" class="node">
<title>LkClose?****</title>
<ellipse fill="gray" stroke="black" cx="705.06" cy="-162" rx="39.02" ry="18"/>
<text text-anchor="middle" x="705.06" y="-159.8" font-family="Times,serif" font-size="9.00">LkClose?****</text>
</g>
<!-- Sequence*&#45;&gt;LkClose?**** -->
<g id="edge18" class="edge">
<title>Sequence*&#45;&gt;LkClose?****</title>
<path fill="none" stroke="black" d="M422.83,-222.04C428.74,-219.81 435.06,-217.64 441.06,-216 534.94,-190.33 562.83,-204.34 657.06,-180 660.19,-179.19 663.4,-178.27 666.6,-177.28"/>
<polygon fill="black" stroke="black" points="667.71,-180.6 676.13,-174.17 665.53,-173.95 667.71,-180.6"/>
</g>
<!-- Fallback** -->
<g id="node20" class="node">
<title>Fallback**</title>
<polygon fill="cyan" stroke="black" points="832.05,-154.54 832.05,-169.46 811.56,-180 782.57,-180 762.07,-169.46 762.07,-154.54 782.57,-144 811.56,-144 832.05,-154.54"/>
<text text-anchor="middle" x="797.06" y="-159.8" font-family="Times,serif" font-size="9.00">Fallback**</text>
</g>
<!-- Sequence*&#45;&gt;Fallback** -->
<g id="edge19" class="edge">
<title>Sequence*&#45;&gt;Fallback**</title>
<path fill="none" stroke="black" d="M422.77,-221.82C428.69,-219.59 435.02,-217.49 441.06,-216 576.59,-182.58 617.54,-213.42 753.06,-180 755.73,-179.34 758.45,-178.57 761.17,-177.71"/>
<polygon fill="black" stroke="black" points="762.58,-180.93 770.89,-174.36 760.29,-174.31 762.58,-180.93"/>
</g>
<!-- LkClose?***** -->
<g id="node21" class="node">
<title>LkClose?*****</title>
<ellipse fill="gray" stroke="black" cx="561.06" cy="-90" rx="42.29" ry="18"/>
<text text-anchor="middle" x="561.06" y="-87.8" font-family="Times,serif" font-size="9.00">LkClose?*****</text>
</g>
<!-- Fallback**&#45;&gt;LkClose?***** -->
<g id="edge20" class="edge">
<title>Fallback**&#45;&gt;LkClose?*****</title>
<path fill="none" stroke="black" d="M770.25,-150.06C764.62,-147.93 758.68,-145.79 753.06,-144 691.46,-124.31 674.12,-126.24 612.06,-108 608.93,-107.08 605.7,-106.09 602.46,-105.07"/>
<polygon fill="black" stroke="black" points="603.37,-101.69 592.78,-101.96 601.23,-108.36 603.37,-101.69"/>
</g>
<!-- Sequence** -->
<g id="node22" class="node">
<title>Sequence**</title>
<polygon fill="cyan" stroke="black" points="694.8,-82.54 694.8,-97.46 673.28,-108 642.85,-108 621.32,-97.46 621.32,-82.54 642.85,-72 673.28,-72 694.8,-82.54"/>
<text text-anchor="middle" x="658.06" y="-87.8" font-family="Times,serif" font-size="9.00">Sequence**</text>
</g>
<!-- Fallback**&#45;&gt;Sequence** -->
<g id="edge21" class="edge">
<title>Fallback**&#45;&gt;Sequence**</title>
<path fill="none" stroke="black" d="M772.85,-148.81C750.51,-137.55 717.09,-120.73 692.07,-108.13"/>
<polygon fill="black" stroke="black" points="693.44,-104.9 682.93,-103.52 690.29,-111.15 693.44,-104.9"/>
</g>
<!-- GetSubGoal!* -->
<g id="node25" class="node">
<title>GetSubGoal!*</title>
<ellipse fill="gray" stroke="black" cx="752.06" cy="-90" rx="39.02" ry="18"/>
<text text-anchor="middle" x="752.06" y="-87.8" font-family="Times,serif" font-size="9.00">GetSubGoal!*</text>
</g>
<!-- Fallback**&#45;&gt;GetSubGoal!* -->
<g id="edge24" class="edge">
<title>Fallback**&#45;&gt;GetSubGoal!*</title>
<path fill="none" stroke="black" d="M785.94,-143.7C780.63,-135.44 774.17,-125.39 768.33,-116.3"/>
<polygon fill="black" stroke="black" points="771.1,-114.14 762.75,-107.62 765.21,-117.93 771.1,-114.14"/>
</g>
<!-- MoveTo!** -->
<g id="node26" class="node">
<title>MoveTo!**</title>
<ellipse fill="gray" stroke="black" cx="843.06" cy="-90" rx="34.13" ry="18"/>
<text text-anchor="middle" x="843.06" y="-87.8" font-family="Times,serif" font-size="9.00">MoveTo!**</text>
</g>
<!-- Fallback**&#45;&gt;MoveTo!** -->
<g id="edge25" class="edge">
<title>Fallback**&#45;&gt;MoveTo!**</title>
<path fill="none" stroke="black" d="M808.43,-143.7C814,-135.23 820.8,-124.89 826.89,-115.61"/>
<polygon fill="black" stroke="black" points="829.89,-117.42 832.45,-107.14 824.04,-113.58 829.89,-117.42"/>
</g>
<!-- GetLk!* -->
<g id="node27" class="node">
<title>GetLk!*</title>
<ellipse fill="gray" stroke="black" cx="922.06" cy="-90" rx="27.27" ry="18"/>
<text text-anchor="middle" x="922.06" y="-87.8" font-family="Times,serif" font-size="9.00">GetLk!*</text>
</g>
<!-- Fallback**&#45;&gt;GetLk!* -->
<g id="edge26" class="edge">
<title>Fallback**&#45;&gt;GetLk!*</title>
<path fill="none" stroke="black" d="M819.99,-148.16C840.47,-136.7 870.57,-119.84 892.78,-107.4"/>
<polygon fill="black" stroke="black" points="894.75,-110.31 901.76,-102.37 891.33,-104.2 894.75,-110.31"/>
</g>
<!-- Sequence*** -->
<g id="node28" class="node">
<title>Sequence***</title>
<polygon fill="cyan" stroke="black" points="1047.05,-82.54 1047.05,-97.46 1023.63,-108 990.5,-108 967.07,-97.46 967.07,-82.54 990.5,-72 1023.63,-72 1047.05,-82.54"/>
<text text-anchor="middle" x="1007.06" y="-87.8" font-family="Times,serif" font-size="9.00">Sequence***</text>
</g>
<!-- Fallback**&#45;&gt;Sequence*** -->
<g id="edge27" class="edge">
<title>Fallback**&#45;&gt;Sequence***</title>
<path fill="none" stroke="black" d="M826.49,-151.47C858.8,-140.97 912.21,-123.5 958.06,-108 960.82,-107.07 963.67,-106.1 966.53,-105.12"/>
<polygon fill="black" stroke="black" points="967.93,-108.34 976.25,-101.78 965.65,-101.72 967.93,-108.34"/>
</g>
<!-- MoveTo!* -->
<g id="node23" class="node">
<title>MoveTo!*</title>
<ellipse fill="gray" stroke="black" cx="620.06" cy="-18" rx="31.51" ry="18"/>
<text text-anchor="middle" x="620.06" y="-15.8" font-family="Times,serif" font-size="9.00">MoveTo!*</text>
</g>
<!-- Sequence**&#45;&gt;MoveTo!* -->
<g id="edge22" class="edge">
<title>Sequence**&#45;&gt;MoveTo!*</title>
<path fill="none" stroke="black" d="M648.67,-71.7C644.23,-63.52 638.85,-53.6 633.95,-44.58"/>
<polygon fill="black" stroke="black" points="636.93,-42.74 629.09,-35.62 630.78,-46.08 636.93,-42.74"/>
</g>
<!-- GetLk! -->
<g id="node24" class="node">
<title>GetLk!</title>
<ellipse fill="gray" stroke="black" cx="697.06" cy="-18" rx="27" ry="18"/>
<text text-anchor="middle" x="697.06" y="-15.8" font-family="Times,serif" font-size="9.00">GetLk!</text>
</g>
<!-- Sequence**&#45;&gt;GetLk! -->
<g id="edge23" class="edge">
<title>Sequence**&#45;&gt;GetLk!</title>
<path fill="none" stroke="black" d="M667.7,-71.7C672.37,-63.32 678.07,-53.1 683.19,-43.9"/>
<polygon fill="black" stroke="black" points="686.26,-45.58 688.07,-35.14 680.14,-42.18 686.26,-45.58"/>
</g>
<!-- NotReadyForSG?*** -->
<g id="node29" class="node">
<title>NotReadyForSG?***</title>
<ellipse fill="gray" stroke="black" cx="949.06" cy="-18" rx="54.7" ry="18"/>
<text text-anchor="middle" x="949.06" y="-15.8" font-family="Times,serif" font-size="9.00">NotReadyForSG?***</text>
</g>
<!-- Sequence***&#45;&gt;NotReadyForSG?*** -->
<g id="edge28" class="edge">
<title>Sequence***&#45;&gt;NotReadyForSG?***</title>
<path fill="none" stroke="black" d="M992.73,-71.7C985.67,-63.18 977.04,-52.76 969.32,-43.45"/>
<polygon fill="black" stroke="black" points="971.91,-41.09 962.84,-35.62 966.52,-45.56 971.91,-41.09"/>
</g>
<!-- CompLkGraph! -->
<g id="node30" class="node">
<title>CompLkGraph!</title>
<ellipse fill="gray" stroke="black" cx="1065.06" cy="-18" rx="42.95" ry="18"/>
<text text-anchor="middle" x="1065.06" y="-15.8" font-family="Times,serif" font-size="9.00">CompLkGraph!</text>
</g>
<!-- Sequence***&#45;&gt;CompLkGraph! -->
<g id="edge29" class="edge">
<title>Sequence***&#45;&gt;CompLkGraph!</title>
<path fill="none" stroke="black" d="M1021.4,-71.7C1028.56,-63.05 1037.34,-52.46 1045.15,-43.04"/>
<polygon fill="black" stroke="black" points="1048,-45.08 1051.69,-35.14 1042.61,-40.61 1048,-45.08"/>
</g>
</g>
</svg>
