<?xml version="1.0" encoding="UTF-8" standalone="no"?>
<!DOCTYPE svg PUBLIC "-//W3C//DTD SVG 1.1//EN"
 "http://www.w3.org/Graphics/SVG/1.1/DTD/svg11.dtd">
<!-- Generated by graphviz version 2.43.0 (0)
 -->
<!-- Title: pastafarianism Pages: 1 -->
<svg width="909pt" height="260pt"
 viewBox="0.00 0.00 908.95 260.00" xmlns="http://www.w3.org/2000/svg" xmlns:xlink="http://www.w3.org/1999/xlink">
<g id="graph0" class="graph" transform="scale(1 1) rotate(0) translate(4 256)">
<title>pastafarianism</title>
<polygon fill="white" stroke="transparent" points="-4,4 -4,-256 904.95,-256 904.95,4 -4,4"/>
<!-- Sequence -->
<g id="node1" class="node">
<title>Sequence</title>
<polygon fill="cyan" stroke="black" points="645.04,-226.54 645.04,-241.46 626.6,-252 600.5,-252 582.06,-241.46 582.06,-226.54 600.5,-216 626.6,-216 645.04,-226.54"/>
<text text-anchor="middle" x="613.55" y="-231.8" font-family="Times,serif" font-size="9.00">Sequence</text>
</g>
<!-- Fallback -->
<g id="node2" class="node">
<title>Fallback</title>
<polygon fill="cyan" stroke="black" points="504.79,-154.54 504.79,-169.46 487.66,-180 463.44,-180 446.31,-169.46 446.31,-154.54 463.44,-144 487.66,-144 504.79,-154.54"/>
<text text-anchor="middle" x="475.55" y="-159.8" font-family="Times,serif" font-size="9.00">Fallback</text>
</g>
<!-- Sequence&#45;&gt;Fallback -->
<g id="edge1" class="edge">
<title>Sequence&#45;&gt;Fallback</title>
<path fill="none" stroke="black" d="M590.76,-221.44C567.82,-209.8 532.26,-191.76 506.71,-178.81"/>
<polygon fill="black" stroke="black" points="507.96,-175.52 497.46,-174.11 504.79,-181.76 507.96,-175.52"/>
</g>
<!-- pick 3!*** -->
<g id="node19" class="node">
<title>pick 3!***</title>
<ellipse fill="gray" stroke="black" cx="554.55" cy="-162" rx="31.51" ry="18"/>
<text text-anchor="middle" x="554.55" y="-159.8" font-family="Times,serif" font-size="9.00">pick 3!***</text>
</g>
<!-- Sequence&#45;&gt;pick 3!*** -->
<g id="edge18" class="edge">
<title>Sequence&#45;&gt;pick 3!***</title>
<path fill="none" stroke="black" d="M599.57,-216.41C592.01,-207.44 582.55,-196.21 574.25,-186.37"/>
<polygon fill="black" stroke="black" points="576.74,-183.9 567.62,-178.51 571.39,-188.41 576.74,-183.9"/>
</g>
<!-- place at (0.016, 0.032, 0.0)!* -->
<g id="node20" class="node">
<title>place at (0.016, 0.032, 0.0)!*</title>
<ellipse fill="gray" stroke="black" cx="672.55" cy="-162" rx="68.91" ry="18"/>
<text text-anchor="middle" x="672.55" y="-159.8" font-family="Times,serif" font-size="9.00">place at (0.016, 0.032, 0.0)!*</text>
</g>
<!-- Sequence&#45;&gt;place at (0.016, 0.032, 0.0)!* -->
<g id="edge19" class="edge">
<title>Sequence&#45;&gt;place at (0.016, 0.032, 0.0)!*</title>
<path fill="none" stroke="black" d="M627.53,-216.41C634.77,-207.82 643.76,-197.16 651.79,-187.63"/>
<polygon fill="black" stroke="black" points="654.49,-189.86 658.26,-179.96 649.14,-185.35 654.49,-189.86"/>
</g>
<!-- pick 0!** -->
<g id="node21" class="node">
<title>pick 0!**</title>
<ellipse fill="gray" stroke="black" cx="788.55" cy="-162" rx="28.74" ry="18"/>
<text text-anchor="middle" x="788.55" y="-159.8" font-family="Times,serif" font-size="9.00">pick 0!**</text>
</g>
<!-- Sequence&#45;&gt;pick 0!** -->
<g id="edge20" class="edge">
<title>Sequence&#45;&gt;pick 0!**</title>
<path fill="none" stroke="black" d="M639.72,-223.33C667.41,-213 712.3,-195.94 750.55,-180 752.4,-179.23 754.3,-178.42 756.21,-177.6"/>
<polygon fill="black" stroke="black" points="757.97,-180.65 765.73,-173.44 755.16,-174.24 757.97,-180.65"/>
</g>
<!-- 2 at pos (0.016, &#45;0.032, 0.0)? -->
<g id="node3" class="node">
<title>2 at pos (0.016, &#45;0.032, 0.0)?</title>
<ellipse fill="gray" stroke="black" cx="152.55" cy="-90" rx="69.06" ry="18"/>
<text text-anchor="middle" x="152.55" y="-87.8" font-family="Times,serif" font-size="9.00">2 at pos (0.016, &#45;0.032, 0.0)?</text>
</g>
<!-- Fallback&#45;&gt;2 at pos (0.016, &#45;0.032, 0.0)? -->
<g id="edge2" class="edge">
<title>Fallback&#45;&gt;2 at pos (0.016, &#45;0.032, 0.0)?</title>
<path fill="none" stroke="black" d="M446.03,-154.6C393.63,-143.25 283.37,-119.35 213.91,-104.3"/>
<polygon fill="black" stroke="black" points="214.49,-100.84 203.98,-102.14 213.01,-107.68 214.49,-100.84"/>
</g>
<!-- Sequence* -->
<g id="node4" class="node">
<title>Sequence*</title>
<polygon fill="cyan" stroke="black" points="308.79,-82.54 308.79,-97.46 288.73,-108 260.37,-108 240.31,-97.46 240.31,-82.54 260.37,-72 288.73,-72 308.79,-82.54"/>
<text text-anchor="middle" x="274.55" y="-87.8" font-family="Times,serif" font-size="9.00">Sequence*</text>
</g>
<!-- Fallback&#45;&gt;Sequence* -->
<g id="edge3" class="edge">
<title>Fallback&#45;&gt;Sequence*</title>
<path fill="none" stroke="black" d="M449.12,-152.61C417.63,-142.5 363.48,-124.77 317.55,-108 315.17,-107.13 312.73,-106.22 310.28,-105.29"/>
<polygon fill="black" stroke="black" points="311.43,-101.99 300.84,-101.65 308.91,-108.52 311.43,-101.99"/>
</g>
<!-- pick 3! -->
<g id="node11" class="node">
<title>pick 3!</title>
<ellipse fill="gray" stroke="black" cx="353.55" cy="-90" rx="27" ry="18"/>
<text text-anchor="middle" x="353.55" y="-87.8" font-family="Times,serif" font-size="9.00">pick 3!</text>
</g>
<!-- Fallback&#45;&gt;pick 3! -->
<g id="edge10" class="edge">
<title>Fallback&#45;&gt;pick 3!</title>
<path fill="none" stroke="black" d="M454.85,-149.13C434.9,-137.67 404.52,-120.25 382.24,-107.46"/>
<polygon fill="black" stroke="black" points="383.95,-104.41 373.54,-102.47 380.47,-110.48 383.95,-104.41"/>
</g>
<!-- pick 3!* -->
<g id="node12" class="node">
<title>pick 3!*</title>
<ellipse fill="gray" stroke="black" cx="425.55" cy="-90" rx="27" ry="18"/>
<text text-anchor="middle" x="425.55" y="-87.8" font-family="Times,serif" font-size="9.00">pick 3!*</text>
</g>
<!-- Fallback&#45;&gt;pick 3!* -->
<g id="edge11" class="edge">
<title>Fallback&#45;&gt;pick 3!*</title>
<path fill="none" stroke="black" d="M463.19,-143.7C456.99,-135.02 449.38,-124.37 442.64,-114.92"/>
<polygon fill="black" stroke="black" points="445.4,-112.77 436.74,-106.67 439.71,-116.84 445.4,-112.77"/>
</g>
<!-- place at (0.0, 0.0, 0.0)! -->
<g id="node13" class="node">
<title>place at (0.0, 0.0, 0.0)!</title>
<ellipse fill="gray" stroke="black" cx="526.55" cy="-90" rx="56.01" ry="18"/>
<text text-anchor="middle" x="526.55" y="-87.8" font-family="Times,serif" font-size="9.00">place at (0.0, 0.0, 0.0)!</text>
</g>
<!-- Fallback&#45;&gt;place at (0.0, 0.0, 0.0)! -->
<g id="edge12" class="edge">
<title>Fallback&#45;&gt;place at (0.0, 0.0, 0.0)!</title>
<path fill="none" stroke="black" d="M487.9,-144.05C494.03,-135.63 501.57,-125.28 508.36,-115.97"/>
<polygon fill="black" stroke="black" points="511.26,-117.93 514.32,-107.79 505.6,-113.81 511.26,-117.93"/>
</g>
<!-- pick 3!** -->
<g id="node14" class="node">
<title>pick 3!**</title>
<ellipse fill="gray" stroke="black" cx="629.55" cy="-90" rx="28.74" ry="18"/>
<text text-anchor="middle" x="629.55" y="-87.8" font-family="Times,serif" font-size="9.00">pick 3!**</text>
</g>
<!-- Fallback&#45;&gt;pick 3!** -->
<g id="edge13" class="edge">
<title>Fallback&#45;&gt;pick 3!**</title>
<path fill="none" stroke="black" d="M498.61,-150.52C524.84,-138.6 567.86,-119.04 597.39,-105.62"/>
<polygon fill="black" stroke="black" points="599.18,-108.65 606.84,-101.32 596.29,-102.27 599.18,-108.65"/>
</g>
<!-- Sequence** -->
<g id="node15" class="node">
<title>Sequence**</title>
<polygon fill="cyan" stroke="black" points="750.29,-82.54 750.29,-97.46 728.77,-108 698.33,-108 676.81,-97.46 676.81,-82.54 698.33,-72 728.77,-72 750.29,-82.54"/>
<text text-anchor="middle" x="713.55" y="-87.8" font-family="Times,serif" font-size="9.00">Sequence**</text>
</g>
<!-- Fallback&#45;&gt;Sequence** -->
<g id="edge14" class="edge">
<title>Fallback&#45;&gt;Sequence**</title>
<path fill="none" stroke="black" d="M497.77,-150.21C502.88,-147.97 508.35,-145.75 513.55,-144 580.16,-121.55 600.23,-128.22 667.55,-108 670.3,-107.17 673.13,-106.27 675.96,-105.32"/>
<polygon fill="black" stroke="black" points="677.23,-108.59 685.52,-101.99 674.92,-101.98 677.23,-108.59"/>
</g>
<!-- place at (0.016, 0.032, 0.0)! -->
<g id="node18" class="node">
<title>place at (0.016, 0.032, 0.0)!</title>
<ellipse fill="gray" stroke="black" cx="834.55" cy="-90" rx="66.29" ry="18"/>
<text text-anchor="middle" x="834.55" y="-87.8" font-family="Times,serif" font-size="9.00">place at (0.016, 0.032, 0.0)!</text>
</g>
<!-- Fallback&#45;&gt;place at (0.016, 0.032, 0.0)! -->
<g id="edge17" class="edge">
<title>Fallback&#45;&gt;place at (0.016, 0.032, 0.0)!</title>
<path fill="none" stroke="black" d="M497.67,-149.88C502.78,-147.66 508.28,-145.53 513.55,-144 619.65,-113.15 650.92,-128.23 759.55,-108 764.96,-106.99 770.58,-105.87 776.19,-104.69"/>
<polygon fill="black" stroke="black" points="777.21,-108.05 786.25,-102.53 775.74,-101.21 777.21,-108.05"/>
</g>
<!-- 3 at pos (0.016, 0.032, 0.0)? -->
<g id="node5" class="node">
<title>3 at pos (0.016, 0.032, 0.0)?</title>
<ellipse fill="gray" stroke="black" cx="67.55" cy="-18" rx="67.6" ry="18"/>
<text text-anchor="middle" x="67.55" y="-15.8" font-family="Times,serif" font-size="9.00">3 at pos (0.016, 0.032, 0.0)?</text>
</g>
<!-- Sequence*&#45;&gt;3 at pos (0.016, 0.032, 0.0)? -->
<g id="edge4" class="edge">
<title>Sequence*&#45;&gt;3 at pos (0.016, 0.032, 0.0)?</title>
<path fill="none" stroke="black" d="M247.64,-78.34C242.02,-76.18 236.11,-73.97 230.55,-72 193.71,-58.9 151.74,-45.29 119.62,-35.14"/>
<polygon fill="black" stroke="black" points="120.57,-31.77 109.98,-32.1 118.47,-38.44 120.57,-31.77"/>
</g>
<!-- pick 0! -->
<g id="node6" class="node">
<title>pick 0!</title>
<ellipse fill="gray" stroke="black" cx="180.55" cy="-18" rx="27" ry="18"/>
<text text-anchor="middle" x="180.55" y="-15.8" font-family="Times,serif" font-size="9.00">pick 0!</text>
</g>
<!-- Sequence*&#45;&gt;pick 0! -->
<g id="edge5" class="edge">
<title>Sequence*&#45;&gt;pick 0!</title>
<path fill="none" stroke="black" d="M255.07,-74.5C240.92,-63.95 221.62,-49.58 206.2,-38.1"/>
<polygon fill="black" stroke="black" points="208.21,-35.23 198.1,-32.07 204.03,-40.85 208.21,-35.23"/>
</g>
<!-- pick 0!* -->
<g id="node7" class="node">
<title>pick 0!*</title>
<ellipse fill="gray" stroke="black" cx="252.55" cy="-18" rx="27" ry="18"/>
<text text-anchor="middle" x="252.55" y="-15.8" font-family="Times,serif" font-size="9.00">pick 0!*</text>
</g>
<!-- Sequence*&#45;&gt;pick 0!* -->
<g id="edge6" class="edge">
<title>Sequence*&#45;&gt;pick 0!*</title>
<path fill="none" stroke="black" d="M269.11,-71.7C266.66,-63.9 263.71,-54.51 260.98,-45.83"/>
<polygon fill="black" stroke="black" points="264.26,-44.59 257.93,-36.1 257.58,-46.69 264.26,-44.59"/>
</g>
<!-- 1 on 2? -->
<g id="node8" class="node">
<title>1 on 2?</title>
<ellipse fill="gray" stroke="black" cx="324.55" cy="-18" rx="27" ry="18"/>
<text text-anchor="middle" x="324.55" y="-15.8" font-family="Times,serif" font-size="9.00">1 on 2?</text>
</g>
<!-- Sequence*&#45;&gt;1 on 2? -->
<g id="edge7" class="edge">
<title>Sequence*&#45;&gt;1 on 2?</title>
<path fill="none" stroke="black" d="M286.91,-71.7C293.11,-63.02 300.72,-52.37 307.46,-42.92"/>
<polygon fill="black" stroke="black" points="310.39,-44.84 313.36,-34.67 304.7,-40.77 310.39,-44.84"/>
</g>
<!-- picked 3? -->
<g id="node9" class="node">
<title>picked 3?</title>
<ellipse fill="gray" stroke="black" cx="398.55" cy="-18" rx="28.74" ry="18"/>
<text text-anchor="middle" x="398.55" y="-15.8" font-family="Times,serif" font-size="9.00">picked 3?</text>
</g>
<!-- Sequence*&#45;&gt;picked 3? -->
<g id="edge8" class="edge">
<title>Sequence*&#45;&gt;picked 3?</title>
<path fill="none" stroke="black" d="M297.01,-76.32C317.16,-64.95 346.88,-48.17 368.96,-35.7"/>
<polygon fill="black" stroke="black" points="370.92,-38.62 377.91,-30.65 367.48,-32.52 370.92,-38.62"/>
</g>
<!-- 1 on 2?* -->
<g id="node10" class="node">
<title>1 on 2?*</title>
<ellipse fill="gray" stroke="black" cx="472.55" cy="-18" rx="27.27" ry="18"/>
<text text-anchor="middle" x="472.55" y="-15.8" font-family="Times,serif" font-size="9.00">1 on 2?*</text>
</g>
<!-- Sequence*&#45;&gt;1 on 2?* -->
<g id="edge9" class="edge">
<title>Sequence*&#45;&gt;1 on 2?*</title>
<path fill="none" stroke="black" d="M300.8,-78.22C306.3,-76.08 312.09,-73.9 317.55,-72 369.73,-53.83 384.98,-55.85 436.55,-36 438.39,-35.29 440.26,-34.53 442.14,-33.74"/>
<polygon fill="black" stroke="black" points="443.74,-36.86 451.46,-29.6 440.9,-30.46 443.74,-36.86"/>
</g>
<!-- 3 at pos (0.016, 0.032, 0.0)?* -->
<g id="node16" class="node">
<title>3 at pos (0.016, 0.032, 0.0)?*</title>
<ellipse fill="gray" stroke="black" cx="616.55" cy="-18" rx="70.37" ry="18"/>
<text text-anchor="middle" x="616.55" y="-15.8" font-family="Times,serif" font-size="9.00">3 at pos (0.016, 0.032, 0.0)?*</text>
</g>
<!-- Sequence**&#45;&gt;3 at pos (0.016, 0.032, 0.0)?* -->
<g id="edge15" class="edge">
<title>Sequence**&#45;&gt;3 at pos (0.016, 0.032, 0.0)?*</title>
<path fill="none" stroke="black" d="M692.98,-74.15C679.78,-64.63 662.38,-52.08 647.53,-41.36"/>
<polygon fill="black" stroke="black" points="649.28,-38.3 639.12,-35.29 645.18,-43.98 649.28,-38.3"/>
</g>
<!-- 1 on 2?** -->
<g id="node17" class="node">
<title>1 on 2?**</title>
<ellipse fill="gray" stroke="black" cx="734.55" cy="-18" rx="30.04" ry="18"/>
<text text-anchor="middle" x="734.55" y="-15.8" font-family="Times,serif" font-size="9.00">1 on 2?**</text>
</g>
<!-- Sequence**&#45;&gt;1 on 2?** -->
<g id="edge16" class="edge">
<title>Sequence**&#45;&gt;1 on 2?**</title>
<path fill="none" stroke="black" d="M718.74,-71.7C721.08,-63.9 723.9,-54.51 726.5,-45.83"/>
<polygon fill="black" stroke="black" points="729.9,-46.69 729.42,-36.1 723.19,-44.68 729.9,-46.69"/>
</g>
</g>
</svg>
