<?xml version="1.0" encoding="UTF-8" standalone="no"?>
<!DOCTYPE svg PUBLIC "-//W3C//DTD SVG 1.1//EN"
 "http://www.w3.org/Graphics/SVG/1.1/DTD/svg11.dtd">
<!-- Generated by graphviz version 2.43.0 (0)
 -->
<!-- Title: pastafarianism Pages: 1 -->
<svg width="790pt" height="260pt"
 viewBox="0.00 0.00 790.30 260.00" xmlns="http://www.w3.org/2000/svg" xmlns:xlink="http://www.w3.org/1999/xlink">
<g id="graph0" class="graph" transform="scale(1 1) rotate(0) translate(4 256)">
<title>pastafarianism</title>
<polygon fill="white" stroke="transparent" points="-4,4 -4,-256 786.3,-256 786.3,4 -4,4"/>
<!-- Sequence -->
<g id="node1" class="node">
<title>Sequence</title>
<polygon fill="cyan" stroke="black" points="594.04,-226.54 594.04,-241.46 575.6,-252 549.5,-252 531.06,-241.46 531.06,-226.54 549.5,-216 575.6,-216 594.04,-226.54"/>
<text text-anchor="middle" x="562.55" y="-231.8" font-family="Times,serif" font-size="9.00">Sequence</text>
</g>
<!-- Fallback -->
<g id="node2" class="node">
<title>Fallback</title>
<polygon fill="cyan" stroke="black" points="402.79,-154.54 402.79,-169.46 385.66,-180 361.44,-180 344.31,-169.46 344.31,-154.54 361.44,-144 385.66,-144 402.79,-154.54"/>
<text text-anchor="middle" x="373.55" y="-159.8" font-family="Times,serif" font-size="9.00">Fallback</text>
</g>
<!-- Sequence&#45;&gt;Fallback -->
<g id="edge1" class="edge">
<title>Sequence&#45;&gt;Fallback</title>
<path fill="none" stroke="black" d="M535.02,-224.1C504.56,-214.08 454.14,-196.97 411.55,-180 409.69,-179.26 407.78,-178.48 405.86,-177.67"/>
<polygon fill="black" stroke="black" points="406.89,-174.31 396.33,-173.56 404.12,-180.73 406.89,-174.31"/>
</g>
<!-- pick 3!** -->
<g id="node11" class="node">
<title>pick 3!**</title>
<ellipse fill="gray" stroke="black" cx="449.55" cy="-162" rx="28.74" ry="18"/>
<text text-anchor="middle" x="449.55" y="-159.8" font-family="Times,serif" font-size="9.00">pick 3!**</text>
</g>
<!-- Sequence&#45;&gt;pick 3!** -->
<g id="edge10" class="edge">
<title>Sequence&#45;&gt;pick 3!**</title>
<path fill="none" stroke="black" d="M541.82,-220.16C523.92,-209.07 497.88,-192.94 478.02,-180.64"/>
<polygon fill="black" stroke="black" points="479.73,-177.58 469.39,-175.29 476.04,-183.53 479.73,-177.58"/>
</g>
<!-- place at (0.016, 0.032, 0.0)! -->
<g id="node12" class="node">
<title>place at (0.016, 0.032, 0.0)!</title>
<ellipse fill="gray" stroke="black" cx="562.55" cy="-162" rx="66.29" ry="18"/>
<text text-anchor="middle" x="562.55" y="-159.8" font-family="Times,serif" font-size="9.00">place at (0.016, 0.032, 0.0)!</text>
</g>
<!-- Sequence&#45;&gt;place at (0.016, 0.032, 0.0)! -->
<g id="edge11" class="edge">
<title>Sequence&#45;&gt;place at (0.016, 0.032, 0.0)!</title>
<path fill="none" stroke="black" d="M562.55,-215.7C562.55,-207.98 562.55,-198.71 562.55,-190.11"/>
<polygon fill="black" stroke="black" points="566.05,-190.1 562.55,-180.1 559.05,-190.1 566.05,-190.1"/>
</g>
<!-- pick 0!* -->
<g id="node13" class="node">
<title>pick 0!*</title>
<ellipse fill="gray" stroke="black" cx="673.55" cy="-162" rx="27" ry="18"/>
<text text-anchor="middle" x="673.55" y="-159.8" font-family="Times,serif" font-size="9.00">pick 0!*</text>
</g>
<!-- Sequence&#45;&gt;pick 0!* -->
<g id="edge12" class="edge">
<title>Sequence&#45;&gt;pick 0!*</title>
<path fill="none" stroke="black" d="M582.91,-220.16C600.6,-209 626.39,-192.74 645.94,-180.41"/>
<polygon fill="black" stroke="black" points="647.84,-183.35 654.43,-175.06 644.11,-177.43 647.84,-183.35"/>
</g>
<!-- pick 3!*** -->
<g id="node14" class="node">
<title>pick 3!***</title>
<ellipse fill="gray" stroke="black" cx="750.55" cy="-162" rx="31.51" ry="18"/>
<text text-anchor="middle" x="750.55" y="-159.8" font-family="Times,serif" font-size="9.00">pick 3!***</text>
</g>
<!-- Sequence&#45;&gt;pick 3!*** -->
<g id="edge13" class="edge">
<title>Sequence&#45;&gt;pick 3!***</title>
<path fill="none" stroke="black" d="M589.25,-223.8C618.81,-213.51 667.81,-196.17 709.55,-180 711.79,-179.13 714.1,-178.22 716.42,-177.29"/>
<polygon fill="black" stroke="black" points="717.96,-180.44 725.91,-173.44 715.33,-173.96 717.96,-180.44"/>
</g>
<!-- Sequence* -->
<g id="node3" class="node">
<title>Sequence*</title>
<polygon fill="cyan" stroke="black" points="214.79,-82.54 214.79,-97.46 194.73,-108 166.37,-108 146.31,-97.46 146.31,-82.54 166.37,-72 194.73,-72 214.79,-82.54"/>
<text text-anchor="middle" x="180.55" y="-87.8" font-family="Times,serif" font-size="9.00">Sequence*</text>
</g>
<!-- Fallback&#45;&gt;Sequence* -->
<g id="edge2" class="edge">
<title>Fallback&#45;&gt;Sequence*</title>
<path fill="none" stroke="black" d="M347.97,-152.28C318.03,-142.01 267.01,-124.26 223.55,-108 221.33,-107.17 219.05,-106.3 216.75,-105.42"/>
<polygon fill="black" stroke="black" points="217.92,-102.12 207.33,-101.76 215.38,-108.65 217.92,-102.12"/>
</g>
<!-- pick 3! -->
<g id="node7" class="node">
<title>pick 3!</title>
<ellipse fill="gray" stroke="black" cx="259.55" cy="-90" rx="27" ry="18"/>
<text text-anchor="middle" x="259.55" y="-87.8" font-family="Times,serif" font-size="9.00">pick 3!</text>
</g>
<!-- Fallback&#45;&gt;pick 3! -->
<g id="edge6" class="edge">
<title>Fallback&#45;&gt;pick 3!</title>
<path fill="none" stroke="black" d="M353.43,-148.65C335.06,-137.36 307.72,-120.58 287.28,-108.03"/>
<polygon fill="black" stroke="black" points="289.06,-105.01 278.71,-102.76 285.4,-110.98 289.06,-105.01"/>
</g>
<!-- 2 at pos (0.016, &#45;0.032, 0.0)? -->
<g id="node8" class="node">
<title>2 at pos (0.016, &#45;0.032, 0.0)?</title>
<ellipse fill="gray" stroke="black" cx="373.55" cy="-90" rx="69.06" ry="18"/>
<text text-anchor="middle" x="373.55" y="-87.8" font-family="Times,serif" font-size="9.00">2 at pos (0.016, &#45;0.032, 0.0)?</text>
</g>
<!-- Fallback&#45;&gt;2 at pos (0.016, &#45;0.032, 0.0)? -->
<g id="edge7" class="edge">
<title>Fallback&#45;&gt;2 at pos (0.016, &#45;0.032, 0.0)?</title>
<path fill="none" stroke="black" d="M373.55,-143.7C373.55,-135.98 373.55,-126.71 373.55,-118.11"/>
<polygon fill="black" stroke="black" points="377.05,-118.1 373.55,-108.1 370.05,-118.1 377.05,-118.1"/>
</g>
<!-- place at (0.0, 0.0, 0.0)! -->
<g id="node9" class="node">
<title>place at (0.0, 0.0, 0.0)!</title>
<ellipse fill="gray" stroke="black" cx="516.55" cy="-90" rx="56.01" ry="18"/>
<text text-anchor="middle" x="516.55" y="-87.8" font-family="Times,serif" font-size="9.00">place at (0.0, 0.0, 0.0)!</text>
</g>
<!-- Fallback&#45;&gt;place at (0.0, 0.0, 0.0)! -->
<g id="edge8" class="edge">
<title>Fallback&#45;&gt;place at (0.0, 0.0, 0.0)!</title>
<path fill="none" stroke="black" d="M395.89,-150.06C417.79,-139.34 451.61,-122.79 477.88,-109.93"/>
<polygon fill="black" stroke="black" points="479.74,-112.92 487.18,-105.38 476.66,-106.63 479.74,-112.92"/>
</g>
<!-- pick 3!* -->
<g id="node10" class="node">
<title>pick 3!*</title>
<ellipse fill="gray" stroke="black" cx="617.55" cy="-90" rx="27" ry="18"/>
<text text-anchor="middle" x="617.55" y="-87.8" font-family="Times,serif" font-size="9.00">pick 3!*</text>
</g>
<!-- Fallback&#45;&gt;pick 3!* -->
<g id="edge9" class="edge">
<title>Fallback&#45;&gt;pick 3!*</title>
<path fill="none" stroke="black" d="M395.74,-150.13C400.86,-147.89 406.33,-145.7 411.55,-144 484.99,-120.1 508.36,-132.66 581.55,-108 583.47,-107.35 585.41,-106.63 587.36,-105.87"/>
<polygon fill="black" stroke="black" points="589.15,-108.9 596.95,-101.73 586.38,-102.48 589.15,-108.9"/>
</g>
<!-- 3 at pos (0.016, 0.032, 0.0)? -->
<g id="node4" class="node">
<title>3 at pos (0.016, 0.032, 0.0)?</title>
<ellipse fill="gray" stroke="black" cx="67.55" cy="-18" rx="67.6" ry="18"/>
<text text-anchor="middle" x="67.55" y="-15.8" font-family="Times,serif" font-size="9.00">3 at pos (0.016, 0.032, 0.0)?</text>
</g>
<!-- Sequence*&#45;&gt;3 at pos (0.016, 0.032, 0.0)? -->
<g id="edge3" class="edge">
<title>Sequence*&#45;&gt;3 at pos (0.016, 0.032, 0.0)?</title>
<path fill="none" stroke="black" d="M159.03,-75.67C142.78,-65.6 120.16,-51.59 101.48,-40.02"/>
<polygon fill="black" stroke="black" points="103.29,-37.02 92.94,-34.73 99.6,-42.97 103.29,-37.02"/>
</g>
<!-- pick 0! -->
<g id="node5" class="node">
<title>pick 0!</title>
<ellipse fill="gray" stroke="black" cx="180.55" cy="-18" rx="27" ry="18"/>
<text text-anchor="middle" x="180.55" y="-15.8" font-family="Times,serif" font-size="9.00">pick 0!</text>
</g>
<!-- Sequence*&#45;&gt;pick 0! -->
<g id="edge4" class="edge">
<title>Sequence*&#45;&gt;pick 0!</title>
<path fill="none" stroke="black" d="M180.55,-71.7C180.55,-63.98 180.55,-54.71 180.55,-46.11"/>
<polygon fill="black" stroke="black" points="184.05,-46.1 180.55,-36.1 177.05,-46.1 184.05,-46.1"/>
</g>
<!-- 1 on 2? -->
<g id="node6" class="node">
<title>1 on 2?</title>
<ellipse fill="gray" stroke="black" cx="252.55" cy="-18" rx="27" ry="18"/>
<text text-anchor="middle" x="252.55" y="-15.8" font-family="Times,serif" font-size="9.00">1 on 2?</text>
</g>
<!-- Sequence*&#45;&gt;1 on 2? -->
<g id="edge5" class="edge">
<title>Sequence*&#45;&gt;1 on 2?</title>
<path fill="none" stroke="black" d="M196.89,-73.12C206.77,-63.51 219.5,-51.13 230.3,-40.63"/>
<polygon fill="black" stroke="black" points="233.02,-42.87 237.75,-33.39 228.14,-37.85 233.02,-42.87"/>
</g>
</g>
</svg>
