<?xml version="1.0" encoding="UTF-8" standalone="no"?>
<!DOCTYPE svg PUBLIC "-//W3C//DTD SVG 1.1//EN"
 "http://www.w3.org/Graphics/SVG/1.1/DTD/svg11.dtd">
<!-- Generated by graphviz version 2.43.0 (0)
 -->
<!-- Title: pastafarianism Pages: 1 -->
<svg width="726pt" height="260pt"
 viewBox="0.00 0.00 725.55 260.00" xmlns="http://www.w3.org/2000/svg" xmlns:xlink="http://www.w3.org/1999/xlink">
<g id="graph0" class="graph" transform="scale(1 1) rotate(0) translate(4 256)">
<title>pastafarianism</title>
<polygon fill="white" stroke="transparent" points="-4,4 -4,-256 721.55,-256 721.55,4 -4,4"/>
<!-- Sequence -->
<g id="node1" class="node">
<title>Sequence</title>
<polygon fill="cyan" stroke="black" points="495.04,-226.54 495.04,-241.46 476.6,-252 450.5,-252 432.06,-241.46 432.06,-226.54 450.5,-216 476.6,-216 495.04,-226.54"/>
<text text-anchor="middle" x="463.55" y="-231.8" font-family="Times,serif" font-size="9.00">Sequence</text>
</g>
<!-- Fallback -->
<g id="node2" class="node">
<title>Fallback</title>
<polygon fill="cyan" stroke="black" points="315.79,-154.54 315.79,-169.46 298.66,-180 274.44,-180 257.31,-169.46 257.31,-154.54 274.44,-144 298.66,-144 315.79,-154.54"/>
<text text-anchor="middle" x="286.55" y="-159.8" font-family="Times,serif" font-size="9.00">Fallback</text>
</g>
<!-- Sequence&#45;&gt;Fallback -->
<g id="edge1" class="edge">
<title>Sequence&#45;&gt;Fallback</title>
<path fill="none" stroke="black" d="M438.19,-222.97C407.3,-210.76 355.01,-190.07 320.63,-176.48"/>
<polygon fill="black" stroke="black" points="321.59,-173.1 311.01,-172.67 319.02,-179.61 321.59,-173.1"/>
</g>
<!-- pick 3!* -->
<g id="node9" class="node">
<title>pick 3!*</title>
<ellipse fill="gray" stroke="black" cx="386.55" cy="-162" rx="27" ry="18"/>
<text text-anchor="middle" x="386.55" y="-159.8" font-family="Times,serif" font-size="9.00">pick 3!*</text>
</g>
<!-- Sequence&#45;&gt;pick 3!* -->
<g id="edge8" class="edge">
<title>Sequence&#45;&gt;pick 3!*</title>
<path fill="none" stroke="black" d="M446.84,-217.81C435.88,-207.85 421.42,-194.7 409.4,-183.77"/>
<polygon fill="black" stroke="black" points="411.67,-181.11 401.92,-176.97 406.96,-186.29 411.67,-181.11"/>
</g>
<!-- Fallback* -->
<g id="node10" class="node">
<title>Fallback*</title>
<polygon fill="cyan" stroke="black" points="495.29,-154.54 495.29,-169.46 476.7,-180 450.4,-180 431.81,-169.46 431.81,-154.54 450.4,-144 476.7,-144 495.29,-154.54"/>
<text text-anchor="middle" x="463.55" y="-159.8" font-family="Times,serif" font-size="9.00">Fallback*</text>
</g>
<!-- Sequence&#45;&gt;Fallback* -->
<g id="edge9" class="edge">
<title>Sequence&#45;&gt;Fallback*</title>
<path fill="none" stroke="black" d="M463.55,-215.7C463.55,-207.98 463.55,-198.71 463.55,-190.11"/>
<polygon fill="black" stroke="black" points="467.05,-190.1 463.55,-180.1 460.05,-190.1 467.05,-190.1"/>
</g>
<!-- place at (0.016, 0.032, 0.0)! -->
<g id="node13" class="node">
<title>place at (0.016, 0.032, 0.0)!</title>
<ellipse fill="gray" stroke="black" cx="579.55" cy="-162" rx="66.29" ry="18"/>
<text text-anchor="middle" x="579.55" y="-159.8" font-family="Times,serif" font-size="9.00">place at (0.016, 0.032, 0.0)!</text>
</g>
<!-- Sequence&#45;&gt;place at (0.016, 0.032, 0.0)! -->
<g id="edge12" class="edge">
<title>Sequence&#45;&gt;place at (0.016, 0.032, 0.0)!</title>
<path fill="none" stroke="black" d="M484.56,-220.32C501.32,-210.21 525.15,-195.83 544.75,-184"/>
<polygon fill="black" stroke="black" points="546.66,-186.94 553.41,-178.77 543.04,-180.94 546.66,-186.94"/>
</g>
<!-- pick 0!* -->
<g id="node14" class="node">
<title>pick 0!*</title>
<ellipse fill="gray" stroke="black" cx="690.55" cy="-162" rx="27" ry="18"/>
<text text-anchor="middle" x="690.55" y="-159.8" font-family="Times,serif" font-size="9.00">pick 0!*</text>
</g>
<!-- Sequence&#45;&gt;pick 0!* -->
<g id="edge13" class="edge">
<title>Sequence&#45;&gt;pick 0!*</title>
<path fill="none" stroke="black" d="M494.49,-226.13C532.7,-217.26 599.39,-200.51 654.55,-180 656.4,-179.31 658.28,-178.57 660.16,-177.79"/>
<polygon fill="black" stroke="black" points="661.75,-180.92 669.49,-173.68 658.93,-174.51 661.75,-180.92"/>
</g>
<!-- Sequence* -->
<g id="node3" class="node">
<title>Sequence*</title>
<polygon fill="cyan" stroke="black" points="214.79,-82.54 214.79,-97.46 194.73,-108 166.37,-108 146.31,-97.46 146.31,-82.54 166.37,-72 194.73,-72 214.79,-82.54"/>
<text text-anchor="middle" x="180.55" y="-87.8" font-family="Times,serif" font-size="9.00">Sequence*</text>
</g>
<!-- Fallback&#45;&gt;Sequence* -->
<g id="edge2" class="edge">
<title>Fallback&#45;&gt;Sequence*</title>
<path fill="none" stroke="black" d="M267.11,-148.16C251.08,-137.58 228.1,-122.4 209.85,-110.35"/>
<polygon fill="black" stroke="black" points="211.59,-107.3 201.32,-104.71 207.73,-113.15 211.59,-107.3"/>
</g>
<!-- pick 3! -->
<g id="node7" class="node">
<title>pick 3!</title>
<ellipse fill="gray" stroke="black" cx="259.55" cy="-90" rx="27" ry="18"/>
<text text-anchor="middle" x="259.55" y="-87.8" font-family="Times,serif" font-size="9.00">pick 3!</text>
</g>
<!-- Fallback&#45;&gt;pick 3! -->
<g id="edge6" class="edge">
<title>Fallback&#45;&gt;pick 3!</title>
<path fill="none" stroke="black" d="M279.88,-143.7C276.79,-135.7 273.06,-126.02 269.64,-117.15"/>
<polygon fill="black" stroke="black" points="272.83,-115.69 265.96,-107.62 266.29,-118.21 272.83,-115.69"/>
</g>
<!-- place at (0.0, 0.0, 0.0)! -->
<g id="node8" class="node">
<title>place at (0.0, 0.0, 0.0)!</title>
<ellipse fill="gray" stroke="black" cx="360.55" cy="-90" rx="56.01" ry="18"/>
<text text-anchor="middle" x="360.55" y="-87.8" font-family="Times,serif" font-size="9.00">place at (0.0, 0.0, 0.0)!</text>
</g>
<!-- Fallback&#45;&gt;place at (0.0, 0.0, 0.0)! -->
<g id="edge7" class="edge">
<title>Fallback&#45;&gt;place at (0.0, 0.0, 0.0)!</title>
<path fill="none" stroke="black" d="M302.24,-146.15C312.03,-136.89 324.84,-124.78 335.96,-114.26"/>
<polygon fill="black" stroke="black" points="338.47,-116.71 343.33,-107.29 333.66,-111.62 338.47,-116.71"/>
</g>
<!-- 3 at pos (0.016, 0.032, 0.0)? -->
<g id="node4" class="node">
<title>3 at pos (0.016, 0.032, 0.0)?</title>
<ellipse fill="gray" stroke="black" cx="67.55" cy="-18" rx="67.6" ry="18"/>
<text text-anchor="middle" x="67.55" y="-15.8" font-family="Times,serif" font-size="9.00">3 at pos (0.016, 0.032, 0.0)?</text>
</g>
<!-- Sequence*&#45;&gt;3 at pos (0.016, 0.032, 0.0)? -->
<g id="edge3" class="edge">
<title>Sequence*&#45;&gt;3 at pos (0.016, 0.032, 0.0)?</title>
<path fill="none" stroke="black" d="M159.03,-75.67C142.78,-65.6 120.16,-51.59 101.48,-40.02"/>
<polygon fill="black" stroke="black" points="103.29,-37.02 92.94,-34.73 99.6,-42.97 103.29,-37.02"/>
</g>
<!-- pick 0! -->
<g id="node5" class="node">
<title>pick 0!</title>
<ellipse fill="gray" stroke="black" cx="180.55" cy="-18" rx="27" ry="18"/>
<text text-anchor="middle" x="180.55" y="-15.8" font-family="Times,serif" font-size="9.00">pick 0!</text>
</g>
<!-- Sequence*&#45;&gt;pick 0! -->
<g id="edge4" class="edge">
<title>Sequence*&#45;&gt;pick 0!</title>
<path fill="none" stroke="black" d="M180.55,-71.7C180.55,-63.98 180.55,-54.71 180.55,-46.11"/>
<polygon fill="black" stroke="black" points="184.05,-46.1 180.55,-36.1 177.05,-46.1 184.05,-46.1"/>
</g>
<!-- 1 on 2? -->
<g id="node6" class="node">
<title>1 on 2?</title>
<ellipse fill="gray" stroke="black" cx="252.55" cy="-18" rx="27" ry="18"/>
<text text-anchor="middle" x="252.55" y="-15.8" font-family="Times,serif" font-size="9.00">1 on 2?</text>
</g>
<!-- Sequence*&#45;&gt;1 on 2? -->
<g id="edge5" class="edge">
<title>Sequence*&#45;&gt;1 on 2?</title>
<path fill="none" stroke="black" d="M196.89,-73.12C206.77,-63.51 219.5,-51.13 230.3,-40.63"/>
<polygon fill="black" stroke="black" points="233.02,-42.87 237.75,-33.39 228.14,-37.85 233.02,-42.87"/>
</g>
<!-- picked 3? -->
<g id="node11" class="node">
<title>picked 3?</title>
<ellipse fill="gray" stroke="black" cx="463.55" cy="-90" rx="28.74" ry="18"/>
<text text-anchor="middle" x="463.55" y="-87.8" font-family="Times,serif" font-size="9.00">picked 3?</text>
</g>
<!-- Fallback*&#45;&gt;picked 3? -->
<g id="edge10" class="edge">
<title>Fallback*&#45;&gt;picked 3?</title>
<path fill="none" stroke="black" d="M463.55,-143.7C463.55,-135.98 463.55,-126.71 463.55,-118.11"/>
<polygon fill="black" stroke="black" points="467.05,-118.1 463.55,-108.1 460.05,-118.1 467.05,-118.1"/>
</g>
<!-- apply force 3! -->
<g id="node12" class="node">
<title>apply force 3!</title>
<ellipse fill="gray" stroke="black" cx="548.55" cy="-90" rx="38.21" ry="18"/>
<text text-anchor="middle" x="548.55" y="-87.8" font-family="Times,serif" font-size="9.00">apply force 3!</text>
</g>
<!-- Fallback*&#45;&gt;apply force 3! -->
<g id="edge11" class="edge">
<title>Fallback*&#45;&gt;apply force 3!</title>
<path fill="none" stroke="black" d="M481.16,-146.5C493.08,-136.68 509.03,-123.54 522.43,-112.51"/>
<polygon fill="black" stroke="black" points="524.88,-115.03 530.37,-105.97 520.43,-109.62 524.88,-115.03"/>
</g>
</g>
</svg>
