<?xml version="1.0" encoding="UTF-8" standalone="no"?>
<!DOCTYPE svg PUBLIC "-//W3C//DTD SVG 1.1//EN"
 "http://www.w3.org/Graphics/SVG/1.1/DTD/svg11.dtd">
<!-- Generated by graphviz version 2.43.0 (0)
 -->
<!-- Title: pastafarianism Pages: 1 -->
<svg width="774pt" height="260pt"
 viewBox="0.00 0.00 774.42 260.00" xmlns="http://www.w3.org/2000/svg" xmlns:xlink="http://www.w3.org/1999/xlink">
<g id="graph0" class="graph" transform="scale(1 1) rotate(0) translate(4 256)">
<title>pastafarianism</title>
<polygon fill="white" stroke="transparent" points="-4,4 -4,-256 770.42,-256 770.42,4 -4,4"/>
<!-- Sequence -->
<g id="node1" class="node">
<title>Sequence</title>
<polygon fill="cyan" stroke="black" points="567.04,-226.54 567.04,-241.46 548.6,-252 522.5,-252 504.06,-241.46 504.06,-226.54 522.5,-216 548.6,-216 567.04,-226.54"/>
<text text-anchor="middle" x="535.55" y="-231.8" font-family="Times,serif" font-size="9.00">Sequence</text>
</g>
<!-- Fallback -->
<g id="node2" class="node">
<title>Fallback</title>
<polygon fill="cyan" stroke="black" points="324.79,-154.54 324.79,-169.46 307.66,-180 283.44,-180 266.31,-169.46 266.31,-154.54 283.44,-144 307.66,-144 324.79,-154.54"/>
<text text-anchor="middle" x="295.55" y="-159.8" font-family="Times,serif" font-size="9.00">Fallback</text>
</g>
<!-- Sequence&#45;&gt;Fallback -->
<g id="edge1" class="edge">
<title>Sequence&#45;&gt;Fallback</title>
<path fill="none" stroke="black" d="M504.27,-226.47C464.16,-217.72 392.71,-200.84 333.55,-180 331.66,-179.33 329.73,-178.61 327.8,-177.86"/>
<polygon fill="black" stroke="black" points="328.79,-174.48 318.21,-173.87 326.1,-180.94 328.79,-174.48"/>
</g>
<!-- pick 3!* -->
<g id="node10" class="node">
<title>pick 3!*</title>
<ellipse fill="gray" stroke="black" cx="369.55" cy="-162" rx="27" ry="18"/>
<text text-anchor="middle" x="369.55" y="-159.8" font-family="Times,serif" font-size="9.00">pick 3!*</text>
</g>
<!-- Sequence&#45;&gt;pick 3!* -->
<g id="edge9" class="edge">
<title>Sequence&#45;&gt;pick 3!*</title>
<path fill="none" stroke="black" d="M509.97,-223.04C483.63,-212.68 441.47,-195.79 405.55,-180 403.75,-179.21 401.9,-178.38 400.04,-177.54"/>
<polygon fill="black" stroke="black" points="401.33,-174.28 390.78,-173.26 398.39,-180.63 401.33,-174.28"/>
</g>
<!-- place at (0.016, 0.032, 0.0)! -->
<g id="node11" class="node">
<title>place at (0.016, 0.032, 0.0)!</title>
<ellipse fill="gray" stroke="black" cx="480.55" cy="-162" rx="66.29" ry="18"/>
<text text-anchor="middle" x="480.55" y="-159.8" font-family="Times,serif" font-size="9.00">place at (0.016, 0.032, 0.0)!</text>
</g>
<!-- Sequence&#45;&gt;place at (0.016, 0.032, 0.0)! -->
<g id="edge10" class="edge">
<title>Sequence&#45;&gt;place at (0.016, 0.032, 0.0)!</title>
<path fill="none" stroke="black" d="M522.24,-216.05C515.55,-207.54 507.32,-197.07 499.94,-187.68"/>
<polygon fill="black" stroke="black" points="502.67,-185.49 493.74,-179.79 497.17,-189.81 502.67,-185.49"/>
</g>
<!-- pick 0!* -->
<g id="node12" class="node">
<title>pick 0!*</title>
<ellipse fill="gray" stroke="black" cx="591.55" cy="-162" rx="27" ry="18"/>
<text text-anchor="middle" x="591.55" y="-159.8" font-family="Times,serif" font-size="9.00">pick 0!*</text>
</g>
<!-- Sequence&#45;&gt;pick 0!* -->
<g id="edge11" class="edge">
<title>Sequence&#45;&gt;pick 0!*</title>
<path fill="none" stroke="black" d="M549.11,-216.05C556.22,-207.17 565.04,-196.14 572.79,-186.45"/>
<polygon fill="black" stroke="black" points="575.75,-188.35 579.26,-178.36 570.28,-183.98 575.75,-188.35"/>
</g>
<!-- 1 on 2? -->
<g id="node13" class="node">
<title>1 on 2?</title>
<ellipse fill="gray" stroke="black" cx="663.55" cy="-162" rx="27" ry="18"/>
<text text-anchor="middle" x="663.55" y="-159.8" font-family="Times,serif" font-size="9.00">1 on 2?</text>
</g>
<!-- Sequence&#45;&gt;1 on 2? -->
<g id="edge12" class="edge">
<title>Sequence&#45;&gt;1 on 2?</title>
<path fill="none" stroke="black" d="M557.55,-220.97C578.76,-209.37 610.97,-191.76 634.32,-178.99"/>
<polygon fill="black" stroke="black" points="636.01,-182.05 643.1,-174.18 632.65,-175.91 636.01,-182.05"/>
</g>
<!-- pick 3!** -->
<g id="node14" class="node">
<title>pick 3!**</title>
<ellipse fill="gray" stroke="black" cx="737.55" cy="-162" rx="28.74" ry="18"/>
<text text-anchor="middle" x="737.55" y="-159.8" font-family="Times,serif" font-size="9.00">pick 3!**</text>
</g>
<!-- Sequence&#45;&gt;pick 3!** -->
<g id="edge13" class="edge">
<title>Sequence&#45;&gt;pick 3!**</title>
<path fill="none" stroke="black" d="M564.32,-224.73C597.32,-215.01 652.9,-197.91 699.55,-180 701.63,-179.2 703.77,-178.35 705.91,-177.46"/>
<polygon fill="black" stroke="black" points="707.4,-180.63 715.21,-173.47 704.64,-174.2 707.4,-180.63"/>
</g>
<!-- Sequence* -->
<g id="node3" class="node">
<title>Sequence*</title>
<polygon fill="cyan" stroke="black" points="250.79,-82.54 250.79,-97.46 230.73,-108 202.37,-108 182.31,-97.46 182.31,-82.54 202.37,-72 230.73,-72 250.79,-82.54"/>
<text text-anchor="middle" x="216.55" y="-87.8" font-family="Times,serif" font-size="9.00">Sequence*</text>
</g>
<!-- Fallback&#45;&gt;Sequence* -->
<g id="edge2" class="edge">
<title>Fallback&#45;&gt;Sequence*</title>
<path fill="none" stroke="black" d="M279.18,-146.5C268.36,-136.9 253.95,-124.14 241.69,-113.27"/>
<polygon fill="black" stroke="black" points="243.8,-110.47 233.99,-106.46 239.16,-115.71 243.8,-110.47"/>
</g>
<!-- pick 3! -->
<g id="node8" class="node">
<title>pick 3!</title>
<ellipse fill="gray" stroke="black" cx="295.55" cy="-90" rx="27" ry="18"/>
<text text-anchor="middle" x="295.55" y="-87.8" font-family="Times,serif" font-size="9.00">pick 3!</text>
</g>
<!-- Fallback&#45;&gt;pick 3! -->
<g id="edge7" class="edge">
<title>Fallback&#45;&gt;pick 3!</title>
<path fill="none" stroke="black" d="M295.55,-143.7C295.55,-135.98 295.55,-126.71 295.55,-118.11"/>
<polygon fill="black" stroke="black" points="299.05,-118.1 295.55,-108.1 292.05,-118.1 299.05,-118.1"/>
</g>
<!-- place at (0.0, 0.0, 0.0)! -->
<g id="node9" class="node">
<title>place at (0.0, 0.0, 0.0)!</title>
<ellipse fill="gray" stroke="black" cx="396.55" cy="-90" rx="56.01" ry="18"/>
<text text-anchor="middle" x="396.55" y="-87.8" font-family="Times,serif" font-size="9.00">place at (0.0, 0.0, 0.0)!</text>
</g>
<!-- Fallback&#45;&gt;place at (0.0, 0.0, 0.0)! -->
<g id="edge8" class="edge">
<title>Fallback&#45;&gt;place at (0.0, 0.0, 0.0)!</title>
<path fill="none" stroke="black" d="M314.55,-147.83C328.95,-137.85 349.05,-123.92 365.74,-112.35"/>
<polygon fill="black" stroke="black" points="367.89,-115.12 374.11,-106.55 363.9,-109.37 367.89,-115.12"/>
</g>
<!-- 3 at pos (0.016, 0.032, 0.0)? -->
<g id="node4" class="node">
<title>3 at pos (0.016, 0.032, 0.0)?</title>
<ellipse fill="gray" stroke="black" cx="67.55" cy="-18" rx="67.6" ry="18"/>
<text text-anchor="middle" x="67.55" y="-15.8" font-family="Times,serif" font-size="9.00">3 at pos (0.016, 0.032, 0.0)?</text>
</g>
<!-- Sequence*&#45;&gt;3 at pos (0.016, 0.032, 0.0)? -->
<g id="edge3" class="edge">
<title>Sequence*&#45;&gt;3 at pos (0.016, 0.032, 0.0)?</title>
<path fill="none" stroke="black" d="M191.95,-77.44C169.32,-66.81 135.33,-50.84 108.6,-38.28"/>
<polygon fill="black" stroke="black" points="110.01,-35.08 99.47,-34 107.04,-41.42 110.01,-35.08"/>
</g>
<!-- pick 0! -->
<g id="node5" class="node">
<title>pick 0!</title>
<ellipse fill="gray" stroke="black" cx="180.55" cy="-18" rx="27" ry="18"/>
<text text-anchor="middle" x="180.55" y="-15.8" font-family="Times,serif" font-size="9.00">pick 0!</text>
</g>
<!-- Sequence*&#45;&gt;pick 0! -->
<g id="edge4" class="edge">
<title>Sequence*&#45;&gt;pick 0!</title>
<path fill="none" stroke="black" d="M207.65,-71.7C203.39,-63.4 198.2,-53.31 193.5,-44.19"/>
<polygon fill="black" stroke="black" points="196.54,-42.44 188.85,-35.14 190.31,-45.64 196.54,-42.44"/>
</g>
<!-- 1 on 0? -->
<g id="node6" class="node">
<title>1 on 0?</title>
<ellipse fill="gray" stroke="black" cx="252.55" cy="-18" rx="27" ry="18"/>
<text text-anchor="middle" x="252.55" y="-15.8" font-family="Times,serif" font-size="9.00">1 on 0?</text>
</g>
<!-- Sequence*&#45;&gt;1 on 0? -->
<g id="edge5" class="edge">
<title>Sequence*&#45;&gt;1 on 0?</title>
<path fill="none" stroke="black" d="M225.45,-71.7C229.71,-63.4 234.9,-53.31 239.6,-44.19"/>
<polygon fill="black" stroke="black" points="242.79,-45.64 244.25,-35.14 236.56,-42.44 242.79,-45.64"/>
</g>
<!-- 2 at pos (0.016, &#45;0.032, 0.0)? -->
<g id="node7" class="node">
<title>2 at pos (0.016, &#45;0.032, 0.0)?</title>
<ellipse fill="gray" stroke="black" cx="366.55" cy="-18" rx="69.06" ry="18"/>
<text text-anchor="middle" x="366.55" y="-15.8" font-family="Times,serif" font-size="9.00">2 at pos (0.016, &#45;0.032, 0.0)?</text>
</g>
<!-- Sequence*&#45;&gt;2 at pos (0.016, &#45;0.032, 0.0)? -->
<g id="edge6" class="edge">
<title>Sequence*&#45;&gt;2 at pos (0.016, &#45;0.032, 0.0)?</title>
<path fill="none" stroke="black" d="M241.32,-77.44C264.1,-66.81 298.31,-50.84 325.23,-38.28"/>
<polygon fill="black" stroke="black" points="326.83,-41.4 334.41,-34 323.87,-35.06 326.83,-41.4"/>
</g>
</g>
</svg>
