<?xml version="1.0" encoding="UTF-8" standalone="no"?>
<!DOCTYPE svg PUBLIC "-//W3C//DTD SVG 1.1//EN"
 "http://www.w3.org/Graphics/SVG/1.1/DTD/svg11.dtd">
<!-- Generated by graphviz version 2.43.0 (0)
 -->
<!-- Title: pastafarianism Pages: 1 -->
<svg width="887pt" height="260pt"
 viewBox="0.00 0.00 886.95 260.00" xmlns="http://www.w3.org/2000/svg" xmlns:xlink="http://www.w3.org/1999/xlink">
<g id="graph0" class="graph" transform="scale(1 1) rotate(0) translate(4 256)">
<title>pastafarianism</title>
<polygon fill="white" stroke="transparent" points="-4,4 -4,-256 882.95,-256 882.95,4 -4,4"/>
<!-- Sequence -->
<g id="node1" class="node">
<title>Sequence</title>
<polygon fill="cyan" stroke="black" points="564.04,-226.54 564.04,-241.46 545.6,-252 519.5,-252 501.06,-241.46 501.06,-226.54 519.5,-216 545.6,-216 564.04,-226.54"/>
<text text-anchor="middle" x="532.55" y="-231.8" font-family="Times,serif" font-size="9.00">Sequence</text>
</g>
<!-- Fallback -->
<g id="node2" class="node">
<title>Fallback</title>
<polygon fill="cyan" stroke="black" points="482.79,-154.54 482.79,-169.46 465.66,-180 441.44,-180 424.31,-169.46 424.31,-154.54 441.44,-144 465.66,-144 482.79,-154.54"/>
<text text-anchor="middle" x="453.55" y="-159.8" font-family="Times,serif" font-size="9.00">Fallback</text>
</g>
<!-- Sequence&#45;&gt;Fallback -->
<g id="edge1" class="edge">
<title>Sequence&#45;&gt;Fallback</title>
<path fill="none" stroke="black" d="M515.41,-217.81C504.31,-207.98 489.71,-195.04 477.48,-184.21"/>
<polygon fill="black" stroke="black" points="479.65,-181.45 469.85,-177.44 475.01,-186.69 479.65,-181.45"/>
</g>
<!-- pick 3!*** -->
<g id="node18" class="node">
<title>pick 3!***</title>
<ellipse fill="gray" stroke="black" cx="532.55" cy="-162" rx="31.51" ry="18"/>
<text text-anchor="middle" x="532.55" y="-159.8" font-family="Times,serif" font-size="9.00">pick 3!***</text>
</g>
<!-- Sequence&#45;&gt;pick 3!*** -->
<g id="edge17" class="edge">
<title>Sequence&#45;&gt;pick 3!***</title>
<path fill="none" stroke="black" d="M532.55,-215.7C532.55,-207.98 532.55,-198.71 532.55,-190.11"/>
<polygon fill="black" stroke="black" points="536.05,-190.1 532.55,-180.1 529.05,-190.1 536.05,-190.1"/>
</g>
<!-- place at (0.016, 0.032, 0.0)!* -->
<g id="node19" class="node">
<title>place at (0.016, 0.032, 0.0)!*</title>
<ellipse fill="gray" stroke="black" cx="650.55" cy="-162" rx="68.91" ry="18"/>
<text text-anchor="middle" x="650.55" y="-159.8" font-family="Times,serif" font-size="9.00">place at (0.016, 0.032, 0.0)!*</text>
</g>
<!-- Sequence&#45;&gt;place at (0.016, 0.032, 0.0)!* -->
<g id="edge18" class="edge">
<title>Sequence&#45;&gt;place at (0.016, 0.032, 0.0)!*</title>
<path fill="none" stroke="black" d="M553.65,-220.49C570.66,-210.39 594.97,-195.97 614.99,-184.1"/>
<polygon fill="black" stroke="black" points="617.02,-186.96 623.84,-178.85 613.45,-180.94 617.02,-186.96"/>
</g>
<!-- 2 at pos (0.016, &#45;0.032, 0.0)? -->
<g id="node3" class="node">
<title>2 at pos (0.016, &#45;0.032, 0.0)?</title>
<ellipse fill="gray" stroke="black" cx="130.55" cy="-90" rx="69.06" ry="18"/>
<text text-anchor="middle" x="130.55" y="-87.8" font-family="Times,serif" font-size="9.00">2 at pos (0.016, &#45;0.032, 0.0)?</text>
</g>
<!-- Fallback&#45;&gt;2 at pos (0.016, &#45;0.032, 0.0)? -->
<g id="edge2" class="edge">
<title>Fallback&#45;&gt;2 at pos (0.016, &#45;0.032, 0.0)?</title>
<path fill="none" stroke="black" d="M424.03,-154.6C371.63,-143.25 261.37,-119.35 191.91,-104.3"/>
<polygon fill="black" stroke="black" points="192.49,-100.84 181.98,-102.14 191.01,-107.68 192.49,-100.84"/>
</g>
<!-- Sequence* -->
<g id="node4" class="node">
<title>Sequence*</title>
<polygon fill="cyan" stroke="black" points="286.79,-82.54 286.79,-97.46 266.73,-108 238.37,-108 218.31,-97.46 218.31,-82.54 238.37,-72 266.73,-72 286.79,-82.54"/>
<text text-anchor="middle" x="252.55" y="-87.8" font-family="Times,serif" font-size="9.00">Sequence*</text>
</g>
<!-- Fallback&#45;&gt;Sequence* -->
<g id="edge3" class="edge">
<title>Fallback&#45;&gt;Sequence*</title>
<path fill="none" stroke="black" d="M427.12,-152.61C395.63,-142.5 341.48,-124.77 295.55,-108 293.17,-107.13 290.73,-106.22 288.28,-105.29"/>
<polygon fill="black" stroke="black" points="289.43,-101.99 278.84,-101.65 286.91,-108.52 289.43,-101.99"/>
</g>
<!-- pick 3! -->
<g id="node10" class="node">
<title>pick 3!</title>
<ellipse fill="gray" stroke="black" cx="331.55" cy="-90" rx="27" ry="18"/>
<text text-anchor="middle" x="331.55" y="-87.8" font-family="Times,serif" font-size="9.00">pick 3!</text>
</g>
<!-- Fallback&#45;&gt;pick 3! -->
<g id="edge9" class="edge">
<title>Fallback&#45;&gt;pick 3!</title>
<path fill="none" stroke="black" d="M432.85,-149.13C412.9,-137.67 382.52,-120.25 360.24,-107.46"/>
<polygon fill="black" stroke="black" points="361.95,-104.41 351.54,-102.47 358.47,-110.48 361.95,-104.41"/>
</g>
<!-- pick 3!* -->
<g id="node11" class="node">
<title>pick 3!*</title>
<ellipse fill="gray" stroke="black" cx="403.55" cy="-90" rx="27" ry="18"/>
<text text-anchor="middle" x="403.55" y="-87.8" font-family="Times,serif" font-size="9.00">pick 3!*</text>
</g>
<!-- Fallback&#45;&gt;pick 3!* -->
<g id="edge10" class="edge">
<title>Fallback&#45;&gt;pick 3!*</title>
<path fill="none" stroke="black" d="M441.19,-143.7C434.99,-135.02 427.38,-124.37 420.64,-114.92"/>
<polygon fill="black" stroke="black" points="423.4,-112.77 414.74,-106.67 417.71,-116.84 423.4,-112.77"/>
</g>
<!-- place at (0.0, 0.0, 0.0)! -->
<g id="node12" class="node">
<title>place at (0.0, 0.0, 0.0)!</title>
<ellipse fill="gray" stroke="black" cx="504.55" cy="-90" rx="56.01" ry="18"/>
<text text-anchor="middle" x="504.55" y="-87.8" font-family="Times,serif" font-size="9.00">place at (0.0, 0.0, 0.0)!</text>
</g>
<!-- Fallback&#45;&gt;place at (0.0, 0.0, 0.0)! -->
<g id="edge11" class="edge">
<title>Fallback&#45;&gt;place at (0.0, 0.0, 0.0)!</title>
<path fill="none" stroke="black" d="M465.9,-144.05C472.03,-135.63 479.57,-125.28 486.36,-115.97"/>
<polygon fill="black" stroke="black" points="489.26,-117.93 492.32,-107.79 483.6,-113.81 489.26,-117.93"/>
</g>
<!-- pick 3!** -->
<g id="node13" class="node">
<title>pick 3!**</title>
<ellipse fill="gray" stroke="black" cx="607.55" cy="-90" rx="28.74" ry="18"/>
<text text-anchor="middle" x="607.55" y="-87.8" font-family="Times,serif" font-size="9.00">pick 3!**</text>
</g>
<!-- Fallback&#45;&gt;pick 3!** -->
<g id="edge12" class="edge">
<title>Fallback&#45;&gt;pick 3!**</title>
<path fill="none" stroke="black" d="M476.61,-150.52C502.84,-138.6 545.86,-119.04 575.39,-105.62"/>
<polygon fill="black" stroke="black" points="577.18,-108.65 584.84,-101.32 574.29,-102.27 577.18,-108.65"/>
</g>
<!-- Sequence** -->
<g id="node14" class="node">
<title>Sequence**</title>
<polygon fill="cyan" stroke="black" points="728.29,-82.54 728.29,-97.46 706.77,-108 676.33,-108 654.81,-97.46 654.81,-82.54 676.33,-72 706.77,-72 728.29,-82.54"/>
<text text-anchor="middle" x="691.55" y="-87.8" font-family="Times,serif" font-size="9.00">Sequence**</text>
</g>
<!-- Fallback&#45;&gt;Sequence** -->
<g id="edge13" class="edge">
<title>Fallback&#45;&gt;Sequence**</title>
<path fill="none" stroke="black" d="M475.77,-150.21C480.88,-147.97 486.35,-145.75 491.55,-144 558.16,-121.55 578.23,-128.22 645.55,-108 648.3,-107.17 651.13,-106.27 653.96,-105.32"/>
<polygon fill="black" stroke="black" points="655.23,-108.59 663.52,-101.99 652.92,-101.98 655.23,-108.59"/>
</g>
<!-- place at (0.016, 0.032, 0.0)! -->
<g id="node17" class="node">
<title>place at (0.016, 0.032, 0.0)!</title>
<ellipse fill="gray" stroke="black" cx="812.55" cy="-90" rx="66.29" ry="18"/>
<text text-anchor="middle" x="812.55" y="-87.8" font-family="Times,serif" font-size="9.00">place at (0.016, 0.032, 0.0)!</text>
</g>
<!-- Fallback&#45;&gt;place at (0.016, 0.032, 0.0)! -->
<g id="edge16" class="edge">
<title>Fallback&#45;&gt;place at (0.016, 0.032, 0.0)!</title>
<path fill="none" stroke="black" d="M475.67,-149.88C480.78,-147.66 486.28,-145.53 491.55,-144 597.65,-113.15 628.92,-128.23 737.55,-108 742.96,-106.99 748.58,-105.87 754.19,-104.69"/>
<polygon fill="black" stroke="black" points="755.21,-108.05 764.25,-102.53 753.74,-101.21 755.21,-108.05"/>
</g>
<!-- 3 at pos (0.016, 0.032, 0.0)? -->
<g id="node5" class="node">
<title>3 at pos (0.016, 0.032, 0.0)?</title>
<ellipse fill="gray" stroke="black" cx="67.55" cy="-18" rx="67.6" ry="18"/>
<text text-anchor="middle" x="67.55" y="-15.8" font-family="Times,serif" font-size="9.00">3 at pos (0.016, 0.032, 0.0)?</text>
</g>
<!-- Sequence*&#45;&gt;3 at pos (0.016, 0.032, 0.0)? -->
<g id="edge4" class="edge">
<title>Sequence*&#45;&gt;3 at pos (0.016, 0.032, 0.0)?</title>
<path fill="none" stroke="black" d="M225.57,-78.53C219.95,-76.36 214.06,-74.1 208.55,-72 177.43,-60.14 142.37,-46.96 115,-36.71"/>
<polygon fill="black" stroke="black" points="115.88,-33.31 105.29,-33.08 113.43,-39.86 115.88,-33.31"/>
</g>
<!-- pick 0! -->
<g id="node6" class="node">
<title>pick 0!</title>
<ellipse fill="gray" stroke="black" cx="180.55" cy="-18" rx="27" ry="18"/>
<text text-anchor="middle" x="180.55" y="-15.8" font-family="Times,serif" font-size="9.00">pick 0!</text>
</g>
<!-- Sequence*&#45;&gt;pick 0! -->
<g id="edge5" class="edge">
<title>Sequence*&#45;&gt;pick 0!</title>
<path fill="none" stroke="black" d="M236.21,-73.12C226.33,-63.51 213.6,-51.13 202.8,-40.63"/>
<polygon fill="black" stroke="black" points="204.96,-37.85 195.35,-33.39 200.08,-42.87 204.96,-37.85"/>
</g>
<!-- pick 0!* -->
<g id="node7" class="node">
<title>pick 0!*</title>
<ellipse fill="gray" stroke="black" cx="252.55" cy="-18" rx="27" ry="18"/>
<text text-anchor="middle" x="252.55" y="-15.8" font-family="Times,serif" font-size="9.00">pick 0!*</text>
</g>
<!-- Sequence*&#45;&gt;pick 0!* -->
<g id="edge6" class="edge">
<title>Sequence*&#45;&gt;pick 0!*</title>
<path fill="none" stroke="black" d="M252.55,-71.7C252.55,-63.98 252.55,-54.71 252.55,-46.11"/>
<polygon fill="black" stroke="black" points="256.05,-46.1 252.55,-36.1 249.05,-46.1 256.05,-46.1"/>
</g>
<!-- 1 on 2? -->
<g id="node8" class="node">
<title>1 on 2?</title>
<ellipse fill="gray" stroke="black" cx="324.55" cy="-18" rx="27" ry="18"/>
<text text-anchor="middle" x="324.55" y="-15.8" font-family="Times,serif" font-size="9.00">1 on 2?</text>
</g>
<!-- Sequence*&#45;&gt;1 on 2? -->
<g id="edge7" class="edge">
<title>Sequence*&#45;&gt;1 on 2?</title>
<path fill="none" stroke="black" d="M268.89,-73.12C278.77,-63.51 291.5,-51.13 302.3,-40.63"/>
<polygon fill="black" stroke="black" points="305.02,-42.87 309.75,-33.39 300.14,-37.85 305.02,-42.87"/>
</g>
<!-- picked 3? -->
<g id="node9" class="node">
<title>picked 3?</title>
<ellipse fill="gray" stroke="black" cx="398.55" cy="-18" rx="28.74" ry="18"/>
<text text-anchor="middle" x="398.55" y="-15.8" font-family="Times,serif" font-size="9.00">picked 3?</text>
</g>
<!-- Sequence*&#45;&gt;picked 3? -->
<g id="edge8" class="edge">
<title>Sequence*&#45;&gt;picked 3?</title>
<path fill="none" stroke="black" d="M276.99,-77.28C301.82,-65.38 340.38,-46.89 367.39,-33.94"/>
<polygon fill="black" stroke="black" points="368.92,-37.09 376.43,-29.61 365.9,-30.77 368.92,-37.09"/>
</g>
<!-- 3 at pos (0.016, 0.032, 0.0)?* -->
<g id="node15" class="node">
<title>3 at pos (0.016, 0.032, 0.0)?*</title>
<ellipse fill="gray" stroke="black" cx="633.55" cy="-18" rx="70.37" ry="18"/>
<text text-anchor="middle" x="633.55" y="-15.8" font-family="Times,serif" font-size="9.00">3 at pos (0.016, 0.032, 0.0)?*</text>
</g>
<!-- Sequence**&#45;&gt;3 at pos (0.016, 0.032, 0.0)?* -->
<g id="edge14" class="edge">
<title>Sequence**&#45;&gt;3 at pos (0.016, 0.032, 0.0)?*</title>
<path fill="none" stroke="black" d="M677.21,-71.7C670.26,-63.3 661.78,-53.07 654.15,-43.86"/>
<polygon fill="black" stroke="black" points="656.8,-41.57 647.72,-36.1 651.41,-46.04 656.8,-41.57"/>
</g>
<!-- 1 on 2?* -->
<g id="node16" class="node">
<title>1 on 2?*</title>
<ellipse fill="gray" stroke="black" cx="749.55" cy="-18" rx="27.27" ry="18"/>
<text text-anchor="middle" x="749.55" y="-15.8" font-family="Times,serif" font-size="9.00">1 on 2?*</text>
</g>
<!-- Sequence**&#45;&gt;1 on 2?* -->
<g id="edge15" class="edge">
<title>Sequence**&#45;&gt;1 on 2?*</title>
<path fill="none" stroke="black" d="M705.89,-71.7C713.33,-62.71 722.52,-51.62 730.55,-41.93"/>
<polygon fill="black" stroke="black" points="733.27,-44.14 736.95,-34.2 727.88,-39.67 733.27,-44.14"/>
</g>
</g>
</svg>
