<?xml version="1.0" encoding="UTF-8" standalone="no"?>
<!DOCTYPE svg PUBLIC "-//W3C//DTD SVG 1.1//EN"
 "http://www.w3.org/Graphics/SVG/1.1/DTD/svg11.dtd">
<!-- Generated by graphviz version 2.43.0 (0)
 -->
<!-- Title: pastafarianism Pages: 1 -->
<svg width="630pt" height="260pt"
 viewBox="0.00 0.00 630.42 260.00" xmlns="http://www.w3.org/2000/svg" xmlns:xlink="http://www.w3.org/1999/xlink">
<g id="graph0" class="graph" transform="scale(1 1) rotate(0) translate(4 256)">
<title>pastafarianism</title>
<polygon fill="white" stroke="transparent" points="-4,4 -4,-256 626.42,-256 626.42,4 -4,4"/>
<!-- Sequence -->
<g id="node1" class="node">
<title>Sequence</title>
<polygon fill="cyan" stroke="black" points="456.04,-226.54 456.04,-241.46 437.6,-252 411.5,-252 393.06,-241.46 393.06,-226.54 411.5,-216 437.6,-216 456.04,-226.54"/>
<text text-anchor="middle" x="424.55" y="-231.8" font-family="Times,serif" font-size="9.00">Sequence</text>
</g>
<!-- Fallback -->
<g id="node2" class="node">
<title>Fallback</title>
<polygon fill="cyan" stroke="black" points="324.79,-154.54 324.79,-169.46 307.66,-180 283.44,-180 266.31,-169.46 266.31,-154.54 283.44,-144 307.66,-144 324.79,-154.54"/>
<text text-anchor="middle" x="295.55" y="-159.8" font-family="Times,serif" font-size="9.00">Fallback</text>
</g>
<!-- Sequence&#45;&gt;Fallback -->
<g id="edge1" class="edge">
<title>Sequence&#45;&gt;Fallback</title>
<path fill="none" stroke="black" d="M402.37,-220.97C381.26,-209.51 349.31,-192.17 325.86,-179.44"/>
<polygon fill="black" stroke="black" points="327.47,-176.34 317.01,-174.64 324.13,-182.49 327.47,-176.34"/>
</g>
<!-- pick 3!* -->
<g id="node10" class="node">
<title>pick 3!*</title>
<ellipse fill="gray" stroke="black" cx="369.55" cy="-162" rx="27" ry="18"/>
<text text-anchor="middle" x="369.55" y="-159.8" font-family="Times,serif" font-size="9.00">pick 3!*</text>
</g>
<!-- Sequence&#45;&gt;pick 3!* -->
<g id="edge9" class="edge">
<title>Sequence&#45;&gt;pick 3!*</title>
<path fill="none" stroke="black" d="M411.24,-216.05C404.25,-207.17 395.59,-196.14 387.97,-186.45"/>
<polygon fill="black" stroke="black" points="390.55,-184.06 381.62,-178.36 385.04,-188.38 390.55,-184.06"/>
</g>
<!-- place at (0.016, 0.032, 0.0)! -->
<g id="node11" class="node">
<title>place at (0.016, 0.032, 0.0)!</title>
<ellipse fill="gray" stroke="black" cx="480.55" cy="-162" rx="66.29" ry="18"/>
<text text-anchor="middle" x="480.55" y="-159.8" font-family="Times,serif" font-size="9.00">place at (0.016, 0.032, 0.0)!</text>
</g>
<!-- Sequence&#45;&gt;place at (0.016, 0.032, 0.0)! -->
<g id="edge10" class="edge">
<title>Sequence&#45;&gt;place at (0.016, 0.032, 0.0)!</title>
<path fill="none" stroke="black" d="M438.11,-216.05C444.92,-207.54 453.3,-197.07 460.8,-187.68"/>
<polygon fill="black" stroke="black" points="463.6,-189.78 467.12,-179.79 458.14,-185.41 463.6,-189.78"/>
</g>
<!-- pick 3!** -->
<g id="node12" class="node">
<title>pick 3!**</title>
<ellipse fill="gray" stroke="black" cx="593.55" cy="-162" rx="28.74" ry="18"/>
<text text-anchor="middle" x="593.55" y="-159.8" font-family="Times,serif" font-size="9.00">pick 3!**</text>
</g>
<!-- Sequence&#45;&gt;pick 3!** -->
<g id="edge11" class="edge">
<title>Sequence&#45;&gt;pick 3!**</title>
<path fill="none" stroke="black" d="M450.27,-222.91C476.76,-212.45 519.21,-195.47 555.55,-180 557.4,-179.21 559.29,-178.4 561.19,-177.57"/>
<polygon fill="black" stroke="black" points="562.96,-180.62 570.7,-173.38 560.14,-174.21 562.96,-180.62"/>
</g>
<!-- Sequence* -->
<g id="node3" class="node">
<title>Sequence*</title>
<polygon fill="cyan" stroke="black" points="250.79,-82.54 250.79,-97.46 230.73,-108 202.37,-108 182.31,-97.46 182.31,-82.54 202.37,-72 230.73,-72 250.79,-82.54"/>
<text text-anchor="middle" x="216.55" y="-87.8" font-family="Times,serif" font-size="9.00">Sequence*</text>
</g>
<!-- Fallback&#45;&gt;Sequence* -->
<g id="edge2" class="edge">
<title>Fallback&#45;&gt;Sequence*</title>
<path fill="none" stroke="black" d="M279.18,-146.5C268.36,-136.9 253.95,-124.14 241.69,-113.27"/>
<polygon fill="black" stroke="black" points="243.8,-110.47 233.99,-106.46 239.16,-115.71 243.8,-110.47"/>
</g>
<!-- pick 3! -->
<g id="node8" class="node">
<title>pick 3!</title>
<ellipse fill="gray" stroke="black" cx="295.55" cy="-90" rx="27" ry="18"/>
<text text-anchor="middle" x="295.55" y="-87.8" font-family="Times,serif" font-size="9.00">pick 3!</text>
</g>
<!-- Fallback&#45;&gt;pick 3! -->
<g id="edge7" class="edge">
<title>Fallback&#45;&gt;pick 3!</title>
<path fill="none" stroke="black" d="M295.55,-143.7C295.55,-135.98 295.55,-126.71 295.55,-118.11"/>
<polygon fill="black" stroke="black" points="299.05,-118.1 295.55,-108.1 292.05,-118.1 299.05,-118.1"/>
</g>
<!-- place at (0.0, 0.0, 0.0)! -->
<g id="node9" class="node">
<title>place at (0.0, 0.0, 0.0)!</title>
<ellipse fill="gray" stroke="black" cx="396.55" cy="-90" rx="56.01" ry="18"/>
<text text-anchor="middle" x="396.55" y="-87.8" font-family="Times,serif" font-size="9.00">place at (0.0, 0.0, 0.0)!</text>
</g>
<!-- Fallback&#45;&gt;place at (0.0, 0.0, 0.0)! -->
<g id="edge8" class="edge">
<title>Fallback&#45;&gt;place at (0.0, 0.0, 0.0)!</title>
<path fill="none" stroke="black" d="M314.55,-147.83C328.95,-137.85 349.05,-123.92 365.74,-112.35"/>
<polygon fill="black" stroke="black" points="367.89,-115.12 374.11,-106.55 363.9,-109.37 367.89,-115.12"/>
</g>
<!-- 3 at pos (0.016, 0.032, 0.0)? -->
<g id="node4" class="node">
<title>3 at pos (0.016, 0.032, 0.0)?</title>
<ellipse fill="gray" stroke="black" cx="67.55" cy="-18" rx="67.6" ry="18"/>
<text text-anchor="middle" x="67.55" y="-15.8" font-family="Times,serif" font-size="9.00">3 at pos (0.016, 0.032, 0.0)?</text>
</g>
<!-- Sequence*&#45;&gt;3 at pos (0.016, 0.032, 0.0)? -->
<g id="edge3" class="edge">
<title>Sequence*&#45;&gt;3 at pos (0.016, 0.032, 0.0)?</title>
<path fill="none" stroke="black" d="M191.95,-77.44C169.32,-66.81 135.33,-50.84 108.6,-38.28"/>
<polygon fill="black" stroke="black" points="110.01,-35.08 99.47,-34 107.04,-41.42 110.01,-35.08"/>
</g>
<!-- pick 0! -->
<g id="node5" class="node">
<title>pick 0!</title>
<ellipse fill="gray" stroke="black" cx="180.55" cy="-18" rx="27" ry="18"/>
<text text-anchor="middle" x="180.55" y="-15.8" font-family="Times,serif" font-size="9.00">pick 0!</text>
</g>
<!-- Sequence*&#45;&gt;pick 0! -->
<g id="edge4" class="edge">
<title>Sequence*&#45;&gt;pick 0!</title>
<path fill="none" stroke="black" d="M207.65,-71.7C203.39,-63.4 198.2,-53.31 193.5,-44.19"/>
<polygon fill="black" stroke="black" points="196.54,-42.44 188.85,-35.14 190.31,-45.64 196.54,-42.44"/>
</g>
<!-- 1 on 2? -->
<g id="node6" class="node">
<title>1 on 2?</title>
<ellipse fill="gray" stroke="black" cx="252.55" cy="-18" rx="27" ry="18"/>
<text text-anchor="middle" x="252.55" y="-15.8" font-family="Times,serif" font-size="9.00">1 on 2?</text>
</g>
<!-- Sequence*&#45;&gt;1 on 2? -->
<g id="edge5" class="edge">
<title>Sequence*&#45;&gt;1 on 2?</title>
<path fill="none" stroke="black" d="M225.45,-71.7C229.71,-63.4 234.9,-53.31 239.6,-44.19"/>
<polygon fill="black" stroke="black" points="242.79,-45.64 244.25,-35.14 236.56,-42.44 242.79,-45.64"/>
</g>
<!-- pick 0!* -->
<g id="node7" class="node">
<title>pick 0!*</title>
<ellipse fill="gray" stroke="black" cx="324.55" cy="-18" rx="27" ry="18"/>
<text text-anchor="middle" x="324.55" y="-15.8" font-family="Times,serif" font-size="9.00">pick 0!*</text>
</g>
<!-- Sequence*&#45;&gt;pick 0!* -->
<g id="edge6" class="edge">
<title>Sequence*&#45;&gt;pick 0!*</title>
<path fill="none" stroke="black" d="M237.63,-75.34C254.62,-64.33 278.63,-48.76 297.12,-36.78"/>
<polygon fill="black" stroke="black" points="299.2,-39.6 305.69,-31.22 295.4,-33.73 299.2,-39.6"/>
</g>
</g>
</svg>
