<?xml version="1.0" encoding="UTF-8" standalone="no"?>
<!DOCTYPE svg PUBLIC "-//W3C//DTD SVG 1.1//EN"
 "http://www.w3.org/Graphics/SVG/1.1/DTD/svg11.dtd">
<!-- Generated by graphviz version 2.43.0 (0)
 -->
<!-- Title: pastafarianism Pages: 1 -->
<svg width="834pt" height="188pt"
 viewBox="0.00 0.00 833.79 188.00" xmlns="http://www.w3.org/2000/svg" xmlns:xlink="http://www.w3.org/1999/xlink">
<g id="graph0" class="graph" transform="scale(1 1) rotate(0) translate(4 184)">
<title>pastafarianism</title>
<polygon fill="white" stroke="transparent" points="-4,4 -4,-184 829.79,-184 829.79,4 -4,4"/>
<!-- Fallback -->
<g id="node1" class="node">
<title>Fallback</title>
<polygon fill="cyan" stroke="black" points="422.11,-154.54 422.11,-169.46 404.98,-180 380.75,-180 363.62,-169.46 363.62,-154.54 380.75,-144 404.98,-144 422.11,-154.54"/>
<text text-anchor="middle" x="392.87" y="-159.8" font-family="Times,serif" font-size="9.00">Fallback</text>
</g>
<!-- MoveTo! -->
<g id="node2" class="node">
<title>MoveTo!</title>
<ellipse fill="gray" stroke="black" cx="28.87" cy="-90" rx="28.74" ry="18"/>
<text text-anchor="middle" x="28.87" y="-87.8" font-family="Times,serif" font-size="9.00">MoveTo!</text>
</g>
<!-- Fallback&#45;&gt;MoveTo! -->
<g id="edge1" class="edge">
<title>Fallback&#45;&gt;MoveTo!</title>
<path fill="none" stroke="black" d="M363.52,-158.79C305.7,-153.89 173.43,-139.91 66.87,-108 64.59,-107.32 62.27,-106.53 59.95,-105.68"/>
<polygon fill="black" stroke="black" points="61.18,-102.4 50.6,-101.88 58.55,-108.88 61.18,-102.4"/>
</g>
<!-- GetSubGoal! -->
<g id="node3" class="node">
<title>GetSubGoal!</title>
<ellipse fill="gray" stroke="black" cx="112.87" cy="-90" rx="36.9" ry="18"/>
<text text-anchor="middle" x="112.87" y="-87.8" font-family="Times,serif" font-size="9.00">GetSubGoal!</text>
</g>
<!-- Fallback&#45;&gt;GetSubGoal! -->
<g id="edge2" class="edge">
<title>Fallback&#45;&gt;GetSubGoal!</title>
<path fill="none" stroke="black" d="M363.36,-155.61C318.68,-147.15 231.35,-129.5 158.87,-108 156.11,-107.18 153.28,-106.29 150.45,-105.34"/>
<polygon fill="black" stroke="black" points="151.48,-102 140.89,-102.02 149.19,-108.61 151.48,-102"/>
</g>
<!-- CompLkGraph! -->
<g id="node4" class="node">
<title>CompLkGraph!</title>
<ellipse fill="gray" stroke="black" cx="210.87" cy="-90" rx="42.95" ry="18"/>
<text text-anchor="middle" x="210.87" y="-87.8" font-family="Times,serif" font-size="9.00">CompLkGraph!</text>
</g>
<!-- Fallback&#45;&gt;CompLkGraph! -->
<g id="edge3" class="edge">
<title>Fallback&#45;&gt;CompLkGraph!</title>
<path fill="none" stroke="black" d="M368.32,-151.56C338.26,-140 286.91,-120.25 251.05,-106.46"/>
<polygon fill="black" stroke="black" points="251.97,-103.06 241.38,-102.74 249.46,-109.59 251.97,-103.06"/>
</g>
<!-- LkClose? -->
<g id="node5" class="node">
<title>LkClose?</title>
<ellipse fill="gray" stroke="black" cx="300.87" cy="-90" rx="28.74" ry="18"/>
<text text-anchor="middle" x="300.87" y="-87.8" font-family="Times,serif" font-size="9.00">LkClose?</text>
</g>
<!-- Fallback&#45;&gt;LkClose? -->
<g id="edge4" class="edge">
<title>Fallback&#45;&gt;LkClose?</title>
<path fill="none" stroke="black" d="M374.69,-147.17C360.91,-136.68 341.78,-122.13 326.45,-110.46"/>
<polygon fill="black" stroke="black" points="328.46,-107.6 318.38,-104.33 324.22,-113.17 328.46,-107.6"/>
</g>
<!-- CompLkGraph!* -->
<g id="node6" class="node">
<title>CompLkGraph!*</title>
<ellipse fill="gray" stroke="black" cx="392.87" cy="-90" rx="45.07" ry="18"/>
<text text-anchor="middle" x="392.87" y="-87.8" font-family="Times,serif" font-size="9.00">CompLkGraph!*</text>
</g>
<!-- Fallback&#45;&gt;CompLkGraph!* -->
<g id="edge5" class="edge">
<title>Fallback&#45;&gt;CompLkGraph!*</title>
<path fill="none" stroke="black" d="M392.87,-143.7C392.87,-135.98 392.87,-126.71 392.87,-118.11"/>
<polygon fill="black" stroke="black" points="396.37,-118.1 392.87,-108.1 389.37,-118.1 396.37,-118.1"/>
</g>
<!-- Sequence -->
<g id="node7" class="node">
<title>Sequence</title>
<polygon fill="cyan" stroke="black" points="518.36,-82.54 518.36,-97.46 499.91,-108 473.82,-108 455.37,-97.46 455.37,-82.54 473.82,-72 499.91,-72 518.36,-82.54"/>
<text text-anchor="middle" x="486.87" y="-87.8" font-family="Times,serif" font-size="9.00">Sequence</text>
</g>
<!-- Fallback&#45;&gt;Sequence -->
<g id="edge6" class="edge">
<title>Fallback&#45;&gt;Sequence</title>
<path fill="none" stroke="black" d="M410.99,-147.5C424.86,-137.18 444.19,-122.78 459.88,-111.1"/>
<polygon fill="black" stroke="black" points="462.23,-113.71 468.16,-104.93 458.04,-108.1 462.23,-113.71"/>
</g>
<!-- ReachGoal?* -->
<g id="node10" class="node">
<title>ReachGoal?*</title>
<ellipse fill="gray" stroke="black" cx="572.87" cy="-90" rx="36.9" ry="18"/>
<text text-anchor="middle" x="572.87" y="-87.8" font-family="Times,serif" font-size="9.00">ReachGoal?*</text>
</g>
<!-- Fallback&#45;&gt;ReachGoal?* -->
<g id="edge9" class="edge">
<title>Fallback&#45;&gt;ReachGoal?*</title>
<path fill="none" stroke="black" d="M417.52,-151.41C447.97,-139.57 500.08,-119.31 535.47,-105.55"/>
<polygon fill="black" stroke="black" points="536.92,-108.73 544.97,-101.85 534.38,-102.21 536.92,-108.73"/>
</g>
<!-- GetSubGoal!** -->
<g id="node11" class="node">
<title>GetSubGoal!**</title>
<ellipse fill="gray" stroke="black" cx="669.87" cy="-90" rx="42.29" ry="18"/>
<text text-anchor="middle" x="669.87" y="-87.8" font-family="Times,serif" font-size="9.00">GetSubGoal!**</text>
</g>
<!-- Fallback&#45;&gt;GetSubGoal!** -->
<g id="edge10" class="edge">
<title>Fallback&#45;&gt;GetSubGoal!**</title>
<path fill="none" stroke="black" d="M422.34,-154.99C465.7,-145.94 549.07,-127.77 618.87,-108 622.01,-107.11 625.25,-106.15 628.49,-105.14"/>
<polygon fill="black" stroke="black" points="629.71,-108.43 638.18,-102.06 627.59,-101.76 629.71,-108.43"/>
</g>
<!-- CompLkGraph!** -->
<g id="node12" class="node">
<title>CompLkGraph!**</title>
<ellipse fill="gray" stroke="black" cx="777.87" cy="-90" rx="47.84" ry="18"/>
<text text-anchor="middle" x="777.87" y="-87.8" font-family="Times,serif" font-size="9.00">CompLkGraph!**</text>
</g>
<!-- Fallback&#45;&gt;CompLkGraph!** -->
<g id="edge11" class="edge">
<title>Fallback&#45;&gt;CompLkGraph!**</title>
<path fill="none" stroke="black" d="M422.52,-157.52C480.35,-150.44 612.06,-132.9 720.87,-108 724.72,-107.12 728.7,-106.12 732.67,-105.06"/>
<polygon fill="black" stroke="black" points="733.79,-108.38 742.48,-102.33 731.91,-101.64 733.79,-108.38"/>
</g>
<!-- ReachGoal? -->
<g id="node8" class="node">
<title>ReachGoal?</title>
<ellipse fill="gray" stroke="black" cx="440.87" cy="-18" rx="34.13" ry="18"/>
<text text-anchor="middle" x="440.87" y="-15.8" font-family="Times,serif" font-size="9.00">ReachGoal?</text>
</g>
<!-- Sequence&#45;&gt;ReachGoal? -->
<g id="edge7" class="edge">
<title>Sequence&#45;&gt;ReachGoal?</title>
<path fill="none" stroke="black" d="M475.5,-71.7C469.93,-63.23 463.13,-52.89 457.04,-43.61"/>
<polygon fill="black" stroke="black" points="459.89,-41.58 451.48,-35.14 454.04,-45.42 459.89,-41.58"/>
</g>
<!-- GetSubGoal!* -->
<g id="node9" class="node">
<title>GetSubGoal!*</title>
<ellipse fill="gray" stroke="black" cx="531.87" cy="-18" rx="39.02" ry="18"/>
<text text-anchor="middle" x="531.87" y="-15.8" font-family="Times,serif" font-size="9.00">GetSubGoal!*</text>
</g>
<!-- Sequence&#45;&gt;GetSubGoal!* -->
<g id="edge8" class="edge">
<title>Sequence&#45;&gt;GetSubGoal!*</title>
<path fill="none" stroke="black" d="M497.99,-71.7C503.3,-63.44 509.76,-53.39 515.6,-44.3"/>
<polygon fill="black" stroke="black" points="518.72,-45.93 521.18,-35.62 512.83,-42.14 518.72,-45.93"/>
</g>
</g>
</svg>
