<?xml version="1.0" encoding="UTF-8" standalone="no"?>
<!DOCTYPE svg PUBLIC "-//W3C//DTD SVG 1.1//EN"
 "http://www.w3.org/Graphics/SVG/1.1/DTD/svg11.dtd">
<!-- Generated by graphviz version 2.43.0 (0)
 -->
<!-- Title: pastafarianism Pages: 1 -->
<svg width="953pt" height="116pt"
 viewBox="0.00 0.00 953.22 116.00" xmlns="http://www.w3.org/2000/svg" xmlns:xlink="http://www.w3.org/1999/xlink">
<g id="graph0" class="graph" transform="scale(1 1) rotate(0) translate(4 112)">
<title>pastafarianism</title>
<polygon fill="white" stroke="transparent" points="-4,4 -4,-112 949.22,-112 949.22,4 -4,4"/>
<!-- Fallback -->
<g id="node1" class="node">
<title>Fallback</title>
<polygon fill="cyan" stroke="black" points="519.01,-82.54 519.01,-97.46 501.88,-108 477.65,-108 460.52,-97.46 460.52,-82.54 477.65,-72 501.88,-72 519.01,-82.54"/>
<text text-anchor="middle" x="489.77" y="-87.8" font-family="Times,serif" font-size="9.00">Fallback</text>
</g>
<!-- NotReadyForSG? -->
<g id="node2" class="node">
<title>NotReadyForSG?</title>
<ellipse fill="gray" stroke="black" cx="46.77" cy="-18" rx="46.53" ry="18"/>
<text text-anchor="middle" x="46.77" y="-15.8" font-family="Times,serif" font-size="9.00">NotReadyForSG?</text>
</g>
<!-- Fallback&#45;&gt;NotReadyForSG? -->
<g id="edge1" class="edge">
<title>Fallback&#45;&gt;NotReadyForSG?</title>
<path fill="none" stroke="black" d="M460.36,-86.58C395.32,-80.87 234.6,-64.85 102.77,-36 98.91,-35.16 94.94,-34.18 90.97,-33.12"/>
<polygon fill="black" stroke="black" points="91.76,-29.71 81.19,-30.39 89.88,-36.45 91.76,-29.71"/>
</g>
<!-- MoveTo! -->
<g id="node3" class="node">
<title>MoveTo!</title>
<ellipse fill="gray" stroke="black" cx="140.77" cy="-18" rx="28.74" ry="18"/>
<text text-anchor="middle" x="140.77" y="-15.8" font-family="Times,serif" font-size="9.00">MoveTo!</text>
</g>
<!-- Fallback&#45;&gt;MoveTo! -->
<g id="edge2" class="edge">
<title>Fallback&#45;&gt;MoveTo!</title>
<path fill="none" stroke="black" d="M460.48,-86.49C404.67,-81.16 279.65,-66.63 178.77,-36 176.49,-35.31 174.17,-34.52 171.86,-33.66"/>
<polygon fill="black" stroke="black" points="173.09,-30.38 162.51,-29.85 170.45,-36.86 173.09,-30.38"/>
</g>
<!-- GetSubGoal! -->
<g id="node4" class="node">
<title>GetSubGoal!</title>
<ellipse fill="gray" stroke="black" cx="224.77" cy="-18" rx="36.9" ry="18"/>
<text text-anchor="middle" x="224.77" y="-15.8" font-family="Times,serif" font-size="9.00">GetSubGoal!</text>
</g>
<!-- Fallback&#45;&gt;GetSubGoal! -->
<g id="edge3" class="edge">
<title>Fallback&#45;&gt;GetSubGoal!</title>
<path fill="none" stroke="black" d="M460.43,-83.04C418.13,-74.19 337.75,-56.41 270.77,-36 268.02,-35.16 265.19,-34.25 262.36,-33.3"/>
<polygon fill="black" stroke="black" points="263.4,-29.95 252.81,-29.95 261.09,-36.56 263.4,-29.95"/>
</g>
<!-- NotReadyForSG?* -->
<g id="node5" class="node">
<title>NotReadyForSG?*</title>
<ellipse fill="gray" stroke="black" cx="329.77" cy="-18" rx="49.8" ry="18"/>
<text text-anchor="middle" x="329.77" y="-15.8" font-family="Times,serif" font-size="9.00">NotReadyForSG?*</text>
</g>
<!-- Fallback&#45;&gt;NotReadyForSG?* -->
<g id="edge4" class="edge">
<title>Fallback&#45;&gt;NotReadyForSG?*</title>
<path fill="none" stroke="black" d="M466.5,-78.82C441.16,-67.74 400.18,-49.8 369.68,-36.46"/>
<polygon fill="black" stroke="black" points="370.74,-33.11 360.17,-32.3 367.93,-39.52 370.74,-33.11"/>
</g>
<!-- CompLkGraph! -->
<g id="node6" class="node">
<title>CompLkGraph!</title>
<ellipse fill="gray" stroke="black" cx="439.77" cy="-18" rx="42.95" ry="18"/>
<text text-anchor="middle" x="439.77" y="-15.8" font-family="Times,serif" font-size="9.00">CompLkGraph!</text>
</g>
<!-- Fallback&#45;&gt;CompLkGraph! -->
<g id="edge5" class="edge">
<title>Fallback&#45;&gt;CompLkGraph!</title>
<path fill="none" stroke="black" d="M477.41,-71.7C471.44,-63.35 464.18,-53.18 457.63,-44.02"/>
<polygon fill="black" stroke="black" points="460.3,-41.73 451.64,-35.62 454.6,-45.79 460.3,-41.73"/>
</g>
<!-- GetSubGoal!* -->
<g id="node7" class="node">
<title>GetSubGoal!*</title>
<ellipse fill="gray" stroke="black" cx="539.77" cy="-18" rx="39.02" ry="18"/>
<text text-anchor="middle" x="539.77" y="-15.8" font-family="Times,serif" font-size="9.00">GetSubGoal!*</text>
</g>
<!-- Fallback&#45;&gt;GetSubGoal!* -->
<g id="edge6" class="edge">
<title>Fallback&#45;&gt;GetSubGoal!*</title>
<path fill="none" stroke="black" d="M502.12,-71.7C508.09,-63.35 515.35,-53.18 521.9,-44.02"/>
<polygon fill="black" stroke="black" points="524.93,-45.79 527.89,-35.62 519.23,-41.73 524.93,-45.79"/>
</g>
<!-- GetSubGoal!** -->
<g id="node8" class="node">
<title>GetSubGoal!**</title>
<ellipse fill="gray" stroke="black" cx="638.77" cy="-18" rx="42.29" ry="18"/>
<text text-anchor="middle" x="638.77" y="-15.8" font-family="Times,serif" font-size="9.00">GetSubGoal!**</text>
</g>
<!-- Fallback&#45;&gt;GetSubGoal!** -->
<g id="edge7" class="edge">
<title>Fallback&#45;&gt;GetSubGoal!**</title>
<path fill="none" stroke="black" d="M512.4,-78.37C536.24,-67.17 574.16,-49.35 602.24,-36.16"/>
<polygon fill="black" stroke="black" points="603.8,-39.3 611.36,-31.88 600.82,-32.96 603.8,-39.3"/>
</g>
<!-- MoveTo!* -->
<g id="node9" class="node">
<title>MoveTo!*</title>
<ellipse fill="gray" stroke="black" cx="730.77" cy="-18" rx="31.51" ry="18"/>
<text text-anchor="middle" x="730.77" y="-15.8" font-family="Times,serif" font-size="9.00">MoveTo!*</text>
</g>
<!-- Fallback&#45;&gt;MoveTo!* -->
<g id="edge8" class="edge">
<title>Fallback&#45;&gt;MoveTo!*</title>
<path fill="none" stroke="black" d="M519.28,-82.49C558.62,-73.51 630.22,-56.13 689.77,-36 692.04,-35.23 694.38,-34.39 696.72,-33.52"/>
<polygon fill="black" stroke="black" points="698.22,-36.69 706.25,-29.79 695.67,-30.17 698.22,-36.69"/>
</g>
<!-- LkClose? -->
<g id="node10" class="node">
<title>LkClose?</title>
<ellipse fill="gray" stroke="black" cx="809.77" cy="-18" rx="28.74" ry="18"/>
<text text-anchor="middle" x="809.77" y="-15.8" font-family="Times,serif" font-size="9.00">LkClose?</text>
</g>
<!-- Fallback&#45;&gt;LkClose? -->
<g id="edge9" class="edge">
<title>Fallback&#45;&gt;LkClose?</title>
<path fill="none" stroke="black" d="M519.14,-85.79C571.02,-79.6 681.91,-64.11 771.77,-36 773.9,-35.33 776.06,-34.58 778.23,-33.77"/>
<polygon fill="black" stroke="black" points="779.65,-36.97 787.6,-29.96 777.02,-30.49 779.65,-36.97"/>
</g>
<!-- GetSubGoal!*** -->
<g id="node11" class="node">
<title>GetSubGoal!***</title>
<ellipse fill="gray" stroke="black" cx="900.77" cy="-18" rx="44.41" ry="18"/>
<text text-anchor="middle" x="900.77" y="-15.8" font-family="Times,serif" font-size="9.00">GetSubGoal!***</text>
</g>
<!-- Fallback&#45;&gt;GetSubGoal!*** -->
<g id="edge10" class="edge">
<title>Fallback&#45;&gt;GetSubGoal!***</title>
<path fill="none" stroke="black" d="M519.31,-86.28C580.94,-80.24 727.52,-63.99 847.77,-36 851.21,-35.2 854.75,-34.28 858.3,-33.29"/>
<polygon fill="black" stroke="black" points="859.6,-36.55 868.2,-30.37 857.62,-29.84 859.6,-36.55"/>
</g>
</g>
</svg>
