<?xml version="1.0" encoding="UTF-8" standalone="no"?>
<!DOCTYPE svg PUBLIC "-//W3C//DTD SVG 1.1//EN"
 "http://www.w3.org/Graphics/SVG/1.1/DTD/svg11.dtd">
<!-- Generated by graphviz version 2.43.0 (0)
 -->
<!-- Title: pastafarianism Pages: 1 -->
<svg width="873pt" height="116pt"
 viewBox="0.00 0.00 872.59 116.00" xmlns="http://www.w3.org/2000/svg" xmlns:xlink="http://www.w3.org/1999/xlink">
<g id="graph0" class="graph" transform="scale(1 1) rotate(0) translate(4 112)">
<title>pastafarianism</title>
<polygon fill="white" stroke="transparent" points="-4,4 -4,-112 868.59,-112 868.59,4 -4,4"/>
<!-- Fallback -->
<g id="node1" class="node">
<title>Fallback</title>
<polygon fill="cyan" stroke="black" points="411.11,-82.54 411.11,-97.46 393.98,-108 369.75,-108 352.62,-97.46 352.62,-82.54 369.75,-72 393.98,-72 411.11,-82.54"/>
<text text-anchor="middle" x="381.87" y="-87.8" font-family="Times,serif" font-size="9.00">Fallback</text>
</g>
<!-- MoveTo! -->
<g id="node2" class="node">
<title>MoveTo!</title>
<ellipse fill="gray" stroke="black" cx="28.87" cy="-18" rx="28.74" ry="18"/>
<text text-anchor="middle" x="28.87" y="-15.8" font-family="Times,serif" font-size="9.00">MoveTo!</text>
</g>
<!-- Fallback&#45;&gt;MoveTo! -->
<g id="edge1" class="edge">
<title>Fallback&#45;&gt;MoveTo!</title>
<path fill="none" stroke="black" d="M352.2,-86.54C295.67,-81.3 169.05,-66.9 66.87,-36 64.59,-35.31 62.27,-34.52 59.96,-33.66"/>
<polygon fill="black" stroke="black" points="61.19,-30.38 50.61,-29.86 58.55,-36.87 61.19,-30.38"/>
</g>
<!-- GetSubGoal! -->
<g id="node3" class="node">
<title>GetSubGoal!</title>
<ellipse fill="gray" stroke="black" cx="112.87" cy="-18" rx="36.9" ry="18"/>
<text text-anchor="middle" x="112.87" y="-15.8" font-family="Times,serif" font-size="9.00">GetSubGoal!</text>
</g>
<!-- Fallback&#45;&gt;GetSubGoal! -->
<g id="edge2" class="edge">
<title>Fallback&#45;&gt;GetSubGoal!</title>
<path fill="none" stroke="black" d="M352.34,-83.17C309.37,-74.41 227.24,-56.68 158.87,-36 156.12,-35.17 153.29,-34.26 150.46,-33.31"/>
<polygon fill="black" stroke="black" points="151.5,-29.97 140.9,-29.97 149.19,-36.57 151.5,-29.97"/>
</g>
<!-- LkClose? -->
<g id="node4" class="node">
<title>LkClose?</title>
<ellipse fill="gray" stroke="black" cx="196.87" cy="-18" rx="28.74" ry="18"/>
<text text-anchor="middle" x="196.87" y="-15.8" font-family="Times,serif" font-size="9.00">LkClose?</text>
</g>
<!-- Fallback&#45;&gt;LkClose? -->
<g id="edge3" class="edge">
<title>Fallback&#45;&gt;LkClose?</title>
<path fill="none" stroke="black" d="M355.89,-80.29C326.34,-70.23 276.76,-52.89 234.87,-36 233.01,-35.25 231.1,-34.46 229.19,-33.66"/>
<polygon fill="black" stroke="black" points="230.22,-30.29 219.66,-29.53 227.44,-36.71 230.22,-30.29"/>
</g>
<!-- GetSubGoal!* -->
<g id="node5" class="node">
<title>GetSubGoal!*</title>
<ellipse fill="gray" stroke="black" cx="282.87" cy="-18" rx="39.02" ry="18"/>
<text text-anchor="middle" x="282.87" y="-15.8" font-family="Times,serif" font-size="9.00">GetSubGoal!*</text>
</g>
<!-- Fallback&#45;&gt;GetSubGoal!* -->
<g id="edge4" class="edge">
<title>Fallback&#45;&gt;GetSubGoal!*</title>
<path fill="none" stroke="black" d="M363.25,-75.83C348.75,-65.58 328.36,-51.17 311.75,-39.42"/>
<polygon fill="black" stroke="black" points="313.64,-36.47 303.46,-33.56 309.6,-42.19 313.64,-36.47"/>
</g>
<!-- GetSubGoal!** -->
<g id="node6" class="node">
<title>GetSubGoal!**</title>
<ellipse fill="gray" stroke="black" cx="381.87" cy="-18" rx="42.29" ry="18"/>
<text text-anchor="middle" x="381.87" y="-15.8" font-family="Times,serif" font-size="9.00">GetSubGoal!**</text>
</g>
<!-- Fallback&#45;&gt;GetSubGoal!** -->
<g id="edge5" class="edge">
<title>Fallback&#45;&gt;GetSubGoal!**</title>
<path fill="none" stroke="black" d="M381.87,-71.7C381.87,-63.98 381.87,-54.71 381.87,-46.11"/>
<polygon fill="black" stroke="black" points="385.37,-46.1 381.87,-36.1 378.37,-46.1 385.37,-46.1"/>
</g>
<!-- GetSubGoal!*** -->
<g id="node7" class="node">
<title>GetSubGoal!***</title>
<ellipse fill="gray" stroke="black" cx="486.87" cy="-18" rx="44.41" ry="18"/>
<text text-anchor="middle" x="486.87" y="-15.8" font-family="Times,serif" font-size="9.00">GetSubGoal!***</text>
</g>
<!-- Fallback&#45;&gt;GetSubGoal!*** -->
<g id="edge6" class="edge">
<title>Fallback&#45;&gt;GetSubGoal!***</title>
<path fill="none" stroke="black" d="M401.13,-76.16C416.59,-65.85 438.6,-51.18 456.44,-39.28"/>
<polygon fill="black" stroke="black" points="458.45,-42.15 464.82,-33.7 454.56,-36.33 458.45,-42.15"/>
</g>
<!-- GetSubGoal!**** -->
<g id="node8" class="node">
<title>GetSubGoal!****</title>
<ellipse fill="gray" stroke="black" cx="596.87" cy="-18" rx="47.19" ry="18"/>
<text text-anchor="middle" x="596.87" y="-15.8" font-family="Times,serif" font-size="9.00">GetSubGoal!****</text>
</g>
<!-- Fallback&#45;&gt;GetSubGoal!**** -->
<g id="edge7" class="edge">
<title>Fallback&#45;&gt;GetSubGoal!****</title>
<path fill="none" stroke="black" d="M408.23,-80.42C444.12,-68.73 508.86,-47.65 552.35,-33.49"/>
<polygon fill="black" stroke="black" points="553.67,-36.74 562.1,-30.32 551.51,-30.09 553.67,-36.74"/>
</g>
<!-- GetSubGoal!***** -->
<g id="node9" class="node">
<title>GetSubGoal!*****</title>
<ellipse fill="gray" stroke="black" cx="711.87" cy="-18" rx="49.8" ry="18"/>
<text text-anchor="middle" x="711.87" y="-15.8" font-family="Times,serif" font-size="9.00">GetSubGoal!*****</text>
</g>
<!-- Fallback&#45;&gt;GetSubGoal!***** -->
<g id="edge8" class="edge">
<title>Fallback&#45;&gt;GetSubGoal!*****</title>
<path fill="none" stroke="black" d="M411.32,-84.11C461.29,-75.62 565.72,-57.03 652.87,-36 656.89,-35.03 661.05,-33.96 665.21,-32.85"/>
<polygon fill="black" stroke="black" points="666.15,-36.22 674.86,-30.2 664.29,-29.47 666.15,-36.22"/>
</g>
<!-- CompLkGraph! -->
<g id="node10" class="node">
<title>CompLkGraph!</title>
<ellipse fill="gray" stroke="black" cx="821.87" cy="-18" rx="42.95" ry="18"/>
<text text-anchor="middle" x="821.87" y="-15.8" font-family="Times,serif" font-size="9.00">CompLkGraph!</text>
</g>
<!-- Fallback&#45;&gt;CompLkGraph! -->
<g id="edge9" class="edge">
<title>Fallback&#45;&gt;CompLkGraph!</title>
<path fill="none" stroke="black" d="M411.49,-86.86C476.98,-81.71 638.76,-66.73 770.87,-36 774.09,-35.25 777.41,-34.38 780.72,-33.44"/>
<polygon fill="black" stroke="black" points="782.02,-36.7 790.57,-30.45 779.99,-30 782.02,-36.7"/>
</g>
</g>
</svg>
