<?xml version="1.0" encoding="UTF-8" standalone="no"?>
<!DOCTYPE svg PUBLIC "-//W3C//DTD SVG 1.1//EN"
 "http://www.w3.org/Graphics/SVG/1.1/DTD/svg11.dtd">
<!-- Generated by graphviz version 2.43.0 (0)
 -->
<!-- Title: pastafarianism Pages: 1 -->
<svg width="434pt" height="116pt"
 viewBox="0.00 0.00 433.59 116.00" xmlns="http://www.w3.org/2000/svg" xmlns:xlink="http://www.w3.org/1999/xlink">
<g id="graph0" class="graph" transform="scale(1 1) rotate(0) translate(4 112)">
<title>pastafarianism</title>
<polygon fill="white" stroke="transparent" points="-4,4 -4,-112 429.59,-112 429.59,4 -4,4"/>
<!-- Fallback -->
<g id="node1" class="node">
<title>Fallback</title>
<polygon fill="cyan" stroke="black" points="218.11,-82.54 218.11,-97.46 200.98,-108 176.75,-108 159.62,-97.46 159.62,-82.54 176.75,-72 200.98,-72 218.11,-82.54"/>
<text text-anchor="middle" x="188.87" y="-87.8" font-family="Times,serif" font-size="9.00">Fallback</text>
</g>
<!-- MoveTo! -->
<g id="node2" class="node">
<title>MoveTo!</title>
<ellipse fill="gray" stroke="black" cx="28.87" cy="-18" rx="28.74" ry="18"/>
<text text-anchor="middle" x="28.87" y="-15.8" font-family="Times,serif" font-size="9.00">MoveTo!</text>
</g>
<!-- Fallback&#45;&gt;MoveTo! -->
<g id="edge1" class="edge">
<title>Fallback&#45;&gt;MoveTo!</title>
<path fill="none" stroke="black" d="M165.45,-78.91C140.86,-68.31 101.1,-51.09 66.87,-36 65.03,-35.19 63.15,-34.36 61.25,-33.51"/>
<polygon fill="black" stroke="black" points="62.32,-30.16 51.76,-29.29 59.47,-36.55 62.32,-30.16"/>
</g>
<!-- LkClose? -->
<g id="node3" class="node">
<title>LkClose?</title>
<ellipse fill="gray" stroke="black" cx="104.87" cy="-18" rx="28.74" ry="18"/>
<text text-anchor="middle" x="104.87" y="-15.8" font-family="Times,serif" font-size="9.00">LkClose?</text>
</g>
<!-- Fallback&#45;&gt;LkClose? -->
<g id="edge2" class="edge">
<title>Fallback&#45;&gt;LkClose?</title>
<path fill="none" stroke="black" d="M171.87,-74.83C159.72,-64.71 143.18,-50.93 129.58,-39.59"/>
<polygon fill="black" stroke="black" points="131.48,-36.62 121.55,-32.91 127,-42 131.48,-36.62"/>
</g>
<!-- GetSubGoal! -->
<g id="node4" class="node">
<title>GetSubGoal!</title>
<ellipse fill="gray" stroke="black" cx="188.87" cy="-18" rx="36.9" ry="18"/>
<text text-anchor="middle" x="188.87" y="-15.8" font-family="Times,serif" font-size="9.00">GetSubGoal!</text>
</g>
<!-- Fallback&#45;&gt;GetSubGoal! -->
<g id="edge3" class="edge">
<title>Fallback&#45;&gt;GetSubGoal!</title>
<path fill="none" stroke="black" d="M188.87,-71.7C188.87,-63.98 188.87,-54.71 188.87,-46.11"/>
<polygon fill="black" stroke="black" points="192.37,-46.1 188.87,-36.1 185.37,-46.1 192.37,-46.1"/>
</g>
<!-- GetSubGoal!* -->
<g id="node5" class="node">
<title>GetSubGoal!*</title>
<ellipse fill="gray" stroke="black" cx="282.87" cy="-18" rx="39.02" ry="18"/>
<text text-anchor="middle" x="282.87" y="-15.8" font-family="Times,serif" font-size="9.00">GetSubGoal!*</text>
</g>
<!-- Fallback&#45;&gt;GetSubGoal!* -->
<g id="edge4" class="edge">
<title>Fallback&#45;&gt;GetSubGoal!*</title>
<path fill="none" stroke="black" d="M206.99,-75.5C220.59,-65.38 239.44,-51.34 254.96,-39.79"/>
<polygon fill="black" stroke="black" points="257.25,-42.44 263.18,-33.66 253.07,-36.83 257.25,-42.44"/>
</g>
<!-- CompLkGraph! -->
<g id="node6" class="node">
<title>CompLkGraph!</title>
<ellipse fill="gray" stroke="black" cx="382.87" cy="-18" rx="42.95" ry="18"/>
<text text-anchor="middle" x="382.87" y="-15.8" font-family="Times,serif" font-size="9.00">CompLkGraph!</text>
</g>
<!-- Fallback&#45;&gt;CompLkGraph! -->
<g id="edge5" class="edge">
<title>Fallback&#45;&gt;CompLkGraph!</title>
<path fill="none" stroke="black" d="M214.23,-79.85C246.57,-68.18 302.91,-47.85 341.5,-33.93"/>
<polygon fill="black" stroke="black" points="343.17,-37.04 351.39,-30.36 340.8,-30.46 343.17,-37.04"/>
</g>
</g>
</svg>
