<?xml version="1.0" encoding="UTF-8" standalone="no"?>
<!DOCTYPE svg PUBLIC "-//W3C//DTD SVG 1.1//EN"
 "http://www.w3.org/Graphics/SVG/1.1/DTD/svg11.dtd">
<!-- Generated by graphviz version 2.43.0 (0)
 -->
<!-- Title: pastafarianism Pages: 1 -->
<svg width="257pt" height="188pt"
 viewBox="0.00 0.00 257.20 188.00" xmlns="http://www.w3.org/2000/svg" xmlns:xlink="http://www.w3.org/1999/xlink">
<g id="graph0" class="graph" transform="scale(1 1) rotate(0) translate(4 184)">
<title>pastafarianism</title>
<polygon fill="white" stroke="transparent" points="-4,4 -4,-184 253.2,-184 253.2,4 -4,4"/>
<!-- Sequence -->
<g id="node1" class="node">
<title>Sequence</title>
<polygon fill="cyan" stroke="black" points="171.36,-154.54 171.36,-169.46 152.91,-180 126.82,-180 108.37,-169.46 108.37,-154.54 126.82,-144 152.91,-144 171.36,-154.54"/>
<text text-anchor="middle" x="139.87" y="-159.8" font-family="Times,serif" font-size="9.00">Sequence</text>
</g>
<!-- Fallback -->
<g id="node2" class="node">
<title>Fallback</title>
<polygon fill="cyan" stroke="black" points="95.11,-82.54 95.11,-97.46 77.98,-108 53.75,-108 36.62,-97.46 36.62,-82.54 53.75,-72 77.98,-72 95.11,-82.54"/>
<text text-anchor="middle" x="65.87" y="-87.8" font-family="Times,serif" font-size="9.00">Fallback</text>
</g>
<!-- Sequence&#45;&gt;Fallback -->
<g id="edge1" class="edge">
<title>Sequence&#45;&gt;Fallback</title>
<path fill="none" stroke="black" d="M123.44,-145.46C113.34,-135.91 100.24,-123.51 89.09,-112.96"/>
<polygon fill="black" stroke="black" points="91.41,-110.34 81.74,-106.01 86.6,-115.43 91.41,-110.34"/>
</g>
<!-- pick 2!* -->
<g id="node5" class="node">
<title>pick 2!*</title>
<ellipse fill="gray" stroke="black" cx="139.87" cy="-90" rx="27" ry="18"/>
<text text-anchor="middle" x="139.87" y="-87.8" font-family="Times,serif" font-size="9.00">pick 2!*</text>
</g>
<!-- Sequence&#45;&gt;pick 2!* -->
<g id="edge4" class="edge">
<title>Sequence&#45;&gt;pick 2!*</title>
<path fill="none" stroke="black" d="M139.87,-143.7C139.87,-135.98 139.87,-126.71 139.87,-118.11"/>
<polygon fill="black" stroke="black" points="143.37,-118.1 139.87,-108.1 136.37,-118.1 143.37,-118.1"/>
</g>
<!-- place on 2! -->
<g id="node6" class="node">
<title>place on 2!</title>
<ellipse fill="gray" stroke="black" cx="216.87" cy="-90" rx="32.16" ry="18"/>
<text text-anchor="middle" x="216.87" y="-87.8" font-family="Times,serif" font-size="9.00">place on 2!</text>
</g>
<!-- Sequence&#45;&gt;place on 2! -->
<g id="edge5" class="edge">
<title>Sequence&#45;&gt;place on 2!</title>
<path fill="none" stroke="black" d="M156.58,-145.81C167.32,-136.05 181.43,-123.22 193.3,-112.42"/>
<polygon fill="black" stroke="black" points="195.67,-115 200.72,-105.68 190.97,-109.82 195.67,-115"/>
</g>
<!-- picked 1? -->
<g id="node3" class="node">
<title>picked 1?</title>
<ellipse fill="gray" stroke="black" cx="28.87" cy="-18" rx="28.74" ry="18"/>
<text text-anchor="middle" x="28.87" y="-15.8" font-family="Times,serif" font-size="9.00">picked 1?</text>
</g>
<!-- Fallback&#45;&gt;picked 1? -->
<g id="edge2" class="edge">
<title>Fallback&#45;&gt;picked 1?</title>
<path fill="none" stroke="black" d="M56.72,-71.7C52.4,-63.52 47.16,-53.6 42.39,-44.58"/>
<polygon fill="black" stroke="black" points="45.42,-42.83 37.65,-35.62 39.23,-46.1 45.42,-42.83"/>
</g>
<!-- pick 2! -->
<g id="node4" class="node">
<title>pick 2!</title>
<ellipse fill="gray" stroke="black" cx="102.87" cy="-18" rx="27" ry="18"/>
<text text-anchor="middle" x="102.87" y="-15.8" font-family="Times,serif" font-size="9.00">pick 2!</text>
</g>
<!-- Fallback&#45;&gt;pick 2! -->
<g id="edge3" class="edge">
<title>Fallback&#45;&gt;pick 2!</title>
<path fill="none" stroke="black" d="M75.01,-71.7C79.4,-63.4 84.73,-53.31 89.55,-44.19"/>
<polygon fill="black" stroke="black" points="92.76,-45.62 94.33,-35.14 86.57,-42.35 92.76,-45.62"/>
</g>
</g>
</svg>
