<?xml version="1.0" encoding="UTF-8" standalone="no"?>
<!DOCTYPE svg PUBLIC "-//W3C//DTD SVG 1.1//EN"
 "http://www.w3.org/Graphics/SVG/1.1/DTD/svg11.dtd">
<!-- Generated by graphviz version 2.43.0 (0)
 -->
<!-- Title: pastafarianism Pages: 1 -->
<svg width="359pt" height="188pt"
 viewBox="0.00 0.00 358.64 188.00" xmlns="http://www.w3.org/2000/svg" xmlns:xlink="http://www.w3.org/1999/xlink">
<g id="graph0" class="graph" transform="scale(1 1) rotate(0) translate(4 184)">
<title>pastafarianism</title>
<polygon fill="white" stroke="transparent" points="-4,4 -4,-184 354.64,-184 354.64,4 -4,4"/>
<!-- Sequence -->
<g id="node1" class="node">
<title>Sequence</title>
<polygon fill="cyan" stroke="black" points="272.81,-154.54 272.81,-169.46 254.36,-180 228.27,-180 209.82,-169.46 209.82,-154.54 228.27,-144 254.36,-144 272.81,-154.54"/>
<text text-anchor="middle" x="241.31" y="-159.8" font-family="Times,serif" font-size="9.00">Sequence</text>
</g>
<!-- Fallback -->
<g id="node2" class="node">
<title>Fallback</title>
<polygon fill="cyan" stroke="black" points="196.56,-82.54 196.56,-97.46 179.43,-108 155.2,-108 138.07,-97.46 138.07,-82.54 155.2,-72 179.43,-72 196.56,-82.54"/>
<text text-anchor="middle" x="167.31" y="-87.8" font-family="Times,serif" font-size="9.00">Fallback</text>
</g>
<!-- Sequence&#45;&gt;Fallback -->
<g id="edge1" class="edge">
<title>Sequence&#45;&gt;Fallback</title>
<path fill="none" stroke="black" d="M224.89,-145.46C214.79,-135.91 201.68,-123.51 190.53,-112.96"/>
<polygon fill="black" stroke="black" points="192.85,-110.34 183.18,-106.01 188.04,-115.43 192.85,-110.34"/>
</g>
<!-- pick 2!* -->
<g id="node6" class="node">
<title>pick 2!*</title>
<ellipse fill="gray" stroke="black" cx="241.31" cy="-90" rx="27" ry="18"/>
<text text-anchor="middle" x="241.31" y="-87.8" font-family="Times,serif" font-size="9.00">pick 2!*</text>
</g>
<!-- Sequence&#45;&gt;pick 2!* -->
<g id="edge5" class="edge">
<title>Sequence&#45;&gt;pick 2!*</title>
<path fill="none" stroke="black" d="M241.31,-143.7C241.31,-135.98 241.31,-126.71 241.31,-118.11"/>
<polygon fill="black" stroke="black" points="244.81,-118.1 241.31,-108.1 237.81,-118.1 244.81,-118.1"/>
</g>
<!-- place on 1! -->
<g id="node7" class="node">
<title>place on 1!</title>
<ellipse fill="gray" stroke="black" cx="318.31" cy="-90" rx="32.16" ry="18"/>
<text text-anchor="middle" x="318.31" y="-87.8" font-family="Times,serif" font-size="9.00">place on 1!</text>
</g>
<!-- Sequence&#45;&gt;place on 1! -->
<g id="edge6" class="edge">
<title>Sequence&#45;&gt;place on 1!</title>
<path fill="none" stroke="black" d="M258.02,-145.81C268.76,-136.05 282.87,-123.22 294.75,-112.42"/>
<polygon fill="black" stroke="black" points="297.12,-115 302.16,-105.68 292.41,-109.82 297.12,-115"/>
</g>
<!-- place at (0.0, 0.05, 0.0)! -->
<g id="node3" class="node">
<title>place at (0.0, 0.05, 0.0)!</title>
<ellipse fill="gray" stroke="black" cx="58.31" cy="-18" rx="58.13" ry="18"/>
<text text-anchor="middle" x="58.31" y="-15.8" font-family="Times,serif" font-size="9.00">place at (0.0, 0.05, 0.0)!</text>
</g>
<!-- Fallback&#45;&gt;place at (0.0, 0.05, 0.0)! -->
<g id="edge2" class="edge">
<title>Fallback&#45;&gt;place at (0.0, 0.05, 0.0)!</title>
<path fill="none" stroke="black" d="M147.83,-76.49C132.07,-66.37 109.55,-51.91 91.04,-40.02"/>
<polygon fill="black" stroke="black" points="92.9,-37.05 82.59,-34.59 89.11,-42.94 92.9,-37.05"/>
</g>
<!-- place on 2! -->
<g id="node4" class="node">
<title>place on 2!</title>
<ellipse fill="gray" stroke="black" cx="167.31" cy="-18" rx="32.16" ry="18"/>
<text text-anchor="middle" x="167.31" y="-15.8" font-family="Times,serif" font-size="9.00">place on 2!</text>
</g>
<!-- Fallback&#45;&gt;place on 2! -->
<g id="edge3" class="edge">
<title>Fallback&#45;&gt;place on 2!</title>
<path fill="none" stroke="black" d="M167.31,-71.7C167.31,-63.98 167.31,-54.71 167.31,-46.11"/>
<polygon fill="black" stroke="black" points="170.81,-46.1 167.31,-36.1 163.81,-46.1 170.81,-46.1"/>
</g>
<!-- pick 2! -->
<g id="node5" class="node">
<title>pick 2!</title>
<ellipse fill="gray" stroke="black" cx="244.31" cy="-18" rx="27" ry="18"/>
<text text-anchor="middle" x="244.31" y="-15.8" font-family="Times,serif" font-size="9.00">pick 2!</text>
</g>
<!-- Fallback&#45;&gt;pick 2! -->
<g id="edge4" class="edge">
<title>Fallback&#45;&gt;pick 2!</title>
<path fill="none" stroke="black" d="M183.64,-74.15C194.65,-64.15 209.33,-50.8 221.49,-39.75"/>
<polygon fill="black" stroke="black" points="224.01,-42.19 229.05,-32.87 219.3,-37.01 224.01,-42.19"/>
</g>
</g>
</svg>
