<?xml version="1.0" encoding="UTF-8" standalone="no"?>
<!DOCTYPE svg PUBLIC "-//W3C//DTD SVG 1.1//EN"
 "http://www.w3.org/Graphics/SVG/1.1/DTD/svg11.dtd">
<!-- Generated by graphviz version 2.43.0 (0)
 -->
<!-- Title: pastafarianism Pages: 1 -->
<svg width="479pt" height="188pt"
 viewBox="0.00 0.00 478.88 188.00" xmlns="http://www.w3.org/2000/svg" xmlns:xlink="http://www.w3.org/1999/xlink">
<g id="graph0" class="graph" transform="scale(1 1) rotate(0) translate(4 184)">
<title>pastafarianism</title>
<polygon fill="white" stroke="transparent" points="-4,4 -4,-184 474.88,-184 474.88,4 -4,4"/>
<!-- Sequence -->
<g id="node1" class="node">
<title>Sequence</title>
<polygon fill="cyan" stroke="black" points="354.04,-154.54 354.04,-169.46 335.6,-180 309.5,-180 291.06,-169.46 291.06,-154.54 309.5,-144 335.6,-144 354.04,-154.54"/>
<text text-anchor="middle" x="322.55" y="-159.8" font-family="Times,serif" font-size="9.00">Sequence</text>
</g>
<!-- Fallback -->
<g id="node2" class="node">
<title>Fallback</title>
<polygon fill="cyan" stroke="black" points="240.79,-82.54 240.79,-97.46 223.66,-108 199.44,-108 182.31,-97.46 182.31,-82.54 199.44,-72 223.66,-72 240.79,-82.54"/>
<text text-anchor="middle" x="211.55" y="-87.8" font-family="Times,serif" font-size="9.00">Fallback</text>
</g>
<!-- Sequence&#45;&gt;Fallback -->
<g id="edge1" class="edge">
<title>Sequence&#45;&gt;Fallback</title>
<path fill="none" stroke="black" d="M302.19,-148.16C284.71,-137.14 259.34,-121.14 239.88,-108.87"/>
<polygon fill="black" stroke="black" points="241.73,-105.9 231.41,-103.52 238,-111.82 241.73,-105.9"/>
</g>
<!-- pick 2!* -->
<g id="node6" class="node">
<title>pick 2!*</title>
<ellipse fill="gray" stroke="black" cx="285.55" cy="-90" rx="27" ry="18"/>
<text text-anchor="middle" x="285.55" y="-87.8" font-family="Times,serif" font-size="9.00">pick 2!*</text>
</g>
<!-- Sequence&#45;&gt;pick 2!* -->
<g id="edge5" class="edge">
<title>Sequence&#45;&gt;pick 2!*</title>
<path fill="none" stroke="black" d="M313.4,-143.7C309.02,-135.4 303.69,-125.31 298.86,-116.19"/>
<polygon fill="black" stroke="black" points="301.85,-114.35 294.08,-107.14 295.66,-117.62 301.85,-114.35"/>
</g>
<!-- pick 2!** -->
<g id="node7" class="node">
<title>pick 2!**</title>
<ellipse fill="gray" stroke="black" cx="359.55" cy="-90" rx="28.74" ry="18"/>
<text text-anchor="middle" x="359.55" y="-87.8" font-family="Times,serif" font-size="9.00">pick 2!**</text>
</g>
<!-- Sequence&#45;&gt;pick 2!** -->
<g id="edge6" class="edge">
<title>Sequence&#45;&gt;pick 2!**</title>
<path fill="none" stroke="black" d="M331.7,-143.7C336.02,-135.52 341.26,-125.6 346.03,-116.58"/>
<polygon fill="black" stroke="black" points="349.19,-118.1 350.76,-107.62 343,-114.83 349.19,-118.1"/>
</g>
<!-- place on 2! -->
<g id="node8" class="node">
<title>place on 2!</title>
<ellipse fill="gray" stroke="black" cx="438.55" cy="-90" rx="32.16" ry="18"/>
<text text-anchor="middle" x="438.55" y="-87.8" font-family="Times,serif" font-size="9.00">place on 2!</text>
</g>
<!-- Sequence&#45;&gt;place on 2! -->
<g id="edge7" class="edge">
<title>Sequence&#45;&gt;place on 2!</title>
<path fill="none" stroke="black" d="M343.56,-148.32C361.76,-137.34 388.3,-121.33 408.7,-109.01"/>
<polygon fill="black" stroke="black" points="410.55,-111.98 417.31,-103.82 406.94,-105.99 410.55,-111.98"/>
</g>
<!-- 1 at pos (0.0, 0.05, 0.0192)? -->
<g id="node3" class="node">
<title>1 at pos (0.0, 0.05, 0.0192)?</title>
<ellipse fill="gray" stroke="black" cx="67.55" cy="-18" rx="67.6" ry="18"/>
<text text-anchor="middle" x="67.55" y="-15.8" font-family="Times,serif" font-size="9.00">1 at pos (0.0, 0.05, 0.0192)?</text>
</g>
<!-- Fallback&#45;&gt;1 at pos (0.0, 0.05, 0.0192)? -->
<g id="edge2" class="edge">
<title>Fallback&#45;&gt;1 at pos (0.0, 0.05, 0.0192)?</title>
<path fill="none" stroke="black" d="M189.05,-78.06C167.35,-67.51 134.03,-51.32 107.76,-38.55"/>
<polygon fill="black" stroke="black" points="108.97,-35.24 98.44,-34.02 105.91,-41.54 108.97,-35.24"/>
</g>
<!-- place at (0.0, 0.05, 0.0)! -->
<g id="node4" class="node">
<title>place at (0.0, 0.05, 0.0)!</title>
<ellipse fill="gray" stroke="black" cx="211.55" cy="-18" rx="58.13" ry="18"/>
<text text-anchor="middle" x="211.55" y="-15.8" font-family="Times,serif" font-size="9.00">place at (0.0, 0.05, 0.0)!</text>
</g>
<!-- Fallback&#45;&gt;place at (0.0, 0.05, 0.0)! -->
<g id="edge3" class="edge">
<title>Fallback&#45;&gt;place at (0.0, 0.05, 0.0)!</title>
<path fill="none" stroke="black" d="M211.55,-71.7C211.55,-63.98 211.55,-54.71 211.55,-46.11"/>
<polygon fill="black" stroke="black" points="215.05,-46.1 211.55,-36.1 208.05,-46.1 215.05,-46.1"/>
</g>
<!-- pick 2! -->
<g id="node5" class="node">
<title>pick 2!</title>
<ellipse fill="gray" stroke="black" cx="314.55" cy="-18" rx="27" ry="18"/>
<text text-anchor="middle" x="314.55" y="-15.8" font-family="Times,serif" font-size="9.00">pick 2!</text>
</g>
<!-- Fallback&#45;&gt;pick 2! -->
<g id="edge4" class="edge">
<title>Fallback&#45;&gt;pick 2!</title>
<path fill="none" stroke="black" d="M230.44,-76.16C246.51,-65.24 269.78,-49.43 287.77,-37.2"/>
<polygon fill="black" stroke="black" points="289.82,-40.04 296.12,-31.52 285.89,-34.25 289.82,-40.04"/>
</g>
</g>
</svg>
