<?xml version="1.0" encoding="UTF-8" standalone="no"?>
<!DOCTYPE svg PUBLIC "-//W3C//DTD SVG 1.1//EN"
 "http://www.w3.org/Graphics/SVG/1.1/DTD/svg11.dtd">
<!-- Generated by graphviz version 2.43.0 (0)
 -->
<!-- Title: pastafarianism Pages: 1 -->
<svg width="408pt" height="188pt"
 viewBox="0.00 0.00 408.20 188.00" xmlns="http://www.w3.org/2000/svg" xmlns:xlink="http://www.w3.org/1999/xlink">
<g id="graph0" class="graph" transform="scale(1 1) rotate(0) translate(4 184)">
<title>pastafarianism</title>
<polygon fill="white" stroke="transparent" points="-4,4 -4,-184 404.2,-184 404.2,4 -4,4"/>
<!-- Sequence -->
<g id="node1" class="node">
<title>Sequence</title>
<polygon fill="cyan" stroke="black" points="277.36,-154.54 277.36,-169.46 258.91,-180 232.82,-180 214.37,-169.46 214.37,-154.54 232.82,-144 258.91,-144 277.36,-154.54"/>
<text text-anchor="middle" x="245.87" y="-159.8" font-family="Times,serif" font-size="9.00">Sequence</text>
</g>
<!-- Fallback -->
<g id="node2" class="node">
<title>Fallback</title>
<polygon fill="cyan" stroke="black" points="163.11,-82.54 163.11,-97.46 145.98,-108 121.75,-108 104.62,-97.46 104.62,-82.54 121.75,-72 145.98,-72 163.11,-82.54"/>
<text text-anchor="middle" x="133.87" y="-87.8" font-family="Times,serif" font-size="9.00">Fallback</text>
</g>
<!-- Sequence&#45;&gt;Fallback -->
<g id="edge1" class="edge">
<title>Sequence&#45;&gt;Fallback</title>
<path fill="none" stroke="black" d="M225.32,-148.16C207.69,-137.14 182.09,-121.14 162.45,-108.87"/>
<polygon fill="black" stroke="black" points="164.24,-105.85 153.9,-103.52 160.53,-111.79 164.24,-105.85"/>
</g>
<!-- pick 2!* -->
<g id="node6" class="node">
<title>pick 2!*</title>
<ellipse fill="gray" stroke="black" cx="207.87" cy="-90" rx="27" ry="18"/>
<text text-anchor="middle" x="207.87" y="-87.8" font-family="Times,serif" font-size="9.00">pick 2!*</text>
</g>
<!-- Sequence&#45;&gt;pick 2!* -->
<g id="edge5" class="edge">
<title>Sequence&#45;&gt;pick 2!*</title>
<path fill="none" stroke="black" d="M236.47,-143.7C231.97,-135.4 226.49,-125.31 221.54,-116.19"/>
<polygon fill="black" stroke="black" points="224.48,-114.26 216.63,-107.14 218.33,-117.6 224.48,-114.26"/>
</g>
<!-- place on 2! -->
<g id="node7" class="node">
<title>place on 2!</title>
<ellipse fill="gray" stroke="black" cx="284.87" cy="-90" rx="32.16" ry="18"/>
<text text-anchor="middle" x="284.87" y="-87.8" font-family="Times,serif" font-size="9.00">place on 2!</text>
</g>
<!-- Sequence&#45;&gt;place on 2! -->
<g id="edge6" class="edge">
<title>Sequence&#45;&gt;place on 2!</title>
<path fill="none" stroke="black" d="M255.51,-143.7C260.06,-135.52 265.59,-125.6 270.61,-116.58"/>
<polygon fill="black" stroke="black" points="273.8,-118.06 275.61,-107.62 267.68,-114.65 273.8,-118.06"/>
</g>
<!-- place on 1! -->
<g id="node8" class="node">
<title>place on 1!</title>
<ellipse fill="gray" stroke="black" cx="367.87" cy="-90" rx="32.16" ry="18"/>
<text text-anchor="middle" x="367.87" y="-87.8" font-family="Times,serif" font-size="9.00">place on 1!</text>
</g>
<!-- Sequence&#45;&gt;place on 1! -->
<g id="edge7" class="edge">
<title>Sequence&#45;&gt;place on 1!</title>
<path fill="none" stroke="black" d="M267.4,-148.65C286.79,-137.52 315.51,-121.04 337.28,-108.55"/>
<polygon fill="black" stroke="black" points="339.21,-111.48 346.14,-103.47 335.73,-105.41 339.21,-111.48"/>
</g>
<!-- picked 1? -->
<g id="node3" class="node">
<title>picked 1?</title>
<ellipse fill="gray" stroke="black" cx="28.87" cy="-18" rx="28.74" ry="18"/>
<text text-anchor="middle" x="28.87" y="-15.8" font-family="Times,serif" font-size="9.00">picked 1?</text>
</g>
<!-- Fallback&#45;&gt;picked 1? -->
<g id="edge2" class="edge">
<title>Fallback&#45;&gt;picked 1?</title>
<path fill="none" stroke="black" d="M114.61,-76.16C98.33,-65.31 74.8,-49.62 56.51,-37.43"/>
<polygon fill="black" stroke="black" points="58.27,-34.39 48,-31.76 54.38,-40.22 58.27,-34.39"/>
</g>
<!-- place at (0.0, 0.05, 0.0)! -->
<g id="node4" class="node">
<title>place at (0.0, 0.05, 0.0)!</title>
<ellipse fill="gray" stroke="black" cx="133.87" cy="-18" rx="58.13" ry="18"/>
<text text-anchor="middle" x="133.87" y="-15.8" font-family="Times,serif" font-size="9.00">place at (0.0, 0.05, 0.0)!</text>
</g>
<!-- Fallback&#45;&gt;place at (0.0, 0.05, 0.0)! -->
<g id="edge3" class="edge">
<title>Fallback&#45;&gt;place at (0.0, 0.05, 0.0)!</title>
<path fill="none" stroke="black" d="M133.87,-71.7C133.87,-63.98 133.87,-54.71 133.87,-46.11"/>
<polygon fill="black" stroke="black" points="137.37,-46.1 133.87,-36.1 130.37,-46.1 137.37,-46.1"/>
</g>
<!-- pick 2! -->
<g id="node5" class="node">
<title>pick 2!</title>
<ellipse fill="gray" stroke="black" cx="236.87" cy="-18" rx="27" ry="18"/>
<text text-anchor="middle" x="236.87" y="-15.8" font-family="Times,serif" font-size="9.00">pick 2!</text>
</g>
<!-- Fallback&#45;&gt;pick 2! -->
<g id="edge4" class="edge">
<title>Fallback&#45;&gt;pick 2!</title>
<path fill="none" stroke="black" d="M152.76,-76.16C168.83,-65.24 192.1,-49.43 210.09,-37.2"/>
<polygon fill="black" stroke="black" points="212.14,-40.04 218.44,-31.52 208.2,-34.25 212.14,-40.04"/>
</g>
</g>
</svg>
