<?xml version="1.0" encoding="UTF-8" standalone="no"?>
<!DOCTYPE svg PUBLIC "-//W3C//DTD SVG 1.1//EN"
 "http://www.w3.org/Graphics/SVG/1.1/DTD/svg11.dtd">
<!-- Generated by graphviz version 2.43.0 (0)
 -->
<!-- Title: pastafarianism Pages: 1 -->
<svg width="756pt" height="404pt"
 viewBox="0.00 0.00 756.38 404.00" xmlns="http://www.w3.org/2000/svg" xmlns:xlink="http://www.w3.org/1999/xlink">
<g id="graph0" class="graph" transform="scale(1 1) rotate(0) translate(4 400)">
<title>pastafarianism</title>
<polygon fill="white" stroke="transparent" points="-4,4 -4,-400 752.38,-400 752.38,4 -4,4"/>
<!-- Sequence -->
<g id="node1" class="node">
<title>Sequence</title>
<polygon fill="cyan" stroke="black" points="529.54,-370.54 529.54,-385.46 511.09,-396 485,-396 466.55,-385.46 466.55,-370.54 485,-360 511.09,-360 529.54,-370.54"/>
<text text-anchor="middle" x="498.04" y="-375.8" font-family="Times,serif" font-size="9.00">Sequence</text>
</g>
<!-- Fallback -->
<g id="node2" class="node">
<title>Fallback</title>
<polygon fill="cyan" stroke="black" points="201.29,-298.54 201.29,-313.46 184.16,-324 159.93,-324 142.8,-313.46 142.8,-298.54 159.93,-288 184.16,-288 201.29,-298.54"/>
<text text-anchor="middle" x="172.04" y="-303.8" font-family="Times,serif" font-size="9.00">Fallback</text>
</g>
<!-- Sequence&#45;&gt;Fallback -->
<g id="edge1" class="edge">
<title>Sequence&#45;&gt;Fallback</title>
<path fill="none" stroke="black" d="M466.79,-370.29C407.03,-357.46 276.73,-329.48 211.25,-315.42"/>
<polygon fill="black" stroke="black" points="211.83,-311.96 201.32,-313.29 210.36,-318.81 211.83,-311.96"/>
</g>
<!-- Fallback* -->
<g id="node7" class="node">
<title>Fallback*</title>
<polygon fill="cyan" stroke="black" points="442.79,-298.54 442.79,-313.46 424.19,-324 397.9,-324 379.3,-313.46 379.3,-298.54 397.9,-288 424.19,-288 442.79,-298.54"/>
<text text-anchor="middle" x="411.04" y="-303.8" font-family="Times,serif" font-size="9.00">Fallback*</text>
</g>
<!-- Sequence&#45;&gt;Fallback* -->
<g id="edge6" class="edge">
<title>Sequence&#45;&gt;Fallback*</title>
<path fill="none" stroke="black" d="M480.02,-362.5C467.65,-352.55 451.05,-339.19 437.23,-328.07"/>
<polygon fill="black" stroke="black" points="439.03,-325.03 429.05,-321.49 434.64,-330.48 439.03,-325.03"/>
</g>
<!-- Fallback*** -->
<g id="node18" class="node">
<title>Fallback***</title>
<polygon fill="cyan" stroke="black" points="535.53,-298.54 535.53,-313.46 513.57,-324 482.52,-324 460.55,-313.46 460.55,-298.54 482.52,-288 513.57,-288 535.53,-298.54"/>
<text text-anchor="middle" x="498.04" y="-303.8" font-family="Times,serif" font-size="9.00">Fallback***</text>
</g>
<!-- Sequence&#45;&gt;Fallback*** -->
<g id="edge17" class="edge">
<title>Sequence&#45;&gt;Fallback***</title>
<path fill="none" stroke="black" d="M498.04,-359.7C498.04,-351.98 498.04,-342.71 498.04,-334.11"/>
<polygon fill="black" stroke="black" points="501.54,-334.1 498.04,-324.1 494.54,-334.1 501.54,-334.1"/>
</g>
<!-- apply force 2!* -->
<g id="node24" class="node">
<title>apply force 2!*</title>
<ellipse fill="gray" stroke="black" cx="594.04" cy="-306" rx="40.98" ry="18"/>
<text text-anchor="middle" x="594.04" y="-303.8" font-family="Times,serif" font-size="9.00">apply force 2!*</text>
</g>
<!-- Sequence&#45;&gt;apply force 2!* -->
<g id="edge23" class="edge">
<title>Sequence&#45;&gt;apply force 2!*</title>
<path fill="none" stroke="black" d="M517.01,-363.17C530.84,-353.08 549.83,-339.24 565.49,-327.82"/>
<polygon fill="black" stroke="black" points="567.77,-330.49 573.79,-321.77 563.65,-324.83 567.77,-330.49"/>
</g>
<!-- apply force 1!* -->
<g id="node25" class="node">
<title>apply force 1!*</title>
<ellipse fill="gray" stroke="black" cx="694.04" cy="-306" rx="40.98" ry="18"/>
<text text-anchor="middle" x="694.04" y="-303.8" font-family="Times,serif" font-size="9.00">apply force 1!*</text>
</g>
<!-- Sequence&#45;&gt;apply force 1!* -->
<g id="edge24" class="edge">
<title>Sequence&#45;&gt;apply force 1!*</title>
<path fill="none" stroke="black" d="M524.48,-367.56C557.57,-355.74 614.6,-335.37 653.3,-321.55"/>
<polygon fill="black" stroke="black" points="654.96,-324.68 663.2,-318.02 652.6,-318.08 654.96,-324.68"/>
</g>
<!-- 0 at pos (0.0, 0.05, 0.0)? -->
<g id="node3" class="node">
<title>0 at pos (0.0, 0.05, 0.0)?</title>
<ellipse fill="gray" stroke="black" cx="60.04" cy="-234" rx="60.09" ry="18"/>
<text text-anchor="middle" x="60.04" y="-231.8" font-family="Times,serif" font-size="9.00">0 at pos (0.0, 0.05, 0.0)?</text>
</g>
<!-- Fallback&#45;&gt;0 at pos (0.0, 0.05, 0.0)? -->
<g id="edge2" class="edge">
<title>Fallback&#45;&gt;0 at pos (0.0, 0.05, 0.0)?</title>
<path fill="none" stroke="black" d="M152.28,-292.65C136.12,-282.55 112.92,-268.05 93.82,-256.11"/>
<polygon fill="black" stroke="black" points="95.44,-253 85.11,-250.66 91.73,-258.93 95.44,-253"/>
</g>
<!-- Sequence* -->
<g id="node4" class="node">
<title>Sequence*</title>
<polygon fill="cyan" stroke="black" points="206.29,-226.54 206.29,-241.46 186.23,-252 157.86,-252 137.8,-241.46 137.8,-226.54 157.86,-216 186.23,-216 206.29,-226.54"/>
<text text-anchor="middle" x="172.04" y="-231.8" font-family="Times,serif" font-size="9.00">Sequence*</text>
</g>
<!-- Fallback&#45;&gt;Sequence* -->
<g id="edge3" class="edge">
<title>Fallback&#45;&gt;Sequence*</title>
<path fill="none" stroke="black" d="M172.04,-287.7C172.04,-279.98 172.04,-270.71 172.04,-262.11"/>
<polygon fill="black" stroke="black" points="175.54,-262.1 172.04,-252.1 168.54,-262.1 175.54,-262.1"/>
</g>
<!-- pick 0! -->
<g id="node5" class="node">
<title>pick 0!</title>
<ellipse fill="gray" stroke="black" cx="121.04" cy="-162" rx="27" ry="18"/>
<text text-anchor="middle" x="121.04" y="-159.8" font-family="Times,serif" font-size="9.00">pick 0!</text>
</g>
<!-- Sequence*&#45;&gt;pick 0! -->
<g id="edge4" class="edge">
<title>Sequence*&#45;&gt;pick 0!</title>
<path fill="none" stroke="black" d="M159.44,-215.7C153.11,-207.02 145.36,-196.37 138.47,-186.92"/>
<polygon fill="black" stroke="black" points="141.18,-184.69 132.46,-178.67 135.52,-188.81 141.18,-184.69"/>
</g>
<!-- place at (0.0, 0.05, 0.0)! -->
<g id="node6" class="node">
<title>place at (0.0, 0.05, 0.0)!</title>
<ellipse fill="gray" stroke="black" cx="224.04" cy="-162" rx="58.13" ry="18"/>
<text text-anchor="middle" x="224.04" y="-159.8" font-family="Times,serif" font-size="9.00">place at (0.0, 0.05, 0.0)!</text>
</g>
<!-- Sequence*&#45;&gt;place at (0.0, 0.05, 0.0)! -->
<g id="edge5" class="edge">
<title>Sequence*&#45;&gt;place at (0.0, 0.05, 0.0)!</title>
<path fill="none" stroke="black" d="M184.9,-215.7C191.16,-207.27 198.81,-196.97 205.67,-187.73"/>
<polygon fill="black" stroke="black" points="208.54,-189.74 211.7,-179.62 202.92,-185.56 208.54,-189.74"/>
</g>
<!-- 1 at pos (0.0, 0.05, 0.0192)? -->
<g id="node8" class="node">
<title>1 at pos (0.0, 0.05, 0.0192)?</title>
<ellipse fill="gray" stroke="black" cx="292.04" cy="-234" rx="67.6" ry="18"/>
<text text-anchor="middle" x="292.04" y="-231.8" font-family="Times,serif" font-size="9.00">1 at pos (0.0, 0.05, 0.0192)?</text>
</g>
<!-- Fallback*&#45;&gt;1 at pos (0.0, 0.05, 0.0192)? -->
<g id="edge7" class="edge">
<title>Fallback*&#45;&gt;1 at pos (0.0, 0.05, 0.0192)?</title>
<path fill="none" stroke="black" d="M389.77,-292.49C372.42,-282.28 347.54,-267.64 327.23,-255.7"/>
<polygon fill="black" stroke="black" points="328.94,-252.64 318.55,-250.59 325.39,-258.68 328.94,-252.64"/>
</g>
<!-- Sequence** -->
<g id="node9" class="node">
<title>Sequence**</title>
<polygon fill="cyan" stroke="black" points="450.79,-226.54 450.79,-241.46 429.26,-252 398.83,-252 377.3,-241.46 377.3,-226.54 398.83,-216 429.26,-216 450.79,-226.54"/>
<text text-anchor="middle" x="414.04" y="-231.8" font-family="Times,serif" font-size="9.00">Sequence**</text>
</g>
<!-- Fallback*&#45;&gt;Sequence** -->
<g id="edge8" class="edge">
<title>Fallback*&#45;&gt;Sequence**</title>
<path fill="none" stroke="black" d="M411.79,-287.7C412.12,-279.98 412.51,-270.71 412.88,-262.11"/>
<polygon fill="black" stroke="black" points="416.38,-262.25 413.31,-252.1 409.39,-261.95 416.38,-262.25"/>
</g>
<!-- Fallback** -->
<g id="node10" class="node">
<title>Fallback**</title>
<polygon fill="cyan" stroke="black" points="435.04,-154.54 435.04,-169.46 414.54,-180 385.55,-180 365.05,-169.46 365.05,-154.54 385.55,-144 414.54,-144 435.04,-154.54"/>
<text text-anchor="middle" x="400.04" y="-159.8" font-family="Times,serif" font-size="9.00">Fallback**</text>
</g>
<!-- Sequence**&#45;&gt;Fallback** -->
<g id="edge9" class="edge">
<title>Sequence**&#45;&gt;Fallback**</title>
<path fill="none" stroke="black" d="M410.58,-215.7C409.04,-207.98 407.19,-198.71 405.47,-190.11"/>
<polygon fill="black" stroke="black" points="408.86,-189.22 403.47,-180.1 401.99,-190.6 408.86,-189.22"/>
</g>
<!-- apply force 1! -->
<g id="node17" class="node">
<title>apply force 1!</title>
<ellipse fill="gray" stroke="black" cx="491.04" cy="-162" rx="38.21" ry="18"/>
<text text-anchor="middle" x="491.04" y="-159.8" font-family="Times,serif" font-size="9.00">apply force 1!</text>
</g>
<!-- Sequence**&#45;&gt;apply force 1! -->
<g id="edge16" class="edge">
<title>Sequence**&#45;&gt;apply force 1!</title>
<path fill="none" stroke="black" d="M431.9,-216.76C442.3,-207.31 455.55,-195.27 466.87,-184.98"/>
<polygon fill="black" stroke="black" points="469.29,-187.51 474.34,-178.19 464.58,-182.33 469.29,-187.51"/>
</g>
<!-- pick 0!* -->
<g id="node11" class="node">
<title>pick 0!*</title>
<ellipse fill="gray" stroke="black" cx="328.04" cy="-90" rx="27" ry="18"/>
<text text-anchor="middle" x="328.04" y="-87.8" font-family="Times,serif" font-size="9.00">pick 0!*</text>
</g>
<!-- Fallback**&#45;&gt;pick 0!* -->
<g id="edge10" class="edge">
<title>Fallback**&#45;&gt;pick 0!*</title>
<path fill="none" stroke="black" d="M383.35,-144.76C373.45,-135.14 360.79,-122.84 350.09,-112.43"/>
<polygon fill="black" stroke="black" points="352.31,-109.71 342.7,-105.25 347.43,-114.73 352.31,-109.71"/>
</g>
<!-- 1 on 0? -->
<g id="node12" class="node">
<title>1 on 0?</title>
<ellipse fill="gray" stroke="black" cx="400.04" cy="-90" rx="27" ry="18"/>
<text text-anchor="middle" x="400.04" y="-87.8" font-family="Times,serif" font-size="9.00">1 on 0?</text>
</g>
<!-- Fallback**&#45;&gt;1 on 0? -->
<g id="edge11" class="edge">
<title>Fallback**&#45;&gt;1 on 0?</title>
<path fill="none" stroke="black" d="M400.04,-143.7C400.04,-135.98 400.04,-126.71 400.04,-118.11"/>
<polygon fill="black" stroke="black" points="403.54,-118.1 400.04,-108.1 396.54,-118.1 403.54,-118.1"/>
</g>
<!-- Sequence*** -->
<g id="node13" class="node">
<title>Sequence***</title>
<polygon fill="cyan" stroke="black" points="525.03,-82.54 525.03,-97.46 501.61,-108 468.48,-108 445.05,-97.46 445.05,-82.54 468.48,-72 501.61,-72 525.03,-82.54"/>
<text text-anchor="middle" x="485.04" y="-87.8" font-family="Times,serif" font-size="9.00">Sequence***</text>
</g>
<!-- Fallback**&#45;&gt;Sequence*** -->
<g id="edge12" class="edge">
<title>Fallback**&#45;&gt;Sequence***</title>
<path fill="none" stroke="black" d="M418.49,-145.81C429.94,-136.38 444.88,-124.08 457.69,-113.53"/>
<polygon fill="black" stroke="black" points="460.26,-115.95 465.75,-106.89 455.81,-110.54 460.26,-115.95"/>
</g>
<!-- pick 1! -->
<g id="node14" class="node">
<title>pick 1!</title>
<ellipse fill="gray" stroke="black" cx="408.04" cy="-18" rx="27" ry="18"/>
<text text-anchor="middle" x="408.04" y="-15.8" font-family="Times,serif" font-size="9.00">pick 1!</text>
</g>
<!-- Sequence***&#45;&gt;pick 1! -->
<g id="edge13" class="edge">
<title>Sequence***&#45;&gt;pick 1!</title>
<path fill="none" stroke="black" d="M466.8,-72.41C456.03,-62.62 442.31,-50.15 430.83,-39.72"/>
<polygon fill="black" stroke="black" points="433.06,-37.02 423.31,-32.88 428.36,-42.19 433.06,-37.02"/>
</g>
<!-- place on 0! -->
<g id="node15" class="node">
<title>place on 0!</title>
<ellipse fill="gray" stroke="black" cx="485.04" cy="-18" rx="32.16" ry="18"/>
<text text-anchor="middle" x="485.04" y="-15.8" font-family="Times,serif" font-size="9.00">place on 0!</text>
</g>
<!-- Sequence***&#45;&gt;place on 0! -->
<g id="edge14" class="edge">
<title>Sequence***&#45;&gt;place on 0!</title>
<path fill="none" stroke="black" d="M485.04,-71.7C485.04,-63.98 485.04,-54.71 485.04,-46.11"/>
<polygon fill="black" stroke="black" points="488.54,-46.1 485.04,-36.1 481.54,-46.1 488.54,-46.1"/>
</g>
<!-- pick 2! -->
<g id="node16" class="node">
<title>pick 2!</title>
<ellipse fill="gray" stroke="black" cx="562.04" cy="-18" rx="27" ry="18"/>
<text text-anchor="middle" x="562.04" y="-15.8" font-family="Times,serif" font-size="9.00">pick 2!</text>
</g>
<!-- Sequence***&#45;&gt;pick 2! -->
<g id="edge15" class="edge">
<title>Sequence***&#45;&gt;pick 2!</title>
<path fill="none" stroke="black" d="M503.29,-72.41C514.06,-62.62 527.78,-50.15 539.26,-39.72"/>
<polygon fill="black" stroke="black" points="541.73,-42.19 546.78,-32.88 537.02,-37.02 541.73,-42.19"/>
</g>
<!-- 2 on 1? -->
<g id="node19" class="node">
<title>2 on 1?</title>
<ellipse fill="gray" stroke="black" cx="496.04" cy="-234" rx="27" ry="18"/>
<text text-anchor="middle" x="496.04" y="-231.8" font-family="Times,serif" font-size="9.00">2 on 1?</text>
</g>
<!-- Fallback***&#45;&gt;2 on 1? -->
<g id="edge18" class="edge">
<title>Fallback***&#45;&gt;2 on 1?</title>
<path fill="none" stroke="black" d="M497.55,-287.7C497.33,-279.98 497.06,-270.71 496.82,-262.11"/>
<polygon fill="black" stroke="black" points="500.32,-262 496.53,-252.1 493.32,-262.2 500.32,-262"/>
</g>
<!-- apply force 2! -->
<g id="node20" class="node">
<title>apply force 2!</title>
<ellipse fill="gray" stroke="black" cx="579.04" cy="-234" rx="38.21" ry="18"/>
<text text-anchor="middle" x="579.04" y="-231.8" font-family="Times,serif" font-size="9.00">apply force 2!</text>
</g>
<!-- Fallback***&#45;&gt;apply force 2! -->
<g id="edge19" class="edge">
<title>Fallback***&#45;&gt;apply force 2!</title>
<path fill="none" stroke="black" d="M516.42,-289.12C527.53,-279.52 541.83,-267.16 553.97,-256.67"/>
<polygon fill="black" stroke="black" points="556.29,-259.29 561.57,-250.1 551.72,-253.99 556.29,-259.29"/>
</g>
<!-- Sequence**** -->
<g id="node21" class="node">
<title>Sequence****</title>
<polygon fill="cyan" stroke="black" points="720.53,-226.54 720.53,-241.46 695.64,-252 660.44,-252 635.56,-241.46 635.56,-226.54 660.44,-216 695.64,-216 720.53,-226.54"/>
<text text-anchor="middle" x="678.04" y="-231.8" font-family="Times,serif" font-size="9.00">Sequence****</text>
</g>
<!-- Fallback***&#45;&gt;Sequence**** -->
<g id="edge20" class="edge">
<title>Fallback***&#45;&gt;Sequence****</title>
<path fill="none" stroke="black" d="M526.57,-293.91C556.7,-282.19 604.45,-263.62 638.28,-250.47"/>
<polygon fill="black" stroke="black" points="639.8,-253.63 647.85,-246.74 637.27,-247.1 639.8,-253.63"/>
</g>
<!-- pick 2!* -->
<g id="node22" class="node">
<title>pick 2!*</title>
<ellipse fill="gray" stroke="black" cx="639.04" cy="-162" rx="27" ry="18"/>
<text text-anchor="middle" x="639.04" y="-159.8" font-family="Times,serif" font-size="9.00">pick 2!*</text>
</g>
<!-- Sequence****&#45;&gt;pick 2!* -->
<g id="edge21" class="edge">
<title>Sequence****&#45;&gt;pick 2!*</title>
<path fill="none" stroke="black" d="M668.4,-215.7C663.73,-207.32 658.04,-197.1 652.92,-187.9"/>
<polygon fill="black" stroke="black" points="655.96,-186.18 648.04,-179.14 649.85,-189.58 655.96,-186.18"/>
</g>
<!-- place on 1! -->
<g id="node23" class="node">
<title>place on 1!</title>
<ellipse fill="gray" stroke="black" cx="716.04" cy="-162" rx="32.16" ry="18"/>
<text text-anchor="middle" x="716.04" y="-159.8" font-family="Times,serif" font-size="9.00">place on 1!</text>
</g>
<!-- Sequence****&#45;&gt;place on 1! -->
<g id="edge22" class="edge">
<title>Sequence****&#45;&gt;place on 1!</title>
<path fill="none" stroke="black" d="M687.44,-215.7C691.87,-207.52 697.26,-197.6 702.16,-188.58"/>
<polygon fill="black" stroke="black" points="705.33,-190.08 707.02,-179.62 699.17,-186.74 705.33,-190.08"/>
</g>
</g>
</svg>
