<?xml version="1.0" encoding="UTF-8" standalone="no"?>
<!DOCTYPE svg PUBLIC "-//W3C//DTD SVG 1.1//EN"
 "http://www.w3.org/Graphics/SVG/1.1/DTD/svg11.dtd">
<!-- Generated by graphviz version 2.43.0 (0)
 -->
<!-- Title: pastafarianism Pages: 1 -->
<svg width="1043pt" height="548pt"
 viewBox="0.00 0.00 1043.24 548.00" xmlns="http://www.w3.org/2000/svg" xmlns:xlink="http://www.w3.org/1999/xlink">
<g id="graph0" class="graph" transform="scale(1 1) rotate(0) translate(4 544)">
<title>pastafarianism</title>
<polygon fill="white" stroke="transparent" points="-4,4 -4,-544 1039.24,-544 1039.24,4 -4,4"/>
<!-- Sequence -->
<g id="node1" class="node">
<title>Sequence</title>
<polygon fill="cyan" stroke="black" points="649.54,-514.54 649.54,-529.46 631.09,-540 605,-540 586.55,-529.46 586.55,-514.54 605,-504 631.09,-504 649.54,-514.54"/>
<text text-anchor="middle" x="618.04" y="-519.8" font-family="Times,serif" font-size="9.00">Sequence</text>
</g>
<!-- Fallback -->
<g id="node2" class="node">
<title>Fallback</title>
<polygon fill="cyan" stroke="black" points="241.29,-442.54 241.29,-457.46 224.16,-468 199.93,-468 182.8,-457.46 182.8,-442.54 199.93,-432 224.16,-432 241.29,-442.54"/>
<text text-anchor="middle" x="212.04" y="-447.8" font-family="Times,serif" font-size="9.00">Fallback</text>
</g>
<!-- Sequence&#45;&gt;Fallback -->
<g id="edge1" class="edge">
<title>Sequence&#45;&gt;Fallback</title>
<path fill="none" stroke="black" d="M586.52,-515.57C513.33,-502.95 331.98,-471.68 251.55,-457.81"/>
<polygon fill="black" stroke="black" points="251.79,-454.3 241.34,-456.05 250.6,-461.2 251.79,-454.3"/>
</g>
<!-- Fallback* -->
<g id="node8" class="node">
<title>Fallback*</title>
<polygon fill="cyan" stroke="black" points="517.79,-442.54 517.79,-457.46 499.19,-468 472.9,-468 454.3,-457.46 454.3,-442.54 472.9,-432 499.19,-432 517.79,-442.54"/>
<text text-anchor="middle" x="486.04" y="-447.8" font-family="Times,serif" font-size="9.00">Fallback*</text>
</g>
<!-- Sequence&#45;&gt;Fallback* -->
<g id="edge7" class="edge">
<title>Sequence&#45;&gt;Fallback*</title>
<path fill="none" stroke="black" d="M595.65,-509.13C574.22,-497.76 541.69,-480.51 517.63,-467.75"/>
<polygon fill="black" stroke="black" points="519.02,-464.53 508.55,-462.93 515.74,-470.71 519.02,-464.53"/>
</g>
<!-- Fallback**** -->
<g id="node24" class="node">
<title>Fallback****</title>
<polygon fill="cyan" stroke="black" points="658.78,-442.54 658.78,-457.46 634.92,-468 601.17,-468 577.3,-457.46 577.3,-442.54 601.17,-432 634.92,-432 658.78,-442.54"/>
<text text-anchor="middle" x="618.04" y="-447.8" font-family="Times,serif" font-size="9.00">Fallback****</text>
</g>
<!-- Sequence&#45;&gt;Fallback**** -->
<g id="edge23" class="edge">
<title>Sequence&#45;&gt;Fallback****</title>
<path fill="none" stroke="black" d="M618.04,-503.7C618.04,-495.98 618.04,-486.71 618.04,-478.11"/>
<polygon fill="black" stroke="black" points="621.54,-478.1 618.04,-468.1 614.54,-478.1 621.54,-478.1"/>
</g>
<!-- Fallback***** -->
<g id="node29" class="node">
<title>Fallback*****</title>
<polygon fill="cyan" stroke="black" points="797.28,-442.54 797.28,-457.46 771.95,-468 736.13,-468 710.81,-457.46 710.81,-442.54 736.13,-432 771.95,-432 797.28,-442.54"/>
<text text-anchor="middle" x="754.04" y="-447.8" font-family="Times,serif" font-size="9.00">Fallback*****</text>
</g>
<!-- Sequence&#45;&gt;Fallback***** -->
<g id="edge28" class="edge">
<title>Sequence&#45;&gt;Fallback*****</title>
<path fill="none" stroke="black" d="M640.81,-509.28C662,-498.38 693.91,-481.95 718.46,-469.32"/>
<polygon fill="black" stroke="black" points="720.18,-472.37 727.47,-464.68 716.98,-466.14 720.18,-472.37"/>
</g>
<!-- apply force 2! -->
<g id="node34" class="node">
<title>apply force 2!</title>
<ellipse fill="gray" stroke="black" cx="853.04" cy="-450" rx="38.21" ry="18"/>
<text text-anchor="middle" x="853.04" y="-447.8" font-family="Times,serif" font-size="9.00">apply force 2!</text>
</g>
<!-- Sequence&#45;&gt;apply force 2! -->
<g id="edge33" class="edge">
<title>Sequence&#45;&gt;apply force 2!</title>
<path fill="none" stroke="black" d="M647.55,-513.39C684.74,-503.64 750.51,-485.84 806.04,-468 808.79,-467.12 811.62,-466.18 814.46,-465.21"/>
<polygon fill="black" stroke="black" points="815.79,-468.45 824.07,-461.85 813.48,-461.84 815.79,-468.45"/>
</g>
<!-- 0 at pos (0.0, 0.05, 0.0)? -->
<g id="node3" class="node">
<title>0 at pos (0.0, 0.05, 0.0)?</title>
<ellipse fill="gray" stroke="black" cx="60.04" cy="-378" rx="60.09" ry="18"/>
<text text-anchor="middle" x="60.04" y="-375.8" font-family="Times,serif" font-size="9.00">0 at pos (0.0, 0.05, 0.0)?</text>
</g>
<!-- Fallback&#45;&gt;0 at pos (0.0, 0.05, 0.0)? -->
<g id="edge2" class="edge">
<title>Fallback&#45;&gt;0 at pos (0.0, 0.05, 0.0)?</title>
<path fill="none" stroke="black" d="M189.29,-438.52C165.92,-427.76 129.07,-410.79 100.68,-397.72"/>
<polygon fill="black" stroke="black" points="101.96,-394.45 91.41,-393.45 99.03,-400.81 101.96,-394.45"/>
</g>
<!-- Sequence* -->
<g id="node4" class="node">
<title>Sequence*</title>
<polygon fill="cyan" stroke="black" points="206.29,-370.54 206.29,-385.46 186.23,-396 157.86,-396 137.8,-385.46 137.8,-370.54 157.86,-360 186.23,-360 206.29,-370.54"/>
<text text-anchor="middle" x="172.04" y="-375.8" font-family="Times,serif" font-size="9.00">Sequence*</text>
</g>
<!-- Fallback&#45;&gt;Sequence* -->
<g id="edge3" class="edge">
<title>Fallback&#45;&gt;Sequence*</title>
<path fill="none" stroke="black" d="M202.16,-431.7C197.56,-423.64 191.98,-413.89 186.89,-404.98"/>
<polygon fill="black" stroke="black" points="189.82,-403.05 181.82,-396.1 183.74,-406.52 189.82,-403.05"/>
</g>
<!-- 1 on 0? -->
<g id="node7" class="node">
<title>1 on 0?</title>
<ellipse fill="gray" stroke="black" cx="251.04" cy="-378" rx="27" ry="18"/>
<text text-anchor="middle" x="251.04" y="-375.8" font-family="Times,serif" font-size="9.00">1 on 0?</text>
</g>
<!-- Fallback&#45;&gt;1 on 0? -->
<g id="edge6" class="edge">
<title>Fallback&#45;&gt;1 on 0?</title>
<path fill="none" stroke="black" d="M221.68,-431.7C226.35,-423.32 232.05,-413.1 237.17,-403.9"/>
<polygon fill="black" stroke="black" points="240.24,-405.58 242.05,-395.14 234.13,-402.18 240.24,-405.58"/>
</g>
<!-- pick 0! -->
<g id="node5" class="node">
<title>pick 0!</title>
<ellipse fill="gray" stroke="black" cx="121.04" cy="-306" rx="27" ry="18"/>
<text text-anchor="middle" x="121.04" y="-303.8" font-family="Times,serif" font-size="9.00">pick 0!</text>
</g>
<!-- Sequence*&#45;&gt;pick 0! -->
<g id="edge4" class="edge">
<title>Sequence*&#45;&gt;pick 0!</title>
<path fill="none" stroke="black" d="M159.44,-359.7C153.11,-351.02 145.36,-340.37 138.47,-330.92"/>
<polygon fill="black" stroke="black" points="141.18,-328.69 132.46,-322.67 135.52,-332.81 141.18,-328.69"/>
</g>
<!-- place at (0.0, 0.05, 0.0)! -->
<g id="node6" class="node">
<title>place at (0.0, 0.05, 0.0)!</title>
<ellipse fill="gray" stroke="black" cx="224.04" cy="-306" rx="58.13" ry="18"/>
<text text-anchor="middle" x="224.04" y="-303.8" font-family="Times,serif" font-size="9.00">place at (0.0, 0.05, 0.0)!</text>
</g>
<!-- Sequence*&#45;&gt;place at (0.0, 0.05, 0.0)! -->
<g id="edge5" class="edge">
<title>Sequence*&#45;&gt;place at (0.0, 0.05, 0.0)!</title>
<path fill="none" stroke="black" d="M184.9,-359.7C191.16,-351.27 198.81,-340.97 205.67,-331.73"/>
<polygon fill="black" stroke="black" points="208.54,-333.74 211.7,-323.62 202.92,-329.56 208.54,-333.74"/>
</g>
<!-- 1 at pos (0.0, 0.05, 0.0192)? -->
<g id="node9" class="node">
<title>1 at pos (0.0, 0.05, 0.0192)?</title>
<ellipse fill="gray" stroke="black" cx="364.04" cy="-378" rx="67.6" ry="18"/>
<text text-anchor="middle" x="364.04" y="-375.8" font-family="Times,serif" font-size="9.00">1 at pos (0.0, 0.05, 0.0192)?</text>
</g>
<!-- Fallback*&#45;&gt;1 at pos (0.0, 0.05, 0.0192)? -->
<g id="edge8" class="edge">
<title>Fallback*&#45;&gt;1 at pos (0.0, 0.05, 0.0192)?</title>
<path fill="none" stroke="black" d="M464.51,-436.65C446.76,-426.46 421.18,-411.78 400.28,-399.79"/>
<polygon fill="black" stroke="black" points="401.76,-396.6 391.34,-394.66 398.28,-402.68 401.76,-396.6"/>
</g>
<!-- Sequence** -->
<g id="node10" class="node">
<title>Sequence**</title>
<polygon fill="cyan" stroke="black" points="522.79,-370.54 522.79,-385.46 501.26,-396 470.83,-396 449.3,-385.46 449.3,-370.54 470.83,-360 501.26,-360 522.79,-370.54"/>
<text text-anchor="middle" x="486.04" y="-375.8" font-family="Times,serif" font-size="9.00">Sequence**</text>
</g>
<!-- Fallback*&#45;&gt;Sequence** -->
<g id="edge9" class="edge">
<title>Fallback*&#45;&gt;Sequence**</title>
<path fill="none" stroke="black" d="M486.04,-431.7C486.04,-423.98 486.04,-414.71 486.04,-406.11"/>
<polygon fill="black" stroke="black" points="489.54,-406.1 486.04,-396.1 482.54,-406.1 489.54,-406.1"/>
</g>
<!-- Fallback** -->
<g id="node11" class="node">
<title>Fallback**</title>
<polygon fill="cyan" stroke="black" points="433.04,-298.54 433.04,-313.46 412.54,-324 383.55,-324 363.05,-313.46 363.05,-298.54 383.55,-288 412.54,-288 433.04,-298.54"/>
<text text-anchor="middle" x="398.04" y="-303.8" font-family="Times,serif" font-size="9.00">Fallback**</text>
</g>
<!-- Sequence**&#45;&gt;Fallback** -->
<g id="edge10" class="edge">
<title>Sequence**&#45;&gt;Fallback**</title>
<path fill="none" stroke="black" d="M466.95,-361.81C454.64,-352.02 438.46,-339.15 424.87,-328.34"/>
<polygon fill="black" stroke="black" points="426.8,-325.4 416.8,-321.92 422.45,-330.88 426.8,-325.4"/>
</g>
<!-- apply force 1!* -->
<g id="node23" class="node">
<title>apply force 1!*</title>
<ellipse fill="gray" stroke="black" cx="492.04" cy="-306" rx="40.98" ry="18"/>
<text text-anchor="middle" x="492.04" y="-303.8" font-family="Times,serif" font-size="9.00">apply force 1!*</text>
</g>
<!-- Sequence**&#45;&gt;apply force 1!* -->
<g id="edge22" class="edge">
<title>Sequence**&#45;&gt;apply force 1!*</title>
<path fill="none" stroke="black" d="M487.53,-359.7C488.19,-351.98 488.98,-342.71 489.72,-334.11"/>
<polygon fill="black" stroke="black" points="493.21,-334.37 490.58,-324.1 486.24,-333.77 493.21,-334.37"/>
</g>
<!-- Sequence*** -->
<g id="node12" class="node">
<title>Sequence***</title>
<polygon fill="cyan" stroke="black" points="350.03,-226.54 350.03,-241.46 326.61,-252 293.48,-252 270.05,-241.46 270.05,-226.54 293.48,-216 326.61,-216 350.03,-226.54"/>
<text text-anchor="middle" x="310.04" y="-231.8" font-family="Times,serif" font-size="9.00">Sequence***</text>
</g>
<!-- Fallback**&#45;&gt;Sequence*** -->
<g id="edge11" class="edge">
<title>Fallback**&#45;&gt;Sequence***</title>
<path fill="none" stroke="black" d="M378.95,-289.81C366.89,-280.22 351.12,-267.67 337.7,-257"/>
<polygon fill="black" stroke="black" points="339.72,-254.13 329.71,-250.64 335.36,-259.61 339.72,-254.13"/>
</g>
<!-- 1 on 0?** -->
<g id="node19" class="node">
<title>1 on 0?**</title>
<ellipse fill="gray" stroke="black" cx="398.04" cy="-234" rx="30.04" ry="18"/>
<text text-anchor="middle" x="398.04" y="-231.8" font-family="Times,serif" font-size="9.00">1 on 0?**</text>
</g>
<!-- Fallback**&#45;&gt;1 on 0?** -->
<g id="edge18" class="edge">
<title>Fallback**&#45;&gt;1 on 0?**</title>
<path fill="none" stroke="black" d="M398.04,-287.7C398.04,-279.98 398.04,-270.71 398.04,-262.11"/>
<polygon fill="black" stroke="black" points="401.54,-262.1 398.04,-252.1 394.54,-262.1 401.54,-262.1"/>
</g>
<!-- Sequence***** -->
<g id="node20" class="node">
<title>Sequence*****</title>
<polygon fill="cyan" stroke="black" points="537.78,-226.54 537.78,-241.46 510.99,-252 473.1,-252 446.31,-241.46 446.31,-226.54 473.1,-216 510.99,-216 537.78,-226.54"/>
<text text-anchor="middle" x="492.04" y="-231.8" font-family="Times,serif" font-size="9.00">Sequence*****</text>
</g>
<!-- Fallback**&#45;&gt;Sequence***** -->
<g id="edge19" class="edge">
<title>Fallback**&#45;&gt;Sequence*****</title>
<path fill="none" stroke="black" d="M417.52,-290.5C430.38,-280.92 447.48,-268.19 462.05,-257.33"/>
<polygon fill="black" stroke="black" points="464.36,-259.98 470.29,-251.2 460.18,-254.36 464.36,-259.98"/>
</g>
<!-- Fallback*** -->
<g id="node13" class="node">
<title>Fallback***</title>
<polygon fill="cyan" stroke="black" points="310.53,-154.54 310.53,-169.46 288.57,-180 257.52,-180 235.55,-169.46 235.55,-154.54 257.52,-144 288.57,-144 310.53,-154.54"/>
<text text-anchor="middle" x="273.04" y="-159.8" font-family="Times,serif" font-size="9.00">Fallback***</text>
</g>
<!-- Sequence***&#45;&gt;Fallback*** -->
<g id="edge12" class="edge">
<title>Sequence***&#45;&gt;Fallback***</title>
<path fill="none" stroke="black" d="M300.9,-215.7C296.64,-207.64 291.49,-197.89 286.78,-188.98"/>
<polygon fill="black" stroke="black" points="289.85,-187.31 282.09,-180.1 283.66,-190.58 289.85,-187.31"/>
</g>
<!-- apply force 1! -->
<g id="node18" class="node">
<title>apply force 1!</title>
<ellipse fill="gray" stroke="black" cx="367.04" cy="-162" rx="38.21" ry="18"/>
<text text-anchor="middle" x="367.04" y="-159.8" font-family="Times,serif" font-size="9.00">apply force 1!</text>
</g>
<!-- Sequence***&#45;&gt;apply force 1! -->
<g id="edge17" class="edge">
<title>Sequence***&#45;&gt;apply force 1!</title>
<path fill="none" stroke="black" d="M324.13,-215.7C331.17,-207.05 339.8,-196.46 347.47,-187.04"/>
<polygon fill="black" stroke="black" points="350.3,-189.11 353.9,-179.14 344.87,-184.69 350.3,-189.11"/>
</g>
<!-- 1 on 0?* -->
<g id="node14" class="node">
<title>1 on 0?*</title>
<ellipse fill="gray" stroke="black" cx="229.04" cy="-90" rx="27.27" ry="18"/>
<text text-anchor="middle" x="229.04" y="-87.8" font-family="Times,serif" font-size="9.00">1 on 0?*</text>
</g>
<!-- Fallback***&#45;&gt;1 on 0?* -->
<g id="edge13" class="edge">
<title>Fallback***&#45;&gt;1 on 0?*</title>
<path fill="none" stroke="black" d="M262.17,-143.7C256.85,-135.23 250.34,-124.89 244.51,-115.61"/>
<polygon fill="black" stroke="black" points="247.48,-113.75 239.19,-107.14 241.55,-117.47 247.48,-113.75"/>
</g>
<!-- Sequence**** -->
<g id="node15" class="node">
<title>Sequence****</title>
<polygon fill="cyan" stroke="black" points="359.53,-82.54 359.53,-97.46 334.64,-108 299.44,-108 274.56,-97.46 274.56,-82.54 299.44,-72 334.64,-72 359.53,-82.54"/>
<text text-anchor="middle" x="317.04" y="-87.8" font-family="Times,serif" font-size="9.00">Sequence****</text>
</g>
<!-- Fallback***&#45;&gt;Sequence**** -->
<g id="edge14" class="edge">
<title>Fallback***&#45;&gt;Sequence****</title>
<path fill="none" stroke="black" d="M283.92,-143.7C289.04,-135.56 295.24,-125.69 300.89,-116.7"/>
<polygon fill="black" stroke="black" points="303.93,-118.43 306.29,-108.1 298.01,-114.71 303.93,-118.43"/>
</g>
<!-- pick 1! -->
<g id="node16" class="node">
<title>pick 1!</title>
<ellipse fill="gray" stroke="black" cx="279.04" cy="-18" rx="27" ry="18"/>
<text text-anchor="middle" x="279.04" y="-15.8" font-family="Times,serif" font-size="9.00">pick 1!</text>
</g>
<!-- Sequence****&#45;&gt;pick 1! -->
<g id="edge15" class="edge">
<title>Sequence****&#45;&gt;pick 1!</title>
<path fill="none" stroke="black" d="M307.65,-71.7C303.15,-63.4 297.67,-53.31 292.72,-44.19"/>
<polygon fill="black" stroke="black" points="295.66,-42.26 287.81,-35.14 289.5,-45.6 295.66,-42.26"/>
</g>
<!-- place on 0! -->
<g id="node17" class="node">
<title>place on 0!</title>
<ellipse fill="gray" stroke="black" cx="356.04" cy="-18" rx="32.16" ry="18"/>
<text text-anchor="middle" x="356.04" y="-15.8" font-family="Times,serif" font-size="9.00">place on 0!</text>
</g>
<!-- Sequence****&#45;&gt;place on 0! -->
<g id="edge16" class="edge">
<title>Sequence****&#45;&gt;place on 0!</title>
<path fill="none" stroke="black" d="M326.68,-71.7C331.24,-63.52 336.77,-53.6 341.79,-44.58"/>
<polygon fill="black" stroke="black" points="344.97,-46.06 346.78,-35.62 338.86,-42.65 344.97,-46.06"/>
</g>
<!-- pick 1!* -->
<g id="node21" class="node">
<title>pick 1!*</title>
<ellipse fill="gray" stroke="black" cx="471.04" cy="-162" rx="27" ry="18"/>
<text text-anchor="middle" x="471.04" y="-159.8" font-family="Times,serif" font-size="9.00">pick 1!*</text>
</g>
<!-- Sequence*****&#45;&gt;pick 1!* -->
<g id="edge20" class="edge">
<title>Sequence*****&#45;&gt;pick 1!*</title>
<path fill="none" stroke="black" d="M486.85,-215.7C484.51,-207.9 481.7,-198.51 479.09,-189.83"/>
<polygon fill="black" stroke="black" points="482.4,-188.68 476.18,-180.1 475.7,-190.69 482.4,-188.68"/>
</g>
<!-- place on 0!* -->
<g id="node22" class="node">
<title>place on 0!*</title>
<ellipse fill="gray" stroke="black" cx="551.04" cy="-162" rx="34.78" ry="18"/>
<text text-anchor="middle" x="551.04" y="-159.8" font-family="Times,serif" font-size="9.00">place on 0!*</text>
</g>
<!-- Sequence*****&#45;&gt;place on 0!* -->
<g id="edge21" class="edge">
<title>Sequence*****&#45;&gt;place on 0!*</title>
<path fill="none" stroke="black" d="M506.63,-215.7C514.09,-206.84 523.29,-195.93 531.37,-186.34"/>
<polygon fill="black" stroke="black" points="534.07,-188.57 537.84,-178.67 528.71,-184.06 534.07,-188.57"/>
</g>
<!-- 2 on 1? -->
<g id="node25" class="node">
<title>2 on 1?</title>
<ellipse fill="gray" stroke="black" cx="568.04" cy="-378" rx="27" ry="18"/>
<text text-anchor="middle" x="568.04" y="-375.8" font-family="Times,serif" font-size="9.00">2 on 1?</text>
</g>
<!-- Fallback****&#45;&gt;2 on 1? -->
<g id="edge24" class="edge">
<title>Fallback****&#45;&gt;2 on 1?</title>
<path fill="none" stroke="black" d="M605.68,-431.7C599.49,-423.02 591.88,-412.37 585.13,-402.92"/>
<polygon fill="black" stroke="black" points="587.9,-400.77 579.24,-394.67 582.2,-404.84 587.9,-400.77"/>
</g>
<!-- Sequence****** -->
<g id="node26" class="node">
<title>Sequence******</title>
<polygon fill="cyan" stroke="black" points="709.28,-370.54 709.28,-385.46 681.03,-396 641.06,-396 612.81,-385.46 612.81,-370.54 641.06,-360 681.03,-360 709.28,-370.54"/>
<text text-anchor="middle" x="661.04" y="-375.8" font-family="Times,serif" font-size="9.00">Sequence******</text>
</g>
<!-- Fallback****&#45;&gt;Sequence****** -->
<g id="edge25" class="edge">
<title>Fallback****&#45;&gt;Sequence******</title>
<path fill="none" stroke="black" d="M628.67,-431.7C633.67,-423.56 639.74,-413.69 645.26,-404.7"/>
<polygon fill="black" stroke="black" points="648.29,-406.46 650.54,-396.1 642.32,-402.79 648.29,-406.46"/>
</g>
<!-- pick 2! -->
<g id="node27" class="node">
<title>pick 2!</title>
<ellipse fill="gray" stroke="black" cx="622.04" cy="-306" rx="27" ry="18"/>
<text text-anchor="middle" x="622.04" y="-303.8" font-family="Times,serif" font-size="9.00">pick 2!</text>
</g>
<!-- Sequence******&#45;&gt;pick 2! -->
<g id="edge26" class="edge">
<title>Sequence******&#45;&gt;pick 2!</title>
<path fill="none" stroke="black" d="M651.4,-359.7C646.73,-351.32 641.04,-341.1 635.92,-331.9"/>
<polygon fill="black" stroke="black" points="638.96,-330.18 631.04,-323.14 632.85,-333.58 638.96,-330.18"/>
</g>
<!-- place on 1! -->
<g id="node28" class="node">
<title>place on 1!</title>
<ellipse fill="gray" stroke="black" cx="699.04" cy="-306" rx="32.16" ry="18"/>
<text text-anchor="middle" x="699.04" y="-303.8" font-family="Times,serif" font-size="9.00">place on 1!</text>
</g>
<!-- Sequence******&#45;&gt;place on 1! -->
<g id="edge27" class="edge">
<title>Sequence******&#45;&gt;place on 1!</title>
<path fill="none" stroke="black" d="M670.44,-359.7C674.87,-351.52 680.26,-341.6 685.16,-332.58"/>
<polygon fill="black" stroke="black" points="688.33,-334.08 690.02,-323.62 682.17,-330.74 688.33,-334.08"/>
</g>
<!-- 0 at pos (0.0, 0.05, 0.0)?* -->
<g id="node30" class="node">
<title>0 at pos (0.0, 0.05, 0.0)?*</title>
<ellipse fill="gray" stroke="black" cx="789.04" cy="-378" rx="62.21" ry="18"/>
<text text-anchor="middle" x="789.04" y="-375.8" font-family="Times,serif" font-size="9.00">0 at pos (0.0, 0.05, 0.0)?*</text>
</g>
<!-- Fallback*****&#45;&gt;0 at pos (0.0, 0.05, 0.0)?* -->
<g id="edge29" class="edge">
<title>Fallback*****&#45;&gt;0 at pos (0.0, 0.05, 0.0)?*</title>
<path fill="none" stroke="black" d="M762.7,-431.7C766.68,-423.73 771.49,-414.1 775.91,-405.26"/>
<polygon fill="black" stroke="black" points="779.15,-406.61 780.49,-396.1 772.89,-403.48 779.15,-406.61"/>
</g>
<!-- Sequence******* -->
<g id="node31" class="node">
<title>Sequence*******</title>
<polygon fill="cyan" stroke="black" points="972.53,-370.54 972.53,-385.46 942.37,-396 899.72,-396 869.56,-385.46 869.56,-370.54 899.72,-360 942.37,-360 972.53,-370.54"/>
<text text-anchor="middle" x="921.04" y="-375.8" font-family="Times,serif" font-size="9.00">Sequence*******</text>
</g>
<!-- Fallback*****&#45;&gt;Sequence******* -->
<g id="edge30" class="edge">
<title>Fallback*****&#45;&gt;Sequence*******</title>
<path fill="none" stroke="black" d="M783.52,-436.65C810.22,-425.45 849.83,-408.85 879.7,-396.33"/>
<polygon fill="black" stroke="black" points="881.15,-399.52 889.02,-392.42 878.45,-393.06 881.15,-399.52"/>
</g>
<!-- pick 0!* -->
<g id="node32" class="node">
<title>pick 0!*</title>
<ellipse fill="gray" stroke="black" cx="868.04" cy="-306" rx="27" ry="18"/>
<text text-anchor="middle" x="868.04" y="-303.8" font-family="Times,serif" font-size="9.00">pick 0!*</text>
</g>
<!-- Sequence*******&#45;&gt;pick 0!* -->
<g id="edge31" class="edge">
<title>Sequence*******&#45;&gt;pick 0!*</title>
<path fill="none" stroke="black" d="M907.94,-359.7C901.37,-351.02 893.31,-340.37 886.15,-330.92"/>
<polygon fill="black" stroke="black" points="888.74,-328.53 879.91,-322.67 883.16,-332.76 888.74,-328.53"/>
</g>
<!-- place at (0.0, 0.05, 0.0)!* -->
<g id="node33" class="node">
<title>place at (0.0, 0.05, 0.0)!*</title>
<ellipse fill="gray" stroke="black" cx="974.04" cy="-306" rx="61.4" ry="18"/>
<text text-anchor="middle" x="974.04" y="-303.8" font-family="Times,serif" font-size="9.00">place at (0.0, 0.05, 0.0)!*</text>
</g>
<!-- Sequence*******&#45;&gt;place at (0.0, 0.05, 0.0)!* -->
<g id="edge32" class="edge">
<title>Sequence*******&#45;&gt;place at (0.0, 0.05, 0.0)!*</title>
<path fill="none" stroke="black" d="M934.15,-359.7C940.53,-351.27 948.32,-340.97 955.32,-331.73"/>
<polygon fill="black" stroke="black" points="958.21,-333.71 961.46,-323.62 952.63,-329.48 958.21,-333.71"/>
</g>
</g>
</svg>
