<?xml version="1.0" encoding="UTF-8" standalone="no"?>
<!DOCTYPE svg PUBLIC "-//W3C//DTD SVG 1.1//EN"
 "http://www.w3.org/Graphics/SVG/1.1/DTD/svg11.dtd">
<!-- Generated by graphviz version 2.43.0 (0)
 -->
<!-- Title: pastafarianism Pages: 1 -->
<svg width="749pt" height="476pt"
 viewBox="0.00 0.00 749.38 476.00" xmlns="http://www.w3.org/2000/svg" xmlns:xlink="http://www.w3.org/1999/xlink">
<g id="graph0" class="graph" transform="scale(1 1) rotate(0) translate(4 472)">
<title>pastafarianism</title>
<polygon fill="white" stroke="transparent" points="-4,4 -4,-472 745.38,-472 745.38,4 -4,4"/>
<!-- Sequence -->
<g id="node1" class="node">
<title>Sequence</title>
<polygon fill="cyan" stroke="black" points="510.54,-442.54 510.54,-457.46 492.09,-468 466,-468 447.55,-457.46 447.55,-442.54 466,-432 492.09,-432 510.54,-442.54"/>
<text text-anchor="middle" x="479.04" y="-447.8" font-family="Times,serif" font-size="9.00">Sequence</text>
</g>
<!-- Fallback -->
<g id="node2" class="node">
<title>Fallback</title>
<polygon fill="cyan" stroke="black" points="201.29,-370.54 201.29,-385.46 184.16,-396 159.93,-396 142.8,-385.46 142.8,-370.54 159.93,-360 184.16,-360 201.29,-370.54"/>
<text text-anchor="middle" x="172.04" y="-375.8" font-family="Times,serif" font-size="9.00">Fallback</text>
</g>
<!-- Sequence&#45;&gt;Fallback -->
<g id="edge1" class="edge">
<title>Sequence&#45;&gt;Fallback</title>
<path fill="none" stroke="black" d="M448.2,-441.97C391.89,-429.13 272.53,-401.91 210.81,-387.84"/>
<polygon fill="black" stroke="black" points="211.59,-384.43 201.06,-385.62 210.04,-391.25 211.59,-384.43"/>
</g>
<!-- Fallback* -->
<g id="node7" class="node">
<title>Fallback*</title>
<polygon fill="cyan" stroke="black" points="465.79,-370.54 465.79,-385.46 447.19,-396 420.9,-396 402.3,-385.46 402.3,-370.54 420.9,-360 447.19,-360 465.79,-370.54"/>
<text text-anchor="middle" x="434.04" y="-375.8" font-family="Times,serif" font-size="9.00">Fallback*</text>
</g>
<!-- Sequence&#45;&gt;Fallback* -->
<g id="edge6" class="edge">
<title>Sequence&#45;&gt;Fallback*</title>
<path fill="none" stroke="black" d="M467.92,-431.7C462.69,-423.56 456.34,-413.69 450.57,-404.7"/>
<polygon fill="black" stroke="black" points="453.39,-402.62 445.04,-396.1 447.5,-406.41 453.39,-402.62"/>
</g>
<!-- Fallback**** -->
<g id="node20" class="node">
<title>Fallback****</title>
<polygon fill="cyan" stroke="black" points="604.78,-370.54 604.78,-385.46 580.92,-396 547.17,-396 523.3,-385.46 523.3,-370.54 547.17,-360 580.92,-360 604.78,-370.54"/>
<text text-anchor="middle" x="564.04" y="-375.8" font-family="Times,serif" font-size="9.00">Fallback****</text>
</g>
<!-- Sequence&#45;&gt;Fallback**** -->
<g id="edge19" class="edge">
<title>Sequence&#45;&gt;Fallback****</title>
<path fill="none" stroke="black" d="M496.66,-434.5C508.25,-424.95 523.67,-412.25 536.83,-401.41"/>
<polygon fill="black" stroke="black" points="539.18,-404.01 544.68,-394.95 534.73,-398.61 539.18,-404.01"/>
</g>
<!-- apply force 2! -->
<g id="node25" class="node">
<title>apply force 2!</title>
<ellipse fill="gray" stroke="black" cx="661.04" cy="-378" rx="38.21" ry="18"/>
<text text-anchor="middle" x="661.04" y="-375.8" font-family="Times,serif" font-size="9.00">apply force 2!</text>
</g>
<!-- Sequence&#45;&gt;apply force 2! -->
<g id="edge24" class="edge">
<title>Sequence&#45;&gt;apply force 2!</title>
<path fill="none" stroke="black" d="M504.73,-439.12C535.54,-427.27 587.47,-407.3 622.95,-393.65"/>
<polygon fill="black" stroke="black" points="624.41,-396.84 632.49,-389.98 621.9,-390.31 624.41,-396.84"/>
</g>
<!-- 0 at pos (0.0, 0.05, 0.0)? -->
<g id="node3" class="node">
<title>0 at pos (0.0, 0.05, 0.0)?</title>
<ellipse fill="gray" stroke="black" cx="60.04" cy="-306" rx="60.09" ry="18"/>
<text text-anchor="middle" x="60.04" y="-303.8" font-family="Times,serif" font-size="9.00">0 at pos (0.0, 0.05, 0.0)?</text>
</g>
<!-- Fallback&#45;&gt;0 at pos (0.0, 0.05, 0.0)? -->
<g id="edge2" class="edge">
<title>Fallback&#45;&gt;0 at pos (0.0, 0.05, 0.0)?</title>
<path fill="none" stroke="black" d="M152.28,-364.65C136.12,-354.55 112.92,-340.05 93.82,-328.11"/>
<polygon fill="black" stroke="black" points="95.44,-325 85.11,-322.66 91.73,-330.93 95.44,-325"/>
</g>
<!-- Sequence* -->
<g id="node4" class="node">
<title>Sequence*</title>
<polygon fill="cyan" stroke="black" points="206.29,-298.54 206.29,-313.46 186.23,-324 157.86,-324 137.8,-313.46 137.8,-298.54 157.86,-288 186.23,-288 206.29,-298.54"/>
<text text-anchor="middle" x="172.04" y="-303.8" font-family="Times,serif" font-size="9.00">Sequence*</text>
</g>
<!-- Fallback&#45;&gt;Sequence* -->
<g id="edge3" class="edge">
<title>Fallback&#45;&gt;Sequence*</title>
<path fill="none" stroke="black" d="M172.04,-359.7C172.04,-351.98 172.04,-342.71 172.04,-334.11"/>
<polygon fill="black" stroke="black" points="175.54,-334.1 172.04,-324.1 168.54,-334.1 175.54,-334.1"/>
</g>
<!-- pick 0! -->
<g id="node5" class="node">
<title>pick 0!</title>
<ellipse fill="gray" stroke="black" cx="121.04" cy="-234" rx="27" ry="18"/>
<text text-anchor="middle" x="121.04" y="-231.8" font-family="Times,serif" font-size="9.00">pick 0!</text>
</g>
<!-- Sequence*&#45;&gt;pick 0! -->
<g id="edge4" class="edge">
<title>Sequence*&#45;&gt;pick 0!</title>
<path fill="none" stroke="black" d="M159.44,-287.7C153.11,-279.02 145.36,-268.37 138.47,-258.92"/>
<polygon fill="black" stroke="black" points="141.18,-256.69 132.46,-250.67 135.52,-260.81 141.18,-256.69"/>
</g>
<!-- place at (0.0, 0.05, 0.0)! -->
<g id="node6" class="node">
<title>place at (0.0, 0.05, 0.0)!</title>
<ellipse fill="gray" stroke="black" cx="224.04" cy="-234" rx="58.13" ry="18"/>
<text text-anchor="middle" x="224.04" y="-231.8" font-family="Times,serif" font-size="9.00">place at (0.0, 0.05, 0.0)!</text>
</g>
<!-- Sequence*&#45;&gt;place at (0.0, 0.05, 0.0)! -->
<g id="edge5" class="edge">
<title>Sequence*&#45;&gt;place at (0.0, 0.05, 0.0)!</title>
<path fill="none" stroke="black" d="M184.9,-287.7C191.16,-279.27 198.81,-268.97 205.67,-259.73"/>
<polygon fill="black" stroke="black" points="208.54,-261.74 211.7,-251.62 202.92,-257.56 208.54,-261.74"/>
</g>
<!-- 1 at pos (0.0, 0.05, 0.0192)? -->
<g id="node8" class="node">
<title>1 at pos (0.0, 0.05, 0.0192)?</title>
<ellipse fill="gray" stroke="black" cx="292.04" cy="-306" rx="67.6" ry="18"/>
<text text-anchor="middle" x="292.04" y="-303.8" font-family="Times,serif" font-size="9.00">1 at pos (0.0, 0.05, 0.0192)?</text>
</g>
<!-- Fallback*&#45;&gt;1 at pos (0.0, 0.05, 0.0192)? -->
<g id="edge7" class="edge">
<title>Fallback*&#45;&gt;1 at pos (0.0, 0.05, 0.0192)?</title>
<path fill="none" stroke="black" d="M410.91,-365.6C389.5,-355.04 357.2,-339.12 331.67,-326.54"/>
<polygon fill="black" stroke="black" points="333.13,-323.35 322.61,-322.07 330.03,-329.63 333.13,-323.35"/>
</g>
<!-- Sequence** -->
<g id="node9" class="node">
<title>Sequence**</title>
<polygon fill="cyan" stroke="black" points="450.79,-298.54 450.79,-313.46 429.26,-324 398.83,-324 377.3,-313.46 377.3,-298.54 398.83,-288 429.26,-288 450.79,-298.54"/>
<text text-anchor="middle" x="414.04" y="-303.8" font-family="Times,serif" font-size="9.00">Sequence**</text>
</g>
<!-- Fallback*&#45;&gt;Sequence** -->
<g id="edge8" class="edge">
<title>Fallback*&#45;&gt;Sequence**</title>
<path fill="none" stroke="black" d="M429.1,-359.7C426.87,-351.9 424.19,-342.51 421.71,-333.83"/>
<polygon fill="black" stroke="black" points="425.04,-332.76 418.93,-324.1 418.31,-334.68 425.04,-332.76"/>
</g>
<!-- place on 0!* -->
<g id="node19" class="node">
<title>place on 0!*</title>
<ellipse fill="gray" stroke="black" cx="504.04" cy="-306" rx="34.78" ry="18"/>
<text text-anchor="middle" x="504.04" y="-303.8" font-family="Times,serif" font-size="9.00">place on 0!*</text>
</g>
<!-- Fallback*&#45;&gt;place on 0!* -->
<g id="edge18" class="edge">
<title>Fallback*&#45;&gt;place on 0!*</title>
<path fill="none" stroke="black" d="M449.93,-361.12C459.28,-351.77 471.25,-339.79 481.56,-329.49"/>
<polygon fill="black" stroke="black" points="484.11,-331.89 488.7,-322.34 479.16,-326.94 484.11,-331.89"/>
</g>
<!-- Fallback** -->
<g id="node10" class="node">
<title>Fallback**</title>
<polygon fill="cyan" stroke="black" points="435.04,-226.54 435.04,-241.46 414.54,-252 385.55,-252 365.05,-241.46 365.05,-226.54 385.55,-216 414.54,-216 435.04,-226.54"/>
<text text-anchor="middle" x="400.04" y="-231.8" font-family="Times,serif" font-size="9.00">Fallback**</text>
</g>
<!-- Sequence**&#45;&gt;Fallback** -->
<g id="edge9" class="edge">
<title>Sequence**&#45;&gt;Fallback**</title>
<path fill="none" stroke="black" d="M410.58,-287.7C409.04,-279.98 407.19,-270.71 405.47,-262.11"/>
<polygon fill="black" stroke="black" points="408.86,-261.22 403.47,-252.1 401.99,-262.6 408.86,-261.22"/>
</g>
<!-- apply force 1! -->
<g id="node18" class="node">
<title>apply force 1!</title>
<ellipse fill="gray" stroke="black" cx="491.04" cy="-234" rx="38.21" ry="18"/>
<text text-anchor="middle" x="491.04" y="-231.8" font-family="Times,serif" font-size="9.00">apply force 1!</text>
</g>
<!-- Sequence**&#45;&gt;apply force 1! -->
<g id="edge17" class="edge">
<title>Sequence**&#45;&gt;apply force 1!</title>
<path fill="none" stroke="black" d="M431.9,-288.76C442.3,-279.31 455.55,-267.27 466.87,-256.98"/>
<polygon fill="black" stroke="black" points="469.29,-259.51 474.34,-250.19 464.58,-254.33 469.29,-259.51"/>
</g>
<!-- 1 on 0? -->
<g id="node11" class="node">
<title>1 on 0?</title>
<ellipse fill="gray" stroke="black" cx="357.04" cy="-162" rx="27" ry="18"/>
<text text-anchor="middle" x="357.04" y="-159.8" font-family="Times,serif" font-size="9.00">1 on 0?</text>
</g>
<!-- Fallback**&#45;&gt;1 on 0? -->
<g id="edge10" class="edge">
<title>Fallback**&#45;&gt;1 on 0?</title>
<path fill="none" stroke="black" d="M389.42,-215.7C384.27,-207.32 377.99,-197.1 372.34,-187.9"/>
<polygon fill="black" stroke="black" points="375.18,-185.83 366.96,-179.14 369.21,-189.5 375.18,-185.83"/>
</g>
<!-- Sequence*** -->
<g id="node12" class="node">
<title>Sequence***</title>
<polygon fill="cyan" stroke="black" points="482.03,-154.54 482.03,-169.46 458.61,-180 425.48,-180 402.05,-169.46 402.05,-154.54 425.48,-144 458.61,-144 482.03,-154.54"/>
<text text-anchor="middle" x="442.04" y="-159.8" font-family="Times,serif" font-size="9.00">Sequence***</text>
</g>
<!-- Fallback**&#45;&gt;Sequence*** -->
<g id="edge11" class="edge">
<title>Fallback**&#45;&gt;Sequence***</title>
<path fill="none" stroke="black" d="M410.43,-215.7C415.31,-207.56 421.23,-197.69 426.62,-188.7"/>
<polygon fill="black" stroke="black" points="429.64,-190.48 431.78,-180.1 423.64,-186.88 429.64,-190.48"/>
</g>
<!-- Fallback*** -->
<g id="node13" class="node">
<title>Fallback***</title>
<polygon fill="cyan" stroke="black" points="397.53,-82.54 397.53,-97.46 375.57,-108 344.52,-108 322.55,-97.46 322.55,-82.54 344.52,-72 375.57,-72 397.53,-82.54"/>
<text text-anchor="middle" x="360.04" y="-87.8" font-family="Times,serif" font-size="9.00">Fallback***</text>
</g>
<!-- Sequence***&#45;&gt;Fallback*** -->
<g id="edge12" class="edge">
<title>Sequence***&#45;&gt;Fallback***</title>
<path fill="none" stroke="black" d="M423.03,-144.76C412.11,-135.45 398.24,-123.61 386.3,-113.41"/>
<polygon fill="black" stroke="black" points="388.27,-110.5 378.4,-106.67 383.73,-115.82 388.27,-110.5"/>
</g>
<!-- pick 1! -->
<g id="node16" class="node">
<title>pick 1!</title>
<ellipse fill="gray" stroke="black" cx="442.04" cy="-90" rx="27" ry="18"/>
<text text-anchor="middle" x="442.04" y="-87.8" font-family="Times,serif" font-size="9.00">pick 1!</text>
</g>
<!-- Sequence***&#45;&gt;pick 1! -->
<g id="edge15" class="edge">
<title>Sequence***&#45;&gt;pick 1!</title>
<path fill="none" stroke="black" d="M442.04,-143.7C442.04,-135.98 442.04,-126.71 442.04,-118.11"/>
<polygon fill="black" stroke="black" points="445.54,-118.1 442.04,-108.1 438.54,-118.1 445.54,-118.1"/>
</g>
<!-- place on 0! -->
<g id="node17" class="node">
<title>place on 0!</title>
<ellipse fill="gray" stroke="black" cx="519.04" cy="-90" rx="32.16" ry="18"/>
<text text-anchor="middle" x="519.04" y="-87.8" font-family="Times,serif" font-size="9.00">place on 0!</text>
</g>
<!-- Sequence***&#45;&gt;place on 0! -->
<g id="edge16" class="edge">
<title>Sequence***&#45;&gt;place on 0!</title>
<path fill="none" stroke="black" d="M460.29,-144.41C470.77,-134.88 484.05,-122.81 495.33,-112.56"/>
<polygon fill="black" stroke="black" points="497.72,-115.12 502.76,-105.8 493.01,-109.94 497.72,-115.12"/>
</g>
<!-- picked 2? -->
<g id="node14" class="node">
<title>picked 2?</title>
<ellipse fill="gray" stroke="black" cx="323.04" cy="-18" rx="28.74" ry="18"/>
<text text-anchor="middle" x="323.04" y="-15.8" font-family="Times,serif" font-size="9.00">picked 2?</text>
</g>
<!-- Fallback***&#45;&gt;picked 2? -->
<g id="edge13" class="edge">
<title>Fallback***&#45;&gt;picked 2?</title>
<path fill="none" stroke="black" d="M350.9,-71.7C346.58,-63.52 341.33,-53.6 336.57,-44.58"/>
<polygon fill="black" stroke="black" points="339.6,-42.83 331.83,-35.62 333.41,-46.1 339.6,-42.83"/>
</g>
<!-- pick 2! -->
<g id="node15" class="node">
<title>pick 2!</title>
<ellipse fill="gray" stroke="black" cx="397.04" cy="-18" rx="27" ry="18"/>
<text text-anchor="middle" x="397.04" y="-15.8" font-family="Times,serif" font-size="9.00">pick 2!</text>
</g>
<!-- Fallback***&#45;&gt;pick 2! -->
<g id="edge14" class="edge">
<title>Fallback***&#45;&gt;pick 2!</title>
<path fill="none" stroke="black" d="M369.19,-71.7C373.57,-63.4 378.91,-53.31 383.73,-44.19"/>
<polygon fill="black" stroke="black" points="386.93,-45.62 388.51,-35.14 380.74,-42.35 386.93,-45.62"/>
</g>
<!-- 2 on 1? -->
<g id="node21" class="node">
<title>2 on 1?</title>
<ellipse fill="gray" stroke="black" cx="584.04" cy="-306" rx="27" ry="18"/>
<text text-anchor="middle" x="584.04" y="-303.8" font-family="Times,serif" font-size="9.00">2 on 1?</text>
</g>
<!-- Fallback****&#45;&gt;2 on 1? -->
<g id="edge20" class="edge">
<title>Fallback****&#45;&gt;2 on 1?</title>
<path fill="none" stroke="black" d="M568.99,-359.7C571.22,-351.9 573.9,-342.51 576.38,-333.83"/>
<polygon fill="black" stroke="black" points="579.78,-334.68 579.16,-324.1 573.04,-332.76 579.78,-334.68"/>
</g>
<!-- Sequence**** -->
<g id="node22" class="node">
<title>Sequence****</title>
<polygon fill="cyan" stroke="black" points="713.53,-298.54 713.53,-313.46 688.64,-324 653.44,-324 628.56,-313.46 628.56,-298.54 653.44,-288 688.64,-288 713.53,-298.54"/>
<text text-anchor="middle" x="671.04" y="-303.8" font-family="Times,serif" font-size="9.00">Sequence****</text>
</g>
<!-- Fallback****&#45;&gt;Sequence**** -->
<g id="edge21" class="edge">
<title>Fallback****&#45;&gt;Sequence****</title>
<path fill="none" stroke="black" d="M586.48,-362.33C601.92,-352.22 622.66,-338.66 639.73,-327.49"/>
<polygon fill="black" stroke="black" points="641.82,-330.3 648.27,-321.9 637.99,-324.44 641.82,-330.3"/>
</g>
<!-- pick 2!* -->
<g id="node23" class="node">
<title>pick 2!*</title>
<ellipse fill="gray" stroke="black" cx="632.04" cy="-234" rx="27" ry="18"/>
<text text-anchor="middle" x="632.04" y="-231.8" font-family="Times,serif" font-size="9.00">pick 2!*</text>
</g>
<!-- Sequence****&#45;&gt;pick 2!* -->
<g id="edge22" class="edge">
<title>Sequence****&#45;&gt;pick 2!*</title>
<path fill="none" stroke="black" d="M661.4,-287.7C656.73,-279.32 651.04,-269.1 645.92,-259.9"/>
<polygon fill="black" stroke="black" points="648.96,-258.18 641.04,-251.14 642.85,-261.58 648.96,-258.18"/>
</g>
<!-- place on 1! -->
<g id="node24" class="node">
<title>place on 1!</title>
<ellipse fill="gray" stroke="black" cx="709.04" cy="-234" rx="32.16" ry="18"/>
<text text-anchor="middle" x="709.04" y="-231.8" font-family="Times,serif" font-size="9.00">place on 1!</text>
</g>
<!-- Sequence****&#45;&gt;place on 1! -->
<g id="edge23" class="edge">
<title>Sequence****&#45;&gt;place on 1!</title>
<path fill="none" stroke="black" d="M680.44,-287.7C684.87,-279.52 690.26,-269.6 695.16,-260.58"/>
<polygon fill="black" stroke="black" points="698.33,-262.08 700.02,-251.62 692.17,-258.74 698.33,-262.08"/>
</g>
</g>
</svg>
