<?xml version="1.0" encoding="UTF-8" standalone="no"?>
<!DOCTYPE svg PUBLIC "-//W3C//DTD SVG 1.1//EN"
 "http://www.w3.org/Graphics/SVG/1.1/DTD/svg11.dtd">
<!-- Generated by graphviz version 2.43.0 (0)
 -->
<!-- Title: pastafarianism Pages: 1 -->
<svg width="1551pt" height="548pt"
 viewBox="0.00 0.00 1550.99 548.00" xmlns="http://www.w3.org/2000/svg" xmlns:xlink="http://www.w3.org/1999/xlink">
<g id="graph0" class="graph" transform="scale(1 1) rotate(0) translate(4 544)">
<title>pastafarianism</title>
<polygon fill="white" stroke="transparent" points="-4,4 -4,-544 1546.99,-544 1546.99,4 -4,4"/>
<!-- Sequence -->
<g id="node1" class="node">
<title>Sequence</title>
<polygon fill="cyan" stroke="black" points="815.44,-514.54 815.44,-529.46 797,-540 770.91,-540 752.46,-529.46 752.46,-514.54 770.91,-504 797,-504 815.44,-514.54"/>
<text text-anchor="middle" x="783.95" y="-519.8" font-family="Times,serif" font-size="9.00">Sequence</text>
</g>
<!-- Fallback -->
<g id="node2" class="node">
<title>Fallback</title>
<polygon fill="cyan" stroke="black" points="813.19,-442.54 813.19,-457.46 796.06,-468 771.84,-468 754.71,-457.46 754.71,-442.54 771.84,-432 796.06,-432 813.19,-442.54"/>
<text text-anchor="middle" x="783.95" y="-447.8" font-family="Times,serif" font-size="9.00">Fallback</text>
</g>
<!-- Sequence&#45;&gt;Fallback -->
<g id="edge1" class="edge">
<title>Sequence&#45;&gt;Fallback</title>
<path fill="none" stroke="black" d="M783.95,-503.7C783.95,-495.98 783.95,-486.71 783.95,-478.11"/>
<polygon fill="black" stroke="black" points="787.45,-478.1 783.95,-468.1 780.45,-478.1 787.45,-478.1"/>
</g>
<!-- Sequence* -->
<g id="node3" class="node">
<title>Sequence*</title>
<polygon fill="cyan" stroke="black" points="554.19,-370.54 554.19,-385.46 534.13,-396 505.77,-396 485.71,-385.46 485.71,-370.54 505.77,-360 534.13,-360 554.19,-370.54"/>
<text text-anchor="middle" x="519.95" y="-375.8" font-family="Times,serif" font-size="9.00">Sequence*</text>
</g>
<!-- Fallback&#45;&gt;Sequence* -->
<g id="edge2" class="edge">
<title>Fallback&#45;&gt;Sequence*</title>
<path fill="none" stroke="black" d="M755.7,-441.51C708.96,-429.12 615.35,-404.3 561.21,-389.94"/>
<polygon fill="black" stroke="black" points="561.82,-386.48 551.26,-387.3 560.02,-393.25 561.82,-386.48"/>
</g>
<!-- Sequence***** -->
<g id="node28" class="node">
<title>Sequence*****</title>
<polygon fill="cyan" stroke="black" points="1136.69,-370.54 1136.69,-385.46 1109.9,-396 1072,-396 1045.21,-385.46 1045.21,-370.54 1072,-360 1109.9,-360 1136.69,-370.54"/>
<text text-anchor="middle" x="1090.95" y="-375.8" font-family="Times,serif" font-size="9.00">Sequence*****</text>
</g>
<!-- Fallback&#45;&gt;Sequence***** -->
<g id="edge27" class="edge">
<title>Fallback&#45;&gt;Sequence*****</title>
<path fill="none" stroke="black" d="M813.11,-442.35C865.68,-430.37 976.86,-405.01 1041.51,-390.27"/>
<polygon fill="black" stroke="black" points="1042.5,-393.64 1051.47,-388 1040.94,-386.81 1042.5,-393.64"/>
</g>
<!-- ReachGoal? -->
<g id="node4" class="node">
<title>ReachGoal?</title>
<ellipse fill="gray" stroke="black" cx="274.95" cy="-306" rx="34.13" ry="18"/>
<text text-anchor="middle" x="274.95" y="-303.8" font-family="Times,serif" font-size="9.00">ReachGoal?</text>
</g>
<!-- Sequence*&#45;&gt;ReachGoal? -->
<g id="edge3" class="edge">
<title>Sequence*&#45;&gt;ReachGoal?</title>
<path fill="none" stroke="black" d="M487.06,-369.65C446.79,-360.36 376.7,-343.24 317.95,-324 315.55,-323.21 313.08,-322.36 310.61,-321.48"/>
<polygon fill="black" stroke="black" points="311.74,-318.16 301.15,-317.93 309.29,-324.72 311.74,-318.16"/>
</g>
<!-- NotReadyForSG? -->
<g id="node5" class="node">
<title>NotReadyForSG?</title>
<ellipse fill="gray" stroke="black" cx="373.95" cy="-306" rx="46.53" ry="18"/>
<text text-anchor="middle" x="373.95" y="-303.8" font-family="Times,serif" font-size="9.00">NotReadyForSG?</text>
</g>
<!-- Sequence*&#45;&gt;NotReadyForSG? -->
<g id="edge4" class="edge">
<title>Sequence*&#45;&gt;NotReadyForSG?</title>
<path fill="none" stroke="black" d="M495.51,-365.28C472.52,-354.26 437.77,-337.6 411.3,-324.91"/>
<polygon fill="black" stroke="black" points="412.49,-321.6 401.96,-320.43 409.47,-327.91 412.49,-321.6"/>
</g>
<!-- GetSubGoal! -->
<g id="node6" class="node">
<title>GetSubGoal!</title>
<ellipse fill="gray" stroke="black" cx="475.95" cy="-306" rx="36.9" ry="18"/>
<text text-anchor="middle" x="475.95" y="-303.8" font-family="Times,serif" font-size="9.00">GetSubGoal!</text>
</g>
<!-- Sequence*&#45;&gt;GetSubGoal! -->
<g id="edge5" class="edge">
<title>Sequence*&#45;&gt;GetSubGoal!</title>
<path fill="none" stroke="black" d="M509.07,-359.7C503.88,-351.44 497.57,-341.39 491.85,-332.3"/>
<polygon fill="black" stroke="black" points="494.68,-330.23 486.4,-323.62 488.76,-333.95 494.68,-330.23"/>
</g>
<!-- Fallback* -->
<g id="node7" class="node">
<title>Fallback*</title>
<polygon fill="cyan" stroke="black" points="594.69,-298.54 594.69,-313.46 576.1,-324 549.8,-324 531.21,-313.46 531.21,-298.54 549.8,-288 576.1,-288 594.69,-298.54"/>
<text text-anchor="middle" x="562.95" y="-303.8" font-family="Times,serif" font-size="9.00">Fallback*</text>
</g>
<!-- Sequence*&#45;&gt;Fallback* -->
<g id="edge6" class="edge">
<title>Sequence*&#45;&gt;Fallback*</title>
<path fill="none" stroke="black" d="M530.58,-359.7C535.58,-351.56 541.64,-341.69 547.16,-332.7"/>
<polygon fill="black" stroke="black" points="550.19,-334.46 552.44,-324.1 544.23,-330.79 550.19,-334.46"/>
</g>
<!-- Fallback*** -->
<g id="node25" class="node">
<title>Fallback***</title>
<polygon fill="cyan" stroke="black" points="693.44,-298.54 693.44,-313.46 671.48,-324 640.42,-324 618.46,-313.46 618.46,-298.54 640.42,-288 671.48,-288 693.44,-298.54"/>
<text text-anchor="middle" x="655.95" y="-303.8" font-family="Times,serif" font-size="9.00">Fallback***</text>
</g>
<!-- Sequence*&#45;&gt;Fallback*** -->
<g id="edge24" class="edge">
<title>Sequence*&#45;&gt;Fallback***</title>
<path fill="none" stroke="black" d="M543.64,-364.81C565.37,-353.62 597.79,-336.94 622.22,-324.36"/>
<polygon fill="black" stroke="black" points="623.86,-327.45 631.15,-319.76 620.66,-321.23 623.86,-327.45"/>
</g>
<!-- Sequence** -->
<g id="node8" class="node">
<title>Sequence**</title>
<polygon fill="cyan" stroke="black" points="423.69,-226.54 423.69,-241.46 402.17,-252 371.73,-252 350.21,-241.46 350.21,-226.54 371.73,-216 402.17,-216 423.69,-226.54"/>
<text text-anchor="middle" x="386.95" y="-231.8" font-family="Times,serif" font-size="9.00">Sequence**</text>
</g>
<!-- Fallback*&#45;&gt;Sequence** -->
<g id="edge7" class="edge">
<title>Fallback*&#45;&gt;Sequence**</title>
<path fill="none" stroke="black" d="M537.83,-294.5C532.59,-292.33 527.1,-290.08 521.95,-288 489.09,-274.74 451.57,-260.04 424.43,-249.5"/>
<polygon fill="black" stroke="black" points="425.52,-246.17 414.94,-245.81 422.99,-252.69 425.52,-246.17"/>
</g>
<!-- LkGraph? -->
<g id="node21" class="node">
<title>LkGraph?</title>
<ellipse fill="gray" stroke="black" cx="471.95" cy="-234" rx="30.7" ry="18"/>
<text text-anchor="middle" x="471.95" y="-231.8" font-family="Times,serif" font-size="9.00">LkGraph?</text>
</g>
<!-- Fallback*&#45;&gt;LkGraph? -->
<g id="edge20" class="edge">
<title>Fallback*&#45;&gt;LkGraph?</title>
<path fill="none" stroke="black" d="M544.54,-290.83C531.16,-280.55 512.89,-266.49 498.02,-255.05"/>
<polygon fill="black" stroke="black" points="499.78,-251.99 489.72,-248.67 495.51,-257.54 499.78,-251.99"/>
</g>
<!-- Sequence**** -->
<g id="node22" class="node">
<title>Sequence****</title>
<polygon fill="cyan" stroke="black" points="605.44,-226.54 605.44,-241.46 580.55,-252 545.35,-252 520.46,-241.46 520.46,-226.54 545.35,-216 580.55,-216 605.44,-226.54"/>
<text text-anchor="middle" x="562.95" y="-231.8" font-family="Times,serif" font-size="9.00">Sequence****</text>
</g>
<!-- Fallback*&#45;&gt;Sequence**** -->
<g id="edge21" class="edge">
<title>Fallback*&#45;&gt;Sequence****</title>
<path fill="none" stroke="black" d="M562.95,-287.7C562.95,-279.98 562.95,-270.71 562.95,-262.11"/>
<polygon fill="black" stroke="black" points="566.45,-262.1 562.95,-252.1 559.45,-262.1 566.45,-262.1"/>
</g>
<!-- Fallback** -->
<g id="node9" class="node">
<title>Fallback**</title>
<polygon fill="cyan" stroke="black" points="382.94,-154.54 382.94,-169.46 362.44,-180 333.46,-180 312.96,-169.46 312.96,-154.54 333.46,-144 362.44,-144 382.94,-154.54"/>
<text text-anchor="middle" x="347.95" y="-159.8" font-family="Times,serif" font-size="9.00">Fallback**</text>
</g>
<!-- Sequence**&#45;&gt;Fallback** -->
<g id="edge8" class="edge">
<title>Sequence**&#45;&gt;Fallback**</title>
<path fill="none" stroke="black" d="M377.31,-215.7C372.82,-207.64 367.39,-197.89 362.43,-188.98"/>
<polygon fill="black" stroke="black" points="365.4,-187.14 357.48,-180.1 359.29,-190.54 365.4,-187.14"/>
</g>
<!-- MoveTo!* -->
<g id="node20" class="node">
<title>MoveTo!*</title>
<ellipse fill="gray" stroke="black" cx="432.95" cy="-162" rx="31.51" ry="18"/>
<text text-anchor="middle" x="432.95" y="-159.8" font-family="Times,serif" font-size="9.00">MoveTo!*</text>
</g>
<!-- Sequence**&#45;&gt;MoveTo!* -->
<g id="edge19" class="edge">
<title>Sequence**&#45;&gt;MoveTo!*</title>
<path fill="none" stroke="black" d="M398.32,-215.7C403.89,-207.23 410.68,-196.89 416.78,-187.61"/>
<polygon fill="black" stroke="black" points="419.77,-189.42 422.34,-179.14 413.92,-185.58 419.77,-189.42"/>
</g>
<!-- ReachGoal?* -->
<g id="node10" class="node">
<title>ReachGoal?*</title>
<ellipse fill="gray" stroke="black" cx="36.95" cy="-90" rx="36.9" ry="18"/>
<text text-anchor="middle" x="36.95" y="-87.8" font-family="Times,serif" font-size="9.00">ReachGoal?*</text>
</g>
<!-- Fallback**&#45;&gt;ReachGoal?* -->
<g id="edge9" class="edge">
<title>Fallback**&#45;&gt;ReachGoal?*</title>
<path fill="none" stroke="black" d="M312.81,-155.77C261.67,-147.76 163.99,-130.93 82.95,-108 80.19,-107.22 77.35,-106.35 74.51,-105.42"/>
<polygon fill="black" stroke="black" points="75.53,-102.07 64.94,-102.14 73.26,-108.69 75.53,-102.07"/>
</g>
<!-- NotReadyForSG?* -->
<g id="node11" class="node">
<title>NotReadyForSG?*</title>
<ellipse fill="gray" stroke="black" cx="141.95" cy="-90" rx="49.8" ry="18"/>
<text text-anchor="middle" x="141.95" y="-87.8" font-family="Times,serif" font-size="9.00">NotReadyForSG?*</text>
</g>
<!-- Fallback**&#45;&gt;NotReadyForSG?* -->
<g id="edge10" class="edge">
<title>Fallback**&#45;&gt;NotReadyForSG?*</title>
<path fill="none" stroke="black" d="M319.31,-151.27C284.89,-139.57 226.75,-119.82 186.47,-106.13"/>
<polygon fill="black" stroke="black" points="187.48,-102.78 176.89,-102.87 185.23,-109.4 187.48,-102.78"/>
</g>
<!-- GetSubGoal!* -->
<g id="node12" class="node">
<title>GetSubGoal!*</title>
<ellipse fill="gray" stroke="black" cx="248.95" cy="-90" rx="39.02" ry="18"/>
<text text-anchor="middle" x="248.95" y="-87.8" font-family="Times,serif" font-size="9.00">GetSubGoal!*</text>
</g>
<!-- Fallback**&#45;&gt;GetSubGoal!* -->
<g id="edge11" class="edge">
<title>Fallback**&#45;&gt;GetSubGoal!*</title>
<path fill="none" stroke="black" d="M327.92,-146.83C313.61,-136.72 294.15,-122.96 278.13,-111.63"/>
<polygon fill="black" stroke="black" points="279.82,-108.54 269.64,-105.63 275.78,-114.26 279.82,-108.54"/>
</g>
<!-- GetSubGoal!** -->
<g id="node13" class="node">
<title>GetSubGoal!**</title>
<ellipse fill="gray" stroke="black" cx="347.95" cy="-90" rx="42.29" ry="18"/>
<text text-anchor="middle" x="347.95" y="-87.8" font-family="Times,serif" font-size="9.00">GetSubGoal!**</text>
</g>
<!-- Fallback**&#45;&gt;GetSubGoal!** -->
<g id="edge12" class="edge">
<title>Fallback**&#45;&gt;GetSubGoal!**</title>
<path fill="none" stroke="black" d="M347.95,-143.7C347.95,-135.98 347.95,-126.71 347.95,-118.11"/>
<polygon fill="black" stroke="black" points="351.45,-118.1 347.95,-108.1 344.45,-118.1 351.45,-118.1"/>
</g>
<!-- NotReadyForSG?** -->
<g id="node14" class="node">
<title>NotReadyForSG?**</title>
<ellipse fill="gray" stroke="black" cx="459.95" cy="-90" rx="51.92" ry="18"/>
<text text-anchor="middle" x="459.95" y="-87.8" font-family="Times,serif" font-size="9.00">NotReadyForSG?**</text>
</g>
<!-- Fallback**&#45;&gt;NotReadyForSG?** -->
<g id="edge13" class="edge">
<title>Fallback**&#45;&gt;NotReadyForSG?**</title>
<path fill="none" stroke="black" d="M369.55,-147.5C385.82,-137.33 408.44,-123.2 426.97,-111.61"/>
<polygon fill="black" stroke="black" points="429.07,-114.42 435.7,-106.16 425.36,-108.49 429.07,-114.42"/>
</g>
<!-- GetSubGoal!*** -->
<g id="node15" class="node">
<title>GetSubGoal!***</title>
<ellipse fill="gray" stroke="black" cx="573.95" cy="-90" rx="44.41" ry="18"/>
<text text-anchor="middle" x="573.95" y="-87.8" font-family="Times,serif" font-size="9.00">GetSubGoal!***</text>
</g>
<!-- Fallback**&#45;&gt;GetSubGoal!*** -->
<g id="edge14" class="edge">
<title>Fallback**&#45;&gt;GetSubGoal!***</title>
<path fill="none" stroke="black" d="M374.79,-150.16C380.43,-148.01 386.35,-145.86 391.95,-144 448.44,-125.25 463.93,-125.09 520.95,-108 524.1,-107.06 527.34,-106.06 530.61,-105.05"/>
<polygon fill="black" stroke="black" points="531.87,-108.32 540.37,-101.99 529.78,-101.64 531.87,-108.32"/>
</g>
<!-- Sequence*** -->
<g id="node16" class="node">
<title>Sequence***</title>
<polygon fill="cyan" stroke="black" points="715.94,-82.54 715.94,-97.46 692.51,-108 659.39,-108 635.96,-97.46 635.96,-82.54 659.39,-72 692.51,-72 715.94,-82.54"/>
<text text-anchor="middle" x="675.95" y="-87.8" font-family="Times,serif" font-size="9.00">Sequence***</text>
</g>
<!-- Fallback**&#45;&gt;Sequence*** -->
<g id="edge15" class="edge">
<title>Fallback**&#45;&gt;Sequence***</title>
<path fill="none" stroke="black" d="M374.17,-149.81C379.95,-147.64 386.09,-145.56 391.95,-144 494.05,-116.8 524.39,-133.42 626.95,-108 630.14,-107.21 633.42,-106.3 636.69,-105.32"/>
<polygon fill="black" stroke="black" points="637.95,-108.59 646.41,-102.22 635.82,-101.92 637.95,-108.59"/>
</g>
<!-- LkClose? -->
<g id="node17" class="node">
<title>LkClose?</title>
<ellipse fill="gray" stroke="black" cx="599.95" cy="-18" rx="28.74" ry="18"/>
<text text-anchor="middle" x="599.95" y="-15.8" font-family="Times,serif" font-size="9.00">LkClose?</text>
</g>
<!-- Sequence***&#45;&gt;LkClose? -->
<g id="edge16" class="edge">
<title>Sequence***&#45;&gt;LkClose?</title>
<path fill="none" stroke="black" d="M657.94,-72.41C647.45,-62.75 634.13,-50.48 622.9,-40.14"/>
<polygon fill="black" stroke="black" points="625.24,-37.54 615.52,-33.34 620.5,-42.69 625.24,-37.54"/>
</g>
<!-- MoveTo! -->
<g id="node18" class="node">
<title>MoveTo!</title>
<ellipse fill="gray" stroke="black" cx="675.95" cy="-18" rx="28.74" ry="18"/>
<text text-anchor="middle" x="675.95" y="-15.8" font-family="Times,serif" font-size="9.00">MoveTo!</text>
</g>
<!-- Sequence***&#45;&gt;MoveTo! -->
<g id="edge17" class="edge">
<title>Sequence***&#45;&gt;MoveTo!</title>
<path fill="none" stroke="black" d="M675.95,-71.7C675.95,-63.98 675.95,-54.71 675.95,-46.11"/>
<polygon fill="black" stroke="black" points="679.45,-46.1 675.95,-36.1 672.45,-46.1 679.45,-46.1"/>
</g>
<!-- CompLkGraph! -->
<g id="node19" class="node">
<title>CompLkGraph!</title>
<ellipse fill="gray" stroke="black" cx="765.95" cy="-18" rx="42.95" ry="18"/>
<text text-anchor="middle" x="765.95" y="-15.8" font-family="Times,serif" font-size="9.00">CompLkGraph!</text>
</g>
<!-- Sequence***&#45;&gt;CompLkGraph! -->
<g id="edge18" class="edge">
<title>Sequence***&#45;&gt;CompLkGraph!</title>
<path fill="none" stroke="black" d="M695.92,-73.46C708.36,-63.79 724.54,-51.21 738.21,-40.58"/>
<polygon fill="black" stroke="black" points="740.6,-43.15 746.34,-34.25 736.3,-37.63 740.6,-43.15"/>
</g>
<!-- GetLk! -->
<g id="node23" class="node">
<title>GetLk!</title>
<ellipse fill="gray" stroke="black" cx="535.95" cy="-162" rx="27" ry="18"/>
<text text-anchor="middle" x="535.95" y="-159.8" font-family="Times,serif" font-size="9.00">GetLk!</text>
</g>
<!-- Sequence****&#45;&gt;GetLk! -->
<g id="edge22" class="edge">
<title>Sequence****&#45;&gt;GetLk!</title>
<path fill="none" stroke="black" d="M556.28,-215.7C553.19,-207.7 549.46,-198.02 546.04,-189.15"/>
<polygon fill="black" stroke="black" points="549.23,-187.69 542.36,-179.62 542.7,-190.21 549.23,-187.69"/>
</g>
<!-- GetSubGoal!**** -->
<g id="node24" class="node">
<title>GetSubGoal!****</title>
<ellipse fill="gray" stroke="black" cx="627.95" cy="-162" rx="47.19" ry="18"/>
<text text-anchor="middle" x="627.95" y="-159.8" font-family="Times,serif" font-size="9.00">GetSubGoal!****</text>
</g>
<!-- Sequence****&#45;&gt;GetSubGoal!**** -->
<g id="edge23" class="edge">
<title>Sequence****&#45;&gt;GetSubGoal!****</title>
<path fill="none" stroke="black" d="M579.02,-215.7C587.12,-206.97 597.08,-196.24 605.89,-186.75"/>
<polygon fill="black" stroke="black" points="608.72,-188.85 612.96,-179.14 603.59,-184.09 608.72,-188.85"/>
</g>
<!-- LkGraph?* -->
<g id="node26" class="node">
<title>LkGraph?*</title>
<ellipse fill="gray" stroke="black" cx="655.95" cy="-234" rx="32.82" ry="18"/>
<text text-anchor="middle" x="655.95" y="-231.8" font-family="Times,serif" font-size="9.00">LkGraph?*</text>
</g>
<!-- Fallback***&#45;&gt;LkGraph?* -->
<g id="edge25" class="edge">
<title>Fallback***&#45;&gt;LkGraph?*</title>
<path fill="none" stroke="black" d="M655.95,-287.7C655.95,-279.98 655.95,-270.71 655.95,-262.11"/>
<polygon fill="black" stroke="black" points="659.45,-262.1 655.95,-252.1 652.45,-262.1 659.45,-262.1"/>
</g>
<!-- MoveTo!** -->
<g id="node27" class="node">
<title>MoveTo!**</title>
<ellipse fill="gray" stroke="black" cx="740.95" cy="-234" rx="34.13" ry="18"/>
<text text-anchor="middle" x="740.95" y="-231.8" font-family="Times,serif" font-size="9.00">MoveTo!**</text>
</g>
<!-- Fallback***&#45;&gt;MoveTo!** -->
<g id="edge26" class="edge">
<title>Fallback***&#45;&gt;MoveTo!**</title>
<path fill="none" stroke="black" d="M674.81,-289.46C686.8,-279.59 702.47,-266.69 715.55,-255.92"/>
<polygon fill="black" stroke="black" points="717.81,-258.59 723.3,-249.54 713.36,-253.19 717.81,-258.59"/>
</g>
<!-- Fallback**** -->
<g id="node29" class="node">
<title>Fallback****</title>
<polygon fill="cyan" stroke="black" points="1131.69,-298.54 1131.69,-313.46 1107.83,-324 1074.08,-324 1050.21,-313.46 1050.21,-298.54 1074.08,-288 1107.83,-288 1131.69,-298.54"/>
<text text-anchor="middle" x="1090.95" y="-303.8" font-family="Times,serif" font-size="9.00">Fallback****</text>
</g>
<!-- Sequence*****&#45;&gt;Fallback**** -->
<g id="edge28" class="edge">
<title>Sequence*****&#45;&gt;Fallback****</title>
<path fill="none" stroke="black" d="M1090.95,-359.7C1090.95,-351.98 1090.95,-342.71 1090.95,-334.11"/>
<polygon fill="black" stroke="black" points="1094.45,-334.1 1090.95,-324.1 1087.45,-334.1 1094.45,-334.1"/>
</g>
<!-- MoveTo!*** -->
<g id="node36" class="node">
<title>MoveTo!***</title>
<ellipse fill="gray" stroke="black" cx="1186.95" cy="-306" rx="36.9" ry="18"/>
<text text-anchor="middle" x="1186.95" y="-303.8" font-family="Times,serif" font-size="9.00">MoveTo!***</text>
</g>
<!-- Sequence*****&#45;&gt;MoveTo!*** -->
<g id="edge35" class="edge">
<title>Sequence*****&#45;&gt;MoveTo!***</title>
<path fill="none" stroke="black" d="M1112.73,-361.12C1126.42,-351.13 1144.21,-338.16 1158.95,-327.42"/>
<polygon fill="black" stroke="black" points="1161.19,-330.11 1167.21,-321.39 1157.07,-324.46 1161.19,-330.11"/>
</g>
<!-- NotReadyForSG?*** -->
<g id="node30" class="node">
<title>NotReadyForSG?***</title>
<ellipse fill="gray" stroke="black" cx="847.95" cy="-234" rx="54.7" ry="18"/>
<text text-anchor="middle" x="847.95" y="-231.8" font-family="Times,serif" font-size="9.00">NotReadyForSG?***</text>
</g>
<!-- Fallback****&#45;&gt;NotReadyForSG?*** -->
<g id="edge29" class="edge">
<title>Fallback****&#45;&gt;NotReadyForSG?***</title>
<path fill="none" stroke="black" d="M1057.42,-295.34C1016.09,-283.44 945.5,-263.1 897.81,-249.36"/>
<polygon fill="black" stroke="black" points="898.58,-245.94 888,-246.54 896.64,-252.67 898.58,-245.94"/>
</g>
<!-- GetSubGoal!***** -->
<g id="node31" class="node">
<title>GetSubGoal!*****</title>
<ellipse fill="gray" stroke="black" cx="970.95" cy="-234" rx="49.8" ry="18"/>
<text text-anchor="middle" x="970.95" y="-231.8" font-family="Times,serif" font-size="9.00">GetSubGoal!*****</text>
</g>
<!-- Fallback****&#45;&gt;GetSubGoal!***** -->
<g id="edge30" class="edge">
<title>Fallback****&#45;&gt;GetSubGoal!*****</title>
<path fill="none" stroke="black" d="M1066.96,-291C1049.16,-280.62 1024.66,-266.33 1004.87,-254.79"/>
<polygon fill="black" stroke="black" points="1006.55,-251.71 996.15,-249.7 1003.02,-257.76 1006.55,-251.71"/>
</g>
<!-- GetSubGoal!****** -->
<g id="node32" class="node">
<title>GetSubGoal!******</title>
<ellipse fill="gray" stroke="black" cx="1090.95" cy="-234" rx="52.58" ry="18"/>
<text text-anchor="middle" x="1090.95" y="-231.8" font-family="Times,serif" font-size="9.00">GetSubGoal!******</text>
</g>
<!-- Fallback****&#45;&gt;GetSubGoal!****** -->
<g id="edge31" class="edge">
<title>Fallback****&#45;&gt;GetSubGoal!******</title>
<path fill="none" stroke="black" d="M1090.95,-287.7C1090.95,-279.98 1090.95,-270.71 1090.95,-262.11"/>
<polygon fill="black" stroke="black" points="1094.45,-262.1 1090.95,-252.1 1087.45,-262.1 1094.45,-262.1"/>
</g>
<!-- GetSubGoal!******* -->
<g id="node33" class="node">
<title>GetSubGoal!*******</title>
<ellipse fill="gray" stroke="black" cx="1215.95" cy="-234" rx="54.7" ry="18"/>
<text text-anchor="middle" x="1215.95" y="-231.8" font-family="Times,serif" font-size="9.00">GetSubGoal!*******</text>
</g>
<!-- Fallback****&#45;&gt;GetSubGoal!******* -->
<g id="edge32" class="edge">
<title>Fallback****&#45;&gt;GetSubGoal!*******</title>
<path fill="none" stroke="black" d="M1115.65,-291.17C1134.12,-280.83 1159.64,-266.53 1180.32,-254.95"/>
<polygon fill="black" stroke="black" points="1182.13,-257.95 1189.14,-250.01 1178.71,-251.85 1182.13,-257.95"/>
</g>
<!-- GetSubGoal!******** -->
<g id="node34" class="node">
<title>GetSubGoal!********</title>
<ellipse fill="gray" stroke="black" cx="1346.95" cy="-234" rx="57.97" ry="18"/>
<text text-anchor="middle" x="1346.95" y="-231.8" font-family="Times,serif" font-size="9.00">GetSubGoal!********</text>
</g>
<!-- Fallback****&#45;&gt;GetSubGoal!******** -->
<g id="edge33" class="edge">
<title>Fallback****&#45;&gt;GetSubGoal!********</title>
<path fill="none" stroke="black" d="M1121.77,-294.11C1128.09,-292 1134.71,-289.86 1140.95,-288 1148.39,-285.78 1235.05,-263.58 1293.57,-248.63"/>
<polygon fill="black" stroke="black" points="1294.6,-251.98 1303.43,-246.11 1292.87,-245.19 1294.6,-251.98"/>
</g>
<!-- GetSubGoal!********* -->
<g id="node35" class="node">
<title>GetSubGoal!*********</title>
<ellipse fill="gray" stroke="black" cx="1482.95" cy="-234" rx="60.09" ry="18"/>
<text text-anchor="middle" x="1482.95" y="-231.8" font-family="Times,serif" font-size="9.00">GetSubGoal!*********</text>
</g>
<!-- Fallback****&#45;&gt;GetSubGoal!********* -->
<g id="edge34" class="edge">
<title>Fallback****&#45;&gt;GetSubGoal!*********</title>
<path fill="none" stroke="black" d="M1121.08,-293.69C1127.57,-291.56 1134.43,-289.52 1140.95,-288 1260.13,-260.17 1293.69,-274.67 1413.95,-252 1418.97,-251.05 1424.18,-249.97 1429.38,-248.81"/>
<polygon fill="black" stroke="black" points="1430.35,-252.18 1439.31,-246.52 1428.78,-245.36 1430.35,-252.18"/>
</g>
</g>
</svg>
