<?xml version="1.0" encoding="UTF-8" standalone="no"?>
<!DOCTYPE svg PUBLIC "-//W3C//DTD SVG 1.1//EN"
 "http://www.w3.org/Graphics/SVG/1.1/DTD/svg11.dtd">
<!-- Generated by graphviz version 2.43.0 (0)
 -->
<!-- Title: pastafarianism Pages: 1 -->
<svg width="2385pt" height="548pt"
 viewBox="0.00 0.00 2384.58 548.00" xmlns="http://www.w3.org/2000/svg" xmlns:xlink="http://www.w3.org/1999/xlink">
<g id="graph0" class="graph" transform="scale(1 1) rotate(0) translate(4 544)">
<title>pastafarianism</title>
<polygon fill="white" stroke="transparent" points="-4,4 -4,-544 2380.58,-544 2380.58,4 -4,4"/>
<!-- Sequence -->
<g id="node1" class="node">
<title>Sequence</title>
<polygon fill="cyan" stroke="black" points="1342.44,-514.54 1342.44,-529.46 1324,-540 1297.91,-540 1279.46,-529.46 1279.46,-514.54 1297.91,-504 1324,-504 1342.44,-514.54"/>
<text text-anchor="middle" x="1310.95" y="-519.8" font-family="Times,serif" font-size="9.00">Sequence</text>
</g>
<!-- Fallback -->
<g id="node2" class="node">
<title>Fallback</title>
<polygon fill="cyan" stroke="black" points="1340.19,-442.54 1340.19,-457.46 1323.06,-468 1298.84,-468 1281.71,-457.46 1281.71,-442.54 1298.84,-432 1323.06,-432 1340.19,-442.54"/>
<text text-anchor="middle" x="1310.95" y="-447.8" font-family="Times,serif" font-size="9.00">Fallback</text>
</g>
<!-- Sequence&#45;&gt;Fallback -->
<g id="edge1" class="edge">
<title>Sequence&#45;&gt;Fallback</title>
<path fill="none" stroke="black" d="M1310.95,-503.7C1310.95,-495.98 1310.95,-486.71 1310.95,-478.11"/>
<polygon fill="black" stroke="black" points="1314.45,-478.1 1310.95,-468.1 1307.45,-478.1 1314.45,-478.1"/>
</g>
<!-- Sequence* -->
<g id="node3" class="node">
<title>Sequence*</title>
<polygon fill="cyan" stroke="black" points="864.19,-370.54 864.19,-385.46 844.13,-396 815.77,-396 795.71,-385.46 795.71,-370.54 815.77,-360 844.13,-360 864.19,-370.54"/>
<text text-anchor="middle" x="829.95" y="-375.8" font-family="Times,serif" font-size="9.00">Sequence*</text>
</g>
<!-- Fallback&#45;&gt;Sequence* -->
<g id="edge2" class="edge">
<title>Fallback&#45;&gt;Sequence*</title>
<path fill="none" stroke="black" d="M1281.59,-444.73C1200.21,-432.88 971.43,-399.59 874.37,-385.46"/>
<polygon fill="black" stroke="black" points="874.7,-381.98 864.3,-384 873.69,-388.9 874.7,-381.98"/>
</g>
<!-- Sequence***** -->
<g id="node38" class="node">
<title>Sequence*****</title>
<polygon fill="cyan" stroke="black" points="1880.69,-370.54 1880.69,-385.46 1853.9,-396 1816,-396 1789.21,-385.46 1789.21,-370.54 1816,-360 1853.9,-360 1880.69,-370.54"/>
<text text-anchor="middle" x="1834.95" y="-375.8" font-family="Times,serif" font-size="9.00">Sequence*****</text>
</g>
<!-- Fallback&#45;&gt;Sequence***** -->
<g id="edge37" class="edge">
<title>Fallback&#45;&gt;Sequence*****</title>
<path fill="none" stroke="black" d="M1340.25,-445.09C1424.47,-433.83 1668.34,-401.26 1779.07,-386.46"/>
<polygon fill="black" stroke="black" points="1779.59,-389.93 1789.04,-385.13 1778.67,-382.99 1779.59,-389.93"/>
</g>
<!-- ReachGoal? -->
<g id="node4" class="node">
<title>ReachGoal?</title>
<ellipse fill="gray" stroke="black" cx="497.95" cy="-306" rx="34.13" ry="18"/>
<text text-anchor="middle" x="497.95" y="-303.8" font-family="Times,serif" font-size="9.00">ReachGoal?</text>
</g>
<!-- Sequence*&#45;&gt;ReachGoal? -->
<g id="edge3" class="edge">
<title>Sequence*&#45;&gt;ReachGoal?</title>
<path fill="none" stroke="black" d="M795.64,-372.91C741,-365.92 631.18,-349.84 540.95,-324 538.36,-323.26 535.72,-322.42 533.07,-321.52"/>
<polygon fill="black" stroke="black" points="534.18,-318.2 523.59,-318.08 531.79,-324.78 534.18,-318.2"/>
</g>
<!-- NotReadyForSG? -->
<g id="node5" class="node">
<title>NotReadyForSG?</title>
<ellipse fill="gray" stroke="black" cx="596.95" cy="-306" rx="46.53" ry="18"/>
<text text-anchor="middle" x="596.95" y="-303.8" font-family="Times,serif" font-size="9.00">NotReadyForSG?</text>
</g>
<!-- Sequence*&#45;&gt;NotReadyForSG? -->
<g id="edge4" class="edge">
<title>Sequence*&#45;&gt;NotReadyForSG?</title>
<path fill="none" stroke="black" d="M800.19,-368.13C765.01,-357.63 704.7,-339.6 652.95,-324 649.44,-322.94 645.8,-321.84 642.14,-320.74"/>
<polygon fill="black" stroke="black" points="643.08,-317.36 632.49,-317.81 641.05,-324.06 643.08,-317.36"/>
</g>
<!-- GetSubGoal! -->
<g id="node6" class="node">
<title>GetSubGoal!</title>
<ellipse fill="gray" stroke="black" cx="698.95" cy="-306" rx="36.9" ry="18"/>
<text text-anchor="middle" x="698.95" y="-303.8" font-family="Times,serif" font-size="9.00">GetSubGoal!</text>
</g>
<!-- Sequence*&#45;&gt;GetSubGoal! -->
<g id="edge5" class="edge">
<title>Sequence*&#45;&gt;GetSubGoal!</title>
<path fill="none" stroke="black" d="M806.83,-364.65C786.08,-353.56 755.39,-337.16 732.04,-324.68"/>
<polygon fill="black" stroke="black" points="733.64,-321.57 723.17,-319.94 730.34,-327.74 733.64,-321.57"/>
</g>
<!-- Fallback* -->
<g id="node7" class="node">
<title>Fallback*</title>
<polygon fill="cyan" stroke="black" points="817.69,-298.54 817.69,-313.46 799.1,-324 772.8,-324 754.21,-313.46 754.21,-298.54 772.8,-288 799.1,-288 817.69,-298.54"/>
<text text-anchor="middle" x="785.95" y="-303.8" font-family="Times,serif" font-size="9.00">Fallback*</text>
</g>
<!-- Sequence*&#45;&gt;Fallback* -->
<g id="edge6" class="edge">
<title>Sequence*&#45;&gt;Fallback*</title>
<path fill="none" stroke="black" d="M819.07,-359.7C813.96,-351.56 807.75,-341.69 802.11,-332.7"/>
<polygon fill="black" stroke="black" points="804.99,-330.71 796.7,-324.1 799.06,-334.43 804.99,-330.71"/>
</g>
<!-- Fallback*** -->
<g id="node27" class="node">
<title>Fallback***</title>
<polygon fill="cyan" stroke="black" points="910.44,-298.54 910.44,-313.46 888.48,-324 857.42,-324 835.46,-313.46 835.46,-298.54 857.42,-288 888.48,-288 910.44,-298.54"/>
<text text-anchor="middle" x="872.95" y="-303.8" font-family="Times,serif" font-size="9.00">Fallback***</text>
</g>
<!-- Sequence*&#45;&gt;Fallback*** -->
<g id="edge26" class="edge">
<title>Sequence*&#45;&gt;Fallback***</title>
<path fill="none" stroke="black" d="M840.58,-359.7C845.58,-351.56 851.64,-341.69 857.16,-332.7"/>
<polygon fill="black" stroke="black" points="860.19,-334.46 862.44,-324.1 854.23,-330.79 860.19,-334.46"/>
</g>
<!-- GetSubGoal!********** -->
<g id="node34" class="node">
<title>GetSubGoal!**********</title>
<ellipse fill="gray" stroke="black" cx="990.95" cy="-306" rx="62.86" ry="18"/>
<text text-anchor="middle" x="990.95" y="-303.8" font-family="Times,serif" font-size="9.00">GetSubGoal!**********</text>
</g>
<!-- Sequence*&#45;&gt;GetSubGoal!********** -->
<g id="edge33" class="edge">
<title>Sequence*&#45;&gt;GetSubGoal!**********</title>
<path fill="none" stroke="black" d="M855.46,-365.91C880.42,-355.05 918.9,-338.33 948.48,-325.47"/>
<polygon fill="black" stroke="black" points="949.97,-328.63 957.74,-321.44 947.18,-322.22 949.97,-328.63"/>
</g>
<!-- Fallback**** -->
<g id="node35" class="node">
<title>Fallback****</title>
<polygon fill="cyan" stroke="black" points="1401.69,-298.54 1401.69,-313.46 1377.83,-324 1344.08,-324 1320.21,-313.46 1320.21,-298.54 1344.08,-288 1377.83,-288 1401.69,-298.54"/>
<text text-anchor="middle" x="1360.95" y="-303.8" font-family="Times,serif" font-size="9.00">Fallback****</text>
</g>
<!-- Sequence*&#45;&gt;Fallback**** -->
<g id="edge34" class="edge">
<title>Sequence*&#45;&gt;Fallback****</title>
<path fill="none" stroke="black" d="M864.38,-372.46C955.44,-360.46 1202.94,-327.83 1310.23,-313.69"/>
<polygon fill="black" stroke="black" points="1310.7,-317.15 1320.16,-312.38 1309.79,-310.21 1310.7,-317.15"/>
</g>
<!-- GetSubGoal!* -->
<g id="node8" class="node">
<title>GetSubGoal!*</title>
<ellipse fill="gray" stroke="black" cx="354.95" cy="-234" rx="39.02" ry="18"/>
<text text-anchor="middle" x="354.95" y="-231.8" font-family="Times,serif" font-size="9.00">GetSubGoal!*</text>
</g>
<!-- Fallback*&#45;&gt;GetSubGoal!* -->
<g id="edge7" class="edge">
<title>Fallback*&#45;&gt;GetSubGoal!*</title>
<path fill="none" stroke="black" d="M762.06,-293.75C756.55,-291.53 750.63,-289.44 744.95,-288 596.82,-250.34 552.02,-285.75 402.95,-252 399.76,-251.28 396.49,-250.41 393.23,-249.45"/>
<polygon fill="black" stroke="black" points="394.15,-246.07 383.56,-246.37 392.03,-252.74 394.15,-246.07"/>
</g>
<!-- Sequence** -->
<g id="node9" class="node">
<title>Sequence**</title>
<polygon fill="cyan" stroke="black" points="485.69,-226.54 485.69,-241.46 464.17,-252 433.73,-252 412.21,-241.46 412.21,-226.54 433.73,-216 464.17,-216 485.69,-226.54"/>
<text text-anchor="middle" x="448.95" y="-231.8" font-family="Times,serif" font-size="9.00">Sequence**</text>
</g>
<!-- Fallback*&#45;&gt;Sequence** -->
<g id="edge8" class="edge">
<title>Fallback*&#45;&gt;Sequence**</title>
<path fill="none" stroke="black" d="M762.02,-293.91C756.51,-291.68 750.6,-289.55 744.95,-288 636.7,-258.27 603.76,-279.61 494.95,-252 491.99,-251.25 488.96,-250.38 485.93,-249.43"/>
<polygon fill="black" stroke="black" points="486.98,-246.09 476.38,-246.21 484.74,-252.72 486.98,-246.09"/>
</g>
<!-- LkGraph?* -->
<g id="node26" class="node">
<title>LkGraph?*</title>
<ellipse fill="gray" stroke="black" cx="536.95" cy="-234" rx="32.82" ry="18"/>
<text text-anchor="middle" x="536.95" y="-231.8" font-family="Times,serif" font-size="9.00">LkGraph?*</text>
</g>
<!-- Fallback*&#45;&gt;LkGraph?* -->
<g id="edge25" class="edge">
<title>Fallback*&#45;&gt;LkGraph?*</title>
<path fill="none" stroke="black" d="M761.5,-294.02C756.11,-291.84 750.39,-289.7 744.95,-288 672.9,-265.45 651.09,-274.24 578.95,-252 576.52,-251.25 574.03,-250.42 571.53,-249.54"/>
<polygon fill="black" stroke="black" points="572.61,-246.2 562.02,-245.96 570.15,-252.75 572.61,-246.2"/>
</g>
<!-- Fallback** -->
<g id="node10" class="node">
<title>Fallback**</title>
<polygon fill="cyan" stroke="black" points="441.94,-154.54 441.94,-169.46 421.44,-180 392.46,-180 371.96,-169.46 371.96,-154.54 392.46,-144 421.44,-144 441.94,-154.54"/>
<text text-anchor="middle" x="406.95" y="-159.8" font-family="Times,serif" font-size="9.00">Fallback**</text>
</g>
<!-- Sequence**&#45;&gt;Fallback** -->
<g id="edge9" class="edge">
<title>Sequence**&#45;&gt;Fallback**</title>
<path fill="none" stroke="black" d="M438.57,-215.7C433.69,-207.56 427.76,-197.69 422.37,-188.7"/>
<polygon fill="black" stroke="black" points="425.36,-186.88 417.21,-180.1 419.36,-190.48 425.36,-186.88"/>
</g>
<!-- MoveTo!* -->
<g id="node25" class="node">
<title>MoveTo!*</title>
<ellipse fill="gray" stroke="black" cx="491.95" cy="-162" rx="31.51" ry="18"/>
<text text-anchor="middle" x="491.95" y="-159.8" font-family="Times,serif" font-size="9.00">MoveTo!*</text>
</g>
<!-- Sequence**&#45;&gt;MoveTo!* -->
<g id="edge24" class="edge">
<title>Sequence**&#45;&gt;MoveTo!*</title>
<path fill="none" stroke="black" d="M459.58,-215.7C464.73,-207.32 471,-197.1 476.66,-187.9"/>
<polygon fill="black" stroke="black" points="479.78,-189.5 482.03,-179.14 473.82,-185.83 479.78,-189.5"/>
</g>
<!-- ReachGoal?* -->
<g id="node11" class="node">
<title>ReachGoal?*</title>
<ellipse fill="gray" stroke="black" cx="36.95" cy="-90" rx="36.9" ry="18"/>
<text text-anchor="middle" x="36.95" y="-87.8" font-family="Times,serif" font-size="9.00">ReachGoal?*</text>
</g>
<!-- Fallback**&#45;&gt;ReachGoal?* -->
<g id="edge10" class="edge">
<title>Fallback**&#45;&gt;ReachGoal?*</title>
<path fill="none" stroke="black" d="M371.49,-157.45C311.39,-150.94 186.01,-135.2 82.95,-108 80,-107.22 76.97,-106.33 73.95,-105.37"/>
<polygon fill="black" stroke="black" points="75,-102.03 64.4,-102.12 72.75,-108.65 75,-102.03"/>
</g>
<!-- NotReadyForSG?* -->
<g id="node12" class="node">
<title>NotReadyForSG?*</title>
<ellipse fill="gray" stroke="black" cx="141.95" cy="-90" rx="49.8" ry="18"/>
<text text-anchor="middle" x="141.95" y="-87.8" font-family="Times,serif" font-size="9.00">NotReadyForSG?*</text>
</g>
<!-- Fallback**&#45;&gt;NotReadyForSG?* -->
<g id="edge11" class="edge">
<title>Fallback**&#45;&gt;NotReadyForSG?*</title>
<path fill="none" stroke="black" d="M374.76,-153.02C334.16,-142.89 262.23,-124.71 200.95,-108 197.13,-106.96 193.17,-105.86 189.19,-104.74"/>
<polygon fill="black" stroke="black" points="189.93,-101.31 179.36,-101.95 188.02,-108.05 189.93,-101.31"/>
</g>
<!-- Sequence*** -->
<g id="node13" class="node">
<title>Sequence***</title>
<polygon fill="cyan" stroke="black" points="289.94,-82.54 289.94,-97.46 266.51,-108 233.39,-108 209.96,-97.46 209.96,-82.54 233.39,-72 266.51,-72 289.94,-82.54"/>
<text text-anchor="middle" x="249.95" y="-87.8" font-family="Times,serif" font-size="9.00">Sequence***</text>
</g>
<!-- Fallback**&#45;&gt;Sequence*** -->
<g id="edge12" class="edge">
<title>Fallback**&#45;&gt;Sequence***</title>
<path fill="none" stroke="black" d="M381.38,-149.6C355.69,-138.15 315.86,-120.39 286.78,-107.42"/>
<polygon fill="black" stroke="black" points="287.92,-104.1 277.36,-103.22 285.07,-110.49 287.92,-104.1"/>
</g>
<!-- GetSubGoal!*** -->
<g id="node16" class="node">
<title>GetSubGoal!***</title>
<ellipse fill="gray" stroke="black" cx="351.95" cy="-90" rx="44.41" ry="18"/>
<text text-anchor="middle" x="351.95" y="-87.8" font-family="Times,serif" font-size="9.00">GetSubGoal!***</text>
</g>
<!-- Fallback**&#45;&gt;GetSubGoal!*** -->
<g id="edge15" class="edge">
<title>Fallback**&#45;&gt;GetSubGoal!***</title>
<path fill="none" stroke="black" d="M393.35,-143.7C386.73,-135.27 378.64,-124.97 371.38,-115.73"/>
<polygon fill="black" stroke="black" points="373.94,-113.32 365.01,-107.62 368.44,-117.65 373.94,-113.32"/>
</g>
<!-- GetSubGoal!**** -->
<g id="node17" class="node">
<title>GetSubGoal!****</title>
<ellipse fill="gray" stroke="black" cx="461.95" cy="-90" rx="47.19" ry="18"/>
<text text-anchor="middle" x="461.95" y="-87.8" font-family="Times,serif" font-size="9.00">GetSubGoal!****</text>
</g>
<!-- Fallback**&#45;&gt;GetSubGoal!**** -->
<g id="edge16" class="edge">
<title>Fallback**&#45;&gt;GetSubGoal!****</title>
<path fill="none" stroke="black" d="M420.55,-143.7C427.17,-135.27 435.26,-124.97 442.52,-115.73"/>
<polygon fill="black" stroke="black" points="445.46,-117.65 448.89,-107.62 439.96,-113.32 445.46,-117.65"/>
</g>
<!-- NotReadyForSG?** -->
<g id="node18" class="node">
<title>NotReadyForSG?**</title>
<ellipse fill="gray" stroke="black" cx="578.95" cy="-90" rx="51.92" ry="18"/>
<text text-anchor="middle" x="578.95" y="-87.8" font-family="Times,serif" font-size="9.00">NotReadyForSG?**</text>
</g>
<!-- Fallback**&#45;&gt;NotReadyForSG?** -->
<g id="edge17" class="edge">
<title>Fallback**&#45;&gt;NotReadyForSG?**</title>
<path fill="none" stroke="black" d="M433.83,-150.06C461.48,-138.81 504.95,-121.12 537.11,-108.03"/>
<polygon fill="black" stroke="black" points="538.76,-111.14 546.7,-104.13 536.12,-104.65 538.76,-111.14"/>
</g>
<!-- GetSubGoal!***** -->
<g id="node19" class="node">
<title>GetSubGoal!*****</title>
<ellipse fill="gray" stroke="black" cx="698.95" cy="-90" rx="49.8" ry="18"/>
<text text-anchor="middle" x="698.95" y="-87.8" font-family="Times,serif" font-size="9.00">GetSubGoal!*****</text>
</g>
<!-- Fallback**&#45;&gt;GetSubGoal!***** -->
<g id="edge18" class="edge">
<title>Fallback**&#45;&gt;GetSubGoal!*****</title>
<path fill="none" stroke="black" d="M433.21,-149.97C438.99,-147.79 445.12,-145.67 450.95,-144 533.17,-120.5 556.78,-127.86 639.95,-108 644.03,-107.03 648.26,-105.95 652.48,-104.82"/>
<polygon fill="black" stroke="black" points="653.55,-108.16 662.27,-102.14 651.7,-101.41 653.55,-108.16"/>
</g>
<!-- Sequence**** -->
<g id="node20" class="node">
<title>Sequence****</title>
<polygon fill="cyan" stroke="black" points="851.44,-82.54 851.44,-97.46 826.55,-108 791.35,-108 766.46,-97.46 766.46,-82.54 791.35,-72 826.55,-72 851.44,-82.54"/>
<text text-anchor="middle" x="808.95" y="-87.8" font-family="Times,serif" font-size="9.00">Sequence****</text>
</g>
<!-- Fallback**&#45;&gt;Sequence**** -->
<g id="edge19" class="edge">
<title>Fallback**&#45;&gt;Sequence****</title>
<path fill="none" stroke="black" d="M433.13,-149.65C438.91,-147.49 445.07,-145.46 450.95,-144 584.3,-110.98 623.86,-137.88 757.95,-108 761.33,-107.25 764.81,-106.35 768.27,-105.38"/>
<polygon fill="black" stroke="black" points="769.39,-108.7 777.95,-102.46 767.36,-102 769.39,-108.7"/>
</g>
<!-- LkGraph? -->
<g id="node14" class="node">
<title>LkGraph?</title>
<ellipse fill="gray" stroke="black" cx="203.95" cy="-18" rx="30.7" ry="18"/>
<text text-anchor="middle" x="203.95" y="-15.8" font-family="Times,serif" font-size="9.00">LkGraph?</text>
</g>
<!-- Sequence***&#45;&gt;LkGraph? -->
<g id="edge13" class="edge">
<title>Sequence***&#45;&gt;LkGraph?</title>
<path fill="none" stroke="black" d="M238.58,-71.7C233.01,-63.23 226.22,-52.89 220.12,-43.61"/>
<polygon fill="black" stroke="black" points="222.98,-41.58 214.56,-35.14 217.13,-45.42 222.98,-41.58"/>
</g>
<!-- GetSubGoal!** -->
<g id="node15" class="node">
<title>GetSubGoal!**</title>
<ellipse fill="gray" stroke="black" cx="294.95" cy="-18" rx="42.29" ry="18"/>
<text text-anchor="middle" x="294.95" y="-15.8" font-family="Times,serif" font-size="9.00">GetSubGoal!**</text>
</g>
<!-- Sequence***&#45;&gt;GetSubGoal!** -->
<g id="edge14" class="edge">
<title>Sequence***&#45;&gt;GetSubGoal!**</title>
<path fill="none" stroke="black" d="M261.07,-71.7C266.38,-63.44 272.84,-53.39 278.69,-44.3"/>
<polygon fill="black" stroke="black" points="281.8,-45.93 284.26,-35.62 275.91,-42.14 281.8,-45.93"/>
</g>
<!-- GetLk! -->
<g id="node21" class="node">
<title>GetLk!</title>
<ellipse fill="gray" stroke="black" cx="696.95" cy="-18" rx="27" ry="18"/>
<text text-anchor="middle" x="696.95" y="-15.8" font-family="Times,serif" font-size="9.00">GetLk!</text>
</g>
<!-- Sequence****&#45;&gt;GetLk! -->
<g id="edge20" class="edge">
<title>Sequence****&#45;&gt;GetLk!</title>
<path fill="none" stroke="black" d="M785.47,-74.33C767.72,-63.23 743.3,-47.97 724.6,-36.28"/>
<polygon fill="black" stroke="black" points="726.28,-33.2 715.94,-30.87 722.57,-39.14 726.28,-33.2"/>
</g>
<!-- LkClose? -->
<g id="node22" class="node">
<title>LkClose?</title>
<ellipse fill="gray" stroke="black" cx="770.95" cy="-18" rx="28.74" ry="18"/>
<text text-anchor="middle" x="770.95" y="-15.8" font-family="Times,serif" font-size="9.00">LkClose?</text>
</g>
<!-- Sequence****&#45;&gt;LkClose? -->
<g id="edge21" class="edge">
<title>Sequence****&#45;&gt;LkClose?</title>
<path fill="none" stroke="black" d="M799.56,-71.7C795.12,-63.52 789.73,-53.6 784.84,-44.58"/>
<polygon fill="black" stroke="black" points="787.82,-42.74 779.97,-35.62 781.67,-46.08 787.82,-42.74"/>
</g>
<!-- MoveTo! -->
<g id="node23" class="node">
<title>MoveTo!</title>
<ellipse fill="gray" stroke="black" cx="846.95" cy="-18" rx="28.74" ry="18"/>
<text text-anchor="middle" x="846.95" y="-15.8" font-family="Times,serif" font-size="9.00">MoveTo!</text>
</g>
<!-- Sequence****&#45;&gt;MoveTo! -->
<g id="edge22" class="edge">
<title>Sequence****&#45;&gt;MoveTo!</title>
<path fill="none" stroke="black" d="M818.34,-71.7C822.78,-63.52 828.17,-53.6 833.06,-44.58"/>
<polygon fill="black" stroke="black" points="836.23,-46.08 837.93,-35.62 830.08,-42.74 836.23,-46.08"/>
</g>
<!-- CompLkGraph! -->
<g id="node24" class="node">
<title>CompLkGraph!</title>
<ellipse fill="gray" stroke="black" cx="936.95" cy="-18" rx="42.95" ry="18"/>
<text text-anchor="middle" x="936.95" y="-15.8" font-family="Times,serif" font-size="9.00">CompLkGraph!</text>
</g>
<!-- Sequence****&#45;&gt;CompLkGraph! -->
<g id="edge23" class="edge">
<title>Sequence****&#45;&gt;CompLkGraph!</title>
<path fill="none" stroke="black" d="M834.24,-75.17C853.87,-64.43 881.3,-49.44 902.87,-37.64"/>
<polygon fill="black" stroke="black" points="904.62,-40.67 911.71,-32.8 901.26,-34.53 904.62,-40.67"/>
</g>
<!-- NotReadyForSG?*** -->
<g id="node28" class="node">
<title>NotReadyForSG?***</title>
<ellipse fill="gray" stroke="black" cx="642.95" cy="-234" rx="54.7" ry="18"/>
<text text-anchor="middle" x="642.95" y="-231.8" font-family="Times,serif" font-size="9.00">NotReadyForSG?***</text>
</g>
<!-- Fallback***&#45;&gt;NotReadyForSG?*** -->
<g id="edge27" class="edge">
<title>Fallback***&#45;&gt;NotReadyForSG?***</title>
<path fill="none" stroke="black" d="M844.36,-294.06C838.62,-291.97 832.61,-289.86 826.95,-288 802.16,-279.86 738.58,-261.77 693.11,-249"/>
<polygon fill="black" stroke="black" points="693.99,-245.61 683.42,-246.28 692.1,-252.35 693.99,-245.61"/>
</g>
<!-- GetSubGoal!****** -->
<g id="node29" class="node">
<title>GetSubGoal!******</title>
<ellipse fill="gray" stroke="black" cx="767.95" cy="-234" rx="52.58" ry="18"/>
<text text-anchor="middle" x="767.95" y="-231.8" font-family="Times,serif" font-size="9.00">GetSubGoal!******</text>
</g>
<!-- Fallback***&#45;&gt;GetSubGoal!****** -->
<g id="edge28" class="edge">
<title>Fallback***&#45;&gt;GetSubGoal!******</title>
<path fill="none" stroke="black" d="M851.45,-290.67C836.43,-280.65 816.13,-267.12 799.31,-255.91"/>
<polygon fill="black" stroke="black" points="801.14,-252.92 790.88,-250.29 797.26,-258.74 801.14,-252.92"/>
</g>
<!-- MoveTo!** -->
<g id="node30" class="node">
<title>MoveTo!**</title>
<ellipse fill="gray" stroke="black" cx="872.95" cy="-234" rx="34.13" ry="18"/>
<text text-anchor="middle" x="872.95" y="-231.8" font-family="Times,serif" font-size="9.00">MoveTo!**</text>
</g>
<!-- Fallback***&#45;&gt;MoveTo!** -->
<g id="edge29" class="edge">
<title>Fallback***&#45;&gt;MoveTo!**</title>
<path fill="none" stroke="black" d="M872.95,-287.7C872.95,-279.98 872.95,-270.71 872.95,-262.11"/>
<polygon fill="black" stroke="black" points="876.45,-262.1 872.95,-252.1 869.45,-262.1 876.45,-262.1"/>
</g>
<!-- GetSubGoal!******* -->
<g id="node31" class="node">
<title>GetSubGoal!*******</title>
<ellipse fill="gray" stroke="black" cx="979.95" cy="-234" rx="54.7" ry="18"/>
<text text-anchor="middle" x="979.95" y="-231.8" font-family="Times,serif" font-size="9.00">GetSubGoal!*******</text>
</g>
<!-- Fallback***&#45;&gt;GetSubGoal!******* -->
<g id="edge30" class="edge">
<title>Fallback***&#45;&gt;GetSubGoal!*******</title>
<path fill="none" stroke="black" d="M894.6,-290.83C909.89,-280.83 930.64,-267.26 947.84,-256"/>
<polygon fill="black" stroke="black" points="950.02,-258.76 956.47,-250.36 946.19,-252.9 950.02,-258.76"/>
</g>
<!-- GetSubGoal!******** -->
<g id="node32" class="node">
<title>GetSubGoal!********</title>
<ellipse fill="gray" stroke="black" cx="1110.95" cy="-234" rx="57.97" ry="18"/>
<text text-anchor="middle" x="1110.95" y="-231.8" font-family="Times,serif" font-size="9.00">GetSubGoal!********</text>
</g>
<!-- Fallback***&#45;&gt;GetSubGoal!******** -->
<g id="edge31" class="edge">
<title>Fallback***&#45;&gt;GetSubGoal!********</title>
<path fill="none" stroke="black" d="M901.53,-294.01C907.27,-291.93 913.28,-289.83 918.95,-288 965.18,-273.11 1018.47,-258.6 1057.17,-248.54"/>
<polygon fill="black" stroke="black" points="1058.37,-251.85 1067.17,-245.96 1056.62,-245.07 1058.37,-251.85"/>
</g>
<!-- GetSubGoal!********* -->
<g id="node33" class="node">
<title>GetSubGoal!*********</title>
<ellipse fill="gray" stroke="black" cx="1246.95" cy="-234" rx="60.09" ry="18"/>
<text text-anchor="middle" x="1246.95" y="-231.8" font-family="Times,serif" font-size="9.00">GetSubGoal!*********</text>
</g>
<!-- Fallback***&#45;&gt;GetSubGoal!********* -->
<g id="edge32" class="edge">
<title>Fallback***&#45;&gt;GetSubGoal!*********</title>
<path fill="none" stroke="black" d="M900.87,-293.59C906.77,-291.49 913,-289.49 918.95,-288 1031.67,-259.69 1063.82,-273.93 1177.95,-252 1182.97,-251.04 1188.17,-249.94 1193.37,-248.77"/>
<polygon fill="black" stroke="black" points="1194.35,-252.14 1203.3,-246.48 1192.77,-245.32 1194.35,-252.14"/>
</g>
<!-- LkGraph?** -->
<g id="node36" class="node">
<title>LkGraph?**</title>
<ellipse fill="gray" stroke="black" cx="1360.95" cy="-234" rx="35.59" ry="18"/>
<text text-anchor="middle" x="1360.95" y="-231.8" font-family="Times,serif" font-size="9.00">LkGraph?**</text>
</g>
<!-- Fallback****&#45;&gt;LkGraph?** -->
<g id="edge35" class="edge">
<title>Fallback****&#45;&gt;LkGraph?**</title>
<path fill="none" stroke="black" d="M1360.95,-287.7C1360.95,-279.98 1360.95,-270.71 1360.95,-262.11"/>
<polygon fill="black" stroke="black" points="1364.45,-262.1 1360.95,-252.1 1357.45,-262.1 1364.45,-262.1"/>
</g>
<!-- MoveTo!*** -->
<g id="node37" class="node">
<title>MoveTo!***</title>
<ellipse fill="gray" stroke="black" cx="1451.95" cy="-234" rx="36.9" ry="18"/>
<text text-anchor="middle" x="1451.95" y="-231.8" font-family="Times,serif" font-size="9.00">MoveTo!***</text>
</g>
<!-- Fallback****&#45;&gt;MoveTo!*** -->
<g id="edge36" class="edge">
<title>Fallback****&#45;&gt;MoveTo!***</title>
<path fill="none" stroke="black" d="M1381.15,-289.46C1393.98,-279.59 1410.76,-266.69 1424.76,-255.92"/>
<polygon fill="black" stroke="black" points="1427.26,-258.41 1433.05,-249.54 1422.99,-252.86 1427.26,-258.41"/>
</g>
<!-- Fallback***** -->
<g id="node39" class="node">
<title>Fallback*****</title>
<polygon fill="cyan" stroke="black" points="1878.19,-298.54 1878.19,-313.46 1852.86,-324 1817.04,-324 1791.71,-313.46 1791.71,-298.54 1817.04,-288 1852.86,-288 1878.19,-298.54"/>
<text text-anchor="middle" x="1834.95" y="-303.8" font-family="Times,serif" font-size="9.00">Fallback*****</text>
</g>
<!-- Sequence*****&#45;&gt;Fallback***** -->
<g id="edge38" class="edge">
<title>Sequence*****&#45;&gt;Fallback*****</title>
<path fill="none" stroke="black" d="M1834.95,-359.7C1834.95,-351.98 1834.95,-342.71 1834.95,-334.11"/>
<polygon fill="black" stroke="black" points="1838.45,-334.1 1834.95,-324.1 1831.45,-334.1 1838.45,-334.1"/>
</g>
<!-- MoveTo!***** -->
<g id="node54" class="node">
<title>MoveTo!*****</title>
<ellipse fill="gray" stroke="black" cx="1937.95" cy="-306" rx="42.29" ry="18"/>
<text text-anchor="middle" x="1937.95" y="-303.8" font-family="Times,serif" font-size="9.00">MoveTo!*****</text>
</g>
<!-- Sequence*****&#45;&gt;MoveTo!***** -->
<g id="edge53" class="edge">
<title>Sequence*****&#45;&gt;MoveTo!*****</title>
<path fill="none" stroke="black" d="M1857.81,-361.46C1872.61,-351.41 1892.04,-338.2 1908.06,-327.31"/>
<polygon fill="black" stroke="black" points="1910.26,-330.05 1916.56,-321.54 1906.32,-324.26 1910.26,-330.05"/>
</g>
<!-- NotReadyForSG?**** -->
<g id="node40" class="node">
<title>NotReadyForSG?****</title>
<ellipse fill="gray" stroke="black" cx="1563.95" cy="-234" rx="57.32" ry="18"/>
<text text-anchor="middle" x="1563.95" y="-231.8" font-family="Times,serif" font-size="9.00">NotReadyForSG?****</text>
</g>
<!-- Fallback*****&#45;&gt;NotReadyForSG?**** -->
<g id="edge39" class="edge">
<title>Fallback*****&#45;&gt;NotReadyForSG?****</title>
<path fill="none" stroke="black" d="M1798.68,-295.63C1751.94,-283.56 1670.31,-262.47 1616.7,-248.62"/>
<polygon fill="black" stroke="black" points="1617.25,-245.15 1606.7,-246.04 1615.5,-251.93 1617.25,-245.15"/>
</g>
<!-- GetSubGoal!*********** -->
<g id="node41" class="node">
<title>GetSubGoal!***********</title>
<ellipse fill="gray" stroke="black" cx="1703.95" cy="-234" rx="65.48" ry="18"/>
<text text-anchor="middle" x="1703.95" y="-231.8" font-family="Times,serif" font-size="9.00">GetSubGoal!***********</text>
</g>
<!-- Fallback*****&#45;&gt;GetSubGoal!*********** -->
<g id="edge40" class="edge">
<title>Fallback*****&#45;&gt;GetSubGoal!***********</title>
<path fill="none" stroke="black" d="M1809.07,-291.17C1789.76,-280.85 1763.08,-266.6 1741.44,-255.03"/>
<polygon fill="black" stroke="black" points="1742.98,-251.89 1732.51,-250.26 1739.68,-258.06 1742.98,-251.89"/>
</g>
<!-- Sequence****** -->
<g id="node42" class="node">
<title>Sequence******</title>
<polygon fill="cyan" stroke="black" points="1883.19,-226.54 1883.19,-241.46 1854.93,-252 1814.97,-252 1786.71,-241.46 1786.71,-226.54 1814.97,-216 1854.93,-216 1883.19,-226.54"/>
<text text-anchor="middle" x="1834.95" y="-231.8" font-family="Times,serif" font-size="9.00">Sequence******</text>
</g>
<!-- Fallback*****&#45;&gt;Sequence****** -->
<g id="edge41" class="edge">
<title>Fallback*****&#45;&gt;Sequence******</title>
<path fill="none" stroke="black" d="M1834.95,-287.7C1834.95,-279.98 1834.95,-270.71 1834.95,-262.11"/>
<polygon fill="black" stroke="black" points="1838.45,-262.1 1834.95,-252.1 1831.45,-262.1 1838.45,-262.1"/>
</g>
<!-- GetSubGoal!************* -->
<g id="node51" class="node">
<title>GetSubGoal!*************</title>
<ellipse fill="gray" stroke="black" cx="1971.95" cy="-234" rx="70.37" ry="18"/>
<text text-anchor="middle" x="1971.95" y="-231.8" font-family="Times,serif" font-size="9.00">GetSubGoal!*************</text>
</g>
<!-- Fallback*****&#45;&gt;GetSubGoal!************* -->
<g id="edge50" class="edge">
<title>Fallback*****&#45;&gt;GetSubGoal!*************</title>
<path fill="none" stroke="black" d="M1861.37,-291.5C1881.59,-281.17 1909.82,-266.75 1932.69,-255.06"/>
<polygon fill="black" stroke="black" points="1934.49,-258.07 1941.8,-250.41 1931.3,-251.84 1934.49,-258.07"/>
</g>
<!-- GetSubGoal!************** -->
<g id="node52" class="node">
<title>GetSubGoal!**************</title>
<ellipse fill="gray" stroke="black" cx="2133.95" cy="-234" rx="73.15" ry="18"/>
<text text-anchor="middle" x="2133.95" y="-231.8" font-family="Times,serif" font-size="9.00">GetSubGoal!**************</text>
</g>
<!-- Fallback*****&#45;&gt;GetSubGoal!************** -->
<g id="edge51" class="edge">
<title>Fallback*****&#45;&gt;GetSubGoal!**************</title>
<path fill="none" stroke="black" d="M1867.25,-293.86C1873.74,-291.79 1880.53,-289.73 1886.95,-288 1904.5,-283.26 2002.86,-262.44 2070.03,-248.35"/>
<polygon fill="black" stroke="black" points="2071.05,-251.72 2080.12,-246.24 2069.61,-244.87 2071.05,-251.72"/>
</g>
<!-- GetSubGoal!*************** -->
<g id="node53" class="node">
<title>GetSubGoal!***************</title>
<ellipse fill="gray" stroke="black" cx="2300.95" cy="-234" rx="75.77" ry="18"/>
<text text-anchor="middle" x="2300.95" y="-231.8" font-family="Times,serif" font-size="9.00">GetSubGoal!***************</text>
</g>
<!-- Fallback*****&#45;&gt;GetSubGoal!*************** -->
<g id="edge52" class="edge">
<title>Fallback*****&#45;&gt;GetSubGoal!***************</title>
<path fill="none" stroke="black" d="M1866.56,-293.51C1873.23,-291.42 1880.27,-289.44 1886.95,-288 2030.74,-256.98 2070.58,-274.45 2215.95,-252 2222.65,-250.97 2229.61,-249.77 2236.55,-248.5"/>
<polygon fill="black" stroke="black" points="2237.48,-251.89 2246.66,-246.6 2236.19,-245.01 2237.48,-251.89"/>
</g>
<!-- ReachGoal?** -->
<g id="node43" class="node">
<title>ReachGoal?**</title>
<ellipse fill="gray" stroke="black" cx="1571.95" cy="-162" rx="39.02" ry="18"/>
<text text-anchor="middle" x="1571.95" y="-159.8" font-family="Times,serif" font-size="9.00">ReachGoal?**</text>
</g>
<!-- Sequence******&#45;&gt;ReachGoal?** -->
<g id="edge42" class="edge">
<title>Sequence******&#45;&gt;ReachGoal?**</title>
<path fill="none" stroke="black" d="M1798.87,-221.85C1791.95,-219.82 1784.74,-217.78 1777.95,-216 1708.29,-197.7 1689.12,-200.06 1619.95,-180 1617.03,-179.15 1614.03,-178.23 1611.02,-177.26"/>
<polygon fill="black" stroke="black" points="1612.07,-173.92 1601.48,-174.06 1609.85,-180.56 1612.07,-173.92"/>
</g>
<!-- NotReadyForSG?***** -->
<g id="node44" class="node">
<title>NotReadyForSG?*****</title>
<ellipse fill="gray" stroke="black" cx="1688.95" cy="-162" rx="60.09" ry="18"/>
<text text-anchor="middle" x="1688.95" y="-159.8" font-family="Times,serif" font-size="9.00">NotReadyForSG?*****</text>
</g>
<!-- Sequence******&#45;&gt;NotReadyForSG?***** -->
<g id="edge43" class="edge">
<title>Sequence******&#45;&gt;NotReadyForSG?*****</title>
<path fill="none" stroke="black" d="M1806.11,-219.17C1783.93,-208.54 1753.03,-193.72 1728.54,-181.98"/>
<polygon fill="black" stroke="black" points="1730.03,-178.81 1719.5,-177.65 1727,-185.13 1730.03,-178.81"/>
</g>
<!-- GetSubGoal!************ -->
<g id="node45" class="node">
<title>GetSubGoal!************</title>
<ellipse fill="gray" stroke="black" cx="1834.95" cy="-162" rx="68.25" ry="18"/>
<text text-anchor="middle" x="1834.95" y="-159.8" font-family="Times,serif" font-size="9.00">GetSubGoal!************</text>
</g>
<!-- Sequence******&#45;&gt;GetSubGoal!************ -->
<g id="edge44" class="edge">
<title>Sequence******&#45;&gt;GetSubGoal!************</title>
<path fill="none" stroke="black" d="M1834.95,-215.7C1834.95,-207.98 1834.95,-198.71 1834.95,-190.11"/>
<polygon fill="black" stroke="black" points="1838.45,-190.1 1834.95,-180.1 1831.45,-190.1 1838.45,-190.1"/>
</g>
<!-- LkGraph?*** -->
<g id="node46" class="node">
<title>LkGraph?***</title>
<ellipse fill="gray" stroke="black" cx="1958.95" cy="-162" rx="38.21" ry="18"/>
<text text-anchor="middle" x="1958.95" y="-159.8" font-family="Times,serif" font-size="9.00">LkGraph?***</text>
</g>
<!-- Sequence******&#45;&gt;LkGraph?*** -->
<g id="edge45" class="edge">
<title>Sequence******&#45;&gt;LkGraph?***</title>
<path fill="none" stroke="black" d="M1861.25,-218.15C1880.24,-207.44 1906,-192.89 1926.31,-181.43"/>
<polygon fill="black" stroke="black" points="1928.22,-184.37 1935.21,-176.4 1924.78,-178.27 1928.22,-184.37"/>
</g>
<!-- Fallback****** -->
<g id="node47" class="node">
<title>Fallback******</title>
<polygon fill="cyan" stroke="black" points="2107.44,-154.54 2107.44,-169.46 2080.21,-180 2041.69,-180 2014.46,-169.46 2014.46,-154.54 2041.69,-144 2080.21,-144 2107.44,-154.54"/>
<text text-anchor="middle" x="2060.95" y="-159.8" font-family="Times,serif" font-size="9.00">Fallback******</text>
</g>
<!-- Sequence******&#45;&gt;Fallback****** -->
<g id="edge46" class="edge">
<title>Sequence******&#45;&gt;Fallback******</title>
<path fill="none" stroke="black" d="M1871.01,-221.83C1910.35,-209.65 1973.39,-190.12 2015.95,-176.94"/>
<polygon fill="black" stroke="black" points="2017.25,-180.2 2025.76,-173.9 2015.17,-173.51 2017.25,-180.2"/>
</g>
<!-- CompLkGraph!* -->
<g id="node48" class="node">
<title>CompLkGraph!*</title>
<ellipse fill="gray" stroke="black" cx="1956.95" cy="-90" rx="45.07" ry="18"/>
<text text-anchor="middle" x="1956.95" y="-87.8" font-family="Times,serif" font-size="9.00">CompLkGraph!*</text>
</g>
<!-- Fallback******&#45;&gt;CompLkGraph!* -->
<g id="edge47" class="edge">
<title>Fallback******&#45;&gt;CompLkGraph!*</title>
<path fill="none" stroke="black" d="M2037.87,-145.46C2023.02,-135.47 2003.57,-122.38 1987.46,-111.53"/>
<polygon fill="black" stroke="black" points="1989.15,-108.45 1978.9,-105.77 1985.24,-114.26 1989.15,-108.45"/>
</g>
<!-- LkGraph?**** -->
<g id="node49" class="node">
<title>LkGraph?****</title>
<ellipse fill="gray" stroke="black" cx="2060.95" cy="-90" rx="40.98" ry="18"/>
<text text-anchor="middle" x="2060.95" y="-87.8" font-family="Times,serif" font-size="9.00">LkGraph?****</text>
</g>
<!-- Fallback******&#45;&gt;LkGraph?**** -->
<g id="edge48" class="edge">
<title>Fallback******&#45;&gt;LkGraph?****</title>
<path fill="none" stroke="black" d="M2060.95,-143.7C2060.95,-135.98 2060.95,-126.71 2060.95,-118.11"/>
<polygon fill="black" stroke="black" points="2064.45,-118.1 2060.95,-108.1 2057.45,-118.1 2064.45,-118.1"/>
</g>
<!-- MoveTo!**** -->
<g id="node50" class="node">
<title>MoveTo!****</title>
<ellipse fill="gray" stroke="black" cx="2158.95" cy="-90" rx="39.02" ry="18"/>
<text text-anchor="middle" x="2158.95" y="-87.8" font-family="Times,serif" font-size="9.00">MoveTo!****</text>
</g>
<!-- Fallback******&#45;&gt;MoveTo!**** -->
<g id="edge49" class="edge">
<title>Fallback******&#45;&gt;MoveTo!****</title>
<path fill="none" stroke="black" d="M2083.19,-145.12C2097.07,-135.2 2115.08,-122.34 2130.06,-111.64"/>
<polygon fill="black" stroke="black" points="2132.37,-114.29 2138.47,-105.63 2128.3,-108.59 2132.37,-114.29"/>
</g>
</g>
</svg>
