<?xml version="1.0" encoding="UTF-8" standalone="no"?>
<!DOCTYPE svg PUBLIC "-//W3C//DTD SVG 1.1//EN"
 "http://www.w3.org/Graphics/SVG/1.1/DTD/svg11.dtd">
<!-- Generated by graphviz version 2.43.0 (0)
 -->
<!-- Title: pastafarianism Pages: 1 -->
<svg width="714pt" height="404pt"
 viewBox="0.00 0.00 714.47 404.00" xmlns="http://www.w3.org/2000/svg" xmlns:xlink="http://www.w3.org/1999/xlink">
<g id="graph0" class="graph" transform="scale(1 1) rotate(0) translate(4 400)">
<title>pastafarianism</title>
<polygon fill="white" stroke="transparent" points="-4,4 -4,-400 710.47,-400 710.47,4 -4,4"/>
<!-- Fallback -->
<g id="node1" class="node">
<title>Fallback</title>
<polygon fill="cyan" stroke="black" points="543.84,-370.54 543.84,-385.46 526.71,-396 502.49,-396 485.36,-385.46 485.36,-370.54 502.49,-360 526.71,-360 543.84,-370.54"/>
<text text-anchor="middle" x="514.6" y="-375.8" font-family="Times,serif" font-size="9.00">Fallback</text>
</g>
<!-- ReachGoal? -->
<g id="node2" class="node">
<title>ReachGoal?</title>
<ellipse fill="gray" stroke="black" cx="473.6" cy="-306" rx="34.13" ry="18"/>
<text text-anchor="middle" x="473.6" y="-303.8" font-family="Times,serif" font-size="9.00">ReachGoal?</text>
</g>
<!-- Fallback&#45;&gt;ReachGoal? -->
<g id="edge1" class="edge">
<title>Fallback&#45;&gt;ReachGoal?</title>
<path fill="none" stroke="black" d="M504.46,-359.7C499.63,-351.44 493.74,-341.39 488.42,-332.3"/>
<polygon fill="black" stroke="black" points="491.41,-330.48 483.34,-323.62 485.37,-334.02 491.41,-330.48"/>
</g>
<!-- Sequence -->
<g id="node3" class="node">
<title>Sequence</title>
<polygon fill="cyan" stroke="black" points="588.09,-298.54 588.09,-313.46 569.64,-324 543.55,-324 525.11,-313.46 525.11,-298.54 543.55,-288 569.64,-288 588.09,-298.54"/>
<text text-anchor="middle" x="556.6" y="-303.8" font-family="Times,serif" font-size="9.00">Sequence</text>
</g>
<!-- Fallback&#45;&gt;Sequence -->
<g id="edge2" class="edge">
<title>Fallback&#45;&gt;Sequence</title>
<path fill="none" stroke="black" d="M524.98,-359.7C529.86,-351.56 535.79,-341.69 541.18,-332.7"/>
<polygon fill="black" stroke="black" points="544.19,-334.48 546.34,-324.1 538.19,-330.88 544.19,-334.48"/>
</g>
<!-- Fallback* -->
<g id="node4" class="node">
<title>Fallback*</title>
<polygon fill="cyan" stroke="black" points="465.34,-226.54 465.34,-241.46 446.75,-252 420.45,-252 401.86,-241.46 401.86,-226.54 420.45,-216 446.75,-216 465.34,-226.54"/>
<text text-anchor="middle" x="433.6" y="-231.8" font-family="Times,serif" font-size="9.00">Fallback*</text>
</g>
<!-- Sequence&#45;&gt;Fallback* -->
<g id="edge3" class="edge">
<title>Sequence&#45;&gt;Fallback*</title>
<path fill="none" stroke="black" d="M534.89,-292.65C515.34,-281.52 486.39,-265.04 464.43,-252.55"/>
<polygon fill="black" stroke="black" points="465.93,-249.37 455.5,-247.47 462.46,-255.45 465.93,-249.37"/>
</g>
<!-- MoveTo!* -->
<g id="node22" class="node">
<title>MoveTo!*</title>
<ellipse fill="gray" stroke="black" cx="515.6" cy="-234" rx="31.51" ry="18"/>
<text text-anchor="middle" x="515.6" y="-231.8" font-family="Times,serif" font-size="9.00">MoveTo!*</text>
</g>
<!-- Sequence&#45;&gt;MoveTo!* -->
<g id="edge21" class="edge">
<title>Sequence&#45;&gt;MoveTo!*</title>
<path fill="none" stroke="black" d="M546.46,-287.7C541.63,-279.44 535.74,-269.39 530.42,-260.3"/>
<polygon fill="black" stroke="black" points="533.41,-258.48 525.34,-251.62 527.37,-262.02 533.41,-258.48"/>
</g>
<!-- LkClose?* -->
<g id="node23" class="node">
<title>LkClose?*</title>
<ellipse fill="gray" stroke="black" cx="597.6" cy="-234" rx="31.51" ry="18"/>
<text text-anchor="middle" x="597.6" y="-231.8" font-family="Times,serif" font-size="9.00">LkClose?*</text>
</g>
<!-- Sequence&#45;&gt;LkClose?* -->
<g id="edge22" class="edge">
<title>Sequence&#45;&gt;LkClose?*</title>
<path fill="none" stroke="black" d="M566.73,-287.7C571.57,-279.44 577.45,-269.39 582.78,-260.3"/>
<polygon fill="black" stroke="black" points="585.83,-262.02 587.86,-251.62 579.79,-258.48 585.83,-262.02"/>
</g>
<!-- GetLk! -->
<g id="node24" class="node">
<title>GetLk!</title>
<ellipse fill="gray" stroke="black" cx="674.6" cy="-234" rx="27" ry="18"/>
<text text-anchor="middle" x="674.6" y="-231.8" font-family="Times,serif" font-size="9.00">GetLk!</text>
</g>
<!-- Sequence&#45;&gt;GetLk! -->
<g id="edge23" class="edge">
<title>Sequence&#45;&gt;GetLk!</title>
<path fill="none" stroke="black" d="M577.7,-292.49C596.75,-281.18 624.96,-264.45 646.03,-251.95"/>
<polygon fill="black" stroke="black" points="648.05,-254.82 654.86,-246.71 644.48,-248.8 648.05,-254.82"/>
</g>
<!-- Sequence* -->
<g id="node5" class="node">
<title>Sequence*</title>
<polygon fill="cyan" stroke="black" points="220.84,-154.54 220.84,-169.46 200.78,-180 172.42,-180 152.36,-169.46 152.36,-154.54 172.42,-144 200.78,-144 220.84,-154.54"/>
<text text-anchor="middle" x="186.6" y="-159.8" font-family="Times,serif" font-size="9.00">Sequence*</text>
</g>
<!-- Fallback*&#45;&gt;Sequence* -->
<g id="edge4" class="edge">
<title>Fallback*&#45;&gt;Sequence*</title>
<path fill="none" stroke="black" d="M402.5,-226.17C362.2,-217.03 289.96,-199.69 229.6,-180 227.2,-179.22 224.73,-178.37 222.26,-177.48"/>
<polygon fill="black" stroke="black" points="223.39,-174.17 212.79,-173.94 220.94,-180.72 223.39,-174.17"/>
</g>
<!-- NotReadyForSG? -->
<g id="node11" class="node">
<title>NotReadyForSG?</title>
<ellipse fill="gray" stroke="black" cx="285.6" cy="-162" rx="46.53" ry="18"/>
<text text-anchor="middle" x="285.6" y="-159.8" font-family="Times,serif" font-size="9.00">NotReadyForSG?</text>
</g>
<!-- Fallback*&#45;&gt;NotReadyForSG? -->
<g id="edge10" class="edge">
<title>Fallback*&#45;&gt;NotReadyForSG?</title>
<path fill="none" stroke="black" d="M409.82,-221.75C386.43,-210.69 350.37,-193.63 323.11,-180.74"/>
<polygon fill="black" stroke="black" points="324.41,-177.48 313.87,-176.37 321.42,-183.81 324.41,-177.48"/>
</g>
<!-- GetSubGoal! -->
<g id="node12" class="node">
<title>GetSubGoal!</title>
<ellipse fill="gray" stroke="black" cx="387.6" cy="-162" rx="36.9" ry="18"/>
<text text-anchor="middle" x="387.6" y="-159.8" font-family="Times,serif" font-size="9.00">GetSubGoal!</text>
</g>
<!-- Fallback*&#45;&gt;GetSubGoal! -->
<g id="edge11" class="edge">
<title>Fallback*&#45;&gt;GetSubGoal!</title>
<path fill="none" stroke="black" d="M422.23,-215.7C416.74,-207.35 410.06,-197.18 404.04,-188.02"/>
<polygon fill="black" stroke="black" points="406.94,-186.06 398.52,-179.62 401.09,-189.9 406.94,-186.06"/>
</g>
<!-- Sequence** -->
<g id="node13" class="node">
<title>Sequence**</title>
<polygon fill="cyan" stroke="black" points="516.34,-154.54 516.34,-169.46 494.82,-180 464.38,-180 442.86,-169.46 442.86,-154.54 464.38,-144 494.82,-144 516.34,-154.54"/>
<text text-anchor="middle" x="479.6" y="-159.8" font-family="Times,serif" font-size="9.00">Sequence**</text>
</g>
<!-- Fallback*&#45;&gt;Sequence** -->
<g id="edge12" class="edge">
<title>Fallback*&#45;&gt;Sequence**</title>
<path fill="none" stroke="black" d="M444.97,-215.7C450.32,-207.56 456.8,-197.69 462.71,-188.7"/>
<polygon fill="black" stroke="black" points="465.79,-190.38 468.36,-180.1 459.94,-186.54 465.79,-190.38"/>
</g>
<!-- CompLkGraph!** -->
<g id="node20" class="node">
<title>CompLkGraph!**</title>
<ellipse fill="gray" stroke="black" cx="582.6" cy="-162" rx="47.84" ry="18"/>
<text text-anchor="middle" x="582.6" y="-159.8" font-family="Times,serif" font-size="9.00">CompLkGraph!**</text>
</g>
<!-- Fallback*&#45;&gt;CompLkGraph!** -->
<g id="edge19" class="edge">
<title>Fallback*&#45;&gt;CompLkGraph!**</title>
<path fill="none" stroke="black" d="M457.21,-221.91C480.62,-210.91 516.89,-193.87 544.41,-180.94"/>
<polygon fill="black" stroke="black" points="546.18,-183.98 553.74,-176.56 543.2,-177.64 546.18,-183.98"/>
</g>
<!-- LkClose? -->
<g id="node21" class="node">
<title>LkClose?</title>
<ellipse fill="gray" stroke="black" cx="677.6" cy="-162" rx="28.74" ry="18"/>
<text text-anchor="middle" x="677.6" y="-159.8" font-family="Times,serif" font-size="9.00">LkClose?</text>
</g>
<!-- Fallback*&#45;&gt;LkClose? -->
<g id="edge20" class="edge">
<title>Fallback*&#45;&gt;LkClose?</title>
<path fill="none" stroke="black" d="M458.05,-222.03C463.44,-219.85 469.16,-217.71 474.6,-216 546.22,-193.54 568.3,-203.45 639.6,-180 641.72,-179.3 643.88,-178.53 646.04,-177.7"/>
<polygon fill="black" stroke="black" points="647.48,-180.89 655.4,-173.85 644.82,-174.42 647.48,-180.89"/>
</g>
<!-- Fallback** -->
<g id="node6" class="node">
<title>Fallback**</title>
<polygon fill="cyan" stroke="black" points="151.59,-82.54 151.59,-97.46 131.09,-108 102.11,-108 81.61,-97.46 81.61,-82.54 102.11,-72 131.09,-72 151.59,-82.54"/>
<text text-anchor="middle" x="116.6" y="-87.8" font-family="Times,serif" font-size="9.00">Fallback**</text>
</g>
<!-- Sequence*&#45;&gt;Fallback** -->
<g id="edge5" class="edge">
<title>Sequence*&#45;&gt;Fallback**</title>
<path fill="none" stroke="black" d="M170.36,-144.76C161.48,-135.88 150.31,-124.71 140.45,-114.85"/>
<polygon fill="black" stroke="black" points="142.78,-112.23 133.23,-107.63 137.83,-117.18 142.78,-112.23"/>
</g>
<!-- ReachGoal?** -->
<g id="node10" class="node">
<title>ReachGoal?**</title>
<ellipse fill="gray" stroke="black" cx="208.6" cy="-90" rx="39.02" ry="18"/>
<text text-anchor="middle" x="208.6" y="-87.8" font-family="Times,serif" font-size="9.00">ReachGoal?**</text>
</g>
<!-- Sequence*&#45;&gt;ReachGoal?** -->
<g id="edge9" class="edge">
<title>Sequence*&#45;&gt;ReachGoal?**</title>
<path fill="none" stroke="black" d="M192.04,-143.7C194.49,-135.9 197.44,-126.51 200.17,-117.83"/>
<polygon fill="black" stroke="black" points="203.56,-118.69 203.22,-108.1 196.89,-116.59 203.56,-118.69"/>
</g>
<!-- LkGraph? -->
<g id="node7" class="node">
<title>LkGraph?</title>
<ellipse fill="gray" stroke="black" cx="30.6" cy="-18" rx="30.7" ry="18"/>
<text text-anchor="middle" x="30.6" y="-15.8" font-family="Times,serif" font-size="9.00">LkGraph?</text>
</g>
<!-- Fallback**&#45;&gt;LkGraph? -->
<g id="edge6" class="edge">
<title>Fallback**&#45;&gt;LkGraph?</title>
<path fill="none" stroke="black" d="M97.94,-73.81C85.58,-63.75 69.23,-50.44 55.74,-39.46"/>
<polygon fill="black" stroke="black" points="57.73,-36.57 47.76,-32.97 53.31,-42 57.73,-36.57"/>
</g>
<!-- ReachGoal?* -->
<g id="node8" class="node">
<title>ReachGoal?*</title>
<ellipse fill="gray" stroke="black" cx="116.6" cy="-18" rx="36.9" ry="18"/>
<text text-anchor="middle" x="116.6" y="-15.8" font-family="Times,serif" font-size="9.00">ReachGoal?*</text>
</g>
<!-- Fallback**&#45;&gt;ReachGoal?* -->
<g id="edge7" class="edge">
<title>Fallback**&#45;&gt;ReachGoal?*</title>
<path fill="none" stroke="black" d="M116.6,-71.7C116.6,-63.98 116.6,-54.71 116.6,-46.11"/>
<polygon fill="black" stroke="black" points="120.1,-46.1 116.6,-36.1 113.1,-46.1 120.1,-46.1"/>
</g>
<!-- CompLkGraph! -->
<g id="node9" class="node">
<title>CompLkGraph!</title>
<ellipse fill="gray" stroke="black" cx="214.6" cy="-18" rx="42.95" ry="18"/>
<text text-anchor="middle" x="214.6" y="-15.8" font-family="Times,serif" font-size="9.00">CompLkGraph!</text>
</g>
<!-- Fallback**&#45;&gt;CompLkGraph! -->
<g id="edge8" class="edge">
<title>Fallback**&#45;&gt;CompLkGraph!</title>
<path fill="none" stroke="black" d="M136.91,-74.5C150.91,-64.49 169.74,-51.05 185.35,-39.89"/>
<polygon fill="black" stroke="black" points="187.54,-42.63 193.64,-33.97 183.47,-36.93 187.54,-42.63"/>
</g>
<!-- CompLkGraph!* -->
<g id="node14" class="node">
<title>CompLkGraph!*</title>
<ellipse fill="gray" stroke="black" cx="353.6" cy="-90" rx="45.07" ry="18"/>
<text text-anchor="middle" x="353.6" y="-87.8" font-family="Times,serif" font-size="9.00">CompLkGraph!*</text>
</g>
<!-- Sequence**&#45;&gt;CompLkGraph!* -->
<g id="edge13" class="edge">
<title>Sequence**&#45;&gt;CompLkGraph!*</title>
<path fill="none" stroke="black" d="M456.2,-148C437.02,-137.34 409.6,-122.11 387.94,-110.08"/>
<polygon fill="black" stroke="black" points="389.48,-106.93 379.04,-105.14 386.08,-113.05 389.48,-106.93"/>
</g>
<!-- ReachGoal?*** -->
<g id="node15" class="node">
<title>ReachGoal?***</title>
<ellipse fill="gray" stroke="black" cx="458.6" cy="-90" rx="42.29" ry="18"/>
<text text-anchor="middle" x="458.6" y="-87.8" font-family="Times,serif" font-size="9.00">ReachGoal?***</text>
</g>
<!-- Sequence**&#45;&gt;ReachGoal?*** -->
<g id="edge14" class="edge">
<title>Sequence**&#45;&gt;ReachGoal?***</title>
<path fill="none" stroke="black" d="M474.41,-143.7C472.07,-135.9 469.25,-126.51 466.65,-117.83"/>
<polygon fill="black" stroke="black" points="469.96,-116.68 463.73,-108.1 463.25,-118.69 469.96,-116.68"/>
</g>
<!-- Fallback*** -->
<g id="node16" class="node">
<title>Fallback***</title>
<polygon fill="cyan" stroke="black" points="594.09,-82.54 594.09,-97.46 572.13,-108 541.07,-108 519.11,-97.46 519.11,-82.54 541.07,-72 572.13,-72 594.09,-82.54"/>
<text text-anchor="middle" x="556.6" y="-87.8" font-family="Times,serif" font-size="9.00">Fallback***</text>
</g>
<!-- Sequence**&#45;&gt;Fallback*** -->
<g id="edge15" class="edge">
<title>Sequence**&#45;&gt;Fallback***</title>
<path fill="none" stroke="black" d="M497.46,-144.76C507.47,-135.66 520.12,-124.16 531.15,-114.13"/>
<polygon fill="black" stroke="black" points="533.79,-116.46 538.84,-107.15 529.08,-111.28 533.79,-116.46"/>
</g>
<!-- MoveTo! -->
<g id="node19" class="node">
<title>MoveTo!</title>
<ellipse fill="gray" stroke="black" cx="640.6" cy="-90" rx="28.74" ry="18"/>
<text text-anchor="middle" x="640.6" y="-87.8" font-family="Times,serif" font-size="9.00">MoveTo!</text>
</g>
<!-- Sequence**&#45;&gt;MoveTo! -->
<g id="edge18" class="edge">
<title>Sequence**&#45;&gt;MoveTo!</title>
<path fill="none" stroke="black" d="M506.52,-149.53C531.47,-138.86 569.6,-122.49 602.6,-108 604.44,-107.19 606.32,-106.36 608.22,-105.52"/>
<polygon fill="black" stroke="black" points="610,-108.56 617.71,-101.3 607.16,-102.16 610,-108.56"/>
</g>
<!-- NotReadyForSG?* -->
<g id="node17" class="node">
<title>NotReadyForSG?*</title>
<ellipse fill="gray" stroke="black" cx="502.6" cy="-18" rx="49.8" ry="18"/>
<text text-anchor="middle" x="502.6" y="-15.8" font-family="Times,serif" font-size="9.00">NotReadyForSG?*</text>
</g>
<!-- Fallback***&#45;&gt;NotReadyForSG?* -->
<g id="edge16" class="edge">
<title>Fallback***&#45;&gt;NotReadyForSG?*</title>
<path fill="none" stroke="black" d="M543.25,-71.7C536.75,-63.27 528.81,-52.97 521.68,-43.73"/>
<polygon fill="black" stroke="black" points="524.3,-41.4 515.42,-35.62 518.76,-45.68 524.3,-41.4"/>
</g>
<!-- GetSubGoal!* -->
<g id="node18" class="node">
<title>GetSubGoal!*</title>
<ellipse fill="gray" stroke="black" cx="609.6" cy="-18" rx="39.02" ry="18"/>
<text text-anchor="middle" x="609.6" y="-15.8" font-family="Times,serif" font-size="9.00">GetSubGoal!*</text>
</g>
<!-- Fallback***&#45;&gt;GetSubGoal!* -->
<g id="edge17" class="edge">
<title>Fallback***&#45;&gt;GetSubGoal!*</title>
<path fill="none" stroke="black" d="M569.7,-71.7C576.18,-63.14 584.11,-52.67 591.18,-43.33"/>
<polygon fill="black" stroke="black" points="594.13,-45.23 597.38,-35.14 588.55,-41 594.13,-45.23"/>
</g>
</g>
</svg>
