<?xml version="1.0" encoding="UTF-8" standalone="no"?>
<!DOCTYPE svg PUBLIC "-//W3C//DTD SVG 1.1//EN"
 "http://www.w3.org/Graphics/SVG/1.1/DTD/svg11.dtd">
<!-- Generated by graphviz version 2.43.0 (0)
 -->
<!-- Title: pastafarianism Pages: 1 -->
<svg width="566pt" height="404pt"
 viewBox="0.00 0.00 565.60 404.00" xmlns="http://www.w3.org/2000/svg" xmlns:xlink="http://www.w3.org/1999/xlink">
<g id="graph0" class="graph" transform="scale(1 1) rotate(0) translate(4 400)">
<title>pastafarianism</title>
<polygon fill="white" stroke="transparent" points="-4,4 -4,-400 561.6,-400 561.6,4 -4,4"/>
<!-- Fallback -->
<g id="node1" class="node">
<title>Fallback</title>
<polygon fill="cyan" stroke="black" points="364.84,-370.54 364.84,-385.46 347.71,-396 323.49,-396 306.36,-385.46 306.36,-370.54 323.49,-360 347.71,-360 364.84,-370.54"/>
<text text-anchor="middle" x="335.6" y="-375.8" font-family="Times,serif" font-size="9.00">Fallback</text>
</g>
<!-- ReachGoal? -->
<g id="node2" class="node">
<title>ReachGoal?</title>
<ellipse fill="gray" stroke="black" cx="294.6" cy="-306" rx="34.13" ry="18"/>
<text text-anchor="middle" x="294.6" y="-303.8" font-family="Times,serif" font-size="9.00">ReachGoal?</text>
</g>
<!-- Fallback&#45;&gt;ReachGoal? -->
<g id="edge1" class="edge">
<title>Fallback&#45;&gt;ReachGoal?</title>
<path fill="none" stroke="black" d="M325.46,-359.7C320.63,-351.44 314.74,-341.39 309.42,-332.3"/>
<polygon fill="black" stroke="black" points="312.41,-330.48 304.34,-323.62 306.37,-334.02 312.41,-330.48"/>
</g>
<!-- Sequence -->
<g id="node3" class="node">
<title>Sequence</title>
<polygon fill="cyan" stroke="black" points="409.09,-298.54 409.09,-313.46 390.64,-324 364.55,-324 346.11,-313.46 346.11,-298.54 364.55,-288 390.64,-288 409.09,-298.54"/>
<text text-anchor="middle" x="377.6" y="-303.8" font-family="Times,serif" font-size="9.00">Sequence</text>
</g>
<!-- Fallback&#45;&gt;Sequence -->
<g id="edge2" class="edge">
<title>Fallback&#45;&gt;Sequence</title>
<path fill="none" stroke="black" d="M345.98,-359.7C350.86,-351.56 356.79,-341.69 362.18,-332.7"/>
<polygon fill="black" stroke="black" points="365.19,-334.48 367.34,-324.1 359.19,-330.88 365.19,-334.48"/>
</g>
<!-- Fallback* -->
<g id="node4" class="node">
<title>Fallback*</title>
<polygon fill="cyan" stroke="black" points="251.34,-226.54 251.34,-241.46 232.75,-252 206.45,-252 187.86,-241.46 187.86,-226.54 206.45,-216 232.75,-216 251.34,-226.54"/>
<text text-anchor="middle" x="219.6" y="-231.8" font-family="Times,serif" font-size="9.00">Fallback*</text>
</g>
<!-- Sequence&#45;&gt;Fallback* -->
<g id="edge3" class="edge">
<title>Sequence&#45;&gt;Fallback*</title>
<path fill="none" stroke="black" d="M353.26,-294.22C326.47,-282.35 283.22,-263.19 253.21,-249.89"/>
<polygon fill="black" stroke="black" points="254.53,-246.65 243.97,-245.8 251.69,-253.05 254.53,-246.65"/>
</g>
<!-- MoveTo! -->
<g id="node12" class="node">
<title>MoveTo!</title>
<ellipse fill="gray" stroke="black" cx="298.6" cy="-234" rx="28.74" ry="18"/>
<text text-anchor="middle" x="298.6" y="-231.8" font-family="Times,serif" font-size="9.00">MoveTo!</text>
</g>
<!-- Sequence&#45;&gt;MoveTo! -->
<g id="edge11" class="edge">
<title>Sequence&#45;&gt;MoveTo!</title>
<path fill="none" stroke="black" d="M360.46,-289.81C349.29,-279.92 334.57,-266.87 322.29,-255.99"/>
<polygon fill="black" stroke="black" points="324.44,-253.22 314.63,-249.21 319.79,-258.46 324.44,-253.22"/>
</g>
<!-- MoveTo!* -->
<g id="node13" class="node">
<title>MoveTo!*</title>
<ellipse fill="gray" stroke="black" cx="377.6" cy="-234" rx="31.51" ry="18"/>
<text text-anchor="middle" x="377.6" y="-231.8" font-family="Times,serif" font-size="9.00">MoveTo!*</text>
</g>
<!-- Sequence&#45;&gt;MoveTo!* -->
<g id="edge12" class="edge">
<title>Sequence&#45;&gt;MoveTo!*</title>
<path fill="none" stroke="black" d="M377.6,-287.7C377.6,-279.98 377.6,-270.71 377.6,-262.11"/>
<polygon fill="black" stroke="black" points="381.1,-262.1 377.6,-252.1 374.1,-262.1 381.1,-262.1"/>
</g>
<!-- LkClose? -->
<g id="node14" class="node">
<title>LkClose?</title>
<ellipse fill="gray" stroke="black" cx="456.6" cy="-234" rx="28.74" ry="18"/>
<text text-anchor="middle" x="456.6" y="-231.8" font-family="Times,serif" font-size="9.00">LkClose?</text>
</g>
<!-- Sequence&#45;&gt;LkClose? -->
<g id="edge13" class="edge">
<title>Sequence&#45;&gt;LkClose?</title>
<path fill="none" stroke="black" d="M394.74,-289.81C405.91,-279.92 420.63,-266.87 432.91,-255.99"/>
<polygon fill="black" stroke="black" points="435.4,-258.46 440.57,-249.21 430.76,-253.22 435.4,-258.46"/>
</g>
<!-- GetLk! -->
<g id="node15" class="node">
<title>GetLk!</title>
<ellipse fill="gray" stroke="black" cx="530.6" cy="-234" rx="27" ry="18"/>
<text text-anchor="middle" x="530.6" y="-231.8" font-family="Times,serif" font-size="9.00">GetLk!</text>
</g>
<!-- Sequence&#45;&gt;GetLk! -->
<g id="edge14" class="edge">
<title>Sequence&#45;&gt;GetLk!</title>
<path fill="none" stroke="black" d="M401.85,-294.15C425.55,-283.51 462.62,-266.79 494.6,-252 496.39,-251.17 498.22,-250.32 500.07,-249.46"/>
<polygon fill="black" stroke="black" points="501.74,-252.54 509.31,-245.12 498.77,-246.2 501.74,-252.54"/>
</g>
<!-- Sequence* -->
<g id="node5" class="node">
<title>Sequence*</title>
<polygon fill="cyan" stroke="black" points="154.84,-154.54 154.84,-169.46 134.78,-180 106.42,-180 86.36,-169.46 86.36,-154.54 106.42,-144 134.78,-144 154.84,-154.54"/>
<text text-anchor="middle" x="120.6" y="-159.8" font-family="Times,serif" font-size="9.00">Sequence*</text>
</g>
<!-- Fallback*&#45;&gt;Sequence* -->
<g id="edge4" class="edge">
<title>Fallback*&#45;&gt;Sequence*</title>
<path fill="none" stroke="black" d="M200.04,-219.17C185.36,-208.79 165.04,-194.42 148.63,-182.82"/>
<polygon fill="black" stroke="black" points="150.64,-179.96 140.46,-177.04 146.6,-185.67 150.64,-179.96"/>
</g>
<!-- NotReadyForSG? -->
<g id="node10" class="node">
<title>NotReadyForSG?</title>
<ellipse fill="gray" stroke="black" cx="219.6" cy="-162" rx="46.53" ry="18"/>
<text text-anchor="middle" x="219.6" y="-159.8" font-family="Times,serif" font-size="9.00">NotReadyForSG?</text>
</g>
<!-- Fallback*&#45;&gt;NotReadyForSG? -->
<g id="edge9" class="edge">
<title>Fallback*&#45;&gt;NotReadyForSG?</title>
<path fill="none" stroke="black" d="M219.6,-215.7C219.6,-207.98 219.6,-198.71 219.6,-190.11"/>
<polygon fill="black" stroke="black" points="223.1,-190.1 219.6,-180.1 216.1,-190.1 223.1,-190.1"/>
</g>
<!-- GetSubGoal! -->
<g id="node11" class="node">
<title>GetSubGoal!</title>
<ellipse fill="gray" stroke="black" cx="321.6" cy="-162" rx="36.9" ry="18"/>
<text text-anchor="middle" x="321.6" y="-159.8" font-family="Times,serif" font-size="9.00">GetSubGoal!</text>
</g>
<!-- Fallback*&#45;&gt;GetSubGoal! -->
<g id="edge10" class="edge">
<title>Fallback*&#45;&gt;GetSubGoal!</title>
<path fill="none" stroke="black" d="M239.27,-219.5C254.35,-209.15 275.41,-194.7 292.45,-183"/>
<polygon fill="black" stroke="black" points="294.68,-185.72 300.94,-177.18 290.72,-179.95 294.68,-185.72"/>
</g>
<!-- Fallback** -->
<g id="node6" class="node">
<title>Fallback**</title>
<polygon fill="cyan" stroke="black" points="110.59,-82.54 110.59,-97.46 90.09,-108 61.11,-108 40.61,-97.46 40.61,-82.54 61.11,-72 90.09,-72 110.59,-82.54"/>
<text text-anchor="middle" x="75.6" y="-87.8" font-family="Times,serif" font-size="9.00">Fallback**</text>
</g>
<!-- Sequence*&#45;&gt;Fallback** -->
<g id="edge5" class="edge">
<title>Sequence*&#45;&gt;Fallback**</title>
<path fill="none" stroke="black" d="M109.48,-143.7C104.24,-135.56 97.9,-125.69 92.12,-116.7"/>
<polygon fill="black" stroke="black" points="94.95,-114.62 86.6,-108.1 89.06,-118.41 94.95,-114.62"/>
</g>
<!-- ReachGoal?* -->
<g id="node9" class="node">
<title>ReachGoal?*</title>
<ellipse fill="gray" stroke="black" cx="165.6" cy="-90" rx="36.9" ry="18"/>
<text text-anchor="middle" x="165.6" y="-87.8" font-family="Times,serif" font-size="9.00">ReachGoal?*</text>
</g>
<!-- Sequence*&#45;&gt;ReachGoal?* -->
<g id="edge8" class="edge">
<title>Sequence*&#45;&gt;ReachGoal?*</title>
<path fill="none" stroke="black" d="M131.72,-143.7C137.03,-135.44 143.49,-125.39 149.34,-116.3"/>
<polygon fill="black" stroke="black" points="152.45,-117.93 154.91,-107.62 146.56,-114.14 152.45,-117.93"/>
</g>
<!-- LkGraph? -->
<g id="node7" class="node">
<title>LkGraph?</title>
<ellipse fill="gray" stroke="black" cx="30.6" cy="-18" rx="30.7" ry="18"/>
<text text-anchor="middle" x="30.6" y="-15.8" font-family="Times,serif" font-size="9.00">LkGraph?</text>
</g>
<!-- Fallback**&#45;&gt;LkGraph? -->
<g id="edge6" class="edge">
<title>Fallback**&#45;&gt;LkGraph?</title>
<path fill="none" stroke="black" d="M64.48,-71.7C59.03,-63.23 52.38,-52.89 46.42,-43.61"/>
<polygon fill="black" stroke="black" points="49.33,-41.66 40.98,-35.14 43.44,-45.45 49.33,-41.66"/>
</g>
<!-- CompLkGraph! -->
<g id="node8" class="node">
<title>CompLkGraph!</title>
<ellipse fill="gray" stroke="black" cx="121.6" cy="-18" rx="42.95" ry="18"/>
<text text-anchor="middle" x="121.6" y="-15.8" font-family="Times,serif" font-size="9.00">CompLkGraph!</text>
</g>
<!-- Fallback**&#45;&gt;CompLkGraph! -->
<g id="edge7" class="edge">
<title>Fallback**&#45;&gt;CompLkGraph!</title>
<path fill="none" stroke="black" d="M86.97,-71.7C92.45,-63.35 99.14,-53.18 105.16,-44.02"/>
<polygon fill="black" stroke="black" points="108.11,-45.9 110.68,-35.62 102.26,-42.06 108.11,-45.9"/>
</g>
</g>
</svg>
