<?xml version="1.0" encoding="UTF-8" standalone="no"?>
<!DOCTYPE svg PUBLIC "-//W3C//DTD SVG 1.1//EN"
 "http://www.w3.org/Graphics/SVG/1.1/DTD/svg11.dtd">
<!-- Generated by graphviz version 2.43.0 (0)
 -->
<!-- Title: pastafarianism Pages: 1 -->
<svg width="439pt" height="260pt"
 viewBox="0.00 0.00 438.60 260.00" xmlns="http://www.w3.org/2000/svg" xmlns:xlink="http://www.w3.org/1999/xlink">
<g id="graph0" class="graph" transform="scale(1 1) rotate(0) translate(4 256)">
<title>pastafarianism</title>
<polygon fill="white" stroke="transparent" points="-4,4 -4,-256 434.6,-256 434.6,4 -4,4"/>
<!-- Fallback -->
<g id="node1" class="node">
<title>Fallback</title>
<polygon fill="cyan" stroke="black" points="320.84,-226.54 320.84,-241.46 303.71,-252 279.49,-252 262.36,-241.46 262.36,-226.54 279.49,-216 303.71,-216 320.84,-226.54"/>
<text text-anchor="middle" x="291.6" y="-231.8" font-family="Times,serif" font-size="9.00">Fallback</text>
</g>
<!-- Sequence -->
<g id="node2" class="node">
<title>Sequence</title>
<polygon fill="cyan" stroke="black" points="323.09,-154.54 323.09,-169.46 304.64,-180 278.55,-180 260.11,-169.46 260.11,-154.54 278.55,-144 304.64,-144 323.09,-154.54"/>
<text text-anchor="middle" x="291.6" y="-159.8" font-family="Times,serif" font-size="9.00">Sequence</text>
</g>
<!-- Fallback&#45;&gt;Sequence -->
<g id="edge1" class="edge">
<title>Fallback&#45;&gt;Sequence</title>
<path fill="none" stroke="black" d="M291.6,-215.7C291.6,-207.98 291.6,-198.71 291.6,-190.11"/>
<polygon fill="black" stroke="black" points="295.1,-190.1 291.6,-180.1 288.1,-190.1 295.1,-190.1"/>
</g>
<!-- Fallback* -->
<g id="node3" class="node">
<title>Fallback*</title>
<polygon fill="cyan" stroke="black" points="206.34,-82.54 206.34,-97.46 187.75,-108 161.45,-108 142.86,-97.46 142.86,-82.54 161.45,-72 187.75,-72 206.34,-82.54"/>
<text text-anchor="middle" x="174.6" y="-87.8" font-family="Times,serif" font-size="9.00">Fallback*</text>
</g>
<!-- Sequence&#45;&gt;Fallback* -->
<g id="edge2" class="edge">
<title>Sequence&#45;&gt;Fallback*</title>
<path fill="none" stroke="black" d="M270.68,-148.49C252.25,-137.46 225.17,-121.26 204.46,-108.86"/>
<polygon fill="black" stroke="black" points="206.11,-105.77 195.73,-103.64 202.51,-111.78 206.11,-105.77"/>
</g>
<!-- MoveTo! -->
<g id="node8" class="node">
<title>MoveTo!</title>
<ellipse fill="gray" stroke="black" cx="253.6" cy="-90" rx="28.74" ry="18"/>
<text text-anchor="middle" x="253.6" y="-87.8" font-family="Times,serif" font-size="9.00">MoveTo!</text>
</g>
<!-- Sequence&#45;&gt;MoveTo! -->
<g id="edge7" class="edge">
<title>Sequence&#45;&gt;MoveTo!</title>
<path fill="none" stroke="black" d="M282.21,-143.7C277.77,-135.52 272.38,-125.6 267.49,-116.58"/>
<polygon fill="black" stroke="black" points="270.47,-114.74 262.62,-107.62 264.32,-118.08 270.47,-114.74"/>
</g>
<!-- LkClose? -->
<g id="node9" class="node">
<title>LkClose?</title>
<ellipse fill="gray" stroke="black" cx="329.6" cy="-90" rx="28.74" ry="18"/>
<text text-anchor="middle" x="329.6" y="-87.8" font-family="Times,serif" font-size="9.00">LkClose?</text>
</g>
<!-- Sequence&#45;&gt;LkClose? -->
<g id="edge8" class="edge">
<title>Sequence&#45;&gt;LkClose?</title>
<path fill="none" stroke="black" d="M300.99,-143.7C305.43,-135.52 310.82,-125.6 315.71,-116.58"/>
<polygon fill="black" stroke="black" points="318.88,-118.08 320.58,-107.62 312.73,-114.74 318.88,-118.08"/>
</g>
<!-- GetLk! -->
<g id="node10" class="node">
<title>GetLk!</title>
<ellipse fill="gray" stroke="black" cx="403.6" cy="-90" rx="27" ry="18"/>
<text text-anchor="middle" x="403.6" y="-87.8" font-family="Times,serif" font-size="9.00">GetLk!</text>
</g>
<!-- Sequence&#45;&gt;GetLk! -->
<g id="edge9" class="edge">
<title>Sequence&#45;&gt;GetLk!</title>
<path fill="none" stroke="black" d="M312.14,-148.16C330,-137 356.02,-120.74 375.74,-108.41"/>
<polygon fill="black" stroke="black" points="377.69,-111.32 384.31,-103.06 373.98,-105.39 377.69,-111.32"/>
</g>
<!-- LkGraph? -->
<g id="node4" class="node">
<title>LkGraph?</title>
<ellipse fill="gray" stroke="black" cx="30.6" cy="-18" rx="30.7" ry="18"/>
<text text-anchor="middle" x="30.6" y="-15.8" font-family="Times,serif" font-size="9.00">LkGraph?</text>
</g>
<!-- Fallback*&#45;&gt;LkGraph? -->
<g id="edge3" class="edge">
<title>Fallback*&#45;&gt;LkGraph?</title>
<path fill="none" stroke="black" d="M151.14,-77.6C127.15,-65.94 89.7,-47.73 62.91,-34.71"/>
<polygon fill="black" stroke="black" points="64.09,-31.39 53.57,-30.17 61.03,-37.69 64.09,-31.39"/>
</g>
<!-- CompLkGraph! -->
<g id="node5" class="node">
<title>CompLkGraph!</title>
<ellipse fill="gray" stroke="black" cx="121.6" cy="-18" rx="42.95" ry="18"/>
<text text-anchor="middle" x="121.6" y="-15.8" font-family="Times,serif" font-size="9.00">CompLkGraph!</text>
</g>
<!-- Fallback*&#45;&gt;CompLkGraph! -->
<g id="edge4" class="edge">
<title>Fallback*&#45;&gt;CompLkGraph!</title>
<path fill="none" stroke="black" d="M161.5,-71.7C155.11,-63.27 147.32,-52.97 140.33,-43.73"/>
<polygon fill="black" stroke="black" points="143.01,-41.48 134.19,-35.62 137.43,-45.71 143.01,-41.48"/>
</g>
<!-- NotReadyForSG? -->
<g id="node6" class="node">
<title>NotReadyForSG?</title>
<ellipse fill="gray" stroke="black" cx="228.6" cy="-18" rx="46.53" ry="18"/>
<text text-anchor="middle" x="228.6" y="-15.8" font-family="Times,serif" font-size="9.00">NotReadyForSG?</text>
</g>
<!-- Fallback*&#45;&gt;NotReadyForSG? -->
<g id="edge5" class="edge">
<title>Fallback*&#45;&gt;NotReadyForSG?</title>
<path fill="none" stroke="black" d="M187.95,-71.7C194.45,-63.27 202.39,-52.97 209.52,-43.73"/>
<polygon fill="black" stroke="black" points="212.44,-45.68 215.78,-35.62 206.9,-41.4 212.44,-45.68"/>
</g>
<!-- GetSubGoal! -->
<g id="node7" class="node">
<title>GetSubGoal!</title>
<ellipse fill="gray" stroke="black" cx="330.6" cy="-18" rx="36.9" ry="18"/>
<text text-anchor="middle" x="330.6" y="-15.8" font-family="Times,serif" font-size="9.00">GetSubGoal!</text>
</g>
<!-- Fallback*&#45;&gt;GetSubGoal! -->
<g id="edge6" class="edge">
<title>Fallback*&#45;&gt;GetSubGoal!</title>
<path fill="none" stroke="black" d="M198.97,-78.06C224.69,-66.52 265.48,-48.22 294.83,-35.05"/>
<polygon fill="black" stroke="black" points="296.62,-38.08 304.31,-30.8 293.76,-31.7 296.62,-38.08"/>
</g>
</g>
</svg>
