<?xml version="1.0" encoding="UTF-8" standalone="no"?>
<!DOCTYPE svg PUBLIC "-//W3C//DTD SVG 1.1//EN"
 "http://www.w3.org/Graphics/SVG/1.1/DTD/svg11.dtd">
<!-- Generated by graphviz version 2.43.0 (0)
 -->
<!-- Title: pastafarianism Pages: 1 -->
<svg width="325pt" height="260pt"
 viewBox="0.00 0.00 324.82 260.00" xmlns="http://www.w3.org/2000/svg" xmlns:xlink="http://www.w3.org/1999/xlink">
<g id="graph0" class="graph" transform="scale(1 1) rotate(0) translate(4 256)">
<title>pastafarianism</title>
<polygon fill="white" stroke="transparent" points="-4,4 -4,-256 320.82,-256 320.82,4 -4,4"/>
<!-- Fallback -->
<g id="node1" class="node">
<title>Fallback</title>
<polygon fill="cyan" stroke="black" points="155.19,-226.54 155.19,-241.46 138.06,-252 113.84,-252 96.71,-241.46 96.71,-226.54 113.84,-216 138.06,-216 155.19,-226.54"/>
<text text-anchor="middle" x="125.95" y="-231.8" font-family="Times,serif" font-size="9.00">Fallback</text>
</g>
<!-- GetSubGoal! -->
<g id="node2" class="node">
<title>GetSubGoal!</title>
<ellipse fill="gray" stroke="black" cx="36.95" cy="-162" rx="36.9" ry="18"/>
<text text-anchor="middle" x="36.95" y="-159.8" font-family="Times,serif" font-size="9.00">GetSubGoal!</text>
</g>
<!-- Fallback&#45;&gt;GetSubGoal! -->
<g id="edge1" class="edge">
<title>Fallback&#45;&gt;GetSubGoal!</title>
<path fill="none" stroke="black" d="M108.37,-219.17C95.66,-209.18 78.27,-195.5 63.83,-184.14"/>
<polygon fill="black" stroke="black" points="65.75,-181.2 55.73,-177.77 61.42,-186.7 65.75,-181.2"/>
</g>
<!-- ReachGoal? -->
<g id="node3" class="node">
<title>ReachGoal?</title>
<ellipse fill="gray" stroke="black" cx="125.95" cy="-162" rx="34.13" ry="18"/>
<text text-anchor="middle" x="125.95" y="-159.8" font-family="Times,serif" font-size="9.00">ReachGoal?</text>
</g>
<!-- Fallback&#45;&gt;ReachGoal? -->
<g id="edge2" class="edge">
<title>Fallback&#45;&gt;ReachGoal?</title>
<path fill="none" stroke="black" d="M125.95,-215.7C125.95,-207.98 125.95,-198.71 125.95,-190.11"/>
<polygon fill="black" stroke="black" points="129.45,-190.1 125.95,-180.1 122.45,-190.1 129.45,-190.1"/>
</g>
<!-- Sequence -->
<g id="node4" class="node">
<title>Sequence</title>
<polygon fill="cyan" stroke="black" points="240.44,-154.54 240.44,-169.46 222,-180 195.91,-180 177.46,-169.46 177.46,-154.54 195.91,-144 222,-144 240.44,-154.54"/>
<text text-anchor="middle" x="208.95" y="-159.8" font-family="Times,serif" font-size="9.00">Sequence</text>
</g>
<!-- Fallback&#45;&gt;Sequence -->
<g id="edge3" class="edge">
<title>Fallback&#45;&gt;Sequence</title>
<path fill="none" stroke="black" d="M142.75,-218.83C154.51,-208.91 170.45,-195.47 183.74,-184.26"/>
<polygon fill="black" stroke="black" points="186.22,-186.75 191.61,-177.63 181.71,-181.4 186.22,-186.75"/>
</g>
<!-- CompLkGraph! -->
<g id="node5" class="node">
<title>CompLkGraph!</title>
<ellipse fill="gray" stroke="black" cx="115.95" cy="-90" rx="42.95" ry="18"/>
<text text-anchor="middle" x="115.95" y="-87.8" font-family="Times,serif" font-size="9.00">CompLkGraph!</text>
</g>
<!-- Sequence&#45;&gt;CompLkGraph! -->
<g id="edge4" class="edge">
<title>Sequence&#45;&gt;CompLkGraph!</title>
<path fill="none" stroke="black" d="M190.13,-146.83C177,-136.95 159.23,-123.58 144.38,-112.4"/>
<polygon fill="black" stroke="black" points="146.12,-109.33 136.03,-106.11 141.91,-114.92 146.12,-109.33"/>
</g>
<!-- Fallback* -->
<g id="node6" class="node">
<title>Fallback*</title>
<polygon fill="cyan" stroke="black" points="240.69,-82.54 240.69,-97.46 222.1,-108 195.8,-108 177.21,-97.46 177.21,-82.54 195.8,-72 222.1,-72 240.69,-82.54"/>
<text text-anchor="middle" x="208.95" y="-87.8" font-family="Times,serif" font-size="9.00">Fallback*</text>
</g>
<!-- Sequence&#45;&gt;Fallback* -->
<g id="edge5" class="edge">
<title>Sequence&#45;&gt;Fallback*</title>
<path fill="none" stroke="black" d="M208.95,-143.7C208.95,-135.98 208.95,-126.71 208.95,-118.11"/>
<polygon fill="black" stroke="black" points="212.45,-118.1 208.95,-108.1 205.45,-118.1 212.45,-118.1"/>
</g>
<!-- MoveTo! -->
<g id="node9" class="node">
<title>MoveTo!</title>
<ellipse fill="gray" stroke="black" cx="287.95" cy="-90" rx="28.74" ry="18"/>
<text text-anchor="middle" x="287.95" y="-87.8" font-family="Times,serif" font-size="9.00">MoveTo!</text>
</g>
<!-- Sequence&#45;&gt;MoveTo! -->
<g id="edge8" class="edge">
<title>Sequence&#45;&gt;MoveTo!</title>
<path fill="none" stroke="black" d="M226.09,-145.81C237.26,-135.92 251.98,-122.87 264.26,-111.99"/>
<polygon fill="black" stroke="black" points="266.76,-114.46 271.92,-105.21 262.11,-109.22 266.76,-114.46"/>
</g>
<!-- NotReadyForSG? -->
<g id="node7" class="node">
<title>NotReadyForSG?</title>
<ellipse fill="gray" stroke="black" cx="156.95" cy="-18" rx="46.53" ry="18"/>
<text text-anchor="middle" x="156.95" y="-15.8" font-family="Times,serif" font-size="9.00">NotReadyForSG?</text>
</g>
<!-- Fallback*&#45;&gt;NotReadyForSG? -->
<g id="edge6" class="edge">
<title>Fallback*&#45;&gt;NotReadyForSG?</title>
<path fill="none" stroke="black" d="M196.1,-71.7C189.83,-63.27 182.19,-52.97 175.32,-43.73"/>
<polygon fill="black" stroke="black" points="178.07,-41.56 169.3,-35.62 172.45,-45.74 178.07,-41.56"/>
</g>
<!-- GetSubGoal!* -->
<g id="node8" class="node">
<title>GetSubGoal!*</title>
<ellipse fill="gray" stroke="black" cx="260.95" cy="-18" rx="39.02" ry="18"/>
<text text-anchor="middle" x="260.95" y="-15.8" font-family="Times,serif" font-size="9.00">GetSubGoal!*</text>
</g>
<!-- Fallback*&#45;&gt;GetSubGoal!* -->
<g id="edge7" class="edge">
<title>Fallback*&#45;&gt;GetSubGoal!*</title>
<path fill="none" stroke="black" d="M221.8,-71.7C228.16,-63.14 235.94,-52.67 242.88,-43.33"/>
<polygon fill="black" stroke="black" points="245.8,-45.26 248.96,-35.14 240.18,-41.08 245.8,-45.26"/>
</g>
</g>
</svg>
